<?xml version="1.0" encoding="UTF-8"?>
<!-- generated by Finnhub -->
<svg viewBox="0 0 55.5 55.5" xmlns="http://www.w3.org/2000/svg">
<path d="M 0,0 H 55.5 V 55.5 H 0 Z" fill="rgb(239, 242, 248)"/>
<path d="M 48.99,19.985 H 7 V 36 H 49 V 20 Z M 48,21 H 8 V 35 H 48 V 21 Z" fill-rule="evenodd"/>
<path d="M 45.93,31.095 H 43.72 L 43.7,31.48 C 43.7,32.25 44.14,32.77 44.86,32.77 C 45.41,32.77 45.74,32.51 45.9,31.97 L 46,31.98 C 45.93,32.26 45.89,32.35 45.77,32.51 C 45.54,32.82 45.09,33 44.58,33 C 43.6,33 43,32.45 43,31.57 C 43,30.64 43.67,30 44.66,30 C 45.11,30 45.49,30.16 45.72,30.44 C 45.86,30.63 45.9,30.77 45.94,31.11 Z M 44.59,30.11 C 44.12,30.11 43.86,30.41 43.74,30.99 H 45.16 C 45.26,30.99 45.3,30.95 45.3,30.83 A 0.7,0.7 0 0,0 44.6,30.11 Z M 33.58,30 V 29.83 H 34 V 29 H 34.7 L 34.69,29.83 H 35.45 V 30 H 34.7 V 32 C 34.7,32.3 34.63,32.8 35.05,32.8 C 35.27,32.8 35.43,32.63 35.5,32.32 L 35.58,32.34 C 35.49,32.8 35.25,33 34.78,33 C 34.35,33 34.02,32.79 34,32.35 V 30 H 33.58 Z M 31.36,33 V 32.92 C 31.62,32.89 31.72,32.86 31.82,32.78 C 31.95,32.68 32.02,32.51 32.02,32.28 V 29.22 L 32,28.82 A 0.81,0.81 0 0,0 31.9,28.39 C 31.82,28.26 31.7,28.2 31.44,28.19 V 28.11 L 32.69,28 H 32.75 V 32.28 C 32.75,32.73 32.89,32.88 33.36,32.92 V 33 H 31.36 Z M 27.47,30.08 L 28.6,30 H 28.66 V 31.9 C 28.66,32.38 28.72,32.82 29.31,32.82 C 29.89,32.82 29.99,31.87 29.99,31.49 V 31.12 C 29.98,30.83 30.04,30.42 29.79,30.22 C 29.72,30.18 29.65,30.16 29.46,30.15 V 30.08 L 30.6,30 H 30.66 L 30.68,32.26 C 30.68,32.58 30.71,32.63 30.88,32.7 C 30.96,32.74 30.99,32.75 31.22,32.77 V 32.84 L 30,33 V 32.55 C 29.68,32.88 29.53,33 29.07,33 C 28.37,33 28,32.73 28,32.04 V 30.74 C 28,30.44 27.93,30.32 27.8,30.23 C 27.72,30.18 27.65,30.16 27.48,30.15 L 27.47,30.08 Z M 35.47,30.08 L 36.6,30 H 36.66 V 31.9 C 36.66,32.38 36.72,32.82 37.31,32.82 C 37.89,32.82 37.99,31.87 37.99,31.49 V 31.12 C 37.98,30.83 38.04,30.42 37.79,30.22 C 37.72,30.18 37.65,30.16 37.46,30.15 V 30.08 L 38.6,30 H 38.66 L 38.68,32.26 C 38.68,32.58 38.71,32.63 38.88,32.7 C 38.96,32.74 38.99,32.75 39.22,32.77 V 32.84 L 38,33 V 32.55 C 37.68,32.88 37.53,33 37.07,33 C 36.37,33 36,32.73 36,32.04 V 30.74 C 36,30.44 35.93,30.32 35.8,30.23 C 35.72,30.18 35.65,30.16 35.48,30.15 L 35.47,30.08 Z M 15.83,31.51 L 15.64,31.41 A 0.94,0.94 0 0,1 15.18,30.61 C 15.18,30.06 15.75,29.61 16.45,29.61 C 16.62,29.61 16.75,29.63 16.99,29.7 C 17.13,29.25 17.39,29 17.69,29 C 17.87,29 18,29.1 18,29.25 C 18,29.39 17.88,29.49 17.72,29.49 C 17.68,29.49 17.66,29.49 17.57,29.46 A 0.57,0.57 0 0,0 17.39,29.4 C 17.26,29.4 17.15,29.53 17.11,29.73 C 17.54,29.98 17.72,30.24 17.72,30.61 C 17.72,31.15 17.15,31.61 16.5,31.61 H 16.38 L 16.17,31.58 H 16.09 C 15.85,31.58 15.64,31.7 15.64,31.84 C 15.64,31.96 15.82,32.04 16.14,32.06 L 16.54,32.08 C 16.94,32.1 17.25,32.15 17.48,32.23 C 17.8,32.33 17.98,32.61 17.98,32.97 C 17.98,33.57 17.35,34 16.44,34 C 15.6,34 15,33.68 15,33.25 C 15,32.95 15.29,32.69 15.64,32.69 C 15.82,32.69 15.94,32.74 15.94,32.8 C 15.95,32.82 15.94,32.83 15.92,32.83 H 15.87 L 15.78,32.82 C 15.58,32.82 15.43,32.99 15.43,33.24 C 15.43,33.63 15.83,33.89 16.43,33.89 C 17.1,33.89 17.5,33.63 17.5,33.21 C 17.5,32.99 17.42,32.86 17.22,32.77 A 0.89,0.89 0 0,0 16.92,32.68 L 16.49,32.65 A 5.73,5.73 0 0,1 15.59,32.52 C 15.39,32.45 15.23,32.27 15.23,32.08 C 15.23,31.96 15.3,31.83 15.4,31.75 C 15.5,31.66 15.56,31.64 15.83,31.51 Z M 15.83,30.66 C 15.83,31.22 16.03,31.51 16.45,31.51 C 16.75,31.51 16.87,31.43 17,31.18 C 17.06,31.03 17.1,30.88 17.1,30.66 C 17.1,30.02 16.9,29.7 16.5,29.7 C 16.05,29.7 15.83,30.03 15.83,30.66 Z M 10,33 V 32.9 A 0.75,0.75 0 0,0 10.46,32.7 C 10.59,32.56 10.75,32.3 10.9,31.9 L 12.38,28.12 L 12.41,28.02 L 12.47,28 C 12.5,28 12.52,28.01 12.52,28.03 L 12.55,28.12 L 14.09,31.9 C 14.25,32.3 14.41,32.58 14.54,32.7 A 0.7,0.7 0 0,0 15,32.9 V 33 H 12.91 V 32.9 C 13.34,32.85 13.51,32.76 13.51,32.54 C 13.51,32.38 13.45,32.18 13.33,31.91 L 12.98,31.04 H 11.4 L 11.06,31.91 C 10.96,32.17 10.9,32.38 10.9,32.52 C 10.9,32.76 11.07,32.87 11.54,32.9 V 33 H 10 Z M 12.2,29.02 L 11.45,30.88 H 12.94 L 12.19,29.02 Z M 36.57,28 L 36.58,27.92 C 36.91,27.88 37,27.63 37,27.32 V 26.17 L 36.99,25.79 C 36.99,25.61 36.99,25.36 36.85,25.23 C 36.8,25.18 36.75,25.17 36.61,25.15 V 25.08 L 37.58,25 H 37.62 V 25.44 C 37.84,25.16 38.14,25 38.5,25 C 39.12,25 39.67,25.4 39.67,25.97 V 27.33 C 39.67,27.63 39.69,27.88 40,27.93 V 28 H 38.6 V 27.92 C 38.93,27.88 39,27.62 39,27.32 V 26.3 C 39,25.9 38.94,25.19 38.38,25.19 C 37.72,25.19 37.68,25.97 37.68,26.42 V 27.33 C 37.68,27.65 37.74,27.89 38.09,27.93 V 28 H 36.57 Z M 34.96,27.66 C 34.9,27.71 34.86,27.76 34.81,27.78 C 34.63,27.93 34.37,28 34.08,28 C 33.53,28 33.18,27.73 33.18,27.3 C 33.18,26.7 33.81,26.51 34.29,26.4 C 34.69,26.3 34.83,26.25 34.91,26.16 C 34.97,26.09 35,25.98 35,25.68 C 35,25.27 34.83,25.1 34.45,25.1 C 34.16,25.1 34.02,25.22 33.96,25.54 C 33.92,25.73 33.83,25.8 33.61,25.8 C 33.44,25.8 33.34,25.7 33.34,25.54 C 33.34,25.21 33.81,25 34.54,25 C 35.29,25 35.74,25.22 35.74,25.75 V 27.45 C 35.74,27.7 35.82,27.81 35.96,27.81 C 36.04,27.81 36.13,27.78 36.26,27.68 L 36.3,27.74 A 0.8,0.8 0 0,1 35.7,28 C 35.44,28 35.1,27.9 34.96,27.66 Z M 35,26.89 V 26.29 L 34.85,26.35 L 34.57,26.46 C 34.17,26.64 33.84,26.9 33.84,27.38 C 33.84,27.65 34.06,27.84 34.34,27.84 C 34.57,27.84 34.79,27.72 34.89,27.54 C 34.98,27.37 35,27.24 35,26.89 Z M 31.89,26.97 L 32,26.98 C 31.82,27.66 31.36,28 30.6,28 C 29.63,28 29,27.45 29,26.59 C 29,25.66 29.74,25 30.8,25 C 31.41,25 31.86,25.22 31.86,25.53 C 31.86,25.7 31.72,25.81 31.54,25.81 A 0.37,0.37 0 0,1 31.18,25.53 L 31.14,25.37 C 31.1,25.2 30.94,25.1 30.71,25.1 C 30.14,25.1 29.72,25.7 29.72,26.5 C 29.72,27.31 30.15,27.83 30.84,27.83 C 31.39,27.83 31.75,27.53 31.89,26.97 Z M 26.89,31.97 L 27,31.98 C 26.82,32.66 26.36,33 25.6,33 C 24.63,33 24,32.45 24,31.59 C 24,30.66 24.74,30 25.8,30 C 26.41,30 26.86,30.22 26.86,30.53 C 26.86,30.7 26.72,30.81 26.54,30.81 A 0.37,0.37 0 0,1 26.18,30.53 L 26.14,30.37 C 26.1,30.2 25.94,30.1 25.71,30.1 C 25.14,30.1 24.72,30.7 24.72,31.5 C 24.72,32.31 25.15,32.83 25.84,32.83 C 26.39,32.83 26.75,32.53 26.89,31.97 Z M 26.36,28 L 26.37,27.91 C 26.62,27.89 26.71,27.86 26.82,27.77 C 26.94,27.66 27,27.48 27,27.24 V 25.84 L 26.97,25.57 A 0.52,0.52 0 0,0 26.77,25.26 C 26.7,25.21 26.62,25.19 26.42,25.17 V 25.09 L 27.7,25 H 27.76 V 27.24 C 27.76,27.7 27.91,27.87 28.35,27.91 V 28 H 26.35 Z M 27.5,23 A 0.5,0.5 0 1,0 27.5,24 A 0.5,0.5 0 0,0 28,23.5 A 0.5,0.5 0 0,0 27.5,23 Z M 21.36,33 L 21.37,32.91 C 21.62,32.89 21.71,32.86 21.82,32.77 C 21.94,32.66 22,32.48 22,32.24 V 30.84 L 21.97,30.57 A 0.52,0.52 0 0,0 21.77,30.26 C 21.7,30.21 21.62,30.19 21.42,30.17 V 30.09 L 22.7,30 H 22.76 V 32.24 C 22.76,32.7 22.91,32.87 23.35,32.91 V 33 H 21.35 Z M 22.5,28 A 0.5,0.5 0 1,0 22.5,29 A 0.5,0.5 0 0,0 23,28.5 A 0.5,0.5 0 0,0 22.5,28 Z M 23.36,28 L 23.37,27.92 C 23.85,27.88 24,27.74 24,27.32 V 25.8 L 23.97,25.55 A 0.44,0.44 0 0,0 23.77,25.28 C 23.71,25.23 23.63,25.21 23.43,25.2 V 25.13 L 24.68,25.05 H 24.73 L 24.77,25.59 C 24.94,25.36 25.02,25.27 25.17,25.19 C 25.33,25.08 25.57,25.01 25.79,25.01 C 26.12,25.01 26.36,25.16 26.36,25.36 C 26.36,25.52 26.21,25.63 26.02,25.63 C 25.92,25.63 25.82,25.6 25.76,25.54 C 25.72,25.52 25.69,25.48 25.61,25.37 C 25.56,25.3 25.51,25.27 25.44,25.27 C 25.04,25.27 24.75,25.77 24.75,26.42 V 27.33 C 24.75,27.61 24.78,27.7 24.92,27.81 C 25.03,27.88 25.12,27.91 25.4,27.93 V 28 H 23.36 Z M 18.36,33 L 18.37,32.92 C 18.85,32.88 19,32.74 19,32.32 V 30.8 L 18.97,30.55 A 0.44,0.44 0 0,0 18.77,30.28 C 18.71,30.23 18.63,30.21 18.43,30.2 V 30.12 L 19.68,30.05 H 19.73 L 19.77,30.59 C 19.94,30.36 20.02,30.27 20.17,30.19 C 20.33,30.08 20.57,30.01 20.79,30.01 C 21.12,30.01 21.36,30.16 21.36,30.36 C 21.36,30.52 21.21,30.63 21.02,30.63 C 20.92,30.63 20.82,30.6 20.76,30.54 C 20.72,30.52 20.69,30.48 20.61,30.37 C 20.56,30.3 20.51,30.27 20.44,30.27 C 20.04,30.27 19.75,30.77 19.75,31.42 V 32.33 C 19.75,32.61 19.78,32.7 19.92,32.81 C 20.03,32.88 20.12,32.91 20.4,32.93 V 33 H 18.36 Z M 39.35,33 L 39.37,32.92 C 39.85,32.88 40,32.74 40,32.32 V 30.8 L 39.97,30.55 A 0.44,0.44 0 0,0 39.77,30.28 C 39.71,30.23 39.63,30.21 39.43,30.2 V 30.13 L 40.68,30.05 H 40.73 L 40.77,30.59 C 40.94,30.36 41.02,30.27 41.17,30.19 C 41.33,30.08 41.57,30.01 41.79,30.01 C 42.12,30.01 42.35,30.16 42.35,30.36 C 42.35,30.52 42.21,30.63 42.02,30.63 C 41.92,30.63 41.82,30.6 41.76,30.54 C 41.72,30.52 41.69,30.48 41.61,30.37 C 41.56,30.3 41.51,30.27 41.44,30.27 C 41.04,30.27 40.75,30.77 40.75,31.42 V 32.33 C 40.75,32.61 40.78,32.7 40.92,32.81 C 41.03,32.88 41.12,32.91 41.4,32.93 V 33 H 39.35 Z"/>
<path d="M 21.369999999999997,27.985 V 27.9 C 21.82,27.86 22,27.59 22,27.14 V 24.2 H 21.48 V 24 H 22 V 23.72 C 22,23.06 22.1,22.68 22.34,22.42 C 22.57,22.16 23,22 23.45,22 C 24.04,22 24.38,22.2 24.38,22.53 C 24.38,22.7 24.25,22.83 24.08,22.83 C 23.82,22.83 23.77,22.66 23.71,22.46 C 23.65,22.26 23.5,22.14 23.32,22.14 C 22.92,22.14 22.72,22.61 22.72,23.6 V 24 H 23.46 V 24.19 H 22.72 V 27.14 C 22.72,27.58 22.9,27.86 23.34,27.9 V 28 H 21.38 Z M 16,28 V 27.9 A 0.75,0.75 0 0,0 16.46,27.7 C 16.59,27.56 16.75,27.3 16.9,26.9 L 18.38,23.12 L 18.41,23.02 L 18.47,23 C 18.5,23 18.52,23.01 18.52,23.03 L 18.55,23.12 L 20.09,26.9 C 20.25,27.3 20.41,27.58 20.54,27.7 A 0.7,0.7 0 0,0 21,27.9 V 28 H 18.91 V 27.9 C 19.34,27.85 19.51,27.76 19.51,27.54 C 19.51,27.38 19.45,27.18 19.33,26.91 L 18.98,26.04 H 17.4 L 17.06,26.91 C 16.96,27.17 16.9,27.38 16.9,27.52 C 16.9,27.76 17.07,27.87 17.54,27.9 V 28 H 16 Z M 18.2,24.02 L 17.45,25.88 H 18.94 L 18.19,24.02 Z"/>
</svg>
