<?xml version="1.0" encoding="UTF-8"?>
<!-- generated by Finnhub -->
<svg viewBox="0 0 55.5 55.5" xmlns="http://www.w3.org/2000/svg">
<path d="M 0,0 H 55.5 V 55.5 H 0 Z" fill="rgb(239, 242, 248)"/>
<path d="M 43.99,29.926 L 43.974,29.916 A 26.876,26.876 0 0,0 40.816,27.327 A 26.607,26.607 0 0,0 43.678,24.417 L 43.704,24.38 L 43.665,24.367 C 42.415,23.821 41.127,23.367 39.81,23.008 A 26.738,26.738 0 0,0 41.5,19.305 L 41.512,19.266 H 41.474 A 27.238,27.238 0 0,0 37.387,19.305 C 37.593,17.965 37.697,16.611 37.697,15.255 V 15.217 L 37.658,15.23 A 25.954,25.954 0 0,0 33.828,16.652 A 26.524,26.524 0 0,0 32.72,12.731 L 32.707,12.693 L 32.669,12.718 A 26.377,26.377 0 0,0 29.563,15.358 A 27.286,27.286 0 0,0 27.175,12.051 L 27.136,12 L 27.11,12.038 A 27.269,27.269 0 0,0 25.1,15.575 A 26.47,26.47 0 0,0 21.721,13.281 L 21.683,13.256 L 21.67,13.294 A 26.042,26.042 0 0,0 21,17.305 A 26.319,26.319 0 0,0 17.041,16.306 L 17.003,16.293 V 16.331 C 17.145,17.681 17.395,19.019 17.751,20.33 C 16.384,20.357 15.021,20.494 13.676,20.74 L 13.638,20.753 L 13.651,20.791 A 26.042,26.042 0 0,0 15.726,24.29 A 25.572,25.572 0 0,0 12.038,26.058 L 12,26.071 L 12.026,26.096 A 26.886,26.886 0 0,0 15.184,28.686 A 26.614,26.614 0 0,0 12.322,31.594 L 12.297,31.632 L 12.335,31.645 C 13.585,32.191 14.873,32.645 16.19,33.004 A 26.75,26.75 0 0,0 14.501,36.708 L 14.488,36.746 H 14.527 C 15.12,36.784 15.725,36.81 16.331,36.81 C 17.092,36.81 17.853,36.772 18.613,36.707 A 26.513,26.513 0 0,0 18.304,40.757 V 40.795 L 18.342,40.782 A 25.964,25.964 0 0,0 22.172,39.362 C 22.441,40.695 22.812,42.006 23.282,43.282 L 23.294,43.321 L 23.333,43.295 A 26.378,26.378 0 0,0 26.438,40.655 A 27.275,27.275 0 0,0 28.823,43.962 L 28.849,44 L 28.875,43.962 A 27.27,27.27 0 0,0 30.885,40.425 A 26.468,26.468 0 0,0 34.264,42.719 L 34.302,42.744 L 34.315,42.706 C 34.643,41.388 34.867,40.047 34.985,38.695 A 26.32,26.32 0 0,0 38.944,39.695 L 38.982,39.708 V 39.669 A 25.361,25.361 0 0,0 38.235,35.671 A 27.395,27.395 0 0,0 42.311,35.272 L 42.349,35.259 L 42.336,35.221 A 26.055,26.055 0 0,0 40.26,31.722 A 25.575,25.575 0 0,0 43.948,29.954 L 44,29.94 Z M 28,33.517 A 5.568,5.568 0 0,1 24.92,32.587 A 5.517,5.517 0 0,1 22.878,30.115 A 5.479,5.479 0 0,1 22.563,26.931 A 5.5,5.5 0 0,1 24.08,24.11 A 5.576,5.576 0 0,1 30.121,22.915 A 5.537,5.537 0 0,1 32.609,24.945 C 33.219,25.85 33.544,26.915 33.544,28.005 A 5.501,5.501 0 0,1 31.918,31.9 A 5.569,5.569 0 0,1 28,33.517 Z" fill="rgb(171, 196, 231)"/>
<path d="M 40.806000000000004,27.312 L 40.777,27.301 A 24.75,24.75 0 0,0 38.767,26.02 A 8.442,8.442 0 0,0 38.289,25.763 C 38.237,25.737 38.186,25.699 38.122,25.673 A 27.485,27.485 0 0,0 39.785,23.046 L 39.811,23.008 L 39.772,22.995 A 32.768,32.768 0 0,0 37.438,22.47 C 37.258,22.444 37.078,22.406 36.898,22.394 C 36.833,22.381 36.782,22.381 36.717,22.368 C 36.995,21.369 37.215,20.355 37.374,19.331 V 19.293 H 37.336 C 36.485,19.369 35.711,19.459 34.963,19.6 C 34.783,19.626 34.603,19.664 34.422,19.703 L 34.242,19.741 A 25.194,25.194 0 0,0 33.816,16.665 L 33.803,16.627 L 33.764,16.64 C 32.991,16.999 32.294,17.358 31.65,17.73 C 31.497,17.819 31.328,17.92 31.186,18.011 C 31.134,18.049 31.083,18.075 31.032,18.114 A 25.41,25.41 0 0,0 29.576,15.37 L 29.55,15.332 L 29.524,15.357 A 23.987,23.987 0 0,0 27.914,17.1 L 27.566,17.523 C 27.528,17.574 27.489,17.613 27.451,17.664 A 25.456,25.456 0 0,0 25.131,15.588 L 25.104,15.562 L 25.091,15.6 C 24.731,16.37 24.434,17.087 24.176,17.792 C 24.112,17.958 24.061,18.138 23.996,18.304 C 23.982,18.368 23.957,18.419 23.944,18.484 C 23.004,18.042 22.039,17.654 21.055,17.318 L 21.017,17.305 V 17.343 A 25.977,25.977 0 0,0 20.902,19.713 C 20.902,19.893 20.902,20.085 20.915,20.265 V 20.444 A 25.311,25.311 0 0,0 17.795,20.33 H 17.757 L 17.77,20.368 C 17.99,21.188 18.221,21.93 18.48,22.636 C 18.544,22.802 18.608,22.982 18.67,23.148 A 0.888,0.888 0 0,1 18.735,23.315 C 17.729,23.575 16.739,23.891 15.77,24.263 L 15.731,24.276 L 15.757,24.314 C 16.247,25.006 16.724,25.621 17.201,26.198 C 17.316,26.338 17.446,26.48 17.562,26.608 C 17.602,26.658 17.644,26.705 17.691,26.748 A 24.803,24.803 0 0,0 15.228,28.658 L 15.203,28.684 L 15.241,28.71 C 15.937,29.197 16.595,29.62 17.252,29.991 C 17.406,30.081 17.575,30.171 17.729,30.248 C 17.781,30.273 17.832,30.299 17.897,30.338 A 27.465,27.465 0 0,0 16.234,32.964 L 16.208,33.002 L 16.246,33.015 C 17.071,33.233 17.832,33.4 18.58,33.541 C 18.76,33.579 18.954,33.605 19.134,33.631 C 19.199,33.643 19.249,33.643 19.314,33.656 A 26.494,26.494 0 0,0 18.657,36.693 V 36.731 H 18.696 A 24.62,24.62 0 0,0 21.068,36.424 A 7.94,7.94 0 0,0 21.609,36.321 L 21.79,36.283 C 21.869,37.316 22.01,38.343 22.216,39.359 L 22.229,39.397 L 22.267,39.384 C 23.041,39.025 23.737,38.666 24.381,38.294 C 24.535,38.205 24.691,38.104 24.846,38.013 C 24.897,37.975 24.949,37.949 24.999,37.91 C 25.429,38.854 25.915,39.77 26.456,40.654 L 26.482,40.692 L 26.507,40.667 A 24.007,24.007 0 0,0 28.117,38.924 L 28.463,38.501 C 28.498,38.451 28.536,38.405 28.578,38.361 C 29.308,39.099 30.083,39.792 30.898,40.437 L 30.924,40.462 L 30.937,40.424 C 31.298,39.654 31.595,38.938 31.853,38.233 C 31.917,38.066 31.968,37.887 32.033,37.707 C 32.047,37.656 32.072,37.593 32.085,37.541 C 33.025,37.982 33.99,38.371 34.973,38.707 L 35.012,38.72 V 38.682 C 35.088,37.836 35.127,37.067 35.127,36.311 C 35.127,36.131 35.127,35.939 35.114,35.76 V 35.58 A 28.43,28.43 0 0,0 37.679,35.695 H 38.272 L 38.259,35.657 C 38.04,34.837 37.809,34.094 37.55,33.389 C 37.486,33.222 37.421,33.042 37.344,32.876 A 0.88,0.88 0 0,1 37.279,32.709 A 27.495,27.495 0 0,0 40.245,31.761 L 40.283,31.748 L 40.257,31.71 A 31.335,31.335 0 0,0 38.814,29.826 C 38.699,29.686 38.569,29.544 38.453,29.416 A 1.274,1.274 0 0,0 38.323,29.276 A 24.792,24.792 0 0,0 40.786,27.366 L 40.816,27.326 Z M 28,33.517 A 5.568,5.568 0 0,1 24.92,32.587 A 5.517,5.517 0 0,1 22.878,30.115 A 5.48,5.48 0 0,1 24.08,24.11 A 5.575,5.575 0 0,1 30.122,22.915 A 5.536,5.536 0 0,1 32.61,24.945 C 33.219,25.851 33.544,26.916 33.544,28.006 A 5.501,5.501 0 0,1 31.918,31.9 A 5.569,5.569 0 0,1 28,33.517 Z" fill="rgb(1, 70, 184)"/>
<path d="M 38.317,29.235 L 38.299,29.224 A 28.937,28.937 0 0,0 36.662,27.545 C 37.152,26.968 37.642,26.353 38.119,25.7 L 38.144,25.674 L 38.119,25.661 A 31.99,31.99 0 0,0 36.004,24.636 C 36.284,23.906 36.525,23.161 36.727,22.406 L 36.74,22.368 H 36.702 A 31.059,31.059 0 0,0 34.356,22.125 A 29.421,29.421 0 0,0 34.279,19.779 V 19.741 L 34.241,19.754 C 33.471,19.906 32.708,20.098 31.959,20.331 A 27.779,27.779 0 0,0 31.069,18.152 L 31.056,18.114 L 31.03,18.127 C 30.36,18.537 29.702,18.986 29.084,19.434 C 28.607,18.844 28.065,18.268 27.512,17.692 L 27.484,17.664 L 27.458,17.69 C 26.968,18.305 26.504,18.948 26.078,19.587 A 28.703,28.703 0 0,0 24.002,18.485 L 23.964,18.472 L 23.951,18.51 A 29.4,29.4 0 0,0 23.306,20.765 A 26.221,26.221 0 0,0 20.973,20.445 H 20.934 V 20.483 C 20.96,21.277 21.011,22.059 21.102,22.815 C 20.354,22.943 19.581,23.097 18.794,23.302 L 18.756,23.315 L 18.769,23.353 C 19.065,24.083 19.388,24.801 19.736,25.493 C 19.078,25.865 18.408,26.288 17.738,26.736 L 17.712,26.762 L 17.738,26.788 C 18.266,27.377 18.821,27.941 19.375,28.466 C 18.885,29.043 18.395,29.658 17.918,30.311 L 17.892,30.337 L 17.918,30.35 A 31.99,31.99 0 0,0 20.033,31.375 C 19.753,32.105 19.513,32.849 19.311,33.605 L 19.298,33.643 H 19.336 C 20.122,33.757 20.908,33.833 21.682,33.886 C 21.669,34.642 21.708,35.424 21.759,36.231 V 36.269 L 21.797,36.257 C 22.567,36.105 23.33,35.913 24.079,35.68 A 33.5,33.5 0 0,0 24.956,37.859 L 24.969,37.897 L 24.995,37.884 C 25.665,37.474 26.323,37.025 26.942,36.577 C 27.419,37.167 27.96,37.743 28.514,38.319 L 28.539,38.345 L 28.565,38.319 C 29.055,37.704 29.519,37.062 29.945,36.423 C 30.603,36.807 31.299,37.179 32.021,37.525 L 32.059,37.538 L 32.072,37.5 C 32.317,36.757 32.536,35.987 32.717,35.244 C 33.464,35.385 34.25,35.487 35.05,35.564 H 35.089 V 35.526 A 26.89,26.89 0 0,0 34.921,33.194 A 27.574,27.574 0 0,0 37.229,32.707 L 37.267,32.694 L 37.254,32.656 A 29.165,29.165 0 0,0 36.287,30.516 A 31.485,31.485 0 0,0 38.285,29.273 L 38.327,29.249 Z M 28,33.516 A 5.568,5.568 0 0,1 24.92,32.587 A 5.518,5.518 0 0,1 22.88,30.114 A 5.48,5.48 0 0,1 24.081,24.109 A 5.575,5.575 0 0,1 30.122,22.915 A 5.537,5.537 0 0,1 32.611,24.945 C 33.22,25.85 33.545,26.915 33.545,28.005 A 5.502,5.502 0 0,1 31.919,31.9 A 5.569,5.569 0 0,1 27.999,33.516 Z" fill="rgb(1, 10, 138)"/>
</svg>
