<?xml version="1.0" encoding="UTF-8"?>
<!-- generated by Finnhub -->
<svg viewBox="0 0 55.5 55.5" xmlns="http://www.w3.org/2000/svg">
<path d="M 0,0 H 55.5 V 55.5 H 0 Z" fill="rgb(239, 242, 248)"/>
<path d="M 7.99,28.985 V 35 H 7 V 29 H 8 Z M 13.39,29 V 35 H 12.53 L 10,30.94 V 35 H 9 V 29 H 9.87 L 12.38,33.06 H 12.43 V 29 H 13.39 Z M 17.34,30.68 A 0.8,0.8 0 0,0 17.03,30.1 A 1.1,1.1 0 0,0 16.33,29.9 C 16.13,29.9 15.96,29.93 15.81,30 A 0.78,0.78 0 0,0 15.48,30.26 A 0.7,0.7 0 0,0 15.44,30.97 C 15.49,31.06 15.56,31.14 15.65,31.2 A 2.97,2.97 0 0,0 16.27,31.46 L 16.77,31.59 C 16.97,31.65 17.17,31.71 17.35,31.8 C 17.54,31.89 17.71,32 17.85,32.13 A 1.45,1.45 0 0,1 18.34,33.27 C 18.34,33.62 18.26,33.92 18.1,34.17 C 17.94,34.44 17.7,34.64 17.4,34.78 C 17.1,34.93 16.74,35 16.32,35 C 15.9,35 15.54,34.93 15.24,34.79 C 14.94,34.65 14.7,34.44 14.52,34.17 C 14.35,33.9 14.26,33.57 14.25,33.19 H 15.2 C 15.21,33.39 15.27,33.56 15.37,33.69 C 15.47,33.83 15.6,33.93 15.77,33.99 C 15.93,34.06 16.11,34.09 16.31,34.09 S 16.71,34.06 16.86,33.99 A 0.9,0.9 0 0,0 17.24,33.7 A 0.74,0.74 0 0,0 17.37,33.27 A 0.59,0.59 0 0,0 17.25,32.89 A 0.9,0.9 0 0,0 16.92,32.64 C 16.77,32.57 16.61,32.51 16.42,32.46 L 15.81,32.29 A 2.37,2.37 0 0,1 14.77,31.73 A 1.36,1.36 0 0,1 14.39,30.72 A 1.6,1.6 0 0,1 15.34,29.22 C 15.64,29.07 15.97,29 16.34,29 C 16.72,29 17.05,29.07 17.34,29.22 A 1.62,1.62 0 0,1 18.27,30.69 H 17.34 Z M 22.36,29 H 23.32 V 32.89 C 23.32,33.31 23.23,33.67 23.05,33.99 A 1.9,1.9 0 0,1 22.3,34.74 C 21.97,34.91 21.6,35 21.16,35 C 20.73,35 20.35,34.91 20.02,34.74 A 1.9,1.9 0 0,1 19.27,33.99 A 2.2,2.2 0 0,1 19,32.89 V 29 H 20 V 32.8 C 20,33.25 20.12,33.65 20.53,33.9 C 20.71,34 20.92,34.06 21.16,34.06 C 21.41,34.06 21.62,34 21.8,33.9 C 21.98,33.79 22.12,33.64 22.21,33.45 C 22.31,33.26 22.36,33.05 22.36,32.8 V 29 Z M 24.57,35 V 29 H 26.57 A 1.9,1.9 0 0,1 28.45,30.94 C 28.45,31.94 27.63,33 26.55,33 H 25.13 V 32 H 26.43 C 27,32 27.47,31.5 27.47,30.94 C 27.47,30.3 27.05,30 26.42,30 H 25.54 V 35 H 24.57 Z M 27.32,32.27 L 28.64,35 H 27.57 L 26.27,32.27 H 27.32 Z M 30.02,35 H 29 L 30.88,29 H 32.07 L 33.95,35 H 32.9 L 31.47,30.28 H 31.43 L 30.02,35 Z M 30.06,32.63 H 32.86 V 33.47 H 30.06 V 32.63 Z M 39,29 V 35 H 38.16 L 35.65,30.94 H 35.6 V 35 H 34.64 V 29 H 35.5 L 38,33.06 V 29 H 39 Z M 44.63,31.05 H 43.66 A 1.4,1.4 0 0,0 43.5,30.58 A 1.13,1.13 0 0,0 42.84,30.02 C 42.7,29.97 42.55,29.95 42.39,29.95 C 42.1,29.95 41.84,30.03 41.62,30.19 C 41.4,30.34 41.22,30.58 41.09,30.89 C 40.97,31.19 40.9,31.56 40.9,31.99 C 40.9,32.44 40.97,32.82 41.1,33.12 C 41.22,33.42 41.4,33.66 41.62,33.82 C 41.84,33.97 42.1,34.04 42.39,34.04 C 42.55,34.04 42.69,34.02 42.83,33.97 A 1.19,1.19 0 0,0 43.5,33.43 C 43.57,33.3 43.63,33.15 43.66,32.98 H 44.63 A 2.45,2.45 0 0,1 43.93,34.4 A 2.14,2.14 0 0,1 42.37,35 A 2.26,2.26 0 0,1 40.25,33.6 A 3.75,3.75 0 0,1 39.93,32 C 39.93,31.37 40.04,30.83 40.25,30.38 C 40.47,29.94 40.75,29.59 41.13,29.36 A 2.44,2.44 0 0,1 43.21,29.14 A 2.07,2.07 0 0,1 44.37,30.18 C 44.5,30.43 44.59,30.72 44.63,31.05 Z M 45.51,35 V 29 H 49 V 30 H 46.48 V 31.55 H 48.8 V 32.43 H 46.48 V 34 H 49 V 35 H 45.51 Z M 5,28 V 22 H 7 C 8.1,22 8.88,22.96 8.88,24.01 C 8.88,25.09 8.11,26 6.98,26 H 5.66 V 25 H 6.86 C 7.5,25 7.89,24.67 7.89,24.01 C 7.89,23.34 7.49,23 6.85,23 H 6 V 28 H 5 Z M 9.71,28 V 22 H 11.71 C 12.79,22 13.59,22.9 13.59,23.95 C 13.59,24.95 12.77,26 11.69,26 H 10.28 V 25 H 11.57 C 12.15,25 12.61,24.5 12.61,23.95 C 12.61,23.31 12.19,23 11.56,23 H 10.68 V 28 H 9.7 Z M 12.47,25.27 L 13.78,28 H 12.71 L 11.41,25.27 H 12.47 Z M 14.48,28 V 22 H 18 V 23 H 15.44 V 24.55 H 17.76 V 25.44 H 15.44 V 27 H 18 V 28 H 14.48 Z M 19.64,22 L 21.03,26.68 H 21.08 L 22.46,22 H 23.53 L 21.65,28 H 20.45 L 18.58,22 H 19.64 Z M 24,28 V 22 H 27.48 V 23 H 25 V 24.55 H 27.3 V 25.44 H 25 V 27 H 27.5 V 28 H 24 Z M 33,22 V 28 H 32.11 L 29.61,23.94 H 29.56 V 28 H 28.59 V 22 H 29.46 L 32,26.06 V 22 H 33 Z M 34,23 V 22 H 38 V 23 H 36.47 V 28 H 35.52 V 23 H 34 Z M 40,22 V 28 H 39 V 22 H 40 Z M 45.71,25 C 45.71,25.63 45.61,26.17 45.39,26.62 C 45.17,27.06 44.89,27.41 44.51,27.64 C 44.15,27.88 43.73,28 43.26,28 A 2.27,2.27 0 0,1 41.13,26.61 A 3.73,3.73 0 0,1 40.81,25 C 40.81,24.37 40.92,23.83 41.13,23.39 A 2.27,2.27 0 0,1 43.26,22 A 2.25,2.25 0 0,1 45.39,23.39 C 45.6,23.83 45.71,24.37 45.71,25 Z M 44.74,25 C 44.74,24.56 44.68,24.18 44.55,23.88 C 44.43,23.58 44.25,23.34 44.03,23.18 A 1.3,1.3 0 0,0 43.26,22.95 C 42.97,22.95 42.72,23.03 42.5,23.19 C 42.27,23.34 42.1,23.57 41.97,23.88 C 41.85,24.18 41.79,24.56 41.79,25 C 41.79,25.44 41.85,25.82 41.97,26.12 C 42.1,26.42 42.27,26.66 42.5,26.82 C 42.72,26.97 42.97,27.05 43.26,27.05 C 43.56,27.05 43.81,26.97 44.03,26.82 C 44.25,26.66 44.43,26.42 44.55,26.12 C 44.68,25.82 44.74,25.44 44.74,25 Z M 51,22 V 28 H 50.14 L 47.64,23.94 H 47.59 V 28 H 46.62 V 22 H 47.49 L 50,26.06 V 22 H 51 Z"/>
</svg>
