<?xml version="1.0" encoding="UTF-8"?>
<!-- generated by Finnhub -->
<svg viewBox="0 0 55.5 55.5" xmlns="http://www.w3.org/2000/svg">
<path d="M 0,0 H 55.5 V 55.5 H 0 Z" fill="rgb(182, 64, 52)"/>
<path d="M 27.49,21.724999999999998 C 27.5,21.34 27.2,21 26.81,21 H 24.7 C 24.32,21 24.01,21.33 24.01,21.74 V 22.76 C 24.01,23.16 24.31,23.5 24.7,23.5 H 26.82 C 27.2,23.5 27.51,23.17 27.51,22.76 V 21.74 Z M 27.5,24.77 C 27.5,24.34 27.2,24 26.81,24 H 24.7 C 24.32,24 24.01,24.34 24.01,24.77 V 31.23 C 24.01,31.66 24.31,32 24.7,32 H 26.82 C 27.2,32 27.51,31.66 27.51,31.23 V 24.77 Z M 31.31,21 C 31.69,21 32,21.35 32,21.77 V 31.23 C 32,31.65 31.7,32 31.31,32 H 29.2 C 28.82,32 28.51,31.65 28.51,31.23 V 21.77 C 28.51,21.35 28.81,21 29.2,21 H 31.32 Z M 35.81,21 C 36.19,21 36.5,21.33 36.5,21.74 V 22.76 C 36.5,23.16 36.2,23.5 35.81,23.5 H 33.7 C 33.32,23.5 33.01,23.17 33.01,22.76 V 21.74 C 33.01,21.34 33.31,21 33.7,21 H 35.82 Z M 35.81,24 C 36.19,24 36.5,24.34 36.5,24.77 V 31.23 C 36.5,31.66 36.2,32 35.81,32 H 33.7 C 33.32,32 33.01,31.66 33.01,31.23 V 24.77 C 33.01,24.34 33.31,24 33.7,24 H 35.82 Z M 40.37,21 C 40.77,21 41,21.35 41,21.77 V 24 H 41.7 C 41.87,24 42,24.13 42,24.3 V 25.7 A 0.3,0.3 0 0,1 41.7,26 H 41 V 28.64 C 41,28.95 41.36,29.21 41.67,29.21 H 42.5 V 32 H 39.55 A 2.09,2.09 0 0,1 37.5,29.88 V 21.78 C 37.5,21.35 37.83,21 38.24,21 H 40.37 Z M 46.63,24 H 43.37 C 43.14,24 42.97,24.21 43.04,24.43 L 44.84,31 H 47.14 V 31.48 C 47.14,31.97 46.75,32.36 46.28,32.36 H 45.04 L 45.4,34 H 48.27 C 49.07,34 49.77,33.45 49.96,32.67 L 51.99,24.43 A 0.35,0.35 0 0,0 51.65,24 H 48.65 L 47.56,28.75 L 46.63,24 Z M 4,26.03 C 4,24.9 4.84,24 5.88,24 H 8.12 C 8.59,24 9.02,24.19 9.35,24.5 C 9.49,24.2 9.78,24 10.11,24 H 12.14 C 12.62,24 13,24.41 13,24.92 V 31.08 C 13,31.58 12.62,32 12.14,32 H 10.11 A 0.85,0.85 0 0,1 9.35,31.5 C 9.02,31.81 8.59,32 8.12,32 H 5.88 C 4.84,32 4,31.1 4,29.97 V 26.03 Z M 8.25,26 C 7.84,26 7.5,26.38 7.5,26.84 V 29.16 C 7.5,29.62 7.84,30 8.25,30 S 9,29.62 9,29.16 V 26.84 C 9,26.38 8.66,26 8.25,26 Z M 16.7,21 C 17.19,21 17.58,21.42 17.58,21.94 V 24.44 C 17.91,24.17 18.32,24 18.76,24 H 21.06 C 22.13,24 23,24.94 23,26.09 V 29.92 C 23,31.07 22.13,32 21.06,32 H 18.76 C 18.27,32 17.83,31.8 17.49,31.49 A 0.88,0.88 0 0,1 16.7,32 H 14.88 C 14.39,32 14,31.58 14,31.06 V 21.94 C 14,21.42 14.4,21 14.88,21 H 16.7 Z M 19,26.84 C 19,26.38 18.66,26 18.25,26 S 17.5,26.38 17.5,26.84 V 29.16 C 17.5,29.62 17.84,30 18.25,30 S 19,29.62 19,29.16 V 26.84 Z" fill="rgb(254, 254, 253)"/>
</svg>
