<!-- by Finnhub --><svg width="56" height="56" viewBox="0 0 56 56" xmlns="http://www.w3.org/2000/svg"><path fill="#F0F3FA" d="M0 0h56v56H0z"/><path d="M15 12c1 1 .99 1.7.99 2.88L16 44c.56-.78 2.14-1.04 2.64-1.87.33-.53.36-1.2.36-1.82v-8.94l6.98 5.8 1.95 1.62v-.03l.06.06.09-.06a.05.05 0 0 0-.01.03l1.95-1.61L37 31.37v8.94c0 .63.03 1.29.36 1.82.5.83 2.07 1.2 2.63 2L40 15c0-1.19 0-2 1-3H15Zm13.13 7.73-.14.07-.12-.07c-2.37-1.9-5.15-2.3-7.65-3.76-.61-.36-1.05-.37-1.22-.97h18c-.16.6-.68.65-1.22.97-2.49 1.47-5.29 1.85-7.65 3.76Zm.23 8.61c-.03.38-.14.83-.35 1.17-.18-.37-.31-.74-.35-1.15-.08-.81.13-1.62.36-2.23.21.6.42 1.42.34 2.21Zm-9.4-5.84-.02-.2c-.07-1.05.04-2.12.01-3.18 0-.28-.02-.58-.04-.86.04.13.12.25.22.34.38.32.87.4 1.34.46 1.48.22 2.96.68 4.18 1.58.36.27.73.54.92.95.18.44.26.91.21 1.39-.1 1.4-1.1 2.7-2.4 3.12-1.3.42-2.86-.1-3.66-1.24a4.93 4.93 0 0 1-.77-2.36Zm10.57 11.78L28 35.53l-1.54-1.25c-2.54-2.08-5.22-4.04-7.45-6.46a7.05 7.05 0 0 0 6.19.8c.36-.12.8-.25 1.07.03.1.14.16.3.18.46.25.96.85 1.87 1.55 2.57a5.62 5.62 0 0 0 1.57-2.57 1 1 0 0 1 .18-.46c.25-.28.71-.15 1.07-.03a6.94 6.94 0 0 0 6.19-.8c-2.23 2.42-4.92 4.38-7.47 6.46Zm7.52-15.16c-.03 1.06.08 2.13 0 3.18v.2c-.09.83-.29 1.69-.77 2.36a3.35 3.35 0 0 1-3.66 1.24 3.6 3.6 0 0 1-2.4-3.12c-.05-.48.03-.95.21-1.39.2-.41.56-.68.92-.95a9.34 9.34 0 0 1 4.18-1.58 2.5 2.5 0 0 0 1.34-.46c.1-.09.18-.2.22-.34-.02.28-.04.58-.04.86Z" fill="#221E1F"/><path d="M22.5 25a1.5 1.5 0 1 0 0-3 1.5 1.5 0 0 0 0 3ZM33.5 22a1.5 1.5 0 1 0 0 3 1.5 1.5 0 0 0 0-3Z" fill="#221E1F"/></svg>