<?xml version="1.0" encoding="UTF-8"?>
<!-- generated by Finnhub -->
<svg viewBox="0 0 55.5 55.5" xmlns="http://www.w3.org/2000/svg">
<path d="M0 0h55.5v55.5H0z" fill="rgb(239, 242, 248)"/>
<path d="M20 18h3.5v1H20v-1Zm-3.5 8H13v1h3.5v-1Zm-7 7H6v1h3.5v-1ZM49 33h-3.5v1H49v-1Zm-29.83 0H36.7v1H19.17v-1Zm20.33-7H43v1h-3.5v-1ZM30 26h-4v1h4v-1Zm6-8h-3.5v1H36v-1Z" fill="rgb(16, 71, 51)"/>
<ellipse transform="matrix(-1 0 0 1 44.94 29.08)" cx="3.97" cy="3.96" rx="3.97" ry="3.96" fill="rgb(16, 71, 51)"/>
<path d="M43.24 30.9c-1.02-1.1-2.62-1.11-3.29-.98-.4.5-1 1.87-.1 3.31.9 1.45 2.94 1.39 3.85 1.17.28-.7.56-2.39-.46-3.5Z" fill="rgb(162, 177, 169)"/>
<ellipse transform="matrix(-1 0 0 1 19 29.08)" cx="4" cy="3.96" rx="4" ry="3.96" fill="rgb(16, 71, 51)"/>
<path d="M17.29 30.9c-1.03-1.1-2.64-1.11-3.32-.98-.41.5-1 1.87-.1 3.31.9 1.45 2.97 1.39 3.88 1.17.28-.7.57-2.39-.46-3.5Z" fill="rgb(162, 177, 169)"/>
<circle transform="matrix(-1 0 0 1 39 22)" cx="4" cy="4" r="4" fill="rgb(16, 71, 51)"/>
<path d="M37.29 23.84c-1.03-1.12-2.64-1.13-3.32-.99-.41.5-1 1.88-.1 3.34.9 1.47 2.97 1.4 3.88 1.19.28-.71.57-2.42-.46-3.54Z" fill="rgb(162, 177, 169)"/>
<circle transform="matrix(-1 0 0 1 25 22.38)" cx="4" cy="4" r="4" fill="rgb(16, 71, 51)"/>
<path d="M23.29 24.22c-1.03-1.13-2.64-1.13-3.32-1-.41.51-1 1.89-.1 3.35.9 1.46 2.97 1.4 3.88 1.18.28-.7.57-2.41-.46-3.53Z" fill="rgb(162, 177, 169)"/>
<circle transform="matrix(-1 0 0 1 32 15)" cx="4" cy="4" r="4" fill="rgb(16, 71, 51)"/>
<path d="M30.29 16.84c-1.03-1.12-2.64-1.13-3.32-.99-.41.5-1 1.88-.1 3.34.9 1.47 2.97 1.4 3.88 1.19.28-.71.57-2.42-.46-3.54Z" fill="rgb(162, 177, 169)"/>
</svg>
