<?xml version="1.0" encoding="UTF-8"?>
<!-- generated by Finnhub -->
<svg viewBox="0 0 55.5 55.5" xmlns="http://www.w3.org/2000/svg">
<path d="M 0,0 H 55.5 V 55.5 H 0 Z" fill="rgb(239, 242, 248)"/>
<path d="M 37.370000000000005,21.685 C 30.76,20.98 21.26,25.54 17.34,27.9 C 19.52,18.58 22.14,15.92 23.44,15.03 C 24.74,14.15 26.06,12.81 31.72,11.48 C 36.25,10.42 37.09,11.93 36.95,12.81 L 37.38,21.69 Z"/>
<path d="M 38.68,15.465 C 36.73,10.28 35.64,11.04 33.46,11.04 C 36.95,11.39 35.79,15.33 34.76,17.25 L 22.58,41.22 C 23.6,41.22 27.46,41.32 31.29,41.67 C 35.13,42.02 37.83,38.86 38.7,37.23 L 41.75,32.35 C 43.49,29.51 43.05,27.02 42.62,26.13 C 42.04,24.5 40.44,20.09 38.7,15.48 Z" fill="url(#c)"/>
<path d="M 31.22,24.185 C 34.56,19.65 36.95,14.8 36.95,12.37 C 36.95,12.27 36.93,12.19 36.9,12.11 C 36.43,10.79 35.03,11.04 33.9,11.04 L 33.88,11.1 C 36.85,11.72 35.74,15.41 34.77,17.25 L 31.23,24.2 Z" fill="rgb(1, 204, 253)"/>
<path d="M 19.95,19.905 C 22.05,15.66 23.01,15.33 23.44,15.03 C 19.09,20.8 20.83,27.91 23.01,33.23 C 24.75,37.5 30.41,40.63 33.03,41.67 C 29.69,42.11 22.23,43 19.09,43 C 15.95,43 14.68,42.56 13.86,41.22 C 12.12,38.38 13.42,34.12 14.29,32.35 C 15.17,30.42 17.87,24.18 19.96,19.92 Z" fill="url(#b)"/>
<path d="M 20.819999999999997,18.125 C 20.33,19.22 20.07,20.37 19.96,21.69 C 19.52,27.02 20.39,33.68 23.44,36.79 C 26.4,39.8 28.14,41.56 33.02,41.66 C 30.4,40.62 24.75,37.49 23.01,33.23 C 20.83,27.91 19.09,20.8 23.44,15.03 L 23.32,15.11 C 22.92,15.36 22.12,15.86 20.82,18.14 Z" fill="url(#a)"/>
<defs>
<linearGradient id="c" x1="38.25" x2="30.14" y1="15.03" y2="41.14" gradientUnits="userSpaceOnUse">
<stop stop-color="rgb(174, 174, 173)" offset="0"/>
<stop stop-color="rgb(82, 72, 72)" offset=".22"/>
<stop offset="1"/>
</linearGradient>
<linearGradient id="b" x1="19.52" x2="24.95" y1="19.92" y2="42.3" gradientUnits="userSpaceOnUse">
<stop offset="0"/>
<stop stop-color="rgb(140, 146, 143)" offset=".27"/>
<stop stop-color="rgb(112, 112, 109)" offset=".4"/>
<stop offset=".72"/>
</linearGradient>
<linearGradient id="a" x1="22.57" x2="36.98" y1="15.48" y2="38.36" gradientUnits="userSpaceOnUse">
<stop stop-color="rgb(1, 212, 206)" offset="0"/>
<stop stop-color="rgb(1, 212, 174)" offset=".27"/>
<stop stop-color="rgb(1, 196, 98)" offset=".4"/>
<stop stop-color="rgb(1, 181, 253)" offset=".72"/>
<stop stop-color="rgb(0, 0, 173)" offset="1"/>
</linearGradient>
</defs>
</svg>
