<?xml version="1.0" encoding="UTF-8"?>
<!-- generated by Finnhub -->
<svg viewBox="0 0 55.5 55.5" xmlns="http://www.w3.org/2000/svg">
<path d="M 0,0 H 55.5 V 55.5 H 0 Z" fill="rgb(239, 242, 248)"/>
<path d="M 41.99,13.985 H 14 V 42 H 42 V 14 Z M 18.91,40 H 21.91 L 16,34.03 V 37.05 L 18.91,40 Z M 17.98,16 L 19.08,17.11 L 19,17 H 39 V 37.23 L 40,38.24 V 16 H 17.97 Z M 39.99,39.98 L 39.97,40 H 39.99 V 39.98 Z M 38.7,40 L 16,17.06 V 19.22 L 36.57,40 H 38.7 Z M 33.54,40 L 16,22.28 V 25.08 L 30.78,40 H 33.54 Z M 27.74,40 H 24.83 L 24.88,39.94 L 16,30.97 V 28.14 L 27.74,40 Z M 36,34.2 V 19 H 20.95 L 21.94,20 H 34.99 V 33.2 L 35.99,34.2 Z M 33,31.17 V 22 H 23.93 L 24.91,23 H 32 V 30.16 L 33,31.17 Z" fill="url(#a)" fill-rule="evenodd"/>
<defs>
<linearGradient id="a" x1="18.14" x2="37.01" y1="39.4" y2="36.57" gradientUnits="userSpaceOnUse">
<stop stop-color="rgb(155, 94, 18)" offset="0"/>
<stop stop-color="rgb(223, 159, 2)" offset="1"/>
</linearGradient>
</defs>
</svg>
