<!-- by Finnhub --><svg width="56" height="56" viewBox="0 0 56 56" fill="none" xmlns="http://www.w3.org/2000/svg">
<rect width="56" height="56" fill="#F0F3FA"/>
<path fill-rule="evenodd" clip-rule="evenodd" d="M44 16H22.7539C16.9706 16 12 20.8756 12 26.5669V40H33.2461C39.0294 40 44 35.1244 44 29.4331V16ZM22.7539 15C16.2624 15 11 20.1787 11 26.5669V41H33.2461C39.7376 41 45 35.8213 45 29.4331V15H22.7539Z" fill="#43B464"/>
<path fill-rule="evenodd" clip-rule="evenodd" d="M22 34L26.9412 22H28.9916L34 34H31.0084L29.8773 31H26.0186L24.9244 34H22ZM26.748 29H29.1233L27.916 25.7979L26.748 29Z" fill="#3C5250"/>
</svg>
