<!-- by Finnhub --><svg xmlns="http://www.w3.org/2000/svg" width="56" height="56" viewBox="0 0 56 56"><path fill="url(#a0u4ohqgx)" d="M0 0h56v56H0z"/><path fill-rule="evenodd" d="M28.43 17.05a.75.75 0 0 0-.87 0l-4.92-2.79a.75.75 0 0 0 0-.15l4.92-2.78a.76.76 0 0 0 .87 0l4.92 2.78a.71.71 0 0 0 0 .15l-4.92 2.8zm-9.16 5.18a.74.74 0 0 0-.84 0l-4.94-2.8v-.06-.09l4.91-2.78a.76.76 0 0 0 .9 0l4.9 2.78a.63.63 0 0 0 0 .15l-4.93 2.8zm18.3 0a.73.73 0 0 0-.85 0l-4.93-2.8v-.06-.09l4.9-2.78a.76.76 0 0 0 .9 0l4.9 2.78a.78.78 0 0 0 0 .15l-4.92 2.8zm-6.83.07l-2-1.14v-.08a.72.72 0 0 0-.44-.67v-2.1a.74.74 0 0 0 .44-.67v-.07l4.92-2.79.13.08v2.6l-2.32 1.31a.75.75 0 0 0-.9.03.73.73 0 0 0-.19.9c.08.15.2.27.36.34v2.26zm-3.19 5.1l-4.9-2.78a.73.73 0 0 0 0-.15l4.92-2.79a.76.76 0 0 0 .85 0l4.93 2.8a.71.71 0 0 0 0 .14l-4.9 2.79a.77.77 0 0 0-.9 0zm9.17 1.74l-1.9-1.08V28a.73.73 0 0 0-.42-.65v-2.12a.74.74 0 0 0 .44-.67.73.73 0 0 0-.41-.65.75.75 0 0 0-.77.06l-2.3-1.31v-2.61l.13-.08 4.9 2.78a.73.73 0 0 0 .44.75v5.58a.78.78 0 0 0-.11.07zm-17.44 3.44a.75.75 0 0 0-.87 0L13.5 29.8a.73.73 0 0 0 0-.15l2.3-1.3 2.32 1.32v.08c0 .2.07.38.21.52a.75.75 0 0 0 1.27-.6l1.86-1.06c.04.04.09.07.14.09v2.08a.74.74 0 0 0-.43.75l-1.88 1.06zm9.15 1.75a.68.68 0 0 0-.13-.08v-5.58a.75.75 0 0 0 .44-.74l4.92-2.79c.04.03.08.06.13.07v2.1a.73.73 0 0 0-.46.68.73.73 0 0 0 .4.66.75.75 0 0 0 .78-.06l1.89 1.07v.08c0 .2.08.38.22.51a.75.75 0 0 0 1.27-.5v-.1l2.31-1.3 2.3 1.3a.71.71 0 0 0 0 .15l-4.92 2.78a.76.76 0 0 0-.87 0l-1.88-1.06v-.08c0-.2-.08-.38-.22-.51a.75.75 0 0 0-1.04 0 .73.73 0 0 0-.22.6l-4.92 2.8zm-.87 0l-4.92-2.8v-.1a.72.72 0 0 0-.44-.66V28.7a.74.74 0 0 0 .44-.62.73.73 0 0 0-.34-.68.75.75 0 0 0-1.05.25.73.73 0 0 0-.1.38v.05l-1.88 1.07a.77.77 0 0 0-.12-.07V23.5a.74.74 0 0 0 .45-.66l-.01-.09 4.91-2.79c.04.04.09.06.14.09v2.6l-2.3 1.32a.75.75 0 0 0-1.08.2.73.73 0 0 0 .3 1.04.75.75 0 0 0 .77-.06l4.92 2.8V28a.72.72 0 0 0 .44.66v5.58a.8.8 0 0 0-.13.08zm.87 3.43a.75.75 0 0 0-.87 0l-4.92-2.79a.73.73 0 0 0 0-.15l2.28-1.3 2.33 1.32a.73.73 0 0 0 .42.74.76.76 0 0 0 1.01-.37.73.73 0 0 0 .06-.37l2.32-1.32 2.29 1.3a.71.71 0 0 0 0 .15l-4.92 2.79zm6.4.67l1.88 1.06a.75.75 0 0 1 .13-.07v-5.58a.73.73 0 0 1-.44-.74l-1.88-1.07a.76.76 0 0 1-.84.02l-2 1.13 1.98 1.12a.75.75 0 0 1 1.07.21.73.73 0 0 1-.33 1.05v2.15a.74.74 0 0 1 .44.66.5.5 0 0 1 0 .06zm-7.27 6.24l-4.92-2.79v-.1a.72.72 0 0 0-.43-.66v-2.07a.74.74 0 0 0 .43-.62.73.73 0 0 0-.34-.67.75.75 0 0 0-1.05.25.73.73 0 0 0-.1.42l-1.87 1.06a.68.68 0 0 0-.13-.07v-5.58a.74.74 0 0 0 .45-.67v-.07l1.87-1.07a.76.76 0 0 0 .84.02l2 1.13-1.98 1.13a.75.75 0 0 0-1.07.2.73.73 0 0 0 .3 1.04.75.75 0 0 0 .77-.06l4.92 2.79v.07a.72.72 0 0 0 .44.67v5.58a.73.73 0 0 0-.13.07zm-.1 1.12a.75.75 0 0 0 .82.16.75.75 0 0 0 .4-.4.73.73 0 0 0 .06-.36l4.94-2.8a.74.74 0 0 0 .83 0 .74.74 0 0 0 .31-.75.73.73 0 0 0-.58-.58.76.76 0 0 0-.77.31.73.73 0 0 0-.12.51l-4.92 2.8a.76.76 0 0 0-.13-.08v-5.58a.74.74 0 0 0 .44-.74l4.92-2.8c.04.04.08.06.13.08v2.15a.74.74 0 0 0-.4.44.72.72 0 0 0 .27.82.75.75 0 0 0 .88-.01L36.4 40a.76.76 0 0 0 .06.37.74.74 0 0 0 .42.4.76.76 0 0 0 .83-.21.73.73 0 0 0 .17-.56l4.94-2.8c.12.09.27.13.41.13a.75.75 0 0 0 .7-.46.73.73 0 0 0-.17-.8.75.75 0 0 0-1.27.53v.1l-4.92 2.78a.68.68 0 0 0-.13-.07v-5.58a.73.73 0 0 0 .44-.74l4.92-2.79.13.07v2.15a.73.73 0 0 0-.16 1.25.75.75 0 0 0 1.2-.42.73.73 0 0 0-.43-.83v-2.15a.74.74 0 0 0 .44-.66.73.73 0 0 0-.4-.66.75.75 0 0 0-.78.06l-2-1.13 2.01-1.13a.76.76 0 0 0 .93-.05.74.74 0 0 0-.68-1.29.76.76 0 0 0-.57.74v.08l-4.93 2.8a.77.77 0 0 0-.11-.07V23.5a.74.74 0 0 0 .44-.66v-.09l4.9-2.79a.8.8 0 0 0 .14.09v2.12a.73.73 0 0 0-.16 1.25.75.75 0 0 0 1.2-.42.73.73 0 0 0-.43-.83v-2.12a.74.74 0 0 0 .41-.44.72.72 0 0 0-.26-.82.75.75 0 0 0-.87-.01l-4.93-2.8a.73.73 0 0 0-.22-.57.75.75 0 0 0-1.05 0 .73.73 0 0 0-.22.58l-2 1.13v-2.25a.74.74 0 0 0 .4-.45.72.72 0 0 0-.27-.82.75.75 0 0 0-.87 0l-4.92-2.78v-.08c0-.2-.08-.38-.22-.52a.75.75 0 0 0-1.27.6l-4.92 2.79a.75.75 0 0 0-1.07.2.73.73 0 0 0 .3 1.04.75.75 0 0 0 .77-.06l4.92 2.8a.73.73 0 0 0 .44.73v2.1a.74.74 0 0 0-.44.67v.09l-2 1.13v-2.26a.74.74 0 0 0 .43-.83.73.73 0 0 0-.27-.41.75.75 0 0 0-.89-.03l-4.93-2.8a.73.73 0 0 0-.22-.58.75.75 0 0 0-.8-.16.75.75 0 0 0-.47.69v.06l-4.93 2.8a.75.75 0 0 0-.95.07.73.73 0 0 0-.22.52c0 .2.08.38.22.52a.75.75 0 0 0 .97.07l4.91 2.78v.09a.72.72 0 0 0 .44.66v5.58a.77.77 0 0 0-.12.07l-4.93-2.8a.72.72 0 0 0-.44-.75v-2.08a.74.74 0 0 0 .45-.67c0-.2-.08-.38-.22-.52a.75.75 0 0 0-1.28.52.72.72 0 0 0 .44.67v2.08a.74.74 0 0 0-.44.67c0 .2.08.38.22.52a.75.75 0 0 0 .96.08l2 1.13-2 1.14a.75.75 0 0 0-.96.07.73.73 0 0 0-.22.52c0 .2.08.38.22.52a.75.75 0 0 0 .96.07l4.92 2.79a.71.71 0 0 0 .12.47c.08.12.2.21.32.27v5.58a.72.72 0 0 0-.13.07L13.5 36.7v-.1a.72.72 0 0 0-.44-.66v-2.1a.74.74 0 0 0 .45-.67c0-.2-.08-.38-.22-.52a.75.75 0 0 0-1.28.52.72.72 0 0 0 .44.66v2.1a.74.74 0 0 0-.44.67c0 .2.08.39.22.52a.75.75 0 0 0 .94.1l4.94 2.8v.07c0 .2.08.38.22.52a.75.75 0 0 0 1.27-.6l1.85-1.05.15.1v2.06a.74.74 0 0 0-.42.82c.03.17.12.31.26.42a.75.75 0 0 0 .88.03l4.94 2.8a.74.74 0 0 0 .22.6z" fill="#fff"/><defs><linearGradient id="a0u4ohqgx" x1="10.42" y1="9.71" x2="68.15" y2="76.02" gradientUnits="userSpaceOnUse"><stop stop-color="#1A1E21"/><stop offset="1" stop-color="#06060A"/></linearGradient></defs></svg>