<!-- by Finnhub --><svg xmlns="http://www.w3.org/2000/svg" width="56" height="56" viewBox="0 0 56 56"><path fill="url(#anixah3l4)" d="M0 0h56v56H0z"/><path d="m9.7 22.76.77.78a.3.3 0 0 1 0 .35l-.78.77c-.11.08-.27.08-.35 0l-.78-.77c-.07-.12-.07-.28 0-.35l.78-.78c.12-.08.28-.08.35 0Zm1 5.88 3.24 3.22c.08.11.08.27-.04.34l-.74.74a.24.24 0 0 1-.3 0L9.88 30a.61.61 0 0 0-.86 0l-2.96 2.95a.24.24 0 0 1-.31 0l-.7-.77a.24.24 0 0 1 0-.31l3.23-3.22a.24.24 0 0 0 0-.31L5.06 25.1a.24.24 0 0 1 0-.31l.7-.74a.3.3 0 0 1 .35 0L9.07 27c.24.23.62.23.86 0l2.96-2.95a.24.24 0 0 1 .31 0l.74.74c.08.07.08.23 0 .3l-3.23 3.23a.24.24 0 0 0 0 .3ZM21.9 24c.82 0 1.64.36 2.22.96.58.6.88 1.43.88 2.27 0 .83-.3 1.67-.88 2.27-.58.63-1.36.95-2.22.95h-2.45c-.5 0-.9.4-.9.92v1.4c0 .11-.11.23-.23.23h-1.09c-.11 0-.23-.12-.23-.24v-6.49a.8.8 0 0 0-.82-.84h-.35c-.11 0-.23-.12-.23-.24v-.95c0-.12.12-.24.23-.24h6.07Zm-2.53 5h2.42c.93 0 1.75-.78 1.75-1.77 0-1-.78-1.8-1.75-1.8h-2.42a.8.8 0 0 0-.81.84v1.91c0 .48.35.82.81.82Zm14.91 2.57h-5.44a.82.82 0 0 1-.84-.84v-.72c0-.47.37-.83.84-.83h4.62c.12 0 .24-.12.24-.24v-.96c0-.12-.12-.24-.24-.24h-4.62a.82.82 0 0 1-.84-.83v-.64c0-.48.37-.84.84-.84h5.29c.11 0 .23-.12.23-.24v-.95c0-.12-.12-.24-.23-.24h-7.4c-.11 0-.23.12-.23.24v8.52c0 .12.12.24.23.24h7.59c.12 0 .23-.12.23-.24v-.95c-.04-.12-.11-.24-.27-.24ZM49.77 24h-1.1c-.1 0-.23.12-.23.24v8.52c0 .12.12.24.24.24h1.09c.11 0 .23-.12.23-.24v-8.52c0-.12-.08-.24-.23-.24Zm-3.32 8.64c.04.04.04.08.04.12 0 .08-.08.16-.2.24h-1.28a.62.62 0 0 1-.43-.2l-.35-.44-1.56-1.87a.55.55 0 0 0-.46-.24h-1.83a.8.8 0 0 0-.82.84v1.67c0 .12-.12.24-.23.24h-1.1c-.1 0-.23-.12-.23-.24v-6.49a.8.8 0 0 0-.81-.84h-.35c-.12 0-.24-.12-.24-.24v-.95c0-.12.12-.24.24-.24h6.18a3 3 0 0 1 2.14.92c.59.55.9 1.35.9 2.19a3.19 3.19 0 0 1-1.64 2.7.22.22 0 0 0-.11.2c0 .04 0 .08.04.12l.11.12 1.99 2.4Zm-6.07-3.9h2.49c.9 0 1.63-.8 1.63-1.71 0-.92-.74-1.68-1.63-1.68h-2.5a.8.8 0 0 0-.8.84v1.71c0 .48.34.84.8.84Z" fill="#fff"/><defs><linearGradient id="anixah3l4" x1="46.65" y1="8.9" x2="6.4" y2="48.03" gradientUnits="userSpaceOnUse"><stop stop-color="#94298B"/><stop offset="1" stop-color="#B1227A"/></linearGradient></defs></svg>