<?xml version="1.0" encoding="UTF-8"?>
<!-- generated by Finnhub -->
<svg viewBox="0 0 55.5 55.5" xmlns="http://www.w3.org/2000/svg">
<path d="M 0,0 H 55.5 V 55.5 H 0 Z" fill="rgb(239, 242, 248)"/>
<path d="M 19.88,12.924999999999999 A 2.05,2.05 0 0,0 18.04,10 C 16.91,10 16,10.93 16,12.07 C 16,12.83 16.4,13.49 17,13.85 V 36.18 C 16.4,36.54 16,37.2 16,37.96 A 2.05,2.05 0 0,0 18.8,39.88 L 25.77,44.58 A 2.05,2.05 0 0,0 27.78,47 A 2.05,2.05 0 0,0 29.68,44.16 L 44.16,32.35 A 2.05,2.05 0 0,0 47,30.45 A 2.05,2.05 0 0,0 44.14,28.56 L 19.89,12.95 Z M 19.09,13.84 L 19.14,13.81 L 43.34,29.21 C 43.26,29.32 43.19,29.45 43.13,29.57 L 29.66,28.75 A 2.04,2.04 0 0,0 27.28,27.55 L 19.08,13.85 Z M 18,14.14 H 18.06 L 26.26,28.17 A 2.08,2.08 0 0,0 25.82,30.11 L 19.42,36.45 A 2.02,2.02 0 0,0 18,35.89 V 14.14 Z M 19.65,39.22 A 2.08,2.08 0 0,0 20.03,37.49 L 26.45,31.12 C 26.61,31.26 26.8,31.38 27,31.46 V 43.02 C 26.66,43.16 26.37,43.39 26.15,43.68 L 19.65,39.22 Z M 29.1,43.36 C 28.8,43.1 28.42,42.92 28,42.88 V 31.6 C 28.96,31.5 29.72,30.72 29.8,29.74 L 42.94,30.66 C 42.98,31.05 43.13,31.4 43.34,31.69 L 29.1,43.36 Z" fill="rgb(32, 170, 232)"/>
</svg>
