<?xml version="1.0" encoding="UTF-8"?>
<!-- generated by Finnhub -->
<svg viewBox="0 0 55.5 55.5" xmlns="http://www.w3.org/2000/svg">
<path d="M 0,0 H 55.5 V 55.5 H 0 Z" fill="rgb(239, 242, 248)"/>
<path d="M 35.85,35.915 A 35.38,35.38 0 0,1 30.36,29.14 H 30.33 L 29.6,29.56 A 31.72,31.72 0 0,1 20.51,32.63 C 20.35,32.66 20.31,32.74 20.21,32.87 A 12.3,12.3 0 0,1 16.79,36.04 L 17.35,35.53 A 18.77,18.77 0 0,0 19.82,32.75 H 19.81 L 19.8,32.74 C 17.66,33.14 15.51,33.3 13.34,33.2 A 13.84,13.84 0 0,1 9.86,32.59 A 5.73,5.73 0 0,1 7.89,31.52 C 6.03,29.98 7.45,27.69 8.83,26.48 C 9.69,25.71 10.68,25.03 11.78,24.43 A 32.81,32.81 0 0,1 23.5,20.7 V 20.72 A 21.93,21.93 0 0,0 14.68,24.79 C 13.8,25.49 12.74,26.66 12.71,27.86 C 12.65,29.68 14.77,30.5 16.21,30.75 A 16.25,16.25 0 0,0 21.21,30.72 A 71.15,71.15 0 0,0 26.32,20.26 L 26.34,20.27 V 20.28 C 26.67,21.16 27.04,22.01 27.46,22.85 A 61.16,61.16 0 0,0 30.18,27.65 L 31.15,27.05 C 31.17,27.03 31.18,27.02 31.17,26.99 A 69.98,69.98 0 0,1 26.14,15.34 L 26.47,14.04 L 26.49,14.02 A 0.03,0.03 0 0,1 26.52,14.02 L 26.54,14.03 C 28.04,18.29 29.75,22.46 31.82,26.5 C 31.83,26.52 31.85,26.53 31.87,26.51 C 33.14,25.6 34.9,23.59 33.78,21.91 V 21.84 A 0.02,0.02 0 0,1 33.8,21.83 C 36.5,23.63 34.22,26.43 32.53,27.71 C 32.51,27.72 32.51,27.74 32.52,27.75 C 33.71,30 35.02,31.98 36.44,33.7 C 38.78,36.5 42.12,39.19 46.01,38.1 A 10.16,10.16 0 0,0 50.43,35.15 A 121.37,121.37 0 0,0 51,34.56 V 34.58 C 49.53,36.74 47.38,38.56 44.73,38.93 A 6.58,6.58 0 0,1 40.57,38.17 C 38.41,36.99 36.58,35.07 35.1,33.11 A 43.94,43.94 0 0,1 31.84,28.21 V 28.22 L 30.92,28.82 C 30.91,28.82 30.9,28.82 30.9,28.84 V 28.86 A 102,102 0 0,0 35.86,35.93 Z M 24.16,26.54 L 23.31,28.12 L 21.82,30.61 C 21.81,30.63 21.82,30.64 21.84,30.64 C 24.18,30.24 26.43,29.52 28.58,28.5 L 29.58,27.99 C 29.59,27.98 29.6,27.96 29.58,27.94 A 0.2,0.2 0 0,0 29.46,27.83 A 0.34,0.34 0 0,0 29.41,27.62 A 64.38,64.38 0 0,1 26.34,21.97 A 0.03,0.03 0 0,0 26.32,21.99 A 91.83,91.83 0 0,1 24.15,26.54 Z" fill="rgb(28, 40, 88)"/>
<path d="M 29.45,27.814999999999998 C 29,27.41 28.61,27.08 28.27,26.85 C 27.33,26.18 26.27,25.99 25.1,26.29 L 24.15,26.54 A 91.87,91.87 0 0,0 26.35,21.97 H 26.36 L 26.38,21.99 C 27.3,23.92 28.31,25.79 29.41,27.62 C 29.45,27.68 29.47,27.75 29.46,27.82 Z" fill="rgb(83, 83, 82)"/>
<path d="M 29.45,27.814999999999998 C 29.52,27.85 29.56,27.89 29.59,27.93 C 29.59,27.96 29.59,27.98 29.57,27.99 L 28.58,28.49 L 28.31,28.26 A 3.82,3.82 0 0,0 23.84,27.84 L 23.31,28.12 L 24.15,26.54 C 24.49,26.44 24.81,26.37 25.1,26.29 A 3.66,3.66 0 0,1 28.27,26.85 C 28.61,27.08 29,27.41 29.47,27.83 Z M 35.86,35.93 A 14.82,14.82 0 0,0 40.03,38.85 C 40.08,38.86 40.09,38.88 40.08,38.91 L 40.06,38.92 H 40.04 C 36.95,38.18 34.58,35.71 32.64,33.32 L 29.6,29.56 L 30.33,29.15 A 0.04,0.04 0 0,1 30.38,29.15 A 35.39,35.39 0 0,0 35.86,35.93 Z" fill="rgb(169, 169, 169)"/>
</svg>
