<!-- by Finnhub --><svg xmlns="http://www.w3.org/2000/svg" width="56" height="56" viewBox="0 0 56 56"><path fill="#F0F3FA" d="M0 0h56v56H0z"/><path d="M34.56 16.89c0 1.04-.84 1.88-1.87 1.88a1.88 1.88 0 0 1-1.88-1.88 1.88 1.88 0 0 1 3.75 0zm-18.28-.27c0 .9-.73 1.63-1.64 1.63-.9 0-1.64-.73-1.64-1.63 0-.9.73-1.62 1.64-1.62.9 0 1.64.73 1.64 1.63zM23.55 41a2.1 2.1 0 0 0 2.1-2.09 2.1 2.1 0 0 0-2.1-2.09 2.1 2.1 0 0 0-2.11 2.1 2.1 2.1 0 0 0 2.1 2.08zM43 38.91A2.1 2.1 0 0 1 40.9 41a2.1 2.1 0 0 1-2.12-2.09 2.1 2.1 0 0 1 2.11-2.09c1.17 0 2.11.94 2.11 2.1zm-2.34-19.27c1.3 0 2.34-1.04 2.34-2.32A2.33 2.33 0 0 0 40.66 15a2.33 2.33 0 0 0-2.35 2.32 2.33 2.33 0 0 0 2.35 2.32zm2.34 7.9a2.33 2.33 0 0 1-2.34 2.32 2.33 2.33 0 0 1-2.35-2.32 2.33 2.33 0 0 1 2.35-2.33c1.3 0 2.34 1.04 2.34 2.33zM15.81 41a2.8 2.8 0 0 0 2.81-2.79 2.8 2.8 0 0 0-2.8-2.78A2.8 2.8 0 0 0 13 38.2 2.8 2.8 0 0 0 15.81 41z" fill="#2B3C72"/><path d="M27.06 18.25c0 1.8-1.47 3.25-3.28 3.25-.83 0-2.26.9-2.75 1.56l-1.12 1.47c-.54.72-.49 1.7-.37 2.6l1.2.12a3.28 3.28 0 0 1 6.32 1.21c0 1.08-.01 2.27.7 3.09l3.05 3.54c.28-.2.85-.36 1.19-.46v-4c0-1.64-1.6-3.03-2.3-4.53a3.27 3.27 0 0 1 2.98-4.6 3.27 3.27 0 0 1 3 4.6C34.97 27.6 34 29 34 30.64v4c1.19.45 1.97 1.64 1.97 3.11 0 1.8-1.47 3.25-3.28 3.25a3.27 3.27 0 0 1-2.89-4.8l-3.55-3.74c-.6-.64-1.58-.75-2.47-.75a3.27 3.27 0 0 1-3.26-2.88l-1.2-.07A3.28 3.28 0 0 1 13 27.54c0-1.8 1.47-3.25 3.28-3.25.77 0 1.6-.18 2.09-.77.45-.56.94-1.14 1.4-1.67.8-.95.73-2.36.73-3.6 0-1.8 1.47-3.25 3.28-3.25a3.27 3.27 0 0 1 3.28 3.25z" fill="#2899D5"/></svg>