<?xml version="1.0" encoding="UTF-8"?>
<!-- generated by Finnhub -->
<svg viewBox="0 0 55.5 55.5" xmlns="http://www.w3.org/2000/svg">
<path d="M 0,0 H 55.5 V 55.5 H 0 Z" fill="rgb(239, 242, 248)"/>
<path d="M 30.36,13.135 C 30.35,13.11 30.27,13.08 30.11,13.06 A 3.94,3.94 0 0,0 28.45,12.72 H 28.02 C 27.21,12.68 26.42,12.77 25.65,12.98 C 25.55,12.98 25.43,13.06 25.32,13.24 C 25.05,13.19 24.96,13.09 25.05,12.94 C 25.08,12.87 25.14,12.81 25.21,12.77 L 27.35,11.45 A 0.13,0.13 0 0,0 27.42,11.35 C 27.46,11.05 27.45,10.75 27.4,10.43 A 0.33,0.33 0 0,1 27.56,10.07 C 27.68,9.99 27.83,9.97 27.98,10.04 C 28.15,10.11 28.22,10.22 28.18,10.39 A 2.9,2.9 0 0,0 28.18,11.39 C 28.2,11.44 28.22,11.49 28.27,11.51 L 30.46,12.76 C 30.54,12.81 30.57,12.88 30.55,12.96 C 30.53,13.03 30.47,13.09 30.37,13.16 Z" fill="rgb(12, 60, 97)"/>
<path d="M 28.439999999999998,12.705 L 28.4,16.86 L 27.95,16.84 L 28.02,12.72 H 28.45 Z M 25.65,12.98 L 25.58,16.98 A 0.55,0.55 0 0,1 25.28,17.04 L 25.32,13.24 C 25.43,13.06 25.54,12.97 25.65,12.98 Z M 30.37,13.15 L 30.33,17 L 30.05,16.95 L 30.11,13.06 C 30.26,13.08 30.35,13.11 30.37,13.16 Z" fill="rgb(151, 201, 58)"/>
<path d="M 28.75,14.915 C 28.76,15.48 29.03,15.93 29.38,15.93 C 29.74,15.94 30.03,15.5 30.04,14.94 C 30.04,14.39 29.77,13.94 29.42,13.94 C 29.06,13.93 28.77,14.37 28.76,14.93 Z M 27.95,16.84 L 28.4,16.86 L 30.05,16.95 L 30.33,17 L 31.41,17.28 C 31.46,17.29 31.48,17.32 31.49,17.37 C 31.57,17.75 31.5,18.06 31.29,18.29 A 0.33,0.33 0 0,0 31.19,18.47 L 31.18,18.62 C 31.17,18.69 31.13,18.71 31.08,18.66 C 30.92,18.54 30.71,18.46 30.44,18.4 A 14.1,14.1 0 0,0 25.87,18.3 C 25.33,18.38 24.92,18.52 24.64,18.74 C 24.58,18.79 24.56,18.78 24.58,18.7 C 24.61,18.53 24.55,18.4 24.38,18.32 A 0.33,0.33 0 0,1 24.24,18.17 A 1.2,1.2 0 0,1 24.15,17.45 C 24.16,17.39 24.2,17.35 24.25,17.34 L 25.28,17.04 C 25.35,17.05 25.45,17.04 25.58,16.99 L 27.95,16.84 Z M 31.48,22.29 C 31.55,22.41 31.58,22.55 31.55,22.71 C 31.54,22.76 31.51,22.78 31.45,22.74 C 31.16,22.56 30.81,22.44 30.39,22.4 A 22.16,22.16 0 0,0 25.89,22.44 C 25.34,22.49 24.85,22.62 24.42,22.82 C 24.37,22.85 24.34,22.84 24.32,22.79 A 0.32,0.32 0 0,1 24.27,22.64 C 24.27,22.59 24.29,22.52 24.35,22.42 S 24.44,22.24 24.45,22.18 L 24.52,20.47 C 24.52,20.4 24.56,20.35 24.63,20.32 C 25.11,20.13 25.61,20 26.12,19.92 C 27.8,19.65 29.49,19.76 31.17,20.24 C 31.25,20.26 31.29,20.31 31.29,20.39 L 31.43,22.15 C 31.43,22.2 31.45,22.25 31.48,22.29 Z M 31.8,26.9 C 29.25,26.34 26.7,26.4 24.17,27.06 C 24.09,27.08 24.04,27.06 24.01,26.99 A 0.39,0.39 0 0,1 24.06,26.57 A 0.3,0.3 0 0,0 24.12,26.41 L 24.28,24.57 C 24.28,24.44 24.36,24.36 24.49,24.33 A 16.9,16.9 0 0,1 31.51,24.25 C 31.57,24.27 31.61,24.3 31.61,24.36 C 31.66,24.91 31.71,25.47 31.73,26.06 C 31.73,26.15 31.77,26.27 31.83,26.42 C 31.89,26.59 31.92,26.72 31.92,26.82 C 31.92,26.9 31.88,26.92 31.8,26.91 Z M 32.24,30.64 C 32.32,30.72 32.34,30.81 32.3,30.92 C 32.27,30.99 32.22,31.02 32.14,30.99 C 31.73,30.89 31.15,30.79 30.41,30.73 A 23.35,23.35 0 0,0 25.42,30.83 A 8,8 0 0,0 23.95,31.16 C 23.9,31.18 23.85,31.16 23.83,31.13 C 23.73,31.01 23.73,30.87 23.83,30.7 C 23.88,30.6 23.91,30.52 23.91,30.47 L 24.05,28.83 C 24.06,28.77 24.1,28.73 24.16,28.73 C 25.7,28.47 27.29,28.36 28.91,28.39 C 29.84,28.41 30.76,28.55 31.69,28.79 C 31.92,28.86 32.04,28.99 32.05,29.21 C 32.06,29.63 32.1,30.05 32.15,30.48 C 32.17,30.54 32.19,30.59 32.24,30.64 Z M 23.46,34.57 L 23.58,33 C 23.58,32.98 23.6,32.97 23.62,32.96 C 25.94,32.43 28.24,32.29 30.52,32.53 C 31.17,32.6 31.75,32.73 32.26,32.89 C 32.56,32.99 32.68,33.19 32.61,33.49 C 32.6,33.55 32.56,33.58 32.5,33.58 C 29.77,33.52 26.77,33.86 23.49,34.6 C 23.47,34.6 23.46,34.6 23.46,34.57 Z M 17,35.23 V 35.13 C 17.54,35.46 18.16,35.63 18.84,35.68 C 19.31,35.7 19.7,35.72 20.04,35.71 C 21.84,35.71 23.69,35.55 25.54,35.26 A 98,98 0 0,0 28.14,34.83 C 29.11,34.65 29.94,34.56 30.64,34.55 C 34.37,34.48 37.28,35.15 39.38,36.54 C 39.58,36.68 39.57,36.72 39.32,36.66 C 37.56,36.26 35.79,36.01 34.01,35.95 C 32.71,35.9 31.53,35.96 30.46,36.13 C 28.44,36.45 26.43,37.05 24.4,37.91 C 22.26,38.83 20.56,39.09 19.31,38.68 C 18.1,38.29 17.38,37.41 17.17,36.02 C 17.13,35.76 17.07,35.5 17,35.23 Z" fill="rgb(12, 60, 97)"/>
<path d="M 39.870000000000005,38.375 L 39.96,38.44 C 40.02,38.5 40.01,38.53 39.92,38.53 A 9.94,9.94 0 0,0 32.93,41.61 L 32.23,42.27 A 10.08,10.08 0 0,1 27.63,44.77 A 9.24,9.24 0 0,1 21.58,44.12 A 8.9,8.9 0 0,1 17.47,39.93 C 17.43,39.86 17.45,39.85 17.52,39.88 C 18.68,40.48 19.89,40.72 21.13,40.61 A 10,10 0 0,0 25.42,39.19 A 17.41,17.41 0 0,1 29.51,37.3 A 14.8,14.8 0 0,1 39.88,38.39 Z" fill="rgb(151, 201, 58)"/>
</svg>
