<?xml version="1.0" encoding="UTF-8"?>
<!-- generated by Finnhub -->
<svg viewBox="0 0 55.5 55.5" xmlns="http://www.w3.org/2000/svg">
<path d="M 0,0 H 55.5 V 55.5 H 0 Z" fill="rgb(239, 242, 248)"/>
<path d="M 13.77,33.985 H 17.03 L 10.52,22 L 4,34 H 7.26 L 10.52,28 L 13.78,34 Z M 18,22 H 21 V 34 H 18 Z M 23,34 L 25.4,22 L 30,29.16 L 34.6,22 L 37,34 H 34.33 L 33.53,29 L 30,34 L 26.47,29 L 25.67,34 H 23 Z M 42,22 H 39 V 34 H 47 V 31 H 42 V 29 H 46 V 27 H 42 V 25 H 47 V 22 H 42 Z M 49,22 H 52 V 34 H 49 Z" fill="rgb(34, 155, 140)"/>
</svg>
