<?xml version="1.0" encoding="UTF-8"?>
<!-- generated by Finnhub -->
<svg viewBox="0 0 55.5 55.5" xmlns="http://www.w3.org/2000/svg">
<path d="M 0,0 H 55.5 V 55.5 H 0 Z" fill="rgb(239, 242, 248)"/>
<path d="M 27.99,10.985 H 28.07 A 9.18,9.18 0 0,1 37,20.28 C 37,23.59 33.9,28.35 33.3,29.28 C 33.24,29.37 33.2,29.42 33.2,29.44 C 33.17,29.49 33.14,29.84 33.09,30.3 C 32.96,31.63 32.73,34 32.18,34 C 29.42,33.97 26.58,33.95 23.82,34 C 23.28,34 23.04,31.63 22.92,30.3 C 22.86,29.83 22.83,29.5 22.8,29.44 C 22.8,29.42 22.76,29.37 22.7,29.28 C 22.1,28.35 19,23.59 19,20.28 C 19,15.21 22.99,11.08 27.93,11 H 28 Z M 27.04,27.51 C 26.94,27.42 26.77,26.86 26.64,26.21 C 28.31,26.14 33.25,25.18 31.56,16.18 A 19.4,19.4 0 0,1 28.25,18.81 C 21.15,23.29 24.18,25.37 25.57,26 C 25.27,23.26 30.67,18.8 30.67,18.8 S 27.08,22.56 26.23,24.83 C 26.05,25.32 26.12,25.63 26.17,25.89 C 26.19,26.01 26.21,26.11 26.2,26.21 C 26.52,27.93 26.85,27.94 26.98,27.94 V 27.49 L 27.04,27.51 Z M 31.87,35 H 24 V 37.29 L 23.55,37.36 L 23.72,38.39 L 24,38.34 V 39.06 L 23.55,39.14 L 23.72,40.16 L 24,40.11 V 40.54 L 23.55,40.62 L 23.72,41.64 L 24,41.59 V 43 H 31.87 V 40.3 L 32.45,40.2 L 32.29,39.19 L 31.87,39.26 V 38.83 L 32.45,38.73 L 32.29,37.71 L 31.87,37.78 V 37.05 L 32.45,36.95 L 32.29,35.93 L 31.87,36 V 35 Z M 25,41.43 V 42 H 31 V 40.45 L 27.36,41.05 V 39.99 L 31,39.39 V 38.97 L 27.36,39.57 V 38.52 L 31,37.92 V 37.19 L 27.36,37.79 V 36.74 L 31,36.14 V 36 H 25 V 37.13 L 26.12,36.94 V 38 L 25,38.19 V 38.91 L 26.12,38.73 V 39.78 L 25,39.96 V 40.39 L 26.12,40.21 V 41.26 L 25,41.44 Z M 29.56,43.51 C 29.56,44.33 28.9,45 28.1,45 C 27.3,45 26.65,44.33 26.65,43.51 H 29.55 Z" fill="rgb(63, 174, 71)" fill-rule="evenodd"/>
</svg>
