<?xml version="1.0" encoding="UTF-8"?>
<!-- generated by Finnhub -->
<svg viewBox="0 0 55.5 55.5" xmlns="http://www.w3.org/2000/svg">
<path d="M 0,0 H 55.5 V 55.5 H 0 Z" fill="rgb(239, 242, 248)"/>
<path d="M 7.86,35.925 H 6 V 35.1 H 6.26 C 6.75,35.1 7.08,34.62 7.19,34.38 L 12.17,21.94 H 12.95 L 15.93,29.1 A 21.1,21.1 0 0,0 19.5,24.5 L 19.65,24.6 C 16.19,31.54 10.36,35.05 7.87,35.94 Z M 14.27,30.61 A 31.15,31.15 0 0,1 8.49,34.29 L 12.02,24.91 L 14.27,30.61 Z M 14.81,32.05 L 16.36,36 H 19.28 V 35.11 H 18.82 C 18.68,35.11 18.37,35.03 18.22,34.65 L 16.46,30.39 L 14.81,32.05 Z" fill="rgb(38, 79, 34)" fill-rule="evenodd"/>
<path d="M 19.86,20.615 C 19.16,22.66 19.34,24.1 19.52,24.56 A 5.05,5.05 0 0,0 21.43,22.82 C 21.89,22.7 22.4,22.51 22.93,22.21 C 24.35,21.41 26.49,19.43 27.38,18.53 C 26.55,18.73 24.48,19.37 22.65,20.25 C 23.28,18.23 23.78,15.45 23.99,14 C 22.91,15.37 20.59,18.6 19.87,20.63 Z M 16.92,22.5 A 20.53,20.53 0 0,1 15.1,18 C 15.71,18.67 17.16,20.26 18.06,21.3 A 4.72,4.72 0 0,1 19.04,24.46 A 5.72,5.72 0 0,1 16.94,22.5 Z" fill="rgb(38, 79, 34)"/>
<path d="M 22.639999999999997,20.235 L 22.49,20.32 C 20.64,21.24 19.93,22.47 19.8,22.96 C 20.09,23.01 20.68,23.01 21.44,22.82 C 21.62,22.56 21.81,22.27 21.98,21.94 A 9.7,9.7 0 0,0 22.65,20.24 Z M 17.5,18.67 C 17.87,20.32 18.6,21.07 18.9,21.24 C 19.07,20.87 19.32,19.84 19.07,18.67 A 24.48,24.48 0 0,0 17.27,14.34 C 17.2,15.1 17.14,17.02 17.5,18.67 Z M 22.37,23.84 C 21.22,23.84 20.7,24.29 20.59,24.51 C 20.73,24.64 21.25,24.91 22.26,24.91 C 23.28,24.91 24.75,24.35 25.36,24.08 C 24.84,24 23.52,23.84 22.36,23.84 Z" fill="rgb(107, 188, 67)"/>
<path d="M 32.54,23.314999999999998 C 32.55,23.79 32.17,24.17 31.7,24.17 A 0.85,0.85 0 0,1 30.85,23.33 C 30.85,22.87 31.23,22.49 31.7,22.49 C 32.17,22.49 32.55,22.87 32.55,23.33 Z M 31,31.83 V 26 H 32.35 V 31.83 C 32.35,32.11 32.55,32.33 32.81,32.33 H 33.33 V 33 H 30.2 V 32.33 H 30.6 C 30.85,32.33 31.01,32.11 31.01,31.83 Z M 25,28.5 C 25,29.88 23.66,31 22,31 C 21.8,31 21.6,30.98 21.4,30.95 C 20.76,31.01 19.94,31.23 19.94,31.75 C 19.94,32.2 20.4,32.39 20.63,32.42 H 23.3 C 24.16,32.42 25.37,32.57 25.37,34.02 C 25.37,35.19 24.69,35.82 24.35,36 L 23.93,35.44 C 24.1,35.33 24.44,34.97 24.44,34.46 C 24.44,33.66 23.68,33.53 23.3,33.56 H 21.09 C 20.39,33.64 19,33.49 19,32.26 C 19,31.2 19.82,30.74 20.39,30.61 A 2.43,2.43 0 0,1 19,28.5 C 19,27.12 20.34,26 22,26 S 25,27.12 25,28.5 Z M 23.6,28.5 C 23.6,29.64 22.89,30.56 22,30.56 C 21.11,30.56 20.4,29.64 20.4,28.5 C 20.4,27.36 21.11,26.44 22,26.44 C 22.89,26.44 23.6,27.36 23.6,28.5 Z M 26,26 V 31.83 C 26,32.11 25.8,32.33 25.56,32.33 H 25.16 V 33 H 28.3 V 32.33 H 27.77 C 27.52,32.33 27.32,32.11 27.32,31.83 V 28.93 C 27.87,26.89 28.72,26.57 29.12,26.69 A 0.66,0.66 0 0,0 28.84,27.22 C 28.84,27.56 28.89,28.06 29.62,28.06 C 30.2,28.06 30.44,27.7 30.49,27.52 C 30.62,27.02 30.54,26 29.22,26 C 28.33,26 27.7,26.72 27.32,27.43 V 26 H 26 Z" fill="rgb(38, 79, 34)" fill-rule="evenodd"/>
<path d="M 33.72,31.345 V 23 H 35 V 26 H 36.38 V 26.58 H 35 V 31.04 C 35,31.87 35.35,32.16 35.94,32.16 C 36.42,32.16 36.66,31.81 36.72,31.63 L 37.2,32.03 C 37.09,32.36 36.57,33 35.35,33 C 34.13,33 33.75,31.9 33.73,31.36 Z M 38.36,29.57 H 43 C 42.99,28.38 42.4,26 40.17,26 C 37.4,26 37,28.52 37,29.94 A 3.25,3.25 0 0,0 40.17,33 A 3.3,3.3 0 0,0 42.13,32.22 L 41.78,31.75 C 41.63,31.93 41.14,32.28 40.42,32.28 C 39.52,32.28 38.35,31.68 38.35,29.58 Z M 38.36,29 H 41.68 C 41.73,28.16 41.5,26.55 40.11,26.55 C 38.71,26.55 38.37,28.16 38.37,29 Z M 45,33 H 42.98 V 32.44 H 43.21 C 43.52,32.44 43.78,32.17 43.78,31.84 V 23 H 45 V 29.54 L 47.4,27.13 A 3.43,3.43 0 0,1 49.72,26.11 V 26.65 C 48.78,26.65 47.96,27.27 47.66,27.57 L 46.7,28.54 L 49.52,32.54 H 50 V 33 H 48.3 L 45.88,29.37 L 45,30.26 V 33 Z" fill="rgb(107, 188, 67)" fill-rule="evenodd"/>
</svg>
