<?xml version="1.0" encoding="UTF-8"?>
<!-- generated by Finnhub -->
<svg viewBox="0 0 55.5 55.5" xmlns="http://www.w3.org/2000/svg">
<path d="M 0,0 H 55.5 V 55.5 H 0 Z" fill="rgb(239, 242, 248)"/>
<path d="M 13.21,25.985 C 11.99,26 11,24.88 11,23.5 S 12,21 13.22,21 H 26 V 26 H 13.22 Z" fill="rgb(1, 96, 62)"/>
<path d="M 17.209999999999997,34.985 C 15.99,35 15,33.88 15,32.5 S 16,30 17.22,30 H 26 V 35 H 17.22 Z" fill="rgb(85, 185, 70)"/>
<path d="M 25.99,42.755 C 26,44 24.88,45 23.5,45 S 21,44 21,42.77 V 30 H 26 V 42.77 Z M 42.77,30 C 44,30 45,31.12 45,32.5 C 45,33.88 44,35 42.77,35 H 30 V 30 H 42.77 Z M 30,13.28 C 30,12.02 31.12,11 32.5,11 C 33.88,11 35,12.02 35,13.28 V 26.34 H 30 V 13.28 Z" fill="rgb(1, 96, 62)"/>
<path d="M 34.99,38.745 C 35,40 33.88,41 32.5,41 S 30,40 30,38.76 V 30 H 35 V 38.76 Z M 38.76,22 C 40,22 41,23.12 41,24.5 S 40,27 38.76,27 H 30 V 22 H 38.76 Z" fill="rgb(85, 185, 70)"/>
<path d="M 20.99,17.205 C 21,16 22.12,15 23.5,15 S 26,16 26,17.22 V 26 H 21 V 17.22 Z" fill="rgb(86, 184, 72)"/>
</svg>
