<?xml version="1.0" encoding="UTF-8"?>
<!-- generated by Finnhub -->
<svg viewBox="0 0 55.5 55.5" xmlns="http://www.w3.org/2000/svg">
<path d="M 0,0 H 55.5 V 55.5 H 0 Z" fill="rgb(239, 242, 248)"/>
<path d="M 24.889999999999997,11.485 C 25.37,13.13 25.56,14.52 25.57,16.24 C 25.57,18.84 25.15,20.52 24.02,22.36 L 23.49,23.23 L 23.39,22.61 C 23.14,20.79 22.7,19.66 21.87,18.63 C 21.63,18.33 21.39,18.07 21.35,18.05 C 21.3,18.03 21.24,18.94 21.21,20.07 A 11.84,11.84 0 0,1 20.76,23.65 C 20.51,24.63 20.14,25.68 19.74,26.55 C 19.4,27.31 18.91,28.45 18.64,29.1 L 18.17,30.27 L 17.95,29.77 A 46.26,46.26 0 0,1 15.85,21.78 L 15.63,20.45 L 15.99,20.07 A 19.06,19.06 0 0,1 23.74,15.46 C 24.24,15.31 24.69,15.12 24.72,15.04 A 11.1,11.1 0 0,0 24.38,12.7 C 24.29,12.6 22.53,13.12 21.31,13.6 C 19.63,14.26 18.71,14.75 17.25,15.75 A 20.67,20.67 0 0,0 13.91,18.52 C 13.18,19.24 13,19.47 13,19.74 C 13,19.92 13.12,20.81 13.27,21.71 C 14.33,28.06 16.07,32.81 19.01,37.32 C 20.25,39.22 21.43,40.8 21.53,40.7 C 21.55,40.67 21.42,40.17 21.23,39.57 A 19.05,19.05 0 0,1 20.4,35.07 A 13.1,13.1 0 0,1 21.92,28.44 L 22.28,27.82 L 22.41,29 A 7.8,7.8 0 0,0 24.18,33.47 L 24.61,33.96 L 24.67,32.23 C 24.77,29.99 24.97,29.06 26.11,25.6 C 26.73,23.72 27.16,22.2 27.39,21.05 C 27.58,20.1 27.78,19.27 27.83,19.22 C 28.05,18.97 30.18,21.01 30.87,22.12 C 32.81,25.25 32.43,29.99 29.78,35.84 C 29.43,36.62 29.14,37.3 29.14,37.36 C 29.14,37.52 30.21,37.28 31.02,36.94 C 32.02,36.52 33.12,35.74 34.15,34.78 L 35,33.97 L 34.92,34.61 C 34.72,36.28 33.49,39.47 32.27,41.41 A 24.7,24.7 0 0,1 28.01,46.34 C 27.61,46.7 27.32,47 27.38,47 A 18.68,18.68 0 0,0 35.58,40.23 A 38.38,38.38 0 0,0 40.54,30.23 A 54.26,54.26 0 0,0 42.93,20.13 L 43,19.42 L 41.88,18.33 C 38.08,14.64 33.61,12.57 29.03,12.36 L 27.66,12.3 L 28.32,12.9 C 28.68,13.22 29.32,13.84 29.76,14.26 C 30.52,15 30.57,15.03 31.57,15.29 C 33.67,15.83 35.37,16.58 37.05,17.69 C 38.1,18.4 39.48,19.52 40.05,20.13 C 40.4,20.51 40.41,20.32 39.84,23.26 C 39.43,25.36 38.37,29.12 38.04,29.64 C 37.98,29.74 37.89,29.52 37.76,28.97 C 37.39,27.43 36.69,25.52 36.49,25.52 C 36.45,25.52 36.38,25.66 36.34,25.83 C 36.08,26.88 34.75,29.55 34.48,29.55 C 34.43,29.55 34.41,29.32 34.45,29 A 28.9,28.9 0 0,0 34.35,23.79 C 33.82,20.66 32.58,18.3 30.05,15.67 A 72.5,72.5 0 0,0 24.86,11 C 24.8,10.98 24.82,11.2 24.91,11.5 Z M 27.41,25.26 A 21.16,21.16 0 0,0 25.62,32.14 C 25.48,33.54 25.59,35.64 25.88,37.02 C 25.98,37.52 25.99,37.72 25.9,37.72 C 25.84,37.72 25.41,37.47 24.96,37.17 A 15.12,15.12 0 0,1 22.15,34.42 C 21.95,34.17 21.77,34 21.73,34.04 A 9.92,9.92 0 0,0 23.52,41.68 C 24.14,42.58 25.92,44.65 26.08,44.65 C 26.13,44.65 26.1,44.46 26,44.23 A 15.14,15.14 0 0,1 24.78,40.26 C 24.74,39.78 24.76,39.39 24.81,39.39 C 24.87,39.39 25.13,39.57 25.41,39.79 C 25.67,40.01 26.24,40.36 26.66,40.57 C 27.46,40.97 28.86,41.4 28.98,41.27 C 29.01,41.24 28.9,40.91 28.72,40.55 A 19.26,19.26 0 0,1 27.11,31.68 C 27.21,30.01 27.52,27.43 27.88,25.48 C 28.03,24.62 28.14,23.88 28.12,23.81 C 28.1,23.75 27.78,24.41 27.42,25.26 Z" fill="rgb(228, 86, 37)"/>
</svg>
