<?xml version="1.0" encoding="UTF-8"?>
<!-- generated by Finnhub -->
<svg viewBox="0 0 55.5 55.5" xmlns="http://www.w3.org/2000/svg">
<path d="M 0,0 H 55.5 V 55.5 H 0 Z" fill="rgb(239, 242, 248)"/>
<path d="M 46.084,34.839999999999996 C 46.186,34.765 46.294,34.692 46.378,34.593 A 1.393,1.393 0 0,0 46.608,33.199 A 1.146,1.146 0 0,0 46.332,32.787 C 46.199,32.66 45.991,32.627 45.814,32.589 C 45.394,32.499 44.961,32.479 44.536,32.413 C 44.111,32.346 43.636,32.235 43.413,31.83 C 43.78,31.812 44.081,31.495 44.345,31.273 L 44.836,30.858 C 45.075,30.658 45.367,30.456 45.487,30.159 C 45.531,30.049 45.484,29.942 45.452,29.835 A 3.418,3.418 0 0,0 45.341,29.51 A 2.058,2.058 0 0,0 45.031,28.972 C 44.689,28.553 44.171,28.329 43.669,28.162 A 1.1,1.1 0 0,0 43.834,27.577 A 1.24,1.24 0 0,0 43.696,26.991 C 43.463,26.528 43.006,26.205 42.556,25.973 C 42.16,26.298 41.646,26.629 41.112,26.479 C 40.629,26.343 40.275,25.903 39.971,25.531 C 39.735,25.243 39.509,24.946 39.27,24.659 C 39.637,24.289 40.006,23.923 40.372,23.554 C 39.957,23.039 39.482,22.512 38.858,22.26 C 38.268,22.022 37.64,22.122 37.076,22.385 A 0.81,0.81 0 0,1 37.048,22.231 A 0.347,0.347 0 0,1 37.098,22.098 C 37.144,22.006 37.188,21.913 37.233,21.818 L 37.529,21.211 A 13.484,13.484 0 0,0 36.535,20.565 A 3.538,3.538 0 0,0 35.743,20.192 A 0.658,0.658 0 0,0 35.323,20.181 C 35.203,20.246 35.093,20.329 35,20.428 L 34.636,20.734 A 0.728,0.728 0 0,1 34.482,20.864 A 0.473,0.473 0 0,1 34.324,20.864 A 3.192,3.192 0 0,1 33.324,20.576 A 16.422,16.422 0 0,1 31.277,19.486 A 9.45,9.45 0 0,1 31.614,18.96 C 31.706,18.838 31.79,18.71 31.866,18.577 A 0.424,0.424 0 0,0 31.933,18.274 A 0.515,0.515 0 0,0 31.695,18.011 A 3.103,3.103 0 0,0 31.142,17.744 C 30.933,17.661 30.734,17.554 30.53,17.46 C 30.356,17.38 30.128,17.25 29.93,17.312 A 0.876,0.876 0 0,0 29.66,17.49 A 7.819,7.819 0 0,1 29.027,17.958 C 28.763,17.17 27.971,16.517 27.197,16.27 C 26.827,16.153 26.407,16.122 26.05,16.301 A 2.86,2.86 0 0,0 25.533,16.698 L 25.12,17.049 A 2.815,2.815 0 0,0 24.6,17.543 C 24.581,17.568 24.557,17.635 24.53,17.651 C 24.503,17.667 24.428,17.655 24.384,17.651 C 24.264,17.643 24.144,17.632 24.024,17.614 A 1.68,1.68 0 0,1 23.4,17.406 A 1.364,1.364 0 0,1 22.908,16.85 C 22.731,16.499 22.668,16.115 22.603,15.732 C 22.553,15.439 22.094,15.313 21.848,15.247 C 21.265,15.092 20.498,15.041 20.001,15.448 C 19.931,15.505 19.864,15.564 19.795,15.624 L 19.694,15.712 C 19.632,15.763 19.641,15.772 19.571,15.719 A 2.336,2.336 0 0,0 18.416,15.243 A 2.218,2.218 0 0,0 17.256,15.409 A 2.846,2.846 0 0,0 16.607,15.869 C 16.317,16.115 15.997,16.347 15.729,16.617 A 1.449,1.449 0 0,0 15.323,17.449 C 15.313,17.502 15.305,17.539 15.334,17.582 C 15.375,17.628 15.421,17.669 15.472,17.704 C 15.818,17.989 16.227,18.189 16.62,18.4 A 10.572,10.572 0 0,1 17.05,18.642 C 17.087,18.672 17.128,18.697 17.172,18.716 A 1.185,1.185 0 0,1 16.838,18.829 A 0.667,0.667 0 0,1 16.498,18.719 A 2.732,2.732 0 0,1 15.974,18.337 C 15.629,18.028 15.329,17.677 15.001,17.352 C 14.717,17.068 14.393,16.762 13.999,16.644 C 13.606,16.526 13.26,16.693 12.956,16.947 C 12.651,17.202 12.371,17.441 12.078,17.687 C 11.558,18.102 11.068,18.554 10.611,19.039 A 8.148,8.148 0 0,0 9.121,21.522 L 13.612,22.411 C 13.526,22.753 13.442,23.097 13.352,23.441 C 12.444,23.106 11.575,22.684 10.662,22.368 A 4.454,4.454 0 0,0 10.503,22.314 C 10.451,22.297 10.44,22.293 10.399,22.327 L 10.279,22.423 L 10.072,22.599 C 9.928,22.719 9.785,22.842 9.642,22.963 C 9.49,23.075 9.351,23.203 9.224,23.341 A 1.989,1.989 0 0,0 8.898,23.963 A 2.583,2.583 0 0,0 8.831,25.501 C 8.903,25.764 9.054,25.999 9.265,26.172 A 1.168,1.168 0 0,0 9.884,26.415 C 9.974,26.433 9.994,26.505 10.045,26.579 C 9.533,26.922 9.495,27.591 9.672,28.129 C 9.777,28.437 9.936,28.725 10.142,28.979 A 2.287,2.287 0 0,0 10.642,29.457 C 10.718,29.506 10.804,29.537 10.894,29.55 C 11.623,29.694 12.307,29.372 12.979,29.142 C 13.16,29.079 13.344,29.022 13.531,28.977 A 1.6,1.6 0 0,0 13.783,28.89 A 0.73,0.73 0 0,1 13.996,28.835 C 14.327,28.802 14.619,29.018 14.846,29.235 C 15.159,29.553 15.444,29.896 15.699,30.262 L 16.117,30.828 C 16.264,31.028 16.428,31.215 16.565,31.425 C 16.233,31.397 15.879,31.375 15.563,31.497 A 1.954,1.954 0 0,0 15.032,31.867 C 14.79,32.071 14.548,32.275 14.306,32.481 A 1.91,1.91 0 0,0 13.734,33.341 C 16.227,35.586 15.068,35.701 18.866,34.688 C 18.906,34.764 18.994,34.869 18.962,34.954 A 0.913,0.913 0 0,1 18.884,35.11 C 18.806,35.23 18.718,35.342 18.622,35.447 C 18.419,35.676 18.197,35.888 18.016,36.135 C 17.919,36.268 17.72,36.576 17.869,36.742 A 0.646,0.646 0 0,0 18.007,36.822 L 18.175,36.922 L 18.473,37.104 L 19.04,37.462 C 19.367,37.679 19.708,37.873 20.061,38.044 C 20.313,38.157 20.603,38.259 20.883,38.216 C 21.107,38.18 21.253,38.032 21.418,37.889 L 21.82,37.549 C 21.966,37.428 22.115,37.309 22.256,37.182 C 22.55,36.916 22.66,36.498 22.735,36.128 C 22.918,36.231 23.125,36.307 23.315,36.394 L 23.921,36.672 L 25.088,37.209 L 27.434,38.285 L 25.676,40.685 C 26.466,40.9 27.191,41.301 27.985,41.501 C 28.325,41.602 28.685,41.621 29.035,41.558 C 29.325,41.49 29.538,41.32 29.76,41.133 C 29.929,40.991 30.093,40.843 30.265,40.707 C 30.421,41.13 30.501,41.655 30.82,41.994 C 31.228,42.428 31.905,42.378 32.446,42.418 C 33.074,42.462 33.773,42.464 34.28,42.037 C 34.54,41.816 34.802,41.594 35.067,41.372 C 35.172,41.292 35.27,41.202 35.36,41.105 A 0.879,0.879 0 0,0 35.524,40.824 A 0.49,0.49 0 0,0 35.569,40.65 A 0.556,0.556 0 0,0 35.488,40.486 C 35.258,40.049 34.941,39.668 34.644,39.279 C 34.949,39.279 35.258,39.241 35.562,39.222 L 36.519,39.162 L 37.758,42.252 A 6.998,6.998 0 0,0 39.398,41.98 C 39.661,41.897 39.915,41.785 40.155,41.646 A 3.41,3.41 0 0,0 40.495,41.416 C 40.555,41.371 40.61,41.309 40.673,41.27 C 40.754,41.219 40.902,41.244 41.006,41.228 C 41.136,41.209 41.266,41.177 41.39,41.131 C 41.615,41.046 41.826,40.929 42.017,40.783 C 42.243,40.611 42.452,40.428 42.664,40.247 C 42.913,40.035 43.162,39.822 43.414,39.617 L 43.438,39.599 A 0.097,0.097 0 0,0 43.451,39.591 L 43.463,39.583 S 43.486,39.563 43.484,39.563 L 43.497,39.555 A 0.104,0.104 0 0,0 43.509,39.546 A 0.032,0.032 0 0,1 43.521,39.536 C 43.531,39.539 43.535,39.531 43.531,39.526 A 0.114,0.114 0 0,0 43.544,39.518 L 43.557,39.51 L 43.58,39.493 C 43.591,39.495 43.595,39.487 43.591,39.483 A 0.097,0.097 0 0,0 43.604,39.475 A 0.03,0.03 0 0,1 43.615,39.465 A 0.03,0.03 0 0,0 43.627,39.455 A 0.097,0.097 0 0,1 43.639,39.447 S 43.641,39.44 43.65,39.437 L 43.674,39.421 L 43.686,39.413 A 0.114,0.114 0 0,1 43.699,39.404 L 43.72,39.384 A 0.105,0.105 0 0,1 43.733,39.376 L 43.745,39.368 A 0.03,0.03 0 0,1 43.757,39.358 C 43.767,39.36 43.771,39.352 43.767,39.348 L 43.78,39.34 A 0.087,0.087 0 0,1 43.792,39.332 L 43.816,39.315 C 43.826,39.317 43.83,39.309 43.826,39.305 L 43.839,39.297 A 0.032,0.032 0 0,1 43.851,39.287 A 0.03,0.03 0 0,0 43.862,39.277 L 43.875,39.269 S 43.876,39.262 43.885,39.259 L 43.909,39.242 A 0.105,0.105 0 0,0 43.922,39.234 L 43.934,39.226 S 43.936,39.218 43.945,39.216 L 43.969,39.198 A 0.092,0.092 0 0,0 43.981,39.19 A 0.03,0.03 0 0,1 43.993,39.18 L 44.016,39.162 L 44.029,39.153 A 0.087,0.087 0 0,0 44.041,39.145 L 44.054,39.135 C 44.064,39.138 44.068,39.13 44.064,39.125 A 0.105,0.105 0 0,0 44.077,39.117 S 44.079,39.109 44.089,39.107 L 44.113,39.09 L 44.125,39.081 A 0.104,0.104 0 0,0 44.138,39.073 L 44.15,39.063 C 44.162,39.066 44.167,39.058 44.162,39.054 L 44.175,39.046 S 44.176,39.038 44.186,39.036 L 44.21,39.018 L 44.223,39.01 L 44.235,39.002 L 44.248,38.992 C 44.259,38.994 44.264,38.987 44.26,38.982 A 0.087,0.087 0 0,1 44.272,38.974 L 44.284,38.966 L 44.309,38.948 L 44.321,38.94 S 44.323,38.931 44.333,38.93 C 44.334,38.923 44.351,38.915 44.355,38.91 A 0.105,0.105 0 0,1 44.367,38.902 L 44.38,38.894 L 44.393,38.884 C 44.403,38.886 44.407,38.879 44.403,38.874 L 44.416,38.866 A 0.093,0.093 0 0,1 44.428,38.858 L 44.452,38.84 C 44.462,38.842 44.466,38.834 44.462,38.83 L 44.475,38.822 L 44.488,38.812 A 0.03,0.03 0 0,0 44.5,38.802 L 44.512,38.794 C 44.479,38.788 44.418,38.721 44.388,38.697 L 44.262,38.596 A 2.967,2.967 0 0,0 44.041,38.43 A 9.63,9.63 0 0,0 43.421,38.045 C 42.966,37.785 42.501,37.545 42.061,37.263 A 4.298,4.298 0 0,1 41.389,36.759 A 0.658,0.658 0 0,1 41.276,36.648 C 41.246,36.604 41.256,36.572 41.276,36.522 A 0.71,0.71 0 0,1 41.355,36.383 C 41.37,36.36 41.451,36.236 41.475,36.237 C 41.5,36.237 41.584,36.324 41.605,36.342 L 41.728,36.45 C 41.809,36.525 41.888,36.601 41.965,36.678 C 42.125,36.84 42.281,37.008 42.438,37.172 C 42.721,37.492 43.046,37.773 43.405,38.005 A 2.498,2.498 0 0,0 43.822,38.202 A 0.227,0.227 0 0,0 44.013,38.203 C 44.243,38.124 44.459,38.008 44.651,37.859 C 44.985,37.6 45.299,37.315 45.621,37.044 C 45.941,36.773 46.244,36.476 46.383,36.064 A 1.158,1.158 0 0,0 46.094,34.855 Z M 38.981,31.095 A 2.17,2.17 0 0,1 38.657,31.369 C 38.543,31.464 38.431,31.561 38.317,31.657 L 37.981,31.939 A 4.455,4.455 0 0,0 37.608,32.306 C 37.467,32.437 37.337,32.579 37.218,32.73 A 0.7,0.7 0 0,0 37.08,33.178 A 0.76,0.76 0 0,0 37.254,33.538 A 1.45,1.45 0 0,0 36.818,33.494 A 0.597,0.597 0 0,0 36.645,33.557 C 36.449,33.647 36.254,33.741 36.065,33.847 C 35.845,33.979 35.636,34.131 35.444,34.301 L 34.717,34.915 C 34.47,35.125 34.172,35.415 34.217,35.775 L 32.591,35.603 C 32.737,34.867 32.318,34.059 31.745,33.617 A 1.763,1.763 0 0,0 30.504,33.231 C 30.282,33.256 30.085,33.378 29.894,33.496 C 29.734,33.593 29.584,33.702 29.442,33.823 C 29.312,33.937 29.174,34.048 29.04,34.161 L 28.834,34.337 C 28.775,34.387 28.744,34.427 28.665,34.423 A 1.669,1.669 0 0,1 28.109,34.267 C 27.746,34.123 27.392,33.956 27.038,33.793 C 26.224,33.415 25.411,33.038 24.595,32.667 A 0.628,0.628 0 0,0 24.699,32.512 L 24.805,32.349 C 24.877,32.237 24.947,32.125 25.013,32.009 C 25.124,31.828 25.211,31.632 25.272,31.427 A 0.776,0.776 0 0,0 25.256,30.927 C 25.17,30.732 24.992,30.619 24.819,30.505 C 24.409,30.233 23.964,29.957 23.481,29.839 A 0.985,0.985 0 0,0 22.721,29.915 C 22.489,30.053 22.311,30.342 22.029,30.375 C 21.748,30.409 21.477,30.207 21.267,30.047 C 20.735,29.641 20.286,29.123 19.856,28.616 C 19.546,28.25 19.245,27.874 18.952,27.498 C 19.156,27.321 19.404,27.201 19.67,27.153 C 19.911,27.093 20.178,27.069 20.39,26.933 C 20.58,26.81 20.701,26.568 20.778,26.36 A 0.894,0.894 0 0,0 20.832,25.852 C 20.759,25.523 20.459,25.316 20.174,25.18 A 5.66,5.66 0 0,0 18.95,24.8 C 18.482,24.694 18.006,24.613 17.544,24.48 C 17.536,24.321 17.51,24.161 17.492,24.003 C 17.712,24.103 17.948,24.166 18.188,24.187 C 18.433,24.211 18.678,24.172 18.903,24.072 C 19.158,23.946 19.393,23.783 19.599,23.588 L 20.035,23.221 C 20.245,23.07 20.435,22.892 20.6,22.693 A 1.185,1.185 0 0,0 20.598,21.353 C 20.998,21.663 21.388,22.024 21.843,22.248 A 1.05,1.05 0 0,0 22.949,22.193 C 23.209,22.005 23.459,21.802 23.696,21.583 C 23.796,21.495 23.896,21.413 23.997,21.329 L 24.148,21.202 C 24.193,21.165 24.238,21.128 24.278,21.088 C 24.341,21.033 24.358,20.996 24.442,20.996 C 25.132,21.013 25.772,21.346 26.458,21.38 C 26.45,22.361 27.35,23.251 28.338,23.197 C 28.751,23.17 28.968,22.861 29.276,22.642 C 29.52,22.466 29.764,22.63 29.986,22.753 C 30.258,22.909 30.538,23.046 30.818,23.183 C 31.443,23.487 32.101,23.784 32.615,24.263 A 0.856,0.856 0 0,0 32.277,24.916 A 0.955,0.955 0 0,0 32.563,25.532 A 1.863,1.863 0 0,0 34.034,26.086 C 34.324,26.053 34.596,25.925 34.806,25.721 L 37.048,27.776 C 36.851,28.061 36.584,28.263 36.354,28.514 C 36.172,28.712 36.109,28.926 36.242,29.174 C 36.359,29.369 36.507,29.544 36.68,29.694 C 36.856,29.859 37.064,29.989 37.29,30.074 C 37.6,30.188 37.92,30.18 38.24,30.247 C 38.664,30.337 38.872,30.697 38.999,31.085 L 38.981,31.095 Z" fill="rgb(142, 34, 38)"/>
<path d="M 46.056000000000004,34.824 A 0.052,0.052 0 0,0 46.058,34.831 A 1.225,1.225 0 0,0 46.221,34.707 C 46.818,34.176 46.822,33.184 46.235,32.712 L 46.223,32.702 C 45.419,32.387 44.341,32.525 43.725,32.157 A 0.912,0.912 0 0,1 43.388,31.821 A 1.362,1.362 0 0,1 43.245,31.064 C 43.256,30.887 43.281,30.711 43.32,30.538 C 43.605,30.678 43.869,30.863 44.162,30.935 C 44.432,31.013 44.755,30.87 45.013,30.67 L 45.039,30.648 L 45.059,30.634 A 0.195,0.195 0 0,0 45.08,30.614 L 45.12,30.58 L 45.19,30.512 C 45.352,30.348 45.463,30.175 45.475,30.058 C 45.312,29.398 45.097,28.961 44.623,28.625 A 3.958,3.958 0 0,0 43.671,28.163 L 43.643,28.157 C 43.995,27.501 43.773,26.835 43.063,26.297 L 43.005,26.256 L 42.958,26.222 A 3.856,3.856 0 0,0 42.53,25.967 L 42.518,25.977 A 4.147,4.147 0 0,1 42.328,26.126 L 42.242,26.185 C 41.637,26.597 41.188,26.588 40.772,26.332 L 40.758,26.324 C 40.439,26.123 40.143,25.777 39.814,25.367 C 39.636,25.143 39.449,24.902 39.244,24.654 L 39.314,24.582 C 39.338,24.558 39.362,24.535 39.385,24.51 C 39.489,24.409 39.587,24.31 39.683,24.212 L 40.183,23.708 L 40.344,23.546 C 39.995,23.12 39.638,22.739 39.25,22.477 L 39.184,22.435 C 38.606,22.072 37.932,21.971 37.067,22.368 L 37.048,22.378 A 12.968,12.968 0 0,1 37.015,22.205 L 37.503,21.195 L 37.322,21.07 C 37.292,21.049 37.264,21.03 37.235,21.012 L 37.093,20.915 A 15.219,15.219 0 0,0 36.787,20.718 C 35.767,20.076 35.403,20.056 35.197,20.22 A 0.614,0.614 0 0,0 35.077,20.357 C 34.946,20.547 34.852,20.793 34.501,20.841 L 34.454,20.846 C 34.154,20.869 33.68,20.753 32.88,20.366 A 20.29,20.29 0 0,1 31.282,19.483 L 31.256,19.467 C 31.716,18.649 32.211,18.372 31.708,18.019 L 31.668,17.996 A 3.947,3.947 0 0,0 31.043,17.702 C 30.161,17.282 30.031,17.194 29.773,17.373 L 29.748,17.39 C 29.65,17.46 29.532,17.564 29.349,17.704 L 29.273,17.762 C 29.198,17.815 29.116,17.873 29.023,17.929 L 29.007,17.94 C 28.83,17.436 28.403,16.945 27.897,16.606 C 27.848,16.575 27.801,16.544 27.751,16.514 L 27.69,16.48 C 27.083,16.137 26.402,16.023 25.914,16.352 A 1.198,1.198 0 0,0 25.804,16.439 L 25.794,16.448 A 1.305,1.305 0 0,0 25.64,16.614 C 25.486,16.824 25.38,17.067 25.33,17.322 L 25.873,17.787 A 7.624,7.624 0 0,0 24.539,17.643 L 24.502,17.641 L 24.462,17.633 C 24.059,17.609 23.702,17.567 23.408,17.397 C 23.004,17.16 22.717,16.681 22.588,15.672 A 0.408,0.408 0 0,0 22.398,15.458 L 22.355,15.432 C 21.821,15.125 20.552,14.932 19.982,15.432 A 0.834,0.834 0 0,0 19.726,15.85 A 2.366,2.366 0 0,0 19.336,15.55 L 19.272,15.514 C 18.492,15.076 17.509,15.126 16.896,15.593 C 16.866,15.613 16.837,15.638 16.81,15.661 L 16.794,15.676 A 1.447,1.447 0 0,0 16.312,16.672 C 16.855,17.212 17.742,17.496 18.462,18.023 C 17.982,18.169 17.682,18.401 17.37,18.581 C 17.297,18.623 17.223,18.661 17.146,18.697 L 17.131,18.704 C 17.017,18.755 16.898,18.794 16.775,18.816 A 1.438,1.438 0 0,1 16.362,18.636 L 16.335,18.618 C 15.686,18.201 15.072,17.311 14.428,16.858 L 14.398,16.838 C 13.957,16.534 13.501,16.45 13.002,16.868 L 12.952,16.912 C 12.93,16.932 12.909,16.951 12.887,16.974 C 12.581,17.218 12.304,17.462 12.039,17.712 A 7.81,7.81 0 0,0 10.124,20.64 L 14.616,21.528 L 14.275,22.875 L 14.075,23.669 A 8.746,8.746 0 0,1 13.355,23.432 L 13.32,23.425 C 12.344,23.065 11.286,22.557 10.416,22.28 L 10.405,22.29 L 10.364,22.322 A 1.12,1.12 0 0,0 10.204,22.494 C 9.572,23.313 9.42,25.392 10.934,25.541 C 10.964,25.556 10.979,25.602 11.051,25.703 C 10.034,26.423 10.823,28.063 11.717,28.626 C 12.761,28.936 13.58,28.291 14.67,28.068 C 15.346,27.677 15.912,28.321 16.676,29.349 C 17.115,29.939 17.619,30.655 18.246,31.374 C 17.646,31.534 17.069,31.456 16.554,31.413 L 16.522,31.406 C 16.024,31.366 15.582,31.366 15.232,31.662 L 15.198,31.689 A 1.23,1.23 0 0,0 15.058,31.847 A 2.146,2.146 0 0,0 14.744,32.459 C 17.227,34.709 16.07,34.825 19.869,33.811 L 19.982,34.027 C 19.822,34.592 18.586,35.357 18.872,35.864 C 20.314,36.69 21.491,37.724 22.185,37.214 A 0.071,0.071 0 0,1 22.198,37.202 L 22.218,37.187 C 22.431,37.013 22.596,36.678 22.706,36.137 A 8.72,8.72 0 0,0 22.848,34.847 L 25.923,36.26 L 28.431,37.413 C 27.866,38.181 27.318,38.924 26.675,39.803 C 28.249,40.229 30.334,41.773 31.138,39.513 C 31.681,40.748 31.418,41.505 33.245,41.517 C 33.806,41.569 34.7,41.616 35.194,41.224 A 0.913,0.913 0 0,0 35.534,40.635 C 35.307,40.143 34.949,39.711 34.614,39.274 A 6.532,6.532 0 0,1 34.079,38.494 L 35.498,38.407 C 36.163,38.365 36.813,38.323 37.51,38.282 L 38.762,41.369 C 39.824,41.295 40.86,41.122 41.703,40.363 C 42.303,40.373 42.75,40.127 43.157,39.8 L 43.266,39.713 A 1.07,1.07 0 0,0 43.362,39.624 C 43.702,39.326 44.028,38.992 44.41,38.743 L 44.423,38.733 C 44.214,38.573 44.096,38.466 43.976,38.385 L 43.949,38.368 A 5.69,5.69 0 0,0 43.793,38.263 C 43.306,37.945 42.693,37.647 42.15,37.316 L 42.061,37.261 C 41.981,37.211 41.904,37.161 41.829,37.107 L 41.744,37.047 A 3.424,3.424 0 0,1 41.224,36.607 A 0.717,0.717 0 0,1 41.437,36.23 C 41.517,36.142 41.601,36.059 41.69,35.98 C 41.954,35.739 42.266,35.497 42.436,35.322 C 43.324,35.998 43.855,37.025 44.916,37.349 C 45.191,37.269 45.448,37.137 45.672,36.958 L 45.684,36.948 L 45.716,36.92 C 45.737,36.902 45.758,36.885 45.778,36.866 L 45.835,36.815 C 45.872,36.781 45.908,36.745 45.941,36.708 C 46.438,36.185 46.661,35.444 46.066,34.838 Z M 38.981,31.095 A 0.05,0.05 0 0,1 38.971,31.105 L 38.959,31.115 A 0.082,0.082 0 0,0 38.948,31.125 L 38.937,31.133 L 38.925,31.143 L 38.915,31.153 L 38.903,31.162 L 38.893,31.171 L 38.881,31.181 L 38.869,31.19 L 38.859,31.2 L 38.847,31.208 L 38.837,31.218 L 38.825,31.228 L 38.813,31.238 L 38.803,31.246 L 38.791,31.256 A 0.082,0.082 0 0,0 38.781,31.266 L 38.769,31.276 L 38.757,31.284 A 0.098,0.098 0 0,1 38.747,31.294 L 38.735,31.304 L 38.724,31.313 L 38.714,31.322 L 38.702,31.332 L 38.691,31.341 L 38.684,31.346 L 38.673,31.356 L 38.663,31.364 L 38.651,31.374 A 0.076,0.076 0 0,0 38.641,31.384 L 38.629,31.392 L 38.617,31.402 A 0.083,0.083 0 0,1 38.607,31.412 L 38.595,31.422 L 38.585,31.43 L 38.573,31.44 L 38.561,31.45 A 0.076,0.076 0 0,1 38.551,31.46 L 38.539,31.468 L 38.529,31.478 L 38.517,31.488 L 38.505,31.497 L 38.495,31.507 L 38.483,31.515 A 0.07,0.07 0 0,0 38.473,31.525 L 38.461,31.535 L 38.449,31.545 L 38.439,31.553 L 38.427,31.563 A 0.07,0.07 0 0,0 38.417,31.573 L 38.405,31.582 L 38.394,31.59 A 0.083,0.083 0 0,1 38.384,31.6 L 38.371,31.61 L 38.361,31.619 L 38.349,31.629 L 38.338,31.638 A 0.082,0.082 0 0,1 38.328,31.648 L 38.315,31.658 L 38.305,31.666 L 38.294,31.676 L 38.282,31.686 L 38.272,31.696 L 38.26,31.704 A 0.082,0.082 0 0,0 38.25,31.714 L 38.238,31.724 L 38.226,31.733 L 38.216,31.741 L 38.204,31.751 A 0.082,0.082 0 0,0 38.194,31.761 L 38.182,31.771 L 38.17,31.779 A 0.07,0.07 0 0,1 38.16,31.789 L 38.148,31.799 A 0.05,0.05 0 0,0 38.138,31.809 L 38.126,31.817 L 38.114,31.827 A 0.07,0.07 0 0,1 38.104,31.837 L 38.092,31.846 L 38.082,31.855 L 38.07,31.865 L 38.058,31.874 L 38.048,31.884 L 38.036,31.892 A 0.076,0.076 0 0,0 38.026,31.902 L 38.014,31.912 L 38.002,31.922 L 37.992,31.93 L 37.981,31.94 L 37.969,31.95 C 37.728,32.156 37.521,32.42 37.292,32.633 C 37.004,32.999 37.044,33.279 37.248,33.516 H 37.253 L 37.262,33.526 A 1.432,1.432 0 0,0 36.786,33.486 A 5.33,5.33 0 0,0 35.694,34.083 C 35.674,34.097 35.657,34.113 35.639,34.128 L 35.629,34.148 L 35.609,34.163 L 35.599,34.173 A 0.076,0.076 0 0,0 35.588,34.183 L 35.576,34.191 L 35.565,34.201 A 0.083,0.083 0 0,1 35.554,34.211 L 35.542,34.221 L 35.532,34.229 L 35.52,34.239 L 35.509,34.249 L 35.498,34.259 L 35.487,34.267 L 35.476,34.277 L 35.464,34.287 L 35.453,34.296 L 35.443,34.304 L 35.431,34.314 L 35.424,34.319 V 34.324 L 35.412,34.334 L 35.4,34.343 A 0.098,0.098 0 0,1 35.39,34.353 L 35.378,34.363 A 0.076,0.076 0 0,0 35.368,34.372 L 35.356,34.38 L 35.344,34.39 L 35.334,34.4 L 35.322,34.41 L 35.31,34.42 L 35.3,34.428 L 35.288,34.438 L 35.278,34.448 L 35.266,34.456 L 35.255,34.466 A 0.07,0.07 0 0,1 35.244,34.476 L 35.232,34.485 A 0.11,0.11 0 0,0 35.222,34.495 L 35.21,34.503 A 0.07,0.07 0 0,0 35.2,34.513 L 35.188,34.523 L 35.177,34.531 A 0.109,0.109 0 0,1 35.167,34.541 L 35.154,34.551 A 0.07,0.07 0 0,0 35.144,34.561 L 35.132,34.569 L 35.109,34.586 L 35.098,34.596 L 35.086,34.606 L 35.076,34.614 L 35.064,34.624 L 35.053,34.634 L 35.042,34.644 L 35.03,34.653 L 35.019,34.661 A 0.07,0.07 0 0,1 35.009,34.671 L 34.997,34.681 A 0.047,0.047 0 0,0 34.987,34.691 L 34.975,34.699 L 34.963,34.709 A 0.076,0.076 0 0,1 34.953,34.719 L 34.941,34.728 L 34.931,34.737 L 34.919,34.747 L 34.907,34.756 L 34.897,34.766 L 34.885,34.774 L 34.875,34.784 L 34.863,34.794 L 34.851,34.804 L 34.841,34.812 L 34.829,34.822 A 0.076,0.076 0 0,0 34.819,34.832 L 34.807,34.842 L 34.795,34.85 A 0.047,0.047 0 0,1 34.785,34.86 L 34.773,34.87 A 0.045,0.045 0 0,0 34.763,34.879 L 34.751,34.888 L 34.74,34.898 A 0.076,0.076 0 0,1 34.729,34.907 L 34.717,34.917 L 34.707,34.925 L 34.695,34.935 L 34.684,34.945 L 34.674,34.955 L 34.662,34.963 L 34.651,34.973 L 34.639,34.983 L 34.628,34.992 L 34.618,35.001 C 34.368,35.21 34.218,35.453 34.217,35.762 L 34.215,35.772 L 32.591,35.603 A 0.063,0.063 0 0,0 32.594,35.59 C 32.708,34.765 32.267,33.957 31.625,33.532 A 1.653,1.653 0 0,0 30.315,33.262 A 5.075,5.075 0 0,0 29.775,33.57 L 29.712,33.612 L 29.666,33.645 L 29.622,33.677 A 2.803,2.803 0 0,0 29.5,33.772 L 29.462,33.802 L 29.452,33.812 L 29.44,33.822 L 29.429,33.832 A 0.09,0.09 0 0,1 29.418,33.842 L 29.407,33.85 L 29.396,33.86 L 29.384,33.87 A 0.076,0.076 0 0,0 29.374,33.88 L 29.362,33.889 L 29.351,33.897 L 29.34,33.907 L 29.328,33.917 L 29.318,33.925 L 29.306,33.935 L 29.295,33.945 L 29.285,33.955 L 29.273,33.964 L 29.261,33.973 A 0.076,0.076 0 0,1 29.251,33.983 L 29.239,33.992 L 29.229,34.001 L 29.217,34.011 L 29.205,34.02 A 0.083,0.083 0 0,1 29.195,34.03 L 29.183,34.04 L 29.173,34.048 L 29.161,34.058 L 29.149,34.068 L 29.141,34.073 L 29.13,34.083 A 0.082,0.082 0 0,0 29.12,34.093 L 29.108,34.103 L 29.096,34.111 A 0.047,0.047 0 0,1 29.086,34.121 L 29.074,34.131 A 0.076,0.076 0 0,0 29.064,34.141 L 29.052,34.149 L 29.04,34.159 L 29.03,34.169 L 29.018,34.178 A 0.047,0.047 0 0,0 29.008,34.188 L 28.996,34.196 L 28.984,34.206 L 28.974,34.216 L 28.962,34.224 L 28.952,34.234 L 28.94,34.244 L 28.928,34.254 L 28.918,34.263 L 28.907,34.272 L 28.895,34.282 A 0.076,0.076 0 0,1 28.885,34.291 L 28.873,34.3 A 0.109,0.109 0 0,1 28.863,34.31 L 28.851,34.319 L 28.84,34.329 L 28.828,34.339 L 28.817,34.347 L 28.807,34.357 L 28.795,34.367 A 0.047,0.047 0 0,0 28.784,34.377 L 28.773,34.385 L 28.765,34.392 L 28.755,34.402 L 28.753,34.408 C 28.512,34.435 28.105,34.263 27.079,33.788 C 26.489,33.516 25.697,33.145 24.615,32.652 C 25.21,31.76 25.652,31.054 25.001,30.605 A 9.936,9.936 0 0,0 24.391,30.217 C 23.283,29.582 22.875,29.772 22.589,30.021 L 22.577,30.031 A 0.076,0.076 0 0,1 22.567,30.041 L 22.555,30.049 L 22.545,30.059 L 22.533,30.069 L 22.521,30.078 L 22.511,30.087 L 22.499,30.097 A 0.082,0.082 0 0,0 22.489,30.106 L 22.477,30.116 L 22.466,30.126 L 22.456,30.134 L 22.444,30.144 A 0.047,0.047 0 0,0 22.433,30.154 L 22.421,30.163 L 22.41,30.172 A 0.082,0.082 0 0,1 22.4,30.182 L 22.388,30.191 A 0.047,0.047 0 0,0 22.377,30.201 L 22.366,30.209 L 22.354,30.219 A 0.082,0.082 0 0,1 22.344,30.229 L 22.332,30.237 L 22.322,30.247 L 22.31,30.257 A 0.076,0.076 0 0,0 22.3,30.267 L 22.287,30.277 L 22.276,30.285 A 0.083,0.083 0 0,0 22.266,30.295 L 22.251,30.303 A 0.482,0.482 0 0,1 22.055,30.366 C 21.719,30.396 21.157,30.093 19.968,28.708 C 19.726,28.426 19.458,28.099 19.16,27.721 L 18.978,27.489 L 18.998,27.471 C 19.486,27.008 20.288,27.206 20.591,26.756 C 21.761,24.992 18.897,24.886 17.544,24.48 A 0.058,0.058 0 0,0 17.547,24.467 L 17.497,24.004 L 17.509,24.006 A 2.09,2.09 0 0,0 18.589,24.18 C 18.859,24.113 19.111,23.99 19.329,23.819 L 19.341,23.809 L 19.353,23.8 A 0.124,0.124 0 0,1 19.363,23.79 L 19.375,23.781 L 19.385,23.771 L 19.397,23.763 L 19.409,23.753 L 19.419,23.743 L 19.431,23.733 A 0.14,0.14 0 0,0 19.441,23.723 L 19.453,23.715 A 0.082,0.082 0 0,0 19.463,23.705 L 19.475,23.695 L 19.487,23.687 A 0.098,0.098 0 0,1 19.497,23.677 L 19.509,23.667 L 19.52,23.658 A 0.098,0.098 0 0,0 19.531,23.648 L 19.543,23.64 L 19.553,23.63 L 19.565,23.62 L 19.576,23.612 A 0.109,0.109 0 0,1 19.586,23.602 L 19.599,23.592 L 19.609,23.582 L 19.621,23.573 L 19.632,23.565 L 19.642,23.555 L 19.654,23.545 A 0.123,0.123 0 0,0 19.665,23.535 L 19.676,23.527 L 19.688,23.517 L 19.698,23.507 L 19.71,23.497 L 19.72,23.489 L 19.732,23.479 L 19.744,23.469 A 0.109,0.109 0 0,0 19.754,23.46 L 19.766,23.451 A 0.123,0.123 0 0,1 19.776,23.441 L 19.781,23.437 L 19.792,23.427 L 19.802,23.419 L 19.814,23.409 L 19.825,23.399 L 19.837,23.389 L 19.848,23.381 A 0.109,0.109 0 0,1 19.858,23.371 L 19.87,23.361 A 0.098,0.098 0 0,0 19.88,23.351 L 19.892,23.343 L 19.904,23.333 L 19.914,23.323 L 19.926,23.314 L 19.936,23.305 L 19.948,23.295 L 19.96,23.286 A 0.098,0.098 0 0,0 19.97,23.276 L 19.982,23.268 L 19.992,23.258 L 20.004,23.248 L 20.016,23.238 L 20.026,23.23 L 20.038,23.22 L 20.048,23.21 L 20.06,23.201 L 20.072,23.193 A 0.109,0.109 0 0,1 20.082,23.183 L 20.094,23.173 A 0.047,0.047 0 0,0 20.104,23.163 L 20.116,23.155 L 20.127,23.145 L 20.138,23.135 L 20.15,23.125 L 20.16,23.117 L 20.172,23.107 L 20.183,23.097 A 0.109,0.109 0 0,0 20.194,23.088 L 20.205,23.079 L 20.217,23.069 A 0.09,0.09 0 0,1 20.227,23.06 L 20.239,23.05 L 20.249,23.042 L 20.261,23.032 L 20.273,23.022 A 0.11,0.11 0 0,0 20.283,23.012 L 20.3,23 A 0.098,0.098 0 0,1 20.311,22.99 L 20.323,22.98 L 20.334,22.97 L 20.344,22.962 L 20.361,22.948 A 1.337,1.337 0 0,0 20.472,22.847 C 20.878,22.437 20.928,21.869 20.599,21.357 L 20.633,21.383 C 21.768,22.256 22.272,22.817 23.219,21.988 L 23.229,21.978 L 23.241,21.968 A 0.09,0.09 0 0,0 23.252,21.959 L 23.263,21.95 L 23.275,21.94 L 23.285,21.931 L 23.297,21.921 L 23.309,21.911 L 23.319,21.903 L 23.331,21.893 L 23.341,21.883 L 23.353,21.875 L 23.365,21.865 A 0.082,0.082 0 0,1 23.375,21.855 L 23.387,21.846 L 23.397,21.837 L 23.409,21.827 L 23.421,21.818 A 0.082,0.082 0 0,1 23.431,21.808 L 23.443,21.8 A 0.098,0.098 0 0,1 23.453,21.79 L 23.465,21.78 L 23.476,21.77 A 0.082,0.082 0 0,1 23.487,21.76 L 23.499,21.752 L 23.509,21.742 L 23.521,21.732 L 23.531,21.724 L 23.543,21.714 L 23.554,21.704 L 23.565,21.695 L 23.577,21.685 L 23.588,21.677 A 0.07,0.07 0 0,1 23.598,21.667 L 23.61,21.657 A 0.124,0.124 0 0,0 23.62,21.647 L 23.632,21.639 L 23.644,21.629 A 0.07,0.07 0 0,1 23.654,21.619 L 23.666,21.61 L 23.676,21.601 L 23.688,21.591 L 23.7,21.582 A 0.076,0.076 0 0,1 23.71,21.572 L 23.722,21.564 L 23.732,21.554 L 23.744,21.544 L 23.756,21.534 L 23.766,21.526 L 23.778,21.516 L 23.788,21.506 L 23.8,21.497 L 23.811,21.489 A 0.076,0.076 0 0,1 23.822,21.479 L 23.834,21.469 A 0.083,0.083 0 0,0 23.844,21.459 L 23.856,21.451 L 23.867,21.441 A 0.076,0.076 0 0,1 23.878,21.431 L 23.89,21.421 L 23.9,21.413 L 23.912,21.403 L 23.923,21.393 L 23.933,21.383 L 23.945,21.375 A 0.07,0.07 0 0,0 23.955,21.365 L 23.968,21.355 L 23.979,21.346 L 23.989,21.338 L 24.001,21.328 A 0.082,0.082 0 0,0 24.011,21.318 L 24.023,21.308 L 24.035,21.3 A 0.082,0.082 0 0,1 24.045,21.29 L 24.057,21.28 A 0.098,0.098 0 0,0 24.067,21.27 L 24.079,21.262 L 24.091,21.252 A 0.082,0.082 0 0,1 24.101,21.242 L 24.113,21.233 L 24.123,21.224 L 24.135,21.214 L 24.147,21.205 A 1.387,1.387 0 0,0 24.225,21.139 C 24.248,21.119 24.279,21.093 24.305,21.068 L 24.377,21 C 25.043,20.993 25.851,21.353 26.457,21.383 C 26.447,22.474 27.518,23.371 28.537,23.175 A 1.09,1.09 0 0,0 28.904,22.957 L 28.914,22.948 L 28.926,22.938 L 28.936,22.928 L 28.949,22.919 L 28.96,22.911 A 0.047,0.047 0 0,1 28.97,22.901 L 28.982,22.891 L 28.992,22.881 L 29.004,22.873 L 29.016,22.863 A 0.09,0.09 0 0,1 29.026,22.853 L 29.038,22.843 L 29.048,22.835 L 29.06,22.825 L 29.072,22.815 A 0.098,0.098 0 0,1 29.082,22.805 L 29.094,22.797 A 0.098,0.098 0 0,1 29.104,22.787 L 29.116,22.778 A 0.083,0.083 0 0,0 29.126,22.768 L 29.138,22.758 L 29.15,22.75 L 29.16,22.74 L 29.172,22.73 L 29.182,22.722 L 29.194,22.712 L 29.206,22.702 L 29.216,22.692 L 29.228,22.684 L 29.239,22.674 A 0.076,0.076 0 0,1 29.25,22.664 L 29.262,22.655 L 29.272,22.646 C 29.432,22.546 29.612,22.522 29.876,22.699 C 30.773,23.233 31.889,23.599 32.61,24.269 C 31.416,25.29 33.685,26.713 34.701,25.811 L 34.713,25.801 L 34.725,25.792 A 0.082,0.082 0 0,1 34.735,25.782 L 34.747,25.774 A 0.082,0.082 0 0,0 34.757,25.764 L 34.769,25.754 L 34.781,25.744 L 34.791,25.736 L 34.801,25.727 L 37.044,27.782 C 36.454,28.629 35.525,28.672 36.79,29.805 C 37.836,30.591 38.535,29.74 38.984,31.061 L 38.993,31.09 L 38.981,31.096 Z" fill="rgb(230, 29, 40)"/>
<path d="M 36.784,29.782 C 35.528,28.67 36.459,28.621 37.048,27.774 L 34.806,25.719 L 34.796,25.729 L 34.786,25.737 L 34.774,25.747 L 34.762,25.757 A 0.082,0.082 0 0,1 34.752,25.766 L 34.74,25.775 A 0.082,0.082 0 0,0 34.73,25.785 L 34.718,25.794 L 34.706,25.804 C 33.69,26.706 31.421,25.283 32.616,24.261 C 31.893,23.591 30.776,23.231 29.886,22.692 C 29.621,22.515 29.442,22.539 29.281,22.64 L 29.271,22.648 L 29.259,22.658 A 0.098,0.098 0 0,0 29.249,22.668 L 29.237,22.678 L 29.226,22.686 L 29.215,22.696 L 29.203,22.706 L 29.192,22.715 L 29.182,22.724 L 29.17,22.734 L 29.159,22.744 L 29.148,22.752 L 29.136,22.762 A 0.09,0.09 0 0,1 29.126,22.772 L 29.114,22.781 A 0.122,0.122 0 0,0 29.103,22.791 L 29.092,22.799 A 0.09,0.09 0 0,0 29.081,22.809 L 29.069,22.819 L 29.058,22.829 L 29.048,22.837 L 29.036,22.847 A 0.09,0.09 0 0,0 29.026,22.857 L 29.014,22.866 L 29.002,22.874 L 28.992,22.884 L 28.98,22.894 A 0.047,0.047 0 0,0 28.97,22.904 L 28.958,22.912 L 28.946,22.922 L 28.936,22.932 L 28.924,22.942 L 28.914,22.95 C 28.806,23.046 28.681,23.12 28.546,23.168 C 27.533,23.365 26.456,22.468 26.466,21.376 C 25.86,21.346 25.051,20.988 24.386,20.993 L 24.316,21.061 A 1.909,1.909 0 0,1 24.234,21.133 L 24.163,21.193 A 0.019,0.019 0 0,0 24.156,21.198 L 24.144,21.208 L 24.133,21.218 L 24.123,21.226 L 24.111,21.236 A 0.076,0.076 0 0,0 24.1,21.246 L 24.088,21.256 L 24.077,21.264 A 0.083,0.083 0 0,1 24.067,21.274 L 24.055,21.284 A 0.076,0.076 0 0,0 24.045,21.294 L 24.033,21.302 L 24.021,21.312 A 0.077,0.077 0 0,1 24.011,21.322 L 23.999,21.331 L 23.989,21.339 L 23.977,21.349 L 23.965,21.359 A 0.076,0.076 0 0,1 23.955,21.369 L 23.943,21.377 L 23.933,21.387 L 23.921,21.397 L 23.909,21.406 L 23.899,21.415 L 23.887,21.425 A 0.076,0.076 0 0,0 23.877,21.435 L 23.865,21.444 L 23.854,21.452 A 0.09,0.09 0 0,1 23.843,21.462 L 23.831,21.472 A 0.07,0.07 0 0,0 23.821,21.482 L 23.809,21.49 L 23.798,21.5 L 23.787,21.51 L 23.775,21.52 L 23.765,21.528 L 23.753,21.538 L 23.742,21.548 L 23.732,21.557 L 23.72,21.566 A 0.07,0.07 0 0,0 23.71,21.576 L 23.697,21.585 L 23.686,21.595 L 23.676,21.603 L 23.664,21.613 A 0.082,0.082 0 0,0 23.654,21.623 L 23.642,21.633 L 23.63,21.641 A 0.123,0.123 0 0,1 23.62,21.651 L 23.608,21.661 A 0.082,0.082 0 0,0 23.598,21.671 L 23.586,21.679 L 23.574,21.689 L 23.564,21.698 L 23.552,21.708 L 23.54,21.718 L 23.53,21.726 L 23.518,21.736 L 23.508,21.746 L 23.496,21.754 A 0.082,0.082 0 0,0 23.486,21.764 L 23.474,21.774 L 23.462,21.783 A 0.109,0.109 0 0,0 23.452,21.793 L 23.44,21.801 A 0.076,0.076 0 0,0 23.43,21.811 L 23.418,21.821 L 23.406,21.831 L 23.396,21.839 L 23.384,21.849 A 0.076,0.076 0 0,0 23.374,21.859 L 23.362,21.869 L 23.351,21.877 L 23.341,21.887 L 23.328,21.897 L 23.318,21.905 L 23.306,21.915 L 23.295,21.925 L 23.285,21.934 L 23.273,21.944 L 23.261,21.952 A 0.07,0.07 0 0,1 23.251,21.962 L 23.239,21.972 L 23.229,21.982 C 22.282,22.81 21.778,22.25 20.642,21.376 L 20.609,21.349 C 20.939,21.867 20.883,22.434 20.482,22.839 A 0.56,0.56 0 0,1 20.431,22.889 L 20.371,22.941 L 20.354,22.955 L 20.344,22.964 L 20.332,22.974 L 20.32,22.983 A 0.105,0.105 0 0,0 20.3,22.999 L 20.29,23.007 A 0.109,0.109 0 0,1 20.279,23.017 L 20.267,23.027 L 20.256,23.037 L 20.246,23.045 L 20.234,23.055 A 0.076,0.076 0 0,0 20.223,23.065 L 20.211,23.074 L 20.2,23.083 A 0.11,0.11 0 0,1 20.19,23.093 L 20.178,23.102 L 20.166,23.112 L 20.156,23.12 L 20.144,23.13 L 20.134,23.14 L 20.122,23.15 L 20.11,23.158 A 0.047,0.047 0 0,1 20.1,23.168 L 20.088,23.178 A 0.11,0.11 0 0,0 20.078,23.188 L 20.066,23.196 L 20.054,23.206 L 20.044,23.216 L 20.032,23.225 L 20.022,23.233 L 20.01,23.243 L 19.998,23.253 L 19.988,23.263 L 19.976,23.271 A 0.123,0.123 0 0,1 19.966,23.281 L 19.954,23.291 L 19.942,23.301 L 19.932,23.309 L 19.921,23.319 L 19.91,23.329 L 19.898,23.338 L 19.887,23.346 A 0.109,0.109 0 0,1 19.877,23.356 L 19.865,23.366 A 0.098,0.098 0 0,0 19.854,23.376 L 19.843,23.384 L 19.831,23.394 L 19.821,23.404 L 19.809,23.414 L 19.799,23.422 L 19.781,23.437 L 19.77,23.447 A 0.098,0.098 0 0,0 19.759,23.457 L 19.747,23.465 A 0.098,0.098 0 0,1 19.737,23.475 L 19.725,23.485 L 19.714,23.494 L 19.704,23.503 L 19.692,23.513 L 19.681,23.523 L 19.669,23.532 L 19.658,23.54 A 0.122,0.122 0 0,1 19.648,23.55 L 19.636,23.56 L 19.626,23.57 L 19.614,23.578 L 19.602,23.588 L 19.592,23.598 L 19.58,23.608 A 0.123,0.123 0 0,0 19.57,23.617 L 19.558,23.625 L 19.546,23.635 L 19.536,23.645 L 19.524,23.654 A 0.098,0.098 0 0,1 19.514,23.664 L 19.502,23.673 L 19.49,23.683 A 0.109,0.109 0 0,0 19.48,23.693 L 19.468,23.701 L 19.456,23.711 A 0.083,0.083 0 0,1 19.446,23.721 L 19.434,23.729 A 0.098,0.098 0 0,1 19.424,23.739 L 19.412,23.749 L 19.402,23.758 L 19.39,23.768 L 19.379,23.776 L 19.368,23.786 L 19.356,23.796 A 0.098,0.098 0 0,0 19.346,23.806 L 19.334,23.814 L 19.323,23.824 A 1.96,1.96 0 0,1 18.583,24.184 C 18.213,24.224 17.84,24.164 17.502,24.011 L 17.49,24.009 L 17.54,24.472 L 17.517,24.467 L 17.467,24.005 L 17.443,23.768 A 88.387,88.387 0 0,0 17.313,22.575 C 18.145,22.901 18.733,23.397 19.587,23.297 C 19.854,23.23 20.104,23.109 20.322,22.941 A 1.405,1.405 0 0,0 20.432,22.84 C 20.837,22.44 20.9,21.883 20.595,21.372 C 20.388,21.026 20.013,20.698 19.461,20.454 C 19.661,20.413 19.858,20.354 20.049,20.28 C 20.447,20.133 20.789,19.986 21.133,20.122 C 22.59,21.154 23.11,21.985 24.113,21.188 C 24.137,21.17 24.161,21.15 24.185,21.128 C 24.209,21.105 24.24,21.082 24.266,21.057 L 24.339,20.989 C 24.603,20.727 24.848,20.445 25.069,20.146 C 25.375,20.075 25.731,20.123 26.094,20.205 C 26.57,20.312 27.059,20.475 27.458,20.495 C 27.449,21.587 28.52,22.484 29.538,22.288 C 30.104,22.103 30.251,21.384 30.882,21.807 C 31.125,21.952 31.383,22.085 31.646,22.213 C 32.354,22.563 33.09,22.889 33.616,23.378 C 32.383,24.433 34.834,25.911 35.798,24.829 L 36.825,25.769 L 38.05,26.89 C 37.46,27.738 36.53,27.787 37.796,28.914 C 38.793,29.662 39.471,28.92 39.924,29.997 C 40.025,30.254 40.102,30.521 40.151,30.793 A 1.168,1.168 0 0,0 38.985,31.053 C 38.535,29.731 37.841,30.581 36.795,29.797 Z" fill="rgb(179, 28, 33)"/>
<path d="M 24.983999999999998,30.593 A 7.64,7.64 0 0,0 24.372,30.23 C 23.265,29.595 22.858,29.785 22.572,30.033 L 22.56,30.043 A 0.09,0.09 0 0,1 22.55,30.053 L 22.538,30.061 L 22.528,30.071 L 22.516,30.081 L 22.504,30.091 L 22.494,30.099 L 22.482,30.109 A 0.09,0.09 0 0,0 22.472,30.119 L 22.46,30.129 L 22.448,30.138 L 22.438,30.147 L 22.426,30.157 A 0.047,0.047 0 0,0 22.416,30.166 L 22.404,30.176 L 22.392,30.184 A 0.098,0.098 0 0,1 22.382,30.194 L 22.37,30.204 A 0.047,0.047 0 0,0 22.36,30.214 L 22.348,30.222 L 22.336,30.232 A 0.098,0.098 0 0,1 22.326,30.242 L 22.314,30.25 L 22.304,30.26 L 22.292,30.27 A 0.09,0.09 0 0,0 22.282,30.28 L 22.27,30.289 L 22.258,30.297 A 0.082,0.082 0 0,0 22.248,30.307 A 0.48,0.48 0 0,1 22.042,30.375 C 21.702,30.367 21.167,30.002 20.014,28.704 L 19.954,28.716 L 16.712,29.355 C 17.151,29.944 17.655,30.661 18.282,31.38 C 17.668,31.545 17.076,31.458 16.556,31.416 C 16.059,31.376 15.617,31.376 15.266,31.672 A 0.498,0.498 0 0,0 15.233,31.7 A 1.822,1.822 0 0,0 14.771,32.474 C 17.265,34.719 16.106,34.834 19.903,33.821 L 20.017,34.037 C 19.857,34.603 18.62,35.367 18.907,35.874 C 20.349,36.7 21.525,37.734 22.22,37.224 L 22.233,37.214 L 22.253,37.197 C 22.466,37.022 22.631,36.688 22.741,36.147 C 22.821,35.721 22.867,35.29 22.882,34.858 L 25.958,36.271 L 27.054,33.806 L 27.056,33.793 C 26.468,33.522 25.678,33.151 24.6,32.658 C 25.203,31.761 25.64,31.067 24.994,30.608 Z M 43.925,38.35 C 43.116,37.787 41.874,37.294 41.225,36.606 A 0.719,0.719 0 0,1 41.437,36.229 C 41.517,36.141 41.601,36.057 41.69,35.979 L 39.731,34.534 C 39.549,34.733 39.348,34.902 39.212,35.035 A 4.46,4.46 0 0,1 38.986,34.853 C 38.755,34.656 38.544,34.441 38.334,34.243 C 37.982,33.908 37.634,33.615 37.206,33.513 A 1.425,1.425 0 0,0 36.756,33.478 C 36.325,33.673 35.935,33.856 35.656,34.085 C 35.636,34.099 35.618,34.115 35.601,34.13 L 35.59,34.14 L 35.571,34.156 C 35.144,34.55 35.054,35.061 35.641,35.901 L 34.221,35.756 L 35.505,38.401 L 37.516,38.281 L 38.761,41.369 C 39.824,41.295 40.861,41.122 41.703,40.363 C 42.303,40.373 42.75,40.128 43.157,39.8 L 43.266,39.714 L 43.361,39.631 C 43.701,39.332 44.027,38.997 44.409,38.748 L 44.421,38.74 C 44.185,38.546 44.064,38.434 43.925,38.35 Z M 37.798,28.914 C 38.794,29.664 39.473,28.921 39.925,29.997 L 43.245,31.063 C 43.257,30.886 43.282,30.71 43.32,30.537 C 43.605,30.677 43.87,30.862 44.163,30.933 C 44.433,31.011 44.755,30.868 45.013,30.668 L 45.039,30.648 L 45.059,30.632 A 0.187,0.187 0 0,0 45.081,30.612 L 45.121,30.578 L 45.19,30.509 C 45.352,30.346 45.463,30.173 45.476,30.056 C 45.228,29.049 44.858,28.562 43.635,28.163 C 44.062,27.363 43.64,26.551 42.521,25.973 L 42.509,25.983 A 4.258,4.258 0 0,1 42.319,26.132 L 42.233,26.192 C 41.154,26.925 40.565,26.322 39.805,25.372 L 36.826,25.77 L 38.051,26.892 C 37.461,27.738 36.531,27.787 37.798,28.914 Z M 31.045,17.7 C 30.161,17.28 30.031,17.193 29.773,17.371 L 29.748,17.388 C 29.651,17.458 29.532,17.561 29.349,17.703 L 29.273,17.76 A 7.219,7.219 0 0,1 29.006,17.943 C 28.603,16.781 26.88,15.704 25.913,16.357 A 1.169,1.169 0 0,0 25.803,16.444 L 25.793,16.453 L 25.783,16.461 A 1.626,1.626 0 0,0 25.328,17.327 L 25.872,17.792 A 7.898,7.898 0 0,0 24.499,17.642 L 24.457,17.64 L 26.096,20.205 C 26.572,20.313 27.06,20.476 27.46,20.495 C 27.451,21.587 28.521,22.484 29.54,22.288 C 30.106,22.104 30.253,21.386 30.884,21.808 C 31.127,21.953 31.385,22.085 31.648,22.214 L 32.878,20.367 A 20.6,20.6 0 0,1 31.254,19.469 C 31.844,18.424 32.484,18.266 31.044,17.7 Z M 17.442,23.768 A 88.484,88.484 0 0,0 17.312,22.575 C 18.144,22.901 18.732,23.397 19.587,23.297 C 19.854,23.23 20.104,23.109 20.322,22.941 C 20.342,22.925 20.362,22.907 20.382,22.889 A 0.632,0.632 0 0,0 20.432,22.839 C 20.836,22.44 20.9,21.883 20.594,21.372 C 20.388,21.026 20.013,20.699 19.46,20.455 C 19.66,20.413 19.857,20.355 20.048,20.28 L 17.371,18.581 A 2.537,2.537 0 0,1 17.131,18.704 A 1.595,1.595 0 0,1 16.774,18.816 C 15.487,18.504 14.39,15.69 13,16.866 L 12.95,16.909 L 12.885,16.971 C 11.602,18.003 10.763,19.003 10.125,20.638 L 14.616,21.527 L 14.276,22.874 L 17.442,23.768 Z" fill="rgb(237, 121, 41)"/>
</svg>
