<?xml version="1.0" encoding="UTF-8"?>
<!-- generated by Finnhub -->
<svg viewBox="0 0 55.5 55.5" xmlns="http://www.w3.org/2000/svg">
<path d="M 0,0 H 55.5 V 55.5 H 0 Z" fill="rgb(239, 242, 248)"/>
<path d="M 27.99,26.985 A 4,4 0 1,0 28,19 A 4,4 0 0,0 28,27 Z" fill="rgb(1, 99, 76)"/>
<path d="M 39.010000000000005,24.375 A 0.3,0.3 0 0,0 38.91,24.59 A 10.8,10.8 0 0,1 32.06,33.25 C 31.58,33.43 31.26,33.93 31.46,34.4 C 32.28,36.33 34.39,37 35.5,37 A 3.5,3.5 0 1,1 32,40.5 C 32,39 30.09,37.29 28,37.29 C 25.92,37.29 24.01,38.99 24,40.49 V 40.5 A 3.5,3.5 0 1,1 20.02,37.02 V 37 A 8,8 0 0,0 23.3,35.74 C 23.93,35.33 24.23,34.73 24.36,34.14 C 24.46,33.72 24.16,33.34 23.76,33.17 A 10.8,10.8 0 0,1 17.09,24.58 A 0.3,0.3 0 0,0 16.99,24.38 C 16.54,24.03 16,23.6 16,23 C 16,22.4 16.54,21.97 16.98,21.61 C 17.08,21.54 17.13,21.43 17.15,21.31 A 11.14,11.14 0 0,1 28,12 C 33.43,12 37.97,16.1 38.85,21.32 C 38.87,21.43 38.93,21.54 39.02,21.62 C 39.46,21.97 40,22.4 40,23 C 40,23.6 39.46,24.03 39.02,24.39 Z M 35,23 A 7,7 0 1,1 21,23 A 7,7 0 0,1 35,23 Z" fill="rgb(1, 99, 76)" fill-rule="evenodd"/>
</svg>
