<?xml version="1.0" encoding="UTF-8"?>
<!-- generated by Finnhub -->
<svg viewBox="0 0 55.5 55.5" xmlns="http://www.w3.org/2000/svg">
<path d="M 0,0 H 55.5 V 55.5 H 0 Z" fill="url(#a)"/>
<path d="M 15.27,21.884999999999998 L 13.19,15.85 L 13.01,15.17 C 12.98,15.06 13.02,15 13.14,15 H 18.11 C 18.21,15 18.28,15.07 18.31,15.16 L 19.4,18.25 C 19.45,18.38 19.43,18.51 19.34,18.62 A 14.75,14.75 0 0,0 16.51,24.49 C 16.45,24.79 16.36,24.79 16.26,24.51 L 15.28,21.9 Z M 32.38,15.08 A 9.51,9.51 0 0,1 40.08,20.55 C 40.78,22.22 41.02,23.96 40.76,25.77 A 9.64,9.64 0 0,1 39.08,29.84 C 38.86,30.16 38.78,30.12 38.88,29.74 A 7.58,7.58 0 0,0 37.99,24.03 A 7.89,7.89 0 0,0 33.5,20.4 A 7.7,7.7 0 0,0 27.37,20.98 A 7.7,7.7 0 0,0 23.47,26.07 A 7.85,7.85 0 0,0 25.07,33.18 A 8.07,8.07 0 0,0 31.01,36.07 C 34.14,36.17 36.74,35.14 38.81,32.98 A 15.88,15.88 0 0,0 42.91,25.32 L 43.18,23.85 C 43.24,23.55 43.31,23.54 43.39,23.84 C 44.54,27.87 44.07,31.6 41.99,35.02 A 12.07,12.07 0 0,1 36.29,39.95 A 12.78,12.78 0 0,1 28.84,40.77 A 12.72,12.72 0 0,1 20.42,35.33 C 20.33,35.22 20.27,35.23 20.22,35.36 L 18.3,40.84 C 18.26,40.94 18.2,41 18.08,41 H 13.14 C 13.02,41 12.98,40.94 13.02,40.82 L 13.47,39.52 L 16.23,31.58 A 363,363 0 0,1 19.15,23.32 C 20.85,18.86 24.41,16.46 28.78,15.16 C 29.98,14.98 31.18,14.95 32.38,15.08 Z M 32,24.5 A 0.5,0.5 0 1,1 31,24.5 A 0.5,0.5 0 0,1 32,24.5 Z" fill="rgb(19, 40, 45)"/>
<defs>
<linearGradient id="a" x2="56" y1="28" y2="28" gradientUnits="userSpaceOnUse">
<stop stop-color="rgb(130, 204, 145)" offset="0"/>
<stop stop-color="rgb(228, 229, 165)" offset="1"/>
</linearGradient>
</defs>
</svg>
