<?xml version="1.0" encoding="UTF-8"?>
<!-- generated by Finnhub -->
<svg viewBox="0 0 55.5 55.5" xmlns="http://www.w3.org/2000/svg">
<path d="M 0,0 H 55.5 V 55.5 H 0 Z" fill="rgb(23, 26, 28)"/>
<path d="M 13.120000000000001,27.325 S 43.93,26.9 44.37,27.34 C 44.79,27.94 46.07,28.85 46.17,28.91 C 46.27,28.98 47.17,31.51 44.03,34.32 C 31.68,34.27 26.21,37.44 17.77,34.54 C 14.37,33.46 13.57,33.07 13.1,32.62 C 7.53,27.92 13.13,27.34 13.13,27.34 Z" fill="rgb(254, 254, 253)"/>
<path d="M 20.419999999999998,17.985 C 25.18,18.4 29.78,19.9 34.17,21.7 C 35.64,22.31 37.1,22.98 38.54,23.66 C 38.94,23.85 39.24,23.9 39.62,23.66 C 39.84,23.53 40.1,23.47 40.35,23.39 C 40.45,23.36 40.56,23.34 40.66,23.35 L 43.48,23.77 C 43.71,23.81 43.81,23.92 43.81,24.14 C 43.82,24.96 43.85,25.78 43.84,26.6 C 43.84,26.82 44.84,27.87 45,28 H 42 V 34 H 43.5 V 32.16 C 43.92,32.14 43.97,32.14 44.36,32.1 C 45.63,31.98 46.46,31 46.36,29.83 C 46.33,29.51 46.23,29.21 46.16,28.9 C 46.26,28.92 46.38,28.6 46.49,28.62 C 46.86,28.7 46.88,28.72 46.85,29.09 L 46.84,29.29 C 46.74,29.78 47.48,30.31 47.77,30.63 C 48.07,30.98 48.09,31.13 47.76,31.44 C 46.96,32.2 46.18,32.96 45.34,33.67 C 44.84,34.11 44.25,34.47 43.69,34.84 C 43.56,34.93 43.49,34.99 43.5,35.15 C 43.54,35.95 43.56,36.75 43.57,37.54 C 43.58,37.89 43.54,37.94 43.16,37.9 C 42.29,37.82 41.42,37.7 40.56,37.63 A 1.83,1.83 0 0,1 39.19,36.94 C 39.03,36.74 38.75,36.4 38.45,36.46 C 36.76,36.79 35.05,36.88 33.33,36.92 C 32.73,36.94 32.13,36.92 31.57,36.92 L 31.13,38 H 30.07 C 28.5,38 25.54,37.49 23.91,37.26 C 23.5,37.2 23.04,37.24 22.73,36.9 C 22.43,36.57 22.15,36.22 21.86,35.88 C 21.71,35.7 21.63,35.48 21.36,35.44 A 23.36,23.36 0 0,1 16.23,34.08 C 15.74,33.88 15.24,33.7 14.73,33.51 C 15.21,32.03 15.66,30.93 16.14,29.44 C 16.71,31 17.18,32.27 17.71,33.85 C 17.73,33.91 17.79,34 17.84,34 H 19.3 C 18.53,31.86 17.78,30.1 17.03,28 H 15.57 C 15.39,28 15.32,28.06 15.27,28.2 C 14.71,29.78 14.02,31.32 13.44,32.88 L 13.08,32.64 C 10.97,31.42 8.91,29.69 8.25,27.24 C 8.15,26.87 8.08,26.5 8,26.13 C 8,19.19 15.1,18 20.43,18 Z M 34.5,34 V 31.78 H 36.5 V 34 H 38 V 28 H 36.48 V 30.52 H 34.49 V 28 H 33 V 34 H 34.5 Z M 22.5,28 V 34 H 24 V 31.96 C 24.52,31.9 24.83,31.96 25.13,32.62 C 25.33,33.04 25.38,33.13 25.56,33.55 C 25.74,34 25.74,34 26.24,34 H 27.35 C 27,33.2 26.59,31.9 25.75,31.52 L 25.74,31.46 C 26.62,31.16 27,30.52 27,29.53 C 27,29 26.49,28.19 25.72,28.09 C 25.26,28.03 24.81,28.01 24.34,28 H 22.5 Z M 20,28 V 34 H 21.5 V 28 H 20 Z M 44.3,30.93 C 44.8,30.83 45.01,30.51 45,29.95 C 45,29.43 44.78,29.13 44.28,29.05 C 43.96,29 43.83,29.02 43.5,29 L 43.51,31 C 43.86,30.98 43.99,30.99 44.31,30.93 Z M 24.96,30.77 C 25.36,30.7 25.59,30.5 25.59,29.97 C 25.59,29 24.74,29.07 24,29 V 30.83 C 24.35,30.81 24.66,30.81 24.96,30.77 Z" fill="rgb(243, 130, 32)"/>
<path d="M 31.72,28.335 C 31.75,28.69 31.74,29.02 31.74,29.33 C 31.32,29.23 30.92,29.12 30.51,29.05 C 30.34,29.02 30.16,29.04 29.98,29.07 C 29.73,29.12 29.52,29.24 29.47,29.49 C 29.41,29.73 29.46,29.98 29.69,30.13 C 30.19,30.45 30.75,30.64 31.24,30.96 C 31.84,31.36 32.08,31.91 31.97,32.58 C 31.87,33.25 31.42,33.66 30.73,33.84 C 29.89,34.08 29.03,34.05 28.2,33.76 C 28.07,33.71 28.02,33.65 28.02,33.51 C 28.04,33.15 28.03,32.8 28.03,32.41 C 28.22,32.53 28.39,32.61 28.54,32.71 C 28.98,33.01 29.47,33.02 29.98,32.97 A 0.6,0.6 0 0,0 30.53,32.51 C 30.61,32.25 30.5,32.03 30.27,31.88 C 29.7,31.52 29.04,31.28 28.52,30.83 C 27.78,30.18 27.85,29.15 28.59,28.51 C 29.17,28.01 29.87,27.98 30.59,28.01 C 30.92,28.03 31.26,28.11 31.59,28.17 C 31.65,28.19 31.73,28.29 31.73,28.35 Z M 39,28 H 40.5 V 34 H 39 V 28 Z" fill="rgb(254, 254, 253)"/>
</svg>
