<?xml version="1.0" encoding="UTF-8"?>
<!-- generated by Finnhub -->
<svg viewBox="0 0 55.5 55.5" xmlns="http://www.w3.org/2000/svg">
<path d="M 0,0 H 55.5 V 55.5 H 0 Z" fill="rgb(239, 242, 248)"/>
<path d="M 45.36,27.985 C 45.37,28.63 45.25,29.17 45.01,29.62 A 2.5,2.5 0 0,1 42.68,31 A 2.55,2.55 0 0,1 40.35,29.61 A 3.45,3.45 0 0,1 40,28 C 40,27.37 40.12,26.83 40.35,26.39 A 2.53,2.53 0 0,1 42.68,25 A 2.5,2.5 0 0,1 45.01,26.39 C 45.25,26.83 45.37,27.37 45.37,28 Z M 44.3,28 C 44.3,27.56 44.23,27.18 44.1,26.88 C 43.96,26.58 43.77,26.34 43.53,26.18 A 1.51,1.51 0 0,0 42.68,25.95 C 42.37,25.95 42.08,26.03 41.84,26.19 C 41.6,26.34 41.41,26.57 41.27,26.88 C 41.13,27.18 41.07,27.56 41.07,28 C 41.07,28.44 41.13,28.82 41.27,29.12 C 41.41,29.42 41.6,29.66 41.84,29.82 C 42.09,29.97 42.37,30.05 42.68,30.05 C 43,30.05 43.28,29.97 43.53,29.82 C 43.77,29.66 43.96,29.42 44.1,29.12 C 44.23,28.82 44.3,28.44 44.3,28 Z M 39,25 V 31 H 38 V 25 H 39 Z M 33,31 V 25 H 35.16 C 35.61,25 35.98,25.08 36.28,25.24 C 36.58,25.4 36.81,25.63 36.96,25.91 C 37.12,26.21 37.2,26.54 37.2,26.91 C 37.2,28.13 36.3,29 35.15,29 H 33.61 V 28 H 35 C 35.64,28 36.12,27.6 36.12,26.92 S 35.65,26 35,26 H 34 L 34.05,31 H 33 Z M 35.98,28.28 L 37.41,31 H 36.24 L 34.84,28.28 H 35.98 Z M 31,25 H 32 V 28.86 C 32,30.25 30.78,31 29.5,31 S 27,30.25 27,28.86 V 25 H 28 V 28.77 C 28,29.56 28.75,30 29.5,30 S 31,29.56 31,28.77 V 25 Z M 21,26 V 25 H 26 V 26 H 24 V 31 H 23 V 26 H 21 Z M 20,25 V 31 H 19.02 L 16.15,26.91 H 16 V 31 H 15 V 25 H 15.99 L 18.85,29.09 H 19 V 25 H 20 Z M 51,25 V 31 H 50.02 L 47.15,26.91 H 47 V 31 H 46 V 25 H 46.99 L 49.85,29.09 H 50 V 25 H 51 Z M 10,31 V 25 H 14 V 26 H 11 V 27.54 H 13.77 V 28.45 H 11 V 30 H 14 V 31 H 10 Z M 9,27 H 7.96 A 1.28,1.28 0 0,0 7.1,26.02 A 1.53,1.53 0 0,0 6.61,25.95 A 1.44,1.44 0 0,0 5.24,26.89 C 5.1,27.19 5.04,27.56 5.04,28 C 5.04,28.45 5.1,28.82 5.24,29.13 C 5.37,29.43 5.56,29.66 5.8,29.82 A 1.6,1.6 0 0,0 7.1,29.98 A 1.3,1.3 0 0,0 7.8,29.44 C 7.88,29.3 7.93,29.17 7.96,29 H 9 A 2.3,2.3 0 0,1 6.6,31 A 2.46,2.46 0 0,1 4.34,29.61 A 3.56,3.56 0 0,1 4,28 C 4,27.37 4.11,26.83 4.34,26.39 C 4.57,25.94 4.88,25.59 5.27,25.36 A 2.75,2.75 0 0,1 7.48,25.14 C 8.3,25.41 8.88,26.14 9,27 Z"/>
</svg>
