<!-- by Finnhub --><svg width="56" height="56" viewBox="0 0 56 56" fill="none" xmlns="http://www.w3.org/2000/svg">
<rect width="56" height="56" fill="#F0F3FA"/>
<path fill-rule="evenodd" clip-rule="evenodd" d="M43 13H13V43H43V13ZM21 40.3536V17.9225L24.8297 16.0624L40.0391 32.4754L35.9906 34.3355L32.3797 30.5058L25 33.5696V38.4935L21 40.3536ZM30.5195 27.3557C30.5195 29.3514 28.9016 30.9692 26.906 30.9692C24.9103 30.9692 23.2925 29.3514 23.2925 27.3557C23.2925 25.901 23.7071 21.9448 24.0012 19.8866C24.3718 20.2052 24.8531 20.5691 25.3863 20.9723C27.5323 22.5948 30.5195 24.8534 30.5195 27.3557ZM25.7598 26.1352C25.8253 23.7769 25.1048 23.3222 24.7363 23.3896C24.2041 23.5644 24.0948 24.8797 24.1494 27.1997C24.204 29.5198 25.6779 29.0831 25.7598 26.1352ZM32.0934 31.7822L25.7512 34.3559L30.8985 36.7457L32.0934 31.7822Z" fill="url(#paint0_linear_229_20200)"/>
<defs>
<linearGradient id="paint0_linear_229_20200" x1="28" y1="13" x2="28" y2="43" gradientUnits="userSpaceOnUse">
<stop stop-color="#FD2727"/>
<stop offset="1" stop-color="#BF0301"/>
</linearGradient>
</defs>
</svg>
