<!-- by Finnhub --><svg xmlns="http://www.w3.org/2000/svg" width="56" height="56" viewBox="0 0 56 56"><path fill="#F0F3FA" d="M0 0h56v56H0z"/><path d="M23.14 13.17c.32-.89 1.13-3.82 1.5-5.17.61 1.03 2.62 2.87 3.55 3.66 1.32 1.05 4.14 3.8 4.9 6.47.95 3.34.08 7.54-.36 8.7-.35.91-1.25 4.23-1.65 5.78-.58-.97-3.77-3.85-4.54-4.42-.77-.58-4.39-4.7-4.6-8.12-.23-3.41.8-5.78 1.2-6.9Z" fill="#F4AF23"/><path d="M19.32 43.72c-.95.16-3.94.92-5.32 1.28.61-1.04 1.25-3.66 1.49-4.84.27-1.64 1.3-5.41 3.3-7.39 2.48-2.46 6.63-3.8 7.87-3.99.99-.15 4.37-1.04 5.93-1.46-.57.98-1.53 5.12-1.66 6.06-.13.94-2 6.07-4.9 7.95-2.92 1.88-5.52 2.18-6.7 2.39Z" fill="#4C5F71"/><path d="m32.59 27.35-5.47 1.33 3.91 4 1.56-5.33Z" fill="#2E334E"/><path d="M36.94 39.51c-.18.5-.63 2.11-.83 2.86-.34-.57-1.45-1.59-1.96-2.02-.73-.58-2.3-2.1-2.72-3.58a9.27 9.27 0 0 1 .2-4.82c.2-.5.7-2.34.92-3.2.32.54 2.08 2.13 2.5 2.45.43.32 2.44 2.6 2.56 4.5.12 1.88-.45 3.2-.67 3.81Z" fill="#F4AF23"/><path d="M39.05 22.6c.53-.09 2.19-.5 2.95-.7-.34.57-.69 2.02-.82 2.67-.15.91-.73 3-1.83 4.09A9.69 9.69 0 0 1 35 30.87c-.54.09-2.41.58-3.28.8.31-.53.85-2.82.92-3.34.07-.52 1.1-3.37 2.71-4.4 1.62-1.05 3.06-1.21 3.71-1.33Z" fill="#4C5F71"/><path d="m31.71 31.66 3.03-.73-2.17-2.21-.86 2.94Z" fill="#2E334E"/></svg>