<?xml version="1.0" encoding="UTF-8"?>
<!-- generated by Finnhub -->
<svg viewBox="0 0 55.5 55.5" xmlns="http://www.w3.org/2000/svg">
<path d="M 0,0 H 55.5 V 55.5 H 0 Z" fill="rgb(239, 242, 248)"/>
<path d="M 25.889999999999997,33.735 C 25.9,36.33 26.45,38.78 27.45,41 H 37.57 A 6.33,6.33 0 0,0 43.13,31.5 L 35.28,18.1 A 17.81,17.81 0 0,0 25.89,33.75 Z" fill="rgb(254, 163, 149)"/>
<path d="M 18.09,27.155 C 25.7,27.17 31.87,21.08 31.87,13.59 V 13.26 A 6.48,6.48 0 0,0 22.44,15.16 L 15.55,26.93 C 16.38,27.08 17.23,27.17 18.1,27.17 Z" fill="rgb(228, 106, 87)"/>
<path d="M 25.45,39.705 C 25.46,33.68 20.88,28.69 14.96,27.94 L 12.87,31.51 A 6.33,6.33 0 0,0 18.43,41 H 25.39 C 25.43,40.58 25.46,40.15 25.46,39.72 Z" fill="rgb(210, 38, 53)"/>
</svg>
