<?xml version="1.0" encoding="UTF-8"?>
<!-- generated by Finnhub -->
<svg viewBox="0 0 55.5 55.5" xmlns="http://www.w3.org/2000/svg">
<path d="M 0,0 H 55.5 V 55.5 H 0 Z" fill="rgb(239, 242, 248)"/>
<path d="M 39.49,28.985 A 5.78,5.78 0 0,1 40,29.05 V 29.86 A 1.1,1.1 0 0,0 39.82,29.85 A 0.8,0.8 0 0,0 39.7,29.84 C 38.38,29.84 38,31.44 38,32.5 C 38,33.57 38.4,35.16 39.7,35.16 H 39.82 L 39.99,35.14 V 35.95 A 2.91,2.91 0 0,1 39.48,36 C 37.63,36 37,34.04 37,32.5 C 37,30.94 37.65,29 39.5,29 Z M 31,32.99 C 31,34.38 30.68,36 29,36 S 27,34.4 27,33.02 V 29 H 28 V 32.88 C 28,33.61 28.04,35.16 29,35.16 S 30,33.61 30,32.88 V 29 H 31 V 32.99 Z M 24,29.83 C 23,29.83 23,31.77 23,32.53 C 23,33.29 23,35.17 24,35.17 S 25,33.29 25,32.53 C 25,31.76 25,29.83 24,29.83 Z M 24,29 C 25.75,29 26,31.21 26,32.53 C 26,33.84 25.72,36 24,36 S 22,33.84 22,32.53 C 22,31.21 22.25,29 24,29 Z M 21,34.32 C 21,35.25 20.35,36 19.39,36 C 18.89,36 18.44,35.8 18,35.59 V 34.66 C 18.38,34.91 18.78,35.19 19.26,35.19 C 19.75,35.19 20,34.69 20,34.25 C 20,33 18,32.06 18,30.55 C 18,29.65 18.85,29 19.74,29 C 20.1,29 20.41,29.12 20.66,29.22 V 30.07 A 1.51,1.51 0 0,0 19.86,29.81 C 19.42,29.82 19,30.15 19,30.6 C 19,31.5 21,32.76 21,34.32 Z M 48,34.32 C 48,35.25 47.35,36 46.4,36 C 45.89,36 45.44,35.8 45,35.59 V 34.66 C 45.38,34.91 45.78,35.19 46.26,35.19 C 46.75,35.19 47,34.69 47,34.25 C 47,33 45,32.06 45,30.55 C 45,29.65 45.85,29 46.74,29 C 47.1,29 47.41,29.12 47.66,29.22 V 30.07 A 1.51,1.51 0 0,0 46.86,29.81 C 46.42,29.82 46,30.15 46,30.6 C 46,31.5 48,32.76 48,34.32 Z M 10,32.65 C 10.78,32.58 11.5,32.09 11.5,31.23 C 11.5,30.29 10.85,29.87 10,29.82 V 32.65 Z M 11.82,36 L 10,33.23 V 36 H 9 V 29 H 9.54 C 11.01,29 12.5,29.48 12.5,31.2 C 12.5,32.18 11.8,32.92 10.9,33.17 L 13,36 H 11.82 Z M 33,32.65 C 33.78,32.58 34.5,32.09 34.5,31.23 C 34.5,30.29 33.85,29.87 33,29.82 V 32.65 Z M 34.82,36 L 33,33.23 V 36 H 32 V 29 H 32.54 C 34.01,29 35.5,29.48 35.5,31.2 C 35.5,32.18 34.8,32.92 33.9,33.17 L 36,36 H 34.82 Z M 37,25.15 C 38.37,25.1 39,23.7 39,22.5 C 39,21.31 38.36,19.9 37,19.85 V 25.15 Z M 40,22.5 C 40,24.6 38.66,26 36.54,26 H 36 V 19 H 36.5 C 38.65,19 40,20.34 40,22.5 Z M 32,26 V 19 H 35 V 20 H 33 V 22 H 34.53 V 23 H 33 V 25 H 35 V 26 H 32 Z M 14,36 V 29 H 17 V 30 H 15 V 32 H 16.53 V 33 H 15 V 35 H 17 V 36 H 14 Z M 41,36 V 29 H 44 V 30 H 42 V 32 H 43.53 V 33 H 42 V 35 H 44 V 36 H 41 Z M 30,26 V 19 H 31 V 26 H 30 Z M 22,26 V 19 H 23 V 25 H 25 V 26 H 22 Z M 26,26 V 19 H 27 V 25 H 29 V 26 H 26 Z M 18.5,21.24 L 17.51,24.27 H 19.48 L 18.49,21.24 Z M 19.95,26 L 19.65,25.04 H 17.32 L 17.02,26 H 16 L 18.52,19 L 21,26 H 19.96 Z" fill="rgb(57, 56, 55)"/>
</svg>
