<?xml version="1.0" encoding="UTF-8"?>
<!-- Generated by Pixelmator Pro 3.5.6 -->
<svg width="56" height="56" viewBox="0 0 56 56" xmlns="http://www.w3.org/2000/svg">
    <path id="Path" fill="#f0f3fa" stroke="none" d="M 0 0 L 56 0 L 56 56 L 0 56 Z"/>
    <path id="path1" fill="#31209e" stroke="none" opacity="0.5" d="M 15.737 20.154999 C 11.061 23.693001 10 26.955 10 28.452999 C 10 31.128 11.817 33.929001 13.641 35.993 C 16.408001 39.124001 21.141001 42.383999 25.115999 43.57 C 31.778999 45.556999 38.168999 40.344002 41.104 34.414001 C 38.668999 38.560001 32.207001 37.52 28.507999 35.993999 C 26.386 35.117001 23.968 33.778 21.848 32.099998 C 17.166 28.392 13.499 22.251999 17.975 18.59 C 17.209839 19.083717 16.463322 19.605743 15.737 20.154999 Z"/>
    <linearGradient id="linearGradient1" x1="16.217" y1="20.382" x2="11.872" y2="32.956" gradientUnits="userSpaceOnUse">
        <stop offset="1e-05" stop-color="#02102f" stop-opacity="1"/>
        <stop offset="1" stop-color="#01122c" stop-opacity="1"/>
    </linearGradient>
    <path id="path2" fill="url(#linearGradient1)" stroke="none" d="M 12.348 23.330002 C 13.18 22.327999 14.284 21.254997 15.738 20.154999 C 16.463993 19.605762 17.210176 19.083733 17.975 18.59 C 14.776 21.207001 15.737 25.09 18.254 28.445999 C 17.914 28.804001 17.629999 29.125 17.396999 29.396999 C 16.948851 29.919779 16.542276 30.476812 16.181 31.063 C 14.987 33.061001 14.608 34.423 14.603 35.412998 C 14.598 36.452999 15.003 37.103001 15.318 37.606998 L 15.435 37.797001 C 14.804259 37.229137 14.205348 36.626888 13.641 35.993 C 13.408035 35.72937 13.181306 35.460297 12.961 35.186001 C 11.391 33.230999 10 30.794001 10 28.452999 C 10 28.266001 10.017 28.051001 10.055 27.811001 C 10.227 26.731001 10.838 25.146999 12.348 23.329002 Z"/>
    <linearGradient id="linearGradient2" x1="27.123" y1="15.292" x2="17.507" y2="26.956" gradientUnits="userSpaceOnUse">
        <stop offset="1e-05" stop-color="#05a0cd" stop-opacity="1"/>
        <stop offset="0.143" stop-color="#1197d1" stop-opacity="1"/>
        <stop offset="1" stop-color="#034d78" stop-opacity="1"/>
    </linearGradient>
    <path id="path3" fill="url(#linearGradient2)" stroke="none" d="M 18.254 28.445999 C 19.407 27.228001 21.186001 25.573999 23.643999 23.908001 C 24.348 21.404999 25.355 18.848 26.75 16.791 C 27.691 15.403 28.667999 14.237 30.337999 13.387001 C 29.932798 13.469791 29.529976 13.563828 29.129999 13.668999 C 25.253 14.679001 21.400999 16.378998 17.975 18.59 C 14.776 21.207001 15.737 25.09 18.254 28.445999 Z"/>
    <g id="Group" opacity="0.5">
        <path id="path4" fill="#076a2e" stroke="none" d="M 15.86 38.173 L 15.86 38.173 Z M 25.489 43.673 C 25.364037 43.640633 25.239683 43.605961 25.115999 43.569 C 22.101 42.669998 18.649 40.577 15.95 38.251999 L 15.86 38.174 C 17.379 39.352001 19.499001 39.381001 21.315001 39.179001 C 21.785 39.126999 22.261999 39.056999 22.740999 38.971001 C 23.528999 42.088001 24.941 43.363998 25.489 43.673 Z"/>
    </g>
    <linearGradient id="linearGradient3" x1="33.571" y1="13.681" x2="42.174" y2="18.166" gradientUnits="userSpaceOnUse">
        <stop offset="1e-05" stop-color="#43a95c" stop-opacity="1"/>
        <stop offset="1" stop-color="#1c9443" stop-opacity="1"/>
    </linearGradient>
    <path id="path5" fill="url(#linearGradient3)" stroke="none" d="M 31.992001 13.118 C 31.802 13.140999 31.612 13.166 31.422001 13.195 C 33.453999 13.264 34.869999 15.455002 35.536999 18.704002 C 35.967999 18.626999 36.403 18.563999 36.839001 18.514 C 41.712002 17.960999 43.291 19.646 43.831001 21.271 C 43.738377 20.701508 43.608768 20.138649 43.443001 19.585999 C 42.724998 17.190002 40.752998 13.334 34.769001 13.02 C 34.352352 12.99868 33.93502 12.994011 33.518002 13.006001 C 33.005001 13.021 32.497002 13.058998 31.992001 13.118 Z"/>
    <linearGradient id="linearGradient4" x1="34.352" y1="16.495" x2="24.408" y2="22.259" gradientUnits="userSpaceOnUse">
        <stop offset="1e-05" stop-color="#74c598" stop-opacity="1"/>
        <stop offset="0.685" stop-color="#dcebf1" stop-opacity="1"/>
        <stop offset="1" stop-color="#92bdd1" stop-opacity="1"/>
    </linearGradient>
    <path id="path6" fill="url(#linearGradient4)" stroke="none" d="M 30.337999 13.388 C 28.667999 14.237 27.691 15.403 26.75 16.791 C 25.355 18.848 24.348 21.404999 23.645 23.909 C 26.027 22.293999 29.047001 20.668999 32.754002 19.416 C 33.662655 19.109734 34.592907 18.871742 35.536999 18.704002 C 34.869999 15.456001 33.453999 13.264 31.422001 13.195 C 31.062559 13.269543 30.70108 13.3339 30.337999 13.388 Z"/>
    <linearGradient id="linearGradient5" x1="43.997" y1="25.584" x2="33.717" y2="36.267" gradientUnits="userSpaceOnUse">
        <stop offset="1e-05" stop-color="#01a3db" stop-opacity="1"/>
        <stop offset="0.472" stop-color="#227fb4" stop-opacity="1"/>
        <stop offset="1" stop-color="#196285" stop-opacity="1"/>
    </linearGradient>
    <path id="path7" fill="url(#linearGradient5)" stroke="none" d="M 26.893 43.933998 C 32.191002 44.540001 37.129002 40.863998 40.051998 36.277 C 40.470001 35.622002 40.846001 34.948002 41.176998 34.265999 C 42.118999 32.320999 44.07 27.6 43.998001 23.139999 C 43.992622 22.80608 43.974277 22.472496 43.943001 22.139999 C 43.838001 24.507 42.647999 26.336 41.386002 27.936001 C 39.674999 30.167 37.139999 32.381001 34.221001 34.252998 C 34.139576 34.504967 34.055237 34.755985 33.967999 35.006001 C 32.169998 40.158001 29.332001 43.933998 26.893 43.933998 Z"/>
    <linearGradient id="linearGradient6" x1="39.088" y1="18.42" x2="34.687" y2="33.263" gradientUnits="userSpaceOnUse">
        <stop offset="1e-05" stop-color="#65bf88" stop-opacity="1"/>
        <stop offset="0.634" stop-color="#c4e3ef" stop-opacity="1"/>
        <stop offset="1" stop-color="#7caec3" stop-opacity="1"/>
    </linearGradient>
    <path id="path8" fill="url(#linearGradient6)" stroke="none" d="M 36.847 18.5 C 41.664001 17.952999 43.261002 19.620003 43.82 21.228001 C 43.831001 21.261002 43.84 21.291 43.845001 21.326 C 43.868999 21.490997 43.916 21.882999 43.938999 22.066002 C 43.951 22.163002 43.949001 22.188 43.943001 22.289001 C 43.799999 24.59 42.632 26.379 41.393002 27.948999 C 39.682999 30.18 37.147999 32.394001 34.228001 34.265999 C 35.127167 31.459463 35.687805 28.555552 35.897999 25.615999 C 36.082001 23.061001 35.960999 20.695999 35.543999 18.700001 C 35.976002 18.623001 36.41 18.549999 36.847 18.5 Z"/>
    <linearGradient id="linearGradient7" x1="23.642" y1="24.825" x2="20.754" y2="30.768" gradientUnits="userSpaceOnUse">
        <stop offset="1e-05" stop-color="#81d1ef" stop-opacity="1"/>
        <stop offset="0.513" stop-color="#a2d8f0" stop-opacity="1"/>
        <stop offset="1" stop-color="#78b0cb" stop-opacity="1"/>
    </linearGradient>
    <path id="path9" fill="url(#linearGradient7)" stroke="none" d="M 18.254 28.445999 C 19.259001 29.785999 20.511999 31.042 21.848 32.099998 C 21.975 32.200001 22.103001 32.299999 22.232 32.397999 C 22.277 31.534 22.360001 30.608999 22.487 29.618999 C 22.701 27.948999 23.072001 25.945999 23.645 23.909 C 23.490999 24.011999 23.34 24.115999 23.191999 24.219999 C 20.966 25.780001 19.334999 27.304001 18.254 28.445999 Z"/>
    <linearGradient id="linearGradient8" x1="20.285" y1="30.86" x2="18.539" y2="39.25" gradientUnits="userSpaceOnUse">
        <stop offset="1e-05" stop-color="#08496c" stop-opacity="1"/>
        <stop offset="1" stop-color="#003557" stop-opacity="1"/>
    </linearGradient>
    <path id="path10" fill="url(#linearGradient8)" stroke="none" d="M 22.232 32.397999 C 22.103022 32.299934 21.975016 32.200596 21.848 32.099998 C 20.511999 31.042 19.257999 29.785999 18.254 28.445999 C 17.914 28.804001 17.629999 29.125 17.396999 29.396999 C 16.948792 29.919733 16.542215 30.47677 16.181 31.063 C 14.987 33.061001 14.608 34.423 14.603 35.412998 C 14.598 36.452999 15.003 37.103001 15.318 37.606998 C 15.503 37.903 15.754 38.105 16.032 38.300999 C 17.555 39.369999 19.555 39.375 21.315001 39.179001 C 21.79253 39.125664 22.268131 39.056293 22.740999 38.971001 C 22.326 37.331001 22.084 35.182999 22.231001 32.397999 Z"/>
    <linearGradient id="linearGradient9" x1="22.931" y1="33.747" x2="28.776" y2="36.5" gradientUnits="userSpaceOnUse">
        <stop offset="1e-05" stop-color="#6299b5" stop-opacity="1"/>
        <stop offset="1" stop-color="#badee6" stop-opacity="1"/>
    </linearGradient>
    <path id="path11" fill="url(#linearGradient9)" stroke="none" d="M 28.507999 35.993 C 28.988001 36.191002 29.511999 36.380001 30.068001 36.551998 C 27.67 37.681999 25.164 38.535 22.740999 38.971001 C 22.326 37.331001 22.084 35.182999 22.231001 32.397999 C 24.164106 33.85511 26.273035 35.06295 28.507999 35.993 Z"/>
    <linearGradient id="linearGradient10" x1="19.894" y1="39.486" x2="23.801" y2="42.934" gradientUnits="userSpaceOnUse">
        <stop offset="1e-05" stop-color="#010d25" stop-opacity="1"/>
        <stop offset="1" stop-color="#01122e" stop-opacity="1"/>
    </linearGradient>
    <path id="path12" fill="url(#linearGradient10)" stroke="none" d="M 22.74 38.970001 C 22.261999 39.056999 21.785999 39.126999 21.315001 39.18 C 19.499001 39.381001 17.379 39.352001 15.86 38.174 L 15.86 38.174 L 15.95 38.251999 C 18.65 40.577 22.101 42.669998 25.115999 43.569 C 25.24 43.606998 25.364 43.640999 25.489 43.673 C 24.941999 43.362999 23.528999 42.089001 22.740999 38.971001 Z"/>
    <linearGradient id="linearGradient11" x1="33.891" y1="34.673" x2="30.761" y2="36.646" gradientUnits="userSpaceOnUse">
        <stop offset="1e-05" stop-color="#a7cedf" stop-opacity="1"/>
        <stop offset="1" stop-color="#7caec3" stop-opacity="1"/>
    </linearGradient>
    <path id="path13" fill="url(#linearGradient11)" stroke="none" d="M 33.098 37.214001 C 33.525394 36.247948 33.900272 35.259506 34.221001 34.252998 C 32.887955 35.107655 31.501066 35.875256 30.069 36.550999 C 31.011999 36.841 32.044998 37.078999 33.098 37.214001 Z"/>
    <linearGradient id="linearGradient12" x1="31.759" y1="37.709" x2="24.313" y2="40.044" gradientUnits="userSpaceOnUse">
        <stop offset="1e-05" stop-color="#3379ac" stop-opacity="1"/>
        <stop offset="1" stop-color="#0f3d60" stop-opacity="1"/>
    </linearGradient>
    <path id="path14" fill="url(#linearGradient12)" stroke="none" d="M 26.893 43.933998 C 28.968 43.933998 31.330999 41.202 33.098 37.214001 C 32.07111 37.078842 31.057495 36.857052 30.068001 36.550999 C 27.67 37.681999 25.164 38.535 22.740999 38.971001 L 22.775999 39.109001 C 23.368999 41.360001 24.288 42.623001 24.938999 43.245998 C 25.160999 43.458 25.351999 43.596001 25.489 43.673 C 25.959 43.794998 26.427 43.881001 26.892 43.933998 Z"/>
    <linearGradient id="linearGradient13" x1="37.532" y1="37.375" x2="28.581" y2="43.65" gradientUnits="userSpaceOnUse">
        <stop offset="1e-05" stop-color="#054682" stop-opacity="1"/>
        <stop offset="1" stop-color="#012146" stop-opacity="1"/>
    </linearGradient>
    <path id="path15" fill="url(#linearGradient13)" stroke="none" d="M 40.051998 36.277 C 40.438999 35.668999 40.792 35.044998 41.104 34.414001 C 39.518002 37.113998 36.223999 37.613998 33.098 37.214001 C 31.330999 41.202 28.968 43.933998 26.892 43.933998 C 27.649 44.021 28.399 44.02 29.136 43.942001 C 30.816 43.763 32.431999 43.181999 33.929001 42.314999 C 36.373001 40.896999 38.498001 38.715 40.051998 36.277 Z"/>
</svg>
