<!-- by Finnhub --><svg width="56" height="56" viewBox="0 0 56 56" xmlns="http://www.w3.org/2000/svg"><path fill="#F0F3FA" d="M0 0h56v56H0z"/><path d="M19.77 17h1.46L23 23h-1.33l-.33-1.32H19.6L19.27 23H18l1.77-6Zm1.33 3.67-.61-2.42h-.04l-.6 2.42h1.25ZM24 19h.84l.04.66h.04c.15-.45.59-.66 1.08-.66.48 0 .78.22.89.66h.04c.16-.45.5-.66 1.02-.66.72 0 1.05.39 1.05 1.22V23h-1v-2.62c0-.26-.24-.38-.5-.38-.31 0-.5.18-.5.5V23h-1v-2.62c0-.26-.1-.38-.37-.38-.32 0-.63.18-.63.5V23h-1v-4Zm8.05 4c-1.24 0-2.05-.77-2.05-2.02 0-1.28.7-1.98 1.99-1.98 1.18 0 2.01.73 2.01 1.94 0 .12 0 .23-.02.32h-3c.06.65.53.9 1.1.9.31 0 .63-.25.75-.54h1.13a1.93 1.93 0 0 1-1.9 1.38Zm.95-2.23c-.08-.55-.5-.93-1-.93s-.92.38-1 .93h2ZM27.05 30c-1.24 0-2.05-.77-2.05-2.02 0-1.28.7-1.98 1.99-1.98 1.18 0 2.01.73 2.01 1.94 0 .12 0 .23-.02.32h-3c.06.65.53.9 1.1.9.31 0 .63-.25.75-.54h1.13a1.93 1.93 0 0 1-1.9 1.38Zm.95-2.23c-.08-.55-.5-.93-1-.93s-.92.38-1 .93h2ZM44.05 30c-1.24 0-2.05-.77-2.05-2.02 0-1.28.7-1.98 1.99-1.98 1.18 0 2.01.73 2.01 1.94 0 .12 0 .23-.02.32h-3c.06.65.53.9 1.1.9.31 0 .63-.25.75-.54h1.13a1.93 1.93 0 0 1-1.9 1.38Zm.95-2.23c-.08-.55-.5-.93-1-.93s-.92.38-1 .93h2ZM35 19h.93l.04.73H36c.17-.48.43-.73.93-.73.7 0 1.07.48 1.07 1.34V23h-1v-2.46c0-.34-.1-.54-.41-.54-.39 0-.59.28-.59.77V23h-1v-4Zm-8 15h.93l.04.73H28c.17-.48.43-.73.93-.73.7 0 1.07.48 1.07 1.34V38h-1v-2.46c0-.34-.1-.54-.41-.54-.39 0-.59.28-.59.77V38h-1v-4ZM6 24h1.96c1.33 0 2.04.65 2.04 1.89C10 27.12 9.3 28 7.96 28H7v2H6v-6Zm2.08 3c.65 0 .92-.54.92-1.11 0-.58-.27-.89-.92-.89H7v2h1.08ZM17 30c-1.3 0-2-.7-2-2s.7-2 2-2 2 .7 2 2-.7 2-2 2Zm0-1c.57 0 1-.23 1-1 0-.78-.43-1-1-1-.56 0-1 .22-1 1s.44 1 1 1Zm3-3h1v.76c.2-.5.75-.76 1.33-.76 1.18 0 1.67.96 1.67 2s-.49 2-1.67 2c-.57 0-1.14-.24-1.33-.71V32h-1v-6Zm2 3.06c.52 0 1-.24 1-1.06 0-.83-.48-1-1-1s-1 .29-1 1.05v.17c0 .76.48.84 1 .84ZM38 29h1v-2h-1v-1h2v3h1v1h-3v-1Zm11.01 1c-.63 0-1.12-.1-1.47-.32a1.04 1.04 0 0 1-.54-.9h1.16a.4.4 0 0 0 .22.33c.14.07.35.1.65.1.26 0 .46-.03.6-.1.13-.08.2-.19.2-.32 0-.11-.05-.2-.13-.25a1.03 1.03 0 0 0-.42-.11l-.68-.08c-.34-.04-.62-.1-.83-.2a.92.92 0 0 1-.47-.36 1 1 0 0 1-.14-.57 1 1 0 0 1 .21-.65c.15-.18.36-.32.63-.42.27-.1.6-.15.98-.15.58 0 1.04.1 1.36.3.33.2.5.5.51.88h-1.13c0-.26-.23-.4-.7-.4-.23 0-.4.04-.52.1a.31.31 0 0 0-.17.3c0 .1.04.19.12.24.08.06.23.1.43.12l.66.08c.35.04.63.1.85.2.2.08.36.2.46.35.1.16.15.35.15.58 0 .26-.08.49-.24.68-.15.18-.38.33-.68.43-.3.1-.65.14-1.07.14ZM23 37h1v-4h-1v-1h3v1h-1v4h1v1h-3v-1Zm9.52 1c-.99 0-1.52-.7-1.52-2s.53-2 1.52-2c.83 0 1.34.49 1.48 1.4h-.91c-.1-.37-.27-.4-.57-.4-.42 0-.52.22-.52 1s.1 1 .52 1c.3 0 .48-.04.57-.4H34c-.14.91-.65 1.4-1.48 1.4ZM14.3 26c-.24 0-.9.14-1.3.65V26h-2v1h1v2h-1v1h3v-1h-1v-1.4a1.7 1.7 0 0 1 1.3-.57V26Zm19.04 0c-.24 0-.93.14-1.34.65V26h-2v1h1v2h-1v1h3v-1h-1v-1.4a1.8 1.8 0 0 1 1.34-.57V26ZM36 27v2h1v1h-1.1c-.5 0-.9-.36-.9-.8V27h-1v-1h1v-1h1v1h1v1h-1Z" fill="#E0003D"/><circle cx="39.5" cy="24.5" r=".5" fill="#E0003D"/></svg>