<?xml version="1.0" encoding="UTF-8"?>
<!-- generated by Finnhub -->
<svg viewBox="0 0 55.5 55.5" xmlns="http://www.w3.org/2000/svg">
<path d="M 0,0 H 55.5 V 55.5 H 0 Z" fill="rgb(239, 242, 248)"/>
<path d="M 43.99,21.985 H 33 V 38 H 44 V 22 Z M 34,30 V 36 H 36.77 C 37.25,36 37.67,35.93 37.99,35.78 C 38.32,35.64 38.57,35.44 38.74,35.19 C 38.91,34.94 39,34.66 39,34.34 A 1.4,1.4 0 0,0 38.27,33.08 A 1.54,1.54 0 0,0 37.57,32.88 V 32.83 C 37.8,32.78 38,32.7 38.17,32.59 C 38.35,32.48 38.49,32.33 38.59,32.16 A 1.36,1.36 0 0,0 38.5,30.75 C 38.35,30.51 38.1,30.33 37.79,30.2 C 37.47,30.07 37.07,30 36.59,30 H 34 Z M 36.49,34.96 H 35.37 V 33.36 H 36.52 C 36.74,33.36 36.92,33.41 37.09,33.48 C 37.25,33.55 37.37,33.65 37.46,33.78 C 37.54,33.9 37.59,34.05 37.59,34.22 C 37.59,34.44 37.49,34.62 37.32,34.76 S 36.87,34.96 36.49,34.96 Z M 36.39,32.51 H 35.37 V 31.03 H 36.41 C 36.71,31.03 36.95,31.09 37.11,31.23 C 37.28,31.36 37.36,31.53 37.36,31.75 C 37.36,31.91 37.32,32.05 37.23,32.15 C 37.15,32.27 37.03,32.35 36.89,32.42 C 36.74,32.48 36.57,32.52 36.39,32.52 Z" fill="gray" fill-rule="evenodd"/>
<path d="M 32.99,26.985 H 24 V 38 H 33 V 27 Z M 26.68,30 H 25 V 36 H 26.32 V 32.08 L 28.05,35.98 H 28.95 L 30.68,32.09 V 36 H 32 V 30 H 30.32 L 28.5,34 L 26.68,30 Z" fill="rgb(0, 0, 3)" fill-rule="evenodd"/>
<path d="M 23.99,26.985 H 12 V 43 H 24 V 27 Z M 17,36 H 18.41 L 18.87,34.63 H 21.13 L 21.59,36 H 23 L 20.85,30 H 19.15 L 17,36 Z M 20.8,33.64 L 20.03,31.37 H 19.98 L 19.21,33.64 H 20.79 Z" fill="rgb(46, 39, 170)" fill-rule="evenodd"/>
<path d="M 25.83,9.035 C 26.08,9.08 25.99,9.25 25.96,9.35 C 25.92,9.5 25.76,10.04 25.36,10 L 25.28,9.99 C 25.16,9.98 25.08,9.89 25.03,9.76 A 0.9,0.9 0 0,1 25.03,9.26 C 25.06,9.16 25.06,8.98 25.31,9 L 25.84,9.05 Z M 23.71,9.98 L 23.07,9.54 A 0.16,0.16 0 0,1 23.05,9.31 L 23.32,9.04 A 0.14,0.14 0 0,1 23.52,9.06 L 23.97,9.62 C 24,9.67 24.01,9.73 23.98,9.79 L 23.92,9.92 A 0.14,0.14 0 0,1 23.72,9.98 Z M 27,10.64 C 27.03,10.84 26.9,11.04 26.74,10.99 L 26.32,10.89 C 25.92,10.79 25.89,10.59 26.23,10.29 A 4,4 0 0,1 26.56,10.02 C 26.6,9.99 26.65,9.99 26.7,10.03 C 26.85,10.16 26.95,10.36 27,10.64 Z M 26.12,13.1 C 26.3,13.65 26.62,14.05 26.82,14 C 27.03,13.94 27.06,13.45 26.88,12.9 S 26.38,11.95 26.18,12 C 25.97,12.06 25.94,12.55 26.12,13.1 Z M 23.77,23.6 C 23.65,23.3 23.59,22.98 23.6,22.61 C 23.65,21.41 23.66,20.19 23.62,18.98 C 23.62,18.71 23.44,18.44 23.24,18.25 A 5.62,5.62 0 0,1 22.14,16.81 A 5.72,5.72 0 0,0 21.14,15.48 C 20.99,15.32 20.76,15.52 20.62,15.61 C 19.66,16.26 18.75,16.97 17.8,17.59 C 17.36,17.88 16.92,18.19 16.48,18.5 C 16.35,18.6 16.28,18.74 16.28,18.92 C 16.24,19.52 16.23,20.06 16.23,20.58 C 16.24,21.54 16.18,22.49 16.13,23.44 C 16.13,23.55 16.11,23.67 16.07,23.79 C 16.03,23.89 15.91,23.91 15.84,23.84 C 15.64,23.63 15.36,23.4 15.39,23.08 C 15.44,22.66 15.46,22.24 15.47,21.83 C 15.47,21.32 15.55,20.86 15.54,20.34 L 15.52,19.41 C 15.52,19.32 15.42,19.27 15.34,19.31 L 14.99,19.47 A 0.25,0.25 0 0,1 14.66,19.35 C 14.57,19.15 14.69,18.94 14.85,18.81 C 15.51,18.27 16.2,17.75 16.86,17.21 C 17.48,16.68 18.06,16.24 18.74,15.67 C 19.11,15.36 19.51,15.09 19.92,14.87 C 20.32,14.66 20.54,14.37 20.79,14.04 A 0.1,0.1 0 0,1 20.92,14.02 L 20.95,14.05 C 21.08,14.32 21.28,14.59 21.53,14.77 C 22.07,15.17 22.19,15.74 22.6,16.2 A 181.2,181.2 0 0,0 25.82,19.8 C 26.09,20.09 26.02,20.4 25.88,20.73 C 25.78,21 25.63,21.02 25.44,20.79 A 7.72,7.72 0 0,0 24.74,20.03 C 24.63,19.93 24.52,19.55 24.35,19.53 C 24.31,19.53 24.27,19.55 24.27,19.6 C 24.34,21.04 24.36,22.35 24.31,23.53 C 24.31,23.61 24.36,23.69 24.44,23.73 L 24.52,23.74 H 25.14 C 25.19,23.74 25.24,23.78 25.24,23.83 L 25.25,24.2 C 25.26,24.42 24.81,24.78 24.57,24.81 C 24.41,24.83 24.28,24.74 24.15,24.67 L 23.11,24.74 C 21.84,24.82 20.56,24.7 19.31,24.57 A 1.77,1.77 0 0,0 18.93,24.57 C 17.68,24.73 16.29,24.78 15.09,25.21 C 14.51,25.41 13.97,25.67 13.47,25.96 C 13.37,26.02 12.83,26.03 13.06,25.84 A 10.5,10.5 0 0,1 15.06,24.44 C 15.86,24.06 16.74,23.81 17.71,23.68 C 18.05,23.63 18.85,23.4 19.15,23.49 C 19.31,23.54 19.48,23.6 19.65,23.55 C 20.19,23.38 20.55,23.62 21.06,23.62 C 21.94,23.62 22.82,23.69 23.72,23.68 C 23.78,23.68 23.8,23.65 23.77,23.6 Z M 24.86,14.19 L 25,15.64 C 25,15.71 24.95,15.78 24.85,15.82 L 24.46,15.97 C 24.26,16.05 24,15.95 24,15.8 V 14.27 C 24,14.23 24.02,14.2 24.06,14.17 A 0.3,0.3 0 0,1 24.18,14.09 L 24.42,14.02 C 24.62,13.96 24.85,14.05 24.86,14.19 Z" fill="rgb(7, 44, 95)"/>
<path d="M 24.2,12.665 L 23.61,12.89 C 23.38,12.97 23.18,13.17 23.03,13.38 C 22.96,13.48 23.02,13.61 23.11,13.64 C 23.34,13.7 23.54,13.64 23.7,13.5 C 23.87,13.33 24.2,13.32 24.41,13.26 C 24.45,13.25 24.48,13.26 24.51,13.3 L 24.79,13.82 C 24.89,14 25.08,14 25.25,14 H 25.33 C 25.38,14 25.43,13.98 25.46,13.93 C 26.03,13.1 26.08,12.4 25.93,11.4 C 25.87,11 25.42,9.6 24.82,10.1 L 24.44,10.41 A 0.18,0.18 0 0,0 24.37,10.53 A 7.6,7.6 0 0,0 24.3,12.51 C 24.31,12.58 24.27,12.66 24.21,12.68 Z M 24.81,12.21 C 24.81,12.61 24.94,12.98 25.1,13.32 C 25.13,13.39 25.2,13.42 25.26,13.37 C 25.74,12.95 25.47,11.69 25.36,11.13 C 25.3,10.87 25.19,10.69 25.02,10.6 C 24.9,10.53 24.75,10.64 24.76,10.8 L 24.8,12.2 Z" fill="rgb(7, 44, 95)" fill-rule="evenodd"/>
</svg>
