<?xml version="1.0" encoding="UTF-8"?>
<!-- generated by Finnhub -->
<svg viewBox="0 0 55.5 55.5" xmlns="http://www.w3.org/2000/svg">
<rect width="56" height="56" fill="rgb(239, 242, 248)"/>
<path d="M 20.567999999999998,23.937 C 18.1562,18.4052 19.6675,13.13 24.5677,10.014 C 24.5783,10.0071 24.5901,10.0027 24.6023,10.001 C 24.6146,9.99928 24.6271,10.0004 24.6389,10.0041 C 24.6508,10.0079 24.6618,10.0143 24.6711,10.0229 C 24.6805,10.0315 24.6881,10.0421 24.6933,10.054 C 27.0754,15.6119 25.6604,20.854 20.7036,23.992 C 20.6478,24.0276 20.6059,24.0142 20.578,23.9519 Z" fill="rgb(8, 72, 115)"/>
<path d="M 38.635000000000005,26.479 C 42.9277,28.8115 44.9854,33.3397 45.9964,38.128 C 46.0046,38.1684 45.9994,38.2104 45.9819,38.2469 C 45.9643,38.2834 45.9354,38.3122 45.9001,38.3282 C 41.5923,40.3032 36.8511,40.1386 32.9621,37.2073 C 31.4857,36.0967 30.019,34.9699 28.5621,33.8267 C 24.9052,30.9532 21.0684,29.8768 16.6141,29.5009 C 16.5248,29.4935 16.5136,29.4587 16.5806,29.3964 C 22.7975,23.6383 31.2706,22.5018 38.6456,26.494 Z" fill="rgb(126, 188, 64)"/>
<path d="M 33.678000000000004,41.847 C 24.7646,42.765 15.69,39.1598 9.026,33.0525 C 9.01472,33.042 9.00667,33.0282 9.00285,33.0128 C 8.99904,32.9973 8.99965,32.9811 9.00459,32.966 C 9.00954,32.951 9.0186,32.9378 9.03062,32.9283 C 9.04264,32.9187 9.05706,32.9132 9.07205,32.9124 C 18.5516,32.3297 26.8601,35.2781 33.9961,41.7575 C 34.0085,41.769 34.0175,41.7841 34.0218,41.801 C 34.0262,41.8178 34.0258,41.8357 34.0206,41.8523 C 34.0155,41.8689 34.0059,41.8835 33.993,41.8944 C 33.98,41.9052 33.9644,41.9117 33.948,41.9132 C 33.9033,41.9176 33.8657,41.911 33.835,41.8932 C 33.7889,41.8665 33.7401,41.8561 33.6884,41.862 Z" fill="rgb(126, 188, 64)"/>
</svg>
