<?xml version="1.0" encoding="UTF-8"?>
<!-- generated by Finnhub -->
<svg viewBox="0 0 55.5 55.5" xmlns="http://www.w3.org/2000/svg">
<path d="M 0,0 H 55.5 V 55.5 H 0 Z" fill="rgb(239, 242, 248)"/>
<path d="M 36.5,23.985 H 32.36 L 37.23,18.83 A 3.01,3.01 0 0,0 41,15.96 A 3.01,3.01 0 0,0 34.99,15.96 C 34.99,16.31 35.05,16.64 35.16,16.95 L 25,27 H 37.97 L 27.06,37.5 C 26.45,38.12 26.51,39.13 27.19,39.68 C 27.78,40.15 28.63,40.1 29.16,39.57 L 45,24 H 40.84 L 43.31,21.34 C 43.91,20.75 43.91,19.79 43.31,19.2 C 42.71,18.6 41.74,18.6 41.15,19.2 L 36.5,24 Z M 19.85,32 H 24 L 18.77,37.1 C 18.54,37.03 18.29,37 18.03,37 A 3.08,3.08 0 0,0 15,40.04 A 3.01,3.01 0 0,0 21.01,40.04 C 21.01,39.69 20.95,39.36 20.84,39.05 L 31,29 H 18.32 L 28.94,18.5 C 29.55,17.88 29.49,16.87 28.81,16.32 A 1.49,1.49 0 0,0 26.84,16.43 L 11,32 H 15.53 L 12.69,34.66 C 12.09,35.25 12.09,36.21 12.69,36.8 C 13.29,37.4 14.26,37.4 14.85,36.8 L 19.85,32 Z" fill="url(#a)"/>
<defs>
<linearGradient id="a" x1="45" x2="11" y1="28" y2="28" gradientUnits="userSpaceOnUse">
<stop stop-color="rgb(254, 189, 2)" offset="0"/>
<stop stop-color="rgb(254, 139, 2)" offset="1"/>
</linearGradient>
</defs>
</svg>
