<?xml version="1.0" encoding="UTF-8"?>
<!-- generated by Finnhub -->
<svg viewBox="0 0 55.5 55.5" xmlns="http://www.w3.org/2000/svg">
<path d="M 0,0 H 55.5 V 55.5 H 0 Z" fill="rgb(239, 242, 248)"/>
<path d="M 30.93,15.125 L 30.92,14.59 C 30.92,14.47 30.97,14.42 31.08,14.43 C 31.11,14.43 31.14,14.45 31.17,14.47 C 31.24,14.53 31.31,14.52 31.37,14.44 C 31.53,14.24 31.58,14.01 31.54,13.74 C 31.53,13.64 31.48,13.61 31.38,13.62 C 31.1,13.67 30.92,13.8 30.84,14.02 C 30.8,14.17 30.67,14.11 30.62,14 C 30.52,13.79 30.42,13.79 30.3,14 C 29.99,14.62 29.67,14.78 29.35,14.48 A 2.16,2.16 0 0,1 29.18,14.29 C 29.08,14.17 29.01,14.19 28.97,14.33 L 28.77,15.07 C 28.67,15.4 28.57,15.41 28.43,15.09 A 0.95,0.95 0 0,0 28.13,14.71 A 0.3,0.3 0 0,1 28,14.46 C 28,14.1 27.97,13.76 28.14,13.43 C 28.44,12.85 28.69,12.02 29.21,11.62 C 29.56,11.35 29.35,13.64 29.5,13.88 C 29.58,14 29.76,13.99 29.83,13.87 C 30.47,12.68 30.93,11.4 31.2,10.01 C 31.25,9.81 31.26,11.84 31.23,12.13 C 31.2,12.31 31.25,12.33 31.38,12.19 A 3.94,3.94 0 0,1 33.38,10.9 C 33.76,10.8 33.83,10.9 33.57,11.22 C 33.21,11.65 32.98,12.12 32.87,12.62 C 32.83,12.87 32.89,12.9 33.07,12.72 C 33.67,12.11 34.39,11.8 35.23,11.8 C 35.53,11.8 35.55,11.88 35.3,12.03 C 34.98,12.23 34.71,12.46 34.5,12.73 C 34.3,13 34.36,13.08 34.68,12.98 A 4,4 0 0,1 35.7,12.79 C 36.07,12.77 36.1,12.86 35.77,13.05 L 35.18,13.42 C 35,13.53 35.01,13.61 35.23,13.64 C 35.45,13.68 35.67,13.72 35.89,13.74 C 35.96,13.76 35.99,13.79 35.99,13.86 C 35.99,13.96 35.94,14.01 35.85,14.03 C 35.58,14.1 35.37,14.23 35.21,14.43 C 35.12,14.54 35.05,14.53 35.01,14.38 A 0.36,0.36 0 0,1 35.01,14.23 C 35.03,14.1 34.98,14.06 34.86,14.1 L 34.62,14.2 C 34.19,14.36 34.61,13.52 34.35,13.58 A 0.7,0.7 0 0,0 33.82,14.05 C 33.8,14.11 33.76,14.13 33.7,14.1 A 0.27,0.27 0 0,1 33.55,13.84 C 33.55,13.67 33.55,13.49 33.57,13.3 C 33.59,13.13 33.53,13.1 33.4,13.22 C 33.26,13.34 33.16,13.49 33.09,13.68 C 33.05,13.78 32.98,13.81 32.88,13.75 A 0.97,0.97 0 0,1 32.48,13.28 C 32.36,12.99 32.24,12.99 32.12,13.28 C 31.9,13.78 31.82,14.3 31.88,14.84 C 31.89,14.92 32.14,14.99 32.14,14.87 C 32.17,14.42 32.1,13.47 32.72,14.24 C 32.91,14.48 32.9,14.94 33.83,15.54 A 0.2,0.2 0 0,0 33.93,15.54 C 34.3,15.47 34.61,15.47 34.87,15.54 C 35.14,15.6 35.14,15.66 34.87,15.69 C 34.03,15.79 33.44,16.13 33.1,16.72 C 33.04,16.81 33,16.81 32.94,16.72 A 0.38,0.38 0 0,1 32.9,16.47 A 4,4 0 0,1 32.95,16.15 C 33.02,15.87 32.94,15.82 32.72,16.02 C 32.45,16.27 32.23,16.54 32.07,16.84 C 31.85,17.27 31.73,17.24 31.71,16.76 L 31.69,16.17 C 31.69,16.03 31.63,16.01 31.52,16.1 C 30.94,16.6 30.66,17.2 30.66,17.94 C 30.66,18.05 30.43,17.98 30.41,17.9 C 30.39,17.81 30.28,16.73 29.96,16.96 L 29.53,17.26 C 29.46,17.31 29.37,17.26 29.35,17.19 A 7.7,7.7 0 0,1 29.1,14.97 C 29.1,14.77 29.18,14.74 29.32,14.87 C 29.73,15.21 30,15.21 30.34,14.7 C 30.48,14.49 30.58,14.5 30.62,14.76 C 30.65,14.92 30.72,15.06 30.8,15.19 C 30.9,15.34 30.95,15.32 30.94,15.14 Z M 21.95,13.42 A 2.88,2.88 0 0,0 20.97,12.51 C 20.32,12.13 20.37,11.99 21.12,12.08 C 21.67,12.15 22.12,12.28 22.51,12.47 C 23.41,12.93 23.53,12.78 22.84,12.04 A 9.03,9.03 0 0,0 20.48,10.25 C 20.44,10.23 20.53,10.09 20.61,10.12 C 22.01,10.73 23.21,11.52 24.16,12.47 C 24.96,13.27 25.08,13.18 24.5,12.21 A 8.05,8.05 0 0,0 23.04,10.45 C 22.99,10.4 23.15,10.29 23.22,10.35 C 24.1,11.03 24.84,11.81 25.43,12.67 C 25.67,13.01 25.74,12.98 25.67,12.58 A 7.78,7.78 0 0,0 25.11,10.83 C 25.09,10.77 25.18,10.7 25.21,10.77 C 25.81,11.74 26.34,12.73 26.82,13.75 C 26.92,13.97 26.98,13.96 26.98,13.72 A 7,7 0 0,0 26.77,12.06 C 26.67,11.7 26.73,11.68 26.93,12 C 27.59,13.07 27.65,14.2 27.11,15.4 C 26.94,15.78 26.81,15.77 26.73,15.36 A 2.15,2.15 0 0,0 26.5,14.73 C 26.41,14.58 26.37,14.59 26.36,14.76 L 26.35,15.21 C 26.35,15.34 26.19,15.55 26.11,15.35 A 4.55,4.55 0 0,0 24.52,13.49 C 24.39,13.39 24.34,13.43 24.37,13.59 C 24.39,13.69 24.41,13.82 24.41,13.94 C 24.43,14.19 24.35,14.23 24.16,14.05 A 2.8,2.8 0 0,0 23.12,13.4 C 22.97,13.35 22.92,13.4 22.99,13.55 C 23.17,13.97 23.32,14.41 23.43,14.85 C 23.5,15.17 23.43,15.21 23.19,14.99 A 2.08,2.08 0 0,0 21.76,14.43 C 21.68,14.43 21.63,14.5 21.64,14.57 C 21.72,14.93 21.71,15.3 21.62,15.67 A 0.14,0.14 0 0,1 21.42,15.76 A 6,6 0 0,0 17.02,15.5 C 16.65,15.6 16.59,15.52 16.86,15.24 C 17.56,14.52 19.76,14.42 20.71,14.47 C 20.85,14.48 20.89,14.43 20.8,14.31 A 5.14,5.14 0 0,0 18.13,12.38 C 18.03,12.35 18.18,12.2 18.24,12.21 C 19.54,12.41 20.73,12.84 21.84,13.53 C 22.04,13.66 22.08,13.63 21.95,13.43 Z M 29.62,19.66 C 29.76,19.69 29.76,19.86 29.65,19.92 C 29.41,20.07 29.22,20.25 29.08,20.46 C 28.84,20.86 29.86,20.6 29.48,20.86 C 29.05,21.16 28.85,21.58 28.86,22.11 C 28.86,22.24 28.93,22.27 29.06,22.21 C 29.3,22.08 29.56,22.01 29.82,21.96 C 30,21.93 30.05,21.99 29.95,22.12 A 9.32,9.32 0 0,0 28.35,25.93 C 28.33,26 28.13,26.03 28.15,25.97 C 28.28,25.3 28.27,24.63 28.1,23.95 C 27.96,23.41 28.04,22.88 28,22.33 C 27.99,22.11 28.39,22.13 28.35,21.99 C 28.26,21.63 28.03,21.32 28.02,20.94 C 28.02,19.44 27.98,17.96 28.02,16.47 C 28.03,15.9 28.22,15.85 28.6,16.33 C 29.14,17.03 29.38,17.9 29.31,18.93 C 29.31,19.13 29.53,19.07 29.66,19.15 C 29.98,19.33 29.22,19.57 29.62,19.65 Z M 18.41,22.6 C 18.07,22.9 17.89,23.28 17.86,23.73 C 17.86,23.85 17.76,24 17.62,24 C 17.49,24 17.46,23.94 17.53,23.84 A 0.76,0.76 0 0,0 17.62,23.66 C 17.69,23.46 17.63,23.43 17.45,23.55 C 17.38,23.6 16.89,23.98 17.03,23.7 C 17.37,23.03 17.73,22.79 17.21,22.51 C 17.14,22.48 17.13,22.44 17.19,22.38 C 17.29,22.28 17.32,22.04 17.12,22.02 L 16.55,21.98 C 16.45,21.97 16.41,21.88 16.43,21.78 C 16.46,21.68 16.52,21.67 16.6,21.75 C 16.7,21.85 16.87,21.85 16.89,21.67 C 16.89,21.53 16.7,21.49 16.61,21.57 C 16.55,21.64 16.51,21.46 16.61,21.44 A 0.8,0.8 0 0,0 17.03,21.22 C 17.17,21.09 17.14,21.02 16.95,21.03 L 15.05,21.14 C 15.01,21.14 14.98,21.04 15.02,21.02 C 15.48,20.92 15.95,20.8 16.4,20.66 C 16.84,20.53 16.07,20.42 16.2,20.24 C 16.24,20.18 16.29,20.16 16.36,20.18 C 16.57,20.22 16.77,20.24 16.96,20.22 C 17.13,20.2 17.15,20.14 17,20.05 L 15.97,19.43 C 15.88,19.37 15.98,19.18 16.07,19.22 C 16.24,19.32 16.41,19.38 16.6,19.42 C 16.82,19.45 16.85,19.4 16.68,19.26 L 15.99,18.7 C 15.77,18.52 15.81,18.45 16.09,18.47 L 17.09,18.55 C 17.34,18.57 17.49,18.27 17.31,18.1 C 17.17,17.97 17.01,17.87 16.81,17.8 C 16.64,17.74 16.64,17.68 16.81,17.63 C 17.15,17.53 17.5,17.52 17.87,17.62 C 18.02,17.65 18.13,17.48 18,17.39 A 0.79,0.79 0 0,1 17.79,17.17 C 17.72,17.07 17.75,17.02 17.87,17.01 C 18.67,16.96 19.32,17.11 19.84,17.47 C 20.08,17.63 20.05,17.73 19.76,17.77 C 18.76,17.89 17.54,18.34 17.57,19.5 C 17.6,20.55 18.07,21.28 19.01,21.7 C 19.36,21.84 19.35,21.94 18.96,21.98 C 18.64,22.01 18.37,22.13 18.16,22.33 C 18.03,22.47 18.76,22.3 18.41,22.6 Z M 40.38,19.75 C 40.34,20.03 40.25,19.7 40.12,19.75 C 40.03,19.78 39.5,20.64 39.86,20.87 L 40.24,21.13 C 40.41,21.24 40.39,21.32 40.2,21.36 A 0.3,0.3 0 0,0 40.1,21.39 C 39.99,21.46 39.97,21.55 40.04,21.66 C 40.22,21.91 40.42,22.12 40.66,22.28 C 40.7,22.31 40.71,22.34 40.69,22.38 C 40.64,22.48 40.57,22.5 40.48,22.44 C 39.4,21.66 39.28,21.28 39.46,22.33 C 39.48,22.47 39.44,22.49 39.34,22.38 A 1.98,1.98 0 0,0 38.81,21.99 C 38.67,21.92 38.63,21.96 38.69,22.09 C 38.77,22.3 38.88,22.49 39.01,22.67 C 39.43,23.25 39.45,23.42 40.51,23.47 C 40.63,23.47 40.84,23.76 40.71,23.79 L 39.71,24.08 C 39.59,24.11 39.59,24.16 39.69,24.23 C 40.04,24.46 40.43,24.63 40.85,24.73 C 40.99,24.77 41.02,24.85 40.92,24.96 A 0.61,0.61 0 0,1 40.65,25.13 C 40.43,25.2 40.41,25.3 40.6,25.43 C 40.77,25.55 40.96,25.63 41.16,25.71 C 41.26,25.74 41.31,25.84 41.27,25.93 A 0.17,0.17 0 0,1 41.22,26.01 A 0.72,0.72 0 0,1 40.69,26.14 C 40.53,26.13 40.49,26.18 40.6,26.31 C 41.27,27.11 41.7,28.11 41.88,29.28 C 41.88,29.34 41.74,29.43 41.73,29.37 C 41.63,28.94 41.43,28.6 41.12,28.34 C 41.02,28.26 40.95,28.28 40.91,28.39 C 40.51,29.39 39.93,30.17 40.71,31.24 C 40.89,31.48 40.84,31.54 40.56,31.42 A 1.62,1.62 0 0,1 39.52,29.97 C 39.42,28.5 39.73,26.85 39.42,28.85 C 39.19,30.33 39.59,31.52 41.27,31.81 C 41.71,31.88 41.71,31.94 41.26,31.99 C 40.93,32.02 40.57,31.95 40.18,31.79 C 40.05,31.75 40.01,31.79 40.08,31.91 C 40.49,32.73 41.07,33.37 41.8,33.81 C 42.09,33.99 42.06,34.04 41.74,33.97 C 38.64,33.27 39.54,30.3 38.5,28.28 C 38.2,27.7 37.77,27.15 37.94,26.45 C 37.97,26.31 38.04,26.3 38.14,26.41 C 38.17,26.44 40.02,28.33 39.89,27.54 C 39.82,27.11 39.69,26.73 39.48,26.37 C 39.39,26.23 39.43,26.18 39.59,26.23 C 39.8,26.3 39.96,26.44 40.05,26.65 C 40.11,26.8 40.15,26.8 40.15,26.63 C 40.14,26.27 39.98,25.94 39.67,25.65 C 39.47,25.47 39.8,25.24 39.57,25.06 C 37.37,23.46 39.94,24.37 36.9,22.33 C 36.83,22.28 36.91,22.19 36.98,22.23 C 37.22,22.39 38.58,23.29 38.76,22.87 L 38.75,22.85 C 38.15,22.72 37.73,22.43 37.5,21.97 A 0.2,0.2 0 0,1 37.58,21.7 C 38.38,21.26 38.83,20.5 38.91,19.43 C 38.99,18.43 37.91,17.88 37.02,17.86 C 36.68,17.86 36.32,17.67 36.07,17.46 C 35.94,17.35 36,17.13 36.17,17.11 A 7.16,7.16 0 0,1 39.07,17.19 C 39.43,17.29 39.42,17.36 39.07,17.44 A 3.7,3.7 0 0,0 38.71,17.53 C 38.25,17.67 38.24,17.83 38.69,18.01 C 39.22,18.21 39.65,18.56 39.98,19.04 C 40.03,19.1 40.39,19.64 40.38,19.74 Z M 33.58,19.74 C 33.64,19.78 33.68,19.84 33.69,19.89 C 33.73,20 33.69,20.03 33.55,19.97 C 33.06,19.75 32.58,19.7 32.11,19.82 C 32.03,19.84 31.99,19.82 32.01,19.75 L 32.06,19.39 C 32.08,19.32 32.12,19.29 32.21,19.29 C 32.6,19.29 32.95,19.22 33.27,19.05 C 33.44,18.96 33.49,18.99 33.43,19.14 L 33.38,19.26 C 33.28,19.49 33.68,19.44 33.86,19.44 C 34.02,19.44 34.04,19.49 33.93,19.57 C 33.81,19.65 33.4,19.59 33.58,19.74 Z"/>
<path d="M 36.89,20.365 C 37.04,20.38 37.16,20.34 37.25,20.25 A 0.87,0.87 0 0,1 37.87,20 C 38.03,20 38.04,20.03 37.92,20.1 C 37.41,20.4 36.92,21.19 37.14,21.33 C 37.16,21.34 37.18,21.36 37.18,21.38 A 0.2,0.2 0 0,1 37.16,21.56 C 36.84,22.04 36.38,22.13 35.79,21.81 A 19.8,19.8 0 0,1 34.13,20.81 C 33.93,20.68 33.96,20.65 34.2,20.73 C 34.43,20.81 35.61,20.84 35.63,20.86 C 36.4,21.62 36.17,20.36 36.9,20.38 Z M 23.43,22.07 L 23.74,22.37 C 23.98,22.57 23.54,22.75 23.59,22.97 C 23.69,23.5 23.48,23.79 22.94,23.84 C 22.87,23.85 22.84,23.89 22.86,23.96 C 22.93,24.21 22.82,24.38 22.53,24.47 C 22.31,24.54 22.09,25.09 22.39,25.15 C 22.49,25.17 22.55,25.23 22.59,25.32 C 22.82,26.18 22.82,26.95 22.57,27.64 A 0.86,0.86 0 0,0 22.55,28.18 C 22.72,28.75 23,29.35 23.37,29.98 C 23.45,30.13 23.57,29.96 23.64,30.05 C 24.02,30.53 24.21,31.05 24.22,31.61 C 24.22,31.94 24.36,32.11 24.52,32.37 C 24.7,32.67 24.6,33.17 24.46,33.45 C 24.36,33.62 24.31,33.61 24.29,33.41 C 24.28,33.36 24.2,33.34 24.16,33.35 C 23.97,33.4 23.78,33.4 23.6,33.35 C 23.32,33.29 23.18,33.4 23.18,33.68 C 23.18,34.09 23.22,34.5 23.32,34.89 C 23.34,34.96 23.19,35.03 23.17,34.99 A 2.04,2.04 0 0,1 22.95,34.29 C 22.93,34.16 22.72,34.11 22.72,34.25 C 22.72,34.38 22.46,34.58 22.45,34.39 C 22.37,33.29 21.88,32.36 23.45,32.09 C 23.67,32.06 23.62,31.63 23.39,31.69 A 0.94,0.94 0 0,0 22.99,31.95 C 22.91,32.02 22.85,32.02 22.8,31.93 C 22.7,31.76 22.42,31.49 22.5,31.23 C 22.55,31.07 21.97,30.78 21.91,30.83 C 21.08,31.64 20.14,32.08 20.25,33.49 C 20.2,33.49 20.13,33.52 20.12,33.45 C 19.92,32.5 20.31,32.25 20.61,31.47 C 20.84,30.87 20.78,30.36 21.16,29.78 C 21.2,29.73 21.16,29.64 21.09,29.63 C 20.46,29.53 19.86,29.63 19.29,29.93 C 19.08,30.05 19,29.99 19.08,29.75 C 19.48,28.49 19.68,27.7 20.8,26.71 C 20.91,26.61 20.9,26.56 20.75,26.54 A 2.35,2.35 0 0,0 19.24,26.8 C 19.02,26.93 18.95,26.88 19.04,26.63 C 19.2,26.17 19.48,25.77 19.88,25.43 C 20.13,25.23 19.59,25.28 19.49,25.3 C 19.34,25.33 19.31,25.28 19.41,25.16 C 19.53,25.02 20.01,24.98 19.93,24.8 C 19.49,23.8 20.77,23.24 21.48,22.89 A 0.53,0.53 0 0,0 21.75,22.59 C 21.89,22.2 22.08,21.88 22.35,21.61 C 23.05,20.88 24,21.16 24.57,20.13 C 24.65,19.97 24.76,19.96 24.87,20.09 C 25.07,20.29 25.02,20.63 24.83,20.82 C 24.7,20.96 24.53,21.07 24.32,21.16 C 24.05,21.27 23.9,21.66 23.75,21.89 C 23.66,22.02 23.21,21.83 23.43,22.07 Z M 34.27,33.91 C 34.32,34.01 34.37,34.11 34.36,34.23 L 34.11,35.94 C 34.09,36.07 33.86,35.97 33.87,35.88 C 34.11,34.02 33.07,34.73 32.09,33.63 A 0.32,0.32 0 0,1 32.02,33.3 C 32.16,32.88 32.24,32.42 32.27,31.94 C 32.31,31.37 32.72,30.94 33,30.43 C 33.06,30.32 33.14,30.3 33.25,30.38 C 33.33,30.43 33.35,30.5 33.35,30.58 C 33.32,30.78 33.38,30.8 33.52,30.65 C 34.37,29.75 34.46,28.19 34.21,27.13 A 0.38,0.38 0 0,1 34.24,26.86 L 34.72,25.9 C 34.76,25.8 34.74,25.73 34.64,25.67 C 34.36,25.49 34.17,25.05 33.98,24.8 C 33.65,24.47 34.45,24.55 34.61,24.45 C 34.78,24.35 34.76,24.29 34.55,24.28 A 1.4,1.4 0 0,1 33.78,24.08 C 33.58,23.95 33.61,23.86 33.85,23.81 C 34.23,23.74 34.61,23.71 35.01,23.72 C 35.18,23.72 35.19,23.7 35.03,23.63 C 34.89,23.57 34.75,23.53 34.59,23.53 C 34.49,23.52 34.43,23.47 34.39,23.4 A 0.54,0.54 0 0,0 34.09,23.12 C 33.94,23.07 33.68,22.41 33.74,22.3 C 33.8,22.2 33.79,22.11 33.71,22.03 A 3.78,3.78 0 0,0 32.51,21.13 C 32.38,21.06 32.39,21.03 32.54,21.01 C 33.18,20.93 34.44,21.66 35.04,21.97 C 35.21,22.05 35.19,22.09 35.01,22.11 C 34.87,22.11 34.73,22.11 34.58,22.07 C 34.44,22.04 34.41,22.08 34.48,22.19 C 34.74,22.56 35.05,22.82 35.42,22.96 C 36.42,23.36 37.45,24.52 37.98,25.28 C 38.03,25.35 37.97,25.52 37.86,25.43 A 2.85,2.85 0 0,0 37.32,25.03 C 37.16,24.94 37.12,24.97 37.19,25.13 L 37.6,25.97 C 37.66,26.07 37.52,26.19 37.4,26.14 A 0.4,0.4 0 0,1 37.15,25.87 C 37.15,25.85 37.14,25.85 37.12,25.86 C 37.08,25.88 36.98,25.9 37.02,25.96 C 37.19,26.19 37.28,26.43 37.3,26.7 C 37.3,26.76 37,27.11 36.92,26.93 A 1.13,1.13 0 0,0 36.6,26.57 C 36.47,26.47 36.4,26.49 36.38,26.65 C 36.33,27.19 36.73,27.64 36.61,28.12 C 36.57,28.29 36.49,28.45 36.38,28.59 A 0.31,0.31 0 0,0 36.31,28.85 C 36.38,29.27 36.49,29.64 36.64,29.97 C 36.87,30.48 36.79,30.52 36.41,30.09 L 36.08,29.73 C 35.98,29.6 35.93,29.62 35.94,29.78 C 36,30.5 36.24,31.11 36.67,31.6 C 36.74,31.67 36.72,31.71 36.61,31.7 A 0.65,0.65 0 0,1 36.29,31.62 C 36.17,31.55 36.12,31.58 36.15,31.72 L 36.31,32.42 C 36.36,32.63 36.28,32.68 36.06,32.56 L 35.59,32.26 C 35.29,32.06 35.46,32.54 35.21,32.45 A 0.1,0.1 0 0,1 35.17,32.42 L 34.42,31.69 C 34.35,31.62 34.29,31.63 34.25,31.72 C 34,32.32 34.05,32.82 34.42,33.22 C 35.05,33.92 35.32,34.74 35.22,35.68 C 35.21,35.77 35.09,35.75 35.02,35.75 C 35,35.75 35,35.75 35,35.73 A 2.21,2.21 0 0,0 34.35,33.87 C 34.21,33.72 34.18,33.73 34.27,33.92 Z M 30.6,23.92 A 3.73,3.73 0 0,0 30.1,22.05 A 0.77,0.77 0 0,1 30.01,21.77 C 29.96,21.44 30.08,21.09 30.28,21.03 C 30.41,20.98 30.54,21 30.68,21.08 C 30.73,21.11 30.76,21.17 30.77,21.25 L 31,23 C 31.03,23.27 30.78,23.79 30.69,23.97 C 30.66,24.03 30.6,23.99 30.6,23.92 Z M 31,22.9 L 31.03,22.15 C 31.03,21.98 31.09,21.95 31.2,22.07 L 31.99,22.92 C 32.01,22.95 31.99,23 31.96,23 L 31.08,22.99 C 31.03,22.99 31,22.96 31,22.89 Z M 17.77,33.44 C 17.85,33.28 17.91,33.29 17.93,33.47 L 18,34.04 C 18.01,34.14 17.98,34.24 17.89,34.31 C 16.88,35.16 16.03,36.48 16.09,37.81 C 16.11,38.05 16.05,38.06 15.93,37.85 A 6,6 0 0,1 15.13,34.97 C 15.13,34.73 15.05,34.7 14.9,34.89 A 0.15,0.15 0 0,1 14.75,34.96 C 14.66,34.95 14.61,34.9 14.6,34.81 C 14.48,34.14 14.5,33.51 14.65,32.91 C 14.75,32.53 14.39,32.91 14.35,32.97 C 14.23,33.11 14.16,33.1 14.13,32.92 C 13.98,32.07 14.15,31.34 14.65,30.73 C 14.85,30.49 14.93,30.2 14.87,29.89 C 14.85,29.76 14.77,29.71 14.65,29.73 C 14.49,29.76 14.35,29.84 14.25,29.98 C 14.09,30.18 14.01,30.16 14,29.91 A 4.2,4.2 0 0,1 15.07,26.89 C 15.09,26.87 15.1,26.84 15.07,26.81 C 15.04,26.76 15,26.75 14.95,26.8 C 14.87,26.88 14.78,26.95 14.68,27 C 14.43,27.15 14.38,27.1 14.51,26.85 A 3.96,3.96 0 0,1 16.76,25.02 C 16.91,24.97 16.96,25.02 16.89,25.16 C 16.78,25.42 16.54,25.83 16.48,26.51 C 16.46,26.66 16.5,26.68 16.58,26.56 C 16.68,26.42 16.81,26.3 16.96,26.22 C 17.09,26.15 17.12,26.17 17.04,26.3 C 16.24,27.72 16.34,30.24 16.44,31.96 C 16.47,32.31 17.54,31.77 16.7,33.41 C 16.61,33.59 16.65,33.63 16.82,33.51 C 16.98,33.41 17.12,33.27 17.24,33.1 C 17.3,33.02 17.44,33.07 17.42,33.17 L 17.22,34.23 C 17.15,34.59 17.7,33.56 17.77,33.43 Z"/>
<path d="M 32.04,28.125 C 32.18,28.69 32.21,29.27 32.15,29.87 C 32.13,30.04 32.1,30.04 32.06,29.87 A 8.71,8.71 0 0,0 31.54,28.22 C 31.47,28.06 31.5,27.99 31.54,27.84 A 0.25,0.25 0 0,0 31.48,27.6 C 31.24,27.34 30.78,26.74 31.13,26.45 C 31.23,26.35 31.26,26.25 31.18,26.15 L 31.14,26.08 A 0.16,0.16 0 0,1 31.14,25.91 A 0.2,0.2 0 0,1 31.21,25.84 A 0.27,0.27 0 0,1 31.31,25.81 C 31.98,25.71 32.5,25.47 32.87,25.1 A 0.35,0.35 0 0,1 33.07,25 A 0.4,0.4 0 0,1 33.3,25.04 C 34.01,25.41 34.18,25.89 33.8,26.49 C 33.55,26.89 33.52,27.35 33.36,27.79 C 33.35,27.82 33.32,27.85 33.26,27.86 A 0.16,0.16 0 0,1 33.16,27.85 A 0.12,0.12 0 0,1 33.13,27.82 A 0.09,0.09 0 0,1 33.11,27.78 A 0.3,0.3 0 0,0 33.04,27.63 C 32.94,27.5 32.86,27.51 32.83,27.67 C 32.77,27.91 32.77,28.16 32.8,28.42 C 32.84,28.72 32.74,28.76 32.5,28.52 A 6.19,6.19 0 0,1 32.15,28.12 C 32.05,27.99 32.01,28 32.05,28.14 Z M 37.32,28.25 C 37.19,27.85 37.13,27.45 37.14,27.03 C 37.14,27.01 37.14,27 37.16,27 S 37.19,27 37.19,27.03 C 37.27,27.52 37.44,27.95 37.7,28.33 C 37.93,28.67 38.03,29.13 37.98,29.71 C 37.98,29.85 37.94,29.86 37.88,29.74 L 37.59,29.21 A 0.06,0.06 0 0,0 37.57,29.18 H 37.54 L 37.51,29.19 L 37.49,29.23 C 37.31,30.25 37.45,31.01 37.92,31.5 C 38.04,31.63 38.02,31.7 37.87,31.75 A 0.32,0.32 0 0,1 37.74,31.75 C 37.64,31.75 37.59,31.8 37.59,31.92 L 37.61,32.92 C 37.61,32.97 37.59,33 37.55,33 H 37.49 L 37.48,32.98 A 4.94,4.94 0 0,0 37.06,31.28 C 37.03,31.23 37.04,31.19 37.1,31.18 C 37.14,31.18 37.18,31.18 37.22,31.21 C 37.35,31.29 37.38,31.25 37.33,31.09 A 8.3,8.3 0 0,1 37.03,28.34 A 0.1,0.1 0 0,1 37.06,28.3 H 37.12 L 37.16,28.33 L 37.22,28.37 C 37.32,28.42 37.36,28.37 37.32,28.25 Z M 30.93,34.81 C 30.95,34.87 30.94,34.91 30.9,34.95 C 30.82,35.02 30.74,35.02 30.68,34.93 C 30.27,34.43 29.74,34.18 29.09,34.18 C 28.79,34.18 28.49,34.13 28.18,34.03 A 0.26,0.26 0 0,1 28,33.79 V 30.59 C 28,30.5 28.04,30.45 28.13,30.44 L 30.42,30 C 30.63,29.97 30.81,30.18 30.72,30.36 C 30.55,30.7 30.28,30.96 29.9,31.12 C 29.03,31.49 28.3,31.95 28.21,32.94 C 28.15,33.58 29.77,34.15 30.27,34.22 C 30.87,34.3 31.33,34.18 31.69,33.86 C 31.79,33.76 31.87,33.78 31.89,33.92 L 31.99,34.5 C 32.01,34.59 31.92,34.66 31.83,34.63 C 31.57,34.54 31.31,34.53 31.04,34.6 C 30.92,34.63 30.88,34.7 30.93,34.81 Z"/>
<path d="M 35.330000000000005,41.855 C 35.35,42.5 35.51,43.11 35.81,43.71 C 35.96,44.01 35.89,44.08 35.61,43.91 C 34,43.02 33.62,41.81 33.63,39.93 C 33.63,39.16 33.49,38.36 33.21,37.53 A 4.06,4.06 0 0,1 33.01,35.88 C 33.02,35.82 33.13,35.71 33.15,35.82 C 33.45,37.46 33.99,40.12 35.01,39.92 C 35.13,39.89 35.17,39.82 35.14,39.69 C 34.96,38.87 35.02,39.13 35.46,39.28 C 35.56,39.31 35.59,39.28 35.56,39.18 A 3.78,3.78 0 0,1 35.36,37.66 C 35.4,37.3 35.68,38.03 35.7,38.06 C 35.85,38.31 35.93,38.29 35.94,37.99 A 8.94,8.94 0 0,0 35.7,35.59 C 35.67,35.49 35.78,35.4 35.87,35.45 C 36.3,35.65 36.68,35.92 37.03,36.25 C 37.16,36.38 37.21,36.35 37.21,36.17 A 8.03,8.03 0 0,0 36.82,34.07 C 36.76,33.88 36.81,33.84 36.96,33.96 C 37.44,34.31 37.89,34.71 38.32,35.15 C 38.48,35.31 38.52,35.28 38.46,35.06 C 38.26,34.42 37.96,33.82 37.51,33.28 C 37.48,33.23 37.57,33.1 37.62,33.15 L 38.94,34.43 C 39,34.49 39.07,34.5 39.14,34.46 C 39.24,34.41 39.64,34.26 39.47,34.06 C 39.05,33.59 38.44,33.03 38.42,32.36 C 38.41,31.91 38.5,31.88 38.69,32.29 C 39.05,33.05 39.73,33.32 40.17,34 C 40.7,34.84 40.97,35.74 41,36.7 C 41,37.04 40.93,37.06 40.77,36.77 C 40.65,36.56 40.53,36.36 40.38,36.17 C 40.03,35.72 39.91,35.77 40.01,36.35 C 40.03,36.45 40.03,36.55 40.03,36.65 C 40.01,36.87 39.97,36.88 39.9,36.67 L 39.63,35.94 A 0.4,0.4 0 0,0 39.34,35.68 C 39.24,35.65 39.18,35.7 39.19,35.81 C 39.27,36.67 39.46,37.39 39.76,37.95 C 39.88,38.18 39.84,38.21 39.64,38.05 A 6.7,6.7 0 0,1 38.11,36.22 C 38.03,36.08 37.81,36.12 37.78,36.27 A 3.6,3.6 0 0,0 37.88,38.54 C 38.01,38.86 37.95,38.91 37.68,38.7 C 37.33,38.4 37.02,38.05 36.76,37.66 C 36.69,37.55 36.65,37.56 36.64,37.7 A 5.59,5.59 0 0,0 37.08,40.46 C 37.28,40.88 37.29,41.3 37.13,41.72 C 37.07,41.87 37.03,41.86 37,41.71 C 36.9,41.17 36.7,40.64 36.42,40.11 C 36.34,39.97 36.29,39.98 36.25,40.13 C 36.1,40.77 36.11,41.33 36.28,41.83 C 36.56,42.62 35.8,41.97 35.53,41.77 C 35.4,41.67 35.33,41.71 35.34,41.87 Z M 22.28,38.37 C 22.29,38.24 22.47,38.08 22.5,38.28 C 22.58,38.68 22.71,39.03 22.9,39.34 C 22.98,39.5 23.03,39.49 23.02,39.3 L 23.01,38.65 C 23,38.42 23.05,38.41 23.15,38.61 C 23.5,39.3 23.95,39.95 24.53,40.55 C 24.64,40.66 24.67,40.64 24.63,40.48 A 0.93,0.93 0 0,0 24.04,39.78 A 0.4,0.4 0 0,1 23.84,39.61 C 23.01,38.27 23.17,36.86 23.59,35.41 C 23.67,35.13 23.66,34.84 23.56,34.54 C 23.49,34.33 23.54,34.28 23.72,34.39 C 23.99,34.55 24.28,34.64 24.59,34.67 C 24.85,34.68 24.51,34.99 24.62,35.12 C 24.78,35.31 24.97,35.45 25.18,35.55 C 25.65,35.44 25.51,36.2 25.81,36.06 A 0.15,0.15 0 0,0 25.88,36 C 25.95,35.86 26.13,35.87 26.21,36 L 26.39,36.3 C 26.54,36.54 26.59,36.08 26.73,36.14 C 26.9,36.2 26.98,36.32 26.98,36.5 C 27.01,39.64 27.01,42.67 26.98,45.59 C 26.98,45.79 26.36,44.23 26.29,44.09 C 26.23,43.95 26.19,43.96 26.16,44.11 C 26.12,44.38 25.62,46.21 25.56,45.98 L 25.23,44.51 C 25.17,44.26 25.09,44.25 24.98,44.48 C 24.86,44.73 24.36,45.24 24.35,45.11 C 24.32,44.71 24.2,44.3 24,43.89 C 23.92,43.72 23.86,43.73 23.83,43.92 L 23.75,44.52 C 23.68,44.97 23.59,44.98 23.49,44.52 L 23.16,43.12 C 23.04,42.59 22.89,43.02 22.73,43.24 C 22.63,43.38 22.56,43.36 22.52,43.19 A 2.5,2.5 0 0,0 22.16,42.31 C 22.06,42.15 22,42.17 21.98,42.36 C 21.94,42.67 21.88,42.98 21.79,43.28 C 21.77,43.35 21.62,43.48 21.62,43.33 C 21.61,43.13 21.32,41.33 21.12,41.61 L 20.52,42.52 C 20.42,42.67 20.36,42.65 20.36,42.47 C 20.36,42.07 20.68,41.38 20.13,41.67 C 20,41.74 19.94,41.7 19.96,41.55 A 7.1,7.1 0 0,0 19.92,39.77 C 19.88,39.46 19.77,39.43 19.61,39.69 C 19.39,40.04 19.28,40.43 19.28,40.85 C 19.28,40.96 19.15,41.02 19.08,40.95 C 18.18,40.03 18.27,38.4 18.34,37.16 C 18.35,36.96 18.3,36.94 18.18,37.1 C 17.98,37.37 17.56,37.67 17.56,37.7 A 7.8,7.8 0 0,0 17.61,39.5 C 17.69,40.08 17.62,40.1 17.41,39.56 C 16.67,37.72 16.93,35.88 18.19,34.05 C 18.24,33.97 18.35,33.99 18.39,34.08 L 18.63,34.97 C 18.69,35.19 19.7,36.43 19.86,36.57 C 20.13,36.82 20.18,37.05 20.33,37.37 C 20.49,37.69 20.57,37.67 20.55,37.31 C 20.54,36.9 20.7,36.76 21.05,36.9 C 21.25,36.97 21.36,37.19 21.35,37.4 C 21.22,38.7 22.09,41.28 22.28,38.37 Z M 28.17,36.59 C 28.24,36.39 28.31,36.39 28.39,36.58 C 28.48,36.79 29.07,37.29 29.1,37.19 C 29.46,36.14 30.19,37.41 30.36,36.52 L 30.43,36.15 C 30.46,35.99 30.54,35.95 30.69,36.04 C 31.35,36.41 30.99,35.94 31.49,35.66 C 31.61,35.59 31.63,35.5 31.55,35.4 L 31.38,35.15 C 31.3,35.05 31.34,34.99 31.48,35 C 32.86,35.05 32.57,36.38 32.61,37.21 C 32.66,38.27 32.45,37.29 32.38,37.56 C 32.31,37.9 32.38,38.19 32.58,38.45 C 32.88,38.8 32.96,39.23 32.81,39.74 C 32.78,39.84 32.71,39.87 32.61,39.82 C 32.41,39.72 32.32,39.56 32.38,39.37 A 0.27,0.27 0 0,0 32.36,39.14 C 32.07,38.68 31.69,38.04 31.83,37.5 A 0.37,0.37 0 0,1 31.99,37.29 C 32.15,37.17 32.18,37.02 32.06,36.84 C 32,36.75 31.94,36.75 31.87,36.84 C 31.54,37.28 31.38,37.78 31.54,38.33 C 31.69,38.86 31.65,39.41 31.44,39.97 C 31.24,40.47 31.16,40.46 31.17,39.93 C 31.17,39.55 31.1,39.18 30.95,38.8 C 30.94,38.76 30.81,38.79 30.83,38.84 C 30.99,39.36 31.03,39.88 30.96,40.39 C 30.88,40.92 31.56,42.07 30.69,41.11 C 30.54,40.95 30.47,40.97 30.48,41.19 C 30.5,41.69 31.17,42.19 31.32,42.05 C 31.48,41.91 31.29,41.63 31.52,41.56 C 31.62,41.53 31.71,41.54 31.8,41.6 C 32.01,41.74 32.2,41.9 32.34,42.09 C 32.41,42.17 32.47,42.17 32.54,42.09 C 33.57,40.7 32.51,41.63 32.24,41.55 C 31.88,41.45 31.64,41.21 31.51,40.82 C 31.46,40.67 31.51,40.64 31.65,40.73 C 31.99,40.95 31.96,40.32 32.22,40.49 C 32.3,40.54 32.34,40.62 32.32,40.74 C 32.31,40.93 32.38,40.96 32.55,40.84 L 32.91,40.59 C 33.01,40.51 33.08,40.53 33.09,40.66 C 33.13,41.06 33.07,41.46 32.92,41.85 C 32.84,42.04 32.88,42.2 33.03,42.33 C 33.15,42.43 33.24,42.41 33.32,42.28 L 33.48,41.99 C 33.62,41.74 33.68,41.75 33.68,42.04 C 33.65,42.64 33.74,43.21 33.94,43.76 C 34.07,44.14 33.99,44.18 33.7,43.89 C 33.37,43.54 32.9,43.35 32.31,43.32 C 32.18,43.31 32.11,43.37 32.1,43.49 C 32.08,43.73 32,43.98 31.85,44.22 C 31.76,44.35 31.55,44.35 31.47,44.22 A 3.9,3.9 0 0,0 30.85,43.48 C 30.58,43.24 30.47,43.28 30.53,43.63 C 30.54,43.73 30.53,43.83 30.5,43.93 C 30.44,44.1 30.37,44.11 30.27,43.96 A 1.87,1.87 0 0,0 29.61,43.32 C 28.84,42.86 29.15,44.7 29.2,44.84 C 29.24,44.98 29.2,45.02 29.05,44.99 C 28.61,44.89 28.55,44.39 28.18,44.19 C 28.09,44.16 28.05,44.09 28.05,44 V 40.84 C 28.05,40.54 29.6,41.79 29.78,41.86 C 30.04,41.98 30.28,42.15 30.48,42.38 C 30.48,42.38 29.37,40.99 28.22,40.5 A 0.29,0.29 0 0,1 28.05,40.24 C 28.02,37.47 27.9,39.14 28.17,36.59 Z"/>
<path d="M 23.069999999999997,24.585 C 23.66,25.1 24.32,25.37 25.06,25.42 C 25.22,25.42 25.3,25.49 25.31,25.6 C 25.33,25.8 25.48,25.94 25.75,26 C 25.88,26.02 26.01,25.95 26,25.86 L 25.95,24.61 C 25.95,24.48 25.86,24.39 25.69,24.35 L 24.25,24.02 C 24.05,23.97 23.8,24.02 23.68,24.15 A 0.9,0.9 0 0,1 23.18,24.4 C 22.98,24.43 22.95,24.5 23.08,24.6 Z M 24.04,24.82 C 24.4,25.16 24.84,25.22 25.36,25 C 25.59,24.9 25.58,24.66 25.34,24.57 C 25.04,24.47 24.74,24.39 24.44,24.36 C 24.09,24.32 23.83,24.61 24.04,24.82 Z M 30.72,28.84 L 30.76,28.62 L 30.81,28.54 A 0.15,0.15 0 0,1 30.91,28.51 A 0.2,0.2 0 0,1 31.01,28.54 L 31.05,28.58 C 31.15,28.69 31.21,28.68 31.25,28.54 A 0.35,0.35 0 0,0 31.22,28.27 A 84.7,84.7 0 0,0 30.49,26.88 A 0.42,0.42 0 0,1 30.46,26.57 C 30.6,26.07 30.86,25.66 31.23,25.32 C 31.3,25.25 31.39,25.22 31.5,25.2 C 31.86,25.18 32.17,25.04 32.44,24.8 C 32.52,24.72 32.62,24.7 32.74,24.72 C 32.87,24.74 32.95,24.65 32.99,24.43 A 0.3,0.3 0 0,0 32.96,24.22 A 0.31,0.31 0 0,0 32.78,24.08 C 32.46,23.98 32.13,23.98 31.79,24.06 A 0.78,0.78 0 0,1 31.45,24.07 C 31.09,23.99 30.87,24.14 30.8,24.52 C 30.7,25.05 30.58,25.55 30.44,26.02 C 30.41,26.14 30.34,26.22 30.24,26.28 L 30.1,26.36 C 30,26.42 29.98,26.5 30.02,26.6 C 30.12,26.83 30.26,27.04 30.44,27.23 C 30.8,27.65 30.73,27.92 30.64,28.21 C 30.59,28.39 30.53,28.59 30.58,28.84 C 30.63,29.05 30.68,29.05 30.72,28.84 Z M 32.05,24.24 A 0.5,0.5 0 0,0 31.65,24.34 C 31.54,24.44 31.45,24.43 31.35,24.31 C 31.32,24.27 31.27,24.26 31.19,24.3 A 0.22,0.22 0 0,0 31.07,24.42 A 0.4,0.4 0 0,0 31.07,24.72 C 31.08,24.78 31.12,24.82 31.17,24.86 C 31.22,24.9 31.27,24.92 31.34,24.92 C 31.79,24.94 32.07,24.79 32.2,24.47 A 0.17,0.17 0 0,0 32.18,24.32 A 0.18,0.18 0 0,0 32.05,24.24 Z" fill-rule="evenodd"/>
</svg>
