<?xml version="1.0" encoding="UTF-8"?>
<!-- generated by Finnhub -->
<svg viewBox="0 0 55.5 55.5" xmlns="http://www.w3.org/2000/svg">
<path d="M 0,0 H 55.5 V 55.5 H 0 Z" fill="rgb(45, 58, 109)"/>
<path d="M 32.49,19.775 H 30.42 L 31.12,19 H 47.03 L 44.33,22 H 42.79 L 40.79,24.01 H 38.94 L 37.2,25.99 H 31.03 L 30.15,25.15 L 30.79,24.75 L 31.4,25 H 36.82 L 37.85,24.01 H 35.5 L 35.95,23 H 40.33 L 41.37,22 H 34.8 L 34.14,21 H 43.66 L 44.7,20 H 32.91 L 32.51,19.79 Z M 31.59,22.19 L 30.78,21.44 H 32.06 L 31.59,22.18 Z M 8.33,19 H 24.47 L 25.59,20 H 32.36 L 35,23.15 V 23.53 A 10.5,10.5 0 0,0 32.03,23.53 C 31.08,23.78 28.58,25.26 27.39,26.5 H 25.99 C 27.05,25.39 30.05,23.07 31.92,22.7 H 33.72 L 32.22,21 H 26.59 L 27.39,21.73 L 26.59,22.28 L 24.05,20 H 10.9 L 12.05,21 H 23.99 L 24.69,22 H 14.08 L 15.38,23 H 22.01 L 22.79,24 H 17.57 L 18.73,25 H 24.21 L 26.48,22.83 L 27.26,23.45 L 24.7,26 H 18.37 L 16.18,24 L 15.02,23.98 L 12.56,22 H 11.65 L 8.33,19 Z" fill="rgb(114, 181, 77)"/>
<path d="M 7.32,26.985 L 5,32 H 6.42 L 6.92,30.98 H 9.6 L 10.08,32 H 11.5 L 9.1,27 H 7.33 Z M 9.13,29.96 H 7.42 L 8.29,28.16 L 9.13,29.96 Z M 41.15,27 L 39,32 H 40.31 L 40.76,31 H 43.26 L 43.69,32 H 45 L 42.78,27 H 41.15 Z M 42.83,30 H 41.2 L 42.03,28.17 L 42.82,30 Z M 12.18,27 H 12 V 32 H 13 V 28.91 L 14.32,32 H 15.56 L 17,28.63 V 32 H 18 V 27 H 16.45 L 14.95,30.54 L 13.42,27 H 12.17 Z M 46.46,27 H 46 V 32 H 47 V 28.05 L 49.02,32 H 51 V 27 H 50 V 31.45 L 47.72,27 H 46.46 Z M 20,27 H 19 V 32 H 24 V 31 H 20 V 30 H 23.5 V 29 H 20 V 28 H 24 V 27 H 20 Z M 25,27 H 29.05 C 29.83,27 30.45,27.6 30.45,28.36 C 30.45,29.04 30.39,29.63 29.81,29.94 C 30.22,30.16 30.5,30.59 30.5,31.09 V 32 H 29.5 V 30.5 H 26 V 32 H 25 V 27 Z M 28.81,28 H 26 V 29.5 H 28.81 C 29.19,29.5 29.5,29.16 29.5,28.75 S 29.2,28 28.81,28 Z M 31,27 H 32 V 32 H 31 V 27 Z M 33,28.78 C 33,27.8 33.69,27 34.54,27 H 36.96 C 37.81,27 38.5,27.8 38.5,28.78 V 29 H 37.5 C 37.47,28.44 37.04,28 36.52,28 H 34.98 C 34.44,28 34,28.48 34,29.07 V 29.93 C 34,30.53 34.44,31 34.98,31 H 36.52 C 37.04,31 37.47,30.56 37.5,30 H 38.5 V 30.22 C 38.5,31.2 37.81,32 36.96,32 H 34.54 C 33.69,32 33,31.2 33,30.22 V 28.78 Z" fill="rgb(254, 254, 253)"/>
<path d="M 34.99,35.375 V 33 H 35.64 V 35.3 C 35.64,35.37 35.69,35.42 35.74,35.42 H 37.27 C 37.33,35.42 37.37,35.37 37.37,35.3 V 33 H 38 V 35.39 C 38,35.73 37.77,36 37.48,36 H 35.52 C 35.23,36 35,35.73 35,35.39 Z M 11.63,33 H 11 V 36 H 13.5 V 35.5 H 11.63 V 33 Z M 16,33 H 16.6 V 33.74 H 16 V 33 Z M 16,34.19 H 16.6 V 36 H 16 V 34.19 Z" fill="rgb(114, 181, 77)"/>
<path d="M 19.74,32.985 H 22.82 V 33.5 H 21.6 V 36 H 21 V 33.5 H 19.75 V 33 Z M 25.56,33 H 25 V 36 H 25.56 V 34.8 H 27.44 V 36 H 28 V 33 H 27.44 V 34.2 H 25.56 V 33 Z M 31,33 H 31.58 V 36 H 31 V 33 Z M 41.58,33 H 41 V 36 H 41.58 V 34.08 L 42.76,35.7 L 43.92,33.98 V 36 H 44.5 V 33 H 43.92 V 33.03 L 42.76,34.81 L 41.58,33.01 Z" fill="rgb(254, 254, 253)"/>
</svg>
