<?xml version="1.0" encoding="UTF-8"?>
<!-- generated by Finnhub -->
<svg viewBox="0 0 55.5 55.5" xmlns="http://www.w3.org/2000/svg">
<path d="M 0,0 H 55.5 V 55.5 H 0 Z" fill="rgb(239, 242, 248)"/>
<path d="M 3.99,31.215 C 4,29.93 4.72,29 6.12,29 C 7.16,29 8,29.7 8,30.77 H 6.74 C 6.72,30.27 6.47,30 6.02,30 C 5.48,30 5.5,30.46 5.5,30.93 V 32.73 C 5.5,33.28 5.4,34 6.07,34 C 6.54,34 6.74,33.62 6.74,33.19 V 32.8 H 6 V 32 H 8 V 35 H 7.43 L 7.27,34.5 H 7.2 C 6.85,34.9 6.4,35 5.88,35 C 4.53,35 4,34.02 4,32.78 V 31.23 Z M 47,21 H 48.45 C 49.25,22.24 49.81,23.33 50.5,24.52 V 21 H 52 V 27 H 50.75 A 97.7,97.7 0 0,1 48.5,23.24 V 27 H 47 V 21 Z M 27,29 H 28.45 C 29.25,30.24 29.81,31.33 30.5,32.52 V 29 H 32 V 35 H 30.75 A 97.7,97.7 0 0,1 28.5,31.24 V 35 H 27 V 29 Z M 36,23.05 C 36,21.73 36.7,21 38.08,21 C 39.28,21 39.94,21.84 39.99,23 H 38.5 C 38.5,22.57 38.53,22 38.02,22 C 37.54,22 37.5,22.42 37.5,22.85 V 25.02 C 37.5,25.51 37.46,26 38.03,26 C 38.61,26 38.5,25.47 38.5,25 H 40 C 40,26.19 39.35,27 38.06,27 C 36.61,27 36,26.1 36,24.77 V 23.05 Z M 31.23,27 V 26.47 H 32 V 21.52 H 31.23 V 21 H 34.28 V 21.52 H 33.5 V 26.45 H 34.28 V 27 H 31.23 Z M 26.5,27 H 25 V 21 H 27.25 C 28.45,21 29.81,21.27 29.81,22.74 C 29.81,23.59 29.27,24.14 28.48,24.34 L 30,27 H 28.34 L 27.02,24.55 H 26.5 V 27 Z M 26.5,23.66 H 27.03 C 27.66,23.66 28.24,23.54 28.24,22.79 C 28.24,22.05 27.61,22 27.03,22 H 26.5 V 23.66 Z M 10.5,35 H 9 V 29 H 11.25 C 12.45,29 13.81,29.27 13.81,30.74 C 13.81,31.59 13.27,32.14 12.48,32.34 L 14,35 H 12.34 L 11.02,32.55 H 10.5 V 35 Z M 10.5,31.66 H 11.03 C 11.66,31.66 12.24,31.54 12.24,30.79 C 12.24,30.05 11.61,30 11.03,30 H 10.5 V 31.66 Z M 19,21 H 24 V 22 H 20.48 V 23.37 H 22.77 V 24.47 H 20.5 V 26 H 24 V 27 H 19 V 21 Z M 15,29 H 20 V 30 H 16.48 V 31.37 H 18.77 V 32.47 H 16.5 V 34 H 20 V 35 H 15 V 29 Z M 21,29 H 26 V 30 H 22.48 V 31.37 H 24.77 V 32.47 H 22.5 V 34 H 26 V 35 H 21 V 29 Z M 7.93,21 L 10,27 H 8.47 L 8.1,25.8 H 5.9 L 5.54,27 H 4 L 6.02,21 H 7.92 Z M 7,22.07 L 6.18,24.78 H 7.79 L 7,22.08 Z M 11,21 H 13 C 13.37,22.49 13.66,23.7 14,25 C 14.33,23.73 14.62,22.78 15,21 H 17 V 27 H 15.5 V 23 L 14.5,27 H 13.53 L 12.5,23 V 27 H 11 V 21 Z M 43.93,21 L 46,27 H 44.47 L 44.1,25.8 H 41.9 L 41.53,27 H 40 L 42.02,21 H 43.92 Z M 43,22.07 L 42.18,24.78 H 43.79 L 43,22.08 Z M 37,28 L 37.94,30.67 H 41 L 38.53,32.33 L 39.47,35 L 37,33.35 L 34.53,35 L 35.47,32.33 L 33,30.67 H 36.06 L 37,28 Z M 43,29 H 52 V 30 H 43 Z M 43,31.5 H 52 V 32.5 H 43 V 31.5 Z M 43,34 H 52 V 35 H 43 Z" fill="rgb(79, 120, 52)"/>
</svg>
