<!-- by Finnhub --><svg xmlns="http://www.w3.org/2000/svg" width="56" height="56" viewBox="0 0 56 56"><path fill="#F0F3FA" d="M0 0h56v56H0z"/><path fill-rule="evenodd" d="M45 25.1a8.12 8.12 0 0 0-7.39-6.08 9.66 9.66 0 0 0-12.93 9.08A9.66 9.66 0 0 0 38.1 37h4.56c-3.03 4.8-8.4 8-14.54 8A17.06 17.06 0 0 1 11 28c0-9.39 7.67-17 17.12-17A17.1 17.1 0 0 1 45 25.1Zm-28.3 2.94c0 6.79 4.95 12.44 11.52 13.71-7.16-.68-12.76-6.58-12.76-13.75 0-7.47 6.08-13.56 13.67-13.81-7.02.9-12.43 6.76-12.43 13.85ZM30.47 39.4a11.53 11.53 0 0 1-8.85-11.28c0-5.29 3.5-9.75 8.3-11.12a11.31 11.31 0 0 0-9.38 11.16 11.3 11.3 0 0 0 9.93 11.24Z" fill="#980089"/><path fill-rule="evenodd" d="M31.03 23.13A9.66 9.66 0 0 1 37.15 21c3.77.02 5.6 2.35 5.85 5v10h-3v-2.16A5.54 5.54 0 0 1 35.28 36c-3.35-.1-5.21-2.3-5.28-4.72-.07-2.43 2.25-4.3 5.7-4.28H40v-1c-.1-.83-.87-2.47-3.17-2.47s-3.9 1.02-4.4 1.54l-1.4-1.94ZM40 29v1.9c-.09.78-.96 2.41-3.76 2.6-2.8.18-3.32-1.66-3.23-2.6 0-.66.7-1.96 3.5-1.9H40Z" fill="#FF5313"/></svg>