<?xml version="1.0" encoding="UTF-8"?>
<!-- generated by Finnhub -->
<svg viewBox="0 0 55.5 55.5" xmlns="http://www.w3.org/2000/svg">
<path d="M 0,0 H 55.5 V 55.5 H 0 Z" fill="rgb(239, 242, 248)"/>
<path d="M 15.01,39.305 C 15.02,44.13 18.67,46 21.54,46 S 27.82,43.8 27.82,39.32 C 27.82,34.88 24.27,28.31 23.12,26.18 L 23.09,26.13 C 21.97,24.05 18.36,17.37 18.36,14.27 A 4.69,4.69 0 0,1 20.84,10.03 C 16.59,10.66 15.18,14.51 15.02,16.35 V 39.32 Z" fill="rgb(80, 170, 69)"/>
<path d="M 22.869999999999997,23.995 C 17.41,23.05 15.35,20.74 15,19.71 V 17.01 C 15,12.01 19.57,9.74 21.6,10.02 C 23.2,10.25 24.98,10.94 25.65,11.39 L 42.51,21.48 C 44.01,22.16 47,24.38 47,27.76 A 7.1,7.1 0 0,1 43.73,33.89 L 35.7,38.56 C 37.55,37.12 40.95,33.27 39.8,29.39 C 38.36,24.54 29.71,25.22 22.88,24.01 Z" fill="rgb(210, 220, 36)"/>
<path d="M 16.45,12.625 A 7.25,7.25 0 0,1 19.84,10.24 C 20.16,10.15 20.49,10.08 20.84,10.03 A 4.69,4.69 0 0,0 18.36,14.27 C 18.36,16.59 20.37,20.91 21.86,23.81 C 17.23,22.77 15.38,20.74 15.02,19.76 V 16.5 C 15.03,16.26 15.06,16.04 15.09,15.81 C 15.26,14.9 15.68,13.71 16.46,12.64 Z" fill="rgb(139, 188, 62)"/>
<path d="M 43.910000000000004,33.745 C 37.26,37.66 24.17,45.4 24.05,45.49 C 23.17,45.86 21.87,46.01 21.45,45.99 A 6.3,6.3 0 0,1 15.03,39.92 V 34.78 C 18.75,32.78 27.89,28.79 34.73,28.79 C 41.55,28.79 45.28,30.29 46.29,31.05 A 5.8,5.8 0 0,1 43.92,33.75 Z" fill="rgb(80, 170, 69)"/>
<path d="M 39.36,36.405 L 35.7,38.56 C 37.55,37.12 40.95,33.27 39.8,29.39 L 39.7,29.09 C 43.37,29.56 45.52,30.49 46.27,31.03 A 6.98,6.98 0 0,1 43.92,33.76 L 39.37,36.42 Z" fill="rgb(141, 187, 56)"/>
<path d="M 25.29,30.495 A 63.68,63.68 0 0,0 15.03,34.78 V 39.82 C 15.08,40.72 15.27,41.52 15.55,42.22 C 15.89,42.97 16.39,43.72 17.07,44.35 A 6.78,6.78 0 0,0 23.22,45.75 A 6.44,6.44 0 0,0 25.13,44.85 A 6.48,6.48 0 0,0 27.83,39.32 C 27.83,36.68 26.57,33.28 25.3,30.51 Z" fill="rgb(5, 152, 71)"/>
</svg>
