<?xml version="1.0" encoding="UTF-8"?>
<!-- generated by Finnhub -->
<svg viewBox="0 0 55.5 55.5" xmlns="http://www.w3.org/2000/svg">
<path d="M 0,0 H 55.5 V 55.5 H 0 Z" fill="rgb(239, 242, 248)"/>
<path d="M 36.92,25.955 L 37.27,23.51 C 36.87,23.34 35.77,23 34.65,23 C 32.02,23 31,25.46 31,26.44 C 31,27.41 31.44,29 33.33,29.77 C 35.23,30.54 35.5,30.85 35.5,31.41 C 35.5,31.97 35.08,32.44 34.16,32.44 A 5.98,5.98 0 0,1 31.29,31.41 L 31,34.13 C 31.52,34.42 32.88,35 34.16,35 C 37.23,35 38,32.54 38,31.3 C 38,27.92 33.58,28.03 33.58,26.59 C 33.58,25.87 34.16,25.46 34.88,25.46 C 35.48,25.46 36.49,25.8 36.93,25.97 Z" fill="rgb(14, 26, 19)"/>
<path d="M 9.99,21.085 C 10,17.5 12.77,14.86 14.15,14 C 14.07,14.26 13.9,14.92 13.9,15.5 C 13.9,17.73 17,19.96 17,22.08 S 16,26.18 15.4,26.84 C 15.64,25.64 14.97,23.65 14.6,22.8 L 12.75,17.68 C 12.95,18.82 13.51,21.48 14.15,23.01 C 14.95,24.93 14.75,26.33 14.6,27 C 12.65,26.27 10,24.3 10,21.1 Z" fill="rgb(133, 188, 63)"/>
<path d="M 26.24,29.544999999999998 C 29.73,25.84 29.13,21.11 28.57,19 C 28.42,19.32 27.99,20.1 27.48,20.65 C 25.51,22.75 20.58,21.94 18.69,23.94 C 16.81,25.94 16.02,28.73 16,29.92 C 16.83,28.57 19.24,27.32 20.34,26.87 L 26.65,23.77 C 25.45,24.66 22.55,26.64 20.59,27.48 C 18.13,28.54 16.45,30.2 16,30.98 C 16.65,31.23 15.96,31.85 16.85,32 C 19.17,31.49 23.45,32.57 26.25,29.56 Z" fill="rgb(1, 103, 54)"/>
<path d="M 19.99,22.985 V 35 H 22.5 V 28.87 L 28.07,35 H 29 V 23 H 26.5 V 29.54 L 20.77,23 H 20 Z M 47.63,31.69 C 46.99,32.2 46.16,32.52 45.25,32.52 C 43.21,32.52 41.5,30.94 41.5,29 S 43.21,25.48 45.25,25.48 C 46.05,25.48 46.78,25.72 47.38,26.13 L 47.78,23.51 A 6.45,6.45 0 0,0 45.25,23 A 6.13,6.13 0 0,0 39,29 C 39,32.31 41.8,35 45.25,35 C 46.24,35 47.17,34.78 48,34.39 L 47.63,31.69 Z M 8,35 L 12.72,23 H 13.28 L 18,35 H 15.36 L 14.77,33.5 H 11.23 L 10.64,35 H 8 Z M 12.21,31 H 13.79 L 13,29 L 12.21,31 Z" fill="rgb(14, 26, 19)"/>
</svg>
