<?xml version="1.0" encoding="UTF-8"?>
<!-- generated by Finnhub -->
<svg viewBox="0 0 55.5 55.5" xmlns="http://www.w3.org/2000/svg">
<path d="M 0,0 H 55.5 V 55.5 H 0 Z" fill="rgb(239, 242, 248)"/>
<path d="M 9.33,26.515 H 8.78 L 10.44,22 L 12.47,27.27 L 11.49,27.14 L 10.25,23.77 L 9.34,26.53 Z"/>
<path d="M 6.79,29.755 C 8.64,29.77 9.7,29.22 10.01,28.95 C 8.5,29.25 7.55,29.44 6.68,29.42 C 3.28,29.33 3.88,27.22 8.43,27.22 C 12.53,27.22 15.18,28.69 16,29.42 C 15.5,27.93 11.57,26.22 8.36,26.22 C 5.16,26.22 4,27.68 4,28.19 S 4.48,29.77 6.8,29.77 Z" fill="rgb(3, 85, 160)"/>
<path d="M 6.220000000000001,30.985 H 8.77 V 30.73 H 8.37 A 0.33,0.33 0 0,1 8.07,30.29 L 9.01,27.53 H 8.41 L 7.41,30.22 C 7.29,30.52 7,30.72 6.68,30.72 H 6.23 V 31 Z M 11.73,27.9 L 12.75,28.06 L 13.71,30.25 C 13.84,30.53 14.11,30.72 14.42,30.72 H 14.75 V 31 H 12.45 V 30.72 H 12.65 C 12.74,30.72 12.8,30.62 12.77,30.53 L 11.72,27.9 Z"/>
<path d="M 16.99,23.985 V 24.28 H 17.28 C 17.65,24.28 18,24.61 18,25.01 V 29.98 C 18,30.38 17.65,30.72 17.28,30.72 H 17 V 31 H 21.68 L 22.14,29.26 H 21.94 L 21.53,30.1 C 21.38,30.4 21.09,30.6 20.78,30.6 H 19.52 C 19.19,30.6 19,30.3 19,29.94 V 27.47 H 20.44 C 20.8,27.47 21.1,27.8 21.1,28.21 V 28.33 H 21.28 V 26.13 H 21.1 V 26.31 C 21.1,26.71 20.8,27 20.44,27 H 19 V 24.47 H 20.73 C 21.1,24.47 21.39,24.8 21.39,25.2 V 25.48 H 21.68 V 23.82 L 21.39,24 H 17 Z M 27.5,31 A 3.5,3.5 0 1,0 27.5,24 A 3.5,3.5 0 0,0 27.5,31 Z M 27.8,30.55 C 29.04,30.41 29.91,28.93 29.75,27.25 C 29.58,25.57 28.44,24.32 27.2,24.45 C 25.96,24.59 25.09,26.07 25.25,27.75 C 25.42,29.43 26.56,30.68 27.8,30.55 Z M 32.02,24.31 V 24 H 35.03 V 24.31 H 34.63 C 34.26,24.31 34,24.64 34,25.05 V 29.95 C 34,30.31 34.23,30.6 34.56,30.6 H 36.33 L 37.17,29.14 H 37.42 L 36.8,31 H 32.02 V 30.6 H 32.61 C 32.83,30.6 33,30.4 33,30.16 V 25.05 C 33,24.65 32.71,24.31 32.35,24.31 H 32.02 Z M 38,24 V 24.34 H 38.32 C 38.69,24.34 38.99,24.66 38.99,25.05 V 28.36 C 38.99,29.82 40.07,31 41.42,31 H 42 C 43.35,31 44.44,29.82 44.44,28.36 V 25.05 C 44.44,24.65 44.74,24.34 45.1,24.34 H 45.56 V 24 H 42.69 V 24.34 H 43.24 C 43.6,24.34 44,24.66 44,25.05 V 28.6 C 44,29.55 43.19,30.32 42.31,30.32 H 41.66 C 40.79,30.32 40,29.55 40,28.6 V 25.05 C 40,24.65 40.38,24.34 40.74,24.34 H 41.26 V 24 H 38 Z M 47,28.77 L 47.17,30.9 H 47.48 C 47.48,30.78 47.52,30.56 47.63,30.6 C 47.65,30.6 47.68,30.63 47.71,30.65 C 47.87,30.76 48.2,31 49.44,31 C 50.94,31 52,30.2 52,28.83 C 52,27.7 50.66,27.14 49.82,26.79 L 49.38,26.59 C 48.72,26.26 48.44,26.02 48.44,25.48 C 48.44,24.93 48.91,24.48 49.79,24.48 C 50.67,24.48 51.45,24.92 51.45,25.78 H 51.75 L 51.6,24 C 51.54,24.1 51.36,24.32 51.15,24.32 C 51.05,24.32 50.93,24.27 50.77,24.22 C 50.49,24.12 50.12,24 49.62,24 C 48.82,24 47.32,24.49 47.32,25.88 C 47.32,27.04 48.49,27.54 49.32,27.9 L 49.77,28.1 C 50.51,28.48 50.86,28.78 50.86,29.41 C 50.86,30.05 50.4,30.6 49.22,30.6 A 1.98,1.98 0 0,1 47.2,28.77 H 47 Z" fill-rule="evenodd"/>
</svg>
