<?xml version="1.0" encoding="UTF-8"?>
<!-- generated by Finnhub -->
<svg viewBox="0 0 55.5 55.5" xmlns="http://www.w3.org/2000/svg">
<path d="M0 0h55.5v55.5H0z" fill="rgb(239, 242, 248)"/>
<path d="M17 37V23.95L34 15v12.16L17 37Z" fill="url(#b)"/>
<path d="M17 30.17c-.01-1.16-.04-2.99 1.86-5.37 2.6-3.24 4.82-4.12 7.33-3.7 2.51.4 2.38 5.86-.21 9.08-2.59 3.21-5.68 4.14-7.12 3.73-1.44-.41-1.8-1.6-1.85-3.45v-.3Zm2-.53c0-.71-.03-1.84 1.19-3.3 1.64-2 3.06-2.54 4.66-2.28 1.6.25 1.51 3.6-.14 5.59-1.64 1.98-3.6 2.55-4.52 2.3-.92-.26-1.16-1-1.19-2.13v-.18Z" fill="url(#a)" fill-rule="evenodd"/>
<path d="M7 34h3.61l.25-1h2.8l.22 1H17v-2.12L14.37 24H10.6L7 34Zm6.11-3.5-.78-3.56-.87 3.56h1.65Zm19.47 1.21L31.11 34h-3.94l3.47-5.32-3-4.68h3.84l1.1 1.7L33.7 24h3.84l-3 4.68L38 34h-3.95l-1.47-2.29ZM38 24h3.38l1.14 2.85.98-2.85H47l-3 5.2V34h-3v-4.8L38 24Z" fill-rule="evenodd"/>
<defs>
<linearGradient id="b" x1="18.05" x2="33.42" y1="24.96" y2="24.96" gradientUnits="userSpaceOnUse">
<stop stop-color="rgb(14, 56, 59)" offset="0"/>
<stop stop-color="rgb(209, 209, 209)" offset="1"/>
</linearGradient>
<linearGradient id="a" x1="17" x2="27.54" y1="31.38" y2="23.68" gradientUnits="userSpaceOnUse">
<stop stop-color="rgb(204, 209, 205)" offset="0"/>
<stop stop-color="rgb(7, 46, 44)" offset="1"/>
</linearGradient>
</defs>
</svg>
