<?xml version="1.0" encoding="UTF-8"?>
<!-- generated by Finnhub -->
<svg viewBox="0 0 55.5 55.5" xmlns="http://www.w3.org/2000/svg">
<path d="M 0,0 H 55.5 V 55.5 H 0 Z" fill="rgb(239, 242, 248)"/>
<path d="M 15.790000000000001,18.985 L 19.88,30.47 C 20.06,30.98 20.38,31.59 21,31.63 V 32 H 16.7 V 31.63 C 17.26,31.61 17.62,31.51 17.76,31.33 C 17.92,31.13 17.88,30.73 17.66,30.1 L 14.66,21.23 L 14.92,20.9 L 12.15,28.82 C 11.95,29.37 11.83,29.82 11.79,30.19 C 11.75,30.56 11.79,30.84 11.87,31.05 C 11.97,31.25 12.14,31.4 12.37,31.49 C 12.6,31.57 12.89,31.62 13.24,31.63 V 32 H 10 V 31.63 C 10.23,31.57 10.47,31.43 10.7,31.18 C 10.93,30.93 11.16,30.52 11.37,29.94 L 15.24,19 H 15.81 Z M 17.56,26.63 V 27 H 12.6 L 12.76,26.63 H 17.57 Z M 23.5,19 L 28.8,19.02 C 31.07,19.02 33.5,20.39 33.5,23 C 33.5,25.86 30.95,27 28.39,27 H 26.57 V 26.63 H 28.2 C 30.38,26.63 31.5,25 31.5,23 C 31.5,21.07 30.53,19.37 28.4,19.37 C 27.87,19.37 27.52,19.47 27.35,19.67 C 27.19,19.89 27,20.35 27,20.98 V 30.05 C 27,31.35 27.77,31.59 29.02,31.61 V 32 H 23.5 V 31.63 C 24.64,31.57 24.97,31.14 24.97,30.05 V 20.95 C 24.97,19.82 24.65,19.4 23.5,19.37 V 19 Z" fill="rgb(98, 99, 99)"/>
<path d="M 48.99,34.485 L 7,34 V 35 L 49,34.5 Z M 37,25 H 38.5 V 25.5 H 37.5 V 31.5 H 38.5 V 32 H 37 V 25 Z M 48.5,25 H 47 V 25.5 H 48 V 31.5 H 47 V 32 H 48.5 V 25 Z" fill="rgb(113, 9, 15)"/>
<path d="M 43.410000000000004,26.044999999999998 C 43.52,26.16 43.52,26.31 43.44,26.42 L 41.6,28.48 L 43.93,31.08 C 44,31.15 44.13,31.26 44.29,31.35 C 44.45,31.45 44.61,31.5 44.75,31.5 S 45.05,31.44 45.21,31.35 C 45.37,31.25 45.51,31.15 45.57,31.07 A 0.25,0.25 0 0,1 45.93,31.43 C 45.83,31.53 45.66,31.66 45.46,31.78 C 45.26,31.89 45.01,32 44.75,32 C 44.49,32 44.23,31.9 44.04,31.78 C 43.84,31.66 43.67,31.52 43.57,31.43 V 31.42 L 41.27,28.86 L 39.44,30.92 A 0.25,0.25 0 0,1 39.06,30.58 L 40.93,28.48 L 39.06,26.42 A 0.25,0.25 0 1,1 39.44,26.08 L 41.26,28.11 L 43.06,26.08 C 43.16,25.98 43.31,25.98 43.42,26.06 Z" fill="rgb(98, 99, 99)"/>
</svg>
