<?xml version="1.0" encoding="UTF-8"?>
<!-- generated by Finnhub -->
<svg viewBox="0 0 55.5 55.5" xmlns="http://www.w3.org/2000/svg">
<path d="M 0,0 H 55.5 V 55.5 H 0 Z" fill="rgb(239, 242, 248)"/>
<path d="M 15.99,31.095 C 16,23.61 23.96,14.58 28,11 C 31.96,14.58 40,23.61 40,31.11 C 40,33.1 39.63,34.83 38.96,36.31 C 37.1,40.44 33.06,35.71 28.23,35.75 C 22.34,35.8 21.13,31.11 16.2,33.49 A 13.9,13.9 0 0,1 16,31.11 Z" fill="url(#b)"/>
<path d="M 27.09,43.985 C 35.75,44 39.3,37.8 40,34.69 C 39.54,35.26 37.84,36.41 34.77,36.41 C 33.02,36.41 31.08,34.91 28.97,33.27 L 28.49,32.89 C 26.1,31.03 23.49,29 20.71,29 C 19.01,29 16.98,31.23 15.83,33 L 13.05,29.4 L 12,30.2 L 14.75,34.78 C 15.74,34.42 17.2,34 18.4,34 C 19.2,34 20.45,34.85 21.99,35.9 C 24.24,37.42 27.09,39.36 30,39.65 C 27.56,40.85 24.13,38.73 21.58,37.15 C 20.31,36.37 19.25,35.72 18.64,35.68 A 9.84,9.84 0 0,0 15.39,36.25 C 17,39.71 19.9,44 27.1,44 Z" fill="url(#a)"/>
<defs>
<linearGradient id="b" x1="28" x2="28" y1="11" y2="38" gradientUnits="userSpaceOnUse">
<stop stop-color="rgb(7, 7, 6)" offset=".1"/>
<stop stop-color="rgb(92, 96, 98)" offset=".3"/>
<stop stop-color="rgb(38, 82, 94)" offset=".56"/>
<stop stop-color="rgb(47, 137, 181)" offset=".79"/>
</linearGradient>
<linearGradient id="a" x1="40" x2="12" y1="36.5" y2="36.5" gradientUnits="userSpaceOnUse">
<stop stop-color="rgb(152, 202, 80)" offset="0"/>
<stop stop-color="rgb(40, 161, 91)" offset="1"/>
</linearGradient>
</defs>
</svg>
