<?xml version="1.0" encoding="UTF-8"?>
<!-- generated by Finnhub -->
<svg viewBox="0 0 55.5 55.5" xmlns="http://www.w3.org/2000/svg">
<path d="M 0,0 H 55.5 V 55.5 H 0 Z" fill="rgb(239, 242, 248)"/>
<path d="M 32.7,21.745 L 27.15,32.3 L 17.22,26.73 L 26.49,11.06 A 0.11,0.11 0 0,1 26.59,11 C 26.61,11 26.63,11 26.64,11.02 C 26.66,11.02 26.68,11.04 26.69,11.06 L 32.71,21.76 Z" fill="rgb(1, 107, 180)"/>
<path d="M 32.7,21.745 L 43.99,41.83 A 0.12,0.12 0 0,1 43.97,41.97 A 0.12,0.12 0 0,1 43.83,41.99 L 27.32,32.66 A 1,1 0 0,1 27.15,32.3 L 32.71,21.76 Z" fill="rgb(32, 149, 209)"/>
<path d="M 17.209999999999997,26.715 L 27.15,32.3 A 1,1 0 0,0 27.32,32.66 L 22.79,41.6 A 0.13,0.13 0 0,1 22.71,41.67 A 0.12,0.12 0 0,1 22.61,41.66 L 12.2,35.9 C 12,35.79 11.96,35.64 12.07,35.45 L 17.23,26.73 Z" fill="rgb(30, 194, 241)"/>
</svg>
