<?xml version="1.0" encoding="UTF-8"?>
<!-- generated by Finnhub -->
<svg viewBox="0 0 55.5 55.5" xmlns="http://www.w3.org/2000/svg">
<path d="M0 0h55.5v55.5H0z" fill="url(#d)"/>
<path d="M31.83 23.21c.04 4.43-6.15 5.86-9.26 6.02l9.66 5.82 2.64 3.16c.4.58 1.67 1.74 3.52 1.74h6.6L35.5 23.5l-3.66-.3Z" fill="url(#c)"/>
<path d="M15.03 32.77c-1.33 2.35-4 7.09-4.03 7.23h6.8c1.99 0 3.06-1.4 4.35-3.2a7.32 7.32 0 0 1 5.8-3.1c1.86 0 3.7.97 4.38 1.45-2.43-3.17-5.18-5.94-10.18-5.94-4 0-6.41 2.38-7.12 3.56Z" fill="url(#b)"/>
<path d="m28.24 22.78c-4.2 0-7.66 1.32-8.87 1.98 1.55-2.6 4.91-8.3 6-10.31a4.67 4.67 0 0 1 4-2.45l8.94 16.31a11.63 11.63 0 0 0-10.07-5.53z" fill="url(#a)"/>
<defs>
<linearGradient id="d" x1="10.42" x2="68.15" y1="9.71" y2="76.02" gradientUnits="userSpaceOnUse">
<stop stop-color="rgb(25, 29, 31)" offset="0"/>
<stop stop-color="rgb(5, 5, 8)" offset="1"/>
</linearGradient>
<linearGradient id="c" x1="38.42" x2="31.48" y1="27.73" y2="34.83" gradientUnits="userSpaceOnUse">
<stop stop-color="rgb(3, 111, 185)" offset="0"/>
<stop stop-color="rgb(43, 156, 213)" offset=".55"/>
<stop stop-color="rgb(84, 203, 224)" offset="1"/>
</linearGradient>
<linearGradient id="b" x1="23.5" x2="21.54" y1="29.57" y2="39.98" gradientUnits="userSpaceOnUse">
<stop stop-color="rgb(1, 117, 168)" offset="0"/>
<stop stop-color="rgb(66, 197, 240)" offset=".82"/>
</linearGradient>
<linearGradient id="a" x1="23.79" x2="34.97" y1="17.74" y2="23.73" gradientUnits="userSpaceOnUse">
<stop stop-color="rgb(6, 107, 176)" offset="0"/>
<stop stop-color="rgb(50, 171, 225)" offset=".37"/>
<stop stop-color="rgb(57, 196, 239)" offset="1"/>
</linearGradient>
</defs>
</svg>
