<?xml version="1.0" encoding="UTF-8"?>
<!-- generated by Finnhub -->
<svg viewBox="0 0 55.5 55.5" xmlns="http://www.w3.org/2000/svg">
<path d="M 0,0 H 55.5 V 55.5 H 0 Z" fill="rgb(239, 242, 248)"/>
<path d="M 27.59,22.985 C 28.89,23 30.2,23.52 31,24.56 V 23 H 33 V 33 H 31 V 31.4 A 4.3,4.3 0 0,1 27.56,33 C 24.8,33 23,30.56 23,27.96 C 23,25.34 24.82,23 27.6,23 Z M 28.02,25 A 2.88,2.88 0 0,0 25,27.96 A 2.95,2.95 0 0,0 28.02,31 A 2.9,2.9 0 0,0 31,27.99 A 2.86,2.86 0 0,0 28.02,25 Z" fill="rgb(137, 137, 136)"/>
<path d="M 34.160000000000004,40.555 A 3.5,3.5 0 0,1 39.17,36.43 A 14,14 0 0,0 21.87,15.4 A 4.51,4.51 0 0,1 16.03,20.74 A 14,14 0 0,0 34.18,40.56 Z M 35.31,42.23 A 16,16 0 0,1 14.32,19.7 A 4.49,4.49 0 0,1 17.5,12 C 18.9,12 20.14,12.63 20.96,13.63 A 16,16 0 0,1 40.6,37.87 A 3.5,3.5 0 0,1 35.32,42.24 Z M 17.5,19 A 2.5,2.5 0 1,0 17.5,14 A 2.5,2.5 0 0,0 17.5,19 Z M 37.5,41 A 1.5,1.5 0 1,0 37.5,38 A 1.5,1.5 0 0,0 37.5,41 Z" fill="url(#a)"/>
<defs>
<linearGradient id="a" x1="14.23" x2="39.46" y1="13.95" y2="42.05" gradientUnits="userSpaceOnUse">
<stop stop-color="rgb(1, 210, 240)" offset=".29"/>
<stop stop-color="rgb(143, 210, 122)" offset=".74"/>
</linearGradient>
</defs>
</svg>
