<?xml version="1.0" encoding="UTF-8"?>
<!-- generated by Finnhub -->
<svg viewBox="0 0 55.5 55.5" xmlns="http://www.w3.org/2000/svg">
<path d="M 0,0 H 55.5 V 55.5 H 0 Z" fill="rgb(239, 242, 248)"/>
<path d="M 6.71,25.985 L 4,31 H 5.14 L 5.68,30 H 8.94 L 9.48,31 H 10.62 L 7.9,26 H 6.72 Z M 7.31,27.01 L 8.39,29 H 6.23 L 7.31,27.01 Z M 41.72,26 L 39,31 H 40.14 L 40.68,30 H 43.94 L 44.48,31 H 45.62 L 42.9,26 H 41.72 Z M 42.31,27.01 L 43.39,29 H 41.23 L 42.31,27.01 Z M 12.17,26 H 11 V 31 H 12 V 27.44 L 14.31,30.5 H 14.64 L 17,27.37 V 31 H 18 V 26 H 16.78 L 14.48,29.05 L 12.16,26 Z M 19,26 H 24 V 27 H 20 V 28 H 22.5 V 29 H 20 V 30 H 24 V 31 H 19 V 26 Z M 25,26 H 29.2 C 29.64,26 30,26.36 30,26.8 V 28.2 A 0.8,0.8 0 0,1 29.2,29 H 28.5 L 30.5,31 H 29.09 L 27.09,29 H 26 V 31 H 25 V 26 Z M 26,28 V 27 H 28.7 C 28.87,27 29,27.13 29,27.3 V 27.7 A 0.3,0.3 0 0,1 28.7,28 H 26 Z M 32,26 H 31 V 31 H 32 V 26 Z M 33,26.8 C 33,26.36 33.36,26 33.8,26 H 37.7 C 38.14,26 38.5,26.36 38.5,26.8 V 27.67 L 37.5,27.99 V 27 H 34 V 30 H 37.5 V 29.17 L 38.5,29.34 V 30.2 A 0.8,0.8 0 0,1 37.7,31 H 33.8 A 0.8,0.8 0 0,1 33,30.2 V 26.8 Z M 46.5,26 H 46 V 31 H 47 V 27.7 L 50.5,31 H 51.5 V 26 H 50.5 V 29.5 L 46.5,26 Z" fill="rgb(1, 113, 185)" fill-rule="evenodd"/>
</svg>
