<?xml version="1.0" encoding="UTF-8"?>
<!-- generated by Finnhub -->
<svg viewBox="0 0 55.5 55.5" xmlns="http://www.w3.org/2000/svg">
<path d="M 0,0 H 55.5 V 55.5 H 0 Z" fill="rgb(239, 242, 248)"/>
<path d="M 31.04,19.905 A 4.72,4.72 0 0,0 32.21,16.97 V 16.82 A 6.09,6.09 0 0,0 31.96,15.25 C 31.92,15.1 31.87,14.95 31.8,14.8 A 4.46,4.46 0 0,0 30.53,13.08 C 30.33,12.93 30.15,12.78 29.97,12.68 A 4.75,4.75 0 0,0 24.88,12.83 L 24.84,12.84 L 24.8,12.86 A 4.75,4.75 0 0,0 22.9,17.6 L 22.91,17.7 L 22.93,17.79 C 22.97,17.97 23.04,18.16 23.12,18.35 L 23.15,18.46 L 23.19,18.57 C 23.38,19.06 23.68,19.54 24.05,19.99 C 25.36,21.56 25.4,23.16 24.2,24.39 C 22.97,25.63 21.4,25.55 19.82,24.21 A 4.48,4.48 0 0,0 14.85,23.39 A 4.45,4.45 0 0,0 12,27.65 C 11.96,29.7 12.86,31.27 14.77,32.09 C 16.57,32.87 18.33,32.65 19.86,31.3 C 21.51,29.89 22.82,29.85 24.43,31.27 A 4.7,4.7 0 0,0 30.83,31.23 A 4.88,4.88 0 0,0 31.16,24.63 C 29.63,22.9 29.63,21.67 31.05,19.92 Z M 29.82,30.1 C 28.54,31.4 26.75,31.37 25.14,30.03 C 23.15,28.34 20.98,28.42 18.89,30.21 C 17.65,31.26 16.08,31.37 14.85,30.47 A 3.28,3.28 0 0,1 13.65,26.59 C 14.21,25.17 15.59,24.24 17.13,24.57 C 17.83,24.72 18.55,25.17 19.15,25.66 C 20.65,26.81 22.25,27.08 23.94,26.29 C 25.62,25.51 26.41,24.09 26.44,22.26 C 26.44,21.92 26.44,21.62 26.37,21.32 A 5.93,5.93 0 0,0 25.07,18.9 A 3.27,3.27 0 0,1 26.6,13.63 A 3.16,3.16 0 0,1 30.15,14.9 C 31.05,16.2 31.01,17.7 29.93,18.94 A 5.24,5.24 0 0,0 28.62,21.32 C 28.47,21.92 28.51,22.56 28.69,23.27 C 28.88,24.01 29.33,24.76 29.82,25.39 C 31.09,27 31.12,28.76 29.82,30.1 Z M 27.76,34.47 A 4.75,4.75 0 0,0 22.96,39.17 A 4.7,4.7 0 0,0 27.62,44 A 4.76,4.76 0 0,0 32.41,39.18 A 4.7,4.7 0 0,0 27.77,34.48 Z M 27.72,42.57 A 3.31,3.31 0 0,1 27.68,35.97 C 29.44,35.97 30.98,37.46 30.98,39.25 C 31.01,40.93 29.44,42.53 27.72,42.57 Z M 34.57,27.93 A 4.75,4.75 0 0,1 39.36,23.23 A 4.7,4.7 0 0,1 44,27.93 A 4.76,4.76 0 0,1 39.2,32.75 A 4.7,4.7 0 0,1 34.57,27.93 Z M 36.1,28.05 C 36.1,29.84 37.6,31.33 39.36,31.33 C 41.04,31.33 42.61,29.73 42.61,28.01 C 42.61,26.21 41.08,24.72 39.32,24.72 A 3.29,3.29 0 0,0 36.1,28.05 Z" fill="rgb(197, 53, 97)"/>
</svg>
