<?xml version="1.0" encoding="UTF-8"?>
<!-- generated by Finnhub -->
<svg fill="none" viewBox="0 0 55.5 55.5" xmlns="http://www.w3.org/2000/svg">
<path d="M 0,0 H 55.5 V 55.5 H 0 Z" fill="rgb(239, 242, 248)"/>
<path d="M 11.038,26.985 H 44.952 C 46.086,27 47,27.927 47,29.077 V 34.923 C 47,36.073 46.086,37 44.952,37 H 11.048 C 9.914,37 9,36.074 9,34.923 V 29.077 C 9,27.927 9.914,27 11.048,27 Z" clip-rule="evenodd" fill="url(#a)" fill-rule="evenodd"/>
<path d="M 44.942,27.485 H 11.048 C 10.196,27.5 9.5,28.196 9.5,29.077 V 34.923 C 9.5,35.803 10.196,36.5 11.048,36.5 H 44.952 C 45.804,36.5 46.5,35.804 46.5,34.923 V 29.077 C 46.5,28.197 45.804,27.5 44.952,27.5 Z M 44.952,27 H 11.048 C 9.914,27 9,27.927 9,29.077 V 34.923 C 9,36.073 9.914,37 11.048,37 H 44.952 C 46.086,37 47,36.074 47,34.923 V 29.077 C 47,27.927 46.086,27 44.952,27 Z" clip-rule="evenodd" fill="rgb(122, 58, 55)" fill-rule="evenodd"/>
<path d="M 39.99,25.985 C 39.264,19.8 34.176,15 28.015,15 C 21.855,15 16.735,19.832 16,26 H 40 Z" clip-rule="evenodd" fill="url(#b)" fill-rule="evenodd"/>
<path d="M 39.99,25.953 A 12.33,12.33 0 0,0 39.234,22.916 S 38.007,21.613 34.574,21.613 C 31.111,21.613 30.161,23.393 27.249,23.52 C 25.287,23.488 23.639,22.5 21.801,22.5 C 19.931,22.5 17.625,23.488 16,26 C 16,26 17.686,24.5 20.812,24.5 C 23.939,24.5 25.103,26 27.709,26 C 30.314,26 32.889,23.965 35.77,23.965 S 40,25.968 40,25.968 Z" clip-rule="evenodd" fill="url(#c)" fill-rule="evenodd"/>
<path d="M 38.947,22.2 C 37.884,21.357 35.096,19 32.337,19 C 27.678,19 23.77,24.76 20,26 H 40 C 39.847,24.697 39.512,23.375 38.957,22.215 Z" clip-rule="evenodd" fill="url(#d)" fill-rule="evenodd"/>
<path d="M 39.99,25.985 V 25.396 C 40,25.273 39.968,25.135 39.939,25.015 C 39.785,24.283 39.549,23.615 39.273,22.948 C 39.243,22.916 38.069,22 34.667,22 C 31.203,22 30.412,23.373 27.5,23.5 C 26.55,23.468 25.382,23.308 24.523,23.086 C 23.82,23.636 23.16,24.184 22.453,24.684 C 24.507,25.034 25.655,26 27.77,26 C 30.375,26 32.95,24 35.831,24 C 38.651,24 40,26 40,26 Z" clip-rule="evenodd" fill="url(#e)" fill-rule="evenodd"/>
<path d="M 19.99,34.985 L 17.795,29 H 15.805 L 16,29.449 L 14,35 H 15.61 L 16,34 H 18 L 18.335,35 H 20 Z M 17.572,32.673 L 17,30.71 L 16.4,32.673 H 17.572 Z M 39,35 L 36.795,29 H 34.805 L 35,29.449 L 33,35 H 34.61 L 35,34 H 37 L 37.335,35 H 39 Z M 36.572,32.673 L 36,30.71 L 35.4,32.673 H 36.572 Z M 25.727,30.6 C 25.727,30.52 25.454,29.347 25.454,29.347 S 24.727,29 23.636,29 C 22.546,29 21.273,29.613 21.273,30.493 V 31.08 S 21.151,32.04 23.606,32.787 C 24.135,32.947 24.182,33.16 24.182,33.32 C 24.182,33.533 23.788,33.667 23.242,33.667 C 22.758,33.667 22.182,33.587 21.576,33.347 L 21,34.44 S 21.818,35 23.333,35 C 24.818,35 26,34.413 26,33.293 S 25.394,31.693 23.546,31.187 C 23,31.037 23,30.783 23,30.623 C 23,30.5 23.333,30.227 23.91,30.227 C 24.333,30.227 24.97,30.333 25.727,30.6 Z M 31.727,30.6 C 31.727,30.52 31.454,29.347 31.454,29.347 S 30.727,29 29.636,29 C 28.546,29 27.273,29.613 27.273,30.493 V 31.08 S 27.151,32.04 29.606,32.787 C 30.135,32.947 30.182,33.16 30.182,33.32 C 30.182,33.533 29.788,33.667 29.242,33.667 C 28.758,33.667 28.182,33.587 27.576,33.347 L 27,34.44 S 27.818,35 29.333,35 C 30.818,35 32,34.413 32,33.293 S 31.394,31.693 29.546,31.187 C 29,31.037 29,30.783 29,30.623 C 29,30.5 29.333,30.227 29.91,30.227 C 30.333,30.227 30.97,30.333 31.727,30.6 Z M 40.837,28 H 43 L 42,29.5 H 40 L 40.837,28 Z M 39.898,30 H 42 V 35 H 40 V 30.387 L 39.898,30 Z" clip-rule="evenodd" fill="rgb(239, 242, 248)" fill-rule="evenodd"/>
<defs>
<linearGradient id="a" x1="28" x2="28" y1="27" y2="37" gradientUnits="userSpaceOnUse">
<stop stop-color="rgb(241, 159, 8)" offset=".086"/>
<stop stop-color="rgb(222, 24, 32)" offset=".453"/>
</linearGradient>
<linearGradient id="b" x1="15" x2="41.5" y1="23.5" y2="24" gradientUnits="userSpaceOnUse">
<stop stop-color="rgb(254, 199, 16)" offset="0"/>
<stop stop-color="rgb(246, 114, 29)" offset=".587"/>
<stop stop-color="rgb(245, 102, 31)" offset=".672"/>
</linearGradient>
<linearGradient id="c" x1="16.5" x2="24" y1="24.5" y2="24" gradientUnits="userSpaceOnUse">
<stop stop-color="rgb(253, 239, 14)" offset="0"/>
<stop stop-color="rgb(231, 174, 22)" offset="1"/>
</linearGradient>
<linearGradient id="d" x1="19" x2="40.5" y1="26" y2="25.5" gradientUnits="userSpaceOnUse">
<stop stop-color="rgb(243, 129, 22)" offset=".156"/>
<stop stop-color="rgb(250, 185, 8)" offset=".447"/>
<stop stop-color="rgb(248, 116, 21)" offset=".963"/>
</linearGradient>
<linearGradient id="e" x1="22" x2="41.5" y1="24.5" y2="25" gradientUnits="userSpaceOnUse">
<stop stop-color="rgb(254, 240, 2)" offset=".24"/>
<stop stop-color="rgb(240, 115, 22)" offset=".849"/>
</linearGradient>
</defs>
</svg>
