<?xml version="1.0" encoding="UTF-8"?>
<!-- generated by Finnhub -->
<svg viewBox="0 0 55.5 55.5" xmlns="http://www.w3.org/2000/svg">
<path d="M 0,0 H 55.5 V 55.5 H 0 Z" fill="rgb(239, 242, 248)"/>
<path d="M 17.24,25.985 L 16.82,24.9 H 15.17 L 14.75,26 H 14 L 15.6,22 H 16.4 L 18,26 H 17.25 Z M 16.64,24.33 L 16.23,23.24 A 18.14,18.14 0 0,0 16,22.55 A 5.22,5.22 0 0,1 15.78,23.25 L 15.37,24.33 H 16.64 Z M 23.72,24.89 C 23.72,25.12 23.66,25.32 23.54,25.49 C 23.42,25.65 23.24,25.78 23.01,25.87 C 22.78,25.96 22.51,26 22.19,26 A 3.97,3.97 0 0,1 21.34,25.9 A 2.32,2.32 0 0,1 21,25.8 V 25.2 L 21.58,25.38 C 21.79,25.43 22.01,25.46 22.23,25.46 C 22.41,25.46 22.56,25.44 22.68,25.4 C 22.8,25.35 22.88,25.3 22.95,25.21 A 0.48,0.48 0 0,0 23.03,24.93 A 0.44,0.44 0 0,0 22.93,24.63 A 0.92,0.92 0 0,0 22.63,24.42 A 5.4,5.4 0 0,0 22.11,24.2 A 3.62,3.62 0 0,1 21.71,24.03 A 1.63,1.63 0 0,1 21.37,23.79 A 1,1 0 0,1 21.14,23.48 A 1.02,1.02 0 0,1 21.05,23.05 C 21.05,22.83 21.11,22.64 21.22,22.48 C 21.34,22.33 21.5,22.21 21.72,22.13 A 2,2 0 0,1 22.45,22 A 2.95,2.95 0 0,1 23.66,22.24 L 23.44,22.76 A 4.18,4.18 0 0,0 22.94,22.6 A 2.14,2.14 0 0,0 22.44,22.54 C 22.28,22.54 22.16,22.56 22.06,22.6 C 21.96,22.64 21.88,22.7 21.82,22.78 A 0.43,0.43 0 0,0 21.74,23.04 C 21.74,23.15 21.77,23.24 21.84,23.33 C 21.89,23.4 21.99,23.47 22.12,23.53 C 22.25,23.6 22.42,23.67 22.62,23.75 C 22.85,23.84 23.05,23.93 23.22,24.03 C 23.38,24.13 23.51,24.24 23.59,24.38 C 23.69,24.51 23.72,24.68 23.72,24.88 Z M 26.24,22 C 26.79,22 27.19,22.1 27.44,22.3 C 27.69,22.51 27.82,22.8 27.82,23.17 C 27.82,23.34 27.79,23.5 27.73,23.66 C 27.67,23.81 27.58,23.94 27.45,24.06 C 27.32,24.17 27.15,24.26 26.94,24.33 C 26.72,24.4 26.46,24.43 26.15,24.43 H 25.7 V 26 H 25 V 22 H 26.24 Z M 26.19,22.53 H 25.69 V 23.9 H 26.08 C 26.3,23.9 26.48,23.88 26.64,23.83 A 0.68,0.68 0 0,0 26.99,23.6 C 27.07,23.5 27.11,23.37 27.11,23.2 C 27.11,22.97 27.03,22.8 26.88,22.7 C 26.74,22.58 26.5,22.53 26.19,22.53 Z M 30.85,26 L 30.43,24.87 H 28.81 L 28.39,26 H 27.71 L 29.24,22 H 30 L 31.58,26 H 30.84 Z M 30.25,24.32 L 29.85,23.25 A 19.25,19.25 0 0,0 29.62,22.58 A 5.09,5.09 0 0,1 29.41,23.25 L 29.01,24.32 H 30.25 Z M 34.02,22.54 C 33.17,22.54 32.72,23.21 32.72,24 C 32.72,24.82 33.14,25.46 34.02,25.46 C 34.37,25.46 34.7,25.39 35.07,25.28 V 25.82 C 34.72,25.95 34.39,26 33.93,26 C 32.73,26 32,25.19 32,24 S 32.84,22 34.02,22 C 34.45,22 34.87,22.1 35.22,22.25 L 34.98,22.78 C 34.68,22.65 34.36,22.54 34.02,22.54 Z M 37.3,26 V 22 H 38 V 26 H 37.3 Z M 39.3,26 V 22 H 40 V 26 H 39.3 Z M 7.25,32 L 6.82,30.9 H 5.17 L 4.75,32 H 4 L 5.6,28 H 6.4 L 8,32 H 7.25 Z M 6.64,30.33 L 6.23,29.24 A 20.59,20.59 0 0,0 6,28.55 A 5.27,5.27 0 0,1 5.78,29.25 L 5.37,30.33 H 6.64 Z M 9.58,32 C 9.25,32 8.98,31.95 8.74,31.84 C 8.5,31.74 8.32,31.57 8.19,31.35 C 8.06,31.13 8,30.85 8,30.52 C 8,30.16 8.07,29.88 8.21,29.65 C 8.35,29.43 8.54,29.27 8.79,29.15 A 2.67,2.67 0 0,1 10.19,29.05 C 10.71,29.15 10.57,29.28 10.4,29.67 A 3.53,3.53 0 0,0 10.02,29.56 A 1.73,1.73 0 0,0 9.64,29.51 C 9.44,29.51 9.27,29.55 9.14,29.62 A 0.7,0.7 0 0,0 8.84,29.96 C 8.78,30.11 8.74,30.29 8.74,30.51 C 8.74,30.72 8.78,30.91 8.84,31.05 A 0.7,0.7 0 0,0 9.14,31.38 C 9.27,31.45 9.43,31.48 9.62,31.48 A 2.01,2.01 0 0,0 10.54,31.28 V 31.81 C 10.41,31.88 10.27,31.92 10.12,31.95 C 9.97,31.98 9.79,32 9.58,32 Z M 18,29 V 32 H 17.43 L 17.33,31.56 H 17.29 A 0.9,0.9 0 0,1 17.02,31.81 A 1.8,1.8 0 0,1 16.22,32.01 C 15.96,32 15.74,31.96 15.56,31.89 A 0.87,0.87 0 0,1 15.14,31.55 C 15.04,31.39 15,31.19 15,30.95 V 29 H 15.73 V 30.83 C 15.73,31.05 15.78,31.23 15.89,31.33 C 15.99,31.45 16.17,31.5 16.39,31.5 C 16.61,31.5 16.79,31.46 16.92,31.39 A 0.62,0.62 0 0,0 17.19,31.05 C 17.25,30.9 17.27,30.71 17.27,30.49 V 29 H 18 Z M 23.34,31.12 C 23.34,31.32 23.29,31.47 23.18,31.6 A 1,1 0 0,1 22.7,31.9 A 3.7,3.7 0 0,1 21.32,31.95 A 2.4,2.4 0 0,1 20.84,31.82 V 31.29 A 3.86,3.86 0 0,0 21.96,31.53 C 22.2,31.53 22.36,31.5 22.47,31.43 C 22.57,31.37 22.63,31.29 22.63,31.18 A 0.25,0.25 0 0,0 22.56,31.01 A 0.66,0.66 0 0,0 22.33,30.86 A 4.93,4.93 0 0,0 21.83,30.66 C 21.62,30.59 21.43,30.52 21.29,30.45 A 0.9,0.9 0 0,1 20.95,30.18 A 0.66,0.66 0 0,1 20.84,29.78 C 20.84,29.53 20.95,29.33 21.19,29.2 C 21.43,29.07 21.75,29 22.15,29 A 3.05,3.05 0 0,1 23.29,29.2 L 23.06,29.67 C 22.9,29.61 22.75,29.57 22.59,29.53 A 1.95,1.95 0 0,0 22.12,29.47 A 1,1 0 0,0 21.69,29.55 C 21.59,29.59 21.55,29.66 21.55,29.75 C 21.55,29.82 21.57,29.88 21.62,29.93 C 21.67,29.97 21.75,30.03 21.86,30.07 L 22.35,30.24 L 22.88,30.45 C 23.03,30.52 23.14,30.61 23.22,30.72 C 23.3,30.82 23.34,30.96 23.34,31.12 Z M 33.17,30.5 C 33.17,30.74 33.13,30.95 33.06,31.14 C 32.98,31.32 32.88,31.48 32.73,31.61 C 32.59,31.74 32.43,31.83 32.23,31.91 A 2.14,2.14 0 0,1 30.9,31.91 A 1.32,1.32 0 0,1 30.06,31.14 C 29.99,30.94 29.95,30.74 29.95,30.49 C 29.95,30.18 30.01,29.91 30.15,29.69 C 30.27,29.46 30.46,29.29 30.7,29.18 C 30.95,29.06 31.23,29 31.57,29 C 31.88,29 32.16,29.06 32.4,29.18 C 32.64,29.29 32.83,29.46 32.97,29.68 C 33.1,29.91 33.17,30.18 33.17,30.49 Z M 30.69,30.5 C 30.69,30.7 30.72,30.89 30.79,31.04 C 30.84,31.19 30.94,31.3 31.07,31.38 C 31.19,31.46 31.36,31.5 31.56,31.5 S 31.93,31.46 32.06,31.38 A 0.7,0.7 0 0,0 32.33,31.04 C 32.39,30.89 32.43,30.71 32.43,30.49 C 32.43,30.29 32.39,30.11 32.33,29.96 A 0.67,0.67 0 0,0 32.05,29.62 A 0.94,0.94 0 0,0 31.55,29.5 C 31.25,29.5 31.04,29.59 30.9,29.76 S 30.7,30.18 30.7,30.49 Z M 35.78,29 C 36.16,29 36.46,29.08 36.68,29.25 C 36.89,29.42 37,29.69 37,30.06 V 32 H 36.28 V 30.18 C 36.28,29.95 36.22,29.78 36.11,29.68 C 36.01,29.56 35.83,29.5 35.61,29.5 C 35.28,29.5 35.05,29.59 34.91,29.76 C 34.79,29.93 34.73,30.18 34.73,30.51 V 32 H 34 V 29 H 34.56 L 34.66,29.45 H 34.71 C 34.78,29.35 34.87,29.26 34.98,29.2 C 35.09,29.13 35.22,29.08 35.35,29.05 C 35.49,29.02 35.63,29 35.78,29 Z M 13.3,34 C 13.3,33.35 13.23,32.12 13.33,31.47 H 13.29 C 13.11,31.77 13.02,32 12.5,32 C 11.53,32 11,31.32 11,30.5 C 11,29.67 11.53,29 12.5,29 C 13,29 13.12,29.23 13.32,29.53 H 13.34 L 13.42,29 H 14 V 34 H 13.3 Z M 12.5,31.42 A 0.8,0.8 0 0,0 13.33,30.62 C 13.33,30.08 13.09,29.6 12.5,29.6 C 11.97,29.6 11.72,29.76 11.72,30.51 C 11.72,31.27 11.97,31.41 12.5,31.41 Z M 19.77,29 V 32 H 19 V 29 H 19.77 Z M 19.41,28 C 19.53,28 19.62,28.02 19.71,28.07 C 19.79,28.12 19.83,28.21 19.83,28.33 S 19.79,28.53 19.7,28.59 A 0.54,0.54 0 0,1 19.41,28.67 A 0.55,0.55 0 0,1 19.11,28.59 C 19.04,28.54 19,28.45 19,28.33 S 19.04,28.13 19.12,28.07 A 0.55,0.55 0 0,1 19.42,28 Z M 24.73,29 V 32 H 24 V 29 H 24.73 Z M 24.41,28 C 24.52,28 24.61,28.02 24.7,28.07 C 24.78,28.12 24.82,28.21 24.82,28.33 S 24.78,28.53 24.7,28.59 A 0.54,0.54 0 0,1 24.41,28.67 A 0.55,0.55 0 0,1 24.11,28.59 C 24.04,28.54 24,28.45 24,28.33 S 24.04,28.13 24.11,28.07 A 0.55,0.55 0 0,1 24.41,28 Z M 27.18,31.51 C 27.37,31.51 27.56,31.48 27.72,31.44 V 31.89 C 27.55,31.95 27.28,32 27,32 C 26.41,32 26,31.72 26,31.09 V 29.46 H 25.5 V 29.19 L 26,28.98 L 26.24,28 H 26.7 V 29 H 27.69 V 29.46 H 26.7 V 31.08 C 26.7,31.38 26.9,31.51 27.18,31.51 Z M 29,29 V 32 H 28.22 V 29 H 29 Z M 28.59,28 C 28.69,28 28.79,28.02 28.88,28.07 C 28.96,28.12 29,28.21 29,28.33 S 28.96,28.53 28.88,28.59 A 0.54,0.54 0 0,1 28.58,28.67 A 0.55,0.55 0 0,1 28.29,28.59 C 28.21,28.54 28.17,28.45 28.17,28.33 S 28.21,28.13 28.29,28.07 A 0.55,0.55 0 0,1 28.59,28 Z M 40.88,28.54 C 40.68,28.54 40.52,28.58 40.37,28.64 C 40.22,28.71 40.09,28.81 39.99,28.94 C 39.89,29.06 39.81,29.22 39.76,29.4 A 2.1,2.1 0 0,0 39.67,30 C 39.67,30.3 39.72,30.57 39.8,30.78 C 39.9,31 40.02,31.17 40.2,31.28 C 40.38,31.4 40.6,31.46 40.87,31.46 C 41.04,31.46 41.2,31.44 41.37,31.41 C 41.52,31.38 41.68,31.33 41.85,31.28 V 31.82 A 2.56,2.56 0 0,1 40.8,32 C 40.4,32 40.06,31.92 39.8,31.75 C 39.53,31.59 39.33,31.35 39.2,31.05 C 39.06,30.75 39,30.4 39,30 C 39,29.7 39.04,29.44 39.12,29.2 C 39.21,28.95 39.32,28.74 39.49,28.56 C 39.65,28.38 39.84,28.24 40.07,28.15 C 40.31,28.05 40.57,28 40.87,28 A 2.58,2.58 0 0,1 42,28.25 L 41.77,28.78 A 3.36,3.36 0 0,0 41.34,28.61 C 41.19,28.57 41.04,28.54 40.88,28.54 Z M 50.7,29 C 51.67,29 52,29.67 52,30.5 S 51.65,32 50.68,32 C 50.34,32 50.1,31.9 49.93,31.76 A 1.23,1.23 0 0,1 49.71,31.52 H 49.66 C 49.74,32.16 49.71,33.35 49.71,34 H 49 V 29 H 49.57 L 49.67,29.54 H 49.71 C 49.93,29.19 50.28,29 50.7,29 Z M 50.5,29.6 C 49.88,29.6 49.71,29.95 49.7,30.5 C 49.7,31.06 49.84,31.4 50.52,31.4 C 51.14,31.4 51.28,31 51.28,30.5 C 51.28,29.76 51.03,29.6 50.51,29.6 Z M 45.5,30.5 C 45.5,31.43 44.83,32 43.92,32 C 43.02,32 42.36,31.4 42.36,30.5 C 42.36,29.56 43.03,29 43.94,29 C 44.83,29 45.5,29.58 45.5,30.5 Z M 43.08,30.5 C 43.08,31.04 43.33,31.5 43.93,31.5 S 44.77,31.04 44.77,30.5 C 44.77,29.94 44.52,29.5 43.93,29.5 S 43.08,29.86 43.08,30.5 Z M 47.96,29 C 48.08,29 48.22,29.01 48.32,29.03 L 48.25,29.66 A 1.56,1.56 0 0,0 47.93,29.62 C 47.41,29.62 47,29.95 47,30.49 V 32 H 46.28 V 29 H 46.83 L 46.93,29.62 H 46.96 C 47.18,29.27 47.56,29 47.96,29 Z" fill="rgb(83, 83, 82)"/>
</svg>
