<?xml version="1.0" encoding="UTF-8"?>
<!-- generated by Finnhub -->
<svg viewBox="0 0 55.5 55.5" xmlns="http://www.w3.org/2000/svg">
<path d="M 0,0 H 55.5 V 55.5 H 0 Z" fill="rgb(239, 242, 248)"/>
<path d="M 28.58,24.485 A 41.49,41.49 0 0,1 24.96,18.52 L 24.26,16.9 L 23.43,14.39 C 23.4,14.29 23.37,14.29 23.35,14.39 L 22.37,18.1 A 35.05,35.05 0 0,1 16.97,27.55 L 15.57,29.3 C 15.37,29.58 15.24,29.54 15.21,29.2 L 15.11,27.83 C 15.09,27.58 15.01,27.56 14.88,27.78 L 12.65,31.54 C 12.51,31.78 12.4,31.77 12.35,31.48 C 12.01,29.86 11.91,28.18 12.05,26.44 C 12.31,23.94 13.05,21.72 14.27,19.75 A 16.15,16.15 0 0,1 35.27,13.7 A 15.73,15.73 0 0,1 41.67,19.59 A 15.7,15.7 0 0,1 44.07,27.95 C 44.07,31.15 43.17,34.15 41.33,36.95 C 41.26,37.05 41.2,37.05 41.13,36.95 L 39.44,34.8 C 39.21,34.5 39.14,34.53 39.22,34.9 L 39.63,36.64 C 39.67,36.84 39.63,36.86 39.48,36.74 A 86.33,86.33 0 0,1 28.58,24.5 Z" fill="url(#b)"/>
<path d="M 41.22,38.745 A 78.23,78.23 0 0,1 26.11,26.66 L 22.6,22.63 C 22.52,22.53 22.44,22.54 22.38,22.65 A 25.83,25.83 0 0,1 17.88,28.54 A 37.37,37.37 0 0,1 11.98,33.56 A 3.4,3.4 0 0,1 11.02,34.19 C 11,34.19 11,34.21 11,34.23 L 11.04,34.32 C 11.06,34.37 11.1,34.39 11.16,34.37 L 12.15,34.08 C 12.42,33.96 12.68,33.9 12.92,33.9 C 13.02,33.9 13.1,33.95 13.14,34.04 C 15.3,38.94 18.9,42.08 23.94,43.47 C 26.69,44.24 29.48,44.22 32.29,43.42 C 35.06,42.64 37.47,41.22 39.53,39.15 A 0.3,0.3 0 0,1 39.78,39.05 C 40.12,39.08 40.44,39.17 40.76,39.32 L 43.26,40.08 C 43.72,40.22 43.74,40.18 43.31,39.94 L 41.23,38.76 Z" fill="url(#b)"/>
<path d="M 41.22,38.745 A 78.23,78.23 0 0,1 26.11,26.66 L 22.6,22.63 C 22.52,22.53 22.44,22.54 22.38,22.65 A 25.84,25.84 0 0,1 17.88,28.54 A 37.38,37.38 0 0,1 11.98,33.56 A 16.9,16.9 0 0,1 15.76,16.24 A 16.44,16.44 0 0,1 24.53,11.36 C 30.09,10.32 34.93,11.53 39.05,14.99 A 16.75,16.75 0 0,1 43.35,20.49 A 15.42,15.42 0 0,1 45,27.91 C 45,29.14 44.96,30.05 44.87,30.63 A 17.21,17.21 0 0,1 41.23,38.76 Z M 22.37,18.1 A 35.05,35.05 0 0,1 16.97,27.55 L 15.57,29.3 C 15.37,29.58 15.24,29.54 15.21,29.2 L 15.11,27.83 C 15.09,27.58 15.01,27.56 14.89,27.78 L 12.65,31.54 C 12.51,31.78 12.4,31.77 12.35,31.48 C 12.02,29.86 11.91,28.18 12.05,26.44 C 12.31,23.94 13.05,21.72 14.27,19.75 A 16.15,16.15 0 0,1 35.27,13.7 A 15.73,15.73 0 0,1 41.67,19.59 A 15.7,15.7 0 0,1 44.07,27.95 C 44.07,31.15 43.17,34.15 41.33,36.95 C 41.26,37.05 41.2,37.05 41.13,36.95 L 39.45,34.8 C 39.21,34.5 39.14,34.53 39.22,34.9 L 39.63,36.64 C 39.68,36.84 39.63,36.86 39.48,36.74 A 86.33,86.33 0 0,1 28.58,24.5 A 41.5,41.5 0 0,1 24.96,18.52 L 24.26,16.9 L 23.43,14.39 C 23.4,14.29 23.37,14.29 23.35,14.39 L 22.37,18.1 Z" fill="url(#a)" fill-rule="evenodd"/>
<path d="M 31.689999999999998,44.565 C 35.18,43.81 38.2,42.05 40.76,39.32 A 2.73,2.73 0 0,0 39.78,39.05 A 0.3,0.3 0 0,0 39.53,39.15 A 16.36,16.36 0 0,1 32.3,43.42 C 29.48,44.22 26.69,44.24 23.93,43.47 C 18.9,42.07 15.3,38.93 13.14,34.04 A 0.22,0.22 0 0,0 12.93,33.9 C 12.68,33.9 12.43,33.96 12.15,34.08 C 14.03,38.6 17.1,41.77 21.34,43.58 A 16.53,16.53 0 0,0 31.7,44.58 Z" fill="url(#a)"/>
<defs>
<linearGradient id="b" x1="14.86" x2="27.52" y1="20.85" y2="30.33" gradientUnits="userSpaceOnUse">
<stop stop-color="rgb(120, 123, 142)" offset="0"/>
<stop stop-color="rgb(33, 41, 83)" offset="1"/>
</linearGradient>
<linearGradient id="a" x1="15.81" x2="39.59" y1="16.07" y2="39.47" gradientUnits="userSpaceOnUse">
<stop stop-color="rgb(209, 209, 209)" offset="0"/>
<stop stop-color="rgb(127, 129, 130)" offset="1"/>
</linearGradient>
</defs>
</svg>
