<!-- by Finnhub --><svg width="56" height="56" viewBox="0 0 56 56" xmlns="http://www.w3.org/2000/svg"><path fill="#F0F3FA" d="M0 0h56v56H0z"/><path d="M34.82 26h-.72c1.15-1.26 3.88-3.6 5.5-2.86 2.04.94 3.4 5.77 3.4 7.1C43 37 38.65 46 27.26 46c-2.11 0-3.3-2.4-3.62-3.59.46-1.04 1.79-3.15 1.73-2.85-.08.38-.15 1.44.37 1.44.43 0 .75-.5 1.01-.83 2.97-3.84 8.3-11.45 8.52-11.72.28-.32.73-.73.73-1.51 0-.63-.79-.89-1.18-.94Z" fill="url(#axsw40tvc)"/><path d="M13.25 28.3c.93-6.62 10.06-15.85 14.79-20.27l3.1 3.08.6 5.39c-.54.08-2.04.47-2.04.18 0-.35-.05-.68-.38-.68-.26 0-.56.37-.68.56-2.5 3.33-7.32 10.19-8.22 11.38C19.29 29.44 19 29.46 19 30c0 .69.7.96 1.06 1.01h1.49l-7.44 1.25c-.29-.66-.86-2.37-.86-3.95Z" fill="url(#bxsw40tvc)"/><path d="M13 31.31a15 15 0 0 1 .3-3.18c0 2.37 1.5 2.88 2.16 2.87H25.9a1.1 1.1 0 0 1 1.06 1.42c-.68 3.26-1.24 5.7-1.5 6.98-.29 1.37-.46 2.02-.46 2.78A3.93 3.93 0 0 0 27.28 46C13.96 44.71 13 32.73 13 31.31Z" fill="url(#cxsw40tvc)"/><path d="M30 14.17A12 12 0 0 0 28.04 8c2.77 2.64 9.07 8.95 11.8 13.25 3.16 5 3.16 8.37 3.16 9.02-.68-3.37-3.34-4.29-4.58-4.27h-9.41a1 1 0 0 1-.97-1.27l1.63-8.23c.11-.48.33-1.6.33-2.33Z" fill="url(#dxsw40tvc)"/><defs><linearGradient id="axsw40tvc" x1="41.69" y1="27.42" x2="25.1" y2="44.85" gradientUnits="userSpaceOnUse"><stop stop-color="#156B00"/><stop offset="1" stop-color="#88C700"/></linearGradient><linearGradient id="bxsw40tvc" x1="22.49" y1="8.03" x2="22.49" y2="32.25" gradientUnits="userSpaceOnUse"><stop stop-color="#009EE0"/><stop offset="1" stop-color="#004AB0"/></linearGradient><linearGradient id="cxsw40tvc" x1="20.17" y1="28.13" x2="20.17" y2="46" gradientUnits="userSpaceOnUse"><stop stop-color="#00CDFF"/><stop offset="1" stop-color="#0087FF"/></linearGradient><linearGradient id="dxsw40tvc" x1="29.47" y1="23.02" x2="40.99" y2="23.77" gradientUnits="userSpaceOnUse"><stop offset=".06" stop-color="#81E700"/><stop offset="1" stop-color="#4FBC00"/></linearGradient></defs></svg>