<?xml version="1.0" encoding="UTF-8"?>
<!-- generated by Finnhub -->
<svg viewBox="0 0 55.5 55.5" xmlns="http://www.w3.org/2000/svg">
<path d="M 0,0 H 55.5 V 55.5 H 0 Z" fill="rgb(239, 242, 248)"/>
<path d="M 13.99,15.485 C 14,14.67 14.68,14 15.51,14 H 40.5 C 41.33,14 42.01,14.67 42.01,15.5 V 40.5 C 42.01,41.33 41.33,42 40.5,42 H 15.5 A 1.5,1.5 0 0,1 14,40.5 V 15.5 Z" fill="url(#b)"/>
<path d="M 13.99,25.685 C 16.04,26.52 22.12,27.72 28.62,27.72 C 35.08,27.72 39.22,26.53 42,25.72 V 15.5 C 42,14.67 41.32,14 40.49,14 H 15.5 A 1.5,1.5 0 0,0 14,15.5 V 25.7 Z" fill="rgb(50, 176, 211)"/>
<path d="M 17.09,35.644999999999996 L 23.48,22.22 A 1.3,1.3 0 0,1 24.66,21.49 C 25.16,21.49 25.63,21.79 25.84,22.24 L 30.89,33.24 L 36.18,20 H 34.5 L 38.5,17 L 40,20 H 38.51 L 32.09,36.28 C 31.92,36.71 31.49,37 31.01,37 C 30.56,37 30.15,36.74 29.96,36.33 L 28.46,33 H 20.46 L 18.84,36.44 A 0.96,0.96 0 0,1 17.96,37 A 0.94,0.94 0 0,1 17.09,35.66 Z M 21.38,31 H 27.55 L 24.52,24.3 L 21.4,31 Z" fill="url(#a)"/>
<defs>
<linearGradient id="b" x1="28" x2="28" y1="14" y2="42" gradientUnits="userSpaceOnUse">
<stop stop-color="rgb(1, 154, 194)" offset=".49"/>
<stop stop-color="rgb(1, 137, 170)" offset="1"/>
</linearGradient>
<linearGradient id="a" x1="28.5" x2="28.5" y1="17" y2="37" gradientUnits="userSpaceOnUse">
<stop stop-color="rgb(254, 249, 247)" offset=".05"/>
<stop stop-color="rgb(197, 187, 186)" offset="1"/>
</linearGradient>
</defs>
</svg>
