<?xml version="1.0" encoding="UTF-8"?>
<!-- generated by Finnhub -->
<svg viewBox="0 0 55.5 55.5" xmlns="http://www.w3.org/2000/svg">
<path d="M 0,0 H 55.5 V 55.5 H 0 Z" fill="rgb(23, 26, 28)"/>
<path d="M 32.99,32.985 H 31 V 21 H 33 V 25.44 C 33.48,24.56 34.67,24 35.65,24 C 37.75,24 39,25.75 39,27.73 V 33 H 37 V 27.89 C 37,26.86 36.06,26 35,26 S 33,26.84 33,27.89 V 33 Z M 23,28.61 A 2.61,2.61 0 0,0 25.54,31.08 A 2.5,2.5 0 0,0 28,28.5 C 28,27.04 26.9,26 25.54,26 A 2.59,2.59 0 0,0 23,28.61 Z M 23,24 V 25.39 C 23.58,24.37 24.84,24 25.95,24 C 28.32,24 30,25.95 30,28.5 S 28.32,33 25.95,33 C 24.85,33 23.7,32.73 23,31.72 V 37 H 21 V 24 H 23 Z M 18,33 V 22 H 20 V 33 H 18 Z M 14.53,33 L 13.83,31 H 9.15 L 8.45,33 H 6 L 10.26,22 H 12.74 L 17,33 H 14.53 Z M 11.43,24.52 L 9.82,29 H 13.19 L 11.57,24.52 H 11.45 Z" fill="rgb(254, 254, 253)"/>
<path d="M 47.99,32.485 V 34 H 50 V 24 H 48 V 25.67 A 4.04,4.04 0 0,0 44.77,24 A 4.86,4.86 0 0,0 40,28.9 C 40,31.6 42.12,34 44.77,34 C 46,34 47.36,33.57 48,32.5 Z M 45,32 A 3,3 0 1,0 45,26 A 3,3 0 0,0 45,32 Z" fill="rgb(254, 254, 253)" fill-rule="evenodd"/>
</svg>
