<?xml version="1.0" encoding="UTF-8"?>
<!-- generated by Finnhub -->
<svg viewBox="0 0 55.5 55.5" xmlns="http://www.w3.org/2000/svg">
<path d="M0 0h55.5v55.5H0z" fill="url(#a)"/>
<path d="M8 36H5l4.46-16h3.14L17 36h-3l-1-4H8.97L8 36Zm2.95-12.15 1.3 5.15H9.7l1.25-5.15ZM15 20h11v3h-4v9.05h-1.43V35H22v1h-3V23h-2v-1.5h-2V20Zm12 16V20h3v6h5v-6h3v1h-1.39v3H38v12h-3v-7h-5v7h-3Zm15.03-14.5H44v-1.06a8.13 8.13 0 0 1 5-.08v3.11a5.37 5.37 0 0 0-2.2-.47c-2.89 0-4.8 2.24-4.8 5s1.91 5 4.8 5c.78 0 1.53-.17 2.2-.47v3.1c-.73.24-1.5.37-2.3.37a7.79 7.79 0 0 1-4.7-1.41V32h-2.13a9.12 9.12 0 0 1-.87-4 8.02 8.02 0 0 1 3.03-6.5ZM46 24h3v3h-3v-3Z" fill="rgb(254, 254, 253)" fill-rule="evenodd"/>
<defs>
<linearGradient id="a" x1="28" x2="28" y2="56" gradientUnits="userSpaceOnUse">
<stop stop-color="rgb(1, 99, 224)" offset="0"/>
<stop stop-color="rgb(1, 2, 134)" offset="1"/>
</linearGradient>
</defs>
</svg>
