<?xml version="1.0" encoding="UTF-8"?>
<!-- generated by Finnhub -->
<svg fill="none" viewBox="0 0 55.5 55.5" xmlns="http://www.w3.org/2000/svg">
<path d="M 0,0 H 55.5 V 55.5 H 0 Z" fill="rgb(239, 242, 248)"/>
<path d="M 19.843999999999998,20.985 H 23.444 L 21.259,35.469 A 0.5,0.5 0 0,0 21.753,36.044 H 25.29 A 0.5,0.5 0 0,0 25.785,35.613 L 27.826,21 H 32.007 A 0.5,0.5 0 0,0 32.492,20.379 L 31.744,17.379 A 0.5,0.5 0 0,0 31.258,17 H 20.748 A 0.5,0.5 0 0,0 20.269,17.357 L 19.374,20.357 A 0.5,0.5 0 0,0 19.854,21 Z M 17.532,34.69 C 15.961,36.149 13.924,36.782 12.035,36.185 C 8.955,35.21 7.435,31.331 8.639,27.521 C 9.845,23.711 13.319,21.411 16.399,22.386 C 17.432,22.712 18.289,23.366 18.928,24.233 L 19.273,22.931 A 0.5,0.5 0 0,1 19.756,22.559 H 21.467 A 0.5,0.5 0 0,1 21.962,23.129 L 20.214,35.618 A 0.5,0.5 0 0,1 19.719,36.048 H 18.373 A 0.5,0.5 0 0,1 17.903,35.718 L 17.532,34.691 Z M 17.145,30.098 C 16.559,31.949 14.981,33.101 13.619,32.67 C 12.258,32.24 11.629,30.39 12.214,28.538 C 12.8,26.687 14.378,25.535 15.74,25.966 C 17.102,26.396 17.73,28.246 17.145,30.098 Z M 34.139,30.915 L 32.569,23.398 A 0.5,0.5 0 0,0 32.079,23 H 29.218 A 0.5,0.5 0 0,0 28.732,23.62 L 31.558,35.085 L 28.073,41.255 A 0.5,0.5 0 0,0 28.509,42 H 31.626 A 0.5,0.5 0 0,0 32.064,41.74 L 40.792,25.85 L 39.515,35.434 A 0.5,0.5 0 0,0 40.011,36 H 42.962 A 0.5,0.5 0 0,0 43.457,35.57 L 44.639,27.19 C 45.107,26.496 46.361,25.36 47.839,25.955 C 47.933,25.993 48.294,25.877 48.346,25.789 C 48.66,25.248 49.339,24.153 49.834,23.364 C 49.959,23.164 49.93,22.902 49.738,22.765 C 48.667,22.004 46.42,21.5 43.935,24.285 C 43.935,24.285 43.785,23.809 43.67,23.394 A 0.53,0.53 0 0,0 43.166,23 H 38.333 A 0.5,0.5 0 0,0 37.884,23.28 L 34.139,30.915 Z" clip-rule="evenodd" fill="url(#a)" fill-rule="evenodd"/>
<defs>
<linearGradient id="a" x1="9.354" x2="49.909" y1="29.5" y2="29.5" gradientUnits="userSpaceOnUse">
<stop stop-color="rgb(209, 163, 106)" offset="0"/>
<stop stop-color="rgb(24, 55, 23)" offset="1"/>
</linearGradient>
</defs>
</svg>
