<?xml version="1.0" encoding="UTF-8"?>
<!-- generated by Finnhub -->
<svg viewBox="0 0 55.5 55.5" xmlns="http://www.w3.org/2000/svg">
<path d="M 0,0 H 55.5 V 55.5 H 0 Z" fill="rgb(239, 242, 248)"/>
<path d="M 12.99,32.144999999999996 C 12.29,32.69 11.43,33 10.5,33 C 8.01,33 6,30.76 6,28 S 8.01,23 10.5,23 C 11.43,23 12.29,23.31 13,23.84 V 23 H 16 V 33 H 13 V 32.16 Z M 13,28 C 13,29.37 12.1,30.49 11,30.49 S 9,29.37 9,28 S 9.9,25.51 11,25.51 S 13,26.63 13,28 Z M 47,32.16 C 46.28,32.69 45.43,33 44.5,33 C 42.01,33 40,30.76 40,28 S 42.01,23 44.5,23 C 45.43,23 46.28,23.31 47,23.84 V 23 H 50 V 33 H 47 V 32.16 Z M 47,28 C 47,29.37 46.1,30.49 45,30.49 S 43,29.37 43,28 S 43.9,25.51 45,25.51 S 47,26.63 47,28 Z" fill="rgb(1, 181, 202)" fill-rule="evenodd"/>
<path d="M 23.99,22.985 H 27 V 25.1 C 27,26.15 26.35,27 25.54,27 H 24 V 23 Z" fill="rgb(190, 213, 46)"/>
<path d="M 20.99,22.985 H 18 V 30 C 18,30.98 19,33 21.5,33 C 23.05,33 23.75,32.18 24,31.78 V 33 H 27 V 30.77 C 27,29.79 26.35,29 25.54,29 H 24 V 29.01 C 24,30.01 23.04,30.41 22.48,30.41 C 21,30.4 21,29.2 21,29 V 23 Z" fill="rgb(1, 181, 202)"/>
<path d="M 31.99,32.985 H 29 V 30.9 C 29,29.85 29.65,29 30.46,29 H 32 V 33 Z" fill="rgb(190, 213, 46)"/>
<path d="M 34.99,32.985 H 38 V 26 C 38,25.02 37,23 34.5,23 C 32.95,23 32.25,23.82 32,24.22 V 23 H 29 V 25.23 C 29,26.21 29.65,27 30.46,27 H 32 V 26.99 C 32,25.99 32.96,25.59 33.52,25.59 C 35,25.6 35,26.8 35,27 V 33 Z" fill="rgb(1, 181, 202)"/>
</svg>
