<?xml version="1.0" encoding="UTF-8"?>
<!-- generated by Finnhub -->
<svg viewBox="0 0 55.5 55.5" xmlns="http://www.w3.org/2000/svg">
<path d="M 0,0 H 55.5 V 55.5 H 0 Z" fill="rgb(239, 242, 248)"/>
<path d="M 7.49,29.985 L 7.97,31 H 8.63 L 6.67,27 H 5.97 L 4,31 H 4.65 L 5.12,30 H 7.5 Z M 7.29,29.51 H 5.33 L 6.31,27.48 L 7.29,29.51 Z M 17.76,31 V 27 H 18.34 V 31 H 17.76 Z M 19.41,27 V 27.59 H 20.01 V 27 H 19.41 Z M 19.41,28 V 31 H 20 V 28 H 19.42 Z M 26.11,28 C 25.24,28 24.45,28.57 24.45,29.49 C 24.45,29.92 24.6,30.29 24.92,30.59 C 25.24,30.87 25.62,31.01 26.07,31 C 26.4,31 26.67,30.93 26.92,30.8 C 27.16,30.65 27.32,30.48 27.42,30.28 L 27.47,31 H 28 V 27 H 27.42 V 28.72 A 1.1,1.1 0 0,0 26.92,28.22 A 1.57,1.57 0 0,0 26.12,28 Z M 27.09,28.74 C 27.31,28.94 27.42,29.18 27.42,29.5 A 1,1 0 0,1 27.09,30.26 C 26.88,30.46 26.59,30.56 26.24,30.56 S 25.6,30.46 25.38,30.27 A 1,1 0 0,1 25.06,29.49 C 25.06,28.82 25.62,28.44 26.26,28.44 C 26.58,28.44 26.86,28.54 27.09,28.74 Z M 30.79,29.17 V 27 H 31.42 V 29.15 C 31.42,29.57 31.53,29.9 31.77,30.13 C 32.01,30.36 32.35,30.47 32.79,30.47 C 33.23,30.47 33.56,30.36 33.8,30.12 C 34.04,29.89 34.17,29.57 34.17,29.15 V 27 H 34.76 V 29.17 C 34.76,29.76 34.59,30.21 34.24,30.53 C 33.9,30.84 33.41,31 32.78,31 C 32.14,31 31.65,30.84 31.3,30.53 A 1.76,1.76 0 0,1 30.79,29.17 Z M 37.09,31 L 35.2,27 H 35.9 L 37.46,30.41 L 39.02,27 H 39.69 L 37.8,31 H 37.09 Z M 39.82,31.53 L 39.77,31.34 C 39.9,31.3 39.99,31.26 40.04,31.2 A 0.33,0.33 0 0,0 40.1,30.96 H 40.09 C 39.7,30.96 39.78,30.43 40.16,30.43 C 40.29,30.43 40.4,30.5 40.46,30.61 C 40.58,30.83 40.51,31.18 40.33,31.34 A 0.85,0.85 0 0,1 39.83,31.53 Z M 43.4,27 V 31 H 44 V 27 H 43.4 Z M 45,28 V 31 H 45.58 V 29.71 C 45.58,29.33 45.69,29.03 45.92,28.81 C 46.14,28.6 46.42,28.49 46.74,28.49 C 47.04,28.49 47.28,28.59 47.44,28.79 C 47.6,28.99 47.68,29.26 47.68,29.63 V 31 H 48.25 V 29.6 C 48.25,29.07 48.15,28.67 47.94,28.4 C 47.73,28.13 47.39,28 46.94,28 C 46.63,28 46.35,28.08 46.1,28.23 A 1.3,1.3 0 0,0 45.57,28.83 V 28 H 45 Z M 48.8,29.5 C 48.8,29.08 48.94,28.72 49.24,28.43 C 49.54,28.13 49.92,28 50.37,28 C 51.11,28 51.59,28.32 51.8,28.96 L 51.32,29.03 C 51.18,28.63 50.87,28.43 50.38,28.43 C 50.07,28.43 49.81,28.53 49.62,28.73 C 49.43,28.91 49.34,29.17 49.34,29.5 C 49.34,29.82 49.44,30.07 49.63,30.27 C 49.83,30.47 50.09,30.57 50.41,30.57 C 50.64,30.57 50.84,30.51 50.99,30.41 C 51.15,30.31 51.26,30.17 51.32,29.98 L 51.8,30.05 C 51.7,30.35 51.54,30.57 51.3,30.75 C 51.05,30.92 50.76,31 50.4,31 C 49.93,31 49.55,30.86 49.25,30.59 A 1.4,1.4 0 0,1 48.8,29.51 Z M 20.72,29.53 C 20.72,29.06 20.87,28.69 21.18,28.41 C 21.48,28.14 21.9,28 22.42,28 C 22.89,28 23.27,28.15 23.57,28.44 C 23.87,28.73 24.02,29.09 24.02,29.53 V 29.65 H 21.27 C 21.29,29.93 21.41,30.15 21.63,30.33 C 21.85,30.5 22.13,30.58 22.48,30.58 C 22.71,30.58 22.92,30.54 23.1,30.46 C 23.28,30.37 23.42,30.26 23.5,30.12 L 23.92,30.28 C 23.65,30.77 23.17,31 22.48,31 C 21.96,31 21.54,30.88 21.21,30.61 A 1.33,1.33 0 0,1 20.72,29.53 Z M 21.28,29.25 H 23.46 A 0.89,0.89 0 0,0 23.14,28.65 A 1.12,1.12 0 0,0 22.4,28.42 C 22.08,28.42 21.83,28.5 21.64,28.64 A 0.92,0.92 0 0,0 21.28,29.25 Z M 9.25,32 V 28 H 9.83 V 28.75 C 10.06,28.25 10.64,28 11.17,28 C 12.04,27.99 12.82,28.66 12.8,29.55 C 12.8,30.45 11.97,31 11.14,31 C 10.64,31 10.04,30.77 9.84,30.28 V 32 H 9.24 Z M 12.19,29.55 C 12.19,28.86 11.66,28.45 11,28.45 C 10.47,28.45 9.94,28.77 9.85,29.33 C 9.75,29.93 10.28,30.56 11,30.56 C 11.59,30.56 12.19,30.19 12.19,29.55 Z M 13.42,28 V 32 H 14 V 30.28 C 14.2,30.77 14.84,31 15.34,31 C 16.17,31 17,30.44 17,29.55 C 17.01,28.65 16.24,27.99 15.37,28 C 14.84,28 14.23,28.25 13.99,28.75 V 28 H 13.42 Z M 15.2,28.45 C 15.86,28.45 16.39,28.86 16.39,29.55 C 16.39,30.19 15.79,30.56 15.2,30.56 C 14.48,30.56 13.95,29.94 14.05,29.33 C 14.13,28.77 14.67,28.45 15.2,28.45 Z"/>
</svg>
