<?xml version="1.0" encoding="UTF-8"?>
<!-- generated by Finnhub -->
<svg viewBox="0 0 55.5 55.5" xmlns="http://www.w3.org/2000/svg">
<path d="M0 0h55.5v55.5H0z" fill="rgb(239, 242, 248)"/>
<path d="m13.75 31.4-3.75 8.6h8.88c1.37 0 2.6-0.79 3.15-2l1.82-4.06-3.63-3.42c-0.75-0.68-1.35-1.52-3.21-1.52s-2.95 1.6-3.26 2.4z" fill="url(#d)"/>
<path d="M27.62 29H17.3c1 0 2 .72 2.38 1.08l9.2 8.6c.39.44 1.45 1.32 2.65 1.32 1.43 0 2.95-.57 3.53-.85l-.7-4.87c-1.02-.95-3.3-3.07-4.22-4A4.43 4.43 0 0 0 27.62 29Z" fill="url(#c)"/>
<path d="M25.45 24h-9.02c.8-1.95 2.6-6.24 3.27-7.85.67-1.62 2.48-2.1 3.3-2.15h2.93l2.66 7.31c-.25 1.9-2.2 2.58-3.14 2.69Z" fill="url(#b)"/>
<path d="m42.12 40h-10.42c2.71-0.42 2.9-2.63 2.66-3.69-2.56-6.16-7.84-18.85-8.43-20.3s-2.24-1.94-2.99-2.01h10.53c1.44 0 2.73 0.87 3.26 2.2l8.06 19.85a2.87 2.87 0 0 1-2.67 3.95z" fill="url(#a)"/>
<defs>
<linearGradient id="d" x1="18.36" x2="17" y1="29.52" y2="40.01" gradientUnits="userSpaceOnUse">
<stop stop-color="rgb(43, 103, 177)" offset=".07"/>
<stop stop-color="rgb(46, 155, 213)" offset="1"/>
</linearGradient>
<linearGradient id="c" x1="26.19" x2="26.19" y1="29" y2="40" gradientUnits="userSpaceOnUse">
<stop stop-color="rgb(75, 184, 231)" offset=".09"/>
<stop stop-color="rgb(168, 221, 233)" offset="1"/>
</linearGradient>
<linearGradient id="b" x1="22.51" x2="22.51" y1="14" y2="24" gradientUnits="userSpaceOnUse">
<stop stop-color="rgb(38, 87, 165)" offset="0"/>
<stop stop-color="rgb(44, 155, 213)" offset="1"/>
</linearGradient>
<linearGradient id="a" x1="33.97" x2="33.97" y1="14" y2="40" gradientUnits="userSpaceOnUse">
<stop stop-color="rgb(224, 224, 223)" offset="0"/>
<stop stop-color="rgb(71, 164, 217)" offset=".32"/>
<stop stop-color="rgb(60, 154, 211)" offset=".69"/>
<stop stop-color="rgb(65, 120, 187)" offset="1"/>
</linearGradient>
</defs>
</svg>
