<!-- by Finnhub --><svg width="56" height="56" viewBox="0 0 56 56" xmlns="http://www.w3.org/2000/svg"><path fill="#F0F3FA" d="M0 0h56v56H0z"/><path d="M4 33V23h4.83a3 3 0 0 1 .85 5.88L12 33h-1.19l-2.25-4H5v4H4Zm1-5h4a2 2 0 1 0 0-4H5v4Z" fill="#9EC640"/><path fill="#2F4038" d="M32 23h1v10h-1z"/><path d="M20 24v-1h-7v10h7v-1h-6v-4h5v-1h-5v-3h6Z" fill="#9EC640"/><path d="M45 24v-1h7v10h-7v-1h6v-4h-5v-1h5v-3h-6Zm-23.8-.65c-.88-2-3.67-5.88-9.2-6.35 3.14 0 7.33.5 10.3 6.35L26 31.4l3.82-8.4H31l-4.43 9.65A.61.61 0 0 1 26 33a.61.61 0 0 1-.57-.35l-4.22-9.3ZM42.79 23 39 31.44 35.24 23H34l4.43 9.64c.22.48.92.48 1.14 0L44 23h-1.21Z" fill="#2F4038"/></svg>