<?xml version="1.0" encoding="UTF-8"?>
<!-- generated by Finnhub -->
<svg viewBox="0 0 55.5 55.5" xmlns="http://www.w3.org/2000/svg">
<path d="M 0,0 H 55.5 V 55.5 H 0 Z" fill="rgb(239, 242, 248)"/>
<path d="M 7.99,23.985 V 26 H 17 V 25.76 C 17,20 21.36,15.53 27,15.04 V 28.23 H 29 V 15.04 C 34.66,15.5 39,19.98 39,25.76 V 26 H 48 V 24 H 40.9 L 40.82,23.67 A 12.76,12.76 0 0,0 28.21,13 H 27.86 A 12.76,12.76 0 0,0 15.26,23.56 L 15.16,24 H 8 Z M 15.96,42 V 40 H 27 V 36 H 29 V 40 H 40.04 V 42 H 15.96 Z"/>
<path d="M 24.729999999999997,28.605 L 25.08,29 H 30.93 L 31.27,28.62 V 30.81 L 30.93,30.46 H 29 V 34.66 L 29.22,35 H 26.76 L 27,34.66 V 30.46 H 25.08 L 24.74,30.81 V 28.61 Z M 17.62,30.76 V 28.72 L 17.97,29 H 23.87 V 29.23 L 20.42,33.66 H 23.56 L 24,33.37 V 35.31 L 23.56,35 H 17.41 V 34.84 L 20.78,30.41 H 17.98 L 17.62,30.76 Z M 11.25,29 L 11.56,29.33 L 9.36,34.73 L 9,35 H 11.28 L 10.92,34.73 L 11.21,34 H 14.29 L 14.59,34.73 L 14.31,35 H 16.79 L 16.44,34.73 L 14.14,29.33 L 14.36,29 H 11.25 Z M 13.88,33 L 12.71,30.15 L 11.6,33 H 13.88 Z M 33,29.3 L 32.56,29 H 38.56 L 39,28.62 V 30.64 L 38.57,30.32 H 35 V 31.28 H 37.05 L 37.39,30.94 V 32.84 L 37.05,32.51 H 35 V 33.54 H 38.57 L 39,33.22 V 35.35 L 38.57,35 H 32.56 L 33,34.7 V 29.3 Z M 46.84,29.51 A 7.34,7.34 0 0,0 44.06,29 C 42.37,29 40,29.77 40,32.22 C 40,34.68 43.2,35 44.06,35 C 44.91,35 45.98,34.88 46.84,34.53 L 47.44,34.65 L 46.09,32.61 V 33.07 C 45.79,33.23 44.94,33.57 44.06,33.57 C 42.95,33.57 41.93,32.96 41.93,32.22 C 41.93,31.49 42.58,30.52 44.06,30.52 C 45.24,30.52 45.84,30.79 45.99,30.92 V 31.32 L 47.21,29.38 L 46.84,29.51 Z" fill="rgb(101, 1, 2)" fill-rule="evenodd"/>
</svg>
