<?xml version="1.0" encoding="UTF-8"?>
<!-- generated by Finnhub -->
<svg viewBox="0 0 55.5 55.5" xmlns="http://www.w3.org/2000/svg">
<path d="M 0,0 H 55.5 V 55.5 H 0 Z" fill="rgb(239, 242, 248)"/>
<path d="M 32.99,24.985 V 31 H 32 V 25 H 33 Z M 20.02,22 V 21.32 L 23.47,17 H 20 V 16 H 24.98 V 16.68 L 21.53,21 H 25 V 22 H 20.02 Z M 14.98,22 H 14 L 15.9,16 H 17.1 L 19,22 H 18.1 L 16.5,17 L 14.98,22 Z M 15.08,20 H 17.92 V 21 H 15.08 V 20 Z M 30,16 H 31 V 19.86 C 31,21.25 29.78,22 28.5,22 S 26,21.25 26,19.86 V 16 H 27 V 19.77 C 27,20.56 27.75,21.04 28.5,21.04 S 30,20.56 30,19.77 V 16 Z M 35,34 H 36 V 37.86 C 36,39.25 34.78,40 33.5,40 S 31,39.25 31,37.86 V 34 H 32 V 37.77 C 32,38.56 32.75,39.04 33.5,39.04 S 35,38.56 35,37.77 V 34 Z M 32,22 V 16 H 33.96 C 35.1,16 36,16.8 36,17.92 C 36,19.07 35.16,20 33.95,20 H 32.55 V 19 H 33.82 C 34.45,19 35,18.55 35,17.92 C 35,17.28 34.45,17 33.82,17 H 33 V 22 H 32 Z M 34.7,19.28 L 36,22 H 34.94 L 33.67,19.28 H 34.7 Z M 20,40 V 34 H 21.96 C 23.1,34 24,34.8 24,35.92 C 24,37.07 23.16,38 21.95,38 H 20.55 V 37 H 21.82 C 22.45,37 23,36.55 23,35.92 C 23,35.28 22.45,35 21.82,35 H 21 V 40 H 20 Z M 22.7,37.28 L 24,40 H 22.94 L 21.67,37.28 H 22.7 Z M 10,31 V 25 H 11 V 27.54 H 14 V 25 H 15 V 31 H 14 V 28.45 H 11 V 31 H 10 Z M 37,22 V 16 H 41 V 17 H 38 V 18.5 H 40.5 V 19.5 H 38 V 21 H 41 V 22 H 37 Z M 21,28 C 21,29.5 20.15,31 18.5,31 S 16,29.5 16,28 S 16.84,25 18.5,25 C 20.15,25 21,26.5 21,28 Z M 20,28 C 20,27.06 19.6,26 18.5,26 S 17,27.06 17,28 S 17.4,30 18.5,30 S 20,28.94 20,28 Z M 30,37 C 30,38.5 29.15,40 27.5,40 S 25,38.5 25,37 S 25.84,34 27.5,34 C 29.15,34 30,35.5 30,37 Z M 29,37 C 29,36.06 28.6,35 27.5,35 S 26,36.06 26,37 S 26.4,39 27.5,39 S 29,37.94 29,37 Z M 22,31 V 25 H 23 V 30 H 25 V 31 H 22 Z M 28.06,31 H 26 V 25 H 28.1 C 29.87,25 31,26.25 31,28 C 31,29.76 29.84,31 28.06,31 Z M 27,30 H 28 C 29.27,30 29.91,29.21 29.91,28 C 29.91,26.8 29.28,26 28.03,26 H 27 V 30 Z M 17.96,36 A 1.4,1.4 0 0,0 16.59,35 C 15.5,35 15,36.03 15,37 C 15,37.98 15.48,39 16.61,39 C 17.44,39 18.01,38.61 18.01,37.79 L 18.24,37.83 H 16.72 V 37 H 19 V 37.7 C 19,39.1 18.02,40 16.6,40 C 14.92,40 14,38.58 14,37 C 14,35.5 14.91,34 16.58,34 C 17.74,34 18.83,34.82 19,36 H 17.96 Z M 39,25 V 31 H 38.02 L 34.99,26.74 V 31 H 34 V 25 H 34.99 L 38.02,29.28 V 25 H 39 Z M 43.96,27 A 1.4,1.4 0 0,0 42.59,26 C 41.5,26 41,27.03 41,28 C 41,28.98 41.48,30 42.61,30 C 43.44,30 44.01,29.61 44.01,28.79 L 44.24,28.83 H 42.72 V 28 H 45 V 28.7 C 45,30.1 44.02,31 42.6,31 C 40.92,31 40,29.58 40,28 C 40,26.5 40.91,25 42.58,25 C 43.74,25 44.83,25.82 45,27 H 43.96 Z M 37,40 V 34 H 38.96 A 2,2 0 0,1 41,36 C 41,37.15 40.16,38 38.95,38 H 37.55 V 37 H 38.92 C 39.52,37 40,36.67 40,36 C 40,35.33 39.52,35 38.92,35 H 38 V 40 H 37 Z"/>
</svg>
