<?xml version="1.0" encoding="UTF-8"?>
<!-- generated by Finnhub -->
<svg viewBox="0 0 55.5 55.5" xmlns="http://www.w3.org/2000/svg">
<path d="M0 0h55.5v55.5H0z" fill="rgb(239, 242, 248)"/>
<path d="m27.33 16.61 3.63 7.07c.05.1.08.2.08.32h10.44a.8.8 0 0 1 .41.1c.13.07.23.18.3.3l.1.2 3.63 7.06a.7.7 0 0 1 0 .64l-.08.16-3.65 7.13a.74.74 0 0 1-.28.3.8.8 0 0 1-.4.11H29.47a.8.8 0 0 1-.41-.1.75.75 0 0 1-.29-.3l-.1-.21-3.63-7.05a.7.7 0 0 1-.08-.34H14.51a.78.78 0 0 1-.41-.1.74.74 0 0 1-.28-.3l-.1-.2-3.65-7.07a.74.74 0 0 1 0-.64l.09-.16 3.65-7.12a.74.74 0 0 1 .28-.3.8.8 0 0 1 .4-.11h12.04a.8.8 0 0 1 .4.11c.13.07.23.17.3.3l.1.2Zm-1.64 13.3 2.9-5.84c.01-.03 0-.05 0-.07a.13.13 0 0 0-.04-.06l-2.9-5.9c-.03-.04-.07-.04-.12-.04H15.49c-.05 0-.1 0-.11.04l-2.96 5.9a.15.15 0 0 0 0 .13l2.96 5.84c.01.03.03.05.06.06.02.02.05.03.08.03h10.02l.09-.03a.16.16 0 0 0 .06-.06Zm14.93 8.01 2.94-5.86a.17.17 0 0 0 0-.14l-2.94-5.84a.15.15 0 0 0-.05-.06.17.17 0 0 0-.09-.02h-10a.18.18 0 0 0-.08.02.16.16 0 0 0-.06.06l-2.93 5.84a.13.13 0 0 0 0 .14l2.93 5.86c.01.03.03.05.06.06.02.02.05.02.08.02h10c.03 0 .06 0 .09-.02a.15.15 0 0 0 .05-.06Z" fill="rgb(254, 170, 95)"/>
</svg>
