<!-- by Finnhub --><svg width="56" height="56" viewBox="0 0 56 56" xmlns="http://www.w3.org/2000/svg"><path fill="#F0F3FA" d="M0 0h56v56H0z"/><path d="m23.65 15-1.9 5H11l2.88-5h9.77ZM30.48 15c3.36 0 7.09 0 9.75.18 3.54.49 6.16 2.64 5.72 6.59-.46 4.16-5.08 6.63-8.33 8.25a.12.12 0 0 0-.06.07.13.13 0 0 0 0 .1c.32.63.6 1.26.86 1.9 1.36 3.45.24 6.62-2.91 8.38A21.6 21.6 0 0 1 25.2 43H14l1.47-4.24c.03-.06 0-.12-.05-.16l-1.2-.87c-.05-.05-.05-.09 0-.13l2.12-1.6c.06-.03.1-.1.12-.16l1.06-3.08c.02-.07 0-.13-.06-.17l-1.15-.88a.11.11 0 0 1 0-.18l2.1-1.57c.06-.05.1-.1.13-.17l.99-2.88c.02-.07 0-.12-.05-.16l-1.24-.93c-.06-.04-.06-.1 0-.14l2.2-1.64c.05-.05.1-.1.12-.17l.34-.87h6.92l-.51 1.47c-.03.07-.01.12.05.17l1.18.9c.05.04.05.08 0 .12l-2.13 1.58c-.05.05-.1.1-.12.17l-1.12 3.22c-.02.07 0 .13.05.17l1.13.85a.07.07 0 0 1 .03.06.07.07 0 0 1-.03.06l-2.02 1.52c-.06.04-.1.1-.12.17l-1 2.88c-.02.08 0 .14.06.2l1.2.9c.05.04.05.08 0 .12-.7.54-1.4 1.07-2.11 1.58-.2.15-.29.36-.25.64.01.06.05.1.11.09 2.82-.08 9.05-.13 9.95-3.85.39-1.6-.32-2.45-1.04-3.78-.7-1.31-.19-2.16 1-2.77 1.93-1 3.27-1.69 4.63-2.96 1.83-1.7 2.36-5.19-.53-6.25a7.49 7.49 0 0 0-2.4-.26h-5.2l1.85-5Z" fill="#080605"/><path d="M28.38 21h-7.14l2.7-7h6.98l-2.54 7Z" fill="#BF912D"/></svg>