<?xml version="1.0" encoding="UTF-8"?>
<!-- generated by Finnhub -->
<svg viewBox="0 0 55.5 55.5" xmlns="http://www.w3.org/2000/svg">
<path d="M 0,0 H 55.5 V 55.5 H 0 Z" fill="rgb(239, 242, 248)"/>
<path d="M 43.42,31.965 A 9.17,9.17 0 0,1 40.2,29.61 A 5.68,5.68 0 0,1 38.74,25.94 C 38.72,24.97 38.92,24.01 39.31,23.07 A 3.15,3.15 0 0,1 41.49,21.14 C 42.39,20.9 43.4,20.97 44.53,21.35 C 44.61,21.38 44.65,21.44 44.65,21.52 V 23.05 C 44.65,23.11 44.62,23.13 44.56,23.11 C 44.14,22.91 43.76,22.78 43.39,22.74 C 42.36,22.64 41.61,23.01 41.12,23.88 C 40.92,24.25 40.78,24.66 40.7,25.12 C 40.63,25.59 40.7,26.1 40.9,26.67 C 41.09,27.17 41.35,27.62 41.68,28.04 C 42.48,29.04 43.45,29.88 44.6,30.58 C 44.64,30.6 44.65,30.63 44.62,30.66 L 43.62,31.94 C 43.57,32 43.5,32.02 43.43,31.98 Z" fill="rgb(40, 53, 141)"/>
<path d="M 3.99,20.995 V 32 H 7.5 C 8.34,31.98 9.1,31.77 9.78,31.35 C 10.33,31.01 10.68,30.57 10.85,30.05 A 3.37,3.37 0 0,0 9.26,26.21 C 9.24,26.19 9.23,26.17 9.26,26.15 C 10.16,25.25 10.56,24.34 10.46,23.38 C 10.28,21.85 9.41,21.06 7.83,21.02 H 4 Z M 8.13,27.31 A 6.37,6.37 0 0,0 6.29,26.41 C 6.22,26.39 6.2,26.34 6.23,26.28 L 6.74,24.96 C 6.77,24.88 6.82,24.86 6.9,24.88 L 6.93,24.9 C 7.53,25.12 7.92,25.15 8.11,25 C 8.42,24.76 8.56,24.3 8.51,23.63 C 8.49,23.27 8.37,23.01 8.16,22.87 A 1.52,1.52 0 0,0 7.32,22.69 L 6.06,22.7 C 6.02,22.7 5.99,22.73 5.99,22.77 V 30.03 C 5.99,30.09 6.02,30.11 6.07,30.11 C 6.92,30.13 7.46,30.14 7.7,30.12 C 8.6,30.08 9,29.62 8.9,28.73 A 1.9,1.9 0 0,0 8.13,27.3 Z" fill="rgb(40, 53, 141)" fill-rule="evenodd"/>
<path d="M 23.29,26.175 C 23.24,26.15 23.23,26.11 23.28,26.07 C 23.67,25.73 23.97,25.34 24.18,24.9 C 24.42,24.42 24.52,23.94 24.48,23.48 A 2.97,2.97 0 0,0 23.98,22 A 2.17,2.17 0 0,0 22.7,21.13 C 22.39,21.05 22,21.01 21.56,21 C 20.43,21 19.29,21 18.13,21.03 C 18.07,21.03 18.03,21.06 18.02,21.11 A 1468.21,1468.21 0 0,0 18.04,31.91 C 18.04,31.96 18.06,31.99 18.11,31.99 C 19.85,32.01 21,32 21.57,31.99 A 4.3,4.3 0 0,0 23.7,31.39 C 24.84,30.67 25.23,29.64 24.87,28.28 C 24.63,27.38 24.1,26.68 23.3,26.19 Z M 20.75,25 C 20.79,24.94 20.85,24.9 20.92,24.91 C 21,24.91 21.14,24.95 21.33,25.01 C 21.54,25.07 21.7,25.11 21.79,25.1 C 22.16,25.08 22.41,24.87 22.54,24.47 C 22.65,24.14 22.67,23.8 22.58,23.44 C 22.48,22.99 22.17,22.74 21.65,22.7 C 21.34,22.68 20.82,22.68 20.09,22.7 C 20.03,22.71 20,22.74 20,22.8 V 30.06 C 20,30.09 20.02,30.11 20.06,30.11 C 20.5,30.13 20.99,30.14 21.52,30.14 C 21.84,30.14 22.12,30.09 22.36,30 C 22.67,29.87 22.86,29.69 22.92,29.44 A 2,2 0 0,0 22.68,27.79 C 22.56,27.59 22.34,27.39 22.04,27.19 C 21.68,26.94 21.12,26.69 20.36,26.42 C 20.28,26.39 20.26,26.34 20.27,26.26 C 20.41,25.79 20.57,25.36 20.75,25 Z" fill="rgb(111, 173, 219)" fill-rule="evenodd"/>
<path d="M 35.4,29.205 C 35.45,29.25 35.47,29.23 35.48,29.18 L 36.45,25.11 C 36.47,25.01 36.53,24.98 36.62,25.01 C 37.12,25.16 37.64,25.39 38.17,25.7 C 38.21,25.72 38.23,25.75 38.24,25.8 C 38.26,25.87 38.24,26 38.17,26.19 C 37.72,27.48 37.06,29.39 36.17,31.9 C 36.15,31.97 36.1,32 36.04,32 H 34.5 C 34.43,32 34.38,31.96 34.35,31.9 L 32.09,25.57 C 32.07,25.52 32.09,25.49 32.14,25.47 A 7,7 0 0,1 33.77,25.06 C 33.86,25.05 33.91,25.08 33.94,25.16 L 35.38,29.19 L 35.4,29.22 Z" fill="rgb(111, 173, 219)"/>
<path d="M 14.31,30.345 C 13.92,30.09 13.64,29.68 13.49,29.13 C 13.47,29.07 13.49,29.05 13.56,29.05 H 17.26 C 17.34,29.05 17.38,29.01 17.39,28.93 C 17.41,28.36 17.42,27.93 17.41,27.63 C 17.38,26.7 17.06,26 16.45,25.53 C 15.83,25.06 15.02,24.9 14.02,25.05 C 13.59,25.12 13.18,25.29 12.81,25.56 C 12.45,25.82 12.17,26.14 11.97,26.51 A 3.86,3.86 0 0,0 11.73,29.85 C 12.2,31.09 13.18,31.8 14.65,31.96 C 15.53,32.06 16.33,31.96 17.03,31.68 C 17.32,31.56 17.46,31.4 17.46,31.18 L 17.45,29.98 C 17.45,29.93 17.42,29.88 17.36,29.86 A 0.16,0.16 0 0,0 17.2,29.86 C 16.75,30.16 16.3,30.36 15.85,30.51 C 15.27,30.7 14.75,30.65 14.32,30.36 Z M 13.41,27.66 C 13.41,27.72 13.44,27.74 13.49,27.74 H 15.64 C 15.69,27.74 15.72,27.71 15.72,27.66 V 27.42 C 15.72,27.12 15.61,26.88 15.4,26.67 C 15.18,26.47 14.93,26.36 14.62,26.36 H 14.5 C 14.2,26.36 13.94,26.46 13.73,26.67 A 1,1 0 0,0 13.41,27.42 V 27.67 Z" fill="rgb(40, 53, 141)" fill-rule="evenodd"/>
<path d="M 28.0,29.055 A 0.08,0.08 0 0,1 28.08,29.04 H 31.85 C 31.91,29.04 31.95,29.01 31.95,28.95 V 28.7 C 31.97,28.07 31.95,27.6 31.92,27.3 A 3,3 0 0,0 31.45,26 C 31.11,25.5 30.58,25.18 29.88,25.06 A 3.16,3.16 0 0,0 27.24,25.66 A 3.43,3.43 0 0,0 26.09,27.66 C 25.91,28.47 26.01,29.3 26.39,30.13 C 26.74,30.9 27.35,31.43 28.24,31.74 C 29.02,32.02 29.88,32.07 30.82,31.91 C 31.24,31.83 31.6,31.69 31.92,31.48 A 0.18,0.18 0 0,0 32,31.33 V 29.92 A 0.1,0.1 0 0,0 31.95,29.83 A 0.11,0.11 0 0,0 31.84,29.83 C 31.75,29.87 31.63,29.93 31.47,30.03 C 30.87,30.35 30.41,30.53 30.07,30.58 C 29.53,30.66 29.08,30.55 28.73,30.26 A 2.7,2.7 0 0,1 28,29.15 A 0.07,0.07 0 0,1 28.01,29.07 Z M 27.96,27.67 C 27.96,27.71 27.99,27.74 28.04,27.74 H 30.18 C 30.24,27.74 30.27,27.71 30.27,27.66 V 27.44 C 30.27,27.14 30.17,26.89 29.95,26.69 C 29.75,26.48 29.49,26.37 29.19,26.37 H 29.03 C 28.73,26.37 28.48,26.47 28.27,26.69 C 28.07,26.89 27.96,27.15 27.96,27.44 V 27.66 Z" fill="rgb(111, 173, 219)" fill-rule="evenodd"/>
<path d="M 50.18,25.405 A 3.58,3.58 0 0,0 46.69,25.48 A 3,3 0 0,0 45.47,26.71 A 4.09,4.09 0 0,0 45.37,30.25 C 45.63,30.81 46.07,31.25 46.67,31.57 C 47.23,31.87 47.87,32.01 48.57,32 C 49.27,31.99 49.9,31.82 50.45,31.5 C 51.05,31.17 51.45,30.71 51.7,30.14 A 4.09,4.09 0 0,0 51.46,26.61 C 51.18,26.11 50.76,25.71 50.19,25.42 Z M 48.52,30.62 C 47.61,30.62 46.87,29.68 46.86,28.53 C 46.86,27.38 47.6,26.45 48.51,26.45 C 49.42,26.45 50.16,27.38 50.16,28.53 S 49.43,30.61 48.52,30.61 Z" fill="rgb(40, 53, 141)"/>
</svg>
