<!-- by Finnhub --><svg xmlns="http://www.w3.org/2000/svg" width="56" height="56" viewBox="0 0 56 56"><path fill="#F0F3FA" d="M0 0h56v56H0z"/><circle cx="28" cy="28" r="17" fill="#76AAC9"/><circle opacity=".6" cx="29.51" cy="26.88" r="13.13" fill="#89B7D1"/><circle opacity=".3" cx="31.15" cy="24.85" r="8.93" fill="#C4D6DE"/><circle opacity=".4" cx="34" cy="22" r="3" fill="#FEFEFE"/><path d="M25.66 11.16c-.4.05-.79.12-1.18.2l.01.03c.13.43.78.3 1.21.17.3-.1.57-.13.89-.13l.13-.17-.89-.03a.4.4 0 0 1-.17-.07ZM22.53 44.1a17 17 0 0 1-.79-.29c-.04-.1-.04-.24.06-.39.22-.35.58-.36.91-.37.17 0 .33 0 .47-.05.13-.04.26-.15.42-.27.33-.26.76-.6 1.54-.59.64.02.98.3 1.15.56.17.27.14.42-.13.59-.18.1-.45.2-.85.23-.4.02-.88 0-1.25-.16a.62.62 0 0 0-.3-.04c-.14.01-.3.07-.42.13-.15.08-.28.2-.4.33-.14.12-.27.24-.41.32ZM24.88 44.71c-.29-.05-.57-.1-.85-.18.2-.1.44-.23.62-.35.36-.23.86-.1.89.07.02.1-.34.3-.66.46ZM23.11 13.43c.12-.37.79-1.25 1.97-1.25.53 0 .84.25 1.1.46.16.14.3.25.47.26 1.25-.03 2.08.7 2.36 1.75.03.12 0 .24-.09.33a.34.34 0 0 1-.52 0c-.45-.53-1.37-1.55-1.65-1.55h-3.64Z" fill="#fff"/><path d="M22.16 15.22c-.17.4-.4 1.08-.52 1.5a.1.1 0 0 0 .15.1l1.17-1.2c.22-.23.53-.35.84-.35h.41c.05 0 .1.02.14.05.05.05.11.08.18.08h1.14c.06 0 .12-.03.17-.07.04-.04.1-.06.15-.06h.36c.28 0 .55.1.75.3l.87.82a.1.1 0 0 0 .16-.02l.26-.45c.27-.46-.2-1.05-1.11-1.08-.44-.02-.87-.2-1.2-.38a2.2 2.2 0 0 0-1.07-.34c-.28 0-.55.08-.8.2a7.5 7.5 0 0 1-1.72.64.45.45 0 0 0-.33.26ZM21.08 21.2c-.07-.64.11-2.1 1.37-2.42.27-.05.83-.17 1.48-.57.33-.2.7-.35 1.1-.35.33 0 .66.1.95.24.27.14.6.28.85.36a.3.3 0 0 1 .22.28c0 .15-.12.27-.27.27-1.7.13-3.34 0-3.34 0-.44 0-1 .65-1.59 1.33-.25.3-.52.6-.77.87ZM25.9 21.8c-.76-.4-1.43-.15-1.9.16-.35.23-.7.28-1.08.34l-.34.06c-1.39.26-1.2 1.58-.95 2.1.4-.28.77-.79 1.12-1.26l.06-.09c.37-.5.96-.46 1.19-.4.68.2 1.32.18 1.77.1.63-.1.66-.74.13-1.02ZM22.06 25.8c-.3-.4-.56-1.3.72-1.64.62-.16 1.23-.33 1.84-.52.62-.2 1.55-.18 1.94 1.2h-.05c-.98-.2-3.48-.72-4.45.96ZM22.72 26.03c-.76.16-.53 1.18-.2 1.15.2-.02.3-.16.4-.3.09-.14.18-.28.36-.32.42-.12.94-.09 1.29-.04.29.04.56.04.85 0a11.7 11.7 0 0 1 2.19.04c-.21-.26-.81-.82-1.55-1.09-.89-.32-1.54-.01-2.02.21l-.04.02c-.33.16-.46.18-.73.22l-.55.11ZM23.7 28.43c-.16-.03-.47.12-.62.36-.14.2-.36-.15-.33-.5.03-.35.24-.39.5-.44l.19-.04c.26-.07.6-.19.95-.36.24-.13.5-.2.78-.2.34 0 .68.12.97.3a2.83 2.83 0 0 0 .84.33c.36.1.56.14.56.55v.26a2.07 2.07 0 0 0-1.48-.26c-.56.06-1.34.15-2.36 0ZM23.6 29.7c.3-.28.81-.62 1.41-.62 1.2 0 2.74 1.4 3.42 2.3.14.18.33.48.03.43-.13-.02-.2-.1-.28-.18l-.03-.03-.02-.02a9.9 9.9 0 0 0-1.5-1.25c-.38-.24-.7-.16-1.07-.07h-.02c-.46.12-.93.11-1.4.1h-.34c-.58 0-.62-.28-.2-.66Z" fill="#fff"/><path d="M24.85 30.92c-.4 0-1.74.56-1.25 1.08.3.32 1.03.32 1.61.25.35-.04.68-.12 1.02-.21.89 0 2.03 1.44 2.5 2.16 0-.27.02-.92 0-1.31-.04-.5-.53-1.18-1.19-1.12a1.6 1.6 0 0 1-.98-.16c-.86-.7-1.24-.7-1.6-.7l-.11.01ZM23.25 35.82c.29-.46.9-1.13 1.73-1.16.4 0 .74.13.99.3.44.29.6.3.83.32.16.01.35.02.67.12.38.1.79.36 1.15.87.14.18.14.31.13.53v.75c-.14.04-.6-.15-1.4-1.08-.4-.47-.86-.47-1.45-.46h-2.54c-.1 0-.16-.1-.11-.19Z" fill="#fff"/><path d="M22.65 37.62c-.09.33-.31.77-.46 1.03a.1.1 0 0 0 .07.14.1.1 0 0 0 .1-.04c.54-.82 1.12-1.23 1.77-1 .51.18 1.24.12 1.64.04l.06-.02.27-.04c.27-.01.66.02.92.15.27.13.74.72 1.03 1.11.13.18.2.2.32-.03.14-.24.22-.65.16-.85-.44-.77-1-.77-1.46-.76-.16 0-.32 0-.45-.03-.18-.05-.3-.16-.44-.29-.23-.21-.5-.46-1.17-.46-.76 0-1.24.37-1.52.6a.78.78 0 0 1-.25.15l-.16-.01c-.17-.03-.33-.06-.43.3ZM26.33 33.32c-.32-.2-.67-.41-.96-.43a4.76 4.76 0 0 0-1.54.33c-.72.3-.27.63.23.77.64.18 1.24.13 1.68.03.5-.1.93-.12 1.34.22.23.18.48.46.73.74.36.4.74.8 1.08 1l-.16-1.02a1.49 1.49 0 0 0-.3-.72c-.46-.61-.86-.6-1.18-.58-.11 0-.21 0-.3-.02-.17-.04-.39-.17-.62-.32ZM27.08 11.82c.5.43 2.1 2.04 2.27 2.23.07-.09.21-.29.16-.4-.07-.12-1.7-1.93-2-2a.4.4 0 0 0-.43.17ZM21.1 19.3c.17-.15.42-.45.7-.78.55-.65 1.2-1.42 1.44-1.42h.82c.09 0 .13.05.17.09.05.04.1.08.17.08h1.18c.08 0 .12-.04.17-.08.04-.04.1-.09.19-.09h.73c.13 0 .25.08.31.2.1.15.25.31.4.3.2-.03.35-.52.39-.76h-.59c-.22 0-.8-.28-1.24-.55-.3-.18-.62-.3-.96-.3-.32 0-.62.11-.89.28-.54.35-1.09.5-1.68.66l-.05.02c-.94.26-1.25 1.24-1.25 2.35ZM21.34 22.81c-.12-.16-.27-.66.1-1.34.36-.68.96-.85 1.21-.85.23 0 .92-.14 1.84-.82a.99.99 0 0 1 1.11 0c.26.18.47.3.63.37.13.06.23.19.23.33 0 .31-.44.34-.76.36h-.03c-.68.05-1.45 0-1.8-.03-.26-.02-.47 0-.7.13a4.7 4.7 0 0 0-1.05 1.05c-.28.33-.54.65-.78.8Z" fill="#fff"/><path d="M20.71 41.69a.8.8 0 0 0-.13.55c.07-.04.67-.55 1.15-1 .17-.16.32-.33.47-.5l.45-.48c.36-.35.95-.73 1.6-.58.58.14 1.24.1 1.52 0 .36-.13 1.13-.07 1.43.2.2.17.34.41.4.56.2 0 .63-.7.5-.85-.31-.3-.78-.32-1.1-.34-.12 0-.22 0-.28-.03-.07-.02-.2-.12-.34-.25-.35-.28-.86-.71-1.33-.66-.36.03-.74.27-1.12.51-.36.23-.72.46-1.08.54-.76.16-1.22.42-1.55 1.24a3.18 3.18 0 0 1-.59 1.09Z" fill="#fff"/><path d="M21.53 43.3c-.3-.18-.65-.77.3-1.71.1-.11.36-.3.75-.37l.36-.06c.46-.07.79-.12 1.25-.52.58-.5 1.38-.21 1.71 0 .25.14.71.4 1.04.52.15.05.27.2.27.34 0 .16-.12.28-.28.28-.24 0-.39-.1-.57-.26-.1-.08-.17-.06-.24-.03a3.97 3.97 0 0 1-1.86 0c-.05 0-.1-.02-.14-.03-.11-.04-.22-.07-.35-.08a.9.9 0 0 0-.7.24c-.33.34-1.16 1.26-1.54 1.67Z" fill="#fff"/></svg>