<!-- by Finnhub --><svg xmlns="http://www.w3.org/2000/svg" width="56" height="56" viewBox="0 0 56 56"><path fill="#F0F3FA" d="M0 0h56v56H0z"/><path d="M36.99 14.63a8.9 8.9 0 0 0-9 8.79 8.9 8.9 0 0 0-9-8.79c-4.97 0-8.99 3.82-8.99 8.79 0 15.37 18 21.21 18 21.21s18-5.83 18-21.21a8.82 8.82 0 0 0-9.01-8.79z" fill="url(#aa4b2lq0c)"/><path d="M36.99 14.63a8.9 8.9 0 0 0-9 8.79 8.9 8.9 0 0 0-9-8.79c-4.97 0-8.99 3.82-8.99 8.79 0 15.37 18 21.21 18 21.21s18-5.83 18-21.21a8.82 8.82 0 0 0-9.01-8.79z" fill="url(#ba4b2lq0c)"/><path d="M45.98 24.35c-1.12 4.91-4.46 10.63-12.4 10.36-6.82-.24-8.47-3.75-9.86-6.72-1.26-2.67-2.3-4.9-6.71-3.93-5.96 1.33-3.86 7.95-1.5 12.64C12.45 33.44 10 29.08 10 23.42a8.81 8.81 0 0 1 9-8.79c4.97 0 9 3.94 9 8.79a8.9 8.9 0 0 1 8.99-8.79 8.82 8.82 0 0 1 8.99 9.72z" fill="url(#ca4b2lq0c)"/><defs><linearGradient id="aa4b2lq0c" x1="34.64" y1="26.13" x2="17.83" y2="41.83" gradientUnits="userSpaceOnUse"><stop stop-color="#7A6FB8"/><stop offset=".47" stop-color="#27BDA2"/><stop offset=".71" stop-color="#27BDA2"/><stop offset="1" stop-color="#1EB7D3"/></linearGradient><linearGradient id="ba4b2lq0c" x1="30.1" y1="43.8" x2="23.97" y2="32.66" gradientUnits="userSpaceOnUse"><stop stop-color="#28AEC7"/><stop offset="1" stop-color="#7A6FB8" stop-opacity="0"/></linearGradient><linearGradient id="ca4b2lq0c" x1="28.89" y1="11.43" x2="21.93" y2="32.91" gradientUnits="userSpaceOnUse"><stop stop-color="#A053C1"/><stop offset=".4" stop-color="#D92AB5"/><stop offset="1" stop-color="#3AA5B9"/></linearGradient></defs></svg>