<?xml version="1.0" encoding="UTF-8"?>
<!-- generated by Finnhub -->
<svg viewBox="0 0 55.5 55.5" xmlns="http://www.w3.org/2000/svg">
<path d="M 0,0 H 55.5 V 55.5 H 0 Z" fill="rgb(1, 60, 78)"/>
<path d="M 27.99,15.004999999999999 C 28.87,15.02 29.47,15.02 29.8,15 C 29.9,15 29.96,15.05 29.96,15.16 C 29.96,17.46 30.41,19.66 31.31,21.78 A 16.96,16.96 0 0,0 36.98,28.97 C 37.01,28.99 37.05,29 37.08,28.97 C 40.39,26.8 43.68,24.02 45.14,20.23 C 45.15,20.2 45.18,20.18 45.21,20.18 H 47.94 A 0.06,0.06 0 0,1 47.99,20.2 A 0.06,0.06 0 0,1 48,20.25 L 46.11,34.69 C 46.11,34.75 46.08,34.77 46.02,34.77 C 43.67,34.77 41.42,34.27 39.27,33.29 C 38.57,32.97 37.81,32.57 37,32.09 A 0.13,0.13 0 0,0 36.86,32.09 A 19.02,19.02 0 0,1 26.31,34.19 A 19.04,19.04 0 0,1 19.15,32.1 A 0.13,0.13 0 0,0 19.01,32.1 C 18.2,32.58 17.44,32.98 16.74,33.3 C 14.59,34.28 12.34,34.77 9.99,34.79 C 9.93,34.79 9.9,34.76 9.89,34.71 L 8,20.26 A 0.07,0.07 0 0,1 8.01,20.21 A 0.06,0.06 0 0,1 8.06,20.19 H 10.79 C 10.82,20.19 10.85,20.21 10.86,20.25 C 12.32,24.03 15.61,26.81 18.92,28.98 C 18.95,29 18.99,29 19.02,28.98 A 16.96,16.96 0 0,0 24.69,21.78 C 25.59,19.66 26.04,17.45 26.04,15.16 C 26.04,15.05 26.09,15 26.2,15 L 28,15.02 Z M 28,31.66 A 16.87,16.87 0 0,0 34.43,30.37 L 34.45,30.34 A 0.07,0.07 0 0,0 34.43,30.28 A 16.05,16.05 0 0,1 31.86,27.4 A 25.7,25.7 0 0,1 28.14,19.4 C 28.13,19.33 28.08,19.3 27.99,19.3 C 27.91,19.3 27.86,19.33 27.84,19.4 A 25.7,25.7 0 0,1 24.14,27.4 A 16.1,16.1 0 0,1 21.54,30.3 A 0.07,0.07 0 0,0 21.55,30.37 L 21.58,30.39 C 23.66,31.23 25.79,31.66 27.99,31.66 Z M 16.33,30.6 L 16.43,30.56 A 0.07,0.07 0 0,0 16.48,30.5 A 0.08,0.08 0 0,0 16.45,30.42 A 21.83,21.83 0 0,1 11.07,24.98 A 0.13,0.13 0 0,0 10.99,24.93 H 10.91 C 10.89,24.95 10.88,24.97 10.89,25.01 A 1785.23,1785.23 0 0,1 11.76,31.99 H 11.77 C 13.29,31.75 14.81,31.29 16.33,30.59 Z M 39.65,30.61 C 41.22,31.3 42.73,31.76 44.19,31.99 C 44.25,31.99 44.28,31.98 44.29,31.92 A 3010.6,3010.6 0 0,1 45.09,24.97 C 45.06,24.91 45.01,24.9 44.93,24.95 A 21.93,21.93 0 0,1 39.53,30.41 C 39.45,30.46 39.45,30.51 39.53,30.56 L 39.65,30.61 Z M 45.8,39 H 10.2 L 10.17,38.99 L 10.16,38.96 L 10,37.04 V 37.03 L 10.01,37.01 H 10.03 L 10.05,37 H 45.97 L 45.99,37.01 V 37.03 L 46,37.04 L 45.84,38.96 L 45.83,38.99 L 45.8,39 Z" fill="rgb(1, 190, 218)"/>
</svg>
