<?xml version="1.0" encoding="UTF-8"?>
<!-- generated by Finnhub -->
<svg viewBox="0 0 55.5 55.5" xmlns="http://www.w3.org/2000/svg">
<path d="M 0,0 H 55.5 V 55.5 H 0 Z" fill="rgb(239, 242, 248)"/>
<path d="M 22.29,17.585 C 22.46,17.63 22.52,17.75 22.5,17.96 C 22.49,18.02 22.55,18.08 22.61,18.06 A 0.1,0.1 0 0,0 22.66,18.03 C 22.72,17.97 22.73,17.89 22.68,17.79 C 22.65,17.72 22.68,17.68 22.75,17.66 C 22.97,17.62 23.19,17.61 23.42,17.64 C 23.49,17.64 23.52,17.68 23.51,17.75 C 23.49,17.84 23.51,17.93 23.53,18.01 C 23.56,18.11 23.6,18.11 23.66,18.04 A 0.27,0.27 0 0,0 23.7,17.77 C 23.68,17.7 23.7,17.67 23.77,17.65 L 23.9,17.62 C 23.94,17.61 23.96,17.58 23.96,17.54 V 16.38 C 23.96,16.29 23.91,16.24 23.83,16.23 C 23.63,16.2 23.5,16.09 23.51,15.88 L 23.5,14.66 C 23.5,14.57 23.54,14.53 23.62,14.53 H 24.45 C 24.58,14.53 24.64,14.59 24.62,14.72 C 24.59,14.9 24.6,15.08 24.63,15.27 C 24.63,15.3 24.65,15.32 24.68,15.33 A 0.1,0.1 0 0,0 24.76,15.33 C 24.82,15.3 24.86,15.25 24.86,15.17 V 14.62 A 0.1,0.1 0 0,1 24.96,14.52 L 25.28,14.53 C 25.38,14.53 25.45,14.49 25.51,14.41 L 27.26,11.87 C 27.29,11.82 27.28,11.79 27.23,11.77 L 27.18,11.74 C 27.12,11.72 27.11,11.68 27.16,11.64 C 27.16,11.63 28.07,11.07 27.66,10.93 C 27.35,10.81 27.23,10.57 27.31,10.21 A 0.4,0.4 0 0,1 27.66,9.87 C 27.7,9.86 27.72,9.84 27.71,9.8 L 27.63,9.51 A 0.2,0.2 0 0,1 27.64,9.38 L 27.77,9.08 C 27.81,8.98 27.87,8.98 27.92,9.06 L 28.11,9.36 C 28.15,9.41 28.14,9.46 28.11,9.52 A 0.7,0.7 0 0,0 27.98,9.75 C 27.97,9.8 27.98,9.83 28.02,9.85 C 28.12,9.89 28.19,9.9 28.27,9.99 C 28.5,10.26 28.5,10.53 28.26,10.79 C 28.18,10.88 28.09,10.9 27.99,10.95 A 0.06,0.06 0 0,0 27.96,10.99 A 0.06,0.06 0 0,0 27.97,11.04 C 28.12,11.26 28.29,11.44 28.5,11.58 C 28.55,11.61 28.56,11.64 28.53,11.69 L 28.49,11.79 A 0.1,0.1 0 0,0 28.49,11.89 L 30.23,14.45 A 0.18,0.18 0 0,0 30.38,14.53 H 30.83 A 0.1,0.1 0 0,1 30.92,14.62 L 30.94,15.23 C 30.94,15.32 30.98,15.35 31.07,15.33 H 31.12 A 0.07,0.07 0 0,0 31.18,15.27 C 31.2,15.06 31.2,14.87 31.18,14.68 C 31.15,14.58 31.19,14.54 31.29,14.54 H 32.21 C 32.27,14.54 32.31,14.56 32.31,14.63 L 32.3,15.96 C 32.3,16.01 32.28,16.04 32.26,16.06 A 0.51,0.51 0 0,1 31.97,16.22 C 31.89,16.24 31.84,16.29 31.84,16.38 L 31.82,17.55 C 31.82,17.58 31.84,17.61 31.87,17.61 L 32.03,17.65 C 32.08,17.67 32.1,17.7 32.08,17.75 L 32.03,17.86 C 32.01,17.92 32.03,17.96 32.08,17.99 C 32.11,18.01 32.16,18.03 32.2,18.03 A 0.08,0.08 0 0,0 32.27,18 A 0.08,0.08 0 0,0 32.28,17.93 L 32.24,17.73 C 32.22,17.69 32.24,17.67 32.29,17.66 C 32.49,17.61 32.71,17.61 32.94,17.64 C 32.99,17.64 33.01,17.67 33.01,17.72 L 33.02,17.94 C 33.02,18 33.06,18.04 33.12,18.06 C 33.16,18.06 33.19,18.06 33.22,18.02 A 0.27,0.27 0 0,0 33.22,17.76 C 33.19,17.71 33.21,17.68 33.26,17.66 L 33.46,17.6 C 33.51,17.59 33.52,17.56 33.5,17.51 C 33.35,17.19 33.43,16.66 33.42,16.31 C 33.42,16.27 33.44,16.25 33.47,16.25 A 0.97,0.97 0 0,1 33.81,16.25 C 33.87,16.25 33.89,16.28 33.88,16.33 L 33.85,16.59 A 0.05,0.05 0 0,0 33.88,16.64 H 33.9 C 34.04,16.64 34.08,16.58 34.03,16.44 C 33.99,16.34 34.03,16.27 34.15,16.26 C 34.25,16.25 34.33,16.21 34.38,16.11 L 35.3,14.45 C 35.33,14.39 35.36,14.39 35.4,14.45 C 35.68,14.93 35.97,15.46 36.26,16.05 C 36.31,16.17 36.41,16.22 36.53,16.26 A 0.1,0.1 0 0,1 36.6,16.36 C 36.6,16.46 36.6,16.56 36.64,16.66 A 0.06,0.06 0 0,0 36.7,16.69 L 36.73,16.68 L 36.75,16.65 L 36.79,16.33 C 36.79,16.26 36.84,16.23 36.9,16.23 H 37.19 C 37.25,16.23 37.29,16.27 37.29,16.34 C 37.31,16.67 37.34,17.34 37.19,17.57 C 37.02,17.82 37.12,18.49 37.19,18.72 C 37.26,18.93 37.13,19.23 37.13,19.47 C 37.12,20.47 37.13,21.47 37.14,22.49 L 37.13,23.89 A 50.33,50.33 0 0,0 37.16,27.73 L 37.26,27.83 C 37.28,27.88 37.3,27.93 37.29,27.98 V 28.16 C 37.28,28.22 37.31,28.26 37.37,28.26 L 43.97,28.67 S 43.99,28.67 43.99,28.69 V 28.73 C 43.59,28.77 43.19,28.79 42.79,28.79 A 20121.1,20121.1 0 0,1 12,28.76 A 0.04,0.04 0 0,1 12,28.73 L 11.99,28.69 V 28.67 L 12.02,28.66 L 18.4,28.26 A 0.1,0.1 0 0,0 18.48,28.2 A 0.1,0.1 0 0,0 18.48,28.16 A 0.59,0.59 0 0,1 18.62,27.73 A 0.17,0.17 0 0,0 18.66,27.62 C 18.69,26.48 18.7,25.27 18.69,23.99 C 18.69,23.75 18.67,23.52 18.63,23.29 C 18.58,22.98 18.69,22.67 18.69,22.36 V 19.54 C 18.69,19.27 18.49,18.94 18.59,18.7 A 2,2 0 0,0 18.67,17.74 C 18.64,17.57 18.51,17.49 18.5,17.32 A 7.8,7.8 0 0,1 18.49,16.29 C 18.49,16.24 18.52,16.22 18.56,16.22 L 18.98,16.26 C 19.02,16.26 19.04,16.29 19.03,16.34 C 18.97,16.53 18.98,16.63 19.06,16.64 C 19.1,16.64 19.14,16.6 19.14,16.56 L 19.15,16.36 C 19.15,16.32 19.17,16.29 19.21,16.26 C 19.31,16.22 19.41,16.16 19.46,16.06 A 94.84,94.84 0 0,1 20.38,14.44 A 0.08,0.08 0 0,1 20.48,14.47 C 20.78,15 21.05,15.53 21.32,16.05 C 21.38,16.15 21.47,16.22 21.57,16.27 C 21.61,16.29 21.63,16.32 21.62,16.37 V 16.55 C 21.62,16.59 21.63,16.62 21.67,16.65 C 21.72,16.67 21.75,16.66 21.76,16.61 A 0.47,0.47 0 0,0 21.76,16.36 C 21.73,16.29 21.76,16.25 21.84,16.24 H 22.18 C 22.25,16.24 22.3,16.28 22.31,16.34 C 22.35,16.74 22.33,17.14 22.25,17.52 C 22.24,17.56 22.25,17.59 22.3,17.6 Z" fill="rgb(0, 72, 119)"/>
<path d="M 27.689999999999998,9.955 H 27.73 C 27.75,9.97 27.76,9.97 27.76,9.99 A 0.6,0.6 0 0,1 27.83,10.27 A 0.1,0.1 0 0,1 27.77,10.36 A 0.31,0.31 0 0,1 27.53,10.36 C 27.43,10.33 27.41,10.27 27.46,10.18 A 0.49,0.49 0 0,1 27.7,9.97 Z M 31.46,15.5 L 31.44,14.83 C 31.44,14.79 31.48,14.75 31.52,14.75 L 31.99,14.78 C 32.03,14.78 32.07,14.82 32.06,14.87 L 32.04,15.77 C 32.04,15.82 32,15.85 31.96,15.85 L 23.82,15.86 A 0.08,0.08 0 0,1 23.74,15.79 V 14.86 A 0.08,0.08 0 0,1 23.81,14.78 L 24.28,14.77 C 24.32,14.77 24.36,14.8 24.36,14.84 L 24.37,15.47 A 0.08,0.08 0 0,0 24.46,15.55 H 25 A 0.08,0.08 0 0,0 25.08,15.47 V 14.85 A 0.08,0.08 0 0,1 25.17,14.77 L 25.77,14.76 C 25.81,14.76 25.85,14.8 25.85,14.84 V 15.47 A 0.08,0.08 0 0,0 25.94,15.55 H 26.54 C 26.59,15.55 26.62,15.52 26.62,15.48 V 14.85 C 26.62,14.8 26.67,14.77 26.71,14.77 H 27.4 C 27.44,14.77 27.48,14.8 27.48,14.85 V 15.47 C 27.48,15.51 27.52,15.55 27.56,15.55 H 28.19 C 28.23,15.55 28.27,15.51 28.27,15.47 L 28.28,14.84 C 28.28,14.8 28.32,14.76 28.37,14.76 L 29.07,14.77 C 29.11,14.77 29.14,14.81 29.14,14.85 V 15.48 C 29.14,15.52 29.18,15.56 29.23,15.56 L 29.85,15.54 C 29.89,15.54 29.93,15.5 29.93,15.46 V 14.84 C 29.93,14.8 29.98,14.76 30.03,14.76 L 30.61,14.78 A 0.08,0.08 0 0,1 30.69,14.86 V 15.46 C 30.69,15.5 30.73,15.54 30.77,15.54 L 31.37,15.58 C 31.41,15.58 31.45,15.54 31.45,15.49 Z M 30.87,16.38 V 17.65 L 30.09,17.64 C 30.04,17.64 30.02,17.66 30.02,17.71 C 30.04,17.82 30.04,17.93 30.02,18.03 C 30.01,18.08 29.97,18.1 29.92,18.07 L 29.83,18.02 A 0.14,0.14 0 0,1 29.77,17.89 L 29.78,17.72 A 0.09,0.09 0 0,0 29.76,17.65 A 0.09,0.09 0 0,0 29.69,17.63 L 29.3,17.64 A 0.09,0.09 0 0,0 29.22,17.73 V 17.84 C 29.21,17.88 29.19,17.91 29.14,17.9 C 28.41,17.9 27.7,17.9 27.01,17.88 C 26.85,17.88 26.71,17.89 26.56,17.91 C 26.51,17.92 26.48,17.91 26.47,17.85 L 26.45,17.71 C 26.44,17.66 26.41,17.63 26.35,17.63 H 25.95 A 0.06,0.06 0 0,0 25.89,17.68 V 17.7 C 25.91,17.8 25.91,17.9 25.89,18 A 0.1,0.1 0 0,1 25.83,18.08 A 0.1,0.1 0 0,1 25.73,18.06 C 25.63,17.98 25.61,17.86 25.67,17.73 A 0.07,0.07 0 0,0 25.67,17.67 A 0.07,0.07 0 0,0 25.61,17.63 H 24.94 C 24.89,17.63 24.86,17.65 24.88,17.7 C 24.9,17.84 24.88,17.97 24.83,18.09 L 24.82,18.11 H 24.8 A 0.04,0.04 0 0,1 24.76,18.09 A 0.48,0.48 0 0,1 24.71,17.72 C 24.73,17.66 24.71,17.64 24.65,17.63 H 24.28 C 24.22,17.63 24.18,17.59 24.18,17.53 L 24.2,16.47 C 24.2,16.41 24.23,16.38 24.29,16.38 H 30.87 Z" fill="rgb(254, 254, 253)"/>
<path d="M 30.849999999999998,17.634999999999998 L 30.87,16.38 H 31.5 A 0.11,0.11 0 0,1 31.61,16.48 V 17.53 C 31.61,17.59 31.58,17.62 31.52,17.62 L 31.12,17.63 A 0.08,0.08 0 0,0 31.06,17.66 A 0.08,0.08 0 0,0 31.04,17.72 C 31.06,17.82 31.06,17.92 31.04,18.02 A 0.07,0.07 0 0,1 30.92,18.06 C 30.79,17.98 30.77,17.84 30.86,17.65 Z" fill="rgb(180, 206, 232)"/>
<path d="M 21.209999999999997,16.925 A 0.05,0.05 0 0,0 21.26,16.92 L 21.27,16.9 V 16.87 A 0.45,0.45 0 0,1 21.25,16.52 C 21.29,16.42 21.33,16.42 21.38,16.51 C 21.43,16.61 21.45,16.71 21.43,16.84 C 21.43,16.89 21.45,16.92 21.5,16.92 L 21.88,16.95 A 0.1,0.1 0 0,0 21.95,16.93 A 0.1,0.1 0 0,0 21.98,16.86 L 22.01,16.51 C 22.01,16.5 22.01,16.49 22.03,16.49 H 22.06 L 22.07,16.5 L 22.09,17.16 A 0.07,0.07 0 0,1 22.03,17.23 H 22 C 21.85,17.2 21.7,17.19 21.54,17.19 C 20.62,17.22 19.71,17.22 18.8,17.21 C 18.73,17.21 18.7,17.17 18.7,17.11 C 18.72,16.91 18.75,16.73 18.8,16.57 C 18.8,16.56 18.81,16.55 18.82,16.56 C 18.84,16.56 18.84,16.57 18.84,16.59 A 0.45,0.45 0 0,0 18.8,16.81 C 18.81,16.86 18.84,16.89 18.89,16.91 C 19.01,16.93 19.14,16.93 19.26,16.9 C 19.33,16.88 19.36,16.84 19.35,16.77 C 19.33,16.67 19.35,16.59 19.41,16.52 C 19.48,16.42 19.54,16.43 19.59,16.54 C 19.62,16.63 19.64,16.71 19.62,16.8 C 19.62,16.86 19.64,16.89 19.7,16.9 L 20.1,16.92 C 20.17,16.92 20.2,16.89 20.2,16.84 L 20.24,16.54 A 0.1,0.1 0 0,1 20.31,16.46 A 0.28,0.28 0 0,1 20.55,16.47 A 0.1,0.1 0 0,1 20.61,16.57 L 20.64,16.82 C 20.64,16.86 20.67,16.88 20.71,16.89 L 21.22,16.94 Z M 34.64,16.9 H 35.09 A 0.07,0.07 0 0,0 35.15,16.82 C 35.11,16.57 35.19,16.44 35.38,16.44 C 35.52,16.44 35.58,16.53 35.58,16.69 C 35.57,16.81 35.62,16.87 35.74,16.89 L 36.04,16.93 C 36.08,16.94 36.1,16.93 36.1,16.88 C 36.11,16.8 36.07,16.47 36.2,16.44 H 36.21 C 36.29,16.45 36.34,16.5 36.36,16.59 L 36.39,16.87 C 36.39,16.92 36.42,16.94 36.46,16.95 C 36.66,16.96 36.84,16.93 37.01,16.87 C 37.04,16.85 37.06,16.87 37.07,16.9 C 37.09,17 37.07,17.1 37.01,17.16 A 0.17,0.17 0 0,1 36.89,17.21 H 33.77 A 0.13,0.13 0 0,1 33.65,17.09 V 16.97 A 0.09,0.09 0 0,1 33.75,16.88 C 33.9,16.92 34.05,16.92 34.22,16.88 C 34.27,16.88 34.29,16.85 34.29,16.79 L 34.27,16.62 C 34.27,16.51 34.49,16.34 34.52,16.52 L 34.58,16.85 C 34.58,16.89 34.6,16.9 34.64,16.9 Z M 35.83,17.64 C 35.95,17.69 36.07,17.72 36.19,17.72 A 0.12,0.12 0 0,1 36.3,17.84 V 18.63 L 33.98,18.62 C 33.93,18.62 33.91,18.59 33.91,18.54 V 17.73 C 33.91,17.68 33.93,17.65 33.98,17.65 L 35.83,17.64 Z M 19.01,17.64 L 21.78,17.67 A 0.07,0.07 0 0,1 21.85,17.74 V 18.53 A 0.07,0.07 0 0,1 21.78,18.6 L 19.01,18.64 A 0.07,0.07 0 0,1 18.94,18.57 V 17.71 A 0.07,0.07 0 0,1 18.98,17.64 H 19.01 Z" fill="rgb(254, 254, 253)"/>
<path d="M 36.29,18.615 V 17.83 A 0.12,0.12 0 0,0 36.19,17.72 A 0.98,0.98 0 0,1 35.83,17.64 H 36.69 C 36.77,17.64 36.82,17.69 36.82,17.78 V 18.5 C 36.82,18.58 36.78,18.62 36.7,18.62 H 36.3 Z" fill="rgb(180, 206, 232)"/>
<path d="M 26.09,18.185 L 26.13,17.86 C 26.13,17.85 26.13,17.84 26.15,17.84 L 26.19,17.83 A 0.06,0.06 0 0,1 26.25,17.84 L 26.27,17.87 V 17.9 L 26.21,18.54 C 26.21,18.58 26.18,18.6 26.13,18.6 A 8.98,8.98 0 0,0 25.15,18.57 C 24.18,18.6 23.23,18.61 22.25,18.61 C 22.2,18.61 22.17,18.58 22.17,18.52 L 22.15,17.88 C 22.15,17.85 22.17,17.83 22.2,17.84 H 22.25 L 22.26,17.85 A 1,1 0 0,0 22.3,18.24 L 22.34,18.28 A 0.1,0.1 0 0,0 22.39,18.3 H 22.84 C 22.96,18.3 23,18.24 22.96,18.13 A 0.21,0.21 0 0,1 23.01,17.86 A 0.16,0.16 0 0,1 23.28,17.96 L 23.29,18.2 A 0.09,0.09 0 0,0 23.38,18.29 H 23.88 C 23.92,18.29 23.94,18.27 23.94,18.23 V 17.98 C 23.94,17.9 23.99,17.86 24.06,17.86 H 24.4 C 24.47,17.86 24.5,17.89 24.5,17.96 C 24.5,18.06 24.5,18.14 24.52,18.21 L 24.54,18.26 L 24.59,18.28 L 25.02,18.32 C 25.07,18.32 25.1,18.3 25.1,18.25 V 17.93 A 0.11,0.11 0 0,1 25.2,17.83 L 25.3,17.82 A 0.1,0.1 0 0,1 25.37,17.85 A 0.1,0.1 0 0,1 25.4,17.92 L 25.42,18.22 C 25.42,18.28 25.45,18.31 25.51,18.31 H 25.98 C 26.05,18.31 26.08,18.28 26.1,18.21 Z M 29.47,18.4 C 29.49,18.23 29.51,18.2 29.53,18.27 L 30.13,18.3 C 30.18,18.3 30.21,18.27 30.22,18.22 L 30.25,17.92 C 30.25,17.84 30.3,17.8 30.38,17.82 H 30.46 C 30.54,17.83 30.59,17.88 30.59,17.96 L 30.6,18.21 C 30.6,18.26 30.63,18.28 30.68,18.28 L 31.18,18.3 C 31.23,18.3 31.26,18.27 31.27,18.22 L 31.29,17.92 C 31.29,17.87 31.33,17.84 31.39,17.83 H 31.71 C 31.76,17.83 31.78,17.84 31.79,17.89 L 31.84,18.16 C 31.85,18.24 31.9,18.28 31.97,18.29 L 32.42,18.31 C 32.48,18.31 32.51,18.29 32.5,18.23 L 32.48,17.97 C 32.48,17.88 32.51,17.83 32.6,17.83 H 32.65 C 32.73,17.82 32.77,17.85 32.78,17.93 L 32.8,18.24 C 32.8,18.29 32.83,18.32 32.88,18.32 H 33.37 C 33.45,18.31 33.48,18.27 33.47,18.19 A 0.6,0.6 0 0,1 33.55,17.85 C 33.58,17.8 33.59,17.81 33.6,17.87 C 33.62,18.08 33.61,18.29 33.6,18.5 A 0.1,0.1 0 0,1 33.47,18.59 C 32.17,18.61 30.83,18.6 29.54,18.61 C 29.51,18.61 29.48,18.59 29.47,18.55 A 0.3,0.3 0 0,1 29.47,18.39 Z" fill="rgb(254, 254, 253)"/>
<path d="M 29.52,18.255 C 29.51,18.19 29.49,18.23 29.47,18.39 L 29.39,17.94 C 29.39,17.91 29.39,17.89 29.41,17.87 L 29.44,17.86 C 29.47,17.86 29.48,17.86 29.5,17.89 C 29.56,17.99 29.57,18.11 29.53,18.27 Z" fill="rgb(180, 206, 232)"/>
<path d="M 26.54,18.105 L 29.13,18.15 C 29.18,18.15 29.21,18.19 29.21,18.23 V 18.58 C 29.21,18.63 29.18,18.66 29.14,18.67 L 26.54,18.7 A 0.08,0.08 0 0,1 26.46,18.62 V 18.2 L 26.47,18.17 A 0.08,0.08 0 0,1 26.55,18.12 Z M 21.78,18.83 H 19 A 0.08,0.08 0 1,0 19,19 H 21.78 C 21.82,19 21.86,18.96 21.86,18.91 A 0.08,0.08 0 0,0 21.78,18.83 Z" fill="rgb(254, 254, 253)"/>
<path d="M 26.049999999999997,18.814999999999998 H 22.47 A 0.07,0.07 0 1,0 22.47,18.97 H 26.07 C 26.1,18.97 26.13,18.94 26.13,18.9 A 0.07,0.07 0 0,0 26.06,18.83 Z M 33.21,18.84 H 29.65 A 0.06,0.06 0 1,0 29.65,18.96 H 33.21 C 33.25,18.96 33.27,18.94 33.27,18.9 A 0.06,0.06 0 0,0 33.21,18.84 Z" fill="rgb(180, 206, 232)"/>
<path d="M 36.72,18.814999999999998 H 33.95 A 0.08,0.08 0 0,0 33.95,18.99 H 36.73 C 36.78,18.99 36.81,18.95 36.81,18.91 A 0.08,0.08 0 0,0 36.73,18.83 Z" fill="rgb(254, 254, 253)"/>
<path d="M 29.29,18.945 H 26.4 A 0.08,0.08 0 0,0 26.4,19.12 H 29.3 C 29.34,19.12 29.37,19.09 29.37,19.05 A 0.08,0.08 0 0,0 29.29,18.96 Z" fill="rgb(180, 206, 232)"/>
<path d="M 25.419999999999998,19.155 A 21.31,21.31 0 0,0 25.43,22.78 L 22.51,22.83 L 22.5,19.27 C 22.5,19.21 22.53,19.17 22.6,19.17 H 25.43 Z" fill="rgb(254, 254, 253)"/>
<path d="M 25.889999999999997,22.835 A 1.08,1.08 0 0,0 25.43,22.79 A 21.3,21.3 0 0,1 25.43,19.17 H 25.83 C 25.89,19.17 25.92,19.21 25.92,19.26 L 25.9,22.85 Z" fill="rgb(180, 206, 232)"/>
<path d="M 32.79,19.155 C 32.76,19.37 32.73,19.54 32.73,19.7 C 32.71,20.62 32.71,21.55 32.73,22.47 A 0.8,0.8 0 0,0 32.81,22.7 C 32.84,22.74 32.83,22.77 32.79,22.79 A 0.26,0.26 0 0,1 32.69,22.81 L 29.99,22.83 A 0.1,0.1 0 0,1 29.89,22.73 L 29.87,19.24 A 0.07,0.07 0 0,1 29.91,19.18 H 32.81 Z" fill="rgb(254, 254, 253)"/>
<path d="M 33.25,19.215 L 33.22,22.24 V 22.7 A 0.12,0.12 0 0,1 33.09,22.82 H 32.69 L 32.79,22.79 C 32.83,22.77 32.83,22.74 32.81,22.7 A 0.49,0.49 0 0,1 32.74,22.47 C 32.71,21.55 32.71,20.62 32.73,19.7 C 32.73,19.54 32.76,19.36 32.81,19.17 A 0.9,0.9 0 0,1 33.26,19.23 Z" fill="rgb(180, 206, 232)"/>
<path d="M 21.819999999999997,21.155 V 22.75 C 21.83,22.77 21.83,22.78 21.81,22.79 A 0.05,0.05 0 0,1 21.78,22.8 H 19 C 18.96,22.8 18.94,22.78 18.94,22.73 V 19.4 C 18.94,19.35 18.97,19.33 19.01,19.33 C 19.94,19.3 20.85,19.31 21.76,19.33 C 21.8,19.33 21.82,19.36 21.82,19.4 V 21.18 Z M 36.31,19.32 V 22.79 H 33.95 C 33.91,22.79 33.89,22.77 33.89,22.73 V 19.34 L 33.92,19.33 H 36.32 Z" fill="rgb(254, 254, 253)"/>
<path d="M 36.31,22.785 V 19.32 L 36.73,19.33 C 36.78,19.33 36.81,19.36 36.81,19.4 L 36.79,22.73 C 36.79,22.75 36.79,22.76 36.77,22.77 A 0.06,0.06 0 0,1 36.74,22.78 L 36.32,22.79 Z" fill="rgb(180, 206, 232)"/>
<path d="M 29.259999999999998,19.345 C 29.27,19.43 29.24,19.51 29.18,19.6 A 0.19,0.19 0 0,0 29.15,19.7 V 22.46 C 29.15,22.5 29.17,22.53 29.18,22.56 C 29.24,22.65 29.28,22.73 29.28,22.8 L 26.15,22.81 V 19.42 C 26.15,19.38 26.17,19.37 26.2,19.37 L 29.27,19.36 Z" fill="rgb(254, 254, 253)"/>
<path d="M 29.529999999999998,22.685 C 29.52,22.77 29.44,22.81 29.29,22.8 A 0.73,0.73 0 0,0 29.19,22.56 A 0.2,0.2 0 0,1 29.16,22.46 V 19.71 C 29.16,19.67 29.16,19.63 29.18,19.61 A 0.5,0.5 0 0,0 29.27,19.36 A 0.84,0.84 0 0,1 29.55,19.36 C 29.59,19.36 29.61,19.38 29.61,19.42 L 29.54,22.69 Z" fill="rgb(180, 206, 232)"/>
<path d="M 29.529999999999998,22.685 C 29.6,22.91 29.5,23.1 29.27,23.11 A 88.45,88.45 0 0,1 26.29,23.11 A 0.1,0.1 0 0,1 26.25,23.08 A 0.71,0.71 0 0,1 26.15,22.81 H 29.29 C 29.44,22.81 29.52,22.77 29.54,22.69 Z M 25.43,22.79 C 25.59,22.77 25.74,22.79 25.9,22.85 L 25.87,23.09 C 25.87,23.13 25.84,23.14 25.8,23.14 A 63,63 0 0,1 24.26,23.12 C 23.99,23.12 23.72,23.12 23.46,23.14 A 3.55,3.55 0 0,1 22.57,23.08 A 0.08,0.08 0 0,1 22.55,23.03 L 22.51,22.83 L 25.43,22.79 Z" fill="rgb(153, 153, 152)"/>
<path d="M 21.729999999999997,22.985 H 19 A 0.07,0.07 0 0,0 18.93,23.07 V 23.13 C 18.93,23.17 18.96,23.2 19,23.2 H 21.74 C 21.78,23.2 21.81,23.17 21.81,23.14 V 23.07 A 0.07,0.07 0 0,0 21.74,23 Z" fill="rgb(254, 254, 253)"/>
<path d="M 36.690000000000005,22.995 L 34,22.98 C 33.95,22.98 33.9,23.02 33.9,23.07 V 23.12 C 33.9,23.17 33.95,23.21 34,23.21 L 36.7,23.24 C 36.76,23.24 36.8,23.2 36.8,23.15 V 23.1 C 36.8,23.05 36.76,23.01 36.7,23.01 Z" fill="rgb(180, 206, 232)"/>
<path d="M 25.4,23.445 A 29.94,29.94 0 0,0 25.39,26.92 C 25.39,26.97 25.35,26.99 25.26,26.99 H 22.58 C 22.56,26.99 22.54,26.99 22.52,26.97 A 0.08,0.08 0 0,1 22.5,26.92 V 23.52 C 22.5,23.48 22.55,23.43 22.6,23.43 L 25.41,23.46 Z" fill="rgb(254, 254, 253)"/>
<path d="M 25.25,26.985 C 25.35,27 25.39,26.97 25.39,26.92 C 25.33,25.77 25.34,24.62 25.41,23.46 L 25.83,23.44 A 0.09,0.09 0 0,1 25.93,23.52 L 25.91,26.92 A 0.1,0.1 0 0,1 25.85,27.01 A 0.1,0.1 0 0,1 25.82,27.01 L 25.26,26.99 Z" fill="rgb(180, 206, 232)"/>
<path d="M 29.15,23.415 L 29.13,25.29 C 29.12,25.48 29.13,25.66 29.16,25.85 C 29.19,26.03 29.2,26.23 29.19,26.44 C 29.19,26.5 29.19,26.55 29.21,26.6 A 0.4,0.4 0 0,0 29.31,26.72 C 29.37,26.76 29.37,26.84 29.31,26.95 L 28.99,26.98 H 28.96 A 0.09,0.09 0 0,1 28.9,26.9 C 28.92,26.55 28.92,26.2 28.9,25.88 C 28.85,24.73 26.78,24.72 26.85,26.09 C 26.87,26.37 26.87,26.66 26.85,26.94 C 26.85,26.96 26.85,26.97 26.83,26.97 L 26.17,27.01 C 26.15,27.01 26.14,27 26.14,26.98 V 23.5 L 26.16,23.46 A 0.05,0.05 0 0,1 26.2,23.45 L 29.16,23.43 Z" fill="rgb(254, 254, 253)"/>
<path d="M 29.299999999999997,26.935 C 29.37,26.85 29.37,26.76 29.31,26.72 A 0.28,0.28 0 0,1 29.21,26.6 A 0.34,0.34 0 0,1 29.19,26.44 C 29.2,26.24 29.19,26.04 29.16,25.84 A 2.78,2.78 0 0,1 29.13,25.29 L 29.16,23.43 L 29.43,23.44 A 0.16,0.16 0 0,1 29.59,23.59 C 29.66,24.69 29.57,25.81 29.59,26.89 C 29.6,26.93 29.59,26.95 29.55,26.96 A 0.63,0.63 0 0,1 29.31,26.96 Z" fill="rgb(180, 206, 232)"/>
<path d="M 32.93,23.445 C 32.88,23.43 32.84,23.47 32.8,23.56 A 37.48,37.48 0 0,0 32.8,26.67 A 0.1,0.1 0 0,0 32.93,26.72 A 0.17,0.17 0 0,0 33.03,26.63 C 33.04,26.59 33.07,26.58 33.12,26.59 C 33.15,26.6 33.18,26.62 33.21,26.66 C 33.23,26.76 33.22,26.86 33.19,26.93 A 0.08,0.08 0 0,1 33.11,26.99 H 29.92 L 29.88,26.96 A 0.06,0.06 0 0,1 29.86,26.92 L 29.87,23.52 C 29.87,23.48 29.9,23.45 29.94,23.45 H 32.94 Z" fill="rgb(254, 254, 253)"/>
<path d="M 33.2,26.645 A 0.24,0.24 0 0,0 33.11,26.59 C 33.07,26.58 33.04,26.59 33.02,26.63 A 0.17,0.17 0 0,1 32.92,26.73 A 0.1,0.1 0 0,1 32.81,26.68 A 37.48,37.48 0 0,1 32.81,23.57 C 32.84,23.47 32.88,23.43 32.94,23.46 H 33.16 A 0.06,0.06 0 0,1 33.22,23.52 L 33.21,26.66 Z" fill="rgb(180, 206, 232)"/>
<path d="M 21.799999999999997,26.905 C 21.81,26.95 21.8,26.97 21.77,26.98 H 19 A 0.06,0.06 0 0,1 18.94,26.92 V 23.56 C 18.94,23.53 18.97,23.5 19,23.5 H 21.76 C 21.79,23.5 21.82,23.54 21.82,23.57 V 26.92 Z M 36.2,23.5 C 36.3,23.54 36.35,23.58 36.35,23.64 C 36.38,24.18 36.4,25.07 36.4,26.29 C 36.4,26.42 36.39,26.65 36.36,26.99 L 34.01,26.97 A 0.12,0.12 0 0,1 33.89,26.85 V 23.55 C 33.89,23.51 33.91,23.49 33.95,23.49 L 36.2,23.5 Z" fill="rgb(254, 254, 253)"/>
<path d="M 36.35,26.965 C 36.39,26.65 36.4,26.42 36.4,26.28 C 36.4,25.07 36.38,24.18 36.35,23.64 C 36.35,23.58 36.3,23.54 36.2,23.5 H 36.73 A 0.1,0.1 0 0,1 36.81,23.55 A 0.1,0.1 0 0,1 36.82,23.59 L 36.8,26.86 C 36.8,26.89 36.78,26.92 36.76,26.94 A 0.12,0.12 0 0,1 36.68,26.98 H 36.36 Z" fill="rgb(180, 206, 232)"/>
<path d="M 18.919999999999998,27.425 A 0.08,0.08 0 0,1 19.01,27.36 H 20.75 A 8.95,8.95 0 0,1 21.78,27.43 C 21.83,27.45 21.86,27.46 21.86,27.48 V 27.6 C 21.86,27.64 21.74,27.67 21.53,27.7 C 21.33,27.72 21.04,27.73 20.75,27.73 H 19 A 0.08,0.08 0 0,1 18.92,27.66 V 27.44 Z M 25.78,27.35 H 22.61 A 0.11,0.11 0 0,0 22.5,27.47 V 27.64 C 22.5,27.7 22.55,27.75 22.6,27.75 H 25.78 C 25.84,27.75 25.89,27.7 25.89,27.64 V 27.46 A 0.11,0.11 0 0,0 25.79,27.36 Z M 26.88,27.49 V 27.95 A 0.14,0.14 0 0,1 26.75,28.09 L 26.41,28.1 A 0.14,0.14 0 0,1 26.27,28 L 26.13,27.51 A 0.14,0.14 0 0,1 26.27,27.34 L 26.75,27.35 A 0.14,0.14 0 0,1 26.88,27.49 Z M 29.86,27.43 C 29.86,27.38 29.9,27.34 29.95,27.34 H 32.28 C 32.56,27.34 32.88,27.34 33.15,27.44 C 33.2,27.45 33.22,27.47 33.22,27.49 V 27.63 C 33.22,27.78 32.37,27.76 32.28,27.76 H 29.95 A 0.09,0.09 0 0,1 29.86,27.66 V 27.43 Z M 36.65,27.36 H 34 A 0.14,0.14 0 0,0 33.87,27.5 V 27.57 C 33.87,27.65 33.93,27.71 34,27.71 H 36.64 C 36.72,27.71 36.78,27.64 36.78,27.57 V 27.5 A 0.14,0.14 0 0,0 36.64,27.36 Z M 29.5,27.38 L 28.98,27.37 A 0.06,0.06 0 0,0 28.92,27.42 L 28.91,27.99 C 28.91,28.03 28.93,28.05 28.96,28.05 L 29.49,28.06 C 29.52,28.06 29.55,28.04 29.55,28.01 V 27.44 A 0.06,0.06 0 0,0 29.5,27.38 Z" fill="rgb(254, 254, 253)"/>
<path d="M 25.83,27.925 H 22.6 A 0.07,0.07 0 1,0 22.6,28.08 H 25.84 C 25.88,28.08 25.91,28.05 25.91,28.01 A 0.07,0.07 0 0,0 25.84,27.94 Z M 21.82,27.95 H 18.77 A 0.06,0.06 0 0,0 18.77,28.07 H 21.82 C 21.85,28.07 21.88,28.04 21.88,28.01 A 0.06,0.06 0 0,0 21.82,27.95 Z M 33.12,27.94 L 29.94,27.95 A 0.06,0.06 0 1,0 29.94,28.07 H 33.12 C 33.15,28.07 33.18,28.04 33.18,28.01 A 0.06,0.06 0 0,0 33.12,27.94 Z M 36.97,27.95 H 33.97 A 0.07,0.07 0 1,0 33.97,28.09 H 36.97 C 37,28.09 37.03,28.05 37.03,28.02 A 0.07,0.07 0 0,0 36.97,27.95 Z" fill="rgb(180, 206, 232)"/>
<path d="M 27.59,17.634999999999998 A 0.09,0.09 0 0,1 27.52,17.56 V 16.89 A 0.3,0.3 0 0,1 27.62,16.68 A 0.31,0.31 0 0,1 27.83,16.58 H 27.86 C 27.94,16.58 28.02,16.62 28.08,16.68 C 28.14,16.73 28.18,16.81 28.18,16.89 V 17.56 A 0.09,0.09 0 0,1 28.08,17.65 H 27.61 Z M 35.18,18.43 A 0.13,0.13 0 0,1 35.05,18.29 V 18.15 C 35.05,18.07 35.09,17.99 35.14,17.93 A 0.27,0.27 0 0,1 35.34,17.85 H 35.38 C 35.55,17.85 35.66,18.01 35.66,18.17 V 18.31 A 0.13,0.13 0 0,1 35.52,18.44 H 35.18 Z M 20.23,18.41 A 0.1,0.1 0 0,1 20.13,18.3 L 20.14,18.14 A 0.3,0.3 0 0,1 20.24,17.92 A 0.28,0.28 0 0,1 20.45,17.84 H 20.49 A 0.3,0.3 0 0,1 20.69,17.95 C 20.74,18.02 20.77,18.1 20.76,18.18 L 20.75,18.34 A 0.1,0.1 0 0,1 20.64,18.44 L 20.23,18.41 Z M 24.01,20.9 A 0.09,0.09 0 0,1 23.95,20.87 A 0.08,0.08 0 0,1 23.93,20.81 V 20.21 L 23.95,20.07 A 0.48,0.48 0 0,1 23.99,19.95 A 0.24,0.24 0 0,1 24.05,19.87 A 0.11,0.11 0 0,1 24.13,19.85 H 24.22 C 24.27,19.85 24.32,19.89 24.35,19.95 A 0.7,0.7 0 0,1 24.4,20.21 L 24.39,20.82 A 0.08,0.08 0 0,1 24.3,20.9 H 24.01 Z M 24.02,22.32 A 0.1,0.1 0 0,1 23.93,22.22 V 21.53 L 23.96,21.43 A 0.29,0.29 0 0,1 24,21.34 A 0.21,0.21 0 0,1 24.07,21.28 A 0.16,0.16 0 0,1 24.15,21.26 H 24.19 C 24.24,21.26 24.29,21.29 24.33,21.34 C 24.37,21.4 24.39,21.47 24.39,21.54 V 22.23 A 0.1,0.1 0 0,1 24.36,22.3 A 0.1,0.1 0 0,1 24.29,22.32 H 24.02 Z M 31.34,20.9 A 0.07,0.07 0 0,1 31.28,20.83 V 20.19 L 31.31,20.06 C 31.35,19.91 31.43,19.84 31.57,19.84 C 31.63,19.84 31.68,19.88 31.72,19.95 A 0.5,0.5 0 0,1 31.78,20.2 L 31.76,20.84 A 0.07,0.07 0 0,1 31.69,20.91 L 31.34,20.9 Z M 31.38,22.33 A 0.1,0.1 0 0,1 31.28,22.23 L 31.3,21.56 C 31.3,21.48 31.32,21.41 31.36,21.36 C 31.4,21.3 31.46,21.26 31.51,21.27 H 31.57 C 31.71,21.27 31.77,21.45 31.77,21.57 V 22.23 A 0.1,0.1 0 0,1 31.67,22.33 H 31.38 Z" fill="rgb(0, 72, 119)"/>
<path d="M 21.5,19.515 A 0.13,0.13 0 0,0 21.38,19.65 V 22.49 C 21.38,22.56 21.43,22.62 21.5,22.62 C 21.58,22.62 21.63,22.56 21.63,22.49 V 19.65 A 0.13,0.13 0 0,0 21.51,19.53 Z" fill="rgb(180, 206, 232)"/>
<path d="M 20.549999999999997,19.835 H 20.34 A 0.2,0.2 0 0,0 20.14,20.05 V 22.15 C 20.14,22.25 20.22,22.35 20.34,22.35 H 20.55 A 0.2,0.2 0 0,0 20.75,22.15 L 20.76,20.05 A 0.2,0.2 0 0,0 20.56,19.85 Z M 35.46,19.85 H 35.26 A 0.2,0.2 0 0,0 35.06,20.05 V 22.13 C 35.06,22.25 35.14,22.33 35.26,22.33 H 35.46 A 0.2,0.2 0 0,0 35.66,22.13 V 20.05 A 0.2,0.2 0 0,0 35.46,19.85 Z M 27.47,22.33 A 0.12,0.12 0 0,1 27.35,22.21 V 20.36 C 27.35,20.11 27.53,19.86 27.8,19.86 H 27.9 C 28.17,19.86 28.35,20.11 28.35,20.36 V 22.21 C 28.35,22.27 28.3,22.33 28.23,22.33 H 27.47 Z M 23.95,26.55 A 0.1,0.1 0 0,1 23.85,26.45 V 24.35 A 0.3,0.3 0 0,1 23.94,24.15 A 0.28,0.28 0 0,1 24.14,24.05 H 24.19 A 0.28,0.28 0 0,1 24.39,24.15 A 0.3,0.3 0 0,1 24.48,24.35 V 26.45 A 0.1,0.1 0 0,1 24.38,26.55 H 23.95 Z M 31.33,26.55 A 0.11,0.11 0 0,1 31.23,26.44 V 24.38 L 31.24,24.25 A 0.34,0.34 0 0,1 31.3,24.15 A 0.26,0.26 0 0,1 31.38,24.08 A 0.2,0.2 0 0,1 31.48,24.06 H 31.58 C 31.65,24.06 31.72,24.09 31.77,24.16 C 31.81,24.21 31.84,24.29 31.84,24.38 V 26.44 A 0.1,0.1 0 0,1 31.73,26.54 H 31.33 Z" fill="rgb(0, 72, 119)"/>
<path d="M 21.52,23.735 A 0.11,0.11 0 0,0 21.41,23.86 V 26.58 C 21.41,26.64 21.46,26.68 21.51,26.68 H 21.52 C 21.58,26.68 21.63,26.64 21.63,26.58 V 23.86 A 0.11,0.11 0 0,0 21.53,23.76 Z" fill="rgb(180, 206, 232)"/>
<path d="M 20.259999999999998,26.535 A 0.13,0.13 0 0,1 20.14,26.42 V 24.37 C 20.14,24.22 20.24,24.05 20.41,24.06 H 20.49 C 20.56,24.06 20.63,24.09 20.69,24.15 C 20.73,24.21 20.76,24.29 20.76,24.37 V 26.42 A 0.13,0.13 0 0,1 20.63,26.55 H 20.27 Z M 35.46,24.07 H 35.26 A 0.2,0.2 0 0,0 35.06,24.27 V 26.37 C 35.06,26.47 35.14,26.56 35.26,26.56 H 35.46 A 0.2,0.2 0 0,0 35.66,26.36 V 24.26 A 0.2,0.2 0 0,0 35.46,24.06 Z M 41,37 H 41.5 V 40.5 H 43 V 41 H 41 V 37 Z M 38,38.05 L 37.31,39.41 H 38.68 L 37.99,38.05 Z M 38,37 L 40,41 H 39.47 L 38.89,39.84 H 37.09 L 36.52,41 H 36 L 38,37 Z M 32.06,37 H 34.43 V 37.4 H 33.5 V 41 H 33 V 37.4 H 32.06 V 37 Z M 29,37 H 29.5 V 41 H 29 V 37 Z M 24.5,38.8 H 24.87 C 25.31,38.8 25.57,38.55 25.57,38.11 C 25.57,37.67 25.33,37.44 24.85,37.44 H 24.5 V 38.8 Z M 24,37 H 24.84 C 25.57,37 26,37.4 26,38.1 C 26,38.81 25.57,39.23 24.84,39.23 H 24.5 V 41 H 24 V 37 Z M 20,38.05 L 19.31,39.41 H 20.68 L 19.99,38.05 Z M 20,37 L 22,41 H 21.47 L 20.89,39.84 H 19.09 L 18.52,41 H 18 L 20,37 Z M 15,40.23 V 40.73 C 14.66,40.9 14.27,41 13.96,41 A 1.96,1.96 0 0,1 12,39.09 C 12,37.99 12.77,37 13.9,37 C 14.28,37 14.52,37.05 14.9,37.21 L 15,37.25 V 37.76 A 1.8,1.8 0 0,0 13.96,37.44 C 13.1,37.44 12.5,38.1 12.5,38.97 C 12.5,39.89 13.08,40.55 13.97,40.55 C 14.33,40.55 14.59,40.47 15,40.23 Z M 39,31 L 42.5,34.76 V 31 H 43 V 36 L 39.5,32.28 V 36 H 39 V 31 Z M 33.52,31.5 C 32.32,31.54 31.5,32.37 31.5,33.51 C 31.5,34.62 32.37,35.5 33.49,35.5 C 34.63,35.5 35.5,34.64 35.5,33.53 C 35.5,32.46 34.6,31.5 33.52,31.5 Z M 33.5,31 A 2.48,2.48 0 0,1 36,33.52 A 2.42,2.42 0 0,1 33.5,36 A 2.43,2.43 0 0,1 31,33.49 C 31,32.09 32.11,31.01 33.5,31.01 Z M 25.5,31.54 V 33.24 H 26.13 C 26.9,33.24 27.23,32.98 27.23,32.38 C 27.23,31.79 26.89,31.54 26.11,31.54 H 25.51 Z M 25,31 H 26.12 C 27.26,31 27.85,31.47 27.85,32.39 C 27.85,33.19 27.37,33.66 26.45,33.77 L 28,36 H 27.31 L 25.78,33.8 H 25.5 V 36 H 25 V 31 Z M 20.5,32.3 L 19.64,34.01 H 21.34 L 20.49,32.31 Z M 20.5,31 L 23,36 H 22.33 L 21.61,34.55 H 19.37 L 18.64,36 H 18 L 20.5,31 Z M 13.5,31.5 V 33.16 H 14.1 C 14.62,33.16 15,32.8 15,32.31 C 15,31.83 14.67,31.5 14.02,31.5 H 13.5 Z M 13.5,33.72 V 35.5 H 14.05 C 14.95,35.5 15.5,35.16 15.5,34.57 C 15.5,34 14.97,33.72 14.1,33.72 H 13.5 Z M 13,31 H 13.97 C 15.02,31 15.5,31.47 15.5,32.29 C 15.5,32.74 15.43,33.06 15,33.32 C 15.56,33.54 16,33.92 16,34.57 C 16,35.4 15.32,35.99 14.36,35.99 H 13 V 30.99 Z" fill="rgb(0, 72, 119)"/>
</svg>
