<?xml version="1.0" encoding="UTF-8"?>
<!-- generated by Finnhub -->
<svg viewBox="0 0 55.5 55.5" xmlns="http://www.w3.org/2000/svg">
<path d="M 0,0 H 55.5 V 55.5 H 0 Z" fill="rgb(239, 242, 248)"/>
<path d="M 40.99,32.985 V 23 H 44 V 27 H 47 V 23 H 50 V 33 H 47 V 29 H 44 V 33 H 41 Z M 32.84,33 H 30 L 33.2,23 H 36.8 L 40,33 H 37.16 L 35,25.75 L 32.84,33 Z M 32.31,29 H 37.65 L 37.62,31 H 32.28 L 32.31,29 Z M 29,23 V 33 H 26.64 L 23,27.75 V 33 H 20 V 23 H 22.4 L 26,28.23 V 23 H 29 Z M 19,23 V 33 H 16 V 23 H 19 Z M 6,33 V 23 H 10.75 C 12.35,23 14.57,23.5 14.57,25.5 C 14.57,26.7 13.56,27.48 12.46,27.69 V 27.79 C 13.8,27.83 15,28.76 15,30.17 C 15,32.19 12.87,33 11.15,33 H 6 Z M 9,31 H 10.36 C 11.36,31 12,30.65 12,29.98 C 12,29.18 11.1,29 10.4,29 H 9 V 31 Z M 9,27 H 10.19 C 10.79,27 11.52,26.66 11.52,25.96 S 10.82,25 10.23,25 H 9 V 27 Z" fill="rgb(1, 36, 87)"/>
</svg>
