<?xml version="1.0" encoding="UTF-8"?>
<!-- generated by Finnhub -->
<svg viewBox="0 0 55.5 55.5" xmlns="http://www.w3.org/2000/svg">
<path d="M 0,0 H 55.5 V 55.5 H 0 Z" fill="rgb(38, 78, 128)"/>
<path d="M 12.99,21.535 C 13,20.69 13.7,20 14.54,20 H 22 L 13.72,33.81 C 13.52,34.15 13,34.01 13,33.61 V 21.55 Z M 43,34.45 C 43,35.31 42.3,36 41.46,36 H 34 L 42.28,22.19 C 42.48,21.85 43,21.99 43,22.39 V 34.45 Z M 14.79,37.78 A 1.58,1.58 0 0,1 14.21,35.62 L 18.01,29 L 25.95,43.41 C 26.15,43.76 25.75,44.15 25.41,43.94 L 14.79,37.78 Z M 41.21,18.22 C 41.97,18.66 42.22,19.62 41.79,20.38 L 37.99,27 L 30.05,12.59 C 29.85,12.24 30.25,11.85 30.59,12.06 L 41.21,18.22 Z M 30.03,43.8 C 29.27,44.21 28.29,43.97 27.85,43.25 L 24,37 H 40.6 C 41.01,37 41.15,37.5 40.8,37.7 L 30.03,43.8 Z M 25.97,12.2 A 1.65,1.65 0 0,1 28.15,12.75 L 32,19 H 15.4 C 14.99,19 14.85,18.5 15.2,18.3 L 25.97,12.2 Z" fill="rgb(254, 254, 253)"/>
</svg>
