<?xml version="1.0" encoding="UTF-8"?>
<!-- generated by Finnhub -->
<svg viewBox="0 0 55.5 55.5" xmlns="http://www.w3.org/2000/svg">
<path d="M0 0h55.5v55.5H0z" fill="rgb(239, 242, 248)"/>
<path d="M18 16c-1.3 3-2.42 7.86-.5 10.38.57.75 1.24 1.52 1.95 2.33 3.05 3.46 6.77 7.67 5.55 14.49-2.5-2.64-7.9-8.9-9.5-12.86.27 3.18 1.91 9.36 6.29 13.1A15.83 15.83 0 0 1 12 28.86c0-5.01 2.33-9.96 6-12.86Z" fill="url(#a)"/>
<path d="M37 16c3.33 6.29 1.02 10.37-3.5 14.83-4.2 4.16-4.17 9.9-3.5 12.37 0-.58.52-1 1.45-1.73.66-.52 1.52-1.2 2.55-2.23 2-1.98 4.5-6.76 5.5-8.9A23.03 23.03 0 0 1 32.66 44C39.22 42.03 44 36 44 28.86c0-5.55-2.64-10.03-7-12.86Z" fill="url(#a)"/>
<circle cx="28" cy="20" r="8" fill="url(#c)"/>
<circle cx="28" cy="19" r="6" fill="url(#b)"/>
<defs>
<linearGradient id="a" x1="28" x2="28" y1="15.61" y2="44" gradientUnits="userSpaceOnUse">
<stop stop-color="rgb(13, 113, 39)" offset="0"/>
<stop stop-color="rgb(119, 157, 141)" offset=".42"/>
<stop stop-color="rgb(12, 113, 42)" offset=".65"/>
<stop stop-color="rgb(5, 116, 38)" offset="1"/>
</linearGradient>
<linearGradient id="c" x1="28" x2="28" y1="12" y2="28" gradientUnits="userSpaceOnUse">
<stop stop-color="rgb(67, 83, 159)" offset="0"/>
<stop stop-color="rgb(68, 92, 163)" offset=".5"/>
<stop stop-color="rgb(176, 225, 241)" offset="1"/>
</linearGradient>
<linearGradient id="b" x1="28" x2="28" y1="13" y2="25" gradientUnits="userSpaceOnUse">
<stop stop-color="rgb(119, 135, 185)" offset="0"/>
<stop stop-color="rgb(77, 105, 169)" offset=".51"/>
<stop stop-color="rgb(134, 194, 221)" offset="1"/>
</linearGradient>
</defs>
</svg>
