<?xml version="1.0" encoding="UTF-8"?>
<!-- generated by Finnhub -->
<svg viewBox="0 0 55.5 55.5" xmlns="http://www.w3.org/2000/svg">
<path d="M0 0h55.5v55.5H0z" fill="rgb(239, 242, 248)"/>
<path d="M16 17c0-1.66 1.54-3 2.82-3h18.2c1.27 0 2.98 1.34 2.98 3s-1.7 3-2.98 3h-18.2C17.54 20 16 18.66 16 17Zm-6 11c0-1.66 1.54-3 2.82-3h30.2c1.27 0 2.98 1.34 2.98 3s-1.7 3-2.98 3h-30.2C11.54 31 10 29.66 10 28Zm8.82 8C17.54 36 16 37.34 16 39s1.54 3 2.82 3h18.2c1.27 0 2.98-1.34 2.98-3s-1.7-3-2.98-3h-18.2Z" fill="rgb(237, 62, 58)"/>
</svg>
