<!-- by Finnhub --><svg xmlns="http://www.w3.org/2000/svg" width="56" height="56" viewBox="0 0 56 56"><path fill="#0F3657" d="M0 0h56v56H0z"/><path d="M7.5 24H5v7H7.7C9.12 31 11 31 11 29.05c0-.96-.69-1.62-1.77-1.65.88-.06 1.37-.7 1.37-1.52C10.6 24 8.86 24 7.5 24Zm-.9 2.8v-1.5h1.53c.45 0 .86.22.87.7 0 .48-.36.8-.88.8-.37.02-.85.01-1.2 0H6.6Zm0 2.9V28l1.53.02c.74 0 1.27.23 1.27.8 0 .61-.5.88-1.28.88H6.6ZM15 26c-.8 0-1.16.24-1.5.52V26H12v5h1.5v-2.64c0-.94.78-1.33 1.5-1.33V26Zm3 0c1.67 0 2.5 1.2 2.5 2.5S19.59 31 18 31a2.45 2.45 0 0 1-2.5-2.5c0-1.08.65-2.5 2.5-2.5Zm-1 2.5c-.01.85.4 1.5 1 1.5s1-.56 1-1.5-.35-1.5-1-1.5-.99.65-1 1.5Zm9 0c0-1.3-.83-2.5-2.5-2.5-1.85 0-2.5 1.42-2.5 2.5 0 1.25.91 2.5 2.5 2.5 1.59 0 2.5-1.2 2.5-2.5ZM23.5 30c-.6 0-1.01-.65-1-1.5.01-.85.35-1.5 1-1.5s1 .56 1 1.5-.4 1.5-1 1.5Zm3.5-6h1.5v3.72L30.08 26h1.7l-1.7 1.83L32 31h-1.67l-1.3-2.1-.53.64V31H27v-7Zm7.19 0c-.6 0-1.19.56-1.19 1.2v.8h-1v1h1v4h1.5v-4h1v-1h-1v-.5c0-.49.5-.5 1-.49V24h-1.31Zm3.31 0H36v1h1.5v-1Zm0 2H36v5h1.5v-5Zm3.38 5c.94-.01 1.8-.42 2.22-1.45L42.05 29c-.16.64-.65 1.01-1.17 1-.53-.01-1.1-.44-1.08-1.21h3.5c0-2.04-1.25-2.79-2.5-2.79s-2.5.8-2.5 2.52 1.28 2.5 2.58 2.48Zm-.08-4c.51 0 .96.34 1 1h-2c.06-.57.48-1 1-1Zm4.7-3v7H44v-7h1.5Zm5.5 7v-7h-1.5v2.66a1.69 1.69 0 0 0-1.36-.68C46.88 25.98 46 27 46 28.5s.9 2.5 2.22 2.5c.55 0 1.01-.2 1.28-.55V31H51Zm-2.44-4c.74 0 .94.94.94 1.45 0 .64-.22 1.55-.94 1.55s-1.06-.66-1.06-1.45c0-.95.42-1.55 1.06-1.55Z" fill="#fff"/></svg>