<!-- by Finnhub --><svg width="56" height="56" viewBox="0 0 56 56" xmlns="http://www.w3.org/2000/svg"><path fill="#F0F3FA" d="M0 0h56v56H0z"/><path d="M11 29.38c.04 2.13.94 6.62 4.2 6.62C19.25 36 36 26.27 36 16.69 36 12.7 32.02 11 28.09 11s-8.21 1.8-9.54 2.98c.18.6.4 1.05.75 1.05.08 0 .27-.16.57-.4 1.04-.81 3.33-2.63 6.58-2.63 1.81 0 3.55.88 3.55 3.03 0 1.7-2.03 5.45-5.89 8.8-3.33 2.88-8.24 5.55-13.11 5.55ZM40 16c.3.53 1.01 1.77 1.01 3.62 0 2.32-1.3 6.87-7.62 12.69-6.32 5.82-12.59 8.62-15.94 8.93.88.74 3.28 2.76 6.55 2.76s9.6-3.5 14.29-8.63c4.68-5.12 5.71-8.49 5.71-11.2 0-2.71-1.17-5.85-4-8.17Z" fill="url(#asu2pmkzg)"/><path d="M45 31c-1.29 3.52-6.28 11.24-16 14 1.73 0 13.56-1 16-14Z" fill="#0675C2"/><path d="M15.2 36c-3.26 0-4.16-4.5-4.2-6.62 4.87 0 9.78-2.67 13.11-5.56 1.1-.95 2.04-1.93 2.82-2.89 2.2.75 4.29 1.84 6.11 3.19C28.14 30.66 18.18 36 15.2 36Z" fill="url(#bsu2pmkzg)"/><path d="M37.21 28.2a33.6 33.6 0 0 1-3.82 4.11c-6.32 5.82-13.03 8.62-16.39 8.93.88.74 3.58 2.76 6.85 2.76 3.27 0 9.76-3.5 14.44-8.63.7-.77 1.33-1.5 1.88-2.2a21.9 21.9 0 0 0-2.96-4.97Z" fill="url(#csu2pmkzg)"/><defs><linearGradient id="asu2pmkzg" x1="40.83" y1="17.84" x2="15.86" y2="38.7" gradientUnits="userSpaceOnUse"><stop stop-color="#037CC8"/><stop offset=".53" stop-color="#039DE0"/></linearGradient><linearGradient id="bsu2pmkzg" x1="31.05" y1="20.06" x2="19.46" y2="39.19" gradientUnits="userSpaceOnUse"><stop stop-color="#4CC4F0"/><stop offset=".54" stop-color="#007EC8"/></linearGradient><linearGradient id="csu2pmkzg" x1="31.05" y1="20.06" x2="19.46" y2="39.19" gradientUnits="userSpaceOnUse"><stop stop-color="#4CC4F0"/><stop offset=".54" stop-color="#007EC8"/></linearGradient></defs></svg>