<?xml version="1.0" encoding="UTF-8"?>
<!-- generated by Finnhub -->
<svg viewBox="0 0 55.5 55.5" xmlns="http://www.w3.org/2000/svg">
<path d="M 0,0 H 55.5 V 55.5 H 0 Z" fill="rgb(239, 242, 248)"/>
<path d="M 19.99,28.085 C 20,26.43 21.76,26.76 22.39,26.76 C 25.93,26.77 24.32,26.69 25.53,27.36 C 26.21,26.97 25.82,26.76 26.73,26.76 C 29.77,26.76 29.21,26.49 30.33,27.37 C 31.03,27.01 30.53,26.77 31.54,26.77 C 33.56,26.77 35.03,26.32 35.03,28.1 L 35,32.56 H 20 V 28.1 Z M 27.32,22.66 C 27.16,22.41 27.16,22.11 27.04,21.85 L 26.86,20.69 C 26.32,20.86 26.42,20.37 26.22,21.94 C 26.09,22.93 25.89,22.5 25.62,23.24 C 25.62,23.24 25.24,26.24 24.64,25.52 C 24.22,25.03 25.79,22.91 24.11,22.47 A 6.9,6.9 0 0,1 22.91,24.65 C 22.36,25.38 22.16,25.97 21.07,26.29 C 21.22,25.49 22.01,25.6 21.49,24.58 C 20.87,24.88 21.4,25.31 20.35,26.08 C 19.85,26.45 19.05,26.63 18.55,27.04 C 17.8,27.64 16.63,29.58 16.15,30.38 C 16.01,30.22 15.4,30.4 16.44,29.26 C 16.8,28.86 17.48,27.92 17.37,27.37 C 16.55,27.22 16.35,27.82 15.71,27.69 C 15,27.55 14.79,27.06 14,27.94 C 14.25,28.76 16.26,31.59 16.77,32.34 C 17.02,32.7 17.18,32.87 17.41,32.94 C 17.65,33.02 17.96,33 18.49,32.99 H 37.36 C 38,32.99 38.34,33.03 38.6,32.93 C 39,32.78 39.23,32.33 40.1,31.03 C 40.72,30.12 41.63,28.96 42,27.94 C 41.7,27.39 41.17,26.35 40.79,25.87 C 40.4,25.38 40.74,25.76 40.21,25.42 L 39.72,25.87 C 39.49,25.32 38.92,24.55 38.35,24.57 C 38.08,25.17 38.29,25.97 38.25,26.74 C 37.92,26.54 37.92,26.38 37.61,25.91 C 37.34,25.51 37.41,25.48 36.96,25.3 C 36.61,25.9 37.49,27.06 37.21,27.77 C 36.51,27.29 36.79,25.85 35.71,25.23 C 35.45,25.83 35.79,25.57 35.61,26.12 C 35.18,25.7 34.91,25.11 34.51,24.57 L 33.61,24.69 C 33.31,25.3 33.65,25.93 32.85,26.3 C 31.75,25.32 31.5,23.77 30.9,22.53 A 80.63,80.63 0 0,0 28.83,18.84 C 28.53,19.01 28.8,18.78 28.59,19.06 C 28.08,19.76 28.41,19.52 27.69,20.1 C 27.73,20.68 27.96,21.34 28.16,21.96 C 28.33,22.5 28.48,23.13 28.47,23.53 C 27.42,22.92 27.88,22.85 27.32,22.66 Z" fill="rgb(3, 40, 144)"/>
<path d="M 14.99,26.505 C 15.8,26.46 15.62,26.58 16.29,26.67 C 16.87,26.74 16.74,26.52 17.41,26.3 C 18.19,26.04 18.71,25.43 19.38,24.93 C 19.78,24.64 21.29,21.79 22.15,21.13 C 22.74,21.69 22.1,22.05 23.05,22.43 C 23.82,21.85 24.66,18.69 25.38,18.35 L 27.01,18.07 L 27.74,16.11 C 28.48,16.14 29.13,16.38 29.88,16.63 A 8.4,8.4 0 0,0 30.26,19.1 C 31.06,19.25 30.94,18.61 31.31,19.56 C 32.28,22.01 32.29,22.99 33.91,22.32 C 34.67,22.92 35.31,23.32 36.2,23.72 C 37.35,24.25 36.62,23.15 39,23.22 C 36.34,19.79 31.68,14.43 28,13 C 24.74,14.68 16.07,23.08 15,26.52 Z M 32.23,31.44 H 31.47 C 31.32,30.44 31.45,29.44 31.43,28.43 C 31.41,27.46 31.53,27.78 31.13,27.57 L 31,28.43 L 31.01,29.64 C 31.01,30.41 30.97,31.19 31.05,31.94 L 33.95,31.92 L 33.99,28.61 C 33.99,27.71 34.06,28.18 33.86,27.56 C 33.5,27.78 33.58,27.05 33.59,29.3 C 33.59,30 33.65,30.76 33.51,31.44 H 32.77 C 32.52,29.79 32.95,27.52 32.57,26.68 C 32.1,27.03 32.31,27.17 32.31,28.96 C 32.31,29.77 32.39,30.66 32.23,31.44 Z M 28.1,28.94 C 28.32,29.82 28.36,29.65 27.68,29.64 L 28.09,28.94 Z M 28.88,30.94 C 28.49,30.65 28.74,31.13 28.6,30.64 C 28.52,30.34 28.6,30.34 28.65,30.09 L 29.76,30 L 29.8,29.68 C 28.54,29.68 28.66,29.95 28.68,29.05 L 29.73,28.93 C 29.6,28.53 29.8,28.74 29.5,28.54 H 28.37 L 28.57,28.24 C 28.73,27.78 28.72,28.04 28.56,27.74 C 27.56,27.94 28.57,28.48 27.02,28.47 C 27.14,28.7 27.36,28.95 27.34,29.18 C 27.34,29.2 27.07,29.72 27,30.1 L 28.11,30.09 C 28.4,31 27.92,30.89 27.78,30.92 C 27.48,31.02 27.38,30.92 27,31.15 C 27.4,31.4 27.4,31.35 28.15,31.35 L 28.28,31.95 C 28.78,31.73 28.58,32.08 28.72,31.35 C 29.42,31.35 29.56,31.47 30,31.15 C 29.57,30.82 29.6,30.95 28.88,30.95 Z M 25.34,30.76 C 24.26,30.54 24.57,30.56 24.52,29.68 C 25.06,29.94 25.26,30.3 25.34,30.76 Z M 24.51,28.83 C 24.51,28.17 24.35,28.43 24.87,28.23 C 25.15,28.55 24.79,28.66 24.51,28.83 Z M 24.47,31.95 V 30.97 L 24.8,31.1 L 26,31.31 C 25.86,30.13 25.67,30.11 25,29.27 C 25.27,28.67 25.63,28.47 25.85,27.92 L 24,27.74 V 31.63 C 24.17,32.06 23.91,31.8 24.47,31.95 Z M 21.13,28.02 C 21.33,28.17 21.11,28.13 21.47,28.2 C 21.64,28.24 21.91,28.22 22.09,28.22 C 21.79,28.91 21.26,29.4 21.13,29.65 C 20.89,30.09 21.05,30.12 21.07,30.2 C 21.57,30.13 21.4,29.93 21.93,29.42 C 21.93,30.06 21.8,31.39 22.1,31.95 C 22.74,31.49 22.18,30.75 22.36,29.95 C 22.54,29.55 22.32,29.79 22.58,29.8 L 22.98,29.87 C 22.98,29.8 23.02,29.71 23,29.65 C 22.87,29.2 22.73,29.28 22.36,28.82 L 22.96,27.85 C 22.23,27.72 21.54,27.63 21.13,28.02 Z" fill="rgb(3, 40, 144)"/>
<path d="M 26.389999999999997,29.115 C 26.38,30.87 26.54,30.19 26.12,31.8 C 27.04,31.7 27.9,31.94 28.87,31.95 H 29.38 C 29.98,31.88 29.77,31.87 30,31.76 C 29.95,31.74 29.89,31.66 29.86,31.69 L 29.21,31.56 C 28.09,31.5 28.04,31.79 26.85,31.27 C 26.86,30.22 26.85,29.72 27.05,28.79 H 26 C 26.08,29.23 25.89,29.06 26.4,29.13 Z M 21.74,27.27 C 21.69,27.67 21.7,27.67 22.19,27.73 C 22.19,27.52 22.41,27.61 22.09,27.3 C 21.61,26.85 21.78,27.26 21.74,27.27 Z M 26.7,28.05 C 27.25,27.3 26.65,27.5 26.58,27.45 C 26.53,27.55 26.1,27.45 26.7,28.05 Z" fill="rgb(3, 40, 144)"/>
<path d="M 31.72,11.535 L 28,10 L 24.27,11.55 A 23.5,23.5 0 0,0 11.55,24.27 L 10,28 L 11.55,31.73 A 23.5,23.5 0 0,0 24.27,44.45 L 28,46 L 31.73,44.45 A 23.5,23.5 0 0,0 44.45,31.73 L 46,28 L 44.45,24.27 A 23.5,23.5 0 0,0 31.73,11.55 Z M 28.44,12.25 L 28,12 L 25.9,13.32 A 40,40 0 0,0 13.15,26.14 L 12,28 L 14.4,31.47 A 40,40 0 0,0 24.48,41.55 L 28,44 L 30.52,42.37 A 40,40 0 0,0 42.52,30.31 L 44,28 A 39.12,39.12 0 0,0 28.44,12.24 Z" fill="rgb(3, 40, 144)" fill-rule="evenodd"/>
<path d="M 21.4,37.855 L 20.59,36.87 H 35.4 L 34.58,37.87 H 21.4 Z M 24.82,40.84 C 26.01,41.67 27.42,42.49 27.99,42.82 H 28 C 28.58,42.49 29.99,41.67 31.18,40.84 H 24.82 Z M 23.88,39.85 C 23.49,39.53 23.1,39.2 22.71,38.85 H 33.29 C 32.9,39.2 32.51,39.53 32.12,39.85 H 23.88 Z M 21.25,34 H 21.88 V 36.52 H 21.25 Z M 24.71,34 H 25.34 V 36.52 H 24.71 Z M 27.37,34 H 27.92 L 28.47,35.36 V 34 H 28.94 V 36.52 H 28.47 L 27.84,34.97 V 36.52 H 27.37 V 34 Z M 34.9,34 H 35.45 L 36,35.36 V 34 H 36.47 V 36.52 H 36 L 35.37,34.97 V 36.52 H 34.9 V 34 Z" fill="rgb(3, 40, 144)"/>
<path d="M 20.319999999999997,36.495 A 0.4,0.4 0 0,1 20.23,36.52 C 19.85,36.52 19.53,35.96 19.53,35.26 S 19.85,34 20.23,34 C 20.63,34 20.94,34.56 20.94,35.26 C 20.94,35.73 20.8,36.13 20.59,36.36 L 20.94,36.45 V 36.67 H 20.63 L 20.33,36.51 Z M 20.47,35.26 C 20.47,35.79 20.37,36.22 20.24,36.22 S 20,35.79 20,35.26 S 20.1,34.3 20.24,34.3 C 20.37,34.3 20.47,34.73 20.47,35.26 Z" fill="rgb(3, 40, 144)" fill-rule="evenodd"/>
<path d="M 23.75,33.985 H 23.14 V 36.52 H 24.39 V 36.22 H 23.76 V 34 Z M 25.49,36.52 L 26.16,34 H 26.71 L 27.37,36.52 H 26.9 L 26.75,35.92 H 26.12 L 25.96,36.52 H 25.49 Z M 26.19,35.63 H 26.67 L 26.43,34.74 L 26.2,35.64 Z M 33.02,36.52 L 33.69,34 H 34.24 L 34.9,36.52 H 34.43 L 34.27,35.92 H 33.65 L 33.49,36.52 H 33.02 Z M 33.72,35.63 H 34.2 L 33.96,34.74 L 33.73,35.64 Z M 30.75,34 C 31,34 31.16,34.2 31.22,34.3 L 30.98,34.37 C 30.82,34.32 30.67,34.22 30.51,34.37 C 30.38,34.5 30.64,34.68 30.75,34.82 C 30.98,35.12 31.29,35.52 31.29,35.92 C 31.29,36.45 30.82,36.59 30.59,36.59 C 30.4,36.59 30.09,36.45 29.96,36.37 C 29.99,36.32 30.06,36.21 30.12,36.15 C 30.27,36.3 30.51,36.37 30.59,36.37 C 30.67,36.37 30.82,36.37 30.82,36.22 A 0.73,0.73 0 0,0 30.67,35.85 C 30.46,35.55 30.04,34.96 30.04,34.67 C 30.04,34.3 30.44,34 30.74,34 Z M 31.45,34 H 31.92 V 34.89 H 32.39 V 34 H 32.86 V 36.52 H 32.39 V 35.19 H 31.92 V 36.52 H 31.45 V 34 Z" fill="rgb(3, 40, 144)"/>
</svg>
