<?xml version="1.0" encoding="UTF-8"?>
<!-- generated by Finnhub -->
<svg viewBox="0 0 55.5 55.5" xmlns="http://www.w3.org/2000/svg">
<path d="M 0,0 H 55.5 V 55.5 H 0 Z" fill="rgb(240, 91, 32)"/>
<path d="M 9.697000000000001,28.369 V 28.315 C 10.438,28.072 10.804,27.321 10.804,26.558 C 10.804,24.546 9.154,24 7.535,24 H 4 V 33 H 8.133 C 9.597,33 11,32.329 11,30.537 C 11,29.497 10.616,28.72 9.707,28.384 Z M 7,26.246 C 7.443,26.246 8,26.2 8,26.847 C 8,27.448 7.535,27.495 7.092,27.495 H 7 V 26.246 Z M 7.158,30.778 H 7 V 29.332 H 7.114 C 7.602,29.332 8.377,29.322 8.377,30.05 C 8.377,30.766 7.657,30.778 7.158,30.778 Z M 47.206,30.683 A 27.13,27.13 0 0,1 47.28,29.017 C 46.906,28.378 46.233,28.013 45.543,27.699 L 45.016,27.458 C 44.741,27.329 44.454,27.194 44.233,27.011 C 44.019,26.833 43.686,26.508 43.744,25.999 C 43.736,26.052 43.744,25.942 43.744,25.999 C 43.803,25.489 44.234,25 45,25 C 45.767,25 46.094,25.278 46.386,25.804 L 46.448,25.916 L 46.494,25.999 L 46.62,25.916 L 47.363,25.573 L 47.273,25.398 C 46.813,24.517 45.993,24 45.027,24 C 43.797,24 42.66,24.836 42.59,26.19 A 2.265,2.265 0 0,0 42.587,26.324 C 42.587,27.655 43.585,28.144 44.515,28.584 L 45,28.802 C 45.77,29.168 46.281,29.505 46.281,30.313 C 46.281,31.111 45.629,31.999 44.868,31.999 C 44.132,31.999 43.398,31.379 43.294,30.619 L 43.261,30.376 L 42.139,30.49 L 42.178,30.686 C 42.451,32.066 43.484,33 44.868,33 A 2.69,2.69 0 0,0 47.213,31.642 A 13.54,13.54 0 0,1 47.207,31.376 L 47.2,30.952 H 47.202 C 47.204,30.89 47.206,30.682 47.206,30.682 Z M 12,33 H 15 V 24 H 12 V 33 Z M 27,24 H 26 V 33 H 29 V 32 H 27 V 24 Z M 42,24 H 37 V 25 H 39 V 33 H 40 V 25 H 42 V 24 Z M 33.13,24 C 30.745,24 29,26.006 29,28.5 C 29,31.006 30.744,33 33.13,33 C 35.517,33 37.03,31.017 37.03,28.51 C 37.03,26.018 35.518,24 33.13,24 Z M 33.13,32 C 31.311,32 29.962,30.49 30,28.51 C 30.038,26.531 31.311,24.97 33.13,25 C 34.95,25.03 35.978,26.531 36,28.51 C 36.022,30.49 34.95,32 33.13,32 Z M 20,30 H 21.735 C 21.595,30.315 21.105,30.537 20.628,30.537 C 19.643,30.537 19,29.652 19,28.693 C 19,27.643 19.544,26.673 20.628,26.673 C 21.115,26.673 21.547,26.903 21.779,27.343 L 24.613,26.258 C 23.959,24.768 21.968,24.018 20.517,24.018 C 17.895,24.018 16,25.671 16,28.51 C 16,31.305 17.95,33 20.495,33 C 21.791,33 23.152,32.457 24.037,31.452 C 25.022,30.344 24.977,29.42 25,28 H 20 V 30 Z" fill="rgb(254, 254, 253)"/>
<path d="M 47.6,30.288999999999998 C 47.645,27.811 48.051,24.862 48.814,23 L 52,23.663 C 50.79,25.671 49.974,28.293 49.538,30.6 L 47.61,30.304 Z M 47.72,32.762 A 17.176,17.176 0 0,1 47.611,31.027 L 49.412,31.323 C 49.318,31.917 49.25,32.482 49.209,33 L 47.719,32.762 Z" fill="rgb(254, 254, 253)"/>
</svg>
