<?xml version="1.0" encoding="UTF-8"?>
<!-- generated by Finnhub -->
<svg viewBox="0 0 55.5 55.5" xmlns="http://www.w3.org/2000/svg">
<path d="M 0,0 H 55.5 V 55.5 H 0 Z" fill="rgb(239, 242, 248)"/>
<path d="M 45.99,24.905 C 46,25.06 45.99,25.18 45.97,25.29 H 43.03 C 43.06,25.57 43.16,25.79 43.33,25.95 C 43.51,26.11 43.73,26.19 44,26.19 C 44.37,26.19 44.64,26.03 44.8,25.72 H 45.9 C 45.78,26.09 45.56,26.4 45.23,26.64 S 44.5,27 44.02,27 A 2.2,2.2 0 0,1 42.97,26.76 C 42.67,26.59 42.43,26.36 42.25,26.05 C 42.08,25.75 42,25.4 42,25 S 42.08,24.25 42.25,23.94 C 42.42,23.64 42.66,23.41 42.97,23.24 C 43.27,23.08 43.62,23 44.02,23 C 44.4,23 44.74,23.08 45.04,23.24 C 45.34,23.4 45.58,23.62 45.74,23.92 C 45.92,24.21 46,24.54 46,24.92 Z M 44.95,24.64 C 44.95,24.38 44.85,24.18 44.66,24.04 C 44.48,23.88 44.26,23.8 43.99,23.8 A 0.95,0.95 0 0,0 43.35,24.03 A 0.95,0.95 0 0,0 43.04,24.63 H 44.94 Z M 40.5,24 V 25.76 C 40.5,26.03 40.53,26.15 40.91,26.15 H 41.5 V 27 H 40.7 C 39.63,27 39.5,26.59 39.5,25.76 V 24 H 39 V 23.15 H 39.5 V 22 H 40.5 V 23.15 H 41.5 V 24 H 40.5 Z M 37.5,26.38 C 37.2,26.83 36.45,27 35.93,27 C 35.26,27 34.5,26.62 34.5,25.86 C 34.5,24.91 35.52,24.64 36.3,24.64 H 37.5 C 37.48,24.14 37.06,23.83 36.54,23.83 C 36.09,23.83 35.77,24.06 35.69,24.45 H 34.59 C 34.77,23.5 35.66,23 36.57,23 C 37.57,23 38.5,23.6 38.5,24.67 V 27 H 37.5 V 26.38 Z M 36.25,26.21 C 36.78,26.21 37.5,25.89 37.5,25.3 V 25.27 H 36.36 C 35.86,25.27 35.62,25.47 35.62,25.75 C 35.62,26.04 35.85,26.21 36.25,26.21 Z M 32,26.07 L 32.97,23 H 34 L 32.58,27 H 31.41 L 30,23 H 31.04 L 32,26.07 Z M 27.97,27 C 27.6,27 27.27,26.92 26.97,26.76 C 26.67,26.59 26.43,26.36 26.25,26.05 C 26.08,25.75 26,25.4 26,25 S 26.09,24.25 26.26,23.95 C 26.44,23.65 26.68,23.41 26.98,23.25 C 27.28,23.08 27.63,23 28,23 S 28.71,23.08 29.02,23.25 C 29.32,23.41 29.56,23.65 29.73,23.95 C 29.91,24.25 30,24.6 30,25 A 2,2 0 0,1 29.73,26.05 C 29.55,26.35 29.31,26.59 29,26.75 C 28.7,26.92 28.35,27 27.97,27 Z M 27.97,26.15 C 28.15,26.15 28.32,26.1 28.47,26.02 A 0.96,0.96 0 0,0 28.85,25.62 C 28.95,25.46 28.99,25.25 28.99,25 C 28.99,24.63 28.89,24.35 28.69,24.15 A 0.94,0.94 0 0,0 27.99,23.85 C 27.71,23.85 27.47,23.95 27.28,24.15 C 27.09,24.35 27,24.63 27,25 S 27.09,25.65 27.27,25.85 C 27.46,26.05 27.69,26.15 27.97,26.15 Z M 23.33,23 C 24.32,23 25,23.7 25,24.69 V 27 H 24 V 24.82 C 24,24.19 23.58,23.85 23,23.85 C 22.43,23.85 22,24.19 22,24.82 V 27 H 21 V 23 H 22 V 23.55 C 22.29,23.2 22.8,23 23.33,23 Z M 18.47,27 C 18.1,27 17.77,26.92 17.47,26.76 C 17.17,26.59 16.93,26.36 16.75,26.05 C 16.58,25.75 16.5,25.4 16.5,25 S 16.59,24.25 16.76,23.95 C 16.94,23.65 17.18,23.41 17.48,23.25 C 17.78,23.08 18.13,23 18.5,23 S 19.21,23.08 19.52,23.25 C 19.82,23.41 20.06,23.65 20.23,23.95 C 20.41,24.25 20.5,24.6 20.5,25 A 2,2 0 0,1 20.23,26.05 C 20.05,26.35 19.81,26.59 19.5,26.75 C 19.2,26.92 18.85,27 18.47,27 Z M 18.47,26.15 C 18.65,26.15 18.82,26.1 18.97,26.02 A 0.96,0.96 0 0,0 19.35,25.62 C 19.45,25.46 19.49,25.25 19.49,25 C 19.49,24.63 19.39,24.35 19.19,24.15 A 0.94,0.94 0 0,0 18.49,23.85 C 18.21,23.85 17.97,23.95 17.78,24.15 C 17.59,24.35 17.5,24.63 17.5,25 S 17.59,25.65 17.77,25.85 C 17.96,26.05 18.19,26.15 18.47,26.15 Z M 16,23 V 27 H 15 V 23 H 16 Z M 43.38,29.5 A 0.62,0.62 0 0,1 42.93,29.33 A 0.62,0.62 0 0,1 42.76,28.88 A 0.6,0.6 0 0,1 43.38,28.26 C 43.56,28.26 43.7,28.32 43.82,28.44 S 44,28.7 44,28.88 A 0.6,0.6 0 0,1 43.38,29.5 Z M 43.95,30 V 34 H 42.95 V 30 H 43.95 Z"/>
<circle cx="15.5" cy="21.5" r=".5"/>
<path d="M 12.97,24.425 C 13.28,24.49 13.52,24.63 13.71,24.86 C 13.91,25.09 14,25.35 14,25.65 C 14,25.91 13.93,26.15 13.79,26.35 C 13.65,26.55 13.46,26.71 13.19,26.83 A 2.3,2.3 0 0,1 12.27,27 H 10 V 22 H 12.17 C 12.53,22 12.83,22.05 13.09,22.16 S 13.55,22.43 13.68,22.62 C 13.81,22.82 13.88,23.04 13.88,23.29 C 13.88,23.59 13.8,23.82 13.63,24.02 C 13.47,24.22 13.25,24.35 12.98,24.44 Z M 11,24.06 H 12.02 C 12.27,24.06 12.46,24.01 12.6,23.91 C 12.73,23.8 12.8,23.64 12.8,23.44 C 12.8,23.24 12.73,23.08 12.6,22.97 A 0.9,0.9 0 0,0 12.02,22.81 H 11 V 24.06 Z M 12.12,26.18 C 12.37,26.18 12.57,26.13 12.72,26.01 A 0.58,0.58 0 0,0 12.93,25.52 A 0.6,0.6 0 0,0 12.7,25.02 A 0.93,0.93 0 0,0 12.1,24.84 H 11 V 26.18 H 12.12 Z M 50.58,34 C 50.28,34 50.02,33.94 49.78,33.83 A 1.48,1.48 0 0,1 49.22,33.36 C 49.09,33.16 49.02,32.96 49,32.71 H 49.92 C 49.94,32.86 50,32.99 50.12,33.08 C 50.24,33.18 50.39,33.23 50.57,33.23 S 50.88,33.19 50.97,33.12 C 51.07,33.04 51.13,32.95 51.13,32.83 C 51.13,32.71 51.07,32.61 50.94,32.55 A 2.9,2.9 0 0,0 50.38,32.35 C 50.11,32.27 49.88,32.2 49.71,32.13 A 1.19,1.19 0 0,1 49.27,31.78 A 0.98,0.98 0 0,1 49.08,31.16 C 49.08,30.95 49.14,30.76 49.25,30.57 C 49.37,30.4 49.54,30.26 49.75,30.15 C 49.97,30.05 50.22,30 50.51,30 C 50.94,30 51.29,30.12 51.54,30.35 C 51.8,30.58 51.94,30.89 51.97,31.28 H 51.09 A 0.5,0.5 0 0,0 50.91,30.92 A 0.61,0.61 0 0,0 50.49,30.78 C 50.32,30.78 50.19,30.81 50.1,30.88 A 0.32,0.32 0 0,0 49.97,31.15 C 49.97,31.28 50.03,31.38 50.15,31.45 C 50.28,31.51 50.47,31.58 50.72,31.65 C 50.98,31.72 51.2,31.79 51.37,31.87 C 51.54,31.94 51.68,32.06 51.8,32.22 C 51.93,32.37 52,32.58 52,32.83 C 52,33.06 51.94,33.26 51.82,33.43 C 51.72,33.61 51.55,33.75 51.32,33.85 C 51.12,33.95 50.87,34 50.58,34 Z M 48.5,31.92 C 48.5,32.06 48.49,32.18 48.47,32.29 H 45.53 C 45.55,32.57 45.66,32.79 45.83,32.95 C 46.01,33.11 46.23,33.19 46.5,33.19 C 46.87,33.19 47.14,33.03 47.3,32.72 H 48.4 C 48.28,33.09 48.06,33.4 47.73,33.64 S 47,34 46.52,34 A 2.2,2.2 0 0,1 45.47,33.76 C 45.17,33.59 44.93,33.36 44.75,33.05 C 44.58,32.75 44.5,32.4 44.5,32 S 44.58,31.25 44.75,30.94 C 44.92,30.64 45.16,30.41 45.47,30.24 C 45.77,30.08 46.12,30 46.52,30 C 46.9,30 47.24,30.08 47.54,30.24 C 47.84,30.4 48.08,30.62 48.24,30.92 C 48.42,31.21 48.5,31.54 48.5,31.92 Z M 47.45,31.64 C 47.45,31.38 47.35,31.18 47.16,31.04 C 46.98,30.88 46.76,30.8 46.49,30.8 A 0.95,0.95 0 0,0 45.85,31.03 A 0.95,0.95 0 0,0 45.54,31.63 H 47.44 Z M 39.75,30 C 40.04,30 40.29,30.05 40.51,30.15 C 40.73,30.25 40.88,30.37 41,30.53 V 30 H 42 V 33.4 C 42,34.45 41.08,35 40.1,35 C 39.3,35 38.28,34.7 38.17,33.77 H 39.13 C 39.23,34.08 39.6,34.27 40.07,34.27 C 40.63,34.27 41,33.95 41,33.39 V 32.88 C 40.88,33.03 40.72,33.16 40.5,33.27 C 40.29,33.37 40.04,33.42 39.75,33.42 A 1.7,1.7 0 0,1 38,31.7 C 38,30.7 38.78,30 39.75,30 Z M 41,31.71 A 0.96,0.96 0 0,0 40,30.74 C 39.45,30.74 39,31.14 39,31.7 C 39,32.26 39.44,32.69 40,32.69 C 40.57,32.69 41,32.29 41,31.71 Z M 34.97,34 C 34.6,34 34.27,33.92 33.97,33.76 C 33.67,33.59 33.43,33.36 33.25,33.05 C 33.08,32.75 33,32.4 33,32 S 33.09,31.25 33.26,30.95 C 33.44,30.65 33.68,30.41 33.98,30.25 C 34.28,30.08 34.63,30 35,30 S 35.71,30.08 36.02,30.25 C 36.32,30.41 36.56,30.65 36.73,30.95 C 36.91,31.25 37,31.6 37,32 A 2,2 0 0,1 36.73,33.05 C 36.55,33.35 36.31,33.59 36,33.75 C 35.7,33.92 35.35,34 34.97,34 Z M 34.97,33.15 C 35.15,33.15 35.32,33.1 35.47,33.02 A 0.96,0.96 0 0,0 35.85,32.62 C 35.95,32.46 35.99,32.25 35.99,32 C 35.99,31.63 35.89,31.35 35.69,31.15 A 0.94,0.94 0 0,0 34.99,30.85 C 34.71,30.85 34.47,30.95 34.28,31.15 C 34.09,31.35 34,31.63 34,32 S 34.09,32.65 34.27,32.85 C 34.46,33.05 34.69,33.15 34.97,33.15 Z M 32,28 V 34 H 31 V 28 H 32 Z M 28.47,34 C 28.1,34 27.77,33.92 27.47,33.76 C 27.17,33.59 26.93,33.36 26.75,33.05 C 26.58,32.75 26.5,32.4 26.5,32 S 26.59,31.25 26.76,30.95 C 26.94,30.65 27.18,30.41 27.48,30.25 C 27.78,30.08 28.13,30 28.5,30 S 29.21,30.08 29.52,30.25 C 29.82,30.41 30.06,30.65 30.23,30.95 C 30.41,31.25 30.5,31.6 30.5,32 A 2,2 0 0,1 30.23,33.05 C 30.05,33.35 29.81,33.59 29.5,33.75 C 29.2,33.92 28.85,34 28.47,34 Z M 28.47,33.15 C 28.65,33.15 28.82,33.1 28.97,33.02 A 0.96,0.96 0 0,0 29.35,32.62 C 29.45,32.46 29.49,32.25 29.49,32 C 29.49,31.63 29.39,31.35 29.19,31.15 A 0.94,0.94 0 0,0 28.49,30.85 C 28.21,30.85 27.97,30.95 27.78,31.15 C 27.59,31.35 27.5,31.63 27.5,32 S 27.59,32.65 27.77,32.85 C 27.96,33.05 28.19,33.15 28.47,33.15 Z M 24.33,30 C 25.32,30 26,30.7 26,31.69 V 34 H 25 V 31.82 C 25,31.19 24.58,30.85 24,30.85 C 23.43,30.85 23,31.19 23,31.82 V 34 H 22 V 30 H 23 V 30.55 C 23.29,30.2 23.8,30 24.33,30 Z M 19.36,30.2 C 20.31,30.2 21,30.85 21,31.8 V 34 H 20 V 31.93 C 20,31.33 19.58,31.01 19,31.01 C 18.48,31.01 18,31.38 18,31.93 V 34 H 17 V 29 H 18 V 30.72 C 18.3,30.36 18.9,30.2 19.36,30.2 Z M 12.5,32 C 12.5,30.83 13.4,30 14.55,30 C 15.58,30 16.27,30.5 16.5,31.37 H 15.37 C 15.25,31.04 14.97,30.83 14.54,30.83 C 13.94,30.83 13.5,31.25 13.5,32 C 13.5,32.73 13.94,33.16 14.54,33.16 C 14.96,33.16 15.24,32.98 15.37,32.63 H 16.5 C 16.26,33.53 15.44,34 14.55,34 C 13.39,34 12.5,33.18 12.5,32 Z M 12,31.92 C 12,32.06 11.99,32.18 11.97,32.29 H 9.03 C 9.06,32.57 9.16,32.79 9.33,32.95 C 9.51,33.11 9.73,33.19 10,33.19 C 10.37,33.19 10.64,33.03 10.8,32.72 H 11.9 C 11.78,33.09 11.56,33.4 11.23,33.64 S 10.5,34 10.02,34 A 2.2,2.2 0 0,1 8.97,33.76 C 8.67,33.59 8.43,33.36 8.25,33.05 C 8.08,32.75 8,32.4 8,32 S 8.08,31.25 8.25,30.94 C 8.42,30.64 8.66,30.41 8.97,30.24 C 9.27,30.08 9.62,30 10.02,30 C 10.4,30 10.74,30.08 11.04,30.24 C 11.34,30.4 11.58,30.62 11.74,30.92 C 11.92,31.21 12,31.54 12,31.92 Z M 10.95,31.64 C 10.95,31.38 10.85,31.18 10.66,31.04 C 10.48,30.88 10.26,30.8 9.99,30.8 A 0.95,0.95 0 0,0 9.35,31.03 A 0.95,0.95 0 0,0 9.04,31.63 H 10.94 Z M 8,29 V 29.8 H 6.5 V 34 H 5.5 V 29.81 H 4 V 29 H 8 Z"/>
</svg>
