<!-- by Finnhub --><svg xmlns="http://www.w3.org/2000/svg" width="56" height="56" viewBox="0 0 56 56"><path fill="#094C84" d="M0 0h56v56H0z"/><path d="M32 13.5a2.5 2.5 0 1 1-4.5-1.5 16 16 0 0 0-8.93 28.93l.06-.1 6.65-16.2s1.88-3.63-.5-3.63c-2.95 0-5.81 2.96-7.63 4.85L17 26c1.86-5.1 4.88-9 10.44-9 2.31 0 4.62 2.22 4.56 4.44-.05 1.73-1.06 3.97-1.63 5.2l-.7 1.56c-.9 1.94-1.67 3.62-1.67 3.73 0 0 0 .07.05.07 4.42-3.8 6.12-5.24 7.98-6.9.64-.57 1.5-1.1 2.22-1.1.72 0 .75.86.75 1.34 0 3.16-3.53 8.88-5 12.7a5.68 5.68 0 0 0 0 3.46s-2-1.4-2-3.25c0-1.4 1.08-3.96 1.95-5.5.57-1.02 1.05-1.87 1.05-2.28v-.02c0-.16 0-.45-.22-.45-.18 0-.39.16-.57.3-3.09 2.92-5.4 4.95-8.59 7.73 0 0-3.23 2.98-5.25 4.04a16 16 0 0 0 11.4-29.62c.15.32.23.67.23 1.05z" fill="#fff"/></svg>