<!-- by Finnhub --><svg width="56" height="56" viewBox="0 0 56 56" xmlns="http://www.w3.org/2000/svg"><path fill="#F0F3FA" d="M0 0h56v56H0z"/><path d="M21.56 34.58c0 4.12 2.41 6.72 3.62 7.5l1.56-.26.76-.73c-1.16-.66-3.87-2.9-3.87-5.79 0-3.61 1-6.04 2.24-10.78 1-3.79.58-8.14.24-9.85 6.85 4.86 12.83 11.78 12.83 18.54 0 5.41-3.46 7.68-5.19 8.13l.77 1.96C39.9 41.8 41 35.5 41 33.68c0-1.84-.4-7.85-5.6-13.71A56.62 56.62 0 0 0 23.04 10c.45.43 1.34 2.72 1.34 8.43 0 7.14-2.83 11-2.83 16.15Z" fill="#004F98"/><path d="M25.17 30.96c-1.8-1.52-3.35-3.97-4.34-5.86a23.5 23.5 0 0 1-.88-1.83c-.29.43-.66 1.06-1.04 1.81-1.05 2.06-2.22 5.1-2.22 7.99 0 4.92 1.72 9.19 6.43 9.19 3.77 0 5.13-2.29 5.33-3.43.78-2.45-.17-5.22-3.28-7.87Zm1.08-1.34c3.38 2.87 4.86 6.3 3.84 9.65a5.48 5.48 0 0 1-1.26 2.43l.05.01a9 9 0 0 0 3.6.1l.25 1.85c-1.81.26-3.24.14-4.3-.14-.49-.13-.91-.3-1.27-.48a8.17 8.17 0 0 1-4.04.96c-2.96 0-5.1-1.4-6.42-3.57-1.25-2.07-1.7-4.74-1.7-7.36 0-2.27.62-4.55 1.34-6.41.73-1.88 1.6-3.46 2.22-4.38l1.74-2.6 1.21 2.9c.32.76.95 2.07 1.8 3.43a15.91 15.91 0 0 0 2.94 3.61Z" fill="#3F873F"/></svg>