<?xml version="1.0" encoding="UTF-8"?>
<!-- generated by Finnhub -->
<svg viewBox="0 0 55.5 55.5" xmlns="http://www.w3.org/2000/svg">
<path d="M 0,0 H 55.5 V 55.5 H 0 Z" fill="rgb(239, 242, 248)"/>
<path d="M 10.99,24.985 H 11.72 V 26.126 A 2.49,2.49 0 0,1 12.44,25.315 C 12.732,25.105 13.09,25 13.512,25 C 13.585,25 13.657,25.006 13.726,25.018 C 13.795,25.03 13.866,25.044 13.939,25.061 L 13.854,25.775 A 0.884,0.884 0 0,0 13.574,25.727 C 13.256,25.727 12.982,25.777 12.75,25.878 C 12.518,25.979 12.327,26.118 12.177,26.296 A 1.75,1.75 0 0,0 11.842,26.92 C 11.768,27.158 11.732,27.415 11.732,27.69 V 31 H 11 V 25 Z M 14,28 C 14,27.564 14.075,27.163 14.223,26.796 A 2.752,2.752 0 0,1 15.791,25.222 C 16.161,25.074 16.564,25 17.001,25 C 17.436,25 17.838,25.074 18.204,25.222 C 18.559,25.363 18.883,25.575 19.154,25.845 C 19.424,26.117 19.637,26.44 19.778,26.796 C 19.926,27.163 20,27.564 20,28 C 20,28.436 19.926,28.838 19.778,29.203 C 19.637,29.559 19.424,29.883 19.154,30.155 C 18.883,30.425 18.559,30.637 18.204,30.778 A 3.182,3.182 0 0,1 17,31 C 16.564,31 16.16,30.926 15.79,30.778 A 2.752,2.752 0 0,1 14.223,29.203 A 3.174,3.174 0 0,1 14,28 Z M 14.74,28 C 14.74,28.32 14.792,28.624 14.895,28.907 C 14.993,29.183 15.146,29.435 15.345,29.648 C 15.548,29.862 15.792,30.032 16.062,30.148 C 16.342,30.272 16.655,30.334 17,30.334 C 17.346,30.334 17.658,30.272 17.939,30.148 A 2.19,2.19 0 0,0 18.654,29.648 C 18.854,29.435 19.007,29.183 19.104,28.908 C 19.209,28.616 19.261,28.308 19.259,28 C 19.259,27.679 19.208,27.377 19.105,27.092 A 2.126,2.126 0 0,0 17.938,25.852 A 2.298,2.298 0 0,0 17,25.666 C 16.655,25.666 16.341,25.728 16.062,25.852 A 2.12,2.12 0 0,0 14.896,27.092 A 2.635,2.635 0 0,0 14.741,28 Z M 4,25 H 4.727 V 26.152 H 4.751 C 4.862,25.957 5.006,25.782 5.175,25.638 A 2.54,2.54 0 0,1 5.727,25.278 C 5.926,25.183 6.135,25.112 6.35,25.068 A 3.004,3.004 0 0,1 10,28.01 C 10,29.696 8.697,31 7,31 C 6.137,31 5.194,30.652 4.751,29.87 H 4.727 V 34 H 4 V 25 Z M 4.654,28.011 A 2.336,2.336 0 0,0 5.333,29.666 C 5.766,30.099 6.348,30.331 7,30.331 C 8.308,30.331 9.281,29.294 9.273,28.011 C 9.273,26.739 8.275,25.669 6.992,25.669 C 6.661,25.669 6.354,25.731 6.072,25.855 A 2.33,2.33 0 0,0 4.655,28.011 Z" fill="rgb(91, 84, 138)"/>
<path d="M 33.99,24.985 H 34.788 V 26.136 C 35.13,25.414 36.048,25 36.823,25 C 38.269,25 39,26.094 39,27.41 V 31 H 38.273 V 27.446 C 38.273,26.506 37.838,25.654 36.823,25.654 C 35.553,25.654 34.788,26.729 34.788,27.944 V 31 H 34 V 25 Z M 32.755,29.778 C 32.472,30.214 32.123,30.527 31.707,30.716 C 31.291,30.906 30.832,31 30.332,31 A 2.94,2.94 0 0,1 29.169,30.778 A 2.622,2.622 0 0,1 28.273,30.155 A 2.743,2.743 0 0,1 27.697,29.203 A 3.537,3.537 0 0,1 27.497,27.988 C 27.497,27.56 27.566,27.165 27.703,26.802 C 27.841,26.44 28.034,26.126 28.285,25.858 C 28.535,25.59 28.836,25.376 29.169,25.228 C 29.509,25.076 29.884,25 30.296,25 C 30.724,25 31.101,25.076 31.429,25.228 A 2.482,2.482 0 0,1 32.755,26.691 C 32.868,27.012 32.925,27.337 32.925,27.667 V 28.185 H 28.225 C 28.225,28.342 28.255,28.541 28.315,28.784 S 28.487,29.264 28.649,29.494 C 28.81,29.724 29.026,29.922 29.297,30.086 C 29.567,30.251 29.917,30.334 30.344,30.334 C 30.716,30.334 31.075,30.243 31.423,30.062 C 31.77,29.881 32.036,29.634 32.223,29.321 L 32.755,29.778 Z M 32.198,27.518 C 32.198,27.263 32.147,27.025 32.046,26.802 C 31.946,26.582 31.806,26.383 31.634,26.216 A 1.966,1.966 0 0,0 30.259,25.666 C 29.863,25.666 29.535,25.749 29.272,25.913 C 29.01,26.078 28.802,26.267 28.648,26.481 A 2.275,2.275 0 0,0 28.321,27.105 C 28.256,27.307 28.224,27.445 28.224,27.519 H 32.198 Z M 26.443,30.621 C 26.443,31.347 26.343,31.934 26.141,32.381 C 25.648,33.474 24.694,34 23.524,34 C 22.489,34 21.39,33.602 20.751,32.751 L 21.321,32.194 C 21.815,32.924 22.654,33.322 23.525,33.317 C 24.623,33.317 25.12,32.894 25.42,32.261 C 25.513,32.063 25.582,31.864 25.626,31.666 C 25.671,31.468 25.696,31.28 25.706,31.103 C 25.713,30.925 25.717,30.783 25.717,30.673 V 29.863 H 25.693 A 2.272,2.272 0 0,1 24.839,30.697 C 24.479,30.9 24.057,31.001 23.573,31.001 A 2.965,2.965 0 0,1 21.459,30.121 A 3.11,3.11 0 0,1 20.817,29.166 A 2.9,2.9 0 0,1 20.581,28 C 20.581,27.587 20.661,27.198 20.817,26.836 A 3.035,3.035 0 0,1 22.41,25.24 A 2.85,2.85 0 0,1 23.573,25 C 24.057,25 24.48,25.101 24.839,25.303 C 25.189,25.497 25.485,25.786 25.693,26.139 H 25.717 V 25 H 26.444 V 30.622 Z M 25.741,28.001 A 2.351,2.351 0 0,0 25.093,26.361 A 2.237,2.237 0 0,0 24.39,25.867 A 2.081,2.081 0 0,0 23.524,25.684 A 2.078,2.078 0 0,0 22.658,25.867 A 2.236,2.236 0 0,0 21.483,27.096 A 2.338,2.338 0 0,0 21.307,28.001 C 21.307,28.321 21.366,28.623 21.484,28.906 A 2.236,2.236 0 0,0 22.659,30.135 C 22.932,30.257 23.227,30.32 23.524,30.318 C 23.822,30.32 24.117,30.258 24.39,30.134 A 2.244,2.244 0 0,0 25.566,28.906 C 25.683,28.62 25.742,28.312 25.741,28.001 Z" fill="rgb(141, 195, 61)"/>
<path d="M 40.480000000000004,23.743 A 0.527,0.527 0 0,0 40.333,24.145 C 40.333,24.299 40.385,24.428 40.49,24.533 A 0.528,0.528 0 0,0 40.878,24.69 A 0.526,0.526 0 0,0 41.265,24.533 A 0.528,0.528 0 0,0 41.423,24.145 A 0.527,0.527 0 0,0 41.265,23.758 A 0.527,0.527 0 0,0 40.878,23.6 A 0.53,0.53 0 0,0 40.49,23.758 Z M 41.241,25 H 40.515 V 31 H 41.241 V 25 Z M 44.38,26 H 46.412 L 46.214,25.346 H 44.379 V 23.648 H 43.652 V 25.346 H 42.441 V 26 H 43.652 V 29.56 C 43.65,29.75 43.677,29.94 43.73,30.123 C 43.78,30.29 43.865,30.445 43.98,30.577 C 44.092,30.707 44.241,30.809 44.427,30.886 C 44.613,30.963 44.835,31.001 45.093,31.001 C 45.231,31.001 45.388,30.981 45.566,30.94 C 45.744,30.9 45.901,30.856 46.038,30.807 L 45.978,30.153 C 45.848,30.21 45.713,30.256 45.572,30.293 C 45.431,30.329 45.292,30.347 45.154,30.347 C 44.912,30.347 44.722,30.278 44.584,30.141 C 44.447,30.004 44.379,29.81 44.379,29.56 V 26 Z M 48.547,33.685 C 48.789,33.475 48.979,33.188 49.117,32.825 L 52,25 H 51.225 L 49.419,29.971 L 47.566,25 H 46.754 L 49.032,30.88 L 48.522,32.413 C 48.482,32.526 48.436,32.638 48.384,32.746 C 48.334,32.852 48.27,32.952 48.196,33.043 A 0.907,0.907 0 0,1 47.936,33.261 A 0.697,0.697 0 0,1 47.59,33.346 C 47.477,33.346 47.366,33.332 47.257,33.303 A 7.85,7.85 0 0,1 47,33.232 V 33.927 C 47.07,33.943 47.141,33.957 47.215,33.97 C 47.335,33.99 47.457,34 47.578,34 C 47.982,34 48.305,33.895 48.547,33.685 Z" fill="rgb(91, 84, 138)"/>
</svg>
