<?xml version="1.0" encoding="UTF-8"?>
<!-- generated by Finnhub -->
<svg viewBox="0 0 55.5 55.5" xmlns="http://www.w3.org/2000/svg">
<path d="M 0,0 H 55.5 V 55.5 H 0 Z" fill="rgb(239, 242, 248)"/>
<path d="M 43.99,25.985 V 20.84 L 28,12 V 17.04 L 44,26 Z M 28,35 V 29.84 L 12,21 V 26.04 L 28,35 Z M 44,29.84 V 35 L 28,26.04 V 21 L 44,29.84 Z M 28,44 V 38.84 L 12,30 V 35.04 L 28,44 Z" fill="rgb(96, 99, 105)"/>
<path d="M 11.99,25.985 V 20.84 L 28,12 V 17.04 L 12,26 Z M 28,35 V 29.84 L 44,21 V 26.04 L 28,35 Z M 12,29.84 V 35 L 28,26.04 V 21 L 12,29.84 Z M 28,44 V 38.84 L 44,30 V 35.04 L 28,44 Z" fill="rgb(42, 47, 52)"/>
</svg>
