<!-- by Finnhub --><svg width="56" height="56" viewBox="0 0 56 56" xmlns="http://www.w3.org/2000/svg"><path fill="#F0F3FA" d="M0 0h56v56H0z"/><path d="M27 45v1c7.26 0 13-3.6 13-9.3 0-5.7-7.43-12.07-9.62-15.67 0 5.62-5.24 12.52-5.24 16.87 0 2.63 1.86 5.55 3.63 5.55 3.72 0 4.34-6.8 4.23-10.45.23.6.75 1.7.75 3.25A8.53 8.53 0 0 1 27 45Z" fill="url(#a3drfldo3)"/><path d="M27 46v-1a8.53 8.53 0 0 0 6.75-8.75c0-1.23-.52-2.48-.75-3.25.38 1.03 1.29 2.79 1.29 3.93 0 3-3.1 9.07-7.29 9.07Z" fill="url(#b3drfldo3)"/><path d="M31 12.44c0-1.9-.72-3.75-1-4.44-2.43 10.89-14 16.52-14 26.15 0 7.7 6.61 11.13 10 11.85v-1.26c-3.82-1-4.66-6.37-4.68-8.89 0-8.07 9.68-15.1 9.68-23.4Z" fill="url(#c3drfldo3)"/><path d="M21.86 32.4a12.73 12.73 0 0 0-1.09 5.38c0 3.27 2.13 6.93 5.23 8.21v-1.25c-3.82-1-4.66-6.37-4.68-8.89 0-1.17.2-2.32.54-3.46Z" fill="url(#d3drfldo3)"/><path d="M19.1 41.96a16.84 16.84 0 0 1-2.32-8.03c0-4.83 4.05-9.75 7.15-13.54.71-.86 1.37-1.66 1.92-2.39 2.65-3.5 4.12-6.47 4.19-9.9A4.73 4.73 0 0 0 30 8c-1.15 5.17-4.37 9.16-7.43 12.95-3.38 4.19-6.57 8.14-6.57 13.2a11 11 0 0 0 3.1 7.81Z" fill="url(#e3drfldo3)"/><defs><linearGradient id="a3drfldo3" x1="32.57" y1="24.1" x2="32.57" y2="46" gradientUnits="userSpaceOnUse"><stop offset=".19" stop-color="#429349"/><stop offset=".76" stop-color="#87BF40"/></linearGradient><linearGradient id="b3drfldo3" x1="35.27" y1="38.58" x2="28.81" y2="46.76" gradientUnits="userSpaceOnUse"><stop offset=".5" stop-color="#307F26"/><stop offset=".85" stop-color="#90BD54"/></linearGradient><linearGradient id="c3drfldo3" x1="29.92" y1="8.07" x2="24.64" y2="46.08" gradientUnits="userSpaceOnUse"><stop stop-color="#1F2549"/><stop offset=".54" stop-color="#44A4E1"/><stop offset="1" stop-color="#242D64"/></linearGradient><linearGradient id="d3drfldo3" x1="22.85" y1="31.33" x2="24.58" y2="45.64" gradientUnits="userSpaceOnUse"><stop stop-color="#1F2549"/><stop offset="1" stop-color="#44A4E1"/></linearGradient><linearGradient id="e3drfldo3" x1="30" y1="8.07" x2="24.51" y2="45.28" gradientUnits="userSpaceOnUse"><stop stop-color="#242947"/><stop offset=".46" stop-color="#386C9B"/><stop offset="1" stop-color="#202F4F"/></linearGradient></defs></svg>