<?xml version="1.0" encoding="UTF-8"?>
<!-- generated by Finnhub -->
<svg viewBox="0 0 55.5 55.5" xmlns="http://www.w3.org/2000/svg">
<path d="M 0,0 H 55.5 V 55.5 H 0 Z" fill="rgb(23, 26, 28)"/>
<path d="M 23.669999999999998,18.384999999999998 A 37.8,37.8 0 0,1 22.55,18.35 C 22.44,18.34 22.34,18.09 22.47,18.09 L 25.84,18 C 25.86,18 25.89,18 25.91,18.02 C 25.99,18.05 26.01,18.14 25.99,18.22 L 20.27,32.36 A 9.6,9.6 0 0,0 19.89,33.51 C 19.74,34.08 19.97,34.4 20.56,34.46 C 20.91,34.49 21.29,34.39 21.67,34.15 A 0.1,0.1 0 0,1 21.74,34.13 C 21.79,34.14 21.84,34.19 21.84,34.24 C 21.84,34.32 21.81,34.39 21.74,34.44 C 21.09,34.94 20.25,35.1 19.24,34.94 C 18.41,34.81 17.84,34.18 18.04,33.32 C 18.14,32.85 18.31,32.32 18.54,31.75 L 23.86,18.59 C 23.9,18.49 23.78,18.39 23.68,18.39 Z M 32,23 A 1,1 0 1,0 32,21 A 1,1 0 0,0 32,23 Z M 29,23 A 1,1 0 1,0 29,21 A 1,1 0 0,0 29,23 Z" fill="rgb(253, 253, 252)"/>
<path d="M 28.68,32.325 A 0.5,0.5 0 0,0 28.47,32.47 C 28.04,32.94 27.57,33.42 27.03,33.9 A 4.1,4.1 0 0,1 23.18,34.87 C 22.72,34.76 22.09,34.44 22.02,33.96 C 21.96,33.48 22.03,33.01 22.25,32.56 C 23.37,30.21 24.53,27.83 25.72,25.43 C 25.78,25.33 25.9,25.25 26.02,25.26 A 4.1,4.1 0 0,0 27.62,25 C 27.69,25.01 27.74,25.07 27.73,25.13 C 27.73,25.23 27.7,25.31 27.66,25.4 C 26.46,27.9 25.32,30.34 24.26,32.73 C 24.08,33.12 23.69,34.05 24.16,34.37 C 25.26,35.13 27.06,33.45 27.71,32.76 C 28.67,31.76 29.45,30.62 30.05,29.36 C 30.65,28.09 31.25,26.66 31.84,25.34 C 31.92,25.17 32.1,25.08 32.3,25.09 A 5.61,5.61 0 0,0 33.95,25 C 33.97,25 33.99,25.03 34,25.05 V 25.09 C 33.33,26.49 32.25,28.97 30.73,32.25 C 30.45,32.85 30.26,33.39 30.16,33.85 C 30.07,34.22 30.24,34.45 30.66,34.53 C 31.04,34.6 31.38,34.42 31.71,34.27 C 31.79,34.23 31.83,34.26 31.83,34.33 C 31.84,34.43 31.79,34.52 31.69,34.58 C 30.87,35.08 29.59,35.17 28.76,34.57 C 28.31,34.24 28.17,33.83 28.36,33.32 C 28.47,32.99 28.61,32.68 28.76,32.41 C 28.8,32.33 28.78,32.31 28.69,32.34 Z M 37.65,26.53 C 37.38,27.11 37.45,27.16 37.88,26.67 C 38.77,25.67 39.5,25 41,25 C 41.67,25 42.3,25.25 42.56,25.93 C 42.7,26.29 42.75,26.63 42.7,26.92 C 42.69,26.98 42.71,27.02 42.77,27.05 C 42.82,27.07 42.88,27.03 42.91,26.99 C 43.61,25.96 44.73,25.02 46,25 C 46.25,25 46.51,25.03 46.78,25.1 C 48.15,25.5 48.18,26.9 47.73,27.96 A 152.9,152.9 0 0,1 45.7,32.5 C 45.48,32.97 45.33,33.4 45.26,33.77 C 45.09,34.64 46.1,34.43 46.56,34.2 C 47.06,33.96 47.36,33.54 47.79,33.22 C 47.85,33.18 47.9,33.18 47.95,33.23 L 47.98,33.27 C 48.02,33.37 48,33.47 47.93,33.54 C 47.3,34.2 46.08,35 45,35 C 43.47,35 43.37,33.55 43.88,32.4 L 45.98,27.63 C 46.11,27.33 46.22,27.03 46.32,26.7 C 46.51,26.04 46.18,25.41 45.37,25.6 C 43.45,26.04 42.21,28.64 41.5,30.26 L 39.52,34.75 A 0.44,0.44 0 0,1 39.12,35 H 37.61 C 37.54,35 37.48,34.92 37.51,34.86 C 38.48,32.68 39.41,30.53 40.33,28.44 C 40.63,27.77 41.12,26.77 41.09,26.04 C 41.08,25.33 40.16,25.41 39.72,25.64 C 38.54,26.27 37.52,27.62 36.8,28.71 C 36.6,29.01 36.44,29.3 36.32,29.58 L 34.18,34.45 C 34.11,34.61 34.03,34.76 33.92,34.92 A 0.18,0.18 0 0,1 33.73,35 C 33.15,34.85 32.65,34.93 32.06,35 A 0.05,0.05 0 0,1 32,34.92 L 36.09,25.79 C 36.13,25.68 36.05,25.55 35.92,25.55 C 35.62,25.55 35.34,25.52 35.09,25.45 C 34.91,25.4 34.99,25.11 35.17,25.13 C 36.23,25.25 37.22,25.19 38.14,25 C 38.21,24.99 38.26,25.05 38.24,25.11 C 38.06,25.61 37.86,26.1 37.65,26.53 Z" fill="rgb(253, 253, 252)"/>
<path d="M 12.47,25.865 C 12.6,25.65 12.71,25.41 12.82,25.14 C 13.82,22.64 14.78,20.31 15.67,18.14 C 15.7,18.07 15.65,18 15.57,18 C 14.54,18.06 13.48,18.09 12.41,18.07 A 0.16,0.16 0 0,0 12.31,18.11 C 12.24,18.17 12.21,18.22 12.21,18.29 C 12.23,18.35 12.27,18.39 12.33,18.39 L 13.43,18.41 C 13.56,18.41 13.65,18.56 13.6,18.68 L 8.4,31.14 C 7.96,32.22 7.68,33.32 8.67,34.22 C 9.19,34.69 9.8,34.95 10.5,34.99 C 12.6,35.12 14.44,33.95 15.9,32.36 C 17.3,30.85 18.3,28.86 17.92,26.78 C 17.56,24.77 15.3,24 13.69,24.99 C 13.34,25.2 13.06,25.49 12.79,25.79 L 12.67,25.92 C 12.62,25.97 12.42,26.01 12.48,25.88 Z M 13.62,33 A 15.5,15.5 0 0,0 15.58,29.32 C 15.96,28.34 16.81,25.74 15.51,25.11 A 1.13,1.13 0 0,0 15,25 A 2.9,2.9 0 0,0 13.15,25.9 C 11.82,27.33 11.08,29.28 10.38,31.16 L 10.25,31.51 C 9.97,32.25 9.78,32.9 9.68,33.44 C 9.57,34.04 9.79,34.42 10.35,34.57 C 11.55,34.89 12.87,33.99 13.62,33 Z" fill="rgb(253, 253, 252)" fill-rule="evenodd"/>
</svg>
