<?xml version="1.0" encoding="UTF-8"?>
<!-- generated by Finnhub -->
<svg viewBox="0 0 55.5 55.5" xmlns="http://www.w3.org/2000/svg">
<path d="M 0,0 H 55.5 V 55.5 H 0 Z" fill="rgb(239, 242, 248)"/>
<path d="M 29.419999999999998,13.385 A 0.2,0.2 0 0,0 29.28,13.28 A 0.2,0.2 0 0,0 29.09,13.35 A 10.95,10.95 0 0,0 26.89,17.14 C 26.86,17.22 26.81,17.24 26.74,17.19 L 24.24,15.71 C 24.18,15.69 24.18,15.65 24.21,15.61 A 9.27,9.27 0 0,1 26.79,13.09 A 31.1,31.1 0 0,0 29.63,11.07 C 29.77,10.95 29.87,10.98 29.93,11.16 C 30.06,11.59 30.62,12.18 31.6,12.92 A 7.1,7.1 0 0,1 33.2,15.27 A 0.15,0.15 0 0,1 33.15,15.39 A 3.33,3.33 0 0,0 31.41,16.72 C 31.35,16.82 31.29,16.82 31.22,16.72 A 17.64,17.64 0 0,1 29.42,13.4 Z" fill="rgb(235, 115, 166)"/>
<path d="M 26.169999999999998,21.585 A 0.36,0.36 0 0,0 26.3,21.86 A 0.33,0.33 0 0,0 26.57,21.94 A 9.08,9.08 0 0,1 31.89,22.65 C 32.07,22.74 32.11,22.87 32.01,23.05 L 31.63,23.71 C 31.56,23.83 31.48,23.85 31.37,23.77 A 5.26,5.26 0 0,0 25.39,23.35 C 25.29,23.4 25.24,23.37 25.2,23.27 C 24.68,21.64 24.9,20.31 25.86,19.3 A 8.91,8.91 0 0,0 27.18,17.71 L 28.6,14.59 C 28.68,14.41 28.8,14.23 28.96,14.03 C 29.11,13.85 29.18,13.87 29.16,14.11 A 10.17,10.17 0 0,1 26.63,20.33 C 26.33,20.67 26.17,21.1 26.18,21.6 Z M 36.7,21.8 A 7.76,7.76 0 0,0 33.2,21.85 C 33.08,21.88 33.02,21.83 33.02,21.7 A 6.86,6.86 0 0,0 31.88,17.7 A 0.76,0.76 0 0,1 31.94,16.8 C 32.32,16.35 32.81,16 33.39,15.77 C 33.64,15.67 34.2,15.59 35.09,15.53 A 11.3,11.3 0 0,0 38.67,14.68 C 38.8,14.63 38.84,14.67 38.79,14.8 A 6.8,6.8 0 0,0 38.31,16.5 C 38.26,17.2 38.29,18.55 38.41,20.53 C 38.42,20.81 38.3,21.17 38.04,21.62 C 37.82,21.99 37.53,22.11 37.16,21.97 L 36.7,21.8 Z" fill="rgb(235, 115, 166)"/>
<path d="M 24.49,21.925 A 0.07,0.07 0 0,1 24.46,22.01 A 0.07,0.07 0 0,1 24.37,21.99 C 24.1,21.65 23.81,21.39 23.52,21.19 C 22.82,20.71 21.52,20.66 20.74,20.51 A 0.3,0.3 0 0,1 20.59,20.44 A 0.32,0.32 0 0,1 20.5,20.29 A 5.63,5.63 0 0,1 21.91,14.73 C 22,14.63 22.08,14.63 22.16,14.74 A 5.31,5.31 0 0,0 24.94,16.64 C 25.06,16.68 25.51,17 26.28,17.59 C 26.39,17.67 26.4,17.77 26.3,17.87 C 25.13,19.07 24.33,20.13 24.5,21.94 Z M 26.59,21.32 C 26.79,20.82 27.06,20.35 27.42,19.92 A 9.12,9.12 0 0,0 29.39,14.92 C 29.42,14.6 29.51,14.58 29.67,14.86 C 30.4,16.16 31.23,17.73 32.17,19.59 C 32.49,20.22 32.57,21.05 32.44,22.09 A 0.38,0.38 0 0,1 32.24,22.37 A 0.36,0.36 0 0,1 31.91,22.37 A 8.28,8.28 0 0,0 26.78,21.57 A 0.17,0.17 0 0,1 26.61,21.5 A 0.19,0.19 0 0,1 26.59,21.32 Z M 18.68,18.31 L 18.78,19.53 A 0.5,0.5 0 0,1 18.52,20.01 L 17.64,20.47 A 0.47,0.47 0 0,1 17.06,20.36 A 0.5,0.5 0 0,1 16.96,20.17 L 16.46,18.49 A 0.5,0.5 0 0,1 16.71,17.92 A 0.47,0.47 0 0,1 16.93,17.86 H 18.2 C 18.32,17.86 18.44,17.91 18.53,18 C 18.62,18.08 18.67,18.2 18.68,18.31 Z M 40.8,21.68 L 38.7,21.71 A 0.1,0.1 0 0,1 38.6,21.67 A 0.11,0.11 0 0,1 38.58,21.57 L 38.9,19.54 A 0.11,0.11 0 0,1 38.96,19.45 A 0.1,0.1 0 0,1 39.07,19.46 L 40.14,20.23 C 40.16,20.23 40.17,20.25 40.18,20.27 L 40.88,21.51 A 0.12,0.12 0 0,1 40.89,21.62 A 0.11,0.11 0 0,1 40.79,21.68 Z M 15.87,21.85 C 16.68,22.61 17.15,23.61 17.29,24.85 C 17.31,24.99 17.25,25.06 17.12,25.08 C 16.02,25.27 15.07,25.71 14.24,26.41 A 0.52,0.52 0 0,1 13.95,26.53 A 0.5,0.5 0 0,1 13.65,26.46 C 12.19,25.59 11.72,23.86 11.02,22.16 C 10.97,22.01 11.02,21.92 11.16,21.88 A 8.69,8.69 0 0,0 14.58,20 C 14.68,19.9 14.78,19.93 14.84,20.05 C 15.39,21.13 15.74,21.73 15.87,21.86 Z" fill="rgb(235, 115, 166)"/>
<path d="M 19.729999999999997,21.015 C 19.41,21.07 19.36,20.97 19.59,20.73 C 19.64,20.67 19.78,20.57 19.99,20.43 C 20.09,20.37 20.12,20.28 20.09,20.17 C 19.8,19.17 19.79,18.21 20.02,17.31 A 0.43,0.43 0 0,0 19.83,16.82 A 0.4,0.4 0 0,0 19.66,16.77 L 15.27,16.4 C 15.14,16.4 15.07,16.45 15.06,16.59 A 8.64,8.64 0 0,0 15.56,20.37 C 15.76,20.94 16.22,21.5 16.63,22.01 L 16.66,22.05 C 16.88,22.32 17.11,22.75 17.33,23.32 L 17.63,24.12 C 17.9,24.88 18.19,25.69 18.57,26.28 C 19.51,27.76 20.95,28.48 22.89,28.44 C 23.01,28.44 23.06,28.38 23.05,28.26 A 4.4,4.4 0 0,1 23.97,24.86 L 24.79,23.86 A 0.3,0.3 0 0,0 24.83,23.55 C 24.31,22.4 23.66,21.67 22.87,21.38 A 6.49,6.49 0 0,0 19.74,21.03 Z M 19.2,18.05 L 19.3,19.6 A 0.78,0.78 0 0,1 18.9,20.33 L 17.73,20.95 A 0.73,0.73 0 0,1 16.83,20.8 A 0.76,0.76 0 0,1 16.68,20.51 L 16,18.36 A 0.78,0.78 0 0,1 16.1,17.68 A 0.75,0.75 0 0,1 16.7,17.37 L 18.44,17.34 C 18.63,17.34 18.81,17.41 18.95,17.54 C 19.09,17.68 19.18,17.86 19.19,18.05 Z M 18.4,24.49 C 18.13,23.75 17.94,23.1 17.82,22.55 A 0.33,0.33 0 0,1 17.86,22.31 A 0.32,0.32 0 0,1 18.05,22.17 A 6.63,6.63 0 0,1 24.16,23.42 A 0.2,0.2 0 0,1 24.15,23.6 A 0.18,0.18 0 0,1 24.08,23.66 C 22.6,24.47 21.92,25.8 22.04,27.64 A 0.23,0.23 0 0,1 21.94,27.84 A 0.22,0.22 0 0,1 21.72,27.86 A 8.12,8.12 0 0,1 19.42,26.15 C 18.98,25.69 18.64,25.15 18.41,24.49 Z M 43,23.22 A 11.2,11.2 0 0,1 39.6,27.18 C 39.26,27.41 39.12,27.32 39.2,26.91 C 39.42,25.66 39.23,23.91 38.2,23.08 A 169.48,169.48 0 0,1 37.54,22.52 A 0.07,0.07 0 0,1 37.55,22.46 L 37.58,22.44 A 8.8,8.8 0 0,1 42.97,23.01 A 0.18,0.18 0 0,1 42.99,23.22 Z" fill="rgb(235, 115, 166)"/>
<path d="M 23.29,23.585 C 22.16,24.33 21.58,25.47 21.56,27.02 C 21.56,27.14 21.51,27.17 21.41,27.12 A 5.2,5.2 0 0,1 18.31,22.85 A 0.32,0.32 0 0,1 18.36,22.63 A 0.3,0.3 0 0,1 18.56,22.51 A 6.3,6.3 0 0,1 23.35,23.41 A 0.14,0.14 0 0,1 23.3,23.6 Z" fill="rgb(235, 115, 166)"/>
<path d="M 32.260000000000005,24.465 C 33.65,25.46 33.87,27.57 33.47,29.11 A 0.29,0.29 0 0,0 33.5,29.34 A 0.27,0.27 0 0,0 33.7,29.46 C 35.1,29.64 36.66,29.51 37.7,28.65 C 38.65,27.85 38.94,26.67 38.58,25.09 C 38.31,23.91 37.64,23.1 36.57,22.65 C 34.76,21.9 33.29,22.27 32.16,23.75 A 0.52,0.52 0 0,0 32.26,24.48 Z M 32.92,24.29 C 33.08,24.75 33.32,25.11 33.62,25.39 C 33.72,25.46 33.78,25.55 33.82,25.66 C 34.23,26.63 34.37,27.54 34.22,28.4 A 0.56,0.56 0 0,0 34.38,28.89 A 0.53,0.53 0 0,0 34.86,29.03 C 35.09,28.98 35.59,28.83 36.36,28.57 C 36.66,28.47 36.93,28.29 37.17,28.05 C 37.53,27.68 37.72,27.42 37.76,27.25 C 38.07,25.71 37.78,24.56 36.9,23.78 C 35.59,22.63 34.29,22.68 33,23.95 A 0.3,0.3 0 0,0 32.92,24.29 Z" fill="rgb(235, 115, 166)" fill-rule="evenodd"/>
<path d="M 28.919999999999998,23.085 C 29.46,23.18 29.78,23.55 29.91,24.22 C 29.91,24.28 29.95,24.29 30,24.26 C 30.5,24.01 30.86,23.95 31.11,24.07 C 31.87,24.45 32.07,25 31.71,25.73 C 31.64,25.87 31.68,25.95 31.84,25.97 C 33.07,26.14 33.38,27.59 32.21,28.21 A 0.1,0.1 0 0,0 32.16,28.26 V 28.32 C 32.16,28.35 32.16,28.37 32.18,28.38 C 33.12,29.33 32.41,30.62 31.18,30.42 C 31.03,30.39 30.97,30.45 31,30.62 C 31.13,31.42 30.78,31.88 29.95,32.02 C 29.68,32.06 29.34,31.88 28.94,31.5 C 28.9,31.45 28.86,31.46 28.84,31.51 C 28.53,32.11 28.11,32.37 27.58,32.29 C 27.05,32.21 26.73,31.84 26.6,31.17 C 26.6,31.11 26.56,31.1 26.51,31.12 C 26.01,31.37 25.64,31.44 25.39,31.32 C 24.64,30.93 24.44,30.38 24.79,29.66 C 24.87,29.52 24.83,29.44 24.67,29.42 C 23.44,29.24 23.13,27.8 24.3,27.17 A 0.1,0.1 0 0,0 24.35,27.13 V 27.06 A 0.11,0.11 0 0,0 24.33,27 C 23.38,26.05 24.09,24.76 25.33,24.97 C 25.48,25 25.54,24.93 25.51,24.77 C 25.38,23.97 25.72,23.51 26.56,23.37 C 26.83,23.33 27.16,23.5 27.56,23.89 C 27.61,23.93 27.65,23.93 27.67,23.87 C 27.98,23.27 28.4,23.01 28.93,23.09 Z" fill="rgb(241, 162, 87)"/>
<path d="M 34.09,25.125 A 46.1,46.1 0 0,0 33.65,24.52 A 0.46,0.46 0 0,1 33.58,24.14 A 0.46,0.46 0 0,1 33.82,23.84 C 34.8,23.34 35.69,23.39 36.48,23.95 C 37.3,24.54 37.62,25.52 37.43,26.89 A 1.58,1.58 0 0,1 36.35,28.17 L 35.55,28.42 C 34.95,28.6 34.68,28.37 34.72,27.74 A 4.2,4.2 0 0,0 34.1,25.14 Z" fill="rgb(235, 115, 166)"/>
<path d="M 27.09,29.905 C 28.43,30.62 30.02,30.18 30.64,28.94 C 31.27,27.7 30.69,26.13 29.36,25.43 C 28.02,24.73 26.44,25.16 25.81,26.4 C 25.19,27.64 25.77,29.22 27.1,29.92 Z" fill="rgb(251, 205, 65)"/>
<path d="M 11.78,28.715 C 12.15,28.53 12.7,28.31 13.09,28.01 C 14.49,26.88 15.78,25.87 17.35,25.57 C 17.47,25.55 17.57,25.6 17.62,25.72 A 5.8,5.8 0 0,0 19.9,28.32 C 20.08,28.42 20.08,28.53 19.89,28.62 C 18.22,29.5 17.29,30.55 17.06,31.8 A 0.17,0.17 0 0,1 16.98,31.91 A 0.16,0.16 0 0,1 16.84,31.92 C 15.81,31.52 14.84,30.94 13.93,30.19 A 9.47,9.47 0 0,0 11.75,28.86 A 0.09,0.09 0 0,1 11.75,28.76 L 11.79,28.73 Z M 43.55,27.19 L 43.91,27.43 C 44.03,27.51 44.03,27.58 43.91,27.66 C 43.38,28.03 42.89,28.61 42.41,29.41 A 0.34,0.34 0 0,1 42.14,29.57 A 0.33,0.33 0 0,1 41.86,29.43 A 7.54,7.54 0 0,0 40.08,27.73 C 40.01,27.69 40.01,27.63 40.06,27.58 L 41.9,25.7 A 0.47,0.47 0 0,1 42.3,25.57 A 0.46,0.46 0 0,1 42.64,25.81 C 43.07,26.63 43.37,27.08 43.54,27.19 Z M 35.47,30.25 C 35.33,30.14 35.35,30.08 35.53,30.07 A 3.82,3.82 0 0,0 38.93,27.99 C 38.97,27.93 39.02,27.89 39.08,27.88 A 0.23,0.23 0 0,1 39.25,27.9 A 8.86,8.86 0 0,1 42.05,30.56 C 42.46,31.1 42.98,31.55 43.62,31.92 C 43.72,31.99 43.72,32.04 43.6,32.09 C 42.92,32.38 42.3,32.68 41.72,32.99 A 6.58,6.58 0 0,1 37.35,33.79 C 37.22,33.77 37.15,33.69 37.14,33.56 A 4.95,4.95 0 0,0 35.47,30.26 Z M 18.98,33 A 0.09,0.09 0 0,0 18.89,33.05 A 0.1,0.1 0 0,0 18.89,33.15 C 19.38,33.85 19.87,34.45 20.39,34.93 C 20.56,35.09 20.53,35.18 20.29,35.2 L 20.05,35.23 A 0.8,0.8 0 0,1 19.42,35.03 A 5.12,5.12 0 0,1 17.82,32.4 A 0.31,0.31 0 0,1 17.89,32.12 A 0.3,0.3 0 0,1 18.14,32.02 C 20.52,32.22 22.01,32.33 22.6,32.35 C 23.1,32.36 23.53,32.31 23.88,32.18 C 24.01,32.13 24.03,32.06 23.93,31.95 A 6.54,6.54 0 0,1 22.31,29.25 C 22.24,28.99 22.34,28.85 22.61,28.82 L 22.83,28.8 C 23.08,28.77 23.24,28.89 23.31,29.14 A 5.69,5.69 0 0,0 24.89,31.82 A 0.1,0.1 0 0,1 24.89,31.89 A 0.1,0.1 0 0,1 24.87,31.92 L 23.62,33.21 A 0.46,0.46 0 0,1 23.23,33.36 L 18.98,33 Z" fill="rgb(235, 115, 166)"/>
<path d="M 22.029999999999998,29.425 C 22.21,30.15 22.48,30.74 22.85,31.22 C 23.25,31.72 23.14,31.95 22.5,31.9 L 18.11,31.53 A 0.15,0.15 0 0,1 18.04,31.51 A 0.16,0.16 0 0,1 17.98,31.45 A 0.17,0.17 0 0,1 17.98,31.29 A 3.97,3.97 0 0,1 21.7,28.87 C 21.75,28.87 21.8,28.89 21.85,28.92 A 0.3,0.3 0 0,1 21.95,29.06 L 22.04,29.44 Z" fill="rgb(235, 115, 166)"/>
<path d="M 33.160000000000004,29.965 C 32.38,31.31 31.19,32.65 29.54,32.72 C 29.42,32.72 29.37,32.78 29.37,32.91 C 29.43,33.83 29.59,34.63 29.86,35.31 C 30.79,37.69 33.59,37.89 35.33,36.24 C 37.07,34.59 36.98,31.52 34.69,30.36 A 7.3,7.3 0 0,0 33.44,29.87 A 0.24,0.24 0 0,0 33.17,29.98 Z M 30.31,33.24 A 0.62,0.62 0 0,0 30.18,33.66 C 30.24,35.22 30.91,36.13 32.18,36.37 C 33.15,36.56 33.97,36.31 34.65,35.63 C 35.88,34.42 36.04,33.09 35.12,31.65 C 34.77,31.1 34.32,30.74 33.77,30.57 A 0.52,0.52 0 0,0 33.42,30.59 A 0.53,0.53 0 0,0 33.16,30.82 C 32.53,31.94 32.04,32.82 30.69,33.02 A 0.6,0.6 0 0,0 30.31,33.24 Z" fill="rgb(235, 115, 166)" fill-rule="evenodd"/>
<path d="M 15.71,36.165 C 15.75,36.18 15.93,36.12 16.25,35.98 C 16.48,35.89 16.8,35.86 17.21,35.88 A 0.31,0.31 0 0,1 17.43,36 A 0.33,0.33 0 0,1 17.51,36.24 L 17.39,37.72 C 17.38,37.87 17.31,37.92 17.18,37.85 A 14.05,14.05 0 0,0 12.07,36.56 C 11.93,36.56 11.9,36.49 11.95,36.36 C 12.75,34.56 13.22,32.73 13.36,30.88 C 13.37,30.74 13.44,30.7 13.56,30.78 C 14.64,31.5 15.1,31.94 16.32,32.36 A 0.2,0.2 0 0,1 16.45,32.5 A 0.22,0.22 0 0,1 16.42,32.7 A 4.65,4.65 0 0,0 15.47,36 C 15.48,36.13 15.57,36.19 15.72,36.18 Z M 30.87,33.57 A 3.53,3.53 0 0,0 33.44,31.37 A 0.46,0.46 0 0,1 33.78,31.09 A 0.44,0.44 0 0,1 34.19,31.24 C 35.39,32.61 35.56,33.84 34.69,34.94 A 2.48,2.48 0 0,1 32.62,35.98 C 31.6,35.96 30.93,35.28 30.62,33.96 C 30.57,33.74 30.66,33.61 30.87,33.57 Z M 25.81,37.07 L 24.19,38.03 C 23.94,38.17 23.75,38.12 23.62,37.86 A 4.8,4.8 0 0,1 25.12,32.31 A 0.4,0.4 0 0,1 25.62,32.27 L 25.73,32.34 C 25.88,32.42 25.88,32.51 25.74,32.61 C 24.28,33.56 23.68,35.05 23.94,37.09 A 0.2,0.2 0 0,0 24.02,37.22 A 0.19,0.19 0 0,0 24.17,37.25 A 3.56,3.56 0 0,0 26.03,36.05 C 26.15,35.91 26.23,35.93 26.26,36.11 C 26.41,36.94 26.77,37.59 27.35,38.08 C 27.4,38.13 27.46,38.15 27.53,38.14 C 27.6,38.14 27.66,38.1 27.71,38.05 C 28.82,36.78 28.55,34.65 28.04,33.25 C 27.97,33.05 28.04,32.95 28.24,32.93 L 28.51,32.91 C 28.68,32.89 28.8,32.97 28.85,33.14 C 29.45,35 29.43,37.48 27.97,38.92 A 0.37,0.37 0 0,1 27.52,38.97 A 3.1,3.1 0 0,1 26.08,37.17 C 26.04,37.03 25.95,36.99 25.81,37.07 Z" fill="rgb(235, 115, 166)"/>
<path d="M 18.74,34.885 C 18.89,35.02 18.97,35.1 18.99,35.13 C 19.11,35.33 19.04,35.41 18.77,35.38 C 17.81,35.26 16.91,35.26 16.08,35.38 C 15.95,35.4 15.88,35.34 15.89,35.2 C 15.94,34.4 16.32,33.6 17.03,32.81 C 17.23,32.61 17.36,32.64 17.43,32.91 C 17.69,33.71 18.13,34.37 18.75,34.91 Z M 26.18,35.16 C 25.68,35.84 25.2,36.34 24.71,36.68 A 0.27,0.27 0 0,1 24.31,36.6 A 0.29,0.29 0 0,1 24.27,36.45 C 24.24,34.85 24.87,33.63 26.16,32.78 A 0.4,0.4 0 0,1 26.45,32.72 L 27.41,32.92 C 27.53,32.95 27.61,33.02 27.66,33.14 A 5.26,5.26 0 0,1 27.72,37.14 A 0.14,0.14 0 0,1 27.59,37.16 A 5.48,5.48 0 0,1 26.43,35.2 C 26.37,35.04 26.29,35.02 26.18,35.16 Z M 23.05,34.06 L 21.23,35.1 A 0.13,0.13 0 0,1 21.07,35.08 L 19.75,33.78 A 0.14,0.14 0 0,1 19.77,33.56 A 0.13,0.13 0 0,1 19.85,33.55 L 22.99,33.8 C 23.02,33.8 23.05,33.81 23.07,33.83 A 0.14,0.14 0 0,1 23.11,33.99 A 0.14,0.14 0 0,1 23.05,34.06 Z M 40.62,34.27 L 42.89,36.83 A 0.13,0.13 0 0,1 42.89,37 A 0.12,0.12 0 0,1 42.83,37.03 L 39.69,37.99 H 39.61 A 0.12,0.12 0 0,1 39.55,37.92 L 38.21,34.61 A 0.13,0.13 0 0,1 38.26,34.45 A 0.12,0.12 0 0,1 38.31,34.44 L 40.51,34.24 A 0.12,0.12 0 0,1 40.61,34.27 Z M 31.72,37.62 C 34.4,38.15 36.38,37.35 36.95,34.42 A 0.2,0.2 0 0,1 37.09,34.27 A 0.19,0.19 0 0,1 37.29,34.35 C 38.06,35.48 38.63,36.76 38.99,38.19 C 39.34,39.52 39.71,40.58 40.1,41.36 C 40.15,41.46 40.12,41.5 40.01,41.48 A 26.5,26.5 0 0,1 35.28,40.38 A 8.77,8.77 0 0,1 31.56,37.9 C 31.34,37.65 31.39,37.56 31.72,37.62 Z M 21.03,35.75 C 21.27,35.72 21.79,35.56 22.59,35.26 C 22.72,35.21 22.79,35.26 22.78,35.4 C 22.71,36.93 22.98,38.26 23.58,39.38 C 23.65,39.49 23.63,39.59 23.54,39.68 A 6.26,6.26 0 0,1 19.74,41.31 A 4,4 0 0,0 18.18,41.73 C 18.05,41.8 17.98,41.75 17.98,41.6 C 18,41.2 18.12,40.6 18.05,40.1 C 17.87,38.8 17.83,37.52 17.94,36.23 C 17.95,36.03 18.06,35.93 18.24,35.93 C 19.24,35.91 20.17,35.85 21.03,35.75 Z" fill="rgb(235, 115, 166)"/>
<path d="M 33.330000000000005,42.655 C 32.24,43.32 31.46,43.69 31.24,44.8 C 31.2,45.04 31.1,45.06 30.96,44.86 C 30.66,44.44 30.42,44.15 30.23,43.97 C 29.66,43.43 28.77,43.17 28.23,42.91 A 4.4,4.4 0 0,1 26.14,40.68 A 0.2,0.2 0 0,1 26.21,40.53 A 4.93,4.93 0 0,0 29.83,36.93 C 29.87,36.78 29.94,36.77 30.04,36.87 C 30.21,37.06 30.54,37.43 31,38 A 8.91,8.91 0 0,0 34.94,40.83 A 0.2,0.2 0 0,1 34.99,41 A 4.89,4.89 0 0,1 33.34,42.68 Z M 24.94,40.56 A 0.08,0.08 0 0,1 24.84,40.56 C 24.84,40.54 24.83,40.54 24.82,40.53 L 24.8,40.48 A 8.07,8.07 0 0,1 24.2,39.1 C 24.15,38.9 24.13,38.74 24.13,38.62 C 24.13,38.49 24.16,38.42 24.23,38.38 L 25.57,37.6 C 25.69,37.53 25.91,37.66 26.19,37.95 C 26.46,38.25 26.77,38.69 27.04,39.17 L 27.06,39.22 A 0.09,0.09 0 0,1 27.03,39.34 L 24.94,40.56 Z" fill="rgb(235, 115, 166)"/>
<path d="M 24.729999999999997,41.415 C 24.79,41.43 24.86,41.35 24.95,41.23 A 0.78,0.78 0 0,1 25.18,41.03 L 25.44,40.88 C 25.57,40.8 25.67,40.83 25.74,40.98 A 4.93,4.93 0 0,0 26.96,42.69 A 0.1,0.1 0 0,1 26.96,42.75 A 0.1,0.1 0 0,1 26.92,42.79 A 6.96,6.96 0 0,0 23.99,43.56 C 23.87,43.63 23.76,43.61 23.68,43.5 A 5.08,5.08 0 0,0 21.25,41.84 A 0.09,0.09 0 0,1 21.28,41.72 C 22.2,41.27 23.06,40.72 23.86,40.06 C 23.92,40.01 23.99,40 24.06,40.05 C 24.16,40.12 24.24,40.27 24.29,40.48 L 24.47,41.26 C 24.5,41.41 24.59,41.47 24.74,41.43 Z" fill="rgb(235, 115, 166)"/>
</svg>
