<!-- by Finnhub --><svg width="56" height="56" viewBox="0 0 56 56" fill="none" xmlns="http://www.w3.org/2000/svg">
<rect width="56" height="56" fill="#0E0A30"/>
<path d="M27.6928 14.1812L27.4586 14.1533C27.4372 14.1507 27.4175 14.1429 27.3995 14.1301L27.3739 14.1116C27.355 14.0979 27.3497 14.08 27.3578 14.0579C27.4419 13.8272 27.6126 13.1525 27.8802 13.1173C28.4134 13.0471 28.9493 13.008 29.488 13C29.5036 12.9997 29.519 13.0038 29.5326 13.0118C29.5461 13.0198 29.5574 13.0315 29.5651 13.0456C29.5728 13.0596 29.5768 13.0756 29.5765 13.0919C29.5763 13.1081 29.5719 13.124 29.5637 13.1379C29.4058 13.4061 29.246 13.6701 29.0843 13.93C28.9071 14.2143 28.5336 14.0062 28.3654 14.2859C27.8443 15.1555 27.3114 16.0501 26.7667 16.9696C26.7645 16.9724 26.7614 16.9744 26.758 16.9752C26.7545 16.976 26.7509 16.9755 26.7478 16.9739C26.7446 16.9723 26.7421 16.9696 26.7406 16.9663C26.7392 16.9629 26.7389 16.9592 26.7398 16.9557L27.7596 14.2965C27.7643 14.2845 27.7662 14.2715 27.7653 14.2586C27.7643 14.2457 27.7604 14.2331 27.754 14.222C27.7475 14.2108 27.7386 14.2013 27.728 14.1943C27.7174 14.1872 27.7054 14.1827 27.6928 14.1812Z" fill="url(#paint0_linear_229_9655)"/>
<path d="M31.3745 14.37L31.1537 14.2587C31.1393 14.2514 31.1267 14.2406 31.117 14.2274C31.1072 14.2141 31.1006 14.1987 31.0977 14.1823C31.0948 14.166 31.0956 14.1492 31.1001 14.1332C31.1046 14.1172 31.1126 14.1025 31.1236 14.0903C31.3794 13.8067 31.633 13.5234 31.8841 13.2406C32.1325 12.9609 33.5913 13.3175 33.884 13.3871C34.0213 13.4196 34.0001 13.5482 33.909 13.6244C33.5612 13.9178 33.2118 14.2092 32.8609 14.4986C32.7114 14.6226 32.411 14.5556 32.2275 14.5609C32.0895 14.5643 32.0157 14.6319 31.9168 14.7174C30.8887 15.6024 29.8549 16.4804 28.8156 17.3514C28.7284 17.4243 28.7232 17.4183 28.8002 17.3335L31.3925 14.4715C31.3992 14.4641 31.404 14.4552 31.4068 14.4455C31.4095 14.4358 31.4101 14.4257 31.4083 14.4158C31.4066 14.4059 31.4026 14.3966 31.3967 14.3887C31.3909 14.3807 31.3833 14.3744 31.3745 14.37Z" fill="url(#paint1_linear_229_9655)"/>
<path d="M24.3154 14.8513C24.3034 14.83 24.2856 14.8208 24.2621 14.8234L23.9213 14.8625C23.905 14.8644 23.8886 14.8595 23.8757 14.849C23.8627 14.8385 23.8542 14.8231 23.852 14.8062C23.8276 14.6073 23.807 14.4151 23.7904 14.2295C23.7782 14.0884 23.8128 14.0155 23.9489 13.9684C24.4148 13.8071 24.8977 13.6706 25.3974 13.5588C25.4127 13.5553 25.4286 13.5557 25.4437 13.5598C25.4589 13.564 25.4729 13.5718 25.4845 13.5827C25.4962 13.5936 25.5052 13.6072 25.5108 13.6224C25.5164 13.6376 25.5185 13.6539 25.5168 13.6701C25.4971 13.8575 25.4727 14.0607 25.4436 14.2799C25.4128 14.5112 25.255 14.5212 25.0618 14.6001C24.9167 14.659 24.9122 14.7717 24.8943 14.9162C24.7997 15.678 24.7073 16.4416 24.617 17.2069C24.617 17.2113 24.6153 17.2155 24.6123 17.2186C24.6093 17.2217 24.6052 17.2234 24.601 17.2234C24.5967 17.2234 24.5926 17.2217 24.5896 17.2186C24.5866 17.2155 24.5849 17.2113 24.5849 17.2069C24.5088 16.4464 24.4305 15.6862 24.35 14.9262C24.3487 14.9142 24.3449 14.903 24.3385 14.8923L24.3154 14.8513Z" fill="url(#paint2_linear_229_9655)"/>
<path d="M35.0578 15.6446C34.9801 15.5088 34.7138 15.3921 34.9801 15.2304C35.4452 14.9471 35.9129 14.6674 36.3831 14.3913C36.5898 14.27 36.8304 14.3131 37.0615 14.4131C37.5433 14.6217 38.012 14.8588 38.4677 15.1243C38.6487 15.2304 38.6467 15.3795 38.4555 15.4624C37.8779 15.7134 37.3 15.9641 36.722 16.2147C36.5391 16.2942 36.412 16.3333 36.215 16.2597C35.8799 16.1351 35.7869 16.0748 35.4294 16.2332C33.8026 16.9561 32.1759 17.6828 30.5491 18.4132C30.5455 18.4148 30.5413 18.4149 30.5375 18.4134C30.5338 18.412 30.5307 18.4091 30.5289 18.4055C30.5271 18.4019 30.5269 18.3977 30.5281 18.394C30.5294 18.3902 30.5321 18.3871 30.5356 18.3854L35.0231 15.7746C35.0338 15.7684 35.0432 15.7601 35.0507 15.7501C35.0583 15.7402 35.0638 15.7289 35.0671 15.7168C35.0703 15.7046 35.0711 15.692 35.0695 15.6796C35.0679 15.6673 35.0639 15.6554 35.0578 15.6446Z" fill="url(#paint3_linear_229_9655)"/>
<path d="M21.7316 15.8282C21.724 15.8363 21.7188 15.8464 21.7168 15.8574C21.7147 15.8683 21.7158 15.8796 21.72 15.8899L22.5749 17.9532C22.577 17.9567 22.5777 17.9609 22.5767 17.9648C22.5757 17.9687 22.5732 17.9721 22.5697 17.9741C22.5662 17.9761 22.562 17.9766 22.5581 17.9756C22.5541 17.9745 22.5507 17.972 22.5486 17.9684L21.195 16.1523C21.1792 16.1311 21.1587 16.123 21.1334 16.1278C20.9871 16.1543 20.7118 16.3214 20.5924 16.1583C20.4769 16.0006 20.371 15.855 20.2747 15.7215C20.264 15.7067 20.2565 15.6896 20.2528 15.6715C20.249 15.6535 20.2491 15.6347 20.253 15.6167C20.2569 15.5986 20.2645 15.5816 20.2753 15.5669C20.2862 15.5522 20.3 15.54 20.3158 15.5313C20.6283 15.3603 21.4691 14.8387 21.7836 14.8625C21.8058 14.8638 21.8219 14.8751 21.8317 14.8963C21.91 15.0633 21.9812 15.2321 22.0454 15.4027C22.1301 15.6267 21.8606 15.6917 21.7316 15.8282Z" fill="url(#paint4_linear_229_9655)"/>
<path d="M18.8403 17.6596L20.7837 19.1456C20.7866 19.148 20.7885 19.1514 20.7892 19.1551C20.7899 19.1589 20.7892 19.1628 20.7874 19.1661C20.7855 19.1694 20.7825 19.1719 20.779 19.1731C20.7755 19.1743 20.7717 19.1742 20.7683 19.1728L18.4026 18.0394C18.3819 18.0294 18.3593 18.0243 18.3365 18.0244C18.3136 18.0245 18.291 18.0299 18.2704 18.04C18.1285 18.109 17.9001 18.3012 17.7261 18.2157C17.5096 18.1101 17.2953 18.008 17.083 17.9095C17.0697 17.9033 17.058 17.8936 17.0493 17.8815C17.0405 17.8694 17.0349 17.8551 17.033 17.8401C17.031 17.8251 17.0329 17.8098 17.0383 17.7957C17.0436 17.7817 17.0524 17.7692 17.0638 17.7597C17.3333 17.5297 18.126 16.8046 18.4411 16.79C18.4629 16.7887 18.4828 16.7946 18.5008 16.8079L19.0309 17.2069C19.0413 17.2146 19.05 17.2246 19.0563 17.2361C19.0627 17.2476 19.0666 17.2604 19.0678 17.2736C19.069 17.2868 19.0675 17.3002 19.0634 17.3128C19.0592 17.3254 19.0525 17.337 19.0438 17.3467L18.8332 17.5814C18.8076 17.6101 18.8099 17.6362 18.8403 17.6596Z" fill="url(#paint5_linear_229_9655)"/>
<path d="M38.2668 18.3363L38.202 18.0924C38.1952 18.0659 38.2001 18.0422 38.2168 18.0215C38.2681 17.9587 38.3496 17.9123 38.4613 17.8823C39.098 17.7108 39.7363 17.5454 40.3764 17.3858C40.9541 17.2427 41.2069 17.1539 41.6517 17.6311C41.8744 17.869 42.7941 18.8659 42.7948 19.1522C42.7948 19.2812 42.7107 19.3568 42.5425 19.3789C41.1798 19.5579 40.192 19.6752 39.5793 19.7309C39.046 19.7792 39.028 19.1595 38.3714 19.2503C36.1551 19.5574 33.9374 19.8524 31.7185 20.1352C31.6042 20.1497 31.603 20.1433 31.7146 20.1159C33.6657 19.633 35.6187 19.1613 37.5737 18.7008C37.7619 18.6567 37.9528 18.6078 38.1462 18.5544C38.1679 18.5483 38.1883 18.5379 38.2062 18.5236C38.2241 18.5094 38.239 18.4916 38.2502 18.4714C38.2614 18.4511 38.2687 18.4288 38.2715 18.4056C38.2744 18.3824 38.2728 18.3589 38.2668 18.3363Z" fill="url(#paint6_linear_229_9655)"/>
<path d="M16.3183 19.9635C16.315 19.97 16.3131 19.9772 16.3128 19.9846C16.3126 19.992 16.314 19.9993 16.3169 20.006C16.3198 20.0126 16.3242 20.0185 16.3297 20.0231C16.3352 20.0277 16.3416 20.0309 16.3485 20.0324L19.2186 20.678C19.2345 20.6815 19.24 20.6915 19.2353 20.7078C19.2336 20.714 19.2319 20.72 19.2302 20.7257C19.2293 20.7284 19.2274 20.7297 19.2244 20.7297C18.2844 20.6656 17.3442 20.6038 16.4037 20.5441C16.0642 20.5222 15.8517 20.4599 15.6271 20.7894C15.4904 20.9902 14.572 20.855 14.3358 20.843C14.3183 20.8421 14.3013 20.8363 14.2867 20.8262C14.2721 20.816 14.2605 20.802 14.2531 20.7856C14.2457 20.7693 14.2428 20.7511 14.2447 20.7332C14.2466 20.7153 14.2533 20.6983 14.2639 20.684C14.5668 20.273 14.8918 19.8833 15.2388 19.5148C15.4628 19.2768 16.1085 19.5227 16.3921 19.5857C16.4051 19.5886 16.4172 19.5945 16.4275 19.6031C16.4378 19.6116 16.4461 19.6225 16.4516 19.6349C16.4571 19.6473 16.4598 19.6609 16.4594 19.6746C16.459 19.6882 16.4555 19.7016 16.4493 19.7136L16.3183 19.9635Z" fill="url(#paint7_linear_229_9655)"/>
<path d="M39.8457 23.0641C40.1274 22.9044 39.9221 22.4364 40.3983 22.4331C40.7183 22.4309 41.038 22.4411 41.3571 22.4636C42.1551 22.5202 42.9533 22.5705 43.7517 22.6147C44.14 22.6359 44.5553 22.7632 44.6618 23.2026C44.8462 23.9644 44.9585 24.7375 44.9987 25.5218C45.0186 25.9175 44.6984 26.0487 44.3736 25.9765C43.1349 25.7021 41.8978 25.422 40.6621 25.1361C40.3354 25.0605 40.1197 24.9531 40.0421 24.6177C39.9612 24.2724 39.8637 24.108 39.5004 24.0378C37.7457 23.6984 35.1348 23.177 31.6678 22.4736C31.5775 22.455 31.5782 22.4495 31.6697 22.457C34.1959 22.6558 36.7203 22.8684 39.243 23.0946C39.2822 23.0979 39.7276 23.1304 39.8457 23.0641Z" fill="url(#paint8_linear_229_9655)"/>
<path d="M14.4008 22.9282C14.3971 22.9446 14.3972 22.9616 14.4012 22.9779C14.4052 22.9942 14.413 23.0093 14.4238 23.0218C14.4346 23.0344 14.4482 23.044 14.4634 23.05C14.4786 23.056 14.495 23.0581 14.5112 23.0562C14.8905 23.0104 18.4044 22.5657 18.4275 22.6002C18.4352 22.6112 18.4324 22.6185 18.4191 22.622C17.0598 22.9561 15.7006 23.2904 14.3417 23.6249C14.1402 23.6746 14.0773 23.7607 13.9688 23.9629C13.8565 24.173 13.7256 24.2466 13.4888 24.3069C13.084 24.4094 12.6803 24.5137 12.2777 24.6197C12.1269 24.6595 12.0178 24.5906 12.0864 24.4235C12.2375 24.0581 12.4386 23.6266 12.6897 23.1291C12.8091 22.8925 12.9323 22.791 13.2038 22.7586C13.5778 22.7131 13.956 22.6693 14.3385 22.6273C14.354 22.6257 14.3696 22.628 14.384 22.6338C14.3984 22.6397 14.4113 22.649 14.4215 22.661C14.4316 22.673 14.4389 22.6874 14.4425 22.7029C14.4462 22.7183 14.4462 22.7345 14.4425 22.7499L14.4008 22.9282Z" fill="url(#paint9_linear_229_9655)"/>
<path d="M13.4839 26.7235C13.5366 26.7257 13.5922 26.714 13.6508 26.6883C15.2677 25.9756 16.8834 25.2585 18.4977 24.5369C18.5568 24.5104 18.5602 24.5168 18.508 24.5561C18.3848 24.6489 18.2102 24.7278 18.1062 24.7881C16.7345 25.5852 15.3621 26.381 13.989 27.1755C13.5937 27.4042 13.405 27.4725 13.3479 27.9152C13.3222 28.1134 13.1855 28.2367 13.0103 28.3447C12.4412 28.6951 11.8672 29.0365 11.2883 29.3687C11.1767 29.433 11.0014 29.4158 11.0002 29.2594C10.9967 28.7906 11.0496 28.2495 11.1587 27.6362C11.2357 27.2047 11.3929 27.1318 11.7389 26.9767C12.0718 26.8273 12.5383 26.6276 13.1386 26.3775C13.4153 26.2622 13.3569 26.5432 13.4281 26.6864C13.4401 26.7098 13.4587 26.7222 13.4839 26.7235Z" fill="url(#paint10_linear_229_9655)"/>
<path d="M37.5905 30.3365C37.5918 30.1323 37.1984 29.8526 37.0424 29.7419C34.7931 28.1512 32.5431 26.5613 30.2925 24.9723C30.281 24.9644 30.2814 24.9571 30.2938 24.9505C30.3362 24.9279 36.9525 28.3951 37.5937 28.7272C37.8902 28.8809 38.2663 29.1633 38.5994 28.9247C38.8677 28.7318 39.0795 28.3825 39.4658 28.5628C40.7554 29.1655 42.0433 29.7726 43.3295 30.3842C43.6787 30.5499 44.1452 30.9747 43.9655 31.4175C43.5411 32.4621 43.0262 33.4331 42.4207 34.3305C42.1743 34.6951 41.5748 34.5254 41.2956 34.3153C40.6376 33.8208 39.4166 32.8834 37.6329 31.503C37.2163 31.1802 37.5879 30.7083 37.5905 30.3365Z" fill="url(#paint11_linear_229_9655)"/>
<path d="M13.9384 30.6858C14.2054 30.8806 14.251 30.8753 14.5058 30.6553C14.9262 30.2907 19.4637 26.3497 19.4798 26.3603C19.4858 26.3642 19.4862 26.3689 19.481 26.3742C17.8954 28.075 16.3114 29.7777 14.7291 31.4825C14.3601 31.8795 14.9082 32.2394 14.4994 32.7047C13.8665 33.4254 13.2254 34.1381 12.5759 34.8429C12.4206 35.0119 12.1536 35.1498 12.0265 34.8581C11.7847 34.3045 11.583 33.7358 11.4213 33.1521C11.3154 32.7716 11.3609 32.5072 11.6497 32.2619C12.2111 31.7865 12.7746 31.3132 13.3403 30.8422C13.5501 30.6672 13.7067 30.5167 13.9384 30.6858Z" fill="url(#paint12_linear_229_9655)"/>
<path d="M31.3818 34.8933C30.1495 32.2509 28.9121 29.6111 27.6696 26.974C27.664 26.9625 27.6674 26.9564 27.6798 26.9555C27.7107 26.9528 31.9658 33.2661 32.3714 33.8633C32.6641 34.2934 32.8271 34.5685 33.372 34.4081C33.9227 34.2457 34.1204 34.3239 34.4701 34.7879C35.8988 36.6853 36.8106 37.9139 37.2055 38.4738C37.2547 38.5427 37.3024 38.6854 37.3486 38.9019C37.4378 39.3149 37.253 39.4859 36.9218 39.7013C35.8706 40.388 34.7673 40.9699 33.612 41.4471C33.1891 41.6221 32.7174 41.1383 32.5665 40.779C32.0039 39.4384 31.4449 38.0962 30.8895 36.7524C30.7958 36.5258 30.7092 36.3176 30.7393 36.0857C30.7862 35.7258 31.2714 35.6012 31.392 35.2618C31.4387 35.131 31.4353 35.0082 31.3818 34.8933Z" fill="url(#paint13_linear_229_9655)"/>
<path d="M16.4928 34.8462C16.788 34.361 17.2841 35.0709 17.6211 34.4943C17.7888 34.2066 17.9546 33.9174 18.1185 33.6266C19.2399 31.6347 20.3699 29.6478 21.5085 27.666C21.5384 27.6139 21.5421 27.6156 21.5194 27.6713C20.1211 31.0764 19.1244 33.4837 18.5292 34.8933C18.2507 35.5528 18.7436 35.5534 18.8886 36.0333C18.9254 36.1548 18.9274 36.2595 18.8944 36.3475C18.4914 37.4296 18.081 38.5091 17.6634 39.5859C17.546 39.8895 17.4529 40.2136 17.1949 40.3926C16.9741 40.545 16.8092 40.4145 16.6186 40.2885C15.8886 39.8047 15.2475 39.2819 14.6951 38.7203C14.3524 38.3723 14.7297 37.7738 14.9268 37.4444C15.4454 36.5766 15.9674 35.7105 16.4928 34.8462Z" fill="url(#paint14_linear_229_9655)"/>
<path d="M25.0122 36.4137C25.0661 37.2595 26.1321 36.6815 26.2323 37.5611C26.3238 38.3582 26.4749 39.8095 26.6854 41.915C26.7194 42.2584 26.6687 42.7429 26.3619 42.9166C26.2678 42.97 26.1116 42.9976 25.8934 42.9994C24.712 43.0091 23.5902 42.902 22.5278 42.6779C22.0714 42.5818 22.0278 41.9084 22.0721 41.5333C22.2989 39.6257 22.4655 38.2742 22.5721 37.4789C22.6754 36.7107 23.676 37.1561 23.7389 36.4303C23.9802 33.6297 24.2179 30.8291 24.4519 28.0285C24.4523 28.0206 24.4564 28.0166 24.4641 28.0166C24.4705 28.0166 24.4767 28.0166 24.4827 28.0166C24.4878 28.0166 24.4904 28.019 24.4904 28.0239C24.6611 30.821 24.8351 33.6176 25.0122 36.4137Z" fill="url(#paint15_linear_229_9655)"/>
<defs>
<linearGradient id="paint0_linear_229_9655" x1="28.1579" y1="13" x2="29.5925" y2="13.6477" gradientUnits="userSpaceOnUse">
<stop stop-color="#B81DD6"/>
<stop offset="1" stop-color="#F65C7E"/>
</linearGradient>
<linearGradient id="paint1_linear_229_9655" x1="31.3641" y1="13.135" x2="33.0181" y2="14.2474" gradientUnits="userSpaceOnUse">
<stop stop-color="#A712E4"/>
<stop offset="1" stop-color="#F05984"/>
</linearGradient>
<linearGradient id="paint2_linear_229_9655" x1="23.7881" y1="14.1438" x2="25.5221" y2="14.5048" gradientUnits="userSpaceOnUse">
<stop stop-color="#A70BEE"/>
<stop offset="1" stop-color="#F35B81"/>
</linearGradient>
<linearGradient id="paint3_linear_229_9655" x1="34.5643" y1="14.3174" x2="36.2162" y2="15.4753" gradientUnits="userSpaceOnUse">
<stop stop-color="#9F13E4"/>
<stop offset="1" stop-color="#F15883"/>
</linearGradient>
<linearGradient id="paint4_linear_229_9655" x1="21.4136" y1="14.8617" x2="21.4136" y2="17.9761" gradientUnits="userSpaceOnUse">
<stop stop-color="#AC11E7"/>
<stop offset="1" stop-color="#F15984"/>
</linearGradient>
<linearGradient id="paint5_linear_229_9655" x1="17.0322" y1="17.215" x2="19.9374" y2="18.6742" gradientUnits="userSpaceOnUse">
<stop stop-color="#A307F5"/>
<stop offset="1" stop-color="#EB5886"/>
</linearGradient>
<linearGradient id="paint6_linear_229_9655" x1="34.3965" y1="20.1428" x2="41.105" y2="18.7934" gradientUnits="userSpaceOnUse">
<stop stop-color="#AD12E5"/>
<stop offset="1" stop-color="#F15883"/>
</linearGradient>
<linearGradient id="paint7_linear_229_9655" x1="14.918" y1="19.4131" x2="17.5317" y2="20.1126" gradientUnits="userSpaceOnUse">
<stop stop-color="#A005F7"/>
<stop offset="1" stop-color="#E2489A"/>
</linearGradient>
<linearGradient id="paint8_linear_229_9655" x1="32.6121" y1="23.4343" x2="45.0295" y2="25.8414" gradientUnits="userSpaceOnUse">
<stop stop-color="#A409F1"/>
<stop offset="1" stop-color="#F35A83"/>
</linearGradient>
<linearGradient id="paint9_linear_229_9655" x1="13.0594" y1="22.5983" x2="17.4496" y2="23.0946" gradientUnits="userSpaceOnUse">
<stop stop-color="#AD12E6"/>
<stop offset="1" stop-color="#D94D94"/>
</linearGradient>
<linearGradient id="paint10_linear_229_9655" x1="13.5052" y1="25.8913" x2="14.4497" y2="28.4827" gradientUnits="userSpaceOnUse">
<stop stop-color="#9336B1"/>
<stop offset="1" stop-color="#E94F91"/>
</linearGradient>
<linearGradient id="paint11_linear_229_9655" x1="30.2842" y1="25.277" x2="42.7712" y2="32.2987" gradientUnits="userSpaceOnUse">
<stop stop-color="#910EFE"/>
<stop offset="1" stop-color="#04BAFF"/>
</linearGradient>
<linearGradient id="paint12_linear_229_9655" x1="12.167" y1="31.4963" x2="13.9487" y2="33.8215" gradientUnits="userSpaceOnUse">
<stop stop-color="#9138AD"/>
<stop offset="1" stop-color="#EA508F"/>
</linearGradient>
<linearGradient id="paint13_linear_229_9655" x1="27.667" y1="28.2715" x2="32.7988" y2="41.3745" gradientUnits="userSpaceOnUse">
<stop stop-color="#A408F3"/>
<stop offset="1" stop-color="#F75E7D"/>
</linearGradient>
<linearGradient id="paint14_linear_229_9655" x1="18.0453" y1="27.6282" x2="18.0453" y2="40.4614" gradientUnits="userSpaceOnUse">
<stop stop-color="#872FB9"/>
<stop offset="1" stop-color="#F45B81"/>
</linearGradient>
<linearGradient id="paint15_linear_229_9655" x1="22.0586" y1="28.9625" x2="26.4697" y2="42.9205" gradientUnits="userSpaceOnUse">
<stop stop-color="#9414DF"/>
<stop offset="1" stop-color="#F65D7E"/>
</linearGradient>
</defs>
</svg>
