<?xml version="1.0" encoding="UTF-8"?>
<!-- generated by Finnhub -->
<svg viewBox="0 0 55.5 55.5" xmlns="http://www.w3.org/2000/svg">
<path d="M 0,0 H 55.5 V 55.5 H 0 Z" fill="rgb(239, 242, 248)"/>
<path d="M 27.99,43.985 A 16,16 0 1,0 28,12 A 16,16 0 0,0 28,44 Z" fill="url(#a)"/>
<path d="M 32.56,28.655 A 61.55,61.55 0 0,1 30.64,28.99 A 249.58,249.58 0 0,0 29.7,29.14 L 29.59,29.16 C 28.55,29.33 27.17,29.56 25.85,29.92 H 25.83 C 25.26,30.08 24.71,30.26 24.19,30.48 C 23.68,30.68 23.21,30.93 22.8,31.21 A 1.3,1.3 0 0,0 22.3,31.77 A 0.57,0.57 0 0,0 22.27,31.95 V 31.96 C 22.27,32.06 22.34,32.18 22.43,32.28 C 22.55,32.41 22.71,32.53 22.89,32.63 C 23.13,32.78 23.39,32.9 23.59,32.99 L 23.72,33.05 C 24.89,33.61 26.2,33.94 27.45,34.25 L 27.78,34.33 A 7.9,7.9 0 0,1 28.15,34.43 L 28.21,34.46 L 28.26,34.47 H 28.27 C 28.53,34.57 28.78,34.66 28.97,34.79 C 29.22,34.96 29.37,35.19 29.32,35.49 A 0.84,0.84 0 0,1 29.22,35.79 A 1.5,1.5 0 0,1 29.01,36.05 L 28.98,36.08 L 28.92,36.13 L 28.91,36.15 H 28.9 V 36.16 C 28.63,36.41 28.28,36.64 27.86,36.86 C 27.45,37.07 26.97,37.28 26.44,37.47 C 25.87,37.69 25.24,37.9 24.56,38.11 A 108.91,108.91 0 0,1 17.71,39.96 C 17.51,40.01 17.43,40.01 17.27,39.86 A 15.95,15.95 0 0,1 12.01,27.52 V 27.45 C 12.07,25.67 12.42,23.96 13.02,22.37 L 13.03,22.34 A 0.3,0.3 0 0,1 13.2,22.21 L 13.25,22.19 C 13.78,21.99 14.33,21.75 14.89,21.52 A 7.58,7.58 0 0,1 16.79,20.96 A 3.05,3.05 0 0,1 18.29,21.14 C 18.52,21.22 18.79,21.34 19.06,21.49 A 15.13,15.13 0 0,1 21.01,22.91 C 21.36,23.21 21.68,23.51 22.01,23.81 L 22.6,24.38 A 16.13,16.13 0 0,0 23.85,25.53 C 24.03,25.68 24.19,25.8 24.35,25.88 C 24.75,26.11 25.09,26.01 25.49,25.8 C 25.73,25.68 26.02,25.53 26.43,25.42 A 4.42,4.42 0 0,1 28.98,25.52 C 29.28,25.62 29.58,25.76 29.88,25.92 C 30.18,26.08 30.48,26.26 30.78,26.46 A 28.82,28.82 0 0,1 31.7,27.1 L 31.71,27.11 L 32.73,27.87 L 32.75,27.88 L 33.03,28.1 C 33.09,28.14 33.13,28.2 33.15,28.28 C 33.18,28.43 33.08,28.58 32.92,28.61 L 32.57,28.67 Z M 43.24,23.12 A 16,16 0 0,1 27.94,44 C 26.98,44 26.04,43.9 25.12,43.74 A 0.28,0.28 0 0,1 25.17,43.27 L 25.47,43.12 C 27.63,42.02 30.44,40.6 32.29,38.95 L 32.31,38.93 C 32.62,38.65 32.93,38.36 33.21,38.07 C 33.49,37.77 33.73,37.48 33.94,37.18 C 34.14,36.88 34.31,36.56 34.41,36.24 C 34.51,35.93 34.55,35.61 34.51,35.28 C 34.46,34.84 34.17,34.48 33.8,34.2 A 9.45,9.45 0 0,0 31.7,33.08 C 31.3,32.92 30.92,32.78 30.6,32.68 L 29.83,32.41 C 29.58,32.31 29.36,32.22 29.17,32.11 C 28.9,31.97 28.75,31.81 28.7,31.67 C 28.63,31.5 28.7,31.34 28.82,31.2 C 28.99,31.02 29.27,30.89 29.45,30.82 C 30.05,30.59 30.67,30.39 31.29,30.2 C 32.49,29.83 33.67,29.46 34.73,28.8 C 35.01,28.62 35.28,28.42 35.53,28.2 C 37.01,26.91 38.13,25.25 39.63,23.96 C 39.87,23.76 40.13,23.54 40.41,23.35 C 40.63,23.2 40.86,23.07 41.09,22.97 A 2.6,2.6 0 0,1 42.36,22.77 C 42.56,22.79 42.78,22.82 43.02,22.87 H 43.06 C 43.2,22.91 43.2,23 43.24,23.12 Z M 22.27,31.95" fill="rgb(69, 110, 179)"/>
<defs>
<linearGradient id="a" x1="28" x2="28" y1="12" y2="44" gradientUnits="userSpaceOnUse">
<stop stop-color="rgb(120, 142, 198)" offset=".03"/>
<stop stop-color="rgb(158, 171, 214)" offset=".14"/>
<stop stop-color="rgb(206, 211, 235)" offset=".3"/>
<stop stop-color="rgb(235, 237, 246)" offset=".43"/>
<stop stop-color="rgb(246, 247, 250)" stop-opacity="0" offset=".49"/>
</linearGradient>
</defs>
</svg>
