<?xml version="1.0" encoding="UTF-8"?>
<!-- generated by Finnhub -->
<svg viewBox="0 0 55.5 55.5" xmlns="http://www.w3.org/2000/svg">
<path d="M 0,0 H 55.5 V 55.5 H 0 Z" fill="rgb(14, 53, 85)"/>
<path d="M 3.99,23.985 H 7.48 C 8.54,24 9.67,24.54 9.67,25.74 C 9.67,26.51 9.23,27.01 8.41,27.16 V 27.18 C 9.3,27.27 10,27.99 10,28.91 C 10,30.52 8.58,31 7.15,31 H 4 V 24 Z M 5.5,27 H 7.33 C 7.89,27 8.5,26.66 8.5,26 C 8.5,25.46 8.14,25 7.33,25 H 5.5 V 27 Z M 5.5,30 H 7.2 C 7.86,30 8.55,29.78 8.55,29 C 8.55,28.2 7.9,28 7.19,28 H 5.5 V 30 Z M 11,26 H 12.52 V 26.8 C 12.68,26.5 12.71,26.3 12.99,26.18 C 13.28,26.06 13.61,26 14,26 V 27.2 C 13.1,27.2 12.5,27.66 12.5,28.64 V 31 H 11 V 26 Z" fill="rgb(252, 251, 248)"/>
<path d="M 18.99,28.485 C 19,27.05 17.95,26 16.5,26 A 2.41,2.41 0 0,0 14,28.5 A 2.4,2.4 0 0,0 16.5,31 C 17.95,31 19,29.96 19,28.5 Z M 17.5,28.5 C 17.5,27.63 17.08,27 16.5,27 C 15.92,27 15.5,27.63 15.5,28.5 C 15.5,29.38 15.91,30 16.5,30 C 17.08,30 17.5,29.37 17.5,28.5 Z M 25,28.5 C 25,27.05 23.95,26 22.5,26 A 2.41,2.41 0 0,0 20,28.5 A 2.4,2.4 0 0,0 22.5,31 C 23.95,31 25,29.96 25,28.5 Z M 23.5,28.5 C 23.5,27.63 23.08,27 22.5,27 C 21.92,27 21.5,27.63 21.5,28.5 C 21.5,29.38 21.91,30 22.5,30 C 23.08,30 23.5,29.37 23.5,28.5 Z" fill="rgb(252, 251, 248)" fill-rule="evenodd"/>
<path d="M 25.99,23.985 H 27.5 V 27.9 L 29.2,26.03 H 30.8 L 29,28.12 L 31,31 H 29.48 L 28.09,29 L 27.5,29.57 V 31 H 26 V 24 Z M 32,27 H 31 V 26 H 32 V 25.24 C 32,24.34 32.65,24 33.47,24 C 33.73,24 34.23,24.01 34.5,24.03 V 25.03 A 2.64,2.64 0 0,0 34.1,25 C 33.63,25 33.5,25.23 33.5,25.67 V 26 H 34.57 V 27 H 33.5 V 31 H 32 V 27 Z M 36,26 H 37.5 V 31 H 36 V 26 Z M 37.5,24 H 36 V 25 H 37.5 V 24 Z M 42.5,28 C 42.5,27.45 42.04,27 41.55,27 C 40.95,27 40.65,27.4 40.5,28 H 42.5 Z M 40.5,28.77 C 40.53,29.46 40.89,30 41.55,30 C 42.15,30 42.6,29.7 42.99,29.26 L 44,29.83 C 43.46,30.65 42.5,31 41.55,31 A 2.46,2.46 0 0,1 39,28.5 C 39,27.07 40.1,26 41.55,26 C 43.2,26 44,27.25 44,28.77 H 40.5 Z M 45,24 H 46.5 V 31 H 45 V 24 Z M 50.48,30.41 C 50.09,30.84 49.83,31 49.26,31 C 47.88,31 47,29.74 47,28.44 S 47.88,26 49.26,26 C 49.89,26 50.12,26.2 50.5,26.53 V 24 H 52 V 31 H 50.5 L 50.48,30.41 Z M 49.55,27 C 48.7,27 48.5,27.67 48.5,28.44 C 48.5,29.21 48.7,30 49.55,30 C 50.41,30 50.55,29.2 50.55,28.44 C 50.55,27.7 50.38,27 49.55,27 Z" fill="rgb(252, 251, 248)"/>
</svg>
