<?xml version="1.0" encoding="UTF-8"?>
<!-- generated by Finnhub -->
<svg viewBox="0 0 55.5 55.5" xmlns="http://www.w3.org/2000/svg">
<path d="M0 0h55.5v55.5H0z" fill="rgb(165, 1, 42)"/>
<path d="M22 20h7a4 4 0 0 1 2 7.47A4.5 4.5 0 0 1 29 36h-7V20zm3 3h3.43c.87 0 1.57.67 1.57 1.5s-.7 1.5-1.57 1.5H25v-3zm0 6.5h3.7c.94 0 1.7.78 1.7 1.75S29.64 33 28.7 33H25v-3.5zM13 20H8v3h5v13h3V23h5v-3h-8zm31.38 5.33l2.6-1.95A6.95 6.95 0 0 0 41.15 20C37.2 20 34 23.58 34 28s3.2 8 7.15 8a7 7 0 0 0 6.01-3.67.86.86 0 0 1-.04-.02l-2.66-1.79C43.76 32 42.47 33 41 33c-2.2 0-4-2.24-4-5s1.8-5 4-5c1.42 0 2.67.93 3.38 2.33z" fill="rgb(254, 254, 253)" fill-rule="evenodd"/>
</svg>
