<?xml version="1.0" encoding="UTF-8"?>
<!-- generated by Finnhub -->
<svg viewBox="0 0 55.5 55.5" xmlns="http://www.w3.org/2000/svg">
<path d="M 0,0 H 55.5 V 55.5 H 0 Z" fill="rgb(239, 242, 248)"/>
<path d="M 38.980000000000004,29.085 C 39.01,29.07 39.03,29.07 39.05,29.1 C 39.59,30.18 39.86,31.3 39.85,32.5 C 39.85,32.59 39.89,32.6 39.95,32.53 L 44.98,27.52 A 0.08,0.08 0 0,0 45,27.45 C 44.96,26.91 44.9,26.36 44.84,25.8 A 16.73,16.73 0 0,0 42.55,19.23 A 16.9,16.9 0 0,0 22.83,11.79 A 16.9,16.9 0 0,0 11.22,25.23 C 11.2,25.32 11.22,25.33 11.29,25.27 L 18.23,18.32 A 7.56,7.56 0 0,1 22.35,16.2 A 7.3,7.3 0 0,1 26.92,16.94 A 7.32,7.32 0 0,1 30.86,22.75 C 30.94,23.58 30.89,24.4 30.69,25.22 C 30.69,25.26 30.7,25.28 30.74,25.27 A 7.42,7.42 0 0,1 36.84,26.49 C 36.87,26.52 36.9,26.51 36.93,26.47 A 5.36,5.36 0 0,0 30.55,18.49 C 30.52,18.5 30.5,18.49 30.48,18.47 A 8.73,8.73 0 0,0 29.09,16.94 A 7.4,7.4 0 1,1 35.35,30.3 A 7.36,7.36 0 0,1 30.74,30.68 C 30.7,30.67 30.69,30.68 30.7,30.72 C 31.19,32.92 30.79,34.95 29.5,36.82 C 29.46,36.86 29.47,36.89 29.51,36.92 A 5.4,5.4 0 0,0 36.1,36.38 A 5.33,5.33 0 0,0 37.47,30.56 C 37.46,30.52 37.47,30.49 37.51,30.46 A 8.8,8.8 0 0,0 38.99,29.1 Z M 27.74,45 H 28.27 L 29.23,44.92 A 16.96,16.96 0 0,0 44.73,30.66 A 7.4,7.4 0 0,1 25.27,30.73 C 25.28,30.7 25.27,30.68 25.24,30.69 A 7.46,7.46 0 0,1 19.14,29.46 C 19.11,29.44 19.08,29.44 19.06,29.48 A 5.57,5.57 0 0,0 18.16,32.38 A 5.3,5.3 0 0,0 25.46,37.46 C 25.47,37.44 25.48,37.45 25.5,37.46 C 25.9,38.02 26.35,38.52 26.88,38.98 C 26.91,39 26.91,39.02 26.88,39.03 A 7.25,7.25 0 0,1 20.32,39.13 A 7.3,7.3 0 0,1 16.19,31.48 A 7.28,7.28 0 0,1 20.34,25.79 A 7.4,7.4 0 0,1 25.22,25.27 C 25.27,25.28 25.29,25.27 25.28,25.22 A 7.43,7.43 0 0,1 26.51,19.12 C 26.53,19.1 26.52,19.07 26.5,19.05 A 5.3,5.3 0 0,0 20.51,19.06 A 5.3,5.3 0 0,0 18.51,25.42 C 18.52,25.45 18.51,25.48 18.49,25.5 C 17.96,25.88 17.46,26.33 17.01,26.85 A 0.06,0.06 0 0,1 16.96,26.87 A 0.06,0.06 0 0,1 16.91,26.84 A 7.42,7.42 0 0,1 16.12,23.43 C 16.12,23.35 16.1,23.33 16.04,23.39 L 11.09,28.34 A 0.31,0.31 0 0,0 11,28.59 A 16.9,16.9 0 0,0 14.08,37.74 A 16.93,16.93 0 0,0 26.78,44.93 L 27.74,45 Z M 28.05,20.66 C 28.6,21.54 28.87,22.49 28.87,23.51 A 5.43,5.43 0 0,1 28,26.4 C 27.98,26.4 27.97,26.4 27.96,26.38 A 5.37,5.37 0 0,1 27.93,20.67 C 27.97,20.6 28.01,20.6 28.05,20.67 Z M 29.64,27.91 C 29.57,27.95 29.57,27.99 29.64,28.03 A 5.42,5.42 0 0,0 35.34,28.01 C 35.36,28.01 35.36,27.99 35.36,27.98 C 35.36,27.96 35.36,27.95 35.34,27.94 A 5.43,5.43 0 0,0 29.64,27.91 Z M 21.12,27.67 A 5.37,5.37 0 0,1 26.36,27.92 C 26.38,27.94 26.39,27.95 26.39,27.97 C 26.39,28 26.39,28.01 26.36,28.03 A 5.34,5.34 0 0,1 20.63,27.98 C 20.63,27.96 20.63,27.95 20.65,27.94 C 20.81,27.84 20.96,27.74 21.12,27.67 Z M 27.92,29.6 A 5.37,5.37 0 0,0 27.96,35.34 C 27.99,35.37 28.01,35.37 28.03,35.34 A 5.36,5.36 0 0,0 27.99,29.57 C 27.96,29.57 27.94,29.58 27.93,29.6 Z" fill="rgb(254, 76, 39)"/>
</svg>
