<?xml version="1.0" encoding="UTF-8"?>
<!-- generated by Finnhub -->
<svg viewBox="0 0 55.5 55.5" xmlns="http://www.w3.org/2000/svg">
<path d="M 0,0 H 55.5 V 55.5 H 0 Z" fill="rgb(22, 120, 180)"/>
<path d="M 44.84,24.015 C 44.83,24.06 44.81,24.06 44.8,24.03 C 44.56,23.27 43.98,22.73 43.06,22.4 C 42.5,22.2 41.66,22.05 40.56,21.96 A 1.4,1.4 0 0,1 39.95,21.75 A 4.08,4.08 0 0,1 39.35,21.27 A 0.94,0.94 0 0,0 38.66,21 C 38.4,21.02 38.23,21.18 38.16,21.48 C 38.05,21.92 38.09,22.4 38.28,22.9 A 5.34,5.34 0 0,0 41.23,25.98 C 41.51,26.11 41.68,26.3 41.75,26.56 A 0.9,0.9 0 0,1 41.6,27.31 C 41.3,27.75 40.83,28.04 40.16,28.19 C 39.58,28.31 39,28.3 38.41,28.17 A 10.6,10.6 0 0,1 36.82,27.67 A 35.11,35.11 0 0,1 32.34,25.46 C 31.83,25.16 31.31,24.9 30.8,24.69 A 23.7,23.7 0 0,0 24.87,23.09 A 26.36,26.36 0 0,0 18.69,22.97 C 18.16,23.02 17.71,22.93 17.34,22.7 A 4.63,4.63 0 0,0 14.46,22.1 C 13.56,22.17 12.86,22.4 12.33,22.78 A 6.21,6.21 0 0,1 10.52,23.58 C 9.53,23.92 8.62,24.41 7.81,25.03 A 6,6 0 0,0 7.12,25.69 C 6.79,26.05 6.52,26.29 6.32,26.43 C 6.02,26.63 5.75,26.85 5.52,27.07 C 5.22,27.35 5.05,27.64 5.01,27.95 C 4.96,28.3 5.12,28.59 5.49,28.8 L 5.61,28.89 C 5.64,28.91 5.66,28.93 5.67,28.97 L 5.75,29.69 C 5.75,29.72 5.74,29.75 5.71,29.76 C 5.36,29.97 5.28,30.26 5.46,30.61 A 3.5,3.5 0 0,0 6.86,32.07 C 7.44,32.41 8.11,32.65 8.85,32.78 C 10.39,33.06 12,33.04 13.67,32.73 C 14.24,32.62 14.73,32.53 15.14,32.49 A 10.6,10.6 0 0,1 18.84,32.68 C 20.93,33.15 22.74,33.3 24.27,33.13 C 24.31,33.13 24.35,33.13 24.38,33.16 C 24.98,33.66 25.65,33.81 26.42,33.6 A 0.26,0.26 0 0,1 26.55,33.6 C 27.45,33.84 28.52,33.96 29.75,34 C 33.38,34.07 36.65,33.61 39.53,32.62 C 40.7,32.22 41.76,31.7 42.71,31.1 A 6.86,6.86 0 0,0 45.29,28.44 C 45.42,28.18 45.61,27.99 45.88,27.88 L 47.72,27.13 C 50.06,26.18 51.15,24.62 50.98,22.44 A 2.43,2.43 0 0,0 50.8,21.67 C 50.73,21.49 50.6,21.41 50.43,21.43 A 0.6,0.6 0 0,0 50.03,21.67 C 49.63,22.15 49.22,22.54 48.78,22.84 C 48.22,23.23 47.68,23.41 47.18,23.37 A 4.9,4.9 0 0,0 45.91,23.4 C 45.49,23.49 45.14,23.7 44.85,24.03 Z M 13.05,31.96 C 13.05,31.99 13.05,32 13.02,32.01 C 10.12,32.51 7.88,32.18 6.28,31.03 C 6.18,30.96 6.18,30.97 6.25,31.06 A 4.5,4.5 0 0,0 9.14,32.39 C 10.69,32.59 12.3,32.51 13.94,32.14 C 15.05,31.89 16.32,31.84 17.76,31.96 C 17.98,31.98 18.61,32.1 19.66,32.34 A 20.84,20.84 0 0,0 23.85,32.78 L 23.84,32.75 A 3.62,3.62 0 0,0 22.5,32.05 A 6.91,6.91 0 0,1 21.52,31.75 A 1.51,1.51 0 0,1 20.77,31.15 C 20.75,31.11 20.76,31.07 20.8,31.05 C 20.84,31.02 20.88,31.03 20.92,31.05 C 21.22,31.28 21.53,31.45 21.87,31.57 L 22.03,31.62 C 22.58,31.8 23,31.9 23.28,31.92 C 23.72,31.93 24.16,32.03 24.6,32.22 C 24.97,32.38 25.34,32.46 25.74,32.48 C 25.76,32.48 25.78,32.48 25.79,32.51 L 25.78,32.57 A 0.14,0.14 0 0,1 25.68,32.61 C 25.43,32.64 25.15,32.62 24.85,32.56 A 8.27,8.27 0 0,1 23.8,32.25 C 23.65,32.2 23.64,32.22 23.76,32.32 L 24.8,33.11 C 25.01,33.26 25.24,33.36 25.48,33.39 C 25.68,33.43 25.93,33.41 26.21,33.36 C 26.67,33.28 27.14,33.13 27.62,32.92 C 27.98,32.77 28.42,32.55 28.95,32.25 A 0.87,0.87 0 0,0 29.25,31.97 C 29.33,31.87 29.32,31.77 29.22,31.68 C 29.08,31.56 28.9,31.48 28.67,31.41 A 5.12,5.12 0 0,0 28.06,31.28 A 3.99,3.99 0 0,1 26.06,30.33 A 2.26,2.26 0 0,0 24.7,29.78 A 5.4,5.4 0 0,0 23.19,29.98 A 0.88,0.88 0 0,1 22.65,29.96 A 4.1,4.1 0 0,0 21.67,29.75 C 21.62,29.75 21.6,29.72 21.61,29.67 C 21.62,29.62 21.65,29.59 21.71,29.58 C 22.08,29.53 22.44,29.56 22.79,29.68 A 0.2,0.2 0 0,0 22.89,29.68 A 7.43,7.43 0 0,1 24.32,29.45 C 24.83,29.43 25.3,29.51 25.72,29.69 C 25.89,29.76 26.06,29.81 26.24,29.83 C 27.07,29.95 27.92,30.14 28.79,30.41 C 28.81,30.41 28.82,30.43 28.81,30.45 V 30.49 C 28.79,30.52 28.77,30.54 28.73,30.53 A 36.2,36.2 0 0,0 26.58,30.15 C 26.46,30.13 26.45,30.15 26.54,30.23 A 4,4 0 0,0 28.44,31.05 C 29.38,31.2 29.82,31.47 29.75,31.85 A 0.6,0.6 0 0,1 29.47,32.25 A 11,11 0 0,1 27.45,33.28 C 27.35,33.32 27.36,33.34 27.45,33.35 C 29.45,33.55 31.4,33.55 33.34,33.37 C 35.37,33.18 37.3,32.8 39.1,32.22 C 41.53,31.42 43.31,30.29 44.44,28.81 A 3,3 0 0,0 44.78,28.25 C 44.98,27.83 45.36,27.52 45.92,27.3 C 46.55,27.05 47.18,26.8 47.81,26.52 A 4.18,4.18 0 0,0 50.29,24.15 C 50.31,24.1 50.3,24.09 50.26,24.13 C 49.86,24.5 49.39,24.77 48.87,24.96 C 48.1,25.25 47.42,25.56 46.82,25.91 C 46.74,25.95 46.72,25.93 46.72,25.85 C 46.72,25.81 46.74,25.78 46.77,25.75 C 47.1,25.48 47.69,25.15 48.52,24.78 L 48.91,24.6 C 49.22,24.45 49.55,24.23 49.9,23.92 C 50.33,23.53 50.54,23.21 50.52,22.94 C 50.52,22.86 50.49,22.86 50.45,22.93 A 3.7,3.7 0 0,1 49.05,24.3 A 7.2,7.2 0 0,1 47.15,25.1 C 46.63,25.25 46.19,25.53 45.83,25.94 C 45.81,25.96 45.79,25.96 45.77,25.94 L 45.75,25.92 C 45.71,25.89 45.71,25.86 45.73,25.82 C 45.93,25.5 46.19,25.24 46.5,25.06 A 5.92,5.92 0 0,1 47.82,24.51 A 5.32,5.32 0 0,0 49.45,23.57 C 50,23.09 50.32,22.59 50.41,22.06 C 50.44,21.91 50.41,21.89 50.31,22.01 L 49.98,22.42 A 4,4 0 0,1 48.56,23.58 C 47.96,23.88 47.35,23.96 46.74,23.85 A 1.82,1.82 0 0,0 44.94,24.53 A 0.86,0.86 0 0,0 44.76,24.93 C 44.72,25.16 44.62,25.41 44.46,25.66 A 0.12,0.12 0 0,1 44.37,25.71 C 44.32,25.71 44.31,25.7 44.32,25.66 C 44.42,25.36 44.48,25.06 44.48,24.71 C 44.48,24.33 44.42,24.02 44.28,23.79 C 44.01,23.34 43.48,23.01 42.67,22.79 C 42.21,22.67 41.54,22.57 40.66,22.49 L 40.53,22.47 C 40.08,22.43 39.69,22.27 39.38,21.98 A 5.6,5.6 0 0,0 38.79,21.52 A 0.07,0.07 0 0,0 38.72,21.52 A 0.07,0.07 0 0,0 38.68,21.56 C 38.63,21.74 38.62,21.92 38.64,22.12 C 38.66,22.34 38.72,22.52 38.82,22.64 C 39.12,23.04 39.49,23.36 39.92,23.64 C 40.28,23.86 40.73,24.08 41.28,24.28 C 41.31,24.29 41.32,24.31 41.31,24.34 V 24.37 C 41.29,24.43 41.25,24.46 41.18,24.44 A 6.08,6.08 0 0,1 39.25,23.56 C 39.15,23.49 39.15,23.51 39.2,23.6 A 4.87,4.87 0 0,0 41.3,25.45 C 41.85,25.69 42.16,26.04 42.23,26.48 C 42.29,26.92 42.17,27.33 41.86,27.71 C 41.58,28.06 41.2,28.31 40.73,28.46 C 39.13,28.97 37.19,28.82 34.94,28.01 A 16.3,16.3 0 0,1 32.54,26.94 C 32.52,26.92 32.51,26.9 32.52,26.86 V 26.84 C 32.54,26.82 32.55,26.81 32.58,26.82 A 24.05,24.05 0 0,0 37.08,28.23 L 37.07,28.2 A 36.68,36.68 0 0,1 32.31,26.02 C 31.64,25.66 31.05,25.36 30.54,25.15 A 23.41,23.41 0 0,0 24.71,23.55 C 22.71,23.25 20.7,23.19 18.65,23.37 A 2.29,2.29 0 0,1 17.11,23.03 A 3.22,3.22 0 0,0 15.25,22.51 C 14.01,22.51 12.97,22.81 12.11,23.45 C 12.01,23.52 12.02,23.55 12.15,23.55 C 13.09,23.5 14.09,23.44 15.16,23.34 C 15.19,23.34 15.2,23.34 15.2,23.38 V 23.41 C 15.2,23.45 15.17,23.48 15.12,23.48 A 27.5,27.5 0 0,1 11.84,23.81 C 11.44,23.82 10.91,23.97 10.24,24.25 C 10.1,24.3 10.1,24.32 10.24,24.3 L 10.96,24.25 A 50.1,50.1 0 0,0 15.36,23.9 C 15.4,23.9 15.41,23.91 15.41,23.95 V 23.98 C 15.39,24.02 15.37,24.05 15.31,24.06 C 14.01,24.32 12.7,24.47 11.39,24.51 C 10.64,24.54 9.95,24.62 9.31,24.77 C 9.06,24.82 8.83,24.93 8.64,25.1 C 8.59,25.14 8.6,25.16 8.66,25.15 A 8.6,8.6 0 0,1 9.91,25.02 C 11.21,24.97 12.51,24.87 13.81,24.72 C 13.84,24.71 13.85,24.72 13.85,24.75 V 24.78 A 0.17,0.17 0 0,1 13.75,24.88 C 12.44,25.12 11.13,25.26 9.83,25.3 C 9.37,25.31 8.81,25.4 8.14,25.55 C 7.95,25.59 7.76,25.74 7.57,25.99 C 7.53,26.04 7.54,26.06 7.61,26.04 C 8.01,25.96 8.38,25.92 8.75,25.91 C 9.99,25.88 11.23,25.81 12.46,25.68 C 12.49,25.68 12.5,25.68 12.51,25.71 V 25.74 C 12.53,25.79 12.51,25.81 12.47,25.82 C 11.45,26 10.26,26.12 8.9,26.19 C 8.44,26.21 7.93,26.29 7.37,26.41 A 1,1 0 0,0 6.95,26.61 C 6.68,26.82 6.43,27.01 6.18,27.18 C 6.12,27.22 6.13,27.24 6.2,27.22 A 7.7,7.7 0 0,1 9.13,27.12 C 9.16,27.12 9.17,27.14 9.17,27.16 V 27.2 C 9.17,27.25 9.14,27.27 9.09,27.27 C 7.6,27.14 6.48,27.3 5.72,27.75 A 0.43,0.43 0 0,0 5.5,28.16 C 5.5,28.36 5.6,28.49 5.75,28.57 C 5.8,28.6 5.85,28.6 5.89,28.57 A 0.4,0.4 0 0,1 6.01,28.52 C 6.05,28.52 6.08,28.53 6.08,28.57 C 6.17,29.21 6.41,29.78 6.81,30.29 C 6.84,30.32 6.83,30.35 6.79,30.36 C 6.42,30.49 6.15,30.5 5.96,30.4 C 5.86,30.34 5.84,30.36 5.89,30.46 C 5.96,30.62 6.16,30.69 6.49,30.68 C 6.72,30.68 6.95,30.63 7.19,30.56 A 3,3 0 0,1 8.53,30.45 A 12.94,12.94 0 0,0 14.83,30.25 C 15.18,30.16 15.57,30.1 16,30.07 A 20.22,20.22 0 0,1 17.66,30.03 A 0.7,0.7 0 0,0 18.16,29.83 C 18.2,29.79 18.24,29.8 18.27,29.86 C 18.29,29.9 18.3,29.94 18.29,29.99 A 0.3,0.3 0 0,1 18.15,30.17 C 17.98,30.27 17.78,30.33 17.55,30.33 C 16.48,30.33 15.39,30.48 14.27,30.77 C 12.69,31.19 10.87,31.22 8.8,30.87 C 8.41,30.81 8.1,30.77 7.87,30.77 A 3.06,3.06 0 0,0 6.99,30.92 V 30.94 C 7.47,31.23 7.99,31.44 8.55,31.57 C 9.91,31.9 11.4,32 13.01,31.87 C 13.03,31.87 13.05,31.87 13.05,31.9 V 31.96 Z M 43.33,26.66 C 43.55,26.02 43.48,25.46 43.13,24.96 A 2.82,2.82 0 0,0 41.63,23.95 C 40.18,23.48 39.27,22.85 38.9,22.08 V 22.03 A 0.05,0.05 0 0,1 38.95,22.01 A 0.1,0.1 0 0,1 39.02,22.04 A 4.98,4.98 0 0,0 41.54,23.6 C 42.14,23.8 42.58,23.98 42.84,24.15 C 43.26,24.42 43.52,24.8 43.62,25.28 C 43.72,25.72 43.67,26.18 43.49,26.68 C 43.48,26.72 43.45,26.73 43.41,26.72 H 43.37 C 43.33,26.71 43.32,26.69 43.33,26.65 Z M 23.96,24.26 A 14.9,14.9 0 0,0 20.43,24.25 C 20.39,24.25 20.37,24.28 20.37,24.32 V 24.35 C 20.37,24.37 20.38,24.39 20.41,24.39 A 28.67,28.67 0 0,1 28.05,25.36 L 28.07,25.32 C 28.1,25.29 28.09,25.26 28.04,25.24 A 17.52,17.52 0 0,0 23.96,24.26 Z M 41.38,28.66 C 41.8,28.48 42.12,28.18 42.34,27.76 C 42.54,27.38 42.64,26.96 42.62,26.49 C 42.62,26.46 42.63,26.44 42.67,26.43 C 42.71,26.42 42.73,26.43 42.74,26.47 C 42.88,27.03 42.84,27.51 42.61,27.92 C 42.38,28.34 41.99,28.62 41.43,28.76 C 41.4,28.77 41.38,28.76 41.37,28.74 L 41.36,28.7 C 41.35,28.68 41.36,28.66 41.38,28.65 Z M 15.25,27.7 C 15.63,27.75 16,27.77 16.36,27.75 C 16.41,27.75 16.42,27.77 16.41,27.81 L 16.36,28.01 A 0.09,0.09 0 0,1 16.27,28.08 L 14.9,28.19 C 14.88,28.19 14.88,28.19 14.9,28.19 C 15.35,28.26 15.82,28.29 16.31,28.27 C 16.35,28.27 16.38,28.29 16.39,28.32 C 16.54,28.68 16.84,28.86 17.29,28.84 A 7.72,7.72 0 0,0 18.43,28.73 V 28.7 H 18.42 L 17.66,28.72 C 17.58,28.72 17.56,28.7 17.62,28.65 L 17.78,28.5 A 0.2,0.2 0 0,1 17.92,28.44 A 4.93,4.93 0 0,0 18.76,28.34 C 18.76,28.31 18.75,28.31 18.73,28.31 C 18.48,28.32 18.21,28.33 17.93,28.32 A 0.06,0.06 0 0,1 17.87,28.3 A 0.06,0.06 0 0,1 17.87,28.24 A 0.3,0.3 0 0,0 17.88,28.16 C 17.88,28.13 17.88,28.13 17.87,28.16 A 0.7,0.7 0 0,1 17.5,28.53 A 0.6,0.6 0 0,1 16.97,28.5 C 16.71,28.37 16.6,28.17 16.65,27.9 C 16.69,27.65 16.85,27.48 17.13,27.39 C 17.18,27.37 17.17,27.36 17.13,27.36 C 16.99,27.34 16.8,27.4 16.58,27.56 A 0.2,0.2 0 0,1 16.48,27.6 A 212.87,212.87 0 0,1 15.22,27.68 L 15.25,27.7 Z M 7.37,27.92 A 3.5,3.5 0 0,0 5.85,28.39 C 5.81,28.41 5.78,28.4 5.76,28.37 C 5.72,28.29 5.74,28.23 5.82,28.17 C 6.3,27.87 6.84,27.68 7.44,27.61 A 9.74,9.74 0 0,1 10.66,27.77 C 11.53,27.96 12.56,28.27 13.74,28.74 C 14.51,29.04 15.34,29.22 16.21,29.29 C 16.27,29.29 16.29,29.32 16.28,29.37 V 29.39 C 16.27,29.45 16.23,29.49 16.17,29.49 A 7.1,7.1 0 0,1 13.52,29.03 A 32.33,32.33 0 0,0 10.5,28.14 A 9.9,9.9 0 0,0 7.37,27.92 Z M 17.7,27.93 C 17.7,28.13 17.53,28.3 17.31,28.3 A 0.38,0.38 0 0,1 16.93,27.93 C 16.93,27.73 17.1,27.56 17.31,27.56 C 17.53,27.56 17.71,27.72 17.71,27.93 Z M 27.5,28.83 A 22.6,22.6 0 0,0 23.09,28.28 C 23.06,28.28 23.05,28.28 23.05,28.25 L 23.06,28.22 C 23.06,28.18 23.09,28.16 23.13,28.15 A 9.48,9.48 0 0,1 27.51,28.71 C 27.55,28.72 27.56,28.74 27.55,28.78 L 27.54,28.81 C 27.54,28.83 27.52,28.84 27.49,28.84 Z M 9.21,30.32 C 9.27,30.33 9.29,30.32 9.24,30.26 A 3.4,3.4 0 0,1 8.42,28.29 C 8.42,28.27 8.42,28.26 8.4,28.26 L 8.06,28.25 C 8.04,28.25 8.03,28.25 8.03,28.27 C 8.1,28.97 8.33,29.59 8.74,30.15 A 0.2,0.2 0 0,0 8.86,30.24 L 9.21,30.32 Z M 7.84,28.3 C 7.91,28.97 8.14,29.6 8.53,30.16 L 8.52,30.18 L 8.12,30.15 C 8.1,30.15 8.09,30.15 8.08,30.13 A 4.04,4.04 0 0,1 7.42,28.33 C 7.42,28.29 7.43,28.28 7.46,28.27 L 7.8,28.26 C 7.83,28.26 7.84,28.26 7.84,28.3 Z M 9.99,30.4 A 3.5,3.5 0 0,1 9.08,28.33 C 9.08,28.31 9.07,28.3 9.05,28.3 L 8.67,28.27 C 8.65,28.27 8.64,28.27 8.65,28.29 C 8.73,29.09 9.03,29.78 9.55,30.34 C 9.57,30.37 9.6,30.39 9.65,30.39 L 9.97,30.44 C 9.98,30.44 9.99,30.44 10,30.42 V 30.39 Z M 7.87,30.15 L 7.49,30.18 C 7.48,30.18 7.46,30.18 7.45,30.16 A 4.24,4.24 0 0,1 6.81,28.4 C 6.81,28.38 6.82,28.36 6.84,28.36 L 7.17,28.31 C 7.2,28.31 7.21,28.32 7.21,28.35 A 4.05,4.05 0 0,0 7.88,30.15 Z M 10.66,30.49 C 10.71,30.49 10.71,30.48 10.68,30.45 A 3.35,3.35 0 0,1 9.71,28.43 C 9.71,28.41 9.7,28.4 9.68,28.4 L 9.29,28.33 C 9.28,28.33 9.27,28.33 9.27,28.35 C 9.35,29.19 9.71,29.89 10.33,30.45 C 10.36,30.47 10.4,30.49 10.44,30.49 H 10.66 Z M 6.63,28.43 C 6.73,29.1 6.93,29.68 7.25,30.16 C 7.27,30.19 7.25,30.21 7.22,30.22 L 6.98,30.28 C 6.93,30.29 6.89,30.28 6.86,30.23 A 4.31,4.31 0 0,1 6.22,28.55 C 6.22,28.53 6.23,28.51 6.26,28.51 L 6.59,28.41 C 6.61,28.41 6.62,28.41 6.63,28.43 Z M 11.32,30.44 A 3.02,3.02 0 0,1 10.34,28.59 C 10.34,28.55 10.32,28.53 10.28,28.52 L 9.96,28.45 C 9.91,28.44 9.89,28.45 9.9,28.5 C 10.01,29.3 10.38,29.95 11,30.45 C 11.04,30.49 11.1,30.5 11.15,30.51 H 11.29 C 11.36,30.51 11.37,30.49 11.32,30.44 Z M 10.62,28.61 L 10.9,28.69 A 0.1,0.1 0 0,1 10.98,28.77 A 3.38,3.38 0 0,0 11.95,30.47 L 11.69,30.49 C 11.66,30.49 11.64,30.49 11.62,30.47 A 2.73,2.73 0 0,1 10.57,28.66 C 10.57,28.62 10.59,28.6 10.63,28.61 Z M 11.6,28.89 L 11.27,28.79 C 11.26,28.79 11.25,28.79 11.25,28.81 C 11.35,29.46 11.65,29.98 12.15,30.38 C 12.2,30.42 12.25,30.43 12.31,30.43 L 12.44,30.41 C 12.51,30.41 12.52,30.38 12.47,30.33 A 2.86,2.86 0 0,1 11.64,28.93 A 0.05,0.05 0 0,0 11.6,28.89 Z M 12.82,30.34 C 12.77,30.34 12.73,30.34 12.7,30.31 C 12.28,29.95 12,29.51 11.87,28.99 C 11.87,28.98 11.87,28.97 11.89,28.98 L 12.26,29.08 C 12.28,29.09 12.3,29.1 12.3,29.12 C 12.44,29.54 12.67,29.92 13,30.25 V 30.29 C 13,30.31 12.99,30.32 12.97,30.32 L 12.82,30.34 Z M 12.52,29.17 C 12.66,29.57 12.89,29.91 13.2,30.19 C 13.24,30.23 13.28,30.24 13.34,30.23 L 13.47,30.21 C 13.53,30.2 13.54,30.17 13.5,30.13 C 13.27,29.87 13.1,29.59 12.97,29.29 A 11.87,11.87 0 0,0 12.51,29.16 Z M 16.57,29.72 C 15.63,29.82 14.71,29.96 13.81,30.13 C 13.78,30.13 13.75,30.13 13.73,30.11 C 13.51,29.89 13.33,29.65 13.2,29.37 V 29.34 C 13.21,29.33 13.22,29.32 13.24,29.33 A 10.1,10.1 0 0,0 16.6,29.66 V 29.68 C 16.6,29.7 16.6,29.72 16.57,29.72 Z M 31.52,32.86 C 33.57,32.81 35.68,32.48 37.82,31.88 C 38.54,31.68 39.24,31.42 39.94,31.12 C 39.97,31.11 39.98,31.09 39.97,31.06 L 39.96,31.04 C 39.95,31 39.92,30.98 39.88,31 A 46.47,46.47 0 0,1 31.5,32.74 C 31.47,32.74 31.46,32.76 31.46,32.79 V 32.82 C 31.46,32.85 31.48,32.86 31.52,32.86 Z" fill="rgb(254, 254, 253)" fill-rule="evenodd"/>
</svg>
