<?xml version="1.0" encoding="UTF-8"?>
<!-- generated by Finnhub -->
<svg viewBox="0 0 55.5 55.5" xmlns="http://www.w3.org/2000/svg">
<path d="M 0,0 H 55.5 V 55.5 H 0 Z" fill="rgb(239, 242, 248)"/>
<path d="M 12.07,26.985 C 13.44,30.97 15.71,33.97 18.88,37.14 C 22.05,40.3 25.03,42.56 29,43.92 C 24.35,44.39 20.29,42.84 16.72,39.29 C 13.16,35.73 11.62,31.64 12.08,27 Z" fill="rgb(53, 105, 176)"/>
<path d="M 14.58,38.575 A 2,2 0 1,1 17.41,41.41 A 2,2 0 0,1 14.59,38.59 Z" fill="rgb(53, 105, 176)"/>
<path d="M 28.99,12.065 C 25.09,13.46 21.9,15.76 18.78,18.98 C 15.65,22.2 13.42,24.97 12.08,29 C 11.62,24.28 13.14,20.4 16.65,16.8 C 20.16,13.18 24.42,11.6 29,12.08 Z" fill="rgb(236, 142, 35)"/>
<path d="M 17.4,14.575 A 2,2 0 1,1 14.59,17.41 A 2,2 0 0,1 17.41,14.59 Z" fill="rgb(236, 142, 35)"/>
<path d="M 26.99,12.065 C 31.02,13.42 33.83,15.65 37.04,18.78 C 40.24,21.9 42.54,25.08 43.92,29 C 44.39,24.42 42.82,20.16 39.22,16.65 C 35.61,13.15 31.71,11.62 27,12.08 Z" fill="rgb(144, 34, 125)"/>
<path d="M 38.580000000000005,14.575 A 2,2 0 1,0 41.41,17.41 A 2,2 0 0,0 38.59,14.59 Z" fill="rgb(144, 34, 125)"/>
<path d="M 43.910000000000004,26.985 C 42.58,31 40.34,33.9 37.22,37.08 C 34.09,40.28 30.92,42.55 27,43.92 C 31.59,44.39 35.83,42.83 39.34,39.25 C 42.86,35.67 44.38,31.68 43.92,27 Z" fill="rgb(85, 173, 67)"/>
<path d="M 41.4,38.575 A 2,2 0 1,0 38.59,41.41 A 2,2 0 0,0 41.41,38.59 Z" fill="rgb(85, 173, 67)"/>
</svg>
