<?xml version="1.0" encoding="UTF-8"?>
<!-- generated by Finnhub -->
<svg viewBox="0 0 55.5 55.5" xmlns="http://www.w3.org/2000/svg">
<path d="M0 0h55.5v55.5H0z" fill="rgb(3, 67, 28)"/>
<path d="M18.55 16.26c-.64-.22-1.91-.78-1.91-1.3 0-.66.63-1.96 3.18-1.96h7.63c2.34 0 7 .65 7 3.26s-2.54 4.57-3.81 5.22C35.09 22.35 44 25.9 44 33.22 44 42.35 31.27 43 27.45 43c-2.1 0-3.81-.4-5.36-.75-1.26-.3-2.4-.55-3.54-.55-2.55 0-2.55-.66-2.55-1.3 0-.53 1.7-1.53 2.55-1.97V16.26Zm3.45-1v5.21c2.9 0 8.68-.65 8.68-3.25s-5.79-2.39-8.68-1.95Zm.5 7.74.5 15.5.26.14c.9.49 2.52 1.36 4.32 1.36 2.48 0 11.78 0 12.4-7.16C40.6 25.68 26.22 23 22.5 23Z" fill="url(#a)"/>
<defs>
<linearGradient id="a" x1="44" x2="17.27" y1="21.48" y2="20.86" gradientUnits="userSpaceOnUse">
<stop stop-color="rgb(195, 187, 113)" offset="0"/>
<stop stop-color="rgb(192, 124, 12)" offset=".29"/>
<stop stop-color="rgb(236, 232, 196)" offset=".55"/>
<stop stop-color="rgb(229, 195, 104)" offset=".72"/>
<stop stop-color="rgb(224, 209, 123)" offset="1"/>
</linearGradient>
</defs>
</svg>
