<?xml version="1.0" encoding="UTF-8"?>
<!-- generated by Finnhub -->
<svg viewBox="0 0 55.5 55.5" xmlns="http://www.w3.org/2000/svg">
<path d="M 0,0 H 55.5 V 55.5 H 0 Z" fill="rgb(250, 224, 32)"/>
<path d="M 27.99,45.035 C 37.39,45.05 45,37.43 45,28.02 A 17.01,17.01 0 1,0 20,43.05 V 39.49 A 14,14 0 1,1 27,41.96 V 45.02 C 27.33,45.04 27.66,45.05 28,45.05 Z M 25,18.94 H 22 V 45.12 L 25,46 V 37 H 33.1 L 33.91,35 H 25 V 34 H 34.51 L 35.32,32 H 25 V 31 H 34.92 L 34.1,29 H 25 V 28 H 32.83 L 33.63,26 H 25 V 25 H 34.33 L 35.14,23 H 25 V 22 H 34.73 L 33.93,20 H 25 V 18.94 Z" fill="rgb(36, 30, 71)"/>
</svg>
