<!-- by Finnhub --><svg width="56" height="56" viewBox="0 0 56 56" xmlns="http://www.w3.org/2000/svg"><path fill="#4E5B85" d="M0 0h56v56H0z"/><path d="m45.61 24.41-.58-1.01.7-.97c1.73.68.9.14 2.2.37-.5.5-.5.25-.2 1.01 1.37-.75-.24-.84 2.27-1.19-.67-2.01-.98-1.02-3-1.95-.06-.03-4.77-.46-5.95-.66-.49-.08-1.2.2-1.87.35-2.96.67-2.05.26-4.25.52-.2-.2-.23-.17-.42-.44-2.06 1.5-1.11 1.32-3.6.77-1.38-.31-2.92.84-3.2 1.74l.76.43c.03.02.17.14.23.17-.7.03-.94.28-1.27.63-.26-.3-.48-.55-.61-.94-.86.18.12-.07-.78.57.75.32.43.05.82.86-.52 1.4-.76.19-.83 1.49-.06 1.02.63.3-.23 1.55-.67.96-1.26 1.43-1.8 2.54.9.29 1.64.59 2.5.97 1.32.58 1.35.37 1.94 1.5.85 1.67-.08 2.77 1.15 5.28 2.15-.3 1.9-1 2.34-3.01.76-2.63.36-2.46 1.31-3.02l.38-1.11c-.7-.4-1.43.21 0-.63 1.66-.98.69-.85 1.2-2 1.73.35 1.42 1.73 2.46 2.9l1.33-2.55c.47.68.56 1.3 1.25 1.85.39.4.73.84 1.2 1.1-.23-1.86.16-1.23-.07-2.3 2.15-.1 2.2-1.88 1.32-3.05.98.04.8 0 1.37.44.27-1 .42-1.25 1.75-2.1l.18-.1ZM13.26 20.42c-.84.45-.9 1.22-1.12 1.52-.18-1.19.19-1.21-.01-1.91l-1.27.82.88.29c-1.76.43-5.53-.52-5.72.8-.1.67.15.9.57 1.38 1.1-.2.8-.82 1.8-.52 2.79.82 1.83 2.6 4.3 5.53 3.83 4.58 1.88-.79 3.9 5.51.34 1.02.7 1.28 1.22 1.53 0 .94-.18 2.4-.31 3.26-.14.97-.69 1.99.29 2.37.96-1.52-.5-.2 1.63-2.9.32-.4.61-1 .95-1.38.9-1.04.56-.23.83-.3l.8-2.96c-.26-.3-.58-.39-1.04-.72-1.83-1.32-1.28-1.24-2.67-3.09l.13 1.03c-1.05-.04-1.13-.07-2.02.34-.69-1.25-.8-.23-.86-2l-1.25.46c.25-2.58.41-1.77 2.26-1.48.7-2.21 1.24-2.64 2.52-2.84-1.1-.4-.56.41-.69-.73 1.79-.14.06.22 1.4.35a2.78 2.78 0 0 0-.82-1.4c-.15-.13-1.9-1.14-.75-.72.02-1.01-.15-.57.38-1-1.14-.8-1.6-.83-1.99-1.52l1.04-.48c.96-.09.3.96.86-.66l-3.66.43c-.01.56.5.34.4 1.2-.03.27-.07.35-.13.48-.78-.7-.96-1.28-1.46-1.28-.12.24-.17.47-.39.59ZM45.86 34.12c-.28-.05.04.13-.4.21-.92.17.12-1.09-2 .42l-1.14 1.02c-.3.61-.27 1.57-.32 2.27 3.04-.21 1.78.23 4 .8l.9.16c.35-1.97-.26-3.22-1.04-4.88ZM19 20.05l1.2.5.21.96c.36 1.45.38 1.08 1.04 1.49.49-.3 1.87-1.4 2.52-1.9.35-.52.12-.25.26-.62.25-.65.4-.75.77-1.09-.15 0-.78.06-.8.06-.49-.06-.65-.65-2.25-.38-2.04.36-2.48-.15-2.95.98Z" fill="#F0F3FA"/><path d="M42.64 33c.15-.3.18-.58.36-.93-.72-.3-.62-.04-.86-1.07-.66.3-.78-.06-1.14 1.81.15-.01 1-.2 1.01-.2.19.1.46.3.63.39ZM43.42 32c-.44.94.89-.07-.42.78 2.29.05.8.25 2.11 1.07.85.53 1.05-.52 1.89-.55-.78-.55-2.24-.52-3.58-1.3ZM40.89 33c.35-1.36-.18-1.87-.89-2 .24.9.41 1.39.89 2ZM33.4 36.99c.34-1.18.47-1.33.6-2.99-.51.33-.76.19-.91 1.18-.31 2.11.3 1.8.3 1.8Z" fill="#F0F3FA"/></svg>