<?xml version="1.0" encoding="UTF-8"?>
<!-- generated by Finnhub -->
<svg viewBox="0 0 55.5 55.5" xmlns="http://www.w3.org/2000/svg">
<path d="M 0,0 H 55.5 V 55.5 H 0 Z" fill="rgb(239, 242, 248)"/>
<path d="M 11.17,20.985 C 11.82,21 12.38,21.18 12.91,21.53 C 12.99,21.58 13.06,21.61 13.1,21.61 C 13.22,21.61 13.3,21.33 13.34,21 H 13.55 C 13.52,21.63 13.52,22.39 13.52,23.02 H 13.3 A 4.7,4.7 0 0,0 13.12,22.3 C 13.05,22.07 12.92,21.88 12.75,21.73 A 2.15,2.15 0 0,0 11.25,21.17 C 9.74,21.17 9,22.75 9,24 C 9,25.43 9.66,26.84 11.3,26.84 C 11.62,26.84 12.23,26.75 12.4,26.43 C 12.43,26.36 12.5,26.28 12.5,26.18 V 25.38 C 12.5,24.71 12.12,24.58 11.49,24.58 V 24.41 H 14 V 24.57 C 13.55,24.59 13.5,24.87 13.5,25.27 V 27 H 13.35 C 13.34,26.9 13.31,26.7 13.27,26.58 C 13.23,26.48 13.17,26.42 13.09,26.42 C 13.05,26.42 12.99,26.42 12.95,26.45 C 12.9,26.46 12.82,26.5 12.71,26.57 C 12.27,26.83 11.81,27 11.21,27 C 9.4,27 8,25.98 8,24.09 C 8,22.29 9.38,21 11.18,21 Z M 18,21 C 19.75,21 21,22.2 21,23.95 A 2.95,2.95 0 0,1 18,27 C 16.24,27 15,25.81 15,24.05 A 2.95,2.95 0 0,1 18,21 Z M 17.97,21.15 C 16.53,21.15 16,22.85 16,23.98 C 16,25.14 16.6,26.85 18.03,26.85 C 19.45,26.85 20,25.12 20,23.98 C 20,22.84 19.38,21.15 17.97,21.15 Z M 33,29 C 34.75,29 36,30.2 36,31.95 A 2.95,2.95 0 0,1 33,35 C 31.24,35 30,33.81 30,32.05 A 2.95,2.95 0 0,1 33,29 Z M 32.97,29.15 C 31.53,29.15 31,30.85 31,31.98 C 31,33.14 31.6,34.85 33.03,34.85 C 34.45,34.85 35,33.12 35,31.98 C 35,30.84 34.38,29.15 32.97,29.15 Z M 25,21 V 21.17 C 24.45,21.18 24,21.44 24,22 V 26.24 C 24,26.77 24.21,26.81 24.53,26.81 H 25.14 C 26.22,26.81 26.66,25.98 26.78,25 H 27 V 27 H 22 V 26.83 C 22.55,26.8 23,26.77 23,26.2 V 22 C 23,21.45 22.55,21.18 22,21.17 V 21 H 25 Z M 30.63,21 C 32.9,21 34,22.1 34,24 C 34,25.99 32.41,27 30.55,27 H 28 V 26.83 C 28.54,26.8 29,26.66 29,26.1 V 21.9 C 29,21.35 28.54,21.18 28,21.17 V 21 H 30.63 Z M 30.47,21.15 C 29.95,21.15 30,21.35 30,21.86 V 26.1 C 30,26.62 29.96,26.85 30.48,26.85 C 32.28,26.85 33,25.64 33,24 C 33,22.37 32.23,21.15 30.47,21.15 Z M 40,21 V 22.63 H 39.78 C 39.68,21.75 39.15,21.19 38.2,21.19 H 37.55 C 37.03,21.19 37,21.6 37,22 V 26.27 C 37,26.81 37.03,26.81 37.55,26.81 H 38.16 C 39.22,26.81 39.64,25.99 39.78,25 H 40 V 27 H 35 V 26.83 C 35.55,26.8 36,26.67 36,26.1 V 21.9 C 36,21.35 35.55,21.18 35,21.17 V 21 H 40 Z M 38.25,24 V 24.17 H 36.55 V 24 H 38.25 Z M 38.52,23 L 38.55,25 H 38.33 C 38.23,24.4 38.05,24.17 37.34,24.17 V 24 C 38.04,24 38.17,23.56 38.31,23 H 38.52 Z M 47,21 V 21.17 C 46.39,21.2 46.26,21.51 46.26,22.07 V 27 H 45.95 L 42,21.8 V 25.85 C 42,26.52 42.33,26.79 43,26.83 V 27 H 41 V 26.83 C 41.6,26.78 41.74,26.46 41.74,25.89 V 21.89 C 41.74,21.34 41.54,21.19 41,21.17 V 21 H 42.6 L 46,25.4 V 22.1 C 46,21.46 45.66,21.19 45,21.16 V 21 H 47 Z M 12.17,29 L 14.39,34.3 C 14.49,34.56 14.69,34.81 15,34.83 V 35 H 12.65 V 34.83 C 13.18,34.81 13.4,34.66 13.18,34.13 L 11.54,30.03 L 11.69,29.88 L 10.17,33.53 C 10.07,33.79 10,34 9.97,34.17 C 9.92,34.7 10.31,34.82 10.77,34.83 V 35 H 9 V 34.83 C 9.25,34.78 9.52,34.59 9.75,34.05 L 11.85,29 H 12.17 Z M 13.12,32.57 V 32.74 H 10.42 L 10.5,32.57 H 13.12 Z M 16,29 H 18.68 C 19.6,29 21,29.3 21,30.5 C 21,31.8 19.5,32.1 18.47,32.1 L 17.75,32.07 V 31.91 L 18.38,31.93 C 19.3,31.93 20,31.46 20,30.5 C 20,29.6 19.37,29.17 18.48,29.17 C 17.98,29.17 18,29.37 18,29.87 V 34.1 C 18,34.66 18.47,34.8 19,34.83 V 35 H 16 V 34.83 C 16.54,34.81 17,34.66 17,34.1 V 29.86 C 17,29.33 16.55,29.18 16,29.16 V 29 Z M 17.76,31.93 C 18.08,31.94 18.16,31.98 18.36,31.99 A 19.1,19.1 0 0,1 19.22,32.07 C 19.69,32.12 20.02,32.23 20.24,32.4 C 20.46,32.57 20.61,32.82 20.69,33.16 L 20.93,34.01 C 20.98,34.25 21.04,34.41 21.11,34.51 C 21.18,34.61 21.28,34.67 21.41,34.67 C 21.51,34.67 21.59,34.64 21.65,34.59 C 21.72,34.54 21.79,34.48 21.87,34.39 L 22,34.49 C 21.86,34.66 21.7,34.79 21.55,34.88 C 21.39,34.96 21.18,35 20.92,35 C 20.65,35 20.42,34.94 20.22,34.82 C 20.03,34.69 19.9,34.45 19.82,34.1 L 19.63,33.27 A 4.36,4.36 0 0,0 19.44,32.66 A 0.96,0.96 0 0,0 19.15,32.24 C 19.03,32.14 18.85,32.09 18.62,32.09 L 17.78,32.07 L 17.76,31.93 Z M 23,29 H 25.68 C 26.6,29 28,29.3 28,30.5 C 28,31.8 26.5,32.1 25.47,32.1 L 24.75,32.07 V 31.91 L 25.38,31.93 C 26.3,31.93 27,31.46 27,30.5 C 27,29.6 26.37,29.17 25.48,29.17 C 24.98,29.17 25,29.37 25,29.87 V 34.1 C 25,34.66 25.47,34.8 26,34.83 V 35 H 23 V 34.83 C 23.54,34.81 24,34.66 24,34.1 V 29.86 C 24,29.33 23.55,29.18 23,29.16 V 29 Z M 24.76,31.93 C 25.08,31.94 25.16,31.98 25.36,31.99 A 19.1,19.1 0 0,1 26.22,32.07 C 26.69,32.12 27.02,32.23 27.24,32.4 C 27.46,32.57 27.61,32.82 27.69,33.16 L 27.93,34.01 C 27.98,34.25 28.04,34.41 28.11,34.51 C 28.18,34.61 28.28,34.67 28.41,34.67 C 28.51,34.67 28.59,34.64 28.65,34.59 C 28.72,34.54 28.79,34.48 28.87,34.39 L 29,34.49 C 28.86,34.66 28.7,34.79 28.55,34.88 C 28.39,34.96 28.18,35 27.92,35 C 27.65,35 27.42,34.94 27.22,34.82 C 27.03,34.69 26.9,34.45 26.82,34.1 L 26.63,33.27 A 4.36,4.36 0 0,0 26.44,32.66 A 0.96,0.96 0 0,0 26.15,32.24 C 26.03,32.14 25.85,32.09 25.62,32.09 L 24.78,32.07 L 24.76,31.93 Z M 45,29 V 29.17 C 44.6,29.26 44.34,29.63 44.21,29.99 L 42.45,35 H 42.12 L 40.09,29.68 C 39.99,29.44 39.83,29.18 39.54,29.17 V 29 H 42 V 29.17 C 41.63,29.17 41.28,29.22 41.24,29.41 C 41.23,29.51 41.26,29.66 41.34,29.88 L 42.74,33.68 L 42.58,33.88 L 43.79,30.53 C 43.92,30.18 43.98,29.91 43.96,29.72 C 43.96,29.32 43.53,29.18 43,29.17 V 29 H 45 Z M 38.25,29 V 29.17 C 37.95,29.19 37.82,29.29 37.82,29.5 C 37.82,29.6 37.86,29.72 37.92,29.88 L 39.41,33.78 L 39.16,34.02 L 40.46,30.46 L 40.61,30.66 L 39.04,35 H 38.72 L 36.64,29.7 C 36.54,29.43 36.32,29.19 36,29.17 V 29 H 38.25 Z" fill="rgb(165, 127, 16)"/>
<path d="M 48.24,27.685 L 47.8,26.83 L 52,28 L 47.8,29.17 L 48.25,28.29 H 7.67 L 6.86,29 H 4 L 4.57,28 L 4,27 H 6.86 L 7.66,27.7 H 48.25 Z M 5.21,28 L 4.92,27.5 H 6.62 L 7.19,28 L 6.62,28.5 H 4.92 L 5.21,28 Z" fill-rule="evenodd"/>
</svg>
