<?xml version="1.0" encoding="UTF-8"?>
<!-- generated by Finnhub -->
<svg viewBox="0 0 55.5 55.5" xmlns="http://www.w3.org/2000/svg">
<path d="M 0,0 H 55.5 V 55.5 H 0 Z" fill="rgb(22, 24, 42)"/>
<path d="M 16.66,39.305 A 16.03,16.03 0 0,1 13.27,21.74 C 12.6,26.5 14.7,32.28 19.2,36.8 C 22.38,39.98 26.28,42.06 30.18,42.68 A 12.16,12.16 0 0,0 34.23,42.73 A 16.01,16.01 0 0,1 16.68,39.32 Z M 14.71,19.54 C 14.53,23.47 17.25,29.07 22.09,33.9 C 25.24,37.06 28.8,39.43 32.12,40.59 C 33.55,41.09 34.86,41.32 36.02,41.32 L 36.37,41.3 C 34.61,42 32.54,42.19 30.3,41.84 C 26.58,41.25 22.86,39.24 19.8,36.18 C 14.7,31.08 12.8,24.32 14.71,19.54 Z M 33.9,22.1 C 29.07,17.26 23.5,14.55 19.57,14.72 C 20.78,14.25 22.13,14 23.53,14 C 27.67,14 32.38,16.02 36.17,19.82 C 39.22,22.87 41.23,26.6 41.82,30.32 C 42.17,32.58 41.97,34.67 41.26,36.45 C 41.46,32.53 38.72,26.93 33.89,22.1 H 33.9 Z M 15.9,17.57 C 16.16,17.27 16.41,16.97 16.7,16.69 C 16.97,16.41 17.26,16.16 17.56,15.91 C 18.24,15.56 19.06,15.37 19.98,15.37 C 23.65,15.37 28.86,18.05 33.41,22.59 C 39.11,28.3 41.85,35.02 40.11,38.45 C 39.85,38.75 39.6,39.05 39.31,39.33 C 39.04,39.61 38.73,39.86 38.44,40.12 C 36.97,40.86 34.88,40.8 32.36,39.92 C 29.13,38.82 25.66,36.49 22.59,33.42 C 16.89,27.72 14.15,21 15.9,17.57 Z M 39.33,16.69 A 16.03,16.03 0 0,1 42.73,34.28 C 43.41,29.52 41.32,23.74 36.81,19.22 C 32.28,14.7 26.49,12.62 21.74,13.29 A 15.95,15.95 0 0,1 39.32,16.69 Z M 40.03,15.99 A 17.02,17.02 0 0,0 15.98,15.99 A 17.02,17.02 0 0,0 28,45 A 17.02,17.02 0 0,0 40.03,15.97 Z" fill="url(#a)"/>
<defs>
<linearGradient id="a" x1="16.2" x2="40.15" y1="16.2" y2="41.71" gradientUnits="userSpaceOnUse">
<stop stop-color="rgb(0, 236, 245)" offset="0"/>
<stop stop-color="rgb(1, 155, 253)" offset="1"/>
</linearGradient>
</defs>
</svg>
