<!-- by Finnhub --><svg xmlns="http://www.w3.org/2000/svg" width="56" height="56"><path fill="#F0F3FA" d="M0 0h56v56H0z"/><path d="M15 25v3.53c0 1.54-.93 2.47-2.5 2.47-1.56 0-2.5-.93-2.5-2.47V25h1.4v3.44c0 .84.36 1.31 1.1 1.31.74 0 1.1-.48 1.1-1.31V25H15zm21.8 1.15h-1.4v1.34h1.37c.46-.02.76-.28.76-.67 0-.4-.29-.65-.74-.67zm-.35 2.5H35.4V31H34v-6h3.07c1 0 1.83.82 1.83 1.83 0 .7-.4 1.34-1.04 1.64L39.3 31h-1.52l-1.33-2.33zm-19.05-2.5h1.4c.45.03.73.28.73.67 0 .4-.3.66-.76.68H17.4v-1.35zm0 2.51h1.05L19.78 31h1.52l-1.43-2.51a1.84 1.84 0 00-.8-3.48H16v6h1.4v-2.34zm12 1.14h3.2V31H28v-6h4.6v1.15h-3.2v1.2H32v1.16h-2.6v1.29zM49 27.06L50.3 25H52l-2.3 3.56V31h-1.4v-2.44L46 25h1.68L49 27.06zm-7.17-.91h1.39c.45.02.74.28.74.67s-.3.65-.77.67h-1.36v-1.34zm0 2.5h1.04L44.2 31h1.53l-1.44-2.52c.64-.3 1.04-.94 1.04-1.64 0-1.01-.82-1.83-1.84-1.83h-3.06v6h1.4v-2.34zM6.9 29.88H5.4v-1.4h1.51c.5 0 .74.4.74.69a.7.7 0 01-.74.7zM5.4 26.1h1.1c.35 0 .63.29.63.62 0 .35-.27.62-.63.62H5.4V26.1zm2.4 1.56A1.44 1.44 0 007.06 25H4v6h3.31A1.7 1.7 0 009 29.3c0-.67-.38-1.35-1.2-1.63zm15.6 2.2h1.51a.7.7 0 00.74-.72.7.7 0 00-.74-.69H23.4v1.4zm1.1-3.76h-1.1v1.24h1.1c.36 0 .63-.28.63-.62a.63.63 0 00-.63-.62zm1.99.33c0 .5-.26.96-.68 1.23.8.27 1.2.95 1.19 1.63 0 .93-.76 1.7-1.69 1.7H22v-6h3.05c.8 0 1.44.64 1.44 1.44z"/></svg>