<?xml version="1.0" encoding="UTF-8"?>
<!-- generated by Finnhub -->
<svg viewBox="0 0 55.5 55.5" xmlns="http://www.w3.org/2000/svg">
<path d="M 0,0 H 55.5 V 55.5 H 0 Z" fill="rgb(239, 242, 248)"/>
<path d="M 29.009999999999998,43.975 C 28.41,44.02 27.79,44.01 27.18,43.97 A 17,17 0 0,1 32.19,32.95 A 17.28,17.28 0 0,1 44,27.86 C 44.01,28.47 44,29.09 43.94,29.7 A 15.47,15.47 0 0,0 33.5,34.25 A 15.27,15.27 0 0,0 29.02,44 Z" fill="url(#l)"/>
<path d="M 22.9,43.085 C 23.29,38.47 25.11,33.55 29.28,29.38 A 21.78,21.78 0 0,1 43.11,22.96 C 43.31,23.56 43.49,24.16 43.62,24.76 A 19.99,19.99 0 0,0 30.59,30.68 A 19.8,19.8 0 0,0 24.71,43.61 C 24.11,43.48 23.51,43.31 22.91,43.1 Z" fill="url(#k)"/>
<path d="M 31.33,12.385 C 31.94,12.54 32.55,12.72 33.14,12.93 A 21.78,21.78 0 0,1 26.72,26.82 A 21.59,21.59 0 0,1 12.94,33.19 C 12.73,32.59 12.55,31.99 12.41,31.39 A 19.8,19.8 0 0,0 25.41,25.51 A 20,20 0 0,0 31.34,12.41 Z" fill="url(#j)"/>
<path d="M 26.72,12.014999999999999 A 16.1,16.1 0 0,1 28.56,12.02 A 17.26,17.26 0 0,1 23.49,23.57 A 17.11,17.11 0 0,1 12.02,28.61 C 11.98,28.01 11.99,27.39 12.02,26.78 A 15.3,15.3 0 0,0 22.18,22.27 A 15.46,15.46 0 0,0 26.73,12.03 Z" fill="url(#i)"/>
<path d="M 22.16,12.985 C 22.8,12.77 23.45,12.57 24.1,12.42 A 13,13 0 0,1 20.24,20.29 A 12.89,12.89 0 0,1 12.41,24.13 C 12.56,23.47 12.76,22.83 12.99,22.19 A 11.22,11.22 0 0,0 18.94,18.99 C 20.84,17.09 21.81,14.96 22.17,13 Z" fill="url(#h)"/>
<path d="M 33.65,43.055 C 33.01,43.3 32.34,43.49 31.66,43.64 A 14.4,14.4 0 0,1 35.8,35.82 A 14.27,14.27 0 0,1 43.63,31.71 C 43.48,32.38 43.29,33.05 43.05,33.7 A 12.63,12.63 0 0,0 37.1,37.13 A 12.78,12.78 0 0,0 33.66,43.07 Z" fill="url(#g)"/>
<path d="M 43.620000000000005,31.695 C 43.49,32.31 43.33,32.91 43.12,33.51 A 24.04,24.04 0 0,1 29.12,26.91 A 24.03,24.03 0 0,1 22.52,12.87 C 23.12,12.67 23.72,12.5 24.32,12.37 A 22.1,22.1 0 0,0 30.41,25.63 A 22.1,22.1 0 0,0 43.63,31.71 Z" fill="url(#f)"/>
<path d="M 12.76,22.785 C 12.58,23.4 12.43,24 12.3,24.6 C 18.5,25.13 23.32,28.63 25.36,30.67 A 22.14,22.14 0 0,1 31.43,43.69 C 32.03,43.57 32.63,43.41 33.23,43.22 A 24.06,24.06 0 0,0 26.65,29.39 C 24.45,27.19 19.39,23.49 12.77,22.81 Z" fill="url(#e)"/>
<path d="M 12.03,29.005 C 17.04,29.77 20.58,32.24 22.2,33.86 C 23.8,35.46 26.27,38.99 27.03,43.96 C 27.64,44.01 28.26,44.02 28.88,44 A 20.63,20.63 0 0,0 23.48,32.57 A 20.64,20.64 0 0,0 12.01,27.17 C 11.98,27.78 12,28.4 12.04,29.02 Z" fill="url(#d)"/>
<path d="M 28.84,12.024999999999999 A 18.75,18.75 0 0,0 33.71,22.34 A 18.74,18.74 0 0,0 43.97,27.2 C 44.01,27.81 44.02,28.43 43.99,29.05 A 20.65,20.65 0 0,1 32.42,23.63 A 20.66,20.66 0 0,1 27,12.02 A 14.3,14.3 0 0,1 28.85,12.04 Z" fill="url(#c)"/>
<path d="M 13.22,33.925 C 12.96,33.29 12.73,32.64 12.56,31.97 C 15.16,32.3 18.1,33.54 20.61,36.17 A 13.46,13.46 0 0,1 24.31,43.52 C 23.64,43.35 22.98,43.14 22.34,42.89 A 11.78,11.78 0 0,0 19.3,37.42 A 11.77,11.77 0 0,0 13.23,33.94 Z" fill="url(#b)"/>
<path d="M 33.61,13.084999999999999 C 33.98,15.19 35.04,17.5 37.18,19.54 A 11.7,11.7 0 0,0 43,22.66 C 43.24,23.3 43.43,23.95 43.58,24.6 A 13.4,13.4 0 0,1 35.92,20.86 A 13.38,13.38 0 0,1 31.69,12.49 C 32.34,12.65 32.99,12.86 33.62,13.1 Z" fill="url(#a)"/>
<defs>
<linearGradient id="l" x1="43.84" x2="28.21" y1="27.67" y2="43.73" gradientUnits="userSpaceOnUse">
<stop stop-color="rgb(50, 89, 120)" offset="0"/>
<stop stop-color="rgb(92, 157, 208)" offset=".51"/>
<stop stop-color="rgb(42, 74, 98)" offset="1"/>
</linearGradient>
<linearGradient id="k" x1="23.78" x2="42.5" y1="42.47" y2="23.52" gradientUnits="userSpaceOnUse">
<stop stop-color="rgb(128, 138, 53)" offset="0"/>
<stop stop-color="rgb(208, 214, 67)" offset=".58"/>
<stop stop-color="rgb(129, 135, 52)" offset="1"/>
</linearGradient>
<linearGradient id="j" x1="14.23" x2="32.85" y1="32.78" y2="14.39" gradientUnits="userSpaceOnUse">
<stop stop-color="rgb(144, 153, 56)" offset="0"/>
<stop stop-color="rgb(220, 227, 69)" offset=".41"/>
<stop stop-color="rgb(110, 117, 46)" offset="1"/>
</linearGradient>
<linearGradient id="i" x1="12.65" x2="27.94" y1="27.5" y2="13.05" gradientUnits="userSpaceOnUse">
<stop stop-color="rgb(35, 65, 87)" offset="0"/>
<stop stop-color="rgb(93, 159, 211)" offset=".59"/>
<stop stop-color="rgb(55, 96, 129)" offset="1"/>
</linearGradient>
<linearGradient id="h" x1="13.55" x2="23.75" y1="23.21" y2="13.34" gradientUnits="userSpaceOnUse">
<stop stop-color="rgb(37, 60, 112)" offset="0"/>
<stop stop-color="rgb(58, 78, 149)" offset=".48"/>
<stop stop-color="rgb(40, 58, 113)" offset="1"/>
</linearGradient>
<linearGradient id="g" x1="32.7" x2="43" y1="43.03" y2="32.73" gradientUnits="userSpaceOnUse">
<stop stop-color="rgb(38, 61, 113)" offset="0"/>
<stop stop-color="rgb(63, 83, 160)" offset=".49"/>
<stop stop-color="rgb(42, 61, 118)" offset="1"/>
</linearGradient>
<linearGradient id="f" x1="20.18" x2="40.67" y1="15.23" y2="35.92" gradientUnits="userSpaceOnUse">
<stop stop-color="rgb(123, 134, 52)" offset="0"/>
<stop stop-color="rgb(219, 226, 70)" offset=".61"/>
<stop stop-color="rgb(126, 132, 51)" offset="1"/>
</linearGradient>
<linearGradient id="e" x1="11.96" x2="33.08" y1="22.48" y2="44.43" gradientUnits="userSpaceOnUse">
<stop stop-color="rgb(123, 134, 52)" offset="0"/>
<stop stop-color="rgb(219, 225, 69)" offset=".46"/>
<stop stop-color="rgb(126, 132, 51)" offset="1"/>
</linearGradient>
<linearGradient id="d" x1="13.07" x2="29.92" y1="26.1" y2="42.95" gradientUnits="userSpaceOnUse">
<stop stop-color="rgb(42, 73, 97)" offset="0"/>
<stop stop-color="rgb(93, 159, 212)" offset=".39"/>
<stop stop-color="rgb(42, 77, 105)" offset="1"/>
</linearGradient>
<linearGradient id="c" x1="25.91" x2="42.92" y1="13.11" y2="30.11" gradientUnits="userSpaceOnUse">
<stop stop-color="rgb(35, 65, 87)" offset="0"/>
<stop stop-color="rgb(93, 160, 213)" offset=".63"/>
<stop stop-color="rgb(52, 92, 124)" offset="1"/>
</linearGradient>
<linearGradient id="b" x1="13.2" x2="24.85" y1="31.33" y2="42.98" gradientUnits="userSpaceOnUse">
<stop stop-color="rgb(34, 59, 110)" offset="0"/>
<stop stop-color="rgb(62, 82, 157)" offset=".54"/>
<stop stop-color="rgb(36, 55, 107)" offset="1"/>
</linearGradient>
<linearGradient id="a" x1="30.98" x2="42.99" y1="13.2" y2="25.2" gradientUnits="userSpaceOnUse">
<stop stop-color="rgb(35, 59, 110)" offset="0"/>
<stop stop-color="rgb(63, 84, 160)" offset=".52"/>
<stop stop-color="rgb(30, 48, 97)" offset="1"/>
</linearGradient>
</defs>
</svg>
