<?xml version="1.0" encoding="UTF-8"?>
<!-- generated by Finnhub -->
<svg viewBox="0 0 55.5 55.5" xmlns="http://www.w3.org/2000/svg">
<path d="M 0,0 H 55.5 V 55.5 H 0 Z" fill="rgb(239, 242, 248)"/>
<path d="M 21.99,10.985 L 24,13.34 V 23.53 C 24,25.41 23.75,27 22.47,27 C 20.79,27 19.29,26.69 17.97,26.41 C 16.91,26.2 15.97,26 15.12,26 C 13.42,26 11,27 11,27 S 14.86,27.41 16.17,30 C 20.48,38.56 23.89,45 23.89,45 L 25.99,40.44 S 23.89,36.44 21.25,31.24 A 2.1,2.1 0 0,1 21.01,30.31 C 21,28.66 22.5,28 23.6,28 C 25.4,28 26.05,29.42 26.62,30.66 L 26.89,31.24 C 30.23,37.94 33.89,45 33.89,45 L 36.32,40.44 L 30.23,28.21 S 36,27.55 36,22.95 S 31.24,18.35 31.24,18.35 S 34,17.61 34,14.5 C 34,11 28.64,11 28.64,11 S 31,11.88 31,15.07 C 31,17.75 28.14,19.19 28.14,19.19 S 33,19.04 33,22.62 C 33,24.92 31.5,26 29.14,26 C 27.46,26 27,25.32 27,25.32 V 11 H 22 Z M 34,28.26 S 36.24,29.09 37.44,30.44 C 38.54,31.67 38.47,35 38.47,35 S 40.77,31.23 41.92,28.26 C 41.97,28.14 42,28.01 42,27.87 C 42,27.44 41.8,27 41.35,27 C 37.55,27 34,28.26 34,28.26 Z" fill="url(#a)"/>
<defs>
<linearGradient id="a" x1="26.98" x2="26.98" y1="11" y2="45" gradientUnits="userSpaceOnUse">
<stop stop-color="rgb(105, 181, 132)" offset="0"/>
<stop stop-color="rgb(11, 96, 116)" offset=".29"/>
<stop stop-color="rgb(10, 37, 105)" offset=".48"/>
<stop stop-color="rgb(14, 1, 99)" offset=".79"/>
</linearGradient>
</defs>
</svg>
