<!-- by Finnhub --><svg width="56" height="56" viewBox="0 0 56 56" xmlns="http://www.w3.org/2000/svg"><path fill="#F0F3FA" d="M0 0h56v56H0z"/><path fill-rule="evenodd" d="M44 30c0 3.15-.91 6.1-2.49 8.57L34 26.56l-1.47 2.34-4.52-6.79-4.63 6.65-1.38-2.2-7.51 12.01A16 16 0 1 1 44 30Zm-2.5 10h.25a17 17 0 1 0-27.5 0H41.5ZM34 28.44 40.6 39h-1.33l-6.13-9.19.86-1.37Zm-1.44 2.3 5.5 8.26h-8.28l-1.19-1.9 3.97-6.36ZM28 38.04l.6.96h-1.2l.6-.96Zm-.59-.94L26.22 39h-8.76l5.87-8.43 4.08 6.53Zm-4.66-7.45L16.24 39h-.84L22 28.44l.75 1.21Zm1.2.03L28 36.16l3.95-6.33L28 23.9l-4.04 5.8Z" fill="#7C7C7C"/></svg>