<?xml version="1.0" encoding="UTF-8"?>
<!-- generated by Finnhub -->
<svg viewBox="0 0 55.5 55.5" xmlns="http://www.w3.org/2000/svg">
<path d="M 0,0 H 55.5 V 55.5 H 0 Z" fill="rgb(51, 50, 202)"/>
<path d="M 3.99,22.985 H 11.38 A 2.62,2.62 0 0,1 13.2,27.5 A 2.6,2.6 0 0,1 11.38,32 H 4 V 23 Z M 5.65,24.57 H 11.25 A 1.05,1.05 0 0,1 11.25,26.67 H 5.65 V 24.57 Z M 5.65,28.33 H 11.25 A 1.05,1.05 0 1,1 11.25,30.43 H 5.65 V 28.33 Z" fill="rgb(249, 254, 249)" fill-rule="evenodd"/>
<path d="M 15.99,22.985 H 17.59 V 29.6 C 17.59,30.14 18,30.58 18.52,30.58 H 22.48 C 23,30.58 23.41,30.14 23.41,29.6 V 23 H 31 V 24.37 H 25 V 29.65 C 25,30.95 24,32 22.76,32 H 18.24 A 2.3,2.3 0 0,1 16,29.65 V 23 Z M 38,23 H 35.82 L 27,32 H 38 V 30.36 H 30.79 L 38,23 Z M 47.87,24.64 H 40 V 23 H 52 L 44.13,30.36 H 52 V 32 H 40 L 47.87,24.64 Z" fill="rgb(249, 254, 249)"/>
</svg>
