<?xml version="1.0" encoding="UTF-8"?>
<!-- generated by Finnhub -->
<svg viewBox="0 0 55.5 55.5" xmlns="http://www.w3.org/2000/svg">
<path d="M0 0h55.5v55.5H0z" fill="url(#a)"/>
<path d="M18 35.62V23.04c.08-1.3.65-3.3 2.14-4.98C21.59 16.42 24 15 28 15s6.41 1.42 7.87 3.06A8.65 8.65 0 0 1 38 23.04v12.58l-6 3.33v-8.37l3-1.32V26l-4.97 2.08A1.5 1.5 0 0 0 29 29.5v12a1.5 1.5 0 0 0 2.23 1.31l9-5c.47-.26.77-.77.77-1.31V22.92c-.1-1.87-.88-4.58-2.89-6.85C36.05 13.75 32.81 12 28 12c-4.8 0-8.05 1.75-10.11 4.07A11.63 11.63 0 0 0 15 23v13.5c0 .54.3 1.05.77 1.31l9 5A1.5 1.5 0 0 0 27 41.5v-12a1.5 1.5 0 0 0-1.03-1.42L21 26v3.26l3 1.32v8.37l-6-3.33Z" fill="rgb(254, 253, 253)"/>
<defs>
<linearGradient id="a" x1="44.5" x2="4.5" y1="9" y2="47" gradientUnits="userSpaceOnUse">
<stop stop-color="rgb(67, 225, 249)" offset="0"/>
<stop stop-color="rgb(5, 105, 252)" offset="1"/>
</linearGradient>
</defs>
</svg>
