<!-- by Finnhub --><svg width="56" height="56" viewBox="0 0 56 56" xmlns="http://www.w3.org/2000/svg"><path fill="#F0F3FA" d="M0 0h56v56H0z"/><path d="m15 26.5 1.5-.5v.68A2 2 0 0 1 18 26c1.45 0 2 1 2 2v2c0 .17.1.6.5 1h-2c.17-.17.5-.6.5-1v-2c0-.63 0-1.5-1-1.5-.63 0-1.13.4-1.5.82V30c0 .33.1 1 .5 1h-2c.17-.17.5-.6.5-1v-3l-.5-.5Z" fill="#006654"/><path fill-rule="evenodd" d="M13 30.5c0 .28.22.5.5.5h1c-.17-.17-.5-.6-.5-1v-2.5c0-.5-.4-1.5-2-1.5a5 5 0 0 0-2 .5l.5 1c.17-.33.7-1 1.5-1s1 .67 1 1v.5c-1.15 0-3 .13-3 1.5 0 .5.3 1.5 1.5 1.5a2 2 0 0 0 1.5-.68v.18Zm0-.75V28.5h-1c-.33 0-1 .2-1 1s.33 1 .5 1c.6.05 1.13-.33 1.5-.75Z" fill="#006654"/><path d="M8.84 29.02c-.3.91-1.01 1.48-1.84 1.48-1.1 0-2-1-2-2.5s.9-2.5 2-2.5c.83 0 1.54.57 1.84 1.48l.54-.8a3 3 0 1 0 0 3.64l-.54-.8ZM36.84 29.02c-.3.91-1.01 1.48-1.84 1.48-1.1 0-2-1-2-2.5s.9-2.5 2-2.5c.83 0 1.54.57 1.84 1.48l.54-.8a3 3 0 1 0 0 3.64l-.54-.8ZM48 30.5V32c0 .33.5 1 .5 1h-2c.17-.17.5-.6.5-1v-5l-.5-.5L48 26v.5a2.5 2.5 0 1 1 0 4Zm0-2c0 1 .5 2 1.5 2s1.5-.9 1.5-2-.58-2-1.5-2c-1 0-1.5 1-1.5 2ZM43 26.5l1.5-.5v.92c.41-.38.97-.68 1.5-.42l-.5 1c-.22-.11-.63-.2-1-.03V30c0 .17.1 1 .5 1h-2c.17 0 .5-.6.5-1v-3l-.5-.5ZM31 28a5 5 0 1 1-10 0 5 5 0 0 1 10 0Zm-6.5-4v.5h3V24h-3Zm2.5 1h-3.5c.5.5.5.67.5 1v4c0 .4-.33.83-.5 1H27c1 0 2-.5 2-1.5 0-.8-.5-1.65-2-1.65 1.2 0 1.5-.85 1.5-1.35 0-1.2-1-1.5-1.5-1.5Zm-.5.5H25v2h1.5c.33 0 1-.2 1-1s-.67-1-1-1ZM26 28h-1v2c0 .4.33.5.5.5h1c1.2 0 1.5-.67 1.5-1 0-1.2-1.5-1.5-2-1.5Z" fill="#006654"/><path fill-rule="evenodd" d="M40.5 30.5c1 0 1.5-.9 1.5-2s-.58-2-1.5-2c-1 0-1.5 1-1.5 2s.5 2 1.5 2Zm0 .5a2.5 2.5 0 1 0 0-5 2.5 2.5 0 0 0 0 5Z" fill="#006654"/></svg>