<!-- by Finnhub --><svg width="56" height="56" viewBox="0 0 56 56" xmlns="http://www.w3.org/2000/svg"><path fill="#F0F3FA" d="M0 0h56v56H0z"/><path d="M26.5 23.7c-5.6 1.28-5.06 5.92-4.08 8.07a20.72 20.72 0 0 1 2.33-4.85 21.46 21.46 0 0 0-.58 4.85c3.26-1.72 2.91-6.1 2.33-8.08ZM30 33.38c-2.33-1.72-4.47-1.07-5.25-.53.47.43 2.14.53 2.92.53-.94.44-2.73.18-3.5 0A3.26 3.26 0 0 0 27.08 35c.94 0 2.34-1.08 2.92-1.62ZM16.58 7c-3.26 5.6-.97 9.51.59 10.77.93-2.15.77-4.85.58-5.92 1.4 1.72 1.75 4.66 1.75 5.92 3.73-5.17-.39-9.33-2.92-10.77ZM16.58 20.46A6.21 6.21 0 0 1 9 18.85c4.67-2.16 7-.9 7.58 0-.46.43-2.91.53-4.08.53.93.44 3.11.9 4.08 1.08Z" fill="#8ABD46"/><path fill-rule="evenodd" d="M28.88 21.38a9.46 9.46 0 0 1 6.9 2.93l3.6-4.28A15.45 15.45 0 0 0 28.88 16c-7.73 0-14.1 5.49-14.88 12.53 1.08 8.12 5.34 11.54 7.4 12.24-1.84-3.02-1.92-8.44-1.73-10.77 0-4.76 4.12-8.62 9.2-8.62Zm-4.98-2.72c.3-.1.45-.41.34-.7a.59.59 0 0 0-.74-.31c-.45.15-1.03.4-1.6.7-.54.3-1.12.67-1.5 1.05-.21.22-.2.56.03.76.24.2.6.2.82-.02a5.5 5.5 0 0 1 1.23-.85c.5-.27 1.04-.5 1.42-.63Zm-3.86 2.6a.52.52 0 0 0 .08-.76.6.6 0 0 0-.81-.07c-1.49 1.14-2.72 2.73-3.07 4.06-.08.29.11.58.42.65.3.07.62-.1.7-.4.27-1.02 1.3-2.43 2.68-3.48Zm8.84 17.36a9.35 9.35 0 0 0 7.83-4.1L41 38.2A15.28 15.28 0 0 1 28.88 44a8.4 8.4 0 0 1-6.1-4.64c-1.66-3.15-.66-5.73.34-6.67.39 3.97 2.69 5.45 4.33 5.82.46.07.94.1 1.43.1Zm7.37 1.92a.52.52 0 0 0-.14-.75.6.6 0 0 0-.8.13c-.34.46-.53.65-1 .94a.52.52 0 0 0-.16.74.6.6 0 0 0 .8.16c.62-.39.9-.69 1.3-1.22Zm-2.51 1.79c.28-.14.4-.46.25-.72a.6.6 0 0 0-.77-.25c-.38.18-.9.3-1.4.39-.5.07-.96.1-1.22.1-.31 0-.57.24-.57.53 0 .3.26.54.57.54.32 0 .84-.03 1.4-.11.56-.09 1.2-.23 1.74-.48Z" fill="#6A6B6D"/></svg>