<?xml version="1.0" encoding="UTF-8"?>
<!-- generated by Finnhub -->
<svg viewBox="0 0 55.5 55.5" xmlns="http://www.w3.org/2000/svg">
<path d="M 0,0 H 55.5 V 55.5 H 0 Z" fill="rgb(239, 242, 248)"/>
<path d="M 42.99,12.985 H 13 V 43 H 43 V 35.28 A 28.17,28.17 0 0,1 33,37 C 23.61,37 16,32.97 16,28 S 23.61,19 33,19 C 36.74,19 40.2,19.64 43,20.72 V 13 Z" fill="rgb(224, 0, 46)"/>
<path d="M 42.99,24.945 A 21.8,21.8 0 0,0 36.3,24 C 30.61,24 26,25.8 26,28 S 30.61,32 36.3,32 C 38.86,32 41.2,31.64 43,31.04 V 24.96 Z" fill="rgb(224, 0, 46)"/>
</svg>
