<?xml version="1.0" encoding="UTF-8"?>
<!-- generated by Finnhub -->
<svg viewBox="0 0 55.5 55.5" xmlns="http://www.w3.org/2000/svg">
<path d="M 0,0 H 55.5 V 55.5 H 0 Z" fill="rgb(239, 242, 248)"/>
<path d="M 49.49,30.485 H 52 V 32 H 48 V 24 H 49.5 V 30.5 Z M 44.5,30.5 H 47 V 32 H 43 V 24 H 44.5 V 30.5 Z M 41.5,24 V 32 H 40 V 24 H 41.5 Z M 37.14,32 L 34.5,28.44 V 32 H 33 V 24 H 34.5 V 27.59 L 37.14,24 H 38.92 L 35.89,27.97 L 39,32 H 37.14 Z M 28.57,32 C 27.99,32 27.47,31.9 27.01,31.72 A 2.55,2.55 0 0,1 25.91,30.92 C 25.65,30.56 25.51,30.15 25.5,29.67 H 27.28 C 27.3,29.99 27.42,30.25 27.63,30.43 C 27.86,30.62 28.16,30.71 28.53,30.71 C 28.93,30.71 29.23,30.63 29.45,30.46 A 0.85,0.85 0 0,0 29.78,29.76 A 0.77,0.77 0 0,0 29.56,29.19 A 1.52,1.52 0 0,0 28.99,28.84 A 8.12,8.12 0 0,0 28.06,28.55 C 27.52,28.4 27.09,28.25 26.75,28.12 A 2.42,2.42 0 0,1 25.88,27.46 C 25.64,27.16 25.52,26.76 25.52,26.27 C 25.52,25.81 25.65,25.41 25.89,25.07 C 26.14,24.72 26.48,24.46 26.92,24.28 C 27.37,24.09 27.87,24 28.44,24 C 29.29,24 29.99,24.2 30.52,24.6 C 31.05,24.98 31.35,25.53 31.41,26.23 H 29.58 A 0.86,0.86 0 0,0 29.21,25.57 A 1.37,1.37 0 0,0 28.32,25.3 C 28,25.3 27.74,25.38 27.54,25.53 C 27.35,25.69 27.25,25.92 27.25,26.22 C 27.25,26.42 27.33,26.6 27.47,26.74 C 27.62,26.88 27.8,26.99 28.01,27.08 C 28.24,27.16 28.54,27.26 28.94,27.37 C 29.48,27.52 29.91,27.67 30.25,27.82 C 30.59,27.96 30.89,28.19 31.13,28.49 C 31.38,28.79 31.5,29.18 31.5,29.66 C 31.5,30.08 31.39,30.46 31.16,30.83 C 30.93,31.18 30.59,31.47 30.15,31.69 C 29.71,31.89 29.18,32 28.57,32 Z M 25,24 V 25.3 H 23 V 32 H 21.5 V 25.3 H 19.5 V 24 H 25 Z M 16.96,30.48 H 14.03 L 13.55,32 H 12 L 14.64,24 H 16.36 L 19,32 H 17.44 L 16.96,30.48 Z M 16.56,29.2 L 15.49,25.85 L 14.43,29.2 H 16.56 Z M 4,28 C 4,27.24 4.16,26.55 4.47,25.94 A 3.45,3.45 0 0,1 7.63,24 A 3.42,3.42 0 0,1 11,26.54 H 9.35 C 9.18,26.16 8.95,25.88 8.65,25.69 C 8.35,25.51 8.01,25.41 7.62,25.41 C 7.21,25.41 6.83,25.52 6.5,25.74 C 6.18,25.94 5.93,26.24 5.74,26.64 C 5.57,27.03 5.48,27.48 5.48,28.01 C 5.48,28.52 5.57,28.98 5.74,29.37 C 5.93,29.77 6.18,30.07 6.5,30.28 C 6.83,30.49 7.2,30.6 7.62,30.6 C 8.02,30.6 8.36,30.5 8.65,30.32 C 8.95,30.12 9.18,29.84 9.35,29.46 H 11 C 10.76,30.26 10.34,30.89 9.74,31.34 C 9.14,31.78 8.44,32 7.64,32 A 3.5,3.5 0 0,1 5.78,31.5 A 3.68,3.68 0 0,1 4.48,30.07 C 4.16,29.47 4,28.77 4,28.01 Z"/>
</svg>
