<?xml version="1.0" encoding="UTF-8"?>
<!-- generated by Finnhub -->
<svg viewBox="0 0 55.5 55.5" xmlns="http://www.w3.org/2000/svg">
<path d="M 0,0 H 55.5 V 55.5 H 0 Z" fill="rgb(239, 242, 248)"/>
<path d="M 11.99,33.845 V 19.36 C 12,19.08 12.14,18.83 12.38,18.69 L 25.08,11.18 C 25.93,10.68 27,11.29 27,12.28 V 20.79 L 21,24.32 V 30.75 L 13.68,34.86 C 12.92,35.26 12,34.72 12,33.86 Z" fill="rgb(113, 245, 246)"/>
<path d="M 28.99,39.885 V 26 C 29,25.74 29.14,25.5 29.38,25.37 L 42.08,18.17 C 42.93,17.69 44,18.27 44,19.23 V 27.38 L 38,30.76 V 36.93 L 30.68,40.87 C 29.92,41.26 29,40.73 29,39.9 Z" fill="rgb(201, 194, 247)"/>
<path d="M 29.189999999999998,11.665 C 28.77,11.95 28.47,12.45 28.47,13.1 V 19.05 C 28.47,19.71 28.83,20.31 29.41,20.63 L 33.48,23.06 C 34.09,23.4 34.47,24.03 34.47,24.72 V 30.02 L 42.2,34.44 C 42.8,34.74 43.53,34.32 43.53,33.66 V 18.92 C 43.53,18.74 43.43,18.57 43.27,18.48 L 30.87,11.66 A 1.73,1.73 0 0,0 29.21,11.68 Z M 28.96,11.29 C 29.54,10.93 30.32,10.89 31.09,11.25 L 43.5,18.08 C 43.81,18.26 44,18.58 44,18.92 V 33.66 C 44,34.67 42.9,35.32 41.98,34.84 L 34,30.27 V 24.72 C 34,24.2 33.71,23.72 33.25,23.45 L 29.17,21.03 A 2.27,2.27 0 0,1 28,19.05 V 13.1 C 28,12.3 28.37,11.65 28.96,11.3 Z" fill="url(#b)"/>
<path d="M 27.029999999999998,45.765 C 27.55,46.08 28.19,46.08 28.71,45.78 L 40.98,38.64 C 42.54,37.74 42.23,36.6 40.61,35.79 L 34.67,32.19 A 1.8,1.8 0 0,0 32.97,32.23 L 28.67,34.85 C 28.17,35.15 27.56,35.15 27.06,34.87 L 22.42,32.23 A 1.8,1.8 0 0,0 20.72,32.19 L 15.25,34.93 A 2.26,2.26 0 0,0 15.13,38.9 L 27.03,45.78 Z" fill="url(#a)"/>
<defs>
<linearGradient id="b" x1="36" x2="36" y1="11" y2="35" gradientUnits="userSpaceOnUse">
<stop stop-color="rgb(159, 241, 228)" offset="0"/>
<stop stop-color="rgb(116, 142, 215)" offset="1"/>
</linearGradient>
<linearGradient id="a" x1="13.98" x2="42.01" y1="37.07" y2="37.07" gradientUnits="userSpaceOnUse">
<stop stop-color="rgb(99, 199, 241)" offset="0"/>
<stop stop-color="rgb(111, 60, 248)" offset="1"/>
</linearGradient>
</defs>
</svg>
