<?xml version="1.0" encoding="UTF-8"?>
<!-- generated by Finnhub -->
<svg viewBox="0 0 55.5 55.5" xmlns="http://www.w3.org/2000/svg">
<path d="M 0,0 H 55.5 V 55.5 H 0 Z" fill="rgb(1, 71, 117)"/>
<path d="M 18.186999999999998,16.985 A 6.192,6.192 0 0,0 15.836,17.522 C 15.072,17.859 14.361,18.351 13.732,18.925 A 11.709,11.709 0 0,0 12.072,20.849 C 11.588,21.545 11.164,22.28 10.798,23.022 C 10.43,23.76 10.122,24.512 9.848,25.246 A 27.673,27.673 0 0,0 9.156,27.384 A 32.628,32.628 0 0,0 8.668,29.334 A 39.214,39.214 0 0,0 8.138,32.294 C 8.09,32.651 8.055,32.929 8.035,33.124 C 8.012,33.316 8.001,33.422 8.001,33.422 A 0.12,0.12 0 0,0 8.104,33.559 A 0.122,0.122 0 0,0 8.249,33.457 S 8.27,33.357 8.3,33.166 A 38.9,38.9 0 0,1 9.07,29.436 C 9.226,28.842 9.416,28.199 9.635,27.529 C 9.852,26.863 10.099,26.167 10.396,25.459 C 10.69,24.755 11.022,24.038 11.406,23.339 C 11.786,22.638 12.221,21.949 12.706,21.311 A 10.654,10.654 0 0,1 14.313,19.584 C 14.901,19.086 15.548,18.68 16.213,18.42 A 5.148,5.148 0 0,1 18.196,18.07 C 18.836,18.087 19.442,18.218 19.976,18.412 C 20.512,18.608 20.975,18.859 21.378,19.105 C 21.78,19.355 22.12,19.591 22.388,19.805 L 22.482,19.883 C 22.456,19.893 22.429,19.898 22.405,19.909 C 22.107,20.029 21.825,20.18 21.549,20.345 C 21.273,20.505 21.006,20.688 20.754,20.884 C 20.504,21.079 20.261,21.296 20.035,21.517 C 19.808,21.735 19.595,21.957 19.394,22.192 C 18.988,22.662 18.639,23.162 18.324,23.655 A 15.27,15.27 0 0,0 16.939,26.503 C 16.62,27.377 16.432,28.136 16.349,28.675 C 16.307,28.945 16.286,29.151 16.281,29.3 C 16.276,29.378 16.281,29.383 16.281,29.42 V 29.462 C 16.281,29.523 16.331,29.57 16.391,29.574 C 16.455,29.577 16.51,29.53 16.511,29.471 C 16.511,29.471 16.509,29.446 16.511,29.411 L 16.521,29.317 C 16.532,29.181 16.56,28.977 16.614,28.718 C 16.717,28.205 16.93,27.475 17.281,26.64 C 17.631,25.808 18.116,24.86 18.761,23.937 C 19.081,23.475 19.445,23.02 19.847,22.594 A 8.47,8.47 0 0,1 21.164,21.44 C 21.402,21.27 21.653,21.112 21.908,20.978 C 22.161,20.842 22.42,20.728 22.687,20.636 C 22.817,20.586 22.956,20.548 23.089,20.507 C 23.12,20.499 23.144,20.489 23.174,20.482 C 23.279,20.457 23.386,20.43 23.491,20.413 C 23.625,20.387 23.76,20.373 23.893,20.353 C 23.958,20.344 24.023,20.335 24.09,20.328 C 24.14,20.323 24.19,20.322 24.244,20.319 H 24.294 C 24.558,20.303 24.819,20.332 25.074,20.353 C 25.325,20.387 25.565,20.429 25.8,20.49 C 26.275,20.61 26.712,20.777 27.1,20.96 C 27.492,21.146 27.837,21.343 28.135,21.534 C 28.282,21.633 28.42,21.723 28.545,21.816 C 28.67,21.906 28.785,21.992 28.888,22.073 C 28.986,22.151 29.083,22.217 29.162,22.278 C 29.238,22.34 29.298,22.394 29.35,22.44 C 29.457,22.529 29.52,22.577 29.52,22.577 L 29.53,22.594 C 29.535,22.599 29.548,22.599 29.555,22.603 A 0.574,0.574 0 0,0 30.248,21.688 S 30.178,21.643 30.06,21.551 A 5.769,5.769 0 0,1 29.846,21.388 L 29.538,21.174 A 7.414,7.414 0 0,0 29.153,20.918 C 29.015,20.824 28.858,20.735 28.691,20.636 A 9.998,9.998 0 0,0 27.511,20.046 A 8.009,8.009 0 0,0 26.006,19.575 A 6.495,6.495 0 0,0 24.244,19.472 C 24.169,19.478 24.094,19.481 24.021,19.489 C 23.982,19.457 23.925,19.406 23.841,19.335 A 7.13,7.13 0 0,0 23.551,19.105 C 23.433,19.015 23.305,18.913 23.149,18.805 A 11.123,11.123 0 0,0 21.994,18.061 A 9.156,9.156 0 0,0 20.334,17.334 A 6.837,6.837 0 0,0 18.198,17 Z M 45.087,25.34 C 44.764,25.34 44.305,25.475 44.061,25.596 L 43.941,25.656 L 44.018,25.998 A 6899.3,6899.3 0 0,0 38.536,36.621 C 38.35,36.944 38.219,37.203 38.219,37.203 C 38.169,37.289 38.167,37.368 38.202,37.425 C 38.24,37.492 38.322,37.52 38.459,37.52 H 39.417 C 39.754,37.52 39.815,37.436 39.913,37.263 L 41.598,33.893 H 43.848 C 44.368,33.88 44.837,33.351 44.848,32.755 V 32.585 H 42.291 L 44.609,27.983 L 46.328,37.075 C 46.423,37.521 46.465,37.588 46.695,37.588 C 46.906,37.588 47.34,37.468 47.654,37.374 L 47.807,37.323 C 47.949,37.28 48.019,37.183 47.996,37.066 L 45.712,25.93 C 45.568,25.404 45.288,25.34 45.087,25.34 Z M 35.448,25.348 C 34.598,25.348 33.24,25.549 32.797,25.708 L 32.78,25.716 C 32.504,25.915 32.289,26.386 32.258,26.648 C 32.258,26.718 32.311,26.794 32.412,26.794 C 32.424,26.794 32.515,26.782 32.642,26.768 H 32.66 C 32.796,26.755 32.965,26.73 33.105,26.717 C 32.967,27.472 32.682,29.382 32.369,31.395 C 32.003,33.796 31.616,36.271 31.429,37.288 A 0.25,0.25 0 0,0 31.471,37.485 C 31.53,37.567 31.631,37.582 31.676,37.588 H 32.771 C 32.986,37.588 33.108,37.426 33.147,37.28 C 33.16,37.187 34.54,28.03 34.79,26.563 C 34.946,26.553 35.227,26.554 35.354,26.554 C 36.161,26.554 36.814,26.793 37.244,27.239 C 37.656,27.668 37.864,28.276 37.834,29.009 C 37.758,30.927 36.83,31.9 35.08,31.9 C 34.834,31.9 34.66,31.885 34.482,31.815 C 34.372,31.766 34.307,31.815 34.302,31.935 C 34.278,32.297 34.406,32.635 34.644,32.841 C 34.852,33.018 35.052,33.071 35.542,33.071 C 37.106,33.071 39.472,32.003 39.588,29.043 C 39.634,27.957 39.355,27.082 38.75,26.452 C 38.049,25.722 36.935,25.348 35.448,25.348 Z M 27.178,25.357 C 22.008,25.357 19.946,29.32 19.822,31.986 C 19.733,33.652 20.165,35.046 21.079,36.014 C 22.042,37.034 23.532,37.579 25.381,37.588 H 25.458 C 26.519,37.588 27.511,37.445 28.657,37.126 L 28.751,37.1 L 28.777,36.998 C 28.827,36.721 28.92,36.19 29.033,35.569 C 29.285,34.197 29.598,32.479 29.675,32.097 C 29.69,31.971 29.698,31.81 29.598,31.695 C 29.523,31.605 29.406,31.569 29.248,31.567 C 29.135,31.567 28.578,31.621 28.478,31.635 C 27.864,31.72 27.04,31.933 27.032,31.935 L 27.015,31.943 C 26.705,32.167 26.414,32.967 26.382,33.192 C 26.376,33.228 26.372,33.256 26.39,33.277 C 26.428,33.327 26.49,33.363 26.561,33.363 L 26.844,33.328 C 27.044,33.309 27.555,33.23 27.75,33.2 C 27.742,33.241 27.737,33.294 27.725,33.363 A 77.117,77.117 0 0,1 27.22,36.185 A 5.5,5.5 0 0,1 25.817,36.382 C 24.53,36.374 23.473,35.981 22.772,35.244 C 22.049,34.478 21.707,33.371 21.772,32.037 C 21.919,28.883 24.15,26.674 27.202,26.674 H 27.237 C 28.167,26.68 29.013,27.017 29.29,27.127 A 0.942,0.942 0 0,0 29.632,27.204 C 30.116,27.204 30.384,26.77 30.479,26.366 L 30.504,26.264 L 30.427,26.195 C 29.865,25.709 28.55,25.364 27.229,25.357 H 27.177 Z" fill="rgb(254, 254, 253)"/>
</svg>
