<!-- by Finnhub --><svg width="56" height="56" viewBox="0 0 56 56" fill="none" xmlns="http://www.w3.org/2000/svg">
<rect width="56" height="56" fill="#F0F3FA"/>
<path fill-rule="evenodd" clip-rule="evenodd" d="M28.1166 8L33.2889 17.2946L32.5316 17.7162L28.0727 9.70365L23.0444 17.7354L22.3098 17.2754L28.1166 8ZM16.7238 27.221L17.4693 27.6633L11.7467 37H44.2294L38.6254 27.6609L39.3736 27.2233L46 38H10L16.7238 27.221ZM43.6179 39.065L44.8618 41H10.9193L12.0138 39.0844L12.7664 39.5144L12.4962 40H43.2161L42.8888 39.5338L43.6179 39.065Z" fill="black"/>
<path d="M24.4092 25.8262L27.4348 29.0847C26.9693 25.7767 27.6288 23.3767 28.0167 22.5902C29.1044 24.5495 28.9742 27.7363 28.7731 29.0847L31.7406 25.8262C31.3682 20.659 29.1028 17.1172 28.0167 15.9922C25.2238 18.6922 24.448 23.6732 24.4092 25.8262Z" fill="black"/>
<path fill-rule="evenodd" clip-rule="evenodd" d="M23.8603 26.8749C22.391 27.7869 18.8748 30.7764 16.5645 35.4378C18.7756 35.7586 24.1584 35.7014 28.0085 32.9089C31.8586 35.7014 37.2414 35.7586 39.4526 35.4378C37.1423 30.7764 33.6261 27.7869 32.1568 26.8749L29.7249 29.8643H33.4234C32.8155 30.675 30.9409 31.4181 30.0796 31.6884L32.1568 33.1578C30.9465 33.3595 28.8998 32.2729 28.0148 31.6965V31.6884C28.0127 31.6897 28.0106 31.6911 28.0085 31.6924C28.0064 31.6911 28.0044 31.6897 28.0023 31.6884V31.6965C27.1172 32.2729 25.0705 33.3595 23.8603 33.1578L25.9375 31.6884C25.0762 31.4181 23.2016 30.675 22.5936 29.8643H26.2921L23.8603 26.8749Z" fill="#009F4B"/>
</svg>
