<?xml version="1.0" encoding="UTF-8"?>
<!-- generated by Finnhub -->
<svg viewBox="0 0 55.5 55.5" xmlns="http://www.w3.org/2000/svg">
<path d="M0 0h55.5v55.5H0z" fill="rgb(239, 242, 248)"/>
<path d="m12.13 18.16 1.83.14c3.03.23 5.4.1 7.3-.26a5.52 5.52 0 0 0-.1 1.22c-1.89-.52-5.39-.46-8.46.11.42 2.18 1.98 5.4 3.79 7.14a6 6 0 0 0-1.03.7c-.64-1.8-1.71-3.9-3.43-6.37L11 19.34v18.33l15.56 9.2-.27-1.26c-.31-1.41-1.35-3.59-3.18-5.63l-.6-.64c.47-.14.9-.32 1.3-.55A13.88 13.88 0 0 0 28 45.74c2.2-2.47 3.76-4.81 4.19-6.82.4.23.83.41 1.3.55l-.6.64a13.62 13.62 0 0 0-3.18 5.63L29.44 47 45 37.8V19.48l-1.03 1.49a27.56 27.56 0 0 0-3.43 6.36 5.67 5.67 0 0 0-1.03-.69 14.42 14.42 0 0 0 3.92-7.43c-3.27-.64-5.83-.47-7.8.16 0-.45-.06-.91-.18-1.39a14.07 14.07 0 0 0 7.4.1l1.25-.4L28.23 9l-16.1 9.16Zm29.94 1.95c-2.84-.4-4.99-.12-6.59.5a6.68 6.68 0 0 1-.77 1.9c-1.01 1.71-2.66 3.02-3.94 3.75l-.98.56.13-1.11a7.57 7.57 0 0 1 3.24-5.13c.4-.28.83-.53 1.3-.75.08-.71-.01-1.46-.33-2.24a15.86 15.86 0 0 1-3.38-1.63c.35 1.1.4 2.2.27 3.24-.26 2-1.2 3.75-2 4.77l-.5.67-.43-.73c-1.89-3.22-1.98-6.03-1.46-8.07-.53.39-1.14.77-1.88 1.12-.65.3-1.4.58-2.25.8a4.33 4.33 0 0 0-.17 1.9c.6.25 1.12.54 1.58.86a6.97 6.97 0 0 1 3.06 4.94l.08.8-.79-.2a6.73 6.73 0 0 1-3.8-2.81 9.71 9.71 0 0 1-1.14-2.77c-1.48-.5-4.18-.59-6.93-.24.99 2.67 1.97 4.7 3.24 5.8 1.12-.36 2.22-.42 3-.42A6.78 6.78 0 0 1 25 27.46l.58.57-.74.33a7.18 7.18 0 0 1-5.88-.14 8.54 8.54 0 0 1-1.54-.92 5.08 5.08 0 0 0-1.58 1.1c.23.84.36 1.61.41 2.32.07.8.04 1.52-.04 2.16 1.53-1.46 4.05-2.79 7.82-2.79h.85l-.32.77a10.44 10.44 0 0 1-3.2 4.09 7.66 7.66 0 0 1-2.99 1.39c1.18.59 2.22 1.3 3.13 2.07a4.76 4.76 0 0 0 2.13-.83 8.5 8.5 0 0 1 0-1.5 7.56 7.56 0 0 1 2.9-5.32l.9-.67v1.12c0 1.46-.32 3.52-1.32 5.23a6.75 6.75 0 0 1-1.28 1.61c.26 1.74 1.26 3.64 3.2 5.93 1.77-2.18 2.9-4.16 3.14-5.8a6.75 6.75 0 0 1-1.28-1.6c-1-1.72-1.32-3.78-1.32-5.24v-1.12l.9.67a7.56 7.56 0 0 1 2.9 5.32c.04.48.04.98 0 1.5.58.41 1.29.71 2.13.83.91-.77 1.95-1.48 3.13-2.07a7.66 7.66 0 0 1-2.99-1.4 10.44 10.44 0 0 1-3.2-4.08l-.32-.77h.85c3.77 0 6.3 1.33 7.82 2.79a10.5 10.5 0 0 1-.04-2.16c.05-.71.18-1.48.41-2.33a4.44 4.44 0 0 0-1.58-1.09c-.51.38-1.03.69-1.54.92a7.18 7.18 0 0 1-5.88.14l-.74-.33.58-.57a6.78 6.78 0 0 1 4.37-1.84c.78 0 1.88.06 3 .41 1.32-1.14 2.64-3.23 3.7-6.05Zm-26.13-2.83c2.37.07 4.23-.12 5.71-.46.56-1.23 1.65-2.43 3.5-3.5 2.7-1.53 7.14-1.22 9.58 2.94l.23.42a15.7 15.7 0 0 0 6.11.62l-12.83-7.02-12.3 7Zm13.69-3.57c1.13 1 2.35 1.76 3.58 2.31a6 6 0 0 0-3.58-2.3Zm-5.37 2.24c1.48-.7 2.37-1.52 3.09-2.25-.6.12-1.14.32-1.62.6a7.96 7.96 0 0 0-2.5 2.08c.37-.14.71-.28 1.03-.43Zm4.25-1.7a5.96 5.96 0 0 1 1.38 4.81 9.2 9.2 0 0 1-1.25 3.5c-1.94-3.88-1.04-6.9-.13-8.3Zm-2.86 10.37c-.75-.37-1.66-1-2.2-1.93-.27-.45-.56-1-.78-1.62.21.11.4.24.6.36a6.07 6.07 0 0 1 2.38 3.2Zm8.4-3.29c-.1.21-.2.42-.32.62-.6 1-1.46 1.87-2.32 2.54a6.71 6.71 0 0 1 2.64-3.16Zm-19.47 6.81a23.89 23.89 0 0 0-2.58-5.1v14l12.72 7.44a14.35 14.35 0 0 0-3.6-4.9h-.49c-4.87 0-7.36-3.63-7.36-6.7 0-2.11.51-3.65 1.31-4.74Zm1.26 8.37c1.45.47 2.72 1.13 3.82 1.9a6.03 6.03 0 0 1-3.82-1.9Zm-1.15-1.95a9.99 9.99 0 0 0 .29-4.85c-.36.8-.58 1.84-.58 3.17 0 .55.1 1.12.3 1.68Zm5.98-.5a6.17 6.17 0 0 1-4.91 1.22c.79-1.48 2.98-3.76 7.35-4.04-.52.92-1.34 2-2.44 2.82Zm-.04-7.32c1.09 0 2.1.46 2.8.92a6.24 6.24 0 0 1-4.6-.77c.65-.12 1.28-.15 1.8-.15Zm4.5 9.15c-.12.2-.25.4-.38.58 0-.1 0-.19.02-.28.14-1.5.74-2.7 1.43-3.55a9.08 9.08 0 0 1-1.07 3.25Zm16.29-7.62a23.9 23.9 0 0 1 2.58-5.1v14L31.28 44.6a14.35 14.35 0 0 1 3.6-4.9h.49c4.87 0 7.36-3.63 7.36-6.7 0-2.11-.51-3.65-1.31-4.74Zm-1.26 8.37a14.4 14.4 0 0 0-3.82 1.9 6.03 6.03 0 0 0 3.82-1.9Zm1.15-1.95a9.99 9.99 0 0 1-.29-4.85c.36.8.58 1.84.58 3.17 0 .55-.1 1.12-.3 1.68Zm-5.98-.5a6.17 6.17 0 0 0 4.91 1.22c-.79-1.48-2.98-3.76-7.35-4.04.52.92 1.34 2 2.44 2.82Zm.04-7.32c-1.09 0-2.1.46-2.8.92a6.24 6.24 0 0 0 4.6-.77c-.65-.12-1.28-.15-1.8-.15Zm-4.5 9.15c.12.2.25.4.38.58 0-.1 0-.19-.02-.28a6.65 6.65 0 0 0-1.43-3.55 9.08 9.08 0 0 0 1.07 3.25Z" fill="url(#a)" fill-rule="evenodd"/>
<defs>
<linearGradient id="a" x1="28" x2="28" y1="9" y2="47" gradientUnits="userSpaceOnUse">
<stop stop-color="rgb(83, 172, 123)" offset="0"/>
<stop stop-color="rgb(1, 108, 47)" offset="1"/>
</linearGradient>
</defs>
</svg>
