<?xml version="1.0" encoding="UTF-8"?>
<!-- generated by Finnhub -->
<svg viewBox="0 0 55.5 55.5" xmlns="http://www.w3.org/2000/svg">
<path d="M 0,0 H 55.5 V 55.5 H 0 Z" fill="rgb(239, 242, 248)"/>
<path d="M 32.1,43.455 A 16,16 0 0,0 42,20.23 C 40.82,20.75 38.78,21.62 37.58,22.12 C 38.13,22.67 39.01,24.44 39.01,27.18 C 39.01,30.6 37.17,37.85 28.69,40.03 C 28.09,41.11 29.84,42.37 32.12,43.47 Z" fill="rgb(148, 18, 29)"/>
<path d="M 19.52,41.565 A 16.01,16.01 0 0,1 12.28,30.98 L 16.51,18.84 L 27.73,13.37 L 35.8,17.2 C 34.2,16.75 31.85,16.38 28.55,16.38 C 20.62,16.38 17,23.53 17,27.5 C 17,30.67 19.38,33.74 20.34,34.84 L 19.53,41.58 Z M 38.39,18.43 L 35.8,17.2 C 37.27,17.61 38.09,18.1 38.4,18.43 Z" fill="rgb(25, 17, 76)"/>
<path d="M 23.97,43.485 A 9.38,9.38 0 0,1 22,37.65 C 22.01,27.71 31.57,20.25 40.63,18.17 A 16,16 0 0,0 14.94,37.25 A 19.92,19.92 0 0,1 14,31.32 C 14,20.26 21.8,16 27,16 C 31.16,16 33.42,17.01 34.02,17.6 C 21.6,22.46 18.4,34.19 18.26,40.7 A 15.94,15.94 0 0,0 23.98,43.5 Z" fill="url(#a)"/>
<path d="M 27.99,43.985 A 16,16 0 0,0 43.89,26.1 C 42.05,37.28 34.21,39.98 30.32,39.9 C 29.46,39.21 28.27,37.08 28.27,34.02 C 28.27,26.8 36.02,20.98 40.17,18.97 C 25.13,24.17 24,33.77 24,37.61 A 10.5,10.5 0 0,0 26.28,43.91 C 26.85,43.97 27.42,44 28,44 Z" fill="rgb(223, 30, 30)"/>
<defs>
<linearGradient id="a" x1="12" x2="40.72" y1="27.84" y2="27.84" gradientUnits="userSpaceOnUse">
<stop stop-color="rgb(23, 114, 186)" offset="0"/>
<stop stop-color="rgb(35, 29, 98)" offset="1"/>
</linearGradient>
</defs>
</svg>
