<!-- by Finnhub --><svg width="56" height="56" viewBox="0 0 56 56" fill="none" xmlns="http://www.w3.org/2000/svg">
<rect width="56" height="56" fill="url(#paint0_linear_229_4950)"/>
<path d="M8.25977 23L9.73217 25.8433H9.79516L11.2833 23H13.4643L11.0313 27.5L13.5431 32H11.3069L9.79516 29.126H9.73217L8.2204 32H6L8.49992 27.5L6.06299 23H8.25977Z" fill="#EAB227"/>
<path d="M14 25V23H21V25H18.5V32H16.5V25H14Z" fill="#EAB227"/>
<path d="M22 32V23H25.3055C25.9091 23 26.4301 23.1216 26.8684 23.3647C27.3094 23.605 27.6492 23.9507 27.8881 24.4019C28.1269 24.8501 28.2463 25.3818 28.2463 25.9971C28.2463 26.6211 28.1243 27.1514 27.8802 27.5879C27.6361 28.0215 27.2897 28.3525 26.8409 28.5811C26.3921 28.8066 25.8606 29 25.2464 29H23.1402V27H24.8842C25.7796 27 26.2765 26.8207 26.2765 25.9971C26.2765 25.1537 25.7515 25 24.8842 25H24V32H22ZM26.5141 27.8867L28.5219 32H26.396L24.4276 27.8867H26.5141Z" fill="#EAB227"/>
<path d="M31.0592 32H28.9648L31.6852 23H34.2796L37 32H34.9056L33.0119 25.2676H32.9489L31.0592 32ZM30.7797 28H35.1575V30H30.7797V28Z" fill="#EAB227"/>
<path fill-rule="evenodd" clip-rule="evenodd" d="M40 19H42V20.9999H43V19H45V21.0013C46.4364 21.0556 49.2252 21.8414 49.1988 24.5849C49.2655 25.4812 48.8717 27.3478 46.7624 27.6445C47.8526 27.8094 50.0265 28.7695 49.9998 31.2913C49.9697 34.1332 47.2272 34.8401 45 34.9744V37H43V34.9999H42V37H40V34.9999H37V33.9999H37.9065C37.9367 33.9969 37.971 33.9946 38.0085 33.9921C38.3576 33.9686 38.9759 33.9271 39 33.1456V22.7924C39.0222 22.4525 38.7324 22.0494 37.5843 21.9999H37V20.9999H40V19ZM41.5262 21.9999H44.1719C45.5526 21.9999 46.6719 23.1192 46.6719 24.4999C46.6719 25.8807 45.5526 26.9999 44.1719 26.9999H41.5262V21.9999ZM44.3776 28.3626H41.5262V33.9999H44.3776C45.9343 33.9999 47.1963 32.738 47.1963 31.1813C47.1963 29.6246 45.9343 28.3626 44.3776 28.3626Z" fill="#EAB227"/>
<defs>
<linearGradient id="paint0_linear_229_4950" x1="10.4178" y1="9.71163" x2="68.1465" y2="76.0166" gradientUnits="userSpaceOnUse">
<stop stop-color="#1A1E21"/>
<stop offset="1" stop-color="#06060A"/>
</linearGradient>
</defs>
</svg>
