<?xml version="1.0" encoding="UTF-8"?>
<!-- generated by Finnhub -->
<svg viewBox="0 0 55.5 55.5" xmlns="http://www.w3.org/2000/svg">
<path d="M 0,0 H 55.5 V 55.5 H 0 Z" fill="rgb(239, 242, 248)"/>
<path d="M 9.84,22.985 L 8.1,33 H 47.9 L 45.98,23 H 9.85 Z" fill="url(#b)"/>
<path d="M 8.16,32.605 L 8.1,33 H 47.9 L 45.98,23 L 45.07,24.14 L 28.2,27.44 L 9.08,31.82 L 8.17,32.62 Z" fill="rgb(139, 64, 3)"/>
<path d="M 10.66,23.985 L 9,32 H 47 L 45.17,24 H 10.67 Z" fill="url(#a)"/>
<path d="M 35.74,30.705 L 36.35,28.86 H 38.15 L 38.98,30.75 C 39.02,30.89 39.15,30.98 39.28,30.98 H 39.98 C 40.2,30.98 40.36,30.76 40.28,30.54 L 37.85,25.51 L 37.88,25.47 A 0.34,0.34 0 0,0 37.7,24.98 L 37.41,24.88 C 37.27,24.84 37.09,24.95 37.01,25.08 L 34.98,30.31 A 0.45,0.45 0 0,0 35.18,30.94 C 35.4,31.04 35.65,30.94 35.75,30.72 Z M 36.51,28.16 L 36.99,26.71 L 37.77,28.16 H 36.51 Z" fill="rgb(254, 205, 2)"/>
<path d="M 35.59,30.735 C 35.48,30.77 35.27,30.62 35.17,30.55 L 36.86,25.95 L 37.06,26.43 L 36.34,28.4 L 38.07,28.5 C 38.09,28.5 38.11,28.7 38.11,28.8 H 36.3 A 9.31,9.31 0 0,1 35.61,30.75 Z" fill="rgb(254, 253, 239)"/>
<path d="M 14.540000000000001,24.805 C 16.01,24.82 16.21,25.52 15.9,26.05 C 15.82,26.18 15.58,26.09 15.49,25.97 C 15.32,25.75 14.98,25.54 14.31,25.54 C 12.88,25.54 11.78,27.24 11.78,28.18 C 11.78,29.12 12.25,30.38 13.48,30.38 C 14.47,30.38 15.12,29.73 15.33,29.4 H 15.61 V 30.51 C 15.48,30.74 14.85,31.19 13.48,31.19 C 8.28,31.19 9.8,24.82 14.55,24.82 Z" fill="rgb(254, 197, 2)"/>
<path d="M 16.97,30.745 L 17.87,28.86 H 19.57 L 20.17,30.83 C 20.21,30.97 20.34,31.07 20.47,31.07 H 21.35 C 21.57,31.07 21.73,30.84 21.65,30.63 L 19.95,25.49 L 19.97,25.45 A 0.34,0.34 0 0,0 19.8,24.95 L 19.5,24.85 A 0.32,0.32 0 0,0 19.13,25.01 L 16.21,30.34 A 0.45,0.45 0 0,0 16.41,30.97 C 16.63,31.07 16.87,30.97 16.98,30.76 Z M 17.98,28.21 L 18.8,26.64 H 19.1 L 19.5,28.21 H 17.98 Z" fill="rgb(254, 202, 2)"/>
<path d="M 22.299999999999997,25.675 C 22.47,25.74 22.63,25.86 22.63,26.08 V 30.65 C 22.63,30.83 22.77,30.98 22.95,30.98 H 23.7 C 23.88,30.98 24.02,30.83 24.02,30.65 V 28.57 C 24.02,28.47 24.09,28.4 24.18,28.4 H 25.25 C 26.13,28.4 26.85,27.66 26.85,26.75 C 26.85,25.83 26.13,25.09 25.25,25.09 H 22.32 A 0.27,0.27 0 0,0 22.05,25.37 C 22.05,25.52 22.17,25.64 22.31,25.69 Z M 23.99,25.72 V 27.82 H 24.64 C 25.18,27.82 25.61,27.36 25.61,26.82 V 26.72 C 25.61,26.16 25.18,25.72 24.64,25.72 H 24 Z" fill="rgb(254, 201, 2)" fill-rule="evenodd"/>
<path d="M 28.68,30.884999999999998 H 27.9 A 0.33,0.33 0 0,1 27.58,30.57 V 25.83 A 0.25,0.25 0 0,0 27.33,25.57 H 27.06 A 0.23,0.23 0 0,1 26.84,25.34 C 26.84,25.21 26.94,25.11 27.06,25.11 H 28.69 C 28.87,25.11 29.01,25.26 29.01,25.44 V 30.57 C 29.01,30.75 28.87,30.9 28.69,30.9 Z M 30.6,25.64 L 30.26,26.11 A 0.22,0.22 0 0,1 29.98,26.18 A 0.24,0.24 0 0,1 29.88,25.84 L 30.24,25.23 C 30.29,25.13 30.4,25.07 30.51,25.07 H 34.73 C 34.86,25.07 34.97,25.14 35.03,25.26 L 35.28,25.81 C 35.33,25.93 35.29,26.07 35.18,26.14 A 0.24,0.24 0 0,1 34.88,26.1 L 34.43,25.64 H 33.53 A 0.16,0.16 0 0,0 33.37,25.81 V 30.53 C 33.37,30.71 33.23,30.86 33.05,30.86 H 32.35 A 0.33,0.33 0 0,1 32.03,30.53 V 25.81 C 32.03,25.71 31.96,25.64 31.87,25.64 H 30.6 Z" fill="rgb(254, 202, 1)"/>
<path d="M 40.6,25.605 H 40.13 A 0.26,0.26 0 0,1 39.88,25.37 C 39.87,25.22 39.98,25.09 40.13,25.09 H 41.6 C 41.75,25.09 41.89,25.21 41.91,25.37 L 42.74,30.12 C 42.75,30.2 42.82,30.26 42.9,30.26 H 44.73 C 44.78,30.26 44.83,30.22 44.87,30.17 L 45.03,29.87 C 45.09,29.77 45.19,29.71 45.31,29.71 C 45.48,29.71 45.63,29.86 45.63,30.04 V 30.68 C 45.63,30.86 45.48,31.01 45.3,31.01 H 42.02 A 0.65,0.65 0 0,1 41.39,30.45 L 40.61,25.62 Z" fill="rgb(254, 202, 3)"/>
<path d="M 15.75,25.365 C 15.83,25.4 15.98,25.48 15.96,25.68 C 15.93,25.93 15.77,26.11 15.59,25.94 A 1.9,1.9 0 0,0 14.27,25.5 C 13.54,25.5 11.6,26.1 11.6,28.32 C 11.6,30.09 12.88,30.57 13.52,30.58 C 13.8,30.65 14.59,30.58 15.45,29.68 C 15.5,29.67 15.6,29.69 15.59,29.94 C 15.58,30.26 15.21,31.14 13.52,31.14 C 12.18,31.14 11.5,30.78 11.32,30.59 C 11.42,30.69 11.9,30.84 13.16,30.77 C 12.55,30.67 11.32,30.05 11.32,28.32 C 11.32,26.58 12.84,25.54 13.6,25.24 L 15.76,25.38 Z" fill="rgb(254, 254, 188)"/>
<path d="M 14.26,25.205 C 14.52,25.23 15.09,25.32 15.35,25.6 L 15.58,25.86 C 15.71,26.02 15.74,26.06 15.74,25.92 A 0.4,0.4 0 0,0 15.66,25.67 C 15.64,25.64 15.62,25.62 15.64,25.6 L 15.82,25.44 C 15.93,25.35 15.38,24.94 14.48,24.94 C 13.58,24.94 10.46,25.52 10.32,28.71 C 10.32,29.21 10.62,30.31 11.74,30.68 C 11.35,30.44 10.57,29.74 10.57,28.82 C 10.59,27.7 11.37,25.45 14.27,25.22 Z M 15.41,29.52 A 2.24,2.24 0 0,1 13.43,30.59 C 12.27,30.59 11.67,29.69 11.51,29.24 C 11.57,29.77 12.02,30.82 13.45,30.82 S 15.38,30.19 15.45,29.88 C 15.48,29.76 15.52,29.52 15.41,29.52 Z" fill="rgb(161, 87, 2)"/>
<path d="M 20.43,30.945 C 20.3,30.96 20.28,30.77 20.28,30.68 L 21.28,30.63 L 19.64,25.45 C 19.62,25.4 19.58,25.27 19.62,25.23 C 19.68,25.17 19.97,25.21 19.97,25.33 C 19.97,25.43 19.89,25.48 19.85,25.49 C 20.38,27.13 21.47,30.46 21.55,30.63 C 21.65,30.79 21.47,30.92 21.37,30.96 H 20.44 Z" fill="rgb(254, 254, 216)"/>
<path d="M 16.439999999999998,30.685 C 16.35,30.72 16.29,30.6 16.28,30.55 L 19.32,25 C 19.44,25.02 19.72,25.05 19.8,25.1 C 19.9,25.15 19.9,25.34 19.5,25.4 C 19.17,25.43 18.94,25.9 18.87,26.13 H 19.24 L 20.49,30.76 H 20.28 L 19.58,28.56 H 17.92 L 17.97,28.41 H 19.57 L 19.07,26.43 H 18.79 A 67.65,67.65 0 0,1 16.45,30.7 Z" fill="rgb(155, 88, 2)"/>
<path d="M 16.779999999999998,30.775 C 16.71,30.82 16.5,30.75 16.41,30.71 L 18.82,26.35 V 26.57 L 17.94,28.25 L 17.87,28.5 H 19.47 L 19.6,28.84 H 17.78 C 17.48,29.48 16.87,30.76 16.79,30.79 Z" fill="rgb(254, 254, 216)"/>
<path d="M 25.119999999999997,25.235 H 22.28 C 22.44,25.25 22.67,25.55 22.76,25.69 V 30.65 L 22.94,30.57 V 25.41 C 22.99,25.36 23.34,25.29 24.32,25.38 C 25.31,25.48 25.62,26.35 25.65,26.78 C 25.65,28.12 24.25,27.88 24.01,27.86 C 23.82,27.85 23.72,28.02 23.69,28.1 H 24.59 C 25.05,28.1 25.91,27.58 25.91,26.78 C 25.91,26.13 25.33,25.62 25.04,25.44 C 25.77,25.5 26.34,25.94 26.55,26.15 C 26.19,25.43 25.45,25.25 25.13,25.25 Z" fill="rgb(167, 99, 0)"/>
<path d="M 23.689999999999998,27.745 V 25.4 C 24.1,25.37 24.94,25.45 25.36,25.96 C 25.44,26.03 25.47,26.1 25.49,26.15 A 1.1,1.1 0 0,0 25.36,25.96 C 25.21,25.82 24.91,25.68 24.39,25.68 H 23.97 V 27.76 H 23.7 Z M 24.64,28.11 C 25.8,28.11 26.44,27.14 26.61,26.65 V 26.17 C 26.69,26.45 26.76,26.98 26.27,27.68 C 25.77,28.38 24.33,28.26 24.13,28.26 C 23.97,28.26 23.89,28.36 23.87,28.42 V 30.64 C 23.87,30.76 23.62,30.87 23.27,30.87 C 22.99,30.87 22.86,30.71 22.82,30.64 H 23.72 V 28.1 H 24.64 Z M 28.7,30.62 V 25.42 C 28.66,25.35 27.97,25.38 27.82,25.38 C 27.67,25.38 27.64,25.71 27.59,25.62 C 27.54,25.52 27.26,25.52 27.11,25.48 C 26.99,25.45 26.99,25.32 27.01,25.25 L 28.28,25.22 C 28.7,25.22 28.84,25.36 28.86,25.42 V 30.55 C 28.86,30.75 28.59,30.81 28.29,30.81 C 28.05,30.81 27.91,30.68 27.87,30.62 H 28.71 Z" fill="rgb(254, 253, 239)"/>
<path d="M 28.65,25.224999999999998 H 26.93 C 27.42,25.24 27.65,25.55 27.7,25.71 V 30.64 H 27.87 L 27.81,25.42 H 28.63 C 28.78,25.42 28.71,25.3 28.66,25.24 Z M 30.1,26.04 C 30.05,26.06 29.97,25.99 29.94,25.94 L 30.39,25.21 H 34.71 C 34.87,25.4 35.16,25.79 35.14,25.91 C 35.11,26.01 35,26.02 34.94,26.01 L 34.5,25.38 H 32.33 L 32.53,29.31 C 32.55,29.75 32.59,30.63 32.53,30.65 C 32.47,30.67 32.38,30.61 32.33,30.58 C 32.27,29.07 32.13,25.98 32.13,25.71 C 32.15,25.45 31.98,25.38 31.9,25.38 H 30.58 A 4.7,4.7 0 0,1 30.1,26.04 Z" fill="rgb(167, 99, 0)"/>
<path d="M 30.279999999999998,26.015 C 30.24,26.06 30.12,26.02 30.07,25.99 L 30.49,25.48 H 31.3 C 31.58,25.48 32.14,25.51 32.14,25.58 C 32.14,25.66 31.99,25.65 31.92,25.64 H 30.58 C 30.51,25.76 30.34,26 30.29,26.03 Z M 33.14,30.62 C 33.08,30.68 32.64,30.65 32.42,30.62 C 32.42,30.71 32.6,30.79 32.93,30.76 C 33.2,30.75 33.28,30.61 33.29,30.54 V 25.62 C 33.53,25.62 34.04,25.64 34.18,25.62 C 34.35,25.59 34.59,25.72 34.58,25.65 C 34.58,25.59 34.5,25.53 34.47,25.5 H 33.07 L 33.14,28.32 C 33.17,29.06 33.21,30.56 33.14,30.62 Z" fill="rgb(254, 253, 239)"/>
<path d="M 36.99,25.384999999999998 L 35.08,30.42 C 35.08,30.65 35.26,30.7 35.34,30.69 L 36.92,26.19 L 37.87,28.23 C 37.42,28.25 36.48,28.29 36.33,28.28 C 36.17,28.28 36.2,28.46 36.23,28.56 C 36.79,28.57 37.93,28.59 38.05,28.56 C 38.16,28.52 38.18,28.43 38.18,28.4 C 37.86,27.7 37.2,26.26 37.14,26.1 A 1.24,1.24 0 0,1 37.14,25.57 C 37.4,25.39 37.84,25.04 37.55,25.07 C 37.26,25.11 37.06,25.3 37,25.4 Z" fill="rgb(167, 99, 0)"/>
<path d="M 37.550000000000004,25.435 C 37.5,25.35 37.58,25.22 37.63,25.17 C 37.68,25.17 37.78,25.19 37.81,25.24 C 37.83,25.3 37.8,25.44 37.78,25.49 C 38.58,27.15 40.19,30.49 40.25,30.57 C 40.31,30.67 40.16,30.8 40.1,30.83 C 40.04,30.85 39.27,30.82 39.2,30.73 C 39.16,30.64 39.3,30.64 39.38,30.65 C 39.57,30.65 39.98,30.64 40.04,30.57 A 87.3,87.3 0 0,0 37.56,25.45 Z" fill="rgb(254, 253, 239)"/>
<path d="M 39.13,30.685 L 38.13,28.74 C 38.13,28.61 38.28,28.59 38.35,28.59 C 38.69,29.28 39.37,30.65 39.35,30.71 C 39.31,30.76 39.19,30.73 39.14,30.71 Z" fill="rgb(167, 99, 0)"/>
<path d="M 41.830000000000005,25.575 C 41.81,25.39 41.7,25.34 41.64,25.34 C 41.88,26.8 42.35,29.79 42.41,30.01 C 42.46,30.24 42.66,30.36 42.76,30.39 L 42.68,30.19 L 41.84,25.59 Z" fill="rgb(254, 253, 239)"/>
<path d="M 42.510000000000005,30.224999999999998 V 30.26 C 42.56,30.34 42.82,30.46 43.68,30.46 C 44.88,30.46 44.94,30.17 45.19,30.01 C 45.39,29.87 45.41,30.03 45.39,30.13 C 44.94,30.83 43.14,30.63 42.86,30.63 C 42.64,30.63 42.55,30.4 42.52,30.26 V 30.24 Z M 40.08,25.24 C 39.98,25.26 40.02,25.34 40.05,25.37 L 40.67,25.51 L 41.6,30.61 C 41.6,30.67 41.7,30.63 41.74,30.61 L 40.91,25.37 C 41.15,25.38 41.63,25.4 41.68,25.37 C 41.72,25.34 41.7,25.26 41.68,25.22 C 41.19,25.22 40.19,25.22 40.08,25.24 Z" fill="rgb(167, 99, 0)"/>
<path d="M 45.31,30.615 H 41.67 L 41.96,30.93 C 42.95,30.94 44.96,30.95 45.13,30.93 C 45.29,30.92 45.33,30.73 45.32,30.63 Z" fill="rgb(254, 245, 140)"/>
<path d="M 45.54,30.294999999999998 C 45.55,30.14 45.48,29.99 45.45,29.99 A 0.96,0.96 0 0,0 45.28,30.24 C 45.28,30.29 45.24,30.76 45.34,30.78 C 45.44,30.8 45.54,30.48 45.54,30.31 Z" fill="rgb(254, 253, 239)"/>
<defs>
<linearGradient id="b" x1="23.29" x2="6.93" y1="20.95" y2="32.86" gradientUnits="userSpaceOnUse">
<stop stop-color="rgb(254, 206, 53)" offset="0"/>
<stop stop-color="rgb(254, 200, 52)" stop-opacity=".44" offset=".56"/>
<stop stop-color="rgb(223, 170, 102)" offset=".64"/>
<stop stop-color="rgb(221, 177, 104)" offset="1"/>
</linearGradient>
<linearGradient id="a" x1="10.91" x2="46.25" y1="35.81" y2="22.66" gradientUnits="userSpaceOnUse">
<stop stop-color="rgb(208, 131, 24)" offset="0"/>
<stop stop-color="rgb(209, 153, 19)" offset=".2"/>
<stop stop-color="rgb(209, 133, 24)" offset=".37"/>
<stop stop-color="rgb(241, 191, 15)" offset=".57"/>
<stop stop-color="rgb(203, 127, 24)" offset=".86"/>
<stop stop-color="rgb(208, 131, 24)" offset="1"/>
</linearGradient>
</defs>
</svg>
