<?xml version="1.0" encoding="UTF-8"?>
<!-- generated by Finnhub -->
<svg viewBox="0 0 55.5 55.5" xmlns="http://www.w3.org/2000/svg">
<path d="M 0,0 H 55.5 V 55.5 H 0 Z" fill="rgb(239, 242, 248)"/>
<path d="M 8.99,21.985 H 8.86 C 8.83,22.2 8.73,22.43 8.53,22.43 C 8.39,22.43 8.19,22.32 8.07,22.27 A 2.82,2.82 0 0,0 6.9,22 C 5.4,22 4.1,23.32 4,25 C 3.92,26.74 5.27,28 6.97,28 C 7.6,28 8.42,27.72 9,27.03 V 26.52 C 8.52,27.16 7.62,27.65 6.97,27.58 C 6,27.48 5,26.78 5,25 C 5,23.43 6.12,22.38 7.16,22.38 C 8.02,22.38 8.69,23.08 8.86,24 H 9 V 22 Z M 11.3,25 H 13.4 V 26.9 C 13.4,27.61 13.4,27.84 12.65,27.84 V 28 H 15.18 V 27.84 C 14.44,27.84 14.44,27.61 14.44,26.89 V 23.11 C 14.44,22.39 14.44,22.16 15.18,22.16 V 22 H 12.65 V 22.16 C 13.39,22.16 13.39,22.39 13.39,23.11 V 24.63 H 11.31 V 23.1 C 11.31,22.38 11.26,22.15 12,22.15 V 22 H 9.52 V 22.16 C 10.26,22.16 10.26,22.39 10.26,23.11 V 26.89 C 10.26,27.61 10.26,27.84 9.52,27.84 V 28 H 12 V 27.84 C 11.26,27.84 11.3,27.61 11.3,26.89 V 25 Z M 19.28,22.16 C 19.98,22.16 20.01,22.44 20.01,23.17 V 25.81 C 20.01,26.61 19.71,27.57 18.71,27.57 C 17.81,27.57 17.57,26.95 17.57,26.29 V 23.1 C 17.57,22.38 17.57,22.15 18.31,22.15 V 22 H 15.78 V 22.16 C 16.53,22.16 16.53,22.39 16.53,23.11 V 25.99 C 16.53,27.3 17,28 18.31,28 C 20.13,28 20.34,26.57 20.34,25.74 V 23.17 C 20.34,22.44 20.37,22.16 21.07,22.16 V 22 H 19.27 V 22.16 Z M 23.3,22.34 H 23.8 C 24.53,22.34 25,22.72 25,23.64 C 25,24.37 24.6,24.89 23.68,24.89 H 23.31 V 22.34 Z M 23.3,25.19 H 23.65 L 25.33,28 H 26.97 V 27.84 C 26.67,27.84 26.55,27.66 26.35,27.34 L 25,25.09 A 1.47,1.47 0 0,0 26.18,23.65 C 26.18,22.51 25.41,22 24.23,22 H 21.53 V 22.16 C 22.26,22.16 22.26,22.39 22.26,23.11 V 26.89 C 22.26,27.61 22.26,27.84 21.52,27.84 V 28 H 24.05 V 27.84 C 23.31,27.84 23.31,27.61 23.31,26.89 V 25.19 Z M 41,23.1 C 41,22.39 41,22.16 41.74,22.16 V 22 H 39.26 V 22.16 C 40,22.16 40,22.39 40,23.11 V 26.89 C 40,27.61 40,27.84 39.26,27.84 V 28 H 41.74 V 27.84 C 41,27.84 41,27.61 41,26.89 V 23.11 Z M 47.12,26 H 46.96 C 46.51,27.52 45.94,27.66 44.91,27.66 C 44.09,27.66 44,27.66 44,26.76 V 23.11 C 44,22.39 44.03,22.16 44.83,22.16 V 22 H 42.25 V 22.16 C 42.99,22.16 43,22.39 43,23.11 V 26.89 C 43,27.61 42.99,27.84 42.25,27.84 V 28 H 46.92 L 47.12,26 Z M 52,26 H 51.85 C 51.42,27.56 50.84,27.66 49.85,27.66 C 49.05,27.66 49,27.66 49,26.74 V 23.14 C 49,22.4 49,22.16 49.77,22.16 V 22 H 47.3 V 22.16 C 48,22.16 48,22.4 48,23.13 V 26.86 C 48,27.6 48,27.84 47.3,27.84 V 28 H 51.81 L 52,26 Z"/>
<path d="M 44.97,33.985 H 44.83 C 44.4,35.56 43.82,35.66 42.83,35.66 C 42.03,35.66 42,35.66 42,34.74 V 31.14 C 42,30.4 41.99,30.16 42.75,30.16 V 30 H 40.28 V 30.16 C 40.98,30.16 41,30.4 41,31.13 V 34.86 C 41,35.6 40.99,35.84 40.28,35.84 V 36 H 44.79 L 44.99,34 Z" fill="rgb(75, 158, 198)"/>
<path d="M 34.550000000000004,24.985 H 36.65 V 26.87 C 36.65,27.6 36.65,27.84 35.9,27.84 V 28 H 38.43 V 27.84 C 37.69,27.84 37.69,27.6 37.69,26.87 V 23.13 C 37.69,22.4 37.69,22.16 38.43,22.16 V 22 H 35.9 V 22.16 C 36.65,22.16 36.65,22.4 36.65,23.13 V 24.63 H 34.55 V 23.13 C 34.55,22.4 34.55,22.16 35.3,22.16 V 22 H 32.77 V 22.16 C 33.52,22.16 33.52,22.4 33.52,23.13 V 26.87 C 33.52,27.6 33.52,27.84 32.77,27.84 V 28 H 35.3 V 27.84 C 34.56,27.84 34.56,27.6 34.56,26.87 V 25 Z M 32,22 H 31.86 C 31.83,22.2 31.73,22.43 31.53,22.43 C 31.39,22.43 31.19,22.32 31.07,22.27 A 2.82,2.82 0 0,0 29.9,22 C 28.4,22 27.08,23.32 27,25 C 26.91,26.74 28.27,28 29.97,28 C 30.67,28 31.42,27.72 32,27.03 V 26.52 C 31.5,27.19 30.63,27.65 29.97,27.58 C 29,27.48 28,26.78 28,25 C 28,23.43 29.12,22.38 30.16,22.38 C 31.02,22.38 31.69,23.08 31.86,24 H 32 V 22 Z"/>
<path d="M 15.85,29.985 H 16 V 32 H 15.86 C 15.69,31.08 14.98,30.38 14.11,30.38 C 13.06,30.38 12,31.44 12,33 C 12,34.78 12.96,35.47 13.94,35.58 C 14.81,35.68 15.48,35.2 16,34.53 V 35.03 A 2.5,2.5 0 0,1 13.94,36 C 12.22,36 10.91,34.73 11,33 C 11.09,31.34 12.33,30 13.85,30 A 2.95,2.95 0 0,1 15.09,30.33 C 15.21,30.38 15.38,30.46 15.49,30.46 C 15.7,30.46 15.83,30.2 15.86,30 Z M 19.56,34.3 L 19.89,35.2 L 19.9,35.25 C 19.94,35.35 19.96,35.42 19.96,35.55 C 19.96,35.84 19.58,35.84 19.36,35.84 V 36 H 21.62 V 35.84 C 21.22,35.84 21.03,35.34 20.89,34.96 L 20.87,34.89 L 19,30 H 18.93 L 17.17,34.58 L 17.11,34.72 C 16.94,35.19 16.71,35.8 16.25,35.84 V 36 H 18 V 35.84 C 17.62,35.81 17.27,35.77 17.27,35.34 C 17.27,35.18 17.33,35.02 17.4,34.82 L 17.41,34.78 L 17.59,34.3 H 19.55 Z M 19.44,33.97 H 17.72 L 18.68,31.41 L 19.44,33.97 Z M 24,30.34 H 24.2 C 24.88,30.34 25.3,30.81 25.3,31.59 C 25.3,32.39 24.93,32.93 24.21,32.93 H 24 V 30.34 Z M 24,33.27 H 24.46 C 26.01,33.27 26.54,32.47 26.54,31.61 C 26.54,30.54 25.74,30 24.65,30 H 22.28 V 30.16 C 22.99,30.16 23,30.4 23,31.13 V 34.87 C 23,35.6 23,35.84 22.28,35.84 V 36 H 24.77 V 35.84 C 24.05,35.84 24,35.6 24,34.87 V 33.27 Z M 29.72,30.17 C 29,30.17 29,30.4 29,31.13 V 34.87 C 29,35.6 29,35.84 29.72,35.84 V 36 H 27.28 V 35.84 C 28,35.84 28,35.6 28,34.87 V 31.13 C 28,30.4 28,30.16 27.28,30.16 V 30 H 29.72 V 30.16 Z M 33.4,30.34 C 33.98,30.34 34.3,30.54 34.5,31.59 H 34.64 V 30 H 30.36 V 31.61 H 30.5 C 30.7,30.56 31.02,30.34 31.6,30.34 H 32 V 34.92 C 32,35.62 32,35.84 31.3,35.84 V 36 H 33.7 V 35.85 C 33,35.85 33,35.63 33,34.93 V 30.34 H 33.4 Z M 38.05,35.2 L 37.71,34.26 H 35.81 L 35.63,34.74 C 35.56,34.95 35.49,35.17 35.49,35.34 C 35.49,35.77 35.78,35.81 36.16,35.84 V 36 H 34.48 V 35.84 C 34.94,35.8 35.16,35.18 35.33,34.71 L 35.4,34.54 L 37.16,30 H 37.23 L 39.09,34.85 L 39.12,34.95 C 39.26,35.33 39.45,35.84 39.84,35.84 V 36 H 37.53 V 35.84 C 37.74,35.84 38.13,35.84 38.13,35.55 C 38.13,35.42 38.1,35.35 38.06,35.25 L 38.05,35.2 Z M 35.94,33.94 H 37.6 L 36.84,31.63 L 35.94,33.93 Z" fill="rgb(75, 158, 198)"/>
</svg>
