<!-- by Finnhub --><svg xmlns="http://www.w3.org/2000/svg" width="56" height="56" viewBox="0 0 56 56"><path fill="#F0F3FA" d="M0 0h56v56H0z"/><path d="M7.5 24.63L6.28 21H5v5h1v-3.34L7.16 26h.67L9 22.66V26h1v-5H8.71L7.5 24.63zM35 26v-1.76h.77c.54 0 .96-.14 1.27-.42.3-.29.46-.67.46-1.16 0-.33-.07-.61-.21-.87a1.43 1.43 0 0 0-.6-.58 1.9 1.9 0 0 0-.9-.21h-1.8v5H35zm.78-2.76H35V22h.8c.47 0 .74.2.74.6 0 .4-.26.64-.76.64zM13.28 25h-1.69l-.32 1h-1.02l1.74-5h.89l1.75 5H13.6l-.32-1zm-1.38-1h1.08l-.55-1.74L11.9 24zm8.8 1h1.69l.32 1h1.02L22 21h-.9l-1.73 5h1.02l.32-1zm1.38-1h-1.07l.53-1.74.54 1.74zM19 26h-1.01L16 22.71V26h-1v-5h1.01L18 24.3V21h1v5zm11.72-1h1.69l.32 1h1.02L32 21h-.89l-1.74 5h1.03l.32-1zm1.38-1h-1.07l.53-1.74.54 1.74zm14.18 1h-1.69l-.32 1h-1.02l1.74-5h.89l1.74 5H46.6l-.32-1zm-1.38-1h1.07l-.54-1.74L44.9 24zm-16.25 1.55c.35-.3.54-.71.58-1.24h-1c-.05.59-.57.69-.96.69-.4 0-1-.28-1-1.34v-.36c0-1.02.55-1.3 1-1.3.36 0 .91.09.96.72h1a1.85 1.85 0 0 0-.59-1.27 2 2 0 0 0-1.36-.45 1.85 1.85 0 0 0-1.78 1.1 2.9 2.9 0 0 0-.25 1.24v.3c0 .73.18 1.31.54 1.73.36.42.85.63 1.48.63.57 0 1.03-.15 1.38-.45zM39 26h-1v-5h1v5zm3-4h1.5v-1h-4v1H41v4h1v-4zm7 3h2v1h-3v-5h1v4zm-18.95 7.22c.13.1.19.25.19.44 0 .17-.06.3-.2.4-.12.1-.3.15-.53.15-.61 0-.92-.27-.92-.8h-.97c0 .3.08.58.23.82.16.24.39.43.68.57.3.13.62.2.98.2.52 0 .93-.12 1.24-.36.3-.24.46-.57.46-.99 0-.38-.13-.7-.38-.95a2.88 2.88 0 0 0-1.2-.64c-.3-.1-.52-.2-.67-.3a.5.5 0 0 1-.03-.8c.13-.1.3-.16.54-.16a.8.8 0 0 1 .57.19c.14.12.2.3.2.51h.97a1.43 1.43 0 0 0-.83-1.3 2.24 2.24 0 0 0-1.79-.02 1.4 1.4 0 0 0-.61.48c-.14.2-.21.44-.21.7 0 .5.26.9.8 1.2.19.12.45.23.79.34.33.11.56.22.69.32zm13.45-.61c0 .48-.08.9-.25 1.26-.16.36-.4.64-.7.84-.3.2-.65.29-1.04.29a1.91 1.91 0 0 1-1.75-1.12 2.95 2.95 0 0 1-.26-1.24v-.24c0-.48.08-.9.25-1.27.17-.36.4-.64.7-.84.31-.2.66-.29 1.05-.29a1.88 1.88 0 0 1 1.75 1.13c.17.37.25.79.25 1.26v.22zm-1-.22c0-.67-.16-1.39-1-1.39-.83 0-1 .71-1 1.37v.24c0 .67.17 1.39 1 1.39.84 0 1-.71 1-1.37v-.24zm-17.5.86V29h-1v3.1c0 .6-.22.9-.75.9a.8.8 0 0 1-.6-.22c-.14-.15-.15-.39-.15-.71V29h-1v3.29c0 .53.17.95.48 1.25.31.3.74.46 1.27.46.54 0 .97-.16 1.28-.47.31-.31.47-.74.47-1.28zm-4-.65a3 3 0 0 1-.21 1.18c-.14.33-.34.6-.6.8l.79.63-.62.59-1-.86-.1.02c-.08.02-.17.04-.25.04a1.93 1.93 0 0 1-1.76-1.14 2.92 2.92 0 0 1-.25-1.24v-.24c0-.47.08-.9.25-1.25.17-.37.4-.64.7-.84.31-.2.66-.29 1.05-.29a1.88 1.88 0 0 1 1.75 1.13c.17.36.25.78.25 1.25v.22zm-1-.22c0-.67-.16-1.38-1-1.38-.83 0-1 .7-1 1.36v.24c0 .66.17 1.4 1 1.4.84 0 1-.73 1-1.39v-.23zM9.34 33h1.7l.32 1h1.02l-1.75-5h-.9L8 34h1.02l.32-1zm1.39-1H9.65l.53-1.74.55 1.74zm5.83.31c-.03.53-.23.94-.58 1.24-.35.3-.81.45-1.38.45-.63 0-1.12-.2-1.48-.63-.36-.42-.54-1-.54-1.73v-.3c0-.46.08-.88.25-1.23A1.85 1.85 0 0 1 14.6 29a2 2 0 0 1 1.36.45c.35.3.55.72.6 1.27h-1c-.06-.63-.6-.72-.96-.72-.45 0-1 .28-1 1.3v.36c0 1.06.59 1.34.99 1.34s.91-.1.96-.69h1zM36.01 30h1.49v-1h-4v1h1.48v4H36v-4zM48 34h-1.01L45 30.71V34h-1v-5h1.01L47 32.3V29h1v5zm-22 0h1v-5h-1v5zm7 0h-1v-5h1v5zm5 0h1v-5h-1v5z"/></svg>