<?xml version="1.0" encoding="UTF-8"?>
<!-- generated by Finnhub -->
<svg viewBox="0 0 55.5 55.5" xmlns="http://www.w3.org/2000/svg">
<path d="M 0,0 H 55.5 V 55.5 H 0 Z" fill="rgb(239, 242, 248)"/>
<path d="M 42.910000000000004,22.185 A 0.2,0.2 0 0,1 42.79,22.13 A 0.06,0.06 0 0,0 42.73,22.11 C 42.71,22.11 42.7,22.13 42.71,22.15 A 16.87,16.87 0 0,1 42.81,33.26 A 16.03,16.03 0 0,1 37.78,40.28 C 37.53,40.48 37.28,40.65 37.03,40.8 C 36.9,40.88 36.7,41 36.45,41.18 A 9.35,9.35 0 0,1 34.63,42.18 A 14.55,14.55 0 0,1 30.43,43.48 C 30.01,43.55 29.39,43.58 28.57,43.59 L 27.65,43.61 A 9.76,9.76 0 0,1 25.6,43.48 A 16.4,16.4 0 0,1 18.5,40.44 A 15.88,15.88 0 0,1 14.74,36.34 A 0.22,0.22 0 0,0 14.57,36.23 A 0.2,0.2 0 0,0 14.39,36.31 C 14.38,36.33 14.37,36.37 14.38,36.43 A 15.92,15.92 0 0,1 13.25,21.84 A 15.77,15.77 0 0,1 18.69,15.01 A 15.93,15.93 0 0,1 26.23,12.11 A 15.86,15.86 0 0,1 42.93,22.2 Z" fill="rgb(105, 178, 177)"/>
<path d="M 26.709999999999997,13.415 L 26.63,13.45 C 25.73,13.5 25.16,13.55 24.93,13.64 L 22.45,14.48 C 22.16,14.58 21.77,14.78 21.29,15.09 L 20.97,15.3 C 20.05,15.62 19.31,16.07 18.75,16.65 L 17,18.44 C 16.78,18.66 16.74,18.92 16.89,19.2 C 17,19.42 17.15,19.76 17.32,20.22 A 20.43,20.43 0 0,0 19.51,24.15 C 19.57,24.22 19.59,24.32 19.57,24.43 C 19.2,25.26 18.95,26.13 18.8,27.03 A 4.13,4.13 0 0,0 17.59,25.45 A 9.1,9.1 0 0,0 15.89,24.41 C 15.79,24.36 15.69,24.37 15.59,24.46 C 14.96,25.09 14.65,25.86 14.67,26.8 C 14.54,26.77 14.47,26.89 14.47,27.14 C 14.47,27.3 14.4,27.38 14.25,27.39 H 13.98 C 13.81,27.41 13.75,27.49 13.82,27.66 C 13.94,27.99 14.14,28.16 14.4,28.16 C 14.46,28.16 14.49,28.18 14.5,28.24 L 14.61,29.16 L 15.34,31.16 L 15.13,30.76 C 14.9,30.34 14.73,30.04 14.58,29.86 A 2.6,2.6 0 0,0 13.76,29.13 C 13.7,29.1 13.69,29.05 13.7,28.99 C 13.8,28.57 13.73,28.19 13.5,27.84 C 13.2,25.21 13.9,22.6 15.56,20.02 A 14.56,14.56 0 0,1 26.6,13.22 C 26.65,13.22 26.7,13.24 26.72,13.29 C 26.74,13.34 26.74,13.39 26.72,13.43 Z" fill="rgb(183, 217, 222)"/>
<path d="M 39.050000000000004,18.035 C 39.01,18.05 38.97,18.09 38.96,18.19 L 38.67,17.89 C 38.55,17.77 38.33,17.78 38.04,17.92 A 20,20 0 0,0 36.45,18.76 C 36.31,18.85 36.09,18.94 35.8,19.03 L 35.49,19.15 A 1,1 0 0,1 35.84,18.58 C 35.91,18.53 35.94,18.47 35.94,18.38 A 0.23,0.23 0 0,0 35.84,18.19 C 35.74,18.12 35.65,18.03 35.58,17.94 C 35.43,17.76 35.48,17.68 35.7,17.69 C 35.87,17.7 36.03,17.68 36.17,17.62 C 36.23,17.6 36.27,17.56 36.28,17.5 A 0.17,0.17 0 0,0 36.25,17.34 C 36.07,17.14 35.74,16.96 35.23,16.82 C 35.03,16.77 34.87,16.72 34.77,16.68 C 34.71,16.65 34.65,16.67 34.6,16.72 A 0.2,0.2 0 0,0 34.55,16.92 C 34.57,16.99 34.61,17.04 34.67,17.07 A 0.5,0.5 0 0,0 34.87,17.13 C 34.95,17.13 34.99,17.18 35,17.26 C 35,17.41 34.96,17.54 34.86,17.64 C 34.79,17.72 34.71,17.72 34.63,17.66 C 34.4,17.49 34.2,17.53 34.03,17.8 C 33.85,18.08 33.66,18.36 33.47,18.62 A 0.3,0.3 0 0,0 33.42,18.84 C 33.42,18.88 33.44,18.91 33.49,18.92 C 33.53,18.94 33.56,18.92 33.59,18.89 C 33.63,18.85 33.66,18.79 33.68,18.74 A 0.2,0.2 0 0,1 33.8,18.62 C 33.91,18.58 33.98,18.52 34.01,18.41 A 0.21,0.21 0 0,1 34.15,18.26 C 34.3,18.21 34.39,18.1 34.42,17.93 C 34.42,17.9 34.44,17.89 34.47,17.88 H 34.54 C 34.6,17.88 34.62,17.9 34.6,17.95 C 34.48,18.25 34.31,18.46 34.09,18.58 C 34.02,18.61 34,18.67 34.04,18.74 C 34.16,18.93 34.13,19.1 33.96,19.27 A 0.15,0.15 0 0,0 33.93,19.44 C 33.96,19.51 34.03,19.54 34.14,19.54 C 34.01,19.54 33.94,19.6 33.92,19.73 L 33.05,18.83 A 0.27,0.27 0 0,1 32.97,18.67 C 32.92,18.24 33.07,17.9 33.4,17.62 C 33.5,17.54 33.5,17.44 33.41,17.35 L 33.34,17.28 C 33.26,17.2 33.19,17.2 33.12,17.3 C 32.87,17.7 32.75,18.12 32.76,18.57 C 32.76,18.65 32.73,18.67 32.66,18.65 A 3.09,3.09 0 0,1 32.27,18.46 A 0.17,0.17 0 0,0 32.12,18.44 A 0.16,0.16 0 0,0 32.02,18.54 C 32.01,18.58 32.02,18.64 32.05,18.7 L 30.85,16.74 A 0.22,0.22 0 0,0 30.71,16.64 A 3.33,3.33 0 0,0 29.17,16.57 L 29.21,15.92 C 29.21,15.87 29.19,15.82 29.15,15.79 A 0.15,0.15 0 0,0 29.01,15.76 C 28.87,15.8 28.71,15.81 28.55,15.79 C 28.42,15.77 28.42,15.73 28.52,15.66 C 28.72,15.53 28.98,15.5 29.27,15.56 L 29.4,15.55 C 29.5,15.5 29.56,15.45 29.58,15.37 C 29.59,15.29 29.56,15.23 29.48,15.19 A 0.68,0.68 0 0,0 29.1,15.14 C 29,15.15 28.96,15.11 29,15.01 A 0.76,0.76 0 0,1 29.29,14.67 C 29.37,14.62 29.37,14.55 29.29,14.49 L 29.23,14.43 C 29.13,14.34 29.06,14.35 28.99,14.46 C 28.75,14.82 28.54,15.06 28.36,15.21 C 28.11,15.4 27.79,15.51 27.4,15.55 C 27.34,15.56 27.3,15.6 27.28,15.66 L 27.26,15.74 C 27.24,15.8 27.26,15.83 27.33,15.82 L 27.79,15.77 C 27.82,15.77 27.85,15.77 27.87,15.81 C 27.89,15.84 27.89,15.87 27.87,15.9 C 27.7,16.21 27.64,16.58 27.71,17 C 27.52,17.18 27.37,17.4 27.27,17.65 C 26.9,17.29 26.79,16.91 26.94,16.5 C 26.96,16.44 26.97,16.39 26.94,16.36 C 26.92,16.32 26.87,16.29 26.8,16.29 C 26.85,16.11 26.87,15.94 26.86,15.77 C 26.96,15.68 26.97,15.58 26.92,15.48 A 0.57,0.57 0 0,0 26.49,15.21 L 25.86,13.65 C 25.84,13.6 25.86,13.56 25.92,13.55 L 26.63,13.45 L 26.72,13.43 C 27.87,13.34 29.02,13.37 30.16,13.51 C 30.45,13.55 30.86,13.63 31.42,13.77 C 32.02,13.92 32.46,14.01 32.76,14.04 C 33.28,14.08 33.69,14.19 34,14.34 L 35.8,15.27 C 36.18,15.47 36.7,15.83 37.36,16.37 C 37.7,16.64 37.96,16.85 38.16,16.98 C 38.36,17.13 38.66,17.48 39.06,18.05 Z" fill="rgb(120, 157, 199)"/>
<path d="M 26.619999999999997,13.434999999999999 L 25.92,13.55 C 25.86,13.56 25.84,13.6 25.86,13.65 L 26.49,15.21 C 26.42,15.34 26.43,15.47 26.51,15.61 C 26.59,15.77 26.71,15.82 26.86,15.77 C 26.87,15.94 26.86,16.11 26.8,16.29 A 0.5,0.5 0 0,0 26.57,16.3 C 26.5,16.33 26.48,16.37 26.5,16.44 L 26.79,17.51 C 26.82,17.62 26.78,17.68 26.66,17.68 C 26.51,17.68 26.36,17.7 26.2,17.75 C 26.15,17.77 26.13,17.81 26.13,17.86 V 17.94 C 26.13,18.04 26.19,18.08 26.28,18.07 C 26.68,17.99 27.1,17.97 27.52,18.02 C 28.02,18.06 28.42,18.19 28.71,18.39 C 29.15,18.69 29.62,18.73 30.14,18.51 C 30.57,18.31 30.56,18.21 30.08,18.17 C 29.13,18.1 28.19,17.93 27.28,17.65 C 27.38,17.4 27.52,17.18 27.71,17 C 27.73,17.16 27.77,17.3 27.84,17.44 C 27.88,17.5 27.93,17.52 27.99,17.5 A 1,1 0 0,1 28.59,17.5 C 28.65,17.53 28.71,17.57 28.75,17.62 C 28.82,17.72 28.91,17.77 29.02,17.77 C 29.11,17.77 29.15,17.73 29.15,17.64 V 16.79 A 6,6 0 0,0 30.09,17.09 C 30.38,17.16 30.55,17.22 30.61,17.29 C 30.79,17.52 30.95,17.75 31.09,18 C 31.22,18.22 31.28,18.5 31.29,18.8 C 31.29,19.16 31.29,19.53 31.31,19.9 C 30.57,19.72 29.89,19.53 29.27,19.31 A 4.84,4.84 0 0,0 27.43,19.29 C 27.13,19.24 26.72,19.27 26.21,19.39 C 25.21,19.61 24.35,19.91 23.61,20.29 A 7.8,7.8 0 0,0 20.91,22.29 L 17.88,18.59 C 17.84,18.54 17.84,18.5 17.9,18.47 C 18.9,17.87 19.99,17.43 21.14,17.14 L 21.54,17.59 C 21.58,17.64 21.58,17.69 21.54,17.75 L 21.18,18.26 A 0.17,0.17 0 0,0 21.16,18.46 L 21.29,18.63 C 21.36,18.72 21.41,18.8 21.44,18.87 C 21.64,19.37 21.68,19.84 21.58,20.27 C 21.56,20.37 21.59,20.39 21.68,20.35 A 0.26,0.26 0 0,0 21.78,20.24 L 21.98,19.86 C 22.06,19.7 22.18,19.66 22.34,19.71 C 22.4,19.73 22.46,19.71 22.51,19.67 C 22.56,19.63 22.58,19.57 22.57,19.51 A 2.7,2.7 0 0,0 22.22,18.41 A 0.13,0.13 0 0,0 22.12,18.34 A 0.13,0.13 0 0,0 22,18.39 A 0.53,0.53 0 0,1 21.7,18.59 C 21.61,18.61 21.57,18.57 21.58,18.47 C 21.61,18.27 21.71,18.12 21.89,18.03 A 0.2,0.2 0 0,1 22.11,18.06 L 22.73,18.56 C 22.78,18.61 22.81,18.66 22.81,18.73 V 19.23 C 22.81,19.32 22.83,19.33 22.89,19.26 A 0.7,0.7 0 0,0 23.07,18.91 C 23.08,18.85 23.12,18.82 23.17,18.83 A 0.7,0.7 0 0,1 23.54,18.97 C 23.6,19.01 23.66,19.03 23.73,19.03 H 24.61 C 24.75,19.04 24.8,18.97 24.74,18.84 A 3.05,3.05 0 0,0 24.14,17.92 C 24.04,17.82 24.01,17.85 24.04,17.98 C 24.09,18.18 24.15,18.37 24.24,18.56 C 24.29,18.66 24.26,18.72 24.15,18.74 A 1.1,1.1 0 0,1 23.2,18.45 A 0.21,0.21 0 0,1 23.12,18.32 L 23.02,17.75 A 0.15,0.15 0 0,0 22.9,17.61 A 0.15,0.15 0 0,0 22.73,17.67 C 22.67,17.75 22.68,17.86 22.76,17.99 C 22.79,18.02 22.79,18.05 22.79,18.09 C 22.79,18.11 22.77,18.13 22.75,18.14 A 0.06,0.06 0 0,1 22.67,18.14 L 22.31,17.84 A 0.12,0.12 0 0,1 22.27,17.69 C 22.36,17.47 22.3,17.32 22.11,17.24 A 0.37,0.37 0 0,1 22.06,16.94 C 22.25,16.93 22.31,16.84 22.26,16.68 C 22.22,16.55 22.08,16.52 21.86,16.59 L 20.96,15.3 L 21.29,15.1 C 21.77,14.78 22.16,14.57 22.45,14.48 L 24.94,13.64 C 25.16,13.56 25.73,13.5 26.63,13.45 Z" fill="rgb(148, 189, 215)"/>
<path d="M 29.16,16.555 L 29.15,16.79 V 17.64 C 29.15,17.73 29.11,17.77 29.02,17.77 C 28.92,17.77 28.82,17.72 28.75,17.62 A 0.32,0.32 0 0,0 28.58,17.5 A 1,1 0 0,0 27.99,17.5 C 27.93,17.52 27.88,17.5 27.84,17.44 A 1.07,1.07 0 0,1 27.71,17 C 27.64,16.58 27.7,16.21 27.87,15.9 A 0.08,0.08 0 0,0 27.87,15.8 A 0.08,0.08 0 0,0 27.79,15.77 L 27.33,15.82 C 27.27,15.82 27.24,15.8 27.26,15.74 L 27.28,15.66 C 27.3,15.6 27.34,15.56 27.4,15.56 C 27.8,15.51 28.11,15.4 28.36,15.21 C 28.54,15.07 28.75,14.81 28.99,14.46 C 29.06,14.36 29.14,14.34 29.23,14.43 L 29.3,14.49 C 29.37,14.55 29.37,14.62 29.29,14.67 C 29.15,14.77 29.06,14.87 29,15.01 C 28.96,15.11 29,15.15 29.1,15.14 A 0.7,0.7 0 0,1 29.48,15.19 C 29.56,15.23 29.59,15.29 29.58,15.37 C 29.56,15.44 29.51,15.5 29.4,15.55 A 0.22,0.22 0 0,1 29.27,15.55 A 0.96,0.96 0 0,0 28.52,15.66 C 28.42,15.73 28.42,15.77 28.55,15.79 C 28.71,15.81 28.87,15.79 29.01,15.76 C 29.06,15.74 29.11,15.76 29.15,15.79 C 29.19,15.82 29.21,15.87 29.21,15.92 L 29.17,16.57 Z" fill="rgb(39, 44, 66)"/>
<path d="M 28.169999999999998,14.825 C 27.98,15.17 27.81,15.25 27.65,15.08 A 0.18,0.18 0 0,1 27.6,14.88 A 0.18,0.18 0 0,1 27.75,14.76 L 28.08,14.7 C 28.22,14.67 28.25,14.72 28.18,14.84 Z" fill="rgb(39, 44, 66)"/>
<path d="M 26.849999999999998,15.754999999999999 C 26.71,15.82 26.59,15.77 26.51,15.62 C 26.43,15.47 26.41,15.34 26.48,15.22 C 26.68,15.24 26.83,15.33 26.92,15.48 C 26.97,15.58 26.95,15.68 26.86,15.78 Z" fill="rgb(15, 45, 51)"/>
<path d="M 20.959999999999997,15.285 L 21.85,16.6 C 21.75,16.7 21.75,16.8 21.85,16.91 C 21.89,16.95 21.95,16.97 22.06,16.95 C 22.04,17.06 22.06,17.15 22.11,17.25 C 21.75,17.38 21.4,17.17 21.06,16.63 C 21.02,16.58 20.98,16.57 20.94,16.6 L 20.88,16.64 C 20.83,16.68 20.82,16.73 20.85,16.79 C 20.91,16.9 21,17.02 21.15,17.14 C 19.99,17.43 18.91,17.87 17.9,18.47 C 17.84,18.5 17.84,18.54 17.88,18.59 L 20.91,22.29 C 20.75,22.65 20.71,22.99 20.81,23.3 A 0.34,0.34 0 0,0 20.72,23.43 L 20.67,23.48 C 20.56,23.51 20.48,23.49 20.45,23.43 A 0.16,0.16 0 0,0 20.28,23.33 A 0.16,0.16 0 0,0 20.13,23.46 C 20,23.86 19.84,24.22 19.66,24.54 A 0.16,0.16 0 0,0 19.57,24.44 A 0.38,0.38 0 0,0 19.51,24.14 C 18.82,23.19 18.21,22.17 17.7,21.11 C 17.6,20.91 17.48,20.61 17.32,20.21 A 9.68,9.68 0 0,0 16.89,19.21 C 16.74,18.91 16.78,18.66 17,18.44 L 18.75,16.64 A 5.58,5.58 0 0,1 20.97,15.3 Z" fill="rgb(130, 180, 205)"/>
<path d="M 28.349999999999998,16.845 A 0.49,0.49 0 0,1 28.43,16.49 C 28.46,16.44 28.45,16.39 28.4,16.36 C 28.33,16.3 28.31,16.23 28.35,16.15 C 28.42,16.02 28.5,16.01 28.59,16.11 C 28.79,16.32 28.83,16.69 28.74,17.21 C 28.74,17.24 28.72,17.25 28.69,17.26 C 28.67,17.27 28.65,17.26 28.63,17.25 C 28.49,17.11 28.35,17.11 28.2,17.23 C 28.14,17.28 28.1,17.26 28.07,17.19 L 28.05,17.09 C 28.03,17.05 28.05,17.01 28.09,16.99 A 0.49,0.49 0 0,1 28.29,16.95 C 28.35,16.95 28.38,16.92 28.36,16.86 Z" fill="rgb(167, 184, 197)"/>
<path d="M 33.59,16.645 C 33.64,16.86 33.76,17.02 33.87,17 C 33.97,16.98 34.03,16.79 33.99,16.58 C 33.95,16.37 33.83,16.21 33.72,16.24 C 33.62,16.26 33.56,16.44 33.6,16.66 Z M 26.8,16.29 C 26.87,16.29 26.92,16.32 26.95,16.36 C 26.97,16.39 26.96,16.44 26.94,16.5 C 26.79,16.9 26.9,17.29 27.27,17.65 C 28.19,17.93 29.13,18.1 30.07,18.17 C 30.56,18.21 30.57,18.32 30.14,18.51 A 1.4,1.4 0 0,1 28.71,18.39 A 2.5,2.5 0 0,0 27.51,18.02 A 4.45,4.45 0 0,0 26.28,18.07 C 26.18,18.08 26.14,18.04 26.13,17.94 V 17.86 C 26.13,17.81 26.15,17.77 26.2,17.76 C 26.36,17.7 26.5,17.68 26.66,17.68 C 26.78,17.68 26.82,17.62 26.79,17.51 L 26.49,16.44 C 26.48,16.37 26.5,16.33 26.57,16.3 A 0.5,0.5 0 0,1 26.8,16.29 Z" fill="rgb(39, 44, 66)"/>
<path d="M 32.04,18.685 C 32.33,18.85 32.6,19 32.86,19.16 C 33.46,19.52 33.85,19.96 34.06,20.46 C 34.2,20.81 34.61,21.06 35.26,21.2 A 0.1,0.1 0 0,0 35.36,21.18 A 0.1,0.1 0 0,0 35.38,21.08 A 0.55,0.55 0 0,0 35.15,20.75 C 34.7,20.45 34.29,20.1 33.92,19.73 C 33.94,19.6 34.02,19.53 34.14,19.54 C 34.34,19.64 34.49,19.81 34.62,20.03 C 34.65,20.09 34.7,20.11 34.77,20.09 C 34.87,20.07 34.95,19.97 35.04,19.78 C 35.06,19.83 35.08,19.87 35.1,19.88 C 35.13,19.9 35.15,19.9 35.17,19.88 A 25.24,25.24 0 0,1 38.57,18.15 A 0.15,0.15 0 0,0 38.67,18.01 V 17.9 L 38.96,18.19 A 14.96,14.96 0 0,1 42.42,29.96 C 42.38,30.31 42.2,31.11 41.87,32.36 A 1.9,1.9 0 0,0 40.87,31.6 C 40.8,31.59 40.77,31.55 40.79,31.49 L 41.23,28.92 C 41.37,28.96 41.44,28.92 41.45,28.79 C 41.45,28.73 41.45,28.66 41.41,28.59 C 41.43,28.52 41.49,28.47 41.6,28.44 L 42.04,28.64 C 42.11,28.67 42.14,28.64 42.14,28.57 V 28.5 C 42.14,28.42 42.1,28.36 42.02,28.34 A 0.84,0.84 0 0,0 41.75,28.32 A 0.21,0.21 0 0,1 41.58,28.26 L 41.28,27.96 C 41.38,27.95 41.41,27.9 41.38,27.82 C 41.49,28.02 41.69,28.08 41.98,28 C 42.01,27.99 42.02,27.96 42,27.93 L 41.95,27.84 C 41.94,27.81 41.91,27.8 41.88,27.82 C 41.73,27.88 41.65,27.87 41.62,27.8 V 27.59 C 41.72,27.51 41.8,27.41 41.84,27.29 A 0.14,0.14 0 0,0 41.8,27.13 C 41.73,27.06 41.61,27.06 41.46,27.13 L 40.86,27.09 C 40.85,27 40.79,26.95 40.68,26.93 L 40.73,25.09 C 40.73,25.03 40.76,24.97 40.8,24.92 C 41.15,24.52 41.45,24.12 41.7,23.75 C 41.92,23.4 41.86,23.34 41.5,23.55 L 41.22,23.85 A 53.91,53.91 0 0,1 38.36,27.1 A 0.12,0.12 0 0,0 38.35,27.25 L 38.42,27.38 C 38.16,27.28 37.92,27.25 37.72,27.3 C 37.65,27.31 37.62,27.35 37.62,27.41 L 37.6,28.12 L 36.76,28.9 A 7.97,7.97 0 0,0 36.18,24.77 C 36.11,24.47 35.98,24.17 35.78,23.87 C 35.71,23.77 35.67,23.78 35.66,23.91 L 35.64,24.04 C 35.64,24.08 35.62,24.1 35.59,24.12 A 0.08,0.08 0 0,1 35.5,24.12 A 0.7,0.7 0 0,1 35.34,23.82 A 2.94,2.94 0 0,1 35.18,23.14 C 35.16,22.99 35.07,22.91 34.9,22.87 A 0.34,0.34 0 0,1 34.71,22.76 A 9.57,9.57 0 0,0 32.29,20.75 A 0.11,0.11 0 0,0 32.15,20.75 C 32.09,20.81 32.06,20.88 32.07,20.99 L 31.81,20.8 C 31.73,20.74 31.73,20.68 31.81,20.63 A 0.35,0.35 0 0,1 31.92,20.57 C 32.14,20.51 32.15,20.43 31.95,20.32 C 31.77,20.22 31.59,20.16 31.41,20.12 A 0.23,0.23 0 0,0 31.23,20.15 A 0.5,0.5 0 0,1 30.84,20.23 C 30.84,20.07 31,19.96 31.31,19.91 L 31.28,18.81 C 31.28,18.49 31.22,18.22 31.09,18 C 30.95,17.75 30.79,17.52 30.61,17.3 C 30.55,17.22 30.38,17.16 30.09,17.09 A 6,6 0 0,1 29.15,16.79 L 29.17,16.57 C 29.68,16.47 30.2,16.49 30.71,16.63 C 30.77,16.65 30.82,16.68 30.85,16.73 L 32.05,18.7 Z" fill="rgb(129, 170, 209)"/>
<path d="M 22.099999999999998,17.224999999999998 C 22.31,17.32 22.36,17.47 22.27,17.69 A 0.12,0.12 0 0,0 22.31,17.84 L 22.67,18.14 C 22.69,18.15 22.72,18.16 22.75,18.14 L 22.79,18.09 C 22.79,18.05 22.79,18.02 22.76,17.99 C 22.68,17.86 22.66,17.75 22.73,17.67 C 22.77,17.62 22.83,17.6 22.9,17.61 C 22.97,17.63 23,17.68 23.02,17.75 L 23.12,18.32 C 23.13,18.38 23.16,18.42 23.2,18.45 C 23.48,18.7 23.8,18.8 24.15,18.74 C 24.25,18.72 24.29,18.66 24.25,18.56 A 2.82,2.82 0 0,1 24.05,17.98 C 24.01,17.85 24.05,17.83 24.15,17.92 C 24.37,18.15 24.57,18.46 24.74,18.84 C 24.8,18.97 24.75,19.04 24.61,19.04 H 23.73 A 0.32,0.32 0 0,1 23.54,18.97 A 0.71,0.71 0 0,0 23.18,18.83 C 23.12,18.83 23.08,18.85 23.07,18.91 A 0.77,0.77 0 0,1 22.89,19.26 C 22.83,19.33 22.81,19.32 22.81,19.23 V 18.73 A 0.2,0.2 0 0,0 22.73,18.56 L 22.11,18.06 A 0.2,0.2 0 0,0 21.89,18.03 A 0.53,0.53 0 0,0 21.59,18.47 C 21.57,18.57 21.61,18.61 21.71,18.59 C 21.81,18.56 21.91,18.49 22,18.39 A 0.13,0.13 0 0,1 22.11,18.34 C 22.16,18.34 22.19,18.37 22.21,18.41 C 22.41,18.71 22.52,19.08 22.57,19.51 C 22.58,19.58 22.56,19.63 22.51,19.67 A 0.17,0.17 0 0,1 22.34,19.71 C 22.17,19.65 22.05,19.71 21.98,19.86 L 21.78,20.24 A 0.26,0.26 0 0,1 21.68,20.34 C 21.59,20.39 21.56,20.36 21.58,20.27 C 21.68,19.84 21.63,19.37 21.44,18.87 A 0.88,0.88 0 0,0 21.29,18.63 A 0.94,0.94 0 0,1 21.16,18.45 A 0.17,0.17 0 0,1 21.18,18.26 L 21.54,17.75 C 21.58,17.69 21.58,17.65 21.54,17.59 L 21.14,17.14 A 1.28,1.28 0 0,1 20.84,16.79 C 20.82,16.73 20.83,16.68 20.88,16.64 L 20.94,16.6 C 20.98,16.57 21.02,16.58 21.06,16.63 C 21.4,17.17 21.76,17.38 22.11,17.24 Z" fill="rgb(39, 44, 66)"/>
<path d="M 22.049999999999997,16.935 C 21.96,16.97 21.88,16.95 21.85,16.91 C 21.75,16.8 21.75,16.69 21.85,16.59 C 22.08,16.52 22.22,16.55 22.25,16.69 C 22.31,16.84 22.25,16.93 22.06,16.95 Z M 35.49,19.15 L 35.04,19.78 C 34.95,19.97 34.86,20.08 34.77,20.09 C 34.7,20.11 34.65,20.09 34.62,20.03 A 1.33,1.33 0 0,0 34.14,19.54 C 34.03,19.54 33.96,19.51 33.94,19.44 A 0.15,0.15 0 0,1 33.96,19.27 C 34.13,19.1 34.16,18.93 34.04,18.74 C 34,18.67 34.02,18.61 34.09,18.58 C 34.31,18.46 34.49,18.25 34.59,17.95 C 34.62,17.9 34.59,17.87 34.54,17.88 H 34.47 C 34.44,17.88 34.42,17.9 34.42,17.93 C 34.39,18.1 34.3,18.21 34.15,18.26 A 0.21,0.21 0 0,0 34.01,18.41 C 33.98,18.51 33.91,18.58 33.81,18.61 A 0.2,0.2 0 0,0 33.68,18.74 A 0.55,0.55 0 0,1 33.58,18.89 A 0.09,0.09 0 0,1 33.48,18.92 A 0.09,0.09 0 0,1 33.42,18.84 A 0.3,0.3 0 0,1 33.47,18.62 C 33.67,18.36 33.85,18.08 34.03,17.8 C 34.2,17.53 34.4,17.49 34.63,17.66 C 34.71,17.72 34.79,17.72 34.86,17.64 C 34.96,17.54 35,17.41 35,17.26 C 35,17.18 34.95,17.14 34.88,17.13 A 0.5,0.5 0 0,1 34.68,17.07 A 0.23,0.23 0 0,1 34.55,16.93 A 0.2,0.2 0 0,1 34.6,16.72 C 34.65,16.67 34.7,16.65 34.77,16.68 C 34.87,16.72 35.02,16.77 35.23,16.82 C 35.73,16.96 36.07,17.13 36.25,17.34 C 36.28,17.39 36.3,17.44 36.28,17.5 A 0.17,0.17 0 0,1 36.18,17.62 A 1.1,1.1 0 0,1 35.7,17.69 C 35.47,17.68 35.43,17.76 35.58,17.94 C 35.65,18.04 35.74,18.12 35.84,18.19 C 35.9,18.24 35.94,18.31 35.94,18.39 C 35.94,18.47 35.91,18.53 35.84,18.58 A 1,1 0 0,0 35.49,19.15 Z" fill="rgb(39, 44, 66)"/>
<path d="M 35.36,17.445 C 35.5,17.51 35.63,17.48 35.67,17.39 C 35.69,17.3 35.61,17.19 35.47,17.14 C 35.35,17.09 35.21,17.12 35.18,17.21 C 35.15,17.3 35.23,17.41 35.37,17.46 Z" fill="rgb(120, 157, 199)"/>
<path d="M 33.910000000000004,19.715 C 34.29,20.1 34.7,20.44 35.15,20.75 C 35.26,20.83 35.35,20.94 35.38,21.08 A 0.1,0.1 0 0,1 35.35,21.18 A 0.1,0.1 0 0,1 35.26,21.2 C 34.6,21.06 34.2,20.81 34.06,20.46 A 2.8,2.8 0 0,0 32.86,19.16 C 32.6,19 32.32,18.85 32.05,18.7 C 32.02,18.63 32.01,18.58 32.02,18.55 A 0.16,0.16 0 0,1 32.12,18.45 C 32.17,18.43 32.22,18.43 32.27,18.46 C 32.4,18.53 32.52,18.6 32.65,18.65 C 32.73,18.68 32.76,18.65 32.76,18.57 C 32.75,18.12 32.86,17.7 33.12,17.3 C 33.19,17.2 33.26,17.2 33.34,17.28 L 33.41,17.35 C 33.51,17.45 33.5,17.54 33.4,17.62 A 1.1,1.1 0 0,0 32.97,18.67 C 32.97,18.73 33,18.79 33.05,18.83 L 33.92,19.73 Z" fill="rgb(39, 44, 66)"/>
<path d="M 38.660000000000004,17.884999999999998 V 18 A 0.22,0.22 0 0,1 38.57,18.14 C 37.39,18.64 36.27,19.21 35.17,19.88 A 0.06,0.06 0 0,1 35.1,19.88 L 35.04,19.77 L 35.49,19.14 L 35.8,19.03 C 36.09,18.93 36.3,18.83 36.45,18.75 C 36.97,18.45 37.5,18.17 38.04,17.91 C 38.34,17.77 38.54,17.76 38.67,17.89 Z" fill="rgb(183, 217, 222)"/>
<path d="M 20.319999999999997,18.865 L 20.2,18.7 A 0.95,0.95 0 0,1 20.08,18.47 C 19.98,18.21 20.01,18.06 20.16,18.02 C 20.22,18.01 20.26,18.02 20.3,18.08 L 20.56,18.49 C 20.6,18.56 20.67,18.59 20.76,18.59 H 20.91 C 21.01,18.59 21.06,18.64 21.07,18.74 A 0.9,0.9 0 0,1 21.03,19.14 C 21,19.22 21.03,19.27 21.1,19.3 H 21.2 C 21.25,19.3 21.3,19.33 21.33,19.37 C 21.36,19.41 21.37,19.47 21.36,19.51 L 21.06,20.59 C 21.04,20.68 20.99,20.7 20.91,20.66 L 20.8,20.6 C 20.72,20.57 20.7,20.51 20.73,20.44 L 20.94,19.9 A 0.22,0.22 0 0,0 20.89,19.64 A 0.21,0.21 0 0,0 20.64,19.6 L 20.4,19.7 C 20.32,19.74 20.26,19.72 20.24,19.63 A 0.66,0.66 0 0,1 20.34,19.05 A 0.14,0.14 0 0,0 20.33,18.88 Z" fill="rgb(39, 44, 66)"/>
<path d="M 34.870000000000005,18.835 L 34.86,18.75 A 0.08,0.08 0 0,1 34.89,18.66 C 35.05,18.53 35.14,18.36 35.17,18.14 C 35.18,18.06 35.21,18.04 35.27,18.12 C 35.33,18.2 35.34,18.29 35.31,18.39 C 35.18,18.75 35.01,19.09 34.81,19.41 A 0.2,0.2 0 0,1 34.61,19.51 A 0.2,0.2 0 0,1 34.43,19.37 C 34.37,19.22 34.43,19.1 34.57,19.02 A 0.48,0.48 0 0,1 34.71,18.98 C 34.77,18.98 34.81,18.96 34.83,18.95 C 34.88,18.93 34.89,18.9 34.88,18.85 Z" fill="rgb(120, 138, 177)"/>
<path d="M 39.050000000000004,18.035 L 39.31,18.36 A 12.72,12.72 0 0,1 40.92,20.66 L 41.3,21.33 A 15.08,15.08 0 0,1 41.6,33.88 A 14.58,14.58 0 0,1 35.98,40.48 A 14.85,14.85 0 0,1 32.35,42.2 C 30.99,42.62 29.67,42.8 28.41,42.75 A 19.7,19.7 0 0,0 27.4,42.75 A 9.85,9.85 0 0,1 25.45,42.62 A 14.86,14.86 0 0,1 15.64,36.08 A 20,20 0 0,1 14.03,32.89 A 12.2,12.2 0 0,1 13.35,29.4 L 13.37,29.23 C 13.38,29.15 13.41,29.14 13.46,29.2 C 13.51,29.25 13.54,29.31 13.56,29.37 L 13.81,31.27 C 13.83,31.43 13.91,31.68 14.07,32.03 A 6.58,6.58 0 0,0 15.23,34.9 A 17.25,17.25 0 0,0 17.12,37.64 A 14.77,14.77 0 0,0 25.68,42.34 C 26.09,42.42 26.72,42.44 27.56,42.44 H 28.43 C 29.1,42.45 29.78,42.4 30.47,42.29 A 13.99,13.99 0 0,0 37.47,38.96 A 10.72,10.72 0 0,0 40.05,36.04 L 40.33,35.61 A 13.95,13.95 0 0,0 41.87,32.35 C 42.19,31.11 42.37,30.31 42.42,29.95 C 42.93,25.49 41.78,21.57 38.96,18.19 C 38.97,18.09 39,18.05 39.06,18.05 Z" fill="rgb(15, 45, 51)"/>
<path d="M 22.04,18.805 H 22.04 C 21.94,18.82 21.84,18.89 21.84,19 L 21.81,19.33 C 21.81,19.43 21.88,19.53 21.98,19.53 H 22 C 22.1,19.53 22.2,19.46 22.2,19.36 L 22.23,19.03 C 22.23,18.93 22.16,18.83 22.05,18.83 Z" fill="rgb(120, 157, 199)"/>
<path d="M 27.419999999999998,19.275 C 27.79,19.49 28.14,19.65 28.48,19.79 C 28.68,19.87 28.96,19.92 29.34,19.94 C 29.74,19.97 30.14,20.07 30.51,20.24 C 30.57,20.27 30.68,20.27 30.84,20.23 A 0.5,0.5 0 0,0 31.24,20.15 A 0.23,0.23 0 0,1 31.41,20.13 C 31.59,20.16 31.77,20.23 31.95,20.32 C 32.15,20.42 32.15,20.52 31.92,20.57 A 0.35,0.35 0 0,0 31.82,20.63 C 31.72,20.68 31.72,20.74 31.81,20.8 L 32.07,20.99 C 32.3,21.12 32.47,21.28 32.59,21.45 C 32.61,21.7 32.65,21.87 32.69,21.97 C 32.82,22.26 32.75,22.33 32.47,22.19 L 31.91,21.87 C 31.84,21.83 31.81,21.85 31.81,21.93 V 22.03 C 31.81,22.09 31.84,22.13 31.88,22.14 L 32.85,22.68 L 32.81,23.13 C 32.81,23.19 32.78,23.23 32.73,23.26 A 0.14,0.14 0 0,1 32.58,23.26 L 31.72,22.73 C 31.66,22.51 31.58,22.33 31.46,22.16 A 0.87,0.87 0 0,1 31.37,21.26 A 0.31,0.31 0 0,0 31.37,20.99 A 0.3,0.3 0 0,0 31.17,20.82 C 31,20.77 30.87,20.91 30.75,21.22 C 30.75,21.25 30.72,21.25 30.69,21.24 A 1.7,1.7 0 0,0 29.7,21.12 A 0.24,0.24 0 0,0 29.56,21.21 A 1.2,1.2 0 0,1 29.11,21.57 C 29.05,21.6 29.04,21.64 29.09,21.7 A 0.2,0.2 0 0,0 29.18,21.75 C 29.7,21.98 29.76,22.41 29.36,23.03 C 29.23,23.13 29.03,23.2 28.78,23.26 C 28.43,23.34 28.18,23.5 28.02,23.75 A 0.18,0.18 0 0,1 27.9,23.83 H 27.84 C 27.77,23.85 27.73,23.89 27.73,23.97 C 27.73,24.06 27.75,24.15 27.82,24.24 C 27.91,24.44 27.92,24.61 27.85,24.74 A 0.16,0.16 0 0,1 27.69,24.84 C 27.63,24.84 27.59,24.8 27.59,24.74 L 27.37,23.98 A 0.17,0.17 0 0,0 27.23,23.84 L 27.13,23.82 A 0.25,0.25 0 0,1 26.93,23.66 A 0.47,0.47 0 0,0 26.81,23.48 C 26.75,23.42 26.69,23.43 26.63,23.48 C 26.45,23.66 26.25,23.78 26.02,23.84 C 25.94,23.86 25.92,23.91 25.95,23.98 C 26,24.13 26.11,24.2 26.27,24.2 C 26.34,24.2 26.37,24.24 26.37,24.3 C 26.4,24.79 26.38,25.25 26.32,25.7 A 0.35,0.35 0 0,1 26.22,25.88 L 25.68,26.51 A 0.37,0.37 0 0,1 25.38,26.64 C 24.93,26.64 24.49,26.72 24.06,26.9 L 23.65,26.38 A 6.72,6.72 0 0,0 22.27,25 A 7.39,7.39 0 0,1 20.72,23.43 A 0.34,0.34 0 0,1 20.8,23.3 L 22.22,21.82 C 22.32,21.72 22.47,21.62 22.7,21.52 C 22.9,21.43 23.06,21.34 23.15,21.26 C 23.33,21.11 23.52,20.99 23.73,20.9 C 23.95,20.8 23.94,20.72 23.73,20.65 C 23.61,20.62 23.57,20.49 23.61,20.28 C 24.35,19.91 25.21,19.61 26.21,19.38 C 26.71,19.28 27.13,19.24 27.43,19.28 Z" fill="rgb(239, 242, 248)"/>
<path d="M 31.29,19.884999999999998 C 31,19.96 30.85,20.07 30.84,20.23 A 0.65,0.65 0 0,1 30.51,20.25 A 3.17,3.17 0 0,0 29.34,19.95 A 2.83,2.83 0 0,1 28.48,19.79 C 28.14,19.65 27.78,19.49 27.43,19.29 C 28.31,19.19 28.93,19.19 29.26,19.31 C 29.89,19.53 30.56,19.72 31.31,19.91 Z" fill="rgb(51, 68, 120)"/>
<path d="M 23.599999999999998,20.265 C 23.57,20.49 23.61,20.62 23.72,20.65 C 23.94,20.72 23.94,20.8 23.73,20.9 C 23.53,20.99 23.33,21.11 23.15,21.26 C 23.05,21.34 22.91,21.43 22.7,21.52 C 22.47,21.62 22.31,21.72 22.22,21.82 L 20.8,23.3 C 20.71,22.99 20.75,22.65 20.91,22.3 C 21.61,21.47 22.51,20.8 23.61,20.28 Z" fill="rgb(202, 215, 229)"/>
<path d="M 35.330000000000005,23.794999999999998 L 35.27,24.87 A 0.3,0.3 0 0,0 35.44,25.17 L 35.82,25.37 C 35.94,25.44 36.02,25.41 36.02,25.27 C 36.04,25.12 36.1,24.95 36.18,24.77 A 8,8 0 0,1 36.76,28.9 A 7.4,7.4 0 0,1 35.8,32.33 A 0.45,0.45 0 0,0 35.5,32.63 A 0.08,0.08 0 0,1 35.43,32.7 C 35.39,32.7 35.36,32.7 35.34,32.67 C 35.03,32.27 34.78,31.85 34.59,31.43 A 0.35,0.35 0 0,1 34.67,31.01 L 36.05,29.61 C 36.08,29.58 36.09,29.55 36.06,29.51 L 36.03,29.46 C 36,29.41 35.96,29.41 35.92,29.45 L 35.76,29.61 A 4.8,4.8 0 0,1 34.17,30.83 A 0.24,0.24 0 0,0 34.03,30.93 C 33.7,31.45 33.23,31.93 32.65,32.37 L 30.38,34.69 C 30.34,34.54 30.28,34.45 30.23,34.43 L 29.78,33.59 A 0.24,0.24 0 0,0 29.57,33.46 C 29.47,33.46 29.39,33.5 29.35,33.59 A 0.97,0.97 0 0,0 29.25,34.13 C 29.18,33.65 29.29,33.33 29.6,33.16 C 29.64,33.14 29.64,33.12 29.6,33.1 A 0.15,0.15 0 0,1 29.53,33.06 C 29.63,33.08 29.71,33.06 29.77,33.01 C 29.97,32.84 30.14,32.77 30.28,32.8 C 30.37,32.81 30.48,32.88 30.6,33 C 30.77,33.15 30.91,33.23 31.04,33.22 C 31.19,33.21 31.2,33.16 31.08,33.08 A 2.11,2.11 0 0,1 30.68,32.66 C 30.44,32.36 30.2,32.16 29.97,32.11 L 29.9,31.71 C 30.3,30.84 30.6,29.93 30.75,28.98 C 30.8,28.62 30.91,28.11 31.05,27.46 C 31.15,26.96 31.24,26.56 31.28,26.29 C 31.3,26.21 31.34,26.17 31.42,26.16 L 33.07,25.96 C 33.15,25.94 33.16,25.91 33.1,25.86 L 32.17,25.01 C 32.1,24.95 32.11,24.91 32.21,24.91 H 32.42 C 32.78,25.05 33.1,25.27 33.37,25.57 A 0.3,0.3 0 0,0 33.51,25.67 C 34.01,25.81 34.42,25.7 34.73,25.33 C 34.87,25.16 34.95,24.97 34.99,24.73 C 35.02,24.5 35.07,24.26 35.14,24.01 C 35.19,23.8 35.1,23.59 34.87,23.37 A 7.02,7.02 0 0,0 32.89,21.47 C 32.77,21.43 32.67,21.42 32.59,21.45 C 32.47,21.28 32.29,21.12 32.07,20.99 C 32.07,20.89 32.09,20.81 32.15,20.76 C 32.19,20.72 32.24,20.72 32.29,20.75 A 9.57,9.57 0 0,1 34.71,22.75 C 34.76,22.82 34.83,22.85 34.91,22.87 C 35.07,22.91 35.16,22.99 35.18,23.14 C 35.21,23.38 35.26,23.61 35.34,23.81 Z" fill="rgb(50, 55, 109)"/>
<path d="M 31.45,22.145 L 31.1,25.28 C 31.1,25.34 31.12,25.38 31.18,25.41 A 0.1,0.1 0 0,0 31.26,25.41 A 0.16,0.16 0 0,0 31.36,25.3 L 31.52,24.65 C 31.52,24.6 31.56,24.56 31.61,24.55 C 31.65,24.52 31.71,24.52 31.75,24.55 L 32.42,24.92 H 32.21 C 32.11,24.92 32.11,24.95 32.17,25.02 L 33.1,25.86 C 33.16,25.91 33.15,25.94 33.07,25.96 L 31.43,26.16 C 31.35,26.16 31.3,26.21 31.28,26.29 C 31.24,26.56 31.16,26.95 31.05,27.46 C 30.91,28.11 30.81,28.62 30.75,28.98 A 10.1,10.1 0 0,1 29.9,31.7 C 30.15,30.25 30.42,28.82 30.71,27.42 A 3.7,3.7 0 0,0 30.69,25.7 C 30.65,25.57 30.57,25.52 30.45,25.54 C 30.14,25.6 29.7,25.59 29.13,25.52 A 6.55,6.55 0 0,0 28.24,25.44 C 27.98,25.44 27.94,25.34 28.11,25.14 L 28.54,24.64 C 28.59,24.57 28.59,24.51 28.53,24.46 A 0.88,0.88 0 0,0 27.82,24.24 A 0.41,0.41 0 0,1 27.72,23.97 C 27.73,23.89 27.77,23.85 27.84,23.84 L 27.9,23.83 A 0.18,0.18 0 0,0 28.02,23.75 C 28.18,23.5 28.43,23.35 28.78,23.25 C 29.03,23.2 29.23,23.12 29.36,23.03 C 29.46,22.98 29.47,23.09 29.38,23.36 C 29.35,23.43 29.38,23.48 29.45,23.51 L 30.04,23.7 C 30.11,23.72 30.18,23.71 30.24,23.66 A 0.22,0.22 0 0,0 30.33,23.46 A 3.79,3.79 0 0,0 29.73,21.62 A 0.17,0.17 0 0,0 29.59,21.54 A 0.18,0.18 0 0,0 29.44,21.61 A 0.37,0.37 0 0,1 29.18,21.75 A 0.2,0.2 0 0,1 29.08,21.7 C 29.04,21.64 29.05,21.6 29.11,21.57 C 29.29,21.48 29.44,21.37 29.56,21.21 A 0.24,0.24 0 0,1 29.7,21.12 C 30.04,21.06 30.37,21.1 30.7,21.24 C 30.72,21.25 30.74,21.24 30.75,21.22 C 30.86,20.91 31,20.77 31.17,20.82 A 0.32,0.32 0 0,1 31.37,21.26 C 31.23,21.58 31.27,21.88 31.46,22.16 Z" fill="rgb(84, 103, 147)"/>
<path d="M 32.88,21.465 H 32.82 C 32.77,21.48 32.75,21.51 32.77,21.56 L 33.03,22.46 C 33.05,22.53 33.1,22.59 33.16,22.64 L 34.45,23.64 C 34.5,23.67 34.55,23.67 34.59,23.63 L 34.87,23.37 C 35.1,23.59 35.19,23.8 35.14,24.01 C 35.07,24.26 35.02,24.5 34.99,24.74 A 1.3,1.3 0 0,1 34.73,25.34 C 34.42,25.7 34.02,25.81 33.51,25.66 A 0.3,0.3 0 0,1 33.37,25.57 C 33.1,25.27 32.78,25.05 32.42,24.92 L 31.75,24.55 A 0.15,0.15 0 0,0 31.61,24.55 A 0.15,0.15 0 0,0 31.51,24.65 C 31.47,24.87 31.41,25.09 31.35,25.3 A 0.16,0.16 0 0,1 31.26,25.4 A 0.1,0.1 0 0,1 31.18,25.4 C 31.12,25.39 31.09,25.34 31.1,25.28 L 31.46,22.16 C 31.58,22.33 31.66,22.51 31.72,22.73 L 31.76,23.84 C 31.77,24.18 31.94,24.34 32.26,24.33 A 0.5,0.5 0 0,0 32.46,24.29 A 0.7,0.7 0 0,0 32.9,23.56 L 32.85,22.68 L 31.88,22.14 A 0.12,0.12 0 0,1 31.82,22.04 L 31.81,21.93 C 31.81,21.85 31.84,21.83 31.91,21.87 C 32.11,22 32.3,22.1 32.47,22.19 C 32.75,22.33 32.82,22.26 32.69,21.97 C 32.65,21.87 32.61,21.7 32.59,21.45 C 32.67,21.42 32.77,21.43 32.89,21.48 Z" fill="rgb(120, 138, 177)"/>
<path d="M 32.88,21.465 A 6.9,6.9 0 0,1 34.87,23.38 L 34.59,23.63 C 34.54,23.67 34.49,23.67 34.44,23.63 L 33.15,22.63 A 0.34,0.34 0 0,1 33.03,22.46 L 32.77,21.56 C 32.75,21.51 32.77,21.48 32.82,21.48 H 32.89 Z" fill="rgb(220, 231, 237)"/>
<path d="M 29.349999999999998,23.015 C 29.76,22.41 29.7,21.98 29.18,21.75 C 29.29,21.73 29.38,21.69 29.44,21.61 A 0.18,0.18 0 0,1 29.59,21.54 C 29.66,21.54 29.7,21.57 29.74,21.62 C 30.09,22.18 30.29,22.8 30.33,23.47 C 30.33,23.55 30.31,23.61 30.24,23.67 A 0.21,0.21 0 0,1 30.04,23.7 L 29.45,23.5 C 29.38,23.48 29.35,23.43 29.38,23.36 C 29.48,23.09 29.47,22.98 29.36,23.03 Z" fill="rgb(167, 184, 197)"/>
<path d="M 42.910000000000004,22.185 A 15.92,15.92 0 0,1 43.5,31.92 A 15.9,15.9 0 0,1 37.62,40.76 A 15.93,15.93 0 0,1 26.72,43.96 A 15.9,15.9 0 0,1 20.5,42.15 A 15.76,15.76 0 0,1 14.38,36.43 V 36.31 A 0.2,0.2 0 0,1 14.58,36.23 A 0.2,0.2 0 0,1 14.75,36.33 A 15.88,15.88 0 0,0 25.6,43.48 C 26.3,43.6 26.98,43.64 27.65,43.61 L 28.57,43.59 C 29.39,43.59 30.01,43.55 30.44,43.49 C 31.94,43.25 33.34,42.82 34.63,42.19 L 35.48,41.77 C 35.71,41.65 36.04,41.45 36.45,41.17 L 37.03,40.8 C 37.28,40.65 37.53,40.48 37.78,40.28 C 40.1,38.4 41.78,36.06 42.81,33.27 A 16.87,16.87 0 0,0 42.71,22.15 C 42.71,22.13 42.71,22.12 42.73,22.11 C 42.75,22.11 42.78,22.11 42.79,22.13 A 0.2,0.2 0 0,0 42.92,22.2 Z" fill="rgb(35, 83, 106)"/>
<path d="M 32.84,22.665 L 32.9,23.56 C 32.92,23.91 32.77,24.16 32.46,24.29 A 0.5,0.5 0 0,1 32.26,24.33 C 31.94,24.33 31.77,24.18 31.76,23.84 L 31.71,22.73 L 32.58,23.26 C 32.63,23.29 32.68,23.29 32.73,23.26 A 0.15,0.15 0 0,0 32.81,23.13 L 32.85,22.68 Z" fill="rgb(167, 184, 197)"/>
<path d="M 33.7,23.535 H 33.17 C 33.1,23.55 33.07,23.52 33.06,23.45 L 33.01,23.01 A 0.1,0.1 0 0,1 33.07,22.9 A 0.1,0.1 0 0,1 33.19,22.9 L 33.79,23.35 C 33.82,23.38 33.84,23.42 33.82,23.47 C 33.8,23.52 33.77,23.55 33.72,23.55 Z" fill="rgb(220, 231, 237)"/>
<path d="M 20.66,23.465 C 20.64,24.58 20.81,25.32 21.17,25.68 L 23.65,28.12 C 23.71,28.32 23.68,28.47 23.57,28.59 A 0.98,0.98 0 0,1 23.01,28.75 A 0.14,0.14 0 0,1 22.88,28.66 A 1.8,1.8 0 0,0 22.23,27.96 C 22.21,27.9 22.13,27.83 22.03,27.75 A 0.9,0.9 0 0,0 21.73,26.97 A 0.23,0.23 0 0,1 21.66,26.86 L 21.43,26.06 C 21.41,26 21.37,25.97 21.3,25.99 C 20.87,26.09 20.5,26.32 20.2,26.66 C 19.94,26.74 19.81,26.86 19.83,27.04 C 19.79,27.25 19.71,27.37 19.59,27.39 C 19.52,27.39 19.49,27.36 19.49,27.29 V 26.05 C 19.49,25.98 19.51,25.91 19.55,25.85 C 19.65,25.69 19.67,25.53 19.58,25.36 A 0.29,0.29 0 0,1 19.55,25.18 L 19.65,24.54 C 19.85,24.22 20,23.86 20.13,23.46 A 0.16,0.16 0 0,1 20.28,23.33 C 20.36,23.33 20.41,23.36 20.45,23.43 C 20.48,23.49 20.55,23.51 20.67,23.48 Z" fill="rgb(167, 184, 197)"/>
<path d="M 20.709999999999997,23.415 A 7.39,7.39 0 0,0 22.26,25 C 22.66,25.26 23.12,25.72 23.65,26.38 L 24.06,26.9 C 23.82,26.74 23.61,26.72 23.44,26.84 C 23.31,26.93 23.29,27.04 23.37,27.17 C 23.53,27.45 23.62,27.77 23.65,28.12 L 21.17,25.68 C 20.8,25.32 20.64,24.58 20.67,23.48 L 20.72,23.43 Z" fill="rgb(202, 215, 229)"/>
<path d="M 27.81,24.224999999999998 C 28.08,24.21 28.32,24.28 28.52,24.46 C 28.59,24.51 28.59,24.57 28.54,24.64 L 28.11,25.14 C 27.94,25.34 27.98,25.44 28.24,25.44 C 28.45,25.44 28.74,25.47 29.14,25.52 C 29.7,25.59 30.14,25.6 30.45,25.54 C 30.57,25.52 30.65,25.57 30.68,25.7 C 30.83,26.25 30.84,26.82 30.71,27.42 C 30.42,28.82 30.15,30.25 29.9,31.7 L 29.97,32.11 A 1.62,1.62 0 0,1 29.23,31.8 A 0.22,0.22 0 0,0 29.05,31.75 A 0.8,0.8 0 0,0 28.65,31.95 A 0.12,0.12 0 0,1 28.52,31.99 A 0.13,0.13 0 0,1 28.43,31.89 C 28.36,31.63 28.2,31.49 27.94,31.51 L 26.47,30.93 A 0.3,0.3 0 0,0 26.29,30.91 A 0.81,0.81 0 0,1 25.61,30.79 C 25.58,30.76 25.57,30.74 25.6,30.71 L 25.66,30.68 C 25.74,30.68 25.76,30.66 25.73,30.58 C 25.56,30.21 25.41,29.86 25.29,29.54 A 0.33,0.33 0 0,0 25.12,29.34 L 23.57,28.59 C 23.68,28.47 23.71,28.31 23.65,28.12 A 2.15,2.15 0 0,0 23.37,27.17 C 23.29,27.04 23.32,26.93 23.44,26.84 C 23.61,26.72 23.82,26.74 24.06,26.9 C 24.49,26.72 24.93,26.63 25.39,26.64 C 25.5,26.64 25.6,26.6 25.68,26.51 L 26.23,25.88 A 0.35,0.35 0 0,0 26.32,25.69 C 26.38,25.25 26.4,24.79 26.38,24.3 C 26.38,24.24 26.34,24.2 26.27,24.2 C 26.11,24.2 26,24.13 25.95,23.98 C 25.92,23.91 25.95,23.86 26.02,23.84 C 26.25,23.78 26.45,23.66 26.63,23.48 C 26.69,23.43 26.75,23.42 26.81,23.48 C 26.86,23.53 26.91,23.58 26.94,23.66 C 26.97,23.76 27.04,23.81 27.14,23.82 L 27.23,23.84 C 27.3,23.86 27.35,23.9 27.37,23.98 L 27.58,24.75 C 27.6,24.8 27.63,24.83 27.69,24.83 C 27.76,24.83 27.82,24.8 27.85,24.73 C 27.92,24.61 27.91,24.44 27.82,24.23 Z" fill="rgb(51, 68, 120)"/>
<path d="M 40.67,26.915 L 40.12,28.04 C 40.09,28.1 40.11,28.14 40.17,28.16 H 40.25 C 40.3,28.18 40.35,28.22 40.39,28.28 V 28.72 C 40.39,28.79 40.42,28.81 40.48,28.79 L 40.98,28.62 C 41,28.66 41.03,28.69 41.06,28.71 L 41.23,28.92 L 40.79,31.49 C 40.78,31.55 40.8,31.59 40.86,31.6 C 41.27,31.73 41.61,31.98 41.86,32.35 C 41.86,32.36 41.86,32.37 41.84,32.38 A 4.53,4.53 0 0,0 39.49,32.81 C 38.69,33.11 37.83,33.11 36.91,32.83 C 36.75,32.78 36.66,32.83 36.63,33 A 6.76,6.76 0 0,0 36.53,34.8 C 36.54,35 36.64,35.11 36.83,35.13 C 37.53,35.19 38.19,35.31 38.81,35.47 C 39.02,35.53 39.27,35.56 39.56,35.56 C 39.82,35.56 40.07,35.57 40.33,35.61 L 40.05,36.04 L 36.78,35.98 C 36.62,35.98 36.55,36.06 36.57,36.22 L 36.67,37.37 C 36.57,37.55 36.45,37.69 36.31,37.79 A 0.14,0.14 0 0,0 36.25,37.94 C 36.25,37.98 36.28,38.03 36.31,38.07 A 0.94,0.94 0 0,0 36.16,38.97 L 36.05,38.98 C 35.98,38.98 35.95,39.02 35.95,39.09 C 35.98,39.24 35.94,39.34 35.83,39.41 S 35.6,39.46 35.49,39.36 A 0.58,0.58 0 0,1 35.27,38.84 C 35.28,38.76 35.32,38.71 35.39,38.7 L 35.71,38.63 C 35.78,38.61 35.8,38.58 35.76,38.51 L 35.72,38.46 C 35.68,38.39 35.62,38.37 35.55,38.4 C 34.93,38.63 34.86,39.02 35.34,39.58 A 4.07,4.07 0 0,1 32.34,38.71 C 32.64,38.73 32.88,38.68 33.04,38.57 C 33.29,38.37 33.27,37.99 32.98,37.43 A 0.6,0.6 0 0,0 32.48,37.07 C 32.27,37.04 32.1,37.14 31.99,37.35 C 31.92,37.5 31.93,37.74 32.02,38.08 L 32.04,38.15 L 29.68,37.16 C 29.61,37.14 29.56,37.16 29.53,37.22 L 29.5,37.26 C 29.48,37.3 29.48,37.32 29.52,37.34 L 30.25,37.81 A 0.65,0.65 0 0,0 29.75,38.05 A 0.53,0.53 0 0,0 29.68,38.5 C 29.73,38.66 29.81,38.78 29.95,38.86 C 30.11,38.94 30.29,38.94 30.48,38.85 C 30.56,38.81 30.58,38.84 30.58,38.92 V 38.99 C 30.57,39.07 30.52,39.12 30.45,39.15 A 0.67,0.67 0 0,1 29.99,39.18 C 29.93,39.16 29.89,39.18 29.86,39.25 L 29.85,39.3 C 29.84,39.33 29.85,39.36 29.88,39.37 C 30.45,39.62 30.79,39.44 30.88,38.83 C 31.71,39.03 32.58,39.36 33.47,39.83 C 34.24,40.23 35.07,40.28 35.94,40 C 36.14,39.94 36.34,39.7 36.54,39.32 A 0.84,0.84 0 0,0 36.5,39.74 A 13.99,13.99 0 0,1 30.47,42.29 C 29.77,42.4 29.1,42.45 28.43,42.44 H 27.56 A 10.9,10.9 0 0,1 25.68,42.34 A 14.77,14.77 0 0,1 17.12,37.64 A 17.25,17.25 0 0,1 15.22,34.9 A 6.59,6.59 0 0,1 14.06,32.03 L 14.14,31.93 C 14.18,31.87 14.22,31.87 14.24,31.95 C 14.36,32.41 14.65,32.67 15.11,32.73 L 15.73,32.8 C 15.8,32.8 15.83,32.77 15.83,32.7 L 15.82,32.34 A 11.34,11.34 0 0,0 17.25,34.94 C 17.47,35.26 17.75,35.61 18.1,35.98 C 18.5,36.41 18.9,36.86 19.27,37.33 C 19.06,37.3 18.89,37.36 18.79,37.48 A 0.14,0.14 0 0,1 18.71,37.53 C 18.68,37.53 18.65,37.53 18.63,37.5 C 18.61,37.47 18.6,37.45 18.62,37.42 L 18.7,37.25 A 0.16,0.16 0 0,0 18.68,37.06 A 0.44,0.44 0 0,0 18.45,36.91 C 18.35,36.89 18.31,36.92 18.32,37.02 L 18.34,37.22 A 0.2,0.2 0 0,1 18.29,37.38 A 0.71,0.71 0 0,0 18.11,37.93 C 18.11,38 18.15,38.05 18.21,38.07 C 18.36,38.11 18.49,38.08 18.59,37.97 C 18.61,37.95 18.64,37.94 18.66,37.95 C 18.69,37.96 18.71,37.98 18.71,38.02 A 0.1,0.1 0 0,1 18.71,38.08 L 18.61,38.33 A 0.14,0.14 0 0,0 18.65,38.49 C 18.7,38.54 18.75,38.55 18.81,38.52 L 19.4,38.25 C 19.58,38.17 19.69,38 19.72,37.75 L 20.34,38.17 C 20.39,38.2 20.42,38.25 20.42,38.32 A 0.25,0.25 0 0,1 20.35,38.54 V 38.46 C 20.33,38.4 20.3,38.37 20.25,38.36 A 0.4,0.4 0 0,0 20.19,38.36 C 20.13,38.36 20.09,38.39 20.09,38.45 L 19.87,39.3 C 19.84,39.41 19.89,39.47 20,39.47 C 20.12,39.47 20.22,39.43 20.3,39.33 C 20.3,39.33 20.3,39.31 20.32,39.3 C 20.37,39.26 20.42,39.24 20.47,39.25 C 20.53,39.27 20.54,39.3 20.52,39.35 C 20.47,39.45 20.45,39.55 20.45,39.65 C 20.47,39.92 20.57,39.96 20.77,39.78 C 20.93,39.62 21.12,39.48 21.34,39.35 C 21.46,39.28 21.48,39.15 21.39,38.97 C 21.52,38.95 21.61,39.07 21.67,39.33 C 21.68,39.41 21.71,39.45 21.75,39.45 C 21.8,39.45 21.86,39.45 21.94,39.42 L 21.81,40.49 C 21.8,40.57 21.83,40.62 21.91,40.66 C 21.97,40.69 22.04,40.68 22.09,40.62 L 22.28,40.42 C 22.34,40.34 22.39,40.35 22.43,40.44 C 22.47,40.53 22.47,40.62 22.43,40.71 C 22.4,40.78 22.42,40.84 22.48,40.89 C 22.51,40.92 22.55,40.93 22.58,40.93 C 22.63,40.93 22.68,40.89 22.74,40.83 C 22.94,40.58 23.15,40.33 23.37,40.1 L 25.4,41.03 C 25.37,41.41 25.46,41.66 25.66,41.81 C 25.87,41.95 26.11,41.9 26.37,41.64 C 26.39,41.62 26.39,41.6 26.37,41.58 L 26.34,41.54 C 26.31,41.49 26.26,41.49 26.22,41.53 A 0.56,0.56 0 0,1 26.02,41.65 A 0.28,0.28 0 0,1 25.76,41.62 A 0.3,0.3 0 0,1 25.62,41.38 C 25.61,41.12 25.69,40.94 25.87,40.84 A 0.2,0.2 0 0,1 26.04,40.83 C 26.11,40.85 26.18,40.9 26.22,40.97 C 26.26,41.03 26.31,41.04 26.37,41.01 A 0.2,0.2 0 0,0 26.44,40.93 C 26.56,41.13 26.77,41.23 27.07,41.22 C 27.01,41.86 27.31,42.12 27.97,42.01 C 28.06,41.99 28.1,41.94 28.11,41.85 V 40.52 C 28.1,40.42 28.04,40.38 27.93,40.39 L 27.98,39.59 C 28.28,39.69 28.6,39.71 28.94,39.63 C 28.97,39.63 28.99,39.6 28.99,39.57 V 39.49 C 28.98,39.44 28.95,39.41 28.9,39.42 L 28.52,39.46 C 28.38,39.47 28.36,39.43 28.46,39.32 L 28.61,39.17 C 28.91,38.88 29.03,38.62 29.01,38.37 C 28.98,38.19 28.87,38.07 28.69,38.05 C 28.3,37.99 28.09,38.12 28.03,38.44 A 1.6,1.6 0 0,0 27.32,38.41 A 0.43,0.43 0 0,0 26.96,38 A 0.52,0.52 0 0,0 26.43,38.12 A 0.2,0.2 0 0,0 26.37,38.28 C 26.39,38.59 26.32,38.88 26.17,39.14 A 2.18,2.18 0 0,0 25.54,38.68 C 25.67,38.36 25.68,38.11 25.59,37.92 C 25.43,37.61 25.18,37.54 24.82,37.72 L 23.59,36.07 C 24.56,36.57 25.56,36.88 26.59,36.99 L 27.21,37.09 L 29.17,37.02 L 29.92,36.85 C 30.66,36.67 31.33,36.45 31.92,36.17 C 32.15,36.07 32.14,35.99 31.89,35.95 A 9.84,9.84 0 0,0 30.31,35.81 L 27.71,35.56 C 27.65,35.46 27.52,35.46 27.34,35.56 A 0.25,0.25 0 0,1 27.17,35.59 A 1.38,1.38 0 0,1 26.57,35.32 A 0.17,0.17 0 0,1 26.5,35.14 A 0.28,0.28 0 0,0 26.4,34.86 A 4.35,4.35 0 0,0 25.84,34.42 A 0.24,0.24 0 0,1 25.72,34.18 L 25.73,34.1 C 25.73,34.03 25.77,34.02 25.83,34.06 C 26.13,34.26 26.4,34.54 26.64,34.86 C 26.84,35.12 27.07,35.26 27.36,35.26 C 28.12,35.3 28.83,35.36 29.49,35.43 L 30.78,35.53 C 31.51,35.73 32.21,35.76 32.88,35.61 C 33.05,35.64 33.2,35.67 33.32,35.71 C 33.52,35.77 33.66,35.8 33.76,35.81 C 34.16,35.81 34.52,35.81 34.81,35.78 C 34.89,35.99 35.07,36.25 35.33,36.55 C 35.39,36.61 35.45,36.65 35.53,36.65 L 35.85,36.67 C 36.02,36.67 36.13,36.61 36.2,36.48 A 0.59,0.59 0 0,0 36.24,36.07 A 0.75,0.75 0 0,0 36.04,35.68 C 35.92,35.58 35.8,35.53 35.66,35.57 A 0.6,0.6 0 0,0 35.26,35.87 A 0.08,0.08 0 0,1 35.18,35.91 A 0.08,0.08 0 0,1 35.1,35.86 C 35.02,35.71 35.03,35.59 35.12,35.49 C 35.16,35.45 35.22,35.42 35.27,35.43 A 0.4,0.4 0 0,0 35.61,35.29 C 35.68,34.89 35.57,34.36 35.26,33.68 L 35.15,33.42 C 35.2,33.35 35.27,33.25 35.38,33.14 C 35.63,32.85 35.77,32.59 35.8,32.34 A 7.4,7.4 0 0,0 36.76,28.9 L 37.6,28.12 C 37.73,28.23 37.7,28.37 37.52,28.52 A 0.1,0.1 0 0,0 37.48,28.6 C 37.48,28.63 37.49,28.64 37.51,28.65 C 37.57,28.7 37.61,28.68 37.66,28.62 C 37.76,28.46 37.9,28.4 38.08,28.43 C 38.18,28.45 38.25,28.43 38.32,28.36 C 38.36,28.31 38.42,28.27 38.47,28.25 C 38.54,28.22 38.57,28.25 38.57,28.31 L 38.58,28.79 C 38.58,28.86 38.62,28.89 38.68,28.88 H 38.73 C 38.79,28.88 38.82,28.84 38.82,28.78 L 38.81,28.23 L 38.85,28.19 C 38.88,28.16 38.92,28.16 38.95,28.19 L 39.02,28.25 A 0.6,0.6 0 0,0 39.34,28.63 C 39.4,28.66 39.44,28.65 39.48,28.58 C 39.51,28.54 39.5,28.46 39.46,28.36 L 39.78,27.81 C 40.05,27.35 40.24,27.01 40.33,26.76 C 40.47,26.36 40.53,25.95 40.51,25.5 A 0.05,0.05 0 0,0 40.48,25.46 H 40.43 L 38.62,27.32 C 38.58,27.37 38.52,27.39 38.42,27.38 L 38.35,27.25 C 38.31,27.2 38.32,27.15 38.36,27.1 C 39.36,26.06 40.31,24.98 41.22,23.86 C 41.37,23.68 41.47,23.57 41.51,23.55 C 41.86,23.34 41.92,23.4 41.7,23.75 C 41.45,24.12 41.15,24.51 40.8,24.92 A 0.28,0.28 0 0,0 40.73,25.09 L 40.68,26.93 Z" fill="rgb(156, 193, 210)"/>
<path d="M 36.17,24.755 A 1.5,1.5 0 0,0 36.03,25.27 C 36.01,25.41 35.94,25.44 35.82,25.37 L 35.44,25.17 A 0.3,0.3 0 0,1 35.27,24.87 L 35.34,23.81 C 35.38,23.96 35.44,24.06 35.5,24.11 C 35.53,24.13 35.56,24.13 35.6,24.11 A 0.08,0.08 0 0,0 35.64,24.04 L 35.65,23.91 C 35.67,23.78 35.71,23.77 35.77,23.88 C 35.97,24.18 36.11,24.48 36.18,24.78 Z" fill="rgb(84, 103, 147)"/>
<path d="M 29.689999999999998,24.055 C 29.7,23.98 29.75,23.93 29.83,23.93 C 29.92,23.93 29.99,23.94 30.05,23.98 C 30.15,24.05 30.17,24.13 30.11,24.23 L 30.01,24.42 C 29.91,24.62 29.83,24.76 29.76,24.82 C 29.63,24.93 29.47,24.96 29.27,24.92 A 0.08,0.08 0 0,1 29.22,24.87 C 29.18,24.79 29.2,24.74 29.28,24.72 C 29.54,24.62 29.68,24.42 29.7,24.07 Z" fill="rgb(202, 215, 229)"/>
<path d="M 18.79,27.015 A 8.82,8.82 0 0,0 22.34,35.26 L 23.59,36.07 L 24.82,37.72 C 24.57,38.04 24.45,38.41 24.45,38.82 A 0.95,0.95 0 0,0 24.4,38.52 A 0.14,0.14 0 0,0 24.28,38.42 L 24.01,38.4 C 23.89,38.04 23.71,37.98 23.47,38.23 L 23.17,37.86 C 23.37,37.57 23.42,37.31 23.34,37.06 C 23.25,36.8 23.07,36.69 22.81,36.74 C 22.66,36.76 22.51,36.88 22.37,37.1 L 21.82,36.67 C 21.96,36.45 21.99,36.27 21.91,36.11 A 1,1 0 0,0 21.46,35.74 A 26.2,26.2 0 0,0 19.3,33.02 A 5.7,5.7 0 0,1 17.9,29.12 C 17.94,29.15 17.98,29.16 18.02,29.15 C 18.08,29.15 18.1,29.11 18.11,29.05 L 18.13,27.33 C 18.13,27.19 18.07,27.11 17.93,27.09 L 17.45,27.03 C 16.77,26.12 16.07,26.2 15.33,27.29 L 14.81,27.19 C 14.76,27.19 14.74,27.15 14.75,27.09 C 14.79,26.96 14.76,26.86 14.67,26.79 C 14.65,25.87 14.97,25.09 15.6,24.46 C 15.69,24.37 15.78,24.36 15.89,24.41 C 16.61,24.77 17.18,25.11 17.59,25.45 C 18.14,25.91 18.55,26.43 18.8,27.03 Z" fill="rgb(220, 231, 237)"/>
<path d="M 19.65,24.525 L 19.56,25.18 C 19.55,25.25 19.56,25.31 19.58,25.36 C 19.67,25.53 19.66,25.69 19.55,25.86 A 0.33,0.33 0 0,0 19.49,26.05 V 27.29 C 19.49,27.36 19.52,27.39 19.59,27.39 C 19.71,27.37 19.79,27.25 19.83,27.04 A 0.3,0.3 0 0,1 20,26.93 C 20.06,26.91 20.1,26.93 20.14,26.99 L 21.48,29.15 C 21.76,30 22.14,30.73 22.63,31.35 C 22.67,31.4 22.72,31.4 22.76,31.34 C 22.79,31.28 22.79,31.21 22.76,31.12 L 22.6,30.02 L 23.64,31.54 L 23.22,31.64 C 22.97,31.7 22.96,31.79 23.18,31.91 L 23.58,32.09 C 24,32.29 24.3,32.48 24.46,32.69 C 24.72,33.01 25.04,33.47 25.43,34.09 C 24.78,34.05 24.41,34.23 24.3,34.62 L 23.45,34.96 L 22.35,35.26 A 8.82,8.82 0 0,1 19.58,24.43 C 19.62,24.46 19.65,24.49 19.66,24.53 Z" fill="rgb(74, 37, 78)"/>
<path d="M 39.45,28.345 C 39.24,28.06 39.09,28.03 39.02,28.25 L 38.95,28.19 C 38.92,28.16 38.88,28.16 38.85,28.19 L 38.81,28.23 C 38.8,28.03 38.82,27.83 38.88,27.65 C 38.9,27.58 38.94,27.55 39.01,27.54 C 39.11,27.52 39.18,27.47 39.23,27.39 A 0.1,0.1 0 0,0 39.22,27.27 C 39.19,27.23 39.16,27.22 39.12,27.23 L 38.62,27.32 L 40.43,25.47 C 40.44,25.45 40.46,25.45 40.48,25.46 C 40.5,25.46 40.51,25.48 40.51,25.5 C 40.54,25.95 40.47,26.37 40.33,26.76 C 40.23,27 40.05,27.36 39.78,27.81 L 39.46,28.36 Z" fill="rgb(148, 189, 215)"/>
<path d="M 22.009999999999998,27.735 C 21.88,28.03 21.78,28.27 21.74,28.47 C 21.67,28.81 21.56,28.82 21.41,28.51 A 4.3,4.3 0 0,0 20.89,27.74 A 4.8,4.8 0 0,1 20.43,27.07 A 0.35,0.35 0 0,0 20.3,26.93 C 20.2,26.87 20.17,26.78 20.2,26.66 C 20.5,26.32 20.88,26.1 21.3,25.99 C 21.37,25.97 21.4,25.99 21.43,26.06 L 21.66,26.86 C 21.67,26.9 21.69,26.94 21.73,26.96 C 21.95,27.17 22.05,27.43 22.03,27.75 Z" fill="rgb(57, 34, 85)"/>
<path d="M 17.439999999999998,27.015 C 17.05,27.1 16.78,27.22 16.61,27.39 A 0.22,0.22 0 0,0 16.55,27.54 L 16.53,28.7 C 16.53,28.8 16.57,28.83 16.66,28.81 L 17.59,28.64 C 17.63,28.64 17.64,28.61 17.62,28.57 L 17.59,28.5 C 17.58,28.48 17.56,28.47 17.54,28.48 L 16.84,28.65 A 0.12,0.12 0 0,1 16.72,28.63 A 0.13,0.13 0 0,1 16.67,28.52 L 16.69,28.26 C 16.7,27.92 16.74,27.69 16.79,27.56 C 16.89,27.33 17.09,27.21 17.37,27.19 C 17.61,27.19 17.77,27.26 17.84,27.42 A 1.5,1.5 0 0,1 17.93,27.99 C 17.93,28.05 17.9,28.09 17.83,28.1 C 17.8,28.11 17.77,28.1 17.73,28.08 A 0.23,0.23 0 0,1 17.63,27.95 L 17.53,27.55 C 17.5,27.47 17.46,27.44 17.38,27.45 L 17.1,27.47 C 16.98,27.49 16.95,27.54 17.02,27.65 L 17.05,27.69 C 17.09,27.74 17.09,27.79 17.05,27.85 C 16.95,27.98 16.95,28.14 17.02,28.33 C 17.03,28.37 17.06,28.38 17.1,28.37 C 17.13,28.36 17.14,28.34 17.14,28.32 C 17.14,28.26 17.18,28.22 17.24,28.23 L 17.8,28.3 C 17.86,28.3 17.9,28.34 17.91,28.4 C 17.95,28.57 17.91,28.71 17.79,28.84 A 0.12,0.12 0 0,0 17.77,28.98 C 17.79,29.03 17.84,29.08 17.9,29.12 A 5.7,5.7 0 0,0 19.3,33.02 A 25.96,25.96 0 0,1 21.46,35.74 C 20.92,36 20.61,36.36 20.54,36.83 C 20.52,36.96 20.54,37.08 20.63,37.19 C 20.71,37.29 20.82,37.35 20.95,37.37 C 21.23,37.4 21.52,37.17 21.82,36.67 L 22.37,37.1 C 22.07,37.55 22,37.9 22.15,38.16 C 22.25,38.34 22.43,38.4 22.68,38.34 C 22.88,38.29 23.04,38.14 23.17,37.86 L 23.47,38.23 C 23.61,38.43 23.79,38.48 24.01,38.4 L 24.28,38.43 C 24.34,38.43 24.38,38.47 24.4,38.53 C 24.44,38.61 24.45,38.71 24.45,38.83 C 24.49,39.03 24.6,39.22 24.79,39.36 C 24.12,39.38 23.58,39.6 23.14,40.04 C 23.06,40.16 22.97,40.22 22.88,40.24 C 22.8,40.24 22.78,40.21 22.78,40.14 L 22.81,39.81 C 22.82,39.67 22.76,39.61 22.63,39.66 A 0.49,0.49 0 0,0 22.43,39.78 C 22.32,39.9 22.25,39.88 22.22,39.71 L 22.18,39.51 C 22.17,39.43 22.12,39.39 22.05,39.39 C 22.01,39.39 21.97,39.39 21.94,39.42 A 0.44,0.44 0 0,1 21.75,39.45 C 21.71,39.45 21.68,39.41 21.67,39.33 C 21.61,39.07 21.52,38.95 21.39,38.97 L 20.98,39.29 C 20.93,39.33 20.89,39.32 20.86,39.29 A 0.1,0.1 0 0,1 20.84,39.23 A 0.22,0.22 0 0,1 20.87,39.07 C 20.95,38.93 20.95,38.8 20.86,38.68 A 0.12,0.12 0 0,0 20.73,38.63 A 0.12,0.12 0 0,0 20.63,38.72 A 0.3,0.3 0 0,1 20.38,38.93 C 20.32,38.94 20.28,38.91 20.28,38.84 A 0.5,0.5 0 0,1 20.35,38.54 A 0.28,0.28 0 0,0 20.42,38.32 A 0.19,0.19 0 0,0 20.34,38.17 L 19.72,37.74 C 19.57,37.74 19.49,37.78 19.46,37.86 C 19.38,37.91 19.31,37.92 19.24,37.89 C 19.18,37.86 19.16,37.81 19.19,37.75 C 19.24,37.62 19.27,37.47 19.27,37.33 A 27.2,27.2 0 0,0 18.1,35.98 A 8.72,8.72 0 0,1 17.2,34.85 A 11.33,11.33 0 0,1 15.82,32.34 L 15.34,31.16 L 14.61,29.16 L 14.74,28.22 C 14.74,28.14 14.8,28.09 14.88,28.09 H 15.06 C 15.14,28.09 15.19,28.05 15.23,27.99 C 15.3,27.85 15.4,27.74 15.5,27.64 C 15.57,27.58 15.59,27.52 15.57,27.44 C 15.54,27.36 15.47,27.31 15.33,27.29 C 16.07,26.2 16.77,26.12 17.45,27.03 Z" fill="rgb(239, 242, 248)"/>
<path d="M 26.08,26.625 C 25.99,26.73 25.97,26.84 26.02,26.9 C 26.08,26.96 26.19,26.94 26.28,26.86 C 26.38,26.76 26.4,26.66 26.35,26.59 C 26.29,26.53 26.18,26.56 26.09,26.64 Z" fill="rgb(167, 184, 197)"/>
<path d="M 20.189999999999998,26.645 C 20.17,26.78 20.2,26.87 20.3,26.93 C 20.35,26.96 20.4,27.01 20.43,27.07 C 20.52,27.24 20.67,27.47 20.9,27.74 C 21.15,28.06 21.32,28.32 21.4,28.51 C 21.56,28.82 21.67,28.81 21.74,28.47 C 21.78,28.27 21.88,28.03 22.02,27.75 C 22.14,27.83 22.21,27.9 22.23,27.95 A 0.77,0.77 0 0,0 22.14,28.83 C 22.41,29.37 22.56,29.76 22.6,30.01 L 22.76,31.11 A 6.87,6.87 0 0,0 21.48,29.15 L 20.14,26.99 C 20.11,26.93 20.06,26.91 20,26.93 A 0.35,0.35 0 0,0 19.83,27.03 C 19.81,26.87 19.93,26.74 20.21,26.66 Z" fill="rgb(105, 83, 136)"/>
<path d="M 14.66,26.785 C 14.77,26.86 14.79,26.96 14.75,27.1 C 14.74,27.15 14.75,27.18 14.81,27.2 L 15.33,27.29 C 15.47,27.31 15.55,27.36 15.57,27.44 C 15.59,27.52 15.57,27.58 15.5,27.64 C 15.4,27.74 15.3,27.85 15.23,27.98 C 15.19,28.05 15.13,28.08 15.06,28.08 L 14.88,28.09 C 14.8,28.09 14.75,28.14 14.74,28.22 L 14.61,29.16 L 14.5,28.24 C 14.49,28.18 14.46,28.15 14.4,28.15 C 14.14,28.15 13.94,27.99 13.82,27.66 C 13.75,27.5 13.81,27.41 13.98,27.4 L 14.25,27.39 C 14.4,27.38 14.48,27.29 14.47,27.14 C 14.47,26.89 14.54,26.77 14.67,26.8 Z" fill="rgb(21, 21, 23)"/>
<path d="M 40.85,27.085 L 40.58,27.52 A 0.26,0.26 0 0,0 40.55,27.72 C 40.57,27.84 40.54,27.92 40.45,27.96 A 0.33,0.33 0 0,0 40.31,28.08 L 40.25,28.17 H 40.17 C 40.11,28.14 40.09,28.1 40.12,28.04 L 40.68,26.93 C 40.78,26.95 40.85,27 40.86,27.09 Z" fill="rgb(15, 45, 51)"/>
<path d="M 17.439999999999998,27.015 L 17.93,27.09 C 18.07,27.11 18.13,27.19 18.13,27.33 L 18.11,29.05 C 18.11,29.11 18.08,29.15 18.02,29.15 C 17.98,29.16 17.94,29.15 17.9,29.12 A 0.38,0.38 0 0,1 17.77,28.98 A 0.12,0.12 0 0,1 17.79,28.84 A 0.47,0.47 0 0,0 17.91,28.4 C 17.9,28.34 17.86,28.3 17.81,28.3 L 17.24,28.23 C 17.18,28.23 17.14,28.26 17.14,28.32 C 17.14,28.34 17.13,28.36 17.1,28.37 C 17.06,28.37 17.03,28.37 17.02,28.33 C 16.95,28.13 16.96,27.98 17.05,27.85 A 0.13,0.13 0 0,0 17.05,27.69 L 17.02,27.65 C 16.95,27.55 16.98,27.49 17.1,27.47 L 17.38,27.45 C 17.45,27.44 17.5,27.47 17.52,27.55 L 17.63,27.95 C 17.65,28 17.68,28.05 17.73,28.08 C 17.76,28.1 17.8,28.11 17.83,28.1 C 17.9,28.09 17.93,28.05 17.93,27.99 V 27.95 A 1.36,1.36 0 0,0 17.84,27.42 C 17.76,27.26 17.61,27.18 17.37,27.19 C 17.09,27.21 16.9,27.33 16.8,27.55 C 16.74,27.69 16.7,27.92 16.69,28.25 L 16.67,28.52 C 16.67,28.56 16.68,28.6 16.72,28.62 C 16.75,28.66 16.79,28.67 16.83,28.65 L 17.54,28.48 C 17.56,28.47 17.58,28.48 17.59,28.5 L 17.62,28.57 C 17.64,28.61 17.62,28.63 17.59,28.64 L 16.66,28.81 C 16.56,28.83 16.52,28.79 16.53,28.7 L 16.55,27.54 C 16.55,27.49 16.57,27.44 16.61,27.39 C 16.78,27.22 17.06,27.09 17.45,27.03 Z" fill="rgb(21, 21, 23)"/>
<path d="M 40.85,27.085 L 41.46,27.13 L 41.62,27.59 V 27.79 C 41.54,27.69 41.44,27.59 41.32,27.51 A 0.16,0.16 0 0,1 41.26,27.36 V 27.2 C 41.26,27.18 41.26,27.16 41.23,27.16 L 41.17,27.14 C 41.12,27.14 41.09,27.16 41.07,27.21 C 41.05,27.49 41.15,27.69 41.38,27.82 C 41.41,27.9 41.38,27.95 41.28,27.97 A 0.48,0.48 0 0,0 40.96,27.97 A 0.07,0.07 0 0,0 40.91,28.04 C 40.91,28.08 40.92,28.1 40.96,28.11 C 41.01,28.13 41.06,28.14 41.11,28.12 C 41.17,28.11 41.21,28.12 41.23,28.19 C 41.28,28.37 41.4,28.45 41.6,28.44 C 41.5,28.47 41.43,28.52 41.41,28.6 A 0.48,0.48 0 0,1 41.06,28.71 A 0.26,0.26 0 0,1 40.97,28.61 C 40.99,28.59 40.99,28.57 40.98,28.55 C 40.98,28.52 40.96,28.52 40.93,28.52 L 40.66,28.58 C 40.58,28.59 40.55,28.56 40.56,28.48 V 28.18 A 0.14,0.14 0 0,0 40.53,28.08 A 0.08,0.08 0 0,0 40.45,28.05 C 40.41,28.06 40.39,28.09 40.38,28.13 V 28.28 A 0.3,0.3 0 0,0 40.25,28.17 L 40.31,28.07 A 0.33,0.33 0 0,1 40.44,27.96 C 40.54,27.92 40.57,27.84 40.54,27.72 A 0.26,0.26 0 0,1 40.58,27.52 L 40.86,27.09 Z" fill="rgb(120, 138, 177)"/>
<path d="M 41.61,27.575 L 41.46,27.13 C 41.61,27.06 41.73,27.06 41.8,27.13 C 41.85,27.17 41.86,27.23 41.84,27.29 A 0.61,0.61 0 0,1 41.62,27.59 Z" fill="rgb(21, 21, 23)"/>
<path d="M 41.61,27.785 C 41.65,27.87 41.73,27.88 41.88,27.82 C 41.91,27.8 41.94,27.82 41.95,27.84 L 42,27.93 C 42.02,27.96 42.01,27.99 41.97,28 C 41.69,28.08 41.49,28.02 41.38,27.82 A 0.57,0.57 0 0,1 41.08,27.22 C 41.08,27.16 41.12,27.13 41.18,27.14 L 41.23,27.16 C 41.25,27.16 41.26,27.18 41.26,27.2 V 27.36 C 41.26,27.42 41.28,27.47 41.33,27.51 C 41.44,27.59 41.54,27.68 41.62,27.8 Z M 38.8,28.23 L 38.82,28.78 C 38.82,28.84 38.79,28.88 38.73,28.88 H 38.68 C 38.62,28.88 38.58,28.86 38.58,28.79 V 28.31 C 38.58,28.24 38.54,28.22 38.48,28.25 A 0.48,0.48 0 0,0 38.32,28.35 A 0.24,0.24 0 0,1 38.08,28.43 C 37.9,28.4 37.76,28.46 37.66,28.63 C 37.62,28.68 37.56,28.7 37.51,28.65 C 37.49,28.65 37.48,28.63 37.48,28.6 A 0.1,0.1 0 0,1 37.52,28.53 C 37.7,28.37 37.72,28.23 37.6,28.13 L 37.62,27.41 C 37.62,27.35 37.65,27.31 37.72,27.3 C 37.92,27.25 38.16,27.28 38.42,27.38 C 38.52,27.39 38.58,27.38 38.62,27.32 L 39.12,27.22 C 39.16,27.22 39.19,27.23 39.22,27.27 A 0.1,0.1 0 0,1 39.22,27.39 A 0.28,0.28 0 0,1 39.01,27.54 C 38.94,27.54 38.9,27.58 38.88,27.64 C 38.82,27.84 38.8,28.04 38.81,28.23 Z" fill="rgb(21, 21, 23)"/>
<path d="M 15.01,27.765 C 15.16,27.74 15.26,27.62 15.23,27.52 C 15.21,27.41 15.07,27.35 14.93,27.39 C 14.78,27.42 14.68,27.54 14.71,27.65 C 14.73,27.75 14.87,27.81 15.01,27.78 Z" fill="rgb(220, 231, 237)"/>
<path d="M 38.56,27.785 L 38.24,28.18 A 0.1,0.1 0 0,1 38.12,28.22 A 0.1,0.1 0 0,1 38.05,28.12 L 38.02,27.58 A 0.1,0.1 0 0,1 38.07,27.48 A 0.1,0.1 0 0,1 38.17,27.47 L 38.53,27.63 C 38.62,27.67 38.63,27.73 38.57,27.8 Z M 14.29,27.9 C 14.41,27.9 14.51,27.83 14.52,27.73 C 14.52,27.63 14.42,27.53 14.31,27.53 C 14.19,27.53 14.09,27.6 14.08,27.7 C 14.08,27.8 14.17,27.89 14.28,27.9 Z" fill="rgb(156, 193, 210)"/>
<path d="M 25.869999999999997,28.055 C 25.81,28.27 25.8,28.46 25.88,28.48 C 25.94,28.51 26.06,28.37 26.13,28.17 C 26.21,27.97 26.21,27.79 26.14,27.76 C 26.07,27.73 25.95,27.87 25.88,28.07 Z" fill="rgb(148, 189, 215)"/>
<path d="M 15.33,31.145 L 15.82,32.34 V 32.7 C 15.83,32.77 15.8,32.8 15.72,32.8 L 15.12,32.73 A 0.97,0.97 0 0,1 14.24,31.95 C 14.22,31.87 14.19,31.87 14.14,31.93 L 14.07,32.03 A 3.5,3.5 0 0,1 13.81,31.28 C 13.69,30.32 13.61,29.68 13.56,29.38 A 0.36,0.36 0 0,0 13.46,29.2 C 13.41,29.14 13.38,29.15 13.37,29.23 L 13.35,29.4 C 13.24,28.8 13.29,28.28 13.51,27.84 C 13.73,28.19 13.79,28.57 13.7,28.99 C 13.68,29.05 13.7,29.09 13.76,29.13 C 14.08,29.31 14.36,29.55 14.58,29.85 C 14.72,30.04 14.9,30.35 15.13,30.77 L 15.34,31.17 Z" fill="rgb(120, 157, 199)"/>
<path d="M 41.260000000000005,27.955 L 41.57,28.26 A 0.2,0.2 0 0,0 41.75,28.32 C 41.84,28.32 41.93,28.32 42.02,28.34 C 42.1,28.36 42.14,28.42 42.14,28.5 V 28.57 C 42.14,28.65 42.11,28.67 42.04,28.64 L 41.6,28.44 C 41.4,28.45 41.28,28.37 41.23,28.19 C 41.21,28.13 41.17,28.11 41.11,28.12 A 0.24,0.24 0 0,1 40.95,28.12 C 40.92,28.1 40.91,28.08 40.91,28.04 C 40.91,28.01 40.93,27.99 40.96,27.97 C 41.06,27.94 41.17,27.94 41.27,27.97 Z" fill="rgb(21, 21, 23)"/>
<path d="M 22.22,27.945 C 22.53,28.16 22.75,28.39 22.88,28.66 C 22.9,28.72 22.95,28.75 23.01,28.75 C 23.21,28.75 23.39,28.7 23.57,28.59 L 25.12,29.35 C 25.2,29.39 25.26,29.45 25.29,29.53 C 25.41,29.86 25.55,30.21 25.73,30.59 C 25.76,30.66 25.73,30.69 25.66,30.69 C 25.64,30.69 25.62,30.69 25.6,30.71 C 25.57,30.74 25.58,30.76 25.6,30.79 C 25.81,30.93 26.04,30.97 26.29,30.91 A 0.3,0.3 0 0,1 26.47,30.93 L 27.94,31.51 C 27.99,31.77 28.11,31.96 28.32,32.09 A 0.6,0.6 0 0,0 28.52,32.17 C 28.75,32.21 28.91,32.37 28.98,32.66 C 29.01,32.76 29.08,32.82 29.18,32.81 C 29.31,32.81 29.42,32.89 29.53,33.06 L 29.6,33.1 C 29.64,33.12 29.64,33.14 29.6,33.16 C 29.3,33.33 29.18,33.66 29.25,34.13 C 28.63,34.18 28.32,33.98 28.3,33.52 C 28.3,33.45 28.26,33.41 28.2,33.4 C 27.75,33.32 27.38,33.4 27.08,33.61 A 0.28,0.28 0 0,1 26.88,33.67 A 0.88,0.88 0 0,1 26.55,33.56 A 0.15,0.15 0 0,0 26.35,33.57 C 26,33.87 25.66,33.84 25.35,33.49 C 25.05,33.14 24.75,32.77 24.45,32.36 C 24.35,32.21 24.22,32.06 24.07,31.93 A 14.2,14.2 0 0,1 23.64,31.53 L 22.6,30.01 A 4.5,4.5 0 0,0 22.14,28.83 A 0.77,0.77 0 0,1 22.24,27.96 Z" fill="rgb(57, 34, 85)"/>
<path d="M 40.96,28.605 L 40.48,28.79 C 40.42,28.81 40.39,28.79 40.39,28.72 V 28.28 A 0.29,0.29 0 0,1 40.38,28.13 C 40.38,28.09 40.41,28.06 40.45,28.05 C 40.48,28.05 40.51,28.05 40.53,28.09 C 40.55,28.11 40.56,28.14 40.56,28.18 V 28.48 C 40.55,28.56 40.58,28.59 40.66,28.58 L 40.93,28.52 C 40.96,28.52 40.97,28.52 40.98,28.55 C 40.99,28.57 40.98,28.59 40.98,28.62 Z M 39.46,28.36 C 39.5,28.46 39.51,28.54 39.48,28.58 C 39.45,28.65 39.4,28.66 39.34,28.63 A 0.6,0.6 0 0,1 39.02,28.25 C 39.09,28.03 39.24,28.06 39.46,28.36 Z" fill="rgb(15, 45, 51)"/>
<path d="M 41.39,28.585 C 41.44,28.66 41.46,28.73 41.45,28.79 C 41.45,28.91 41.37,28.96 41.23,28.92 L 41.06,28.71 C 41.18,28.72 41.29,28.69 41.41,28.6 Z" fill="rgb(21, 21, 23)"/>
<path d="M 35.79,32.315 C 35.77,32.59 35.63,32.85 35.38,33.13 A 4.45,4.45 0 0,0 35.08,33.53 C 35.08,33.41 35.05,33.33 35,33.27 S 34.9,33.21 34.85,33.25 L 34.69,33.38 C 34.66,33.41 34.64,33.4 34.62,33.38 L 34.58,33.32 C 34.56,33.29 34.56,33.26 34.6,33.23 C 34.8,33.1 34.87,32.91 34.8,32.68 A 7.82,7.82 0 0,0 34.37,31.61 A 0.19,0.19 0 0,0 34.18,31.5 A 0.19,0.19 0 0,0 34,31.61 A 0.68,0.68 0 0,1 33.76,31.87 C 33.43,32.1 33.06,32.27 32.65,32.37 A 5.88,5.88 0 0,0 34.03,30.94 A 0.24,0.24 0 0,1 34.17,30.84 A 4.8,4.8 0 0,0 35.92,29.44 C 35.96,29.41 36,29.41 36.02,29.46 L 36.06,29.51 C 36.09,29.55 36.08,29.58 36.06,29.61 L 34.66,31.01 A 0.35,0.35 0 0,0 34.59,31.43 C 34.78,31.85 35.03,32.27 35.34,32.67 C 35.36,32.69 35.39,32.7 35.43,32.7 C 35.46,32.7 35.49,32.67 35.5,32.63 A 0.45,0.45 0 0,1 35.8,32.33 Z" fill="rgb(105, 83, 136)"/>
<path d="M 26.619999999999997,29.884999999999998 C 26.73,29.84 26.76,29.73 26.71,29.66 C 26.66,29.59 26.54,29.58 26.45,29.64 C 26.36,29.71 26.33,29.82 26.38,29.89 C 26.43,29.97 26.54,29.97 26.63,29.91 Z M 23.61,30.9 C 23.47,30.7 23.45,30.52 23.56,30.36 C 23.64,30.26 23.77,30.18 23.94,30.16 C 24.27,30.1 24.55,29.96 24.8,29.73 C 25.01,29.53 25.1,29.58 25.09,29.87 V 30.15 C 25.08,30.55 25.04,30.81 24.96,30.96 C 24.87,31.11 24.8,31.26 24.75,31.43 C 24.73,31.49 24.68,31.51 24.62,31.5 A 1.5,1.5 0 0,1 23.62,30.9 Z" fill="rgb(167, 184, 197)"/>
<path d="M 25.34,31.785 C 25.27,31.84 25.23,31.82 25.25,31.72 L 25.3,31.41 C 25.31,31.31 25.37,31.26 25.47,31.27 L 25.87,31.33 C 25.92,31.33 25.95,31.36 25.96,31.41 C 25.96,31.46 25.95,31.49 25.9,31.51 L 25.35,31.8 Z" fill="rgb(120, 157, 199)"/>
<path d="M 29.959999999999997,32.095 C 30.2,32.17 30.44,32.35 30.67,32.66 C 30.83,32.86 30.97,33 31.08,33.08 C 31.2,33.16 31.18,33.21 31.04,33.22 C 30.91,33.22 30.77,33.15 30.6,33 C 30.47,32.88 30.37,32.81 30.28,32.8 C 30.14,32.77 29.98,32.84 29.78,33.01 C 29.71,33.06 29.63,33.08 29.53,33.06 C 29.43,32.89 29.31,32.81 29.18,32.81 C 29.08,32.81 29.01,32.77 28.98,32.66 C 28.91,32.37 28.75,32.21 28.51,32.16 A 0.55,0.55 0 0,1 28.31,32.09 A 0.82,0.82 0 0,1 27.94,31.51 C 28.2,31.5 28.36,31.63 28.44,31.89 C 28.44,31.94 28.48,31.98 28.52,31.99 C 28.57,32 28.62,31.99 28.65,31.96 A 0.8,0.8 0 0,1 29.05,31.76 A 0.2,0.2 0 0,1 29.23,31.8 C 29.45,31.96 29.69,32.07 29.97,32.11 Z" fill="rgb(194, 180, 211)"/>
<path d="M 35.06,33.515 A 11.5,11.5 0 0,1 32.87,35.61 A 4.3,4.3 0 0,1 30.77,35.53 L 30.38,34.69 L 32.65,32.37 A 3.6,3.6 0 0,0 33.76,31.87 C 33.87,31.79 33.96,31.71 34,31.61 C 34.04,31.53 34.1,31.5 34.18,31.5 C 34.27,31.5 34.33,31.53 34.36,31.61 C 34.53,31.95 34.68,32.31 34.8,32.68 C 34.87,32.91 34.8,33.1 34.6,33.23 C 34.56,33.26 34.56,33.29 34.58,33.32 L 34.62,33.37 C 34.64,33.4 34.66,33.41 34.69,33.38 L 34.85,33.25 C 34.9,33.21 34.95,33.21 35,33.27 C 35.05,33.33 35.07,33.41 35.07,33.53 Z" fill="rgb(55, 34, 61)"/>
<path d="M 23.63,31.525 L 24.07,31.94 C 24.22,32.06 24.35,32.21 24.46,32.36 C 24.75,32.76 25.04,33.14 25.35,33.49 C 25.66,33.84 26,33.87 26.35,33.57 A 0.15,0.15 0 0,1 26.55,33.56 C 26.65,33.62 26.75,33.66 26.87,33.66 C 26.95,33.68 27.02,33.66 27.08,33.61 C 27.38,33.39 27.75,33.31 28.2,33.4 C 28.26,33.4 28.3,33.45 28.3,33.52 C 28.32,33.98 28.63,34.18 29.25,34.12 C 29.25,33.9 29.27,33.72 29.35,33.59 A 0.23,0.23 0 0,1 29.57,33.46 C 29.67,33.46 29.74,33.51 29.78,33.59 L 30.23,34.43 C 30.13,34.72 29.89,35.05 29.49,35.43 A 26.5,26.5 0 0,0 27.36,35.27 A 0.9,0.9 0 0,1 26.64,34.87 A 3.4,3.4 0 0,0 25.83,34.06 C 25.77,34.02 25.73,34.03 25.73,34.1 V 34.18 C 25.71,34.28 25.75,34.36 25.83,34.42 C 26.03,34.55 26.23,34.7 26.41,34.86 A 0.3,0.3 0 0,1 26.5,35.14 C 26.49,35.21 26.51,35.28 26.57,35.32 C 26.76,35.46 26.96,35.55 27.17,35.59 C 27.23,35.59 27.28,35.59 27.34,35.56 C 27.52,35.46 27.65,35.46 27.72,35.56 C 27.67,35.66 27.72,35.86 27.89,36.12 C 27.98,36.28 28.11,36.41 28.29,36.52 C 28.59,36.71 28.89,36.88 29.17,37.02 L 27.21,37.08 L 28.01,37.04 C 28.11,37.04 28.15,36.99 28.15,36.9 C 28.13,36.63 28,36.46 27.73,36.4 A 0.21,0.21 0 0,1 27.59,36.28 A 0.82,0.82 0 0,0 27.15,35.88 L 27.12,35.86 A 1.36,1.36 0 0,0 26.52,35.46 C 26.21,35.4 25.88,35.34 25.56,35.3 C 25.46,35.25 25.34,35.22 25.2,35.2 C 25.15,35.2 25.14,35.17 25.16,35.12 L 25.19,35.05 A 0.07,0.07 0 0,1 25.26,35.01 L 26.06,35.05 C 26.31,35.05 26.35,34.98 26.16,34.81 L 25.43,34.08 C 25.03,33.48 24.72,33.01 24.46,32.69 C 24.3,32.48 24,32.29 23.57,32.09 L 23.18,31.91 C 22.96,31.79 22.97,31.7 23.21,31.64 L 23.64,31.54 Z" fill="rgb(112, 136, 153)"/>
<path d="M 41.830000000000005,32.365 A 13.95,13.95 0 0,1 40.33,35.61 A 4.78,4.78 0 0,0 39.56,35.56 A 2.8,2.8 0 0,1 38.81,35.47 C 38.19,35.31 37.53,35.19 36.83,35.13 C 36.64,35.11 36.54,35.01 36.53,34.81 A 6.76,6.76 0 0,1 36.63,33 C 36.66,32.84 36.75,32.78 36.91,32.83 C 37.83,33.12 38.69,33.11 39.49,32.81 A 4.53,4.53 0 0,1 41.84,32.38 Z" fill="rgb(129, 170, 209)"/>
<path d="M 15.92,35.525 C 15.83,35.26 15.68,35 15.5,34.76 A 0.3,0.3 0 0,1 15.44,34.59 C 15.42,34.09 15.27,33.64 14.99,33.25 C 14.93,33.18 14.95,33.14 15.04,33.14 A 0.4,0.4 0 0,1 15.37,33.28 C 15.8,33.78 16.17,34.38 16.49,35.09 C 16.57,35.26 16.54,35.42 16.41,35.55 L 16.33,35.63 C 16.15,35.82 16.02,35.79 15.93,35.54 Z" fill="rgb(120, 157, 199)"/>
<path d="M 35.14,33.405 L 35.26,33.68 C 35.56,34.36 35.68,34.9 35.61,35.29 C 35.55,35.13 35.45,35.07 35.31,35.1 C 34.98,35.19 34.81,35.4 34.81,35.78 C 34.51,35.8 34.17,35.81 33.76,35.8 C 33.66,35.8 33.51,35.77 33.32,35.7 A 2.86,2.86 0 0,0 32.87,35.61 A 11.5,11.5 0 0,0 35.15,33.41 Z" fill="rgb(148, 189, 215)"/>
<path d="M 25.549999999999997,35.285 C 24.95,35.3 24.53,35.07 24.3,34.62 C 24.4,34.22 24.78,34.05 25.43,34.08 L 26.17,34.81 C 26.35,34.98 26.31,35.06 26.07,35.05 L 25.26,35.01 A 0.07,0.07 0 0,0 25.19,35.05 L 25.16,35.12 C 25.14,35.17 25.16,35.2 25.2,35.2 C 25.34,35.22 25.46,35.25 25.56,35.3 Z M 30.38,34.69 L 30.78,35.53 L 29.48,35.43 C 29.89,35.05 30.14,34.72 30.23,34.43 C 30.28,34.45 30.33,34.53 30.38,34.69 Z" fill="rgb(72, 110, 124)"/>
<path d="M 24.29,34.605 C 24.52,35.07 24.95,35.3 25.56,35.3 C 25.88,35.34 26.21,35.4 26.53,35.47 A 1.36,1.36 0 0,1 27.15,35.88 C 26.67,35.77 26.15,35.74 25.62,35.81 C 25.5,35.82 25.32,35.81 25.09,35.77 L 24.87,35.74 C 24.7,35.72 24.59,35.61 24.57,35.41 C 24.57,35.34 24.53,35.3 24.47,35.27 A 2.56,2.56 0 0,0 23.45,34.96 L 24.3,34.62 Z" fill="rgb(35, 83, 106)"/>
<path d="M 19.63,35.755 A 0.53,0.53 0 0,0 19.45,35.52 C 19.18,35.31 19.21,35.17 19.55,35.1 C 19.85,35.04 20.2,35 20.58,34.98 A 0.1,0.1 0 0,1 20.68,35.04 A 0.2,0.2 0 0,1 20.68,35.19 A 0.17,0.17 0 0,1 20.61,35.26 C 20.3,35.46 20.11,35.72 20.04,36.01 C 20.04,36.06 20,36.08 19.95,36.07 C 19.85,36.05 19.75,36.07 19.65,36.13 C 19.51,36.21 19.46,36.17 19.51,36.01 A 0.15,0.15 0 0,1 19.59,35.92 C 19.65,35.89 19.66,35.84 19.64,35.77 Z" fill="rgb(55, 34, 61)"/>
<path d="M 23.439999999999998,34.945 C 23.88,35.01 24.23,35.12 24.48,35.26 C 24.53,35.3 24.56,35.34 24.57,35.41 C 24.59,35.61 24.7,35.72 24.87,35.74 L 25.09,35.77 C 25.33,35.81 25.5,35.82 25.62,35.81 A 4.35,4.35 0 0,1 27.15,35.88 C 27.25,36 27.32,36.11 27.35,36.2 C 27.38,36.26 27.37,36.32 27.32,36.36 L 26.59,36.99 A 8.28,8.28 0 0,1 23.59,36.07 L 22.34,35.27 L 23.45,34.96 Z M 35.6,35.3 A 0.4,0.4 0 0,1 35.27,35.43 A 0.18,0.18 0 0,0 35.12,35.49 C 35.03,35.59 35.02,35.71 35.1,35.86 C 35.11,35.89 35.14,35.91 35.18,35.91 C 35.21,35.91 35.24,35.89 35.26,35.86 A 0.6,0.6 0 0,1 35.66,35.56 C 35.8,35.53 35.92,35.57 36.04,35.68 C 36.14,35.78 36.21,35.91 36.24,36.07 A 0.6,0.6 0 0,1 36.2,36.48 C 36.14,36.61 36.02,36.68 35.85,36.67 C 35.74,36.67 35.63,36.67 35.53,36.65 A 0.3,0.3 0 0,1 35.33,36.55 C 35.07,36.25 34.89,35.99 34.81,35.78 C 34.81,35.41 34.98,35.18 35.31,35.1 C 35.45,35.07 35.55,35.13 35.61,35.3 Z" fill="rgb(39, 44, 66)"/>
<path d="M 20.139999999999997,35.335 L 19.91,35.59 A 0.1,0.1 0 0,1 19.81,35.62 A 0.1,0.1 0 0,1 19.73,35.55 L 19.69,35.42 C 19.65,35.34 19.68,35.29 19.76,35.28 A 0.89,0.89 0 0,1 20.13,35.28 C 20.18,35.28 20.19,35.31 20.15,35.35 Z" fill="rgb(220, 231, 237)"/>
<path d="M 27.709999999999997,35.545 L 30.31,35.81 L 30.37,36.14 C 30.38,36.21 30.36,36.27 30.3,36.3 A 6.3,6.3 0 0,0 29.76,36.67 C 29.65,36.76 29.66,36.81 29.8,36.83 L 29.92,36.85 L 29.17,37.02 A 11.9,11.9 0 0,1 28.29,36.52 A 1.2,1.2 0 0,1 27.89,36.12 C 27.72,35.85 27.67,35.67 27.72,35.56 Z" fill="rgb(72, 110, 124)"/>
<path d="M 21.45,35.725 A 1,1 0 0,1 21.91,36.11 C 21.99,36.26 21.96,36.45 21.81,36.67 C 21.52,37.17 21.23,37.4 20.95,37.37 A 0.45,0.45 0 0,1 20.63,37.19 A 0.46,0.46 0 0,1 20.54,36.83 C 20.61,36.36 20.92,36 21.46,35.73 Z" fill="rgb(21, 21, 23)"/>
<path d="M 29.91,36.835 L 29.8,36.83 C 29.66,36.81 29.65,36.76 29.76,36.67 C 29.94,36.54 30.12,36.41 30.3,36.3 C 30.36,36.27 30.38,36.21 30.37,36.14 L 30.31,35.81 C 30.85,35.81 31.38,35.86 31.89,35.95 C 32.14,35.99 32.15,36.06 31.92,36.17 C 31.33,36.44 30.66,36.67 29.92,36.85 Z" fill="rgb(39, 44, 66)"/>
<path d="M 35.6,36.445 C 35.8,36.54 36,36.46 36.06,36.28 C 36.13,36.11 36.03,35.91 35.85,35.84 S 35.46,35.84 35.4,36.02 C 35.33,36.19 35.43,36.39 35.61,36.46 Z" fill="rgb(112, 136, 153)"/>
<path d="M 27.2,37.065 L 26.59,36.98 L 27.32,36.36 C 27.37,36.32 27.38,36.26 27.36,36.2 C 27.32,36.1 27.26,36 27.15,35.88 C 27.35,35.96 27.5,36.1 27.59,36.28 C 27.62,36.34 27.67,36.38 27.73,36.39 C 28,36.46 28.13,36.63 28.15,36.89 C 28.15,36.99 28.11,37.04 28.02,37.04 L 27.22,37.08 Z" fill="rgb(55, 34, 61)"/>
<path d="M 40.050000000000004,36.025 A 10.72,10.72 0 0,1 37.47,38.96 C 37.06,39.33 36.73,39.59 36.5,39.74 A 0.83,0.83 0 0,1 36.54,39.32 L 36.71,38.53 C 36.81,38.68 36.91,38.76 37.03,38.76 C 37.06,38.76 37.08,38.74 37.1,38.72 A 0.07,0.07 0 0,0 37.09,38.64 L 36.63,38.02 C 36.53,37.9 36.55,37.79 36.67,37.71 A 0.36,0.36 0 0,1 36.74,37.67 C 36.89,37.62 37.01,37.66 37.1,37.79 C 37.2,37.95 37.32,38.09 37.45,38.24 A 0.2,0.2 0 0,0 37.54,38.29 C 37.58,38.29 37.61,38.27 37.63,38.21 A 0.1,0.1 0 0,0 37.63,38.13 C 37.37,37.61 37.06,37.35 36.68,37.37 L 36.57,36.22 C 36.55,36.06 36.62,35.98 36.78,35.98 L 40.06,36.04 Z" fill="rgb(130, 180, 205)"/>
<path d="M 20.95,36.365 C 20.75,36.68 20.69,37.01 20.85,37.13 C 21,37.24 21.3,37.1 21.51,36.8 C 21.73,36.51 21.78,36.18 21.63,36.06 C 21.48,35.95 21.18,36.09 20.96,36.38 Z" fill="rgb(202, 215, 229)"/>
<path d="M 33.690000000000005,36.815 C 33.71,36.88 33.75,36.91 33.8,36.92 C 33.85,36.92 33.89,36.92 33.93,36.88 C 34.25,36.6 34.53,36.63 34.74,36.96 C 34.89,37.18 34.9,37.38 34.76,37.56 C 34.52,37.87 34.26,37.91 33.97,37.68 A 1.93,1.93 0 0,1 33.44,36.89 C 33.35,36.68 33.41,36.49 33.63,36.35 C 33.83,36.2 34.03,36.17 34.23,36.26 A 0.1,0.1 0 0,1 34.28,36.31 C 34.31,36.37 34.31,36.41 34.28,36.44 A 0.12,0.12 0 0,1 34.18,36.45 A 0.51,0.51 0 0,0 33.89,36.45 C 33.79,36.48 33.72,36.54 33.69,36.63 A 0.28,0.28 0 0,0 33.69,36.83 Z" fill="rgb(39, 44, 66)"/>
<path d="M 23.16,37.845 C 23.04,38.14 22.88,38.29 22.68,38.34 C 22.43,38.4 22.25,38.34 22.15,38.16 C 22,37.9 22.07,37.55 22.37,37.1 C 22.52,36.88 22.67,36.76 22.81,36.74 C 23.07,36.69 23.25,36.8 23.34,37.07 C 23.42,37.31 23.36,37.57 23.17,37.87 Z" fill="rgb(21, 21, 23)"/>
<path d="M 19.259999999999998,37.315 C 19.27,37.47 19.24,37.62 19.19,37.75 C 19.16,37.81 19.18,37.85 19.24,37.89 C 19.31,37.92 19.38,37.91 19.46,37.86 C 19.49,37.78 19.57,37.74 19.72,37.74 C 19.69,38 19.58,38.17 19.4,38.24 L 18.81,38.52 A 0.13,0.13 0 0,1 18.65,38.49 A 0.14,0.14 0 0,1 18.61,38.33 L 18.71,38.08 A 0.1,0.1 0 0,0 18.71,38.02 C 18.71,37.98 18.69,37.96 18.66,37.95 C 18.64,37.95 18.61,37.95 18.59,37.97 A 0.35,0.35 0 0,1 18.22,38.07 C 18.15,38.05 18.12,38 18.12,37.93 A 0.71,0.71 0 0,1 18.29,37.38 A 0.2,0.2 0 0,0 18.35,37.21 L 18.32,37.02 C 18.32,36.92 18.36,36.89 18.45,36.92 C 18.55,36.94 18.62,36.99 18.68,37.06 C 18.73,37.12 18.74,37.18 18.7,37.25 L 18.62,37.42 C 18.6,37.45 18.61,37.47 18.62,37.5 C 18.65,37.53 18.68,37.54 18.72,37.53 C 18.74,37.53 18.77,37.51 18.79,37.48 C 18.89,37.36 19.06,37.3 19.27,37.33 Z" fill="rgb(50, 55, 109)"/>
<path d="M 22.43,37.394999999999996 C 22.28,37.74 22.28,38.06 22.44,38.15 C 22.6,38.23 22.86,38.04 23.02,37.71 C 23.18,37.39 23.18,37.06 23.02,36.98 C 22.86,36.9 22.6,37.09 22.44,37.41 Z" fill="rgb(220, 231, 237)"/>
<path d="M 34.15,37.485 C 34.33,37.6 34.52,37.56 34.59,37.43 S 34.58,37.12 34.41,37.03 C 34.25,36.93 34.06,36.97 33.99,37.1 C 33.92,37.24 33.99,37.42 34.16,37.5 Z" fill="rgb(120, 157, 199)"/>
<path d="M 32.330000000000005,38.685 A 1.5,1.5 0 0,0 32.04,38.15 C 32.04,38.13 32.04,38.11 32.02,38.08 C 31.92,37.74 31.92,37.5 31.99,37.35 C 32.1,37.14 32.27,37.05 32.49,37.07 C 32.7,37.09 32.87,37.21 32.98,37.43 C 33.28,37.99 33.29,38.37 33.04,38.57 C 32.88,38.68 32.64,38.73 32.34,38.71 Z" fill="rgb(39, 44, 66)"/>
<path d="M 32.03,38.135 C 32.19,38.33 32.29,38.52 32.34,38.71 C 33.21,39.39 34.21,39.68 35.34,39.58 C 35.98,39.73 36.24,39.53 36.16,38.98 A 0.94,0.94 0 0,1 36.31,38.08 L 36.71,38.53 L 36.54,39.32 C 36.34,39.71 36.14,39.94 35.94,40 A 3.1,3.1 0 0,1 33.47,39.82 C 32.57,39.36 31.71,39.02 30.88,38.83 C 30.85,38.25 30.64,37.91 30.25,37.81 L 29.52,37.34 C 29.48,37.32 29.48,37.3 29.5,37.26 L 29.53,37.22 C 29.56,37.15 29.61,37.14 29.68,37.16 L 32.04,38.15 Z" fill="rgb(220, 231, 237)"/>
<path d="M 32.27,38.015 C 32.42,38.36 32.67,38.57 32.83,38.49 C 33,38.42 33.03,38.09 32.88,37.77 C 32.75,37.44 32.5,37.23 32.33,37.31 C 32.17,37.38 32.15,37.71 32.28,38.03 Z" fill="rgb(148, 189, 215)"/>
<path d="M 36.7,38.515 L 36.31,38.07 A 0.34,0.34 0 0,1 36.25,37.94 A 0.14,0.14 0 0,1 36.31,37.79 C 36.45,37.69 36.57,37.55 36.68,37.37 C 37.06,37.35 37.38,37.61 37.62,38.13 A 0.1,0.1 0 0,1 37.62,38.21 C 37.61,38.27 37.58,38.3 37.54,38.29 A 0.17,0.17 0 0,1 37.45,38.24 C 37.32,38.09 37.2,37.94 37.1,37.79 C 37,37.66 36.89,37.62 36.74,37.67 A 0.36,0.36 0 0,0 36.67,37.71 C 36.55,37.79 36.53,37.9 36.63,38.01 L 37.09,38.64 C 37.11,38.66 37.11,38.69 37.09,38.72 A 0.07,0.07 0 0,1 37.03,38.76 C 36.91,38.76 36.8,38.68 36.71,38.53 Z M 25.54,38.68 C 25.44,39.11 25.18,39.34 24.79,39.36 A 0.81,0.81 0 0,1 24.45,38.83 C 24.45,38.41 24.57,38.04 24.82,37.73 C 25.18,37.54 25.43,37.61 25.59,37.93 C 25.69,38.11 25.67,38.36 25.54,38.68 Z M 30.25,37.8 C 30.64,37.9 30.85,38.25 30.88,38.83 C 30.79,39.43 30.45,39.62 29.88,39.37 C 29.85,39.36 29.84,39.33 29.85,39.3 L 29.86,39.25 C 29.89,39.18 29.93,39.15 29.99,39.18 C 30.14,39.22 30.29,39.22 30.45,39.15 A 0.18,0.18 0 0,0 30.57,38.99 L 30.58,38.92 C 30.58,38.84 30.56,38.82 30.48,38.85 C 30.28,38.94 30.11,38.94 29.95,38.85 A 0.53,0.53 0 0,1 29.68,38.5 A 0.53,0.53 0 0,1 29.76,38.05 C 29.86,37.9 30.03,37.82 30.26,37.81 Z" fill="rgb(39, 44, 66)"/>
<path d="M 24.75,38.405 C 24.66,38.75 24.71,39.06 24.86,39.1 C 25.02,39.15 25.21,38.91 25.31,38.58 C 25.41,38.24 25.36,37.93 25.21,37.88 C 25.05,37.84 24.85,38.08 24.76,38.42 Z" fill="rgb(220, 231, 237)"/>
<path d="M 27.31,38.385 A 0.92,0.92 0 0,0 27.19,38.98 C 27.22,39.2 27.21,39.35 27.19,39.41 C 27.08,39.63 26.89,39.71 26.62,39.64 A 0.57,0.57 0 0,1 26.16,39.14 C 26.32,38.88 26.39,38.59 26.37,38.28 A 0.2,0.2 0 0,1 26.43,38.12 A 0.52,0.52 0 0,1 26.96,38 C 27.18,38.05 27.3,38.19 27.32,38.4 Z M 27.98,39.6 C 28.11,39.3 28.28,39.07 28.52,38.94 C 28.71,38.84 28.78,38.67 28.75,38.46 C 28.72,38.26 28.63,38.18 28.48,38.23 A 0.51,0.51 0 0,0 28.28,38.37 C 28.16,38.51 28.08,38.53 28.03,38.44 C 28.08,38.12 28.3,37.99 28.69,38.05 C 28.87,38.08 28.98,38.19 29,38.38 C 29.03,38.62 28.9,38.88 28.61,39.17 L 28.46,39.32 C 28.36,39.42 28.38,39.47 28.52,39.46 L 28.9,39.42 C 28.95,39.42 28.98,39.44 28.98,39.49 V 39.57 C 28.98,39.6 28.98,39.63 28.94,39.63 C 28.6,39.71 28.28,39.69 27.98,39.6 Z" fill="rgb(39, 44, 66)"/>
<path d="M 29.919999999999998,38.415 C 29.98,38.61 30.13,38.73 30.29,38.69 C 30.44,38.65 30.52,38.47 30.48,38.29 C 30.43,38.1 30.28,37.99 30.12,38.03 C 29.97,38.06 29.89,38.24 29.93,38.43 Z" fill="rgb(167, 184, 197)"/>
<path d="M 23.99,38.385 C 23.79,38.48 23.61,38.43 23.47,38.23 C 23.71,37.98 23.89,38.03 24.01,38.4 Z" fill="rgb(39, 44, 66)"/>
<path d="M 26.849999999999998,38.595 C 26.99,38.58 27.08,38.46 27.05,38.36 S 26.9,38.19 26.77,38.22 C 26.64,38.26 26.56,38.37 26.59,38.48 C 26.61,38.58 26.74,38.64 26.86,38.61 Z" fill="rgb(183, 217, 222)"/>
<path d="M 27.97,39.585 L 27.93,40.39 C 27.93,40.5 27.92,40.6 27.88,40.69 C 27.85,40.74 27.81,40.77 27.75,40.77 C 27.41,40.74 27.18,40.89 27.08,41.22 C 26.78,41.22 26.56,41.12 26.44,40.92 C 26.17,40.47 25.82,40.5 25.4,41.03 L 23.37,40.1 A 0.25,0.25 0 0,0 23.35,40.01 C 23.34,39.99 23.32,39.98 23.29,39.98 C 23.24,39.98 23.19,40 23.14,40.04 C 23.58,39.6 24.12,39.38 24.79,39.36 C 25.19,39.34 25.43,39.11 25.54,38.68 C 25.79,38.81 26,38.96 26.16,39.14 C 26.2,39.4 26.35,39.57 26.62,39.64 S 27.08,39.64 27.18,39.41 C 27.21,39.35 27.22,39.21 27.19,38.98 A 0.92,0.92 0 0,1 27.32,38.41 C 27.56,38.36 27.8,38.37 28.03,38.44 C 28.08,38.53 28.16,38.51 28.29,38.37 A 0.6,0.6 0 0,1 28.49,38.23 C 28.63,38.18 28.72,38.25 28.75,38.46 C 28.78,38.67 28.71,38.83 28.52,38.94 A 1.3,1.3 0 0,0 27.98,39.6 Z" fill="rgb(202, 215, 229)"/>
<path d="M 20.34,38.525 A 0.5,0.5 0 0,0 20.28,38.84 C 20.28,38.91 20.32,38.94 20.38,38.93 A 0.3,0.3 0 0,0 20.63,38.72 A 0.12,0.12 0 0,1 20.73,38.62 C 20.79,38.62 20.83,38.64 20.86,38.68 C 20.95,38.8 20.96,38.93 20.87,39.07 A 0.25,0.25 0 0,0 20.84,39.23 C 20.84,39.25 20.84,39.27 20.86,39.28 C 20.89,39.32 20.93,39.33 20.97,39.29 L 21.39,38.97 C 21.48,39.15 21.46,39.28 21.34,39.35 C 21.12,39.47 20.94,39.62 20.77,39.78 C 20.57,39.96 20.47,39.92 20.45,39.65 C 20.45,39.55 20.47,39.45 20.52,39.35 C 20.54,39.3 20.52,39.27 20.47,39.25 C 20.42,39.25 20.37,39.25 20.32,39.3 L 20.29,39.33 A 0.34,0.34 0 0,1 20,39.47 C 19.89,39.47 19.84,39.41 19.87,39.3 L 20.09,38.45 C 20.09,38.39 20.13,38.37 20.19,38.36 A 0.4,0.4 0 0,1 20.24,38.36 C 20.3,38.37 20.34,38.4 20.34,38.46 L 20.35,38.54 Z M 31.27,38.51 L 31.61,38.33 C 31.71,38.29 31.75,38.32 31.75,38.43 C 31.75,38.56 31.69,38.66 31.58,38.71 A 0.32,0.32 0 0,1 31.25,38.65 C 31.18,38.6 31.19,38.55 31.27,38.51 Z" fill="rgb(39, 44, 66)"/>
<path d="M 36.15,38.964999999999996 C 36.25,39.53 35.98,39.73 35.34,39.58 C 34.86,39.02 34.94,38.63 35.54,38.4 C 35.62,38.37 35.68,38.39 35.72,38.46 L 35.76,38.51 C 35.79,38.58 35.78,38.61 35.71,38.63 L 35.39,38.7 C 35.32,38.71 35.29,38.76 35.27,38.84 C 35.25,39.04 35.32,39.22 35.49,39.36 C 35.6,39.46 35.72,39.48 35.83,39.41 C 35.93,39.34 35.98,39.24 35.96,39.09 C 35.95,39.02 35.98,38.99 36.05,38.99 L 36.15,38.98 Z" fill="rgb(15, 45, 51)"/>
<path d="M 26.709999999999997,39.445 A 0.3,0.3 0 0,0 27.03,39.15 A 0.3,0.3 0 0,0 26.73,38.83 A 0.3,0.3 0 0,0 26.42,39.15 C 26.42,39.32 26.56,39.45 26.72,39.45 Z" fill="rgb(167, 184, 197)"/>
<path d="M 23.13,40.025 C 23.19,40 23.24,39.98 23.29,39.98 C 23.32,39.98 23.34,39.99 23.35,40.01 L 23.37,40.1 C 23.15,40.34 22.94,40.58 22.74,40.83 C 22.68,40.89 22.64,40.93 22.59,40.93 A 0.15,0.15 0 0,1 22.48,40.89 C 22.42,40.84 22.4,40.79 22.44,40.71 A 0.33,0.33 0 0,0 22.44,40.44 C 22.39,40.35 22.34,40.34 22.28,40.42 L 22.09,40.62 C 22.04,40.68 21.97,40.69 21.9,40.66 C 21.83,40.62 21.8,40.56 21.81,40.49 L 21.94,39.42 A 0.16,0.16 0 0,1 22.05,39.39 C 22.12,39.39 22.17,39.43 22.18,39.5 L 22.22,39.71 C 22.25,39.88 22.32,39.9 22.43,39.78 C 22.49,39.72 22.56,39.68 22.63,39.66 C 22.76,39.62 22.83,39.66 22.81,39.81 L 22.78,40.13 C 22.78,40.21 22.8,40.24 22.88,40.23 C 22.97,40.23 23.06,40.16 23.14,40.03 Z M 32,40.11 L 32.28,40.04 A 0.37,0.37 0 0,1 32.48,40.04 A 0.68,0.68 0 0,1 32.97,40.82 A 0.62,0.62 0 0,1 32.72,41.22 A 0.78,0.78 0 0,1 32.15,41.35 A 0.14,0.14 0 0,1 32.02,41.23 A 9.98,9.98 0 0,0 31.6,40 A 0.18,0.18 0 0,1 31.63,39.8 C 31.68,39.74 31.73,39.75 31.78,39.81 C 31.82,39.87 31.84,39.94 31.85,40.01 C 31.85,40.11 31.9,40.15 31.99,40.12 Z" fill="rgb(39, 44, 66)"/>
<path d="M 30.43,40.505 A 0.79,0.79 0 0,1 30.88,40.53 C 30.97,40.56 31.03,40.63 31.05,40.72 L 31.26,41.5 C 31.29,41.61 31.26,41.68 31.14,41.71 L 31.08,41.73 C 30.98,41.76 30.94,41.73 30.93,41.63 L 30.88,41.01 C 30.87,40.87 30.8,40.79 30.66,40.76 L 30.56,40.74 C 30.46,40.72 30.41,40.76 30.42,40.86 L 30.5,41.64 C 30.5,41.7 30.48,41.73 30.42,41.74 H 30.37 C 30.32,41.74 30.29,41.72 30.27,41.68 A 5.96,5.96 0 0,1 30,40.28 C 30,40.25 30.01,40.22 30.03,40.2 A 0.07,0.07 0 0,1 30.11,40.2 C 30.21,40.24 30.28,40.32 30.3,40.43 C 30.32,40.51 30.36,40.54 30.44,40.53 Z" fill="rgb(50, 55, 109)"/>
<path d="M 34.34,40.535 C 34.45,40.49 34.48,40.38 34.43,40.29 C 34.37,40.2 34.26,40.19 34.16,40.24 C 34.07,40.3 34.04,40.42 34.09,40.5 C 34.15,40.59 34.26,40.61 34.35,40.55 Z" fill="rgb(112, 136, 153)"/>
<path d="M 32.120000000000005,40.725 C 32.2,40.96 32.36,41.09 32.51,41.05 C 32.65,41.01 32.71,40.79 32.64,40.58 C 32.58,40.36 32.41,40.22 32.27,40.27 C 32.13,40.31 32.07,40.52 32.13,40.74 Z" fill="rgb(148, 189, 215)"/>
<path d="M 27.069999999999997,41.205 C 27.18,40.89 27.41,40.74 27.75,40.77 C 27.81,40.77 27.85,40.74 27.88,40.68 A 0.75,0.75 0 0,0 27.93,40.38 C 28.04,40.38 28.1,40.43 28.1,40.52 C 28.12,40.92 28.12,41.35 28.1,41.85 C 28.1,41.94 28.06,41.99 27.97,42.01 C 27.31,42.12 27.01,41.86 27.07,41.22 Z M 29.29,41 A 0.93,0.93 0 0,0 29.45,41.85 C 29.48,41.89 29.48,41.93 29.43,41.95 A 0.33,0.33 0 0,1 29.18,41.96 A 0.15,0.15 0 0,1 29.08,41.83 L 28.95,40.82 C 28.9,40.36 29,40.32 29.25,40.7 C 29.3,40.78 29.31,40.88 29.29,41 Z M 26.44,40.93 A 0.2,0.2 0 0,1 26.37,41.01 C 26.31,41.04 26.26,41.03 26.22,40.97 A 0.36,0.36 0 0,0 26.04,40.83 A 0.2,0.2 0 0,0 25.87,40.83 C 25.69,40.93 25.6,41.12 25.62,41.38 C 25.63,41.48 25.68,41.56 25.76,41.62 A 0.3,0.3 0 0,0 26.02,41.65 A 0.56,0.56 0 0,0 26.22,41.53 C 26.26,41.49 26.31,41.49 26.34,41.53 L 26.38,41.58 C 26.39,41.6 26.39,41.62 26.37,41.64 C 26.11,41.9 25.87,41.95 25.67,41.81 C 25.46,41.66 25.37,41.41 25.4,41.03 C 25.82,40.5 26.16,40.47 26.44,40.93 Z" fill="rgb(15, 45, 51)"/>
<path d="M 27.84,41.675 C 27.85,41.77 27.81,41.81 27.73,41.81 H 27.69 A 0.4,0.4 0 0,1 27.4,41.71 A 0.36,0.36 0 0,1 27.29,41.44 V 41.38 C 27.29,41.28 27.33,41.18 27.4,41.11 A 0.38,0.38 0 0,1 27.68,41 H 27.73 C 27.81,41 27.85,41.04 27.85,41.12 V 41.69 Z" fill="rgb(183, 217, 222)"/>
<path d="M 23.959999999999997,41.355 C 23.97,41.45 24,41.51 24.05,41.52 C 24.09,41.52 24.13,41.46 24.14,41.38 C 24.14,41.29 24.11,41.23 24.06,41.23 C 24.02,41.23 23.97,41.29 23.97,41.37 Z" fill="rgb(72, 110, 124)"/>
</svg>
