<?xml version="1.0" encoding="UTF-8"?>
<!-- generated by Finnhub -->
<svg viewBox="0 0 55.5 55.5" xmlns="http://www.w3.org/2000/svg">
<path d="M 0,0 H 55.5 V 55.5 H 0 Z" fill="rgb(239, 242, 248)"/>
<path d="M 9.450000000000001,19.985 C 10.34,20 11.32,20.18 11.7,20.27 V 22.25 A 8.12,8.12 0 0,0 9.75,21.95 C 8.11,21.97 7.25,22.94 7.04,23.42 C 5.1,24.16 4.3,25.37 4.14,25.89 A 8.1,8.1 0 0,1 4,24.54 C 4.2,20.34 8.37,20 9.46,20 Z M 15.48,22 L 15.06,22.82 L 18.52,23.06 L 18.12,22 H 15.48 Z M 21.81,22 L 21.66,23.4 L 25.1,23.77 C 25,23.54 24.78,22.87 24.64,22 H 21.8 Z M 29.82,24.3 L 29.92,22 H 27.04 C 26.89,22.53 26.54,23.49 26.39,23.9 L 29.82,24.3 Z M 35.88,22 H 31.31 V 24.51 L 36.61,25.11 C 37.27,24.76 37.43,23.98 37.41,23.64 C 37.41,22.37 36.39,22.02 35.88,22 Z M 33.3,24.63 L 33.38,23.34 H 34.63 C 34.85,23.34 35.28,23.47 35.29,23.99 C 35.29,24.45 34.86,24.63 34.63,24.63 H 33.3 Z M 44.6,22 H 38.86 L 38.76,25.41 L 43.82,26.03 L 43.93,24.67 H 41 V 23.49 H 44.53 L 44.6,22 Z M 45.76,22 H 49.86 C 50.57,21.98 52,22.4 52,23.79 C 52,25.25 50.9,25.77 50.35,25.85 L 50.82,26.85 L 48.64,26.59 L 48.03,25.06 H 48.96 C 49.32,25.06 49.86,24.79 49.86,24.17 C 49.86,23.67 49.26,23.44 48.96,23.46 H 47.78 L 47.65,26.47 L 45.67,26.19 L 45.77,22 Z" fill="rgb(50, 154, 69)"/>
<path d="M 14.89,23.165 L 11.75,29 H 14.19 L 15.09,27.07 H 17.65 L 18.35,29 H 20.69 L 18.57,23.47 L 14.88,23.18 Z M 16.63,23.72 L 15.73,25.6 H 17.28 L 16.63,23.72 Z M 11.53,26.72 L 11.21,28.75 C 10.89,28.83 10.01,28.99 9.08,29 C 7.92,29.02 4.93,28.64 4.26,26.47 C 4.34,25.95 4.94,24.72 6.78,23.87 C 6.53,24.96 6.66,27.12 9.26,27.1 C 9.71,27.11 10.79,27 11.53,26.72 Z M 21.6,23.8 L 21.11,29 H 22.93 L 23.23,24.3 L 24.41,29 H 26.29 L 27.8,24.48 L 26.2,24.3 L 25.54,26.33 L 25.04,24.13 L 21.6,23.8 Z M 27.94,24.51 L 27.8,29 H 29.7 L 29.78,24.73 L 27.96,24.51 Z M 31.26,24.87 L 30.98,29 H 35.48 C 36.05,29 37.43,28.56 37.43,27.1 C 37.43,25.72 36.11,25.47 35.15,25.34 L 31.27,24.87 Z M 33.2,26.21 L 33.11,27.61 H 34.56 C 34.81,27.61 35.29,27.41 35.28,26.91 C 35.27,26.35 34.8,26.21 34.56,26.21 H 33.2 Z M 38.68,25.91 L 38.52,29 H 44.18 L 44.3,27.49 H 40.79 V 26.37 H 42.59 L 38.69,25.91 Z M 45.4,29 L 45.58,26.67 L 47.58,26.94 L 47.48,29 H 45.4 Z M 48.7,27.04 L 50.87,27.31 L 51.74,29 H 49.34 L 48.7,27.04 Z" fill="rgb(40, 51, 144)" fill-rule="evenodd"/>
<path d="M 42.18,29.775 C 43.09,29.81 43.93,29.99 44.24,30.08 V 31.48 A 6.08,6.08 0 0,0 42.41,31.12 C 41.43,31.09 40.06,31.68 40.09,33.18 C 40.11,34.68 41.41,34.76 41.77,34.75 C 42.07,34.75 42.4,34.65 42.53,34.61 L 42.61,33.65 H 41.77 L 41.87,32.39 H 44.46 L 44.24,35.75 C 43.92,35.88 42.93,36 42.53,36 H 41.17 C 40.12,36 38.06,35.42 38.16,33.05 C 38.28,30.09 41.06,29.75 42.19,29.79 Z M 16.82,30 H 11.66 L 11.31,36 H 16.55 L 16.62,34.73 H 13.42 L 13.48,33.66 H 16.14 L 16.26,32.28 H 13.56 L 13.64,31.26 H 16.71 L 16.81,30 Z M 30.79,30 H 25.63 L 25.28,36 H 30.52 L 30.59,34.73 H 27.39 L 27.45,33.66 H 30.11 L 30.23,32.28 H 27.53 L 27.61,31.26 H 30.68 L 30.78,30 Z M 17.58,36 L 17.88,30 H 20.26 L 22.52,33.81 L 22.62,30 H 24.52 L 24.18,36 H 21.84 L 19.54,32.2 L 19.37,36 H 17.57 Z M 31.87,30 L 31.62,36 H 33.56 L 33.72,31.27 H 34.95 C 35.17,31.3 35.61,31.45 35.62,31.9 C 35.64,32.45 35.09,32.62 34.72,32.65 H 33.95 L 35.18,36 H 37.31 L 36.07,33.44 C 36.56,33.28 37.54,32.71 37.54,31.64 C 37.54,30.31 36.34,30 35.49,30 H 31.87 Z M 45.07,30 L 47.17,33.58 L 47,36 H 49.1 V 33.7 L 51.8,30 H 49.58 L 48.28,32.05 L 47.28,30 H 45.06 Z" fill="rgb(40, 51, 144)"/>
</svg>
