<?xml version="1.0" encoding="UTF-8"?>
<!-- generated by Finnhub -->
<svg fill="none" viewBox="0 0 55.5 55.5" xmlns="http://www.w3.org/2000/svg">
<rect width="56" height="56" fill="rgb(239, 242, 248)"/>
<path d="m11.099 37.807c3.2095 1.1002 7.5579-2.6227 9.7123-8.3153 2.1545-5.6925 1.2993-11.199-1.9103-12.299-3.2095-1.1002-7.5579 2.6227-9.7123 8.3153-2.1545 5.6925-1.2992 11.199 1.9103 12.299zm1.7276-0.8073c2.716 0.0138 5.8721-3.2004 7.3718-8.0067 1.6536-5.2999 0.6667-10.057-2.2042-10.878-0.2791-0.0798-0.5657-0.1174-0.8572-0.1156-2.7078 0.0169-5.8425 3.2375-7.3354 8.0223-1.6536 5.2999-0.66679 10.042 2.2042 10.862 0.2675 0.0765 0.5418 0.1143 0.8208 0.1157z" clip-rule="evenodd" fill="url(#d)" fill-rule="evenodd"/>
<path d="m5.502 32.674c1.7666 3.5855 7.6749 4.3995 13.197 1.8182 5.5217-2.5813 8.5658-7.5804 6.7993-11.166-1.7666-3.5855-7.6749-4.3995-13.197-1.8182-5.5217 2.5813-8.5658 7.5804-6.7993 11.166zm1.0555 0.1072c1.761 3.1174 7.3784 3.5134 12.284 0.8843 3.8633-2.0706 6.1728-5.3998 6.1587-8.2438-0.0038-0.7671-0.1834-1.4989-0.5575-2.1612-1.761-3.1174-7.0728-3.5133-11.978-0.8843-3.8624 2.0701-6.4773 5.3983-6.4643 8.2418 0.00351 0.7679 0.18308 1.5004 0.5575 2.1632z" clip-rule="evenodd" fill="url(#c)" fill-rule="evenodd"/>
<path d="m21.5 32c2.4853 0 4.5-2.0147 4.5-4.5s-2.0147-4.5-4.5-4.5-4.5 2.0147-4.5 4.5 2.0147 4.5 4.5 4.5zm0-1c1.933 0 3.5-1.567 3.5-3.5s-1.567-3.5-3.5-3.5-3.5 1.567-3.5 3.5 1.567 3.5 3.5 3.5z" clip-rule="evenodd" fill="url(#b)" fill-rule="evenodd"/>
<path d="m12 27v3h-1v-7h1.4711c1.3611 0 2.5289 0.3418 2.5289 2 0 1.3725-1.1562 2-2.4249 2h-0.5751zm0-1h0.5173c0.9885 0 1.4827-0.2535 1.4827-1 0-0.7224-0.5096-1-1.5289-1h-0.4711v2z" fill="rgb(6, 43, 124)"/>
<path d="M16 25H17V25.5694C17.2928 25.2438 17.6702 25 18.124 25C18.4035 25 18.6954 25.0966 19 25.2897L18.5149 26.2298C18.314 26.0766 18.1177 26 17.9262 26C17.3485 26 17 26.5518 17 27.4775V30H16V25Z" fill="rgb(6, 43, 124)"/>
<path d="M33 25H34V25.5694C34.2928 25.2438 34.6702 25 35.124 25C35.4035 25 35.6954 25.0966 36 25.2897L35.5149 26.2298C35.314 26.0766 35.1177 26 34.9262 26C34.3485 26 34 26.5518 34 27.4775V30H33V25Z" fill="rgb(6, 43, 124)"/>
<path d="M37 25H38V25.5694C38.2928 25.2438 38.6702 25 39.124 25C39.4035 25 39.6954 25.0966 40 25.2897L39.5149 26.2298C39.314 26.0766 39.1177 26 38.9262 26C38.3485 26 38 26.5518 38 27.4775V30H37V25Z" fill="rgb(6, 43, 124)"/>
<path d="M24 27.7551H20C20.0609 28.4982 20.7484 29 21.5 29C22.1551 29 22.6369 28.6179 22.9915 28.1098L24 28.6249C23.4332 29.5094 22.6166 30 21.5584 30C20.0918 30 19 28.9879 19 27.5024C19 26.0453 20.0359 25 21.4947 25C22.9782 25 24.0053 26.0259 24.0053 27.4976L24 27.7551ZM23 27C22.8337 26.4169 22.4374 26 21.5212 26C20.5 26 20.1535 26.4635 20 27H23Z" fill="rgb(182, 150, 4)"/>
<path d="M32 27.7551H28C28.0609 28.4982 28.7484 29 29.5 29C30.1551 29 30.6369 28.6179 30.9915 28.1098L32 28.6249C31.4332 29.5094 30.6166 30 29.5584 30C28.0918 30 27 28.9879 27 27.5024C27 26.0453 28.0359 25 29.4947 25C30.9782 25 32.0053 26.0259 32.0053 27.4976L32 27.7551ZM31 27C30.8337 26.4169 30.4374 26 29.5212 26C28.5 26 28.1535 26.4635 28 27H31Z" fill="rgb(6, 43, 124)"/>
<path d="M45 27.7551H41C41.0609 28.4982 41.7484 29 42.5 29C43.1551 29 43.6369 28.6179 43.9915 28.1098L45 28.6249C44.4332 29.5094 43.6166 30 42.5584 30C41.0918 30 40 28.9879 40 27.5024C40 26.0453 41.0359 25 42.4947 25C43.9782 25 45.0053 26.0259 45.0053 27.4976L45 27.7551ZM44 27C43.8337 26.4169 43.4374 26 42.5212 26C41.5 26 41.1535 26.4635 41 27H44Z" fill="rgb(6, 43, 124)"/>
<path d="m26 27v3h-1v-3h-0.2904v-1h0.2904v-1.507c0-0.7701 0.4524-1.493 1.3412-1.493 0.1451 0 0.4386 0.0476 0.6588 0.1428v0.9382l-0.0835-0.0489c-0.1767-0.1007-0.4326-0.151-0.5463-0.151-0.4105 0-0.3702 0.5538-0.3702 0.8363v1.2826h1v1h-1z" fill="rgb(6, 43, 124)"/>
<path d="M49 23H50L50 30H49V29.4314C48.6418 29.8105 48.3232 30 47.8707 30C46.6554 30 46 28.5975 46 27.5C46 26.4278 46.6643 25 47.8505 25C48.3111 25 48.6364 25.2041 49 25.6124L49 23ZM47 27.5C47 28.1474 47.278 29 48.0161 29C48.7631 29 49 28.1981 49 27.5219C49 26.854 48.7666 26 48.0242 26C47.3109 26 47 26.8616 47 27.5Z" fill="rgb(6, 43, 124)"/>
<path d="m27 31.254-0.1095 0.2946c-0.1971-0.0744-0.4398-0.1116-0.7281-0.1116-0.4197 3e-3 -0.7755 0.1563-1.0675 0.4598-0.2701 0.2828-0.4051 0.5982-0.4051 0.9464 0 0.2262 0.0693 0.4063 0.208 0.5402 0.1423 0.134 0.3504 0.2009 0.6241 0.2009 0.3139 0 0.6715-0.0565 1.073-0.1696l-0.0712 0.3705c-0.3613 0.1429-0.7682 0.2143-1.2208 0.2143-0.4087 0-0.7299-0.1101-0.9635-0.3304-0.2263-0.2113-0.3394-0.4851-0.3394-0.8214 0-0.4702 0.1916-0.8914 0.5748-1.2634 0.4051-0.3899 0.8905-0.5848 1.4562-0.5848 0.3759 0 0.6989 0.0848 0.969 0.2545z" fill="rgb(182, 150, 4)"/>
<path d="m30 32.085c0 0.4941-0.1661 0.9301-0.4984 1.3081-0.3585 0.4047-0.8026 0.6071-1.3322 0.6071-0.375 0-0.6645-0.0997-0.8684-0.2991-0.2007-0.1994-0.301-0.4702-0.301-0.8125 0-0.4822 0.1694-0.9122 0.5082-1.2902 0.3586-0.3988 0.7994-0.5982 1.3224-0.5982 0.375 0 0.6628 0.0967 0.8635 0.2902 0.2039 0.1905 0.3059 0.4553 0.3059 0.7946zm-0.6266 0.0447c0-0.4643-0.2139-0.6965-0.6415-0.6965-0.352 0-0.6332 0.1667-0.8437 0.5-0.1744 0.2798-0.2616 0.5923-0.2616 0.9375 0 0.4762 0.2089 0.7143 0.6267 0.7143 0.3487 0 0.6316-0.1696 0.8487-0.5089 0.1809-0.2887 0.2714-0.6042 0.2714-0.9464z" fill="rgb(182, 150, 4)"/>
<path d="m34 31-0.6836 3h-0.5554l0.5714-2.5219c-0.3133 0.525-0.7903 1.311-1.4312 2.3578h-0.486l-0.3364-2.1562-0.5287 2.3203h-0.5501l0.6836-3h0.9239l0.2884 2.0719 1.255-2.0719h0.8491z" fill="rgb(182, 150, 4)"/>
<path d="m38 31-0.6836 3h-0.5554l0.5714-2.5219c-0.3133 0.525-0.7903 1.311-1.4312 2.3578h-0.486l-0.3364-2.1562-0.5287 2.3203h-0.5501l0.6836-3h0.9239l0.2884 2.0719 1.255-2.0719h0.8491z" fill="rgb(182, 150, 4)"/>
<path d="M41 31L40.8937 31.4453H39.3097L39.1138 32.2563H40.5243L40.4235 32.6781H39.0131L38.806 33.5594H40.4123L40.306 34H38L38.7164 31H41Z" fill="rgb(182, 150, 4)"/>
<path d="m44 31.609c0 0.2656-0.1066 0.4969-0.3199 0.6937-0.2095 0.1938-0.4705 0.3094-0.783 0.3469l0.8161 1.35h-0.8492l-0.7114-1.2937h-0.16l-0.3033 1.2937h-0.6893l0.7059-3h1.4559c0.2353 0 0.4301 0.05 0.5845 0.15 0.1691 0.1094 0.2537 0.2625 0.2537 0.4594zm-0.7224 0.1265c0-0.2062-0.1618-0.3093-0.4853-0.3093-0.0625 0-0.1452 0.0031-0.2482 0.0093-0.1323 0.0063-0.2169 0.0094-0.2537 0.0094l-0.2205 0.9047c0.2205 0.0156 0.3547 0.0234 0.4025 0.0234 0.2133 0 0.4008-0.0609 0.5625-0.1828 0.1618-0.1218 0.2427-0.2734 0.2427-0.4547z" fill="rgb(182, 150, 4)"/>
<path d="m47 31.254-0.1095 0.2946c-0.1971-0.0744-0.4398-0.1116-0.7281-0.1116-0.4197 3e-3 -0.7755 0.1563-1.0675 0.4598-0.2701 0.2828-0.4051 0.5982-0.4051 0.9464 0 0.2262 0.0693 0.4063 0.208 0.5402 0.1423 0.134 0.3504 0.2009 0.6241 0.2009 0.3139 0 0.6715-0.0565 1.073-0.1696l-0.0712 0.3705c-0.3613 0.1429-0.7682 0.2143-1.2208 0.2143-0.4087 0-0.7299-0.1101-0.9635-0.3304-0.2263-0.2113-0.3394-0.4851-0.3394-0.8214 0-0.4702 0.1916-0.8914 0.5748-1.2634 0.4051-0.3899 0.8905-0.5848 1.4562-0.5848 0.3759 0 0.6989 0.0848 0.969 0.2545z" fill="rgb(182, 150, 4)"/>
<path d="M50 31L49.8937 31.4453H48.3097L48.1138 32.2563H49.5243L49.4235 32.6781H48.0131L47.806 33.5594H49.4123L49.306 34H47L47.7164 31H50Z" fill="rgb(182, 150, 4)"/>
<path d="M13 32H24.5V33H13V32Z" fill="url(#a)"/>
<defs>
<linearGradient id="d" x1="22.983" x2="8.0172" y1="31.687" y2="30.873" gradientUnits="userSpaceOnUse">
<stop stop-color="rgb(235, 241, 251)" offset="0"/>
<stop stop-color="rgb(145, 154, 180)" offset=".25521"/>
<stop stop-color="rgb(47, 75, 137)" offset="1"/>
</linearGradient>
<linearGradient id="c" x1="25.482" x2="12.233" y1="24.249" y2="29.671" gradientUnits="userSpaceOnUse">
<stop stop-color="rgb(251, 253, 253)" offset="0"/>
<stop stop-color="rgb(95, 116, 166)" offset="1"/>
</linearGradient>
<linearGradient id="b" x1="22.961" x2="20.39" y1="23" y2="32" gradientUnits="userSpaceOnUse">
<stop stop-color="rgb(243, 245, 241)" offset="0"/>
<stop stop-color="rgb(128, 143, 178)" offset="1"/>
</linearGradient>
<linearGradient id="a" x1="25" x2="13" y1="32.571" y2="32.571" gradientUnits="userSpaceOnUse">
<stop stop-color="rgb(182, 150, 4)" offset="0"/>
<stop stop-color="rgb(254, 254, 253)" stop-opacity="0" offset="1"/>
</linearGradient>
</defs>
</svg>
