<?xml version="1.0" encoding="UTF-8"?>
<!-- generated by Finnhub -->
<svg viewBox="0 0 55.5 55.5" xmlns="http://www.w3.org/2000/svg">
<path d="M 0,0 H 55.5 V 55.5 H 0 Z" fill="rgb(1, 51, 100)"/>
<path d="M 7.99,25.634999999999998 H 9.77 A 0.02,0.02 0 0,1 9.79,25.65 A 0.02,0.02 0 0,1 9.79,25.68 A 3.1,3.1 0 0,1 7.37,27.92 C 6.54,28.1 5.41,28.01 4.72,27.42 C 4.07,26.88 3.92,26.07 4.03,25.17 A 3.54,3.54 0 0,1 6.93,22.05 C 7.75,21.91 8.91,22.03 9.51,22.69 C 9.93,23.14 10.02,23.69 10,24.29 C 10,24.29 10,24.31 9.98,24.31 L 9.96,24.32 H 8.23 A 0.04,0.04 0 0,1 8.19,24.3 V 24.28 C 8.24,23.52 7.56,23.27 6.97,23.47 C 6.21,23.72 5.94,24.8 5.89,25.57 C 5.87,25.93 5.95,26.27 6.26,26.48 C 6.36,26.55 6.5,26.58 6.69,26.6 C 7.32,26.64 7.74,26.34 7.95,25.68 C 7.95,25.66 7.97,25.65 8,25.65 Z M 37.84,25.17 L 38.14,25.32 C 38.78,25.65 38.46,26.59 38.43,27.17 A 6.07,6.07 0 0,0 38.43,27.98 L 38.41,27.99 L 38.39,28 A 0.13,0.13 0 0,1 38.29,27.97 A 10.04,10.04 0 0,0 36.45,24.57 L 36.46,24.56 H 36.48 C 36.78,24.55 37.09,24.42 37.19,24.06 C 37.31,23.65 37.03,23.41 36.7,23.39 H 35.75 C 35.72,23.39 35.7,23.41 35.7,23.45 L 35.66,23.68 V 23.7 L 35.64,23.71 H 35.6 A 6.8,6.8 0 0,0 34,22.57 V 22.53 L 34.07,22.05 C 34.07,22.04 34.07,22.03 34.09,22.02 L 34.12,22 H 37.1 C 37.7,22.01 38.81,22.13 38.97,22.98 C 39.04,23.37 39,23.75 38.85,24.13 C 38.65,24.65 38.31,24.98 37.85,25.13 C 37.82,25.13 37.82,25.15 37.85,25.17 Z" fill="rgb(254, 254, 253)"/>
<path d="M 35.22,26.165 L 34.89,27.94 L 34.87,27.98 A 0.07,0.07 0 0,1 34.82,28 H 33.02 C 33.01,28 33,27.99 33,27.97 L 33.75,24.04 C 33.76,24 33.78,23.99 33.81,24.01 C 34.33,24.21 34.78,24.46 35.17,24.73 A 8.64,8.64 0 0,1 38,28 H 37.99 L 37.97,28.01 H 36.57 A 0.04,0.04 0 0,1 36.54,28 A 0.04,0.04 0 0,1 36.52,27.97 C 36.54,27.63 36.59,27.26 36.67,26.87 C 36.75,26.45 36.59,26.22 36.19,26.18 A 7.2,7.2 0 0,0 35.24,26.17 L 35.23,26.19 Z" fill="rgb(254, 254, 253)"/>
<path d="M 28.04,22.695 L 27.65,23.01 C 27.62,23.02 27.61,23.01 27.61,22.99 L 27.79,22.04 A 0.04,0.04 0 0,0 27.79,22.01 H 22.27 L 22.25,22.04 L 21.99,23.46 C 21.99,23.5 22,23.52 22.04,23.52 H 23.71 A 0.04,0.04 0 0,1 23.75,23.55 V 23.57 L 23.31,25.97 A 0.1,0.1 0 0,1 23.28,26.02 A 0.1,0.1 0 0,1 23.23,26.05 C 22.96,26.12 22.69,26.14 22.43,26.11 A 5.93,5.93 0 0,1 21.33,25.86 C 21.3,25.86 21.29,25.83 21.29,25.8 L 21.99,22.07 C 21.99,22.02 21.97,22 21.93,22 H 20.13 L 20.1,22.01 V 22.03 L 19.61,25.03 C 19.6,25.11 19.57,25.12 19.53,25.03 L 18.06,22.07 A 0.12,0.12 0 0,0 18.01,22.02 A 0.11,0.11 0 0,0 17.95,22 H 16.22 L 16.18,22.01 A 0.06,0.06 0 0,0 16.16,22.05 L 15.22,27.16 C 15.2,27.25 15.19,27.25 15.17,27.16 L 14.2,22.04 C 14.2,22.03 14.2,22.02 14.18,22.01 H 12.2 A 0.07,0.07 0 0,0 12.18,22.04 L 9,27.94 A 0.04,0.04 0 0,0 9,27.98 L 9.01,27.99 L 9.03,28 H 10.8 C 10.86,28 10.9,27.97 10.94,27.91 L 11.22,27.11 A 0.17,0.17 0 0,1 11.38,27.01 H 13.19 A 0.06,0.06 0 0,1 13.25,27.05 L 13.3,27.97 C 13.3,27.99 13.32,28 13.33,28 H 15.61 C 15.63,28 15.66,28 15.68,27.98 A 0.15,0.15 0 0,0 15.74,27.92 C 16.06,27.33 16.47,26.63 16.97,26.26 L 17.1,26.18 L 17.23,26.1 C 17.27,26.06 17.3,26 17.32,25.9 L 17.48,24.82 C 17.5,24.69 17.53,24.68 17.59,24.8 L 18.03,25.68 A 0.04,0.04 0 0,1 18.01,25.74 L 17.89,25.79 C 17.69,25.86 17.46,25.94 17.32,26.07 A 0.13,0.13 0 0,0 17.29,26.13 C 17.25,26.28 17.21,26.37 17.17,26.4 C 16.74,26.71 16.54,27.06 16.32,27.44 L 16,27.97 A 0.06,0.06 0 0,1 15.94,28 C 15.64,27.97 15.54,28 15.5,28.1 C 15.24,28.69 15.06,29.58 15.35,30.15 C 15.51,30.49 15.77,30.69 16.12,30.77 C 16.74,30.89 17.4,30.66 17.95,30.32 C 18.65,29.9 19.62,28.92 19.65,28.02 C 19.65,27.99 19.65,27.99 19.68,28 H 20.91 L 20.94,27.92 L 21.19,26.31 C 21.19,26.28 21.19,26.26 21.17,26.25 C 20.64,26.05 20.17,25.91 19.78,25.85 A 3.64,3.64 0 0,0 18.19,25.97 A 0.04,0.04 0 0,0 18.19,26.01 L 19.07,27.91 C 19.07,27.93 19.09,27.95 19.1,27.96 A 0.1,0.1 0 0,0 19.24,27.91 C 19.32,27.74 19.36,27.39 19.38,27.17 V 27.12 C 19.4,26.99 19.38,26.84 19.38,26.7 L 19.36,26.58 C 19.36,26.51 19.39,26.48 19.46,26.48 H 19.48 A 0.1,0.1 0 0,1 19.55,26.51 A 5.5,5.5 0 0,1 19.65,27.94 C 19.65,27.97 19.63,27.98 19.6,27.97 A 0.5,0.5 0 0,0 19.27,27.99 A 0.1,0.1 0 0,0 19.22,28.04 A 4.87,4.87 0 0,1 16.9,30.42 C 16.56,30.58 16.02,30.64 15.75,30.34 A 1.19,1.19 0 0,1 15.45,29.47 C 15.46,28.97 15.64,28.64 15.96,28.04 A 0.07,0.07 0 0,1 16.03,28 H 16.93 C 16.98,28 17.01,27.97 17.03,27.91 L 17.23,26.43 A 0.09,0.09 0 0,1 17.26,26.37 C 17.49,26.19 17.77,26.07 18.1,25.97 C 18.12,25.97 18.13,25.95 18.13,25.92 A 0.25,0.25 0 0,0 18.11,25.82 C 18.07,25.76 18.1,25.72 18.18,25.7 A 5.78,5.78 0 0,1 21.28,25.87 V 25.89 L 21.23,26.17 L 21.24,26.26 L 21.31,26.32 C 21.79,26.53 22.16,26.67 22.43,26.72 C 22.65,26.77 22.87,26.79 23.07,26.79 C 23.12,26.79 23.15,26.76 23.17,26.71 L 23.26,26.11 C 23.26,26.07 23.28,26.05 23.31,26.04 L 24.14,25.74 H 24.19 L 24.23,25.76 A 0.1,0.1 0 0,1 24.26,25.86 C 24.13,26.4 23.79,26.71 23.24,26.78 A 0.1,0.1 0 0,0 23.15,26.87 L 23,27.93 A 0.05,0.05 0 0,0 23,27.97 A 0.04,0.04 0 0,0 23.04,27.99 H 24.87 C 24.93,27.99 24.97,27.96 24.97,27.89 L 25.74,23.54 L 25.75,23.52 L 25.78,23.51 H 27.16 A 0.02,0.02 0 0,1 27.18,23.52 A 0.03,0.03 0 0,1 27.18,23.55 C 26.68,24.27 26.46,25.07 26.5,25.95 C 26.55,27.3 27.3,27.99 28.8,27.99 C 30.8,27.99 32.12,27.34 32.74,25.77 C 32.89,25.39 32.98,24.96 33,24.47 C 33.01,24.15 32.94,23.78 32.83,23.47 A 0.18,0.18 0 0,0 32.7,23.35 A 3.97,3.97 0 0,0 30.45,23.41 C 30.36,23.44 30.35,23.47 30.44,23.51 C 30.77,23.67 30.94,23.95 30.98,24.36 C 31.04,25.13 30.74,26.12 29.98,26.46 C 29,26.88 28.48,26.29 28.51,25.4 C 28.52,24.8 28.64,24.26 28.85,23.8 C 29.08,23.3 29.4,22.93 29.84,22.67 C 30.28,22.4 30.74,22.25 31.19,22.24 C 31.3,22.24 31.39,22.24 31.44,22.22 C 31.47,22.22 31.47,22.21 31.44,22.2 A 3.4,3.4 0 0,0 30,22.03 C 29.25,22.08 28.6,22.31 28.05,22.7 Z M 12.81,23.83 L 11.9,25.78 A 0.03,0.03 0 0,0 11.9,25.81 L 11.92,25.82 H 13.08 A 0.03,0.03 0 0,0 13.1,25.81 A 0.03,0.03 0 0,0 13.11,25.78 L 12.87,23.84 V 23.82 H 12.81 Z" fill="rgb(254, 254, 253)" fill-rule="evenodd"/>
<path d="M 21.069999999999997,29.145 C 21.04,29.26 21.06,29.28 21.15,29.23 L 21.63,29.01 A 0.4,0.4 0 0,0 21.83,28.81 C 21.96,28.53 22.1,28.31 22.26,28.15 C 22.35,28.06 22.46,28.07 22.6,28.18 C 22.62,28.19 22.63,28.21 22.63,28.24 C 22.64,28.34 22.61,28.44 22.55,28.53 C 22.45,28.68 22.29,28.83 22.06,29.02 C 21.98,29.08 21.93,29.22 21.93,29.42 L 21.92,30.14 C 21.9,30.33 21.68,30.59 21.52,30.71 A 3.8,3.8 0 0,1 20.3,31.28 A 0.06,0.06 0 0,1 20.25,31.23 C 20.25,31.2 20.27,31.17 20.32,31.14 C 20.55,31.02 20.74,30.88 20.89,30.73 C 21,30.6 21.11,30.41 21.22,30.15 C 21.32,29.88 21.44,29.63 21.57,29.4 C 21.62,29.3 21.6,29.28 21.5,29.33 L 20.97,29.59 A 0.46,0.46 0 0,0 20.75,29.85 C 20.42,30.75 19.99,31.5 19.44,32.13 A 4.6,4.6 0 0,1 16.14,33.74 C 15.63,33.77 15.14,33.7 14.69,33.54 C 14.36,33.41 14.17,33.21 14.12,32.94 C 14.06,32.65 14.13,32.43 14.32,32.27 C 14.72,31.93 15.29,32.31 14.98,32.82 C 14.94,32.89 14.88,32.92 14.81,32.92 A 31.64,31.64 0 0,0 14.42,32.97 A 0.05,0.05 0 0,0 14.42,33.01 A 0.5,0.5 0 0,0 14.72,33.29 C 15.17,33.47 15.62,33.55 16.08,33.51 A 2.41,2.41 0 0,0 17.52,32.9 C 17.76,32.69 17.96,32.49 18.12,32.3 C 18.62,31.66 19.1,30.93 19.54,30.13 C 19.56,30.09 19.54,30.07 19.5,30.09 A 8.33,8.33 0 0,0 17.89,31.17 C 17.69,31.36 17.49,31.59 17.29,31.87 C 17.04,32.23 16.89,32.65 16.86,33.13 A 0.12,0.12 0 0,1 16.79,33.23 L 16.74,33.26 A 0.05,0.05 0 0,1 16.69,33.26 A 0.05,0.05 0 0,1 16.66,33.21 A 2.4,2.4 0 0,1 16.95,31.94 C 17.19,31.49 17.53,31.1 17.97,30.75 A 6.75,6.75 0 0,1 19.58,29.77 C 19.68,29.72 19.78,29.64 19.85,29.54 C 20.07,29.24 20.33,28.94 20.64,28.61 A 6.9,6.9 0 0,1 22.96,26.99 C 22.98,26.99 23,27.01 23.01,27.03 L 23.02,27.06 V 27.09 C 23.02,27.1 23.02,27.11 23,27.11 C 22.14,27.63 21.5,28.31 21.08,29.16 Z M 23.69,30.12 C 23.99,30.04 24.19,29.83 24.14,29.65 C 24.09,29.46 23.82,29.37 23.52,29.45 C 23.23,29.52 23.03,29.73 23.08,29.92 C 23.12,30.1 23.4,30.19 23.69,30.12 Z" fill="rgb(254, 254, 253)"/>
<path d="M 23.389999999999997,32.525 A 30.74,30.74 0 0,1 24.5,31.47 A 7.6,7.6 0 0,1 24.17,31.96 C 23.93,32.28 23.74,32.61 23.61,32.93 A 1.1,1.1 0 0,0 23.49,33.4 C 23.52,33.64 23.63,33.79 23.83,33.83 C 24.06,33.89 24.47,33.62 24.63,33.49 A 8.44,8.44 0 0,0 26.39,31.61 A 0.9,0.9 0 0,1 26.72,31.31 A 0.37,0.37 0 0,1 27.02,31.31 C 27.11,31.34 27.25,31.36 27.45,31.38 C 27.48,31.38 27.49,31.39 27.46,31.42 A 1.7,1.7 0 0,1 27.26,31.58 C 27.19,31.64 27.1,31.7 27.04,31.78 C 26.94,31.88 26.84,31.98 26.75,32.12 L 26.15,33.11 A 0.37,0.37 0 0,1 25.95,33.26 L 25.86,33.3 C 25.63,33.38 25.46,33.44 25.32,33.56 A 0.14,0.14 0 0,0 25.34,33.79 C 25.44,33.84 25.55,33.84 25.64,33.77 C 25.78,33.67 25.92,33.57 26.06,33.49 A 0.18,0.18 0 0,1 26.28,33.51 C 26.48,33.71 26.73,33.85 27.01,33.8 C 27.28,33.75 27.51,33.64 27.73,33.46 A 4.37,4.37 0 0,0 28.63,32.46 H 28.65 C 28.66,32.47 28.67,32.48 28.65,32.5 C 28.52,32.8 28.4,33.51 28.73,33.75 C 29.02,33.95 29.32,33.85 29.6,33.7 C 29.71,33.63 29.73,33.65 29.64,33.75 L 29.42,34 C 29.35,34.07 29.26,34.14 29.16,34.21 L 28.76,34.48 C 28.1,34.93 27.68,35.21 27.16,35.67 C 27.05,35.77 26.92,35.91 26.76,36.12 C 26.6,36.35 26.51,36.77 26.82,36.93 C 26.97,37.01 27.12,37.03 27.26,36.97 C 27.46,36.89 27.66,36.77 27.86,36.63 A 9.82,9.82 0 0,0 29.4,35.23 C 29.8,34.79 30.12,34.43 30.35,34.13 C 30.45,34.03 30.55,33.93 30.69,33.84 C 31.34,33.44 31.89,33.01 32.34,32.54 C 32.5,32.38 32.54,32.4 32.44,32.61 C 32.36,32.77 32.34,33.01 32.37,33.3 C 32.38,33.47 32.44,33.6 32.53,33.66 C 32.67,33.77 32.81,33.81 32.96,33.8 C 33.15,33.77 33.36,33.7 33.62,33.57 C 34.02,33.37 34.42,33.08 34.84,32.72 L 35.66,31.88 C 36.06,31.46 36.34,31.18 36.5,31.06 C 36.6,30.97 36.7,30.92 36.75,30.91 C 36.93,30.87 36.97,30.93 36.85,31.09 L 34.95,33.82 A 0.01,0.01 0 0,0 34.95,33.84 H 34.96 A 7.75,7.75 0 0,1 35.82,33.82 C 36.25,33.22 36.81,32.74 37.49,32.37 C 37.51,32.36 37.53,32.36 37.55,32.38 C 37.75,32.64 38,32.82 38.31,32.63 L 38.49,32.53 C 38.57,32.49 38.59,32.51 38.56,32.59 C 38.44,32.88 38.39,33.41 38.65,33.65 C 38.78,33.77 38.91,33.83 39.05,33.82 C 39.21,33.82 39.41,33.74 39.65,33.6 C 39.82,33.5 40.03,33.36 40.29,33.17 C 40.35,33.12 40.38,33.14 40.37,33.22 C 40.31,33.49 40.41,33.67 40.65,33.76 C 41.1,33.94 42.01,33.11 42.43,32.74 L 42.53,32.64 A 8.43,8.43 0 0,0 43.27,31.92 L 43.29,31.93 C 43.21,32.04 43.09,32.22 42.95,32.46 C 42.75,32.8 42.62,33.08 42.65,33.46 C 42.67,33.73 42.96,33.86 43.19,33.8 C 43.39,33.74 43.59,33.63 43.8,33.48 C 44.2,33.18 44.52,32.88 44.77,32.58 C 44.88,32.44 44.91,32.45 44.87,32.62 C 44.79,32.88 44.77,33.42 44.99,33.63 C 45.19,33.83 45.42,33.86 45.69,33.75 C 46.04,33.6 46.38,33.39 46.68,33.12 C 46.72,33.08 46.74,33.09 46.74,33.15 V 33.45 C 46.79,33.75 47.14,33.84 47.37,33.79 C 47.76,33.72 48.11,33.54 48.42,33.27 C 48.86,32.9 49.18,32.44 49.39,31.9 V 31.77 A 0.09,0.09 0 0,0 49.37,31.71 A 0.05,0.05 0 0,0 49.33,31.69 A 0.05,0.05 0 0,0 49.29,31.72 A 3.4,3.4 0 0,1 47.95,33.38 A 1.2,1.2 0 0,1 47.4,33.58 A 0.08,0.08 0 0,1 47.33,33.55 A 0.09,0.09 0 0,1 47.32,33.47 C 47.35,33.38 47.41,33.29 47.48,33.18 A 2768.52,2768.52 0 0,0 52,26.73 H 51.99 L 51.97,26.72 H 51.12 A 0.1,0.1 0 0,0 51.03,26.76 L 48.19,30.82 A 0.04,0.04 0 0,1 48.13,30.83 L 48.11,30.82 C 47.83,30.34 47.23,30.45 46.81,30.65 C 46.26,30.89 45.78,31.23 45.36,31.67 C 44.56,32.49 44.04,33.01 43.78,33.24 C 43.62,33.38 43.3,33.62 43.1,33.6 A 0.05,0.05 0 0,1 43.06,33.57 A 0.05,0.05 0 0,1 43.06,33.52 A 373.23,373.23 0 0,1 45.2,30.72 L 45.22,30.69 C 45.32,30.57 45.39,30.47 45.52,30.37 L 46.27,29.83 A 8.73,8.73 0 0,0 48.12,27.98 C 48.33,27.68 48.49,27.41 48.6,27.16 C 48.68,26.97 48.75,26.63 48.58,26.49 C 48.16,26.13 47.44,26.87 47.03,27.29 L 46.93,27.39 C 46.73,27.59 46.49,27.88 46.19,28.24 A 969.7,969.7 0 0,1 44.7,30.05 A 19.73,19.73 0 0,1 41.77,32.97 A 6,6 0 0,1 41.03,33.5 C 40.93,33.56 40.89,33.53 40.93,33.41 A 111.3,111.3 0 0,0 43.02,30.61 C 43.04,30.58 43.02,30.56 42.98,30.56 H 42.12 A 0.08,0.08 0 0,0 42.05,30.59 L 41.82,30.87 C 41.77,30.92 41.73,30.92 41.7,30.87 C 41.33,30.28 40.55,30.6 40.08,30.87 C 39.73,31.07 39.4,31.32 39.1,31.62 A 102,102 0 0,0 38.46,32.29 C 38.34,32.41 38.24,32.48 38.16,32.49 C 37.99,32.49 37.86,32.43 37.8,32.28 A 0.1,0.1 0 0,1 37.82,32.16 C 38.02,31.94 38.18,31.73 38.27,31.51 C 38.38,31.23 38.47,30.61 37.99,30.67 C 37.6,30.72 37.49,31.78 37.49,32.07 A 0.1,0.1 0 0,1 37.44,32.15 L 36.77,32.55 C 36.71,32.58 36.7,32.57 36.74,32.52 C 36.9,32.29 37.04,32.07 37.17,31.84 C 37.32,31.58 37.48,31.04 37.23,30.79 C 36.89,30.45 36.32,30.89 36.05,31.17 L 35.07,32.17 C 34.57,32.7 33.97,33.13 33.28,33.46 A 1.06,1.06 0 0,1 32.83,33.56 A 0.05,0.05 0 0,1 32.8,33.52 V 33.5 C 32.86,33.32 32.93,33.16 33.02,33.01 A 0.8,0.8 0 0,1 33.36,32.75 L 33.78,32.55 C 34.2,32.35 34.47,32.22 34.79,31.93 C 35.06,31.68 35.25,31.3 35.17,30.92 C 35.11,30.62 34.88,30.49 34.6,30.57 C 34.32,30.65 34.07,30.77 33.86,30.92 A 10,10 0 0,0 32.43,32.14 C 32.13,32.43 31.81,32.72 31.44,33.04 C 31.26,33.19 31.09,33.31 30.94,33.4 C 30.89,33.43 30.88,33.42 30.91,33.38 C 31.39,32.66 32.01,31.75 32.8,30.68 C 32.83,30.62 32.82,30.59 32.76,30.59 H 32.02 A 0.2,0.2 0 0,0 31.86,30.67 L 31.63,31 A 0.05,0.05 0 0,1 31.59,31.02 A 0.05,0.05 0 0,1 31.54,30.99 L 31.46,30.81 C 31.24,30.35 30.56,30.59 30.24,30.76 C 29.62,31.07 29.08,31.52 28.62,32.11 L 28.08,32.79 A 0.89,0.89 0 0,1 27.52,33.14 C 27.45,33.16 27.32,33.15 27.12,33.13 A 2.54,2.54 0 0,0 26.72,33.11 C 26.64,33.11 26.64,33.11 26.69,33.06 A 2.46,2.46 0 0,0 27.62,32.02 C 27.75,31.76 27.96,31.32 28.18,31.23 L 28.62,31.05 C 28.69,31.02 28.74,30.99 28.76,30.95 C 28.82,30.84 28.79,30.75 28.66,30.68 A 0.15,0.15 0 0,0 28.48,30.71 L 28.25,30.95 A 0.18,0.18 0 0,1 28.02,30.97 L 27.92,30.9 C 27.78,30.8 27.66,30.71 27.5,30.68 A 0.9,0.9 0 0,0 26.8,30.84 C 26.64,30.94 26.54,31.03 26.5,31.09 L 25.65,32.13 A 6.12,6.12 0 0,1 23.92,33.59 A 0.05,0.05 0 0,1 23.89,33.56 V 33.51 C 23.91,33.45 23.97,33.35 24.07,33.21 L 26.29,30 A 0.19,0.19 0 0,1 26.45,29.92 H 26.52 C 26.8,29.94 27.12,29.95 27.29,29.76 A 0.08,0.08 0 0,0 27.31,29.7 L 27.3,29.67 A 0.07,0.07 0 0,0 27.28,29.64 A 0.15,0.15 0 0,0 27.2,29.62 A 5,5 0 0,1 26.6,29.62 C 26.57,29.61 26.56,29.6 26.58,29.57 L 27.64,28.07 A 0.03,0.03 0 0,0 27.64,28.03 L 27.62,28.02 A 5.65,5.65 0 0,0 26.98,28.01 A 0.07,0.07 0 0,0 26.92,28.04 L 25.84,29.57 A 0.13,0.13 0 0,1 25.74,29.63 H 25.3 A 0.22,0.22 0 0,0 25.14,29.69 L 25.03,29.81 A 0.06,0.06 0 0,0 25.03,29.91 H 25.58 L 25.59,29.93 C 25.6,29.95 25.59,29.97 25.58,29.99 A 78.4,78.4 0 0,1 23.14,32.47 C 22.74,32.85 22.33,33.2 21.88,33.51 A 0.46,0.46 0 0,1 21.68,33.6 L 21.65,33.59 A 0.06,0.06 0 0,1 21.61,33.53 L 21.62,33.5 C 21.69,33.4 21.76,33.3 21.82,33.18 A 343.57,343.57 0 0,1 23.6,30.64 L 23.59,30.63 H 22.9 C 22.77,30.62 22.67,30.65 22.62,30.71 C 22.13,31.28 21.62,31.84 21.06,32.38 C 20.75,32.7 20.39,32.98 20.01,33.25 C 19.7,33.46 19.38,33.57 19.06,33.55 C 19.01,33.55 19,33.58 19,33.63 A 0.06,0.06 0 0,0 19.04,33.68 A 1,1 0 0,0 19.74,33.62 C 20.14,33.44 20.53,33.18 20.9,32.82 A 34.19,34.19 0 0,0 21.8,31.98 H 21.83 V 32 C 21.63,32.28 21.47,32.57 21.33,32.87 C 21.2,33.18 21.08,33.64 21.5,33.8 C 21.6,33.84 21.72,33.83 21.86,33.76 C 22.43,33.47 22.95,33.02 23.4,32.54 Z M 45.85,29.85 C 45.75,29.93 45.73,29.92 45.8,29.8 L 47.35,27.53 C 47.55,27.23 47.78,26.98 48.01,26.79 C 48.11,26.71 48.19,26.66 48.28,26.64 A 0.08,0.08 0 0,1 48.37,26.66 A 0.08,0.08 0 0,1 48.38,26.75 A 6.03,6.03 0 0,1 46.68,29.2 C 46.44,29.4 46.17,29.62 45.85,29.85 Z M 30.47,32.55 C 30.17,32.91 29.47,33.75 28.99,33.62 A 0.13,0.13 0 0,1 28.9,33.56 A 0.14,0.14 0 0,1 28.9,33.45 C 29.05,32.91 29.42,32.43 29.8,31.97 A 4.38,4.38 0 0,1 31.12,30.8 A 0.14,0.14 0 0,1 31.25,30.88 C 31.46,31.34 30.76,32.19 30.47,32.54 Z M 33.33,32.49 C 33.31,32.53 33.33,32.54 33.36,32.52 A 2.35,2.35 0 0,0 34.76,31.1 C 34.8,31 34.83,30.92 34.83,30.84 A 0.07,0.07 0 0,0 34.8,30.79 A 0.06,0.06 0 0,0 34.74,30.78 C 34.56,30.84 34.36,31.01 34.22,31.18 C 33.92,31.54 33.62,31.98 33.33,32.48 Z M 46.9,32.59 C 46.66,32.91 46.35,33.17 45.98,33.39 L 45.92,33.42 C 45.74,33.52 45.63,33.59 45.46,33.61 A 0.09,0.09 0 0,1 45.38,33.57 A 0.1,0.1 0 0,1 45.36,33.48 C 45.46,33.2 45.55,33.02 45.7,32.79 C 46.15,32.15 46.65,31.59 47.2,31.09 C 47.34,30.96 47.5,30.87 47.7,30.81 A 0.11,0.11 0 0,1 47.8,30.83 L 47.84,30.88 V 30.94 C 47.8,31.13 47.74,31.31 47.65,31.47 C 47.45,31.87 47.15,32.29 46.9,32.6 Z M 40.83,31.1 A 9.88,9.88 0 0,0 39.36,32.73 A 3.74,3.74 0 0,0 38.96,33.53 C 38.96,33.55 38.96,33.55 38.98,33.56 C 39.07,33.6 39.15,33.6 39.24,33.56 C 39.61,33.4 39.94,33.19 40.21,32.92 C 40.38,32.76 40.61,32.48 40.88,32.09 C 41.06,31.84 41.47,31.19 41.41,30.93 A 0.1,0.1 0 0,0 41.32,30.85 A 0.1,0.1 0 0,0 41.28,30.85 C 41.12,30.9 40.97,30.98 40.83,31.1 Z M 28,36.06 C 27.82,36.25 27.59,36.46 27.3,36.66 A 0.55,0.55 0 0,1 27,36.77 A 0.1,0.1 0 0,1 26.92,36.73 A 0.1,0.1 0 0,1 26.92,36.63 C 27,36.47 27.12,36.31 27.25,36.16 L 28.11,35.33 C 28.42,35.03 28.73,34.78 29.03,34.58 C 29.13,34.51 29.14,34.53 29.08,34.63 C 28.76,35.15 28.4,35.63 28,36.06 Z" fill="rgb(254, 254, 253)" fill-rule="evenodd"/>
</svg>
