<!-- by Finnhub --><svg width="56" height="56" viewBox="0 0 56 56" xmlns="http://www.w3.org/2000/svg"><path fill="#F0F3FA" d="M0 0h56v56H0z"/><path d="M40 44V18H29v-6H16v32h24ZM28 13v6h11v24H17V13h11Zm-4 27h1.5l.08-1.45.17-3.47c.5 1.39.9 2.77 1.27 4.17.11.41.2.74.8.72.54-.01.76-.19.91-.69.3-1.03.64-2.05.97-3.07l.39-1.2.25.02v4.94H32V33h-1.5c-.82 0-1.18.23-1.37 1-.21.84-.49 1.68-.77 2.55l-.37 1.14-.69-2.44-.63-2.25h-2.22l-.22 3.49L24 40Zm13.91-.5.02.1c-1.34.74-3.56.42-4.55-.64a3.74 3.74 0 0 1-.23-4.51c.96-1.34 3.02-1.84 4.85-1.12-.04.18-.1.37-.14.58l-.13.55c-1.22-.27-2.44-.45-3.2.73a2.31 2.31 0 0 0 0 2.6c.74 1.17 1.93 1 3.18.77l.2.94Zm-14.58-.3-.12-.64c-1.25.23-2.44.4-3.2-.76a2.3 2.3 0 0 1 0-2.6c.77-1.19 1.98-1.01 3.2-.74l.29-1.13c-1.75-.7-3.75-.26-4.76.99-.95 1.17-1 3.2-.08 4.4.92 1.22 2.95 1.64 4.76.95l-.09-.47Z" fill="#B4B4B4"/></svg>