<?xml version="1.0" encoding="UTF-8"?>
<!-- generated by Finnhub -->
<svg viewBox="0 0 55.5 55.5" xmlns="http://www.w3.org/2000/svg">
<path d="M 0,0 H 55.5 V 55.5 H 0 Z" fill="rgb(239, 242, 248)"/>
<path d="M 11.950000000000001,27.985 C 13.22,28 14.35,27.4 15.07,26.48 L 14.4,25.8 A 3,3 0 1,1 14.47,22.3 L 15.19,21.68 A 3.95,3.95 0 0,0 8,24 C 8,26.2 9.77,28 11.96,28 Z M 30.87,28 C 32.13,28 33.26,27.4 33.98,26.48 L 33.36,25.85 A 3,3 0 1,1 33.44,22.25 L 34.1,21.68 A 3.95,3.95 0 0,0 26.9,24 C 26.9,26.2 28.68,28 30.87,28 Z M 18.5,20 H 19.6 L 22.33,28 H 21.31 L 20.64,26 H 17.44 L 16.75,28 H 15.68 L 18.5,20 Z M 17.78,25 H 20.31 L 19.05,21.25 L 17.78,25 Z M 45.18,20 H 43.83 L 41,28 H 42.2 L 42.9,26 H 46.07 L 46.77,28 H 48 L 45.19,20 Z M 45.72,25 H 43.24 L 44.46,21.43 L 45.72,25 Z M 22,21 V 20 H 27 V 21 H 25 V 28 H 24 V 21 H 22 Z M 36,28 H 35 V 20 H 36 V 23 H 39 V 20 H 40 V 28 H 39 V 24 H 36 V 28 Z" fill="rgb(37, 33, 33)"/>
<path d="M 12.82,31.965 L 13.95,30.89 A 3.95,3.95 0 0,0 11.3,30 C 9.47,30 8,31.57 8,33.5 S 9.47,37 11.29,37 A 4,4 0 0,0 14,36.15 L 13.99,36.13 L 14,36.14 V 33 H 11.5 V 34.3 H 12.62 V 35.2 C 12.29,35.47 11.87,35.63 11.42,35.63 C 10.32,35.63 9.42,34.68 9.42,33.5 S 10.32,31.37 11.42,31.37 C 11.97,31.37 12.46,31.61 12.82,31.98 Z M 28.26,37 C 30.9,37 32,35.43 32,33.5 S 30.68,30 28.26,30 C 26.46,30 25,31.57 25,33.5 S 26.46,37 28.26,37 Z M 28.5,35.5 A 2,2 0 1,0 28.5,31.5 A 2,2 0 0,0 28.5,35.5 Z M 17,37 V 30 H 19.75 A 2.25,2.25 0 0,1 20.9,34.18 L 22.22,37 H 20.48 L 19.48,34.5 H 18.5 V 37 H 17 Z M 19.76,31.5 H 18.5 V 33 H 19.76 C 20.16,33 20.5,32.66 20.5,32.25 A 0.74,0.74 0 0,0 19.76,31.5 Z M 43,30 H 45.75 A 2.25,2.25 0 0,1 45.75,34.5 H 44.5 V 37 H 43 V 30 Z M 45.76,31.5 H 44.5 V 33 H 45.76 C 46.16,33 46.5,32.66 46.5,32.25 A 0.74,0.74 0 0,0 45.76,31.5 Z M 34,30 V 34.4 C 34,35.84 35.22,37 36.73,37 H 37.27 C 38.77,37 40,35.84 40,34.4 V 30 H 38.5 V 34.2 C 38.5,34.99 37.82,35.5 37,35.5 S 35.5,34.99 35.5,34.2 V 30 H 34 Z" fill="rgb(205, 33, 56)" fill-rule="evenodd"/>
</svg>
