<?xml version="1.0" encoding="UTF-8"?>
<!-- generated by Finnhub -->
<svg viewBox="0 0 55.5 55.5" xmlns="http://www.w3.org/2000/svg">
<path d="M 0,0 H 55.5 V 55.5 H 0 Z" fill="rgb(239, 242, 248)"/>
<path d="M 28.04,19.925 A 2.5,2.5 0 0,0 27.46,19.25 C 27.44,19.23 27.43,19.21 27.46,19.18 L 27.49,19.14 C 27.53,19.08 27.57,19.08 27.62,19.12 C 27.79,19.27 28.03,19.52 28.33,19.84 A 5.88,5.88 0 0,0 29.79,21.07 C 31.1,21.75 32.36,22.37 33.57,22.96 C 33.65,23 33.72,22.99 33.8,22.96 L 33.99,22.85 A 0.42,0.42 0 0,1 34.22,22.79 C 34.57,22.81 34.75,22.99 34.76,23.36 C 34.76,23.47 34.82,23.55 34.92,23.59 L 39.85,25.54 C 40.22,25.68 40.31,25.58 40.12,25.23 A 26.41,26.41 0 0,0 35.66,19.43 C 35.64,19.41 35.64,19.39 35.66,19.37 L 35.68,19.32 C 35.73,19.23 35.78,19.22 35.85,19.29 C 38.05,21.45 39.57,23.49 40.43,25.45 C 40.53,25.67 40.69,25.81 40.91,25.88 L 43.68,26.71 C 43.87,26.77 44.04,26.74 44.18,26.61 C 44.32,26.51 44.46,26.49 44.61,26.55 C 44.77,26.6 44.86,26.71 44.91,26.87 C 44.96,27.11 44.88,27.3 44.67,27.46 C 44.5,27.59 44.33,27.57 44.17,27.43 A 5.86,5.86 0 0,1 44.04,27.29 C 43.83,27.07 43.64,26.94 43.47,26.89 A 27,27 0 0,1 41.17,26.18 C 40.91,26.08 40.84,26.16 40.97,26.42 A 16.2,16.2 0 0,0 43.92,30.5 C 43.95,30.53 43.94,30.55 43.91,30.57 L 43.85,30.61 C 43.79,30.65 43.73,30.64 43.68,30.59 A 12.8,12.8 0 0,1 40.68,26.29 A 0.87,0.87 0 0,0 39.99,25.76 A 3.13,3.13 0 0,1 39.59,25.66 A 60.06,60.06 0 0,1 34.87,23.81 A 0.59,0.59 0 0,0 34.57,23.76 A 0.77,0.77 0 0,1 33.79,23.41 A 0.22,0.22 0 0,0 33.7,23.33 L 29.68,21.31 C 29.51,21.22 29.48,21.26 29.59,21.41 L 30.99,23.43 A 49.59,49.59 0 0,0 35.65,28.88 C 35.78,29.03 35.95,29.11 36.14,29.12 C 37.17,29.2 38.13,29.32 39.03,29.49 C 41.7,29.99 43.91,31.29 45.67,33.42 C 45.71,33.47 45.71,33.52 45.66,33.56 L 45.6,33.62 C 45.56,33.66 45.52,33.65 45.48,33.61 C 43.34,31.01 40.33,29.62 36.45,29.43 C 36.27,29.43 36.24,29.49 36.37,29.62 A 24.6,24.6 0 0,0 42.4,34.23 C 43.2,34.65 44.05,34.99 44.94,35.25 C 45,35.27 45.01,35.3 44.99,35.35 L 44.95,35.44 C 44.91,35.52 44.85,35.54 44.76,35.52 A 19.37,19.37 0 0,1 38.15,31.62 A 88.7,88.7 0 0,1 35.76,29.42 A 0.5,0.5 0 0,0 35.44,29.28 A 7.05,7.05 0 0,0 34.06,29.3 A 1.2,1.2 0 0,1 33.42,29.16 A 1.67,1.67 0 0,0 32.97,29.01 C 31.85,28.87 30.74,28.61 29.62,28.23 C 29.58,28.21 29.54,28.23 29.52,28.26 C 29.49,28.3 29.5,28.33 29.52,28.36 A 61.5,61.5 0 0,0 33.13,32.11 C 33.36,32.33 33.58,32.44 33.79,32.43 C 34.19,32.41 34.59,32.43 34.96,32.5 C 37.9,32.97 41.26,34.24 45.04,36.33 C 45.1,36.37 45.16,36.37 45.24,36.36 A 0.3,0.3 0 0,0 45.38,36.26 C 45.44,36.19 45.51,36.17 45.6,36.2 C 45.71,36.25 45.8,36.32 45.86,36.42 C 45.94,36.54 45.96,36.66 45.94,36.8 C 45.89,37.05 45.79,37.2 45.62,37.25 C 45.36,37.33 45.19,37.24 45.11,36.98 L 45.03,36.75 A 0.4,0.4 0 0,0 44.83,36.5 A 30.33,30.33 0 0,0 34.5,32.73 C 34.3,32.7 34.1,32.69 33.89,32.7 A 0.06,0.06 0 0,0 33.83,32.75 C 33.83,32.77 33.83,32.8 33.85,32.82 A 20.14,20.14 0 0,0 43.21,37.82 C 44.35,38.1 45.31,38.47 46.07,38.96 A 0.4,0.4 0 0,0 46.25,39.01 L 46.62,39.03 C 46.88,39.04 47.01,39.18 47,39.44 C 47,39.73 46.86,39.91 46.6,39.98 A 0.37,0.37 0 0,1 46.28,39.94 A 0.38,0.38 0 0,1 46.1,39.69 C 45.99,39.12 45.38,38.69 44.27,38.39 A 60.81,60.81 0 0,1 40.35,37.21 C 38.28,36.51 35.99,35.05 33.49,32.84 A 1.3,1.3 0 0,0 32.77,32.54 A 16.98,16.98 0 0,1 27.79,31.15 A 1.41,1.41 0 0,0 27.06,31.12 H 26.96 A 0.28,0.28 0 0,1 26.69,31.01 A 1.65,1.65 0 0,0 26.13,30.47 L 25.2,30.02 C 24.5,29.68 23.97,29.41 23.63,29.2 A 26.11,26.11 0 0,1 18.49,25.1 C 18.34,24.94 18.09,24.83 17.73,24.76 L 17.61,24.73 C 17.47,24.7 17.4,24.62 17.38,24.48 L 17.34,24 C 17.34,23.89 17.29,23.8 17.22,23.71 A 49.5,49.5 0 0,1 13.87,19.66 A 0.05,0.05 0 0,1 13.87,19.59 L 13.91,19.55 C 13.97,19.47 14.03,19.47 14.09,19.55 A 63.65,63.65 0 0,0 17.32,23.43 C 17.5,23.63 17.72,23.8 17.95,23.93 C 18.1,24.02 18.24,24.18 18.36,24.43 C 18.45,24.6 18.53,24.73 18.6,24.8 A 23.31,23.31 0 0,0 26.4,30.32 C 26.47,30.35 26.55,30.35 26.62,30.32 C 26.75,30.27 26.88,30.24 27.01,30.23 C 27.14,30.23 27.24,30.29 27.31,30.4 C 27.51,30.68 27.77,30.88 28.08,31.01 C 29.46,31.56 30.97,31.99 32.6,32.31 C 32.7,32.32 32.75,32.28 32.72,32.17 A 0.44,0.44 0 0,0 32.6,31.97 A 65.68,65.68 0 0,1 29,28.13 A 0.88,0.88 0 0,0 28.62,27.87 C 25.19,26.66 22.56,25.25 20.74,23.67 A 30.5,30.5 0 0,1 16.5,19.14 C 16.46,19.07 16.47,19.04 16.55,19.04 H 16.72 L 16.76,19.05 A 35.89,35.89 0 0,0 20.79,23.36 C 21.55,24.06 22.31,24.61 23.07,25.04 C 24.59,25.91 26.28,26.71 28.13,27.44 C 28.38,27.54 28.43,27.48 28.26,27.27 L 26.49,25 C 26.29,24.73 26.01,24.57 25.67,24.51 A 0.2,0.2 0 0,1 25.49,24.35 A 1.43,1.43 0 0,1 25.47,23.77 A 0.32,0.32 0 0,0 25.41,23.52 C 24.85,22.73 24.31,21.95 23.81,21.16 C 23.65,20.93 23.46,20.81 23.21,20.81 A 0.41,0.41 0 0,1 22.85,20.61 A 0.42,0.42 0 0,1 22.82,20.19 C 22.96,19.86 22.84,19.52 22.45,19.17 C 22.4,19.13 22.41,19.1 22.45,19.07 L 22.55,19.01 C 22.6,18.97 22.65,18.98 22.7,19.04 L 23.16,19.66 A 0.6,0.6 0 0,0 23.41,19.86 C 23.67,20 23.79,20.21 23.77,20.51 C 23.77,20.63 23.8,20.74 23.87,20.83 L 25.64,23.4 C 25.7,23.49 25.79,23.55 25.89,23.6 C 26.23,23.7 26.39,23.94 26.39,24.3 C 26.39,24.4 26.42,24.5 26.49,24.58 C 27.21,25.52 27.93,26.45 28.67,27.37 C 28.9,27.67 29.23,27.87 29.64,27.99 C 30.84,28.33 32.03,28.59 33.19,28.79 C 33.29,28.79 33.36,28.77 33.41,28.69 L 33.55,28.51 A 0.38,0.38 0 0,1 33.75,28.37 C 34.05,28.27 34.26,28.38 34.37,28.7 C 34.4,28.8 34.47,28.87 34.57,28.9 C 34.79,28.98 35.02,29 35.24,29 C 35.39,29 35.41,28.93 35.31,28.83 A 42.13,42.13 0 0,1 29.17,21.25 C 28.98,20.97 28.75,20.75 28.46,20.58 A 38.9,38.9 0 0,1 26.26,19.18 C 26.12,19.08 26.14,19.05 26.31,19.08 C 26.58,19.15 26.96,19.34 27.45,19.67 C 27.68,19.82 27.85,19.94 27.98,20 C 28.1,20.07 28.12,20.04 28.05,19.93 Z" fill="rgb(75, 85, 127)"/>
<path d="M 17.759999999999998,19.145 C 17.69,19.06 17.72,19 17.86,19 H 21.29 C 21.47,19 21.61,19.08 21.71,19.24 A 91.66,91.66 0 0,0 25.98,25.39 C 26.12,25.57 26.08,25.61 25.88,25.53 A 13.9,13.9 0 0,1 23.52,24.29 A 22.54,22.54 0 0,1 17.77,19.16 Z M 18.2,22.23 A 29.37,29.37 0 0,0 23.25,26.13 A 25.19,25.19 0 0,0 27.93,28.16 C 28.1,28.23 28.25,28.32 28.38,28.46 L 30.86,31.13 C 31.06,31.33 31.01,31.39 30.75,31.31 A 27.52,27.52 0 0,1 22.02,26.92 A 29.97,29.97 0 0,1 18.27,23.46 C 17.39,22.5 16.27,21.16 14.92,19.44 C 14.82,19.31 14.84,19.23 15,19.18 L 15.35,19.08 C 15.52,19.04 15.65,19.08 15.75,19.24 A 20.3,20.3 0 0,0 18.19,22.23 Z M 28.54,21.56 C 29.32,22.61 30.12,23.66 30.94,24.71 C 31.24,25.1 31.71,25.66 32.36,26.39 C 32.9,27.01 33.3,27.47 33.56,27.79 C 33.7,27.96 33.66,28.02 33.46,27.99 C 32.16,27.79 30.83,27.44 29.48,26.92 A 1.1,1.1 0 0,1 28.98,26.54 A 82.84,82.84 0 0,1 23.68,19.11 C 23.63,19.04 23.65,19 23.74,19 H 25.23 A 0.5,0.5 0 0,1 25.53,19.14 C 25.75,19.32 26.1,19.57 26.58,19.9 A 8.4,8.4 0 0,1 28.54,21.56 Z M 38.74,24.05 A 52.5,52.5 0 0,1 29.24,19.7 A 2.2,2.2 0 0,1 28.59,19.1 C 28.54,19.03 28.56,19 28.63,19 H 34.56 C 34.79,19 34.98,19.18 35.13,19.34 A 30.9,30.9 0 0,1 38.86,23.91 C 38.96,24.06 38.92,24.11 38.74,24.05 Z M 37.53,19.76 A 8.17,8.17 0 0,1 37.4,19.62 C 37.23,19.4 37.27,19.32 37.54,19.39 A 6.1,6.1 0 0,1 40.8,21.39 A 5.36,5.36 0 0,1 42.18,24.98 C 42.18,25.08 42.14,25.12 42.04,25.12 C 41.74,25.12 41.52,25.07 41.36,24.98 C 41.19,24.88 41.03,24.71 40.89,24.44 A 20.75,20.75 0 0,0 37.53,19.76 Z" fill="rgb(153, 50, 50)"/>
<path d="M 35.96,35.985 H 18 C 14.82,35.9 10.9,33.32 11,29.73 V 24.37 A 5.5,5.5 0 0,1 13.14,20.12 C 13.21,20.06 13.28,20.07 13.34,20.15 L 14.08,21.06 C 16.08,23.56 17.65,25.34 18.77,26.38 A 28.5,28.5 0 0,0 30.03,32.8 C 30.99,33.1 31.97,33.28 32.97,33.37 C 33.13,33.38 33.27,33.44 33.37,33.54 C 34.3,34.36 35.28,35.12 36.33,35.8 C 36.39,35.84 36.39,35.89 36.33,35.94 A 0.12,0.12 0 0,1 36.23,35.96 C 36.14,35.93 36.06,36 35.97,36 Z M 32.03,23.51 A 0.5,0.5 0 0,1 31.93,23.33 C 31.87,23.14 31.93,23.09 32.1,23.18 A 57.38,57.38 0 0,0 39.7,26.2 A 0.8,0.8 0 0,1 40.19,26.62 C 40.6,27.44 41.05,28.28 41.52,29.12 C 41.61,29.27 41.57,29.32 41.39,29.27 A 17.62,17.62 0 0,0 36.79,28.37 A 0.94,0.94 0 0,1 36.12,28.05 A 354.81,354.81 0 0,1 32.02,23.51 Z M 38.2,32.32 C 38.24,32.36 38.23,32.38 38.17,32.37 A 8.78,8.78 0 0,1 37.07,32.14 A 14,14 0 0,0 34.07,31.71 A 0.61,0.61 0 0,1 33.64,31.51 L 31.6,29.46 C 31.57,29.43 31.57,29.4 31.58,29.37 A 0.1,0.1 0 0,1 31.66,29.33 C 32.85,29.58 34.02,29.75 35.18,29.84 C 35.43,29.86 35.65,29.96 35.84,30.14 L 38.2,32.32 Z M 42.02,31.67 L 41.88,32.52 A 0.17,0.17 0 0,1 41.78,32.66 A 0.17,0.17 0 0,1 41.6,32.65 A 31.37,31.37 0 0,1 38.67,30.46 C 38.49,30.31 38.51,30.26 38.74,30.3 C 39.77,30.49 40.8,30.82 41.83,31.3 C 41.99,31.38 42.05,31.5 42.03,31.67 Z" fill="rgb(153, 50, 50)"/>
<path d="M 36.49,33.685 C 37.78,34.02 38.97,34.38 40.07,34.78 C 40.37,34.89 40.38,35.04 40.11,35.21 L 39.86,35.37 A 0.69,0.69 0 0,1 39.16,35.41 C 38.18,34.96 37.27,34.43 36.43,33.82 C 36.23,33.68 36.25,33.63 36.49,33.69 Z" fill="rgb(125, 9, 5)"/>
</svg>
