<?xml version="1.0" encoding="UTF-8"?>
<!-- generated by Finnhub -->
<svg viewBox="0 0 55.5 55.5" xmlns="http://www.w3.org/2000/svg">
<path d="M 0,0 H 55.5 V 55.5 H 0 Z" fill="rgb(239, 242, 248)"/>
<path d="M 32.28,11.985 H 23.7 L 16.28,16.29 L 12,23.7 V 32.28 L 16.29,39.7 L 23.7,44 H 32.28 L 39.7,39.71 L 44,32.3 V 23.7 L 39.71,16.28 L 32.3,12 Z M 31.99,12.5 H 24.55 L 35,18.8 V 31.97 L 39.5,29.69 V 17.01 L 31.99,12.5 Z M 16.94,16.7 L 12.81,23.5 L 23.56,16.87 L 34.5,23.87 V 19.3 L 23.84,12.84 L 16.94,16.69 Z M 12.5,32 L 16.5,38.73 V 26.42 L 27.76,20.32 L 23.54,17.68 L 12.5,24.33 V 32.01 Z M 30.77,43.5 H 24.29 L 17,39.41 V 26.88 L 21,24.79 V 36.96 L 30.77,43.5 Z M 39.36,39.08 L 42.86,33.02 L 32.44,39.25 L 21.5,32.26 V 36.82 L 31.9,43.49 L 39.36,39.09 Z M 40,17.91 L 43.5,24.14 V 32.09 L 32.37,38.62 L 28.37,36 L 40,30 V 17.9 Z" fill="rgb(124, 124, 123)" fill-rule="evenodd"/>
</svg>
