<?xml version="1.0" encoding="UTF-8"?>
<!-- generated by Finnhub -->
<svg viewBox="0 0 55.5 55.5" xmlns="http://www.w3.org/2000/svg">
<path d="M0 0h55.5v55.5H0z" fill="rgb(239, 242, 248)"/>
<path d="M47 18H28v2.5c1-.5 3.8-1.5 7-1.5 4 0 11 1.5 11 9s-6.5 9.5-11 9.5c-3.6 0-6.17-1.33-7-2V38h19V18ZM28 28h7v3h-3v2c.5.33 1.8 1 3 1 1.5 0 6.5-.5 6.5-6 0-1.67-1.3-5-6.5-5s-6.83 1-7 1.5V28Z" fill="rgb(250, 1, 49)"/>
<path d="M28 18H9v20h19v-3c-.83.83-3.5 2.5-7.5 2.5-5 0-10.5-3-10.5-9S15 19 20.5 19c4.4 0 6.83 1 7.5 1.5V18Zm0 6.5c-1-.5-3.9-1.5-7.5-1.5-4.5 0-6 3-6 5.5s2 5.5 6 5.5c3.2 0 6.33-2 7.5-3v-6.5Z" fill="rgb(1, 108, 166)"/>
</svg>
