<?xml version="1.0" encoding="UTF-8"?>
<!-- generated by Finnhub -->
<svg viewBox="0 0 55.5 55.5" xmlns="http://www.w3.org/2000/svg">
<path d="M 0,0 H 55.5 V 55.5 H 0 Z" fill="rgb(48, 118, 113)"/>
<path d="M 5.99,33.985 V 22 H 13 V 24 H 8 V 27 H 13 V 29 H 8 V 34 H 6 Z M 15,22 V 34 H 18.9 C 22.27,34 25,31.31 25,28 S 22.27,22 18.9,22 H 15 Z M 17,24 V 32 H 18.76 C 21.1,32 23,30.2 23,28 S 21.1,24 18.76,24 H 17 Z M 32,34 A 6,6 0 1,0 32,22 A 6,6 0 0,0 32,34 Z M 32,32 A 4,4 0 1,0 32,24 A 4,4 0 0,0 32,32 Z M 45.2,34 C 47.06,34 48.73,33.2 49.86,31.94 L 48.33,30.65 A 4.28,4.28 0 0,1 45.2,32 A 4.1,4.1 0 0,1 41,28 C 41,25.8 42.88,24 45.2,24 C 46.46,24 47.59,24.53 48.36,25.37 L 50,24.22 A 6.26,6.26 0 0,0 45.2,22 A 6.1,6.1 0 0,0 39,28 C 39,31.31 41.77,34 45.2,34 Z" fill="rgb(254, 254, 253)" fill-rule="evenodd"/>
</svg>
