<?xml version="1.0" encoding="UTF-8"?>
<!-- generated by Finnhub -->
<svg viewBox="0 0 55.5 55.5" xmlns="http://www.w3.org/2000/svg">
<path d="M 0,0 H 55.5 V 55.5 H 0 Z" fill="rgb(239, 242, 248)"/>
<path d="M 23.29,12.995 C 23.41,13.79 23.73,14.53 24.25,15.26 C 24.35,15.39 24.31,15.46 24.15,15.46 H 18.3 C 18.1,15.46 18,15.56 18,15.76 V 19.86 C 18,20.04 18.1,20.14 18.28,20.14 H 34.05 C 34.25,20.14 34.35,20.24 34.35,20.43 V 20.72 C 34.35,20.89 34.25,20.98 34.08,20.98 H 18.37 C 18.12,20.98 18,21.1 18,21.34 V 42.76 C 18,42.92 18.08,43 18.24,43 H 37.6 C 37.9,43 38,42.85 38,42.56 V 19.19 C 38,18.99 37.95,18.99 37.79,18.99 L 37.64,19 H 22.09 C 21.83,19 21.69,18.75 21.66,18.5 V 18.47 C 21.64,18.2 21.76,18 22.05,18 H 38.62 C 38.82,18 38.97,17.97 39.07,17.8 L 39.18,17.61 C 39.33,17.35 39.26,17.22 38.95,17.22 H 35.9 C 35.73,17.22 35.65,17.14 35.65,16.98 V 16.78 C 35.65,16.68 35.7,16.62 35.8,16.62 C 36.78,16.59 38.2,16.57 40.06,16.56 C 40.59,16.56 41.14,16.36 41.7,15.95 C 42.05,15.7 42.1,15.4 41.82,15.07 A 3.5,3.5 0 0,0 40.28,13.91 C 39.76,13.73 39.41,13.83 39.21,14.23 C 39.12,14.42 39.13,14.6 39.24,14.77 L 39.37,15 C 39.46,15.15 39.41,15.23 39.24,15.24 L 36.94,15.4 A 0.2,0.2 0 0,1 36.73,15.29 A 0.18,0.18 0 0,1 36.76,15.06 C 37.06,14.72 37.18,14.39 37.14,14.06 C 37.12,13.89 37.03,13.8 36.85,13.77 C 36.11,13.67 35.01,13.62 33.55,13.62 C 32.06,13.62 30.99,13.55 30.34,13.43 C 29.9,13.35 29.54,13.06 29.29,12.57 C 29.19,12.37 29.17,12.01 29.25,11.47 C 29.32,10.99 29.33,10.64 29.27,10.43 A 0.45,0.45 0 0,0 28.99,10.13 C 28.46,9.9 27.9,9.98 27.32,10.34 C 26.97,10.56 26.78,11 26.75,11.64 C 26.74,11.94 26.66,12.48 26.52,13.24 C 26.5,13.4 26.52,13.54 26.62,13.67 C 26.92,14.09 27.34,14.36 27.89,14.47 C 29.13,14.71 30.17,14.97 31.01,15.27 C 31.04,15.29 31.05,15.3 31.04,15.32 L 31,15.45 C 30.98,15.51 30.94,15.53 30.88,15.53 C 29.41,15.28 28.33,15.13 27.64,15.07 A 2.2,2.2 0 0,1 26.07,14.24 C 25.83,13.94 25.55,13.44 25.23,12.71 L 25.04,12.29 C 24.86,11.89 24.54,11.73 24.1,11.81 C 23.8,11.87 23.56,12.02 23.4,12.27 C 23.29,12.46 23.25,12.71 23.3,13.01 Z M 28.96,25.77 L 29.13,29 C 29.14,29.15 29.12,29.29 29.07,29.42 C 28.92,29.8 28.97,30.21 29.24,30.66 C 29.3,30.77 29.4,30.84 29.54,30.86 A 0.4,0.4 0 0,0 29.88,30.75 L 30.88,29.77 A 0.41,0.41 0 0,0 31.01,29.32 A 4.89,4.89 0 0,1 30.88,27.12 C 30.91,26.96 30.84,26.85 30.68,26.8 A 0.83,0.83 0 0,0 30.44,26.76 C 30.32,26.76 30.27,26.82 30.27,26.93 V 29.5 C 30.27,29.65 30.19,29.73 30.03,29.73 H 29.89 C 29.68,29.73 29.58,29.63 29.58,29.43 V 26.29 C 29.58,25.99 29.72,25.77 30.01,25.65 C 30.31,25.52 30.56,25.57 30.79,25.78 C 31.2,26.18 31.42,26.68 31.42,27.32 C 31.44,28.42 31.42,29.37 31.36,30.17 C 31.31,30.87 30.92,31.24 30.19,31.27 L 29.31,31.31 C 28.59,31.33 28.26,30.99 28.32,30.3 C 28.42,29.04 28.42,27.28 28.31,25.02 C 28.29,24.73 28.41,24.52 28.67,24.38 S 29.17,24.25 29.42,24.42 C 29.78,24.65 30.1,24.51 30.39,23.99 C 30.47,23.84 30.43,23.77 30.26,23.77 H 21.23 C 20.77,23.77 20.53,24 20.53,24.45 V 39.64 C 20.53,40.05 20.74,40.26 21.17,40.26 H 34.49 C 35.19,40.26 35.56,39.91 35.56,39.22 V 24.56 C 35.56,24.16 35.36,23.93 34.94,23.86 A 12.8,12.8 0 0,0 31.85,23.84 A 0.42,0.42 0 0,0 31.5,24.05 C 31.18,24.6 30.96,24.92 30.82,25.01 C 30.5,25.22 30.23,25.18 30.02,24.86 C 29.92,24.74 29.82,24.72 29.69,24.81 C 29.19,25.18 28.94,25.5 28.96,25.77 Z M 35.11,15.22 C 35.43,15.22 35.68,15.09 35.68,14.93 C 35.68,14.78 35.41,14.66 35.09,14.66 C 34.78,14.66 34.52,14.8 34.52,14.96 C 34.52,15.11 34.79,15.23 35.11,15.22 Z M 25.5,24.83 C 25.95,24.66 26.4,24.66 26.86,24.84 C 27.03,24.91 27.06,25.01 26.94,25.14 C 26.43,25.71 25.89,25.75 25.33,25.28 C 25.18,25.16 25.07,25.18 24.97,25.34 C 24.87,25.5 24.9,25.72 25.07,25.99 C 25.22,26.25 25.44,26.33 25.74,26.24 C 26.01,26.16 26.32,26.14 26.67,26.19 C 26.89,26.22 27.11,26.19 27.35,26.09 A 0.71,0.71 0 0,0 27.84,25.49 A 0.7,0.7 0 0,0 27.54,24.79 A 2.49,2.49 0 0,0 25.02,24.42 C 24.9,24.46 24.89,24.53 24.98,24.62 L 25.12,24.76 C 25.22,24.86 25.36,24.89 25.5,24.83 Z M 22.75,30.55 L 22.59,30.1 A 0.48,0.48 0 0,1 22.62,29.7 C 23.03,28.88 22.98,28.23 22.47,27.77 A 0.45,0.45 0 0,1 22.33,27.28 C 22.49,26.7 22.65,26.35 22.81,26.24 C 22.95,26.14 23.06,26.16 23.15,26.31 L 23.58,27.02 C 23.65,27.15 23.76,27.22 23.9,27.25 C 24.35,27.35 24.79,27.36 25.22,27.29 C 25.82,27.2 26.18,27.17 26.32,27.2 C 26.78,27.3 27.04,27.6 27.11,28.1 C 27.15,28.45 27.15,29.3 27.11,30.64 C 27.1,30.79 27.04,30.91 26.91,31 C 26.26,31.51 25.54,31.6 24.76,31.25 C 24.39,31.08 24.19,30.95 24.16,30.83 C 23.88,29.95 23.65,29.93 23.45,30.75 C 23.25,31.57 23.65,31.99 24.66,32.04 L 26.57,32.07 C 26.68,32.07 26.75,32.13 26.79,32.22 C 26.83,32.3 26.83,32.37 26.79,32.44 C 26.76,32.51 26.68,32.55 26.54,32.58 C 26.07,32.68 25.67,32.66 25.33,32.54 C 25.17,32.48 25.06,32.53 24.99,32.68 C 24.89,32.88 24.94,33.11 25.13,33.36 C 25.26,33.53 25.4,33.54 25.56,33.4 C 25.86,33.12 26.32,33.07 26.92,33.22 C 27.1,33.26 27.18,33.37 27.18,33.55 V 37.92 C 27.18,38.47 26.91,38.82 26.38,38.99 L 26.22,39.04 C 25.6,39.01 25.29,38.7 25.3,38.13 L 25.34,34.53 C 25.34,34.43 25.4,34.38 25.51,34.38 H 25.66 C 25.86,34.38 25.95,34.48 25.95,34.66 C 25.95,35.8 25.97,37.01 26.02,38.3 C 26.02,38.4 26.07,38.43 26.16,38.4 L 26.31,38.36 C 26.47,38.31 26.56,38.2 26.56,38.03 V 34.32 C 26.56,33.89 26.33,33.67 25.89,33.67 H 25.23 C 24.87,33.67 24.69,33.84 24.69,34.2 V 38.7 C 24.69,39.39 25.05,39.73 25.75,39.73 H 26.65 C 27.42,39.73 27.8,39.35 27.8,38.6 V 27.5 A 0.46,0.46 0 0,0 27.64,27.14 C 27.18,26.74 26.68,26.54 26.12,26.54 L 25.23,26.76 C 24.88,26.86 24.56,26.74 24.29,26.43 C 23.9,25.98 23.76,25.37 23.87,24.59 C 23.9,24.42 23.83,24.33 23.65,24.31 C 22.85,24.2 22.15,24.28 21.53,24.55 A 0.95,0.95 0 0,0 20.98,25.15 A 0.9,0.9 0 0,0 21.08,25.95 C 21.18,26.12 21.26,26.2 21.31,26.21 C 21.88,26.29 21.93,26.49 21.47,26.81 C 20.8,27.28 20.87,27.91 21.68,28.69 C 21.84,28.85 21.82,28.97 21.61,29.05 C 21.28,29.18 21.08,29.39 21,29.67 C 20.95,29.83 21,30.07 21.18,30.37 C 21.65,31.22 21.7,32.07 21.35,32.94 C 21.28,33.13 21.34,33.2 21.54,33.17 S 21.91,33.15 22.04,33.21 C 22.2,33.28 22.28,33.4 22.28,33.56 V 39.13 C 22.28,39.28 22.35,39.33 22.5,39.3 C 22.91,39.2 23.32,39.18 23.73,39.24 C 23.91,39.26 24,39.19 24,39.02 V 34.02 C 24,33.9 23.94,33.84 23.82,33.84 H 23.68 C 23.53,33.84 23.46,33.91 23.46,34.05 V 38.65 C 23.46,38.81 23.38,38.88 23.22,38.88 H 23.02 C 22.9,38.88 22.84,38.82 22.84,38.71 V 33.67 C 22.84,33.34 23.01,33.17 23.35,33.16 C 23.61,33.15 23.78,33.08 23.85,32.94 C 23.92,32.79 23.87,32.68 23.71,32.61 A 1.46,1.46 0 0,1 22.81,31.73 A 0.56,0.56 0 0,0 22.55,31.42 L 22.23,31.23 C 22.05,31.13 22.04,31.03 22.21,30.91 C 22.34,30.81 22.45,30.77 22.53,30.76 C 22.72,30.74 22.79,30.68 22.75,30.56 Z M 23.16,25.07 C 22.85,24.87 22.66,24.77 22.64,24.77 C 22.46,24.75 22.34,24.8 22.26,24.91 C 22.1,25.15 22.17,25.36 22.49,25.51 C 22.75,25.64 22.99,25.61 23.19,25.41 C 23.34,25.29 23.33,25.17 23.16,25.07 Z M 25.05,29.17 C 24.81,28.99 24.65,28.82 24.56,28.67 C 24.44,28.47 24.5,28.37 24.75,28.37 C 25.22,28.37 25.64,28.6 26,29.07 C 26.1,29.21 26.11,29.34 26.03,29.47 C 25.94,29.61 25.78,29.74 25.55,29.87 C 25.32,29.99 25.17,30.12 25.1,30.24 C 25,30.44 25,30.62 25.12,30.77 C 25.21,30.9 25.33,30.95 25.49,30.93 C 26.19,30.85 26.56,30.51 26.59,29.93 L 26.6,29.77 C 26.64,29.13 26.62,28.67 26.53,28.42 C 26.39,27.98 26.04,27.76 25.5,27.74 C 25.24,27.73 24.66,27.8 23.77,27.96 C 23.59,27.99 23.51,28.09 23.51,28.26 V 29.25 C 23.51,29.45 23.61,29.55 23.81,29.58 C 24.32,29.66 24.71,29.66 24.95,29.61 C 25.05,29.58 25.12,29.52 25.15,29.41 C 25.17,29.31 25.14,29.23 25.05,29.17 Z M 21.36,33.6 H 21.33 A 0.33,0.33 0 0,0 21,33.92 L 20.99,39.02 C 20.99,39.2 21.14,39.34 21.32,39.34 H 21.35 C 21.54,39.34 21.69,39.2 21.69,39.02 V 33.92 A 0.33,0.33 0 0,0 21.36,33.6 Z M 34.19,35.94 C 34.22,36.14 34.14,36.19 33.95,36.12 C 33.27,35.88 32.92,35.57 32.9,35.19 C 32.89,35.06 32.93,34.94 33.04,34.85 L 33.67,34.22 A 0.44,0.44 0 0,0 33.81,33.82 A 0.44,0.44 0 0,0 33.57,33.48 L 32.82,33.05 A 0.37,0.37 0 0,0 32.37,33.09 C 32.23,33.2 32.18,33.34 32.24,33.51 C 32.43,34.05 32.34,34.41 32,34.6 A 0.97,0.97 0 0,1 31.02,34.6 A 0.9,0.9 0 0,1 30.51,33.8 C 30.51,33.66 30.68,33.52 31.05,33.4 A 0.48,0.48 0 0,0 31.34,33.12 C 31.48,32.77 31.42,32.46 31.17,32.21 A 1.15,1.15 0 0,0 30.24,31.88 C 29.94,31.9 29.48,31.89 28.87,31.85 C 28.49,31.83 28.31,32 28.31,32.36 V 39.02 C 28.31,39.5 28.56,39.74 29.05,39.74 H 34.18 C 34.43,39.74 34.55,39.62 34.55,39.37 V 37.71 A 0.25,0.25 0 0,0 34.4,37.47 C 34.23,37.38 34.1,37.44 34,37.65 V 37.68 L 33.8,38.58 C 33.76,38.78 33.64,38.87 33.44,38.87 H 32.88 C 32.71,38.87 32.63,38.79 32.65,38.62 C 32.72,37.93 32.93,37.39 33.3,37 C 33.72,36.55 34.13,36.5 34.53,36.86 C 34.64,36.96 34.76,36.97 34.89,36.89 C 35.04,36.79 35.11,36.64 35.09,36.45 A 21.2,21.2 0 0,1 34.97,32.73 A 0.81,0.81 0 0,0 34.57,31.97 A 0.85,0.85 0 0,0 33.7,31.91 C 33.38,32.05 33.1,32.01 32.88,31.79 C 32.8,31.72 32.78,31.63 32.83,31.54 L 32.88,31.43 C 32.98,31.24 33.13,31.19 33.32,31.26 C 33.94,31.5 34.39,31.4 34.69,30.98 C 34.93,30.63 35.02,30.15 34.97,29.54 C 34.85,28.16 34.85,26.84 34.96,25.6 C 35.03,24.76 34.63,24.35 33.77,24.35 H 33 C 32.1,24.35 31.73,24.77 31.86,25.63 C 32.04,26.83 32.07,28.03 31.96,29.23 C 31.94,29.47 31.99,29.67 32.11,29.83 C 32.31,30.09 32.51,30.23 32.72,30.25 C 32.87,30.27 33,30.22 33.12,30.11 L 33.95,29.31 C 34.03,29.22 34.13,29.21 34.23,29.29 C 34.33,29.36 34.36,29.45 34.3,29.56 L 33.69,30.68 C 33.69,30.69 33.67,30.72 33.63,30.75 C 33.44,30.95 33.16,30.95 32.77,30.78 A 0.65,0.65 0 0,0 32.02,30.9 A 0.63,0.63 0 0,0 31.84,31.63 L 32.04,32.18 C 32.14,32.45 32.34,32.58 32.64,32.56 C 33.51,32.49 34.04,32.64 34.24,33.03 C 34.31,33.17 34.33,33.31 34.29,33.46 C 34.09,34.24 34.05,35.06 34.19,35.94 Z M 33.43,28.25 A 0.8,0.8 0 0,1 33.28,27.92 A 0.55,0.55 0 0,1 33.35,27.52 C 33.45,27.36 33.5,27.24 33.51,27.14 C 33.52,26.98 33.45,26.87 33.3,26.81 S 33.06,26.66 33.04,26.54 C 33.02,26.38 33.09,26.26 33.26,26.17 A 0.91,0.91 0 0,1 33.57,26.09 A 0.4,0.4 0 0,0 33.91,25.85 C 33.99,25.66 33.88,25.43 33.57,25.13 C 33.31,24.9 33.08,24.92 32.88,25.19 A 1.5,1.5 0 0,0 32.66,26.41 C 32.84,27.35 32.84,28.09 32.66,28.64 A 0.29,0.29 0 0,0 32.73,28.95 C 32.82,29.05 32.92,29.08 33.04,29.05 C 33.33,28.99 33.49,28.85 33.52,28.64 A 0.48,0.48 0 0,0 33.42,28.25 Z M 30.17,35.11 A 0.93,0.93 0 0,0 29.91,34.79 A 0.72,0.72 0 0,1 29.64,34.41 C 29.43,33.68 29.5,33.27 29.84,33.18 C 30.57,33 30.58,32.78 29.88,32.51 C 29.68,32.44 29.44,32.47 29.14,32.61 A 0.32,0.32 0 0,0 28.94,32.92 V 38.12 C 28.94,38.43 29.08,38.66 29.35,38.82 L 29.6,38.95 C 29.9,39.12 30.04,39.03 30.02,38.7 C 30.02,38.4 29.97,38.04 29.91,37.63 C 29.91,37.58 29.79,37.25 29.56,36.64 C 29.38,36.14 29.56,35.74 30.08,35.42 C 30.21,35.34 30.24,35.24 30.18,35.11 Z M 30.54,36.48 C 30.62,36.64 30.88,36.82 31.31,37.03 C 31.46,37.1 31.53,37.22 31.53,37.38 C 31.53,37.54 31.45,37.66 31.3,37.72 C 31,37.86 30.78,38.13 30.63,38.56 C 30.55,38.77 30.63,38.88 30.86,38.88 H 31.66 C 31.89,38.88 32.04,38.78 32.13,38.58 A 0.45,0.45 0 0,0 32.03,38.04 C 31.84,37.84 31.73,37.67 31.7,37.52 A 0.42,0.42 0 0,1 31.83,37.12 L 32.43,36.53 C 32.56,36.42 32.56,36.3 32.45,36.17 A 2.29,2.29 0 0,1 31.86,35.05 C 31.83,34.9 31.76,34.88 31.66,34.99 L 30.63,35.99 C 30.48,36.13 30.45,36.29 30.53,36.48 Z" fill="rgb(214, 11, 23)" fill-rule="evenodd"/>
</svg>
