<?xml version="1.0" encoding="UTF-8"?>
<!-- generated by Finnhub -->
<svg viewBox="0 0 55.5 55.5" xmlns="http://www.w3.org/2000/svg">
<path d="M 0,0 H 55.5 V 55.5 H 0 Z" fill="rgb(239, 242, 248)"/>
<path d="M 24.2,23.355 L 23.06,33.99 C 22.99,34.63 22.46,35.07 21.9,34.99 C 21.33,34.91 20.93,34.32 21,33.69 L 22.16,23.06 C 22.31,21.75 23.16,21.01 24.11,21 C 24.94,21 25.87,21.56 26.19,22.66 L 28.23,29.6 L 30.03,22.66 C 30.69,20.23 33.83,20.56 34.08,23.07 L 34.99,33.68 C 35.06,34.32 34.65,34.9 34.08,34.97 C 33.51,35.04 33,34.57 32.93,33.94 L 32.02,23.34 L 29.26,34.14 C 29.13,34.63 28.73,34.96 28.28,34.97 C 27.83,34.97 27.42,34.65 27.28,34.16 L 24.21,23.36 Z M 14.5,21 A 5.7,5.7 0 0,1 19.96,24.83 A 1.1,1.1 0 0,1 19.18,26.18 C 18.58,26.34 17.97,25.99 17.81,25.41 A 3.6,3.6 0 0,0 14.5,23 C 11.52,23 10,25.12 10,28 C 10,30.7 11.93,33 14.5,33 C 16.35,33 17.59,31.4 17.79,30.4 C 17.91,29.8 18.49,29.41 19.1,29.53 C 19.7,29.65 20.1,30.23 19.98,30.83 A 5.62,5.62 0 0,1 14.5,35 C 10.76,35 8,31.94 8,28 C 8,23.88 10.32,21 14.5,21 Z M 42.5,21 A 5.7,5.7 0 0,1 47.96,24.83 A 1.1,1.1 0 0,1 47.18,26.18 C 46.58,26.34 45.97,25.99 45.81,25.41 A 3.6,3.6 0 0,0 42.5,23 C 39.52,23 38,25.12 38,28 C 38,30.7 39.93,33 42.5,33 C 44.35,33 45.59,31.4 45.79,30.4 C 45.91,29.8 46.49,29.41 47.1,29.53 C 47.7,29.65 48.1,30.23 47.98,30.83 A 5.62,5.62 0 0,1 42.5,35 C 38.76,35 36,31.94 36,28 C 36,23.88 38.32,21 42.5,21 Z" fill="rgb(1, 64, 23)"/>
</svg>
