<?xml version="1.0" encoding="UTF-8"?>
<!-- generated by Finnhub -->
<svg viewBox="0 0 55.5 55.5" xmlns="http://www.w3.org/2000/svg">
<path d="M 0,0 H 55.5 V 55.5 H 0 Z" fill="url(#a)"/>
<path d="M 28.99,15.985 V 20 H 17.49 C 15.73,20 12,22.55 12,28 C 12,33.45 15.73,36 17.49,36 H 30 V 16 H 34.35 L 42.57,32.63 C 42.68,32.85 43,32.77 43,32.52 V 16 H 47 V 35.63 C 47,37.81 46.05,39.99 44.36,39.99 C 42.68,39.99 41.2,37.81 40.15,35.63 L 34,22.54 V 37 C 34,38.74 32.5,40 31,40 H 17.49 C 14.68,40.16 8,37.15 8,28 S 14.68,16.18 17.49,16 H 29 Z" fill="rgb(216, 139, 43)"/>
<path d="M 28.99,24.985 V 21 H 18.71 C 17.2,21 13,22.4 13,28 S 17.19,35 18.71,35 H 29 V 26 H 19.5 C 19.12,26 18,26.6 18,28 S 19.12,30 19.5,30 H 25 V 31 H 19.5 C 18.74,31 17,30.8 17,28 S 18.74,25 19.5,25 H 29 Z" fill="rgb(216, 139, 43)"/>
<defs>
<linearGradient id="a" x1="28" x2="28" y2="56" gradientUnits="userSpaceOnUse">
<stop stop-color="rgb(67, 151, 192)" offset="0"/>
<stop stop-color="rgb(188, 218, 232)" offset="1"/>
</linearGradient>
</defs>
</svg>
