<?xml version="1.0" encoding="UTF-8"?>
<!-- generated by Finnhub -->
<svg viewBox="0 0 55.5 55.5" xmlns="http://www.w3.org/2000/svg">
<path d="M 0,0 H 55.5 V 55.5 H 0 Z" fill="rgb(239, 242, 248)"/>
<path d="M 47.49,23.985 V 31 H 46 V 24 H 47.5 Z M 50.5,24 V 31 H 49 V 24 H 50.5 Z M 43.8,28.46 A 0.74,0.74 0 0,0 43.06,27.85 C 42.66,27.85 42.4,28.07 42.33,28.45 H 43.8 Z M 42.3,29.22 C 42.3,29.79 42.56,30.07 43.08,30.07 A 0.7,0.7 0 0,0 43.71,29.72 H 44.95 C 44.7,30.57 44.07,31 43.07,31 C 41.91,31 41,30.2 41,29.02 C 41,27.82 41.83,27 43.02,27 C 44.25,27 45,27.89 45,29.08 V 29.22 H 42.3 Z M 24,27 H 25.5 V 27.55 C 25.9,27.19 26.3,27.01 26.8,27.01 C 27.41,27.01 27.88,27.25 28.2,27.74 C 28.53,27.24 29,27 29.6,27 C 30.44,27 31,27.6 31,28.45 V 31 H 29.6 V 29.06 C 29.6,28.64 29.46,28.09 28.93,28.09 C 28.46,28.09 28.23,28.41 28.23,29.06 V 31 H 26.77 V 29.06 C 26.77,28.62 26.69,28.06 26.13,28.06 C 25.56,28.06 25.5,28.61 25.5,29.06 V 31 H 24 V 27 Z"/>
<path d="M 20.99,26.985 C 19.9,27 19,27.86 19,28.97 C 19,30.11 19.83,31 20.98,31 C 22.12,31 23,30.15 23,29 C 23,27.88 22.13,27 21,27 Z M 21,28.3 C 20.62,28.3 20.3,28.6 20.3,28.99 C 20.3,29.39 20.59,29.69 21,29.69 C 21.4,29.69 21.7,29.4 21.7,29 C 21.7,28.6 21.4,28.3 21,28.3 Z" fill="rgb(22, 155, 94)" fill-rule="evenodd"/>
<path d="M 33.99,26.985 C 32.9,27 32,27.86 32,28.97 C 32,30.11 32.83,31 33.98,31 C 35.12,31 36,30.15 36,29 C 36,27.88 35.13,27 34,27 Z M 34,28.3 C 33.62,28.3 33.3,28.6 33.3,28.99 C 33.3,29.39 33.59,29.69 34,29.69 C 34.4,29.69 34.7,29.4 34.7,29 C 34.7,28.6 34.4,28.3 34,28.3 Z" fill-rule="evenodd"/>
<path d="M 14.99,27.005 H 16.5 V 27.72 C 16.8,27.25 17.15,27 17.73,27 H 17.84 C 17.89,27 17.94,27 18,27.02 V 28.34 C 17.81,28.24 17.61,28.2 17.4,28.2 C 16.75,28.2 16.5,28.58 16.5,29.32 V 31 H 15 V 27.02 Z M 10,24 H 11.5 V 27.22 C 11.8,26.8 12.03,26.58 12.55,26.58 C 13.52,26.58 14,27.35 14,28.25 V 31 H 12.55 V 28.82 C 12.55,28.38 12.61,27.8 12.05,27.8 C 11.6,27.8 11.5,28.1 11.5,28.69 V 31 H 10 V 24 Z M 9,28.34 A 1.24,1.24 0 0,0 8.3,28.1 C 7.79,28.1 7.5,28.5 7.5,29.01 C 7.5,29.53 7.79,29.91 8.3,29.91 C 8.55,29.91 8.78,29.83 9,29.66 V 30.79 C 8.67,30.93 8.36,31 8.06,31 A 2,2 0 0,1 6,29.03 C 6,27.86 6.96,27 8.1,27 C 8.43,27 8.72,27.07 9,27.2 V 28.34 Z M 40,28.34 A 1.24,1.24 0 0,0 39.3,28.1 C 38.79,28.1 38.5,28.5 38.5,29.01 C 38.5,29.53 38.79,29.91 39.3,29.91 C 39.55,29.91 39.78,29.83 40,29.66 V 30.79 C 39.67,30.93 39.36,31 39.06,31 A 2,2 0 0,1 37,29.03 C 37,27.86 37.96,27 39.1,27 C 39.43,27 39.72,27.07 40,27.2 V 28.34 Z"/>
</svg>
