<?xml version="1.0" encoding="UTF-8"?>
<!-- generated by Finnhub -->
<svg viewBox="0 0 55.5 55.5" xmlns="http://www.w3.org/2000/svg">
<path d="M 0,0 H 55.5 V 55.5 H 0 Z" fill="rgb(239, 242, 248)"/>
<path d="M 28.04,14.985 L 40,37 H 16.09 L 28.05,15 Z M 28,18 L 37,35 H 36.44 L 30.56,24.26 C 30.43,24.82 30.09,26 29.78,26.28 C 29.75,23.46 28.53,20.25 27.92,19 L 27.46,21.86 L 27.06,21.06 C 26.94,21.01 26.68,21.38 26.68,23.18 S 25.93,26.22 25.56,26.62 L 25.16,24.03 L 24.28,26.28 L 19.56,35 H 19 L 28,18 Z M 23.1,35 H 32.9 A 5.02,5.02 0 0,0 28,29 A 5,5 0 0,0 23.1,35 Z" fill="rgb(158, 36, 31)" fill-rule="evenodd"/>
<path d="M 19.939999999999998,25.005 A 9,9 0 1,1 36.05,25.02 A 8.2,8.2 0 0,1 39.81,25.64 A 8.55,8.55 0 0,1 44.37,36.72 A 8.31,8.31 0 0,1 30,38.67 L 32.19,38.37 A 6.5,6.5 0 1,0 36.94,27.02 L 34.48,23.65 A 7,7 0 1,0 21.48,23.58 C 20.61,25.14 20.09,25.66 19.06,27.01 A 6.5,6.5 0 1,0 23.81,38.36 L 26,38.66 A 8.31,8.31 0 0,1 11.63,36.71 A 8.55,8.55 0 0,1 16.19,25.64 A 8.2,8.2 0 0,1 19.95,25.02 Z" fill="rgb(158, 36, 31)"/>
</svg>
