<?xml version="1.0" encoding="UTF-8"?>
<!-- generated by Finnhub -->
<svg viewBox="0 0 55.5 55.5" xmlns="http://www.w3.org/2000/svg">
<path d="M 0,0 H 55.5 V 55.5 H 0 Z" fill="rgb(239, 242, 248)"/>
<path d="M 43.7,25.105 C 40.85,25.58 37.98,26.34 35.17,25.72 C 33.53,25.37 32.02,24.55 30.38,24.16 C 27.1,23.4 23.71,24.48 20.34,24.41 H 20.24 C 19.5,24.38 18.71,24.27 17.9,24.13 C 16.2,23.83 14.4,23.4 12.72,23.35 A 16.05,16.05 0 0,1 28,12 C 35.8,12 42.29,17.65 43.71,25.12 Z" fill="rgb(161, 216, 229)"/>
<path d="M 43.99,27.765 C 42.27,28.38 40.58,29.28 38.8,29.86 C 33.84,30.51 29.04,27.64 24.03,27.6 H 23.64 C 23.28,27.6 22.91,27.63 22.54,27.66 L 22.09,27.7 C 21.98,27.72 21.86,27.73 21.75,27.73 L 21.41,27.78 C 21.26,27.79 21.11,27.82 20.97,27.84 L 20.87,27.85 L 20.53,27.9 L 20.3,27.93 L 19.85,28.01 H 19.84 L 19.52,28.07 L 18.97,28.16 L 18.57,28.24 L 18.51,28.25 L 18.08,28.33 H 18.05 C 17.99,28.34 17.91,28.34 17.85,28.36 L 17.23,28.46 L 16.73,28.51 C 16.49,28.54 16.23,28.56 15.94,28.56 H 15.51 L 15.22,28.54 L 14.87,28.53 L 14.57,28.51 L 14.32,28.5 C 14.2,28.48 14.08,28.48 13.94,28.47 L 13.6,28.45 H 13.56 C 13.44,28.44 13.3,28.44 13.18,28.42 C 12.78,28.39 12.4,28.37 12,28.37 V 28 C 12,27.65 12.02,27.3 12.03,26.96 L 13.03,27.04 L 13.19,27.06 C 13.39,27.07 13.57,27.1 13.77,27.12 L 13.94,27.13 L 14.26,27.18 L 14.41,27.19 C 14.71,27.22 14.98,27.27 15.26,27.29 C 15.46,27.3 15.66,27.33 15.86,27.33 C 15.91,27.33 15.97,27.33 16.03,27.35 H 16.29 C 16.46,27.35 16.62,27.35 16.77,27.33 C 16.8,27.33 16.84,27.33 16.87,27.31 L 17.21,27.28 L 17.55,27.24 C 17.78,27.21 17.99,27.16 18.22,27.12 L 18.56,27.04 C 18.57,27.04 18.59,27.04 18.6,27.02 C 18.7,27.01 18.79,26.98 18.88,26.96 L 19.21,26.89 L 19.87,26.72 L 20.67,26.52 L 21.05,26.42 L 21.43,26.34 L 21.81,26.26 C 21.93,26.23 22.06,26.22 22.18,26.18 L 22.56,26.11 L 22.94,26.05 C 27.56,25.41 32.2,27.35 36.84,26.99 L 37.17,26.96 L 37.43,26.93 L 37.67,26.9 C 37.86,26.89 38.04,26.86 38.22,26.83 C 38.28,26.81 38.35,26.81 38.41,26.8 L 38.59,26.76 L 38.85,26.72 C 38.95,26.7 39.06,26.67 39.17,26.66 C 39.27,26.64 39.35,26.61 39.47,26.6 A 11.77,11.77 0 0,0 40.37,26.37 C 40.45,26.35 40.53,26.34 40.59,26.31 L 40.87,26.23 L 41.67,26 L 42.11,25.88 C 42.4,25.78 42.69,25.71 42.96,25.62 L 43.39,25.48 L 43.82,25.36 C 43.92,26.2 44,26.98 44,27.79 Z" fill="rgb(1, 72, 133)"/>
<path d="M 43.84,30.235 A 16,16 0 0,1 37,41.24 C 32.6,39.75 27.76,41.49 23.16,40.93 C 20.83,40.64 18.63,39.77 16.4,39.02 A 15.83,15.83 0 0,1 12.89,33.26 C 14.03,33.31 15.18,33.31 16.33,33.32 L 18.79,33.34 H 20.94 C 25.97,33.32 31,33.12 35.89,32.14 L 36.04,32.1 C 36.96,31.92 37.86,31.7 38.76,31.44 L 40.78,30.88 C 41.78,30.58 42.81,30.34 43.85,30.25 Z" fill="rgb(94, 152, 173)"/>
<path d="M 27.99,43.985 C 23.43,44 19.3,42.1 16.39,39.02 C 18.62,39.77 20.82,40.64 23.14,40.93 C 27.76,41.51 32.58,39.75 36.99,41.23 A 15.9,15.9 0 0,1 28,44 Z" fill="rgb(161, 216, 229)"/>
<path d="M 43.79,25.395 C 43.66,25.46 43.51,25.49 43.37,25.53 L 42.95,25.67 L 42.09,25.93 C 41.95,25.98 41.8,26.03 41.66,26.05 L 40.86,26.28 L 40.58,26.36 C 40.5,26.37 40.42,26.4 40.36,26.42 L 40.15,26.48 L 39.45,26.65 L 39.15,26.71 L 38.84,26.77 L 38.58,26.82 C 38.51,26.83 38.45,26.83 38.39,26.85 L 38.21,26.88 C 38.03,26.91 37.84,26.94 37.66,26.95 C 37.58,26.97 37.51,26.97 37.41,26.98 L 37.15,27.01 L 36.83,27.05 C 32.19,27.4 27.54,25.45 22.93,26.1 L 22.54,26.16 C 22.41,26.17 22.29,26.21 22.16,26.24 L 21.8,26.31 L 21.41,26.39 L 21.03,26.48 L 20.65,26.58 C 20.39,26.63 20.11,26.71 19.85,26.77 C 19.65,26.83 19.41,26.87 19.2,26.94 C 19.1,26.97 18.97,27 18.86,27.01 L 18.59,27.08 L 18.54,27.09 L 18.2,27.17 L 17.53,27.29 L 17.2,27.34 C 17.09,27.35 16.98,27.37 16.86,27.37 L 16.76,27.38 C 16.6,27.4 16.45,27.4 16.28,27.4 H 16.02 C 15.96,27.4 15.9,27.4 15.84,27.38 A 50.9,50.9 0 0,0 15.24,27.34 L 14.61,27.26 L 14.4,27.23 L 14.25,27.21 L 13.93,27.17 L 13.76,27.15 L 13.18,27.09 L 13.01,27.08 C 12.67,27.05 12.35,27.01 12.01,27 C 12.09,25.7 12.34,24.45 12.71,23.26 C 14.4,23.32 16.21,23.73 17.88,24.02 A 19,19 0 0,0 20.22,24.3 H 20.32 C 23.69,24.37 27.08,23.3 30.37,24.05 C 32,24.42 33.52,25.23 35.15,25.59 C 37.96,26.21 40.84,25.44 43.69,24.99 C 43.74,25.11 43.77,25.26 43.8,25.41 Z M 38.8,29.86 C 38.12,30.08 37.41,30.26 36.71,30.38 C 34.17,30.74 31.59,30.1 29.01,30.15 L 28.46,30.16 C 28.4,30.16 28.34,30.16 28.29,30.18 L 28.08,30.19 C 27.98,30.19 27.89,30.21 27.8,30.22 L 27.47,30.25 C 27.39,30.27 27.31,30.27 27.22,30.28 A 23.51,23.51 0 0,0 25.19,30.65 C 23.92,30.93 22.64,31.26 21.37,31.57 L 20.34,31.8 L 20.02,31.87 L 19.79,31.92 L 19.24,32.02 L 18.69,32.12 C 18.51,32.15 18.33,32.18 18.14,32.19 L 17.85,32.22 C 17.76,32.24 17.65,32.25 17.56,32.25 L 16.68,32.35 L 16.13,32.39 C 16.07,32.39 16,32.39 15.94,32.41 L 15.64,32.42 C 15.58,32.42 15.51,32.42 15.45,32.44 L 14.89,32.45 L 14.48,32.47 H 12.63 A 15.4,15.4 0 0,1 12,28.37 C 12.38,28.37 12.78,28.4 13.18,28.42 L 13.56,28.45 H 13.6 L 13.94,28.47 C 14.06,28.48 14.2,28.48 14.32,28.5 L 14.57,28.51 L 14.87,28.53 L 15.22,28.54 L 15.52,28.56 H 15.94 C 16.22,28.56 16.48,28.54 16.72,28.51 C 16.89,28.5 17.06,28.47 17.22,28.45 L 17.85,28.35 C 17.93,28.35 17.99,28.35 18.05,28.33 H 18.08 L 18.51,28.25 L 18.57,28.24 L 18.97,28.16 L 19.52,28.06 C 19.62,28.06 19.73,28.04 19.84,28.01 H 19.85 L 20.3,27.93 L 20.53,27.9 L 20.86,27.85 L 20.97,27.84 L 21.41,27.78 L 21.75,27.73 L 22.09,27.7 L 22.54,27.66 L 23.64,27.6 H 24.03 C 29.03,27.64 33.85,30.51 38.8,29.86 Z" fill="rgb(83, 199, 230)"/>
<path d="M 43.99,27.985 C 44,28.76 43.95,29.5 43.85,30.25 C 42.81,30.35 41.78,30.59 40.78,30.88 L 38.76,31.44 A 49,49 0 0,1 36.04,32.1 L 35.89,32.13 C 30.99,33.13 25.97,33.33 20.94,33.33 H 16.33 C 15.18,33.31 14.03,33.31 12.89,33.26 A 6.8,6.8 0 0,1 12.63,32.46 H 14.88 L 15.45,32.44 C 15.52,32.44 15.58,32.44 15.64,32.42 L 15.94,32.41 C 16,32.41 16.07,32.41 16.13,32.39 L 16.68,32.35 C 16.97,32.31 17.28,32.3 17.56,32.25 L 17.86,32.22 L 18.14,32.19 L 18.69,32.12 L 19.24,32.02 L 19.79,31.92 L 20.02,31.87 L 20.34,31.8 L 21.37,31.57 C 22.64,31.27 23.92,30.91 25.19,30.65 L 25.46,30.59 C 26.04,30.47 26.64,30.36 27.22,30.29 L 27.47,30.25 L 27.8,30.22 C 27.9,30.21 27.99,30.21 28.08,30.19 L 28.29,30.18 L 28.46,30.16 L 29.01,30.15 C 31.58,30.1 34.16,30.75 36.71,30.38 A 14,14 0 0,0 38.81,29.86 C 40.56,29.28 42.26,28.39 44,27.78 V 27.99 Z" fill="rgb(161, 216, 229)"/>
<path d="M 35.92,32.155 H 35.87 C 35.81,32.17 35.78,32.18 35.78,32.19 V 32.6 C 35.78,33.49 35.36,34.37 34.53,35.26 L 34.5,35.27 A 9,9 0 0,1 32.56,36.72 L 32.55,36.74 L 32.46,36.78 C 32.04,37.01 31.66,37.18 31.34,37.3 L 30.63,37.5 C 30.61,37.5 30.6,37.5 30.58,37.52 H 30.55 L 30.25,37.58 L 29.52,37.68 C 29.22,37.71 28.91,37.72 28.59,37.72 A 7.22,7.22 0 0,1 22.66,35.07 A 9.24,9.24 0 0,1 21.01,31.87 A 12.98,12.98 0 0,1 20.51,28.29 V 28.03 A 12.48,12.48 0 0,1 20.91,24.69 A 9.08,9.08 0 0,1 22.79,20.98 A 7.53,7.53 0 0,1 28.84,18.29 L 29.49,18.32 H 29.55 C 30.16,18.38 30.75,18.51 31.31,18.7 C 31.57,18.8 31.95,18.97 32.43,19.23 L 32.52,19.28 C 33.28,19.68 33.93,20.18 34.49,20.74 L 34.5,20.76 C 35.34,21.64 35.75,22.53 35.75,23.41 V 23.82 C 35.75,23.85 35.78,23.86 35.84,23.86 S 35.94,23.85 35.94,23.82 L 35.9,22.42 V 22.35 L 35.78,19.23 A 21.49,21.49 0 0,0 28.78,18 A 11.34,11.34 0 0,0 21.22,20.82 A 9.63,9.63 0 0,0 18.02,27.61 L 18,28.03 L 18.01,28.7 C 18.09,29.86 18.35,30.96 18.81,32 C 18.84,32.06 18.89,32.14 18.91,32.22 A 9.83,9.83 0 0,0 21.04,35.17 C 21.99,36.04 23.11,36.74 24.44,37.25 C 25.74,37.75 27.16,38 28.64,38 C 30.09,38 31.44,37.88 32.71,37.65 C 33.98,37.42 35.01,37.13 35.84,36.77 L 35.96,33.59 L 36,32.18 C 35.97,32.19 35.96,32.18 35.93,32.17 Z" fill="rgb(239, 242, 248)"/>
</svg>
