<?xml version="1.0" encoding="UTF-8"?>
<!-- generated by Finnhub -->
<svg viewBox="0 0 55.5 55.5" xmlns="http://www.w3.org/2000/svg">
<path d="M 0,0 H 55.5 V 55.5 H 0 Z" fill="rgb(239, 242, 248)"/>
<ellipse cx="28.87" cy="11.06" rx="2.03" ry="2.06" fill="rgb(1, 146, 147)"/>
<path d="M 38.75,15.895 C 39.56,17.41 39.79,20.13 39.79,20.13 A 5.4,5.4 0 0,1 36.71,21.09 A 5.53,5.53 0 0,1 31.22,15.53 A 5.58,5.58 0 0,1 33.86,10.77 C 35.06,11.26 36.94,12.45 38.76,15.91 Z" fill="rgb(50, 168, 169)"/>
<ellipse cx="24.18" cy="15.53" rx="3.25" ry="3.3" fill="rgb(101, 189, 190)"/>
<ellipse cx="21.45" cy="23.19" rx="2.55" ry="2.58" fill="rgb(1, 146, 147)"/>
<ellipse cx="25.28" cy="19.27" rx="3.72" ry="3.77" fill="rgb(126, 200, 200)"/>
<path d="M 21.81,20.625 A 2.57,2.57 0 0,1 23.96,22.79 A 3.76,3.76 0 0,1 21.82,20.64 Z" fill="rgb(1, 118, 121)"/>
<path d="M 21.84,17.805 A 3.72,3.72 0 0,1 27.37,16.15 A 3.26,3.26 0 0,1 24.18,18.82 C 23.27,18.82 22.44,18.44 21.85,17.82 Z" fill="rgb(50, 150, 151)"/>
<ellipse cx="18.78" cy="12.23" rx="2.03" ry="2.06" fill="rgb(126, 200, 200)"/>
<ellipse cx="14.55" cy="15.08" rx="1.48" ry="1.51" fill="rgb(126, 200, 200)"/>
<ellipse cx="16.14" cy="20.09" rx="1.77" ry="1.79" fill="rgb(50, 168, 169)"/>
<ellipse cx="16.69" cy="26.34" rx="2" ry="2.03" fill="rgb(126, 200, 200)"/>
<ellipse cx="20.97" cy="27.45" rx="3.37" ry="3.42" fill="rgb(101, 189, 190)"/>
<ellipse cx="27.07" cy="28.58" rx="4.33" ry="4.4" fill="rgb(126, 200, 200)"/>
<path d="M 39.57,25.775 C 39.58,29.74 39.7,32.06 35.8,32.06 S 28.74,28.86 28.74,24.9 A 7.11,7.11 0 0,1 35.8,17.74 C 37.19,17.74 38.48,18.15 39.58,18.85 C 40.05,20.43 39.87,23.82 39.58,25.79 Z" fill="rgb(126, 200, 200)"/>
<path d="M 32.21,18.715 A 6.95,6.95 0 0,1 39.58,18.85 C 39.68,19.2 39.75,19.63 39.8,20.12 A 5.4,5.4 0 0,1 32.22,18.73 Z" fill="rgb(24, 132, 134)"/>
<path d="M 28.74,24.515 A 4.4,4.4 0 0,1 31.09,30.23 A 7.19,7.19 0 0,1 28.75,24.53 Z M 23.02,30.16 A 3.43,3.43 0 0,0 23.84,25.66 A 4.42,4.42 0 0,0 23.02,30.16 Z M 17.67,28.11 A 3.48,3.48 0 0,1 18.38,25.26 A 2.04,2.04 0 0,1 17.67,28.11 Z" fill="rgb(50, 168, 169)"/>
<ellipse cx="11.53" cy="22.48" rx="1.53" ry="1.55" fill="rgb(126, 200, 200)"/>
<ellipse cx="22.39" cy="34.66" rx="1.53" ry="1.55" fill="rgb(126, 200, 200)"/>
<ellipse cx="23.33" cy="40.66" rx="1.96" ry="1.99" fill="rgb(126, 200, 200)"/>
<path d="M 33.49,41.735 V 42.1 C 31.56,42.81 30.25,44.59 29.12,46.94 A 5.15,5.15 0 0,1 23.16,41.75 A 5.2,5.2 0 0,1 28.33,36.51 A 5.2,5.2 0 0,1 33.51,41.75 Z" fill="rgb(50, 168, 169)"/>
<path d="M 24.04,38.795 C 24.78,39.11 25.29,39.82 25.29,40.66 A 1.98,1.98 0 0,1 23.24,42.65 A 5.35,5.35 0 0,1 24.05,38.81 Z" fill="rgb(23, 131, 133)"/>
<path d="M 40.22,32.955 C 40.23,33.65 40.91,33.93 40.99,34.63 C 40.99,35.03 40.56,35.21 40.23,35.3 C 40.5,35.64 40.56,35.73 40.56,36.25 C 40.53,36.69 40.23,37.09 39.69,37.38 C 39.91,37.85 40.19,39.27 39.89,40.13 C 39.35,41.73 38.29,42.03 35.99,42.03 C 34.77,42.03 34.12,42.03 32.99,42.25 A 9.21,9.21 0 0,1 27.37,33.74 C 27.37,28.65 31.44,24.53 36.45,24.53 C 37.57,24.53 38.65,24.73 39.64,25.11 C 40.57,26.87 43,28.15 43,29.57 C 43,30.91 42.02,31.37 41.32,31.55 C 40.55,31.88 40.22,32.2 40.22,32.97 Z" fill="rgb(1, 146, 147)"/>
</svg>
