<?xml version="1.0" encoding="UTF-8"?>
<!-- generated by Finnhub -->
<svg viewBox="0 0 55.5 55.5" xmlns="http://www.w3.org/2000/svg">
<path d="M 0,0 H 55.5 V 55.5 H 0 Z" fill="rgb(239, 242, 248)"/>
<path d="M 38.158,30.985 C 39.125,28.847 38.468,24.598 38.018,24 H 27.254 C 26.356,24 26.356,26 27.254,26 H 32.936 C 35.328,26 35.329,29 32.936,29 H 26.356 C 25.46,29 25.459,31 26.356,31 H 38.169 Z" fill="rgb(10, 107, 27)"/>
<path d="M 27.99,43.985 C 36.837,44 44,36.837 44,28 S 36.837,12 28,12 S 12,19.163 12,28 C 12,36.837 19.163,44 28,44 Z M 28,41.01 C 35.185,41.01 41.01,35.185 41.01,28 S 35.184,14.99 28,14.99 S 14.99,20.816 14.99,28 C 14.99,35.184 20.816,41.01 28,41.01 Z" fill="rgb(9, 58, 133)" fill-rule="evenodd"/>
<path d="M 35.496,19.962 H 27.551 C 26.554,19.977 23.593,20.477 22.916,23.64 C 22.198,26.99 21.619,29.621 21.42,30.519 C 21.121,32.014 21.53,35.005 24.41,35.005 H 36.352 A 10.893,10.893 0 0,1 28,38.892 C 21.97,38.892 17.084,34.005 17.084,27.977 C 17.084,21.947 21.971,17.061 28,17.061 C 30.907,17.061 33.55,18.123 35.506,19.977 Z" fill="rgb(1, 121, 195)"/>
</svg>
