<?xml version="1.0" encoding="UTF-8"?>
<!-- generated by Finnhub -->
<svg viewBox="0 0 55.5 55.5" xmlns="http://www.w3.org/2000/svg">
<path d="M0 0h55.5v55.5H0z" fill="url(#a)"/>
<path d="M21.57 43 7 22.04 34.13 18 21.57 43Z" fill="rgb(26, 119, 207)"/>
<path d="m26.1 34-.16.3L9.1 21.72l5.53-.82L26.1 34Z" fill="rgb(33, 104, 175)"/>
<path d="m26.19 33.8-.1.2-11.45-13.1 2.36-.35L26.2 33.8Z" fill="rgb(40, 90, 143)"/>
<path d="m21.16 19.93 5.26 13.4-.23.48L17 20.55l4.16-.62Z" fill="rgb(44, 76, 112)"/>
<path d="m21.16 19.93 5.26 13.4L34.13 18l-12.97 1.93Z" fill="rgb(48, 60, 71)"/>
<path d="M23.06 23.33c-2.2 0-3.61 1.8-3.59 3.67.03 1.87 1.4 3.66 3.6 3.66a3.6 3.6 0 0 0 2.84-1.27l.97.9A5.08 5.08 0 0 1 18 27a5.08 5.08 0 0 1 8.5-3.67l-.86 1c-.7-.65-1.53-1-2.58-1ZM44.25 23.33c-2.28 0-3.85 1.55-3.85 3.67s1.57 3.6 3.85 3.6c1.2 0 1.88-.21 2.43-.69V27.4H45V26h3v4.6l-.15.15c-.82.86-2.1 1.25-3.6 1.25A5.13 5.13 0 0 1 39 27c0-2.76 2.35-5 5.25-5 1.38 0 2.63.5 3.57 1.33l-.77.79c-.73-.65-1.72-.79-2.8-.79ZM28 32h1.4v-7.43L32.68 32h.78l3.14-7.43V32H38V22h-1.66l-3.26 7.75L29.63 22H28v10Z" fill="rgb(254, 254, 253)"/>
<defs>
<linearGradient id="a" x1="10.42" x2="68.15" y1="9.71" y2="76.02" gradientUnits="userSpaceOnUse">
<stop stop-color="rgb(25, 29, 31)" offset="0"/>
<stop stop-color="rgb(5, 5, 8)" offset="1"/>
</linearGradient>
</defs>
</svg>
