<?xml version="1.0" encoding="UTF-8"?>
<!-- generated by Finnhub -->
<svg viewBox="0 0 55.5 55.5" xmlns="http://www.w3.org/2000/svg">
<path d="M 0,0 H 55.5 V 55.5 H 0 Z" fill="url(#a)"/>
<path d="M 43.99,20.985 H 48 V 17 H 44 V 21 Z" fill="rgb(216, 47, 51)"/>
<path d="M 19.997999999999998,32.985 H 14 A 3,3 0 1,1 14,27 H 20.008 V 23 H 14.46 C 12.146,23.015 6,23.178 6,30.062 C 6,36.939 12.16,36.982 14.488,36.998 H 14.494 L 20.008,37 V 33 Z M 44,28 V 23.01 H 48 V 37 H 44 V 32 H 37 V 37 H 34.273 C 33.603,37 33.181,36.968 32.545,36.748 C 31.997,36.56 31.054,36.042 30.362,35.193 C 30.362,35.193 25.774,30.025 25,29.13 V 37 H 21.008 V 23 H 24.1 C 24.743,23 25.467,23.07 26.064,23.307 C 26.664,23.542 27.311,24.184 27.726,24.67 C 28.141,25.156 32.311,30.11 33.047,31.073 V 23 H 37 V 28 H 44 Z" fill="rgb(254, 254, 253)"/>
<defs>
<linearGradient id="a" x1="10.418" x2="68.147" y1="9.712" y2="76.017" gradientUnits="userSpaceOnUse">
<stop stop-color="rgb(25, 29, 31)" offset="0"/>
<stop stop-color="rgb(5, 5, 8)" offset="1"/>
</linearGradient>
</defs>
</svg>
