<?xml version="1.0" encoding="UTF-8"?>
<!-- generated by Finnhub -->
<svg viewBox="0 0 55.5 55.5" xmlns="http://www.w3.org/2000/svg">
<path d="M 0,0 H 55.5 V 55.5 H 0 Z" fill="rgb(239, 242, 248)"/>
<path d="M 36.17,39.005 A 13.7,13.7 0 0,0 41.31,24.86 L 43.11,21.72 A 14.8,14.8 0 0,1 41.83,33.49 A 14.66,14.66 0 0,1 36.18,39.02 Z M 32.65,15.15 C 31.16,14.6 29.59,14.33 28,14.33 C 24.48,14.33 21.1,15.56 18.56,18 H 14.99 C 16.32,16.6 17.92,15.6 19.69,14.8 A 14.94,14.94 0 0,1 32.65,15.15 Z M 14.41,29.5 A 13.7,13.7 0 0,0 24.11,41.16 L 25.91,44.3 A 14.64,14.64 0 0,1 14.41,29.5 Z" fill="rgb(101, 101, 100)"/>
<path d="M 27.99,10.985 C 33.7,11 38.75,13.68 41.83,18 H 38.2 L 37.9,17.74 A 16.19,16.19 0 0,0 25,12.32 C 22.44,12.46 19.95,13.2 17.74,14.48 A 16.81,16.81 0 0,1 28,11 Z M 44.96,26.84 A 17.03,17.03 0 0,1 29.7,45 L 31.5,41.88 L 32,41.78 A 15.78,15.78 0 0,0 42.84,34.09 A 15.97,15.97 0 0,0 44.96,26.84 Z M 20.4,43.28 A 17.05,17.05 0 0,1 12.5,21.04 L 14.31,24.19 C 14.26,24.29 14.21,24.46 14.13,24.66 L 14.05,24.9 A 15.84,15.84 0 0,0 19.91,42.96 L 20.4,43.28 Z M 18.28,23 L 28,39.31 L 29.2,37.22 L 25.07,30 H 28.34 L 30.84,34.4 L 32.48,37.23 L 28,45 L 20.69,32.3 L 13.39,20 H 22.34 L 23.98,22.45 L 27.15,28 H 23.88 L 20.68,23 H 18.28 Z M 29.64,23 H 32.04 L 34.88,27.38 L 36.52,30.22 L 38.16,27.37 L 36.52,24.53 H 36.51 L 35.31,23 H 37.71 L 39.36,25.3 L 42.63,20 H 24.73 L 26.37,22.45 L 32.04,32.3 L 33.68,35.15 L 35.32,32.3 H 35.33 L 33.69,29.45 L 32.05,32.3 L 33.69,29.46 L 29.64,23 Z" fill="rgb(31, 166, 199)"/>
</svg>
