<!-- by Finnhub --><svg width="56" height="56" viewBox="0 0 56 56" fill="none" xmlns="http://www.w3.org/2000/svg">
<rect width="56" height="56" fill="#F0F3FA"/>
<path d="M18.4691 22.7843L18.3789 22.6241C18.3772 22.6218 18.3764 22.6189 18.3769 22.616C18.3773 22.6131 18.3789 22.6106 18.3813 22.6089C18.3836 22.6071 18.3866 22.6064 18.3895 22.6068C18.3924 22.6073 18.3951 22.6088 18.3968 22.6111C18.8762 23.0883 19.3525 23.5679 19.8257 24.0501C19.831 24.0555 19.838 24.0591 19.8456 24.0602C19.8532 24.0613 19.861 24.0599 19.8677 24.0563C19.8744 24.0526 19.8797 24.0469 19.8828 24.04C19.8859 24.0331 19.8866 24.0254 19.8848 24.0181L19.8607 23.925C19.8585 23.9179 19.8591 23.9103 19.8624 23.9036C19.8656 23.897 19.8713 23.8917 19.8783 23.8888C19.8853 23.8859 19.8932 23.8856 19.9005 23.8879C19.9079 23.8902 19.9141 23.895 19.9182 23.9014C20.1701 24.292 20.4292 24.6781 20.6956 25.0596C20.6968 25.0617 20.6984 25.0635 20.7004 25.065C20.7024 25.0665 20.7046 25.0676 20.707 25.0682C20.7093 25.0688 20.7118 25.069 20.7143 25.0687C20.7167 25.0684 20.7191 25.0676 20.7212 25.0664C20.7234 25.0652 20.7253 25.0636 20.7268 25.0617C20.7283 25.0598 20.7294 25.0576 20.7301 25.0553C20.7307 25.0529 20.7309 25.0505 20.7306 25.0481C20.7303 25.0457 20.7295 25.0434 20.7282 25.0413C20.3452 24.2564 19.9519 23.4766 19.5481 22.7019C19.5181 22.644 19.5277 22.6368 19.5769 22.6806L19.7176 22.8057C19.7219 22.8095 19.7275 22.8118 19.7333 22.8123C19.7391 22.8127 19.7449 22.8113 19.7498 22.8081C19.7546 22.805 19.7583 22.8004 19.7602 22.7949C19.7622 22.7895 19.7622 22.7837 19.7604 22.7782L18.6992 19.6439C18.6981 19.6403 18.6982 19.6365 18.6994 19.633C18.7006 19.6295 18.703 19.6264 18.7061 19.6243C18.7092 19.6222 18.7129 19.6211 18.7167 19.6212C18.7205 19.6213 18.7242 19.6225 18.7272 19.6248L19.056 19.8812C19.0595 19.8839 19.0637 19.8855 19.0682 19.8858C19.0726 19.8861 19.077 19.885 19.0808 19.8828C19.0846 19.8806 19.0876 19.8772 19.0895 19.8733C19.0913 19.8693 19.0918 19.8649 19.091 19.8606L18.5072 16.8247C18.5061 16.8191 18.5069 16.8134 18.5097 16.8084C18.5124 16.8034 18.5168 16.7995 18.5221 16.7973C18.5274 16.7952 18.5333 16.7949 18.5388 16.7965C18.5443 16.7982 18.5491 16.8016 18.5523 16.8063L18.7427 17.078C18.7463 17.0831 18.7515 17.0869 18.7574 17.089C18.7634 17.0911 18.7698 17.0914 18.7759 17.0897C18.782 17.088 18.7874 17.0845 18.7913 17.0797C18.7953 17.0748 18.7976 17.0689 18.7979 17.0627L19.0148 14.4533C19.0155 14.4467 19.0184 14.4404 19.023 14.4355C19.0277 14.4307 19.0338 14.4274 19.0405 14.4263C19.0472 14.4252 19.0541 14.4262 19.0602 14.4293C19.0662 14.4324 19.071 14.4373 19.0739 14.4434L19.2348 14.7966C19.2375 14.8023 19.2419 14.8069 19.2475 14.8099C19.2531 14.8129 19.2594 14.814 19.2657 14.8132C19.272 14.8123 19.2778 14.8095 19.2823 14.8052C19.2868 14.8008 19.2898 14.7951 19.2908 14.789L19.6733 12.394C19.6744 12.3879 19.6774 12.3823 19.6821 12.3781C19.6867 12.3739 19.6926 12.3713 19.6988 12.3707C19.7051 12.3701 19.7114 12.3715 19.7168 12.3748C19.7221 12.378 19.7262 12.3829 19.7285 12.3887L19.8156 12.6252C19.8189 12.6336 19.825 12.6407 19.8328 12.6454C19.8406 12.6502 19.8498 12.6523 19.859 12.6516C19.8682 12.6508 19.8768 12.6472 19.8837 12.6412C19.8906 12.6352 19.8953 12.6272 19.8972 12.6183C19.933 12.4276 20.0006 12.2254 20.0309 12.043C20.3885 9.88759 20.5673 8.43715 21.0711 7.02029C21.0731 7.01404 21.0772 7.00868 21.0827 7.00503C21.0882 7.00138 21.0948 6.99963 21.1015 7.00006C21.1082 7.0005 21.1147 7.00308 21.1198 7.00743C21.125 7.01177 21.1286 7.01763 21.1302 7.0241C21.5437 8.82704 22.049 10.6895 22.8358 12.378C22.8394 12.3867 22.8461 12.3939 22.8545 12.3983C22.863 12.4027 22.8728 12.4041 22.8822 12.4022C22.8916 12.4003 22.9 12.3952 22.906 12.3879C22.912 12.3805 22.9152 12.3714 22.9151 12.362C22.9182 12.2012 22.935 12.0418 22.9656 11.8836C22.978 11.8205 22.9939 11.8195 23.013 11.8805L23.6544 13.9474C23.6565 13.9547 23.661 13.961 23.6671 13.9656C23.6732 13.9701 23.6806 13.9726 23.6883 13.9727C23.696 13.9728 23.7035 13.9704 23.7097 13.966C23.7159 13.9616 23.7205 13.9554 23.7228 13.9482L23.827 13.6163C23.8284 13.612 23.8312 13.6083 23.8349 13.6057C23.8387 13.6031 23.8432 13.6018 23.8478 13.602C23.8524 13.6021 23.8568 13.6038 23.8603 13.6067C23.8639 13.6095 23.8663 13.6134 23.8674 13.6178L24.5919 16.6461C24.5934 16.6527 24.5969 16.6586 24.6022 16.6629C24.6074 16.6672 24.6139 16.6696 24.6208 16.6699C24.6277 16.6702 24.6345 16.6682 24.6403 16.6643C24.646 16.6604 24.6503 16.6548 24.6526 16.6484L24.9379 15.7771C24.9398 15.7724 24.9432 15.7684 24.9477 15.7659C24.9522 15.7634 24.9574 15.7624 24.9625 15.7632C24.9676 15.764 24.9722 15.7665 24.9757 15.7703C24.9791 15.7741 24.9812 15.7789 24.9814 15.7839L24.9457 19.2593C24.9458 19.2657 24.9479 19.2719 24.9517 19.2771C24.9556 19.2823 24.9609 19.2862 24.967 19.2882C24.9731 19.2902 24.9797 19.2903 24.9858 19.2884C24.9918 19.2865 24.9971 19.2828 25.0009 19.2777L25.311 18.8588C25.3141 18.8541 25.3187 18.8506 25.3242 18.849C25.3296 18.8474 25.3354 18.8479 25.3406 18.8502C25.3457 18.8525 25.3498 18.8566 25.3521 18.8617C25.3544 18.8668 25.3547 18.8725 25.353 18.8779L24.7692 21.2805C24.7678 21.286 24.7683 21.2919 24.7703 21.2972C24.7724 21.3025 24.7761 21.3071 24.7809 21.3103C24.7857 21.3135 24.7914 21.3152 24.7972 21.3152C24.803 21.3152 24.8087 21.3135 24.8135 21.3103L25.0382 21.1577C25.0429 21.1547 25.0485 21.1534 25.0542 21.1538C25.0598 21.1543 25.0651 21.1566 25.0692 21.1603C25.0734 21.1641 25.0762 21.169 25.0772 21.1745C25.0782 21.1799 25.0773 21.1855 25.0747 21.1905C24.5202 22.1355 23.9845 23.0867 23.4678 24.044C23.4677 24.0444 23.4674 24.0448 23.4671 24.045C23.4667 24.0452 23.4663 24.0453 23.4659 24.0452C23.4655 24.0451 23.4651 24.0448 23.4649 24.0445C23.4647 24.0441 23.4646 24.0437 23.4647 24.0433C23.4844 21.2614 23.0252 18.6243 22.0871 16.1319C21.9902 15.875 21.914 15.6868 21.8586 15.5673C21.8575 15.5642 21.8553 15.5618 21.8524 15.5605C21.8496 15.5591 21.8463 15.559 21.8432 15.5601C21.8401 15.5611 21.8375 15.5634 21.8359 15.5662C21.8343 15.5691 21.8338 15.5725 21.8345 15.5757C22.3165 17.4068 22.6609 19.2619 22.8677 21.1409C22.9718 22.089 23.0063 22.9392 22.971 23.6915C22.8816 25.5845 22.0389 27.4172 21.7435 29.2865C20.8309 35.0661 23.3862 41.0411 28.6857 43.9389C28.7599 43.9791 28.7547 43.9994 28.6702 43.9999C22.5155 44.0205 17.7974 39.9851 16.7114 34.091C16.7102 34.0849 16.7074 34.0793 16.7033 34.0745C16.6992 34.0698 16.694 34.0661 16.6881 34.0639C16.6822 34.0617 16.6758 34.061 16.6695 34.0619C16.6633 34.0627 16.6574 34.0652 16.6523 34.0689L15.9254 34.6282C15.9225 34.63 15.919 34.6308 15.9155 34.6305C15.912 34.6302 15.9088 34.6287 15.9063 34.6263C15.9038 34.6239 15.9021 34.6208 15.9017 34.6174C15.9012 34.614 15.9019 34.6105 15.9037 34.6076L17.8448 31.9623C17.848 31.9583 17.8496 31.9534 17.8492 31.9485C17.8489 31.9435 17.8467 31.9389 17.843 31.9353C17.8393 31.9318 17.8344 31.9297 17.8292 31.9293C17.8239 31.9289 17.8187 31.9303 17.8145 31.9333L16.9539 32.5307C16.8757 32.5846 16.8516 32.5671 16.8816 32.4781L17.0216 32.0592C17.0234 32.0537 17.0235 32.0477 17.0219 32.0421C17.0203 32.0366 17.017 32.0315 17.0126 32.0277C17.0081 32.0239 17.0026 32.0215 16.9968 32.0207C16.9909 32.0199 16.9849 32.0208 16.9796 32.0233L16.4945 32.2621C16.4885 32.2651 16.4819 32.2665 16.4752 32.2663C16.4686 32.2661 16.4621 32.2642 16.4563 32.2609C16.4506 32.2575 16.4458 32.2528 16.4424 32.2472C16.439 32.2415 16.4372 32.2351 16.437 32.2286L16.423 31.7922C16.4228 31.7847 16.4206 31.7774 16.4166 31.7709C16.4127 31.7645 16.4071 31.7592 16.4005 31.7555C16.3938 31.7518 16.3863 31.7499 16.3787 31.7499C16.371 31.7499 16.3635 31.7518 16.3569 31.7555L16.1765 31.8547C16.1716 31.8574 16.166 31.8587 16.1604 31.8585C16.1548 31.8584 16.1493 31.8568 16.1446 31.8539C16.1399 31.851 16.1361 31.8469 16.1337 31.8421C16.1312 31.8372 16.1302 31.8319 16.1307 31.8265L16.1392 31.6891C16.1396 31.6821 16.1384 31.675 16.1355 31.6685C16.1327 31.662 16.1283 31.6562 16.1228 31.6516C16.1173 31.647 16.1108 31.6438 16.1038 31.6421C16.0968 31.6404 16.0895 31.6403 16.0825 31.6418L14.5191 31.9882C14.5133 31.9895 14.5073 31.9889 14.5018 31.9867C14.4964 31.9844 14.4917 31.9806 14.4886 31.9757C14.4854 31.9707 14.4839 31.965 14.4842 31.9592C14.4846 31.9534 14.4867 31.9478 14.4903 31.9432L14.5914 31.8181C14.6158 31.7871 14.608 31.7733 14.5681 31.7769C12.7427 31.9287 10.8521 31.9936 9.02752 31.796C9.02075 31.7953 9.01439 31.7925 9.00946 31.7879C9.00453 31.7833 9.00131 31.7773 9.00032 31.7707C8.99933 31.7641 9.00064 31.7573 9.00402 31.7515C9.0074 31.7457 9.01267 31.7412 9.01897 31.7387C10.2701 31.2158 11.4802 30.6144 12.6495 29.9343C12.6544 29.9314 12.6583 29.9273 12.661 29.9223C12.6636 29.9173 12.6647 29.9117 12.6642 29.9061C12.6637 29.9006 12.6616 29.8952 12.6582 29.8908C12.6548 29.8863 12.6501 29.8829 12.6448 29.8809L12.6051 29.8664C12.5367 29.8425 12.5354 29.8158 12.6013 29.7863C13.106 29.5574 13.6051 29.3168 14.0985 29.0645C14.1301 29.0487 14.1312 29.0314 14.1016 29.0126L13.9967 28.9462C13.9661 28.9269 13.9682 28.9121 14.0029 28.902L15.801 28.3969C15.807 28.3952 15.8123 28.3917 15.8161 28.3869C15.82 28.3822 15.8223 28.3764 15.8228 28.3703C15.8232 28.3643 15.8217 28.3582 15.8185 28.353C15.8153 28.3478 15.8106 28.3437 15.8049 28.3412C15.7391 28.3132 15.6704 28.2961 15.5989 28.29C15.5766 28.288 15.5722 28.2778 15.5857 28.2595C15.6145 28.2206 17.1016 28.1222 17.2727 28.1092C17.2786 28.1088 17.2842 28.1067 17.2889 28.1032C17.2935 28.0997 17.297 28.0948 17.2988 28.0893C17.3007 28.0838 17.3008 28.0779 17.2992 28.0724C17.2976 28.0668 17.2943 28.0618 17.2898 28.0581L17.2089 27.9917C17.1851 27.9724 17.1887 27.964 17.2198 27.9665L19.2185 28.1489C19.2233 28.1491 19.2279 28.1476 19.2316 28.1446C19.2353 28.1417 19.2378 28.1375 19.2385 28.1329C19.2393 28.1283 19.2383 28.1236 19.2358 28.1196C19.2332 28.1157 19.2293 28.1128 19.2247 28.1115L17.7547 27.7552C17.7506 27.7544 17.747 27.7522 17.7444 27.749C17.7419 27.7458 17.7406 27.7418 17.7408 27.7376C17.741 27.7335 17.7426 27.7295 17.7454 27.7263C17.7482 27.7231 17.7521 27.7209 17.7562 27.7201C17.8163 27.7094 17.8757 27.7125 17.9342 27.7293C17.955 27.7354 17.9697 27.7287 17.9786 27.7094C17.9905 27.683 17.9814 27.6636 17.9513 27.6514C17.2076 27.3467 16.6634 27.1212 16.3188 26.9747C16.2582 26.9487 16.261 26.9355 16.3274 26.935L16.5404 26.9327C16.5464 26.9326 16.5523 26.9306 16.5571 26.9271C16.5619 26.9235 16.5655 26.9186 16.5673 26.9129C16.5691 26.9073 16.5691 26.9012 16.5672 26.8956C16.5652 26.8899 16.5616 26.885 16.5567 26.8816L14.3916 25.4044C14.3258 25.3597 14.3328 25.3406 14.4126 25.3472L14.6256 25.3648C14.6337 25.3653 14.6417 25.3635 14.6487 25.3595C14.6557 25.3555 14.6613 25.3496 14.6649 25.3424C14.6684 25.3353 14.6696 25.3273 14.6685 25.3194C14.6673 25.3116 14.6637 25.3042 14.6583 25.2984L13.0008 23.6007C12.9954 23.5951 12.992 23.5879 12.991 23.5803C12.99 23.5726 12.9916 23.5648 12.9953 23.558C12.9991 23.5512 13.005 23.5458 13.0122 23.5425C13.0193 23.5392 13.0273 23.5382 13.035 23.5397L13.1571 23.5618C13.1658 23.5634 13.1748 23.5624 13.1829 23.5588C13.191 23.5552 13.1978 23.5493 13.2024 23.5418C13.207 23.5343 13.2091 23.5257 13.2085 23.517C13.2079 23.5083 13.2046 23.5 13.1991 23.4932C12.3538 22.4484 11.517 21.396 10.6888 20.3359C10.24 19.7616 9.86505 19.2085 9.56393 18.6764C9.53232 18.6205 9.5432 18.6111 9.59658 18.6482C10.8746 19.5432 12.2087 20.471 13.6671 21.0554C13.6742 21.0583 13.6821 21.0589 13.6896 21.0569C13.697 21.055 13.7036 21.0507 13.7083 21.0447C13.713 21.0386 13.7156 21.0313 13.7156 21.0237C13.7156 21.0161 13.713 21.0088 13.7083 21.0028L13.6632 20.944C13.6305 20.9008 13.6399 20.8886 13.6912 20.9074L15.3673 21.5147C15.4186 21.5336 15.4341 21.5178 15.4139 21.4674L15.3572 21.3225C15.355 21.3171 15.3546 21.3112 15.356 21.3056C15.3574 21.3 15.3605 21.2949 15.3649 21.2911C15.3693 21.2873 15.3748 21.2849 15.3806 21.2842C15.3865 21.2835 15.3924 21.2846 15.3976 21.2874L16.8708 22.1007C16.8775 22.1045 16.8852 22.1062 16.8929 22.1056C16.9006 22.105 16.9079 22.1021 16.9139 22.0973C16.9199 22.0925 16.9243 22.086 16.9264 22.0787C16.9286 22.0714 16.9284 22.0637 16.926 22.0565L16.8451 21.8138C16.8435 21.8092 16.8434 21.8042 16.8449 21.7996C16.8464 21.795 16.8493 21.7909 16.8533 21.788C16.8573 21.7851 16.8621 21.7835 16.8671 21.7835C16.872 21.7835 16.8769 21.785 16.8809 21.7879L18.4326 22.8171C18.4373 22.8201 18.4429 22.8215 18.4486 22.821C18.4542 22.8205 18.4595 22.8182 18.4636 22.8145C18.4678 22.8107 18.4706 22.8058 18.4716 22.8003C18.4725 22.7949 18.4717 22.7893 18.4691 22.7843Z" fill="url(#paint0_linear_229_19017)"/>
<path d="M26.4326 19.5367L25.5976 20.0563C25.5619 20.0786 25.5489 20.0688 25.5588 20.0269L26.4108 16.3484C26.4149 16.3294 26.4266 16.318 26.4458 16.3143C30.0327 15.6453 33.9742 16.2539 36.7783 18.7327C38.403 20.1691 39.346 22.0735 39.926 24.1559C39.9332 24.1813 39.9244 24.1972 39.8995 24.2035L34.5557 25.5089C34.5225 25.5168 34.5023 25.5038 34.495 25.47C33.9913 23.1945 32.4116 21.4769 30.1789 21.001C28.4997 20.6426 26.6852 20.9469 25.2252 21.8844C25.1916 21.9061 25.1846 21.8993 25.2043 21.8638L26.4629 19.5661C26.4898 19.5174 26.4797 19.5076 26.4326 19.5367Z" fill="#4D4D4D"/>
<path d="M22.0804 31.7319C22.2724 34.6579 23.0677 37.4871 25.9487 38.8505C27.3551 39.5151 29.1905 39.596 30.6598 39.0916C33.0317 38.276 34.1721 36.0397 34.6906 33.7912C34.6916 33.7867 34.6935 33.7825 34.6963 33.7787C34.699 33.775 34.7026 33.7719 34.7067 33.7696C34.7108 33.7673 34.7153 33.7659 34.7201 33.7654C34.7248 33.7649 34.7296 33.7654 34.7342 33.7668L39.9793 35.4057C39.997 35.4113 40.0034 35.4227 39.9988 35.44C38.7098 40.3231 35.4051 43.52 30.1662 43.9549C30.048 43.9646 29.935 43.947 29.8272 43.9023C25.1892 41.9818 22.3929 37.1727 22.0664 32.3942C22.0514 32.1785 22.0521 31.9577 22.0687 31.7319C22.0692 31.7307 22.07 31.7297 22.071 31.729C22.072 31.7283 22.0733 31.7279 22.0745 31.7279C22.0758 31.7279 22.0771 31.7283 22.0781 31.729C22.0791 31.7297 22.0799 31.7307 22.0804 31.7319Z" fill="#4D4D4D"/>
<defs>
<linearGradient id="paint0_linear_229_19017" x1="18.8689" y1="7" x2="18.8689" y2="44" gradientUnits="userSpaceOnUse">
<stop stop-color="#00964D"/>
<stop offset="0.595304" stop-color="#18AB5E"/>
<stop offset="1" stop-color="#5EBE86"/>
</linearGradient>
</defs>
</svg>
