<?xml version="1.0" encoding="UTF-8"?>
<!-- generated by Finnhub -->
<svg viewBox="0 0 55.5 55.5" xmlns="http://www.w3.org/2000/svg">
<path d="M 0,0 H 55.5 V 55.5 H 0 Z" fill="rgb(239, 242, 248)"/>
<path d="M 13.99,14.965 C 14,14.44 14.44,14 14.98,14 H 41.02 C 41.56,14 42,14.44 42,14.98 V 26.57 A 0.7,0.7 0 0,1 41.3,27.27 H 41.03 A 0.73,0.73 0 0,1 40.31,26.61 A 12.02,12.02 0 0,0 28.28,16 C 21.6,16 16,21.31 16,28 C 16,34.69 21.6,40 28.28,40 C 34.5,40 39.62,35.42 40.31,29.39 A 0.73,0.73 0 0,1 41.03,28.73 H 41.3 C 41.69,28.73 42,29.05 42,29.43 V 41.02 C 42,41.56 41.56,42 41.02,42 H 14.98 A 0.98,0.98 0 0,1 14,41.02 V 14.98 Z M 28.28,39.29 A 11.29,11.29 0 1,0 28.28,16.71 A 11.29,11.29 0 0,0 28.28,39.29 Z M 38.35,28 A 10.06,10.06 0 1,1 18.22,28 A 10.06,10.06 0 0,1 38.35,28 Z M 23,36 V 20 H 32.33 L 34,21.5 V 26.91 L 32.8,28 L 34,29.08 V 34.48 L 32.27,36 H 23 Z M 30,23 H 27 V 25.5 H 30 V 23 Z M 30,30 H 27 V 32.5 H 30 V 30 Z" fill="rgb(253, 1, 2)"/>
</svg>
