<?xml version="1.0" encoding="UTF-8"?>
<!-- generated by Finnhub -->
<svg viewBox="0 0 55.5 55.5" xmlns="http://www.w3.org/2000/svg">
<path d="M 0,0 H 55.5 V 55.5 H 0 Z" fill="rgb(239, 242, 248)"/>
<path d="M 40.99,22.695 V 24.47 L 49.1,24.67 L 50,22.5 L 41,22.71 Z M 41,28.8 L 47.26,28.95 L 48.18,26.76 L 41,26.94 V 28.79 Z M 7.5,23.62 L 14,23.86 V 23.38 L 7.5,23.62 Z M 5.54,27.9 L 14,28.17 V 27.61 L 5.54,27.91 Z M 4,32.34 L 14,32.66 V 32 L 4,32.34 Z" fill="rgb(216, 0, 37)"/>
<path d="M 13.99,26.985 C 14.1,25.92 14.36,24.87 14.76,23.87 H 14 V 27 Z M 17.77,19.5 C 19.77,17.7 22.22,16.5 24.86,16 H 14 V 23.38 H 14.97 A 12,12 0 0,1 17.77,19.5 Z M 14,28.96 V 32 H 14.69 C 14.32,31.03 14.07,30 14,28.96 Z M 18.1,36.64 A 11.82,11.82 0 0,1 14.95,32.68 H 14 V 40 H 26.53 A 15.35,15.35 0 0,1 18.11,36.64 Z M 28.26,21.6 A 7.2,7.2 0 0,0 23.59,23.14 L 32.74,22.92 A 8.02,8.02 0 0,0 28.26,21.59 Z M 41,16 H 30.87 C 31.99,16.22 32.95,16.54 34,16.96 V 22.89 L 41,22.71 V 16 Z M 41,24.47 L 22.74,24.04 A 6.2,6.2 0 0,0 21.41,27.44 L 41,26.94 V 24.47 Z M 34,33.11 V 38.95 C 32.44,39.45 30.97,39.81 29.35,40 H 41 V 33.28 L 34,33.11 Z M 41,28.84 L 21.4,28.34 C 21.45,29.61 21.9,30.84 22.69,31.84 L 41,31.34 V 28.84 Z M 28.35,34.22 A 8.25,8.25 0 0,0 32.5,33.05 L 23.82,32.85 A 7.66,7.66 0 0,0 28.35,34.22 Z"/>
<path d="M 40.99,33.265 L 45.36,33.38 L 46.28,31.2 L 41,31.33 V 33.28 Z" fill="rgb(216, 0, 37)"/>
</svg>
