<?xml version="1.0" encoding="UTF-8"?>
<!-- generated by Finnhub -->
<svg viewBox="0 0 55.5 55.5" xmlns="http://www.w3.org/2000/svg">
<path d="M 56,0 H 0 V 56 H 56 V 0 Z" fill="rgb(239, 242, 248)"/>
<path d="M 31.819999999999997,13.764999999999999 C 31.96,12.94 31.51,12.2 30.67,12.06 C 29.84,11.93 29,12.5 29,13 L 28.98,23 L 31.83,13.78 Z M 36.02,15.64 A 1.53,1.53 0 1,0 33.29,14.25 L 33.31,14.26 H 33.29 L 30.27,23.55 L 36.02,15.65 Z M 39.44,18.72 A 1.53,1.53 0 1,0 37.27,16.55 L 37.29,16.56 H 37.27 L 31.54,24.46 L 39.44,18.72 Z M 41.75,22.7 A 1.53,1.53 0 0,0 40.35,19.98 L 40.36,19.99 L 32.46,25.73 L 41.75,22.71 Z M 42.67,27 C 43.49,26.88 44.06,26.3 43.92,25.46 A 1.51,1.51 0 0,0 42.19,24.2 V 24.22 V 24.2 L 33,27 H 42.68 Z M 42.23,31.83 C 43.06,31.96 43.85,31.39 43.98,30.56 C 44.12,29.72 43.57,29.13 42.73,29 H 33 L 42.24,31.83 Z M 40.36,36.02 A 1.53,1.53 0 1,0 41.76,33.3 L 41.75,33.31 V 33.29 L 32.45,30.27 L 40.36,36.02 Z M 37.29,39.44 A 1.53,1.53 0 1,0 39.45,37.27 L 39.44,37.29 V 37.27 L 31.54,31.54 L 37.29,39.44 Z M 33.3,41.75 A 1.53,1.53 0 0,0 36.03,40.35 L 36.01,40.36 H 36.02 L 30.27,32.46 L 33.3,41.75 Z M 28.98,42.71 C 29.12,43.54 29.69,44.11 30.53,43.98 C 31.37,43.85 31.93,43.07 31.8,42.23 H 31.79 H 31.8 L 29,33.01 V 42.71 Z M 24.18,42.23 C 24.04,43.06 24.53,43.81 25.37,43.95 C 26.24,44.03 26.87,43.84 27,43 C 27,42.34 27,42.02 27,43 L 27.02,33 L 24.18,42.23 Z M 19.98,40.36 A 1.53,1.53 0 0,0 22.71,41.76 L 22.7,41.74 H 22.71 L 25.73,32.46 L 19.98,40.36 Z M 16.56,37.29 A 1.53,1.53 0 1,0 18.73,39.45 L 18.72,39.44 H 18.73 L 24.47,31.54 L 16.57,37.29 Z M 14.26,33.3 A 1.53,1.53 0 1,0 15.65,36.02 L 15.64,36.01 V 36.02 L 23.55,30.28 L 14.25,33.3 Z M 13.3,29 C 12.46,29.13 11.89,29.7 12.02,30.53 C 12.15,31.36 12.94,31.93 13.77,31.8 V 31.79 V 31.8 L 23.02,29.01 H 13.3 Z M 13.77,24.17 A 1.53,1.53 0 0,0 12.02,25.44 C 11.89,26.28 12.5,27 13,27 H 23 L 13.77,24.17 Z M 15.64,19.98 A 1.53,1.53 0 1,0 14.25,22.71 V 22.69 V 22.71 L 23.55,25.73 L 15.65,19.98 Z M 18.71,16.56 A 1.53,1.53 0 0,0 16.55,18.73 L 16.56,18.71 V 18.73 L 24.46,24.46 L 18.71,16.56 Z M 22.7,14.25 A 1.53,1.53 0 1,0 19.98,15.65 L 19.99,15.64 H 19.98 L 25.73,23.54 L 22.71,14.25 Z M 27,13.3 A 1.4,1.4 0 0,0 25.34,12.09 C 24.5,12.22 24.07,12.93 24.2,13.77 H 24.22 H 24.2 L 27,23 V 13.3 Z" fill="rgb(217, 30, 59)"/>
</svg>
