<!-- by Finnhub --><svg width="56" height="56" viewBox="0 0 56 56" xmlns="http://www.w3.org/2000/svg"><path fill="#F0F3FA" d="M0 0h56v56H0z"/><path fill-rule="evenodd" d="M28.75 10.2a1.52 1.52 0 0 0-1.5 0l-14.49 8.25a1.5 1.5 0 0 0-.76 1.3v16.5c0 .53.29 1.03.76 1.3l14.49 8.25c.46.27 1.04.27 1.5 0l14.49-8.25c.47-.27.76-.77.76-1.3v-16.5a1.5 1.5 0 0 0-.76-1.3L28.75 10.2Zm.03 3.01a1.53 1.53 0 0 0-1.56 0l-11.43 6.7c-.49.3-.79.82-.79 1.4v13.38c0 .58.3 1.1.79 1.4l11.43 6.7c.48.28 1.08.28 1.56 0l11.43-6.7c.49-.3.79-.82.79-1.4V21.31c0-.58-.3-1.1-.79-1.4l-11.43-6.7Z" fill="#103F53"/><path fill-rule="evenodd" d="M28.68 14.19a1.34 1.34 0 0 0-1.36 0l-10.63 6.3c-.43.25-.69.71-.69 1.22V34.3c0 .5.26.97.69 1.23l10.63 6.3c.42.24.94.24 1.36 0l10.63-6.3c.43-.26.69-.72.69-1.23V21.7c0-.5-.26-.97-.69-1.23l-10.63-6.3Zm-.08 3.97a1.23 1.23 0 0 0-1.2 0l-7.79 4.4A1.2 1.2 0 0 0 19 23.6v8.8c0 .43.23.82.61 1.04l7.79 4.4c.37.21.83.21 1.2 0l7.79-4.4c.38-.22.61-.61.61-1.04v-8.8c0-.43-.23-.82-.61-1.04l-7.79-4.4Z" fill="#103F53"/><path d="M27.3 19.19a1.4 1.4 0 0 1 1.4 0l6.6 3.8c.43.25.7.71.7 1.22a.8.8 0 0 1-.8.79h-1.75c-.37 0-.69-.24-1-.44l-3.9-2.4a1.05 1.05 0 0 0-1.1 0l-3.9 2.4c-.34.22-.55.61-.55 1.03v4.82c0 .42.21.81.56 1.03l3.88 2.4c.35.21.77.21 1.12 0l3.88-2.4c.32-.2.64-.44 1.01-.44h1.76c.44 0 .79.35.79.8 0 .5-.27.96-.7 1.21l-6.6 3.8a1.4 1.4 0 0 1-1.4 0l-6.6-3.8a1.4 1.4 0 0 1-.7-1.22v-7.58c0-.5.27-.97.7-1.22l6.6-3.8Z" fill="#103F53"/></svg>