<?xml version="1.0" encoding="UTF-8"?>
<!-- generated by Finnhub -->
<svg viewBox="0 0 55.5 55.5" xmlns="http://www.w3.org/2000/svg">
<path d="M 0,0 H 55.5 V 55.5 H 0 Z" fill="rgb(239, 242, 248)"/>
<path d="M 15.99,19.985 H 13 V 21 H 15 V 26 H 16 V 21 H 18 V 20 H 16 Z M 28,20 H 23 V 21 H 25 V 26 H 26 V 21 H 28 V 20 Z M 21,20 H 20 V 26 H 21 V 20 Z M 37,20 H 38 V 20.07 V 20 L 41,24.16 V 20 H 42 V 26 H 41 V 25.98 L 38,21.88 V 26 H 37 V 20 Z M 31.38,20 L 29,26 H 30.17 L 30.55,25 H 32.01 L 32.5,24 H 30.93 L 31.93,21.41 L 33.7,26 H 34.82 L 32.48,20 H 31.38 Z" fill="rgb(15, 62, 129)"/>
<path d="M 8.99,28.985 H 10 V 29.03 L 11.99,32.03 L 14,29.07 V 29 H 15 V 35 H 14 V 31.2 L 11.99,33.86 L 10,31.2 V 35 H 9 V 29 Z M 17,34 V 29 H 21.5 V 30 H 18 V 31.5 H 21 V 32.5 H 18 V 34 H 21.5 V 35 H 17 V 34 Z M 29,29 H 30 V 35 H 29 V 29 Z M 46,29 H 45 V 35 H 49 V 34 H 46 V 29 Z M 39.36,29 H 40.68 L 43.5,35 H 42.15 L 40.02,30.41 L 38.82,33 H 40.61 L 40.18,34 H 38.37 L 38.38,33.97 L 37.9,35 H 36.5 L 39.36,29 Z M 23,35 V 29 H 25.17 C 26.73,29 28,30.34 28,32 C 28,33.66 26.73,35 25.17,35 H 23 Z M 24,34 V 30 H 24.97 C 26.09,30 27,30.9 27,32 S 26.1,34 24.97,34 H 24 Z M 34,35 A 3,3 0 0,0 36.42,33.77 L 35.66,33.11 A 2,2 0 1,1 35.66,30.88 L 36.39,30.18 A 3,3 0 1,0 34,35 Z" fill="rgb(121, 135, 137)" fill-rule="evenodd"/>
</svg>
