<?xml version="1.0" encoding="UTF-8"?>
<!-- generated by Finnhub -->
<svg viewBox="0 0 55.5 55.5" xmlns="http://www.w3.org/2000/svg">
<rect width="56" height="56" fill="rgb(239, 242, 248)"/>
<path d="M 14.161,15.334 L 23.6101,9.9996 C 23.8784,10.7948 25.0881,12.3851 27.7808,12.3851 S 31.8296,10.7948 32.171,9.9996 L 41.4637,15.349 C 40.5369,16.3129 39.1223,18.79 40.8783,20.9875 C 42.6344,23.1851 45.0247,23.3972 46.0003,23.2285 V 33.7105 C 44.6344,33.5901 41.6979,33.8696 40.8783,35.9515 C 40.0588,38.0334 40.9271,39.9997 41.4637,40.7226 L 32.171,45.9997 C 32.0979,44.9876 31.1174,42.9636 27.7808,42.9636 S 23.6101,44.9876 23.6101,45.9997 L 14.171,40.7226 C 15.0003,39.8792 16.454,37.7443 15.6344,35.9515 C 14.6101,33.7105 12.4149,33.7105 10.0003,33.7105 V 23.2285 C 10.9027,23.0839 13.0003,22.4333 14.171,20.9875 C 15.6344,19.1803 14.6832,15.7827 14.171,15.349 Z M 17.2221,18.1336 C 16.7656,17.349 17.0365,16.3459 17.8272,15.8929 L 22.4937,13.2197 C 23.2844,12.7667 24.2955,13.0355 24.752,13.82 L 24.7785,13.8657 C 25.235,14.6502 24.9641,15.6534 24.1734,16.1063 L 19.5069,18.7796 C 18.7162,19.2325 17.7051,18.9637 17.2486,18.1792 L 17.2221,18.1336 Z M 38.7781,18.1336 C 39.2346,17.349 38.9637,16.3459 38.173,15.8929 L 33.5065,13.2197 C 32.7158,12.7667 31.7047,13.0355 31.2482,13.82 L 31.2217,13.8657 C 30.7652,14.6502 31.0361,15.6534 31.8268,16.1063 L 36.4933,18.7796 C 37.284,19.2325 38.2951,18.9637 38.7516,18.1792 L 38.7781,18.1336 Z M 17.8271,40.1066 C 17.0364,39.6537 16.7655,38.6505 17.222,37.866 L 17.2485,37.8203 C 17.705,37.0358 18.7161,36.767 19.5068,37.22 L 24.1733,39.8932 C 24.964,40.3462 25.2349,41.3493 24.7784,42.1339 L 24.7519,42.1795 C 24.2954,42.964 23.2843,43.2328 22.4936,42.7799 L 17.8271,40.1066 Z M 38.7781,37.866 C 39.2346,38.6505 38.9637,39.6537 38.173,40.1066 L 33.5065,42.7799 C 32.7158,43.2328 31.7047,42.964 31.2482,42.1795 L 31.2217,42.1339 C 30.7652,41.3493 31.0361,40.3462 31.8268,39.8932 L 36.4933,37.22 C 37.284,36.767 38.2951,37.0358 38.7516,37.8203 L 38.7781,37.866 Z" clip-rule="evenodd" fill="rgb(38, 55, 85)" fill-rule="evenodd"/>
<circle cx="28" cy="28" r="8" fill="rgb(185, 203, 87)"/>
</svg>
