<?xml version="1.0" encoding="UTF-8"?>
<!-- generated by Finnhub -->
<svg viewBox="0 0 55.5 55.5" xmlns="http://www.w3.org/2000/svg">
<path d="M 0,0 H 55.5 V 55.5 H 0 Z" fill="rgb(212, 42, 28)"/>
<path d="M 41.53,17.425 C 40.74,17.44 40,18.09 40,18.9 C 40,19.67 40.6,20.23 41.35,20.28 C 41.24,20.68 41.11,21 41.11,21 C 41.79,21 43,20.17 43,18.96 A 1.5,1.5 0 0,0 41.54,17.44 Z M 46,31.41 C 42.7,27.09 33.78,28.64 29.18,29.51 C 24.3,30.41 12,34.27 12,25.65 A 7.56,7.56 0 0,1 14.48,19.76 A 7.9,7.9 0 0,1 19.05,17.84 C 19.57,17.84 20.15,18.01 19.9,18.26 C 19.62,18.53 19.44,18.56 19.44,19.36 C 19.44,19.99 19.99,20.76 21.05,20.76 C 21.81,20.76 22.92,20.04 22.92,18.92 C 22.92,17.96 22.52,17.5 22.19,17.17 C 21.33,16.3 19.69,15.99 18.29,15.99 C 14.2,15.99 10.33,18.27 8.73,21.86 A 9.72,9.72 0 0,0 8,26 C 8.1,30.4 11.15,33.24 15.61,33.24 C 20.43,33.24 23.75,31.26 29.73,31.26 C 31.77,31.26 36.64,31.63 39,34 C 39.38,33.62 43.57,31.4 46,31.4 Z" fill="rgb(254, 254, 253)"/>
<path d="M 43.72,21.215 C 43.73,20.75 43.78,19.91 43.91,19.4 C 44.09,18.63 44.51,18 45.37,18 C 46.08,18 46.64,18.78 46.37,19.08 A 3.9,3.9 0 0,0 45.6,21.61 C 45.6,22.54 46.65,23.54 46.65,25.61 C 46.65,27.17 45.37,28 44,28 C 42.5,28 41.01,27.34 41.24,25.8 C 41.24,25.8 38.7,28.02 36.82,28 C 36.1,28 35.66,27.42 35.66,26.78 C 35.66,25.47 36.96,24.34 36.96,23.48 C 36.96,22.79 36.71,22.76 36.51,22.76 C 35.28,22.76 33.57,28 33.57,28 H 31.16 S 31.68,26.66 31.53,26.73 C 31.38,26.79 30.43,28 28.62,28 C 27.85,28 27.67,27.44 27.67,26.96 C 27.67,25.77 29.67,22.85 28.39,22.85 C 26.91,22.85 25.46,28 25.46,28 H 22.85 L 24.53,23.7 S 22.65,24.11 22.62,24.27 C 22.16,26.05 19.97,28 18.13,28 C 16.76,28 16.15,27.25 16.03,26.28 A 3.63,3.63 0 0,1 16,25.78 C 16.03,23.44 18.4,21 20.75,21 C 21.87,21 22.83,21.79 22.85,22.95 C 22.85,22.95 23.05,23.25 23.94,22.85 C 25,22.37 25.76,21 25.76,21 H 28.42 L 28.35,21.53 S 29,21 30.17,21 C 30.91,21 31.48,21.49 31.48,22.25 C 31.48,23.79 29.28,26.23 30.31,26.23 C 30.67,26.23 31.01,26.03 31.45,25.6 C 32.22,24.83 33.82,21 33.82,21 H 36.44 L 36.32,21.53 S 37.1,20.96 38.06,21 C 38.91,21.04 39.52,21.63 39.52,22.64 C 39.52,23.84 37.47,26.29 38.5,26.29 C 39.04,26.29 39.92,25.88 40.65,25.14 C 41.26,24.53 43.73,21.68 43.73,21.24 Z M 43.77,22.6 S 42.27,24.63 41.99,24.9 C 41.76,25.13 42.46,24.6 42.99,25.13 C 43.53,25.68 43.2,26.36 43.04,26.52 C 42.78,26.78 42.86,26.91 43.04,26.91 C 43.45,26.91 43.87,26.31 43.87,25.56 C 43.87,23.74 43.77,22.6 43.77,22.6 Z M 20.68,22.48 S 19.53,22.76 18.81,23.69 C 17.31,25.61 18.8,26.9 20.41,25.55 C 20.93,25.11 21.34,24.42 21.34,24.15 C 21.34,23.94 20.94,24.25 20.54,23.85 C 20.07,23.37 20.68,22.48 20.68,22.48 Z M 9.7,38.33 H 9.96 C 10.06,38.33 10.15,38.33 10.2,38.31 A 0.28,0.28 0 0,0 10.44,38.11 C 10.46,38.06 10.49,37.99 10.51,37.89 L 11.1,35.12 L 11.13,34.86 C 11.13,34.79 11.1,34.74 11.04,34.72 A 0.7,0.7 0 0,0 10.74,34.67 H 10.46 L 10.6,34 H 13.29 L 13.15,34.67 H 13 C 12.9,34.67 12.81,34.67 12.75,34.69 A 0.32,0.32 0 0,0 12.6,34.75 A 0.37,0.37 0 0,0 12.51,34.89 L 12.45,35.12 L 12.25,36 H 13.84 L 14.04,35.12 L 14.07,34.96 A 0.44,0.44 0 0,0 14.08,34.86 C 14.08,34.79 14.05,34.74 13.99,34.72 A 0.7,0.7 0 0,0 13.69,34.67 H 13.54 L 13.68,34 H 16.36 L 16.22,34.67 H 15.95 C 15.85,34.67 15.77,34.67 15.71,34.69 A 0.32,0.32 0 0,0 15.56,34.75 A 0.37,0.37 0 0,0 15.47,34.89 L 15.41,35.12 L 14.83,37.89 C 14.8,38 14.79,38.09 14.79,38.14 C 14.79,38.21 14.82,38.26 14.87,38.29 C 14.93,38.32 15.03,38.33 15.19,38.33 H 15.46 L 15.32,39 H 12.63 L 12.77,38.33 H 13.15 A 0.28,0.28 0 0,0 13.39,38.13 L 13.46,37.89 L 13.7,36.68 H 12.1 L 11.87,37.88 A 2.1,2.1 0 0,1 11.84,38.04 L 11.83,38.14 C 11.83,38.21 11.86,38.26 11.91,38.29 C 11.97,38.32 12.07,38.33 12.23,38.33 H 12.37 L 12.23,39 H 9.56 L 9.7,38.33 Z M 18.42,35.25 C 18.94,35.25 19.34,35.38 19.63,35.63 C 19.92,35.88 20.06,36.23 20.06,36.68 C 20.06,37.01 20.01,37.2 19.89,37.5 A 2.26,2.26 0 0,1 18.59,38.82 C 18.29,38.94 17.96,39 17.61,39 A 1.8,1.8 0 0,1 16.39,38.62 A 1.3,1.3 0 0,1 15.96,37.57 A 2.44,2.44 0 0,1 16.64,35.95 C 17.09,35.5 17.7,35.25 18.42,35.25 Z M 18.27,35.91 C 17.88,35.91 17.64,36.11 17.49,36.58 C 17.36,36.93 17.25,37.3 17.23,37.68 C 17.21,38.03 17.34,38.34 17.75,38.34 C 18.14,38.34 18.39,38.14 18.53,37.67 V 37.65 C 18.66,37.27 18.79,36.86 18.79,36.45 C 18.79,36.09 18.62,35.91 18.27,35.91 Z M 20.27,38.38 H 20.09 L 19.96,39 H 22.06 L 22.18,38.38 A 0.7,0.7 0 0,1 21.95,38.34 C 21.91,38.32 21.89,38.27 21.89,38.21 C 21.89,38.18 21.89,38.11 21.92,38.02 L 22.16,36.82 C 22.28,36.26 22.51,35.98 22.86,35.98 C 22.96,35.98 23.06,36.01 23.11,36.07 C 23.17,36.13 23.21,36.22 23.21,36.32 C 23.21,36.39 23.19,36.49 23.16,36.62 L 22.88,38.02 C 22.86,38.16 22.82,38.25 22.76,38.31 A 0.55,0.55 0 0,1 22.46,38.38 L 22.33,39 H 24.23 L 24.36,38.38 A 0.54,0.54 0 0,1 24.13,38.34 C 24.09,38.31 24.07,38.27 24.07,38.21 A 2.75,2.75 0 0,1 24.11,37.97 L 24.35,36.79 C 24.4,36.52 24.49,36.32 24.6,36.19 A 0.54,0.54 0 0,1 25.03,35.98 C 25.14,35.98 25.23,36.01 25.29,36.08 C 25.35,36.14 25.39,36.22 25.39,36.32 C 25.39,36.39 25.37,36.49 25.34,36.62 L 25.06,38.02 A 0.6,0.6 0 0,1 24.93,38.31 C 24.88,38.35 24.78,38.38 24.63,38.38 L 24.51,39 H 26.61 L 26.74,38.38 H 26.58 A 0.63,0.63 0 0,1 26.31,38.34 C 26.26,38.32 26.24,38.27 26.24,38.21 V 38.16 L 26.27,38.02 L 26.56,36.62 A 3.08,3.08 0 0,0 26.63,36.01 C 26.63,35.78 26.55,35.61 26.39,35.48 A 0.96,0.96 0 0,0 25.75,35.28 C 25.51,35.28 25.29,35.32 25.09,35.41 C 24.89,35.51 24.69,35.65 24.47,35.87 A 0.7,0.7 0 0,0 24.17,35.42 C 24.04,35.32 23.84,35.28 23.58,35.28 C 23.45,35.28 23.33,35.29 23.21,35.31 A 1.76,1.76 0 0,0 22.6,35.61 C 22.5,35.68 22.4,35.78 22.3,35.89 L 22.4,35.39 H 20.7 L 20.57,36 H 20.76 C 20.86,36 20.94,36.01 20.98,36.04 C 21.03,36.06 21.05,36.11 21.05,36.18 C 21.05,36.23 21.05,36.3 21.03,36.36 L 20.69,38.02 C 20.66,38.17 20.62,38.27 20.56,38.32 C 20.51,38.36 20.42,38.38 20.28,38.38 Z M 30.79,37.64 A 2.1,2.1 0 0,1 28.76,39 C 28.28,39 27.92,38.87 27.66,38.62 A 1.14,1.14 0 0,1 27.26,37.69 A 2.57,2.57 0 0,1 27.86,36.03 C 28.06,35.78 28.31,35.6 28.6,35.47 C 28.89,35.34 29.2,35.27 29.54,35.27 C 30.01,35.27 30.38,35.4 30.64,35.65 C 30.9,35.89 31.04,36.23 31.04,36.67 C 31.04,36.84 31.02,37.01 30.94,37.35 H 28.56 V 37.41 C 28.5,37.66 28.46,37.92 28.64,38.13 C 28.74,38.23 28.88,38.27 29.06,38.27 C 29.49,38.27 29.77,38.02 29.92,37.64 H 30.79 Z M 29.83,36.74 A 6.74,6.74 0 0,0 29.87,36.38 A 0.45,0.45 0 0,0 29.75,36.05 A 0.38,0.38 0 0,0 29.45,35.93 A 0.71,0.71 0 0,0 29,36.11 A 0.63,0.63 0 0,0 28.84,36.32 L 28.7,36.73 H 29.83 Z M 33.21,38.14 L 33.25,37.88 L 33.48,36.89 H 34.41 C 34.63,36.89 34.83,36.89 35,36.87 C 35.17,36.85 35.32,36.82 35.45,36.78 A 1.76,1.76 0 0,0 36.13,36.4 A 1.82,1.82 0 0,0 36.68,35.1 A 1,1 0 0,0 36.43,34.39 C 36.3,34.25 36.13,34.15 35.91,34.09 A 3.56,3.56 0 0,0 35.01,34 H 31.98 L 31.84,34.68 H 32.11 A 0.7,0.7 0 0,1 32.41,34.72 C 32.48,34.75 32.51,34.8 32.51,34.87 L 32.47,35.12 L 31.88,37.88 A 1,1 0 0,1 31.81,38.12 A 0.28,0.28 0 0,1 31.58,38.32 H 31.07 L 30.93,39 H 33.83 L 33.96,38.33 H 33.61 A 0.89,0.89 0 0,1 33.29,38.29 A 0.16,0.16 0 0,1 33.21,38.14 Z M 34.71,36.14 C 34.55,36.19 34.34,36.22 34.07,36.22 H 33.62 L 33.92,34.68 H 34.38 C 34.68,34.68 34.91,34.72 35.04,34.8 C 35.17,34.88 35.24,35.02 35.24,35.2 A 1.32,1.32 0 0,1 35.05,35.85 A 0.73,0.73 0 0,1 34.7,36.14 Z M 38.21,38.02 A 0.92,0.92 0 0,0 38.17,38.22 C 38.17,38.28 38.19,38.32 38.24,38.34 C 38.28,38.36 38.36,38.37 38.46,38.37 H 38.66 L 38.53,39 H 36.23 L 36.35,38.37 H 36.55 C 36.7,38.37 36.79,38.35 36.84,38.31 C 36.89,38.27 36.94,38.17 36.97,38.02 L 37.59,35.07 C 37.62,34.96 37.63,34.87 37.63,34.79 C 37.63,34.72 37.61,34.68 37.58,34.66 C 37.54,34.63 37.47,34.62 37.36,34.62 H 37.15 L 37.27,34 H 39.05 L 38.2,38.02 Z M 43.01,38.2 C 43.01,38.14 43.01,38.08 43.03,38.02 L 43.57,35.38 H 41.92 L 41.8,36 H 41.87 C 41.99,36 42.07,36.01 42.1,36.04 C 42.15,36.06 42.17,36.11 42.17,36.18 L 42.15,36.36 L 41.91,37.53 C 41.79,38.12 41.53,38.31 41.14,38.31 A 0.45,0.45 0 0,1 40.84,38.21 C 40.7,38.07 40.73,37.83 40.77,37.66 L 41.25,35.38 H 39.52 L 39.39,36 H 39.56 C 39.66,36 39.74,36.01 39.78,36.04 C 39.88,36.1 39.85,36.27 39.83,36.36 L 39.55,37.66 A 3.5,3.5 0 0,0 39.47,38.28 C 39.47,38.5 39.55,38.68 39.71,38.81 C 39.88,38.94 40.11,39 40.39,39 C 40.66,39 40.89,38.96 41.11,38.85 L 41.14,38.84 C 41.34,38.74 41.63,38.59 41.78,38.44 L 41.66,39 H 43.36 L 43.49,38.38 H 43.3 A 0.5,0.5 0 0,1 43.07,38.34 C 43.03,38.32 43.01,38.27 43.01,38.2 Z M 44.22,37.6 L 43.95,39 H 44.47 L 44.64,38.65 L 44.97,38.83 A 2.29,2.29 0 0,0 47.19,38.56 C 47.34,38.43 47.46,38.28 47.54,38.11 C 47.64,37.93 47.68,37.76 47.68,37.6 A 0.76,0.76 0 0,0 47.34,36.95 A 2.9,2.9 0 0,0 47.04,36.8 A 7.04,7.04 0 0,0 46.1,36.52 L 45.89,36.43 A 0.24,0.24 0 0,1 45.79,36.34 A 0.32,0.32 0 0,1 45.91,35.96 C 46.01,35.89 46.13,35.86 46.28,35.86 C 46.41,35.86 46.53,35.88 46.67,35.92 C 46.8,35.96 46.91,36.02 46.99,36.09 C 47.07,36.17 47.16,36.29 47.24,36.46 H 47.76 L 48,35.35 H 47.48 L 47.35,35.55 A 2.95,2.95 0 0,0 46.81,35.31 A 2.37,2.37 0 0,0 46.28,35.25 C 46,35.25 45.75,35.29 45.51,35.35 A 2.1,2.1 0 0,0 44.93,35.65 C 44.77,35.78 44.64,35.94 44.55,36.12 A 1.05,1.05 0 0,0 44.46,36.97 C 44.5,37.06 44.56,37.14 44.64,37.21 C 44.73,37.28 44.84,37.35 44.96,37.41 A 102.67,102.67 0 0,1 46.19,37.81 C 46.31,37.86 46.32,37.91 46.32,37.98 C 46.32,38.22 46.09,38.36 45.72,38.36 S 45.1,38.21 44.97,38.03 A 1.1,1.1 0 0,1 44.8,37.61 H 44.22 Z" fill="rgb(254, 254, 253)"/>
</svg>
