<?xml version="1.0" encoding="UTF-8"?>
<!-- generated by Finnhub -->
<svg viewBox="0 0 55.5 55.5" xmlns="http://www.w3.org/2000/svg">
<path d="M 0,0 H 55.5 V 55.5 H 0 Z" fill="rgb(239, 242, 248)"/>
<path d="M 41.830000000000005,20.845 A 1.77,1.77 0 0,1 41.03,19.82 A 2.4,2.4 0 0,1 40.99,18.49 C 41.1,18.02 41.32,17.65 41.63,17.38 C 41.98,17.08 42.4,16.95 42.88,17.01 C 43.48,17.09 43.86,17.45 44.05,18.11 C 44.22,18.7 44.19,19.27 43.96,19.81 A 1.7,1.7 0 0,1 42.78,20.89 C 42.76,20.89 42.75,20.91 42.75,20.93 S 42.76,20.96 42.78,20.96 C 43.38,21.09 43.75,21.44 43.89,22.01 C 43.98,22.36 43.97,22.91 43.87,23.63 C 43.48,26.33 43.14,28.83 42.83,31.13 A 3.3,3.3 0 0,0 42.97,32.7 C 43.09,33.04 43.31,33.26 43.63,33.35 C 43.93,33.44 44.24,33.4 44.56,33.23 A 4.24,4.24 0 0,0 46.44,30.95 C 46.54,30.73 46.67,30.7 46.84,30.86 C 46.89,30.91 46.92,30.96 46.94,31.02 C 47.01,31.25 47.02,31.49 46.96,31.75 A 6.57,6.57 0 0,1 45.49,34.49 A 3.93,3.93 0 0,1 42.83,35.99 A 2.52,2.52 0 0,1 40.43,34.91 C 39.93,34.21 39.69,33.31 39.7,32.23 C 39.71,31.33 39.78,30.43 39.9,29.56 L 40.73,23.66 C 40.85,22.84 40.86,22.03 40.76,21.24 C 40.76,21.17 40.78,21.13 40.84,21.11 C 41.14,20.99 41.47,20.93 41.82,20.93 C 41.92,20.93 41.92,20.9 41.84,20.86 Z M 30.84,27.23 A 2.1,2.1 0 0,1 30.78,27.03 C 30.74,26.88 30.68,26.77 30.63,26.69 A 7.8,7.8 0 0,0 28.36,24.56 C 28.3,24.51 28.24,24.53 28.19,24.59 A 0.41,0.41 0 0,1 27.85,24.77 A 0.69,0.69 0 0,1 27.46,24.67 A 2.08,2.08 0 0,1 26.53,23.31 C 26.5,23.21 26.54,23.16 26.63,23.15 C 27.01,23.11 27.37,23.18 27.72,23.35 C 28.11,23.53 28.33,23.81 28.39,24.17 C 28.39,24.22 28.42,24.27 28.46,24.29 C 28.99,24.66 29.39,24.97 29.66,25.23 C 30.06,25.6 30.38,25.99 30.61,26.4 C 30.63,26.45 30.66,26.48 30.71,26.5 C 30.75,26.52 30.75,26.55 30.72,26.6 V 26.66 C 30.75,26.68 30.77,26.68 30.79,26.66 A 0.18,0.18 0 0,0 30.84,26.62 C 30.88,26.55 30.87,26.5 30.8,26.46 A 0.14,0.14 0 0,1 30.76,26.42 A 7.94,7.94 0 0,0 29.57,23.47 C 29.54,23.41 29.49,23.39 29.42,23.41 A 0.56,0.56 0 0,1 28.85,23.27 C 28.43,22.87 28.25,22.31 28.29,21.62 C 28.29,21.52 28.35,21.48 28.45,21.5 C 28.83,21.6 29.15,21.78 29.44,22.07 C 29.77,22.4 29.88,22.74 29.78,23.11 A 0.2,0.2 0 0,0 29.8,23.27 C 30.21,24.02 30.51,24.84 30.7,25.72 L 30.8,26.06 C 30.87,26.21 30.9,26.33 30.92,26.41 C 30.92,26.46 30.96,26.49 31.02,26.5 A 0.1,0.1 0 0,1 31.06,26.5 C 31.08,26.51 31.09,26.5 31.09,26.49 C 31.13,26.29 31.09,26.13 30.99,26.01 A 0.2,0.2 0 0,1 30.94,25.87 C 30.95,25.03 30.94,24.25 30.9,23.53 A 2.54,2.54 0 0,0 30.83,23.06 A 0.14,0.14 0 0,0 30.78,22.98 C 30.45,22.73 30.33,22.33 30.42,21.78 C 30.5,21.33 30.67,20.93 30.95,20.58 C 31,20.53 31.05,20.53 31.09,20.58 C 31.36,20.94 31.54,21.35 31.61,21.8 C 31.69,22.33 31.57,22.73 31.24,22.98 A 0.17,0.17 0 0,0 31.18,23.1 C 31.08,24.14 31.05,25.03 31.1,25.76 C 31.14,26.27 31.2,26.28 31.3,25.77 C 31.47,24.95 31.78,24.1 32.23,23.25 A 0.16,0.16 0 0,0 32.25,23.11 C 32.13,22.75 32.24,22.41 32.58,22.07 A 2.1,2.1 0 0,1 33.58,21.5 C 33.69,21.48 33.75,21.52 33.75,21.63 C 33.77,22.06 33.69,22.46 33.51,22.83 C 33.29,23.3 32.98,23.5 32.59,23.42 A 0.14,0.14 0 0,0 32.42,23.49 A 8.53,8.53 0 0,0 31.29,26.41 C 31.29,26.49 31.26,26.54 31.2,26.56 C 31.14,26.59 31.13,26.63 31.17,26.68 C 31.19,26.71 31.22,26.72 31.26,26.7 C 31.29,26.68 31.29,26.66 31.28,26.63 C 31.25,26.58 31.26,26.53 31.31,26.51 A 0.25,0.25 0 0,0 31.43,26.4 A 5.98,5.98 0 0,1 33.56,24.3 A 0.18,0.18 0 0,0 33.64,24.17 C 33.67,23.81 33.89,23.54 34.3,23.35 C 34.65,23.18 35.03,23.12 35.42,23.15 C 35.49,23.16 35.52,23.2 35.51,23.27 A 2.2,2.2 0 0,1 34.73,24.57 C 34.36,24.85 34.05,24.85 33.77,24.56 C 33.74,24.52 33.7,24.52 33.67,24.55 C 32.31,25.48 31.48,26.35 31.19,27.17 V 27.18 H 31.23 C 31.61,26.52 32.18,26.18 32.94,26.16 C 33.48,26.14 33.9,26.08 34.2,25.96 C 34.59,25.82 34.92,25.55 35.2,25.16 C 35.48,24.76 35.7,24.3 35.86,23.79 C 35.9,23.66 35.95,23.66 36,23.79 A 6.13,6.13 0 0,1 35.85,29.17 A 5.67,5.67 0 0,1 31.39,32.12 L 31.37,32.06 C 31.35,32.03 31.36,32 31.4,31.99 A 8.05,8.05 0 0,0 33.9,30.54 L 33.88,30.49 H 33.87 L 33.78,30.54 A 14.8,14.8 0 0,1 31.41,31.85 C 31.36,31.87 31.31,31.86 31.28,31.81 A 0.26,0.26 0 0,1 31.24,31.66 C 31.24,31.6 31.27,31.56 31.32,31.54 A 8.73,8.73 0 0,0 33.77,29.82 L 33.74,29.79 C 33.72,29.77 33.71,29.77 33.69,29.79 C 32.99,30.39 32.21,30.93 31.36,31.37 C 31.25,31.43 31.19,31.4 31.17,31.27 V 31.23 A 0.27,0.27 0 0,1 31.32,30.95 A 8.12,8.12 0 0,0 33.59,29.09 L 33.56,29.06 H 33.52 C 32.82,29.76 32.08,30.34 31.3,30.82 A 0.06,0.06 0 0,1 31.23,30.82 A 0.06,0.06 0 0,1 31.2,30.76 C 31.25,30.49 31.35,30.3 31.49,30.17 L 31.54,30.13 C 32.92,28.89 33.42,28.05 33.04,27.6 C 32.72,27.22 32.35,27.14 31.94,27.34 C 31.59,27.51 31.31,27.79 31.07,28.2 C 31.03,28.27 30.98,28.27 30.94,28.2 A 1.98,1.98 0 0,0 30.08,27.33 C 29.68,27.15 29.32,27.23 29,27.6 C 28.6,28.04 29.1,28.89 30.5,30.14 A 0.87,0.87 0 0,1 30.82,30.77 C 30.82,30.85 30.79,30.87 30.72,30.83 A 13.3,13.3 0 0,1 28.88,29.41 L 28.48,29.07 H 28.43 C 28.41,29.09 28.41,29.11 28.43,29.13 A 9.53,9.53 0 0,0 30.76,31 C 30.81,31.03 30.83,31.07 30.83,31.12 L 30.84,31.32 C 30.84,31.4 30.81,31.42 30.74,31.4 C 30.22,31.17 29.52,30.72 28.62,30.04 L 28.29,29.79 C 28.27,29.77 28.25,29.78 28.24,29.79 C 28.22,29.81 28.23,29.83 28.24,29.84 A 9.2,9.2 0 0,0 30.79,31.59 C 30.85,31.62 30.86,31.66 30.83,31.71 L 30.8,31.75 C 30.75,31.84 30.67,31.86 30.57,31.83 A 13.65,13.65 0 0,1 28.12,30.49 L 28.1,30.52 C 28.08,30.54 28.09,30.56 28.1,30.57 A 8.02,8.02 0 0,0 30.57,31.97 C 30.62,31.99 30.65,32.03 30.65,32.08 C 30.65,32.1 30.64,32.11 30.62,32.13 A 5.4,5.4 0 0,1 27.45,30.79 A 6.57,6.57 0 0,1 25.64,27.86 A 9.73,9.73 0 0,1 25.44,21.99 A 6.56,6.56 0 0,1 27.9,18.39 A 6.52,6.52 0 0,1 33.64,17.27 C 34.55,17.52 35.42,17.95 36.24,18.57 C 37.06,19.17 37.78,19.92 38.4,20.81 A 8.94,8.94 0 0,1 39.84,28.21 A 9.33,9.33 0 0,1 37.54,32.61 A 9.85,9.85 0 0,1 33.33,35.28 A 8.25,8.25 0 0,1 25.48,33.92 A 9.85,9.85 0 0,1 22.88,30.8 A 10.88,10.88 0 0,1 21.65,26.74 C 21.39,24.23 21.97,22.17 23.39,20.57 C 23.86,20.05 24.29,19.78 24.69,19.77 A 0.2,0.2 0 0,1 24.89,19.89 A 0.2,0.2 0 0,1 24.87,20.12 A 7.86,7.86 0 0,0 23.65,22.47 A 8.37,8.37 0 0,0 23.32,25.11 A 9.3,9.3 0 0,0 26.6,32.18 A 6.22,6.22 0 0,0 30.93,33.85 A 7.45,7.45 0 0,0 35.32,32.24 A 7.4,7.4 0 0,0 37.74,29.19 A 8.17,8.17 0 0,0 37.16,21.87 A 7.9,7.9 0 0,0 34.61,19.22 A 5.76,5.76 0 0,0 29.52,18.65 A 5.26,5.26 0 0,0 26.15,22.48 C 26.05,22.91 26.05,23.28 26.11,23.6 C 26.21,24.05 26.41,24.53 26.72,25.02 C 26.99,25.44 27.31,25.74 27.69,25.92 C 28.02,26.08 28.45,26.16 28.95,26.15 C 29.83,26.15 30.45,26.51 30.82,27.25 C 30.87,27.34 30.88,27.34 30.84,27.24 Z M 12.38,30.57 L 10.47,35.97 A 0.05,0.05 0 0,1 10.42,36 H 8.05 C 8,36 7.99,35.98 8.01,35.93 L 14.75,18.03 A 0.05,0.05 0 0,1 14.8,18 H 17.24 C 17.26,18 17.27,18.01 17.28,18.03 L 24.48,35.93 C 24.49,35.98 24.48,36 24.43,36 H 21.87 C 21.85,36 21.84,35.99 21.83,35.97 L 19.79,30.57 C 19.79,30.55 19.77,30.54 19.75,30.54 H 12.43 A 0.05,0.05 0 0,0 12.38,30.57 Z M 16.03,20.12 C 16.23,20.85 16.46,21.54 16.69,22.18 L 19.02,28.51 C 19.05,28.57 19.02,28.61 18.96,28.61 H 13.13 C 13.08,28.61 13.07,28.58 13.09,28.54 C 13.85,26.5 14.55,24.59 15.19,22.8 C 15.49,21.92 15.73,21.03 15.9,20.12 C 15.94,19.95 15.98,19.95 16.03,20.12 Z" fill="rgb(164, 142, 92)" fill-rule="evenodd"/>
</svg>
