<!-- by Finnhub --><svg width="56" height="56" viewBox="0 0 56 56" fill="none" xmlns="http://www.w3.org/2000/svg">
<rect width="56" height="56" fill="#F0F3FA"/>
<path fill-rule="evenodd" clip-rule="evenodd" d="M13 30.2497C13.109 30.4607 13.3664 30.7713 14 31.0725V20.377L16.6515 18.9767V35.4088L17.7188 36.0047V18.1619L19.5196 17.13V15.8056L13 19.5V30.2497ZM13 32.188V36.5L19.5364 40.2039V32.0177L20.2467 32.4766V40.6065L21.3486 41.2309V31.901L19.5227 30.8127V18.6876L18.4166 19.3913V38.0121L16.2016 36.6557C16.1002 36.5688 16 36.2965 16 35.902V20.6628L15 21.2217V36.076L14 35.6716V32.746L13 32.188ZM22.3275 41.7856L24.9387 43.2653V34.9577L25.7006 35.4166V42.6733C25.666 42.9544 25.721 43.5457 26.1454 43.9491L26.7186 44.2739C26.7724 44.2668 26.8095 44.2276 26.8095 44.1348V36.0318L27.4787 36.4601V44.7046L28 45L28.6206 44.6483V36.4601L29.2437 36.0318V44.2952L31.5075 43.0124C31.7364 42.8298 32 42.3993 32 41.7835V34.356L33 33.723V37.0569L33.9936 36.4601V33.3136L35 32.6835V39.0093C34.9973 39.2118 34.4987 39.9034 33.9936 39.9507V38.0801L33 38.6938V41.9493C33.0011 41.9659 32.9988 41.9856 32.9964 42.0061C32.9901 42.0594 32.9832 42.119 33.0316 42.1488L35.7439 40.6118C35.8713 40.4723 36 40.2715 36 40.0139V25.6883L28.0456 21.2575L22.1887 24.5508V28.9885L23 29.5504V25.1484L28.0456 22.3632L35 26.2736V31.7669L31.2475 33.7933C31.1712 33.8458 31.0188 33.996 31.0188 34.1768V41.3032C31.0228 41.4844 30.9021 41.8733 30.387 41.9791V34.2846L28.0456 35.6614L22.0414 32.2357V38.6774C22.0395 38.748 22.0889 38.9148 22.3012 39.0174C22.4081 39.0691 22.536 39.1472 22.6612 39.2237L22.6612 39.2237L22.6613 39.2237C22.7846 39.2991 22.9051 39.3727 23 39.4177V33.9561L24 34.4211V41.024L22.0414 40.0095V41.4299C22.0403 41.4843 22.098 41.6262 22.3275 41.7856ZM36.684 40.0791L39.3007 38.5963C39.347 38.4866 39.3897 38.3459 39.3897 38.2105V24.1302L38.2497 23.4717V37.1641C38.2696 37.3423 38.1671 37.7298 37.5975 37.8551V18.9199L36.4807 18.2704V39.9232C36.4728 39.975 36.5049 40.0724 36.684 40.0791ZM40.2355 38.0666L43 36.5V25.1796C42.726 24.9972 42.2892 24.7176 42 24.5508V35.0704C42.0065 35.2096 41.8473 35.5185 41.5759 35.6404L41.2137 35.8097V32.8864L40.0407 33.5636V37.8416C40.0611 37.9045 40.1222 38.0047 40.2355 38.0666ZM43 23.2808V19.5L34.8456 14.8792V22.8896L34.006 22.5038V14.4034L31.058 12.7329V20.8536L28.5906 19.4284V12.8809C28.8053 12.913 29.2347 13.0973 29.2347 13.5774V18.8175L30.3702 19.4284V12.3431L28 11L27.4834 11.2927V19.3913L26.7702 19.8365V17.3235L25.6006 17.9369V21.5283L28.0456 20.179L32 22.5428V14.9661C32.0545 14.9154 32.3402 14.8444 32.5181 14.9661C32.7405 15.1183 33 15.4457 33 15.7596V22.9274L36 24.5508V16.8775L38.2497 18.2704V21.6408C38.2732 21.7028 38.377 21.8545 38.6044 21.9661C38.8319 22.0777 39.2168 22.2774 39.3808 22.3632V18.9199L40.0592 19.2446V32.1018L41.2058 31.5112V19.5489L42 19.9981V22.6697L43 23.2808ZM26.7092 11.7314L23.8262 13.3651V21.4928L23 21.9161V13.8333L20.2509 15.3912V30.058L28.0456 34.5333L34 31.2679V26.8363L33 26.2736V30.6409L28.0456 33.4201L21.1972 29.5504V24.0586L24.9347 21.917V14.5683C24.9427 14.3793 25.0871 13.9817 25.6006 13.9033V16.5353L26.7702 15.9263V11.8592C26.7734 11.8326 26.762 11.7811 26.7092 11.7314ZM21.3388 22.9111V16.3958C21.3671 16.2428 21.4847 15.9074 21.729 15.7898C22.0343 15.6428 22.0399 15.8497 22.0399 15.9749V22.4878L21.3388 22.9111Z" fill="#040707"/>
<path fill-rule="evenodd" clip-rule="evenodd" d="M31.513 25.6954L28.1064 23.765L24.6358 25.7317L26.8524 26.8611L28.0077 26.2064L29.1736 26.8671L31.513 25.6954ZM29.4633 28.8769L28.1959 29.5951V32.0924L31.7544 30.0759L29.4633 28.8769ZM27.8194 31.9805L27.8194 29.595L26.4657 28.8279V27.0802L26.4659 27.0801L24.4102 26.0328V30.0486L27.8194 31.9805Z" fill="#F68B1E"/>
</svg>
