<!-- by Finnhub --><svg width="56" height="56" viewBox="0 0 56 56" xmlns="http://www.w3.org/2000/svg"><path fill="#F0F3FA" d="M0 0h56v56H0z"/><path d="M8.76 22c.72 0 1.43.17 1.85.76l.76-.57A3.17 3.17 0 0 0 8.76 21c-2.2-.03-3.78 1.9-3.76 4-.02 2.12 1.57 4.02 3.76 4a3.35 3.35 0 0 0 2.8-1.34l-.66-.57c-.5.67-1.3.93-2.14.91-1.71.02-2.77-1.4-2.76-3 0-1.57 1.09-3.02 2.76-3Zm8.13-1h-.82l-3.26 8h.99l.84-2h3.49l.88 2h1.02l-3.14-8Zm-.45 1.22h.02L17.7 26h-2.64l1.38-3.78ZM22 21h2.3c1.36 0 2.75.63 2.7 2.19.05 1.46-1.21 2.3-2.53 2.31H23V29h-1v-8Zm1 3.5h1.47c.83.04 1.55-.43 1.55-1.3 0-.86-.72-1.24-1.55-1.2H23v2.5Zm7-3.5h-1v8h1v-8Zm8.46 1H36v7h-1v-7h-2.54v-1h6v1Zm3.73-1h-1.1L38 29h.99l.82-2h3.64l.75 2h1.02l-3.03-8Zm-.56 1.22h.03L43.1 26h-2.96l1.48-3.78ZM47 21h1v7h3v1h-4v-8ZM10 33h.74a1.98 1.98 0 0 1 .79.13c.11.07.2.15.27.26.07.13.11.28.1.44a.75.75 0 0 1-.2.53.91.91 0 0 1-.52.26L12 36h-.42l-.8-1.35h-.44V36H10v-3Zm.34 1.32h.61a1 1 0 0 0 .28-.06.5.5 0 0 0 .22-.15c.06-.08.1-.18.09-.28 0-.1-.02-.18-.07-.26a.42.42 0 0 0-.16-.15.68.68 0 0 0-.22-.07 1.9 1.9 0 0 0-.25-.02h-.5v1ZM5 33h.92c.14 0 .27.01.4.04.13.02.25.07.35.13.1.07.18.16.24.26a.9.9 0 0 1 0 .8.74.74 0 0 1-.25.25c-.1.07-.22.11-.33.14-.12.02-.23.03-.35.03h-.6V36H5v-3Zm.37 1.32h.62c.16 0 .32-.04.45-.12a.5.5 0 0 0 .17-.37.49.49 0 0 0-.17-.38.77.77 0 0 0-.45-.12h-.62v.99Zm10.53 1.57a1.76 1.76 0 0 0 1.2.01 1.44 1.44 0 0 0 .79-.8c.15-.38.15-.81 0-1.2a1.4 1.4 0 0 0-.79-.79 1.66 1.66 0 0 0-1.2 0 1.45 1.45 0 0 0-.79.8c-.15.38-.15.8 0 1.2a1.4 1.4 0 0 0 .79.78Zm1.06-.3a1.12 1.12 0 0 1-1.28-.25c-.1-.11-.18-.24-.23-.38-.11-.3-.11-.62 0-.92a1.08 1.08 0 0 1 1.05-.72 1.08 1.08 0 0 1 1.05.72c.11.3.11.62 0 .92a1.08 1.08 0 0 1-.6.63ZM21 33h.91a2 2 0 0 1 .41.04 1 1 0 0 1 .34.13c.1.07.18.16.24.26a.9.9 0 0 1 0 .8.74.74 0 0 1-.25.25c-.1.07-.22.11-.33.14-.11.02-.23.03-.34.03h-.62V36H21v-3Zm.37 1.32h.61c.16 0 .32-.04.45-.12a.5.5 0 0 0 .17-.37.49.49 0 0 0-.17-.38.76.76 0 0 0-.45-.12h-.61v.99ZM27.93 33H26v3h2v-.33h-1.64V34.6h1.46v-.33h-1.46v-.94h1.57V33ZM31 33h.74a1.98 1.98 0 0 1 .79.13c.11.07.2.15.27.26.08.13.11.28.1.44a.75.75 0 0 1-.19.53.91.91 0 0 1-.53.26L33 36h-.42l-.8-1.35h-.44V36H31v-3Zm.35 1.32h.6a1 1 0 0 0 .29-.06.5.5 0 0 0 .2-.15c.07-.08.1-.18.1-.29a.48.48 0 0 0-.07-.25.42.42 0 0 0-.16-.15.68.68 0 0 0-.22-.07 1.88 1.88 0 0 0-.26-.02h-.48v.99Zm5.65-.99h.97V33H35.7v.33h.96V36H37v-2.67Zm3.7-.33h.3v3h-.3v-3Zm5.12 0H44v3h1.9v-.33h-1.56V34.6h1.38v-.33h-1.38v-.94h1.48V33Zm4.83.58a.52.52 0 0 0-.24-.2.8.8 0 0 0-.31-.06.98.98 0 0 0-.24.02.72.72 0 0 0-.2.09.41.41 0 0 0-.2.37.36.36 0 0 0 .14.3.6.6 0 0 0 .19.11l.3.11.34.11.3.15c.08.07.15.14.2.24a.83.83 0 0 1-.02.71.8.8 0 0 1-.24.26.82.82 0 0 1-.34.16 1.56 1.56 0 0 1-.91-.04 1.05 1.05 0 0 1-.24-.12.75.75 0 0 1-.18-.19l.3-.23c.07.1.17.18.28.23a.88.88 0 0 0 .82-.04c.06-.04.11-.1.15-.16a.38.38 0 0 0 .06-.22.43.43 0 0 0-.04-.21.41.41 0 0 0-.15-.14 1.16 1.16 0 0 0-.25-.1l-.35-.12a2.3 2.3 0 0 1-.3-.1.93.93 0 0 1-.24-.16.66.66 0 0 1-.21-.52.7.7 0 0 1 .07-.35c.05-.1.13-.2.23-.27s.22-.12.33-.16c.28-.07.58-.07.86.02.15.06.28.15.38.26l-.3.25Z"/></svg>