<!-- by Finnhub --><svg width="56" height="56" viewBox="0 0 56 56" xmlns="http://www.w3.org/2000/svg"><path fill="url(#agskhphm3)" d="M0 0h56v56H0z"/><path d="M31 31h-1.13l-1.99-4.43L26.01 31h-1l2.94-7L31 31Zm-6 1h6v1h-6v-1Zm8-1h1v-5h2v-1h-5v1h2v5Zm5 0h-1v-6h1v6Zm4-1.58L43.84 25H45l-2.47 6-1.06-.02L39 25h1.17l1.84 4.42Zm7.5-2H48v1.15h1.5v-1.16ZM46 25v2.4h1V26h4v-1h-5Zm1 5.02v-1.45h-1V31h5v-.98h-4Zm-24.5-2.6H21v1.16h1.5v-1.16ZM19 25v2.4h1V26h4v-1h-5Zm1 5v-1.42h-1V31h5v-1h-4Zm-5.79-2.53h1.7c.58 0 1.09-.22 1.09-.75 0-.52-.51-.72-1.1-.72H13v5h-1v-6h3.68c1.41 0 2.32.76 2.32 1.72 0 .98-.76 1.6-1.76 1.75l1.5 2.16.26.37h-1.41l-2.43-3.53h.05Zm-4.2-1.13c.22.11.56.33.56.33l.56-.92s-.4-.21-.66-.32A5.05 5.05 0 0 0 8.51 25C6.6 25 5 26.13 5 28c0 2.1 1.7 3 3.44 3 1.32 0 2.03-.43 2.41-.72.2-.12.47-.32.47-.32l-.59-.88-.5.43c-.37.29-1 .49-1.69.49C7.22 30 6 29.46 6 28c0-1.48 1.22-2 2.46-2 .6 0 1.2.15 1.56.34Z" fill="#D1B880"/><defs><linearGradient id="agskhphm3" x1="10.42" y1="9.71" x2="68.15" y2="76.02" gradientUnits="userSpaceOnUse"><stop stop-color="#1A1E21"/><stop offset="1" stop-color="#06060A"/></linearGradient></defs></svg>