<!-- by Finnhub --><svg width="56" height="56" viewBox="0 0 56 56" xmlns="http://www.w3.org/2000/svg"><path fill="#F0F3FA" d="M0 0h56v56H0z"/><path d="m28.54 17.11.53-.54h1.07l1.6.54h.53l-.53-.54 2.13 1.08c.85.43 2.13 2.34 2.67 3.24h-1.07c-.2 0-.25.08-.3.15-.06.1-.1.19-.77-.15-.64-.33-.7.14-.77.69-.04.34-.08.72-.3.93-.52.54-1.06 0-1.06-1.08 0-.63.19-.7.34-.77.1-.05.2-.08.2-.3 0-.34.2-.47.48-.65.17-.1.38-.23.58-.44.43-.43-.53-.9-1.06-1.08v.54h-.54l-1.06-1.08v.54l-1.6 1.08c-.54-.54-.54-1.08-.54-1.62 0-.43-.35-.54-.53-.54Zm-5.33 1.08c-.43-.43-1.24-.18-1.6 0-.43 0-.18.36 0 .54 0 .18-.1.65-.53 1.08-.15.15-.39.35-.66.57-.69.58-1.62 1.36-2 2.13-.43.87-.54 1.8-.54 2.16-.85.87 0 2.16.53 2.7L19.48 29l1.06.54c0 .18-.1.76-.53 1.62-.42.87.53 1.44 1.07 1.62 0 .87 1.06 1.44 1.6 1.62 0 1.3 2.48 2.7 3.73 3.24 0-.54 0-.54.53-1.08.43-.43.53-.9.53-1.08 1.28-.43 1.25-.9 1.07-1.08l1.07-1.62c-.54 0-1.82-.1-2.67-.54-.35-.18-.53-.3-.65-.38-.07-.04-.12-.08-.18-.1-.12-.06-.27-.06-.77-.06-.62 0-.52-.37-.43-.67.07-.22.12-.4-.1-.4-.27 0-.4-.14-.6-.34-.2-.2-.47-.48-1-.75a1.68 1.68 0 0 1-.76-.68c-.15-.23-.25-.4-.84-.4-1.07 0-1.6 0-2.13-.54-.36-.36-.24-.72-.12-1.08.06-.18.12-.36.12-.54 0-.23-.1-.16-.26-.05-.2.15-.5.36-.8.05-.54-.54 0-1.08.53-1.62s1.06 0 1.6.54c.15.16.26.32.35.45.22.32.33.47.71.1a7.37 7.37 0 0 1 2.13-1.63c.36-.18.71-.42 1.07-.66.71-.48 1.42-.96 2.13-.96 1.07 0 .53-.54 0-1.08-.23-.23-.75-.16-1.27-.1-.7.1-1.4.18-1.4-.44 0-.44 0-.61.08-.66.05-.03.12 0 .24.02.16.04.4.1.75.1 1.07 0 1.6 0 2.13-.54.54-.54 0-1.08-1.06-1.08-.53 0-.8.14-1.07.27-.26.14-.53.27-1.06.27-.66 0-.71-.2-.78-.49-.04-.18-.09-.38-.29-.59Zm13.86 4.86L36 23.6v.54l-1.06-.54-1.6.54-1.6 3.24c.35.36.96 1.2.53 1.62l1.6 1.08c.36-.36 1.28-.97 2.13-.54.86.43-.7 4.14-1.6 5.94 2.14-1.08 4.27-3.24 4.27-8.64.18-.54.1-2.05-1.6-3.78Z" fill="#C8B28B"/><path d="M23.74 14.41c.54-.54 2.35-1.62 5.33-1.62 3.74 0 14.4 2.16 14.93 14.04 0 1.44-.64 4.32-3.2 4.32a3.53 3.53 0 0 1-2.62-1.07c.32-1.02.49-2.11.49-3.25 0-5.96-4.77-10.8-10.66-10.8-1.52 0-2.96.32-4.27.9v-2.52Z" fill="#B22221"/><path d="M18.2 36.77c-.73-.2-2.56-1.24-4.05-3.86-1.87-3.28-5.35-13.71 4.54-20.12 1.23-.72 4.01-1.6 5.29.65.7 1.24.61 2.4.24 3.3a10.78 10.78 0 0 0-6.72 8.25 8.23 8.23 0 0 0 .87 6.7l.36.47c.47.83 1.03 1.59 1.69 2.26l.55.73-2.77 1.62Z" fill="#6FB447"/><path d="M21.44 35.34a3.63 3.63 0 0 0-3.7 1.87c-1.28 2.24.86 4.25 2.1 4.97 10.42 5.47 17.6-2.8 19.46-6.08 1.5-2.62 1.16-4.2.97-4.95l-2.09-1.08c-1.11 4.77-5.13 7.56-10.17 7.56-2.48 0-4.76-.85-6.57-2.3Z" fill="#043465"/></svg>