<?xml version="1.0" encoding="UTF-8"?>
<!-- generated by Finnhub -->
<svg viewBox="0 0 55.5 55.5" xmlns="http://www.w3.org/2000/svg">
<path d="M 0,0 H 55.5 V 55.5 H 0 Z" fill="rgb(23, 26, 28)"/>
<path d="M 21.29,15.995000000000001 C 15.02,16.32 10,21.57 10,28 C 10,34.63 15.32,40 21.89,40 H 36.76 V 39.85 L 34.26,36 H 22 A 8,8 0 1,1 22,20 H 23.89 L 21.31,16.01 Z" fill="rgb(254, 254, 253)"/>
<path d="M 34.67,32.985 H 26 L 25.96,29 H 36.58 C 39.02,29 41,27.2 41,24.73 C 41,22.26 39.02,20 36.58,20 H 26 L 23.1,16.02 V 16 H 36.09 C 40.86,16 45,19.9 45,24.73 C 45,28.23 42.8,31.03 39.77,32.28 L 45,40 H 39.42 L 34.68,33 Z" fill="rgb(226, 119, 55)"/>
</svg>
