<?xml version="1.0" encoding="UTF-8"?>
<!-- generated by Finnhub -->
<svg viewBox="0 0 55.5 55.5" xmlns="http://www.w3.org/2000/svg">
<path d="M 0,0 H 55.5 V 55.5 H 0 Z" fill="rgb(239, 242, 248)"/>
<path d="M 41.99,28.055 V 28.05 A 4.92,4.92 0 0,1 47,23 C 49.85,23 52,25.23 52,28 S 49.85,33 46.98,33 A 4.92,4.92 0 0,1 42,28.07 Z M 43.5,28 C 43.5,30 44.94,31.5 46.98,31.5 A 3.46,3.46 0 0,0 50.5,28 C 50.5,26.11 49.1,24.5 47,24.5 A 3.41,3.41 0 0,0 43.5,28 Z M 40.51,26 H 38.81 A 3.42,3.42 0 0,0 35.96,24.5 A 3.34,3.34 0 0,0 32.5,27.97 A 3.38,3.38 0 0,0 36,31.5 C 37.46,31.5 38.93,31.03 39.25,29.5 H 35.68 L 34.85,28 H 41 C 41,30.77 38.8,33 36,33 S 31,30.8 31,27.97 A 4.9,4.9 0 0,1 35.98,23 A 5,5 0 0,1 40.51,26 Z M 23,23 L 24,24.48 V 33 H 25.5 V 28 L 28.85,33 H 30.5 L 28.17,29.28 C 29.69,29.01 30.5,28.28 30.5,26.28 C 30.5,23.74 28.65,23 26.5,23 H 23 Z M 25.5,28 V 24.48 H 26.63 C 27.93,24.48 29,24.75 29,26.28 C 29,27.92 27.9,28 26.5,28 H 25.5 Z M 12.32,30 H 14 C 13.38,31.76 11.51,33 9.24,33 A 5.07,5.07 0 0,1 4,27.99 A 5.04,5.04 0 0,1 9.22,23 A 5,5 0 0,1 14.02,26 H 12.32 C 12,25.37 10.97,24.51 9.21,24.5 C 7.09,24.5 5.5,26.03 5.5,27.99 C 5.5,29.99 7.11,31.5 9.22,31.5 A 3.6,3.6 0 0,0 12.32,30 Z M 16.39,23 L 17.3,24.43 L 14,33 H 15.62 L 16.48,30.64 H 20.49 L 21.38,33 H 23 L 19.21,23 H 16.39 Z M 18.47,24.85 L 20.08,29.35 H 16.9 L 18.48,24.85 Z" fill="rgb(220, 100, 58)"/>
</svg>
