<?xml version="1.0" encoding="UTF-8"?>
<!-- generated by Finnhub -->
<svg viewBox="0 0 55.5 55.5" xmlns="http://www.w3.org/2000/svg">
<path d="M 0,0 H 55.5 V 55.5 H 0 Z" fill="rgb(239, 242, 248)"/>
<path d="M 42.82,21.935 A 1.1,1.1 0 0,0 41.05,21.59 C 40.75,21.89 40.65,22.36 40.82,22.76 A 13.99,13.99 0 0,1 42,28 C 41.98,35.4 35.43,42.02 28,42 A 14,14 0 0,1 23.92,41.38 L 36.68,27.85 A 1.08,1.08 0 0,0 36.68,26.32 A 1.08,1.08 0 0,0 35.15,26.32 L 21.73,40.5 A 14.62,14.62 0 0,1 14,28.1 C 13.94,20.65 20.55,14 28,14 C 29.46,14 30.94,14.23 32.37,14.7 L 19.32,28.15 A 1.08,1.08 0 0,0 19.32,29.68 A 1.08,1.08 0 0,0 20.85,29.68 L 34.9,15.4 L 34.92,15.37 L 35.09,15.19 C 35.35,14.93 35.46,14.59 35.4,14.26 C 35.35,13.93 35.13,13.66 34.8,13.5 A 15.96,15.96 0 0,0 28,12 C 19.27,12.02 12,19.26 12,28 C 12,36.7 19.24,43.97 27.94,44 H 28 C 37,44 43.9,36.4 44,28 C 44.02,26 43.64,23.95 42.83,21.95 Z" fill="rgb(32, 79, 131)"/>
<path d="M 32.690000000000005,23.285 A 1.04,1.04 0 0,0 31.21,23.3 L 22.31,32.22 A 1.04,1.04 0 0,0 22.31,33.69 A 1.04,1.04 0 0,0 23.79,33.69 L 32.69,24.79 A 1.04,1.04 0 0,0 32.69,23.31 Z" fill="rgb(139, 196, 63)"/>
</svg>
