<!-- by Finnhub --><svg width="56" height="56" viewBox="0 0 56 56" fill="none" xmlns="http://www.w3.org/2000/svg">
<rect width="56" height="56" fill="#F0F3FA"/>
<path fill-rule="evenodd" clip-rule="evenodd" d="M21.178 19.5L19.5524 22C18.5514 19.998 17.4528 19.9989 16.2222 20L16.1387 20C9.4555 21.0236 7 28.6335 7 30.1387C7 31.644 7.70942 32.4869 9.39529 32.4869C11.9241 32.4869 15.356 30.6204 16.0785 29.5969C16.801 28.5733 18.788 26 20.8953 26C22.5812 26 23.0026 27.0838 23.0026 27.6257L23.6649 26.4817H24.9895C24.583 27.1627 23.9427 28.3358 23.3535 29.4155L23.3534 29.4156C22.7791 30.4679 22.2532 31.4316 22.0393 31.7644C21.4974 32.6073 21.678 33.4503 22.1597 33.4503C24.121 33.1828 26.8868 28.7486 28.2905 26.4981L28.2905 26.4981C28.4036 26.3168 28.5078 26.1496 28.6021 26H29.9267L29.5654 26.8429C29.8866 26.562 30.6733 26 31.2513 26C31.9738 26 33 26.1806 33 26.9634C33 27.1642 32.9443 27.3492 32.8555 27.5132C32.8985 27.4941 32.9452 27.4744 32.9954 27.4532C33.6582 27.173 34.9331 26.6341 36.5497 24H37.9346L36.6474 26.4083H38.1409L37.9001 27H36.2943L33.3391 31.8698C33.1872 32.1257 33.0095 32.5199 33 32.8281C32.9919 33.0901 33.1054 33.2899 33.4595 33.2899C34.4228 33.2899 36.5497 31.1598 37.9346 29.2071C39.3194 27.2544 41.1257 26 42.2696 26C43.4136 26 44 26.9083 44 27.5C44 28.0917 42.089 31.1006 38.5367 30.9823C38.5196 31.0438 38.4987 31.1139 38.4759 31.1903L38.4759 31.1906L38.4758 31.1909C38.258 31.922 37.8682 33.2899 38.9581 33.2899C40.7644 33.2505 45.3764 31.2899 49.3744 24H50.699L46.1833 31.6331C45.9224 32.1065 45.521 33 46.0026 33C46.6047 33 47.8089 32.4615 50.3979 29.5621C50.6388 29.6568 50.8997 29.7988 51 29.858C50.0166 31.2189 47.4717 34 45.1597 34C45.0995 34 44.377 33.9408 44.377 32.9349C44.377 32.1302 45.8621 29.8185 46.6047 28.7929C45.1798 30.5089 41.6555 34 38.9581 34C37.5733 34 36.1283 33.1124 36.8508 31.2781C36.2487 32.1065 34.8037 34 32.8168 34C31.8534 34 31.4922 33.645 31.4922 32.8757C31.4922 32.3659 33.4581 29.2641 34.6916 27.318L34.6917 27.318C34.9469 26.9153 35.1707 26.5621 35.3393 26.2916C34.9166 26.8515 33.2812 27.9912 32.1578 28.1793C32.0188 28.2499 31.889 28.288 31.7932 28.288C31.4319 28.288 31 28.1675 31 27.5654C31 26.7827 32.034 26.7827 32.2749 26.9031C32.1545 26.5419 31.8534 26.301 31.3115 26.301C30.3 26.301 29.3647 27.3045 29.0236 27.8063L25.5052 33.9921H24L25.6257 31.1021L25.5074 31.2291C24.6247 32.1784 22.9382 33.9921 21.5576 33.9921C20.1126 33.9921 20.0724 32.9284 20.233 32.4869C19.8316 32.9887 18.7037 33.9921 17.4031 33.9921C15.3319 33.9921 15.055 32.6073 15.1754 31.8848C14.192 32.6876 11.0812 33.9921 9.39529 33.9921C5.90314 33.9921 5 31.644 5 30.2592C5 28.8743 5.6623 27.3089 7.95026 23.9372C10.2382 20.5654 14.3927 19 16.1387 19C17.2013 19 17.9672 19.3703 18.5669 19.6603C18.9526 19.8468 19.2695 20 19.5524 20C20.1095 20 20.8232 19.666 21.1436 19.5161L21.178 19.5ZM20.6884 27C18.4639 27.5023 17.3131 30.5581 17.0158 32.0233C16.9109 32.8605 17.3306 33 18.1701 33C19.6915 33 22 29.2326 22 28.3256C22 27.4186 21.3704 27 20.6884 27ZM42.1515 27C40.7455 27 39.4646 29 39 30C41.8485 29.7692 43 28.0962 43 27.6346C43 27.1731 42.5758 27 42.1515 27Z" fill="url(#paint0_linear_228_5603)"/>
<defs>
<linearGradient id="paint0_linear_228_5603" x1="28" y1="19" x2="28" y2="34" gradientUnits="userSpaceOnUse">
<stop stop-color="#F9EC75"/>
<stop offset="0.609375" stop-color="#E9E29A"/>
<stop offset="0.75" stop-color="#715021"/>
<stop offset="1" stop-color="#D6AA39"/>
</linearGradient>
</defs>
</svg>
