<!-- by Finnhub --><svg width="56" height="56" viewBox="0 0 56 56" xmlns="http://www.w3.org/2000/svg"><path fill="#F0F3FA" d="M0 0h56v56H0z"/><path d="m31.56 42-3.2-6h5.41l3.34-6h-4.36l-1.25 2h-5L24 28l2.5-4h5l1.25 2h4.48l-3.46-6H27.5l1.4-3h1.19a1.5 1.5 0 1 0 0-1h-5.95l1.32-2h11.48L45 27.86 36.94 42h-5.38Zm.6-25.5a.66.66 0 1 1-1.32 0 .66.66 0 0 1 1.32 0Z" fill="#CD1F28"/><path d="M12.87 22h10.17l1.13-2h1.86l1.6-3h-8.26l-2.25 4h-4.25a1 1 0 1 0 0 1Z" fill="#010101"/><path fill-rule="evenodd" d="M16.91 16a1.5 1.5 0 1 1 0-1h3.52l.7-1h3.08l-1.46 2H16.9Zm-.76-.5a.65.65 0 1 1-1.3 0 .65.65 0 0 1 1.3 0Z" fill="#A9A9A9"/><path d="M19.61 28H9v-1h4.85l2.23-4h2.06l1.16 2.67h1.65L19.6 28Z" fill="#6E6F73"/><path d="M19.88 24.63 19.04 23h3.45l-1.03 1.63h-1.58Z" fill="#010101"/><path d="m13.48 29 2.1 3h-3.67a1.5 1.5 0 1 0 0 1h10.53l-1.22-2h-3.8l-1.28-2h-2.66Zm-2.33 3.5a.65.65 0 1 1-1.3 0 .65.65 0 0 1 1.3 0Z" fill="#A9A9A9"/><path d="M18.55 37.3 16.66 34h3.75l-1.86 3.3Z"/><path d="M19.56 38h-3.65a1.5 1.5 0 1 0 0 1h7.18a1.5 1.5 0 1 1 0 1H19.9c.37.63.84 1.43 1.14 2h9.31l-3.33-6h-2.8l-1.4-2H21.3l-1.74 4Zm4.94 2.15a.65.65 0 1 0 0-1.3.65.65 0 0 0 0 1.3Z"/></svg>