<?xml version="1.0" encoding="UTF-8"?>
<!-- generated by Finnhub -->
<svg viewBox="0 0 55.5 55.5" xmlns="http://www.w3.org/2000/svg">
<path d="M 0,0 H 55.5 V 55.5 H 0 Z" fill="rgb(239, 242, 248)"/>
<path d="M 19.169999999999998,15.985 H 41.94 L 41,18 H 19.33 C 18.34,18.16 16.46,19.01 16.15,21.14 L 14.09,36.14 V 36.16 C 14.03,36.49 14.07,36.96 14.32,37.32 C 14.52,37.62 14.99,38 16.16,38 H 37.8 C 38.26,38 39.56,37.66 39.88,35.85 L 40.4,31.82 L 40.41,31.76 A 0.42,0.42 0 0,0 40.32,31.39 C 40.23,31.29 39.9,31 38.83,31 H 23.9 C 23.49,31 22.91,30.94 22.4,30.69 A 1.85,1.85 0 0,1 21.31,29 V 28.88 L 21.84,26.85 A 2,2 0 0,1 23.9,25 H 42.97 L 41.94,27 H 23.89 V 27.12 L 23.42,28.94 L 23.55,28.97 C 23.65,28.99 23.77,29 23.89,29 H 38.84 C 40.26,29 41.3,29.38 41.92,30.11 C 42.51,30.8 42.57,31.61 42.44,32.17 L 41.93,36.14 V 36.16 C 41.4,39.14 39.06,40 37.8,40 H 16.16 C 14.44,40 13.27,39.39 12.61,38.43 A 3.59,3.59 0 0,1 12.05,35.85 L 14.11,20.85 C 14.61,17.43 17.67,16.21 19.11,16.01 L 19.18,16 Z" fill="rgb(34, 111, 252)"/>
<path d="M 17.08,22.825 C 17.53,20.24 18.89,19 20.18,19 H 40.5 L 39.98,21 H 20.21 H 20.22 C 20.22,21.02 19.47,21.2 19.12,23.16 C 18.72,25.54 17.6,31.36 17.07,34.08 C 17.09,34.25 17.15,34.48 17.29,34.67 C 17.41,34.82 17.62,35 18.11,35 H 35.71 C 35.98,35 36.14,34.99 36.29,34.92 C 36.39,34.87 36.62,34.72 36.8,34.18 L 36.86,34 H 21.73 C 21.13,34 20.18,33.89 19.4,33.48 C 19,33.27 18.58,32.94 18.31,32.45 A 2.27,2.27 0 0,1 18.13,30.81 L 19.17,24.26 L 19.2,24.18 C 19.48,23.37 19.86,22.63 20.74,22.27 C 21.13,22.11 21.54,22.05 21.93,22.03 C 22.31,22 22.76,22 23.26,22 H 44 L 42.96,24 H 23.3 C 22.76,24 22.39,24 22.08,24.02 C 21.78,24.04 21.64,24.08 21.57,24.11 C 21.53,24.12 21.41,24.16 21.2,24.74 L 20.17,31.2 L 20.16,31.24 C 20.11,31.44 20.15,31.51 20.16,31.52 C 20.17,31.56 20.23,31.63 20.4,31.72 C 20.76,31.92 21.32,32 21.74,32 H 36.76 C 37.11,32 37.46,32.02 37.79,32.11 C 38.12,32.21 38.51,32.39 38.77,32.78 C 39.01,33.16 39.04,33.57 39.01,33.88 C 38.98,34.18 38.89,34.51 38.78,34.82 A 3.1,3.1 0 0,1 37.22,36.71 C 36.62,37.01 36.02,37 35.75,37 H 18.11 A 2.99,2.99 0 0,1 15,34 V 33.9 L 15.02,33.82 C 15.54,31.15 16.67,25.22 17.09,22.84 Z" fill="rgb(34, 111, 252)"/>
</svg>
