<?xml version="1.0" encoding="UTF-8"?>
<!-- generated by Finnhub -->
<svg viewBox="0 0 55.5 55.5" xmlns="http://www.w3.org/2000/svg">
<path d="M 0,0 H 55.5 V 55.5 H 0 Z" fill="rgb(239, 242, 248)"/>
<path d="M 34.95,40.385 A 1.32,1.32 0 0,1 34.16,39.4 C 29.56,40.67 23.06,38.04 14.42,31.38 C 14.32,31.64 14.14,31.86 13.92,32.02 C 22.85,40.18 28.69,43.68 32.15,42.89 A 4,4 0 0,0 33.08,42.55 A 4.96,4.96 0 0,0 35.18,40.45 C 35.1,40.48 35.03,40.45 34.96,40.41 Z M 32,42.22 C 29.8,42.72 26.5,41.28 21.84,37.82 C 26.49,40.87 29.77,42.15 32.11,41.85 C 32.61,41.77 33.11,41.65 33.55,41.43 L 33.62,41.4 C 33.15,41.81 32.62,42.11 32,42.22 Z M 32.04,41.13 C 30.09,41.4 27.43,40.46 23.79,38.23 C 27.93,40.23 31.39,40.87 34.24,40.15 C 33.59,40.72 32.87,41.02 32.04,41.13 Z" fill="rgb(65, 68, 140)"/>
<path d="M 29.29,17.175 C 17.05,19.86 10.75,22.83 10.06,26.19 C 9.78,27.57 10.46,29 12.08,30.43 A 1.24,1.24 0 0,1 13.7,29.68 L 13.92,29.79 C 15.58,26.26 20.8,22.34 29.52,18.17 C 29.34,17.87 29.26,17.53 29.3,17.19 Z M 11.97,29.39 C 10.93,28.33 10.53,27.31 10.71,26.33 C 11.11,24.3 14.13,22.31 19.68,20.46 C 15.25,22.38 12.66,24.46 11.9,26.63 C 11.65,27.53 11.65,28.48 11.97,29.38 Z M 12.59,26.89 C 13.16,25.13 15.14,23.43 18.53,21.78 C 18.96,21.55 19.43,21.36 19.9,21.18 C 15.29,23.7 12.91,26.48 12.77,29.49 A 3.3,3.3 0 0,1 12.59,26.89 Z M 13.45,29.19 C 13.85,25.54 17.95,22.23 25.7,19.29 C 19.07,22.79 15.04,26.07 13.45,29.19 Z" fill="rgb(89, 149, 126)"/>
<path d="M 43.09,16.645 C 41.44,14.48 37.66,14.44 31.53,16.59 A 1.33,1.33 0 0,1 31.21,18.47 C 35.1,22.46 36.47,29 35.24,37.89 C 35.42,37.85 35.64,37.89 35.82,37.96 C 36.04,38.04 36.22,38.19 36.36,38.38 C 43.24,26.82 45.44,19.71 43.1,16.66 Z M 31.9,18.13 A 8.26,8.26 0 0,1 36.32,22.08 C 37.87,25.13 37.84,29.68 36.22,35.59 C 36.86,27.8 35.42,21.97 31.89,18.13 Z M 37.19,34.53 C 38.52,29.04 38.45,24.75 36.94,21.78 A 8.32,8.32 0 0,0 33.51,18.17 C 36.04,18.81 37.73,19.97 38.63,21.7 C 40.03,24.38 39.57,28.59 37.19,34.54 Z M 38.99,31.56 C 40.39,27.05 40.47,23.74 39.21,21.33 C 38.16,19.37 36.25,18.05 33.37,17.38 C 36.9,17.26 39.27,18.09 40.39,19.86 C 41.8,22.16 41.33,26.06 38.99,31.56 Z M 40.97,28.18 C 42.2,24.3 42.16,21.44 40.94,19.48 C 39.67,17.48 37.19,16.55 33.44,16.66 C 38.2,15.23 41.26,15.38 42.56,17.07 C 43.96,18.92 43.42,22.64 40.97,28.17 Z" fill="rgb(214, 159, 70)"/>
<path d="M 30.509999999999998,17.965 A 0.6,0.6 0 0,0 31.1,17.38 C 31.1,17.04 30.84,16.78 30.52,16.78 A 0.59,0.59 0 0,0 29.95,17.38 C 29.95,17.71 30.21,17.98 30.52,17.98 Z M 13.27,31.53 A 0.6,0.6 0 0,0 13.85,30.93 C 13.85,30.59 13.59,30.33 13.27,30.33 A 0.59,0.59 0 0,0 12.69,30.93 C 12.69,31.26 12.95,31.53 13.27,31.53 Z M 35.39,39.8 C 35.71,39.8 35.96,39.54 35.96,39.2 C 35.96,38.87 35.71,38.6 35.39,38.6 A 0.59,0.59 0 0,0 34.81,39.2 C 34.81,39.54 35.07,39.8 35.39,39.8 Z" fill="rgb(28, 36, 43)"/>
</svg>
