<?xml version="1.0" encoding="UTF-8"?>
<!-- generated by Finnhub -->
<svg viewBox="0 0 55.5 55.5" xmlns="http://www.w3.org/2000/svg">
<path d="M 0,0 H 55.5 V 55.5 H 0 Z" fill="rgb(239, 242, 248)"/>
<path d="M 23.54,35.415 L 11.17,28.3 H 27.68 L 23.55,35.43 Z" fill="rgb(253, 190, 16)"/>
<path d="M 19.27,42.745 L 11.01,28.7 L 23.33,35.69 L 19.28,42.76 Z" fill="rgb(249, 205, 2)"/>
<path d="M 35.6,42.985 H 19.64 L 23.66,36 L 35.61,43 Z" fill="rgb(1, 177, 234)"/>
<path d="M 36.09,42.705 L 23.97,35.72 L 28.07,28.48 L 36.09,42.72 Z" fill="rgb(1, 134, 178)"/>
<path d="M 36.54,28.285 H 28.55 L 36.55,42.47 V 28.3 Z" fill="rgb(0, 100, 138)"/>
<path d="M 36.99,28.285 H 45 L 37,42.47 V 28.3 Z" fill="rgb(0, 174, 237)"/>
<path d="M 19.31,13.165 A 1844.7,1844.7 0 0,1 11,27.35 L 23.35,20.28 L 19.32,13.18 Z" fill="rgb(254, 204, 2)"/>
<path d="M 23.729999999999997,20.015 L 19.72,13 H 35.72 L 23.74,20.03 Z" fill="rgb(1, 151, 72)"/>
<path d="M 27.759999999999998,27.685 H 11.03 L 23.61,20.45 L 27.77,27.7 Z" fill="rgb(254, 230, 2)"/>
<path d="M 36.99,27.685 H 45 L 37,13.52 V 27.7 Z" fill="rgb(1, 151, 74)"/>
<path d="M 36.54,27.685 H 28.55 L 36.55,13.52 V 27.7 Z" fill="rgb(1, 131, 69)"/>
<path d="M 28.069999999999997,27.585 L 24,20.36 L 36.18,13.24 L 28.08,27.58 Z" fill="rgb(70, 172, 73)"/>
</svg>
