<?xml version="1.0" encoding="UTF-8"?>
<!-- generated by Finnhub -->
<svg viewBox="0 0 55.5 55.5" xmlns="http://www.w3.org/2000/svg">
<path d="M 0,0 H 55.5 V 55.5 H 0 Z" fill="rgb(239, 242, 248)"/>
<path d="M 31.22,37.485 C 30.29,36.52 29.2,35.7 28.15,34.84 C 25.6,32.75 23.01,30.71 20.7,28.34 A 21.75,21.75 0 0,1 17.75,24.74 A 4.01,4.01 0 0,1 17.11,21.62 L 17.05,21.49 C 15.02,22.69 13.2,24.03 12.89,26.58 C 12.79,27.41 12.96,28.21 13.25,28.98 C 14.05,31.08 15.51,32.68 17.15,34.22 C 16.45,31.69 17.31,29.58 18.89,27.59 L 20.12,28.9 L 19.65,29.63 A 4.98,4.98 0 0,0 19.77,35.43 C 20.64,36.74 21.79,37.79 23.02,38.75 C 25.18,40.42 27.43,41.94 30.07,42.81 C 30.9,43.08 31.76,43.27 32.65,43.21 C 33.92,43.14 34.4,42.44 34.03,41.25 C 33.85,40.69 33.53,40.19 33.24,39.67 A 0.8,0.8 0 0,1 33.38,39.59 L 35.01,39.09 C 35.76,40.36 36.27,41.67 35.73,43.13 C 35.3,44.32 34.28,44.79 33.08,44.95 A 8.6,8.6 0 0,1 29.06,44.35 A 24.69,24.69 0 0,1 22.46,40.59 A 66.53,66.53 0 0,1 14.15,33.42 A 12.58,12.58 0 0,1 11.51,29.3 C 10.51,26.7 10.98,24.41 12.99,22.43 A 19.74,19.74 0 0,1 19.06,18.53 C 19.76,18.23 20.49,17.98 21.2,17.7 L 23.29,17.04 L 23.83,16.93 A 20,20 0 0,1 29.25,16.33 C 29.87,16.35 30.47,16.43 31.04,16.69 C 31.96,17.13 32.27,17.96 31.86,18.89 C 31.64,19.35 31.33,19.77 30.96,20.12 C 30.3,20.79 29.54,21.32 28.79,21.89 A 5.59,5.59 0 0,1 27.33,20.69 C 28.31,19.97 29.38,19.33 30.13,18.31 C 29.98,18.21 29.8,18.15 29.61,18.15 C 28.27,17.98 26.94,18.17 25.61,18.35 C 23.83,18.59 22.08,19 20.5,19.91 C 18.8,20.9 18.45,22.21 19.42,23.91 A 15.4,15.4 0 0,0 21.74,26.83 C 23.89,29.09 26.32,31.04 28.74,33 L 30.37,34.32 C 31.42,35.15 32.41,36.04 33.34,36.99 A 6.4,6.4 0 0,1 31.24,37.5 Z" fill="rgb(43, 105, 169)"/>
<path d="M 23.279999999999998,17.025 L 21.2,17.7 C 21.46,17.56 21.3,17.41 21.2,17.26 C 20.79,16.62 20.41,15.96 20.22,15.22 C 19.57,12.74 20.9,11.02 23.52,11 A 11.4,11.4 0 0,1 28.42,12.25 A 34.54,34.54 0 0,1 35.24,16.71 A 73.95,73.95 0 0,1 40.82,21.51 A 14.65,14.65 0 0,1 44.44,26.54 C 45.55,29.32 45.01,31.72 42.81,33.77 A 20.56,20.56 0 0,1 36.48,37.67 A 24.71,24.71 0 0,1 28.01,39.67 C 27.07,39.72 26.13,39.73 25.23,39.42 C 24.04,39.02 23.63,38 24.23,36.92 C 24.78,35.95 25.66,35.29 26.57,34.58 L 28,35.75 C 27.26,36.39 26.42,36.86 25.86,37.76 C 27.73,38.04 29.48,37.83 31.23,37.5 A 6.4,6.4 0 0,0 33.34,36.99 C 34.36,36.69 35.34,36.29 36.17,35.62 A 2.3,2.3 0 0,0 36.96,32.94 A 5.24,5.24 0 0,0 36.33,31.68 C 35.15,29.93 33.6,28.5 32.06,27.08 C 29.72,24.91 27.18,22.98 24.73,20.95 C 24.23,20.55 23.75,20.12 23.33,19.65 C 24.01,19.41 24.72,19.26 25.44,19.19 L 27.33,20.69 C 27.75,21.17 28.24,21.57 28.79,21.89 L 30.36,23.22 C 32.83,25.28 35.28,27.37 37.29,29.91 A 6.98,6.98 0 0,1 38.93,33.01 C 39.02,33.49 38.91,33.98 38.89,34.52 A 9.58,9.58 0 0,0 42.09,31.95 A 4.74,4.74 0 0,0 42.98,27.79 A 10.58,10.58 0 0,0 40.47,23.41 C 39.97,22.79 39.39,22.22 38.77,21.71 C 39.55,24.33 38.7,26.44 37.11,28.41 L 35.89,27.09 L 36.36,26.36 C 36.83,25.58 37.16,24.76 37.21,23.85 C 37.31,22.16 36.56,20.79 35.47,19.59 A 25.25,25.25 0 0,0 27.59,13.85 A 9,9 0 0,0 23.49,12.78 C 22.09,12.81 21.57,13.55 22.01,14.85 C 22.28,15.67 22.81,16.35 23.29,17.05 Z" fill="rgb(93, 180, 221)"/>
<path d="M 28.729999999999997,32.985 C 29,32.97 29.18,32.78 29.38,32.65 C 30.73,31.71 32.06,30.74 33.32,29.68 C 33.37,29.64 33.43,29.6 33.5,29.57 C 33.95,29.93 34.29,30.39 34.69,30.85 C 34.06,31.44 33.39,31.98 32.69,32.49 C 32.02,32.99 31.33,33.46 30.65,33.96 C 30.53,34.05 30.33,34.1 30.37,34.32 L 28.74,33 Z" fill="rgb(93, 180, 221)"/>
<path d="M 22.509999999999998,26.435 C 22.08,26.05 21.68,25.6 21.32,25.13 A 40.61,40.61 0 0,1 25.05,22.27 L 26.48,23.42 C 25.12,24.42 23.78,25.36 22.52,26.45 Z" fill="rgb(43, 105, 169)"/>
</svg>
