<?xml version="1.0" encoding="UTF-8"?>
<!-- generated by Finnhub -->
<svg viewBox="0 0 55.5 55.5" xmlns="http://www.w3.org/2000/svg">
<path d="M 0,0 H 55.5 V 55.5 H 0 Z" fill="rgb(239, 242, 248)"/>
<path d="M 51.99,30.535 A 1.43,1.43 0 0,1 51.14,31.87 C 50.84,32.01 50.47,32.08 50.02,32.08 H 49 V 34 H 48 V 29 H 50.02 C 50.44,29 50.81,29.07 51.1,29.2 A 1.43,1.43 0 0,1 52,30.55 Z M 49.97,31.27 C 50.27,31.27 50.5,31.21 50.65,31.08 C 50.8,30.96 50.87,30.78 50.87,30.55 C 50.87,30.06 50.57,29.82 49.97,29.82 H 49 V 31.27 H 49.97 Z M 47,29 V 34 H 46 V 29 H 47 Z M 45,29 V 34 H 44 V 31.78 H 42 V 34 H 41 V 29 H 42 V 31 H 44 V 29 H 45 Z M 38.55,34 C 38.16,34 37.81,33.94 37.5,33.83 A 1.7,1.7 0 0,1 36.78,33.33 A 1.22,1.22 0 0,1 36.5,32.55 H 37.69 C 37.7,32.75 37.79,32.9 37.92,33.02 C 38.07,33.14 38.27,33.2 38.52,33.2 C 38.78,33.2 38.98,33.14 39.13,33.03 A 0.52,0.52 0 0,0 39.35,32.6 A 0.47,0.47 0 0,0 39.2,32.24 C 39.1,32.15 38.98,32.08 38.82,32.03 A 5.7,5.7 0 0,0 38.21,31.85 C 37.85,31.75 37.56,31.66 37.33,31.57 A 1.6,1.6 0 0,1 36.75,31.17 A 1.1,1.1 0 0,1 36.52,30.42 C 36.52,30.13 36.6,29.88 36.76,29.66 C 36.92,29.45 37.16,29.29 37.45,29.17 C 37.75,29.06 38.08,29 38.46,29 C 39.03,29 39.49,29.12 39.84,29.37 C 40.2,29.61 40.4,29.95 40.44,30.39 H 39.22 A 0.53,0.53 0 0,0 38.97,29.98 A 0.96,0.96 0 0,0 38.38,29.81 A 0.85,0.85 0 0,0 37.86,29.96 C 37.73,30.06 37.67,30.2 37.67,30.38 C 37.67,30.52 37.72,30.62 37.81,30.71 C 37.91,30.8 38.03,30.87 38.18,30.92 L 38.79,31.1 C 39.15,31.2 39.44,31.3 39.67,31.38 C 39.9,31.48 40.09,31.62 40.25,31.8 C 40.42,32 40.5,32.24 40.5,32.54 C 40.5,32.8 40.42,33.04 40.27,33.27 C 40.12,33.49 39.89,33.67 39.6,33.8 C 39.3,33.93 38.95,34 38.55,34 Z M 34.76,34 L 33.58,32.05 H 33 V 34 H 32 V 29 H 34 C 34.42,29 34.77,29.07 35.07,29.2 A 1.44,1.44 0 0,1 35.63,31.43 C 35.43,31.69 35.13,31.87 34.72,31.97 L 36,34 H 34.76 Z M 33,31.3 H 33.97 C 34.27,31.3 34.47,31.23 34.62,31.1 A 0.72,0.72 0 0,0 34.84,30.55 C 34.84,30.33 34.76,30.15 34.62,30.02 C 34.48,29.9 34.26,29.83 33.97,29.83 H 33 V 31.3 Z M 29,29.82 V 31.07 H 30.78 V 31.87 H 29 V 33.18 H 31 V 34 H 28 V 29 H 31 V 29.82 H 29 Z M 27,34 H 26.06 L 24,30.57 V 34 H 23 V 29 H 23.94 L 26,32.43 V 29 H 27 V 34 Z M 22,29 V 29.8 H 20.5 V 34 H 19.5 V 29.8 H 18 V 29 H 22 Z M 16.76,34 L 15.58,32.05 H 15 V 34 H 14 V 29 H 16 C 16.42,29 16.77,29.07 17.07,29.2 A 1.44,1.44 0 0,1 17.63,31.43 C 17.43,31.69 17.13,31.87 16.72,31.97 L 18,34 H 16.76 Z M 15,31.3 H 15.97 C 16.26,31.3 16.47,31.23 16.62,31.1 A 0.72,0.72 0 0,0 16.84,30.55 C 16.84,30.33 16.76,30.15 16.62,30.02 C 16.48,29.9 16.26,29.83 15.97,29.83 H 15 V 31.3 Z M 11.54,33.05 H 9.45 L 9.11,34 H 8 L 9.89,29 H 11.11 L 13,34 H 11.89 L 11.54,33.05 Z M 11.26,32.25 L 10.5,30.15 L 9.74,32.25 H 11.26 Z M 8,30.55 A 1.43,1.43 0 0,1 7.14,31.87 C 6.84,32.01 6.47,32.08 6.02,32.08 H 5 V 34 H 4 V 29 H 6.02 C 6.44,29 6.81,29.07 7.1,29.2 A 1.43,1.43 0 0,1 8,30.55 Z M 5.97,31.27 C 6.27,31.27 6.5,31.21 6.65,31.08 C 6.8,30.96 6.87,30.78 6.87,30.55 C 6.87,30.06 6.57,29.82 5.97,29.82 H 5 V 31.27 H 5.97 Z M 46,22 V 22.8 H 44.55 V 27 H 43.5 V 22.8 H 42 V 22 H 46 Z M 40.05,27 C 39.66,27 39.31,26.94 39,26.83 A 1.7,1.7 0 0,1 38.28,26.33 A 1.22,1.22 0 0,1 38,25.55 H 39.19 C 39.2,25.75 39.29,25.9 39.42,26.02 C 39.57,26.14 39.77,26.2 40.02,26.2 C 40.28,26.2 40.48,26.14 40.63,26.03 A 0.52,0.52 0 0,0 40.85,25.6 A 0.47,0.47 0 0,0 40.7,25.24 C 40.6,25.15 40.48,25.08 40.32,25.03 A 5.7,5.7 0 0,0 39.71,24.85 C 39.35,24.75 39.06,24.66 38.83,24.57 A 1.6,1.6 0 0,1 38.25,24.17 A 1.1,1.1 0 0,1 38.02,23.42 C 38.02,23.13 38.1,22.88 38.26,22.66 C 38.42,22.45 38.66,22.29 38.95,22.17 C 39.25,22.06 39.58,22 39.96,22 C 40.53,22 40.99,22.12 41.34,22.37 C 41.7,22.61 41.9,22.95 41.94,23.39 H 40.72 A 0.53,0.53 0 0,0 40.47,22.98 A 0.96,0.96 0 0,0 39.88,22.81 A 0.85,0.85 0 0,0 39.36,22.96 C 39.23,23.06 39.17,23.2 39.17,23.38 C 39.17,23.52 39.22,23.62 39.31,23.71 C 39.41,23.8 39.53,23.87 39.68,23.92 L 40.29,24.1 C 40.65,24.2 40.94,24.3 41.17,24.38 C 41.4,24.48 41.59,24.62 41.75,24.8 C 41.92,25 42,25.24 42,25.54 C 42,25.8 41.92,26.04 41.77,26.27 C 41.62,26.49 41.39,26.67 41.1,26.8 C 40.8,26.93 40.45,27 40.05,27 Z M 35,22.82 V 24.07 H 36.78 V 24.87 H 35 V 26.18 H 37 V 27 H 34 V 22 H 37 V 22.82 H 35 Z M 33,22 L 31.8,27 H 30.8 L 30,23.44 L 29.16,26.99 L 28.16,27 L 27,22 H 27.92 L 28.67,25.88 L 29.54,22 H 30.5 L 31.32,25.86 L 32.08,22 H 33 Z M 26,27 H 25.06 L 23,23.57 V 27 H 22 V 22 H 22.94 L 25,25.43 V 22 H 26 V 27 Z M 18.5,27 A 2.53,2.53 0 0,1 16.34,25.79 A 2.51,2.51 0 0,1 16,24.49 A 2.46,2.46 0 0,1 18.5,22 C 18.96,22 19.38,22.1 19.76,22.32 S 20.45,22.83 20.66,23.22 C 20.89,23.59 21,24.02 21,24.5 S 20.89,25.4 20.66,25.79 C 20.45,26.17 20.14,26.46 19.76,26.68 C 19.38,26.89 18.96,27 18.5,27 Z M 18.5,26.13 A 1.39,1.39 0 0,0 19.8,25.36 C 19.93,25.11 20,24.82 20,24.5 C 20,24.17 19.93,23.89 19.8,23.64 C 19.68,23.4 19.5,23.21 19.28,23.08 C 19.06,22.95 18.8,22.88 18.5,22.88 C 18.21,22.88 17.95,22.95 17.72,23.08 C 17.5,23.21 17.32,23.4 17.2,23.64 C 17.07,23.89 17,24.17 17,24.5 C 17,24.82 17.07,25.11 17.2,25.36 C 17.32,25.6 17.5,25.79 17.72,25.93 C 17.95,26.06 18.21,26.13 18.5,26.13 Z M 10,24.5 A 2.38,2.38 0 0,1 11.27,22.32 C 11.67,22.11 12.11,22 12.6,22 C 13.17,22 13.67,22.14 14.1,22.42 C 14.53,22.7 14.83,23.09 15,23.58 H 13.82 C 13.7,23.35 13.54,23.18 13.32,23.06 A 1.48,1.48 0 0,0 12.59,22.88 C 12.29,22.88 12.02,22.95 11.79,23.08 A 1.4,1.4 0 0,0 11.25,23.65 C 11.12,23.89 11.05,24.18 11.05,24.5 C 11.05,24.83 11.12,25.11 11.25,25.36 C 11.38,25.6 11.55,25.79 11.79,25.93 C 12.02,26.06 12.29,26.13 12.59,26.13 C 12.87,26.13 13.11,26.07 13.32,25.95 C 13.54,25.83 13.7,25.65 13.82,25.42 H 15 C 14.83,25.92 14.53,26.31 14.1,26.59 A 2.7,2.7 0 0,1 12.6,27 C 12.1,27 11.66,26.9 11.27,26.68 C 10.87,26.47 10.57,26.18 10.34,25.79 C 10.11,25.42 10,24.99 10,24.5 Z"/>
</svg>
