<?xml version="1.0" encoding="UTF-8"?>
<!-- generated by Finnhub -->
<svg viewBox="0 0 55.5 55.5" xmlns="http://www.w3.org/2000/svg">
<path d="M 0,0 H 55.5 V 55.5 H 0 Z" fill="rgb(239, 242, 248)"/>
<path d="M 28.319999999999997,11.985 H 14 A 17.17,17.17 0 0,0 17.6,15.34 C 21.52,18.18 25.64,19.72 30.73,22.5 C 34.18,24.41 37.03,25.96 39.12,28.3 A 7.37,7.37 0 0,1 41,32.83 V 25.68 C 41,23.7 41,17.9 28.33,12 Z" fill="url(#a)"/>
<path d="M 39.14,30.384999999999998 L 38.58,31.02 S 35.72,34.06 30.12,37.02 A 98.88,98.88 0 0,1 26,38.95 V 48 C 31.14,45.46 35.22,43.36 37.74,39.42 C 39.04,37.54 39.76,35.33 39.81,33.06 V 32.69 A 6.02,6.02 0 0,0 39.15,30.39 Z" fill="rgb(17, 59, 136)"/>
<path d="M 30.18,23.974999999999998 A 131.8,131.8 0 0,0 25.17,21.15 L 25.16,21.14 L 24.9,21 H 20.38 C 20.01,21 19.66,21.16 19.4,21.44 C 19.15,21.72 19,22.1 19,22.5 S 19.15,23.28 19.4,23.56 C 19.66,23.84 20.01,24 20.38,24 H 30.2 L 30.19,23.99 Z M 38.27,29.02 C 37.83,28.47 37.35,27.97 36.84,27.5 H 20.38 C 20.01,27.5 19.66,27.66 19.4,27.94 C 19.15,28.22 19,28.6 19,29 S 19.15,29.78 19.4,30.06 C 19.66,30.34 20.01,30.5 20.38,30.5 H 39.18 A 7.08,7.08 0 0,0 38.28,29.02 Z M 20.41,34 H 35.59 A 1.33,1.33 0 0,1 36.59,34.44 A 1.51,1.51 0 0,1 37,35.5 A 1.58,1.58 0 0,1 36.59,36.56 A 1.4,1.4 0 0,1 35.59,37 H 20.41 C 20.03,37 19.68,36.84 19.41,36.56 A 1.55,1.55 0 0,1 19,35.5 C 19,35.1 19.15,34.72 19.41,34.44 C 19.68,34.16 20.04,34 20.41,34 Z" fill="rgb(245, 157, 3)"/>
<defs>
<linearGradient id="a" x1="41.83" x2="14.84" y1="22.42" y2="22.42" gradientUnits="userSpaceOnUse">
<stop stop-color="rgb(69, 140, 202)" offset="0"/>
<stop stop-color="rgb(17, 59, 136)" offset=".5"/>
</linearGradient>
</defs>
</svg>
