<!-- by Finnhub --><svg xmlns="http://www.w3.org/2000/svg" width="56" height="56" viewBox="0 0 56 56"><path fill="#F0F3FA" d="M0 0h56v56H0z"/><path d="M16.12 22.21c-.67-3.82 1.14-12.18 12.15-13.17 1.5-.14 4 .07 6.45.99L33 16.98a13.74 13.74 0 0 0-11.64-1.34c-1.16.41-4.24 2.23-5.23 6.57Zm16.64-4.4c-.54-.55-2.58-1.72-6.36-1.95-4.72-.28-7.18 1.8-8.48 4.85 1.09-.67 4.05-1.9 7.19-1.46 3.8.52 5.42 1.86 6.57 2.8l.11.1.97-4.34Zm.79-.4 2.04-7.13L39 11.54l-2.85 6.85-2.6-.99Zm-.16.62-1.06 4c-.07.28-.03.89.62 1.08.82.24 1.38.09 1.57-.36l1.5-3.73-2.63-.99Z" fill="url(#alkf31gb1)"/><path fill-rule="evenodd" d="M18.42 36.35a2.2 2.2 0 0 1-1.47-2.08c-.05-1.34-.32-4.13-.45-5.37-.52-2.5-.03-7.72 5.98-8.5 2.13-.2 6.87.1 8.8 2.7.05.08.11.23.2.42.23.55.59 1.4 1.18 1.49.99.14 1.9-.43 2.34-.81a27.26 27.26 0 0 1 1.45 6.2c.12 2.06.05 3.11 0 3.38l-.24.23c-.2 2.97-.73 9.53-1.36 11.98-.2.41-.62 1-.6 0l.21-10.94 1.24-1.27.14-1.79-2.28 1.46-.15 4.14.15 1.46-.71 2.34c-.08.2-.31.5-.67 0-.36-.5-1.13-1.5-1.47-1.94l.29-1.86v-4.23l-5.98-2.06.48 2.33 4.28 2.05.45 11.95c.01.22-.08.57-.62.22l-8.7-9.45c.03-1.91-.21-5.73-1.48-5.74-1.26-.02-1.2 2.45-1 3.69Zm14.12-9.86c.54-.03.94.16 1.08.26l-.19.33c-1.08-.4-1.31.07-1.31.16v.02c-.01.1-.03.24.73.63.84.43 1.32 1.02 1.37 1.76a1.5 1.5 0 0 1-1.51 1.55c-.9-.01-1.6-.54-1.65-1.55-.04-.8.69-1.4 1.06-1.6-.28-.13-.64-.44-.64-.76s.37-.76 1.06-.8Zm-.88 3.13c-.02-.67.57-1.17.87-1.33.65.33 1.06.74 1.1 1.39.05.65-.38 1.09-.88 1.1-.5 0-1.07-.33-1.1-1.16Z" fill="url(#blkf31gb1)"/><defs><linearGradient id="alkf31gb1" x1="36.6" y1="17.01" x2="16" y2="17.11" gradientUnits="userSpaceOnUse"><stop stop-color="#F9C54B"/><stop offset="1" stop-color="#F6B723"/></linearGradient><linearGradient id="blkf31gb1" x1="36.08" y1="34.17" x2="16.34" y2="34.17" gradientUnits="userSpaceOnUse"><stop stop-color="#1D541A"/><stop offset="1" stop-color="#0D3908"/></linearGradient></defs></svg>