<?xml version="1.0" encoding="UTF-8"?>
<!-- generated by Finnhub -->
<svg viewBox="0 0 55.5 55.5" xmlns="http://www.w3.org/2000/svg">
<path d="M0 0h55.5v55.5H0z" fill="rgb(239, 242, 248)"/>
<path d="M31 27v12h-5V27c0-6 5.33-10 11-10 6.07 0 11 3.7 11 10v12h-5V27c0-3.5-3-5-6-5-2.92 0-6 1.5-6 5Z" fill="rgb(154, 13, 31)"/>
<path d="M13 22h7c3.5 0 5 3.08 5 6 0 3-1.5 6-5 6h-7V22Zm0-5h7c6 0 10 5.33 10 11 0 6.07-3.7 11-10 11H8V17h5Z" fill="rgb(0, 54, 115)" fill-rule="evenodd"/>
<path d="M27.94 21.27A11.92 11.92 0 0 1 30 28c0 3.76-1.42 7.08-4 9.07V27a9.3 9.3 0 0 1 1.94-5.73Z" fill="rgb(56, 3, 82)"/>
</svg>
