<?xml version="1.0" encoding="UTF-8"?>
<!-- generated by Finnhub -->
<svg viewBox="0 0 55.5 55.5" xmlns="http://www.w3.org/2000/svg">
<path d="M 0,0 H 55.5 V 55.5 H 0 Z" fill="rgb(239, 242, 248)"/>
<path d="M 26.99,11.985 H 29 V 18 H 27 Z" fill="rgb(233, 96, 102)"/>
<path d="M 18.99,14.325 L 20.73,13.34 L 23.73,18.54 L 22,19.54 L 19,14.34 Z M 19,41.4 L 20.73,42.4 L 23.73,37.2 L 22,36.2 L 19,41.4 Z" fill="rgb(3, 174, 159)"/>
<path d="M 37.190000000000005,42.185 L 35.46,43.2 L 32.46,38 L 34.2,37 L 37.2,42.2 Z" fill="rgb(237, 129, 85)"/>
<path d="M 36.72,13.985 L 35,13 L 32,18.2 L 33.73,19.2 L 36.73,14 Z" fill="rgb(233, 96, 102)"/>
<path d="M 12.99,20.715 L 14,19 L 19.2,22 L 18.2,23.73 L 13,20.73 Z" fill="rgb(3, 159, 140)"/>
<path d="M 12.99,34.985 L 14,36.73 L 19.2,33.73 L 18.2,32 L 13,35 Z" fill="rgb(203, 211, 2)"/>
<path d="M 42.72,34.985 L 41.73,36.73 L 36.53,33.73 L 37.53,32 L 42.73,35 Z" fill="rgb(234, 109, 89)"/>
<path d="M 11.99,26.985 H 18 V 29 H 12 Z" fill="rgb(133, 189, 71)"/>
<path d="M 43.99,26.985 H 38 V 29 H 44 Z" fill="rgb(233, 96, 102)"/>
<path d="M 26.99,37.985 H 29 V 44 H 27 Z" fill="rgb(236, 156, 62)"/>
<path d="M 26.99,20.985 H 23 V 23 H 33 V 21 H 29 V 20 H 27 V 21 Z" fill="rgb(233, 96, 102)"/>
<path d="M 21.99,25.985 V 24 H 32.5 C 33.92,24 34.5,23.5 35.5,23 L 40.5,19.5 L 42,21.5 L 37.5,24.5 C 36.3,25.3 34.67,25.83 34,26 V 29 C 34,30.6 32.67,31 32,31 H 25 C 23.4,31 23,29.67 23,29 V 26 H 22 Z M 25,34 A 1,1 0 1,1 23,34 C 23,33.45 24,32 24,32 S 25,33.45 25,34 Z M 28,34 A 1,1 0 1,1 26,34 C 26,33.45 27,32 27,32 S 28,33.45 28,34 Z M 31,34 A 1,1 0 1,1 29,34 C 29,33.45 30,32 30,32 S 31,33.45 31,34 Z M 34,34 A 1,1 0 1,1 32,34 C 32,33.45 33,32 33,32 S 34,33.45 34,34 Z" fill="rgb(233, 96, 102)"/>
</svg>
