<?xml version="1.0" encoding="UTF-8"?>
<!-- generated by Finnhub -->
<svg viewBox="0 0 55.5 55.5" xmlns="http://www.w3.org/2000/svg">
<path d="M 0,0 H 55.5 V 55.5 H 0 Z" fill="rgb(239, 242, 248)"/>
<ellipse cx="33.72" cy="24.05" rx="7.76" ry="7.89" fill="url(#a)"/>
<path d="M 40.34,19.785 A 7.29,7.29 0 0,0 39.92,19.2 A 3,3 0 0,1 39.54,18.84 A 2.37,2.37 0 0,0 39.24,18.54 A 8.62,8.62 0 0,0 38.76,18.2 A 3.12,3.12 0 0,1 38.38,17.89 A 15.37,15.37 0 0,0 37.08,17.15 A 8.35,8.35 0 0,0 35.68,16.67 C 35.48,16.64 35.32,16.61 35.21,16.57 A 3.1,3.1 0 0,0 34.62,16.49 C 34.25,16.47 33.73,16.48 33.06,16.5 L 32.5,16.58 L 31.94,16.68 C 31.77,16.71 31.61,16.75 31.44,16.81 L 30.97,16.98 A 0.32,0.32 0 0,0 30.85,17.06 C 30.84,17.06 30.83,17.08 30.85,17.1 L 30.88,17.15 C 30.99,17.22 31.11,17.23 31.25,17.18 L 31.45,17.04 C 31.54,16.98 31.63,16.94 31.72,16.92 C 31.8,16.91 31.89,16.92 32,16.96 C 32.22,17.05 32.48,17.1 32.77,17.1 C 32.96,17.11 33.23,17.1 33.58,17.07 C 33.75,17.05 33.95,16.98 34.19,16.86 C 34.29,16.81 34.4,16.8 34.51,16.84 C 34.58,16.87 34.69,16.93 34.83,17.03 H 34.84 L 35.12,17.24 A 6.66,6.66 0 0,0 35.95,17.77 A 0.6,0.6 0 0,1 36.07,17.87 C 36.15,17.97 36.17,18.06 36.12,18.17 C 36.09,18.23 36,18.26 35.85,18.24 L 35.74,18.22 A 1.43,1.43 0 0,0 35.45,18.18 C 35.34,18.18 35.25,18.22 35.18,18.28 C 35.12,18.33 35.11,18.4 35.14,18.49 C 35.15,18.55 35.19,18.63 35.26,18.73 L 35.49,18.97 C 35.55,19.03 35.66,19.12 35.82,19.23 L 36.04,19.4 C 36.07,19.42 36.09,19.42 36.11,19.39 C 36.2,19.22 36.31,19.14 36.41,19.15 C 36.43,19.15 36.45,19.15 36.46,19.17 C 36.53,19.25 36.58,19.35 36.6,19.47 C 36.6,19.53 36.6,19.64 36.58,19.79 L 36.56,19.87 A 0.8,0.8 0 0,0 36.59,20.17 L 36.63,20.47 C 36.63,20.51 36.62,20.55 36.58,20.59 L 36.41,20.76 A 0.06,0.06 0 0,0 36.41,20.83 C 36.41,20.85 36.43,20.87 36.46,20.87 L 36.82,20.89 C 36.87,20.89 36.89,20.92 36.9,20.96 C 36.9,21.06 36.9,21.14 36.88,21.21 C 36.84,21.3 36.78,21.35 36.71,21.36 L 36.48,21.41 C 36.42,21.42 36.38,21.45 36.36,21.48 A 0.28,0.28 0 0,0 36.31,21.65 C 36.31,21.71 36.36,21.75 36.42,21.79 C 36.52,21.83 36.62,21.89 36.7,21.97 L 36.8,22.12 C 36.87,22.2 36.95,22.2 37.03,22.13 A 0.53,0.53 0 0,0 37.18,21.91 A 0.65,0.65 0 0,0 37.18,21.63 A 2.32,2.32 0 0,1 37.17,21.21 A 0.99,0.99 0 0,1 37.28,20.81 C 37.32,20.76 37.38,20.71 37.48,20.71 A 0.5,0.5 0 0,0 37.74,20.6 A 0.06,0.06 0 0,1 37.78,20.58 C 37.86,20.59 37.93,20.63 38.01,20.68 L 38.2,20.88 L 38.24,20.93 C 38.28,20.97 38.34,21 38.44,21.03 C 38.49,21.03 38.52,21.02 38.53,20.97 L 38.55,20.9 C 38.59,20.7 38.65,20.56 38.71,20.5 C 38.81,20.4 38.89,20.3 38.98,20.16 C 39,20.13 39.03,20.12 39.07,20.14 C 39.29,20.27 39.53,20.39 39.79,20.51 C 39.85,20.53 39.92,20.58 40.02,20.65 L 40.07,20.68 A 0.6,0.6 0 0,1 40.17,20.76 C 40.34,20.95 40.49,21.07 40.61,21.14 C 40.68,21.18 40.74,21.17 40.78,21.13 C 40.81,21.1 40.82,21.05 40.81,20.98 V 20.71 A 5.37,5.37 0 0,0 40.35,19.81 Z M 38.49,20.1 A 0.43,0.43 0 0,0 38.6,19.96 L 38.72,19.76 C 38.75,19.71 38.75,19.66 38.71,19.6 A 0.66,0.66 0 0,0 38.57,19.47 C 38.37,19.32 38.19,19.31 38.03,19.44 A 0.27,0.27 0 0,0 37.93,19.61 C 37.93,19.68 37.93,19.73 37.98,19.78 L 38.32,20.09 C 38.38,20.14 38.44,20.14 38.49,20.09 Z M 31.51,22.14 C 31.62,22.2 31.74,22.19 31.86,22.09 C 31.92,21.98 31.9,21.89 31.81,21.83 L 31.42,21.53 A 0.08,0.08 0 0,1 31.39,21.46 C 31.4,21.26 31.49,21.08 31.65,20.95 C 31.77,20.85 31.88,20.87 31.98,20.99 C 32.03,21.05 32.06,21.12 32.08,21.19 C 32.09,21.25 32.1,21.33 32.08,21.43 C 32.08,21.54 32.14,21.61 32.26,21.63 C 32.52,21.65 32.66,21.53 32.69,21.27 V 21.22 A 12.2,12.2 0 0,0 32.09,20.31 C 31.94,20.1 31.76,19.95 31.56,19.86 C 31.4,19.79 31.29,19.81 31.23,19.9 A 0.63,0.63 0 0,0 31.16,20.17 A 7.6,7.6 0 0,0 31.13,20.5 C 31.12,20.69 31.03,20.8 30.84,20.84 A 0.6,0.6 0 0,1 30.61,20.85 C 30.52,20.84 30.47,20.79 30.44,20.72 V 20.69 A 0.89,0.89 0 0,1 30.4,20.29 L 30.43,20.1 L 30.49,19.79 C 30.53,19.67 30.58,19.58 30.65,19.5 C 30.68,19.47 30.71,19.47 30.74,19.5 C 30.84,19.6 30.94,19.65 31.05,19.66 C 31.13,19.66 31.17,19.65 31.2,19.6 L 31.4,19.22 C 31.44,19.15 31.5,19.11 31.58,19.1 C 31.65,19.09 31.7,19.11 31.72,19.17 C 31.75,19.23 31.76,19.29 31.74,19.35 L 31.73,19.37 L 31.57,19.5 A 0.1,0.1 0 0,0 31.53,19.58 C 31.53,19.62 31.53,19.64 31.56,19.67 C 31.66,19.75 31.79,19.79 31.98,19.79 C 32.18,19.79 32.29,19.73 32.34,19.63 A 0.27,0.27 0 0,0 32.34,19.41 A 0.91,0.91 0 0,0 31.91,18.92 A 1.8,1.8 0 0,0 31.54,18.81 A 2,2 0 0,1 31.18,18.69 C 31.08,18.65 31.03,18.59 31.02,18.5 A 3.3,3.3 0 0,1 30.99,17.95 A 0.6,0.6 0 0,0 30.89,17.61 C 30.84,17.54 30.8,17.5 30.77,17.49 A 0.9,0.9 0 0,0 30.3,17.5 L 29.82,17.64 A 1,1 0 0,0 29.52,17.8 A 0.89,0.89 0 0,0 29.36,17.96 A 0.28,0.28 0 0,0 29.32,18.16 C 29.32,18.2 29.34,18.23 29.37,18.26 L 29.45,18.29 C 29.55,18.33 29.61,18.38 29.63,18.43 C 29.66,18.52 29.65,18.59 29.61,18.64 A 2.11,2.11 0 0,1 29.16,19.02 L 28.85,19.24 C 28.51,19.47 28.23,19.74 27.99,20.03 C 27.72,20.35 27.53,20.69 27.39,21.06 C 27.24,21.49 27.15,21.95 27.13,22.44 C 27.12,22.59 27.13,22.71 27.15,22.8 C 27.18,22.9 27.2,23.02 27.22,23.16 C 27.22,23.17 27.23,23.18 27.25,23.18 H 27.27 V 22.74 A 1.36,1.36 0 0,1 27.31,22.34 A 0.8,0.8 0 0,1 27.39,22.1 C 27.44,22.03 27.51,22 27.62,22 C 27.68,21.99 27.71,22.02 27.72,22.08 C 27.73,22.27 27.7,22.55 27.61,22.91 L 27.56,23.12 C 27.51,23.37 27.52,23.62 27.6,23.85 C 27.65,23.96 27.71,24.06 27.79,24.15 C 27.84,24.21 27.93,24.31 28.06,24.43 L 28.13,24.49 C 28.18,24.55 28.23,24.64 28.25,24.79 C 28.3,25 28.4,25.21 28.55,25.39 C 28.84,25.72 29.18,25.96 29.57,26.09 C 29.6,26.11 29.65,26.14 29.72,26.21 C 29.76,26.25 29.78,26.3 29.78,26.36 A 0.8,0.8 0 0,1 29.7,26.69 C 29.67,26.76 29.6,26.85 29.51,26.96 A 20.29,20.29 0 0,0 29.34,27.33 C 29.51,27.7 29.76,28.01 30.1,28.27 C 30.24,28.37 30.37,28.43 30.5,28.44 C 30.64,28.44 30.77,28.47 30.88,28.5 C 31.05,28.55 31.13,28.66 31.14,28.84 V 28.94 C 31.14,29.13 31.15,29.27 31.17,29.34 C 31.21,29.48 31.3,29.59 31.42,29.68 C 31.54,29.75 31.68,29.82 31.86,29.89 H 31.92 C 31.93,29.89 31.95,29.87 31.95,29.85 L 31.98,29.72 L 32.05,29.48 C 32.09,29.4 32.15,29.34 32.22,29.28 C 32.62,29.03 33.15,28.76 33.79,28.47 A 3.93,3.93 0 0,0 34.44,28.07 A 0.68,0.68 0 0,0 34.47,27.62 A 1,1 0 0,0 34.27,27.22 A 1.92,1.92 0 0,0 34.04,26.98 A 4.73,4.73 0 0,0 32.41,26.41 C 31.78,26.28 31.15,26.18 30.51,26.1 C 30.16,26.05 29.89,26 29.69,25.93 A 3.07,3.07 0 0,1 29.09,25.61 A 1.2,1.2 0 0,1 28.63,25.16 A 0.54,0.54 0 0,1 28.63,24.66 A 5,5 0 0,0 28.8,24.28 C 28.82,24.22 28.83,24.18 28.8,24.14 A 0.1,0.1 0 0,0 28.72,24.09 C 28.69,24.09 28.66,24.09 28.62,24.12 A 1,1 0 0,0 28.52,24.22 A 0.14,0.14 0 0,1 28.42,24.27 A 0.2,0.2 0 0,1 28.32,24.26 A 0.7,0.7 0 0,1 27.96,23.82 A 0.39,0.39 0 0,1 27.99,23.57 A 0.72,0.72 0 0,1 28.14,23.35 C 28.28,23.21 28.42,23.1 28.58,23.02 C 28.78,22.92 28.96,22.89 29.1,22.95 C 29.15,22.97 29.21,23.03 29.27,23.13 C 29.33,23.21 29.36,23.29 29.37,23.35 L 29.39,23.49 C 29.41,23.65 29.45,23.76 29.49,23.81 C 29.5,23.82 29.52,23.83 29.53,23.82 C 29.54,23.82 29.55,23.82 29.56,23.8 A 0.54,0.54 0 0,0 29.59,23.61 C 29.59,23.53 29.59,23.37 29.56,23.13 C 29.56,23.1 29.57,23.07 29.59,23.05 A 0.12,0.12 0 0,1 29.66,23 C 30.1,22.92 30.42,22.8 30.63,22.61 C 30.69,22.56 30.77,22.46 30.87,22.31 L 31.09,21.99 C 31.13,21.93 31.19,21.91 31.27,21.93 C 31.31,21.93 31.36,21.97 31.4,22.03 C 31.44,22.09 31.48,22.13 31.5,22.13 Z M 32.35,17.88 C 32.17,18 32.04,18.07 31.96,18.08 C 31.89,18.08 31.78,18.05 31.65,17.97 A 0.47,0.47 0 0,0 31.48,17.93 H 31.45 C 31.43,17.92 31.41,17.93 31.4,17.95 A 0.06,0.06 0 0,0 31.39,18.01 C 31.41,18.07 31.44,18.12 31.47,18.16 L 31.6,18.28 C 31.7,18.36 31.77,18.48 31.8,18.61 C 31.8,18.63 31.81,18.64 31.83,18.65 C 31.88,18.69 31.93,18.69 31.99,18.67 A 0.25,0.25 0 0,0 32.11,18.54 C 32.19,18.36 32.33,18.21 32.51,18.08 C 32.57,18.04 32.58,18 32.56,17.95 A 0.26,0.26 0 0,0 32.54,17.92 C 32.48,17.84 32.42,17.83 32.34,17.88 Z M 33,19.08 A 0.11,0.11 0 0,0 32.93,18.99 A 7.65,7.65 0 0,0 32.83,18.94 C 32.61,18.84 32.48,18.76 32.43,18.69 C 32.4,18.64 32.41,18.59 32.45,18.54 C 32.49,18.5 32.58,18.44 32.72,18.37 L 32.93,18.25 C 33.04,18.17 33.14,18.08 33.23,17.98 C 33.27,17.94 33.31,17.93 33.35,17.98 A 2,2 0 0,1 33.45,18.18 L 33.61,18.44 C 33.72,18.56 33.85,18.68 34.01,18.8 L 34.05,18.87 C 34.05,18.9 34.05,18.93 34.03,18.96 C 34.01,19 33.92,19.07 33.77,19.18 L 33.61,19.28 A 0.32,0.32 0 0,0 33.49,19.5 L 33.44,19.77 A 0.45,0.45 0 0,1 33.34,19.98 A 0.11,0.11 0 0,1 33.24,20.02 A 0.11,0.11 0 0,1 33.16,19.98 A 3.1,3.1 0 0,0 32.76,19.59 A 0.1,0.1 0 0,1 32.72,19.52 C 32.72,19.49 32.72,19.47 32.74,19.45 L 32.96,19.19 A 0.13,0.13 0 0,0 33,19.08 Z M 34.35,19.68 L 34.75,19.36 C 34.78,19.34 34.78,19.31 34.77,19.28 C 34.76,19.25 34.73,19.23 34.7,19.24 L 34.49,19.26 L 34.46,19.27 L 34.13,19.47 A 0.07,0.07 0 0,0 34.1,19.54 C 34.1,19.56 34.1,19.58 34.13,19.6 L 34.28,19.68 C 34.3,19.69 34.33,19.69 34.35,19.68 Z M 35.91,20.38 A 0.08,0.08 0 0,1 35.84,20.38 L 35.68,20.33 H 35.65 C 35.64,20.34 35.63,20.35 35.64,20.36 C 35.65,20.47 35.73,20.54 35.86,20.57 A 1,1 0 0,0 36.11,20.57 C 36.22,20.57 36.29,20.55 36.32,20.51 C 36.36,20.46 36.38,20.41 36.37,20.35 A 0.28,0.28 0 0,0 36.31,20.18 C 36.23,20.08 36.11,19.98 35.97,19.91 A 4.88,4.88 0 0,0 35.62,19.74 C 35.53,19.7 35.48,19.72 35.45,19.79 C 35.43,19.86 35.45,19.92 35.51,19.97 C 35.53,19.98 35.58,19.99 35.67,19.99 C 35.75,19.99 35.82,20.01 35.89,20.04 L 35.93,20.08 C 35.95,20.13 35.96,20.21 35.95,20.32 C 35.95,20.34 35.93,20.37 35.91,20.38 Z M 40.41,25.35 A 3,3 0 0,1 40.01,26.22 A 0.7,0.7 0 0,1 39.73,26.45 H 39.7 A 7.42,7.42 0 0,1 39.67,26.29 L 39.61,25.91 L 39.53,25.51 C 39.49,25.31 39.44,25.18 39.39,25.11 A 0.51,0.51 0 0,0 39.11,24.91 C 38.97,24.87 38.86,24.89 38.76,24.95 A 0.76,0.76 0 0,0 38.61,25.1 L 38.19,25.63 C 37.85,26.05 37.44,26.14 36.94,25.93 A 0.95,0.95 0 0,1 36.44,25.45 A 5.21,5.21 0 0,1 36.34,25.22 C 36.31,25.06 36.3,24.92 36.31,24.79 C 36.34,24.59 36.41,24.37 36.51,24.11 A 4.88,4.88 0 0,0 36.77,23.19 L 36.87,22.87 C 36.9,22.81 36.97,22.72 37.07,22.6 A 2.3,2.3 0 0,0 37.42,22.03 A 0.97,0.97 0 0,1 37.67,21.61 C 37.72,21.56 37.8,21.54 37.89,21.56 L 38.08,21.59 C 38.34,21.64 38.52,21.66 38.64,21.65 C 38.84,21.62 38.96,21.51 38.99,21.31 L 39.01,21.05 C 39.01,20.95 39.06,20.9 39.15,20.87 A 0.3,0.3 0 0,1 39.38,20.87 C 39.52,20.94 39.64,21.04 39.75,21.17 A 4.95,4.95 0 0,1 40.38,22.72 C 40.45,23.05 40.5,23.44 40.54,23.89 C 40.58,24.33 40.54,24.82 40.4,25.35 Z M 29.79,24.51 C 29.86,24.55 29.89,24.59 29.9,24.65 C 29.9,24.72 29.88,24.77 29.84,24.81 A 0.56,0.56 0 0,1 29.68,24.88 L 29.63,24.89 C 29.54,24.92 29.54,24.95 29.63,24.99 C 29.73,25.02 29.83,24.99 29.94,24.89 A 0.57,0.57 0 0,0 30.09,24.63 C 30.12,24.55 30.06,24.43 29.91,24.26 A 3.77,3.77 0 0,1 29.86,24.2 C 29.76,24.09 29.68,24.02 29.6,24 A 0.38,0.38 0 0,0 29.24,24.12 A 0.1,0.1 0 0,0 29.22,24.22 C 29.22,24.26 29.25,24.29 29.28,24.3 C 29.55,24.4 29.72,24.47 29.79,24.51 Z" fill="rgb(13, 107, 167)" fill-rule="evenodd"/>
<path d="M 25.819999999999997,23.605 C 25.83,25.14 26.17,26.02 26.33,26.26 C 25.17,22.6 27.81,16.49 33.38,16.49 A 8.2,8.2 0 0,1 40.9,21.19 C 40.36,19.46 38.18,16 33.84,16 C 27.43,16 25.83,21.73 25.83,23.62 Z" fill="rgb(139, 132, 127)"/>
<path d="M 36.440000000000005,34.985 H 38.55 V 34.74 H 37.87 C 37.73,34.74 37.64,34.59 37.69,34.46 L 38.4,32.73 H 41.13 L 41.84,34.46 C 41.9,34.59 41.8,34.74 41.67,34.74 H 40.91 V 35 H 43.51 V 34.74 H 42.81 L 40.08,28 H 39.82 L 37.05,34.74 H 36.44 V 35 Z M 40.98,32.39 L 39.75,29.42 L 38.55,32.39 H 40.98 Z M 5,28.27 V 28 H 9.01 C 10.48,28 12,29.27 12,30.83 V 31.16 C 12,33.28 10.05,35 8.06,35 H 5 V 34.73 H 6 V 28.27 H 5 Z M 7,34.52 V 28.43 H 8.31 C 9.67,28.43 11,29.61 11,31.06 V 31.49 C 11,33.16 9.5,34.52 7.93,34.52 H 7 Z M 12.25,28 V 28.31 H 13 V 34.72 H 12.25 V 35 H 17.17 L 17.34,33.3 H 17.02 L 16.9,33.97 A 0.78,0.78 0 0,1 16.16,34.64 H 14 V 31.6 H 15.5 C 15.82,31.6 16,31.87 16,32.22 V 32.55 H 16.4 V 30.3 H 16 V 30.65 C 16,30.99 15.82,31.26 15.5,31.26 H 14 V 28.42 H 16.02 C 16.34,28.42 16.59,28.7 16.59,29.04 V 29.54 H 16.94 L 17.1,28 H 12.25 Z M 20.24,28 H 18 V 28.22 H 18.6 L 20.02,35 H 20.58 L 22.49,29.5 L 24.19,35 H 24.68 L 26.52,28.22 H 27 V 28 H 25.08 V 28.22 H 26.08 L 24.53,33.64 L 22.81,28 H 22.49 L 20.49,33.5 L 19.45,28.22 H 20.24 V 28 Z M 27.56,28.23 V 28 H 29.37 L 31.87,33.61 L 33.92,28 H 36 V 28.23 H 35 V 34.31 C 35,34.54 35.3,34.72 35.52,34.72 H 36 V 35 H 33.15 V 34.72 H 33.69 C 33.9,34.72 34,34.54 34,34.31 V 28.77 L 31.72,35 L 29,29.1 V 34.31 C 29,34.54 29.06,34.72 29.27,34.72 H 29.84 V 35 H 27.56 V 34.72 H 28.05 C 28.25,34.72 28.43,34.54 28.43,34.31 V 28.23 H 27.56 Z M 44,35 H 46.97 V 34.7 H 46.37 C 46.17,34.7 46,34.5 46,34.28 V 28.31 H 46.97 C 47.72,28.31 48.33,28.97 48.33,29.79 S 47.73,31.27 46.97,31.27 H 46.11 V 31.47 L 48.71,35 H 50 V 34.7 H 49.49 L 47.3,31.55 L 48.1,31.29 C 48.75,31.08 49.2,30.42 49.2,29.69 C 49.2,28.75 48.5,28 47.64,28 H 44 V 28.31 H 45 V 34.28 C 45,34.51 44.75,34.69 44.55,34.69 H 44 V 35 Z" fill="rgb(127, 123, 123)" fill-rule="evenodd"/>
<defs>
<linearGradient id="a" x1="33.72" x2="33.72" y1="16.16" y2="31.94" gradientUnits="userSpaceOnUse">
<stop stop-color="rgb(164, 215, 241)" offset="0"/>
<stop stop-color="rgb(254, 254, 253)" stop-opacity="0" offset="1"/>
</linearGradient>
</defs>
</svg>
