<?xml version="1.0" encoding="UTF-8"?>
<!-- generated by Finnhub -->
<svg viewBox="0 0 55.5 55.5" xmlns="http://www.w3.org/2000/svg">
<path d="M 0,0 H 55.5 V 55.5 H 0 Z" fill="rgb(239, 242, 248)"/>
<path d="M 28.0,10.985 C 31.41,11 34.01,13.61 34.01,17 L 34,19 L 32,20 V 17 C 32,14.7 30.3,13 28,13 S 24,14.7 24,17 V 24 H 17.06 A 4.4,4.4 0 0,0 13.01,28.91 C 13.11,29.95 14.39,32 17.01,32 C 18.35,32 20.33,31.27 22.38,30.23 C 24.38,29.22 26.29,28 27.42,27.19 A 43.6,43.6 0 0,1 32.72,23.99 C 34.8,22.93 37.15,22 39,22 A 5.61,5.61 0 0,1 43.82,24.36 A 6.65,6.65 0 0,1 45,28 C 45,28.94 44.7,30.28 43.8,31.48 A 6.62,6.62 0 0,1 39.13,33.99 H 39.11 L 27.11,34.99 C 25.14,35.26 24.01,37.13 24.01,39 C 24.01,41.3 25.71,43 28.01,43 S 32.01,41.3 32.01,39 H 34.01 C 34.01,42.39 31.41,45 28.01,45 A 5.9,5.9 0 0,1 22.01,39 C 22.01,36.13 23.91,33.38 26.89,33 H 26.91 L 38.9,32 A 4.63,4.63 0 0,0 42.2,30.27 C 42.8,29.47 43,28.57 43,28 C 43,27.42 42.8,26.38 42.19,25.51 C 41.6,24.7 40.66,24 39,24 C 37.66,24 35.69,24.73 33.63,25.77 C 31.63,26.78 29.73,28 28.59,28.81 A 43.6,43.6 0 0,1 23.29,32.01 C 21.23,33.07 18.88,34 17.02,34 C 13.25,34 11.21,31.05 11.02,29.09 A 6.42,6.42 0 0,1 16.94,22 H 22.03 V 17 C 22.03,13.61 24.63,11 28.03,11 Z" fill="rgb(19, 42, 92)"/>
</svg>
