<?xml version="1.0" encoding="UTF-8"?>
<!-- generated by Finnhub -->
<svg viewBox="0 0 55.5 55.5" xmlns="http://www.w3.org/2000/svg">
<path d="M 0,0 H 55.5 V 55.5 H 0 Z" fill="rgb(239, 242, 248)"/>
<path d="M 33.21,32.985 H 45.6 L 48,20 H 31.94 C 30.14,20 29.04,20.83 28.55,22.55 H 35.15 L 34.34,27.15 C 34.55,25.9 35.6,25 37.18,25 H 43.27 L 42.98,26.46 H 37.85 C 37.36,26.46 36.9,26.66 36.82,27.11 L 36.35,29.81 C 36.27,30.25 36.65,30.46 37.15,30.46 H 42.27 L 42.01,32 H 35.91 C 34.35,32 33.65,31.02 33.87,29.78 L 33.22,33 Z" fill="rgb(101, 186, 253)"/>
<path d="M 35.14,22.485 H 28.58 L 26.65,33 H 33.25 L 35.15,22.5 Z M 28.9,32 L 29.18,30.58 H 31.66 L 31.4,32 H 28.9 Z M 29.4,29.5 L 30.2,25 H 32.68 L 31.88,29.5 H 29.4 Z" fill="rgb(1, 152, 117)"/>
<path d="M 26.65,32.985 L 26.92,32 H 19.55 C 18,32 17.26,31.05 17.48,29.8 L 17.95,27.17 C 18.16,25.93 19.15,25 20.7,25 H 25.6 L 26.07,23 H 8.35 L 6,36 H 29.86 C 31.66,36 32.76,34.72 33.25,33 H 26.66 Z M 20.46,27.11 L 19.96,29.81 C 19.88,30.25 20.26,30.46 20.76,30.46 H 24.71 L 25.41,26.46 H 21.5 C 21.01,26.46 20.55,26.66 20.46,27.11 Z" fill="rgb(152, 203, 66)"/>
</svg>
