<?xml version="1.0" encoding="UTF-8"?>
<!-- generated by Finnhub -->
<svg viewBox="0 0 55.5 55.5" xmlns="http://www.w3.org/2000/svg">
<path d="M 0,0 H 55.5 V 55.5 H 0 Z" fill="rgb(239, 242, 248)"/>
<path d="M 20.99,31.485 C 28.65,19.7 27.32,27.8 34.76,31.92 C 34.99,32.28 35.79,31.29 35.99,31.05 A 11.21,11.21 0 0,0 38.99,23.43 A 11.14,11.14 0 0,0 27.74,12 C 21.82,12 17.04,17.47 17,23.4 A 10.7,10.7 0 0,0 18.48,28.94 C 18.77,29.44 20.58,31.28 21,31.5 Z" fill="rgb(252, 207, 8)"/>
<path d="M 30.83,19.145 C 29.86,19.76 30.62,19.52 29.29,19.7 C 29.05,19.73 28.63,19.43 28.37,19.35 C 27.97,19.23 26.65,19.13 26.22,19.6 C 26.04,19.8 25.8,20 25.39,20.06 C 24.44,20.2 24.66,20.96 24.6,21.86 C 24.55,22.7 24.47,23.49 24.44,24.31 L 24.12,24.23 C 24.11,24.49 24.16,24.59 24.07,24.73 C 24.12,24.86 24.14,26.41 24.14,26.71 C 24.11,26.69 24.01,26.72 23.96,26.4 C 23.83,25.66 24.24,25.46 23.86,25.26 C 23.7,25.31 23.52,25.32 23.43,25.42 C 23.39,25.48 23.39,25.54 23.37,25.62 C 23.31,25.88 23.25,25.84 23.33,25.94 C 23.2,26.34 22.95,26.64 22.49,26.5 A 4.75,4.75 0 0,1 22.47,25.15 C 22.39,24.99 22.44,22.4 22.42,21.94 C 22.4,21.65 22.36,21.48 22.04,21.5 C 21.79,21.52 21.88,21.6 21.87,22.1 A 37.25,37.25 0 0,1 21.55,26.62 C 21.51,27.02 21.4,26.92 21.31,27.21 C 21.24,27.48 21.26,28.37 21.23,28.73 C 21.21,29.08 21.03,29.07 21.23,29.29 C 21.46,29.27 21.76,29.36 22.11,29.32 C 22.81,29.22 23.35,28.87 24.35,28.71 C 24.9,28.61 25.49,28.57 26.04,28.49 C 26.66,28.41 27.06,28.56 27.75,28.37 C 28.63,28.13 28.44,28.17 29.32,28.35 C 30.14,28.51 30.32,28.02 30.84,28.03 C 31.14,28.03 31.37,28.15 31.62,28.18 C 31.95,28.22 34.03,27.93 34.18,27.87 L 34.21,27.9 L 34.25,27.94 C 34.23,26.97 34.19,26.01 34.18,25.04 C 34.16,24.08 34.05,23.09 34.12,22.14 C 33.58,21.44 33.83,21.18 33.48,20.41 C 33.38,20.18 33.48,19.91 33.33,19.78 C 33.13,19.62 32.96,19.78 32.79,19.54 C 32.65,19.34 32.64,19.24 32.39,19.14 C 31.99,18.99 31.42,19.01 30.99,19 C 30.94,19.1 30.96,19.1 30.84,19.16 Z" fill="rgb(172, 31, 34)"/>
<path d="M 43.99,36.985 C 38.51,36.3 14.64,36.89 14.8,36.74 C 12.85,37.1 10.93,37.44 9,37.91 C 9.29,37.91 9.62,38.02 9.9,38.08 C 11.87,38.53 13.99,39.08 15.95,39.48 C 18.2,39.96 20.63,40.61 22.88,41.08 C 24.05,41.33 25.17,41.63 26.34,41.88 C 26.65,41.95 26.81,41.99 26.94,42 C 27.17,42.01 27.34,41.93 27.98,41.68 C 29.94,40.93 31.08,39.58 28.46,38.68 C 27.43,38.32 26.73,38.31 25.86,38.08 C 25.52,37.98 25.17,37.94 25.16,37.66 C 25.4,37.6 25.36,37.51 26.01,37.41 C 26.83,37.32 31.13,36.97 27.8,37.37 C 27.57,37.39 27.38,37.43 27.16,37.47 C 26.94,37.52 26.7,37.54 26.59,37.7 C 26.77,37.96 28.28,38.13 28.57,38.17 C 29.57,38.32 33.24,39.14 32.18,41.05 C 32.1,41.2 31.96,41.3 31.93,41.45 C 32.11,41.35 35.63,40.61 35.92,40.55 L 45.94,38.34 L 46.94,38.11 C 47.21,38.05 47.69,37.91 48,37.91 C 46.76,37.65 45.26,37.02 44,37 Z" fill="rgb(246, 149, 64)"/>
<path d="M 16.869999999999997,35.225 A 6.7,6.7 0 0,0 16.14,35.49 C 14.98,35.92 15.44,35.62 14.97,36.2 C 14.68,36.57 14.32,36.7 14,36.98 L 29.5,37 C 34.41,37.09 39.1,36.9 44,37 C 43.66,36.7 43.28,36.43 42.87,36.24 C 42.59,36.11 42.04,36.1 41.57,35.84 C 41.27,35.67 41.17,35.53 40.91,35.34 C 40.65,35.16 40.21,34.94 39.89,34.71 C 39.29,34.3 39.32,34.53 38.99,34.49 C 38.85,34.48 38.06,34.07 37.78,34 C 37.69,34.14 36.95,34 36.8,34.07 C 35.73,34.55 26.67,34.12 24.61,34.77 C 21.64,34.74 18.09,35 16.88,35.24 Z" fill="rgb(172, 31, 34)"/>
<path d="M 21.209999999999997,29.285 C 21.2,29.72 21.13,29.84 21.02,30.2 C 20.95,30.41 20.82,30.88 20.72,31.03 C 20.62,31.25 20.56,31.48 20.48,31.7 C 20.38,31.97 20.22,32.19 20.25,32.3 C 20.59,32.62 20.42,32.52 20.95,32.72 C 21.23,32.82 21.31,32.67 21.75,32.47 C 22.1,32.32 22.16,32.23 22.62,32.24 C 23.2,32.27 23.6,32.6 23.96,32.44 C 24.23,32.33 24.6,32.41 24.82,32.16 C 24.96,32.01 24.99,31.96 25.27,32.02 C 26.27,32.26 27.1,32.55 28.22,32.34 C 28.43,32.31 28.98,32.18 29.21,32.18 C 29.77,32.18 29.28,32.47 31.17,32.2 C 32.07,32.08 32.77,31.75 32.94,31.74 C 33.56,31.72 34.74,31.97 34.99,31.59 C 34.99,31.24 34.46,30.83 34.42,30.49 L 34.38,28.89 C 34.37,28.52 34.28,28.31 34.25,27.94 L 34.18,27.87 C 34.03,27.93 31.95,28.22 31.62,28.17 C 31.37,28.15 31.14,28.03 30.83,28.03 C 30.33,28.03 30.14,28.51 29.32,28.35 C 28.44,28.17 28.63,28.13 27.75,28.37 C 27.06,28.56 26.66,28.41 26.04,28.49 C 25.49,28.57 24.9,28.61 24.35,28.71 C 23.35,28.87 22.8,29.23 22.11,29.31 C 21.76,29.36 21.46,29.27 21.22,29.29 Z" fill="rgb(126, 21, 21)"/>
<path d="M 20.24,32.285 C 20.05,32.75 20.12,32.8 19.74,33.12 L 19.01,33.76 L 18.84,33.9 L 17.94,34.72 L 17.77,34.9 L 17.6,35.12 C 18.3,34.89 19.17,34.82 19.9,34.8 C 20.74,34.77 21.6,34.68 22.43,34.64 L 32.35,34.09 C 32.9,34.06 37.25,33.79 37.37,33.83 C 37.17,33.33 36.77,33.15 36.59,32.97 L 36.45,32.84 C 36.38,32.79 36.36,32.79 36.29,32.72 C 36.15,32.58 36.09,32.42 35.78,32.18 C 35.58,32.02 35.4,31.84 35.12,31.74 C 34.98,31.67 35.09,31.74 34.99,31.59 C 34.74,31.97 33.56,31.72 32.94,31.74 C 32.77,31.75 32.06,32.08 31.17,32.2 C 29.28,32.47 29.77,32.17 29.21,32.18 C 28.98,32.18 28.43,32.31 28.22,32.34 C 27.1,32.55 26.27,32.26 25.27,32.02 C 24.99,31.95 24.97,32.01 24.82,32.16 C 24.6,32.41 24.23,32.33 23.96,32.44 C 23.6,32.6 23.19,32.27 22.62,32.24 C 22.16,32.23 22.1,32.32 21.75,32.47 C 21.31,32.67 21.23,32.83 20.95,32.72 C 20.42,32.52 20.59,32.62 20.25,32.3 Z" fill="rgb(163, 30, 32)"/>
<path d="M 17.59,35.105 C 17.49,35.12 17.38,35.22 17.23,35.34 C 17.11,35.42 17.15,35.38 17.13,35.44 C 17.18,35.54 17.65,35.48 17.8,35.48 C 18.53,35.48 19.2,35.53 19.93,35.42 C 20.45,35.34 20.9,35.42 21.33,35.36 C 23.17,35.08 22.84,36.16 25.03,35.35 C 27.51,34.42 27.42,34.97 28.77,35.01 C 28.99,35.01 30.07,35.01 30.2,34.95 C 30.55,34.79 30.56,34.62 31.38,34.71 C 33.02,34.88 33.05,34.35 34.07,34.49 C 34.5,34.55 34.99,34.6 35.43,34.63 C 36.3,34.68 36.56,34.7 37.27,34.31 C 37.42,34.23 37.62,34.15 37.7,33.99 A 0.56,0.56 0 0,0 37.56,33.87 C 37.4,33.78 37.48,33.8 37.37,33.83 C 37.25,33.79 32.9,34.06 32.35,34.09 L 23.5,34.59 L 22.43,34.64 C 21.59,34.68 20.73,34.77 19.91,34.8 C 19.17,34.82 18.31,34.89 17.61,35.12 Z" fill="rgb(111, 14, 15)"/>
<path d="M 20.99,36.985 H 27 C 26.96,36.8 26.88,36.8 26.46,36.61 L 25.08,36.02 C 24.76,35.92 23.69,36.24 23.35,36.32 C 22.94,36.44 22.85,36.39 22.43,36.46 C 22.03,36.52 22.12,36.74 21.09,36.98 L 21,37 Z" fill="rgb(209, 33, 37)"/>
<path d="M 22.459999999999997,25.134999999999998 C 22.41,25.41 22.42,26.25 22.49,26.5 C 22.95,26.64 23.19,26.35 23.33,25.94 L 23.25,25.84 C 23.1,25.57 23.12,25.73 23.12,25.31 V 22.1 C 23.12,21.94 23.13,21.66 23.1,21.5 C 23.05,21.29 22.92,21.3 22.67,21.33 C 22.6,21.69 22.64,22.87 22.64,23.31 C 22.64,24.35 22.54,24.39 22.47,25.15 Z" fill="rgb(135, 22, 23)"/>
<path d="M 30.45,20.185 L 30.36,21.39 C 30.24,22.41 29.91,22.72 30.14,23.51 C 30.19,23.71 30.4,24.27 30.48,24.41 C 30.72,24.15 30.66,23.68 30.65,23.27 C 30.64,22.22 30.7,20.36 30.62,19.52 C 30.58,19.72 30.52,19.53 30.5,19.78 V 20.02 L 30.48,20.16 L 30.46,20.2 Z" fill="rgb(56, 12, 9)"/>
<path d="M 29.279999999999998,19.685 C 29.51,19.86 30.21,19.7 30.44,19.67 L 30.46,20.2 L 30.47,20.16 L 30.51,20.02 V 19.78 C 30.52,19.53 30.58,19.72 30.62,19.52 L 30.77,19.32 C 30.82,19.24 30.85,19.22 30.84,19.16 C 30.47,19.08 30.36,19.05 29.97,19.06 C 29.93,19.14 29.89,19.21 29.82,19.27 C 29.57,19.54 29.5,19.67 29.29,19.7 Z" fill="rgb(135, 22, 23)"/>
<path d="M 23.849999999999998,25.245 C 24.24,25.46 23.82,25.66 23.96,26.4 C 24.01,26.72 24.1,26.69 24.14,26.71 C 24.14,26.41 24.12,24.86 24.07,24.73 C 23.86,24.79 23.87,24.99 23.86,25.26 Z" fill="rgb(103, 20, 17)"/>
</svg>
