<?xml version="1.0" encoding="UTF-8"?>
<!-- generated by Finnhub -->
<svg viewBox="0 0 55.5 55.5" xmlns="http://www.w3.org/2000/svg">
<path d="M0 0h55.5v55.5H0z" fill="rgb(239, 242, 248)"/>
<path d="M13.34 37.5l14.8 8.5 14.16-9.06-13.49-7.69a1.36 1.36 0 0 0-1.35.01l-14.12 8.25z" fill="rgb(55, 76, 230)"/>
<path d="M21.2 26.15c-3.26 0-3.68-1.77-3.46-2.75l-3.54 3.58c-1.23 1.4-2.58 4.35 1.86 4.99 5.55.8 12.16-1.33 18.06-1.63 4.72-.23 7.89 4.22 8.88 6.47v-9.69c-.35-3.04-8.57-2.44-12.75-2.06-5.55.5-4.98 1.09-9.06 1.09z" fill="url(#b)"/>
<path d="M13 29.8c0-2.77 6.07-5.94 9.1-7.17-2.72-1.55-8.27-4.67-8.55-4.57-.29.1-.57.25-.55.34v11.4z" fill="rgb(50, 101, 253)"/>
<path d="M42.95 27v.23L43 36.8c-2.3 2.88-10.98 7.34-15 9.2l-7.48-4.44c2.35-.92 8.63-3.6 14.9-6.95 5.89-3.16 7.45-6.1 7.54-7.38V27z" fill="url(#a)"/>
<path d="M13.05 18.3l14.94 8.5L43 18.3l-13.92-8a2.19 2.19 0 0 0-2.18 0l-13.85 8z" fill="rgb(79, 141, 239)"/>
<defs>
<linearGradient id="b" x1="14.97" x2="39.02" y1="27.82" y2="31.31" gradientUnits="userSpaceOnUse">
<stop stop-color="rgb(27, 94, 198)" offset="0"/>
<stop stop-color="rgb(31, 54, 169)" offset="1"/>
</linearGradient>
<linearGradient id="a" x1="42.96" x2="27.49" y1="31.63" y2="41.61" gradientUnits="userSpaceOnUse">
<stop stop-color="rgb(41, 41, 212)" offset="0"/>
<stop stop-color="rgb(41, 41, 214)" offset="1"/>
</linearGradient>
</defs>
</svg>
