<?xml version="1.0" encoding="UTF-8"?>
<!-- generated by Finnhub -->
<svg viewBox="0 0 55.5 55.5" xmlns="http://www.w3.org/2000/svg">
<path d="M 0,0 H 55.5 V 55.5 H 0 Z" fill="rgb(47, 68, 134)"/>
<path d="M 3.99,23.985 H 7.12 A 3.4,3.4 0 0,1 10.52,27.4 V 28.6 A 3.4,3.4 0 0,1 7.12,32 H 4 V 24 Z M 5.5,25.39 H 6.82 C 8.03,25.39 9.02,26.37 9.02,27.59 V 28.41 A 2.2,2.2 0 0,1 6.82,30.61 H 5.5 V 25.4 Z M 16.8,30.09 A 3,3 0 1,1 16.94,29.59 H 12.51 C 12.73,30.25 13.31,30.72 13.98,30.72 C 14.47,30.72 14.9,30.47 15.18,30.09 H 16.8 Z M 13.98,27.28 C 14.64,27.28 15.2,27.73 15.43,28.38 H 12.53 C 12.75,27.73 13.32,27.28 13.98,27.28 Z M 37,32 A 3,3 0 0,0 39.83,30 H 38.78 C 38.45,30.72 37.78,31.21 37,31.21 C 35.96,31.21 35.11,30.34 35.01,29.22 H 39.99 L 40,29 A 3,3 0 1,0 37,32 Z M 38.9,28.33 H 35.1 A 2.03,2.03 0 0,1 37,26.8 C 37.9,26.8 38.65,27.45 38.9,28.34 Z M 43.63,32 A 3,3 0 0,0 46.44,30.05 H 45.38 C 45.04,30.73 44.38,31.19 43.63,31.19 C 42.53,31.19 41.63,30.19 41.63,28.98 C 41.63,27.76 42.53,26.78 43.63,26.78 C 44.37,26.78 45.01,27.21 45.35,27.86 H 46.41 A 3,3 0 1,0 43.62,32 Z M 29.5,24 V 25 H 32 V 32 H 33 V 25 H 35.5 V 24 H 29.5 Z M 47,24 H 48 V 26.73 A 2.31,2.31 0 0,1 52,28.32 V 32 H 51 V 28.3 A 1.5,1.5 0 0,0 48,28.3 V 32 H 47 V 24 Z M 21,26 H 22.5 V 26.6 A 2.18,2.18 0 0,1 25.74,26.84 A 2.42,2.42 0 0,1 30,28.42 V 32 H 28.53 V 28.56 A 1.16,1.16 0 1,0 26.21,28.56 V 32 H 24.83 V 28.56 A 1.16,1.16 0 1,0 22.5,28.56 V 32 H 21 V 26 Z M 19,32 V 28.26 C 19.22,27.76 19.67,27.36 20.5,27.48 V 26.05 C 20.25,25.95 19.63,25.94 19,26.51 V 26 H 17.51 V 32 H 19 Z" fill="rgb(254, 254, 253)" fill-rule="evenodd"/>
</svg>
