<?xml version="1.0" encoding="UTF-8"?>
<!-- generated by Finnhub -->
<svg viewBox="0 0 55.5 55.5" xmlns="http://www.w3.org/2000/svg">
<path d="M0 0h55.5v55.5H0z" fill="rgb(239, 242, 248)"/>
<path d="M32.76 14.85a69.71 69.71 0 0 0-1.63.12v-.02h.01a52.36 52.36 0 0 1 6.76-2.84c.25-.08.25-.12-.02-.1-2.04.09-4.07.38-6.1.88a40.87 40.87 0 0 0-11.85 4.87 23.49 23.49 0 0 0-4.68 3.75c-1.98 2.09-3.45 4.81-3.23 7.64.22 2.72 2.57 4.07 5.1 4.51 1.4.25 2.77.25 4.2.03 3.43-.55 6.84-2.49 9.55-4.67.12-.1.11-.11-.03-.05-.64.27-1.3.53-2.01.8-1.57.6-3.18 1.06-4.82 1.38-.78.15-1.57.21-2.36.17-1.85-.1-3.27-1.32-2.78-3.29.2-.85.62-1.53 1.2-2.24a18.38 18.38 0 0 1 3.31-3.1 39 39 0 0 1 10.78-5.46c.28-.1.27-.13-.03-.11a26.89 26.89 0 0 0-4.87.65v-.01c0-.02 0-.04.03-.05 2.29-1.13 4.55-1.99 6.9-2.72.13-.03.13-.06 0-.07-1.14-.1-2.22-.16-3.43-.07Zm-8 26.19c.11-.02.12 0 .01.05a51.53 51.53 0 0 1-6.71 2.81c-.13.05-.13.07 0 .09h.68c4.1-.31 8.09-1.4 11.88-2.97a34.23 34.23 0 0 0 7.4-4.11c2.9-2.18 5.5-5.1 5.93-8.77.44-3.62-2.22-5.4-5.51-5.86-.74-.1-1.42-.16-2.02-.16-.22 0-.43.03-.63.06l-.48.06c-.28.02-.55.05-.82.1-1.54.3-2.99.77-4.36 1.45-1.74.85-3.4 1.9-4.95 3.13-.19.15-.17.17.05.08 2.26-.94 4.68-1.8 7-2.2a6.73 6.73 0 0 1 3.31.13c2.22.83 1.89 3.23.75 4.79-1.65 2.23-4.04 4-6.49 5.44-2.55 1.5-5.2 2.7-7.93 3.6-.25.08-.24.12.02.11a24.82 24.82 0 0 0 4.84-.64c0 .02 0 .04-.02.05a40.98 40.98 0 0 1-6.89 2.7c-.18.06-.18.1.01.12 1.55.15 3.2.13 4.92-.06Z" fill="url(#a)"/>
<defs>
<linearGradient id="a" x1="20.27" x2="34.14" y1="17.2" y2="39.05" gradientUnits="userSpaceOnUse">
<stop stop-color="rgb(240, 51, 107)" offset="0"/>
<stop stop-color="rgb(193, 51, 246)" offset=".52"/>
<stop stop-color="rgb(124, 89, 252)" offset=".71"/>
<stop stop-color="rgb(76, 119, 248)" offset="1"/>
</linearGradient>
</defs>
</svg>
