<?xml version="1.0" encoding="UTF-8"?>
<!-- generated by Finnhub -->
<svg viewBox="0 0 55.5 55.5" xmlns="http://www.w3.org/2000/svg">
<path d="M0 0h55.5v55.5H0z" fill="url(#c)"/>
<path d="M34.16 12a7.77 7.77 0 0 0-6.19 3.13A7.74 7.74 0 0 0 14 19.76V22h6v-2.28a1.94 1.94 0 0 1 2.02-1.99c1.1.02 2 .95 1.98 2.06V27h5.55v-1.1a7.79 7.79 0 0 0 12.43-6.16A7.8 7.8 0 0 0 34.16 12Zm0 9.71a2 2 0 0 1-1.97-2.02 1.99 1.99 0 0 1 2.8-1.8 2.02 2.02 0 0 1 1.22 1.9 1.99 1.99 0 0 1-2.05 1.92Z" fill="url(#b)"/>
<path d="m34.28 28.55a7.83 7.83 0 0 0-6.05 2.83 7.74 7.74 0 0 0-3.72-2.98 7 7 0 0 0-4.51-0.24v-5.16h-6v21h6v-8.46c0.04-1.07 1-1.93 2.06-1.91 1.1 0.02 1.96 0.98 1.94 2.08v0 8.29h5.55v-1.58a7.74 7.74 0 0 0 10.16-0.66 7.71 7.71 0 0 0-5.43-13.21zm-0.05 9.7a2 2 0 0 1-2-1.97 1.98 1.98 0 0 1 1.99-2 2.05 2.05 0 0 1 2.04 2.01 2.01 2.01 0 0 1-2.03 1.97z" fill="url(#a)"/>
<defs>
<linearGradient id="c" x1="10.42" x2="68.15" y1="9.71" y2="76.02" gradientUnits="userSpaceOnUse">
<stop stop-color="rgb(25, 29, 31)" offset="0"/>
<stop stop-color="rgb(5, 5, 8)" offset="1"/>
</linearGradient>
<linearGradient id="b" x1="29.53" x2="28.11" y1="10.25" y2="38.84" gradientUnits="userSpaceOnUse">
<stop stop-color="rgb(152, 217, 241)" offset="0"/>
<stop stop-color="rgb(93, 200, 228)" offset=".26"/>
<stop stop-color="rgb(58, 83, 162)" offset="1"/>
</linearGradient>
<linearGradient id="a" x1="31.16" x2="28.61" y1="10.51" y2="39.13" gradientUnits="userSpaceOnUse">
<stop stop-color="rgb(93, 200, 228)" offset=".26"/>
<stop stop-color="rgb(58, 83, 162)" offset="1"/>
</linearGradient>
</defs>
</svg>
