<?xml version="1.0" encoding="UTF-8"?>
<!-- generated by Finnhub -->
<svg viewBox="0 0 55.5 55.5" xmlns="http://www.w3.org/2000/svg">
<path d="M 0,0 H 55.5 V 55.5 H 0 Z" fill="rgb(239, 242, 248)"/>
<path d="M 43.99,27.965 C 44,36.98 39.76,43.96 29.87,43.99 C 28.25,43.99 26.62,44.02 25.01,43.96 C 15.45,43.65 11.86,36.62 12.01,28.16 C 12.14,20.34 14.28,12.26 23.03,12.2 C 26.53,11.93 30.04,11.91 33.54,12.26 C 42.13,13.11 44,20.9 44,27.98 C 44,25.58 43.97,27.98 44,27.98 Z" fill="rgb(151, 170, 179)"/>
<path d="M 25.02,43.285 C 26.32,43.35 27.61,43.35 28.92,43.34 H 29.86 C 34.64,43.32 37.96,41.64 40.12,38.94 C 42.29,36.24 43.32,32.42 43.34,28.04 A 1.01,1.01 0 0,1 43.33,27.9 A 11.17,11.17 0 0,1 43.33,27.15 C 43.26,23.91 42.75,20.66 41.4,18.09 C 39.96,15.33 37.53,13.32 33.48,12.91 A 59.18,59.18 0 0,0 23.08,12.86 H 23.04 A 9.5,9.5 0 0,0 17.99,14.18 A 8.96,8.96 0 0,0 14.87,17.58 C 13.3,20.45 12.74,24.3 12.67,28.18 C 12.6,32.32 13.44,36.03 15.41,38.73 C 17.35,41.4 20.43,43.16 25.03,43.31 Z M 43.96,26.27 C 43.66,19.7 41.44,13.04 33.54,12.27 C 30.04,11.91 26.54,11.93 23.04,12.2 C 14.28,12.26 12.14,20.34 12,28.17 C 11.86,36.62 15.45,43.65 25,43.97 C 26.31,44.01 27.62,44 28.93,44 H 29.87 C 39.76,43.95 44,36.97 44,27.97 A 38.99,38.99 0 0,0 43.96,26.27 Z" fill="rgb(156, 121, 60)" fill-rule="evenodd"/>
<path d="M 38.13,28.884999999999998 C 36.94,28.62 35.91,28.85 34.87,29.09 A 7.11,7.11 0 0,1 31.54,29.27 S 32.6,30.13 34.16,29.94 C 35.73,29.76 40.15,31.17 39.43,34.31 C 39,36.21 38.09,36.82 37.37,37.13 L 37.3,37.16 C 36.87,37.33 36.52,37.4 36.39,37.6 C 36.22,37.87 36.02,37.53 35.76,37.2 C 35.49,36.86 35.16,36.51 34.75,36.83 C 33.93,37.44 34.69,37.95 34.96,38.17 C 35.12,38.29 33.86,39.14 32.45,39.13 A 3.17,3.17 0 0,1 29.61,37.28 C 27.81,33.88 28.87,30.75 28.23,29.81 C 28.23,29.81 26.59,31.07 26.23,33.75 C 25.85,36.42 24.26,38.06 22.65,37.79 A 2.7,2.7 0 0,0 21.07,38.09 C 20.32,38.42 19.7,38.75 18.99,37.74 L 18.89,37.6 C 17.78,36.14 16.59,36.75 16.71,36.13 C 16.85,35.49 16.26,35.13 15.34,34.33 C 14.86,33.93 14.92,33.36 15.12,32.8 C 15.31,32.26 15.62,31.73 15.71,31.3 C 15.89,30.45 17.06,27.02 21.3,27.7 C 25.53,28.36 27.23,27.99 27.23,27.99 S 25.13,27.42 22.7,27.34 C 20.26,27.26 17.72,25.28 18.14,22.71 C 18.52,20.41 19.44,19.93 20.1,19.81 L 20.32,19.79 C 20.98,19.74 20.69,19.07 21.06,19.04 C 21.2,19.03 21.34,19.21 21.5,19.4 C 21.76,19.7 22.05,20 22.4,19.47 C 22.99,18.61 21.72,18.67 21.82,18.27 C 21.86,18.11 22,18.13 22.22,18.14 C 22.44,18.16 22.74,18.17 23.11,18.02 C 23.36,17.92 23.64,17.74 23.94,17.43 C 25.14,16.23 29.61,15.4 29.48,19.15 C 29.34,22.9 28.6,25.9 29.61,28.39 C 29.61,28.39 29.69,24.02 30.14,23.03 C 30.59,22.04 31.23,20.63 32.02,20.25 C 32.82,19.87 34.77,18.13 36.89,18.48 C 38.86,18.8 38.84,20.09 39.57,20.53 L 39.75,20.62 C 40.68,20.94 39.67,21.96 39.54,22.28 C 39.41,22.6 39.84,23.51 40.68,22.76 C 41.2,22.31 41.62,22.76 41.85,23.44 L 41.86,23.49 C 42,23.91 42.06,24.41 42,24.83 C 41.87,25.93 43.04,25.79 42.67,27.08 C 42.29,28.36 40.55,29.46 38.14,28.9 Z" fill="rgb(198, 176, 133)"/>
<path d="M 42.52,27.544999999999998 L 42.39,27.52 C 42.11,28.48 40.95,29.37 39.24,29.37 C 38.82,29.37 38.4,29.32 38,29.23 A 5.18,5.18 0 0,0 36.83,29.09 C 36.06,29.09 35.35,29.25 34.64,29.41 C 33.94,29.57 33.24,29.71 32.49,29.71 C 32.11,29.72 31.73,29.68 31.35,29.6 L 30.77,29.47 L 31.24,29.83 C 31.24,29.84 32.14,30.55 33.51,30.55 C 33.66,30.55 33.81,30.55 33.98,30.52 L 34.27,30.51 C 35.05,30.51 36.31,30.81 37.35,31.41 C 37.87,31.7 38.35,32.07 38.67,32.51 A 2.5,2.5 0 0,1 39.14,34.67 A 4.31,4.31 0 0,1 38.24,36.6 C 37.88,37 37.49,37.22 37.14,37.36 L 37.13,37.37 L 37.07,37.39 C 36.86,37.48 36.67,37.54 36.5,37.6 C 36.33,37.67 36.18,37.75 36.09,37.89 L 36.06,37.92 V 37.94 V 37.92 V 37.94 V 37.92 H 36.07 A 0.15,0.15 0 0,1 36.02,37.89 A 1.44,1.44 0 0,1 35.83,37.67 C 35.73,37.53 35.59,37.36 35.44,37.21 C 35.29,37.06 35.11,36.94 34.88,36.94 A 0.7,0.7 0 0,0 34.47,37.08 C 34.34,37.18 34.23,37.28 34.14,37.41 C 34.08,37.51 34.04,37.63 34.04,37.75 C 34.04,37.98 34.17,38.16 34.3,38.3 C 34.44,38.45 34.56,38.48 34.64,38.54 A 4.27,4.27 0 0,1 32.25,39.33 H 32.23 A 3.05,3.05 0 0,1 29.5,37.58 A 9.89,9.89 0 0,1 28.38,33.03 C 28.36,32.38 28.38,31.81 28.36,31.33 C 28.34,30.84 28.29,30.46 28.1,30.18 L 28.02,30.06 L 27.9,30.15 C 27.89,30.16 26.2,31.43 25.82,34.13 C 25.65,35.33 25.22,36.33 24.66,37 C 24.1,37.67 23.41,38.04 22.71,38.04 L 22.38,38.01 A 2.18,2.18 0 0,0 22.03,37.98 C 21.53,37.98 21.09,38.15 20.72,38.32 C 20.34,38.48 20.01,38.63 19.72,38.63 A 0.82,0.82 0 0,1 19.28,38.5 C 19.13,38.41 18.97,38.26 18.79,38.01 A 2.81,2.81 0 0,0 17.11,36.81 C 16.9,36.75 16.71,36.72 16.61,36.68 A 0.23,0.23 0 0,1 16.53,36.64 C 16.52,36.62 16.51,36.62 16.51,36.59 L 16.52,36.53 A 0.89,0.89 0 0,0 16.42,35.89 A 2.3,2.3 0 0,0 15.91,35.31 L 15.09,34.63 A 0.86,0.86 0 0,1 14.77,33.93 C 14.77,33.73 14.83,33.49 14.91,33.26 C 15.09,32.74 15.41,32.22 15.51,31.76 C 15.59,31.4 15.87,30.5 16.55,29.71 A 4.24,4.24 0 0,1 19.95,28.21 C 20.27,28.21 20.61,28.24 20.98,28.31 C 23,28.61 24.45,28.7 25.42,28.7 C 26.51,28.7 26.99,28.6 27.01,28.59 L 27.56,28.47 L 27.01,28.33 S 24.89,27.77 22.41,27.69 A 5.27,5.27 0 0,1 19.33,26.53 A 3.55,3.55 0 0,1 17.92,23.8 A 4.38,4.38 0 0,1 18.82,21.09 A 1.64,1.64 0 0,1 20.02,20.49 A 0.67,0.67 0 0,0 20.46,20.32 C 20.6,20.18 20.63,20 20.66,19.89 A 0.35,0.35 0 0,1 20.72,19.78 C 20.73,19.76 20.73,19.76 20.77,19.75 L 20.81,19.77 C 20.85,19.79 20.91,19.84 20.96,19.9 L 21.28,20.25 L 21.48,20.4 A 0.5,0.5 0 0,0 21.72,20.46 C 21.82,20.46 21.92,20.43 21.99,20.37 A 1,1 0 0,0 22.24,20.12 A 0.85,0.85 0 0,0 22.41,19.65 A 0.49,0.49 0 0,0 22.26,19.29 C 22.12,19.17 21.96,19.09 21.83,19.03 A 0.67,0.67 0 0,1 21.69,18.93 C 21.66,18.91 21.67,18.9 21.67,18.9 V 18.87 L 21.77,18.86 L 22.15,18.87 A 2.28,2.28 0 0,0 23.77,18.12 C 24.02,17.88 24.44,17.63 24.95,17.45 A 5.07,5.07 0 0,1 26.6,17.16 C 27.26,17.16 27.9,17.32 28.35,17.69 C 28.8,18.06 29.11,18.64 29.11,19.56 V 19.72 C 29.02,21.97 28.71,23.95 28.71,25.72 C 28.71,26.86 28.84,27.92 29.25,28.91 L 29.5,29.52 L 29.51,28.86 L 29.53,28.17 C 29.56,27.54 29.6,26.57 29.68,25.67 C 29.72,25.23 29.77,24.8 29.83,24.44 C 29.89,24.07 29.96,23.78 30.03,23.62 C 30.26,23.12 30.53,22.54 30.84,22.02 C 31.15,21.52 31.51,21.09 31.86,20.93 C 32.06,20.84 32.3,20.68 32.59,20.5 C 33.47,19.95 34.76,19.15 36.14,19.15 C 36.32,19.15 36.5,19.17 36.69,19.2 C 37.65,19.35 38.09,19.72 38.42,20.12 C 38.58,20.32 38.71,20.52 38.84,20.72 C 38.98,20.91 39.13,21.09 39.34,21.21 L 39.54,21.31 C 39.67,21.35 39.74,21.41 39.79,21.45 C 39.83,21.51 39.84,21.56 39.85,21.63 C 39.85,21.79 39.74,22.02 39.6,22.23 L 39.4,22.53 C 39.34,22.6 39.3,22.68 39.25,22.77 A 0.48,0.48 0 0,0 39.22,22.96 C 39.22,23.12 39.27,23.3 39.39,23.45 A 0.65,0.65 0 0,0 39.91,23.72 C 40.13,23.72 40.36,23.62 40.61,23.4 C 40.75,23.29 40.85,23.25 40.94,23.25 C 41.05,23.25 41.16,23.31 41.28,23.45 C 41.39,23.58 41.49,23.78 41.58,24 L 41.7,23.96 L 41.57,24 L 41.59,24.06 A 3.26,3.26 0 0,1 41.71,25.5 C 41.71,25.72 41.76,25.9 41.84,26.04 C 41.97,26.25 42.14,26.4 42.25,26.56 C 42.38,26.71 42.45,26.86 42.46,27.1 C 42.46,27.22 42.44,27.35 42.39,27.52 L 42.53,27.56 L 42.66,27.6 C 42.71,27.44 42.74,27.27 42.74,27.1 C 42.74,26.9 42.68,26.72 42.6,26.58 C 42.48,26.37 42.32,26.22 42.2,26.07 A 0.85,0.85 0 0,1 41.99,25.5 V 25.35 A 3.53,3.53 0 0,0 41.85,23.97 L 41.83,23.92 C 41.75,23.67 41.63,23.44 41.49,23.27 C 41.35,23.1 41.16,22.98 40.94,22.97 A 0.78,0.78 0 0,0 40.44,23.2 C 40.21,23.39 40.04,23.45 39.92,23.45 A 0.38,0.38 0 0,1 39.61,23.28 A 0.58,0.58 0 0,1 39.49,22.96 C 39.49,22.93 39.49,22.9 39.51,22.87 L 39.63,22.67 C 39.72,22.55 39.83,22.37 39.93,22.2 C 40.03,22.02 40.12,21.83 40.13,21.63 A 0.54,0.54 0 0,0 40,21.29 A 0.78,0.78 0 0,0 39.64,21.05 C 39.58,21.03 39.56,21.03 39.51,21 C 39.35,20.9 39.2,20.74 39.07,20.56 C 38.87,20.29 38.67,19.94 38.34,19.63 A 3,3 0 0,0 36.74,18.93 C 36.54,18.9 36.34,18.88 36.14,18.88 C 35.14,18.88 34.23,19.26 33.46,19.67 L 32.44,20.27 C 32.15,20.46 31.91,20.61 31.74,20.69 A 3,3 0 0,0 30.61,21.89 C 30.29,22.42 30.01,23.02 29.78,23.5 C 29.66,23.78 29.58,24.24 29.5,24.78 A 45.45,45.45 0 0,0 29.24,28.85 H 29.38 L 29.5,28.8 A 7.98,7.98 0 0,1 29,25.72 C 28.99,23.98 29.3,22 29.38,19.72 V 19.56 C 29.38,18.59 29.05,17.9 28.52,17.48 A 3.03,3.03 0 0,0 26.6,16.89 C 26,16.89 25.39,17.01 24.86,17.19 C 24.32,17.39 23.86,17.64 23.57,17.93 C 23.27,18.23 23.01,18.39 22.77,18.49 C 22.57,18.57 22.37,18.6 22.15,18.6 L 21.76,18.59 A 0.47,0.47 0 0,0 21.55,18.63 A 0.29,0.29 0 0,0 21.4,18.82 A 0.3,0.3 0 0,0 21.45,19.07 C 21.5,19.14 21.58,19.2 21.66,19.24 C 21.78,19.31 21.91,19.37 22,19.44 A 0.4,0.4 0 0,1 22.1,19.54 A 0.2,0.2 0 0,1 22.14,19.65 C 22.14,19.72 22.11,19.82 22.01,19.97 A 0.75,0.75 0 0,1 21.83,20.15 A 0.2,0.2 0 0,1 21.72,20.19 C 21.67,20.19 21.61,20.17 21.54,20.11 C 21.43,20.03 21.31,19.88 21.2,19.75 A 1.38,1.38 0 0,0 21.01,19.58 A 0.4,0.4 0 0,0 20.77,19.48 H 20.75 A 0.36,0.36 0 0,0 20.57,19.55 A 0.45,0.45 0 0,0 20.41,19.78 C 20.38,19.89 20.35,20.01 20.31,20.08 C 20.25,20.15 20.19,20.2 20.01,20.22 L 19.77,20.25 C 19.31,20.32 18.89,20.56 18.6,20.91 A 4.63,4.63 0 0,0 17.69,23.22 C 17.66,23.42 17.64,23.62 17.64,23.8 C 17.64,24.98 18.26,26 19.16,26.74 A 5.54,5.54 0 0,0 22.41,27.96 A 22.65,22.65 0 0,1 26.94,28.59 L 26.98,28.46 L 26.95,28.33 H 26.93 C 26.83,28.35 26.36,28.43 25.42,28.43 C 24.46,28.43 23.02,28.34 21.02,28.03 A 7.04,7.04 0 0,0 19.94,27.95 C 18.2,27.95 17.05,28.69 16.34,29.53 C 15.81,30.17 15.43,30.91 15.24,31.71 C 15.16,32.09 14.84,32.62 14.65,33.17 C 14.56,33.42 14.49,33.67 14.49,33.93 A 1.13,1.13 0 0,0 14.91,34.83 C 15.33,35.19 15.69,35.46 15.92,35.7 C 16.04,35.81 16.12,35.92 16.18,36.02 C 16.26,36.16 16.28,36.32 16.25,36.48 L 16.24,36.58 C 16.24,36.68 16.27,36.76 16.33,36.82 C 16.38,36.87 16.43,36.9 16.5,36.92 C 16.6,36.97 16.73,36.99 16.87,37.02 A 2.56,2.56 0 0,1 18.57,38.17 A 2,2 0 0,0 19.13,38.73 C 19.33,38.85 19.53,38.9 19.72,38.9 C 20.1,38.9 20.45,38.73 20.82,38.57 A 3,3 0 0,1 22.03,38.25 L 22.33,38.28 L 22.71,38.31 C 23.51,38.31 24.27,37.89 24.88,37.17 A 6,6 0 0,0 26.1,34.17 A 6.44,6.44 0 0,1 27.82,30.59 L 28.01,30.42 L 28.06,30.38 V 30.37 H 28.07 L 27.99,30.26 L 27.87,30.33 C 28.01,30.52 28.07,30.87 28.08,31.33 C 28.14,32.73 27.88,35.15 29.25,37.71 A 3.33,3.33 0 0,0 31.65,39.55 H 31.64 C 31.84,39.58 32.04,39.6 32.24,39.6 H 32.25 A 4.57,4.57 0 0,0 34.65,38.88 L 34.83,38.73 A 0.43,0.43 0 0,0 34.88,38.65 A 0.22,0.22 0 0,0 34.92,38.55 A 0.17,0.17 0 0,0 34.85,38.41 C 34.75,38.34 34.62,38.24 34.51,38.11 C 34.39,38.01 34.31,37.87 34.31,37.75 C 34.31,37.68 34.34,37.61 34.38,37.55 C 34.45,37.45 34.53,37.37 34.63,37.3 S 34.81,37.2 34.88,37.2 C 34.97,37.2 35.06,37.25 35.17,37.33 C 35.32,37.45 35.47,37.65 35.6,37.83 L 35.8,38.06 L 35.92,38.15 A 0.27,0.27 0 0,0 36.22,38.15 A 0.39,0.39 0 0,0 36.32,38.03 C 36.35,37.98 36.45,37.92 36.6,37.86 C 36.75,37.79 36.95,37.73 37.17,37.65 L 37.24,37.62 H 37.25 C 37.71,37.43 38.12,37.15 38.45,36.78 A 4.6,4.6 0 0,0 39.49,34.05 C 39.49,33.4 39.26,32.83 38.89,32.35 A 5.33,5.33 0 0,0 36.65,30.75 A 6.79,6.79 0 0,0 33.95,30.25 A 3.7,3.7 0 0,1 31.45,29.65 L 31.42,29.63 H 31.41 L 31.32,29.73 L 31.29,29.86 C 31.69,29.95 32.09,29.99 32.49,29.99 C 33.29,29.99 34,29.83 34.7,29.68 C 35.4,29.52 36.1,29.37 36.83,29.37 C 37.2,29.37 37.57,29.41 37.93,29.49 C 38.39,29.59 38.83,29.64 39.23,29.64 C 41.04,29.64 42.33,28.71 42.66,27.6 L 42.53,27.56 Z" fill="rgb(156, 121, 60)" fill-rule="evenodd"/>
<path d="M 29.799999999999997,27.755 A 0.47,0.47 0 0,1 29.51,28.21 A 0.48,0.48 0 0,1 28.89,27.95 A 0.47,0.47 0 0,1 28.99,27.44 A 0.48,0.48 0 0,1 29.81,27.77 Z" fill="rgb(224, 210, 184)"/>
<path d="M 29.75,27.985 H 29.7 C 29.7,28.32 29.53,28.56 29.33,28.56 C 29.13,28.56 28.97,28.32 28.97,28.01 C 28.97,27.71 29.13,27.46 29.33,27.46 C 29.53,27.46 29.7,27.7 29.7,28.01 H 29.81 C 29.81,27.62 29.61,27.3 29.33,27.3 C 29.07,27.3 28.86,27.62 28.86,28 C 28.86,28.4 29.06,28.72 29.33,28.72 C 29.6,28.72 29.81,28.4 29.81,28.01 H 29.76 Z" fill="rgb(156, 121, 60)"/>
<path d="M 29.319999999999997,29.185 A 0.47,0.47 0 0,1 29.03,29.63 A 0.48,0.48 0 0,1 28.52,29.53 A 0.47,0.47 0 0,1 28.38,29.19 C 28.38,29.07 28.43,28.94 28.52,28.86 A 0.48,0.48 0 0,1 29.33,29.19 Z" fill="rgb(224, 210, 184)"/>
<path d="M 29.27,28.945 H 29.22 C 29.22,29.26 29.06,29.51 28.86,29.51 C 28.66,29.51 28.49,29.26 28.49,28.96 C 28.49,28.65 28.65,28.4 28.86,28.4 C 29.06,28.4 29.22,28.65 29.22,28.96 H 29.33 C 29.33,28.56 29.13,28.25 28.86,28.25 C 28.59,28.25 28.38,28.57 28.38,28.95 C 28.38,29.35 28.58,29.66 28.86,29.66 C 29.12,29.66 29.33,29.34 29.33,28.96 H 29.28 Z" fill="rgb(156, 121, 60)"/>
<path d="M 28.369999999999997,30.125 C 28.38,30.26 28.33,30.38 28.24,30.47 A 0.48,0.48 0 0,1 27.42,30.14 C 27.42,30.01 27.47,29.89 27.56,29.8 A 0.48,0.48 0 0,1 28.38,30.14 Z" fill="rgb(224, 210, 184)"/>
<path d="M 28.31,29.884999999999998 H 28.27 C 28.27,30.21 28.1,30.45 27.9,30.45 C 27.7,30.45 27.53,30.21 27.53,29.9 C 27.53,29.6 27.7,29.35 27.9,29.35 C 28.1,29.35 28.27,29.59 28.27,29.9 H 28.37 C 28.37,29.51 28.17,29.2 27.9,29.2 C 27.63,29.2 27.42,29.51 27.42,29.9 C 27.42,30.3 27.63,30.61 27.9,30.61 C 28.16,30.61 28.38,30.29 28.38,29.91 H 28.32" fill="rgb(156, 121, 60)"/>
<path d="M 26.93,29.645 A 0.47,0.47 0 0,1 26.64,30.1 A 0.48,0.48 0 0,1 26.02,29.85 A 0.47,0.47 0 0,1 26.12,29.33 A 0.48,0.48 0 0,1 26.94,29.66" fill="rgb(224, 210, 184)"/>
<path d="M 26.88,29.415 H 26.83 C 26.83,29.73 26.66,29.98 26.46,29.98 C 26.26,29.98 26.09,29.74 26.09,29.43 C 26.09,29.12 26.26,28.88 26.46,28.88 C 26.66,28.88 26.83,29.12 26.83,29.43 H 26.94 C 26.94,29.03 26.73,28.72 26.46,28.72 C 26.2,28.72 25.98,29.04 25.98,29.42 C 25.98,29.82 26.2,30.14 26.46,30.14 C 26.73,30.14 26.94,29.82 26.94,29.43 H 26.89" fill="rgb(156, 121, 60)"/>
<path d="M 27.889999999999997,28.705 C 27.9,28.84 27.85,28.96 27.76,29.05 A 0.48,0.48 0 0,1 26.94,28.72 C 26.94,28.59 26.99,28.47 27.08,28.38 A 0.48,0.48 0 0,1 27.9,28.72 Z" fill="rgb(224, 210, 184)"/>
<path d="M 27.83,28.465 H 27.79 C 27.79,28.79 27.62,29.03 27.42,29.04 C 27.22,29.04 27.05,28.79 27.05,28.48 C 27.05,28.18 27.22,27.93 27.42,27.93 C 27.62,27.93 27.79,28.17 27.79,28.48 H 27.89 C 27.89,28.09 27.69,27.78 27.42,27.78 C 27.15,27.78 26.94,28.09 26.94,28.48 C 26.94,28.88 27.15,29.19 27.42,29.19 S 27.9,28.87 27.9,28.49 H 27.84" fill="rgb(156, 121, 60)"/>
<path d="M 27.889999999999997,28.235 C 27.9,28.37 27.85,28.49 27.76,28.58 A 0.48,0.48 0 0,1 26.94,28.25 C 26.94,28.12 26.99,28 27.08,27.91 A 0.48,0.48 0 0,1 27.76,27.91 C 27.85,28 27.9,28.12 27.9,28.25 Z" fill="rgb(224, 210, 184)"/>
<path d="M 27.83,27.985 H 27.79 C 27.79,28.32 27.62,28.56 27.42,28.56 C 27.22,28.56 27.05,28.32 27.05,28.01 C 27.05,27.7 27.22,27.46 27.42,27.46 C 27.62,27.46 27.79,27.7 27.79,28.01 H 27.89 C 27.89,27.62 27.69,27.3 27.42,27.3 C 27.15,27.3 26.94,27.62 26.94,28 C 26.94,28.4 27.15,28.72 27.42,28.72 S 27.9,28.4 27.9,28.01 H 27.84" fill="rgb(156, 121, 60)"/>
<path d="M 28.849999999999998,28.224999999999998 C 28.86,28.37 28.81,28.49 28.72,28.58 A 0.48,0.48 0 0,1 27.9,28.24 C 27.9,28.12 27.95,28 28.04,27.91 A 0.48,0.48 0 0,1 28.86,28.24 Z" fill="rgb(224, 210, 184)"/>
<path d="M 28.79,27.985 H 28.74 C 28.74,28.32 28.58,28.56 28.38,28.56 C 28.18,28.56 28.01,28.32 28.01,28.01 C 28.01,27.7 28.18,27.46 28.38,27.46 C 28.58,27.46 28.74,27.7 28.74,28.01 H 28.86 C 28.86,27.62 28.64,27.3 28.38,27.3 C 28.11,27.3 27.9,27.62 27.9,28 C 27.9,28.4 28.11,28.72 28.38,28.72 C 28.64,28.72 28.85,28.4 28.86,28.01 H 28.8 Z" fill="rgb(156, 121, 60)"/>
<path d="M 30.29,30.125 C 30.3,30.26 30.24,30.38 30.15,30.47 A 0.48,0.48 0 0,1 29.33,30.14 C 29.33,30.01 29.38,29.89 29.47,29.8 A 0.48,0.48 0 0,1 30.29,30.14 Z" fill="rgb(224, 210, 184)"/>
<path d="M 30.229999999999997,29.884999999999998 H 30.18 C 30.18,30.21 30.01,30.45 29.81,30.45 C 29.61,30.45 29.45,30.21 29.44,29.9 C 29.44,29.6 29.61,29.35 29.81,29.35 C 30.01,29.35 30.18,29.59 30.18,29.9 H 30.29 C 30.29,29.51 30.08,29.2 29.81,29.2 C 29.55,29.2 29.34,29.51 29.34,29.9 C 29.34,30.3 29.54,30.61 29.81,30.61 C 30.08,30.61 30.29,30.29 30.29,29.91 H 30.24 Z" fill="rgb(156, 121, 60)"/>
<path d="M 30.759999999999998,28.705 A 0.47,0.47 0 0,1 30.47,29.16 A 0.48,0.48 0 0,1 29.95,29.06 A 0.47,0.47 0 0,1 29.81,28.72 C 29.81,28.59 29.86,28.47 29.95,28.38 A 0.48,0.48 0 0,1 30.77,28.72 Z" fill="rgb(224, 210, 184)"/>
<path d="M 30.709999999999997,28.945 H 30.66 C 30.66,29.26 30.49,29.51 30.29,29.51 C 30.09,29.51 29.92,29.26 29.92,28.96 C 29.92,28.65 30.09,28.4 30.29,28.4 C 30.49,28.4 30.66,28.65 30.66,28.96 H 30.77 C 30.77,28.56 30.56,28.25 30.29,28.25 C 30.03,28.25 29.81,28.57 29.81,28.95 C 29.81,29.35 30.03,29.66 30.29,29.66 C 30.56,29.66 30.77,29.34 30.77,28.96 H 30.72 Z" fill="rgb(156, 121, 60)"/>
<path d="M 31.72,30.125 C 31.73,30.26 31.68,30.38 31.59,30.47 A 0.48,0.48 0 0,1 30.77,30.14 C 30.77,30.01 30.82,29.89 30.91,29.8 A 0.48,0.48 0 0,1 31.73,30.14 Z" fill="rgb(224, 210, 184)"/>
<path d="M 31.66,29.884999999999998 H 31.62 C 31.62,30.21 31.45,30.45 31.25,30.45 C 31.05,30.45 30.88,30.21 30.88,29.9 C 30.88,29.6 31.05,29.35 31.25,29.35 C 31.45,29.35 31.62,29.59 31.62,29.9 H 31.72 C 31.72,29.51 31.52,29.2 31.25,29.2 C 30.98,29.2 30.77,29.51 30.77,29.9 C 30.77,30.3 30.98,30.61 31.25,30.61 S 31.73,30.29 31.73,29.91 H 31.67 Z" fill="rgb(156, 121, 60)"/>
<path d="M 26.45,28.705 C 26.46,28.84 26.41,28.96 26.32,29.05 A 0.48,0.48 0 0,1 25.5,28.72 C 25.5,28.59 25.56,28.47 25.64,28.38 A 0.48,0.48 0 0,1 26.46,28.72 Z" fill="rgb(224, 210, 184)"/>
<path d="M 26.389999999999997,28.465 H 26.35 C 26.35,28.79 26.18,29.03 25.98,29.04 C 25.78,29.04 25.61,28.79 25.61,28.48 C 25.61,28.18 25.78,27.93 25.98,27.93 C 26.18,27.93 26.35,28.17 26.35,28.48 H 26.46 C 26.46,28.09 26.25,27.78 25.98,27.78 C 25.72,27.78 25.51,28.09 25.5,28.48 C 25.5,28.88 25.72,29.19 25.98,29.19 C 26.25,29.19 26.46,28.87 26.46,28.49 H 26.41 Z" fill="rgb(156, 121, 60)"/>
</svg>
