<?xml version="1.0" encoding="UTF-8"?>
<!-- generated by Finnhub -->
<svg viewBox="0 0 55.5 55.5" xmlns="http://www.w3.org/2000/svg">
<path d="M 0,0 H 55.5 V 55.5 H 0 Z" fill="rgb(239, 242, 248)"/>
<path d="M 33.22,13.885 L 25.6,13.88 C 24.31,13.88 23.25,14.25 22.42,14.99 C 21.62,15.71 21.59,16.6 22.33,17.66 A 8,8 0 0,0 25.55,20.36 L 27.59,21.26 C 29.55,22.09 30.97,22.79 31.86,23.36 A 9.5,9.5 0 0,1 35.2,26.83 C 36,28.32 36.42,29.83 36.47,31.38 A 8.9,8.9 0 0,1 35.38,35.96 A 18.02,18.02 0 0,1 30.6,41.66 A 14.65,14.65 0 0,1 23.93,44.7 C 20.25,45.31 16.61,44.99 13.03,43.73 C 13,43.72 13,43.7 13,43.68 L 13.03,43.59 C 16.01,44.54 19.01,44.89 22.04,44.65 A 14.06,14.06 0 0,0 32.55,38.85 C 34.38,36.44 34.92,33.91 34.18,31.25 A 9.1,9.1 0 0,0 32.47,28 A 10.75,10.75 0 0,0 30.25,25.9 C 29.73,25.53 28.81,25 27.49,24.31 L 26.26,23.67 A 18.45,18.45 0 0,1 23.58,21.97 A 12.86,12.86 0 0,1 21.15,19.84 C 20.45,18.94 20.19,17.93 20.38,16.81 C 20.65,15.21 21.41,14.11 22.65,13.51 C 23.28,13.18 24.48,13.03 26.25,13.02 H 37.7 C 37.82,13.02 37.9,13.03 37.92,13.06 C 38.03,13.19 38.02,13.31 37.9,13.4 L 32.08,17.61 C 32.04,17.65 32,17.63 31.98,17.56 C 31.97,17.51 31.98,17.47 32,17.46 C 32.65,16.93 33.1,16.46 33.33,16.02 A 2.4,2.4 0 0,0 33.48,14.09 C 33.44,13.97 33.35,13.91 33.23,13.9 Z M 23.05,22.55 L 25.25,23.98 C 25.3,24.01 25.32,24.05 25.32,24.1 V 31.19 C 25.32,31.84 25.42,32.28 25.59,32.49 C 25.89,32.86 26.34,33.06 26.93,33.11 C 26.98,33.11 27.03,33.14 27.05,33.2 C 27.08,33.25 27.07,33.3 27.04,33.35 A 59.8,59.8 0 0,1 23.37,37.98 A 37.1,37.1 0 0,1 18.15,42.63 C 18.05,42.7 18,42.68 18,42.56 V 42.4 A 0.2,0.2 0 0,1 18.07,42.25 C 20.62,39.93 22.05,38.12 22.37,36.81 C 22.75,35.33 23.01,33.8 23,32.21 V 22.58 C 23,22.54 23,22.52 23.05,22.55 Z M 30.55,32.4 C 30.47,32.46 30.47,32.53 30.53,32.6 L 31.39,33.56 C 31.64,33.84 31.64,34.11 31.39,34.39 L 30.8,35.02 A 0.2,0.2 0 0,1 30.58,35.07 A 0.19,0.19 0 0,1 30.45,34.89 V 34.37 A 0.3,0.3 0 0,0 30.35,34.13 L 26.15,30.33 C 25.92,30.13 25.95,30.03 26.26,30.03 H 27.23 C 27.43,30.03 27.61,30.09 27.76,30.23 L 29.27,31.59 C 29.43,31.73 29.58,31.73 29.74,31.59 L 29.84,31.49 C 30.76,30.58 31.42,30.09 31.83,30.04 C 32.23,29.99 32.59,29.99 32.9,30.04 C 32.95,30.05 32.98,30.08 33,30.13 A 0.1,0.1 0 0,1 32.96,30.24 L 30.54,32.4 Z M 29.83,37.18 L 30.09,36.9 C 30.16,36.82 30.16,36.74 30.07,36.66 L 27.61,34.43 A 0.17,0.17 0 0,1 27.56,34.35 C 27.36,33.76 27.6,33.29 28.3,32.93 C 28.51,32.83 28.62,32.89 28.62,33.11 V 33.61 C 28.62,33.73 28.66,33.83 28.76,33.91 C 29.77,34.71 30.66,35.5 31.4,36.29 C 31.69,36.61 31.7,36.92 31.4,37.24 C 31.14,37.54 30.76,37.87 30.27,38.27 C 30.05,38.44 29.93,38.61 29.91,38.76 C 29.84,39.28 30.03,39.6 30.48,39.71 C 30.61,39.73 30.78,39.76 31.02,39.78 C 31.06,39.78 31.09,39.81 31.09,39.85 V 39.96 C 31.09,39.99 31.07,40 31.05,40 H 27.93 C 27.83,40 27.81,39.96 27.88,39.88 L 27.96,39.8 A 0.1,0.1 0 0,1 28.06,39.76 C 28.86,39.83 29.25,39.53 29.22,38.86 A 0.4,0.4 0 0,0 29.08,38.56 L 27.72,37.33 C 27.42,37.05 27.37,36.75 27.59,36.4 C 27.77,36.11 28.02,35.87 28.34,35.67 C 28.39,35.64 28.44,35.64 28.49,35.67 C 28.54,35.7 28.57,35.74 28.57,35.8 C 28.57,36.44 28.8,36.92 29.29,37.25 C 29.49,37.38 29.67,37.35 29.83,37.18 Z" fill="rgb(213, 178, 84)"/>
</svg>
