<?xml version="1.0" encoding="UTF-8"?>
<!-- generated by Finnhub -->
<svg viewBox="0 0 55.5 55.5" xmlns="http://www.w3.org/2000/svg">
<path d="M 0,0 H 55.5 V 55.5 H 0 Z" fill="rgb(239, 242, 248)"/>
<path d="M 51.870000000000005,28.865 C 51.96,29.03 52,29.2 52,29.38 A 1.47,1.47 0 0,1 51.42,30.55 C 51.22,30.7 51,30.81 50.72,30.88 C 50.47,30.96 50.15,31 49.77,31 A 6.19,6.19 0 0,1 48,30.74 V 29.36 H 48.63 C 48.76,29.36 48.84,29.42 48.88,29.54 L 48.96,30.1 A 3.8,3.8 0 0,0 50.25,30.13 A 0.9,0.9 0 0,0 50.53,30 A 0.44,0.44 0 0,0 50.7,29.82 A 0.58,0.58 0 0,0 50.74,29.59 C 50.74,29.48 50.7,29.39 50.63,29.32 A 1.09,1.09 0 0,0 50.32,29.12 A 3.1,3.1 0 0,0 49.88,28.99 L 49.37,28.85 A 4.8,4.8 0 0,1 48.87,28.67 A 1.68,1.68 0 0,1 48.42,28.41 C 48.29,28.31 48.19,28.18 48.12,28.03 A 1.2,1.2 0 0,1 48,27.48 A 1.27,1.27 0 0,1 48.53,26.44 A 2,2 0 0,1 49.2,26.12 A 4.15,4.15 0 0,1 50.83,26.05 C 51.03,26.09 51.33,26.15 51.73,26.25 H 51.72 V 27.63 H 51.1 C 50.97,27.63 50.88,27.57 50.85,27.45 A 4.5,4.5 0 0,1 50.77,26.92 A 2.62,2.62 0 0,0 50.12,26.85 C 49.86,26.85 49.65,26.9 49.5,26.99 A 0.44,0.44 0 0,0 49.27,27.38 C 49.27,27.48 49.31,27.56 49.39,27.64 C 49.45,27.7 49.55,27.76 49.69,27.82 L 50.13,27.98 A 14.81,14.81 0 0,1 51.14,28.28 C 51.32,28.36 51.46,28.44 51.58,28.53 A 1,1 0 0,1 51.88,28.88 Z M 48,26.58 C 48,26.75 47.92,26.85 47.77,26.88 L 47.33,26.98 L 46.13,31 H 45.2 C 45.1,31 45.03,30.93 44.99,30.79 L 44.14,27.91 A 4,4 0 0,1 44,27.34 L 43.94,27.62 A 3.7,3.7 0 0,1 43.87,27.92 L 43,30.79 C 42.96,30.93 42.88,31 42.75,31 H 41.88 L 40.67,26.97 A 6.84,6.84 0 0,1 40.23,26.89 C 40.08,26.85 40,26.75 40,26.59 V 26 H 42.31 V 26.57 C 42.31,26.74 42.23,26.84 42.08,26.87 L 41.79,26.93 L 42.29,28.89 L 42.39,29.32 L 42.45,29.74 L 42.55,29.32 L 42.68,28.89 L 43.46,26.21 A 0.28,0.28 0 0,1 43.58,26.06 A 0.32,0.32 0 0,1 43.77,25.99 H 44.27 C 44.35,25.99 44.42,26.01 44.48,26.06 C 44.54,26.1 44.58,26.15 44.59,26.21 L 45.37,28.94 L 45.47,29.34 L 45.57,29.74 L 45.64,29.33 L 45.74,28.89 L 46.25,26.94 L 45.92,26.88 C 45.77,26.84 45.69,26.74 45.69,26.58 V 26 H 48 V 26.57 Z M 37.63,26 C 37.98,26 38.3,26.05 38.58,26.14 C 38.85,26.23 39.1,26.38 39.33,26.58 C 39.53,26.76 39.7,26.99 39.82,27.27 A 2.35,2.35 0 0,1 39.98,28.42 A 0.4,0.4 0 0,1 39.94,28.56 C 39.92,28.59 39.89,28.61 39.84,28.63 A 0.4,0.4 0 0,1 39.69,28.65 H 36.31 C 36.35,29.15 36.51,29.52 36.77,29.75 C 37.03,29.98 37.38,30.1 37.81,30.1 A 2.33,2.33 0 0,0 38.91,29.82 L 39.07,29.74 A 0.5,0.5 0 0,1 39.32,29.67 L 39.47,29.7 A 0.2,0.2 0 0,1 39.57,29.78 L 39.95,30.2 A 2.4,2.4 0 0,1 38.89,30.84 A 4.49,4.49 0 0,1 37.69,31 C 37.29,31 36.94,30.95 36.63,30.84 A 2.5,2.5 0 0,1 35.78,30.34 A 2.28,2.28 0 0,1 35.2,29.52 A 2.85,2.85 0 0,1 35.18,27.47 C 35.3,27.18 35.47,26.93 35.7,26.7 C 35.92,26.49 36.2,26.32 36.52,26.19 C 36.85,26.06 37.22,26 37.63,26 Z M 37.65,26.83 C 37.28,26.83 36.98,26.93 36.75,27.13 C 36.55,27.32 36.41,27.65 36.35,28 H 38.82 C 38.82,27.87 38.79,27.67 38.74,27.52 A 1.09,1.09 0 0,0 38.53,27.16 A 0.93,0.93 0 0,0 38.17,26.93 A 1.4,1.4 0 0,0 37.65,26.83 Z M 34.7,24.57 C 34.7,24.9 34.24,24.96 34,25 V 31 H 33.36 A 0.59,0.59 0 0,1 33.12,30.95 A 0.51,0.51 0 0,1 32.92,30.78 L 29.5,26.12 V 30 L 30.08,30.13 C 30.23,30.17 30.31,30.27 30.31,30.43 V 31 H 27.7 V 30.43 C 27.7,30.09 28.25,30.04 28.5,30 V 25 C 28.25,24.96 27.7,24.9 27.7,24.57 V 24 H 29.04 C 29.24,24.01 29.32,24.05 29.45,24.21 L 33,28.9 V 25 L 32.31,24.87 C 32.16,24.83 32.08,24.73 32.08,24.57 V 24 H 34.7 V 24.57 Z M 27,30.44 V 31 H 24 V 30.44 C 24,30.1 24.76,30.04 25,30 V 24.93 C 24.76,24.9 24,24.9 24,24.56 V 24 H 26 V 30 C 26.24,30.02 27,30.05 27,30.44 Z" fill="rgb(24, 51, 63)"/>
<path d="M 23.99,30.355 V 31 H 22.8 A 0.66,0.66 0 0,1 22.51,30.95 C 22.44,30.93 22.39,30.85 22.36,30.75 L 22.24,30.33 C 21.76,30.76 21.17,31 20.52,31 C 19.72,31 19,30.56 19,29.7 C 19,28.84 19.94,28.47 20.63,28.3 C 21.03,28.21 21.53,28.17 22.13,28.17 V 27.88 C 22.13,27.28 21.86,26.92 21.27,26.92 A 1.57,1.57 0 0,0 20.4,27.14 L 20.12,27.28 A 0.54,0.54 0 0,1 19.85,27.35 A 0.42,0.42 0 0,1 19.62,27.29 A 0.57,0.57 0 0,1 19.48,27.14 L 19.24,26.77 A 3.27,3.27 0 0,1 21.42,26 C 22.52,26 23.36,26.75 23.36,27.87 V 30.01 C 23.59,30.05 24,30.05 24,30.37 Z M 22.13,28.87 C 21.75,28.87 21.45,28.89 21.21,28.94 C 20.96,28.99 20.76,29.04 20.61,29.11 C 20.32,29.23 20.21,29.39 20.21,29.63 C 20.21,30.03 20.53,30.2 20.91,30.2 C 21.39,30.2 21.78,30 22.13,29.68 V 28.88 Z M 16.33,26 C 16.53,26 16.73,26.02 16.96,26.07 C 17.15,26.11 17.33,26.17 17.5,26.27 H 19 V 26.73 C 19,26.81 18.98,26.87 18.94,26.91 A 0.41,0.41 0 0,1 18.74,27 L 18.27,27.08 L 18.34,27.36 L 18.37,27.66 A 1.49,1.49 0 0,1 17.79,28.86 A 2.59,2.59 0 0,1 16.33,29.31 C 16.1,29.31 15.9,29.29 15.74,29.26 C 15.58,29.36 15.5,29.46 15.5,29.58 C 15.5,29.68 15.55,29.76 15.64,29.81 C 15.74,29.86 15.87,29.89 16.04,29.91 A 4.62,4.62 0 0,0 16.83,29.96 C 16.93,29.96 17.05,29.96 17.18,29.98 L 17.81,30.07 C 17.98,30.1 18.16,30.17 18.34,30.27 C 18.5,30.35 18.63,30.47 18.72,30.63 C 18.82,30.77 18.87,30.97 18.87,31.23 C 18.87,31.45 18.81,31.67 18.69,31.88 C 18.59,32.1 18.42,32.28 18.2,32.45 C 18,32.62 17.73,32.75 17.4,32.85 A 4.1,4.1 0 0,1 15.29,32.89 A 2.9,2.9 0 0,1 14.57,32.59 A 1.14,1.14 0 0,1 14,31.65 C 14,31.4 14.07,31.2 14.22,31.05 C 14.37,30.89 14.57,30.77 14.85,30.67 A 0.8,0.8 0 0,1 14.42,29.93 C 14.42,29.84 14.43,29.76 14.46,29.69 C 14.5,29.59 14.54,29.5 14.58,29.45 C 14.65,29.36 14.72,29.29 14.8,29.22 C 14.85,29.17 14.95,29.12 15.1,29.03 A 1.7,1.7 0 0,1 14.47,28.47 C 14.32,28.25 14.24,27.97 14.24,27.66 C 14.24,27.4 14.3,27.16 14.4,26.96 C 14.5,26.76 14.65,26.59 14.84,26.45 C 15.02,26.31 15.24,26.2 15.49,26.12 C 15.75,26.04 16.03,26 16.33,26 Z M 16.33,28.52 C 16.48,28.52 16.62,28.5 16.73,28.46 C 16.85,28.42 16.95,28.36 17.02,28.29 A 0.6,0.6 0 0,0 17.19,28.02 C 17.23,27.92 17.26,27.82 17.26,27.69 A 0.8,0.8 0 0,0 17.02,27.09 C 16.87,26.94 16.64,26.87 16.32,26.87 C 16.01,26.87 15.77,26.94 15.62,27.09 A 0.8,0.8 0 0,0 15.4,27.69 C 15.4,27.82 15.41,27.94 15.45,28.02 A 0.76,0.76 0 0,0 15.92,28.46 C 16.04,28.5 16.18,28.52 16.32,28.52 Z M 17.7,31.43 C 17.7,31.33 17.67,31.25 17.61,31.2 A 0.72,0.72 0 0,0 17.37,31.05 C 17.29,31.02 17.17,30.99 16.99,30.97 A 9.2,9.2 0 0,0 16.54,30.93 L 16.05,30.91 A 7.8,7.8 0 0,1 15.57,30.87 C 15.41,30.95 15.3,31.04 15.22,31.14 A 0.55,0.55 0 0,0 15.09,31.49 C 15.09,31.57 15.12,31.65 15.16,31.74 C 15.2,31.82 15.28,31.89 15.38,31.95 C 15.48,32.01 15.61,32.05 15.78,32.08 A 3.26,3.26 0 0,0 16.97,32.08 C 17.15,32.03 17.29,31.98 17.39,31.93 C 17.49,31.88 17.58,31.81 17.63,31.71 A 0.5,0.5 0 0,0 17.7,31.43 Z M 11.63,26 C 11.98,26 12.3,26.05 12.58,26.14 C 12.85,26.23 13.1,26.38 13.33,26.58 C 13.53,26.76 13.7,26.99 13.82,27.27 A 2.35,2.35 0 0,1 13.98,28.42 A 0.4,0.4 0 0,1 13.94,28.56 C 13.92,28.59 13.89,28.61 13.84,28.63 A 0.4,0.4 0 0,1 13.69,28.65 H 10.31 C 10.35,29.15 10.51,29.52 10.77,29.75 C 11.03,29.98 11.38,30.1 11.81,30.1 A 2.33,2.33 0 0,0 12.91,29.82 L 13.07,29.74 A 0.5,0.5 0 0,1 13.32,29.67 L 13.47,29.7 A 0.2,0.2 0 0,1 13.57,29.78 L 13.95,30.2 A 2.4,2.4 0 0,1 12.89,30.84 A 4.49,4.49 0 0,1 11.69,31 C 11.29,31 10.94,30.95 10.63,30.84 A 2.5,2.5 0 0,1 9.78,30.34 A 2.28,2.28 0 0,1 9.2,29.52 A 2.85,2.85 0 0,1 9.18,27.47 C 9.29,27.18 9.47,26.93 9.7,26.7 C 9.92,26.49 10.2,26.32 10.52,26.19 C 10.85,26.06 11.22,26 11.63,26 Z M 11.65,26.83 C 11.28,26.83 10.98,26.93 10.75,27.13 C 10.55,27.32 10.41,27.65 10.35,28 H 12.82 C 12.82,27.87 12.79,27.67 12.74,27.52 A 1.09,1.09 0 0,0 12.53,27.16 A 0.93,0.93 0 0,0 12.17,26.93 A 1.4,1.4 0 0,0 11.65,26.83 Z M 9,31 H 4 V 30.43 C 4,30.08 4.75,30.08 5,30.04 V 25 C 4.75,24.96 4,24.91 4,24.57 V 24 H 6.73 V 24.57 C 6.73,24.92 6.25,24.96 6,25 V 30 H 8 L 8.04,29.5 C 8.07,29.39 8.14,29.32 8.26,29.32 H 9 V 31 Z" fill="rgb(24, 51, 63)"/>
</svg>
