<?xml version="1.0" encoding="UTF-8"?>
<!-- generated by Finnhub -->
<svg viewBox="0 0 55.5 55.5" xmlns="http://www.w3.org/2000/svg">
<path d="M 0,0 H 55.5 V 55.5 H 0 Z" fill="rgb(239, 242, 248)"/>
<path d="M 45.99,14.985 H 10 V 41 H 46 V 15 Z M 45,16 H 11 V 40 H 45 V 16 Z" fill="rgb(180, 151, 73)" fill-rule="evenodd"/>
<path d="M 45.49,15.485 H 10.5 V 40.5 H 45.5 V 15.5 Z M 10,15 V 41 H 46 V 15 H 10 Z" fill="rgb(37, 34, 18)" fill-rule="evenodd"/>
<path d="M 27.99,26.595 V 17.01 L 13,28.73 V 38.93 L 28,26.6 Z M 28.42,27.14 V 24.86 H 28.94 V 26.8 C 28.94,26.84 28.94,26.86 28.96,26.88 C 28.97,26.89 28.99,26.9 29.03,26.9 H 29.71 L 29.8,26.88 A 0.2,0.2 0 0,0 29.86,26.82 L 30.05,26.54 C 30.05,26.52 30.07,26.52 30.09,26.52 L 30.19,26.55 L 30.21,26.59 L 30.14,27.05 C 30.14,27.08 30.12,27.11 30.11,27.12 C 30.11,27.14 30.09,27.14 30.07,27.15 H 29.95 L 29.77,27.14 H 28.42 Z M 29.77,26.37 C 29.75,26.37 29.73,26.37 29.72,26.34 L 29.67,26.19 L 29.61,26.13 A 0.15,0.15 0 0,0 29.54,26.11 H 28.94 V 25.87 H 29.53 C 29.57,25.87 29.59,25.87 29.62,25.85 A 0.15,0.15 0 0,0 29.66,25.79 L 29.72,25.65 A 0.05,0.05 0 0,1 29.77,25.63 H 29.85 C 29.87,25.63 29.88,25.63 29.88,25.66 V 26.34 C 29.88,26.36 29.88,26.37 29.85,26.37 H 29.77 Z M 30.03,25.46 C 30.01,25.46 29.99,25.46 29.98,25.44 L 29.84,25.18 A 0.17,0.17 0 0,0 29.78,25.12 A 0.14,0.14 0 0,0 29.71,25.1 H 28.94 V 24.86 H 29.78 L 30.03,24.83 H 30.1 L 30.12,24.88 A 0.5,0.5 0 0,1 30.13,24.99 L 30.14,25.41 C 30.14,25.43 30.14,25.44 30.11,25.44 L 30.03,25.46 Z M 28.13,27.14 C 28.11,27.14 28.1,27.13 28.1,27.11 V 27.04 C 28.1,27.02 28.11,27.01 28.13,27 L 28.35,26.94 C 28.38,26.94 28.4,26.92 28.41,26.91 L 28.42,26.84 V 26.51 H 28.94 V 27.14 H 28.14 Z M 28.1,24.89 C 28.1,24.87 28.11,24.86 28.13,24.86 H 28.93 V 25.49 H 28.43 V 25.15 L 28.41,25.08 L 28.35,25.05 L 28.13,24.99 C 28.11,24.99 28.1,24.97 28.1,24.95 V 24.89 Z M 30.92,27.14 V 24.86 H 31.42 V 26.8 C 31.42,26.84 31.44,26.86 31.45,26.88 L 31.52,26.9 H 32.12 L 32.2,26.88 A 0.2,0.2 0 0,0 32.26,26.82 L 32.43,26.54 C 32.44,26.52 32.46,26.52 32.48,26.52 L 32.57,26.55 L 32.59,26.59 L 32.52,27.05 L 32.5,27.12 C 32.5,27.14 32.48,27.14 32.45,27.15 H 32.34 L 32.16,27.14 H 30.92 Z M 30.62,27.14 C 30.61,27.14 30.6,27.13 30.6,27.11 V 27.04 C 30.6,27.02 30.6,27.01 30.63,27 L 30.83,26.94 C 30.87,26.94 30.89,26.92 30.9,26.91 L 30.92,26.84 V 26.51 H 31.42 V 27.14 H 30.62 Z M 30.6,24.89 C 30.6,24.87 30.6,24.86 30.63,24.86 H 31.73 C 31.74,24.86 31.75,24.86 31.75,24.89 V 24.95 C 31.75,24.97 31.75,24.98 31.73,24.99 L 31.5,25.05 A 0.11,0.11 0 0,0 31.44,25.08 L 31.43,25.15 V 25.49 H 30.92 V 25.15 C 30.92,25.12 30.92,25.1 30.9,25.08 L 30.84,25.05 L 30.63,24.99 C 30.61,24.99 30.6,24.97 30.6,24.95 V 24.89 Z M 33.23,27.14 V 24.86 H 33.74 V 27.14 H 33.23 Z M 33.23,25.82 A 11.68,11.68 0 0,0 35.26,25.82 V 26.07 A 11.85,11.85 0 0,1 33.23,26.07 V 25.82 Z M 34.75,27.14 V 24.86 H 35.26 V 27.14 H 34.75 Z M 34.45,27.14 C 34.44,27.14 34.43,27.13 34.43,27.11 V 27.04 C 34.43,27.02 34.44,27.01 34.46,27 L 34.67,26.94 C 34.71,26.94 34.73,26.92 34.73,26.91 L 34.75,26.84 V 26.51 H 35.26 V 26.84 C 35.26,26.87 35.26,26.9 35.28,26.91 L 35.33,26.94 L 35.56,27 C 35.58,27.01 35.59,27.02 35.59,27.04 V 27.11 C 35.59,27.13 35.58,27.14 35.56,27.14 H 34.46 Z M 32.94,27.14 C 32.92,27.14 32.91,27.13 32.91,27.11 V 27.04 C 32.91,27.02 32.92,27.01 32.94,27 L 33.15,26.94 C 33.19,26.94 33.21,26.92 33.22,26.91 V 26.51 H 33.74 V 26.84 C 33.74,26.87 33.74,26.9 33.76,26.91 L 33.81,26.94 L 34.04,27 C 34.06,27.01 34.07,27.02 34.07,27.04 V 27.11 C 34.07,27.13 34.06,27.14 34.04,27.14 H 32.94 Z M 34.44,24.89 C 34.44,24.87 34.44,24.86 34.46,24.86 H 35.56 C 35.58,24.86 35.59,24.86 35.59,24.89 V 24.95 C 35.59,24.97 35.58,24.98 35.56,24.99 L 35.33,25.05 A 0.12,0.12 0 0,0 35.28,25.08 L 35.26,25.15 V 25.49 H 34.75 V 25.15 C 34.75,25.12 34.75,25.1 34.73,25.08 L 34.67,25.05 L 34.46,24.99 C 34.44,24.99 34.43,24.97 34.43,24.95 V 24.89 Z M 32.91,24.89 C 32.91,24.87 32.92,24.86 32.94,24.86 H 34.04 C 34.06,24.86 34.07,24.86 34.07,24.89 V 24.95 C 34.07,24.97 34.06,24.98 34.04,24.99 L 33.81,25.05 A 0.12,0.12 0 0,0 33.76,25.08 L 33.74,25.15 V 25.49 H 33.23 V 25.15 L 33.22,25.08 L 33.15,25.05 L 32.94,24.99 C 32.92,24.99 32.91,24.97 32.91,24.95 V 24.89 Z M 36.2,27.14 V 24.86 H 36.72 V 27.14 H 36.21 Z M 35.92,27.14 C 35.9,27.14 35.89,27.13 35.89,27.11 V 27.04 C 35.89,27.02 35.89,27.01 35.92,27 L 36.13,26.94 C 36.17,26.94 36.19,26.92 36.2,26.91 V 26.51 H 36.72 V 26.84 C 36.72,26.87 36.72,26.9 36.74,26.91 L 36.79,26.94 L 37.02,27 C 37.04,27.01 37.05,27.02 37.05,27.04 V 27.11 C 37.05,27.13 37.04,27.14 37.02,27.14 H 35.92 Z M 35.89,24.89 C 35.89,24.87 35.89,24.86 35.92,24.86 H 37.02 C 37.04,24.86 37.05,24.86 37.05,24.89 V 24.95 C 37.05,24.97 37.04,24.98 37.02,24.99 L 36.79,25.05 A 0.12,0.12 0 0,0 36.74,25.08 L 36.72,25.15 V 25.49 H 36.21 V 25.15 L 36.2,25.08 L 36.13,25.05 L 35.92,24.99 C 35.9,24.99 35.89,24.97 35.89,24.95 V 24.89 Z M 36.1,33.01 C 35.85,33.01 35.64,32.96 35.45,32.86 C 35.27,32.76 35.12,32.63 35.02,32.46 C 34.92,32.27 34.87,32.06 34.87,31.83 A 1.09,1.09 0 0,1 35.46,30.8 C 35.64,30.7 35.86,30.65 36.1,30.65 C 36.35,30.65 36.56,30.7 36.75,30.8 C 36.94,30.9 37.08,31.04 37.18,31.21 C 37.28,31.39 37.34,31.6 37.34,31.83 C 37.34,32.07 37.28,32.27 37.18,32.45 S 36.94,32.77 36.75,32.86 C 36.56,32.96 36.35,33.01 36.1,33.01 Z M 36.1,32.73 C 36.24,32.73 36.36,32.7 36.46,32.63 C 36.56,32.55 36.65,32.45 36.7,32.32 C 36.75,32.18 36.78,32.02 36.78,31.84 C 36.78,31.65 36.75,31.49 36.7,31.36 A 0.7,0.7 0 0,0 36.46,31.04 A 0.6,0.6 0 0,0 36.09,30.94 A 0.6,0.6 0 0,0 35.73,31.04 A 0.68,0.68 0 0,0 35.5,31.34 C 35.45,31.48 35.42,31.64 35.42,31.82 C 35.42,32.01 35.45,32.17 35.5,32.3 C 35.56,32.44 35.64,32.54 35.74,32.62 C 35.84,32.69 35.96,32.73 36.09,32.73 Z M 38.44,32 V 31.77 H 38.69 C 38.82,31.77 38.91,31.73 38.99,31.66 C 39.05,31.58 39.09,31.47 39.09,31.34 C 39.09,31.2 39.05,31.1 38.99,31.04 C 38.92,30.97 38.82,30.94 38.69,30.94 H 38.44 V 30.69 H 38.69 C 38.99,30.69 39.21,30.75 39.37,30.86 C 39.52,30.96 39.59,31.12 39.59,31.34 C 39.59,31.55 39.52,31.72 39.36,31.84 A 1.1,1.1 0 0,1 38.69,32.01 H 38.44 Z M 37.92,33 V 30.7 H 38.44 V 33 H 37.92 Z M 39.36,33 H 39.29 A 0.11,0.11 0 0,1 39.24,32.96 A 1.73,1.73 0 0,1 39.17,32.86 L 38.74,32.18 A 0.56,0.56 0 0,0 38.65,32.07 A 0.18,0.18 0 0,0 38.52,32.01 L 38.74,31.91 A 0.64,0.64 0 0,1 39.14,32.06 C 39.19,32.11 39.24,32.21 39.31,32.28 L 39.65,32.71 C 39.67,32.74 39.69,32.77 39.72,32.78 A 0.4,0.4 0 0,0 39.79,32.82 L 39.93,32.87 L 39.95,32.91 V 32.97 C 39.95,32.99 39.95,33 39.92,33 H 39.36 Z M 37.64,33 C 37.62,33 37.61,33 37.61,32.97 V 32.91 C 37.61,32.89 37.61,32.88 37.64,32.87 L 37.84,32.81 L 37.91,32.78 L 37.92,32.71 V 32.37 H 38.44 V 32.71 L 38.45,32.78 L 38.51,32.81 L 38.74,32.87 L 38.76,32.91 V 32.97 C 38.76,32.99 38.76,33 38.73,33 H 37.63 Z M 37.61,30.72 C 37.61,30.7 37.61,30.69 37.64,30.69 H 38.44 V 31.32 H 37.92 V 30.92 L 37.85,30.88 L 37.64,30.83 C 37.62,30.82 37.61,30.81 37.61,30.79 V 30.72 Z M 40.41,33 V 30.7 H 40.92 V 33 H 40.42 Z M 40.12,33 C 40.1,33 40.09,32.99 40.09,32.97 V 32.9 C 40.09,32.88 40.1,32.87 40.12,32.86 L 40.33,32.81 L 40.4,32.77 L 40.41,32.71 V 32.37 H 40.92 V 32.69 L 40.94,32.76 L 41,32.78 L 41.35,32.86 C 41.37,32.87 41.38,32.88 41.38,32.9 V 32.97 C 41.38,32.99 41.38,33 41.35,33 H 40.12 Z M 40.09,30.72 C 40.09,30.7 40.1,30.69 40.12,30.69 H 40.92 V 31.32 H 40.42 V 30.98 L 40.4,30.92 C 40.39,30.91 40.37,30.89 40.33,30.88 L 40.13,30.83 C 40.1,30.82 40.09,30.81 40.09,30.79 V 30.72 Z M 40.92,31.84 A 7.59,7.59 0 0,0 41.12,31.84 C 41.27,31.84 41.39,31.81 41.46,31.73 S 41.57,31.53 41.57,31.38 C 41.57,31.08 41.43,30.93 41.14,30.93 H 40.92 V 30.69 H 41.2 C 41.48,30.69 41.7,30.75 41.86,30.87 A 0.6,0.6 0 0,1 42.09,31.37 C 42.09,31.6 42.02,31.77 41.87,31.9 A 0.95,0.95 0 0,1 41.24,32.09 A 4.42,4.42 0 0,1 40.92,32.07 V 31.84 Z" fill="rgb(37, 34, 18)"/>
<path d="M 19.389999999999997,33.205 C 19.37,33.22 19.36,33.22 19.36,33.19 V 33.13 C 19.36,33.11 19.37,33.09 19.39,33.09 L 19.52,33.05 A 0.2,0.2 0 0,0 19.59,33 A 0.23,0.23 0 0,0 19.64,32.94 L 20.48,31 C 20.48,30.98 20.5,30.97 20.52,30.97 L 20.74,30.92 C 20.76,30.92 20.77,30.92 20.77,30.94 L 20.82,31.11 L 21.67,32.93 C 21.68,32.97 21.7,32.99 21.72,33.01 L 21.79,33.05 L 21.91,33.09 L 21.93,33.13 V 33.19 C 21.93,33.21 21.93,33.22 21.9,33.22 H 20.8 C 20.79,33.22 20.78,33.22 20.78,33.19 V 33.13 C 20.78,33.11 20.78,33.1 20.8,33.09 L 20.98,33.05 C 21.04,33.03 21.08,33.01 21.08,32.98 C 21.09,32.96 21.08,32.92 21.07,32.88 L 20.39,31.34 L 20.67,31.17 L 19.97,32.87 C 19.94,32.92 19.94,32.97 19.95,32.99 C 19.97,33.01 20,33.03 20.05,33.04 L 20.25,33.09 C 20.27,33.09 20.28,33.11 20.28,33.13 V 33.19 C 20.28,33.21 20.27,33.22 20.25,33.22 H 19.39 Z M 20,32.29 A 9.53,9.53 0 0,0 21.2,32.29 V 32.53 A 9.43,9.43 0 0,1 20,32.53 V 32.29 Z M 24.5,31.14 A 0.12,0.12 0 0,0 24.45,31.17 L 24.44,31.24 V 33.21 C 24.44,33.23 24.43,33.24 24.4,33.24 H 24.25 C 24.23,33.24 24.21,33.24 24.19,33.22 L 22.64,31.34 L 22.88,31.1 V 32.93 C 22.88,32.96 22.88,32.98 22.9,33 L 22.96,33.03 L 23.17,33.09 C 23.19,33.09 23.2,33.11 23.2,33.13 V 33.19 C 23.2,33.21 23.19,33.22 23.17,33.22 H 22.28 C 22.26,33.22 22.25,33.22 22.25,33.19 V 33.13 C 22.25,33.11 22.26,33.1 22.28,33.09 L 22.51,33.03 C 22.54,33.03 22.55,33.01 22.56,33 C 22.58,32.99 22.58,32.96 22.58,32.93 V 31.25 C 22.58,31.22 22.58,31.19 22.56,31.18 A 0.12,0.12 0 0,0 22.5,31.14 L 22.28,31.08 C 22.26,31.07 22.25,31.06 22.25,31.04 V 30.97 C 22.25,30.95 22.26,30.94 22.28,30.94 H 22.92 C 22.94,30.94 22.96,30.95 22.97,30.97 L 24.36,32.64 L 24.13,33 V 31.24 L 24.12,31.17 L 24.05,31.14 L 23.85,31.08 C 23.83,31.08 23.82,31.06 23.82,31.04 V 30.97 C 23.82,30.95 23.83,30.94 23.85,30.94 H 24.73 C 24.75,30.94 24.76,30.95 24.76,30.97 V 31.04 C 24.76,31.06 24.76,31.07 24.73,31.08 L 24.51,31.14 Z M 26.5,33.22 C 26.48,33.22 26.47,33.22 26.47,33.19 V 33.13 C 26.47,33.11 26.48,33.1 26.5,33.09 H 26.55 C 26.61,33.07 26.65,33.06 26.65,33.04 C 26.65,33.02 26.65,32.99 26.61,32.94 L 25.9,32.1 L 26.7,31.25 C 26.75,31.2 26.77,31.17 26.76,31.15 C 26.75,31.13 26.72,31.11 26.66,31.11 L 26.51,31.07 C 26.49,31.07 26.48,31.06 26.48,31.04 V 30.97 C 26.48,30.95 26.49,30.94 26.51,30.94 H 27.41 C 27.43,30.94 27.44,30.95 27.44,30.97 V 31.04 C 27.44,31.06 27.44,31.07 27.41,31.08 L 27.28,31.11 A 0.32,0.32 0 0,0 27.19,31.14 A 0.37,0.37 0 0,0 27.13,31.19 L 26.19,32.14 L 26.31,31.91 L 27.24,32.97 L 27.31,33.03 L 27.39,33.07 L 27.5,33.09 C 27.52,33.09 27.53,33.11 27.53,33.13 V 33.19 C 27.53,33.21 27.53,33.22 27.5,33.22 H 26.5 Z M 25.43,33.22 V 30.94 H 25.94 V 33.22 H 25.43 Z M 25.13,33.22 C 25.12,33.22 25.11,33.22 25.11,33.19 V 33.13 C 25.11,33.11 25.11,33.1 25.14,33.09 L 25.35,33.03 L 25.42,33 V 32.59 H 25.94 V 32.93 C 25.94,32.96 25.94,32.99 25.96,33 L 26.01,33.03 L 26.24,33.09 C 26.26,33.09 26.27,33.11 26.27,33.13 V 33.19 C 26.27,33.21 26.26,33.22 26.24,33.22 H 25.14 Z M 25.11,30.97 C 25.11,30.95 25.11,30.94 25.14,30.94 H 26.24 C 26.26,30.94 26.27,30.95 26.27,30.97 V 31.04 C 26.27,31.06 26.26,31.07 26.24,31.08 L 26.01,31.14 A 0.12,0.12 0 0,0 25.96,31.17 L 25.94,31.24 V 31.57 H 25.43 V 31.24 L 25.42,31.17 L 25.35,31.14 L 25.14,31.08 C 25.12,31.08 25.11,31.06 25.11,31.04 V 30.97 Z" fill="rgb(37, 34, 18)"/>
<path d="M 22.689999999999998,27.985 V 22 H 24 V 27.12 C 24,27.22 24.03,27.28 24.06,27.32 C 24.1,27.35 24.16,27.37 24.23,27.37 H 24.7 C 25.07,27.37 25.38,27.27 25.64,27.09 C 25.9,26.89 26.1,26.62 26.24,26.27 C 26.39,25.91 26.46,25.49 26.46,25 C 26.46,24.5 26.39,24.08 26.24,23.73 A 1.75,1.75 0 0,0 25.64,22.93 C 25.38,22.73 25.07,22.63 24.7,22.63 H 24 V 22 H 24.7 C 25.37,22 25.94,22.12 26.41,22.35 C 26.89,22.59 27.25,22.93 27.5,23.38 C 27.74,23.82 27.86,24.36 27.86,25 C 27.86,25.63 27.74,26.17 27.49,26.62 C 27.24,27.07 26.89,27.42 26.41,27.65 A 3.8,3.8 0 0,1 24.7,28 H 22.7 Z M 21.9,22.08 C 21.9,22.03 21.93,22 21.98,22 H 24 V 23.66 H 22.7 V 22.76 C 22.7,22.69 22.69,22.63 22.67,22.6 C 22.65,22.56 22.59,22.53 22.51,22.5 L 21.97,22.35 C 21.92,22.34 21.89,22.3 21.89,22.25 V 22.08 Z M 21.98,28 C 21.93,28 21.9,27.97 21.9,27.92 V 27.74 C 21.9,27.7 21.93,27.66 21.98,27.64 L 22.52,27.5 C 22.6,27.46 22.66,27.43 22.68,27.4 C 22.7,27.37 22.71,27.31 22.71,27.23 V 26.34 H 24 V 28 H 21.97 Z M 15,33.5 V 27.8 H 16.39 V 32.66 C 16.39,32.76 16.41,32.82 16.44,32.86 C 16.48,32.89 16.54,32.9 16.62,32.9 H 17.04 C 17.44,32.9 17.74,32.82 17.94,32.66 C 18.13,32.49 18.22,32.25 18.22,31.91 C 18.22,31.58 18.12,31.33 17.92,31.17 C 17.72,31.02 17.42,30.94 16.99,30.94 H 16.39 V 30.34 H 16.99 C 17.31,30.34 17.55,30.24 17.72,30.07 C 17.89,29.89 17.97,29.63 17.97,29.3 C 17.97,29 17.89,28.78 17.74,28.63 C 17.58,28.48 17.35,28.4 17.04,28.4 H 16.39 V 27.8 H 17.04 C 17.79,27.8 18.35,27.92 18.72,28.16 C 19.09,28.4 19.28,28.76 19.28,29.25 C 19.28,29.48 19.22,29.68 19.11,29.85 C 18.99,30.02 18.85,30.17 18.67,30.28 A 1.86,1.86 0 0,1 17.65,30.61 V 30.5 A 2.5,2.5 0 0,1 18.61,30.7 C 18.79,30.76 18.97,30.85 19.12,30.96 C 19.28,31.07 19.41,31.21 19.51,31.37 C 19.61,31.53 19.66,31.73 19.66,31.95 C 19.66,32.48 19.45,32.87 19.02,33.12 C 18.6,33.37 17.94,33.5 17.04,33.5 H 15 Z M 14.24,33.5 C 14.19,33.5 14.17,33.48 14.17,33.43 V 33.26 C 14.17,33.21 14.19,33.18 14.24,33.16 L 14.8,33.02 C 14.89,32.99 14.94,32.96 14.96,32.93 A 0.29,0.29 0 0,0 15,32.77 V 31.93 H 16.39 V 33.5 H 14.24 Z M 14.17,27.88 C 14.17,27.83 14.19,27.8 14.24,27.8 H 16.39 V 29.38 H 14.99 V 28.53 A 0.29,0.29 0 0,0 14.96,28.37 C 14.94,28.34 14.89,28.31 14.8,28.28 L 14.24,28.14 C 14.19,28.12 14.17,28.09 14.17,28.04 V 27.88 Z" fill="rgb(180, 151, 73)"/>
<path d="M 32.18,33.585 C 31.59,33.6 31.04,33.48 30.58,33.23 C 30.12,32.98 29.76,32.63 29.5,32.19 A 3.07,3.07 0 0,1 29.12,30.65 C 29.12,30.06 29.24,29.55 29.5,29.11 C 29.76,28.67 30.12,28.32 30.58,28.08 C 31.04,27.83 31.58,27.7 32.18,27.7 C 32.49,27.7 32.76,27.73 33,27.79 C 33.24,27.84 33.43,27.89 33.57,27.94 L 33.92,28 C 33.99,28 34.05,28.03 34.08,28.05 C 34.12,28.07 34.14,28.11 34.16,28.17 L 34.19,28.47 L 34.27,29.74 C 34.27,29.79 34.25,29.82 34.2,29.83 L 33.9,29.86 C 33.86,29.87 33.82,29.86 33.8,29.8 L 33.51,29.09 A 0.8,0.8 0 0,0 33.31,28.77 C 33.16,28.65 33.01,28.55 32.82,28.49 A 1.82,1.82 0 0,0 31.31,28.67 C 31.05,28.85 30.85,29.11 30.71,29.45 C 30.58,29.78 30.51,30.18 30.51,30.65 C 30.51,31.11 30.57,31.52 30.71,31.85 C 30.84,32.19 31.04,32.45 31.28,32.63 C 31.54,32.81 31.83,32.9 32.18,32.9 C 32.4,32.9 32.61,32.87 32.79,32.82 C 32.98,32.76 33.14,32.67 33.29,32.55 L 33.43,32.39 L 33.5,32.24 L 33.8,31.5 C 33.82,31.45 33.86,31.43 33.9,31.44 L 34.2,31.48 C 34.25,31.48 34.28,31.52 34.27,31.56 L 34.18,33 C 34.18,33.08 34.16,33.13 34.14,33.17 C 34.13,33.21 34.09,33.24 34.03,33.27 L 33.75,33.33 L 33.57,33.36 A 3.58,3.58 0 0,1 32.19,33.6 Z" fill="rgb(37, 34, 18)"/>
<path d="M 19.349999999999998,33.185 C 19.36,33.21 19.37,33.22 19.39,33.22 H 20.25 C 20.27,33.22 20.28,33.22 20.28,33.19 V 33.13 C 20.28,33.11 20.27,33.1 20.25,33.09 L 20.05,33.04 C 20,33.03 19.97,33.01 19.95,32.99 C 19.94,32.96 19.95,32.92 19.97,32.86 L 20.1,32.54 A 11.56,11.56 0 0,0 20.77,32.54 L 20.88,32.46 L 21.08,32.3 L 21.28,32.12 L 20.82,31.12 L 20.77,30.94 C 20.77,30.92 20.76,30.91 20.74,30.92 L 20.52,30.97 C 20.5,30.97 20.49,30.97 20.48,31 L 19.64,32.94 A 0.23,0.23 0 0,1 19.59,33 A 0.2,0.2 0 0,1 19.52,33.05 L 19.39,33.09 C 19.37,33.09 19.36,33.11 19.36,33.13 V 33.19 Z M 20.81,32.3 L 20.5,31.6 L 20.2,32.3 A 9.78,9.78 0 0,0 20.81,32.3 Z" fill="rgb(180, 151, 73)" fill-rule="evenodd"/>
</svg>
