<?xml version="1.0" encoding="UTF-8"?>
<!-- generated by Finnhub -->
<svg viewBox="0 0 55.5 55.5" xmlns="http://www.w3.org/2000/svg">
<path d="M 0,0 H 55.5 V 55.5 H 0 Z" fill="rgb(239, 242, 248)"/>
<path d="M 39.84,28.085 C 39.85,34.3 34.53,39.32 27.95,39.33 C 21.38,39.33 16.04,34.31 16.04,28.13 C 16.03,21.93 21.36,16.9 27.94,16.89 C 34.51,16.89 39.84,21.91 39.84,28.1 Z" fill="rgb(96, 100, 126)"/>
<path d="M 42.42,24.044999999999998 C 41.38,24.3 40.03,24.36 38.42,24.82 C 36.8,25.28 36.98,25.39 33.62,27.34 C 32.94,27.74 32.4,26.69 32.24,25.94 C 32.08,25.24 32.11,24.4 32.71,24.08 C 37,24.5 37.5,24.33 39.11,23.78 C 40.6,23.27 40.47,23.27 42,22.78 C 43.44,22.31 44.23,23.67 42.43,24.06 Z M 42.09,37.51 C 41.35,37.09 40.54,36.42 39.35,35.84 C 38.17,35.25 38.21,35.41 35.23,34.77 C 34.63,34.64 34.87,33.75 35.18,33.23 C 35.45,32.73 35.92,32.27 36.43,32.4 C 38.7,34.9 39.08,35.07 40.3,35.6 C 41.44,36.08 41.37,36.02 42.52,36.54 C 43.6,37.03 43.34,38.23 42.08,37.51 Z M 31.4,42.29 C 31.19,41.24 31.15,39.92 30.72,38.32 C 30.29,36.72 30.18,36.89 28.3,33.55 C 27.92,32.87 28.97,32.37 29.73,32.22 C 30.43,32.07 31.25,32.12 31.56,32.72 C 31.06,36.92 31.22,37.42 31.74,39.02 C 32.23,40.49 32.24,40.37 32.69,41.88 C 33.12,43.31 31.76,44.06 31.39,42.28 Z M 40.76,32.53 C 39.61,32.18 38.27,31.51 36.45,31.08 C 34.62,30.64 34.73,30.85 30.41,30.91 C 29.53,30.93 29.59,29.62 29.84,28.8 C 30.07,28.04 30.56,27.24 31.32,27.26 C 35.25,30 35.82,30.1 37.69,30.44 C 39.42,30.76 39.3,30.69 41.05,31.04 C 42.7,31.37 42.72,33.12 40.76,32.53 Z" fill="rgb(22, 43, 77)"/>
<path d="M 43.99,29.245 C 43.16,29.14 42.16,28.81 40.84,28.7 C 39.52,28.58 39.62,28.71 36.62,29.2 C 36.01,29.3 35.92,28.38 36,27.78 C 36.08,27.23 36.34,26.63 36.87,26.56 C 39.9,28.06 40.31,28.08 41.64,28.12 C 42.88,28.16 42.79,28.12 44.04,28.19 C 45.23,28.26 45.42,29.47 44,29.26 Z M 41.97,18.67 C 41.24,19.11 40.27,19.51 39.19,20.27 C 38.11,21.02 38.27,21.05 36.29,23.36 C 35.89,23.83 35.22,23.19 34.9,22.67 C 34.6,22.2 34.4,21.57 34.77,21.18 C 38.06,20.38 38.37,20.13 39.42,19.31 C 40.4,18.55 40.31,18.58 41.31,17.83 C 42.25,17.11 43.19,17.91 41.97,18.67 Z M 31.07,11.24 C 30.93,12.28 30.54,13.52 30.42,15.15 C 30.3,16.79 30.46,16.66 31.12,20.37 C 31.26,21.13 30.12,21.27 29.36,21.17 C 28.66,21.07 27.9,20.77 27.82,20.11 C 29.65,16.34 29.66,15.83 29.69,14.18 C 29.72,12.64 29.68,12.75 29.74,11.2 C 29.79,9.73 31.31,9.46 31.07,11.24 Z M 22.06,11.9 C 22.3,12.76 22.4,13.83 22.87,15.15 C 23.35,16.47 23.45,16.34 25.37,19.15 C 25.77,19.71 24.79,20.07 24.07,20.15 C 23.42,20.23 22.63,20.15 22.31,19.65 C 22.61,16.25 22.43,15.85 21.87,14.53 C 21.34,13.3 21.35,13.4 20.84,12.16 C 20.37,10.98 21.64,10.44 22.06,11.9 Z M 17.14,14.61 C 17.68,15.38 18.2,16.45 19.09,17.59 C 19.99,18.73 20,18.55 22.56,20.55 C 23.08,20.95 22.53,21.77 22.06,22.18 C 21.62,22.57 21.02,22.85 20.59,22.48 C 19.37,18.85 19.07,18.51 18.12,17.42 C 17.23,16.39 17.27,16.49 16.39,15.44 C 15.55,14.44 16.23,13.3 17.14,14.61 Z" fill="rgb(22, 43, 77)"/>
<path d="M 14.28,19.155 C 15.35,19.93 16.52,21.07 18.22,22.17 C 19.92,23.24 19.86,23 24.12,24.44 C 24.99,24.74 24.66,26.05 24.23,26.81 C 23.85,27.51 23.2,28.15 22.45,27.87 C 19.17,23.69 18.63,23.38 16.87,22.39 C 15.23,21.45 15.33,21.57 13.69,20.59 C 12.14,19.68 12.49,17.89 14.29,19.17 Z M 11.81,34.36 C 12.86,33.83 14.27,33.38 15.84,32.48 C 17.42,31.58 17.2,31.52 20.14,28.72 C 20.74,28.15 21.64,28.98 22.07,29.65 C 22.46,30.26 22.7,31.05 22.16,31.53 C 17.46,32.38 16.98,32.68 15.46,33.67 C 14.02,34.58 14.16,34.55 12.7,35.45 C 11.31,36.31 10.03,35.25 11.81,34.35 Z M 21.35,41.37 C 21.88,40.19 22.76,38.81 23.47,36.93 C 24.18,35.05 23.95,35.16 24.49,30.72 C 24.59,29.82 25.96,29.86 26.79,30.12 C 27.56,30.35 28.33,30.85 28.2,31.62 C 24.78,35.69 24.59,36.28 23.97,38.2 C 23.4,39.98 23.49,39.86 22.87,41.66 C 22.3,43.36 20.45,43.39 21.35,41.37 Z M 10.98,25.55 C 11.86,25.67 12.94,26 14.31,26.11 C 15.68,26.23 15.56,26.11 18.6,25.63 C 19.21,25.53 19.43,26.43 19.42,27.03 C 19.41,27.57 19.22,28.16 18.68,28.23 C 15.37,26.73 14.94,26.73 13.56,26.67 C 12.28,26.63 12.38,26.67 11.07,26.6 C 9.85,26.53 9.49,25.34 10.98,25.55 Z M 15,39.26 C 15.68,38.68 16.64,38.09 17.63,37.14 C 18.63,36.2 18.45,36.2 20.09,33.62 C 20.43,33.1 21.25,33.52 21.69,33.93 C 22.09,34.3 22.42,34.83 22.11,35.27 C 18.8,36.77 18.51,37.07 17.56,38.07 C 16.68,39 16.77,38.95 15.86,39.87 C 15,40.76 13.86,40.24 15.01,39.26 Z" fill="rgb(22, 43, 77)"/>
<path d="M 25.88,43.005 C 26.01,42.15 26.34,41.08 26.46,39.72 C 26.58,38.35 26.45,38.47 25.97,35.45 C 25.87,34.84 26.78,34.62 27.37,34.64 C 27.92,34.64 28.52,34.84 28.58,35.37 C 27.08,38.67 27.08,39.09 27.02,40.46 C 26.98,41.73 27.02,41.64 26.95,42.93 C 26.88,44.15 25.68,44.51 25.89,43.03 Z M 37.41,40.16 C 36.85,39.62 36.31,38.86 35.37,38.06 C 34.44,37.28 34.43,37.43 31.81,36.16 C 31.27,35.91 31.81,35.21 32.28,34.83 C 32.72,34.48 33.32,34.19 33.77,34.43 C 35.07,37.11 35.37,37.34 36.37,38.08 C 37.29,38.78 37.24,38.71 38.16,39.42 C 39.02,40.1 38.36,41.07 37.41,40.16 Z M 37.21,15.73 C 36.49,16.69 35.41,17.71 34.37,19.27 C 33.34,20.83 33.57,20.79 32.16,24.86 C 31.87,25.68 30.66,25.19 29.96,24.66 C 29.32,24.19 28.74,23.46 29.02,22.76 C 32.94,20.02 33.24,19.52 34.19,17.89 C 35.08,16.38 34.97,16.47 35.9,14.95 C 36.78,13.52 38.44,14.1 37.21,15.73 Z M 27.02,16.24 C 27.06,17.52 26.82,19.09 27,21.07 C 27.18,23.07 27.35,22.88 28.9,27.24 C 29.21,28.12 27.85,28.49 26.91,28.5 C 26.05,28.52 25.07,28.28 24.83,27.51 C 26.3,22.64 26.21,22.02 25.93,20.03 C 25.66,18.17 25.63,18.32 25.39,16.43 C 25.17,14.65 26.96,14.06 27.02,16.23 Z" fill="rgb(22, 43, 77)"/>
</svg>
