<?xml version="1.0" encoding="UTF-8"?>
<!-- generated by Finnhub -->
<svg viewBox="0 0 55.5 55.5" xmlns="http://www.w3.org/2000/svg">
<path d="M 0,0 H 55.5 V 55.5 H 0 Z" fill="rgb(239, 242, 248)"/>
<path d="M 8.99,20.985 H 11 V 31 H 9 V 30.1 C 8.47,30.66 7.77,31 7,31 C 5.34,31 4,29.8 4,27.5 S 5.34,24 7,24 C 7.77,24 8.47,24.34 9,24.9 V 21 Z M 7.5,25.8 C 8.33,25.8 9,26.56 9,27.5 S 8.33,29.2 7.5,29.2 S 6,28.62 6,27.5 S 6.67,25.8 7.5,25.8 Z M 13.74,24 H 11.48 L 14.24,30.45 L 13.82,31.63 C 13.52,32.41 13.04,33.26 12.38,33.26 C 11.86,33.26 11.58,33 11.49,32.86 L 11.23,34.72 C 11.48,34.82 12.15,35 12.78,35 C 14.32,35 15.01,33.58 15.16,32.87 L 18.45,24.03 H 16.5 L 15,28.31 L 13.74,24 Z M 21,24 H 19 V 31 H 21 V 26.84 C 21.2,26.32 21.58,25.71 22.14,25.71 C 22.88,25.71 22.96,26.48 23,26.86 V 31 H 25 V 26.16 C 25,25.36 24.51,24 22.97,24 C 22,24 21.34,24.65 21,25.19 V 24 Z M 27.3,26.29 L 26.31,25.29 A 3.3,3.3 0 0,1 28.98,24 C 31.34,24 31.98,25.45 32,26.17 V 31 H 30 V 30.02 C 29.6,30.54 28.97,31 28.07,31 C 26.5,31 26.04,29.7 26,29.06 C 26,26.91 28.52,26.48 30,26.53 C 29.99,25.99 29.86,25.43 28.98,25.43 C 28.23,25.43 27.55,26.01 27.3,26.29 Z M 30,27.69 V 28.83 C 29.76,29.16 29.35,29.53 28.85,29.53 C 28,29.53 27.88,28.88 27.88,28.71 C 27.88,28.53 27.96,27.91 29.14,27.76 C 29.49,27.71 29.77,27.69 30,27.69 Z M 35.47,30.23 C 34.72,30.23 33.91,29.4 33.6,28.98 L 33,29.66 C 33.34,30.1 34.32,31 35.53,31 C 37.25,30.97 37.72,29.69 37.73,29.04 C 37.73,27.62 36.35,27.28 35.47,27.16 C 34.59,27.05 33.99,26.54 33.99,25.97 S 34.32,24.7 35.37,24.7 C 36.2,24.7 36.75,25.42 36.91,25.77 L 37.56,25.24 A 2.45,2.45 0 0,0 35.53,24 C 34.77,23.98 33.26,24.32 33.26,25.85 C 33.26,27.54 34.5,27.75 35.46,27.91 L 35.76,27.97 C 36.73,28.16 36.91,28.57 36.91,29.04 C 36.91,29.51 36.41,30.24 35.47,30.24 Z M 39.15,29.77 V 24.85 H 37.65 V 24 H 39.15 V 22 H 40 V 24 H 41.65 V 24.85 H 40 V 29.37 C 40,29.72 40.2,30.09 40.86,30.09 C 41.4,30.09 41.65,29.8 41.71,29.66 V 30.67 C 41.53,30.78 41.08,31 40.66,31 C 39.44,31 39.16,30.18 39.15,29.77 Z M 43.19,25 L 43.69,25.54 C 43.92,25.27 44.61,24.74 45.65,24.74 C 46.95,24.74 47.18,25.59 47.18,26.04 V 26.66 C 46.92,26.79 46.37,26.99 45.71,26.99 C 44.77,26.99 43,27.32 43,29.18 C 43.03,29.78 43.47,31.01 44.98,31.01 C 46.11,31.01 46.82,30.44 47.18,29.94 V 30.99 H 48 V 25.87 C 47.95,25.25 47.42,24.01 45.65,24.01 C 44.52,24.01 43.54,24.67 43.19,25 Z M 47.19,28.8 V 27.5 C 46.79,27.62 45.92,27.76 44.98,27.9 C 43.95,28.04 43.73,28.78 43.75,29.17 C 43.83,29.54 44.2,30.3 45.08,30.3 C 46.28,30.3 46.93,29.42 47.18,28.79 Z M 49,24 H 49.8 V 25.15 C 50.07,24.67 50.76,24 52,24 V 24.96 C 51.48,24.85 50.36,25.02 49.8,26.5 V 31 H 49 V 24 Z" fill="rgb(4, 6, 6)" fill-rule="evenodd"/>
</svg>
