<?xml version="1.0" encoding="UTF-8"?>
<!-- generated by Finnhub -->
<svg viewBox="0 0 55.5 55.5" xmlns="http://www.w3.org/2000/svg">
<path d="M 0,0 H 55.5 V 55.5 H 0 Z" fill="rgb(239, 242, 248)"/>
<path d="M 8.99,32.485 A 2.5,2.5 0 0,1 11.5,30 H 16.5 A 2.5,2.5 0 0,1 19,32.5 V 37.5 A 2.5,2.5 0 0,1 16.5,40 H 11.5 A 2.5,2.5 0 0,1 9,37.5 V 32.5 Z M 23,18.5 A 2.5,2.5 0 0,1 25.5,16 H 30.5 A 2.5,2.5 0 0,1 33,18.5 V 23.5 A 2.5,2.5 0 0,1 30.5,26 H 25.5 A 2.5,2.5 0 0,1 23,23.5 V 18.5 Z" fill="rgb(243, 177, 45)"/>
<path d="M 22.99,32.485 A 2.5,2.5 0 0,1 25.5,30 H 30.5 A 2.5,2.5 0 0,1 33,32.5 V 37.5 A 2.5,2.5 0 0,1 30.5,40 H 25.5 A 2.5,2.5 0 0,1 23,37.5 V 32.5 Z M 37,18.5 A 2.5,2.5 0 0,1 39.5,16 H 44.5 A 2.5,2.5 0 0,1 47,18.5 V 23.5 A 2.5,2.5 0 0,1 44.5,26 H 39.5 A 2.5,2.5 0 0,1 37,23.5 V 18.5 Z" fill="rgb(108, 108, 107)"/>
</svg>
