<!-- by Finnhub --><svg width="56" height="56" viewBox="0 0 56 56" xmlns="http://www.w3.org/2000/svg"><path fill="#F0F3FA" d="M0 0h56v56H0z"/><path d="M44 27.97c0-1.98-.24-3.55-.9-5.3-.1-.29.09-.67.43-.67.24 0 .44.18.55.52.56 1.68.92 3.58.92 5.45 0 3.92-1.72 8.03-3.94 10.9l-.7-.68A17.57 17.57 0 0 0 44 27.97Z" fill="#88A5B1"/><path d="M28 44c4.98 0 9.39-2.24 12.32-5.8.18-.21.5-.25.71-.08.22.17.26.48.08.7A17 17 0 1 1 28 11c5.67-.01 10.82 2.94 13.91 7.2.07.1.09.2.1.3a.5.5 0 0 1-.51.48.5.5 0 0 1-.42-.2C38.18 14.77 33.33 12 28 12a16 16 0 1 0 0 32Z" fill="#0C5774"/><path d="M27.56 36c2.84 0 5.74-1.49 7.15-3.73.1-.15.27-.27.45-.27.39 0 .64.42.43.75C34.01 35.3 30.78 37 27.56 37v-1Z" fill="#88A5B1"/><path d="M29.96 37.8a10.02 10.02 0 0 0 7.46-6.43c.07-.21.27-.37.49-.37a.5.5 0 0 1 .47.65 11.02 11.02 0 0 1-8.1 7.12l-.32-.96Z" fill="#88A5B1"/><path d="M32.34 39.15c4.07-1.8 7.46-5.96 7.65-10.65.01-.28.23-.5.51-.5s.5.22.5.5c-.2 5.1-3.84 9.62-8.27 11.57l-.39-.92Z" fill="#88A5B1"/><path d="M42 28c0-.45-.04-.95-.1-1.42a.53.53 0 0 1 .51-.58c.25 0 .46.2.48.46.06.5.11 1.05.11 1.54 0 4.57-2.04 8.66-5.26 11.4l-.7-.7A13.97 13.97 0 0 0 42 28Z" fill="#88A5B1"/><path d="M28 14a14 14 0 1 0 0 28c3.28 0 6.6-1.39 9.01-3.3.2-.16.5-.15.69.03.2.21.19.55-.04.73A16.06 16.06 0 0 1 28 43a15 15 0 1 1 10.4-25.84c.2.2.19.53-.03.72a.5.5 0 0 1-.33.12.52.52 0 0 1-.36-.14A14.15 14.15 0 0 0 28 14Z" fill="#0C5774"/><path d="M28 18a10 10 0 1 0 1.97 19.8c.26-.06.5.11.58.36.09.28-.07.56-.38.63A11 11 0 1 1 28 17c1.6 0 3.23.45 4.6 1.06.27.13.36.47.2.72a.53.53 0 0 1-.65.18A10.58 10.58 0 0 0 28 18Z" fill="#0C5774"/><path d="M20 28a7.99 7.99 0 0 1 9.39-7.87c.32.05.61-.18.61-.5a.46.46 0 0 0-.37-.48A8.99 8.99 0 0 0 19 28a9 9 0 0 0 8.47 9c.28 0 .53-.22.53-.5s-.25-.5-.53-.52A7.99 7.99 0 0 1 20 28Z" fill="#0C5774"/><path d="M28 16a12 12 0 1 0 0 24c1.55 0 2.96-.3 4.3-.84.26-.1.56.02.67.28a.5.5 0 0 1 .03.2c0 .19-.11.37-.3.44-1.46.59-3.01.92-4.7.92a13 13 0 0 1 0-26c2.58 0 4.95.8 6.97 2.1.26.16.29.52.08.74a.5.5 0 0 1-.38.16c-.1 0-.19-.03-.28-.08A11.88 11.88 0 0 0 28 16Z" fill="#0C5774"/></svg>