<!-- by Finnhub --><svg width="56" height="56" viewBox="0 0 56 56" xmlns="http://www.w3.org/2000/svg"><path fill="#F0F3FA" d="M0 0h56v56H0z"/><path fill-rule="evenodd" d="M25 23H14a1 1 0 1 0 0 2h11a1 1 0 1 0 0-2Zm-11-1a2 2 0 1 0 0 4h11a2 2 0 1 0 0-4H14Z" fill="#81A57C"/><path fill-rule="evenodd" d="M42 19H31a1 1 0 1 0 0 2h11a1 1 0 1 0 0-2Zm-11-1a2 2 0 1 0 0 4h11a2 2 0 1 0 0-4H31Z" fill="#69A65D"/><path fill-rule="evenodd" d="M25 29H14a1 1 0 1 0 0 2h11a1 1 0 1 0 0-2Zm-11-1a2 2 0 1 0 0 4h11a2 2 0 1 0 0-4H14Z" fill="#81A57C"/><path fill-rule="evenodd" d="M42 25H31a1 1 0 1 0 0 2h11a1 1 0 1 0 0-2Zm-11-1a2 2 0 1 0 0 4h11a2 2 0 1 0 0-4H31Z" fill="#69A65D"/><path fill-rule="evenodd" d="M25 35H14a1 1 0 1 0 0 2h11a1 1 0 1 0 0-2Zm-11-1a2 2 0 1 0 0 4h11a2 2 0 1 0 0-4H14Z" fill="#81A57C"/><path fill-rule="evenodd" d="M42 31H31a1 1 0 1 0 0 2h11a1 1 0 1 0 0-2Zm-11-1a2 2 0 1 0 0 4h11a2 2 0 1 0 0-4H31Z" fill="#69A65D"/></svg>