<?xml version="1.0" encoding="UTF-8"?>
<!-- generated by Finnhub -->
<svg viewBox="0 0 55.5 55.5" xmlns="http://www.w3.org/2000/svg">
<path d="M 0,0 H 55.5 V 55.5 H 0 Z" fill="rgb(239, 242, 248)"/>
<path d="M 16.99,23.985 V 20 H 19.55 V 20.6 H 17.7 V 21.7 H 19.4 V 22.3 H 17.7 V 23.4 H 19.55 V 24 H 17 Z M 23.28,24 V 20 H 22.62 V 22.73 H 22.59 L 20.59,20 H 20 V 24 H 20.66 V 21.28 H 20.69 L 22.69,24 H 23.29 Z M 24.01,24 V 23.55 L 26.08,20.61 H 24 V 20 H 26.99 V 20.45 L 24.92,23.39 H 27 V 24 H 24.01 Z M 28.37,20 H 27.57 L 29,22.5 V 24 H 29.7 V 22.5 L 31.12,20 H 30.32 L 29.36,21.77 H 29.33 L 28.37,20 Z M 31.57,20 H 32.43 L 33.59,22.9 H 33.64 L 34.8,20 H 35.67 V 24 H 34.99 V 21.25 H 34.95 L 33.87,24 H 33.36 L 32.28,21.26 H 32.24 V 24 H 31.56 V 20 Z M 36.23,24 V 20 H 38.98 V 20.6 H 37 V 21.7 H 38.84 V 22.3 H 37 V 23.4 H 39 V 24 H 36.23 Z M 6,26 V 30 H 8.57 V 29.4 H 6.71 V 28.3 H 8.42 V 27.7 H 6.72 V 26.6 H 8.56 V 26 H 6 Z M 12,26 V 30 H 11.41 L 9.7,27.28 H 9.67 V 30 H 9 V 26 H 9.6 L 11.31,28.73 H 11.34 V 26 H 12 Z M 14.44,29.15 L 13.42,26 H 12.63 L 14.02,30 H 14.9 L 16.28,26 H 15.5 L 14.48,29.15 H 14.44 Z M 17.7,26 V 30 H 17 V 26 H 17.71 Z M 26,28 C 26,28.42 25.92,28.78 25.76,29.08 A 1.68,1.68 0 0,1 24.2,30 A 1.7,1.7 0 0,1 22.63,29.08 C 22.47,28.78 22.39,28.42 22.39,28 C 22.39,27.58 22.47,27.22 22.63,26.92 A 1.69,1.69 0 0,1 24.2,26 C 24.54,26 24.85,26.08 25.12,26.24 C 25.39,26.4 25.61,26.62 25.76,26.92 C 25.92,27.22 26,27.58 26,28 Z M 25.29,28 C 25.29,27.7 25.24,27.46 25.15,27.25 C 25.05,27.05 24.93,26.89 24.76,26.79 A 1.08,1.08 0 0,0 23.63,26.79 C 23.47,26.89 23.33,27.05 23.25,27.25 C 23.15,27.45 23.11,27.7 23.11,28 S 23.15,28.55 23.25,28.75 C 23.34,28.95 23.47,29.11 23.63,29.21 A 1.08,1.08 0 0,0 24.76,29.21 C 24.93,29.11 25.06,28.95 25.15,28.75 C 25.24,28.55 25.29,28.3 25.29,28 Z M 29.61,26 H 29 V 28.73 L 27.01,26 H 26.37 V 30 H 27 V 27.14 L 28.97,30 H 29.6 V 26 Z M 30.39,26 H 31.26 L 32.56,28.9 H 32.6 L 33.83,26 H 34.7 V 30 H 34 V 27.25 H 33.97 L 32.83,30 H 32.32 L 31.1,27.26 H 31 V 30 H 30.38 V 26 Z M 35.29,30 H 37.85 V 29.4 H 36 V 28.3 H 37.7 V 27.7 H 36 V 26.6 H 37.83 V 26 H 35.27 V 30 Z M 41.74,30 H 41.11 L 39.25,27.28 H 39.22 V 30 H 38.51 V 26 H 39.15 L 41,28.73 V 26 H 41.73 V 30 Z M 42.1,26 V 26.6 H 43.31 V 30 H 44.01 V 26.6 H 45.23 V 26 H 42.1 Z M 45.16,30 H 44.4 L 45.79,26 H 46.67 L 48.05,30 H 47.29 L 46.97,29.01 H 45.49 L 45.16,30 Z M 46.24,26.82 L 46.77,28.43 H 45.68 L 46.21,26.82 H 46.24 Z M 48.34,26 H 49 V 29.4 H 51 V 30 H 48.33 V 26 Z M 19,26.05 V 29.95 H 19.71 V 28.52 H 20.44 L 21.21,29.95 H 22.01 L 21.15,28.41 L 21.23,28.37 C 21.43,28.27 21.59,28.13 21.7,27.95 C 21.8,27.76 21.86,27.55 21.86,27.3 S 21.81,26.83 21.7,26.65 A 0.96,0.96 0 0,0 21.23,26.21 C 21.03,26.11 20.78,26.05 20.47,26.05 H 19 Z M 20.37,27.94 H 19.71 V 26.64 H 20.36 C 20.54,26.64 20.69,26.67 20.8,26.72 C 20.91,26.77 21,26.85 21.05,26.94 C 21.11,27.04 21.13,27.16 21.13,27.3 C 21.13,27.44 21.11,27.55 21.05,27.65 A 0.51,0.51 0 0,1 20.8,27.86 C 20.69,27.91 20.54,27.94 20.37,27.94 Z M 14.04,32.74 C 14.17,32.83 14.24,32.96 14.27,33.12 H 14.95 A 0.98,0.98 0 0,0 14.76,32.54 C 14.64,32.37 14.48,32.24 14.26,32.14 A 1.6,1.6 0 0,0 13.54,32 C 13.26,32 13.02,32.05 12.8,32.14 C 12.59,32.24 12.42,32.37 12.29,32.54 A 1,1 0 0,0 12.1,33.14 C 12.1,33.43 12.2,33.64 12.38,33.82 C 12.57,33.98 12.82,34.11 13.14,34.19 L 13.59,34.3 C 13.73,34.34 13.85,34.38 13.96,34.43 C 14.06,34.47 14.14,34.53 14.2,34.59 C 14.26,34.66 14.3,34.74 14.3,34.84 C 14.3,34.96 14.26,35.05 14.2,35.14 A 0.66,0.66 0 0,1 13.92,35.33 A 1.1,1.1 0 0,1 13.52,35.4 A 0.96,0.96 0 0,1 13.12,35.33 A 0.67,0.67 0 0,1 12.82,35.13 A 0.59,0.59 0 0,1 12.7,34.79 H 12 C 12.01,35.05 12.08,35.27 12.2,35.45 C 12.33,35.63 12.5,35.77 12.73,35.85 C 12.95,35.95 13.21,36 13.52,36 A 2,2 0 0,0 14.32,35.86 C 14.54,35.76 14.71,35.62 14.82,35.46 C 14.94,35.28 15,35.08 15,34.85 A 0.96,0.96 0 0,0 14.9,34.41 A 0.98,0.98 0 0,0 14.64,34.09 A 1.5,1.5 0 0,0 14.28,33.87 C 14.14,33.81 14,33.77 13.85,33.73 L 13.48,33.63 A 2.3,2.3 0 0,1 13.25,33.57 A 1.09,1.09 0 0,1 13.03,33.47 A 0.5,0.5 0 0,1 12.88,33.31 A 0.44,0.44 0 0,1 12.91,32.84 A 0.56,0.56 0 0,1 13.15,32.66 C 13.25,32.62 13.38,32.6 13.53,32.6 C 13.73,32.6 13.91,32.64 14.04,32.73 Z M 19.4,34 C 19.4,34.42 19.32,34.78 19.15,35.08 C 18.99,35.38 18.77,35.6 18.49,35.76 C 18.21,35.92 17.89,36 17.53,36 A 1.82,1.82 0 0,1 15.91,35.08 C 15.75,34.78 15.67,34.42 15.67,34 C 15.67,33.58 15.75,33.22 15.91,32.92 C 16.08,32.62 16.3,32.4 16.58,32.24 C 16.86,32.08 17.18,32 17.53,32 C 17.89,32 18.21,32.08 18.49,32.24 C 18.77,32.4 18.99,32.62 19.15,32.92 C 19.32,33.22 19.4,33.58 19.4,34 Z M 18.66,34 C 18.66,33.7 18.61,33.46 18.52,33.25 A 1.04,1.04 0 0,0 17.53,32.63 A 1.05,1.05 0 0,0 16.55,33.25 C 16.45,33.45 16.41,33.7 16.41,34 S 16.46,34.55 16.55,34.75 C 16.65,34.95 16.78,35.11 16.95,35.21 C 17.12,35.31 17.31,35.37 17.53,35.37 A 1.04,1.04 0 0,0 18.52,34.75 C 18.62,34.55 18.66,34.3 18.66,34 Z M 20,36 H 22.52 V 35.4 H 20.74 V 32 H 20 V 36 Z M 25.56,32 H 26.29 V 34.57 A 1.35,1.35 0 0,1 25.51,35.82 C 25.27,35.94 24.98,36 24.65,36 C 24.32,36 24.03,35.94 23.78,35.82 A 1.38,1.38 0 0,1 23.2,35.32 C 23.07,35.1 23,34.86 23,34.57 V 32 H 23.74 V 34.51 C 23.74,34.68 23.77,34.83 23.84,34.95 A 0.8,0.8 0 0,0 24.16,35.25 C 24.3,35.33 24.46,35.36 24.65,35.36 C 24.83,35.36 25,35.33 25.13,35.26 A 0.78,0.78 0 0,0 25.45,34.96 A 0.86,0.86 0 0,0 25.55,34.51 V 32 Z M 27.05,32 V 32.6 H 28.3 V 36 H 29 V 32.6 H 30.29 V 32 H 27.05 Z M 31.74,36 H 31 V 32 H 31.74 V 36 Z M 35.95,35.08 C 36.12,34.78 36.2,34.42 36.2,34 C 36.2,33.58 36.12,33.22 35.95,32.92 A 1.7,1.7 0 0,0 35.29,32.24 A 1.9,1.9 0 0,0 34.33,32 C 33.98,32 33.66,32.08 33.38,32.24 C 33.1,32.4 32.88,32.62 32.71,32.92 C 32.55,33.22 32.47,33.58 32.47,34 C 32.47,34.42 32.55,34.78 32.71,35.08 C 32.87,35.38 33.1,35.6 33.38,35.76 C 33.66,35.92 33.98,36 34.33,36 C 34.69,36 35,35.92 35.29,35.76 C 35.57,35.6 35.79,35.38 35.95,35.08 Z M 35.31,33.25 C 35.41,33.45 35.46,33.7 35.46,34 S 35.41,34.55 35.31,34.75 A 1,1 0 0,1 34.91,35.21 C 34.75,35.31 34.55,35.37 34.33,35.37 A 1.1,1.1 0 0,1 33.75,35.21 C 33.58,35.11 33.45,34.95 33.35,34.75 C 33.25,34.55 33.21,34.3 33.21,34 S 33.25,33.46 33.35,33.25 C 33.45,33.05 33.58,32.89 33.75,32.79 C 33.92,32.69 34.11,32.63 34.33,32.63 A 1.04,1.04 0 0,1 35.31,33.25 Z M 40.34,36 H 39.68 L 37.77,33.28 H 37.74 V 36 H 37 V 32 H 37.66 L 39.56,34.73 H 39.6 V 32 H 40.34 V 36 Z M 43.24,33.12 A 0.51,0.51 0 0,0 43,32.73 A 0.93,0.93 0 0,0 42.47,32.6 C 42.32,32.6 42.19,32.62 42.07,32.66 C 41.97,32.71 41.88,32.76 41.83,32.84 A 0.43,0.43 0 0,0 41.73,33.1 C 41.73,33.18 41.76,33.25 41.79,33.31 C 41.83,33.37 41.89,33.42 41.95,33.47 L 42.18,33.57 L 42.43,33.64 L 42.81,33.73 A 2.25,2.25 0 0,1 43.63,34.09 C 43.74,34.18 43.83,34.29 43.9,34.41 S 44,34.68 44,34.85 C 44,35.08 43.94,35.28 43.82,35.45 C 43.7,35.62 43.52,35.75 43.29,35.85 C 43.06,35.95 42.79,36 42.46,36 A 2.2,2.2 0 0,1 41.64,35.86 C 41.41,35.76 41.22,35.63 41.09,35.45 A 1.1,1.1 0 0,1 40.89,34.79 H 41.61 C 41.61,34.93 41.66,35.04 41.74,35.13 A 0.7,0.7 0 0,0 42.04,35.33 C 42.16,35.38 42.3,35.4 42.45,35.4 C 42.61,35.4 42.75,35.38 42.87,35.33 A 0.68,0.68 0 0,0 43.16,35.13 C 43.23,35.05 43.26,34.96 43.26,34.84 C 43.26,34.74 43.23,34.66 43.17,34.59 A 0.68,0.68 0 0,0 42.92,34.43 A 2.54,2.54 0 0,0 42.53,34.3 L 42.07,34.2 A 1.9,1.9 0 0,1 41.28,33.82 A 0.85,0.85 0 0,1 40.99,33.15 C 40.99,32.92 41.06,32.72 41.19,32.55 C 41.32,32.37 41.49,32.24 41.72,32.15 C 41.94,32.05 42.2,32 42.48,32 C 42.77,32 43.02,32.05 43.24,32.14 C 43.46,32.24 43.63,32.37 43.75,32.54 C 43.88,32.71 43.95,32.9 43.95,33.12 H 43.24 Z" fill-rule="evenodd"/>
</svg>
