<?xml version="1.0" encoding="UTF-8"?>
<!-- generated by Finnhub -->
<svg viewBox="0 0 55.5 55.5" xmlns="http://www.w3.org/2000/svg">
<path d="M 0,0 H 55.5 V 55.5 H 0 Z" fill="rgb(239, 242, 248)"/>
<circle cx="28" cy="28" r="16" fill="rgb(200, 217, 38)"/>
<path d="M 34.39,36.985 A 0.6,0.6 0 0,0 35,36.43 V 34.56 C 35,34.24 34.75,34 34.4,34 H 24.55 A 6.48,6.48 0 0,1 20.41,32.19 A 5.4,5.4 0 0,1 19,28.4 V 15.6 C 19,15.29 18.7,15 18.43,15 H 16.55 C 16.25,15 15.99,15.29 15.99,15.6 V 28.41 C 15.99,30.78 16.84,32.81 18.5,34.48 A 8.34,8.34 0 0,0 24.55,37 H 34.41 Z" fill="rgb(1, 97, 35)"/>
<path d="M 21.59,18.985 A 0.6,0.6 0 0,0 21,19.57 V 21.44 C 21,21.76 21.25,22 21.6,22 H 31.45 C 32.85,22 34.61,22.81 35.59,23.81 A 5.4,5.4 0 0,1 37,27.6 V 40.4 C 37,40.71 37.3,41 37.57,41 H 39.45 C 39.75,41 40.01,40.71 40.01,40.4 V 27.59 C 40.01,25.22 39.16,23.19 37.5,21.52 A 8.34,8.34 0 0,0 31.45,19 H 21.59 Z" fill="rgb(1, 97, 35)"/>
<circle cx="28" cy="28" r="3" fill="rgb(254, 254, 253)"/>
</svg>
