<!-- by Finnhub --><svg xmlns="http://www.w3.org/2000/svg" width="56" height="56" viewBox="0 0 56 56"><path fill="#F0F3FA" d="M0 0h56v56H0z"/><path d="m33.84 14.5-1.06-.29c-1.5-.52-1.88-.9-4.12-.9-8.34 0-15.85 6.48-15.85 15.35 0 3.44 1.34 6.6 2.77 9l-.5.45c1.55 2.49 3.33 4.44 3.33 4.44v-1.73C23 43.69 26.5 44 30.25 44c3.17 0 5.21-.72 5.21-.72s-2.4.28-4.38 0c-1.42-.2-2.07-.73-2.07-.73C33.69 43 38.53 42.1 42 39l-2.25.66c1.55-.69 3.48-2.11 4.25-3.66 0 0-2.26 1.94-3.67 2.52-1.4.56-5.15 1.45-3.47.78C45.04 35.06 45 26 45 26s-1.06 11.91-15.57 12.51c-10.53.43-12.37-1.92-12.37-9.24 0-6.3 6.12-9.27 11.3-9.27 2.63 0 8.77 1 6.61 3.97 0 2.76-6.12 2.83-8.88 2.83C22.15 26.8 21 31 21 31v1c1.46-.9 3.96-1 5.63-1h6.15C40 31 42 26.62 42 22.56s-2.41-5.98-4.25-8.35c-.88 0-3.27.53-3.9.3Z" fill="#EB6C02"/><path d="M17.6 38.05v2.44s-.41-.54-1.97-3.02l1.5-6.27c2.62 4.3 6.62 5.73 11.06 5.8C42.69 37.23 45 26 45 26s-.83 8.54-10 12.89c-1.54.72 2.24.3 4.85-.73A28.34 28.34 0 0 0 44 36l-4.27 3.2L42 39s-2 .6-4.06 1.43c-3.32 1.33-11.08.84-11.08.84s3.87 1.4 5.8 1.7c1.23.2 2.74.3 2.74.3s-3.87.52-9.21-.5c-3.6-.67-8.6-4.72-8.6-4.72Z" fill="#FED700"/><path d="M27.76 12.21c-8.34 0-15.76 6.6-15.76 16.45 0 3.66 1.52 7 3.05 9.46l2.32-6.86a8 8 0 0 1-.46-2.24c-.23-3.71 2.06-6.89 5.2-8.5l11.53-7.41c-1.5-.52-3.64-.9-5.88-.9Z" fill="url(#azldbfoj1)"/><path d="M18 39.7v1.73s-1.4-.83-2.95-3.32l2.32-6.9c1.51 4.18 6.31 6.75 10.75 6.79 14.04.14 16.66-10.97 16.66-10.97S43.6 34.6 35.23 39.1c-.21.12-.21.2-.21.27 0 .35 3.46-.1 4.97-.87C41.77 37.6 44 36 44 36s-1.54 1.27-2.38 1.92a29.8 29.8 0 0 1-2.26 1.5L42 39c-4.03 2.16-10.03 2.7-14.4 2.43a19 19 0 0 0 4.67 1.66c1.98.29 3.15.14 3.15.14s-3.63.47-8.55-.14c-3.63-.45-8.87-3.4-8.87-3.4Z" fill="url(#bzldbfoj1)"/><path d="M27.76 12C19.42 12 12 18.98 12 28.66c0 3.66 1.52 7 3.05 9.46l2.39-6.7a9.25 9.25 0 0 1-.44-2.86c0-3.86 2.93-6.94 5.94-8.5l10.7-6.95C32.14 12.59 30 12 27.76 12Z" fill="url(#czldbfoj1)"/><path d="M37 10s-.12 3.06 1.35 4.93l.15.2a10.9 10.9 0 0 1 2.5 6.93c0 7.1-5 7.94-10.56 7.94h-5.69c-1.37 0-3.16.31-3.75 1.25 0-2.7.9-5.25 5.44-5.25 2.7 0 8.56.6 8.56-2.89 0-3.08-4.17-4.11-6.88-4.11-2.01 0-3.88.34-5.71 1.28l11.15-7.2c.58.2 1.84.85 2.1 1-.22-1.01-.1-3.23 1.34-4.08Z" fill="url(#dzldbfoj1)"/><path d="M19.44 29.24A1.82 1.82 0 0 0 20.55 31c-.49-2.34.95-2.4.95-4.1 0-.71-.75-1.5-.75-1.5s.21 1.08-.23 1.81c-.41.66-1.08 1.13-1.08 2.03Z" fill="#EB6C02"/><path d="M19 28.94a1.8 1.8 0 0 0 1.08 1.68c-.7-2.14.92-2.57.92-4 0-.7-.4-1.62-.4-1.62s-.07 1.2-.52 1.93c-.4.65-1.08 1.11-1.08 2.01Z" fill="url(#ezldbfoj1)"/><circle cx="25" cy="28.5" r="1" fill="#EE440C"/><path opacity=".6" d="M12 28.57C12 18.85 19.42 12 27.76 12c2.77 0 5.65.87 7.4 1.83 0 0-2.97 3.23-8.03 4.02-5.07.8-10.13 4.78-10.13 10.5 0 1.1.25 2.79.6 3.43l-2.55 6.25C13.52 35.58 12 31.78 12 28.57Z" fill="url(#fzldbfoj1)"/><defs><linearGradient id="azldbfoj1" x1="11.43" y1="38.12" x2="38.53" y2="3.31"><stop offset=".15" stop-color="#ED6C01"/><stop offset=".55" stop-color="#F7AD13"/></linearGradient><linearGradient id="bzldbfoj1" x1="45.63" y1="27.4" x2="2.78" y2="41.09" gradientUnits="userSpaceOnUse"><stop offset=".01" stop-color="#EF7300"/><stop offset=".4" stop-color="#F6AC00"/><stop offset=".55" stop-color="#F6AA00"/><stop offset=".68" stop-color="#ED6C01"/></linearGradient><linearGradient id="czldbfoj1" x1="11.43" y1="38.12" x2="38.53" y2="3.31" gradientUnits="userSpaceOnUse"><stop offset=".15" stop-color="#ED6C01"/><stop offset=".4" stop-color="#F7AB13"/><stop offset=".47" stop-color="#FCE502" stop-opacity=".58"/><stop offset=".57" stop-color="#F7AD13"/><stop offset=".68" stop-color="#F17D16"/><stop offset=".78" stop-color="#ED6C01"/></linearGradient><linearGradient id="dzldbfoj1" x1="36.73" y1="11.09" x2="27.8" y2="35.3" gradientUnits="userSpaceOnUse"><stop offset=".13" stop-color="#ED6C00"/><stop offset=".35" stop-color="#F49A01"/><stop offset=".66" stop-color="#FDE716"/><stop offset=".86" stop-color="#FFE306"/><stop offset="1" stop-color="#F38413"/></linearGradient><linearGradient id="ezldbfoj1" x1="35.73" y1="16.53" x2="31.55" y2="33.66" gradientUnits="userSpaceOnUse"><stop offset=".58" stop-color="#FBE304"/><stop offset=".86" stop-color="#FDE600"/><stop offset=".96" stop-color="#F38413"/></linearGradient><linearGradient id="fzldbfoj1" x1="8.06" y1="20.35" x2="34.84" y2="14.68" gradientUnits="userSpaceOnUse"><stop offset=".15" stop-color="#ED6E01"/><stop offset=".86" stop-color="#EE6F00" stop-opacity=".58"/></linearGradient></defs></svg>