<?xml version="1.0" encoding="UTF-8"?>
<!-- generated by Finnhub -->
<svg viewBox="0 0 55.5 55.5" xmlns="http://www.w3.org/2000/svg">
<path d="M 0,0 H 55.5 V 55.5 H 0 Z" fill="rgb(239, 242, 248)"/>
<path d="M 49.09,30.985 H 47 V 25 H 49.12 C 49.72,25 50.22,25.12 50.66,25.36 C 51.09,25.6 51.42,25.94 51.65,26.39 C 51.88,26.84 52,27.37 52,27.99 C 52,28.62 51.88,29.16 51.65,29.61 C 51.42,30.05 51.09,30.4 50.65,30.64 C 50.22,30.88 49.7,31 49.1,31 Z M 48.25,30 H 49.05 C 50.23,30 50.75,29.1 50.75,28 C 50.75,26.96 50.2,26 49.05,26 H 48.25 V 30 Z M 42.76,31 V 25 H 44 V 30 H 46.46 V 31 H 42.76 Z M 41.84,28 A 3.4,3.4 0 0,1 41.48,29.62 A 2.5,2.5 0 0,1 40.51,30.65 C 40.11,30.88 39.65,31 39.14,31 A 2.7,2.7 0 0,1 37.76,30.64 A 2.5,2.5 0 0,1 36.79,29.62 A 3.43,3.43 0 0,1 36.44,28 C 36.44,27.36 36.56,26.82 36.79,26.37 C 37.03,25.93 37.35,25.59 37.76,25.35 C 38.16,25.12 38.63,25 39.14,25 C 39.64,25 40.11,25.12 40.51,25.35 C 40.92,25.59 41.25,25.93 41.48,26.37 C 41.72,26.82 41.84,27.37 41.84,28 Z M 40.6,28 C 40.6,27.59 40.54,27.24 40.42,26.96 A 1.4,1.4 0 0,0 39.92,26.31 A 1.36,1.36 0 0,0 39.14,26.09 C 38.84,26.09 38.59,26.16 38.37,26.31 C 38.15,26.46 37.97,26.67 37.86,26.96 C 37.74,27.24 37.68,27.59 37.68,28 C 37.68,28.41 37.74,28.76 37.86,29.04 S 38.15,29.54 38.36,29.69 C 38.59,29.83 38.85,29.91 39.14,29.91 C 39.44,29.91 39.69,29.83 39.91,29.69 C 40.13,29.54 40.31,29.32 40.42,29.04 C 40.54,28.76 40.6,28.41 40.6,28 Z M 34.22,27 A 1.5,1.5 0 0,0 34.06,26.6 C 33.98,26.5 33.9,26.4 33.79,26.33 C 33.69,26.25 33.58,26.19 33.45,26.15 A 1.46,1.46 0 0,0 33.01,26.09 C 32.71,26.09 32.46,26.17 32.24,26.31 C 32.02,26.46 31.84,26.68 31.72,26.96 C 31.59,27.24 31.53,27.59 31.53,27.99 C 31.53,28.4 31.59,28.75 31.72,29.03 C 31.84,29.32 32.02,29.53 32.23,29.68 C 32.46,29.83 32.73,29.91 33.03,29.91 C 33.3,29.91 33.53,29.86 33.73,29.76 C 33.93,29.66 34.08,29.51 34.18,29.33 C 34.28,29.15 34.34,28.93 34.34,28.69 L 34.59,28.72 H 33 V 27.79 H 35.51 V 28.53 C 35.51,29.04 35.41,29.48 35.19,29.85 C 34.98,30.22 34.69,30.5 34.31,30.7 C 33.93,30.9 33.51,31 33.02,31 A 2.5,2.5 0 0,1 30.64,29.6 A 3.5,3.5 0 0,1 30.3,28 C 30.3,27.53 30.36,27.1 30.5,26.74 A 2.48,2.48 0 0,1 31.93,25.2 C 32.26,25.07 32.61,25 32.99,25 C 33.32,25 33.63,25.05 33.91,25.15 C 34.19,25.24 34.44,25.38 34.66,25.55 A 2.19,2.19 0 0,1 35.46,27 H 34.22 Z M 26.34,25 H 27.56 V 28.84 A 2.03,2.03 0 0,1 26.42,30.73 C 26.06,30.91 25.65,31 25.17,31 S 24.27,30.91 23.91,30.73 A 2.03,2.03 0 0,1 22.78,28.84 V 25 H 24 V 28.74 C 24,28.96 24.04,29.16 24.14,29.34 C 24.24,29.51 24.38,29.64 24.55,29.74 C 24.73,29.84 24.93,29.9 25.17,29.9 C 25.4,29.9 25.61,29.85 25.79,29.75 C 25.96,29.65 26.09,29.51 26.19,29.34 C 26.29,29.16 26.34,28.96 26.34,28.74 V 25 Z M 18,31 V 25 H 22 V 26 H 19.28 V 27.48 H 21.73 V 28.52 H 19.28 V 31 H 18 Z M 17,25 V 31 H 15.9 L 13.3,27.22 H 13.26 V 31 H 12 V 25 H 13.1 L 15.69,28.77 H 15.74 V 25 H 17 Z M 11.24,25 V 31 H 10 V 25 H 11.24 Z M 4,25 H 5.37 L 6.58,27.58 H 6.64 L 8.05,25 H 9.42 L 7.22,28.88 V 31 H 6 V 28.88 L 4,25 Z"/>
</svg>
