<!-- by Finnhub --><svg width="56" height="56" viewBox="0 0 56 56" xmlns="http://www.w3.org/2000/svg"><path fill="#F0F3FA" d="M0 0h56v56H0z"/><path d="M20.3 24.77c.42 0 .73-.34.73-.78a.76.76 0 0 0-.74-.77c-.42 0-.73.34-.73.77 0 .44.3.78.73.78Z" fill="#D8223B"/><path d="M23 32h3v-.21c-.56 0-1-.13-1-.95v-1.58c0-1.4.95-2.66 1.7-2.66.77 0 .77.5.77 1.6v2.64c0 .82-.45.95-1.02.95V32h3.08v-.21c-.57 0-1.02-.13-1.02-.95v-1.58c0-1.53.85-2.66 1.58-2.66.73 0 .91.62.91 1.6v2.64c0 .82-.44.95-1 .95V32h3v-.21c-.55 0-1-.13-1-.95v-3.29c0-1.2-.35-1.55-1.56-1.55-1.08 0-1.68.99-1.9 1.55h-.01c0-1.21-.62-1.55-1.55-1.55-1.16 0-1.78 1.11-1.94 1.55H25V26l-2 .3v.21c.38.02 1 .07 1 .83v3.5c0 .82-.44.95-1 .95V32ZM38.86 31.63c-.12.01-.22.05-.33.05-.38 0-.53-.16-.53-.6v-3.1c0-1.15-.15-1.98-1.81-1.98-.84 0-2 .4-2 1.22 0 .34.24.56.57.56.2 0 .57-.13.57-.64 0-.4.1-.73.84-.73.83 0 .83.92.83 1.8v.38c-.92.09-3 .18-3 2 0 .82.6 1.41 1.45 1.41.82 0 1.17-.37 1.53-.93H37c0 .54.24.93.93.93.43 0 .74-.07.9-.12v-.25h.03ZM37 29.84c0 .85-.3 1.63-1.1 1.63-.4 0-.9-.44-.9-1.08 0-1.16 1.42-1.37 2-1.39v.84ZM49.7 31.68c-.37 0-.7-.16-.7-.6v-3.1c0-1.15-.15-1.98-1.81-1.98-.84 0-2 .4-2 1.22 0 .34.24.56.57.56.2 0 .57-.13.57-.64 0-.4.1-.73.84-.73.83 0 .83.92.83 1.8v.38c-.92.09-3 .18-3 2 0 .82.6 1.41 1.45 1.41.82 0 1.17-.36 1.53-.92H48c0 .55.24.92.93.92.43 0 .92-.07 1.07-.12v-.25l-.3.05ZM48 29.84c0 .85-.3 1.63-1.1 1.63-.4 0-.9-.44-.9-1.08 0-1.16 1.42-1.37 2-1.39v.84ZM43 32v-.2c-.5 0-1-.13-1-.95v-1.93c0-1.51.53-2.03.75-2.03.17 0 .33.31.68.31.33 0 .57-.23.57-.6 0-.4-.34-.6-.6-.6-.9 0-1.16.73-1.38 1.37H42V26l-2 .31v.21c.36.02 1 .07 1 .84v3.47c0 .84-.5.94-1 .94V32h3Z" fill="#83245C"/><path fill-rule="evenodd" d="M11 22a6 6 0 0 1 5.32 3.25c-.04.05-.09.75-1.32.75-1.44 0-1.8-.68-1.8-.68s-.33.06-.33.44c0 .42.63.78 1.86.78 1.13 0 1.72-.61 1.8-.88a5.98 5.98 0 0 1-10.8 5.17c.37.06.77.1 1.24.1 1.97 0 2.9-1.13 2.9-1.5 0-.39-.37-.43-.37-.43s.06.92-2.25.92c-.96 0-1.6-.17-2.02-.36l-.1-.38c.04-.08.44-.74 1.82-.74C8.41 28.44 9 29 9 29c.13-.06.16.03.16-.13 0-.57-1.95-.66-2.27-.64-.45 0-1.47.17-1.85.42A6 6 0 0 1 11 22Zm-1.8 5s.34.68 2.18.68c1.83 0 1.8-.88 1.8-.88s.28.17.28.46c0 .28-.74 1.2-2.3 1.2-1.58 0-2.37-.46-2.37-1 0-.45.41-.46.41-.46Zm1.91-.74c.27 0 1.82.08 1.82.51 0 .12-.06.17-.17.23 0 0-.44-.59-1.6-.59-1.18 0-1.47.6-1.47.6s-.19 0-.19-.28 1.16-.47 1.61-.47Zm3.56-1.4c.21 0 1.33.06 1.33.42 0 .1-.06.14-.13.18 0 0-.25-.46-1.16-.46-.9 0-1.14.47-1.14.47s-.15 0-.15-.2c0-.23.91-.4 1.25-.4Z" fill="#D8223B"/><path d="M19 32h3v-.21c-.55 0-1-.11-1-.95V26l-2 .3v.22c.39.02 1 .07 1 .84v3.5c0 .84-.45.94-1 .94v.2Z" fill="#83245C"/></svg>