<?xml version="1.0" encoding="UTF-8"?>
<!-- generated by Finnhub -->
<svg viewBox="0 0 55.5 55.5" xmlns="http://www.w3.org/2000/svg">
<path d="M 0,0 H 55.5 V 55.5 H 0 Z" fill="rgb(239, 242, 248)"/>
<path d="M 47.99,20.985 H 8 V 33 H 10 V 35 H 50 V 23 H 48 V 21 Z M 8.5,21.5 H 47.5 V 32.5 H 8.5 V 21.5 Z M 31.94,23.2 C 31.94,23.24 31.93,23.24 31.91,23.22 A 0.91,0.91 0 0,0 31.38,22.97 C 30.89,22.92 30.53,23.1 30.29,23.5 C 30.1,23.83 30.02,24.25 30.07,24.76 C 30.1,25.2 30.27,25.53 30.55,25.76 C 30.84,25.99 31.19,26.07 31.61,26.02 C 31.89,25.98 32.11,25.87 32.28,25.69 C 32.46,25.49 32.53,25.25 32.5,24.97 C 32.48,24.82 32.4,24.71 32.27,24.66 A 0.34,0.34 0 0,0 31.9,24.72 A 0.24,0.24 0 0,0 31.82,24.88 A 1,1 0 0,0 31.82,25.06 V 25.07 A 0.3,0.3 0 0,1 31.69,25.33 A 0.48,0.48 0 0,1 31.42,25.41 C 31.12,25.41 30.94,25.25 30.88,24.92 A 2.1,2.1 0 0,1 30.88,24.09 C 30.95,23.74 31.13,23.57 31.4,23.59 C 31.69,23.59 31.82,23.73 31.8,23.99 C 31.78,24.23 31.9,24.33 32.15,24.32 C 32.39,24.3 32.48,24.15 32.45,23.87 A 1.32,1.32 0 0,1 32.44,23.47 C 32.46,23.29 32.46,23.17 32.42,23.1 A 0.24,0.24 0 0,0 32.3,23 A 0.31,0.31 0 0,0 32.13,22.98 C 32.07,22.98 32.03,23.01 31.99,23.05 A 0.2,0.2 0 0,0 31.94,23.21 Z M 33.69,24.25 V 23.14 C 33.69,23.04 33.64,23.01 33.55,23.02 A 3,3 0 0,1 32.95,23.02 C 32.78,23 32.68,23.06 32.64,23.2 C 32.61,23.3 32.62,23.4 32.66,23.47 C 32.69,23.52 32.73,23.54 32.79,23.55 L 32.94,23.54 H 32.96 C 32.99,23.53 33.01,23.54 33.02,23.58 L 33.03,23.82 A 60.03,60.03 0 0,1 33.02,25.41 C 33.02,25.44 33,25.45 32.97,25.45 L 32.84,25.43 C 32.76,25.42 32.71,25.44 32.66,25.5 A 0.29,0.29 0 0,0 32.62,25.7 C 32.63,25.79 32.66,25.85 32.71,25.9 C 32.77,25.96 32.84,25.98 32.92,25.97 C 33.17,25.93 33.41,25.93 33.66,25.97 C 33.73,25.98 33.79,25.97 33.84,25.93 C 33.89,25.89 33.92,25.83 33.93,25.77 C 33.93,25.65 33.93,25.57 33.91,25.54 C 33.89,25.49 33.82,25.46 33.71,25.43 C 33.7,25.43 33.68,25.41 33.68,25.38 V 25.11 C 33.68,24.78 33.79,24.61 34.01,24.59 C 34.2,24.57 34.29,24.69 34.3,24.93 V 25.39 C 34.3,25.41 34.28,25.43 34.27,25.43 L 34.21,25.45 A 0.35,0.35 0 0,0 34.09,25.51 C 34.06,25.54 34.04,25.59 34.04,25.66 C 34.04,25.78 34.06,25.86 34.12,25.91 C 34.18,25.97 34.26,25.98 34.36,25.97 A 2,2 0 0,1 34.98,25.97 C 35.21,26 35.33,25.91 35.34,25.7 C 35.35,25.52 35.29,25.43 35.16,25.44 H 35.02 C 34.98,25.44 34.96,25.41 34.95,25.37 V 24.8 C 34.95,24.35 34.81,24.1 34.51,24.02 A 0.8,0.8 0 0,0 33.71,24.25 H 33.69 Z M 10.52,23.64 A 0.07,0.07 0 0,0 10.45,23.6 H 10.38 C 10.26,23.62 10.18,23.61 10.12,23.58 A 0.26,0.26 0 0,1 10.02,23.42 A 0.44,0.44 0 0,1 10.02,23.21 C 10.05,23.07 10.15,23.01 10.32,23.01 H 10.66 A 8.42,8.42 0 0,0 12.14,23.01 H 12.73 C 12.79,23.01 12.83,23.02 12.88,23.05 C 12.91,23.09 12.93,23.15 12.93,23.24 L 12.92,23.48 L 12.9,23.64 C 12.9,23.67 12.9,23.73 12.92,23.8 C 12.94,23.9 12.94,23.98 12.94,24.03 A 0.3,0.3 0 0,1 12.86,24.23 A 0.35,0.35 0 0,1 12.58,24.34 A 0.3,0.3 0 0,1 12.34,24.24 A 0.34,0.34 0 0,1 12.28,23.98 L 12.29,23.88 A 0.7,0.7 0 0,0 12.3,23.63 A 0.05,0.05 0 0,0 12.28,23.6 A 6.98,6.98 0 0,0 11.48,23.57 A 0.12,0.12 0 0,0 11.38,23.61 A 0.12,0.12 0 0,0 11.35,23.7 V 24.04 C 11.35,24.12 11.39,24.16 11.47,24.15 H 11.52 C 11.62,24.15 11.67,24.09 11.65,23.98 C 11.62,23.78 11.7,23.69 11.89,23.7 C 12.04,23.71 12.11,23.8 12.09,23.98 C 12.07,24.27 12.07,24.54 12.1,24.8 C 12.13,25.04 12.04,25.16 11.83,25.14 C 11.74,25.13 11.68,25.09 11.66,25.02 A 0.55,0.55 0 0,1 11.65,24.8 C 11.65,24.75 11.63,24.71 11.58,24.7 A 0.35,0.35 0 0,0 11.43,24.7 C 11.38,24.7 11.35,24.74 11.35,24.8 V 25.24 C 11.35,25.29 11.37,25.33 11.4,25.36 A 0.2,0.2 0 0,0 11.52,25.41 C 11.74,25.43 11.96,25.42 12.16,25.39 C 12.32,25.37 12.38,25.26 12.35,25.09 C 12.31,24.93 12.32,24.81 12.37,24.72 C 12.43,24.62 12.54,24.56 12.7,24.56 S 12.96,24.64 12.99,24.81 C 13.01,24.91 13,25.05 12.98,25.26 L 12.97,25.32 V 25.59 L 13,25.79 C 13,25.91 12.93,25.99 12.8,25.99 L 12.36,25.98 A 6.03,6.03 0 0,0 11.87,25.96 A 12,12 0 0,0 10.35,26 A 0.28,0.28 0 0,1 10.09,25.9 A 0.35,0.35 0 0,1 10,25.67 C 10,25.57 10.03,25.5 10.08,25.44 C 10.15,25.38 10.24,25.36 10.35,25.39 C 10.49,25.42 10.55,25.37 10.56,25.22 V 23.78 C 10.56,23.73 10.55,23.68 10.52,23.64 Z M 14.44,24.17 L 14.27,24.31 C 14.25,24.33 14.24,24.32 14.24,24.3 A 0.45,0.45 0 0,0 14.24,24.13 C 14.22,24.06 14.18,24.04 14.1,24.05 C 13.94,24.08 13.8,24.09 13.66,24.06 C 13.54,24.04 13.46,24.06 13.38,24.14 A 0.27,0.27 0 0,0 13.33,24.4 C 13.35,24.47 13.39,24.5 13.45,24.52 H 13.7 L 13.73,24.58 V 25.48 C 13.73,25.5 13.72,25.51 13.7,25.52 A 0.07,0.07 0 0,1 13.65,25.54 L 13.5,25.52 A 0.16,0.16 0 0,0 13.35,25.6 A 0.25,0.25 0 0,0 13.32,25.78 C 13.34,25.84 13.37,25.9 13.42,25.94 C 13.47,25.99 13.55,26.01 13.63,25.99 C 13.87,25.96 14.1,25.96 14.34,25.99 C 14.43,26.01 14.49,25.99 14.54,25.97 A 0.19,0.19 0 0,0 14.64,25.81 C 14.65,25.71 14.64,25.64 14.61,25.61 S 14.51,25.55 14.41,25.51 C 14.39,25.51 14.38,25.51 14.38,25.49 V 24.9 C 14.39,24.79 14.42,24.7 14.48,24.63 A 0.35,0.35 0 0,1 14.77,24.53 C 14.91,24.53 14.99,24.62 15,24.79 A 9,9 0 0,1 15,25.48 C 15,25.5 14.98,25.52 14.95,25.53 C 14.85,25.56 14.81,25.62 14.8,25.7 C 14.78,25.8 14.8,25.87 14.84,25.93 C 14.89,25.99 14.97,26.01 15.08,25.99 C 15.23,25.97 15.38,25.97 15.52,25.99 H 15.71 C 15.77,25.96 15.81,25.93 15.83,25.87 A 0.36,0.36 0 0,0 15.83,25.61 A 0.08,0.08 0 0,0 15.79,25.57 L 15.67,25.51 A 7.75,7.75 0 0,1 15.64,24.94 C 15.64,24.67 15.76,24.54 15.98,24.52 C 16.08,24.52 16.16,24.55 16.21,24.62 C 16.24,24.67 16.26,24.75 16.26,24.85 V 25.48 C 16.26,25.5 16.24,25.52 16.22,25.52 C 16.09,25.54 16.02,25.6 16.01,25.68 C 15.99,25.77 16.01,25.85 16.06,25.91 C 16.11,25.98 16.19,26.01 16.28,26 C 16.52,25.96 16.76,25.96 17,26 C 17.11,26 17.2,25.98 17.25,25.9 A 0.3,0.3 0 0,0 17.3,25.66 C 17.27,25.55 17.17,25.51 17,25.54 C 16.96,25.54 16.94,25.54 16.93,25.5 A 37.6,37.6 0 0,1 16.91,24.75 C 16.91,24.36 16.77,24.13 16.48,24.05 A 0.99,0.99 0 0,0 16.03,24.01 A 0.89,0.89 0 0,0 15.63,24.17 L 15.5,24.27 H 15.46 V 24.26 A 0.84,0.84 0 0,0 15.28,24.09 A 0.67,0.67 0 0,0 14.85,24.01 A 0.78,0.78 0 0,0 14.45,24.17 Z M 20.81,24.42 A 0.86,0.86 0 0,0 20.87,24.31 A 0.6,0.6 0 0,1 21.07,24.09 A 0.7,0.7 0 0,1 21.37,24 C 21.49,24 21.6,24 21.69,24.05 C 21.79,24.09 21.87,24.15 21.93,24.24 C 21.99,24.34 22.01,24.46 21.98,24.57 A 0.31,0.31 0 0,1 21.75,24.82 A 0.35,0.35 0 0,1 21.43,24.76 C 21.33,24.68 21.33,24.59 21.4,24.48 V 24.46 H 21.38 C 21.18,24.46 21.06,24.56 21.01,24.74 C 20.94,24.96 20.92,25.22 20.95,25.5 C 20.95,25.52 20.95,25.53 20.97,25.54 L 21.03,25.56 L 21.18,25.53 C 21.27,25.52 21.34,25.53 21.39,25.59 C 21.44,25.63 21.45,25.69 21.45,25.76 S 21.41,25.89 21.35,25.93 A 0.32,0.32 0 0,1 21.11,26 A 4.03,4.03 0 0,0 20.21,26 C 20.01,26.02 19.91,25.95 19.88,25.8 C 19.86,25.68 19.88,25.6 19.95,25.56 C 20,25.53 20.09,25.52 20.22,25.54 L 20.26,25.53 L 20.28,25.5 A 6.45,6.45 0 0,0 20.25,24.52 A 0.06,0.06 0 0,0 20.21,24.52 A 0.5,0.5 0 0,1 20,24.52 C 19.93,24.5 19.9,24.45 19.88,24.37 C 19.87,24.27 19.88,24.19 19.94,24.13 C 20,24.06 20.08,24.04 20.19,24.06 C 20.32,24.09 20.46,24.09 20.6,24.06 C 20.7,24.04 20.77,24.06 20.8,24.14 V 24.41 C 20.8,24.44 20.8,24.44 20.81,24.41 Z M 25.79,24.53 C 25.81,24.53 25.81,24.55 25.79,24.56 A 0.12,0.12 0 0,0 25.76,24.66 C 25.77,24.74 25.81,24.8 25.88,24.84 C 25.94,24.88 26.01,24.89 26.1,24.89 C 26.18,24.89 26.26,24.86 26.32,24.82 A 0.3,0.3 0 0,0 26.46,24.65 C 26.51,24.49 26.46,24.35 26.31,24.22 A 0.91,0.91 0 0,0 25.83,24.02 C 25.51,23.97 25.23,24.02 24.99,24.14 A 0.85,0.85 0 0,0 24.53,24.77 C 24.49,24.97 24.5,25.14 24.54,25.3 A 1,1 0 0,0 24.78,25.71 C 24.9,25.83 25.04,25.91 25.21,25.95 C 25.39,26 25.59,26.01 25.81,25.98 A 1,1 0 0,0 26.29,25.78 C 26.45,25.66 26.53,25.52 26.53,25.37 C 26.53,25.27 26.48,25.19 26.4,25.14 A 0.41,0.41 0 0,0 26.1,25.1 C 26.04,25.12 25.98,25.18 25.92,25.28 L 25.9,25.32 C 25.83,25.45 25.72,25.51 25.56,25.49 A 0.38,0.38 0 0,1 25.31,25.35 A 0.54,0.54 0 0,1 25.19,25.09 A 0.65,0.65 0 0,1 25.2,24.79 A 0.4,0.4 0 0,1 25.35,24.57 C 25.48,24.47 25.63,24.46 25.79,24.53 Z M 38.79,24.31 A 1,1 0 0,1 39.67,24.01 C 39.85,24.04 39.99,24.13 40.07,24.27 C 40.17,24.39 40.2,24.54 40.2,24.72 V 25.46 C 40.2,25.49 40.22,25.51 40.24,25.52 L 40.3,25.54 C 40.42,25.51 40.5,25.54 40.55,25.59 C 40.6,25.64 40.6,25.72 40.58,25.82 C 40.55,25.97 40.43,26.02 40.22,25.99 C 40.02,25.96 39.82,25.96 39.58,25.99 C 39.45,26.01 39.36,25.99 39.31,25.91 C 39.27,25.85 39.26,25.76 39.28,25.65 C 39.3,25.59 39.37,25.55 39.49,25.53 C 39.51,25.53 39.53,25.51 39.54,25.49 A 10.53,10.53 0 0,0 39.56,24.9 C 39.55,24.69 39.5,24.57 39.39,24.54 A 0.38,0.38 0 0,0 38.89,24.89 A 6.02,6.02 0 0,0 38.93,25.51 A 0.6,0.6 0 0,0 38.99,25.54 C 39.08,25.56 39.13,25.6 39.14,25.64 C 39.16,25.69 39.16,25.76 39.14,25.84 C 39.12,25.97 39.02,26.02 38.83,25.99 A 1.98,1.98 0 0,0 38.35,25.98 H 38.31 A 0.92,0.92 0 0,1 37.97,25.98 C 37.87,25.94 37.82,25.84 37.84,25.69 C 37.84,25.61 37.88,25.55 37.95,25.53 A 0.53,0.53 0 0,1 38.17,25.53 C 38.19,25.54 38.21,25.53 38.22,25.51 A 0.59,0.59 0 0,0 38.24,25.33 V 24.68 L 38.21,24.53 C 38.2,24.51 38.18,24.5 38.16,24.51 A 0.44,0.44 0 0,1 37.98,24.52 C 37.91,24.52 37.87,24.48 37.85,24.42 C 37.81,24.3 37.83,24.21 37.89,24.14 C 37.96,24.06 38.06,24.04 38.19,24.06 C 38.32,24.08 38.46,24.08 38.63,24.06 C 38.66,24.04 38.7,24.05 38.72,24.06 A 0.1,0.1 0 0,1 38.76,24.15 V 24.3 C 38.76,24.32 38.76,24.33 38.78,24.3 Z M 27.43,25.11 S 27.41,25.12 27.41,25.14 C 27.4,25.32 27.47,25.44 27.63,25.51 C 27.73,25.55 27.83,25.55 27.93,25.51 A 0.86,0.86 0 0,0 28.19,25.34 A 0.37,0.37 0 0,1 28.39,25.26 C 28.48,25.24 28.55,25.26 28.61,25.29 C 28.68,25.34 28.71,25.39 28.71,25.48 C 28.71,25.56 28.7,25.62 28.65,25.68 A 0.77,0.77 0 0,1 28.25,25.94 C 28.1,25.98 27.93,26 27.75,26 A 1.07,1.07 0 0,1 26.9,25.62 A 0.88,0.88 0 0,1 26.72,25.22 A 1.1,1.1 0 0,1 26.73,24.77 C 26.8,24.48 26.96,24.27 27.21,24.13 C 27.45,24 27.74,23.97 28.07,24.03 C 28.31,24.08 28.49,24.19 28.61,24.36 C 28.73,24.53 28.77,24.72 28.75,24.95 C 28.74,25.05 28.68,25.1 28.58,25.1 A 63.24,63.24 0 0,0 27.43,25.11 Z M 27.43,24.71 V 24.7 C 27.43,24.62 27.46,24.55 27.52,24.5 A 0.34,0.34 0 0,1 27.75,24.41 C 27.85,24.41 27.93,24.44 27.99,24.49 C 28.05,24.55 28.09,24.61 28.09,24.69 L 27.43,24.7 Z M 43.69,25.14 C 43.69,25.12 43.7,25.11 43.72,25.11 L 43.82,25.1 H 44.81 C 44.91,25.1 44.97,25.07 44.98,25 A 0.83,0.83 0 0,0 44.87,24.37 A 0.8,0.8 0 0,0 44.29,24.02 C 43.98,23.97 43.71,24.02 43.47,24.14 A 0.87,0.87 0 0,0 43.03,24.76 C 42.97,25.06 43.01,25.32 43.14,25.54 C 43.29,25.79 43.52,25.94 43.84,25.98 C 44.19,26.03 44.5,25.98 44.74,25.83 C 44.87,25.74 44.94,25.64 44.96,25.53 C 44.98,25.43 44.95,25.35 44.86,25.3 C 44.79,25.25 44.7,25.24 44.59,25.27 A 0.62,0.62 0 0,0 44.39,25.39 A 0.9,0.9 0 0,1 44.25,25.49 A 0.4,0.4 0 0,1 43.87,25.49 C 43.73,25.42 43.67,25.3 43.69,25.14 Z M 43.71,24.69 V 24.7 H 44.34 V 24.68 A 0.25,0.25 0 0,0 44.25,24.48 A 0.33,0.33 0 0,0 44.03,24.41 H 44.02 A 0.32,0.32 0 0,0 43.8,24.49 A 0.25,0.25 0 0,0 43.7,24.69 Z M 18.13,25.74 C 18.11,25.72 18.1,25.73 18.1,25.76 C 18.12,25.86 18.09,25.92 18,25.94 A 0.41,0.41 0 0,1 17.8,25.96 C 17.72,25.94 17.67,25.9 17.65,25.84 A 399.16,399.16 0 0,0 17.62,23.52 C 17.62,23.48 17.59,23.47 17.56,23.48 C 17.37,23.51 17.26,23.48 17.24,23.38 A 0.28,0.28 0 0,1 17.26,23.14 A 0.28,0.28 0 0,1 17.52,23 C 17.72,23.02 17.92,23.02 18.16,23 C 18.21,23 18.26,23.05 18.26,23.08 A 0.3,0.3 0 0,1 18.28,23.2 V 23.22 A 82.54,82.54 0 0,1 18.3,24.23 L 18.33,24.21 A 0.92,0.92 0 0,1 18.54,24.08 A 0.97,0.97 0 0,1 18.87,24 A 0.81,0.81 0 0,1 19.68,24.66 C 19.73,24.86 19.72,25.06 19.68,25.3 A 0.9,0.9 0 0,1 19.06,25.96 A 0.95,0.95 0 0,1 18.13,25.74 Z M 18.4,25.4 A 0.53,0.53 0 0,1 18.3,25.17 A 0.87,0.87 0 0,1 18.3,24.87 C 18.32,24.77 18.36,24.68 18.41,24.62 A 0.32,0.32 0 0,1 18.64,24.49 C 18.76,24.49 18.85,24.51 18.92,24.59 C 18.98,24.66 19.02,24.75 19.04,24.87 C 19.05,24.98 19.04,25.09 19.01,25.2 A 0.46,0.46 0 0,1 18.88,25.44 A 0.33,0.33 0 0,1 18.63,25.52 A 0.3,0.3 0 0,1 18.4,25.4 Z M 22.92,24.43 C 22.92,24.4 22.93,24.38 22.97,24.38 C 23.07,24.35 23.17,24.37 23.25,24.42 A 0.16,0.16 0 0,1 23.28,24.69 A 0.4,0.4 0 0,1 23.08,24.79 L 22.61,24.88 C 22.29,24.93 22.11,25.08 22.08,25.31 C 22.05,25.49 22.08,25.64 22.18,25.76 C 22.26,25.86 22.38,25.93 22.55,25.97 C 22.7,26.01 22.85,26.01 23.02,25.97 C 23.19,25.94 23.34,25.87 23.45,25.78 H 23.48 L 23.51,25.79 C 23.56,25.89 23.65,25.95 23.77,25.98 C 23.87,26.01 23.99,26.01 24.12,25.98 C 24.22,25.96 24.31,25.91 24.36,25.83 A 0.2,0.2 0 0,0 24.36,25.62 C 24.32,25.54 24.26,25.51 24.16,25.51 A 0.9,0.9 0 0,1 24.06,25.51 C 24.02,25.51 24,25.49 24,25.46 V 24.64 C 24,24.45 23.96,24.31 23.87,24.22 A 0.7,0.7 0 0,0 23.44,24.02 C 23.13,23.98 22.84,23.99 22.59,24.06 A 0.57,0.57 0 0,0 22.32,24.19 A 0.27,0.27 0 0,0 22.19,24.42 C 22.19,24.6 22.29,24.71 22.5,24.75 C 22.58,24.76 22.66,24.75 22.75,24.72 C 22.85,24.69 22.9,24.63 22.92,24.56 V 24.43 Z M 23.35,25.15 C 23.35,25.13 23.34,25.12 23.32,25.13 L 22.92,25.23 A 0.32,0.32 0 0,0 22.78,25.3 C 22.74,25.34 22.73,25.38 22.76,25.43 C 22.78,25.48 22.82,25.51 22.86,25.52 C 22.96,25.54 23.04,25.54 23.13,25.51 C 23.23,25.48 23.29,25.42 23.32,25.35 A 0.65,0.65 0 0,0 23.35,25.15 Z M 36.89,25.78 C 36.88,25.76 36.87,25.76 36.85,25.78 A 0.94,0.94 0 0,1 36.35,25.98 C 36.15,26.01 35.95,25.99 35.79,25.92 C 35.6,25.84 35.49,25.72 35.47,25.54 C 35.43,25.28 35.51,25.1 35.69,24.99 C 35.81,24.92 36.02,24.86 36.34,24.82 C 36.44,24.8 36.53,24.78 36.59,24.74 C 36.69,24.69 36.73,24.63 36.73,24.55 C 36.72,24.48 36.67,24.43 36.59,24.39 A 0.39,0.39 0 0,0 36.36,24.38 C 36.33,24.38 36.31,24.4 36.31,24.44 C 36.32,24.52 36.31,24.58 36.26,24.64 A 0.3,0.3 0 0,1 36.09,24.74 A 0.47,0.47 0 0,1 35.87,24.74 A 0.44,0.44 0 0,1 35.67,24.64 A 0.26,0.26 0 0,1 35.57,24.46 C 35.57,24.38 35.59,24.32 35.64,24.26 C 35.74,24.13 35.92,24.05 36.19,24.02 C 36.39,24 36.59,23.99 36.77,24.02 C 37.02,24.04 37.19,24.12 37.27,24.22 C 37.35,24.32 37.39,24.45 37.39,24.59 V 25.46 C 37.39,25.49 37.41,25.51 37.45,25.51 C 37.55,25.51 37.61,25.51 37.65,25.53 C 37.72,25.55 37.76,25.59 37.77,25.65 C 37.8,25.8 37.74,25.9 37.59,25.95 A 0.71,0.71 0 0,1 37.17,25.98 A 0.41,0.41 0 0,1 36.89,25.78 Z M 36.71,25.01 C 36.72,25.01 36.73,25.01 36.73,25.03 C 36.74,25.34 36.61,25.49 36.33,25.48 A 0.23,0.23 0 0,1 36.19,25.43 A 0.15,0.15 0 0,1 36.14,25.33 C 36.14,25.29 36.14,25.25 36.18,25.21 A 0.26,0.26 0 0,1 36.31,25.12 L 36.71,25.02 Z M 40.84,25.73 C 40.88,25.77 40.94,25.8 41.04,25.83 C 41.06,25.85 41.06,25.85 41.04,25.86 A 0.55,0.55 0 0,0 40.72,26.09 A 0.43,0.43 0 0,0 40.67,26.46 A 0.6,0.6 0 0,0 40.81,26.69 C 40.87,26.76 40.94,26.81 41.01,26.85 C 41.21,26.94 41.4,26.99 41.58,27 C 42.23,27.03 42.66,26.9 42.87,26.59 A 0.7,0.7 0 0,0 42.99,26.19 A 0.52,0.52 0 0,0 42.85,25.79 A 0.77,0.77 0 0,0 42.3,25.59 H 41.72 A 0.8,0.8 0 0,1 41.42,25.53 C 41.36,25.51 41.32,25.46 41.33,25.39 V 25.38 C 41.33,25.31 41.38,25.28 41.45,25.31 A 1.22,1.22 0 0,0 42.3,25.31 A 0.74,0.74 0 0,0 42.63,25.07 A 0.7,0.7 0 0,0 42.77,24.65 C 42.77,24.39 42.64,24.21 42.39,24.09 A 0.04,0.04 0 0,1 42.36,24.06 C 42.36,24.02 42.36,23.98 42.39,23.96 A 0.05,0.05 0 0,1 42.43,23.93 A 4.07,4.07 0 0,1 42.54,24.03 C 42.58,24.09 42.64,24.11 42.7,24.12 C 42.77,24.12 42.82,24.1 42.87,24.06 C 42.97,23.98 42.99,23.87 42.93,23.74 A 0.37,0.37 0 0,0 42.72,23.54 A 0.62,0.62 0 0,0 42.39,23.51 A 0.56,0.56 0 0,0 42.09,23.64 A 0.35,0.35 0 0,0 41.97,23.92 C 41.97,23.94 41.96,23.96 41.93,23.95 C 41.63,23.93 41.38,23.99 41.18,24.15 A 0.65,0.65 0 0,0 40.94,24.55 A 0.5,0.5 0 0,0 41.06,24.99 C 41.08,25.01 41.07,25.03 41.05,25.04 C 40.82,25.13 40.72,25.29 40.75,25.52 C 40.75,25.62 40.79,25.68 40.85,25.73 Z M 41.84,24.95 C 42,24.95 42.12,24.82 42.12,24.67 A 0.27,0.27 0 0,0 41.85,24.4 A 0.27,0.27 0 0,0 41.58,24.67 C 41.58,24.82 41.7,24.95 41.85,24.95 Z M 41.52,26.45 A 0.3,0.3 0 0,1 41.36,26.35 C 41.32,26.31 41.31,26.25 41.34,26.19 A 0.24,0.24 0 0,1 41.44,26.11 A 0.24,0.24 0 0,1 41.56,26.07 L 42.06,26.08 C 42.14,26.08 42.22,26.11 42.28,26.16 L 42.3,26.2 C 42.33,26.35 42.24,26.44 42,26.46 C 41.85,26.48 41.69,26.48 41.52,26.44 Z M 21.91,28.4 A 0.4,0.4 0 0,1 21.52,28.8 A 0.4,0.4 0 0,1 21.14,28.4 C 21.14,28.18 21.31,28 21.52,28 A 0.4,0.4 0 0,1 21.91,28.4 Z M 25.19,28.8 A 0.4,0.4 0 0,0 25.58,28.4 A 0.4,0.4 0 0,0 25.19,28 A 0.4,0.4 0 0,0 24.81,28.4 C 24.81,28.62 24.98,28.8 25.19,28.8 Z M 28.93,28.4 A 0.4,0.4 0 0,1 28.54,28.8 A 0.4,0.4 0 0,1 28.16,28.4 C 28.16,28.18 28.33,28 28.54,28 A 0.4,0.4 0 0,1 28.93,28.4 Z M 37.49,28.26 H 37.51 C 37.51,28.11 37.58,28.04 37.71,28.02 C 37.85,28.01 37.94,28.04 37.99,28.12 C 38.04,28.2 38.05,28.31 38.03,28.44 A 1.3,1.3 0 0,0 38.03,28.92 C 38.05,29.06 38.02,29.17 37.94,29.24 C 37.87,29.31 37.76,29.34 37.61,29.32 C 37.51,29.31 37.44,29.27 37.41,29.21 A 0.47,0.47 0 0,1 37.38,29.01 C 37.38,28.87 37.36,28.78 37.31,28.73 A 0.46,0.46 0 0,0 36.94,28.6 C 36.57,28.62 36.4,28.98 36.43,29.66 C 36.45,30.22 36.69,30.46 37.13,30.37 A 0.34,0.34 0 0,0 37.33,30.27 A 0.27,0.27 0 0,0 37.39,30.06 C 37.39,29.96 37.39,29.88 37.41,29.82 A 0.24,0.24 0 0,1 37.57,29.66 A 0.38,0.38 0 0,1 37.92,29.69 C 38.02,29.76 38.07,29.86 38.08,30 A 0.85,0.85 0 0,1 37.83,30.7 C 37.65,30.86 37.43,30.96 37.13,30.99 C 36.89,31.02 36.66,30.99 36.45,30.92 C 36.23,30.83 36.05,30.69 35.9,30.49 A 1.8,1.8 0 0,1 35.64,29.31 C 35.67,28.91 35.78,28.61 35.99,28.37 C 36.22,28.1 36.52,27.98 36.89,28 C 37.12,28.01 37.32,28.1 37.49,28.26 Z M 26.25,29.5 L 26.34,29.52 C 26.36,29.52 26.37,29.54 26.37,29.56 V 29.94 L 26.35,30.1 C 26.35,30.31 26.36,30.48 26.42,30.62 C 26.48,30.79 26.61,30.91 26.8,30.96 A 0.9,0.9 0 0,0 27.31,30.96 A 0.6,0.6 0 0,0 27.71,30.64 A 1,1 0 0,0 27.79,30.1 A 0.43,0.43 0 0,0 27.73,29.9 A 0.24,0.24 0 0,0 27.61,29.8 A 0.25,0.25 0 0,0 27.46,29.8 A 0.2,0.2 0 0,0 27.35,29.87 A 0.23,0.23 0 0,0 27.3,30.02 V 30.29 C 27.28,30.37 27.24,30.41 27.16,30.42 H 27.13 C 27.04,30.39 27,30.32 27,30.22 V 29.59 C 27,29.53 27.05,29.5 27.1,29.5 H 27.5 C 27.63,29.5 27.7,29.42 27.71,29.28 C 27.71,29.09 27.62,28.99 27.42,29 H 27.1 C 27.05,29 27,28.97 27,28.92 V 28.29 C 27,28.03 26.88,27.94 26.59,28.02 C 26.47,28.05 26.41,28.12 26.4,28.25 V 28.93 C 26.4,28.97 26.38,28.99 26.34,29 H 26.29 C 26.19,29.01 26.12,29.03 26.09,29.07 A 0.3,0.3 0 0,0 26.02,29.29 C 26.02,29.39 26.06,29.45 26.12,29.48 L 26.25,29.5 Z M 12.14,30.07 C 12.18,30.07 12.21,30.09 12.24,30.12 C 12.29,30.2 12.3,30.28 12.29,30.38 C 12.29,30.41 12.26,30.43 12.23,30.43 H 12.07 C 12,30.43 11.95,30.48 11.94,30.59 C 11.94,30.66 11.94,30.74 11.96,30.83 C 11.97,30.88 12.01,30.93 12.06,30.95 C 12.11,30.99 12.16,31 12.21,30.99 C 12.51,30.95 12.81,30.94 13.07,30.99 C 13.23,31.01 13.34,30.99 13.42,30.93 C 13.51,30.87 13.54,30.75 13.52,30.58 A 0.23,0.23 0 0,0 13.42,30.41 A 0.29,0.29 0 0,0 13.22,30.39 C 13.12,30.41 13.07,30.36 13.04,30.26 L 12.46,28.26 C 12.42,28.11 12.34,28.03 12.23,28.02 C 11.93,27.99 11.69,27.99 11.53,28.03 C 11.41,28.06 11.32,28.19 11.24,28.42 L 10.62,30.27 C 10.6,30.33 10.57,30.37 10.52,30.38 A 0.4,0.4 0 0,1 10.38,30.38 L 10.24,30.39 A 0.17,0.17 0 0,0 10.14,30.49 A 0.41,0.41 0 0,0 10.14,30.86 C 10.2,30.97 10.3,31.02 10.44,30.99 C 10.77,30.95 11.08,30.94 11.38,30.99 C 11.46,31.01 11.53,30.99 11.58,30.95 C 11.65,30.91 11.68,30.85 11.69,30.75 C 11.72,30.55 11.68,30.43 11.56,30.42 H 11.4 C 11.37,30.42 11.35,30.42 11.35,30.37 C 11.35,30.24 11.39,30.14 11.49,30.08 H 12.14 Z M 11.61,29.51 H 12.08 L 12.09,29.49 L 11.88,28.56 H 11.85 L 11.6,29.49 L 11.61,29.51 Z M 14.88,29.52 C 14.89,29.52 14.9,29.54 14.89,29.55 C 14.85,29.65 14.86,29.73 14.92,29.79 C 14.97,29.85 15.05,29.89 15.15,29.89 S 15.35,29.87 15.42,29.82 A 0.3,0.3 0 0,0 15.57,29.59 A 0.43,0.43 0 0,0 15.4,29.2 A 0.87,0.87 0 0,0 14.97,29.02 A 1.48,1.48 0 0,0 14.31,29.06 A 0.98,0.98 0 0,0 13.78,29.41 A 0.88,0.88 0 0,0 13.62,29.86 C 13.6,30.03 13.62,30.19 13.66,30.35 C 13.74,30.59 13.9,30.77 14.16,30.89 A 1.3,1.3 0 0,0 15.4,30.78 A 0.51,0.51 0 0,0 15.63,30.39 C 15.63,30.2 15.53,30.09 15.31,30.09 C 15.19,30.09 15.11,30.13 15.06,30.22 C 15.01,30.32 14.96,30.39 14.9,30.43 C 14.83,30.49 14.74,30.5 14.63,30.48 A 0.41,0.41 0 0,1 14.33,30.23 A 0.6,0.6 0 0,1 14.3,29.85 A 0.42,0.42 0 0,1 14.48,29.55 C 14.59,29.47 14.72,29.46 14.88,29.52 Z M 22.8,30.82 C 22.8,30.88 22.77,30.92 22.72,30.95 A 0.28,0.28 0 0,1 22.56,30.98 A 0.24,0.24 0 0,1 22.42,30.92 A 0.16,0.16 0 0,1 22.36,30.78 C 22.38,30.64 22.38,30.51 22.37,30.38 C 22.37,30.29 22.41,30.24 22.5,30.22 C 22.61,30.19 22.7,30.19 22.77,30.23 C 22.81,30.25 22.87,30.3 22.92,30.37 C 23,30.47 23.07,30.52 23.15,30.54 A 0.7,0.7 0 0,0 23.55,30.54 A 0.15,0.15 0 0,0 23.65,30.46 C 23.66,30.42 23.65,30.38 23.62,30.34 A 0.28,0.28 0 0,0 23.48,30.27 L 23.35,30.24 C 23.12,30.2 22.95,30.16 22.85,30.13 A 0.54,0.54 0 0,1 22.58,29.95 A 0.48,0.48 0 0,1 22.48,29.7 C 22.47,29.6 22.48,29.5 22.52,29.42 A 0.6,0.6 0 0,1 22.69,29.18 A 0.82,0.82 0 0,1 23.21,29 C 23.41,29 23.59,29.04 23.74,29.14 H 23.78 V 29.12 C 23.78,29.08 23.81,29.05 23.85,29.04 A 0.42,0.42 0 0,1 24.1,29.01 C 24.2,29.03 24.23,29.09 24.22,29.18 C 24.19,29.3 24.19,29.42 24.19,29.54 C 24.2,29.63 24.16,29.69 24.08,29.72 A 0.33,0.33 0 0,1 23.84,29.7 A 0.5,0.5 0 0,1 23.68,29.58 A 0.74,0.74 0 0,0 23.58,29.49 A 0.45,0.45 0 0,0 23.35,29.42 C 23.25,29.42 23.17,29.44 23.13,29.5 C 23.09,29.55 23.09,29.6 23.13,29.63 S 23.22,29.69 23.29,29.7 L 23.76,29.78 C 24.12,29.85 24.31,30.02 24.33,30.3 C 24.34,30.46 24.29,30.6 24.18,30.73 A 0.82,0.82 0 0,1 23.73,30.97 A 1.2,1.2 0 0,1 22.83,30.82 C 22.82,30.8 22.81,30.81 22.8,30.82 Z M 33.07,29.05 C 32.95,29.1 32.81,29.18 32.66,29.31 C 32.63,29.33 32.62,29.33 32.62,29.29 V 29.14 A 0.09,0.09 0 0,0 32.59,29.07 A 0.1,0.1 0 0,0 32.5,29.05 C 32.34,29.09 32.2,29.09 32.06,29.07 C 31.93,29.04 31.84,29.07 31.76,29.15 C 31.69,29.22 31.68,29.32 31.73,29.43 C 31.75,29.48 31.79,29.52 31.86,29.53 C 31.89,29.53 31.96,29.53 32.03,29.51 L 32.09,29.52 L 32.11,29.57 V 30.41 A 0.2,0.2 0 0,1 32.09,30.52 L 32.05,30.54 L 31.9,30.52 C 31.78,30.52 31.72,30.58 31.7,30.7 C 31.7,30.75 31.7,30.8 31.72,30.84 A 0.2,0.2 0 0,0 31.8,30.95 C 31.87,30.99 31.95,31.01 32.04,31 C 32.29,30.96 32.52,30.96 32.74,31 C 32.8,31 32.87,31 32.92,30.98 C 32.98,30.95 33.02,30.9 33.02,30.84 A 0.45,0.45 0 0,0 33.02,30.62 A 0.1,0.1 0 0,0 32.95,30.56 L 32.8,30.51 A 6.94,6.94 0 0,1 32.77,29.89 C 32.77,29.69 32.88,29.57 33.07,29.53 C 33.17,29.51 33.25,29.52 33.31,29.56 C 33.38,29.6 33.41,29.66 33.42,29.76 C 33.44,29.99 33.44,30.23 33.43,30.46 C 33.43,30.49 33.41,30.51 33.39,30.52 H 33.37 A 0.65,0.65 0 0,0 33.24,30.57 A 0.15,0.15 0 0,0 33.15,30.67 C 33.13,30.77 33.15,30.87 33.2,30.92 C 33.25,30.99 33.34,31.02 33.46,30.99 C 33.69,30.96 33.92,30.96 34.16,30.99 C 34.23,31.01 34.3,30.99 34.36,30.97 A 0.2,0.2 0 0,0 34.46,30.82 C 34.48,30.7 34.46,30.62 34.42,30.58 C 34.38,30.53 34.3,30.52 34.18,30.54 C 34.15,30.54 34.13,30.54 34.11,30.52 A 0.07,0.07 0 0,1 34.08,30.47 V 29.73 C 34.08,29.33 33.9,29.09 33.56,29.03 A 0.88,0.88 0 0,0 33.07,29.05 Z M 19.77,30.73 L 19.74,30.76 A 0.59,0.59 0 0,1 19.66,30.83 A 1,1 0 0,1 18.89,30.98 A 0.54,0.54 0 0,1 18.51,30.71 A 0.99,0.99 0 0,1 18.43,30.27 V 29.52 C 18.43,29.49 18.42,29.47 18.38,29.48 C 18.23,29.48 18.13,29.45 18.11,29.39 A 0.37,0.37 0 0,1 18.09,29.18 A 0.2,0.2 0 0,1 18.25,29.01 A 0.92,0.92 0 0,1 18.52,29.01 A 1,1 0 0,0 18.73,29.03 L 18.78,29.02 C 18.9,29 18.98,29 19.03,29.02 L 19.06,29.04 L 19.09,29.19 V 30.22 C 19.1,30.31 19.13,30.38 19.19,30.42 C 19.25,30.47 19.32,30.49 19.42,30.47 C 19.59,30.44 19.69,30.33 19.71,30.15 A 2.6,2.6 0 0,0 19.71,29.59 A 0.22,0.22 0 0,0 19.7,29.49 C 19.68,29.47 19.65,29.46 19.6,29.46 H 19.57 A 0.32,0.32 0 0,1 19.43,29.46 C 19.39,29.45 19.36,29.42 19.35,29.36 A 0.3,0.3 0 0,1 19.38,29.1 C 19.43,29.02 19.51,28.99 19.63,29 L 19.71,29.01 C 19.84,29.03 19.93,29.03 20,29.02 L 20.22,29 C 20.32,29 20.37,29.04 20.37,29.13 A 599.61,599.61 0 0,0 20.39,30.45 C 20.4,30.48 20.42,30.49 20.45,30.49 C 20.62,30.47 20.72,30.49 20.75,30.57 C 20.75,30.61 20.77,30.66 20.76,30.71 A 0.3,0.3 0 0,1 20.73,30.85 A 0.3,0.3 0 0,1 20.59,30.95 A 0.42,0.42 0 0,1 20.41,30.95 A 0.96,0.96 0 0,0 20.01,30.95 C 19.93,30.96 19.88,30.95 19.85,30.91 C 19.82,30.88 19.81,30.82 19.82,30.75 C 19.83,30.7 19.82,30.69 19.77,30.73 Z M 21.21,30.5 A 0.08,0.08 0 0,1 21.15,30.52 H 21.08 L 20.91,30.53 C 20.86,30.56 20.83,30.61 20.82,30.69 C 20.82,30.81 20.85,30.89 20.92,30.94 C 20.98,30.99 21.07,31.01 21.18,30.99 C 21.42,30.96 21.65,30.96 21.88,30.99 C 22,31.01 22.09,31 22.15,30.97 C 22.23,30.94 22.27,30.87 22.27,30.75 C 22.27,30.65 22.25,30.57 22.2,30.55 C 22.16,30.52 22.08,30.51 21.96,30.53 C 21.94,30.53 21.93,30.53 21.92,30.51 A 0.14,0.14 0 0,1 21.88,30.41 A 197.23,197.23 0 0,1 21.86,29.06 A 0.09,0.09 0 0,0 21.82,29.01 A 0.1,0.1 0 0,0 21.75,29.01 C 21.55,29.04 21.37,29.04 21.19,29.01 A 0.43,0.43 0 0,0 21,29.01 A 0.23,0.23 0 0,0 20.84,29.17 A 0.28,0.28 0 0,0 20.84,29.39 C 20.87,29.45 20.91,29.48 20.97,29.49 L 21.14,29.48 H 21.21 L 21.23,29.54 V 30.44 C 21.23,30.47 21.23,30.49 21.21,30.5 Z M 24.91,30.51 L 24.95,30.47 C 24.97,30.45 25,30.42 25,30.4 V 29.6 L 24.97,29.56 L 24.93,29.52 A 0.06,0.06 0 0,0 24.9,29.48 A 0.06,0.06 0 0,0 24.85,29.48 C 24.75,29.5 24.65,29.49 24.6,29.44 C 24.54,29.39 24.52,29.31 24.54,29.21 A 0.24,0.24 0 0,1 24.68,29.03 A 0.39,0.39 0 0,1 24.92,29.01 C 25.07,29.04 25.25,29.04 25.45,29.01 C 25.49,29 25.53,29.01 25.55,29.03 C 25.58,29.05 25.59,29.08 25.59,29.13 V 30.37 C 25.59,30.42 25.6,30.47 25.63,30.51 C 25.63,30.53 25.65,30.53 25.67,30.53 C 25.8,30.51 25.89,30.52 25.93,30.56 C 25.98,30.6 26,30.68 25.98,30.81 A 0.2,0.2 0 0,1 25.88,30.97 A 0.31,0.31 0 0,1 25.68,31 A 3.2,3.2 0 0,0 24.85,31 C 24.72,31.01 24.62,30.97 24.56,30.86 A 0.27,0.27 0 0,1 24.59,30.56 C 24.63,30.51 24.72,30.5 24.86,30.53 H 24.87 C 24.89,30.53 24.9,30.53 24.91,30.51 Z M 28.18,29.47 C 28.21,29.47 28.22,29.47 28.23,29.5 L 28.25,29.74 V 30.35 C 28.25,30.4 28.25,30.45 28.22,30.5 C 28.22,30.52 28.2,30.53 28.18,30.52 H 28.14 A 0.7,0.7 0 0,0 27.99,30.52 C 27.94,30.52 27.89,30.54 27.88,30.58 C 27.81,30.68 27.81,30.78 27.88,30.88 C 27.94,30.98 28.04,31.01 28.17,31 C 28.43,30.96 28.69,30.96 28.95,31 C 29.15,31.02 29.25,30.96 29.28,30.81 C 29.3,30.7 29.28,30.61 29.25,30.57 C 29.2,30.52 29.12,30.5 28.99,30.53 C 28.96,30.53 28.93,30.53 28.92,30.49 A 105.2,105.2 0 0,1 28.9,29.15 C 28.9,29.03 28.84,28.99 28.72,29.01 A 1.4,1.4 0 0,1 28.22,29.01 A 0.4,0.4 0 0,0 27.95,29.05 C 27.89,29.09 27.85,29.15 27.84,29.22 A 0.3,0.3 0 0,0 27.87,29.41 C 27.91,29.47 27.97,29.49 28.03,29.49 L 28.18,29.47 Z M 31.25,30.75 A 0.8,0.8 0 0,0 31.54,30.13 V 29.87 A 0.8,0.8 0 0,0 31.25,29.25 A 1,1 0 0,0 30.57,29 H 30.38 A 1,1 0 0,0 29.69,29.25 A 0.8,0.8 0 0,0 29.41,29.87 V 30.13 C 29.41,30.37 29.51,30.58 29.69,30.75 A 1,1 0 0,0 30.38,31 H 30.57 A 1,1 0 0,0 31.25,30.75 Z M 30.81,30.31 A 0.85,0.85 0 0,0 30.86,29.89 A 0.53,0.53 0 0,0 30.76,29.59 A 0.35,0.35 0 0,0 30.46,29.47 A 0.35,0.35 0 0,0 30.23,29.55 A 0.38,0.38 0 0,0 30.11,29.75 A 0.92,0.92 0 0,0 30.11,30.23 C 30.16,30.43 30.28,30.53 30.47,30.53 C 30.63,30.53 30.75,30.46 30.81,30.31 Z M 40.44,30.13 A 0.8,0.8 0 0,1 40.16,30.74 A 1,1 0 0,1 39.47,31 H 39.29 A 1,1 0 0,1 38.59,30.75 A 0.8,0.8 0 0,1 38.31,30.14 V 29.87 C 38.31,29.63 38.4,29.43 38.59,29.26 A 1,1 0 0,1 39.27,29 H 39.46 A 1,1 0 0,1 40.15,29.25 C 40.34,29.42 40.43,29.62 40.44,29.86 V 30.13 Z M 39.73,29.73 A 0.96,0.96 0 0,1 39.73,30.26 C 39.66,30.49 39.51,30.57 39.28,30.52 C 39.13,30.48 39.04,30.37 39,30.19 A 0.96,0.96 0 0,1 39.02,29.75 A 0.37,0.37 0 0,1 39.37,29.47 A 0.36,0.36 0 0,1 39.73,29.73 Z M 16.65,31 A 0.9,0.9 0 0,0 17.21,30.78 H 17.22 V 31.52 C 17.22,31.54 17.22,31.55 17.2,31.56 A 10.44,10.44 0 0,0 16.9,31.58 C 16.81,31.58 16.75,31.62 16.73,31.71 A 0.24,0.24 0 0,0 16.76,31.92 C 16.8,31.99 16.91,32.02 17.06,31.99 A 4,4 0 0,1 17.96,31.99 C 18.07,32.01 18.16,31.99 18.21,31.92 A 0.3,0.3 0 0,0 18.26,31.67 C 18.24,31.55 18.14,31.51 17.96,31.55 L 17.91,31.54 A 14.54,14.54 0 0,1 17.87,30.84 V 29.21 C 17.87,29.09 17.8,29.03 17.67,29.01 A 0.95,0.95 0 0,0 17.4,29.02 C 17.3,29.04 17.25,29.1 17.27,29.19 C 17.27,29.24 17.26,29.24 17.22,29.21 A 0.78,0.78 0 0,0 16.72,29.01 A 0.77,0.77 0 0,0 15.89,29.55 C 15.81,29.75 15.79,29.97 15.83,30.18 C 15.86,30.42 15.95,30.62 16.11,30.77 C 16.25,30.91 16.43,31 16.65,31 Z M 16.85,30.52 C 16.65,30.52 16.49,30.29 16.49,30.01 S 16.65,29.51 16.85,29.51 C 17.05,29.51 17.22,29.73 17.22,30.01 S 17.06,30.51 16.85,30.51 Z M 43.63,29.26 L 43.72,29.19 C 43.82,29.11 43.92,29.06 44.05,29.02 A 0.84,0.84 0 0,1 44.43,29.02 C 44.69,29.07 44.88,29.22 44.99,29.48 C 45.08,29.7 45.11,29.94 45.07,30.23 C 45.04,30.45 44.97,30.63 44.85,30.77 A 0.67,0.67 0 0,1 44.3,31 C 44.05,31 43.92,30.99 43.75,30.86 H 43.73 V 31.5 L 43.74,31.54 L 43.79,31.56 H 44.05 C 44.14,31.56 44.19,31.59 44.2,31.67 C 44.23,31.78 44.2,31.87 44.15,31.92 A 0.33,0.33 0 0,1 43.88,32 A 3.42,3.42 0 0,0 43.02,32 A 0.49,0.49 0 0,1 42.76,31.94 C 42.69,31.89 42.66,31.82 42.66,31.71 C 42.66,31.55 42.76,31.48 42.96,31.51 C 43.02,31.53 43.06,31.51 43.06,31.44 A 74.97,74.97 0 0,0 43.05,29.54 C 43.04,29.52 43.02,29.51 42.98,29.52 A 0.45,0.45 0 0,1 42.75,29.52 C 42.74,29.52 42.73,29.52 42.72,29.54 V 29.59 A 0.32,0.32 0 0,1 42.49,29.82 A 0.3,0.3 0 0,1 42.16,29.77 C 42.08,29.69 42.06,29.59 42.13,29.47 C 42.13,29.47 42.13,29.45 42.11,29.45 C 41.87,29.46 41.73,29.63 41.69,29.97 C 41.67,30.15 41.66,30.33 41.68,30.51 C 41.68,30.55 41.71,30.57 41.75,30.56 H 41.8 A 0.83,0.83 0 0,1 41.99,30.54 C 42.06,30.54 42.11,30.58 42.14,30.63 C 42.2,30.71 42.2,30.79 42.14,30.88 C 42.08,30.98 41.96,31.03 41.78,31 C 41.53,30.97 41.28,30.97 41.02,31 A 0.53,0.53 0 0,1 40.72,30.97 C 40.64,30.93 40.6,30.85 40.61,30.72 C 40.61,30.62 40.65,30.57 40.71,30.55 C 40.75,30.54 40.81,30.53 40.91,30.55 H 40.94 C 40.96,30.55 40.98,30.55 40.99,30.53 A 0.06,0.06 0 0,0 41.01,30.48 V 29.58 A 0.06,0.06 0 0,0 40.98,29.53 A 0.08,0.08 0 0,0 40.92,29.52 C 40.74,29.56 40.63,29.52 40.62,29.38 C 40.59,29.28 40.62,29.2 40.67,29.13 C 40.74,29.06 40.83,29.03 40.94,29.06 A 0.9,0.9 0 0,0 41.34,29.06 C 41.46,29.03 41.53,29.08 41.54,29.19 A 2.78,2.78 0 0,1 41.54,29.44 C 41.65,29.14 41.88,28.99 42.24,29 C 42.4,29.01 42.54,29.08 42.64,29.21 L 42.66,29.22 L 42.68,29.21 C 42.73,29.08 42.83,29.03 42.99,29.06 S 43.31,29.09 43.48,29.06 C 43.53,29.05 43.58,29.06 43.59,29.11 C 43.61,29.15 43.61,29.2 43.6,29.25 C 43.6,29.28 43.6,29.29 43.63,29.26 Z M 43.72,30.15 C 43.72,30.47 43.87,30.75 44.06,30.75 C 44.26,30.75 44.41,30.47 44.41,30.15 C 44.41,29.82 44.25,29.55 44.06,29.55 C 43.87,29.55 43.72,29.82 43.72,30.15 Z M 45.85,31 A 0.4,0.4 0 1,0 45.85,30.2 A 0.4,0.4 0 0,0 45.85,31 Z" fill-rule="evenodd"/>
</svg>
