<?xml version="1.0" encoding="UTF-8"?>
<!-- generated by Finnhub -->
<svg viewBox="0 0 55.5 55.5" xmlns="http://www.w3.org/2000/svg">
<path d="M 0,0 H 55.5 V 55.5 H 0 Z" fill="rgb(239, 242, 248)"/>
<circle cx="28" cy="28" r="16" fill="rgb(177, 209, 50)"/>
<circle cx="28" cy="28" r="15" fill="rgb(4, 103, 55)"/>
<path d="M 29.119999999999997,29.985 C 35.53,30 37.27,26.19 36.97,26.1 C 36.27,25.87 35.98,26.05 35.15,26.55 H 35.13 C 34.29,27.07 32.16,26.93 30.82,26.93 C 29.48,26.93 27,28.88 27,29.44 C 27,30 27.55,30 29.13,30 Z M 25.9,37 C 32.27,37 35.26,32 34.98,32 C 33.95,32 33.64,32.06 32.45,32.68 C 31.26,33.3 27.45,33.03 25.57,33.03 C 23.68,33.03 21,35.5 21,36.18 C 21,36.86 23.66,37 25.9,37 Z" fill="rgb(177, 209, 50)"/>
<path d="M 35.690000000000005,19.005 C 37.98,19.02 38.85,19.35 39,19.52 C 39,20.56 33.81,21.01 28.22,25.74 C 24.93,28.53 19.15,36 18.3,36 S 17,34.4 17,32.56 S 17.75,27.73 20.3,26.64 C 22.84,25.54 24.78,24.69 25.33,21.66 C 25.88,18.62 32.86,19.02 35.71,19.02 Z" fill="rgb(177, 209, 50)"/>
</svg>
