<?xml version="1.0" encoding="UTF-8"?>
<!-- generated by Finnhub -->
<svg viewBox="0 0 55.5 55.5" xmlns="http://www.w3.org/2000/svg">
<path d="M 0,0 H 55.5 V 55.5 H 0 Z" fill="rgb(239, 242, 248)"/>
<path d="M 28.279999999999998,12.965 C 27.19,15.12 24.65,19.98 23.27,22.23 C 21.55,25.06 20.71,27.36 20.71,30.42 C 20.71,33.48 23.77,37.72 28.29,37.72 C 32.81,37.72 37.13,34.78 37.13,30.42 C 37.13,26.93 35.19,23.51 34.23,22.23 C 32.49,19.76 28.87,14.45 28.29,12.98 Z M 31.13,20.15 C 31.97,21.98 33.71,26.09 33.97,27.85 A 6.32,6.32 0 0,1 32.74,32.68 C 32.41,33.1 32.39,33.7 32.74,34.08 C 33.07,34.43 33.61,34.49 33.94,34.16 A 6.32,6.32 0 0,0 35.81,29.72 C 35.81,26.44 32.17,21.32 31.13,20.15 Z" fill="rgb(106, 160, 212)" fill-rule="evenodd"/>
<path d="M 36.09,33.875 C 34.54,36.27 31.46,37.72 28.29,37.72 C 23.77,37.72 20.71,33.48 20.71,30.42 C 20.71,28.39 21.08,26.69 21.83,24.95 C 21.44,26.6 21.06,29.08 21.47,30.84 A 7.64,7.64 0 0,0 29.24,36.81 C 32.01,36.81 34.5,35.28 36.09,33.89 Z" fill="rgb(54, 100, 156)"/>
<path d="M 20.389999999999997,21.765 C 20.86,20.72 25.84,13.46 27.97,10 C 26.64,12.56 19.45,23.81 19.45,29.47 C 19.45,32.47 21.57,38.75 28.5,38.75 C 34.04,38.75 36.77,34.15 37.44,31.86 C 36.27,37.82 32.49,40.42 27.65,40.42 S 17.65,37.11 17.65,31.86 S 19.85,23.1 20.41,21.78 Z"/>
<path d="M 34.59,40.335 C 34.6,41.04 31.65,41.6 28,41.6 C 24.35,41.6 21.4,41.04 21.4,40.35 C 21.4,40.23 21.49,40.11 21.66,40 C 20.38,40.23 19.6,40.53 19.6,40.86 C 19.6,41.58 23.36,42.16 28,42.16 C 32.64,42.16 36.4,41.58 36.4,40.86 C 36.4,40.53 35.62,40.23 34.34,40 C 34.51,40.11 34.6,40.23 34.6,40.35 Z M 40.57,40.91 C 40.57,42.09 34.94,43.05 28,43.05 S 15.43,42.09 15.43,40.91 C 15.43,40.71 15.6,40.51 15.92,40.32 C 13.48,40.72 12,41.22 12,41.78 C 12,43 19.16,44 28,44 C 36.84,44 44,43 44,41.78 C 44,41.22 42.52,40.71 40.08,40.32 C 40.4,40.51 40.58,40.71 40.58,40.92 Z" fill="rgb(210, 228, 244)"/>
</svg>
