<?xml version="1.0" encoding="UTF-8"?>
<!-- generated by Finnhub -->
<svg viewBox="0 0 55.5 55.5" xmlns="http://www.w3.org/2000/svg">
<path d="M 0,0 H 55.5 V 55.5 H 0 Z" fill="rgb(239, 242, 248)"/>
<path d="M 15.66,23.985 V 28 H 15 V 24 H 15.67 Z M 4,28 V 24 H 7 V 24.6 H 4.76 V 25.7 H 6.83 V 26.3 H 4.76 V 27.4 H 7 V 28 H 4 Z M 34,28 V 24 H 37 V 24.6 H 34.76 V 25.7 H 36.83 V 26.3 H 34.76 V 27.4 H 37 V 28 H 34 Z M 32,35 V 31 H 35 V 31.6 H 32.76 V 32.7 H 34.83 V 33.3 H 32.76 V 34.4 H 35 V 35 H 32 Z M 11,24 V 28 H 10.41 L 8.6,25.28 V 28 H 8 V 24 H 8.6 L 10.41,26.73 V 24 H 11 Z M 41,24 V 28 H 40.41 L 38.59,25.28 V 28 H 38 V 24 H 38.6 L 40.41,26.73 V 24 H 41 Z M 28,24 V 28 H 27.41 L 25.59,25.28 V 28 H 25 V 24 H 25.6 L 27.41,26.73 V 24 H 28 Z M 11.83,24 H 11 L 12.52,28 H 13.48 L 15,24 H 14.17 L 13.02,27.18 H 12.98 L 11.83,24 Z"/>
<path d="M 16.99,23.985 V 28 H 17.75 V 26.6 H 18.47 L 19.21,28 H 20 L 19.19,26.49 C 19.67,26.31 20,25.92 20,25.32 C 20,24.49 19.34,24 18.55,24 H 17 Z M 17.75,26 H 18.44 C 18.89,26 19.24,25.8 19.24,25.32 C 19.24,24.85 18.88,24.61 18.44,24.61 H 17.74 V 26 Z M 36,31 V 35 H 36.75 V 33.6 H 37.47 L 38.21,35 H 39 L 38.19,33.49 C 38.67,33.31 39,32.92 39,32.32 C 39,31.49 38.34,31 37.55,31 H 36 Z M 36.75,33 H 37.44 C 37.89,33 38.24,32.8 38.24,32.32 C 38.24,31.85 37.88,31.61 37.44,31.61 H 36.74 V 33 Z" fill-rule="evenodd"/>
<path d="M 23.99,25.985 C 24,26.42 23.93,26.78 23.8,27.08 C 23.67,27.38 23.5,27.6 23.27,27.76 A 1.3,1.3 0 0,1 22.5,28 A 1.3,1.3 0 0,1 21.73,27.76 C 21.51,27.6 21.33,27.37 21.2,27.08 C 21.07,26.78 21,26.42 21,26 C 21,25.58 21.07,25.22 21.2,24.92 C 21.33,24.62 21.5,24.4 21.73,24.24 C 21.96,24.08 22.21,24 22.5,24 C 22.79,24 23.04,24.08 23.27,24.24 C 23.49,24.4 23.67,24.62 23.8,24.92 C 23.93,25.22 24,25.58 24,26 Z M 23.4,26 C 23.4,25.7 23.37,25.46 23.29,25.25 A 1,1 0 0,0 22.97,24.79 A 0.75,0.75 0 0,0 22.5,24.63 A 0.75,0.75 0 0,0 22.03,24.79 C 21.89,24.89 21.79,25.05 21.71,25.25 C 21.63,25.45 21.59,25.7 21.59,26 S 21.63,26.55 21.71,26.75 C 21.79,26.95 21.89,27.11 22.03,27.21 C 22.17,27.31 22.33,27.37 22.5,27.37 C 22.68,27.37 22.83,27.32 22.97,27.21 C 23.11,27.11 23.21,26.95 23.29,26.75 C 23.37,26.55 23.41,26.3 23.41,26 Z M 24,33 C 24,33.42 23.93,33.78 23.8,34.08 C 23.67,34.38 23.5,34.6 23.27,34.76 A 1.3,1.3 0 0,1 22.5,35 A 1.3,1.3 0 0,1 21.73,34.76 C 21.51,34.6 21.33,34.37 21.2,34.08 C 21.07,33.78 21,33.42 21,33 C 21,32.58 21.07,32.22 21.2,31.92 C 21.33,31.62 21.5,31.4 21.73,31.24 C 21.96,31.08 22.21,31 22.5,31 C 22.79,31 23.04,31.08 23.27,31.24 C 23.49,31.4 23.67,31.62 23.8,31.92 C 23.93,32.22 24,32.58 24,33 Z M 23.4,33 C 23.4,32.7 23.37,32.46 23.29,32.25 A 1,1 0 0,0 22.97,31.79 A 0.75,0.75 0 0,0 22.5,31.63 A 0.75,0.75 0 0,0 22.03,31.79 C 21.89,31.89 21.79,32.05 21.71,32.25 C 21.63,32.45 21.59,32.7 21.59,33 S 21.63,33.55 21.71,33.75 C 21.79,33.95 21.89,34.11 22.03,34.21 C 22.17,34.31 22.33,34.37 22.5,34.37 C 22.68,34.37 22.83,34.32 22.97,34.21 C 23.11,34.11 23.21,33.95 23.29,33.75 C 23.37,33.55 23.41,33.3 23.41,33 Z M 29,24 H 29.85 L 31,26.9 L 32.14,24 H 33 V 28 H 32.3 V 25.25 L 31.24,28 H 30.74 L 29.72,25.26 V 28 H 29 V 24 Z M 42,24.6 V 24 H 45 V 24.6 H 43.84 V 28 H 43.16 V 24.6 H 42 Z M 45.83,28 H 45 L 46.52,24 H 47.48 L 49,28 H 48.17 L 47.02,24.82 H 46.98 L 45.83,28 Z M 45.86,26.43 H 48.13 V 27.01 H 45.86 V 26.43 Z M 17,35 V 31 H 18.55 C 19.35,31 20,31.49 20,32.32 C 20,33.17 19.34,33.6 18.54,33.6 H 17.5 V 33 H 18.43 C 18.88,33 19.23,32.8 19.23,32.32 C 19.23,31.85 18.87,31.61 18.43,31.61 H 17.73 V 35 H 17 Z M 49,28 V 24 H 49.78 V 27.4 H 52 V 28 H 49 Z M 26.27,35 L 25,31 H 25.88 L 26.73,33.77 L 27.6,31 H 28.4 L 29.27,33.77 L 30.12,31 H 31 L 29.73,35 H 28.93 L 28,32.2 L 27.08,35 H 26.28 Z"/>
</svg>
