<?xml version="1.0" encoding="UTF-8"?>
<!-- generated by Finnhub -->
<svg viewBox="0 0 55.5 55.5" xmlns="http://www.w3.org/2000/svg">
<path d="M 0,0 H 55.5 V 55.5 H 0 Z" fill="rgb(239, 242, 248)"/>
<path d="M 15.99,23.985 V 31 H 15 V 24 H 16 Z M 4,31 V 24 H 8 V 25 H 5 V 27 H 7.5 V 28 H 5 V 30 H 8 V 31 H 4 Z M 9,31 V 24 H 11.45 C 12.8,24 13.76,24.63 13.76,26 C 13.76,27.34 12.96,28 11.44,28 H 9.69 V 27 H 11.4 C 12.14,27 12.68,26.78 12.68,26 S 12.14,25 11.4,25 H 10 V 31 H 9 Z M 47,31 V 24 H 49.7 C 51.04,24 52,24.63 52,26 C 52,27.34 51.2,28 49.68,28 H 47.69 V 27 H 49.64 C 50.38,27 50.92,26.78 50.92,26 S 50.38,25 49.64,25 H 48 V 31 H 47 Z M 33,26.4 H 32 C 31.86,25.59 30.93,25 30.14,25 C 28.82,25 28,26.33 28,27.5 S 28.8,30 30.13,30 C 30.91,30 31.85,29.43 32,28.64 L 33,28.65 C 32.8,30.1 31.52,31 30.12,31 C 28.14,31 27,29.36 27,27.5 C 27,25.65 28.15,24 30.12,24 C 31.57,24 32.8,24.92 33,26.4 Z M 23,26.4 H 22 C 21.86,25.59 20.93,25 20.14,25 C 18.82,25 18,26.33 18,27.5 S 18.8,30 20.13,30 C 20.91,30 21.85,29.43 22,28.64 L 23,28.65 C 22.8,30.1 21.52,31 20.12,31 C 18.14,31 17,29.36 17,27.5 C 17,25.65 18.15,24 20.12,24 C 21.57,24 22.8,24.92 23,26.4 Z"/>
<path d="M 36.99,30.985 C 38.66,31 40,29.43 40,27.5 S 38.66,24 37,24 S 34,25.57 34,27.5 S 35.34,31 37,31 Z M 37,30 C 38.1,30 39,28.88 39,27.5 S 38.1,25 37,25 S 35,26.12 35,27.5 S 35.9,30 37,30 Z" fill-rule="evenodd"/>
<path d="M 40.99,30.985 V 24 H 43.45 C 44.8,24 45.76,24.63 45.76,26 C 45.76,27.34 44.96,28 43.44,28 H 41.69 V 27 H 43.4 C 44.14,27 44.68,26.78 44.68,26 S 44.14,25 43.4,25 H 42 V 31 H 41 Z M 44.38,27.83 L 46,31 H 44.85 L 43.26,27.83 H 44.38 Z"/>
</svg>
