<?xml version="1.0" encoding="UTF-8"?>
<!-- generated by Finnhub -->
<svg viewBox="0 0 55.5 55.5" xmlns="http://www.w3.org/2000/svg">
<path d="M0 0h55.5v55.5H0z" fill="rgb(23, 26, 28)"/>
<path d="M10 22H7v12h8v-2.5h-5V29h4v-2h-4v-2.5h5V22h-5ZM34 22h-3v12h8v-2.5h-5V22ZM25.7 33.48c-.8.42-1.73.65-2.7.65-3.31 0-6-2.71-6-6.06A6.03 6.03 0 0 1 23 22a6.08 6.08 0 0 1 4.64 9.9c.55.33 1.04.55 1.36.66V35a6.71 6.71 0 0 1-3.3-1.52Zm-.09-3.19c.55-.63.89-1.44.89-2.32a3.5 3.5 0 0 0-7 0c0 1.91 1.6 3.53 3.5 3.53.31 0 .62-.04.9-.13-.69-.61-1.39-.99-1.76-1.13v-2.17c.21 0 1.82 0 3.14 1.81.1.14.21.28.33.41Z" fill="rgb(254, 254, 253)"/>
<path d="M41 22h3.68a3.43 3.43 0 0 1 2.64 5.62A3.43 3.43 0 0 1 45.57 34H41V22Zm2.5 2h.5a1.5 1.5 0 0 1 0 3h-.5v-3Zm0 5H45a1.5 1.5 0 0 1 0 3h-1.5v-3Z" fill="rgb(254, 254, 253)" fill-rule="evenodd"/>
</svg>
