<!-- by Finnhub --><svg width="56" height="56" viewBox="0 0 56 56" fill="none" xmlns="http://www.w3.org/2000/svg">
<rect width="56" height="56" fill="#F0F3FA"/>
<path d="M26.708 21.5531L26.9736 22.3052C26.9923 22.3575 26.9733 22.3811 26.9167 22.3759C26.8335 22.3675 26.7623 22.3323 26.703 22.2703C26.6933 22.2602 26.6803 22.2537 26.6662 22.2517C26.6521 22.2497 26.6377 22.2524 26.6254 22.2594C26.6132 22.2664 26.6037 22.2772 26.5985 22.2901C26.5934 22.303 26.5929 22.3172 26.5972 22.3304L26.8808 23.1638C26.8839 23.1731 26.8844 23.1831 26.882 23.1926C26.8797 23.2021 26.8746 23.2107 26.8674 23.2176C26.8603 23.2244 26.8513 23.2292 26.8414 23.2314C26.8316 23.2335 26.8214 23.233 26.8119 23.2297L26.5053 23.128C26.4936 23.1243 26.4811 23.1238 26.4692 23.1267C26.4573 23.1296 26.4465 23.1357 26.438 23.1444C26.4296 23.153 26.4238 23.1638 26.4214 23.1754C26.419 23.1871 26.42 23.1992 26.4244 23.2104L26.8548 24.2551C26.8755 24.3049 26.8585 24.3246 26.8039 24.3142L26.5822 24.2716C26.569 24.2691 26.5553 24.2702 26.5427 24.2747C26.5301 24.2791 26.519 24.2869 26.5106 24.2971C26.5021 24.3072 26.4967 24.3194 26.4949 24.3324C26.4931 24.3453 26.495 24.3585 26.5003 24.3704L26.8798 25.2068C26.8824 25.2124 26.8833 25.2186 26.8824 25.2247C26.8815 25.2307 26.8788 25.2365 26.8747 25.2412C26.8705 25.2459 26.8651 25.2495 26.8589 25.2514C26.8528 25.2534 26.8462 25.2537 26.8398 25.2524L26.5752 25.1865C26.5621 25.1831 26.5483 25.1835 26.5354 25.1874C26.5224 25.1914 26.5109 25.1988 26.5021 25.2088C26.4934 25.2189 26.4877 25.2311 26.4858 25.2441C26.4839 25.2571 26.4858 25.2704 26.4913 25.2824L26.9157 26.2041C26.937 26.25 26.9227 26.2655 26.8728 26.2506L26.6102 26.1741C26.6009 26.1715 26.591 26.1717 26.5818 26.1747C26.5726 26.1776 26.5646 26.183 26.5586 26.1904C26.5526 26.1977 26.549 26.2067 26.5482 26.216C26.5475 26.2253 26.5495 26.2347 26.5542 26.2429L26.9717 26.96C26.9883 26.9891 26.9796 27.0062 26.9457 27.0114L26.7829 27.0376C26.7679 27.04 26.7537 27.0461 26.7418 27.0553C26.7299 27.0646 26.7206 27.0766 26.7149 27.0904C26.7092 27.1041 26.7072 27.119 26.7091 27.1337C26.7111 27.1484 26.7169 27.1624 26.726 27.1742L27.1085 27.6792C27.1137 27.6862 27.1168 27.6944 27.1176 27.703C27.1183 27.7116 27.1166 27.7202 27.1127 27.7279C27.1088 27.7355 27.1027 27.7419 27.0953 27.7463C27.0878 27.7507 27.0792 27.753 27.0705 27.7528H26.8928C26.8776 27.7529 26.8628 27.7569 26.8498 27.7644C26.8367 27.7718 26.826 27.7825 26.8187 27.7952C26.8113 27.808 26.8077 27.8224 26.808 27.8369C26.8084 27.8514 26.8129 27.8656 26.8209 27.8778L27.1264 28.3566C27.1437 28.3837 27.1384 28.406 27.1105 28.4235L26.9946 28.4942C26.964 28.5123 26.96 28.5349 26.9826 28.5621L27.2423 28.8741C27.2636 28.8993 27.2746 28.9284 27.2752 28.9614C27.2819 29.1817 27.3168 29.3384 27.3801 29.4314C27.8724 30.1612 27.8914 30.8561 27.8814 31.676C27.881 31.6826 27.8785 31.689 27.8742 31.6942C27.8699 31.6994 27.8641 31.7031 27.8575 31.7049C27.8509 31.7067 27.8439 31.7065 27.8374 31.7043C27.831 31.702 27.8254 31.6979 27.8215 31.6925C27.434 31.0993 26.9007 30.6768 26.7729 29.9286C26.7669 29.8918 26.7466 29.8653 26.712 29.8491L26.6231 29.8065C26.5925 29.7916 26.5752 29.768 26.5712 29.7357C26.5506 29.5878 26.495 29.4524 26.4044 29.3297C26.3871 29.3064 26.3652 29.3012 26.3385 29.3141L26.2786 29.3442C26.2493 29.3591 26.232 29.3507 26.2267 29.319L26.1438 28.8354C26.1422 28.826 26.1383 28.8171 26.1325 28.8095C26.1267 28.8018 26.1192 28.7956 26.1105 28.7913C26.1018 28.7871 26.0922 28.7849 26.0826 28.785C26.0729 28.785 26.0634 28.7874 26.0549 28.7918L25.9511 28.8441C25.9138 28.8628 25.8892 28.8525 25.8772 28.8131L25.6814 28.155C25.6708 28.1182 25.6518 28.114 25.6245 28.1424L25.5257 28.2452C25.4924 28.28 25.4691 28.2746 25.4558 28.2287L25.276 27.6249C25.2734 27.6159 25.2682 27.6077 25.2611 27.6013C25.254 27.595 25.2453 27.5906 25.2358 27.5887C25.2264 27.5868 25.2165 27.5874 25.2074 27.5906C25.1983 27.5937 25.1903 27.5992 25.1841 27.6065L25.0913 27.7199C25.062 27.7554 25.0393 27.7515 25.0234 27.7082L24.7777 27.0298C24.7745 27.0208 24.7689 27.0126 24.7615 27.0063C24.7541 27 24.7451 26.9956 24.7355 26.9936C24.7258 26.9917 24.7158 26.9922 24.7064 26.9951C24.697 26.9981 24.6885 27.0034 24.6818 27.0104L24.582 27.1171C24.552 27.1494 24.5271 27.1465 24.5071 27.1083L24.1276 26.396C24.1226 26.3867 24.1145 26.3793 24.1046 26.3749C24.0947 26.3705 24.0836 26.3695 24.0731 26.372C24.0627 26.3745 24.0535 26.3803 24.0471 26.3885C24.0406 26.3968 24.0373 26.4069 24.0377 26.4173C24.0391 26.4832 24.0158 26.5326 23.9678 26.5656C23.9286 26.5927 23.8976 26.586 23.875 26.5452C23.7531 26.332 23.61 26.1327 23.4456 25.9473C23.4156 25.9137 23.3933 25.9179 23.3787 25.9599L23.3317 26.0975C23.3283 26.1078 23.3221 26.1171 23.3136 26.1242C23.3051 26.1313 23.2948 26.1361 23.2838 26.1379C23.2727 26.1397 23.2614 26.1385 23.251 26.1344C23.2406 26.1304 23.2316 26.1236 23.2249 26.1149L22.8334 25.6197C22.8292 25.6141 22.8237 25.6097 22.8173 25.6067C22.8109 25.6038 22.8038 25.6024 22.7966 25.6026C22.7895 25.6029 22.7824 25.6049 22.7761 25.6084C22.7699 25.6118 22.7645 25.6167 22.7605 25.6226L22.6617 25.768C22.635 25.8074 22.6054 25.8097 22.5728 25.7748L22.1494 25.3125C22.1413 25.3039 22.13 25.2988 22.118 25.2981C22.1059 25.2973 22.0939 25.3011 22.0845 25.3086L21.9986 25.3784C21.985 25.3896 21.9676 25.3956 21.9498 25.3953C21.9319 25.3949 21.9148 25.3882 21.9017 25.3764L21.5782 25.0896C21.5582 25.0721 21.5352 25.0634 21.5093 25.0634H21.3245C21.2959 25.0634 21.2739 25.0521 21.2586 25.0295C21.1498 24.8696 20.972 24.8415 20.8492 24.7523C20.4451 24.459 20.0303 24.1718 19.6049 23.8907C19.599 23.8871 19.5919 23.8856 19.585 23.8866C19.578 23.8877 19.5717 23.8911 19.5672 23.8963C19.5627 23.9015 19.5603 23.9082 19.5604 23.915C19.5606 23.9218 19.5632 23.9283 19.568 23.9334C20.0054 24.3869 20.3282 24.9174 20.5366 25.5247C20.5786 25.6459 20.6475 25.7079 20.7363 25.7941C20.7616 25.8187 20.777 25.8484 20.7823 25.8833C20.8189 26.1153 20.9507 26.2774 21.1777 26.3698C21.1862 26.3732 21.1939 26.3784 21.2001 26.385C21.2063 26.3915 21.211 26.3994 21.2139 26.4079C21.2167 26.4165 21.2176 26.4255 21.2166 26.4345C21.2155 26.4435 21.2125 26.4522 21.2077 26.46L21.0968 26.6402C21.0775 26.6712 21.0822 26.6984 21.1108 26.7216L21.6031 27.1209C21.6098 27.1262 21.6152 27.1329 21.6187 27.1406C21.6222 27.1483 21.6239 27.1567 21.6235 27.1651C21.6231 27.1736 21.6207 27.1819 21.6165 27.1893C21.6123 27.1968 21.6063 27.2032 21.5991 27.2082L21.4513 27.3099C21.4427 27.3157 21.4358 27.3236 21.4311 27.3327C21.4265 27.3418 21.4243 27.352 21.4248 27.3621C21.4253 27.3723 21.4285 27.3822 21.434 27.3909C21.4395 27.3995 21.4472 27.4067 21.4563 27.4117L22.1703 27.7926C22.1775 27.7965 22.1834 27.8022 22.1876 27.8091C22.1918 27.816 22.1942 27.8238 22.1944 27.8318C22.1946 27.8397 22.1926 27.8476 22.1888 27.8547C22.1849 27.8617 22.1793 27.8677 22.1723 27.872L22.0425 27.9515C22.035 27.9561 22.0288 27.9625 22.0244 27.97C22.02 27.9775 22.0176 27.986 22.0174 27.9946C22.0172 28.0032 22.0192 28.0118 22.0232 28.0195C22.0273 28.0272 22.0332 28.0338 22.0405 28.0387C22.2795 28.2048 22.5308 28.3518 22.7945 28.4797C22.8007 28.4828 22.806 28.4873 22.8102 28.4927C22.8143 28.4982 22.817 28.5045 22.8182 28.5112C22.8194 28.5179 22.8189 28.5247 22.8169 28.5312C22.8148 28.5377 22.8113 28.5436 22.8065 28.5485L22.6597 28.6949C22.6541 28.7002 22.6501 28.7067 22.6479 28.714C22.6457 28.7212 22.6455 28.7289 22.6472 28.7362C22.6489 28.7436 22.6525 28.7504 22.6576 28.7561C22.6628 28.7617 22.6693 28.766 22.6766 28.7685L23.3497 28.9943C23.3837 29.006 23.391 29.0263 23.3717 29.0554L23.2618 29.2192C23.2558 29.2281 23.2522 29.2383 23.2514 29.249C23.2506 29.2596 23.2526 29.2703 23.2572 29.2799C23.2618 29.2896 23.2688 29.298 23.2777 29.3043C23.2865 29.3107 23.2969 29.3147 23.3078 29.3161L23.843 29.3868C23.8506 29.3878 23.8578 29.3909 23.8636 29.3957C23.8695 29.4004 23.8739 29.4067 23.8763 29.4138C23.8787 29.4209 23.879 29.4284 23.8772 29.4357C23.8754 29.4429 23.8715 29.4495 23.866 29.4547L23.7052 29.6068C23.6982 29.6137 23.6933 29.6224 23.6914 29.6319C23.6894 29.6414 23.6903 29.6512 23.694 29.6602C23.6977 29.6692 23.7041 29.6769 23.7123 29.6824C23.7205 29.6879 23.7302 29.6909 23.7402 29.6912L24.3154 29.6921C24.3238 29.6922 24.3321 29.6942 24.3395 29.6981C24.3469 29.702 24.3533 29.7075 24.358 29.7143C24.3627 29.7211 24.3656 29.7288 24.3666 29.737C24.3675 29.7451 24.3664 29.7533 24.3633 29.7609C24.3466 29.7997 24.3154 29.8259 24.2694 29.8394C24.2599 29.8416 24.252 29.8471 24.2473 29.8548C24.2426 29.8626 24.2414 29.872 24.2441 29.8813C24.2467 29.8905 24.2529 29.899 24.2615 29.9048C24.2701 29.9107 24.2804 29.9137 24.2904 29.9131L24.7058 29.915C24.7146 29.9151 24.7232 29.9177 24.7304 29.9225C24.7377 29.9273 24.7433 29.9341 24.7465 29.942C24.7497 29.9499 24.7504 29.9586 24.7485 29.9669C24.7466 29.9753 24.7422 29.9828 24.7358 29.9887C24.7018 30.0203 24.6862 30.0594 24.6888 30.106C24.6894 30.1145 24.692 30.1228 24.6966 30.1302C24.7012 30.1375 24.7075 30.1437 24.715 30.1482C24.7226 30.1527 24.7311 30.1553 24.74 30.1559C24.7488 30.1565 24.7576 30.155 24.7657 30.1515C24.9621 30.0714 25.0943 30.1234 25.1622 30.3075C25.1755 30.3437 25.2008 30.355 25.2381 30.3415C25.3799 30.2885 25.498 30.3195 25.5926 30.4345C25.6035 30.4478 25.6177 30.4582 25.6338 30.4646C25.6499 30.4711 25.6673 30.4734 25.6844 30.4713C25.7916 30.4591 25.8699 30.4968 25.9191 30.5847C25.9272 30.5994 25.9387 30.6119 25.9528 30.6212C25.9669 30.6305 25.9831 30.6363 26 30.638C26.749 30.7136 27.1204 31.0218 27.5409 31.6421C27.5602 31.6712 27.5522 31.6841 27.5169 31.6808C27.1694 31.6527 26.8408 31.6392 26.5373 31.4482C26.3648 31.3403 26.1704 31.2877 25.9541 31.2903C25.9254 31.2909 25.9018 31.2809 25.8832 31.2602L25.7474 31.1139C25.7247 31.0893 25.7054 31.0916 25.6894 31.1207L25.6545 31.1837C25.6475 31.1963 25.637 31.2068 25.6241 31.2138C25.6112 31.2207 25.5964 31.224 25.5817 31.2231C25.5669 31.2221 25.5528 31.2171 25.5409 31.2086C25.529 31.2 25.5199 31.1884 25.5147 31.1749C25.494 31.1226 25.4611 31.0719 25.4158 31.0228C25.4104 31.0169 25.4034 31.0127 25.3957 31.0107C25.3879 31.0086 25.3797 31.0087 25.372 31.0111C25.3643 31.0135 25.3574 31.0179 25.3523 31.0239C25.3471 31.03 25.3439 31.0373 25.3429 31.0451C25.3376 31.0897 25.3196 31.1255 25.289 31.1526C25.255 31.183 25.2254 31.1798 25.2001 31.143L25.0304 30.9007C25.0235 30.891 25.014 30.8834 25.0028 30.8789C24.9917 30.8743 24.9794 30.873 24.9675 30.8751C24.9556 30.8771 24.9445 30.8824 24.9357 30.8904C24.9268 30.8984 24.9205 30.9087 24.9175 30.92L24.8856 31.0431C24.8716 31.0974 24.8436 31.1052 24.8017 31.0664L24.3693 30.6603C24.3353 30.6287 24.318 30.6354 24.3174 30.6807L24.3144 30.8541C24.3137 30.8903 24.299 30.8968 24.2704 30.8735L23.829 30.5178C23.8235 30.5133 23.8168 30.5103 23.8096 30.5094C23.8025 30.5085 23.7952 30.5096 23.7886 30.5127C23.7819 30.5157 23.7763 30.5206 23.7723 30.5266C23.7684 30.5327 23.7662 30.5397 23.7661 30.5469V30.6787C23.7661 30.7285 23.7428 30.7427 23.6962 30.7214C23.5238 30.6413 23.3667 30.5408 23.2249 30.42C23.2183 30.4143 23.2104 30.4103 23.2018 30.4086C23.1932 30.4068 23.1842 30.4073 23.1758 30.4099C23.1673 30.4125 23.1597 30.4172 23.1536 30.4236C23.1475 30.4299 23.1432 30.4377 23.141 30.4461L23.108 30.5828C23.1064 30.5897 23.103 30.5961 23.0984 30.6015C23.0937 30.6069 23.0878 30.6112 23.0811 30.614C23.0744 30.6169 23.0671 30.6181 23.0598 30.6178C23.0526 30.6174 23.0455 30.6154 23.0391 30.6119L22.6287 30.3802C22.6034 30.3667 22.5774 30.365 22.5508 30.3754C22.5029 30.3941 22.4826 30.4326 22.4899 30.4907C22.4972 30.5456 22.4759 30.5602 22.426 30.5343L22.0265 30.3289C22.0079 30.3185 21.9903 30.3205 21.9736 30.3347L21.8438 30.4423C21.8321 30.4519 21.817 30.4566 21.8018 30.4556C21.7867 30.4545 21.7727 30.4476 21.7629 30.4364C21.6477 30.3072 21.5279 30.2924 21.4034 30.3919C21.3918 30.4014 21.3776 30.4074 21.3626 30.4093C21.3475 30.4112 21.3322 30.4089 21.3185 30.4025L21.1308 30.3182C21.1141 30.3104 21.0958 30.3067 21.0774 30.3072C21.059 30.3077 21.041 30.3125 21.0249 30.3211C20.9118 30.3812 20.7966 30.3857 20.6794 30.3347C20.6535 30.3237 20.6268 30.3218 20.5995 30.3289C20.5449 30.3431 20.4897 30.3589 20.4338 30.3764C20.3978 30.3873 20.3642 30.3822 20.3329 30.3608L9 22H23.5499L27.9772 9.04894C27.9992 8.98369 28.0212 8.98369 28.0432 9.04894L32.4597 22H47L35.6835 30.3657C35.6673 30.377 35.6483 30.3843 35.6283 30.3868C35.6083 30.3893 35.5878 30.3871 35.5687 30.3802C35.4428 30.3356 35.3157 30.3318 35.1872 30.3686C35.1532 30.3783 35.1206 30.3757 35.0893 30.3608C34.9582 30.2982 34.831 30.3098 34.7079 30.3957C34.6935 30.4055 34.6762 30.4106 34.6587 30.41C34.6412 30.4095 34.6245 30.4035 34.611 30.3928C34.4779 30.2888 34.35 30.3014 34.2275 30.4306C34.2229 30.4355 34.2173 30.4394 34.211 30.4421C34.2048 30.4448 34.198 30.4462 34.1911 30.4463C34.1842 30.4464 34.1773 30.4451 34.1709 30.4426C34.1645 30.4401 34.1586 30.4363 34.1536 30.4316L34.0418 30.324C34.0185 30.3014 33.9929 30.2985 33.9649 30.3153L33.5834 30.5401C33.5481 30.5608 33.5232 30.5524 33.5085 30.5149L33.4626 30.3948C33.4466 30.3547 33.4197 30.3453 33.3817 30.3667L32.9793 30.5934C32.9721 30.5975 32.9642 30.6001 32.956 30.601C32.9477 30.602 32.9394 30.6013 32.9315 30.5991C32.9235 30.5968 32.9161 30.593 32.9098 30.5878C32.9034 30.5827 32.8982 30.5764 32.8944 30.5692L32.8385 30.4626C32.8198 30.4271 32.7932 30.4203 32.7586 30.4423L32.3292 30.7214C32.3229 30.7255 32.3157 30.7281 32.3081 30.7289C32.3006 30.7297 32.293 30.7287 32.2859 30.7261C32.2788 30.7234 32.2725 30.7191 32.2676 30.7136C32.2626 30.708 32.259 30.7014 32.2573 30.6942L32.2223 30.5508C32.2205 30.5436 32.2168 30.5369 32.2116 30.5314C32.2064 30.5259 32.1999 30.5218 32.1926 30.5195C32.1854 30.5171 32.1778 30.5167 32.1704 30.5181C32.163 30.5195 32.1561 30.5227 32.1504 30.5275L31.725 30.8755C31.6911 30.9032 31.6758 30.8955 31.6791 30.8522L31.6901 30.6923C31.6908 30.684 31.6887 30.6757 31.6843 30.6686C31.6799 30.6614 31.6733 30.6558 31.6653 30.6524C31.6574 30.649 31.6485 30.6481 31.6399 30.6497C31.6313 30.6513 31.6234 30.6553 31.6172 30.6613L31.1978 31.0645C31.1651 31.0955 31.1418 31.09 31.1279 31.048L31.0719 30.8852C31.0696 30.8782 31.0654 30.872 31.0597 30.8672C31.054 30.8624 31.0471 30.8592 31.0396 30.858C31.0322 30.8568 31.0246 30.8576 31.0176 30.8604C31.0106 30.8631 31.0045 30.8677 31 30.8735L30.8063 31.1207C30.7937 31.1366 30.7762 31.1483 30.7564 31.1539C30.7365 31.1595 30.7153 31.1588 30.6958 31.1519C30.6764 31.145 30.6598 31.1322 30.6484 31.1154C30.637 31.0986 30.6314 31.0787 30.6325 31.0586C30.6332 31.0399 30.6309 31.0215 30.6256 31.0034C30.6236 30.9973 30.6195 30.9919 30.6141 30.9883C30.6086 30.9846 30.6021 30.9828 30.5954 30.9831C30.5888 30.9834 30.5825 30.9859 30.5775 30.9901C30.5724 30.9943 30.569 31 30.5676 31.0063C30.5187 31.235 30.3529 31.1652 30.2111 31.205C29.608 31.3707 29.1296 31.6159 28.5055 31.6993C28.4944 31.7009 28.4831 31.6992 28.4731 31.6944C28.4631 31.6895 28.4549 31.6818 28.4496 31.6722C28.4443 31.6626 28.4423 31.6516 28.4437 31.6409C28.4451 31.6301 28.45 31.62 28.4576 31.612C28.7658 31.2761 29.134 31.0389 29.562 30.9007C29.8476 30.8076 30.1292 30.6177 30.4947 30.6235C30.5032 30.6236 30.5115 30.6219 30.5192 30.6185C30.5269 30.6152 30.5337 30.6103 30.5392 30.6041C30.5447 30.5979 30.5488 30.5906 30.5511 30.5827C30.5534 30.5749 30.554 30.5666 30.5527 30.5586C30.5447 30.5094 30.5167 30.4707 30.4688 30.4423C30.4109 30.4087 30.4155 30.3877 30.4828 30.3793L31.042 30.3095C31.0866 30.3037 31.1009 30.2804 31.0849 30.2397L31.047 30.1379C31.0441 30.1306 31.0429 30.1227 31.0434 30.1149C31.044 30.107 31.0462 30.0994 31.0501 30.0924C31.054 30.0854 31.0594 30.0793 31.0659 30.0745C31.0724 30.0696 31.0799 30.0662 31.0879 30.0643L31.71 29.9286C31.7173 29.927 31.724 29.9237 31.7295 29.9189C31.7351 29.9142 31.7393 29.9081 31.7418 29.9013C31.7442 29.8946 31.7449 29.8873 31.7438 29.8802C31.7426 29.8731 31.7396 29.8664 31.735 29.8608L31.6561 29.7619C31.6512 29.7557 31.648 29.7484 31.6468 29.7406C31.6457 29.7329 31.6466 29.7249 31.6495 29.7176C31.6524 29.7103 31.6572 29.7039 31.6634 29.6989C31.6697 29.6939 31.6771 29.6906 31.6851 29.6892L32.2812 29.5875C32.2899 29.586 32.2979 29.5823 32.3045 29.5767C32.3111 29.5711 32.316 29.5639 32.3187 29.5558C32.3214 29.5477 32.3217 29.5391 32.3197 29.5308C32.3177 29.5226 32.3134 29.515 32.3072 29.5089L32.2163 29.4217C32.1771 29.3836 32.184 29.3565 32.2373 29.3403L32.9044 29.1368C32.9155 29.1336 32.9257 29.1276 32.9337 29.1194C32.9418 29.1113 32.9475 29.1012 32.9503 29.0903C32.9531 29.0793 32.953 29.0678 32.9498 29.0569C32.9467 29.0461 32.9406 29.0362 32.9323 29.0282L32.8485 28.9468C32.8078 28.9081 32.8145 28.8796 32.8684 28.8615C33.1174 28.7769 33.3591 28.6748 33.5934 28.5553C33.6021 28.5506 33.6093 28.5437 33.6142 28.5354C33.6191 28.527 33.6215 28.5175 33.6212 28.5079C33.6209 28.4983 33.6178 28.4889 33.6124 28.4809C33.607 28.4728 33.5994 28.4664 33.5904 28.4623L33.4326 28.3925C33.3934 28.375 33.3927 28.3556 33.4306 28.3343L34.0678 27.9806C34.1117 27.9567 34.1134 27.9299 34.0727 27.9001L33.927 27.7935C33.8943 27.7696 33.895 27.7467 33.9289 27.7247L34.4842 27.3623C34.4918 27.3575 34.4979 27.3508 34.5018 27.3429C34.5057 27.335 34.5073 27.3261 34.5064 27.3174C34.5055 27.3087 34.5021 27.3004 34.4965 27.2934C34.491 27.2864 34.4836 27.2811 34.4752 27.2779L34.3064 27.213C34.299 27.21 34.2925 27.2051 34.2876 27.1989C34.2827 27.1927 34.2795 27.1855 34.2784 27.1778C34.2773 27.1701 34.2783 27.1624 34.2813 27.1553C34.2843 27.1482 34.2891 27.142 34.2954 27.1374L34.7328 26.8089C34.7595 26.7895 34.7724 26.7636 34.7718 26.7313L34.7698 26.52C34.7691 26.4819 34.7861 26.4538 34.8207 26.4357C34.9871 26.3504 35.0823 26.2228 35.1063 26.0529C35.111 26.018 35.124 25.987 35.1453 25.9599C35.3699 25.6759 35.5597 25.3832 35.8123 25.1196C36.0447 24.8773 36.264 24.6244 36.4704 24.3608C36.5283 24.2864 36.5197 24.2781 36.4444 24.3356C35.9691 24.698 35.4458 24.972 34.8746 25.1574C34.611 25.2437 34.3843 25.4055 34.0997 25.4811C34.0618 25.4914 34.0288 25.5102 34.0008 25.5373L33.7472 25.7825C33.7192 25.8097 33.6909 25.8103 33.6623 25.7845L33.5535 25.6846C33.5228 25.6562 33.4922 25.6565 33.4616 25.6856L33.0212 26.113C32.9893 26.144 32.9616 26.1411 32.9383 26.1043L32.8495 25.9647C32.8439 25.9561 32.8361 25.949 32.827 25.9441C32.8178 25.9392 32.8075 25.9366 32.797 25.9366C32.7866 25.9366 32.7762 25.9392 32.7671 25.9441C32.7579 25.949 32.7502 25.9561 32.7446 25.9647L32.3282 26.6063C32.3236 26.6135 32.3173 26.6195 32.3097 26.6238C32.3022 26.6281 32.2937 26.6306 32.2849 26.6311C32.2762 26.6315 32.2673 26.63 32.2592 26.6265C32.2511 26.6231 32.244 26.6178 32.2383 26.6111L32.1484 26.5026C32.1125 26.4593 32.0785 26.4606 32.0466 26.5065L31.6012 27.1442C31.5792 27.1765 31.5546 27.1784 31.5273 27.15L31.4095 27.025C31.4034 27.0184 31.3957 27.0134 31.3871 27.0105C31.3786 27.0076 31.3694 27.0068 31.3604 27.0082C31.3514 27.0097 31.343 27.0133 31.3359 27.0188C31.3287 27.0243 31.3231 27.0314 31.3196 27.0395L31.0599 27.6365C31.0413 27.6779 31.0143 27.6837 30.9791 27.654L30.8393 27.5377C30.8302 27.5299 30.8191 27.5246 30.8072 27.5224C30.7953 27.5202 30.783 27.5211 30.7716 27.5251C30.7602 27.5291 30.75 27.5359 30.7423 27.5449C30.7345 27.554 30.7294 27.5648 30.7274 27.5764L30.6515 28.0097C30.649 28.0249 30.6422 28.0391 30.6319 28.0508C30.6216 28.0625 30.6081 28.0711 30.593 28.0759C30.5779 28.0806 30.5618 28.0811 30.5464 28.0775C30.531 28.0739 30.5169 28.0661 30.5057 28.0552L30.4119 27.9631C30.4058 27.9573 30.3981 27.9533 30.3897 27.9515C30.3814 27.9497 30.3727 27.9502 30.3648 27.9529C30.3568 27.9557 30.3499 27.9606 30.3448 27.967C30.3396 27.9734 30.3366 27.9812 30.336 27.9893L30.289 28.5252C30.285 28.564 30.2657 28.574 30.2311 28.5553L30.1153 28.4952C30.0767 28.4752 30.0573 28.4862 30.0573 28.5282V28.8586C30.0573 28.9084 30.035 28.9207 29.9904 28.8955L29.8936 28.8393C29.8859 28.8347 29.877 28.8324 29.868 28.8327C29.859 28.833 29.8503 28.8358 29.843 28.8409C29.8356 28.846 29.83 28.853 29.8267 28.8612C29.8235 28.8693 29.8228 28.8782 29.8247 28.8867C29.848 28.9934 29.8363 29.0938 29.7897 29.1882C29.7848 29.1968 29.777 29.2043 29.7676 29.2095C29.7581 29.2147 29.7477 29.2173 29.738 29.2167C29.7284 29.2161 29.7201 29.2125 29.7146 29.2064C29.7091 29.2003 29.7067 29.1921 29.7078 29.1833C29.7132 29.1594 29.7062 29.14 29.6869 29.1252C29.6502 29.0974 29.6319 29.1061 29.6319 29.1513L29.6349 29.506C29.6349 29.5377 29.6186 29.5519 29.586 29.5487L29.5121 29.5409C29.4788 29.5377 29.4592 29.5519 29.4532 29.5836C29.3833 29.9428 29.2625 30.2823 29.0907 30.6022C28.883 30.9898 28.4885 31.3067 28.188 31.675C28.182 31.6824 28.1738 31.6879 28.1645 31.6906C28.1553 31.6933 28.1453 31.6931 28.1362 31.6902C28.127 31.6872 28.1189 31.6815 28.1132 31.674C28.1075 31.6664 28.1043 31.6573 28.1041 31.6479C28.0768 30.6988 28.3364 29.8294 28.883 29.0399C28.9036 29.0102 28.899 28.9846 28.869 28.9633C28.8291 28.9355 28.8221 28.8887 28.848 28.8228C28.8594 28.7918 28.8773 28.7646 28.902 28.7414C28.9725 28.6729 29.0424 28.6047 29.1117 28.5369C29.1176 28.5309 29.1216 28.5235 29.1233 28.5154C29.125 28.5073 29.1242 28.4989 29.1212 28.4912C29.1182 28.4834 29.1129 28.4767 29.1061 28.4718C29.0993 28.4668 29.0912 28.4639 29.0827 28.4632L28.904 28.4516C28.8957 28.4513 28.8877 28.4489 28.8807 28.4446C28.8738 28.4404 28.8681 28.4344 28.8642 28.4273C28.8604 28.4203 28.8585 28.4123 28.8588 28.4043C28.8591 28.3963 28.8616 28.3886 28.866 28.3818L29.2235 27.8119C29.2528 27.7648 29.2395 27.7457 29.1836 27.7548L28.887 27.8061C28.8785 27.8076 28.8698 27.8065 28.8619 27.8031C28.8541 27.7997 28.8475 27.7941 28.843 27.787C28.8384 27.7799 28.8362 27.7716 28.8366 27.7633C28.837 27.755 28.8399 27.7469 28.845 27.7402L29.3883 27.0298C29.3928 27.0242 29.3953 27.0173 29.3954 27.0102C29.3956 27.0031 29.3934 26.9962 29.3891 26.9904C29.3848 26.9846 29.3787 26.9803 29.3717 26.9782C29.3648 26.976 29.3573 26.9761 29.3503 26.9785C29.2405 27.0127 29.1296 27.0146 29.0178 26.9843C29.0096 26.9822 29.0021 26.9779 28.9962 26.972C28.9903 26.9661 28.9861 26.9588 28.9841 26.9507C28.982 26.9426 28.9822 26.9341 28.9847 26.926C28.9871 26.918 28.9916 26.9106 28.9978 26.9048L29.4482 26.4978C29.4546 26.492 29.459 26.4845 29.4607 26.4763C29.4624 26.468 29.4614 26.4594 29.4578 26.4517C29.4541 26.4439 29.4481 26.4374 29.4405 26.433C29.4329 26.4285 29.4241 26.4265 29.4152 26.427L29.1886 26.4464C29.138 26.4509 29.124 26.4312 29.1466 26.3873L29.565 25.5577C29.5689 25.5501 29.5703 25.5416 29.5693 25.5332C29.5682 25.5248 29.5647 25.5169 29.5591 25.5104C29.5535 25.5039 29.546 25.4992 29.5377 25.4967C29.5294 25.4943 29.5205 25.4942 29.5121 25.4966L29.2505 25.5703C29.2431 25.5723 29.2353 25.5722 29.2279 25.5701C29.2206 25.568 29.214 25.564 29.2089 25.5584C29.2038 25.5529 29.2004 25.5461 29.1991 25.5387C29.1978 25.5314 29.1986 25.5238 29.2015 25.517L29.6509 24.4945C29.6549 24.4854 29.6562 24.4753 29.6546 24.4655C29.6529 24.4557 29.6484 24.4465 29.6416 24.4391C29.6348 24.4317 29.626 24.4263 29.6161 24.4236C29.6063 24.4209 29.5958 24.4209 29.586 24.4237L29.2515 24.5207C29.2409 24.5236 29.2297 24.5235 29.2193 24.5203C29.2088 24.5171 29.1995 24.511 29.1926 24.5027C29.1857 24.4945 29.1814 24.4844 29.1803 24.4738C29.1793 24.4632 29.1814 24.4525 29.1866 24.4431C29.373 24.1156 29.5241 23.7734 29.6399 23.4168C29.6421 23.4095 29.6421 23.4018 29.6399 23.3945C29.6378 23.3872 29.6335 23.3807 29.6276 23.3757C29.6217 23.3707 29.6145 23.3675 29.6068 23.3663C29.599 23.3652 29.5911 23.3662 29.584 23.3693L29.2635 23.5118C29.2129 23.5344 29.1916 23.5192 29.1995 23.4662C29.2495 23.1037 29.4013 22.5959 29.3533 22.2509C29.348 22.2121 29.3257 22.1966 29.2864 22.2044L29.0288 22.2577C28.9908 22.2654 28.9772 22.2512 28.9878 22.215L29.2435 21.3234C29.2461 21.3143 29.246 21.3047 29.2433 21.2956C29.2405 21.2865 29.2352 21.2784 29.2279 21.2721C29.2206 21.2659 29.2116 21.2617 29.202 21.2602C29.1924 21.2586 29.1826 21.2597 29.1736 21.2633L29.0338 21.3186C29.026 21.3215 29.0176 21.3224 29.0094 21.3212C29.0011 21.32 28.9934 21.3168 28.9868 21.3118C28.9802 21.3068 28.9752 21.3003 28.972 21.2928C28.9689 21.2853 28.9678 21.2771 28.9689 21.2691L29.0767 20.4066C29.0814 20.3723 29.0657 20.3565 29.0298 20.3591L28.8081 20.3765C28.7721 20.3798 28.7532 20.3639 28.7512 20.329C28.7442 20.2282 28.7342 19.3802 28.6583 19.3909C28.6403 19.3935 28.6307 19.4035 28.6293 19.4209C28.6227 19.4881 28.5964 19.5437 28.5504 19.5876C28.5218 19.6148 28.5065 19.6089 28.5045 19.5702L28.4666 18.7357C28.4646 18.6944 28.4423 18.6776 28.3997 18.6853L28.3208 18.6999C28.3073 18.7023 28.2934 18.7019 28.2801 18.6985C28.2668 18.6951 28.2545 18.6889 28.244 18.6804C28.2336 18.6718 28.2253 18.6611 28.2197 18.6491C28.2142 18.637 28.2115 18.6239 28.2119 18.6107L28.2249 18.0728C28.2256 18.0425 28.2129 18.0192 28.187 18.003L28.0571 17.9236C28.0305 17.9074 28.0215 17.8848 28.0302 17.8557C28.0681 17.7246 28.0601 17.5753 28.0062 17.408C27.935 17.1844 27.8751 16.7564 27.8265 16.1238C27.8257 16.1185 27.8231 16.1136 27.819 16.1098C27.815 16.1061 27.8098 16.1038 27.8043 16.1033C27.7989 16.1029 27.7935 16.1043 27.7892 16.1073C27.7848 16.1104 27.7818 16.1148 27.7805 16.12C27.7233 16.3706 27.6873 16.622 27.6727 16.874C27.6527 17.22 27.4969 17.4865 27.6237 17.8771C27.6277 17.8896 27.6271 17.9031 27.622 17.9153C27.6169 17.9275 27.6077 17.9376 27.5958 17.9439L27.473 18.0089C27.4577 18.0171 27.4453 18.0295 27.4375 18.0446C27.4297 18.0596 27.4267 18.0766 27.429 18.0932L27.5149 18.7222C27.5182 18.7512 27.5052 18.769 27.4759 18.7755L27.3731 18.7978C27.3438 18.8042 27.3288 18.822 27.3282 18.8511L27.3042 19.6923C27.3042 19.7008 27.3015 19.709 27.2964 19.7159C27.2914 19.7228 27.2842 19.728 27.276 19.7308C27.2677 19.7335 27.2588 19.7338 27.2505 19.7314C27.2421 19.729 27.2347 19.7241 27.2293 19.7175L27.0985 19.5595C27.0545 19.5072 27.0366 19.5146 27.0445 19.5818L27.1524 20.5442C27.1584 20.5985 27.1358 20.6143 27.0845 20.5917L26.9447 20.5277C26.9333 20.5225 26.9207 20.5205 26.9082 20.5221C26.8957 20.5237 26.884 20.5288 26.8743 20.5367C26.8647 20.5446 26.8575 20.5551 26.8537 20.5669C26.8499 20.5787 26.8496 20.5914 26.8528 20.6033L27.0995 21.4901C27.1024 21.5008 27.1021 21.512 27.0987 21.5225C27.0953 21.5331 27.0889 21.5424 27.0802 21.5495C27.0715 21.5566 27.0609 21.5612 27.0497 21.5627C27.0384 21.5642 27.0269 21.5625 27.0166 21.5579L26.8119 21.463C26.7984 21.4569 26.7835 21.4548 26.7688 21.457C26.7542 21.4591 26.7405 21.4653 26.7294 21.4749C26.7184 21.4845 26.7105 21.497 26.7067 21.5109C26.7029 21.5248 26.7033 21.5394 26.708 21.5531Z" fill="black"/>
<path d="M22.6691 35.2775C22.6638 35.2835 22.6609 35.2912 22.6609 35.2992C22.6608 35.3071 22.6637 35.3148 22.6689 35.321C22.6741 35.3271 22.6814 35.3312 22.6895 35.3326C22.6975 35.3341 22.7059 35.3327 22.713 35.3288L23.8604 34.5971C23.8741 34.5884 23.8905 34.5845 23.9067 34.5861C23.9229 34.5877 23.9379 34.5946 23.9493 34.6058L24.0252 34.6785C24.0564 34.7095 24.0891 34.7108 24.123 34.6824L24.5424 34.3335C24.5569 34.3215 24.5745 34.3137 24.5933 34.3108C24.6122 34.3079 24.6315 34.31 24.6493 34.317L24.7711 34.3655C24.8071 34.3797 24.8377 34.3719 24.863 34.3422L25.1436 34.0127C25.1497 34.0052 25.1577 33.9993 25.1668 33.9955C25.1758 33.9916 25.1858 33.99 25.1957 33.9908C25.2056 33.9916 25.2152 33.9947 25.2237 33.9998C25.2322 34.005 25.2393 34.0121 25.2445 34.0205L25.2934 34.1028C25.2976 34.1102 25.3037 34.1165 25.311 34.1211C25.3184 34.1257 25.3268 34.1284 25.3355 34.1291C25.3442 34.1298 25.3529 34.1283 25.3609 34.1249C25.3689 34.1215 25.3759 34.1163 25.3813 34.1096L25.7837 33.6308C25.807 33.6037 25.8316 33.6021 25.8576 33.626L25.9565 33.7171C25.9618 33.7221 25.9682 33.7259 25.9752 33.7282C25.9822 33.7306 25.9896 33.7315 25.997 33.7309C26.0044 33.7302 26.0115 33.7281 26.018 33.7245C26.0244 33.721 26.03 33.7161 26.0344 33.7103L26.315 33.3353C26.3183 33.3307 26.3225 33.327 26.3275 33.3242C26.3324 33.3214 26.3379 33.3197 26.3436 33.3191C26.3492 33.3186 26.355 33.3192 26.3604 33.321C26.3658 33.3228 26.3707 33.3256 26.3749 33.3294L26.4608 33.407C26.4667 33.4122 26.4738 33.416 26.4815 33.4181C26.4892 33.4202 26.4974 33.4205 26.5053 33.419C26.5132 33.4175 26.5207 33.4142 26.5272 33.4094C26.5337 33.4047 26.539 33.3985 26.5426 33.3915L26.7494 32.9757C26.7673 32.9395 26.7946 32.9308 26.8312 32.9495C26.8639 32.9663 26.8902 32.9918 26.9101 33.0261C26.919 33.0412 26.9326 33.0531 26.9489 33.06C26.9653 33.067 26.9835 33.0686 27.0009 33.0647C27.0183 33.0608 27.034 33.0515 27.0455 33.0382C27.057 33.025 27.0638 33.0085 27.0649 32.9912C27.0736 32.8096 27.1668 32.7105 27.3445 32.6937C27.3772 32.6904 27.4015 32.6753 27.4174 32.6481L27.5942 32.3486C27.6026 32.3341 27.6158 32.3228 27.6317 32.3164C27.6476 32.3101 27.6652 32.309 27.6817 32.3135C27.6982 32.3179 27.7128 32.3276 27.723 32.341C27.7332 32.3544 27.7385 32.3708 27.738 32.3874C27.727 32.8846 27.4773 33.5058 27.5602 33.9313C27.6831 34.5622 27.8299 35.2697 27.723 35.9094C27.7172 35.9441 27.6978 35.9751 27.6691 35.9956L16.2889 43.9941C16.284 43.9979 16.2779 44 16.2716 44C16.2653 44.0001 16.2591 43.9982 16.254 43.9946C16.2489 43.991 16.2452 43.9859 16.2434 43.98C16.2416 43.9741 16.2418 43.9679 16.244 43.9621L20.6589 30.8261C20.6627 30.8144 20.6698 30.8039 20.6792 30.7957C20.6887 30.7875 20.7003 30.7819 20.7127 30.7796C20.7251 30.7772 20.738 30.7781 20.75 30.7822C20.7619 30.7863 20.7725 30.7934 20.7807 30.8028C20.9085 30.9501 21.0749 31.0312 21.28 31.0461C21.2971 31.0473 21.3136 31.0527 21.3281 31.0618C21.3426 31.071 21.3546 31.0836 21.3629 31.0984C21.4468 31.2496 21.5812 31.289 21.7663 31.2167C21.7745 31.2133 21.7835 31.2125 21.7922 31.2142C21.8008 31.2159 21.8088 31.2202 21.8149 31.2263C21.8211 31.2325 21.8252 31.2404 21.8267 31.2488C21.8281 31.2573 21.8269 31.266 21.8232 31.2738L21.7713 31.3853C21.7682 31.3925 21.7671 31.4003 21.7681 31.408C21.769 31.4157 21.7721 31.423 21.7769 31.4291C21.7817 31.4353 21.788 31.44 21.7953 31.4429C21.8026 31.4457 21.8105 31.4466 21.8182 31.4454L22.2127 31.3901C22.2473 31.3856 22.2653 31.4005 22.2666 31.4347L22.2696 31.5656C22.2699 31.5725 22.2718 31.5793 22.275 31.5854C22.2782 31.5916 22.2828 31.597 22.2884 31.6014C22.294 31.6057 22.3004 31.6088 22.3074 31.6105C22.3143 31.6121 22.3215 31.6124 22.3285 31.6111L22.7489 31.5384C22.761 31.5363 22.7734 31.5379 22.7845 31.5429C22.7956 31.5478 22.8049 31.556 22.8111 31.5662C22.8173 31.5765 22.8201 31.5883 22.8192 31.6001C22.8182 31.612 22.8136 31.6232 22.8059 31.6324C22.7626 31.6848 22.7536 31.7423 22.7789 31.8049C22.7915 31.8372 22.8152 31.8489 22.8498 31.8398L23.3012 31.7216C23.3438 31.71 23.3584 31.7248 23.3451 31.7662L23.2952 31.9271C23.293 31.9341 23.293 31.9417 23.2952 31.9488C23.2974 31.9559 23.3016 31.9622 23.3075 31.9669C23.3133 31.9717 23.3205 31.9747 23.3281 31.9755C23.3356 31.9763 23.3433 31.975 23.3501 31.9716L23.7046 31.7885C23.7452 31.7671 23.7625 31.7788 23.7565 31.8234L23.7346 32.0007C23.7335 32.0087 23.7348 32.0169 23.7383 32.0242C23.7418 32.0316 23.7474 32.0378 23.7544 32.0421C23.7614 32.0465 23.7696 32.0489 23.7779 32.0489C23.7862 32.0489 23.7944 32.0467 23.8015 32.0424L24.0831 31.8738C24.1217 31.8505 24.1443 31.8608 24.151 31.9048L24.173 32.0569C24.1739 32.0638 24.1766 32.0704 24.1807 32.0761C24.1848 32.0818 24.1903 32.0864 24.1966 32.0897C24.203 32.0929 24.2101 32.0946 24.2172 32.0946C24.2244 32.0947 24.2315 32.093 24.2379 32.0899L24.5914 31.9116C24.5974 31.9086 24.604 31.907 24.6107 31.907C24.6175 31.9069 24.6241 31.9084 24.6302 31.9114C24.6362 31.9143 24.6414 31.9185 24.6454 31.9238C24.6495 31.9291 24.6521 31.9352 24.6533 31.9416L24.6792 32.0812C24.6805 32.0882 24.6834 32.0949 24.6879 32.1006C24.6924 32.1062 24.6983 32.1108 24.705 32.1138C24.7118 32.1169 24.7192 32.1183 24.7267 32.118C24.7342 32.1177 24.7416 32.1157 24.7482 32.1122L24.844 32.0589C24.8766 32.0401 24.9113 32.035 24.9479 32.0434C25.067 32.0705 25.1862 32.0686 25.3054 32.0375C25.3391 32.0293 25.3747 32.0317 25.4072 32.0443C25.5018 32.0812 25.5857 32.0631 25.6589 31.9901C25.6642 31.9847 25.6706 31.9805 25.6776 31.9776C25.6846 31.9747 25.6922 31.9732 25.6998 31.9732C25.7075 31.9732 25.715 31.9747 25.7221 31.9776C25.7291 31.9805 25.7355 31.9847 25.7408 31.9901C25.8227 32.0734 25.9122 32.0779 26.0094 32.0036C26.0369 31.9826 26.0695 31.9686 26.1043 31.9629C26.5723 31.8854 27.0473 31.856 27.5293 31.8747C27.5608 31.8761 27.5911 31.8873 27.6155 31.9066C27.64 31.926 27.6574 31.9524 27.6651 31.9821C27.6729 32.0118 27.6705 32.0432 27.6585 32.0715C27.6464 32.0998 27.6253 32.1236 27.5982 32.1393C27.2953 32.3138 26.9657 32.3852 26.6096 32.3535C26.5689 32.3496 26.5407 32.3661 26.5247 32.4029L26.4867 32.4921C26.4721 32.525 26.4465 32.5428 26.4098 32.5454L25.9025 32.5822C25.8679 32.5842 25.8566 32.601 25.8686 32.6326L25.9105 32.7402C25.9135 32.7476 25.9146 32.7556 25.914 32.7635C25.9133 32.7714 25.9108 32.7791 25.9067 32.786C25.9026 32.7929 25.8969 32.7988 25.8902 32.8033C25.8834 32.8077 25.8757 32.8107 25.8676 32.8119L25.3134 32.9011C25.3047 32.9025 25.2966 32.9062 25.29 32.9119C25.2834 32.9175 25.2786 32.9249 25.2761 32.9331C25.2736 32.9412 25.2735 32.9499 25.2759 32.9582C25.2782 32.9664 25.2829 32.9738 25.2894 32.9796L25.3723 33.0532C25.3781 33.0584 25.3824 33.0649 25.3847 33.0722C25.387 33.0795 25.3873 33.0873 25.3854 33.0947C25.3836 33.1022 25.3798 33.109 25.3743 33.1145C25.3688 33.1199 25.3619 33.1239 25.3543 33.1259L24.6303 33.3285C24.622 33.3308 24.6146 33.3356 24.6092 33.3421C24.6037 33.3486 24.6004 33.3566 24.5997 33.3649C24.5991 33.3731 24.6011 33.3814 24.6055 33.3884C24.6099 33.3954 24.6165 33.4009 24.6243 33.4041L24.7432 33.4554C24.753 33.4596 24.7612 33.4667 24.7668 33.4756C24.7725 33.4845 24.7751 33.4948 24.7745 33.5051C24.7738 33.5155 24.7699 33.5253 24.7632 33.5332C24.7565 33.5411 24.7474 33.5468 24.7372 33.5494L24.0761 33.7345C24.0162 33.7513 24.0142 33.7733 24.0701 33.8005L24.162 33.8441C24.1723 33.8489 24.181 33.8566 24.1867 33.8662C24.1925 33.8759 24.1951 33.887 24.1942 33.8981C24.1934 33.9092 24.1891 33.9198 24.1819 33.9285C24.1747 33.9372 24.165 33.9436 24.154 33.9468L23.7166 34.0776C23.6806 34.0886 23.6663 34.1122 23.6737 34.1484L23.6936 34.2482C23.7009 34.287 23.685 34.3122 23.6457 34.3238L23.2642 34.4362C23.2143 34.4511 23.209 34.4753 23.2482 34.5089L23.3092 34.5593C23.3311 34.5787 23.3321 34.5987 23.3122 34.6194L22.6691 35.2775Z" fill="black"/>
<path d="M31.9431 33.6831L31.2381 33.5068C31.2273 33.5045 31.2177 33.4987 31.2108 33.4903C31.204 33.4819 31.2003 33.4715 31.2004 33.4608C31.2005 33.4501 31.2044 33.4398 31.2115 33.4316C31.2185 33.4233 31.2283 33.4177 31.2391 33.4157L31.4129 33.3779C31.4448 33.3708 31.4548 33.3523 31.4428 33.3226C31.4298 33.2887 30.7198 33.0978 30.624 33.0658C30.6148 33.0629 30.6068 33.0575 30.601 33.0501C30.5952 33.0427 30.5919 33.0338 30.5914 33.0245C30.591 33.0152 30.5935 33.006 30.5986 32.9982C30.6037 32.9903 30.6112 32.9841 30.62 32.9805L30.7498 32.9253C30.8044 32.902 30.8024 32.8852 30.7438 32.8749L30.1047 32.7615C30.0971 32.7601 30.0899 32.7573 30.0835 32.7531C30.0771 32.7489 30.0716 32.7435 30.0674 32.7371C30.0632 32.7308 30.0604 32.7237 30.059 32.7162C30.0577 32.7087 30.058 32.701 30.0597 32.6936C30.0724 32.6413 30.107 32.6132 30.1636 32.6093C30.1727 32.6094 30.1797 32.6063 30.1833 32.6008C30.1868 32.5953 30.1864 32.5878 30.1823 32.5799C30.1782 32.5721 30.1707 32.5646 30.1614 32.559C30.1521 32.5534 30.1417 32.5502 30.1326 32.5502L29.4895 32.5066C29.4809 32.5059 29.4727 32.5029 29.4658 32.4978C29.459 32.4928 29.4538 32.4859 29.4508 32.478C29.4479 32.4701 29.4473 32.4616 29.4492 32.4534C29.4511 32.4453 29.4554 32.4378 29.4616 32.432L29.5205 32.3767C29.5257 32.3718 29.5291 32.3655 29.5303 32.3586C29.5316 32.3517 29.5305 32.3446 29.5272 32.3383C29.524 32.332 29.5188 32.3269 29.5124 32.3237C29.506 32.3205 29.4987 32.3194 29.4915 32.3205C29.0521 32.3832 28.6517 32.2976 28.2902 32.0637C28.2739 32.053 28.2614 32.0378 28.2544 32.02C28.2473 32.0023 28.246 31.9828 28.2507 31.9643C28.2554 31.9458 28.2658 31.9292 28.2806 31.9166C28.2953 31.9041 28.3137 31.8962 28.3332 31.8941C28.943 31.8275 29.5408 31.8744 30.1267 32.0346C30.1653 32.0449 30.2002 32.0382 30.2315 32.0142C30.3047 31.9587 30.3726 31.9648 30.4352 32.0327C30.4605 32.0598 30.4918 32.0708 30.5291 32.0656C30.7867 32.0301 31.041 32.0411 31.292 32.0986C31.33 32.1076 31.3503 32.0931 31.3529 32.055L31.3589 31.9377C31.3593 31.9298 31.3619 31.9221 31.3663 31.9154C31.3708 31.9088 31.377 31.9034 31.3844 31.8998C31.3917 31.8961 31.4 31.8944 31.4083 31.8948C31.4166 31.8951 31.4247 31.8976 31.4318 31.9018L31.7574 32.1044C31.7993 32.1309 31.8223 32.1196 31.8263 32.0705L31.8383 31.9164C31.8391 31.9083 31.8421 31.9006 31.8468 31.8939C31.8515 31.8872 31.8579 31.8818 31.8654 31.8781C31.8728 31.8745 31.8811 31.8727 31.8894 31.8729C31.8978 31.8732 31.9059 31.8754 31.9132 31.8795L32.1838 32.0346C32.231 32.0611 32.2547 32.0478 32.2547 31.9949V31.8233C32.2547 31.7807 32.2737 31.77 32.3116 31.7913L32.6451 31.9716C32.6519 31.9754 32.6597 31.9772 32.6675 31.9767C32.6753 31.9762 32.6828 31.9734 32.6889 31.9686C32.6951 31.9639 32.6996 31.9575 32.702 31.9503C32.7043 31.943 32.7043 31.9353 32.7021 31.928L32.6531 31.7535C32.6411 31.7128 32.6561 31.6983 32.6981 31.7099L33.1834 31.8446C33.1907 31.8468 33.1984 31.847 33.2058 31.8452C33.2131 31.8435 33.2199 31.8398 33.2254 31.8345C33.2309 31.8293 33.2349 31.8228 33.237 31.8155C33.2391 31.8083 33.2392 31.8006 33.2373 31.7933L33.1864 31.6082C33.1841 31.5997 33.184 31.5909 33.1862 31.5824C33.1883 31.5739 33.1926 31.5661 33.1987 31.5596C33.2047 31.5532 33.2123 31.5483 33.2208 31.5454C33.2293 31.5426 33.2384 31.5418 33.2473 31.5432L33.7236 31.614C33.7311 31.6152 33.7387 31.6146 33.7458 31.6122C33.7529 31.6098 33.7593 31.6058 33.7644 31.6004C33.7694 31.5949 33.773 31.5884 33.7748 31.5813C33.7766 31.5742 33.7765 31.5668 33.7746 31.5597L33.7376 31.4269C33.7276 31.3914 33.7416 31.3765 33.7796 31.3824L34.177 31.4463C34.1858 31.4479 34.1948 31.4469 34.203 31.4434C34.2111 31.44 34.2181 31.4343 34.2229 31.427C34.2277 31.4197 34.2302 31.4112 34.23 31.4026C34.2298 31.394 34.227 31.3856 34.2219 31.3785C34.1807 31.3223 34.1897 31.2709 34.2489 31.2244C34.2621 31.2142 34.2779 31.2077 34.2947 31.2056C34.3114 31.2036 34.3284 31.2061 34.3438 31.2128C34.5002 31.2799 34.6041 31.236 34.6553 31.0809C34.6605 31.0652 34.6707 31.0516 34.6843 31.042C34.698 31.0324 34.7145 31.0273 34.7312 31.0276C34.927 31.0296 35.0904 30.9611 35.2215 30.8222C35.2322 30.8112 35.2456 30.803 35.2604 30.7985C35.2753 30.7941 35.2911 30.7934 35.3063 30.7966C35.3215 30.7999 35.3356 30.8068 35.3471 30.8169C35.3587 30.827 35.3674 30.8398 35.3723 30.8542L39.7662 43.935C39.7895 44.0041 39.7709 44.0173 39.7103 43.9747L28.3641 36.0043C28.3361 35.9843 28.3228 35.9571 28.3242 35.9229C28.3594 35.1301 28.2989 34.3486 28.1424 33.5785C28.0376 33.06 28.0495 32.7372 28.2483 32.2846C28.2709 32.2336 28.2979 32.2313 28.3292 32.2779L28.6198 32.712C28.6232 32.7171 28.6277 32.7215 28.6329 32.7248C28.6381 32.7281 28.644 32.7304 28.6501 32.7314C28.6562 32.7324 28.6624 32.7321 28.6684 32.7306C28.6743 32.7291 28.6799 32.7264 28.6847 32.7227L28.7126 32.7004C28.7213 32.6936 28.7316 32.6888 28.7426 32.6866C28.7535 32.6844 28.7649 32.6847 28.7757 32.6875C28.7865 32.6903 28.7965 32.6956 28.8048 32.7029C28.8131 32.7102 28.8195 32.7193 28.8235 32.7295L28.9403 33.027C28.9576 33.0703 28.9856 33.0777 29.0242 33.0493L29.167 32.9437C29.1989 32.9211 29.2226 32.9272 29.2379 32.9621L29.4346 33.3992C29.4519 33.4386 29.4769 33.4438 29.5095 33.4147L29.6024 33.3304C29.6403 33.2961 29.6726 33.3007 29.6992 33.3439C29.7771 33.4706 29.8643 33.5911 29.9609 33.7054C29.9795 33.7281 29.9998 33.7293 30.0218 33.7093L30.1187 33.6221C30.1533 33.5904 30.1846 33.593 30.2125 33.6298C30.331 33.7836 30.4562 33.9319 30.588 34.0747C30.616 34.1051 30.6459 34.1073 30.6779 34.0815L30.7797 33.9991C30.8084 33.9758 30.834 33.9784 30.8566 34.0068L31.1033 34.3083C31.1253 34.3354 31.1532 34.3438 31.1872 34.3335L31.328 34.2918C31.3646 34.2802 31.3979 34.2863 31.4278 34.3102L31.9241 34.7037C31.9614 34.7328 31.9801 34.724 31.9801 34.6775V34.6281C31.98 34.6128 31.9842 34.5978 31.9922 34.5847C32.0002 34.5715 32.0118 34.5608 32.0256 34.5535C32.0395 34.5462 32.0551 34.5427 32.0708 34.5434C32.0865 34.5441 32.1018 34.5489 32.1149 34.5573L33.3042 35.3113C33.3078 35.3134 33.3121 35.3142 33.3162 35.3137C33.3204 35.3132 33.3243 35.3114 33.3272 35.3085C33.3302 35.3056 33.3321 35.3018 33.3326 35.2978C33.3332 35.2938 33.3323 35.2897 33.3302 35.2861C33.1531 35.0199 32.9347 34.7896 32.6751 34.5951C32.6438 34.5719 32.6461 34.5518 32.6821 34.535L32.743 34.5069C32.7849 34.4876 32.7863 34.4656 32.747 34.441C32.6025 34.3493 32.4444 34.2876 32.2727 34.2559C32.2287 34.2482 32.2234 34.2298 32.2567 34.2007L32.3725 34.0999C32.3965 34.0792 32.3932 34.064 32.3625 34.0543L31.7983 33.8721C31.788 33.8693 31.7791 33.8631 31.7731 33.8545C31.767 33.846 31.7642 33.8356 31.7652 33.8253C31.7661 33.815 31.7707 33.8053 31.7783 33.7979C31.7858 33.7906 31.7957 33.786 31.8063 33.7849C31.8569 33.7778 31.9045 33.7642 31.9491 33.7442C31.9552 33.7412 31.9602 33.7365 31.9635 33.7307C31.9668 33.7249 31.9682 33.7183 31.9675 33.7117C31.9669 33.7051 31.9642 33.6989 31.9599 33.6938C31.9555 33.6887 31.9497 33.685 31.9431 33.6831Z" fill="black"/>
</svg>
