<!-- by Finnhub --><svg xmlns="http://www.w3.org/2000/svg" width="56" height="56"><path fill="#F0F3FA" d="M0 0h56v56H0z"/><path fill-rule="evenodd" d="M27 16.28h-.52l.3 1.25h2.47l.29-1.25h-.65l.53-3.28h5.24l-3.38 3.53H30v1h4v-1h-2.03L35.35 13h5.32l-5.86 3.3v.02h-.35v1.2h2.49l.61-1.2H35.8L41.69 13H43v13.12l-6-2.46V23h-2.5v4.4s-.29-.95-.5-1.32V23h-4v3.08c-.14.22-.34.58-.5.88V23h-3v3.8c-.19-.26-.39-.54-.5-.72V23h-4v3.08c-.21.37-.5 1.31-.5 1.31V23H19v.61l-6 2.4V13h1.2l5.9 3.32h-1.62l.63 1.2h2.39v-1.2h-.42v-.01L15.23 13h5.32l3.38 3.53H22v1h4v-1h-1.39L21.23 13h5.24l.53 3.28zm.5 0h.89L28.9 13h-1.93l.53 3.28zM37 24.2v4.15l1 1.3V37h5V26.66l-6-2.46zm-23.98 2.35l5.98-2.4v4.2l-1 1.3V37h-5V26.5l.02.05zm15.78 9.24V37h-1.56v-1.2h1.56zM19 18h2.5v2H19v-2zm3 0h4v2h-4v-2zm12 0h-4v2h4v-2zm-12 2.51h4v2.05h-4V20.5zm12 0h-4v2.05h4v-2.05zm.5-2.51H37v2h-2.5v-2zm-5 0h-3v2h3v-2zm-3 2.5h3v2.06h-3v-2.05zm-7.5.01h2.5v2.05H19v-2.05zm15.5 0H37v2.05h-2.5v-2.05z" fill="#075698"/><path d="M22.07 28.35c-.04.17-.06.33-.07.46v2.66l2.85-5.66a4.31 4.31 0 00-.43-.45l-2.35 2.99zM22 37v-4.42l3.17-6.3c.12.19.23.4.32.62L23.36 37H22zm1.87 0H26v-8.19a8.58 8.58 0 00-.2-.98L23.88 37zm.17-11.96a8.76 8.76 0 00-.05-.04c-.68.6-1.14 1.3-1.45 1.94l1.5-1.9zm9.9 3.34l.06.43v2.92l-2.93-5.82c.16-.2.32-.38.5-.54l2.37 3.01zM34 37v-4.16l-3.24-6.44-.3.6 2.21 10H34zm-1.84 0H30v-8.19c.04-.31.1-.6.16-.87l2 9.06zm-.21-11.95L33.49 27a6.2 6.2 0 00-1.48-2 4.3 4.3 0 00-.06.05zM29 35h-2v3h2v-3z" fill="#43A2DA"/><path d="M13 41.63V43h30v-1.37L29.2 38h-2.45L13 41.63z" fill="#CBAD8B"/></svg>