<?xml version="1.0" encoding="UTF-8"?>
<!-- generated by Finnhub -->
<svg viewBox="0 0 55.5 55.5" xmlns="http://www.w3.org/2000/svg">
<path d="M 0,0 H 55.5 V 55.5 H 0 Z" fill="rgb(239, 242, 248)"/>
<path d="M 25.669999999999998,12.524999999999999 C 25.82,10.89 27.1,10.98 27.31,11.03 L 28.01,11.73 C 28.09,15.63 28.7,18.51 28.99,19.46 A 45.77,45.77 0 0,0 27.1,23.24 C 26.18,19.94 25.53,14.2 25.67,12.54 Z" fill="url(#a)"/>
<path d="M 26.93,10.985 C 27.52,11.23 28.67,12.42 28.67,15.35 C 28.67,25.38 19.93,33.75 12.91,38.8 C 13.04,39.4 13.51,40.54 14.41,40.33 C 21.61,38.06 31.08,25.23 31.08,16.43 C 31.08,12.78 29.98,11.29 29.44,11 H 26.94 Z" fill="url(#b)"/>
<path d="M 13.24,39.655 C 13.15,39.01 13.51,37.32 15.83,35.86 C 23.76,30.85 34.76,34.95 42.26,39.06 C 42.67,38.66 43.34,37.63 42.72,36.89 C 37.32,31.19 22.44,28.63 15.48,33.03 C 12.59,34.86 11.96,36.64 12,37.31 L 13.25,39.67 Z" fill="url(#c)"/>
<path d="M 28.169999999999998,26.375 C 28.78,25.23 29.31,24.06 29.74,22.91 C 32.17,31.4 34.68,34.74 35.64,35.36 C 36.14,35.99 37.56,37.43 39.21,38.1 C 40.86,38.76 42.89,37.78 43,37.5 L 42.55,38.81 L 42.36,39.05 C 42.18,39.27 41.97,39.52 41.65,40.15 C 41.21,40.98 40.46,41.05 40.15,40.98 C 38.72,40.98 36.84,39.85 36.08,39.28 C 32.32,36.86 29.53,30.53 28.18,26.38 Z" fill="url(#d)"/>
<defs>
<linearGradient id="a" x1="24.9" x2="27.78" y1="11.58" y2="23.12" gradientUnits="userSpaceOnUse">
<stop stop-color="rgb(4, 103, 3)" offset="0"/>
<stop stop-color="rgb(9, 205, 8)" offset="1"/>
</linearGradient>
<linearGradient id="b" x1="34.13" x2="16.3" y1="14.05" y2="38.87" gradientUnits="userSpaceOnUse">
<stop stop-color="rgb(254, 199, 2)" offset="0"/>
<stop stop-color="rgb(225, 76, 2)" offset="1"/>
</linearGradient>
<linearGradient id="c" x1="12.07" x2="40.78" y1="31.33" y2="32.83" gradientUnits="userSpaceOnUse">
<stop stop-color="rgb(79, 211, 245)" offset="0"/>
<stop stop-color="rgb(1, 78, 143)" offset="1"/>
</linearGradient>
<linearGradient id="d" x1="28.6" x2="41.58" y1="26.37" y2="38.67" gradientUnits="userSpaceOnUse">
<stop stop-color="rgb(60, 170, 59)" offset="0"/>
<stop stop-color="rgb(200, 228, 2)" offset="1"/>
</linearGradient>
</defs>
</svg>
