<?xml version="1.0" encoding="UTF-8"?>
<!-- generated by Finnhub -->
<svg viewBox="0 0 55.5 55.5" xmlns="http://www.w3.org/2000/svg">
<path d="M 0,0 H 55.5 V 55.5 H 0 Z" fill="rgb(239, 242, 248)"/>
<path d="M 7.15,20.985 H 20.69 L 18.93,28.51 L 14.46,22.38 L 11.21,35 H 4 L 7.16,21 Z M 6,33 L 8.43,23 H 13 L 12.5,25 H 9.7 L 9.17,27 H 11.77 L 11.27,29 H 8.7 L 8.2,31 H 11.07 L 10.55,33 H 6 Z" fill-rule="evenodd"/>
<path d="M 19.79,33.325 L 22.8,21 H 52 L 48.72,35 H 13.43 L 15.18,27.24 L 19.8,33.34 Z M 41.74,25.25 L 43,24.04 A 3.17,3.17 0 0,0 40.55,23 C 38.9,23 37,24.46 37,26.01 C 37,27.54 37.91,27.92 38.73,28.27 C 39.4,28.55 40,28.81 40,29.62 C 40,30.28 39.32,31.32 38.32,31.32 C 37.52,31.32 36.65,30.46 36.32,30.02 L 35,31.12 C 35.38,31.75 36.5,33.01 38.02,33.01 C 39.92,33.01 42,31.16 42,29.23 C 42,27.67 41,27.23 40.15,26.87 C 39.53,26.6 39,26.37 39,25.77 C 39,25.2 39.43,24.64 40.26,24.64 C 40.92,24.64 41.52,25.06 41.74,25.26 Z M 23.44,23 L 23,25 H 25.05 L 23,33 H 24.69 L 26.8,25 H 28.56 L 29,23 H 23.44 Z M 44,25 L 44.44,23 H 50 L 49.56,25 H 47.8 L 45.69,33 H 44 L 46.05,25 H 44 Z M 29,33 L 31.43,23 H 36 L 35.5,25 H 32.7 L 32.17,27 H 34.77 L 34.27,29 H 31.7 L 31.2,31 H 34.07 L 33.55,33 H 29 Z" fill="rgb(194, 35, 31)" fill-rule="evenodd"/>
</svg>
