<svg width="56" height="56" viewBox="0 0 56 56" fill="none" xmlns="http://www.w3.org/2000/svg">
<g clip-path="url(#clip0_3365_1756)">
<path d="M0 0H56V56H0V0Z" fill="white"/>
<g clip-path="url(#clip1_3365_1756)">
<path fill-rule="evenodd" clip-rule="evenodd" d="M19.3077 22.0279C19.6049 21.77 19.7656 21.5771 19.5257 21.5771C19.0244 21.5771 15.9886 22.0093 15.3632 19.7969C14.7374 17.5848 18.0839 10.9098 18.2101 10.6237C18.3313 10.3489 18.0808 10 17.7133 10C17.3524 10 17.0877 10.3778 17.0496 10.4241C13.634 14.5568 8.86559 19.7182 8.25133 21.9431C6.6973 27.576 12.7058 29.8589 16.4985 30.2762C16.5657 30.2834 16.599 30.2322 16.599 30.1927V28.1926C16.599 25.4935 17.6459 23.4719 19.3077 22.0279Z" fill="#13C636"/>
<path fill-rule="evenodd" clip-rule="evenodd" d="M37.6923 22.0279C37.3951 21.77 37.2344 21.5771 37.4743 21.5771C37.9756 21.5771 41.0113 22.0093 41.6368 19.7969C42.2627 17.5848 38.9161 10.9098 38.7899 10.6237C38.6688 10.3489 38.9192 10 39.2867 10C39.6476 10 39.9124 10.3778 39.9504 10.4241C43.366 14.5568 48.1344 19.7182 48.7487 21.9431C50.3027 27.576 44.2943 29.8589 40.5016 30.2762C40.4344 30.2834 40.4012 30.2322 40.4012 30.1927V28.1926C40.4012 25.4935 39.3542 23.4719 37.6923 22.0279Z" fill="#13C636"/>
<path fill-rule="evenodd" clip-rule="evenodd" d="M33.1231 30.0709C33.1231 30.1254 33.1017 30.1755 33.0661 30.2117C33.0274 30.2515 32.9722 30.277 32.9115 30.277H23.7193V28.6529C23.7193 26.4373 26.426 25.398 28.5637 25.398C30.562 25.398 33.1245 26.4373 33.1245 28.6529L33.1231 30.0709ZM28.5637 20.5607C23.8236 20.6062 18.6078 23.273 18.6078 28.6529V36.8349C18.6078 42.3049 23.8236 44.8821 28.5637 44.927C31.9596 44.8942 35.8262 43.5277 37.6664 40.6307C37.7278 40.5346 37.6734 40.4079 37.58 40.3547C35.9574 39.4497 35.0156 38.9486 33.4076 38.0681C33.3569 38.0404 33.3022 38.0404 33.2612 38.1069C32.3826 39.5305 30.1402 40.3162 28.5637 40.3162C26.426 40.3162 23.7193 39.0501 23.7193 36.8349V34.3904H36.8594C37.5614 34.3904 38.1301 33.8371 38.1301 33.154V28.6529C38.1301 23.273 33.2108 20.6062 28.5637 20.5607Z" fill="#13C636"/>
</g>
</g>
<defs>
<clipPath id="clip0_3365_1756">
<rect width="56" height="56" fill="white"/>
</clipPath>
<clipPath id="clip1_3365_1756">
<rect width="41" height="35" fill="white" transform="translate(8 10)"/>
</clipPath>
</defs>
</svg>
