<?xml version="1.0" encoding="UTF-8"?>
<!-- generated by Finnhub -->
<svg viewBox="0 0 55.5 55.5" xmlns="http://www.w3.org/2000/svg">
<path d="M0 0h55.5v55.5H0z" fill="rgb(56, 1, 146)"/>
<path d="M11 28c0-9.24 7.74-17 17-17a17.19 17.19 0 0 1 17 17c0 9.26-7.76 17-17 17s-17-7.76-17-17Zm2 0c0 8.24 6.74 15 15 15s15-6.75 15-15c0-8.26-6.76-15-15-15s-15 6.76-15 15Zm9 6h5.4l1.36-1H34v4h-5.24l-1.36-1H22v-2Zm5.4-7H22v2h5.4l1.36 1H34v-4h-5.24l-1.36 1ZM22 20h5.4l1.36-1H34v4h-5.24l-1.36-1H22v-2Z" fill="rgb(254, 254, 253)"/>
</svg>
