<?xml version="1.0" encoding="UTF-8"?>
<!-- generated by Finnhub -->
<svg viewBox="0 0 55.5 55.5" xmlns="http://www.w3.org/2000/svg">
<path d="M 0,0 H 55.5 V 55.5 H 0 Z" fill="rgb(239, 242, 248)"/>
<path d="M 36.64,26.155 C 36.05,26.03 36.07,25.32 36.49,25 L 37.17,24.52 A 0.52,0.52 0 0,1 37.93,24.74 C 38.3,25.67 37.7,26.42 36.65,26.17 Z" fill="rgb(34, 30, 30)"/>
<path d="M 39.940000000000005,27.965 L 39.77,28.22 C 39.65,28.36 39.62,28.35 39.67,28.17 L 41.83,21.57 C 41.93,21.27 41.95,20.97 41.9,20.67 C 41.67,19.43 40.22,20.22 39.74,20.77 C 39.56,21 39.44,21.27 39.38,21.62 C 38.98,23.99 38.45,26.33 37.92,28.67 L 37.25,31.64 A 0.71,0.71 0 0,1 36.95,32.11 C 36.76,32.23 36.57,32.33 36.38,32.41 A 0.23,0.23 0 0,1 36.18,32.41 A 0.21,0.21 0 0,1 36.1,32.34 A 0.2,0.2 0 0,1 36.07,32.24 C 36.03,31.71 36.1,31.2 36.27,30.73 C 36.67,29.66 37.01,28.61 37.3,27.56 C 37.41,27.16 37.26,26.92 36.84,26.83 A 0.4,0.4 0 0,0 36.66,26.83 C 36.15,26.96 35.83,27.27 35.69,27.73 C 35.29,29.1 35.02,30.45 34.85,31.79 C 34.81,32.17 34.31,32.49 34,32.66 A 0.18,0.18 0 0,1 33.83,32.66 A 0.17,0.17 0 0,1 33.77,32.61 A 8.92,8.92 0 0,1 33.87,30.68 C 34.3,28.2 34.77,25.68 35.29,23.15 C 35.31,23.05 35.37,23.01 35.48,23.02 L 38,23.35 C 38.41,23.4 38.58,23.23 38.51,22.85 L 38.47,22.63 C 38.39,22.2 38.12,21.97 37.66,21.96 L 35.65,21.89 C 35.57,21.89 35.54,21.85 35.55,21.78 C 35.75,20.82 35.93,19.93 36.07,19.11 A 0.92,0.92 0 0,0 35.69,18.14 C 35.11,17.72 34.19,18.33 33.79,18.74 C 33.56,19 33.41,19.34 33.37,19.76 L 33.17,21.78 C 33.16,21.86 33.11,21.9 33.02,21.91 C 29.3,22.16 25.6,22.68 21.91,23.48 C 21.87,23.48 21.86,23.5 21.87,23.53 L 21.88,23.59 C 21.89,23.66 21.94,23.69 22.01,23.67 A 101.83,101.83 0 0,1 32.98,22.95 L 33.04,22.98 A 0.15,0.15 0 0,1 33.08,23.1 C 32.77,26.09 32.58,29 32.5,31.82 A 1,1 0 0,1 32.13,32.58 L 31.78,32.87 C 31.53,33.07 31.41,33 31.43,32.7 C 31.49,31.73 31.64,30.7 31.89,29.6 C 32.01,29.05 32.01,28.34 31.57,27.92 C 31.11,27.49 30.56,27.47 29.92,27.87 A 0.28,0.28 0 0,0 29.82,27.99 A 0.4,0.4 0 0,1 29.69,28.15 C 29.61,28.22 29.56,28.2 29.54,28.1 C 29.47,27.81 29.3,27.66 29.02,27.62 A 0.32,0.32 0 0,0 28.77,27.69 A 0.95,0.95 0 0,0 28.44,28.2 C 28.16,29.28 27.89,30.36 27.64,31.43 C 27.59,31.7 27.46,31.93 27.27,32.11 C 26.44,32.91 25.3,33.48 24.61,32.05 C 24.57,31.96 24.61,31.92 24.71,31.92 C 25.22,31.92 25.69,31.8 26.11,31.52 A 3.24,3.24 0 0,0 27.68,28.1 C 27.51,26.9 26.34,26.64 25.36,27.22 C 24.23,27.88 23.67,29.1 23.32,30.3 C 23.28,30.43 23.22,30.44 23.12,30.34 L 22.95,30.14 A 0.35,0.35 0 0,1 22.9,29.74 C 23.24,29.04 24.15,26.88 22.64,26.69 C 21.84,26.59 21.44,27.47 21.37,28.08 C 21.35,28.31 21.37,28.54 21.39,28.77 C 21.42,29.09 21.46,29.42 21.35,29.73 L 21.3,29.87 C 21,30.76 20.56,32.12 19.82,32.67 C 19.74,32.73 19.67,32.73 19.61,32.67 C 19.01,32.11 18.88,30.32 19.13,29.61 C 19.42,28.79 19.95,26.41 18.19,26.61 C 17.24,26.72 16.64,27.84 16.63,28.6 C 16.59,30.76 16.29,32.7 13.6,33.06 C 12.4,33.23 11.04,33.09 9.54,32.64 C 9.18,32.54 8.77,32.39 8.93,31.98 C 9.28,31.11 9.59,30.26 9.88,29.43 C 9.92,29.31 10,29.25 10.14,29.24 C 10.94,29.22 11.74,29.24 12.57,29.32 C 13.53,29.41 14.22,28.99 14.63,28.07 C 14.93,27.43 14.23,26.93 13.63,26.94 C 12.55,26.96 11.55,27.09 10.61,27.32 C 10.48,27.35 10.43,27.31 10.46,27.19 L 10.91,24.95 A 0.6,0.6 0 0,1 11.21,24.54 C 13.09,23.4 15.2,23.08 17.46,23.16 C 17.8,23.17 18.09,23.09 18.32,22.9 C 18.78,22.54 19.28,21.86 19.02,21.26 A 0.75,0.75 0 0,0 18.34,20.79 C 15.51,20.59 12.92,21.21 10.66,22.88 A 0.86,0.86 0 0,0 10.33,23.36 A 47.61,47.61 0 0,1 7.18,32.19 C 6.8,32.99 7.03,33.69 7.88,34.13 A 6.88,6.88 0 0,0 13.98,34.43 C 15.22,33.9 16.34,33.13 17.35,32.1 C 17.43,32.03 17.49,32.03 17.55,32.12 L 17.58,32.19 C 18.04,32.98 19.08,34.75 20.22,33.63 C 20.91,32.95 21.58,32.05 22.22,30.93 C 22.27,30.85 22.33,30.84 22.42,30.9 L 22.98,31.3 C 23.05,31.36 23.08,31.44 23.08,31.53 C 23.06,32.42 23.13,33.23 24.05,33.69 C 25.18,34.26 26.46,33.77 27.23,32.87 C 27.37,32.7 27.43,32.72 27.45,32.94 C 27.45,33.49 27.71,33.76 28.2,33.74 C 28.27,33.74 28.33,33.71 28.38,33.65 C 28.6,33.39 28.78,33.1 28.9,32.78 L 29.91,30 C 29.99,29.77 30.11,29.62 30.27,29.56 A 0.26,0.26 0 0,1 30.51,29.6 C 30.55,29.62 30.57,29.66 30.59,29.7 V 29.82 L 30.1,32.15 C 30,32.62 30.02,33.05 30.16,33.45 C 30.4,34.15 31.19,34.13 31.69,33.67 C 31.95,33.43 32.19,33.17 32.42,32.91 C 32.52,32.79 32.57,32.81 32.57,32.95 C 32.57,33.26 32.67,33.55 32.85,33.81 C 32.92,33.91 33.02,33.98 33.13,34.01 A 0.5,0.5 0 0,0 33.47,33.97 A 4.66,4.66 0 0,0 34.87,32.9 A 0.1,0.1 0 0,1 34.97,32.91 A 0.1,0.1 0 0,1 35,32.95 C 35.46,33.9 36.36,33.42 36.91,32.94 C 37.07,32.8 37.14,32.84 37.13,33.04 C 37.1,33.42 37.26,33.62 37.62,33.64 A 0.2,0.2 0 0,0 37.8,33.56 C 38.13,33.15 38.35,32.66 38.45,32.12 C 38.49,31.95 38.56,31.93 38.68,32.06 C 39.64,33.18 41.45,34.51 43,33.48 A 0.17,0.17 0 0,1 43.22,33.48 C 43.72,33.84 44.28,33.98 44.92,33.88 C 46.57,33.65 47.12,31.81 47.2,30.41 C 47.2,30.31 47.25,30.25 47.34,30.21 C 47.49,30.13 47.63,30.04 47.77,29.94 A 0.2,0.2 0 0,0 47.87,29.78 C 47.87,29.68 47.82,29.64 47.72,29.65 L 47.35,29.7 C 47.26,29.7 47.22,29.67 47.22,29.58 C 47.22,28.62 47,27.73 46.59,26.93 C 46.24,26.25 45.52,25.83 44.79,26.41 A 3.03,3.03 0 0,0 43.63,28.34 A 0.42,0.42 0 0,1 43.51,28.58 C 42.5,29.61 42.3,31.6 42.67,32.78 C 42.7,32.87 42.67,32.93 42.59,32.96 C 41.79,33.26 40.61,32.5 40.04,32.03 C 39.56,31.63 39.79,31.06 40.18,30.71 C 40.77,30.19 41.34,29.66 41.9,29.12 C 42.53,28.52 44.12,26.64 42.47,26.3 C 41.45,26.08 40.55,27.22 39.94,27.98 Z M 45.61,27.33 C 46.13,27.76 46.24,29 46.22,29.61 C 46.22,29.69 46.18,29.72 46.09,29.72 C 44.91,29.67 44.5,28.36 44.89,27.49 A 0.44,0.44 0 0,1 45.02,27.33 A 0.47,0.47 0 0,1 45.42,27.24 C 45.49,27.26 45.55,27.29 45.61,27.34 Z M 39,30.17 C 39.3,29.25 39.65,28.47 40.47,27.87 C 40.66,27.74 40.87,27.67 41.1,27.66 C 41.34,27.66 41.49,27.72 41.56,27.86 C 41.66,28.09 41.62,28.28 41.42,28.44 L 39.11,30.24 C 39,30.32 38.97,30.3 39.01,30.17 Z M 24.6,31.27 C 25.25,31.25 25.74,30.87 26.07,30.13 C 26.27,29.7 26.22,29.36 25.92,29.12 A 0.28,0.28 0 0,0 25.67,29.07 C 24.82,29.29 24.46,30.44 24.47,31.16 C 24.48,31.24 24.52,31.27 24.6,31.27 Z M 43.76,32.37 A 5.2,5.2 0 0,0 44.68,30.22 A 0.1,0.1 0 0,1 44.75,30.18 A 2.81,2.81 0 0,0 46.03,30.5 C 46.12,30.5 46.15,30.55 46.13,30.63 C 45.93,31.75 45.32,33.03 43.83,32.61 A 0.16,0.16 0 0,1 43.77,32.57 A 0.14,0.14 0 0,1 43.75,32.37 Z" fill="rgb(34, 30, 30)" fill-rule="evenodd"/>
<path d="M 47.63,33.905 C 48.18,34.13 48.76,33.89 48.94,33.38 C 49.13,32.88 48.84,32.28 48.31,32.08 C 47.77,31.87 47.19,32.11 47.01,32.62 C 46.82,33.12 47.11,33.72 47.64,33.92 Z" fill="rgb(34, 30, 30)"/>
</svg>
