<?xml version="1.0" encoding="UTF-8"?>
<!-- generated by Finnhub -->
<svg viewBox="0 0 55.5 55.5" xmlns="http://www.w3.org/2000/svg">
<path d="M 0,0 H 55.5 V 55.5 H 0 Z" fill="rgb(239, 242, 248)"/>
<path d="M 7.98,22.985 H 15 V 26 H 9 V 28.5 H 14 V 31 H 9 V 34 H 15 V 34.9 C 15,36.06 14.11,37 13.01,37 H 8 C 6.89,37 6,36.06 6,34.9 V 25.1 C 6,23.94 6.89,23 7.99,23 Z M 17.59,23 H 19.44 L 21.95,26.89 L 24.05,23 H 25.76 C 26.56,23 27.06,23.91 26.64,24.63 L 23.58,29.86 L 26.98,35.36 C 27.42,36.06 26.93,37 26.11,37 H 24.46 L 21.96,32.83 L 19.43,37 H 17.53 C 16.73,37 16.23,36.08 16.66,35.37 L 19.91,29.86 L 16.71,24.65 C 16.27,23.93 16.76,23 17.57,23 Z M 29,35.41 V 23 H 30.53 C 31.35,23 32,23.71 32,24.59 V 34 H 37 V 35.41 C 37,36.29 36.33,37 35.51,37 H 30.5 C 29.68,37 29.01,36.29 29.01,35.41 Z M 42.06,23.36 L 37.73,36.3 C 37.62,36.64 37.87,37 38.22,37 H 40.57 C 40.8,37 41,36.84 41.07,36.61 L 41.77,34 H 46.13 L 46.89,36.62 C 46.96,36.85 47.16,37 47.39,37 H 49.49 C 49.83,37 50.09,36.65 49.97,36.3 L 45.9,23.38 A 0.52,0.52 0 0,0 45.4,23.01 H 42.55 A 0.51,0.51 0 0,0 42.06,23.37 Z M 45.41,31.56 H 42.45 L 43.88,26.29 L 45.41,31.55 Z" fill="url(#a)"/>
<path d="M 17.63,17.035 L 15.72,19.38 L 19.79,19.07 L 20.26,17.05 H 21.64 L 24.16,12.92 L 28.26,15.24 L 25.66,19.38 L 28.79,18.25 V 17.05 L 30.34,16.71 L 31.14,14.01 L 37.36,19.07 L 34.5,14.87 L 33.73,15.69 L 31.48,12.51 L 28.79,14.32 L 25.94,12.2 L 25.13,12.68 L 23.82,12 L 22.84,13.5 L 21.64,12.92 L 18.68,17.05 H 17.64 Z" fill="url(#b)"/>
<defs>
<linearGradient id="a" x1="6" x2="50" y1="30" y2="30" gradientUnits="userSpaceOnUse">
<stop stop-color="rgb(141, 100, 46)" offset="0"/>
<stop stop-color="rgb(226, 222, 162)" offset=".49"/>
<stop stop-color="rgb(150, 108, 44)" offset="1"/>
</linearGradient>
<linearGradient id="b" x1="16.9" x2="36.39" y1="17.76" y2="17.81" gradientUnits="userSpaceOnUse">
<stop stop-color="rgb(111, 111, 110)" offset="0"/>
<stop stop-color="rgb(229, 229, 228)" offset=".52"/>
<stop stop-color="rgb(124, 124, 123)" offset="1"/>
</linearGradient>
</defs>
</svg>
