<?xml version="1.0" encoding="UTF-8"?>
<!-- generated by Finnhub -->
<svg viewBox="0 0 55.5 55.5" xmlns="http://www.w3.org/2000/svg">
<path d="M 0,0 H 55.5 V 55.5 H 0 Z" fill="rgb(239, 242, 248)"/>
<path d="M 33.99,22.435 C 32.33,22.45 31,23.78 31,25.4 V 26.77 C 31,26.9 30.86,27 30.73,27 A 0.23,0.23 0 0,1 30.5,26.77 V 25.4 C 30.5,23.52 32.08,22 34,22 H 34.23 A 3.45,3.45 0 0,1 37.5,25.4 V 33 H 37.04 V 25.4 A 3,3 0 0,0 34,22.45 Z" fill="rgb(79, 167, 242)"/>
<path d="M 3.99,32.394999999999996 L 4.48,31.41 C 4.69,31.61 5.28,32.02 5.95,32.02 C 6.79,32.02 6.93,31.41 6.32,31.21 L 6,31.1 C 5.3,30.93 4.2,30.65 4.2,29.43 C 4.2,28.3 5.45,28 6.07,28 C 6.42,28 7.24,28.13 7.68,28.52 L 7.21,29.49 C 7.05,29.32 6.61,28.97 6.07,28.97 C 5.4,28.97 5.33,29.21 5.33,29.44 C 5.33,29.67 5.74,29.86 6.18,29.98 C 6.62,30.1 7.85,30.45 7.85,31.55 S 6.79,33 5.95,33 C 5.28,33 4.37,32.6 4,32.41 Z M 8,28 H 12 V 29 H 10.5 V 33 H 9.5 V 29 H 8 V 28 Z M 14.5,33 A 2.5,2.5 0 1,0 14.5,28 A 2.5,2.5 0 0,0 14.5,33 Z M 14.5,32 A 1.5,1.5 0 1,0 14.5,29 A 1.5,1.5 0 0,0 14.5,32 Z M 19,33 H 18 V 28 H 18.78 L 21,30.96 V 28 H 22 V 33 H 21.15 L 19,30.11 V 33 Z M 23,33 H 26 V 32 H 24 V 31 H 25.5 V 30 H 24 V 28.99 H 26 V 28 H 23 V 33 Z M 29.68,28 H 27 V 33 H 29.45 C 29.73,33 31,32.85 31,31.77 C 31,30.9 30.4,30.55 30.09,30.49 C 30.31,30.33 30.74,29.88 30.74,29.31 C 30.74,28.27 30.04,28.01 29.68,28 Z M 29.2,29 H 28 V 30 H 29.2 A 0.5,0.5 0 1,0 29.2,29 Z M 29.4,31 H 28 V 32 H 29.4 C 29.74,32 30,31.78 30,31.5 S 29.74,31 29.4,31 Z M 32,33 H 33 V 31.5 H 33.58 L 34.38,33 H 35.61 L 34.69,31.37 C 35.23,31.06 35.5,30.23 35.5,29.79 C 35.5,28.43 34.5,28.03 34.02,28 H 32 V 33 Z M 33,29 H 33.88 C 34.26,29 34.57,29.34 34.57,29.75 S 34.27,30.5 33.88,30.5 H 33 V 29 Z M 40.67,28 H 38.59 V 33 H 40.67 C 41.37,32.93 42.8,32.26 42.8,30.5 S 41.42,28 40.67,28 Z M 39.67,29.02 V 32.03 H 40.68 C 41.02,31.98 41.71,31.62 41.71,30.51 C 41.71,29.41 41.05,29.02 40.68,29.02 H 39.68 Z M 46.87,29.72 L 47.67,29.07 A 2.29,2.29 0 0,0 45.83,28 C 44.63,28 43.37,28.98 43.37,30.56 A 2.37,2.37 0 0,0 45.71,33 C 46.29,33 46.71,32.74 46.98,32.48 V 33 H 48 V 30.4 H 46 V 31.21 H 46.98 V 31.38 C 46.68,31.7 46.23,32.04 45.71,32.04 C 44.78,32.04 44.41,31.16 44.41,30.56 S 44.81,29.02 45.77,29.02 C 46.32,29.02 46.75,29.49 46.87,29.72 Z M 52,28 H 49 V 33 H 52 V 32 H 50 V 30.88 H 51.68 V 30.04 H 50 V 29 H 52 V 28 Z M 26,20.25 C 26,20.11 26.12,20 26.27,20 H 41.73 C 41.88,20 42,20.11 42,20.25 S 41.88,20.5 41.73,20.5 H 41 V 21 H 41.73 C 41.88,21 42,21.11 42,21.25 S 41.88,21.5 41.73,21.5 H 26.27 C 26.12,21.5 26,21.39 26,21.25 S 26.12,21 26.27,21 H 27 V 20.5 H 26.27 C 26.12,20.5 26,20.39 26,20.25 Z M 39.5,20.5 H 40.5 V 21 H 39.5 V 20.5 Z M 39,21 V 20.5 H 37.5 V 21 H 39 Z M 35.5,20.5 H 37 V 21 H 35.5 V 20.5 Z M 35,21 V 20.5 H 33.5 V 21 H 35 Z M 31.5,20.5 H 33 V 21 H 31.5 V 20.5 Z M 31,21 V 20.5 H 29.5 V 21 H 31 Z M 27.5,20.5 H 29 V 21 H 27.5 V 20.5 Z M 26,22.22 C 26,22.1 26.11,22 26.25,22 C 26.89,22 27.83,22.2 28.62,22.77 C 29.42,23.35 30.02,24.31 30,25.77 C 30,25.9 29.88,26 29.75,26 C 29.61,26 29.5,25.9 29.51,25.77 C 29.53,24.43 28.99,23.62 28.31,23.13 A 3.76,3.76 0 0,0 26.24,22.45 C 26.11,22.45 26,22.35 26,22.22 Z M 42,22.22 C 42,22.1 41.89,22 41.75,22 C 41.11,22 40.17,22.2 39.38,22.77 C 38.58,23.35 37.98,24.31 38,25.77 C 38,25.9 38.12,26 38.25,26 C 38.39,26 38.5,25.9 38.49,25.77 C 38.47,24.43 39.01,23.62 39.69,23.13 C 40.37,22.63 41.2,22.46 41.76,22.45 C 41.89,22.45 42,22.35 42,22.22 Z" fill-rule="evenodd"/>
</svg>
