<!-- by Finnhub --><svg width="56" height="56" viewBox="0 0 56 56" xmlns="http://www.w3.org/2000/svg"><path fill="#F0F3FA" d="M0 0h56v56H0z"/><path d="M9.98 27.76c-.34.69-.66 1.38-.98 2.08-.1.22-.7.14-.9.14a.1.1 0 0 1-.05-.01.1.1 0 0 1-.03-.04.09.09 0 0 1-.01-.08l1.8-3.69c.1-.18.26-.23.36-.03L12 29.85c.03.05-.02.15-.09.15-.13 0-.72.01-.8-.05a.19.19 0 0 1-.08-.07l-1-2.12c-.01-.02-.02-.02-.04 0ZM19.3 27.24c-.9 1.04.43 2.44 1.68 1.6.05-.04.1-.04.15 0l.4.4c.09.09.1.2 0 .28-.97.76-2.45.6-3.15-.36a1.95 1.95 0 0 1 .9-3c.74-.29 1.62-.2 2.23.3a.2.2 0 0 1 .08.19c0 .02 0 .03-.02.05a9 9 0 0 1-.38.37c-.1.1-.19.09-.3 0-.49-.33-1.2-.29-1.59.17ZM27.3 28c0 .53-.22 1.04-.62 1.41-.4.38-.96.59-1.53.59-.57 0-1.12-.21-1.52-.59-.4-.37-.63-.88-.63-1.41 0-.53.23-1.04.63-1.41.4-.38.95-.59 1.52-.59.57 0 1.12.21 1.53.59.4.37.63.88.63 1.41Zm-.97 0c0-.3-.12-.57-.34-.77-.22-.2-.52-.32-.84-.32-.3 0-.6.11-.83.32-.22.2-.34.48-.34.77 0 .29.12.57.34.77.22.2.52.32.83.32.32 0 .62-.11.84-.32.22-.2.34-.48.34-.77ZM30 27.87v2.06c0 .04-.04.07-.08.07h-.82c-.05 0-.1-.05-.1-.1v-3.82c0-.02 0-.04.02-.06a.09.09 0 0 1 .07-.02h.15c.02 0 .04 0 .05.02l2.2 2.06h.02l.01-.02V26.1c0-.05.05-.1.1-.1h.78c.05 0 .1.04.1.1v3.8c0 .02 0 .03-.02.04-.12.1-.25.06-.35-.04L30 27.87Z" fill="#D70D0B"/><path d="M34.93 27.93c-.59-.47-.56-1.34.1-1.72.66-.38 1.57-.2 2.16.23.02.01.04.04.04.06a.1.1 0 0 1-.01.08c-.08.13-.3.52-.48.54h-.05c-.21-.16-.69-.4-.96-.33s-.34.38-.12.53c.47.32 1.22.4 1.58 1 .16.28.2.57.08.86-.4 1.07-1.9.97-2.7.42a.14.14 0 0 1-.06-.09c0-.03 0-.06.02-.09l.28-.46c.06-.1.19-.07.28 0 .27.16.9.43 1.13.1.27-.4-.41-.68-.7-.77a1.95 1.95 0 0 1-.6-.36ZM47.66 28c0 .53-.23 1.04-.63 1.41-.4.38-.96.59-1.53.59-.57 0-1.12-.21-1.52-.59-.4-.37-.63-.88-.63-1.41 0-.53.23-1.04.63-1.41.4-.38.95-.59 1.52-.59.57 0 1.12.21 1.53.59.4.37.63.88.63 1.41Zm-.98 0c0-.3-.12-.57-.34-.77-.22-.21-.52-.32-.84-.32-.3 0-.6.11-.83.32-.22.2-.34.48-.34.77 0 .29.12.57.34.77.22.2.52.32.83.32.32 0 .62-.11.84-.32.22-.2.34-.48.34-.77Z"/><path d="M4 30v-3.93l.05-.05A.07.07 0 0 1 4.1 26h2.54a.1.1 0 0 1 .07.03.1.1 0 0 1 .03.07v.64a.1.1 0 0 1-.03.07.1.1 0 0 1-.07.03H5v.81h1.33c.03 0 .06.02.08.04a.1.1 0 0 1 .04.08v.63a.1.1 0 0 1-.04.08.12.12 0 0 1-.08.03H5V30H4ZM15.03 29.16h1.48a.1.1 0 0 1 .06.02l.03.06v.66a.1.1 0 0 1-.03.07.11.11 0 0 1-.08.03h-2.38a.11.11 0 0 1-.08-.03.1.1 0 0 1-.03-.07v-3.8a.1.1 0 0 1 .03-.07.11.11 0 0 1 .08-.03h.78c.03 0 .05.01.07.03a.1.1 0 0 1 .04.07v3.03c0 .02 0 .03.03.03Z" fill="#D70D0B"/><path d="M39.97 26.84h-.9c-.01 0-.03 0-.05-.02a.07.07 0 0 1-.02-.05v-.67c0-.07.04-.1.1-.1h2.8a.1.1 0 0 1 .07.02l.03.06v.7c0 .01 0 .03-.02.04a.08.08 0 0 1-.06.02h-.87c-.03 0-.05.01-.05.04v3c0 .03 0 .06-.03.09a.14.14 0 0 1-.09.03h-.75a.13.13 0 0 1-.09-.03c-.02-.02-.04-.05-.04-.08v-3.02c0-.02 0-.03-.03-.03ZM50 26.86v3.07l-.02.05a.06.06 0 0 1-.05.02h-.83a.1.1 0 0 1-.07-.03.1.1 0 0 1-.03-.07v-3.77a.13.13 0 0 1 .04-.1.12.12 0 0 1 .09-.03h1.37c.34 0 .59.03.74.08.28.11.5.31.63.6.33.7 0 1.4-.66 1.7-.02 0-.02.01-.01.03l.75 1.44a.1.1 0 0 1 0 .1.1.1 0 0 1-.08.05h-.78a.1.1 0 0 1-.1-.06l-.66-1.36c-.1-.2-.06-.53-.06-.76 0-.03.02-.06.04-.08a.12.12 0 0 1 .08-.04c.17 0 .37.03.5-.05.28-.17.32-.57.04-.75-.2-.13-.66-.07-.9-.07-.02 0-.03 0-.03.03Z"/></svg>