<?xml version="1.0" encoding="UTF-8"?>
<!-- generated by Finnhub -->
<svg viewBox="0 0 55.5 55.5" xmlns="http://www.w3.org/2000/svg">
<path d="M 0,0 H 55.5 V 55.5 H 0 Z" fill="rgb(239, 242, 248)"/>
<path d="M 41.830000000000005,17.294999999999998 A 16,16 0 0,1 43.74,15.71 C 44.04,15.48 44.36,15.3 44.7,15.15 C 44.81,15.1 44.9,15.12 44.98,15.2 L 45,15.24 V 15.27 A 3.9,3.9 0 0,1 44.09,16.82 A 65.85,65.85 0 0,1 41.93,19.28 H 41.95 A 7.56,7.56 0 0,1 44.03,17.78 C 44.17,17.72 44.32,17.8 44.29,17.98 C 44.23,18.34 43.8,18.86 43.53,19.17 A 45.86,45.86 0 0,1 42.06,20.83 A 4.56,4.56 0 0,1 43.49,20.03 A 0.15,0.15 0 0,1 43.59,20.11 L 43.62,20.17 C 43.62,20.47 43.25,20.93 43.06,21.15 A 28.66,28.66 0 0,1 42.11,22.19 H 42.14 A 2.67,2.67 0 0,1 43.17,21.71 A 0.14,0.14 0 0,1 43.29,21.82 C 43.34,22.14 42.99,22.57 42.79,22.82 A 42.05,42.05 0 0,1 41.61,24.16 H 41.63 C 41.91,23.94 42.23,23.78 42.58,23.69 A 0.17,0.17 0 0,1 42.73,23.71 A 0.16,0.16 0 0,1 42.79,23.85 C 42.79,23.95 42.76,24.05 42.71,24.15 C 42.41,24.69 41.94,25.18 41.51,25.66 C 41.42,25.76 41.43,25.77 41.54,25.69 C 41.74,25.56 42.22,25.26 42.48,25.32 C 42.51,25.32 42.54,25.34 42.56,25.37 C 42.58,25.39 42.59,25.43 42.58,25.46 C 42.56,25.65 42.49,25.82 42.38,25.98 C 42.13,26.33 41.88,26.65 41.61,26.93 C 41.56,26.98 41.57,26.99 41.63,26.96 C 41.8,26.87 41.98,26.81 42.17,26.76 A 0.14,0.14 0 0,1 42.32,26.84 L 42.34,26.9 C 42.35,27.29 41.88,27.82 41.61,28.1 A 0.1,0.1 0 0,0 41.59,28.2 C 42.53,32.26 41.56,36.42 39.03,39.67 A 13.95,13.95 0 0,1 27.9,45 A 13.87,13.87 0 0,1 19.21,41.9 A 13.64,13.64 0 0,1 14.43,28.2 C 14.44,28.18 14.43,28.15 14.41,28.13 C 14.14,27.83 13.68,27.32 13.67,26.9 C 13.67,26.82 13.75,26.76 13.83,26.77 C 14,26.8 14.16,26.85 14.33,26.94 C 14.44,27 14.45,26.98 14.36,26.89 C 14.02,26.53 13.49,25.97 13.43,25.46 A 0.14,0.14 0 0,1 13.57,25.31 C 13.87,25.31 14.27,25.55 14.5,25.71 C 14.58,25.76 14.58,25.75 14.52,25.68 C 14.24,25.38 13.96,25.07 13.68,24.73 C 13.48,24.48 13.26,24.18 13.22,23.86 C 13.2,23.75 13.31,23.66 13.42,23.68 C 13.78,23.78 14.12,23.95 14.42,24.19 H 14.43 V 24.17 C 13.96,23.68 13.51,23.17 13.08,22.65 C 12.94,22.47 12.71,22.12 12.7,21.87 C 12.7,21.77 12.8,21.68 12.9,21.71 A 2.48,2.48 0 0,1 13.86,22.19 L 13.87,22.17 V 22.14 C 13.44,21.72 13.05,21.28 12.7,20.84 C 12.55,20.64 12.44,20.44 12.38,20.21 A 0.1,0.1 0 0,1 12.4,20.11 C 12.47,20.03 12.56,20.01 12.66,20.05 A 5.03,5.03 0 0,1 13.96,20.82 V 20.8 C 13.29,20.1 12.73,19.48 12.27,18.92 C 12.04,18.65 11.77,18.27 11.71,17.92 C 11.71,17.88 11.71,17.85 11.73,17.83 C 11.81,17.76 11.89,17.75 11.99,17.79 A 8.31,8.31 0 0,1 14.06,19.24 A 84.76,84.76 0 0,1 12.18,17.13 C 11.8,16.69 11.48,16.25 11.2,15.8 C 11.1,15.64 11.04,15.46 11.01,15.26 C 11.01,15.23 11.01,15.21 11.04,15.19 A 0.22,0.22 0 0,1 11.3,15.14 C 11.65,15.3 11.97,15.48 12.24,15.68 A 15.07,15.07 0 0,1 14.26,17.38 V 17.37 A 50.71,50.71 0 0,1 12.53,15.29 A 7.37,7.37 0 0,1 11.63,13.87 C 11.53,13.67 11.48,13.39 11.49,13.16 A 0.16,0.16 0 0,1 11.65,13.01 C 12.1,13.01 12.72,13.35 13.09,13.58 C 14.26,14.32 15.33,15.33 16.27,16.36 L 16.87,17.02 A 1983.26,1983.26 0 0,1 19.83,20.14 L 19.87,20.13 C 21.27,19.13 22.79,18.43 24.44,17.99 C 24.51,17.97 24.52,17.94 24.47,17.89 L 23.26,16.63 A 0.1,0.1 0 0,1 23.23,16.56 V 16.34 C 23.23,16.27 23.29,16.2 23.37,16.2 H 26.22 A 0.1,0.1 0 0,0 26.3,16.17 L 27.65,14.57 A 0.36,0.36 0 0,1 27.91,14.47 A 0.36,0.36 0 0,1 28.17,14.57 L 29.65,16.17 A 0.1,0.1 0 0,0 29.72,16.2 H 32.56 C 32.74,16.2 32.85,16.43 32.72,16.56 L 31.37,17.87 C 31.34,17.9 31.34,17.92 31.38,17.93 C 33.13,18.36 34.72,19.09 36.16,20.11 C 36.19,20.13 36.21,20.13 36.23,20.11 L 40.38,15.69 C 40.74,15.31 41.2,14.89 41.75,14.43 A 9.46,9.46 0 0,1 43.45,13.29 C 43.75,13.14 44.04,13.04 44.31,13 C 44.39,13 44.45,13.02 44.49,13.08 C 44.65,13.3 44.39,13.91 44.26,14.12 C 44.03,14.54 43.76,14.93 43.47,15.31 A 45.4,45.4 0 0,1 41.83,17.3 L 41.85,17.31 Z M 12.24,14.39 H 12.67 A 0.02,0.02 0 0,0 12.69,14.38 A 0.02,0.02 0 0,0 12.69,14.36 L 11.79,13.38 C 11.75,13.34 11.74,13.35 11.75,13.4 A 2.91,2.91 0 0,0 12.21,14.38 H 12.24 Z M 43.81,14.37 C 43.99,14.1 44.19,13.75 44.25,13.43 C 44.26,13.36 44.25,13.35 44.2,13.4 L 43.3,14.37 V 14.38 A 0.01,0.01 0 0,0 43.32,14.38 L 43.77,14.39 C 43.78,14.39 43.8,14.39 43.81,14.37 Z M 12.84,14.15 A 0.03,0.03 0 0,0 12.89,14.13 L 12.96,13.83 A 0.03,0.03 0 0,0 12.95,13.79 L 12.23,13.41 H 12.2 A 0.03,0.03 0 0,0 12.2,13.45 L 12.84,14.15 Z M 43.77,13.42 A 4.93,4.93 0 0,0 43.04,13.84 L 43.12,14.16 H 43.13 L 43.79,13.46 C 43.83,13.41 43.83,13.4 43.77,13.42 Z M 13.45,14.81 H 13.46 A 0.03,0.03 0 0,0 13.5,14.8 L 13.61,14.27 A 0.03,0.03 0 0,0 13.6,14.25 L 13.23,13.98 A 0.03,0.03 0 0,0 13.21,13.98 A 0.03,0.03 0 0,0 13.19,14 L 13.09,14.4 V 14.42 L 13.1,14.43 L 13.45,14.81 Z M 42.4,14.25 A 0.03,0.03 0 0,0 42.39,14.28 L 42.51,14.79 V 14.81 A 0.03,0.03 0 0,0 42.56,14.81 L 42.9,14.43 A 0.03,0.03 0 0,0 42.9,14.4 L 42.81,14 A 0.03,0.03 0 0,0 42.77,13.98 H 42.76 L 42.4,14.25 Z M 13.7,15.07 A 0.03,0.03 0 0,0 13.7,15.09 L 14.05,15.47 H 14.08 A 0.03,0.03 0 0,0 14.1,15.46 L 14.25,14.78 A 0.03,0.03 0 0,0 14.24,14.75 L 13.88,14.45 A 0.03,0.03 0 0,0 13.85,14.45 A 0.03,0.03 0 0,0 13.83,14.47 L 13.7,15.07 Z M 41.9,15.46 A 0.03,0.03 0 0,0 41.92,15.48 A 0.03,0.03 0 0,0 41.95,15.47 L 42.29,15.09 A 0.03,0.03 0 0,0 42.3,15.06 L 42.16,14.46 A 0.03,0.03 0 0,0 42.13,14.45 H 42.12 L 41.76,14.75 L 41.75,14.77 V 14.78 L 41.9,15.46 Z M 12.66,15.04 A 0.03,0.03 0 0,0 12.68,15.05 H 13.26 L 13.27,15.03 V 15 L 12.95,14.66 A 0.03,0.03 0 0,0 12.93,14.65 H 12.41 A 0.03,0.03 0 0,0 12.41,14.69 L 12.66,15.04 Z M 42.72,15 L 42.71,15.01 A 0.03,0.03 0 0,0 42.72,15.04 H 43.33 L 43.34,15.03 L 43.6,14.68 V 14.66 A 0.03,0.03 0 0,0 43.59,14.64 H 43.08 A 0.03,0.03 0 0,0 43.06,14.64 L 42.72,15 Z M 14.31,15.71 V 15.73 L 14.65,16.11 A 0.03,0.03 0 0,0 14.7,16.11 L 14.88,15.33 A 0.03,0.03 0 0,0 14.87,15.3 L 14.51,14.97 A 0.03,0.03 0 0,0 14.47,14.99 L 14.31,15.71 Z M 30.71,18.17 A 0.43,0.43 0 0,1 30.83,17.74 C 31.23,17.36 31.6,17.04 31.96,16.66 C 31.99,16.63 31.99,16.61 31.94,16.61 C 31.24,16.61 30.51,16.61 29.76,16.63 C 29.56,16.63 29.45,16.62 29.31,16.47 C 28.84,15.98 28.38,15.44 27.92,14.97 L 27.91,14.96 A 0.03,0.03 0 0,0 27.87,14.96 C 27.38,15.48 27.03,16.07 26.56,16.56 C 26.46,16.66 26.35,16.66 26.21,16.66 L 23.97,16.65 C 23.93,16.65 23.92,16.66 23.95,16.69 C 24.38,17.12 24.68,17.47 25.12,17.92 C 25.3,18.1 25.16,18.26 24.96,18.31 A 13.48,13.48 0 0,0 20.14,20.49 L 20.47,20.83 H 20.49 A 12.99,12.99 0 0,1 26.2,18.57 L 25.26,17.68 C 24.9,17.34 24.96,17.18 25.46,17.18 H 26.54 A 0.1,0.1 0 0,0 26.61,17.14 L 27.71,15.88 A 0.24,0.24 0 0,1 27.99,15.82 L 28.07,15.88 L 29.15,17.11 A 0.1,0.1 0 0,0 29.22,17.14 L 30.55,17.18 C 30.58,17.18 30.61,17.19 30.63,17.21 C 30.65,17.24 30.66,17.26 30.66,17.3 V 17.5 A 0.1,0.1 0 0,1 30.63,17.58 L 29.63,18.53 C 29.61,18.55 29.62,18.56 29.65,18.57 A 13,13 0 0,1 35.53,20.83 L 35.55,20.82 L 35.87,20.47 V 20.45 A 13.62,13.62 0 0,0 30.73,18.21 A 0.1,0.1 0 0,1 30.71,18.17 Z M 41.29,16.1 A 0.03,0.03 0 0,0 41.33,16.12 H 41.34 L 41.69,15.73 V 15.71 L 41.53,14.99 A 0.03,0.03 0 0,0 41.49,14.97 V 15 L 41.13,15.32 A 0.03,0.03 0 0,0 41.12,15.35 L 41.29,16.12 Z M 12.92,15.3 A 0.03,0.03 0 0,0 12.9,15.34 L 13.19,15.69 V 15.7 H 13.87 L 13.88,15.68 V 15.65 L 13.55,15.3 A 0.03,0.03 0 0,0 13.52,15.29 H 12.92 Z M 42.12,15.66 A 0.03,0.03 0 0,0 42.11,15.69 A 0.03,0.03 0 0,0 42.13,15.7 H 42.81 V 15.69 L 43.09,15.34 A 0.03,0.03 0 0,0 43.09,15.31 L 43.07,15.3 L 42.47,15.28 L 42.46,15.29 L 42.11,15.66 Z M 14.9,16.38 A 0.02,0.02 0 0,0 14.91,16.4 L 15.26,16.78 A 0.03,0.03 0 0,0 15.3,16.78 V 16.76 L 15.5,15.93 A 0.03,0.03 0 0,0 15.49,15.91 L 15.13,15.56 A 0.03,0.03 0 0,0 15.09,15.56 L 14.9,16.38 Z M 40.69,16.76 V 16.78 A 0.03,0.03 0 0,0 40.75,16.78 L 41.08,16.39 A 0.03,0.03 0 0,0 41.09,16.36 L 40.91,15.56 H 40.9 A 0.03,0.03 0 0,0 40.85,15.56 L 40.51,15.91 A 0.03,0.03 0 0,0 40.51,15.94 L 40.69,16.76 Z M 13.74,16.36 H 14.47 A 0.03,0.03 0 0,0 14.49,16.33 L 14.48,16.32 L 14.15,15.96 L 14.13,15.95 H 13.45 L 13.44,15.96 L 13.43,15.97 V 16 L 13.73,16.36 Z M 41.51,16.32 V 16.33 A 0.03,0.03 0 0,0 41.53,16.36 L 42.23,16.37 H 42.25 V 16.36 L 42.56,16 A 0.03,0.03 0 0,0 42.54,15.96 H 41.85 L 41.51,16.32 Z M 16.09,16.58 V 16.55 L 15.76,16.18 H 15.74 A 0.03,0.03 0 0,0 15.7,16.2 L 15.5,17.03 V 17.05 L 15.52,17.06 L 15.85,17.43 A 0.03,0.03 0 0,0 15.89,17.43 A 0.03,0.03 0 0,0 15.91,17.41 L 16.09,16.58 Z M 40.09,17.43 H 40.1 L 40.12,17.45 H 40.13 L 40.14,17.44 L 40.48,17.06 V 17.03 L 40.3,16.19 V 16.18 A 0.03,0.03 0 0,0 40.27,16.18 H 40.25 L 39.91,16.56 A 0.03,0.03 0 0,0 39.91,16.58 L 40.1,17.43 Z M 26.91,17.49 A 0.33,0.33 0 0,1 26.66,17.6 H 25.9 C 25.85,17.6 25.84,17.62 25.88,17.65 L 26.78,18.49 A 0.1,0.1 0 0,0 26.86,18.52 C 27.55,18.46 28.24,18.45 28.96,18.5 A 0.1,0.1 0 0,0 29.04,18.47 L 29.9,17.65 C 29.93,17.62 29.92,17.61 29.88,17.61 L 29.08,17.58 A 0.3,0.3 0 0,1 28.88,17.48 L 27.93,16.4 A 0.05,0.05 0 0,0 27.89,16.38 A 0.05,0.05 0 0,0 27.85,16.4 L 26.91,17.49 Z M 15.07,17.03 H 15.09 A 0.03,0.03 0 0,0 15.09,17 V 16.98 L 14.75,16.61 A 0.03,0.03 0 0,0 14.73,16.61 L 14.03,16.62 H 14 L 13.99,16.64 A 0.03,0.03 0 0,0 13.99,16.67 L 14.29,17.01 A 0.03,0.03 0 0,0 14.31,17.02 H 15.06 Z M 40.91,16.98 V 17.01 A 0.03,0.03 0 0,0 40.93,17.03 H 41.68 L 41.69,17.02 L 42,16.66 A 0.03,0.03 0 0,0 42,16.64 V 16.63 H 41.98 L 41.27,16.61 A 0.03,0.03 0 0,0 41.25,16.61 L 40.91,16.98 Z M 16.71,17.24 A 0.03,0.03 0 0,0 16.7,17.21 L 16.36,16.84 A 0.03,0.03 0 0,0 16.33,16.84 H 16.32 L 16.31,16.85 L 16.11,17.7 A 0.03,0.03 0 0,0 16.11,17.72 L 16.47,18.09 A 0.03,0.03 0 0,0 16.5,18.1 L 16.52,18.08 L 16.7,17.24 Z M 39.48,18.09 L 39.49,18.1 H 39.53 L 39.87,17.71 V 17.69 L 39.69,16.86 V 16.84 A 0.03,0.03 0 0,0 39.66,16.84 H 39.65 L 39.3,17.2 V 17.22 L 39.48,18.09 Z M 14.58,17.29 A 0.03,0.03 0 0,0 14.56,17.3 A 0.03,0.03 0 0,0 14.56,17.33 L 14.86,17.68 H 15.68 L 15.7,17.67 V 17.64 L 15.35,17.27 H 15.33 L 14.58,17.28 Z M 40.68,17.26 A 0.03,0.03 0 0,0 40.65,17.27 L 40.3,17.64 V 17.68 H 41.13 A 0.03,0.03 0 0,0 41.14,17.68 L 41.44,17.33 L 41.46,17.31 V 17.3 L 41.44,17.29 H 41.43 L 40.68,17.26 Z M 17.31,17.89 A 0.03,0.03 0 0,0 17.31,17.86 L 16.96,17.48 H 16.94 A 0.03,0.03 0 0,0 16.92,17.48 L 16.91,17.49 L 16.71,18.35 A 0.03,0.03 0 0,0 16.73,18.38 L 17.07,18.75 L 17.08,18.76 A 0.03,0.03 0 0,0 17.11,18.76 V 18.74 L 17.31,17.89 Z M 38.89,18.74 V 18.76 A 0.03,0.03 0 0,0 38.92,18.76 H 38.94 L 39.27,18.37 A 0.03,0.03 0 0,0 39.27,18.35 L 39.09,17.5 V 17.49 L 39.07,17.48 H 39.05 L 38.69,17.85 A 0.03,0.03 0 0,0 38.69,17.88 L 38.89,18.74 Z M 16.27,18.34 L 16.28,18.33 A 0.03,0.03 0 0,0 16.3,18.3 L 16.29,18.29 L 15.95,17.92 A 0.03,0.03 0 0,0 15.93,17.92 L 15.14,17.94 A 0.03,0.03 0 0,0 15.12,17.96 A 0.03,0.03 0 0,0 15.12,17.99 L 15.45,18.34 A 0.03,0.03 0 0,0 15.47,18.35 L 16.27,18.33 Z M 40.07,17.91 L 40.05,17.92 L 39.71,18.28 V 18.3 A 0.03,0.03 0 0,0 39.73,18.33 L 40.53,18.35 H 40.55 L 40.87,17.99 A 0.03,0.03 0 0,0 40.87,17.96 A 0.03,0.03 0 0,0 40.85,17.94 L 40.07,17.91 Z M 17.32,19.01 V 19.04 L 17.67,19.41 A 0.03,0.03 0 0,0 17.72,19.39 L 17.92,18.53 A 0.03,0.03 0 0,0 17.91,18.5 L 17.57,18.13 H 17.53 L 17.52,18.15 L 17.32,19.01 Z M 38.28,19.4 A 0.03,0.03 0 0,0 38.3,19.42 A 0.03,0.03 0 0,0 38.33,19.42 L 38.67,19.02 V 19 L 38.48,18.15 V 18.13 A 0.03,0.03 0 0,0 38.44,18.13 L 38.09,18.5 V 18.52 L 38.29,19.4 Z M 15.73,18.6 H 15.71 A 0.03,0.03 0 0,0 15.7,18.63 V 18.65 L 16.04,19 A 0.03,0.03 0 0,0 16.06,19.01 L 16.86,19 H 16.88 A 0.03,0.03 0 0,0 16.88,18.95 L 16.56,18.59 V 18.58 H 16.54 L 15.73,18.6 Z M 39.47,18.58 H 39.45 L 39.1,18.95 A 0.03,0.03 0 0,0 39.1,18.99 H 39.12 L 39.94,19.01 H 39.95 L 39.96,19 L 40.28,18.65 V 18.63 A 0.03,0.03 0 0,0 40.28,18.61 H 40.26 L 39.46,18.58 Z M 17.93,19.67 V 19.69 L 18.28,20.07 A 0.03,0.03 0 0,0 18.32,20.07 L 18.52,19.17 V 19.15 L 18.17,18.77 L 18.15,18.76 H 18.13 V 18.78 L 17.93,19.67 Z M 37.68,20.05 V 20.06 L 37.7,20.07 A 0.03,0.03 0 0,0 37.73,20.07 L 38.06,19.69 A 0.03,0.03 0 0,0 38.07,19.66 L 37.87,18.79 V 18.78 A 0.03,0.03 0 0,0 37.82,18.78 L 37.48,19.14 V 19.17 L 37.68,20.05 Z M 40.54,31.25 C 40.54,27.98 39.22,24.84 36.87,22.52 A 12.61,12.61 0 0,0 19.16,22.52 A 12.26,12.26 0 0,0 19.16,39.99 A 12.61,12.61 0 0,0 36.86,39.99 A 12.26,12.26 0 0,0 40.54,31.26 Z M 37.45,22.18 A 3290.57,3290.57 0 0,1 40.32,18.93 H 40.3 A 1565.83,1565.83 0 0,1 37.2,22.17 A 0.08,0.08 0 0,0 37.2,22.23 L 37.23,22.26 C 37.31,22.31 37.37,22.38 37.43,22.46 C 37.44,22.5 37.46,22.49 37.47,22.46 A 0.24,0.24 0 0,0 37.45,22.26 C 37.43,22.23 37.43,22.2 37.45,22.18 Z M 17.48,19.65 A 0.03,0.03 0 0,0 17.5,19.63 A 0.03,0.03 0 0,0 17.5,19.6 L 17.16,19.24 A 0.03,0.03 0 0,0 17.14,19.24 L 16.32,19.26 H 16.31 A 0.03,0.03 0 0,0 16.29,19.3 L 16.3,19.31 L 16.63,19.67 A 0.03,0.03 0 0,0 16.65,19.67 L 17.48,19.65 Z M 38.86,19.24 A 0.03,0.03 0 0,0 38.84,19.24 L 38.5,19.6 V 19.62 A 0.03,0.03 0 0,0 38.52,19.65 L 39.35,19.67 A 0.03,0.03 0 0,0 39.37,19.67 L 39.69,19.31 V 19.29 A 0.03,0.03 0 0,0 39.69,19.27 H 39.67 L 38.87,19.24 Z M 19.13,19.81 A 0.03,0.03 0 0,0 19.13,19.79 L 18.78,19.42 L 18.77,19.41 A 0.03,0.03 0 0,0 18.74,19.41 V 19.43 L 18.53,20.33 V 20.35 L 18.88,20.73 A 0.03,0.03 0 0,0 18.91,20.73 A 0.03,0.03 0 0,0 18.93,20.72 L 19.13,19.81 Z M 37.07,20.72 L 37.08,20.73 L 37.1,20.74 A 0.03,0.03 0 0,0 37.13,20.74 L 37.46,20.35 V 20.33 L 37.26,19.43 L 37.25,19.41 H 37.23 L 37.22,19.42 L 36.87,19.79 V 19.82 L 37.07,20.72 Z M 18.07,20.31 A 0.03,0.03 0 0,0 18.1,20.29 V 20.26 L 17.77,19.9 H 17.75 L 16.91,19.92 L 16.9,19.93 L 16.89,19.94 A 0.03,0.03 0 0,0 16.89,19.97 L 17.21,20.33 A 0.03,0.03 0 0,0 17.23,20.33 L 18.08,20.31 Z M 38.25,19.9 H 38.23 L 37.9,20.27 A 0.03,0.03 0 0,0 37.9,20.29 A 0.03,0.03 0 0,0 37.92,20.31 L 38.77,20.34 H 38.78 V 20.33 L 39.11,19.97 A 0.03,0.03 0 0,0 39.11,19.93 H 39.09 L 38.25,19.9 Z M 36.47,21.38 A 0.03,0.03 0 0,0 36.51,21.4 V 21.39 L 36.86,21.01 V 21 L 36.66,20.08 A 0.03,0.03 0 0,0 36.64,20.06 H 36.62 L 36.27,20.44 V 20.46 L 36.47,21.39 Z M 19.74,20.46 A 0.03,0.03 0 0,0 19.73,20.44 L 19.39,20.06 A 0.03,0.03 0 0,0 19.36,20.06 A 0.03,0.03 0 0,0 19.34,20.08 L 19.14,20.98 A 0.03,0.03 0 0,0 19.14,21.01 L 19.48,21.39 A 0.03,0.03 0 0,0 19.51,21.39 A 0.03,0.03 0 0,0 19.53,21.38 L 19.73,20.46 Z M 17.49,20.58 H 17.48 A 0.03,0.03 0 0,0 17.48,20.63 L 17.8,20.99 H 17.82 L 18.69,20.97 H 18.7 A 0.03,0.03 0 0,0 18.7,20.92 L 18.37,20.56 H 18.35 L 17.49,20.58 Z M 38.53,20.63 A 0.03,0.03 0 0,0 38.51,20.58 L 37.65,20.56 H 37.63 L 37.29,20.92 A 0.03,0.03 0 0,0 37.29,20.95 A 0.03,0.03 0 0,0 37.31,20.97 L 38.18,20.99 H 38.2 L 38.53,20.63 Z M 20.23,21.02 L 20.25,21.01 V 20.98 L 19.99,20.71 H 19.97 A 0.03,0.03 0 0,0 19.95,20.72 L 19.81,21.28 A 0.03,0.03 0 0,0 19.83,21.31 H 19.86 L 20.24,21.01 Z M 36.06,20.72 H 36.05 L 36.04,20.7 A 0.03,0.03 0 0,0 36.01,20.71 L 35.77,20.96 A 0.03,0.03 0 0,0 35.77,20.98 A 0.03,0.03 0 0,0 35.77,21 L 36.14,21.29 A 0.03,0.03 0 0,0 36.17,21.29 A 0.03,0.03 0 0,0 36.17,21.26 L 36.06,20.72 Z M 15.71,21 L 17.81,23.26 C 17.83,23.29 17.85,23.29 17.88,23.26 L 17.9,23.25 C 17.92,23.23 17.92,23.21 17.9,23.18 A 1587.18,1587.18 0 0,1 15.71,21 Z M 38.21,23.24 C 38.86,22.56 39.5,21.86 40.15,21.14 V 21.12 H 40.13 A 360.99,360.99 0 0,1 38.1,23.19 C 38.08,23.26 38.16,23.29 38.2,23.24 Z M 19.29,21.63 A 0.03,0.03 0 0,0 19.32,21.6 V 21.58 L 18.98,21.23 A 0.03,0.03 0 0,0 18.96,21.23 H 18.08 A 0.03,0.03 0 0,0 18.05,21.24 V 21.27 L 18.38,21.64 A 0.03,0.03 0 0,0 18.4,21.65 L 19.3,21.63 Z M 37.04,21.23 A 0.03,0.03 0 0,0 37.02,21.23 L 36.68,21.58 A 0.03,0.03 0 0,0 36.68,21.61 A 0.03,0.03 0 0,0 36.7,21.63 L 37.6,21.65 A 0.03,0.03 0 0,0 37.61,21.65 L 37.95,21.27 V 21.24 A 0.03,0.03 0 0,0 37.93,21.23 H 37.04 Z M 38.89,24.1 A 799.52,799.52 0 0,0 41.31,21.52 H 41.29 A 173.27,173.27 0 0,1 38.73,24.05 A 0.05,0.05 0 0,0 38.75,24.09 L 38.77,24.11 A 0.09,0.09 0 0,0 38.89,24.1 Z M 17.29,23.97 L 17.27,23.99 A 0.04,0.04 0 0,1 17.24,24 H 17.22 A 210.06,210.06 0 0,0 14.75,21.6 V 21.62 A 690.78,690.78 0 0,1 17.15,24.12 A 0.1,0.1 0 0,0 17.2,24.12 A 0.1,0.1 0 0,0 17.25,24.09 A 0.1,0.1 0 0,0 17.28,24.04 C 17.28,24.02 17.3,23.99 17.32,23.98 A 0.12,0.12 0 0,0 17.36,23.94 A 0.06,0.06 0 0,0 17.36,23.88 C 17.36,23.86 17.34,23.85 17.31,23.86 L 17.28,23.87 A 0.05,0.05 0 0,0 17.26,23.92 L 17.27,23.94 C 17.28,23.94 17.29,23.96 17.28,23.97 Z M 18.67,21.9 A 0.03,0.03 0 0,0 18.65,21.94 V 21.95 L 18.84,22.16 L 18.86,22.17 A 0.03,0.03 0 0,0 18.88,22.17 L 19.14,21.93 A 0.03,0.03 0 0,0 19.14,21.88 H 19.12 L 18.67,21.9 Z M 37.34,21.96 A 0.03,0.03 0 0,0 37.34,21.91 H 37.31 L 36.91,21.88 A 0.03,0.03 0 0,0 36.88,21.9 A 0.03,0.03 0 0,0 36.88,21.93 L 37.12,22.14 H 37.17 L 37.34,21.96 Z M 40.95,23.29 A 150.22,150.22 0 0,0 39.32,24.94 H 39.35 L 40.95,23.33 V 23.29 A 12.38,12.38 0 0,0 41.53,22.73 H 41.51 C 41.31,22.9 41.12,23.09 40.95,23.29 Z M 14.59,22.81 H 14.57 V 22.83 L 16.67,24.96 H 16.68 L 16.69,24.97 H 16.7 V 24.95 L 14.59,22.81 Z M 15.03,24.71 A 0.02,0.02 0 0,0 15,24.71 A 0.02,0.02 0 0,0 15,24.74 L 16.17,25.94 A 0.02,0.02 0 0,0 16.21,25.92 V 25.91 L 15.03,24.71 Z M 40.97,24.76 V 24.75 A 0.02,0.02 0 0,0 40.97,24.73 H 40.94 L 39.8,25.91 A 0.02,0.02 0 0,0 39.8,25.92 V 25.94 H 39.83 L 40.97,24.76 Z M 40.21,26.89 V 26.91 A 0.02,0.02 0 0,0 40.21,26.92 L 40.23,26.93 H 40.24 C 41.27,25.9 41.23,25.87 40.21,26.89 Z M 15.06,26.16 H 15.05 A 0.03,0.03 0 0,0 15.03,26.16 A 0.03,0.03 0 0,0 15.02,26.18 A 0.03,0.03 0 0,0 15.02,26.2 L 15.75,26.93 H 15.76 L 15.77,26.94 H 15.79 A 0.03,0.03 0 0,0 15.8,26.91 V 26.9 L 15.06,26.16 Z M 15.96,37.2 A 13.46,13.46 0 0,0 26.14,44.42 C 28.54,44.75 30.84,44.47 33.04,43.59 C 35.04,42.79 36.74,41.6 38.14,40.03 A 13.07,13.07 0 0,0 41.2,28.6 A 0.04,0.04 0 0,0 41.16,28.61 L 40.84,28.96 A 0.17,0.17 0 0,0 40.8,29.1 C 41.15,31.22 41,33.25 40.36,35.2 A 12.95,12.95 0 0,1 27.81,44.06 A 12.9,12.9 0 0,1 20.73,41.86 A 12.71,12.71 0 0,1 15.23,29.12 C 15.23,29.08 15.23,29.04 15.19,29.01 L 14.85,28.62 C 14.82,28.58 14.8,28.59 14.79,28.64 A 13.06,13.06 0 0,0 15.96,37.21 Z" fill="rgb(28, 60, 122)"/>
<path d="M 27.86,17.745 H 27.85 C 27.84,17.76 27.83,17.76 27.83,17.78 C 27.83,17.9 27.86,18.03 27.77,18.13 C 27.61,18.32 27.42,18.37 27.2,18.28 C 26.76,18.09 26.93,17.39 27.42,17.44 C 27.45,17.44 27.47,17.43 27.46,17.39 A 0.44,0.44 0 0,1 28.02,16.89 C 28.27,16.97 28.38,17.14 28.35,17.39 C 28.35,17.42 28.37,17.44 28.39,17.44 C 28.91,17.46 28.93,18.24 28.42,18.31 C 28.06,18.37 27.87,18.09 27.87,17.76 Z M 28.11,17.33 A 0.2,0.2 0 0,0 28.05,17.19 A 0.2,0.2 0 0,0 27.77,17.19 A 0.2,0.2 0 0,0 27.77,17.46 A 0.2,0.2 0 0,0 28.05,17.46 A 0.2,0.2 0 0,0 28.11,17.33 Z M 27.6,17.87 A 0.2,0.2 0 0,0 27.54,17.74 A 0.2,0.2 0 0,0 27.26,17.74 A 0.2,0.2 0 0,0 27.26,18.01 A 0.2,0.2 0 0,0 27.54,18.01 A 0.2,0.2 0 0,0 27.6,17.87 Z M 28.54,17.87 A 0.2,0.2 0 0,0 28.48,17.73 A 0.2,0.2 0 0,0 28.2,17.73 A 0.2,0.2 0 0,0 28.2,18.01 A 0.2,0.2 0 0,0 28.54,17.87 Z M 27.66,20.28 V 20.69 C 27.66,20.72 27.66,20.74 27.69,20.75 L 27.77,20.79 C 27.89,20.85 27.87,20.89 27.74,20.89 H 27.22 C 27.12,20.89 27.12,20.85 27.2,20.79 A 0.37,0.37 0 0,1 27.26,20.77 C 27.29,20.76 27.31,20.74 27.31,20.7 V 19.68 C 27.31,19.65 27.31,19.62 27.28,19.6 A 0.12,0.12 0 0,0 27.22,19.56 A 0.14,0.14 0 0,1 27.15,19.53 C 27.11,19.5 27.11,19.48 27.18,19.47 L 27.75,19.44 A 0.05,0.05 0 0,1 27.8,19.49 V 19.51 C 27.8,19.54 27.79,19.55 27.76,19.56 H 27.7 C 27.66,19.57 27.64,19.59 27.64,19.64 V 19.94 C 27.64,20.08 27.68,20.11 27.79,20 C 27.89,19.9 27.99,19.77 28.09,19.63 C 28.12,19.6 28.11,19.57 28.09,19.55 A 0.1,0.1 0 0,1 28.05,19.51 C 28.03,19.47 28.05,19.44 28.1,19.44 A 4.16,4.16 0 0,0 28.6,19.44 L 28.62,19.48 C 28.62,19.51 28.61,19.53 28.58,19.53 C 28.37,19.58 28.18,19.73 28.03,19.97 A 0.07,0.07 0 0,0 28.03,20.06 C 28.18,20.27 28.39,20.68 28.66,20.78 C 28.68,20.78 28.7,20.8 28.71,20.83 V 20.86 L 28.68,20.87 H 28.04 C 27.98,20.87 27.98,20.86 28.02,20.82 A 0.16,0.16 0 0,0 28.07,20.77 A 0.07,0.07 0 0,0 28.07,20.69 L 27.76,20.25 C 27.69,20.16 27.66,20.17 27.66,20.28 Z M 33.5,21.33 L 32.76,21.92 C 32.65,22.02 32.6,21.99 32.61,21.84 L 32.65,20.98 C 32.65,20.86 32.63,20.86 32.57,20.96 L 32.27,21.55 C 32.25,21.58 32.26,21.6 32.28,21.62 L 32.35,21.67 C 32.41,21.78 32.38,21.81 32.27,21.75 A 8.34,8.34 0 0,0 31.91,21.58 C 31.88,21.58 31.87,21.56 31.88,21.53 C 31.88,21.5 31.9,21.49 31.93,21.49 H 32.02 C 32.05,21.49 32.08,21.48 32.1,21.45 C 32.26,21.2 32.42,20.93 32.58,20.63 C 32.64,20.53 32.63,20.45 32.54,20.39 C 32.52,20.38 32.51,20.36 32.53,20.33 L 32.54,20.3 H 32.58 L 32.95,20.48 C 32.98,20.49 33,20.51 32.99,20.55 C 32.95,20.85 32.94,21.17 32.96,21.5 C 32.96,21.54 32.97,21.54 33,21.52 C 33.27,21.32 33.52,21.12 33.75,20.92 A 0.05,0.05 0 0,1 33.81,20.9 L 34.19,21.09 L 34.21,21.11 V 21.17 C 34.2,21.19 34.18,21.19 34.16,21.19 C 34.07,21.15 33.98,21.16 33.93,21.25 C 33.77,21.56 33.63,21.86 33.5,22.15 V 22.23 L 33.55,22.28 C 33.64,22.4 33.61,22.42 33.48,22.36 L 32.99,22.12 C 32.98,22.11 32.97,22.1 32.98,22.08 L 32.99,22.05 A 0.05,0.05 0 0,1 33.05,22.03 L 33.12,22.05 A 0.07,0.07 0 0,0 33.2,22.01 L 33.53,21.35 C 33.56,21.29 33.55,21.28 33.5,21.33 Z M 23.26,20.8 C 22.9,20.46 22.45,20.88 22.56,21.28 C 22.63,21.59 22.93,21.99 23.3,21.87 C 23.49,21.81 23.6,21.67 23.61,21.44 C 23.62,21.29 23.66,21.28 23.73,21.42 C 23.77,21.48 23.79,21.56 23.79,21.63 C 23.79,21.67 23.78,21.69 23.75,21.72 C 23.39,22.08 22.73,22.28 22.38,21.79 C 22.07,21.35 22.26,20.84 22.73,20.62 C 22.85,20.56 22.98,20.52 23.13,20.47 C 23.15,20.47 23.18,20.47 23.19,20.5 L 23.33,20.71 C 23.35,20.73 23.35,20.75 23.34,20.78 L 23.33,20.81 C 23.31,20.83 23.28,20.83 23.26,20.81 Z" fill="rgb(28, 60, 122)"/>
<path d="M 38.190000000000005,31.255 A 9.97,9.97 0 0,1 35.21,38.37 A 10.25,10.25 0 0,1 20.81,38.37 A 9.97,9.97 0 0,1 20.81,24.17 A 10.25,10.25 0 0,1 35.21,24.17 A 9.97,9.97 0 0,1 38.19,31.27 Z M 25.58,24.21 A 0.13,0.13 0 0,1 25.46,24.03 A 0.13,0.13 0 0,1 25.52,23.97 C 25.84,23.77 26.08,23.54 26.35,23.29 C 27.05,22.65 27.98,22.37 28.93,22.41 C 29.2,22.43 29.38,22.62 29.63,22.67 C 29.81,22.7 30.1,22.74 30.51,22.77 C 30.89,22.8 31.09,23 31.13,23.37 C 31.14,23.5 31.16,23.69 31.11,23.82 A 0.12,0.12 0 0,1 31.01,23.9 A 0.13,0.13 0 0,1 30.89,23.85 C 30.62,23.45 30.18,23.65 29.8,23.68 A 0.2,0.2 0 0,0 29.63,23.78 L 29.56,23.9 C 29.52,23.97 29.54,24 29.63,24 C 29.99,23.94 30.36,23.78 30.69,23.98 A 0.07,0.07 0 0,1 30.72,24.06 C 30.72,24.1 30.7,24.13 30.67,24.16 A 0.11,0.11 0 0,1 30.6,24.2 C 30.03,24.25 29.77,24.74 29.21,24.76 C 29.18,24.76 29.16,24.77 29.15,24.8 C 28.78,26.2 29.2,28 30.42,28.91 C 30.45,28.93 30.48,28.94 30.51,28.93 A 2.53,2.53 0 0,0 32.24,28.09 C 32.54,27.71 32.68,27.21 32.74,26.71 C 32.86,25.58 32.81,24.39 33.56,23.44 A 0.03,0.03 0 0,0 33.56,23.41 V 23.39 A 9.82,9.82 0 0,0 22.54,23.34 C 22.51,23.36 22.51,23.39 22.54,23.41 C 23.88,24.47 23.42,25.99 22.71,27.24 A 0.6,0.6 0 0,0 22.64,27.56 C 22.66,28.14 23.14,28.65 23.64,28.9 C 24.14,29.13 24.66,29.02 24.76,28.43 L 24.81,28.16 C 25.01,27.31 25.23,26.49 25.47,25.69 C 25.62,25.2 25.8,24.73 26.01,24.29 C 26.03,24.25 26.02,24.23 25.98,24.23 L 25.58,24.21 Z M 25.6,39.23 A 0.14,0.14 0 0,1 25.7,39.31 A 0.14,0.14 0 0,1 25.7,39.44 L 25.51,39.74 C 25.49,39.78 25.51,39.8 25.54,39.78 A 0.7,0.7 0 0,1 25.8,39.74 C 25.84,39.74 25.87,39.76 25.9,39.78 C 26.1,39.93 26.3,40.01 26.55,40.01 V 40 L 26.54,39.97 A 0.11,0.11 0 0,1 26.52,39.9 C 26.56,39.6 26.43,39.4 26.15,39.3 A 0.2,0.2 0 0,1 26.02,39.13 C 25.92,38.28 26.02,37.59 26.46,36.85 A 3.6,3.6 0 0,0 26.88,34.79 A 0.45,0.45 0 0,0 26.78,34.54 C 26.71,34.44 26.63,34.36 26.55,34.3 C 26.15,33.99 25.85,33.64 25.65,33.27 C 25.47,32.93 25.98,32.77 26.15,33.12 A 0.14,0.14 0 0,0 26.28,33.2 A 0.14,0.14 0 0,0 26.4,33.1 A 0.51,0.51 0 0,0 26.4,32.86 A 0.09,0.09 0 0,0 26.34,32.79 C 26.19,32.73 26.06,32.58 26.21,32.42 C 26.25,32.39 26.25,32.35 26.21,32.32 A 0.71,0.71 0 0,1 26.01,32.02 C 25.95,31.87 26.01,31.8 26.14,31.8 L 26.39,31.79 C 26.41,31.79 26.43,31.78 26.45,31.75 C 26.51,31.65 26.62,31.61 26.77,31.65 C 26.87,31.68 26.88,31.65 26.8,31.59 A 2.99,2.99 0 0,1 26.04,30.52 A 0.48,0.48 0 0,1 26,30.22 A 0.11,0.11 0 0,1 26.07,30.13 A 0.5,0.5 0 0,1 26.39,30.11 C 26.42,30.11 26.44,30.11 26.45,30.08 A 0.54,0.54 0 0,1 26.87,29.7 C 26.93,29.69 26.93,29.66 26.88,29.63 A 3.57,3.57 0 0,1 25.46,28.04 L 25.77,27.41 H 25.79 L 26.16,27.96 C 26.18,27.99 26.2,27.99 26.22,27.96 L 26.57,27.48 A 0.03,0.03 0 0,1 26.62,27.48 L 26.89,28.02 C 26.91,28.06 26.94,28.06 26.96,28.02 L 27.26,27.57 C 27.29,27.53 27.32,27.53 27.34,27.57 L 27.69,28.03 C 27.71,28.05 27.72,28.05 27.74,28.03 L 28.08,27.67 C 28.12,27.63 28.15,27.63 28.18,27.67 L 28.4,28.02 C 28.43,28.06 28.44,28.06 28.45,28.01 C 28.51,27.55 28.78,27.63 29.13,27.69 C 29.16,27.69 29.17,27.68 29.16,27.65 A 4.45,4.45 0 0,1 28.94,24.64 A 0.18,0.18 0 0,1 29.02,24.54 A 0.19,0.19 0 0,1 29.14,24.51 C 29.39,24.54 29.61,24.39 29.81,24.25 C 29.85,24.22 29.84,24.21 29.79,24.21 C 29.59,24.23 29.36,24.26 29.29,24.01 C 29.24,23.83 29.46,23.59 29.57,23.48 A 0.11,0.11 0 0,1 29.65,23.44 C 29.9,23.43 30.12,23.41 30.34,23.37 C 30.51,23.34 30.69,23.37 30.86,23.47 C 30.89,23.48 30.9,23.47 30.9,23.44 C 30.85,23.15 30.69,23.01 30.4,22.99 C 30.1,22.98 29.83,22.95 29.59,22.9 C 29.29,22.85 29.11,22.64 28.79,22.64 C 28.17,22.64 27.59,22.78 27.03,23.08 C 26.63,23.3 26.33,23.65 25.99,23.94 C 25.94,23.98 25.95,23.99 26.01,23.98 A 0.72,0.72 0 0,0 26.22,23.92 C 26.3,23.88 26.37,23.9 26.41,23.98 V 24.06 C 25.74,25.28 25.39,26.8 25.05,28.21 C 24.95,28.61 24.95,28.93 24.55,29.15 C 24.32,29.27 24.05,29.28 23.71,29.17 C 23.02,28.94 22.41,28.29 22.39,27.54 C 22.39,27.39 22.43,27.24 22.51,27.08 C 23.14,25.91 23.64,24.54 22.33,23.55 C 22.3,23.53 22.27,23.53 22.24,23.55 A 9.35,9.35 0 0,0 20.73,24.94 V 24.95 L 20.75,24.97 C 21.12,25.19 21.18,25.6 20.89,25.92 C 20.87,25.95 20.87,25.98 20.9,26.01 C 21.3,26.31 21.3,26.67 20.92,27.08 A 0.05,0.05 0 0,0 20.92,27.12 A 0.05,0.05 0 0,0 20.92,27.16 C 21.18,27.36 21.23,27.61 21.09,27.9 C 21.07,27.94 21.08,27.97 21.12,28 C 21.39,28.15 21.51,28.38 21.47,28.7 C 21.47,28.72 21.47,28.74 21.51,28.74 C 21.86,28.77 22.07,28.96 22.16,29.3 C 22.16,29.33 22.19,29.35 22.22,29.34 C 22.58,29.26 22.83,29.38 22.98,29.69 A 0.05,0.05 0 0,0 23.01,29.71 A 0.05,0.05 0 0,0 23.05,29.71 C 23.42,29.53 23.71,29.59 23.92,29.89 C 23.93,29.91 23.96,29.92 23.98,29.91 C 24.15,29.84 24.3,29.89 24.45,30.04 A 0.02,0.02 0 0,0 24.47,30.04 C 24.53,29.87 24.59,29.77 24.66,29.76 A 0.15,0.15 0 0,1 24.84,29.88 V 29.96 C 24.63,30.46 24.57,30.97 24.65,31.51 C 24.8,32.39 25.16,33.19 25.62,33.94 A 0.27,0.27 0 0,1 25.59,34.26 A 3.8,3.8 0 0,0 24.61,36.66 C 24.61,36.68 24.62,36.71 24.65,36.73 L 24.93,36.98 A 0.23,0.23 0 0,1 24.99,37.24 A 0.23,0.23 0 0,1 24.94,37.31 L 24.78,37.47 C 24.76,37.49 24.76,37.52 24.78,37.55 L 25.61,38.79 C 25.67,38.87 25.66,38.96 25.61,39.07 A 0.07,0.07 0 0,1 25.54,39.11 C 25.3,39.11 25.07,39.15 24.87,39.23 C 24.64,39.32 24.51,39.04 24.27,39.2 A 0.68,0.68 0 0,1 23.91,39.3 A 0.2,0.2 0 0,0 23.71,39.43 C 23.69,39.48 23.71,39.49 23.75,39.46 A 0.5,0.5 0 0,1 24.22,39.43 C 24.27,39.45 24.31,39.51 24.35,39.53 C 24.39,39.53 24.43,39.53 24.47,39.51 C 24.67,39.42 24.79,39.32 25.05,39.37 C 25.12,39.39 25.2,39.37 25.28,39.35 C 25.31,39.35 25.33,39.33 25.36,39.32 C 25.45,39.25 25.53,39.22 25.6,39.23 Z M 31.45,30.27 A 0.15,0.15 0 0,1 31.47,30.13 C 31.61,29.91 31.78,29.83 31.97,29.91 C 32.01,29.92 32.03,29.91 32.05,29.89 C 32.27,29.59 32.56,29.53 32.93,29.71 C 32.96,29.73 32.98,29.71 33,29.69 C 33.13,29.38 33.38,29.26 33.76,29.34 C 33.79,29.34 33.81,29.34 33.82,29.31 C 33.89,28.97 34.1,28.78 34.46,28.74 C 34.49,28.74 34.5,28.72 34.5,28.7 A 0.68,0.68 0 0,1 34.9,27.98 C 34.92,27.97 34.92,27.94 34.9,27.92 C 34.73,27.63 34.81,27.37 35.04,27.14 C 35.07,27.12 35.07,27.1 35.04,27.07 C 34.68,26.67 34.69,26.31 35.08,26 C 35.11,25.98 35.11,25.96 35.09,25.93 C 34.79,25.53 34.84,25.21 35.25,24.94 L 35.27,24.93 V 24.91 A 0.04,0.04 0 0,0 35.27,24.88 C 34.84,24.41 34.37,23.98 33.83,23.58 C 33.8,23.56 33.77,23.56 33.75,23.59 A 3,3 0 0,0 33.13,25.19 L 32.96,26.86 C 32.92,27.16 32.84,27.46 32.72,27.76 C 32.37,28.61 31.56,29.03 30.65,29.16 C 30.58,29.16 30.55,29.2 30.54,29.27 L 30.53,29.44 C 30.53,29.49 30.55,29.52 30.6,29.51 C 30.99,29.49 31.07,29.89 31.01,30.17 C 31.01,30.2 31.01,30.23 31.03,30.25 C 31.11,30.38 31.23,30.43 31.38,30.4 A 0.1,0.1 0 0,0 31.45,30.35 A 0.1,0.1 0 0,0 31.45,30.27 Z M 35.45,31.86 C 35.93,31.86 36.17,31.62 36.18,31.14 C 36.18,31.1 36.2,31.09 36.23,31.09 C 36.67,31.09 36.91,30.87 36.93,30.45 C 36.93,30.35 36.9,30.25 36.91,30.13 C 36.91,30.1 36.92,30.08 36.95,30.07 C 37.33,29.87 37.55,29.59 37.62,29.21 C 37.66,28.94 37.62,28.62 37.49,28.26 A 7.62,7.62 0 0,0 35.49,25.06 A 0.06,0.06 0 0,0 35.42,25.06 C 34.93,25.29 35.02,25.62 35.33,25.96 C 35.38,26 35.37,26.03 35.32,26.06 C 34.8,26.34 34.88,26.74 35.29,27.06 C 35.34,27.1 35.34,27.14 35.29,27.18 C 34.94,27.41 34.89,27.68 35.15,27.96 L 35.16,27.99 A 0.06,0.06 0 0,1 35.12,28.07 C 34.73,28.2 34.59,28.45 34.69,28.83 C 34.71,28.87 34.69,28.89 34.64,28.89 C 34.21,28.89 33.98,29.09 33.97,29.49 C 33.97,29.54 33.94,29.56 33.89,29.54 C 33.45,29.4 33.19,29.52 33.11,29.91 L 33.1,29.94 A 0.06,0.06 0 0,1 33.02,29.95 C 32.59,29.67 32.29,29.74 32.11,30.15 A 0.04,0.04 0 0,1 32.04,30.17 C 31.82,29.92 31.67,30.17 31.54,30.31 V 30.33 L 31.56,30.36 A 0.85,0.85 0 0,0 31.77,30.23 A 0.11,0.11 0 0,1 31.87,30.2 C 31.9,30.2 31.92,30.21 31.95,30.24 C 31.97,30.26 31.99,30.27 32.02,30.27 H 32.1 A 0.19,0.19 0 0,0 32.23,30.17 C 32.39,29.77 32.73,29.87 32.99,30.07 C 33.02,30.09 33.06,30.09 33.09,30.07 A 0.3,0.3 0 0,0 33.25,29.82 L 33.28,29.73 C 33.53,29.41 33.83,29.78 34.03,29.6 A 0.16,0.16 0 0,0 34.08,29.47 C 34.08,29.08 34.34,29.03 34.66,29 A 0.17,0.17 0 0,0 34.78,28.92 A 0.17,0.17 0 0,0 34.8,28.77 C 34.7,28.46 34.88,28.25 35.18,28.16 A 0.14,0.14 0 0,0 35.28,28.06 A 0.14,0.14 0 0,0 35.25,27.93 C 35.01,27.65 35.06,27.47 35.35,27.27 A 0.18,0.18 0 0,0 35.35,26.97 C 34.99,26.69 34.95,26.36 35.4,26.13 A 0.15,0.15 0 0,0 35.48,26.03 A 0.15,0.15 0 0,0 35.44,25.9 L 35.28,25.72 C 35.15,25.59 35.15,25.45 35.26,25.31 L 35.31,25.25 C 35.41,25.12 35.51,25.12 35.61,25.25 A 9.1,9.1 0 0,1 37.42,28.78 C 37.58,29.38 37.38,29.78 36.84,29.98 A 0.17,0.17 0 0,0 36.75,30.06 A 0.16,0.16 0 0,0 36.75,30.18 C 36.91,30.68 36.75,30.92 36.23,30.92 A 0.18,0.18 0 0,0 36.1,30.97 A 0.17,0.17 0 0,0 36.05,31.1 C 36.06,31.62 35.92,31.68 35.45,31.76 C 35.4,31.76 35.35,31.79 35.32,31.83 A 0.2,0.2 0 0,0 35.27,31.96 C 35.27,32.33 35.09,32.59 34.69,32.56 A 0.35,0.35 0 0,0 34.46,32.62 A 0.2,0.2 0 0,0 34.39,32.71 C 34.23,33.1 33.89,33.26 33.38,33.18 A 0.26,0.26 0 0,0 33.12,33.3 C 32.89,33.69 32.44,33.55 32.11,33.4 A 0.22,0.22 0 0,0 31.84,33.45 C 31.59,33.76 31.25,33.66 31,33.44 A 0.12,0.12 0 0,0 30.87,33.41 C 30.79,33.45 30.75,33.48 30.77,33.51 C 30.78,33.54 30.8,33.54 30.81,33.51 C 30.81,33.5 30.83,33.48 30.85,33.48 L 30.89,33.49 C 31.21,33.81 31.54,33.84 31.89,33.57 A 0.1,0.1 0 0,1 31.97,33.55 C 32.42,33.66 33.01,33.75 33.27,33.31 C 33.29,33.27 33.32,33.26 33.36,33.27 C 33.98,33.41 34.27,33.29 34.5,32.71 C 34.5,32.68 34.53,32.67 34.56,32.67 C 35.11,32.73 35.38,32.41 35.39,31.91 C 35.39,31.88 35.41,31.86 35.45,31.86 Z M 20.82,27.98 L 20.92,27.77 A 0.21,0.21 0 0,0 20.92,27.59 L 20.69,27.07 C 20.67,27.04 20.68,27.01 20.7,26.99 L 21,26.74 A 0.07,0.07 0 0,0 21.03,26.68 L 20.98,26.38 A 0.16,0.16 0 0,0 20.92,26.28 A 1.47,1.47 0 0,1 20.74,26.1 A 0.23,0.23 0 0,1 20.76,25.78 C 20.93,25.64 20.94,25.46 20.79,25.25 C 20.71,25.13 20.59,25.13 20.46,25.07 C 20.43,25.05 20.4,25.06 20.38,25.09 C 19.84,25.83 19.34,26.63 18.88,27.49 A 2.8,2.8 0 0,0 18.67,28 L 18.51,28.52 C 18.46,28.68 18.44,28.85 18.44,29.02 V 29.52 L 18.48,29.6 C 18.69,29.8 18.93,29.97 19.18,30.1 C 19.23,30.13 19.24,30.12 19.23,30.07 C 19.22,30.01 19.18,29.97 19.11,29.95 C 18.54,29.8 18.43,29.3 18.58,28.79 A 9.7,9.7 0 0,1 20.4,25.25 C 20.5,25.14 20.59,25.15 20.67,25.25 L 20.71,25.31 C 20.81,25.43 20.81,25.56 20.72,25.68 L 20.56,25.88 A 0.17,0.17 0 0,0 20.51,26.03 A 0.17,0.17 0 0,0 20.61,26.15 C 20.88,26.28 21.02,26.53 20.81,26.79 L 20.61,27.01 A 0.16,0.16 0 0,0 20.55,27.13 A 0.15,0.15 0 0,0 20.62,27.24 C 20.72,27.33 20.86,27.44 20.88,27.59 C 20.9,27.71 20.8,27.82 20.73,27.92 A 0.16,0.16 0 0,0 20.82,28.17 C 21.13,28.26 21.25,28.47 21.18,28.77 A 0.18,0.18 0 0,0 21.33,29 C 21.81,29.06 21.8,29.1 21.92,29.54 A 0.15,0.15 0 0,0 21.99,29.64 A 0.16,0.16 0 0,0 22.12,29.64 A 0.96,0.96 0 0,1 22.5,29.6 C 22.52,29.6 22.53,29.59 22.53,29.57 V 29.55 L 22,29.53 C 21.97,29.53 21.95,29.51 21.95,29.48 L 21.9,29.15 A 0.13,0.13 0 0,0 21.8,29.05 L 21.34,28.91 A 0.1,0.1 0 0,1 21.29,28.87 A 0.09,0.09 0 0,1 21.27,28.81 C 21.31,28.45 21.17,28.21 20.87,28.09 C 20.81,28.07 20.8,28.04 20.82,27.99 Z M 29.29,27.83 V 27.85 A 3.75,3.75 0 0,0 30.37,29.14 C 30.44,29.17 30.49,29.17 30.53,29.14 A 0.05,0.05 0 0,0 30.54,29.09 V 29.07 L 30.52,29.06 A 3,3 0 0,1 29.31,27.84 H 29.29 Z M 37.59,29.8 C 37.49,29.95 37.29,30.13 37.09,30.17 C 37.07,30.17 37.06,30.19 37.05,30.22 C 37.05,30.34 37.09,30.41 37.21,30.42 L 37.65,30.52 C 37.7,30.53 37.72,30.52 37.71,30.47 L 37.63,29.81 C 37.63,29.76 37.61,29.76 37.58,29.8 Z M 22.79,29.88 A 0.06,0.06 0 0,0 22.76,29.85 C 22.73,29.84 22.72,29.85 22.73,29.88 A 0.5,0.5 0 0,0 22.87,30.06 C 22.89,30.09 22.92,30.09 22.95,30.07 C 23.11,29.98 23.38,29.82 23.55,29.93 C 23.59,29.95 23.6,29.95 23.57,29.91 C 23.52,29.84 23.46,29.79 23.36,29.81 C 23.19,29.87 23.03,29.91 22.87,29.91 A 0.07,0.07 0 0,1 22.79,29.88 Z M 18.89,30.18 C 18.69,30.08 18.58,30.03 18.41,29.84 H 18.39 L 18.31,30.48 A 0.03,0.03 0 0,0 18.32,30.51 A 0.03,0.03 0 0,0 18.35,30.52 L 18.84,30.42 C 18.87,30.41 18.89,30.39 18.9,30.36 L 18.93,30.24 C 18.93,30.21 18.93,30.19 18.9,30.18 Z M 24.43,30.25 A 0.05,0.05 0 0,0 24.42,30.18 H 24.39 L 23.74,30.05 C 23.71,30.05 23.7,30.06 23.71,30.09 C 23.74,30.19 23.81,30.25 23.91,30.28 C 23.95,30.28 23.97,30.28 23.99,30.26 A 0.18,0.18 0 0,1 24.13,30.19 C 24.17,30.19 24.19,30.2 24.22,30.23 L 24.31,30.31 A 0.05,0.05 0 0,0 24.35,30.33 A 0.05,0.05 0 0,0 24.39,30.3 L 24.43,30.25 Z M 24.48,30.36 A 0.17,0.17 0 0,0 24.38,30.5 C 24.3,31.05 24.34,31.59 24.48,32.11 C 24.61,32.54 24.77,32.94 24.96,33.33 A 0.1,0.1 0 0,0 25.06,33.39 H 25.09 C 25.13,33.39 25.14,33.36 25.12,33.32 A 5.1,5.1 0 0,1 24.52,31.76 A 4.22,4.22 0 0,1 24.58,30.22 H 24.55 C 24.53,30.22 24.52,30.22 24.53,30.25 L 24.52,30.31 C 24.52,30.33 24.5,30.35 24.48,30.36 Z M 19.72,31.06 L 19.86,31.56 C 19.86,31.58 19.88,31.61 19.91,31.62 L 20.51,31.9 A 0.1,0.1 0 0,1 20.57,31.96 C 20.59,32.03 20.62,32.11 20.63,32.19 C 20.67,32.37 20.81,32.49 20.93,32.61 C 20.96,32.63 20.98,32.65 21.02,32.66 L 21.4,32.73 A 0.12,0.12 0 0,1 21.48,32.78 L 21.68,33.08 A 4.97,4.97 0 0,0 22.91,33.37 A 0.3,0.3 0 0,0 22.77,33.21 A 0.26,0.26 0 0,0 22.6,33.18 C 22.07,33.25 21.74,33.09 21.59,32.7 A 0.18,0.18 0 0,0 21.51,32.6 A 0.43,0.43 0 0,0 21.27,32.56 C 20.86,32.58 20.7,32.32 20.71,31.96 A 0.21,0.21 0 0,0 20.51,31.75 A 0.82,0.82 0 0,1 20.11,31.63 C 19.89,31.51 19.94,31.29 19.93,31.09 A 0.17,0.17 0 0,0 19.88,30.97 A 0.18,0.18 0 0,0 19.76,30.92 C 19.47,30.92 19.16,30.86 19.17,30.5 C 19.17,30.48 19.17,30.48 19.16,30.5 A 1.4,1.4 0 0,0 19.06,30.87 L 19.08,30.9 L 19.11,30.92 L 19.65,31.01 C 19.69,31.01 19.71,31.03 19.72,31.06 Z M 18.46,30.95 A 1.66,1.66 0 0,1 18.89,30.81 V 30.75 C 18.89,30.73 18.89,30.72 18.86,30.72 L 18.32,30.84 C 18.3,30.84 18.29,30.85 18.29,30.87 V 31.35 A 0.02,0.02 0 0,0 18.3,31.36 H 18.32 L 19.24,31.17 C 19.28,31.17 19.28,31.15 19.24,31.14 L 19.17,31.1 A 0.16,0.16 0 0,0 19.05,31.08 L 18.6,31.2 C 18.53,31.22 18.47,31.2 18.42,31.15 A 0.12,0.12 0 0,1 18.46,30.95 Z M 37.46,31.2 C 37.23,31.24 36.96,30.98 36.75,31.12 C 36.7,31.15 36.71,31.17 36.75,31.18 L 37.7,31.37 C 37.72,31.37 37.73,31.37 37.73,31.34 V 30.89 C 37.73,30.86 37.73,30.85 37.7,30.84 L 37.15,30.73 H 37.13 A 0.05,0.05 0 0,0 37.1,30.75 V 30.76 L 37.09,30.79 L 37.1,30.81 L 37.48,30.91 C 37.51,30.92 37.54,30.94 37.56,30.97 A 0.15,0.15 0 0,1 37.46,31.2 Z M 18.47,31.98 C 18.49,31.88 18.54,31.82 18.62,31.79 A 38.48,38.48 0 0,1 19.66,31.46 V 31.42 L 19.65,31.4 H 19.63 L 18.46,31.64 C 18.26,31.68 18.23,31.78 18.36,31.94 L 18.47,32.07 C 18.6,32.22 18.76,32.27 18.94,32.21 L 19.87,31.9 C 19.91,31.89 19.92,31.86 19.9,31.83 L 19.86,31.79 A 0.09,0.09 0 0,0 19.82,31.75 H 19.77 L 18.73,32.08 A 0.25,0.25 0 0,1 18.48,32.02 A 0.04,0.04 0 0,1 18.47,31.98 Z M 37.48,32.03 A 0.24,0.24 0 0,1 37.24,32.07 A 48.1,48.1 0 0,0 36.17,31.75 A 0.1,0.1 0 0,0 36.13,31.78 L 36.07,31.84 C 36.04,31.86 36.05,31.87 36.07,31.88 L 37.06,32.21 C 37.24,32.28 37.39,32.23 37.51,32.08 L 37.65,31.89 C 37.75,31.76 37.72,31.68 37.55,31.65 L 36.36,31.4 H 36.34 L 36.32,31.42 V 31.47 L 37.34,31.77 C 37.44,31.81 37.49,31.87 37.5,31.98 C 37.5,32 37.5,32.01 37.48,32.03 Z M 19.05,32.96 C 19.06,32.86 19.11,32.79 19.19,32.75 A 122.65,122.65 0 0,1 20.39,32.05 H 20.37 C 19.93,32.2 19.51,32.35 19.09,32.47 C 18.99,32.5 18.94,32.57 18.91,32.67 C 18.81,33.07 19.01,33.23 19.37,33.24 C 19.4,33.24 19.43,33.23 19.45,33.21 L 20.53,32.53 A 0.05,0.05 0 0,0 20.55,32.45 L 20.52,32.41 C 20.5,32.38 20.48,32.37 20.45,32.39 L 19.35,33.01 A 0.28,0.28 0 0,1 19.07,33.01 A 0.04,0.04 0 0,1 19.05,32.96 Z M 36.9,33 C 36.8,33.06 36.71,33.06 36.62,33.01 A 88,88 0 0,0 35.53,32.4 C 35.49,32.37 35.45,32.38 35.43,32.43 L 35.41,32.45 A 0.05,0.05 0 0,0 35.43,32.51 L 36.46,33.18 C 36.54,33.23 36.62,33.25 36.72,33.23 C 37.12,33.17 37.15,32.87 37.02,32.57 A 0.12,0.12 0 0,0 36.95,32.5 L 35.65,32.07 C 35.5,32.02 35.5,32.03 35.64,32.1 L 36.82,32.77 C 36.87,32.81 36.91,32.87 36.92,32.96 C 36.92,32.97 36.92,32.99 36.9,33 Z M 32.8,36.1 C 32.72,36.07 32.7,36.08 32.78,36.14 C 33.52,36.74 34.51,36.97 35.17,37.66 A 0.05,0.05 0 0,0 35.21,37.68 A 0.05,0.05 0 0,0 35.25,37.66 A 9.5,9.5 0 0,0 37.65,32.44 C 37.67,32.35 37.65,32.34 37.58,32.4 A 0.39,0.39 0 0,1 37.42,32.49 C 37.36,32.5 37.34,32.54 37.35,32.6 C 37.49,33.12 37.27,33.52 36.72,33.53 C 36.68,33.53 36.66,33.55 36.66,33.59 C 36.66,34.04 36.42,34.29 35.96,34.35 C 35.93,34.35 35.91,34.37 35.91,34.4 C 35.89,34.9 35.62,35.17 35.09,35.18 A 0.07,0.07 0 0,0 35.03,35.23 C 34.83,35.7 34.38,35.86 33.9,35.79 A 0.1,0.1 0 0,0 33.8,35.83 C 33.59,36.16 33.25,36.25 32.8,36.1 Z M 23.33,36.02 C 22.95,36.22 22.4,36.26 22.17,35.86 A 0.1,0.1 0 0,0 22.08,35.81 H 21.83 C 21.39,35.79 21.08,35.6 20.92,35.22 A 0.07,0.07 0 0,0 20.86,35.18 C 20.36,35.18 20.08,34.92 20.04,34.41 A 0.07,0.07 0 0,0 19.98,34.35 C 19.56,34.29 19.28,34.05 19.3,33.6 C 19.3,33.59 19.3,33.57 19.28,33.55 A 0.07,0.07 0 0,0 19.23,33.53 C 18.68,33.48 18.47,33.16 18.6,32.59 C 18.61,32.54 18.6,32.51 18.55,32.49 A 0.49,0.49 0 0,1 18.42,32.43 C 18.36,32.39 18.34,32.4 18.35,32.47 A 9.6,9.6 0 0,0 20.92,37.87 C 20.95,37.9 21,37.91 21.05,37.89 C 21.95,37.46 22.77,36.9 23.51,36.19 C 23.54,36.17 23.54,36.15 23.51,36.13 L 23.41,36.03 C 23.39,36.01 23.36,36 23.33,36.02 Z M 19.79,33.75 A 0.19,0.19 0 0,1 19.86,33.62 L 20.86,32.81 A 0.03,0.03 0 0,0 20.88,32.78 V 32.76 H 20.86 L 20.83,32.74 A 0.11,0.11 0 0,0 20.73,32.76 L 19.77,33.36 C 19.54,33.52 19.52,33.69 19.72,33.89 L 19.75,33.92 C 19.94,34.11 20.13,34.12 20.34,33.95 L 21.39,33.07 A 0.07,0.07 0 0,0 21.41,32.97 L 21.35,32.87 H 21.34 L 21.32,32.86 A 0.04,0.04 0 0,0 21.29,32.86 L 20.06,33.86 A 0.2,0.2 0 0,1 19.89,33.9 C 19.82,33.88 19.79,33.83 19.79,33.75 Z M 36.12,33.88 C 36.03,33.91 35.95,33.9 35.89,33.85 L 34.68,32.87 C 34.65,32.85 34.63,32.85 34.61,32.88 L 34.55,32.98 C 34.53,33.01 34.53,33.04 34.57,33.07 L 35.63,33.95 C 35.83,34.12 36.03,34.11 36.21,33.92 L 36.25,33.89 C 36.45,33.69 36.43,33.52 36.19,33.37 L 35.19,32.74 A 0.06,0.06 0 0,0 35.12,32.74 L 35.1,32.77 V 32.82 L 36.1,33.61 C 36.17,33.67 36.19,33.75 36.15,33.85 C 36.15,33.87 36.14,33.88 36.12,33.88 Z M 20.58,34.65 C 20.58,34.57 20.58,34.47 20.65,34.41 L 21.75,33.37 C 21.77,33.35 21.77,33.32 21.73,33.31 L 21.69,33.29 A 0.1,0.1 0 0,0 21.59,33.31 L 20.49,34.22 C 20.29,34.39 20.29,34.56 20.49,34.73 L 20.56,34.78 C 20.77,34.95 20.97,34.94 21.16,34.74 L 22.33,33.52 C 22.35,33.5 22.34,33.49 22.33,33.49 A 0.64,0.64 0 0,0 22.12,33.46 H 22.09 L 20.83,34.66 A 0.11,0.11 0 0,1 20.76,34.69 H 20.62 C 20.59,34.69 20.57,34.68 20.58,34.65 Z M 35.33,34.68 C 35.25,34.71 35.18,34.7 35.12,34.64 A 53.63,53.63 0 0,1 33.83,33.45 L 33.62,33.49 H 33.61 V 33.5 L 34.89,34.84 C 34.92,34.86 34.95,34.88 34.98,34.88 C 35.32,34.92 35.6,34.78 35.61,34.4 A 0.12,0.12 0 0,0 35.56,34.3 L 34.38,33.31 A 0.1,0.1 0 0,0 34.26,33.3 L 34.23,33.31 L 34.22,33.32 A 0.04,0.04 0 0,0 34.21,33.36 L 34.22,33.38 L 35.3,34.4 C 35.36,34.46 35.39,34.54 35.37,34.65 C 35.37,34.67 35.35,34.68 35.33,34.68 Z M 24.18,33.58 L 24.25,33.61 C 24.3,33.63 24.3,33.62 24.27,33.58 A 1.13,1.13 0 0,0 24.07,33.4 A 0.22,0.22 0 0,0 23.83,33.4 C 23.65,33.5 23.45,33.55 23.23,33.54 C 23.22,33.54 23.21,33.54 23.21,33.57 V 33.59 L 23.22,33.6 L 24.1,33.56 C 24.13,33.56 24.16,33.56 24.18,33.58 Z M 21.72,35.3 A 0.15,0.15 0 0,1 21.62,35.2 V 35.12 A 194.1,194.1 0 0,1 22.79,33.65 L 22.77,33.63 L 22.76,33.62 C 22.72,33.59 22.69,33.59 22.66,33.62 L 21.26,35.09 A 0.07,0.07 0 0,0 21.25,35.17 C 21.41,35.49 21.78,35.54 22.11,35.5 C 22.13,35.5 22.15,35.48 22.16,35.46 L 23.26,33.86 C 23.28,33.84 23.26,33.83 23.24,33.82 H 23.12 A 0.1,0.1 0 0,0 23.03,33.85 L 21.9,35.23 A 0.18,0.18 0 0,1 21.82,35.28 C 21.77,35.3 21.74,35.31 21.72,35.3 Z M 34.34,35.2 C 34.27,35.34 34.18,35.35 34.07,35.22 L 32.93,33.86 A 0.11,0.11 0 0,0 32.83,33.81 L 32.71,33.82 C 32.69,33.82 32.68,33.83 32.7,33.86 L 33.8,35.46 C 33.8,35.48 33.83,35.49 33.86,35.49 C 34.18,35.54 34.57,35.49 34.71,35.17 A 0.06,0.06 0 0,0 34.7,35.09 L 33.3,33.62 C 33.28,33.6 33.26,33.6 33.23,33.62 L 33.2,33.64 H 33.19 V 33.66 A 0.03,0.03 0 0,0 33.19,33.68 L 34.32,35.06 A 0.13,0.13 0 0,1 34.34,35.19 Z M 30.77,33.73 L 30.79,33.69 C 30.79,33.65 30.78,33.64 30.74,33.65 C 30.68,33.67 30.64,33.73 30.66,33.82 C 30.66,33.84 30.66,33.87 30.68,33.9 L 31.62,35.67 C 31.65,35.74 31.67,35.74 31.66,35.67 C 31.66,35.57 31.66,35.48 31.6,35.39 A 645.22,645.22 0 0,0 30.76,33.77 L 30.77,33.73 Z M 32.91,35.65 L 31.8,33.88 C 31.78,33.85 31.76,33.84 31.73,33.85 L 31.61,33.9 C 31.58,33.91 31.58,33.93 31.59,33.95 L 32.51,35.54 C 32.56,35.62 32.63,35.69 32.73,35.74 C 32.99,35.85 33.32,35.97 33.53,35.7 C 33.55,35.67 33.55,35.65 33.53,35.62 L 32.26,33.77 C 32.23,33.73 32.18,33.7 32.1,33.69 C 32.06,33.69 32.05,33.7 32.07,33.73 L 33.14,35.45 C 33.19,35.52 33.19,35.6 33.16,35.69 C 33.15,35.71 33.13,35.72 33.11,35.72 C 33.01,35.72 32.94,35.7 32.91,35.65 Z M 22.78,35.61 A 0.2,0.2 0 0,1 22.82,35.45 L 23.89,33.74 C 23.9,33.71 23.89,33.7 23.86,33.7 C 23.78,33.7 23.72,33.73 23.68,33.79 A 209.58,209.58 0 0,1 22.41,35.66 C 22.41,35.67 22.41,35.69 22.43,35.7 C 22.67,36 23.05,35.82 23.33,35.68 A 0.15,0.15 0 0,0 23.4,35.62 L 24.36,33.96 C 24.37,33.94 24.36,33.92 24.34,33.91 L 24.24,33.85 H 24.2 A 0.06,0.06 0 0,0 24.17,33.87 L 23.05,35.67 A 0.15,0.15 0 0,1 22.82,35.7 A 0.14,0.14 0 0,1 22.78,35.61 Z M 29.14,39.35 C 29,39.33 28.93,39.17 29.01,39.06 L 29.9,37.89 C 29.93,37.84 29.93,37.79 29.9,37.76 L 29.76,37.62 A 0.24,0.24 0 0,1 29.77,37.28 L 30.05,37.03 A 0.13,0.13 0 0,0 30.09,36.93 C 30.09,36.46 30.08,35.98 30.04,35.51 A 2.76,2.76 0 0,0 29.66,34.28 A 12.49,12.49 0 0,1 29.34,33.74 H 29.33 L 29.32,33.76 C 29.17,34.08 28.95,34.2 28.66,34.1 C 28.63,34.1 28.62,34.1 28.62,34.14 C 28.68,34.4 28.62,34.58 28.42,34.67 C 28.39,34.68 28.38,34.7 28.39,34.73 C 28.44,35.02 28.39,35.27 28.22,35.47 A 0.12,0.12 0 0,0 28.19,35.55 C 28.2,36.15 28.24,36.59 28.32,36.85 C 28.42,37.22 28.57,37.62 28.58,38 C 28.58,38.38 28.54,38.8 28.45,39.22 C 28.41,39.39 28.21,39.4 28.15,39.58 C 28.07,39.82 28.13,40 28.11,40.24 C 28.11,40.26 28.12,40.28 28.15,40.27 C 28.38,40.24 28.61,40.15 28.81,39.99 L 28.85,39.98 A 0.1,0.1 0 0,1 28.89,39.98 L 29.1,40.04 C 29.14,40.04 29.15,40.04 29.13,40 L 28.95,39.69 C 28.88,39.59 28.99,39.46 29.1,39.49 C 29.17,39.5 29.24,39.53 29.3,39.58 A 0.2,0.2 0 0,0 29.42,39.62 H 29.82 A 0.2,0.2 0 0,1 29.9,39.64 L 30.21,39.78 C 30.25,39.79 30.28,39.79 30.31,39.77 C 30.51,39.61 30.7,39.59 30.89,39.73 C 30.93,39.76 30.94,39.75 30.93,39.7 C 30.87,39.54 30.75,39.56 30.63,39.55 C 30.5,39.54 30.38,39.45 30.27,39.4 A 0.14,0.14 0 0,0 30.17,39.4 A 0.5,0.5 0 0,0 30.05,39.45 C 29.86,39.56 29.67,39.42 29.49,39.4 L 29.14,39.35 Z M 31.95,36.04 A 0.19,0.19 0 0,1 32.08,36.03 C 32.28,36.07 32.35,35.88 32.26,35.73 L 31.26,33.99 C 31.18,33.86 31.1,33.85 30.98,33.77 C 30.93,33.75 30.92,33.76 30.95,33.8 L 31.87,35.54 L 31.89,35.64 C 31.89,35.67 31.87,35.7 31.85,35.74 C 31.83,35.77 31.85,35.79 31.89,35.8 L 32.25,35.86 H 32.26 A 0.03,0.03 0 0,1 32.28,35.89 L 32.27,35.91 L 32.26,35.93 A 0.12,0.12 0 0,1 32.15,35.98 C 32.05,35.98 31.94,35.98 31.83,36.03 C 31.8,36.05 31.8,36.07 31.83,36.09 A 0.3,0.3 0 0,1 31.93,36.19 C 31.95,36.23 31.98,36.24 32.01,36.24 A 0.67,0.67 0 0,0 32.55,35.97 V 35.95 A 0.03,0.03 0 0,0 32.53,35.93 H 32.51 A 0.07,0.07 0 0,0 32.42,35.94 L 32.32,36.08 A 0.09,0.09 0 0,1 32.24,36.11 L 31.96,36.08 C 31.91,36.08 31.91,36.06 31.96,36.04 Z M 24.09,35.74 A 0.13,0.13 0 0,1 24.07,35.59 L 25,33.8 V 33.78 A 0.02,0.02 0 0,0 24.98,33.77 A 0.38,0.38 0 0,0 24.72,33.96 A 259.92,259.92 0 0,0 23.65,35.82 C 23.65,35.84 23.67,35.85 23.68,35.86 C 23.87,35.99 24.07,35.97 24.27,35.81 C 24.3,35.78 24.29,35.78 24.25,35.79 C 24.2,35.8 24.15,35.78 24.09,35.72 Z M 30.5,33.94 A 0.12,0.12 0 0,0 30.43,33.88 A 0.12,0.12 0 0,0 30.33,33.88 A 0.12,0.12 0 0,0 30.26,34 L 30.27,34.05 L 31.02,35.73 A 0.12,0.12 0 0,0 31.13,35.81 L 31.18,35.8 A 0.12,0.12 0 0,0 31.25,35.63 L 30.5,33.95 Z M 34.45,38.04 H 34.72 C 34.79,38.04 34.82,38 34.82,37.94 V 37.89 A 0.1,0.1 0 0,0 34.72,37.82 L 34.09,37.86 C 34.06,37.86 34.03,37.86 34.01,37.84 L 33.66,37.62 A 0.03,0.03 0 0,1 33.65,37.58 V 37.57 L 33.68,37.56 L 34.13,37.49 H 34.15 C 34.23,37.42 34.23,37.36 34.15,37.3 A 0.09,0.09 0 0,0 34.09,37.29 L 33.44,37.39 A 0.22,0.22 0 0,1 33.27,37.34 L 32.94,37.08 C 32.89,37.05 32.9,37.03 32.95,37.02 L 33.45,36.94 A 0.08,0.08 0 0,0 33.52,36.88 V 36.81 A 0.16,0.16 0 0,0 33.36,36.75 L 32.7,36.85 C 32.66,36.85 32.63,36.85 32.6,36.82 L 32.28,36.54 C 32.24,36.51 32.25,36.49 32.3,36.48 L 32.67,36.42 H 32.69 L 32.71,36.39 C 32.73,36.36 32.73,36.33 32.72,36.31 A 0.12,0.12 0 0,0 32.59,36.23 L 32.24,36.28 A 0.7,0.7 0 0,1 31.89,36.26 A 1.33,1.33 0 0,1 31.42,35.99 A 0.09,0.09 0 0,1 31.39,35.92 A 0.1,0.1 0 0,0 31.39,35.88 C 31.36,35.8 31.34,35.8 31.33,35.88 C 31.3,36.1 31.29,36.31 31.28,36.5 C 31.28,36.56 31.25,36.57 31.21,36.51 L 30.89,36.06 C 30.85,36.01 30.79,35.98 30.71,35.98 C 30.69,35.98 30.68,35.98 30.68,36 A 0.2,0.2 0 0,0 30.69,36.21 C 31.45,37.32 32.39,38.27 33.53,39.06 A 0.12,0.12 0 0,0 33.68,39.05 L 33.71,39.01 C 33.76,38.96 33.75,38.91 33.7,38.88 A 11,11 0 0,1 31.35,36.68 C 31.32,36.65 31.33,36.63 31.37,36.62 A 0.22,0.22 0 0,0 31.47,36.56 A 0.14,0.14 0 0,0 31.5,36.46 V 36.24 A 0.04,0.04 0 0,1 31.54,36.21 H 31.56 L 31.8,36.45 L 31.84,36.53 L 31.9,37.07 C 31.9,37.11 31.92,37.15 31.94,37.19 C 32,37.29 32.06,37.27 32.11,37.15 L 32.12,37.1 L 32.08,36.8 C 32.07,36.72 32.09,36.7 32.16,36.76 L 32.5,37.06 C 32.53,37.08 32.54,37.1 32.55,37.13 L 32.62,37.56 L 32.66,37.68 C 32.74,37.85 32.8,37.85 32.82,37.7 A 0.56,0.56 0 0,0 32.82,37.52 L 32.81,37.38 C 32.8,37.32 32.81,37.31 32.86,37.34 L 33.09,37.51 C 33.12,37.54 33.14,37.57 33.14,37.61 L 33.18,38.23 C 33.18,38.28 33.2,38.3 33.25,38.31 H 33.29 C 33.31,38.31 33.33,38.31 33.34,38.29 A 0.07,0.07 0 0,0 33.36,38.25 C 33.39,38.1 33.39,37.95 33.36,37.76 C 33.34,37.72 33.36,37.71 33.4,37.74 L 33.77,37.99 C 33.8,38.01 33.82,38.03 33.83,38.07 L 33.93,38.59 L 33.96,38.65 C 34.01,38.71 34.04,38.72 34.07,38.71 A 0.12,0.12 0 0,0 34.14,38.57 A 8.87,8.87 0 0,0 34.07,38.24 C 34.07,38.19 34.08,38.18 34.12,38.2 L 34.38,38.35 C 34.45,38.39 34.51,38.39 34.57,38.33 L 34.6,38.31 C 34.63,38.27 34.63,38.24 34.59,38.21 L 34.44,38.09 C 34.4,38.06 34.4,38.04 34.45,38.04 Z M 24.43,36.04 A 0.17,0.17 0 0,0 24.36,35.98 C 24.34,35.98 24.33,35.98 24.34,36 C 24.36,36.03 24.38,36.05 24.41,36.06 A 0.1,0.1 0 0,1 24.48,36.12 A 0.1,0.1 0 0,1 24.47,36.21 A 0.7,0.7 0 0,0 24.36,36.85 L 24.38,36.89 L 24.42,36.91 C 24.48,36.92 24.52,36.91 24.54,36.85 V 36.83 L 24.53,36.81 C 24.47,36.77 24.43,36.71 24.44,36.64 L 24.56,36.04 C 24.56,36 24.56,36 24.53,36.01 A 0.1,0.1 0 0,0 24.5,36.04 C 24.48,36.07 24.45,36.07 24.43,36.04 Z M 24.18,36.06 L 23.65,36.13 V 36.15 C 23.65,36.18 23.69,36.21 23.74,36.22 C 23.79,36.24 23.86,36.25 23.92,36.24 H 23.95 A 0.5,0.5 0 0,0 24.05,36.21 A 0.35,0.35 0 0,0 24.13,36.17 A 0.17,0.17 0 0,0 24.18,36.12 A 0.08,0.08 0 0,0 24.18,36.07 Z M 24.06,36.93 C 24.04,37 24.04,37.05 24.06,37.09 C 24.16,37.22 24.22,37.19 24.24,37.03 C 24.26,36.88 24.26,36.73 24.26,36.56 C 24.26,36.53 24.26,36.49 24.28,36.46 A 0.5,0.5 0 0,0 24.33,36.19 C 24.33,36.15 24.31,36.14 24.28,36.16 C 24.15,36.23 24.05,36.32 23.92,36.36 L 23.41,36.52 A 0.1,0.1 0 0,0 23.35,36.57 A 0.1,0.1 0 0,0 23.35,36.64 C 23.35,36.67 23.37,36.69 23.39,36.7 A 0.1,0.1 0 0,0 23.47,36.7 L 23.82,36.6 C 23.88,36.59 23.89,36.6 23.86,36.66 L 23.7,36.9 A 0.26,0.26 0 0,1 23.51,37.02 A 18.12,18.12 0 0,0 22.64,37.17 A 0.13,0.13 0 0,0 22.61,37.24 V 37.26 C 22.62,37.29 22.64,37.31 22.67,37.32 C 22.7,37.34 22.73,37.34 22.76,37.34 A 113.68,113.68 0 0,0 23.41,37.26 V 37.29 L 23.23,37.51 A 0.17,0.17 0 0,1 23.11,37.57 L 22.04,37.71 C 21.97,37.71 21.94,37.75 21.94,37.82 V 37.85 A 0.08,0.08 0 0,0 22,37.92 H 22.03 L 22.87,37.81 C 22.94,37.8 22.95,37.82 22.9,37.87 L 22.65,38.12 A 0.3,0.3 0 0,1 22.46,38.2 L 21.63,38.27 A 0.3,0.3 0 0,0 21.48,38.33 C 21.44,38.35 21.43,38.38 21.45,38.41 C 21.48,38.46 21.53,38.49 21.59,38.48 L 22.19,38.45 C 22.24,38.45 22.25,38.46 22.21,38.49 L 21.97,38.66 C 21.91,38.71 21.89,38.76 21.91,38.84 L 21.92,38.86 C 21.98,38.9 22.04,38.9 22.09,38.87 C 22.19,38.81 22.29,38.75 22.38,38.67 C 22.42,38.63 22.44,38.64 22.43,38.7 L 22.36,39.12 A 0.08,0.08 0 0,0 22.4,39.2 C 22.44,39.24 22.48,39.24 22.52,39.22 A 0.05,0.05 0 0,1 22.58,39.22 A 0.3,0.3 0 0,0 22.78,39.28 H 22.81 L 22.82,39.29 A 0.04,0.04 0 0,1 22.83,39.33 L 22.82,39.43 C 22.82,39.46 22.83,39.49 22.87,39.49 C 22.96,39.5 23.04,39.48 23.1,39.41 C 23.13,39.37 23.15,39.38 23.15,39.43 V 39.63 C 23.15,39.7 23.17,39.75 23.22,39.8 C 23.24,39.82 23.27,39.82 23.32,39.79 A 0.1,0.1 0 0,0 23.35,39.72 C 23.38,39.57 23.37,39.39 23.35,39.21 C 23.33,39.17 23.35,39.14 23.36,39.11 L 23.64,38.77 C 23.67,38.73 23.69,38.73 23.69,38.79 V 38.91 A 0.1,0.1 0 0,0 23.8,39.01 L 23.85,39 C 23.87,39 23.88,38.99 23.89,38.97 A 0.07,0.07 0 0,0 23.91,38.92 L 23.88,38.47 L 23.89,38.43 L 24.17,37.99 C 24.21,37.93 24.23,37.94 24.23,38 C 24.23,38.13 24.26,38.26 24.29,38.39 A 0.09,0.09 0 0,0 24.37,38.45 A 0.1,0.1 0 0,0 24.43,38.44 A 0.12,0.12 0 0,0 24.48,38.31 L 24.4,37.69 A 0.5,0.5 0 0,1 24.58,37.24 A 0.07,0.07 0 0,0 24.6,37.15 A 0.3,0.3 0 0,0 24.48,36.99 C 24.45,36.98 24.43,36.99 24.41,37.01 L 24.16,37.51 A 0.09,0.09 0 0,1 24.09,37.55 L 23.89,37.58 C 23.86,37.58 23.84,37.58 23.84,37.54 C 23.85,37.35 23.87,37.19 23.91,37.05 C 23.91,36.99 23.96,36.95 24.01,36.9 C 24.07,36.85 24.08,36.87 24.06,36.93 Z M 32.34,39.47 L 32.57,39.65 C 32.62,39.69 32.67,39.69 32.73,39.65 L 32.8,39.6 C 32.86,39.56 32.86,39.53 32.8,39.5 A 0.97,0.97 0 0,1 32.6,39.35 C 32.56,39.31 32.57,39.3 32.62,39.31 L 32.91,39.35 L 33.05,39.34 C 33.11,39.31 33.14,39.28 33.12,39.24 A 0.14,0.14 0 0,0 33.02,39.16 C 32.82,39.12 32.62,39.09 32.39,39.07 C 32.19,39.05 32.05,38.9 31.93,38.75 C 31.91,38.72 31.92,38.71 31.95,38.72 L 32.4,38.75 C 32.46,38.75 32.5,38.73 32.53,38.68 L 32.55,38.64 C 32.57,38.59 32.55,38.56 32.5,38.56 L 31.8,38.49 A 0.28,0.28 0 0,1 31.6,38.38 L 31.43,38.16 C 31.38,38.11 31.39,38.08 31.47,38.08 L 31.8,38.11 C 31.82,38.11 31.83,38.11 31.84,38.09 C 31.86,38.09 31.87,38.08 31.87,38.06 C 31.89,38.01 31.89,37.96 31.85,37.93 C 31.83,37.91 31.79,37.89 31.73,37.89 C 31.56,37.89 31.43,37.87 31.3,37.86 A 0.2,0.2 0 0,1 31.14,37.77 L 30.96,37.5 C 30.92,37.45 30.94,37.43 31,37.45 C 31.12,37.48 31.2,37.49 31.26,37.49 A 0.1,0.1 0 0,0 31.36,37.39 A 0.1,0.1 0 0,0 31.27,37.29 L 30.82,37.21 A 0.1,0.1 0 0,1 30.75,37.16 L 30.6,36.89 C 30.57,36.84 30.58,36.83 30.64,36.84 L 30.74,36.88 C 30.8,36.9 30.85,36.88 30.9,36.83 C 30.92,36.81 30.93,36.77 30.9,36.73 A 0.06,0.06 0 0,0 30.86,36.69 L 30.39,36.58 A 0.16,0.16 0 0,0 30.19,36.69 C 30.15,36.86 30.09,37.01 30.02,37.14 C 29.99,37.21 30,37.27 30.06,37.32 C 30.08,37.33 30.11,37.33 30.16,37.31 L 30.18,37.28 L 30.3,37 C 30.32,36.96 30.34,36.95 30.37,37 L 30.52,37.25 C 30.54,37.3 30.55,37.34 30.53,37.39 A 2.5,2.5 0 0,0 30.44,37.86 C 30.44,37.92 30.46,37.96 30.51,37.99 H 30.54 C 30.6,37.96 30.64,37.91 30.64,37.85 L 30.69,37.64 C 30.69,37.6 30.72,37.59 30.74,37.63 L 30.94,37.93 C 30.97,37.96 30.98,37.99 30.97,38.03 L 30.88,38.63 A 0.08,0.08 0 0,0 30.92,38.71 L 30.95,38.72 A 0.1,0.1 0 0,0 31.02,38.71 A 0.15,0.15 0 0,0 31.1,38.6 L 31.14,38.28 A 0.03,0.03 0 0,1 31.16,38.26 A 0.03,0.03 0 0,1 31.19,38.27 L 31.49,38.63 L 31.5,38.68 L 31.48,39.34 V 39.38 C 31.53,39.44 31.56,39.47 31.6,39.45 A 0.13,0.13 0 0,0 31.68,39.34 L 31.71,38.95 C 31.71,38.91 31.73,38.9 31.76,38.93 L 32.01,39.18 C 32.04,39.21 32.06,39.24 32.06,39.28 L 32.11,39.84 C 32.11,39.91 32.15,39.94 32.21,39.92 L 32.25,39.9 A 0.12,0.12 0 0,0 32.31,39.78 L 32.29,39.5 C 32.29,39.45 32.31,39.44 32.34,39.47 Z M 25.23,38.85 A 2.1,2.1 0 0,0 24.79,38.95 A 0.1,0.1 0 0,1 24.7,38.95 C 24.5,38.83 24.3,38.83 24.12,38.94 C 24.02,38.99 23.92,39.03 23.82,39.04 C 23.38,39.12 23.32,39.51 23.55,39.82 C 23.57,39.85 23.58,39.85 23.6,39.82 A 0.08,0.08 0 0,0 23.62,39.74 A 0.91,0.91 0 0,1 23.56,39.36 A 0.21,0.21 0 0,1 23.73,39.16 C 24.06,39.08 24.34,38.86 24.68,39.09 A 0.1,0.1 0 0,0 24.77,39.11 L 25.42,38.91 A 0.02,0.02 0 0,0 25.43,38.91 A 0.02,0.02 0 0,0 25.43,38.89 L 24.58,37.61 A 0.12,0.12 0 0,1 24.58,37.48 L 24.78,37.16 C 24.79,37.12 24.78,37.08 24.75,37.05 L 24.72,37.04 H 24.69 A 0.07,0.07 0 0,0 24.67,37.11 L 24.66,37.19 L 24.46,37.54 A 0.06,0.06 0 0,0 24.46,37.6 L 25.26,38.78 C 25.29,38.82 25.27,38.84 25.23,38.85 Z M 31.72,40.15 C 31.78,40.12 31.81,40.08 31.8,40.02 A 0.15,0.15 0 0,0 31.76,39.92 A 5.9,5.9 0 0,1 30.33,37.9 A 0.18,0.18 0 0,0 30.27,37.83 A 0.2,0.2 0 0,0 30.18,37.79 L 30.14,37.8 C 30.08,37.86 30.06,37.93 30.09,37.99 C 30.45,38.82 30.96,39.54 31.63,40.16 C 31.66,40.19 31.66,40.2 31.63,40.21 A 6.11,6.11 0 0,0 31.15,40.38 C 31.15,40.4 31.16,40.4 31.17,40.4 A 7.31,7.31 0 0,0 35.21,37.85 A 0.05,0.05 0 0,0 35.21,37.8 C 35.21,37.77 35.19,37.77 35.17,37.8 A 9.98,9.98 0 0,1 32.97,39.55 A 0.1,0.1 0 0,0 32.92,39.62 C 32.9,39.74 32.82,39.78 32.69,39.75 L 32.59,39.76 A 0.88,0.88 0 0,0 32.29,39.94 A 0.14,0.14 0 0,1 32.22,39.97 C 32.05,40 31.89,40.07 31.75,40.18 H 31.73 L 31.71,40.16 V 40.15 Z M 27.72,38.98 C 27.58,38.92 27.45,38.94 27.34,39.04 A 0.08,0.08 0 0,0 27.32,39.13 L 27.36,39.26 C 27.37,39.29 27.36,39.32 27.34,39.33 C 27.06,39.49 27.32,39.77 27.56,39.57 C 27.64,39.51 27.66,39.52 27.61,39.61 A 0.22,0.22 0 0,0 27.59,39.78 A 0.15,0.15 0 0,0 27.68,39.88 L 27.71,39.89 C 27.76,39.91 27.79,39.89 27.8,39.83 C 27.82,39.57 27.88,39.3 28.12,39.15 A 0.12,0.12 0 0,0 28.17,39.05 L 28.28,38.34 A 0.09,0.09 0 0,0 28.25,38.26 C 28.15,38.18 27.98,38.22 27.95,38.36 C 27.95,38.39 27.92,38.4 27.88,38.38 L 27.8,38.33 A 0.09,0.09 0 0,0 27.71,38.33 C 27.53,38.42 27.59,38.58 27.72,38.69 C 27.75,38.71 27.75,38.73 27.72,38.75 L 27.67,38.8 C 27.64,38.82 27.64,38.84 27.66,38.87 A 0.3,0.3 0 0,0 27.74,38.96 C 27.8,39 27.79,39 27.73,38.98 Z M 23.84,39.94 A 14.52,14.52 0 0,0 24.92,40.35 A 0.03,0.03 0 0,0 24.93,40.32 C 24.83,40.07 25.03,39.9 25.16,39.72 C 25.19,39.68 25.18,39.67 25.14,39.66 C 24.99,39.66 24.84,39.65 24.71,39.73 C 24.51,39.86 24.29,39.91 24.09,39.73 C 24.04,39.69 23.99,39.69 23.94,39.73 A 0.75,0.75 0 0,0 23.82,39.87 C 23.79,39.9 23.8,39.93 23.84,39.94 Z M 30.51,40 C 30.27,40.2 30.04,40.06 29.81,39.94 C 29.75,39.91 29.68,39.91 29.61,39.91 C 29.43,39.91 29.41,39.97 29.54,40.09 C 29.74,40.26 29.77,40.45 29.66,40.68 C 29.64,40.71 29.66,40.72 29.69,40.72 C 30.15,40.64 30.56,40.53 30.93,40.42 C 31.05,40.37 31.06,40.32 30.97,40.24 L 30.7,40 C 30.64,39.95 30.58,39.95 30.52,40 Z M 26.56,40.6 C 26.62,40.43 26.56,40.33 26.37,40.3 A 1.36,1.36 0 0,1 25.77,40.07 A 0.09,0.09 0 0,0 25.69,40.06 C 25.47,40.11 25.37,40.26 25.38,40.47 C 25.38,40.5 25.39,40.52 25.43,40.53 L 26.53,40.76 C 26.58,40.77 26.59,40.76 26.58,40.72 L 26.56,40.67 A 0.1,0.1 0 0,1 26.56,40.59 Z M 28.8,40.36 C 28.64,40.49 28.4,40.54 28.2,40.57 C 28.1,40.59 28.05,40.64 28.05,40.74 V 40.77 C 28.05,40.83 28.07,40.86 28.13,40.86 C 28.48,40.86 28.84,40.83 29.23,40.78 C 29.26,40.78 29.28,40.76 29.27,40.73 C 29.27,40.53 29.03,40.17 28.8,40.36 Z M 25.33,40.53 L 25.08,40.43 C 25.04,40.43 25.03,40.43 25.04,40.47 C 25.09,40.59 25.22,40.64 25.33,40.57 V 40.53 Z M 29.51,40.76 A 0.43,0.43 0 0,0 29.37,40.81 C 29.34,40.83 29.34,40.84 29.37,40.85 C 29.43,40.87 29.49,40.85 29.53,40.79 C 29.55,40.76 29.54,40.75 29.51,40.76 Z M 27.79,40.97 A 0.2,0.2 0 0,0 27.86,41.02 C 27.95,41.07 28.01,41.05 28.03,40.95 C 28.05,40.9 28.03,40.88 27.98,40.88 C 27.61,40.88 27.22,40.86 26.82,40.81 C 26.72,40.81 26.72,40.82 26.8,40.87 C 27.1,41.07 27.4,41.1 27.68,40.95 C 27.72,40.92 27.76,40.93 27.79,40.97 Z" fill="rgb(28, 60, 122)"/>
<path d="M 28.79,23.265 C 28.81,23.38 28.74,23.46 28.6,23.5 C 28.39,23.55 28.22,23.5 28.11,23.35 H 28.08 C 27.98,23.4 27.84,23.45 27.7,23.45 A 0.13,0.13 0 0,1 27.57,23.4 L 27.54,23.35 A 0.09,0.09 0 0,1 27.54,23.26 L 27.56,23.23 L 27.6,23.21 C 27.78,23.19 27.95,23.14 28.1,23.05 C 28.38,22.9 28.7,22.89 29,23 A 0.12,0.12 0 0,1 29.07,23.1 A 0.12,0.12 0 0,1 29.03,23.2 C 28.99,23.24 28.93,23.25 28.87,23.23 C 28.83,23.22 28.81,23.23 28.81,23.28 Z M 28.15,23.28 C 28.31,23.21 28.48,23.15 28.65,23.15 C 28.7,23.15 28.71,23.15 28.65,23.12 A 0.41,0.41 0 0,0 28.19,23.17 A 0.12,0.12 0 0,0 28.14,23.27 A 0.01,0.01 0 0,0 28.15,23.27 Z M 37.11,24.54 C 37.17,24.71 37.27,24.76 37.41,24.7 A 0.05,0.05 0 0,1 37.45,24.7 A 0.05,0.05 0 0,1 37.48,24.73 C 37.48,24.75 37.48,24.77 37.46,24.78 L 37.12,25.04 C 37.1,25.06 37.08,25.05 37.07,25.04 L 37.05,25.02 C 37.03,25 37.04,24.98 37.05,24.96 C 37.15,24.86 37.13,24.76 36.98,24.64 C 36.95,24.61 36.92,24.61 36.89,24.64 L 36.59,24.88 C 36.57,24.9 36.56,24.93 36.57,24.96 C 36.67,25.23 36.84,25.33 37.06,25.27 A 0.06,0.06 0 0,1 37.1,25.28 A 0.05,0.05 0 0,1 37.12,25.32 C 37.13,25.34 37.12,25.36 37.1,25.37 C 37.02,25.42 36.93,25.45 36.83,25.48 C 36.8,25.49 36.77,25.48 36.75,25.46 L 36.1,24.6 C 36.07,24.55 36.08,24.53 36.14,24.53 A 0.1,0.1 0 0,1 36.24,24.59 A 0.09,0.09 0 0,0 36.29,24.63 A 0.1,0.1 0 0,0 36.36,24.62 L 37.21,23.99 A 0.07,0.07 0 0,0 37.24,23.91 L 37.23,23.85 C 37.22,23.72 37.25,23.71 37.33,23.81 L 37.89,24.55 C 37.91,24.58 37.91,24.6 37.89,24.63 A 0.54,0.54 0 0,1 37.7,24.79 C 37.6,24.84 37.57,24.82 37.62,24.71 C 37.69,24.58 37.66,24.45 37.55,24.31 C 37.49,24.25 37.43,24.24 37.37,24.29 L 37.13,24.47 C 37.11,24.49 37.1,24.51 37.11,24.54 Z M 18.65,25.4 A 0.75,0.75 0 0,1 18.19,24.68 A 0.78,0.78 0 0,1 18.68,23.96 A 0.77,0.77 0 0,1 19.52,24.13 A 0.76,0.76 0 0,1 19.73,24.68 A 0.78,0.78 0 0,1 19.24,25.39 C 19.05,25.47 18.84,25.47 18.65,25.39 Z M 19.5,25.03 C 19.53,24.98 19.54,24.93 19.54,24.87 A 0.45,0.45 0 0,0 19.5,24.68 A 0.73,0.73 0 0,0 19.37,24.5 A 0.97,0.97 0 0,0 18.73,24.2 C 18.59,24.19 18.48,24.24 18.42,24.33 A 0.28,0.28 0 0,0 18.37,24.48 C 18.37,24.54 18.39,24.61 18.42,24.67 C 18.44,24.73 18.49,24.8 18.54,24.86 A 0.97,0.97 0 0,0 19.18,25.16 C 19.32,25.16 19.44,25.12 19.5,25.03 Z M 39,29.6 C 38.98,29.63 38.99,29.65 39.04,29.64 A 149.97,149.97 0 0,1 39.67,29.49 A 11.56,11.56 0 0,1 39.74,29.35 C 39.79,29.25 39.82,29.25 39.84,29.36 L 39.92,29.75 C 39.94,29.83 39.92,29.85 39.84,29.81 A 0.15,0.15 0 0,1 39.77,29.71 A 0.07,0.07 0 0,0 39.69,29.67 L 38.54,29.88 C 38.51,29.88 38.49,29.88 38.47,29.86 A 0.16,0.16 0 0,1 38.43,29.8 A 0.06,0.06 0 0,1 38.45,29.74 L 39.3,28.75 C 39.33,28.72 39.32,28.7 39.27,28.71 C 39.01,28.74 38.75,28.79 38.49,28.86 A 0.07,0.07 0 0,0 38.43,28.92 L 38.4,29.04 C 38.37,29.14 38.33,29.14 38.3,29.04 A 4.54,4.54 0 0,1 38.22,28.59 C 38.22,28.57 38.22,28.55 38.25,28.54 C 38.26,28.54 38.28,28.54 38.3,28.56 L 38.41,28.66 A 0.1,0.1 0 0,0 38.5,28.68 L 39.42,28.52 C 39.46,28.52 39.49,28.49 39.52,28.45 A 0.22,0.22 0 0,0 39.55,28.35 C 39.55,28.31 39.57,28.29 39.61,28.29 C 39.63,28.29 39.65,28.29 39.65,28.32 L 39.72,28.69 C 39.73,28.72 39.72,28.75 39.7,28.78 C 39.45,29.05 39.22,29.32 39,29.6 Z M 16.46,28.96 C 16.79,29.03 17.12,29.07 17.44,29.15 C 17.55,29.17 17.62,29.13 17.64,29.01 L 17.65,28.99 H 17.69 A 0.04,0.04 0 0,1 17.73,29.01 V 29.03 L 17.6,29.7 C 17.6,29.71 17.6,29.72 17.58,29.72 H 17.53 A 0.03,0.03 0 0,1 17.51,29.69 V 29.68 A 0.19,0.19 0 0,0 17.5,29.53 A 0.1,0.1 0 0,0 17.42,29.48 A 169.29,169.29 0 0,1 16.36,29.3 A 0.07,0.07 0 0,0 16.33,29.33 C 16.25,29.5 16.29,29.63 16.43,29.7 C 16.46,29.72 16.48,29.74 16.48,29.77 V 29.79 C 16.46,29.82 16.44,29.83 16.41,29.82 L 16.14,29.72 C 16.11,29.7 16.1,29.68 16.11,29.65 C 16.2,29.33 16.27,28.98 16.32,28.62 C 16.32,28.57 16.32,28.52 16.3,28.47 C 16.29,28.42 16.3,28.4 16.36,28.42 C 16.46,28.46 16.56,28.49 16.68,28.51 L 16.71,28.52 V 28.58 L 16.66,28.6 C 16.48,28.62 16.4,28.72 16.41,28.9 C 16.41,28.94 16.43,28.96 16.46,28.96 Z M 16.69,34.23 C 17.01,34.15 16.81,33.53 17.26,33.43 C 17.75,33.32 17.92,33.83 17.88,34.2 C 17.88,34.24 17.86,34.26 17.83,34.28 L 17.6,34.38 C 17.57,34.39 17.55,34.38 17.53,34.36 L 17.51,34.33 A 0.04,0.04 0 0,1 17.5,34.29 A 0.04,0.04 0 0,1 17.52,34.26 C 17.67,34.17 17.74,34.04 17.72,33.86 A 0.19,0.19 0 0,0 17.59,33.7 A 0.2,0.2 0 0,0 17.51,33.7 C 17.17,33.74 17.29,34.28 16.97,34.45 C 16.75,34.57 16.51,34.47 16.4,34.25 A 0.84,0.84 0 0,1 16.32,33.79 A 0.07,0.07 0 0,1 16.37,33.73 L 16.59,33.65 C 16.62,33.65 16.64,33.65 16.65,33.69 A 0.1,0.1 0 0,1 16.6,33.79 C 16.46,33.91 16.42,34.03 16.5,34.15 C 16.55,34.22 16.61,34.25 16.69,34.23 Z M 39.38,34 C 39.21,33.95 39.06,34.16 38.96,34.28 A 0.48,0.48 0 0,1 38.47,34.41 C 38.1,34.28 38.12,33.89 38.25,33.6 C 38.34,33.41 38.48,33.36 38.7,33.45 C 38.78,33.49 38.78,33.52 38.7,33.55 L 38.5,33.62 C 38.07,33.82 38.44,34.32 38.76,33.97 C 38.96,33.75 39.28,33.5 39.56,33.8 C 39.74,34 39.64,34.35 39.51,34.55 A 0.06,0.06 0 0,1 39.44,34.58 L 39.22,34.55 C 39.18,34.55 39.17,34.53 39.17,34.5 C 39.17,34.48 39.17,34.47 39.19,34.46 A 0.12,0.12 0 0,1 39.25,34.42 C 39.38,34.4 39.46,34.34 39.51,34.25 A 0.18,0.18 0 0,0 39.38,33.99 Z M 18.65,38.11 C 18.94,38.11 19.17,37.88 19.17,37.61 C 19.17,37.32 18.94,37.09 18.65,37.09 A 0.51,0.51 0 0,0 18.13,37.6 C 18.13,37.88 18.36,38.11 18.65,38.11 Z M 37.39,38.11 C 37.67,38.11 37.91,37.88 37.91,37.61 A 0.51,0.51 0 0,0 37.39,37.09 A 0.51,0.51 0 0,0 36.87,37.6 C 36.87,37.88 37.1,38.11 37.39,38.11 Z M 23.75,38.04 C 23.81,38.01 23.83,37.96 23.83,37.89 C 23.83,37.82 23.86,37.79 23.94,37.79 A 0.04,0.04 0 0,1 23.98,37.8 V 37.84 L 23.68,38.3 A 0.12,0.12 0 0,1 23.6,38.35 L 23.31,38.39 C 23.27,38.39 23.25,38.39 23.26,38.34 L 23.33,37.84 C 23.33,37.8 23.35,37.77 23.37,37.74 L 23.6,37.44 C 23.63,37.4 23.65,37.41 23.64,37.46 L 23.61,37.96 A 0.09,0.09 0 0,0 23.65,38.04 A 0.1,0.1 0 0,0 23.75,38.04 Z" fill="rgb(28, 60, 122)"/>
<path d="M 23.139999999999997,38.644999999999996 C 23.24,38.62 23.33,38.6 23.42,38.58 C 23.47,38.57 23.48,38.58 23.45,38.62 L 23.15,38.99 A 0.12,0.12 0 0,1 23.05,39.04 L 22.64,39.07 C 22.6,39.07 22.58,39.06 22.59,39.02 L 22.69,38.47 C 22.69,38.44 22.71,38.41 22.73,38.38 L 23.03,38.08 C 23.07,38.05 23.08,38.06 23.08,38.11 L 23.02,38.57 A 0.09,0.09 0 0,0 23.06,38.65 A 0.1,0.1 0 0,0 23.15,38.65 Z M 34.97,40.27 L 35.25,40.63 L 35.3,40.65 H 35.35 A 0.16,0.16 0 0,1 35.45,40.62 C 35.52,40.62 35.53,40.65 35.47,40.7 L 35.05,41.03 C 34.94,41.12 34.9,41.1 34.95,40.97 C 34.95,40.95 34.97,40.94 34.98,40.92 A 0.06,0.06 0 0,0 34.98,40.84 L 34.35,40.04 C 34.3,39.97 34.24,39.97 34.17,40.01 C 34.14,40.03 34.12,40.03 34.11,40.01 L 34.09,39.98 V 39.93 L 34.57,39.56 H 34.61 A 0.05,0.05 0 0,1 34.64,39.58 C 34.67,39.62 34.66,39.66 34.61,39.68 C 34.57,39.71 34.57,39.73 34.58,39.76 C 34.66,39.9 34.72,39.99 34.78,40.05 C 34.88,40.15 34.94,40.12 34.94,39.98 V 39.52 C 34.94,39.48 34.93,39.46 34.89,39.46 A 0.1,0.1 0 0,1 34.84,39.46 A 0.05,0.05 0 0,1 34.81,39.41 V 39.39 L 34.83,39.36 L 35.19,39.08 H 35.25 L 35.27,39.1 C 35.29,39.12 35.28,39.14 35.27,39.16 C 35.12,39.31 35.07,39.53 35.1,39.83 C 35.1,39.87 35.12,39.89 35.15,39.9 L 35.85,40.12 C 35.95,40.14 36.03,40.12 36.12,40.07 H 36.14 V 40.08 L 36.16,40.1 L 36.17,40.14 C 36.17,40.15 36.17,40.16 36.15,40.17 L 35.65,40.55 A 0.03,0.03 0 0,1 35.62,40.55 A 0.03,0.03 0 0,1 35.6,40.52 L 35.62,40.44 C 35.62,40.41 35.62,40.39 35.59,40.39 L 35.02,40.2 A 0.04,0.04 0 0,0 34.97,40.22 L 34.96,40.25 V 40.27 Z M 21.39,40.35 C 21.6,40.75 21.22,41.11 20.83,40.88 C 20.61,40.75 20.39,40.58 20.16,40.38 C 20.11,40.34 20.12,40.31 20.19,40.31 C 20.23,40.31 20.26,40.31 20.29,40.33 C 20.33,40.35 20.35,40.33 20.38,40.31 L 21.02,39.48 C 21.04,39.46 21.04,39.43 21.02,39.41 L 20.97,39.32 A 0.04,0.04 0 0,1 20.97,39.27 A 0.04,0.04 0 0,1 21.03,39.27 C 21.28,39.41 21.5,39.57 21.69,39.76 C 21.91,39.99 21.78,40.4 21.42,40.31 C 21.38,40.31 21.37,40.31 21.39,40.35 Z M 21.16,39.83 C 21.13,39.88 21.08,39.93 21.06,39.98 C 21.04,40.01 21.05,40.03 21.07,40.05 C 21.27,40.23 21.5,40.07 21.51,39.84 A 0.14,0.14 0 0,0 21.44,39.71 A 0.15,0.15 0 0,0 21.29,39.7 A 0.32,0.32 0 0,0 21.16,39.83 Z M 20.88,40.18 L 20.65,40.51 A 0.09,0.09 0 0,0 20.63,40.58 A 0.09,0.09 0 0,0 20.67,40.63 L 20.71,40.67 C 20.77,40.71 20.84,40.72 20.91,40.71 A 0.26,0.26 0 0,0 21.07,40.61 L 21.11,40.55 A 0.26,0.26 0 0,0 21.16,40.35 A 0.24,0.24 0 0,0 21.06,40.2 L 21.01,40.16 A 0.1,0.1 0 0,0 20.91,40.16 A 0.1,0.1 0 0,0 20.88,40.18 Z M 30.93,42.25 A 3.03,3.03 0 0,0 30.85,41.88 C 30.81,41.73 30.81,41.58 30.61,41.58 A 0.06,0.06 0 0,1 30.55,41.54 V 41.52 A 0.02,0.02 0 0,1 30.55,41.5 V 41.49 L 31.03,41.38 L 31.09,41.39 L 31.11,41.42 C 31.11,41.44 31.11,41.45 31.09,41.47 L 30.99,41.57 A 0.08,0.08 0 0,0 30.96,41.65 L 31.18,42.63 C 31.23,42.87 31.16,42.91 30.96,42.76 L 30.03,42.03 C 30,42 29.98,42.01 29.99,42.05 C 30.03,42.29 30.09,42.53 30.15,42.76 C 30.18,42.86 30.27,42.91 30.37,42.9 C 30.39,42.9 30.4,42.9 30.4,42.92 V 42.95 C 30.4,42.98 30.39,42.99 30.36,43 L 29.92,43.1 C 29.88,43.1 29.86,43.1 29.86,43.05 C 29.86,43.01 29.88,42.98 29.93,42.96 A 0.11,0.11 0 0,0 30,42.83 L 29.8,41.88 A 0.08,0.08 0 0,0 29.73,41.82 L 29.59,41.79 C 29.56,41.78 29.55,41.76 29.55,41.73 C 29.55,41.71 29.56,41.7 29.58,41.7 C 29.71,41.68 29.84,41.65 29.98,41.6 A 10.36,10.36 0 0,0 30.9,42.27 C 30.93,42.31 30.94,42.3 30.93,42.25 Z M 25.54,42.79 L 25.51,42.55 A 0.09,0.09 0 0,0 25.46,42.47 A 0.66,0.66 0 0,0 25.19,42.41 A 0.09,0.09 0 0,0 25.11,42.46 L 24.99,42.66 V 42.72 L 25.06,42.76 C 25.09,42.78 25.1,42.8 25.08,42.83 C 25.06,42.86 25.04,42.86 25.02,42.86 A 6.17,6.17 0 0,1 24.68,42.77 C 24.53,42.74 24.53,42.7 24.68,42.65 C 24.75,42.63 24.81,42.61 24.85,42.55 A 103.34,103.34 0 0,0 25.51,41.59 L 25.66,41.52 C 25.71,41.49 25.73,41.51 25.74,41.56 L 25.84,42.56 C 25.87,42.74 25.83,42.91 26.02,43 C 26.06,43.02 26.06,43.04 26.02,43.07 A 8.54,8.54 0 0,0 25.39,42.93 V 42.9 C 25.39,42.88 25.41,42.87 25.43,42.86 L 25.5,42.85 L 25.53,42.83 L 25.54,42.79 Z M 25.41,41.95 L 25.26,42.21 C 25.24,42.25 25.26,42.28 25.3,42.29 L 25.42,42.31 C 25.47,42.31 25.5,42.3 25.49,42.25 L 25.46,41.96 C 25.46,41.9 25.44,41.9 25.41,41.96 Z" fill="rgb(28, 60, 122)"/>
</svg>
