<?xml version="1.0" encoding="UTF-8"?>
<!-- generated by Finnhub -->
<svg viewBox="0 0 55.5 55.5" xmlns="http://www.w3.org/2000/svg">
<path d="M0 0h55.5v55.5H0z" fill="rgb(239, 242, 248)"/>
<path d="m14.88 37c-3.41-4.4 3.98-12.86 7.32-15.9s12.51-9.65 16.8-6.06c-5.16-1.16-11.78 2.67-16.07 6.82-4.54 3.89-8.9 10.05-8.05 15.14z" fill="url(#f)"/>
<path d="m41.12 37c3.41-4.4-3.98-12.86-7.32-15.9s-12.51-9.65-16.8-6.06c5.16-1.16 11.78 2.67 16.07 6.82 4.54 3.89 8.9 10.05 8.05 15.14z" fill="url(#e)"/>
<path d="M12 28c.59-4.87 11.57-6 16-6s15.41 1.13 16 6c-2.86-3.8-10.14-5.23-16-5.07-5.86-.16-13.14 1.26-16 5.07Z" fill="url(#d)"/>
<path d="M40.35 15c1.44 3.7-2.04 10.84-8.27 16.72-6.23 5.89-13.51 8.92-17.08 7.22.38.41.75.8 1.13 1.23 3.52 3.8 12.05 1.5 19.05-5.1 7-6.62 9.82-15.05 6.3-18.85L40.35 15Z" fill="url(#c)"/>
<path d="M15.65 15c-1.44 3.7 2.04 10.84 8.27 16.72 6.23 5.89 13.51 8.92 17.08 7.22-.38.41-.75.8-1.13 1.23-3.52 3.8-12.05 1.5-19.05-5.1-7-6.62-9.82-15.05-6.3-18.85L15.65 15Z" fill="url(#b)"/>
<path d="M45 29c-1.43 3.67-8.64 6.46-17 6.46S12.43 32.67 11 29v1.66C11 35.82 18.61 40 28 40s17-4.18 17-9.34V29Z" fill="url(#a)"/>
<defs>
<linearGradient id="f" x1="35.17" x2="11.68" y1="11.06" y2="33.68" gradientUnits="userSpaceOnUse">
<stop stop-color="rgb(128, 90, 49)" offset="0"/>
<stop stop-color="rgb(113, 76, 45)" offset=".08"/>
<stop stop-color="rgb(232, 194, 124)" offset=".29"/>
<stop stop-color="rgb(121, 84, 54)" offset=".58"/>
<stop stop-color="rgb(248, 230, 134)" offset=".69"/>
<stop stop-color="rgb(100, 71, 27)" offset=".91"/>
</linearGradient>
<linearGradient id="e" x1="20.83" x2="44.32" y1="11.06" y2="33.68" gradientUnits="userSpaceOnUse">
<stop stop-color="rgb(128, 90, 49)" offset="0"/>
<stop stop-color="rgb(113, 76, 45)" offset=".08"/>
<stop stop-color="rgb(232, 194, 124)" offset=".29"/>
<stop stop-color="rgb(121, 84, 54)" offset=".58"/>
<stop stop-color="rgb(248, 230, 134)" offset=".69"/>
<stop stop-color="rgb(100, 71, 27)" offset=".91"/>
<stop stop-color="rgb(121, 80, 40)" offset="1"/>
</linearGradient>
<linearGradient id="d" x1="44" x2="12" y1="23.15" y2="23.15" gradientUnits="userSpaceOnUse">
<stop stop-color="rgb(128, 90, 49)" offset="0"/>
<stop stop-color="rgb(113, 76, 45)" offset=".08"/>
<stop stop-color="rgb(232, 194, 124)" offset=".29"/>
<stop stop-color="rgb(121, 84, 54)" offset=".58"/>
<stop stop-color="rgb(248, 230, 134)" offset=".69"/>
<stop stop-color="rgb(100, 71, 27)" offset=".91"/>
<stop stop-color="rgb(121, 80, 40)" offset="1"/>
</linearGradient>
<linearGradient id="c" x1="41.79" x2="16.23" y1="16.55" y2="40.26" gradientUnits="userSpaceOnUse">
<stop stop-color="rgb(128, 90, 49)" offset="0"/>
<stop stop-color="rgb(113, 76, 45)" offset=".08"/>
<stop stop-color="rgb(232, 194, 124)" offset=".29"/>
<stop stop-color="rgb(121, 84, 54)" offset=".58"/>
<stop stop-color="rgb(248, 230, 134)" offset=".69"/>
<stop stop-color="rgb(100, 71, 27)" offset=".91"/>
<stop stop-color="rgb(121, 80, 40)" offset="1"/>
</linearGradient>
<linearGradient id="b" x1="14.21" x2="39.77" y1="16.55" y2="40.26" gradientUnits="userSpaceOnUse">
<stop stop-color="rgb(128, 90, 49)" offset="0"/>
<stop stop-color="rgb(113, 76, 45)" offset=".08"/>
<stop stop-color="rgb(232, 194, 124)" offset=".29"/>
<stop stop-color="rgb(121, 84, 54)" offset=".58"/>
<stop stop-color="rgb(248, 230, 134)" offset=".69"/>
<stop stop-color="rgb(100, 71, 27)" offset=".91"/>
<stop stop-color="rgb(121, 80, 40)" offset="1"/>
</linearGradient>
<linearGradient id="a" x1="45" x2="11" y1="31.11" y2="31.11" gradientUnits="userSpaceOnUse">
<stop stop-color="rgb(128, 90, 49)" offset="0"/>
<stop stop-color="rgb(113, 76, 45)" offset=".08"/>
<stop stop-color="rgb(232, 194, 124)" offset=".29"/>
<stop stop-color="rgb(121, 84, 54)" offset=".58"/>
<stop stop-color="rgb(248, 230, 134)" offset=".69"/>
<stop stop-color="rgb(100, 71, 27)" offset=".91"/>
<stop stop-color="rgb(121, 80, 40)" offset="1"/>
</linearGradient>
</defs>
</svg>
