<?xml version="1.0" encoding="UTF-8"?>
<!-- generated by Finnhub -->
<svg viewBox="0 0 55.5 55.5" xmlns="http://www.w3.org/2000/svg">
<path d="M0 0h55.5v55.5H0z" fill="rgb(239, 242, 248)"/>
<path d="M24.9 39.9v-1.7h-5.7v1.7h5.7Zm-.14.2H19.2v.04l-3.1 1.16h7.46l1.2-1.2ZM15 41.5l4-1.5v-2h18v2l3.94 1.5H15Zm16.75-.2h-7.9l1.2-1.2h5.9l.8 1.2Zm.24 0h7.86l-3.05-1.16v-.04h-5.61l.8 1.2Zm-.89-1.4h5.7v-1.7h-5.7v1.7Zm-.2-1.7h-5.8v1.7h5.8v-1.7Z" fill="rgb(36, 55, 121)" fill-rule="evenodd"/>
<path d="M19 25v-2h18v2H19ZM24 22h-5c-.4-5.6 5-10.5 8-11l1-3 1 3c5.72 1.25 7.67 8 8 11h-5c0-4-2-9-4-10.5C26 13 24 18 24 22Z" fill="rgb(36, 55, 121)"/>
<path d="m31.5 22h-7c0-3.5 1.5-7 3.5-9 2 2 3.5 5.5 3.5 9z" fill="rgb(36, 55, 121)"/>
<path d="M19 23h18l1.5-1h-21l1.5 1Zm-.84-.8.9.6h17.88l.9-.6H18.16Z" fill="rgb(36, 55, 121)" fill-rule="evenodd"/>
<path d="M18 37h20v1H18zM17 42h22l-.5 2h-21l-.5-2ZM41 41.5v.5H15v-.5h26Z" fill="rgb(36, 55, 121)"/>
<path d="M31 37.5V25.8h6v11.7h-6Zm5.8-.2V26h-5.6v11.3h5.6ZM19 37.5V25.8h6v11.7h-6Zm5.8-.2V26h-5.6v11.3h5.6Z" fill="rgb(36, 55, 121)"/>
<path d="m20.5 28h1v-1.5c-0.33 0-1 0.3-1 1.5zm0 1h1v2h-1v-2zm1 3h-1v2h1v-2zm-1 3h1v1h-1v-1zm2.5-7h-1v-1.5c0.33 0 1 0.3 1 1.5zm0 1h-1v2h1v-2zm-1 3h1v2h-1v-2zm1 3h-1v1h1v-1zm3.5-7h1v-1.5c-0.33 0-1 0.3-1 1.5zm0 1h1v2h-1v-2zm1 3h-1v2h1v-2zm-1 3h1v1h-1v-1zm2.5-7h-1v-1.5c0.33 0 1 0.3 1 1.5zm0 1h-1v2h1v-2zm-1 3h1v2h-1v-2zm1 3h-1v1h1v-1zm4-7h1v-1.5c-0.33 0-1 0.3-1 1.5zm0 1h1v2h-1v-2zm1 3h-1v2h1v-2zm-1 3h1v1h-1v-1zm2.5-7h-1v-1.5c0.33 0 1 0.3 1 1.5zm0 1h-1v2h1v-2zm-1 3h1v2h-1v-2zm1 3h-1v1h1v-1z" fill="rgb(36, 55, 121)"/>
</svg>
