<?xml version="1.0" encoding="UTF-8"?>
<!-- generated by Finnhub -->
<svg viewBox="0 0 55.5 55.5" xmlns="http://www.w3.org/2000/svg">
<path d="M 0,0 H 55.5 V 55.5 H 0 Z" fill="rgb(239, 242, 248)"/>
<path d="M 19.49,24.985 A 4.43,4.43 0 0,0 15.22,22 C 11.98,22 10,25.08 10,28 C 10,30.97 12.03,34 15.31,34 C 17.79,34 19.65,32.52 19.65,30 H 16 V 28 H 22 V 29.59 C 22,33.42 19.05,36 15.31,36 C 10.74,36 8,32.36 8,28 C 8,23.75 10.69,20 15.2,20 C 18.3,20 21.32,21.8 21.89,25 H 19.5 Z M 32.43,24 C 32.24,22.36 30.55,22 29.09,22 C 27.71,22 25.44,22.66 25.44,24.32 C 25.44,27.67 35,26.5 35,31.45 C 35,34.65 31.8,36 29.03,36 C 26.17,36 23.18,34.65 23,31.45 H 25.44 C 25.59,33.27 27.42,34 29.02,34 C 30.54,34 33,33.26 33,31.43 C 33,28.62 23.5,29.53 23.5,24.46 C 23.5,21.44 26.5,20 29.15,20 C 31.72,20 34.71,21.08 34.78,24 H 32.43 Z M 37,36 V 20 H 42.58 C 45.69,20 48,21.8 48,25 S 45.69,30 42.57,30 H 38.37 V 28 H 42.74 C 44.67,28 46,26.97 46,25 C 46,23 44.64,22 42.7,22 H 39 V 36 H 37 Z"/>
</svg>
