<?xml version="1.0" encoding="UTF-8"?>
<!-- generated by Finnhub -->
<svg viewBox="0 0 55.5 55.5" xmlns="http://www.w3.org/2000/svg">
<path d="M 0,0 H 55.5 V 55.5 H 0 Z" fill="rgb(239, 242, 248)"/>
<path d="M 4.99,27.985 H 7.03 V 27.7 H 6.6 L 7.14,25.76 H 7.94 L 8.04,26.3 H 8.39 L 8.8,24.86 H 8.43 L 8.01,25.3 H 7.27 L 7.76,23.52 H 8.8 C 8.92,23.55 9.17,23.75 9.17,24.29 H 9.57 L 9.97,23 H 9.85 L 9.65,23.14 H 6.28 L 6.21,23.44 H 6.51 C 6.58,23.46 6.71,23.54 6.6,23.69 L 5.48,27.71 H 5 V 28 Z M 11.25,24.7 L 11.31,24.5 H 9.85 L 9.79,24.7 L 10.14,24.8 L 9.37,27.57 L 8.99,27.81 L 8.9,28 H 10.3 L 10.36,27.75 L 10.16,27.57 L 10.94,24.81 L 11.25,24.7 Z M 12.77,24.82 H 13.79 L 13.9,25.36 H 14.2 L 14.46,24.38 H 14.34 L 14.15,24.5 H 11.65 L 11.63,24.66 L 11.62,24.71 L 11.96,24.81 L 11.19,27.57 L 10.82,27.81 L 10.72,28 H 12.12 L 12.18,27.75 L 11.98,27.57 L 12.33,26.34 H 13.05 L 13.17,26.71 H 13.37 L 13.57,25.78 H 13.32 L 13.05,26.11 H 12.4 L 12.77,24.81 Z M 14.27,25.35 H 14.55 C 14.65,25.17 14.87,24.8 15.07,24.8 H 15.49 L 15.56,24.82 L 14.79,27.57 L 14.42,27.81 L 14.32,28 H 15.72 L 15.78,27.75 L 15.58,27.57 L 16.37,24.82 L 16.43,24.8 H 16.91 A 0.6,0.6 0 0,1 17.11,25.35 H 17.41 L 17.61,24.39 H 17.51 L 17.38,24.5 H 14.62 V 24.39 H 14.51 L 14.27,25.35 Z M 33.99,25.36 H 33.71 L 33.95,24.4 H 34.06 V 24.5 H 36.83 L 36.95,24.4 H 37.05 L 36.86,25.36 H 36.56 A 0.6,0.6 0 0,0 36.36,24.81 H 35.88 L 35.81,24.83 L 35.03,27.57 L 35.23,27.75 L 35.17,28 H 33.77 L 33.86,27.81 L 34.24,27.57 L 35,24.83 L 34.93,24.81 H 34.51 C 34.31,24.81 34.09,25.18 33.99,25.36 Z M 45.67,25.36 H 45.95 C 46.04,25.18 46.27,24.81 46.47,24.81 H 46.89 L 46.96,24.83 L 46.19,27.57 L 45.81,27.81 L 45.72,28 H 47.12 L 47.18,27.75 L 46.98,27.57 L 47.77,24.83 L 47.83,24.81 H 48.31 A 0.6,0.6 0 0,1 48.51,25.36 H 48.81 L 49,24.4 H 48.9 L 48.78,24.5 H 46.02 V 24.4 H 45.91 L 45.67,25.36 Z M 19.19,24.5 L 19.13,24.7 L 18.82,24.8 L 18.47,26.05 H 19.9 L 20.24,24.81 L 19.9,24.7 L 19.96,24.5 H 21.42 L 21.36,24.7 L 21.06,24.8 L 20.26,27.57 L 20.46,27.75 L 20.41,28 H 19.01 L 19.1,27.8 L 19.48,27.57 L 19.84,26.25 H 18.41 L 18.03,27.57 L 18.23,27.75 L 18.18,28 H 16.78 L 16.87,27.8 L 17.24,27.57 L 18.01,24.81 L 17.67,24.7 L 17.73,24.5 H 19.19 Z M 30.48,24.7 L 30.53,24.5 H 29.07 L 29.02,24.7 L 29.36,24.8 L 28.59,27.57 L 28.21,27.81 L 28.12,28 H 29.52 L 29.58,27.75 L 29.38,27.57 L 30.17,24.81 L 30.47,24.7 Z M 42.08,24.5 L 42.02,24.7 L 41.71,24.8 L 40.92,27.57 L 41.12,27.75 L 41.07,28 H 38.67 L 38.11,26.42 H 37.88 L 37.5,27.62 L 37.8,27.86 V 28 H 36.27 L 36.35,27.77 L 36.77,27.55 L 37.54,24.72 H 37.24 V 24.5 H 39.1 C 39.87,24.5 40.06,24.99 40.05,25.23 C 40,25.88 39.31,26.21 38.75,26.35 C 38.89,26.4 38.98,26.5 39.01,26.55 L 39.52,27.8 H 39.73 V 27.86 L 39.76,27.81 L 40.13,27.57 L 40.9,24.81 L 40.56,24.7 L 40.62,24.5 H 42.08 Z M 23.34,27.7 L 23.25,28 H 25.7 C 26.6,27.98 28.41,27.34 28.41,24.91 C 28.41,24.28 28.09,23 26.91,23 H 24.45 L 24.36,23.28 H 24.85 L 23.65,27.7 H 23.34 Z M 25.88,23.36 L 24.82,27.66 H 25.52 C 26.12,27.55 27.33,26.76 27.33,24.59 C 27.33,23.62 26.86,23.36 26.62,23.36 H 25.88 Z M 30.18,27.84 L 30.48,26.96 H 30.68 C 30.71,27.22 30.91,27.75 31.52,27.75 C 32.28,27.75 32.44,27.08 31.89,26.71 L 31.85,26.68 C 31.32,26.33 30.88,26.04 30.88,25.45 C 30.88,24.85 31.51,24.5 32.24,24.5 C 32.58,24.5 32.71,24.6 32.82,24.68 C 32.94,24.78 33.02,24.83 33.34,24.65 H 33.57 L 33.29,25.5 H 33.06 C 33.02,25.26 32.82,24.8 32.34,24.8 C 31.74,24.8 31.61,25.47 32.16,25.8 L 32.26,25.86 C 32.76,26.16 33.15,26.39 33.15,26.99 C 33.15,27.64 32.56,28 31.52,28 C 31.22,28 31.08,27.9 30.97,27.8 C 30.9,27.75 30.83,27.7 30.74,27.7 C 30.55,27.7 30.46,27.8 30.44,27.84 H 30.18 Z M 38.05,26.09 L 38.41,24.74 H 38.76 C 38.9,24.75 39.19,24.85 39.19,25.22 C 39.19,25.84 38.67,26.06 38.41,26.09 H 38.05 Z M 44.75,27.14 L 45.03,27.38 C 44.88,27.58 44.33,28 43.4,28 C 42.24,28 42.13,26.9 42.13,26.52 C 42.13,26.12 42.59,24.5 44.24,24.5 C 44.66,24.5 44.82,24.61 44.94,24.69 C 45.01,24.74 45.06,24.77 45.14,24.77 C 45.32,24.77 45.36,24.67 45.36,24.61 H 45.6 L 45.28,25.61 H 44.97 C 45,25.34 44.91,24.77 44.35,24.77 C 43.65,24.77 42.98,25.76 42.98,26.92 C 42.98,27.48 43.27,27.68 43.62,27.67 C 44.01,27.67 44.47,27.42 44.75,27.14 Z M 18.22,31.4 H 18.41 L 18.56,31.26 C 18.64,31.34 18.89,31.5 19.23,31.5 C 19.66,31.5 20.18,31.24 20.18,30.76 C 20.18,30.31 19.71,30 19.51,29.87 L 19.47,29.85 C 19.31,29.73 19.27,29.61 19.27,29.51 C 19.27,29.41 19.34,29.23 19.65,29.23 C 19.89,29.23 20.06,29.52 20.12,29.67 H 20.29 L 20.45,29.09 H 20.31 L 20.13,29.23 C 20.1,29.15 19.93,29 19.47,29 C 18.91,29 18.73,29.48 18.73,29.77 C 18.73,30.07 19.13,30.43 19.27,30.53 C 19.42,30.63 19.65,30.83 19.65,30.98 C 19.65,31.15 19.56,31.26 19.15,31.26 C 18.81,31.26 18.65,30.98 18.61,30.83 H 18.37 L 18.22,31.39 Z M 27.16,29.14 L 27.2,29 H 26.14 L 26.1,29.14 L 26.35,29.22 L 25.8,31.19 L 25.52,31.36 L 25.46,31.5 H 26.47 L 26.51,31.32 L 26.37,31.19 L 26.93,29.22 L 27.16,29.14 Z M 32.98,30.75 L 32.78,31.39 H 32.95 C 32.97,31.35 33.03,31.29 33.15,31.29 C 33.22,31.29 33.25,31.32 33.31,31.36 A 0.5,0.5 0 0,0 33.67,31.5 C 34.37,31.5 34.77,31.24 34.77,30.78 C 34.77,30.35 34.5,30.18 34.17,29.98 L 34.1,29.93 C 33.73,29.69 33.82,29.22 34.22,29.22 C 34.54,29.22 34.67,29.55 34.7,29.72 H 34.86 L 35.05,29.11 H 34.89 C 34.67,29.24 34.62,29.19 34.54,29.13 C 34.47,29.07 34.38,29 34.16,29 C 33.66,29 33.24,29.25 33.24,29.68 C 33.24,30.1 33.54,30.31 33.89,30.56 L 33.92,30.58 C 34.29,30.84 34.18,31.32 33.67,31.32 C 33.27,31.32 33.13,30.94 33.12,30.75 H 32.98 Z M 20.45,31.5 H 21.41 V 31.35 H 21.08 C 21.06,31.3 21.08,31.15 21.21,30.98 L 21.36,30.75 H 22.24 L 22.32,31.35 H 22 V 31.5 H 23 V 31.35 H 22.8 L 22.4,29 H 22.2 L 20.74,31.35 H 20.44 V 31.5 Z M 22.22,30.6 L 22.08,29.68 L 21.47,30.59 H 22.22 Z M 39.93,31.5 H 38.97 V 31.36 H 39.27 L 40.73,29 H 40.93 L 41.33,31.35 H 41.53 V 31.49 H 40.51 V 31.35 H 40.84 L 40.76,30.75 H 39.88 L 39.73,30.97 C 39.61,31.14 39.58,31.29 39.6,31.35 H 39.93 V 31.49 Z M 40.6,29.69 L 40.74,30.59 H 39.99 L 40.6,29.69 Z M 24.94,29 H 25.91 V 29.15 H 25.61 L 24.14,31.5 H 23.94 L 23.54,29.15 H 23.34 V 29 H 24.37 V 29.15 H 24.03 L 24.27,30.82 L 25.15,29.52 C 25.27,29.36 25.29,29.2 25.28,29.15 H 24.94 V 29 Z M 27.08,31.5 H 27.88 V 31.32 H 27.6 L 28.06,29.51 L 28.87,31.5 H 29.13 L 29.75,29.15 H 29.93 V 29 H 29.27 V 29.15 H 29.57 L 29.13,30.63 L 28.53,29 H 27.77 V 29.15 H 27.97 L 27.37,31.32 H 27.07 V 31.5 Z M 42.66,31.5 H 41.86 V 31.34 H 42.16 L 42.76,29.27 H 42.56 V 29.13 H 43.31 L 43.91,30.68 L 44.35,29.27 H 44.05 V 29.13 H 44.72 V 29.27 H 44.53 L 43.91,31.51 H 43.65 L 42.85,29.61 L 42.38,31.34 H 42.66 V 31.51 Z M 32.38,29.04 H 32.63 L 32.43,29.82 H 32.25 C 32.27,29.6 32.21,29.17 31.76,29.17 C 31.21,29.17 30.82,30.07 30.82,30.67 C 30.82,31.25 31.05,31.32 31.31,31.32 C 31.56,31.32 31.78,31 31.86,30.57 C 31.83,30.57 31.66,30.47 31.58,30.41 V 30.28 H 32.48 V 30.41 L 32.29,30.54 V 31.24 C 32.21,31.32 31.89,31.5 31.31,31.5 C 30.57,31.5 30.23,31.08 30.23,30.41 C 30.23,29.74 30.92,29 31.73,29 C 31.93,29 32.03,29.06 32.1,29.11 C 32.15,29.14 32.2,29.17 32.25,29.17 C 32.37,29.17 32.39,29.08 32.38,29.04 Z M 36.5,31.51 H 38.03 C 38.28,31.51 38.79,31.36 38.79,30.79 C 38.79,30.47 38.42,30.29 38.23,30.24 C 38.48,30.18 38.97,29.97 38.97,29.61 C 38.97,29.17 38.63,29.11 38.48,29.11 H 37.15 L 37.08,29.31 H 37.33 L 36.78,31.33 H 36.55 L 36.5,31.51 Z M 37.63,30.18 L 37.86,29.28 H 38.08 C 38.17,29.3 38.35,29.38 38.35,29.57 C 38.35,29.83 38.09,30.09 37.96,30.18 H 37.63 Z M 37.33,31.33 L 37.58,30.41 H 37.9 C 38,30.43 38.23,30.51 38.23,30.7 C 38.23,30.97 37.91,31.24 37.75,31.33 H 37.34 Z M 46.15,29.27 V 29.13 H 45.25 L 45.21,29.27 H 45.52 L 44.93,31.35 H 44.63 V 31.49 H 45.63 L 45.68,31.35 H 45.47 L 45.71,30.37 L 46.32,31.37 H 46.09 L 46.05,31.51 H 47.03 L 47.07,31.36 H 46.81 L 46.19,30.06 L 46.99,29.28 H 47.31 V 29.13 H 46.52 L 46.49,29.28 H 46.73 L 45.92,30.12 H 45.77 L 45.97,29.27 H 46.15 Z" fill="rgb(1, 41, 93)" fill-rule="evenodd"/>
<path d="M 39.72,33.985 C 33.83,34 30.31,32.79 29.09,32.08 C 28.99,32.02 28.97,31.88 29.05,31.78 A 0.19,0.19 0 0,1 29.27,31.74 C 30.4,32.24 33.47,33.12 37.89,33.12 C 46.88,33.12 48.97,31.22 48.97,30.6 C 48.97,30.18 48.37,29.66 47.93,29.37 A 0.24,0.24 0 0,1 47.86,29.05 L 47.89,29 C 48.59,29.19 50,29.81 50,30.85 C 50,32.15 47.51,34 39.73,34 Z" fill="rgb(1, 176, 131)"/>
</svg>
