<?xml version="1.0" encoding="UTF-8"?>
<!-- generated by Finnhub -->
<svg viewBox="0 0 55.5 55.5" xmlns="http://www.w3.org/2000/svg">
<path d="M 0,0 H 55.5 V 55.5 H 0 Z" fill="rgb(239, 242, 248)"/>
<path d="M 17.22,33.985 C 14.47,34 12,32.47 12,29.48 C 12,26.86 14.08,25 16.65,25 C 18.98,25 21,26.9 21,29.32 C 21,29.77 20.76,30 20.17,30 H 14.67 C 14.67,30.41 15.36,31.7 17.32,31.7 A 5.3,5.3 0 0,0 19.2,31.34 C 19.52,31.22 19.78,31.2 20.01,31.29 C 20.24,31.36 20.41,31.49 20.53,31.67 C 20.66,31.85 20.73,32.05 20.75,32.28 C 20.76,32.51 20.71,32.73 20.59,32.95 C 20.47,33.15 20.27,33.32 19.99,33.44 A 7.22,7.22 0 0,1 17.22,34 Z" fill="rgb(229, 1, 35)"/>
<path d="M 16.47,27.974999999999998 C 16.59,28.54 16.25,28.99 15.71,29 C 15.17,29 14.64,28.56 14.52,28.01 C 14.41,27.46 14.75,27.01 15.29,27 C 15.83,27 16.36,27.44 16.48,27.99 Z" fill="rgb(253, 248, 247)"/>
<path d="M 15.700000000000001,28.985 C 16.25,29 16.59,28.54 16.48,27.99 A 1.28,1.28 0 0,0 16.01,27.26 A 0.99,0.99 0 0,0 15.86,27.25 C 15.32,27.25 14.98,27.71 15.1,28.26 C 15.16,28.55 15.33,28.81 15.57,28.99 A 1,1 0 0,0 15.71,29 Z" fill="rgb(34, 23, 19)"/>
<path d="M 19.47,27.974999999999998 C 19.59,28.54 19.25,28.99 18.71,29 C 18.17,29 17.64,28.56 17.52,28.01 C 17.41,27.46 17.75,27.01 18.29,27 C 18.83,27 19.36,27.44 19.48,27.99 Z" fill="rgb(253, 248, 247)"/>
<path d="M 18.7,28.985 C 19.25,29 19.59,28.54 19.48,27.99 A 1.28,1.28 0 0,0 19.01,27.26 A 0.99,0.99 0 0,0 18.86,27.25 C 18.32,27.25 17.98,27.71 18.1,28.26 C 18.16,28.55 18.33,28.81 18.57,28.99 A 1,1 0 0,0 18.71,29 Z" fill="rgb(34, 23, 19)"/>
<path d="M 13.49,26.485 L 12,24 L 14,25 V 23 L 15.5,24.5 L 16.5,23 V 26 L 13.5,26.5 Z" fill="rgb(254, 238, 2)"/>
<path d="M 11.99,23.985 L 13.5,26.5 L 16.5,26 V 23 L 15.5,24.5 L 14,23 V 25 L 12,24 Z M 14.2,23.48 V 25.32 L 12.52,24.49 L 13.6,26.28 L 16.3,25.83 V 23.66 L 15.53,24.81 L 14.2,23.48 Z" fill="rgb(34, 23, 19)" fill-rule="evenodd"/>
<path d="M 23.54,33.985 C 22.55,34 22,33.45 22,32.42 V 26.6 C 22,25.58 22.51,25 23.5,25 C 24.5,25 25.08,25.6 25.08,26.6 V 27.43 L 24.88,26.71 A 3.3,3.3 0 0,1 27.93,25 C 30.16,25 31.01,26.68 31.01,28.73 V 32.42 C 31.01,33.45 30.53,34 29.51,34 S 28.01,33.45 28.01,32.42 V 28.85 C 28.01,27.81 27.47,27.39 26.75,27.39 A 1.7,1.7 0 0,0 25,29.04 V 32.42 C 25,33.47 24.62,34 23.55,34 Z M 5.5,34 C 4.45,34 4,33.38 4,32.34 V 22.73 C 4,21.59 4.62,21 5.72,21 H 11.71 C 12.57,21 13,21.67 13,22.5 C 13,23.34 12.58,24 11.7,24 H 7 V 26 H 10.5 C 11.35,26 12,26.69 12,27.5 C 12,28.34 11.35,29 10.5,29 H 7 V 32.34 C 7,33.5 6.59,34 5.5,34 Z" fill="rgb(229, 1, 35)"/>
<path d="M 34.88,33.105 C 35.61,33.83 37.03,34 38,34 C 40.6,34 42,31.8 42,29.4 C 42,26.99 40.6,25 38,25 C 37.12,25 35.77,25.21 35,25.84 V 22.5 C 35,21.46 34.58,21 33.5,21 C 32.46,21 32,21.45 32,22.5 V 32.35 C 32,33.41 32.45,34 33.5,34 C 34.26,34 34.7,33.69 34.89,33.12 Z M 37.5,30.5 A 1,1 0 1,0 37.5,28.5 A 1,1 0 0,0 37.5,30.5 Z M 45.14,33.46 C 45.81,33.82 46.6,34 47.51,34 C 48.18,34 48.8,33.9 49.35,33.7 A 3.96,3.96 0 0,0 51.69,31.37 A 5.3,5.3 0 0,0 52,29.5 A 4.8,4.8 0 0,0 51.44,27.1 A 3.75,3.75 0 0,0 49.88,25.54 A 4.94,4.94 0 0,0 47.5,25 C 46.81,25 46.2,25.1 45.64,25.32 A 3.81,3.81 0 0,0 43.3,27.62 A 5.22,5.22 0 0,0 43,29.5 C 43,30.42 43.19,31.22 43.56,31.9 C 43.94,32.58 44.46,33.1 45.14,33.46 Z M 47.5,30.5 A 1,1 0 1,0 47.5,28.5 A 1,1 0 0,0 47.5,30.5 Z" fill="rgb(229, 1, 35)" fill-rule="evenodd"/>
</svg>
