<?xml version="1.0" encoding="UTF-8"?>
<!-- generated by Finnhub -->
<svg viewBox="0 0 55.5 55.5" xmlns="http://www.w3.org/2000/svg">
<path d="M 0,0 H 55.5 V 55.5 H 0 Z" fill="rgb(254, 198, 2)"/>
<path d="M 6.468,23.15 C 6.924,23.003 7.475,22.99 7.945,23.005 C 8.153,23.01 8.361,23.02 8.565,23.054 C 8.67,23.073 8.775,23.096 8.868,23.15 C 8.95,23.198 9.008,23.292 8.999,23.389 C 8.985,23.569 8.975,23.749 8.959,23.928 C 8.947,24.03 8.942,24.138 8.892,24.229 A 0.165,0.165 0 0,1 8.745,24.311 C 8.385,24.315 8.021,24.256 7.662,24.307 C 7.396,24.344 7.132,24.463 6.967,24.677 C 6.757,24.944 6.697,25.293 6.682,25.623 C 6.672,25.9 6.679,25.723 6.677,26 H 8.141 C 8.247,26.002 8.364,26.022 8.441,26.1 C 8.514,26.175 8.529,26.283 8.531,26.382 V 26.939 C 8.531,27.037 8.511,27.144 8.436,27.215 C 8.352,27.295 8.23,27.312 8.119,27.313 H 6.678 L 6.677,32.636 C 6.677,32.746 6.647,32.867 6.552,32.935 C 6.466,32.997 6.354,33.002 6.251,32.999 H 5.366 C 5.264,32.999 5.152,32.975 5.083,32.896 C 5.016,32.82 5.001,32.714 5,32.616 V 27.314 H 4.402 C 4.3,27.312 4.188,27.3 4.108,27.23 C 4.026,27.158 4.003,27.045 4.001,26.941 C 3.999,26.755 4.001,26.568 4.001,26.381 A 0.377,0.377 0 0,1 4.097,26.1 A 0.4,0.4 0 0,1 4.38,26 H 5 C 4.993,25.392 5,25.229 5.171,24.64 C 5.27,24.3 5.425,23.97 5.664,23.703 A 1.94,1.94 0 0,1 6.478,23.165 Z M 50.155,23.01 C 50.237,23 50.339,22.985 50.405,23.046 C 50.458,23.109 50.451,23.196 50.455,23.272 V 30.594 C 50.461,30.811 50.466,31.03 50.521,31.243 A 0.673,0.673 0 0,0 50.749,31.621 C 50.889,31.727 51.073,31.757 51.248,31.759 C 51.415,31.766 51.582,31.733 51.748,31.751 C 51.84,31.761 51.888,31.846 51.902,31.925 C 51.934,32.117 51.96,32.311 51.989,32.504 C 52.001,32.583 52.013,32.67 51.965,32.742 C 51.893,32.854 51.755,32.904 51.628,32.936 C 51.354,33.001 51.068,33.001 50.788,32.998 C 50.414,32.986 50.03,32.928 49.697,32.755 A 1.428,1.428 0 0,1 49.109,32.192 C 48.947,31.912 48.874,31.592 48.833,31.277 C 48.779,30.848 48.791,30.416 48.789,29.985 V 23.726 C 48.789,23.626 48.792,23.514 48.86,23.43 C 48.935,23.34 49.055,23.3 49.166,23.267 C 49.495,23.177 49.821,23.078 50.155,23.01 Z M 38.95,23.665 C 39.335,23.605 39.74,23.785 39.952,24.095 A 0.856,0.856 0 0,1 40.04,24.928 A 1.013,1.013 0 0,1 39.12,25.522 A 1.004,1.004 0 0,1 38.344,25.19 C 38.081,24.89 38.056,24.434 38.249,24.095 C 38.389,23.851 38.665,23.697 38.95,23.665 Z M 10.001,26.469 C 10.556,26.105 11.237,25.988 11.891,26.001 C 12.484,26.009 13.097,26.123 13.596,26.455 C 13.894,26.652 14.136,26.925 14.306,27.237 C 14.499,27.586 14.606,27.975 14.666,28.367 C 14.719,28.742 14.738,29.122 14.716,29.499 C 14.702,29.677 14.678,29.869 14.563,30.012 C 14.468,30.129 14.311,30.168 14.166,30.168 H 10.433 C 10.439,30.513 10.475,30.883 10.689,31.168 C 10.887,31.438 11.215,31.571 11.535,31.631 C 11.962,31.71 12.4,31.702 12.831,31.664 C 13.133,31.634 13.431,31.571 13.721,31.478 C 13.828,31.448 13.934,31.403 14.047,31.4 C 14.127,31.416 14.175,31.488 14.219,31.549 C 14.327,31.719 14.399,31.909 14.457,32.099 C 14.485,32.197 14.517,32.311 14.454,32.402 C 14.359,32.546 14.196,32.623 14.044,32.69 C 13.664,32.842 13.256,32.915 12.851,32.963 C 12.361,33.018 11.866,33.008 11.376,32.955 C 10.959,32.905 10.542,32.812 10.162,32.628 A 2.252,2.252 0 0,1 9.432,32.081 A 2.51,2.51 0 0,1 8.948,31.201 A 4.97,4.97 0 0,1 8.734,29.875 C 8.706,29.162 8.75,28.43 9.003,27.756 C 9.194,27.24 9.533,26.769 10.001,26.469 Z M 11.495,27.347 C 11.191,27.389 10.893,27.539 10.72,27.797 C 10.483,28.145 10.439,28.591 10.436,29 H 13.089 C 13.093,28.731 13.086,28.448 13.011,28.187 C 12.936,27.912 12.775,27.65 12.526,27.5 C 12.22,27.312 11.842,27.298 11.495,27.347 Z M 17.694,26.095 A 5.131,5.131 0 0,1 19.154,26.02 C 19.306,26.038 19.468,26.054 19.603,26.139 C 19.673,26.182 19.714,26.267 19.698,26.35 C 19.666,26.602 19.614,26.85 19.574,27.1 C 19.555,27.202 19.524,27.324 19.424,27.372 C 19.317,27.416 19.2,27.381 19.09,27.372 C 18.538,27.302 17.952,27.38 17.469,27.672 V 32.598 C 17.467,32.704 17.449,32.819 17.376,32.899 C 17.305,32.975 17.198,32.999 17.099,32.999 H 16.179 C 16.076,32.999 15.962,32.972 15.894,32.887 C 15.826,32.8 15.819,32.684 15.817,32.578 V 26.962 A 4.46,4.46 0 0,1 17.694,26.095 Z M 22.142,26.121 A 4.563,4.563 0 0,1 23.262,26.001 C 23.494,26.003 23.729,26.007 23.958,26.055 C 24.058,26.078 24.168,26.11 24.235,26.195 C 24.277,26.247 24.275,26.319 24.267,26.382 C 24.233,26.612 24.188,26.838 24.151,27.066 C 24.135,27.156 24.118,27.252 24.059,27.323 A 0.213,0.213 0 0,1 23.881,27.393 C 23.733,27.387 23.588,27.358 23.441,27.353 C 22.959,27.325 22.419,27.419 22.001,27.671 C 21.999,29.307 22.001,30.943 22,32.578 C 21.999,32.687 21.986,32.805 21.914,32.891 C 21.844,32.974 21.73,33 21.627,33 H 20.746 C 20.634,32.999 20.509,32.963 20.448,32.861 C 20.379,32.746 20.39,32.606 20.388,32.477 C 20.39,30.637 20.388,28.799 20.39,26.96 A 4.44,4.44 0 0,1 22.142,26.121 Z M 27.14,26.023 A 5.926,5.926 0 0,1 28.428,26.049 C 28.83,26.106 29.23,26.219 29.58,26.429 C 29.813,26.566 30.019,26.748 30.186,26.959 C 30.407,27.24 30.559,27.57 30.658,27.912 C 30.772,28.299 30.821,28.701 30.844,29.102 C 30.864,29.619 30.852,30.14 30.76,30.65 C 30.657,31.237 30.433,31.827 29.998,32.251 C 29.738,32.508 29.411,32.691 29.064,32.806 A 4.192,4.192 0 0,1 27.889,32.996 A 5.213,5.213 0 0,1 26.592,32.893 A 2.727,2.727 0 0,1 25.647,32.499 A 2.224,2.224 0 0,1 24.97,31.768 A 3.436,3.436 0 0,1 24.574,30.613 A 7.312,7.312 0 0,1 24.514,28.861 C 24.571,28.219 24.718,27.558 25.104,27.027 C 25.404,26.607 25.86,26.315 26.353,26.171 C 26.609,26.092 26.873,26.048 27.14,26.023 Z M 27.42,27.333 C 27.193,27.353 26.96,27.403 26.768,27.531 A 1.05,1.05 0 0,0 26.377,28.054 C 26.264,28.357 26.23,28.682 26.21,29.003 C 26.19,29.466 26.19,29.932 26.245,30.393 C 26.285,30.681 26.349,30.977 26.512,31.225 A 0.96,0.96 0 0,0 27.026,31.607 C 27.284,31.69 27.559,31.698 27.828,31.687 C 28.108,31.675 28.402,31.62 28.628,31.444 C 28.82,31.294 28.936,31.071 29.003,30.842 C 29.108,30.484 29.13,30.109 29.141,29.738 C 29.145,29.231 29.148,28.715 29.018,28.222 C 28.942,27.926 28.778,27.631 28.497,27.485 C 28.167,27.315 27.782,27.311 27.42,27.333 Z M 43.09,26.115 C 43.54,26.005 44.006,25.988 44.466,26.007 C 45.228,26.041 45.993,26.192 46.687,26.515 C 46.819,26.577 46.878,26.645 47,26.725 V 30.847 C 47.004,31.044 46.982,31.249 47.054,31.437 A 0.388,0.388 0 0,0 47.31,31.677 C 47.504,31.739 47.708,31.679 47.907,31.696 C 48.001,31.702 48.051,31.796 48.065,31.879 C 48.104,32.095 48.137,32.313 48.164,32.532 A 0.276,0.276 0 0,1 48.118,32.743 C 48.044,32.843 47.924,32.893 47.808,32.927 A 2.577,2.577 0 0,1 47.089,32.999 A 1.218,1.218 0 0,1 46.277,32.697 A 1.221,1.221 0 0,1 45.886,32.089 C 45.459,32.594 44.816,32.883 44.166,32.97 C 43.75,33.02 43.323,33.01 42.913,32.917 A 2.3,2.3 0 0,1 41.972,32.475 A 2.266,2.266 0 0,1 41.385,31.748 A 3.708,3.708 0 0,1 41.028,30.6 A 7.204,7.204 0 0,1 40.968,29.101 C 41.011,28.459 41.14,27.802 41.478,27.244 C 41.643,26.974 41.861,26.734 42.118,26.549 C 42.408,26.339 42.743,26.199 43.09,26.115 Z M 43.29,27.515 C 43.016,27.67 42.855,27.961 42.78,28.257 C 42.66,28.74 42.663,29.242 42.665,29.737 C 42.675,30.17 42.7,30.617 42.874,31.021 C 42.988,31.291 43.21,31.522 43.494,31.616 C 43.826,31.725 44.191,31.709 44.526,31.623 A 1.43,1.43 0 0,0 45.389,30.993 C 45.417,30.95 45.402,30.895 45.406,30.847 V 27.57 A 2.833,2.833 0 0,0 44.422,27.331 C 44.039,27.31 43.63,27.32 43.29,27.515 Z M 31.154,26.113 C 31.215,26.029 31.323,26 31.42,26.001 H 32.478 C 32.611,26.001 32.758,26.04 32.843,26.153 C 32.941,26.283 32.975,26.45 33.028,26.603 C 33.476,28.01 33.927,29.416 34.374,30.823 C 34.861,29.352 35.344,27.879 35.829,26.407 C 35.873,26.286 35.916,26.151 36.022,26.073 C 36.129,25.997 36.264,25.999 36.388,26.001 C 36.687,26.002 36.986,25.999 37.284,26.002 C 37.454,26.007 37.595,26.198 37.524,26.366 C 37.392,26.739 37.244,27.106 37.105,27.478 L 35.145,32.627 C 35.105,32.729 35.069,32.839 34.991,32.918 C 34.921,32.986 34.823,33.001 34.731,33 H 33.932 A 0.412,0.412 0 0,1 33.625,32.89 C 33.511,32.77 33.468,32.605 33.408,32.454 L 31.252,26.746 C 31.208,26.616 31.142,26.494 31.115,26.359 C 31.098,26.276 31.102,26.182 31.155,26.113 Z M 38.605,26.004 C 38.909,25.996 39.214,26.004 39.518,26 C 39.629,25.997 39.753,26.016 39.834,26.103 C 39.914,26.189 39.934,26.314 39.934,26.429 V 32.59 C 39.934,32.708 39.911,32.84 39.818,32.92 C 39.73,32.996 39.608,33.002 39.498,33 L 38.64,32.999 C 38.529,32.998 38.406,32.957 38.345,32.855 C 38.277,32.745 38.284,32.61 38.283,32.485 V 26.451 C 38.283,26.338 38.296,26.216 38.366,26.125 A 0.337,0.337 0 0,1 38.605,26.004 Z" fill="rgb(254, 254, 253)"/>
</svg>
