<!-- by Finnhub --><svg xmlns="http://www.w3.org/2000/svg" width="56" height="56" viewBox="0 0 56 56"><path d="M55.81 0H0v56h55.81V0Z" fill="#194172"/><path d="M30 16c-1.9.92-3.74 2.72-4.25 4l-9.73.02L16 25l7.58.02A12.5 12.5 0 0 0 23 30h-7l.03 10H10V16.05L30 16Zm10.74 18.88A5.22 5.22 0 0 0 43 31.04h-5v-4L48 27c-.03 3.49-.74 6.46-2.38 8.8a9.86 9.86 0 0 1-6.79 4.02c-12 1.78-16.16-9.84-12.6-17.3a11.32 11.32 0 0 1 5.46-5.37c3.52-1.76 9.51-1.62 12.57 1.23.8.75 1.97 1.9 2.47 3.05-.48.35-3.28 1.9-3.8 2.04-.19-.23-.35-.46-.52-.7a5.1 5.1 0 0 0-2.83-2.25 7.33 7.33 0 0 0-8.83 3.08 9.64 9.64 0 0 0-1.11 5.31c.54 6.56 6.9 8.38 11.1 5.97Z" fill="#FEFEFE"/></svg>