<?xml version="1.0" encoding="UTF-8"?>
<!-- generated by Finnhub -->
<svg viewBox="0 0 55.5 55.5" xmlns="http://www.w3.org/2000/svg">
<path d="M0 0h55.5v55.5H0z" fill="rgb(239, 242, 248)"/>
<path d="M21.106 36.227A5.506 5.506 0 0120.003 33v7.214c0 .316.03.63.09.94.355 1.882 1.788 3.585 3.91 4.846v-7.214a9.478 9.478 0 01-2.9-2.546" fill="rgb(1, 71, 101)"/>
<path d="M27.137 24.873c-1.01.319-1.987.735-2.914 1.244-2.244 1.243-3.751 2.927-4.129 4.802-.062.307-.094.62-.094.932V39a5.244 5.244 0 011.168-3.198c1.22-1.598 3.329-2.922 5.978-3.77a21.479 21.479 0 014.431-.899L34 27.366 31.577 24c-1.505.143-2.99.444-4.43.898" fill="rgb(1, 150, 202)"/>
<path d="M36.818 14.13a25.096 25.096 0 00-2.543-.13 23.162 23.162 0 00-6.976 1.033 16.568 16.568 0 00-2.98 1.26c-2.292 1.259-3.836 2.962-4.223 4.86-.064.312-.096.628-.096.945V29a6.728 6.728 0 011.329-2.834c1.226-1.634 3.282-3.408 5.982-4.264a23.181 23.181 0 016.977-1.033c.85 0 1.698.043 2.542.13l2.166-3.535-2.178-3.334z" fill="rgb(76, 183, 221)"/>
</svg>
