<?xml version="1.0" encoding="UTF-8"?>
<!-- generated by Finnhub -->
<svg fill="none" viewBox="0 0 55.5 55.5" xmlns="http://www.w3.org/2000/svg">
<path d="M 0,0 H 55.5 V 55.5 H 0 Z" fill="rgb(65, 60, 60)"/>
<path d="M 14.49,12.485 H 41.5 V 43.5 H 14.5 V 12.5 Z" stroke="rgb(253, 195, 35)"/>
<path d="M 36.966,36.966 C 37.27,37.166 37.514,37.408 37.708,37.706 C 37.903,38.006 38,38.368 38,38.794 C 38,39.229 37.936,39.748 37.763,39.979 C 37.591,40.211 37.291,40.525 36.976,40.7 C 36.712,40.846 36.519,41 35.812,41 H 28.908 V 40.532 C 29.022,40.523 29.188,40.506 29.406,40.479 C 29.624,40.449 29.626,40.446 29.721,40.406 A 0.387,0.387 0 0,0 29.943,40.149 C 29.963,40.079 29.993,39.728 29.993,39.728 L 30.018,33.349 A 0.876,0.876 0 0,0 29.933,32.954 C 29.88,32.84 29.826,32.718 29.665,32.647 C 29.522,32.581 29.509,32.561 29.333,32.526 C 29.158,32.49 29.103,32.468 28.983,32.46 V 31.992 H 34.248 A 5.3,5.3 0 0,1 35.28,32.09 C 35.612,32.156 36.186,32.266 36.485,32.433 C 36.765,32.587 36.995,32.796 37.175,33.059 C 37.355,33.323 37.445,33.644 37.445,34.022 C 37.445,34.352 37.381,34.646 37.253,34.905 A 1.958,1.958 0 0,1 36.713,35.565 C 36.494,35.74 35.983,35.896 35.699,36.019 C 35.419,36.138 35.116,36.229 34.789,36.296 V 36.356 C 35.079,36.386 35.401,36.454 35.756,36.559 C 36.116,36.661 36.696,36.797 36.976,36.981 Z M 34.775,35.577 A 1.55,1.55 0 0,0 35.137,34.957 A 2.65,2.65 0 0,0 35.244,34.16 C 35.244,33.646 35.092,33.244 34.789,32.954 C 34.485,32.66 34.249,32.576 33.579,32.512 C 33.428,32.512 33.189,32.504 32.956,32.512 C 32.728,32.517 32.161,32.534 32.005,32.539 V 36.131 H 33.33 C 33.726,36.088 33.824,36.085 34.099,35.993 C 34.379,35.9 34.604,35.762 34.775,35.577 Z M 35.699,38.56 C 35.699,38.007 35.498,37.552 35.095,37.196 C 34.696,36.84 34.409,36.665 33.665,36.665 C 33.361,36.665 33.105,36.669 32.897,36.678 C 32.687,36.683 32.109,36.687 32.005,36.691 L 31.979,39.642 C 31.979,39.919 32.107,40.128 32.349,40.268 C 32.591,40.409 33.474,40.374 33.763,40.374 C 34.825,40.374 35.04,40.206 35.318,39.979 C 35.627,39.728 35.699,39.303 35.699,38.56 Z" fill="rgb(252, 195, 35)"/>
<path d="M 24.979999999999997,35.982 C 24.387,35.997 23.473,35.854 22.918,35.634 A 4.475,4.475 0 0,1 21.452,34.685 A 4.584,4.584 0 0,1 20.442,33.175 C 20.191,32.578 20.015,31.982 20.015,31.235 C 20.015,30.488 20.171,29.502 20.417,28.895 A 4.707,4.707 0 0,1 21.442,27.32 A 4.5,4.5 0 0,1 22.972,26.311 C 23.559,26.074 24.861,25.985 25.529,25.985 C 26.027,25.985 26.478,26.043 26.881,26.157 A 5.19,5.19 0 0,1 28.033,26.638 L 28.325,26.003 H 28.984 V 29.027 H 28.374 C 28.299,28.702 28.132,28.413 27.981,28.035 A 2.267,2.267 0 0,0 27.532,27.357 C 27.304,27.058 27.002,26.97 26.689,26.803 A 2.2,2.2 0 0,0 25.615,26.546 C 25.155,26.546 24.725,26.64 24.327,26.829 C 23.933,27.019 23.45,27.3 23.161,27.669 C 22.886,28.025 22.671,28.478 22.514,29.027 C 22.357,29.577 22.297,30.423 22.297,31.099 C 22.297,31.697 22.377,32.246 22.538,32.747 C 22.704,33.244 22.939,33.681 23.243,34.059 C 23.546,34.433 23.904,34.725 24.317,34.936 C 24.734,35.146 25.199,35.252 25.711,35.252 A 3.27,3.27 0 0,0 26.771,35.087 C 27.093,34.973 27.373,34.824 27.611,34.639 C 27.848,34.446 28.056,34.226 28.236,33.98 C 28.416,33.734 28.651,33.295 28.764,33.005 L 29.244,33.222 C 28.861,34.407 28.263,35.004 27.589,35.404 C 26.916,35.799 25.919,35.997 24.989,35.997 Z M 37.97,21.482 A 1.86,1.86 0 0,0 37.56,21.575 A 1.417,1.417 0 0,0 37.182,21.733 C 36.997,21.838 36.872,21.919 36.805,21.977 A 4.045,4.045 0 0,0 36.421,22.425 C 36.051,22.908 35.71,23.398 35.397,23.895 C 35.084,24.391 34.692,25.022 34.223,25.787 C 34.047,26.067 34.067,26.007 34.01,26.177 C 33.953,26.349 33.976,26.869 33.976,27.194 L 33.981,29.599 C 33.981,29.757 34.014,29.896 34.081,30.014 C 34.151,30.128 34.271,30.26 34.437,30.33 C 34.537,30.365 34.547,30.386 34.804,30.44 C 35.06,30.487 35.266,30.514 35.423,30.518 V 31.002 H 30.32 V 30.518 C 30.453,30.509 30.743,30.494 31.009,30.472 C 31.274,30.446 31.459,30.412 31.564,30.373 C 31.734,30.307 31.851,30.217 31.912,30.103 C 31.979,29.989 31.979,29.848 31.979,29.681 V 26.788 C 31.979,26.718 31.939,26.591 31.843,26.406 C 31.753,26.217 31.644,26.008 31.516,25.78 A 105.271,105.271 0 0,0 29.667,22.603 A 3.518,3.518 0 0,0 29.247,22.036 A 1.983,1.983 0 0,0 28.834,21.7 A 1.424,1.424 0 0,0 28.422,21.548 A 2.856,2.856 0 0,0 27.995,21.482 V 21.003 H 32.587 V 21.483 C 32.103,21.491 31.761,21.522 31.562,21.574 C 31.363,21.627 31.263,21.702 31.263,21.799 C 31.263,21.825 31.278,21.871 31.306,21.937 C 31.335,22.003 31.375,22.087 31.427,22.187 C 31.489,22.302 31.562,22.434 31.647,22.583 C 31.733,22.728 31.814,22.869 31.89,23.005 C 32.112,23.396 32.34,23.787 32.572,24.178 L 33.483,25.694 A 112.206,112.206 0 0,0 35.183,23.097 C 35.577,22.473 35.773,22.1 35.773,21.977 A 0.292,0.292 0 0,0 35.653,21.733 A 0.908,0.908 0 0,0 35.333,21.588 A 2.326,2.326 0 0,0 34.884,21.522 A 32.44,32.44 0 0,1 34.436,21.482 V 21.003 H 37.971 V 21.483 Z M 28.527,15.468 C 28.394,15.472 27.997,15.564 27.997,15.564 A 2.084,2.084 0 0,0 27.423,15.778 C 27.253,15.888 27.136,16.098 27.074,16.411 A 6.802,6.802 0 0,0 26.989,17.597 V 24.007 H 26.37 L 20.515,16.793 L 20.499,21.271 V 22.506 C 20.499,23.03 20.689,23.108 20.797,23.203 C 20.904,23.298 21.003,23.323 21.344,23.407 C 21.685,23.491 21.911,23.535 22.02,23.539 V 24.007 H 18 V 23.539 A 5.61,5.61 0 0,0 18.805,23.414 C 19.109,23.334 19.299,23.264 19.375,23.203 C 19.541,23.08 19.655,22.893 19.716,22.643 C 19.778,22.388 19.808,21.955 19.808,21.343 L 19.825,17.083 A 1.71,1.71 0 0,0 19.711,16.477 A 1.119,1.119 0 0,0 19.405,16.009 A 2.15,2.15 0 0,0 18.708,15.639 C 18.418,15.534 18.184,15.477 18.004,15.468 V 15 H 21.639 L 26.299,21.003 V 17.683 C 26.299,17.138 26.261,16.72 26.185,16.43 C 26.109,16.136 26,15.94 25.858,15.844 C 25.725,15.76 25.507,15.679 25.203,15.6 A 4.019,4.019 0 0,0 24.483,15.468 V 15 H 28.527 V 15.468 Z" fill="rgb(252, 195, 35)"/>
</svg>
