<!-- by Finnhub --><svg width="56" height="56" viewBox="0 0 56 56" fill="none" xmlns="http://www.w3.org/2000/svg">
<rect width="56" height="56" fill="#F0F3FA"/>
<path d="M34.1015 30.9882C32.8618 31.1062 32.0885 30.3269 31.9767 29.1908C31.9081 28.4942 32.0229 27.7517 32.257 27.0902C32.5839 26.1666 33.3159 25.1823 34.4001 25.0248C34.7385 24.9758 35.138 24.9969 35.4654 25.1112C37.0557 25.666 36.7525 27.9445 36.2855 29.0924C35.9193 29.9921 35.1813 30.8853 34.1015 30.9882ZM34.699 26.1822C34.164 26.1362 33.8226 26.6292 33.6391 27.0377C33.4213 27.5225 33.3166 28.0522 33.2923 28.5805C33.28 28.8511 33.3032 29.131 33.4001 29.39C33.5889 29.8942 34.1875 29.9371 34.551 29.5901C35.0558 29.1078 35.258 28.3199 35.3134 27.6605C35.3352 27.4003 35.3265 27.1311 35.2826 26.8785C35.2315 26.5843 35.0621 26.2136 34.699 26.1822Z" fill="black"/>
<path d="M5.86328 27.5547L7.30459 27.5545C7.31063 27.5545 7.31317 27.5575 7.3122 27.5634L7.14932 28.5681C7.14887 28.5708 7.14744 28.5732 7.14525 28.5751C7.14306 28.577 7.14023 28.5783 7.13718 28.5786C7.09352 28.5843 7.04297 28.5761 7.00981 28.5761C6.69201 28.5757 6.37428 28.5756 6.05661 28.5757C5.96909 28.5757 5.83447 28.5837 5.71761 28.5745C5.71166 28.574 5.70575 28.5758 5.70106 28.5795C5.69637 28.5831 5.69322 28.5884 5.69225 28.5943L5.27353 30.994L5.27117 30.9983L5.26665 31L4.0067 30.9978C4.00151 30.9978 3.99933 30.9953 4.00018 30.9902L5.03473 25.0111C5.0357 25.0054 5.03908 25.0025 5.04488 25.0025L7.86554 25L7.86799 25.0005L7.86999 25.0021L7.87118 25.0043L7.87133 25.0069L7.68958 25.9977C7.6892 26 7.69141 25.9961 7.68958 25.9977L6.15416 25.9977C6.15234 25.9992 6.15459 25.9953 6.15416 25.9977L5.85458 27.5443C5.85338 27.5512 5.85628 27.5547 5.86328 27.5547Z" fill="black"/>
<path d="M9.29492 30.988L10.3326 25H11.6104L11.6144 25.0008L11.6176 25.0033L11.6195 25.0069L11.6197 25.0109L10.739 29.9891L10.7392 29.9931L10.7411 29.9967L10.7443 29.9991L10.7483 30L12.3392 29.9961L12.3431 29.997L12.3463 29.9995L12.3481 30.003L12.3483 30.0071L12.1978 30.9924C12.1975 30.9945 12.1963 30.9964 12.1947 30.9978C12.193 30.9992 12.1909 31 12.1888 31L9.30416 30.9989L9.3002 30.9981L9.29698 30.9956L9.2951 30.992L9.29492 30.988Z" fill="black"/>
<path d="M16.6038 26.0076L16.369 27.3809L16.3692 27.3854L16.3712 27.3894L16.3748 27.3922L16.3791 27.3931H17.8215L17.8237 27.3936L17.8254 27.3949L17.8265 27.3969L17.8266 27.3991L17.6777 28.3354C17.6766 28.3419 17.6728 28.3452 17.6661 28.345L16.2337 28.3434C16.227 28.3434 16.2231 28.3467 16.2219 28.3534C16.1434 28.808 16.0068 29.5353 15.9294 29.9901L15.9296 29.9956L15.9322 30.0006L15.9365 30.004L15.9419 30L17.611 30.0033C17.625 30.0033 17.6308 30.0103 17.6283 30.0241L17.4601 30.9851C17.4594 30.9891 17.4573 30.9926 17.4542 30.9952C17.4512 30.9977 17.4474 30.9991 17.4434 30.9991L14.5246 30.9973L14.5225 31L15.5567 25.0078C15.5576 25.0031 15.5604 25.0007 15.5651 25.0007L18.3379 25L18.3398 25.0004L18.3414 25.0016L18.3423 25.0034L18.3424 25.0055L18.1697 25.9856C18.169 25.9897 18.1669 25.9933 18.1638 25.996C18.1607 25.9986 18.1568 26 18.1527 26H16.6128C16.6078 26 16.6047 26.0025 16.6038 26.0076Z" fill="black"/>
<path d="M26.5858 30.9987C26.5805 30.9987 26.5784 30.9961 26.5793 30.9909L27.6139 25.009C27.615 25.0032 27.6185 25.0003 27.6244 25.0003C28.164 24.9998 28.7029 24.9999 29.2413 25.0007C29.5475 25.001 29.8519 25.0345 30.12 25.1642C30.7134 25.4513 30.9457 25.9973 30.9225 26.6519C30.8853 27.7082 30.3521 28.5486 29.259 28.7307C29.1671 28.7461 29.0468 28.7561 28.8981 28.7605C28.6753 28.7673 28.4526 28.7689 28.2303 28.7651L28.2251 28.767L28.2225 28.7716L27.8367 30.9876C27.8353 30.9959 27.8303 31 27.8219 31L26.5858 30.9987ZM29.6857 26.5649C29.6402 26.2797 29.4428 26.0011 29.1562 26H28.7187L28.4113 27.7064C28.4093 27.7182 28.4143 27.7241 28.4261 27.7242C28.6336 27.7264 28.8945 27.7415 29.0719 27.6993C29.5819 27.5778 29.76 27.03 29.6857 26.5649Z" fill="black"/>
<path d="M38.0801 31L39.1248 25L40.403 25L40.4078 25.001L40.4116 25.0039L40.4139 25.0082L40.4141 25.0131L39.3801 31C39.3795 31.0035 39.3828 30.9977 39.3801 31H38.0801Z" fill="black"/>
<path d="M45.5339 25.0015L46.646 25.0038C46.6526 25.0038 46.6553 25.0071 46.6541 25.0136L45.6208 30.9887C45.6195 30.9959 45.6153 30.9995 45.6081 30.9995L44.252 30.9989C44.2405 30.9989 44.2336 30.9933 44.2311 30.982C43.9698 29.7381 43.7107 28.5034 43.4539 27.2777C43.4524 27.2708 43.449 27.2657 43.4441 27.261C43.4416 27.2586 43.4386 27.2569 43.4353 27.2561C43.432 27.2554 43.4285 27.2555 43.4252 27.2566C43.422 27.2577 43.4191 27.2597 43.4169 27.2623C43.4146 27.2649 43.4131 27.2681 43.4126 27.2715L42.8096 30.9816C42.8088 30.9867 42.8061 30.9914 42.8022 30.9948C42.7983 30.9981 42.7932 31 42.788 31L41.6631 30.9989L41.659 30.998L41.6556 30.9954L41.6537 30.9917L41.6535 30.9875L42.6866 25.0156C42.6871 25.0124 42.6888 25.0095 42.6913 25.0074C42.6938 25.0053 42.6969 25.0042 42.7002 25.0042L44.0904 25C44.0951 25 44.0996 25.0016 44.1032 25.0045C44.1068 25.0075 44.1093 25.0116 44.1101 25.0162L44.857 28.782C44.8576 28.7854 44.8596 28.7886 44.8624 28.7907C44.8652 28.7929 44.8686 28.794 44.8722 28.7938L44.8907 28.7927C44.8978 28.7922 44.9019 28.7884 44.9032 28.7814L45.525 25.0089C45.5258 25.0039 45.5288 25.0015 45.5339 25.0015Z" fill="black"/>
<path d="M48.5304 25H51.9999L51.8172 26.002C51.8167 26.005 51.8194 26.0001 51.8172 26.002H50.7185L49.8596 30.9904C49.8585 30.9968 49.8546 31 49.848 31L48.6036 30.9982C48.5909 30.9982 48.5857 30.9919 48.5879 30.9793L49.4813 26.002H48.3623L48.5304 25Z" fill="black"/>
<path d="M18.2061 31.9972C21.4282 28.6031 24.6727 25.4549 27.9003 22.0646C27.93 22.0333 27.9542 22.0066 27.973 22C28.0364 21.978 28.1094 22.0543 28.0969 22.1194C28.0935 22.1367 28.081 22.1594 28.0594 22.1877C25.5016 25.539 22.9239 28.6457 20.3663 31.9972C20.3647 31.9993 20.3687 31.996 20.3663 31.9972H18.2061Z" fill="#B10000"/>
<path d="M22.5434 26.1153C22.5442 26.1167 22.5453 26.118 22.5467 26.119C22.5481 26.1199 22.5497 26.1206 22.5513 26.1209C22.553 26.1212 22.5547 26.1211 22.5563 26.1207C22.558 26.1203 22.5595 26.1195 22.5608 26.1185C23.2141 25.59 23.8683 25.0605 24.5232 24.5298C24.5507 24.5075 24.5823 24.4788 24.6167 24.4726C24.6853 24.4602 24.7518 24.527 24.7319 24.5913C24.7261 24.6101 24.7091 24.6331 24.681 24.6604C23.7368 25.5777 22.7914 26.4954 21.8449 27.4135C21.8442 27.4142 21.8433 27.4148 21.8423 27.4151C21.8413 27.4154 21.8402 27.4155 21.8391 27.4153C21.8381 27.4152 21.837 27.4147 21.8362 27.4141C21.8353 27.4135 21.8346 27.4127 21.8341 27.4117L20.03 24.0098C20.0295 24.0088 20.0293 24.0076 20.0293 24.0065C20.0294 24.0053 20.0297 24.0042 20.0303 24.0032C20.0309 24.0022 20.0318 24.0014 20.0328 24.0008C20.0339 24.0003 20.035 24 20.0362 24H21.296C21.3074 24 21.3159 24.0049 21.3215 24.0146L22.5434 26.1153Z" fill="black"/>
<path d="M23.2721 29.5827L23.2692 29.5796L23.2651 29.5782L23.2606 29.5787L23.2569 29.581C22.7066 30.158 22.1555 30.7353 21.6034 31.313C21.5609 31.3576 21.512 31.3793 21.454 31.3409C21.3844 31.2948 21.413 31.2341 21.4571 31.1796C22.2284 30.2183 22.9984 29.2588 23.767 28.301C23.7682 28.2994 23.7699 28.2982 23.7718 28.2974C23.7737 28.2965 23.7758 28.2962 23.7779 28.2963C23.78 28.2965 23.782 28.2971 23.7837 28.2981C23.7855 28.2992 23.788 28.3023 23.788 28.3023C23.879 28.4556 23.9673 28.6079 24.0527 28.7592C24.6617 29.8368 25.2644 30.9159 25.8609 31.9965L24.6107 32.0002L23.2721 29.5827Z" fill="black"/>
</svg>
