<?xml version="1.0" encoding="UTF-8"?>
<!-- generated by Finnhub -->
<svg viewBox="0 0 55.5 55.5" xmlns="http://www.w3.org/2000/svg">
<path d="M 0,0 H 55.5 V 55.5 H 0 Z" fill="url(#a)"/>
<path d="M 14.99,19.985 C 15.33,20.25 16,21.08 16,22.42 V 26 H 15 V 31 H 16 V 35.78 C 16,36.21 15.78,37.25 15,38 H 26 C 25.66,37.77 25,37 25,35.78 V 31 H 31 V 35.78 C 31,37.01 30.33,37.78 30,38 H 41 A 3.6,3.6 0 0,1 40,35.78 V 31 H 41 V 26 H 40 V 22.42 C 40,21.08 40.69,20.25 41,20 H 30 C 30.72,20.63 30.97,21.88 31,22.42 V 26 H 25 V 22.42 C 25.03,21.88 25.26,20.62 26,20 H 15 Z M 36.24,28.38 C 36.41,28.24 36.53,28.02 36.53,27.76 C 36.53,27.34 36.21,27 35.82,27 C 35.42,27 35.1,27.34 35.1,27.76 C 35.1,28.02 35.22,28.24 35.4,28.38 A 0.89,0.89 0 0,0 35,29.13 C 35,29.61 35.37,30 35.82,30 C 36.27,30 36.63,29.6 36.63,29.13 C 36.63,28.81 36.47,28.53 36.23,28.38 Z M 36.19,27.78 C 36.19,28.01 36.02,28.19 35.82,28.19 C 35.61,28.19 35.44,28.01 35.44,27.79 C 35.44,27.57 35.61,27.39 35.82,27.39 C 36.02,27.39 36.19,27.57 36.19,27.79 Z M 36.29,29.08 C 36.29,28.8 36.09,28.57 35.82,28.57 C 35.55,28.57 35.33,28.8 35.33,29.08 C 35.33,29.37 35.55,29.6 35.82,29.6 C 36.08,29.6 36.3,29.37 36.3,29.08 Z M 17.6,27 V 27.45 H 16.45 V 28.25 H 17.46 V 28.71 H 16.45 V 29.53 H 17.6 V 30 H 16 V 27 H 17.6 Z M 19.25,28.58 A 0.67,0.67 0 0,0 18.55,28 C 17.9,28 17.85,28.51 17.85,28.58 C 17.85,28.65 17.91,28.98 18.42,29.12 C 18.94,29.26 18.95,29.32 18.95,29.44 C 18.95,29.54 18.88,29.66 18.55,29.66 C 18.28,29.66 18.15,29.46 18.11,29.36 H 17.76 C 17.8,29.58 18.01,30 18.55,30 C 19.23,30 19.28,29.5 19.28,29.37 C 19.28,29.23 19.15,28.91 18.65,28.81 C 18.63,28.81 18.18,28.72 18.18,28.53 C 18.18,28.34 18.33,28.28 18.55,28.28 S 18.95,28.46 18.95,28.58 H 19.25 Z M 26.17,28 C 26.69,28 26.85,28.39 26.87,28.58 H 26.57 C 26.57,28.46 26.39,28.28 26.17,28.28 C 25.95,28.28 25.8,28.34 25.8,28.53 C 25.8,28.73 26.23,28.86 26.26,28.86 C 26.76,28.96 26.9,29.23 26.9,29.36 C 26.9,29.5 26.85,30 26.17,30 A 0.78,0.78 0 0,1 25.37,29.37 H 25.73 C 25.77,29.47 25.9,29.66 26.17,29.66 C 26.5,29.66 26.57,29.55 26.57,29.44 S 26.56,29.26 26.04,29.12 C 25.53,28.98 25.46,28.65 25.46,28.58 C 25.46,28.51 25.52,28 26.16,28 Z M 19.62,29.49 V 28 H 19.36 V 27.75 H 19.62 V 27 H 20 V 27.75 H 20.3 V 28 H 20 V 29.46 C 20,29.56 20.02,29.63 20.09,29.63 H 20.29 V 30 H 20 C 19.8,30 19.62,29.77 19.62,29.49 Z M 20.47,28.65 C 20.53,28.43 20.74,28 21.2,28 C 21.78,28 21.9,28.5 21.9,28.61 V 29.55 C 21.9,29.63 21.96,29.69 22.03,29.69 V 30 H 21.94 C 21.78,30 21.64,29.88 21.58,29.72 A 0.78,0.78 0 0,1 20.99,29.99 C 20.82,29.99 20.39,29.91 20.39,29.47 C 20.39,29.11 20.69,28.97 20.85,28.95 L 21.56,28.79 V 28.65 C 21.55,28.52 21.46,28.26 21.2,28.26 C 20.95,28.26 20.81,28.52 20.78,28.65 H 20.48 Z M 21.56,28.99 C 21.42,29.02 21.18,29.08 20.96,29.16 C 20.63,29.29 20.73,29.72 21.09,29.72 C 21.39,29.72 21.53,29.48 21.56,29.36 V 29 Z M 22.16,27 H 22.49 V 28.35 C 22.63,28.14 22.84,28 23.07,28 C 23.49,28 23.84,28.45 23.84,29 S 23.49,30 23.07,30 C 22.84,30 22.63,29.86 22.49,29.65 V 30 H 22.16 V 27 Z M 22.49,28.72 V 29.32 C 22.58,29.56 22.76,29.72 22.98,29.72 C 23.28,29.72 23.51,29.42 23.51,29.02 C 23.51,28.64 23.27,28.32 22.98,28.32 C 22.76,28.32 22.58,28.49 22.49,28.72 Z M 32,27 H 32.36 V 30 H 32 V 29.68 A 0.7,0.7 0 0,1 31.44,30 C 31.02,30 30.68,29.55 30.68,29 S 31.02,28 31.44,28 A 0.7,0.7 0 0,1 32,28.32 V 27 Z M 32,29.37 V 28.67 C 31.9,28.47 31.73,28.33 31.54,28.33 C 31.24,28.33 31,28.63 31,29.03 C 31,29.41 31.24,29.73 31.54,29.73 C 31.74,29.73 31.91,29.58 32,29.37 Z M 24.38,27 H 24 V 30 H 24.38 V 27 Z M 25.37,27 H 25 V 27.5 H 25.37 V 27 Z M 25.37,28 H 25 V 30 H 25.37 V 28 Z M 27,27 H 27.36 V 28.35 C 27.46,28.19 27.66,28 27.92,28 C 28.34,28 28.41,28.4 28.41,28.6 V 30 H 28 V 28.53 C 28.01,28.41 28.03,28.26 27.84,28.26 C 27.64,28.26 27.46,28.51 27.36,28.68 V 30 H 27 V 27 Z M 29.13,29 H 30.37 C 30.41,28.63 30.31,28 29.62,28 C 29.36,28 28.85,28.19 28.85,28.9 V 29.2 C 28.87,29.47 29.05,30 29.62,30 C 30.18,30 30.35,29.62 30.37,29.43 H 30.04 C 30.02,29.53 29.92,29.71 29.62,29.71 C 29.24,29.71 29.12,29.21 29.12,29 Z M 29.13,28.77 H 30.09 C 30.05,28.6 29.9,28.27 29.65,28.27 C 29.33,28.27 29.14,28.64 29.14,28.77 Z M 33.42,27.83 H 34 V 30 H 34.34 V 27 H 34.02 C 34.02,27.3 33.83,27.54 33.62,27.54 H 33.42 V 27.83 Z M 37.05,29.23 H 36.75 C 36.75,29.49 36.95,30 37.45,30 C 37.93,30 38.27,29.34 38.27,28.25 C 38.27,27.15 37.83,27 37.47,27 C 37.11,27 36.71,27.33 36.71,27.9 C 36.71,28.46 36.94,28.92 37.37,28.92 C 37.71,28.92 37.89,28.73 37.93,28.64 C 37.93,28.94 37.79,29.64 37.44,29.64 C 37.16,29.64 37.06,29.36 37.05,29.22 Z M 37.93,27.93 C 37.93,28.26 37.73,28.53 37.49,28.53 S 37.05,28.26 37.05,27.93 C 37.05,27.62 37.25,27.35 37.49,27.35 S 37.93,27.62 37.93,27.94 Z M 38.46,27 V 27.37 H 39.63 C 39.23,27.75 38.89,28.89 38.77,29.41 V 30 H 39.14 V 29.54 A 5,5 0 0,1 40,27.37 V 27 H 38.46 Z M 25.82,39 H 28.78 L 28.95,39.64 L 28.75,39.49 H 27.32 V 40.2 H 28.64 L 28.78,40.08 V 40.85 L 28.64,40.68 H 27.32 V 41.48 H 28.75 L 28.95,41.3 L 28.78,42 H 25.73 L 26,41.71 V 39.25 L 25.82,39 Z M 15.14,39.22 L 15,39 H 17.95 L 18,39.68 L 17.86,39.49 H 16.43 V 40.23 H 17.81 L 17.95,40.1 V 40.88 L 17.81,40.7 H 16.43 V 41.84 L 16.53,42 H 15 L 15.14,41.84 V 39.22 Z M 21.44,39 H 18.65 L 18.8,39.25 V 41.71 L 18.56,42 H 21.45 L 21.62,41.3 L 21.42,41.49 H 20 V 40.68 H 21.3 L 21.45,40.85 V 40.08 L 21.3,40.2 H 20 V 39.5 H 21.42 L 21.62,39.64 L 21.45,39 Z M 39.5,39 H 37.85 L 38,39.25 V 41.71 L 37.76,42 H 40.82 L 41,41.3 L 40.79,41.49 H 39.29 V 39.25 L 39.49,39 Z M 24.8,42 H 21.9 L 22,41.8 V 39.2 L 21.9,39 H 24.8 C 25.17,39 25.46,39.27 25.46,39.6 V 41.4 C 25.46,41.73 25.16,42 24.8,42 Z M 23.23,39.53 H 23.93 C 24.08,39.53 24.2,39.63 24.2,39.76 V 41.26 C 24.2,41.38 24.08,41.49 23.93,41.49 H 23.23 V 39.53 Z M 29.8,41.79 L 29.62,42 H 31.14 L 31,41.79 V 40.76 H 31.41 L 31.98,42 H 34.36 L 34.26,41.75 L 34.53,41.18 H 35.93 L 36.2,41.75 L 36.03,42 H 37.73 L 37.41,41.65 L 36.29,39 H 34.87 L 34.94,39.22 L 33.64,41.75 L 33.42,41.99 L 33.19,41.75 L 32.65,40.75 C 32.96,40.7 33.2,40.45 33.2,40.16 V 39.59 C 33.2,39.27 32.9,39 32.54,39 H 29.62 L 29.8,39.25 V 41.79 Z M 31,39.52 H 31.76 C 31.91,39.52 32.03,39.62 32.03,39.75 V 40.02 C 32.03,40.15 31.91,40.25 31.76,40.25 H 31 V 39.52 Z M 35.24,39.72 L 35.7,40.7 H 34.76 L 35.24,39.71 Z M 15,19 H 17.16 L 17,18.6 V 17 H 18.3 V 18.6 L 18.1,19 H 20.26 L 20,18.6 V 14.34 L 20.26,14 H 18.1 L 18.3,14.34 V 16 H 17 V 14.34 L 17.16,14 H 15 L 15.2,14.34 V 18.59 L 15,19 Z M 21.92,15.25 C 21.92,14.55 22.46,14 23.12,14 H 25.75 C 26.41,14 26.95,14.56 26.95,15.25 V 17.75 C 26.95,18.45 26.41,19 25.75,19 H 23.11 C 22.46,19 21.92,18.44 21.92,17.75 V 15.25 Z M 23.68,15.36 C 23.68,15.16 23.85,15 24.08,15 H 24.79 C 25.01,15 25.19,15.16 25.19,15.36 V 17.64 C 25.19,17.84 25.01,18 24.79,18 H 24.07 C 23.85,18 23.67,17.84 23.67,17.64 V 15.36 Z M 29,18.66 C 28.94,18.76 28.73,18.96 28.68,19 H 29.86 L 29.66,18.67 V 15.23 L 30.9,19 H 32.14 L 33.31,15.23 V 18.56 L 33.03,19 H 35.27 L 35.01,18.67 V 14.27 L 35.27,14 H 32.86 L 31.98,16.8 L 31.12,14 H 28.69 L 29.01,14.34 V 18.67 Z M 36.72,14 L 37,14.44 V 18.66 L 36.67,19 H 40.78 L 41,17.92 L 40.62,18.23 H 38.61 V 16.86 H 40.48 L 40.72,17.12 V 15.86 L 40.48,16 H 38.61 V 14.8 H 40.62 L 40.85,14.97 L 40.72,14 H 36.72 Z" fill="rgb(254, 254, 253)" fill-rule="evenodd"/>
<defs>
<linearGradient id="a" x1="10.42" x2="68.15" y1="9.71" y2="76.02" gradientUnits="userSpaceOnUse">
<stop stop-color="rgb(25, 29, 31)" offset="0"/>
<stop stop-color="rgb(5, 5, 8)" offset="1"/>
</linearGradient>
</defs>
</svg>
