<?xml version="1.0" encoding="UTF-8"?>
<!-- generated by Finnhub -->
<svg viewBox="0 0 55.5 55.5" xmlns="http://www.w3.org/2000/svg">
<path d="M 0,0 H 55.5 V 55.5 H 0 Z" fill="url(#a)"/>
<path d="M 40.99,13.985 H 40.64 L 40.37,13 H 42.01 V 43 H 37.55 L 37.89,42 H 41.01 V 14 Z M 31.75,13 H 33.26 L 32.3,14 H 31.5 L 31.75,13 Z M 28.24,13 H 14 V 20.6 L 15,20.31 V 14 H 28.02 L 28.24,13 Z M 35.14,42 L 34.87,43 H 24.44 L 24.71,42 H 35.15 Z M 22.15,42 H 20.4 L 18.15,43 H 21.88 L 22.16,42 Z M 15,38.17 L 14,38.47 V 35.53 L 15,35.4 V 38.17 Z M 15,29.45 V 26.24 L 14,26.37 V 29.75 L 15,29.45 Z M 30.55,13 H 29.14 L 28.71,14.99 L 29.81,14.63 L 29.84,14.47 L 29.87,14.61 L 30.83,14.3 L 30.55,13 Z M 32.03,19.93 L 31.08,20.24 L 34.23,35 H 25.4 L 26.27,30.97 L 25.2,31.21 L 22.65,43 H 23.69 L 25.18,36 H 34.44 L 35.94,43 H 36.97 L 35.34,35.4 L 32.04,19.93 Z M 28.41,21.11 L 27.67,24.51 L 26.6,24.73 L 27.3,21.47 L 28.4,21.11 Z" fill="rgb(163, 179, 189)"/>
<path d="M 12.14,24.285 C 11.71,23.2 12.25,21.95 13.35,21.52 L 37.05,12.15 C 38.15,11.71 39.41,12.25 39.85,13.35 C 40.29,14.45 39.75,15.7 38.65,16.13 L 14.95,25.5 C 13.85,25.94 12.59,25.4 12.15,24.3 Z M 12.15,33.53 C 11.71,32.43 12.25,31.18 13.35,30.75 L 27.95,24.98 C 29.05,24.54 30.29,25.08 30.73,26.18 C 31.18,27.28 30.63,28.53 29.53,28.96 L 14.95,34.73 C 13.85,35.17 12.59,34.63 12.15,33.53 Z M 13.35,39.37 A 2.14,2.14 0 0,0 12.15,42.15 A 2.16,2.16 0 0,0 14.95,43.35 L 20.39,41.2 A 2.14,2.14 0 0,0 21.59,38.42 A 2.16,2.16 0 0,0 18.79,37.22 L 13.35,39.37 Z" fill="rgb(254, 254, 253)"/>
<defs>
<linearGradient id="a" x2="56" y1="28" y2="28" gradientUnits="userSpaceOnUse">
<stop stop-color="rgb(50, 146, 206)" offset="0"/>
<stop stop-color="rgb(30, 45, 63)" offset="1"/>
</linearGradient>
</defs>
</svg>
