<?xml version="1.0" encoding="UTF-8"?>
<!-- generated by Finnhub -->
<svg viewBox="0 0 55.5 55.5" xmlns="http://www.w3.org/2000/svg">
<path d="M 0,0 H 55.5 V 55.5 H 0 Z" fill="rgb(239, 242, 248)"/>
<path d="M 34.56,34.875 L 35.84,38.39 C 36.14,39.23 36.46,40.17 36.77,41 C 36.77,41 32.93,40.96 32.43,41 L 30.3,35 H 18.5 L 16.33,41 H 12 L 22.67,13 H 26.13 S 27.29,16.23 28.03,17.78 L 29.96,22.91 C 30.32,23.91 30.67,24.92 31.06,25.91 C 31.73,27.66 32.43,29.41 33.11,31.15 L 34.57,34.89 Z M 28.91,31 C 28.63,30.15 28.44,29.43 28.01,28.68 A 75.32,75.32 0 0,0 26.05,23.24 C 25.65,21.64 25,20.14 24.41,18.36 C 22.85,22.73 21.37,26.79 19.87,31 H 28.91 Z" fill="rgb(248, 94, 48)"/>
<path d="M 29.91,22.884999999999998 L 28,17.77 L 29.7,13.45 L 29.89,13 H 33.35 L 44,41 H 39.64 C 38.92,38.97 38.2,37.04 37.47,35 H 34.53 S 33.55,32.25 33.07,31 H 36.13 C 34.63,26.74 33.15,22.73 31.63,18.45 C 30.96,19.97 30.6,21.49 29.93,22.9 Z M 21.53,35 H 25.68 L 23.58,41 H 19.26 C 19.95,38.91 20.78,37.01 21.53,35 Z M 23.02,31 L 25.35,24.88 C 25.56,24.33 25.71,23.76 26.02,23.24 C 26.76,25.02 27.38,26.84 27.99,28.68 C 27.69,29.48 27.39,30.19 27.11,31 H 23.02 Z" fill="rgb(16, 34, 84)"/>
</svg>
