<?xml version="1.0" encoding="UTF-8"?>
<!-- generated by Finnhub -->
<svg viewBox="0 0 55.5 55.5" xmlns="http://www.w3.org/2000/svg">
<path d="M 0,0 H 55.5 V 55.5 H 0 Z" fill="rgb(1, 69, 171)"/>
<path d="M 11.620000000000001,27.985 H 11.93 C 13.73,28 14.77,27.36 15.19,25.93 C 15.6,24.51 14.9,23.79 13.1,23.79 H 12.8 L 11.64,28 Z M 14.58,35 L 12.5,30 H 11 L 9.52,35 H 6 L 10.1,21 H 15.18 C 18.26,21 19.59,22.7 18.76,25.56 A 5.82,5.82 0 0,1 15.76,29.03 L 15.52,29.16 L 17.84,35 H 14.58 Z" fill="rgb(219, 25, 35)"/>
<path d="M 20.389999999999997,23.985 H 23 L 22.63,25.32 H 21.3 L 21.15,25.84 H 22.15 L 21.78,27.16 H 20.78 L 20.64,27.68 H 21.98 L 21.6,29 H 19 L 20.4,24 Z M 25.29,26.42 H 25.57 C 26.07,26.42 26.33,26.12 26.43,25.8 C 26.53,25.48 26.46,25.18 25.96,25.18 H 25.68 L 25.28,26.42 Z M 24.59,24 H 26.52 C 27.82,24 28.24,24.7 27.87,25.85 C 27.44,27.21 26.28,27.7 24.88,27.68 L 24.46,29 H 23 L 24.6,24 Z M 29.78,24 H 31.12 L 29.98,27.1 C 29.88,27.43 29.88,27.69 30.23,27.69 C 30.57,27.69 30.75,27.43 30.85,27.1 L 32,24 H 33.4 L 32.2,27.3 C 31.83,28.44 31,29 29.82,29 S 28.16,28.44 28.52,27.3 L 29.78,24 Z M 34.8,27.9 H 35.16 C 35.6,27.9 35.79,27.6 35.84,27.43 C 35.96,27.06 35.63,27 35.39,27 H 35.07 L 34.79,27.9 Z M 35.4,26 H 35.75 C 35.91,26 36.31,26 36.44,25.58 C 36.57,25.16 36.17,25.16 36.01,25.16 H 35.67 L 35.4,26 Z M 34.58,24 H 36.77 C 37.87,24 38.16,24.65 37.92,25.39 C 37.68,26.15 37.1,26.37 36.87,26.47 C 36.97,26.53 37.51,26.79 37.26,27.6 C 37.1,28.1 36.44,29 35.08,29 H 33 L 34.58,24 Z M 39.85,24 H 41.54 L 40.18,27.68 H 42 L 41.51,29 H 38 L 39.85,24 Z M 45.1,24 H 47 L 44.9,29 H 43 L 45.1,24 Z M 49.4,27.57 C 48.78,27.57 48.41,27.09 48.6,26.5 C 48.77,25.9 49.73,25.16 50.55,25.55 L 51,24.05 A 2.49,2.49 0 0,0 50.48,24 C 49.03,24 47.48,24.92 47.08,26.5 C 46.73,27.9 47.51,29 48.98,29 C 49.15,29 49.34,28.98 49.52,28.95 L 49.97,27.47 C 49.77,27.54 49.6,27.57 49.4,27.57 Z M 29.03,34.36 H 26.84 L 27.17,33.29 H 29.44 C 29.86,33.29 30,33.47 29.89,33.85 C 29.79,34.19 29.51,34.35 29.03,34.35 Z M 27.68,31.64 H 29.92 C 30.09,31.64 30.2,31.69 30.27,31.78 C 30.33,31.87 30.34,31.98 30.29,32.14 A 0.7,0.7 0 0,1 30.03,32.5 A 0.71,0.71 0 0,1 29.59,32.65 H 27.37 L 27.67,31.65 Z M 30.25,32.94 C 30.6,32.74 30.83,32.46 30.94,32.11 C 31.04,31.77 31.02,31.51 30.87,31.31 C 30.71,31.11 30.45,31 30.09,31 H 27.23 L 26,35 H 28.82 C 29.28,35 29.65,34.91 29.93,34.74 C 30.22,34.56 30.42,34.29 30.53,33.94 C 30.68,33.44 30.59,33.1 30.25,32.94 Z M 32.7,33.37 L 33.9,31.63 L 34.18,33.37 H 32.69 Z M 33.73,31 L 31,35 H 31.57 L 32.25,34 H 34.3 L 34.43,35 H 35 L 34.4,31 H 33.74 Z M 39,35 L 37.64,31.83 L 36.66,35 H 36 L 37.21,31 H 38 L 39.36,34.18 L 40.34,31 H 41 L 39.79,35 H 39 Z M 45,35 H 44.17 L 43.02,33 L 42.02,33.79 L 41.64,35 H 41 L 42.22,31 H 42.86 L 42.25,33 L 45,31 H 45.94 L 43.69,32.52 L 45,35 Z" fill="rgb(254, 254, 253)"/>
</svg>
