<?xml version="1.0" encoding="UTF-8"?>
<!-- generated by Finnhub -->
<svg viewBox="0 0 55.5 55.5" xmlns="http://www.w3.org/2000/svg">
<path d="M 0,0 H 55.5 V 55.5 H 0 Z" fill="rgb(23, 26, 28)"/>
<path d="M 27.99,44.985 A 17,17 0 1,0 28,11 A 17,17 0 0,0 28,45 Z M 28,44 A 16,16 0 1,0 28,12 A 16,16 0 0,0 28,44 Z M 34.6,21.15 C 34.82,20.94 35.17,20.95 35.37,21.18 L 35.87,21.72 C 36.05,21.93 36.04,22.25 35.85,22.45 L 35.59,22.71 L 36.6,23.74 L 38,28 L 32.97,26.01 L 32.67,25.71 L 28.95,29.53 L 34.85,35.23 C 35.05,35.43 35.05,35.76 34.85,35.96 L 33.95,36.86 A 0.5,0.5 0 0,1 33.24,36.84 L 27.54,30.98 L 21.84,36.84 A 0.53,0.53 0 0,1 21.09,36.84 L 20.16,35.93 A 0.53,0.53 0 0,1 20.16,35.17 L 26.06,29.45 L 22.49,25.79 L 20.16,28.79 A 0.52,0.52 0 0,1 19.43,28.89 L 17.2,27.17 A 0.52,0.52 0 0,1 17.1,26.46 L 19.99,22.32 L 24.36,19.1 A 0.52,0.52 0 0,1 25.07,19.2 L 26.89,21.47 C 27.07,21.7 27.03,22.03 26.79,22.2 L 23.77,24.53 L 27.46,28.09 L 31.3,24.36 L 29.16,22.26 A 0.55,0.55 0 0,1 29.15,21.51 L 31.35,19.17 C 31.55,18.95 31.89,18.94 32.1,19.16 L 34.33,21.42 L 34.61,21.15 Z" fill="rgb(254, 254, 253)" fill-rule="evenodd"/>
</svg>
