<?xml version="1.0" encoding="UTF-8"?>
<!-- generated by Finnhub -->
<svg viewBox="0 0 55.5 55.5" xmlns="http://www.w3.org/2000/svg">
<path d="M 0,0 H 55.5 V 55.5 H 0 Z" fill="rgb(239, 242, 248)"/>
<path d="M 16.83,16.985 L 15.21,18.33 C 13.45,34.58 23.01,43.55 28,46 V 37.14 C 18.8,31.87 16.73,21.52 16.84,17 Z" fill="url(#a)"/>
<path d="M 39.15,16.985 L 40.79,18.33 C 42.55,34.58 32.99,43.55 28,46 V 37.14 C 37.2,31.87 39.27,21.52 39.16,17 Z" fill="url(#b)"/>
<path d="M 27.99,32.985 C 22.4,28.86 20.33,21.32 20,18.08 L 28,15 V 33 Z" fill="url(#c)"/>
<path d="M 27.99,32.985 C 33.6,28.86 35.67,21.32 36,18.08 L 28,15 V 33 Z" fill="url(#d)"/>
<path d="M 18.99,15.985 V 13.38 L 28,10 V 12.64 L 19,16 Z" fill="rgb(195, 138, 8)"/>
<path d="M 36.99,15.985 V 13.38 L 28,10 V 12.64 L 37,16 Z" fill="rgb(212, 172, 75)"/>
<defs>
<linearGradient id="a" x1="10.92" x2="30.23" y1="22.42" y2="37.43" gradientUnits="userSpaceOnUse">
<stop stop-color="rgb(203, 158, 54)" offset="0"/>
<stop stop-color="rgb(217, 184, 104)" offset="1"/>
</linearGradient>
<linearGradient id="b" x1="45.08" x2="25.77" y1="22.42" y2="37.43" gradientUnits="userSpaceOnUse">
<stop stop-color="rgb(200, 149, 33)" offset="0"/>
<stop stop-color="rgb(195, 137, 11)" offset="1"/>
</linearGradient>
<linearGradient id="c" x1="24" x2="24" y1="15" y2="33" gradientUnits="userSpaceOnUse">
<stop stop-color="rgb(195, 137, 11)" offset="0"/>
<stop stop-color="rgb(204, 156, 53)" offset="1"/>
</linearGradient>
<linearGradient id="d" x1="32" x2="32" y1="15" y2="33" gradientUnits="userSpaceOnUse">
<stop stop-color="rgb(210, 170, 74)" offset="0"/>
<stop stop-color="rgb(196, 141, 21)" offset="1"/>
</linearGradient>
</defs>
</svg>
