<?xml version="1.0" encoding="UTF-8"?>
<!-- generated by Finnhub -->
<svg viewBox="0 0 55.5 55.5" xmlns="http://www.w3.org/2000/svg">
<path d="M 0,0 H 55.5 V 55.5 H 0 Z" fill="rgb(239, 242, 248)"/>
<path d="M 39.64,28.985 A 4.3,4.3 0 0,1 35.38,33.32 A 4.3,4.3 0 0,1 31.1,29 A 4.3,4.3 0 0,1 35.38,24.68 A 4.3,4.3 0 0,1 39.65,29 Z" fill="rgb(214, 63, 37)"/>
<path d="M 38.86,28.185 A 3.51,3.51 0 0,1 35.37,31.73 A 3.51,3.51 0 0,1 31.88,28.21 A 3.51,3.51 0 0,1 35.38,24.68 A 3.51,3.51 0 0,1 38.87,28.21 Z" fill="rgb(175, 48, 30)"/>
<path d="M 37.71,27.715 C 37.72,29.22 36.52,30.42 35.06,30.42 A 2.67,2.67 0 0,1 32.4,27.73 C 32.4,26.25 33.6,25.04 35.06,25.04 C 36.53,25.04 37.72,26.24 37.72,27.74 Z" fill="rgb(219, 114, 52)"/>
<path d="M 35.82,26.845 C 35.83,27.6 35.23,28.21 34.5,28.21 C 33.77,28.21 33.17,27.61 33.17,26.86 C 33.17,26.12 33.77,25.52 34.5,25.52 C 35.24,25.52 35.83,26.12 35.83,26.86 Z" fill="rgb(250, 230, 144)"/>
<path d="M 42.88,38.305 C 43.66,35.45 43.74,31.65 42.93,27.6 C 42.12,23.55 40.57,20.07 38.75,17.74 C 36.91,15.37 34.92,14.3 33.21,14.65 C 31.49,15 30.07,16.77 29.29,19.68 C 28.52,22.55 28.43,26.35 29.24,30.4 C 30.06,34.45 31.6,37.93 33.42,40.26 C 35.26,42.63 37.25,43.7 38.97,43.35 C 40.68,43 42.11,41.23 42.89,38.32 Z M 39.09,43.92 C 43.18,43.08 45.15,35.72 43.49,27.48 C 41.84,19.24 37.19,13.24 33.09,14.08 C 28.99,14.92 27.02,22.28 28.68,30.52 C 30.33,38.76 34.99,44.76 39.08,43.92 Z" fill="rgb(187, 189, 190)" fill-rule="evenodd"/>
<path d="M 31.189999999999998,39.375 C 34.07,38.71 37.42,36.98 40.56,34.33 S 45.99,28.66 47.16,25.93 C 48.35,23.17 48.33,20.89 47.21,19.53 S 43.87,17.75 40.97,18.43 C 38.11,19.11 34.75,20.84 31.61,23.49 S 26.19,29.16 25.01,31.89 C 23.83,34.65 23.84,36.93 24.97,38.29 C 26.09,39.65 28.3,40.07 31.2,39.39 Z M 24.52,38.66 C 27.2,41.9 34.54,40.16 40.93,34.78 C 47.32,29.39 50.33,22.4 47.65,19.16 C 44.98,15.91 37.63,17.66 31.25,23.04 C 24.85,28.42 21.85,35.42 24.52,38.66 Z" fill="rgb(187, 189, 190)" fill-rule="evenodd"/>
<path d="M 24.04,29.985 C 26.22,32 29.51,33.85 33.45,34.99 C 37.37,36.13 41.13,36.35 44.02,35.8 C 46.95,35.25 48.81,33.96 49.29,32.26 C 49.78,30.56 48.89,28.46 46.69,26.42 C 44.53,24.4 41.24,22.57 37.31,21.42 C 33.38,20.28 29.61,20.06 26.73,20.61 C 23.8,21.16 21.94,22.45 21.46,24.15 C 20.97,25.85 21.86,27.95 24.06,29.99 Z M 20.9,24 C 19.75,28.05 25.29,33.23 33.28,35.55 C 41.28,37.88 48.69,36.48 49.85,32.42 C 51,28.36 45.46,23.19 37.47,20.86 C 29.47,18.53 22.06,19.93 20.9,23.99 Z" fill="rgb(187, 189, 190)" fill-rule="evenodd"/>
<path d="M 5.99,23.544999999999998 V 32.58 C 6,32.81 6.2,33 6.43,33 H 7.6 C 7.84,33 8.01,32.81 8.01,32.58 V 29 H 11.12 C 11.36,29 11.56,28.78 11.56,28.55 V 27.73 C 11.56,27.5 11.36,27.31 11.12,27.31 H 8 V 24.68 H 11.58 C 11.82,24.68 12,24.49 12,24.26 V 23.42 A 0.41,0.41 0 0,0 11.58,23 H 6.58 A 0.57,0.57 0 0,0 6,23.56 Z M 13,30.08 V 25.44 C 13,25.2 13.2,25 13.45,25 H 14.58 C 14.83,25 15,25.2 15,25.44 V 29.61 C 15.03,30.14 15.32,31.21 16.18,31.21 C 17.04,31.21 17.78,30.46 18,30.08 V 25.44 C 18,25.2 18.1,25 18.34,25 H 19.56 C 19.8,25 20,25.2 20,25.44 V 32.56 C 20,32.8 19.8,33 19.56,33 H 18.59 C 18.35,33 18,32.8 18,32.56 V 31.73 A 3.15,3.15 0 0,1 15.65,33 C 13.49,32.96 12.98,31.04 13,30.08 Z M 48,27.92 V 32.56 C 48,32.8 47.8,33 47.55,33 H 46.42 C 46.17,33 46,32.8 46,32.56 V 28.39 C 45.98,27.86 45.68,26.79 44.82,26.79 C 43.96,26.79 43.22,27.54 43,27.92 V 32.56 C 43,32.8 42.9,33 42.66,33 H 41.44 A 0.44,0.44 0 0,1 41,32.56 V 25.44 C 41,25.2 41.2,25 41.44,25 H 42.41 C 42.65,25 43,25.2 43,25.44 V 26.27 C 43.74,25.27 44.82,25.01 45.35,25 C 47.51,25.04 48.02,26.96 48,27.92 Z M 26.56,25.7 V 26.57 A 0.3,0.3 0 0,1 26.14,26.85 A 5.31,5.31 0 0,0 24.5,26.37 C 23.95,26.37 23.44,26.65 23.46,27.03 C 23.48,27.42 23.59,27.8 24.5,28.06 S 26.92,28.89 27,30.58 C 27.08,32.27 25.38,32.98 23.97,33 C 22.97,33.01 22.11,32.65 21.7,32.4 A 0.27,0.27 0 0,1 21.58,32.17 V 31.27 C 21.58,31.03 21.87,30.88 22.08,31 C 22.69,31.32 23.5,31.6 23.88,31.57 C 24.37,31.53 24.96,31.35 24.96,30.67 C 24.96,30.14 24.05,29.77 23.59,29.65 C 22.91,29.46 21.54,28.75 21.58,27.35 C 21.63,25.61 23.21,25.03 24.36,25 C 25.16,24.98 25.97,25.25 26.4,25.44 C 26.5,25.48 26.56,25.58 26.56,25.69 Z M 28,25.45 C 28,25.2 28.19,25 28.42,25 H 29.58 C 29.81,25 30,25.2 30,25.45 V 32.55 C 30,32.8 29.81,33 29.58,33 H 28.42 C 28.19,33 28,32.8 28,32.55 V 25.45 Z" fill="rgb(34, 30, 30)"/>
<path d="M 30.63,22.485 C 30.64,23.42 29.91,24.16 29,24.16 C 28.1,24.16 27.36,23.42 27.36,22.5 C 27.36,21.59 28.09,20.84 29,20.84 C 29.9,20.84 30.64,21.59 30.64,22.5 Z" fill="rgb(214, 63, 37)"/>
<path d="M 30.33,22.185 C 30.34,22.95 29.74,23.55 29,23.55 S 27.66,22.95 27.66,22.2 S 28.26,20.84 29,20.84 S 30.34,21.45 30.34,22.2 Z" fill="rgb(175, 48, 30)"/>
<path d="M 29.889999999999997,22.005 C 29.9,22.59 29.44,23.05 28.88,23.05 C 28.31,23.05 27.86,22.59 27.86,22.02 C 27.86,21.45 28.31,20.98 28.88,20.98 C 29.44,20.98 29.9,21.45 29.9,22.02 Z" fill="rgb(219, 114, 52)"/>
<path d="M 29.169999999999998,21.665 C 29.18,21.97 28.95,22.2 28.66,22.2 A 0.51,0.51 0 0,1 28.16,21.68 C 28.16,21.4 28.38,21.17 28.66,21.17 C 28.95,21.17 29.18,21.4 29.18,21.68 Z" fill="rgb(250, 230, 144)"/>
<path d="M 49.830000000000005,19.685 C 49.84,20.94 48.84,21.95 47.61,21.95 C 46.39,21.95 45.39,20.95 45.39,19.7 C 45.39,18.46 46.39,17.45 47.61,17.45 C 48.84,17.45 49.84,18.46 49.84,19.7 Z" fill="rgb(214, 63, 37)"/>
<path d="M 49.42,19.275 C 49.43,20.3 48.62,21.12 47.61,21.12 C 46.61,21.12 45.8,20.3 45.8,19.29 C 45.8,18.27 46.61,17.45 47.61,17.45 S 49.43,18.27 49.43,19.29 Z" fill="rgb(175, 48, 30)"/>
<path d="M 48.82,19.025 C 48.83,19.81 48.21,20.44 47.45,20.44 A 1.4,1.4 0 0,1 46.07,19.04 C 46.07,18.27 46.69,17.64 47.45,17.64 C 48.21,17.64 48.83,18.27 48.83,19.04 Z" fill="rgb(219, 114, 52)"/>
<path d="M 47.84,18.575 A 0.7,0.7 0 0,1 47.16,19.29 A 0.7,0.7 0 0,1 46.46,18.59 A 0.7,0.7 0 1,1 47.84,18.59 Z" fill="rgb(250, 230, 144)"/>
<path d="M 48.28,36.365 C 48.29,37.62 47.29,38.63 46.07,38.63 C 44.84,38.63 43.84,37.62 43.84,36.38 S 44.84,34.13 46.07,34.13 C 47.29,34.13 48.29,35.13 48.29,36.38 Z" fill="rgb(214, 63, 37)"/>
<path d="M 47.870000000000005,35.955 C 47.88,36.97 47.07,37.8 46.07,37.8 S 44.25,36.98 44.25,35.97 C 44.25,34.95 45.06,34.13 46.07,34.13 C 47.07,34.13 47.88,34.95 47.88,35.97 Z" fill="rgb(175, 48, 30)"/>
<path d="M 47.28,35.705 C 47.29,36.49 46.67,37.12 45.9,37.12 C 45.14,37.12 44.52,36.49 44.52,35.72 C 44.52,34.95 45.14,34.32 45.9,34.32 C 46.67,34.32 47.29,34.95 47.29,35.72 Z" fill="rgb(219, 114, 52)"/>
<path d="M 46.29,35.255 C 46.3,35.65 46,35.97 45.61,35.97 A 0.7,0.7 0 0,1 44.92,35.27 A 0.7,0.7 0 1,1 46.3,35.27 Z" fill="rgb(250, 230, 144)"/>
</svg>
