<?xml version="1.0" encoding="UTF-8"?>
<!-- generated by Finnhub -->
<svg viewBox="0 0 55.5 55.5" xmlns="http://www.w3.org/2000/svg">
<path d="M 0,0 H 55.5 V 55.5 H 0 Z" fill="rgb(239, 242, 248)"/>
<path d="M 26.59,16.125 C 26.6,15.24 27.53,13.67 28,13 C 28.47,13.67 29.4,15.23 29.4,16.14 L 29.68,16.16 L 29.7,16.04 C 29.88,15.15 31.1,13.79 31.7,13.22 C 32.02,13.97 32.64,15.68 32.46,16.57 L 32.44,16.67 L 32.8,16.78 L 32.84,16.68 C 33.19,15.85 34.67,14.76 35.37,14.32 C 35.54,15.12 35.79,16.92 35.43,17.75 C 35.43,17.78 35.41,17.8 35.4,17.82 L 35.71,17.98 L 35.75,17.92 C 36.27,17.17 37.95,16.4 38.71,16.1 C 38.71,16.91 38.6,18.73 38.08,19.48 L 38.07,19.49 L 38.33,19.7 L 38.34,19.69 C 39,19.06 40.8,18.62 41.61,18.48 C 41.46,19.26 40.99,20.97 40.35,21.63 L 40.67,22 C 41.47,21.55 43.26,21.49 44.07,21.51 C 43.76,22.22 42.98,23.71 42.24,24.28 L 42.32,24.42 C 43.22,24.16 44.9,24.42 45.67,24.58 A 8.86,8.86 0 0,1 43.44,26.93 C 43.48,27.03 43.52,27.13 43.54,27.24 C 44.5,27.2 46.01,27.74 46.7,28.04 A 9.37,9.37 0 0,1 44.16,29.88 L 44.2,30.2 C 45.13,30.39 46.4,31.13 47,31.53 A 10,10 0 0,1 44.3,32.85 L 44.27,33.25 C 45.13,33.64 46.17,34.55 46.67,35.03 C 46.44,35.13 46.12,35.25 45.77,35.37 L 42.44,33.02 H 42.56 L 42.57,32.75 C 42.15,32.65 41.81,32.52 41.63,32.43 V 30.63 C 41.79,30.56 42.1,30.43 42.48,30.33 L 42.44,30.04 A 5.26,5.26 0 0,1 41.59,29.91 L 41.25,28.14 C 41.38,28.04 41.61,27.9 41.9,27.75 L 41.77,27.36 C 41.45,27.39 41.18,27.39 41.02,27.38 L 40.34,25.71 C 40.44,25.61 40.61,25.45 40.83,25.27 L 40.66,24.97 C 40.39,25.05 40.16,25.09 40.02,25.11 L 39.04,23.59 C 39.11,23.48 39.22,23.32 39.38,23.14 L 38.92,22.6 C 38.72,22.7 38.53,22.78 38.42,22.82 L 37.13,21.52 C 37.17,21.42 37.23,21.27 37.33,21.09 L 36.85,20.71 C 36.69,20.83 36.55,20.91 36.45,20.97 L 34.94,19.96 C 34.95,19.86 34.98,19.71 35.03,19.54 L 34.43,19.24 A 4.1,4.1 0 0,1 34.14,19.54 L 32.45,18.84 V 18.45 A 14.6,14.6 0 0,0 31.77,18.25 L 31.56,18.58 L 29.76,18.23 A 3.85,3.85 0 0,1 29.69,17.87 L 29.1,17.82 L 28.92,18.28 H 27.08 C 27.03,18.18 26.97,18.01 26.9,17.82 A 15,15 0 0,0 26.35,17.87 L 26.27,18.23 L 24.47,18.58 A 4,4 0 0,1 24.26,18.25 C 24.03,18.31 23.8,18.37 23.58,18.45 V 18.85 L 21.89,19.54 A 4.15,4.15 0 0,1 21.59,19.24 C 21.39,19.33 21.19,19.42 21,19.53 C 21.05,19.7 21.08,19.85 21.1,19.96 L 19.58,20.97 A 4.4,4.4 0 0,1 19.18,20.7 L 18.69,21.07 C 18.79,21.26 18.86,21.42 18.9,21.53 L 17.62,22.82 A 4.64,4.64 0 0,1 17.09,22.59 L 16.64,23.11 C 16.8,23.31 16.93,23.48 17,23.59 L 16,25.1 A 4.94,4.94 0 0,1 15.34,24.96 L 15.17,25.24 C 15.41,25.43 15.58,25.59 15.69,25.7 L 15,27.38 C 14.84,27.4 14.56,27.39 14.22,27.36 L 14.09,27.74 C 14.39,27.89 14.64,28.04 14.78,28.14 L 14.43,29.91 C 14.26,29.96 13.93,30.01 13.55,30.04 L 13.51,30.34 C 13.89,30.44 14.2,30.55 14.36,30.64 V 32.4 L 14.24,32.49 C 14.04,32.57 13.76,32.67 13.42,32.75 L 13.43,33.01 H 13.55 L 10.43,35.36 C 10.09,35.24 9.79,35.13 9.57,35.03 C 10.01,34.59 10.92,33.8 11.73,33.37 L 11.69,32.85 C 10.77,32.63 9.56,31.92 8.99,31.53 C 9.59,31.13 10.86,30.39 11.79,30.2 L 11.83,29.87 C 10.95,29.51 9.83,28.54 9.33,28.04 C 10.01,27.74 11.49,27.22 12.44,27.24 L 12.55,26.91 A 9,9 0 0,1 10.35,24.58 C 11.11,24.42 12.76,24.17 13.67,24.41 L 13.76,24.26 C 13.02,23.68 12.26,22.22 11.96,21.51 C 12.76,21.49 14.52,21.55 15.34,21.99 C 15.44,21.86 15.54,21.73 15.66,21.61 C 15.03,20.94 14.56,19.26 14.41,18.48 C 15.23,18.62 17.01,19.05 17.68,19.68 L 17.95,19.48 C 17.43,18.73 17.31,16.91 17.31,16.1 C 18.08,16.4 19.76,17.17 20.27,17.92 L 20.3,17.96 L 20.61,17.81 L 20.59,17.75 C 20.24,16.92 20.49,15.12 20.65,14.32 C 21.35,14.76 22.83,15.85 23.19,16.69 L 23.22,16.77 L 23.59,16.67 L 23.56,16.57 C 23.39,15.68 24,13.97 24.33,13.22 C 24.93,13.79 26.15,15.15 26.33,16.04 L 26.35,16.16 L 26.58,16.14 Z" fill="rgb(1, 73, 150)"/>
<path d="M 15.49,31.544999999999998 V 30 H 26.5 L 24.4,32 H 17.74 L 16.66,30.89 L 15.5,31.56 Z M 37,30 H 32 L 34.3,31.7 L 37,30 Z M 19.15,33 H 23 L 21.3,34.3 L 19.16,33 Z M 40.41,31.29 V 30 H 38.81 L 40.41,31.29 Z M 27.88,29 H 15.79 C 15.99,28.3 16.25,27.64 16.56,27 H 39.44 C 39.75,27.64 40.01,28.3 40.21,29 H 30.76 L 29.34,27.76 L 27.88,29 Z M 17.12,26 C 17.56,25.28 18.07,24.61 18.65,24 H 37.35 C 37.93,24.61 38.45,25.28 38.88,26 H 17.12 Z M 36.29,23 H 19.71 C 20.14,22.64 20.59,22.3 21.07,22 H 34.93 C 35.41,22.3 35.86,22.64 36.29,23 Z M 33.01,21 A 12.96,12.96 0 0,0 23,21 H 33 Z" fill="rgb(1, 73, 150)"/>
<path d="M 18.459999999999997,36.985 H 9.42 L 16.26,31.7 L 20.84,34.8 L 18.47,37 Z M 21.38,35.27 L 19.4,37 H 23.59 L 21.38,35.27 Z M 29.31,28.42 L 21.95,34.83 L 24.67,37 H 26.43 L 33.57,32.1 L 29.31,28.42 Z M 39.26,37 H 27.56 L 34.17,32.57 L 39.26,37 Z M 37.82,30.3 L 34.75,32.26 L 40.28,37 H 46.84 L 37.82,30.3 Z" fill="rgb(1, 73, 150)"/>
</svg>
