<?xml version="1.0" encoding="UTF-8"?>
<!-- generated by Finnhub -->
<svg viewBox="0 0 55.5 55.5" xmlns="http://www.w3.org/2000/svg">
<path d="M 0,0 H 55.5 V 55.5 H 0 Z" fill="url(#a)"/>
<path d="M 6.273000000000001,24.985 L 5,26.228 V 31 H 6.283 V 28.5 H 8.368 V 27.5 H 6.283 V 26 H 9 V 25 H 6.283 Z M 12.155,25 L 10.878,26.228 V 31 H 12.155 V 28.5 H 13.425 V 31 H 14.711 V 26.228 L 13.425,25 H 12.155 Z M 12.155,27.382 H 13.425 V 26.228 H 12.155 V 27.382 Z M 49.722,25 V 27.39 H 48.285 V 25 H 47 V 31 H 48.285 V 28.618 H 49.722 V 31 H 51 V 25 H 49.722 Z M 17.267,25 V 31 H 18.542 V 28.5 H 19.825 V 31 H 21.1 V 28.618 L 19.825,27.39 H 18.542 V 26.228 H 19.825 V 27.39 H 21.1 V 26.228 L 19.825,25 H 17.267 Z M 24.938,25 L 23.717,26.162 V 31 H 25 V 28.568 H 27 V 27.53 L 25,27.499 V 26 H 27.5 L 27.488,25 H 24.938 Z M 35.42,24.995 L 35.41,26 H 36.685 V 31 H 38 V 26 H 39.245 V 24.995 H 35.419 Z M 30.553,25 L 29.278,26.162 V 29.839 L 30.553,31 H 33 V 30 H 30.553 V 28.5 H 32.473 V 27.5 H 30.553 V 26 H 33 V 25 H 30.553 Z M 42.442,25 L 41.166,26.228 V 29.838 L 42.442,31.067 H 45 V 30 H 42.45 L 42.442,26 H 45 V 25 H 42.442 Z" fill="rgb(254, 254, 253)" fill-rule="evenodd"/>
<defs>
<linearGradient id="a" x1="10.418" x2="68.147" y1="9.712" y2="76.017" gradientUnits="userSpaceOnUse">
<stop stop-color="rgb(25, 29, 31)" offset="0"/>
<stop stop-color="rgb(5, 5, 8)" offset="1"/>
</linearGradient>
</defs>
</svg>
