<?xml version="1.0" encoding="UTF-8"?>
<!-- generated by Finnhub -->
<svg viewBox="0 0 55.5 55.5" xmlns="http://www.w3.org/2000/svg">
<path d="M 0,0 H 55.5 V 55.5 H 0 Z" fill="url(#a)"/>
<path d="M 26.889999999999997,19.205 H 26.7 L 27.02,18 C 27.1,18 27.17,18.06 27.23,18.1 C 27.26,18.13 27.29,18.16 27.33,18.17 C 27.35,18.19 27.39,18.21 27.43,18.21 H 31.57 C 31.61,18.21 31.65,18.2 31.67,18.18 L 31.77,18.11 C 31.85,18.05 31.92,18 32,18 V 19.22 H 31.78 V 19.02 A 0.47,0.47 0 0,0 31.31,18.56 H 30 V 23.46 C 30,23.63 30.1,23.76 30.27,23.76 H 30.57 V 24 H 28.37 V 23.76 H 28.69 C 28.86,23.76 29,23.63 29,23.46 V 18.56 H 27.5 C 27.3,18.56 27.13,18.68 27.06,18.86 L 26.91,19.22 Z M 9,24 H 11.84 V 23.72 H 11.64 A 0.64,0.64 0 0,1 11,23.09 V 21 H 11.63 C 11.97,21 12.25,21.32 12.25,21.68 V 21.82 H 12.45 V 20.5 H 12.35 L 12.25,20.73 H 11 V 18.38 H 12.3 C 12.56,18.38 12.77,18.6 12.77,18.86 V 19.17 H 13 V 18 H 9 V 18.21 H 9.24 C 9.5,18.21 10,18.42 10,18.69 V 23.09 C 10,23.44 9.43,23.72 9.08,23.72 H 9 V 24 Z M 23.45,24 C 22.69,24 22.26,23.79 22.15,23.68 V 22.56 H 22.37 C 22.31,22.93 22.45,23.68 23.45,23.68 C 24.7,23.68 24.49,22.64 24.2,22.34 C 24.13,22.26 23.96,22.16 23.75,22.04 C 23.15,21.7 22.25,21.18 22.25,20.38 C 22.25,19.31 23.41,19 24.05,19 C 24.57,19 24.94,19.18 25.06,19.27 V 20.21 H 24.86 C 24.86,19.73 24.63,19.36 24.06,19.36 C 23.48,19.36 22.98,19.59 22.98,20.02 C 22.98,20.45 23.44,20.72 23.7,20.85 L 23.75,20.87 C 24.08,21.03 25.23,21.56 25.23,22.47 C 25.23,23.43 24.4,24 23.45,24 Z M 13.45,19.29 V 19 H 15.47 V 19.29 H 15.27 C 15.09,19.29 15,19.42 15,19.59 V 23.46 C 15,23.63 15.1,23.76 15.27,23.76 H 15.47 V 24 H 13.45 V 23.76 H 13.72 C 13.9,23.76 14,23.63 14,23.46 V 19.59 C 14,19.42 13.9,19.29 13.72,19.29 H 13.45 Z M 32.45,19 V 19.29 H 32.72 C 32.89,19.29 33,19.42 33,19.59 V 23.46 C 33,23.63 32.9,23.76 32.72,23.76 H 32.44 V 24 H 34.47 V 23.76 H 34.27 C 34.09,23.76 34,23.63 34,23.46 V 19.59 C 34,19.42 34.09,19.29 34.26,19.29 H 34.47 V 19 H 32.44 Z M 16.3,19 H 19.13 C 19.53,19.02 20.32,19.3 20.32,20.32 C 20.32,21.04 19.85,21.48 19.34,21.73 L 21.21,23.79 H 21.78 V 24 H 20.52 C 20.12,23.8 19.76,23.48 19.59,23.26 A 61,61 0 0,1 18.66,21.96 A 1.9,1.9 0 0,1 18.31,22 H 18 V 23.47 C 18,23.64 18.04,23.77 18.2,23.77 H 18.45 V 24 H 16.31 V 23.78 H 16.68 C 16.86,23.78 17,23.64 17,23.48 V 19.55 C 17,19.38 16.86,19.25 16.68,19.25 H 16.31 V 19 Z M 17.99,19.36 V 21.54 C 18.08,21.56 18.33,21.6 18.61,21.6 C 18.97,21.6 19.51,21.36 19.51,20.45 C 19.51,19.55 18.84,19.28 17.99,19.35 Z M 35.66,24 H 37.2 V 23.82 H 36.69 L 37.15,20.92 L 38.87,24 L 40.63,20.91 L 41.05,23.81 H 40.78 V 24 H 42.71 V 23.82 H 42.23 A 0.31,0.31 0 0,1 41.93,23.57 L 41.05,19 L 39.05,22.75 L 37,19 L 36.25,23.56 A 0.31,0.31 0 0,1 35.94,23.82 H 35.66 V 24 Z M 43.34,19.24 V 19 H 46.81 V 20.05 H 46.62 V 19.92 A 0.46,0.46 0 0,0 46.15,19.46 H 45 V 21.16 H 46.46 L 46.56,20.93 H 46.66 V 22.21 H 46.46 V 22.07 A 0.62,0.62 0 0,0 45.84,21.45 H 45 V 23.3 C 45,23.47 45.07,23.6 45.24,23.6 H 46.22 C 46.42,23.6 46.59,23.49 46.66,23.3 L 46.81,22.92 H 47 L 46.71,24 H 43.34 V 23.77 H 43.62 C 43.88,23.77 44,23.57 44,23.31 V 19.7 C 44,19.44 43.88,19.24 43.62,19.24 H 43.34 Z M 16.87,29.27 H 16.54 C 16.7,28.58 16.54,26.79 14.62,26.79 C 12.69,26.79 12.3,28.73 13.48,30.83 C 14.21,32.11 16.2,34.05 17.92,35.59 C 18.4,34.87 18.69,34.12 18.82,33.58 C 19.07,32.44 18.5,32.2 18.18,32.23 H 17.52 V 31.93 C 17.87,31.89 18.77,31.86 19.61,31.93 C 20.44,31.99 20.47,32.43 20.38,32.63 A 7.98,7.98 0 0,1 18.73,36.31 C 19.49,36.96 20.13,37.48 20.49,37.76 C 21.49,38.53 22.58,38.64 23,38.6 V 39 H 20.27 C 19.19,39 18.19,38.4 17.31,37.66 A 6.4,6.4 0 0,1 13.8,39 C 11.84,39 9,38.27 9,35.44 C 9,33.11 10.91,31.71 11.66,31.29 A 4.38,4.38 0 0,1 11,29.27 C 11,27.19 12.8,26 14.62,26 C 16.07,26 16.96,26.42 17.22,26.63 L 16.87,29.27 Z M 15.75,36.15 C 16,36.42 16.29,36.72 16.59,37.01 C 15.89,37.53 15,37.88 13.91,37.88 C 10.94,37.88 9.91,34.02 12.1,32 C 13.09,33.47 14.48,34.9 15.16,35.55 L 15.75,36.15 Z M 24,37.5 H 44 V 38 H 24 V 37.5 Z M 45.25,36.5 A 0.75,0.75 0 1,0 45.25,35 A 0.75,0.75 0 0,0 45.25,36.5 Z M 32.65,34.41 H 32.29 C 32.22,35 31.61,36.17 29.67,36.17 C 27.25,36.17 25.77,33.89 25.77,32.27 C 25.77,30.67 26.22,27.6 29.29,27.6 C 31.74,27.6 32.18,29.13 32.09,29.9 H 32.47 V 27.6 C 32.14,27.4 31.11,27 29.67,27 C 27.55,27 24,27.64 24,31.87 C 24,36.09 27.85,37 29.67,37 C 31.12,37 32.02,36.63 32.29,36.44 L 32.65,34.41 Z M 43,32 A 5,5 0 1,1 33,32 A 5,5 0 0,1 43,32 Z M 41.1,31.12 C 41.69,33.49 40.75,35.82 38.98,36.32 C 37.22,36.83 35.3,35.32 34.7,32.94 C 34.1,30.56 35.05,28.24 36.81,27.74 C 38.58,27.23 40.49,28.74 41.09,31.12 Z" fill="rgb(253, 253, 252)" fill-rule="evenodd"/>
<defs>
<linearGradient id="a" x1="10.42" x2="68.15" y1="9.71" y2="76.02" gradientUnits="userSpaceOnUse">
<stop stop-color="rgb(25, 29, 31)" offset="0"/>
<stop stop-color="rgb(5, 5, 8)" offset="1"/>
</linearGradient>
</defs>
</svg>
