<?xml version="1.0" encoding="UTF-8"?>
<!-- generated by Finnhub -->
<svg viewBox="0 0 55.5 55.5" xmlns="http://www.w3.org/2000/svg">
<path d="M 0,0 H 55.5 V 55.5 H 0 Z" fill="rgb(239, 242, 248)"/>
<path d="M 24.41,8.985 H 24.87 C 25.42,9.33 25.48,9.7 25.07,10.1 C 24.57,10.57 24.1,11.04 23.63,11.52 A 0.14,0.14 0 0,0 23.63,11.72 L 27.75,15.82 C 27.83,15.9 27.93,15.95 28.05,15.95 C 32.71,16.1 36.44,17.95 39.23,21.52 A 14.08,14.08 0 0,1 41.9,32.73 C 41.18,36.41 38.83,39.73 35.71,42 H 42.53 C 42.75,42 42.9,42.11 42.97,42.32 C 43.04,42.53 43,42.88 42.53,43 H 13.43 C 12.95,42.87 12.96,42.44 13.04,42.26 C 13.12,42.07 13.26,42 13.47,42 H 20.13 C 20.31,42 20.33,41.95 20.17,41.85 C 19.57,41.45 18.61,40.73 18.07,40.2 A 14.16,14.16 0 0,1 17.32,20.74 C 17.32,20.72 17.31,20.71 17.29,20.69 L 15.94,19.35 A 0.13,0.13 0 0,0 15.79,19.32 A 0.13,0.13 0 0,0 15.75,19.35 L 14.32,20.81 C 14.04,21.1 13.74,21.11 13.42,20.85 A 0.66,0.66 0 0,1 13.44,19.88 L 15.34,18 C 15.68,17.66 16.04,17.66 16.39,18 L 18.63,20.24 C 18.95,20.56 18.95,20.89 18.63,21.22 C 12.96,27.28 14.25,36.52 21.11,40.99 A 0.15,0.15 0 0,0 21.33,40.93 A 7.74,7.74 0 0,1 24.19,37.8 A 0.1,0.1 0 0,1 24.29,37.85 A 3.86,3.86 0 0,0 31.67,37.82 A 0.1,0.1 0 0,1 31.75,37.8 A 7.75,7.75 0 0,1 34.67,40.98 A 0.15,0.15 0 0,0 34.79,41.01 C 34.82,41.01 34.84,40.99 34.86,40.98 A 12.97,12.97 0 0,0 40.46,33.33 C 41.54,29.25 40.51,24.89 37.79,21.76 A 12.8,12.8 0 0,0 27.57,17.22 A 0.48,0.48 0 0,1 27.21,17.07 L 22.25,12.12 C 21.9,11.78 21.91,11.44 22.25,11.1 L 24.42,9 Z" fill="rgb(122, 152, 166)"/>
<path d="M 19.88,13.385 L 17.63,15.66 A 0.47,0.47 0 0,0 17.63,16.33 L 18.49,17.19 C 18.67,17.37 18.98,17.37 19.16,17.19 L 21.42,14.93 A 0.47,0.47 0 0,0 21.42,14.26 L 20.56,13.4 A 0.48,0.48 0 0,0 19.89,13.4 Z" fill="rgb(102, 173, 60)"/>
<path d="M 34.190000000000005,27.005 L 31.3,29.92 C 29.64,28.32 28.02,26.72 26.45,25.13 C 26,24.68 25.29,24.23 24.65,24.52 C 23.58,25.02 22.74,26.32 22.38,27.38 C 21.47,30.06 22.52,32.78 24.87,34.31 C 24.93,34.35 24.94,34.4 24.89,34.46 A 3.72,3.72 0 0,0 24.12,36.66 A 0.12,0.12 0 0,1 24.02,36.71 C 24,36.71 23.98,36.71 23.96,36.69 A 7.8,7.8 0 0,1 23.08,23.92 C 23.74,23.42 23.97,22.66 23.3,21.99 A 1247.26,1247.26 0 0,1 19.63,18.32 A 0.13,0.13 0 0,1 19.66,18.17 L 22.42,15.42 C 22.47,15.36 22.52,15.36 22.58,15.42 L 34.2,27.02 Z" fill="rgb(77, 99, 109)"/>
<path d="M 31.29,29.905 L 34.2,27.02 C 34.61,26.38 35.01,26.24 35.4,26.6 C 35.7,26.88 35.97,27.17 36.23,27.46 A 0.36,0.36 0 0,1 36.28,27.86 C 36.21,28 36.12,28.13 36,28.24 A 378,378 0 0,0 32.23,31.98 A 0.45,0.45 0 0,1 31.61,32 C 31.32,31.74 31.03,31.44 30.73,31.12 C 30.49,30.86 30.52,30.59 30.8,30.35 L 31.3,29.92 Z" fill="rgb(102, 173, 60)"/>
<path d="M 35.77,30.185 A 7.77,7.77 0 0,1 31.93,36.74 A 0.09,0.09 0 0,1 31.83,36.64 A 3.91,3.91 0 0,0 31.07,34.44 C 31.03,34.39 31.04,34.34 31.09,34.31 C 32.74,33.14 34.12,31.57 35.49,30.08 C 35.69,29.87 35.79,29.91 35.79,30.19 Z" fill="rgb(77, 99, 109)"/>
<path d="M 30.009999999999998,38.735 A 2.87,2.87 0 0,0 27.98,33.85 A 2.89,2.89 0 0,0 25.09,36.72 A 2.87,2.87 0 0,0 27.98,39.59 C 28.74,39.59 29.48,39.29 30.02,38.75 Z M 29.29,36.72 A 1.31,1.31 0 1,1 26.67,36.72 A 1.31,1.31 0 0,1 29.29,36.72 Z" fill="rgb(102, 173, 60)"/>
</svg>
