<?xml version="1.0" encoding="UTF-8"?>
<!-- generated by Finnhub -->
<svg viewBox="0 0 55.5 55.5" xmlns="http://www.w3.org/2000/svg">
<path d="M 0,0 H 55.5 V 55.5 H 0 Z" fill="url(#m)"/>
<path d="M 22.979999999999997,25.785 C 16.55,25.33 7.83,23.23 4.28,22.24 C 4.65,23.02 5.93,24.56 6.46,25.12 C 6.88,25.56 7.7,25.92 8.06,26.05 A 70.4,70.4 0 0,0 19.54,28.71 L 22.99,25.81 Z" fill="url(#l)"/>
<path d="M 3.99,21.985 L 4.32,22.1 C 7.87,23.08 16.57,25.18 23,25.65 L 23.38,25.67 L 19.58,28.87 H 19.52 A 70.52,70.52 0 0,1 8.02,26.2 C 7.83,26.14 7.52,26.01 7.22,25.84 C 6.91,25.68 6.58,25.47 6.35,25.23 C 6.08,24.94 5.63,24.42 5.19,23.86 A 9.76,9.76 0 0,1 4.15,22.31 L 4,22.01 Z M 4.59,22.5 A 20.67,20.67 0 0,0 6.56,25 C 6.76,25.2 7.06,25.4 7.36,25.55 C 7.65,25.71 7.94,25.83 8.11,25.89 C 12.31,27.33 17.41,28.25 19.49,28.54 L 22.59,25.92 C 16.39,25.42 8.26,23.48 4.59,22.48 Z" fill="url(#k)"/>
<path d="M 33.0,25.785 C 39.45,25.33 48.17,23.23 51.72,22.24 C 51.35,23.02 50.07,24.56 49.54,25.12 C 49.12,25.56 48.3,25.92 47.94,26.05 A 70.4,70.4 0 0,1 36.46,28.71 L 33.01,25.81 Z" fill="url(#j)"/>
<path d="M 51.99,21.985 L 51.68,22.1 C 48.13,23.08 39.43,25.18 33,25.65 L 32.62,25.67 L 36.42,28.87 H 36.48 A 70.52,70.52 0 0,0 47.98,26.2 C 48.17,26.14 48.48,26.01 48.78,25.84 C 49.09,25.68 49.42,25.47 49.65,25.23 C 49.92,24.94 50.37,24.42 50.81,23.86 C 51.24,23.31 51.66,22.72 51.85,22.31 L 52,22.01 Z M 51.41,22.5 A 20.67,20.67 0 0,1 49.44,25 C 49.24,25.2 48.94,25.4 48.64,25.55 C 48.35,25.71 48.06,25.83 47.89,25.89 A 70.26,70.26 0 0,1 36.51,28.54 L 33.41,25.92 C 39.61,25.42 47.74,23.48 51.41,22.48 Z" fill="url(#i)"/>
<path d="M 18.459999999999997,29.535 A 41.73,41.73 0 0,1 9.1,27.28 C 9.92,28.17 11.85,30.04 13.04,30.41 C 14.24,30.78 16.1,31.04 16.89,31.12 L 18.47,29.55 Z" fill="url(#h)"/>
<path d="M 8.99,27.384999999999998 L 9.15,27.14 C 10.45,27.66 14.16,28.86 18.49,29.39 L 18.81,29.43 L 16.94,31.28 H 16.87 C 16.09,31.19 14.21,30.94 13,30.56 A 7.32,7.32 0 0,1 10.84,29.16 A 22.4,22.4 0 0,1 9,27.4 Z M 9.68,27.67 C 10.06,28.05 10.53,28.5 11.02,28.92 C 11.76,29.54 12.52,30.08 13.08,30.26 C 14.23,30.61 16.02,30.86 16.83,30.96 L 18.13,29.66 A 43.57,43.57 0 0,1 9.68,27.66 Z" fill="url(#g)"/>
<path d="M 37.52,29.535 A 41.73,41.73 0 0,0 46.9,27.28 C 46.08,28.17 44.15,30.04 42.96,30.41 C 41.76,30.78 39.9,31.04 39.11,31.12 L 37.53,29.55 Z" fill="url(#f)"/>
<path d="M 46.99,27.384999999999998 L 46.85,27.14 C 45.55,27.66 41.84,28.86 37.51,29.39 L 37.19,29.43 L 39.06,31.28 H 39.13 C 39.91,31.19 41.79,30.94 43,30.56 C 43.63,30.36 44.43,29.78 45.16,29.16 A 22.4,22.4 0 0,0 47,27.4 Z M 46.32,27.67 C 45.94,28.05 45.47,28.5 44.98,28.92 A 7.08,7.08 0 0,1 42.92,30.26 C 41.77,30.61 39.98,30.86 39.17,30.96 L 37.87,29.66 A 43.57,43.57 0 0,0 46.32,27.66 Z" fill="url(#e)"/>
<path d="M 24.36,30.265 L 22.9,31.86 H 33 L 31.5,30.28 H 24.36 Z" fill="url(#d)"/>
<path d="M 24.299999999999997,29.985 H 31.57 L 33.37,32 H 22.54 L 24.31,30 Z M 24.44,30.33 L 23.25,31.67 H 32.65 L 31.45,30.33 H 24.44 Z" fill="url(#c)"/>
<path d="M 25.43,25.445 C 23.74,25.46 16.74,32.06 14.44,34.82 C 18.21,34.58 20.11,33.65 20.6,33.22 C 22.63,30.9 25.2,28.36 25.77,27.89 C 26.24,27.51 26.71,27.43 26.89,27.44 H 28.81 C 29.26,27.41 29.81,27.73 30.04,27.89 C 31.14,28.67 33.95,31.76 35.22,33.21 C 36.58,34.27 39.94,34.72 41.45,34.82 C 37.18,29.84 31.85,25.46 30.27,25.46 H 25.44 Z" fill="url(#b)"/>
<path d="M 14.790000000000001,34.625 C 16.49,34.51 17.78,34.24 18.7,33.94 C 19.7,33.63 20.27,33.3 20.5,33.1 A 71.6,71.6 0 0,1 25.69,27.76 C 26.18,27.36 26.69,27.27 26.89,27.28 H 28.8 C 29.06,27.26 29.33,27.35 29.57,27.45 C 29.8,27.55 30,27.67 30.12,27.76 C 30.69,28.16 31.68,29.14 32.67,30.19 C 33.67,31.24 34.68,32.37 35.32,33.09 C 35.97,33.59 37.12,33.97 38.31,34.22 C 39.31,34.44 40.34,34.57 41.09,34.64 A 57.28,57.28 0 0,0 34.76,28.39 A 25.48,25.48 0 0,0 32.01,26.35 C 31.62,26.11 31.27,25.93 30.98,25.8 C 30.68,25.67 30.44,25.61 30.27,25.61 H 25.44 A 2,2 0 0,0 24.64,25.89 C 24.29,26.07 23.87,26.33 23.41,26.66 C 22.48,27.32 21.38,28.23 20.25,29.23 A 66.34,66.34 0 0,0 14.79,34.63 Z M 24.5,25.6 C 24.87,25.42 25.2,25.3 25.44,25.3 H 30.27 C 30.5,25.3 30.77,25.38 31.09,25.5 C 31.4,25.64 31.76,25.84 32.16,26.08 C 32.96,26.58 33.91,27.28 34.95,28.15 A 57.7,57.7 0 0,1 41.55,34.71 L 41.8,35 L 41.44,34.98 C 40.68,34.93 39.45,34.78 38.24,34.53 A 8.33,8.33 0 0,1 35.14,33.33 H 35.12 V 33.32 C 34.48,32.6 33.46,31.46 32.47,30.42 A 23.2,23.2 0 0,0 29.96,28.02 C 29.86,27.94 29.66,27.82 29.46,27.74 C 29.24,27.64 29.01,27.58 28.82,27.59 H 26.89 C 26.74,27.59 26.3,27.66 25.87,28.01 C 25.29,28.48 22.73,31.01 20.7,33.32 V 33.33 C 20.43,33.57 19.8,33.93 18.8,34.24 A 18.5,18.5 0 0,1 14.45,34.98 L 14.09,35 L 14.33,34.72 A 63.31,63.31 0 0,1 23.24,26.4 C 23.71,26.07 24.14,25.8 24.51,25.6 Z" fill="url(#a)"/>
<defs>
<linearGradient id="m" x1="10.42" x2="68.15" y1="9.71" y2="76.02" gradientUnits="userSpaceOnUse">
<stop stop-color="rgb(25, 29, 31)" offset="0"/>
<stop stop-color="rgb(5, 5, 8)" offset="1"/>
</linearGradient>
<linearGradient id="l" x1="4.71" x2="21.55" y1="22.94" y2="26.79" gradientUnits="userSpaceOnUse">
<stop stop-color="rgb(30, 152, 212)" offset=".26"/>
<stop stop-color="rgb(215, 231, 238)" offset="1"/>
</linearGradient>
<linearGradient id="k" x1="4.5" x2="21.39" y1="22.68" y2="26.94" gradientUnits="userSpaceOnUse">
<stop stop-color="rgb(173, 178, 182)" offset="0"/>
<stop stop-color="rgb(238, 240, 242)" offset="1"/>
</linearGradient>
<linearGradient id="j" x1="51.29" x2="34.45" y1="22.94" y2="26.79" gradientUnits="userSpaceOnUse">
<stop stop-color="rgb(30, 152, 212)" offset=".26"/>
<stop stop-color="rgb(215, 231, 238)" offset="1"/>
</linearGradient>
<linearGradient id="i" x1="51.5" x2="34.61" y1="22.68" y2="26.94" gradientUnits="userSpaceOnUse">
<stop stop-color="rgb(173, 178, 182)" offset="0"/>
<stop stop-color="rgb(238, 240, 242)" offset="1"/>
</linearGradient>
<linearGradient id="h" x1="10.18" x2="17.42" y1="28.05" y2="30.27" gradientUnits="userSpaceOnUse">
<stop stop-color="rgb(25, 122, 166)" offset="0"/>
<stop stop-color="rgb(28, 139, 205)" offset="1"/>
</linearGradient>
<linearGradient id="g" x1="9.63" x2="17.67" y1="27.96" y2="30.18" gradientUnits="userSpaceOnUse">
<stop stop-color="rgb(163, 169, 174)" offset="0"/>
<stop stop-color="rgb(206, 213, 216)" offset="1"/>
</linearGradient>
<linearGradient id="f" x1="45.82" x2="38.58" y1="28.05" y2="30.27" gradientUnits="userSpaceOnUse">
<stop stop-color="rgb(25, 122, 166)" offset="0"/>
<stop stop-color="rgb(28, 139, 205)" offset="1"/>
</linearGradient>
<linearGradient id="e" x1="46.37" x2="38.33" y1="27.96" y2="30.18" gradientUnits="userSpaceOnUse">
<stop stop-color="rgb(163, 169, 174)" offset="0"/>
<stop stop-color="rgb(206, 213, 216)" offset="1"/>
</linearGradient>
<linearGradient id="d" x1="32.01" x2="23.68" y1="31.07" y2="31.07" gradientUnits="userSpaceOnUse">
<stop stop-color="rgb(131, 197, 224)" offset="0"/>
<stop stop-color="rgb(96, 169, 207)" offset="1"/>
</linearGradient>
<linearGradient id="c" x1="32.46" x2="23.78" y1="31" y2="31" gradientUnits="userSpaceOnUse">
<stop stop-color="rgb(175, 171, 169)" offset="0"/>
<stop stop-color="rgb(169, 166, 165)" offset="1"/>
</linearGradient>
<linearGradient id="b" x1="27.94" x2="27.94" y1="25.46" y2="34.82" gradientUnits="userSpaceOnUse">
<stop stop-color="rgb(246, 246, 244)" offset="0"/>
<stop stop-color="rgb(129, 124, 122)" offset=".48"/>
<stop stop-color="rgb(121, 112, 108)" offset=".68"/>
<stop stop-color="rgb(157, 145, 139)" offset="1"/>
</linearGradient>
<linearGradient id="a" x1="39.07" x2="17.27" y1="31.88" y2="31.88" gradientUnits="userSpaceOnUse">
<stop stop-color="rgb(163, 156, 152)" offset="0"/>
<stop stop-color="rgb(203, 200, 199)" offset="1"/>
</linearGradient>
</defs>
</svg>
