<?xml version="1.0" encoding="UTF-8"?>
<!-- generated by Finnhub -->
<svg viewBox="0 0 55.5 55.5" xmlns="http://www.w3.org/2000/svg">
<path d="M 0,0 H 55.5 V 55.5 H 0 Z" fill="rgb(239, 242, 248)"/>
<path d="M 15.040000000000001,24.785 C 15.2,25.03 15.32,25.28 15.41,25.57 H 17.37 A 4,4 0 0,0 15.88,22.99 C 15.48,22.68 15.04,22.43 14.53,22.26 A 5.06,5.06 0 0,0 9.39,23.46 A 5.02,5.02 0 0,0 8.36,25.19 A 6.86,6.86 0 0,0 8,27.51 C 8,28.64 8.2,29.61 8.62,30.44 A 4.58,4.58 0 0,0 12.94,33 C 13.82,33 14.6,32.82 15.28,32.46 A 3.99,3.99 0 0,0 16.88,30.91 C 17.27,30.24 17.46,29.45 17.46,28.54 V 27.5 H 13 V 29 H 15.58 C 15.55,29.4 15.44,29.75 15.28,30.06 A 2.2,2.2 0 0,1 14.35,30.95 C 13.95,31.15 13.49,31.25 12.95,31.25 C 12.35,31.25 11.83,31.11 11.38,30.83 A 2.9,2.9 0 0,1 10.32,29.54 A 5.03,5.03 0 0,1 10,27.5 C 10,26.7 10.07,26.02 10.32,25.46 C 10.58,24.9 10.92,24.47 11.38,24.18 A 2.98,2.98 0 0,1 13.79,23.88 A 2.18,2.18 0 0,1 15.05,24.82 Z M 20.37,33 H 18.3 L 22.05,22 H 24.43 L 28.18,33 H 26.12 L 25.17,30.08 H 21.3 L 20.37,33 Z M 23.29,24.26 L 24.69,28.54 H 21.8 L 23.2,24.26 H 23.28 Z M 30,33 H 33.6 C 36.85,33 39,30.63 39,27.49 C 39,24.4 36.9,22 33.68,22 H 30 V 33 Z M 33.52,31.28 H 32 V 23.72 H 33.57 C 35.83,23.72 37,25.38 37,27.49 C 37,29.65 35.8,31.28 33.52,31.28 Z M 43.99,23.64 C 44.91,23.64 45.89,23.98 45.99,25 H 47.85 C 47.82,22.95 45.85,22 44.02,22 C 42.15,22 40.1,23.06 40.1,25.15 C 40.1,25.92 40.36,26.53 40.86,27 C 41.37,27.46 42.06,27.8 42.94,28.02 L 44.16,28.34 C 44.54,28.44 44.87,28.54 45.16,28.67 C 45.44,28.79 45.66,28.95 45.83,29.13 C 45.99,29.31 46.07,29.54 46.07,29.83 C 46.06,30.93 44.87,31.35 43.94,31.35 C 42.89,31.35 41.81,31.17 41.72,30 H 39.82 C 39.92,32.28 41.87,33 43.96,33 C 45.91,33 48,32.05 48,29.84 C 48,29.37 47.91,28.97 47.74,28.63 C 47.57,28.28 47.34,27.99 47.04,27.74 C 46.74,27.5 46.4,27.3 46.03,27.14 A 6.85,6.85 0 0,0 44.87,26.76 L 43.87,26.51 A 6.3,6.3 0 0,1 43.22,26.31 A 2.97,2.97 0 0,1 42.63,26.03 A 1.38,1.38 0 0,1 42.21,25.61 C 42.11,25.45 42.06,25.26 42.06,25.03 C 42.07,24.03 43.13,23.63 43.99,23.63 Z" fill-rule="evenodd"/>
</svg>
