<!-- by Finnhub --><svg width="56" height="56" viewBox="0 0 56 56" xmlns="http://www.w3.org/2000/svg"><path fill="#028BF1" d="M0 0h56v56H0z"/><path d="M46 40H10L28 9l18 31Zm-1.5-.28-6.12-1.37.8 1.37h5.32Zm-5.64 0L38 38.26l-.86-.19.52 1.65h1.19Zm-1.49 0L36.83 38l-.92-.2v1.92h1.46Zm7.52-.2-8.74-5.01L38.2 38l6.7 1.51Zm-8.98-4.47v2.46l.82.18-.82-2.64Zm0-9.6v3.6l.44.48h1.93l.65-1.14-1.04-1.8-1.98-1.14Zm-.28-2.75-1.05-1.81h-1.32l-.97 1.66.2.61 3.14 1.8V22.7Zm0 2.75-2 1.15 2 2.15v-3.3Zm0 3.71-1.9-2.05.75 2.42h1.15v-.37Zm0 .65h-1.07l1.07 3.4v-3.4Zm0 4.84-1.44 2.47 1.44.32v-2.8Zm0 3.08-1.59-.36-.7 1.22.66 1.13h1.63v-2Zm-1.95 1.99-.5-.86-.5.86h1Zm-1.32 0 .66-1.13-.97-1.67-.63-.14-3.14 1.8 1.98 1.14h2.1Zm-2.66 0-1.56-.9v.9h1.56Zm-1.56-3.67v2.3l2.88-1.66-2.88-.64Zm0-.36 2.83-.63-.46-.8h-2.37v1.43Zm0-1.7h2.2l-2.2-3.8v3.8Zm0-4.84 2.29-3.94-2.3-3.95v7.89Zm0-8.92 2.04-3.51-2.04-6.53v10.04Zm.37-9.8 1.86 5.96.8-1.38-2.66-4.58Zm2.82 4.86-.85 1.46.27.84 1.18-1.27-.6-1.03Zm.74 1.28-1.23 1.33.28.9 1.68-.97-.73-1.26Zm.87 4.32h-1.16l.4 1.3.76-1.3Zm-.69 2.46-.31-.18-.58.99 1.73 1.86-.84-2.67Zm1.24 3 2-1.14-2.88-1.66.88 2.8Zm.7 3.18-.87-2.76-1.24.72 1.18 2.04h.92Zm1.2 4.21-2.3-3.93h-4.57l6.87 3.93Zm-.13-.77-.99-3.16h-.85l1.84 3.16Zm-3.32 3.2 2.96-1.7-3.5.78.54.91Zm-.82-.86-2.48.56 2.74.61.31-.18-.57-.99Zm-.28-1.05.42.73 3.25-.73h-3.67Zm-2.45-4.22 2.28 3.94h4.58l-6.86-3.94Zm2.2-4.56-2.2 3.8 3.3-1.9-1.1-1.9Zm-1.84-3.73 1.84 3.17.43-.73-2.27-2.44Zm3.09 5.87-3.31 1.9h4.41l-1.1-1.9Zm.1-.38 1.25-.71-1.97-2.12-.47.8 1.19 2.03Zm-3.2-5.92 2.43 2.62.53-.92-2.97-1.7Zm-.21-.44 3.3 1.9.16-.27-.5-1.63h-2.96Zm0-.28h2.87l-.44-1.4-2.43 1.4Zm2-2.78-.23-.75-1.55 2.66 1.78-1.91Zm-1.8 2.34 2.15-1.23-.26-.8-1.88 2.03ZM32.44 37l.75 1.3.58-1-1.33-.3Zm1.48.05 1.48-2.55-3.31 1.9.16.27 1.67.38Zm-.96-18.99-1.74 1 .48 1.54h1.41l.66-1.13-.81-1.4Zm.97 1.69-.5.85h1l-.5-.85Zm2 5.21.77-.45-.78-1.34v1.79Zm.91-.2-.78.44 1.56.9-.78-1.35Zm2.27 3.9-.5.86h1l-.5-.85Zm.66 1.14h-1.32l-.7 1.21 1.1 1.19 1.74-1-.82-1.4Zm.96 1.65-1.68.96.64.69 1.77-.4-.73-1.25Zm.88 1.5-1.7.39.6.64h1.69l-.6-1.02Zm-5.3 1.31 8.74 5.02-4.67-5.02H36.3Zm6.05 0h-1.6l4.26 4.58-2.66-4.58Zm-5.32-.28h3.09l-.54-.57-2.55.57Zm2.33-.8-.57-.62-2.14 1.23 2.71-.62Zm-3.2.56 2.43-1.4-1-1.07-1.43 2.47Zm1.38-2.94.58-1h-1.5l.92 1Zm-1.3-1h-.32v3.8l1.48-2.54-1.17-1.25ZM27.86 34v-3.8l-2.2 3.8h2.2Zm0 .27H25.5l-.46.8 2.83.63v-1.43Zm0 1.79-2.88.64 2.88 1.65v-2.3Zm0 2.78-1.56.89h1.56v-.9Zm-2.12.9 1.98-1.14-3.14-1.8-.63.13-.97 1.67.66 1.13h2.1Zm-2.42 0-.5-.86-.5.85h1Zm-1.32 0 .66-1.14-.7-1.22-1.59.36v2h1.63Zm-1.63-14.28v3.3l2-2.15-2-1.15ZM20.1 37.5v-2.47l-.83 2.65.83-.18Zm0 .28-.93.2-.54 1.73h1.47v-1.93Zm-1.76 1.93.52-1.65-.86.2-.85 1.45h1.2Zm-1.51 0 .8-1.37-6.12 1.37h5.32Zm-5.71-.2 6.7-1.5 2.03-3.51-8.73 5.01Zm7.07-1.59.76-.17.78-2.48-1.54 2.65Zm-7.21 1.35 8.74-5.01h-4.08l-4.66 5.01Zm.02-.43 4.26-4.59h-1.6L11 38.85Zm2.82-4.86h1.7l.6-.65-1.7-.38-.6 1.03Zm.74-1.28 1.77.4.64-.7-1.68-.96-.73 1.26Zm.87-1.5 1.74 1 1.1-1.19-.7-1.21h-1.32l-.82 1.4Zm.98-1.68h1l-.5-.86-.5.86Zm3.68 4.08v-3.8h-.31l-1.17 1.25 1.48 2.55Zm-1.62-2.8.93-1h-1.51l.58 1Zm1.38 2.94-1.44-2.48-1 1.08 2.44 1.4Zm-3.42-.33-.54.57h3.09l-2.55-.57Zm2.93.37-2.14-1.23-.57.62 2.7.61Zm-2.3-5.4.66 1.14h1.93l.44-.47v-3.6l-1.98 1.13-1.05 1.8Zm1.33-2.29 1.56-.89-.78-.44-.78 1.33Zm.92-1.58.78.45v-1.79l-.78 1.34Zm1.06.45 3.14-1.8.2-.62-.97-1.66h-1.32l-1.05 1.81v2.27Zm1.21-4.36h1l-.5-.85-.5.85Zm.66-1.13.66 1.13h1.4l.5-1.54-1.74-1-.82 1.4Zm.96-1.65 1.68.97.28-.9-1.23-1.33-.73 1.26Zm.87-1.51 1.18 1.27.26-.84-.84-1.45-.6 1.02Zm.76-1.3.8 1.37 1.86-5.95L24.83 15Zm3.03 14.13v-7.88l-2.29 3.94 2.29 3.94Zm-.24.14-2.21-3.8-1.1 1.9 3.3 1.9Zm-2.3 4.7 2.3-3.94-6.87 3.94h4.58Zm-.15.28h-3.68l3.25.73.43-.73Zm-.86 2.03.31.19 2.74-.62-2.48-.55-.57.98Zm-.25-.14.53-.91-3.5-.79 2.97 1.7Zm-3.7-1.51v2.8l1.44-.33-1.43-2.47Zm0-4.84v3.4l1.07-3.4h-1.06Zm1.91-2.7-1.9 2.05v.37h1.15l.75-2.42Zm-.46 2.41h.93l1.18-2.03-1.25-.72-.86 2.75Zm1.58-5.97L20.5 25.2l2 1.15.88-2.8Zm.36-.2-.84 2.67 1.73-1.86-.58-1-.31.19Zm.47-2.46h-1.16l.76 1.3.4-1.3Zm3.05.43-2.96 1.7.53.92 2.43-2.62Zm-1.86 3.6 1.84-3.16-2.27 2.44.43.73Zm-.16.29-.46-.8-1.97 2.12 1.24.71 1.19-2.03Zm2.23 4.32-3.31-1.9-1.1 1.9h4.4Zm-6.87 4.22 6.87-3.94H22.9l-2.29 3.94Zm1.97-3.94h-.85l-1 3.17 1.85-3.17Zm1.94-8.92L24 22.5l.16.28 3.3-1.9h-2.95Zm.52-1.68-.44 1.4h2.88l-2.44-1.4Zm2.2.52-1.53-2.65-.24.74 1.78 1.91Zm-1.86-1.6-.25.8 2.14 1.23-1.9-2.03Zm-3.14 19.18.58 1 .75-1.3-1.33.3Zm1.53-.63.15-.27-3.3-1.9 1.47 2.55 1.68-.38Zm4.09-26.49-2.04 6.52 2.04 3.51V10.2Zm9.19 27.57.77.17-1.55-2.66.78 2.49Z" fill="#fff"/></svg>