<?xml version="1.0" encoding="UTF-8"?>
<!-- generated by Finnhub -->
<svg viewBox="0 0 55.5 55.5" xmlns="http://www.w3.org/2000/svg">
<path d="M 0,0 H 55.5 V 55.5 H 0 Z" fill="rgb(1, 167, 225)"/>
<path d="M 38.1,30.884999999999998 A 3.8,3.8 0 0,0 36.11,29.71 A 9.96,9.96 0 0,0 33.64,29.48 C 31.99,29.5 27.79,29.5 21.03,29.48 C 20.65,29.48 20.3,29.31 19.98,28.95 A 1,1 0 0,1 19.76,27.95 C 19.94,27.32 20.42,27.01 21.2,27 H 33.5 C 35.18,27 36.36,27.1 37.03,27.32 A 6.8,6.8 0 0,1 40.23,29.46 A 7.5,7.5 0 0,1 41.85,32.97 C 42.08,34.24 42.05,35.29 41.74,36.59 A 6.96,6.96 0 0,1 39.84,40 A 6.7,6.7 0 0,1 36.22,41.86 C 35.77,41.95 34.46,41.99 32.27,41.99 L 23.83,42 C 21.6,42 20.08,41.9 19.29,41.7 A 9.09,9.09 0 0,1 14.05,38 A 6.96,6.96 0 0,1 13.15,35.75 C 13.05,35.3 12.99,34.52 13,33.39 L 13.01,21.62 C 13.01,19.9 13.55,18.42 14.63,17.22 A 9.28,9.28 0 0,1 21.88,14 H 40.04 C 40.73,14 41.21,14.1 41.49,14.3 C 41.79,14.53 41.96,14.8 41.99,15.12 C 42.01,15.55 41.87,15.9 41.55,16.15 A 1.7,1.7 0 0,1 40.45,16.51 L 21.81,16.54 A 6.3,6.3 0 0,0 17.83,18 A 4.6,4.6 0 0,0 16.11,20.65 C 16.04,20.96 16,21.97 16,23.67 V 32.37 C 16,34.08 16.04,35.11 16.12,35.45 C 16.34,36.39 16.86,37.2 17.67,37.91 A 6.4,6.4 0 0,0 20.31,39.27 C 20.83,39.4 21.68,39.47 22.87,39.48 C 26.03,39.5 29.35,39.49 33.23,39.48 C 34.94,39.47 36.1,39.34 36.71,39.09 C 38.61,38.31 39.43,36.65 39.15,33.62 A 4.73,4.73 0 0,0 38.11,30.9 Z" fill="rgb(254, 254, 253)"/>
</svg>
