<?xml version="1.0" encoding="UTF-8"?>
<!-- generated by Finnhub -->
<svg viewBox="0 0 55.5 55.5" xmlns="http://www.w3.org/2000/svg">
<path d="M 0,0 H 55.5 V 55.5 H 0 Z" fill="rgb(239, 242, 248)"/>
<path d="M 31.779999999999998,24.015 C 31.79,24.22 31.85,24.49 31.99,24.85 C 32.08,25.11 32.11,25.46 32.09,25.92 C 32.09,25.99 32.05,26.02 31.98,26.02 L 28.94,26.05 C 28.79,26.02 28.7,25.8 28.67,25.39 C 27.97,24.61 27.22,24.42 26.42,24.84 C 25.89,25.12 25.45,25.62 25.1,26.34 A 4.35,4.35 0 0,0 25.08,30.34 C 26,30.88 26.9,30.84 27.78,30.23 C 28.02,30.09 28.19,29.89 28.3,29.63 C 28.32,29.55 28.3,29.51 28.22,29.51 H 26.92 L 27.24,27.25 C 27.24,27.17 27.29,27.14 27.37,27.14 L 32.05,27.15 L 31.33,31.31 A 0.47,0.47 0 0,1 31.16,31.61 A 8.23,8.23 0 0,1 26.61,33.33 C 25.74,33.41 25,33.39 24.39,33.29 A 4.82,4.82 0 0,1 22.24,32.29 A 3.98,3.98 0 0,1 21.1,29.85 C 20.99,28.69 21.12,27.58 21.5,26.52 A 6.9,6.9 0 0,1 23.15,23.86 A 6.26,6.26 0 0,1 25.8,22.28 A 6.78,6.78 0 0,1 29.18,22.16 A 4,4 0 0,1 31.78,24.03 Z M 48.5,22.16 L 46.67,33.23 C 46.66,33.3 46.62,33.33 46.54,33.33 L 43.15,33.32 L 45.01,22.1 C 45.02,22.03 45.06,22 45.12,22 H 48.39 C 48.45,22 48.49,22.03 48.49,22.08 C 48.53,22.18 48.53,22.2 48.5,22.16 Z" fill="rgb(0, 0, 3)"/>
<path d="M 43.14,33.305 L 46.55,33.34 C 46.62,33.34 46.65,33.3 46.67,33.23 L 48.5,22.16 C 48.91,22.22 49.07,22.54 48.97,23.12 L 47.18,33.9 C 47.18,33.97 47.14,34 47.08,34 H 43.84 A 0.33,0.33 0 0,1 43.64,33.92 A 1.54,1.54 0 0,1 43.15,33.32 Z M 28.94,26.05 L 31.98,26.03 C 32.05,26.03 32.08,25.99 32.09,25.92 C 32.11,25.46 32.08,25.11 31.99,24.85 C 31.85,24.49 31.79,24.22 31.79,24.03 C 32.38,24.71 32.65,25.53 32.61,26.52 C 32.61,26.59 32.57,26.62 32.49,26.62 H 29.41 C 29.19,26.62 29.03,26.42 28.94,26.05 Z M 28.68,25.4 C 27.44,25.08 26.54,25.38 25.98,26.3 A 6.93,6.93 0 0,0 25.08,30.34 A 4.35,4.35 0 0,1 25.1,26.34 C 25.45,25.62 25.89,25.12 26.42,24.84 C 27.22,24.42 27.97,24.61 28.68,25.39 Z M 22.24,32.29 C 22.9,32.82 23.62,33.15 24.39,33.29 C 24.99,33.39 25.74,33.41 26.61,33.33 A 8.23,8.23 0 0,0 31.16,31.6 C 31.26,31.53 31.31,31.43 31.33,31.3 L 32.05,27.15 C 32.42,27.45 32.59,27.72 32.55,27.95 C 32.3,29.31 32.06,30.63 31.85,31.92 A 0.52,0.52 0 0,1 31.65,32.26 A 8.36,8.36 0 0,1 28.24,33.78 A 8.94,8.94 0 0,1 24.51,33.82 C 23.51,33.62 22.75,33.1 22.24,32.29 Z" fill="rgb(162, 162, 161)"/>
<path d="M 43.03,23.325 A 3.33,3.33 0 0,1 42.35,26.46 C 42.09,26.76 41.8,27.02 41.49,27.26 C 41.44,27.29 41.44,27.33 41.49,27.36 L 42.2,27.84 L 42.64,28.48 C 42.81,29.61 42.64,30.6 42.15,31.42 A 3.75,3.75 0 0,1 39.82,33.08 C 39.1,33.28 38.14,33.38 36.94,33.37 L 32.33,33.36 L 34.18,22.13 C 34.19,22.05 34.23,22.01 34.31,22.01 C 37.19,21.99 39.18,22 40.29,22.04 C 40.91,22.07 41.49,22.2 42.01,22.45 C 42.37,22.62 42.71,22.92 43.04,23.35 Z" fill="rgb(0, 0, 3)"/>
<path d="M 42.190000000000005,27.825 L 41.5,27.37 C 41.44,27.33 41.44,27.29 41.49,27.25 C 41.8,27.02 42.09,26.75 42.35,26.45 C 43.09,25.61 43.32,24.58 43.05,23.35 C 43.83,24.25 43.92,25.29 43.32,26.45 A 5.78,5.78 0 0,1 42.2,27.85 Z M 39.77,25.4 L 37.94,25.3 C 37.86,25.3 37.81,25.34 37.79,25.41 C 37.66,25.77 37.62,26.14 37.65,26.51 C 37.45,26.57 37.26,26.57 37.07,26.52 C 36.99,26.5 36.97,26.45 36.97,26.37 L 37.23,24.8 C 37.25,24.72 37.3,24.67 37.37,24.67 C 37.93,24.64 38.52,24.65 39.13,24.7 C 39.6,24.74 39.81,24.97 39.77,25.4 Z" fill="rgb(162, 162, 161)"/>
<path d="M 39.760000000000005,25.384999999999998 C 39.65,26.34 38.94,26.72 37.65,26.52 C 37.62,26.14 37.66,25.77 37.78,25.42 C 37.81,25.34 37.86,25.31 37.94,25.31 L 39.77,25.39 Z" fill="rgb(254, 254, 253)"/>
<path d="M 32.32,33.345 H 36.94 C 38.14,33.38 39.1,33.28 39.82,33.08 A 3.75,3.75 0 0,0 42.15,31.42 C 42.65,30.6 42.81,29.62 42.65,28.48 C 43.17,29.03 43.35,29.78 43.15,30.71 C 42.99,31.51 42.72,32.11 42.35,32.53 C 41.49,33.51 40.07,34 38.1,34 H 33.15 A 0.63,0.63 0 0,1 32.71,33.83 A 2.49,2.49 0 0,1 32.33,33.36 Z M 39.47,29.31 L 37.25,29.29 C 37.18,29.29 37.13,29.32 37.12,29.39 L 36.86,30.67 A 0.74,0.74 0 0,1 36.39,30.68 C 36.31,30.65 36.29,30.6 36.29,30.51 L 36.59,28.76 C 36.6,28.66 36.66,28.61 36.75,28.61 C 37.39,28.59 38.03,28.61 38.67,28.68 C 39.17,28.72 39.44,28.93 39.47,29.31 Z" fill="rgb(162, 162, 161)"/>
<path d="M 39.46,29.294999999999998 C 39.51,30.43 38.64,30.88 36.87,30.67 L 37.12,29.4 C 37.13,29.32 37.17,29.28 37.25,29.29 L 39.47,29.31 Z" fill="rgb(254, 254, 253)"/>
<path d="M 27.77,30.215 C 27.38,30.1 27.09,29.86 26.91,29.51 H 28.21 C 28.3,29.51 28.32,29.55 28.3,29.62 C 28.2,29.89 28.02,30.09 27.78,30.22 Z" fill="rgb(162, 162, 161)"/>
<path d="M 19.93,21.485 C 19.02,23.67 18.13,25.85 17.26,28.05 C 16.94,28.87 16.67,29.48 16.46,29.89 A 5.41,5.41 0 0,1 15.28,31.5 C 14.99,31.76 14.7,31.83 14.42,31.71 C 14.15,31.61 13.95,31.37 13.82,31.01 A 8.1,8.1 0 0,1 13.43,28.87 C 13.43,28.8 13.45,28.74 13.5,28.69 C 14.74,27.59 16.03,26.39 17.37,25.1 C 17.65,24.83 17.87,24.56 18.01,24.27 C 18.11,24.06 18.08,24.03 17.91,24.18 A 36.57,36.57 0 0,1 14.32,27.05 L 14.33,27.03 C 14.57,26.83 14.8,26.61 15.02,26.38 A 0.28,0.28 0 0,0 15.1,26.18 L 15.36,21.48 L 17.3,19.03 C 17.32,18.99 17.35,18.99 17.38,19.03 L 19.94,21.51 Z" fill="rgb(6, 97, 173)"/>
<path d="M 5.99,33.985 V 33.11 L 15.36,21.49 L 15.1,26.19 C 15.1,26.26 15.07,26.33 15.02,26.39 A 8.42,8.42 0 0,1 14.32,27.06 H 14.35 A 36.6,36.6 0 0,0 17.91,24.18 C 18.09,24.03 18.11,24.06 18.01,24.27 C 17.86,24.56 17.65,24.83 17.37,25.1 C 16.03,26.4 14.74,27.6 13.5,28.7 A 0.21,0.21 0 0,0 13.43,28.87 C 13.5,29.79 13.63,30.5 13.82,31.01 C 13.95,31.37 14.15,31.61 14.42,31.71 C 14.7,31.83 14.99,31.76 15.28,31.51 C 15.7,31.14 16.08,30.61 16.46,29.89 C 16.67,29.49 16.94,28.87 17.26,28.05 C 18.13,25.85 19.02,23.67 19.94,21.51 C 20.25,21.39 20.54,21.12 20.84,20.71 C 20.89,20.63 20.94,20.63 21,20.71 L 22.7,22.88 C 22.78,22.98 22.77,23.07 22.66,23.15 C 21.5,23.98 20.66,25.05 20.16,26.35 C 19.28,28.62 19.23,31.72 21.19,33.49 C 21.31,33.59 21.4,33.72 21.47,33.87 C 21.5,33.94 21.48,33.97 21.41,33.97 L 6,34 Z" fill="rgb(1, 106, 179)"/>
<path d="M 19.72,25.425 C 19.69,25.66 19.71,25.85 19.79,25.87 C 19.87,25.89 19.97,25.72 20.01,25.49 C 20.05,25.27 20.03,25.07 19.95,25.06 C 19.87,25.04 19.77,25.21 19.73,25.44 Z M 17.51,33.06 C 17.53,33.06 17.54,33.08 17.54,33.1 V 33.11 C 17.54,33.19 17.38,33.27 17.05,33.33 C 16.73,33.38 16.34,33.41 15.87,33.41 H 15.54 C 15.08,33.41 14.69,33.38 14.36,33.31 C 14.04,33.26 13.88,33.19 13.88,33.11 V 33.09 C 13.88,33.07 13.88,33.06 13.91,33.06 H 17.51 Z" fill="rgb(162, 162, 161)"/>
</svg>
