<?xml version="1.0" encoding="UTF-8"?>
<!-- generated by Finnhub -->
<svg viewBox="0 0 55.5 55.5" xmlns="http://www.w3.org/2000/svg">
<path d="M 0,0 H 55.5 V 55.5 H 0 Z" fill="rgb(239, 242, 248)"/>
<path d="M 27.99,10.985 L 28.54,12.22 C 28.87,12.97 29.91,13.07 30.38,12.39 L 31.14,11.29 L 31.44,12.59 C 31.64,13.39 32.64,13.67 33.22,13.09 L 34.17,12.15 L 34.23,13.48 C 34.27,14.3 35.2,14.77 35.89,14.3 L 36.99,13.55 L 36.8,14.86 C 36.69,15.68 37.52,16.31 38.28,15.97 L 39.5,15.44 L 39.08,16.7 C 38.81,17.48 39.52,18.25 40.32,18.06 L 41.62,17.76 L 40.97,18.92 C 40.57,19.64 41.12,20.52 41.95,20.48 L 43.28,20.42 L 42.43,21.45 C 41.9,22.08 42.28,23.05 43.1,23.16 L 44.42,23.35 L 43.39,24.2 C 42.75,24.73 42.95,25.75 43.73,26 L 45,26.43 L 43.83,27.08 C 43.11,27.48 43.11,28.52 43.83,28.92 L 45,29.57 L 43.73,29.99 A 1.05,1.05 0 0,0 43.39,31.8 L 44.42,32.65 L 43.1,32.84 A 1.05,1.05 0 0,0 42.43,34.55 L 43.28,35.58 L 41.95,35.52 A 1.05,1.05 0 0,0 40.97,37.08 L 41.62,38.24 L 40.32,37.94 C 39.52,37.75 38.82,38.52 39.08,39.3 L 39.5,40.56 L 38.28,40.03 C 37.52,39.69 36.68,40.32 36.8,41.13 L 36.99,42.45 L 35.89,41.7 C 35.2,41.23 34.27,41.7 34.23,42.52 L 34.17,43.85 L 33.22,42.91 A 1.06,1.06 0 0,0 31.44,43.41 L 31.14,44.71 L 30.38,43.61 A 1.06,1.06 0 0,0 28.54,43.78 L 28,45 L 27.46,43.78 A 1.06,1.06 0 0,0 25.62,43.61 L 24.86,44.71 L 24.56,43.41 A 1.06,1.06 0 0,0 22.78,42.91 L 21.83,43.85 L 21.77,42.52 A 1.06,1.06 0 0,0 20.11,41.7 L 19.01,42.45 L 19.2,41.14 A 1.06,1.06 0 0,0 17.72,40.03 L 16.5,40.56 L 16.92,39.3 A 1.06,1.06 0 0,0 15.68,37.94 L 14.38,38.24 L 15.03,37.08 C 15.43,36.36 14.88,35.48 14.05,35.52 L 12.72,35.58 L 13.57,34.55 C 14.1,33.92 13.72,32.95 12.9,32.84 L 11.58,32.65 L 12.61,31.8 C 13.25,31.27 13.05,30.25 12.27,30 L 11,29.56 L 12.17,28.91 C 12.89,28.51 12.89,27.47 12.17,27.07 L 11,26.43 L 12.27,26.01 C 13.05,25.75 13.25,24.73 12.61,24.2 L 11.58,23.35 L 12.9,23.16 C 13.72,23.05 14.1,22.08 13.57,21.45 L 12.72,20.42 L 14.05,20.48 C 14.88,20.52 15.43,19.64 15.03,18.92 L 14.38,17.76 L 15.68,18.06 C 16.48,18.25 17.18,17.48 16.92,16.7 L 16.5,15.44 L 17.72,15.97 C 18.48,16.31 19.32,15.68 19.2,14.87 L 19,13.54 L 20.1,14.29 C 20.79,14.76 21.72,14.29 21.76,13.47 L 21.82,12.14 L 22.77,13.08 C 23.35,13.66 24.36,13.38 24.55,12.58 L 24.85,11.28 L 25.61,12.38 C 26.08,13.06 27.11,12.96 27.45,12.21 L 28,11 Z M 40,28 A 12,12 0 1,1 16,28 A 12,12 0 0,1 40,28 Z M 42.25,28.16 A 14.2,14.2 0 0,1 28.02,42.3 A 14.2,14.2 0 0,1 13.8,28.15 A 14.2,14.2 0 0,1 28.02,14 A 14.2,14.2 0 0,1 42.25,28.16 Z M 41.93,28.16 C 41.93,35.8 35.7,41.99 28.03,41.99 C 20.34,41.99 14.11,35.79 14.11,28.15 S 20.34,14.32 28.02,14.32 S 41.93,20.52 41.93,28.15 Z" fill="rgb(47, 65, 10)" fill-rule="evenodd"/>
<path d="M 27.889999999999997,38.985 C 34.04,39 39,34.08 39,28 S 34.03,17 27.9,17 C 21.78,17 16.8,21.92 16.8,28 S 21.78,39 27.9,39 Z M 27.9,38.44 C 33.72,38.44 38.44,33.76 38.44,28 S 33.72,17.56 27.9,17.56 A 10.48,10.48 0 0,0 17.37,28 C 17.37,33.76 22.09,38.44 27.91,38.44 Z" fill="rgb(47, 65, 10)" fill-rule="evenodd"/>
<path d="M 32.99,24.445 V 21.77 A 8.95,8.95 0 0,0 29.22,21 C 26.92,21 21.02,22.49 21,28 H 23 C 23.02,23.78 27.11,22.54 29.07,22.54 S 32.34,23.01 32.59,24.46 H 32.99 Z M 23.05,29 H 21 C 21.48,33.91 26.53,35 28.57,35 C 30.27,35 32.15,34.52 33,34.29 V 30.78 C 33,30.08 33.84,29.5 34.54,29.5 H 35 V 29 H 29.22 V 29.5 H 30.17 C 30.87,29.5 31,30.07 31,30.78 V 33 C 30.62,33.16 29.99,33.48 28.72,33.48 C 27.24,33.48 23.5,32.62 23.05,28.99 Z" fill="rgb(47, 65, 10)"/>
</svg>
