<!-- by Finnhub --><svg width="56" height="56" viewBox="0 0 56 56" fill="none" xmlns="http://www.w3.org/2000/svg">
<rect width="56" height="56" fill="#F0F3FA"/>
<path d="M40.5965 22.0376L40.1423 23.1194C40.0308 23.1922 39.9712 23.2655 39.9636 23.3394C39.3416 24.0617 38.7529 24.6632 38.1976 25.144C35.6807 27.0198 33.8082 28.4026 31.0683 29.1188C31.0082 29.1342 30.9961 29.1679 31.0322 29.2197C31.2486 29.5307 31.5225 29.6183 31.8537 29.4827C31.904 29.4618 31.9564 29.4535 32.0111 29.4579C32.5833 29.5075 33.3868 30.0484 32.9408 30.6786C32.9264 30.6987 32.9205 30.7236 32.9241 30.748C32.9278 30.7725 32.9409 30.7945 32.9605 30.8093C34.3378 31.8762 35.6102 32.7611 37.4499 32.3046C38.2796 32.0995 39.1186 31.9214 39.9669 31.7703C40.6829 31.6733 41.4038 31.7014 42.1296 31.8547L42.4231 31.9374C42.3816 32.0851 42.3728 32.2318 42.3969 32.3774C42.2231 32.3443 42.1411 32.3129 42.1509 32.2831C41.0687 32.1331 40.1505 32.153 39.3963 32.3426C37.6729 32.776 36.1349 33.393 34.4575 32.4187C33.9918 32.1491 33.2195 31.6512 32.6555 31.2063C32.6118 31.171 32.5626 31.1605 32.5079 31.1748C32.3133 31.2289 32.1275 31.3419 31.9504 31.5139L31.2372 31.6C31.2102 31.6033 31.1855 31.6165 31.1679 31.637C31.1503 31.6575 31.1411 31.6839 31.1421 31.7108C31.1727 32.7132 31.0142 33.6819 30.6666 34.617C30.6473 34.6688 30.6439 34.7247 30.6567 34.7775C30.9273 35.9039 31.2536 36.6268 31.2896 38.0013C31.2929 38.1171 31.3159 38.1215 31.3585 38.0145C31.9335 36.5799 32.0182 35.1177 31.6127 33.6279C31.6087 33.6139 31.6094 33.599 31.6147 33.5855C31.6199 33.572 31.6294 33.5606 31.6417 33.5531C31.654 33.5456 31.6684 33.5424 31.6827 33.5439C31.697 33.5455 31.7104 33.5517 31.7209 33.5617C32.3188 34.1087 32.8031 34.7455 33.1736 35.4722C33.1789 35.4818 33.1869 35.4897 33.1966 35.4947C33.2063 35.4996 33.2173 35.5015 33.2281 35.5001C33.2389 35.4987 33.2491 35.494 33.2572 35.4866C33.2653 35.4793 33.2711 35.4696 33.2737 35.459L33.3327 35.1745C33.3458 35.116 33.372 35.1088 33.4114 35.153C34.0902 35.8929 34.7166 36.6753 35.2905 37.5001C35.3473 37.5828 35.3834 37.574 35.3987 37.4736L35.4364 37.2222C35.4386 37.2083 35.4445 37.1953 35.4535 37.1845C35.4625 37.1737 35.4742 37.1657 35.4873 37.1612C35.5003 37.1567 35.5143 37.1561 35.5276 37.1592C35.541 37.1624 35.5531 37.1693 35.5627 37.1792C36.1743 37.7929 37.0695 38.2494 37.7926 38.7539C37.8735 38.8102 37.8976 38.7914 37.8648 38.6977L37.7516 38.3718C37.7265 38.3001 37.7456 38.2847 37.809 38.3255C38.3009 38.6431 38.865 38.8791 39.5012 39.0335C37.181 41.7644 34.1476 43.6037 30.601 44.0553C30.0763 43.5006 29.7062 42.8958 29.4909 42.2408C29.4852 42.2164 29.4702 42.1953 29.4492 42.1821C29.4281 42.169 29.4027 42.1648 29.3786 42.1705C29.3544 42.1762 29.3335 42.1913 29.3205 42.2126C29.3074 42.2338 29.3032 42.2594 29.3089 42.2838C29.334 42.4525 29.2881 42.5892 29.1712 42.694C29.1089 42.7502 29.0662 42.7381 29.0433 42.6576L28.694 41.4832C28.6856 41.4552 28.6683 41.4309 28.6448 41.4141C28.6213 41.3973 28.593 41.389 28.5645 41.3906C28.4508 41.395 28.3661 41.4457 28.3103 41.5427C28.3025 41.5565 28.2906 41.5676 28.2763 41.5744C28.262 41.5812 28.246 41.5833 28.2304 41.5806C28.2148 41.5779 28.2005 41.5705 28.1892 41.5592C28.178 41.548 28.1705 41.5336 28.1677 41.5179L27.9365 40.2773C27.9313 40.2517 27.9212 40.2275 27.9069 40.2062C27.8925 40.1848 27.8741 40.1669 27.8528 40.1533L27.6135 40.0011C27.5977 39.9909 27.5854 39.9761 27.5783 39.9589C27.5713 39.9417 27.5698 39.9229 27.5741 39.9052C27.6288 39.6615 27.6413 39.415 27.6118 39.1658C27.6103 39.1535 27.6062 39.1417 27.5999 39.1311C27.5936 39.1204 27.5851 39.1112 27.5751 39.1041C27.5651 39.0969 27.5537 39.092 27.5417 39.0895C27.5296 39.087 27.5172 39.0871 27.5052 39.0897C27.1554 39.1636 26.8658 39.1096 26.6362 38.9276C26.3148 38.6745 25.7836 37.3992 25.7229 36.951C25.5906 36.0026 25.3354 35.0846 24.9572 34.1969C24.768 33.4316 24.6576 32.6553 24.6259 31.8679C24.6252 31.8535 24.621 31.8394 24.6136 31.827C24.6062 31.8146 24.5959 31.8043 24.5836 31.797C24.5714 31.7898 24.5575 31.7858 24.5434 31.7855C24.5293 31.7851 24.5154 31.7885 24.503 31.7951C23.8094 32.1475 23.0289 31.5553 22.5927 31.0392C22.3675 30.7735 22.3479 30.5386 22.5337 30.3346C23.2267 29.5737 23.8935 29.5897 24.5341 30.3825C24.5425 30.3937 24.5542 30.4019 24.5674 30.406C24.5807 30.41 24.5949 30.4098 24.6082 30.4053C24.6215 30.4007 24.6331 30.3921 24.6416 30.3807C24.65 30.3692 24.6549 30.3554 24.6555 30.3412C24.674 29.8858 24.7959 29.4606 25.0211 29.0659C25.0267 29.0558 25.0297 29.0444 25.0297 29.0328C25.0297 29.0212 25.0268 29.0098 25.0212 28.9997C25.0156 28.9896 25.0075 28.9811 24.9978 28.975C24.988 28.9689 24.9768 28.9655 24.9654 28.965C22.4648 28.8806 20.0135 27.1058 18.3099 25.9611C17.431 25.3833 16.6008 24.6643 15.8192 23.8042C15.8072 23.7171 15.7481 23.6333 15.6421 23.5528L14.9551 22.5487C14.8556 22.2819 14.7463 22.0034 14.6271 21.7134C13.827 19.7759 13.7231 17.8334 14.3156 15.886C14.6468 14.8009 15.2125 13.6282 15.5109 12.3942C16.0247 10.267 17.2452 8.64217 19.1723 7.51959C19.2915 7.45122 19.3062 7.46942 19.2166 7.57418C17.9803 9.03805 16.9358 9.88826 16.2865 11.8599C16.2679 11.9173 16.2799 11.9245 16.3226 11.8814C17.0003 11.1978 17.8256 10.8123 18.7985 10.7252C18.8204 10.7239 18.8422 10.7302 18.86 10.7433C18.8778 10.7563 18.8906 10.7751 18.8962 10.7965C18.9018 10.818 18.8999 10.8407 18.8908 10.8609C18.8816 10.8811 18.8658 10.8974 18.846 10.9072C17.7802 11.3985 16.7538 11.6681 16.2619 12.8805C15.899 13.7759 15.5962 14.6923 15.3535 15.6296C15.3316 15.7167 15.3519 15.7283 15.4142 15.6644C15.6798 15.3948 15.8946 15.1665 16.0061 14.7728C16.2816 13.8024 16.821 13.0283 17.6245 12.4505C17.6321 12.4458 17.6411 12.4439 17.6499 12.4448C17.6588 12.4458 17.6671 12.4497 17.6736 12.4559C17.6801 12.462 17.6844 12.4702 17.6859 12.4791C17.6874 12.4879 17.686 12.4971 17.6819 12.505L16.5587 14.356C16.5492 14.3725 16.5458 14.3918 16.5491 14.4106C16.5524 14.4294 16.5621 14.4464 16.5766 14.4587C16.5911 14.471 16.6094 14.4777 16.6283 14.4776C16.6473 14.4776 16.6656 14.4708 16.68 14.4585C17.8114 13.4528 19.0428 12.4687 19.7134 11.0809C19.7209 11.0656 19.7336 11.0535 19.7491 11.0468C19.7647 11.0402 19.7821 11.0394 19.7982 11.0446C19.8143 11.0498 19.828 11.0607 19.8369 11.0752C19.8457 11.0898 19.849 11.107 19.8463 11.1239C19.5068 13.1402 17.5245 14.2518 16.3193 15.8182C15.2896 17.1547 14.8124 17.8908 15.2633 19.7136C15.3224 19.9534 15.7372 21.5331 15.9372 21.5496C15.8192 21.6952 16.3488 22.3072 16.4685 22.4396C16.51 22.5223 16.5762 22.5983 16.6669 22.6678L17.2277 23.3443C17.2375 23.356 17.2503 23.3647 17.2647 23.3697C17.279 23.3747 17.2944 23.3757 17.3093 23.3727C17.3242 23.3696 17.338 23.3626 17.3493 23.3524C17.3606 23.3422 17.369 23.3292 17.3736 23.3146L17.9623 21.3991C18.147 21.1301 18.2077 20.92 18.1443 20.7689C18.3629 20.577 18.5028 20.2291 18.564 19.7252C18.8854 18.7437 19.2439 17.7359 19.6397 16.7015C19.8249 16.2168 19.7839 15.7934 19.5724 15.3567C19.564 15.3389 19.5618 15.3187 19.566 15.2993C19.5703 15.28 19.5808 15.2626 19.5958 15.2502C19.6108 15.2377 19.6295 15.2308 19.6488 15.2306C19.6681 15.2304 19.6868 15.237 19.702 15.2492C20.3447 15.757 20.2152 16.6386 20.0086 17.3317C19.9474 17.5335 20.0058 17.5793 20.184 17.469C20.5694 17.2308 21.2285 16.8007 21.0777 16.2102C20.8929 15.4901 20.777 14.6802 20.73 13.7804C20.7301 13.7633 20.7364 13.7468 20.7477 13.7341C20.7591 13.7214 20.7746 13.7133 20.7915 13.7115C20.8083 13.7096 20.8253 13.7141 20.839 13.7241C20.8528 13.734 20.8625 13.7488 20.8661 13.7655C20.9301 14.1691 21.2269 15.0011 21.6089 15.2558C21.6491 15.2826 21.6947 15.3003 21.7423 15.3075C21.7899 15.3148 21.8385 15.3114 21.8847 15.2977C21.9308 15.284 21.9733 15.2602 22.0092 15.2281C22.0452 15.196 22.0736 15.1563 22.0926 15.1119C22.3244 14.5672 22.4468 13.9965 22.4599 13.3999C22.4588 13.3771 22.4668 13.3548 22.482 13.3379C22.4972 13.321 22.5185 13.3109 22.5411 13.3098C22.5637 13.3087 22.5858 13.3167 22.6026 13.332C22.6193 13.3474 22.6294 13.3688 22.6304 13.3916C22.7321 14.3003 22.5649 15.1538 22.1287 15.9522C22.1099 15.9863 22.099 16.0243 22.0969 16.0633C22.0947 16.1023 22.1012 16.1413 22.116 16.1774C22.1308 16.2135 22.1535 16.2457 22.1824 16.2718C22.2113 16.2978 22.2456 16.3169 22.2828 16.3277C22.5856 16.417 22.8589 16.3618 23.1027 16.1623C23.142 16.1303 23.1601 16.0889 23.1568 16.0382L23.0978 15.2542C23.0966 15.2423 23.0982 15.2304 23.1024 15.2192C23.1066 15.2081 23.1133 15.198 23.1219 15.1897C23.1306 15.1815 23.141 15.1752 23.1524 15.1715C23.1639 15.1678 23.176 15.1666 23.1879 15.1681L23.2519 15.1781C23.2934 15.1836 23.3191 15.2073 23.329 15.2492C23.3945 15.5326 23.5312 15.7713 23.7389 15.9654C23.758 15.9832 23.7818 15.995 23.8074 15.9994C23.833 16.0038 23.8593 16.0006 23.8832 15.9902C24.4472 15.7388 24.7489 14.8373 24.9358 14.2915C24.9389 14.2802 24.9459 14.2704 24.9555 14.2639C24.9652 14.2575 24.9769 14.2548 24.9884 14.2564C24.9999 14.2581 25.0104 14.2639 25.0179 14.2727C25.0254 14.2816 25.0295 14.293 25.0293 14.3047L25.0621 14.8687C25.0652 14.9245 25.0827 14.9785 25.1127 15.0255C25.1427 15.0724 25.1843 15.1107 25.2334 15.1365C25.2825 15.1623 25.3374 15.1749 25.3927 15.1729C25.4481 15.1709 25.5019 15.1544 25.5491 15.1251L25.9344 14.8869C25.9446 14.88 25.9568 14.877 25.969 14.8782C25.9812 14.8795 25.9926 14.885 26.0012 14.8939C26.0098 14.9027 26.015 14.9143 26.016 14.9266C26.017 14.939 26.0136 14.9513 26.0066 14.9614C25.6699 15.4797 25.2496 15.9114 24.7456 16.2565C24.5866 16.3674 24.5308 16.4534 24.5472 16.6419C24.5516 16.6971 24.5314 16.7401 24.4866 16.771C23.5968 17.3984 22.6485 17.8037 21.6417 17.9867C20.9694 18.1091 20.4524 18.4405 20.0906 18.9808C19.8632 19.1716 19.7211 19.4043 19.6642 19.6789L19.479 20.0428C19.2756 21.1698 19.0658 22.0823 18.8493 22.7803C18.7247 23.1817 18.7881 23.6007 19.0395 24.0374C20.0266 24.9979 21.1547 25.9137 22.4238 26.7849C23.5618 27.5656 25.536 27.4234 26.7411 27.0826C26.8144 27.0617 26.8373 27.0153 26.81 26.9437C26.587 26.3438 26.2591 25.8101 25.8262 25.3425C25.8072 25.3215 25.7946 25.2954 25.79 25.2673C25.7854 25.2393 25.7889 25.2104 25.8002 25.1844C25.8115 25.1583 25.83 25.1361 25.8535 25.1204C25.8771 25.1047 25.9046 25.0963 25.9328 25.096H26.0312C26.0876 25.0961 26.1422 25.114 26.1869 25.1473L27.3462 26.0157C27.3716 26.0345 27.402 26.0452 27.4335 26.0467C27.465 26.0482 27.4962 26.0402 27.5231 26.0239C27.5499 26.0076 27.5713 25.9837 27.5845 25.9551C27.5977 25.9265 27.6021 25.8947 27.5971 25.8635L27.4987 25.2482C27.4954 25.2275 27.4973 25.2064 27.5043 25.1866C27.5112 25.1669 27.5231 25.1493 27.5386 25.1354C27.5542 25.1216 27.5729 25.1119 27.5932 25.1073C27.6134 25.1027 27.6345 25.1034 27.6544 25.1093C28.1939 25.2631 28.5628 25.9793 28.6874 26.4689C28.9826 27.6351 30.3222 27.468 31.2011 27.3109C32.1029 27.1499 32.9769 26.7606 33.823 26.1431C35.021 25.2686 35.96 24.43 36.6399 23.6272C36.7301 22.3122 36.3727 21.0501 36.1562 19.7616C36.1639 19.6645 36.1212 19.5702 36.0283 19.4787C36.1683 19.4401 36.1371 19.2758 35.9349 18.9858C35.7119 17.9222 35.074 17.1051 33.9951 16.8901C33.5737 16.8057 30.9469 16.4236 31.065 15.8132C31.077 15.7537 31.0584 15.7068 31.0092 15.6726C30.5162 15.3165 30.0883 14.8963 29.7254 14.4122C29.5494 14.1762 29.5882 14.1316 29.8418 14.2782C30.6108 14.7232 30.6567 14.1492 30.6174 13.6447C30.6145 13.6269 30.6188 13.6088 30.6293 13.5942C30.6397 13.5796 30.6555 13.5698 30.6731 13.567C30.6907 13.5641 30.7087 13.5684 30.7232 13.579C30.7376 13.5895 30.7473 13.6054 30.7502 13.6232C30.9027 14.2154 31.6487 16.4186 32.3538 14.5561C32.3634 14.5325 32.381 14.5131 32.4035 14.5014C32.426 14.4897 32.4518 14.4864 32.4765 14.4922C32.5012 14.4979 32.523 14.5124 32.538 14.5329C32.5531 14.5534 32.5604 14.5786 32.5588 14.6041L32.4833 15.3832C32.4804 15.41 32.4842 15.4371 32.4946 15.462C32.5049 15.4869 32.5213 15.5087 32.5424 15.5254C32.7785 15.7085 33.049 15.7598 33.354 15.6793C33.3894 15.6697 33.4222 15.6522 33.4501 15.6283C33.4781 15.6043 33.5003 15.5744 33.5154 15.5407C33.5305 15.507 33.5379 15.4703 33.5372 15.4334C33.5365 15.3964 33.5277 15.36 33.5114 15.3269C33.1605 14.6091 32.8145 13.5008 33.1244 12.7101C33.1281 12.7015 33.1346 12.6943 33.1428 12.6899C33.151 12.6854 33.1605 12.6839 33.1697 12.6857C33.1789 12.6874 33.1872 12.6923 33.1933 12.6994C33.1994 12.7066 33.2029 12.7156 33.2031 12.725C33.213 13.3779 33.3502 14.0003 33.6147 14.5925C33.6255 14.6168 33.643 14.6375 33.6653 14.6524C33.6876 14.6674 33.7138 14.6758 33.741 14.6769C34.3559 14.6918 34.7248 13.5786 34.8117 13.1055C34.8303 13.0051 34.8499 13.0051 34.8707 13.1055C35.033 13.9028 34.7297 14.8489 34.5362 15.6263C34.3952 16.202 35.1659 16.7064 35.5741 16.9562C35.6343 16.9937 35.6561 16.9777 35.6397 16.9083C35.4807 16.2698 35.2429 15.0656 35.9808 14.6885C35.9961 14.6811 36.0134 14.679 36.03 14.6826C36.0466 14.6861 36.0615 14.6951 36.0725 14.7081C36.0836 14.7211 36.09 14.7374 36.0909 14.7545C36.0918 14.7716 36.0871 14.7885 36.0775 14.8026C35.8234 15.1566 35.7988 15.5668 35.9611 15.9985C36.3994 17.1575 36.752 18.3186 37.0187 19.482C37.0438 19.8812 37.1827 20.19 37.4352 20.4083C37.4713 20.6366 37.5647 20.8533 37.7156 21.0584C37.9943 21.806 38.1271 22.5377 38.114 23.2534C38.1129 23.3228 38.1386 23.3344 38.1911 23.2881C38.531 22.9838 38.8136 22.6584 39.0388 22.3122C39.1623 22.235 39.2323 22.1517 39.2487 22.0624C39.452 21.7658 39.5881 21.4703 39.657 21.1758C40.0505 19.9468 39.9849 18.8684 40.0325 17.6592C40.1013 15.8596 35.9578 12.3462 34.7412 11.281C34.716 11.259 34.7122 11.2336 34.7297 11.2049C34.9084 10.9221 38.4469 14.0549 38.7797 14.3808C38.7989 14.4 38.8243 14.4116 38.8512 14.4134C38.8782 14.4152 38.9049 14.407 38.9263 14.3905C38.9478 14.3739 38.9625 14.35 38.9678 14.3233C38.9731 14.2965 38.9686 14.2688 38.9552 14.2452L37.891 12.3545C37.8875 12.3473 37.8864 12.339 37.8879 12.331C37.8894 12.3229 37.8934 12.3157 37.8993 12.3103C37.9052 12.305 37.9125 12.3019 37.9203 12.3015C37.928 12.3011 37.9356 12.3035 37.9418 12.3082C38.73 12.9059 39.2301 13.6706 39.4422 14.6024C39.5537 15.0904 39.7439 15.3021 40.0505 15.6379C40.1314 15.725 40.1576 15.7107 40.1292 15.5949C39.9078 14.6736 39.6111 13.39 39.3208 12.7333C38.7846 11.5242 37.5385 11.018 36.4563 10.3431C36.4492 10.3375 36.4443 10.3295 36.4424 10.3206C36.4404 10.3118 36.4416 10.3025 36.4456 10.2943C36.4496 10.2862 36.4563 10.2797 36.4645 10.2759C36.4728 10.2722 36.482 10.2714 36.4907 10.2737C37.4363 10.6486 38.3294 11.12 39.17 11.6879C39.429 11.8633 39.4886 11.8098 39.3487 11.5275C38.5485 9.91803 37.3368 8.49386 36.2464 7.06471C36.2397 7.0568 36.2365 7.04672 36.2372 7.03656C36.238 7.0264 36.2428 7.01694 36.2506 7.01014C36.2584 7.00334 36.2686 6.99971 36.2791 7.00002C36.2896 7.00032 36.2996 7.00454 36.3071 7.01178C37.6057 8.3097 38.7529 9.66716 39.7488 11.0842C40.1931 11.716 40.039 12.5315 40.2932 13.2477C40.9015 14.963 41.4918 16.5493 41.3606 18.3159C41.3158 18.9246 41.0611 20.1652 40.5965 22.0376ZM40.5735 16.4616L40.385 16.2913C40.3742 16.2825 40.3609 16.2776 40.3471 16.2774C40.3332 16.2771 40.3197 16.2815 40.3086 16.2898C40.2976 16.2982 40.2896 16.31 40.2859 16.3234C40.2822 16.3369 40.283 16.3512 40.2882 16.3641C41.2442 18.4251 40.2358 21.1841 39.3815 23.1045C39.3776 23.1144 39.3774 23.1254 39.3809 23.1354C39.3843 23.1455 39.3912 23.154 39.4003 23.1593C39.4094 23.1647 39.4201 23.1667 39.4305 23.1648C39.4408 23.1629 39.4502 23.1574 39.4569 23.1492C39.9958 22.4103 40.3702 21.6478 40.5801 20.8615C41.1278 18.8105 41.4934 16.991 40.5981 14.9564C40.5555 14.8605 40.5342 14.8649 40.5342 14.9696C40.5342 15.4378 40.8244 15.934 40.7178 16.4137C40.6971 16.514 40.649 16.53 40.5735 16.4616ZM16.1455 23.2765C16.2832 23.4243 16.4275 23.4111 16.5784 23.2368C16.6396 23.1663 16.6439 23.0918 16.5915 23.0135C15.0502 20.6978 13.9532 18.2233 15.9864 15.7371C15.9903 15.7329 15.9925 15.7275 15.9928 15.7217C15.9931 15.716 15.9914 15.7103 15.9881 15.7057C15.9771 15.6914 15.9668 15.6815 15.9569 15.6759C15.9514 15.6726 15.946 15.6732 15.9405 15.6776C13.6777 17.6873 14.2779 21.2751 16.1455 23.2765ZM27.6626 32.5031C27.6699 32.4893 27.6818 32.4785 27.6961 32.4724C27.7104 32.4664 27.7263 32.4656 27.7412 32.4701C27.756 32.4745 27.7689 32.4841 27.7776 32.497C27.7863 32.51 27.7903 32.5256 27.7889 32.5411L27.5118 34.8089C27.5098 34.8262 27.5133 34.8439 27.5218 34.8591C27.5304 34.8744 27.5435 34.8864 27.5592 34.8935C27.5749 34.9006 27.5924 34.9023 27.6089 34.8984C27.6255 34.8945 27.6403 34.8851 27.6512 34.8718C27.6993 34.8144 27.7315 34.74 27.7479 34.6485C27.9234 33.6725 28.5022 29.5158 29.1908 29.1602C30.4911 28.4869 31.7848 28.3761 33.2425 27.6963C34.4673 27.124 35.502 26.2324 36.5219 25.3508C37.7549 24.2822 38.2665 22.5653 37.4073 21.0898C36.9302 20.271 36.8039 19.611 36.576 18.87C36.5723 18.8582 36.5651 18.8478 36.5554 18.8402C36.5457 18.8326 36.5339 18.8281 36.5217 18.8274C36.5094 18.8267 36.4972 18.8298 36.4867 18.8362C36.4762 18.8426 36.4679 18.8521 36.4629 18.8634C36.2776 19.315 36.7941 20.764 37.022 21.4918C37.8353 24.0804 35.5856 25.2399 33.8459 26.4259C32.726 27.1901 29.3876 28.74 28.6038 26.7617C28.4256 26.3107 28.1841 25.8707 27.8791 25.4417C27.8685 25.4264 27.8527 25.4158 27.8348 25.4119C27.8169 25.4079 27.7982 25.411 27.7822 25.4205C27.7663 25.43 27.7542 25.4452 27.7485 25.4632C27.7428 25.4812 27.7437 25.5007 27.7512 25.5178C27.9545 25.9562 28.1398 26.6955 27.907 27.1637C27.8753 27.2276 27.8419 27.2282 27.8069 27.1653C27.5216 26.6437 27.1549 26.1905 26.7067 25.8056C26.698 25.7989 26.6871 25.7955 26.676 25.796C26.6649 25.7964 26.6544 25.8008 26.6464 25.8083C26.6383 25.8158 26.6334 25.8258 26.6324 25.8366C26.6315 25.8474 26.6346 25.8581 26.6411 25.8668C27.1511 26.5467 28.0086 27.8716 27.52 28.7235C27.4938 28.7698 27.4899 28.8178 27.5085 28.8674L27.8053 29.6729C27.82 29.7135 27.8254 29.7568 27.8213 29.7998C27.8172 29.8427 27.8037 29.8841 27.7816 29.921C27.7596 29.9578 27.7296 29.9892 27.694 30.0127C27.6583 30.0361 27.6179 30.0512 27.5757 30.0567C27.4686 30.0699 27.379 30.1129 27.3068 30.1857C27.2576 30.2364 27.2478 30.2938 27.2773 30.3577C27.3768 30.5683 27.5424 30.6869 27.7741 30.7134C27.7865 30.7147 27.7983 30.7188 27.8089 30.7254C27.8195 30.732 27.8285 30.7408 27.8354 30.7514C27.8422 30.7619 27.8468 30.7739 27.8487 30.7865C27.8505 30.7991 27.8497 30.8119 27.8463 30.8242C27.7561 31.1285 27.3052 32.6056 27.4331 32.8124C27.4626 32.8587 27.4894 32.8576 27.5134 32.8091L27.6626 32.5031ZM19.2527 25.3855C20.3174 26.3967 21.3996 27.2083 22.4993 27.8203C23.47 28.3612 26.1705 29.0394 26.628 27.5325C26.6311 27.5217 26.6315 27.5102 26.6291 27.4992C26.6267 27.4881 26.6216 27.4779 26.6143 27.4693C26.6069 27.4608 26.5976 27.4542 26.5871 27.4502C26.5766 27.4462 26.5653 27.445 26.5542 27.4465C25.313 27.6483 24.0881 27.9626 22.9108 27.3291C21.5712 26.6095 19.3855 25.3475 18.6772 23.958C18.1541 22.9325 19.1658 21.763 18.9231 20.5191C18.9202 20.5058 18.9131 20.4937 18.903 20.4845C18.8929 20.4753 18.8803 20.4696 18.8669 20.4681C18.8536 20.4666 18.8402 20.4695 18.8288 20.4763C18.8174 20.4831 18.8085 20.4935 18.8034 20.5059C18.4574 21.328 17.8819 22.4759 17.8901 23.255C17.9016 24.2161 18.4542 24.6279 19.2527 25.3855ZM29.7532 32.6288V32.7727C29.7532 32.8433 29.7877 32.8703 29.8565 32.8538L30.4698 32.7098C30.5244 32.6966 30.5452 32.663 30.5321 32.609C30.4665 32.3493 30.6174 32.1392 30.637 31.9424C30.719 31.1164 30.6168 30.3191 30.3304 29.5505C30.3256 29.5378 30.3184 29.5261 30.3092 29.5162C30.3 29.5063 30.289 29.4983 30.2768 29.4928C30.2645 29.4873 30.2514 29.4842 30.2381 29.4839C30.2248 29.4836 30.2116 29.486 30.1992 29.491C29.2449 29.8648 28.8957 30.4867 28.6629 31.5272C28.3513 32.9089 28.0556 34.2956 27.7758 35.6872C27.6643 36.2447 27.2478 36.4994 26.7739 36.7078C26.7226 36.731 26.7089 36.7685 26.7329 36.8203C26.8652 37.1004 27.0674 37.2443 27.3396 37.252C27.9463 37.2674 28.43 37.3259 28.7907 37.4273C28.8454 37.4428 28.8891 37.4273 28.9219 37.381C29.1023 37.1241 29.3362 37.0662 29.6237 37.2073C29.6904 37.2393 29.7358 37.22 29.7598 37.1494C30.0992 36.1603 30.1123 34.5972 30.155 33.79C30.1572 33.7426 30.1796 33.7084 30.2222 33.6874C30.443 33.5816 30.5802 33.4084 30.6338 33.168C30.6578 33.0633 30.6256 33.0407 30.537 33.1002C30.2309 33.3053 29.8943 33.431 29.527 33.4774C29.4625 33.4851 29.4297 33.4564 29.4286 33.3913C29.4242 33.1002 29.5029 32.8367 29.6647 32.6007C29.7237 32.5136 29.7532 32.5229 29.7532 32.6288ZM26.2 30.1113C25.7458 31.3403 26.4722 31.8216 27.0543 32.771C27.1166 32.8725 27.1434 32.8642 27.1347 32.7462C27.0658 31.8034 26.8024 30.9212 26.3443 30.0997C26.2886 29.9993 26.2405 30.0032 26.2 30.1113ZM27.1839 33.3682L26.9231 33.3169C26.9147 33.3155 26.906 33.3174 26.8989 33.3224C26.8919 33.3273 26.887 33.3349 26.8854 33.3434L26.8494 33.5286C26.7949 33.8137 26.7448 34.0968 26.7019 34.3614C26.659 34.6261 26.6241 34.8672 26.5993 35.0709C26.5744 35.2745 26.5601 35.4368 26.5572 35.5482C26.5542 35.6597 26.5627 35.7182 26.5821 35.7203L26.6165 35.7269C26.6552 35.7327 26.7356 35.5112 26.8401 35.1109C26.9446 34.7106 27.0647 34.1642 27.174 33.5915L27.2101 33.4062C27.2115 33.3977 27.2096 33.3889 27.2047 33.3818C27.1998 33.3747 27.1923 33.3698 27.1839 33.3682ZM31.229 41.0382C31.2388 41.1838 31.2694 41.3249 31.3208 41.4617C31.3258 41.4758 31.3353 41.4878 31.3478 41.4959C31.3604 41.5039 31.3752 41.5076 31.39 41.5063C31.4048 41.505 31.4187 41.4987 31.4296 41.4886C31.4406 41.4784 31.4478 41.4649 31.4503 41.4501C31.5307 40.9985 31.5471 40.6594 31.7996 40.2509C32.0209 39.8919 32.4636 39.2369 32.1816 38.8234C32.1488 38.776 32.1319 38.723 32.1308 38.6646L32.1292 37.558C32.1292 37.541 32.1233 37.5246 32.1126 37.5115C32.1018 37.4984 32.0869 37.4896 32.0704 37.4864C32.0538 37.4833 32.0367 37.4861 32.022 37.4943C32.0073 37.5026 31.9959 37.5157 31.9898 37.5315C31.3897 39.0682 30.3812 40.7504 30.819 42.388C30.8215 42.3985 30.8276 42.4076 30.8362 42.4138C30.8448 42.4199 30.8555 42.4226 30.8661 42.4214C30.8768 42.4202 30.8869 42.4152 30.8945 42.4072C30.9021 42.3993 30.9067 42.3889 30.9076 42.3781C30.9393 41.9237 31.0087 41.4738 31.1158 41.0283C31.119 41.0148 31.1269 41.0029 31.1381 40.9947C31.1492 40.9866 31.1629 40.9828 31.1766 40.984C31.1904 40.9852 31.2032 40.9913 31.2128 41.0013C31.2224 41.0112 31.2282 41.0244 31.229 41.0382ZM29.4778 37.4985L28.758 38.0575C28.7491 38.0644 28.7434 38.0745 28.7418 38.0856C28.7403 38.0968 28.7431 38.1081 28.7498 38.1171L28.7858 38.1651C28.8683 38.2725 28.9886 38.3433 29.1205 38.362C29.2524 38.3806 29.385 38.3454 29.4893 38.2643C29.5934 38.1832 29.6608 38.0628 29.6764 37.9295C29.6921 37.7961 29.6549 37.6608 29.5729 37.553L29.5368 37.5051C29.5298 37.4964 29.5196 37.4909 29.5086 37.4897C29.4976 37.4885 29.4865 37.4916 29.4778 37.4985ZM30.7813 38.2097C30.3485 38.9508 30.0686 39.6923 29.9418 40.4345C29.9199 40.5624 29.9495 40.6986 30.0304 40.8431C30.0686 40.9114 30.097 40.907 30.1156 40.8298C30.2238 40.3733 30.2435 40.0243 30.5026 39.5926C30.7518 39.179 30.871 38.7247 30.86 38.2296C30.8594 38.2205 30.856 38.2119 30.8502 38.2049C30.8444 38.1979 30.8366 38.193 30.8278 38.1908C30.8191 38.1886 30.8099 38.1892 30.8015 38.1926C30.7932 38.196 30.7861 38.202 30.7813 38.2097Z" fill="#AF5C22"/>
<path d="M40.7173 16.4137C40.8239 15.934 40.5337 15.4378 40.5337 14.9697C40.5337 14.8649 40.555 14.8605 40.5976 14.9564C41.4929 16.991 41.1273 18.8105 40.5796 20.8616C40.3697 21.6478 39.9953 22.4103 39.4564 23.1492C39.4497 23.1574 39.4403 23.1629 39.43 23.1648C39.4196 23.1667 39.4089 23.1647 39.3998 23.1593C39.3907 23.154 39.3838 23.1455 39.3804 23.1354C39.3769 23.1254 39.3771 23.1144 39.381 23.1045C40.2353 21.1841 41.2437 18.4251 40.2877 16.3641C40.2825 16.3512 40.2817 16.3369 40.2854 16.3234C40.2891 16.31 40.2971 16.2982 40.3081 16.2898C40.3192 16.2815 40.3327 16.2771 40.3466 16.2774C40.3604 16.2776 40.3737 16.2825 40.3845 16.2913L40.573 16.4617C40.6485 16.53 40.6966 16.514 40.7173 16.4137Z" fill="#EAC82B"/>
<path d="M16.1454 23.2765C14.2778 21.2751 13.6777 17.6873 15.9404 15.6776C15.9459 15.6732 15.9514 15.6726 15.9568 15.676C15.9667 15.6815 15.9771 15.6914 15.988 15.7057C15.9914 15.7103 15.993 15.716 15.9927 15.7217C15.9924 15.7275 15.9902 15.7329 15.9863 15.7372C13.9531 18.2233 15.0501 20.6978 16.5914 23.0135C16.6439 23.0918 16.6395 23.1663 16.5783 23.2368C16.4274 23.4111 16.2831 23.4243 16.1454 23.2765Z" fill="#EAC82B"/>
<path d="M35.9347 18.9858C36.1369 19.2758 36.1681 19.4401 36.0281 19.4787C34.606 18.7631 33.0199 18.306 31.2698 18.1075C27.3722 17.6642 23.1254 17.7916 19.6641 19.6789C19.7209 19.4043 19.863 19.1716 20.0904 18.9809C24.9947 17.1233 31.114 17.1647 35.9347 18.9858Z" fill="#015021"/>
<path d="M36.156 19.7616C36.3724 21.0501 36.7299 22.3122 36.6397 23.6272C36.4167 23.4486 36.2062 23.2953 36.0084 23.1674C35.4132 22.7836 34.9951 22.251 34.3851 21.8689C34.2452 21.7818 34.0583 21.6302 33.8243 21.414C33.3029 20.9327 32.4699 20.7375 31.8403 20.3752C31.2107 20.0113 30.3679 20.0444 29.6497 19.8956C27.9559 19.5449 26.2834 19.8525 24.6224 20.2247C24.4213 20.2688 24.1791 20.3719 23.896 20.534C23.2073 20.9294 22.4941 21.0435 21.8464 21.6109C21.4343 21.9692 21.2244 22.1517 21.2168 22.1584C20.4702 22.7582 19.7443 23.3846 19.0393 24.0374C18.7878 23.6007 18.7244 23.1817 18.8491 22.7803C19.0655 22.0823 19.2754 21.1698 19.4787 20.0428C19.5957 20.0582 19.6858 20.0455 19.7492 20.0047C22.8565 18.0132 27.4312 18.0198 30.95 18.3556C32.87 18.5392 34.3671 18.961 36.0215 19.7996C36.0882 19.8338 36.133 19.8211 36.156 19.7616Z" fill="#ABDBE1"/>
<path d="M27.6622 32.5031L27.513 32.8091C27.489 32.8576 27.4622 32.8587 27.4327 32.8124C27.3048 32.6056 27.7557 31.1285 27.8459 30.8242C27.8493 30.8119 27.8501 30.7991 27.8482 30.7865C27.8463 30.7739 27.8418 30.7619 27.8349 30.7514C27.8281 30.7408 27.819 30.732 27.8085 30.7254C27.7979 30.7188 27.786 30.7147 27.7737 30.7134C27.542 30.6869 27.3764 30.5683 27.2769 30.3577C27.2474 30.2938 27.2572 30.2364 27.3064 30.1857C27.3785 30.1129 27.4682 30.0699 27.5753 30.0567C27.6175 30.0512 27.6579 30.0361 27.6936 30.0127C27.7292 29.9892 27.7591 29.9578 27.7812 29.921C27.8032 29.8841 27.8168 29.8427 27.8209 29.7998C27.825 29.7568 27.8195 29.7135 27.8049 29.6729L27.5081 28.8674C27.4895 28.8178 27.4933 28.7698 27.5196 28.7235C28.0082 27.8716 27.1506 26.5467 26.6407 25.8668C26.6341 25.8581 26.631 25.8474 26.632 25.8366C26.633 25.8258 26.6379 25.8158 26.6459 25.8083C26.6539 25.8008 26.6645 25.7964 26.6756 25.796C26.6867 25.7955 26.6976 25.7989 26.7063 25.8056C27.1545 26.1905 27.5212 26.6437 27.8065 27.1653C27.8415 27.2282 27.8748 27.2276 27.9065 27.1637C28.1394 26.6956 27.9541 25.9562 27.7508 25.5178C27.7433 25.5007 27.7423 25.4812 27.7481 25.4632C27.7538 25.4452 27.7658 25.43 27.7818 25.4205C27.7977 25.411 27.8165 25.4079 27.8344 25.4119C27.8523 25.4158 27.8681 25.4264 27.8787 25.4417C28.1836 25.8707 28.4252 26.3107 28.6034 26.7617C29.3872 28.74 32.7256 27.1901 33.8455 26.4259C35.5852 25.2399 37.8348 24.0804 37.0216 21.4918C36.7936 20.764 36.2771 19.315 36.4624 18.8634C36.4675 18.8521 36.4758 18.8426 36.4863 18.8362C36.4968 18.8298 36.509 18.8267 36.5212 18.8274C36.5335 18.8282 36.5453 18.8326 36.555 18.8402C36.5647 18.8478 36.5718 18.8582 36.5756 18.87C36.8035 19.611 36.9297 20.271 37.4069 21.0898C38.2661 22.5653 37.7545 24.2822 36.5214 25.3508C35.5016 26.2324 34.4669 27.124 33.2421 27.6963C31.7844 28.3761 30.4907 28.4869 29.1904 29.1602C28.5017 29.5158 27.9229 33.6725 27.7475 34.6485C27.7311 34.74 27.6988 34.8144 27.6507 34.8718C27.6399 34.8851 27.6251 34.8945 27.6085 34.8984C27.5919 34.9023 27.5745 34.9006 27.5588 34.8935C27.5431 34.8864 27.5299 34.8744 27.5214 34.8591C27.5129 34.8439 27.5093 34.8262 27.5114 34.8089L27.7885 32.5411C27.7899 32.5256 27.7859 32.51 27.7772 32.497C27.7685 32.4841 27.7556 32.4745 27.7408 32.4701C27.7259 32.4656 27.71 32.4664 27.6956 32.4724C27.6813 32.4785 27.6695 32.4893 27.6622 32.5031Z" fill="#EAC82B"/>
<path d="M37.0186 19.4821C37.951 19.9397 38.8304 20.5043 39.6568 21.1759C39.5879 21.4703 39.4519 21.7658 39.2485 22.0624C38.7129 21.4659 38.1084 20.9145 37.435 20.4084C37.1825 20.19 37.0437 19.8812 37.0186 19.4821Z" fill="#015021"/>
<path d="M36.6395 23.6272C35.9595 24.4299 35.0206 25.2686 33.8225 26.143C32.9764 26.7606 32.1025 27.1498 31.2006 27.3108C30.3218 27.468 28.9821 27.635 28.687 26.4689C28.5624 25.9793 28.1934 25.2631 27.654 25.1092C27.6341 25.1034 27.613 25.1027 27.5927 25.1073C27.5725 25.1119 27.5537 25.1215 27.5381 25.1354C27.5226 25.1493 27.5108 25.1669 27.5038 25.1866C27.4968 25.2063 27.4949 25.2275 27.4982 25.2482L27.5966 25.8635C27.6016 25.8946 27.5972 25.9265 27.5841 25.9551C27.5709 25.9836 27.5495 26.0076 27.5226 26.0239C27.4957 26.0402 27.4645 26.0481 27.433 26.0467C27.4015 26.0452 27.3712 26.0344 27.3457 26.0157L26.1865 25.1473C26.1417 25.114 26.0871 25.096 26.0307 25.096H25.9323C25.9041 25.0962 25.8766 25.1047 25.8531 25.1204C25.8295 25.1361 25.811 25.1583 25.7997 25.1843C25.7885 25.2104 25.7849 25.2392 25.7895 25.2673C25.7942 25.2953 25.8067 25.3214 25.8257 25.3425C26.2586 25.81 26.5865 26.3437 26.8095 26.9436C26.8369 27.0153 26.8139 27.0616 26.7407 27.0826C25.5355 27.4233 23.5613 27.5656 22.4234 26.7848C21.1543 25.9137 20.0262 24.9979 19.0391 24.0374C24.4577 17.8874 31.5739 18.4873 36.0082 23.1673C36.206 23.2952 36.4165 23.4485 36.6395 23.6272Z" fill="#D8EEF2"/>
<path d="M18.5637 19.7252C18.5025 20.2291 18.3626 20.577 18.144 20.7689C17.534 21.2883 16.9754 21.8452 16.4682 22.4395C16.3485 22.3072 15.8189 21.6952 15.937 21.5496C16.6726 20.8483 17.5482 20.2401 18.5637 19.7252Z" fill="#015021"/>
<path d="M19.2523 25.3855C18.4538 24.6279 17.9012 24.2161 17.8897 23.255C17.8815 22.4759 18.4571 21.328 18.803 20.5059C18.8081 20.4935 18.817 20.4831 18.8284 20.4763C18.8399 20.4695 18.8532 20.4666 18.8666 20.4681C18.8799 20.4696 18.8926 20.4753 18.9027 20.4845C18.9128 20.4937 18.9198 20.5058 18.9227 20.5191C19.1654 21.763 18.1537 22.9325 18.6768 23.958C19.3851 25.3475 21.5708 26.6095 22.9105 27.3291C24.0878 27.9626 25.3126 27.6483 26.5538 27.4465C26.5649 27.445 26.5763 27.4462 26.5867 27.4502C26.5972 27.4542 26.6066 27.4608 26.6139 27.4693C26.6212 27.4779 26.6263 27.4881 26.6287 27.4992C26.6311 27.5102 26.6307 27.5217 26.6276 27.5325C26.1702 29.0394 23.4696 28.3612 22.4989 27.8203C21.3992 27.2083 20.317 26.3967 19.2523 25.3855Z" fill="#EAC82B"/>
<path d="M37.7158 21.0583C38.2372 21.4267 38.6783 21.8446 39.039 22.3122C38.8139 22.6584 38.5313 22.9837 38.1913 23.2881C38.1389 23.3344 38.1132 23.3228 38.1143 23.2533C38.1274 22.5377 37.9946 21.806 37.7158 21.0583Z" fill="#ABDBE1"/>
<path d="M17.9623 21.3991L17.3737 23.3146C17.3691 23.3291 17.3607 23.3422 17.3494 23.3524C17.3381 23.3626 17.3243 23.3696 17.3094 23.3726C17.2945 23.3757 17.2791 23.3747 17.2648 23.3697C17.2504 23.3647 17.2376 23.3559 17.2278 23.3443L16.667 22.6678C17.031 22.1947 17.4628 21.7718 17.9623 21.3991Z" fill="#ABDBE1"/>
<path d="M40.5964 22.0376C42.4624 24.0413 43.5566 26.3945 43.8791 29.0973C44.812 36.9361 40.2799 43.0496 32.6111 44.5466C23.9634 46.2354 13.4038 43.3837 12.1216 32.9943C11.6592 29.2544 12.4971 25.4583 14.955 22.5487L15.642 23.5528C13.5661 26.8543 13.0136 31.2211 14.2187 34.9181C15.4075 38.299 17.849 40.886 20.9169 42.6179C22.4451 43.4152 24.052 43.9059 25.7375 44.09C27.3685 44.2852 28.9896 44.2736 30.6009 44.0553C34.1475 43.6037 37.1809 41.7644 39.5011 39.0335C41.1189 37.1257 42.0841 34.907 42.3968 32.3774C42.3727 32.2318 42.3815 32.0851 42.423 31.9374C42.6449 28.6975 41.8846 25.7582 40.1422 23.1194L40.5964 22.0376Z" fill="#015021"/>
<path d="M39.9632 23.3394C41.6007 25.8922 42.3227 28.7306 42.1292 31.8546C41.4034 31.7014 40.6825 31.6733 39.9665 31.7703C39.6845 30.5661 39.55 29.1651 39.2778 28.1362C39.0089 27.114 38.6487 26.1166 38.1973 25.144C38.7526 24.6632 39.3412 24.0616 39.9632 23.3394Z" fill="#ABDBE1"/>
<path d="M15.8187 23.8041C16.6003 24.6643 17.4305 25.3833 18.3094 25.9611C18.0454 26.6938 17.583 27.4316 17.4092 28.0932C17.2408 28.7361 17.1529 29.3928 17.1452 30.0632C17.1452 30.0787 17.1529 30.0892 17.1682 30.0947C17.2075 30.1079 17.2157 30.1278 17.2091 30.1691C17.0102 31.5067 17.1053 32.8201 17.4945 34.1092C17.5491 34.2933 17.5185 34.5073 17.4026 34.751C17.0506 34.5117 16.7812 34.4086 16.5943 34.4416C15.8859 34.5674 15.1748 34.6942 14.461 34.8221C13.4149 31.2178 13.7937 27.023 15.8187 23.8041Z" fill="#ABDBE1"/>
<path d="M38.1974 25.144C38.6489 26.1166 39.0091 27.114 39.278 28.1362C39.5502 29.1651 39.6846 30.5661 39.9667 31.7703C39.1184 31.9214 38.2794 32.0995 37.4498 32.3046C35.61 32.7611 34.3376 31.8762 32.9603 30.8093C32.9407 30.7944 32.9276 30.7724 32.9239 30.748C32.9203 30.7235 32.9263 30.6986 32.9406 30.6786C33.3866 30.0484 32.5832 29.5075 32.0109 29.4579C31.9562 29.4535 31.9038 29.4617 31.8535 29.4827C31.5223 29.6183 31.2484 29.5306 31.032 29.2197C30.9959 29.1678 31.008 29.1342 31.0681 29.1188C33.808 28.4026 35.6805 27.0197 38.1974 25.144Z" fill="#D8EEF2"/>
<path d="M18.3096 25.9611C20.0132 27.1058 22.4646 28.8806 24.9651 28.965C24.9765 28.9655 24.9877 28.9689 24.9975 28.975C25.0072 28.9811 25.0153 28.9896 25.0209 28.9997C25.0265 29.0098 25.0294 29.0212 25.0294 29.0328C25.0294 29.0444 25.0264 29.0558 25.0208 29.0659C24.7956 29.4606 24.6738 29.8857 24.6552 30.3412C24.6546 30.3554 24.6498 30.3692 24.6413 30.3807C24.6328 30.3921 24.6212 30.4007 24.6079 30.4052C24.5946 30.4098 24.5804 30.41 24.5671 30.4059C24.5539 30.4019 24.5422 30.3937 24.5338 30.3825C23.8933 29.5897 23.2265 29.5737 22.5334 30.3346C22.3476 30.5386 22.3673 30.7734 22.5924 31.0392C23.0286 31.5553 23.8091 32.1474 24.5027 31.7951C24.5151 31.7884 24.5291 31.7851 24.5432 31.7854C24.5573 31.7858 24.5711 31.7898 24.5834 31.797C24.5956 31.8043 24.6059 31.8146 24.6133 31.827C24.6207 31.8394 24.625 31.8534 24.6257 31.8679C24.6574 32.6553 24.7678 33.4316 24.9569 34.1969L21.4529 36.2149C21.384 36.2546 21.3862 36.2899 21.4594 36.3207L21.7562 36.4448C21.7856 36.4572 21.8105 36.4785 21.8274 36.5058C21.8444 36.533 21.8525 36.5649 21.8507 36.597C21.8489 36.6291 21.8372 36.6599 21.8174 36.6851C21.7975 36.7102 21.7704 36.7286 21.7398 36.7376L20.6379 37.0469C20.6154 37.0537 20.5956 37.0678 20.5817 37.087C20.5678 37.1062 20.5605 37.1294 20.5608 37.1532C20.5612 37.1769 20.5692 37.1999 20.5838 37.2187C20.5983 37.2374 20.6184 37.2508 20.6412 37.257C21.83 37.5497 23.3565 37.7069 24.2797 38.1766C26.4867 39.2965 26.4506 41.8471 25.9538 43.9924C25.9418 44.0421 25.9106 44.0696 25.8603 44.0751L25.7374 44.09C24.0518 43.9059 22.4449 43.4152 20.9167 42.6179C21.5939 41.9298 22.3465 41.0118 22.376 40.231C22.4596 37.9963 19.1786 38.3454 18.8999 37.3794C18.8925 37.3538 18.8919 37.3268 18.8983 37.3011C18.9046 37.2755 18.9176 37.2523 18.9359 37.2338C19.3508 36.8103 20.3789 36.7161 20.9396 36.6334C20.9703 36.6287 20.9995 36.6173 21.0253 36.6C21.0511 36.5828 21.0729 36.5601 21.0891 36.5335C21.1054 36.5069 21.1157 36.477 21.1193 36.446C21.1229 36.415 21.1198 36.3835 21.1102 36.3538C21.079 36.2579 20.3658 36.2579 20.269 36.2645C20.2144 36.2678 20.1635 36.2562 20.1165 36.2298L17.4028 34.751C17.5187 34.5073 17.5493 34.2934 17.4947 34.1092C17.1055 32.8201 17.0104 31.5068 17.2094 30.1691C17.2159 30.1278 17.2077 30.1079 17.1684 30.0947C17.1531 30.0892 17.1454 30.0787 17.1454 30.0633C17.1531 29.3928 17.2411 28.7361 17.4094 28.0933C17.5832 27.4316 18.0456 26.6939 18.3096 25.9611Z" fill="#D8EEF2"/>
<path d="M29.6649 32.6007C29.5032 32.8366 29.4245 33.1002 29.4288 33.3913C29.4299 33.4564 29.4627 33.4851 29.5272 33.4773C29.8945 33.431 30.2312 33.3053 30.5373 33.1002C30.6258 33.0407 30.658 33.0633 30.634 33.168C30.5804 33.4084 30.4432 33.5815 30.2224 33.6874C30.1798 33.7084 30.1574 33.7425 30.1552 33.79C30.1126 34.5972 30.0995 36.1603 29.76 37.1494C29.736 37.22 29.6906 37.2393 29.6239 37.2073C29.3365 37.0662 29.1025 37.1241 28.9222 37.381C28.8894 37.4273 28.8456 37.4428 28.791 37.4273C28.4303 37.3259 27.9465 37.2674 27.3399 37.252C27.0677 37.2443 26.8654 37.1004 26.7332 36.8203C26.7091 36.7684 26.7228 36.7309 26.7742 36.7078C27.248 36.4994 27.6645 36.2446 27.776 35.6872C28.0559 34.2956 28.3516 32.9089 28.6631 31.5272C28.8959 30.4867 29.2452 29.8648 30.1995 29.491C30.2118 29.486 30.225 29.4836 30.2383 29.4839C30.2516 29.4842 30.2648 29.4872 30.277 29.4928C30.2892 29.4983 30.3002 29.5063 30.3095 29.5162C30.3187 29.5261 30.3259 29.5378 30.3307 29.5505C30.6171 30.3191 30.7193 31.1164 30.6373 31.9423C30.6176 32.1392 30.4668 32.3492 30.5323 32.6089C30.5455 32.663 30.5247 32.6966 30.47 32.7098L29.8568 32.8537C29.7879 32.8703 29.7535 32.8433 29.7535 32.7727V32.6288C29.7535 32.5229 29.724 32.5135 29.6649 32.6007Z" fill="#EAC82B"/>
<path d="M26.2001 30.1113C26.2405 30.0032 26.2886 29.9993 26.3444 30.0997C26.8024 30.9212 27.0658 31.8034 27.1347 32.7463C27.1434 32.8642 27.1167 32.8725 27.0543 32.7711C26.4723 31.8216 25.7459 31.3403 26.2001 30.1113Z" fill="#EAC82B"/>
<path d="M42.1507 32.2831C42.1638 32.5654 42.0889 32.9155 41.9261 33.3334C41.4046 34.6689 40.881 35.7501 40.3552 36.5771C40.3246 36.6246 40.2902 36.6279 40.2519 36.5871L39.8502 36.1686C39.8389 36.1569 39.8243 36.1489 39.8084 36.1457C39.7925 36.1426 39.776 36.1443 39.7611 36.1508C39.7462 36.1572 39.7336 36.168 39.7249 36.1818C39.7162 36.1956 39.7119 36.2118 39.7125 36.2281C39.719 36.4024 39.7557 36.5678 39.8223 36.7243C39.8309 36.7451 39.8326 36.7682 39.8271 36.79C39.8216 36.8118 39.8092 36.8312 39.7919 36.8454C39.7745 36.8595 39.7531 36.8676 39.7308 36.8685C39.7085 36.8693 39.6866 36.8629 39.6682 36.8501L39.0828 36.425C39.0719 36.4168 39.0594 36.4112 39.0461 36.4085C39.0327 36.4058 39.019 36.4061 39.0058 36.4095C38.9927 36.4128 38.9804 36.419 38.9699 36.4277C38.9594 36.4364 38.9509 36.4473 38.9451 36.4597L38.8139 36.7425C38.7855 36.8021 38.7467 36.8104 38.6975 36.7674L38.0302 36.2033C38.0171 36.1926 38.0012 36.1859 37.9844 36.1839C37.9676 36.182 37.9507 36.185 37.9355 36.1924C37.9204 36.1999 37.9076 36.2116 37.8988 36.2261C37.89 36.2407 37.8855 36.2574 37.8859 36.2744L37.9088 37.0138C37.9095 37.0333 37.9036 37.0524 37.8921 37.0681C37.8806 37.0837 37.8641 37.095 37.8455 37.0999C37.8268 37.1049 37.807 37.1034 37.7893 37.0956C37.7716 37.0877 37.7571 37.0741 37.7481 37.0568C37.3907 36.3709 36.9212 35.7484 36.3396 35.1893C36.0084 34.8718 35.7051 34.8751 35.3034 35.0206C35.2741 35.0311 35.2426 35.0336 35.212 35.0278C35.1815 35.022 35.153 35.0081 35.1296 34.9875L34.3359 34.2862C34.3133 34.266 34.2865 34.2509 34.2573 34.2421C34.2282 34.2332 34.1974 34.2308 34.1671 34.2349C33.8063 34.2846 33.3407 33.178 33.1603 32.8835C33.1198 32.8185 33.0788 32.8179 33.0373 32.8819L32.8635 33.1482C32.8231 33.211 32.7859 33.2083 32.752 33.1399L31.9502 31.5139C32.1273 31.3419 32.3131 31.2289 32.5077 31.1749C32.5623 31.1605 32.6115 31.171 32.6553 31.2063C33.2193 31.6512 33.9916 32.1491 34.4573 32.4187C36.1347 33.393 37.6727 32.776 39.396 32.3426C40.1503 32.153 41.0685 32.1331 42.1507 32.2831Z" fill="#FCF4CF"/>
<path d="M31.9508 31.5139L32.7526 33.1399C32.7864 33.2083 32.8236 33.211 32.8641 33.1482L33.0379 32.8819C33.0794 32.8179 33.1204 32.8184 33.1608 32.8835C33.3412 33.1779 33.8069 34.2845 34.1676 34.2349C34.1979 34.2308 34.2287 34.2332 34.2579 34.242C34.287 34.2509 34.3139 34.2659 34.3365 34.2862L35.1301 34.9875C35.1536 35.0081 35.182 35.022 35.2126 35.0278C35.2431 35.0336 35.2746 35.0311 35.3039 35.0206C35.7056 34.875 36.009 34.8717 36.3402 35.1893C36.9217 35.7484 37.3912 36.3709 37.7487 37.0568C37.7577 37.074 37.7722 37.0877 37.7899 37.0955C37.8076 37.1034 37.8274 37.1049 37.846 37.0999C37.8647 37.0949 37.8811 37.0837 37.8926 37.068C37.9042 37.0524 37.91 37.0333 37.9094 37.0138L37.8864 36.2744C37.8861 36.2574 37.8906 36.2406 37.8994 36.2261C37.9082 36.2116 37.9209 36.1999 37.9361 36.1924C37.9512 36.1849 37.9682 36.182 37.985 36.1839C38.0017 36.1858 38.0176 36.1926 38.0307 36.2033L38.6981 36.7673C38.7473 36.8103 38.7861 36.8021 38.8145 36.7425L38.9457 36.4597C38.9515 36.4473 38.9599 36.4364 38.9704 36.4277C38.9809 36.419 38.9932 36.4128 39.0064 36.4094C39.0196 36.4061 39.0333 36.4058 39.0466 36.4085C39.0599 36.4111 39.0725 36.4168 39.0834 36.4249L39.6688 36.85C39.6871 36.8628 39.7091 36.8693 39.7314 36.8685C39.7537 36.8676 39.7751 36.8595 39.7924 36.8454C39.8098 36.8312 39.8221 36.8118 39.8276 36.7899C39.8331 36.7681 39.8315 36.7451 39.8229 36.7243C39.7562 36.5677 39.7196 36.4023 39.713 36.2281C39.7125 36.2118 39.7168 36.1956 39.7255 36.1818C39.7342 36.168 39.7468 36.1572 39.7617 36.1507C39.7766 36.1443 39.7931 36.1425 39.809 36.1457C39.8249 36.1489 39.8394 36.1569 39.8508 36.1686L40.2525 36.587C40.2907 36.6278 40.3252 36.6245 40.3558 36.5771C40.8816 35.7501 41.4052 34.6688 41.9266 33.3334C42.0895 32.9155 42.1644 32.5654 42.1512 32.2831C42.1414 32.3128 42.2234 32.3443 42.3972 32.3774C42.0846 34.907 41.1193 37.1257 39.5015 39.0334C38.8653 38.8791 38.3013 38.6431 37.8094 38.3255C37.746 38.2847 37.7268 38.3001 37.752 38.3718L37.8651 38.6977C37.8979 38.7914 37.8738 38.8101 37.793 38.7539C37.0699 38.2494 36.1746 37.7929 35.563 37.1792C35.5534 37.1693 35.5413 37.1624 35.528 37.1592C35.5146 37.156 35.5007 37.1567 35.4876 37.1612C35.4745 37.1656 35.4628 37.1737 35.4538 37.1845C35.4448 37.1953 35.4389 37.2083 35.4367 37.2222L35.399 37.4736C35.3837 37.574 35.3476 37.5828 35.2908 37.5001C34.7169 36.6753 34.0905 35.8929 33.4117 35.1529C33.3724 35.1088 33.3461 35.116 33.333 35.1744L33.274 35.4589C33.2714 35.4696 33.2656 35.4793 33.2575 35.4866C33.2494 35.494 33.2393 35.4987 33.2285 35.5001C33.2176 35.5015 33.2067 35.4996 33.1969 35.4946C33.1872 35.4897 33.1792 35.4818 33.174 35.4722C32.8034 34.7455 32.3191 34.1086 31.7212 33.5617C31.7108 33.5517 31.6974 33.5454 31.6831 33.5439C31.6688 33.5423 31.6543 33.5456 31.642 33.5531C31.6297 33.5606 31.6202 33.572 31.615 33.5855C31.6097 33.599 31.609 33.6139 31.613 33.6279C32.0185 35.1176 31.9338 36.5799 31.3588 38.0145C31.3162 38.1215 31.2932 38.1171 31.29 38.0013C31.2539 36.6267 30.9276 35.9039 30.657 34.7775C30.6442 34.7247 30.6476 34.6688 30.6669 34.617C31.0145 33.6819 31.173 32.7131 31.1424 31.7108C31.1414 31.6838 31.1506 31.6575 31.1683 31.637C31.1859 31.6165 31.2106 31.6032 31.2375 31.5999L31.9508 31.5139Z" fill="#EAC82B"/>
<path d="M27.1839 33.3682C27.1923 33.3698 27.1998 33.3747 27.2047 33.3818C27.2096 33.3889 27.2116 33.3977 27.2101 33.4063L27.1741 33.5915C27.0647 34.1642 26.9446 34.7107 26.8401 35.111C26.7356 35.5113 26.6552 35.7328 26.6166 35.727L26.5821 35.7203C26.5627 35.7182 26.5543 35.6597 26.5572 35.5483C26.5602 35.4368 26.5745 35.2746 26.5993 35.0709C26.6241 34.8672 26.659 34.6261 26.7019 34.3615C26.7449 34.0968 26.795 33.8138 26.8494 33.5287L26.8855 33.3434C26.8871 33.3349 26.8919 33.3273 26.899 33.3224C26.906 33.3174 26.9147 33.3155 26.9232 33.3169L27.1839 33.3682Z" fill="#EAC82B"/>
<path d="M24.9566 34.1969C25.3348 35.0846 25.5901 36.0026 25.7223 36.951C25.783 37.3992 26.3143 38.6745 26.6357 38.9276C26.8652 39.1096 27.1549 39.1636 27.5047 39.0897C27.5167 39.0871 27.5291 39.087 27.5411 39.0895C27.5532 39.092 27.5645 39.097 27.5746 39.1041C27.5846 39.1113 27.593 39.1204 27.5993 39.1311C27.6057 39.1417 27.6097 39.1535 27.6113 39.1658C27.6408 39.415 27.6282 39.6615 27.5736 39.9052C27.5692 39.923 27.5707 39.9418 27.5778 39.959C27.5848 39.9762 27.5971 39.9909 27.6129 40.0011L27.8523 40.1533C27.8736 40.1669 27.8919 40.1848 27.9063 40.2062C27.9207 40.2275 27.9307 40.2517 27.9359 40.2774L28.1671 41.5179C28.1699 41.5336 28.1775 41.548 28.1887 41.5593C28.1999 41.5705 28.2143 41.5779 28.2298 41.5806C28.2454 41.5834 28.2614 41.5812 28.2757 41.5744C28.29 41.5676 28.3019 41.5566 28.3098 41.5427C28.3655 41.4457 28.4502 41.395 28.5639 41.3906C28.5925 41.3891 28.6208 41.3973 28.6443 41.4141C28.6677 41.4309 28.6851 41.4552 28.6935 41.4832L29.0427 42.6576C29.0657 42.7381 29.1083 42.7502 29.1706 42.694C29.2876 42.5892 29.3335 42.4525 29.3083 42.2838C29.3027 42.2594 29.3069 42.2338 29.3199 42.2126C29.333 42.1913 29.3539 42.1762 29.378 42.1705C29.4022 42.1648 29.4276 42.169 29.4486 42.1822C29.4697 42.1953 29.4847 42.2164 29.4903 42.2408C29.7057 42.8958 30.0757 43.5006 30.6004 44.0553C28.9892 44.2737 27.368 44.2852 25.7371 44.0901L25.8601 44.0752C25.9104 44.0697 25.9415 44.0421 25.9535 43.9925C26.4504 41.8471 26.4864 39.2965 24.2794 38.1767C23.3563 37.7069 21.8297 37.5498 20.641 37.257C20.6182 37.2509 20.598 37.2374 20.5835 37.2187C20.569 37.2 20.5609 37.177 20.5606 37.1532C20.5602 37.1294 20.5675 37.1062 20.5814 37.087C20.5954 37.0678 20.6151 37.0537 20.6377 37.0469L21.7395 36.7376C21.7702 36.7286 21.7973 36.7103 21.8171 36.6851C21.837 36.6599 21.8486 36.6292 21.8504 36.5971C21.8522 36.5649 21.8441 36.5331 21.8272 36.5058C21.8103 36.4785 21.7854 36.4572 21.7559 36.4448L21.4592 36.3208C21.3859 36.2899 21.3837 36.2546 21.4526 36.2149L24.9566 34.1969Z" fill="#419D78"/>
<path d="M17.403 34.751L20.1167 36.2297C20.1637 36.2562 20.2145 36.2678 20.2692 36.2644C20.3659 36.2578 21.0792 36.2578 21.1104 36.3538C21.12 36.3835 21.1231 36.4149 21.1195 36.4459C21.1159 36.477 21.1056 36.5068 21.0893 36.5334C21.0731 36.56 21.0513 36.5827 21.0255 36.6C20.9997 36.6172 20.9704 36.6286 20.9398 36.6333C20.3791 36.716 19.351 36.8103 18.9361 37.2338C18.9178 37.2522 18.9048 37.2755 18.8985 37.3011C18.8921 37.3267 18.8927 37.3537 18.9001 37.3793C19.1788 38.3453 22.4598 37.9963 22.3762 40.231C22.3467 41.0117 21.5941 41.9297 20.9169 42.6178C17.849 40.886 15.4075 38.299 14.2188 34.918L14.4614 34.8221C15.1752 34.6942 15.8863 34.5673 16.5947 34.4416C16.7816 34.4086 17.051 34.5117 17.403 34.751Z" fill="#419D78"/>
<path d="M31.1157 41.0283C31.0086 41.4738 30.9392 41.9237 30.9075 42.378C30.9066 42.3889 30.902 42.3993 30.8944 42.4072C30.8868 42.4152 30.8767 42.4202 30.866 42.4214C30.8553 42.4226 30.8447 42.4199 30.8361 42.4138C30.8274 42.4076 30.8213 42.3985 30.8189 42.388C30.3811 40.7504 31.3895 39.0682 31.9897 37.5315C31.9958 37.5157 32.0072 37.5025 32.0219 37.4943C32.0366 37.4861 32.0537 37.4833 32.0702 37.4864C32.0868 37.4896 32.1017 37.4984 32.1124 37.5115C32.1232 37.5246 32.129 37.541 32.129 37.558L32.1307 38.6646C32.1318 38.723 32.1487 38.776 32.1815 38.8234C32.4635 39.2369 32.0208 39.8919 31.7995 40.2509C31.5469 40.6594 31.5305 40.9985 31.4502 41.4501C31.4477 41.4649 31.4404 41.4784 31.4295 41.4886C31.4186 41.4987 31.4047 41.505 31.3899 41.5063C31.3751 41.5076 31.3602 41.5039 31.3477 41.4959C31.3352 41.4878 31.3257 41.4758 31.3207 41.4617C31.2693 41.3249 31.2387 41.1838 31.2288 41.0382C31.228 41.0243 31.2223 41.0112 31.2127 41.0013C31.2031 40.9913 31.1902 40.9852 31.1765 40.9839C31.1628 40.9827 31.1491 40.9866 31.1379 40.9947C31.1268 41.0028 31.1189 41.0148 31.1157 41.0283Z" fill="#EAC82B"/>
<path d="M29.4776 37.4985C29.4863 37.4916 29.4974 37.4885 29.5084 37.4897C29.5194 37.4909 29.5295 37.4965 29.5366 37.5051L29.5727 37.5531C29.6547 37.6608 29.6919 37.7961 29.6762 37.9295C29.6606 38.0628 29.5932 38.1832 29.489 38.2643C29.3848 38.3454 29.2522 38.3806 29.1203 38.362C28.9884 38.3434 28.868 38.2725 28.7856 38.1651L28.7495 38.1171C28.7429 38.1081 28.7401 38.0968 28.7416 38.0856C28.7431 38.0745 28.7489 38.0644 28.7577 38.0576L29.4776 37.4985Z" fill="#EAC82B"/>
<path d="M30.8598 38.2295C30.8707 38.7247 30.7516 39.179 30.5023 39.5925C30.2433 40.0242 30.2236 40.3733 30.1154 40.8298C30.0968 40.907 30.0684 40.9114 30.0301 40.843C29.9492 40.6986 29.9197 40.5624 29.9415 40.4345C30.0684 39.6923 30.3482 38.9507 30.7811 38.2097C30.7858 38.202 30.7929 38.196 30.8013 38.1926C30.8096 38.1892 30.8188 38.1885 30.8276 38.1907C30.8363 38.1929 30.8442 38.1979 30.8499 38.2049C30.8557 38.2118 30.8592 38.2205 30.8598 38.2295Z" fill="#EAC82B"/>
</svg>
