<?xml version="1.0" encoding="UTF-8"?>
<!-- generated by Finnhub -->
<svg viewBox="0 0 55.5 55.5" xmlns="http://www.w3.org/2000/svg">
<path d="M 0,0 H 55.5 V 55.5 H 0 Z" fill="rgb(239, 242, 248)"/>
<path d="M 27.99,35.995 V 45 C 23.74,45 15,41.6 15,32.81 C 15,24.03 23.67,12.61 28,8 V 23 C 25.24,23.19 23,25.44 23,27.83 C 23,29.83 24.56,32.34 25.34,33.35 V 35.03 L 26.51,36.01 H 28 Z" fill="rgb(0, 190, 241)"/>
<path d="M 27.99,35.995 V 45 C 32.37,45 41,41.6 41,32.81 C 41,24.03 32.33,12.61 28,8 V 23 C 30.76,23.19 33,25.44 33,27.83 C 33,29.83 31.44,32.34 30.66,33.35 V 35.03 L 29.49,36.01 H 28 Z" fill="rgb(180, 229, 27)"/>
<path d="M 20.459999999999997,30.715 L 22.88,31.51 L 22.74,31.95 L 20.47,31.22 V 35.55 H 26 L 26.05,31.47 H 25 V 31.01 H 26.16 L 27.51,29.01 L 27.9,29.27 L 26.57,31.24 L 27.9,33.16 L 27.51,33.42 L 26.47,31.94 V 35.54 H 39 V 36.01 H 17 V 35.55 H 18.26 L 18,33.95 L 18.46,33.88 L 18.73,35.55 H 20 V 31.45 L 18.72,32.66 L 18.4,32.32 L 20,30.8 V 28 H 20.47 V 30.73 Z" fill="rgb(167, 210, 14)"/>
</svg>
