<?xml version="1.0" encoding="UTF-8"?>
<!-- generated by Finnhub -->
<svg viewBox="0 0 55.5 55.5" xmlns="http://www.w3.org/2000/svg">
<path d="M0 0h55.5v55.5H0z" fill="rgb(239, 242, 248)"/>
<path d="M18 23.3 10 21l2.04 8L18 23.3Z" fill="rgb(34, 65, 107)"/>
<path d="M44 28a16 16 0 0 1-28.76 9.65l1.75-1a14 14 0 1 0-2.96-9.55l-2 1.79L12 28a16 16 0 1 1 32 0Z" fill="rgb(34, 65, 107)"/>
<path d="M12.15 30.2a15.9 15.9 0 0 0 2.47 6.58l1.75-1A13.93 13.93 0 0 1 14 28.55l-1.86 1.66Z" fill="rgb(116, 116, 117)"/>
<path d="M29.87 30.35a2.99 2.99 0 0 1-3.77-.02L16 36l-1.13-1.91 10.15-5.7a3 3 0 1 1 5.95.03L40 34l-1.13 1.91-9-5.56Z" fill="rgb(116, 116, 117)"/>
<path d="m26 34h1v1h-1zm0 2h1v1h-1zm3-2h1v1h-1zm0 2h1v1h-1z" fill="rgb(116, 116, 117)"/>
</svg>
