<?xml version="1.0" encoding="UTF-8"?>
<!-- generated by Finnhub -->
<svg viewBox="0 0 55.5 55.5" xmlns="http://www.w3.org/2000/svg">
<path d="M0 0h55.5v55.5H0z" fill="rgb(239, 242, 248)"/>
<path d="M31.45 40.33c-2.95-.65-9.72-3.16-13.18-8-3.94-5.51-4.65-8.51-3.44-13.41a16 16 0 0 0 18.3 24.24l-1.68-2.83Z" fill="url(#d)"/>
<path d="M40.33 24.54c-.65 2.95-3.16 9.72-8 13.18-5.51 3.94-8.51 4.65-13.41 3.44a16 16 0 0 0 24.24-18.3l-2.83 1.68Z" fill="url(#c)"/>
<path d="M24.54 15.67c2.95.65 9.72 3.16 13.18 8 3.94 5.51 4.65 8.51 3.44 13.41a16 16 0 0 0-18.3-24.24l1.68 2.83Z" fill="url(#b)"/>
<path d="M16.29 29.3c1.12-3.36 3.5-8.26 7.38-11.03 5.51-3.94 8.51-4.65 13.41-3.44A16 16 0 0 0 12 28V28c0-3.37 1.05-6.5 2.83-9.08-.97 3.92-.7 6.62 1.46 10.37Z" fill="url(#a)"/>
<defs>
<linearGradient id="d" x1="13.08" x2="31.02" y1="21.74" y2="42.05" gradientUnits="userSpaceOnUse">
<stop stop-color="rgb(54, 112, 156)" offset="0"/>
<stop stop-color="rgb(22, 27, 34)" offset="1"/>
</linearGradient>
<linearGradient id="c" x1="21.74" x2="42.06" y1="42.85" y2="24.91" gradientUnits="userSpaceOnUse">
<stop stop-color="rgb(54, 112, 156)" offset="0"/>
<stop stop-color="rgb(22, 27, 34)" offset="1"/>
</linearGradient>
<linearGradient id="b" x1="42.85" x2="24.91" y1="34.26" y2="13.95" gradientUnits="userSpaceOnUse">
<stop stop-color="rgb(54, 112, 156)" offset="0"/>
<stop stop-color="rgb(22, 27, 34)" offset="1"/>
</linearGradient>
<linearGradient id="a" x1="34.26" x2="13.94" y1="13.08" y2="31.06" gradientUnits="userSpaceOnUse">
<stop stop-color="rgb(54, 112, 156)" offset="0"/>
<stop stop-color="rgb(22, 27, 34)" offset="1"/>
</linearGradient>
</defs>
</svg>
