<!-- by Finnhub --><svg xmlns="http://www.w3.org/2000/svg" width="56" height="56" viewBox="0 0 56 56"><path fill="#F0F3FA" d="M0 0h56v56H0z"/><path d="M32.34 23.84c1.94 1.97 2.66 3.73 2.66 5.88 0 2.26-.85 4.37-2.47 5.96A8.43 8.43 0 0 1 26.49 38c-2.3 0-4.24-.98-6.04-2.32l-2.95 2.7c2.66 2.08 5.51 3.62 8.99 3.62a12.65 12.65 0 0 0 11.05-6.52A11.7 11.7 0 0 0 39 30.03c0-3.37-1.22-6.72-3.7-9.03l-2.96 2.84Z" fill="#E7141A"/><path d="m22.12 33.63 1.4-1.36A8.7 8.7 0 0 1 21 26.29c0-2.26.9-4.36 2.53-5.95A8.57 8.57 0 0 1 29.62 18c2.04 0 4.11.65 5.65 2 .22.19.41.34.44.34.02 0 .67-.6 1.43-1.35l1.36-1.35-.36-.33a13.18 13.18 0 0 0-8.53-3.3c-2.76-.01-5.54.94-7.75 2.59-.57.42-1.62 1.44-2.1 2.03a10.9 10.9 0 0 0-1.29 1.91A11.62 11.62 0 0 0 17 25.97c0 3.46 1.34 6.55 3.73 9.03l1.4-1.37Z" fill="#E69938"/><circle cx="42" cy="19" r="3" fill="#E69938"/><circle cx="14" cy="37" r="3" fill="#E7141A"/></svg>