<!-- by Finnhub --><svg width="56" height="56" viewBox="0 0 56 56" fill="none" xmlns="http://www.w3.org/2000/svg">
<rect width="56" height="56" fill="#F0F3FA"/>
<path fill-rule="evenodd" clip-rule="evenodd" d="M22.343 11H34.877L22.797 27.504L28.058 35.279L33.273 27.499L30.539 23.753L37.211 14.38L46 27.51L33.565 45L28.062 37.06L22.611 44.999L10 27.495L22.343 11ZM27.446 36.17L21.913 28.002H11.62L22.586 43.248L27.446 36.171V36.17ZM11.629 27H21.919L32.9 12.01H22.853L11.629 27ZM28.674 36.168L33.58 43.247L44.4 28.002H34.154L28.674 36.168ZM34.152 27H44.447L37.18 16.168L31.776 23.76L34.152 27Z" fill="black"/>
</svg>
