<?xml version="1.0" encoding="UTF-8"?>
<!-- generated by Finnhub -->
<svg viewBox="0 0 55.5 55.5" xmlns="http://www.w3.org/2000/svg">
<path d="M 0,0 H 55.5 V 55.5 H 0 Z" fill="rgb(239, 242, 248)"/>
<path d="M 25.99,26.884999999999998 L 22.2,31.25 C 22.4,30.45 22.67,29.55 23,28.6 A 43.71,43.71 0 0,1 26.63,20.8 A 1.91,1.91 0 0,0 25.83,20.12 A 1.92,1.92 0 0,0 24.84,20.02 A 177.03,177.03 0 0,1 23.24,23.59 A 279.71,279.71 0 0,0 21.86,26.77 L 18.14,31.37 A 18.35,18.35 0 0,1 21.14,24.92 C 20.63,24.22 20.04,23.96 19.37,24.17 A 324.3,324.3 0 0,1 18.35,26.26 L 17.63,24.92 C 17.13,24.22 16.54,23.96 15.88,24.17 C 15.58,24.8 15.28,25.42 14.96,26.04 A 45.65,45.65 0 0,0 13.94,28.22 L 13.9,28.3 A 38.72,38.72 0 0,1 11.36,31.19 C 11.01,31.54 10.67,31.85 10.34,32.13 C 10.04,32.38 9.74,32.59 9.4,32.77 C 8.96,33 8.65,33.04 8.46,32.91 C 8.27,32.77 8.16,32.54 8.14,32.21 V 32.22 C 8.12,31.62 8.2,31.02 8.37,30.43 C 8.56,29.75 8.8,29.08 9.09,28.44 C 9.41,27.74 9.77,27.06 10.18,26.41 C 10.59,25.74 11.03,25.1 11.48,24.5 A 18,18 0 0,1 12.81,22.88 C 13.2,22.46 13.61,22.08 14.07,21.73 A 7.4,7.4 0 0,1 13.6,23.03 A 17.27,17.27 0 0,1 11.73,26.22 A 5.5,5.5 0 0,1 10.71,27.32 C 11.01,27.57 11.41,27.68 11.79,27.63 C 12.19,27.59 12.57,27.46 12.89,27.24 A 12.06,12.06 0 0,0 14.67,24.31 C 14.9,23.81 15.07,23.27 15.19,22.73 C 15.29,22.29 15.31,21.83 15.24,21.39 A 2.4,2.4 0 0,0 14.84,20.94 A 6,6 0 0,0 13.74,20.18 A 1.38,1.38 0 0,0 13.31,20.02 C 12.77,20.35 12.17,20.86 11.52,21.56 A 27.67,27.67 0 0,0 7.8,26.78 C 7.28,27.7 6.85,28.67 6.5,29.67 A 8.2,8.2 0 0,0 6,32.24 C 6,33.03 6.21,33.65 6.65,34.12 A 4.03,4.03 0 0,0 8.75,35 A 6.33,6.33 0 0,0 10.8,33.6 A 28.64,28.64 0 0,0 12.76,31.42 L 12.65,31.82 C 12.72,32.74 13.31,33.32 14.4,33.59 A 82.43,82.43 0 0,0 16.69,30.09 C 16.59,30.37 16.49,30.66 16.41,30.95 L 16.14,31.82 C 16.23,32.74 16.81,33.32 17.9,33.59 L 20.74,29.64 V 29.66 L 20.56,30.15 C 20.33,30.8 20.16,31.35 20.05,31.82 C 20.16,32.75 20.77,33.34 21.85,33.61 L 26,28.2 V 33 H 30 V 31.7 H 27.5 V 28.76 H 29.45 V 27.32 H 27.5 V 24.53 H 30 V 23 H 26 V 26.9 Z M 15.47,30.4 L 14.6,31.58 A 16.98,16.98 0 0,1 17.2,25.61 L 17.98,27.08 A 120.67,120.67 0 0,0 15.47,30.4 Z M 30.5,24.44 H 32 V 33 H 33.5 V 24.43 H 35 V 23 H 30.5 V 24.43 Z M 37,27 H 39 V 23 H 40.5 V 33 H 39 V 28.5 H 37 V 33 H 35.5 V 23 H 37 V 27 Z M 43.25,23 C 41.8,23 41,23.9 41,25.46 V 30.54 C 41,32.11 41.8,33 43.25,33 S 45.5,32.1 45.5,30.54 V 25.46 C 45.5,23.89 44.7,23 43.25,23 Z M 44,30.64 C 44,31.34 43.72,31.6 43.25,31.6 S 42.5,31.34 42.5,30.64 V 25.36 C 42.5,24.66 42.78,24.4 43.25,24.4 S 44,24.66 44,25.36 V 30.64 Z M 48.56,24.4 C 48.03,24.4 47.72,24.66 47.72,25.36 C 47.72,26.28 48.42,26.86 49.16,27.49 C 50.04,28.23 51,29.03 51,30.54 C 51,32.11 50.15,33 48.5,33 S 46,32.1 46,30.54 V 30 H 47.5 V 30.64 C 47.5,31.34 47.92,31.59 48.46,31.59 C 48.99,31.59 49.33,31.34 49.33,30.64 C 49.33,29.72 48.63,29.14 47.89,28.51 C 47.01,27.77 46.05,26.97 46.05,25.46 C 46.05,23.89 46.89,23 48.52,23 C 50.15,23 50.99,23.9 50.99,25.46 V 26 H 49.5 V 25.36 C 49.5,24.66 49.1,24.4 48.56,24.4 Z"/>
</svg>
