<?xml version="1.0" encoding="UTF-8"?>
<!-- generated by Finnhub -->
<svg viewBox="0 0 55.5 55.5" xmlns="http://www.w3.org/2000/svg">
<path d="M 0,0 H 55.5 V 55.5 H 0 Z" fill="rgb(239, 242, 248)"/>
<path d="M 3.99,24.985 H 52 V 32 H 4 Z" fill="url(#j)"/>
<path d="M 21.779999999999998,23.485 C 22.04,23.74 22.56,24.43 22.56,25.26 C 22.56,25.71 22.27,26.36 21.94,27.09 C 21.5,28.07 21,29.19 21,30.23 C 21,32.03 22.01,33.33 23.73,34.08 C 24.23,34.3 24.71,34.48 25.15,34.66 C 26.23,35.08 27.12,35.43 27.71,36 H 28.29 C 28.88,35.43 29.77,35.08 30.85,34.66 C 31.29,34.48 31.77,34.3 32.27,34.08 C 34,33.33 35,32.04 35,30.23 C 35,29.2 34.5,28.07 34.06,27.09 C 33.73,26.36 33.44,25.71 33.44,25.26 C 33.44,24.43 33.96,23.74 34.21,23.5 H 21.8 Z" fill="url(#i)"/>
<path d="M 23.33,32.765 L 23.22,32.21 L 32.52,23.06 H 32.84 L 32.52,25.45 L 33.04,27.35 C 33.37,27.87 34.05,29.15 34.1,30.14 C 34.14,31.13 33.41,32.17 33.04,32.57 L 28.04,35.17 L 23.34,32.77 Z" fill="url(#h)"/>
<path d="M 21.77,23.485 L 23.68,21.28 H 23.9 V 21.78 L 22.45,23.51 H 21.78 Z" fill="url(#g)"/>
<path d="M 34.21,23.485 L 32.32,21.28 H 32.11 V 21.85 L 33.51,23.51 H 34.22 Z" fill="url(#f)"/>
<path d="M 24.209999999999997,21.265 H 23.91 V 21.76 C 24.41,22.06 25.91,22.66 27.87,22.66 C 29.82,22.66 31.51,22.03 32.11,21.72 V 21.28 H 31.86 C 31.21,21.59 29.51,22.22 27.86,22.22 A 7.94,7.94 0 0,1 24.22,21.28 Z" fill="url(#e)"/>
<path d="M 23.31,26.085 C 23.57,25.32 23.22,24.06 23.02,23.52 L 23.87,22.36 L 24.75,22.53 C 25.63,22.7 27.68,23.03 28.82,22.94 C 29.96,22.86 31.28,22.52 31.8,22.35 L 32.67,22.94 L 22.91,32.34 C 22.77,32.41 22.39,32.29 22.05,31.3 C 21.71,30.3 22.07,28.78 22.3,28.13 C 22.54,27.78 23.08,26.89 23.32,26.1 Z" fill="url(#d)"/>
<path d="M 32.06,22.765 L 22.75,31.85 L 23.33,32.55 L 32.7,23.51 L 32.07,22.78 Z" fill="url(#c)"/>
<path d="M 22.99,25.415 A 3.5,3.5 0 0,0 22.35,23.5 L 23.81,21.87 C 24.91,22.63 26.94,22.82 27.89,22.79 H 27.93 C 28.89,22.82 31.01,22.62 32.12,21.86 L 33.51,23.5 A 3.26,3.26 0 0,0 33.44,27.33 L 33.51,27.45 L 33.61,27.61 C 33.91,28.04 34.41,28.83 34.41,30.23 C 34.41,31.83 33.37,32.88 31.83,33.58 C 31.36,33.8 30.91,33.97 30.49,34.14 A 9.3,9.3 0 0,0 27.93,35.46 C 27.93,35.49 27.89,35.49 27.89,35.46 C 27.09,34.82 26.27,34.5 25.35,34.14 C 24.93,33.97 24.49,33.8 24.02,33.58 C 22.49,32.88 21.45,31.84 21.45,30.23 C 21.45,28.83 21.95,28.04 22.25,27.61 A 5.3,5.3 0 0,0 22.42,27.33 C 22.66,26.94 23,26.39 23,25.43 Z M 23.8,25.56 C 23.8,24.79 23.56,23.79 23.36,23.53 L 24.16,22.55 C 25.15,23.24 27.04,23.41 27.89,23.39 H 27.93 C 28.79,23.41 30.86,23.27 31.86,22.59 L 32.66,23.59 C 32.46,23.85 32.16,24.73 32.36,25.75 C 32.36,26.55 32.7,27.21 33.05,27.87 C 33.41,28.55 33.76,29.23 33.76,30.07 C 33.76,31.52 32.82,32.45 31.44,33.08 C 31.01,33.28 30.61,33.43 30.24,33.58 C 29.39,33.91 28.65,34.2 27.94,34.78 C 27.94,34.8 27.89,34.8 27.89,34.78 C 27.18,34.2 26.44,33.91 25.61,33.58 C 25.23,33.43 24.84,33.28 24.41,33.08 C 23.04,32.45 22.1,31.52 22.1,30.08 C 22.1,29.16 22.54,28.43 22.97,27.72 C 23.39,27.04 23.79,26.37 23.79,25.56 Z" fill="url(#b)" fill-rule="evenodd"/>
<path d="M 22.74,31.634999999999998 C 22.98,31.46 23.47,31.02 23.57,30.75 C 23.7,30.42 23.83,30.21 23.83,30.07 S 23.55,30.34 23.36,30.07 C 23.17,29.8 23.28,29.9 22.96,29.89 C 22.69,29.89 22.57,29.79 22.54,29.75 C 22.57,29.71 22.63,29.61 22.68,29.6 C 22.75,29.57 23.22,29.58 23.29,29.52 C 23.36,29.47 23.93,29.22 23.83,28.51 A 4.96,4.96 0 0,0 23.36,27.11 C 23.51,27.27 23.85,27.67 24.02,28.11 C 24.22,28.65 24.45,28.89 24.54,29.1 C 24.64,29.31 24.97,29.4 25.09,29.31 C 25.21,29.21 25.35,29.27 25.25,28.89 C 25.16,28.51 24.61,27.49 24.61,27.26 A 18.64,18.64 0 0,0 24.54,26.26 C 24.58,26.62 24.73,27.31 25.09,27.47 C 25.56,27.68 26.5,27.1 26.69,26.67 C 26.88,26.23 26.99,25.58 26.84,25.2 C 26.69,24.83 25.86,23.81 25.56,23.11 A 3.1,3.1 0 0,1 25.42,21 C 25.48,21.29 25.64,21.9 25.74,22.09 C 25.84,22.24 26.14,21.85 26.34,21.56 C 26.14,21.88 25.89,22.46 26.06,22.89 C 26.29,23.49 26.98,24.6 27.14,24.8 C 27.29,25 27.46,26.43 27.21,26.9 C 27,27.28 26.78,27.6 26.69,27.7 L 25.65,29.31 L 22.87,31.86 L 22.75,31.65 Z" fill="rgb(241, 236, 29)"/>
<path d="M 29.16,22.585 C 29.22,22.26 29.62,21.44 29.81,21.07 C 29.85,21.1 29.93,21.26 29.98,21.63 C 30.04,22.1 29.4,22.41 29.52,23.01 C 29.62,23.48 30.12,24.25 30.36,24.57 L 29.4,25.36 L 29.17,24.94 A 9.53,9.53 0 0,1 29.02,23.84 C 29.02,23.54 29.12,23.01 29.17,22.59 Z" fill="url(#a)"/>
<path d="M 11.44,29.105 L 11.77,28.46 H 13 V 30.3 H 11.69 C 11.06,30.3 10.55,29.73 10.55,29.02 V 28.58 C 10.55,27.88 11.05,27.3 11.69,27.3 H 13.09 L 12.66,28.12 H 11.74 C 11.39,28.12 11.11,28.44 11.11,28.84 C 11.11,29.24 11.39,29.55 11.74,29.55 H 12.41 V 29.12 H 11.45 Z M 9.67,27.3 H 10.3 V 30.3 H 9.67 V 27.3 Z M 6.54,27.6 L 6,30.2 H 6.6 L 6.92,28.52 L 7.55,30.11 C 7.59,30.21 7.69,30.29 7.81,30.29 C 7.92,30.29 8.03,30.21 8.07,30.09 L 8.63,28.52 L 8.98,30.2 H 9.55 L 9.07,27.59 A 0.35,0.35 0 0,0 8.73,27.29 A 0.35,0.35 0 0,0 8.41,27.52 L 7.77,29.16 L 7.2,27.53 A 0.35,0.35 0 0,0 6.88,27.29 C 6.71,27.29 6.57,27.41 6.54,27.59 Z M 13.24,27.3 H 13.82 V 28.3 H 15 V 27.3 H 15.56 V 30.3 H 15 V 28.8 H 13.82 V 30.3 H 13.25 V 27.3 Z M 17.7,28 H 17 V 30.3 H 16.43 V 28 H 15.58 L 15.98,27.3 H 18.13 L 17.7,28 Z M 19.33,29.27 L 18.28,27.3 H 19.05 L 19.68,28.56 L 20.35,27.3 H 21.1 L 20,29.27 V 30.3 H 19.33 V 29.27 Z M 24.17,27.3 H 22 V 30.3 H 22.6 V 29.3 H 23.67 L 24.03,28.55 H 22.6 V 28.12 H 23.67 L 24.17,27.3 Z M 24.35,27.3 H 25 V 30.3 H 24.35 V 27.3 Z M 27.08,28.01 H 25.43 L 25.76,27.3 H 27 C 27.51,27.3 27.93,27.8 27.93,28.4 C 27.93,28.78 27.77,29.1 27.52,29.3 L 28.1,30.3 H 27.3 L 26.82,29.5 H 26 V 30.3 H 25.38 V 28.76 H 27.08 C 27.26,28.76 27.4,28.59 27.4,28.38 C 27.4,28.18 27.26,28.01 27.08,28.01 Z M 34.18,28.01 H 35.83 C 36.01,28.01 36.15,28.18 36.15,28.38 C 36.15,28.59 36.01,28.76 35.83,28.76 H 34.13 V 30.3 H 34.73 V 29.5 H 35.57 L 36.04,30.3 H 36.84 L 36.27,29.3 C 36.52,29.1 36.68,28.78 36.68,28.4 C 36.68,27.8 36.27,27.3 35.75,27.3 H 34.5 L 34.17,28.01 Z M 30.68,27.3 H 28.46 V 30.3 H 30.19 L 30.64,29.53 H 29 V 29 H 30.11 L 30.51,28.29 H 29 V 28 H 30.19 L 30.68,27.3 Z M 37,27.3 H 39.22 L 38.72,28 H 37.54 V 28.3 H 39.04 L 38.65,29.03 H 37.54 V 29.53 H 39.18 L 38.73,30.3 H 37 V 27.3 Z M 47.22,27.3 H 45 V 30.3 H 46.73 L 47.18,29.53 H 45.54 V 29 H 46.65 L 47.05,28.3 H 45.54 V 28 H 46.73 L 47.22,27.3 Z M 31.42,28.42 V 30.3 H 33.2 C 33.43,30.26 33.9,30.02 33.9,29.38 C 33.9,29.06 33.68,28.78 33.58,28.68 C 33.68,28.63 33.89,28.42 33.89,28.03 C 33.89,27.55 33.56,27.3 33.19,27.3 H 31.83 L 31.42,28.03 H 33.13 C 33.23,28.03 33.3,28.12 33.3,28.23 C 33.3,28.33 33.22,28.42 33.13,28.42 H 31.42 Z M 33.12,29.07 H 32 V 29.48 H 33.12 C 33.22,29.48 33.3,29.38 33.3,29.28 C 33.3,29.16 33.22,29.08 33.12,29.08 Z M 39.02,30.3 H 39.76 L 40.66,28.35 L 41.2,29.54 H 40.39 L 40.07,30.3 H 42.23 L 40.98,27.54 C 40.84,27.22 40.46,27.22 40.31,27.54 L 39.03,30.3 Z M 43,27.3 H 42.36 V 30.3 H 43 V 29.1 L 43.9,30.29 H 44.77 L 43.5,28.73 L 44.7,27.29 H 43.84 L 43,28.47 V 27.3 Z M 48.89,28.01 H 47.29 L 47.68,27.3 H 48.98 C 49.5,27.3 50,27.78 50,28.38 C 50,28.82 49.73,29.2 49.37,29.37 L 50,30.3 H 49.17 L 48.75,29.46 H 48 V 30.3 H 47.3 V 28.8 H 48.89 C 49.08,28.8 49.23,28.62 49.23,28.4 C 49.23,28.19 49.08,28.01 48.89,28.01 Z" fill-rule="evenodd"/>
<path d="M 11.44,28.805 L 11.77,28.16 H 13 V 30 H 11.69 C 11.06,30 10.55,29.43 10.55,28.72 V 28.28 C 10.55,27.58 11.05,27 11.69,27 H 13.09 L 12.66,27.82 H 11.74 C 11.39,27.82 11.11,28.14 11.11,28.54 C 11.11,28.94 11.39,29.25 11.74,29.25 H 12.41 V 28.82 H 11.45 Z M 9.67,27 H 10.3 V 30 H 9.67 V 27 Z M 6.54,27.3 L 6,29.9 H 6.6 L 6.92,28.22 L 7.55,29.81 C 7.59,29.91 7.69,29.99 7.81,29.99 C 7.92,29.99 8.03,29.91 8.07,29.79 L 8.63,28.22 L 8.98,29.9 H 9.55 L 9.07,27.29 A 0.35,0.35 0 0,0 8.73,26.99 A 0.35,0.35 0 0,0 8.41,27.22 L 7.77,28.86 L 7.2,27.23 A 0.35,0.35 0 0,0 6.88,26.99 C 6.71,26.99 6.57,27.11 6.54,27.29 Z M 13.24,27 H 13.82 V 28 H 15 V 27 H 15.56 V 30 H 15 V 28.5 H 13.82 V 30 H 13.25 V 27 Z M 17.7,27.7 H 17 V 30 H 16.43 V 27.7 H 15.58 L 15.98,27 H 18.13 L 17.7,27.7 Z M 19.33,28.97 L 18.28,27 H 19.05 L 19.68,28.26 L 20.35,27 H 21.1 L 20,28.97 V 30 H 19.33 V 28.97 Z M 24.17,27 H 22 V 30 H 22.6 V 29 H 23.67 L 24.03,28.25 H 22.6 V 27.82 H 23.67 L 24.17,27 Z M 24.35,27 H 25 V 30 H 24.35 V 27 Z M 27.08,27.71 H 25.43 L 25.76,27 H 27 C 27.51,27 27.93,27.5 27.93,28.1 C 27.93,28.48 27.77,28.8 27.52,29 L 28.1,30 H 27.3 L 26.82,29.2 H 26 V 30 H 25.38 V 28.46 H 27.08 C 27.26,28.46 27.4,28.29 27.4,28.08 C 27.4,27.88 27.26,27.71 27.08,27.71 Z M 34.18,27.71 H 35.83 C 36.01,27.71 36.15,27.88 36.15,28.08 C 36.15,28.29 36.01,28.46 35.83,28.46 H 34.13 V 30 H 34.73 V 29.2 H 35.57 L 36.04,30 H 36.84 L 36.27,29 C 36.52,28.8 36.68,28.48 36.68,28.1 C 36.68,27.5 36.27,27 35.75,27 H 34.5 L 34.17,27.71 Z M 30.68,27 H 28.46 V 30 H 30.19 L 30.64,29.23 H 29 V 28.71 H 30.11 L 30.51,28 H 29 V 27.7 H 30.19 L 30.68,27 Z M 37,27 H 39.22 L 38.72,27.7 H 37.54 V 28 H 39.04 L 38.65,28.73 H 37.54 V 29.23 H 39.18 L 38.73,30 H 37 V 27 Z M 47.22,27 H 45 V 30 H 46.73 L 47.18,29.23 H 45.54 V 28.7 H 46.65 L 47.05,28 H 45.54 V 27.7 H 46.73 L 47.22,27 Z M 31.42,28.12 V 30 H 33.2 C 33.43,29.96 33.9,29.72 33.9,29.08 C 33.9,28.76 33.68,28.48 33.58,28.38 C 33.68,28.33 33.89,28.12 33.89,27.73 C 33.89,27.25 33.56,27 33.19,27 H 31.83 L 31.42,27.73 H 33.13 C 33.23,27.73 33.3,27.82 33.3,27.93 C 33.3,28.03 33.22,28.12 33.13,28.12 H 31.42 Z M 33.12,28.77 H 32 V 29.18 H 33.12 C 33.22,29.18 33.3,29.08 33.3,28.98 C 33.3,28.86 33.22,28.78 33.12,28.78 Z M 39.02,30 H 39.76 L 40.66,28.05 L 41.2,29.24 H 40.39 L 40.07,30 H 42.23 L 40.98,27.24 C 40.84,26.92 40.46,26.92 40.31,27.24 L 39.03,30 Z M 43,27 H 42.36 V 30 H 43 V 28.8 L 43.9,29.99 H 44.77 L 43.5,28.43 L 44.7,27 H 43.84 L 43,28.17 V 27 Z M 48.89,27.71 H 47.29 L 47.68,27 H 48.98 C 49.5,27 50,27.48 50,28.08 C 50,28.52 49.73,28.9 49.37,29.07 L 50,30 H 49.17 L 48.75,29.16 H 48 V 30 H 47.3 V 28.5 H 48.89 C 49.08,28.5 49.23,28.32 49.23,28.1 C 49.23,27.89 49.08,27.71 48.89,27.71 Z" fill="rgb(254, 254, 253)" fill-rule="evenodd"/>
<defs>
<linearGradient id="j" x1="4" x2="52" y1="28.5" y2="28.5" gradientUnits="userSpaceOnUse">
<stop stop-color="rgb(28, 12, 11)" offset="0"/>
<stop stop-color="rgb(172, 24, 30)" offset=".36"/>
<stop stop-color="rgb(175, 31, 34)" offset=".65"/>
<stop stop-color="rgb(28, 12, 11)" offset="1"/>
</linearGradient>
<linearGradient id="i" x1="21.8" x2="29.22" y1="23.5" y2="35.42" gradientUnits="userSpaceOnUse">
<stop stop-color="rgb(45, 19, 18)" offset="0"/>
<stop stop-color="rgb(243, 78, 67)" offset=".08"/>
<stop stop-color="rgb(245, 158, 152)" offset=".13"/>
<stop stop-color="rgb(237, 68, 57)" offset=".18"/>
<stop stop-color="rgb(70, 23, 21)" offset=".22"/>
<stop stop-color="rgb(58, 18, 17)" offset=".32"/>
<stop stop-color="rgb(231, 20, 13)" offset=".46"/>
<stop stop-color="rgb(251, 213, 210)" offset=".5"/>
<stop stop-color="rgb(211, 29, 38)" offset=".54"/>
<stop stop-color="rgb(49, 18, 17)" offset=".59"/>
<stop stop-color="rgb(57, 22, 21)" offset="1"/>
</linearGradient>
<linearGradient id="h" x1="28.66" x2="28.66" y1="23.06" y2="35.17" gradientUnits="userSpaceOnUse">
<stop stop-color="rgb(43, 95, 90)" offset="0"/>
<stop stop-color="rgb(91, 141, 73)" offset=".56"/>
<stop stop-color="rgb(56, 79, 50)" offset=".66"/>
<stop stop-color="rgb(106, 101, 75)" offset=".91"/>
</linearGradient>
<linearGradient id="g" x1="23.95" x2="22.31" y1="21.37" y2="23.55" gradientUnits="userSpaceOnUse">
<stop stop-color="rgb(254, 254, 253)" offset="0"/>
<stop stop-color="rgb(239, 84, 76)" offset="1"/>
</linearGradient>
<linearGradient id="f" x1="32.06" x2="33.7" y1="21.37" y2="23.55" gradientUnits="userSpaceOnUse">
<stop stop-color="rgb(237, 105, 97)" offset="0"/>
<stop stop-color="rgb(239, 84, 76)" offset="1"/>
</linearGradient>
<linearGradient id="e" x1="24.2" x2="31.88" y1="21.54" y2="21.54" gradientUnits="userSpaceOnUse">
<stop stop-color="rgb(29, 1, 2)" offset="0"/>
<stop stop-color="rgb(244, 208, 206)" offset=".3"/>
<stop stop-color="rgb(247, 165, 159)" offset=".49"/>
<stop stop-color="rgb(247, 167, 161)" offset="1"/>
</linearGradient>
<linearGradient id="d" x1="22.78" x2="30.85" y1="30.61" y2="23.37" gradientUnits="userSpaceOnUse">
<stop stop-color="rgb(179, 33, 35)" offset="0"/>
<stop stop-color="rgb(124, 19, 21)" offset=".27"/>
<stop stop-color="rgb(167, 30, 33)" offset=".51"/>
<stop stop-color="rgb(164, 29, 32)" offset="1"/>
</linearGradient>
<linearGradient id="c" x1="23.58" x2="32.35" y1="31.65" y2="23.45" gradientUnits="userSpaceOnUse">
<stop stop-color="rgb(202, 32, 38)" offset="0"/>
<stop stop-color="rgb(249, 157, 23)" offset=".44"/>
<stop stop-color="rgb(183, 33, 38)" offset="1"/>
</linearGradient>
<linearGradient id="b" x1="21.77" x2="32.37" y1="23.3" y2="33.73" gradientUnits="userSpaceOnUse">
<stop stop-color="rgb(253, 239, 237)" offset=".05"/>
<stop stop-color="rgb(222, 15, 23)" offset=".23"/>
<stop stop-color="rgb(239, 61, 63)" offset=".48"/>
<stop stop-color="rgb(254, 246, 244)" offset=".59"/>
<stop stop-color="rgb(222, 31, 38)" offset=".64"/>
<stop stop-color="rgb(223, 32, 38)" offset="1"/>
</linearGradient>
<linearGradient id="a" x1="29.69" x2="29.69" y1="21.07" y2="25.36" gradientUnits="userSpaceOnUse">
<stop stop-color="rgb(209, 157, 73)" offset="0"/>
<stop stop-color="rgb(195, 33, 36)" offset=".84"/>
</linearGradient>
</defs>
</svg>
