<?xml version="1.0" encoding="UTF-8"?>
<!-- generated by Finnhub -->
<svg fill="none" viewBox="0 0 55.5 55.5" xmlns="http://www.w3.org/2000/svg">
<path d="M 0,0 H 55.5 V 55.5 H 0 Z" fill="rgb(239, 242, 248)"/>
<path d="M 37.99,43.985 V 41.195 L 31.403,46 L 38,44 Z" fill="url(#o)"/>
<path d="M 29.99,29.201 V 22.062 L 25.5,25.195 L 30,29.215 Z" fill="url(#i)"/>
<path d="M 29.99,37.429 V 30.291 L 25.5,33.423 L 30,37.444 Z" fill="url(#h)"/>
<path d="M 29.99,45.19 V 37.818 L 25.5,41.185 L 30,45.205 Z" fill="url(#g)"/>
<path d="M 24.99,24.712 V 17.48 L 29.5,21.688 L 25,24.728 Z" fill="url(#f)"/>
<path d="M 24.99,32.847 V 25.616 L 29.5,29.823 L 25,32.863 Z" fill="url(#e)"/>
<path d="M 24.99,40.608 V 33.844 L 29.1,37.584 L 25,40.624 Z" fill="url(#d)"/>
<path d="M 29.99,13.491999999999999 L 25,16.545 L 30,21.221 V 13.507 Z" fill="url(#c)"/>
<path d="M 30.99,29.387 V 22.39 L 37.767,24.493 L 31,29.403 Z" fill="url(#b)"/>
<path d="M 30.99,45.565 V 38.426 L 37.533,40.67 L 31,45.58 Z" fill="url(#a)"/>
<path d="M 37.99,31.959 V 25.194 L 31.233,30.104 L 38,31.974 Z" fill="url(#n)"/>
<path d="M 37.99,40.187 V 33.423 L 31.7,38.005 L 38,40.202 Z" fill="url(#m)"/>
<path d="M 37.99,23.918 V 17.387 L 31.467,21.922 L 38,23.932 Z" fill="url(#l)"/>
<path d="M 30.99,13.725 L 38,16.545 L 31,21.455 V 13.74 Z" fill="url(#k)"/>
<path d="M 30.99,37.71 V 30.665 L 38,32.582 L 31,37.725 Z" fill="url(#j)"/>
<path d="M 29.467,45.978 L 26.232,43.042 C 19.094,41.112 14,34.866 14,27.5 C 14,18.592 21.51,11.403 30.935,11.403 C 35.092,11.403 38.902,12.808 41.863,15.143 H 42.597 A 17.942,17.942 0 0,0 30,10 C 20.059,10 12,18.059 12,28 C 12,37.766 19.778,45.716 29.477,45.993 Z" fill="rgb(1, 69, 140)"/>
<defs>
<linearGradient id="o" x1="38" x2="31.636" y1="42" y2="45.766" gradientUnits="userSpaceOnUse">
<stop stop-color="rgb(45, 97, 161)" offset="0"/>
<stop stop-color="rgb(73, 133, 191)" offset=".401"/>
<stop stop-color="rgb(0, 70, 141)" offset="1"/>
</linearGradient>
<linearGradient id="i" x1="28" x2="29.324" y1="23.558" y2="28.515" gradientUnits="userSpaceOnUse">
<stop stop-color="rgb(1, 69, 140)" offset="0"/>
<stop stop-color="rgb(86, 162, 214)" offset="1"/>
</linearGradient>
<linearGradient id="h" x1="28" x2="29.324" y1="31.787" y2="36.743" gradientUnits="userSpaceOnUse">
<stop stop-color="rgb(1, 69, 140)" offset="0"/>
<stop stop-color="rgb(86, 162, 214)" offset="1"/>
</linearGradient>
<linearGradient id="g" x1="28" x2="29.406" y1="39.363" y2="44.459" gradientUnits="userSpaceOnUse">
<stop stop-color="rgb(1, 69, 140)" offset="0"/>
<stop stop-color="rgb(86, 162, 214)" offset="1"/>
</linearGradient>
<linearGradient id="f" x1="25.25" x2="25.681" y1="18.182" y2="24.522" gradientUnits="userSpaceOnUse">
<stop stop-color="rgb(1, 69, 140)" offset="0"/>
<stop stop-color="rgb(62, 117, 178)" offset=".567"/>
<stop stop-color="rgb(19, 80, 148)" offset="1"/>
</linearGradient>
<linearGradient id="e" x1="25.25" x2="25.681" y1="26.317" y2="32.657" gradientUnits="userSpaceOnUse">
<stop stop-color="rgb(1, 69, 140)" offset="0"/>
<stop stop-color="rgb(62, 117, 178)" offset=".567"/>
<stop stop-color="rgb(19, 80, 148)" offset="1"/>
</linearGradient>
<linearGradient id="d" x1="25.228" x2="25.642" y1="34.5" y2="40.43" gradientUnits="userSpaceOnUse">
<stop stop-color="rgb(1, 69, 140)" offset="0"/>
<stop stop-color="rgb(62, 117, 178)" offset=".567"/>
<stop stop-color="rgb(19, 80, 148)" offset="1"/>
</linearGradient>
<linearGradient id="c" x1="27.25" x2="29.474" y1="15.143" y2="21.09" gradientUnits="userSpaceOnUse">
<stop stop-color="rgb(1, 69, 140)" offset="0"/>
<stop stop-color="rgb(81, 148, 202)" offset="1"/>
</linearGradient>
<linearGradient id="b" x1="34.158" x2="31.277" y1="23.665" y2="29.124" gradientUnits="userSpaceOnUse">
<stop stop-color="rgb(1, 69, 140)" offset="0"/>
<stop stop-color="rgb(46, 99, 163)" offset=".511"/>
<stop stop-color="rgb(1, 69, 140)" offset="1"/>
</linearGradient>
<linearGradient id="a" x1="34.049" x2="31.021" y1="39.727" y2="45.158" gradientUnits="userSpaceOnUse">
<stop stop-color="rgb(1, 69, 140)" offset="0"/>
<stop stop-color="rgb(46, 99, 163)" offset=".511"/>
<stop stop-color="rgb(1, 69, 140)" offset="1"/>
</linearGradient>
<linearGradient id="n" x1="31.475" x2="34.383" y1="25.776" y2="30.129" gradientUnits="userSpaceOnUse">
<stop stop-color="rgb(0, 70, 141)" offset="0"/>
<stop stop-color="rgb(64, 120, 180)" offset="1"/>
</linearGradient>
<linearGradient id="m" x1="31.925" x2="34.907" y1="34.004" y2="38.16" gradientUnits="userSpaceOnUse">
<stop stop-color="rgb(0, 70, 141)" offset="0"/>
<stop stop-color="rgb(64, 120, 180)" offset="1"/>
</linearGradient>
<linearGradient id="l" x1="37.767" x2="34.959" y1="17.948" y2="22.151" gradientUnits="userSpaceOnUse">
<stop stop-color="rgb(0, 70, 141)" offset="0"/>
<stop stop-color="rgb(64, 120, 180)" offset="1"/>
</linearGradient>
<linearGradient id="k" x1="34.267" x2="30.991" y1="15.143" y2="20.982" gradientUnits="userSpaceOnUse">
<stop stop-color="rgb(1, 69, 140)" offset="0"/>
<stop stop-color="rgb(46, 99, 163)" offset=".511"/>
<stop stop-color="rgb(1, 69, 140)" offset="1"/>
</linearGradient>
<linearGradient id="j" x1="34.267" x2="31.412" y1="31.949" y2="37.508" gradientUnits="userSpaceOnUse">
<stop stop-color="rgb(1, 69, 140)" offset="0"/>
<stop stop-color="rgb(46, 99, 163)" offset=".511"/>
<stop stop-color="rgb(1, 69, 140)" offset="1"/>
</linearGradient>
</defs>
</svg>
