<?xml version="1.0" encoding="UTF-8"?>
<!-- generated by Finnhub -->
<svg viewBox="0 0 55.5 55.5" xmlns="http://www.w3.org/2000/svg">
<rect width="56" height="56" fill="rgb(239, 242, 248)"/>
<path d="M 6.0994,28.985 L 6.99852,29.001 C 7.05545,29.001 7.10975,28.9639 7.13179,28.91 C 7.2573,28.5968 7.31712,28.4164 7.3426,28.0789 C 7.3457,28.0388 7.32768,28.0019 7.28854,28 H 6.56997 C 6.48299,27.9968 6.44819,27.9415 6.46559,27.8541 L 6.69489,27.0746 C 6.70297,27.0351 6.72658,27 6.76572,27 H 9.53542 C 9.58111,26.9997 9.62252,27.0656 9.61109,27.111 L 8.92608,29.867 C 8.91661,29.9055 8.89468,29.9397 8.86388,29.9639 C 8.83307,29.988 8.79521,30.0007 8.75645,30 H 5.11425 C 4.00145,30.0115 3.85695,29.3167 4.10215,28.3741 C 4.32458,27.5161 4.50135,26.8083 4.63245,26.2507 C 4.80301,25.5282 5.28112,25.0019 6.01925,25 H 9.90105 C 9.91344,24.9998 9.92573,25.0024 9.93702,25.0077 C 9.9483,25.0129 9.95832,25.0206 9.96634,25.0302 S 9.98019,25.0511 9.9834,25.0632 C 9.98662,25.0754 9.98714,25.0881 9.98493,25.1005 C 9.95014,25.3021 9.91224,25.5081 9.87123,25.7187 C 9.82183,25.9703 9.71652,26.0029 9.5003,26 H 6.9467 C 6.90218,26.0006 6.85887,26.015 6.82244,26.0413 C 6.78602,26.0676 6.75819,26.1045 6.7426,26.1474 C 6.61305,26.5062 6.54213,26.8689 6.43495,27.2172 C 6.26843,27.755 6.12971,28.3014 6.0303,28.9043 C 6.02272,28.9515 6.06295,29.0001 6.10952,29 Z" fill="rgb(24, 101, 169)"/>
<path d="M 12.290000000000001,25.072 L 12.0819,25.9529 C 12.0786,25.9663 12.0707,25.9782 12.0595,25.9868 C 12.0484,25.9953 12.0346,26 12.0204,26 H 10.3223 C 10.3126,26 10.3031,25.9979 10.2944,25.9938 C 10.2857,25.9896 10.278,25.9836 10.2721,25.9762 C 10.2662,25.9687 10.2621,25.9601 10.2601,25.9509 S 10.2584,25.9321 10.2608,25.923 L 10.4901,25.0471 C 10.4934,25.0337 10.5013,25.0218 10.5124,25.0132 C 10.5236,25.0047 10.5374,25 10.5516,25 L 12.2394,25.01 C 12.249,25.0101 12.2585,25.0123 12.2671,25.0165 S 12.2832,25.0267 12.289,25.0341 C 12.2948,25.0416 12.2988,25.0502 12.3008,25.0593 C 12.3027,25.0685 12.3024,25.0779 12.3,25.087 Z" fill="rgb(24, 101, 169)"/>
<path d="M 41.796,24.985 H 43.4827 C 43.493,25.0001 43.5031,25.0024 43.5123,25.0069 C 43.5216,25.0114 43.5296,25.0179 43.5359,25.0259 C 43.5422,25.0338 43.5465,25.0431 43.5486,25.0529 C 43.5507,25.0628 43.5505,25.0729 43.5479,25.0827 L 43.3158,25.95 C 43.3122,25.9641 43.3037,25.9767 43.2919,25.9858 C 43.2801,25.9948 43.2656,25.9998 43.2506,26 H 41.5525 C 41.542,25.9999 41.5316,25.9975 41.5223,25.9929 C 41.5129,25.9883 41.5047,25.9817 41.4984,25.9735 C 41.492,25.9653 41.4877,25.9558 41.4858,25.9457 C 41.4839,25.9357 41.4844,25.9253 41.4873,25.9154 L 41.7408,25.0481 C 41.7448,25.0343 41.7534,25.0221 41.7651,25.0134 C 41.7769,25.0047 41.7913,25 41.806,25 Z" fill="rgb(24, 101, 169)"/>
<path d="M 25.557,27.026 C 25.4561,27.7254 25.2008,28.434 25.1365,29.1174 C 25.1352,29.1307 25.1366,29.1442 25.1406,29.1568 C 25.1446,29.1695 25.1511,29.1812 25.1597,29.1911 C 25.1684,29.201 25.1789,29.2089 25.1906,29.2143 C 25.2024,29.2196 25.215,29.2224 25.2279,29.2223 H 26.4758 C 26.4921,29.2223 26.5082,29.2265 26.5225,29.2345 C 26.5369,29.2424 26.5492,29.254 26.5582,29.268 C 26.5673,29.282 26.5728,29.2982 26.5744,29.3149 C 26.5759,29.3317 26.5734,29.3486 26.5671,29.364 L 26.3472,29.9097 C 26.3317,29.9472 26.2855,29.9951 26.2464,29.999 H 24.6929 C 24.2294,30.0042 23.9209,29.9789 23.7674,29.9233 C 23.157,29.7019 23.1635,29.0864 23.2903,28.5116 C 23.5055,27.5359 23.7712,26.5796 23.9576,25.6 C 23.9619,25.5766 23.974,25.5556 23.9917,25.5405 S 24.0316,25.5173 24.0545,25.5175 H 25.8532 C 25.8642,25.5177 25.9058,25.5428 25.9156,25.548 S 25.934,25.5606 25.9405,25.5697 C 25.9471,25.5788 25.9516,25.5894 25.9536,25.6005 S 25.955,25.6231 25.952,25.634 L 25.8746,25.9565 C 25.8645,25.9992 25.8923,26 25.9156,25.9997 H 27.1048 C 27.1751,25.9997 27.2015,26.0403 27.1841,26.1109 L 26.9734,26.8778 C 26.9651,26.912 26.9461,26.9423 26.9194,26.9639 C 26.8928,26.9855 26.8599,26.9973 26.8261,26.9973 H 25.6173 C 25.5887,26.9973 25.572,27.0118 25.567,27.041 Z" fill="rgb(24, 101, 169)"/>
<path d="M 11.932,26.163 C 11.9574,26.1779 11.9727,26.1817 11.9863,26.1891 C 12,26.1966 12.0118,26.2075 12.0205,26.2208 S 12.0347,26.2495 12.0365,26.2656 C 12.0382,26.2817 12.0362,26.298 12.0306,26.313 C 11.7798,26.9948 11.6829,27.6882 11.4853,28.3935 C 11.3325,28.9402 11.2458,29.3373 11.1629,29.8244 C 11.1545,29.8738 11.13,29.9185 11.0935,29.9507 S 11.011,30.0005 10.9634,30.0005 H 9.3939 C 9.38046,30.0004 9.36721,29.9972 9.35514,29.991 C 9.34307,29.9849 9.3325,29.9759 9.32424,29.9649 S 9.31024,29.941 9.30745,29.9274 C 9.30466,29.9137 9.3049,29.8996 9.30816,29.886 L 10.1684,26.3228 C 10.1777,26.2844 10.1989,26.2503 10.2288,26.2259 S 10.2954,26.1881 10.3334,26.1878 L 11.942,26.178 Z" fill="rgb(24, 101, 169)"/>
<path d="M 41.401,26.28 C 41.4185,26.2638 41.4358,26.236 41.4602,26.2163 C 41.4845,26.1966 41.5144,26.1861 41.5452,26.1864 H 42.9837 C 43.2153,26.1864 43.2824,26.1874 43.2153,26.4272 C 43.0401,27.0509 42.8835,27.6779 42.7456,28.3082 C 42.6235,28.866 42.4725,29.3955 42.343,29.9425 C 42.3336,29.981 42.31,30.0003 42.2721,30.0003 L 40.6784,29.9954 C 40.6602,29.9953 40.6422,29.991 40.6258,29.9826 C 40.6094,29.9741 40.5951,29.9619 40.5839,29.9469 C 40.5727,29.9318 40.5648,29.9142 40.561,29.8955 S 40.5575,29.8574 40.5619,29.8388 L 41.411,26.295 Z" fill="rgb(24, 101, 169)"/>
<path d="M 14.290000000000001,29.674 C 14.2106,29.7082 14.1341,29.7456 14.0428,29.7485 C 12.8005,29.783 11.1415,30.0334 11.6653,28.2098 C 11.8135,27.6956 11.9337,26.9071 12.2571,26.5301 C 12.8219,25.8749 13.7502,25.9986 14.5871,26.0293 C 14.8269,26.0383 15.0059,26.1112 15.1239,26.2481 C 15.1513,26.28 15.1702,26.2756 15.1808,26.2346 C 15.2218,26.0754 15.2805,26.0008 15.451,25.9999 H 17.0634 C 17.0782,25.9999 17.0929,26.0157 17.1061,26.0225 C 17.1194,26.0293 17.131,26.0392 17.14,26.0513 S 17.1552,26.0776 17.1581,26.0925 C 17.161,26.1075 17.1604,26.123 17.1566,26.1377 C 16.8136,27.4066 16.5008,28.6626 16.2181,29.9058 C 16.0764,30.5303 15.8602,30.9965 15.1565,30.9984 C 13.8909,31.0003 12.6168,31.0003 11.3344,30.9984 C 11.3316,30.9985 11.3288,30.9979 11.3262,30.9967 C 11.3237,30.9955 11.3214,30.9937 11.3195,30.9915 C 11.3176,30.9894 11.3163,30.9868 11.3155,30.984 S 11.3145,30.9783 11.3149,30.9754 L 11.3829,30.4113 C 11.3858,30.3892 11.3963,30.3689 11.4126,30.3541 C 11.4288,30.3393 11.4497,30.331 11.4714,30.3308 L 13.9915,30.3212 C 14.0319,30.3205 14.0655,30.3045 14.0922,30.2732 C 14.2233,30.1197 14.3062,29.9387 14.341,29.7303 C 14.3473,29.6951 14.3336,29.6813 14.3,29.689 Z M 14.8443,26.8908 C 14.5237,26.8409 13.9599,26.7584 13.8778,27.2332 C 13.7822,27.7858 13.6517,28.3239 13.4864,28.8477 C 13.4683,28.9053 13.5121,28.9963 13.5768,28.9999 H 14.3821 C 14.4175,28.9941 14.4715,28.9145 14.4883,28.8813 C 14.7334,28.3911 14.8574,27.6409 14.9888,27.1143 C 14.9949,27.0899 14.9959,27.0644 14.9918,27.0395 S 14.9786,26.9908 14.965,26.9698 C 14.9514,26.9487 14.9336,26.9308 14.9128,26.9172 S 14.8687,26.8946 14.8443,26.8908 Z" fill="rgb(24, 101, 169)"/>
<path d="M 17.311,26.924 C 17.3667,26.6993 17.5029,26.2414 17.6268,26.0447 C 17.6436,26.0188 17.6663,26.0003 17.6949,25.9997 H 20.2625 C 21.2094,26.0079 22.0706,26.1461 21.831,27.4605 C 21.7571,27.8648 21.5645,28.6928 21.2532,29.9446 C 21.2458,29.976 21.2271,29.999 21.1973,29.9997 H 17.8449 C 17.3006,29.9915 16.6212,29.7316 16.6799,29.0104 C 16.7396,28.2912 16.9362,27.3416 17.7778,27.3365 C 18.4805,27.3331 19.2401,27.3324 19.9428,27.3345 C 19.9807,27.3345 19.999,27.3136 19.9978,27.272 L 19.9997,27.0693 C 19.9985,27.0229 19.9683,26.9997 19.926,26.9997 H 17.362 C 17.3279,26.9997 17.3142,26.9752 17.321,26.939 Z M 19.6558,28.1581 C 19.0407,28.1017 18.6884,28.0884 18.5616,28.8649 C 18.551,28.9318 18.5646,29.0006 18.5996,29.0566 C 18.6347,29.1125 18.6883,29.1511 18.7489,29.164 C 19.0143,29.2207 19.2547,29.1736 19.4703,29.0227 C 19.4995,29.0022 19.5194,28.9742 19.53,28.9387 L 19.7285,28.28 C 19.7508,28.2055 19.7266,28.1649 19.6558,28.1581 Z" fill="rgb(24, 101, 169)"/>
<path d="M 29.316,26.262999999999998 L 29.6112,26.0909 C 29.6379,26.0732 29.6665,26.0622 29.6969,26.0582 C 30.1231,25.9989 30.5509,25.9849 30.9803,26.0162 C 30.9956,26.0173 31.0099,26.0247 31.0203,26.0369 C 31.0308,26.0491 31.0364,26.0651 31.0362,26.0817 C 31.03,26.462 30.9601,26.828 30.8265,27.1796 C 30.8147,27.2103 30.7936,27.2256 30.7631,27.2256 C 30.3338,27.2222 29.9072,27.2297 29.4835,27.2481 C 29.2486,27.2573 29.0687,27.4025 29.0231,27.6427 C 28.8733,28.4272 28.6953,29.1963 28.489,29.9501 C 28.485,29.9647 28.4767,29.9775 28.4655,29.9866 C 28.4542,29.9956 28.4406,30.0004 28.4266,30.0002 H 26.7397 C 26.7266,29.9998 26.7138,29.9738 26.7022,29.9673 S 26.6805,29.9515 26.6726,29.9401 S 26.6593,29.9155 26.6567,29.9014 C 26.6541,29.8874 26.6544,29.8729 26.6577,29.8591 L 27.5207,26.1706 C 27.5316,26.1239 27.5564,26.0824 27.5912,26.0528 S 27.6687,26.0002 27.7127,26.0002 H 29.2095 C 29.2222,26.0002 29.2344,26.0125 29.2434,26.0222 C 29.2525,26.032 29.2577,26.0453 29.2579,26.0592 L 29.2645,26.2411 C 29.2657,26.2916 29.2862,26.3039 29.326,26.278 Z" fill="rgb(24, 101, 169)"/>
<path d="M 31.130999999999997,26.546 C 31.4253,26.1176 31.7776,26.0041 32.2911,26 H 34.8923 C 35.4207,26.0143 35.9855,26.5508 35.8569,27.1826 C 35.7469,27.724 35.6317,28.2643 35.5111,28.8036 C 35.3136,29.6864 34.7777,29.9826 33.978,30 H 31.5409 C 30.1615,29.957 30.5511,28.5159 30.8307,27.6301 C 30.9388,27.2901 30.9248,26.8969 31.141,26.561 Z M 32.9021,27.0297 L 32.4457,28.8652 C 32.4308,28.9287 32.4532,28.9945 32.5128,29 C 32.6638,29.0133 33.5069,29 33.5408,28.8764 C 33.716,28.2388 33.8574,27.7629 33.9748,27.1505 C 33.9783,27.1325 33.978,27.1138 33.9741,27.0959 S 33.9627,27.0613 33.9522,27.047 C 33.9416,27.0327 33.9283,27.0211 33.9132,27.0132 C 33.8981,27.0052 33.8816,27.001 33.8648,27.001 L 32.9375,27 C 32.9182,27 32.9064,27.0099 32.9021,27.0297 Z" fill="rgb(24, 101, 169)"/>
<path d="M 38.190000000000005,26.153 C 38.2596,25.9569 39.9046,25.9997 39.9046,25.9997 C 40.9009,26.1507 40.8953,27.0431 40.7126,27.9457 C 40.5803,28.5984 40.4265,29.2263 40.2513,29.8294 C 40.219,29.9402 40.1497,29.9956 40.0435,29.9956 L 38.4842,29.9997 C 38.4723,29.9999 38.4604,29.9972 38.4495,29.9918 S 38.4289,29.9785 38.4211,29.9686 S 38.4075,29.947 38.4043,29.9344 C 38.401,29.9218 38.4003,29.9086 38.4022,29.8957 C 38.5392,28.9543 38.8291,28.0395 39.0024,27.1196 C 39.0064,27.0984 39.006,27.0765 39.0015,27.0555 C 38.9969,27.0344 38.9882,27.0147 38.9759,26.9977 C 38.9637,26.9807 38.9482,26.9669 38.9306,26.9571 C 38.9129,26.9473 38.8936,26.9419 38.8738,26.9411 C 38.5066,26.9268 38.0313,26.8493 37.9204,27.3705 C 37.7358,28.238 37.5293,29.0995 37.3006,29.9548 C 37.2974,29.9675 37.2904,29.9786 37.2808,29.9866 C 37.2712,29.9945 37.2595,29.9987 37.2475,29.9987 H 35.5932 C 35.5565,29.9987 35.5298,29.981 35.513,29.9457 C 35.4764,29.8716 35.473,29.7784 35.5028,29.6662 C 35.7675,28.6661 36.0548,27.468 36.3649,26.0722 C 36.373,26.0382 36.3932,26.0208 36.4255,26.0202 C 36.5373,26.0202 37.9437,25.9151 38.1478,26.1793 C 38.172,26.2099 38.1894,26.2061 38.2,26.168 Z" fill="rgb(24, 101, 169)"/>
<path d="M 43.064,27.992 C 43.2958,27.0461 43.4067,26.0156 44.5633,26.0044 L 47.3928,25.9999 C 47.4264,26.0006 47.4422,26.0371 47.4403,26.074 L 47.3928,26.9279 C 47.391,26.975 47.3686,26.9985 47.3257,26.9985 H 45.486 C 45.4416,26.9985 45.3982,27.0134 45.3618,27.0412 C 45.3253,27.069 45.2974,27.1084 45.2819,27.154 C 45.0998,27.6909 45.0073,28.0513 44.9005,28.6516 C 44.8576,28.8982 44.9443,28.9794 45.1624,28.9999 H 46.8735 L 46.5876,29.8653 C 46.5571,29.9506 46.5006,29.9992 46.4179,29.9999 L 44.0078,29.9963 C 43.4797,29.9928 43.1355,29.7694 42.9752,29.326 C 42.8298,28.9228 42.977,28.4286 43.074,28.007 Z" fill="rgb(24, 101, 169)"/>
<path d="M 51.99,25.985 V 26.3937 L 51.8636,26.9472 C 51.8604,26.9617 51.8529,26.9746 51.8423,26.9839 C 51.8316,26.9932 51.8184,26.9983 51.8048,26.9983 C 51.3505,27.0002 49.4935,26.9021 49.2763,27.1007 C 49.2678,27.1085 49.2617,27.1189 49.2588,27.1307 C 49.256,27.1424 49.2565,27.1549 49.2604,27.1664 C 49.2642,27.1779 49.2712,27.1879 49.2804,27.195 S 49.3005,27.206 49.3118,27.2062 C 49.8141,27.2072 50.9017,27.0905 51.3109,27.3014 C 51.885,27.5962 51.6962,28.4595 51.547,29.0062 C 51.3793,29.6164 50.9823,29.9929 50.3895,30 H 47.0502 C 47.0341,29.9998 47.0183,29.9897 47.004,29.9818 S 46.9772,29.9625 46.9675,29.9485 C 46.9578,29.9344 46.9511,29.9182 46.948,29.9009 S 46.9454,29.8658 46.9495,29.8487 L 47.176,29.0974 C 47.1818,29.0727 47.2276,29.0004 47.2543,29 L 49.6327,28.995 C 49.6465,28.9948 49.6599,28.9902 49.6716,28.9819 S 49.6927,28.9618 49.6989,28.948 L 49.7306,28.8445 C 49.7467,28.8076 49.7362,28.7885 49.6989,28.7871 C 49.1534,28.7673 48.6078,28.7578 48.0623,28.7585 C 47.5025,28.7592 47.2648,28.4497 47.3493,27.83 C 47.5581,26.3056 48.2208,26.0088 49.5069,26.0016 L 52,26 Z" fill="rgb(24, 101, 169)"/>
<path d="M 22.176,27.319 H 23.212 C 23.2265,27.3342 23.2447,27.3465 23.2575,27.3524 C 23.2704,27.3584 23.2815,27.367 23.29,27.3775 C 23.2984,27.388 23.3039,27.4001 23.3061,27.4129 S 23.3071,27.4387 23.3025,27.451 L 23.1161,27.9445 C 23.1099,27.9608 23.0981,27.9749 23.0824,27.9849 C 23.0667,27.9948 23.0478,28.0002 23.0285,28.0001 H 22.0779 C 22.0642,28.0002 22.0507,27.9976 22.0383,27.9925 C 22.0259,27.9873 22.0149,27.9798 22.0061,27.9705 C 21.9974,27.9611 21.9911,27.9501 21.9877,27.9383 S 21.9839,27.9142 21.9866,27.9022 L 22.0947,27.4004 C 22.0988,27.3816 22.1102,27.3647 22.1269,27.3525 C 22.1436,27.3404 22.1645,27.3339 22.186,27.334 Z" fill="rgb(24, 101, 169)"/>
</svg>
