<?xml version="1.0" encoding="UTF-8"?>
<!-- generated by Finnhub -->
<svg viewBox="0 0 55.5 55.5" xmlns="http://www.w3.org/2000/svg">
<path d="M 0,0 H 55.5 V 55.5 H 0 Z" fill="rgb(239, 242, 248)"/>
<path d="M 25.99,25.915 C 26,26.53 25.52,27 24.93,27 H 11.53 A 0.54,0.54 0 0,1 11.15,26.09 L 16.23,21 H 25 C 25.75,21 25.98,20.47 26,20.14 V 20 C 26.01,20.04 26.01,20.1 26,20.14 V 25.93 Z M 7.16,31.52 A 0.54,0.54 0 0,1 7.16,30.76 L 9.77,28 H 25.07 C 25.61,28 25.91,27.74 26,27.54 V 33.34 C 26,33.79 25.64,34 25.2,34 H 9.77 L 7.16,31.52 Z" fill="rgb(231, 51, 52)"/>
<path d="M 25.22,34.985 H 11.53 C 11.06,35 10.83,35.64 11.16,35.99 L 16.24,41 H 25.2 C 25.64,41 26,40.93 26,40.47 V 34.3 C 26,34.75 25.49,34.94 25.23,34.99 Z" fill="rgb(7, 61, 109)"/>
<path d="M 26.919999999999998,37.985 C 26.25,38 26.03,38.6 26,38.92 V 32 H 35.48 C 35.94,32 36.18,32.58 35.85,32.91 L 30.97,38 H 26.93 Z" fill="url(#c)"/>
<path d="M 25.99,19.064999999999998 V 24 H 43.55 L 48.92,18.46 C 49.09,18.29 48.97,18 48.74,18 H 27.04 C 26.47,18 26,18.48 26,19.08 Z" fill="url(#b)"/>
<path d="M 25.99,24.985 V 31 H 37.25 L 42.65,25.46 C 42.82,25.29 42.7,25 42.47,25 H 26 Z" fill="url(#a)"/>
<defs>
<linearGradient id="c" x1="26" x2="35.31" y1="34.23" y2="34.23" gradientUnits="userSpaceOnUse">
<stop stop-color="rgb(12, 43, 75)" offset="0"/>
<stop stop-color="rgb(6, 61, 105)" offset="1"/>
</linearGradient>
<linearGradient id="b" x1="26.98" x2="37.16" y1="21" y2="21" gradientUnits="userSpaceOnUse">
<stop stop-color="rgb(174, 35, 29)" offset="0"/>
<stop stop-color="rgb(216, 48, 42)" offset="1"/>
</linearGradient>
<linearGradient id="a" x1="26.99" x2="37.22" y1="28" y2="28" gradientUnits="userSpaceOnUse">
<stop stop-color="rgb(174, 35, 29)" offset="0"/>
<stop stop-color="rgb(216, 48, 42)" offset="1"/>
</linearGradient>
</defs>
</svg>
