<?xml version="1.0" encoding="UTF-8"?>
<!-- generated by Finnhub -->
<svg viewBox="0 0 55.5 55.5" xmlns="http://www.w3.org/2000/svg">
<path d="M 0,0 H 55.5 V 55.5 H 0 Z" fill="rgb(239, 242, 248)"/>
<path d="M 27.99,35.985 C 30.24,36 32.27,35.08 33.72,33.6 C 34.7,33.83 35.82,34.6 35.5,36.5 C 35.21,38.24 34.2,40.43 33.35,42.02 A 15,15 0 0,1 14.58,34.72 L 22.06,33.35 A 7.98,7.98 0 0,0 28,36 Z M 37,36.5 C 37,35.26 36.32,33.34 34.67,32.42 V 32.41 C 33.05,31.53 30.3,31 27,31 C 22.93,31 15.98,33.1 11.02,34.6 L 8,35.5 V 34.5 C 14.17,31.83 28,26.5 37,26.5 H 37.5 C 39.46,26.5 41.53,27.32 43,28.1 A 15,15 0 0,1 35.35,41.08 C 36.19,39.5 37,37.77 37,36.5 Z M 28,20 C 30.55,20 32.82,21.2 34.29,23.05 A 13.17,13.17 0 0,1 42.19,23.14 A 15,15 0 0,0 13.31,31.06 L 20.04,28.82 A 8,8 0 0,1 28,20 Z" fill="rgb(14, 71, 141)"/>
</svg>
