<?xml version="1.0" encoding="UTF-8"?>
<!-- generated by Finnhub -->
<svg viewBox="0 0 55.5 55.5" xmlns="http://www.w3.org/2000/svg">
<path d="M 0,0 H 55.5 V 55.5 H 0 Z" fill="rgb(239, 242, 248)"/>
<path d="M 38.43,13.995 C 38.54,14.15 38.54,14.28 38.48,14.41 A 0.25,0.25 0 0,1 38.18,14.55 C 37.89,14.48 37.63,14.39 37.39,14.26 A 20.73,20.73 0 0,0 30.23,11.9 C 29.36,11.75 28.69,11.67 28.22,11.66 A 50.2,50.2 0 0,0 25.71,11.64 C 23.17,11.69 20.71,12.27 18.29,13.39 A 20.5,20.5 0 0,0 14.68,15.5 C 14.01,16 13.34,16.5 12.66,17.04 C 12.53,17.15 12.36,17.34 12.18,17.59 C 12.05,17.79 11.98,17.76 12,17.53 A 0.54,0.54 0 0,1 12.16,17.17 A 21.36,21.36 0 0,1 19.81,12.17 C 21.27,11.63 22.75,11.27 24.25,11.11 C 25.81,10.94 27.35,10.97 28.88,11.21 A 28.01,28.01 0 0,1 36.33,13.31 L 37.71,13.87 C 37.93,13.96 38.16,13.99 38.38,13.98 C 38.41,13.98 38.43,13.99 38.44,14.01 Z" fill="rgb(149, 192, 86)"/>
<path d="M 28.86,18.305 L 28.34,18.12 C 28.21,17.8 27.96,17.53 27.61,17.32 C 27.58,17.32 27.57,17.29 27.57,17.25 C 27.57,17.22 27.59,17.2 27.62,17.19 C 27.91,17.09 28.02,16.89 27.99,16.59 C 27.97,16.49 27.92,16.43 27.82,16.41 A 0.59,0.59 0 0,0 27.19,16.7 A 0.1,0.1 0 0,1 27.12,16.74 A 0.1,0.1 0 0,1 27.03,16.72 A 1,1 0 0,0 26.59,16.45 C 26.4,16.41 26.26,16.47 26.15,16.65 A 0.22,0.22 0 0,1 25.99,16.76 A 0.22,0.22 0 0,1 25.81,16.71 A 0.46,0.46 0 0,0 25.54,16.6 C 25.48,16.6 25.41,16.6 25.3,16.63 C 25.15,16.67 25.03,16.66 24.94,16.61 C 24.87,16.57 24.87,16.54 24.94,16.51 A 0.63,0.63 0 0,1 25.3,16.46 C 25.34,16.46 25.37,16.46 25.4,16.43 A 0.08,0.08 0 0,0 25.4,16.33 C 25.3,16.13 25.17,15.96 25,15.83 A 1.01,1.01 0 0,0 24.43,15.56 A 0.5,0.5 0 0,1 24.01,15.31 C 23.9,15.12 23.74,15.06 23.53,15.11 L 23.37,15.16 C 23.17,15.22 23.13,15.33 23.24,15.5 C 23.52,15.91 23.81,16.26 24.11,16.54 C 24.19,16.61 24.18,16.66 24.07,16.68 L 23.87,16.71 A 0.38,0.38 0 0,1 23.49,16.54 C 23.29,16.27 23.02,16.07 22.66,15.94 A 3.9,3.9 0 0,0 21.65,15.74 C 21.33,15.71 21.1,15.52 20.97,15.19 C 20.93,15.11 20.96,15.05 21.04,15.01 C 22.29,14.49 23.5,14.14 24.69,13.97 C 26.46,13.73 28.19,13.77 29.89,14.1 A 14.66,14.66 0 0,1 40.94,23.6 C 41.02,23.81 41.07,24.04 41.11,24.27 C 41.15,24.57 41.06,24.61 40.84,24.4 A 9.12,9.12 0 0,1 40.57,24.13 A 3.88,3.88 0 0,0 39.81,23.47 A 5.44,5.44 0 0,0 37.38,22.76 A 6.8,6.8 0 0,0 34.84,23.09 C 34.24,23.29 33.56,23.75 32.79,24.48 C 32.27,24.98 32.17,24.9 32.49,24.26 C 32.69,23.89 32.94,23.53 33.23,23.18 C 33.29,23.11 33.33,23.03 33.33,22.94 A 0.45,0.45 0 0,0 33.29,22.68 C 33.19,22.48 33.15,22.27 33.15,22.04 A 0.2,0.2 0 0,0 33.05,21.87 A 0.2,0.2 0 0,0 32.85,21.87 C 32.52,22.05 32.33,22.34 32.27,22.74 C 32.27,22.77 32.25,22.78 32.22,22.79 H 32.16 C 32.11,22.79 32.09,22.77 32.09,22.73 C 32.14,21.83 32.51,21.38 33.22,21.34 C 33.35,21.34 33.46,21.29 33.54,21.2 C 33.76,20.98 33.92,20.7 34,20.37 A 0.2,0.2 0 0,0 33.86,20.12 C 33.36,19.97 32.98,19.81 32.69,19.65 C 32.29,19.43 31.98,19.15 31.74,18.82 C 31.54,18.55 31.38,18.57 31.25,18.89 C 31.19,19.04 31.08,19.11 30.92,19.09 A 0.27,0.27 0 0,1 30.73,18.96 A 4.03,4.03 0 0,1 30.64,18.83 C 30.57,18.71 30.51,18.63 30.46,18.58 A 0.77,0.77 0 0,0 30.19,18.38 C 29.67,18.16 29.29,18.08 29.06,18.12 C 28.86,18.15 28.8,18.22 28.87,18.32 Z" fill="rgb(53, 136, 193)"/>
<path d="M 45.25,20.935 L 43.11,20.65 C 42.37,20.55 41.65,20.15 40.97,19.45 A 6.08,6.08 0 0,1 39.62,17.3 C 39.41,16.68 39.22,16.11 39.03,15.6 C 38.9,15.2 38.88,14.85 38.99,14.58 C 39.12,14.25 39.39,14.11 39.84,14.15 C 40.43,14.2 40.87,14.25 41.16,14.29 C 41.62,14.36 42.02,14.46 42.36,14.59 C 43.16,14.89 43.8,15.44 44.26,16.23 C 44.49,16.63 44.66,16.95 44.78,17.19 C 44.95,17.56 45.08,17.9 45.16,18.22 A 25,25 0 0,0 45.99,20.96 A 0.1,0.1 0 0,1 45.97,21.08 A 0.1,0.1 0 0,1 45.85,21.1 A 3.28,3.28 0 0,0 45.26,20.95 Z" fill="rgb(149, 192, 86)"/>
<path d="M 42.42,18.185 C 41.93,17.59 41.49,17.09 41.11,16.7 C 40.64,16.2 40.18,15.8 39.73,15.45 C 39.51,15.28 39.53,15.2 39.82,15.22 C 39.94,15.22 40.07,15.26 40.2,15.33 A 5.69,5.69 0 0,1 42.73,18.18 C 42.77,18.27 42.74,18.31 42.64,18.3 A 0.3,0.3 0 0,1 42.43,18.2 Z" fill="rgb(254, 254, 253)"/>
<path d="M 12.66,25.835 A 0.43,0.43 0 0,1 12.57,25.48 C 12.86,23.92 13.47,22.38 14.43,20.86 C 15.33,19.44 16.42,18.18 17.7,17.1 A 0.42,0.42 0 0,1 18.27,17.12 C 18.57,17.42 18.84,17.8 19.08,18.23 C 19.19,18.43 19.23,18.63 19.21,18.83 C 19.09,19.7 19.01,20.58 18.97,21.48 C 18.97,21.76 18.97,22.05 19.02,22.36 C 19.03,22.46 19,22.56 18.93,22.63 A 0.34,0.34 0 0,1 18.66,22.75 A 8.43,8.43 0 0,0 15.96,23.03 C 15.06,23.3 14.33,23.79 13.74,24.51 C 13.41,24.91 13.07,25.36 12.71,25.85 C 12.7,25.87 12.69,25.87 12.67,25.85 Z M 28.34,18.12 L 28.87,18.32 L 29.63,20.02 C 29.67,20.09 29.67,20.16 29.63,20.23 C 29.46,20.66 29.44,21.12 29.6,21.62 C 29.65,21.79 29.59,21.85 29.42,21.78 A 1.04,1.04 0 0,1 29.26,21.7 A 0.8,0.8 0 0,1 28.93,21.3 L 28.71,20.75 A 0.22,0.22 0 0,0 28.53,20.61 A 4.4,4.4 0 0,1 26.53,19.71 C 26.2,19.46 26.11,19.15 26.25,18.79 C 26.35,18.55 26.55,18.27 26.87,17.96 A 0.22,0.22 0 0,1 27.07,17.89 L 28.34,18.12 Z" fill="rgb(56, 137, 175)"/>
<path d="M 17.93,32.285 A 3.4,3.4 0 0,0 19.54,31.74 C 20.23,31.33 20.71,30.76 20.99,30.04 C 21.09,29.74 20.78,29.74 20.61,29.75 L 17.41,29.76 C 17.08,29.76 16.93,29.58 16.95,29.23 V 28.79 C 16.95,28.53 17.09,28.39 17.35,28.39 L 22.81,28.37 C 22.87,28.37 22.91,28.39 22.95,28.43 A 0.2,0.2 0 0,1 23,28.56 C 23,29.29 22.85,30.06 22.54,30.86 A 4.97,4.97 0 0,1 21.09,32.79 A 4.93,4.93 0 0,1 16.73,33.89 A 5.03,5.03 0 0,1 12.7,30.01 A 5.68,5.68 0 0,1 12.87,26.44 A 5.4,5.4 0 0,1 17.93,23 C 18.41,23 18.77,23.01 19.01,23.06 A 4.9,4.9 0 0,1 22.35,25.66 C 22.39,25.73 22.39,25.79 22.37,25.86 C 22.35,25.94 22.3,26 22.23,26 H 20.7 A 0.65,0.65 0 0,1 20.18,25.8 C 18.29,23.86 15.4,24.81 14.48,27.19 A 3.5,3.5 0 0,0 14.28,29.02 C 14.36,29.62 14.58,30.17 14.94,30.68 C 15.29,31.19 15.72,31.58 16.24,31.87 C 16.78,32.17 17.34,32.31 17.94,32.29 Z M 37.65,24.84 A 3.63,3.63 0 0,0 33.29,28.64 C 33.31,29.28 33.47,29.87 33.77,30.41 A 3.3,3.3 0 0,0 35.07,31.74 C 36.53,32.55 37.89,32.44 39.14,31.38 C 39.32,31.23 39.52,31.14 39.75,31.09 C 39.89,31.07 40.1,31.06 40.39,31.06 C 40.79,31.06 41.09,31.03 41.29,30.96 C 41.34,30.95 41.39,30.96 41.43,30.98 C 41.47,31.01 41.49,31.05 41.5,31.1 A 0.68,0.68 0 0,1 41.34,31.6 C 41.05,31.97 40.75,32.3 40.44,32.62 A 4.6,4.6 0 0,1 37.4,33.98 C 35.4,34.13 33.8,33.42 32.63,31.86 A 5.75,5.75 0 0,1 31.5,28.36 C 31.49,27.42 31.77,26.49 32.35,25.56 A 5.49,5.49 0 0,1 36.8,23 C 37.4,22.98 37.99,23.07 38.56,23.25 A 5.31,5.31 0 0,1 41.46,25.68 C 41.51,25.76 41.51,25.84 41.47,25.92 A 0.22,0.22 0 0,1 41.27,26.04 L 41.18,26.05 C 40.74,26.07 40.42,26.07 40.21,26.05 A 1.7,1.7 0 0,1 39.33,25.72 A 4.25,4.25 0 0,0 37.65,24.84 Z" fill="rgb(91, 136, 90)"/>
<path d="M 32.15,25.314999999999998 A 0.24,0.24 0 0,1 32.08,25.43 C 31.98,25.51 31.91,25.51 31.86,25.44 C 31.78,25.34 31.79,25.24 31.9,25.17 L 32.2,24.94 C 32.29,24.87 32.31,24.89 32.28,24.99 L 32.16,25.33 Z M 18.3,26.89 C 18.34,27.01 18.4,27.12 18.51,27.21 A 2.18,2.18 0 0,0 18.84,27.44 C 18.91,27.49 18.94,27.55 18.93,27.64 C 18.9,27.84 18.77,28 18.55,28 C 17.95,28 17.38,28.03 16.82,28 C 16.69,28 16.58,27.99 16.49,28.08 C 16.4,28.16 16.36,28.27 16.36,28.39 L 16.4,29.89 C 16.4,29.97 16.43,30.03 16.49,30.09 C 16.54,30.14 16.61,30.17 16.69,30.17 C 17.56,30.17 18.45,30.17 19.34,30.2 C 19.55,30.2 19.73,30.3 19.88,30.47 C 19.93,30.54 19.95,30.61 19.94,30.69 C 19.94,30.77 19.9,30.83 19.84,30.89 C 19.24,31.39 18.57,31.64 17.82,31.63 C 16.38,31.61 15.4,30.89 14.88,29.47 A 2.67,2.67 0 0,1 14.72,28.37 C 14.74,28.04 14.83,27.68 14.99,27.29 A 2.9,2.9 0 0,1 17.88,25.34 C 17.97,25.34 18.04,25.37 18.11,25.44 C 18.17,25.5 18.2,25.58 18.19,25.67 C 18.17,26.11 18.21,26.51 18.31,26.89 Z" fill="rgb(56, 137, 175)"/>
<path d="M 34.080000000000005,29.805 A 3.53,3.53 0 0,1 33.85,27.86 C 33.95,27.13 34.27,26.56 34.78,26.13 A 3.4,3.4 0 0,1 36.72,25.33 A 2.65,2.65 0 0,1 38.82,26.04 C 38.98,26.18 39.11,26.28 39.2,26.34 C 39.35,26.44 39.5,26.49 39.64,26.5 C 40.19,26.55 40.76,26.55 41.34,26.5 C 41.41,26.5 41.48,26.52 41.54,26.57 C 41.61,26.61 41.64,26.67 41.66,26.75 C 41.71,27.06 41.73,27.37 41.73,27.67 C 41.73,28.52 41.73,29.39 41.69,30.3 A 0.21,0.21 0 0,1 41.49,30.51 C 40.95,30.53 40.41,30.53 39.84,30.49 A 1,1 0 0,0 39.29,30.62 A 3,3 0 0,0 38.84,30.95 L 38.61,31.13 A 2.8,2.8 0 0,1 36.39,31.61 A 2.86,2.86 0 0,1 34.09,29.81 Z" fill="rgb(53, 136, 193)"/>
<path d="M 31.09,36.705 C 31.04,36.72 31.01,36.75 31,36.8 C 30.57,36.8 30.28,36.64 30.12,36.32 A 2.17,2.17 0 0,1 29.98,35.28 C 29.98,35.12 29.91,35.03 29.76,35.02 L 28.48,34.95 C 28.15,34.93 28.06,34.77 28.19,34.47 L 28.22,34.41 A 0.61,0.61 0 0,1 28.87,34.02 C 29.57,34.07 30.3,34.06 31.06,34 C 31.16,34 31.26,33.95 31.34,33.87 A 0.43,0.43 0 0,0 31.46,33.57 L 31.49,33.05 C 31.49,32.94 31.55,32.89 31.65,32.91 L 32.28,33.01 C 32.35,33.01 32.41,33 32.46,32.94 A 0.18,0.18 0 0,0 32.49,32.76 A 0.24,0.24 0 0,0 32.31,32.59 C 31.91,32.49 31.65,32.31 31.51,32.04 A 0.65,0.65 0 0,0 31.29,31.79 A 0.34,0.34 0 0,0 31.06,31.74 A 5.8,5.8 0 0,1 29.9,31.76 C 28.94,31.69 28.03,31.67 27.15,31.72 C 26.91,31.72 26.79,31.62 26.79,31.37 V 30.35 C 26.79,30.13 26.89,30.04 27.12,30.08 C 27.36,30.12 27.57,30.08 27.75,29.94 C 27.95,29.8 28.23,29.72 28.61,29.71 C 28.88,29.71 29.18,29.73 29.51,29.8 C 29.64,29.82 29.73,29.9 29.77,30.03 C 29.97,30.55 30.21,31.01 30.52,31.41 C 30.61,31.53 30.73,31.58 30.89,31.55 C 30.97,31.55 31,31.5 30.99,31.42 A 3.69,3.69 0 0,0 30.65,30.45 C 30.49,30.15 30.42,29.81 30.43,29.42 C 30.45,29.08 30.53,28.74 30.67,28.4 C 30.72,28.3 30.79,28.21 30.89,28.16 A 0.17,0.17 0 0,1 31.07,28.16 C 31.13,28.2 31.15,28.25 31.15,28.31 A 6.16,6.16 0 0,0 32.88,32.64 A 1,1 0 0,1 33.04,32.91 L 33.09,33.01 C 33.12,33.07 33.16,33.11 33.21,33.13 L 34.41,33.69 C 35.49,34.17 36.56,34.36 37.64,34.24 A 4.79,4.79 0 0,0 40.52,32.92 L 41.12,32.37 C 41.24,32.26 41.27,32.28 41.22,32.44 C 40.95,33.2 40.62,33.98 40.24,34.78 C 40.16,34.95 40.04,35.1 39.86,35.22 A 3.94,3.94 0 0,1 39.29,35.54 C 39.09,35.64 39.04,35.59 39.13,35.39 A 0.87,0.87 0 0,0 39.21,34.94 A 0.32,0.32 0 0,0 39.03,34.68 A 0.32,0.32 0 0,0 38.71,34.68 C 38.49,34.79 38.3,34.93 38.13,35.1 A 0.22,0.22 0 0,1 37.9,35.15 A 9.8,9.8 0 0,1 37.56,35.05 C 37.3,34.95 37.1,34.89 36.96,34.87 A 1.68,1.68 0 0,0 36.3,34.91 C 35.62,35.08 34.92,35.21 34.2,35.28 C 33.36,35.38 32.8,35.74 32.52,36.38 A 0.43,0.43 0 0,1 32.25,36.64 A 0.43,0.43 0 0,1 31.88,36.6 C 31.58,36.42 31.32,36.46 31.09,36.72 Z" fill="rgb(56, 137, 175)"/>
<path d="M 30.99,36.785 C 31.01,36.75 31.04,36.73 31.1,36.72 C 31.8,36.77 32.11,37.12 32.06,37.76 C 32.03,38.14 31.76,38.53 31.23,38.92 C 31.08,39.02 30.97,39.16 30.89,39.32 C 30.84,39.42 30.79,39.58 30.73,39.79 L 30.62,40.15 A 0.18,0.18 0 0,0 30.67,40.37 L 31.77,41.4 C 31.82,41.45 31.88,41.49 31.95,41.5 C 32.25,41.55 32.56,41.56 32.89,41.53 C 32.92,41.53 32.95,41.54 32.98,41.57 S 33.02,41.63 33.01,41.67 C 33.01,41.72 32.98,41.75 32.94,41.77 A 15.13,15.13 0 0,1 23.38,42.57 C 23.08,42.51 22.66,42.37 22.11,42.14 L 21.41,41.88 A 11.6,11.6 0 0,1 18.31,40.17 C 17.35,39.45 16.51,38.65 15.76,37.77 A 15.87,15.87 0 0,1 12.62,31.63 C 12.53,31.31 12.6,31.28 12.82,31.53 L 13.09,31.84 C 13.54,32.36 13.89,32.74 14.13,32.95 C 14.54,33.32 14.97,33.59 15.43,33.76 C 16.01,33.98 16.58,34.13 17.15,34.21 C 17.82,34.31 18.42,34.29 18.93,34.16 C 19.55,34 20.1,33.81 20.58,33.6 C 20.81,33.5 21.1,33.29 21.48,32.97 L 21.9,32.63 C 22.18,32.42 22.28,32.49 22.2,32.83 A 0.87,0.87 0 0,0 22.29,33.45 C 22.38,33.62 22.52,33.77 22.72,33.89 C 23.26,34.22 23.68,34.46 23.99,34.61 C 24.49,34.85 24.94,34.99 25.34,35.04 C 25.44,35.05 25.57,35.04 25.74,35.01 C 25.9,34.97 26.01,34.96 26.09,34.96 A 0.3,0.3 0 0,1 26.29,35.04 C 26.56,35.27 26.86,35.46 27.21,35.58 A 8.11,8.11 0 0,0 28.41,35.9 C 28.66,35.96 28.86,36.07 29.01,36.24 C 29.56,36.84 30.16,37.17 30.81,37.24 C 31.03,37.26 31.09,37.11 31.01,36.8 Z" fill="rgb(53, 136, 193)"/>
<path d="M 25.99,32.455 H 29.87 C 30.24,32.47 30.41,32.67 30.35,33.07 L 30.27,33.72 C 30.25,33.88 30.16,34 30,34 H 24.3 C 24.18,34 24,33.9 24,33.78 V 23.22 C 24,23.11 24.15,23.02 24.26,23.02 L 30.12,23 C 30.29,23 30.38,23.09 30.37,23.27 V 24.32 C 30.36,24.49 30.27,24.58 30.11,24.58 H 26 V 27.4 H 29.24 A 0.2,0.2 0 0,1 29.4,27.48 C 29.45,27.53 29.46,27.59 29.46,27.66 L 29.36,28.74 C 29.34,28.91 29.26,29 29.1,29 H 26 V 32.47 Z" fill="rgb(91, 136, 90)"/>
</svg>
