<!-- by Finnhub --><svg width="56" height="56" viewBox="0 0 56 56" fill="none" xmlns="http://www.w3.org/2000/svg">
<rect width="56" height="56" fill="#F0F3FA"/>
<path fill-rule="evenodd" clip-rule="evenodd" d="M27.5 11.9946V18.4703L25 19.8614L19.93 14.1699C22.1645 12.8611 24.7446 12.0792 27.5 11.9946ZM28.5 11.9946V18.4703L31 19.8614L36.07 14.1699C33.8355 12.8611 31.2554 12.0792 28.5 11.9946ZM37.0574 14.7979L32 20.5233L34.2151 21.943L41.0614 18.749C39.9699 17.2082 38.613 15.8689 37.0574 14.7979ZM41.7788 19.8555L35 23.0117V26H43.8764C43.5999 23.7785 42.8686 21.6983 41.7788 19.8555ZM43.9693 27H34.9564L33.5 28.5L42.4131 34.9614C43.4299 32.8564 44 30.4948 44 28C44 27.6641 43.9897 27.3307 43.9693 27ZM41.7749 36.1512L33 29.9461V32.7615L31.4195 33.8569L37.921 40.5639C39.4599 39.3451 40.7696 37.849 41.7749 36.1512ZM36.8536 41.3401L30.3144 34.5942L28.5 35.7027V44.0054C31.5837 43.9107 34.4478 42.9427 36.8536 41.3401ZM27.5 44.0054V35.7027L25.6856 34.5942L19.1463 41.3401C21.5522 42.9427 24.4163 43.9107 27.5 44.0054ZM18.079 40.5639L24.5805 33.8569L23 32.7615V29.9461L14.2251 36.1512C15.2303 37.849 16.5401 39.3451 18.079 40.5639ZM13.5869 34.9614L22.5 28.5L21 27H12.0307C12.0103 27.3307 12 27.6641 12 28C12 30.4948 12.5701 32.8564 13.5869 34.9614ZM12.1236 26H21V23.0117L14.2212 19.8555C13.1314 21.6983 12.4001 23.7785 12.1236 26ZM14.9386 18.749C16.0289 17.2098 17.3841 15.8718 18.9376 14.8013L24 20.5233L21.7849 21.943L14.9386 18.749ZM28 19.6024L22.7863 22.6855L27 24.5685V27.9999H29V24.5685L33.2137 22.6855L28 19.6024ZM22 26.4672V23.5504L23 24.0783V24.8953L26 26.3659V28.9803L27.3469 29.9607V31.0118L25.5053 33L24 32.0619V28.3267L22 26.4672ZM30.4947 33L28.6531 31.0118V29.9607L30 28.9803V26.3659L33 24.8953V24.0783L34 23.5504V26.5L32 28.3267V32.0619L30.4947 33ZM29.3897 33.6402L28 32.0619L26.6103 33.6402L28 34.5673L29.3897 33.6402Z" fill="#8E0427"/>
</svg>
