<?xml version="1.0" encoding="UTF-8"?>
<!-- generated by Finnhub -->
<svg viewBox="0 0 55.5 55.5" xmlns="http://www.w3.org/2000/svg">
<path d="M0 0h55.5v55.5H0z" fill="rgb(239, 242, 248)"/>
<path d="M13.22 23c1.51 0 2.73 1.05 3.17 2.5h2.5c-.42-2.8-2.98-4.5-5.7-4.5C9.26 21 7 24.34 7 28.01 7 31.76 9.29 35 13.26 35c3.3 0 5.74-2.36 5.74-5.68V27.5h-5V30h2.6a3.31 3.31 0 0 1-3.33 3c-2.66 0-3.77-2.65-3.77-5.01 0-2.31 1.1-4.99 3.72-4.99ZM22 21h2.96l3.96 10.14h.16L33.04 21H36v14h-2.5v-9.47L29.87 35h-1.74l-3.63-9.5V35H22V21Zm17 14V21h9v2h-6.5v4H47v2h-5.5v4H48v2h-9Z"/>
</svg>
