<!-- by Finnhub --><svg width="56" height="56" viewBox="0 0 56 56" xmlns="http://www.w3.org/2000/svg"><path fill="#F0F3FA" d="M0 0h56v56H0z"/><path d="m17.62 25.66 6.24-9.13v3.2c0 2.18 4.17 7.85 6.66 10.93 2.5 3.08 3.87 6.34 3.87 9.12 0 2.22-.37 3.72-.56 4.19-.86.34-3.17 1.03-5.49 1.03C18.81 45 15 38.16 15 33.53c0-3.71 1.75-6.8 2.62-7.87Z" fill="url(#a2yt3ztlf)"/><path d="M18.65 41.04c2.27 2.56 6.33 2.97 8.08 2.86-2.78 0-8.98-3.1-8.98-7.58 0-3.6.95-6.52 1.43-7.53l-2.24-.96a9.6 9.6 0 0 0-1.36 3.56c-.34 2.1.22 6.46 3.07 9.65Z" fill="url(#b2yt3ztlf)"/><path d="M18.84 34.02c0-4.17 2.91-8.32 4.37-9.88-.44 6.34 3.12 9.87 4.95 10.84l-4.76 4.75c-1.52-.16-4.56-1.54-4.56-5.7Z" fill="url(#c2yt3ztlf)"/><path d="M26.6 17.47c0-3.13.99-6.95 1.48-8.47C30.6 17.18 41 25.77 41 32.63c0 5.5-3.73 9.33-5.6 10.56 1.56-1.55 4.67-5.54 4.67-9.03 0-4.36-3.2-8.36-4.67-10.42a247.35 247.35 0 0 1-6.14-9.83c.74 4.9 9.05 15.03 9.05 20.53 0 4.4-2.76 8.3-4.15 9.7.61-1.16 1.84-4.12 1.84-6.67 0-3.18-2.07-7.09-4.33-9.88-2.26-2.8-5.07-6.21-5.07-10.12Z" fill="url(#d2yt3ztlf)"/><path d="M26.83 16.59c0-2.42 1.17-4.9 1.76-5.83.28 5.15.9 6.52 1.17 6.56l-1.52 4.36a9.92 9.92 0 0 1-1.4-5.1Z" fill="url(#e2yt3ztlf)"/><defs><linearGradient id="a2yt3ztlf" x1="24.7" y1="16.53" x2="24.7" y2="45" gradientUnits="userSpaceOnUse"><stop stop-color="#72CED7"/><stop offset=".11" stop-color="#3EDEF4"/><stop offset=".85" stop-color="#0238F4"/></linearGradient><linearGradient id="b2yt3ztlf" x1="24.42" y1="43.28" x2="22.69" y2="30.6" gradientUnits="userSpaceOnUse"><stop stop-color="#B7EFFF"/><stop offset="1" stop-color="#B7EFFF" stop-opacity="0"/></linearGradient><linearGradient id="c2yt3ztlf" x1="20.4" y1="24.71" x2="25.84" y2="32.77" gradientUnits="userSpaceOnUse"><stop stop-color="#7BF6FF"/><stop offset="1" stop-color="#7BF6FF" stop-opacity="0"/></linearGradient><linearGradient id="d2yt3ztlf" x1="26.83" y1="11.18" x2="39.72" y2="37.08" gradientUnits="userSpaceOnUse"><stop stop-color="#0E750C"/><stop offset="1" stop-color="#A1D81A"/></linearGradient><linearGradient id="e2yt3ztlf" x1="28.29" y1="10.76" x2="30.28" y2="16.25" gradientUnits="userSpaceOnUse"><stop stop-color="#80F38B"/><stop offset="1" stop-color="#80F38B" stop-opacity="0"/></linearGradient></defs></svg>