<!-- by Finnhub --><svg width="56" height="56" viewBox="0 0 56 56" xmlns="http://www.w3.org/2000/svg"><path fill="#244191" d="M0 0h56v56H0z"/><path d="M21.8 12.08a6.33 6.33 0 0 0-5.14 6.7 5.85 5.85 0 0 0 1.75 3.89 6 6 0 0 0 3.13 1.74l.23.05-.34.27c-1.21.97-1.91 2.98-1.67 4.8a11.93 11.93 0 0 0 .57 2.34c.02.1-.2.2-.9.45-1.6.56-3.12 1.2-3.81 1.6-2.04 1.21-2.97 3-2.5 4.82.16.62.49 1.22.86 1.59 1.25 1.22 3.48 1.63 5.14 1.67 2.23.05 4.45-.64 6.44-1.79l.55-.32.78.58c.98.73 2.23 1.56 3.5 1.53.95-.02 1.85-.6 2.72-1H45v-2.87c0-3.36.13-2.86-1.05-.98a8.29 8.29 0 0 1-3.43 3.26c-.5.25-1.45.4-2.07.33l-.45-.06v-4.15c0-2.95 0-4.63.07-4.92.13-.6.62-1.1 1.21-1.23.24-.05.51-.1.6-.1.09 0 .16-.05.16-.12 0-.1-.1-.16-1.33-.16h-4.25l.5-.12c.7-.2 1.56-.49 2.16-1.12.78-.82.89-1.11.89-2.43 0-1.05 0-1.1-.27-1.65a7.1 7.1 0 0 0-.44-.81c-.36-.51-1.22-1-3.46-2a28.07 28.07 0 0 1-2.51-1.2c-.54-.41-.72-1.22-.4-1.76.22-.36.92-.7 1.58-.75.44-.04.65-.01 1.14.16 1.5.52 2.4 1.41 3.07 3.06a3 3 0 0 0 .38.76c.05.02.1-.74.1-2.12.02-1.76 0-2.14-.09-2.14-.06 0-.15.17-.2.45-.13.53-.37.88-.62.88-.1 0-.58-.4-1.22-.73a5.36 5.36 0 0 0-3.14-.67c-.62.04-1.16.59-1.76 1.01-.22.16-.38.19-3.7.18h-3.59c-.07.03-.13.12-.13.19 0 .09.14.11.54.11.3 0 .67.06.82.12.52.22.54-.04.54 1.96 0 1.7 0 1.82-.17 2.03-.27.34-.59.46-1.22.46-.7 0-1.01-.18-1.39-.81-.67-1.13-1.01-5.1-.61-7.09.35-1.74 1.02-2.79 2.03-3.18.14-.05.5-.1.79-.1 1.45-.02 3.36 1.45 4.24 3.71.2.5.35.95.35 1.02 0 .07.08.12.17.12.16 0 .16-.05.16-1.44v-2.58c-.05-1.02-.12-1.14-.25-1.14-.08 0-.27.17-.41.37-.3.42-.73.67-1.01.58-.1-.03-.6-.26-1.1-.5a7.64 7.64 0 0 0-4.43-.75Zm7.73 7.29c0 .03-.17.32-.39.63-.33.48-.4.55-.42.39-.07-.5.15-.93.52-1.03.26-.06.3-.06.3 0Zm-1.45 4.5.3.21V30l-.27.05c-.23.02-.28.07-.3.26l-.02.23h.65c1.83 0 2.82 1 2.57 2.62-.13.85-.8 2.07-1.74 3.22l-.4.48-.6-.68c-1-1.14-1.8-2.11-3.02-3.69L24.08 31l.6-.3c1.22-.65 1.91-1.38 2.18-2.31.2-.7.12-2-.16-2.62a3.97 3.97 0 0 0-1.23-1.43c-.23-.08-.19-.17.11-.27l.73-.27c.62-.23 1.35-.2 1.77.09Zm1.1.13c.44.43 1.66 1.06 3.53 1.83 1.54.63 2.18.96 2.55 1.32.3.3.52.83.44 1.07-.02.06-.06.21-.08.34-.06.28-.5.78-.83.95-.3.15-1.27.16-1.81.02a7.35 7.35 0 0 1-1.94-1 7.51 7.51 0 0 1-1.68-2.1 6.4 6.4 0 0 1-.61-2.8c.02 0 .22.16.43.37Zm-4.8.9c.7.64 1.3 2.2 1.3 3.39 0 .9-.3 1.4-1.15 1.93-.8.48-.68.54-1.53-.78-1.3-2-1.62-2.9-1.37-3.75.1-.34.22-.55.48-.8l.36-.32h.77l.78-.01.36.34Zm7.14 4.39c.52.24 1.17.51 1.44.59l.5.12h-4.74l.07-.21c.1-.37.37-.71.68-.87.46-.23.98-.14 2.05.37ZM34 31.35l.01 4.14v3.49l-.14.18c-.85.58-1.82.67-2.95-.28-.21-.18-.65-.62-.97-.97l-.57-.65.17-.22c.62-.81 1.25-1.75 1.9-2.86.24-.38 1.69-3.15 2.33-3.15.04 0 .14.15.22.32ZM20.89 33a32.67 32.67 0 0 0 4.16 5.71c.37.4.68.77.68.81 0 .13-1.59.9-2.4 1.17-1.97.67-3.94.29-5.21-1a4.7 4.7 0 0 1-1.39-3.63c.07-1.59.89-2.51 2.99-3.38l.8-.32c.02 0 .19.29.37.64Z" fill="#fff"/></svg>