<?xml version="1.0" encoding="UTF-8"?>
<!-- generated by Finnhub -->
<svg viewBox="0 0 55.5 55.5" xmlns="http://www.w3.org/2000/svg">
<path d="M 0,0 H 55.5 V 55.5 H 0 Z" fill="rgb(239, 242, 248)"/>
<path d="M 18.99,28.985 V 30 C 19.75,29.94 21.5,29.93 21.5,31.16 V 31.49 C 21.52,33.06 21.55,35.45 17.5,35.45 C 13.14,35.45 12,31.81 12,27.19 C 12,22.58 15,20.49 17.76,20.49 C 20.53,20.49 22.44,22.54 23.05,25.19 H 24 V 19.53 H 22.88 L 22.44,21.01 A 7.94,7.94 0 0,0 17.08,19 C 13.68,19 8,21.42 8,28.21 C 8,35.01 13.64,37 16.81,37 C 18.37,37 19.57,36.73 20.79,36.46 C 22.04,36.19 23.31,35.9 25,35.9 V 31.35 C 25,30.49 25.85,30 26.72,30 H 27 V 29 H 19 Z M 40.02,19 C 36.82,19 33.34,19.16 32,19.24 V 20 H 32.9 C 33.79,20 34.5,21.2 34.5,22.06 V 34.22 C 34.5,35.09 33.79,36 32.9,36 H 32 V 37 H 40.96 V 36 H 40 C 39.11,36 38.01,35.1 38.01,34.22 V 28.96 C 44.76,29.28 48.01,27.6 48.01,23.82 C 48.01,20.02 44.05,19 40.03,19 Z M 38,27.57 V 20.56 H 39.53 C 43.57,20.56 44,22.46 44,23.64 C 44,24.84 43.93,25.78 43.01,26.72 C 42.27,27.47 40.51,27.6 39.71,27.57 H 38 Z" fill="rgb(0, 14, 58)"/>
<path d="M 30.689999999999998,29.985 H 33.29 V 30.23 C 33.07,30.29 32.56,30.5 32.29,30.87 C 32.15,31.05 32,31.37 31.84,31.7 C 31.61,32.21 31.34,32.78 31.04,33.06 C 31.34,33.53 32.11,34.46 32.82,34.46 C 33.37,34.46 33.66,34.17 33.74,34 H 34 C 33.91,34.35 33.51,35 32.6,35 A 2.57,2.57 0 0,1 30.5,33.86 C 30.18,34.24 29.29,35 28.3,35 C 27.06,35 26,34.03 26,32.69 C 26,31.62 27.33,30.65 28,30.3 A 2.68,2.68 0 0,1 27.26,28.68 C 27.26,27.82 27.8,27 29.03,27 S 30.63,27.93 30.63,28.37 C 30.63,28.8 30.13,29.57 28.92,30.06 L 30.92,32.77 C 31.18,32.41 31.68,31.56 31.68,31.02 C 31.68,30.49 31.03,30.32 30.71,30.3 V 30 Z M 28.02,28.25 C 28.02,28.87 28.52,29.59 28.78,29.87 C 29.18,29.67 29.95,29.1 29.95,28.45 C 29.95,27.65 29.43,27.28 29.01,27.28 C 28.59,27.28 28.02,27.48 28.02,28.25 Z M 30.33,33.6 L 28.16,30.5 C 27.45,31.04 26.86,31.67 26.86,32.6 C 26.86,33.52 27.94,34.42 28.84,34.42 C 29.56,34.42 30.14,33.87 30.33,33.6 Z" fill="rgb(236, 180, 47)"/>
</svg>
