<?xml version="1.0" encoding="UTF-8"?>
<!-- generated by Finnhub -->
<svg viewBox="0 0 55.5 55.5" xmlns="http://www.w3.org/2000/svg">
<path d="M 0,0 H 55.5 V 55.5 H 0 Z" fill="rgb(32, 68, 105)"/>
<path d="M 44.99,27.985 A 17,17 0 1,1 11,28 A 17,17 0 0,1 45,28 Z" fill="rgb(12, 28, 63)"/>
<path d="M 27.99,42.985 A 15,15 0 1,0 28,13 A 15,15 0 0,0 28,43 Z M 28,45 A 17,17 0 1,0 28,11 A 17,17 0 0,0 28,45 Z" fill="rgb(227, 182, 80)" fill-rule="evenodd"/>
<path d="M 27.99,15.985 L 18,27.85 L 20.2,27.02 C 21.28,26.65 23.79,26.13 25.14,27.02 A 4.93,4.93 0 0,0 28,27.99 V 16 Z" fill="rgb(223, 183, 87)"/>
<path d="M 27.99,15.985 L 38,27.85 L 35.8,27.02 C 34.72,26.65 32.21,26.13 30.86,27.02 A 4.93,4.93 0 0,1 28,27.99 V 16 Z" fill="rgb(199, 154, 62)"/>
<path d="M 19.83,29.435 C 19.11,29.77 17.6,30.28 17,30.5 V 32.47 C 18.25,32.59 19.36,32.17 19.7,31.95 C 21.49,30.6 23.55,30.82 24.41,31.4 C 26.89,33.06 29.95,32.47 31.66,31.4 C 33.36,30.33 35.17,31.47 36.36,31.95 C 37.3,32.33 38.51,32.45 39,32.47 V 30.5 C 38.4,30.28 37.03,29.77 36.35,29.45 C 35.51,29.05 32.86,28.45 30.84,29.45 C 28.82,30.45 27.16,30.5 25.26,29.45 S 20.76,29.05 19.84,29.45 Z M 19.84,33.94 C 19.11,34.27 17.6,34.78 17,34.99 V 36.97 C 18.25,37.08 19.36,36.67 19.7,36.44 C 21.49,35.09 23.55,35.32 24.41,35.9 C 26.89,37.55 29.95,36.97 31.66,35.9 C 33.36,34.83 35.17,35.97 36.36,36.44 C 37.3,36.83 38.51,36.95 39,36.97 V 34.99 C 38.4,34.78 37.03,34.27 36.35,33.94 C 35.51,33.54 32.86,32.94 30.84,33.94 C 28.82,34.94 27.16,34.99 25.26,33.94 C 23.36,32.9 20.76,33.54 19.84,33.94 Z" fill="rgb(3, 164, 222)"/>
</svg>
