<?xml version="1.0" encoding="UTF-8"?>
<!-- generated by Finnhub -->
<svg viewBox="0 0 55.5 55.5" xmlns="http://www.w3.org/2000/svg">
<path d="M 0,0 H 55.5 V 55.5 H 0 Z" fill="rgb(239, 242, 248)"/>
<path d="M 12.66,23.724999999999998 C 13.83,23.74 14.72,24.46 15.05,25.57 H 16.92 A 4.22,4.22 0 0,0 12.64,22 C 9.6,22 8,24.74 8,27.51 C 8,30.35 9.62,33 12.7,33 C 15.26,33 17,31.05 17,28.54 V 27 H 13 V 29 H 15.21 A 2.4,2.4 0 0,1 12.71,31.26 C 10.65,31.26 10,29.27 10,27.49 C 10,25.75 10.64,23.74 12.67,23.74 Z M 19,33 V 22 H 22.8 C 24.94,22 26.37,23.42 26.37,25.54 C 26.37,27.68 24.93,29 22.77,29 H 21 V 33 H 19 Z M 22.53,27.33 H 21 V 23.67 H 22.52 C 23.72,23.67 24.5,24.33 24.5,25.54 C 24.5,26.74 23.74,27.34 22.53,27.34 Z M 30.45,26.03 L 28.18,22 H 26.04 L 29.26,27.5 L 26,33 H 28.16 L 30.46,29 H 30.54 L 32.84,33 H 35 L 31.77,27.5 L 34.95,22 H 32.82 L 30.54,26.03 H 30.45 Z M 38.33,22 H 36 V 33 H 38 V 25.63 L 40.82,32.97 H 42.18 L 45,25.65 V 33 H 47 V 22 H 44.68 L 41.56,29.97 H 41.44 L 38.33,22 Z" fill-rule="evenodd"/>
</svg>
