<?xml version="1.0" encoding="UTF-8"?>
<!-- generated by Finnhub -->
<svg viewBox="0 0 55.5 55.5" xmlns="http://www.w3.org/2000/svg">
<path d="M 0,0 H 55.5 V 55.5 H 0 Z" fill="rgb(239, 242, 248)"/>
<path d="M 8.35,26.515 C 8.43,26.65 8.49,26.79 8.53,26.94 H 9.46 A 2.4,2.4 0 0,0 9.22,26.16 A 2.16,2.16 0 0,0 8.11,25.14 C 7.87,25.04 7.61,25 7.32,25 A 2.08,2.08 0 0,0 5.66,25.8 C 5.46,26.06 5.29,26.37 5.17,26.74 C 5.06,27.11 5,27.54 5,28.01 C 5,28.62 5.1,29.15 5.3,29.61 A 2.13,2.13 0 0,0 7.35,31 A 2.05,2.05 0 0,0 9.23,29.86 C 9.4,29.49 9.5,29.06 9.5,28.56 V 27.86 H 7.45 V 28.68 H 8.62 C 8.62,28.95 8.56,29.18 8.46,29.38 C 8.36,29.59 8.21,29.76 8.02,29.87 C 7.84,29.98 7.62,30.04 7.36,30.04 C 7.07,30.04 6.82,29.96 6.61,29.8 C 6.39,29.64 6.23,29.41 6.11,29.1 C 5.98,28.8 5.92,28.43 5.92,27.98 C 5.92,27.55 5.98,27.18 6.1,26.88 C 6.23,26.57 6.4,26.33 6.6,26.18 C 6.82,26.02 7.06,25.94 7.34,25.94 C 7.49,25.94 7.63,25.96 7.76,26.01 A 1,1 0 0,1 8.1,26.21 C 8.2,26.29 8.29,26.4 8.36,26.52 Z M 10,31 V 25 H 11.9 C 12.3,25 12.62,25.08 12.88,25.24 C 13.15,25.4 13.35,25.63 13.48,25.91 C 13.62,26.21 13.69,26.54 13.69,26.91 C 13.69,27.31 13.62,27.64 13.49,27.92 A 1.5,1.5 0 0,1 12.78,28.62 L 13.88,31 H 12.85 L 11.85,28.8 H 11 V 31 H 10 Z M 11.77,27.9 H 11 V 25.9 H 11.76 C 11.99,25.9 12.18,25.95 12.32,26.03 C 12.47,26.11 12.58,26.23 12.65,26.37 C 12.72,26.52 12.75,26.71 12.75,26.92 C 12.75,27.13 12.72,27.32 12.65,27.46 A 0.72,0.72 0 0,1 12.33,27.79 C 12.18,27.86 11.99,27.9 11.77,27.9 Z M 14,31 H 14.98 L 15.4,29.52 H 17.3 L 17.73,31 H 18.71 L 16.92,25 H 15.79 L 14,31 Z M 17.06,28.65 L 16.37,26.23 H 16.33 L 15.65,28.65 H 17.05 Z M 19,31 V 25 H 22.38 V 26 H 20 V 27.54 H 22.15 V 28.45 H 20 V 31 H 19 Z M 28.36,26.53 C 28.43,26.65 28.49,26.79 28.53,26.94 H 29.46 A 2.4,2.4 0 0,0 29.22,26.16 A 2.16,2.16 0 0,0 28.11,25.14 C 27.87,25.04 27.61,25 27.32,25 C 25.72,25 25,26.6 25,28 C 25,29.44 25.72,31 27.35,31 A 2.05,2.05 0 0,0 29.23,29.86 C 29.41,29.5 29.51,29.06 29.51,28.56 V 27.86 H 27.45 V 28.69 H 28.62 C 28.62,28.96 28.56,29.19 28.46,29.39 C 28.36,29.6 28.21,29.77 28.02,29.88 C 27.84,29.99 27.62,30.05 27.36,30.05 C 26.27,30.05 26,28.89 26,27.99 C 26,27.12 26.18,26.5 26.6,26.19 C 26.82,26.03 27.06,25.95 27.34,25.95 C 27.49,25.95 27.63,25.97 27.76,26.02 A 1,1 0 0,1 28.1,26.22 C 28.2,26.3 28.29,26.41 28.36,26.53 Z M 30,31 V 25 H 31 V 30 H 33.15 V 31 H 30 Z M 37.67,29.62 C 37.89,29.17 38,28.62 38,28 C 38,27.37 37.89,26.83 37.67,26.39 A 2.34,2.34 0 0,0 35.5,25 A 2.35,2.35 0 0,0 33.33,26.39 C 33.11,26.83 33,27.37 33,28 C 33,28.63 33.1,29.17 33.33,29.61 A 2.35,2.35 0 0,0 35.5,31 A 2.34,2.34 0 0,0 37.67,29.62 Z M 36.82,26.88 C 36.94,27.18 37.01,27.56 37.01,28 C 37.01,28.44 36.94,28.82 36.81,29.12 A 1.35,1.35 0 0,1 35.49,30.05 C 35.2,30.05 34.94,29.97 34.72,29.82 C 34.49,29.66 34.32,29.42 34.18,29.12 C 34.05,28.82 33.99,28.44 33.99,28 C 33.99,27.56 34.05,27.18 34.19,26.88 C 34.31,26.58 34.49,26.34 34.72,26.18 C 34.94,26.03 35.2,25.95 35.5,25.95 C 35.8,25.95 36.06,26.03 36.28,26.19 C 36.51,26.34 36.68,26.57 36.82,26.88 Z M 41.17,31 H 39 V 25 H 41.05 C 41.44,25 41.76,25.07 42.02,25.2 C 42.28,25.34 42.47,25.52 42.6,25.76 C 42.73,25.99 42.8,26.26 42.8,26.56 C 42.8,26.8 42.75,27.01 42.66,27.18 C 42.58,27.35 42.46,27.49 42.33,27.6 C 42.19,27.7 42.03,27.79 41.85,27.83 V 27.89 C 42.05,27.9 42.23,27.97 42.4,28.09 C 42.58,28.21 42.72,28.37 42.83,28.59 C 42.94,28.8 43,29.06 43,29.37 C 43,29.67 42.93,29.96 42.8,30.2 C 42.66,30.45 42.46,30.64 42.2,30.79 C 41.92,30.93 41.58,31 41.17,31 Z M 40,30.1 H 41.02 C 41.37,30.1 41.62,30.02 41.78,29.87 A 0.78,0.78 0 0,0 42.01,29.28 A 0.98,0.98 0 0,0 41.9,28.8 A 0.85,0.85 0 0,0 41.56,28.46 A 1.02,1.02 0 0,0 41.04,28.33 H 40 V 30.09 Z M 40,27.55 H 40.93 C 41.1,27.55 41.25,27.52 41.38,27.45 A 0.8,0.8 0 0,0 41.7,27.15 A 0.86,0.86 0 0,0 41.82,26.7 A 0.79,0.79 0 0,0 41.6,26.12 C 41.45,25.97 41.24,25.9 40.95,25.9 H 40 V 27.55 Z M 43.22,31 H 44.26 L 44.7,29.52 H 46.73 L 47.18,31 H 48.22 L 46.32,25 H 45.12 L 43.22,31 Z M 46.47,28.65 L 45.74,26.23 H 45.69 L 44.97,28.65 H 46.47 Z M 50,25 H 49 V 31 H 52 V 30.09 H 50 V 25 Z" fill-rule="evenodd"/>
</svg>
