<?xml version="1.0" encoding="UTF-8"?>
<!-- generated by Finnhub -->
<svg viewBox="0 0 55.5 55.5" xmlns="http://www.w3.org/2000/svg">
<path d="M 0,0 H 55.5 V 55.5 H 0 Z" fill="rgb(239, 242, 248)"/>
<path d="M 27.99,30.485 V 26 H 41 V 30.5 H 28 Z M 35,32 V 33 H 41 V 32 H 35 Z M 41,34.5 H 35 V 35.5 H 41 V 34.5 Z M 41,37 V 39.21 C 39.3,40.81 34.29,44 27.8,44 C 19.7,44 12,37.76 12,27.66 S 19.9,12 28.63,12 C 34.95,12 38.68,14.88 39.75,16.32 L 36.32,20.38 C 35.46,19.27 32.62,17.05 28.22,17.05 C 22.71,17.05 17.77,20.79 17.77,28.49 C 17.77,36.19 23.75,39.21 28.22,39.21 C 31.42,39.21 33.55,37.88 34.66,37 H 41 Z" fill="rgb(96, 42, 91)"/>
</svg>
