<!-- by Finnhub --><svg xmlns="http://www.w3.org/2000/svg" width="56" height="56" viewBox="0 0 56 56"><path fill="#F0F3FA" d="M0 0h56v56H0z"/><path d="M31.1 15h9.93c.67 0 .97.53.97 1.2v7.76c0 .68-.3 1.04-.97 1.04h-3.05c-.68 0-.92-.36-.98-1.04v-2.29c0-1.07-.43-1.61-1.5-1.67h-6.2a9.45 9.45 0 0 1 1.8-5z" fill="#01FFFF"/><path d="M32.34 43a8.95 8.95 0 0 1 3.78-7.1c.17-.12.4-.23.45-.46 1.75-.68 3.46-1.35 5.43-1.13v7.67c0 .68-.24 1.02-.92 1.02h-8.74z" fill="#FF00FE"/><path d="M22.3 20c.45-1.53.79-3.11.5-5h3.16c0-.2-.1-.51-.28-.63-.79-.77-1.52-1.6-2.31-2.36-.11-.12-.28-.24-.4-.42-.33-.47-.45-.94 0-1.35.4-.42.85-.3 1.19.11 1.01 1 2.09 2.01 3.04 3.13.63.71 1.02.6 1.64.06l4.57-4.07c.5-.47 1.02-.71 1.52-.12.45.6 0 1.06-.4 1.42-1.35 1.18-2.7 2.42-4.11 3.6-.17.12-.39.48-.33.63h1.16c-1.02 1.6-1.78 3.11-1.84 5H22.3zM42 34.31c-2-.08-3.83.69-5.58 1.36.52-.86.58-2.02.58-2.94-.06-.62-.26-.73-1.02-.73-2.02 0-1.98-.11-1.98-2.2 0-2.88-.28-2.8 2.55-2.8h4.2c.84 0 1.25.49 1.25 1.39v5.92z" fill="#3900C7"/><path fill-rule="evenodd" d="M15.24 43H32.4a9.75 9.75 0 0 1 3.58-7h-3.23c-.56 0-.75.17-.75.73v3.17c0 1.14-.84 1.34-1.58.84a3.6 3.6 0 0 1-.85-.73c-.26-.3-.53-.6-.81-.89-.55-.59-1.1-1.18-1.56-1.82-.89-1.31-1.83-1.3-3.22-1.3h-.31c-1.11 0-1.67-.67-1.67-2.03v-13.2l-.31.39c-.65.8-1.46 1.8-2.27 2.43A2 2 0 0 1 18 27a2 2 0 0 1-1.99-1.76l-.94.18c-.4.09-.82.18-1.07.2v16.36c0 .63.57 1.02 1.24 1.02zM19 30a1 1 0 1 1-2 0 1 1 0 0 1 2 0zm-1 5a1 1 0 1 0 0-2 1 1 0 0 0 0 2z" fill="#3900C7"/><path d="M19.43 23.6c1.04-.78 2.36-2.23 2.7-3.05.67-1.63.98-3.74.7-5.55h-7.36c-1.07 0-1.47.47-1.47 1.54v9.11l1.25-.22.77-.13L16 25a2 2 0 0 1 3.43-1.4z" fill="#00FF01"/><path d="M27 26a1 1 0 1 1-2 0 1 1 0 0 1 2 0zm2.28 4h2.31c.51 0 .68.23.57.7-.23 1.2-1.7 2.36-2.94 2.3-1.3-.06-2.65-1.21-2.82-2.42-.05-.4.12-.58.51-.58h2.37zM32 27a1 1 0 1 0 0-2 1 1 0 0 0 0 2z" fill="#3900C7"/></svg>