<?xml version="1.0" encoding="UTF-8"?>
<!-- generated by Finnhub -->
<svg viewBox="0 0 55.5 55.5" xmlns="http://www.w3.org/2000/svg">
<path d="M 0,0 H 55.5 V 55.5 H 0 Z" fill="rgb(239, 242, 248)"/>
<path d="M 5.99,25.805 A 4.86,4.86 0 0,1 10.89,21 H 11.11 A 4.87,4.87 0 0,1 15.93,25 H 13.83 A 3,3 0 0,0 11,23 C 9.34,23 8,24.33 8,25.97 V 30.03 A 2.98,2.98 0 0,0 11,33 C 12.66,33 14,31.67 14,30.03 V 29 H 11 V 27 H 16 V 30.18 A 4.86,4.86 0 0,1 11.11,35 H 10.89 A 4.86,4.86 0 0,1 6,30.18 V 25.82 Z M 18,35 V 21 H 23.69 A 3.86,3.86 0 0,1 27.5,25 A 3.94,3.94 0 0,1 24.93,28.8 L 28,35 H 25.6 L 22.76,29 H 20 V 35 H 18 Z M 23.38,23 H 20 V 27 H 23.38 C 24.55,27 25.5,26.1 25.5,25 S 24.55,23 23.38,23 Z M 30.28,31.54 L 29,33.12 C 30.32,34.07 32.48,35 34.02,35 C 35.55,35 39,34.48 39,31.03 C 39,27.57 36.24,27.19 34.43,27 C 32.62,26.82 31.76,26.17 31.76,25.25 C 31.76,24.32 32.19,23.06 34.02,23.06 C 35.48,23.06 36.86,23.81 37.37,24.18 L 38.59,22.43 C 33.08,19.15 29.71,22.17 29.71,24.9 C 29.71,27.63 31.91,29.03 33.92,29.03 C 35.93,29.03 36.94,29.8 36.94,30.83 C 36.94,31.84 36.34,32.97 34.2,32.97 A 6.9,6.9 0 0,1 30.29,31.54 Z M 40,26.02 A 5.01,5.01 0 0,1 45,21 C 47.76,21 50,23.25 50,26.02 V 29.98 A 5.01,5.01 0 0,1 45.17,35 V 33.14 L 48,31.42 V 26.6 L 44.98,24 L 42,26.6 V 31.42 L 44.84,33.14 V 35 A 5.01,5.01 0 0,1 40,29.98 V 26.02 Z M 45.26,25.1 L 45.33,25.06 C 45.43,25.01 45.45,24.87 45.37,24.8 L 45.29,24.73 C 45.19,24.63 45.03,24.7 45.03,24.84 V 24.95 C 45.03,25.07 45.15,25.15 45.26,25.1 Z M 44.58,26.47 L 43.67,25.91 A 0.16,0.16 0 0,1 43.64,25.65 L 44.56,24.83 C 44.66,24.74 44.82,24.81 44.82,24.95 V 26.33 C 44.82,26.45 44.68,26.53 44.58,26.47 Z M 43.01,26.1 L 42.51,26.54 C 42.42,26.61 42.43,26.74 42.53,26.8 L 44.56,27.97 C 44.66,28.03 44.79,27.95 44.79,27.83 V 27.13 A 0.16,0.16 0 0,0 44.71,26.99 L 43.19,26.09 A 0.15,0.15 0 0,0 43.01,26.1 Z M 42.28,28.91 V 27.31 C 42.28,27.18 42.41,27.11 42.51,27.17 L 44.71,28.41 C 44.76,28.44 44.79,28.49 44.79,28.55 V 30.15 C 44.79,30.26 44.66,30.35 44.56,30.28 L 42.36,29.05 A 0.16,0.16 0 0,1 42.28,28.91 Z M 42.28,29.6 V 29.9 C 42.28,29.97 42.31,30.02 42.36,30.05 L 44.56,31.28 C 44.66,31.34 44.79,31.26 44.79,31.14 V 30.84 A 0.16,0.16 0 0,0 44.71,30.7 L 42.51,29.46 C 42.41,29.4 42.28,29.48 42.28,29.6 Z M 42.28,30.63 V 31.23 C 42.28,31.29 42.31,31.34 42.36,31.37 L 44.56,32.6 C 44.66,32.66 44.79,32.58 44.79,32.46 V 31.88 A 0.16,0.16 0 0,0 44.71,31.74 L 42.51,30.5 C 42.41,30.44 42.28,30.51 42.28,30.63 Z M 45.11,27.83 V 25.71 C 45.11,25.66 45.14,25.61 45.18,25.58 L 45.75,25.21 A 0.15,0.15 0 0,1 45.93,25.23 L 47.36,26.51 C 47.44,26.59 47.43,26.71 47.34,26.77 L 45.34,27.97 C 45.24,28.03 45.11,27.95 45.11,27.83 Z M 45.12,28.51 V 28.92 C 45.12,29.04 45.25,29.12 45.35,29.06 L 47.58,27.75 A 0.16,0.16 0 0,0 47.66,27.61 V 27.26 C 47.66,27.14 47.53,27.06 47.43,27.12 L 45.2,28.37 A 0.16,0.16 0 0,0 45.12,28.51 Z M 45.12,30.19 V 29.59 C 45.12,29.54 45.15,29.49 45.19,29.45 L 47.43,28.18 C 47.53,28.12 47.66,28.2 47.66,28.32 V 28.92 C 47.66,28.97 47.63,29.02 47.58,29.05 L 45.35,30.33 C 45.25,30.39 45.11,30.32 45.11,30.19 Z M 45.12,30.87 V 32.42 C 45.12,32.54 45.24,32.62 45.35,32.56 L 47.58,31.28 A 0.16,0.16 0 0,0 47.66,31.14 V 29.6 C 47.66,29.48 47.53,29.4 47.43,29.46 L 45.19,30.74 A 0.16,0.16 0 0,0 45.11,30.87 Z" fill="url(#a)"/>
<defs>
<linearGradient id="a" x1="6" x2="50" y1="28" y2="28" gradientUnits="userSpaceOnUse">
<stop stop-color="rgb(38, 153, 102)" offset=".18"/>
<stop stop-color="rgb(29, 116, 95)" offset=".6"/>
<stop stop-color="rgb(19, 73, 86)" offset="1"/>
</linearGradient>
</defs>
</svg>
