<?xml version="1.0" encoding="UTF-8"?>
<!-- generated by Finnhub -->
<svg viewBox="0 0 55.5 55.5" xmlns="http://www.w3.org/2000/svg">
<path d="M 0,0 H 55.5 V 55.5 H 0 Z" fill="rgb(42, 49, 60)"/>
<path d="M 43.99,27.985 A 16,16 0 1,1 12,28 A 16,16 0 0,1 44,28 Z" fill="rgb(252, 252, 251)"/>
<path d="M 42.830000000000005,27.985 A 14.84,14.84 0 1,1 13.16,28 A 14.84,14.84 0 0,1 42.84,28 Z" fill="url(#a)"/>
<path d="M 24.27,36.775 A 14.84,14.84 0 0,0 38.4,17.43 A 14.84,14.84 0 1,1 13.85,32.52 A 14.8,14.8 0 0,0 24.27,36.79 Z" fill="rgb(175, 175, 174)" opacity=".7"/>
<path d="M 40.99,27.985 A 5,5 0 1,1 31,28 A 5,5 0 0,1 41,28 Z" fill="rgb(25, 42, 75)"/>
<path d="M 39.99,27.585 A 4.36,4.36 0 1,1 31.27,27.6 A 4.36,4.36 0 0,1 40,27.6 Z" fill="rgb(83, 114, 171)"/>
<path d="M 38.14,25.685 A 3.25,3.25 0 0,0 33.69,30.16 A 3.25,3.25 0 1,1 38.15,25.69 Z" fill="rgb(168, 187, 223)"/>
<defs>
<linearGradient id="a" x1="22.06" x2="37.32" y1="23.69" y2="39.27" gradientUnits="userSpaceOnUse">
<stop stop-color="rgb(252, 252, 251)" offset="0"/>
<stop stop-color="rgb(200, 200, 199)" offset=".68"/>
</linearGradient>
</defs>
</svg>
