<?xml version="1.0" encoding="UTF-8"?>
<!-- generated by Finnhub -->
<svg viewBox="0 0 55.5 55.5" xmlns="http://www.w3.org/2000/svg">
<path d="M 0,0 H 55.5 V 55.5 H 0 Z" fill="rgb(239, 242, 248)"/>
<path d="M 25.88,22.384999999999998 C 22.09,22.4 20.74,24.63 20.53,25.75 C 19.27,26.25 17.36,25.99 19.73,21.01 C 22.72,14.79 34.66,15.61 36.31,16.25 C 37.95,16.91 44.69,22.05 44.69,30.19 C 44.69,36.69 38.34,41.57 35.17,43.19 C 35.85,41.99 37.21,38.66 37.21,34.94 C 37.21,25.77 30.63,22.39 25.89,22.39 Z" fill="url(#d)"/>
<path d="M 18.79,27.765 C 17.54,27.78 17.21,27.43 17.2,27.23 C 17.17,27.89 16.57,29.38 14.28,29.38 C 11.94,29.38 11,27.14 11,25.43 S 12.64,11 27.39,11 C 42.13,11 45,23.87 45,27.14 C 45,29.75 44.54,31.77 44.3,32.44 C 45.87,24.52 39.17,16.92 29.94,16.92 C 20.7,16.92 20.54,24.92 20.54,25.42 C 20.54,25.93 20.48,27.78 18.8,27.78 Z" fill="url(#c)"/>
<path d="M 22.889999999999997,33.845 C 19.05,36.87 13.8,36.02 11.65,35.22 C 12.93,38.02 17.52,43.86 25.62,44.85 C 28.1,43.83 33.06,40.3 33.06,34.35 C 33.06,26.8 27.83,24.13 25.22,23.75 C 26.88,25.59 27.72,30.08 22.9,33.85 Z" fill="url(#b)"/>
<path d="M 32.760000000000005,44.135 C 31.47,44.8 28.36,44.99 26.97,45 C 28.59,43.95 32.12,40.92 33.25,37.2 C 34.38,33.5 33.4,30.1 32.77,28.88 C 33.79,29.61 35.84,32.02 35.84,35.83 A 14,14 0 0,1 32.77,44.15 Z" fill="url(#a)"/>
<defs>
<linearGradient id="d" x1="21.97" x2="31.33" y1="22.05" y2="43.34" gradientUnits="userSpaceOnUse">
<stop stop-color="rgb(32, 174, 207)" offset="0"/>
<stop stop-color="rgb(32, 174, 209)" offset="1"/>
</linearGradient>
<linearGradient id="c" x1="10.18" x2="44.16" y1="25.88" y2="25.88" gradientUnits="userSpaceOnUse">
<stop stop-color="rgb(40, 79, 160)" offset=".08"/>
<stop stop-color="rgb(27, 222, 234)" offset="1"/>
</linearGradient>
<linearGradient id="b" x1="32.53" x2="13.74" y1="29.47" y2="33.79" gradientUnits="userSpaceOnUse">
<stop stop-color="rgb(13, 22, 154)" offset="0"/>
<stop stop-color="rgb(41, 109, 242)" offset="1"/>
</linearGradient>
<linearGradient id="a" x1="36.46" x2="31.58" y1="32.03" y2="45.07" gradientUnits="userSpaceOnUse">
<stop stop-color="rgb(18, 26, 155)" offset="0"/>
<stop stop-color="rgb(37, 97, 231)" offset="1"/>
</linearGradient>
</defs>
</svg>
