<!-- by Finnhub --><svg width="56" height="56" viewBox="0 0 56 56" fill="none" xmlns="http://www.w3.org/2000/svg">
<rect width="56" height="56" fill="#F0F3FA"/>
<path d="M15.5725 20.0003H5V23H15.1818C17.9192 23 19.2193 24.4086 19.7141 24.9825L22.6294 23.2609C20.7337 20.6107 17.1349 19.983 15.5725 20.0003Z" fill="url(#paint0_linear_229_19489)"/>
<path fill-rule="evenodd" clip-rule="evenodd" d="M23.9999 27V28V28.3728V34H15.5254C12.565 33.8065 10.778 31.4822 10.5849 28.9667C10.4305 26.9543 11.3787 25.4837 11.8721 25H7.77034C6.86934 26.6254 6.96587 29.0957 7.12676 30.1277C8.105 35.8037 13.1334 37.0722 15.5254 36.9969H23.9999V37H33.4999C35.9852 37 37.9999 34.9853 37.9999 32.5C37.9999 30.4403 36.6161 28.7038 34.7274 28.1695C36.2528 27.4994 36.9194 26.177 37.1091 24.7693C37.2782 23.5145 38.575 22.9717 39.2022 23H40.9999V37H43.9999V23H46.7924C47.6382 21.1177 49.9498 20.3109 50.9998 20H19.5184C22.0386 20.814 23.3734 22.244 23.7258 23H30.7663C31.6543 22.9364 33.4345 23.4763 33.4514 25.0025C33.4683 26.5287 31.6684 27.0071 30.7663 27H23.9999ZM32.7111 30H26.9999V34H32.7111C33.8156 34 34.7111 33.1046 34.7111 32C34.7111 30.8954 33.8156 30 32.7111 30ZM21.9978 27.0014H14.9999V30H18.9999V32H21.9978V27.0014Z" fill="#1D143E"/>
<defs>
<linearGradient id="paint0_linear_229_19489" x1="5" y1="21.2038" x2="21.1468" y2="23.5693" gradientUnits="userSpaceOnUse">
<stop stop-color="#25807B"/>
<stop offset="0.565195" stop-color="#236268"/>
<stop offset="1" stop-color="#1F1A3C"/>
</linearGradient>
</defs>
</svg>
