<?xml version="1.0" encoding="UTF-8"?>
<!-- generated by Finnhub -->
<svg viewBox="0 0 55.5 55.5" xmlns="http://www.w3.org/2000/svg">
<path d="M 0,0 H 55.5 V 55.5 H 0 Z" fill="rgb(239, 242, 248)"/>
<path d="M 33.61,20.405 C 29.3,20.67 25.46,23.18 21.87,25.65 A 9.28,9.28 0 0,1 15.62,27.25 A 31.4,31.4 0 0,1 8.59,25.79 A 0.18,0.18 0 0,1 8.53,25.67 L 8.54,25.6 C 10.69,18.96 18.43,15.89 24.49,15.2 C 31.49,14.42 39.72,15.8 44.99,21.1 A 0.07,0.07 0 0,1 45.01,21.18 L 44.98,21.21 H 44.94 A 64.06,64.06 0 0,0 33.62,20.41 Z" fill="rgb(94, 119, 50)"/>
<path d="M 45.13,21.884999999999998 C 43,22.15 40.69,22.84 38.67,23.6 C 36.57,24.4 35.29,25.52 33.79,27.45 C 30.07,32.25 26.29,37.77 20.09,39.23 C 19.34,39.41 18.59,39.39 17.85,39.19 C 15.35,38.49 13.14,37.29 11.2,35.61 C 8.81,33.53 7.42,30.51 8.23,27.25 A 0.15,0.15 0 0,1 8.3,27.16 A 0.13,0.13 0 0,1 8.42,27.16 C 11.49,28.47 14.98,29.49 18.24,29.26 C 20.37,29.11 22.61,27.46 24.42,26.17 C 26.87,24.44 29.49,22.62 32.35,21.93 C 33.21,21.73 34.47,21.61 36.12,21.58 C 38.96,21.53 41.37,21.53 43.35,21.57 A 14.33,14.33 0 0,1 45.18,21.78 A 0.07,0.07 0 0,1 45.18,21.88 A 0.07,0.07 0 0,1 45.14,21.9 Z" fill="rgb(142, 198, 72)"/>
<path d="M 36.88,27.125 C 39.28,24.67 42.68,23.29 46.01,22.54 A 0.2,0.2 0 0,1 46.12,22.54 C 46.16,22.56 46.2,22.58 46.22,22.62 A 8.87,8.87 0 0,1 48,28.48 C 47.75,32.95 44.15,36.33 40.52,38.17 C 34.57,41.19 27.62,41.65 21.2,40.23 L 21.18,40.21 A 0.05,0.05 0 0,1 21.18,40.15 L 21.21,40.14 C 28.51,39.7 31.66,35.22 35.27,29.39 C 35.92,28.35 36.47,27.59 36.9,27.14 Z" fill="rgb(34, 95, 63)"/>
</svg>
