<?xml version="1.0" encoding="UTF-8"?>
<!-- generated by Finnhub -->
<svg viewBox="0 0 55.5 55.5" xmlns="http://www.w3.org/2000/svg">
<path d="M 0,0 H 55.5 V 55.5 H 0 Z" fill="rgb(239, 242, 248)"/>
<path d="M 43.68,24.985 C 42.56,30.31 38.51,31.96 35.31,32 C 28.38,32 24.43,29 19.06,29 C 14.8,29 13,32.67 13,34.25 C 13,34.43 13.05,34.59 13.1,34.7 C 15.53,40.18 21.4,44 28.05,44 A 16.2,16.2 0 0,0 40.55,38.27 C 38.28,39.97 34.97,42 30.75,42 C 28.33,42 27,41.47 27,40.4 C 27,38.03 30.25,38.94 32.06,38.94 C 38.25,38.94 44,34.94 44,28.56 C 44,27.7 43.9,26.03 43.69,25 Z" fill="url(#b)"/>
<path d="M 12.42,30.985 C 12.43,26.37 16.29,24 19.75,24 C 24.52,24 29.85,27 35.81,27 C 40.6,27 43,23.88 43,22.28 C 43,22.07 42.96,21.88 42.9,21.74 A 16.01,16.01 0 0,0 28.1,12 C 23.1,12 18.6,14.21 15.52,18 C 17.81,16.21 21.15,14 25.39,14 C 27.98,14 29,15.11 29,15.94 C 29,18.06 25.6,17 23.75,17 C 19.06,17 12,19.94 12,27.69 C 12,28.5 12.19,30.25 12.43,31 Z" fill="url(#a)"/>
<defs>
<linearGradient id="b" x1="28.25" x2="29.01" y1="43.93" y2="13.53" gradientUnits="userSpaceOnUse">
<stop stop-color="rgb(1, 72, 116)" offset=".18"/>
<stop stop-color="rgb(0, 75, 115)" offset=".2"/>
<stop stop-color="rgb(3, 86, 114)" offset=".29"/>
<stop stop-color="rgb(4, 89, 113)" offset=".4"/>
<stop stop-color="rgb(19, 103, 116)" offset=".46"/>
<stop stop-color="rgb(70, 149, 125)" offset=".71"/>
</linearGradient>
<linearGradient id="a" x1="27" x2="27.82" y1="43.89" y2="12.08" gradientUnits="userSpaceOnUse">
<stop stop-color="rgb(4, 89, 113)" offset=".4"/>
<stop stop-color="rgb(19, 103, 116)" offset=".46"/>
<stop stop-color="rgb(70, 149, 125)" offset=".71"/>
<stop stop-color="rgb(102, 178, 131)" offset=".9"/>
<stop stop-color="rgb(114, 189, 133)" offset="1"/>
</linearGradient>
</defs>
</svg>
