<!-- by Finnhub --><svg width="56" height="56" viewBox="0 0 56 56" xmlns="http://www.w3.org/2000/svg"><path fill="#F0F3FA" d="M0 0h56v56H0z"/><path d="M24 13h-9v30h9v-6.5c0-.64.33-1.06.83-1.45a3.38 3.38 0 0 0 1.08-3.91l1.66-.74a2 2 0 0 0 2.88-.02l1.58 1.28A1.5 1.5 0 0 0 32 32v11h9V13h-9v10.2c-.43.2-.8.5-1.06.89l-2-.4a1 1 0 1 0-.04.75l1.7.34a2.5 2.5 0 0 0 .43 2.26l-.58.58A2 2 0 0 0 27 29a2 2 0 0 0 .15.76l-1.59.71a3.33 3.33 0 0 0-6.1 1.9A3.38 3.38 0 0 0 21 35.23c.46.35.99.73.99 1.27V41h-5V15h5v9c0 .38.1 1 1 1s1-.63 1-1V13Zm9 18c-.2 0-.36.03-.5.08l-1.65-1.33a2 2 0 0 0 .01-1.48l.71-.72A2.5 2.5 0 1 0 34 23.21V15h5v26h-5v-8.88c0-.37-.1-1.12-1-1.12Z" fill="url(#arrc0jswk)"/><defs><linearGradient id="arrc0jswk" x1="16.49" y1="29.88" x2="38.77" y2="29.88" gradientUnits="userSpaceOnUse"><stop stop-color="#03ACCB"/><stop offset="1" stop-color="#56B94D"/></linearGradient></defs></svg>