<?xml version="1.0" encoding="UTF-8"?>
<!-- generated by Finnhub -->
<svg viewBox="0 0 55.5 55.5" xmlns="http://www.w3.org/2000/svg">
<path d="M 0,0 H 55.5 V 55.5 H 0 Z" fill="rgb(239, 242, 248)"/>
<path d="M 12.8,32.885 L 12.56,32.73 C 10.84,31.69 9.2,29.98 8.84,27.96 L 8.78,27.6 C 8.34,24.59 11.81,22.04 13.98,20.8 C 19.7,17.56 26.8,16.87 33.26,17.6 A 60.79,60.79 0 0,1 41.23,19.14 V 19.12 C 41.23,19.09 41.23,19.07 41.19,19.06 L 40.62,18.83 C 38.24,17.76 35.84,16.82 33.25,16.41 A 37.06,37.06 0 0,0 14.93,18.3 C 14.21,18.57 13.51,18.89 12.81,19.24 C 9.2,21.08 5.71,24.62 7.47,28.93 C 8.3,30.98 10.82,32.16 12.69,32.93 H 12.75 C 12.78,32.9 12.8,32.89 12.81,32.9 Z M 12.81,32.9 Z M 36.68,21 H 31 L 39.9,35.9 L 39.76,37 H 45 L 35.9,21.74 L 36.68,21 Z M 35.56,33.92 L 32,37 H 36.13 V 36.32 L 35.5,36.36 L 35.57,33.92 Z M 40.18,21.74 L 39.52,21 H 44.55 L 40.35,24.7 L 40.18,21.74 Z M 17,31.77 V 21 C 20.06,21.16 20,22.72 20,22.72 V 28 H 27 V 23.33 C 27.2,20.81 30,21 30,21 V 37 H 27 V 31 H 18.1 L 17,31.77 Z M 21,35 A 2,2 0 1,1 17,35 A 2,2 0 0,1 21,35 Z" fill="rgb(229, 32, 42)"/>
</svg>
