<!-- by Finnhub --><svg width="56" height="56" viewBox="0 0 56 56" xmlns="http://www.w3.org/2000/svg"><path fill="#039" d="M0 0h56v56H0z"/><path fill-rule="evenodd" d="M38.44 39.18c-.13 1.43-.79 3.82-2.64 3.82-2.47 0-3.1-5.55-3.02-7.28.08-1.4.62-6.53.88-8.93-.51.15-1.68.54-2.26.93.1 5-1.57 15.01-9.17 15.01-9.5 0-9.26-13.46-9.22-15.22.03-1.75.87-8.69 7.63-11.46.63-1.04 2.24-3.04 4.41-3.04.37-.05 1.45.17 2.8 1.4 1.7 1.53 3.7 1.8 5.28.82.57-.36.95-.63 1.25-.85.43-.3.7-.5 1.13-.65.2-.07.38.08.38.29 0 .2-.18.35-.37.38-.65.1-1.66.7-2.4 2.63-.89 2.35-1.52 7.49-1.72 9.76-.05.13 0 .31.58 0 .59-.3 1.42-.64 1.76-.77.23-1.82 1.08-6.17 2.63-9 1.95-3.53 3.32-3.54 4.04-3.54.71 0 1.59 1.15 1.59 2.41 0 1.27-1.39 1.41-1.6.18-.06-.37-.07-.67-.08-.92-.03-.6-.04-.86-.63-.86-.85 0-2.28 2.01-4 11.26.3-.05 1.05 0 1.62.6.35.36.56.62.68.77.07.1.04.24-.05.31-.14.12-.34.08-.45-.06-.35-.44-1-1-1.8-.93-.4 2.28-1.16 7.56-1.16 10.43 0 3.59.1 5.62 1.53 5.62 1.06 0 1.66-1.98 1.87-3.16a.28.28 0 0 1 .27-.22c.15 0 .26.12.24.27ZM27.16 19.15a5.72 5.72 0 0 0-5.58-3.33 3.64 3.64 0 0 1 3.17-1.94c1.03 0 2.2.75 3.33 1.47 1.02.65 1.99 1.27 2.76 1.27 1.24 0 1.92-.4 2.14-.62-2.02 2.21-3.18 8.73-3.5 11.72h-.7c.11-1.59-.05-5.52-1.62-8.57ZM33 15.98l-.02.02.02-.02Zm-11.83.58c-.31.45-.94 2.2-.94 5.62 0 4.28 2.53 6.14 4 6.14 1.17 0 2.17-1.07 2.53-1.6-.04-.2-.12-.74-.14-1.27-.03-.66.2-.82.49-.82s.41.44.41 1c0 .44-.1.95-.16 1.15l.8.9c.49-3.75-.23-11.22-6.99-11.12Zm7.4 11.73c.16.04.56.1.82 0-.43 4.6-2.56 13.83-7.63 13.83-6.33 0-7.93-8.76-7.93-14.19s3.22-9.74 6.68-11.23c-.28.66-.84 2.59-.84 5.06 0 3.08 1.83 7.24 4.6 7.24 1.4 0 2.4-1.1 2.73-1.65.16.16.57.56.98.8-.52 2.29-2.35 6.85-5.45 6.85-3.74 0-4.69-5.14-4.28-7.89a.31.31 0 0 0-.23-.35.29.29 0 0 0-.35.26c-.26 3.09.38 8.67 4.86 8.67 4.65 0 5.96-4.93 6.04-7.4Z" fill="#FCFFF4"/></svg>