<?xml version="1.0" encoding="UTF-8"?>
<!-- generated by Finnhub -->
<svg viewBox="0 0 55.5 55.5" xmlns="http://www.w3.org/2000/svg">
<path d="M 0,0 H 55.5 V 55.5 H 0 Z" fill="url(#a)"/>
<path d="M 20.93,28.985 V 23.17 A 9.9,9.9 0 0,1 22.72,23 C 23.66,23 25.22,23.22 25.22,24.84 S 23.79,27.08 22.32,26.88 V 29 H 20.94 Z M 22.29,25.85 V 24.18 C 22.34,24.14 22.52,24.06 22.89,24.06 C 23.34,24.06 23.88,24.23 23.88,24.91 C 23.88,25.58 23.48,25.85 22.29,25.85 Z M 9.64,29 L 11.46,23 H 13.23 L 15.08,29 H 13.62 L 13.35,28 H 11.3 L 11.05,29 H 9.65 Z M 11.56,27 H 13.08 L 12.3,24.11 L 11.56,27 Z M 5.3,23 H 4 V 29 H 5.3 V 27 H 7.7 V 29 H 9 V 23 H 7.7 V 26 H 5.3 V 23 Z M 16,23.17 V 29 H 17.28 V 26.88 C 18.67,27.08 20,26.46 20,24.84 S 18.55,23 17.66,23 C 16.95,23 16.26,23.11 16,23.17 Z M 17.27,24.18 V 25.85 C 18.37,25.85 18.75,25.58 18.75,24.91 C 18.75,24.23 18.25,24.06 17.82,24.06 C 17.48,24.06 17.31,24.14 17.27,24.18 Z M 25.05,23 L 26.78,26.25 C 26.88,26.45 26.93,26.65 26.93,26.88 V 29 H 28.3 V 26.89 C 28.3,26.66 28.34,26.44 28.45,26.24 L 30.25,23 H 28.73 L 27.68,25.54 L 26.62,23 H 25.05 Z M 31,28.88 V 23.18 C 31.19,23.13 31.74,23 32.46,23 C 33.36,23 34.76,23.17 34.76,24.43 C 34.76,25.18 34.03,25.65 33.67,25.79 C 34.11,25.85 35,26.23 35,27.26 C 35,28.54 33.74,29 32.55,29 C 31.59,29 31.12,28.92 31,28.88 Z M 32,25.56 V 23.68 C 32.1,23.66 32.36,23.61 32.7,23.61 C 33.1,23.61 34,23.72 34,24.53 C 34,25.47 33.1,25.61 32.72,25.61 C 32.42,25.61 32.12,25.58 32,25.56 Z M 32,28.32 V 26.15 C 32.1,26.13 32.4,26.11 32.72,26.11 C 33.13,26.11 34,26.3 34,27.17 C 34,28.17 33.1,28.37 32.72,28.37 C 32.42,28.37 32.12,28.34 32,28.32 Z M 36,23 V 29 H 39.24 V 28.37 H 37 V 26 H 39 V 25.39 H 37 V 23.68 H 39.24 V 23 H 36 Z M 40,29 V 23 H 41 V 28.37 H 43.4 V 29 H 40 Z M 44,29 V 23 H 45 V 28.37 H 48 V 29 H 44 Z M 47.07,23 L 48.87,26.35 C 48.94,26.48 49,26.62 49,26.77 V 29 H 50 V 26.78 C 50,26.63 50,26.48 50.08,26.35 L 52,23 H 51.07 L 49.5,25.86 L 48.02,23 H 47.07 Z" fill="rgb(252, 252, 251)" fill-rule="evenodd"/>
<path d="M 11.73,29.985 H 10 C 10.6,31.67 13.28,35 19.25,35 C 25.84,35 28.5,31.67 29,30 H 27.21 C 26.96,30.82 25.14,33.85 19.25,33.85 C 14.53,33.85 12.28,31.28 11.75,30 Z M 30.95,30 H 50.95 V 34 H 30.95 Z" fill="rgb(252, 252, 251)"/>
<path d="M 32.99,30.985 H 49 V 33 H 33 Z" opacity=".3"/>
<defs>
<linearGradient id="a" x1="10.42" x2="68.15" y1="9.71" y2="76.02" gradientUnits="userSpaceOnUse">
<stop stop-color="rgb(25, 29, 31)" offset="0"/>
<stop stop-color="rgb(5, 5, 8)" offset="1"/>
</linearGradient>
</defs>
</svg>
