<?xml version="1.0" encoding="UTF-8"?>
<!-- generated by Finnhub -->
<svg viewBox="0 0 55.5 55.5" xmlns="http://www.w3.org/2000/svg">
<path d="M 0,0 H 55.5 V 55.5 H 0 Z" fill="rgb(229, 1, 15)"/>
<path d="M 24.689999999999998,27.185 C 25.74,27 26.79,26.78 27.84,26.64 C 28.17,26.59 28.34,26.44 28.45,26.14 C 28.85,25.04 29.28,23.94 29.74,22.85 C 30.03,22.16 30.38,21.5 30.74,20.84 C 31.26,19.82 32.14,21.27 31.87,21.99 C 31.36,23.29 30.83,24.59 30.37,25.93 C 30.32,26.03 30.3,26.16 30.27,26.29 C 30.76,26.4 31.27,26.43 31.48,27.05 C 31.16,27.1 30.87,27.18 30.58,27.19 C 30.08,27.21 29.84,27.45 29.72,27.94 C 29.22,29.99 28.84,32.06 28.64,34.15 C 28.5,35.8 26.54,35.62 26.7,33.94 C 26.78,33.14 26.85,32.32 27,31.53 C 27.21,30.46 27.5,29.4 27.74,28.33 L 27.86,27.79 A 36,36 0 0,0 24.44,28.84 C 24.31,28.89 24.17,29.07 24.14,29.21 C 23.87,30.38 23.61,31.54 23.39,32.73 C 23.21,33.71 23.09,34.7 22.95,35.69 C 22.87,36.28 22.65,36.99 21.89,36.66 C 21.03,36.26 20.61,35.81 20.77,34.9 C 21.02,33.44 21.33,32 21.61,30.55 L 21.73,30 C 21.57,30.07 21.45,30.1 21.35,30.16 L 20,30.94 C 18.9,31.62 18.74,29.54 19.6,29.05 C 20.24,28.67 20.92,28.35 21.63,28.11 C 22.17,27.93 22.44,27.65 22.61,27.1 A 32.5,32.5 0 0,1 26.34,18.78 C 26.86,18 27.94,19.21 27.61,19.91 A 84.58,84.58 0 0,0 24.76,26.89 L 24.7,27.19 Z M 34.9,25.33 C 34.8,25.78 34.85,26.17 35.1,26.54 C 35.27,26.8 35.21,27.04 35.08,27.3 A 15.15,15.15 0 0,0 33.59,31.59 C 33.55,31.85 33.54,32.13 33.55,32.39 C 33.57,32.99 33.96,33.33 34.55,33.2 C 35.34,33.01 35.7,32.42 36.15,31.8 C 36.3,31.62 36.37,31.46 36.63,31.56 C 36.65,31.58 36.66,31.69 36.65,31.74 C 36.2,32.9 35.35,34.05 34.21,34.28 C 32.74,34.58 31.65,33.44 31.64,32.03 C 31.64,30.58 32.22,29.25 32.55,27.87 C 32.67,27.4 32.75,26.92 32.82,26.44 C 32.87,26.02 33.19,25.9 33.56,25.81 C 34.2,25.66 34.35,25.52 34.43,24.87 C 34.49,24.45 34.73,23.49 34.1,23.46 A 0.53,0.53 0 0,1 33.58,22.9 C 33.58,22.61 33.77,22.4 34.08,22.34 C 35.18,22.12 35.04,24.78 34.9,25.34 Z" fill="rgb(254, 254, 253)"/>
<path d="M 27.99,40.985 C 29.65,41 28.5,42.5 28.5,42.5 C 34.8,41.6 41,34.55 41,28 A 13,13 0 1,0 28,41 Z M 28,44 A 16,16 0 1,0 28,12 A 16,16 0 0,0 28,44 Z" fill="rgb(254, 254, 253)" fill-rule="evenodd"/>
</svg>
