<?xml version="1.0" encoding="UTF-8"?>
<!-- generated by Finnhub -->
<svg viewBox="0 0 55.5 55.5" xmlns="http://www.w3.org/2000/svg">
<path d="M0 0h55.5v55.5H0z" fill="rgb(239, 242, 248)"/>
<path d="M50.97 31.48c-.94-3-12.03-6.9-17.46-8.48.45.13 12.28 4.47 11.74 6.82-1.38 3.16-25.15-.86-34.63-3.29l-.13.15c.1.11.3.33.45.33 7.6 3.02 41.2 8.23 40.03 4.47Z" fill="rgb(15, 15, 205)"/>
<path d="M5.04 24.52c.94 3 11.94 6.9 17.33 8.48-.44-.13-12.19-4.47-11.65-6.82 1.37-3.16 24.95.86 34.37 3.29l.12-.15c-.08-.11-.3-.33-.44-.33-7.54-3.02-40.9-8.23-39.73-4.47Z" fill="rgb(202, 14, 14)"/>
<path d="M50.42 30.58c.27.3.46.6.55.9.77 2.46-13.33 1.08-25.31-1l.36.03c2.62.29 16.74 1.81 20.41 1.46 2.67-.26 3.75-.7 3.99-1.4Z" fill="rgb(5, 0, 125)"/>
<path d="M43.58 31.66c-1.13.26-5.3-.11-7.23-.33 1.54.06 5 .15 6.49 0 1.86-.18 2.93-1.68 3.11-1.33.19.35-.97 1.33-2.37 1.66Z" fill="url(#b)"/>
<path d="M42.97 26.64c.97.39 2.97 1.39 3.14 2.27.2 1.11-1.36-1.4-3.14-2.27Z" fill="rgb(73, 75, 247)"/>
<path d="M5.12 24.73c1.65-.32 5.17-.83 8.6-.73 4.05.13 8.54.64 11.46 1.77 7.17.92 15.26 2.5 19.9 3.7l.13-.15c-.08-.11-.3-.33-.44-.33-7.54-3.02-40.9-8.23-39.73-4.47l.08.21Z" fill="url(#a)"/>
<path d="M5.49 23.8c-.17 0-.4.29-.49.43.18.05.6.21.85.47.3.32.42-.18.56-.38.14-.2-.47-.23-.7-.16-.22.07-.01-.36-.22-.36Z" fill="rgb(254, 223, 224)"/>
<path d="M22.37 33c-5.39-1.57-16.4-5.47-17.33-8.48a.56.56 0 0 1-.01-.32 9.47 9.47 0 0 0 2.68 2.18 53.27 53.27 0 0 0 5.58 2.96c-1.23-.82-3.62-2.73-3.3-3.8.37-1.28 7.55-2.23 13.6.03-6.68-.77-12.23-.87-12.87.61-.54 2.35 11.2 6.69 11.65 6.82Z" fill="rgb(120, 17, 17)"/>
<defs>
<linearGradient id="b" x1="45.47" x2="41.1" y1="30.41" y2="31.51" gradientUnits="userSpaceOnUse">
<stop stop-color="rgb(241, 248, 253)" offset="0"/>
<stop stop-color="rgb(241, 248, 253)" stop-opacity="0" offset="1"/>
</linearGradient>
<linearGradient id="a" x1="8.91" x2="32.5" y1="23.93" y2="26.28" gradientUnits="userSpaceOnUse">
<stop stop-color="rgb(234, 73, 62)" offset="0"/>
<stop stop-color="rgb(173, 117, 117)" offset="1"/>
</linearGradient>
</defs>
</svg>
