<!-- by Finnhub --><svg xmlns="http://www.w3.org/2000/svg" width="56" height="56"><path fill="#F0F3FA" d="M0 0h56v56H0z"/><path d="M28.06 11.6a2.71 2.71 0 013.85.45c.68.86 1.8 1.23 2.86.95 1.45-.39 2.96.5 3.33 1.96A2.73 2.73 0 0040.32 17a2.71 2.71 0 012.25 3.14 2.71 2.71 0 001.2 2.75 2.7 2.7 0 01.77 3.78 2.7 2.7 0 00-.03 3 2.7 2.7 0 01-.84 3.76 2.7 2.7 0 00-1.24 2.72 2.7 2.7 0 01-2.3 3.1 2.72 2.72 0 00-2.25 1.97 2.7 2.7 0 01-3.37 1.9 2.73 2.73 0 00-2.87.89 2.71 2.71 0 01-3.85.36 2.73 2.73 0 00-3-.34c-1.34.68-3 .13-3.66-1.23a2.73 2.73 0 00-2.6-1.53c-1.5.08-2.8-1.1-2.85-2.6a2.73 2.73 0 00-1.74-2.45 2.71 2.71 0 01-1.55-3.54 2.7 2.7 0 00-.6-2.93 2.7 2.7 0 01.04-3.86 2.7 2.7 0 00.64-2.92c-.54-1.4.2-3 1.61-3.5a2.7 2.7 0 001.79-2.4 2.7 2.7 0 012.9-2.56c1.08.08 2.12-.5 2.61-1.47a2.71 2.71 0 013.7-1.15c.95.52 2.14.4 2.98-.28z" fill="url(#aaqncapzs)"/><ellipse cx="28.11" cy="28.09" rx="15.11" ry="15.16" fill="url(#baqncapzs)"/><ellipse cx="28.11" cy="28.09" rx="13.15" ry="13.2" fill="url(#caqncapzs)"/><path fill-rule="evenodd" d="M28.1 43.67c8.58 0 15.53-6.98 15.53-15.58S36.68 12.51 28.1 12.51A15.55 15.55 0 0012.59 28.1c0 8.6 6.95 15.58 15.52 15.58zm0-.42c8.35 0 15.11-6.78 15.11-15.16 0-8.37-6.76-15.16-15.1-15.16S13 19.72 13 28.09c0 8.38 6.76 15.16 15.1 15.16z" fill="#D5D5D5"/><path fill-rule="evenodd" d="M28 41.5a13.5 13.5 0 100-27 13.5 13.5 0 000 27zm0-.5a13 13 0 100-26 13 13 0 000 26z" fill="#D5D5D5"/><path d="M28 37a9 9 0 100-18 9 9 0 000 18zm.1-.51a8.37 8.37 0 008.36-8.4c0-4.64-3.74-8.4-8.35-8.4a8.37 8.37 0 00-8.35 8.4c0 4.64 3.74 8.4 8.35 8.4z" fill="url(#daqncapzs)"/><circle cx="28" cy="28" r="8.5" fill="url(#eaqncapzs)"/><path d="M29.48 24.02c0 2.21-.63 4.01-1.4 4.01-.78 0-1.41-1.8-1.41-4.01 0-.85.3-2.55 1.4-4.02 1 1.45 1.4 2.86 1.4 4.02z" fill="url(#faqncapzs)"/><path d="M32.32 27.27c-2.03 1.06-3.97 1.4-4.34.74-.38-.66.97-2.05 3-3.1.77-.4 2.47-.96 4.35-.74a7.63 7.63 0 01-3 3.1z" fill="url(#gaqncapzs)"/><path d="M25.03 24.88c2.01 1.08 3.34 2.49 2.96 3.14-.38.65-2.32.3-4.34-.79a7.57 7.57 0 01-2.96-3.14c1.8-.12 3.29.22 4.34.79z" fill="url(#haqncapzs)"/><path d="M29.48 31.98c0-2.21-.63-4.01-1.4-4.01-.78 0-1.41 1.8-1.41 4.01 0 .85.3 2.55 1.4 4.02 1-1.45 1.4-2.86 1.4-4.02z" fill="url(#iaqncapzs)"/><path d="M32.32 28.73c-2.03-1.06-3.97-1.4-4.34-.74-.38.66.97 2.05 3 3.1.77.4 2.47.96 4.35.74a7.63 7.63 0 00-3-3.1z" fill="url(#jaqncapzs)"/><path d="M25.03 31.12c2.01-1.08 3.34-2.49 2.96-3.14-.38-.65-2.32-.3-4.34.79a7.57 7.57 0 00-2.96 3.14c1.8.12 3.29-.22 4.34-.79z" fill="url(#kaqncapzs)"/><path d="M28.42 15.91h-1.48v.17l.28.04.04 2.11-.27.03v.14l1.16-.02v-.15l-.34-.04-.06-2.07c.58-.07.69.28.67.46 0 .48-.33.49-.5.44l-.05.06.07.14h.13c.38-.02.86-.15.86-.74 0-.47-.34-.57-.51-.57zm2.48.28l1.1.3-.06.16-.27-.07-.57 2.03.29.13-.06.14-1.1-.3.05-.15.28.05.58-2.03-.29-.1.05-.16zm.75 2.72l.06-.13.3.13.97-1.89-.22-.16.06-.13.64.35.47 2.28.74-1.41-.23-.17.07-.13.73.4-.07.14-.25-.1-1.14 2.02-.27-.2-.5-2.41-.79 1.51.23.16-.07.14-.73-.4zm4.52 2.9v-.05c-.28-.07-.86-.43-.94-.93-.13-.85.83-1.47 1.32-1.26.49.22.65.55.65.85l-.2.25.1.1.48-.37a2.59 2.59 0 00-.76-.95c-.55-.41-1.27-.46-1.81.23-.55.68-.06 1.5.3 1.82.3.25.57.36.67.39l.19-.07zM30.49 38l.31 1.39a12.55 12.55 0 005-2.45 13.95 13.95 0 003.44-4.66l-.92-.33c-.4.65-1.2 1.97-1.32 2.09l-.32-.26-.5.78.24.37-1.16 1.06-.37-.41-.33.47.16.42c-.6.39-1.96 1.21-2.63 1.4a1.1 1.1 0 00-.77-.15c-.3.08-.68.22-.83.28zm-6.06-.47L24 38.9c.75.26 2.53.78 3.66.79h1.3l.07.48.51-.04-.09-.44c.2-.08.57-.36.5-.81-.08-.45-.78-.36-1.13-.26-.6.04-2.02.04-2.87-.26l.08-.37-1.61-.46zm-3.15-1.27l.18-.28.94.36-.29.45 1.18.7c.18.11.24.26.24.31l-.38.77a46.77 46.77 0 01-2.4-1.53c-.06-.09.27-.49.44-.67l-.12-.11h.2zm1.47-19.2l.8-.27 1.37 1.4.23-1.93.78-.25.05.12-.25.13.66 2 .26-.06.06.15-1.06.35-.04-.15.26-.12-.56-1.72-.27 2.23-.12.04-1.53-1.62.58 1.7.28-.05.05.13-.78.27-.06-.15.28-.14-.66-1.99-.29.07-.04-.14zm-.85.56l-1.57 1.09.1.12.26-.12 1.18 1.7-.08.18.07.09 1.43-1.06-.28-.53-.15.1.15.36-.72.53-.56-.78.56-.4.2.24.13-.08-.45-.65-.14.09.14.23-.55.4-.46-.72.7-.47.2.22.1-.07-.26-.47zm17.19 9.72c0 .13 0 .26.03.36a1.34 1.34 0 00-1.06-.33 1.38 1.38 0 00.83.71 1.38 1.38 0 00-.82.71 1.34 1.34 0 001.05-.33 1.41 1.41 0 00.22 1.11 1.4 1.4 0 00.2-1.13c.1.07.2.15.33.22.18.11.44.17.76.15a1.38 1.38 0 00-.83-.73 1.38 1.38 0 00.83-.73 1.35 1.35 0 00-1.08.38 1.4 1.4 0 00-.21-1.14c-.18.27-.25.54-.25.75zm-22.34.36a1.41 1.41 0 01.22-1.11 1.4 1.4 0 01.2 1.14c.1-.08.2-.16.33-.23.18-.1.45-.17.76-.14a1.38 1.38 0 01-.83.72l.31.15c.14.07.38.28.52.58a1.35 1.35 0 01-1.08-.37 1.4 1.4 0 01-.21 1.14 1.41 1.41 0 01-.22-1.12 1.34 1.34 0 01-1.06.33 1.38 1.38 0 01.83-.7l-.3-.14c-.19-.1-.38-.3-.53-.58a1.34 1.34 0 011.06.33zm4.02-6.31l-.71-.6-.66.8.76.63.22-.2.11.1-.74.88-.1-.1.17-.22-1.63-1.37-.2.21-.13-.1.74-.88.1.1-.15.25.7.57.65-.8-.62-.52a.1.1 0 00-.13.01l-.14.14-.13-.1.74-.87.1.1-.1.16a.1.1 0 00.02.14l1.48 1.22c.03.03.09.03.13 0l.15-.14.11.1-.74.87-.1-.1.12-.15a.1.1 0 00-.02-.13zm15.93 1.1c0 .13-.1.24-.24.24a.25.25 0 01-.25-.25c0-.13.11-.24.25-.24.13 0 .24.1.24.24zM17.35 33.21c0 .07.03.22.23.18.2-.04.95-.5 1.3-.72l.17.3-.3.17c.33.53 1.17 1.74 1.83 2.32.04.07.06.26-.17.45-.22.19-.38.37-.44.43-.58-.68-1.84-2.19-2.15-2.8-.17.06-.53.08-.66-.25l.19-.08z" fill="#D5D5D5"/><path d="M28.22 13.58l-.2-.41-.2.4-.46.07.33.32-.08.45.4-.21.41.2-.08-.44.33-.32-.45-.06zm-2.52.2l-.27-.37-.13.43-.44.14.37.26v.46l.36-.28.44.15-.15-.43.27-.37h-.45zm-2.84.26l.35.3.44-.11-.18.42.25.38-.46-.04-.29.35-.1-.44-.43-.17.4-.23.02-.46zm-1.95 1.36l-.38-.26.02.46-.36.27.44.12.15.43.25-.38h.46l-.29-.36.14-.44-.43.16zm-2.59 1.23l.42.19.39-.24-.05.45.35.3-.45.1-.18.41-.23-.4-.45-.03.3-.34-.1-.44zm-1.35 1.9l-.45-.1.19.41-.24.4.46-.06.3.35.09-.45.42-.18-.4-.22-.04-.45-.33.3zm-2 2.05l.45.01.27-.37.13.44.44.14-.38.26v.45l-.36-.27-.44.14.16-.43-.27-.37zm-.64 2.25l-.45.05.32.33-.1.44.42-.2.4.23-.07-.45.34-.31-.45-.08-.2-.41-.2.4zm-1.15 2.62l.43-.15.12-.44.28.36.46-.02-.26.38.16.42-.44-.13-.35.29-.02-.46-.38-.25zm.21 2.38l-.4.22.42.19.09.44.3-.34.46.06-.24-.4.2-.4-.45.1-.33-.32-.05.45zm-.24 2.77l.36-.27-.02-.46.38.26.42-.16-.13.44.29.35-.46.01-.25.38-.15-.42-.44-.13zm1 2.2l-.3.34.45.04.23.4.18-.43.45-.09-.35-.3.05-.45-.4.24-.41-.19.1.44zm.78 2.64l.25-.38-.17-.42.44.12.35-.3.02.45.4.24-.43.17-.11.44-.29-.35-.46.03zm1.67 1.78l-.18.42.44-.11.34.3.04-.45.39-.24-.43-.16-.1-.45-.29.35-.46-.04.25.38zm1.64 2.23l.11-.44-.3-.35.45-.03.24-.39.17.42.45.1-.36.3.05.45-.4-.24-.41.18zm2.18 1.04l-.03.46.38-.25.42.17-.12-.44.3-.35-.46-.02-.24-.39-.16.43-.45.1.36.3zm2.38 1.58l-.06-.45-.4-.2.4-.2.08-.45.31.33.45-.07-.21.4.2.4-.45-.08-.32.32zm2.37.25l.14.43.26-.37h.46l-.28-.36.15-.43-.43.15-.37-.27v.45l-.37.27.44.13zm2.77.65l-.22-.4-.46-.03.3-.34-.1-.44.42.18.39-.23-.05.45.35.3-.45.1-.18.41zm2.27-.52l.29.35.1-.44.44-.16-.4-.24-.02-.46-.34.3-.45-.12.18.42-.25.38.45-.03zm2.82-.34l-.33-.31-.45.1.2-.42-.23-.4.45.07.3-.34.09.45.42.18-.4.22-.05.45zm2.02-1.36l.38.26-.03-.46.36-.28-.45-.11-.16-.43-.24.39-.46.02.3.35-.12.44.42-.18zm2.5-1.21l-.42-.18-.38.25.04-.45-.36-.29.44-.1.17-.43.24.39.45.02-.3.35.13.44zm1.44-1.9l.44.1-.18-.42.24-.38-.46.04-.3-.34-.1.44-.42.18.4.23.04.45.34-.3zm1.96-2.08h-.45l-.27.36-.13-.43-.44-.14.38-.26v-.46l.36.28.43-.15-.15.43.27.37zm.62-2.26l.46-.05-.32-.33.1-.45-.42.2-.4-.23.07.45-.34.3.45.09.18.42.22-.4zm1.17-2.53l-.44.13-.13.44-.27-.37h-.46l.28-.36-.15-.43.43.14.37-.27v.46l.37.26zm-.19-2.42l.42-.19-.4-.21-.06-.46-.33.32-.45-.1.2.42-.22.4.45-.07.31.34.08-.45zm.24-2.83l-.36.27.02.46-.38-.26-.43.16.14-.44-.3-.35.47-.01.25-.38.15.43.44.12zm-1.05-2.13l.32-.33-.45-.06-.21-.4-.2.41-.45.08.34.3-.07.46.4-.22.4.2-.08-.44zm-.7-2.75l-.23.39.18.42-.45-.11-.34.3-.03-.45-.4-.23.43-.18.1-.44.3.35.45-.05zm-1.7-1.68l.18-.43-.44.13-.36-.3-.01.46-.4.25.44.15.11.44.29-.35.45.03-.25-.38zm-1.67-2.27l-.1.44.3.34-.45.03-.23.4-.18-.42-.45-.1.35-.29-.05-.45.4.23.41-.18zm-2.14-1.01l.03-.46-.38.26-.43-.17.13.43-.3.35.46.02.24.39.16-.43.45-.1-.36-.3zm-2.34-1.62l.06.45.41.2-.41.2-.08.45-.31-.33-.45.07.22-.4-.21-.4.45.08.32-.32zm-2.4-.23l-.12-.43-.28.36-.45-.02.26.37-.16.43.44-.13.36.28v-.46l.39-.25-.44-.15z" fill="#E5D238"/><defs><linearGradient id="aaqncapzs" x1="11.94" y1="27.76" x2="44.27" y2="24.8" gradientUnits="userSpaceOnUse"><stop stop-color="#D7A827"/><stop offset="1" stop-color="#E5CE3C"/></linearGradient><linearGradient id="baqncapzs" x1="42.46" y1="27.43" x2="13.4" y2="27.43" gradientUnits="userSpaceOnUse"><stop stop-color="#202489"/><stop offset="1" stop-color="#2541C9"/></linearGradient><linearGradient id="caqncapzs" x1="39.61" y1="26.68" x2="16.26" y2="26.53" gradientUnits="userSpaceOnUse"><stop stop-color="#3C6A21"/><stop offset="1" stop-color="#2E5139"/></linearGradient><linearGradient id="daqncapzs" x1="36.53" y1="26.75" x2="19.41" y2="26.9" gradientUnits="userSpaceOnUse"><stop stop-color="#F9EE43"/><stop offset="1" stop-color="#B48D22"/></linearGradient><linearGradient id="eaqncapzs" x1="36.07" y1="28" x2="19.93" y2="28" gradientUnits="userSpaceOnUse"><stop stop-color="#D0A52E"/><stop offset="1" stop-color="#F5E641"/></linearGradient><linearGradient id="faqncapzs" x1="28.07" y1="20" x2="28.07" y2="28.03" gradientUnits="userSpaceOnUse"><stop stop-color="#1661EC"/><stop offset="1" stop-color="#050694"/></linearGradient><linearGradient id="gaqncapzs" x1="35.33" y1="24.17" x2="28.12" y2="28.26" gradientUnits="userSpaceOnUse"><stop stop-color="#135EEF"/><stop offset=".69" stop-color="#0818A5"/></linearGradient><linearGradient id="haqncapzs" x1="25.5" y1="26.61" x2="21.01" y2="24.07" gradientUnits="userSpaceOnUse"><stop stop-color="#0818A5"/><stop offset="1" stop-color="#1459E4"/></linearGradient><linearGradient id="iaqncapzs" x1="28.07" y1="31.24" x2="28.07" y2="36" gradientUnits="userSpaceOnUse"><stop stop-color="#0818A5"/><stop offset="1" stop-color="#1150DB"/></linearGradient><linearGradient id="jaqncapzs" x1="30.79" y1="29.16" x2="35.34" y2="31.65" gradientUnits="userSpaceOnUse"><stop stop-color="#0818A5"/><stop offset="1" stop-color="#145FEE"/></linearGradient><linearGradient id="kaqncapzs" x1="25.88" y1="29.36" x2="20.94" y2="32.21" gradientUnits="userSpaceOnUse"><stop stop-color="#0818A5"/><stop offset="1" stop-color="#1357E2"/></linearGradient></defs></svg>