<!-- by Finnhub --><svg width="56" height="56" viewBox="0 0 56 56" xmlns="http://www.w3.org/2000/svg"><path fill="#F0F3FA" d="M0 0h56v56H0z"/><path d="M17.5 19v8H16v-3.4h-3.5V27H11v-8h1.5v3.32H16V19h1.5ZM20.5 19v8H19v-8h1.5ZM29 27h-1.5l-4-5.44V27H22v-8h1.5l4 5.47V19H29v8ZM36.09 19v1.38H34V27h-1.5v-6.62h-2.23V19h5.82ZM40.94 27c-.74 0-1.43-.17-2.05-.51a3.89 3.89 0 0 1-2.02-3.5 3.89 3.89 0 0 1 2.02-3.48c.62-.34 1.3-.51 2.05-.51.75 0 1.43.17 2.05.51.62.35 1.1.83 1.46 1.44.37.6.55 1.28.55 2.04 0 .77-.18 1.46-.55 2.07A3.8 3.8 0 0 1 43 26.5c-.63.34-1.3.51-2.05.51Zm0-1.4c.48 0 .9-.1 1.26-.31.37-.22.65-.52.85-.92.2-.4.31-.85.31-1.38 0-.52-.1-.97-.3-1.36-.21-.4-.5-.7-.86-.9a2.5 2.5 0 0 0-1.26-.32c-.48 0-.9.1-1.28.31-.36.21-.64.51-.85.9-.2.4-.3.85-.3 1.37 0 .53.1.99.3 1.38.2.4.49.7.85.92.38.2.8.31 1.28.31ZM7.5 29.37v1.96H11v1.25H7.5v2.07H11V36H6v-8h5v1.37H7.5ZM19.5 36h-1.48l-4-5.44V36h-1.5v-8h1.5l4 5.48V28h1.48v8ZM22.5 29.37v1.96H26v1.25h-3.5v2.07H26V36h-5v-8h5v1.37h-3.5ZM31.25 36l-1.8-3.12h-.95V36H27v-8h3.1c1.46 0 2.95.88 2.95 2.5 0 1.14-.78 1.98-1.85 2.26L33.15 36h-1.9Zm-2.75-4.3h1.55c.9 0 1.45-.44 1.45-1.16 0-.73-.57-1.14-1.45-1.14H28.5v2.3ZM40.22 30.46a1.88 1.88 0 0 0-.77-.75c-.33-.18-.71-.26-1.15-.26-.48 0-.91.1-1.29.31-.37.21-.66.51-.87.9-.21.39-.32.84-.32 1.35 0 .52.1.98.32 1.36.22.4.52.7.9.9.38.21.82.32 1.33.32a2.4 2.4 0 0 0 1.53-.48c.4-.32.66-.76.79-1.33h-2.81v-1.2h4.42v1.37a3.6 3.6 0 0 1-.7 1.51c-.36.47-.82.84-1.4 1.12-.55.28-1.19.42-1.89.42-.79 0-1.5-.17-2.14-.5a3.9 3.9 0 0 1-2.03-3.5 3.79 3.79 0 0 1 2.03-3.49A4.42 4.42 0 0 1 38.3 28c.92 0 1.72.22 2.4.65a3.28 3.28 0 0 1 1.4 1.8h-1.88ZM50 28l-2.75 5.2V36h-1.5v-2.8L42.83 28h1.85l1.75 3.68L48.18 28H50Z"/></svg>