<!-- by Finnhub --><svg width="56" height="56" viewBox="0 0 56 56" xmlns="http://www.w3.org/2000/svg"><path fill="#F0F3FA" d="M0 0h56v56H0z"/><path d="M39.19 18.06c-1.67.16-2.9.5-4.25 1.14a15.08 15.08 0 0 0-5.3 4.45c-.6.8-1.31 2.05-2.54 4.52a26.33 26.33 0 0 1-1.31 2.46c-.08-.04-.88-1.43-1.67-2.87-2.71-4.94-5.55-7.95-8.54-9.07a6.73 6.73 0 0 0-1.68-.37c-.02.01.28.2.65.4a14.1 14.1 0 0 1 3.69 3c1.28 1.46 2.36 3.13 4.14 6.46a66.97 66.97 0 0 0 2.1 3.78l.32.49-.14.24-.43.63-.29.4-.58-.78a43.51 43.51 0 0 1-3.14-5.06c-2.43-4.53-5.29-7.72-8.02-8.95-.85-.38-2.27-.73-2.27-.56a13.16 13.16 0 0 1 2.28 1.42c.69.51 1.91 1.71 2.51 2.45 1.2 1.5 2.23 3.18 4.14 6.78a34.4 34.4 0 0 0 3.4 5.45l.53.64-.38.38c-.2.2-.41.37-.47.37-.14 0-1.4-1.43-2.26-2.56A39.6 39.6 0 0 1 16.3 28a32.55 32.55 0 0 0-2.1-3.48c-2.01-2.9-4.17-4.87-6.29-5.72-1.12-.45-2.55-.68-1.62-.26.16.08.73.42 1.25.76.73.47 1.2.86 1.96 1.62 1.8 1.78 2.75 3.18 5.13 7.63 2.37 4.41 3.59 6.17 5.36 7.7l.66.6a21.25 21.25 0 0 1-3.96 2.18c-.3.12-.58.25-.62.3-.1.09 1.73 0 2.9-.15 1.9-.24 4.14-.85 5.45-1.49 1.87-.9 3.83-3 5.51-5.89.26-.45.94-1.7 1.5-2.79 2.23-4.33 3.28-5.91 5.03-7.56a14.68 14.68 0 0 1 5.13-3.09l.53-.18-.5-.1a9.8 9.8 0 0 0-2.44-.02Zm6.27 1.08c-3.24.3-5.2 1.1-7.25 2.97a18.6 18.6 0 0 0-3.13 4.16c-.21.38-.81 1.51-1.33 2.52-1.85 3.57-2.77 5.1-3.98 6.58a13.26 13.26 0 0 1-5.95 4.32c-.03.03.2.08.54.11 4.17.39 8.16-2.22 11.55-7.55.26-.4 1.05-1.88 1.77-3.28 1.73-3.39 2.41-4.5 3.59-5.9a15.43 15.43 0 0 1 4.88-3.6l.81-.4c.11-.07-.2-.05-1.5.07Zm3.79 2.02c-3.2.47-5.7 2.18-7.91 5.43-.56.82-1.4 2.3-2.72 4.76a35.06 35.06 0 0 1-2.23 3.79 14.1 14.1 0 0 1-4.7 4.47L31 40l.43-.05a10.26 10.26 0 0 0 6.17-2.9c1.55-1.49 2.53-2.96 4.69-7a41.47 41.47 0 0 1 2.24-3.85 13.84 13.84 0 0 1 5.45-5.06c.1-.07-.11-.07-.73.02Z" fill="#2C5642"/></svg>