<?xml version="1.0" encoding="UTF-8"?>
<!-- generated by Finnhub -->
<svg viewBox="0 0 55.5 55.5" xmlns="http://www.w3.org/2000/svg">
<path d="M 0,0 H 55.5 V 55.5 H 0 Z" fill="rgb(239, 242, 248)"/>
<path d="M 23.99,17.185 V 20.86 C 24,20.96 23.95,21 23.86,21 H 16.15 C 16.05,21 16,20.95 16,20.86 V 13.18 C 16,13.06 16.06,13 16.19,13 H 23.96 C 28.8,13 32.39,16.2 32.59,20.82 C 32.59,20.94 32.54,21 32.42,21 H 28.62 C 28.51,21 28.43,20.94 28.41,20.83 A 0.48,0.48 0 0,1 28.4,20.68 V 20.52 C 28,18.44 26.38,17.27 24.2,17.03 C 24.06,17.02 24,17.07 24,17.2 Z" fill="rgb(1, 165, 209)"/>
<path d="M 38.99,24.155 A 0.16,0.16 0 0,0 38.96,24.05 A 0.15,0.15 0 0,0 38.91,24.01 L 38.85,24 H 35.18 C 35.06,24 35,23.93 35,23.8 V 16.2 C 35,16.14 35.02,16.1 35.06,16.06 A 0.19,0.19 0 0,1 35.19,16 H 42.79 C 42.9,16 42.96,16.05 42.96,16.16 C 43.02,21.01 43.01,24.14 42.94,25.56 A 6.1,6.1 0 0,1 42.26,27.8 A 7.99,7.99 0 0,1 35.23,32.59 C 35.08,32.6 35,32.53 35,32.37 V 28.57 C 35,28.52 35.02,28.47 35.05,28.44 A 0.19,0.19 0 0,1 35.16,28.38 C 37.46,28.1 38.74,26.48 39,24.17 Z" fill="rgb(111, 151, 53)"/>
<path d="M 17.139999999999997,31.985 H 20.85 C 20.95,32 21,32.05 21,32.16 V 39.86 C 21,39.96 20.95,40 20.86,40 H 13.18 A 0.17,0.17 0 0,1 13.06,39.94 A 0.2,0.2 0 0,1 13,39.81 V 31.88 A 8.14,8.14 0 0,1 15.85,25.38 A 7.46,7.46 0 0,1 20.88,23.48 A 0.19,0.19 0 0,1 20.98,23.58 A 0.2,0.2 0 0,1 21,23.67 V 27.39 C 21,27.44 20.98,27.49 20.95,27.53 A 0.21,0.21 0 0,1 20.82,27.6 C 18.52,27.95 17.25,29.56 16.99,31.81 C 16.97,31.94 17.03,32.01 17.15,32.01 Z" fill="rgb(166, 32, 142)"/>
<path d="M 31.869999999999997,39.005 A 0.12,0.12 0 0,0 31.97,38.99 A 0.11,0.11 0 0,0 32,38.95 V 35.16 C 32,35.06 32.06,35 32.17,35 H 39.84 C 39.94,35 40,35.05 40,35.16 V 42.85 C 40,42.95 39.95,43 39.85,43 H 31.4 C 30.11,43 28.93,42.7 27.85,42.11 A 7.94,7.94 0 0,1 23.4,35.11 L 23.44,35.05 A 0.18,0.18 0 0,1 23.57,35 H 27.37 C 27.48,35 27.55,35.06 27.57,35.17 C 27.86,37.42 29.54,38.7 31.87,39.02 Z" fill="rgb(236, 87, 43)"/>
</svg>
