<!-- by Finnhub --><svg width="56" height="56" viewBox="0 0 56 56" xmlns="http://www.w3.org/2000/svg"><path fill="#F0F3FA" d="M0 0h56v56H0z"/><path d="M38.9 21.15A18.99 18.99 0 0 1 34.55 13c-.2 0-.64.07-.86.33 0 2.6 2.27 6.01 3.38 7.38 1.11 1.37 4.87 4.39 4.87 10.58 0 4.95-3.83 7.52-5.61 8.19C34 40.05 30.28 41 34.8 41c5.65 0 9.2-5.02 9.2-9.15 0-3.54-1.6-6.88-5.1-10.7Z" fill="#B9BABC"/><path d="m26.9 11 2.6 7.12 3.05-1.64-3.98 8.1c.2 3.45.6 11.09.75 15.28l.02.6h-1.17V43H25.5v-2.45c-2.6.13-5.7.19-8.29.45l3.25-2.49L10 30.16l3.55-1.96-2.52-6.2 6.35 2.52L18.76 21 21 23.02 20.3 16l3.84 2.15L26.9 11Z" fill="#BCBCBC"/><path d="m31.2 18-2.02 1-2.3-6-2.46 6-3.28-1.83.55 7.3L19 22l-1.26 3.25-5.3-1.85 1.85 5.06-3.24 1.78 10.3 8.23-2.03 1.73c1.36-.14 4.15-.09 6.78-.2v2.35h1.41V40h1.15a957.2 957.2 0 0 0-.7-15.53L31.2 18Z" fill="#E51837"/><path d="m34.97 30.2 3.88 5.33-3.84 7.2a.48.48 0 0 1-.44.27.5.5 0 0 1-.5-.5V42c-9.08-1-9.65-7.94-9.65-10.43 0-2.85 1.52-6.49 3.83-9.4 3.88-4.83 5.09-7.36 5.26-9.6.02-.32.23-.57.54-.57.31 0 .6.25.57.56a18.39 18.39 0 0 1-1.41 4.52c-.86 1.95-3.94 6.85-3.94 10.65 0 3.8 3.42 5.27 3.94 5.27.42 0 .75-.2.86-.32V30.5c0-.3.23-.49.48-.5a.5.5 0 0 1 .42.2Z" fill="#025299"/></svg>