<?xml version="1.0" encoding="UTF-8"?>
<!-- generated by Finnhub -->
<svg viewBox="0 0 55.5 55.5" xmlns="http://www.w3.org/2000/svg">
<path d="M 0,0 H 55.5 V 55.5 H 0 Z" fill="rgb(239, 242, 248)"/>
<path d="M 28.779999999999998,9.155 C 29.52,9.59 29.61,10.51 29.25,11.08 L 20.48,26.01 C 19,28.72 18,30.9 18,33.04 C 18,38.2 23.36,42 28.25,42 C 34.75,42 38,37.8 38,33.04 C 38,27.38 34.47,23.48 31.5,19 C 29.31,22.66 25,27.7 25,32.46 C 25,34.29 26.36,35.26 27.64,36.5 C 27.89,36.75 28.02,37.08 28,37.4 C 27.95,38.41 27.42,39.09 26.59,39.09 C 25.09,39.09 22,35.57 22,32.46 C 22,26.52 27.57,20.43 30.43,15.62 C 30.65,15.25 31.06,15.02 31.5,15 C 32.25,14.98 32.6,15.55 32.95,16.1 C 36.43,21.32 41,26.41 41,33.03 C 41,39.13 35.9,45 28,45 C 21.17,45 15,39.52 15,33.04 C 15,29.61 16.54,26.4 17.34,25.16 L 27.06,9.6 A 1.3,1.3 0 0,1 28.79,9.18 Z" fill="rgb(200, 36, 42)"/>
</svg>
