<?xml version="1.0" encoding="UTF-8"?>
<!-- generated by Finnhub -->
<svg viewBox="0 0 55.5 55.5" xmlns="http://www.w3.org/2000/svg">
<path d="M 0,0 H 55.5 V 55.5 H 0 Z" fill="rgb(239, 242, 248)"/>
<path d="M 16.139999999999997,20.985 C 10.07,21 5.95,23.95 4.65,25.43 C 5.96,24.47 10.1,22.56 16.15,22.56 C 23.71,22.56 29.85,26.43 35.95,26.43 C 40.84,26.43 43.5,24.69 44.22,23.83 C 43.08,24.36 39.99,25.43 36.7,25.43 C 29.9,25.43 23.75,21 16.15,21 Z" fill="rgb(10, 106, 151)"/>
<path d="M 11.53,25.415 C 12.84,23.95 16.96,21 23.04,21 C 26.94,21 30.32,22.09 33.61,23.15 C 35.96,23.91 38.27,24.65 40.68,24.97 C 39.62,25.2 38.41,25.39 37.16,25.42 C 36.02,25.15 34.88,24.82 33.72,24.49 C 30.46,23.55 27.02,22.56 23.04,22.56 C 17,22.56 12.86,24.47 11.54,25.43 Z M 40.02,25.97 C 40.78,26.07 41.54,26.12 42.31,26.12 C 47.19,26.12 49.85,24.39 50.57,23.52 A 19.65,19.65 0 0,1 42.41,25.12 C 41.77,25.42 40.98,25.73 40.01,25.97 Z" fill="rgb(60, 184, 215)"/>
<path d="M 4.74,26.985 L 4,32 H 5.34 L 5.68,30 H 8.58 L 8.28,32 H 9.62 L 10.45,27 H 9.02 L 8.72,29 H 5.84 L 6.18,27 H 4.75 Z M 20.97,27 L 20.22,32 H 21.56 L 22.4,27 H 20.97 Z M 11.19,27 L 10.4,32 H 15.07 L 15.23,31 H 11.79 L 11.94,30 H 15.22 L 15.33,29 H 12.07 L 12.2,28 H 15.6 L 15.8,27 H 11.2 Z M 16.35,27 L 15.56,32 H 19.93 L 20.09,31 H 16.95 S 17.38,27.92 17.48,27 H 16.35 Z M 23.85,32 L 25.28,30.54 L 26.26,32 H 28.08 L 26.35,29.46 L 28.78,27 H 26.99 L 25.62,28.38 L 24.68,27 H 22.89 L 24.55,29.46 L 22.02,32 H 23.84 Z" fill="rgb(24, 22, 22)"/>
<path d="M 29.24,26.985 L 30.34,32 H 31.8 L 33.22,28.6 L 33.62,32 H 35.16 L 37.8,27 H 36.3 L 34.77,30.05 L 34.24,27 H 32.77 L 31.32,30.05 L 30.66,27 H 29.24 Z M 37.49,32 L 38.24,27 H 39.67 L 38.83,32 H 37.5 Z M 40.05,27 L 39.22,32 H 40.45 L 41.06,28.21 L 43.14,32 H 45.18 L 46.08,27 H 44.84 L 44.21,30.65 L 42.12,27 H 40.05 Z M 46.52,27 L 45.85,32 H 50.75 C 51.15,32 51.51,31.64 51.58,31.16 L 51.98,28.16 C 52.08,27.56 51.68,27 51.16,27 H 46.52 Z M 47.72,28 L 47.34,31 H 49.94 C 50.14,31 50.32,30.8 50.35,30.53 L 50.61,28.66 C 50.66,28.31 50.46,28 50.2,28 H 47.72 Z" fill="rgb(60, 184, 215)" fill-rule="evenodd"/>
</svg>
