<!-- by Finnhub --><svg xmlns="http://www.w3.org/2000/svg" width="56" height="56" viewBox="0 0 56 56"><path fill="url(#aexppoufy)" d="M0 0h56v56H0z"/><path d="M11 24h-.5v8h.5v-8zm-5.5 0H5v8h.5v-4h3.81l-.56-.5H5.5V24zM20 32v-4h3.13c.95 0 1.7-.72 1.7-1.68s-.75-1.82-1.7-1.82h-2.64L20 24h3.23c1.26 0 2.1 1.04 2.1 2.31 0 1.28-.84 2.19-2.1 2.19h-2.74V32H20zm15.5 0v-7.5l.5-.5v8h-.5zM46 24h.5v7.5h4.91l.59.5h-6l.01-.06H46V24z" fill="#fff"/><defs><linearGradient id="aexppoufy" x1="10.42" y1="9.71" x2="68.15" y2="76.02" gradientUnits="userSpaceOnUse"><stop stop-color="#1A1E21"/><stop offset="1" stop-color="#06060A"/></linearGradient></defs></svg>