<?xml version="1.0" encoding="UTF-8"?>
<!-- generated by Finnhub -->
<svg viewBox="0 0 55.5 55.5" xmlns="http://www.w3.org/2000/svg">
<path d="M0 0h55.5v55.5H0z" fill="rgb(239, 242, 248)"/>
<path d="M17.13 39.17c3.7 3.75 7.74 5.73 9.03 4.42 1.29-1.31-.66-5.41-4.35-9.16-3.7-3.75-7.74-5.73-9.03-4.42-1.3 1.31.66 5.41 4.35 9.16Zm.97-.98c3.27 3.33 6.67 5.26 7.6 4.33.91-.94-1-4.39-4.27-7.71-3.27-3.33-6.67-5.26-7.6-4.33-.92.94 1 4.39 4.27 7.71Z" fill="url(#f)" fill-rule="evenodd"/>
<path d="m34.87 35.85a9.93 9.93 0 0 1-14.2 0 10.29 10.29 0 0 1 0-14.4 9.93 9.93 0 0 1 14.2 0 10.29 10.29 0 0 1 0 14.4z" fill="url(#e)"/>
<path d="m33.27 29.25a5.74 5.74 0 0 1-8.2 0 5.95 5.95 0 0 1 0-8.32 5.74 5.74 0 0 1 8.2 0 5.95 5.95 0 0 1 0 8.32z" fill="rgb(208, 216, 219)"/>
<path d="m32.28 27.02a3.84 3.84 0 0 1-5.48 0 3.98 3.98 0 0 1 0-5.56 3.84 3.84 0 0 1 5.48 0 3.98 3.98 0 0 1 0 5.56z" fill="rgb(244, 247, 245)"/>
<path d="m31.65 25.87a2.69 2.69 0 0 1-3.84 0 2.78 2.78 0 0 1 0-3.9 2.69 2.69 0 0 1 3.84 0 2.78 2.78 0 0 1 0 3.9z" fill="rgb(254, 254, 253)"/>
<path d="M19.33 23.05c-3.05-1.58-5.57-1.95-6.71-.75-2.05 2.17 1.14 8.63 7.1 14.42 5.98 5.8 12.48 8.74 14.52 6.57.97-1.03.77-3-.33-5.4-.22.13-.44.24-.67.35.68 1.55.81 2.75.24 3.36-1.46 1.55-6.93-1.36-12.22-6.5-5.3-5.13-8.4-10.55-6.95-12.1.73-.77 2.44-.44 4.63.72.12-.23.25-.46.39-.67Z" fill="url(#d)"/>
<path d="m28.87 27.45c5.97 5.8 12.47 8.73 14.51 6.56 2.05-2.17-1.14-8.62-7.1-14.41-5.98-5.8-12.48-8.74-14.52-6.57-2.05 2.17 1.13 8.63 7.1 14.42zm1.52-1.62c5.3 5.14 10.77 8.05 12.23 6.5s-1.65-6.97-6.94-12.1c-5.3-5.14-10.77-8.05-12.23-6.5s1.65 6.97 6.94 12.1z" fill="url(#c)" fill-rule="evenodd"/>
<path d="m34.26 20.96c3.23 3.27 6.83 4.94 8.03 3.72s-0.44-4.86-3.67-8.14-6.83-4.95-8.03-3.73 0.44 4.87 3.67 8.15zm0.9-0.92c2.87 2.91 5.88 4.56 6.74 3.69s-0.77-3.93-3.63-6.84c-2.86-2.9-5.88-4.56-6.74-3.68-0.86 0.87 0.77 3.93 3.63 6.83z" fill="url(#b)" fill-rule="evenodd"/>
<path d="M42.36 40.5c-2.73 2.9-11.3-.92-19.14-8.53-7.84-7.6-11.99-16.11-9.26-19 2.39-2.53 9.24.07 16.18 5.86a9.78 9.78 0 0 0-2.08-.23c-5.43-4.3-10.32-6.37-11.87-4.73-1.94 2.06 2.12 9.2 9.07 15.94s14.16 10.53 16.11 8.47c1.35-1.43-.18-5.3-3.56-9.78-.01-.71-.1-1.41-.24-2.1 4.82 6.07 6.94 11.83 4.8 14.1Z" fill="url(#a)"/>
<defs>
<linearGradient id="f" x1="13.34" x2="25.24" y1="31.67" y2="43.39" gradientUnits="userSpaceOnUse">
<stop stop-color="rgb(103, 93, 150)" offset="0"/>
<stop stop-color="rgb(145, 147, 191)" offset=".25"/>
<stop stop-color="rgb(192, 206, 234)" offset=".49"/>
<stop stop-color="rgb(157, 162, 200)" offset=".65"/>
<stop stop-color="rgb(90, 78, 140)" offset="1"/>
</linearGradient>
<linearGradient id="e" x1="21.55" x2="32.52" y1="20.85" y2="37.86" gradientUnits="userSpaceOnUse">
<stop stop-color="rgb(225, 227, 224)" offset="0"/>
<stop stop-color="rgb(210, 210, 227)" offset=".51"/>
<stop stop-color="rgb(117, 145, 155)" offset=".79"/>
<stop stop-color="rgb(212, 222, 229)" offset="1"/>
</linearGradient>
<linearGradient id="d" x1="13.64" x2="34.3" y1="22.46" y2="42.83" gradientUnits="userSpaceOnUse">
<stop stop-color="rgb(4, 108, 170)" offset="0"/>
<stop stop-color="rgb(62, 177, 226)" offset=".3"/>
<stop stop-color="rgb(179, 222, 247)" offset=".49"/>
<stop stop-color="rgb(102, 191, 229)" offset=".66"/>
<stop stop-color="rgb(4, 110, 169)" offset="1"/>
</linearGradient>
<linearGradient id="c" x1="23.75" x2="39.84" y1="17.11" y2="32.96" gradientUnits="userSpaceOnUse">
<stop stop-color="rgb(100, 155, 53)" offset="0"/>
<stop stop-color="rgb(211, 223, 106)" offset=".26"/>
<stop stop-color="rgb(238, 242, 172)" offset=".5"/>
<stop stop-color="rgb(210, 213, 110)" offset=".73"/>
<stop stop-color="rgb(103, 154, 51)" offset="1"/>
</linearGradient>
<linearGradient id="b" x1="31.39" x2="42.31" y1="13.96" y2="24.66" gradientUnits="userSpaceOnUse">
<stop stop-color="rgb(167, 128, 19)" offset="0"/>
<stop stop-color="rgb(240, 242, 127)" offset=".48"/>
<stop stop-color="rgb(161, 124, 48)" offset="1"/>
</linearGradient>
<linearGradient id="a" x1="15.67" x2="41.48" y1="13.56" y2="39" gradientUnits="userSpaceOnUse">
<stop stop-color="rgb(193, 132, 18)" offset="0"/>
<stop stop-color="rgb(238, 193, 16)" offset=".24"/>
<stop stop-color="rgb(252, 243, 18)" offset=".4"/>
<stop stop-color="rgb(248, 240, 78)" offset=".65"/>
<stop stop-color="rgb(239, 187, 5)" offset=".79"/>
<stop stop-color="rgb(187, 130, 15)" offset="1"/>
</linearGradient>
</defs>
</svg>
