<?xml version="1.0" encoding="UTF-8"?>
<!-- generated by Finnhub -->
<svg viewBox="0 0 55.5 55.5" xmlns="http://www.w3.org/2000/svg">
<path d="M 0,0 H 55.5 V 55.5 H 0 Z" fill="rgb(239, 242, 248)"/>
<path d="M 5.5600000000000005,29.925 C 5.57,32.94 6.94,30.7 7.63,29.19 C 6.63,30.39 6.18,28.41 6.88,27.49 C 7.43,26.75 9.5,26.32 10.47,26.2 C 10.18,28.31 9.72,32.5 10.15,32.36 C 10.69,32.2 12.02,25.09 12.08,24.49 C 12.09,24.33 12.16,23.91 12.24,23.39 C 12.45,22.04 12.78,20 12.6,20 C 12.35,20 11.5,20.52 11.35,20.86 C 11.21,21.21 10.75,25.13 10.75,25.19 L 6.88,25.52 C 6.95,25.04 7.09,23.84 7.09,22.84 C 7.09,22.38 7.25,21.88 7.39,21.44 C 7.63,20.64 7.83,20.01 7.09,20 C 6.02,19.99 5.93,22.82 5.88,24.43 L 5.86,24.81 A 2.2,2.2 0 0,1 5.27,26.26 C 5.04,26.54 4.88,26.73 5.11,27.08 C 5.48,27.65 5.57,29.22 5.57,29.94 Z M 14.43,23.25 C 13.81,23.89 14.07,24.35 14.27,24.51 C 14.54,24.71 14.96,24.37 15.27,24.11 C 15.4,24.01 15.52,23.92 15.59,23.89 C 15.86,23.77 16.07,22.66 15.7,22.47 C 15.37,22.29 15.23,22.43 14.61,23.07 L 14.43,23.25 Z M 12.52,28.48 C 12.07,28.95 12.54,29.42 12.82,29.59 C 13.39,28.94 13.59,29.02 13.68,29.06 L 13.72,29.08 C 14.02,30.25 14.68,30.66 14.97,30.72 C 16.14,30.72 16.94,29.77 17.67,28.9 C 18.03,28.48 18.37,28.08 18.72,27.8 C 19.65,27.09 19.62,27.43 19.59,28 L 19.58,28.39 C 19.58,29.01 19.33,29.28 19.21,29.33 C 18.61,29.53 18.54,29.95 18.49,30.26 L 18.45,30.45 C 18.12,33.62 21.6,30.04 23.43,27.79 C 23.36,27.99 23.26,28.67 23.18,30.36 C 23.06,32.61 24.98,30.94 25.94,29.82 L 25.62,28.99 C 24.41,30.51 24.35,29.28 24.48,28.47 C 24.64,27.33 25.08,25.03 25.48,24.92 C 25.9,24.81 26.07,24.37 26.1,24.17 C 26.1,23.31 26.05,21.63 25.74,21.77 C 25.42,21.92 24.91,22.87 24.69,23.32 H 22.56 A 0.67,0.67 0 0,0 22.01,24 C 22.01,24.46 22.11,24.72 22.17,24.8 H 24.24 C 23.45,26.3 21.21,29.38 20.52,29.66 C 19.97,29.88 20.29,29.09 20.52,28.67 C 21.75,25.93 21.03,25.26 20.41,25.26 C 19.91,25.26 18.57,26.72 17.97,27.45 C 17.24,28.25 15.71,29.8 15.43,29.52 C 15.23,29.32 14.96,28.51 14.73,27.82 C 14.56,27.32 14.43,26.89 14.35,26.82 C 14.2,26.7 13.35,27.59 12.77,28.22 L 12.52,28.48 Z M 34.41,29.32 L 34.31,28.38 C 34.59,28.24 35.21,27.85 35.47,27.44 C 35.8,26.92 37.37,25.53 37.69,25.34 C 37.95,25.2 37.97,25.64 37.94,25.89 C 38.32,25.78 39.19,25.69 39.64,26.22 C 40.09,26.76 39.69,28 39.44,28.55 V 30.15 L 41.11,27.94 C 41.31,26.71 42.11,24.25 43.63,24.27 C 43.86,24.31 44.33,24.61 44.33,25.42 C 44.33,26.23 43.03,27.62 42.38,28.2 C 42.44,28.5 42.71,29.12 43.28,29.12 C 43.83,29.12 45.82,27.08 46.74,26.06 C 46.88,25.85 47.29,25.42 47.71,25.42 C 48.24,25.42 48.2,25.97 47.99,26.8 C 47.83,27.47 47.53,28.47 47.4,28.88 C 48.02,28.18 49.4,26.8 49.91,26.8 C 50.32,26.8 50.58,27.5 50.76,28.01 C 50.87,28.31 50.96,28.55 51.04,28.55 C 51.21,28.55 51.75,28.6 52,28.62 C 52.02,29.07 51.8,29.97 50.68,29.97 C 50.36,29.29 49.56,28.07 48.97,28.62 C 48.71,28.87 48.38,29.27 48.04,29.69 C 47.42,30.46 46.77,31.27 46.39,31.27 C 45.81,31.27 45.78,29.53 46.46,27.94 C 46.46,27.83 46.32,27.72 45.85,28.2 L 45.56,28.5 C 44.88,29.22 43.72,30.44 42.69,30.44 C 41.73,30.44 41.37,29.5 41.31,29.04 L 39.86,30.84 C 40.12,31.16 40.63,32.01 40.63,32.89 C 40.63,33.99 39.13,36 37.68,36 C 36.23,36 35.92,34 38.24,31.66 C 38.34,31.31 38.46,30.56 38.16,30.37 C 37.96,30.57 37.33,30.98 36.51,30.98 C 35.48,30.98 35.05,29.87 35.33,28.69 L 34.41,29.32 Z M 42.43,26.26 C 42.15,26.65 42.3,26.86 42.41,26.92 C 42.62,26.89 42.71,26.77 42.86,26.6 C 43.01,26.43 43.12,25.91 42.97,25.86 C 42.83,25.81 42.78,25.79 42.43,26.26 Z M 36.83,29.77 C 36.58,29.59 36.29,29.01 37.11,28.17 C 38.11,27.13 38.23,27.19 38.56,27.37 H 38.57 C 38.91,27.55 38.47,28.78 38.06,29.15 L 38.05,29.16 C 37.64,29.53 37.35,29.77 36.83,29.77 Z M 37.73,35.13 C 37.45,34.98 37.09,34.45 37.78,33.5 C 38.65,32.33 38.76,32.37 39.11,32.5 H 39.12 C 39.48,32.63 39.22,33.91 38.86,34.34 H 38.85 C 38.49,34.77 38.25,35.05 37.72,35.13 Z M 30,30.1 C 31.1,30.1 32,29.18 32,28.04 C 32,26.91 31.1,25.99 30,25.99 S 28,26.91 28,28.04 C 28,29.18 28.9,30.1 30,30.1 Z" fill="rgb(9, 125, 67)" fill-rule="evenodd"/>
<path d="M 25.9,28.415 C 25.64,28.5 25.19,28.79 25.51,29.39 C 25.67,29.69 25.91,30.01 26.16,30.34 C 26.54,30.84 26.92,31.36 27.02,31.79 C 27.17,32.49 27.69,32.97 28.96,32.97 C 30.24,32.97 32.02,32.2 32.46,32 C 32.89,31.79 34.48,30.51 34.48,28.76 C 34.48,27 31.82,23.89 31.26,24.08 C 31.03,24.16 30.93,24.09 30.75,23.98 C 30.5,23.82 30.09,23.56 28.96,23.48 C 27.41,23.34 27.72,23.93 28.07,24.24 C 27.94,24.36 27.57,24.49 27.17,24.08 C 26.67,23.57 25.91,25.44 25.91,25.71 C 25.91,25.98 26.01,27.45 26.16,27.81 C 26.32,28.18 26.06,28.37 25.91,28.43 Z M 27.86,29.95 C 27.68,29.8 27.31,29.31 27.31,28.49 C 27.31,27.45 28.36,25.92 29.03,25.72 C 29.3,25.64 29.4,25.55 29.47,25.49 C 29.59,25.39 29.65,25.35 30.17,25.44 C 31.04,25.6 32.61,26.19 32.61,27.98 C 32.61,29.76 32,30.98 31.09,30.98 C 30.45,30.98 29.92,30.85 29.47,30.73 C 29.28,30.68 29.1,30.63 28.93,30.61 C 28.66,30.56 28.48,30.34 28.35,30.17 C 28.22,30.01 28.13,29.9 28.05,30.1 C 27.98,30.24 27.95,30.36 27.92,30.44 C 27.89,30.6 27.87,30.66 27.71,30.61 C 27.51,30.54 27.73,30.14 27.86,29.95 Z" fill="rgb(136, 138, 139)"/>
</svg>
