<?xml version="1.0" encoding="UTF-8"?>
<!-- generated by Finnhub -->
<svg viewBox="0 0 55.5 55.5" xmlns="http://www.w3.org/2000/svg">
<path d="M 0,0 H 55.5 V 55.5 H 0 Z" fill="rgb(15, 61, 106)"/>
<path d="M 30.959999999999997,13.885 C 29.06,11.65 29.15,11.09 29.44,11.09 A 4.26,4.26 0 0,0 24.93,13.04 C 23.43,15.37 25.23,18.19 26.33,19.32 A 589.6,589.6 0 0,1 37.72,29.76 A 8.54,8.54 0 0,1 39.34,33.06 C 40.89,32.62 44,31.2 44,29 A 7.6,7.6 0 0,0 41.9,24.15 C 39.05,21.68 32.88,16.17 30.97,13.91 Z M 24.88,20.2 C 22.91,17.95 23.01,17.4 23.3,17.4 C 22.3,17.17 19.95,17.24 18.64,19.33 C 17.1,21.66 18.94,24.47 20.08,25.6 A 602.17,602.17 0 0,1 31.86,36 C 32.76,36.92 33.35,38.58 33.53,39.3 C 35.13,38.86 38.35,37.43 38.35,35.24 C 38.35,33.06 36.9,31.1 36.17,30.4 C 33.23,27.94 26.85,22.45 24.88,20.2 Z M 17.25,23.1 C 16.95,23.1 16.85,23.66 18.83,25.9 C 20.8,28.15 27.18,33.64 30.13,36.1 C 30.85,36.8 32.3,38.76 32.3,40.95 C 32.3,43.13 29.09,44.55 27.48,45 A 8.39,8.39 0 0,0 25.81,41.7 C 24.91,40.79 17.58,34.39 14.03,31.3 C 12.89,30.17 11.04,27.37 12.59,25.04 A 4.47,4.47 0 0,1 17.25,23.09 Z" fill="rgb(254, 254, 253)"/>
</svg>
