<?xml version="1.0" encoding="UTF-8"?>
<!-- generated by Finnhub -->
<svg viewBox="0 0 55.5 55.5" xmlns="http://www.w3.org/2000/svg">
<path d="M 0,0 H 55.5 V 55.5 H 0 Z" fill="rgb(239, 242, 248)"/>
<path d="M 27.99,39.985 C 40.15,40 50,34.63 50,28 C 50,26.75 49.65,25.55 49,24.41 V 28.31 L 42.68,36 H 37.87 L 37.02,35.1 L 36.21,36 H 31 V 30 H 35.63 L 39.33,26 H 42.23 L 38.91,30 H 42.55 L 47.77,22.72 C 44.19,18.74 36.68,16 28,16 C 15.85,16 6,21.37 6,28 C 6,30.57 7.48,32.95 10,34.9 V 30 H 14 L 18.24,25.73 L 17.45,30 H 20.27 L 23.29,27.32 L 22.36,30 H 24.86 L 31,22.21 V 27.64 L 26.06,36 H 21.68 L 20.72,35.13 L 19.85,36 H 15.33 L 14.48,35.13 L 13.65,36 H 11.6 C 15.63,38.45 21.48,40 28,40 Z M 42.43,25 H 40.15 L 41.66,21.77 L 42.69,23.44 L 42.43,25 Z M 21.82,24.78 L 23.82,25.13 L 23.99,23.02 L 21.82,24.78 Z" fill="url(#a)" fill-rule="evenodd"/>
<defs>
<linearGradient id="a" x1="11.54" x2="48.03" y1="23.41" y2="32.95" gradientUnits="userSpaceOnUse">
<stop stop-color="rgb(1, 114, 203)" offset="0"/>
<stop stop-color="rgb(1, 82, 165)" offset="1"/>
</linearGradient>
</defs>
</svg>
