<?xml version="1.0" encoding="UTF-8"?>
<!-- generated by Finnhub -->
<svg viewBox="0 0 55.5 55.5" xmlns="http://www.w3.org/2000/svg">
<path d="M0 0h55.5v55.5H0z" fill="url(#a)"/>
<path d="M38 15.1L28 9l-10 6.1v11.46l3-1.82V16.9l7-4.17 7 4.17v7.85l-2.53 1.45 3.16 1.8-3.16 1.81L35 31.26v7.83l-7 4.42-7-4.42v-7.83l1.1-.64L19 28.8l-1 .64v11.47L28 47l10-6.09V29.4L35.58 28 38 26.56V15.1z" fill="rgb(254, 254, 253)"/>
<path d="M18 26.56l3-1.83 2.53 1.46L28 23.52 35.63 28l-3.16 1.81-4.52-2.56-1.32.75 4.42 2.67L28 32.43l-10-5.87z" fill="rgb(1, 254, 204)"/>
<defs>
<linearGradient id="a" x1="10.42" x2="68.15" y1="9.71" y2="76.02" gradientUnits="userSpaceOnUse">
<stop stop-color="rgb(25, 29, 31)" offset="0"/>
<stop stop-color="rgb(5, 5, 8)" offset="1"/>
</linearGradient>
</defs>
</svg>
