<?xml version="1.0" encoding="UTF-8"?>
<!-- generated by Finnhub -->
<svg viewBox="0 0 55.5 55.5" xmlns="http://www.w3.org/2000/svg">
<path d="M0 0h55.5v55.5H0z" fill="rgb(239, 242, 248)"/>
<path d="M45 28a17 17 0 1 1-34 0 17 17 0 0 1 34 0Zm-2 0a15 15 0 1 1-30 0 15 15 0 0 1 30 0ZM22.8 17.03l3.57-.03-.98.99V22h5.25v-4.01l-.98-.99h3.56l-1.22.99V29h1.22l-1.48 1-1.35 3.02 1.34 4.42L34.99 27h2.66l-1.33.85-4.6 12.69-2-6-1.88 4.18-1.65-4-2.34 5.82-4.07-12.69-1.73-.85h3.26l2.54 10.44 1.65-4.4L24.25 30l-1.44-1H24V17.99l-1.2-.96ZM25.4 29v-6h5.24v6l-.85 2.03L28.58 27h-.81l-1.58 4.2-.8-2.2Zm1.47 4.05.97 2.65 1.26-3-.95-2.83-1.28 3.18Z" fill="rgb(233, 186, 71)" fill-rule="evenodd"/>
</svg>
