<!-- by Finnhub --><svg width="56" height="56" viewBox="0 0 56 56" xmlns="http://www.w3.org/2000/svg"><path fill="#F0F3FA" d="M0 0h56v56H0z"/><circle cx="28" cy="28" r="16" fill="#004911"/><path d="M15.3 18.27a16.09 16.09 0 0 1 3.78-3.55l2.7.58v3.84l11.44 18.58-4.94 3.38-4-.98-1.6-3.96-4.54-1.3-1.67-4.24-3.34-.9-.49-4.62 2.5-3.98.16-2.85Z" fill="#005613"/><path d="m42.42 27.57-9.58-12.6-6.95 1.23-3.75 7.56 15.21 12.12 5.07-8.3Z" fill="#008A1F"/><path d="m32.87 12.76 3.48 6.42 5.77 11.95 1.73-.92a16 16 0 0 0-10.98-17.45Z" fill="#00841C"/><path d="m32.67 25.66-4.95-1.15-3.79 3.72 1.79 4.9 4.94 1.47 3.41-3.98-1.4-4.96ZM43.77 30.7l-2.16 4.16-3.6 1.36-.23-5.05 2.7-3.49 3.37 2.52-.08.5Z" fill="#007219"/><path d="m37.78 31.28-3.86-.68-3.28 3.92.9 4.26h4.32l2.92-3.34-1-4.16Z" fill="#006517"/><path d="m28.35 12-2.18 2.88-5.14 1.4-2.45-1.21A15.93 15.93 0 0 1 28.35 12Z" fill="#005D15"/><path d="M41.88 35.97a16.08 16.08 0 0 1-5.37 5.58c-.19-.76-.5-2.03-.7-2.77l3-3.47 2.93-1.17.14 1.83Z" fill="#004C11"/><path d="M41.84 36.03A15.93 15.93 0 0 0 44 28v-.06c-.53.82-1.56 2.8-2.32 6.28-.15.7-.08 1.3.16 1.81Z" fill="#006918"/><path d="m39.19 17.16-4.22-1.94-1.18 3.06 1.18 4.16 3.81 1.7 2.66-3-2.25-3.98Z" fill="#009522"/><path d="M26.04 13.45 21.5 15.8v3.35l4.54 1.66 3-3.64-3-3.73Z" fill="#006C18"/><path d="m21.59 19.22 4.7 1 1.62 4.3-3.98 3.82-4.9-1.32-.8-4.64 3.36-3.16Z" fill="#006517"/><path d="m33.73 13.06 1.96 2.22-1.96 2.94c-.97-.19-2.12-.37-3.07-.52-1.06-.17-1.86-.3-1.87-.35 0-.03-.15-.2-.36-.49-.67-.86-2.06-2.67-2.3-3.58l1.5-1.28a15.93 15.93 0 0 1 6.1 1.06Z" fill="#00791A"/></svg>