<?xml version="1.0" encoding="UTF-8"?>
<!-- generated by Finnhub -->
<svg viewBox="0 0 55.5 55.5" xmlns="http://www.w3.org/2000/svg">
<path d="M 0,0 H 55.5 V 55.5 H 0 Z" fill="rgb(239, 242, 248)"/>
<path d="M 4.99,21.985 V 34 H 7 V 29 H 13 V 34 H 15 V 22 H 13 V 27 H 7 V 22 H 5 Z M 18.89,22 H 16.4 L 21,29.52 V 34 H 23 V 29.52 L 27.41,22 H 24.93 L 21.97,27.3 H 21.85 L 18.89,22 Z M 29,34 V 22 H 31 V 27 H 37 V 22 H 39 V 34 H 37 V 29 H 31 V 34 H 29 Z M 43.48,22 H 41 L 45,29.52 V 34 H 47 V 29.52 L 51,22 H 48.52 L 46.08,27.3 H 45.97 L 43.47,22 Z"/>
</svg>
