<?xml version="1.0" encoding="UTF-8"?>
<!-- generated by Finnhub -->
<svg viewBox="0 0 55.5 55.5" xmlns="http://www.w3.org/2000/svg">
<path d="M 0,0 H 55.5 V 55.5 H 0 Z" fill="rgb(239, 242, 248)"/>
<path d="M 4.99,28.985 V 25 H 4 V 29 H 5 Z M 6,29 V 25 H 7.75 C 8.08,25 8.35,25.05 8.58,25.14 C 8.8,25.23 8.96,25.35 9.08,25.51 A 0.9,0.9 0 0,1 9.24,26.04 C 9.24,26.2 9.2,26.34 9.13,26.46 A 0.84,0.84 0 0,1 8.84,26.73 C 8.72,26.81 8.59,26.86 8.44,26.89 V 26.93 A 1.1,1.1 0 0,1 9.27,27.39 C 9.37,27.53 9.42,27.71 9.42,27.91 S 9.36,28.31 9.24,28.47 C 9.13,28.63 8.96,28.77 8.72,28.86 C 8.49,28.96 8.2,29 7.85,29 H 6 Z M 7,28.4 H 7.72 C 8.02,28.4 8.24,28.34 8.37,28.24 C 8.51,28.14 8.57,28.01 8.57,27.85 A 0.54,0.54 0 0,0 8.47,27.53 A 0.67,0.67 0 0,0 8.19,27.31 A 1.07,1.07 0 0,0 7.74,27.22 H 7 V 28.39 Z M 7,26.7 H 7.65 C 7.79,26.7 7.92,26.68 8.04,26.63 C 8.15,26.59 8.24,26.52 8.31,26.43 C 8.37,26.35 8.41,26.25 8.41,26.13 A 0.47,0.47 0 0,0 8.22,25.75 C 8.1,25.65 7.92,25.6 7.67,25.6 H 7 V 26.7 Z M 11.13,29 H 12 L 12.38,28.01 H 14.1 L 14.48,29 H 15.37 L 13.75,25 H 12.73 L 11.12,29 Z M 13.89,27.43 L 13.27,25.82 H 13.23 L 12.62,27.43 H 13.89 Z M 19.69,26.37 H 18.85 A 0.8,0.8 0 0,0 18.72,26.06 A 0.9,0.9 0 0,0 18.48,25.83 C 18.38,25.76 18.28,25.71 18.15,25.68 A 1.48,1.48 0 0,0 17.1,25.79 C 16.9,25.89 16.75,26.05 16.65,26.26 C 16.54,26.46 16.48,26.71 16.48,27 C 16.48,27.3 16.54,27.55 16.65,27.75 C 16.75,27.95 16.91,28.11 17.1,28.21 A 1.55,1.55 0 0,0 18.14,28.31 C 18.26,28.29 18.37,28.24 18.46,28.18 A 0.78,0.78 0 0,0 18.84,27.65 H 19.68 C 19.65,27.85 19.58,28.02 19.48,28.18 C 19.38,28.34 19.24,28.48 19.08,28.61 C 18.91,28.73 18.71,28.83 18.49,28.9 C 18.27,28.97 18.02,29 17.75,29 C 17.35,29 16.98,28.92 16.67,28.76 A 1.8,1.8 0 0,1 15.92,28.08 C 15.74,27.78 15.65,27.42 15.65,27 C 15.65,26.58 15.74,26.22 15.92,25.92 C 16.11,25.62 16.36,25.4 16.67,25.24 A 2.64,2.64 0 0,1 18.45,25.09 C 18.68,25.15 18.87,25.24 19.05,25.36 A 1.51,1.51 0 0,1 19.68,26.36 Z M 22.89,27.64 H 22.15 L 22.77,28.33 A 1.54,1.54 0 0,1 21.77,28.21 C 21.57,28.11 21.43,27.95 21.32,27.75 A 1.6,1.6 0 0,1 21.16,27 C 21.16,26.7 21.21,26.45 21.32,26.25 C 21.43,26.05 21.58,25.89 21.77,25.79 C 21.97,25.69 22.18,25.63 22.43,25.63 C 22.68,25.63 22.9,25.69 23.09,25.79 C 23.28,25.89 23.43,26.05 23.54,26.25 C 23.64,26.45 23.7,26.7 23.7,27 S 23.64,27.54 23.54,27.75 C 23.47,27.87 23.39,27.98 23.29,28.07 L 22.89,27.64 Z M 23.8,28.58 C 23.98,28.44 24.13,28.28 24.26,28.08 A 2,2 0 0,0 24.53,27 A 2,2 0 0,0 24.26,25.92 C 24.07,25.62 23.82,25.4 23.5,25.24 A 2.37,2.37 0 0,0 22.43,25 C 22.03,25 21.67,25.08 21.35,25.24 C 21.04,25.4 20.79,25.62 20.6,25.92 C 20.42,26.22 20.33,26.58 20.33,27 C 20.33,27.42 20.42,27.78 20.6,28.07 C 20.79,28.37 21.04,28.6 21.35,28.76 C 21.67,28.92 22.03,29 22.43,29 C 22.73,29 23.02,28.95 23.28,28.86 L 23.45,29 H 24.25 L 23.8,28.58 Z M 28,25 H 29 V 27.57 C 29,28.55 27.88,29 27.02,29 C 26.16,29 25,28.56 25,27.57 V 25 H 26.02 V 27.51 C 26.02,28.07 26.52,28.36 27.02,28.36 C 27.55,28.36 28,28.08 28,27.51 V 25 Z M 31,29 V 25 H 30 V 29 H 31 Z M 34.15,26.12 A 0.5,0.5 0 0,0 33.89,25.73 C 33.74,25.64 33.54,25.6 33.29,25.6 C 33.12,25.6 32.97,25.62 32.85,25.66 A 0.66,0.66 0 0,0 32.56,25.84 A 0.4,0.4 0 0,0 32.46,26.1 C 32.46,26.18 32.48,26.25 32.53,26.31 C 32.57,26.37 32.63,26.42 32.71,26.47 A 3.08,3.08 0 0,0 33.24,26.64 L 33.67,26.73 C 33.84,26.76 34.01,26.81 34.17,26.87 C 34.33,26.93 34.47,27 34.6,27.09 S 34.83,27.29 34.9,27.41 C 34.98,27.53 35.01,27.68 35.01,27.85 C 35.01,28.08 34.95,28.28 34.81,28.45 C 34.67,28.62 34.47,28.75 34.21,28.85 C 33.96,28.95 33.64,29 33.28,29 C 32.92,29 32.61,28.95 32.35,28.86 C 32.09,28.76 31.89,28.63 31.74,28.45 A 1.1,1.1 0 0,1 31.5,27.79 H 32.32 C 32.32,27.93 32.38,28.04 32.46,28.13 C 32.56,28.22 32.66,28.29 32.8,28.33 C 32.94,28.38 33.1,28.4 33.27,28.4 C 33.45,28.4 33.61,28.38 33.75,28.33 A 0.78,0.78 0 0,0 34.07,28.13 A 0.43,0.43 0 0,0 34.19,27.84 C 34.19,27.74 34.15,27.66 34.09,27.59 A 0.78,0.78 0 0,0 33.79,27.43 A 3.12,3.12 0 0,0 33.36,27.3 L 32.84,27.2 C 32.47,27.1 32.17,26.98 31.94,26.82 A 0.8,0.8 0 0,1 31.62,26.15 A 0.9,0.9 0 0,1 31.84,25.55 C 31.99,25.37 32.19,25.24 32.44,25.15 C 32.7,25.05 32.98,25 33.3,25 C 33.63,25 33.91,25.05 34.16,25.14 C 34.4,25.24 34.6,25.37 34.74,25.54 C 34.88,25.71 34.94,25.9 34.95,26.12 H 34.15 Z M 37,29 V 25 H 36 V 29 H 37 Z M 37.6,25.6 V 25 H 41.25 V 25.6 H 40 V 29 H 39 V 25.6 H 37.6 Z M 43,29 V 25 H 42 V 29 H 43 Z M 47.45,27 A 1.82,1.82 0 0,1 46.42,28.76 C 46.11,28.92 45.75,29 45.35,29 S 44.59,28.92 44.27,28.76 A 1.85,1.85 0 0,1 43.25,27 A 1.83,1.83 0 0,1 44.28,25.24 C 44.59,25.08 44.95,25 45.35,25 S 46.11,25.08 46.43,25.24 C 46.74,25.4 46.99,25.62 47.18,25.92 A 2,2 0 0,1 47.45,27 Z M 46.62,27 C 46.62,26.7 46.57,26.46 46.46,26.25 C 46.35,26.05 46.2,25.89 46.01,25.79 C 45.81,25.69 45.6,25.63 45.35,25.63 C 45.1,25.63 44.88,25.69 44.69,25.79 C 44.5,25.89 44.35,26.05 44.24,26.25 C 44.14,26.45 44.08,26.7 44.08,27 S 44.13,27.55 44.24,27.75 C 44.35,27.95 44.5,28.11 44.69,28.21 C 44.89,28.31 45.1,28.37 45.35,28.37 C 45.6,28.37 45.82,28.32 46.01,28.21 C 46.21,28.11 46.35,27.95 46.46,27.75 C 46.56,27.55 46.62,27.3 46.62,27 Z M 52,25 V 29 H 51.22 L 48.92,26.28 H 48.88 V 29 H 48 V 25 H 48.79 L 51.08,27.73 H 51.12 V 25 H 52 Z" fill-rule="evenodd"/>
</svg>
