<!-- by Finnhub --><svg width="56" height="56" viewBox="0 0 56 56" fill="none" xmlns="http://www.w3.org/2000/svg">
<rect width="56" height="56" fill="#F0F3FA"/>
<path d="M21.119 11.2616C21.8426 11.1126 22.568 11.094 23.2952 11.2057C23.3074 11.2077 23.3199 11.2063 23.3314 11.2016C23.3428 11.197 23.3528 11.1893 23.3601 11.1794C23.3675 11.1696 23.3719 11.1579 23.373 11.1457C23.374 11.1335 23.3717 11.1212 23.3662 11.1102L22.8763 10.0992C22.8435 10.0319 22.7895 9.99884 22.7142 10L20.3014 10.0235C20.2893 10.0235 20.2774 10.0268 20.2671 10.0329C20.2567 10.039 20.2482 10.0478 20.2424 10.0583C20.2366 10.0688 20.2338 10.0806 20.2343 10.0926C20.2347 10.1045 20.2384 10.1161 20.2449 10.1262L20.9515 11.1931C20.9693 11.2198 20.9948 11.2405 21.0247 11.2527C21.0545 11.2649 21.0874 11.268 21.119 11.2616Z" fill="url(#paint0_linear_229_18785)"/>
<path d="M24.6276 11.3852C25.2278 11.526 25.8161 11.6639 26.3855 11.9429C26.3996 11.9496 26.4153 11.9523 26.4309 11.9507C26.4465 11.949 26.4613 11.943 26.4736 11.9334C26.486 11.9239 26.4953 11.9111 26.5007 11.8965C26.506 11.8819 26.5071 11.8661 26.5039 11.8509L26.3199 10.9696C26.3078 10.9132 26.2732 10.8765 26.2161 10.8597L23.7322 10.1406C23.7143 10.1354 23.6952 10.1354 23.6771 10.1404C23.6591 10.1454 23.643 10.1553 23.6305 10.1689C23.6181 10.1826 23.6099 10.1994 23.607 10.2173C23.604 10.2353 23.6064 10.2537 23.6138 10.2704L23.9781 11.1409C23.9904 11.171 24.0099 11.1979 24.0349 11.2191C24.0599 11.2405 24.0898 11.2556 24.1219 11.2634C24.2913 11.3063 24.4599 11.3458 24.6276 11.3852Z" fill="url(#paint1_linear_229_18785)"/>
<path d="M17.2657 11.3301C17.1758 11.2376 17.1874 11.1595 17.3003 11.0958C17.9813 10.7149 18.7006 10.4236 19.4582 10.2217C19.5153 10.2073 19.5608 10.2235 19.5948 10.2704L20.3505 11.3175C20.3942 11.3775 20.3803 11.4172 20.3086 11.4364C19.613 11.6311 18.9653 11.929 18.3656 12.3304C18.344 12.3445 18.3181 12.3506 18.2925 12.3477C18.2668 12.3447 18.243 12.3328 18.2254 12.3141L17.2657 11.3301Z" fill="url(#paint2_linear_229_18785)"/>
<path d="M27.3894 12.295L27.3903 12.2955L27.3919 12.2963L27.3953 12.2981C28.1485 12.6967 28.8525 13.0692 29.5869 13.5036C29.6537 13.5433 29.6907 13.5246 29.698 13.4477L29.7635 12.7611C29.7668 12.7296 29.7605 12.6977 29.7453 12.6695C29.73 12.6413 29.7066 12.618 29.6779 12.6025L27.1904 11.267C27.1752 11.2593 27.1582 11.2557 27.1412 11.2567C27.1241 11.2577 27.1077 11.2633 27.0938 11.2728C27.0799 11.2823 27.0689 11.2954 27.0622 11.3106C27.0555 11.3258 27.0532 11.3425 27.0556 11.3589L27.1594 12.0961C27.1679 12.1513 27.1965 12.1922 27.245 12.2186L27.3894 12.295Z" fill="url(#paint3_linear_229_18785)"/>
<path d="M23.3225 12.6746C22.7033 12.6566 22.1012 12.7521 21.516 12.9611C21.4577 12.9816 21.4104 12.9671 21.374 12.9179L20.5417 11.8077C20.5311 11.7942 20.5243 11.7781 20.5221 11.7611C20.5199 11.7441 20.5223 11.7267 20.5292 11.7108C20.536 11.6949 20.547 11.681 20.561 11.6705C20.5751 11.66 20.5917 11.6532 20.6091 11.6509L22.6086 11.3968C22.6439 11.3926 22.6796 11.399 22.7108 11.4151C22.7421 11.4312 22.7674 11.4563 22.7834 11.4869L23.3662 12.6043C23.3699 12.6117 23.3716 12.6199 23.3713 12.6281C23.3709 12.6364 23.3684 12.6444 23.364 12.6514C23.3596 12.6585 23.3535 12.6643 23.3463 12.6683C23.339 12.6724 23.3308 12.6745 23.3225 12.6746Z" fill="url(#paint4_linear_229_18785)"/>
<path d="M23.9267 11.5198C23.7766 11.4905 23.6322 11.4624 23.4973 11.4346C23.4826 11.4315 23.4674 11.4325 23.4533 11.4375C23.4392 11.4425 23.4268 11.4513 23.4175 11.463C23.4082 11.4746 23.4024 11.4886 23.4007 11.5033C23.399 11.5181 23.4016 11.533 23.4081 11.5464L23.9052 12.5971C23.9234 12.6355 23.9532 12.6565 23.9944 12.6602C24.6634 12.7082 25.3147 12.8344 25.9484 13.0386C26.048 13.0699 26.0838 13.0356 26.0559 12.9359L25.8137 12.069C25.7967 12.009 25.759 11.9687 25.7008 11.9483C25.1753 11.7635 24.5084 11.6333 23.9267 11.5198Z" fill="url(#paint5_linear_229_18785)"/>
<path d="M14.698 13.8154C14.647 13.783 14.6379 13.7415 14.6707 13.6911C15.1769 12.9245 15.7839 12.2487 16.4917 11.6635C16.5391 11.6239 16.5852 11.6251 16.6301 11.6671L17.7191 12.6818C17.7285 12.6908 17.736 12.7017 17.741 12.7137C17.746 12.7257 17.7485 12.7386 17.7484 12.7516C17.7482 12.7646 17.7454 12.7774 17.74 12.7893C17.7347 12.8011 17.7269 12.8118 17.7173 12.8206C17.1273 13.3504 16.6374 13.9602 16.2477 14.6498C16.1979 14.7376 16.1305 14.7538 16.0456 14.6985L14.698 13.8154Z" fill="url(#paint6_linear_229_18785)"/>
<path d="M18.0797 13.2026L19.1869 14.2389C19.2415 14.2906 19.2955 14.2894 19.3489 14.2353C19.7739 13.8052 20.2643 13.4694 20.8204 13.2279C20.8344 13.2217 20.8469 13.2124 20.8568 13.2008C20.8667 13.1891 20.8737 13.1755 20.8774 13.1608C20.8811 13.1462 20.8814 13.131 20.8781 13.1163C20.8748 13.1017 20.8682 13.0881 20.8586 13.0765L19.9845 11.9753C19.9685 11.9552 19.9463 11.941 19.9212 11.9348C19.8962 11.9286 19.8697 11.9308 19.8461 11.9411C19.2075 12.2258 18.6205 12.5923 18.0851 13.0404C18.0733 13.0505 18.0637 13.0628 18.0569 13.0767C18.0501 13.0905 18.0463 13.1056 18.0458 13.1209C18.0453 13.1362 18.0481 13.1514 18.0539 13.1655C18.0597 13.1796 18.0685 13.1922 18.0797 13.2026Z" fill="url(#paint7_linear_229_18785)"/>
<path d="M28.8494 13.3144V14.147C28.8494 14.1488 28.8493 14.1506 28.8491 14.1524C28.8489 14.1555 28.8483 14.1587 28.8475 14.1618C28.8473 14.1629 28.847 14.1639 28.8466 14.165L28.8458 14.1674C28.8454 14.1685 28.845 14.1696 28.8445 14.1706C28.8438 14.1724 28.8429 14.1741 28.842 14.1757C28.8372 14.1845 28.8301 14.192 28.8216 14.1973C28.8131 14.2028 28.8033 14.2059 28.7932 14.2066C28.7884 14.2069 28.7837 14.2066 28.779 14.2058C28.7738 14.2049 28.7686 14.2034 28.7638 14.2011L26.6787 13.2044C26.6772 13.2037 26.6758 13.2029 26.6744 13.202C26.6732 13.2012 26.6721 13.2005 26.6709 13.1996C26.6662 13.1961 26.662 13.1919 26.6584 13.1872C26.6531 13.18 26.6494 13.1717 26.6477 13.163L26.4383 12.215C26.4359 12.2042 26.4366 12.193 26.4404 12.1826C26.4441 12.1721 26.4507 12.163 26.4594 12.156C26.468 12.1491 26.4785 12.1447 26.4896 12.1434C26.5007 12.142 26.5119 12.1437 26.5221 12.1483L28.8166 13.2603C28.8266 13.2654 28.835 13.2731 28.8408 13.2827C28.8466 13.2922 28.8496 13.3032 28.8494 13.3144Z" fill="url(#paint8_linear_229_18785)"/>
<path d="M25.2913 14.3412L25.2918 14.3413L25.2922 14.3413L25.2926 14.3414L25.293 14.3415L25.2935 14.3415L25.2939 14.3416L25.2943 14.3416L25.2947 14.3417L25.2951 14.3418L25.2955 14.3418L25.2959 14.3419L25.2963 14.342L25.2967 14.342C25.4412 14.3634 25.5892 14.3852 25.7481 14.4011C25.7634 14.4028 25.7789 14.4006 25.7931 14.3948C25.8074 14.3889 25.8199 14.3796 25.8297 14.3676C25.8394 14.3557 25.846 14.3414 25.849 14.3262C25.8519 14.311 25.851 14.2952 25.8465 14.2804L25.5096 13.2603C25.4841 13.181 25.4294 13.1366 25.3457 13.127L23.561 12.9323C23.5443 12.9302 23.5273 12.9327 23.5119 12.9396C23.4966 12.9464 23.4834 12.9574 23.474 12.9712C23.4646 12.9851 23.4592 13.0012 23.4585 13.0179C23.4578 13.0346 23.4618 13.0511 23.47 13.0657L24.1055 14.2137C24.131 14.2618 24.1711 14.2834 24.2257 14.2786C24.6282 14.2433 24.9505 14.2909 25.2911 14.3412H25.2913Z" fill="url(#paint9_linear_229_18785)"/>
<path d="M22.0641 14.749L21.1154 13.5739C21.1045 13.5604 21.0972 13.5444 21.0941 13.5274C21.091 13.5104 21.0922 13.4929 21.0976 13.4765C21.103 13.46 21.1125 13.4452 21.1251 13.4333C21.1377 13.4213 21.1532 13.4127 21.17 13.4081L22.7725 12.9846C22.8061 12.9758 22.8417 12.9781 22.8739 12.9911C22.9061 13.0041 22.9332 13.0271 22.951 13.0567L23.6321 14.2065C23.6721 14.275 23.6521 14.3152 23.572 14.3273C23.0888 14.3981 22.6311 14.5477 22.1989 14.776C22.177 14.7877 22.1516 14.7914 22.127 14.7864C22.1025 14.7815 22.0802 14.7683 22.0641 14.749Z" fill="url(#paint10_linear_229_18785)"/>
<path d="M26.5039 14.594C26.9609 14.6228 27.622 14.9328 28.008 15.1833C28.0304 15.1976 28.0564 15.2055 28.083 15.2061C28.1097 15.2067 28.1359 15.1999 28.1587 15.1865C28.1815 15.1732 28.1999 15.1538 28.2119 15.1306C28.2239 15.1074 28.229 15.0813 28.2266 15.0554L28.161 14.2696C28.1549 14.1879 28.1143 14.1314 28.039 14.1002L26.1633 13.3108C26.1483 13.3046 26.1319 13.3028 26.1159 13.3056C26.1 13.3083 26.0851 13.3155 26.0731 13.3262C26.0611 13.337 26.0524 13.3509 26.0481 13.3663C26.0437 13.3818 26.0439 13.3982 26.0486 13.4135L26.3746 14.4931C26.3826 14.521 26.3993 14.5458 26.4225 14.5639C26.4457 14.582 26.4742 14.5925 26.5039 14.594Z" fill="url(#paint11_linear_229_18785)"/>
<path d="M17.8284 16.6828C17.8255 16.6927 17.8203 16.7017 17.8132 16.7093C17.8062 16.7169 17.7975 16.7229 17.7877 16.7267C17.7779 16.7305 17.7673 16.7321 17.7567 16.7313C17.7461 16.7306 17.7357 16.7276 17.7264 16.7224L16.2349 15.861C16.1852 15.8333 16.1712 15.7931 16.1931 15.7402C16.5184 14.9917 16.9373 14.299 17.4496 13.6622C17.4994 13.6009 17.554 13.5949 17.6135 13.6442L18.8245 14.639C18.8474 14.6575 18.8619 14.6843 18.865 14.7136C18.868 14.7429 18.8594 14.7725 18.8409 14.7958C18.3856 15.3618 18.0481 15.9907 17.8284 16.6828Z" fill="url(#paint12_linear_229_18785)"/>
<path d="M29.4958 13.8208L29.4448 14.4894C29.4433 14.5076 29.4463 14.5258 29.4536 14.5424C29.4609 14.5591 29.4723 14.5737 29.4867 14.585L31.479 16.0826C31.4923 16.0928 31.5079 16.0998 31.5244 16.1031C31.5409 16.1064 31.558 16.106 31.5743 16.1018C31.5906 16.0977 31.6057 16.0899 31.6186 16.079C31.6314 16.0682 31.6416 16.0547 31.6483 16.0394L31.8942 15.4843C31.9041 15.4617 31.9061 15.4364 31.8999 15.4126C31.8936 15.3887 31.8794 15.3676 31.8596 15.3527L29.6725 13.7397C29.6564 13.728 29.6375 13.7208 29.6177 13.7189C29.5979 13.7169 29.578 13.7203 29.5599 13.7285C29.5419 13.7368 29.5264 13.7498 29.5151 13.766C29.5038 13.7822 29.4972 13.8012 29.4958 13.8208Z" fill="url(#paint13_linear_229_18785)"/>
<path d="M20.3724 13.8208C20.3947 13.7988 20.4211 13.7814 20.4503 13.7696C20.4794 13.7577 20.5106 13.7517 20.5421 13.7519C20.5736 13.7521 20.6047 13.7584 20.6337 13.7705C20.6627 13.7827 20.689 13.8004 20.7111 13.8226L20.9314 14.0443C21.0484 14.1616 21.1595 14.2824 21.2584 14.3998C21.3573 14.5171 21.442 14.6286 21.5078 14.7281C21.5736 14.8275 21.6191 14.9128 21.6418 14.9792C21.6644 15.0455 21.6638 15.0916 21.6398 15.1148L20.6128 16.1169C20.5645 16.1637 20.4246 16.1146 20.2239 15.9805C20.0231 15.8463 19.7778 15.638 19.542 15.4014L19.3198 15.1797C19.2977 15.1575 19.2802 15.1312 19.2684 15.1023C19.2566 15.0734 19.2507 15.0425 19.2511 15.0114C19.2514 14.9802 19.258 14.9494 19.2704 14.9208C19.2828 14.8921 19.3009 14.8662 19.3234 14.8445L20.3724 13.8208Z" fill="url(#paint14_linear_229_18785)"/>
<path d="M28.7091 14.5615L28.7055 15.3834C28.7055 15.3994 28.7094 15.4152 28.7171 15.4294C28.7247 15.4435 28.7357 15.4556 28.7492 15.4645L30.4719 16.6305C30.4849 16.6391 30.4998 16.6444 30.5153 16.6461C30.5252 16.6472 30.5353 16.6468 30.5451 16.6449C30.5487 16.6442 30.5524 16.6433 30.5559 16.6422L30.5581 16.6415L30.561 16.6405C30.5756 16.635 30.5887 16.6262 30.5992 16.6147C30.6096 16.6033 30.6172 16.5896 30.6212 16.5747L30.7997 15.9006C30.8049 15.8814 30.804 15.8611 30.7972 15.8424C30.7903 15.8237 30.7779 15.8076 30.7615 15.7961L28.8639 14.4823C28.8492 14.472 28.832 14.466 28.8141 14.4648C28.7961 14.4636 28.7782 14.4673 28.7623 14.4755C28.7463 14.4837 28.7329 14.496 28.7236 14.5112C28.7142 14.5263 28.7092 14.5438 28.7091 14.5615Z" fill="url(#paint15_linear_229_18785)"/>
<path d="M14.8145 18.5625L13.2448 18.0597C13.2234 18.0527 13.2052 18.0384 13.1935 18.0196C13.1819 18.0008 13.1774 17.9786 13.181 17.957C13.3607 16.7879 13.6934 15.6633 14.179 14.5831C14.1828 14.5747 14.1884 14.5671 14.1954 14.5609C14.2024 14.5547 14.2106 14.55 14.2195 14.5471C14.2284 14.5442 14.2378 14.5432 14.2472 14.5442C14.2565 14.5451 14.2655 14.5479 14.2737 14.5525L15.7633 15.4158C15.7866 15.4295 15.8041 15.4509 15.8128 15.476C15.8215 15.5011 15.8207 15.5284 15.8106 15.5528C15.4294 16.4623 15.1891 17.4067 15.0895 18.3859C15.0862 18.4168 15.0759 18.4466 15.0594 18.4731C15.043 18.4995 15.0208 18.522 14.9945 18.5389C14.9681 18.5559 14.9383 18.5668 14.9072 18.5708C14.8761 18.5749 14.8444 18.5721 14.8145 18.5625Z" fill="url(#paint16_linear_229_18785)"/>
<path d="M23.7996 14.6913L24.5608 15.9565C24.5638 15.9613 24.5674 15.9657 24.5715 15.9696C24.5747 15.9728 24.5783 15.9756 24.5822 15.978L24.5844 15.9794L24.5865 15.9806C24.5902 15.9826 24.5941 15.9842 24.5981 15.9855C24.5999 15.9861 24.6016 15.9866 24.6034 15.987C24.6053 15.9875 24.6073 15.9879 24.6093 15.9882C24.6106 15.9884 24.6119 15.9885 24.6132 15.9886L24.6149 15.9888L24.6176 15.9889C24.6187 15.989 24.6198 15.989 24.6209 15.9889L25.8647 15.9547C25.8757 15.9543 25.8866 15.9513 25.8962 15.9459C25.9059 15.9405 25.9141 15.9329 25.9202 15.9237C25.9262 15.9145 25.93 15.904 25.9311 15.8931C25.9317 15.8878 25.9316 15.8824 25.9308 15.877C25.9301 15.8715 25.9287 15.8661 25.9266 15.861L25.4513 14.6535C25.4462 14.6408 25.4374 14.6299 25.4261 14.6222C25.4147 14.6145 25.4013 14.6103 25.3875 14.6102L23.8597 14.5886C23.8475 14.5886 23.8356 14.5917 23.825 14.5977C23.8145 14.6037 23.8057 14.6123 23.7996 14.6227C23.7935 14.6332 23.7903 14.645 23.7903 14.657C23.7903 14.6691 23.7935 14.6809 23.7996 14.6913Z" fill="url(#paint17_linear_229_18785)"/>
<path d="M26.329 15.9601L25.8902 14.7454C25.8884 14.7401 25.8873 14.7346 25.8871 14.7291C25.887 14.7276 25.887 14.7261 25.887 14.7246L25.8871 14.7225L25.8873 14.7203C25.8874 14.7191 25.8875 14.7178 25.8877 14.7166L25.8881 14.7142L25.8886 14.7119C25.8913 14.7009 25.897 14.6907 25.9051 14.6827C25.9132 14.6746 25.9235 14.669 25.9347 14.6664C25.9459 14.6638 25.9576 14.6643 25.9685 14.6679L27.6092 15.2194C27.6158 15.2217 27.6219 15.2252 27.6273 15.2296C27.6305 15.2321 27.6334 15.2351 27.636 15.2382C27.6431 15.2468 27.6477 15.2571 27.6493 15.268L27.8296 16.3782C27.8313 16.3886 27.8304 16.3993 27.8268 16.4092C27.8259 16.4115 27.825 16.4137 27.8238 16.4159C27.8226 16.4183 27.8213 16.4206 27.8198 16.4228C27.8182 16.4251 27.8165 16.4273 27.8146 16.4293C27.8129 16.4313 27.811 16.4331 27.809 16.4348C27.8009 16.4417 27.7912 16.4464 27.7808 16.4485C27.7795 16.4487 27.7783 16.4489 27.777 16.4491C27.7729 16.4497 27.7687 16.4498 27.7645 16.4496C27.7594 16.4492 27.7544 16.4483 27.7494 16.4467L26.3691 15.998C26.3643 15.9965 26.3598 15.9945 26.3555 15.9919C26.3516 15.9896 26.3479 15.9869 26.3445 15.9837C26.3376 15.9771 26.3323 15.969 26.329 15.9601Z" fill="url(#paint18_linear_229_18785)"/>
<path d="M23.1338 16.6978C23.1477 16.6984 23.1612 16.6937 23.1713 16.6846C23.4712 16.4203 23.8154 16.24 24.2039 16.1439C24.2141 16.1413 24.2235 16.1364 24.2313 16.1295C24.2354 16.1259 24.239 16.1218 24.2421 16.1173C24.2449 16.1133 24.2472 16.1088 24.249 16.1042C24.2495 16.1029 24.2499 16.1015 24.2504 16.1002C24.2507 16.0992 24.251 16.0982 24.2512 16.0971L24.2518 16.0946C24.2529 16.0898 24.2534 16.0849 24.2533 16.0799L24.2532 16.0774C24.2531 16.0762 24.253 16.0749 24.2529 16.0737C24.2517 16.0633 24.248 16.0534 24.2421 16.0448L23.3935 14.776C23.3522 14.7123 23.297 14.6967 23.2278 14.7291L22.0077 15.2824C21.9949 15.2883 21.9837 15.2971 21.975 15.3081C21.9663 15.319 21.9603 15.3319 21.9574 15.3458C21.9546 15.3596 21.955 15.3739 21.9587 15.3876C21.9624 15.4013 21.9692 15.414 21.9785 15.4248L23.0967 16.681C23.1065 16.6911 23.1198 16.6971 23.1338 16.6978Z" fill="url(#paint19_linear_229_18785)"/>
<path d="M29.9365 16.5819L29.7563 17.4433C29.7542 17.4531 29.7498 17.4623 29.7434 17.4701C29.737 17.4779 29.7289 17.4841 29.7196 17.4881L29.7182 17.4887L29.716 17.4895L29.7148 17.49L29.7137 17.4903L29.7112 17.4911C29.7089 17.4917 29.7066 17.4923 29.7042 17.4927C29.6996 17.4934 29.6949 17.4937 29.6902 17.4934C29.6801 17.4928 29.6703 17.4899 29.6616 17.4848L28.2593 16.6395C28.2509 16.6346 28.2437 16.6278 28.2383 16.6197C28.233 16.6116 28.2296 16.6023 28.2284 16.5927L28.1282 15.5312C28.1272 15.5196 28.1294 15.5079 28.1347 15.4974C28.14 15.487 28.148 15.4782 28.158 15.4721C28.168 15.4659 28.1796 15.4626 28.1913 15.4626C28.2031 15.4625 28.2147 15.4656 28.2247 15.4717L29.9074 16.5152C29.9186 16.522 29.9274 16.532 29.9326 16.544C29.9379 16.5559 29.9392 16.5691 29.9365 16.5819Z" fill="url(#paint20_linear_229_18785)"/>
<path d="M20.2983 16.6263C20.2973 16.6213 20.2945 16.6171 20.2904 16.6143L18.9246 15.5942C18.9065 15.581 18.8856 15.572 18.8634 15.568C18.8413 15.564 18.8185 15.5651 18.797 15.5712C18.7754 15.5773 18.7557 15.5883 18.7393 15.6032C18.7229 15.6182 18.7103 15.6367 18.7025 15.6573L17.9577 17.62C17.9477 17.6463 17.9481 17.6755 17.9589 17.7018C17.9697 17.7281 17.99 17.7497 18.0159 17.7623L19.5292 18.5031C19.5428 18.51 19.5578 18.5136 19.5731 18.5137C19.5884 18.5137 19.6036 18.5102 19.6174 18.5034C19.6311 18.4966 19.6432 18.4866 19.6525 18.4744C19.6619 18.4621 19.6683 18.4479 19.6713 18.4328C19.789 17.8092 19.9972 17.2121 20.2959 16.6413C20.2984 16.6367 20.2993 16.6313 20.2983 16.6263Z" fill="url(#paint21_linear_229_18785)"/>
<path d="M22.7998 16.9153L22.0987 17.9948L22.0973 17.9969C22.0962 17.9984 22.0951 17.9998 22.0939 18.0012L22.0924 18.0028L22.0916 18.0037C22.0904 18.0049 22.0892 18.0061 22.0879 18.0072C22.0856 18.0093 22.0832 18.0112 22.0806 18.0129C22.0734 18.0176 22.0652 18.0208 22.0567 18.0223C22.0482 18.0238 22.0395 18.0236 22.031 18.0217C22.0226 18.0197 22.0147 18.0161 22.0077 18.0111L20.6036 16.982C20.5901 16.9719 20.5812 16.957 20.5788 16.9404C20.5764 16.9239 20.5808 16.907 20.5909 16.8937L21.5342 15.6609C21.5396 15.6536 21.5466 15.6475 21.5547 15.6431L21.5562 15.6423L21.5573 15.6417L21.5596 15.6406C21.5606 15.6402 21.5616 15.6398 21.5626 15.6394C21.5684 15.6372 21.5745 15.6358 21.5808 15.6353C21.59 15.6347 21.5992 15.6359 21.6078 15.6391C21.6164 15.6423 21.6242 15.6473 21.6307 15.6537L22.7926 16.8378C22.8023 16.848 22.8084 16.8612 22.8097 16.8753C22.811 16.8894 22.8076 16.9034 22.7998 16.9153Z" fill="url(#paint22_linear_229_18785)"/>
<path d="M32.8866 18.6815L33.3164 18.2561C33.3283 18.2444 33.3378 18.2305 33.3442 18.2151C33.3506 18.1997 33.3538 18.1832 33.3536 18.1665C33.3534 18.1499 33.3499 18.1335 33.3432 18.1182C33.3365 18.103 33.3268 18.0892 33.3146 18.0777L31.5227 16.3656C31.5077 16.3514 31.4895 16.3412 31.4696 16.3357C31.4497 16.3302 31.4287 16.3297 31.4085 16.3342C31.3883 16.3386 31.3696 16.3479 31.3539 16.3613C31.3383 16.3746 31.3262 16.3916 31.3187 16.4106L31.0911 16.9801C31.082 17.0026 31.0798 17.0272 31.0847 17.0509C31.0895 17.0745 31.1012 17.0963 31.1184 17.1135L32.7082 18.6815C32.7199 18.6931 32.7338 18.7024 32.7491 18.7087C32.7644 18.715 32.7808 18.7183 32.7974 18.7183C32.814 18.7183 32.8304 18.715 32.8457 18.7087C32.8611 18.7024 32.875 18.6931 32.8866 18.6815Z" fill="url(#paint23_linear_229_18785)"/>
<path d="M15.4883 19.9521C15.4665 19.9461 15.4555 19.9316 15.4555 19.9088C15.4555 18.8179 15.5945 17.7437 15.8726 16.6864C15.8764 16.6721 15.8834 16.6589 15.893 16.6476C15.9027 16.6364 15.9148 16.6274 15.9284 16.6213C15.942 16.6153 15.9568 16.6123 15.9717 16.6127C15.9866 16.613 16.0013 16.6166 16.0146 16.6233L17.5188 17.3749C17.5771 17.4037 17.5989 17.4493 17.5843 17.5118C17.3743 18.4346 17.279 19.3687 17.2984 20.3143C17.2986 20.3186 17.2981 20.3228 17.297 20.3269C17.2963 20.3293 17.2955 20.3316 17.2944 20.3338C17.2916 20.3399 17.2874 20.3453 17.2821 20.3495C17.2768 20.3537 17.2705 20.3566 17.2639 20.358C17.2625 20.3583 17.261 20.3585 17.2595 20.3587C17.2579 20.3589 17.2563 20.359 17.2546 20.359C17.2527 20.3589 17.2507 20.3588 17.2488 20.3586C17.2471 20.3583 17.2455 20.358 17.2438 20.3576L15.4883 19.9521Z" fill="url(#paint24_linear_229_18785)"/>
<path d="M31.6246 19.0203L32.0581 18.4183C32.0704 18.4008 32.0759 18.3795 32.0735 18.3583C32.0712 18.3371 32.0611 18.3175 32.0453 18.303L30.4992 16.9153C30.488 16.9052 30.4743 16.8981 30.4595 16.8947C30.4447 16.8914 30.4293 16.8918 30.4147 16.8959C30.4002 16.9001 30.3869 16.9078 30.3762 16.9185C30.3655 16.9291 30.3577 16.9423 30.3536 16.9567L30.1368 17.7479C30.1325 17.7635 30.1326 17.78 30.1371 17.7956C30.1416 17.8112 30.1503 17.8252 30.1623 17.8362L31.4917 19.0347C31.5011 19.0431 31.5121 19.0495 31.5241 19.0534C31.5362 19.0572 31.5489 19.0585 31.5615 19.0572C31.574 19.0558 31.5862 19.0518 31.5971 19.0455C31.608 19.0391 31.6174 19.0305 31.6246 19.0203Z" fill="url(#paint25_linear_229_18785)"/>
<path d="M21.9093 18.449L21.6198 20.044C21.6192 20.0475 21.6182 20.0509 21.617 20.0542C21.6161 20.0564 21.6151 20.0586 21.6139 20.0608C21.6127 20.0629 21.6114 20.0651 21.6099 20.0671C21.6049 20.0739 21.5984 20.0796 21.5908 20.0836C21.5833 20.0876 21.5749 20.0898 21.5664 20.0901C21.5578 20.0904 21.5493 20.0889 21.5415 20.0854L19.9681 19.4366C19.9558 19.4318 19.9455 19.4228 19.9392 19.4113C19.9329 19.3998 19.9309 19.3864 19.9335 19.3736L20.3323 17.4668C20.3327 17.4647 20.3333 17.4626 20.334 17.4605L20.3349 17.4579L20.3358 17.4557C20.3379 17.451 20.3406 17.4466 20.3439 17.4426C20.3497 17.4355 20.3571 17.43 20.3655 17.4265C20.374 17.4229 20.3831 17.4215 20.3922 17.4222C20.4014 17.4229 20.4102 17.4259 20.4179 17.4307L21.8857 18.3931C21.8946 18.3992 21.9016 18.4077 21.9058 18.4176C21.9079 18.4224 21.9092 18.4275 21.9098 18.4326C21.9105 18.4381 21.9103 18.4436 21.9093 18.449Z" fill="url(#paint26_linear_229_18785)"/>
<path d="M19.6075 21.6173L19.5347 19.2023C19.5342 19.183 19.5281 19.1643 19.5171 19.1483C19.5061 19.1323 19.4907 19.1198 19.4728 19.1122L17.9285 18.4796C17.913 18.4734 17.8962 18.4711 17.8796 18.4728C17.863 18.4746 17.8471 18.4803 17.8332 18.4896C17.8194 18.4988 17.808 18.5113 17.8002 18.5259C17.7924 18.5405 17.7883 18.5568 17.7883 18.5734V21.4101C17.7886 21.4345 17.7977 21.458 17.8141 21.4762C17.8305 21.4944 17.8531 21.5062 17.8775 21.5092L19.4928 21.7201C19.5074 21.7219 19.5222 21.7206 19.5362 21.7162C19.5502 21.7118 19.5631 21.7045 19.574 21.6948C19.5849 21.685 19.5935 21.6731 19.5993 21.6597C19.6051 21.6463 19.6079 21.6319 19.6075 21.6173Z" fill="url(#paint27_linear_229_18785)"/>
<path d="M33.972 20.5324C33.999 20.5654 34.0116 20.6077 34.0072 20.6499C34.0028 20.6921 33.9816 20.7309 33.9483 20.7577L33.9374 20.7667C33.8564 20.8317 33.7709 20.8895 33.6856 20.9368C33.6004 20.9841 33.5172 21.02 33.4407 21.0424C33.3642 21.0649 33.296 21.0734 33.24 21.0675C33.184 21.0616 33.1413 21.0415 33.1143 21.0082L32.0071 19.6547C31.9799 19.6216 31.9689 19.5761 31.9748 19.5206C31.9807 19.4652 32.0033 19.401 32.0414 19.3317C32.0794 19.2624 32.1322 19.1894 32.1966 19.1168C32.261 19.0442 32.3359 18.9734 32.4168 18.9086L32.4277 18.8996C32.4613 18.8731 32.5041 18.8608 32.5468 18.8656C32.5895 18.8703 32.6285 18.8916 32.6554 18.9248L33.972 20.5324Z" fill="url(#paint28_linear_229_18785)"/>
<path d="M13.0195 19.2184C13.0146 19.228 13.0119 19.2385 13.0117 19.2492C12.9619 20.8388 13.0712 22.4151 13.3395 23.9783C13.3444 24.0079 13.3603 24.0345 13.384 24.0529C13.4076 24.0713 13.4372 24.08 13.4669 24.0774L15.3171 23.9206C15.396 23.9134 15.4264 23.872 15.4082 23.7963C15.0998 22.4566 14.9657 21.0995 15.0057 19.725C15.0063 19.7011 14.9985 19.6777 14.9836 19.6587C14.9687 19.6397 14.9476 19.6262 14.9238 19.6204L13.1027 19.1807C13.0919 19.1783 13.0807 19.1782 13.0699 19.1805C13.0591 19.1828 13.049 19.1874 13.0402 19.194C13.0315 19.2005 13.0244 19.2089 13.0195 19.2184Z" fill="url(#paint29_linear_229_18785)"/>
<path d="M21.5979 20.6441C21.6045 20.6462 21.6102 20.6501 21.6144 20.6552C21.6156 20.6567 21.6166 20.6582 21.6175 20.6597C21.6184 20.6612 21.6191 20.6628 21.6197 20.6644C21.62 20.6651 21.6202 20.6659 21.6205 20.6666L21.6209 20.6683L21.6211 20.669C21.6213 20.6703 21.6215 20.6716 21.6216 20.673C21.6617 21.3061 21.763 21.9285 21.9257 22.5401C21.9439 22.6074 21.9178 22.6404 21.8474 22.6392L20.4197 22.6068C20.3493 22.6044 20.3056 22.5695 20.2886 22.5022C20.1053 21.7621 20.0112 21.0118 20.0063 20.2512C20.0051 20.1731 20.0422 20.1461 20.1174 20.1701L21.5979 20.6441Z" fill="url(#paint30_linear_229_18785)"/>
<path d="M16.3442 25.3318L18.0524 24.9984C18.1555 24.9779 18.1908 24.9179 18.158 24.8181C17.7804 23.6863 17.5242 22.5281 17.3895 21.3434C17.3863 21.32 17.3755 21.2982 17.3587 21.2813C17.342 21.2644 17.3202 21.2533 17.2966 21.2497L15.5502 21.001C15.5399 20.9996 15.5294 21.0005 15.5195 21.0036C15.5096 21.0066 15.5005 21.0118 15.493 21.0188C15.4855 21.0257 15.4796 21.0342 15.476 21.0436C15.4724 21.053 15.471 21.0631 15.4719 21.0731C15.6067 22.5041 15.8744 23.9092 16.275 25.2885C16.2789 25.3031 16.2882 25.3156 16.301 25.3236C16.3139 25.3316 16.3293 25.3346 16.3442 25.3318Z" fill="url(#paint31_linear_229_18785)"/>
<path d="M19.7314 22.5383C19.7581 22.5383 19.7745 22.5515 19.7805 22.5779C20.0051 23.5319 20.3153 24.4583 20.7111 25.357C20.7132 25.3618 20.7149 25.3669 20.7161 25.372C20.7176 25.3782 20.7184 25.3846 20.7184 25.3911C20.7185 25.4028 20.7161 25.4143 20.7115 25.425C20.7069 25.4357 20.7001 25.4453 20.6915 25.4531C20.6889 25.4555 20.6861 25.4578 20.6832 25.4598C20.681 25.4613 20.6788 25.4627 20.6766 25.464C20.6719 25.4667 20.667 25.4689 20.6619 25.4705L19.2033 25.9608C19.1401 25.9812 19.0958 25.9608 19.0703 25.8995C18.6491 24.835 18.3182 23.7428 18.0778 22.623C18.0633 22.5533 18.0918 22.5191 18.1634 22.5203L19.7314 22.5383Z" fill="url(#paint32_linear_229_18785)"/>
<path d="M21.6854 25.9355C21.7121 25.9235 21.7345 25.9019 21.7527 25.8707C22.123 25.7361 22.489 25.5763 22.8508 25.3913C22.873 25.3801 22.8901 25.3609 22.8985 25.3375C22.907 25.3141 22.9062 25.2882 22.8963 25.2651L22.0732 23.3349C22.0514 23.2844 22.0125 23.261 21.9567 23.2646L20.6182 23.3565C20.6158 23.3567 20.6135 23.357 20.6111 23.3574C20.6083 23.3579 20.6054 23.3586 20.6027 23.3595C20.5975 23.3611 20.5925 23.3632 20.5879 23.366C20.5786 23.3714 20.5707 23.3788 20.5647 23.3876C20.5587 23.3964 20.5549 23.4065 20.5534 23.4171L20.5531 23.4201L20.5529 23.423L20.5528 23.4257L20.5528 23.4279C20.5528 23.4291 20.5529 23.4303 20.5529 23.4314L20.5532 23.4343C20.5537 23.4391 20.5548 23.4438 20.5563 23.4484C20.8295 24.2835 21.1585 25.0963 21.5433 25.8869C21.5749 25.9494 21.6222 25.9656 21.6854 25.9355Z" fill="url(#paint33_linear_229_18785)"/>
<path d="M17.6444 30.2123L15.929 31.3693C15.9197 31.3756 15.9091 31.3798 15.898 31.3817C15.8868 31.3835 15.8754 31.383 15.8645 31.3801C15.8536 31.3772 15.8435 31.372 15.8348 31.3648C15.8262 31.3577 15.8192 31.3488 15.8143 31.3387C14.9353 29.5112 14.2306 27.6201 13.7 25.6652C13.6965 25.6522 13.6956 25.6387 13.6975 25.6255C13.6994 25.6122 13.704 25.5995 13.711 25.5882C13.718 25.5769 13.7273 25.5671 13.7383 25.5596C13.7492 25.5521 13.7616 25.5469 13.7747 25.5444L15.6413 25.1966C15.6996 25.1858 15.7372 25.208 15.7542 25.2633C16.2483 26.9178 16.8923 28.5116 17.6863 30.0447C17.7227 30.1132 17.7088 30.169 17.6444 30.2123Z" fill="url(#paint34_linear_229_18785)"/>
<path d="M22.0386 26.8096L23.5301 29.03C23.5395 29.0439 23.552 29.0553 23.5667 29.0635C23.5815 29.0716 23.5979 29.0762 23.6147 29.0769C23.6316 29.0776 23.6483 29.0744 23.6637 29.0675C23.679 29.0606 23.6925 29.0502 23.7031 29.0372L24.5317 27.9973C24.5461 27.9796 24.5544 27.9578 24.5554 27.9351C24.5563 27.9124 24.5499 27.89 24.5371 27.8712L23.2952 26.0689C23.2797 26.0471 23.2565 26.0319 23.2302 26.0262C23.2039 26.0205 23.1764 26.0248 23.1531 26.0383L22.0732 26.6582C22.0606 26.6656 22.0495 26.6755 22.0409 26.6872C22.0322 26.6989 22.026 26.7123 22.0228 26.7265C22.0212 26.7334 22.0203 26.7404 22.0202 26.7473C22.02 26.7548 22.0206 26.7623 22.022 26.7697C22.0247 26.784 22.0304 26.7976 22.0386 26.8096Z" fill="url(#paint35_linear_229_18785)"/>
<path d="M19.1086 31.2017C19.0987 31.2105 19.087 31.2169 19.0742 31.2206C19.0615 31.2242 19.0482 31.2251 19.0351 31.223C19.022 31.2209 19.0096 31.216 18.9986 31.2086C18.9877 31.2012 18.9786 31.1914 18.972 31.1801C18.1379 29.7696 17.4217 28.3025 16.8231 26.779C16.8061 26.7358 16.8195 26.7069 16.8632 26.6925L18.4894 26.1554C18.5513 26.135 18.5938 26.1542 18.6169 26.2131C19.1353 27.4951 19.7647 28.72 20.5053 29.8879C20.5154 29.904 20.5195 29.9229 20.5168 29.9414C20.5141 29.9599 20.5049 29.9767 20.4907 29.9888L19.1086 31.2017Z" fill="url(#paint36_linear_229_18785)"/>
<path d="M19.6276 27.1629L21.4686 30.2934C21.4794 30.3117 21.4944 30.3272 21.5123 30.3387C21.5303 30.3502 21.5507 30.3574 21.5719 30.3597C21.5932 30.362 21.6147 30.3593 21.6347 30.3519C21.6547 30.3444 21.6727 30.3324 21.6872 30.3168L22.707 29.2193C22.7267 29.1978 22.739 29.1706 22.742 29.1417C22.7449 29.1128 22.7384 29.0838 22.7233 29.0589L21.1281 26.4384C21.1106 26.4098 21.0831 26.3887 21.0508 26.3791C21.0185 26.3694 20.9838 26.3719 20.9533 26.3861L19.6877 26.9718C19.6704 26.9798 19.655 26.9912 19.6425 27.0054C19.63 27.0196 19.6206 27.0362 19.6149 27.0542C19.6092 27.0722 19.6074 27.0911 19.6096 27.1099C19.6118 27.1286 19.6179 27.1467 19.6276 27.1629Z" fill="url(#paint37_linear_229_18785)"/>
<path d="M25.3927 28.8357L25.3935 28.8365C25.8445 29.2729 26.5968 30.0009 26.5658 30.1853C26.5172 30.4797 26.3776 30.9422 26.1469 31.573C26.1214 31.6427 26.082 31.6511 26.0286 31.5982L24.2476 29.8248C24.228 29.8052 24.2156 29.7797 24.2127 29.7525C24.2097 29.7253 24.2162 29.698 24.2312 29.6752L24.945 28.5632C24.9533 28.5507 24.9644 28.5401 24.9774 28.5324C24.9905 28.5247 25.0052 28.5201 25.0205 28.5189C25.0357 28.5177 25.0511 28.5199 25.0655 28.5254C25.0799 28.5309 25.0929 28.5395 25.1035 28.5506C25.157 28.6077 25.2622 28.7095 25.3927 28.8357Z" fill="url(#paint38_linear_229_18785)"/>
<path d="M25.4895 32.1912L23.4008 30.0105C23.3595 29.9684 23.3219 29.9708 23.2879 30.0177L22.3974 31.236C22.3585 31.2889 22.3597 31.3405 22.401 31.391C23.1537 32.3245 23.975 33.195 24.8649 34.0024C24.922 34.0541 24.962 34.0439 24.9851 33.9718L25.5259 32.3534C25.5454 32.2921 25.5332 32.238 25.4895 32.1912Z" fill="url(#paint39_linear_229_18785)"/>
<path d="M28.7419 31.5369L28.7838 33.2563C28.7841 33.2693 28.7809 33.2821 28.7745 33.2934C28.768 33.3047 28.7586 33.3141 28.7472 33.3206C28.7359 33.327 28.7229 33.3303 28.7098 33.3301C28.6967 33.3299 28.6839 33.3262 28.6727 33.3194L26.7952 32.1407C26.7826 32.1329 26.7727 32.1215 26.7668 32.1079C26.761 32.0944 26.7594 32.0794 26.7624 32.065L27.0593 30.5601C27.0613 30.5484 27.0662 30.5373 27.0736 30.5279C27.081 30.5185 27.0906 30.5111 27.1016 30.5062C27.1076 30.5036 27.114 30.5018 27.1204 30.5009C27.1258 30.5001 27.1312 30.4999 27.1366 30.5003C27.1486 30.5012 27.1602 30.505 27.1704 30.5115L28.7073 31.4793C28.7174 31.4854 28.7258 31.4938 28.7318 31.5039L28.7333 31.5065L28.7347 31.5093C28.7357 31.5112 28.7366 31.5132 28.7373 31.5152C28.7383 31.5179 28.7392 31.5206 28.7399 31.5233L28.7405 31.5261L28.741 31.5287L28.7413 31.5303C28.7416 31.5325 28.7418 31.5347 28.7419 31.5369Z" fill="url(#paint40_linear_229_18785)"/>
<path d="M23.2398 36.3655C23.2553 36.3529 23.2675 36.3367 23.2751 36.3183L24.0054 34.4944C24.0216 34.4525 24.0254 34.407 24.0164 34.3636C24.0073 34.3201 23.9858 34.2804 23.9544 34.2493C22.9892 33.2905 22.1072 32.2614 21.3084 31.1621C21.3001 31.1507 21.2893 31.1413 21.2768 31.1347C21.2644 31.128 21.2505 31.1242 21.2364 31.1235C21.2222 31.1228 21.2081 31.1252 21.195 31.1307C21.182 31.1361 21.1703 31.1444 21.1609 31.1549L19.9808 32.4597C19.9612 32.4818 19.9496 32.5098 19.948 32.5392C19.9463 32.5687 19.9547 32.5978 19.9717 32.6219C20.909 33.9459 21.9445 35.1907 23.0785 36.3562C23.092 36.3704 23.109 36.381 23.1278 36.387C23.1467 36.393 23.1668 36.3941 23.1864 36.3904C23.2059 36.3866 23.2243 36.3781 23.2398 36.3655Z" fill="url(#paint41_linear_229_18785)"/>
<path d="M42.5291 31.9857C42.5626 32.0065 42.5909 32.0344 42.6121 32.0675C42.6332 32.1006 42.6465 32.1379 42.6511 32.1767L42.9443 34.7269C42.946 34.7429 42.9428 34.7591 42.9352 34.7733C42.9276 34.7876 42.9159 34.7992 42.9016 34.8066C42.8874 34.8141 42.8713 34.817 42.8555 34.815C42.8526 34.8146 42.8497 34.8141 42.8468 34.8134C42.8426 34.8123 42.8385 34.811 42.8345 34.8092C42.8316 34.808 42.8287 34.8065 42.8259 34.8048C42.8243 34.8039 42.8227 34.8029 42.8211 34.8018C42.8184 34.7998 42.8157 34.7977 42.8132 34.7954L41.8517 33.9465C41.8055 33.9045 41.7819 33.8522 41.7806 33.7897C41.7709 33.0845 41.7078 32.3822 41.5913 31.6829C41.5868 31.6548 41.5906 31.626 41.6022 31.6C41.6138 31.574 41.6328 31.5519 41.6568 31.5363C41.6809 31.5207 41.709 31.5122 41.7377 31.5121C41.7664 31.5119 41.7946 31.5199 41.8189 31.5351L42.5291 31.9857Z" fill="url(#paint42_linear_229_18785)"/>
<path d="M20.7767 38.467C20.7921 38.4562 20.8046 38.4418 20.8131 38.4251L21.8729 36.3219C21.9033 36.263 21.896 36.2096 21.8511 36.1615C20.6273 34.799 19.5426 33.3362 18.5968 31.773C18.5531 31.7009 18.4997 31.6925 18.4366 31.7478L16.9178 33.0707C16.8656 33.1163 16.8565 33.1686 16.8905 33.2274C17.9734 35.0814 19.2178 36.8217 20.6237 38.4486C20.636 38.4627 20.6517 38.4736 20.6693 38.4803C20.6869 38.487 20.706 38.4893 20.7247 38.487C20.7434 38.4847 20.7613 38.4778 20.7767 38.467Z" fill="url(#paint43_linear_229_18785)"/>
<path d="M30.8161 32.2939L31.2295 34.0601C31.2318 34.0699 31.2314 34.0801 31.2285 34.0897C31.2256 34.0994 31.2202 34.1081 31.2129 34.115C31.2055 34.1219 31.1964 34.1268 31.1866 34.1292C31.1807 34.1306 31.1746 34.1311 31.1686 34.1307C31.1646 34.1304 31.1606 34.1297 31.1566 34.1286L29.3975 33.5933C29.3862 33.5897 29.3764 33.5827 29.3692 33.5734C29.3621 33.564 29.358 33.5528 29.3574 33.5411L29.2518 31.8235C29.251 31.814 29.2526 31.8045 29.2565 31.7957C29.2603 31.787 29.2663 31.7793 29.2739 31.7734C29.2758 31.7719 29.2779 31.7705 29.28 31.7693C29.2819 31.7681 29.2839 31.7671 29.2859 31.7662C29.2903 31.7642 29.295 31.7628 29.2999 31.762C29.3094 31.7603 29.3192 31.761 29.3283 31.764L30.7779 32.2525C30.7798 32.2531 30.7816 32.2538 30.7835 32.2546C30.7858 32.2557 30.788 32.2569 30.7902 32.2582C30.7947 32.261 30.7988 32.2644 30.8024 32.2683C30.8091 32.2755 30.8138 32.2843 30.8161 32.2939Z" fill="url(#paint44_linear_229_18785)"/>
<path d="M33.7208 33.9041C33.7232 33.9039 33.7256 33.9037 33.728 33.9034C33.7317 33.9028 33.7354 33.9021 33.7391 33.9011C33.743 33.9001 33.7468 33.8988 33.7505 33.8973C33.7527 33.8964 33.7549 33.8954 33.7571 33.8943L34.6968 33.4239C34.715 33.4146 34.7312 33.4017 34.7443 33.386C34.7574 33.3704 34.7672 33.3523 34.773 33.3329C34.7788 33.3135 34.7805 33.2932 34.778 33.2732C34.7756 33.2532 34.769 33.234 34.7587 33.2166L33.9683 31.8902C33.9246 31.8169 33.8688 31.8067 33.8008 31.8595C33.6758 31.9592 33.5386 32.0404 33.3892 32.1028C33.3322 32.1257 33.2739 32.1431 33.2144 32.1551C33.144 32.1683 33.0772 32.1905 33.0141 32.2218C32.9449 32.2542 32.9261 32.3053 32.9577 32.375L33.6278 33.8492C33.6333 33.8608 33.6411 33.8711 33.6506 33.8796C33.6556 33.8841 33.661 33.888 33.6668 33.8913C33.672 33.8944 33.6776 33.897 33.6834 33.899C33.6886 33.9008 33.694 33.9022 33.6995 33.903C33.7065 33.9042 33.7137 33.9045 33.7208 33.9041Z" fill="url(#paint45_linear_229_18785)"/>
<path d="M31.4954 32.3371C31.8025 32.3588 32.12 32.3474 32.4478 32.3029C32.476 32.2993 32.5046 32.3051 32.5293 32.3195C32.554 32.3338 32.5733 32.3558 32.5843 32.3822L33.249 33.952C33.2879 34.0445 33.2569 34.0931 33.1562 34.0979L31.8377 34.161C31.7697 34.1634 31.7272 34.1328 31.7102 34.0691L31.2623 32.4345C31.2555 32.4082 31.2593 32.3804 31.2729 32.3568C31.2865 32.3333 31.3088 32.3159 31.3351 32.3083C31.3994 32.2891 31.4529 32.2987 31.4954 32.3371Z" fill="url(#paint46_linear_229_18785)"/>
<path d="M28.5799 36.522L28.5671 34.4386C28.5672 34.4297 28.5651 34.421 28.5609 34.4131C28.5583 34.4081 28.5549 34.4036 28.5509 34.3996C28.5486 34.3974 28.5461 34.3953 28.5434 34.3935L26.3017 32.9283C26.2944 32.9234 26.286 32.9203 26.2772 32.9193C26.2684 32.9184 26.2595 32.9195 26.2512 32.9227C26.243 32.9259 26.2357 32.931 26.2299 32.9377C26.2241 32.9443 26.22 32.9522 26.2179 32.9607L25.7809 34.7485C25.7784 34.7594 25.7793 34.7708 25.7835 34.7811C25.7877 34.7914 25.7951 34.8002 25.8046 34.8062L28.4943 36.567C28.5025 36.5726 28.5121 36.5759 28.5221 36.5764C28.5321 36.577 28.542 36.5749 28.5509 36.5702C28.5522 36.5695 28.5535 36.5688 28.5547 36.568C28.5558 36.5673 28.5568 36.5666 28.5578 36.5659C28.5587 36.5652 28.5596 36.5645 28.5605 36.5638C28.5651 36.5599 28.5691 36.5553 28.5722 36.5501C28.5773 36.5416 28.5799 36.5318 28.5799 36.522Z" fill="url(#paint47_linear_229_18785)"/>
<path d="M39.8487 33.1694L39.8527 33.173L39.8528 33.1731C40.1285 33.4269 40.7879 34.0343 40.7754 34.1502C40.7099 34.8122 40.6012 35.4616 40.4495 36.0984C40.4449 36.1169 40.4353 36.1338 40.4217 36.1472C40.4082 36.1607 40.3912 36.1702 40.3727 36.1747C40.3542 36.1792 40.3349 36.1785 40.3169 36.1726C40.3082 36.1698 40.3 36.1659 40.2925 36.1609C40.2882 36.158 40.2842 36.1549 40.2804 36.1514C40.277 36.1484 40.2739 36.1452 40.271 36.1417L39.3441 35.0459C39.304 34.9979 39.2901 34.9438 39.3022 34.8837L39.6537 33.1103C39.6556 33.1 39.6603 33.0904 39.6673 33.0825C39.6703 33.0791 39.6736 33.0762 39.6773 33.0736C39.6822 33.0701 39.6877 33.0674 39.6935 33.0656C39.7036 33.0625 39.7144 33.0621 39.7247 33.0646C39.735 33.0671 39.7445 33.0723 39.752 33.0797C39.7711 33.0979 39.8049 33.129 39.8487 33.1694Z" fill="url(#paint48_linear_229_18785)"/>
<path d="M38.002 34.489L36.9986 33.2275C36.9925 33.2197 36.9847 33.2135 36.9757 33.2093C36.9702 33.2067 36.9644 33.2049 36.9584 33.2039C36.956 33.2035 36.9536 33.2033 36.9512 33.2032C36.9498 33.2031 36.9485 33.2031 36.9471 33.2031C36.9372 33.2033 36.9275 33.2058 36.9187 33.2103C36.9139 33.2128 36.9095 33.2158 36.9055 33.2194C36.9022 33.2224 36.8992 33.2257 36.8966 33.2293L36.1154 34.3034C36.108 34.3136 36.104 34.3258 36.1036 34.3383C36.1033 34.3508 36.1068 34.3631 36.1135 34.3737L37.0496 35.8263C37.0553 35.8352 37.0633 35.8426 37.0727 35.8477C37.082 35.8528 37.0926 35.8555 37.1033 35.8555C37.114 35.8555 37.1245 35.8528 37.1339 35.8477C37.1433 35.8426 37.1512 35.8352 37.157 35.8263L38.0056 34.5629C38.0097 34.5567 38.0126 34.5499 38.0143 34.5428C38.0156 34.5371 38.0162 34.5313 38.0159 34.5254C38.0155 34.5181 38.0139 34.5109 38.0111 34.5042C38.0088 34.4988 38.0057 34.4937 38.002 34.489Z" fill="url(#paint49_linear_229_18785)"/>
<path d="M35.2485 37.1762L34.4254 35.392C34.4195 35.3787 34.4189 35.3638 34.4236 35.3501C34.4283 35.3364 34.4381 35.325 34.4509 35.3181L35.7038 34.617C35.7171 34.6098 35.7328 34.608 35.7474 34.6121C35.762 34.6161 35.7745 34.6256 35.7821 34.6386L36.7491 36.248C36.7572 36.2609 36.7599 36.2765 36.7565 36.2914C36.7531 36.3063 36.7439 36.3192 36.7309 36.3273L35.3323 37.1996C35.3254 37.204 35.3176 37.2069 35.3095 37.2081C35.3013 37.2093 35.293 37.2087 35.2851 37.2065C35.2772 37.2043 35.2699 37.2004 35.2635 37.1952C35.2572 37.19 35.2521 37.1835 35.2485 37.1762Z" fill="url(#paint50_linear_229_18785)"/>
<path d="M31.4617 35.4283C31.4367 35.4052 31.4053 35.39 31.3715 35.3847C30.6759 35.2646 30.0088 35.0543 29.3702 34.7539C29.3595 34.7489 29.3477 34.7466 29.3359 34.7475C29.3241 34.7483 29.3128 34.7523 29.303 34.7588C29.2967 34.7631 29.2912 34.7683 29.2868 34.7742C29.2854 34.776 29.2842 34.7779 29.283 34.7798C29.282 34.7815 29.2811 34.7832 29.2802 34.7849C29.2751 34.7955 29.2728 34.8072 29.2737 34.8188L29.4102 36.8338C29.4124 36.8624 29.4235 36.8897 29.4421 36.9122C29.4606 36.9347 29.4857 36.9513 29.514 36.9599L31.8796 37.6502C31.8912 37.6536 31.9036 37.654 31.9154 37.6513C31.9272 37.6486 31.9381 37.6428 31.9469 37.6346C31.9509 37.6309 31.9544 37.6267 31.9574 37.6223C31.961 37.6168 31.9639 37.6108 31.9658 37.6045C31.9694 37.593 31.9698 37.5808 31.967 37.5691L31.5117 35.5145C31.5041 35.4815 31.4867 35.4515 31.4617 35.4283Z" fill="url(#paint51_linear_229_18785)"/>
<path d="M41.8717 34.7431L42.9279 35.7181C42.9534 35.7417 42.973 35.7708 42.9854 35.8029C42.9977 35.8351 43.0023 35.8696 42.9989 35.9038L42.7312 38.5675C42.7306 38.5733 42.7292 38.5789 42.7271 38.5843C42.7255 38.5886 42.7234 38.5927 42.7209 38.5965C42.7195 38.5987 42.7179 38.6008 42.7162 38.6028C42.7078 38.6129 42.6967 38.6203 42.6841 38.6241C42.6715 38.628 42.658 38.6281 42.6453 38.6244C42.6327 38.6208 42.6214 38.6135 42.6129 38.6036L41.4674 37.2717C41.4477 37.249 41.434 37.2218 41.4273 37.1926C41.4206 37.1634 41.4213 37.133 41.4292 37.1041C41.621 36.3495 41.7205 35.583 41.7278 34.8044C41.7279 34.7974 41.7288 34.7904 41.7306 34.7836C41.733 34.7747 41.7369 34.7661 41.7421 34.7583C41.7513 34.7446 41.7643 34.7339 41.7796 34.7274C41.7948 34.7209 41.8117 34.7189 41.828 34.7217C41.8444 34.7245 41.8595 34.7319 41.8717 34.7431Z" fill="url(#paint52_linear_229_18785)"/>
<path d="M28.1464 37.7151C28.1489 37.5552 28.0663 37.4297 27.8988 37.3384C27.0125 36.8518 26.0607 36.1741 25.0434 35.3054C24.9899 35.2586 24.9529 35.2694 24.9323 35.3379L24.3404 37.3132C24.3317 37.3422 24.3317 37.3732 24.3404 37.4026C24.3491 37.432 24.3662 37.4585 24.3896 37.479C25.4762 38.4197 26.6453 39.2458 27.897 39.957C27.9637 39.9955 28.0014 39.9763 28.0099 39.8994C28.0851 39.1556 28.1307 38.4276 28.1464 37.7151Z" fill="url(#paint53_linear_229_18785)"/>
<path d="M32.2056 35.5397C32.7458 35.5746 33.2769 35.5313 33.799 35.41C33.873 35.3932 33.924 35.419 33.952 35.4875L34.7241 37.3456C34.7246 37.3469 34.725 37.3482 34.7255 37.3495C34.7258 37.3506 34.7262 37.3518 34.7265 37.3529L34.727 37.355C34.7273 37.3562 34.7276 37.3574 34.7278 37.3587C34.7282 37.3609 34.7285 37.3631 34.7287 37.3653C34.729 37.3686 34.7291 37.372 34.7289 37.3754C34.7284 37.3855 34.7257 37.3954 34.7211 37.4043C34.7179 37.4102 34.7139 37.4157 34.7093 37.4205C34.707 37.4228 34.7045 37.425 34.7019 37.427C34.6939 37.433 34.6847 37.4372 34.6749 37.4393C34.0424 37.5919 33.4014 37.6502 32.7519 37.6141C32.726 37.6131 32.7011 37.6037 32.6808 37.5875C32.6605 37.5714 32.6459 37.5491 32.639 37.524L32.1218 35.6425C32.1183 35.63 32.1178 35.617 32.1205 35.6043C32.1231 35.5917 32.1288 35.5798 32.137 35.5698C32.1452 35.5597 32.1557 35.5518 32.1676 35.5465C32.1795 35.5413 32.1925 35.539 32.2056 35.5397Z" fill="url(#paint54_linear_229_18785)"/>
<path d="M38.9847 35.4953C38.9768 35.5018 38.9707 35.5103 38.9671 35.5199C38.7607 36.0906 38.4615 36.6067 38.0693 37.0681C38.0366 37.1065 38.0341 37.1467 38.0621 37.1888L39.1256 38.8162C39.1332 38.8278 39.1439 38.8373 39.1564 38.8436C39.1689 38.8499 39.1828 38.8528 39.1969 38.852C39.2109 38.8513 39.2244 38.847 39.2362 38.8394C39.248 38.8319 39.2576 38.8214 39.264 38.809L40.2073 37.0626C40.2449 36.9918 40.2382 36.9257 40.1872 36.8644L39.0673 35.5037C39.0637 35.4993 39.0596 35.4955 39.055 35.4923C39.0512 35.4897 39.0471 35.4876 39.0427 35.4859C39.0379 35.4841 39.0329 35.4829 39.0278 35.4824C39.0255 35.4822 39.0231 35.4821 39.0208 35.4821C39.0193 35.4821 39.0178 35.4822 39.0163 35.4824C39.015 35.4825 39.0137 35.4826 39.0124 35.4829C39.0074 35.4837 39.0024 35.4852 38.9978 35.4873C38.9931 35.4893 38.9887 35.4921 38.9847 35.4953Z" fill="url(#paint55_linear_229_18785)"/>
<path d="M27.103 40.6725C27.1406 40.6954 27.1576 40.7284 27.154 40.7717L26.9136 43.6661C26.9131 43.6732 26.9107 43.6801 26.9068 43.686C26.9028 43.692 26.8974 43.6968 26.891 43.7001C26.8845 43.7033 26.8774 43.7049 26.8702 43.7046C26.863 43.7044 26.856 43.7023 26.8498 43.6985C25.1672 42.6256 23.6114 41.3958 22.1825 40.0093C22.1376 39.9649 22.126 39.9138 22.1479 39.8561L23.022 37.5889C23.0499 37.5168 23.0912 37.5084 23.1458 37.5637C24.3465 38.7483 25.6656 39.7846 27.103 40.6725Z" fill="url(#paint56_linear_229_18785)"/>
<path d="M37.0168 40.7807C37.6384 40.4359 38.1993 40.0142 38.6994 39.5155C38.7565 39.4591 38.7644 39.396 38.7231 39.3263L37.6614 37.5943C37.6226 37.5319 37.5765 37.5264 37.523 37.5781C37.0799 38.0119 36.5743 38.3591 36.0061 38.6198C35.9442 38.6474 35.9278 38.6913 35.9569 38.7514L36.8784 40.7375C36.883 40.7473 36.8892 40.7562 36.8968 40.764L36.899 40.7663L36.9001 40.7673L36.9012 40.7683L36.9027 40.7696C36.9129 40.7785 36.9249 40.7852 36.938 40.7893C36.9462 40.7918 36.9547 40.7933 36.9633 40.7937C36.9683 40.7939 36.9733 40.7938 36.9783 40.7932C36.9918 40.7917 37.005 40.7875 37.0168 40.7807Z" fill="url(#paint57_linear_229_18785)"/>
<path d="M41.1408 37.9806C41.1432 37.9771 41.146 37.9739 41.1492 37.971C41.1563 37.9647 41.165 37.9604 41.1743 37.9586C41.1836 37.9567 41.1933 37.9574 41.2022 37.9606C41.2112 37.9637 41.2191 37.9692 41.2252 37.9764L42.4563 39.4705C42.4726 39.4905 42.4838 39.5141 42.4889 39.5392C42.494 39.5643 42.4928 39.5902 42.4854 39.6146C42.2122 40.505 41.8438 41.355 41.38 42.1648C41.3768 42.1705 41.3721 42.1753 41.3665 42.1787L41.3652 42.1794C41.3644 42.1798 41.3636 42.1802 41.3628 42.1806C41.3613 42.1813 41.3597 42.1819 41.358 42.1824C41.3547 42.1834 41.3513 42.184 41.3478 42.1841C41.3412 42.1843 41.3346 42.1828 41.3288 42.1797C41.3276 42.1791 41.3264 42.1784 41.3252 42.1776C41.3233 42.1763 41.3215 42.1749 41.3199 42.1733C41.3178 42.1713 41.316 42.1691 41.3145 42.1666L40.098 40.3085C40.064 40.2556 40.0646 40.2034 40.0998 40.1517C40.5539 39.4837 40.8987 38.7646 41.1342 37.9944C41.1357 37.9895 41.138 37.9849 41.1408 37.9806Z" fill="url(#paint58_linear_229_18785)"/>
<path d="M32.0196 38.9523C31.9982 38.9317 31.9709 38.9182 31.9415 38.9136C30.98 38.7453 30.0604 38.4522 29.1826 38.0341C29.1702 38.0281 29.1564 38.0254 29.1426 38.0262C29.1288 38.0269 29.1154 38.0311 29.1039 38.0384C29.0923 38.0457 29.0829 38.0557 29.0766 38.0676C29.0703 38.0795 29.0673 38.0927 29.0679 38.1061L29.1316 40.4365C29.1328 40.4857 29.1565 40.5206 29.2027 40.541C30.2637 40.9964 31.363 41.3268 32.5006 41.5322C32.5067 41.5332 32.5129 41.5333 32.519 41.5326C32.5204 41.5324 32.5217 41.5322 32.523 41.532C32.5241 41.5318 32.5253 41.5315 32.5264 41.5313C32.5283 41.5308 32.5301 41.5303 32.532 41.5297C32.5421 41.5263 32.5512 41.5206 32.5585 41.513C32.5598 41.5117 32.561 41.5104 32.5621 41.509C32.5641 41.5065 32.566 41.5039 32.5676 41.5011C32.5686 41.4994 32.5695 41.4977 32.5704 41.496L32.5713 41.4938C32.5718 41.4927 32.5723 41.4916 32.5727 41.4904L32.5736 41.4879L32.5742 41.4859C32.5747 41.484 32.5752 41.4821 32.5755 41.4802C32.5761 41.477 32.5765 41.4737 32.5766 41.4705C32.5767 41.4682 32.5767 41.4659 32.5765 41.4637L32.5762 41.4609C32.5761 41.4596 32.5759 41.4584 32.5757 41.4571L32.5752 41.4547L32.0617 39.0289C32.0558 38.9997 32.0411 38.973 32.0196 38.9523Z" fill="url(#paint59_linear_229_18785)"/>
<path d="M32.9558 39.0722C33.7061 39.1334 34.4436 39.0601 35.1684 38.8523C35.2023 38.8425 35.2386 38.8453 35.2703 38.8603C35.3019 38.8753 35.3266 38.9014 35.3396 38.9334L36.1955 41.033C36.2026 41.0506 36.206 41.0694 36.2055 41.0884C36.2049 41.1073 36.2003 41.1259 36.1921 41.143C36.1839 41.1601 36.1722 41.1753 36.1577 41.1877C36.1433 41.2001 36.1264 41.2094 36.1081 41.215C35.2935 41.4613 34.46 41.5695 33.6078 41.5395C33.5434 41.5371 33.5034 41.5052 33.4876 41.4439L32.8866 39.1533C32.884 39.1432 32.8838 39.1326 32.8861 39.1225C32.8866 39.1202 32.8873 39.118 32.888 39.1158C32.8887 39.1137 32.8896 39.1117 32.8905 39.1097C32.8917 39.1072 32.893 39.1047 32.8945 39.1024C32.8955 39.1008 32.8966 39.0992 32.8977 39.0977C32.8984 39.0968 32.8992 39.0958 32.9 39.0949C32.9067 39.087 32.9154 39.0808 32.9251 39.0768C32.9313 39.0743 32.9378 39.0727 32.9445 39.0721C32.9466 39.072 32.9488 39.0719 32.951 39.0719C32.9526 39.0719 32.9542 39.072 32.9558 39.0722Z" fill="url(#paint60_linear_229_18785)"/>
<path d="M38.6448 44.9187C39.4606 44.414 40.1805 43.7995 40.8046 43.075C40.8568 43.0149 40.8622 42.9506 40.821 42.8821L39.61 40.8816C39.5675 40.8107 39.5183 40.8059 39.4624 40.8672C38.9113 41.4776 38.2715 41.9756 37.5431 42.3613C37.4702 42.3997 37.4502 42.4556 37.483 42.5289L38.5392 44.8862C38.5622 44.9367 38.5975 44.9475 38.6448 44.9187Z" fill="url(#paint61_linear_229_18785)"/>
<path d="M32.1965 42.8046C32.2424 42.8131 32.2846 42.8352 32.3175 42.8681C32.3503 42.9009 32.3723 42.9429 32.3804 42.9884L32.9048 45.8576C32.9068 45.8689 32.906 45.8804 32.9025 45.8913C32.899 45.9022 32.8928 45.912 32.8846 45.92C32.8763 45.928 32.8662 45.9339 32.8552 45.9371C32.8489 45.939 32.8425 45.94 32.836 45.9401C32.831 45.9401 32.826 45.9397 32.8211 45.9387C31.2975 45.648 29.8424 45.1595 28.456 44.4735C28.4111 44.4507 28.3886 44.4146 28.3886 44.3654V41.5791C28.3888 41.5662 28.3922 41.5536 28.3987 41.5424C28.4051 41.5312 28.4143 41.5219 28.4255 41.5152C28.4315 41.5116 28.438 41.5088 28.4447 41.507C28.4504 41.5054 28.4563 41.5045 28.4622 41.5042C28.4752 41.5038 28.4881 41.5066 28.4997 41.5124C29.6688 42.1192 30.9011 42.5499 32.1965 42.8046Z" fill="url(#paint62_linear_229_18785)"/>
<path d="M34.1832 46H34.5656C35.6231 45.9844 36.6289 45.8072 37.5831 45.4683C37.6013 45.4617 37.6179 45.4516 37.6321 45.4386C37.6463 45.4255 37.6577 45.4098 37.6656 45.3924C37.6736 45.3749 37.678 45.3561 37.6785 45.337C37.679 45.3178 37.6757 45.2988 37.6687 45.2809L36.6544 42.7614C36.6301 42.7013 36.5864 42.6809 36.5233 42.7001C35.563 43.0041 34.5784 43.1194 33.5695 43.0461C33.5003 43.0413 33.4736 43.072 33.4894 43.138L34.1832 46Z" fill="url(#paint63_linear_229_18785)"/>
<path d="M26.3403 22L25.4609 22.4056L26.5497 26.8437L27.6594 26.1994V22H26.3403Z" fill="#396E8C"/>
<rect x="25" y="22.3817" width="1.61217" height="4.61823" fill="#272564"/>
<path d="M29.2617 22.9173L28.4756 26.6157H29.7858L30.2696 24.3251L31.2573 26.2816C31.7734 27.0834 32.2786 26.6157 32.4668 26.2816L33.5956 24.3251L34.1398 26.6157H35.4501L34.4825 22.7264C34.1398 21.605 33.3134 22.114 33.0917 22.6071L31.9427 24.8261L30.6123 22.4401C30.0479 21.4857 29.4297 22.289 29.2617 22.9173Z" fill="#396E8C"/>
<path d="M28.3712 23.1929L27.5547 27H28.9156L29.4181 24.6007L30.444 26.5573C30.98 27.359 31.5049 26.8913 31.7003 26.5573L32.8728 24.6007L33.4381 27H34.799L33.794 23.0021C33.4381 21.8806 32.5796 22.3896 32.3493 22.8828L31.1559 25.1018L29.774 22.7157C29.1878 21.7613 28.5457 22.5646 28.3712 23.1929Z" fill="#272564"/>
<path d="M37.1308 22L36.2656 23.2404H38.9278C39.5075 23.2404 39.9774 23.7103 39.9774 24.2899C39.9774 24.8696 39.5075 25.3394 38.9278 25.3394H37.4657V23.781H36.2656V26.4844H38.9073C40.1456 26.4844 41.1495 25.4805 41.1495 24.2422C41.1495 23.0039 40.1456 22 38.9073 22H37.1308Z" fill="#396E8C"/>
<path d="M36.622 22.4156L35.7568 23.6836H38.3957C38.9882 23.6836 39.4686 24.164 39.4686 24.7566C39.4686 25.3491 38.9882 25.8295 38.3957 25.8295H37.0001V24.2364H35.7568V26.9999H38.3486C39.6145 26.9999 40.6407 25.9737 40.6407 24.7078C40.6407 23.4419 39.6145 22.4156 38.3486 22.4156H36.622Z" fill="#272564"/>
<defs>
<linearGradient id="paint0_linear_229_18785" x1="28" y1="10" x2="28" y2="46" gradientUnits="userSpaceOnUse">
<stop stop-color="#2695CB"/>
<stop offset="1" stop-color="#262262"/>
</linearGradient>
<linearGradient id="paint1_linear_229_18785" x1="28" y1="10" x2="28" y2="46" gradientUnits="userSpaceOnUse">
<stop stop-color="#2695CB"/>
<stop offset="1" stop-color="#262262"/>
</linearGradient>
<linearGradient id="paint2_linear_229_18785" x1="28" y1="10" x2="28" y2="46" gradientUnits="userSpaceOnUse">
<stop stop-color="#2695CB"/>
<stop offset="1" stop-color="#262262"/>
</linearGradient>
<linearGradient id="paint3_linear_229_18785" x1="28" y1="10" x2="28" y2="46" gradientUnits="userSpaceOnUse">
<stop stop-color="#2695CB"/>
<stop offset="1" stop-color="#262262"/>
</linearGradient>
<linearGradient id="paint4_linear_229_18785" x1="28" y1="10" x2="28" y2="46" gradientUnits="userSpaceOnUse">
<stop stop-color="#2695CB"/>
<stop offset="1" stop-color="#262262"/>
</linearGradient>
<linearGradient id="paint5_linear_229_18785" x1="28" y1="10" x2="28" y2="46" gradientUnits="userSpaceOnUse">
<stop stop-color="#2695CB"/>
<stop offset="1" stop-color="#262262"/>
</linearGradient>
<linearGradient id="paint6_linear_229_18785" x1="28" y1="10" x2="28" y2="46" gradientUnits="userSpaceOnUse">
<stop stop-color="#2695CB"/>
<stop offset="1" stop-color="#262262"/>
</linearGradient>
<linearGradient id="paint7_linear_229_18785" x1="28" y1="10" x2="28" y2="46" gradientUnits="userSpaceOnUse">
<stop stop-color="#2695CB"/>
<stop offset="1" stop-color="#262262"/>
</linearGradient>
<linearGradient id="paint8_linear_229_18785" x1="28" y1="10" x2="28" y2="46" gradientUnits="userSpaceOnUse">
<stop stop-color="#2695CB"/>
<stop offset="1" stop-color="#262262"/>
</linearGradient>
<linearGradient id="paint9_linear_229_18785" x1="28" y1="10" x2="28" y2="46" gradientUnits="userSpaceOnUse">
<stop stop-color="#2695CB"/>
<stop offset="1" stop-color="#262262"/>
</linearGradient>
<linearGradient id="paint10_linear_229_18785" x1="28" y1="10" x2="28" y2="46" gradientUnits="userSpaceOnUse">
<stop stop-color="#2695CB"/>
<stop offset="1" stop-color="#262262"/>
</linearGradient>
<linearGradient id="paint11_linear_229_18785" x1="28" y1="10" x2="28" y2="46" gradientUnits="userSpaceOnUse">
<stop stop-color="#2695CB"/>
<stop offset="1" stop-color="#262262"/>
</linearGradient>
<linearGradient id="paint12_linear_229_18785" x1="28" y1="10" x2="28" y2="46" gradientUnits="userSpaceOnUse">
<stop stop-color="#2695CB"/>
<stop offset="1" stop-color="#262262"/>
</linearGradient>
<linearGradient id="paint13_linear_229_18785" x1="28" y1="10" x2="28" y2="46" gradientUnits="userSpaceOnUse">
<stop stop-color="#2695CB"/>
<stop offset="1" stop-color="#262262"/>
</linearGradient>
<linearGradient id="paint14_linear_229_18785" x1="28" y1="10" x2="28" y2="46" gradientUnits="userSpaceOnUse">
<stop stop-color="#2695CB"/>
<stop offset="1" stop-color="#262262"/>
</linearGradient>
<linearGradient id="paint15_linear_229_18785" x1="28" y1="10" x2="28" y2="46" gradientUnits="userSpaceOnUse">
<stop stop-color="#2695CB"/>
<stop offset="1" stop-color="#262262"/>
</linearGradient>
<linearGradient id="paint16_linear_229_18785" x1="28" y1="10" x2="28" y2="46" gradientUnits="userSpaceOnUse">
<stop stop-color="#2695CB"/>
<stop offset="1" stop-color="#262262"/>
</linearGradient>
<linearGradient id="paint17_linear_229_18785" x1="28" y1="10" x2="28" y2="46" gradientUnits="userSpaceOnUse">
<stop stop-color="#2695CB"/>
<stop offset="1" stop-color="#262262"/>
</linearGradient>
<linearGradient id="paint18_linear_229_18785" x1="28" y1="10" x2="28" y2="46" gradientUnits="userSpaceOnUse">
<stop stop-color="#2695CB"/>
<stop offset="1" stop-color="#262262"/>
</linearGradient>
<linearGradient id="paint19_linear_229_18785" x1="28" y1="10" x2="28" y2="46" gradientUnits="userSpaceOnUse">
<stop stop-color="#2695CB"/>
<stop offset="1" stop-color="#262262"/>
</linearGradient>
<linearGradient id="paint20_linear_229_18785" x1="28" y1="10" x2="28" y2="46" gradientUnits="userSpaceOnUse">
<stop stop-color="#2695CB"/>
<stop offset="1" stop-color="#262262"/>
</linearGradient>
<linearGradient id="paint21_linear_229_18785" x1="28" y1="10" x2="28" y2="46" gradientUnits="userSpaceOnUse">
<stop stop-color="#2695CB"/>
<stop offset="1" stop-color="#262262"/>
</linearGradient>
<linearGradient id="paint22_linear_229_18785" x1="28" y1="10" x2="28" y2="46" gradientUnits="userSpaceOnUse">
<stop stop-color="#2695CB"/>
<stop offset="1" stop-color="#262262"/>
</linearGradient>
<linearGradient id="paint23_linear_229_18785" x1="28" y1="10" x2="28" y2="46" gradientUnits="userSpaceOnUse">
<stop stop-color="#2695CB"/>
<stop offset="1" stop-color="#262262"/>
</linearGradient>
<linearGradient id="paint24_linear_229_18785" x1="28" y1="10" x2="28" y2="46" gradientUnits="userSpaceOnUse">
<stop stop-color="#2695CB"/>
<stop offset="1" stop-color="#262262"/>
</linearGradient>
<linearGradient id="paint25_linear_229_18785" x1="28" y1="10" x2="28" y2="46" gradientUnits="userSpaceOnUse">
<stop stop-color="#2695CB"/>
<stop offset="1" stop-color="#262262"/>
</linearGradient>
<linearGradient id="paint26_linear_229_18785" x1="28" y1="10" x2="28" y2="46" gradientUnits="userSpaceOnUse">
<stop stop-color="#2695CB"/>
<stop offset="1" stop-color="#262262"/>
</linearGradient>
<linearGradient id="paint27_linear_229_18785" x1="28" y1="10" x2="28" y2="46" gradientUnits="userSpaceOnUse">
<stop stop-color="#2695CB"/>
<stop offset="1" stop-color="#262262"/>
</linearGradient>
<linearGradient id="paint28_linear_229_18785" x1="28" y1="10" x2="28" y2="46" gradientUnits="userSpaceOnUse">
<stop stop-color="#2695CB"/>
<stop offset="1" stop-color="#262262"/>
</linearGradient>
<linearGradient id="paint29_linear_229_18785" x1="28" y1="10" x2="28" y2="46" gradientUnits="userSpaceOnUse">
<stop stop-color="#2695CB"/>
<stop offset="1" stop-color="#262262"/>
</linearGradient>
<linearGradient id="paint30_linear_229_18785" x1="28" y1="10" x2="28" y2="46" gradientUnits="userSpaceOnUse">
<stop stop-color="#2695CB"/>
<stop offset="1" stop-color="#262262"/>
</linearGradient>
<linearGradient id="paint31_linear_229_18785" x1="28" y1="10" x2="28" y2="46" gradientUnits="userSpaceOnUse">
<stop stop-color="#2695CB"/>
<stop offset="1" stop-color="#262262"/>
</linearGradient>
<linearGradient id="paint32_linear_229_18785" x1="28" y1="10" x2="28" y2="46" gradientUnits="userSpaceOnUse">
<stop stop-color="#2695CB"/>
<stop offset="1" stop-color="#262262"/>
</linearGradient>
<linearGradient id="paint33_linear_229_18785" x1="28" y1="10" x2="28" y2="46" gradientUnits="userSpaceOnUse">
<stop stop-color="#2695CB"/>
<stop offset="1" stop-color="#262262"/>
</linearGradient>
<linearGradient id="paint34_linear_229_18785" x1="28" y1="10" x2="28" y2="46" gradientUnits="userSpaceOnUse">
<stop stop-color="#2695CB"/>
<stop offset="1" stop-color="#262262"/>
</linearGradient>
<linearGradient id="paint35_linear_229_18785" x1="28" y1="10" x2="28" y2="46" gradientUnits="userSpaceOnUse">
<stop stop-color="#2695CB"/>
<stop offset="1" stop-color="#262262"/>
</linearGradient>
<linearGradient id="paint36_linear_229_18785" x1="28" y1="10" x2="28" y2="46" gradientUnits="userSpaceOnUse">
<stop stop-color="#2695CB"/>
<stop offset="1" stop-color="#262262"/>
</linearGradient>
<linearGradient id="paint37_linear_229_18785" x1="28" y1="10" x2="28" y2="46" gradientUnits="userSpaceOnUse">
<stop stop-color="#2695CB"/>
<stop offset="1" stop-color="#262262"/>
</linearGradient>
<linearGradient id="paint38_linear_229_18785" x1="28" y1="10" x2="28" y2="46" gradientUnits="userSpaceOnUse">
<stop stop-color="#2695CB"/>
<stop offset="1" stop-color="#262262"/>
</linearGradient>
<linearGradient id="paint39_linear_229_18785" x1="28" y1="10" x2="28" y2="46" gradientUnits="userSpaceOnUse">
<stop stop-color="#2695CB"/>
<stop offset="1" stop-color="#262262"/>
</linearGradient>
<linearGradient id="paint40_linear_229_18785" x1="28" y1="10" x2="28" y2="46" gradientUnits="userSpaceOnUse">
<stop stop-color="#2695CB"/>
<stop offset="1" stop-color="#262262"/>
</linearGradient>
<linearGradient id="paint41_linear_229_18785" x1="28" y1="10" x2="28" y2="46" gradientUnits="userSpaceOnUse">
<stop stop-color="#2695CB"/>
<stop offset="1" stop-color="#262262"/>
</linearGradient>
<linearGradient id="paint42_linear_229_18785" x1="28" y1="10" x2="28" y2="46" gradientUnits="userSpaceOnUse">
<stop stop-color="#2695CB"/>
<stop offset="1" stop-color="#262262"/>
</linearGradient>
<linearGradient id="paint43_linear_229_18785" x1="28" y1="10" x2="28" y2="46" gradientUnits="userSpaceOnUse">
<stop stop-color="#2695CB"/>
<stop offset="1" stop-color="#262262"/>
</linearGradient>
<linearGradient id="paint44_linear_229_18785" x1="28" y1="10" x2="28" y2="46" gradientUnits="userSpaceOnUse">
<stop stop-color="#2695CB"/>
<stop offset="1" stop-color="#262262"/>
</linearGradient>
<linearGradient id="paint45_linear_229_18785" x1="28" y1="10" x2="28" y2="46" gradientUnits="userSpaceOnUse">
<stop stop-color="#2695CB"/>
<stop offset="1" stop-color="#262262"/>
</linearGradient>
<linearGradient id="paint46_linear_229_18785" x1="28" y1="10" x2="28" y2="46" gradientUnits="userSpaceOnUse">
<stop stop-color="#2695CB"/>
<stop offset="1" stop-color="#262262"/>
</linearGradient>
<linearGradient id="paint47_linear_229_18785" x1="28" y1="10" x2="28" y2="46" gradientUnits="userSpaceOnUse">
<stop stop-color="#2695CB"/>
<stop offset="1" stop-color="#262262"/>
</linearGradient>
<linearGradient id="paint48_linear_229_18785" x1="28" y1="10" x2="28" y2="46" gradientUnits="userSpaceOnUse">
<stop stop-color="#2695CB"/>
<stop offset="1" stop-color="#262262"/>
</linearGradient>
<linearGradient id="paint49_linear_229_18785" x1="28" y1="10" x2="28" y2="46" gradientUnits="userSpaceOnUse">
<stop stop-color="#2695CB"/>
<stop offset="1" stop-color="#262262"/>
</linearGradient>
<linearGradient id="paint50_linear_229_18785" x1="28" y1="10" x2="28" y2="46" gradientUnits="userSpaceOnUse">
<stop stop-color="#2695CB"/>
<stop offset="1" stop-color="#262262"/>
</linearGradient>
<linearGradient id="paint51_linear_229_18785" x1="28" y1="10" x2="28" y2="46" gradientUnits="userSpaceOnUse">
<stop stop-color="#2695CB"/>
<stop offset="1" stop-color="#262262"/>
</linearGradient>
<linearGradient id="paint52_linear_229_18785" x1="28" y1="10" x2="28" y2="46" gradientUnits="userSpaceOnUse">
<stop stop-color="#2695CB"/>
<stop offset="1" stop-color="#262262"/>
</linearGradient>
<linearGradient id="paint53_linear_229_18785" x1="28" y1="10" x2="28" y2="46" gradientUnits="userSpaceOnUse">
<stop stop-color="#2695CB"/>
<stop offset="1" stop-color="#262262"/>
</linearGradient>
<linearGradient id="paint54_linear_229_18785" x1="28" y1="10" x2="28" y2="46" gradientUnits="userSpaceOnUse">
<stop stop-color="#2695CB"/>
<stop offset="1" stop-color="#262262"/>
</linearGradient>
<linearGradient id="paint55_linear_229_18785" x1="28" y1="10" x2="28" y2="46" gradientUnits="userSpaceOnUse">
<stop stop-color="#2695CB"/>
<stop offset="1" stop-color="#262262"/>
</linearGradient>
<linearGradient id="paint56_linear_229_18785" x1="28" y1="10" x2="28" y2="46" gradientUnits="userSpaceOnUse">
<stop stop-color="#2695CB"/>
<stop offset="1" stop-color="#262262"/>
</linearGradient>
<linearGradient id="paint57_linear_229_18785" x1="28" y1="10" x2="28" y2="46" gradientUnits="userSpaceOnUse">
<stop stop-color="#2695CB"/>
<stop offset="1" stop-color="#262262"/>
</linearGradient>
<linearGradient id="paint58_linear_229_18785" x1="28" y1="10" x2="28" y2="46" gradientUnits="userSpaceOnUse">
<stop stop-color="#2695CB"/>
<stop offset="1" stop-color="#262262"/>
</linearGradient>
<linearGradient id="paint59_linear_229_18785" x1="28" y1="10" x2="28" y2="46" gradientUnits="userSpaceOnUse">
<stop stop-color="#2695CB"/>
<stop offset="1" stop-color="#262262"/>
</linearGradient>
<linearGradient id="paint60_linear_229_18785" x1="28" y1="10" x2="28" y2="46" gradientUnits="userSpaceOnUse">
<stop stop-color="#2695CB"/>
<stop offset="1" stop-color="#262262"/>
</linearGradient>
<linearGradient id="paint61_linear_229_18785" x1="28" y1="10" x2="28" y2="46" gradientUnits="userSpaceOnUse">
<stop stop-color="#2695CB"/>
<stop offset="1" stop-color="#262262"/>
</linearGradient>
<linearGradient id="paint62_linear_229_18785" x1="28" y1="10" x2="28" y2="46" gradientUnits="userSpaceOnUse">
<stop stop-color="#2695CB"/>
<stop offset="1" stop-color="#262262"/>
</linearGradient>
<linearGradient id="paint63_linear_229_18785" x1="28" y1="10" x2="28" y2="46" gradientUnits="userSpaceOnUse">
<stop stop-color="#2695CB"/>
<stop offset="1" stop-color="#262262"/>
</linearGradient>
</defs>
</svg>
