<?xml version="1.0" encoding="UTF-8"?>
<!-- generated by Finnhub -->
<svg viewBox="0 0 55.5 55.5" xmlns="http://www.w3.org/2000/svg">
<path d="M0 0h55.5v55.5H0z" fill="rgb(239, 242, 248)"/>
<path d="M11 29.12c0 4.87 3.33 9.34 5 10.97 1.35.83 4.69 2.5 7.3 2.5 2.62 0 4.23-2.49 4.7-3.73-1.33-1.73-4-6.41-4-11.29 0-4.87 2.67-8.99 4-10.44l-.28-1.83c-2.57-1.1-8.45-2.55-11.41.38C12.6 19.33 11 23.03 11 29.12Z" fill="url(#d)"/>
<path d="M45 29.12c0 4.87-3.33 9.34-5 10.97-1.35.83-4.69 2.5-7.3 2.5-2.62 0-4.23-2.49-4.7-3.73 1.33-1.73 4-6.41 4-11.29 0-4.87-2.67-8.99-4-10.44l.28-1.83c2.57-1.1 8.45-2.55 11.41.38C43.4 19.33 45 23.03 45 29.12Z" fill="url(#c)"/>
<path d="M21.17 14.41a8.5 8.5 0 0 0-6.1 2.66C16.44 15.05 20.9 11 27.98 11s11.57 4.05 12.94 6.07a8.9 8.9 0 0 0-5.97-2.66c-3.63 0-6.16 1.78-6.97 2.66-1-.88-3.75-2.66-6.8-2.66Z" fill="url(#b)"/>
<path d="M21.17 41.59a8.5 8.5 0 0 1-6.1-2.66C16.44 40.95 20.9 45 27.98 45s11.57-4.05 12.94-6.07a8.89 8.89 0 0 1-5.97 2.66c-3.63 0-6.16-1.78-6.97-2.66-1 .88-3.75 2.66-6.8 2.66Z" fill="url(#a)"/>
<g fill="rgb(254, 254, 253)" opacity=".3">
<ellipse cx="39.93" cy="28.03" rx="5.07" ry="5.06" opacity=".2"/>
<ellipse cx="40.93" cy="28.03" rx="3.77" ry="3.76" opacity=".2"/>
<ellipse cx="41.83" cy="28.03" rx="2.87" ry="2.86" opacity=".2"/>
<circle cx="41.83" cy="28.03" r="1.61" opacity=".2"/>
</g>
<defs>
<linearGradient id="d" x1="19.5" x2="19.5" y1="13.96" y2="42.58" gradientUnits="userSpaceOnUse">
<stop stop-color="rgb(78, 111, 29)" offset="0"/>
<stop stop-color="rgb(168, 196, 82)" offset=".47"/>
<stop stop-color="rgb(80, 114, 29)" offset="1"/>
</linearGradient>
<linearGradient id="c" x1="28.33" x2="41.57" y1="28.84" y2="29.92" gradientUnits="userSpaceOnUse">
<stop stop-color="rgb(54, 56, 54)" offset="0"/>
<stop stop-color="rgb(98, 99, 100)" offset="1"/>
</linearGradient>
<linearGradient id="b" x1="23.49" x2="27.98" y1="11.51" y2="18.26" gradientUnits="userSpaceOnUse">
<stop stop-color="rgb(132, 186, 65)" offset="0"/>
<stop stop-color="rgb(45, 77, 11)" offset="1"/>
</linearGradient>
<linearGradient id="a" x1="27.29" x2="30.19" y1="46.4" y2="39.98" gradientUnits="userSpaceOnUse">
<stop stop-color="rgb(118, 177, 58)" offset="0"/>
<stop stop-color="rgb(44, 77, 5)" offset="1"/>
</linearGradient>
</defs>
</svg>
