<?xml version="1.0" encoding="UTF-8"?>
<!-- generated by Finnhub -->
<svg viewBox="0 0 55.5 55.5" xmlns="http://www.w3.org/2000/svg">
<path d="M 0,0 H 55.5 V 55.5 H 0 Z" fill="rgb(239, 242, 248)"/>
<path d="M 35.17,32.375 A 3.5,3.5 0 0,0 33.48,32.44 C 33.57,32.45 33.63,32.57 33.67,32.8 L 35.33,38.68 C 35.39,38.88 35.32,39 35.11,39 H 21.23 C 20.98,39 20.89,38.85 20.95,38.6 L 22.45,32.69 C 22.48,32.55 22.42,32.47 22.27,32.47 L 21.07,32.42 C 20.9,32.41 20.79,32.49 20.75,32.65 A 39.66,39.66 0 0,1 18.58,38.81 C 18.53,38.91 18.45,39 18.34,39 H 14.09 C 13.99,39 13.98,38.96 14.03,38.88 A 44.6,44.6 0 0,0 18.85,29.55 C 20.22,25.88 20.95,22.45 21.01,19.27 C 21.01,19.09 21.1,19.01 21.26,19.01 L 22.51,19 C 22.64,19 22.71,19.07 22.71,19.2 L 22.74,21.69 C 22.74,21.93 22.86,22.04 23.1,22 L 23.27,21.98 C 23.57,21.93 23.99,21.75 24,21.44 V 19.37 C 24,19.14 23.94,19 24.17,19 H 31.89 C 32.11,19 32,19.13 32,19.35 V 21.29 C 32,21.56 32.34,21.69 32.6,21.71 L 32.91,21.72 C 33.19,21.73 33.32,21.59 33.29,21.31 L 33.09,19.19 C 33.09,19.07 33.13,19.02 33.25,19.01 H 34.79 C 34.88,19.01 34.93,19.05 34.94,19.14 A 51.52,51.52 0 0,0 39.89,35.53 A 21.11,21.11 0 0,0 41.97,38.89 C 42.02,38.95 42,39 41.93,39 H 37.85 A 0.26,0.26 0 0,1 37.6,38.84 A 20.81,20.81 0 0,1 35.52,32.76 A 0.43,0.43 0 0,0 35.18,32.39 Z M 22.3,25.57 C 22.17,25 22.22,24.47 22.45,24 C 22.79,23.75 23.02,23.69 23.15,23.8 C 23.44,24.05 23.59,24.37 23.6,24.76 C 23.6,25.15 23.48,25.47 23.2,25.74 C 22.94,25.99 22.64,25.94 22.3,25.57 Z M 33.1,29.4 C 33.27,30.04 33.76,30.46 34.2,30.34 C 34.64,30.22 34.86,29.61 34.7,28.97 C 34.52,28.33 34.03,27.91 33.6,28.03 C 33.15,28.15 32.93,28.76 33.1,29.4 Z M 33.44,25.87 C 33.07,25.92 32.71,25.48 32.62,24.89 C 32.54,24.29 32.77,23.78 33.14,23.72 C 33.51,23.67 33.87,24.11 33.95,24.7 C 34.04,25.3 33.81,25.81 33.44,25.87 Z M 21.9,30.32 C 21.46,30.18 21.25,29.57 21.43,28.94 C 21.61,28.31 22.13,27.91 22.56,28.04 C 23.01,28.18 23.22,28.79 23.03,29.42 C 22.85,30.05 22.35,30.45 21.9,30.32 Z" fill="rgb(6, 6, 5)" fill-rule="evenodd"/>
<path d="M 11.84,34.995 C 11.87,35.09 11.87,35.16 11.87,35.23 C 11.86,35.59 11.81,35.6 11.72,35.25 C 10.63,31.17 10.78,27.37 12.16,23.86 A 16.55,16.55 0 0,1 19.93,15.03 A 16.64,16.64 0 0,1 31.57,13.4 A 16.58,16.58 0 0,1 42.81,21.65 A 17.2,17.2 0 0,1 44.91,28.38 C 45.16,30.86 44.89,33.33 44.11,35.77 C 44.11,35.8 44.08,35.81 44.05,35.8 C 44.02,35.8 44,35.78 44.01,35.75 C 44.24,34.51 44.38,33.21 44.42,31.85 A 15.83,15.83 0 0,0 40.22,20.51 A 15.71,15.71 0 0,0 29.58,14.96 A 16.22,16.22 0 0,0 15.75,20.5 A 17.42,17.42 0 0,0 11.85,35 Z" fill="rgb(206, 34, 19)"/>
</svg>
