<?xml version="1.0" encoding="UTF-8"?>
<!-- generated by Finnhub -->
<svg viewBox="0 0 55.5 55.5" xmlns="http://www.w3.org/2000/svg">
<path d="M 0,0 H 55.5 V 55.5 H 0 Z" fill="rgb(239, 242, 248)"/>
<path d="M 3.99,26.375 C 4,27.99 5.25,29.46 5.87,30 A 6.57,6.57 0 0,1 6.87,24.49 A 2.75,2.75 0 0,1 6.65,21.7 C 6.45,20.91 6.05,20.24 5.87,20 C 5.92,23.4 4,24.39 4,26.39 Z" fill="rgb(91, 147, 195)"/>
<path d="M 6.62,22.965 C 6.63,21.92 7.11,21.05 7.34,20.74 C 7.24,23.2 9,23.71 9,25 C 9,26.37 8.03,27.33 7.55,27.65 C 7.61,27.38 7.72,26.66 7.72,25.95 C 7.72,25.05 6.63,24.3 6.63,22.99 Z" fill="rgb(2, 51, 108)"/>
<path d="M 7.29,26.985 H 6.1 L 6.37,27.25 V 29.75 L 6.1,30 H 7.3 L 7,29.75 V 27.25 L 7.3,27 Z M 11.2,27.2 V 27.88 C 11.12,27.65 10.78,27.2 10.05,27.2 C 9.13,27.2 8.85,27.95 8.84,28.33 C 8.84,29.62 9.7,29.79 10.04,29.79 C 10.32,29.79 10.58,29.71 10.67,29.67 V 28.69 L 10.31,28.46 H 11.51 L 11.25,28.69 V 29.79 C 10.89,29.94 10.3,29.99 10.05,30 C 9.46,29.98 8.3,29.68 8.3,28.66 C 8.3,27.38 9.27,27 10.05,27 C 10.67,27 11.07,27.13 11.19,27.2 Z M 13.66,30 L 13.3,29.67 V 27.83 L 15.61,30 V 27.28 L 15.91,27 H 14.96 L 15.26,27.28 V 29.12 L 13,27 V 29.67 L 12.64,30 H 13.66 Z M 17.14,27 L 17.5,27.33 V 29.67 L 17.14,30 H 18.34 L 18,29.67 V 27.33 L 18.34,27 H 17.14 Z M 19.57,29.22 V 29.71 C 19.63,29.81 19.84,30 20.23,30 C 20.73,30 21.29,29.8 21.29,29.22 C 21.29,28.76 20.85,28.41 20.59,28.21 L 20.46,28.09 L 20.33,27.97 C 20.21,27.87 20.08,27.76 20.08,27.59 C 20.08,27.35 20.34,27.16 20.55,27.16 C 20.75,27.16 21.02,27.3 21.12,27.7 V 27.16 C 21.06,27.1 20.84,27 20.46,27 C 19.98,27 19.63,27.38 19.63,27.7 C 19.63,28 19.94,28.37 20.17,28.55 L 20.27,28.63 C 20.5,28.82 20.85,29.09 20.85,29.38 C 20.85,29.71 20.45,29.78 20.23,29.78 C 20.02,29.78 19.79,29.66 19.57,29.22 Z" fill="rgb(91, 147, 195)"/>
<path d="M 22.99,29.645 L 22.64,30 H 23.86 L 23.5,29.66 V 27.28 H 23.78 C 23.95,27.28 24.31,27.26 24.31,27.85 C 24.31,28.35 23.88,28.61 23.66,28.67 C 23.96,28.71 24.8,28.45 24.8,27.75 A 0.73,0.73 0 0,0 24.12,27 H 22.71 L 23,27.28 V 29.66 Z M 25.66,27 L 26,27.32 V 29.74 L 25.73,30 H 27.52 L 27.72,29.81 V 29.33 L 27.28,29.74 H 26.53 V 28.54 H 27.32 L 27.48,28.84 V 28.18 L 27.32,28.33 H 26.53 V 27.23 H 27.28 L 27.57,27.51 V 27 H 25.66 Z M 41.46,27.32 L 41.12,27 H 43.02 V 27.5 L 42.74,27.24 H 42 V 28.33 H 42.77 L 42.93,28.18 V 28.84 L 42.77,28.54 H 42 V 29.74 H 42.74 L 43.18,29.33 V 29.81 L 42.98,30 H 41.18 L 41.46,29.74 V 27.32 Z M 29.5,29.78 L 29.74,30 H 28.76 L 28.99,29.78 V 27.22 H 28.17 L 27.82,27.6 L 27.97,27 H 30.52 L 30.71,27.6 L 30.31,27.22 H 29.5 V 29.78 Z M 31.24,30 L 31.48,29.77 V 27.25 L 31.22,27 H 32.44 C 32.94,27 33.34,27.4 33.34,27.88 C 33.34,28.24 33.11,28.56 32.78,28.68 L 33.78,29.82 L 34.15,30 H 33.39 L 32.31,28.75 H 32 V 29.77 L 32.21,30 H 31.25 Z M 31.99,27.24 V 28.53 C 32.05,28.55 32.17,28.59 32.36,28.59 C 32.6,28.59 32.83,28.33 32.83,27.85 C 32.83,27.36 32.57,27.25 31.99,27.25 Z M 36,30 A 1.5,1.5 0 1,0 36,27 A 1.5,1.5 0 0,0 36,30 Z M 36.17,29.76 C 36.72,29.68 37.08,29.06 36.98,28.37 C 36.88,27.67 36.37,27.17 35.83,27.24 C 35.28,27.32 34.92,27.94 35.02,28.63 C 35.12,29.33 35.63,29.83 36.17,29.76 Z M 39.18,27 L 39,27.2 V 29.64 C 39.08,29.69 39.26,29.78 39.47,29.78 H 39.82 L 40.06,29.38 H 40.16 L 40,30 H 38.1 L 38.4,29.7 V 27.2 L 38.2,27 H 39.2 Z M 44.45,27.36 L 44.07,27 H 45.38 L 45,27.36 V 28.96 C 45,29.38 45.37,29.73 45.82,29.73 C 46.27,29.73 46.64,29.38 46.64,28.96 V 27.36 L 46.26,27 H 47.36 L 47,27.36 V 28.81 C 47,29.47 46.42,30 45.72,30 C 45.02,30 44.45,29.47 44.45,28.8 V 27.36 Z M 47.71,30 H 48.74 L 48.4,29.7 L 48.66,28.11 L 49.7,30 L 50.77,28.11 L 51,30 H 52 L 51.46,29.65 L 51,27 L 49.8,29.24 L 48.54,27 L 48.06,29.7 L 47.7,30 Z" fill="rgb(2, 51, 108)" fill-rule="evenodd"/>
</svg>
