<?xml version="1.0" encoding="UTF-8"?>
<!-- generated by Finnhub -->
<svg viewBox="0 0 55.5 55.5" xmlns="http://www.w3.org/2000/svg">
<path d="M 0,0 H 55.5 V 55.5 H 0 Z" fill="rgb(254, 58, 2)"/>
<path d="M 15.06,14.985 H 15.92 C 16.12,15 16.32,15.06 16.49,15.17 C 16.66,15.29 16.79,15.45 16.87,15.64 L 21.91,27.51 A 1.09,1.09 0 0,1 21.83,28.51 A 1.04,1.04 0 0,1 20.97,29 H 20.72 A 1.03,1.03 0 0,1 19.77,28.35 L 18.93,26.6 A 1,1 0 0,0 17.98,26 H 12.96 A 1,1 0 0,0 12.01,26.6 L 11.15,28.35 C 11.07,28.55 10.95,28.71 10.77,28.82 A 0.97,0.97 0 0,1 10.2,29 H 10.03 A 1.01,1.01 0 0,1 9.17,28.52 A 1.08,1.08 0 0,1 9.09,27.52 L 14.13,15.64 A 1.01,1.01 0 0,1 15.08,15 Z M 17.83,23.23 L 15.95,19.08 A 0.54,0.54 0 0,0 15.75,18.84 A 0.52,0.52 0 0,0 14.98,19.08 L 13.28,23.23 A 0.56,0.56 0 0,0 13.32,23.75 A 0.54,0.54 0 0,0 13.76,23.99 H 17.34 A 0.52,0.52 0 0,0 17.78,23.75 A 0.56,0.56 0 0,0 17.83,23.23 Z M 41.93,21 H 42.79 A 1.05,1.05 0 0,1 43.76,21.64 L 48.91,33.51 A 1.07,1.07 0 0,1 47.95,35 H 47.69 A 1.05,1.05 0 0,1 46.72,34.35 L 45.87,32.66 A 1.08,1.08 0 0,0 44.89,32 H 39.76 C 39.36,32 38.96,32.27 38.79,32.65 L 37.92,34.35 A 1.06,1.06 0 0,1 36.95,35 H 36.78 A 1.05,1.05 0 0,1 35.72,34.02 C 35.71,33.85 35.74,33.67 35.81,33.51 L 40.96,21.63 A 1.06,1.06 0 0,1 41.93,21 Z M 44.55,29.18 L 42.82,25.08 A 0.54,0.54 0 0,0 42.32,24.75 A 0.54,0.54 0 0,0 41.82,25.08 L 39.98,29.18 C 39.83,29.54 40.09,30 40.48,30 H 44.05 C 44.43,30 44.7,29.54 44.55,29.18 Z" fill="rgb(254, 254, 253)"/>
<path d="M 15.99,34.025 V 34 A 6.74,6.74 0 0,1 18.07,29.03 A 7.1,7.1 0 0,1 23.17,27.01 A 7.75,7.75 0 0,1 27.54,28.14 A 1.05,1.05 0 0,1 28.02,28.86 A 1,1 0 0,1 27.78,29.68 L 27.61,29.88 A 1.09,1.09 0 0,1 26.21,30.07 A 5.54,5.54 0 0,0 23.06,29 C 20.5,29 18,31.38 18,33.97 V 34 C 18,36.79 20.45,39 23.29,39 C 24.27,39 25.63,38.6 26.49,38.15 A 1,1 0 0,0 27,37.25 V 35.8 C 27,35.5 26.79,34.99 26.5,34.99 H 24.15 C 23.58,34.99 23,34.56 23,33.99 C 23,33.42 23.58,32.99 24.15,32.99 H 27.94 C 28.5,32.99 29,33.46 29,34.03 V 38.39 A 1.02,1.02 0 0,1 28.58,39.21 A 8.97,8.97 0 0,1 23.2,41 C 18.85,41 16,37.98 16,34.04 Z" fill="rgb(254, 254, 253)"/>
<path d="M 26.99,20.055 C 27,19.79 27.1,19.51 27.3,19.31 C 27.48,19.11 27.74,19 28,19 H 32.92 C 34.43,19 35.62,19.44 36.37,20.24 A 3.15,3.15 0 0,1 37.27,22.56 V 22.6 A 3.34,3.34 0 0,1 36.14,25.2 A 0.55,0.55 0 0,0 35.99,25.4 A 0.58,0.58 0 0,0 36.04,25.93 C 36.09,26 36.16,26.06 36.24,26.1 C 36.78,26.36 37.24,26.78 37.55,27.32 C 37.87,27.86 38.02,28.49 38,29.12 V 29.16 C 38,31.66 36.05,33 33.11,33 H 28.01 A 0.96,0.96 0 0,1 27.29,32.69 A 1.08,1.08 0 0,1 27,31.93 V 20.07 Z M 34.94,22.96 C 34.94,21.86 34.11,21 32.62,21 H 29.8 C 29.16,21 29.01,21.43 29.01,21.72 V 24.36 C 29.01,24.64 29.19,25 29.81,25 H 32.46 C 33.96,25 34.96,24.28 34.96,23 V 22.96 Z M 32.96,26.98 H 29.8 C 29.2,26.98 29.01,27.24 29.01,27.52 V 30.28 C 29.01,30.56 29.11,31 29.81,31 H 33.14 C 34.73,31 35.69,30.16 35.69,28.9 V 28.86 C 35.69,27.68 34.8,26.98 32.97,26.98 Z" fill="rgb(254, 254, 253)"/>
</svg>
