<?xml version="1.0" encoding="UTF-8"?>
<!-- generated by Finnhub -->
<svg viewBox="0 0 55.5 55.5" xmlns="http://www.w3.org/2000/svg">
<path d="M0 0h55.5v55.5H0z" fill="rgb(239, 242, 248)"/>
<path d="M31 25h6.58A6.42 6.42 0 0 1 44 31.42V38h-6.58A6.42 6.42 0 0 1 31 31.58V25Z" fill="rgb(100, 157, 233)"/>
<path d="M25 24.42v-6A6.42 6.42 0 0 1 31.42 12H38v6.58A6.42 6.42 0 0 1 31.58 25H25v6h6v6.58A6.42 6.42 0 0 1 24.58 44H18v-6.58A6.42 6.42 0 0 1 24.42 31h-6A6.42 6.42 0 0 1 12 24.58V18h6.58A6.42 6.42 0 0 1 25 24.42Z" fill="rgb(33, 33, 32)"/>
<path d="m25 31v7h6v-7h7v-6h-7v-7h-6v7h-6v6h6z" fill="rgb(239, 242, 248)"/>
</svg>
