<?xml version="1.0" encoding="UTF-8"?>
<!-- generated by Finnhub -->
<svg viewBox="0 0 55.5 55.5" xmlns="http://www.w3.org/2000/svg">
<path d="M 0,0 H 55.5 V 55.5 H 0 Z" fill="url(#a)"/>
<path d="M 6.99,21.985 V 31.19 A 2.85,2.85 0 0,0 9.88,34 H 11 V 24.81 A 2.85,2.85 0 0,0 8.12,22 H 7 Z M 48.44,22 C 47.24,22 46.21,22.83 45.87,23.98 V 24 H 45.86 L 45.67,24.55 C 44.81,27.11 43.81,30.1 41,30.1 V 24.8 C 41,23.25 39.54,21.99 38.05,21.99 H 37 V 33.99 H 40.74 C 47.12,34 50,26.11 50,22 H 48.44 Z M 18.91,22 C 20.92,22 22.74,22.9 24,24.32 A 6.8,6.8 0 0,1 29.09,22 C 32.9,22 36,25.2 36,29.14 V 34 H 34.98 C 33.53,34 32,32.75 32,31.21 V 28.55 C 32,26.43 30.8,25 29,25 S 26,26.39 26,28.55 V 34 H 24.8 A 2.86,2.86 0 0,1 22,31.21 V 28.55 C 22,26.75 21.16,25 19,25 C 17.2,25 16,26.74 16,28.55 V 31.21 C 16,32.75 14.47,34 13.02,34 H 12 V 29.14 C 12,25.2 15.1,22 18.91,22 Z" fill="rgb(254, 254, 253)"/>
<defs>
<linearGradient id="a" x1="10.56" x2="35.91" y1="4.87" y2="53.45" gradientUnits="userSpaceOnUse">
<stop stop-color="rgb(160, 60, 143)" offset="0"/>
<stop stop-color="rgb(150, 47, 133)" offset="1"/>
</linearGradient>
</defs>
</svg>
