<?xml version="1.0" encoding="UTF-8"?>
<!-- generated by Finnhub -->
<svg viewBox="0 0 55.5 55.5" xmlns="http://www.w3.org/2000/svg">
<path d="M 0,0 H 55.5 V 55.5 H 0 Z" fill="url(#a)"/>
<path d="M 40.99,17.995 A 15.6,15.6 0 0,0 28.72,12 C 20.04,12 13,19.16 13,28 C 13,36.84 20.04,44 28.72,44 C 33.69,44 38.12,41.65 41,37.99 L 40.42,34.25 L 33.75,42.67 L 37.58,32.57 L 27.66,36.47 L 35.93,29.67 L 13.76,28 L 35.93,26.33 L 27.66,19.53 L 37.58,23.43 L 33.75,13.33 L 40.42,21.75 L 41,18.01 Z" fill="rgb(254, 254, 253)"/>
<defs>
<linearGradient id="a" x1="10.42" x2="68.15" y1="9.71" y2="76.02" gradientUnits="userSpaceOnUse">
<stop stop-color="rgb(25, 29, 31)" offset="0"/>
<stop stop-color="rgb(5, 5, 8)" offset="1"/>
</linearGradient>
</defs>
</svg>
