<?xml version="1.0" encoding="UTF-8"?>
<!-- generated by Finnhub -->
<svg viewBox="0 0 55.5 55.5" xmlns="http://www.w3.org/2000/svg">
<path d="M 0,0 H 55.5 V 55.5 H 0 Z" fill="rgb(239, 242, 248)"/>
<path d="M 6.49,32.175 V 23.99 C 6.5,23.13 6.1,22.66 5.12,22.57 L 5.1,22.56 C 4.97,22.38 5.02,22.22 5.22,22.08 A 0.39,0.39 0 0,1 5.42,22.01 C 6.08,21.98 6.72,22.01 7.36,22.13 C 7.39,22.13 7.43,22.16 7.46,22.19 C 7.47,22.21 7.49,22.25 7.49,22.29 V 33.76 C 7.49,33.85 7.44,33.99 7.34,34 H 5.64 C 5.37,34.01 5.17,33.92 5.04,33.73 C 4.97,33.63 4.99,33.56 5.11,33.52 C 5.91,33.24 6.5,33.1 6.5,32.19 Z M 9.99,22.6 C 9.23,22.74 8.99,23.19 9,24.02 V 32.29 C 9,33.45 9.87,33.1 10.24,33.65 C 10.26,33.69 10.28,33.74 10.28,33.78 A 0.19,0.19 0 0,1 10.25,33.91 A 0.16,0.16 0 0,1 10.2,33.96 A 12.44,12.44 0 0,1 8.14,33.94 C 8.04,33.93 8,33.88 8,33.78 V 22.28 C 8,22.18 8.05,22.11 8.16,22.11 L 10.08,22.01 C 10.21,21.99 10.28,22.06 10.28,22.19 C 10.29,22.39 10.15,22.56 9.98,22.59 Z" fill="rgb(2, 164, 67)"/>
<path d="M 14.02,25.215 C 13.88,25.19 13.81,25.26 13.81,25.43 C 13.86,27.44 13.89,30 13.91,32.31 C 13.92,33.09 14.88,33.49 15.5,33.63 C 15.59,33.65 15.65,33.7 15.68,33.79 A 0.12,0.12 0 0,1 15.68,33.89 A 0.1,0.1 0 0,1 15.64,33.93 L 15.6,34 H 11.94 C 11.56,33.97 11.54,33.85 11.88,33.67 C 12.43,33.37 12.74,32.87 12.81,32.17 C 12.98,30.54 13.11,27.87 13.19,24.95 C 13.2,24.41 13.12,23.96 12.93,23.6 A 2.32,2.32 0 0,0 11.65,22.54 C 11.16,22.34 11.17,22.17 11.67,22.02 C 12.32,21.82 13.17,22.92 13.57,23.37 C 16.64,26.88 19.69,30.35 22.72,33.77 C 22.89,33.95 22.85,34.03 22.62,33.99 C 21.69,33.84 21.21,33.19 20.48,32.37 L 14.33,25.47 C 14.21,25.32 14.11,25.25 14.03,25.23 Z" fill="rgb(48, 49, 45)"/>
<path d="M 21.79,29.705 A 0.17,0.17 0 0,0 21.97,29.74 A 0.18,0.18 0 0,0 22.04,29.67 A 0.2,0.2 0 0,0 22.07,29.57 C 22.11,27.79 22.1,26.01 22.04,24.25 A 2.49,2.49 0 0,0 21.86,23.33 C 21.6,22.75 21.13,22.78 20.65,22.57 C 20.26,22.41 20.28,22.29 20.68,22.21 C 21.85,21.99 23.09,21.96 24.4,22.13 C 24.43,22.13 24.46,22.14 24.48,22.16 L 24.52,22.24 V 22.33 A 0.14,0.14 0 0,1 24.46,22.39 C 23.83,22.81 23.06,22.58 23.03,23.69 C 22.97,25.74 22.9,27.75 22.81,29.74 C 22.77,30.54 22.84,31.37 22.93,32.17 C 22.95,32.4 22.89,32.43 22.74,32.26 L 13.9,22.2 A 0.1,0.1 0 0,1 13.88,22.1 A 0.1,0.1 0 0,1 13.9,22.05 A 0.09,0.09 0 0,1 13.95,22.03 C 15.03,21.85 15.65,22.54 16.29,23.32 C 17.87,25.24 19.61,27.28 21.49,29.43 L 21.79,29.72 Z" fill="rgb(2, 164, 67)"/>
<path d="M 27.939999999999998,25.215 C 27.79,25.19 27.72,25.26 27.72,25.43 C 27.77,27.44 27.8,30 27.82,32.31 C 27.83,33.09 28.79,33.49 29.41,33.63 C 29.5,33.65 29.56,33.7 29.59,33.79 A 0.12,0.12 0 0,1 29.59,33.89 A 0.1,0.1 0 0,1 29.55,33.93 L 29.51,34 H 25.85 C 25.47,33.97 25.45,33.85 25.79,33.67 C 26.34,33.37 26.65,32.87 26.73,32.17 C 26.89,30.54 27.02,27.87 27.1,24.95 C 27.12,24.41 27.03,23.96 26.84,23.6 A 2.32,2.32 0 0,0 25.57,22.54 C 25.07,22.34 25.08,22.17 25.59,22.02 C 26.24,21.82 27.08,22.92 27.48,23.37 C 30.55,26.88 33.6,30.35 36.63,33.77 C 36.8,33.95 36.77,34.03 36.53,33.99 C 35.6,33.84 35.13,33.19 34.39,32.37 L 28.24,25.47 C 28.12,25.32 28.02,25.25 27.94,25.23 Z" fill="rgb(48, 49, 45)"/>
<path d="M 35.690000000000005,29.705 A 0.17,0.17 0 0,0 35.88,29.74 A 0.18,0.18 0 0,0 35.95,29.67 A 0.2,0.2 0 0,0 35.98,29.57 C 36.02,27.79 36.01,26.01 35.95,24.25 A 2.49,2.49 0 0,0 35.77,23.33 C 35.52,22.75 35.05,22.78 34.56,22.57 C 34.18,22.41 34.19,22.29 34.6,22.21 C 35.76,21.99 37,21.96 38.32,22.13 C 38.34,22.13 38.37,22.14 38.39,22.16 C 38.41,22.18 38.43,22.21 38.43,22.24 V 22.33 A 0.14,0.14 0 0,1 38.37,22.39 C 37.75,22.81 36.97,22.58 36.94,23.69 C 36.89,25.74 36.81,27.75 36.72,29.74 C 36.68,30.54 36.75,31.37 36.84,32.17 C 36.87,32.4 36.8,32.43 36.65,32.26 L 27.81,22.2 A 0.1,0.1 0 0,1 27.78,22.15 A 0.1,0.1 0 0,1 27.78,22.09 A 0.1,0.1 0 0,1 27.82,22.05 A 0.09,0.09 0 0,1 27.86,22.03 C 28.94,21.85 29.56,22.54 30.2,23.32 C 31.79,25.24 33.52,27.28 35.4,29.43 L 35.7,29.72 Z M 41.9,28 C 41.9,31.31 43.3,34 45.01,34 C 46.74,34 48.13,31.31 48.13,28 S 46.73,22 45.01,22 C 43.29,22 41.9,24.69 41.9,28 Z M 50.88,29.16 A 5.84,5.84 0 0,1 47.97,33.26 C 47.87,33.32 47.84,33.3 47.89,33.19 C 49.56,29.71 49.59,26.29 47.95,22.93 C 47.82,22.67 47.88,22.62 48.12,22.77 C 50.43,24.2 51.36,26.33 50.88,29.17 Z M 42.14,22.89 C 42.26,22.69 42.22,22.65 42.02,22.75 C 39.85,23.9 38.68,26.55 39.08,29.08 A 5.56,5.56 0 0,0 42.09,33.26 C 42.22,33.34 42.25,33.3 42.17,33.17 C 40.46,30.23 40.41,25.82 42.14,22.89 Z" fill="rgb(2, 164, 67)"/>
</svg>
