<!-- by Finnhub --><svg width="56" height="56" viewBox="0 0 56 56" xmlns="http://www.w3.org/2000/svg"><path fill="#F0F3FA" d="M0 0h56v56H0z"/><path d="M13 13h30v11h-1V14H14v10h-1V13Zm0 18v12h30V31h-1v11H14V31h-1Z" fill="#558EAC"/><path d="M17 24v-4h1v4h-1ZM28 24v-4h1.7l.8 2.55.8-2.55H33v4h-1v-2.83L31.11 24h-1.22L29 21.17V24h-1ZM21 24v-3h-1v-1h3v1h-1v3h-1ZM25 23h2v1h-3v-4h3v1h-2v.5h1.5v1H25v.5ZM36.25 22.9c.3.17.6.26.93.26.54 0 .82-.28.82-.86v-.02h-.02c-.19.2-.47.31-.8.31-.73 0-1.18-.49-1.18-1.24 0-.83.55-1.35 1.44-1.35 1.02 0 1.56.69 1.56 1.98 0 1.33-.57 2.02-1.69 2.02-.32 0-.63-.06-.95-.18l-.11-.93Zm1.66-1.55c0-.31-.18-.5-.47-.5-.3 0-.44.19-.44.5s.14.5.44.5.47-.19.47-.5ZM21 29h2v1h-3v-4h1v3ZM26.93 30l-.29-1H25.4l-.32 1H24l1.31-4h1.39l1.3 4h-1.07Zm-1.33-1.7h.83L26 26.92c-.22.83-.34 1.2-.4 1.38ZM31.27 27.97c.46.1.73.44.73.94 0 .7-.5 1.09-1.39 1.09H29v-4h1.58c.84 0 1.32.38 1.32 1.05 0 .45-.23.78-.63.9v.02Zm-.83-1.2H30v.85h.44c.33 0 .5-.14.5-.43 0-.28-.17-.42-.5-.42Zm.02 2.46c.35 0 .54-.14.54-.44 0-.29-.19-.43-.54-.43H30v.87h.46ZM34.37 30c-.48 0-.92-.06-1.33-.18l.17-.78c.34.1.7.16 1.08.16.52 0 .71-.1.71-.43 0-.23-.1-.33-.34-.36l-.6-.1c-.72-.1-1.06-.46-1.06-1.13 0-.8.5-1.18 1.57-1.18.4 0 .8.05 1.22.15v.8c-.47-.11-.83-.15-1.14-.15-.45 0-.65.1-.65.37 0 .19.1.29.35.33l.52.08c.81.13 1.13.45 1.13 1.16 0 .89-.5 1.26-1.63 1.26ZM16 35c0-.59.44-1 1.06-1 .24 0 .41.06.51.11v.36a.96.96 0 0 0-.47-.12c-.42 0-.7.27-.7.65s.29.65.7.65c.19 0 .37-.05.47-.11v.35c-.07.05-.27.11-.5.11-.62 0-1.07-.4-1.07-1ZM19 36c-.55 0-1-.41-1-1 0-.59.45-1 1-1s1 .41 1 1c0 .59-.45 1-1 1Zm0-.35c.33 0 .6-.23.6-.65 0-.42-.27-.65-.6-.65-.33 0-.61.23-.61.65 0 .42.28.65.6.65ZM22.06 35.18l.5.82h-.42l-.46-.77h-.28V36H21v-2h.6c.38 0 .9.05.9.6 0 .34-.19.5-.44.58Zm-.45-.86h-.21v.62h.23c.24 0 .45-.04.45-.32 0-.27-.2-.3-.47-.3ZM23.6 34c.44 0 .96.04.96.62 0 .53-.44.65-.95.65h-.19V36H23v-2h.6Zm-.01.94c.3 0 .54-.04.54-.32s-.21-.3-.54-.3h-.17v.62h.17ZM26 36c-.55 0-1-.41-1-1 0-.59.45-1 1-1s1 .41 1 1c0 .59-.45 1-1 1Zm0-.35c.33 0 .6-.23.6-.65 0-.42-.27-.65-.6-.65-.33 0-.61.23-.61.65 0 .42.28.65.6.65ZM29.1 35.2l.5.83h-.43l-.47-.78H28.4v.78H28V34h.62c.39 0 .92.05.92.62 0 .34-.19.5-.45.58Zm-.47-.87h-.22v.62h.24c.25 0 .46-.04.46-.32 0-.27-.2-.3-.48-.3ZM32 36h-.45l-.14-.38h-.82l-.14.38H30l.8-2h.41l.79 2Zm-1-1.5-.3.8h.6l-.3-.8ZM34.2 34v.34h-.75V36H33v-1.66h-.75V34h1.94ZM35 36v-2h.46v2H35ZM37 36c-.55 0-1-.41-1-1 0-.59.45-1 1-1s1 .41 1 1c0 .59-.45 1-1 1Zm0-.35c.33 0 .6-.23.6-.65 0-.42-.27-.65-.6-.65-.33 0-.61.23-.61.65 0 .42.28.65.6.65ZM40.62 35.5V34H41v2h-.45l-1.13-1.44V36H39v-2h.45l1.17 1.5Z" fill="#285167"/></svg>