<!-- by Finnhub --><svg xmlns="http://www.w3.org/2000/svg" width="56" height="56"><path fill="#F0F3FA" d="M0 0h56v56H0z"/><path d="M4 24.5c0-3.63 2.97-6.5 6.75-6.5a6.5 6.5 0 016.2 4.16c.04.1.05.21.05.3 0 .27-.13.54-.47.54-.24 0-.45-.19-.53-.42A5.78 5.78 0 0010.75 19C7.72 19 5 21.52 5 24.5c0 1.45.5 2.75 1.28 3.77.79 1.01 1.96 1.95 2.64 3.86.52 1.46 1.68 2.87 3.11 2.87 1.09 0 1.53-.36 2-.77.14-.12.29-.23.51-.23.23 0 .46.15.46.45 0 .16-.07.3-.17.42a3.76 3.76 0 01-2.8 1.13c-1.99 0-3.36-1.69-4.03-3.58-.6-1.69-1.34-1.95-2.5-3.4A6.42 6.42 0 014 24.5z" fill="#A6A8AB"/><path d="M10.68 20.6c-2.52 0-4.5 2.2-4.06 5.06a.3.3 0 01-.22.34.27.27 0 01-.33-.22c-.04-.25-.07-.85-.07-1.1A4.7 4.7 0 0110.68 20 4.53 4.53 0 0115 23.17c0 .12-.06.23-.18.26a.3.3 0 01-.35-.2 4.06 4.06 0 00-3.8-2.64z" fill="#3470B3"/><path d="M10.64 21.44a3.13 3.13 0 00-3.05 3.57.23.23 0 01-.17.26.2.2 0 01-.24-.17 3.56 3.56 0 013.46-4.1 3.36 3.36 0 013.23 2.37c0 .09-.02.17-.11.2h-.06a.23.23 0 01-.21-.15 3.05 3.05 0 00-2.85-1.98z" fill="#3470B3"/><path d="M27.08 31.01a.39.39 0 01-.08-.22c0-.08.02-.15.08-.2.12-.1.32-.08.43.05.3.37.93.8 1.67.8 1.2 0 1.6-.82 1.6-1.43 0-1.02-.7-1.27-1.51-1.56a8.5 8.5 0 01-.75-.3c-.62-.29-1.24-.66-1.24-1.55 0-.9.78-1.6 1.9-1.6.6 0 1.38.2 1.75.61.1.12.1.29-.04.36a.24.24 0 01-.1.03.4.4 0 01-.27-.11 3.7 3.7 0 00-1.34-.36c-.69 0-1.35.36-1.35 1.07 0 .71.77.97 1.5 1.21.25.08.48.16.68.25a2.1 2.1 0 011.33 1.95A2 2 0 0129.18 32a2.5 2.5 0 01-2.1-.99zm7.06-3.44c-.53 0-.98.19-1.35.56-.37.37-.55.82-.55 1.36a1.9 1.9 0 003.4 1.2c.08-.12.23-.18.37-.12.15.06.21.24.13.37a2.38 2.38 0 01-2 1.06c-.68 0-1.26-.24-1.74-.73a2.45 2.45 0 01-.72-1.78c0-.69.24-1.28.72-1.76a2.36 2.36 0 011.74-.73c.42 0 .8.1 1.15.31.28.17.53.37.73.63.1.1.06.27-.05.36-.13.09-.3.05-.41-.07a1.8 1.8 0 00-1.42-.66zm3.23.16a2.39 2.39 0 00-.73 1.76c0 .7.25 1.3.73 1.78.5.49 1.08.73 1.78.73.69 0 1.28-.24 1.76-.73.49-.49.73-1.08.73-1.78 0-.69-.25-1.28-.73-1.76a2.4 2.4 0 00-1.76-.73c-.7 0-1.29.25-1.78.73zm.4 3.14a1.87 1.87 0 01-.56-1.38c0-.53.2-.99.56-1.36.38-.37.84-.55 1.38-.55.53 0 .98.18 1.35.55.38.37.57.83.57 1.36 0 .55-.19 1-.56 1.38-.37.37-.82.56-1.36.56-.54 0-1-.19-1.37-.56zM42.3 34a.29.29 0 01-.29-.29V27.3a.29.29 0 01.57 0v.68A2.37 2.37 0 0144.5 27c.7 0 1.29.25 1.78.74.49.5.73 1.1.73 1.8s-.24 1.3-.73 1.79-1.08.67-1.78.67c-.8 0-1.45-.41-1.92-.92v2.63c0 .16-.13.29-.28.29zm4.14-4.46c0-.55-.19-1.01-.56-1.4a1.86 1.86 0 00-1.38-.56c-.54 0-.99.19-1.36.57-.37.38-.56.84-.56 1.4 0 .54.19 1 .57 1.37.37.38.82.49 1.35.49.54 0 1-.11 1.38-.49.37-.37.56-.83.56-1.38zm4.78 1.51a2.4 2.4 0 01-1.32.37c-.5 0-.91-.16-1.27-.47a1.84 1.84 0 01-.62-1.2h4c0-.74-.1-1.47-.6-2.05a2 2 0 00-1.6-.7c-.67 0-1.23.24-1.69.73a2.47 2.47 0 00-.68 1.76c0 .7.24 1.29.72 1.77.47.5 1.05.74 1.74.74.63 0 1.18-.19 1.66-.55.1-.07.12-.2.07-.3a.286.286 0 00-.41-.1zm-3.2-1.81c.1-.9.72-1.74 1.8-1.74 1.07 0 1.58.89 1.62 1.74h-3.42z" fill="#A6A8AB"/><path d="M10.75 24.5a.75.75 0 100-1.5.75.75 0 000 1.5zm0 7.5c.14 0 .25-.12.25-.25v-6.5a.25.25 0 10-.5 0v6.5c0 .13.11.25.25.25zm.75-.25a.25.25 0 10.5 0v-2.67c0-.45.14-.96.39-1.21s.56-.37.93-.37c.34 0 .65.14.9.42.26.29.28.8.28 1.19v2.64a.25.25 0 10.5 0v-2.76c0-.55-.06-1.05-.41-1.44A1.66 1.66 0 0013.3 27c-.52 0-.97.23-1.31.66v-.41a.25.25 0 10-.5 0v4.5zm4.25.25a.25.25 0 01-.25-.25v-4.5a.25.25 0 11.5 0v.41c.34-.43.8-.66 1.3-.66s.93.17 1.29.55c.35.39.41.9.41 1.44v2.76a.25.25 0 11-.5 0V29.1c0-.4-.02-.9-.28-1.19a1.18 1.18 0 00-.9-.42c-.37 0-.68.12-.93.37s-.39.76-.39 1.2v2.68c0 .13-.11.25-.25.25zm7.46-.95a2.4 2.4 0 01-1.32.37c-.5 0-.91-.16-1.27-.47a1.84 1.84 0 01-.62-1.2h3.8a.2.2 0 00.2-.2 2.78 2.78 0 00-.6-1.85 2 2 0 00-1.6-.7c-.67 0-1.23.24-1.69.73a2.47 2.47 0 00-.68 1.76c0 .7.24 1.29.72 1.77.47.5 1.05.74 1.74.74.63 0 1.18-.19 1.66-.55.1-.07.12-.2.07-.3a.286.286 0 00-.41-.1zm-3.2-1.81c.1-.9.72-1.74 1.8-1.74 1.07 0 1.58.89 1.62 1.74h-3.42zM24.75 32a.25.25 0 01-.25-.25v-4.5c0-.14.12-.25.25-.25.14 0 .25.11.25.25v.76c.3-.36.88-.9 1.75-1 .14-.01.25.12.25.25 0 .14-.11.24-.25.26-.82.15-1.75 1-1.75 1.97v2.26c0 .14-.11.25-.25.25z" fill="#3470B3"/></svg>