<?xml version="1.0" encoding="UTF-8"?>
<!-- generated by Finnhub -->
<svg viewBox="0 0 55.5 55.5" xmlns="http://www.w3.org/2000/svg">
<path d="M0 0h55.5v55.5H0z" fill="rgb(239, 242, 248)"/>
<path d="M29.1 20.65 21.88 9 19.7 20.3l9.4.35Z" fill="rgb(195, 87, 110)"/>
<path d="m29.1 20.65-9.4-.36-1.44 7.06 3.61 4.94 7.24-11.64Z" fill="rgb(130, 172, 196)"/>
<path d="m21.87 32.3-3.62-4.95-1.08 6 4.7-1.06z" fill="rgb(20, 129, 162)"/>
<path d="m21.87 32.3-4.7 1.05L15 45l6.87-12.7Z" fill="rgb(72, 99, 43)"/>
<path d="M29.1 20.65 21.88 9l9.63 8.5-2.4 3.15Z" fill="rgb(134, 48, 84)"/>
<path d="m31.5 17.5-2.4 3.15h5.8l-3.4-3.15z" fill="rgb(70, 62, 58)"/>
<path d="m34.9 20.65h-5.8l7.24 12 3.98-7.06-5.43-4.94z" fill="rgb(166, 160, 145)"/>
<path d="m40.32 25.59-3.98 7.06L49 33l-8.68-7.41Z" fill="rgb(78, 178, 165)"/>
<path d="m36.34 32.65-7.23-12-7.24 11.64 14.47.36Z" fill="rgb(252, 185, 15)"/>
<path d="m26 41-4.13-8.7L15 45l11-4Z" fill="rgb(177, 182, 51)"/>
<path d="m36.34 32.65-14.47-.36L26 41l7-2.5 3.34-5.85Z" fill="rgb(250, 127, 33)"/>
<path d="M36.34 32.65 33 38.5l5.51-1.97-2.17-3.88Z" fill="rgb(238, 66, 29)"/>
<path d="m36.34 32.65 2.17 3.88L49 33l-12.66-.35Z" fill="rgb(23, 123, 112)"/>
</svg>
