<?xml version="1.0" encoding="UTF-8"?>
<!-- generated by Finnhub -->
<svg viewBox="0 0 55.5 55.5" xmlns="http://www.w3.org/2000/svg">
<path d="M 0,0 H 55.5 V 55.5 H 0 Z" fill="rgb(239, 242, 248)"/>
<path d="M 7.99,22.485 C 8,22.22 8.22,22 8.5,22 H 10 C 10.28,22 10.5,22.22 10.5,22.5 V 33.5 A 0.5,0.5 0 0,1 10,34 H 8.5 A 0.5,0.5 0 0,1 8,33.5 V 22.5 Z M 12.5,33.5 V 22.5 C 12.5,22.22 12.72,22 13,22 H 15.7 C 15.89,22 16.05,22.1 16.14,22.26 L 21,31 V 22.5 C 21,22.22 21.22,22 21.5,22 H 23 C 23.28,22 23.5,22.22 23.5,22.5 V 33.5 A 0.5,0.5 0 0,1 23,34 H 20.3 A 0.5,0.5 0 0,1 19.86,33.74 L 15,25 V 33.5 A 0.5,0.5 0 0,1 14.5,34 H 13 A 0.5,0.5 0 0,1 12.5,33.5 Z M 36,28 C 36,31.25 33.91,34 30.5,34 S 25,31.26 25,28 S 27.08,22 30.5,22 C 33.91,22 36,24.75 36,28 Z M 33.5,27.82 C 33.5,25.95 32.62,24.18 30.5,24.18 S 27.5,25.95 27.5,27.82 C 27.5,29.68 28.38,31.82 30.5,31.82 C 32.62,31.82 33.5,29.68 33.5,27.82 Z M 38,22.5 C 38,22.22 38.22,22 38.5,22 H 40 C 40.28,22 40.5,22.22 40.5,22.5 V 27 H 45.5 V 22.5 C 45.5,22.22 45.72,22 46,22 H 47.5 C 47.78,22 48,22.22 48,22.5 V 33.5 A 0.5,0.5 0 0,1 47.5,34 H 46 A 0.5,0.5 0 0,1 45.5,33.5 V 29 H 40.5 V 33.5 A 0.5,0.5 0 0,1 40,34 H 38.5 A 0.5,0.5 0 0,1 38,33.5 V 22.5 Z" fill="rgb(29, 120, 172)"/>
</svg>
