<?xml version="1.0" encoding="UTF-8"?>
<!-- generated by Finnhub -->
<svg viewBox="0 0 55.5 55.5" xmlns="http://www.w3.org/2000/svg">
<path d="M 0,0 H 55.5 V 55.5 H 0 Z" fill="rgb(239, 242, 248)"/>
<path d="M 3.99,31.985 V 24 H 5.5 V 31 H 9 V 32 H 4 Z M 10.35,29 H 13.97 C 14.11,27.96 13.85,26 11.66,26 C 8.97,26 9,28.8 9,29.11 V 29.13 C 9,29.32 9.09,32 11.66,32 C 13.07,32 13.79,31.33 13.96,31 L 13.29,30.28 C 13.04,30.48 12.35,31 11.66,31 C 10.79,31 10.36,29.86 10.36,29 Z M 10.35,28 H 12.81 C 12.78,27.67 12.49,27 11.64,27 A 1.3,1.3 0 0,0 10.35,28 Z M 15.59,27.42 L 15.25,26.95 A 4.16,4.16 0 0,1 17.69,26 C 19.37,26 19.93,27.2 20,27.8 V 32 H 19.03 A 0.33,0.33 0 0,1 18.7,31.67 V 31.17 C 18.45,31.45 17.72,32 16.82,32 A 1.7,1.7 0 0,1 15,30.46 C 15,28.81 17.4,28.47 18.6,28.52 C 18.6,27.86 18.42,27.13 17.58,27.13 C 17.03,27.13 16.63,27.36 16.35,27.53 C 16.2,27.61 16.09,27.67 16.01,27.67 C 15.81,27.67 15.65,27.5 15.59,27.42 Z M 18.59,30.39 V 29.36 C 15.63,29.36 16.24,30.97 17.26,30.97 C 17.83,30.97 18.38,30.59 18.59,30.39 Z M 21,26 H 21.97 C 22.27,26 22.5,26.24 22.5,26.55 V 27.03 C 22.79,26.59 23.38,26 24.18,26 C 24.59,26 24.9,26.14 25,26.21 L 24.58,27.64 A 1.34,1.34 0 0,0 23.81,27.44 C 23.37,27.44 23.06,27.61 22.5,28.48 V 32 H 21 V 26 Z M 29.1,26 C 28.4,26 27.85,26.35 27.5,26.68 C 27.5,26.3 27.2,26 26.85,26 H 26 V 32 H 27.5 V 27.9 C 27.75,27.55 28.15,27.16 28.68,27.16 C 29.44,27.16 29.51,27.83 29.5,28.16 V 32 H 31 V 28.08 C 31,26.79 30.3,26 29.1,26 Z M 40.07,29.95 L 41,30.78 A 4.17,4.17 0 0,1 38,32 C 36.84,32 34,31.27 34,28.1 C 34,24.94 36.46,24 38.26,24 A 3.8,3.8 0 0,1 41,25.1 L 40.17,25.98 C 39.87,25.73 39.07,25.24 38.26,25.24 C 37.26,25.24 35.62,25.9 35.62,27.76 C 35.62,29.63 36.64,30.78 38,30.78 C 39.1,30.78 39.84,30.22 40.07,29.95 Z M 41,24 L 43.33,32 H 44.7 L 46.52,26.25 L 48.28,32 H 49.67 L 52,24 H 50.67 A 0.37,0.37 0 0,0 50.31,24.29 L 48.9,29.8 L 47.28,24.26 A 0.37,0.37 0 0,0 46.92,23.99 H 46.14 C 45.97,23.99 45.83,24.1 45.78,24.26 L 44.16,29.8 L 42.76,24.28 A 0.37,0.37 0 0,0 42.41,23.99 H 41 Z" fill="rgb(18, 34, 88)" fill-rule="evenodd"/>
</svg>
