<?xml version="1.0" encoding="UTF-8"?>
<!-- generated by Finnhub -->
<svg viewBox="0 0 55.5 55.5" xmlns="http://www.w3.org/2000/svg">
<path d="M 0,0 H 55.5 V 55.5 H 0 Z" fill="rgb(1, 173, 237)"/>
<path d="M 27.99,28.683 V 36.007 C 28,36.368 27.678,36.689 27.356,36.81 L 24.604,37.522 C 24.242,37.603 24,37.402 24,37.082 V 29.732 L 22,30.264 V 38.215 C 22,39.5 23.31,40.183 24.518,39.862 L 28.141,38.898 C 29.348,38.537 30,37.252 30,36.007 V 28.056 L 28,28.698 Z M 34,37.252 V 27.012 L 32,27.614 V 37.814 L 34,37.252 Z M 36,24.762 V 14.562 L 38,14 V 21.819 L 42,20.867 V 23.156 L 36,24.762 Z M 41,18.538 V 16.329 L 44,15.526 V 17.735 L 41,18.538 Z M 34,25.284 V 15.084 L 32,15.687 V 25.847 L 34,25.284 Z M 17.802,19.381 L 12,21.068 V 31.268 L 17.802,29.581 C 19.01,29.26 20,27.975 20,26.69 V 21.068 C 20,19.782 19.01,19.06 17.802,19.381 Z M 18,26.77 C 18,27.13 17.747,27.452 17.425,27.573 L 14,28.376 V 22.754 L 17.425,21.951 C 17.747,21.831 18,22.071 18,22.393 V 26.77 Z M 41.786,25.002 L 36,26.49 V 36.69 L 38,36.163 V 34.115 L 41.786,33.156 C 42.994,32.794 44,31.51 44,30.265 V 26.69 C 44,25.405 42.994,24.682 41.786,25.003 Z M 42,30.097 C 42,30.459 41.718,30.82 41.396,30.9 L 38,31.825 V 28.251 L 41.396,27.367 C 41.718,27.247 42,27.487 42,27.808 V 30.098 Z M 30,20.305 V 18.337 C 30,17.092 29.348,16.369 28.14,16.731 L 22,18.337 V 28.497 L 24,28.055 V 25.205 L 27.421,24.24 C 27.743,24.16 28,24.36 28,24.682 V 26.931 L 30,26.288 V 24.361 C 30,23.477 29.536,22.835 28.811,22.674 C 29.536,22.072 30,21.188 30,20.304 Z M 28,21.148 C 28,21.51 27.743,21.871 27.381,21.951 L 24,22.955 V 20.144 L 27.381,19.14 C 27.743,19.06 28,19.26 28,19.622 V 21.148 Z" fill="rgb(254, 254, 253)"/>
<path d="M 17.927,30.98 L 13.484,32.32 C 12.469,32.597 12.096,33.952 12.036,34.595 C 12.009,36.04 11.971,39.263 12.036,40.59 C 12.1,41.917 13.582,42.07 14.316,41.982 L 17.937,40.965 C 19.182,40.665 19.413,40.005 19.547,39.72 L 20.593,40.175 L 21.666,38.583 L 20,37.9 V 32.788 C 20,30.904 18.652,30.808 17.937,30.995 Z" fill="rgb(254, 254, 253)"/>
<path d="M 17.232999999999997,33.266999999999996 L 14.658,34.024 A 0.833,0.833 0 0,0 14.028,34.862 C 14.007,36.178 13.978,38.94 14.028,39.457 C 14.078,39.974 14.469,39.976 14.658,39.912 L 17.82,38.894 L 15.856,37.997 L 16.655,36.274 L 18,37.064 A 143.75,143.75 0 0,1 18,33.857 C 18.016,33.244 17.502,33.218 17.243,33.282 Z" fill="rgb(1, 173, 237)"/>
</svg>
