<!-- by Finnhub --><svg width="56" height="56" viewBox="0 0 56 56" xmlns="http://www.w3.org/2000/svg"><path fill="#F0F3FA" d="M0 0h56v56H0z"/><path d="M36.68 16s4.32.12 4.32 6.13c0 6-5.64 11.26-11 10.85 1.44-.45 5-1.66 5-7.48 0-8.21 0-9.5 1.68-9.5Z" fill="url(#ahrof5kmp)"/><path d="M23 30.2s2.06 4.67 7.3 4.67c5.22 0 7.36-2.78 8.73-4.23 1.36-1.46 2.73-3.07 3.79-2.54 1.06.54 2.2 3.56-.43 6.99-2.64 3.43-6.05 4.91-8.96 4.91C30.5 40 22.9 37.72 23 30.2Z" fill="url(#bhrof5kmp)"/><path d="M39 39.5S35.32 44 28.22 44C21 44 12 39.07 12 27.38 12 18.5 20 12 27.5 12c3.89.41 5.5 2.87 5.5 4.5s-.23 3.45-7.04 6.53c-8.04 3.62-6.58 16.51 6.27 17.97 2.23.25 6.77-1.5 6.77-1.5Z" fill="url(#chrof5kmp)"/><defs><linearGradient id="ahrof5kmp" x1="35.5" y1="16" x2="36" y2="34" gradientUnits="userSpaceOnUse"><stop stop-color="#008BB3"/><stop offset=".89" stop-color="#002D56"/></linearGradient><linearGradient id="bhrof5kmp" x1="45" y1="29" x2="21" y2="30" gradientUnits="userSpaceOnUse"><stop offset=".08" stop-color="#F4A926"/><stop offset=".92" stop-color="#BC3001"/></linearGradient><linearGradient id="chrof5kmp" x1="3.5" y1="28" x2="35" y2="28" gradientUnits="userSpaceOnUse"><stop offset=".11" stop-color="#287A12"/><stop offset="1" stop-color="#AECF35"/></linearGradient></defs></svg>