<?xml version="1.0" encoding="UTF-8"?>
<!-- generated by Finnhub -->
<svg viewBox="0 0 55.5 55.5" xmlns="http://www.w3.org/2000/svg">
<path d="M 0,0 H 55.5 V 55.5 H 0 Z" fill="rgb(239, 242, 248)"/>
<path d="M 40.36,15.865 A 13.68,13.68 0 0,0 31.19,12.35 A 13.93,13.93 0 0,0 17.35,26.36 C 17.35,28.41 17.79,30.35 18.56,32.1 A 13.76,13.76 0 0,1 15.73,23.7 C 15.73,16.14 21.79,10 29.26,10 C 33.86,10 37.93,12.33 40.37,15.88 Z" fill="url(#d)"/>
<path d="M 40.86,39.085 A 14.1,14.1 0 0,0 42.84,29.35 A 13.86,13.86 0 0,0 26.98,17.75 C 24.98,18.07 23.16,18.82 21.58,19.87 A 13.42,13.42 0 0,1 29.31,15.7 A 13.55,13.55 0 0,1 44.82,27.05 A 13.8,13.8 0 0,1 40.87,39.1 Z" fill="url(#c)"/>
<path d="M 15.31,17.405 A 14.1,14.1 0 0,0 13.16,27.12 C 14.24,34.79 21.24,40.12 28.81,39.02 C 30.81,38.74 32.64,38.03 34.24,37.01 A 13.42,13.42 0 0,1 26.44,41.03 A 13.56,13.56 0 0,1 11.14,29.39 A 13.8,13.8 0 0,1 15.32,17.42 Z" fill="url(#b)"/>
<path d="M 16.83,41.464999999999996 A 13.65,13.65 0 0,0 26.4,43.81 C 33.98,42.83 39.34,35.81 38.37,28.13 C 38.12,26.11 37.45,24.23 36.46,22.6 A 13.72,13.72 0 0,1 40.31,30.56 A 13.67,13.67 0 0,1 28.6,45.89 C 24.04,46.48 19.71,44.69 16.84,41.48 Z" fill="url(#a)"/>
<ellipse cx="28" cy="28.38" rx="3" ry="3" fill="rgb(32, 42, 208)"/>
<ellipse cx="28" cy="28.38" rx="1.51" ry="1.53" fill="rgb(147, 156, 235)"/>
<defs>
<linearGradient id="d" x1="37.11" x2="16.68" y1="12.75" y2="26.7" gradientUnits="userSpaceOnUse">
<stop stop-color="rgb(36, 138, 243)" offset=".16"/>
<stop stop-color="rgb(84, 179, 253)" offset=".73"/>
<stop stop-color="rgb(49, 148, 245)" offset="1"/>
</linearGradient>
<linearGradient id="c" x1="44.87" x2="28.54" y1="32.84" y2="19.51" gradientUnits="userSpaceOnUse">
<stop stop-color="rgb(51, 96, 222)" offset="0"/>
<stop stop-color="rgb(79, 120, 228)" offset=".31"/>
<stop stop-color="rgb(38, 85, 220)" offset="1"/>
</linearGradient>
<linearGradient id="b" x1="11.78" x2="26.57" y1="22.36" y2="40.95" gradientUnits="userSpaceOnUse">
<stop stop-color="rgb(52, 57, 208)" offset="0"/>
<stop stop-color="rgb(86, 86, 215)" offset=".27"/>
<stop stop-color="rgb(31, 39, 204)" offset="1"/>
</linearGradient>
<linearGradient id="a" x1="26.55" x2="40.96" y1="43.54" y2="28.88" gradientUnits="userSpaceOnUse">
<stop stop-color="rgb(200, 131, 74)" offset="0"/>
<stop stop-color="rgb(253, 176, 85)" offset=".71"/>
<stop stop-color="rgb(218, 146, 78)" offset="1"/>
</linearGradient>
</defs>
</svg>
