<?xml version="1.0" encoding="UTF-8"?>
<!-- generated by Finnhub -->
<svg viewBox="0 0 55.5 55.5" xmlns="http://www.w3.org/2000/svg">
<path d="M 0,0 H 55.5 V 55.5 H 0 Z" fill="rgb(239, 242, 248)"/>
<path d="M 14.99,13.985 H 27.98 C 28.41,13.93 28.85,13.9 29.28,13.87 C 30.12,13.8 30.95,13.74 31.75,13.43 C 35.37,12.03 36.51,10 36.51,10 A 8.65,8.65 0 0,1 33.14,14.46 L 33.01,14.54 C 30.64,16.01 27.74,15.99 25.23,15.97 A 18.42,18.42 0 0,0 21.83,16.13 C 17.25,17.01 17.3,19.11 17.3,19.11 A 7.52,7.52 0 0,1 23.66,19.02 C 21.75,18.99 20.59,19.65 19.08,20.52 C 18.56,20.82 18,21.13 17.35,21.46 C 16.97,21.66 16.55,21.78 16.13,21.8 C 15.79,21.81 15.53,21.7 15.23,21.56 L 15,21.46 V 14 Z M 36.63,16.93 C 36.99,17.43 37.41,17.91 37.84,18.41 C 38.74,19.44 39.65,20.49 40.12,21.8 C 40.44,22.67 40.19,24.1 39.92,25.35 A 21.39,21.39 0 0,0 38.3,22.52 C 37.92,21.98 37.63,21.56 37.31,21.15 C 37.01,20.75 36.69,20.35 36.34,19.98 C 36.34,19.98 34.33,22.59 37.95,22.79 C 37.95,22.79 40.07,26.44 41,28.87 V 14 H 35.1 C 35,14.73 35.68,15.65 36.49,16.74 L 36.63,16.93 Z M 32.13,21.33 S 28.66,24.57 31.14,28.13 C 32.13,29.55 33.61,30.68 35.06,31.79 C 37.25,33.46 39.34,35.06 39.48,37.47 A 8.13,8.13 0 0,0 40.84,34.09 S 42.66,33.62 43,31.34 C 43,31.34 42,32.74 41.08,33.07 A 1.1,1.1 0 0,1 40.37,33.05 C 39.5,32.8 39.15,32.27 38.75,31.23 A 3,3 0 0,0 37.14,29.67 L 36.24,29.34 C 33.74,28.48 29.41,27 32.14,21.32 Z M 36.63,46 C 38.18,43.84 38.36,42.46 36.03,40.66 C 34.93,39.81 34.48,41.89 34.48,41.9 C 37.54,43.5 36.69,45.84 36.63,46 Z M 18.1,24.39 S 11.56,25.65 11.29,20.67 C 11.29,20.67 9.45,26.36 14.89,25.92 C 14.89,25.92 9.42,31.44 14.54,37.47 C 14.48,37.37 11.54,32.73 18.1,24.39 Z" fill="rgb(73, 192, 191)"/>
</svg>
