<!-- by Finnhub --><svg xmlns="http://www.w3.org/2000/svg" width="56" height="56" viewBox="0 0 56 56"><path fill="#F0F3FA" d="M0 0h56v56H0z"/><path d="M48.65 27.05a1.4 1.4 0 0 0-2-.12c-2.35 2.13-4.74 4.1-7.44 5.5a23.33 23.33 0 0 1-8.74 2.5c-.86.08-1.76.12-2.66.16a4.51 4.51 0 0 1-2.74-.93 7.16 7.16 0 0 1-2.08-2.6 9.67 9.67 0 0 1-.4-6.97.39.39 0 0 0-.15-.4c-.16-.08-.35 0-.43.16a10.4 10.4 0 0 0-.16 7.68 8.8 8.8 0 0 0 1.76 2.9c-.78-.08-1.6-.2-2.39-.36a24.92 24.92 0 0 1-8.58-3.66c-.11-.08-.31-.04-.43.08-.11.16-.08.36.08.44 1.3 1 2.63 1.93 4.08 2.7a23.5 23.5 0 0 0 9.36 2.73c.7.08 1.37.12 2.08.12H28.08c.86.04 1.69 0 2.55-.04a24.5 24.5 0 0 0 13.94-4.78c1.38-.97 2.63-2.02 3.88-3.06l.04-.04c.63-.48.67-1.41.16-2.01z" fill="#0094B3"/><path d="M43.63 24.55a28.49 28.49 0 0 0-4.03-2.7 23.5 23.5 0 0 0-9.36-2.73c-.71-.08-1.42-.12-2.08-.12H27.88c-.82 0-1.68 0-2.5.04-.83.04-1.65.16-2.47.24-.82.16-1.65.28-2.43.48a29 29 0 0 0-9.05 4.1A48.73 48.73 0 0 0 7.5 26.9s-.04 0-.04.04a1.49 1.49 0 0 0-.12 2.05c.51.6 1.42.64 2 .12a33.36 33.36 0 0 1 7.49-5.35 27.36 27.36 0 0 1 4.23-1.7c.7-.23 1.49-.4 2.2-.56.74-.12 1.48-.28 2.26-.36.83-.12 1.73-.16 2.59-.2.47 0 .9.04 1.37.2.47.16.98.4 1.41.73a7.3 7.3 0 0 1 2.08 2.65 9.4 9.4 0 0 1 .31 7c-.04.16 0 .32.16.4.15.08.35 0 .43-.16A10.61 10.61 0 0 0 34.1 24c-.23-.6-.54-1.2-.9-1.77-.23-.4-.55-.77-.9-1.13.82.08 1.6.2 2.4.36 3 .6 5.9 1.94 8.57 3.67.12.08.32.04.43-.09.12-.16.08-.36-.08-.48z" fill="#69BE28"/></svg>