<?xml version="1.0" encoding="UTF-8"?>
<!-- generated by Finnhub -->
<svg viewBox="0 0 55.5 55.5" xmlns="http://www.w3.org/2000/svg">
<path d="M 0,0 H 55.5 V 55.5 H 0 Z" fill="rgb(249, 68, 45)"/>
<path d="M 9.53,23.985 H 8 V 36 H 11 V 25.58 A 1.64,1.64 0 0,0 10.57,24.46 C 10.44,24.32 10.28,24.2 10.1,24.12 A 1.33,1.33 0 0,0 9.54,24 Z M 9.54,20 H 8 V 23 H 11 V 22.02 C 11,21.82 10.97,21.17 10.9,20.98 A 1.56,1.56 0 0,0 10.1,20.12 A 1.33,1.33 0 0,0 9.54,20 Z M 37,30.91 V 24.01 H 35.48 C 34.5,24 34,24.68 34,25.5 V 31 C 34,32 33.13,33.07 32,33.07 C 30.88,33.08 30,32 30,31.03 V 24 H 27 V 30.92 C 27,34.04 28.8,35.88 31.92,36 C 35.14,36.03 37,34.1 37,30.91 Z M 49,36 H 47.5 C 46.5,36 46,35.34 46,34.5 V 29.03 C 46,28.01 45.13,26.99 44.01,27 C 42.9,26.99 42,28 42,29.03 V 36 H 39 V 29.13 C 39,26.04 40.82,24.15 43.91,24 C 47.11,23.98 48.99,25.95 48.99,29.11 L 49,36 Z M 19.39,33.4 C 17.86,33.5 16.15,32.67 16.02,31 H 13.01 C 13.23,34.41 15.85,36 19.08,36 C 22.24,36 25,34.5 25,31.05 C 25.02,28.98 23.75,27.98 22.2,27.31 C 21.47,27 20.72,26.79 19.97,26.57 L 19.28,26.4 C 18,26.1 16.18,25.69 16.18,24.41 C 16.12,23.02 17.52,22.56 18.66,22.56 C 19.92,22.5 20.82,22.99 21.34,24.08 C 21.57,24.65 22.16,25.03 22.77,25 H 24.5 C 24.5,24.33 24.37,23.48 24.1,22.86 C 23.2,20.78 21.11,20 18.93,20 C 16.43,20 13.73,21.07 13.29,23.62 C 12.71,26.99 14.89,28.42 17.76,29.07 L 18.36,29.21 C 19.8,29.53 22.05,30.03 22.05,31.5 C 22.13,32.89 20.57,33.47 19.39,33.4 Z" fill="rgb(254, 254, 253)"/>
</svg>
