<?xml version="1.0" encoding="UTF-8"?>
<!-- generated by Finnhub -->
<svg viewBox="0 0 55.5 55.5" xmlns="http://www.w3.org/2000/svg">
<path d="M 0,0 H 55.5 V 55.5 H 0 Z" fill="rgb(39, 73, 112)"/>
<path d="M 5.16,24.985 V 31 H 4 V 25 H 5.17 Z M 10.68,25 V 31 H 9.67 L 7.27,27.24 H 7.22 V 31 H 6 V 25 H 7.08 L 9.47,28.75 H 9.52 V 25 H 10.68 Z M 12.57,25 L 13.9,29.52 H 13.96 L 15.29,25 H 16.59 L 14.69,31 H 13.18 L 11.27,25 H 12.57 Z M 17.18,31 V 25 H 21 V 26.1 H 18.35 V 27.49 H 20.71 V 28.51 H 18.35 V 29.9 H 21 V 31 H 17.18 Z M 24.76,26.76 A 0.73,0.73 0 0,0 24.48,26.22 C 24.32,26.1 24.09,26.03 23.81,26.03 C 23.62,26.03 23.46,26.06 23.33,26.12 A 0.68,0.68 0 0,0 23.03,26.35 C 22.96,26.45 22.93,26.55 22.93,26.68 C 22.93,26.78 22.94,26.88 22.99,26.96 C 23.03,27.04 23.09,27.1 23.18,27.16 C 23.26,27.22 23.35,27.26 23.46,27.31 C 23.56,27.35 23.68,27.38 23.8,27.41 L 24.3,27.53 C 24.54,27.59 24.76,27.67 24.96,27.76 C 25.16,27.86 25.34,27.97 25.48,28.11 C 25.63,28.25 25.75,28.41 25.83,28.61 C 25.91,28.79 25.95,29.01 25.95,29.25 C 25.95,29.61 25.87,29.92 25.69,30.18 C 25.53,30.44 25.28,30.64 24.96,30.78 C 24.64,30.93 24.26,31 23.81,31 A 2.9,2.9 0 0,1 22.64,30.78 A 1.73,1.73 0 0,1 21.87,30.14 A 2.05,2.05 0 0,1 21.58,29 H 22.71 C 22.72,29.2 22.78,29.44 22.87,29.57 C 22.97,29.7 23.09,29.8 23.25,29.87 C 23.41,29.93 23.59,29.97 23.79,29.97 S 24.16,29.93 24.31,29.87 A 0.8,0.8 0 0,0 24.65,29.62 A 0.6,0.6 0 0,0 24.77,29.25 A 0.5,0.5 0 0,0 24.67,28.92 A 0.84,0.84 0 0,0 24.34,28.69 C 24.21,28.63 24.04,28.57 23.84,28.52 L 23.24,28.36 C 22.77,28.24 22.4,28.06 22.13,27.8 C 21.86,27.54 21.73,27.2 21.73,26.77 C 21.73,26.41 21.81,26.11 21.99,25.84 C 22.18,25.58 22.42,25.37 22.74,25.22 C 23.06,25.07 23.42,25 23.82,25 C 24.23,25 24.59,25.07 24.9,25.22 A 1.7,1.7 0 0,1 25.88,26.76 H 24.76 Z M 26.45,26 V 25 H 31 V 26 H 29.3 V 31 H 28.15 V 26 H 26.45 Z M 36.3,27 H 35.1 A 1.16,1.16 0 0,0 34.36,26.16 A 1.32,1.32 0 0,0 33.92,26.09 C 33.63,26.09 33.38,26.17 33.17,26.32 C 32.96,26.47 32.79,26.68 32.67,26.97 A 2.7,2.7 0 0,0 32.5,28 C 32.5,28.41 32.56,28.76 32.68,29.05 A 1.28,1.28 0 0,0 33.91,29.91 C 34.07,29.91 34.21,29.88 34.35,29.84 A 1.12,1.12 0 0,0 35.11,29 H 36.29 A 2.34,2.34 0 0,1 33.89,31 A 2.46,2.46 0 0,1 31.65,29.62 A 3.6,3.6 0 0,1 31.32,28 C 31.32,27.36 31.43,26.82 31.66,26.37 A 2.45,2.45 0 0,1 33.89,25 C 34.21,25 34.51,25.05 34.79,25.14 A 2.3,2.3 0 0,1 36.29,27 Z M 42.13,28 C 42.13,28.64 42.02,29.18 41.79,29.62 A 2.46,2.46 0 0,1 39.55,31 A 2.46,2.46 0 0,1 37.3,29.62 A 3.55,3.55 0 0,1 36.96,28 C 36.96,27.36 37.07,26.82 37.3,26.37 A 2.44,2.44 0 0,1 39.55,25 A 2.44,2.44 0 0,1 41.8,26.37 C 42.02,26.82 42.13,27.37 42.13,28 Z M 40.95,28 C 40.95,27.59 40.89,27.24 40.77,26.96 A 1.26,1.26 0 0,0 39.54,26.1 A 1.26,1.26 0 0,0 38.31,26.96 C 38.2,27.24 38.14,27.59 38.14,28 C 38.14,28.41 38.2,28.76 38.31,29.04 C 38.43,29.32 38.6,29.54 38.81,29.69 C 39.01,29.83 39.26,29.91 39.55,29.91 C 39.83,29.91 40.07,29.83 40.29,29.69 C 40.49,29.54 40.66,29.32 40.77,29.04 C 40.89,28.76 40.95,28.41 40.95,28 Z M 42.8,31 V 25 H 45.1 C 45.52,25 45.88,25.16 46.17,25.32 C 46.47,25.47 46.7,25.69 46.85,25.98 C 47.01,26.27 47.09,26.6 47.09,26.98 A 2,2 0 0,1 46.85,27.98 C 46.69,28.26 46.46,28.48 46.16,28.63 C 45.86,28.77 45.5,28.85 45.08,28.85 H 43.62 V 27.85 H 44.89 C 45.11,27.85 45.29,27.82 45.44,27.75 A 0.67,0.67 0 0,0 45.77,27.47 A 0.96,0.96 0 0,0 45.88,26.99 A 1,1 0 0,0 45.78,26.49 A 0.7,0.7 0 0,0 45.44,26.19 A 1.3,1.3 0 0,0 44.88,26.09 H 44 V 31 H 42.8 Z M 45.91,28.26 L 47.28,31 H 46 L 44.66,28.26 H 45.92 Z M 47.84,31 V 25 H 50.02 A 2,2 0 0,1 52,27.06 C 52,28.22 51.16,29 49.99,29 H 48.59 V 28 H 49.8 C 50.49,28 50.8,27.63 50.8,27.06 C 50.8,26.51 50.37,26 49.8,26 H 49 V 31 H 47.84 Z" fill="rgb(254, 254, 253)"/>
</svg>
