<?xml version="1.0" encoding="UTF-8"?>
<!-- generated by Finnhub -->
<svg viewBox="0 0 55.5 55.5" xmlns="http://www.w3.org/2000/svg">
<path d="M 0,0 H 55.5 V 55.5 H 0 Z" fill="rgb(239, 242, 248)"/>
<path d="M 40.99,33.985 V 21 H 49 V 23 H 43 V 26 H 48 V 28 H 43 V 32 H 49 V 34 H 41 Z M 25,21 H 27.75 L 31.43,30.42 H 31.57 L 35.25,21 H 38 V 34 H 36 V 25.07 H 35.73 L 32.31,34 H 30.7 L 27.27,25.05 H 27 V 34 H 25 V 21 Z M 13.28,21 L 17,32 L 20.73,21 H 23 L 18.44,34 H 15.55 L 11,21 H 13.28 Z M 9,21 V 34 H 7 V 21 H 9 Z"/>
</svg>
