<?xml version="1.0" encoding="UTF-8"?>
<!-- generated by Finnhub -->
<svg viewBox="0 0 55.5 55.5" xmlns="http://www.w3.org/2000/svg">
<path d="M0 0h55.5v55.5H0z" fill="rgb(239, 242, 248)"/>
<path d="M4 33.31V22h2.64v11.05L4 33.3ZM7 33V22h3.66l2.68 5.4V22H16v8.3l2.35-.15c.07 1.07.62 1.45.89 1.51l-6.72.75-2.84-5.82v6.06L7 33Zm13.85-1.55c.14-.07.4-.35.4-.88 0-.66-.36-.96-1.13-1.35l-.55-.27c-.9-.44-2.2-1.07-2.64-1.54a2.94 2.94 0 0 1-.92-2.25c0-1.1 1.06-3.16 4.1-3.16A4.27 4.27 0 0 1 24 24.24V22h4.87c1.73 0 3.2 1.2 3.63 2.83V22H35v7.44l-2.5.45v-2.7a3.78 3.78 0 0 1-3.63 2.83h-2.19v.67l-2.17.27v.02l-3.66.47Zm.55-6.16 2.6-.77v4.5c-.82-1.51-2.64-2.24-3.68-2.65l-.34-.14c-1.03-.44-1.17-.65-1.17-1.07 0-.43.18-1.16 1.3-1.16.91 0 1.24.86 1.29 1.29ZM27.88 24H26.5v4h1.38c1.17 0 2.12-.9 2.12-2s-.95-2-2.12-2Zm7.62 5.3c1.6-.22 5.48-.94 8.29-2.1.16-.25.48-.89.48-1.5v-.1c0-1.99-1.59-3.6-3.54-3.6H35.5v7.3Zm4.27-5.05h-1.35v3.5h1.35c.95 0 1.72-.78 1.72-1.75 0-.96-.77-1.75-1.72-1.75Zm4.69 2.73V22h6.92c-.26.26-.72.65-1.21 1.06l-1.1.94H47v1.75l-2.54 1.23Z" fill="rgb(113, 132, 42)" fill-rule="evenodd"/>
<path d="M35.5 30.58a66.89 66.89 0 0 0 2.5-.49V34h-2.5v-3.42Zm-3 .47c.87-.12 1.7-.25 2.5-.39V34h-2.5v-2.95ZM24 32.1l2.5-.28v2.1H24V32.1Zm-7.25.7c2.2-.2 4.45-.41 6.67-.64a4.73 4.73 0 0 1-3.69 1.77c-1.7 0-2.6-.63-2.98-1.13Zm-3.84.33 3.1-.26V34h-2.76l-.34-.87Zm-5.8.46 2.71-.2v.6H7.11v-.4Zm36.35-5.32a28.32 28.32 0 0 1-4.95 1.7c.84 1.39 2.4 4.03 2.4 4.03h3.3l-2.66-4.28a4.57 4.57 0 0 0 2.04-1.47l-.13.02Zm1.04-.5c.9-.45 1.74-.93 2.5-1.43V32h5v2h-7.5v-6.22ZM50.07 24c.8-.71 1.44-1.4 1.93-2v2h-1.93ZM5.14 33.74l1.52-.11v.36H4.01v-.14l1.13-.1ZM52 27h-4v2h4v-2Z" fill="rgb(93, 74, 17)"/>
</svg>
