<?xml version="1.0" encoding="UTF-8"?>
<!-- generated by Finnhub -->
<svg viewBox="0 0 55.5 55.5" xmlns="http://www.w3.org/2000/svg">
<path d="M 0,0 H 55.5 V 55.5 H 0 Z" fill="rgb(239, 242, 248)"/>
<path d="M 31.33,10.985 C 32.77,11 33.87,11.88 34.22,13.26 C 34.32,14 34.32,14.5 34.32,15.3 C 34.36,15.98 34.52,16.52 34.71,16.92 C 34.76,16.65 34.76,16.37 34.74,16.1 C 34.68,15.43 34.44,14.81 34.42,14.14 L 35.03,13.83 C 35.38,14.53 35.65,15.22 35.73,16 C 35.79,16.71 35.7,17.55 35.23,18.28 L 34.89,18.78 L 34.46,18.35 A 4.72,4.72 0 0,1 33.36,15.71 V 14.66 C 33.44,13.29 32.83,12 31.34,12 C 29.49,12 28.87,13.27 28.87,15 C 28.87,16.78 31.37,19.15 32.63,20.1 A 5.3,5.3 0 0,1 34.81,24 C 34.81,25.58 33.09,26 31.84,26 C 28.91,26 26.92,25 24.41,25 C 22.94,25 21.84,26.05 21.24,27.32 C 23.08,26.94 25,26.5 26.89,26.5 C 27.89,26.5 28.83,26.5 29.63,26.32 C 29.79,26.29 29.94,26.25 30.09,26.2 H 31.92 C 31.36,26.81 30.62,27.13 29.84,27.3 C 28.92,27.5 27.89,27.5 26.92,27.5 C 24.76,27.5 22.65,28.02 20.56,28.49 L 19.76,28.67 L 19.98,27.87 C 20.56,25.81 22.2,24 24.4,24 C 26.8,24 28.94,24.91 31.33,25 C 32.04,25 33.81,25.1 33.81,24 C 33.81,23.47 33.47,22 32.03,20.9 C 30.49,19.74 27.87,17.13 27.87,15 C 27.87,12.72 28.92,11 31.33,11 Z" fill="rgb(218, 61, 124)"/>
<path d="M 32.580000000000005,24.665 C 32.73,23.9 32.72,22.98 32.34,22.16 C 31.75,20.89 30.37,20 27.88,20 A 9.13,9.13 0 0,0 20.77,23.04 C 18.44,25.68 17.79,28.93 18.08,32.22 C 18.12,32.66 18.18,33.12 18.24,33.56 C 17.72,33.22 16.99,32.69 16.99,32 C 16.99,31.48 17.37,31.1 17.79,30.84 V 29.7 C 16.86,30.1 16,30.9 16,31.99 C 16,33.45 17.6,34.48 18.79,34.95 L 19.78,35.35 L 19.44,34.33 C 19.26,33.79 19.14,32.97 19.07,32.13 C 18.83,29.35 19.5,25.96 21.5,23.7 A 8.15,8.15 0 0,1 27.88,21 C 30.14,21 31.07,21.78 31.44,22.59 C 31.75,23.27 31.72,24.09 31.55,24.79 C 31.9,24.82 32.25,24.81 32.59,24.68 Z" fill="rgb(218, 61, 124)"/>
<path d="M 33.120000000000005,14.725 C 32.93,14.79 32.77,14.8 32.63,14.78 C 32.07,14.73 31.65,14.3 31.11,14.22 C 29.69,14.02 29.39,15.77 29.86,16.76 C 30.13,17.34 30.54,17.98 31.03,18.39 C 33.73,20.62 35.14,22.43 35.71,23.82 C 36.1,24.75 36.21,25.87 35.45,26.65 C 34.78,27.32 33.71,27.33 32.83,27.39 C 31.33,27.5 29.87,27.72 28.6,28.59 C 26.87,29.74 26.4,32.01 26.4,35.49 L 26.36,36.15 C 26.14,34.32 25.97,30.66 24.17,29.57 A 6.02,6.02 0 0,0 19.57,29.07 C 19.49,29.45 19.46,29.82 19.47,30.14 A 5.17,5.17 0 0,1 23.67,30.43 C 25.15,31.33 25.24,35.06 25.41,36.51 C 25.78,39.63 26.01,44.18 26.01,46.5 C 26.01,46.77 26.23,47 26.5,47 S 27,46.8 27,46.53 L 27.38,35.51 V 35.5 C 27.38,31.98 27.9,30.25 29.14,29.42 C 30.28,28.65 31.6,28.48 32.93,28.39 C 34.06,28.3 35.3,28.21 36.15,27.35 C 37.21,26.29 37.17,24.75 36.63,23.43 C 35.96,21.83 34.41,19.89 31.68,17.63 C 31.38,17.32 30.98,16.83 30.75,16.33 C 30.65,16.13 30.39,15.13 30.96,15.21 C 31.52,15.29 31.95,15.72 32.54,15.78 C 32.72,15.8 32.92,15.79 33.13,15.76 V 14.74 Z" fill="rgb(218, 61, 124)"/>
<path d="M 35.56,15.135 C 35.64,15.41 35.7,15.7 35.72,16 C 35.79,16.71 35.7,17.55 35.22,18.28 L 34.89,18.78 L 34.46,18.35 C 34.23,18.12 33.9,17.65 33.66,16.99 L 34.31,16 L 34.41,15.94 C 34.48,16.33 34.59,16.66 34.71,16.92 A 3.12,3.12 0 0,0 34.69,15.75 L 35.57,15.15 Z"/>
</svg>
