<?xml version="1.0" encoding="UTF-8"?>
<!-- generated by Finnhub -->
<svg viewBox="0 0 55.5 55.5" xmlns="http://www.w3.org/2000/svg">
<path d="M 0,0 H 55.5 V 55.5 H 0 Z" fill="rgb(239, 242, 248)"/>
<path d="M 30.985999999999997,29.985 L 30.072,32.992 C 30.565,32.982 30.919,32.942 31.082,32.859 C 31.239,32.769 31.32,32.699 31.413,32.359 L 31.939,30.815 C 32.042,30.459 32.013,30.237 31.914,30.163 C 31.815,30.084 31.508,30.01 30.996,30 Z M 31.818,27 L 31.279,29.003 C 31.432,28.998 31.535,28.998 31.624,28.998 C 31.979,28.998 32.229,28.894 32.357,28.785 C 32.485,28.677 32.579,28.518 32.727,28.01 C 32.805,27.743 32.843,27.366 32.793,27.262 A 0.367,0.367 0 0,0 32.527,27.05 A 4.27,4.27 0 0,0 31.818,27 Z M 29,26 H 32.154 C 33.144,26 33.878,26.05 34.36,26.148 C 34.843,26.247 35.248,26.301 35.48,26.602 C 35.711,26.903 35.73,27.387 35.549,28.054 C 35.426,28.504 35.229,28.82 34.953,28.998 C 34.682,29.175 34.209,29.314 33.529,29.408 C 34.229,29.511 34.672,29.684 34.864,29.926 C 35.056,30.168 35.07,30.491 34.953,31.066 L 34.658,32.076 C 34.515,32.596 34.215,33.081 33.959,33.333 C 33.703,33.585 33.359,33.753 32.925,33.847 C 32.491,33.941 31.645,34 30.384,34 H 27 L 29,26 Z M 27.752,26 H 24.7 L 23.392,30.945 C 23.313,31.235 23.244,31.429 23.21,31.532 C 23.17,31.656 23.047,31.779 22.91,31.868 C 22.806,31.932 22.496,31.992 21.688,32.011 C 21.604,32.011 21.408,32.006 21.22,31.997 L 20.633,34 H 22.908 C 23.598,34 24.12,33.955 24.484,33.886 C 24.844,33.812 25.139,33.674 25.386,33.496 C 25.617,33.328 25.76,33.136 25.839,32.898 C 25.922,32.666 27.752,25.999 27.752,25.999 Z M 36.426,26 L 36,26.998 C 36.192,26.988 36.497,26.998 36.58,26.998 C 36.803,26.998 37.54,26.985 37.653,27.05 C 37.786,27.129 37.865,27.247 37.86,27.356 C 37.855,27.459 37.815,27.652 37.737,27.944 L 35.959,34 H 39.028 L 40.855,27.8 C 40.933,27.508 40.983,27.454 41.027,27.355 C 41.077,27.251 41.199,27.157 41.347,27.088 C 41.495,27.019 42.363,26.998 42.584,26.998 C 42.668,26.998 42.818,26.989 43,26.999 L 43.374,25.999 H 36.426 Z M 17.971,21.253 L 18.227,21.11 C 16.843,20.087 15.169,19.337 13.717,19.356 C 12.199,19.376 10.869,20.28 9.894,21.623 C 9.018,22.833 8.481,24.429 8.19,25.99 C 7.481,29.788 8.697,33.542 12.815,33.542 C 16.4,33.542 21.498,31.319 21.97,27.654 C 22.128,26.454 21.517,24.76 20.404,23.264 C 20.281,23.534 20.276,23.53 20.163,23.797 A 12.75,12.75 0 0,0 19.971,24.286 C 20.311,25.051 20.493,25.856 20.439,26.661 C 20.266,29.353 16.676,31.521 13.726,31.601 C 10.229,31.694 8.929,28.933 9.037,26.424 C 9.19,22.987 10.805,20.151 13.381,19.781 C 14.696,19.593 16.346,20.271 17.721,21.406 C 17.721,21.406 17.902,21.293 17.971,21.253 Z" fill="rgb(3, 6, 4)"/>
<path d="M 25.99,34.985 C 25.194,35.636 22.949,36.031 21.261,35.636 C 21.458,35.927 21.463,35.937 21.532,36.031 C 21.621,36.159 21.828,36.431 21.828,36.431 C 22.709,36.541 25.763,36.431 27,35.001 H 26 Z M 28.895,25 C 28.028,22.585 25.758,21.06 21.828,21.836 C 19.118,22.369 15.789,24.706 14.848,28.188 A 5.086,5.086 0 0,0 15.051,31.428 S 14.661,31.521 14.149,31.571 C 13.569,31.625 13.199,31.591 13.199,31.591 C 12.46,29.847 12.524,27.906 13.263,26.361 C 15.681,21.283 20.577,19.954 22.177,19.692 C 25.058,19.223 28.013,20.349 29.2,22.369 C 29.801,23.392 30.106,24.022 30.269,25 H 28.895 Z M 14.996,33.3 C 14.504,33.398 14.366,33.413 14.366,33.413 C 15.617,34.826 17.494,35.843 19.429,36.233 C 19.429,36.233 19.242,35.923 19.089,35.626 C 18.932,35.33 18.804,35.058 18.804,35.058 A 7.202,7.202 0 0,1 16.031,33.033 C 16.026,33.038 15.528,33.191 14.997,33.3 Z" fill="rgb(80, 138, 199)"/>
<path d="M 31.229999999999997,14.985 C 26.945,15 23.113,16.98 20.581,20.087 A 11.206,11.206 0 0,1 22.177,19.692 C 22.483,19.642 22.787,19.613 23.093,19.598 C 25.33,17.51 28.286,16 31.601,16 C 37.225,16 42.054,19.885 43.606,25.031 L 44,23.6 C 41.917,18.546 36.987,15 31.24,15 Z M 18.685,23.16 A 9.557,9.557 0 0,1 21.089,22.023 C 20.838,22.423 20.606,22.833 20.399,23.263 C 20.276,23.525 20.271,23.53 20.163,23.782 V 23.787 C 20.163,23.792 20.158,23.797 20.158,23.802 A 12.477,12.477 0 0,0 19.198,29.205 A 7.365,7.365 0 0,1 17.513,30.495 A 13.826,13.826 0 0,1 17.434,28.988 A 13.99,13.99 0 0,1 18.685,23.16 Z M 31.25,43 C 34.294,43 37.106,41.997 39.386,40.303 L 40.001,38 C 37.794,40.01 34.865,41 31.664,41 C 25.704,41 20.704,37.053 19.474,31.373 C 18.971,31.739 18.414,32.065 17.834,32.341 C 19.325,38.451 24.762,43 31.248,43 Z" fill="rgb(177, 178, 179)"/>
</svg>
