<?xml version="1.0" encoding="UTF-8"?>
<!-- generated by Finnhub -->
<svg viewBox="0 0 55.5 55.5" xmlns="http://www.w3.org/2000/svg">
<path d="M 0,0 H 55.5 V 55.5 H 0 Z" fill="rgb(34, 39, 40)"/>
<path d="M 27.99,44.985 A 17,17 0 1,0 28,11 A 17,17 0 0,0 28,45 Z M 28,43 A 15,15 0 1,0 28,13 A 15,15 0 0,0 28,43 Z" fill="rgb(222, 216, 197)" fill-rule="evenodd"/>
<path d="M 27.369999999999997,16.165 A 1.25,1.25 0 0,1 28.64,16.16 L 34.3,19.48 C 35,19.88 35.21,20.73 34.76,21.37 C 34.32,22 33.38,22.19 32.67,21.79 L 28.68,19.42 A 1.26,1.26 0 0,0 27.42,19.43 L 23.36,21.77 C 22.66,22.19 21.72,22.02 21.26,21.39 C 20.79,20.77 20.98,19.92 21.67,19.5 L 27.37,16.18 Z M 27.4,23.17 A 1.09,1.09 0 0,1 28.56,23.17 L 35.36,27.47 C 36,27.88 36.2,28.72 35.78,29.35 A 1.42,1.42 0 0,1 33.86,29.79 L 28.59,26.4 A 1.09,1.09 0 0,0 27.43,26.41 L 22.17,29.77 C 21.53,30.19 20.67,30.02 20.23,29.4 A 1.34,1.34 0 0,1 20.62,27.51 L 27.39,23.17 Z M 27.44,31.17 A 1,1 0 0,1 28.54,31.16 L 36.38,36.5 C 37,36.9 37.18,37.75 36.79,38.38 A 1.32,1.32 0 0,1 34.97,38.79 L 28.57,34.38 A 1,1 0 0,0 27.47,34.39 L 21.06,38.77 C 20.46,39.19 19.63,39.02 19.22,38.4 C 18.82,37.78 18.98,36.94 19.59,36.53 L 27.44,31.17 Z M 14.9,29 H 14.57 C 14.5,29 14.47,28.97 14.47,28.9 V 26.62 C 14.47,26.57 14.46,26.56 14.42,26.56 H 14.09 C 14.03,26.56 14,26.53 14,26.46 V 26.1 C 14,26.03 14.03,26 14.1,26 H 14.9 C 14.97,26 15,26.03 15,26.1 V 28.9 C 15,28.97 14.97,29 14.9,29 Z M 17.03,29 H 16.63 C 16.58,29 16.56,28.98 16.56,28.95 C 16.56,28.93 16.56,28.91 16.59,28.88 L 17.13,28.04 A 0.53,0.53 0 0,1 16.89,28.09 C 16.38,28.09 16,27.7 16,27.09 C 16,26.45 16.44,26 17.02,26 C 17.59,26 18,26.39 18,27.05 C 18,27.41 17.9,27.7 17.65,28.12 L 17.19,28.89 C 17.14,28.99 17.12,29 17.03,29 Z M 17,26.55 C 16.72,26.55 16.52,26.75 16.52,27.07 C 16.52,27.37 16.72,27.57 16.99,27.57 C 17.26,27.57 17.46,27.37 17.46,27.06 S 17.26,26.55 17,26.55 Z M 37.7,26.6 L 37.68,27.1 C 37.82,27.07 37.96,27.04 38.08,27.04 C 38.65,27.04 39,27.41 39,27.96 C 39,28.54 38.62,29 37.9,29 C 37.6,29 37.31,28.9 37.05,28.7 C 37.01,28.67 37,28.64 37,28.6 C 37,28.58 37,28.55 37.03,28.52 L 37.15,28.27 C 37.18,28.22 37.19,28.2 37.22,28.2 L 37.28,28.23 C 37.48,28.38 37.69,28.45 37.91,28.45 C 38.27,28.45 38.47,28.28 38.47,28 C 38.47,27.71 38.27,27.57 37.91,27.57 A 1.82,1.82 0 0,0 37.23,27.7 C 37.19,27.7 37.17,27.66 37.18,27.6 L 37.24,26.13 C 37.24,26.03 37.28,26 37.36,26 H 38.78 C 38.84,26 38.87,26.03 38.87,26.1 V 26.45 C 38.87,26.52 38.85,26.55 38.77,26.55 H 37.76 C 37.72,26.55 37.7,26.56 37.7,26.61 Z M 41.49,27.98 C 41.49,27.68 41.27,27.52 40.79,27.52 C 40.71,27.52 40.68,27.5 40.68,27.46 A 0.2,0.2 0 0,1 40.71,27.36 L 41.19,26.55 H 40.24 C 40.18,26.55 40.16,26.52 40.16,26.45 V 26.1 C 40.16,26.03 40.18,26 40.24,26 H 41.89 C 41.94,26 41.98,26.03 41.98,26.06 A 0.2,0.2 0 0,1 41.94,26.16 L 41.36,27.15 C 41.77,27.23 42,27.51 42,27.97 C 42,28.56 41.58,29 40.94,29 C 40.58,29 40.29,28.87 40.04,28.64 C 40.01,28.61 40,28.58 40,28.54 L 40.02,28.48 L 40.16,28.2 L 40.22,28.14 L 40.29,28.18 C 40.49,28.36 40.69,28.45 40.93,28.45 C 41.26,28.45 41.49,28.26 41.49,27.98 Z" fill="rgb(222, 216, 197)"/>
</svg>
