<?xml version="1.0" encoding="UTF-8"?>
<!-- generated by Finnhub -->
<svg viewBox="0 0 55.5 55.5" xmlns="http://www.w3.org/2000/svg">
<path d="M 0,0 H 55.5 V 55.5 H 0 Z" fill="rgb(239, 242, 248)"/>
<path d="M 7.99,28.175 V 20 H 12.5 V 27.83 C 12.5,29.68 13.8,31.28 15.56,31.28 C 16.97,31.28 17.77,30.61 18,30.27 V 35.64 A 7.8,7.8 0 0,1 15.33,36 C 11.43,36 8,32.17 8,28.19 Z" fill="url(#a)"/>
<path d="M 12.49,27.384999999999998 V 27.83 C 12.5,29.68 13.8,31.28 15.56,31.28 C 16.97,31.28 17.77,30.61 18,30.27 V 35.64 L 17.95,35.66 C 13.27,34.05 12.35,29.51 12.49,27.4 H 12.51 Z" fill="url(#b)"/>
<path d="M 18.99,35.985 V 20 H 23.5 V 31 H 26.83 C 29.2,31 30.03,29.4 30.15,28.44 L 31.45,30.11 L 27.14,36 H 19 Z" fill="url(#c)"/>
<path d="M 24.49,19.985 V 25 H 26.99 C 27.51,25 28.74,24.96 29.45,25.98 C 29.65,25.1 30.38,23.03 31.81,21.71 A 8.18,8.18 0 0,0 27.21,20.01 H 24.5 Z" fill="url(#d)"/>
<path d="M 27.319999999999997,35.985 H 22.83 A 8.16,8.16 0 0,0 30,28.4 V 27.77 C 30,27.48 30.1,27.09 30.12,26.93 C 31.12,21.29 35.72,19.95 37.89,19.99 H 40 V 20.99 H 42 V 23.99 H 46 V 24.99 H 38.12 C 36.81,24.99 35.98,25.67 35.73,25.99 H 40 V 28.09 C 40,29.33 39.33,29.99 38.1,29.99 H 34.38 C 32.69,34.67 28.98,36.06 27.33,35.99 Z" fill="url(#e)"/>
<path d="M 38.24,35.975 H 31 C 33.52,34.99 34.88,32.29 35.25,31.09 H 38.15 A 3.34,3.34 0 0,0 41.4,27.66 V 26 H 46 V 27.78 C 46,32.31 42.53,35.99 38.25,35.99 Z" fill="url(#f)"/>
<path d="M 41.4,28.515 A 8.36,8.36 0 0,1 34.61,35.99 H 30.97 C 33.52,34.99 34.91,32.29 35.28,31.09 H 38.23 C 39.76,31.09 41.04,30 41.41,28.53 Z" fill="url(#g)"/>
<path d="M 42.99,18.985 H 46 V 22 H 43 Z" fill="rgb(230, 37, 63)"/>
<path d="M 42.99,18.985 H 46 L 43.4,19.38 L 43,22 V 19 Z" fill="rgb(254, 70, 94)"/>
<path d="M 40.99,17.985 H 42 V 19 H 41 Z" fill="rgb(230, 37, 63)"/>
<path d="M 40.99,17.985 H 42 L 41.13,18.13 L 41,19 V 18 Z" fill="rgb(254, 70, 94)"/>
<path d="M 46.99,18.985 H 48 V 20 H 47 Z" fill="rgb(230, 37, 63)"/>
<path d="M 46.99,18.985 H 48 L 47.23,19.23 L 47,20 V 19 Z" fill="rgb(254, 70, 94)"/>
<defs>
<linearGradient id="a" x1="6.34" x2="13.38" y1="22.5" y2="35.8" gradientUnits="userSpaceOnUse">
<stop stop-color="rgb(4, 87, 253)" offset="0"/>
<stop stop-color="rgb(0, 38, 182)" offset="1"/>
</linearGradient>
<linearGradient id="b" x1="19.48" x2="12.85" y1="33.39" y2="32.94" gradientUnits="userSpaceOnUse">
<stop stop-color="rgb(1, 35, 176)" offset="0"/>
<stop stop-color="rgb(3, 78, 240)" offset="1"/>
</linearGradient>
<linearGradient id="c" x1="18.71" x2="29.79" y1="27.49" y2="27.49" gradientUnits="userSpaceOnUse">
<stop stop-color="rgb(4, 85, 250)" offset="0"/>
<stop stop-color="rgb(1, 33, 174)" offset="1"/>
</linearGradient>
<linearGradient id="d" x1="24.58" x2="30.42" y1="21.75" y2="24.37" gradientUnits="userSpaceOnUse">
<stop stop-color="rgb(1, 31, 171)" offset=".07"/>
<stop stop-color="rgb(4, 83, 248)" offset=".56"/>
<stop stop-color="rgb(1, 50, 199)" offset=".91"/>
</linearGradient>
<linearGradient id="e" x1="43.2" x2="26.98" y1="28.51" y2="38.04" gradientUnits="userSpaceOnUse">
<stop stop-color="rgb(1, 34, 176)" offset="0"/>
<stop stop-color="rgb(3, 78, 240)" offset="1"/>
</linearGradient>
<linearGradient id="f" x1="46.65" x2="41.35" y1="32.4" y2="34.46" gradientUnits="userSpaceOnUse">
<stop stop-color="rgb(1, 31, 171)" offset="0"/>
<stop stop-color="rgb(3, 74, 234)" offset="1"/>
</linearGradient>
<linearGradient id="g" x1="31.78" x2="41.09" y1="35.99" y2="31.45" gradientUnits="userSpaceOnUse">
<stop stop-color="rgb(1, 31, 171)" offset="0"/>
<stop stop-color="rgb(3, 78, 241)" offset="1"/>
</linearGradient>
</defs>
</svg>
