<?xml version="1.0" encoding="UTF-8"?>
<!-- generated by Finnhub -->
<svg viewBox="0 0 55.5 55.5" xmlns="http://www.w3.org/2000/svg">
<path d="M 0,0 H 55.5 V 55.5 H 0 Z" fill="url(#a)"/>
<path d="M 10.99,20.985 H 14 V 30.32 A 5.27,5.27 0 0,1 8.42,35 A 6.97,6.97 0 0,1 5,34.04 L 6.54,31.64 C 6.77,31.84 7.46,32.24 8.42,32.24 C 9.62,32.24 11,31.36 11,29.57 V 21 Z M 20.5,21 L 13.87,35 H 16.87 L 17.8,33 H 23.17 L 24.08,35 H 27.13 L 20.5,21 Z M 21.8,30 H 19.19 L 20.5,27.18 L 21.8,30 Z M 28.82,35 L 24,21 H 27.23 L 29.4,27.85 L 32.47,21 L 35.55,27.85 L 37.8,21 H 41 L 36.2,35 L 32.47,27.47 L 28.82,35 Z M 40,32.42 L 42.22,30.84 A 3.15,3.15 0 0,0 44.99,32.28 C 46.99,32.28 48.54,30.76 44.99,29.08 C 41.44,27.38 40.69,26.7 40.69,24.75 C 40.69,22.81 42.59,21 45.36,21 A 4.41,4.41 0 0,1 49.49,23.32 L 47.41,24.75 A 2.44,2.44 0 0,0 45.45,23.63 C 44.15,23.63 43.58,24.41 43.58,24.98 C 43.58,25.51 44.68,25.98 45.58,26.37 L 45.82,26.47 L 45.94,26.52 C 46.99,26.97 50,28.26 50,31.12 C 50,34.1 47.22,35 44.99,35 S 41.07,34.19 40,32.42 Z" fill="rgb(254, 254, 253)"/>
<defs>
<linearGradient id="a" x1="10.42" x2="68.15" y1="9.71" y2="76.02" gradientUnits="userSpaceOnUse">
<stop stop-color="rgb(25, 29, 31)" offset="0"/>
<stop stop-color="rgb(5, 5, 8)" offset="1"/>
</linearGradient>
</defs>
</svg>
