<?xml version="1.0" encoding="UTF-8"?>
<!-- generated by Finnhub -->
<svg viewBox="0 0 55.5 55.5" xmlns="http://www.w3.org/2000/svg">
<path d="M 0,0 H 55.5 V 55.5 H 0 Z" fill="rgb(239, 242, 248)"/>
<path d="M 9.99,28.985 L 7.5,30 C 8.17,31 9.8,33 11,33 C 12.5,33 13.17,32.33 13.5,32 C 13,31.5 12.5,30.5 12.5,30 C 12.33,30.17 11.9,30.5 11.5,30.5 S 10.33,29.5 10,29 Z M 14,21 C 8.8,21 7.17,25.67 7,28 C 7.4,26.4 9.83,24.33 11,23.5 C 9.4,24.7 8.67,27.33 8.5,28.5 C 11.7,27.3 13.5,23 14,21 Z M 17.1,33 C 15.5,33 14,32.13 14,30.38 C 14,28.42 15.9,27.89 17.52,27.73 C 18.03,27.68 20,27.79 20,26.95 V 26.91 C 20,26.06 19.26,25.57 18.24,25.57 C 17.46,25.57 16.63,25.89 16.34,26.67 L 14.3,26.4 C 14.82,24.69 16.57,24 18.23,24 C 20.11,24 22,24.88 22,27 V 33 H 20 V 31.63 C 19.46,32.61 18.17,33 17.1,33 Z M 17.67,31.5 C 18.71,31.5 20,30.85 20,29.7 V 28.67 C 19.52,29.05 18.4,29.02 17.82,29.1 C 17.09,29.19 16,29.45 16,30.35 C 16,31.19 16.95,31.49 17.67,31.49 Z M 47.1,33 C 45.5,33 44,32.13 44,30.38 C 44,28.42 45.9,27.89 47.52,27.73 C 48.03,27.68 50,27.79 50,26.95 V 26.91 C 50,26.06 49.26,25.57 48.24,25.57 C 47.46,25.57 46.63,25.89 46.34,26.67 L 44.3,26.4 C 44.82,24.69 46.57,24 48.23,24 C 50.11,24 52,24.88 52,27 V 33 H 50 V 31.63 C 49.46,32.61 48.17,33 47.1,33 Z M 47.67,31.5 C 48.71,31.5 50,30.85 50,29.7 V 28.67 C 49.52,29.05 48.4,29.02 47.82,29.1 C 47.09,29.19 46,29.45 46,30.35 C 46,31.19 46.95,31.49 47.67,31.49 Z M 38,33 V 24 H 40 V 25.6 H 40.1 C 40.4,24.64 41.24,24 42.26,24 C 42.49,24 42.81,24.02 43,24.06 V 25.98 A 3,3 0 0,0 42.04,25.86 C 40.94,25.86 40,26.67 40,27.78 V 33 H 38 Z M 36,28.31 C 36,28.63 35.98,28.91 35.93,29.16 H 29 C 29.1,30.34 30.3,31.17 31.5,31.17 C 32.34,31.17 33.64,30.7 34,30 H 35.93 C 35.36,31.86 33.43,33 31.54,33 A 4.39,4.39 0 0,1 27,28.5 C 27,25.87 28.92,24 31.54,24 C 34.04,24 36,25.77 36,28.31 Z M 34,27.68 C 33.98,26.52 32.57,25.81 31.48,25.81 C 30.35,25.81 29.16,26.58 29,27.68 H 34 Z M 24,21 H 26 V 33 H 24 Z M 4,21 H 6 V 33 H 4 Z" fill="rgb(4, 113, 56)"/>
</svg>
