<?xml version="1.0" encoding="UTF-8"?>
<!-- generated by Finnhub -->
<svg viewBox="0 0 55.5 55.5" xmlns="http://www.w3.org/2000/svg">
<path d="M 0,0 H 55.5 V 55.5 H 0 Z" fill="rgb(6, 34, 70)"/>
<path d="M 13.99,17.985 L 15,18.94 V 37.06 L 14,38 H 16 V 18 H 14 Z M 17,18 H 19 V 28.61 L 26.46,18.04 H 27.58 L 19,30.23 V 31.12 L 28.24,18.02 H 30.81 L 44,38 H 41.94 L 29.5,19.42 L 29.01,20.12 L 41.02,38 H 39.95 S 32.16,26.29 28.45,20.92 L 19,34.42 V 38 H 17 V 18 Z M 22.73,30.74 L 23.26,29.98 L 28.65,38 H 27.57 L 22.73,30.74 Z M 24.85,27.74 L 23.75,29.3 L 29.57,38 H 31.62 L 24.85,27.73 Z" fill="rgb(251, 253, 251)"/>
</svg>
