<!-- by Finnhub --><svg width="56" height="56" viewBox="0 0 56 56" xmlns="http://www.w3.org/2000/svg"><path fill="#F0F3FA" d="M0 0h56v56H0z"/><path fill-rule="evenodd" d="M39.25 15h-22c-3.7.5-11.13 3.74-11.25 12.78A12.86 12.86 0 0 0 16.32 41h22.93c3.68-.74 10.97-4.42 10.74-13.22-.22-8.8-7.26-12.19-10.74-12.78ZM18.77 39.46A12.9 12.9 0 0 1 11.95 28c0-4.83 2.59-9.04 6.4-11.23-5.93.17-10.7 5.18-10.7 11.34 0 6.27 4.94 11.35 11.02 11.35h.1Zm-.64-11.57c0 5 2.76 9.33 6.8 11.46h-.09c-6.08 0-11.01-5.08-11.01-11.35 0-6.16 4.76-11.18 10.7-11.35-3.82 2.2-6.4 6.4-6.4 11.24ZM31.1 39.46A12.9 12.9 0 0 1 24.3 28c0-4.83 2.58-9.04 6.4-11.23-5.94.17-10.7 5.18-10.7 11.34 0 6.27 4.93 11.35 11.01 11.35h.1Zm3.58-21.84h-.48c-.2-.02-.73.28-1.26 1.6-1.94.87-5.94 4.07-6.45 9.93 0 3.44 3.26 10.9 12.89 9.62.14-.45-.19-1.64-2.59-2.74-.84-.47-2.4-1.66-1.9-2.66.18.57 1.2 1.86 3.99 2.45l.1-2.92c-1.59.3-5.14-.47-6.62-5.97-.26-1.6-.38-4.88 1.19-5.17-.14-1.1-.1-3.47 1.13-4.14Zm.13 2.26c.27-.22.77-.56.7-.18l-.04.14c-.08.37-.12.52.15 1.28.29.84.3 1.28-.25 1.61l-1.17-.51c.3-.44.82-1.52.61-2.34Zm1.4-.18-.29-1.73c.47 1.58 2.5 2.07 3.8 2.38.25.06.48.11.66.17.8.24.88 1.26.8 1.8l-.33.13c.1-.62.04-1.05 0-1.2l-1.23 1.57c.46.81 1.2.86 1.74.89.17.01.31.02.43.05.4.1.23-.84.1-1.31h.4l4.9 3.04c-.98-.24-2.5-.42-2.6.5-.08.73.63.88 1 .86h.81v.36h-1c-.4.28-.72.28-.8-.08a.82.82 0 0 0-.39-.51c-1.3 2.33-3.56 3.09-5.1 1.82-1.23-1.01-1.86-1.3-2.02-1.3a7.38 7.38 0 0 1-2.89 1.12 3.5 3.5 0 0 1-.5-1.13c1.23-.05 2.57-1.2 3.09-1.76-.03-.1-.33-.15-1.29.36-.96.5-1.78.47-2.07.4a7.26 7.26 0 0 1-.17-3.07c.43.23 1.52.7 2.49.7.97 0 1.1-.75 1.04-1.12-.03-.3.01-.94.42-1.17.41-.24.53-.41.54-.47l-1.55-1.3Zm-1.57 9.49c.23.1.95-.07 2.03-1.5.3.05 1.01.36 1.39 1.27.47 1.14.94 2.3.53 2.65-.4.36-2.67-.37-3.95-2.42Zm6.86.85c-.59.64-1.3.62-1.6.52 1.03.72 2.35 1.16 3.28.24a3.1 3.1 0 0 1 1.78-.96l-1.43-.18c-.69-.68-1.29-.42-2.03.38Zm5.94-1.85c.07 1.4-.13 4.32-1.43 4.92l-4.32-.55-.19.34c.3.31.88 1.26.86 2.54-.22-.48-.86-1.68-1.63-2.63l.43-.92c.27 0 1.06.04 2.02.22 1.21.22 2.3.31 2.99-.5.55-.65 1.08-2.55 1.27-3.42Z"/></svg>