<?xml version="1.0" encoding="UTF-8"?>
<!-- generated by Finnhub -->
<svg viewBox="0 0 55.5 55.5" xmlns="http://www.w3.org/2000/svg">
<path d="M0 0h55.5v55.5H0z" fill="rgb(239, 242, 248)"/>
<path d="M14 36h-2.5c-1.03-1-1.5-1.34-3.5-3.01V36H6v-7h2v2.85c.96-.99 2.03-1.91 3.03-2.85h2.74c-1.33 1.1-2.62 2.33-4.06 3.3 1.5 1.13 2.88 2.45 4.29 3.7Z" fill="url(#i)"/>
<path d="M17 34h6l-1.37 2H15v-7h7.98l-1.38 2H17v1h5.6l-1.23 1.5H17v.5Z" fill="url(#h)"/>
<path d="M26 34h5l-1.3 2H24v-7h2v5Z" fill="url(#g)"/>
<path d="M33.7 31.5h3.82c1.61 0 2.48.93 2.48 2.2 0 1.44-.82 2.3-2.84 2.3H31l1.32-2h5c.48 0 .7-.13.7-.5 0-.36-.22-.5-.7-.5h-3.6c-1.7 0-2.48-.62-2.48-1.82 0-1.32.83-2.18 2.84-2.18h5.74l-1.31 1.5h-4.8c-.48 0-.71.14-.71.5s.23.5.7.5Z" fill="url(#f)"/>
<path d="m50 32.5c0-2.43-1.5-3.5-4.5-3.5s-4.5 1.07-4.5 3.5c0 2.42 1.5 3.5 4.5 3.5s4.5-1.08 4.5-3.5zm-4.5 1.5c1.84 0 2.5-0.24 2.5-1.5s-0.66-1.5-2.5-1.5-2.5 0.24-2.5 1.5 0.66 1.5 2.5 1.5z" fill="url(#e)" fill-rule="evenodd"/>
<path d="M6 21h13v7H6z" fill="url(#d)"/>
<path d="M37 21h13v7H37z" fill="url(#c)"/>
<path d="m28 24 5-5H23l5 5Z" fill="url(#b)"/>
<path d="m23 21h-4v7h18v-7h-4l-5 5-5-5z" fill="url(#a)"/>
<defs>
<linearGradient id="i" x1="10" x2="10" y1="29" y2="36" gradientUnits="userSpaceOnUse">
<stop stop-color="rgb(51, 51, 50)" offset="0"/>
<stop stop-color="rgb(129, 129, 128)" offset="1"/>
</linearGradient>
<linearGradient id="h" x1="19" x2="19" y1="29" y2="36" gradientUnits="userSpaceOnUse">
<stop stop-color="rgb(51, 51, 50)" offset="0"/>
<stop stop-color="rgb(129, 129, 128)" offset="1"/>
</linearGradient>
<linearGradient id="g" x1="27.5" x2="27.5" y1="29" y2="36" gradientUnits="userSpaceOnUse">
<stop stop-color="rgb(51, 51, 50)" offset="0"/>
<stop stop-color="rgb(129, 129, 128)" offset="1"/>
</linearGradient>
<linearGradient id="f" x1="35.5" x2="35.5" y1="29" y2="36" gradientUnits="userSpaceOnUse">
<stop stop-color="rgb(51, 51, 50)" offset="0"/>
<stop stop-color="rgb(129, 129, 128)" offset="1"/>
</linearGradient>
<linearGradient id="e" x1="45.5" x2="45.5" y1="29" y2="36" gradientUnits="userSpaceOnUse">
<stop stop-color="rgb(51, 51, 50)" offset="0"/>
<stop stop-color="rgb(129, 129, 128)" offset="1"/>
</linearGradient>
<linearGradient id="d" x1="18.41" x2="9.93" y1="21" y2="29.59" gradientUnits="userSpaceOnUse">
<stop stop-color="rgb(124, 124, 123)" offset="0"/>
<stop stop-color="rgb(22, 22, 21)" offset="1"/>
</linearGradient>
<linearGradient id="c" x1="40.11" x2="41.17" y1="21" y2="28.03" gradientUnits="userSpaceOnUse">
<stop stop-color="rgb(76, 76, 75)" offset="0"/>
<stop stop-color="rgb(29, 29, 28)" offset="1"/>
</linearGradient>
<linearGradient id="b" x1="28" x2="28" y1="19" y2="24" gradientUnits="userSpaceOnUse">
<stop stop-color="rgb(250, 19, 65)" offset="0"/>
<stop stop-color="rgb(183, 12, 36)" offset="1"/>
</linearGradient>
<linearGradient id="a" x1="27.19" x2="28.09" y1="21" y2="27.99" gradientUnits="userSpaceOnUse">
<stop stop-color="rgb(235, 17, 58)" offset="0"/>
<stop stop-color="rgb(90, 8, 18)" offset="1"/>
</linearGradient>
</defs>
</svg>
