<?xml version="1.0" encoding="UTF-8"?>
<!-- generated by Finnhub -->
<svg viewBox="0 0 55.5 55.5" xmlns="http://www.w3.org/2000/svg">
<path d="M 0,0 H 55.5 V 55.5 H 0 Z" fill="rgb(239, 242, 248)"/>
<path d="M 27.389999999999997,16.985 H 28.66 V 15.6 H 30 V 14.37 H 28.66 V 13 H 27.4 V 14.37 H 26 V 15.6 H 27.4 V 17 Z M 35.52,16.38 A 2.23,2.23 0 0,0 33.97,17 A 2.14,2.14 0 0,0 33.49,19.35 A 2.14,2.14 0 0,0 34.69,20.51 A 2.23,2.23 0 0,0 37.55,19.35 A 2.1,2.1 0 0,0 37.08,17 A 2.2,2.2 0 0,0 35.52,16.38 Z M 21,24 H 35 V 21 H 21 V 24 Z M 22.71,18.52 C 22.71,17.34 21.73,16.38 20.54,16.38 A 2.23,2.23 0 0,0 18.98,17 A 2.14,2.14 0 0,0 18.5,19.35 A 2.14,2.14 0 0,0 19.7,20.51 C 19.96,20.61 20.25,20.67 20.54,20.67 C 21.74,20.67 22.71,19.71 22.71,18.52 Z M 28.34,18.52 A 2.1,2.1 0 0,0 28.99,20.05 A 2.2,2.2 0 0,0 30.54,20.67 C 31.76,20.67 32.72,19.71 32.72,18.52 C 32.72,17.34 31.74,16.38 30.54,16.38 A 2.23,2.23 0 0,0 29,17 A 2.14,2.14 0 0,0 28.35,18.52 Z M 25.52,20.67 C 26.1,20.67 26.66,20.44 27.07,20.04 A 2.13,2.13 0 0,0 27.55,17.7 A 2.14,2.14 0 0,0 26.36,16.54 A 2.23,2.23 0 0,0 23.49,17.7 A 2.1,2.1 0 0,0 23.32,18.52 A 2.18,2.18 0 0,0 25.52,20.67 Z M 41.76,26 L 40,31.7 L 38.26,26 H 32 V 36 H 36 V 28.63 L 38.26,36 H 41.76 L 44,28.63 V 36 H 48 V 26 H 41.76 Z M 25,26 H 21 V 36 H 31 V 33 H 25 V 26 Z M 19.6,26 H 15.5 L 12,29.88 V 26 H 8 V 36 H 12 V 32.32 L 15.51,36 H 21 L 15.27,30.69 L 19.6,26 Z" fill="rgb(1, 160, 220)"/>
</svg>
