<?xml version="1.0" encoding="UTF-8"?>
<!-- generated by Finnhub -->
<svg viewBox="0 0 55.5 55.5" xmlns="http://www.w3.org/2000/svg">
<path d="M 0,0 H 55.5 V 55.5 H 0 Z" fill="rgb(239, 242, 248)"/>
<path d="M 8.64,17.985 C 9.89,19.34 13.09,20.79 14.54,21.34 V 21.88 L 12.4,21.08 L 14.95,22.68 L 15.55,23.35 C 14.85,23.04 13.05,22.15 11.39,21.08 A 7.2,7.2 0 0,1 8.65,18 Z M 17.27,22.68 A 5.07,5.07 0 0,1 14.95,21.08 C 15.05,21.54 15.47,22.68 16.32,23.48 C 16.87,24 17.61,24.25 18.26,24.47 C 18.88,24.67 19.42,24.87 19.65,25.22 C 19.95,25.68 19.85,26.48 19.75,27.3 C 19.69,27.78 19.63,28.27 19.65,28.7 C 19.7,29.6 20.62,30.46 21.08,30.77 V 30.23 A 4.1,4.1 0 0,1 20.48,28.03 C 20.51,27.53 20.67,26.89 20.83,26.27 C 21.04,25.42 21.25,24.6 21.08,24.22 C 20.88,23.78 20.06,23.55 19.04,23.25 C 18.49,23.09 17.88,22.91 17.27,22.68 Z M 19.41,25.42 C 16.32,24.32 9.71,21.58 8,19.34 A 7.1,7.1 0 0,0 11.39,23.95 C 13.72,25.29 17.71,26.25 19.41,26.55 V 26.29 C 18.08,26.07 14.91,25.19 12.87,23.49 A 85.9,85.9 0 0,0 19.41,25.75 V 25.42 Z M 9.43,23.48 C 12.33,25.62 17.25,26.6 19.35,26.82 V 27.22 C 18.64,27.22 16.12,26.78 14.95,26.56 C 15.95,27.2 18.3,27.54 19.35,27.63 V 27.96 C 18.9,27.98 17.27,27.86 14.42,27.23 A 7.67,7.67 0 0,1 9.42,23.48 Z M 19.29,28.36 C 17.75,28.38 14.21,28.19 12.39,27.23 C 12.85,27.87 14.13,29.19 15.61,29.3 C 17.08,29.4 18.76,29.34 19.41,29.3 L 19.29,28.9 C 18.59,28.96 17.01,29.02 16.2,28.7 H 19.3 V 28.36 Z M 15.61,29.9 C 16.89,30.27 18.8,29.97 19.59,29.77 L 19.65,30.03 C 19.41,30.25 18.68,30.35 18.35,30.37 C 19.1,30.74 19.61,30.43 19.77,30.23 L 20.07,30.37 C 20.09,30.55 19.83,30.93 18.64,31.04 C 17.45,31.14 16.12,30.32 15.61,29.9 Z M 27,25 H 25 L 24.98,23.95 C 24.98,23.09 23.31,21.36 22.44,20.61 C 23.87,20.55 25.08,21.55 25.5,22 V 22.5 H 26 C 26.26,22.68 26.54,23.19 26.75,23.58 L 27,24 H 27.5 V 23.35 C 27.38,23.28 27.02,23.05 27.02,22.68 C 27.02,22.37 27.32,22.18 27.5,22.07 L 27.58,22.01 V 21.41 C 27.46,21.46 27,21.32 27,21 C 27,20.86 27.13,20.52 27.31,20.07 C 27.54,19.51 27.83,18.77 28.03,18 C 28.23,18.64 28.43,19.24 28.61,19.73 C 28.84,20.38 29,20.85 29,21 C 29,21.21 28.57,21.41 28.41,21.41 V 22.01 H 28.42 C 28.59,22.09 29,22.26 29,22.68 C 29,23.08 28.7,23.23 28.54,23.33 L 28.5,23.35 V 24 H 29 L 30,22.68 H 30.5 V 22.01 A 3.87,3.87 0 0,1 33.56,20.81 C 32.32,20.97 31.34,22.88 31,23.81 V 25 H 29 L 28,26 L 27.02,25 Z M 24.87,23.82 V 24.89 C 24.87,24.47 23.88,23.69 23.26,23.21 L 23,23 C 23.76,23 24.64,23.53 24.88,23.82 Z M 31.17,24.89 V 23.82 C 31.31,23.52 31.94,23 32.99,23 L 32.92,23.06 C 32.39,23.48 31.35,24.32 31.17,24.89 Z M 27,25.5 H 21.5 V 36 C 21.5,39 25.5,41.5 28,42 C 30.5,41.5 34.5,38.5 34.5,36 V 25.5 H 29 L 28,26.5 L 27,25.5 Z M 41.05,21.08 C 40.85,21.38 40.11,22.14 38.73,22.68 C 38.13,22.91 37.51,23.09 36.96,23.25 C 35.94,23.55 35.12,23.78 34.92,24.22 C 34.75,24.6 34.96,25.42 35.17,26.27 C 35.33,26.89 35.49,27.52 35.52,28.03 A 4.1,4.1 0 0,1 34.92,30.23 V 30.77 C 35.38,30.46 36.3,29.61 36.35,28.7 C 36.37,28.27 36.31,27.78 36.25,27.3 C 36.15,26.48 36.05,25.68 36.35,25.22 C 36.58,24.86 37.12,24.68 37.74,24.47 C 38.39,24.25 39.13,24 39.68,23.48 A 5.11,5.11 0 0,0 41.05,21.08 Z M 47.35,18 C 46.11,19.34 42.91,20.79 41.46,21.34 V 21.88 L 43.6,21.08 L 41.05,22.68 L 40.45,23.35 C 41.15,23.04 42.95,22.15 44.61,21.08 A 7.2,7.2 0 0,0 47.35,18 Z M 36.59,25.42 C 39.68,24.32 46.29,21.58 48,19.34 A 7.1,7.1 0 0,1 44.61,23.95 C 42.28,25.29 38.29,26.25 36.59,26.55 V 26.29 C 37.92,26.07 41.09,25.19 43.13,23.49 C 41.3,24.17 37.44,25.59 36.59,25.75 V 25.42 Z M 46.57,23.48 C 43.67,25.62 38.75,26.6 36.65,26.82 V 27.22 C 37.36,27.22 39.88,26.78 41.05,26.56 C 40.05,27.2 37.7,27.54 36.65,27.63 V 27.96 C 37.1,27.98 38.73,27.86 41.58,27.23 A 7.67,7.67 0 0,0 46.58,23.48 Z M 36.71,28.36 C 38.25,28.38 41.79,28.19 43.61,27.23 C 43.15,27.87 41.87,29.19 40.39,29.3 C 38.92,29.4 37.24,29.34 36.59,29.3 L 36.71,28.9 C 37.41,28.96 38.99,29.02 39.8,28.7 H 36.7 V 28.36 Z M 40.39,29.9 C 39.11,30.27 37.2,29.97 36.41,29.77 L 36.35,30.03 C 36.59,30.25 37.32,30.35 37.65,30.37 C 36.9,30.74 36.39,30.43 36.23,30.23 L 35.93,30.37 C 35.91,30.55 36.17,30.93 37.36,31.04 C 38.55,31.14 39.88,30.32 40.39,29.9 Z M 26.5,26 H 22 V 31.43 L 22.36,31.97 L 22,32.39 V 35.62 C 22,38.22 25.84,40.99 28,41.5 C 30.25,40.82 34,38.54 34,35.69 V 32.39 L 33.69,31.97 L 34,31.42 V 26 H 29.5 L 28,27.5 L 26.5,26 Z M 22.23,31.34 V 26.27 H 26.4 L 28,27.88 L 29.6,26.27 H 33.77 V 31.34 L 33.41,31.99 L 33.77,32.49 V 35.69 C 33.77,38.39 30.12,40.67 28,41.32 C 25.98,40.82 22.23,38.1 22.23,35.62 V 32.5 L 22.66,32 L 22.23,31.34 Z M 28,30.5 L 27.5,30.01 H 25.5 V 33.5 L 25,34.03 L 25.5,34.5 V 38 H 27.5 L 28,37.5 L 28.35,38 H 30 L 31,37 V 35 L 30,34.03 L 31,33 V 31.5 L 29.59,30 H 28.5 L 28,30.5 Z M 26.5,33.5 V 31 H 29.5 L 30,31.5 V 33 L 29.5,33.5 H 26.5 Z M 26.5,34.5 V 37 H 29.5 L 30,36.5 V 35 L 29.5,34.5 H 26.5 Z M 23,27 H 26 L 28,29 L 30,27 H 33 V 30.67 L 32,32 L 33,32.53 V 35.4 C 33,37.5 30,39.5 28.5,40 H 27.5 C 26,39.5 23,37.5 23,35.4 V 32.53 L 24,32 L 23,30.87 V 27 Z M 23.5,30.5 V 28.5 L 24.5,29 L 24,27.5 L 26,27.53 L 27.97,29.73 L 30,27.5 H 32 L 31.5,29 L 32.5,28.5 V 30.5 L 31.5,32 L 32.55,32.87 V 35.47 C 32.5,37.5 30,39 28.5,39.47 L 28,38.5 L 27.52,39.47 C 26.16,38.87 23.45,37.5 23.45,35.47 V 32.87 L 24.5,32 L 23.5,30.5 Z" fill="url(#a)" fill-rule="evenodd"/>
<defs>
<linearGradient id="a" x1="28" x2="28" y1="18" y2="42" gradientUnits="userSpaceOnUse">
<stop stop-color="rgb(38, 75, 158)" offset="0"/>
<stop stop-color="rgb(36, 55, 115)" offset="1"/>
</linearGradient>
</defs>
</svg>
