<?xml version="1.0" encoding="UTF-8"?>
<!-- generated by Finnhub -->
<svg viewBox="0 0 55.5 55.5" xmlns="http://www.w3.org/2000/svg">
<path d="M0 0h55.5v55.5H0z" fill="rgb(239, 242, 248)"/>
<path d="M15 30.8v4.83c0 1.21.62 2.34 1.62 2.95l5.35 3.24 5.41-3.5L15 30.8Z" fill="url(#f)"/>
<path d="M41 35.6v-4.96l-13.01-7.88-4.92 3.18 13.11 7.74-8.08 4.86-5.57 3.62 4.04 2.45c.87.52 1.93.52 2.8 0l10-6.06A3.43 3.43 0 0 0 41 35.6Z" fill="url(#e)"/>
<path d="M27.96 20.8h.02l5.44-3.52L27.98 14 15 21.86v6.98l12.94 7.87 5-3L19.9 26l8.06-5.22Z" fill="url(#d)"/>
<path d="m33.98 17.61-5.44 3.53L41 28.69v-6.86l-7.02-4.22Z" fill="url(#c)"/>
<path d="m31 14 10 6.03V16.1a2.1 2.1 0 0 0-2.05-2.1H31Z" fill="url(#b)"/>
<path d="M24.96 14 15 20.03V16.1c0-1.16.9-2.1 2-2.1h7.96Z" fill="url(#a)"/>
<defs>
<linearGradient id="f" x1="7.66" x2="30.46" y1="22.9" y2="45.49" gradientUnits="userSpaceOnUse">
<stop stop-color="rgb(100, 100, 239)" offset=".33"/>
<stop stop-color="rgb(69, 133, 238)" offset=".66"/>
<stop stop-color="rgb(50, 153, 238)" offset="1"/>
</linearGradient>
<linearGradient id="e" x1="13.75" x2="36.55" y1="16.75" y2="39.35" gradientUnits="userSpaceOnUse">
<stop stop-color="rgb(100, 100, 239)" offset=".33"/>
<stop stop-color="rgb(69, 133, 238)" offset=".66"/>
<stop stop-color="rgb(50, 153, 238)" offset="1"/>
</linearGradient>
<linearGradient id="d" x1="16.18" x2="38.98" y1="14.3" y2="36.89" gradientUnits="userSpaceOnUse">
<stop stop-color="rgb(120, 79, 240)" offset="0"/>
<stop stop-color="rgb(100, 100, 239)" offset=".33"/>
<stop stop-color="rgb(69, 133, 238)" offset=".66"/>
<stop stop-color="rgb(50, 153, 238)" offset="1"/>
</linearGradient>
<linearGradient id="c" x1="22.41" x2="45.21" y1="8.01" y2="30.6" gradientUnits="userSpaceOnUse">
<stop stop-color="rgb(100, 100, 239)" offset=".33"/>
<stop stop-color="rgb(69, 133, 238)" offset=".66"/>
<stop stop-color="rgb(50, 153, 238)" offset="1"/>
</linearGradient>
<linearGradient id="b" x1="26.31" x2="49.11" y1="4.08" y2="26.67" gradientUnits="userSpaceOnUse">
<stop stop-color="rgb(100, 100, 239)" offset=".33"/>
<stop stop-color="rgb(69, 133, 238)" offset=".66"/>
</linearGradient>
<linearGradient id="a" x1="16.86" x2="39.66" y1="13.61" y2="36.21" gradientUnits="userSpaceOnUse">
<stop stop-color="rgb(120, 79, 240)" offset="0"/>
<stop stop-color="rgb(100, 100, 239)" offset=".33"/>
</linearGradient>
</defs>
</svg>
