<?xml version="1.0" encoding="UTF-8"?>
<!-- generated by Finnhub -->
<svg viewBox="0 0 55.5 55.5" xmlns="http://www.w3.org/2000/svg">
<path d="M 0,0 H 55.5 V 55.5 H 0 Z" fill="rgb(239, 242, 248)"/>
<path d="M 14.99,17.985 H 19 V 26.64 C 17.35,26.84 15.78,27.29 15,27.56 V 18 Z M 15,30.79 V 38 H 29 V 35 H 19 V 30.22 A 17,17 0 0,0 15,30.79 Z"/>
<path d="M 35.77,17.985 H 26 V 34 H 30 V 21 H 35.36 C 36.8,21 37.97,22.3 37.97,23.8 A 2.7,2.7 0 0,1 36.09,26.41 L 39.61,26.97 A 5.47,5.47 0 0,0 41,23.37 A 5.32,5.32 0 0,0 35.78,18 Z M 41.8,30.72 L 38.37,30.27 C 38.76,30.8 39,31.44 39,32.07 C 39,33.57 37.63,35 36.2,35 H 30 V 38 H 36.49 A 5.63,5.63 0 0,0 42,32.26 C 42,31.72 41.93,31.21 41.8,30.72 Z"/>
<path d="M 24.99,26.585 A 57.49,57.49 0 0,0 4,31.7 C 10.8,30.33 17.82,29.53 25,29.35 V 26.6 Z M 31,29.35 C 38.18,29.53 45.2,30.33 52,31.7 A 57.49,57.49 0 0,0 31,26.6 V 29.35 Z"/>
</svg>
