<?xml version="1.0" encoding="UTF-8"?>
<!-- generated by Finnhub -->
<svg viewBox="0 0 55.5 55.5" xmlns="http://www.w3.org/2000/svg">
<path d="M 0,0 H 55.5 V 55.5 H 0 Z" fill="rgb(239, 242, 248)"/>
<path d="M 22.049999999999997,15.254999999999999 C 21.66,15.11 21.73,15 22.17,15 H 43.68 C 43.85,15 43.99,15.12 43.99,15.26 V 16.93 C 43.99,17.01 43.92,17 43.87,17 H 24.56 A 0.37,0.37 0 0,1 24.36,16.91 C 23.67,16.37 22.9,15.62 22.06,15.27 Z M 29.37,22 C 29.23,21.9 29.07,21.77 28.89,21.75 L 27.15,19.35 C 27.05,19.21 27.15,19 27.31,19 H 43.63 C 43.83,19 44,19.17 43.99,19.37 V 21.75 C 43.99,21.86 43.83,22 43.71,22 H 29.37 Z M 30.86,24 H 43.8 C 43.91,24 44,24.08 44,24.18 V 27.82 C 44,27.92 43.91,28 43.8,28 H 32.41 A 0.21,0.21 0 0,1 32.3,27.97 A 0.19,0.19 0 0,1 32.22,27.89 L 30.68,24.25 C 30.62,24.13 30.73,24 30.86,24 Z M 43.89,30.98 L 33.1,31 A 0.1,0.1 0 0,0 32.99,31.11 V 34.91 C 32.99,34.97 33.05,35.01 33.1,35.01 H 43.9 A 0.1,0.1 0 0,0 44.01,34.89 V 31.09 A 0.1,0.1 0 0,0 43.9,30.99 Z" fill="rgb(216, 61, 58)"/>
<path d="M 21.669999999999998,14.985 H 12.24 C 12.09,15 12,15.07 12,15.2 V 16.78 C 12,16.93 12.1,17 12.25,17 C 15.56,16.92 18.56,16.11 21.7,15.13 C 21.72,15.13 21.73,15.12 21.74,15.1 A 0.07,0.07 0 0,0 21.75,15.05 A 0.07,0.07 0 0,0 21.68,15 Z" fill="url(#b)"/>
<path d="M 26.52,18.515 L 24.96,17.19 A 0.38,0.38 0 0,0 24.52,17.13 A 27.86,27.86 0 0,1 12.22,19.83 C 12.09,19.83 12,19.89 12,20.03 V 22.62 C 12,22.74 12.08,22.8 12.2,22.8 C 17.31,22.86 22.07,21.63 26.48,19.11 C 26.78,18.94 26.79,18.75 26.53,18.53 Z" fill="url(#b)"/>
<path d="M 29.16,21.845 C 29.5,22 29.56,22.32 29.97,22.96 C 30.2,23.3 30.42,23.64 30.51,24 C 30.54,24.13 30.51,24.24 30.38,24.31 L 26.48,26.74 C 21.64,29.09 17.58,29.34 12.32,29.6 C 12.17,29.61 12,29.54 12,29.39 V 26.38 C 12,26.2 12.08,26.11 12.25,26.11 C 16.02,26.11 19.65,25.55 23.15,24.42 L 28.74,21.85 H 29.17 Z" fill="url(#a)"/>
<path d="M 13.57,37.175 C 13.17,37.23 12.65,37.28 12.2,37.23 C 12.08,37.21 12,37.15 12,37.03 V 33.93 C 12,33.56 12.21,33.37 12.59,33.36 C 19.58,33.24 26.25,31.85 32.07,27.98 A 0.23,0.23 0 0,1 32.42,28.13 C 32.46,28.37 32.54,28.64 32.62,28.93 C 32.86,29.86 33.15,30.94 32.44,31.44 C 26.74,35.48 20.35,36.52 13.58,37.19 Z" fill="url(#a)"/>
<path d="M 32.49,40.985 L 33,39 V 35 A 39.51,39.51 0 0,1 15.53,40.86 C 15.37,40.88 15.53,41 15.53,41 H 32.5 Z" fill="url(#c)"/>
<path d="M 32.99,38.985 H 43.7 C 43.86,39 44,39.12 44,39.24 V 40.78 C 44,40.9 43.87,41 43.73,41 H 32.5 L 33,39 Z" fill="rgb(216, 61, 58)"/>
<defs>
<linearGradient id="b" x1="22.66" x2="13.7" y1="15" y2="36.39" gradientUnits="userSpaceOnUse">
<stop stop-color="rgb(179, 179, 188)" offset="0"/>
<stop stop-color="rgb(74, 80, 137)" offset=".51"/>
</linearGradient>
<linearGradient id="a" x1="22.66" x2="13.7" y1="15" y2="36.39" gradientUnits="userSpaceOnUse">
<stop stop-color="rgb(179, 179, 188)" offset="0"/>
<stop stop-color="rgb(74, 80, 137)" offset=".51"/>
<stop stop-color="rgb(82, 84, 142)" offset="1"/>
</linearGradient>
<linearGradient id="c" x1="22.66" x2="13.7" y1="15" y2="36.39" gradientUnits="userSpaceOnUse">
<stop stop-color="rgb(74, 80, 137)" offset=".51"/>
<stop stop-color="rgb(82, 84, 142)" offset="1"/>
</linearGradient>
</defs>
</svg>
