<?xml version="1.0" encoding="UTF-8"?>
<!-- generated by Finnhub -->
<svg viewBox="0 0 55.5 55.5" xmlns="http://www.w3.org/2000/svg">
<path d="M0 0h55.5v55.5H0z" fill="rgb(239, 242, 248)"/>
<path d="M39 24.3c-2.9-1.64-7.35-2.7-12.35-2.7-8.72 0-15.8 3.22-15.8 7.2 0 3.77 6.37 6.87 14.47 7.17-.45.02-.9.03-1.37.03C14.6 36 7 32.42 7 28s7.6-8 16.95-8c6.55 0 12.22 1.75 15.05 4.3Z" fill="rgb(224, 48, 36)"/>
<path d="M17 31.7c2.9 1.64 7.35 2.7 12.35 2.7 8.72 0 15.8-3.22 15.8-7.2 0-3.77-6.37-6.87-14.47-7.17.45-.02.9-.03 1.37-.03C41.4 20 49 23.58 49 28s-7.6 8-16.95 8C25.5 36 19.83 34.25 17 31.7Z" fill="rgb(224, 48, 36)"/>
<path d="M34.5 32H19l4.25-9h6.38L27 29h9l-1.5 3Z"/>
</svg>
