<?xml version="1.0" encoding="UTF-8"?>
<!-- generated by Finnhub -->
<svg viewBox="0 0 55.5 55.5" xmlns="http://www.w3.org/2000/svg">
<path d="M 0,0 H 55.5 V 55.5 H 0 Z" fill="rgb(239, 242, 248)"/>
<path d="M 19.189999999999998,27.985 H 14.65 C 14.07,28 13.61,27.53 13.61,26.96 V 24.04 C 13.61,23.47 14.07,23 14.65,23 H 19.19 C 19.77,23 20.23,23.47 20.23,24.04 V 24.98 C 20.23,25.56 19.77,26 19.19,26 H 14.59 V 26.63 C 14.59,26.83 14.75,27 14.95,27 H 18.9 C 19.04,27 19.17,26.91 19.23,26.77 L 19.28,26.67 L 20.19,27.26 L 20.16,27.34 C 20,27.74 19.62,28 19.19,28 Z M 14.58,25 H 18.9 C 19.1,25 19.26,24.86 19.26,24.65 V 24.37 C 19.26,24.17 19.1,24 18.9,24 H 14.95 C 14.75,24 14.58,24.16 14.58,24.37 V 25 Z M 25.58,37 H 21.04 C 20.46,37 20,36.53 20,35.96 V 33.04 C 20,32.47 20.46,32 21.04,32 H 25.58 C 26.16,32 26.62,32.47 26.62,33.04 V 33.98 C 26.62,34.56 26.16,35 25.58,35 H 20.98 V 35.63 C 20.98,35.83 21.14,36 21.34,36 H 25.29 C 25.43,36 25.56,35.91 25.62,35.77 L 25.67,35.67 L 26.58,36.26 L 26.55,36.34 C 26.39,36.74 26.02,37 25.58,37 Z M 20.98,34 H 25.28 C 25.48,34 25.65,33.86 25.65,33.65 V 33.37 C 25.65,33.17 25.49,33 25.29,33 H 21.34 C 21.14,33 20.97,33.16 20.97,33.37 V 34 Z M 41.39,28 H 37.04 C 36.46,28 36,27.53 36,26.96 V 25.7 C 36,25.12 36.46,24.66 37.04,24.66 H 41.44 V 24.37 C 41.44,24.17 41.29,24 41.09,24 H 37.34 A 0.36,0.36 0 0,0 37,24.23 L 36.95,24.33 L 36.04,23.74 L 36.07,23.66 C 36.22,23.26 36.61,23 37.04,23 H 41.39 C 41.96,23 42.42,23.47 42.42,24.04 V 26.96 C 42.42,27.53 41.96,28 41.39,28 Z M 37.34,25.65 C 37.14,25.65 37,25.82 37,26.03 V 26.63 C 37,26.83 37.14,27 37.34,27 H 41.09 C 41.29,27 41.45,26.84 41.45,26.63 V 26.03 C 41.45,25.83 41.29,25.65 41.09,25.65 H 37.34 Z M 27.62,28 H 22.04 C 21.47,28 21,27.52 21,26.93 V 23.95 C 21,23.37 21.47,23 22.04,23 H 26.64 V 21 H 27.62 V 28 Z M 22.34,24 C 22.14,24 22,24.19 22,24.4 V 26.6 C 22,26.8 22.14,27 22.34,27 H 26.64 V 24.4 C 26.64,24.19 26.49,24 26.29,24 H 22.34 Z M 35,28 H 29.4 C 28.83,28 28.37,27.52 28.37,26.93 V 23.95 C 28.37,23.37 28.83,23 29.4,23 H 34.01 V 21 H 35 V 28 Z M 29.71,24 C 29.51,24 29.38,24.19 29.38,24.4 V 26.6 C 29.38,26.8 29.51,27 29.71,27 H 34.02 V 24.4 C 34.02,24.19 33.86,24 33.66,24 H 29.71 Z M 42,37 H 41 V 33.43 C 41,33.23 40.8,33 40.59,33 H 36.4 C 36.19,33 35.99,33.22 35.99,33.43 V 37 H 34.99 V 30.59 H 35.99 V 32 H 40.89 C 41.49,32 41.99,32.37 41.99,32.96 V 37 Z M 13,28 H 7.08 C 6.48,28 6,27.54 6,26.97 V 22 H 7 V 26.65 C 7,26.85 7.19,27 7.4,27 H 13 V 28 Z M 44,28 H 43 V 24.04 C 43,23.47 43.5,23 44.1,23 H 48.94 C 49.39,23 49.8,23.27 49.97,23.66 L 50,23.74 L 49.03,24.34 L 48.98,24.22 A 0.39,0.39 0 0,0 48.62,24 H 44.42 C 44.21,24 44,24.16 44,24.37 V 28 Z M 17,37 H 16 V 32 H 13.37 V 31 H 19.7 V 32 H 17 V 37 Z M 33.1,37 H 28.56 C 27.99,37 27.52,36.53 27.52,35.96 V 33.04 C 27.52,32.47 27.99,32 28.56,32 H 33.11 C 33.54,32 33.91,32.26 34.08,32.66 L 34.11,32.74 L 33.19,33.34 L 33.14,33.22 A 0.36,0.36 0 0,0 32.81,33 H 28.86 C 28.66,33 28.5,33.16 28.5,33.37 V 35.63 C 28.5,35.83 28.66,36 28.86,36 H 32.81 C 32.96,36 33.09,35.91 33.14,35.78 L 33.19,35.66 L 34.11,36.26 L 34.08,36.34 C 33.92,36.74 33.54,37 33.11,37 Z"/>
</svg>
