<?xml version="1.0" encoding="UTF-8"?>
<!-- generated by Finnhub -->
<svg viewBox="0 0 55.5 55.5" xmlns="http://www.w3.org/2000/svg">
<path d="M 0,0 H 55.5 V 55.5 H 0 Z" fill="url(#a)"/>
<path d="M 41.99,27.985 A 14,14 0 0,1 25.72,41.82 L 35.24,27 H 28.88 L 31.2,14.37 A 14,14 0 0,1 42,28 Z M 30.4,14.2 A 14,14 0 0,0 24.97,41.67 L 27.22,29 H 20.86 L 30.39,14.2 Z M 44,28 A 16,16 0 1,1 12,28 A 16,16 0 0,1 44,28 Z" fill="rgb(254, 254, 253)" fill-rule="evenodd"/>
<defs>
<linearGradient id="a" x1="10.42" x2="68.15" y1="9.71" y2="76.02" gradientUnits="userSpaceOnUse">
<stop stop-color="rgb(25, 29, 31)" offset="0"/>
<stop stop-color="rgb(5, 5, 8)" offset="1"/>
</linearGradient>
</defs>
</svg>
