<?xml version="1.0" encoding="UTF-8"?>
<!-- generated by Finnhub -->
<svg viewBox="0 0 55.5 55.5" xmlns="http://www.w3.org/2000/svg">
<path d="M0 0h55.5v55.5H0z" fill="rgb(239, 242, 248)"/>
<path d="M6 23H4v7c0 1.6 2 2 3 2h4v-1H7c-.8 0-1-.67-1-1v-7ZM14 23h-2v9h2v-8h-1.5l1.5-1ZM18 32h-2v-7.5c0-1.2 1.33-1.5 2-1.5h5v1h-4c-.8 0-1 .67-1 1v2h5v1h-5v4ZM28.5 28H27l1.5-3c.4-.8.17-1 0-1H27c-.5 0-1 .5-1 1.05V31h4v1h-4c-1.6 0-2-1-2-1.5V24c0-.8 1.33-1 2-1h3c2 0 1.83 1.33 1.5 2l-2 3Z" fill="rgb(131, 187, 3)"/>
<path d="M43 24v-1h-7v7c0 1.6 1.33 2 2 2h9.2a2 2 0 0 0 1.82-1.2L52 23h-1.34a1 1 0 0 0-.92.6L47 31h-1v-8h-2v8h-5c-.8 0-1-.67-1-1v-2h5v-1h-5v-3h5Z" fill="rgb(130, 187, 2)"/>
</svg>
