<?xml version="1.0" encoding="UTF-8"?>
<!-- generated by Finnhub -->
<svg viewBox="0 0 55.5 55.5" xmlns="http://www.w3.org/2000/svg">
<path d="M 0,0 H 55.5 V 55.5 H 0 Z" fill="rgb(239, 242, 248)"/>
<path d="M 12.27,32.985 A 5.65,5.65 0 0,1 16.41,28.02 A 4.68,4.68 0 0,0 12.88,29.28 A 5.85,5.85 0 0,0 10.97,33 H 12.28 Z" fill="rgb(48, 38, 129)"/>
<path d="M 10.19,32.955 C 10.23,32.81 10.23,32.94 10.2,32.97 L 4.93,30.44 H 11.27 L 6.79,22.84 L 13.75,28.34 L 14.9,22.42 L 16.38,27.69 C 16.27,27.69 16.48,27.67 16.38,27.69 L 17.47,22 H 6.1 L 4,33 H 10.17 L 10.2,32.97 Z M 19,30.97 H 23.96 V 29.75 H 20.67 V 23 H 19 V 30.97 Z M 26.47,25 C 24.72,25 23.47,26.24 23.47,28.13 C 23.47,29.99 24.74,31 26.37,31 C 27.84,31 29.34,30.15 29.34,28.04 C 29.34,26.29 28.19,25 26.47,25 Z M 26.43,26.13 C 27.43,26.13 27.83,27.17 27.83,28.07 C 27.83,29.24 27.25,30.05 26.42,30.05 C 25.54,30.05 24.98,29.21 24.98,28.1 C 24.98,27.14 25.4,26.13 26.43,26.13 Z M 29.5,31 H 31 V 27.58 C 31,27.41 30.99,27.23 31.04,27.12 C 31.19,26.68 31.6,26.26 32.18,26.26 C 32.98,26.26 33.28,26.89 33.28,27.72 V 31 H 34.75 V 27.55 C 34.75,25.73 33.7,25 32.69,25 C 31.73,25 31.09,25.63 30.84,26.07 H 30.8 L 30.73,25 H 29.46 C 29.48,25.5 29.5,26.26 29.5,26.93 V 31 Z M 40.5,26.87 C 40.5,26.07 40.53,25.39 40.55,25 H 39.28 L 39.22,25.98 H 39.2 A 1.86,1.86 0 0,0 37.52,25 C 36.13,25 34.89,26.23 34.89,28.12 C 34.89,29.75 35.92,30.93 37.35,30.93 C 38.13,30.93 38.71,30.59 39.05,30.08 H 39.07 V 30.58 C 39.07,31.82 38.35,32.32 37.4,32.32 A 3.5,3.5 0 0,1 35.71,31.88 L 35.39,32.98 C 35.89,33.28 36.68,33.5 37.41,33.5 C 38.21,33.5 39.06,33.28 39.65,32.74 C 40.25,32.2 40.51,31.34 40.51,30.13 V 26.87 Z M 39.04,28.45 C 39.04,28.62 39.04,28.82 38.98,28.95 C 38.82,29.49 38.34,29.85 37.79,29.85 C 36.88,29.85 36.38,29.05 36.38,28.07 C 36.38,26.9 36.98,26.19 37.81,26.19 C 38.42,26.19 38.84,26.59 39,27.13 C 39.03,27.25 39.04,27.38 39.04,27.52 V 28.45 Z" fill="rgb(226, 5, 17)"/>
<path d="M 42.99,30.985 V 26 H 44.56 V 31 H 46 V 25 H 43 V 24.67 C 43,23.87 43.1,23.22 44.11,23.22 C 44.66,23.22 45.12,23.39 45.38,23.55 L 45.72,22.39 A 3.31,3.31 0 0,0 44.12,22 C 42.4,22 41.32,23 41.32,24.63 V 25 H 40.53 V 26 H 41.32 V 31 H 43 Z M 46.76,31 H 48 V 27.42 C 48,27.24 48.03,27.05 48.08,26.93 C 48.23,26.47 48.85,26.03 49.43,26.03 C 50.23,26.03 50.53,26.69 50.53,27.57 V 31 H 52 V 27.4 C 52,25.47 50.95,25 49.94,25 C 48.98,25 48.14,25.36 47.87,25.83 H 47.84 L 47.77,25 H 46.7 C 46.72,25.52 46.75,26.03 46.75,26.73 V 31 Z" fill="rgb(48, 38, 129)"/>
</svg>
