<?xml version="1.0" encoding="UTF-8"?>
<!-- generated by Finnhub -->
<svg viewBox="0 0 55.5 55.5" xmlns="http://www.w3.org/2000/svg">
<path d="M 0,0 H 55.5 V 55.5 H 0 Z" fill="rgb(239, 242, 248)"/>
<path d="M 20.79,12.985 H 22.25 C 23.54,13.14 24.67,13.49 25.66,14.05 A 8.21,8.21 0 0,1 30,21.15 V 29.89 C 30,30.03 29.97,30.04 29.9,29.91 A 125.2,125.2 0 0,0 26.26,23.2 C 25.71,22.26 25.46,21.23 25.06,20.23 A 3.7,3.7 0 0,0 18.41,19.63 A 3.56,3.56 0 0,0 19.83,24.6 C 20.83,25.16 21.85,25.2 23,24.75 C 23,24.69 23.05,24.73 23,24.75 V 29.64 A 8.56,8.56 0 0,1 17.49,28.8 A 8.25,8.25 0 0,1 13,21.7 A 8.02,8.02 0 0,1 14.97,15.97 A 8.6,8.6 0 0,1 20.8,13 Z" fill="url(#b)"/>
<path d="M 31.799999999999997,37.115 A 5.65,5.65 0 0,1 30.61,34.81 L 30.49,34.48 A 11.2,11.2 0 0,0 29.58,32.48 C 28.33,30.36 27.18,28.24 26.14,26.13 C 26.04,25.95 26,25.96 26,26.16 C 26.02,29.05 26.02,31.91 26,34.76 C 26,35.42 26.06,36.03 26.2,36.58 A 8.39,8.39 0 0,0 33.73,42.97 C 35.13,43.07 36.63,42.92 37.92,42.33 A 8.36,8.36 0 0,0 42.82,36.5 C 42.92,36.13 42.97,35.7 42.98,35.22 C 43,34.6 43.01,34.17 42.98,33.92 A 8.43,8.43 0 0,0 33,26.37 L 33.01,31.26 A 3.58,3.58 0 0,1 36.48,31.58 C 37.05,31.96 37.48,32.46 37.78,33.08 A 3.64,3.64 0 0,1 34.15,38.2 A 3.75,3.75 0 0,1 31.82,37.14 Z" fill="url(#a)"/>
<path d="M 12.99,38.045 V 28 L 15,30 V 39.32 C 15.07,40.05 15.8,40.87 16.55,41 H 25.74 L 27.74,42.91 C 27.79,42.97 27.78,43 27.7,43 H 17.16 C 16.41,43 15.82,42.92 15.39,42.76 C 13.38,42.03 13,40.47 13,38.06 Z M 43,17.94 V 28 L 41,26 V 16.68 A 2.09,2.09 0 0,0 39.45,15 H 30.26 L 28.26,13.09 C 28.21,13.03 28.22,13 28.3,13 H 38.84 C 39.59,13 40.18,13.08 40.61,13.24 C 42.62,13.97 43,15.53 43,17.94 Z" fill="rgb(32, 59, 101)"/>
<defs>
<linearGradient id="b" x1="13" x2="30" y1="20.04" y2="20.61" gradientUnits="userSpaceOnUse">
<stop stop-color="rgb(87, 180, 167)" offset="0"/>
<stop stop-color="rgb(99, 190, 218)" offset="1"/>
</linearGradient>
<linearGradient id="a" x1="26" x2="41.82" y1="33.2" y2="35.59" gradientUnits="userSpaceOnUse">
<stop stop-color="rgb(31, 92, 154)" offset="0"/>
<stop stop-color="rgb(84, 176, 226)" offset="1"/>
</linearGradient>
</defs>
</svg>
