<?xml version="1.0" encoding="UTF-8"?>
<!-- generated by Finnhub -->
<svg viewBox="0 0 55.5 55.5" xmlns="http://www.w3.org/2000/svg">
<path d="M 0,0 H 55.5 V 55.5 H 0 Z" fill="rgb(239, 242, 248)"/>
<path d="M 6.5200000000000005,27.105 L 27.43,13.2 C 27.82,12.93 28.33,12.93 28.73,13.2 L 49.47,27.12 C 50.17,27.59 50.17,28.64 49.47,29.11 L 28.72,42.8 C 28.32,43.05 27.82,43.05 27.43,42.8 L 6.53,29.1 A 1.2,1.2 0 0,1 6.53,27.1 Z" fill="url(#a)"/>
<path d="M 23.72,31.115 L 21.9,31.16 A 0.5,0.5 0 0,1 21.54,31.01 C 21.45,30.92 21.42,30.8 21.45,30.64 C 21.45,30.61 21.47,30.59 21.49,30.57 A 0.12,0.12 0 0,1 21.57,30.54 H 28.97 C 29.13,30.54 29.21,30.64 29.2,30.8 V 30.92 C 29.18,31.08 29.1,31.16 28.94,31.15 L 27.69,31.12 A 0.23,0.23 0 0,0 27.47,31.26 A 0.23,0.23 0 0,0 27.45,31.36 C 27.42,35.05 24.33,37.05 20.93,37 A 7.14,7.14 0 0,1 15.98,35.04 A 8.29,8.29 0 0,1 13.59,31.38 A 9.52,9.52 0 0,1 15.14,22.54 C 17.16,19.83 19.87,18.92 23.27,19.82 C 23.8,19.96 24.3,20.28 24.75,20.58 C 25.04,20.77 25.27,20.72 25.46,20.43 C 25.73,20.01 26.06,19.78 26.43,19.73 A 0.13,0.13 0 0,1 26.56,19.8 L 26.57,19.85 C 26.6,21.35 26.59,22.87 26.57,24.4 C 26.57,24.57 26.43,24.6 26.15,24.51 A 0.45,0.45 0 0,1 25.85,24.19 C 25.42,22.46 24.08,21.93 22.34,21.46 C 20.46,20.95 18.22,21.56 17.42,23.46 A 8.37,8.37 0 0,0 16.77,26.62 V 29.55 C 16.77,32.02 17.25,34.63 20.12,35.05 A 3.93,3.93 0 0,0 22.89,34.49 C 24.03,33.76 24.07,32.57 23.94,31.32 C 23.93,31.19 23.86,31.13 23.74,31.13 Z" fill="rgb(50, 88, 133)"/>
<path d="M 28.95,30.535 L 21.56,30.54 A 0.12,0.12 0 0,0 21.46,30.64 C 21.42,30.8 21.46,30.92 21.54,31.01 L 21.57,31.04 A 0.5,0.5 0 0,0 21.9,31.16 L 23.73,31.13 H 23.78 C 23.88,31.15 23.93,31.21 23.94,31.32 C 24.07,32.57 24.03,33.76 22.89,34.49 C 22.09,35.01 21.16,35.19 20.12,35.04 C 17.25,34.64 16.78,32.02 16.77,29.55 V 26.62 C 16.79,25.49 17.01,24.43 17.42,23.45 C 18.22,21.56 20.46,20.95 22.34,21.45 C 24.08,21.93 25.42,22.46 25.85,24.19 A 0.45,0.45 0 0,0 26.15,24.51 C 26.43,24.61 26.57,24.57 26.57,24.4 A 140.68,140.68 0 0,0 26.56,19.8 A 0.12,0.12 0 0,0 26.48,19.73 H 26.43 A 1.13,1.13 0 0,0 25.99,19.89 C 25.79,20.01 25.62,20.19 25.46,20.43 C 25.27,20.72 25.04,20.77 24.75,20.58 C 24.3,20.28 23.8,19.96 23.27,19.82 C 19.87,18.92 17.16,19.82 15.14,22.54 A 9.52,9.52 0 0,0 13.59,31.38 A 8.29,8.29 0 0,0 15.98,35.04 A 7.14,7.14 0 0,0 20.93,37 C 24.33,37.05 27.42,35.05 27.45,31.35 A 0.23,0.23 0 0,1 27.6,31.15 V 31.14 A 0.23,0.23 0 0,1 27.69,31.12 L 28.94,31.15 C 29.1,31.15 29.18,31.08 29.19,30.92 L 29.2,30.8 C 29.21,30.63 29.13,30.55 28.96,30.55 Z M 28.96,31.15 Z M 26.89,31.14 H 24.5 L 24.53,31.26 C 24.66,32.52 24.66,34.06 23.21,34.99 C 22.27,35.59 21.21,35.79 20.04,35.63 A 3.94,3.94 0 0,1 16.84,33.33 A 9.04,9.04 0 0,1 16.18,29.55 V 26.61 C 16.2,25.41 16.43,24.27 16.88,23.22 C 17.83,20.96 20.44,20.32 22.49,20.89 C 23.36,21.12 24.22,21.39 24.91,21.86 C 25.35,22.16 25.71,22.52 26,22.99 V 20.69 L 25.95,20.76 A 1.1,1.1 0 0,1 25.26,21.26 A 1.1,1.1 0 0,1 24.43,21.07 C 23.97,20.77 23.55,20.51 23.12,20.4 A 7.3,7.3 0 0,0 18.87,20.39 A 6.74,6.74 0 0,0 15.61,22.89 A 8.93,8.93 0 0,0 14.16,31.2 A 7.7,7.7 0 0,0 16.38,34.6 A 6.55,6.55 0 0,0 20.94,36.4 A 6.52,6.52 0 0,0 25.09,35.11 A 4.7,4.7 0 0,0 26.87,31.35 C 26.87,31.28 26.87,31.21 26.89,31.14 Z M 26.41,23.97 Z" fill="rgb(254, 254, 253)" fill-rule="evenodd"/>
<path d="M 41.580000000000005,20.645 L 42.39,19.82 A 0.36,0.36 0 0,1 43.01,20.08 V 24.15 C 43.01,24.28 42.96,24.39 42.86,24.46 A 0.4,0.4 0 0,1 42.43,24.51 A 0.28,0.28 0 0,1 42.26,24.31 C 42,23.27 41.82,23.81 41.59,23.5 A 4.8,4.8 0 0,0 36.84,21.32 C 33.22,21.76 33.28,26.43 33.35,29.26 C 33.41,31.86 34.28,34.82 37.32,34.96 C 40.06,35.1 41.69,34.3 42.42,32.04 A 0.59,0.59 0 0,1 42.75,31.64 C 42.89,31.59 43.01,31.61 43.13,31.72 C 43.18,31.77 43.2,31.83 43.2,31.9 L 43.19,36.52 A 0.29,0.29 0 0,1 43.03,36.78 A 0.28,0.28 0 0,1 42.73,36.75 A 3.62,3.62 0 0,1 41.87,35.77 A 0.28,0.28 0 0,0 41.47,35.7 A 6.82,6.82 0 0,1 33.35,35.6 A 9.6,9.6 0 0,1 29.68,28.7 C 29.33,24.53 32.64,19.9 36.84,19.52 C 38.54,19.36 40.04,19.75 41.31,20.68 C 41.36,20.71 41.41,20.72 41.46,20.72 C 41.51,20.72 41.56,20.69 41.59,20.66 Z" fill="rgb(50, 88, 133)"/>
<path d="M 41.99,21.055 A 0.8,0.8 0 0,1 40.98,21.17 H 40.97 A 5.77,5.77 0 0,0 36.89,20.11 A 7.08,7.08 0 0,0 32.02,23.05 A 8.36,8.36 0 0,0 30.27,28.65 A 9,9 0 0,0 33.71,35.13 A 6.24,6.24 0 0,0 41.13,35.22 A 0.87,0.87 0 0,1 42.13,35.2 C 42.23,35.27 42.31,35.36 42.37,35.46 C 42.44,35.58 42.52,35.69 42.6,35.79 L 42.61,33.12 C 42.21,33.92 41.65,34.52 40.91,34.92 C 39.93,35.46 38.71,35.62 37.29,35.56 C 35.54,35.47 34.39,34.56 33.71,33.32 C 33.04,32.12 32.8,30.62 32.76,29.28 A 18.3,18.3 0 0,1 33.15,24.24 C 33.38,23.39 33.75,22.58 34.33,21.94 C 34.93,21.29 35.73,20.85 36.77,20.73 C 37.84,20.6 38.84,20.73 39.74,21.14 C 40.6,21.54 41.35,22.18 41.99,23.04 L 42.09,23.06 A 0.8,0.8 0 0,1 42.42,23.26 V 20.65 L 42.01,21.08 Z M 43.01,20.08 A 0.37,0.37 0 0,0 42.79,19.74 A 0.36,0.36 0 0,0 42.39,19.82 L 41.59,20.66 A 0.2,0.2 0 0,1 41.31,20.68 A 6.35,6.35 0 0,0 36.84,19.52 C 32.64,19.9 29.34,24.52 29.68,28.7 A 9.6,9.6 0 0,0 33.35,35.6 A 6.82,6.82 0 0,0 41.58,35.65 A 0.28,0.28 0 0,1 41.88,35.77 C 42.12,36.17 42.4,36.49 42.73,36.75 A 0.29,0.29 0 0,0 43.03,36.78 A 0.28,0.28 0 0,0 43.19,36.52 L 43.2,31.9 A 0.23,0.23 0 0,0 43.13,31.72 C 43.01,31.62 42.89,31.59 42.75,31.65 A 0.58,0.58 0 0,0 42.41,32.05 C 41.69,34.3 40.06,35.1 37.32,34.96 C 34.28,34.82 33.42,31.86 33.35,29.26 C 33.28,26.43 33.22,21.76 36.84,21.32 A 4.8,4.8 0 0,1 41.59,23.5 C 41.67,23.6 41.74,23.61 41.82,23.62 C 41.95,23.62 42.09,23.63 42.26,24.32 C 42.29,24.41 42.34,24.48 42.43,24.52 C 42.58,24.58 42.73,24.56 42.86,24.46 C 42.96,24.39 43.01,24.28 43.01,24.15 V 20.08 Z" fill="rgb(254, 254, 253)" fill-rule="evenodd"/>
<defs>
<linearGradient id="a" x1="28" x2="28" y1="13" y2="43" gradientUnits="userSpaceOnUse">
<stop stop-color="rgb(214, 216, 218)" offset="0"/>
<stop stop-color="rgb(127, 129, 128)" offset=".31"/>
<stop stop-color="rgb(86, 88, 87)" offset=".54"/>
</linearGradient>
</defs>
</svg>
