<?xml version="1.0" encoding="UTF-8"?>
<!-- generated by Finnhub -->
<svg viewBox="0 0 55.5 55.5" xmlns="http://www.w3.org/2000/svg">
<path d="M 0,0 H 55.5 V 55.5 H 0 Z" fill="rgb(128, 83, 243)"/>
<path d="M 27.889999999999997,24.985 C 25.7,25 26,28.58 26,30 C 26,31.34 26.17,34.6 28,35 C 29.79,35.12 30,31 30,29.5 S 30.2,25.01 27.9,25 Z M 28,20 C 22.16,20 20,25 20,30 C 20.18,33.71 21.36,37.34 24.27,39.71 A 5.52,5.52 0 0,0 27,37.5 C 24.3,35.5 23.98,32.68 24,29.5 C 24.02,26.32 24.86,23 28,23 C 30.97,23.04 32.04,26.26 32,28.67 C 31.96,31.32 31.03,33.75 30.04,36.2 C 33.94,37.36 36,30.94 36,28.3 C 35.94,23.8 32.58,20.04 28,20 Z M 26.64,41.23 C 27.86,41.87 29.04,42 30.4,42 C 37.13,42 41.72,35.37 42,29.1 C 42,21.09 36.7,14.18 28.3,14 H 28 A 13.98,13.98 0 0,0 14,27.9 C 13.9,32.4 16.11,39.87 21.79,40.05 C 19.18,37.4 18,33.5 18,30 C 18,23.5 21.02,18 28,18 C 33.6,18 38,22.75 38,28.27 C 38,32.94 35.16,38.23 30,38.23 C 29.7,38.23 29.4,38.2 29.09,38.17 C 28.34,39.25 27.66,40.37 26.64,41.23 Z M 30.39,44 C 28.09,44 25.86,43.04 23.91,41.84 C 23.39,41.94 22.88,42 22.36,42 C 15.22,42 11.87,33.86 12,27.86 A 16,16 0 0,1 28.35,12 C 37.35,12.2 44.02,19.73 44,28.5 C 43.98,36.02 38.46,43.99 30.39,44 Z" fill="rgb(254, 254, 253)"/>
</svg>
