<?xml version="1.0" encoding="UTF-8"?>
<!-- generated by Finnhub -->
<svg viewBox="0 0 55.5 55.5" xmlns="http://www.w3.org/2000/svg">
<path d="M 0,0 H 55.5 V 55.5 H 0 Z" fill="rgb(239, 242, 248)"/>
<path d="M 29.08,30.985 A 202.1,202.1 0 0,0 31.31,26.81 C 32.73,24 31.68,20.64 30.63,18.41 A 30.17,30.17 0 0,0 28.13,14.18 L 28,14 L 27.88,14.18 C 27.48,14.73 26.24,16.54 25.37,18.4 C 24.32,20.64 23.27,24 24.69,26.81 C 24.84,27.14 25.89,29.1 26.91,31 H 29.09 Z M 31.31,31 L 33.01,27.6 A 4.62,4.62 0 0,1 37.14,25 H 48 L 46.3,28.4 A 4.62,4.62 0 0,1 42.17,31 H 31.31 Z M 31.31,33 H 35 A 2.8,2.8 0 0,1 37.44,34.3 L 38.45,36 H 34.75 A 2.81,2.81 0 0,1 32.3,34.7 L 31.3,33 Z M 26.71,33 H 29.28 C 29.43,33.27 29.7,33.76 29.9,34.16 C 30.68,35.81 30.24,36.96 29.63,38.56 L 29.5,38.89 C 29.25,39.54 28.34,41.34 28.07,41.86 L 28,42 L 27.93,41.86 A 49.12,49.12 0 0,1 26.5,38.89 L 26.37,38.54 C 25.76,36.95 25.32,35.8 26.1,34.16 C 26.3,33.76 26.57,33.26 26.72,33 Z M 18.86,25 H 8 L 9.7,28.4 A 4.62,4.62 0 0,0 13.83,31 H 24.69 L 23,27.6 A 4.62,4.62 0 0,0 18.87,25 Z M 17.54,36 L 18.54,34.3 A 2.8,2.8 0 0,1 20.98,33 H 24.69 L 23.69,34.7 A 2.81,2.81 0 0,1 21.25,36 H 17.54 Z"/>
</svg>
