<?xml version="1.0" encoding="UTF-8"?>
<!-- generated by Finnhub -->
<svg viewBox="0 0 55.5 55.5" xmlns="http://www.w3.org/2000/svg">
<path d="M 0,0 H 55.5 V 55.5 H 0 Z" fill="rgb(239, 242, 248)"/>
<path d="M 45.89,26.075 C 45.88,25.59 45.79,25.08 45.63,24.59 A 2.59,2.59 0 0,0 44.77,23.28 C 44.57,23.11 44.33,22.99 44.07,22.94 A 3.53,3.53 0 0,0 43.3,22.94 C 42.8,23 42.32,23.15 41.87,23.37 C 41.42,23.57 40.99,23.8 40.57,24.05 A 27,27 0 0,0 37.14,26.52 C 36.04,25.83 34.96,25.09 33.88,24.37 A 98.44,98.44 0 0,0 28.96,21.13 L 26.66,19.78 C 19,14.88 12.01,13.2 10.07,24.4 C 10.07,24.4 9.91,25.17 10.07,24.63 A 16.2,16.2 0 0,1 14,20.18 C 13.68,20.78 13.42,21.4 13.23,22.05 C 12.93,23.05 12.73,24.09 12.62,25.15 A 29.21,29.21 0 0,0 12.62,28.24 V 31.3 C 12.69,32.34 12.82,33.36 13.03,34.37 C 13.23,35.37 13.56,36.33 14,37.24 A 5.35,5.35 0 0,0 15.5,39.16 C 15.71,39.32 15.94,39.46 16.18,39.59 C 16.68,39.82 17.2,39.95 17.73,39.99 C 18.25,40.02 18.77,39.99 19.28,39.9 C 20.25,39.67 21.18,39.29 22.04,38.79 C 23.75,37.81 25.38,36.69 26.91,35.43 C 29.98,32.93 32.88,30.24 35.87,27.73 L 36.59,27.13 C 37.19,27.49 37.78,27.83 38.39,28.15 A 23,23 0 0,0 42.56,29.95 A 4,4 0 0,0 44.11,29.95 C 44.38,29.93 44.64,29.85 44.88,29.7 C 45.13,29.56 45.33,29.35 45.46,29.1 C 45.74,28.64 45.92,28.12 45.96,27.58 C 46.01,27.06 46.01,26.55 45.96,26.03 L 45.9,26.09 Z M 36.48,27.03 L 35.87,27.53 C 32.85,30.07 29.92,32.71 26.8,35.06 A 28.2,28.2 0 0,1 24.4,36.75 C 23.6,37.3 22.75,37.79 21.88,38.21 C 21,38.64 20.07,38.95 19.11,39.13 C 18.66,39.19 18.21,39.19 17.76,39.13 A 3.55,3.55 0 0,1 16.54,38.76 A 4.11,4.11 0 0,1 14.86,36.75 A 11.2,11.2 0 0,1 14.08,33.88 C 13.8,31.98 13.68,30.07 13.75,28.15 C 13.75,26.21 14.03,24.28 14.58,22.42 C 14.84,21.56 15.25,20.75 15.8,20.04 A 3.9,3.9 0 0,1 17.87,18.75 A 6.09,6.09 0 0,1 20.47,18.75 C 21.41,18.91 22.34,19.16 23.23,19.5 C 24.09,19.84 24.95,20.21 25.78,20.64 L 28.54,22.04 C 30.23,22.99 31.89,24.03 33.54,25.06 C 34.49,25.63 35.4,26.23 36.31,26.78 L 36.61,26.95 L 36.48,27.03 Z M 45.52,27.61 C 45.47,28.07 45.32,28.51 45.07,28.9 A 1.51,1.51 0 0,1 44.02,29.53 C 43.57,29.57 43.11,29.52 42.67,29.38 C 42.22,29.24 41.77,29.07 41.34,28.87 C 40.47,28.47 39.62,28.03 38.8,27.52 L 37.3,26.6 L 38.27,25.86 C 39.04,25.26 39.84,24.7 40.67,24.2 C 41.09,23.94 41.53,23.72 41.97,23.54 C 42.41,23.34 42.87,23.21 43.33,23.17 C 43.78,23.12 44.23,23.24 44.6,23.51 C 44.95,23.82 45.2,24.23 45.32,24.68 C 45.45,25.16 45.53,25.65 45.57,26.15 V 26.86 C 45.57,27.11 45.55,27.36 45.52,27.61 Z"/>
</svg>
