<?xml version="1.0" encoding="UTF-8"?>
<!-- generated by Finnhub -->
<svg viewBox="0 0 55.5 55.5" xmlns="http://www.w3.org/2000/svg">
<path d="M 0,0 H 55.5 V 55.5 H 0 Z" fill="rgb(239, 242, 248)"/>
<path d="M 35.120000000000005,27.025 A 53.34,53.34 0 0,0 38.93,34.33 A 50.49,50.49 0 0,0 41.9,28.42 A 53.3,53.3 0 0,0 35.13,27.04 Z M 38.47,16.27 A 52.75,52.75 0 0,0 31.75,15.32 A 53.8,53.8 0 0,0 34.89,26.6 A 63.88,63.88 0 0,0 38.47,16.27 Z M 38.76,16.33 C 39.42,20.36 40.42,24.33 42.04,28.08 C 43.36,24.88 44.37,21.48 45,18.08 A 53.57,53.57 0 0,0 38.76,16.33 Z" fill="rgb(62, 173, 40)"/>
<path d="M 28.319999999999997,38.615 A 63.3,63.3 0 0,0 32.23,43.35 A 51.29,51.29 0 0,0 35.56,39.47 A 33.3,33.3 0 0,0 28.33,38.63 Z M 31.5,33.2 A 43.46,43.46 0 0,0 24.76,33.2 A 63.16,63.16 0 0,0 28.13,38.36 A 62.98,62.98 0 0,0 31.5,33.2 Z M 31.91,33.22 A 66.2,66.2 0 0,0 35.78,39.18 A 51.04,51.04 0 0,0 38.98,34.44 A 42.6,42.6 0 0,0 31.91,33.22 Z M 24.56,32.91 A 65.55,65.55 0 0,0 27.9,26.36 C 25.71,26.36 23.51,26.51 21.35,26.78 C 22.29,28.88 23.39,30.92 24.55,32.91 Z M 31.7,32.91 A 62.22,62.22 0 0,0 34.91,26.78 A 53.85,53.85 0 0,0 28.36,26.36 A 65.26,65.26 0 0,0 31.7,32.91 Z M 17.54,16.08 C 18.34,19.57 19.68,23.12 21.12,26.41 A 53.74,53.74 0 0,0 24.26,15.14 C 22.03,15.3 19.73,15.64 17.54,16.08 Z M 24.55,15.12 A 67.07,67.07 0 0,0 28.13,25.96 A 66.94,66.94 0 0,0 31.71,15.12 A 55.4,55.4 0 0,0 24.55,15.12 Z" fill="rgb(1, 147, 128)"/>
<path d="M 24.36,43.415 A 51.72,51.72 0 0,0 28.23,47 A 51.83,51.83 0 0,0 32.1,43.43 A 27.85,27.85 0 0,0 24.37,43.43 Z M 20.75,39.3 A 51.18,51.18 0 0,0 24.1,43.15 C 25.48,41.66 26.8,40.09 28.03,38.47 C 25.57,38.49 23.13,38.77 20.75,39.3 Z M 24.42,33.1 C 22,33.31 19.63,33.72 17.29,34.32 C 18.28,35.93 19.36,37.52 20.53,39.02 A 65.46,65.46 0 0,0 24.43,33.11 Z M 14.12,28.15 C 14.98,30.15 15.98,32.12 17.1,34 A 52.51,52.51 0 0,0 20.93,26.8 C 18.63,27.1 16.35,27.56 14.12,28.15 Z M 11,17.92 A 49.47,49.47 0 0,0 14,27.82 A 48.7,48.7 0 0,0 17.28,16.19 A 50.23,50.23 0 0,0 11,17.92 Z" fill="rgb(1, 100, 158)"/>
</svg>
