<?xml version="1.0" encoding="UTF-8"?>
<!-- generated by Finnhub -->
<svg viewBox="0 0 55.5 55.5" xmlns="http://www.w3.org/2000/svg">
<path d="M 0,0 H 55.5 V 55.5 H 0 Z" fill="rgb(239, 242, 248)"/>
<path d="M 27.049999999999997,17.865 A 2.44,2.44 0 0,0 26.89,19.9 C 26.94,20.05 27.05,20.11 27.19,20.1 C 28.42,19.97 29.33,20.48 29.93,21.61 A 0.2,0.2 0 0,1 29.65,21.89 L 28.93,21.51 A 0.2,0.2 0 0,0 28.65,21.61 L 28.48,22.01 A 0.43,0.43 0 0,1 27.66,21.9 C 27.58,21.14 27.22,20.63 26.59,20.36 A 0.49,0.49 0 0,1 26.32,20.07 A 1.66,1.66 0 0,0 24.99,18.88 C 20.78,17.95 20.77,13.88 22.87,10.88 C 22.97,10.75 22.97,10.62 22.87,10.48 A 0.36,0.36 0 0,0 22.68,10.36 A 3.4,3.4 0 0,1 25.04,10.11 C 25.29,10.17 25.3,10.25 25.06,10.34 L 23.58,10.94 A 0.7,0.7 0 0,0 23.27,11.19 C 21.99,13.09 21.55,16.09 23.51,17.69 C 24.55,18.53 25.73,18.59 27.06,17.88 Z" fill="rgb(92, 62, 37)"/>
<path d="M 22.669999999999998,10.344999999999999 C 22.76,10.38 22.82,10.43 22.87,10.49 C 22.97,10.62 22.97,10.75 22.87,10.88 C 20.77,13.88 20.77,17.95 24.99,18.88 C 25.72,19.04 26.09,19.43 26.32,20.08 C 26.37,20.21 26.46,20.3 26.59,20.36 C 27.22,20.63 27.58,21.14 27.66,21.9 A 0.43,0.43 0 0,0 28.02,22.27 A 0.43,0.43 0 0,0 28.48,22.02 L 28.65,21.62 A 0.2,0.2 0 0,1 28.93,21.52 L 29.65,21.89 A 0.2,0.2 0 0,0 29.95,21.74 A 0.2,0.2 0 0,0 29.93,21.61 C 29.33,20.48 28.42,19.97 27.2,20.1 C 27.05,20.11 26.94,20.05 26.89,19.9 A 2.44,2.44 0 0,1 27.06,17.88 L 29.28,16.88 L 31.45,17.19 C 31.62,17.21 31.79,17.26 31.95,17.33 C 32.55,17.61 33.2,17.7 33.88,17.61 C 34.07,17.58 34.26,17.63 34.43,17.74 C 35.19,18.24 35.68,18.94 35.88,19.88 C 35.9,19.98 35.88,20.06 35.81,20.14 L 34.73,21.2 A 0.27,0.27 0 0,0 34.93,21.67 C 35.63,21.65 36,21.95 36.08,22.57 A 0.86,0.86 0 0,1 35.58,23.45 L 34.68,23.85 C 34.45,23.97 34.45,24.07 34.7,24.17 C 35.17,24.37 35.64,24.34 36.08,24.11 A 0.36,0.36 0 0,1 36.46,24.13 C 36.83,24.38 37.23,24.43 37.66,24.29 C 37.53,24.23 37.57,24.29 37.81,24.45 C 36.86,24.87 36.44,25.35 36.54,25.91 C 36.64,26.46 37.06,26.73 37.79,26.71 C 38.03,27.53 37.99,27.97 37.65,28.04 A 9.14,9.14 0 0,1 31.94,29.69 C 31.34,29.65 29.53,28.84 30.01,27.89 A 0.2,0.2 0 0,1 30.35,27.84 C 30.61,28.12 30.91,28.36 31.25,28.55 C 31.49,28.69 31.53,28.65 31.35,28.42 L 30.5,27.3 A 0.27,0.27 0 0,1 30.44,27.15 C 30.44,27.1 30.44,27.04 30.47,26.99 L 31.68,24.81 A 0.26,0.26 0 0,1 31.81,24.7 L 32.65,24.35 A 0.2,0.2 0 0,0 32.77,24.17 A 0.2,0.2 0 0,0 32.67,23.98 C 31.5,23.4 30.88,25.21 30.44,26.25 A 0.6,0.6 0 0,1 30.17,26.55 C 27.58,27.99 30.81,30.44 32.81,30.08 C 34.01,29.86 35.21,29.66 36.43,29.49 C 37.05,31.15 37,33.04 36.29,35.15 C 35.65,35.93 35.02,36.74 34.41,37.57 C 33.21,39.19 33.39,41.3 33.89,43.11 A 0.38,0.38 0 0,1 33.6,43.58 L 32.43,43.84 C 32.27,43.87 32.19,43.81 32.22,43.64 C 32.42,42.12 31.95,40.84 30.82,39.84 A 0.7,0.7 0 0,1 30.59,39.44 C 30.39,38.33 30.29,37.1 29.4,36.76 C 29.17,36.67 29.13,36.72 29.29,36.92 L 29.88,37.62 A 0.33,0.33 0 0,1 29.67,38.16 C 27.67,38.44 25.86,38.29 25.11,40.64 C 25.15,40.64 25.08,40.71 24.91,40.81 C 24.18,40.42 23.59,40.62 23.13,41.41 C 23.02,41.61 22.88,41.62 22.71,41.46 L 22.27,41.02 C 22.17,40.92 22.17,40.81 22.26,40.7 C 23.15,39.54 23.36,38.68 23.95,37.42 A 1.27,1.27 0 0,1 24.91,36.69 L 26.76,36.39 A 0.42,0.42 0 0,0 26.95,35.69 A 0.42,0.42 0 0,0 26.67,35.58 A 5.92,5.92 0 0,0 23.35,36.78 A 0.6,0.6 0 0,0 23.11,37.15 A 7.64,7.64 0 0,1 21.08,41.08 C 20.98,41.18 20.91,41.33 20.9,41.48 L 20.78,43.28 L 18.62,43.32 A 6.24,6.24 0 0,1 19.62,40.02 A 0.23,0.23 0 0,0 19.32,39.67 C 18.82,39.9 18.32,39.92 17.84,39.75 A 0.75,0.75 0 0,0 17.38,39.74 A 5.6,5.6 0 0,0 14.53,41.54 C 13.88,41.51 13.63,41.22 13.8,40.66 L 15.74,37.24 C 15.81,37.11 15.86,36.97 15.89,36.82 L 16.51,33.11 C 16.57,32.75 16.41,32.57 16.05,32.57 C 14.41,32.57 14.78,31.05 14.33,30 A 0.44,0.44 0 0,1 14.37,29.57 L 14.94,28.64 C 15.01,28.54 15.1,28.51 15.21,28.57 C 16.04,29 15.94,30.14 15.35,30.61 A 0.81,0.81 0 0,0 15.05,31.41 C 15.09,31.56 15.16,31.69 15.27,31.79 C 15.37,31.89 15.51,31.96 15.67,31.98 L 17.72,32.26 A 0.69,0.69 0 0,0 18.46,31.82 C 19.12,30.07 19.83,27.8 21.41,26.64 C 22.53,25.81 23.67,25.04 24.84,24.33 C 25.29,24.55 25.67,24.59 26,24.44 C 26.11,24.39 26.17,24.31 26.17,24.18 V 23.33 A 0.27,0.27 0 0,1 26.46,23.06 C 26.51,23.06 26.56,23.08 26.59,23.11 C 26.79,23.25 26.94,23.25 27.06,23.11 C 27.16,22.99 27.16,22.87 27.06,22.74 A 1.02,1.02 0 0,1 26.85,21.83 C 26.89,21.65 26.82,21.53 26.65,21.47 L 24.93,20.91 A 0.34,0.34 0 0,0 24.55,21.01 C 24.35,21.21 24.45,21.41 24.82,21.59 C 24.95,21.66 25.09,21.71 25.24,21.74 C 25.32,21.76 25.39,21.79 25.46,21.83 A 0.3,0.3 0 0,1 25.61,22.2 A 0.3,0.3 0 0,1 25.25,22.38 C 22.65,21.62 19.85,21.19 19.15,18.09 C 18.5,15.22 19.38,13 21.78,11.46 C 21.88,11.39 21.93,11.3 21.92,11.18 L 21.89,10.66 L 22.69,10.36 Z M 34.41,25.46 C 34.01,25.01 33.58,24.94 33.14,25.24 C 32.94,25.38 32.92,25.54 33.09,25.73 L 33.8,26.46 A 0.3,0.3 0 0,0 34.23,26.48 A 0.3,0.3 0 0,0 34.32,26.36 L 34.49,25.91 A 0.43,0.43 0 0,0 34.41,25.45 Z M 33.55,28.46 C 34.15,28.29 34.76,28.19 35.39,28.17 C 37.6,28.12 37.61,27.99 35.41,27.79 C 35.05,27.75 34.42,27.95 33.52,28.39 A 0.05,0.05 0 0,0 33.52,28.46 H 33.55 Z" fill="rgb(139, 106, 62)"/>
<path d="M 21.88,10.645 L 21.92,11.18 C 21.92,11.3 21.88,11.39 21.78,11.46 C 19.38,13 18.5,15.22 19.16,18.09 C 19.86,21.19 22.65,21.62 25.25,22.38 A 0.3,0.3 0 0,0 25.6,21.98 A 0.3,0.3 0 0,0 25.46,21.83 A 1.18,1.18 0 0,0 25.24,21.74 A 2.28,2.28 0 0,1 24.82,21.59 C 24.44,21.41 24.35,21.22 24.55,21 C 24.65,20.89 24.78,20.85 24.93,20.9 L 26.64,21.47 C 26.82,21.53 26.89,21.65 26.84,21.83 C 26.77,22.18 26.84,22.48 27.06,22.74 C 27.16,22.87 27.16,22.99 27.06,23.11 C 26.94,23.25 26.78,23.25 26.59,23.11 A 0.27,0.27 0 0,0 26.17,23.33 V 24.18 C 26.17,24.31 26.11,24.39 26,24.44 C 25.67,24.59 25.29,24.54 24.84,24.33 C 25.22,24.33 25.53,24.28 25.77,24.17 A 0.53,0.53 0 0,0 26.08,23.63 A 0.52,0.52 0 0,0 25.68,23.17 C 22.84,22.57 19.68,21.87 18.78,18.61 C 17.84,15.26 18.88,12.61 21.88,10.66 Z M 40.42,11.86 C 39.87,11.59 39.46,11.53 39.2,11.69 C 39.03,11.79 39,11.93 39.1,12.09 C 39.73,13.16 40.34,14.1 39.92,15.37 A 4.67,4.67 0 0,1 36.47,18.53 C 36.29,18.58 36.24,18.69 36.32,18.86 L 36.41,19.06 C 36.5,19.25 36.61,19.26 36.76,19.1 C 36.96,18.86 37.21,18.77 37.49,18.83 C 37.66,18.87 37.69,18.95 37.56,19.08 L 36.86,19.83 C 36.71,19.97 36.7,20.13 36.82,20.29 C 37.07,20.65 37.08,20.97 36.84,21.27 A 0.28,0.28 0 0,0 37.15,21.71 C 39.9,20.64 41.35,18.7 41.49,15.88 C 41.55,14.78 40.93,13.65 40.85,12.41 C 43.51,16.84 41.27,20.73 36.98,22.62 A 0.48,0.48 0 0,0 36.7,22.94 C 36.57,23.4 36.89,23.85 37.66,24.29 C 37.23,24.43 36.83,24.38 36.46,24.13 A 0.36,0.36 0 0,0 36.08,24.11 C 35.64,24.34 35.18,24.36 34.7,24.17 C 34.45,24.07 34.45,23.97 34.69,23.86 L 35.58,23.45 A 0.87,0.87 0 0,0 36.08,22.57 C 36,21.95 35.62,21.65 34.93,21.67 A 0.27,0.27 0 0,1 34.65,21.35 C 34.66,21.29 34.69,21.25 34.73,21.21 L 35.81,20.14 C 35.88,20.06 35.91,19.98 35.88,19.88 A 3.28,3.28 0 0,0 34.43,17.74 A 0.82,0.82 0 0,0 33.88,17.61 C 33.2,17.71 32.55,17.61 31.94,17.33 A 1.82,1.82 0 0,0 31.45,17.19 L 29.28,16.89 C 29.93,16.74 30.6,16.68 31.28,16.69 C 31.96,16.72 32.5,17.15 33.24,17.11 C 34.21,17.07 34.6,17.22 35.27,17.79 C 35.37,17.89 35.5,17.95 35.65,17.97 C 39.1,18.42 40.57,12.53 37.44,11.26 A 0.18,0.18 0 0,1 37.5,10.9 C 38.7,10.84 39.67,11.16 40.42,11.86 Z" fill="rgb(92, 62, 37)"/>
<path d="M 40.410000000000004,11.844999999999999 C 40.58,11.96 40.72,12.15 40.86,12.41 C 40.93,13.65 41.56,14.78 41.49,15.88 C 41.35,18.7 39.9,20.64 37.15,21.71 A 0.28,0.28 0 0,1 36.78,21.44 C 36.78,21.38 36.8,21.32 36.84,21.27 C 37.08,20.97 37.07,20.65 36.82,20.29 C 36.71,20.13 36.72,19.97 36.85,19.83 L 37.57,19.08 C 37.69,18.95 37.67,18.87 37.49,18.83 C 37.21,18.77 36.97,18.86 36.76,19.1 C 36.62,19.26 36.5,19.25 36.41,19.05 L 36.32,18.86 C 36.24,18.69 36.29,18.58 36.48,18.53 A 4.67,4.67 0 0,0 39.92,15.37 C 40.34,14.1 39.73,13.16 39.1,12.09 C 39,11.93 39.03,11.79 39.2,11.69 C 39.47,11.53 39.87,11.59 40.42,11.86 Z" fill="rgb(139, 106, 62)"/>
<path d="M 37.64,28.025 A 3.67,3.67 0 0,1 36.43,29.49 A 81.8,81.8 0 0,0 32.81,30.08 C 30.81,30.44 27.58,27.98 30.17,26.55 A 0.6,0.6 0 0,0 30.44,26.25 C 30.88,25.21 31.51,23.4 32.66,23.98 A 0.2,0.2 0 0,1 32.77,24.18 A 0.2,0.2 0 0,1 32.65,24.35 L 31.81,24.7 A 0.26,0.26 0 0,0 31.68,24.8 L 30.48,27 A 0.29,0.29 0 0,0 30.44,27.15 C 30.44,27.21 30.47,27.25 30.5,27.3 L 31.36,28.42 C 31.53,28.64 31.49,28.69 31.24,28.55 A 3.44,3.44 0 0,1 30.35,27.84 A 0.2,0.2 0 0,0 30.01,27.88 C 29.53,28.84 31.34,29.65 31.94,29.68 A 9.14,9.14 0 0,0 37.65,28.04 Z M 37.8,24.45 C 38,25.12 38,25.88 37.79,26.72 C 37.06,26.72 36.65,26.46 36.54,25.91 C 36.44,25.35 36.86,24.87 37.81,24.45 Z" fill="rgb(55, 28, 12)"/>
<path d="M 34.39,25.435 A 0.44,0.44 0 0,1 34.5,25.91 L 34.32,26.36 A 0.3,0.3 0 0,1 33.93,26.54 A 0.31,0.31 0 0,1 33.8,26.46 L 33.1,25.73 C 32.92,25.55 32.93,25.38 33.14,25.23 C 33.58,24.94 34,25.01 34.41,25.45 Z" fill="rgb(55, 28, 12)"/>
<path d="M 33.54,28.455 A 0.05,0.05 0 0,1 33.51,28.44 V 28.41 L 33.52,28.38 C 34.42,27.95 35.05,27.75 35.41,27.78 C 37.61,27.99 37.61,28.12 35.39,28.18 A 6.9,6.9 0 0,0 33.55,28.47 Z" fill="rgb(92, 62, 37)"/>
<path d="M 36.28,35.135 L 34.49,38.19 A 0.3,0.3 0 0,0 34.46,38.26 L 33.92,41 V 41.16 L 34.36,43.05 A 0.6,0.6 0 0,0 34.6,43.41 A 3.3,3.3 0 0,1 35.83,45.19 C 35.88,45.36 35.83,45.49 35.66,45.57 C 34.47,46.17 33.31,46.14 32.16,45.5 A 0.75,0.75 0 0,1 31.76,44.87 L 31.51,41.48 A 0.43,0.43 0 0,0 31.31,41.15 A 2.8,2.8 0 0,1 29.95,38.68 C 29.95,38.45 29.85,38.38 29.65,38.5 C 29.02,38.85 28.38,39.1 27.71,39.22 C 26.51,39.46 26.01,39.95 25.11,40.64 C 25.86,38.29 27.67,38.44 29.67,38.16 A 0.33,0.33 0 0,0 29.95,37.78 A 0.33,0.33 0 0,0 29.88,37.62 L 29.29,36.92 C 29.13,36.72 29.17,36.67 29.41,36.76 C 30.29,37.1 30.39,38.33 30.59,39.43 C 30.62,39.59 30.69,39.73 30.82,39.83 A 4.13,4.13 0 0,1 32.22,43.63 C 32.19,43.81 32.27,43.87 32.43,43.83 L 33.6,43.58 A 0.38,0.38 0 0,0 33.89,43.11 C 33.39,41.3 33.22,39.19 34.41,37.57 A 60.6,60.6 0 0,1 36.29,35.15 Z" fill="rgb(55, 28, 12)"/>
<path d="M 24.889999999999997,40.805 C 24.42,40.9 24.06,41.06 23.82,41.29 A 0.3,0.3 0 0,0 23.75,41.62 L 24.33,43.17 C 24.41,43.39 24.35,43.55 24.15,43.65 C 23.68,43.88 23.2,43.88 22.7,43.65 C 22.54,43.57 22.5,43.45 22.56,43.29 C 22.89,42.49 22.68,41.89 21.93,41.47 C 21.73,41.37 21.59,41.41 21.48,41.61 C 21.28,41.95 21.24,42.39 21.35,42.93 L 21.32,43.13 C 21.3,43.27 21.22,43.33 21.08,43.31 L 20.78,43.27 L 20.91,41.47 C 20.91,41.33 20.98,41.19 21.08,41.08 A 7.64,7.64 0 0,0 23.12,37.15 A 0.6,0.6 0 0,1 23.35,36.78 A 5.92,5.92 0 0,1 26.67,35.58 A 0.42,0.42 0 0,1 27.08,35.95 A 0.41,0.41 0 0,1 26.76,36.4 L 24.91,36.7 A 1.27,1.27 0 0,0 23.95,37.42 C 23.37,38.68 23.15,39.54 22.25,40.7 C 22.17,40.81 22.18,40.92 22.28,41.02 L 22.71,41.46 C 22.88,41.62 23.01,41.61 23.13,41.41 C 23.59,40.62 24.18,40.42 24.9,40.81 Z" fill="rgb(92, 62, 37)"/>
<path d="M 13.790000000000001,40.644999999999996 C 13.63,41.22 13.88,41.51 14.53,41.53 C 14.45,41.87 14.31,42.1 14.13,42.23 A 0.7,0.7 0 0,1 13.02,41.76 C 12.92,41.12 13.19,40.76 13.8,40.66 Z M 21.35,42.93 L 22.23,45.23 A 0.35,0.35 0 0,1 21.99,45.7 A 5.17,5.17 0 0,1 18.99,45.58 A 0.37,0.37 0 0,1 18.72,45.23 L 18.62,43.33 L 20.78,43.27 L 21.08,43.31 C 21.21,43.33 21.29,43.27 21.31,43.13 L 21.35,42.93 Z" fill="rgb(55, 28, 12)"/>
</svg>
