<?xml version="1.0" encoding="UTF-8"?>
<!-- generated by Finnhub -->
<svg viewBox="0 0 55.5 55.5" xmlns="http://www.w3.org/2000/svg">
<path d="M 0,0 H 55.5 V 55.5 H 0 Z" fill="rgb(18, 56, 90)"/>
<path d="M 49.09,27.485 H 52 V 28.5 H 49.1 V 27.5 Z M 49.5,30 H 52 V 31 H 48 V 25 H 52 V 26 H 49.5 V 30 Z M 43.75,31 V 26 H 42 V 25 H 47 V 26 H 45.25 V 31 H 43.75 Z M 36,31 L 38.38,25 H 39.61 L 42,31 H 40.7 L 38.74,25.7 H 39.24 L 37.26,31 H 36 Z M 37.2,30 L 37.52,29 H 40.27 L 40.61,30 H 37.19 Z M 30,28 C 30,29.86 31.64,31 33.38,31 C 34.25,31 35.28,30.77 36,30.26 V 27.5 H 33 V 28.5 H 34.5 V 29.65 C 34.17,29.79 33.82,29.85 33.46,29.85 C 32.38,29.85 31.46,29.13 31.46,28 C 31.46,26.86 32.39,26.14 33.48,26.14 C 34.1,26.14 34.63,26.35 35.08,26.8 L 36,26 A 3.4,3.4 0 0,0 33.4,25 C 31.67,25 30,26.14 30,28 Z M 26.95,31 C 26.47,31 26.01,30.94 25.57,30.82 C 25.12,30.69 24.77,30.52 24.5,30.32 L 24.97,29.32 A 3.61,3.61 0 0,0 26.96,29.92 C 27.23,29.92 27.46,29.9 27.62,29.85 C 27.79,29.79 27.92,29.72 28,29.62 C 28.08,29.53 28.12,29.42 28.12,29.3 A 0.42,0.42 0 0,0 27.92,28.94 C 27.8,28.84 27.64,28.77 27.43,28.71 C 27.23,28.65 26.99,28.6 26.74,28.55 C 26.5,28.49 26.24,28.43 25.99,28.35 A 3.25,3.25 0 0,1 25.32,28.05 A 1.47,1.47 0 0,1 24.81,27.57 A 1.4,1.4 0 0,1 24.62,26.81 C 24.62,26.48 24.72,26.17 24.9,25.91 C 25.08,25.63 25.36,25.41 25.74,25.25 C 26.12,25.08 26.59,25 27.15,25 C 27.53,25 27.9,25.04 28.27,25.13 C 28.64,25.22 28.97,25.34 29.24,25.51 L 28.81,26.53 A 3.59,3.59 0 0,0 27.15,26.08 C 26.88,26.08 26.65,26.11 26.48,26.17 A 0.77,0.77 0 0,0 26.12,26.41 A 0.5,0.5 0 0,0 26,26.74 C 26,26.89 26.07,27.01 26.2,27.11 C 26.32,27.19 26.48,27.27 26.7,27.32 L 27.37,27.49 C 27.62,27.54 27.87,27.61 28.12,27.68 S 28.6,27.85 28.8,27.97 A 1.34,1.34 0 0,1 29.5,29.2 C 29.5,29.53 29.4,29.83 29.22,30.1 C 29.02,30.37 28.74,30.59 28.37,30.75 A 3.5,3.5 0 0,1 26.95,31 Z M 18,31 V 25 H 19.25 L 23.11,29.32 H 22.51 V 25 H 24 V 31 H 22.76 L 18.89,26.68 H 19.49 V 31 H 18 Z M 14,31 C 12.31,31 11,29.7 11,28 C 11,26.32 12.31,25 14,25 C 15.68,25 17,26.32 17,28 S 15.69,31 14,31 Z M 14,30 C 15.03,30 15.5,28.99 15.5,28 S 15.03,26 14,26 S 12.5,27.01 12.5,28 C 12.5,29 12.96,30 14,30 Z M 9,31 V 25 H 10.5 V 31 H 9 Z M 4,31 V 25 H 5.5 V 30 H 8 V 31 H 4 Z" fill="rgb(254, 254, 253)"/>
</svg>
