<?xml version="1.0" encoding="UTF-8"?>
<!-- generated by Finnhub -->
<svg viewBox="0 0 55.5 55.5" xmlns="http://www.w3.org/2000/svg">
<path d="M0 0h55.5v55.5H0z" fill="rgb(21, 40, 63)"/>
<path d="M31.08 13.9a.96.96 0 1 0 0-1.9.96.96 0 0 0 0 1.9Zm-7.46-1.22c.2 0 .36-.14.35-.3 0-.17-.16-.3-.36-.3-.2 0-.36.14-.36.3 0 .17.17.3.37.3Zm3.83-.33h.32c.53 0 .96.43.96.96v.28c0 .53-.44.96-.97.95h-.3a.96.96 0 0 1-.97-.96v-.27c0-.53.43-.96.96-.96Zm7.34 2.12a.9.9 0 1 0 0-1.8.9.9 0 0 0 0 1.8Zm-9.21.11a1.09 1.09 0 1 1-2.17 0 1.09 1.09 0 0 1 2.17 0Zm-5.5.28a.54.54 0 1 0 0-1.07.54.54 0 0 0 0 1.07Zm18.2 1.1c-.29-.01-.51-.28-.5-.6 0-.33.24-.59.53-.58.28 0 .51.28.5.6 0 .32-.24.58-.53.57Zm-6.9 1.22a.89.89 0 1 0 .01-1.77.89.89 0 0 0 0 1.77Zm-8.35-.7a1 1 0 1 1-2.02 0 1 1 0 0 1 2.02 0Zm11.25 1.18a1.02 1.02 0 1 0 0-2.05 1.02 1.02 0 0 0 0 2.05Zm-5.7-.4a.65.65 0 0 1-.52-.74c.06-.36.39-.6.73-.55.35.06.58.4.52.75a.65.65 0 0 1-.73.55Zm-11.2.73a.78.78 0 1 0 0-1.55.78.78 0 0 0 0 1.55Zm20.84-.1a1.13 1.13 0 1 1-2.27 0 1.13 1.13 0 0 1 2.27 0Zm-11.6-.07c-.03.1-.1.14-.2.1l-.1-.02c-.36-.11-.5-.3-.43-.55l.02-.03c.07-.26.3-.33.66-.22l.09.03c.1.03.15.1.11.2l-.15.49Zm-5.44.98a.88.88 0 1 1-1.75 0 .88.88 0 0 1 1.75 0Zm19.88-.14a.37.37 0 1 0 0-.75.37.37 0 0 0 0 .75Zm-16.74.41c-.15 0-.26-.17-.25-.37.01-.2.14-.34.29-.34.14.01.25.18.24.37-.01.2-.14.35-.28.34Zm3.67-.03a.21.21 0 1 0 0-.43.21.21 0 0 0 0 .43Zm2.63.04a.38.38 0 1 1-.76 0 .38.38 0 0 1 .76 0Zm9.06 1.94a1.1 1.1 0 1 0 0-2.2 1.1 1.1 0 0 0 0 2.2Zm-6.64-1.44c0 .24-.23.42-.51.42s-.51-.19-.51-.42c0-.23.23-.42.51-.42.29 0 .51.19.51.42Zm-18.17 1c-.03.58.4 1.07.94 1.09.54.02 1-.43 1.02-1.02.03-.58-.4-1.07-.94-1.1-.54-.02-1 .44-1.02 1.02Zm7.84-.5a.2.2 0 1 1-.41 0 .2.2 0 0 1 .41 0Zm12.08 1.3a.74.74 0 1 0 0-1.48.74.74 0 0 0 0 1.48Zm-20.71-.51a.37.37 0 1 1-.75 0 .37.37 0 0 1 .75 0Zm5.33-.22-.31-.02a.52.52 0 0 0-.55.48v.19c-.02.28.2.53.48.54l.31.02c.29.02.53-.2.55-.48v-.19a.52.52 0 0 0-.48-.54Zm18.46 1.68c0 .47-.44.86-.99.85-.54 0-.98-.39-.98-.86 0-.48.45-.86 1-.86.54 0 .98.4.97.87Zm2.99.42c.01.6.47 1.07 1.02 1.05.55-.01.98-.5.97-1.1-.02-.6-.48-1.06-1.03-1.05-.55.02-.98.5-.96 1.1Zm-24.44 1.4a1.09 1.09 0 1 1-2.17 0 1.09 1.09 0 0 1 2.17 0Zm2.36.05c.3 0 .54-.22.54-.46 0-.25-.26-.45-.56-.44-.3 0-.54.21-.53.46 0 .25.25.44.55.44Zm20.94.42a1.02 1.02 0 1 1-2.04 0 1.02 1.02 0 0 1 2.04 0Zm-27.63.1c0 .34.26.61.55.6.3 0 .53-.29.52-.63-.01-.34-.26-.6-.56-.6-.3.01-.52.3-.51.63ZM44 26.24a.8.8 0 1 1-1.6 0 .8.8 0 0 1 1.6 0Zm-25.15.23c.21-.01.38-.17.37-.35 0-.18-.19-.31-.4-.3-.22 0-.39.16-.38.34.01.18.19.32.4.3Zm18.01 0c0 .07-.1.11-.2.1-.1-.01-.18-.07-.17-.13 0-.07.1-.1.2-.1.1.01.18.07.17.14ZM15.02 28.3a1.2 1.2 0 0 1-.37-1c.03-.44.22-.71.6-.83.87-.29 1.4-.08 1.58.62.11.4.04.77-.21 1.07-.11.13-.2.28-.25.43a.21.21 0 0 1-.17.15c-.29.06-.58.07-.88.03-.1 0-.15-.06-.16-.15l-.02-.1a.38.38 0 0 0-.12-.22Zm23.95-.13.22.39c.07.16.2.24.4.24h.2c.23 0 .4 0 .52-.04a.2.2 0 0 0 .14-.13c.06-.17.14-.32.25-.46.21-.29.28-.62.21-1-.07-.4-.3-.65-.66-.73-.95-.2-1.46.11-1.53.91-.03.26.06.54.25.82Zm-26.97.6c0 .5.35.9.78.9.44 0 .79-.4.79-.9s-.36-.9-.79-.9c-.43 0-.78.4-.78.9Zm7.24.04c-.12 0-.23-.13-.23-.3 0-.17.1-.3.22-.3.13 0 .23.13.24.3 0 .16-.1.3-.23.3Zm17.84.35c.2 0 .35-.12.34-.26 0-.14-.16-.25-.36-.24-.2 0-.35.12-.35.26s.17.25.37.24Zm-19.16 1.31a1.03 1.03 0 1 1-2.06 0 1.03 1.03 0 0 1 2.06 0Zm22.34 1.56a1.09 1.09 0 1 0 0-2.18 1.09 1.09 0 0 0 0 2.18Zm3.68-1.6a.63.63 0 1 1-1.26 0 .63.63 0 0 1 1.26 0Zm-6.82 1.25c.28 0 .52-.18.52-.4 0-.24-.22-.43-.5-.44-.29 0-.52.18-.53.4 0 .24.22.43.5.44Zm-21.94.73a1.1 1.1 0 1 1-2.18 0 1.1 1.1 0 0 1 2.18 0Zm3.68-.5h-.33a.8.8 0 0 0-.8.8v.15c0 .44.36.8.8.8h.33a.8.8 0 0 0 .8-.8v-.16a.8.8 0 0 0-.8-.79Zm18.5 1.82c0 .34-.31.62-.71.63-.4 0-.73-.27-.73-.61-.01-.34.3-.63.7-.63.4 0 .74.26.74.6Zm1.4.84c.02.57.48 1 1.02.99.55-.03.98-.5.95-1.08a1.01 1.01 0 0 0-1.03-.99c-.55.03-.97.5-.95 1.08Zm-17.22-.13a.74.74 0 1 1-1.48 0 .74.74 0 0 1 1.48 0Zm20.4-.2c.01.22.16.38.34.38.18 0 .33-.17.33-.38 0-.2-.16-.37-.34-.37-.18 0-.32.17-.32.38Zm-24.52.96a1.13 1.13 0 1 1-2.26 0 1.13 1.13 0 0 1 2.26 0Zm15.87-.2c-.03.09.02.19.1.2.08.03.17-.03.2-.13.02-.1-.02-.2-.1-.22-.09-.02-.17.04-.2.14Zm-9.69.53c0 .23-.25.42-.55.42-.3 0-.53-.2-.53-.44s.25-.43.55-.42c.3 0 .53.2.53.44Zm11.99 1.53a.84.84 0 1 0 0-1.69.84.84 0 0 0 0 1.69Zm-9.85-1c0 .17-.17.32-.39.32-.21 0-.39-.14-.39-.32s.17-.33.39-.33c.21 0 .39.14.39.32Zm5.84.72a.38.38 0 1 0 0-.77.38.38 0 0 0 0 .77Zm-3.77-.52a.2.2 0 1 1-.41 0 .2.2 0 0 1 .41 0Zm-8.78-.12h-.42c-.5-.01-.93.4-.93.9v.35c-.01.5.4.93.9.93H19c.51.01.93-.4.94-.9v-.35c.01-.5-.4-.92-.9-.93Zm-3.81.54a.38.38 0 1 1-.75 0 .38.38 0 0 1 .75 0Zm22.99 1.98a.78.78 0 1 0 0-1.56.78.78 0 0 0 0 1.56Zm-8.08-.96c0 .27-.25.48-.55.48-.3 0-.54-.22-.53-.5 0-.27.25-.48.55-.48.3 0 .54.23.53.5Zm-8.43 1.78a1 1 0 1 0 0-2 1 1 0 0 0 0 2Zm13.18-.97a1 1 0 1 1-2 0 1 1 0 0 1 2 0Zm-7.47-.59h-.27c-.3-.01-.55.22-.55.52v.15c-.01.3.22.55.52.56h.27c.3 0 .55-.23.55-.52v-.16c.01-.3-.22-.54-.52-.55Zm-1.92.93a.87.87 0 1 1-1.74 0 .87.87 0 0 1 1.74 0Zm-8.4.8c0 .34.24.6.53.6.28 0 .51-.28.5-.62 0-.34-.24-.6-.52-.6-.3 0-.52.28-.51.62Zm15.42.74a1.1 1.1 0 1 1-2.18 0 1.1 1.1 0 0 1 2.18 0Zm3 .93a.51.51 0 1 0 0-1.03.51.51 0 0 0 0 1.03Zm-6.1.3a1.14 1.14 0 1 1-2.27 0 1.14 1.14 0 0 1 2.28 0Zm-8.33.7a.9.9 0 1 0 0-1.81.9.9 0 0 0 0 1.82Zm4.71-.28a.98.98 0 1 1-1.95 0 .98.98 0 0 1 1.95 0ZM32 43c.2-.01.34-.13.34-.27 0-.15-.17-.26-.36-.25-.2 0-.35.13-.35.27.01.14.17.25.37.25Zm-3.38.67a.32.32 0 1 1-.64 0 .32.32 0 0 1 .64 0Z" fill="rgb(254, 254, 253)"/>
</svg>
