<?xml version="1.0" encoding="UTF-8"?>
<!-- generated by Finnhub -->
<svg viewBox="0 0 55.5 55.5" xmlns="http://www.w3.org/2000/svg">
<path d="M 0,0 H 55.5 V 55.5 H 0 Z" fill="rgb(239, 242, 248)"/>
<path d="M 27.99,40.585 A 10.47,10.47 0 0,0 33.33,31.5 C 33.33,27.61 31.19,24.22 28,22.4 C 29.57,21.51 31.39,21 33.33,21 C 39.23,21 44,25.7 44,31.5 C 44,37.3 39.22,42 33.33,42 C 31.39,42 29.57,41.49 28,40.6 Z" fill="url(#a)"/>
<path d="M 17.33,21.985 C 17.34,25.7 19.26,29.3 22.68,31.28 A 10.65,10.65 0 0,0 33.37,31.28 A 10.7,10.7 0 1,1 17.34,22 Z" fill="url(#b)"/>
<path d="M 38.99,22.685 C 35.7,20.93 31.56,20.5 28.03,22.4 C 24.51,24.3 22.5,27.59 22.5,31.13 A 10.6,10.6 0 0,1 18.48,27.38 C 15.44,22.48 17.24,16.21 22.5,13.38 C 27.76,10.54 34.49,12.22 37.52,17.13 C 38.52,18.74 39,20.95 39,22.69 Z" fill="url(#c)"/>
<defs>
<linearGradient id="a" x1="29.51" x2="36.49" y1="21.96" y2="39.55" gradientUnits="userSpaceOnUse">
<stop stop-color="rgb(216, 233, 245)" offset="0"/>
<stop stop-color="rgb(98, 168, 222)" offset="1"/>
</linearGradient>
<linearGradient id="b" x1="32.2" x2="14.22" y1="35.9" y2="25.37" gradientUnits="userSpaceOnUse">
<stop stop-color="rgb(251, 246, 180)" offset="0"/>
<stop stop-color="rgb(247, 233, 60)" offset="1"/>
</linearGradient>
<linearGradient id="c" x1="34.97" x2="21.93" y1="14.5" y2="31.05" gradientUnits="userSpaceOnUse">
<stop stop-color="rgb(160, 190, 54)" offset=".17"/>
<stop stop-color="rgb(218, 229, 176)" offset="1"/>
</linearGradient>
</defs>
</svg>
