<?xml version="1.0" encoding="UTF-8"?>
<!-- generated by Finnhub -->
<svg viewBox="0 0 55.5 55.5" xmlns="http://www.w3.org/2000/svg">
<path d="M 0,0 H 55.5 V 55.5 H 0 Z" fill="rgb(21, 60, 90)"/>
<path d="M 28.99,23.985 L 25,21.82 L 26.78,20.94 C 27.84,21.99 29.59,21.38 30.33,20.94 L 33,19.2 L 28.11,17.02 L 29.89,16.14 L 36.11,17.46 L 42.33,14.4 C 43.76,13.7 44.7,14.1 45,14.4 L 29,24 Z" fill="rgb(254, 254, 251)"/>
<path d="M 12.27,26.985 H 9.95 C 9.65,28.55 8.62,31.9 8.09,34.3 C 7.63,36.42 9.02,38 10.51,38 H 15.53 L 16,36 H 12.28 C 10.42,36 10.26,34.87 10.42,34.3 L 12.28,27 Z M 20.68,29 C 20.3,29 20.08,29.61 20,30 L 18.84,34.9 C 18.73,35.43 18.99,36 19.5,36 H 22.5 C 22.87,36 23.5,36 24,35 L 25,30 C 25.11,29.47 25.11,29 24.6,29 H 20.68 Z M 18.33,28.98 A 2.43,2.43 0 0,1 20.68,27 H 24.6 C 26.14,27 27.28,28.51 26.94,30.1 L 25.67,36.02 A 2.43,2.43 0 0,1 23.32,38 H 19.4 C 17.86,38 16.72,36.49 17.06,34.9 L 18.33,28.98 Z" fill="rgb(253, 254, 253)"/>
<path d="M 25.99,37.985 H 28.5 L 29.53,36 H 33.73 L 33.92,38 H 36 L 35.17,27 H 31.83 L 26,38 Z M 33.54,34 L 33.08,29.12 L 30.56,34 H 33.54 Z" fill="rgb(253, 254, 253)" fill-rule="evenodd"/>
<path d="M 39.480000000000004,37.985 H 37 L 39.1,27 H 44.96 C 46.22,27 48.36,27.04 47.95,30 C 47.61,32.37 45.8,33 44.96,33 H 43.28 L 46.45,38 H 43.97 L 41.19,33 L 41.61,31 H 44.12 C 44.54,31 45.62,31.02 45.96,30 C 46.29,28.98 45.1,29 44.54,29 H 40.98 L 39.48,38 Z" fill="rgb(253, 254, 253)"/>
</svg>
