<?xml version="1.0" encoding="UTF-8"?>
<!-- generated by Finnhub -->
<svg viewBox="0 0 55.5 55.5" xmlns="http://www.w3.org/2000/svg">
<path d="M 0,0 H 55.5 V 55.5 H 0 Z" fill="rgb(239, 242, 248)"/>
<path d="M 26.479999999999997,13.115 C 26.25,11.29 25.31,10.26 23.65,10.03 C 22.56,9.89 21.73,10.23 21.17,11.03 A 5.4,5.4 0 0,0 20.61,13.99 C 20.71,14.69 20.77,15.39 20.81,16.09 A 0.23,0.23 0 0,1 20.75,16.29 A 0.3,0.3 0 0,1 20.55,16.39 C 18.89,16.61 16.41,17.39 17.13,19.55 C 17.56,20.85 19.88,21.82 21.16,22.13 A 0.4,0.4 0 0,0 21.42,22.12 L 23.12,21.41 L 25.22,20.94 A 0.47,0.47 0 0,0 25.41,20.85 C 25.46,20.81 25.51,20.75 25.53,20.69 A 9.03,9.03 0 0,0 26.58,17.37 C 26.69,15.94 26.66,14.52 26.48,13.13 Z" fill="url(#a)"/>
<path d="M 32.550000000000004,12.684999999999999 C 33.42,13.4 33.98,14.2 34.22,15.07 C 34.24,15.13 34.28,15.2 34.32,15.25 A 0.52,0.52 0 0,0 34.93,15.35 L 37.08,14.23 C 38.34,13.61 40.4,13.46 41.47,14.6 C 42.35,15.55 42.05,16.45 41.23,17.25 A 24.6,24.6 0 0,1 38.9,19.23 C 38.38,19.63 38.53,20.33 38.84,20.78 C 39.23,21.32 39.52,22.01 39.72,22.86 C 39.92,23.67 39.67,24.29 38.97,24.69 C 38.29,25.09 37.53,25.13 36.7,24.83 A 11.29,11.29 0 0,0 30.85,21.08 L 28.77,20.67 C 28.39,20.59 28.24,20.37 28.33,20.01 C 28.47,19.44 28.64,18.91 28.83,18.43 C 29.07,17.83 28.99,16.86 28.9,15.85 C 28.76,14.31 28.62,12.68 29.6,12.15 C 30.58,11.63 31.8,11.98 32.56,12.7 Z" fill="url(#b)"/>
<path d="M 27.97,25.605 A 5.51,5.51 0 0,1 30.78,30.18 A 5,5 0 0,1 27.65,34.86 A 5.8,5.8 0 0,1 21.84,34.22 A 5.67,5.67 0 0,1 20.29,32.16 A 5.17,5.17 0 0,1 20.13,28.43 C 21.73,25.29 24.34,24.35 27.98,25.62 Z" fill="rgb(9, 27, 72)"/>
<path d="M 27.52,26.145 V 26.35 C 27.53,26.49 27.46,26.55 27.31,26.51 A 6.8,6.8 0 0,0 23.37,26.61 C 22.81,26.81 22.51,27.14 22.2,27.59 A 0.73,0.73 0 0,1 21.88,27.86 A 0.45,0.45 0 0,1 21.52,27.86 C 21.5,27.86 21.52,27.78 21.57,27.63 C 21.64,27.53 21.69,27.41 21.71,27.29 C 23.31,25.69 25.25,25.32 27.53,26.16 Z" fill="rgb(239, 242, 248)"/>
<path d="M 29.009999999999998,27.615 C 28.71,27.02 28.22,26.53 27.52,26.16 V 26.35 C 27.52,26.49 27.45,26.55 27.31,26.51 A 6.8,6.8 0 0,0 23.36,26.61 C 22.81,26.81 22.51,27.14 22.2,27.59 A 0.73,0.73 0 0,1 21.88,27.86 A 0.45,0.45 0 0,1 21.52,27.86 C 21.5,27.86 21.52,27.78 21.57,27.63 C 21.64,27.53 21.69,27.41 21.7,27.29 C 21.03,27.99 20.72,28.89 20.78,29.98 C 20.92,32.5 22.27,33.99 24.82,34.45 A 4.1,4.1 0 0,0 28.74,33.09 C 30.35,31.58 30.04,29.37 29.02,27.63 Z" fill="url(#c)"/>
<path d="M 27.91,28.105 C 28.63,28.42 28.8,28.79 28.42,29.27 A 0.86,0.86 0 0,1 27.87,29.58 C 27.57,29.63 27.35,29.58 27.19,29.44 C 26.87,28.81 27.04,28.02 27.92,28.12 Z" fill="rgb(175, 247, 235)"/>
<path d="M 28.79,22.345 A 0.34,0.34 0 0,0 28.49,22.44 C 28.24,22.67 28.26,22.84 28.54,22.94 C 28.7,23.01 28.74,23.11 28.67,23.24 C 28.02,24.59 25.2,24.24 23.92,24.46 C 20.52,25.07 17.51,28.24 17.89,31.56 A 8.9,8.9 0 0,0 22.67,38.66 C 26.18,40.46 27.54,44.33 27.46,47.98 C 27.46,47.99 27.46,48 27.48,48 H 27.55 C 27.6,48 27.62,47.98 27.63,47.94 C 27.74,46.64 27.91,45.59 28.13,44.78 C 29.06,41.42 32.06,39.9 34.51,37.67 A 8.34,8.34 0 0,0 37.18,31.25 C 37.31,25.43 34,23.67 28.8,22.35 Z M 27.7,38.96 C 31.7,38.25 37.52,35.19 36.32,30.41 C 36.12,29.79 35.72,29.28 35.14,28.91 C 33.47,28.31 32.61,28.87 32.54,30.55 C 31.94,30.11 31.35,29.99 30.78,30.18 A 5.51,5.51 0 0,0 27.98,25.62 C 24.34,24.35 21.72,25.29 20.13,28.43 A 5.17,5.17 0 0,0 20.29,32.16 C 20.65,32.98 21.17,33.66 21.84,34.22 A 5.83,5.83 0 0,0 27.65,34.86 A 5,5 0 0,0 30.78,30.18 C 31.35,29.98 31.94,30.11 32.54,30.55 A 5.98,5.98 0 0,1 31.99,34.35 C 30.34,37.63 26.81,38.31 23.23,37.65 C 22.73,37.56 22.68,37.67 23.08,37.97 C 24.36,38.96 25.98,39.14 27.71,38.97 Z" fill="url(#d)" fill-rule="evenodd"/>
<path d="M 27.27,30.355 C 27.18,30.36 27.12,30.3 27.1,30.19 C 27.08,30.08 27.12,29.99 27.22,29.92 C 27.31,29.91 27.37,29.93 27.42,29.99 C 27.55,30.16 27.5,30.29 27.28,30.37 Z" fill="rgb(175, 247, 235)"/>
<defs>
<linearGradient id="a" x1="20.47" x2="26.03" y1="16.75" y2="17.48" gradientUnits="userSpaceOnUse">
<stop stop-color="rgb(119, 131, 143)" offset="0"/>
<stop stop-color="rgb(158, 167, 175)" offset="1"/>
</linearGradient>
<linearGradient id="b" x1="39.96" x2="29.57" y1="17.4" y2="19.6" gradientUnits="userSpaceOnUse">
<stop stop-color="rgb(88, 95, 109)" offset="0"/>
<stop stop-color="rgb(154, 163, 177)" offset="1"/>
</linearGradient>
<linearGradient id="c" x1="25.32" x2="24.72" y1="26.16" y2="33.89" gradientUnits="userSpaceOnUse">
<stop stop-color="rgb(81, 126, 184)" offset="0"/>
<stop stop-color="rgb(26, 162, 225)" offset=".45"/>
<stop stop-color="rgb(20, 64, 122)" offset="1"/>
</linearGradient>
<linearGradient id="d" x1="22.56" x2="28.23" y1="25.31" y2="43.3" gradientUnits="userSpaceOnUse">
<stop stop-color="rgb(233, 237, 239)" offset="0"/>
<stop stop-color="rgb(95, 107, 118)" offset="1"/>
</linearGradient>
</defs>
</svg>
