<?xml version="1.0" encoding="UTF-8"?>
<!-- generated by Finnhub -->
<svg viewBox="0 0 55.5 55.5" xmlns="http://www.w3.org/2000/svg">
<path d="M0 0h55.5v55.5H0z" fill="rgb(239, 242, 248)"/>
<path d="M16.5 33.43a3.93 3.93 0 1 0 0-7.86 3.93 3.93 0 0 0 0 7.86Zm0 1.57a5.5 5.5 0 1 0 0-11 5.5 5.5 0 0 0 0 11ZM40 23h1.5v9c0 1 0 1.5 1.5 1.5V35h-1.5c-1 0-1.5-.63-1.5-1.5v-.94a5.5 5.5 0 1 1 0-6.12V23Zm-.64 6.5a3.93 3.93 0 1 1-7.86 0 3.93 3.93 0 0 1 7.86 0Z" fill="rgb(161, 162, 165)" fill-rule="evenodd"/>
<path d="M45.5 19H44v13.05c0 2.36 1.33 2.95 2 2.95h2v-1.5h-1.2c-.96 0-1.3-1.03-1.3-1.45V19ZM9.5 19H8v13.05C8 34.41 9.33 35 10 35h2v-1.5h-1.2c-.96 0-1.3-1.03-1.3-1.45V19ZM29.93 29.5a3.93 3.93 0 1 1-1.63-3.19l1.04-1.18a5.5 5.5 0 1 0 1.71 2.19l-1.1 1.78c.01.13-.02.26-.02.4Z" fill="rgb(161, 162, 165)"/>
</svg>
