<!-- by Finnhub --><svg width="56" height="56" viewBox="0 0 56 56" xmlns="http://www.w3.org/2000/svg"><path fill="#F0F3FA" d="M0 0h56v56H0z"/><path d="M13 16.9a3.9 3.9 0 0 1 3.9-3.9h22.2a3.9 3.9 0 0 1 3.9 3.9v22.2a3.9 3.9 0 0 1-3.9 3.9H16.9a3.9 3.9 0 0 1-3.9-3.9V16.9Z" fill="url(#ansb055hn)"/><path d="M17 39.74c.5-.02 1-.09 1-.73V34c0-.66-.49-.71-1-.74V33h4.51v.26c-.75.02-1.51.09-1.51.95v4.9c0 .6.85.56 1.3.56a4.2 4.2 0 0 0 1.95-.4c.53-.28.99-.82 1.37-1.62H25L24.48 40H17v-.26Zm9-2.19h.3c.17.74.45 1.28.82 1.61.38.34.82.5 1.31.5.48 0 .82-.11 1.02-.34.2-.23.3-.47.3-.73 0-.3-.1-.54-.32-.72a3.99 3.99 0 0 0-.84-.48l-.68-.32a4.49 4.49 0 0 1-1.42-.93c-.28-.31-.42-.7-.42-1.15a2 2 0 0 1 .55-1.35c.37-.42.93-.63 1.68-.63.39 0 .76.06 1.12.17.36.1.56.16.61.16.12 0 .2-.03.24-.09a.8.8 0 0 0 .11-.25h.31v2.15h-.29c-.14-.5-.38-.93-.74-1.29a1.72 1.72 0 0 0-1.28-.54c-.35 0-.63.1-.84.28-.2.18-.3.4-.3.66 0 .31.09.54.28.7.2.16.62.39 1.27.7l.79.36c.35.16.63.35.84.55.39.37.58.82.58 1.36 0 .5-.2.97-.63 1.4-.41.45-1.08.67-2 .67a3.68 3.68 0 0 1-1.28-.23l-.2-.07a1.17 1.17 0 0 0-.26-.04c-.1 0-.18.03-.22.09a.83.83 0 0 0-.1.25H26v-2.45Zm6 2.19c.5-.02 1-.12 1-.73V34c0-.62-.5-.71-1-.74V33h3.6c.68 0 1.26.07 1.72.21.86.27 1.29.75 1.29 1.46 0 .43-.18.77-.53 1.02-.35.25-.73.4-1.13.48v.1c.43.07.8.2 1.12.37.62.34.93.82.93 1.43 0 .58-.3 1.04-.9 1.4a4.6 4.6 0 0 1-2.36.53H32v-.26Zm3-3.6c.72 0 1.08-.1 1.32-.31.25-.21.37-.58.37-1.12 0-.39-.08-.72-.24-1-.16-.26-.47-.4-.93-.4-.48 0-.52.12-.52.5v2.33Zm0 2.9c0 .4.1.63.51.63.55 0 .93-.14 1.15-.4.23-.27.34-.65.34-1.14 0-.74-.25-1.23-.73-1.47-.3-.15-.64-.22-1.27-.2v2.58ZM29 21a1 1 0 1 0 0-2 1 1 0 0 0 0 2Z" fill="#fff"/><path fill-rule="evenodd" d="M28.01 32a8 8 0 1 0 .02-16.01A8 8 0 0 0 28 32Zm-7.4-8.53h2.72V24H20.6c0 .7.09 1.36.27 2h2.06v.53h-1.9c.2.52.44 1.01.74 1.47h1.46v.53h-1.1a7.56 7.56 0 0 0 2.27 1.94h7.25c.26-.14.5-.3.74-.47H32v-2h-.5v2h-1v-2H30v2h-1v-3.69h-.58V30h-.87v-3.69h-.09l.17-3.34c-.33.28-1.03.86-1.18.97.19.2.3.63.3 1.03 0 .26-.05.54-.1.82A10.35 10.35 0 0 0 26.5 27h.01v3h-1v-2.6H25V30h-1v-5.66l.6-.42a1 1 0 1 1 1.4-1L28.7 21l.58.57c.14-.19.48-.57.63-.57.7 0 .96 1.2 1.06 1.65l.01.06c.22-.17.74-.37.94-.37 1.45 0 2.08 2.12 2.08 2.72 0 .53-.22.75-.42.95l-.07.08c.5.66.52 1.55.47 1.91h.29c.3-.46.54-.95.73-1.47h-1.08V26h1.25c.18-.64.27-1.3.27-2h-1.52v-.53h1.5a7.38 7.38 0 0 0-.4-1.94h-1.74V21h1.53a7.39 7.39 0 0 0-.54-1h-2.26c.88 0 .97.75.9 1.12a.34.34 0 0 0-.05.18c0 .04.03.09.06.14.03.07.08.14.08.25 0 .18-.22.26-.42.26-.08 0-.13-.02-.2-.03-.07-.02-.17-.05-.38-.05-.22 0-.36.05-.47.09a.6.6 0 0 1-.17.04c-.14 0-.36-.08-.36-.29 0-.16.19-.3.28-.36-.04-.1-.11-.35-.11-.5 0-.46.35-.85.82-.85h-1.4v-.53h3.3a7.47 7.47 0 0 0-.86-.94H23c-.32.29-.6.6-.87.94h5.42V20h-5.8c-.2.32-.38.65-.53 1h2.29v.53h-2.5a7.37 7.37 0 0 0-.4 1.94ZM23.64 18h8.73a6.9 6.9 0 0 0-.86-.54H24.5c-.3.16-.59.34-.86.54ZM33.9 28.53a7.5 7.5 0 0 1-.9.97v-.97h.9ZM30.47 31h-4.92a7.43 7.43 0 0 0 4.92 0Z" fill="#fff"/><defs><linearGradient id="ansb055hn" x1="28" y1="13" x2="28" y2="43" gradientUnits="userSpaceOnUse"><stop offset=".24" stop-color="#981A20"/><stop offset=".78" stop-color="#5F0F12"/></linearGradient></defs></svg>