<?xml version="1.0" encoding="UTF-8"?>
<!-- generated by Finnhub -->
<svg viewBox="0 0 55.5 55.5" xmlns="http://www.w3.org/2000/svg">
<path d="M 0,0 H 55.5 V 55.5 H 0 Z" fill="rgb(254, 241, 2)"/>
<path d="M 46.25,35.464999999999996 A 6.87,6.87 0 0,1 42.93,38.48 C 42.13,38.86 41.31,39.18 40.48,39.43 C 37.38,40.38 34.11,40.8 30.84,40.93 C 28.29,41.05 25.84,41.01 23.47,40.83 A 42.59,42.59 0 0,1 18.4,40.14 A 23.56,23.56 0 0,1 13.1,38.48 A 6.42,6.42 0 0,1 10.6,28.25 C 13.6,24.66 16.47,21.25 19.23,18.03 C 20.22,16.89 21.18,15.8 22.11,14.78 L 22.8,14.08 A 7.53,7.53 0 0,1 33.4,14.3 C 33.8,14.7 34.27,15.21 34.82,15.84 C 38.51,20.03 42.14,24.35 45.65,28.56 A 6.42,6.42 0 0,1 46.26,35.48 Z"/>
<path d="M 22.95,22.275 C 22.95,22.27 22.94,22.26 22.92,22.28 L 21.13,24.04 A 0.06,0.06 0 0,1 21.09,24.06 H 20.18 V 24.04 L 22.76,21.5 A 0.07,0.07 0 0,0 22.78,21.44 A 5.22,5.22 0 0,1 28.61,15.68 A 5.26,5.26 0 0,1 32.85,18.85 H 32.15 C 32.13,18.85 32.11,18.85 32.1,18.83 A 4.61,4.61 0 0,0 24.64,17.77 A 4.48,4.48 0 0,0 23.42,20.8 C 23.42,20.83 23.42,20.84 23.45,20.81 L 26.23,18.08 C 26.43,17.88 26.69,17.73 26.99,17.63 C 27.19,17.57 27.47,17.53 27.81,17.54 H 29.03 C 29.33,17.54 29.57,17.57 29.77,17.63 A 1.8,1.8 0 0,1 30.31,20.81 V 20.83 A 1.8,1.8 0 0,1 29.76,24.01 C 29.6,24.06 29.39,24.09 29.13,24.09 A 62.4,62.4 0 0,0 27.66,24.07 V 22.67 C 27.66,22.65 27.65,22.63 27.63,22.63 A 1.85,1.85 0 0,1 26.15,21.17 L 26.13,21.16 H 24.1 C 24.08,21.16 24.06,21.16 24.05,21.18 L 23.54,21.68 L 23.53,21.7 V 21.73 A 4.53,4.53 0 0,0 25.9,24.83 A 4.63,4.63 0 0,0 32.15,22.83 L 32.84,22.82 A 0.01,0.01 0 0,1 32.86,22.83 V 22.84 A 5.3,5.3 0 0,1 22.96,22.29 Z M 27.63,19 C 26.93,19.16 26.29,19.7 26.17,20.44 C 26.17,20.46 26.15,20.48 26.13,20.48 H 24.78 C 24.75,20.48 24.75,20.47 24.76,20.45 L 26.66,18.58 C 26.93,18.32 27.25,18.19 27.63,18.2 C 27.65,18.2 27.66,18.22 27.66,18.24 V 18.97 C 27.66,18.98 27.66,18.99 27.63,19 Z M 28.37,19 A 1.91,1.91 0 0,1 29.57,19.8 V 19.81 H 28.61 L 28.37,19.69 C 28.35,19.67 28.34,19.69 28.34,19.71 V 20.45 C 28.34,20.47 28.35,20.48 28.37,20.48 H 29.11 C 29.51,20.48 29.86,20.37 30.11,20.07 C 30.73,19.32 30.21,18.22 29.23,18.21 H 28.37 C 28.35,18.21 28.34,18.21 28.34,18.24 V 18.97 C 28.34,18.98 28.34,18.99 28.37,19 Z M 27.62,21.93 C 26.52,21.49 26.54,20.11 27.63,19.69 A 0.02,0.02 0 0,1 27.65,19.69 L 27.66,19.71 V 21.91 C 27.66,21.93 27.65,21.94 27.62,21.93 Z M 28.67,21.81 H 29.55 C 29.57,21.81 29.58,21.81 29.56,21.84 A 1.9,1.9 0 0,1 28.36,22.62 L 28.34,22.64 V 23.4 A 0.02,0.02 0 0,0 28.36,23.41 H 29.02 C 29.27,23.42 29.47,23.4 29.62,23.34 A 1.12,1.12 0 0,0 29.66,21.23 C 29.51,21.17 29.32,21.13 29.11,21.14 H 28.37 C 28.35,21.14 28.34,21.15 28.34,21.18 V 21.91 C 28.34,21.94 28.35,21.95 28.38,21.93 L 28.61,21.83 C 28.63,21.81 28.65,21.81 28.67,21.81 Z" fill="rgb(254, 241, 2)" fill-rule="evenodd"/>
<path d="M 42.910000000000004,34.635 C 41.92,35.22 40.22,35.05 39.27,34.45 A 0.05,0.05 0 0,1 39.24,34.41 L 39.39,33.23 C 39.39,33.21 39.39,33.21 39.41,33.22 C 39.97,33.66 40.62,33.89 41.37,33.92 C 41.6,33.92 41.82,33.9 42.01,33.84 C 42.34,33.74 42.6,33.45 42.45,33.12 C 42.35,32.89 42.04,32.76 41.81,32.7 C 41.27,32.55 40.73,32.44 40.21,32.25 C 39.81,32.09 39.37,31.73 39.26,31.29 C 39.11,30.69 39.22,30.17 39.58,29.73 C 40.18,29.03 41.28,28.93 42.14,29.03 C 42.63,29.09 43.09,29.25 43.52,29.49 C 43.54,29.5 43.55,29.52 43.54,29.54 L 43.16,30.51 C 43.15,30.53 43.14,30.53 43.12,30.52 A 2.8,2.8 0 0,0 40.96,30.16 C 40.49,30.31 40.27,30.93 40.8,31.18 C 41.03,31.28 41.28,31.36 41.57,31.43 C 42.05,31.53 42.47,31.66 42.85,31.81 C 43.35,32 43.74,32.44 43.78,32.98 C 43.85,33.72 43.56,34.28 42.92,34.65 Z M 17.68,33.76 L 17.52,34.99 L 17.51,35 H 13 A 0.02,0.02 0 0,1 12.99,34.98 V 29 H 14.34 V 33.75 H 17.66 A 0.02,0.02 0 0,1 17.66,33.76 V 33.77 Z M 26.98,30.26 H 25.02 A 0.02,0.02 0 0,1 25,30.26 V 30.24 L 25.15,29.02 L 25.16,29 H 30.19 V 29.02 L 30.35,30.24 A 0.02,0.02 0 0,1 30.34,30.26 H 28.35 V 34.98 A 0.02,0.02 0 0,1 28.34,34.99 L 28.32,35 H 27.02 A 0.02,0.02 0 0,1 27,34.99 V 30.27 L 26.99,30.26 Z M 33.92,33.5 C 34.87,34.1 36,33.44 36,32.33 V 29.03 C 36,29.01 36.06,29 36.08,29 H 37.33 C 37.35,29 37.36,29.01 37.36,29.03 V 32.2 C 37.36,32.53 37.33,32.8 37.26,33.02 A 2.66,2.66 0 0,1 34.9,34.99 A 2.67,2.67 0 0,1 32,32.14 V 29.03 C 32,29.01 32.01,29 32.03,29 H 33.27 C 33.29,29 33.3,29.01 33.3,29.03 V 32.39 C 33.3,32.83 33.55,33.26 33.92,33.49 Z M 23.27,34.12 A 2.96,2.96 0 0,0 23.27,29.88 A 3.14,3.14 0 0,0 18.9,29.88 A 2.96,2.96 0 0,0 18.9,34.12 A 3.14,3.14 0 0,0 23.27,34.12 Z M 22.95,32 C 22.95,33 22.11,33.8 21.09,33.8 C 20.06,33.8 19.23,33 19.23,32 S 20.06,30.2 21.09,30.2 C 22.11,30.2 22.95,31 22.95,32 Z" fill="rgb(254, 241, 2)"/>
</svg>
