<?xml version="1.0" encoding="UTF-8"?>
<!-- generated by Finnhub -->
<svg viewBox="0 0 55.5 55.5" xmlns="http://www.w3.org/2000/svg">
<path d="M 0,0 H 55.5 V 55.5 H 0 Z" fill="rgb(239, 242, 248)"/>
<path d="M 4.99,21.985 H 6 V 33 H 11 V 34 H 5 V 22 Z M 15.43,23.94 A 3.42,3.42 0 0,0 15,25.5 V 30.5 C 15,31.03 15.12,31.68 15.42,32.17 C 15.72,32.64 16.19,33 17,33 S 18.28,32.64 18.58,32.17 C 18.88,31.67 19,31.03 19,30.5 V 25.5 C 19,25.15 18.89,24.5 18.57,23.94 A 1.72,1.72 0 0,0 17,23 C 16.22,23 15.74,23.4 15.43,23.94 Z M 14.57,23.44 A 2.72,2.72 0 0,1 17,22 C 18.22,22 19,22.68 19.43,23.44 C 19.86,24.17 20,25.01 20,25.5 V 30.5 C 20,31.14 19.87,32 19.42,32.7 A 2.7,2.7 0 0,1 17,34 A 2.7,2.7 0 0,1 14.58,32.7 A 4.29,4.29 0 0,1 14,30.5 V 25.5 C 14,25.01 14.14,24.17 14.57,23.44 Z M 26,23 H 23 V 22 H 30 V 23 H 27 V 34 H 26 V 23 Z" fill="rgb(69, 69, 69)"/>
<path d="M 41.99,21.985 H 36 V 23 H 40.5 L 36,33 L 36.5,34 L 42,22 Z M 48.5,22 C 50.23,22 51,23.42 51,25 C 51,26.27 50.3,27.08 49.61,27.53 C 50.68,28.16 52,29.13 52,30.5 C 52,32.68 50.75,34 48.5,34 C 46.4,34 45,32.63 45,30.5 C 45,29.84 45.52,28.47 47.45,27.44 C 46.35,26.6 46,25.58 46,25 C 46,23.54 46.89,22 48.5,22 Z M 48.5,27 C 49.5,26.5 50,26.15 50,25 C 50,23.97 49.66,23 48.5,23 C 47.45,23 47,24.1 47,25 C 47,25.28 47.45,26.5 48.5,27 Z M 48.48,28.05 C 46.3,28.99 46,30.26 46,30.5 C 46,32.08 46.93,33 48.5,33 C 50.24,33 51,32.15 51,30.5 C 51,29.33 49.34,28.5 48.48,28.05 Z" fill="rgb(189, 188, 189)"/>
</svg>
