<?xml version="1.0" encoding="UTF-8"?>
<!-- generated by Finnhub -->
<svg viewBox="0 0 55.5 55.5" xmlns="http://www.w3.org/2000/svg">
<path d="M 0,0 H 55.5 V 55.5 H 0 Z" fill="rgb(239, 242, 248)"/>
<path d="M 8.99,23.985 V 35 H 12 V 24 H 16 V 21 H 5 V 24 H 9 Z M 5.5,23.5 H 9.5 V 34.5 H 11.5 V 23.5 H 15.5 V 21.5 H 5.5 V 23.5 Z M 20.46,21 H 17 L 21.57,35 H 24.24 L 26.9,26.57 L 29.7,35 H 32.3 L 37,21 H 33.76 L 31.03,29.27 L 28.33,21 H 25.67 L 23.03,29.27 L 20.46,21 Z M 26.03,21.5 L 23.03,30.93 L 20.09,21.5 H 17.69 L 21.93,34.5 H 23.87 L 26.89,24.94 L 30.06,34.5 H 31.94 L 36.3,21.5 H 34.12 L 31.02,30.87 L 27.97,21.5 H 26.03 Z M 44,34.5 A 6.5,6.5 0 1,0 44,21.5 A 6.5,6.5 0 0,0 44,34.5 Z M 48.5,28 A 4.5,4.5 0 1,1 39.5,28 A 4.5,4.5 0 0,1 48.5,28 Z M 51,28 A 7,7 0 1,1 37,28 A 7,7 0 0,1 51,28 Z M 48,28 A 4,4 0 1,1 40,28 A 4,4 0 0,1 48,28 Z" fill-rule="evenodd"/>
</svg>
