<?xml version="1.0" encoding="UTF-8"?>
<!-- generated by Finnhub -->
<svg viewBox="0 0 55.5 55.5" xmlns="http://www.w3.org/2000/svg">
<path d="M0 0h55.5v55.5H0z" fill="rgb(239, 242, 248)"/>
<path d="M27.8 12.27v15.6H12.27l15.53-15.6Z" fill="url(#d)"/>
<path d="M28.2 12.27v15.6h15.53L28.2 12.27Z" fill="url(#c)"/>
<path d="M27.8 43.7V28.2H12.37L27.8 43.7Z" fill="url(#b)"/>
<path d="M28.2 43.73V28.2h15.53L28.2 43.73Z" fill="url(#a)"/>
<path d="M21 19v18h15v-2H23V19h-2Zm3 15V19h6.87A4.15 4.15 0 0 1 35 23.1v.12a4.36 4.36 0 0 1-3.5 4.23 5.96 5.96 0 0 1 1.57 1.5L36 34h-2.34s-2.37-4.07-3.17-5.32c-.37-.59-.9-.96-1.36-1.18H26V34h-2Zm2-13h4.6c1.32 0 2.4 1 2.4 2.25 0 1.24-1.08 2.25-2.4 2.25H26V21Z" fill="rgb(239, 242, 248)" fill-rule="evenodd"/>
<path d="M28 10 10 28l18 18 18-18-18-18Zm0 1.72L11.72 28 28 44.28 44.28 28 28 11.72Z" fill="rgb(4, 126, 198)" fill-rule="evenodd"/>
<defs>
<linearGradient id="d" x1="27.47" x2="13.12" y1="27.66" y2="24.13" gradientUnits="userSpaceOnUse">
<stop stop-color="rgb(134, 164, 217)" offset="0"/>
<stop stop-color="rgb(235, 248, 253)" offset="1"/>
</linearGradient>
<linearGradient id="c" x1="39.47" x2="28.36" y1="29.03" y2="13.64" gradientUnits="userSpaceOnUse">
<stop stop-color="rgb(152, 178, 226)" offset=".47"/>
<stop stop-color="rgb(235, 248, 253)" offset="1"/>
</linearGradient>
<linearGradient id="b" x1="24" x2="24" y1="42.68" y2="28.41" gradientUnits="userSpaceOnUse">
<stop stop-color="rgb(1, 129, 203)" offset="0"/>
<stop stop-color="rgb(150, 172, 220)" offset="1"/>
</linearGradient>
<linearGradient id="a" x1="39.41" x2="28.66" y1="40.42" y2="40.92" gradientUnits="userSpaceOnUse">
<stop stop-color="rgb(1, 129, 201)" offset=".07"/>
<stop stop-color="rgb(113, 162, 219)" offset="1"/>
</linearGradient>
</defs>
</svg>
