<?xml version="1.0" encoding="UTF-8"?>
<!-- generated by Finnhub -->
<svg viewBox="0 0 55.5 55.5" xmlns="http://www.w3.org/2000/svg">
<path d="M 0,0 H 55.5 V 55.5 H 0 Z" fill="rgb(239, 242, 248)"/>
<path d="M 16.99,15.014999999999999 V 27.89 C 16.98,28.19 16.62,28.96 16.02,29.57 H 24 V 34.67 C 23.99,34.86 23.71,35.35 23.13,35.81 V 36 H 26.86 V 35.8 C 26.59,35.67 26.04,35.24 26.04,34.67 V 29.57 H 27.94 C 28.44,29.73 28.94,30 29.31,30.41 C 29.81,30.97 30.35,31.65 30.87,32.3 A 24.8,24.8 0 0,0 32.51,34.24 L 32.61,34.34 C 33.43,35.14 34.94,36.64 38.76,36.64 C 40.64,36.64 42.06,36.32 43.02,35.97 A 17,17 0 1,1 17,15.03 Z M 28.7,11 H 28.65 C 21.19,11 18.77,17.44 18.49,20.66 V 28.49 C 18.49,28.77 18.71,29 18.99,29 H 27.99 C 29.87,29 31.39,27.26 31.39,25.38 C 31.39,23.49 29.87,21.7 27.99,21.7 H 26.46 C 26.18,21.7 26,21.92 26,22.2 V 28 H 24 V 22.85 C 24,21.99 23.66,21.52 23.47,21.39 V 21 H 28.7 C 30.91,21 33.38,23.12 33.38,25.34 C 33.38,27.26 31.66,29.02 29.76,29.46 C 31.16,29.92 32.03,31.13 32.95,32.38 C 34.23,34.13 35.58,35.98 38.51,35.98 C 42.71,35.98 44.41,32.52 44.8,30.61 A 17,17 0 0,0 28.7,11 Z" fill="rgb(34, 51, 96)"/>
</svg>
