<?xml version="1.0" encoding="UTF-8"?>
<!-- generated by Finnhub -->
<svg viewBox="0 0 55.5 55.5" xmlns="http://www.w3.org/2000/svg">
<path d="M 0,0 H 55.5 V 55.5 H 0 Z" fill="rgb(239, 242, 248)"/>
<path d="M 25.13,10.985 H 29.28 L 32.38,20.2 L 32.46,20 H 36.31 L 33,29 H 34.54 C 38.39,29 41,31.26 41,34.78 C 41,42.96 29.61,45 24,45 L 28.69,30.5 H 25.74 L 25.24,31.66 L 23.65,29.86 L 26.7,28 L 26.2,29 H 29.23 L 30.43,25.67 L 27.2,16.42 L 19.97,37 H 16 L 25.14,11 Z M 28.35,42.85 L 32.45,30.5 H 33.95 C 35.26,30.61 38,31.49 38,34.78 C 38,38.9 34.22,42.6 28.35,42.85 Z" fill="rgb(245, 25, 40)" fill-rule="evenodd"/>
</svg>
