<!-- by Finnhub --><svg width="56" height="56" viewBox="0 0 56 56" xmlns="http://www.w3.org/2000/svg"><path fill="#F0F3FA" d="M0 0h56v56H0z"/><path d="M24 8c-.4 0-.83.35-1 .53h1c.5 0 1 1.05 1.5 1.05s.5-.52 1-.52c.4 0 .83.35 1 .52V8.53c-.17-.18-.6-.53-1-.53-.5 0-.5.53-1 .53S24.5 8 24 8Z" fill="url(#a1augikkq)"/><path d="M27.5 16.97c-1.6 0-5 1.76-6.5 2.64.5-.7 1.5-2.53 1.5-4.22s-.67-3.17-1-3.7c.83-.17 4-.52 6-.52s4.83.35 6 .52c-.33.88-1 2.85-1 3.7 0 .84 1 3.17 1.5 4.22-1.5-.88-4.9-2.64-6.5-2.64Z" fill="url(#b1augikkq)"/><path d="M27 30.17c-2.8.42-6.17 2.28-7.5 3.16 4 2.11 4.5 6.34 4.5 7.4 0 1.05-.31 2.1-3 2.1-1.6 0-2.67 1.41-3 2.11a22 22 0 0 0 6.5-1.05c.4.84 1.83 1.05 2.5 1.05V30.17ZM28 30.17c2.8.42 6.17 2.28 7.5 3.16-4 2.11-4.5 6.34-4.5 7.4 0 1.05 1 2.1 3 2.1 1.6 0 2.67 1.41 3 2.11a22 22 0 0 1-6.5-1.05c-.4.84-1.83 1.05-2.5 1.05V30.17Z" fill="#504C40"/><path d="M27.5 18.56c-1.2 0-6.17 1.75-8.5 2.63.33 1.24 1 3.91 1 4.75 0 .85-2 5.28-3 7.4 2.67-1.41 8.5-4.23 10.5-4.23s7.83 2.82 10.5 4.22c-1-1.93-3-6.12-3-7.39 0-1.26.67-3.69 1-4.75-2.33-.88-7.3-2.63-8.5-2.63Z" fill="url(#c1augikkq)"/><path d="M27.6 8v36.94h-.2V8h.2Z" fill="#504C40"/><path d="M33.5 42.3c-2 0-3 2.12-5.5 2.12-1.98 0-3.47-2.42-3.99-3.66.02 1.62-1.51 2.07-3.01 2.07-1.5 0-2 1.59-2 2.11 0 .53 1 1.06 2 1.06.8 0 2.33-1.4 3-2.11.5.7 2 2.11 4 2.11s4.5-1.94 5.5-2.64a3.75 3.75 0 0 0 3.5 1.06c-.5-.7-1.9-2.11-3.5-2.11Z" fill="url(#d1augikkq)"/><path d="M26 27h-1.5v-.53c.4 0 .5-.35.5-.53v-3.69l-.5-.53H26l1.5 4.22 2-4.22h1l-.5.53v3.7c0 .42.33.52.5.52V27H29v-.53c.4 0 .5-.35.5-.53v-3.16l-2 4.22H27l-1.5-4.22v3.16c0 .43.33.53.5.53V27Z" fill="#504C40"/><defs><linearGradient id="a1augikkq" x1="23.5" y1="8.53" x2="27.51" y2="9" gradientUnits="userSpaceOnUse"><stop stop-color="#AB7731"/><stop offset=".46" stop-color="#F9CD4B"/><stop offset="1" stop-color="#AC7128"/></linearGradient><linearGradient id="b1augikkq" x1="22" y1="13.81" x2="33" y2="13.81" gradientUnits="userSpaceOnUse"><stop stop-color="#A06B32"/><stop offset=".35" stop-color="#D5A52A"/><stop offset=".52" stop-color="#FACF4C"/><stop offset=".66" stop-color="#D6A434"/><stop offset="1" stop-color="#AC7128"/></linearGradient><linearGradient id="c1augikkq" x1="19.5" y1="27.53" x2="36" y2="27.53" gradientUnits="userSpaceOnUse"><stop stop-color="#AB7626"/><stop offset=".24" stop-color="#E1B332"/><stop offset=".48" stop-color="#FCCA2E"/><stop offset=".67" stop-color="#E6B733"/><stop offset="1" stop-color="#A46E39"/></linearGradient><linearGradient id="d1augikkq" x1="19" y1="43.89" x2="36.5" y2="44.36" gradientUnits="userSpaceOnUse"><stop stop-color="#A27026"/><stop offset="1" stop-color="#F2C94A"/></linearGradient></defs></svg>