<?xml version="1.0" encoding="UTF-8"?>
<!-- generated by Finnhub -->
<svg viewBox="0 0 55.5 55.5" xmlns="http://www.w3.org/2000/svg">
<path d="M 0,0 H 55.5 V 55.5 H 0 Z" fill="rgb(1, 127, 130)"/>
<path d="M 35.99,32.085 L 34.47,33.52 A 31.36,31.36 0 0,1 28,40.02 C 20.82,45.23 15,43.43 15,35.97 C 15,28.54 20.82,18.2 28,13 V 15.15 C 21.96,19.56 17.07,28.22 17.07,34.45 C 17.07,40.73 22,42.25 28,37.87 C 31.37,35.39 33.99,31.59 36,27.6 M 28,19.88 C 24.5,22.42 21.65,27.44 21.65,31.08 C 21.65,34.68 24.5,35.58 28,33.04 A 17,17 0 0,0 33.39,26.03 L 28,29.95 V 27.8 C 29.83,26.48 34.33,22.97 36,21.75 C 35.38,26.42 32.2,32.21 28,35.26 C 23.36,38.64 19.58,37.45 19.58,32.62 C 19.58,27.8 23.36,21.14 28,17.76 M 41,28.73 L 39,30.24 V 17.25 L 28,25.19 V 23.04 L 41,13.58" fill="rgb(254, 254, 253)"/>
</svg>
