<?xml version="1.0" encoding="UTF-8"?>
<!-- generated by Finnhub -->
<svg viewBox="0 0 55.5 55.5" xmlns="http://www.w3.org/2000/svg">
<path d="M 0,0 H 55.5 V 55.5 H 0 Z" fill="rgb(239, 242, 248)"/>
<path d="M 22.99,12.985 H 14 V 38 H 23 V 13 Z M 18.9,34.95 C 18.7,34.98 18.48,35 18.27,35 C 16.47,35 15,33.66 15,32 S 16.46,29 18.27,29 C 19.34,29 20.28,29.47 20.88,30.2 L 20.11,30.86 A 2.34,2.34 0 0,0 18.25,30 C 17.01,30 16,30.9 16,32 S 17,34 18.25,34 C 19.23,34 19.8,33.5 20.12,33 H 18.5 V 32 H 21 V 33 C 20.92,33.62 20.44,34.62 18.9,34.95 Z" fill="rgb(87, 134, 37)"/>
<path d="M 31.99,12.985 H 24 V 38 H 32 V 13 Z M 26,35 V 29 H 27.63 C 28.25,29 29.49,29.36 29.49,30.7 C 29.49,31.82 28.73,32.27 28.15,32.46 L 30,35 H 28.87 L 27.16,32.57 H 27 V 35 H 26 Z M 27.55,30 H 26.96 V 31.53 H 27.55 C 28.08,31.53 28.52,31.19 28.52,30.77 C 28.52,30.34 28.08,30 27.55,30 Z" fill="rgb(118, 158, 43)"/>
<path d="M 41.99,12.985 H 33 V 38 H 42 V 13 Z M 35,35 V 29 L 39,32.89 V 29 H 40 V 35 C 38.63,33.67 36,31.01 36,31.01 V 35 H 35 Z" fill="rgb(154, 199, 55)"/>
<path d="M 13.99,38.985 H 14.85 V 40.1 H 16.15 V 39 H 17 V 42 H 16.15 V 40.7 H 14.85 V 42 H 14 V 39 Z M 24.79,39 H 24 V 42 H 25.8 V 41.4 H 24.8 V 39 Z M 32,39 H 31.3 V 42 H 32 V 39 Z M 20.5,42 A 1.5,1.5 0 1,0 20.5,39 A 1.5,1.5 0 0,0 20.5,42 Z M 20.5,41.3 A 0.8,0.8 0 1,0 20.5,39.7 A 0.8,0.8 0 0,0 20.5,41.3 Z M 27,39 H 28.27 C 29.07,39 29.71,39.61 29.71,40.36 V 40.64 A 1.4,1.4 0 0,1 28.27,42 H 27 V 39 Z M 27.7,39.6 H 28.03 C 28.56,39.6 28.99,40 28.99,40.5 S 28.56,41.4 28.03,41.4 H 27.69 V 39.6 Z M 34,39 V 42 H 34.72 V 40.14 L 36.25,42 H 37 V 39 H 36.25 V 40.95 L 34.72,39 H 34 Z M 42,40.5 A 1.5,1.5 0 1,1 41.84,39.82 L 41.18,40.08 A 0.77,0.77 0 0,0 40.52,39.7 A 0.78,0.78 0 0,0 39.75,40.5 C 39.75,40.94 40.1,41.3 40.52,41.3 C 40.82,41.3 41.07,41.13 41.2,40.88 H 40.53 V 40.35 H 42 L 42.01,40.5 Z" fill="rgb(87, 134, 37)" fill-rule="evenodd"/>
</svg>
