<?xml version="1.0" encoding="UTF-8"?>
<!-- generated by Finnhub -->
<svg viewBox="0 0 55.5 55.5" xmlns="http://www.w3.org/2000/svg">
<path d="M0 0h55.5v55.5H0z" fill="url(#a)"/>
<path d="M38 23.04V20l-7.78 8.1L22.5 20v3.66l7.72 8.04 5.28-5.41V36H38v-3.04A8.82 8.82 0 0 1 36.5 28c0-1.85.56-3.56 1.5-4.96ZM14.47 31.7 7 23.66V20l7.47 8.1L22 20v16h-2.5v-9.71l-5.03 5.4ZM44.55 36c1.02 0 2-.22 2.89-.6l-2.75-2.03h-.14c-2.8 0-5.07-2.4-5.07-5.37s2.27-5.37 5.07-5.37c1.43 0 2.72.62 3.64 1.63l1.81-1.8A7.33 7.33 0 0 0 44.55 20C40.38 20 37 23.58 37 28s3.38 8 7.55 8Z" fill="rgb(249, 202, 9)"/>
<defs>
<linearGradient id="a" x1="10.42" x2="68.15" y1="9.71" y2="76.02" gradientUnits="userSpaceOnUse">
<stop stop-color="rgb(25, 29, 31)" offset="0"/>
<stop stop-color="rgb(5, 5, 8)" offset="1"/>
</linearGradient>
</defs>
</svg>
