<?xml version="1.0" encoding="UTF-8"?>
<!-- generated by Finnhub -->
<svg viewBox="0 0 55.5 55.5" xmlns="http://www.w3.org/2000/svg">
<path d="M 0,0 H 55.5 V 55.5 H 0 Z" fill="rgb(239, 242, 248)"/>
<path d="M 27.99,9.985 L 14,17.07 V 34.5 L 28,47 L 42,34.49 V 17.07 L 28,10 Z" fill="url(#a)"/>
<path d="M 27.99,45.894999999999996 V 11.1 L 41,17.63 V 33.95 L 28,45.91 Z" fill="rgb(60, 58, 58)"/>
<path d="M 14.99,33.925 V 17.62 L 28,11.09 V 45.9 L 15,33.94 Z" fill="rgb(0, 2, 2)"/>
<path d="M 27.99,14.334999999999999 L 17,19.8 V 32.86 L 28,42.66 V 14.36 Z" fill="rgb(253, 165, 2)"/>
<path d="M 27.99,14.334999999999999 L 39,19.79 V 32.85 L 28,42.65 V 14.35 Z" fill="rgb(252, 188, 61)"/>
<path d="M 21.59,32.985 H 17.23 L 28,21.27 V 33 H 26 V 28.67 L 21.6,33 Z"/>
<path d="M 27.99,32.985 V 21.23 L 29,20 V 28.67 L 37,20 V 33 H 34 V 28.67 L 29.8,33 H 28 Z" fill="rgb(69, 59, 56)"/>
<defs>
<linearGradient id="a" x1="14" x2="42" y1="29.04" y2="29.04" gradientUnits="userSpaceOnUse">
<stop stop-color="rgb(238, 162, 2)" offset="0"/>
<stop stop-color="rgb(239, 190, 84)" offset="1"/>
</linearGradient>
</defs>
</svg>
