<!-- by Finnhub --><svg width="56" height="56" viewBox="0 0 56 56" xmlns="http://www.w3.org/2000/svg"><path fill="#F0F3FA" d="M0 0h56v56H0z"/><path fill-rule="evenodd" d="m5 28 1.1-8h.12l2.87 4.1L13.1 20h.2l-1.07 7.29L15.78 21h.21l1.93 6.72L19 21h2.17c.7.03 2.11.54 2.11 2.28 0 1.19-.78 1.89-1.59 2.28l.76 1.47 3.4-6.03h.2l2.14 7h-1.4l-.28-1h-2.7l-.53 1h-1.85l-1.08-2.03a2.4 2.4 0 0 1-.32.03h-.48l-.35 2h-2.48l-1.2-4.39L13.2 28H10.73l.68-4.42-2.44 2.66h-.2l-1.83-2.66L6.36 28H5Zm15.06-6-.33 3h.56c.82 0 1.65-.51 1.65-1.77 0-1-.64-1.24-.97-1.23h-.91Zm5.53 1.66.64 2.34h-1.89l1.25-2.34ZM27.36 22l.22-1h6.31l-.56 4h2.81l.57-4h1.34l-.99 7h-1.35l.29-2h-2.81l-.29 2h-1.34l.85-6h-1.88l-.89 6h-1.26l.78-6h-1.8ZM38 25.27c0-1.41 1.04-4.27 4.02-4.27 1 0 2.98.62 2.98 3.11 0 3.1-2.9 3.89-4.05 3.89A2.79 2.79 0 0 1 38 25.27Zm1.28-.22c0-1 .66-3.05 2.55-3.05.63 0 1.89.45 1.89 2.22A2.64 2.64 0 0 1 41.15 27c-1.46 0-1.85-1.3-1.87-1.95ZM44.66 28l.98-7h.25l3.4 3.95.45-3.95H51l-.9 7h-.23l-3.44-4.17-.45 4.17h-1.32ZM19.98 38l.79-8h1.75c.63.03 1.88.5 1.88 2.1 0 .93-.54 1.53-.8 1.72.33.1.99.6.99 1.8 0 1.52-.8 2.38-2.6 2.38h-2.01Zm2.04-6.97-.26 2.42c.15 0 1.36 0 1.36-1.35 0-1.08-.73-1.16-1.1-1.07ZM21.05 37l.37-2.5h1.07c.38 0 1.12.23 1.12 1.08 0 1.14-.74 1.42-1.12 1.42h-1.44Zm4.15 1h-1.38l3.94-7h.2l1.92 6.26.9-6.26h.25l3.47 3.95.44-3.95h1.29l-.92 7h-.23l-3.5-4.17-.46 4.17H28.7l-.28-1h-2.7l-.52 1Zm2.3-4.34.65 2.34h-1.9l1.25-2.34ZM36.74 31l-.84 7h1.22l.38-3.07L39.78 38h1.53l-2.85-3.7 3.15-3.3h-1.56l-2.4 2.63.33-2.63h-1.24Z" fill="#005899"/><path d="m12.29 31.83-1.75 3.88 3.92-2.06 3.6 2.06-1.02-3.88L20.27 29h-3.91l-.87-3.61L13.63 29H9.15l3.14 2.83Z" fill="url(#a0effkn2f)"/><path d="m21.31 29-.42.32h29.17l.21-.32H21.31Z" fill="#FEBE10"/><defs><linearGradient id="a0effkn2f" x1="9.63" y1="29.04" x2="16.86" y2="34.74" gradientUnits="userSpaceOnUse"><stop stop-color="#FEBF0F"/><stop offset=".55" stop-color="#FFEC00"/><stop offset="1" stop-color="#FFC00E"/></linearGradient></defs></svg>