<?xml version="1.0" encoding="UTF-8"?>
<!-- generated by Finnhub -->
<svg viewBox="0 0 55.5 55.5" xmlns="http://www.w3.org/2000/svg">
<path d="M 0,0 H 55.5 V 55.5 H 0 Z" fill="rgb(239, 242, 248)"/>
<path d="M 10.99,17.985 V 38 H 15 V 22.81 L 19.87,38 H 22.92 L 28,22.81 V 38 H 32 V 18 H 26.94 L 21.4,33.05 L 16.11,18 H 11 Z" fill="rgb(42, 47, 148)"/>
<path d="M 38.99,23.985 V 38 H 41 V 24 H 49 V 22 H 30.8 V 24 H 39 Z" fill="rgb(42, 47, 148)"/>
<path d="M 38.89,33.985 C 37.46,35.8 34.95,37 32.09,37 C 26.2,37 24,34.09 24,30.5 S 26.94,24 32.09,24 C 35.02,24 37.59,25.25 39,27.13 L 37,28 A 6.7,6.7 0 0,0 32,26 C 28.18,26 26,28.01 26,30.5 S 27.64,35 32,35 C 34.08,35 35.9,34.2 36.99,33 L 38.89,34 Z" fill="rgb(45, 183, 159)"/>
</svg>
