<?xml version="1.0" encoding="UTF-8"?>
<!-- generated by Finnhub -->
<svg viewBox="0 0 55.5 55.5" xmlns="http://www.w3.org/2000/svg">
<path d="M0 0h55.5v55.5H0z" fill="rgb(239, 242, 248)"/>
<path d="m28 44a16 16 0 1 0 0-32 16 16 0 0 0 0 32zm0 1a17 17 0 1 0 0-34 17 17 0 0 0 0 34z" fill="rgb(210, 84, 2)" fill-rule="evenodd"/>
<path d="M14 25v5h-1v-5c0-1.13.87-2 2-2 .68 0 1.18.26 1.5.64A1.9 1.9 0 0 1 18 23c1.13 0 2 .87 2 2v5h-1v-5c0-.58-.42-1-1-1-.58 0-1 .42-1 1v5h-1v-5c0-.58-.42-1-1-1-.58 0-1 .42-1 1Z" fill="rgb(210, 84, 2)"/>
<path d="M30.5 24.54c-.3.32-.5.8-.5 1.46v4h-1v-4c0-.85.26-1.61.8-2.16.53-.55 1.3-.84 2.2-.84.9 0 1.67.29 2.2.84.54.55.8 1.31.8 2.16v4h-1v-4c0-.65-.2-1.14-.5-1.46-.32-.33-.8-.54-1.5-.54s-1.18.21-1.5.54Z"/>
<path d="m39.5 29a2.5 2.5 0 1 0 0-5 2.5 2.5 0 0 0 0 5zm0 1a3.5 3.5 0 1 0 0-7 3.5 3.5 0 0 0 0 7z" fill-rule="evenodd"/>
<path d="M26.84 27.38a2.5 2.5 0 1 1 0-1.76l.94-.35a3.5 3.5 0 1 0 0 2.46l-.94-.35Z"/>
<path d="M13 31h30v2H13z" fill="rgb(210, 84, 2)" fill-opacity=".6"/>
</svg>
