<?xml version="1.0" encoding="UTF-8"?>
<!-- generated by Finnhub -->
<svg viewBox="0 0 55.5 55.5" xmlns="http://www.w3.org/2000/svg">
<path d="M 0,0 H 55.5 V 55.5 H 0 Z" fill="rgb(239, 242, 248)"/>
<path d="M 41.99,13.985 H 14 V 42 H 42 V 14 Z" fill="rgb(34, 30, 30)"/>
<path d="M 40.99,14.985 H 15 V 41 H 41 V 15 Z" fill="rgb(1, 72, 133)"/>
<path d="M 24.99,29.985 H 24 V 21.7 L 22.11,30 H 21.11 L 19,21.71 V 29.99 H 18 V 21 H 19.98 L 21.27,26.25 C 21.44,27.01 21.5,27.79 21.64,28.55 C 21.75,27.69 21.91,26.8 22.04,26.25 L 23.31,21 H 25 V 30 Z M 29.13,21 C 30.63,21 31.37,21.34 31.72,22.19 C 31.88,22.59 32,23.31 32,24.49 V 26.3 C 31.99,27.36 31.94,27.62 31.89,28.05 C 31.73,29.39 30.87,30 29.14,30 H 27 V 21 H 29.13 Z M 29.16,29 C 30.18,29 30.73,28.72 30.87,28 C 31.05,27.13 31,26.16 31,25.28 C 31,22.35 30.66,22 29.2,22 H 28 V 29 H 29.16 Z M 36.1,21 C 37.17,21 37.6,21.11 38.04,21.46 C 38.47,21.83 38.67,22.44 38.67,23.3 C 38.67,24.44 38.27,25 37.28,25.26 C 37.8,25.39 38.03,25.48 38.3,25.66 C 38.75,26 39,26.65 39,27.53 C 39,28.61 38.7,29.33 38.12,29.66 C 37.62,29.93 37.22,30 35.95,30 H 34 V 21 H 36.1 Z M 36.18,25 C 37.14,25 37.55,24.38 37.55,23.4 C 37.55,22.41 37.11,22 36.16,22 H 35 V 25 H 36.18 Z M 35.98,29 C 36.97,29 38,28.76 38,27.53 C 38,26.25 37.31,26 35.93,26 H 35 V 29 H 35.98 Z M 17,33 H 39 V 33.3 H 17 V 33 Z M 17.8,36.57 C 17.8,36.47 17.78,36.35 17.74,36.29 A 0.33,0.33 0 0,0 17.54,36.21 C 17.35,36.21 17.27,36.33 17.27,36.36 C 17.27,36.38 17.22,36.43 17.22,36.76 V 37.27 C 17.22,37.74 17.37,37.79 17.55,37.79 C 17.62,37.79 17.83,37.76 17.85,37.39 H 18.08 C 18.09,38 17.68,38 17.58,38 C 17.34,38 17,37.98 17,37.24 V 36.69 C 17,36.15 17.23,36 17.58,36 C 17.94,36 18.08,36.2 18.06,36.57 H 17.79 Z M 18.93,36 H 19.22 L 19.82,38 H 19.55 L 19.42,37.52 H 18.72 L 18.58,38 H 18.35 L 18.93,36 Z M 19.07,36.24 L 18.77,37.31 H 19.36 L 19.06,36.24 Z M 20,38 V 36 H 20.54 C 20.78,36 21.05,36.1 21.05,36.57 C 21.05,37.03 20.73,37.12 20.55,37.12 H 20.25 V 38 H 20 Z M 20.23,36.9 H 20.49 C 20.59,36.9 20.81,36.87 20.81,36.56 C 20.81,36.26 20.61,36.23 20.55,36.23 H 20.23 V 36.9 Z M 22,38 H 21.7 V 36 H 22 V 38 Z M 23.7,36 V 36.22 H 23.22 V 38 H 23 V 36.22 H 22.51 V 36 H 23.71 Z M 24.17,36 H 24.46 L 25.06,38 H 24.79 L 24.66,37.52 H 23.96 L 23.82,38 H 23.59 L 24.17,36 Z M 24.31,36.24 L 24.01,37.31 H 24.61 L 24.31,36.24 Z M 25.43,38 V 36 H 25.67 V 37.78 H 26.34 V 38 H 25.44 Z M 27.38,38 V 36 H 27.61 V 36.86 H 28.26 V 36 H 28.49 V 38 H 28.26 V 37.09 H 27.61 V 38 H 27.38 Z M 29,37.26 V 36.63 C 29,36.25 29.2,36 29.57,36 C 29.97,36 30.14,36.25 30.14,36.63 V 37.26 C 30.14,37.79 29.95,38 29.57,38 C 29.18,38 29,37.8 29,37.26 Z M 29.9,37.26 V 36.62 C 29.9,36.22 29.64,36.2 29.56,36.2 C 29.49,36.2 29.22,36.2 29.22,36.62 V 37.27 C 29.22,37.69 29.34,37.79 29.56,37.79 C 29.78,37.79 29.9,37.69 29.9,37.27 Z M 30.77,38 V 36 H 31 V 37.78 H 31.67 V 38 H 30.77 Z M 32,36 H 32.56 C 32.79,36 32.96,36.09 33.06,36.3 C 33.12,36.48 33.13,36.87 33.13,36.94 C 33.13,37.37 33.09,37.61 33.03,37.74 C 32.93,37.91 32.74,38 32.43,38 H 32 V 36 Z M 32.23,37.78 H 32.45 C 32.77,37.78 32.89,37.65 32.89,37.18 V 36.78 C 32.89,36.38 32.79,36.23 32.53,36.23 H 32.23 V 37.78 Z M 34,38 H 33.7 V 36 H 34 V 38 Z M 35.74,36 V 38 H 35.42 L 34.69,36.27 V 38 H 34.47 V 36 H 34.8 L 35.52,37.71 V 36 H 35.74 Z M 37.16,36.56 C 37.16,36.33 37.07,36.21 36.84,36.21 C 36.77,36.21 36.5,36.21 36.5,36.62 V 37.26 C 36.5,37.68 36.62,37.78 36.84,37.78 C 37.01,37.78 37.12,37.74 37.17,37.7 V 37.13 H 36.83 V 36.93 H 37.4 V 37.85 C 37.25,37.93 37.08,37.99 36.84,37.99 C 36.44,37.99 36.27,37.79 36.27,37.25 V 36.63 C 36.27,36.25 36.46,36.01 36.84,36.01 C 37.24,36.01 37.42,36.16 37.4,36.56 H 37.16 Z M 38.14,37.4 V 37.46 C 38.14,37.71 38.3,37.8 38.44,37.8 C 38.62,37.8 38.77,37.71 38.77,37.49 C 38.77,37.06 37.95,37.1 37.95,36.52 C 37.95,36.18 38.18,36 38.48,36 C 38.81,36 39,36.17 38.98,36.56 H 38.74 C 38.74,36.36 38.68,36.21 38.46,36.21 C 38.32,36.21 38.18,36.29 38.18,36.5 C 38.18,36.92 39,36.86 39,37.47 C 39,37.87 38.74,38 38.44,38 C 37.9,38 37.9,37.57 37.91,37.39 H 38.14 V 37.4 Z" fill="rgb(254, 254, 253)"/>
</svg>
