<?xml version="1.0" encoding="UTF-8"?>
<!-- generated by Finnhub -->
<svg viewBox="0 0 55.5 55.5" xmlns="http://www.w3.org/2000/svg">
<path d="M 0,0 H 55.5 V 55.5 H 0 Z" fill="rgb(239, 242, 248)"/>
<path d="M 21.81,18.165 C 24.77,15.49 32.2,15 36.07,15.09 L 30.07,11.57 A 4.08,4.08 0 0,0 25.92,11.57 L 15.08,17.95 A 4.25,4.25 0 0,0 13,21.62 V 34.38 C 13,35.89 13.8,37.29 15.08,38.05 L 25.92,44.43 C 27.21,45.19 28.79,45.19 30.08,44.43 L 40.92,38.05 A 4.25,4.25 0 0,0 43,34.38 V 21.62 C 43,20.13 42.24,18.76 41,17.99 C 40.92,24.15 39.7,28.47 37.93,31.49 C 37.73,31.39 37.53,31.33 37.29,31.32 C 36.71,31.28 36.22,30.99 35.75,30.32 A 8.7,8.7 0 0,1 34.55,27.32 A 25.04,25.04 0 0,1 33.91,21.84 A 1.83,1.83 0 0,0 30.41,21.06 C 30.35,21.22 30.26,21.39 30.17,21.59 C 29.99,21.99 29.77,22.39 29.54,22.83 C 29.14,23.58 28.67,24.44 28.19,25.58 C 27.68,24.31 27.11,22.89 26.52,21.33 A 1.98,1.98 0 0,0 24.62,20.04 C 23.72,20.04 23.12,20.88 23,21.71 C 22.14,27.39 21.12,29.6 20.3,31.14 L 20.22,31.29 A 1.85,1.85 0 0,0 21.82,34 C 22.48,34 23.12,33.65 23.45,33.02 L 23.47,32.98 A 26,26 0 0,0 25.33,28.3 C 25.8,29.44 26.19,30.43 26.52,31.36 A 1.83,1.83 0 0,0 30,31.26 C 30.26,30.36 30.62,29.36 31.02,28.34 C 31.36,29.75 31.9,31.25 32.77,32.47 A 6,6 0 0,0 35.43,34.64 A 12.76,12.76 0 0,1 26.65,38 C 21.24,38 18.65,36.82 17.95,36.11 C 17.24,35.41 17,32.34 17,29.86 C 17,25.02 17.94,21.72 21.82,18.18 Z" fill="url(#a)"/>
<defs>
<linearGradient id="a" x1="43" x2="13" y1="28" y2="28" gradientUnits="userSpaceOnUse">
<stop stop-color="rgb(1, 79, 48)" offset="0"/>
<stop stop-color="rgb(33, 151, 60)" offset="1"/>
</linearGradient>
</defs>
</svg>
