<?xml version="1.0" encoding="UTF-8"?>
<!-- generated by Finnhub -->
<svg viewBox="0 0 55.5 55.5" xmlns="http://www.w3.org/2000/svg">
<path d="M 0,0 H 55.5 V 55.5 H 0 Z" fill="rgb(239, 242, 248)"/>
<path d="M 4.99,31.985 H 4 V 24 H 5 L 7.5,28 L 10,24 H 11 V 32 H 10 V 26 L 7.5,30 L 5,26 V 32 Z M 19,24 H 14 V 32 H 19 V 31 H 15 V 28.5 H 19 V 27.5 H 15 V 25 H 19 V 24 Z M 43,24 H 38 V 32 H 43 V 31 H 39 V 28.5 H 43 V 27.5 H 39 V 25 H 43 V 24 Z M 46,24 H 44.8 L 48,28.5 V 32 H 49 V 28.5 L 52,24 H 50.8 L 48.5,27.5 L 46,24 Z M 22,24 H 24.5 C 26.69,24 28,25.97 28,28 C 28,30.03 26.69,32 24.5,32 H 22 V 24 Z M 23,25 V 31 H 24.5 C 26.14,31 27,29.48 27,28 S 26.14,25 24.5,25 H 23 Z M 31,24 H 30 V 32 H 35 V 31 H 31 V 24 Z" fill="rgb(37, 88, 139)"/>
</svg>
