<!-- by Finnhub --><svg width="56" height="56" viewBox="0 0 56 56" xmlns="http://www.w3.org/2000/svg"><path fill="#F0F3FA" d="M0 0h56v56H0z"/><path d="M17.37 27h9.54c.5 0 .92-.24 1.18-.67l3.01-5.66c.25-.43.67-.67 1.18-.67.5 0 .91.24 1.17.67l3.06 5.66c.25.43.68.67 1.18.67h3.95a1.34 1.34 0 0 0 1.17-2.02l-6.53-11.3a1.32 1.32 0 0 0-1.17-.68h-5.56c-.5 0-.91.24-1.17.67l-3.8 6.66c-.24.43-.67.67-1.17.67h-7.15c-.5 0-.91.24-1.17.67l-1.9 3.3c-.25.42-.25.9 0 1.35.24.42.67.67 1.17.67l3.01.01Z" fill="#3C3939"/><path d="M16 19h6.56a1.8 1.8 0 0 0 1.35-.82l1.74-2.92C26.39 14 25.92 13 24.6 13h-3.38c-.92 0-2.08.71-2.6 1.57L16 19Z" fill="#FFC528"/><path d="M38.63 29h-9.54c-.5 0-.92.24-1.17.67l-3.02 5.66c-.24.43-.67.67-1.17.67-.5 0-.92-.24-1.17-.67l-3.07-5.66a1.32 1.32 0 0 0-1.17-.67h-3.96c-.5 0-.92.24-1.17.67-.26.43-.25.92 0 1.35l6.53 11.3c.25.44.67.68 1.17.68h5.56c.5 0 .92-.24 1.17-.67l3.8-6.66c.25-.43.67-.67 1.17-.67h7.15c.5 0 .92-.24 1.17-.67l1.9-3.28c.25-.43.25-.92 0-1.35a1.32 1.32 0 0 0-1.17-.68L38.63 29Z" fill="#3C3939"/><path d="M39 37h-5.9c-.43 0-.98.37-1.22.82l-1.56 2.92c-.67 1.25-.25 2.26.94 2.26h3.04c.83 0 1.87-.71 2.35-1.57L39 37Z" fill="#FFC528"/></svg>