<?xml version="1.0" encoding="UTF-8"?>
<!-- generated by Finnhub -->
<svg viewBox="0 0 55.5 55.5" xmlns="http://www.w3.org/2000/svg">
<path d="M0 0h55.5v55.5H0z" fill="rgb(239, 242, 248)"/>
<path d="M8 15h40v2H8zM40 39h2v2h-2z" fill="rgb(139, 154, 145)"/>
<path d="M37 20H8v-2h31v19h-2c-.68 0-1.18-.42-1.5-.76C33.4 33.93 31.98 24 29 24c-1.91 0-4.5 7.94-5.07 9.37l-.9 2.24C22.08 33.4 18.5 24 17 24c-3.59 0-4.2 10.5-6.93 12.6-.26.2-.62.4-1.07.4H8v-2l.83.04C11.89 32.18 11.53 22 17 22c1.5 0 3 2 3.93 3.64l2.06 4.8C24 28.17 26.05 22 29 22c5.27 0 5.26 9.92 7.98 12.89l.02.02V20ZM40 18h8v2h-6v17h-2V18Z" fill="rgb(1, 120, 192)"/>
<path d="m16.92 26.28 5.16 12.04a1 1 0 0 0 1.84 0l5.05-11.8L34.64 39H39v2h-4.36a2 2 0 0 1-1.82-1.17l-3.8-8.35-3.26 7.62a3 3 0 0 1-5.52 0l-3.16-7.38-2.9 7.96A2 2 0 0 1 12.3 41H8v-2h4.3l4.62-12.72Z" fill="rgb(139, 154, 145)"/>
</svg>
