<?xml version="1.0" encoding="UTF-8"?>
<!-- generated by Finnhub -->
<svg viewBox="0 0 55.5 55.5" xmlns="http://www.w3.org/2000/svg">
<rect width="56" height="56" fill="rgb(53, 79, 115)"/>
<path d="m19.809 17.015c-0.2126 0.0598-0.4229 0.1189-0.6292 0.1742-0.0488-4e-4 -0.0977-0.0014-0.1465-0.0023-0.0667-0.0013-0.1335-0.0026-0.2006-0.0026-4.1028 0-7.5838 0.863-10.833 2.038 3.3539-1.9175 7.1369-2.9222 10.984-2.9172 1.002 1e-4 2.0029 0.0678 2.9961 0.2027-0.7117 0.097-1.4549 0.3059-2.1707 0.5072zm5.4684-0.6952c1.565-0.2131 3.1421-0.32 4.7211-0.3201 6.3328-0.0094 12.551 1.7178 18.002 5-5.0149-2.1941-11.4-3.6479-18.142-3.6479-0.0508 0-0.1014 0.0011-0.1521 0.0021-0.045 9e-4 -0.0902 0.0018-0.1356 2e-3 -1.484 0.0072-2.967 0.0836-4.4442 0.2289-4.6268 0.4578-8.8633 1.6375-12.431 3.0104 3.8895-2.2244 8.1592-3.6754 12.582-4.2754zm-16.268 21.232h-0.00895v0.4483h6v-0.4496c-1.6461 0.2-2-1.2363-2-2.5871v-3.9633h10v3.9633c0 1.4042-0.1984 2.7998-2 2.5871v0.4496h6v-0.4496h-0.2539c-1.6554 0.2066-1.7461-1.2229-1.7461-2.5871v-8.9279c0-2.1362 0.3377-2.4967 2-2.5858v-0.4496h-6v0.4496c1.8-0.2115 2 1.1822 2 2.5858v3.9646h-10v-3.9633c0-1.6559 0.0679-1.7309 0.3972-2.0944 0.0061-0.0067 0.0123-0.0136 0.0186-0.0205 0.2123-0.1894 0.4654-0.3301 0.7407-0.4118 0.2754-0.0817 0.5589-0.1023 0.8435-0.0604v-0.4496h-6v0.4509c1.5708 0.1344 2 0.4722 2 2.5858v8.9279c0 1.4026-0.171 2.8166-1.9911 2.5871zm23.991-2.5871c0 1.405-0.1768 2.8159-2 2.5871v0.4483h6v-0.4496c-1.6553 0.2066-2-1.2218-2-2.5858v-3.9359c0.0836-0.0158 0.2767-0.0233 0.3618-0.0226 0.523-0.0134 1.0354 0.145 1.4549 0.4496 1.0035 0.8061 1.7102 1.6748 2.4633 2.6005 0.2884 0.3544 0.5835 0.7172 0.9047 1.088 1.1018 1.2281 2.0726 2.3619-0.1847 2.4062v0.4483h7v-0.4496h-0.147c-1.5193 0.0889-2.481-0.4772-3.4379-1.5975-1.4573-1.761-3.0214-3.4356-4.6839-5.0146-0.3002-0.2852-0.8077-0.8088-0.8077-0.8088 1.4135-1.0756 2.217-2.3803 3.126-3.8562 0.0575-0.0933 0.1153-0.1872 0.1738-0.2818 1.4767-2.1815 2.2846-2.4741 4.7767-2.5406v-0.4496h-7v0.4496c1.4057 0.0465 1.8767 0.1796 1.8767 0.7648-0.1099 0.2368-0.2204 0.507-0.3384 0.7955-0.4132 1.0102-0.9182 2.2448-1.8071 3.0541-1.5449 1.7318-2.5302 2.3569-3.7312 2.5138v-4.5411c0-1.3643 0.3433-2.795 2-2.5871v-0.4496h-6v0.4509h0.0696c1.8225-0.2286 1.9304 1.1811 1.9304 2.5858v8.9279z" clip-rule="evenodd" fill="rgb(254, 254, 253)" fill-rule="evenodd"/>
</svg>
