<?xml version="1.0" encoding="UTF-8"?>
<!-- generated by Finnhub -->
<svg viewBox="0 0 55.5 55.5" xmlns="http://www.w3.org/2000/svg">
<path d="M 0,0 H 55.5 V 55.5 H 0 Z" fill="rgb(239, 242, 248)"/>
<path d="M 7.99,22.985 H 10.5 L 13,30 L 15.5,23 H 18 V 33 H 16 V 27 L 14,33 H 12 L 10,27 V 33 H 8 V 23 Z M 27,26 C 26.67,24.95 25.63,24.58 24.55,24.58 C 22.66,24.58 22,26.32 22,28 C 22,29.72 22.67,31.42 24.59,31.42 C 25.97,31.42 27,30.42 27,29 H 27.5 H 25 V 27.5 H 29 V 28.94 C 29,31.35 26.95,33 24.58,33 C 21.72,33 20.01,30.73 20.01,28 C 20.01,25.34 21.71,23 24.52,23 C 26.48,23 28.69,23.98 29,26 H 27 Z M 31.44,33 H 29.54 L 33,23 H 35.2 L 38.67,33 H 36.77 L 34.14,25 H 34.07 L 31.44,33 Z M 31.5,29 H 36.7 V 30.5 H 31.5 V 29 Z M 46,26 C 45.67,24.95 44.88,24.58 43.79,24.58 C 41.91,24.58 41,26.32 41,28 C 41,29.72 42.09,31.5 44,31.5 C 45.39,31.5 46,30.5 46,29 H 46.68 H 44 V 27.5 H 48 V 28.94 C 48,31.35 46.19,33 43.82,33 C 40.97,33 39,30.71 39,28 C 39,25.33 40.94,23 43.77,23 C 45.72,23 47.69,23.98 48,26 H 46 Z"/>
</svg>
