<!-- by Finnhub --><svg width="56" height="56" viewBox="0 0 56 56" fill="none" xmlns="http://www.w3.org/2000/svg">
<rect width="56" height="56" fill="#213F65"/>
<rect x="35" y="20" width="1" height="14" fill="url(#paint0_linear_228_5098)"/>
<rect x="38" y="20" width="1" height="14" fill="url(#paint1_linear_228_5098)"/>
<path d="M36.5 18H37.5V37H36.5V18Z" fill="url(#paint2_linear_228_5098)"/>
<path d="M4.50532 29.3573L5.08035 25.1671C5.09777 25.0578 5.13262 25 5.17909 25C5.22556 25 5.26041 25.0321 5.33591 25.1992L6.87434 29.0152L8.50145 25.1542C8.54792 25.0514 8.57696 25 8.62923 25C8.68151 25 8.71636 25.0643 8.73379 25.1992L9.26234 29.171C9.31462 29.5758 9.3727 29.7622 9.54695 29.8201C9.71539 29.8779 9.83156 29.8843 9.90707 29.8843C9.95934 29.8843 10 29.8907 10 29.9293C10 29.9807 9.9303 30 9.84898 30C9.70377 30 9 30 8.66989 30C8.5363 29.9871 8.50145 29.9679 8.50145 29.9293C8.50145 29.8972 8.52468 29.8779 8.56534 29.8586C8.60019 29.8458 8.61762 29.7237 8.59439 29.5437L8.24589 26.5139C8.07644 26.8973 7.27228 29.171 6.82561 29.9936C6.2681 28.9097 5.65614 27.0661 5.28945 26.3352L4.94095 29.3445C4.92933 29.4602 4.92352 29.5437 4.92352 29.6465C4.92352 29.7686 4.99903 29.8265 5.09777 29.8522C5.20232 29.8779 5.28364 29.8843 5.34172 29.8843C5.38819 29.8843 5.42885 29.8972 5.42885 29.9293C5.42885 29.9871 5.37657 30 5.28945 30C5.0455 30 4.78412 30 4.67957 30C4.56922 30 4.29042 30 4.10455 30C4.04647 30 4 29.9871 4 29.9293C4 29.8972 4.03485 29.8843 4.09293 29.8843C4.1394 29.8843 4.18006 29.8843 4.26718 29.865C4.42982 29.8265 4.47628 29.5758 4.50532 29.3573Z" fill="white"/>
<path d="M11 28.4656V27.5344C11 26.7302 11 26.582 10.9876 26.4127C10.9693 26.147 10.7846 26.0952 10.5541 26.0952C10.4922 26.0952 10.4551 26.0847 10.4551 26.0423C10.4551 26.0106 10.5046 26 10.6037 26C11.1239 26 11.3497 26 11.8699 26C11.9504 26 11.9999 26.0106 11.9999 26.0423C11.9999 26.0847 11.9628 26.0952 11.9009 26.0952C11.6718 26.0952 11.5296 26.1547 11.5123 26.4127C11.4999 26.582 11.4999 26.7302 11.4999 27.5344V28.4656C11.4999 28.9788 11.4999 29.3968 11.5247 29.6243C11.5624 29.9143 11.8256 29.9048 12.0619 29.9048C12.13 29.9048 12.1609 29.9206 12.1609 29.9471C12.1609 29.9841 12.1114 30 12.0433 30C11.4611 30 11.1734 30 10.5913 30C10.5108 30 10.4675 29.9841 10.4675 29.9471C10.4675 29.9206 10.4922 29.9048 10.5665 29.9048C10.7871 29.9048 10.9392 29.8655 10.969 29.619C11 29.3968 11 28.9788 11 28.4656Z" fill="white"/>
<path d="M40.5 28.4656V27.5344C40.5 26.7302 40.5 26.582 40.4876 26.4127C40.4693 26.147 40.3171 26.0952 40.0866 26.0952C40.0247 26.0952 39.9876 26.0847 39.9876 26.0423C39.9876 26.0106 40.0371 26 40.1362 26C40.6563 26 40.8761 26 41.3962 26C41.4767 26 41.5262 26.0106 41.5262 26.0423C41.5262 26.0847 41.4891 26.0952 41.4272 26.0952C41.1981 26.0952 41.0296 26.1547 41.0123 26.4127C40.9999 26.582 40.9999 26.7302 40.9999 27.5344V28.4656C40.9999 28.9788 40.9999 29.3968 41.0247 29.6243C41.0624 29.9143 41.3519 29.9048 41.5882 29.9048C41.6563 29.9048 41.6872 29.9206 41.6872 29.9471C41.6872 29.9841 41.6377 30 41.5696 30C40.9874 30 40.7059 30 40.1238 30C40.0433 30 39.9999 29.9841 39.9999 29.9471C39.9999 29.9206 40.0247 29.9048 40.099 29.9048C40.3196 29.9048 40.4392 29.8655 40.469 29.619C40.5 29.3968 40.5 28.9788 40.5 28.4656Z" fill="white"/>
<path d="M15 28.4935V26.3636L14.1183 26.3844C13.7751 26.3948 13.6331 26.4208 13.5444 26.5351C13.4852 26.613 13.4556 26.6753 13.4438 26.7169C13.4319 26.7584 13.4142 26.7792 13.3787 26.7792C13.3373 26.7792 13.3254 26.7532 13.3254 26.6961C13.3254 26.613 13.4379 26.1403 13.4497 26.0987C13.4675 26.0312 13.4852 26 13.5207 26C14.8354 26 15.7117 26 17.0384 26C17.0798 26 17.0857 26.0312 17.0857 26.1091C17.0857 26.2182 17.068 26.5766 17.068 26.7117C17.0621 26.7636 17.0502 26.7948 17.0147 26.7948C16.9674 26.7948 16.9556 26.7688 16.9496 26.6909L16.9437 26.6338C16.9319 26.4987 16.7721 26.3896 16.2455 26.3792L15.4999 26.3636V28.4935C15.4999 28.9714 15.4999 29.3818 15.5295 29.6052C15.5659 29.9029 15.8117 29.9065 16.0621 29.9065C16.1272 29.9065 16.1567 29.9221 16.1567 29.9481C16.1567 29.9844 16.1094 30 16.0443 30C15.3993 30 15.2545 30 14.6095 30C14.5325 30 14.4911 29.9844 14.4911 29.9481C14.4911 29.9221 14.5148 29.9065 14.5858 29.9065C14.8152 29.9065 14.9411 29.8486 14.9704 29.6C15 29.3818 15 28.9714 15 28.4935Z" fill="white"/>
<path d="M18.0118 28.472V27.5541C18.0118 26.7614 18.0118 26.6154 17.9999 26.4485C17.9809 26.1647 17.7491 26.0939 17.5129 26.0939C17.4475 26.0939 17.4119 26.0834 17.4119 26.0469C17.4119 26.0104 17.4534 26 17.5426 26C18.4357 26 19.5797 26 20.4643 26C20.494 26 20.4999 26.0209 20.4999 26.0469C20.4999 26.0834 20.4702 26.146 20.4524 26.3859C20.4465 26.4381 20.4346 26.6675 20.4227 26.7301C20.4168 26.7562 20.4049 26.7875 20.3633 26.7875C20.3217 26.7875 20.3098 26.7614 20.3098 26.7145C20.3098 26.678 20.3039 26.5893 20.2742 26.5267C20.2326 26.4329 20.1732 26.3703 19.8762 26.339C19.7752 26.3286 18.6603 26.3181 18.5415 26.3181C18.5118 26.3181 18.4999 26.3338 18.4999 26.3703V27.6897C18.4999 27.7262 18.5059 27.7471 18.5415 27.7471C18.6722 27.7471 19.8465 27.7471 19.9831 27.7366C20.1257 27.7262 20.2148 27.7106 20.2683 27.6584C20.3098 27.6167 20.3336 27.5906 20.3633 27.5906C20.3871 27.5906 20.4049 27.601 20.4049 27.6323C20.4049 27.6636 20.3811 27.7471 20.3574 28.013C20.3514 28.1173 20.3336 28.3259 20.3336 28.3625C20.3336 28.4042 20.3336 28.4615 20.2801 28.4615C20.2386 28.4615 20.2267 28.4407 20.2267 28.4146C20.2207 28.3625 20.2207 28.2947 20.2029 28.2269C20.1732 28.1226 20.09 28.0443 19.8702 28.0235C19.7574 28.013 18.6782 28.0078 18.5356 28.0078C18.5059 28.0078 18.4999 28.0287 18.4999 28.06V28.472C18.4999 28.6493 18.494 29.1291 18.4999 29.2803C18.5118 29.6402 19.098 29.7184 19.7039 29.7184C19.8584 29.7184 20.1079 29.7184 20.2623 29.6558C20.4168 29.5932 20.4881 29.4837 20.5296 29.2699C20.5415 29.2125 20.5534 29.1917 20.595 29.1917C20.6425 29.1917 20.6425 29.2334 20.6425 29.2855C20.6425 29.4055 20.595 29.7601 20.5653 29.8644C20.5237 30 20.4702 30 20.2445 30C19.4463 30 18.4177 30 17.6197 30C17.5425 30 17.5009 29.9844 17.5009 29.9478C17.5009 29.9218 17.5247 29.9061 17.596 29.9061C17.8308 29.9061 17.9432 29.8305 17.9821 29.5828C18.0118 29.3638 18.0118 28.9518 18.0118 28.472Z" fill="white"/>
<path d="M23.1842 30C22.7679 30 22.445 29.9643 22.1364 29.8673C22.0215 29.8316 22 29.8061 22 29.6939C22 29.4133 22.0287 29.1071 22.0359 29.0255C22.0431 28.949 22.0646 28.8929 22.122 28.8929C22.1866 28.8929 22.1938 28.9388 22.1938 28.9796C22.1938 29.0459 22.2225 29.1531 22.2584 29.2398C22.4163 29.6173 22.8397 29.7551 23.2847 29.7551C23.9306 29.7551 24.5 29.4439 24.5 29.1735C24.5 28.9235 24.1388 28.6888 23.5431 28.3571L23.2129 28.1735C22.4234 27.7347 22 27.3776 22 26.9643C22 26.4031 22.811 26 23.8086 26C24.2751 26 24.5766 26.051 24.7632 26.0867C24.8278 26.0969 24.8636 26.1122 24.8636 26.148C24.8636 26.2143 24.8349 26.3622 24.8349 26.7602C24.8349 26.8724 24.8134 26.9133 24.756 26.9133C24.7057 26.9133 24.6842 26.8827 24.6842 26.8214C24.6842 26.7755 24.6483 26.6173 24.4976 26.4847C24.39 26.3878 24.1818 26.2347 23.7153 26.2347C23.1842 26.2347 22.5 26.4541 22.5 26.7602C22.5 26.9949 23.0263 27.1735 23.622 27.4949L23.823 27.602C24.6914 28.0663 25 28.4184 25 28.9031C25 29.7838 23.864 30 23.1842 30Z" fill="white"/>
<path d="M28.0158 30C26.8014 30 26 29.1422 26 27.9388C26 26.8383 26.7586 26 27.8691 26C28.1367 26 28.2964 26.0204 28.495 26.051C28.659 26.0765 28.7971 26.1224 28.9266 26.1378C28.9741 26.1429 28.9914 26.1684 28.9914 26.199C28.9914 26.2398 28.9784 26.301 28.9698 26.4796C28.9612 26.648 28.9655 26.9286 28.9568 27.0306C28.9525 27.1071 28.9439 27.148 28.905 27.148C28.8705 27.148 28.8619 27.1071 28.8619 27.0357C28.8576 26.8776 28.8014 26.699 28.6935 26.5663C28.5511 26.3878 28.2144 26.25 27.8173 26.25C26.9093 26.25 26.5 27.0983 26.5 27.8878C26.5 29.102 27.3899 29.7041 27.9683 29.7041C28.3525 29.7041 28.5856 29.6531 28.7583 29.4184C28.8317 29.3214 28.8878 29.1735 28.905 29.0816C28.918 29 28.9266 28.9796 28.9612 28.9796C28.9914 28.9796 29 29.0153 29 29.0561C29 29.1173 28.9482 29.5612 28.905 29.7347C28.8835 29.8214 28.8662 29.8469 28.7928 29.8827C28.6201 29.9643 28.2921 30 28.0158 30Z" fill="white"/>
<path d="M49.0158 30C47.8014 30 47 29.1422 47 27.9388C47 26.8383 47.7586 26 48.8691 26C49.1367 26 49.2964 26.0204 49.495 26.051C49.659 26.0765 49.7971 26.1224 49.9266 26.1378C49.9741 26.1429 49.9914 26.1684 49.9914 26.199C49.9914 26.2398 49.9784 26.301 49.9698 26.4796C49.9612 26.648 49.9655 26.9286 49.9568 27.0306C49.9525 27.1071 49.9439 27.148 49.905 27.148C49.8705 27.148 49.8619 27.1071 49.8619 27.0357C49.8576 26.8776 49.8014 26.699 49.6935 26.5663C49.5511 26.3878 49.2144 26.25 48.8173 26.25C47.9093 26.25 47.5 27.0983 47.5 27.8878C47.5 29.102 48.3899 29.7041 48.9683 29.7041C49.3525 29.7041 49.5856 29.6531 49.7583 29.4184C49.8317 29.3214 49.8878 29.1735 49.905 29.0816C49.918 29 49.9266 28.9796 49.9612 28.9796C49.9914 28.9796 50 29.0153 50 29.0561C50 29.1173 49.9482 29.5612 49.905 29.7347C49.8835 29.8214 49.8662 29.8469 49.7928 29.8827C49.6201 29.9643 49.2921 30 49.0158 30Z" fill="white"/>
<path d="M31.9731 30C30.5679 30 30 28.9031 30 28C30 27.1276 30.5532 26 32.022 26C33.2411 26 34 26.7398 34 27.9082C34 29.0765 33.2166 30 31.9731 30ZM32.1787 29.7449C32.5214 29.7449 33.5 29.5714 33.5 28.0969C33.5 26.9541 32.683 26.2449 31.88 26.2449C31.317 26.2449 30.5 26.5714 30.5 27.8418C30.5 28.9031 31.2387 29.7449 32.1787 29.7449Z" fill="white"/>
<path d="M43 27.1057V29.307C43.0123 29.7195 43.1364 29.9083 43.5458 29.9083C43.6112 29.9083 43.6468 29.9185 43.6468 29.949C43.6468 29.9898 43.5933 30 43.5101 30C43.0501 30 42.5907 30 42.1308 30C42.0535 30 42 29.9949 42 29.949C42 29.9185 42.0357 29.9083 42.0951 29.9083C42.5296 29.9083 42.5415 29.6583 42.547 29.251L42.6005 26.1732C42.6005 26.0713 42.6183 26 42.6778 26C42.7432 26 42.7967 26.0662 42.8977 26.158C43.4503 26.671 45 28 46 29V26.5809C45.9941 26.2701 45.9596 26.1732 45.8169 26.1223C45.7277 26.0917 45.585 26.0917 45.5018 26.0917C45.4304 26.0917 45.4067 26.0764 45.4067 26.0459C45.4067 26.0051 45.4721 26 45.5612 26C45.9955 26 46.4291 26 46.8633 26C46.9405 26 47 26.0051 47 26.0459C47 26.0764 46.9643 26.0917 46.893 26.0917C46.5975 26.0917 46.5008 26.2436 46.4946 26.5401L46.4293 29.842C46.4293 29.9541 46.4055 30 46.352 30C46.2866 30 46.2152 29.9439 46.1498 29.8879C45.5709 29.4154 44 28 43 27.1057Z" fill="white"/>
<circle cx="51.5" cy="29.5" r="0.5" fill="white"/>
<defs>
<linearGradient id="paint0_linear_228_5098" x1="35.5" y1="20" x2="35.5" y2="34" gradientUnits="userSpaceOnUse">
<stop stop-color="#697C97"/>
<stop offset="0.265625" stop-color="#F2F5F6"/>
<stop offset="0.46875" stop-color="#F3F6F7"/>
<stop offset="0.838542" stop-color="#EFF2F4"/>
<stop offset="1" stop-color="#7F90A7"/>
</linearGradient>
<linearGradient id="paint1_linear_228_5098" x1="38.5" y1="20" x2="38.5" y2="34" gradientUnits="userSpaceOnUse">
<stop stop-color="#697C97"/>
<stop offset="0.265625" stop-color="#F2F5F6"/>
<stop offset="0.46875" stop-color="#F3F6F7"/>
<stop offset="0.838542" stop-color="#EFF2F4"/>
<stop offset="1" stop-color="#7F90A7"/>
</linearGradient>
<linearGradient id="paint2_linear_228_5098" x1="36.5" y1="18" x2="36.5" y2="37" gradientUnits="userSpaceOnUse">
<stop stop-color="#697C97"/>
<stop offset="0.265625" stop-color="#F2F5F6"/>
<stop offset="0.46875" stop-color="#F3F6F7"/>
<stop offset="0.838542" stop-color="#EFF2F4"/>
<stop offset="1" stop-color="#7F90A7"/>
</linearGradient>
</defs>
</svg>
