<?xml version="1.0" encoding="UTF-8"?>
<!-- generated by Finnhub -->
<svg viewBox="0 0 55.5 55.5" xmlns="http://www.w3.org/2000/svg">
<path d="M 0,0 H 55.5 V 55.5 H 0 Z" fill="rgb(239, 242, 248)"/>
<path d="M 12.07,26.585 C 12.06,25.39 12.34,24.23 12.72,23.09 A 15.8,15.8 0 0,1 16.14,17.32 A 16.8,16.8 0 0,1 19.44,14.58 L 19.69,14.44 L 20.22,14.74 L 20.67,14.58 L 22.9,15.33 C 23.04,15.57 23.17,15.97 23.66,16 C 24.11,16.04 24.38,15.82 24.56,15.47 L 26.63,15.25 C 26.81,15.38 27.07,15.53 27.44,15.34 L 27.68,14.93 L 29.32,14.15 C 29.67,14.33 30.05,14.48 30.45,14.18 C 30.83,13.89 30.8,13.51 30.67,13.09 L 31.62,12.31 C 34.78,12.91 37.68,14.39 39.97,16.59 C 39.73,16.78 39.58,16.64 39.42,16.53 C 39.11,16.31 38.8,16.09 38.47,15.89 C 38.15,15.69 37.8,15.54 37.45,15.35 L 37.13,14.81 C 36.75,14.66 36.49,14.74 36.3,14.92 L 33.97,14.61 C 33.42,13.83 32.65,13.89 32.26,14.78 L 30.31,15.38 L 29.98,15.25 C 29.63,15.23 29.48,15.4 29.38,15.87 L 28.01,16.87 C 27.48,16.73 26.94,16.57 26.39,16.46 C 22.58,15.7 19.17,16.53 16.19,18.96 A 10.74,10.74 0 0,0 12.75,23.93 C 12.54,24.56 12.44,25.23 12.28,25.87 L 12.07,26.59 L 12.08,26.6 Z" fill="url(#af)"/>
<path d="M 37.550000000000004,25.665 C 36.92,25.6 36.7,25.72 36.4,26.28 A 2.64,2.64 0 0,1 35.55,25.18 A 6.3,6.3 0 0,1 35.2,24.28 A 11.49,11.49 0 0,0 32.17,19.45 C 32.47,19.23 32.84,19.19 33.15,19.11 C 33.39,19.21 33.6,19.38 33.8,19.38 S 34.2,19.2 34.46,19.08 C 35.17,19.17 35.46,19.26 36.06,19.61 C 35.89,20.11 35.86,20.62 36.36,21 A 1.08,1.08 0 0,0 37.6,21.1 C 37.9,21.5 38.1,21.96 38.18,22.45 C 37.88,22.64 37.58,22.84 37.56,23.25 C 37.55,23.66 37.79,23.9 38.18,24.09 A 3.59,3.59 0 0,1 37.56,25.68 Z" fill="url(#y)"/>
<path d="M 35.67,17.005 C 35.64,17.15 35.64,17.22 35.61,17.24 L 34.31,18.44 L 33.81,18.24 L 33.33,18.41 L 32.08,17.68 L 31.92,17.01 L 32.77,15.71 C 33.33,15.69 33.33,15.69 33.81,15.43 L 35.68,17.03 Z" fill="url(#x)"/>
<path d="M 39.050000000000004,23.814999999999998 L 39.2,23.44 L 39.25,23.24 L 39.07,22.75 L 39.77,21.94 L 40.34,22.05 L 42.03,23.65 L 41.93,24.34 L 40.88,24.85 A 3.29,3.29 0 0,0 40.38,24.75 A 1.4,1.4 0 0,0 40.02,24.83 L 39.06,23.83 Z" fill="url(#w)"/>
<path d="M 25.33,12.645 L 25.38,13.36 L 24.27,14.48 H 23.16 L 22.15,13.22 C 23.06,12.83 24.02,12.55 25,12.37 L 25.34,12.66 Z" fill="url(#v)"/>
<path d="M 41.940000000000005,26.905 C 41.45,27.24 40.9,27.44 40.31,27.52 L 40.47,25.92 L 41.12,25.04 L 42.04,24.62 L 42.54,24.92 C 42.44,25.61 42.24,26.29 41.94,26.92 Z" fill="url(#u)"/>
<path d="M 38.230000000000004,20.365 L 37.92,19.42 L 39.41,18.12 L 39.79,18.28 L 39.85,18.39 L 39.96,20.67 C 39.96,20.81 39.94,20.96 39.92,21.1 C 39.29,20.89 38.76,20.6 38.24,20.38 Z" fill="url(#t)"/>
<path d="M 43.2,20.965 C 43.86,22.03 44.21,23.11 43.88,24.32 A 3.82,3.82 0 0,1 42.37,26.54 L 42.77,24.99 C 43.17,24.84 43.57,24.69 43.6,24.16 C 43.62,23.66 43.29,23.45 42.91,23.29 L 42.67,21.49 L 43.21,20.99 Z" fill="url(#s)"/>
<path d="M 37.690000000000005,19.224999999999998 L 36.9,19.06 L 36.44,17.6 L 36.67,17.26 L 39.08,17.37 L 39.21,17.92 L 37.69,19.24 Z" fill="url(#r)"/>
<path d="M 30.049999999999997,12.084999999999999 L 30,12.66 C 29.62,12.8 29.24,12.94 29.1,13.39 L 26.51,12.89 L 26.39,12.54 L 26.69,12.12 C 27.81,11.97 28.94,11.96 30.06,12.1 Z" fill="url(#q)"/>
<path d="M 41.89,19.945 L 41.6,20.35 L 41.54,20.82 L 40.6,21.18 L 40.29,21.02 V 18.24 L 40.61,17.97 C 41.06,18.42 41.56,19.17 41.89,19.97 Z" fill="url(#p)"/>
<path d="M 40.010000000000005,27.555 C 39.47,27.61 38.96,27.63 38.45,27.45 L 37.97,26.96 L 38.1,26.27 L 39.93,25.57 L 40.18,25.67 C 40.21,26.31 40.06,26.92 40.02,27.57 Z" fill="url(#o)"/>
<path d="M 36.690000000000005,16.985 L 36.36,16.6 L 36.63,15.97 L 37.38,15.57 C 38.13,15.87 38.83,16.29 39.45,16.81 L 39.19,17.09 L 36.71,16.99 Z" fill="url(#n)"/>
<path d="M 42.46,21.515 L 42.71,23.23 L 42.47,23.38 L 42.27,23.46 L 40.55,21.88 L 40.69,21.44 L 41.63,21.1 C 41.74,21.2 41.86,21.29 41.99,21.37 C 42.14,21.44 42.3,21.49 42.47,21.53 Z" fill="url(#m)"/>
<path d="M 29.09,13.584999999999999 L 29.2,13.95 C 28.7,14.25 28.2,14.5 27.66,14.7 L 26.91,14.34 L 26.33,13.44 L 26.54,13.1 L 29.09,13.6 Z" fill="url(#l)"/>
<path d="M 25.59,13.504999999999999 L 26.19,13.58 L 26.76,14.47 L 26.5,15.02 C 25.9,15.18 25.28,15.25 24.65,15.22 L 24.44,14.72 L 25.59,13.52 Z" fill="url(#k)"/>
<path d="M 31.68,16.845 L 31.09,16.96 L 30.34,16.16 L 30.47,15.58 A 7.13,7.13 0 0,1 32.27,15.02 L 32.55,15.52 L 31.69,16.86 Z" fill="url(#j)"/>
<path d="M 36.38,15.805 C 36.18,16.11 36.25,16.57 35.76,16.72 L 33.95,15.19 L 33.98,14.92 C 34.42,14.82 35.38,14.93 36.11,15.15 L 36.39,15.82 Z" fill="url(#i)"/>
<path d="M 28.29,16.935 C 28.62,16.58 29.04,16.35 29.4,16.12 L 30.23,16.34 L 30.95,17.11 L 30.83,17.44 C 29.95,17.51 29.07,17.56 28.31,16.94 Z" fill="url(#h)"/>
<path d="M 36.620000000000005,19.145 L 36.27,19.4 L 34.37,18.79 C 34.77,18.3 35.31,17.99 35.73,17.52 L 36.17,17.67 L 36.63,19.16 Z" fill="url(#g)"/>
<path d="M 37.93,26.015 L 37.77,25.84 L 38.48,24.11 L 38.84,24 L 39.84,25.09 C 39.87,25.12 39.86,25.18 39.88,25.28 L 37.94,26.03 Z" fill="url(#f)"/>
<path d="M 22.95,15.035 A 6.82,6.82 0 0,1 20.84,14.39 L 20.81,13.81 L 21.86,13.31 C 22.26,13.83 22.69,14.27 23,14.81 C 23.03,14.85 22.99,14.93 22.96,15.05 Z" fill="url(#e)"/>
<path d="M 38.870000000000005,22.564999999999998 L 38.45,22.46 L 37.85,20.96 L 38.06,20.61 L 39.56,21.28 C 39.72,21.92 39.08,22.12 38.88,22.58 Z" fill="url(#d)"/>
<path d="M 31.049999999999997,18.515 L 31.27,18.09 L 31.93,17.91 L 33.28,18.71 C 33.18,18.81 33.1,18.89 33.02,18.92 C 32.68,19.04 32.32,19.14 31.96,19.26 L 31.06,18.53 Z" fill="url(#c)"/>
<path d="M 42.61,19.845 H 42.12 A 0.95,0.95 0 0,1 42.05,19.76 L 40.9,17.96 C 40.8,17.82 40.7,17.7 40.82,17.47 C 41.5,18.21 42.11,19.01 42.62,19.87 Z" fill="url(#b)"/>
<path d="M 29.74,17.665 H 30.87 L 31.11,17.98 L 30.88,18.39 L 29.75,17.68 Z" fill="url(#a)"/>
<path d="M 30.169999999999998,12.745 L 30.28,12.11 L 31.23,12.25 L 30.58,12.94 L 30.18,12.76 Z" fill="url(#ae)"/>
<path d="M 26.389999999999997,12.094999999999999 L 26.22,12.41 L 25.55,12.47 L 25.39,12.29 L 26.4,12.11 Z" fill="url(#ad)"/>
<path d="M 12.09,29.585 A 11.7,11.7 0 0,0 21.31,39.52 C 23.16,39.94 25.08,39.9 26.91,39.42 A 11.85,11.85 0 0,0 34.98,32.28 A 9.15,9.15 0 0,0 39.4,30.48 C 39.87,30.66 40.32,30.65 40.7,30.3 C 41.08,29.94 41.15,29.51 40.94,29.03 L 41.14,28.74 H 41.27 C 42.94,29.52 43.85,30.78 43.91,32.6 C 43.91,33.2 43.78,33.79 43.51,34.33 A 16.38,16.38 0 0,1 31.52,43.69 C 30.84,43.83 30.13,43.84 29.44,43.94 C 28.55,44.06 27.67,43.98 26.79,43.9 A 16.35,16.35 0 0,1 22.01,42.71 A 16.37,16.37 0 0,1 16.51,39 A 15.4,15.4 0 0,1 12.57,32.16 C 12.39,31.49 12.25,30.81 12.11,30.13 A 2.67,2.67 0 0,1 12.11,29.6 Z" fill="url(#ac)"/>
<path d="M 36.61,29.405 H 38.77 L 39.17,30.41 A 8.48,8.48 0 0,1 35.1,32.06 A 4.3,4.3 0 0,1 36.62,29.42 Z" fill="url(#ab)"/>
<path d="M 37.21,29.095 A 2.9,2.9 0 0,1 38.97,28.43 L 39.2,28.7 L 38.91,29.11 H 37.21 Z" fill="url(#aa)"/>
<path d="M 40.36,28.435 L 40.87,28.6 V 28.81 L 40.32,28.51 L 40.37,28.45 Z" fill="url(#z)"/>
<path d="M 39.39,28.365 H 39.79 L 39.77,28.43 C 39.65,28.48 39.53,28.64 39.39,28.38 Z" fill="rgb(57, 173, 216)"/>
<path d="M 24.61,20.314999999999998 C 24.71,20.33 29.1,19.57 29.1,19.57 S 28.42,18.56 28.13,18.5 C 27.83,18.44 21.33,17.98 21.23,17.98 C 21.14,17.98 17.19,20.33 17.19,20.33 S 15.54,22.83 15.54,22.93 C 15.54,23.01 14.4,27.49 14.42,28.03 C 14.43,28.56 14.97,32.66 15.12,32.81 C 15.27,32.96 19.92,36.29 19.92,36.29 L 23.48,37.65 L 26.87,37.78 L 29.59,36.95 L 31.87,34.87 L 29.97,34.97 L 29,35.14 C 28.66,35.3 28.3,35.44 27.94,35.54 C 26.32,35.89 24.05,35.94 23.91,35.94 A 7.7,7.7 0 0,1 22.38,35.56 C 22.14,35.43 20.78,35.13 20.78,35.13 L 20.48,34.48 S 20.01,33.34 19.95,33.28 C 19.89,33.22 19.74,30.33 19.71,30.26 C 19.68,30.19 19.59,28.42 19.56,28.33 C 19.53,28.24 18.84,27.04 18.86,26.87 C 18.9,26.7 20.19,24.32 20.25,24.14 C 20.31,23.97 20.34,22.54 20.43,22.46 C 20.52,22.36 23.15,20.91 23.3,20.71 C 23.45,20.51 24.62,20.33 24.62,20.33 Z" fill="rgb(254, 254, 253)"/>
<path d="M 14.17,33.075 A 8.36,8.36 0 0,1 13.11,30.45 A 10.53,10.53 0 0,1 15.21,21.05 A 10.75,10.75 0 0,1 21.99,17.17 A 11.08,11.08 0 0,1 32.02,20.55 A 0.74,0.74 0 0,1 31.56,20.41 A 9.56,9.56 0 0,0 28.5,19.46 C 28.49,19.39 28.43,19.36 28.36,19.34 A 11.42,11.42 0 0,0 24.82,18.62 C 22.16,18.62 19.88,19.57 18.01,21.42 A 8.93,8.93 0 0,0 15.36,26.57 A 9.22,9.22 0 0,0 20.43,36.2 C 21.46,36.73 22.59,37.06 23.75,37.19 C 26.35,37.49 28.67,36.84 30.74,35.32 C 31.43,34.82 32.06,34.23 32.78,33.76 L 33,33.65 A 0.22,0.22 0 0,1 32.96,33.87 A 11.19,11.19 0 0,1 23.06,38.45 C 21.6,38.35 20.18,37.97 18.86,37.35 A 10.37,10.37 0 0,1 15.78,35.09 C 15.64,34.95 15.54,34.72 15.27,34.75 C 15.32,34.5 15.17,34.35 14.97,34.26 C 14.97,34.13 14.92,34.05 14.77,34.06 C 14.77,33.98 14.77,33.9 14.67,33.87 A 0.1,0.1 0 0,0 14.64,33.8 A 0.11,0.11 0 0,0 14.57,33.77 C 14.57,33.69 14.57,33.6 14.47,33.57 V 33.58 C 14.47,33.5 14.47,33.41 14.37,33.38 A 0.13,0.13 0 0,0 14.34,33.32 A 0.14,0.14 0 0,0 14.27,33.28 L 14.26,33.26 V 33.23 C 14.27,33.2 14.26,33.17 14.25,33.15 A 0.16,0.16 0 0,0 14.18,33.09 Z" fill="rgb(74, 190, 221)"/>
<path d="M 22.389999999999997,33.555 C 23.53,34.77 25.02,35.24 26.61,35.48 C 27.04,35.55 27.49,35.49 27.94,35.53 C 27.31,35.84 26.64,36.03 25.94,36.09 A 8.6,8.6 0 0,1 20.78,35.13 A 8.08,8.08 0 0,1 16.57,29.57 A 7.7,7.7 0 0,1 18.21,22.87 A 8.33,8.33 0 0,1 23.36,19.84 C 23.84,19.76 24.32,19.81 24.79,19.7 C 24.82,19.69 24.87,19.75 24.9,19.78 A 0.33,0.33 0 0,1 24.69,19.96 A 8.2,8.2 0 0,0 20.99,22.65 A 7.75,7.75 0 0,0 20.51,31.65 C 20.94,32.35 21.48,32.97 22.09,33.51 C 22.18,33.59 22.26,33.76 22.39,33.57 Z" fill="rgb(74, 190, 221)"/>
<path d="M 22.389999999999997,33.555 C 22.26,33.76 22.18,33.59 22.1,33.51 A 8.43,8.43 0 0,1 20.5,31.66 A 7.75,7.75 0 0,1 20.98,22.65 A 8.2,8.2 0 0,1 24.82,19.89 A 0.33,0.33 0 0,0 24.9,19.78 C 25.32,19.78 25.72,19.64 26.12,19.56 C 26.91,19.41 27.71,19.47 28.5,19.46 C 29.56,19.64 30.6,19.9 31.56,20.41 C 31.69,20.51 31.86,20.56 32.02,20.55 C 32.25,20.67 32.38,20.88 32.55,21.05 C 32.45,21.15 32.38,21.08 32.32,21.04 C 29.98,19.47 27.52,19.54 25.06,20.66 A 7.68,7.68 0 0,0 20.43,26.6 A 8.13,8.13 0 0,0 22.4,33.57 Z" fill="rgb(18, 165, 190)"/>
<path d="M 15.26,34.735 C 15.54,34.72 15.64,34.95 15.77,35.09 C 16.65,36.02 17.7,36.79 18.87,37.35 C 20.17,37.97 21.6,38.35 23.05,38.45 A 11.19,11.19 0 0,0 33.01,33.77 L 33,33.65 H 33 C 33.07,33.65 33.1,33.62 33.1,33.55 C 33.22,33.55 33.22,33.46 33.22,33.38 C 33.28,33.3 33.32,33.21 33.42,33.18 H 33.43 C 33.47,33.58 33.37,33.96 33.16,34.29 C 31.52,36.79 29.26,38.5 26.23,39.09 A 10.7,10.7 0 0,1 17.47,37.03 A 11.56,11.56 0 0,1 15.4,35 C 15.34,34.93 15.26,34.86 15.27,34.75 Z M 14.96,34.26 C 15.18,34.36 15.32,34.5 15.26,34.75 C 15.09,34.63 14.94,34.5 14.96,34.26 Z M 14.66,33.87 C 14.78,33.9 14.78,33.98 14.76,34.07 A 0.17,0.17 0 0,1 14.68,33.99 A 0.16,0.16 0 0,1 14.66,33.87 Z" fill="rgb(48, 130, 180)"/>
<defs>
<linearGradient id="af" x1="44.15" x2="12.71" y1="19.21" y2="19.58" gradientUnits="userSpaceOnUse">
<stop stop-color="rgb(57, 173, 216)" offset="0"/>
<stop stop-color="rgb(19, 53, 122)" offset=".9"/>
</linearGradient>
<linearGradient id="y" x1="44.18" x2="12.75" y1="22.58" y2="22.95" gradientUnits="userSpaceOnUse">
<stop stop-color="rgb(57, 173, 216)" offset="0"/>
<stop stop-color="rgb(19, 53, 122)" offset=".9"/>
</linearGradient>
<linearGradient id="x" x1="44.12" x2="12.68" y1="16.82" y2="17.19" gradientUnits="userSpaceOnUse">
<stop stop-color="rgb(57, 173, 216)" offset="0"/>
<stop stop-color="rgb(19, 53, 122)" offset=".9"/>
</linearGradient>
<linearGradient id="w" x1="44.19" x2="12.76" y1="23.35" y2="23.72" gradientUnits="userSpaceOnUse">
<stop stop-color="rgb(57, 173, 216)" offset="0"/>
<stop stop-color="rgb(19, 53, 122)" offset=".9"/>
</linearGradient>
<linearGradient id="v" x1="44.08" x2="12.64" y1="13.21" y2="13.57" gradientUnits="userSpaceOnUse">
<stop stop-color="rgb(57, 173, 216)" offset="0"/>
<stop stop-color="rgb(19, 53, 122)" offset=".9"/>
</linearGradient>
<linearGradient id="u" x1="44.22" x2="12.79" y1="26.03" y2="26.4" gradientUnits="userSpaceOnUse">
<stop stop-color="rgb(57, 173, 216)" offset="0"/>
<stop stop-color="rgb(19, 53, 122)" offset=".9"/>
</linearGradient>
<linearGradient id="t" x1="44.15" x2="12.72" y1="19.57" y2="19.93" gradientUnits="userSpaceOnUse">
<stop stop-color="rgb(57, 173, 216)" offset="0"/>
<stop stop-color="rgb(19, 53, 122)" offset=".9"/>
</linearGradient>
<linearGradient id="s" x1="44.2" x2="12.76" y1="23.75" y2="24.11" gradientUnits="userSpaceOnUse">
<stop stop-color="rgb(57, 173, 216)" offset="0"/>
<stop stop-color="rgb(19, 53, 122)" offset=".9"/>
</linearGradient>
<linearGradient id="r" x1="44.13" x2="12.7" y1="18.18" y2="18.54" gradientUnits="userSpaceOnUse">
<stop stop-color="rgb(57, 173, 216)" offset="0"/>
<stop stop-color="rgb(19, 53, 122)" offset=".9"/>
</linearGradient>
<linearGradient id="q" x1="44.07" x2="12.63" y1="12.53" y2="12.89" gradientUnits="userSpaceOnUse">
<stop stop-color="rgb(57, 173, 216)" offset="0"/>
<stop stop-color="rgb(19, 53, 122)" offset=".9"/>
</linearGradient>
<linearGradient id="p" x1="44.15" x2="12.72" y1="19.54" y2="19.9" gradientUnits="userSpaceOnUse">
<stop stop-color="rgb(57, 173, 216)" offset="0"/>
<stop stop-color="rgb(19, 53, 122)" offset=".9"/>
</linearGradient>
<linearGradient id="o" x1="44.23" x2="12.8" y1="26.53" y2="26.89" gradientUnits="userSpaceOnUse">
<stop stop-color="rgb(57, 173, 216)" offset="0"/>
<stop stop-color="rgb(19, 53, 122)" offset=".9"/>
</linearGradient>
<linearGradient id="n" x1="44.11" x2="12.68" y1="16.26" y2="16.63" gradientUnits="userSpaceOnUse">
<stop stop-color="rgb(57, 173, 216)" offset="0"/>
<stop stop-color="rgb(19, 53, 122)" offset=".9"/>
</linearGradient>
<linearGradient id="m" x1="44.18" x2="12.75" y1="22.26" y2="22.62" gradientUnits="userSpaceOnUse">
<stop stop-color="rgb(57, 173, 216)" offset="0"/>
<stop stop-color="rgb(19, 53, 122)" offset=".9"/>
</linearGradient>
<linearGradient id="l" x1="44.08" x2="12.65" y1="13.71" y2="14.08" gradientUnits="userSpaceOnUse">
<stop stop-color="rgb(57, 173, 216)" offset="0"/>
<stop stop-color="rgb(19, 53, 122)" offset=".9"/>
</linearGradient>
<linearGradient id="k" x1="44.09" x2="12.65" y1="14.17" y2="14.53" gradientUnits="userSpaceOnUse">
<stop stop-color="rgb(57, 173, 216)" offset="0"/>
<stop stop-color="rgb(19, 53, 122)" offset=".9"/>
</linearGradient>
<linearGradient id="j" x1="44.11" x2="12.67" y1="15.85" y2="16.22" gradientUnits="userSpaceOnUse">
<stop stop-color="rgb(57, 173, 216)" offset="0"/>
<stop stop-color="rgb(19, 53, 122)" offset=".9"/>
</linearGradient>
<linearGradient id="i" x1="44.1" x2="12.67" y1="15.71" y2="16.07" gradientUnits="userSpaceOnUse">
<stop stop-color="rgb(57, 173, 216)" offset="0"/>
<stop stop-color="rgb(19, 53, 122)" offset=".9"/>
</linearGradient>
<linearGradient id="h" x1="44.12" x2="12.68" y1="16.64" y2="17.01" gradientUnits="userSpaceOnUse">
<stop stop-color="rgb(57, 173, 216)" offset="0"/>
<stop stop-color="rgb(19, 53, 122)" offset=".9"/>
</linearGradient>
<linearGradient id="g" x1="44.14" x2="12.7" y1="18.37" y2="18.74" gradientUnits="userSpaceOnUse">
<stop stop-color="rgb(57, 173, 216)" offset="0"/>
<stop stop-color="rgb(19, 53, 122)" offset=".9"/>
</linearGradient>
<linearGradient id="f" x1="44.21" x2="12.78" y1="24.95" y2="25.31" gradientUnits="userSpaceOnUse">
<stop stop-color="rgb(57, 173, 216)" offset="0"/>
<stop stop-color="rgb(19, 53, 122)" offset=".9"/>
</linearGradient>
<linearGradient id="e" x1="44.08" x2="12.65" y1="13.95" y2="14.31" gradientUnits="userSpaceOnUse">
<stop stop-color="rgb(57, 173, 216)" offset="0"/>
<stop stop-color="rgb(19, 53, 122)" offset=".9"/>
</linearGradient>
<linearGradient id="d" x1="44.17" x2="12.74" y1="21.53" y2="21.9" gradientUnits="userSpaceOnUse">
<stop stop-color="rgb(57, 173, 216)" offset="0"/>
<stop stop-color="rgb(19, 53, 122)" offset=".9"/>
</linearGradient>
<linearGradient id="c" x1="44.14" x2="12.7" y1="18.45" y2="18.81" gradientUnits="userSpaceOnUse">
<stop stop-color="rgb(57, 173, 216)" offset="0"/>
<stop stop-color="rgb(19, 53, 122)" offset=".9"/>
</linearGradient>
<linearGradient id="b" x1="44.14" x2="12.71" y1="18.64" y2="19.01" gradientUnits="userSpaceOnUse">
<stop stop-color="rgb(57, 173, 216)" offset="0"/>
<stop stop-color="rgb(19, 53, 122)" offset=".9"/>
</linearGradient>
<linearGradient id="a" x1="44.13" x2="12.7" y1="17.88" y2="18.25" gradientUnits="userSpaceOnUse">
<stop stop-color="rgb(57, 173, 216)" offset="0"/>
<stop stop-color="rgb(19, 53, 122)" offset=".9"/>
</linearGradient>
<linearGradient id="ae" x1="44.07" x2="12.63" y1="12.37" y2="12.74" gradientUnits="userSpaceOnUse">
<stop stop-color="rgb(57, 173, 216)" offset="0"/>
<stop stop-color="rgb(19, 53, 122)" offset=".9"/>
</linearGradient>
<linearGradient id="ad" x1="44.06" x2="12.63" y1="12.09" y2="12.46" gradientUnits="userSpaceOnUse">
<stop stop-color="rgb(57, 173, 216)" offset="0"/>
<stop stop-color="rgb(19, 53, 122)" offset=".9"/>
</linearGradient>
<linearGradient id="ac" x1="44.34" x2="12.91" y1="36.27" y2="36.63" gradientUnits="userSpaceOnUse">
<stop stop-color="rgb(57, 173, 216)" offset="0"/>
<stop stop-color="rgb(19, 53, 122)" offset=".9"/>
</linearGradient>
<linearGradient id="ab" x1="44.28" x2="12.84" y1="30.65" y2="31.02" gradientUnits="userSpaceOnUse">
<stop stop-color="rgb(57, 173, 216)" offset="0"/>
<stop stop-color="rgb(19, 53, 122)" offset=".9"/>
</linearGradient>
<linearGradient id="aa" x1="44.26" x2="12.82" y1="28.71" y2="29.08" gradientUnits="userSpaceOnUse">
<stop stop-color="rgb(57, 173, 216)" offset="0"/>
<stop stop-color="rgb(19, 53, 122)" offset=".9"/>
</linearGradient>
<linearGradient id="z" x1="44.25" x2="12.82" y1="28.59" y2="28.96" gradientUnits="userSpaceOnUse">
<stop stop-color="rgb(57, 173, 216)" offset="0"/>
<stop stop-color="rgb(19, 53, 122)" offset=".9"/>
</linearGradient>
</defs>
</svg>
