<?xml version="1.0" encoding="UTF-8"?>
<!-- generated by Finnhub -->
<svg viewBox="0 0 55.5 55.5" xmlns="http://www.w3.org/2000/svg">
<path d="M 0,0 H 55.5 V 55.5 H 0 Z" fill="rgb(3, 39, 58)"/>
<path d="M 44.14,22.985 H 47.27 C 47.97,23 48.47,23.04 48.77,23.13 C 49.16,23.23 49.46,23.44 49.67,23.75 C 49.89,24.05 50,24.4 50,24.79 A 2.15,2.15 0 0,1 48.97,26.59 C 48.64,26.8 48.12,27 47.41,27.19 C 48.14,27.42 48.65,27.72 48.93,28.09 C 49.22,28.45 49.36,28.88 49.36,29.36 C 49.36,29.82 49.22,30.27 48.94,30.72 C 48.66,31.16 48.29,31.49 47.83,31.69 C 47.36,31.89 46.52,32 45.29,32 H 42 L 42.08,31.75 C 42.39,31.75 42.62,31.72 42.76,31.65 A 0.76,0.76 0 0,0 43.09,31.35 C 43.17,31.21 43.27,30.92 43.39,30.47 L 44.79,24.94 C 44.94,24.38 45.01,24 45.01,23.81 A 0.49,0.49 0 0,0 44.84,23.42 C 44.72,23.32 44.48,23.26 44.09,23.25 L 44.15,23 Z M 45.94,26.98 C 46.47,26.97 46.88,26.88 47.19,26.69 C 47.49,26.51 47.74,26.21 47.92,25.8 C 48.11,25.39 48.2,25 48.2,24.63 C 48.2,24.28 48.1,24 47.91,23.78 A 0.93,0.93 0 0,0 47.15,23.48 H 46.83 L 45.93,26.98 Z M 45.8,27.48 L 44.8,31.48 H 45.23 C 46.09,31.48 46.7,31.21 47.03,30.67 C 47.37,30.11 47.54,29.52 47.54,28.89 C 47.54,28.59 47.48,28.33 47.34,28.09 A 1.1,1.1 0 0,0 46.84,27.61 C 46.64,27.52 46.29,27.47 45.8,27.47 Z M 37.6,23 L 40.06,28.93 L 41.17,24.63 C 41.23,24.39 41.26,24.18 41.26,24 C 41.26,23.78 41.2,23.6 41.07,23.47 C 40.95,23.34 40.74,23.27 40.45,23.24 L 40.51,23 H 43 L 42.94,23.24 A 1.3,1.3 0 0,0 42.15,23.54 C 41.95,23.72 41.78,24.09 41.63,24.63 L 39.72,32 H 39.5 L 36.35,24.41 L 34.82,30.33 C 34.77,30.53 34.75,30.72 34.75,30.88 C 34.75,31.11 34.82,31.3 34.95,31.45 C 35.09,31.59 35.31,31.65 35.61,31.65 L 35.56,31.9 H 33 L 33.05,31.66 C 33.27,31.66 33.43,31.64 33.52,31.59 C 33.68,31.52 33.84,31.39 34,31.19 C 34.15,30.99 34.28,30.7 34.37,30.33 L 36.03,23.86 C 35.83,23.6 35.66,23.44 35.52,23.36 A 1.42,1.42 0 0,0 34.89,23.24 L 34.96,23 H 37.61 Z M 34,23 L 33.4,25.74 H 33.17 C 33.14,24.99 32.97,24.44 32.65,24.07 A 1.54,1.54 0 0,0 31.42,23.52 C 30.87,23.52 30.32,23.77 29.78,24.27 C 29.23,24.77 28.78,25.53 28.4,26.57 A 6.95,6.95 0 0,0 27.94,29.03 C 27.94,29.76 28.1,30.31 28.44,30.7 C 28.78,31.08 29.24,31.27 29.82,31.27 C 30.29,31.27 30.72,31.16 31.12,30.94 C 31.5,30.72 31.9,30.36 32.3,29.87 H 32.58 C 32.08,30.65 31.59,31.21 31.08,31.52 C 30.58,31.84 29.97,32 29.24,32 A 3.1,3.1 0 0,1 26.89,31.06 A 3.45,3.45 0 0,1 26,28.6 A 5.54,5.54 0 0,1 28.75,23.8 C 29.64,23.27 30.52,23 31.4,23 C 31.73,23 32.15,23.08 32.65,23.23 C 32.9,23.3 33.08,23.34 33.18,23.34 C 33.38,23.34 33.58,23.23 33.78,23 H 34 Z M 18.9,23 L 19.49,29.19 L 23.24,23 H 26 L 25.93,23.25 C 25.55,23.25 25.26,23.34 25.06,23.52 C 24.86,23.71 24.7,24.08 24.56,24.62 L 23.1,30.4 C 23.01,30.76 22.97,31.03 22.97,31.2 C 22.97,31.37 23.02,31.5 23.14,31.6 C 23.26,31.7 23.48,31.76 23.83,31.76 L 23.77,32.01 H 19.84 L 19.91,31.76 C 20.33,31.76 20.64,31.67 20.84,31.49 C 21.04,31.31 21.22,30.94 21.35,30.39 L 22.84,24.56 L 18.33,32 H 18.09 L 17.38,24.4 L 15.88,30.39 C 15.81,30.63 15.78,30.83 15.78,30.99 C 15.78,31.22 15.85,31.39 15.98,31.54 C 16.11,31.67 16.34,31.74 16.66,31.75 L 16.6,32 H 14 L 14.05,31.75 C 14.37,31.75 14.61,31.67 14.77,31.53 C 15.07,31.28 15.28,30.9 15.41,30.39 L 17.11,23.74 A 1.3,1.3 0 0,0 16.67,23.34 C 16.55,23.28 16.33,23.24 16.02,23.24 L 16.09,23 H 18.91 Z" fill="rgb(254, 254, 253)"/>
<path d="M 14.99,22.985 H 6 V 24 H 14.67 L 15,23 Z M 13,29 L 12.67,30 H 6 V 29 H 13 Z M 13.67,27 L 13.33,28 H 6 V 27 H 13.67 Z M 14.33,25 L 14,26 H 6 V 25 H 14.33 Z M 12.33,31 L 12,32 H 6 V 31 H 12.33 Z" fill="rgb(100, 168, 7)"/>
</svg>
