<?xml version="1.0" encoding="UTF-8"?>
<!-- generated by Finnhub -->
<svg viewBox="0 0 55.5 55.5" xmlns="http://www.w3.org/2000/svg">
<path d="M 0,0 H 55.5 V 55.5 H 0 Z" fill="rgb(222, 25, 54)"/>
<path d="M 48.99,25.985 V 27.5 L 52,27.48 V 28.43 H 49 V 30.03 H 52 V 31 H 48 V 25 H 52 V 26 H 49 Z M 47,25 V 31 H 46 V 25 H 47 Z M 42.75,30 L 45,29.99 V 31 H 41 L 43.25,26 L 41,26.01 V 25 H 45 L 42.75,30 Z M 40,31 L 36,27.25 V 31 H 35 V 25 L 39,28.75 V 25 H 40 V 31 Z M 31,26 V 27.5 H 34 V 28.5 H 31 V 30 H 34.02 L 34,31 H 30 V 25 H 34 L 34.02,26 H 31 Z M 27.45,31 L 25,28.33 V 31 H 24 V 25 H 25 V 27.69 L 27.45,25 H 28.93 L 26,28 L 29,31 H 27.45 Z M 15.3,30 H 12.8 L 12.33,31 H 11 L 13.26,25 H 14.74 L 17,31 H 15.66 L 15.3,30 Z M 14.9,29 L 14,26.4 L 13.08,29 H 14.91 Z M 10,25 V 31 H 9 V 27.75 L 7,30.04 L 5,27.75 V 31 H 4 V 25 L 7,28.5 L 10,25 Z M 22.31,29.41 C 21.96,29.78 21.47,30 20.93,30 C 19.85,30 18.98,29.1 18.98,28 S 19.85,26 20.93,26 C 21.47,26 21.96,26.22 22.31,26.59 L 23,25.88 A 2.89,2.89 0 0,0 20.93,25 A 2.97,2.97 0 0,0 18,28 C 18,29.66 19.31,31 20.93,31 C 21.73,31 22.47,30.66 23,30.12 L 22.31,29.42 Z" fill="rgb(254, 254, 253)"/>
</svg>
