<!-- by Finnhub --><svg width="56" height="56" viewBox="0 0 56 56" xmlns="http://www.w3.org/2000/svg"><path fill="#F0F3FA" d="M0 0h56v56H0z"/><path d="m26 39-11.51-4.8c-1.04-.44-2.74-.1-3.75.61-1.01.73-.98 1.66.06 2.1 0 0 15.75 7.09 17.7 7.09-.97-.5-1.01-.5-1.5-1 0-.5-1-4-1-4Z" fill="#122E4A"/><path d="M34 26.5 27.2 20H27l1 4 1 4.5 4.5 5-.5-1 .88-5.11.04-.22.08-.67Z" fill="#81B9DF"/><path d="m34 26.5-.98 5.95s-.2.77.72 1.21c1.05.51 2.49.37 3.42.08 1.22-.38 2.48-1.55 1.48-2.48-.98-.91-4.64-4.76-4.64-4.76Z" fill="#12B7E7"/><path d="M39.56 12.01c-1.49.1-2.8.87-2.96 1.71L34 26.5c.09.08 3.78 3.98 4.67 4.85.21.2.3.43.33.65l2.98-18.65c.16-.84-.93-1.44-2.42-1.34Z" fill="#BEDDEF"/><path d="m26 39 .88 3.96S27.09 44 28.5 44c1.6 0 2.32-.36 2.78-.7.45-.34.74-.8.72-1.18-.02-.38-.4-.87-1-1.12-.5-.5-5-2-5-2Z" fill="#1F6973"/><path d="m29 28.5-1.82-8.48s-.22-.87-1.74-1a4.01 4.01 0 0 0-2.88.92c-.3.29-.78.94-.45 1.6.37.74 6.89 6.96 6.89 6.96Z" fill="#00B1C6"/><path d="M32 42c-.02-.08-1.77-7.8-3-13.5-.12-.12-6.52-6.34-6.89-7.04A.97.97 0 0 1 22 21v.17S24.65 32.63 26 39c.08.04 4.38 1.74 5 2 .62.26 1 1 1 1Z" fill="#0AA773"/></svg>