<?xml version="1.0" encoding="UTF-8"?>
<!-- generated by Finnhub -->
<svg fill="none" viewBox="0 0 55.5 55.5" xmlns="http://www.w3.org/2000/svg">
<path d="M 0,0 H 55.5 V 55.5 H 0 Z" fill="url(#a)"/>
<path d="M 3.99,23.985 H 6 L 9.5,27.416 L 13,24 H 15 V 29.676 A 18.483,18.483 0 0,1 18,28.512 V 24 H 27 A 2,2 0 0,1 25,26 H 20 V 28.026 C 21.883,27.658 23.889,27.5 26,27.5 A 1.5,1.5 0 0,1 24.5,29 H 23 C 21.971,29 20.967,29.088 20,29.242 V 31 H 25 A 2,2 0 0,1 27,33 H 20 A 2,2 0 0,1 18,31 V 29.66 C 14.257,30.63 11.296,32.44 10,33.5 A 16.414,16.414 0 0,1 13,30.847 V 26.825 L 9.5,30.318 L 6,26.825 V 31 A 2,2 0 0,1 4,33 V 24 Z M 52,26 A 2,2 0 0,0 50,24 H 43 A 2,2 0 0,0 41,26 H 50 V 29 H 41 V 33 H 43 V 31 H 50 A 2,2 0 0,0 52,33 V 26 Z M 31,24 A 2,2 0 0,0 29,26 H 33 V 33 H 35 V 26 H 37 A 2,2 0 0,0 39,24 H 31 Z" clip-rule="evenodd" fill="rgb(254, 254, 253)" fill-rule="evenodd"/>
<defs>
<linearGradient id="a" x1="10.418" x2="68.147" y1="9.712" y2="76.017" gradientUnits="userSpaceOnUse">
<stop stop-color="rgb(25, 29, 31)" offset="0"/>
<stop stop-color="rgb(5, 5, 8)" offset="1"/>
</linearGradient>
</defs>
</svg>
