<?xml version="1.0" encoding="UTF-8"?>
<!-- generated by Finnhub -->
<svg viewBox="0 0 55.5 55.5" xmlns="http://www.w3.org/2000/svg">
<path d="M 0,0 H 55.5 V 55.5 H 0 Z" fill="rgb(169, 30, 20)"/>
<path d="M 9.870000000000001,26.665 L 9,22 L 8.12,26.68 L 9,30.6 L 9.88,26.68 Z M 12.85,25.04 L 11.75,28.04 L 9.15,30.68 L 10.59,27.18 L 12.85,25.04 Z M 9.15,30.84 L 11.98,30.38 L 14,28.96 L 11.6,29.26 L 9.16,30.84 Z M 9.15,31 L 10.69,31.8 L 12.14,31.85 L 10.86,31 H 9.16 Z M 7.41,27.18 L 8.84,30.68 L 6.26,28.05 L 5.15,25.05 L 7.41,27.18 Z M 8.84,30.84 L 6.4,29.25 L 4,28.95 L 6.02,30.38 L 8.84,30.84 Z M 5.86,31.84 L 7.13,31 H 8.84 L 7.31,31.8 L 5.86,31.85 Z M 8.81,32.14 L 9,33 L 9.2,32.14 L 9,31.1 L 8.8,32.13 Z M 16.74,22 H 15 V 33 H 17 V 27 L 17.98,30.52 H 18.01 L 19,27 V 33 H 20.99 V 22 H 19.24 L 17.99,26.03 L 16.74,22 Z M 27,29.07 V 28.32 C 27,25.36 27.76,24 28.73,24 C 29.41,24 29.66,24.49 29.89,24.94 L 30,25.16 V 22 H 32 V 33 H 30 V 31.8 L 29.9,32 C 29.68,32.47 29.42,33 28.73,33 C 27.76,33 27,32.05 27,29.07 Z M 30.17,28.97 V 28.42 C 30.17,26.94 29.92,26 29.46,26 C 29,26 28.79,26.95 28.79,28.42 V 28.97 C 28.79,30.46 29.01,31.25 29.46,31.25 C 29.92,31.25 30.17,30.45 30.17,28.97 Z M 41.37,29 C 41.37,29.75 41.47,31.29 42.14,31.3 C 42.52,31.3 42.61,30.76 42.72,30.11 L 42.74,30 H 44.44 C 44.34,31 43.77,33 42.1,33 C 40.3,33 39.5,30.86 39.5,28.48 C 39.5,26.05 40.36,24 42.08,24 C 43.88,24 44.5,26.3 44.5,28.54 V 29 H 41.37 Z M 42.77,27.48 L 42.74,27.19 C 42.69,26.53 42.63,25.75 42.06,25.75 C 41.53,25.75 41.4,26.9 41.37,27.48 H 42.77 Z M 45,24 H 47 V 25.22 C 47.33,24.54 47.63,24 48.37,24 C 49.44,24 50,24.96 50,26.3 V 33 H 48 V 26.75 C 48,26.11 47.9,25.75 47.52,25.75 S 47,26.11 47,26.75 V 33 H 45 V 24 Z M 24.14,31.3 C 23.47,31.3 23.37,29.76 23.37,29 H 26.5 V 28.54 C 26.5,26.3 25.88,24 24.08,24 C 22.36,24 21.5,26.06 21.5,28.49 C 21.5,30.87 22.3,33 24.1,33 C 25.77,33 26.33,31 26.43,30 H 24.73 L 24.72,30.12 C 24.62,30.77 24.52,31.3 24.14,31.3 Z M 24.74,27.2 C 24.74,27.3 24.76,27.4 24.77,27.48 H 23.37 C 23.4,26.9 23.53,25.75 24.07,25.75 C 24.63,25.75 24.69,26.53 24.74,27.2 Z M 33,22 H 34.75 L 36,26.03 L 37.25,22 H 39 V 33 H 37 V 27 L 36.02,30.52 H 35.99 L 35,27 V 33 H 33 V 22 Z" fill="rgb(254, 254, 253)"/>
</svg>
