<?xml version="1.0" encoding="UTF-8"?>
<!-- generated by Finnhub -->
<svg viewBox="0 0 55.5 55.5" xmlns="http://www.w3.org/2000/svg">
<path d="M 0,0 H 55.5 V 55.5 H 0 Z" fill="rgb(239, 242, 248)"/>
<path d="M 27.99,8.985 A 10,10 0 0,0 18,19 V 46 H 38 V 19 A 10,10 0 0,0 28,9 Z M 28,10 A 9,9 0 0,0 19,19 V 45 H 37 V 19 A 9,9 0 0,0 28,10 Z" fill="rgb(242, 115, 31)" fill-rule="evenodd"/>
<path d="M 19.99,18.985 A 8,8 0 1,1 36,19 V 44 H 29.08 V 25.94 C 29.05,24.5 30.05,23.93 31.1,23.32 C 31.63,23.01 32.18,22.69 32.62,22.24 C 33.42,21.43 34,20.04 34,18.5 C 34,15.75 31.6,14 29,14 C 26.5,14 24,15.37 24,17.49 C 24,17.77 24.24,18 24.54,18 C 24.84,18 25,17.77 25,17.49 C 25,15.97 27.5,15 29,15 C 31.08,15 33,16.35 33,18.5 C 33,19.77 32.46,20.9 31.83,21.55 C 31.33,22.05 30.75,22.42 30.19,22.75 C 29.03,23.47 27.98,24.12 28,25.95 V 44 H 20 V 19 Z M 24.5,20 A 0.5,0.5 0 1,0 24.5,19 A 0.5,0.5 0 0,0 24.5,20 Z M 24.5,20 C 23.4,20 23.02,21.83 23.02,22.67 C 23.02,23.17 22.66,23.57 22.37,23.9 C 22.17,24.13 22,24.32 22,24.48 C 22,25.03 23.67,25.15 24.5,25.15 C 25.33,25.15 27,25.03 27,24.48 C 27,24.32 26.83,24.13 26.63,23.9 C 26.33,23.57 25.98,23.16 25.98,22.67 C 25.98,21.83 25.6,20 24.5,20 Z M 24.86,24.9 A 0.58,0.58 0 0,0 25.43,24.26 C 25.91,24.32 26.23,24.44 26.23,24.56 C 26.23,24.76 25.43,24.93 24.42,24.93 C 23.42,24.93 22.6,24.77 22.6,24.56 C 22.6,24.36 23.36,24.21 24.3,24.2 A 0.58,0.58 0 0,0 24.85,24.9 Z" fill="rgb(242, 115, 31)"/>
</svg>
