<?xml version="1.0" encoding="UTF-8"?>
<!-- generated by Finnhub -->
<svg viewBox="0 0 55.5 55.5" xmlns="http://www.w3.org/2000/svg">
<path d="M 0,0 H 55.5 V 55.5 H 0 Z" fill="rgb(239, 242, 248)"/>
<path d="M 18.99,15.985 A 4,4 0 0,1 23.01,12 H 33.02 C 35.22,12 37.06,13.8 37,16.06 C 36.8,23.43 35.5,28.63 31.87,31.86 C 28.3,35.04 22.95,35.87 16.05,36 A 3.98,3.98 0 0,1 12,32 V 23 A 4,4 0 0,1 16,19 H 19 V 16 Z M 32.96,17.03 A 0.99,0.99 0 0,0 31.96,16 H 24.01 A 1,1 0 0,0 23.01,17 V 22 A 1,1 0 0,1 22.01,23 H 17.01 A 1,1 0 0,0 16.01,24 V 30.98 A 1,1 0 0,0 17.03,31.98 C 23.29,31.78 26.96,30.88 29.21,28.88 C 31.4,26.92 32.67,23.52 32.96,17.03 Z" fill="rgb(20, 146, 204)"/>
<path d="M 36.99,39.985 A 4,4 0 0,1 32.99,44 H 22.98 C 20.78,44 18.94,42.2 19,39.94 C 19.2,32.57 20.5,27.37 24.13,24.14 C 27.7,20.96 33.05,20.13 39.95,20 A 3.98,3.98 0 0,1 44,24 V 33 A 4,4 0 0,1 40,37 H 37 V 40 Z M 23.04,38.97 A 0.99,0.99 0 0,0 24.04,40 H 31.99 A 1,1 0 0,0 32.99,39 V 34 A 1,1 0 0,1 33.99,33 H 38.99 A 1,1 0 0,0 39.99,32 V 25.02 A 1,1 0 0,0 38.97,24.02 C 32.71,24.22 29.04,25.12 26.79,27.12 C 24.6,29.08 23.33,32.48 23.04,38.97 Z" fill="rgb(23, 189, 204)"/>
</svg>
