<?xml version="1.0" encoding="UTF-8"?>
<!-- generated by Finnhub -->
<svg viewBox="0 0 55.5 55.5" xmlns="http://www.w3.org/2000/svg">
<path d="M 0,0 H 55.5 V 55.5 H 0 Z" fill="rgb(239, 242, 248)"/>
<path d="M 10.84,18.985 H 10.95 C 11.19,19.03 11.29,19.15 11.23,19.35 A 0.25,0.25 0 0,1 11,19.55 A 3.41,3.41 0 0,0 7.55,22.92 C 7.55,23.29 7.04,23.32 7,22.92 V 22.77 A 3.98,3.98 0 0,1 10.85,19 Z" fill="rgb(1, 108, 180)"/>
<path d="M 32.4,21.555 A 3.62,3.62 0 0,1 35.7,22.65 A 3.05,3.05 0 0,1 35.75,26.79 A 3.85,3.85 0 0,1 30.59,27.19 A 3.17,3.17 0 0,1 29.45,24.66 A 1230.25,1230.25 0 0,1 29.5,19 H 31.97 C 32,19 32,19.02 32,19.05 V 24.47 C 32,25.05 32.17,25.65 32.88,25.69 C 33.14,25.69 33.36,25.64 33.55,25.51 C 34.46,24.88 33.64,23.56 32.63,24.01 L 32.43,24.11 C 32.39,24.13 32.37,24.12 32.37,24.08 L 32.38,21.6 C 32.38,21.59 32.39,21.57 32.41,21.57 Z M 44.79,25.87 L 43.8,27.98 A 0.02,0.02 0 0,1 43.78,28 H 40.84 V 27.99 A 0.02,0.02 0 0,1 40.84,27.97 L 43.48,23.47 V 23.45 L 41.02,19.03 V 19 A 0.02,0.02 0 0,1 41.04,18.99 H 44 A 0.02,0.02 0 0,1 44.01,19 L 45.1,21 H 45.13 L 46.03,19.01 A 0.02,0.02 0 0,1 46.04,19 H 48.94 A 0.02,0.02 0 0,1 48.96,19.02 V 19.03 L 46.45,23.37 A 0.02,0.02 0 0,0 46.45,23.39 L 49,27.97 V 28 H 48.99 L 48.98,28.01 H 45.99 A 0.02,0.02 0 0,1 45.97,27.99 L 44.83,25.88 L 44.82,25.87 H 44.79 Z M 16.97,40 A 2.91,2.91 0 0,1 14.4,38.62 C 14.04,38.02 14,37.42 14,36.62 V 31.03 L 14.04,31.01 L 14.06,31 H 16.66 A 0.03,0.03 0 0,1 16.68,31.03 L 16.66,36.6 C 16.66,37.26 16.94,37.49 17.59,37.49 H 19.92 C 19.96,37.49 20,37.51 20,37.55 V 39.97 L 19.96,39.99 H 16.97 Z M 31.77,39.62 C 30.56,39.02 29.99,37.91 30,36.58 V 31.07 C 30,31.02 30.04,31 30.09,31 H 32.46 A 0.05,0.05 0 0,1 32.51,31.05 L 32.48,36.59 C 32.48,37.23 32.81,37.75 33.53,37.68 C 33.83,37.65 34.07,37.51 34.23,37.26 A 0.09,0.09 0 0,1 34.31,37.22 H 36.81 C 36.85,37.22 36.86,37.24 36.85,37.27 C 36.78,37.79 36.58,38.25 36.25,38.66 C 35.61,39.46 34.75,39.91 33.71,39.99 A 3.65,3.65 0 0,1 31.77,39.62 Z M 13.74,20.07 A 3.93,3.93 0 0,1 20.24,21.94 C 20.31,22.24 20.34,22.71 20.34,23.34 V 27.94 C 20.34,27.96 20.34,27.97 20.32,27.98 A 0.06,0.06 0 0,1 20.28,28 H 18.08 C 18.05,28 18,27.98 18,27.96 V 22.8 C 18,22.69 17.99,22.5 17.95,22.39 A 1.55,1.55 0 0,0 16.48,21.29 C 15.8,21.26 15.28,21.72 15.07,22.36 C 15.01,22.51 15,22.72 15,22.96 V 27.93 C 15,27.95 14.98,27.97 14.97,27.98 A 0.07,0.07 0 0,1 14.92,28 H 12.68 L 12.67,27.99 C 12.65,27.89 12.65,26.26 12.67,23.08 C 12.67,22.74 12.64,22.48 12.57,22.31 C 12.38,21.86 11.95,21.54 11.48,21.37 A 0.07,0.07 0 0,1 11.44,21.31 V 19.06 A 0.03,0.03 0 0,1 11.44,19.04 A 0.03,0.03 0 0,1 11.47,19.03 A 3.92,3.92 0 0,1 13.71,20.08 H 13.74 Z M 38.47,21 C 39.05,21 39.51,20.55 39.51,20 S 39.05,19 38.47,19 C 37.9,19 37.44,19.45 37.44,20 S 37.9,21 38.47,21 Z" fill="rgb(51, 51, 50)"/>
<path d="M 10.94,19.895 C 11.09,19.91 11.18,19.97 11.24,20.09 C 11.32,20.28 11.15,20.44 10.98,20.45 A 2.7,2.7 0 0,0 10.02,20.65 A 2.5,2.5 0 0,0 8.46,22.95 C 8.46,23.12 8.36,23.2 8.18,23.21 C 8.08,23.21 8,23.14 7.94,23 A 0.31,0.31 0 0,1 7.92,22.86 A 3.05,3.05 0 0,1 10.95,19.91 Z" fill="rgb(1, 108, 180)"/>
<path d="M 10.94,21.384999999999998 C 10.06,21.41 9.46,22.09 9.41,22.94 C 9.39,23.22 9.08,23.3 8.91,23.09 A 0.21,0.21 0 0,1 8.87,22.95 C 8.87,21.79 9.77,20.88 10.95,20.85 C 11,20.85 11.05,20.86 11.1,20.89 C 11.2,20.95 11.26,21.03 11.25,21.1 C 11.25,21.3 11.15,21.39 10.95,21.4 Z M 36.32,36.49 A 2.98,2.98 0 0,0 33.72,33.79 C 33.49,33.75 33.28,33.77 33.05,33.76 C 32.93,33.75 32.85,33.69 32.81,33.56 V 33.49 C 32.85,33.36 32.94,33.29 33.08,33.29 C 34.43,33.27 35.48,33.77 36.23,34.8 C 36.55,35.26 36.75,35.8 36.81,36.44 C 36.81,36.57 36.77,36.65 36.66,36.71 C 36.49,36.79 36.33,36.65 36.32,36.49 Z" fill="rgb(1, 108, 180)"/>
<path d="M 28.509999999999998,24.365 C 28.55,25.3 28.2,26.21 27.55,26.88 A 3.62,3.62 0 0,1 21.7,25.95 A 3.43,3.43 0 0,1 22.35,22.11 A 3.62,3.62 0 0,1 28.21,23.05 C 28.4,23.46 28.51,23.92 28.52,24.38 Z M 25.92,24.38 A 1,1 0 0,0 25.56,23.72 A 0.95,0.95 0 0,0 24.19,23.88 A 1.03,1.03 0 0,0 24.34,25.28 A 0.95,0.95 0 0,0 25.71,25.12 C 25.87,24.92 25.95,24.65 25.92,24.39 Z M 22.2,34.39 A 3.63,3.63 0 0,1 25.78,33.05 A 3.1,3.1 0 0,1 28.48,35.61 C 28.54,35.93 28.57,36.29 28.56,36.71 V 40 H 26 C 25.99,40 26,40 26,40 S 26,40.01 26,40 V 36.64 C 26,35.58 24.81,35.19 24.24,36.04 C 23.9,36.54 24.11,37.24 24.67,37.44 A 1.08,1.08 0 0,0 25.6,37.34 H 25.61 L 25.62,37.36 V 39.9 C 25.62,39.94 25.6,39.96 25.56,39.96 A 3.56,3.56 0 0,1 22.36,38.86 A 3.55,3.55 0 0,1 22.2,34.39 Z M 39.63,22 H 37.34 C 37.32,22 37.3,22.02 37.3,22.03 L 37.27,27.97 C 37.27,27.98 37.29,28 37.31,28 H 39.59 C 39.61,28 39.63,28 39.63,27.98 L 39.66,22.05 C 39.66,22.03 39.65,22 39.63,22 Z M 38.05,37.24 C 38.72,37.26 39.23,37.08 39.3,36.29 C 39.36,35.69 39.36,34.94 39.6,34.42 C 39.98,33.63 40.8,33.15 41.62,33.05 C 42.01,33 42.46,32.99 42.96,33.01 C 42.99,33.01 43,33.02 43,33.05 V 35.7 C 43,35.73 42.97,35.74 42.94,35.74 C 42.2,35.74 42.04,36.07 41.97,36.77 C 41.8,38.45 40.94,39.72 39.27,39.94 C 38.89,39.99 38.48,40.01 38.05,40 C 38.02,40 38,39.98 38,39.95 V 37.28 L 38.02,37.27 V 37.25 H 38.05 Z" fill="rgb(51, 51, 50)"/>
<path d="M 10.73,23.305 C 11.14,23.3 11.46,22.97 11.44,22.58 A 0.73,0.73 0 0,0 10.67,21.91 A 0.72,0.72 0 0,0 9.97,22.65 C 9.98,23.04 10.33,23.34 10.74,23.32 Z M 35.5,36.55 A 2.21,2.21 0 0,0 33.14,34.55 C 32.97,34.55 32.87,34.47 32.85,34.32 C 32.85,34.25 32.89,34.19 32.98,34.12 C 33.02,34.09 33.08,34.07 33.13,34.07 C 34.27,34.07 35.11,34.52 35.67,35.44 C 35.86,35.76 35.97,36.13 35.99,36.55 A 0.18,0.18 0 0,1 35.92,36.7 A 0.25,0.25 0 0,1 35.75,36.77 C 35.6,36.77 35.51,36.7 35.5,36.55 Z" fill="rgb(1, 108, 180)"/>
<path d="M 34.64,36.565 C 34.58,35.81 33.92,35.34 33.15,35.35 C 33.01,35.35 32.87,35.24 32.91,35.08 C 32.94,34.95 33.02,34.89 33.15,34.88 C 34.18,34.85 35.05,35.53 35.14,36.56 C 35.14,36.68 35.1,36.76 34.99,36.81 C 34.81,36.89 34.66,36.75 34.65,36.58 Z" fill="rgb(1, 108, 180)"/>
<path d="M 9.27,23.375 H 7.03 A 0.03,0.03 0 0,0 7,23.42 V 27.97 C 7,27.99 7.01,28 7.03,28 H 9.28 C 9.3,28 9.32,27.99 9.32,27.97 V 23.42 A 0.03,0.03 0 0,0 9.28,23.39 Z" fill="rgb(51, 51, 50)"/>
<path d="M 33.39,37.335 C 33.8,37.32 34.11,36.98 34.09,36.59 A 0.73,0.73 0 0,0 33.3,35.93 A 0.72,0.72 0 0,0 32.6,36.69 C 32.63,37.08 32.99,37.37 33.4,37.35 Z" fill="rgb(1, 108, 180)"/>
</svg>
