<?xml version="1.0" encoding="UTF-8"?>
<!-- generated by Finnhub -->
<svg viewBox="0 0 55.5 55.5" xmlns="http://www.w3.org/2000/svg">
<path d="M 0,0 H 55.5 V 55.5 H 0 Z" fill="rgb(239, 242, 248)"/>
<path d="M 25.83,44.205 A 6.85,6.85 0 0,1 23.51,40.52 C 22.73,40.2 21.91,39.82 21.11,39.39 C 20.81,39.25 20.51,39.11 20.21,38.94 A 6.95,6.95 0 0,0 21.29,41.82 A 9.1,9.1 0 0,0 23.83,44.23 A 2.8,2.8 0 0,0 25.83,44.22 Z" fill="rgb(16, 104, 189)"/>
<path d="M 28.18,41.435 C 29.15,41.18 30.06,40.78 30.9,40.26 C 32.2,35.51 33.71,27.06 33.1,21.14 A 24.09,24.09 0 0,0 32.5,17.99 C 32.36,17.91 32.27,17.77 32.14,17.69 C 32,17.61 31.77,17.69 31.59,17.59 C 32.6,23.51 29.9,34.83 28.25,39.04 C 28.25,39.04 27.77,39.8 24.8,40.4 C 24.32,40.47 23.84,40.43 23.38,40.29 C 23.38,40.37 23.39,40.45 23.43,40.52 C 25.43,41.34 27.18,41.75 28.19,41.45 Z" fill="rgb(16, 104, 189)"/>
<path d="M 18.56,16.655 C 23.17,11.73 27.65,11.67 31.24,15.62 A 6.03,6.03 0 0,1 32.3,17.44 C 32.2,16.22 32.73,13.74 32.19,13.08 C 28.79,9 24.31,8.82 19.49,13.48 A 22.41,22.41 0 0,0 13.29,26.25 A 24.3,24.3 0 0,1 15.85,20.5 A 18.97,18.97 0 0,1 18.57,16.67 Z" fill="rgb(16, 104, 189)"/>
<path d="M 42.34,25.224999999999998 C 41.25,23.19 37.13,20.39 33.45,18.7 L 33.57,19.01 C 35.83,25.01 35.5,36.25 34.57,41.41 C 34.57,41.66 34.52,41.91 34.45,42.17 C 34.45,42.17 34.05,43.15 30.53,44.56 C 29.47,44.9 28.37,45.12 27.25,45.2 C 30.34,46.87 33.85,45.97 37.43,42.16 C 42.06,37.29 44.17,28.59 42.35,25.24 Z" fill="rgb(28, 187, 172)"/>
<path d="M 30.889999999999997,40.245 C 30.06,40.78 29.15,41.18 28.19,41.45 C 27.18,41.75 25.43,41.34 23.43,40.52 A 6.85,6.85 0 0,0 25.8,44.21 L 26.32,44.05 C 27.76,43.54 29.12,42.84 30.36,41.97 C 30.6,41.42 30.78,40.85 30.9,40.27 Z" fill="rgb(28, 187, 172)"/>
<path d="M 22.74,32.575 A 66.73,66.73 0 0,1 24.55,19.14 C 24.55,19.01 24.94,18.33 27.83,17.44 C 28.13,17.35 28.43,17.32 28.74,17.34 C 27.74,16.64 26.58,16.24 25.36,16.14 C 22.99,16.01 20.51,17.22 17.9,19.96 A 22.74,22.74 0 0,0 13.13,28.76 A 8.77,8.77 0 0,0 13.67,33.61 C 14.68,35.37 17.82,37.71 21.04,39.38 C 21.84,39.81 22.66,40.19 23.44,40.52 A 28.65,28.65 0 0,1 22.75,32.59 Z" fill="rgb(28, 187, 172)"/>
<path d="M 29.95,14.795 A 4.6,4.6 0 0,1 31.58,17.59 C 31.89,17.69 32.19,17.83 32.48,17.99 A 7.38,7.38 0 0,0 31.23,15.62 C 27.61,11.67 23.15,11.78 18.56,16.67 A 19.06,19.06 0 0,0 15.82,20.5 A 20.36,20.36 0 0,1 18.85,16.74 C 22.94,12.77 26.8,12.3 29.96,14.81 Z" fill="rgb(28, 187, 172)"/>
</svg>
