<?xml version="1.0" encoding="UTF-8"?>
<!-- generated by Finnhub -->
<svg viewBox="0 0 55.5 55.5" xmlns="http://www.w3.org/2000/svg">
<path d="M 0,0 H 55.5 V 55.5 H 0 Z" fill="rgb(175, 10, 26)"/>
<path d="M 10.99,37.119 V 41 C 17.072,37.508 28.593,32.286 46,30.835 V 30 C 33.205,30.714 21.12,33.145 11,37.134 Z" fill="rgb(254, 211, 3)"/>
<path d="M 10.99,42.397999999999996 V 45 C 19.665,38.623 32.355,34.235 46,32.785 V 32 C 32.517,33.21 20.666,36.823 11,42.413 Z" fill="rgb(254, 254, 253)"/>
<path d="M 29.904999999999998,20.967 C 29.541,20.982 29.115,21.005 29,20.982 V 17 S 29.802,16.987 30.1,16.987 C 31.526,16.987 32.155,17.587 32.155,18.895 C 32.155,20.712 30.775,20.97 29.915,20.982 Z M 32.505,24.44 C 32.505,26.226 31.504,26.955 29.995,26.955 H 29 V 22 H 29.86 C 31.763,22 32.505,22.802 32.505,24.44 Z M 31.901,21.253 C 33.257,20.875 34.398,19.911 34.398,18.449 C 34.398,17.046 33.481,16.103 31.602,16.103 C 30.705,16.103 29.579,16.193 28.766,16.193 C 27.968,16.193 27.119,16.185 26.146,16.134 L 26.084,16.126 V 16.777 L 26.141,16.782 C 26.956,16.842 27.016,16.999 27.016,18.308 V 26.048 C 27.016,26.74 26.925,27.078 26.288,27.128 L 26.1,27.143 V 27.784 A 49.746,49.746 0 0,1 28.36,27.718 C 28.86,27.718 29.242,27.746 29.87,27.771 C 33.624,27.936 34.845,25.815 34.845,24.11 C 34.845,22.072 33.34,21.56 31.903,21.27 L 31.901,21.253 Z M 20.163,26.21 C 19.419,26.67 18.552,26.864 17.572,26.864 C 14.922,26.864 13.606,24.834 13.606,21.616 C 13.606,18.781 14.868,16.908 17.285,16.908 C 18.109,16.908 18.775,17.198 19.215,17.612 C 19.288,17.877 19.385,19.259 19.385,19.259 L 20.061,19.261 V 19.211 C 20.067,18.612 20.235,17.221 20.361,16.521 L 20.367,16.466 L 20.317,16.463 C 19.368,16.213 18.401,16 17.113,16 C 14.198,16 11.223,17.754 11.223,21.815 C 11.223,26.074 13.836,27.921 16.986,27.921 C 17.849,27.921 18.994,27.791 19.919,27.286 L 19.934,27.28 L 20.382,26.433 L 20.2,26.188 L 20.163,26.211 Z M 44.53,26.21 C 43.787,26.67 42.922,26.864 41.938,26.864 C 39.291,26.864 37.975,24.834 37.975,21.616 C 37.975,18.781 39.237,16.908 41.653,16.908 C 42.478,16.908 43.143,17.198 43.583,17.612 C 43.654,17.877 43.753,19.259 43.753,19.259 L 44.431,19.261 L 44.427,19.211 C 44.435,18.612 44.601,17.221 44.728,16.521 L 44.735,16.466 L 44.685,16.463 C 43.735,16.213 42.767,16 41.479,16 C 38.566,16 35.592,17.754 35.592,21.815 C 35.592,26.074 38.204,27.921 41.356,27.921 C 42.216,27.921 43.364,27.791 44.289,27.286 L 44.302,27.28 L 44.75,26.433 L 44.569,26.188 L 44.529,26.211 Z M 23.212,16.194 C 22.53,16.194 21.764,16.185 21.113,16.131 L 21.061,16.126 V 16.772 L 21.107,16.774 C 21.959,16.827 22.07,16.966 22.07,18.433 V 25.783 C 22.07,26.905 22.015,27.078 21.148,27.133 L 21.101,27.138 V 27.784 L 21.153,27.778 A 23.754,23.754 0 0,1 23.181,27.711 C 23.848,27.711 24.344,27.727 25.051,27.784 L 25.103,27.79 V 27.144 L 25.059,27.139 C 24.193,27.084 24,26.905 24,25.782 V 18.432 C 24,16.942 24.15,16.827 25.008,16.774 L 25.052,16.772 V 16.126 L 25,16.13 C 24.297,16.184 23.881,16.193 23.212,16.193 Z" fill="rgb(254, 211, 3)"/>
</svg>
