<?xml version="1.0" encoding="UTF-8"?>
<!-- generated by Finnhub -->
<svg viewBox="0 0 55.5 55.5" xmlns="http://www.w3.org/2000/svg">
<path d="M 0,0 H 55.5 V 55.5 H 0 Z" fill="rgb(239, 242, 248)"/>
<path d="M 42.68,24.985 C 44.21,25 45,26.07 45,27.52 V 32 H 43 V 27.98 C 43,26.98 42.9,26.5 42.18,26.5 C 40.94,26.5 41,27.77 41,28.76 V 32 H 39 V 25 H 40.36 L 40.6,26 H 40.69 C 41.11,25.32 41.91,25 42.69,25 Z M 38,25 V 32 H 36 V 25 H 38 Z M 35,32 H 33 V 23 H 35 V 32 Z M 29.2,25 C 30.73,25 32,25.73 32,27.38 V 32 H 30.72 L 30.36,30.96 H 30.31 A 2.63,2.63 0 0,1 28.08,32 C 26.8,32 26,31.13 26,29.86 C 26,28.19 27.6,27.76 29,27.72 L 30,27.68 V 27.38 C 30,26.68 29.8,26.36 29.13,26.36 C 28.47,26.36 27.86,26.57 27.23,26.86 L 26.63,25.6 C 27.36,25.22 28.26,25 29.2,25 Z M 29.46,28.78 C 28.74,28.8 27.89,29 27.89,29.88 C 27.89,30.41 28.27,30.65 28.77,30.65 C 29.57,30.65 30,30.12 30,29.31 V 28.75 L 29.46,28.78 Z M 23.76,30.58 C 24.2,30.58 24.6,30.49 25,30.38 V 31.7 C 24.58,31.86 23.94,32 23.2,32 C 21.8,32 21,31.27 21,29.85 V 27 H 20 V 26.25 L 21.08,25.49 L 21.65,23.99 H 23 V 25.5 L 25,25.49 V 27 L 23,27.01 V 29.85 C 23,30.33 23.24,30.58 23.76,30.58 Z M 17,25 C 18.81,25 20,26.3 20,28.07 V 29 H 16 C 16.03,29.96 16.43,30.63 17.42,30.63 A 5,5 0 0,0 19.63,30.1 V 31.52 A 5,5 0 0,1 17.34,32 C 15.28,32 14,30.58 14,28.55 C 14,26.65 14.94,25 17,25 Z M 17,26.5 C 16.18,26.5 16.06,27 16,27.73 H 18 C 18,26.97 17.81,26.5 17,26.5 Z M 49,25 C 50.81,25 52,26.3 52,28.07 V 29 H 48 C 48.03,29.96 48.43,30.63 49.42,30.63 A 5,5 0 0,0 51.63,30.1 V 31.52 A 5,5 0 0,1 49.34,32 C 47.28,32 46,30.58 46,28.55 C 46,26.65 46.94,25 49,25 Z M 49,26.5 C 48.18,26.5 48.06,27 48,27.73 H 50 C 50,26.97 49.81,26.5 49,26.5 Z M 7.5,32 L 6,26.5 V 32 H 4 V 23 H 6.5 L 8.5,29.5 L 10.5,23 H 13 V 32 H 11 V 26.5 L 9.5,32 H 7.5 Z" fill="rgb(66, 91, 118)"/>
<circle cx="37" cy="23" r="1" fill="rgb(66, 91, 118)"/>
</svg>
