<?xml version="1.0" encoding="UTF-8"?>
<!-- generated by Finnhub -->
<svg viewBox="0 0 55.5 55.5" xmlns="http://www.w3.org/2000/svg">
<path d="M 0,0 H 55.5 V 55.5 H 0 Z" fill="rgb(239, 242, 248)"/>
<path d="M 38.870000000000005,23.665 C 38.71,23.72 38.55,23.78 38.4,23.84 A 0.94,0.94 0 0,0 38.04,24.07 C 37.42,24.77 37.14,25.51 37.19,26.32 C 37.19,26.36 37.17,26.39 37.13,26.38 C 36.63,26.38 36.06,26.43 35.39,26.55 A 0.64,0.64 0 0,0 35.03,26.75 C 34.13,27.74 34.33,28.76 35.63,29.83 C 35.69,29.87 35.69,29.91 35.63,29.95 A 3.97,3.97 0 0,1 33.02,30.37 A 6.95,6.95 0 0,0 32.29,30.34 A 0.6,0.6 0 0,1 31.91,29.93 C 31.9,29.91 31.91,29.89 31.92,29.87 C 32.36,29.5 32.64,29.1 32.77,28.67 C 32.87,28.2 32.92,27.88 32.93,27.74 C 33,26.94 32.86,26.32 32.5,25.85 L 32.28,25.58 A 8.6,8.6 0 0,0 32.29,22.06 A 4.5,4.5 0 0,0 30.22,18.99 C 29.91,18.79 29.49,18.59 28.99,18.42 A 4.18,4.18 0 0,0 24.09,19.62 C 23.15,20.86 22.77,22.62 22.95,24.89 C 22.98,25.16 23.05,25.42 23.15,25.67 C 23.65,26.74 23.97,27.74 24.1,28.64 C 24.13,28.88 24.13,29.17 24.1,29.53 A 0.65,0.65 0 0,0 23.77,29.66 C 23.61,29.67 23.45,29.7 23.29,29.74 A 2.77,2.77 0 0,1 20.51,28.94 A 3.96,3.96 0 0,1 19.43,26.16 A 0.1,0.1 0 0,1 19.48,26.07 A 5.63,5.63 0 0,0 20.85,25.17 C 21.4,24.66 21.51,24.19 21.19,23.77 A 1.65,1.65 0 0,0 20.51,23.34 C 20.45,23.32 20.44,23.28 20.49,23.24 C 22.24,21.3 22.59,20.09 21.53,19.61 A 5.2,5.2 0 0,0 19.65,19.29 A 35,35 0 0,1 19.25,19.28 A 0.67,0.67 0 0,1 18.77,19.08 C 18.59,18.89 18.69,18.6 19.04,18.21 V 18.18 H 19.02 C 18.58,18.52 18.42,18.85 18.54,19.18 C 18.66,19.48 18.98,19.65 19.51,19.66 C 20.44,19.69 21.01,19.86 21.26,20.18 C 21.66,20.71 21.09,21.65 19.56,22.98 A 0.1,0.1 0 0,1 19.48,23.01 C 18.83,22.94 18.13,23.29 17.38,24.06 V 24.07 L 17.4,24.1 H 17.41 A 3.6,3.6 0 0,1 19.13,23.34 C 19.23,23.32 19.25,23.36 19.19,23.44 A 5.3,5.3 0 0,0 18.15,25.6 C 18.14,25.64 18.08,25.68 17.98,25.7 C 17.52,25.55 17.33,25.69 17.42,26.14 L 17.13,26.34 C 16.7,26.15 16.53,26.29 16.59,26.75 L 16.23,27.05 C 15.82,26.98 15.64,27.15 15.7,27.56 L 15.51,27.79 C 15.2,27.89 15.08,28.09 15.15,28.39 L 14.99,29.05 C 14.85,29.13 14.77,29.22 14.75,29.31 C 14.7,29.48 14.77,29.61 14.95,29.71 L 14.99,30.19 A 4.82,4.82 0 0,1 13.26,30.61 C 13.1,30.6 13.01,30.51 13,30.36 C 12.99,30.16 13.04,29.96 13.16,29.76 C 13.36,29.46 13.74,29.02 14.3,28.46 L 14.77,28 C 15.17,27.58 15.33,27.22 15.27,26.91 C 15.24,26.78 15.2,26.77 15.15,26.9 C 15.08,27.05 15.02,27.21 14.97,27.4 C 14.87,27.72 14.8,27.71 14.76,27.37 C 14.7,26.89 14.58,26.31 14.41,25.66 A 0.1,0.1 0 0,0 14.35,25.59 A 0.1,0.1 0 0,0 14.31,25.58 C 14.24,25.58 14.23,25.56 14.26,25.51 A 0.19,0.19 0 0,0 14.3,25.39 C 14.3,25.32 14.26,25.29 14.2,25.34 A 0.06,0.06 0 0,1 14.15,25.34 C 14.11,25.34 14.09,25.32 14.1,25.28 L 14.12,24.83 C 14.12,24.73 14.07,24.67 13.97,24.68 A 0.65,0.65 0 0,0 13.74,24.74 C 13.62,24.79 13.57,24.76 13.58,24.62 A 1,1 0 0,1 13.7,24.22 C 13.77,24.09 13.86,24.08 13.96,24.2 C 14.11,24.38 14.26,24.52 14.43,24.63 C 14.47,24.65 14.51,24.65 14.53,24.62 C 14.84,24.31 14.78,23.94 14.35,23.52 L 13.55,22.7 C 13.35,22.5 13.23,22.3 13.22,22.13 C 13.18,21.65 13.52,21.5 14.22,21.66 L 15.83,22.03 C 16.28,22.13 16.58,22.07 16.72,21.87 C 16.86,21.66 16.82,21.47 16.62,21.29 C 16.54,21.23 16.42,21.13 16.25,21.02 A 3.28,3.28 0 0,1 15.69,20.56 C 15.53,20.38 15.56,20.18 15.79,19.96 C 15.84,19.92 15.84,19.87 15.77,19.84 C 14.55,19.12 14.17,18.64 14.62,18.41 C 14.83,18.3 15.2,18.41 15.72,18.74 C 16.26,19.11 16.82,19.47 17.39,19.84 C 17.97,20.21 18.38,20.34 18.63,20.19 C 18.81,20.09 18.83,19.96 18.69,19.81 C 18.42,19.51 18.12,19.24 17.77,19.01 C 17.73,18.98 17.71,18.94 17.73,18.9 C 17.79,18.73 17.8,18.47 17.78,18.12 C 17.74,17.64 17.8,17.3 17.96,17.09 A 1.3,1.3 0 0,1 19.03,16.55 C 19.17,16.55 19.18,16.51 19.08,16.42 L 18.92,16.28 A 0.33,0.33 0 0,0 18.62,16.21 L 18.15,16.27 C 18,16.28 17.99,16.24 18.12,16.17 C 18.32,16.04 18.52,16.04 18.76,16.16 A 0.2,0.2 0 0,0 18.89,16.18 C 19.21,16.12 19.52,16.08 19.82,16.08 C 19.98,16.07 20,16.12 19.86,16.22 C 19.67,16.36 19.46,16.46 19.25,16.51 C 19.2,16.52 19.19,16.55 19.24,16.58 L 19.34,16.65 C 19.54,16.8 19.72,16.88 19.84,16.87 C 20.27,16.84 20.58,16.5 20.77,15.84 L 20.79,15.76 C 20.82,15.66 20.87,15.57 20.93,15.49 C 21.18,15.19 21.43,15.09 21.68,15.19 C 21.83,15.24 22.06,15.41 22.35,15.71 C 22.85,16.22 23.25,16.42 23.57,16.31 C 23.67,16.29 23.71,16.21 23.71,16.11 C 23.7,15.83 23.47,15.38 23.03,14.78 A 6.46,6.46 0 0,1 22.99,14.72 C 22.96,14.68 22.91,14.67 22.86,14.69 L 22.79,14.73 C 22.31,15.01 22.05,14.99 22.01,14.68 A 4.5,4.5 0 0,1 22.04,13.47 C 22.04,13.42 22.06,13.42 22.09,13.45 L 22.86,14.54 C 22.92,14.63 22.99,14.64 23.07,14.56 C 23.45,14.2 23.87,13.96 24.32,13.86 C 24.35,13.86 24.37,13.83 24.37,13.79 C 24.37,13.76 24.35,13.74 24.32,13.73 A 2.27,2.27 0 0,0 23.78,13.7 L 23.76,13.68 C 23.76,13.66 23.76,13.66 23.78,13.65 A 3.6,3.6 0 0,0 24.9,13.38 C 25.04,13.32 25.27,13.28 25.58,13.26 C 25.82,13.24 25.85,13.31 25.66,13.47 C 25.55,13.57 25.44,13.67 25.34,13.79 C 25.27,13.89 25.29,13.93 25.4,13.93 H 25.65 C 25.75,13.93 25.82,13.88 25.86,13.79 C 25.93,13.64 25.93,13.33 25.87,12.88 C 25.8,12.31 25.86,11.98 26.05,11.93 C 26.42,11.81 26.62,12.08 26.68,12.73 C 26.72,13.26 26.78,13.74 26.84,14.17 C 26.87,14.37 26.95,14.53 27.09,14.67 C 27.25,14.84 27.39,14.83 27.53,14.64 C 27.66,14.47 27.71,14.24 27.71,13.93 C 27.69,13.27 27.67,12.63 27.63,12.01 C 27.61,11.74 27.63,11.47 27.71,11.21 C 27.76,11.01 27.88,10.95 28.07,11.05 C 28.29,11.16 28.44,11.52 28.51,12.11 L 28.71,13.96 C 28.75,14.33 28.84,14.67 28.96,14.99 C 29.04,15.19 29.16,15.29 29.32,15.31 C 29.47,15.33 29.61,15.26 29.72,15.1 C 29.96,14.8 30.14,14.5 30.27,14.2 C 30.54,13.56 30.83,12.94 31.13,12.35 C 31.3,12.02 31.46,11.81 31.63,11.72 C 31.73,11.67 31.83,11.68 31.93,11.74 C 32.03,11.81 32.08,11.9 32.09,12.02 C 32.12,12.22 32.12,12.41 32.09,12.61 C 31.99,13.14 31.91,13.67 31.84,14.21 C 31.81,14.41 31.84,14.61 31.91,14.79 C 32.01,15.02 32.17,15.09 32.38,15.01 A 0.17,0.17 0 0,0 32.48,14.91 L 32.52,14.84 C 32.6,14.68 32.64,14.56 32.66,14.46 L 32.86,13.04 C 32.89,12.84 32.96,12.66 33.06,12.5 A 0.15,0.15 0 0,1 33.18,12.42 C 33.74,12.39 33.68,13.08 33,14.48 L 32.99,14.51 A 0.1,0.1 0 0,0 32.99,14.61 L 33.03,14.64 C 33.08,14.64 33.09,14.67 33.05,14.7 A 0.07,0.07 0 0,1 32.97,14.7 A 0.06,0.06 0 0,1 32.94,14.67 A 0.12,0.12 0 0,0 32.83,14.58 C 32.76,14.58 32.75,14.59 32.8,14.64 L 32.86,14.69 C 32.9,14.71 32.91,14.75 32.89,14.79 C 32.45,15.79 32.45,16.31 32.89,16.37 C 33.06,16.39 33.21,16.34 33.34,16.23 A 8.43,8.43 0 0,0 34.36,15.17 L 34.39,15.19 C 34.41,15.21 34.42,15.23 34.4,15.26 A 0.32,0.32 0 0,0 34.39,15.62 C 34.59,15.96 34.91,15.96 35.35,15.61 L 35.41,15.56 A 0.4,0.4 0 0,1 35.71,15.46 C 36.09,15.51 36.23,15.8 36.13,16.35 C 36.1,16.53 36.05,16.7 35.99,16.85 C 35.77,17.37 35.61,17.85 35.49,18.29 C 35.42,18.56 35.46,18.79 35.62,18.98 C 35.75,19.14 35.89,19.14 36.02,18.98 C 36.2,18.73 36.36,18.48 36.48,18.22 C 36.68,17.75 36.9,17.29 37.1,16.85 C 37.2,16.65 37.3,16.47 37.44,16.31 A 0.18,0.18 0 0,1 37.64,16.25 C 37.73,16.27 37.78,16.33 37.79,16.41 C 37.82,16.73 37.73,17.05 37.52,17.37 C 37.16,17.91 36.79,18.47 36.43,19.05 C 36.08,19.61 36.09,19.95 36.45,20.09 C 36.62,20.15 36.84,20.09 37.1,19.89 C 37.45,19.64 37.82,19.39 38.19,19.11 C 38.39,18.96 38.61,18.88 38.83,18.89 C 38.87,18.89 38.91,18.9 38.95,18.94 C 39.21,19.21 39.25,19.53 39.05,19.9 L 38.58,20.86 A 0.94,0.94 0 0,0 38.52,21.58 C 38.61,21.84 38.87,21.88 39.32,21.68 C 39.71,21.51 40.11,21.33 40.52,21.13 C 41.22,20.78 41.56,20.83 41.57,21.28 C 41.57,21.38 41.53,21.45 41.46,21.51 C 41.28,21.66 41.08,21.77 40.86,21.85 L 39.63,22.29 C 39.03,22.49 38.83,22.75 39.01,23.04 C 39.08,23.14 39.17,23.18 39.28,23.14 C 39.48,23.11 39.65,23.03 39.8,22.91 L 40.74,22.23 C 40.86,22.14 40.99,22.08 41.14,22.04 C 41.29,22 41.37,22.06 41.37,22.22 C 41.38,22.53 41.1,22.79 40.53,23 C 39.98,23.2 39.43,23.43 38.88,23.68 Z M 16.6,21.02 C 16.79,20.78 16.62,20.47 16.1,20.09 C 16.06,20.05 16.05,20.06 16.06,20.12 L 16.36,21.02 A 0.1,0.1 0 0,0 16.42,21.08 C 16.52,21.12 16.58,21.12 16.58,21.06 C 16.58,21.05 16.58,21.03 16.6,21.02 Z M 14.4,25.2 C 14.41,25.16 14.4,25.12 14.34,25.1 C 14.29,25.07 14.24,25.08 14.23,25.12 C 14.21,25.17 14.23,25.2 14.28,25.22 C 14.34,25.25 14.38,25.24 14.39,25.2 Z M 21.8,12.99 C 21.66,12.79 21.58,12.58 21.58,12.36 C 21.58,12.3 21.61,12.25 21.68,12.22 A 0.29,0.29 0 0,1 21.78,12.19 C 21.92,12.19 22.01,12.25 22.04,12.39 C 22.09,12.67 22.1,12.96 22.05,13.26 C 22.05,13.31 22.02,13.32 21.99,13.28 A 0.86,0.86 0 0,1 21.88,13.12 L 21.8,12.99 Z" fill="rgb(44, 44, 43)"/>
<path d="M 34.54,14.945 L 33.35,14.69 C 33.27,14.67 33.26,14.65 33.33,14.61 C 33.57,14.48 33.8,14.32 34.03,14.13 C 34.47,13.77 34.78,13.79 34.99,14.2 C 35.07,14.36 34.98,14.59 34.7,14.89 A 0.5,0.5 0 0,1 34.67,14.92 A 0.12,0.12 0 0,1 34.55,14.96 Z M 35.09,15.07 L 34.81,15.01 C 34.75,14.99 34.75,14.98 34.81,14.95 C 34.92,14.91 35.02,14.93 35.11,15.05 C 35.13,15.07 35.12,15.08 35.09,15.07 Z M 15.47,16.7 C 15.67,16.79 15.93,17.1 16.24,17.65 C 16.34,17.85 16.43,17.99 16.48,18.06 C 16.55,18.16 16.53,18.17 16.44,18.11 C 15.61,17.58 15.18,17.18 15.16,16.91 A 0.2,0.2 0 0,1 15.26,16.71 A 0.2,0.2 0 0,1 15.46,16.69 Z" fill="rgb(44, 44, 43)"/>
<path d="M 32.29,22.044999999999998 C 32.3,22.13 32.28,22.19 32.27,22.24 C 32.26,22.27 32.25,22.27 32.24,22.24 V 22.19 C 32.24,22.11 32.24,22.11 32.21,22.19 A 9.72,9.72 0 0,1 32.06,24.68 C 32.04,24.74 32.02,24.75 31.98,24.69 A 3.26,3.26 0 0,1 31.34,23.19 A 7.1,7.1 0 0,0 30.75,21 L 30.72,21.02 C 30.7,21.02 30.7,21.04 30.7,21.06 C 30.93,21.64 31.06,22.24 31.12,22.86 C 31.18,23.56 31.27,24.07 31.37,24.38 C 31.54,24.88 31.84,25.28 32.28,25.58 L 32.5,25.85 C 31.85,25.73 31.34,25.92 30.97,26.41 C 30.47,27.07 30.37,27.95 30.65,29.06 C 30.75,29.44 30.88,29.73 31.05,29.91 C 31.16,30.04 31.32,30.01 31.53,29.84 C 32.08,29.74 32.46,29.31 32.67,28.57 C 32.74,28.61 32.77,28.65 32.77,28.67 C 32.64,29.1 32.37,29.5 31.92,29.87 A 0.05,0.05 0 0,0 31.91,29.93 C 31.96,30.13 32.09,30.26 32.3,30.34 C 32.78,30.66 33.34,30.79 33.97,30.74 C 34.43,30.71 34.94,30.66 35.51,30.58 C 35.67,30.56 35.83,30.58 35.97,30.62 C 36.1,30.66 36.13,30.73 36.07,30.85 C 35.87,31.23 35.39,31.61 34.63,31.98 C 34.39,32.1 33.91,32.26 33.21,32.45 H 33.09 C 32.71,32.15 32.36,31.55 32.04,30.66 C 32.04,30.64 32.02,30.64 32,30.64 L 31.98,30.68 C 32.24,31.84 32.75,32.68 33.53,33.18 C 34.09,33.54 34.66,33.78 35.25,33.88 C 35.95,34.01 36.55,33.91 37.08,33.58 C 37.6,33.25 37.96,32.74 38.15,32.06 C 38.15,32.02 38.18,32.02 38.2,32.05 C 38.87,32.83 38.84,33.57 38.1,34.26 C 37.79,34.56 37.44,34.76 37.04,34.91 L 35.66,35.43 L 34.09,35.39 A 3.78,3.78 0 0,1 32.71,33.38 A 0.22,0.22 0 0,0 32.65,33.28 C 32.59,33.23 32.57,33.25 32.59,33.31 C 32.72,33.99 32.99,34.6 33.41,35.14 C 33.85,35.71 34.37,36.11 34.99,36.34 C 35.66,36.59 36.62,36.91 37.87,37.28 C 38.63,37.52 39.07,37.78 39.22,38.05 C 39.26,38.13 39.24,38.15 39.16,38.11 A 4.98,4.98 0 0,0 36.66,37.63 C 35.31,37.71 34.25,37.63 33.48,37.39 A 3.87,3.87 0 0,1 30.74,34.33 C 30.72,34.31 30.71,34.3 30.7,34.31 C 30.67,34.32 30.66,34.34 30.66,34.37 C 30.75,35.11 31.01,35.86 31.43,36.61 C 31.26,36.51 31.13,36.49 31.03,36.53 C 30.81,36.44 30.63,36.46 30.45,36.59 C 30.08,36.89 29.95,37.32 30.05,37.89 C 30.13,38.45 30.42,38.93 30.91,39.34 C 30.99,39.4 30.98,39.44 30.87,39.42 C 29.77,39.32 29.02,38.88 28.6,38.12 C 28.15,37.3 28.04,36.02 28.28,34.3 C 28.28,34.28 28.28,34.27 28.26,34.26 C 28.26,34.25 28.24,34.24 28.23,34.26 A 6.94,6.94 0 0,0 27.83,36.53 A 0.1,0.1 0 0,1 27.79,36.61 C 27.72,36.67 27.65,36.67 27.59,36.61 A 0.18,0.18 0 0,0 27.49,36.57 A 2.33,2.33 0 0,0 25.87,36.89 A 3.27,3.27 0 0,0 24.46,38.85 C 24.19,39.86 24.4,40.85 25.09,41.84 C 25.14,41.9 25.12,41.92 25.05,41.89 A 2.8,2.8 0 0,1 23.28,40.29 A 3.2,3.2 0 0,1 23.33,37.87 C 23.55,37.31 23.97,36.51 24.6,35.48 L 25.24,34.41 A 4.9,4.9 0 0,0 25.61,33.53 L 25.58,33.52 C 25.56,33.52 25.54,33.52 25.53,33.54 C 25.42,33.82 25.28,34.09 25.11,34.34 C 24.73,34.94 24.29,35.54 23.81,36.11 A 0.13,0.13 0 0,1 23.69,36.16 C 23.6,36.16 23.47,36.13 23.29,36.09 A 2.63,2.63 0 0,0 22.67,36.02 H 22.15 A 6.42,6.42 0 0,0 17.79,37.58 C 16.76,38.53 16.53,39.62 17.1,40.87 C 17.15,40.97 17.13,40.97 17.05,40.91 C 15.78,39.81 15.54,38.71 16.32,37.6 C 16.49,37.35 16.67,37.14 16.86,36.97 A 11.6,11.6 0 0,1 19.96,34.98 C 21.6,34.18 22.79,33.53 23.56,33.01 C 24.26,32.54 24.65,32.14 24.75,31.83 C 24.77,31.75 24.75,31.74 24.7,31.8 A 8.87,8.87 0 0,1 22.39,33.48 L 21.21,34.01 C 21.09,34.06 21,34.03 20.93,33.92 A 0.14,0.14 0 0,0 20.83,33.86 C 19.25,33.47 18.17,32.78 17.61,31.78 C 17.56,31.7 17.58,31.69 17.65,31.74 C 18.48,32.32 19.39,32.6 20.4,32.58 C 21.2,32.58 22.12,32.31 23.15,31.8 C 23.65,31.55 24.02,31.17 24.26,30.67 C 24.27,30.65 24.26,30.64 24.25,30.63 L 24.22,30.61 A 3.15,3.15 0 0,1 22.06,32.01 L 21.44,31.77 C 21.39,31.67 21.34,31.62 21.26,31.61 A 0.06,0.06 0 0,1 21.21,31.56 A 5.65,5.65 0 0,1 18.73,28.23 C 18.56,27.65 18.58,27.3 18.8,27.19 C 18.9,27.14 18.98,27.16 19.04,27.26 C 19.26,27.6 19.45,27.94 19.63,28.29 C 19.8,28.65 20.02,28.92 20.27,29.11 C 20.83,29.51 21.45,29.79 22.13,29.93 C 22.76,30.06 23.31,29.97 23.77,29.66 C 23.84,29.59 23.95,29.56 24.1,29.53 C 24.11,29.91 24.05,30.28 23.9,30.65 C 23.87,30.73 23.9,30.75 23.95,30.69 A 0.42,0.42 0 0,0 24.06,30.55 C 24.56,29.52 24.52,28.17 23.96,26.51 C 23.78,25.99 23.63,25.37 23.5,24.66 A 6.65,6.65 0 0,1 23.38,23.01 C 23.44,22.3 23.6,21.61 23.86,20.93 A 4.92,4.92 0 0,1 26.74,18.13 A 4.52,4.52 0 0,1 28.99,18.42 C 29.49,18.59 29.91,18.78 30.22,18.99 A 4.5,4.5 0 0,1 32.29,22.06 Z" fill="rgb(28, 120, 143)"/>
<path d="M 26.729999999999997,18.115 A 4.92,4.92 0 0,0 23.86,20.93 A 7.23,7.23 0 0,0 23.38,23.01 C 23.34,23.45 23.38,24.01 23.5,24.66 C 23.63,25.37 23.78,25.99 23.96,26.51 C 24.52,28.17 24.56,29.51 24.06,30.55 A 0.42,0.42 0 0,1 23.96,30.69 C 23.89,30.74 23.87,30.73 23.9,30.65 C 24.05,30.28 24.11,29.91 24.1,29.53 C 24.13,29.17 24.13,28.88 24.1,28.64 C 23.97,27.74 23.65,26.74 23.16,25.67 A 2.3,2.3 0 0,1 22.96,24.89 C 22.76,22.61 23.15,20.86 24.1,19.62 A 4.18,4.18 0 0,1 26.74,18.13 Z" fill="rgb(14, 97, 125)"/>
<path d="M 23.759999999999998,29.645 C 23.31,29.97 22.77,30.06 22.13,29.93 A 4.67,4.67 0 0,1 20.27,29.11 A 2.22,2.22 0 0,1 19.62,28.29 C 19.45,27.94 19.25,27.59 19.04,27.26 C 18.98,27.16 18.9,27.14 18.8,27.19 C 18.58,27.3 18.56,27.65 18.73,28.23 A 5.65,5.65 0 0,0 21.21,31.56 C 21.21,31.59 21.23,31.61 21.26,31.61 C 21.33,31.62 21.39,31.68 21.44,31.77 A 5.67,5.67 0 0,1 18.04,27.06 C 18.04,26.99 18,26.98 17.95,27.02 A 3,3 0 0,0 17.15,28.04 C 16.65,29.04 16.7,29.97 17.31,30.8 A 3.49,3.49 0 0,0 19.76,32.2 C 20.54,32.3 21.31,32.25 22.06,32.01 A 3.15,3.15 0 0,0 24.22,30.61 L 24.25,30.63 C 24.27,30.64 24.27,30.65 24.26,30.67 C 24.02,31.17 23.66,31.55 23.15,31.8 A 6.55,6.55 0 0,1 20.4,32.58 C 19.4,32.6 18.48,32.32 17.65,31.74 C 17.58,31.69 17.56,31.7 17.61,31.78 C 18.17,32.78 19.25,33.48 20.84,33.86 C 20.88,33.87 20.9,33.89 20.93,33.92 C 21,34.03 21.09,34.06 21.21,34.01 C 21.59,33.85 21.98,33.67 22.38,33.48 A 8.87,8.87 0 0,0 24.69,31.8 C 24.75,31.74 24.77,31.75 24.75,31.83 C 24.65,32.14 24.25,32.54 23.55,33.01 A 32.34,32.34 0 0,1 19.58,35.17 A 11.6,11.6 0 0,0 16.86,36.97 C 16.66,37.14 16.49,37.35 16.32,37.6 C 15.54,38.7 15.78,39.8 17.05,40.9 C 17.13,40.98 17.15,40.96 17.1,40.87 C 16.53,39.62 16.76,38.53 17.79,37.59 A 6.42,6.42 0 0,1 22.14,36.03 L 22.67,36.02 C 22.82,36.01 23.03,36.03 23.29,36.09 L 23.69,36.16 C 23.74,36.16 23.78,36.15 23.81,36.11 C 24.29,35.54 24.72,34.95 25.11,34.34 C 25.28,34.09 25.41,33.82 25.53,33.54 C 25.54,33.52 25.56,33.51 25.58,33.52 L 25.61,33.53 V 33.54 C 25.51,33.85 25.39,34.14 25.24,34.41 L 24.6,35.48 A 16.34,16.34 0 0,0 23.33,37.87 A 3.2,3.2 0 0,0 23.28,40.29 C 23.59,41.05 24.18,41.59 25.05,41.89 C 25.12,41.92 25.14,41.9 25.09,41.84 C 24.39,40.86 24.19,39.86 24.45,38.85 C 24.68,38.01 25.15,37.35 25.87,36.89 C 26.32,36.59 26.87,36.49 27.49,36.57 C 27.53,36.57 27.56,36.59 27.59,36.61 C 27.65,36.67 27.72,36.67 27.79,36.61 A 0.1,0.1 0 0,0 27.82,36.52 A 6.94,6.94 0 0,1 28.22,34.25 H 28.26 C 28.28,34.27 28.28,34.28 28.28,34.3 C 28.04,36.03 28.15,37.3 28.6,38.12 C 29.02,38.88 29.78,39.32 30.87,39.42 C 30.98,39.43 30.99,39.4 30.91,39.34 C 30.42,38.93 30.13,38.44 30.04,37.9 C 29.94,37.32 30.08,36.88 30.45,36.59 C 30.62,36.46 30.81,36.44 31.02,36.53 L 30.92,36.59 C 30.62,36.75 30.44,36.9 30.36,37.04 C 30.05,37.55 30.11,38.04 30.54,38.5 C 30.92,38.9 31.4,39.18 31.98,39.32 C 32.18,39.4 32.38,39.45 32.55,39.48 C 33.05,39.57 33.52,39.63 33.97,39.68 C 35.3,39.86 36.46,40.31 37.45,41.06 C 37.48,41.09 37.52,41.09 37.56,41.08 A 5.1,5.1 0 0,0 38.77,40.53 C 39.09,40.33 39.31,40.08 39.43,39.79 A 0.79,0.79 0 0,0 39.23,38.88 C 38.83,38.48 38.14,38.22 37.14,38.13 H 35.74 A 9.69,9.69 0 0,1 34.16,38 L 33.79,37.9 A 6,6 0 0,1 31.43,36.6 A 5.87,5.87 0 0,1 30.66,34.37 C 30.66,34.34 30.67,34.32 30.7,34.31 L 30.74,34.33 L 30.75,34.36 A 3.87,3.87 0 0,0 33.48,37.39 C 34.25,37.63 35.31,37.71 36.66,37.63 C 37.55,37.58 38.38,37.73 39.16,38.11 C 39.24,38.15 39.26,38.13 39.22,38.05 C 39.08,37.77 38.62,37.52 37.87,37.28 C 36.62,36.91 35.66,36.59 34.99,36.34 A 3.51,3.51 0 0,1 33.41,35.14 A 4.35,4.35 0 0,1 32.59,33.31 C 32.57,33.25 32.59,33.23 32.65,33.28 C 32.68,33.31 32.7,33.34 32.71,33.38 C 32.99,34.26 33.45,34.93 34.09,35.38 L 35.26,35.8 C 35.91,35.97 36.56,36.09 37.21,36.14 C 37.05,36.46 37.11,36.64 37.41,36.67 C 37.68,36.69 37.79,36.54 37.76,36.22 C 37.86,36.22 37.97,36.22 38.06,36.25 C 38.19,36.74 38.42,36.78 38.75,36.38 L 39.36,36.58 C 39.32,36.85 39.39,37 39.56,37.03 C 39.68,37.05 39.81,37.01 39.95,36.92 L 40.2,37.25 C 40,37.3 39.86,37.36 39.79,37.45 C 39.67,37.59 39.69,37.72 39.82,37.84 C 39.89,37.91 40,37.93 40.12,37.9 C 40.25,37.87 40.34,37.75 40.4,37.55 L 40.63,37.99 C 40.31,38.19 40.23,38.39 40.38,38.58 C 40.47,38.68 40.6,38.71 40.79,38.66 C 40.83,38.81 40.84,38.96 40.81,39.1 C 40.74,39.13 40.68,39.12 40.64,39.07 C 40.52,38.93 40.4,38.92 40.24,39.05 C 40.09,39.18 40.07,39.33 40.19,39.48 C 40.3,39.62 40.49,39.62 40.74,39.48 C 40.4,40.38 39.44,41.04 37.84,41.45 C 37.79,41.47 37.79,41.49 37.82,41.54 C 38.09,41.84 38.25,42.24 38.3,42.74 C 38.35,43.24 38.3,43.67 38.13,44.04 C 37.81,44.78 37.13,45.34 36.07,45.74 C 35.95,45.79 35.95,45.78 36.05,45.71 A 4.9,4.9 0 0,0 37.47,44.56 C 37.86,44.04 37.94,43.44 37.71,42.79 A 1.88,1.88 0 0,0 36.8,41.73 A 0.15,0.15 0 0,0 36.68,41.72 C 35.86,41.94 35.18,42.38 34.67,43.02 C 34.65,43.04 34.64,43.04 34.63,43.03 V 43.01 C 35.01,42.36 35.54,41.88 36.23,41.56 C 36.28,41.54 36.28,41.52 36.23,41.5 L 35.56,41.3 A 0.92,0.92 0 0,0 35.44,40.97 A 0.14,0.14 0 0,0 35.34,40.91 C 35.14,40.86 34.99,40.95 34.9,41.19 L 34.15,41.11 C 33.95,40.63 33.73,40.63 33.5,41.09 H 32.98 C 32.93,40.89 32.82,40.79 32.67,40.79 C 32.51,40.8 32.4,40.91 32.35,41.11 L 31.92,41.15 L 31.28,41.17 C 31.08,40.8 30.86,40.79 30.58,41.15 C 30.32,41.12 30.08,41.05 29.88,40.93 C 29.96,40.39 29.76,40.27 29.3,40.55 L 28.96,40.15 C 29.22,40.07 29.29,39.92 29.17,39.7 C 29.05,39.49 28.87,39.48 28.63,39.67 A 7.68,7.68 0 0,1 27.89,37.07 C 27.87,36.88 27.79,36.77 27.62,36.72 A 1.82,1.82 0 0,0 25.76,37.22 C 25.55,37.42 25.36,37.73 25.18,38.13 A 2.87,2.87 0 0,0 24.72,40.05 C 24.79,40.34 24.91,40.62 25.07,40.91 C 25.09,40.94 25.12,40.95 25.16,40.95 L 25.15,41.01 A 6.18,6.18 0 0,0 27.41,42.65 C 27.68,42.77 27.92,42.93 28.15,43.12 C 29.24,44.07 29.59,44.93 29.21,45.72 C 28.9,46.35 28.26,46.77 27.29,46.97 C 27.06,47.02 27.05,47 27.27,46.9 C 28.27,46.45 28.71,45.92 28.57,45.31 C 28.44,44.75 27.91,44.18 26.97,43.61 C 27.23,43.47 27.33,43.31 27.27,43.13 C 27.23,43 27.15,42.93 27.03,42.91 A 0.32,0.32 0 0,0 26.73,43.01 A 0.15,0.15 0 0,0 26.69,43.12 C 26.69,43.25 26.64,43.32 26.54,43.35 C 25.91,43 25.25,42.67 24.59,42.38 A 3.21,3.21 0 0,1 22.55,39.23 C 22.68,38.46 22.92,37.75 23.27,37.09 L 23.65,36.35 C 23.69,36.28 23.67,36.25 23.6,36.23 L 23.3,36.2 A 5.69,5.69 0 0,0 21.76,36.15 C 21.14,36.25 20.56,36.45 20,36.72 L 19.66,36.9 L 19.07,37.25 C 18.67,37.52 18.28,37.8 17.92,38.09 C 17.53,38.4 17.3,38.67 17.23,38.89 C 16.87,39.99 17.65,41.09 19.57,42.23 C 19.74,42.33 19.89,42.53 20.04,42.87 L 20.06,42.92 L 20.22,43.21 C 20.29,43.42 20.36,43.65 20.42,43.89 C 20.54,44.41 20.42,44.8 20.08,45.07 C 19.78,45.3 19.38,45.41 18.88,45.39 C 18.84,45.39 18.84,45.39 18.87,45.37 C 19.63,45.15 20.01,44.81 20.01,44.33 C 19.99,44.14 19.92,43.93 19.81,43.7 A 5.93,5.93 0 0,0 17.97,41.96 L 17.79,41.83 A 9.5,9.5 0 0,0 17.03,41.42 A 6.97,6.97 0 0,1 16.04,40.85 C 15.03,40.09 14.84,39.15 15.49,38.01 C 15.69,37.66 15.95,37.33 16.26,37.03 C 16.99,36.32 17.8,35.71 18.69,35.21 L 19.59,34.71 C 19.62,34.69 19.63,34.66 19.59,34.63 C 19.56,34.58 19.49,34.55 19.39,34.55 C 19.41,34.31 19.33,34.18 19.15,34.15 C 19,34.12 18.9,34.17 18.84,34.31 L 18.09,33.95 C 18.13,33.75 18.09,33.63 17.95,33.57 C 17.83,33.51 17.69,33.53 17.54,33.63 L 16.97,33.25 C 17.04,32.92 16.91,32.78 16.57,32.83 C 16.48,32.83 16.42,32.83 16.37,32.78 C 16.27,32.65 16.17,32.56 16.07,32.49 C 16.06,32.5 16.05,32.47 16.05,32.39 A 0.6,0.6 0 0,1 16.09,32.26 A 0.31,0.31 0 0,0 16.11,32.13 C 16.09,31.85 15.93,31.77 15.63,31.89 L 15.35,31.4 A 0.46,0.46 0 0,0 15.23,31.17 C 15.24,31.11 15.23,31.07 15.2,31.07 C 15.45,31 15.55,30.87 15.5,30.67 C 15.45,30.47 15.3,30.4 15.04,30.44 L 14.99,30.19 L 14.95,29.71 C 15.26,29.7 15.39,29.56 15.35,29.31 C 15.31,29.15 15.19,29.07 14.99,29.05 L 15.15,28.39 C 15.35,28.47 15.5,28.47 15.6,28.39 C 15.8,28.24 15.78,28.03 15.51,27.79 L 15.71,27.56 C 16.21,27.74 16.39,27.56 16.23,27.06 L 16.59,26.76 C 17.03,26.96 17.21,26.82 17.13,26.34 L 17.42,26.14 C 17.5,26.14 17.56,26.18 17.58,26.25 C 17.6,26.29 17.58,26.32 17.55,26.35 C 17.35,26.45 17.32,26.61 17.45,26.8 C 17.53,26.92 17.64,26.95 17.77,26.9 C 18.01,26.8 18.07,26.65 17.92,26.42 A 0.29,0.29 0 0,0 17.82,26.32 C 17.77,26.29 17.77,26.26 17.81,26.22 A 0.07,0.07 0 0,1 17.85,26.2 C 17.87,26.2 17.88,26.2 17.89,26.18 C 17.99,26.09 18.01,25.94 17.98,25.71 C 18.08,25.68 18.14,25.64 18.15,25.6 A 5.3,5.3 0 0,1 19.19,23.44 C 19.25,23.36 19.23,23.32 19.13,23.34 A 3.6,3.6 0 0,0 17.4,24.1 L 17.37,24.07 C 18.13,23.29 18.83,22.94 19.47,23.01 A 0.1,0.1 0 0,0 19.55,22.99 C 21.09,21.65 21.65,20.71 21.25,20.19 C 21.02,19.86 20.44,19.69 19.51,19.66 C 18.98,19.65 18.66,19.49 18.54,19.17 C 18.42,18.85 18.58,18.52 19.02,18.17 L 19.04,18.18 V 18.21 C 18.68,18.61 18.59,18.89 18.77,19.08 C 18.87,19.2 19.04,19.27 19.25,19.28 L 19.65,19.29 A 5.2,5.2 0 0,1 21.53,19.61 C 22.59,20.09 22.24,21.3 20.48,23.24 C 20.44,23.28 20.45,23.32 20.51,23.34 L 20.54,23.36 C 20.87,23.5 21.09,23.64 21.19,23.76 C 21.51,24.19 21.39,24.66 20.85,25.17 C 20.51,25.49 20.05,25.79 19.48,26.07 A 0.1,0.1 0 0,0 19.43,26.17 A 3.96,3.96 0 0,0 20.51,28.93 A 2.77,2.77 0 0,0 23.28,29.73 C 23.45,29.7 23.61,29.67 23.78,29.66 Z" fill="rgb(14, 97, 125)"/>
<path d="M 16.66,18.265 L 17.57,18.87 C 17.69,18.94 17.7,19.04 17.62,19.15 C 17.56,19.22 17.48,19.25 17.36,19.23 A 0.22,0.22 0 0,1 17.23,19.16 A 3.73,3.73 0 0,1 16.63,18.31 C 16.59,18.25 16.61,18.24 16.67,18.28 Z" fill="rgb(44, 44, 43)"/>
<path d="M 25.54,24.685 C 26.35,24.56 26.99,24.7 27.47,25.12 C 27.92,25.52 28.19,26.11 28.28,26.9 C 28.28,26.92 28.28,26.93 28.26,26.93 L 28.24,26.92 C 28.02,25.96 27.54,25.37 26.79,25.17 C 26.04,24.95 25.33,25.23 24.69,25.99 C 24.55,26.15 24.52,26.13 24.59,25.94 C 24.77,25.4 24.82,24.54 24.74,23.34 C 24.66,22.34 24.68,21.62 24.78,21.17 C 24.95,20.43 25.38,19.84 26.08,19.42 C 26.11,19.42 26.13,19.41 26.15,19.42 C 26.16,19.42 26.17,19.42 26.17,19.44 L 26.16,19.47 C 25.66,19.87 25.34,20.44 25.21,21.15 C 25.02,22.15 25.1,23.3 25.44,24.63 C 25.46,24.69 25.49,24.71 25.55,24.7 Z M 32.3,22.06 A 8.6,8.6 0 0,1 32.28,25.58 C 31.84,25.28 31.54,24.88 31.38,24.38 C 31.27,24.08 31.18,23.57 31.12,22.86 A 6.66,6.66 0 0,0 30.7,21.06 C 30.7,21.04 30.7,21.03 30.72,21.02 L 30.75,21 H 30.76 C 31.02,21.52 31.22,22.25 31.34,23.19 C 31.42,23.72 31.63,24.22 31.98,24.69 C 32.02,24.75 32.04,24.74 32.06,24.67 A 9.72,9.72 0 0,0 32.21,22.18 C 32.23,22.11 32.24,22.11 32.24,22.19 V 22.24 C 32.24,22.27 32.26,22.27 32.27,22.24 A 0.63,0.63 0 0,0 32.29,22.06 Z" fill="rgb(14, 97, 125)"/>
<path d="M 40.29,30.215 L 40.14,30.2 A 4.73,4.73 0 0,0 38.56,30.08 A 0.5,0.5 0 0,0 38.42,29.69 C 38.31,29.59 38.19,29.59 38.04,29.68 A 0.36,0.36 0 0,1 37.84,29.55 A 0.1,0.1 0 0,1 37.84,29.46 C 38.16,28.69 38.32,27.9 38.32,27.09 C 38.32,27.05 38.34,27.03 38.38,27.06 C 38.91,27.35 39.44,28.01 39.98,29.03 C 40.05,29.14 40.07,29.13 40.05,29.01 C 39.83,27.81 39.28,27.01 38.38,26.62 A 0.1,0.1 0 0,1 38.32,26.54 A 5.59,5.59 0 0,1 38.25,25.61 C 38.25,25.18 38.36,24.81 38.57,24.51 C 39.01,24.45 39.43,24.31 39.84,24.06 A 4.16,4.16 0 0,1 40.74,24.23 C 40.75,24.2 40.74,24.18 40.72,24.17 L 40.3,23.86 C 40.73,23.58 41.17,23.4 41.64,23.32 C 41.68,23.32 41.73,23.32 41.77,23.35 C 41.97,23.5 42,23.67 41.83,23.86 C 41.7,24.02 41.52,24.13 41.3,24.2 L 40.18,24.54 C 40.12,24.56 40.08,24.61 40.05,24.68 C 40.05,24.71 40.02,24.73 39.99,24.72 C 39.84,24.68 39.74,24.74 39.68,24.89 C 39.62,25.04 39.64,25.17 39.73,25.28 C 39.76,25.32 39.79,25.34 39.84,25.34 C 40.07,25.34 40.3,25.29 40.52,25.19 A 0.1,0.1 0 0,0 40.59,25.09 C 40.6,24.96 40.69,24.87 40.83,24.8 C 40.9,24.77 40.9,24.75 40.83,24.75 L 40.61,24.73 C 40.59,24.73 40.58,24.73 40.59,24.71 V 24.63 C 40.91,24.61 41.22,24.6 41.53,24.61 C 41.7,24.61 41.87,24.57 42.03,24.49 C 42.26,24.38 42.5,24.29 42.76,24.22 C 42.89,24.19 42.96,24.24 42.99,24.37 C 43.02,24.51 42.97,24.62 42.85,24.71 C 42.74,24.78 42.61,24.82 42.47,24.81 L 42.14,24.82 H 41.62 A 0.89,0.89 0 0,0 41.12,24.91 L 40.66,25.14 A 0.13,0.13 0 0,0 40.58,25.25 C 40.58,25.29 40.58,25.35 40.6,25.42 L 40.61,25.57 A 21.47,21.47 0 0,0 40.83,29.07 C 40.84,29.21 40.93,29.27 41.06,29.22 L 41.26,29.16 C 41.32,29.14 41.35,29.16 41.34,29.23 C 41.29,29.74 41.06,29.97 40.65,29.93 C 40.46,29.91 40.35,30.01 40.31,30.23 Z M 19.74,24.48 C 19.87,24.17 20.02,23.89 20.17,23.66 C 20.2,23.6 20.25,23.59 20.31,23.63 L 20.65,23.86 C 20.71,23.9 20.71,23.94 20.65,23.98 L 19.79,24.52 C 19.72,24.56 19.7,24.55 19.74,24.48 Z" fill="rgb(44, 44, 43)"/>
<path d="M 40.29,23.845 L 40.72,24.16 C 40.74,24.18 40.75,24.2 40.74,24.22 V 24.23 A 4.16,4.16 0 0,0 39.84,24.06 C 39.27,23.98 38.84,24.13 38.57,24.51 C 38.36,24.81 38.25,25.17 38.25,25.61 C 38.25,25.91 38.27,26.21 38.32,26.54 C 38.32,26.58 38.34,26.6 38.38,26.62 C 39.28,27.01 39.83,27.81 40.05,29.01 C 40.07,29.14 40.05,29.14 39.99,29.03 A 4.79,4.79 0 0,0 38.38,27.06 C 38.34,27.03 38.31,27.05 38.32,27.09 C 38.32,27.89 38.16,28.69 37.84,29.46 A 0.1,0.1 0 0,0 37.84,29.56 C 37.89,29.61 37.96,29.66 38.04,29.68 C 37.93,29.82 37.9,29.95 37.94,30.06 C 37.99,30.16 38.05,30.21 38.14,30.23 C 38.24,30.25 38.33,30.23 38.4,30.17 C 38.43,30.15 38.48,30.13 38.54,30.13 L 38.76,30.35 C 38.64,30.58 38.65,30.75 38.77,30.84 C 38.87,30.92 39.02,30.92 39.22,30.86 L 39.39,31.1 C 39.16,31.5 39.28,31.7 39.74,31.67 L 39.84,32 C 39.54,32.15 39.44,32.32 39.57,32.51 C 39.6,32.56 39.67,32.6 39.76,32.64 L 39.86,32.68 C 39.87,32.75 39.86,32.82 39.82,32.88 A 0.1,0.1 0 0,1 39.74,32.88 A 0.09,0.09 0 0,1 39.69,32.83 A 0.3,0.3 0 0,0 39.44,32.67 C 39.32,32.67 39.24,32.71 39.17,32.81 C 39.03,33.04 39.14,33.21 39.52,33.32 A 4.8,4.8 0 0,1 37.26,35.15 C 36.96,35.25 36.72,35.35 36.57,35.43 H 35.67 L 37.04,34.91 C 37.44,34.77 37.79,34.55 38.09,34.26 C 38.84,33.56 38.87,32.83 38.2,32.05 C 38.18,32.02 38.16,32.02 38.15,32.06 C 37.96,32.74 37.6,33.26 37.08,33.58 A 2.5,2.5 0 0,1 35.25,33.88 A 4.65,4.65 0 0,1 33.53,33.18 A 3.78,3.78 0 0,1 31.98,30.68 C 31.98,30.66 31.98,30.65 32,30.64 C 32.02,30.64 32.03,30.64 32.04,30.66 C 32.36,31.56 32.71,32.16 33.09,32.45 L 33.1,32.51 C 33.1,32.54 33.13,32.56 33.15,32.57 C 33.47,32.77 33.8,32.98 34.15,33.22 C 34.33,33.35 34.52,33.42 34.72,33.45 C 35.85,33.59 36.69,33.41 37.24,32.89 C 37.54,32.6 37.66,32.26 37.58,31.86 A 1.82,1.82 0 0,0 36.98,30.9 C 36.94,30.87 36.91,30.87 36.88,30.9 C 36.48,31.26 36.05,31.58 35.56,31.86 A 4.55,4.55 0 0,1 33.21,32.46 C 33.91,32.26 34.39,32.1 34.63,31.98 C 35.39,31.61 35.87,31.23 36.07,30.85 C 36.13,30.73 36.1,30.65 35.97,30.62 C 35.83,30.57 35.67,30.56 35.51,30.58 C 34.94,30.66 34.43,30.71 33.97,30.74 C 33.34,30.79 32.77,30.66 32.3,30.34 C 32.55,30.34 32.79,30.35 33.02,30.37 L 33.74,30.43 C 34.42,30.43 35.04,30.26 35.63,29.95 C 35.69,29.91 35.69,29.87 35.63,29.83 C 34.33,28.76 34.13,27.73 35.03,26.75 C 35.13,26.65 35.25,26.58 35.39,26.55 A 8.46,8.46 0 0,1 37.13,26.38 C 37.17,26.38 37.19,26.36 37.19,26.32 C 37.13,25.52 37.42,24.76 38.04,24.07 C 38.12,23.98 38.24,23.9 38.4,23.84 A 2.24,2.24 0 0,1 40.3,23.86 Z" fill="rgb(14, 97, 125)"/>
<path d="M 19.599999999999998,25.715 C 19.79,25.73 19.92,25.59 19.92,25.41 A 0.31,0.31 0 0,0 19.62,25.11 A 0.31,0.31 0 0,0 19.3,25.41 C 19.3,25.59 19.44,25.73 19.61,25.73 Z" fill="rgb(9, 80, 103)"/>
<path d="M 30.069999999999997,26.314999999999998 C 30.25,25.68 30.65,25.36 31.28,25.36 C 31.41,25.36 31.41,25.38 31.29,25.42 C 30.59,25.66 30.18,26.17 30.03,26.95 V 26.96 H 30 L 29.99,26.95 C 29.99,26.75 30.01,26.55 30.07,26.33 Z" fill="rgb(14, 97, 125)"/>
<path d="M 17.97,25.685 C 18.01,25.94 17.98,26.1 17.89,26.18 A 0.07,0.07 0 0,1 17.85,26.2 C 17.84,26.2 17.82,26.2 17.81,26.22 C 17.77,26.26 17.77,26.29 17.82,26.32 C 17.86,26.34 17.9,26.37 17.92,26.42 C 18.06,26.65 18.02,26.81 17.77,26.9 C 17.64,26.95 17.53,26.92 17.45,26.8 C 17.32,26.61 17.35,26.46 17.55,26.34 C 17.59,26.32 17.6,26.29 17.58,26.25 C 17.56,26.18 17.5,26.15 17.42,26.14 C 17.33,25.69 17.52,25.54 17.98,25.71 Z M 18.65,26.3 A 0.3,0.3 0 0,0 18.95,26 A 0.3,0.3 0 0,0 18.65,25.69 A 0.3,0.3 0 0,0 18.35,25.99 C 18.35,26.17 18.48,26.31 18.65,26.31 Z" fill="rgb(9, 80, 103)"/>
<path d="M 26.5,30.085 C 26.61,29.62 26.67,29.17 26.72,28.74 C 26.86,27.55 26.59,27 25.89,27.08 C 25.38,27.14 25.08,27.44 25.01,27.98 C 24.96,28.31 25.05,28.81 25.28,29.48 A 2.7,2.7 0 0,1 24.84,26.7 C 24.94,26.41 25.14,26.19 25.43,26.02 C 25.71,25.85 26.01,25.78 26.33,25.8 C 26.97,25.86 27.38,26.3 27.56,27.11 C 27.76,27.99 27.63,28.85 27.16,29.67 C 26.89,30.17 26.66,30.32 26.51,30.1 Z M 32.5,25.85 C 32.86,26.32 33,26.95 32.93,27.74 C 32.92,27.89 32.86,28.2 32.77,28.67 C 32.77,28.65 32.74,28.61 32.67,28.57 C 32.83,28.19 32.8,27.8 32.58,27.4 C 32.43,27.12 32.22,26.95 31.95,26.9 C 31.67,26.86 31.45,26.99 31.3,27.3 C 31.11,27.7 31.07,28.3 31.18,29.14 L 31.24,29.7 C 31.24,29.74 31.26,29.77 31.31,29.78 L 31.53,29.84 C 31.32,30.01 31.16,30.04 31.05,29.91 C 30.88,29.73 30.75,29.44 30.65,29.06 C 30.36,27.96 30.47,27.07 30.97,26.41 C 31.34,25.91 31.85,25.73 32.5,25.85 Z" fill="rgb(14, 97, 125)"/>
<path d="M 17.119999999999997,26.325 C 17.21,26.82 17.03,26.96 16.59,26.75 C 16.52,26.29 16.7,26.15 17.13,26.34 Z" fill="rgb(9, 80, 103)"/>
<path d="M 36.79,28.455 C 36.64,28.36 36.49,28.32 36.35,28.35 L 36.1,28.08 C 36.21,27.9 36.22,27.74 36.12,27.62 C 36.02,27.51 35.89,27.48 35.7,27.55 C 35.65,27.51 35.62,27.47 35.61,27.42 C 35.61,27.38 35.62,27.35 35.66,27.32 C 36.12,27.13 36.58,26.99 37.05,26.91 C 37.1,26.9 37.13,26.92 37.12,26.97 A 5.26,5.26 0 0,1 36.79,28.47 Z M 21.44,31.77 L 22.06,32.01 C 21.31,32.25 20.54,32.31 19.76,32.19 A 3.49,3.49 0 0,1 17.31,30.8 C 16.71,29.96 16.65,29.05 17.14,28.04 A 3,3 0 0,1 17.95,27.02 C 18,26.98 18.03,26.99 18.04,27.06 A 5.68,5.68 0 0,0 21.44,31.77 Z" fill="rgb(44, 44, 43)"/>
<path d="M 16.22,27.044999999999998 C 16.39,27.56 16.21,27.74 15.7,27.56 C 15.64,27.15 15.82,26.98 16.23,27.06 Z M 16.93,27.64 A 0.3,0.3 0 0,0 17.23,27.34 A 0.3,0.3 0 0,0 16.93,27.02 A 0.3,0.3 0 0,0 16.63,27.33 C 16.63,27.5 16.76,27.63 16.93,27.63 Z" fill="rgb(9, 80, 103)"/>
<path d="M 26.5,30.085 C 26.2,30.16 25.96,30.14 25.81,30.03 A 2.96,2.96 0 0,1 25.28,29.49 A 3.64,3.64 0 0,1 25.01,27.98 C 25.08,27.44 25.38,27.14 25.89,27.08 C 26.59,27 26.86,27.55 26.72,28.74 C 26.67,29.17 26.6,29.62 26.52,30.1 Z" fill="rgb(254, 254, 253)"/>
<path d="M 26.16,29.005 C 25.58,28.79 25.36,28.34 25.5,27.67 C 25.53,27.51 25.63,27.45 25.79,27.49 C 25.99,27.53 26.14,27.74 26.22,28.12 C 26.3,28.42 26.32,28.71 26.27,28.96 C 26.27,29.03 26.23,29.05 26.17,29.02 Z M 31.5,28.92 C 31.41,28.32 31.54,27.86 31.86,27.54 A 0.22,0.22 0 0,1 32.08,27.48 C 32.17,27.5 32.23,27.56 32.25,27.65 C 32.42,28.28 32.22,28.74 31.65,29.01 C 31.55,29.05 31.5,29.02 31.49,28.92 Z" fill="rgb(44, 44, 43)"/>
<path d="M 36.09,28.064999999999998 C 35.9,28.18 35.75,28.15 35.65,28.01 C 35.54,27.87 35.55,27.71 35.7,27.55 C 35.88,27.48 36.03,27.51 36.12,27.62 C 36.22,27.74 36.22,27.9 36.1,28.08 Z" fill="rgb(9, 80, 103)"/>
<path d="M 25.56,28.155 C 25.63,28.41 25.79,28.57 25.93,28.53 C 26.06,28.5 26.13,28.28 26.07,28.05 C 26.01,27.81 25.85,27.65 25.71,27.68 C 25.58,27.72 25.51,27.94 25.57,28.18 Z" fill="rgb(254, 254, 253)"/>
<path d="M 15.5,27.765 C 15.78,28.03 15.81,28.24 15.6,28.4 C 15.5,28.47 15.35,28.47 15.15,28.4 C 15.08,28.08 15.2,27.88 15.51,27.78 Z" fill="rgb(9, 80, 103)"/>
<path d="M 31.63,28.185 C 31.59,28.44 31.67,28.65 31.81,28.68 C 31.94,28.71 32.09,28.54 32.14,28.3 C 32.18,28.06 32.11,27.85 31.97,27.82 C 31.84,27.79 31.69,27.96 31.64,28.2 Z" fill="rgb(254, 254, 253)"/>
<path d="M 16.25,28.544999999999998 A 0.3,0.3 0 0,0 16.56,28.26 A 0.3,0.3 0 0,0 16.26,27.94 A 0.3,0.3 0 0,0 15.96,28.25 C 15.96,28.42 16.09,28.56 16.26,28.56 Z M 35.5,28.88 A 0.3,0.3 0 0,0 35.81,28.58 A 0.3,0.3 0 0,0 35.51,28.26 A 0.3,0.3 0 0,0 35.21,28.57 C 35.21,28.74 35.34,28.88 35.51,28.88 Z M 36.35,28.35 C 36.49,28.32 36.64,28.35 36.79,28.47 C 36.83,28.91 36.67,29.05 36.31,28.87 A 0.16,0.16 0 0,1 36.23,28.8 C 36.16,28.64 36.2,28.49 36.35,28.35 Z M 15.95,29.6 A 0.3,0.3 0 0,0 16.25,29.3 A 0.3,0.3 0 0,0 15.95,28.99 A 0.3,0.3 0 0,0 15.65,29.29 C 15.65,29.46 15.78,29.6 15.95,29.6 Z M 36.12,29.63 A 0.3,0.3 0 0,0 36.42,29.32 A 0.3,0.3 0 0,0 36.12,29.01 A 0.3,0.3 0 0,0 35.82,29.31 C 35.82,29.49 35.95,29.63 36.12,29.63 Z M 37.34,29.63 A 0.3,0.3 0 0,0 37.64,29.32 A 0.3,0.3 0 0,0 37.34,29.01 A 0.3,0.3 0 0,0 37.04,29.31 C 37.04,29.49 37.17,29.63 37.34,29.63 Z M 15,29.05 C 15.2,29.07 15.3,29.15 15.34,29.31 C 15.39,29.56 15.26,29.7 14.95,29.71 C 14.77,29.61 14.7,29.48 14.75,29.31 C 14.77,29.22 14.85,29.13 14.99,29.05 Z M 36.96,30.24 A 0.3,0.3 0 0,0 37.26,29.94 A 0.3,0.3 0 0,0 36.96,29.62 A 0.3,0.3 0 0,0 36.66,29.93 C 36.66,30.1 36.79,30.24 36.96,30.24 Z M 38.55,30.08 V 30.13 C 38.48,30.13 38.43,30.15 38.4,30.17 A 0.28,0.28 0 0,1 38.15,30.23 A 0.28,0.28 0 0,1 37.95,30.06 C 37.9,29.95 37.93,29.82 38.05,29.68 C 38.19,29.58 38.31,29.58 38.42,29.69 C 38.51,29.79 38.56,29.92 38.55,30.08 Z" fill="rgb(9, 80, 103)"/>
<path d="M 41.620000000000005,30.125 A 0.3,0.3 0 0,1 41.5,30.23 C 41.34,30.29 41.16,30.33 40.97,30.32 C 40.91,30.32 40.9,30.3 40.95,30.26 C 41.16,30.08 41.38,29.93 41.59,29.82 C 41.71,29.76 41.76,29.79 41.74,29.92 A 0.47,0.47 0 0,1 41.63,30.14 Z" fill="rgb(44, 44, 43)"/>
<path d="M 15.94,30.724999999999998 C 16.12,30.74 16.26,30.6 16.26,30.44 A 0.31,0.31 0 0,0 15.96,30.12 A 0.31,0.31 0 1,0 15.96,30.74 Z M 37.81,30.85 A 0.3,0.3 0 0,0 38.11,30.55 A 0.3,0.3 0 0,0 37.81,30.23 A 0.3,0.3 0 0,0 37.51,30.54 C 37.51,30.71 37.64,30.85 37.81,30.85 Z" fill="rgb(9, 80, 103)"/>
<path d="M 40.29,30.215 L 40.8,30.31 C 40.86,30.31 40.87,30.34 40.8,30.37 L 40.4,30.59 C 40.34,30.62 40.3,30.6 40.28,30.54 A 0.36,0.36 0 0,1 40.31,30.24 Z" fill="rgb(44, 44, 43)"/>
<path d="M 39.21,30.845 C 39.02,30.92 38.87,30.92 38.77,30.84 C 38.65,30.74 38.64,30.58 38.77,30.34 C 39.2,30.24 39.35,30.41 39.22,30.86 Z M 15.04,30.44 C 15.3,30.4 15.45,30.48 15.5,30.67 C 15.55,30.87 15.45,31 15.2,31.07 C 14.86,30.95 14.8,30.74 15.04,30.44 Z" fill="rgb(9, 80, 103)"/>
<path d="M 33.080000000000005,32.435 H 33.43 C 34.21,32.43 34.93,32.23 35.56,31.86 C 36.05,31.58 36.49,31.26 36.87,30.9 C 36.91,30.87 36.94,30.87 36.97,30.9 C 37.3,31.2 37.5,31.51 37.57,31.86 C 37.66,32.26 37.55,32.6 37.24,32.89 C 36.69,33.41 35.84,33.59 34.72,33.45 C 34.52,33.43 34.33,33.35 34.14,33.22 C 33.8,32.98 33.47,32.77 33.14,32.57 A 0.1,0.1 0 0,1 33.1,32.51 A 0.23,0.23 0 0,1 33.09,32.45 Z" fill="rgb(44, 44, 43)"/>
<path d="M 38.59,31.525 A 0.3,0.3 0 0,0 38.92,31.23 A 0.3,0.3 0 0,0 38.61,30.92 A 0.3,0.3 0 0,0 38.31,31.22 C 38.31,31.4 38.44,31.54 38.61,31.54 Z M 39.81,31.62 C 39.81,31.59 39.79,31.61 39.74,31.67 C 39.28,31.69 39.16,31.5 39.39,31.1 C 39.83,31.04 39.97,31.21 39.81,31.62 Z" fill="rgb(9, 80, 103)"/>
<path d="M 15.22,31.155 C 15.3,31.26 15.33,31.33 15.35,31.4 L 14.22,32.39 C 14.1,32.49 13.99,32.56 13.87,32.59 C 13.74,32.65 13.64,32.6 13.59,32.47 C 13.49,32.2 13.66,31.94 14.11,31.7 C 14.48,31.5 14.85,31.33 15.23,31.17 Z" fill="rgb(44, 44, 43)"/>
<path d="M 16.25,31.785 C 16.43,31.8 16.57,31.66 16.57,31.48 A 0.31,0.31 0 0,0 16.27,31.18 C 16.09,31.18 15.95,31.31 15.95,31.48 C 15.95,31.66 16.09,31.79 16.26,31.79 Z" fill="rgb(9, 80, 103)"/>
<path d="M 39.800000000000004,31.605 C 40.39,31.9 40.96,32.21 41.53,32.55 C 41.74,32.68 41.9,32.82 42.01,32.99 C 42.07,33.07 42.07,33.15 42.03,33.24 A 0.23,0.23 0 0,1 41.82,33.37 C 41.55,33.37 41.07,33.07 40.37,32.44 C 40.34,32.42 40.32,32.42 40.3,32.45 C 39.81,33.19 39.38,33.9 39.01,34.59 C 38.91,34.77 38.97,34.89 39.17,34.91 L 39.74,35.01 C 39.87,35.03 39.91,35.11 39.85,35.22 C 39.69,35.58 39.45,35.62 39.14,35.36 C 38.85,35.13 38.59,34.86 38.35,34.57 A 4.8,4.8 0 0,0 39.52,33.32 L 39.82,32.87 A 0.22,0.22 0 0,0 39.86,32.68 L 40,32.6 C 40.1,32.54 40.15,32.45 40.15,32.35 C 40.14,32.25 40.08,32.16 39.98,32.1 A 0.79,0.79 0 0,1 39.84,32 L 39.74,31.67 C 39.79,31.61 39.82,31.59 39.81,31.62 Z" fill="rgb(44, 44, 43)"/>
<path d="M 39.21,32.235 A 0.3,0.3 0 0,0 39.52,31.95 A 0.3,0.3 0 0,0 39.22,31.64 A 0.3,0.3 0 0,0 38.92,31.94 C 38.92,32.12 39.05,32.25 39.22,32.25 Z M 16.05,32.39 C 15.82,32.49 15.65,32.45 15.55,32.29 C 15.46,32.15 15.49,32.01 15.63,31.89 C 15.93,31.77 16.09,31.85 16.11,32.13 C 16.11,32.17 16.11,32.21 16.09,32.26 A 0.6,0.6 0 0,0 16.05,32.39 Z M 39.84,32 C 39.87,32.04 39.92,32.07 39.98,32.1 C 40.08,32.16 40.14,32.24 40.15,32.35 C 40.15,32.45 40.1,32.54 40,32.6 L 39.86,32.68 A 1.13,1.13 0 0,0 39.76,32.64 C 39.66,32.6 39.6,32.56 39.56,32.51 C 39.45,32.32 39.54,32.15 39.84,32.01 Z M 16.87,32.71 A 0.3,0.3 0 0,0 17.17,32.41 A 0.3,0.3 0 0,0 16.87,32.09 A 0.3,0.3 0 0,0 16.57,32.4 C 16.57,32.57 16.7,32.71 16.87,32.71 Z" fill="rgb(9, 80, 103)"/>
<path d="M 16.06,32.485 C 16.17,32.56 16.27,32.65 16.37,32.78 C 16.4,32.81 16.4,32.86 16.36,32.93 L 16.3,32.9 C 16.27,32.89 16.25,32.9 16.24,32.93 A 0.16,0.16 0 0,0 16.22,33.03 L 16.34,33.72 C 16.34,33.76 16.37,33.77 16.41,33.74 C 16.5,33.66 16.55,33.54 16.57,33.4 C 16.71,33.42 16.85,33.37 16.97,33.25 L 17.54,33.63 C 17.46,33.85 17.5,34.01 17.65,34.11 C 17.81,34.21 17.95,34.15 18.09,33.95 L 18.84,34.31 C 18.71,34.49 18.75,34.63 18.95,34.73 C 19.15,34.82 19.29,34.76 19.39,34.55 C 19.49,34.55 19.56,34.58 19.59,34.63 C 19.63,34.66 19.62,34.69 19.59,34.71 L 18.69,35.21 C 18.74,34.91 18.69,34.71 18.52,34.6 C 18.37,34.5 18.16,34.48 17.9,34.56 L 16.74,34.96 C 16.31,35.13 16.02,35.1 15.88,34.86 C 15.72,34.6 15.82,34.31 16.18,34 C 16.22,33.97 16.23,33.93 16.2,33.88 A 1.71,1.71 0 0,1 16.07,32.49 Z" fill="rgb(44, 44, 43)"/>
<path d="M 39.81,32.855 L 39.52,33.32 C 39.14,33.22 39.02,33.04 39.17,32.82 C 39.23,32.72 39.32,32.66 39.44,32.67 C 39.54,32.67 39.63,32.73 39.69,32.83 C 39.7,32.85 39.72,32.87 39.74,32.87 A 0.1,0.1 0 0,0 39.82,32.87 Z M 17.76,33.36 A 0.3,0.3 0 0,0 18.06,33.06 A 0.3,0.3 0 0,0 17.76,32.75 A 0.3,0.3 0 0,0 17.46,33.05 C 17.46,33.22 17.59,33.36 17.76,33.36 Z M 16.38,32.78 C 16.42,32.82 16.48,32.84 16.56,32.83 C 16.91,32.78 17.04,32.92 16.97,33.25 C 16.85,33.37 16.71,33.42 16.57,33.4 C 16.41,33.3 16.34,33.15 16.36,32.93 C 16.4,32.86 16.4,32.81 16.38,32.78 Z M 18.97,34.01 A 0.3,0.3 0 0,0 19.27,33.71 A 0.3,0.3 0 0,0 18.97,33.39 A 0.3,0.3 0 0,0 18.66,33.7 C 18.66,33.87 18.8,34.01 18.96,34.01 Z M 18.1,33.95 C 17.96,34.15 17.8,34.21 17.65,34.11 C 17.5,34.01 17.46,33.85 17.54,33.63 C 17.69,33.53 17.83,33.51 17.95,33.57 C 18.09,33.63 18.13,33.76 18.09,33.95 Z M 19.39,34.55 C 19.29,34.75 19.15,34.82 18.95,34.73 C 18.75,34.63 18.71,34.49 18.84,34.31 C 18.9,34.17 19,34.11 19.15,34.14 C 19.33,34.18 19.41,34.31 19.39,34.54 Z" fill="rgb(9, 80, 103)"/>
<path d="M 34.09,35.375 L 35.66,35.43 H 36.57 L 35.27,35.8 L 34.09,35.39 Z" fill="rgb(44, 44, 43)"/>
<path d="M 38.74,36.365 C 38.42,36.78 38.19,36.74 38.07,36.25 C 38.34,35.91 38.57,35.95 38.75,36.38 Z" fill="rgb(9, 80, 103)"/>
<path d="M 22.54,39.214999999999996 A 1.1,1.1 0 0,1 22.38,38.6 C 22.4,38.23 22.43,37.85 22.47,37.48 C 22.52,37.02 22.43,36.69 22.21,36.49 C 21.94,36.26 21.51,36.5 20.93,37.21 L 20.84,37.31 C 20.69,37.49 20.52,37.59 20.33,37.59 C 20.12,37.59 19.98,37.48 19.9,37.24 C 19.87,37.13 19.9,36.96 20,36.72 A 5.82,5.82 0 0,1 21.76,36.15 A 5.68,5.68 0 0,1 23.6,36.23 C 23.67,36.24 23.69,36.28 23.65,36.35 L 23.27,37.09 A 7.33,7.33 0 0,0 22.55,39.23 Z" fill="rgb(44, 44, 43)"/>
<path d="M 37.75,36.205 C 37.79,36.54 37.68,36.69 37.42,36.67 C 37.12,36.64 37.05,36.47 37.21,36.14 C 37.41,36.05 37.6,36.08 37.76,36.22 Z M 39.95,36.92 C 39.81,37.02 39.68,37.05 39.57,37.03 C 39.39,37 39.32,36.85 39.36,36.57 C 39.76,36.31 39.96,36.43 39.95,36.92 Z" fill="rgb(9, 80, 103)"/>
<path d="M 31.419999999999998,36.585 A 6,6 0 0,0 33.79,37.9 L 33.69,38.2 C 33.65,38.41 33.59,38.55 33.53,38.62 C 33.45,38.7 33.35,38.77 33.23,38.83 C 32.81,39.05 32.39,39.21 31.98,39.32 A 2.85,2.85 0 0,1 30.54,38.5 C 30.11,38.04 30.04,37.55 30.36,37.04 C 30.44,36.9 30.63,36.75 30.92,36.59 L 31.02,36.53 C 31.12,36.49 31.26,36.51 31.43,36.61 Z M 28.63,39.67 C 28.58,39.82 28.6,39.97 28.69,40.11 L 28.1,40.17 C 28.05,40.17 28.04,40.2 28.07,40.24 C 28.15,40.34 28.12,40.4 28,40.43 C 27.55,40.52 27.28,40.35 27.18,39.92 C 27.1,39.58 26.94,39.41 26.69,39.41 C 26.38,39.4 26.23,39.57 26.25,39.91 C 26.27,40.25 26.3,40.61 26.35,40.97 C 26.37,41.09 26.35,41.2 26.31,41.3 C 26.25,41.42 26.16,41.46 26.03,41.4 C 25.69,41.28 25.49,40.79 25.43,39.95 A 16.2,16.2 0 0,0 25.18,38.13 C 25.35,37.73 25.55,37.43 25.76,37.21 A 1.82,1.82 0 0,1 27.62,36.72 C 27.78,36.77 27.87,36.88 27.89,37.08 C 27.99,37.98 28.23,38.85 28.63,39.67 Z" fill="rgb(44, 44, 43)"/>
<path d="M 38.9,37.285 A 0.3,0.3 0 0,0 39.21,37 A 0.3,0.3 0 0,0 38.91,36.7 A 0.3,0.3 0 0,0 38.61,37 C 38.61,37.16 38.75,37.3 38.91,37.3 Z" fill="rgb(9, 80, 103)"/>
<path d="M 19.65,36.885 C 19.59,37.31 19.52,37.72 19.43,38.12 C 19.38,38.35 19.3,38.56 19.18,38.75 C 19.12,38.85 19.04,38.85 18.95,38.78 C 18.65,38.53 18.7,38.02 19.07,37.25 L 19.67,36.9 Z" fill="rgb(44, 44, 43)"/>
<path d="M 40.190000000000005,37.235 L 40.4,37.55 C 40.34,37.75 40.25,37.87 40.12,37.9 C 40,37.93 39.89,37.9 39.82,37.84 C 39.68,37.72 39.67,37.59 39.79,37.44 C 39.86,37.36 39.99,37.3 40.19,37.25 Z M 40.63,37.99 L 40.86,38.22 C 40.98,38.32 40.96,38.46 40.79,38.66 C 40.6,38.71 40.47,38.68 40.39,38.58 C 40.23,38.4 40.31,38.2 40.63,37.98 Z" fill="rgb(9, 80, 103)"/>
<path d="M 34.15,37.985 C 34.19,38.04 34.23,38.05 34.26,38.03 C 34.26,38.45 34.16,38.83 33.96,39.19 A 0.6,0.6 0 0,1 33.72,39.43 A 0.32,0.32 0 0,1 33.59,39.47 C 33.49,39.48 33.46,39.44 33.5,39.34 L 34.16,38 Z M 21.03,38.13 V 38.11 C 21.13,37.99 21.39,38.11 21.8,38.47 L 21.82,38.49 C 22.22,38.85 22.38,39.09 22.28,39.2 H 22.26 L 21.03,38.13 Z" fill="rgb(44, 44, 43)"/>
<path d="M 40.800000000000004,39.085 C 40.81,39.24 40.79,39.37 40.74,39.49 C 40.49,39.62 40.31,39.62 40.19,39.48 C 40.07,39.33 40.09,39.18 40.25,39.05 C 40.4,38.92 40.52,38.93 40.64,39.07 C 40.68,39.12 40.74,39.13 40.81,39.1 Z M 28.96,40.16 L 28.69,40.11 A 0.46,0.46 0 0,1 28.63,39.67 C 28.87,39.47 29.05,39.49 29.17,39.7 C 29.29,39.92 29.22,40.07 28.96,40.16 Z" fill="rgb(9, 80, 103)"/>
<path d="M 25.15,40.935 C 25.12,40.95 25.09,40.95 25.07,40.91 A 3.22,3.22 0 0,1 24.72,40.05 C 24.8,39.95 24.86,39.82 24.88,39.67 C 24.88,39.63 24.89,39.63 24.91,39.67 C 25.11,40.25 25.19,40.67 25.16,40.94 Z" fill="rgb(44, 44, 43)"/>
<path d="M 29.97,40.335 A 0.3,0.3 0 0,0 30.28,40.04 A 0.3,0.3 0 0,0 29.98,39.73 A 0.3,0.3 0 0,0 29.68,40.03 C 29.68,40.21 29.81,40.35 29.98,40.35 Z" fill="rgb(9, 80, 103)"/>
<path d="M 21.09,39.935 L 21.33,40.1 C 21.39,40.14 21.4,40.19 21.37,40.25 A 0.6,0.6 0 0,1 21.06,40.5 C 20.98,40.53 20.93,40.5 20.91,40.41 A 0.72,0.72 0 0,1 20.92,40.01 C 20.95,39.92 21.01,39.91 21.09,39.95 Z" fill="rgb(44, 44, 43)"/>
<path d="M 32.34,40.644999999999996 A 0.3,0.3 0 0,0 32.66,40.35 A 0.3,0.3 0 0,0 32.36,40.05 A 0.3,0.3 0 0,0 32.05,40.35 C 32.05,40.52 32.19,40.65 32.35,40.65 Z M 33.66,40.66 C 33.83,40.66 33.96,40.52 33.96,40.35 A 0.31,0.31 0 0,0 33.66,40.04 C 33.49,40.04 33.36,40.18 33.36,40.34 C 33.36,40.52 33.49,40.66 33.66,40.66 Z M 31.17,40.72 C 31.34,40.72 31.47,40.58 31.47,40.4 A 0.31,0.31 0 0,0 31.17,40.09 A 0.31,0.31 0 0,0 30.86,40.4 C 30.86,40.58 31,40.72 31.16,40.72 Z M 34.96,40.71 A 0.3,0.3 0 0,0 35.26,40.41 A 0.3,0.3 0 0,0 34.96,40.11 A 0.3,0.3 0 0,0 34.66,40.41 C 34.66,40.58 34.79,40.71 34.96,40.71 Z M 29.88,40.93 C 29.5,41.12 29.31,40.99 29.3,40.55 C 29.76,40.27 29.96,40.39 29.88,40.93 Z M 36.08,41.08 A 0.3,0.3 0 0,0 36.39,40.78 A 0.3,0.3 0 0,0 36.09,40.46 A 0.3,0.3 0 0,0 35.78,40.77 C 35.78,40.94 35.92,41.07 36.08,41.07 Z" fill="rgb(9, 80, 103)"/>
<path d="M 20.54,41.115 C 20.56,41.02 20.61,40.9 20.69,40.78 C 20.75,40.69 20.83,40.67 20.93,40.72 C 21.01,40.77 21.04,40.82 21.03,40.91 C 21.03,40.95 21.01,40.98 20.98,41.01 A 1.6,1.6 0 0,1 20.7,41.22 C 20.59,41.29 20.54,41.26 20.55,41.12 Z" fill="rgb(44, 44, 43)"/>
<path d="M 34.14,41.085 C 34.08,41.3 33.96,41.4 33.8,41.39 C 33.64,41.38 33.54,41.29 33.5,41.09 C 33.73,40.63 33.95,40.63 34.15,41.11 Z M 32.98,41.1 A 0.52,0.52 0 0,1 32.78,41.43 C 32.52,41.43 32.37,41.33 32.35,41.11 C 32.4,40.91 32.51,40.81 32.67,40.79 C 32.82,40.79 32.93,40.89 32.97,41.09 Z M 31.28,41.17 C 31.21,41.39 31.1,41.51 30.95,41.51 C 30.77,41.52 30.65,41.4 30.59,41.15 C 30.86,40.79 31.09,40.8 31.29,41.17 Z M 35.56,41.3 C 35.26,41.62 35.04,41.58 34.9,41.19 C 34.99,40.95 35.14,40.86 35.34,40.91 C 35.38,40.91 35.41,40.94 35.44,40.97 C 35.49,41.05 35.53,41.16 35.56,41.29 Z" fill="rgb(9, 80, 103)"/>
<path d="M 32.34,41.085 C 32.37,41.33 32.52,41.44 32.79,41.43 C 32.71,41.6 32.56,41.63 32.34,41.53 C 32.16,41.43 32.02,41.31 31.92,41.15 L 32.35,41.11 Z M 17.78,41.83 L 17.98,41.96 A 0.25,0.25 0 0,1 17.84,42.04 C 17.79,42.06 17.77,42.04 17.77,41.99 L 17.78,41.83 Z M 20.22,43.2 L 20.06,42.92 L 20.42,41.98 C 20.42,41.97 20.43,41.96 20.45,41.97 H 20.48 C 20.51,41.99 20.52,42.01 20.52,42.05 L 20.22,43.21 Z" fill="rgb(44, 44, 43)"/>
<path d="M 26.97,43.585 L 26.54,43.35 C 26.64,43.33 26.69,43.25 26.69,43.12 C 26.69,43.08 26.71,43.05 26.73,43.02 C 26.82,42.92 26.92,42.89 27.03,42.91 C 27.15,42.93 27.23,43 27.27,43.13 C 27.33,43.31 27.23,43.47 26.97,43.61 Z" fill="rgb(9, 80, 103)"/>
<path d="M 19.79,43.685 C 19.92,43.93 20,44.14 20.01,44.33 A 0.42,0.42 0 0,0 19.91,44.45 C 19.83,44.61 19.71,44.66 19.58,44.61 C 19.53,44.6 19.52,44.56 19.53,44.51 L 19.8,43.7 Z" fill="rgb(44, 44, 43)"/>
</svg>
