<!-- by Finnhub --><svg width="56" height="56" viewBox="0 0 56 56" fill="none" xmlns="http://www.w3.org/2000/svg">
<rect width="56" height="56" fill="#FFD700"/>
<path d="M11 24.8445C11 25.2556 11.1925 25.5116 11.6261 25.5116C12.5631 25.5116 13 24.1817 13 23.4507C13 22.3916 12.3867 21.246 11.2225 21.1694L11.326 20.8657C12.2896 20.9161 12.4696 19.7779 12.4696 19.049C12.4696 18.51 12.2693 17.4884 11.5485 17.4884C11.197 17.4884 11 17.7499 11 18.096V24.8445ZM11.1035 17C13.1049 17 14.0168 17.735 14.0168 19.1085C14.0168 19.858 13.6137 20.5877 12.9146 20.9014V20.9907C14.0779 21.1491 14.6429 22.1965 14.6429 23.3077C14.6429 25.0566 13.2299 26 11.5485 26C10.5215 26 9.5 25.8153 9.5 24.5169V18.0007C9.5 17.7823 9.36891 17.6731 9.10672 17.6731C8.41249 17.6731 7.46636 18.2578 7.46636 19.049C7.46636 19.2398 7.50775 19.6895 7.72509 19.7578C7.76649 19.7657 7.79581 19.7697 7.81306 19.7697C8.08129 19.7697 8.20336 19.454 8.43919 19.454C8.73464 19.454 9 19.7669 9 20C9 20.5 8.48672 20.9907 8 20.9907C7.30532 20.9907 7 20.1021 7 19.4659C7 18.1782 7.90829 17.4519 9.0912 17.1966C9.75685 17.0529 10.2933 17 11.1035 17Z" fill="#80650A"/>
<path d="M16 22.9943C16 21.4981 16.8533 20 18.5 20C20.1373 20 21 21.4035 21 22.9146C21 24.3958 20.1583 26 18.5 26C16.8508 26 16 24.4895 16 22.9943ZM19.5 22.9374C19.5 22.3426 19.4627 20.5806 18.5 20.5806C17.5761 20.5806 17.5 22.4272 17.5 22.9943C17.5 23.5649 17.5728 25.4194 18.5 25.4194C19.424 25.4194 19.5 23.5049 19.5 22.9374Z" fill="#80650A"/>
<path d="M24.9921 23.1395C24.9921 22.637 25.0271 21 24.1777 21C23.8175 21 23.6086 21.4672 23.4999 21.6279V25.3837C23.4999 25.8191 23.1594 26 22.7564 26C22.3682 26 22 25.8089 22 25.3837V21.0233C22 20.7962 21.9177 20.6047 21.7102 20.6047C21.5989 20.6047 21.5317 20.6531 21.4401 20.7384L21.3369 20.593C21.6842 20.2534 22.1372 20 22.6336 20C23.1105 20 23.4437 20.3149 23.4803 20.7907C23.4934 20.9147 23.4999 21.0194 23.4999 21.1047C23.7913 20.6106 24.3043 20 24.939 20C25.837 20 26.4999 20.6812 26.4999 23C26.4999 25 25.8681 26.9368 23.9469 27L23.8929 26.7616C25.0679 26.4371 24.9921 24.1277 24.9921 23.1395Z" fill="#80650A"/>
<path d="M35.9921 23.1395C35.9921 22.637 36.0271 21 35.1777 21C34.8175 21 34.6086 21.4672 34.4999 21.6279V25.3837C34.4999 25.8191 34.1594 26 33.7564 26C33.3682 26 33 25.8089 33 25.3837V21.0233C33 20.7962 32.9177 20.6047 32.7102 20.6047C32.5989 20.6047 32.5317 20.6531 32.4401 20.7384L32.3369 20.593C32.6842 20.2534 33.1372 20 33.6336 20C34.1105 20 34.4437 20.3149 34.4803 20.7907C34.4934 20.9147 34.4999 21.0194 34.4999 21.1047C34.7913 20.6106 35.3043 20 35.939 20C36.837 20 37.4999 20.6812 37.4999 23C37.4999 25 36.8681 26.9368 34.9469 27L34.8929 26.7616C36.0679 26.4371 35.9921 24.1277 35.9921 23.1395Z" fill="#80650A"/>
<path d="M30.4844 22.9602C30.4844 22.7704 30.2707 22.6698 30.0969 22.6698C29.4034 22.6698 29 23.4499 29 24C29 24.5 29.2032 25.186 29.7372 25.186C30.1372 25.186 30.4844 24.7013 30.4844 24.3491V22.9602ZM29.5651 20.4668C29.2106 20.4668 28.9291 20.6091 28.8039 20.7799C28.7622 20.833 28.7414 20.8843 28.7414 20.9336C28.7414 20.9905 28.7674 21.0323 28.8196 21.0588C29.0491 21.1528 29.2627 21.2699 29.2627 21.5484C29.2627 21.8497 29.0122 22 28.7101 22C28.3231 22 28 21.796 28 21.315C28 20.3549 29.1452 20 29.9457 20C31.0031 20 32 20.5637 32 21.7249V24.9412C32 25.0909 32.0226 25.2884 32.2137 25.2884C32.3433 25.2884 32.4511 25.1577 32.5318 25.055L32.6621 25.1746C32.3618 25.6335 32.0381 26 31.4593 26C31.019 26 30.6454 25.7178 30.5417 25.129C30.2048 25.6234 29.5955 26 28.976 26C28.0926 26 27.5 25.2483 27.5 24.4402C27.5 23.5428 28.2438 22.9789 29.0333 22.6528C29.652 22.4005 30.5 22.1986 30.5 21.3947C30.5 20.8324 30.0859 20.4668 29.5651 20.4668Z" fill="#80650A"/>
<path d="M47.4844 22.9602C47.4844 22.7704 47.2707 22.6698 47.0969 22.6698C46.4034 22.6698 46 23.4499 46 24C46 24.5 46.2032 25.186 46.7372 25.186C47.1372 25.186 47.4844 24.7013 47.4844 24.3491V22.9602ZM46.5651 20.4668C46.2106 20.4668 45.9291 20.6091 45.8039 20.7799C45.7622 20.833 45.7414 20.8843 45.7414 20.9336C45.7414 20.9905 45.7674 21.0323 45.8196 21.0588C46.0491 21.1528 46.2627 21.2699 46.2627 21.5484C46.2627 21.8497 46.0122 22 45.7101 22C45.3231 22 45 21.796 45 21.315C45 20.3549 46.1452 20 46.9457 20C48.0031 20 49 20.5637 49 21.7249V24.9412C49 25.0909 49.0135 25.2334 49.1431 25.2334C49.2727 25.2334 49.289 25.1027 49.3697 25L49.5 25.1195C49.1997 25.5785 49.0381 26 48.4593 26C48.019 26 47.6454 25.7178 47.5417 25.129C47.2048 25.6234 46.5955 26 45.976 26C45.0926 26 44.5 25.2483 44.5 24.4402C44.5 23.5428 45.2438 22.9789 46.0333 22.6528C46.652 22.4005 47.5 22.1986 47.5 21.3947C47.5 20.8324 47.0859 20.4668 46.5651 20.4668Z" fill="#80650A"/>
<path d="M14 32.4878H13L13 36.0349C13 37.993 11.6113 39 9.79114 39C9.42117 39 8.35127 38.9447 8.35127 38.3807C8.35127 38.1338 8.49389 38 8.77769 38C9.02986 38 9.23166 38.4401 9.5087 38.5561C9.60469 38.5962 9.72468 38.6163 9.86867 38.6163C11.0184 38.6163 11.5 37.5919 11.5 36.5172V35.9362C11.1931 36.0013 11.0118 36.0349 10.6163 36.0349C8.31779 36.0349 7 34.2126 7 32C7 29 8.58828 27 11.015 27C11.861 27 13 26.9954 13 28.0902C13 28.5458 12.6722 29 12.1915 29C11.2163 29 12.2318 27.4714 11.1867 27.4714C9.42873 27.4714 8.5 29.5 8.5 32C8.5 33.4121 9.21059 35.4539 10.9707 35.4539C11.23 35.4539 11.3307 35.4117 11.5 35.3388L11.5 32.4878H10.5V32H14V32.4878Z" fill="#80650A"/>
<path d="M41.2645 20.9564C41.2975 20.907 41.3255 20.8539 41.3486 20.797C41.3749 20.74 41.3881 20.6869 41.3881 20.6376C41.3881 20.4934 41.225 20.4383 40.691 20.4383C40.5262 20.4383 40.3894 20.4611 40.2806 20.5066C39.9517 20.6443 39.7818 21.3491 39.5043 21.3491C39.2292 21.3491 39.178 20.9075 39.178 20.7116C39.178 20.044 40.4296 20 40.8739 20C41.4109 20 42.9901 19.9062 42.9901 20.8027C42.9901 20.8634 42.9769 20.9317 42.9506 21.0076C42.9275 21.0797 42.8978 21.1499 42.8616 21.2182C42.2081 22.5724 41.3683 23.8559 40.6267 25.1632C40.6079 25.1992 40.5476 25.2809 40.5476 25.3852C40.5476 25.5172 40.6815 25.5617 41.2744 25.5617C41.6784 25.5617 42.0692 25.4218 42.2831 25.0607C42.382 24.8862 42.4495 24.7268 42.5155 24.6281C42.5517 24.5787 42.5979 24.5541 42.6539 24.5541C42.7099 24.5541 42.7594 24.5787 42.8022 24.6281C42.9517 24.7869 43 25.0549 43 25.2657C43 26.0106 41.5448 26 41.0222 26C39.5526 26 39 25.7302 39 25.186C39 24.9613 39.0941 24.761 39.2621 24.4858L41.2645 20.9564Z" fill="#80650A"/>
<path d="M14 32.9943C14 32.4972 14.0684 32.0626 14.2052 31.6907C14.342 31.315 14.5238 31.0019 14.7505 30.7514C14.9809 30.5009 15.2473 30.3131 15.5497 30.1879C15.8521 30.0626 16.1688 30 16.5 30C16.8312 30 17.1479 30.0588 17.4503 30.1765C17.7527 30.2903 18.0173 30.4668 18.2441 30.7059C18.4744 30.945 18.658 31.2486 18.7948 31.6167C18.9316 31.981 19 32.4137 19 32.9146C19 33.4118 18.9316 33.852 18.7948 34.2353C18.658 34.6186 18.4744 34.9412 18.2441 35.203C18.0173 35.4649 17.7527 35.6641 17.4503 35.8008C17.1479 35.9336 16.8312 36 16.5 36C16.1688 36 15.8521 35.9374 15.5497 35.8121C15.2473 35.6831 14.9809 35.4934 14.7505 35.2429C14.5238 34.9924 14.342 34.6793 14.2052 34.3036C14.0684 33.9279 14 33.4915 14 32.9943ZM17.3207 32.9374C17.3207 32.6338 17.3099 32.3416 17.2883 32.0607C17.2703 31.7761 17.2325 31.5237 17.1749 31.3036C17.1174 31.0835 17.0346 30.9089 16.9266 30.7799C16.8186 30.6471 16.6764 30.5806 16.5 30.5806C16.3236 30.5806 16.1814 30.6509 16.0734 30.7913C15.9654 30.9279 15.8826 31.1101 15.8251 31.3378C15.7675 31.5617 15.7297 31.8178 15.7117 32.1063C15.6937 32.3947 15.6847 32.6907 15.6847 32.9943C15.6847 33.2979 15.6937 33.5958 15.7117 33.888C15.7297 34.1765 15.7675 34.4345 15.8251 34.6622C15.8826 34.8899 15.9654 35.074 16.0734 35.2144C16.1814 35.351 16.3236 35.4194 16.5 35.4194C16.6764 35.4194 16.8186 35.3472 16.9266 35.203C17.0346 35.0588 17.1174 34.8691 17.1749 34.6338C17.2325 34.3985 17.2703 34.1328 17.2883 33.8368C17.3099 33.5408 17.3207 33.241 17.3207 32.9374Z" fill="#80650A"/>
<path d="M22 35.4046C22 35.8129 21.6631 36 21.2851 36C20.9051 36 20.5 35.7804 20.5 35.3931V28.0076C20.5 27.7837 20.5348 27.5954 20.3439 27.5954C20.2464 27.5954 20.1796 27.6328 20.0905 27.7214L20 27.584C20.3142 27.2556 20.7272 27 21.1946 27C21.7857 27 22 27.4136 22 27.9447V35.4046Z" fill="#80650A"/>
<path d="M43 35.4046C43 35.8129 42.6631 36 42.2851 36C41.9051 36 41.5 35.7804 41.5 35.3931V28.0076C41.5 27.7837 41.5348 27.5954 41.3439 27.5954C41.2464 27.5954 41.1796 27.6328 41.0905 27.7214L41 27.584C41.3142 27.2556 41.7272 27 42.1946 27C42.7857 27 43 27.4136 43 27.9447V35.4046Z" fill="#80650A"/>
<path d="M35 35.4046C35 35.8129 34.6631 36 34.2851 36C33.9051 36 33.5 35.7804 33.5 35.3931V30.0076C33.5 29.7837 33.5348 29.5954 33.3439 29.5954C33.2464 29.5954 33.1796 29.6328 33.0905 29.7214L33 29.584C33.3142 29.2556 33.7272 29 34.1946 29C34.7857 29 35 29.4136 35 29.9447V35.4046Z" fill="#80650A"/>
<path d="M26.5 32.7996C26.5 32.1401 26.5003 30.5954 25.5108 30.5954C24.9501 30.5954 24.5 31.3527 24.5 32.9885C24.5 33.5967 24.6215 35.416 25.4784 35.416C26.0544 35.416 26.5 34.5439 26.5 32.7996ZM26.4352 30.2805C26.2505 29.2496 25.5644 27.584 24.2635 27.584C23.8639 27.584 23.3983 27.7379 23.1099 28L22.9695 27.7996C23.3465 27.2833 24.1335 27 24.7711 27C27.4174 27 28 30.0712 28 32.1698C28 33.8411 27.4086 36 25.4136 36C23.7593 36 23 34.43 23 32.9885C23 31.5931 23.7608 30 25.3596 30C25.7 30 26.1695 30.0692 26.4352 30.2805Z" fill="#80650A"/>
<path d="M47.5 32.7996C47.5 32.1401 47.5003 30.5954 46.5108 30.5954C45.9501 30.5954 45.5 31.3527 45.5 32.9885C45.5 33.5967 45.6215 35.416 46.4784 35.416C47.0544 35.416 47.5 34.5439 47.5 32.7996ZM47.4352 30.2805C47.2505 29.2496 46.5644 27.584 45.2635 27.584C44.8639 27.584 44.3983 27.7379 44.1099 28L43.9695 27.7996C44.3465 27.2833 45.1335 27 45.7711 27C48.4174 27 49 30.0712 49 32.1698C49 33.8411 48.4086 36 46.4136 36C44.7593 36 44 34.43 44 32.9885C44 31.5931 44.7608 30 46.3596 30C46.7 30 47.1695 30.0692 47.4352 30.2805Z" fill="#80650A"/>
<path d="M31.274 27.4101C30.6318 27.4101 30.5 28.2046 30.5 28.6999V30H32V30.5H30.5V35.2734C30.5 37.2672 29.6295 39 27.4858 39C27.0882 39 26 38.922 26 38.3283C26 38.0714 26.1373 37.7102 26.4407 37.7102C26.5951 37.7102 26.7043 38.0374 26.7684 38.1441C26.9198 38.4337 27.2459 38.5839 27.5649 38.5839C28.9341 38.5839 29 36.5306 29 35.5765V30.5H28V30H29V29.4665C29 28.0973 29.7466 27 31.1271 27C31.619 27 33 27.0759 33 27.7489C33 28.0004 32.859 28.373 32.5593 28.373C32.1666 28.373 31.8946 27.4101 31.274 27.4101Z" fill="#80650A"/>
<path d="M37.5 33.3023C37.5 34.2384 38.6413 35.23 39.6089 35.23C40.1089 35.23 40.4954 34.9652 40.8575 34.6483L41 34.7852C40.4281 35.5562 39.5593 36 38.6055 36C37.0014 36 36 34.6528 36 33.1312C36 31.512 37.3256 30 38.9818 30C39.6696 30 40.5 30.2683 40.5 31.1179C40.5 31.4722 40.4329 31.7586 40.0878 31.9734L37.5 33.3023ZM39.2434 32.0589C39.4592 31.9261 39.5 31.7464 39.5 31.5C39.5 31.1449 39.322 30.5817 38.6397 30.5817C37.8302 30.5817 37.4621 31.8961 37.4487 32.4468C37.4449 32.5989 37.443 32.7281 37.443 32.8346L39.2434 32.0589Z" fill="#80650A"/>
<circle cx="34.2415" cy="27.7586" r="0.758575" fill="#80650A"/>
</svg>
