<?xml version="1.0" encoding="UTF-8"?>
<!-- generated by Finnhub -->
<svg viewBox="0 0 55.5 55.5" xmlns="http://www.w3.org/2000/svg">
<rect width="56" height="56" fill="rgb(239, 242, 248)"/>
<path d="M 14.971400000000001,11.985 C 13.3348,12 12,13.3348 12,14.9814 V 41.0186 C 12,42.6652 13.3348,44 14.9814,44 H 41.0186 C 42.6652,44 44,42.6652 44,41.0186 V 14.9814 C 44,13.3348 42.6652,12 41.0186,12 H 14.9814 Z M 16,41 V 23 H 22.1538 L 28,36.5 L 33.8462,23 H 40 V 41 H 35 V 28 L 29.7436,41 H 26.2564 L 21,28 V 41 H 16 Z M 20,15.1187 L 19.8282,16 C 18.2111,15.6137 17,16.248 17,18 C 17,19.6635 18.2218,20.3208 19.8577,20 L 20,20.9289 C 17.9084,21.339 16,20.1272 16,18 C 16,15.7659 17.9175,14.6213 20,15.1187 Z M 24.6246,15.3764 C 24.4074,15.252 23.8699,15 23.1905,15 C 22.2049,15 21,15.6889 21,16.7273 C 21,17.7226 21.9725,18.1444 22.8101,18.5078 C 23.4437,18.7826 24,19.0239 24,19.4545 C 24,20.1008 23.1281,20.3119 22.6678,20.3119 C 22.3983,20.3119 21.8966,20.2381 21.7136,20 H 21 C 21,20.6628 21.9415,21 22.6678,21 C 23.6883,21 25,20.5767 25,19.4545 C 25,18.4554 24.0916,18.0973 23.2745,17.7752 C 22.6068,17.5119 22,17.2727 22,16.7273 C 22,16.1025 22.6345,15.7273 23.1905,15.7273 C 23.7301,15.7273 24.1323,15.9426 24.2326,16 L 24.6246,15.3764 Z M 26,15 H 30 V 15.75 H 27 V 17.625 H 29 V 18.375 H 27 V 20.25 H 30 V 21 H 26 V 15 Z M 35,21 H 34 V 15 H 35 L 37,18.5 L 39,15 H 40 V 21 H 39 V 16.7932 L 37.2358,20 H 36.7642 L 35,16.7932 V 21 Z M 31,17 H 32 V 18 H 31 V 17 Z M 32,20 H 31 V 21 H 32 V 20 Z" clip-rule="evenodd" fill="rgb(1, 79, 121)" fill-rule="evenodd"/>
</svg>
