<!-- by Finnhub --><svg width="56" height="56" viewBox="0 0 56 56" xmlns="http://www.w3.org/2000/svg"><path fill="#F0F3FA" d="M0 0h56v56H0z"/><path fill-rule="evenodd" d="M29 14.18a2.87 2.87 0 0 0-2 0l-16.7 6.24c-.78.29-1.3 1.02-1.3 1.84v11.48c0 .82.52 1.55 1.3 1.84L27 41.82c.64.24 1.36.24 2 0l16.7-6.24c.78-.3 1.3-1.02 1.3-1.84V22.26c0-.82-.52-1.55-1.3-1.84L29 14.18Zm-.05.99a2.77 2.77 0 0 0-1.9 0l-15.82 5.79c-.74.27-1.23.95-1.23 1.71v10.66c0 .76.49 1.44 1.23 1.71l15.82 5.8c.61.22 1.29.22 1.9 0l15.82-5.8A1.84 1.84 0 0 0 46 33.33V22.67c0-.76-.49-1.44-1.23-1.71l-15.82-5.8Z" fill="#063D5D"/><path fill-rule="evenodd" d="m21 23 2 5h-.8l-.4-1h-1.6l-.4 1H19l2-5Zm-.4 3 .4-1 .4 1h-.8Z" fill="#063D5D"/><path d="M31 23h-1v5h3v-1h-2v-4ZM42.62 23.77l-.67.7c-.2-.29-.48-.47-.9-.47-.42 0-.55.17-.55.47 0 .2.25.48 1.09.71.83.23 1.41.46 1.41 1.47 0 .75-.62 1.35-1.95 1.35a2.68 2.68 0 0 1-2.05-.97c.2-.1.68-.5.84-.56.1.21.6.53 1.21.53.62 0 .96-.18.96-.47 0-.36-.53-.37-1.18-.63-1.17-.47-1.33-.9-1.33-1.43 0-.45.26-1.47 1.47-1.47.97 0 1.5.51 1.65.77ZM35 23v5h3v-1h-2v-1h2v-1h-2v-1h2v-1h-3ZM25 23h2a2 2 0 1 1 0 4h-1v1h-1v-5Zm2 1h-1v2h1a1 1 0 1 0 0-2ZM16 23h1v5l-1-1-2-2v3h-1v-5l1 1 2 2v-3ZM27.64 16.3c.16-.07.32-.15.4-.3.1.15.25.23.41.3.21.11.42.22.42.5 0 .31-.3.46-.52.53-.16.05-.25.42-.3.67H28.12a.85.85 0 0 1 .48-.45c0 .27-.1.45-.22.57l.1.1c.18-.16.42-.42.38-.58-.05-.24-.08-.6.18-.75.22-.14.41 0 .6.14.15.1.3.21.46.22-.08.15-.06.34-.05.52.02.26.04.5-.18.63-.27.16-.54-.04-.7-.2-.12-.12-.45-.03-.68.05l.03.06c.26-.02.48.11.58.21a.68.68 0 0 1-.54.1l-.05.13c.23.09.55.17.65.06.17-.17.44-.37.7-.21.23.13.21.37.2.63-.02.18-.04.37.04.52-.16 0-.31.11-.45.22-.2.14-.39.28-.61.14-.26-.16-.23-.51-.18-.75.04-.15-.19-.4-.37-.56a.53.53 0 0 1-.03.05c.13.22.13.48.1.62a.75.75 0 0 1-.35-.44.47.47 0 0 1-.13.02c.04.25.13.58.28.62.22.07.52.22.52.54 0 .27-.2.38-.42.48-.16.08-.32.16-.4.31-.1-.15-.25-.23-.4-.3-.22-.11-.43-.22-.43-.5 0-.31.3-.46.52-.53.15-.04.24-.38.28-.62l-.06-.01a.85.85 0 0 1-.46.41c0-.27.1-.44.2-.56a.53.53 0 0 1-.07-.11c-.19.16-.43.42-.4.58.07.24.1.6-.17.75-.22.14-.41 0-.6-.14-.15-.1-.3-.21-.46-.22.08-.15.06-.34.05-.52-.02-.26-.04-.5.18-.63.27-.16.54.04.7.2.12.12.46.03.68-.06a.55.55 0 0 1-.02-.05.8.8 0 0 1-.6-.21.67.67 0 0 1 .6-.09.53.53 0 0 1 .04-.13c-.22-.09-.58-.19-.7-.07-.16.17-.43.37-.7.21-.22-.13-.2-.37-.18-.63.01-.18.03-.37-.05-.52.17 0 .31-.11.45-.22.2-.14.39-.28.61-.14.26.16.24.51.18.75-.04.16.22.44.4.6l.03-.04a.92.92 0 0 1-.13-.67c.23.14.33.33.36.5a.47.47 0 0 1 .13-.03c-.04-.25-.13-.62-.29-.67-.22-.07-.52-.22-.52-.54 0-.27.2-.38.42-.48Z" fill="#063D5D"/><path d="M16 32h24v.5H16V32Z" fill="#063D5D" fill-opacity=".4"/><path fill="#063D5D" fill-opacity=".5" d="M17 34h12v1H17zM31 34h8v1h-8zM22 36h5v1h-5zM28 36h6v1h-6z"/><path d="M11 30.96v-.77h.29a.48.48 0 0 0 .02.09c.08.27.3.43.65.48l.16.01a.7.7 0 0 0 .2-.02c.04-.02.1-.04.13-.07a.29.29 0 0 0 .09-.09.2.2 0 0 0 0-.22.27.27 0 0 0-.1-.09 6.7 6.7 0 0 0-.8-.18h-.06a.96.96 0 0 1-.28-.11.58.58 0 0 1-.22-.19.42.42 0 0 1-.06-.37.48.48 0 0 1 .15-.21.81.81 0 0 1 .27-.16c.12-.04.24-.06.39-.06l.3.03a1 1 0 0 1 .42.17l.02.02.07-.18h.27v.74h-.28a.44.44 0 0 0-.03-.11.64.64 0 0 0-.32-.35.74.74 0 0 0-.25-.07h-.14a.7.7 0 0 0-.22.02.43.43 0 0 0-.15.08.2.2 0 0 0-.08.15c0 .03 0 .06.02.1l.09.07.1.05.25.05a15.93 15.93 0 0 0 .57.11c.18.06.31.13.4.21.09.1.13.2.13.32a.5.5 0 0 1-.13.34.73.73 0 0 1-.3.18 1.27 1.27 0 0 1-.53.07c-.1 0-.18-.02-.27-.05a1.24 1.24 0 0 1-.44-.18l-.06.19H11ZM14 30c0-.2.04-.37.13-.52a.9.9 0 0 1 .35-.35c.15-.09.32-.13.52-.13s.38.04.53.13c.15.08.26.2.35.35.08.15.12.33.12.52 0 .2-.05.37-.13.52a.9.9 0 0 1-.35.35c-.15.09-.32.13-.52.13s-.38-.04-.53-.13a.9.9 0 0 1-.35-.35A1.06 1.06 0 0 1 14 30Zm.43 0a.82.82 0 0 0 .14.53c.06.09.12.15.2.19a.5.5 0 0 0 .47 0c.07-.04.13-.1.19-.19a.82.82 0 0 0 .1-.23 1.04 1.04 0 0 0-.04-.73.6.6 0 0 0-.2-.25.5.5 0 0 0-.57 0 .6.6 0 0 0-.21.26c-.05.11-.08.25-.08.41ZM17 31v-.25h.11l.04-.01.03-.04.03-.09.62-1.61h.36l.6 1.61a.4.4 0 0 0 .05.1.1.1 0 0 0 .05.03h.02v.01H19V31h-.8v-.25h.23v-.04l-.04-.08-.1-.28h-.7l-.1.28-.01.03a1.97 1.97 0 0 0-.02.09H17.7V31H17Zm.7-.9h.5l-.25-.69-.26.7ZM20 31v-.25h.23l.09-.01.03-.04a.4.4 0 0 0 0-.08v-1.33c0-.02-.01-.03-.02-.03H20V29h1.27a1.15 1.15 0 0 1 .52.13c.1.07.16.16.19.28l.02.15c0 .1-.03.2-.09.28a.58.58 0 0 1-.25.2c-.1.05-.24.07-.4.07h-.49v.5c0 .06 0 .1.02.11 0 .02.02.02.05.03h.33V31H20Zm.77-1.13h.36c.11 0 .2 0 .24-.03.06-.01.1-.04.13-.08a.33.33 0 0 0 .08-.2.3.3 0 0 0-.2-.29.71.71 0 0 0-.23-.03h-.38v.63ZM25.7 29.22l.05-.15H26v.75h-.28a.49.49 0 0 0-.01-.1c-.05-.27-.21-.43-.49-.47h-.11a.6.6 0 0 0-.32.08.6.6 0 0 0-.22.25.86.86 0 0 0-.09.4l.02.19c.03.16.09.3.17.4.09.09.2.15.32.18l.16.01c.14 0 .26-.04.36-.11a.54.54 0 0 0 .2-.43H26a.79.79 0 0 1 0 .14.7.7 0 0 1-.15.33.77.77 0 0 1-.3.23c-.14.05-.29.08-.45.08h-.18c-.21-.03-.4-.1-.55-.22a.92.92 0 0 1-.26-.33c-.07-.13-.1-.27-.1-.44 0-.24.06-.43.18-.6a.99.99 0 0 1 .5-.35c.13-.04.25-.06.37-.06.13 0 .26.02.38.06.11.04.2.1.27.16ZM27 30c0-.2.04-.37.13-.52a.9.9 0 0 1 .35-.35c.15-.09.32-.13.52-.13s.38.04.53.13c.15.08.26.2.35.35.08.15.12.33.12.52 0 .2-.05.37-.13.52a.9.9 0 0 1-.35.35c-.15.09-.32.13-.52.13s-.38-.04-.53-.13a.9.9 0 0 1-.35-.35A1.06 1.06 0 0 1 27 30Zm.43 0a.82.82 0 0 0 .14.53c.06.09.12.15.2.19a.5.5 0 0 0 .47 0c.07-.04.13-.1.19-.19a.82.82 0 0 0 .1-.23 1.04 1.04 0 0 0-.04-.73.6.6 0 0 0-.2-.25.5.5 0 0 0-.57 0 .6.6 0 0 0-.21.26c-.05.11-.08.25-.08.41ZM30 29.24V29h.95l.58 1.41.55-1.41H33v.25h-.33l-.02.04V30.74l.04.01H33V31h-1.08v-.25h.26v-.01l.01-.04V29.53L31.64 31h-.33l-.6-1.46v1.18l.01.03H31V31h-1v-.24h.32a.1.1 0 0 0 .03 0l.01-.02a.4.4 0 0 0 .01-.08v-1.31c0-.04 0-.07-.03-.08a.34.34 0 0 0-.16-.02H30ZM34 31v-.25h.23l.09-.01.03-.04a.4.4 0 0 0 0-.08v-1.33c0-.02-.01-.03-.02-.03H34V29h1.26a1.15 1.15 0 0 1 .52.13c.1.07.16.16.19.28l.02.15c0 .1-.03.2-.09.28a.58.58 0 0 1-.25.2c-.1.05-.24.07-.4.07h-.49v.5c0 .06 0 .1.02.11 0 .02.02.02.05.03h.33V31H34Zm.77-1.13h.36c.11 0 .2 0 .24-.03.06-.01.1-.04.13-.08a.33.33 0 0 0 .08-.2.3.3 0 0 0-.2-.29.71.71 0 0 0-.23-.03h-.38v.63ZM37 31v-.25h.11l.04-.01.03-.04.03-.09.62-1.61h.36l.6 1.61a.4.4 0 0 0 .05.1.1.1 0 0 0 .05.03h.02v.01H39V31h-.8v-.25h.23v-.04l-.04-.08-.1-.28h-.7l-.1.28-.01.03a1.97 1.97 0 0 0-.02.09H37.7V31H37Zm.7-.9h.5l-.25-.69-.26.7ZM40 31v-.25h.28v-.03a.6.6 0 0 0 .01-.06V29.3l-.01-.03H40V29h.65l.87 1.4V29.28l-.01-.02h-.22V29H42v.25H41.76v.03a1.8 1.8 0 0 0-.01.1V31h-.3l-.92-1.48V30.71l.01.03.04.01h.2V31H40ZM43 29.25V29h.99v.25h-.23a.36.36 0 0 0-.03 0v.03l.05.09.3.49.31-.5a2.4 2.4 0 0 0 .06-.1h-.01l-.03-.01h-.22V29H45v.25h-.13c-.02 0-.05 0-.06.02a.36.36 0 0 0-.09.1l-.01.02-.5.77v.47a.6.6 0 0 0 0 .08c0 .02 0 .03.02.03a.34.34 0 0 0 .08 0l.01.01h.23V31h-1.12v-.25h.25a.3.3 0 0 0 .08-.01l.02-.03V30.15l-.49-.76a.45.45 0 0 0-.08-.1.16.16 0 0 0-.1-.04H43Z" fill="#063D5D"/></svg>