<?xml version="1.0" encoding="UTF-8"?>
<!-- generated by Finnhub -->
<svg viewBox="0 0 55.5 55.5" xmlns="http://www.w3.org/2000/svg">
<path d="M 0,0 H 55.5 V 55.5 H 0 Z" fill="rgb(239, 242, 248)"/>
<path d="M 16.49,39.485 A 3,3 0 1,0 13.5,36.5 V 39.5 H 16.5 Z M 16.5,41 A 4.5,4.5 0 1,0 12,36.5 V 41 H 16.5 Z" fill="url(#l)" fill-rule="evenodd"/>
<path d="M 17.79,39.185 C 17.4,39.4 16.97,39.5 16.5,39.5 H 13.5 V 36.5 C 13.5,35.85 13.7,35.26 14.05,34.77 L 12,36.6 V 41 H 15.82 L 17.8,39.2 Z M 19.07,38.05 L 19.12,38 H 19.1 L 19.07,38.05 Z" fill="url(#k)"/>
<path d="M 26.49,39.485 A 3,3 0 1,0 23.5,36.5 V 39.5 H 26.5 Z M 26.5,41 A 4.5,4.5 0 1,0 22,36.5 V 41 H 26.5 Z" fill="url(#j)" fill-rule="evenodd"/>
<path d="M 27.79,39.185 C 27.4,39.4 26.97,39.5 26.5,39.5 H 23.5 V 36.5 C 23.5,35.85 23.7,35.26 24.05,34.77 L 22,36.6 V 41 H 25.82 L 27.8,39.2 Z M 29.07,38.05 L 29.12,38 H 29.1 L 29.07,38.05 Z" fill="url(#i)"/>
<path d="M 26.49,29.485 A 3,3 0 1,0 23.5,26.5 V 29.5 H 26.5 Z M 26.5,31 A 4.5,4.5 0 1,0 22,26.5 V 31 H 26.5 Z" fill="url(#h)" fill-rule="evenodd"/>
<path d="M 27.79,29.185 C 27.4,29.4 26.97,29.5 26.5,29.5 H 23.5 V 26.5 C 23.5,25.85 23.7,25.26 24.05,24.77 L 22,26.6 V 31 H 25.83 L 27.8,29.2 Z M 29.07,28.05 L 29.13,28 H 29.1 L 29.07,28.05 Z" fill="url(#g)"/>
<path d="M 36.49,39.485 A 3,3 0 1,0 33.5,36.5 V 39.5 H 36.5 Z M 36.5,41 A 4.5,4.5 0 1,0 32,36.5 V 41 H 36.5 Z" fill="url(#f)" fill-rule="evenodd"/>
<path d="M 37.79,39.185 C 37.4,39.4 36.97,39.5 36.5,39.5 H 33.5 V 36.5 C 33.5,35.85 33.7,35.26 34.05,34.77 L 32,36.6 V 41 H 35.83 L 37.8,39.2 Z M 39.07,38.05 L 39.12,38 H 39.1 L 39.07,38.05 Z" fill="url(#e)"/>
<path d="M 36.49,29.485 A 3,3 0 1,0 33.5,26.5 V 29.5 H 36.5 Z M 36.5,31 A 4.5,4.5 0 1,0 32,26.5 V 31 H 36.5 Z" fill="url(#d)" fill-rule="evenodd"/>
<path d="M 37.79,29.185 C 37.4,29.4 36.97,29.5 36.5,29.5 H 33.5 V 26.5 C 33.5,25.85 33.7,25.26 34.05,24.77 L 32,26.6 V 31 H 35.83 L 37.8,29.2 Z M 39.07,28.05 L 39.12,28 H 39.1 L 39.07,28.05 Z" fill="url(#c)"/>
<path d="M 37.49,19.485 A 3,3 0 1,0 34.5,16.5 V 19.5 H 37.5 Z M 37.5,21 A 4.5,4.5 0 1,0 33,16.5 V 21 H 37.5 Z" fill="url(#b)" fill-rule="evenodd"/>
<path d="M 38.79,19.185 C 38.4,19.4 37.97,19.5 37.5,19.5 H 34.5 V 16.5 C 34.5,15.85 34.7,15.26 35.05,14.77 L 33,16.6 V 21 H 36.83 L 38.8,19.2 Z M 40.07,18.05 L 40.12,18 H 40.1 L 40.07,18.05 Z" fill="url(#a)"/>
<defs>
<linearGradient id="l" x1="19.88" x2="12" y1="33.5" y2="40.63" gradientUnits="userSpaceOnUse">
<stop stop-color="rgb(111, 186, 66)" offset="0"/>
<stop stop-color="rgb(57, 174, 72)" offset="1"/>
</linearGradient>
<linearGradient id="k" x1="13.88" x2="12" y1="39.13" y2="41" gradientUnits="userSpaceOnUse">
<stop stop-color="rgb(80, 130, 67)" offset="0"/>
<stop stop-color="rgb(62, 98, 67)" offset="1"/>
</linearGradient>
<linearGradient id="j" x1="29.88" x2="22" y1="33.5" y2="40.63" gradientUnits="userSpaceOnUse">
<stop stop-color="rgb(111, 186, 66)" offset="0"/>
<stop stop-color="rgb(57, 174, 72)" offset="1"/>
</linearGradient>
<linearGradient id="i" x1="23.88" x2="22" y1="39.13" y2="41" gradientUnits="userSpaceOnUse">
<stop stop-color="rgb(80, 130, 67)" offset="0"/>
<stop stop-color="rgb(62, 98, 67)" offset="1"/>
</linearGradient>
<linearGradient id="h" x1="29.88" x2="22" y1="23.5" y2="30.63" gradientUnits="userSpaceOnUse">
<stop stop-color="rgb(111, 186, 66)" offset="0"/>
<stop stop-color="rgb(57, 174, 72)" offset="1"/>
</linearGradient>
<linearGradient id="g" x1="23.88" x2="22" y1="29.13" y2="31" gradientUnits="userSpaceOnUse">
<stop stop-color="rgb(80, 130, 67)" offset="0"/>
<stop stop-color="rgb(62, 98, 67)" offset="1"/>
</linearGradient>
<linearGradient id="f" x1="39.88" x2="32" y1="33.5" y2="40.63" gradientUnits="userSpaceOnUse">
<stop stop-color="rgb(111, 186, 66)" offset="0"/>
<stop stop-color="rgb(57, 174, 72)" offset="1"/>
</linearGradient>
<linearGradient id="e" x1="33.88" x2="32" y1="39.13" y2="41" gradientUnits="userSpaceOnUse">
<stop stop-color="rgb(80, 130, 67)" offset="0"/>
<stop stop-color="rgb(62, 98, 67)" offset="1"/>
</linearGradient>
<linearGradient id="d" x1="39.88" x2="32" y1="23.5" y2="30.63" gradientUnits="userSpaceOnUse">
<stop stop-color="rgb(111, 186, 66)" offset="0"/>
<stop stop-color="rgb(57, 174, 72)" offset="1"/>
</linearGradient>
<linearGradient id="c" x1="33.88" x2="32" y1="29.13" y2="31" gradientUnits="userSpaceOnUse">
<stop stop-color="rgb(80, 130, 67)" offset="0"/>
<stop stop-color="rgb(62, 98, 67)" offset="1"/>
</linearGradient>
<linearGradient id="b" x1="40.88" x2="33" y1="13.5" y2="20.63" gradientUnits="userSpaceOnUse">
<stop stop-color="rgb(111, 186, 66)" offset="0"/>
<stop stop-color="rgb(57, 174, 72)" offset="1"/>
</linearGradient>
<linearGradient id="a" x1="34.88" x2="33" y1="19.12" y2="21" gradientUnits="userSpaceOnUse">
<stop stop-color="rgb(80, 130, 67)" offset="0"/>
<stop stop-color="rgb(62, 98, 67)" offset="1"/>
</linearGradient>
</defs>
</svg>
