<?xml version="1.0" encoding="UTF-8"?>
<!-- generated by Finnhub -->
<svg viewBox="0 0 55.5 55.5" xmlns="http://www.w3.org/2000/svg">
<path d="M 0,0 H 55.5 V 55.5 H 0 Z" fill="rgb(35, 54, 68)"/>
<path d="M 48.04,30.985 L 48,30.66 C 48.36,30.59 48.5,30.53 48.5,30.13 V 25.87 C 48.5,25.47 48.36,25.41 48,25.34 L 48.05,25 H 49.99 L 50.02,25.34 C 49.81,25.38 49.5,25.37 49.5,25.67 V 30.56 L 50.08,30.55 C 50.67,30.54 51.01,30.52 51.11,30.49 C 51.2,30.46 51.34,30.02 51.56,29.16 L 51.99,29.2 L 52,29.8 C 52,30.1 51.97,30.5 51.91,31 H 48.05 Z M 43.55,31 L 43.5,30.66 C 43.86,30.59 44,30.53 44,30.13 V 25.87 C 44,25.47 43.86,25.41 43.5,25.34 L 43.55,25 H 45.49 L 45.52,25.34 C 45.31,25.38 45,25.37 45,25.67 V 30.56 L 45.58,30.55 C 46.17,30.54 46.51,30.52 46.61,30.49 C 46.7,30.46 46.84,30.02 47.06,29.16 L 47.49,29.2 L 47.5,29.8 C 47.5,30.1 47.47,30.5 47.41,31 H 43.55 Z M 40.5,31 V 30.66 C 40.86,30.59 41,30.53 41,30.13 V 25.87 C 41,25.47 40.86,25.41 40.5,25.34 V 25 H 42.5 V 25.34 C 42.29,25.38 42,25.37 42,25.67 V 30.33 C 42,30.63 42.29,30.62 42.5,30.66 V 31 H 40.5 Z M 34,31 V 30.66 C 34.37,30.6 34.5,30.56 34.5,30.13 V 25.87 C 34.5,25.45 34.37,25.4 34,25.34 V 25 H 36.23 V 25.34 C 36.02,25.38 35.5,25.36 35.5,25.67 V 27.65 H 38.5 V 25.87 C 38.5,25.45 38.14,25.4 37.77,25.34 V 25 H 40 V 25.34 C 39.78,25.38 39.5,25.36 39.5,25.67 V 30.33 C 39.5,30.64 39.78,30.63 40,30.66 V 31 H 37.77 V 30.66 C 38.14,30.6 38.5,30.56 38.5,30.13 V 28.17 H 35.5 V 30.33 C 35.5,30.64 36.02,30.63 36.23,30.66 V 31 H 34 Z M 9.5,31 V 30.66 C 9.87,30.6 10,30.56 10,30.13 V 25.87 C 10,25.45 9.87,25.4 9.5,25.34 V 25 H 11.73 V 25.34 C 11.52,25.38 11,25.36 11,25.67 V 27.65 H 14 V 25.87 C 14,25.45 13.64,25.4 13.27,25.34 V 25 H 15.5 V 25.34 C 15.28,25.38 15,25.36 15,25.67 V 30.33 C 15,30.64 15.28,30.63 15.5,30.66 V 31 H 13.27 V 30.66 C 13.64,30.6 14,30.56 14,30.13 V 28.17 H 11 V 30.33 C 11,30.64 11.52,30.63 11.73,30.66 V 31 H 9.5 Z M 28,28.13 C 28,27.49 28.14,26.92 28.42,26.42 C 28.75,25.82 29.24,25.42 29.89,25.19 C 30.25,25.06 30.63,25 31.02,25 A 7.37,7.37 0 0,1 32.87,25.24 C 32.9,25.44 32.92,25.66 32.92,25.89 C 32.92,26.12 32.92,26.37 32.9,26.65 L 32.4,26.72 C 32.26,26.07 32.15,25.71 32.05,25.64 A 3.28,3.28 0 0,0 30.97,25.44 C 30.31,25.44 29.82,25.68 29.49,26.14 C 29.16,26.59 28.99,27.19 28.99,27.93 C 28.99,28.81 29.2,29.46 29.62,29.89 C 30.04,30.31 30.57,30.53 31.19,30.53 A 2.53,2.53 0 0,0 32.22,30.31 C 32.28,30.26 32.38,29.91 32.51,29.24 L 33,29.25 C 33,29.68 32.97,30.14 32.9,30.62 A 5.4,5.4 0 0,1 30.93,31 C 29.96,31 29.23,30.73 28.74,30.19 A 2.94,2.94 0 0,1 28,28.13 Z M 23,31 V 30.66 C 23.37,30.6 23.5,30.55 23.5,30.13 V 25.87 C 23.5,25.45 23.37,25.4 23,25.34 V 25 H 25.43 C 26.65,25 27.32,25.55 27.32,26.41 C 27.32,27.27 26.75,27.95 25.9,28.24 V 28.28 C 25.96,28.3 26.02,28.36 26.1,28.48 L 27.3,30.31 C 27.38,30.43 27.47,30.52 27.55,30.57 C 27.63,30.61 27.78,30.64 28,30.67 V 31 H 26.73 L 25.03,28.37 H 24.5 V 30.33 C 24.5,30.63 24.92,30.62 25.12,30.66 L 25.09,31 H 23 Z M 24.5,27.93 H 24.95 C 25.86,27.93 26.32,27.44 26.32,26.53 C 26.32,25.82 25.94,25.46 25.17,25.46 H 24.67 C 24.56,25.46 24.5,25.53 24.5,25.66 V 27.93 Z M 21.2,26.03 C 21.2,25.77 21.14,25.61 21.04,25.53 C 20.95,25.43 20.72,25.37 20.35,25.33 V 25 H 22.5 V 25.33 L 21.96,25.43 C 21.86,25.46 21.8,25.5 21.79,25.56 V 28.73 C 21.79,30.15 20.83,31 19.43,31 C 17.93,31 17,30.27 17,28.8 V 25.86 C 17,25.44 16.87,25.39 16.5,25.33 V 25 H 18.74 V 25.33 C 18.52,25.37 18,25.35 18,25.66 V 28.66 C 18,29.83 18.48,30.43 19.58,30.43 C 20.54,30.43 21.19,29.76 21.19,28.79 V 26.03 Z M 4,28.13 C 4,27.49 4.14,26.92 4.42,26.42 C 4.75,25.82 5.24,25.42 5.89,25.19 C 6.25,25.06 6.63,25 7.02,25 A 7.37,7.37 0 0,1 8.87,25.24 C 8.9,25.44 8.92,25.66 8.92,25.89 C 8.92,26.12 8.92,26.37 8.9,26.65 L 8.4,26.72 C 8.26,26.07 8.15,25.71 8.05,25.64 A 3.28,3.28 0 0,0 6.97,25.44 C 6.31,25.44 5.82,25.68 5.49,26.14 C 5.16,26.59 4.99,27.19 4.99,27.93 C 4.99,28.81 5.2,29.46 5.62,29.89 C 6.04,30.31 6.57,30.53 7.19,30.53 A 2.53,2.53 0 0,0 8.22,30.31 C 8.28,30.26 8.38,29.91 8.51,29.24 L 9,29.25 C 9,29.68 8.97,30.14 8.9,30.62 A 5.4,5.4 0 0,1 6.93,31 C 5.96,31 5.23,30.73 4.74,30.19 A 2.94,2.94 0 0,1 4,28.13 Z" fill="rgb(252, 253, 252)"/>
</svg>
