<?xml version="1.0" encoding="UTF-8"?>
<!-- generated by Finnhub -->
<svg viewBox="0 0 55.5 55.5" xmlns="http://www.w3.org/2000/svg">
<path d="M 0,0 H 55.5 V 55.5 H 0 Z" fill="rgb(239, 242, 248)"/>
<path d="M 40.99,24.985 H 35 C 35,24.54 34.5,22.04 31.5,22 C 28.5,21.96 28,25.88 28,28 C 28,30.3 28.5,34 31.5,34 C 34.16,34 34.84,31.37 35,30 H 41 C 41,33.06 39.1,39 31.5,39 S 22,32.12 22,28 C 22,23.73 23.9,17 31.5,17 S 41,22.25 41,25 Z"/>
<path d="M 46.99,17.985 H 43 V 38 H 47 V 18 Z M 42,17 V 39 H 48 V 17 H 42 Z" fill-rule="evenodd"/>
<path d="M 7.99,25.235 V 39 H 10 V 27.08 L 8,25.25 Z M 14,30.75 V 39 H 12 V 28.92 L 14,30.75 Z M 18,39 H 16 V 32.12 L 18,33.96 V 39 Z M 26,17 H 24 V 21 H 26 V 17 Z M 28,19 V 17 H 30 V 19 H 28 Z M 23,17 H 21 V 23.88 L 13.96,17 H 11.5 L 23,28 V 17 Z M 8,18.5 V 17 H 9.5 L 24,31.67 V 33.96 L 8,18.5 Z M 8,22.96 V 20.66 L 26.33,39 H 24.04 L 8,22.96 Z"/>
</svg>
