<?xml version="1.0" encoding="UTF-8"?>
<!-- generated by Finnhub -->
<svg viewBox="0 0 55.5 55.5" xmlns="http://www.w3.org/2000/svg">
<path d="M 0,0 H 55.5 V 55.5 H 0 Z" fill="rgb(239, 242, 248)"/>
<path d="M 38.78,33.985 H 25.84 A 0.7,0.7 0 0,0 25.24,34.33 L 23.4,37 H 17.37 C 13.57,37 10.48,33.56 10.48,29.85 A 6.91,6.91 0 0,1 17.38,23 H 30.14 C 30.38,23 30.61,23 30.74,22.8 L 32.6,20 H 38.78 C 42.52,20 45.99,23.1 45.99,27 S 42.52,34 38.78,34 Z M 21.93,39.66 L 23.78,37 H 38.91 C 44.48,37 49,32.3 49,26.5 S 44.48,17 38.91,17 H 34.91 A 0.7,0.7 0 0,0 34.3,17.36 L 32.48,20 H 17.25 A 10.13,10.13 0 0,0 7,30 C 7,35.52 11.59,40 17.25,40 H 21.32 C 21.57,40 21.81,39.87 21.93,39.66 Z M 24.38,28 H 24.4 V 26.79 C 24.4,26.07 24.9,25.49 25.52,25.49 C 26.14,25.49 26.64,26.07 26.64,26.79 V 28 H 27 V 26.74 C 27,25.78 26.33,25 25.5,25 C 25.05,25 24.65,25.23 24.38,25.58 V 25 H 24 V 28 H 24.38 Z M 29.5,28 A 1.5,1.5 0 1,0 29.5,25 A 1.5,1.5 0 0,0 29.5,28 Z M 29.5,27.58 A 1.08,1.08 0 1,0 29.5,25.42 A 1.08,1.08 0 0,0 29.5,27.58 Z M 27,30.5 A 1.5,1.5 0 1,1 24,30.5 A 1.5,1.5 0 0,1 27,30.5 Z M 26.58,30.5 A 1.08,1.08 0 1,1 24.42,30.5 A 1.08,1.08 0 0,1 26.58,30.5 Z M 30.99,30.92 A 1.52,1.52 0 0,1 29.53,32 C 28.68,32 28,31.33 28,30.5 S 28.68,29 29.53,29 C 30.23,29 30.83,29.47 31,30.1 H 30.55 A 1.1,1.1 0 0,0 29.53,29.42 C 28.92,29.42 28.43,29.9 28.43,30.5 C 28.43,31.1 28.92,31.58 29.53,31.58 C 29.98,31.58 30.38,31.31 30.54,30.92 H 31 Z M 31,24.49 H 31.27 C 31.27,24.41 31.29,24.25 31.49,24.25 C 31.75,24.25 31.67,24.58 31.33,24.77 C 31.07,24.93 31,25.13 31,25.22 H 32 V 25 H 31.38 C 31.57,24.92 31.93,24.68 31.93,24.36 C 31.93,23.99 31.6,24 31.49,24 H 31.46 C 31.38,24 31,24.04 31,24.49 Z" fill="rgb(7, 6, 3)" fill-rule="evenodd"/>
</svg>
