<?xml version="1.0" encoding="UTF-8"?>
<!-- generated by Finnhub -->
<svg viewBox="0 0 55.5 55.5" xmlns="http://www.w3.org/2000/svg">
<path d="M0 0h55.5v55.5H0z" fill="rgb(239, 242, 248)"/>
<path d="M24 17.76c0-3.44 2.67-6.6 4-7.76v12.16c-3.2 0-4-2.94-4-4.4Zm8 0c0-3.44-2.67-6.6-4-7.76v12.16c3.2 0 4-2.94 4-4.4Zm-8 20.48c0 3.44 2.67 6.6 4 7.76V33.84c-3.2 0-4 2.94-4 4.4Zm8 0c0 3.44-2.67 6.6-4 7.76V33.84c3.2 0 4 2.94 4 4.4Z" fill="url(#d)"/>
<path d="M38.24 24c3.44 0 6.6 2.67 7.76 4-1.18 1.33-4.4 4-7.91 4-1.5 0-4.5-.8-4.5-4h.25c0-3.2 2.94-4 4.4-4Z" fill="url(#c)"/>
<path d="M17.76 24c-3.44 0-6.6 2.67-7.76 4 1.15 1.33 4.32 4 7.76 4 1.46 0 4.4-.8 4.4-4s-2.94-4-4.4-4Z" fill="url(#b)"/>
<path d="M28.69 24.2c1.75-7.22 8.94-9.14 12.31-9.2-.21 2.97-2.2 9.74-8.42 13 6.22 3.26 8.2 10.03 8.42 13-3.37-.06-10.56-1.98-12.31-9.2-.92-3.76 1.84-3.96 3.2-3.87-1.7-.23-5.74-1.1-3.2-3.73Zm-1.38 0C25.56 16.98 18.37 15.06 15 15c.21 2.97 2.2 9.74 8.42 13-6.22 3.26-8.2 10.03-8.42 13 3.37-.06 10.56-1.98 12.31-9.2.39-2.75-1.1-3.55-2.35-3.76 1.1-.2 2.35-1 2.35-3.84Z" fill="url(#a)"/>
<path d="m26 30v5h4v-5h5v-4h-5v-5h-4v5h-5v4h5z" fill="rgb(239, 242, 248)"/>
<defs>
<linearGradient id="d" x1="28" x2="28" y1="10" y2="46" gradientUnits="userSpaceOnUse">
<stop stop-color="rgb(133, 194, 64)" offset="0"/>
<stop stop-color="rgb(79, 166, 66)" offset=".25"/>
<stop stop-color="rgb(75, 176, 73)" offset=".74"/>
<stop stop-color="rgb(138, 194, 84)" offset="1"/>
</linearGradient>
<linearGradient id="c" x1="46" x2="10" y1="28" y2="28" gradientUnits="userSpaceOnUse">
<stop stop-color="rgb(133, 194, 64)" offset="0"/>
<stop stop-color="rgb(79, 166, 66)" offset=".25"/>
<stop stop-color="rgb(75, 176, 73)" offset=".74"/>
</linearGradient>
<linearGradient id="b" x1="46" x2="10" y1="28" y2="28" gradientUnits="userSpaceOnUse">
<stop stop-color="rgb(79, 166, 66)" offset=".25"/>
<stop stop-color="rgb(75, 176, 73)" offset=".74"/>
<stop stop-color="rgb(138, 194, 84)" offset="1"/>
</linearGradient>
<linearGradient id="a" x1="28" x2="28" y1="15" y2="41" gradientUnits="userSpaceOnUse">
<stop stop-color="rgb(50, 168, 179)" offset="0"/>
<stop stop-color="rgb(107, 201, 228)" offset=".39"/>
<stop stop-color="rgb(123, 208, 227)" offset=".55"/>
<stop stop-color="rgb(47, 171, 172)" offset="1"/>
</linearGradient>
</defs>
</svg>
