<?xml version="1.0" encoding="UTF-8"?>
<!-- generated by Finnhub -->
<svg viewBox="0 0 55.5 55.5" xmlns="http://www.w3.org/2000/svg">
<path d="M 0,0 H 55.5 V 55.5 H 0 Z" fill="rgb(239, 242, 248)"/>
<path d="M 17.99,40.505 V 33.52 C 18,33.07 18.13,32.62 18.38,32.25 L 21.62,27.53 C 21.87,27.16 22,26.71 22,26.26 V 13.16 C 20.55,13.76 19.2,14.55 18,15.51 V 26 C 18,26.47 17.87,26.93 17.62,27.31 L 15.33,30.81 C 15.08,31.19 15,31.65 15,32.12 V 37.36 A 16.1,16.1 0 0,0 18,40.53 Z M 19,41.26 C 20.5,42.28 22.19,43.06 24,43.53 V 35.38 C 24,34.93 24.28,34.48 24.54,34.11 L 27.84,29.39 C 28.04,29.09 28.02,28.75 28.01,28.4 L 28,28.12 V 12 C 26.25,12 24.57,12.28 23,12.8 V 26.7 C 23,27.17 22.86,27.63 22.59,28 L 19.43,32.44 C 19.16,32.82 19,33.28 19,33.75 V 41.25 Z M 29,12.03 V 44 C 30.76,43.9 32.44,43.5 34,42.87 V 13.17 A 15.9,15.9 0 0,0 29,12.03 Z M 35,13.61 V 42.42 A 16.04,16.04 0 0,0 39,39.65 V 16.39 A 16.04,16.04 0 0,0 35,13.61 Z M 40,17.42 V 38.61 C 42.49,35.79 44,32.08 44,28.01 C 44,23.95 42.49,20.25 40,17.42 Z M 17,16.4 A 15.98,15.98 0 0,0 14,35.78 V 31.88 C 14,31.43 14.13,30.99 14.36,30.62 L 16.72,26.83 C 16.95,26.46 17,26.01 17,25.56 V 16.4 Z" fill="url(#a)"/>
<defs>
<linearGradient id="a" x1="12.63" x2="43.33" y1="26.48" y2="26.48" gradientUnits="userSpaceOnUse">
<stop stop-color="rgb(12, 44, 132)" offset="0"/>
<stop stop-color="rgb(9, 68, 115)" offset=".27"/>
<stop stop-color="rgb(7, 84, 104)" offset=".37"/>
<stop stop-color="rgb(5, 93, 96)" offset=".48"/>
<stop stop-color="rgb(4, 106, 87)" offset=".57"/>
<stop stop-color="rgb(2, 116, 79)" offset=".67"/>
<stop stop-color="rgb(1, 123, 74)" offset=".76"/>
<stop stop-color="rgb(0, 134, 66)" offset=".86"/>
<stop stop-color="rgb(1, 142, 60)" offset="1"/>
</linearGradient>
</defs>
</svg>
