<!-- by Finnhub --><svg xmlns="http://www.w3.org/2000/svg" width="56" height="56" viewBox="0 0 56 56"><path fill="#F0F3FA" d="M0 0h56v56H0z"/><path d="M34.29 33.6a1.28 1.28 0 1 0-2.36-.98 1.28 1.28 0 0 0 2.36.98ZM22.9 24.17a1.28 1.28 0 1 0 0-2.55 1.28 1.28 0 0 0 0 2.55ZM34.29 23.39a1.28 1.28 0 1 0-2.36-.98 1.28 1.28 0 0 0 2.36.98ZM22.9 34.38a1.28 1.28 0 1 0 0-2.55 1.28 1.28 0 0 0 0 2.55Z" fill="#73E5AE"/><path d="M32.85 19.64a1.28 1.28 0 1 0-2.36-.98 1.28 1.28 0 0 0 2.36.98ZM25.5 37.34a1.28 1.28 0 1 0-2.35-.98 1.28 1.28 0 0 0 2.36.98ZM24.82 20.33a1.28 1.28 0 1 0-.98-2.36 1.28 1.28 0 0 0 .98 2.36ZM32.16 38.03a1.28 1.28 0 1 0-.97-2.36 1.28 1.28 0 0 0 .97 2.36ZM38.03 32.16a1.28 1.28 0 1 0-2.36-.98 1.28 1.28 0 0 0 2.36.98ZM20.33 24.82a1.28 1.28 0 1 0-2.36-.98 1.28 1.28 0 0 0 2.36.98ZM37.34 25.5a1.28 1.28 0 1 0-.98-2.35 1.28 1.28 0 0 0 .98 2.36ZM19.64 32.85a1.28 1.28 0 1 0-.98-2.36 1.28 1.28 0 0 0 .98 2.36Z" fill="#52A8BC"/><path d="M20.34 36.94a1.28 1.28 0 1 0 0-2.55 1.28 1.28 0 0 0 0 2.55ZM35.66 21.61a1.28 1.28 0 1 0 0-2.55 1.28 1.28 0 0 0 0 2.55ZM20.34 21.61a1.28 1.28 0 1 0 0-2.55 1.28 1.28 0 0 0 0 2.55ZM35.66 36.94a1.28 1.28 0 1 0 0-2.55 1.28 1.28 0 0 0 0 2.55ZM28.01 18.46a1.28 1.28 0 1 0 0-2.55 1.28 1.28 0 0 0 0 2.55ZM28.01 40.1a1.28 1.28 0 1 0 0-2.56 1.28 1.28 0 0 0 0 2.55ZM17.19 29.28a1.28 1.28 0 1 0 0-2.56 1.28 1.28 0 0 0 0 2.56ZM38.81 29.28a1.28 1.28 0 1 0 0-2.56 1.28 1.28 0 0 0 0 2.56Z" fill="#247CDF"/><path d="M21.73 12.88a.84.84 0 1 0-.64-1.56.84.84 0 0 0 .64 1.56ZM34.91 44.68a.84.84 0 1 0-.64-1.56.84.84 0 0 0 .64 1.56ZM35.36 12.42a.84.84 0 1 0-1.55-.64.84.84 0 0 0 1.55.64ZM22.19 44.22a.84.84 0 1 0-1.55-.64.84.84 0 0 0 1.55.64ZM44.22 22.2a.84.84 0 1 0-.64-1.56.84.84 0 0 0 .64 1.55ZM12.42 35.37a.84.84 0 1 0-.64-1.56.84.84 0 0 0 .64 1.56ZM44.68 34.91a.84.84 0 1 0-1.56-.64.84.84 0 0 0 1.56.64ZM12.88 21.74a.84.84 0 1 0-1.56-.65.84.84 0 0 0 1.56.65ZM38.2 18.64a.84.84 0 1 0 0-1.69.84.84 0 0 0 0 1.69ZM17.8 39.05a.84.84 0 1 0 0-1.69.84.84 0 0 0 0 1.69ZM38.2 39.05a.84.84 0 1 0 0-1.69.84.84 0 0 0 0 1.69ZM17.8 18.64a.84.84 0 1 0 0-1.69.84.84 0 0 0 0 1.69ZM40.38 24.15a1.28 1.28 0 1 0 0-2.56 1.28 1.28 0 0 0 0 2.56ZM15.63 34.4a1.28 1.28 0 1 0 0-2.55 1.28 1.28 0 0 0 0 2.56ZM40.38 34.4a1.28 1.28 0 1 0 0-2.55 1.28 1.28 0 0 0 0 2.56ZM15.63 24.15a1.28 1.28 0 1 0 0-2.56 1.28 1.28 0 0 0 0 2.56ZM28 14.42a.84.84 0 1 0 0-1.69.84.84 0 0 0 0 1.69ZM28 43.27a.84.84 0 1 0 0-1.69.84.84 0 0 0 0 1.69ZM22.86 16.9a1.28 1.28 0 1 0 0-2.55 1.28 1.28 0 0 0 0 2.55ZM33.14 16.9a1.28 1.28 0 1 0 0-2.55 1.28 1.28 0 0 0 0 2.55ZM22.86 41.65a1.28 1.28 0 1 0 0-2.55 1.28 1.28 0 0 0 0 2.55ZM33.14 41.65a1.28 1.28 0 1 0 0-2.55 1.28 1.28 0 0 0 0 2.55ZM42.42 28.84a.84.84 0 1 0 0-1.68.84.84 0 0 0 0 1.68ZM13.57 28.84a.84.84 0 1 0 0-1.68.84.84 0 0 0 0 1.68Z" fill="#2C3E92"/></svg>