<?xml version="1.0" encoding="UTF-8"?>
<!-- generated by Finnhub -->
<svg viewBox="0 0 55.5 55.5" xmlns="http://www.w3.org/2000/svg">
<path d="M0 0h55.5v55.5H0z" fill="rgb(239, 242, 248)"/>
<path d="M6 34V20h2.26l5.24 9.05V20H16v3.4a7 7 0 0 1 10.8-1.49l-1.36 2.19a4.5 4.5 0 1 0 .3 5.4H22V27h4a7 7 0 0 1 11.93-4.97 9.09 9.09 0 0 0-1.15 2.53 4.5 4.5 0 1 0 .72 2.26 7 7 0 0 1 12.68-3.91l-.73.6-1.21.98a4.5 4.5 0 1 0 0 5.01H45V27h4m-10.25 4a7 7 0 0 1-11.25.33 6.99 6.99 0 0 1-11.5-.72V34h-2.45L8.5 24.78V34H6m32.75-3a7 7 0 0 0 5.75 3l-5.75-3Z" fill="url(#b)"/>
<path d="M6 29.28V34h2.5v-5.5c-.87.24-1.7.5-2.5.78Zm6.6-1.8c-.8.17-1.57.35-2.33.54L13.55 34H16v-3.4a7 7 0 0 0 11.5.73A6.99 6.99 0 0 0 38.75 31a7 7 0 0 0 12.44-1.92A55.07 55.07 0 0 0 45 27.45v2.05h3.24a4.5 4.5 0 0 1-8.22-2.89c-.82-.1-1.65-.2-2.49-.28l-.03.48a4.5 4.5 0 1 1-8.87-.9c-.86 0-1.7.02-2.55.04-.05.34-.08.7-.08 1.05h-4v2.5h3.74a4.5 4.5 0 0 1-8.23-2.85c-1.38.19-2.72.4-4.01.66v1.74l-.9-1.56Z" fill="url(#a)"/>
<defs>
<linearGradient id="b" x1="28.09" x2="28.09" y1="20" y2="34" gradientUnits="userSpaceOnUse">
<stop stop-color="rgb(97, 140, 175)" offset="0"/>
<stop stop-color="rgb(1, 32, 74)" offset=".43"/>
</linearGradient>
<linearGradient id="a" x1="28.59" x2="28.59" y1="25.91" y2="34" gradientUnits="userSpaceOnUse">
<stop stop-color="rgb(65, 164, 220)" offset="0"/>
<stop stop-color="rgb(8, 77, 134)" offset="1"/>
</linearGradient>
</defs>
</svg>
