<?xml version="1.0" encoding="UTF-8"?>
<!-- generated by Finnhub -->
<svg viewBox="0 0 55.5 55.5" xmlns="http://www.w3.org/2000/svg">
<path d="M0 0h55.5v55.5H0z" fill="rgb(239, 242, 248)"/>
<path d="M5 34V22h2.3l6.2 7.04V22H16v12h-2.16L7.5 26.53V34H5Zm22.5-1.27A6.17 6.17 0 0 1 23.54 34c-4.38 0-6.04-2.69-6.04-6s2.11-6 6.04-6c1.64 0 2.97.47 3.96 1.27V26a6.11 6.11 0 0 0-3.95-1.5c-2.3 0-3.55 1.57-3.55 3.5s.97 3.5 3.55 3.5c.48 0 .97-.07 1.45-.2V30h-1.55v-2.5h4.05v5.23Zm24.5 0A6.17 6.17 0 0 1 48.04 34C43.66 34 42 31.31 42 28s2.11-6 6.04-6c1.64 0 2.97.47 3.96 1.27V26a6.11 6.11 0 0 0-3.95-1.5c-2.3 0-3.55 1.57-3.55 3.5s.97 3.5 3.55 3.5c1.42 0 2.97-.6 3.95-1.5v2.73ZM31.5 34H29V22h2.31l3.67 4.86L38.62 22H41v12h-2.5v-7.33l-3.52 4.22-3.48-4.22V34Z" fill="rgb(12, 53, 144)"/>
</svg>
