<?xml version="1.0" encoding="UTF-8"?>
<!-- generated by Finnhub -->
<svg viewBox="0 0 55.5 55.5" xmlns="http://www.w3.org/2000/svg">
<path d="M 0,0 H 55.5 V 55.5 H 0 Z" fill="rgb(215, 254, 6)"/>
<path d="M 22.59,19.615 L 27.96,22.13 L 26.8,24.65 L 23.78,26.59 L 21.97,30.54 L 24.97,28.6 L 29.21,30.58 L 32.94,28.18 L 32.96,28.14 L 35.3,23.04 L 35.33,22.98 L 24.63,18 L 13.92,13 L 18.8,20.54 C 19.85,19.37 21.24,19 22.6,19.64 Z M 30.06,23.1 L 32.06,24.04 L 32.26,24.13 L 31.36,26.06 L 31.13,26.56 L 29.03,27.91 L 27.3,27.11 L 28.67,26.22 H 28.63 L 30.06,23.1 Z M 26.87,16.62 C 26.37,16.65 25.87,16.72 25.39,16.8 L 25.16,16.7 L 22.23,15.34 A 14.36,14.36 0 0,1 36.6,17.4 L 34.95,18.48 L 34.54,18.74 A 12,12 0 0,0 26.86,16.61 Z M 20.77,38.57 A 12.06,12.06 0 0,0 29.93,40.52 L 33.09,41.98 A 14.34,14.34 0 0,1 18.71,39.91 L 20.37,38.83 L 20.77,38.57 Z M 14.34,34.09 L 15.7,31.15 L 15.8,30.92 A 12.05,12.05 0 0,1 17.75,21.77 L 17.48,21.37 L 16.41,19.71 A 14.37,14.37 0 0,0 14.34,34.09 Z M 40.2,24.94 L 41,23.23 A 14.42,14.42 0 0,1 38.9,37.61 L 37.83,35.96 L 37.57,35.56 A 12.02,12.02 0 0,0 39.52,26.41 L 40.02,25.34 L 40.2,24.94 Z M 23.53,21.94 L 20.55,23.82 L 18.71,27.7 L 26.06,23.1 L 23.53,21.95 Z M 35.5,30.97 L 29.81,34.73 L 27.34,33.53 S 37.32,26.9 37.24,27.07 L 35.5,30.97 Z M 21.27,28.02 L 18.51,33.97 C 18.03,35.25 18.43,36.53 19.52,37.52 L 12,42.4 L 14.58,36.84 L 16.41,32.91 L 16.98,31.67 L 17,31.68 L 17.62,30.35 L 21.27,28.02 Z M 32.7,37.5 L 32.62,37.46 S 34.32,33.82 34.41,33.66 A 95.2,95.2 0 0,0 30.09,36.3 L 27.09,34.93 L 24.11,33.57 L 27.53,31.4 L 25.03,30.26 L 20.5,33.13 L 19.99,34.22 L 29.39,38.52 L 32.32,39.85 L 41.4,44 L 36.52,36.6 C 35.46,37.75 34.07,38.12 32.7,37.5 Z M 35.01,26.74 L 36.44,23.64 C 37.07,22.26 36.69,20.87 35.54,19.81 L 43,14.91 L 38.62,24.45 L 35.01,26.75 Z"/>
</svg>
