<!-- by Finnhub --><svg xmlns="http://www.w3.org/2000/svg" width="56" height="56" viewBox="0 0 56 56"><path fill="#F0F3FA" d="M0 0h56v56H0z"/><path d="M24.34 23c2.18 0 3.24 1.17 3.24 2h1.07c0-.97-1.06-3-4.31-3-1.94 0-4.04.97-4.04 2.91 0 1.5.9 2.28 2.51 2.8 1.55.51 5.23.77 5.19 3.14-.02 1.48-1.52 2.15-3.3 2.15-3.68 0-3.6-3-3.6-3H20s-.14 1.24.84 2.47c1 1.23 2.5 1.53 4.07 1.53 1.23 0 2.46-.4 3.25-1.19.52-.53.84-1.23.84-2.12 0-2.45-2.4-2.98-4.3-3.5-1.65-.45-3.4-.78-3.4-2.28 0-1.11 1.33-1.91 3.04-1.91ZM17 22h1v12h-1zM7 22H6v12h1V23.98L14 34h1V22h-1v10.19L7 22Z" fill="#727171"/><path d="M32 22h-1V29.06C31 32.1 33.15 34 35.78 34c2.81 0 4.72-2.21 4.72-4.94v-2.05c0-2.27 1.72-4.01 3.73-4.01 2.02 0 3.77 1.78 3.77 4.02V34h1v-7.07A4.85 4.85 0 0 0 44.23 22a4.82 4.82 0 0 0-4.73 4.93v2.05c0 2.08-1.53 4.02-3.72 4.02-2.02 0-3.78-1.63-3.78-4.02V22Z" fill="#BD9961"/></svg>