<!-- by Finnhub --><svg width="56" height="56" viewBox="0 0 56 56" xmlns="http://www.w3.org/2000/svg"><path fill="#F0F3FA" d="M0 0h56v56H0z"/><path d="m17.6 19.15-.02.1.04-.1.48.18-.48-.2.56-1.72-.09.35v.55l.49-1.54-.26 1.1-.04.44.18-.33 1.4-4.75 2.66 5.63 4.4-3.3v2.04l.13-2.28-4.43 3.36-1.78-3.71 1.78 3.6 4.55-3.44-.07 3.01.07.81v-.8l.2-2.26.05 1.48.1-1.62.21-1.53-2.87 2.11 3.01-2.32-.2 1.97v1.68l.12-1.45.08 1.62.06-1.4.06-.45.07-.23.23-2.38-3.27 2.42 3.4-2.65-.27 3.24.42-3.45-5.5 4.14L19.45 10c-.13.58-.42 1.87-.52 2.42-.1.55-.54 2.26-.75 3.05l-.35 1.25.16-.15-.31 1.14.2-.3c-.02.07-.1.3-.13.57-.02.24-.1.8-.15 1.14l-2.7-1.1 1.3.43-1.07-.47 1.3.45-4.12-1.71 1.03 1.97-1.24-2.16 4.82 1.9-1.34-.62 1.75.54-1.75-.72-.3-.18-2.4-.92-1.36-.5.88 1.66-1.05-1.78 1.99.73 2.31.88A46.22 46.22 0 0 0 11 15.6a39.6 39.6 0 0 1 2.5 4.83c.34 1.05.72 2.08.87 2.47.06.21.3.6.71.48.1-.03.31-.13.6-.28 1.14-.57 3.59-1.8 6.59-2.07 3.02-.26 5.23-.01 5.97.14-.22-.13-.9-.4-1.9-.4l.9-.07-1.44-.24 1.39.12a13.1 13.1 0 0 0-3.83-.46c-2.57 0-5.29.75-7.92 2-.23-.84-.9-2.84-1.71-4.1l3.04 1.04-3.43-1.37 4.26 1.46Z" fill="#FFAB45"/><path fill-rule="evenodd" d="M18 24v5h1v-3.08L21.2 29h.8v-5h-1v3.2L18.82 24H18Zm5.83 3.14h3.16c.08-.71-.2-2.14-1.99-2.14s-2.07 1.43-1.99 2.14c.04.62.5 1.86 2 1.86s1.94-.94 1.98-1.42h-.9c-.08.26-.41.77-1.04.77-.78 0-1.17-.37-1.22-1.2Zm-.01-.37h2.36c-.02-.38-.28-1.14-1.16-1.14-1.1 0-1.2 1.09-1.2 1.14ZM27 25l1.52 4h.99L31 25h-.9L29 27.83 27.89 25H27Zm7 3.43c-.32.35-.75.57-1.23.57-.98 0-1.77-.9-1.77-2s.79-2 1.77-2c.48 0 .91.22 1.23.57V25h.84v4H34v-.57ZM34 27c0 .73-.45 1.31-1 1.31s-1-.58-1-1.31c0-.73.45-1.31 1-1.31s1 .58 1 1.31Zm7.77 2c.48 0 .91-.22 1.23-.57V29h1v-4h-1v.57a1.66 1.66 0 0 0-1.23-.57c-.98 0-1.77.9-1.77 2s.79 2 1.77 2Zm.23-.69c.55 0 1-.58 1-1.31 0-.73-.45-1.31-1-1.31s-1 .58-1 1.31c0 .73.45 1.31 1 1.31Zm-4-.14V29h1v-5h-1v1.83c-.3-.5-.77-.83-1.3-.83-.89 0-1.6.9-1.6 2s.71 2 1.6 2c.53 0 1-.33 1.3-.83ZM38 27c0-.73-.45-1.31-1-1.31s-1 .58-1 1.31c0 .73.45 1.31 1 1.31s1-.58 1-1.31Zm-26 0v12h3v-4.5l2.96 4.5H24v-9h-6.04L15 34.14V27h-3Zm9 3v9l-3.4-4.5L21 30Zm4 0h3v1.16c.51-.6 1.4-1.16 2.86-1.16 3 0 3.14 3.1 3.14 3.85v5.13h-3v-4.84c.02-.62-.02-2.14-1.37-2.14-.93 0-1.38.44-1.63.9V39h-3v-9Zm16 8.7v-.3c-.59.38-1.27.6-2 .6-2.2 0-4-2.01-4-4.5 0-2.48 1.8-4.5 4-4.5.73 0 1.41.22 2 .6V30h3v8.7h-.02c.04 1.43-.79 4.3-4.43 4.3-3.64 0-4.6-2.84-4.63-4H38v.01c.05.39.12.99 1.47.99 1.56 0 1.55-.53 1.53-1.13a8 8 0 0 1 0-.17Zm-1.5-6.2c.83 0 1.5.9 1.5 2s-.67 2-1.5 2-1.5-.9-1.5-2 .67-2 1.5-2Z" fill="#4A2E38"/></svg>