<?xml version="1.0" encoding="UTF-8"?>
<!-- generated by Finnhub -->
<svg viewBox="0 0 55.5 55.5" xmlns="http://www.w3.org/2000/svg">
<path d="M0 0h55.5v55.5H0z" fill="rgb(239, 242, 248)"/>
<path d="m31.62 15.34c0.9 0 1.65-0.75 1.65-1.67s-0.74-1.67-1.65-1.67-1.65 0.75-1.65 1.67 0.74 1.67 1.65 1.67z" fill="rgb(9, 156, 74)"/>
<path d="M36.48 21.94a2.88 2.88 0 0 0-2.5 1.26c-.66.87-.81 1.8-.47 2.78.38 1.12.43 2.33.15 3.63a5.98 5.98 0 0 0 1.81 5.67c.6.62 1.05 1.05 1.38 1.28 1 .73 2.2 1.1 3.58 1.13.8 0 1.49.3 2.07.86.57.56.89 1.23.95 2.04.08.91-.19 1.7-.8 2.38A2.94 2.94 0 0 1 40.38 44a3 3 0 0 1-2.25-.92c-.6-.61-.9-1.37-.91-2.29a6.02 6.02 0 0 0-1.87-4.37l-.36-.37a5.88 5.88 0 0 0-5.9-1.93 6 6 0 0 1-6.16-2.19 6.06 6.06 0 0 1-1.22-5.24c.08-.44.12-.76.13-.98a6.01 6.01 0 0 0-1.4-4.33 14.66 14.66 0 0 0-1.1-1.16 5.75 5.75 0 0 0-3.5-1.73 12.7 12.7 0 0 0-.99-.09 3.15 3.15 0 0 1-2.46-4.78 2.96 2.96 0 0 1 2.16-1.48c.95-.16 1.79.07 2.52.7.52.44.86.98 1 1.62.08.28.12.64.14 1.1a6.02 6.02 0 0 0 1.92 4.2l.36.37c.29.29.5.5.66.62A5.8 5.8 0 0 0 26.3 22a6.06 6.06 0 0 1 3.25.12c.34.11.64.18.9.2 1.16.12 2.1-.37 2.83-1.46.34-.52.5-1.18.47-2-.03-.79.2-1.48.69-2.08.48-.6 1.1-.96 1.86-1.1.97-.18 1.83.05 2.58.7a3.02 3.02 0 0 1 1.1 2.46 3.12 3.12 0 0 1-2.85 3.09c-.23.01-.45.02-.65.01Z" fill="rgb(19, 71, 153)"/>
<path d="m27.6 31.87a3.7 3.7 0 0 0 3.68-3.72 3.7 3.7 0 0 0-3.67-3.72 3.7 3.7 0 0 0-3.67 3.72 3.7 3.7 0 0 0 3.67 3.72zm-14.95-2.8c0.9 0 1.65-0.75 1.65-1.67s-0.74-1.67-1.65-1.67-1.65 0.75-1.65 1.67 0.74 1.67 1.65 1.67zm29.7 7.3c0.91 0 1.65-0.75 1.65-1.67s-0.74-1.67-1.65-1.67-1.65 0.75-1.65 1.67 0.74 1.67 1.65 1.67z" fill="rgb(9, 156, 74)"/>
<path d="m19.23 39.8a3.17 3.17 0 0 0 3.15-3.18c0-1.76-1.4-3.18-3.15-3.18a3.17 3.17 0 0 0-3.14 3.18c0 1.76 1.4 3.19 3.14 3.19z" fill="rgb(19, 71, 153)"/>
</svg>
