<?xml version="1.0" encoding="UTF-8"?>
<!-- generated by Finnhub -->
<svg viewBox="0 0 55.5 55.5" xmlns="http://www.w3.org/2000/svg">
<path d="M 0,0 H 55.5 V 55.5 H 0 Z" fill="rgb(239, 242, 248)"/>
<path d="M 41.99,13.985 H 14 V 42 H 42 V 14 Z M 13,13 V 43 H 43 V 13 H 13 Z M 17,22 V 33 H 19 V 26.33 L 23.18,33 H 25 V 22 H 23 V 28.6 L 18.76,22 H 17 Z M 28,25 H 30 V 25.51 A 2.85,2.85 0 0,1 33.9,26.11 A 2.84,2.84 0 0,1 39,27.85 V 33 H 37 V 28.25 A 1.25,1.25 0 0,0 34.5,28.25 V 33 H 32.5 V 28.25 A 1.25,1.25 0 0,0 30,28.25 V 33 H 28 V 25 Z" fill="url(#a)" fill-rule="evenodd"/>
<defs>
<linearGradient id="a" x1="12" x2="44" y1="28" y2="28" gradientUnits="userSpaceOnUse">
<stop stop-color="rgb(1, 173, 237)" offset="0"/>
<stop stop-color="rgb(1, 171, 135)" offset="1"/>
</linearGradient>
</defs>
</svg>
