<?xml version="1.0" encoding="UTF-8"?>
<!-- generated by Finnhub -->
<svg viewBox="0 0 55.5 55.5" xmlns="http://www.w3.org/2000/svg">
<path d="M 0,0 H 55.5 V 55.5 H 0 Z" fill="url(#a)"/>
<path d="M 19.99,12.985 A 2,2 0 0,1 21.29,13.47 A 15.94,15.94 0 0,1 36.41,14.39 C 32.6,12.05 26.49,12.69 21.97,14.67 A 2.01,2.01 0 0,1 20,17 A 2,2 0 1,1 20,13 Z M 42.27,35.23 A 15.93,15.93 0 0,0 41.79,19.89 A 2,2 0 1,0 40.75,20.86 C 42.72,24.99 42.92,30.99 42.27,35.23 Z M 37,42 A 2,2 0 0,1 36.11,41.8 A 15.93,15.93 0 0,1 28,44 A 16,16 0 0,1 19.09,41.3 C 23.24,44 30.44,43.12 35.14,40.73 A 2,2 0 0,1 37,38 A 2,2 0 1,1 37,42 Z M 15.61,17.87 A 15.93,15.93 0 0,0 13.47,34.71 A 2,2 0 1,0 14.85,34.01 C 12.9,29.34 12.9,21.73 15.61,17.87 Z" fill="url(#b)"/>
<path d="M 38.42,24.485 C 35.27,16.54 22.4,16.91 19.21,24.4 A 2,2 0 1,1 17.74,24.02 A 11,11 0 0,1 38.44,24.5 Z M 36.79,31.6 C 33.41,39.79 19.26,39.38 17.26,30.37 A 11,11 0 0,0 38.26,31.98 A 2,2 0 1,0 36.79,31.6 Z" fill="url(#c)"/>
<path d="M 31.99,22.485 A 2.5,2.5 0 0,1 27.26,23.62 C 24.47,24.31 21.82,28.56 22.48,30.76 C 21.08,26.92 23.02,21.42 27.48,21.02 A 2.5,2.5 0 0,1 32,22.5 Z M 28.52,34.98 A 2.5,2.5 0 1,1 28.62,32.18 C 31.22,31.5 33.95,28.08 33.72,25.86 C 34.75,29.6 32.72,34.6 28.52,34.98 Z" fill="url(#d)"/>
<defs>
<linearGradient id="a" x1="10.42" x2="68.15" y1="9.71" y2="76.02" gradientUnits="userSpaceOnUse">
<stop stop-color="rgb(25, 29, 31)" offset="0"/>
<stop stop-color="rgb(5, 5, 8)" offset="1"/>
</linearGradient>
<linearGradient id="b" x1="11.5" x2="45" y1="29.5" y2="29.5" gradientUnits="userSpaceOnUse">
<stop stop-color="rgb(153, 214, 140)" offset="0"/>
<stop stop-color="rgb(67, 116, 66)" offset=".11"/>
<stop stop-color="rgb(97, 219, 107)" offset=".29"/>
<stop stop-color="rgb(185, 229, 111)" offset=".47"/>
<stop stop-color="rgb(98, 145, 42)" offset=".76"/>
<stop stop-color="rgb(148, 196, 86)" offset=".89"/>
<stop stop-color="rgb(38, 103, 46)" offset="1"/>
</linearGradient>
<linearGradient id="c" x1="18" x2="39" y1="27" y2="26.5" gradientUnits="userSpaceOnUse">
<stop stop-color="rgb(96, 220, 95)" offset="0"/>
<stop stop-color="rgb(149, 201, 64)" offset=".36"/>
<stop stop-color="rgb(46, 99, 56)" offset="1"/>
</linearGradient>
<linearGradient id="d" x1="31.5" x2="24.5" y1="22.5" y2="34" gradientUnits="userSpaceOnUse">
<stop stop-color="rgb(60, 126, 42)" offset="0"/>
<stop stop-color="rgb(155, 233, 54)" offset=".46"/>
<stop stop-color="rgb(123, 217, 88)" offset="1"/>
</linearGradient>
</defs>
</svg>
