<?xml version="1.0" encoding="UTF-8"?>
<!-- generated by Finnhub -->
<svg viewBox="0 0 55.5 55.5" xmlns="http://www.w3.org/2000/svg">
<path d="M 0,0 H 55.5 V 55.5 H 0 Z" fill="rgb(239, 242, 248)"/>
<path d="M 26.65,41.325 C 23,41.39 19.51,40.6 18.23,40.2 A 11,11 0 0,1 16,33.52 C 16,29.42 17.66,27.15 19.6,24.63 C 21.15,22.61 21.18,20.7 21,19.99 A 6,6 0 0,1 23.11,22.14 C 23.78,23.31 23.39,25.21 23.11,26.01 C 24.53,24.95 27.37,21.97 27.37,18.55 C 27.37,15.14 26.3,12.12 25.77,11.05 C 27.17,12.66 29.97,16.71 29.97,19.99 C 29.97,27.09 23.31,29.59 23.31,34.55 C 23.31,38.52 25.54,40.73 26.66,41.35 Z" fill="url(#f)"/>
<path d="M 25.689999999999998,40.605 C 24.2,39.75 22.5,37.87 22.5,34.34 C 22.5,31.31 24.11,29.27 25.75,27.2 C 27.33,25.2 28.93,23.18 29.15,20.18 C 29.25,18.76 29.21,17.47 29.09,16.33 A 9.6,9.6 0 0,1 29.97,19.99 C 29.97,23.86 27.99,26.37 26.19,28.64 C 24.69,30.54 23.31,32.29 23.31,34.55 C 23.31,37.55 24.59,39.55 25.7,40.62 Z" fill="url(#e)"/>
<path d="M 23.49,19.064999999999998 C 23.98,20.16 24.2,21.88 24.24,22.6 A 4.67,4.67 0 0,0 25.96,18.6 C 25.96,17.22 25.26,14.34 24.75,12.69 C 24.34,11.36 24.91,9.68 25.25,9 A 6.41,6.41 0 0,0 22.49,14.51 C 22.49,16.14 22.89,17.73 23.49,19.08 Z" fill="url(#d)"/>
<path d="M 30.52,22.205 C 30.53,19.19 31.97,16.34 32.69,15.3 C 34.63,25.62 40,24.9 40,32.65 A 12,12 0 0,1 27.88,45 C 22.99,45 20.45,42.85 19.79,41.78 C 34.97,44.1 36.61,38.64 36.61,34.78 C 36.61,30.93 30.53,26 30.53,22.22 Z" fill="url(#c)"/>
<path d="M 30.52,22.064999999999998 V 22.22 C 30.53,24.1 32.03,26.26 33.55,28.44 C 35.07,30.64 36.61,32.85 36.61,34.79 C 36.61,38.64 34.97,44.1 19.79,41.79 L 19.86,41.89 A 18.9,18.9 0 0,0 26.58,43.02 C 35.08,43.02 37.17,37.44 37.17,35.42 S 37.09,31.57 33.37,27.49 A 11.95,11.95 0 0,1 30.53,22.08 Z" fill="url(#b)"/>
<path d="M 29.95,25.134999999999998 C 28.16,27.53 24.55,32.97 24.55,35.65 C 24.55,39 27.05,40.82 29.96,40.82 C 32.88,40.82 35.37,38.57 35.37,35.1 C 35.37,32.84 33.51,30.31 31.93,28.18 A 17.78,17.78 0 0,1 29.96,25.15 Z M 27.49,30.48 C 27.69,30.6 27.98,30.48 28.16,30.22 C 28.33,29.95 28.33,29.63 28.14,29.51 C 27.95,29.38 27.65,29.5 27.48,29.77 C 27.3,30.03 27.31,30.35 27.49,30.47 Z M 26.63,32.32 C 26.91,32.51 27.33,32.34 27.6,31.94 C 27.86,31.55 27.85,31.09 27.57,30.9 C 27.3,30.72 26.87,30.9 26.61,31.28 C 26.35,31.68 26.36,32.14 26.63,32.32 Z M 31.02,39.73 C 34.17,38.58 34.15,34.69 33.75,32.89 C 34.09,33.13 34.71,34.19 34.41,36.53 C 34.08,39.25 31.48,39.66 31.07,39.73 H 31.02 Z" fill="url(#a)" fill-rule="evenodd"/>
<defs>
<linearGradient id="f" x1="29.57" x2="18.51" y1="15.96" y2="38.48" gradientUnits="userSpaceOnUse">
<stop stop-color="rgb(252, 179, 24)" offset="0"/>
<stop stop-color="rgb(212, 28, 35)" offset="1"/>
</linearGradient>
<linearGradient id="e" x1="26.24" x2="26.24" y1="16.33" y2="40.62" gradientUnits="userSpaceOnUse">
<stop stop-color="rgb(191, 65, 41)" offset="0"/>
<stop stop-color="rgb(227, 176, 30)" offset=".76"/>
</linearGradient>
<linearGradient id="d" x1="24.22" x2="24.22" y1="9" y2="22.6" gradientUnits="userSpaceOnUse">
<stop stop-color="rgb(253, 159, 32)" offset=".16"/>
<stop stop-color="rgb(220, 35, 15)" offset="1"/>
</linearGradient>
<linearGradient id="c" x1="29.9" x2="29.9" y1="15.3" y2="45" gradientUnits="userSpaceOnUse">
<stop stop-color="rgb(121, 158, 74)" offset=".02"/>
<stop stop-color="rgb(196, 220, 103)" offset=".43"/>
<stop stop-color="rgb(26, 79, 36)" offset="1"/>
</linearGradient>
<linearGradient id="b" x1="31.57" x2="32.02" y1="42.49" y2="28.05" gradientUnits="userSpaceOnUse">
<stop stop-color="rgb(84, 147, 76)" offset="0"/>
<stop stop-color="rgb(0, 53, 2)" offset="1"/>
</linearGradient>
<linearGradient id="a" x1="29.96" x2="29.96" y1="25.15" y2="40.82" gradientUnits="userSpaceOnUse">
<stop stop-color="rgb(22, 168, 226)" offset="0"/>
<stop stop-color="rgb(6, 45, 111)" offset=".96"/>
</linearGradient>
</defs>
</svg>
