<?xml version="1.0" encoding="UTF-8"?>
<!-- generated by Finnhub -->
<svg viewBox="0 0 55.5 55.5" xmlns="http://www.w3.org/2000/svg">
<path d="M0 0h55.5v55.5H0z" fill="rgb(239, 242, 248)"/>
<path d="M21.52 31.5 17.5 24h1.05l2.93 5.46L24.36 24h1.15l-3.98 7.5Z" fill="rgb(26, 127, 158)"/>
<path d="M27.48 23.5 31.5 31h-1.12l-2.86-5.6-2.95 5.6H23.5l3.98-7.5Z" fill="rgb(20, 159, 203)"/>
<path d="M4 31h1v-4.8c1.7 1.9 5 5.3 5 5.3V24H9v5.04L4 23.5V31Zm42 0h1v-4.8c1.7 1.9 5 5.3 5 5.3V24h-1v5.04l-5-5.54V31Zm-31.5 0a3.5 3.5 0 1 0 0-7 3.5 3.5 0 0 0 0 7Zm0-1a2.5 2.5 0 1 0 0-5 2.5 2.5 0 0 0 0 5ZM45 27.5a3.5 3.5 0 1 1-7 0 3.5 3.5 0 0 1 7 0Zm-1 0a2.5 2.5 0 1 1-5 0 2.5 2.5 0 0 1 5 0ZM30.5 24v1H32v6h1v-6h1.5v-1h-4Zm6.5 0h-1v7h1v-7Z" fill="rgb(37, 92, 107)" fill-rule="evenodd"/>
</svg>
