<!-- by Finnhub --><svg width="56" height="56" viewBox="0 0 56 56" fill="none" xmlns="http://www.w3.org/2000/svg">
<rect width="56" height="56" fill="#013B3E"/>
<path d="M14.1083 31H12.8945C11.9625 30.7855 11.3688 30.2314 11.1134 29.3377C10.7161 27.9451 11.371 26.3469 12.943 26.0543C14.0597 25.8464 15.0782 26.2381 15.6365 27.1829C16.4767 28.6047 15.8165 30.5871 14.1083 31ZM15.2653 28.8384C15.3043 28.2356 15.1701 27.6738 14.8626 27.1531C14.4168 26.3996 13.5032 26.032 12.679 26.4797C11.159 27.306 11.4823 30.4984 13.3019 30.7389C14.5103 30.8986 15.1989 29.8685 15.2653 28.8384Z" fill="white"/>
<path d="M37.6307 30.996H36.5542C33.7801 30.3663 34.1021 26.2473 36.8792 26.0117C37.4954 25.9594 38.0647 26.0828 38.5871 26.3817C38.6106 26.3955 38.6209 26.3894 38.618 26.3634V26H38.9534C38.9838 26 38.9989 26.0626 38.9989 26.0912V27.6281C38.9989 27.6521 38.9864 27.6642 38.9613 27.6642H38.7442C38.7224 27.6642 38.7104 27.6537 38.7084 27.6327C38.5944 26.4 37.1885 25.8858 36.1909 26.6311C35.0549 27.4794 35.0658 29.5769 36.2831 30.3686C37.1418 30.9274 38.3336 30.6711 38.9607 29.9024C38.9745 29.8856 38.99 29.8839 39.0074 29.8972L39.156 30.0116C39.1734 30.0254 39.1756 30.0408 39.1627 30.058C38.7846 30.5587 38.274 30.8713 37.6307 30.996Z" fill="white"/>
<path d="M50.7115 31.0045H49.635L48.9145 30.7557C48.8906 30.7473 48.8787 30.7551 48.8787 30.7791L48.8769 31.0045H48.3158L48.3189 29.4287C48.3189 29.402 48.333 29.3886 48.3613 29.3886H48.7774C48.8029 29.3886 48.8184 29.4002 48.8241 29.4235C48.986 30.1008 49.3881 30.528 50.1547 30.5458C51.0469 30.5664 51.3865 29.6546 50.4513 29.2736C49.6265 28.9373 48.4456 28.6056 48.237 27.6389C48.0866 26.9433 48.4857 26.2918 49.2256 26.0956C49.8677 25.9256 50.4925 25.9944 51.1003 26.3021C51.1209 26.3124 51.13 26.3067 51.1275 26.285L51.1063 26.0882C51.1043 26.0672 51.1144 26.0567 51.1366 26.0567H51.64C51.6704 26.0567 51.6855 26.071 51.6855 26.0996V27.644C51.6855 27.6631 51.6754 27.6726 51.6552 27.6726H51.2282C51.1999 27.6726 51.1837 27.6593 51.1797 27.6326C50.8953 25.8354 48.4741 26.5555 49.3354 27.5176C49.5931 27.8048 50.2439 28.0198 50.68 28.1926C51.3198 28.4454 51.9833 28.9058 51.9997 29.6237C52.0167 30.3902 51.446 30.83 50.7115 31.0045Z" fill="white"/>
<path d="M20.4688 28.7513C20.5282 28.7991 20.5919 28.8468 20.6344 28.91C20.9708 29.4076 21.3047 29.9066 21.6363 30.407C21.7762 30.6186 21.9881 30.7331 22.2719 30.7504C22.2913 30.7516 22.301 30.7614 22.301 30.7799V30.9558C22.301 30.9853 22.2858 31 22.2555 31H21.4052C21.385 31 21.3672 30.9933 21.3518 30.9799C21.1634 30.8151 21.0003 30.6292 20.8624 30.4223C20.5559 29.9613 20.2561 29.4959 19.963 29.0262C19.9403 28.99 19.8801 28.9171 19.7822 28.8073C19.7701 28.7939 19.755 28.7873 19.7368 28.7873H19.3001C19.2811 28.7873 19.2716 28.7967 19.2716 28.8156L19.2619 30.6672C19.2619 30.6853 19.2714 30.694 19.2904 30.6932H19.6996C19.7267 30.6916 19.7689 30.6829 19.7689 30.7097V30.9558C19.7689 30.9853 19.7537 31 19.7234 31H18.1617C18.1314 31 18.1162 30.9853 18.1162 30.9558V30.7823C18.1162 30.7638 18.1255 30.7528 18.1441 30.7492C18.2411 30.7303 18.3576 30.7197 18.437 30.666C18.5531 30.5885 18.6111 30.4933 18.6111 30.3804C18.6152 29.0382 18.6182 27.696 18.6202 26.3538C18.6202 26.3314 18.6089 26.3208 18.5862 26.3219L18.1496 26.3426C18.1273 26.3438 18.1162 26.3335 18.1162 26.3119V26.0605C18.1162 26.0381 18.1277 26.0012 18.1508 26H20.2232C21.1141 26.0549 21.874 26.4895 21.754 27.492C21.6612 28.2704 21.1456 28.4952 20.4773 28.7088C20.4486 28.7182 20.4457 28.7324 20.4688 28.7513ZM19.3037 28.4887C20.2838 28.6167 21.2809 28.1836 21.0171 27.0513C20.8727 26.4335 20.2893 26.2859 19.7228 26.2942C19.3189 26.3001 19.2734 26.5503 19.271 26.8943C19.2673 27.4124 19.2669 27.9313 19.2698 28.4509C19.2698 28.4733 19.2811 28.4859 19.3037 28.4887Z" fill="white"/>
<path d="M8.36268 31H7.9533L4.85091 27.0111C4.84855 27.008 4.84521 27.0057 4.8414 27.0045C4.83759 27.0034 4.83349 27.0034 4.8297 27.0047C4.82591 27.0059 4.82264 27.0083 4.82034 27.0114C4.81805 27.0146 4.81686 27.0184 4.81695 27.0222L4.83817 30.6645C4.83817 30.684 4.84848 30.6934 4.8691 30.6926L5.30881 30.6709C5.3359 30.6698 5.34945 30.6823 5.34945 30.7084V30.9522C5.34945 30.9815 5.33428 30.9961 5.30396 30.9961H4.04549C4.01516 30.9961 4 30.9815 4 30.9522V30.7797C4 30.7567 4.01193 30.7452 4.03578 30.7452C4.42515 30.7452 4.48459 30.406 4.48459 30.0949C4.4854 28.8591 4.4854 27.5688 4.48459 26.3333C4.48459 26.3131 4.47428 26.3035 4.45366 26.3047L4.04124 26.3257C4.01375 26.3273 4 26.3148 4 26.2883V26.0439C4 26.0146 4.01516 26 4.04549 26H4.84606C4.86668 26 4.88305 26.008 4.89518 26.024L7.95148 29.9363C7.98342 29.978 7.9996 29.9729 8 29.9211L8.00204 26.3491C8.00284 26.3324 7.99435 26.3244 7.97656 26.3251H7.53482C7.51299 26.3259 7.50207 26.3158 7.50207 26.2947V26.0292C7.50207 26.0097 7.51218 26 7.53239 26H8.82907C8.85455 26 8.86728 26.0123 8.86728 26.0368L8.86607 26.2205C8.86567 26.247 8.85172 26.2602 8.82422 26.2602C8.43546 26.2579 8.36511 26.5145 8.36268 26.8403V31Z" fill="white"/>
<path d="M24.2889 26.3419H23.8669C23.8394 26.3435 23.8257 26.3309 23.8257 26.3042V26.0546C23.8257 26.0279 23.8394 26.0145 23.8669 26.0145C25.559 26.0098 28.0796 25.7201 28.4817 27.9745C28.7789 29.6372 27.6624 30.9506 25.929 30.9831C25.2424 30.9961 24.5557 31.0016 23.8687 30.9996C23.84 30.9996 23.8257 30.9856 23.8257 30.9577V30.7789C23.8257 30.7514 23.8398 30.7374 23.8681 30.737C24.1714 30.7323 24.3232 30.5872 24.3236 30.3016C24.3264 29.1133 24.3273 27.9248 24.326 26.7361V26.3419C24.3228 26.3187 24.3128 26.3408 24.2889 26.3419ZM24.9998 26.8092V30.7123H25.8204C27.4313 30.5943 28.133 29.0077 27.6715 27.64C27.3336 26.6381 26.3529 26.1938 25.3292 26.2989C25.0508 26.3278 25.001 26.5573 24.9998 26.8092Z" fill="white"/>
<path d="M31.3221 26.3299H30.8894C30.8619 26.3315 30.8481 26.3188 30.8481 26.292V26.0373C30.8481 26.0124 30.8607 26 30.8857 26H32.4705C32.4907 26 32.5008 26.0099 32.5008 26.0296V26.2197C32.5008 26.2411 32.4899 26.2523 32.4681 26.2535C32.1499 26.2693 31.9936 26.4414 31.9993 26.77V30.6754H32.4602C32.4873 30.6742 32.5008 30.6868 32.5008 30.7133V30.9674C32.5008 30.9923 32.4883 31.0047 32.4632 31.0047H30.8857C30.8607 31.0047 30.8481 30.9923 30.8481 30.9674V30.7968C30.8481 30.7708 30.8613 30.7569 30.8876 30.7554C31.1908 30.7332 31.343 30.5562 31.3443 30.2241C31.3491 28.929 31.3511 27.6341 31.3503 26.3394C31.3503 26.3181 31.3435 26.3291 31.3221 26.3299Z" fill="white"/>
<path d="M44.178 31.0045H42.965C41.8382 30.7724 41.5228 29.88 41.5149 28.8824C41.5088 28.1148 41.5115 27.3472 41.5228 26.5796C41.5232 26.5566 41.5117 26.5457 41.4882 26.5469L41.0382 26.5644C41.0111 26.5656 40.9976 26.5529 40.9976 26.5264V26.0487C40.9976 26.0194 41.0127 26.0048 41.043 26.0048H43.0445C43.0748 26.0048 43.09 26.0194 43.09 26.0487V26.4463C43.09 26.4728 43.0762 26.4867 43.0487 26.4878C42.741 26.4995 42.5852 26.6637 42.5811 26.9802C42.5726 27.664 42.5698 28.3476 42.5726 29.031C42.5757 29.7116 42.7837 30.3736 43.5812 30.4958C44.585 30.6496 44.9945 29.8613 45 29.0351L45.004 26.5767C45.004 26.5561 44.9933 26.5461 44.9719 26.5469L44.5031 26.565C44.4808 26.5658 44.4697 26.5555 44.4697 26.534V26.0487C44.4697 26.0194 44.4849 26.0048 44.5152 26.0048H46.1376C46.1578 26.0048 46.1679 26.0146 46.1679 26.0341V26.4557C46.1679 26.4798 46.1554 26.4921 46.1303 26.4925C45.8121 26.4995 45.6524 26.6598 45.6512 26.9732C45.6492 27.6297 45.6492 28.2864 45.6512 28.9432C45.6542 29.9151 45.2448 30.7905 44.178 31.0045Z" fill="white"/>
</svg>
