<?xml version="1.0" encoding="UTF-8"?>
<!-- generated by Finnhub -->
<svg viewBox="0 0 55.5 55.5" xmlns="http://www.w3.org/2000/svg">
<path d="M 0,0 H 55.5 V 55.5 H 0 Z" fill="rgb(239, 242, 248)"/>
<path d="M 11.99,26.985 V 20 H 11 V 24.77 L 7.99,20 H 7 V 27 H 8 V 22.23 L 11.02,27 H 12 Z M 12,36 V 29 H 16.32 V 30 H 13 V 32 H 16 V 33 H 13 V 35 H 16.34 V 36 H 12 Z M 22,29 V 36 H 21.02 L 18,31.23 V 36 H 17 V 29 H 17.99 L 21,33.77 V 29 H 22 Z M 23,29 V 36 H 27 V 35 H 24 V 33 H 26.77 V 32 H 24 V 30 H 26.98 V 29 H 23 Z M 37.7,31.27 C 37.48,30.54 36.86,30 36.11,30 C 34.81,30 34,31.34 34,32.5 C 34,33.67 34.8,35 36.14,35 C 37.02,35 37.7,34.36 37.8,33.5 H 36 V 32.5 H 39 V 33.16 A 2.76,2.76 0 0,1 36.13,36 C 34.14,36 33,34.38 33,32.5 C 33,30.67 34.13,29 36.1,29 C 37.46,29 38.73,29.87 38.94,31.27 H 37.7 Z M 40.36,29 H 39 L 41.5,33.31 V 36 H 42.5 V 33.31 L 45.03,29 H 43.67 L 42.05,32.04 H 41.98 L 40.36,29 Z M 28,36 V 29 H 30.3 C 31.65,29 32.5,29.86 32.5,31.24 C 32.5,32.16 32.2,32.83 31.6,33.17 L 33.08,36 H 31.74 L 30.44,33.44 H 29 V 36 H 28 Z M 30.31,32.38 H 29 V 30 H 30.3 C 31.05,30 31.5,30.45 31.5,31.24 C 31.5,32.03 31.05,32.38 30.31,32.38 Z M 29.4,22 A 0.99,0.99 0 0,0 29.02,21.29 C 28.8,21.12 28.52,21.04 28.16,21.04 C 27.91,21.04 27.7,21.08 27.52,21.16 A 0.95,0.95 0 0,0 27.12,21.48 A 0.79,0.79 0 0,0 27.06,22.3 C 27.13,22.4 27.21,22.5 27.32,22.56 C 27.43,22.64 27.55,22.7 27.69,22.74 C 27.82,22.79 27.95,22.84 28.09,22.87 L 28.7,23.03 C 28.95,23.09 29.19,23.17 29.42,23.27 C 29.65,23.37 29.86,23.5 30.04,23.65 C 30.22,23.81 30.37,24 30.48,24.22 C 30.58,24.44 30.64,24.69 30.64,24.99 C 30.64,25.39 30.54,25.74 30.34,26.04 C 30.14,26.34 29.86,26.58 29.49,26.74 C 29.12,26.92 28.67,27 28.14,27 C 27.63,27 27.19,26.92 26.81,26.75 A 2,2 0 0,1 25.58,25 H 26.75 C 26.77,25.23 26.83,25.32 26.95,25.47 H 26.96 C 27.09,25.64 27.25,25.75 27.45,25.83 C 27.65,25.91 27.87,25.95 28.12,25.95 C 28.38,25.95 28.61,25.91 28.8,25.83 C 29,25.75 29.15,25.63 29.26,25.49 A 0.84,0.84 0 0,0 29.44,24.98 A 0.66,0.66 0 0,0 29.28,24.54 A 1.1,1.1 0 0,0 28.87,24.24 A 3.9,3.9 0 0,0 28.25,24.04 L 27.5,23.84 A 2.98,2.98 0 0,1 26.22,23.18 C 25.91,22.88 25.75,22.49 25.75,22.01 C 25.75,21.61 25.85,21.25 26.07,20.95 C 26.27,20.65 26.57,20.42 26.93,20.25 C 27.29,20.08 27.71,20 28.17,20 C 28.63,20 29.04,20.08 29.39,20.25 C 29.75,20.42 30.02,20.65 30.23,20.95 C 30.43,21.25 30.53,21.62 30.53,22 H 29.4 Z M 31,20 V 21 H 33 V 27 H 34 V 21 H 36 V 20 H 31 Z M 44.17,27 H 42.89 L 45.21,20 H 46.68 L 49,27 H 47.73 L 47.1,25 H 44.8 L 44.17,27 Z M 45.97,21.44 L 46.78,24 H 45.11 L 45.92,21.44 H 45.97 Z M 20,20 V 27 H 21 V 24.5 H 22.44 L 23.7,27 H 25.03 L 23.6,24.21 C 24.2,23.85 24.5,23.15 24.5,22.24 C 24.5,20.86 23.52,20 22.17,20 H 20 Z M 21,23.5 V 21 H 22.28 C 23.03,21 23.5,21.46 23.5,22.24 S 23.03,23.5 22.29,23.5 H 21 Z M 19,23.5 C 19,25.3 17.95,27 16,27 S 13,25.3 13,23.5 S 14.05,20 16,20 S 19,21.7 19,23.5 Z M 18,23.5 C 18,22.38 17.3,21 16,21 S 14,22.38 14,23.5 C 14,24.63 14.7,26 16,26 S 18,24.63 18,23.5 Z M 37,20 V 27 H 38 V 24.5 H 39.44 L 40.7,27 H 42.03 L 40.6,24.21 C 41.2,23.85 41.5,23.15 41.5,22.24 C 41.5,20.86 40.52,20 39.17,20 H 37 Z M 38,23.5 V 21 H 39.28 C 40.03,21 40.5,21.46 40.5,22.24 S 40.03,23.5 39.29,23.5 H 38 Z" fill-rule="evenodd"/>
</svg>
