<?xml version="1.0" encoding="UTF-8"?>
<!-- generated by Finnhub -->
<svg viewBox="0 0 55.5 55.5" xmlns="http://www.w3.org/2000/svg">
<path d="M 0,0 H 55.5 V 55.5 H 0 Z" fill="rgb(239, 242, 248)"/>
<path d="M 28.34,39.335 C 28.98,39.61 29.77,40.52 30.35,41 H 28.35 V 39.35 Z M 27.68,39.34 V 41 H 25.66 C 26.21,40.52 27.05,39.62 27.68,39.34 Z M 28.63,38.59 C 29.11,38.39 30.11,37.51 30.61,37.33 L 31,40.53 C 30.28,39.95 29.13,39.36 28.63,38.59 Z M 25,40.5 L 25.43,37.34 C 25.83,37.42 26.92,38.36 27.4,38.59 A 22,22 0 0,1 25,40.5 Z M 28.53,34.57 C 28.93,34.07 29.58,33.78 29.99,33.28 C 30.23,33.56 30.41,35.81 30.43,36.1 L 28.53,34.57 Z M 25.94,33.3 C 26.22,33.43 27.19,34.28 27.49,34.54 L 25.59,36.07 L 25.94,33.3 Z M 28.5,31 C 28.83,30.66 29.26,30.35 29.68,30.07 L 29.94,32.22 A 5.01,5.01 0 0,1 28.5,31 Z M 26.32,30.08 C 26.72,30.36 27.22,30.61 27.5,31 A 7.46,7.46 0 0,1 26.06,32.22 L 26.32,30.08 Z M 18,43 H 38 V 41 H 33 L 31.55,30 H 33 V 28 H 23 V 30 H 24.45 L 23,41 H 18 V 43 Z M 29.07,17.34 L 29.21,17.53 C 29.36,17.75 29.48,18.04 29.89,18.06 C 30.22,18.08 30.69,17.63 30.83,17.46 C 30.24,18.97 30.09,19.18 30.16,21.03 C 30.11,20.83 30.04,20.76 29.97,20.57 C 29.16,20.91 28.3,22.13 27.99,22.93 C 27.62,23.9 27.45,25.81 28.04,26.63 C 28.82,27.72 30.04,25.76 30.33,25.11 C 31.05,23.48 30.49,22.81 30.34,21.33 C 30.64,22.05 31.39,21.65 31.81,21.26 C 32.21,20.9 32.58,20.46 32.88,19.86 C 33.34,18.94 33.4,16.62 32.83,15.78 C 32.15,16.02 31.68,16.57 31.21,17 C 31.44,16.19 31.97,15.84 31.8,14.28 C 31.7,13.38 31.34,12.22 30.92,11.6 A 5.18,5.18 0 0,0 29.21,13.76 C 28.71,15.22 28.94,15.91 29.07,17.34 Z M 25.66,15.6 L 25.32,15.05 A 5.3,5.3 0 0,0 24.03,13.55 C 23.07,14.57 22.87,16.27 23.21,17.7 C 23.32,18.23 23.51,18.6 23.63,19.06 C 23,18.36 21.85,17.16 20.87,16.94 C 20.67,17.32 20.65,17.87 20.6,18.34 C 20.3,17.29 20.35,17.03 19.62,16.31 A 4.8,4.8 0 0,0 17.54,15.24 C 17.45,16.94 18.04,18.27 19.37,19.04 C 19.55,19.14 19.82,19.28 20.07,19.26 C 20.45,19.25 20.48,19.02 20.63,18.78 C 20.72,19.8 20.9,20.23 21.34,20.98 C 21.67,21.55 22.19,22.24 22.68,22.6 C 23.44,23.13 24.17,23.13 24.3,22.01 C 24.44,20.93 24.14,20.33 23.9,19.45 C 24.76,20.42 25.39,20.48 25.88,18.9 C 26.4,17.18 25.84,16.46 25.66,15.6 Z" fill="rgb(0, 134, 80)"/>
<path d="M 27.36,15.915 C 27.01,16.91 25.32,17.96 26.64,21.96 C 26.4,21.77 25.64,20.78 24.93,20.54 C 24.61,21.54 24.29,22.38 24.56,23.58 C 25.1,25.97 27.21,27.91 27.53,25.35 C 27.6,24.78 27.57,24.13 27.45,23.6 C 27.32,23.01 27.08,22.74 26.85,22.27 C 27.52,22.58 27.6,22.68 28.16,22.12 C 28.52,21.76 28.72,21.38 28.94,20.85 C 29.72,19.05 29.17,16.88 28.01,15.36 C 27.72,15.62 27.61,15.84 27.37,15.93 Z M 16.39,22.29 C 16.81,23.89 18.39,24.95 19.87,25.14 C 20.74,25.24 20.96,25.14 21.27,24.52 C 21.99,26.32 25.56,28.32 24.88,25.59 C 24.38,23.58 22.71,22.46 20.8,22.2 L 20.96,23.8 L 20.94,23.75 C 20.94,23.77 20.9,23.72 20.89,23.7 L 20.62,23.39 A 4.6,4.6 0 0,0 20.22,22.98 C 19.12,22.03 17.15,21.84 16.39,22.28 Z" fill="rgb(0, 134, 80)"/>
<path d="M 25.65,15.584999999999999 C 25.67,15.62 25.69,15.62 25.69,15.64 C 25.69,15.64 26.01,16.2 26.39,16.34 C 26.6,16.43 26.77,16.38 26.91,16.29 L 27.21,16.02 C 27.35,15.92 27.23,16 27.37,15.93 C 27.64,14.93 28.79,13.92 27.55,11.29 C 27.32,10.77 26.98,10.38 26.81,10 H 26.69 C 25.88,11.24 25.13,11.68 25.34,14.04 C 25.39,14.68 25.59,15.09 25.66,15.6 Z M 38.4,23.78 C 37.63,23.2 35.82,23.42 35,23.85 C 34.45,24.13 32.6,25.19 33.13,26.1 C 33.57,26.84 35.73,26.48 36.41,26.04 A 5.53,5.53 0 0,0 38.39,23.78 Z M 16,19.1 V 19.26 C 16.17,19.47 16.29,19.9 16.76,20.52 A 4.47,4.47 0 0,0 19.48,22.07 C 20.31,22.22 20.55,22.15 21.12,21.74 C 21.21,20.73 20.28,19.87 19.48,19.42 C 18.5,18.85 17.18,18.92 16,19.11 Z M 33.83,21.84 C 30.88,21.82 28.93,27.84 32.08,25.92 C 33.42,25.11 34,23.44 33.83,21.84 Z M 33.35,21.62 C 34.44,21.74 35.43,20.9 35.85,20.35 C 36.35,19.73 36.69,18.42 36.69,17.39 C 35.16,17.34 33.81,18.69 33.25,20.09 C 33.03,20.69 32.96,21.14 33.35,21.62 Z M 35.89,22.82 C 36.87,23.27 38.17,22.56 38.71,22.02 A 5.15,5.15 0 0,0 40,19.32 A 4.24,4.24 0 0,0 37.07,20.28 C 36.74,20.6 36.47,20.9 36.21,21.29 C 35.89,21.76 35.72,22.19 35.89,22.82 Z" fill="rgb(0, 134, 80)"/>
<path d="M 36.15,13.504999999999999 C 33.57,14.22 32.86,17.48 33.56,18.08 C 34.16,18.63 35.35,17.41 35.72,16.81 C 36.28,15.93 36.26,14.68 36.16,13.52 Z" fill="rgb(0, 134, 80)"/>
</svg>
