<?xml version="1.0" encoding="UTF-8"?>
<!-- generated by Finnhub -->
<svg viewBox="0 0 55.5 55.5" xmlns="http://www.w3.org/2000/svg">
<path d="M0 0h55.5v55.5H0z" fill="url(#a)"/>
<path d="M27.49 30H23V14h-5.1a1.9 1.9 0 00-1.56 1.13l-5.1 11.98a1.88 1.88 0 000 1.86l5.18 11.98c.16.56.74 1.05 1.31 1.05H32.5l-5.01-12zm1.05-4H33v16h5.1a1.9 1.9 0 001.56-1.13l5.1-11.98c.32-.57.32-1.21 0-1.86l-5.18-11.9C39.33 14.57 39 14 38.27 14H23.53l5.01 12z" fill="rgb(254, 254, 253)"/>
<defs>
<linearGradient id="a" x1="10.42" x2="68.15" y1="9.71" y2="76.02" gradientUnits="userSpaceOnUse">
<stop stop-color="rgb(25, 29, 31)" offset="0"/>
<stop stop-color="rgb(5, 5, 8)" offset="1"/>
</linearGradient>
</defs>
</svg>
