<!-- by Finnhub --><svg xmlns="http://www.w3.org/2000/svg" width="56" height="56" viewBox="0 0 56 56"><path fill="url(#akfz32sxa)" d="M0 0h56v56H0z"/><path d="M8 32v-5.23l4.9 4.72a1.83 1.83 0 0 0 3.1-1.32V24h-2v5.77L8.41 24.4A1.43 1.43 0 0 0 6 25.43V32h2ZM18 26.5a2.5 2.5 0 0 1 2.5-2.5h9v2h-9a.5.5 0 0 0 0 1h7a2.5 2.5 0 0 1 0 5H19v-2h8.5a.5.5 0 0 0 0-1h-7a2.5 2.5 0 0 1-2.5-2.5ZM33.4 24c.39 0 .75.15 1.01.43L41.76 32H39l-2-2h-3v2h-2v-6.6c0-.77.63-1.4 1.4-1.4Zm.6 4.5h1.58L34 26.87v1.63ZM40 24l3.55 6.83A2.19 2.19 0 0 0 45.5 32c.82 0 1.57-.45 1.95-1.17L51 24h-2.28l-3.22 6.18L42.28 24H40Z" fill="#fff"/><defs><linearGradient id="akfz32sxa" x1="10.42" y1="9.71" x2="68.15" y2="76.02" gradientUnits="userSpaceOnUse"><stop stop-color="#1A1E21"/><stop offset="1" stop-color="#06060A"/></linearGradient></defs></svg>