<?xml version="1.0" encoding="UTF-8"?>
<!-- generated by Finnhub -->
<svg viewBox="0 0 55.5 55.5" xmlns="http://www.w3.org/2000/svg">
<path d="M 0,0 H 55.5 V 55.5 H 0 Z" fill="rgb(239, 242, 248)"/>
<path d="M 27.99,28.985 V 36 H 27 V 29 H 28 Z M 37,27 V 20 H 38 V 23 H 42 V 20 H 43 V 27 H 42 V 24 H 38 V 27 H 37 Z M 18,20 V 27 H 17.02 L 14,22 V 27 H 13 V 20 H 13.99 L 17,25 V 20 H 18 Z"/>
<path d="M 21.99,26.985 C 23.66,27 25,25.43 25,23.5 S 23.66,20 22,20 S 19,21.57 19,23.5 S 20.34,27 22,27 Z M 22,26 C 23.1,26 24,24.88 24,23.5 S 23.1,21 22,21 S 20,22.12 20,23.5 S 20.9,26 22,26 Z" fill-rule="evenodd"/>
<path d="M 25.99,26.985 V 20 H 28.45 C 29.8,20 30.76,20.63 30.76,22 C 30.76,23.34 29.96,24 28.44,24 H 26.69 V 23 H 28.4 C 29.14,23 29.68,22.78 29.68,22 S 29.14,21 28.4,21 H 27 V 27 H 26 Z M 29.38,23.83 L 31,27 H 29.85 L 28.26,23.83 H 29.38 Z M 31,21 V 20 H 36 V 21 H 34 V 27 H 33 V 21 H 31 Z M 13,31 C 12.95,30.42 12.6,30 12.04,30 C 11.6,30 11.01,30.3 11,30.93 C 11,31.74 12,31.87 12.47,32.03 C 13.26,32.27 14,32.87 14,33.99 C 14,35.36 13,36 12.02,36 C 10.97,36 10.04,35.42 10,34 H 11 C 11.04,34.72 11.48,34.95 12.02,34.95 C 12.49,34.95 12.99,34.66 13,33.98 C 13,33.42 12.59,33.18 12.12,33.03 C 11.24,32.73 10,32.4 10,31.01 C 10,29.71 11.1,29 12.05,29 C 12.98,29 13.98,29.73 14,31 H 13 Z M 45,31 C 44.95,30.42 44.6,30 44.04,30 C 43.6,30 43.01,30.3 43,30.93 C 43,31.74 44,31.87 44.47,32.03 C 45.26,32.27 46,32.87 46,33.99 C 46,35.36 45,36 44.02,36 C 42.97,36 42.04,35.42 42,34 H 43 C 43.04,34.72 43.48,34.95 44.02,34.95 C 44.49,34.95 44.99,34.66 45,33.98 C 45,33.42 44.59,33.18 44.12,33.03 C 43.24,32.73 42,32.4 42,31.01 C 42,29.71 43.1,29 44.05,29 C 44.98,29 45.98,29.73 46,31 H 45 Z M 15,36 V 29 H 17.45 C 18.8,29 19.76,29.63 19.76,31 C 19.76,32.34 18.96,33 17.44,33 H 15.69 V 32 H 17.4 C 18.14,32 18.68,31.78 18.68,31 S 18.14,30 17.4,30 H 16 V 36 H 15 Z M 21,36 V 29 H 23.45 C 24.8,29 25.76,29.63 25.76,31 C 25.76,32.34 24.96,33 23.44,33 H 21.69 V 32 H 23.4 C 24.14,32 24.68,31.78 24.68,31 S 24.14,30 23.4,30 H 22 V 36 H 21 Z M 24.38,32.83 L 26,36 H 24.85 L 23.26,32.83 H 24.38 Z M 34,29 V 36 H 33.02 L 30,31 V 36 H 29 V 29 H 29.99 L 33,34 V 29 H 34 Z M 39.7,31.27 C 39.48,30.54 38.86,30 38.11,30 C 36.81,30 36,31.34 36,32.5 C 36,33.67 36.8,35 38.14,35 C 39.1,35 39.82,34.24 39.82,33.26 L 40.09,33.31 H 38 V 32.34 H 41 V 33.16 A 2.76,2.76 0 0,1 38.13,36 C 36.14,36 35,34.38 35,32.5 C 35,30.67 36.13,29 38.1,29 C 39.46,29 40.73,29.87 40.94,31.27 H 39.7 Z"/>
</svg>
