<?xml version="1.0" encoding="UTF-8"?>
<!-- generated by Finnhub -->
<svg viewBox="0 0 55.5 55.5" xmlns="http://www.w3.org/2000/svg">
<path d="M 0,0 H 55.5 V 55.5 H 0 Z" fill="rgb(239, 242, 248)"/>
<path d="M 27.99,25.585 V 31 H 27.72 C 24.72,31 21.44,31.73 18.82,25.21 A 60.2,60.2 0 0,1 16.39,17.41 C 11.31,19.77 8,23.63 8,28 C 8,35.18 16.95,41 28,41 C 39.05,41 48,35.18 48,28 C 48,24 45.22,20.42 40.85,18.04 C 40.59,19.01 40.35,19.99 40.11,20.96 A 72.54,72.54 0 0,1 37.19,30.79 C 34.56,37.3 31.29,37.01 28.29,37 H 28 V 31 C 30.61,31 31.45,27.96 32.04,25.35 L 32.07,25.21 C 32.73,22.28 33.57,19.38 34.41,16.48 L 34.62,15.73 A 29.85,29.85 0 0,0 22.87,15.43 A 98.65,98.65 0 0,1 23.96,19.78 C 24.55,22.39 25.39,25.59 28,25.59 Z" fill="rgb(1, 151, 214)"/>
</svg>
