<?xml version="1.0" encoding="UTF-8"?>
<!-- generated by Finnhub -->
<svg viewBox="0 0 55.5 55.5" xmlns="http://www.w3.org/2000/svg">
<path d="M0 0h55.5v55.5H0z" fill="rgb(1, 76, 124)"/>
<path d="M30.2 17.57c-6.25 0-7.84 6.66-7.86 9.99.49-1.54 2.2-4.62 5.2-4.6 3.75.04 6.76 5.02 6.79 9.27.03 3.39-1.38 5.48-2.08 6.06 3.74.56 6.61-2.84 7.56-4.56.98-4.56-1.8-16.16-9.61-16.16z" fill="url(#a)"/>
<path d="M16 23.25c.04-7.17 4.31-11.15 6.44-12.25a17.17 17.17 0 00-2.3 8.92c.64 15.13 9.23 18.6 13.28 18.36 3.24-.2 5.61-3.12 6.4-4.56-1.5 9.48-6.98 11.46-9.57 11.27-10.1-.77-14.3-12.78-14.25-21.74z" fill="rgb(254, 254, 253)"/>
<defs>
<linearGradient id="a" x1="25.17" x2="36.83" y1="19.84" y2="37.08" gradientUnits="userSpaceOnUse">
<stop stop-color="rgb(72, 129, 159)" offset="0"/>
<stop stop-color="rgb(209, 216, 227)" offset="1"/>
</linearGradient>
</defs>
</svg>
