<?xml version="1.0" encoding="UTF-8"?>
<!-- generated by Finnhub -->
<svg viewBox="0 0 55.5 55.5" xmlns="http://www.w3.org/2000/svg">
<path d="M 0,0 H 55.5 V 55.5 H 0 Z" fill="url(#d)"/>
<circle cx="18.5" cy="37.5" r="5.5" fill="url(#c)"/>
<circle cx="38" cy="17" r="4" fill="url(#b)"/>
<path d="M 23.59,25.825 C 22.39,24.69 20.5,24.69 18.83,24.69 A 4.84,4.84 0 1,1 23.67,19.85 C 23.67,21.35 23.77,23.04 24.87,24.07 L 30.85,29.73 C 32.43,31.23 34.92,31.15 37.09,31.15 A 5.92,5.92 0 1,1 31.19,37.08 C 31.19,35.12 31.09,32.91 29.67,31.57 L 23.6,25.84 Z" fill="url(#a)"/>
<defs>
<linearGradient id="d" x1="10.42" x2="68.15" y1="9.71" y2="76.02" gradientUnits="userSpaceOnUse">
<stop stop-color="rgb(25, 29, 31)" offset="0"/>
<stop stop-color="rgb(5, 5, 8)" offset="1"/>
</linearGradient>
<linearGradient id="c" x1="21.8" x2="14.1" y1="34.2" y2="40.8" gradientUnits="userSpaceOnUse">
<stop stop-color="rgb(65, 141, 252)" offset="0"/>
<stop stop-color="rgb(45, 81, 251)" offset="1"/>
</linearGradient>
<linearGradient id="b" x1="40.4" x2="34.8" y1="14.6" y2="19.4" gradientUnits="userSpaceOnUse">
<stop stop-color="rgb(149, 249, 152)" offset="0"/>
<stop stop-color="rgb(124, 247, 205)" offset="1"/>
</linearGradient>
<linearGradient id="a" x1="23.13" x2="18.28" y1="18.77" y2="24.68" gradientUnits="userSpaceOnUse">
<stop stop-color="rgb(127, 245, 210)" offset="0"/>
<stop stop-color="rgb(99, 218, 247)" offset="1"/>
</linearGradient>
</defs>
</svg>
