<?xml version="1.0" encoding="UTF-8"?>
<!-- generated by Finnhub -->
<svg viewBox="0 0 55.5 55.5" xmlns="http://www.w3.org/2000/svg">
<path d="M0 0h55.5v55.5H0z" fill="rgb(239, 242, 248)"/>
<path d="M22.07 41.48a6.83 6.83 0 0 0 11.94 0l9.1-15.82c.3-.54.54-1.1.7-1.66h-8.18l-2.2 4h2.98l-6.18 10.65a2.66 2.66 0 0 1-4.63 0L16.63 23.2c-.82-1.4.17-3.2 1.77-3.2h19.03c.77 0 1.4.41 1.75 1H44a6.87 6.87 0 0 0-6.72-6H18.8c-5.27 0-8.53 5.96-5.83 10.66l9.1 15.82Z" fill="url(#b)"/>
<path d="M34.8 24H20.52l2.53 4H26v9.22l1.04 1.42c.41.51 1.7.47 2.05-.08l.86-1.34V28h2.54l2.31-4Z" fill="url(#a)"/>
<defs>
<linearGradient id="b" x1="28.01" x2="28.01" y1="15" y2="45" gradientUnits="userSpaceOnUse">
<stop stop-color="rgb(119, 177, 80)" offset="0"/>
<stop stop-color="rgb(77, 148, 24)" offset=".19"/>
<stop stop-color="rgb(63, 142, 8)" offset=".85"/>
<stop stop-color="rgb(120, 178, 83)" offset="1"/>
</linearGradient>
<linearGradient id="a" x1="27.66" x2="27.66" y1="24" y2="39" gradientUnits="userSpaceOnUse">
<stop stop-color="rgb(149, 147, 147)" offset=".1"/>
<stop stop-color="rgb(196, 192, 199)" offset="1"/>
</linearGradient>
</defs>
</svg>
