<!-- by Finnhub --><svg width="56" height="56" viewBox="0 0 56 56" fill="none" xmlns="http://www.w3.org/2000/svg">
<rect width="56" height="56" fill="#F0F3FA"/>
<path fill-rule="evenodd" clip-rule="evenodd" d="M20.7707 37.1894C23.3515 39.6211 26.7089 40.97 30.1921 40.9747C30.5444 40.9747 30.8855 40.956 31.2243 40.9234C29.2556 41.6646 27.1547 41.9487 25.0691 41.7557C22.9835 41.5627 20.9639 40.8973 19.1521 39.8063C17.3403 38.7152 15.7804 37.225 14.5818 35.4403C13.3833 33.6556 12.5753 31.6198 12.2145 29.4758C11.8537 27.3318 11.949 25.1317 12.4935 23.03C13.0381 20.9284 14.0188 18.9762 15.3667 17.3106C16.7146 15.6451 18.3971 14.3065 20.2958 13.3891C22.1945 12.4716 24.2635 11.9975 26.3573 12C26.7141 12 27.0664 12.0187 27.4164 12.0443C24.0028 12.764 20.9678 14.7757 18.8998 17.6893C16.8319 20.6029 15.8783 24.2109 16.224 27.8138C16.5697 31.4167 18.19 34.7578 20.7707 37.1894ZM33 23C33 24.1046 32.1045 25 31 25C29.8954 25 29 24.1046 29 23C29 21.8954 29.8954 21 31 21C32.1045 21 33 21.8954 33 23ZM23 26C23 27.1046 22.1045 28 21 28C19.8954 28 19 27.1046 19 26C19 24.8954 19.8954 24 21 24C22.1045 24 23 24.8954 23 26ZM25 36C26.1045 36 27 35.1046 27 34C27 32.8955 26.1045 32 25 32C23.8954 32 23 32.8955 23 34C23 35.1046 23.8954 36 25 36ZM28.5 25.5C28.5 26.3284 27.8284 27 27 27C26.1715 27 25.5 26.3284 25.5 25.5C25.5 24.6716 26.1715 24 27 24C27.8284 24 28.5 24.6716 28.5 25.5ZM28 31.5C28.8284 31.5 29.5 30.8284 29.5 30C29.5 29.1716 28.8284 28.5 28 28.5C27.1715 28.5 26.5 29.1716 26.5 30C26.5 30.8284 27.1715 31.5 28 31.5Z" fill="#402E7B"/>
<path fill-rule="evenodd" clip-rule="evenodd" d="M35.2427 18.8182C32.6638 16.3876 29.3088 15.0386 25.8277 15.0323C25.4799 15.0323 25.1389 15.0323 24.8068 15.0649C26.7747 14.3293 28.8736 14.05 30.9564 14.2466C33.0391 14.4433 35.0553 15.111 36.8636 16.2032C38.6718 17.2953 40.2284 18.7853 41.4243 20.5687C42.6201 22.3522 43.4262 24.386 43.7861 26.5275C44.1459 28.669 44.0509 30.8664 43.5076 32.9657C42.9642 35.065 41.9858 37.0153 40.6408 38.68C39.2958 40.3447 37.6168 41.6835 35.7215 42.6025C33.8263 43.5215 31.7606 43.9984 29.6693 44C29.3125 44 28.958 43.9836 28.6079 43.9556C32.019 43.2335 35.0508 41.221 37.1161 38.3081C39.1814 35.3951 40.1332 31.7891 39.7871 28.1884C39.441 24.5877 37.8216 21.2487 35.2427 18.8182ZM25.5 23C27.1569 23 28.5 21.6568 28.5 20C28.5 18.3431 27.1569 17 25.5 17C23.8431 17 22.5 18.3431 22.5 20C22.5 21.6568 23.8431 23 25.5 23ZM32 37C33.6569 37 35 35.6569 35 34C35 32.3431 33.6569 31 32 31C30.3431 31 29 32.3431 29 34C29 35.6569 30.3431 37 32 37ZM25.5 29C25.5 29.8284 24.8284 30.5 24 30.5C23.1716 30.5 22.5 29.8284 22.5 29C22.5 28.1716 23.1716 27.5 24 27.5C24.8284 27.5 25.5 28.1716 25.5 29ZM32.5 29C33.3284 29 34 28.3284 34 27.5C34 26.6716 33.3284 26 32.5 26C31.6716 26 31 26.6716 31 27.5C31 28.3284 31.6716 29 32.5 29Z" fill="#F27228"/>
</svg>
