<?xml version="1.0" encoding="UTF-8"?>
<!-- generated by Finnhub -->
<svg viewBox="0 0 55.5 55.5" xmlns="http://www.w3.org/2000/svg">
<path d="M0 0h55.5v55.5H0z" fill="url(#a)"/>
<path d="M8.52 20 6 36h6.1l1-5.28L16.2 36h2.2l2.32-3.57 1.15-6.9L18.04 20h-.98l-1.2 6.96L13.43 20h-4.9Zm15.73 7.63L18.7 20h7.54l2.68 5 2.82-5h7.96l-5.17 7.85L39.56 36h-7.63l-3-5.14L25.85 36h-6.67l5.06-8.37ZM36.47 26l3.86-6H50v6h-5v10h-4.67L39 34.18V26h-2.53Z" fill="rgb(254, 254, 253)"/>
<defs>
<linearGradient id="a" x1="10.42" x2="68.15" y1="9.71" y2="76.02" gradientUnits="userSpaceOnUse">
<stop stop-color="rgb(25, 29, 31)" offset="0"/>
<stop stop-color="rgb(5, 5, 8)" offset="1"/>
</linearGradient>
</defs>
</svg>
