<?xml version="1.0" encoding="UTF-8"?>
<!-- generated by Finnhub -->
<svg viewBox="0 0 55.5 55.5" xmlns="http://www.w3.org/2000/svg">
<path d="M 0,0 H 55.5 V 55.5 H 0 Z" fill="rgb(239, 242, 248)"/>
<path d="M 36.230000000000004,35.725 C 41.43,33.81 45,29.71 45,24.97 C 45,18.36 38.06,13 29.5,13 C 20.94,13 14,18.36 14,24.97 C 14,31.53 20.85,36.87 29.34,36.93 C 31.19,38.63 35.35,41.63 38.25,40.88 A 7.93,7.93 0 0,0 37.78,40.07 C 37.16,39.09 36.2,37.57 36.2,36.43 C 36.2,36.18 36.22,35.95 36.24,35.74 Z M 34,22 A 1,1 0 0,1 35.02,21 H 38.98 A 1,1 0 0,1 40,22 A 1,1 0 0,1 38.98,23 H 35.02 A 1,1 0 0,1 34,22 Z M 36,28.96 C 36,29.54 36.45,30 37,30 S 38,29.54 38,28.96 V 25.04 C 38,24.46 37.55,24 37,24 S 36,24.46 36,25.04 V 28.96 Z M 23,22.51 C 23,21.68 22.36,21 21.52,21 S 20,21.68 20,22.51 V 29.16 C 20,29.62 20.38,30 20.85,30 H 30.15 C 31.17,30 32,29.17 32,28.15 V 22.43 C 32,21.64 31.3,21 30.5,21 S 29,21.64 29,22.43 V 27.5 A 0.5,0.5 0 0,1 28.5,28 H 27 V 21.97 A 1,1 0 0,0 26,21 A 1,1 0 0,0 25,21.97 V 27.24 C 25,27.66 24.66,28 24.24,28 H 23 V 22.51 Z M 13.29,26 C 13.16,29.52 15.93,36.87 28,38.16 A 11.3,11.3 0 0,1 20.84,39.59 L 20.77,39.65 C 20.2,40.1 17.85,42 15.5,42 L 15.65,41.72 C 16,41.07 16.67,39.82 16.56,38.96 L 16.48,38.91 C 15.57,38.4 11,35.7 11,31.7 C 11,28.83 12.53,26.7 13.29,26 Z" fill="url(#a)" fill-rule="evenodd"/>
<defs>
<linearGradient id="a" x1="13.3" x2="41.31" y1="24.79" y2="34.19" gradientUnits="userSpaceOnUse">
<stop stop-color="rgb(66, 78, 246)" offset="0"/>
<stop stop-color="rgb(215, 63, 241)" offset=".63"/>
<stop stop-color="rgb(250, 128, 75)" offset="1"/>
</linearGradient>
</defs>
</svg>
