<?xml version="1.0" encoding="UTF-8"?>
<!-- generated by Finnhub -->
<svg viewBox="0 0 55.5 55.5" xmlns="http://www.w3.org/2000/svg">
<path d="M 0,0 H 55.5 V 55.5 H 0 Z" fill="rgb(21, 36, 66)"/>
<path d="M 12.99,15.985 C 13.17,17.33 13.5,20.4 13.5,22 C 13.5,23.6 13.17,25.33 13,26 H 15 V 22.5 H 18 L 19.5,26 H 21.5 L 19.5,22 C 20,22 21,21.4 21,19 S 19,16 18,16 H 13 Z M 15,17 V 21 H 18 C 18.5,21 19.5,20.6 19.5,19 S 18.5,17 18,17 H 15 Z" fill="rgb(249, 253, 253)" fill-rule="evenodd"/>
<path d="M 24.49,15.985 H 23 V 23 C 23,24 23.9,26 27.5,26 S 32,24 32,23 V 16 H 30.5 V 23 C 30.5,23.5 30,24.5 27.5,24.5 C 25.5,24.5 24.5,23.5 24.5,23 V 16 Z" fill="rgb(249, 253, 253)"/>
<path d="M 32.99,25.985 H 35 L 35.75,24 H 40.33 L 41,26 H 43 L 39,16 H 37 L 33,26 Z M 39.83,22.5 L 39,20 L 38.5,20.5 L 38,18 L 36.31,22.5 H 39.83 Z" fill="rgb(249, 253, 253)" fill-rule="evenodd"/>
<path d="M 23.99,38.985 C 26.12,39 28,37.08 28,34.5 S 26.12,30 24,30 S 20,31.92 20,34.5 S 21.88,39 24,39 Z M 24,40 C 26.76,40 29,37.54 29,34.5 S 26.76,29 24,29 S 19,31.46 19,34.5 S 21.24,40 24,40 Z" fill="rgb(222, 181, 100)" fill-rule="evenodd"/>
<path d="M 16.459999999999997,38.455 L 17,39 V 35 H 16 V 37.48 A 3.85,3.85 0 0,1 13,39 C 10.88,39 9,37.08 9,34.5 S 10.88,30 13,30 C 13.93,30 14.81,30.37 15.51,31 H 16.86 C 15.94,29.78 14.56,29 13,29 C 10.24,29 8,31.46 8,34.5 S 10.24,40 13,40 C 14.35,40 15.57,39.42 16.47,38.47 Z M 32,29 H 31 C 31.16,32.9 31.18,36.1 31,40 H 38 V 38.5 C 37.6,38.9 37.17,39 37,39 H 32.5 C 32.1,39 32,38.67 32,38.5 V 29 Z" fill="rgb(222, 181, 100)"/>
<path d="M 39.99,28.985 C 40.2,33.3 40.21,35.7 40,40 H 44 C 45.33,40 48,38.5 48,34.5 S 46,29 44,29 H 40 Z M 41,30 V 39 H 44 C 45,39 47,37.7 47,34.5 S 45.5,30 44,30 H 41 Z" fill="rgb(222, 181, 100)" fill-rule="evenodd"/>
</svg>
