<?xml version="1.0" encoding="UTF-8"?>
<!-- generated by Finnhub -->
<svg viewBox="0 0 55.5 55.5" xmlns="http://www.w3.org/2000/svg">
<path d="M 0,0 H 55.5 V 55.5 H 0 Z" fill="rgb(239, 242, 248)"/>
<circle cx="17.09" cy="27.89" r=".47" fill="rgb(250, 138, 12)"/>
<ellipse cx="20.12" cy="22.05" rx=".54" ry=".53" fill="rgb(105, 68, 163)"/>
<ellipse cx="21.44" cy="20.22" rx=".54" ry=".53" fill="rgb(105, 68, 163)"/>
<ellipse cx="23.18" cy="18.33" rx=".54" ry=".53" fill="rgb(105, 68, 163)"/>
<circle cx="24.92" cy="16.46" r=".58" fill="rgb(105, 68, 163)"/>
<circle cx="35.38" cy="13.97" r=".7" fill="rgb(129, 197, 38)"/>
<circle cx="26.69" cy="14.93" r=".58" fill="rgb(105, 68, 163)"/>
<circle cx="28.59" cy="13.68" r=".58" fill="rgb(105, 68, 163)"/>
<circle cx="30.26" cy="12.69" r=".58" fill="rgb(105, 68, 163)"/>
<circle cx="31.81" cy="12.03" r=".66" fill="rgb(105, 68, 163)"/>
<circle cx="33.44" cy="11.66" r=".66" fill="rgb(105, 68, 163)"/>
<circle cx="34.66" cy="11.85" r=".72" fill="rgb(105, 68, 163)"/>
<circle cx="35.55" cy="12.44" r=".72" fill="rgb(105, 68, 163)"/>
<circle cx="36.21" cy="13.4" r=".72" fill="rgb(105, 68, 163)"/>
<circle cx="17.7" cy="26.5" r=".47" fill="rgb(250, 138, 12)"/>
<circle cx="20.66" cy="22.34" r=".55" fill="rgb(129, 197, 38)"/>
<circle cx="21.87" cy="20.77" r=".55" fill="rgb(129, 197, 38)"/>
<circle cx="21.01" cy="22.6" r=".52" fill="rgb(250, 138, 12)"/>
<circle cx="22.23" cy="21.23" r=".52" fill="rgb(250, 138, 12)"/>
<circle cx="23.9" cy="19.99" r=".52" fill="rgb(250, 138, 12)"/>
<circle cx="25.64" cy="18.98" r=".57" fill="rgb(250, 138, 12)"/>
<ellipse cx="27.27" cy="18.04" rx=".67" ry=".66" fill="rgb(250, 138, 12)"/>
<ellipse cx="28.89" cy="17.29" rx=".67" ry=".66" fill="rgb(250, 138, 12)"/>
<ellipse cx="30.58" cy="16.78" rx=".67" ry=".66" fill="rgb(250, 138, 12)"/>
<ellipse cx="32.26" cy="16.37" rx=".67" ry=".66" fill="rgb(250, 138, 12)"/>
<ellipse cx="33.94" cy="16.12" rx=".67" ry=".66" fill="rgb(250, 138, 12)"/>
<ellipse cx="35.6" cy="16.17" rx=".67" ry=".66" fill="rgb(250, 138, 12)"/>
<ellipse cx="17.09" cy="25.43" rx=".61" ry=".6" fill="rgb(105, 68, 163)"/>
<ellipse cx="15.79" cy="26.48" rx=".61" ry=".6" fill="rgb(105, 68, 163)"/>
<circle cx="38.6" cy="17.01" r=".7" fill="rgb(250, 138, 12)"/>
<circle cx="39.24" cy="18.02" r=".68" fill="rgb(250, 138, 12)"/>
<circle cx="39.61" cy="19.2" r=".68" fill="rgb(250, 138, 12)"/>
<ellipse cx="14.52" cy="27.82" rx=".61" ry=".6" fill="rgb(105, 68, 163)"/>
<ellipse cx="13.39" cy="29.25" rx=".61" ry=".6" fill="rgb(105, 68, 163)"/>
<circle cx="12.5" cy="30.76" r=".65" fill="rgb(105, 68, 163)"/>
<circle cx="11.92" cy="32.42" r=".69" fill="rgb(105, 68, 163)"/>
<circle cx="11.69" cy="34.29" r=".69" fill="rgb(105, 68, 163)"/>
<circle cx="11.8" cy="36.02" r=".69" fill="rgb(105, 68, 163)"/>
<ellipse cx="12.42" cy="37.67" rx=".84" ry=".83" fill="rgb(105, 68, 163)"/>
<ellipse cx="13.61" cy="39.39" rx=".84" ry=".83" fill="rgb(105, 68, 163)"/>
<ellipse cx="15.59" cy="40.64" rx=".9" ry=".89" fill="rgb(105, 68, 163)"/>
<ellipse cx="17.85" cy="41.6" rx=".96" ry=".95" fill="rgb(105, 68, 163)"/>
<ellipse cx="20.78" cy="41.97" rx="1.04" ry="1.03" fill="rgb(105, 68, 163)"/>
<ellipse cx="24.09" cy="41.83" rx="1.04" ry="1.03" fill="rgb(105, 68, 163)"/>
<ellipse cx="27.62" cy="40.94" rx="1.04" ry="1.03" fill="rgb(105, 68, 163)"/>
<ellipse cx="31.3" cy="39.77" rx="1.04" ry="1.03" fill="rgb(105, 68, 163)"/>
<ellipse cx="34.72" cy="38" rx="1.1" ry="1.09" fill="rgb(105, 68, 163)"/>
<ellipse cx="37.94" cy="35.89" rx="1.14" ry="1.13" fill="rgb(105, 68, 163)"/>
<ellipse cx="42.48" cy="30.85" rx="1.17" ry="1.16" fill="rgb(105, 68, 163)"/>
<ellipse cx="43.47" cy="28.57" rx="1.05" ry="1.04" fill="rgb(105, 68, 163)"/>
<ellipse cx="44.06" cy="26.38" rx=".94" ry=".93" fill="rgb(105, 68, 163)"/>
<ellipse cx="43.98" cy="24.56" rx=".73" ry=".72" fill="rgb(105, 68, 163)"/>
<circle cx="43.45" cy="23.1" r=".61" fill="rgb(105, 68, 163)"/>
<circle cx="42.32" cy="21.7" r=".61" fill="rgb(105, 68, 163)"/>
<circle cx="40.56" cy="20" r=".61" fill="rgb(129, 197, 38)"/>
<circle cx="41.38" cy="20.97" r=".67" fill="rgb(129, 197, 38)"/>
<circle cx="41.9" cy="22.22" r=".67" fill="rgb(129, 197, 38)"/>
<circle cx="42.15" cy="23.78" r=".85" fill="rgb(129, 197, 38)"/>
<ellipse cx="41.85" cy="25.65" rx=".99" ry=".98" fill="rgb(129, 197, 38)"/>
<ellipse cx="41.25" cy="27.66" rx="1.08" ry="1.07" fill="rgb(129, 197, 38)"/>
<ellipse cx="39.94" cy="29.82" rx="1.14" ry="1.13" fill="rgb(129, 197, 38)"/>
<ellipse cx="38.3" cy="32.08" rx="1.14" ry="1.13" fill="rgb(129, 197, 38)"/>
<ellipse cx="36" cy="34.25" rx="1.05" ry="1.04" fill="rgb(129, 197, 38)"/>
<circle cx="33.56" cy="36.19" r=".9" fill="rgb(129, 197, 38)"/>
<circle cx="30.63" cy="37.85" r=".9" fill="rgb(129, 197, 38)"/>
<circle cx="27.62" cy="39.09" r=".9" fill="rgb(129, 197, 38)"/>
<ellipse cx="14.45" cy="37.71" rx=".8" ry=".79" fill="rgb(129, 197, 38)"/>
<circle cx="13.75" cy="36.43" r=".72" fill="rgb(129, 197, 38)"/>
<ellipse cx="13.52" cy="35.01" rx=".65" ry=".64" fill="rgb(129, 197, 38)"/>
<ellipse cx="13.52" cy="33.6" rx=".65" ry=".64" fill="rgb(129, 197, 38)"/>
<ellipse cx="13.8" cy="32.11" rx=".65" ry=".64" fill="rgb(129, 197, 38)"/>
<ellipse cx="14.44" cy="30.54" rx=".53" ry=".52" fill="rgb(129, 197, 38)"/>
<ellipse cx="15.13" cy="29.22" rx=".53" ry=".52" fill="rgb(129, 197, 38)"/>
<circle cx="15.91" cy="28.22" r=".48" fill="rgb(129, 197, 38)"/>
<circle cx="16.75" cy="27.26" r=".48" fill="rgb(129, 197, 38)"/>
<circle cx="17.42" cy="26" r=".48" fill="rgb(129, 197, 38)"/>
<circle cx="21.38" cy="22.82" r=".48" fill="rgb(129, 197, 38)"/>
<ellipse cx="22.65" cy="21.68" rx=".55" ry=".54" fill="rgb(129, 197, 38)"/>
<ellipse cx="24.31" cy="20.97" rx=".55" ry=".54" fill="rgb(129, 197, 38)"/>
<ellipse cx="25.93" cy="20.38" rx=".55" ry=".54" fill="rgb(129, 197, 38)"/>
<circle cx="27.69" cy="19.88" r=".64" fill="rgb(129, 197, 38)"/>
<circle cx="29.37" cy="19.4" r=".7" fill="rgb(129, 197, 38)"/>
<circle cx="30.97" cy="19.03" r=".7" fill="rgb(129, 197, 38)"/>
<circle cx="32.71" cy="18.77" r=".7" fill="rgb(129, 197, 38)"/>
<circle cx="34.33" cy="18.62" r=".7" fill="rgb(129, 197, 38)"/>
<circle cx="37.06" cy="14.91" r=".7" fill="rgb(129, 197, 38)"/>
<circle cx="37.64" cy="16.37" r=".7" fill="rgb(129, 197, 38)"/>
<circle cx="37.76" cy="17.84" r=".7" fill="rgb(129, 197, 38)"/>
<ellipse cx="37.75" cy="19.4" rx=".81" ry=".8" fill="rgb(129, 197, 38)"/>
<ellipse cx="37.4" cy="21.09" rx=".94" ry=".93" fill="rgb(129, 197, 38)"/>
<circle cx="36.48" cy="14.64" r=".72" fill="rgb(105, 68, 163)"/>
<ellipse cx="36.45" cy="16.16" rx=".85" ry=".84" fill="rgb(105, 68, 163)"/>
<circle cx="36.27" cy="17.92" r="1" fill="rgb(105, 68, 163)"/>
<ellipse cx="35.46" cy="20.16" rx="1.1" ry="1.09" fill="rgb(105, 68, 163)"/>
<ellipse cx="34.44" cy="22.23" rx="1.02" ry="1.01" fill="rgb(105, 68, 163)"/>
<ellipse cx="33.55" cy="24.26" rx=".89" ry=".88" fill="rgb(105, 68, 163)"/>
<ellipse cx="32.61" cy="26.19" rx=".89" ry=".88" fill="rgb(105, 68, 163)"/>
<circle cx="31.65" cy="28.07" r=".85" fill="rgb(105, 68, 163)"/>
<circle cx="30.66" cy="29.73" r=".72" fill="rgb(105, 68, 163)"/>
<ellipse cx="29.63" cy="31.31" rx=".7" ry=".69" fill="rgb(105, 68, 163)"/>
<ellipse cx="28.59" cy="32.77" rx=".63" ry=".62" fill="rgb(105, 68, 163)"/>
<ellipse cx="27.62" cy="34.23" rx=".63" ry=".62" fill="rgb(105, 68, 163)"/>
<ellipse cx="26.67" cy="35.58" rx=".63" ry=".62" fill="rgb(105, 68, 163)"/>
<ellipse cx="25.41" cy="36.73" rx=".63" ry=".62" fill="rgb(105, 68, 163)"/>
<circle cx="17.84" cy="37.35" r=".41" fill="rgb(105, 68, 163)"/>
<circle cx="17.42" cy="36.16" r=".46" fill="rgb(105, 68, 163)"/>
<circle cx="17.06" cy="34.98" r=".46" fill="rgb(105, 68, 163)"/>
<circle cx="16.79" cy="33.82" r=".48" fill="rgb(105, 68, 163)"/>
<circle cx="16.83" cy="32.54" r=".48" fill="rgb(105, 68, 163)"/>
<circle cx="17" cy="31.26" r=".48" fill="rgb(105, 68, 163)"/>
<circle cx="17.28" cy="29.84" r=".48" fill="rgb(105, 68, 163)"/>
<circle cx="17.63" cy="28.65" r=".48" fill="rgb(105, 68, 163)"/>
<circle cx="18.25" cy="27.34" r=".48" fill="rgb(105, 68, 163)"/>
<circle cx="19.13" cy="25.46" r=".48" fill="rgb(105, 68, 163)"/>
<circle cx="19.59" cy="23.54" r=".47" fill="rgb(250, 138, 12)"/>
<circle cx="19.12" cy="23.3" r=".48" fill="rgb(105, 68, 163)"/>
<ellipse cx="36.71" cy="23" rx="1.04" ry="1.03" fill="rgb(129, 197, 38)"/>
<circle cx="35.76" cy="25.06" r=".96" fill="rgb(129, 197, 38)"/>
<circle cx="34.71" cy="27.15" r=".96" fill="rgb(129, 197, 38)"/>
<ellipse cx="33.48" cy="29.04" rx=".95" ry=".94" fill="rgb(129, 197, 38)"/>
<ellipse cx="32.2" cy="30.95" rx=".95" ry=".94" fill="rgb(129, 197, 38)"/>
<ellipse cx="30.72" cy="32.62" rx=".86" ry=".85" fill="rgb(129, 197, 38)"/>
<ellipse cx="29.22" cy="34.21" rx=".75" ry=".74" fill="rgb(129, 197, 38)"/>
<ellipse cx="27.62" cy="35.69" rx=".75" ry=".74" fill="rgb(129, 197, 38)"/>
<ellipse cx="25.92" cy="36.78" rx=".75" ry=".74" fill="rgb(129, 197, 38)"/>
<circle cx="24.39" cy="37.57" r=".63" fill="rgb(129, 197, 38)"/>
<circle cx="22.96" cy="38.15" r=".63" fill="rgb(129, 197, 38)"/>
<circle cx="21.56" cy="38.39" r=".54" fill="rgb(129, 197, 38)"/>
<circle cx="20.22" cy="38.39" r=".54" fill="rgb(129, 197, 38)"/>
<circle cx="18.71" cy="38.15" r=".54" fill="rgb(129, 197, 38)"/>
<circle cx="17.34" cy="37.32" r=".54" fill="rgb(129, 197, 38)"/>
<circle cx="16.49" cy="36.24" r=".54" fill="rgb(129, 197, 38)"/>
<circle cx="16.25" cy="34.91" r=".54" fill="rgb(129, 197, 38)"/>
<circle cx="16.25" cy="33.49" r=".54" fill="rgb(129, 197, 38)"/>
<circle cx="16.35" cy="31.95" r=".54" fill="rgb(129, 197, 38)"/>
<circle cx="16.46" cy="30.56" r=".54" fill="rgb(129, 197, 38)"/>
<ellipse cx="16.87" cy="29.43" rx=".47" ry=".46" fill="rgb(129, 197, 38)"/>
<ellipse cx="17.34" cy="28.36" rx=".47" ry=".46" fill="rgb(129, 197, 38)"/>
<ellipse cx="18.01" cy="26.96" rx=".47" ry=".46" fill="rgb(129, 197, 38)"/>
<ellipse cx="18.94" cy="25.22" rx=".47" ry=".46" fill="rgb(129, 197, 38)"/>
<ellipse cx="33.67" cy="13.76" rx=".66" ry=".65" fill="rgb(129, 197, 38)"/>
<ellipse cx="32.01" cy="13.92" rx=".66" ry=".65" fill="rgb(129, 197, 38)"/>
<ellipse cx="30.49" cy="14.41" rx=".66" ry=".65" fill="rgb(129, 197, 38)"/>
<ellipse cx="28.71" cy="15.23" rx=".66" ry=".65" fill="rgb(129, 197, 38)"/>
<ellipse cx="26.93" cy="16.23" rx=".63" ry=".62" fill="rgb(129, 197, 38)"/>
<ellipse cx="25.12" cy="17.59" rx=".63" ry=".62" fill="rgb(129, 197, 38)"/>
<circle cx="23.5" cy="19.03" r=".55" fill="rgb(129, 197, 38)"/>
<circle cx="38.69" cy="20.61" r=".61" fill="rgb(105, 68, 163)"/>
<circle cx="34.33" cy="20.49" r=".61" fill="rgb(105, 68, 163)"/>
<ellipse cx="39.77" cy="20.61" rx=".84" ry=".83" fill="rgb(250, 138, 12)"/>
<ellipse cx="39.77" cy="22.59" rx="1.09" ry="1.08" fill="rgb(250, 138, 12)"/>
<ellipse cx="39.43" cy="24.37" rx="1.09" ry="1.08" fill="rgb(250, 138, 12)"/>
<ellipse cx="38.59" cy="26.3" rx="1.16" ry="1.15" fill="rgb(250, 138, 12)"/>
<ellipse cx="37.24" cy="28.52" rx="1.16" ry="1.15" fill="rgb(250, 138, 12)"/>
<ellipse cx="35.78" cy="30.52" rx="1.07" ry="1.06" fill="rgb(250, 138, 12)"/>
<ellipse cx="34.12" cy="32.48" rx="1.07" ry="1.06" fill="rgb(250, 138, 12)"/>
<ellipse cx="32.13" cy="34.23" rx="1.07" ry="1.06" fill="rgb(250, 138, 12)"/>
<ellipse cx="29.9" cy="35.89" rx="1.07" ry="1.06" fill="rgb(250, 138, 12)"/>
<ellipse cx="27.5" cy="37.25" rx="1.07" ry="1.06" fill="rgb(250, 138, 12)"/>
<ellipse cx="25.51" cy="38.51" rx="1" ry=".99" fill="rgb(250, 138, 12)"/>
<ellipse cx="23.51" cy="39.07" rx="1" ry=".99" fill="rgb(250, 138, 12)"/>
<circle cx="21.38" cy="39.57" r=".94" fill="rgb(250, 138, 12)"/>
<ellipse cx="19.43" cy="39.5" rx=".88" ry=".87" fill="rgb(250, 138, 12)"/>
<ellipse cx="17.71" cy="38.78" rx=".78" ry=".77" fill="rgb(250, 138, 12)"/>
<circle cx="16.32" cy="37.64" r=".71" fill="rgb(250, 138, 12)"/>
<circle cx="15.36" cy="36.47" r=".69" fill="rgb(250, 138, 12)"/>
<ellipse cx="15.04" cy="35.07" rx=".59" ry=".58" fill="rgb(250, 138, 12)"/>
<ellipse cx="15.04" cy="33.6" rx=".59" ry=".58" fill="rgb(250, 138, 12)"/>
<ellipse cx="15.25" cy="32.06" rx=".59" ry=".58" fill="rgb(250, 138, 12)"/>
<ellipse cx="15.81" cy="30.58" rx=".59" ry=".58" fill="rgb(250, 138, 12)"/>
<circle cx="16.3" cy="29.22" r=".49" fill="rgb(250, 138, 12)"/>
<circle cx="32.69" cy="20.67" r=".57" fill="rgb(105, 68, 163)"/>
<circle cx="31.15" cy="20.89" r=".57" fill="rgb(105, 68, 163)"/>
<circle cx="18.65" cy="24.83" r=".47" fill="rgb(250, 138, 12)"/>
<circle cx="29.66" cy="21.23" r=".57" fill="rgb(105, 68, 163)"/>
<circle cx="28.1" cy="21.46" r=".57" fill="rgb(105, 68, 163)"/>
<circle cx="26.48" cy="21.8" r=".57" fill="rgb(105, 68, 163)"/>
<circle cx="24.92" cy="22.16" r=".57" fill="rgb(105, 68, 163)"/>
<circle cx="23.3" cy="22.65" r=".57" fill="rgb(105, 68, 163)"/>
<circle cx="21.71" cy="23.07" r=".57" fill="rgb(105, 68, 163)"/>
<ellipse cx="40.66" cy="33.48" rx="1.3" ry="1.29" fill="rgb(105, 68, 163)"/>
<circle cx="20.18" cy="23.82" r=".52" fill="rgb(105, 68, 163)"/>
<circle cx="24.6" cy="40.05" r=".9" fill="rgb(129, 197, 38)"/>
<circle cx="21.88" cy="40.52" r=".9" fill="rgb(129, 197, 38)"/>
<circle cx="19.25" cy="40.35" r=".9" fill="rgb(129, 197, 38)"/>
<ellipse cx="17.28" cy="39.86" rx=".8" ry=".79" fill="rgb(129, 197, 38)"/>
<ellipse cx="15.8" cy="38.97" rx=".8" ry=".79" fill="rgb(129, 197, 38)"/>
<circle cx="18.42" cy="24.46" r=".52" fill="rgb(105, 68, 163)"/>
</svg>
