<?xml version="1.0" encoding="UTF-8"?>
<!-- generated by Finnhub -->
<svg viewBox="0 0 55.5 55.5" xmlns="http://www.w3.org/2000/svg">
<path d="M 0,0 H 55.5 V 55.5 H 0 Z" fill="rgb(239, 242, 248)"/>
<path d="M 12.99,12.475 A 0.5,0.5 0 0,1 12.5,12.98 A 0.5,0.5 0 0,1 12,12.49 A 0.5,0.5 0 0,1 12.5,12 C 12.77,12 13,12.22 13,12.49 Z M 18.63,12.49 A 0.5,0.5 0 0,1 18.13,12.98 A 0.5,0.5 0 0,1 17.63,12.49 A 0.5,0.5 0 0,1 18.13,12 C 18.41,12 18.63,12.22 18.63,12.49 Z M 23.77,12.98 A 0.5,0.5 0 0,0 24.27,12.49 A 0.5,0.5 0 0,0 23.77,12 A 0.5,0.5 0 0,0 23.27,12.49 C 23.27,12.76 23.5,12.98 23.77,12.98 Z M 29.91,12.49 A 0.5,0.5 0 0,1 29.41,12.98 A 0.5,0.5 0 0,1 28.91,12.49 A 0.5,0.5 0 0,1 29.41,12 C 29.68,12 29.91,12.22 29.91,12.49 Z M 35.05,12.98 A 0.5,0.5 0 0,0 35.55,12.49 A 0.5,0.5 0 0,0 35.05,12 A 0.5,0.5 0 0,0 34.55,12.49 C 34.55,12.76 34.77,12.98 35.05,12.98 Z M 41.18,12.49 A 0.5,0.5 0 0,1 40.68,12.98 A 0.5,0.5 0 0,1 40.18,12.49 A 0.5,0.5 0 0,1 40.68,12 C 40.96,12 41.18,12.22 41.18,12.49 Z M 13.91,12.98 A 0.5,0.5 0 0,0 14.41,12.49 A 0.5,0.5 0 0,0 13.91,12 A 0.5,0.5 0 0,0 13.41,12.49 C 13.41,12.76 13.63,12.98 13.91,12.98 Z M 20.04,12.49 A 0.5,0.5 0 0,1 19.54,12.98 A 0.5,0.5 0 0,1 19.04,12.49 A 0.5,0.5 0 0,1 19.54,12 C 19.82,12 20.04,12.22 20.04,12.49 Z M 25.18,12.98 A 0.5,0.5 0 0,0 25.68,12.49 A 0.5,0.5 0 0,0 25.18,12 A 0.5,0.5 0 0,0 24.68,12.49 C 24.68,12.76 24.91,12.98 25.18,12.98 Z M 31.32,12.49 A 0.5,0.5 0 0,1 30.82,12.98 A 0.5,0.5 0 0,1 30.32,12.49 A 0.5,0.5 0 0,1 30.82,12 C 31.09,12 31.32,12.22 31.32,12.49 Z M 36.46,12.98 A 0.5,0.5 0 0,0 36.96,12.49 A 0.5,0.5 0 0,0 36.46,12 A 0.5,0.5 0 0,0 35.96,12.49 C 35.96,12.76 36.18,12.98 36.46,12.98 Z M 42.59,12.49 A 0.5,0.5 0 0,1 42.09,12.98 A 0.5,0.5 0 0,1 41.59,12.49 A 0.5,0.5 0 0,1 42.09,12 C 42.37,12 42.59,12.22 42.59,12.49 Z M 15.32,12.98 A 0.5,0.5 0 0,0 15.82,12.49 A 0.5,0.5 0 0,0 15.32,12 A 0.5,0.5 0 0,0 14.82,12.49 C 14.82,12.76 15.04,12.98 15.32,12.98 Z M 21.45,12.49 A 0.5,0.5 0 0,1 20.95,12.98 A 0.5,0.5 0 0,1 20.45,12.49 A 0.5,0.5 0 0,1 20.95,12 C 21.23,12 21.45,12.22 21.45,12.49 Z M 26.59,12.98 A 0.5,0.5 0 0,0 27.09,12.49 A 0.5,0.5 0 0,0 26.59,12 A 0.5,0.5 0 0,0 26.09,12.49 C 26.09,12.76 26.32,12.98 26.59,12.98 Z M 32.73,12.49 A 0.5,0.5 0 0,1 32.23,12.98 A 0.5,0.5 0 0,1 31.73,12.49 A 0.5,0.5 0 0,1 32.23,12 C 32.5,12 32.73,12.22 32.73,12.49 Z M 37.87,12.98 A 0.5,0.5 0 0,0 38.37,12.49 A 0.5,0.5 0 0,0 37.87,12 A 0.5,0.5 0 0,0 37.37,12.49 C 37.37,12.76 37.59,12.98 37.87,12.98 Z M 44,12.49 A 0.5,0.5 0 0,1 43.5,12.98 A 0.5,0.5 0 0,1 43,12.49 A 0.5,0.5 0 0,1 43.5,12 C 43.78,12 44,12.22 44,12.49 Z M 16.73,12.98 A 0.5,0.5 0 0,0 17.23,12.49 A 0.5,0.5 0 0,0 16.73,12 A 0.5,0.5 0 0,0 16.23,12.49 C 16.23,12.76 16.45,12.98 16.73,12.98 Z M 22.86,12.49 A 0.5,0.5 0 0,1 22.36,12.98 A 0.5,0.5 0 0,1 21.86,12.49 A 0.5,0.5 0 0,1 22.36,12 C 22.64,12 22.86,12.22 22.86,12.49 Z M 28,12.98 A 0.5,0.5 0 0,0 28.5,12.49 A 0.5,0.5 0 0,0 28,12 A 0.5,0.5 0 0,0 27.5,12.49 C 27.5,12.76 27.73,12.98 28,12.98 Z M 34.13,12.49 A 0.5,0.5 0 0,1 33.63,12.98 A 0.5,0.5 0 0,1 33.14,12.49 A 0.5,0.5 0 0,1 33.64,12 C 33.91,12 34.14,12.22 34.14,12.49 Z M 39.27,12.98 A 0.5,0.5 0 0,0 39.77,12.49 A 0.5,0.5 0 0,0 39.27,12 A 0.5,0.5 0 0,0 38.77,12.49 C 38.77,12.76 39,12.98 39.27,12.98 Z M 13,43.51 A 0.5,0.5 0 0,1 12.5,44 A 0.5,0.5 0 0,1 12,43.51 A 0.5,0.5 0 0,1 12.5,43.02 C 12.77,43.02 13,43.24 13,43.51 Z M 18.63,43.51 A 0.5,0.5 0 0,1 18.13,44 A 0.5,0.5 0 0,1 17.63,43.51 A 0.5,0.5 0 0,1 18.13,43.02 C 18.41,43.02 18.63,43.24 18.63,43.51 Z M 23.77,44 A 0.5,0.5 0 0,0 24.27,43.51 A 0.5,0.5 0 0,0 23.77,43.02 A 0.5,0.5 0 0,0 23.27,43.51 C 23.27,43.78 23.5,44 23.77,44 Z M 29.91,43.51 A 0.5,0.5 0 0,1 29.41,44 A 0.5,0.5 0 0,1 28.91,43.51 A 0.5,0.5 0 0,1 29.41,43.02 C 29.68,43.02 29.91,43.24 29.91,43.51 Z M 35.05,44 A 0.5,0.5 0 0,0 35.55,43.51 A 0.5,0.5 0 0,0 35.05,43.02 A 0.5,0.5 0 0,0 34.55,43.51 C 34.55,43.78 34.77,44 35.05,44 Z M 41.18,43.51 A 0.5,0.5 0 0,1 40.68,44 A 0.5,0.5 0 0,1 40.18,43.51 A 0.5,0.5 0 0,1 40.68,43.02 C 40.96,43.02 41.18,43.24 41.18,43.51 Z M 13.91,44 A 0.5,0.5 0 0,0 14.41,43.51 A 0.5,0.5 0 0,0 13.91,43.02 A 0.5,0.5 0 0,0 13.41,43.51 C 13.41,43.78 13.63,44 13.91,44 Z M 20.04,43.51 A 0.5,0.5 0 0,1 19.54,44 A 0.5,0.5 0 0,1 19.04,43.51 A 0.5,0.5 0 0,1 19.54,43.02 C 19.82,43.02 20.04,43.24 20.04,43.51 Z M 25.18,44 A 0.5,0.5 0 0,0 25.68,43.51 A 0.5,0.5 0 0,0 25.18,43.02 A 0.5,0.5 0 0,0 24.68,43.51 C 24.68,43.78 24.91,44 25.18,44 Z M 31.32,43.51 A 0.5,0.5 0 0,1 30.82,44 A 0.5,0.5 0 0,1 30.32,43.51 A 0.5,0.5 0 0,1 30.82,43.02 C 31.09,43.02 31.32,43.24 31.32,43.51 Z M 36.46,44 A 0.5,0.5 0 0,0 36.96,43.51 A 0.5,0.5 0 0,0 36.46,43.02 A 0.5,0.5 0 0,0 35.96,43.51 C 35.96,43.78 36.18,44 36.46,44 Z M 42.59,43.51 A 0.5,0.5 0 0,1 42.09,44 A 0.5,0.5 0 0,1 41.59,43.51 A 0.5,0.5 0 0,1 42.09,43.02 C 42.37,43.02 42.59,43.24 42.59,43.51 Z M 15.32,44 A 0.5,0.5 0 0,0 15.82,43.51 A 0.5,0.5 0 0,0 15.32,43.02 A 0.5,0.5 0 0,0 14.82,43.51 C 14.82,43.78 15.04,44 15.32,44 Z M 21.45,43.51 A 0.5,0.5 0 0,1 20.95,44 A 0.5,0.5 0 0,1 20.45,43.51 A 0.5,0.5 0 0,1 20.95,43.02 C 21.23,43.02 21.45,43.24 21.45,43.51 Z M 26.59,44 A 0.5,0.5 0 0,0 27.09,43.51 A 0.5,0.5 0 0,0 26.59,43.02 A 0.5,0.5 0 0,0 26.09,43.51 C 26.09,43.78 26.32,44 26.59,44 Z M 32.73,43.51 A 0.5,0.5 0 0,1 32.23,44 A 0.5,0.5 0 0,1 31.73,43.51 A 0.5,0.5 0 0,1 32.23,43.02 C 32.5,43.02 32.73,43.24 32.73,43.51 Z M 37.87,44 A 0.5,0.5 0 0,0 38.37,43.51 A 0.5,0.5 0 0,0 37.87,43.02 A 0.5,0.5 0 0,0 37.37,43.51 C 37.37,43.78 37.59,44 37.87,44 Z M 44,43.51 A 0.5,0.5 0 0,1 43.5,44 A 0.5,0.5 0 0,1 43,43.51 A 0.5,0.5 0 0,1 43.5,43.02 C 43.78,43.02 44,43.24 44,43.51 Z M 16.73,44 A 0.5,0.5 0 0,0 17.23,43.51 A 0.5,0.5 0 0,0 16.73,43.02 A 0.5,0.5 0 0,0 16.23,43.51 C 16.23,43.78 16.45,44 16.73,44 Z M 22.86,43.51 A 0.5,0.5 0 0,1 22.36,44 A 0.5,0.5 0 0,1 21.86,43.51 A 0.5,0.5 0 0,1 22.36,43.02 C 22.64,43.02 22.86,43.24 22.86,43.51 Z M 28,44 A 0.5,0.5 0 0,0 28.5,43.51 A 0.5,0.5 0 0,0 28,43.02 A 0.5,0.5 0 0,0 27.5,43.51 C 27.5,43.78 27.73,44 28,44 Z M 34.13,43.51 A 0.5,0.5 0 0,1 33.63,44 A 0.5,0.5 0 0,1 33.14,43.51 A 0.5,0.5 0 0,1 33.64,43.02 C 33.91,43.02 34.14,43.24 34.14,43.51 Z M 39.27,44 A 0.5,0.5 0 0,0 39.77,43.51 A 0.5,0.5 0 0,0 39.27,43.02 A 0.5,0.5 0 0,0 38.77,43.51 C 38.77,43.78 39,44 39.27,44 Z M 13,42.19 A 0.5,0.5 0 0,0 12.5,41.7 A 0.5,0.5 0 0,0 12,42.19 C 12,42.46 12.22,42.68 12.5,42.68 A 0.5,0.5 0 0,0 13,42.19 Z M 12.5,38.87 C 12.77,38.87 13,39.09 13,39.37 A 0.5,0.5 0 0,1 12.5,39.85 A 0.5,0.5 0 0,1 12,39.36 A 0.5,0.5 0 0,1 12.5,38.87 Z M 12.5,33.22 C 12.77,33.22 13,33.44 13,33.71 A 0.5,0.5 0 0,1 12.5,34.2 A 0.5,0.5 0 0,1 12,33.7 A 0.5,0.5 0 0,1 12.5,33.22 Z M 13,28.05 A 0.5,0.5 0 0,0 12.5,27.56 A 0.5,0.5 0 0,0 12,28.05 C 12,28.32 12.22,28.54 12.5,28.54 A 0.5,0.5 0 0,0 13,28.05 Z M 12.5,21.9 C 12.77,21.9 13,22.12 13,22.4 A 0.5,0.5 0 0,1 12.5,22.88 A 0.5,0.5 0 0,1 12,22.39 A 0.5,0.5 0 0,1 12.5,21.9 Z M 13,16.74 A 0.5,0.5 0 0,0 12.5,16.24 A 0.5,0.5 0 0,0 12,16.74 C 12,17.01 12.22,17.23 12.5,17.23 A 0.5,0.5 0 0,0 13,16.73 Z M 12.5,37.46 C 12.77,37.46 13,37.68 13,37.95 A 0.5,0.5 0 0,1 12.5,38.44 A 0.5,0.5 0 0,1 12,37.94 A 0.5,0.5 0 0,1 12.5,37.46 Z M 13,32.29 A 0.5,0.5 0 0,0 12.5,31.8 A 0.5,0.5 0 0,0 12,32.3 C 12,32.56 12.22,32.78 12.5,32.78 A 0.5,0.5 0 0,0 13,32.29 Z M 12.5,26.15 C 12.77,26.15 13,26.37 13,26.64 A 0.5,0.5 0 0,1 12.5,27.13 A 0.5,0.5 0 0,1 12,26.63 A 0.5,0.5 0 0,1 12.5,26.15 Z M 13,20.98 A 0.5,0.5 0 0,0 12.5,20.49 A 0.5,0.5 0 0,0 12,20.98 C 12,21.25 12.22,21.47 12.5,21.47 A 0.5,0.5 0 0,0 13,20.98 Z M 12.5,14.83 C 12.77,14.83 13,15.05 13,15.33 A 0.5,0.5 0 0,1 12.5,15.81 A 0.5,0.5 0 0,1 12,15.32 A 0.5,0.5 0 0,1 12.5,14.83 Z M 12.5,36.04 C 12.77,36.04 13,36.26 13,36.54 A 0.5,0.5 0 0,1 12.5,37.02 A 0.5,0.5 0 0,1 12,36.53 A 0.5,0.5 0 0,1 12.5,36.04 Z M 13,30.88 A 0.5,0.5 0 0,0 12.5,30.38 A 0.5,0.5 0 0,0 12,30.88 C 12,31.15 12.22,31.37 12.5,31.37 A 0.5,0.5 0 0,0 13,30.87 Z M 12.5,24.73 C 12.77,24.73 13,24.95 13,25.23 A 0.5,0.5 0 0,1 12.5,25.71 A 0.5,0.5 0 0,1 12,25.22 A 0.5,0.5 0 0,1 12.5,24.73 Z M 13,19.57 A 0.5,0.5 0 0,0 12.5,19.07 A 0.5,0.5 0 0,0 12,19.57 C 12,19.84 12.22,20.06 12.5,20.06 A 0.5,0.5 0 0,0 13,19.56 Z M 12.5,13.42 C 12.77,13.42 13,13.64 13,13.91 A 0.5,0.5 0 0,1 12.5,14.4 A 0.5,0.5 0 0,1 12,13.91 A 0.5,0.5 0 0,1 12.5,13.42 Z M 13,40.78 A 0.5,0.5 0 0,0 12.5,40.28 A 0.5,0.5 0 0,0 12,40.78 C 12,41.05 12.22,41.27 12.5,41.27 A 0.5,0.5 0 0,0 13,40.77 Z M 12.5,34.63 C 12.77,34.63 13,34.85 13,35.12 A 0.5,0.5 0 0,1 12.5,35.61 A 0.5,0.5 0 0,1 12,35.12 A 0.5,0.5 0 0,1 12.5,34.63 Z M 13,29.46 A 0.5,0.5 0 0,0 12.5,28.97 A 0.5,0.5 0 0,0 12,29.47 C 12,29.73 12.22,29.95 12.5,29.95 A 0.5,0.5 0 0,0 13,29.46 Z M 12.5,23.32 C 12.77,23.32 13,23.54 13,23.81 A 0.5,0.5 0 0,1 12.5,24.3 A 0.5,0.5 0 0,1 12,23.8 A 0.5,0.5 0 0,1 12.5,23.32 Z M 13,18.15 A 0.5,0.5 0 0,0 12.5,17.66 A 0.5,0.5 0 0,0 12,18.16 C 12,18.42 12.22,18.64 12.5,18.64 A 0.5,0.5 0 0,0 13,18.15 Z M 44,42.19 A 0.5,0.5 0 0,0 43.5,41.7 A 0.5,0.5 0 0,0 43,42.19 C 43,42.46 43.23,42.68 43.5,42.68 A 0.5,0.5 0 0,0 44,42.19 Z M 43.5,38.87 C 43.78,38.87 44,39.09 44,39.37 A 0.5,0.5 0 0,1 43.5,39.85 A 0.5,0.5 0 0,1 43,39.36 A 0.5,0.5 0 0,1 43.5,38.87 Z M 43.5,33.22 C 43.78,33.22 44,33.44 44,33.71 A 0.5,0.5 0 0,1 43.5,34.2 A 0.5,0.5 0 0,1 43,33.7 A 0.5,0.5 0 0,1 43.5,33.22 Z M 44,28.05 A 0.5,0.5 0 0,0 43.5,27.56 A 0.5,0.5 0 0,0 43,28.05 C 43,28.32 43.23,28.54 43.5,28.54 A 0.5,0.5 0 0,0 44,28.05 Z M 43.5,21.9 C 43.78,21.9 44,22.12 44,22.4 A 0.5,0.5 0 0,1 43.5,22.88 A 0.5,0.5 0 0,1 43,22.39 A 0.5,0.5 0 0,1 43.5,21.9 Z M 44,16.74 A 0.5,0.5 0 0,0 43.5,16.24 A 0.5,0.5 0 0,0 43,16.74 C 43,17.01 43.23,17.23 43.5,17.23 A 0.5,0.5 0 0,0 44,16.73 Z M 43.5,37.46 C 43.78,37.46 44,37.68 44,37.95 A 0.5,0.5 0 0,1 43.5,38.44 A 0.5,0.5 0 0,1 43,37.94 A 0.5,0.5 0 0,1 43.5,37.46 Z M 44,32.29 A 0.5,0.5 0 0,0 43.5,31.8 A 0.5,0.5 0 0,0 43,32.3 C 43,32.56 43.23,32.78 43.5,32.78 A 0.5,0.5 0 0,0 44,32.29 Z M 43.5,26.15 C 43.78,26.15 44,26.37 44,26.64 A 0.5,0.5 0 0,1 43.5,27.13 A 0.5,0.5 0 0,1 43,26.63 A 0.5,0.5 0 0,1 43.5,26.15 Z M 44,20.98 A 0.5,0.5 0 0,0 43.5,20.49 A 0.5,0.5 0 0,0 43,20.98 C 43,21.25 43.23,21.47 43.5,21.47 A 0.5,0.5 0 0,0 44,20.98 Z M 43.5,14.83 C 43.78,14.83 44,15.05 44,15.33 A 0.5,0.5 0 0,1 43.5,15.81 A 0.5,0.5 0 0,1 43,15.32 A 0.5,0.5 0 0,1 43.5,14.83 Z M 43.5,36.04 C 43.78,36.04 44,36.26 44,36.54 A 0.5,0.5 0 0,1 43.5,37.02 A 0.5,0.5 0 0,1 43,36.53 A 0.5,0.5 0 0,1 43.5,36.04 Z M 44,30.88 A 0.5,0.5 0 0,0 43.5,30.38 A 0.5,0.5 0 0,0 43,30.88 C 43,31.15 43.23,31.37 43.5,31.37 A 0.5,0.5 0 0,0 44,30.87 Z M 43.5,24.73 C 43.78,24.73 44,24.95 44,25.23 A 0.5,0.5 0 0,1 43.5,25.71 A 0.5,0.5 0 0,1 43,25.22 A 0.5,0.5 0 0,1 43.5,24.73 Z M 44,19.57 A 0.5,0.5 0 0,0 43.5,19.07 A 0.5,0.5 0 0,0 43,19.57 C 43,19.84 43.23,20.06 43.5,20.06 A 0.5,0.5 0 0,0 44,19.56 Z M 43.5,13.42 C 43.78,13.42 44,13.64 44,13.91 A 0.5,0.5 0 0,1 43.5,14.4 A 0.5,0.5 0 0,1 43,13.91 A 0.5,0.5 0 0,1 43.5,13.42 Z M 44,40.78 A 0.5,0.5 0 0,0 43.5,40.28 A 0.5,0.5 0 0,0 43,40.78 C 43,41.05 43.23,41.27 43.5,41.27 A 0.5,0.5 0 0,0 44,40.77 Z M 43.5,34.63 C 43.78,34.63 44,34.85 44,35.12 A 0.5,0.5 0 0,1 43.5,35.61 A 0.5,0.5 0 0,1 43,35.12 A 0.5,0.5 0 0,1 43.5,34.63 Z M 44,29.46 A 0.5,0.5 0 0,0 43.5,28.97 A 0.5,0.5 0 0,0 43,29.47 C 43,29.73 43.23,29.95 43.5,29.95 A 0.5,0.5 0 0,0 44,29.46 Z M 43.5,23.32 C 43.78,23.32 44,23.54 44,23.81 A 0.5,0.5 0 0,1 43.5,24.3 A 0.5,0.5 0 0,1 43,23.8 A 0.5,0.5 0 0,1 43.5,23.32 Z M 44,18.15 A 0.5,0.5 0 0,0 43.5,17.66 A 0.5,0.5 0 0,0 43,18.16 C 43,18.42 43.23,18.64 43.5,18.64 A 0.5,0.5 0 0,0 44,18.15 Z" fill="rgb(1, 59, 129)"/>
<path d="M 27.99,38.985 C 34.21,39 39,34.32 39,28 C 39,21.69 34.29,17.06 28,17 S 17,21.69 17,28 C 17,34.32 21.79,39 28,39 Z M 28,41 A 13,13 0 1,0 28,15 A 13,13 0 0,0 28,41 Z" fill="rgb(1, 59, 129)" fill-rule="evenodd"/>
</svg>
