<?xml version="1.0" encoding="UTF-8"?>
<!-- generated by Finnhub -->
<svg viewBox="0 0 55.5 55.5" xmlns="http://www.w3.org/2000/svg">
<path d="M 0,0 H 55.5 V 55.5 H 0 Z" fill="rgb(239, 242, 248)"/>
<path d="M 38.010000000000005,25.825 C 37.82,26.76 37.49,27.54 37.02,28.19 L 35.84,29.3 A 5.1,5.1 0 0,1 32.26,30.1 C 32.76,29.82 33.24,29.48 33.71,29.1 A 5.32,5.32 0 0,0 35.55,23.4 C 35.12,21.78 34.16,20.9 32.75,19.98 L 32.73,19.97 A 1.66,1.66 0 0,1 32.71,20.01 H 32.7 C 32.01,19.71 31.3,19.56 30.58,19.36 C 30.32,19.29 30.04,19.26 29.73,19.28 C 30.59,16.27 30.74,12.9 29.43,10.03 V 10 A 0.02,0.02 0 0,1 29.47,10 A 47.24,47.24 0 0,1 35.19,17.13 C 36.88,19.69 38.29,22.83 38.02,25.84 Z" fill="rgb(169, 43, 39)"/>
<path d="M 29.52,20.025 L 28.8,22.04 C 28.63,21.91 28.3,21.91 28.12,21.87 A 28.86,28.86 0 0,0 24.55,21.28 C 23.73,21.2 22.33,21.28 22.41,22.46 C 22.44,22.89 22.56,23.23 22.78,23.5 C 25.68,28.37 30.63,32.41 36.35,32.81 C 36.82,32.85 37.36,32.77 37.97,32.57 C 39.27,31.51 37.83,29.45 37.03,28.19 C 37.49,27.54 37.82,26.76 38.03,25.84 A 24.08,24.08 0 0,1 41.43,29.45 V 29.52 C 41.37,30.01 41.43,30.88 41.19,31.27 C 41.16,31.32 41.17,31.37 41.22,31.4 C 41.86,31.94 42.57,32.37 43.33,32.71 C 43.37,32.73 43.41,32.76 43.43,32.81 A 4,4 0 0,1 43.89,34.11 L 43.82,35.58 A 0.23,0.23 0 0,1 43.69,35.77 A 0.23,0.23 0 0,1 43.46,35.75 C 43.11,35.5 40.29,34.06 40.74,35.66 C 40.92,36.3 41.24,36.74 41.7,36.97 C 41.73,37.07 41.8,37.15 41.92,37.21 C 41.97,37.24 41.99,37.28 41.98,37.34 L 41.68,38.74 L 41.66,39.12 C 41.38,39.3 41.06,39.42 40.68,39.47 C 39.58,39.56 38.51,39.53 37.49,39.4 C 37.6,38.86 37.73,38.35 37.87,37.88 C 38.09,37.2 37.74,36.82 37.2,36.46 C 35.98,35.66 35.2,35.07 33.78,35.25 C 33.73,35.25 33.7,35.29 33.69,35.35 L 33.66,35.9 A 0.14,0.14 0 0,1 33.59,36.01 A 0.13,0.13 0 0,1 33.45,36.01 C 32.95,35.64 32.33,35.54 31.85,35.27 A 29.8,29.8 0 0,1 31.03,34.8 A 0.24,0.24 0 0,0 30.67,35 C 30.65,35.56 30.97,35.59 31.24,35.93 C 31.78,36.58 32.4,36.97 32.3,37.95 A 45.22,45.22 0 0,1 27.25,35.37 C 27.2,35.34 27.18,35.3 27.2,35.25 C 27.27,35.07 27.27,34.92 27.2,34.81 L 27.17,34.66 C 27.33,34.69 27.45,34.61 27.53,34.41 C 27.75,33.89 28.16,33.04 27.95,32.52 C 27.59,31.59 26.43,30.84 25.3,30 A 0.26,0.26 0 0,0 25.17,29.95 C 24.59,29.91 23.65,29.88 23.17,29.52 C 21.97,28.62 20.98,27.4 19.97,26.3 A 2.03,2.03 0 0,1 19.56,25.55 C 19.89,25.88 20.26,25.52 20.47,25.28 A 0.14,0.14 0 0,0 20.49,25.14 C 20.07,23.97 18.83,22.65 17.52,22.43 C 17.47,22.42 17.44,22.43 17.42,22.48 L 16.37,24.34 C 15.55,22.37 16.39,21.11 17.15,19.27 C 17.17,19.22 17.2,19.2 17.25,19.23 L 17.97,19.66 A 0.1,0.1 0 0,0 18.06,19.67 A 0.1,0.1 0 0,0 18.12,19.61 L 18.8,17.86 A 0.33,0.33 0 0,1 19.04,17.66 A 9.32,9.32 0 0,1 22.68,17.64 C 22.72,17.65 22.76,17.67 22.78,17.71 C 23.51,18.58 24.39,19.23 25.44,19.65 C 25.9,19.84 27.59,20.22 27.05,19.01 C 27.02,18.93 27.05,18.91 27.12,18.94 L 29.53,20.04 Z M 19.08,19.72 A 0.17,0.17 0 0,0 19.14,19.96 C 19.43,20.13 19.73,20.16 20.04,20.03 A 0.14,0.14 0 0,0 20.12,19.93 C 20.19,19.5 19.86,19.03 19.44,19.31 C 19.32,19.4 19.2,19.53 19.08,19.72 Z M 26.58,29.31 C 24.52,27.68 21.36,24.74 21.14,22.07 C 21.04,20.93 22.03,20.54 23.02,20.54 C 23.77,20.54 24.52,20.51 25.24,20.65 C 26.11,20.82 27.45,21.09 28.22,21.53 C 28.29,21.57 28.37,21.56 28.45,21.47 A 0.11,0.11 0 0,0 28.4,21.28 C 26.86,20.84 22.15,19.24 21.04,21.13 C 19.62,23.55 25.07,28.43 26.4,29.53 A 25.97,25.97 0 0,0 32.5,33.25 C 34.45,34.12 36.89,34.69 38.85,34.01 C 41.66,33.03 39.06,29.16 37.85,27.87 A 0.12,0.12 0 0,0 37.65,27.92 L 37.69,28.01 C 38.59,29.35 41.59,32.99 38.32,33.84 C 35.17,34.65 31.39,32.75 28.8,31.07 C 28.04,30.57 27.28,29.86 26.59,29.31 Z" fill="rgb(1, 113, 185)"/>
<path d="M 19.069999999999997,19.705 C 19.2,19.53 19.32,19.4 19.44,19.32 C 19.86,19.03 20.19,19.5 20.12,19.92 A 0.14,0.14 0 0,1 20.04,20.02 C 19.73,20.16 19.43,20.13 19.14,19.96 A 0.17,0.17 0 0,1 19.06,19.85 A 0.17,0.17 0 0,1 19.08,19.72 Z" fill="rgb(15, 93, 170)"/>
<path d="M 29.72,19.265 C 30.04,19.26 30.33,19.28 30.58,19.36 C 31.29,19.56 32.01,19.7 32.7,20.01 H 32.71 L 32.73,19.97 L 32.76,19.98 C 34.16,20.9 35.12,21.78 35.56,23.4 C 36.13,25.6 35.46,27.69 33.71,29.1 C 33.24,29.48 32.76,29.82 32.26,30.1 A 5.13,5.13 0 0,1 28.06,24.18 C 28.23,23.48 28.47,22.76 28.8,22.05 L 29.53,20.05 L 29.73,19.28 Z" fill="rgb(218, 38, 40)"/>
<path d="M 21.13,22.055 C 21.36,24.74 24.52,27.67 26.59,29.31 C 27.29,29.86 28.04,30.57 28.8,31.07 C 31.4,32.75 35.17,34.65 38.32,33.84 C 41.6,32.99 38.59,29.35 37.69,28.01 L 37.65,27.91 A 0.12,0.12 0 0,1 37.8,27.84 C 37.82,27.84 37.84,27.85 37.85,27.87 C 39.06,29.16 41.66,33.03 38.85,34.01 C 36.89,34.69 34.45,34.11 32.5,33.25 A 25.97,25.97 0 0,1 26.4,29.54 C 25.07,28.43 19.62,23.54 21.04,21.13 C 22.15,19.23 26.86,20.83 28.4,21.28 A 0.11,0.11 0 0,1 28.48,21.36 A 0.12,0.12 0 0,1 28.45,21.47 C 28.37,21.56 28.29,21.57 28.22,21.53 C 27.45,21.09 26.12,20.83 25.24,20.65 C 24.51,20.51 23.77,20.54 23.02,20.54 C 22.02,20.54 21.05,20.94 21.14,22.07 Z" fill="rgb(15, 93, 170)"/>
<path d="M 28.79,22.035 A 11.4,11.4 0 0,0 28.06,24.18 A 12.12,12.12 0 0,0 22.78,23.5 A 1.78,1.78 0 0,1 22.41,22.46 C 22.33,21.28 23.73,21.2 24.54,21.28 C 25.74,21.4 26.94,21.6 28.12,21.87 C 28.29,21.91 28.62,21.91 28.8,22.05 Z M 19.56,25.55 C 19.4,25.43 19.3,25.57 19.25,25.95 C 19.25,25.99 19.22,26.03 19.18,26.05 L 18.98,26.18 A 7.67,7.67 0 0,0 16.51,24.61 A 0.2,0.2 0 0,1 16.41,24.51 C 16.35,24.43 16.34,24.37 16.37,24.34 L 17.41,22.48 A 0.1,0.1 0 0,1 17.52,22.43 C 18.82,22.65 20.07,23.97 20.49,25.13 A 0.14,0.14 0 0,1 20.47,25.28 C 20.27,25.52 19.89,25.88 19.56,25.55 Z" fill="rgb(0, 134, 201)"/>
<path d="M 19.549999999999997,25.535 C 19.66,25.85 19.8,26.11 19.96,26.3 C 20.98,27.4 21.96,28.63 23.16,29.52 C 23.64,29.88 24.59,29.91 25.16,29.95 C 25.21,29.95 25.26,29.97 25.3,30 C 26.43,30.84 27.6,31.59 27.95,32.52 C 28.15,33.04 27.75,33.89 27.53,34.42 C 27.45,34.62 27.33,34.69 27.17,34.66 C 26.97,34.24 26.69,33.87 26.32,33.57 C 25.44,32.74 23.94,31.9 22.64,32.12 C 22.59,32.13 22.55,32.12 22.51,32.09 A 29.3,29.3 0 0,1 18.41,27.91 A 0.1,0.1 0 0,1 18.39,27.79 C 18.63,27.33 18.83,26.86 19.01,26.39 C 19.04,26.31 19.03,26.24 18.98,26.18 L 19.18,26.05 A 0.14,0.14 0 0,0 19.25,25.95 C 19.3,25.57 19.4,25.43 19.55,25.55 Z" fill="rgb(15, 93, 170)"/>
<path d="M 37.010000000000005,28.175 C 37.83,29.45 39.28,31.51 37.97,32.57 A 8.83,8.83 0 0,0 35.84,29.3 L 37.02,28.19 Z" fill="rgb(33, 75, 158)"/>
<path d="M 26.31,33.555 C 26.69,33.87 26.97,34.24 27.17,34.66 L 27.2,34.81 C 27,34.83 26.84,34.91 26.65,34.9 C 25.13,34.86 18.67,35.27 17.97,36.85 A 0.15,0.15 0 0,0 17.97,36.98 C 18.41,37.74 22.42,38.56 23.42,38.72 C 25.8,39.1 28.19,39.22 30.6,39.06 C 32.36,38.94 34.1,38.58 35.82,37.98 C 36.39,38.26 36.95,38.73 37.49,39.4 C 38.51,39.53 39.57,39.56 40.69,39.47 C 39.56,40.09 38.8,39.93 37.6,39.8 A 6.63,6.63 0 0,0 34.53,40.18 A 0.1,0.1 0 0,0 34.47,40.3 C 34.51,40.45 34.59,40.58 34.72,40.66 C 34.8,40.71 34.8,40.75 34.7,40.76 C 32.67,40.96 30.64,41.03 28.6,40.99 A 0.24,0.24 0 0,1 28.47,40.95 C 27.34,40.15 25.1,40.2 23.79,40.42 C 23.44,40.48 23.07,40.75 22.74,40.72 A 44.93,44.93 0 0,1 17.31,39.86 A 0.07,0.07 0 0,1 17.33,39.76 L 17.83,39.56 A 0.22,0.22 0 0,0 17.96,39.36 A 0.22,0.22 0 0,0 17.84,39.16 C 16.72,38.61 15.2,38.6 13.98,38.72 C 13.37,38.78 12.39,37.87 12.03,37.39 A 0.16,0.16 0 0,1 12.08,37.15 A 0.16,0.16 0 0,1 12.17,37.13 C 12.61,37.14 14.54,37.13 14.74,36.63 A 0.25,0.25 0 0,0 14.59,36.29 A 7.38,7.38 0 0,0 12.66,35.88 L 12.65,35.85 V 35.82 L 12.67,35.8 C 13.48,35.34 15.22,34.47 16.15,34.63 C 17.16,34.81 19.73,35.01 20.59,34.38 A 0.1,0.1 0 0,0 20.63,34.32 A 0.1,0.1 0 0,0 20.61,34.25 L 20.41,33.92 A 0.08,0.08 0 0,1 20.4,33.84 A 0.08,0.08 0 0,1 20.47,33.79 L 26.32,33.57 Z" fill="rgb(199, 199, 199)"/>
<path d="M 43.89,34.085 C 44.21,35.13 43.78,36.68 43.35,37.63 C 43.33,37.68 43.29,37.69 43.25,37.67 L 41.7,36.97 C 41.24,36.74 40.92,36.3 40.74,35.67 C 40.29,34.07 43.11,35.5 43.46,35.75 A 0.23,0.23 0 0,0 43.69,35.77 A 0.23,0.23 0 0,0 43.82,35.57 L 43.89,34.1 Z M 37.5,39.4 A 5.06,5.06 0 0,0 35.82,37.98 A 3.95,3.95 0 0,0 33.53,37.21 A 0.24,0.24 0 0,0 33.31,37.38 L 33.06,38.15 C 33.05,38.19 33.02,38.21 32.98,38.19 L 32.3,37.95 C 32.4,36.97 31.78,36.58 31.24,35.93 C 30.96,35.59 30.64,35.56 30.67,35.01 A 0.25,0.25 0 0,1 30.79,34.81 A 0.24,0.24 0 0,1 31.03,34.81 L 31.85,35.27 C 32.33,35.54 32.95,35.64 33.45,36 A 0.13,0.13 0 0,0 33.66,35.9 L 33.69,35.35 C 33.69,35.29 33.73,35.25 33.79,35.25 C 35.19,35.07 35.98,35.67 37.19,36.46 C 37.74,36.82 38.09,37.2 37.87,37.88 C 37.73,38.35 37.6,38.86 37.49,39.4 Z" fill="rgb(33, 75, 158)"/>
<path d="M 41.65,39.105 L 41.68,38.74 C 41.9,38.69 42.08,38.69 42.2,38.74 A 0.08,0.08 0 0,1 42.25,38.83 A 0.08,0.08 0 0,1 42.18,38.9 C 41.92,38.9 41.74,38.98 41.66,39.12 Z" fill="rgb(199, 199, 199)"/>
<ellipse cx="30.73" cy="24.97" rx="2.02" ry="2.04" fill="rgb(239, 116, 45)"/>
</svg>
