<?xml version="1.0" encoding="UTF-8"?>
<!-- generated by Finnhub -->
<svg viewBox="0 0 55.5 55.5" xmlns="http://www.w3.org/2000/svg">
<path d="M 0,0 H 55.5 V 55.5 H 0 Z" fill="rgb(254, 101, 2)"/>
<path d="M 7.734,24.002 C 8.672,23.965 9.633,24.192 10.398,24.763 C 11.06,25.251 11.536,25.989 11.771,26.799 C 12.021,27.664 12.053,28.589 11.931,29.481 C 11.819,30.249 11.543,31.003 11.067,31.602 A 3.654,3.654 0 0,1 8.96,32.902 A 4.374,4.374 0 0,1 6.326,32.674 A 3.596,3.596 0 0,1 4.648,31.193 C 4.166,30.379 3.984,29.401 4.001,28.452 C 3.996,27.443 4.227,26.402 4.806,25.582 C 5.478,24.603 6.615,24.065 7.744,24.017 Z M 7.657,25.943 C 7.219,26.003 6.812,26.26 6.565,26.646 C 6.245,27.143 6.147,27.756 6.126,28.345 C 6.113,29 6.183,29.686 6.499,30.264 C 6.718,30.663 7.099,30.957 7.529,31.049 C 8.054,31.162 8.645,31.101 9.086,30.756 C 9.481,30.441 9.693,29.936 9.79,29.436 C 9.896,28.866 9.9,28.276 9.811,27.703 C 9.728,27.193 9.542,26.672 9.161,26.327 C 8.755,25.952 8.175,25.862 7.657,25.943 Z M 15,25.21 C 15.606,24.465 17.06,23.918 18,24.01 V 26.113 C 17.403,26.118 16.213,26.199 15.664,26.474 C 15.424,26.605 15,26.804 15,27.081 V 33.003 H 13 V 24.01 H 15 V 25.21 Z M 20.66,24.308 C 21.481,24.025 22.364,24.002 23.212,24.133 C 23.926,24.256 24.666,24.56 25.114,25.203 C 25.458,25.677 25.561,26.302 25.524,26.892 C 25.526,28.894 25.511,31.001 25.534,33.002 H 23.647 C 23.585,32.752 23.524,32.399 23.463,32.149 A 4.58,4.58 0 0,1 21.64,32.929 C 20.988,33.04 20.29,33.057 19.678,32.751 C 19.144,32.493 18.73,31.979 18.558,31.378 C 18.346,30.648 18.384,29.807 18.765,29.148 C 19.105,28.561 19.669,28.175 20.246,27.905 C 21.269,27.436 22.377,27.242 23.475,27.103 C 23.466,26.748 23.535,26.34 23.298,26.047 C 22.965,25.639 22.405,25.613 21.937,25.657 C 21.283,25.712 20.679,26.089 20.271,26.635 C 19.791,26.342 19.311,26.051 18.835,25.751 A 3.592,3.592 0 0,1 20.66,24.307 Z M 21.522,28.965 C 21.192,29.119 20.859,29.334 20.674,29.678 C 20.425,30.123 20.471,30.739 20.793,31.128 A 0.857,0.857 0 0,0 21.455,31.429 C 22.193,31.444 22.878,31.036 23.415,30.517 C 23.412,29.841 23.415,29.166 23.413,28.491 C 22.771,28.578 22.123,28.697 21.522,28.965 Z M 31.007,24.138 C 31.679,24.003 32.407,24.028 33.037,24.33 C 33.898,24.74 33.983,25.866 34,26.694 V 33.003 H 32 V 27.055 C 31.989,26.684 32.057,26.276 31.819,25.983 C 31.578,25.707 31.189,25.686 30.859,25.725 C 30.201,25.811 29.498,26.209 29,26.646 V 33.003 H 27 V 24.479 C 27.587,24.392 28.201,24.307 28.789,24.222 C 28.844,24.554 28.916,24.885 28.977,25.217 C 29.593,24.749 30.253,24.302 31.007,24.137 Z M 36.393,25.354 C 36.889,24.633 37.676,24.127 38.524,24.059 C 39.07,24.026 39.631,24.078 40.14,24.297 C 40.528,24.463 40.889,24.744 41.074,25.148 C 41.126,24.836 41.184,24.323 41.23,24.01 H 43.024 V 32.598 C 43.012,33.423 42.838,34.302 42.284,34.919 C 41.666,35.607 40.75,35.867 39.883,35.959 C 38.883,36.06 37.816,36.002 36.919,35.476 C 36.344,35.146 35.891,34.565 35.764,33.879 L 37.856,33.523 C 37.91,33.74 38.006,33.96 38.191,34.086 C 38.563,34.341 39.026,34.356 39.456,34.35 C 39.865,34.349 40.306,34.232 40.588,33.9 C 40.898,33.534 40.964,33.02 40.978,32.547 C 40.974,32.19 40.986,31.833 40.969,31.477 C 40.757,31.838 40.504,32.193 40.146,32.404 C 39.629,32.714 39.012,32.739 38.435,32.681 A 2.961,2.961 0 0,1 36.387,31.514 C 35.767,30.693 35.55,29.614 35.541,28.584 C 35.521,27.454 35.747,26.276 36.393,25.354 Z M 38.978,25.664 C 38.668,25.724 38.383,25.901 38.181,26.154 C 37.89,26.512 37.755,26.979 37.693,27.439 A 7.438,7.438 0 0,0 37.688,29.015 C 37.745,29.53 37.862,30.077 38.214,30.46 C 38.477,30.761 38.876,30.888 39.255,30.876 C 39.662,30.886 40.084,30.744 40.374,30.433 C 40.692,30.09 40.841,29.614 40.916,29.149 A 7.13,7.13 0 0,0 40.985,27.812 C 40.949,27.203 40.781,26.569 40.367,26.124 A 1.508,1.508 0 0,0 38.978,25.664 Z M 45.49,25.315 C 46.03,24.608 46.848,24.193 47.685,24.085 C 48.62,23.967 49.625,24.088 50.431,24.648 C 51.088,25.096 51.543,25.831 51.767,26.624 C 51.971,27.356 52.039,28.245 51.979,29.006 H 46.652 C 46.656,29.584 46.736,30.076 47.031,30.572 C 47.269,30.976 47.681,31.234 48.118,31.302 C 48.569,31.372 49.051,31.343 49.464,31.118 C 49.83,30.919 50.113,30.585 50.345,30.227 C 50.863,30.538 51.382,30.848 51.902,31.155 C 51.425,32.065 50.544,32.669 49.608,32.889 C 48.652,33.107 47.622,33.111 46.704,32.713 C 45.989,32.408 45.399,31.804 45.054,31.067 C 44.611,30.122 44.52,29.034 44.583,27.99 C 44.647,27.035 44.907,26.06 45.489,25.315 Z M 47.145,26.102 C 46.846,26.458 46.719,26.941 46.685,27.409 C 47.763,27.411 48.842,27.409 49.92,27.41 C 49.91,26.949 49.811,26.463 49.517,26.112 C 49.184,25.706 48.653,25.559 48.166,25.598 A 1.44,1.44 0 0,0 47.145,26.102 Z" fill="rgb(254, 254, 253)"/>
</svg>
