<?xml version="1.0" encoding="UTF-8"?>
<!-- generated by Finnhub -->
<svg viewBox="0 0 55.5 55.5" xmlns="http://www.w3.org/2000/svg">
<path d="M 0,0 H 55.5 V 55.5 H 0 Z" fill="rgb(239, 242, 248)"/>
<path d="M 43.99,35.985 A 8,8 0 0,1 36,44 H 20 A 8,8 0 0,1 12,36 V 20 A 8,8 0 0,1 20,12 H 36 A 8,8 0 0,1 44,20 V 36 Z M 43.33,27.94 C 40.29,27.94 37.25,27.65 34.26,27.08 A 6.33,6.33 0 0,0 34.14,26.44 A 48.16,48.16 0 0,1 42.2,22.16 V 22.12 A 0.05,0.05 0 0,0 42.15,22.08 A 0.05,0.05 0 0,0 42.11,22.1 A 48.24,48.24 0 0,1 33.41,24.78 A 6.23,6.23 0 0,0 33.05,24.24 A 48.16,48.16 0 0,1 38.85,17.18 A 0.06,0.06 0 0,0 38.81,17.13 H 38.77 A 48.15,48.15 0 0,1 31.75,22.94 A 6.44,6.44 0 0,0 31.21,22.58 A 48.24,48.24 0 0,1 33.91,13.84 L 33.89,13.8 A 0.05,0.05 0 0,0 33.81,13.8 A 48.2,48.2 0 0,1 29.55,21.85 C 29.34,21.8 29.12,21.75 28.91,21.72 A 48.21,48.21 0 0,1 28.03,12.62 A 0.06,0.06 0 0,0 27.99,12.6 A 0.06,0.06 0 0,0 27.95,12.62 A 0.06,0.06 0 0,0 27.93,12.66 C 27.95,15.71 27.67,18.75 27.11,21.74 C 26.89,21.77 26.68,21.81 26.47,21.87 A 48.2,48.2 0 0,1 22.17,13.8 H 22.14 A 0.06,0.06 0 0,0 22.1,13.86 A 48.2,48.2 0 0,1 24.78,22.56 A 6.3,6.3 0 0,0 24.23,22.92 A 48.2,48.2 0 0,1 17.18,17.12 A 0.06,0.06 0 0,0 17.14,17.2 C 19.29,19.35 21.24,21.7 22.94,24.22 C 22.81,24.39 22.69,24.57 22.58,24.76 A 48.2,48.2 0 0,1 13.81,22.08 A 0.06,0.06 0 0,0 13.78,22.14 A 0.06,0.06 0 0,0 13.83,22.19 C 16.64,23.35 19.34,24.78 21.88,26.45 C 21.83,26.66 21.78,26.88 21.75,27.09 A 48.2,48.2 0 0,1 12.65,27.97 A 0.06,0.06 0 0,0 12.69,28.07 C 15.73,28.07 18.77,28.36 21.75,28.93 L 21.88,29.57 A 48.21,48.21 0 0,1 13.81,33.87 V 33.91 A 0.06,0.06 0 0,0 13.87,33.94 A 48.17,48.17 0 0,1 22.58,31.26 L 22.94,31.8 A 48.24,48.24 0 0,1 17.11,38.86 A 0.06,0.06 0 0,0 17.13,38.91 A 0.06,0.06 0 0,0 17.22,38.89 C 19.37,36.74 21.72,34.79 24.24,33.09 C 24.41,33.22 24.59,33.34 24.78,33.45 A 48.2,48.2 0 0,1 22.11,42.19 L 22.14,42.22 A 0.06,0.06 0 0,0 22.2,42.2 C 23.37,39.39 24.8,36.7 26.47,34.15 C 26.68,34.2 26.9,34.25 27.11,34.28 A 48.2,48.2 0 0,1 27.99,43.38 A 0.06,0.06 0 0,0 28.09,43.35 C 28.09,40.3 28.38,37.27 28.95,34.28 C 29.17,34.25 29.38,34.2 29.59,34.15 A 48.17,48.17 0 0,1 33.89,42.22 A 0.06,0.06 0 0,0 33.96,42.16 A 48.26,48.26 0 0,1 31.28,33.46 C 31.47,33.34 31.65,33.22 31.82,33.09 A 48.22,48.22 0 0,1 38.88,38.9 L 38.91,38.89 A 0.06,0.06 0 0,0 38.92,38.82 A 48.22,48.22 0 0,1 33.12,31.8 L 33.48,31.26 A 48.16,48.16 0 0,1 42.24,33.95 A 0.05,0.05 0 0,0 42.27,33.92 A 0.05,0.05 0 0,0 42.27,33.88 L 42.26,33.86 A 48.21,48.21 0 0,1 34.21,29.59 C 34.26,29.39 34.31,29.17 34.33,28.95 A 48.2,48.2 0 0,1 43.43,28.07 A 0.06,0.06 0 0,0 43.4,27.97 L 43.33,27.94 Z" fill="url(#b)"/>
<path d="M 43.99,35.985 A 8,8 0 0,1 36,44 H 20 A 8,8 0 0,1 12,36 V 20 A 8,8 0 0,1 20,12 H 36 A 8,8 0 0,1 44,20 V 36 Z M 43.33,27.94 C 40.29,27.94 37.25,27.65 34.26,27.08 A 6.33,6.33 0 0,0 34.14,26.44 A 48.16,48.16 0 0,1 42.2,22.16 V 22.12 A 0.05,0.05 0 0,0 42.15,22.08 A 0.05,0.05 0 0,0 42.11,22.1 A 48.24,48.24 0 0,1 33.41,24.78 A 6.23,6.23 0 0,0 33.05,24.24 A 48.16,48.16 0 0,1 38.85,17.18 A 0.06,0.06 0 0,0 38.81,17.13 H 38.77 A 48.15,48.15 0 0,1 31.75,22.94 A 6.44,6.44 0 0,0 31.21,22.58 A 48.24,48.24 0 0,1 33.91,13.84 L 33.89,13.8 A 0.05,0.05 0 0,0 33.81,13.8 A 48.2,48.2 0 0,1 29.55,21.85 C 29.34,21.8 29.12,21.75 28.91,21.72 A 48.21,48.21 0 0,1 28.03,12.62 A 0.06,0.06 0 0,0 27.99,12.6 A 0.06,0.06 0 0,0 27.95,12.62 A 0.06,0.06 0 0,0 27.93,12.66 C 27.95,15.71 27.67,18.75 27.11,21.74 C 26.89,21.77 26.68,21.81 26.47,21.87 A 48.2,48.2 0 0,1 22.17,13.8 H 22.14 A 0.06,0.06 0 0,0 22.1,13.86 A 48.2,48.2 0 0,1 24.78,22.56 A 6.3,6.3 0 0,0 24.23,22.92 A 48.2,48.2 0 0,1 17.18,17.12 A 0.06,0.06 0 0,0 17.14,17.2 C 19.29,19.35 21.24,21.7 22.94,24.22 C 22.81,24.39 22.69,24.57 22.58,24.76 A 48.2,48.2 0 0,1 13.81,22.08 A 0.06,0.06 0 0,0 13.78,22.14 A 0.06,0.06 0 0,0 13.83,22.19 C 16.64,23.35 19.34,24.78 21.88,26.45 C 21.83,26.66 21.78,26.88 21.75,27.09 A 48.2,48.2 0 0,1 12.65,27.97 A 0.06,0.06 0 0,0 12.69,28.07 C 15.73,28.07 18.77,28.36 21.75,28.93 L 21.88,29.57 A 48.21,48.21 0 0,1 13.81,33.87 V 33.91 A 0.06,0.06 0 0,0 13.87,33.94 A 48.17,48.17 0 0,1 22.58,31.26 L 22.94,31.8 A 48.24,48.24 0 0,1 17.11,38.86 A 0.06,0.06 0 0,0 17.13,38.91 A 0.06,0.06 0 0,0 17.22,38.89 C 19.37,36.74 21.72,34.79 24.24,33.09 C 24.41,33.22 24.59,33.34 24.78,33.45 A 48.2,48.2 0 0,1 22.11,42.19 L 22.14,42.22 A 0.06,0.06 0 0,0 22.2,42.2 C 23.37,39.39 24.8,36.7 26.47,34.15 C 26.68,34.2 26.9,34.25 27.11,34.28 A 48.2,48.2 0 0,1 27.99,43.38 A 0.06,0.06 0 0,0 28.09,43.35 C 28.09,40.3 28.38,37.27 28.95,34.28 C 29.17,34.25 29.38,34.2 29.59,34.15 A 48.17,48.17 0 0,1 33.89,42.22 A 0.06,0.06 0 0,0 33.96,42.16 A 48.26,48.26 0 0,1 31.28,33.46 C 31.47,33.34 31.65,33.22 31.82,33.09 A 48.22,48.22 0 0,1 38.88,38.9 L 38.91,38.89 A 0.06,0.06 0 0,0 38.92,38.82 A 48.22,48.22 0 0,1 33.12,31.8 L 33.48,31.26 A 48.16,48.16 0 0,1 42.24,33.95 A 0.05,0.05 0 0,0 42.27,33.92 A 0.05,0.05 0 0,0 42.27,33.88 L 42.26,33.86 A 48.21,48.21 0 0,1 34.21,29.59 C 34.26,29.39 34.31,29.17 34.33,28.95 A 48.2,48.2 0 0,1 43.43,28.07 A 0.06,0.06 0 0,0 43.4,27.97 L 43.33,27.94 Z" fill="url(#a)"/>
<path d="M 27.99,33.535 A 5.55,5.55 0 1,0 28,22.45 A 5.55,5.55 0 0,0 28,33.55 Z" fill="rgb(220, 178, 15)"/>
<circle cx="29.5" cy="25.5" r="2.5" fill="rgb(237, 214, 127)" opacity=".3"/>
<circle cx="29.5" cy="25.5" r="1.5" fill="rgb(245, 235, 192)" opacity=".3"/>
<circle cx="29.5" cy="25.5" r=".5" fill="rgb(254, 231, 201)"/>
<defs>
<linearGradient id="b" x1="12" x2="44" y1="28" y2="28" gradientUnits="userSpaceOnUse">
<stop stop-color="rgb(220, 178, 15)" offset=".07"/>
<stop stop-color="rgb(254, 254, 253)" offset=".51"/>
<stop stop-color="rgb(220, 178, 15)" offset=".91"/>
</linearGradient>
<linearGradient id="a" x1="28" x2="28" y1="12" y2="44" gradientUnits="userSpaceOnUse">
<stop stop-color="rgb(220, 178, 15)" offset="0"/>
<stop stop-color="rgb(254, 254, 253)" stop-opacity=".24" offset=".48"/>
<stop stop-color="rgb(220, 178, 15)" offset="1"/>
</linearGradient>
</defs>
</svg>
