<?xml version="1.0" encoding="UTF-8"?>
<!-- generated by Finnhub -->
<svg viewBox="0 0 55.5 55.5" xmlns="http://www.w3.org/2000/svg">
<path d="M 0,0 H 55.5 V 55.5 H 0 Z" fill="rgb(239, 242, 248)"/>
<path d="M 16.99,38.355 V 27 H 24 V 31.97 L 27.16,25.73 A 5.8,5.8 0 0,1 23.5,27 A 5.7,5.7 0 0,1 19.2,25.1 C 13.37,29.75 10.18,34.61 11.76,37.04 C 12.56,38.26 14.45,38.67 17,38.37 Z M 19.16,39 C 14.34,40.43 10.64,40.38 9.42,38.51 C 7.64,35.79 11.67,30.06 18.79,24.59 A 4.68,4.68 0 0,1 18,22 C 18,19.24 20.46,17 23.5,17 C 25.22,17 26.75,17.71 27.76,18.83 C 36.64,14.1 44.66,12.56 46.58,15.49 C 48.32,18.15 44.48,23.71 37.64,29.08 L 42.6,39 H 35.03 L 34.55,38 H 24 V 39 H 19.16 Z M 37.27,28.35 C 42.43,23.97 45.16,19.55 43.67,17.27 C 42.29,15.15 37.61,15.47 31.93,17.69 L 37.27,28.35 Z M 31.04,18.05 C 30.11,18.45 29.15,18.89 28.18,19.37 A 4.65,4.65 0 0,1 29,22.1 L 31.04,18.06 Z M 24,33 V 32 H 32.4 L 32.81,33 H 24 Z M 24,35 V 34 H 33.16 L 33.58,35 H 24 Z M 24,37 V 36 H 33.84 L 34.26,37 H 24 Z" fill="rgb(235, 35, 39)" fill-rule="evenodd"/>
</svg>
