<!-- by Finnhub --><svg xmlns="http://www.w3.org/2000/svg" width="56" height="56" viewBox="0 0 56 56"><path d="M56 0H0v56h56V0Z" fill="#F0F3FA"/><path d="m28.11 37.9 6.16-14.04c1.38-9.83-13.92-9.84-12.32 0l6.16 14.04Zm-4.87-.16-9.64.04c-2.45.01-2.98-3.21-1.68-5.25a3.6 3.6 0 0 1 5.47-.61l5.85 5.82Zm9.52 0 9.64.04c2.45.01 2.98-3.21 1.68-5.25a3.6 3.6 0 0 0-5.47-.61l-5.85 5.82Zm-5.93.03-2.45-.02-8.13-8.36c-2.03-2.09-1.23-4.63.58-5.6 1.5-.8 3.66-.27 4.19.92l5.8 13.06Zm2.32 0 2.45-.02 8.12-8.36c2.04-2.09 1.24-4.63-.57-5.6-1.5-.8-3.66-.27-4.19.92l-5.8 13.06Z" fill="#FD0100"/><path fill-rule="evenodd" d="M34.99 23.59c.4-.36.94-.61 1.52-.75a4.07 4.07 0 0 1 5.03 3.2c.14.82.03 1.7-.41 2.56-.22.44-.53.87-.93 1.28l-.6.62a4.27 4.27 0 0 1 5.04 1.65 5.2 5.2 0 0 1 .46 4.52c-.22.5-.65 1.11-1.14 1.36-.44.3-.92.44-1.56.44-3.5 0-7-.03-10.51-.04h-7.8c-3.5.01-7 .04-10.5.04-1.21 0-2.2-.66-2.7-1.8a4.4 4.4 0 0 1-.33-1.72c0-.96.27-1.96.8-2.8a4.28 4.28 0 0 1 5-1.67l-.58-.6c-.4-.41-.71-.84-.93-1.28a4 4 0 0 1 1.85-5.51c.87-.4 1.89-.46 2.77-.25.72.17 1.37.53 1.8 1.02-.51-3.4.82-5.72 2.84-6.99a7.42 7.42 0 0 1 3.86-1.08 7.57 7.57 0 0 1 3.88 1.02c2.05 1.2 3.48 3.47 3.14 6.78ZM24.09 39l-3.44.02-7.05.03a3.23 3.23 0 0 1-1.89-.54l-.04-.02a3.85 3.85 0 0 1-1.29-1.59 4.6 4.6 0 0 1-.38-1.95 5.9 5.9 0 0 1 .89-3.11 4.44 4.44 0 0 1 .54-.69 4.71 4.71 0 0 1 2.92-1.45c.17-.02.33-.03.5-.03l-.05-.07a4.86 4.86 0 0 1-.92-3.65 4.53 4.53 0 0 1 1.88-2.97 4.43 4.43 0 0 1 2.23-.8 5.04 5.04 0 0 1 2.61.47 7.7 7.7 0 0 1 .54-3.1 6.66 6.66 0 0 1 2.68-3.17 8.32 8.32 0 0 1 4.14-1.16 8.38 8.38 0 0 1 4.16 1.09 6.88 6.88 0 0 1 2.8 3.05c.42.91.67 1.98.68 3.18a4.9 4.9 0 0 1 4.1.12l.02.01a4.58 4.58 0 0 1 2.38 4.76 4.86 4.86 0 0 1-.92 2.17l-.05.07a4.91 4.91 0 0 1 3.98 2.17A6 6 0 0 1 45.9 36a4.48 4.48 0 0 1-.89 1.86c-.21.26-.47.5-.75.65-.26.18-.54.3-.86.4-.3.08-.63.13-1 .12-1.93 0-4.5 0-7.08-.02L31.88 39H24.1Z" fill="#FD0100"/></svg>