<?xml version="1.0" encoding="UTF-8"?>
<!-- generated by Finnhub -->
<svg viewBox="0 0 55.5 55.5" xmlns="http://www.w3.org/2000/svg">
<path d="M 0,0 H 55.5 V 55.5 H 0 Z" fill="url(#a)"/>
<path d="M 41.010000000000005,33.365 L 44.38,22 H 48 L 42.9,36.75 C 42.8,37.08 42.65,37.42 42.46,37.8 C 42.28,38.17 42.04,38.52 41.72,38.85 C 41.42,39.19 41.03,39.47 40.57,39.68 C 40.11,39.89 39.54,40 38.87,40 C 38.55,40 38.29,39.98 38.08,39.94 L 37.36,39.77 V 37.27 H 37.63 L 37.9,37.29 C 38.34,37.29 38.7,37.24 38.99,37.13 C 39.27,37.03 39.49,36.87 39.66,36.66 C 39.84,36.46 39.97,36.18 40.07,35.86 L 41.02,33.38 Z M 39.62,22 L 42.37,31.29 L 42.85,34.9 L 40.55,35.15 L 36,22 H 39.62 Z M 31.66,31.3 C 31.66,31.06 31.59,30.85 31.44,30.66 C 31.3,30.46 31.04,30.28 30.64,30.12 A 7.98,7.98 0 0,0 28.99,29.66 C 28.33,29.52 27.73,29.35 27.16,29.14 A 6.4,6.4 0 0,1 25.71,28.36 A 3.4,3.4 0 0,1 24.75,27.3 A 3.28,3.28 0 0,1 24.75,24.4 C 24.99,23.92 25.33,23.51 25.77,23.16 C 26.21,22.8 26.75,22.51 27.39,22.31 C 28.03,22.11 28.76,22 29.56,22 C 30.68,22 31.64,22.17 32.45,22.52 C 33.25,22.87 33.88,23.35 34.31,23.96 C 34.75,24.56 34.96,25.23 34.96,26 H 31.53 C 31.53,25.68 31.46,25.4 31.31,25.15 A 1.4,1.4 0 0,0 30.67,24.54 A 2.36,2.36 0 0,0 29.55,24.31 C 29.17,24.31 28.84,24.37 28.55,24.51 C 28.28,24.63 28.06,24.8 27.91,25.01 A 1.2,1.2 0 0,0 27.81,26.23 C 27.91,26.38 28.04,26.51 28.24,26.63 C 28.43,26.76 28.67,26.87 28.98,26.98 C 29.28,27.08 29.67,27.18 30.12,27.26 C 31.05,27.45 31.88,27.69 32.62,27.99 C 33.35,28.29 33.92,28.69 34.36,29.19 C 34.79,29.69 35,30.36 35,31.18 C 35,31.73 34.87,32.24 34.62,32.71 C 34.36,33.17 34,33.57 33.52,33.92 C 33.04,34.26 32.47,34.52 31.8,34.72 C 31.14,34.91 30.4,35 29.57,35 C 28.37,35 27.35,34.8 26.52,34.37 A 4.8,4.8 0 0,1 24.63,32.79 A 3,3 0 0,1 24,31 H 27.26 C 27.27,31.46 27.39,31.62 27.61,31.9 C 27.85,32.17 28.14,32.37 28.49,32.5 C 28.84,32.62 29.23,32.68 29.64,32.68 C 30.09,32.68 30.46,32.62 30.75,32.51 C 31.05,32.39 31.27,32.22 31.42,32.02 C 31.58,31.82 31.66,31.57 31.66,31.3 Z M 17,29 H 12.29 V 26 H 17 C 18.63,26 20,25.29 20,23.58 C 20,21.88 18.7,21 17,21 H 13 V 35 H 10 V 18 H 17 C 20.34,18 23,20 23,23.58 C 23,27.2 20.3,29 17,29 Z" fill="rgb(44, 49, 78)"/>
<defs>
<linearGradient id="a" x1="28" x2="28" y2="56" gradientUnits="userSpaceOnUse">
<stop stop-color="rgb(242, 196, 161)" offset="0"/>
<stop stop-color="rgb(168, 161, 157)" offset=".46"/>
<stop stop-color="rgb(12, 165, 171)" offset="1"/>
</linearGradient>
</defs>
</svg>
