<?xml version="1.0" encoding="UTF-8"?>
<!-- generated by Finnhub -->
<svg viewBox="0 0 55.5 55.5" xmlns="http://www.w3.org/2000/svg">
<path d="M 0,0 H 55.5 V 55.5 H 0 Z" fill="rgb(239, 242, 248)"/>
<path d="M 27.99,44.985 A 17,17 0 1,0 28,11 A 17,17 0 0,0 28,45 Z M 28,43 A 15,15 0 1,0 28,13 A 15,15 0 0,0 28,43 Z" fill="rgb(241, 230, 124)" fill-rule="evenodd"/>
<path d="M 27.99,44.985 A 17,17 0 1,0 20,13 V 12 H 19.43 L 19.4,13.33 C 19.22,13.43 19.04,13.55 18.86,13.67 V 12 H 18.51 L 18.41,13.96 L 17.62,14.53 L 17.5,12 H 17.15 V 14.92 L 16.65,15.36 L 16.58,12 H 16 V 15.96 A 17,17 0 0,0 28,45 Z M 16,16.68 A 16.44,16.44 0 0,0 11.5,28 C 11.5,32.64 13.42,36.82 16.5,39.82 A 1.25,1.25 0 0,1 16.48,39.55 L 16.51,39.05 A 15.88,15.88 0 0,1 12.06,28 C 12.06,23.98 13.55,20.31 16,17.51 V 16.68 Z M 17.14,16.33 L 16.66,16.8 L 16.64,16.04 L 17.14,15.58 V 16.33 Z M 16.46,20.07 A 13.94,13.94 0 0,0 16.66,36.23 L 17.49,21.87 C 17.53,21.04 16.97,20.42 16.46,20.07 Z M 19.49,39.12 A 14,14 0 1,0 19.99,16.51 V 19.81 C 19.48,20.03 18.45,20.76 18.51,21.87 L 19.49,39.12 Z M 18.62,40.88 A 15.94,15.94 0 1,0 20,14.21 V 13.57 A 16.5,16.5 0 1,1 17.83,41 A 1.7,1.7 0 0,0 18.62,40.9 Z M 19.39,13.92 L 18.86,14.27 V 14.94 L 19.38,14.59 L 19.39,13.92 Z M 19.34,17 C 19.17,17.13 19.01,17.26 18.86,17.4 V 18.3 H 19.31 L 19.34,17 Z M 18.19,18.01 L 18.17,18.31 H 17.9 L 18.19,18.01 Z M 18.33,15.33 L 17.69,15.84 L 17.66,15.14 L 18.37,14.6 L 18.33,15.33 Z" fill="rgb(237, 110, 37)" fill-rule="evenodd"/>
<path d="M 17.04,12.995 V 12.57 C 23.28,12.13 25.31,11 29.36,11 C 36.71,11 40,14.78 40,20 C 40,25.2 36.93,29 31,29 C 26.26,29 25.58,26.6 25.6,25 H 26 C 26.14,26.11 26.89,28 30.37,28 C 34.73,28 37,23.82 37,20 C 37,13.4 31.84,12.33 29.1,12.33 C 26.92,12.33 25.01,13.01 24,13.36 V 38.9 C 24,40.32 24.51,41.46 25.97,41.46 H 26.87 V 42 H 17 V 41.46 H 17.91 C 19.37,41.46 20,40.32 20,38.9 V 15.37 C 20,14.07 19.46,13.01 18.11,13.01 H 17.05 Z"/>
</svg>
