<?xml version="1.0" encoding="UTF-8"?>
<!-- generated by Finnhub -->
<svg viewBox="0 0 55.5 55.5" xmlns="http://www.w3.org/2000/svg">
<path d="M0 0h55.5v55.5H0z" fill="rgb(239, 242, 248)"/>
<path d="M4 28.8V28h3.24v.8H6V33h-.8v-4.2H4ZM8.19 33v-5H11v.8H9v1.32h2v.74H9v1.33h2V33H8.19ZM15.85 29.7h-.82a1.16 1.16 0 0 0-.13-.38.95.95 0 0 0-.55-.47 1.16 1.16 0 0 0-.38-.06c-.25 0-.46.07-.65.2s-.34.32-.44.58c-.11.25-.16.56-.16.93s.05.68.16.94a1.12 1.12 0 0 0 1.09.77c.13 0 .25-.03.37-.06a1 1 0 0 0 .56-.46c.06-.1.1-.23.13-.38h.82a2.02 2.02 0 0 1-.6 1.2 1.8 1.8 0 0 1-1.3.48 1.92 1.92 0 0 1-1.78-1.15 3.1 3.1 0 0 1-.27-1.34c0-.53.09-.97.27-1.35A1.91 1.91 0 0 1 13.95 28c.25 0 .49.04.7.11a1.75 1.75 0 0 1 .99.87c.1.22.18.46.21.73ZM16.6 33v-5h.8v2.12h2.09V28h.81v5h-.81v-2.14H17.4V33h-.81ZM25 28v5h-.72l-2.43-3.38h-.04V33H21v-5h.72l2.43 3.38h.04V28H25ZM29.76 30.5c0 .52-.09.97-.27 1.34-.18.37-.42.66-.73.86-.31.2-.66.3-1.06.3a1.93 1.93 0 0 1-1.79-1.16 3.07 3.07 0 0 1-.27-1.34c0-.53.1-.97.27-1.35a1.93 1.93 0 0 1 1.8-1.15 1.91 1.91 0 0 1 1.78 1.15c.18.38.27.82.27 1.35Zm-.81 0c0-.37-.06-.68-.16-.94-.1-.25-.25-.44-.44-.57a1.1 1.1 0 0 0-.65-.2c-.24 0-.46.07-.64.2-.19.13-.34.32-.44.57-.1.26-.16.57-.16.94s.05.68.16.93c.1.25.25.45.44.58.18.13.4.2.64.2.25 0 .46-.07.65-.2s.33-.33.44-.58c.1-.25.16-.56.16-.93ZM30.53 33v-5h.81v4.19h1.98V33h-2.79ZM37.86 30.5c0 .52-.1.97-.27 1.34A1.91 1.91 0 0 1 35.8 33a1.93 1.93 0 0 1-1.8-1.15 3.07 3.07 0 0 1-.26-1.34c0-.53.09-.97.27-1.35A1.93 1.93 0 0 1 35.8 28a1.91 1.91 0 0 1 1.78 1.15c.18.38.27.82.27 1.35Zm-.82 0c0-.37-.05-.68-.16-.94-.1-.25-.25-.44-.44-.57a1.1 1.1 0 0 0-.64-.2c-.25 0-.46.07-.65.2s-.33.32-.44.57c-.1.26-.16.57-.16.94s.06.68.16.93.25.45.44.58c.19.13.4.2.65.2.24 0 .46-.07.64-.2.19-.13.34-.33.44-.58.1-.25.16-.56.16-.93ZM41.63 29.62a1.3 1.3 0 0 0-.15-.35c-.06-.1-.14-.19-.23-.26a.9.9 0 0 0-.3-.16 1.17 1.17 0 0 0-1.02.14 1.3 1.3 0 0 0-.44.58c-.1.25-.16.56-.16.92 0 .37.05.68.16.93.1.26.25.45.44.59.2.13.41.2.66.2.23 0 .43-.05.6-.15.16-.1.3-.23.38-.4.1-.18.14-.38.14-.62l.18.03h-1.21v-.69h1.82v.59c0 .41-.09.77-.25 1.08-.16.3-.39.53-.67.7-.29.16-.62.24-.99.24-.41 0-.78-.1-1.09-.3-.3-.2-.55-.49-.73-.86a3.12 3.12 0 0 1-.26-1.33c0-.4.05-.74.16-1.05.1-.3.24-.57.43-.79a1.85 1.85 0 0 1 1.47-.66 2 2 0 0 1 1.26.45 1.81 1.81 0 0 1 .63 1.17h-.83ZM44 28v5h-.82v-5H44ZM45 33v-5h3v.8h-2.19v1.32H48v.74h-2.19v1.33H48V33h-3ZM51.16 29.4a.66.66 0 0 0-.26-.48.94.94 0 0 0-.59-.17c-.17 0-.31.02-.43.08a.65.65 0 0 0-.28.22.58.58 0 0 0-.04.6c.05.07.1.13.18.18.07.05.16.1.25.13l.27.09.42.11c.17.04.33.1.49.18.16.07.3.16.42.27a1.21 1.21 0 0 1 .41.95c0 .29-.07.54-.2.75-.14.22-.33.39-.58.51-.26.12-.56.18-.92.18-.35 0-.65-.06-.91-.18a1.38 1.38 0 0 1-.6-.5 1.6 1.6 0 0 1-.23-.83h.8c0 .17.06.31.14.42.09.12.2.2.33.25.14.06.3.09.46.09.18 0 .33-.03.47-.09a.76.76 0 0 0 .31-.24c.08-.1.12-.23.12-.37a.49.49 0 0 0-.1-.3.76.76 0 0 0-.29-.22l-.42-.15-.5-.14a2 2 0 0 1-.88-.47 1.12 1.12 0 0 1-.32-.84 1.33 1.33 0 0 1 .8-1.25c.25-.12.53-.18.84-.18.32 0 .6.06.84.18s.43.28.57.5c.13.2.2.45.2.72h-.77ZM10 26v-5h1.69c.34 0 .63.14.86.28.24.14.42.33.54.57.12.24.18.52.18.83 0 .31-.06.59-.18.83s-.3.43-.54.57c-.24.14-.53.2-.87.2h-1.12v-.72h1c.2 0 .37-.03.5-.11a.7.7 0 0 0 .29-.31c.06-.14.1-.29.1-.46 0-.17-.04-.33-.1-.46a.67.67 0 0 0-.29-.3.98.98 0 0 0-.5-.12h-.74V26H10ZM14 26v-5h1.68c.34 0 .63.13.87.26.23.13.4.31.53.55.12.23.18.5.18.81 0 .32-.06.59-.18.82-.13.22-.3.4-.54.53-.24.12-.53.18-.87.18h-1.2v-.73h1.09c.2 0 .36-.03.5-.1a.6.6 0 0 0 .28-.26c.06-.12.1-.26.1-.44a.96.96 0 0 0-.1-.44.62.62 0 0 0-.29-.28 1.1 1.1 0 0 0-.5-.1h-.74V26H14Zm2.31-2.27L17.42 26h-.9l-1.1-2.27h.9ZM21.86 23.5c0 .52-.09.97-.27 1.35-.18.37-.43.65-.74.85-.3.2-.66.3-1.05.3a1.92 1.92 0 0 1-1.8-1.15 3.08 3.08 0 0 1-.26-1.35c0-.52.09-.97.27-1.35A1.92 1.92 0 0 1 19.8 21a1.91 1.91 0 0 1 1.78 1.15c.18.38.27.83.27 1.35Zm-.82 0c0-.37-.05-.68-.16-.93-.1-.26-.25-.45-.43-.58a1.1 1.1 0 0 0-.65-.2c-.24 0-.46.07-.65.2-.18.13-.33.32-.44.58-.1.25-.15.56-.15.93s.05.68.15.94c.11.25.26.44.44.57.19.13.4.2.65.2.24 0 .46-.07.65-.2.18-.13.33-.32.43-.57.11-.26.16-.57.16-.94ZM22.12 21.8V21h3.58v.8H24.3V26h-.8v-4.2h-1.39ZM30.2 23.5c0 .52-.1.97-.27 1.35-.18.37-.43.65-.74.85-.3.2-.66.3-1.05.3a1.92 1.92 0 0 1-1.8-1.15 3.08 3.08 0 0 1-.26-1.35c0-.52.09-.97.27-1.35a1.92 1.92 0 0 1 1.8-1.15 1.91 1.91 0 0 1 1.78 1.15c.18.38.27.83.27 1.35Zm-.82 0c0-.37-.05-.68-.16-.93-.1-.26-.25-.45-.44-.58a1.1 1.1 0 0 0-.64-.2c-.25 0-.46.07-.65.2s-.33.32-.44.58c-.1.25-.16.56-.16.93s.06.68.16.94c.1.25.25.44.44.57.19.13.4.2.65.2.24 0 .46-.07.64-.2.19-.13.34-.32.44-.57.1-.26.16-.57.16-.94ZM34.8 22.7H34a1.17 1.17 0 0 0-.13-.38.95.95 0 0 0-.55-.47 1.16 1.16 0 0 0-.39-.06c-.24 0-.46.07-.65.2s-.33.33-.44.58c-.1.25-.16.56-.16.93s.05.69.16.94a1.12 1.12 0 0 0 1.09.77c.13 0 .26-.02.37-.06a1 1 0 0 0 .56-.45c.07-.11.11-.24.14-.38h.82a2.03 2.03 0 0 1-.6 1.2 1.8 1.8 0 0 1-1.3.48 1.92 1.92 0 0 1-1.79-1.15 3.1 3.1 0 0 1-.27-1.35c0-.52.1-.97.27-1.35.18-.37.43-.65.74-.85a2.07 2.07 0 0 1 1.75-.18 1.74 1.74 0 0 1 .98.87c.11.2.18.45.22.72ZM36.07 26h-.87l1.58-5h1l1.59 5h-.87l-1.2-3.94h-.03L36.07 26Zm.03-2h2.36v.73H36.1V24ZM40 26v-5h.77v4.2h1.98v.8H40ZM43.54 26v-5h.8v4.2h1.98v.8h-2.78Z"/>
</svg>
