<?xml version="1.0" encoding="UTF-8"?>
<!-- generated by Finnhub -->
<svg viewBox="0 0 55.5 55.5" xmlns="http://www.w3.org/2000/svg">
<path d="M 0,0 H 55.5 V 55.5 H 0 Z" fill="rgb(47, 164, 165)"/>
<path d="M 12.19,33.985 C 10.39,34 8.7,33.41 7.13,32.55 A 0.5,0.5 0 0,0 6.92,32.48 C 6.79,32.48 6.7,32.56 6.64,32.7 L 6.04,33.98 A 0.71,0.71 0 0,0 6,34.18 C 6,34.31 6.06,34.41 6.2,34.48 C 6.99,34.95 7.92,35.32 8.97,35.59 C 10.02,35.86 11.1,36 12.2,36 C 14.97,36 18.5,34.84 18.5,31.5 C 18.5,28.1 15.33,27.58 12.47,27.1 C 10.13,26.72 8,26.37 8,24.5 C 8,22.58 10.83,22 12.32,22 C 14.05,22 15.59,22.56 16.94,23.36 A 0.5,0.5 0 0,0 17.15,23.43 C 17.28,23.43 17.37,23.36 17.43,23.21 L 18.01,21.93 A 0.72,0.72 0 0,0 18.05,21.73 A 0.31,0.31 0 0,0 17.85,21.43 A 11.43,11.43 0 0,0 12.33,20 C 9.62,20 6.12,21.25 6.12,24.5 C 6.12,25.8 6.57,26.81 7.46,27.55 C 8.36,28.29 9.78,28.78 11.71,29.03 L 12.55,29.14 C 14.91,29.47 16.51,30.24 16.51,31.47 C 16.51,33.44 13.73,34 12.21,34 Z M 20,28 C 20,26.4 20.35,25 21.04,23.8 A 7.05,7.05 0 0,1 23.99,20.99 A 9.57,9.57 0 0,1 28.44,20 C 29.34,20 30.23,20.12 31.12,20.36 C 32.02,20.6 32.88,20.96 33.72,21.41 C 33.86,21.47 33.93,21.57 33.93,21.71 A 0.4,0.4 0 0,1 33.87,21.91 L 33.23,23.19 A 0.31,0.31 0 0,1 32.93,23.39 A 0.35,0.35 0 0,1 32.73,23.34 C 31.38,22.63 29.98,22 28.44,22 C 25.04,22 22,24.63 22,28 C 22,31.44 25.12,34 28.44,34 C 29.52,34 30.98,33.61 32,33.23 V 31.32 C 32,31.07 32.14,31 32.4,31 H 33.63 C 33.88,31 34,31.07 34,31.32 V 34.07 C 34,34.4 33.86,34.64 33.58,34.79 A 10.3,10.3 0 0,1 28.44,36 C 26.75,36 25.27,35.67 23.99,35.01 A 7.05,7.05 0 0,1 21.04,32.21 A 8.31,8.31 0 0,1 20,28 Z M 29,28.68 C 29,28.93 29.1,29 29.35,29 H 33.63 C 33.88,29 34,28.93 34,28.68 V 27.38 C 34,27.13 33.88,27 33.63,27 H 29.35 C 29.11,27 29,27.13 29,27.38 V 28.68 Z M 37,20.38 C 37,20.13 37.12,20 37.36,20 H 38.68 C 38.92,20 39,20.13 39,20.39 V 26.99 H 44.63 C 44.87,26.99 45,27.13 45,27.39 V 28.71 C 45,28.97 44.87,29 44.63,29 H 39 V 35.61 C 39,35.87 38.88,36 38.64,36 H 37.36 C 37.12,36 37,35.87 37,35.61 V 20.4 Z M 47,20.38 C 47,20.13 47.19,20 47.43,20 H 48.63 C 48.88,20 49,20.13 49,20.39 V 35.6 C 49,35.86 48.88,35.99 48.64,35.99 H 47.34 C 47.09,35.99 47,35.86 47,35.6 V 20.4 Z" fill="rgb(254, 254, 253)"/>
</svg>
