<?xml version="1.0" encoding="UTF-8"?>
<!-- generated by Finnhub -->
<svg viewBox="0 0 55.5 55.5" xmlns="http://www.w3.org/2000/svg">
<path d="M 0,0 H 55.5 V 55.5 H 0 Z" fill="rgb(239, 242, 248)"/>
<path d="M 31.7,14.295 C 30.44,15.04 29.22,15.83 28.06,16.68 L 27.95,16.71 A 34.16,34.16 0 0,0 24.33,14.33 A 47.34,47.34 0 0,1 28,10.02 C 28.02,9.99 28.04,9.99 28.06,10.02 A 46.1,46.1 0 0,1 31.71,14.32 Z" fill="rgb(153, 228, 202)"/>
<path d="M 24.319999999999997,14.315 V 14.34 A 24.03,24.03 0 0,0 20.66,20.76 A 8.66,8.66 0 0,0 20.13,24.32 C 20.24,26.1 20.7,27.67 21.51,29.01 A 7.5,7.5 0 0,0 27.16,32.66 L 27.27,32.65 L 27.4,32.59 C 27.56,32.62 27.7,32.68 27.84,32.76 A 8,8 0 0,1 23.4,32.6 A 7.31,7.31 0 0,1 19.84,30.14 A 8.5,8.5 0 0,1 18.07,26.24 C 17.95,25.5 17.98,24.62 18.17,23.6 C 18.42,22.21 18.87,20.73 19.56,19.15 A 40.06,40.06 0 0,1 22.57,13.44 C 22.6,13.4 22.64,13.39 22.67,13.41 L 24.33,14.33 Z" fill="rgb(125, 231, 128)"/>
<path d="M 28.25,32.765 C 28.42,32.74 28.62,32.7 28.88,32.68 A 7.22,7.22 0 0,0 32.38,31.37 A 8.3,8.3 0 0,0 35.75,25.75 C 35.94,24.69 35.99,23.73 35.9,22.89 C 35.8,21.86 35.47,20.76 34.93,19.59 C 34.33,18.29 33.63,17.03 32.8,15.83 A 51.82,51.82 0 0,0 31.71,14.31 L 33.34,13.41 C 33.37,13.39 33.4,13.39 33.43,13.43 A 40.02,40.02 0 0,1 36.68,19.73 A 16.47,16.47 0 0,1 38,24.94 A 6.4,6.4 0 0,1 37.63,27.46 A 7.99,7.99 0 0,1 33.54,32.22 A 7.87,7.87 0 0,1 28.27,32.77 Z" fill="rgb(201, 254, 150)"/>
<path d="M 24.319999999999997,14.325 C 25.59,15.06 26.8,15.84 27.95,16.71 C 27.89,16.77 27.75,16.89 27.51,17.07 A 21.8,21.8 0 0,0 24.09,20.21 A 7.81,7.81 0 0,0 22.36,27.29 A 7.22,7.22 0 0,0 25.53,31.69 C 26.01,32 26.63,32.3 27.4,32.59 L 27.27,32.65 A 0.24,0.24 0 0,1 27.17,32.66 A 7.5,7.5 0 0,1 21.51,29.01 C 20.71,27.67 20.24,26.11 20.13,24.31 C 20.05,23.11 20.23,21.93 20.66,20.76 C 21.42,18.66 22.65,16.52 24.33,14.34 Z" fill="rgb(73, 205, 96)"/>
<path d="M 31.7,14.285 C 32.09,14.8 32.45,15.31 32.8,15.83 C 33.63,17.03 34.34,18.28 34.93,19.58 C 35.47,20.76 35.79,21.86 35.9,22.88 C 35.99,23.73 35.94,24.68 35.75,25.75 A 8.3,8.3 0 0,1 32.38,31.37 A 7.22,7.22 0 0,1 28.88,32.67 C 28.62,32.7 28.42,32.74 28.26,32.78 L 28.14,32.74 A 0.52,0.52 0 0,1 28.18,32.7 A 6.58,6.58 0 0,0 33.33,28.28 A 7.73,7.73 0 0,0 33.79,24.32 A 9.45,9.45 0 0,0 33.45,22.8 A 5.53,5.53 0 0,0 33.03,21.88 H 33.01 A 0.09,0.09 0 0,1 33,21.8 A 0.1,0.1 0 0,0 32.97,21.7 A 27.72,27.72 0 0,0 28.33,16.93 A 0.2,0.2 0 0,1 28.26,16.86 A 0.3,0.3 0 0,0 28.06,16.68 A 40.16,40.16 0 0,1 31.71,14.31 Z" fill="rgb(121, 230, 124)"/>
<path d="M 28.049999999999997,16.665 C 28.16,16.71 28.23,16.77 28.26,16.86 A 0.2,0.2 0 0,0 28.33,16.94 C 29.42,17.77 30.4,18.62 31.27,19.5 A 10.95,10.95 0 0,1 32.97,21.7 C 33,21.73 33,21.76 33,21.8 C 32.99,21.83 33,21.85 33.01,21.87 L 33.03,21.88 A 5.53,5.53 0 0,1 33.44,22.8 A 9.45,9.45 0 0,1 33.83,24.85 A 5.4,5.4 0 0,0 33.85,25.56 A 7.73,7.73 0 0,1 33.33,28.28 C 33.09,28.88 32.77,29.45 32.36,29.97 A 7.8,7.8 0 0,1 28.18,32.7 A 0.5,0.5 0 0,0 28.14,32.74 A 0.87,0.87 0 0,0 27.84,32.76 A 9.76,9.76 0 0,1 25.53,31.69 A 7.22,7.22 0 0,1 22.37,27.29 A 7.81,7.81 0 0,1 24.09,20.21 A 21.8,21.8 0 0,1 27.51,17.07 C 27.75,16.89 27.89,16.77 27.95,16.71 L 28.06,16.68 Z" fill="rgb(58, 205, 57)"/>
<path d="M 28.15,44.315 L 28.24,44.2 C 28.29,44.13 28.31,44.14 28.31,44.22 C 28.33,44.93 28.42,45.44 28.58,45.75 C 28.6,45.79 28.63,45.81 28.66,45.82 C 28.83,45.87 29,45.89 29.18,45.86 C 29.3,45.85 29.35,45.78 29.33,45.67 A 9.2,9.2 0 0,1 29.47,41.74 A 0.9,0.9 0 0,0 29.49,41.54 V 41.4 C 29.5,41.35 29.53,41.33 29.57,41.32 C 29.89,41.27 30.2,41.19 30.5,41.07 C 30.6,41.03 30.67,40.95 30.71,40.82 L 30.74,40.75 C 30.76,40.7 30.74,40.67 30.68,40.66 A 6.7,6.7 0 0,0 27.29,41.12 A 0.46,0.46 0 0,0 26.99,41.46 C 26.98,41.5 26.99,41.54 27.02,41.56 C 27.28,41.78 27.6,41.83 28,41.7 C 28.2,41.64 28.35,41.6 28.46,41.6 C 28.53,41.58 28.56,41.61 28.53,41.67 C 28.18,42.56 27.72,43.42 27.15,44.24 C 27.08,44.34 27.01,44.34 26.92,44.26 C 26.82,44.16 26.72,44 26.66,43.78 A 4.27,4.27 0 0,1 26.42,42.61 C 26.42,42.51 26.42,42.37 26.46,42.18 L 26.49,41.84 A 3.14,3.14 0 0,1 26.6,41.07 C 26.69,40.63 26.78,40.33 26.88,40.16 C 26.95,40.06 26.99,39.94 27.02,39.82 C 27.06,39.63 27.14,39.45 27.24,39.28 L 28.39,37.3 C 28.57,36.98 28.83,36.78 29.19,36.69 C 29.35,36.65 29.43,36.71 29.42,36.87 C 29.42,37.08 29.39,37.24 29.35,37.35 C 29.22,37.68 29.09,37.99 28.95,38.28 L 28.8,38.48 A 0.73,0.73 0 0,0 28.62,38.93 C 28.62,39.04 28.68,39.09 28.8,39.09 C 29.16,39.07 29.43,38.89 29.6,38.56 C 29.89,38.03 30.05,37.52 30.1,37.03 C 30.15,36.51 29.92,36.22 29.4,36.15 A 3.42,3.42 0 0,1 28.76,36.01 A 0.18,0.18 0 0,0 28.64,36.01 C 27.96,36.28 27.39,36.71 26.93,37.27 C 26.52,37.79 26.2,38.27 26,38.71 A 8.36,8.36 0 0,0 25.4,44.31 C 25.44,44.48 25.51,44.63 25.62,44.75 C 25.97,45.2 26.35,45.4 26.74,45.35 C 27.04,45.31 27.32,45.19 27.59,45 C 27.75,44.89 27.94,44.66 28.16,44.33 Z M 34.96,36.53 A 4.3,4.3 0 0,0 31.8,36.62 A 2,2 0 0,0 31.36,36.88 A 0.16,0.16 0 0,0 31.3,37.04 C 31.31,37.11 31.35,37.15 31.42,37.18 C 31.67,37.25 32.02,37.21 32.47,37.06 C 32.75,36.96 32.96,36.91 33.1,36.89 C 33.51,36.85 33.93,36.84 34.38,36.85 C 34.64,36.85 34.84,36.77 34.98,36.59 C 35.01,36.56 35,36.53 34.97,36.52 Z M 32.47,44.79 C 32.17,44.74 31.99,44.55 31.91,44.24 A 4.94,4.94 0 0,1 31.78,42.65 L 31.82,41.92 C 31.87,41.09 31.94,40.46 32.02,40.05 L 32.48,37.69 C 32.5,37.61 32.48,37.53 32.42,37.44 A 0.11,0.11 0 0,1 32.41,37.34 C 32.48,37.08 32.64,36.98 32.88,37.04 C 33.2,37.12 33.48,37.23 33.69,37.36 C 33.89,37.48 33.95,37.64 33.89,37.84 A 18.6,18.6 0 0,0 33.06,43.69 C 33.08,44.02 33.09,44.26 33.08,44.43 C 33.08,44.47 33.06,44.48 33.02,44.48 C 32.88,44.48 32.78,44.56 32.73,44.73 C 32.72,44.79 32.73,44.81 32.8,44.8 H 32.87 C 33.59,44.68 34.08,44.73 34.35,44.95 C 34.39,44.98 34.39,45.02 34.35,45.06 C 34.23,45.18 33.99,45.24 33.61,45.25 H 33.41 C 33.18,45.27 32.83,45.36 32.36,45.52 L 31.96,45.65 A 2.4,2.4 0 0,1 30.94,45.65 C 30.9,45.65 30.87,45.62 30.86,45.58 C 30.84,45.48 30.86,45.38 30.89,45.29 A 0.1,0.1 0 0,1 30.97,45.23 L 31.12,45.22 L 31.37,45.17 C 31.76,45.04 32.13,44.93 32.47,44.84 C 32.55,44.82 32.55,44.81 32.47,44.79 Z M 22.1,42.65 C 22.11,43.45 22.16,44.28 22.25,45.16 C 22.26,45.26 22.28,45.36 22.32,45.46 C 22.37,45.61 22.32,45.71 22.17,45.76 L 21.54,45.99 C 21.48,46.01 21.43,45.99 21.4,45.94 A 1.81,1.81 0 0,1 21.16,45.2 C 21.02,43.8 20.98,42.68 21.04,41.84 C 21.1,40.98 21.19,40.29 21.31,39.74 C 21.49,38.92 21.68,38.09 21.88,37.28 A 0.63,0.63 0 0,0 21.86,36.92 A 0.22,0.22 0 0,1 21.91,36.69 C 21.97,36.62 22.04,36.59 22.13,36.61 C 22.75,36.7 23.07,37.01 23.1,37.52 C 23.1,37.6 23.12,37.61 23.16,37.54 C 23.53,36.94 24.01,36.78 24.6,37.04 C 24.97,37.2 25.2,37.53 25.3,38.01 C 25.39,38.41 25.37,38.82 25.24,39.23 A 6.45,6.45 0 0,1 23.04,42.42 A 0.9,0.9 0 0,1 22.17,42.6 C 22.12,42.58 22.1,42.6 22.1,42.65 Z M 24.27,37.58 C 24.54,39.05 23.87,40.42 22.26,41.68 C 22.21,41.72 22.18,41.7 22.19,41.64 A 8.43,8.43 0 0,1 22.73,39.1 C 23.14,38.17 23.57,37.62 24.01,37.44 C 24.16,37.38 24.25,37.43 24.27,37.58 Z" fill="rgb(101, 101, 100)" fill-rule="evenodd"/>
</svg>
