<?xml version="1.0" encoding="UTF-8"?>
<!-- generated by Finnhub -->
<svg viewBox="0 0 55.5 55.5" xmlns="http://www.w3.org/2000/svg">
<path d="M 0,0 H 55.5 V 55.5 H 0 Z" fill="rgb(239, 242, 248)"/>
<path d="M 43.830000000000005,30.245 A 16.13,16.13 0 0,0 43.95,26.79 A 151,151 0 0,0 39.93,28.86 L 40.77,29.2 C 41.5,29.48 42.12,29.68 42.71,29.87 A 60.87,60.87 0 0,1 43.84,30.26 Z M 43.31,32.65 A 13.34,13.34 0 0,0 42.01,32.2 C 41.41,32 40.69,31.76 39.9,31.46 C 39.12,31.16 38.26,30.79 37.3,30.3 A 71.98,71.98 0 0,0 32.33,33.33 A 24.52,24.52 0 0,0 41.65,36.35 C 42.35,35.2 42.92,33.96 43.31,32.65 Z M 40.01,38.58 A 27.88,27.88 0 0,1 30.21,34.92 L 30.06,35.06 A 17.9,17.9 0 0,1 26.92,37.23 C 29.65,38.68 33.49,40.73 35.76,41.99 C 37.36,41.1 38.8,39.94 40.01,38.58 Z M 32.96,43.22 C 30.18,41.71 26.43,39.71 24.28,38.57 C 22.32,39.47 20.26,40.27 18.49,40.87 A 15.93,15.93 0 0,0 32.96,43.22 Z M 16.39,39.02 A 60.7,60.7 0 0,0 23.79,36.12 C 25.5,35.3 27.02,34.42 28.09,33.55 C 27.24,32.95 26.38,32.3 25.51,31.58 A 26.54,26.54 0 0,0 21.59,28.91 A 70.33,70.33 0 0,1 12.79,32.97 A 16,16 0 0,0 16.39,39.01 Z M 12.21,30.6 A 16.1,16.1 0 0,1 12.23,25.27 C 13.88,25.65 16.34,26.39 18.95,27.57 A 70.93,70.93 0 0,1 12.21,30.6 Z M 12.82,22.92 C 14.94,23.41 18.22,24.44 21.54,26.14 A 24.9,24.9 0 0,0 24.57,24.04 C 25.07,23.63 25.6,23.22 26.14,22.81 A 46.11,46.11 0 0,0 15.46,18.06 A 15.97,15.97 0 0,0 12.82,22.92 Z M 17.32,16.09 C 20.02,16.97 24.13,18.66 28.32,21.3 C 31.62,19.15 35.4,17.31 38.88,16.27 A 15.94,15.94 0 0,0 28,12 C 23.9,12 20.15,13.55 17.31,16.1 Z M 40.72,18.29 C 37.5,19.08 33.82,20.74 30.51,22.79 C 31.06,23.18 31.61,23.59 32.16,24.03 A 40,40 0 0,0 37.28,27.53 C 39.59,26.27 41.87,25.11 43.57,24.28 A 15.94,15.94 0 0,0 40.71,18.28 Z M 26.12,25.91 C 26.81,25.33 27.55,24.77 28.33,24.21 C 29.11,24.75 29.89,25.32 30.66,25.93 A 45.43,45.43 0 0,0 34.86,28.91 A 58.22,58.22 0 0,0 30.06,31.96 C 29.08,31.3 28.07,30.56 27.06,29.72 A 27.77,27.77 0 0,0 23.95,27.49 C 24.73,26.98 25.46,26.45 26.11,25.91 Z" fill="rgb(246, 147, 28)"/>
</svg>
