<?xml version="1.0" encoding="UTF-8"?>
<!-- generated by Finnhub -->
<svg viewBox="0 0 55.5 55.5" xmlns="http://www.w3.org/2000/svg">
<path d="M0 0h55.5v55.5H0z" fill="rgb(239, 242, 248)"/>
<path d="M9 21v14h2.49v-5h2.63C16.9 30 19 28.49 19 25.63c0-2.82-2.09-4.63-4.85-4.63H9Zm2.49 7h2.3c1.56 0 2.67-.76 2.67-2.37A2.6 2.6 0 0 0 13.77 23H11.5v5Zm9-7H23v14h-2.5V21ZM35 21h-9v14h2.55v-6H34v-2h-5.45v-4H35v-2Zm7.4 0H37v14h2.6v-5h2.73l2.76 5H48l-3.1-5.52a4.2 4.2 0 0 0 2.57-4c0-2.93-2.33-4.48-5.07-4.48Zm-2.8 7h2.41c1.5 0 2.99-.86 2.99-2.52C45 23.8 43.52 23 42 23h-2.4v5Z" fill-rule="evenodd"/>
</svg>
