<?xml version="1.0" encoding="UTF-8"?>
<!-- generated by Finnhub -->
<svg fill="none" viewBox="0 0 55.5 55.5" xmlns="http://www.w3.org/2000/svg">
<path d="M 0,0 H 55.5 V 55.5 H 0 Z" fill="url(#a)"/>
<path d="M 15.99,25.985 H 18 V 33 H 16 Z M 38,26 H 40 V 33 H 38 Z" fill="rgb(254, 254, 253)"/>
<path d="M 15.99,21.985 H 18 V 24 H 16 Z" fill="rgb(253, 130, 6)"/>
<path d="M 37.99,21.985 H 40 V 24 H 38 Z" fill="rgb(2, 129, 125)"/>
<path d="M 6.99,21.985 H 9 V 28.217 L 11.677,25.608 L 12.962,26.923 L 10.569,29.255 L 13.5,31.561 L 12.361,33.004 L 9.001,30.36 V 33.004 H 7 V 22 Z M 43,21.996 H 45 V 28.213 L 47.677,25.605 L 48.962,26.919 L 46.569,29.252 L 49.5,31.557 L 48.361,33 L 45.001,30.357 V 33 H 43 V 21.996 Z M 27,22 H 25 V 26.337 A 3.5,3.5 0 0,0 20,29.502 A 3.5,3.5 0 0,0 25.668,32.251 V 33 H 27 V 29.506 V 29.502 V 22 Z M 25,29.504 V 29.501 V 29.498 A 1.5,1.5 0 1,0 25,29.504 Z M 29,37 H 31 V 32.663 A 3.5,3.5 0 0,0 36,29.498 A 3.5,3.5 0 0,0 30.332,26.749 V 26 H 29 V 37 Z M 31,29.496 V 29.502 A 1.5,1.5 0 1,0 31,29.496 Z" clip-rule="evenodd" fill="rgb(254, 254, 253)" fill-rule="evenodd"/>
<defs>
<linearGradient id="a" x1="10.418" x2="68.147" y1="9.712" y2="76.017" gradientUnits="userSpaceOnUse">
<stop stop-color="rgb(25, 29, 31)" offset="0"/>
<stop stop-color="rgb(5, 5, 8)" offset="1"/>
</linearGradient>
</defs>
</svg>
