<?xml version="1.0" encoding="UTF-8"?>
<!-- generated by Finnhub -->
<svg viewBox="0 0 55.5 55.5" xmlns="http://www.w3.org/2000/svg">
<path d="M 0,0 H 55.5 V 55.5 H 0 Z" fill="rgb(239, 242, 248)"/>
<path d="M 4.99,24.985 H 5.6 V 25.93 A 1.8,1.8 0 0,1 7.2,25 C 8.64,25 9.01,26.24 9.01,26.95 V 30 H 8.53 V 27.08 C 8.47,26.6 8.1,25.62 7.06,25.62 C 6.29,25.62 5.83,26.3 5.59,26.92 V 30 H 5 V 25 Z M 47,25 H 47.6 V 25.93 C 47.84,25.5 48.34,25 49.2,25 C 50.63,25 51,26.24 51,26.95 V 30 H 50.52 V 27.08 C 50.46,26.6 50.09,25.62 49.06,25.62 C 48.29,25.62 47.83,26.3 47.59,26.92 V 30 H 47 V 25 Z M 14.5,27.7 V 27.5 C 14.5,26.12 13.5,25 12.25,25 C 11.01,25 10,26.12 10,27.5 S 11,30 12.25,30 C 13.24,30 14.07,29.3 14.38,28.31 H 13.81 C 13.53,28.96 12.94,29.41 12.25,29.41 C 11.36,29.41 10.63,28.67 10.54,27.71 H 14.49 Z M 12.25,25.59 C 13.08,25.59 13.77,26.23 13.94,27.09 H 10.56 C 10.73,26.23 11.42,25.59 12.25,25.59 Z M 35,27.5 V 27.7 H 31.04 C 31.14,28.67 31.86,29.41 32.75,29.41 C 33.44,29.41 34.03,28.96 34.31,28.31 H 34.88 A 2.28,2.28 0 0,1 32.75,30 C 31.51,30 30.5,28.88 30.5,27.5 S 31.5,25 32.75,25 C 33.99,25 35,26.12 35,27.5 Z M 34.44,27.1 C 34.27,26.23 33.58,25.59 32.75,25.59 S 31.23,26.23 31.07,27.09 H 34.44 Z M 46,27.6 V 27.5 C 46,26.12 45,25 43.75,25 C 42.51,25 41.5,26.12 41.5,27.5 S 42.5,30 43.75,30 C 44.77,30 45.64,29.24 45.91,28.2 H 45.35 A 1.74,1.74 0 0,1 43.75,29.41 C 42.83,29.41 42.08,28.61 42.03,27.61 H 42.84 V 27.6 H 46 Z M 43.75,25.59 C 44.55,25.59 45.22,26.19 45.41,27 H 42.1 C 42.3,26.19 42.96,25.59 43.76,25.59 Z M 38.25,30 C 38.91,30 39.51,29.68 39.92,29.17 V 30.14 A 1.37,1.37 0 0,1 38.45,31.4 C 37.35,31.4 36.98,30.68 36.94,30.31 H 36.31 C 36.39,30.88 36.93,32 38.45,32 C 39.98,32 40.45,30.76 40.5,30.14 V 25 H 39.92 V 25.83 C 39.51,25.32 38.92,25 38.25,25 C 37.01,25 36,26.12 36,27.5 S 37,30 38.25,30 Z M 38.25,29.41 C 39.05,29.41 39.73,28.8 39.92,27.97 V 27.03 C 39.73,26.2 39.06,25.59 38.25,25.59 C 37.3,25.59 36.53,26.44 36.53,27.5 S 37.3,29.41 38.25,29.41 Z M 29.1,25 V 25.62 H 28.99 C 28.25,25.62 27.8,26.3 27.57,26.92 V 30 H 27 V 25 H 27.57 V 25.93 C 27.81,25.5 28.29,25.01 29.1,25 Z M 24.5,27 A 0.5,0.5 0 1,0 24.5,26 A 0.5,0.5 0 0,0 24.5,27 Z M 25,28.52 C 25,28.82 24.78,29.05 24.5,29.05 A 0.51,0.51 0 0,1 24,28.52 C 24,28.23 24.22,28 24.5,28 S 25,28.23 25,28.52 Z M 15.5,25 L 16.91,30 H 17.55 L 18.77,25.87 L 19.97,30 H 20.59 L 22,25 H 21.34 L 20.25,29.31 L 19.08,25 H 18.42 L 17.22,29.31 L 16.17,25 H 15.5 Z" fill="rgb(9, 15, 73)" fill-rule="evenodd"/>
</svg>
