<?xml version="1.0" encoding="UTF-8"?>
<!-- generated by Finnhub -->
<svg viewBox="0 0 55.5 55.5" xmlns="http://www.w3.org/2000/svg">
<path d="M 0,0 H 55.5 V 55.5 H 0 Z" fill="rgb(239, 242, 248)"/>
<path d="M 30.49,15.985 H 29 V 23 H 34 V 22 H 30.5 V 20 H 33 V 19 H 30.5 V 17 H 34 V 16 H 30.5 Z M 35.5,33 H 34 V 40 H 39 V 39 H 35.5 V 37 H 38 V 36 H 35.5 V 34 H 39 V 33 H 35.5 Z M 36.5,16 H 35 V 23 H 40 V 22 H 36.5 V 16 Z M 42.5,16 H 41 V 23 H 46 V 22 H 42.5 V 16 Z M 11.5,33 H 10 V 40 H 15 V 39 H 11.5 V 33 Z M 16,33 H 17.5 V 40 H 16 V 33 Z M 26,33 H 27.5 V 40 H 26 V 33 Z" fill="rgb(14, 53, 115)"/>
<path d="M 43.06,32.985 H 40 V 40 H 43.07 C 44.14,40 45,39.09 45,37.97 V 35.02 C 45,33.9 44.14,33 43.07,33 Z M 42.06,34 H 41.5 V 39 H 42.06 C 42.86,39 43.5,38.43 43.5,37.72 V 35.28 C 43.5,34.58 42.85,34 42.06,34 Z" fill="rgb(14, 53, 115)" fill-rule="evenodd"/>
<path d="M 33.49,34.405 V 33 H 28 V 34.42 H 30 V 40 H 31.5 V 34.42 H 33.5 Z M 10.68,16 H 10 V 23 H 11.5 V 20 H 13 A 2,2 0 1,0 13,16 H 10.68 Z M 11.5,19 V 17 H 12.5 A 1,1 0 1,1 12.5,19 H 11.5 Z" fill="rgb(14, 53, 115)"/>
<path d="M 18.009999999999998,15.985 C 16.9,16 16,16.99 16,18.2 V 20.8 C 16,22.01 16.9,23 18.02,23 H 18.98 C 20.1,23 21,22.01 21,20.8 V 18.2 C 21,16.99 20.1,16 18.98,16 H 18.02 Z M 18.5,17 C 17.67,17 17.5,17.57 17.5,18.28 V 20.72 C 17.5,21.42 17.67,22 18.5,22 S 19.5,21.43 19.5,20.72 V 18.28 C 19.5,17.58 19.33,17 18.5,17 Z" fill="rgb(14, 53, 115)" fill-rule="evenodd"/>
<path d="M 20.49,39.985 H 19 V 33 H 20.5 L 22.05,35.37 L 23.6,33 H 25 V 40 H 23.5 V 35.34 L 22.49,36.99 H 21.59 L 20.5,35.34 V 40 Z M 19.5,32 H 18 V 25 H 19.5 L 21.05,27.37 L 22.6,25 H 24 V 32 H 22.5 V 27.34 L 21.49,28.99 H 20.59 L 19.5,27.34 V 32 Z M 23.5,16 H 22 V 23 H 23.5 L 25.05,20.63 L 26.6,23 H 28 V 16 H 26.5 V 20.66 L 25.49,19.01 H 24.59 L 23.5,20.66 V 16 Z" fill="rgb(14, 53, 115)"/>
<path d="M 24.99,31.985 L 27.18,25 H 28.82 L 31,32 H 29.65 L 29.34,31 H 26.66 L 26.35,32 H 25 Z M 26.97,30 H 29.03 L 28,26.69 L 26.97,30 Z" fill="url(#a)"/>
<path d="M 35.370000000000005,24.985 H 37 L 34.8,28.5 L 37,32 H 35.38 L 34,29.79 L 32.62,32 H 31 L 33.2,28.5 L 31,25 H 32.62 L 34,27.21 L 35.38,25 Z" fill="rgb(14, 53, 115)"/>
<defs>
<linearGradient id="a" x1="28" x2="28" y1="25" y2="32" gradientUnits="userSpaceOnUse">
<stop stop-color="rgb(222, 238, 248)" offset="0"/>
<stop stop-color="rgb(82, 145, 198)" offset=".26"/>
<stop stop-color="rgb(14, 53, 115)" offset=".46"/>
</linearGradient>
</defs>
</svg>
