<?xml version="1.0" encoding="UTF-8"?>
<!-- generated by Finnhub -->
<svg viewBox="0 0 55.5 55.5" xmlns="http://www.w3.org/2000/svg">
<path d="M 0,0 H 55.5 V 55.5 H 0 Z" fill="rgb(239, 242, 248)"/>
<path d="M 16.99,19.985 H 16 V 19.16 L 18,18 V 45 S 17.44,44.46 17,44 V 20 Z" fill="rgb(1, 169, 235)"/>
<path d="M 29.49,10.985 L 40,17 V 29 L 29.5,35 L 21,30.14 V 48 L 19,45.5 V 17 L 29.5,11 Z M 21,27 V 28 L 29.5,33 L 38,28 V 18 L 29.5,13 L 21,18 V 27 Z" fill="rgb(39, 33, 102)"/>
<path d="M 34.99,18.985 H 37 V 28 H 35 Z M 30.1,15 L 31,16.5 L 22.9,21 L 22,19.5 L 30.1,15 Z M 30.1,32 L 31,30.5 L 22.9,26 L 22,27.5 L 30.1,32 Z" fill="rgb(1, 169, 235)"/>
</svg>
