<?xml version="1.0" encoding="UTF-8"?>
<!-- generated by Finnhub -->
<svg viewBox="0 0 55.5 55.5" xmlns="http://www.w3.org/2000/svg">
<path d="M 0,0 H 55.5 V 55.5 H 0 Z" fill="rgb(239, 242, 248)"/>
<path d="M 43.690000000000005,34.485 A 16.83,16.83 0 0,0 43.7,21.5 A 16.83,16.83 0 0,0 40.02,15.98 A 16.83,16.83 0 0,0 34.51,12.29 A 16.83,16.83 0 0,0 21.49,12.29 C 19.41,13.16 17.57,14.39 15.98,15.98 A 16.83,16.83 0 0,0 12.29,21.49 A 16.83,16.83 0 0,0 12.29,34.51 C 13.16,36.59 14.39,38.43 15.98,40.02 A 16.83,16.83 0 0,0 34.5,43.7 A 16.83,16.83 0 0,0 43.7,34.5 Z M 43.58,34.45 A 16.7,16.7 0 0,0 43.58,21.55 A 16.72,16.72 0 0,0 34.45,12.42 A 16.7,16.7 0 0,0 21.55,12.42 A 16.72,16.72 0 0,0 12.42,21.55 A 16.7,16.7 0 0,0 12.42,34.45 A 16.72,16.72 0 0,0 21.55,43.58 A 16.7,16.7 0 0,0 34.45,43.58 A 16.72,16.72 0 0,0 43.58,34.45 Z" fill-rule="evenodd"/>
<path d="M 39.580000000000005,32.785 A 12.43,12.43 0 0,0 39.59,23.2 A 12.43,12.43 0 0,0 32.8,16.41 A 12.43,12.43 0 0,0 23.2,16.41 A 12.43,12.43 0 0,0 16.41,23.2 A 12.43,12.43 0 0,0 16.41,32.8 A 12.43,12.43 0 0,0 23.2,39.59 A 12.43,12.43 0 0,0 32.8,39.59 A 12.43,12.43 0 0,0 39.59,32.8 Z M 39.46,32.75 A 12.29,12.29 0 0,0 39.46,23.25 A 12.29,12.29 0 0,0 32.75,16.54 A 12.29,12.29 0 0,0 23.25,16.54 A 12.29,12.29 0 0,0 16.54,23.25 A 12.29,12.29 0 0,0 16.54,32.75 A 12.29,12.29 0 0,0 23.25,39.47 A 12.29,12.29 0 0,0 32.75,39.47 A 12.29,12.29 0 0,0 39.46,32.75 Z" fill-rule="evenodd"/>
<path d="M 32.56,27.884999999999998 C 32.52,27.91 32.52,27.92 32.57,27.93 C 32.72,27.97 32.95,27.99 33.26,27.98 H 33.66 C 33.83,28 34,28.04 34.18,28.12 C 34.41,28.22 34.58,28.39 34.66,28.64 C 34.75,28.86 34.72,29.07 34.59,29.27 A 0.9,0.9 0 0,1 34.06,29.64 C 33.86,29.7 33.68,29.73 33.49,29.73 A 1662.33,1662.33 0 0,0 29.22,29.75 C 28.74,29.77 28.39,29.78 28.15,29.77 C 27.35,29.72 26.96,29.41 26.97,28.85 C 26.99,28.29 27.41,28 28.25,27.99 C 28.65,27.99 29.1,28 29.62,28.03 C 29.65,28.03 29.67,28.01 29.66,27.98 C 29.63,27.82 29.49,27.76 29.22,27.8 C 29.03,27.83 28.85,27.84 28.69,27.84 C 28.26,27.83 28.09,27.54 28.19,26.98 L 28.45,25.48 C 28.64,24.33 28.36,23.49 27.63,22.98 A 3.83,3.83 0 0,0 27.05,22.66 A 62.07,62.07 0 0,0 23.02,20.99 C 23,20.99 22.98,20.99 22.98,21.02 C 23.02,21.61 23.08,22.17 23.13,22.72 L 23.46,25.7 C 23.51,26.18 23.51,26.6 23.46,26.96 S 23.46,27.67 23.59,28.03 C 23.73,28.41 23.95,28.7 24.24,28.87 C 24.28,28.9 24.32,28.93 24.34,28.97 C 24.38,29.05 24.36,29.07 24.28,29.03 A 0.87,0.87 0 0,0 24.08,28.97 C 23.48,28.85 22.89,28.69 22.31,28.49 C 21.94,28.37 21.78,28.11 21.81,27.72 C 21.85,27.35 22.01,27.05 22.26,26.83 A 0.64,0.64 0 0,0 22.41,26.65 A 0.1,0.1 0 0,0 22.41,26.57 C 22.36,26.42 22.29,26.27 22.21,26.12 A 0.45,0.45 0 0,1 22.15,25.89 V 25.52 L 22.14,24.85 A 51.67,51.67 0 0,0 21.91,22.48 A 6.71,6.71 0 0,0 21.49,20.16 C 21.39,19.84 21.36,19.52 21.39,19.21 C 21.39,19.16 21.42,19.14 21.46,19.13 C 21.64,19.09 21.82,19.07 22,19.07 C 22.03,19.07 22.04,19.07 22.05,19.1 C 22.09,19.2 22.11,19.29 22.12,19.38 C 22.12,19.41 22.12,19.42 22.15,19.43 L 23.81,20.06 C 23.97,20.12 24.17,20.16 24.41,20.18 C 24.51,20.18 24.6,20.21 24.69,20.24 C 25.41,20.46 26.13,20.74 26.87,21.09 C 27.07,21.19 27.27,21.38 27.43,21.66 C 27.47,21.73 27.53,21.78 27.61,21.8 L 28.17,21.98 C 28.53,22.08 28.81,22.3 29.03,22.61 C 29.18,22.84 29.33,23.16 29.45,23.59 C 29.46,23.62 29.48,23.64 29.51,23.64 C 29.8,23.62 30.09,23.62 30.41,23.62 C 31.03,23.62 31.46,23.83 31.68,24.23 L 31.89,24.68 C 32.05,25.04 32.19,25.29 32.31,25.44 C 32.33,25.46 32.35,25.47 32.38,25.47 C 32.73,25.44 32.95,25.27 33.04,24.96 C 33.06,24.89 33.09,24.89 33.13,24.95 L 33.17,25.02 C 33.27,25.22 33.36,25.31 33.44,25.32 H 33.66 C 33.88,25.32 34.04,25.32 34.14,25.34 C 34.33,25.38 34.52,25.44 34.71,25.54 C 34.85,25.6 34.94,25.7 34.98,25.83 A 1.7,1.7 0 0,1 35.02,26.35 V 27.31 C 35.02,27.57 34.92,27.75 34.72,27.82 A 1.81,1.81 0 0,1 34.05,27.87 A 16.32,16.32 0 0,0 32.57,27.9 Z"/>
<path d="M 25.59,32.144999999999996 C 25.89,32.2 26.27,31.96 26.76,31.43 L 26.78,31.41 A 0.17,0.17 0 0,1 26.89,31.35 L 33.71,30.76 A 51.9,51.9 0 0,1 36.86,30.61 C 37.18,30.6 37.49,30.62 37.8,30.67 C 37.88,30.68 37.92,30.73 37.92,30.81 C 37.92,31.53 37.73,32.29 37.36,33.08 A 8.56,8.56 0 0,1 34.79,36.3 C 33.14,37.58 31.21,38.31 29.01,38.51 C 26.82,38.71 24.79,38.34 22.91,37.41 A 9.52,9.52 0 0,1 19.85,35.01 A 8,8 0 0,1 17.93,30.31 C 17.9,29.94 17.83,29.54 17.76,29.11 C 17.74,29.01 17.74,28.83 17.76,28.59 C 17.78,28.04 18.19,27.71 18.98,27.61 C 19.18,27.59 19.37,27.59 19.52,27.61 C 19.82,27.68 20.07,27.95 20.26,28.43 L 20.3,28.55 C 20.47,29 20.62,29.32 20.74,29.52 C 20.91,29.81 21.2,29.93 21.6,29.9 L 22.5,29.81 C 22.67,29.79 22.85,29.81 23.02,29.84 C 23.07,29.84 23.1,29.88 23.09,29.94 V 29.99 C 22.92,31.37 23.09,32.09 23.61,32.15 C 23.78,32.17 24.03,31.89 24.38,31.32 C 24.63,30.91 24.82,30.67 24.93,30.59 A 0.09,0.09 0 0,1 25,30.59 C 25.16,30.61 25.27,30.77 25.31,31.06 L 25.43,31.85 C 25.45,31.95 25.48,32.03 25.54,32.12 L 25.6,32.16 Z" fill="rgb(102, 50, 3)"/>
<path d="M 28.319999999999997,14.084999999999999 H 29.07 C 29.11,14.11 29.13,14.13 29.13,14.17 V 14.4 C 29.13,14.44 29.1,14.46 29.06,14.46 L 27.94,14.44 C 27.9,14.44 27.88,14.42 27.88,14.37 L 27.94,12.52 C 27.94,12.48 27.96,12.46 28,12.46 H 28.25 C 28.29,12.46 28.31,12.48 28.31,12.52 L 28.26,14.04 C 28.26,14.08 28.28,14.1 28.33,14.1 Z M 30.54,12.98 A 0.5,0.5 0 0,0 30.29,12.93 C 30.19,12.93 30.12,12.98 30.11,13.06 C 30.09,13.16 30.19,13.27 30.42,13.39 C 30.62,13.49 30.75,13.59 30.82,13.66 C 30.94,13.8 30.97,13.98 30.92,14.2 C 30.86,14.42 30.72,14.57 30.52,14.63 A 0.89,0.89 0 0,1 29.93,14.58 C 29.63,14.46 29.5,14.23 29.53,13.88 C 29.53,13.86 29.55,13.85 29.57,13.84 A 0.69,0.69 0 0,1 29.82,13.84 C 29.86,13.86 29.89,13.88 29.89,13.93 C 29.89,14.12 29.99,14.24 30.18,14.29 C 30.27,14.32 30.35,14.31 30.43,14.28 C 30.51,14.23 30.56,14.17 30.57,14.08 C 30.58,13.99 30.55,13.93 30.47,13.88 A 4,4 0 0,0 30.29,13.78 C 30.09,13.68 29.96,13.59 29.89,13.52 A 0.54,0.54 0 0,1 29.75,13.06 A 0.5,0.5 0 0,1 29.99,12.66 C 30.12,12.59 30.28,12.56 30.45,12.59 C 30.62,12.61 30.77,12.69 30.88,12.79 C 31,12.93 31.05,13.09 31.04,13.27 C 31.04,13.3 31.02,13.32 30.98,13.31 L 30.72,13.28 C 30.69,13.28 30.68,13.26 30.67,13.24 C 30.65,13.09 30.61,13.01 30.54,12.98 Z M 26.94,14.03 L 26.33,14.06 C 26.3,14.06 26.28,14.08 26.28,14.1 L 26.18,14.5 C 26.18,14.53 26.16,14.54 26.13,14.54 L 25.86,14.56 C 25.81,14.56 25.79,14.55 25.8,14.5 L 26.3,12.57 C 26.31,12.54 26.33,12.53 26.35,12.53 L 26.65,12.49 C 26.68,12.49 26.7,12.49 26.71,12.52 L 27.53,14.36 C 27.55,14.41 27.53,14.44 27.48,14.44 H 27.2 A 0.05,0.05 0 0,1 27.14,14.42 L 27,14.06 C 26.99,14.04 26.97,14.02 26.94,14.03 Z M 26.38,13.7 L 26.51,13.07 C 26.53,13.02 26.54,13.02 26.56,13.07 L 26.83,13.65 C 26.84,13.67 26.83,13.68 26.81,13.68 L 26.41,13.73 C 26.38,13.73 26.37,13.72 26.38,13.7 Z M 25.59,14.55 C 25.31,14.19 25.09,13.98 24.92,13.9 C 24.89,13.89 24.89,13.87 24.92,13.86 C 25.2,13.72 25.28,13.48 25.16,13.15 C 25.06,12.88 24.86,12.77 24.55,12.83 C 24.28,12.88 24,12.93 23.7,13.01 C 23.67,13.01 23.66,13.04 23.67,13.07 L 24.08,14.88 C 24.1,14.94 24.13,14.96 24.18,14.95 L 24.38,14.91 C 24.44,14.9 24.46,14.87 24.44,14.81 L 24.29,14.13 C 24.28,14.09 24.29,14.07 24.33,14.06 C 24.47,14.02 24.58,14.04 24.68,14.14 L 25.16,14.64 C 25.2,14.68 25.25,14.7 25.3,14.69 L 25.57,14.64 C 25.62,14.63 25.63,14.6 25.6,14.55 Z M 24.14,13.27 C 24.11,13.27 24.1,13.3 24.1,13.33 L 24.2,13.71 C 24.2,13.75 24.22,13.76 24.25,13.75 L 24.66,13.65 C 24.81,13.62 24.87,13.53 24.84,13.4 L 24.82,13.32 C 24.79,13.19 24.7,13.14 24.55,13.17 L 24.15,13.27 Z M 22.31,14.28 L 22.21,14 C 22.19,13.96 22.21,13.94 22.24,13.92 L 23,13.62 C 23.04,13.6 23.05,13.57 23.03,13.53 L 22.95,13.33 C 22.94,13.3 22.91,13.29 22.87,13.3 L 21.77,13.73 C 21.73,13.75 21.72,13.78 21.74,13.82 L 22.43,15.55 C 22.44,15.59 22.47,15.6 22.51,15.59 L 23.64,15.14 C 23.68,15.13 23.69,15.1 23.68,15.06 L 23.6,14.86 C 23.59,14.81 23.56,14.8 23.52,14.82 L 22.72,15.13 C 22.67,15.15 22.64,15.13 22.63,15.1 L 22.5,14.71 C 22.48,14.67 22.5,14.64 22.53,14.63 L 23.23,14.37 C 23.27,14.35 23.28,14.32 23.26,14.28 L 23.18,14.08 C 23.16,14.04 23.14,14.02 23.1,14.04 L 22.4,14.32 C 22.35,14.34 22.32,14.32 22.3,14.28 Z M 32.61,13.14 C 32.57,13.12 32.53,13.14 32.51,13.19 L 31.92,14.94 C 31.91,14.99 31.92,15.02 31.97,15.04 L 32.59,15.24 C 32.79,15.31 32.99,15.29 33.17,15.18 C 33.37,15.07 33.5,14.9 33.57,14.68 L 33.67,14.4 A 0.89,0.89 0 0,0 33.66,13.76 A 0.68,0.68 0 0,0 33.23,13.35 L 32.62,13.14 Z M 32.79,13.57 L 32.77,13.58 L 32.37,14.78 V 14.81 L 32.67,14.91 C 32.77,14.95 32.88,14.94 32.99,14.88 C 33.09,14.82 33.16,14.73 33.2,14.61 L 33.33,14.23 A 0.46,0.46 0 0,0 33.32,13.89 A 0.38,0.38 0 0,0 33.09,13.67 L 32.79,13.57 Z M 35,15.94 L 34.23,15.55 C 34.2,15.54 34.19,15.51 34.21,15.48 L 34.41,15.1 C 34.42,15.07 34.45,15.06 34.48,15.08 L 35.16,15.43 C 35.2,15.45 35.22,15.44 35.24,15.41 L 35.34,15.19 C 35.35,15.15 35.34,15.13 35.31,15.12 L 34.62,14.78 C 34.59,14.76 34.58,14.73 34.6,14.7 L 34.76,14.41 C 34.77,14.38 34.8,14.37 34.83,14.39 L 35.56,14.77 C 35.59,14.78 35.62,14.77 35.64,14.74 L 35.75,14.54 C 35.77,14.5 35.76,14.48 35.73,14.46 L 34.65,13.92 C 34.62,13.9 34.6,13.91 34.58,13.94 L 33.73,15.62 C 33.71,15.65 33.73,15.68 33.75,15.7 L 34.85,16.25 C 34.89,16.27 34.91,16.25 34.93,16.22 L 35.03,16.02 C 35.04,15.98 35.03,15.96 35,15.94 Z M 20.5,15.26 C 20.45,15.23 20.44,15.24 20.47,15.29 L 21.02,16.25 C 21.05,16.31 21.04,16.35 20.97,16.39 L 20.87,16.45 C 20.81,16.49 20.76,16.47 20.72,16.41 L 19.82,14.84 C 19.79,14.8 19.8,14.76 19.84,14.74 A 0.86,0.86 0 0,1 20.06,14.62 L 20.14,14.63 L 21.28,15.33 C 21.33,15.37 21.34,15.36 21.31,15.3 L 20.74,14.3 C 20.7,14.25 20.72,14.2 20.79,14.18 L 20.92,14.11 C 20.96,14.07 21,14.08 21.02,14.13 L 21.97,15.77 C 21.98,15.79 21.97,15.8 21.96,15.82 L 21.91,15.85 C 21.76,15.95 21.65,15.97 21.58,15.92 L 20.5,15.26 Z M 37.24,15.59 L 36.16,16.43 C 36.13,16.46 36.12,16.45 36.13,16.41 L 36.57,15.11 C 36.59,15.06 36.57,15.01 36.54,14.99 L 36.34,14.83 C 36.3,14.8 36.27,14.81 36.26,14.86 L 35.65,16.73 C 35.65,16.76 35.65,16.78 35.67,16.8 C 35.74,16.87 35.81,16.93 35.89,16.96 C 35.94,16.99 35.99,16.98 36.04,16.95 L 37.55,15.81 C 37.59,15.78 37.59,15.75 37.55,15.71 L 37.39,15.59 C 37.34,15.55 37.29,15.55 37.24,15.59 Z M 19.17,15.17 L 18.98,15.3 A 0.07,0.07 0 0,0 18.97,15.4 L 20.05,16.91 C 20.07,16.94 20.11,16.95 20.15,16.93 L 20.33,16.8 A 0.07,0.07 0 0,0 20.34,16.7 L 19.26,15.19 A 0.07,0.07 0 0,0 19.16,15.17 Z M 18.64,18.07 L 17.75,17.04 C 17.71,16.99 17.72,16.99 17.77,17.03 L 18.87,17.84 C 18.92,17.88 18.97,17.88 19.01,17.84 L 19.18,17.68 V 17.65 L 18.58,16.53 C 18.48,16.35 18.5,16.33 18.64,16.49 L 19.41,17.39 C 19.44,17.43 19.47,17.43 19.5,17.4 L 19.66,17.27 C 19.7,17.25 19.7,17.21 19.67,17.18 L 18.46,15.78 C 18.43,15.73 18.39,15.73 18.36,15.76 L 18.04,16.03 C 18.02,16.05 18.01,16.08 18.03,16.11 L 18.58,17.16 C 18.62,17.24 18.6,17.26 18.53,17.2 L 17.58,16.5 C 17.54,16.48 17.51,16.48 17.48,16.51 L 17.18,16.77 C 17.14,16.81 17.14,16.85 17.18,16.89 L 18.38,18.29 C 18.41,18.32 18.44,18.32 18.46,18.29 L 18.63,18.15 C 18.66,18.13 18.66,18.1 18.64,18.07 Z M 37.24,17.59 L 37.87,18.18 C 37.9,18.2 37.9,18.23 37.87,18.25 L 37.71,18.43 C 37.69,18.46 37.66,18.46 37.63,18.43 L 36.74,17.58 C 36.72,17.55 36.72,17.53 36.74,17.5 L 38.04,16.14 C 38.07,16.11 38.1,16.11 38.12,16.14 L 38.99,16.97 C 39.01,16.99 39.01,17.02 38.99,17.04 L 38.83,17.21 C 38.8,17.23 38.78,17.23 38.75,17.21 L 38.15,16.64 C 38.12,16.61 38.09,16.61 38.07,16.64 L 37.85,16.86 C 37.82,16.89 37.82,16.92 37.85,16.94 L 38.4,17.49 C 38.43,17.51 38.43,17.54 38.4,17.57 L 38.24,17.73 C 38.21,17.75 38.19,17.75 38.16,17.73 L 37.61,17.2 C 37.58,17.17 37.55,17.17 37.53,17.2 L 37.24,17.51 C 37.22,17.54 37.22,17.56 37.24,17.59 Z M 38.84,19.72 L 39,19.57 C 39.03,19.54 39.04,19.51 39,19.48 L 38.52,18.91 C 38.49,18.88 38.49,18.85 38.52,18.82 L 39.67,17.84 C 39.71,17.81 39.71,17.78 39.67,17.74 L 39.53,17.57 C 39.5,17.54 39.47,17.54 39.43,17.57 L 38.03,18.77 C 37.99,18.8 37.99,18.83 38.02,18.87 L 38.75,19.71 C 38.77,19.74 38.81,19.74 38.84,19.71 Z M 16.35,19.54 C 16.59,19.74 16.78,19.76 16.92,19.62 C 17.09,19.44 17.07,19.26 16.85,19.09 C 16.53,18.82 16.2,18.57 15.88,18.32 C 15.85,18.29 15.84,18.26 15.87,18.23 L 16.01,18.06 C 16.05,18.02 16.09,18.01 16.13,18.05 L 16.98,18.72 C 17.34,18.99 17.48,19.24 17.4,19.46 C 17.3,19.74 17.16,19.93 16.96,20.03 C 16.75,20.14 16.51,20.11 16.27,19.93 C 15.92,19.67 15.57,19.41 15.25,19.14 C 15.21,19.11 15.2,19.08 15.24,19.04 L 15.37,18.87 C 15.4,18.84 15.43,18.83 15.47,18.86 L 16.35,19.54 Z M 41.17,19.59 C 41.3,19.79 41.32,20.02 41.24,20.27 C 41.16,20.53 41,20.73 40.76,20.89 C 40.51,21.05 40.26,21.11 39.99,21.08 A 0.78,0.78 0 0,1 39.4,20.72 A 0.78,0.78 0 0,1 39.33,20.04 C 39.41,19.78 39.57,19.58 39.81,19.42 C 40.06,19.27 40.31,19.2 40.57,19.24 C 40.84,19.27 41.04,19.39 41.17,19.59 Z M 40.55,20.57 C 40.87,20.37 41.01,20.01 40.87,19.79 C 40.72,19.56 40.34,19.54 40.02,19.74 C 39.7,19.94 39.56,20.3 39.71,20.53 C 39.85,20.76 40.23,20.77 40.55,20.57 Z M 15.87,21.77 L 15.6,21.47 C 15.58,21.46 15.58,21.44 15.6,21.42 L 15.9,20.88 A 0.04,0.04 0 0,1 15.95,20.86 L 16.37,20.92 C 16.39,20.92 16.41,20.92 16.42,20.9 L 16.56,20.66 C 16.58,20.62 16.57,20.59 16.53,20.59 L 14.54,20.23 C 14.52,20.23 14.5,20.23 14.49,20.25 L 14.34,20.52 V 20.57 L 15.66,22.08 C 15.69,22.12 15.72,22.12 15.74,22.08 L 15.87,21.83 C 15.89,21.81 15.88,21.79 15.87,21.78 Z M 14.87,20.67 L 15.31,21.15 C 15.33,21.17 15.34,21.17 15.35,21.15 L 15.55,20.81 C 15.56,20.79 15.55,20.78 15.53,20.78 L 14.9,20.63 C 14.85,20.62 14.84,20.63 14.87,20.67 Z M 40.92,21.86 C 40.9,21.83 40.88,21.82 40.86,21.83 L 40.26,22.1 C 40.22,22.12 40.2,22.1 40.19,22.07 L 40.08,21.83 C 40.07,21.81 40.08,21.79 40.1,21.77 L 41.8,21 C 41.86,20.98 41.9,21 41.94,21.06 L 42.22,21.71 C 42.32,21.97 42.27,22.18 42.06,22.35 A 0.7,0.7 0 0,1 41.39,22.5 C 41.23,22.45 41.08,22.24 40.93,21.86 Z M 41.67,21.46 C 41.7,21.46 41.73,21.46 41.74,21.5 L 41.84,21.73 C 41.93,21.91 41.89,22.04 41.74,22.11 L 41.7,22.13 C 41.54,22.2 41.42,22.14 41.34,21.95 L 41.24,21.72 C 41.22,21.69 41.23,21.66 41.26,21.65 L 41.66,21.47 Z M 14.16,22.78 L 14.44,22.08 C 14.45,22.04 14.48,22.03 14.52,22.05 L 14.72,22.13 C 14.76,22.15 14.77,22.17 14.76,22.21 L 14.48,22.91 C 14.46,22.95 14.48,22.98 14.51,23 L 14.89,23.15 C 14.93,23.16 14.96,23.15 14.97,23.11 L 15.27,22.31 C 15.29,22.27 15.32,22.26 15.37,22.28 L 15.57,22.36 C 15.61,22.38 15.62,22.4 15.6,22.44 L 15.15,23.57 C 15.14,23.61 15.11,23.63 15.07,23.61 L 13.34,22.91 C 13.3,22.9 13.28,22.87 13.3,22.83 L 13.74,21.73 C 13.75,21.69 13.78,21.68 13.82,21.7 L 14.02,21.78 C 14.07,21.8 14.08,21.83 14.06,21.87 L 13.76,22.62 C 13.74,22.66 13.75,22.69 13.79,22.71 L 14.07,22.81 C 14.11,22.83 14.14,22.81 14.16,22.78 Z M 42.29,24.31 A 1,1 0 0,1 42.49,24.32 C 42.52,24.32 42.52,24.33 42.49,24.34 L 41.22,24.7 C 41.18,24.71 41.17,24.74 41.18,24.78 L 41.26,24.98 C 41.27,25.02 41.3,25.03 41.33,25.02 L 43.09,24.52 C 43.15,24.51 43.17,24.47 43.16,24.41 L 43.06,24.05 C 43.04,24 43.01,23.98 42.96,23.98 L 41.79,24.04 C 41.69,24.04 41.69,24.03 41.78,23.98 L 42.8,23.42 C 42.85,23.4 42.86,23.36 42.85,23.32 L 42.75,22.94 C 42.74,22.89 42.7,22.87 42.65,22.88 L 40.88,23.38 C 40.83,23.39 40.82,23.42 40.83,23.46 L 40.88,23.66 C 40.88,23.71 40.91,23.72 40.96,23.71 L 42.14,23.37 C 42.31,23.33 42.32,23.34 42.16,23.43 L 41.06,24.01 A 0.07,0.07 0 0,0 41.01,24.08 C 41.01,24.17 41.03,24.26 41.06,24.34 C 41.08,24.38 41.11,24.39 41.14,24.39 L 42.29,24.31 Z M 13.03,24.94 L 12.81,24.89 C 12.77,24.88 12.75,24.85 12.76,24.81 L 13.05,23.58 C 13.05,23.54 13.08,23.52 13.13,23.53 L 13.33,23.56 C 13.39,23.56 13.41,23.6 13.39,23.65 L 13.29,24.02 C 13.29,24.06 13.3,24.09 13.35,24.1 L 14.83,24.45 C 14.87,24.45 14.89,24.48 14.88,24.53 L 14.82,24.75 C 14.82,24.8 14.78,24.81 14.74,24.8 L 13.26,24.46 C 13.21,24.45 13.19,24.46 13.18,24.51 L 13.11,24.88 C 13.11,24.93 13.07,24.95 13.03,24.94 Z M 43,25.68 C 43.03,25.68 43.04,25.68 43.05,25.71 L 43.15,26.55 C 43.15,26.59 43.18,26.61 43.22,26.6 L 43.45,26.58 C 43.49,26.58 43.5,26.56 43.5,26.52 L 43.35,25.33 C 43.35,25.3 43.33,25.28 43.29,25.28 L 41.42,25.51 C 41.38,25.51 41.37,25.54 41.37,25.57 L 41.52,26.8 C 41.52,26.83 41.54,26.85 41.58,26.84 L 41.8,26.82 C 41.84,26.82 41.86,26.8 41.86,26.76 A 5.88,5.88 0 0,0 41.76,25.92 C 41.76,25.87 41.78,25.83 41.83,25.82 L 42.19,25.79 C 42.25,25.79 42.28,25.81 42.29,25.86 L 42.37,26.55 C 42.37,26.61 42.41,26.65 42.48,26.63 L 42.63,26.62 C 42.7,26.62 42.73,26.58 42.72,26.51 L 42.62,25.78 C 42.62,25.75 42.62,25.73 42.66,25.73 L 43,25.68 Z M 14.07,26.48 L 14.16,25.86 C 14.16,25.83 14.17,25.82 14.2,25.81 L 14.58,25.74 C 14.61,25.74 14.62,25.72 14.62,25.69 L 14.66,25.41 C 14.66,25.36 14.64,25.34 14.6,25.35 L 12.63,25.79 C 12.6,25.79 12.59,25.81 12.59,25.84 L 12.57,26.14 C 12.57,26.16 12.57,26.18 12.6,26.19 L 14.38,27.07 C 14.43,27.09 14.45,27.07 14.46,27.02 L 14.49,26.75 C 14.49,26.73 14.49,26.71 14.46,26.7 L 14.1,26.53 C 14.07,26.52 14.06,26.5 14.07,26.47 Z M 13.1,26.06 L 13.71,26.36 C 13.73,26.36 13.74,26.36 13.74,26.34 L 13.8,25.92 C 13.8,25.9 13.79,25.89 13.77,25.9 L 13.11,26.03 C 13.07,26.03 13.07,26.05 13.11,26.06 Z M 41.61,27.62 L 42.76,27.6 C 42.82,27.6 42.83,27.61 42.77,27.64 L 41.64,28.3 A 0.1,0.1 0 0,0 41.59,28.38 A 0.95,0.95 0 0,0 41.59,28.64 C 41.59,28.68 41.61,28.7 41.65,28.69 L 43.51,28.64 C 43.56,28.64 43.59,28.61 43.59,28.56 L 43.58,28.35 C 43.58,28.31 43.55,28.29 43.52,28.3 C 43.12,28.32 42.74,28.34 42.38,28.33 C 42.3,28.33 42.29,28.31 42.36,28.27 L 43.49,27.62 A 0.1,0.1 0 0,0 43.54,27.55 A 0.86,0.86 0 0,0 43.54,27.29 C 43.54,27.25 43.51,27.23 43.47,27.23 L 41.6,27.29 C 41.57,27.29 41.55,27.31 41.55,27.34 V 27.57 C 41.55,27.61 41.57,27.62 41.61,27.62 Z M 14.15,27.3 H 14.4 C 14.43,27.3 14.45,27.31 14.45,27.34 L 14.42,28.5 C 14.42,28.53 14.41,28.55 14.38,28.55 L 12.48,28.48 C 12.45,28.48 12.44,28.47 12.44,28.43 L 12.45,28.16 C 12.45,28.13 12.47,28.12 12.5,28.12 L 14.05,28.16 C 14.08,28.16 14.09,28.14 14.09,28.11 L 14.1,27.34 C 14.1,27.31 14.12,27.3 14.15,27.3 Z M 43.45,29.28 L 43.22,29.26 C 43.19,29.26 43.17,29.27 43.16,29.31 L 43.11,29.71 C 43.11,29.75 43.09,29.77 43.05,29.76 L 41.52,29.57 C 41.48,29.57 41.46,29.59 41.46,29.62 L 41.43,29.88 C 41.43,29.92 41.45,29.93 41.48,29.94 L 43.01,30.12 C 43.05,30.12 43.06,30.15 43.06,30.18 L 43.01,30.58 C 43.01,30.62 43.01,30.64 43.05,30.65 L 43.29,30.68 C 43.33,30.68 43.35,30.67 43.35,30.63 L 43.51,29.34 C 43.51,29.31 43.49,29.29 43.46,29.28 Z M 14.5,29.98 L 13.85,30.05 C 13.82,30.05 13.8,30.04 13.8,30.01 C 13.8,29.84 13.77,29.68 13.73,29.53 C 13.65,29.23 13.43,29.1 13.06,29.14 C 12.7,29.19 12.52,29.37 12.54,29.68 A 8,8 0 0,0 12.62,30.51 C 12.62,30.55 12.65,30.57 12.69,30.56 L 14.54,30.34 C 14.58,30.33 14.6,30.3 14.6,30.26 L 14.56,30.02 C 14.56,29.98 14.54,29.97 14.5,29.97 Z M 12.92,30.1 C 12.92,30.14 12.95,30.16 12.99,30.16 L 13.41,30.11 C 13.45,30.11 13.47,30.08 13.47,30.04 L 13.43,29.77 C 13.41,29.58 13.31,29.5 13.14,29.52 H 13.12 C 12.94,29.54 12.87,29.65 12.89,29.83 L 12.92,30.1 Z M 18.29,39.4 C 18.09,39.53 17.91,39.52 17.77,39.34 C 17.66,39.21 17.67,39.04 17.78,38.84 C 17.88,38.68 18,38.54 18.16,38.41 C 18.33,38.27 18.5,38.25 18.67,38.35 C 18.85,38.45 18.89,38.6 18.82,38.81 C 18.79,38.88 18.82,38.92 18.88,38.95 L 19.03,39 C 19.1,39.03 19.16,39 19.18,38.93 C 19.26,38.68 19.23,38.46 19.11,38.29 C 18.95,38.05 18.73,37.93 18.47,37.93 C 18.24,37.93 18.02,38.03 17.8,38.23 C 17.59,38.4 17.45,38.61 17.37,38.85 C 17.3,39.11 17.33,39.34 17.47,39.53 C 17.72,39.87 18.06,39.94 18.47,39.73 C 18.54,39.69 18.56,39.64 18.52,39.57 L 18.44,39.43 C 18.41,39.36 18.35,39.35 18.29,39.39 Z M 36.65,38.47 C 36.62,38.5 36.62,38.53 36.65,38.57 L 37.84,40 C 37.87,40.03 37.9,40.04 37.93,40 L 38.43,39.6 A 0.7,0.7 0 0,0 38.69,39.06 A 0.88,0.88 0 0,0 38.48,38.45 L 38.29,38.22 A 0.88,0.88 0 0,0 37.73,37.9 A 0.7,0.7 0 0,0 37.16,38.05 L 36.66,38.46 Z M 37.16,38.51 C 37.13,38.54 37.12,38.57 37.16,38.61 L 37.9,39.51 C 37.93,39.54 37.96,39.54 38,39.51 L 38.2,39.35 A 0.37,0.37 0 0,0 38.33,39.06 A 0.48,0.48 0 0,0 38.21,38.73 L 37.97,38.44 A 0.48,0.48 0 0,0 37.67,38.26 A 0.37,0.37 0 0,0 37.37,38.34 L 37.17,38.51 Z M 36.8,39.46 C 36.78,39.42 36.75,39.42 36.72,39.44 L 36.11,39.88 C 36.07,39.91 36.04,39.9 36.01,39.87 L 35.84,39.61 C 35.81,39.57 35.82,39.54 35.85,39.52 L 36.53,39.05 C 36.56,39.03 36.56,39 36.54,38.97 L 36.41,38.78 C 36.39,38.75 36.36,38.74 36.33,38.77 L 35.36,39.45 C 35.32,39.48 35.32,39.5 35.34,39.54 L 36.43,41.07 C 36.45,41.1 36.48,41.11 36.51,41.08 L 37.51,40.38 C 37.54,40.35 37.55,40.32 37.52,40.29 L 37.39,40.11 C 37.37,40.07 37.34,40.07 37.31,40.09 L 36.61,40.59 C 36.57,40.62 36.54,40.61 36.52,40.58 L 36.29,40.24 C 36.27,40.21 36.28,40.18 36.31,40.16 L 36.92,39.72 C 36.95,39.7 36.96,39.67 36.93,39.63 L 36.8,39.46 Z M 18.77,40.21 C 18.77,40.45 18.87,40.65 19.07,40.81 C 19.35,41.05 19.64,41.09 19.95,40.94 C 20.23,40.81 20.43,40.58 20.57,40.25 C 20.79,39.75 20.67,39.37 20.22,39.12 C 19.79,38.87 19.38,39.02 19,39.56 C 18.85,39.78 18.77,39.99 18.77,40.21 Z M 19.34,40.59 C 19.11,40.44 19.11,40.06 19.32,39.74 C 19.54,39.43 19.89,39.3 20.12,39.45 C 20.34,39.61 20.35,39.98 20.13,40.3 C 19.92,40.61 19.56,40.74 19.33,40.6 Z M 34.14,40.55 L 34.49,40.34 C 34.52,40.32 34.55,40.33 34.56,40.36 L 35.34,41.69 C 35.36,41.72 35.38,41.73 35.41,41.71 L 35.64,41.58 C 35.67,41.57 35.68,41.54 35.66,41.51 L 34.88,40.17 C 34.86,40.14 34.87,40.12 34.9,40.1 L 35.25,39.89 C 35.28,39.87 35.29,39.85 35.27,39.81 L 35.15,39.61 C 35.13,39.58 35.11,39.58 35.08,39.59 L 33.96,40.25 C 33.93,40.27 33.92,40.29 33.94,40.32 L 34.06,40.53 C 34.08,40.57 34.11,40.57 34.14,40.55 Z M 22.02,40.86 L 21.15,41.93 C 21.12,41.96 21.1,41.96 21.06,41.95 L 20.84,41.85 C 20.81,41.83 20.8,41.81 20.81,41.79 L 21.13,40.51 C 21.16,40.38 21.15,40.38 21.09,40.5 L 20.54,41.58 C 20.51,41.64 20.46,41.66 20.41,41.63 L 20.29,41.57 C 20.22,41.54 20.21,41.49 20.24,41.43 L 21.04,39.82 C 21.07,39.76 21.12,39.74 21.18,39.77 L 21.5,39.94 C 21.55,39.96 21.56,40 21.55,40.06 L 21.27,41.22 L 21.28,41.25 H 21.32 C 21.57,40.92 21.82,40.62 22.06,40.33 C 22.11,40.27 22.17,40.26 22.25,40.3 L 22.55,40.47 C 22.59,40.48 22.6,40.51 22.58,40.54 L 21.74,42.22 C 21.72,42.26 21.69,42.27 21.64,42.25 L 21.48,42.15 C 21.44,42.13 21.43,42.1 21.45,42.05 L 22.04,40.88 C 22.08,40.8 22.07,40.8 22.02,40.86 Z M 33.49,40.41 L 33.71,40.31 C 33.74,40.31 33.78,40.31 33.79,40.35 L 34.56,42.05 C 34.58,42.09 34.56,42.12 34.53,42.14 L 34.32,42.24 A 0.06,0.06 0 0,1 34.23,42.2 L 33.46,40.5 A 0.06,0.06 0 0,1 33.49,40.41 Z M 32.15,41.62 L 32.55,42.87 C 32.55,42.91 32.54,42.93 32.5,42.94 L 32.3,43 C 32.26,43.01 32.23,43 32.22,42.96 L 31.65,41.19 C 31.64,41.14 31.65,41.11 31.7,41.09 L 32.05,40.99 C 32.12,40.97 32.16,40.99 32.19,41.04 L 32.82,42.1 H 32.84 A 23,23 0 0,0 32.74,40.83 C 32.73,40.8 32.74,40.78 32.77,40.77 L 33.2,40.62 C 33.23,40.61 33.25,40.62 33.26,40.65 L 33.84,42.45 C 33.85,42.48 33.84,42.5 33.81,42.51 L 33.6,42.59 C 33.56,42.6 33.53,42.59 33.52,42.55 A 30,30 0 0,0 33.12,41.32 C 33.08,41.22 33.07,41.23 33.08,41.32 L 33.21,42.67 C 33.21,42.71 33.2,42.73 33.16,42.73 L 32.91,42.79 C 32.88,42.8 32.86,42.79 32.85,42.77 L 32.18,41.61 C 32.13,41.53 32.12,41.53 32.15,41.62 Z M 22.78,41.9 C 22.74,41.9 22.72,41.9 22.71,41.94 L 22.51,42.52 C 22.5,42.56 22.47,42.57 22.43,42.56 L 22.23,42.5 C 22.17,42.48 22.15,42.45 22.17,42.4 L 22.78,40.64 C 22.79,40.61 22.82,40.6 22.85,40.61 L 23.63,40.88 C 23.88,40.98 23.97,41.2 23.9,41.52 C 23.83,41.83 23.67,42.01 23.41,42.04 C 23.31,42.06 23.16,42.03 22.95,41.96 A 3.13,3.13 0 0,0 22.78,41.9 Z M 23,41.1 C 23.02,41.05 23.04,41.04 23.08,41.05 L 23.33,41.14 C 23.51,41.2 23.58,41.3 23.53,41.46 L 23.51,41.53 C 23.45,41.68 23.34,41.73 23.16,41.67 L 22.91,41.58 C 22.87,41.57 22.85,41.54 22.87,41.5 L 23,41.1 Z M 31.26,41.2 L 31.03,41.25 A 0.07,0.07 0 0,0 30.98,41.33 L 31.4,43.13 C 31.41,43.17 31.45,43.2 31.48,43.19 L 31.71,43.14 C 31.74,43.13 31.77,43.09 31.76,43.05 L 31.34,41.25 A 0.07,0.07 0 0,0 31.26,41.2 Z M 26.81,41.6 L 26.68,42.75 C 26.68,42.8 26.66,42.8 26.64,42.75 C 26.46,42.36 26.3,41.96 26.14,41.55 C 26.12,41.46 26,41.42 25.8,41.43 C 25.77,41.43 25.75,41.45 25.75,41.48 L 25.54,43.34 C 25.53,43.39 25.55,43.41 25.59,43.41 L 25.79,43.43 C 25.84,43.43 25.86,43.41 25.87,43.37 L 26,42.24 C 26,42.18 26.02,42.18 26.04,42.24 L 26.54,43.48 C 26.56,43.51 26.58,43.53 26.62,43.53 L 26.87,43.55 C 26.9,43.55 26.93,43.54 26.93,43.5 L 27.13,41.77 C 27.14,41.67 27.17,41.66 27.23,41.75 C 27.38,42.02 27.56,42.31 27.74,42.6 C 27.83,42.73 27.87,43 27.87,43.38 V 43.55 C 27.87,43.59 27.89,43.61 27.93,43.61 H 28.17 C 28.21,43.61 28.23,43.59 28.23,43.55 L 28.22,42.85 C 28.22,42.78 28.23,42.71 28.26,42.65 L 28.78,41.65 C 28.8,41.59 28.78,41.57 28.73,41.57 L 28.43,41.6 A 0.08,0.08 0 0,0 28.37,41.64 A 285.69,285.69 0 0,1 28.03,42.36 C 28.01,42.36 28,42.36 27.99,42.34 L 27.65,41.73 C 27.6,41.65 27.49,41.61 27.31,41.63 H 27.21 L 27.15,41.62 A 0.47,0.47 0 0,0 26.85,41.56 C 26.83,41.56 26.82,41.57 26.81,41.6 Z M 30.21,43.1 L 30.95,42.95 C 30.98,42.95 31.01,42.96 31.01,42.99 L 31.07,43.22 C 31.08,43.26 31.07,43.28 31.03,43.29 L 29.91,43.5 C 29.87,43.51 29.85,43.5 29.85,43.46 L 29.49,41.62 C 29.49,41.59 29.49,41.56 29.53,41.56 L 29.79,41.51 C 29.83,41.51 29.85,41.51 29.85,41.55 L 30.14,43.05 C 30.14,43.09 30.17,43.1 30.2,43.09 Z M 24.75,42.77 L 24.14,42.63 C 24.11,42.63 24.09,42.63 24.08,42.66 L 23.88,42.99 C 23.88,43.01 23.85,43.02 23.83,43.01 L 23.57,42.96 C 23.51,42.95 23.5,42.92 23.53,42.87 L 24.59,41.18 C 24.61,41.16 24.63,41.15 24.65,41.16 L 24.95,41.23 C 24.97,41.23 24.98,41.25 24.99,41.28 L 25.21,43.27 C 25.21,43.32 25.19,43.34 25.14,43.33 L 24.87,43.26 A 0.05,0.05 0 0,1 24.83,43.21 L 24.79,42.81 C 24.79,42.79 24.78,42.77 24.75,42.77 Z M 24.31,42.27 L 24.65,41.74 C 24.68,41.69 24.69,41.69 24.7,41.75 L 24.75,42.38 C 24.75,42.4 24.74,42.42 24.71,42.41 L 24.33,42.31 C 24.31,42.31 24.3,42.3 24.31,42.27 Z" fill="rgb(220, 9, 5)" fill-rule="evenodd"/>
</svg>
