<?xml version="1.0" encoding="UTF-8"?>
<!-- generated by Finnhub -->
<svg viewBox="0 0 55.5 55.5" xmlns="http://www.w3.org/2000/svg">
<path d="M0 0h55.5v55.5H0z" fill="rgb(239, 242, 248)"/>
<path d="M28 44a16 16 0 1 0 0-32 16 16 0 0 0 0 32Zm-6-26.5c0 .25-.06.48-.16.68l8.92 7.52c.38-.36.86-.6 1.4-.68l-.14-6.1a1.5 1.5 0 1 1 .49.08l.13 6a2.5 2.5 0 0 1 2.34 2.22l4.1.37a1 1 0 1 1-.08.48l-4-.37a2.5 2.5 0 0 1-.79 1.62l4.38 5.77A1 1 0 0 1 40 36a1 1 0 1 1-1.79-.61l-4.38-5.77a2.49 2.49 0 0 1-1.97.3l-.63 2.27a1.5 1.5 0 1 1-.46-.17l.63-2.27a2.5 2.5 0 0 1-1.36-1.8L22 30.02a1 1 0 1 1-.11-.47L30 27.47c0-.52.17-1 .45-1.4l-8.9-7.5A1.5 1.5 0 0 1 19 17.5a1.5 1.5 0 0 1 3 0Z" fill="url(#a)"/>
<defs>
<linearGradient id="a" x1="40.28" x2="13.99" y1="17.52" y2="36.84" gradientUnits="userSpaceOnUse">
<stop stop-color="rgb(66, 147, 176)" offset=".43"/>
<stop stop-color="rgb(45, 110, 128)" offset="1"/>
</linearGradient>
</defs>
</svg>
