<?xml version="1.0" encoding="UTF-8"?>
<!-- generated by Finnhub -->
<svg viewBox="0 0 55.5 55.5" xmlns="http://www.w3.org/2000/svg">
<path d="M0 0h55.5v55.5H0z" fill="rgb(239, 242, 248)"/>
<path d="M29.45 24.07a3.6 3.6 0 0 1 1.23.55.05.05 0 0 1-.01.06l-.03.01a3.4 3.4 0 0 1-2.4-.4c-.13-.07-.35-.06-.5.02-.73.42-1.52.55-2.37.38-.08-.02-.08-.05-.02-.1a3.28 3.28 0 0 1 1.24-.53.06.06 0 0 0-.04-.09c-.95-.04-2.04-.76-2.7-1.4a.03.03 0 0 1 0-.04h.01a5.2 5.2 0 0 1 2.89.66v-.02a6.6 6.6 0 0 1-2.08-3.67c0-.04 0-.05.04-.03a6.4 6.4 0 0 1 2.85 3.35c.05.05.06.03.04-.06a7.16 7.16 0 0 1 .38-4.74c.02-.03.03-.03.04 0 .7 1.55.82 3.16.37 4.8-.01.03 0 .05 0 .07.03.03.05.03.06-.01a6.61 6.61 0 0 1 2.92-3.44 6.73 6.73 0 0 1-2.09 3.74.03.03 0 0 0 .03 0c.86-.48 1.8-.7 2.8-.66.05 0 .06.03.02.07a5.12 5.12 0 0 1-2.68 1.42c-.1.02-.1.04 0 .06Z" fill="rgb(1, 121, 10)"/>
<path d="M17 33h-.14l-3.29-5.97V27h-.03l-.01.01V32.92c0 .06-.03.08-.1.08h-.34c-.06 0-.09-.02-.09-.08v-7.88l.01-.03h.05l.02.01 3.3 6 .02.01h.03l.01-.02v-5.92c0-.05.03-.09.09-.09h.37c.07 0 .1.04.1.1V33ZM4 32.95v-7.92c.69-.02 1.57-.1 2.16.12 2.07.8 2.07 4.45.04 5.3-.47.2-1.03.12-1.57.13a.1.1 0 0 0-.07.03.1.1 0 0 0-.03.06v2.22c0 .04-.02.07-.07.09a.76.76 0 0 1-.46-.03Zm.52-7.32.01 4.33a.1.1 0 0 0 .03.08.11.11 0 0 0 .08.03h.72c.48 0 .93-.22 1.27-.6.34-.37.52-.88.52-1.42v-.52a2.22 2.22 0 0 0-.53-1.42 1.8 1.8 0 0 0-.59-.44c-.22-.1-.45-.15-.69-.15h-.71a.11.11 0 0 0-.08.04.1.1 0 0 0-.03.07ZM10.45 25h-.37a.08.08 0 0 0-.08.08v7.84c0 .04.04.08.08.08h.37c.04 0 .08-.04.08-.08v-7.84a.08.08 0 0 0-.08-.08ZM20.31 32.48h2.99l.04.02c.02.01.02.03.02.05v.39c0 .02 0 .03-.02.05a.07.07 0 0 1-.04.01h-3.55c-.02 0-.04 0-.05-.02a.06.06 0 0 1-.02-.04v-7.88c0-.01 0-.03.02-.04a.07.07 0 0 1 .05-.02h3.55c.02 0 .03 0 .04.02.02.01.02.03.02.04v.4c0 .01 0 .03-.02.04a.07.07 0 0 1-.04.02H20.3c-.01 0-.03 0-.04.02a.06.06 0 0 0-.02.04v4.36c0 .02 0 .04.02.05l.04.01h2.99c.02 0 .03.01.04.03.02 0 .02.02.02.04v.4c0 .01 0 .03-.02.04a.07.07 0 0 1-.04.02H20.3c-.01 0-.03 0-.04.02a.06.06 0 0 0-.02.04v1.83c0 .02 0 .03.02.05l.04.01ZM49.06 32.48h2.87l.05.02.02.05v.39c0 .02 0 .03-.02.05a.07.07 0 0 1-.05.01H48.5c-.01 0-.03 0-.04-.02a.06.06 0 0 1-.02-.04v-7.88c0-.01 0-.03.02-.04a.07.07 0 0 1 .04-.02h3.44c.02 0 .04 0 .05.02l.02.04v.4c0 .01 0 .03-.02.04a.07.07 0 0 1-.05.02h-2.87c-.02 0-.03 0-.04.02a.06.06 0 0 0-.02.04v4.36c0 .02 0 .04.02.05l.04.01h2.87c.02 0 .04.01.05.03l.02.04v.4c0 .01 0 .03-.02.04a.07.07 0 0 1-.05.02h-2.87c-.02 0-.03 0-.04.02a.06.06 0 0 0-.02.04v1.83c0 .02 0 .03.02.05l.04.01ZM35.37 25.5c1.46 1.17 1.29 4.28-.61 4.98-.45.16-.99.1-1.5.1a.1.1 0 0 0-.06.04.1.1 0 0 0-.03.06v2.25c0 .05-.03.07-.07.07h-.4c-.06 0-.1-.03-.1-.1v-7.8c0-.02 0-.04.02-.05a.07.07 0 0 1 .05-.02c.93-.01 1.89-.19 2.7.47Zm-2.22.17v4.27c0 .03.02.07.05.1.03.02.06.03.1.03h.68c.24 0 .48-.05.7-.16.21-.1.41-.25.58-.44.17-.2.3-.42.4-.67.08-.25.13-.51.13-.78v-.44c0-.54-.2-1.07-.54-1.45a1.7 1.7 0 0 0-1.27-.6h-.7a.14.14 0 0 0-.09.04.14.14 0 0 0-.04.1ZM39.6 25c.92.02 1.7.82 1.94 1.63.42 1.37.16 3.23-1.34 3.83-.46.18-1.01.1-1.54.12a.1.1 0 0 0-.07.03.1.1 0 0 0-.02.07v2.25c0 .05-.03.07-.07.07h-.4c-.06 0-.1-.03-.1-.1v-7.83a.07.07 0 0 1 .07-.07h1.53Zm-1.04.6.01 4.38c0 .02.01.05.03.07a.1.1 0 0 0 .07.02h.7c.24 0 .47-.05.7-.15.21-.1.41-.26.58-.45.17-.2.3-.42.4-.68.08-.25.13-.52.13-.79v-.43c0-.55-.2-1.07-.54-1.46a1.7 1.7 0 0 0-1.28-.6h-.7a.1.1 0 0 0-.07.03.1.1 0 0 0-.03.07ZM43.6 32.48h3c.03 0 .05 0 .06.02l.02.05v.38c0 .02 0 .04-.02.05a.07.07 0 0 1-.05.02h-3.54c-.02 0-.04 0-.05-.02a.07.07 0 0 1-.02-.05v-7.86c0-.02 0-.04.02-.05a.07.07 0 0 1 .05-.02h.39c.02 0 .04 0 .05.02l.02.05v7.34c0 .02 0 .04.02.05l.05.02ZM29.2 25.23a.2.2 0 0 0-.08-.04l-.6-.18a.23.23 0 0 0-.14 0 .22.22 0 0 0-.11.1.2.2 0 0 0 .03.25l.54.56.04.03a.1.1 0 0 0 .08-.01l.03-.03.25-.44a.19.19 0 0 0-.04-.24Zm-2.07.7.05-.02.55-.58a.12.12 0 0 0 .03-.12c-.03-.1-.09-.17-.18-.2-.06-.01-.15 0-.28.05-.14.05-.28.1-.41.12a.2.2 0 0 0-.14.11.19.19 0 0 0 0 .17l.24.42c0 .02.02.03.03.04a.12.12 0 0 0 .11.02Zm1.55.17-.62-.6a.1.1 0 0 0-.13 0l-.61.62a.09.09 0 0 0 0 .12l.62.6c.03.03.1.03.13 0l.61-.61a.09.09 0 0 0 0-.13Zm-2.21-.43c-.55.2-.63.74-.32 1.19.03.03.06.04.1 0l.58-.62c.04-.04.05-.09.01-.14l-.26-.4a.1.1 0 0 0-.11-.03Zm3.18.04c.43.3.5.68.2 1.14a.06.06 0 0 1-.05.03.06.06 0 0 1-.05-.02l-.6-.63c-.04-.04-.04-.08 0-.12l.23-.35c.07-.1.17-.12.27-.05Zm0 1.43-.01-.05-.68-.67a.07.07 0 0 0-.1 0l-.6.57a.31.31 0 0 0-.03.05.21.21 0 0 0-.03.05.1.1 0 0 0 0 .04v.04l.66.64.04.02h.04l.06-.03a.32.32 0 0 0 .05-.04l.59-.57a.07.07 0 0 0 .02-.05Zm-1.88-.1-.62-.6a.1.1 0 0 0-.13 0l-.65.64a.09.09 0 0 0 0 .12l.62.6c.04.04.1.04.13 0l.65-.64a.09.09 0 0 0 0-.13Zm2.87.6c.06-.38-.04-.65-.3-.8a.23.23 0 0 0-.3.07.21.21 0 0 0 .04.29 3.04 3.04 0 0 1 .48.5h.03l.03-.02.02-.03Zm-5.01-.81c.09-.09.17-.08.23.03l.1.18c.02.04.01.08-.02.11l-.48.52a.07.07 0 0 1-.07.02.07.07 0 0 1-.03-.02.06.06 0 0 1-.02-.03.93.93 0 0 1 .29-.81Zm1.62 1.2.72-.7a.04.04 0 0 1 .06 0l.72.7v.06l-.73.7a.04.04 0 0 1-.05 0l-.72-.7a.03.03 0 0 1 0-.06Zm-1.07.72a.04.04 0 0 1-.06 0l-.57-.57a.18.18 0 0 1-.05-.15c0-.06.04-.12.09-.17l.38-.36a.3.3 0 0 1 .17-.08.2.2 0 0 1 .16.05l.57.57a.04.04 0 0 1 0 .05l-.7.66Zm4.31-.77-.57-.6a.08.08 0 0 0-.12 0l-.63.63a.08.08 0 0 0 0 .11l.63.63a.08.08 0 0 0 .06.02h.04l.02-.03.57-.65a.08.08 0 0 0 0-.1Zm-.41.96.56-.61c.03-.04.06-.04.08 0a1.52 1.52 0 0 1 .01 1.36.05.05 0 0 1-.06 0l-.6-.67v-.08Zm-4.8-.61-.01.02c-.2.44-.21.88-.03 1.33.02.04.05.05.08.01l.59-.66a.07.07 0 0 0 0-.1l-.54-.6a.06.06 0 0 0-.08 0Zm1.75-.04-.69.67a.03.03 0 0 0 0 .05l.72.7c.02.02.04.02.05 0l.7-.67a.03.03 0 0 0 0-.05l-.73-.7a.04.04 0 0 0-.05 0Zm1.16.7.72-.7a.04.04 0 0 1 .05 0l.7.68V29l-.73.7a.04.04 0 0 1-.05 0l-.7-.67a.03.03 0 0 1 0-.05Zm-2.73 1.03c.12-.27.4-.6.65-.8.03-.02.07-.02.1.02l.63.64a.08.08 0 0 1 0 .12l-.7.73c-.04.05-.09.05-.13 0l-.53-.58a.1.1 0 0 1-.02-.13Zm5.09-.07-.6-.7a.12.12 0 0 0-.09-.04.13.13 0 0 0-.1.04l-.59.6a.12.12 0 0 0 0 .17l.66.69a.12.12 0 0 0 .14.02l.04-.03.54-.6a.12.12 0 0 0 0-.15Zm-1.84-.04-.68-.66a.04.04 0 0 0-.06 0l-.69.66a.04.04 0 0 0 0 .06l.69.67c.01.02.04.02.06 0l.68-.67a.04.04 0 0 0 0-.06Zm-.52.93.7-.67a.04.04 0 0 1 .05 0l.8.79V31l-.7.67a.04.04 0 0 1-.05 0l-.8-.78a.03.03 0 0 1 0-.05Zm-.41-.03-.64-.61a.08.08 0 0 0-.11 0l-.74.73a.08.08 0 0 0 0 .1l.64.62c.03.03.08.03.11 0l.74-.73a.08.08 0 0 0 0-.11Zm-2.5-.43-.01.02a.97.97 0 0 0 .34 1.1.07.07 0 0 0 .06.02.07.07 0 0 0 .04-.03l.2-.41a.1.1 0 0 0-.02-.11l-.55-.59a.04.04 0 0 0-.06 0Zm4.83.58.53-.56c.04-.05.08-.04.1.03.12.45 0 .81-.37 1.09-.04.03-.07.02-.1-.03l-.18-.43a.09.09 0 0 1 .02-.1Zm-2.95.93.81-.8a.04.04 0 0 1 .05 0l.82.8v.05l-.82.79a.04.04 0 0 1-.05 0l-.8-.8a.03.03 0 0 1 0-.04Zm2.12-.07.53-.55c.04-.04.07-.03.1.01.27.45.22.85-.14 1.22-.03.04-.06.03-.1 0l-.4-.53a.11.11 0 0 1-.02-.08c0-.03.01-.05.03-.07Zm-2.53 0-.6-.56a.04.04 0 0 0-.06 0c-.27.46-.23.87.13 1.24.03.04.06.03.1 0l.44-.57a.07.07 0 0 0 .01-.05c0-.02 0-.04-.02-.05Zm0 1.17a.25.25 0 0 1-.23-.13.24.24 0 0 1 .03-.26l.37-.45c.03-.04.07-.04.1 0l.71.72a.06.06 0 0 1 .02.07.06.06 0 0 1-.06.04l-.94.01Zm1.77 0c.28.01.52.03.8-.05.16-.05.2-.15.12-.3-.1-.19-.23-.35-.39-.5-.03-.03-.06-.02-.08 0l-.7.73a.06.06 0 0 0 0 .08l.03.02.22.01Z" fill="rgb(217, 172, 67)"/>
</svg>
