<?xml version="1.0" encoding="UTF-8"?>
<!-- generated by Finnhub -->
<svg viewBox="0 0 55.5 55.5" xmlns="http://www.w3.org/2000/svg">
<path d="M 0,0 H 55.5 V 55.5 H 0 Z" fill="rgb(239, 242, 248)"/>
<path d="M 31.16,15.225 C 30.9,15.42 30.72,15.67 30.62,16.01 C 30.49,16.44 30.32,16.81 30.11,17.15 C 28.56,19.59 27.17,21.65 26.73,24.6 A 0.78,0.78 0 0,1 25.73,25.23 A 2.05,2.05 0 0,0 24.46,25.21 A 0.48,0.48 0 0,1 24.02,25.15 L 23.48,24.8 A 0.43,0.43 0 0,0 22.94,24.85 A 0.43,0.43 0 0,0 22.84,25.01 C 22.74,25.27 22.79,25.41 22.97,25.43 C 22.81,25.83 22.87,26.03 23.13,26.02 C 21.68,27.3 21.62,30.17 22.13,31.78 C 22.19,31.94 22.18,32.1 22.13,32.26 A 5.56,5.56 0 0,0 21.86,35.3 A 0.72,0.72 0 0,1 21.49,36.07 A 0.7,0.7 0 0,1 21.2,36.15 L 16.03,36.41 C 15.93,36.31 15.78,36.28 15.59,36.28 L 16.75,30.87 C 16.93,30.83 17.05,30.73 17.1,30.55 C 17.26,30.05 17.48,29.52 17.76,28.97 C 17.94,28.5 18.27,27.98 18.76,27.41 C 19.13,27.87 19.38,28.48 19.51,29.24 C 19.56,29.5 19.61,29.5 19.65,29.24 C 19.71,28.78 19.83,28.34 20.02,27.91 C 20.45,26.89 20.52,25.78 20.96,24.75 C 21.21,24.17 21.43,23.57 21.63,22.96 A 10.1,10.1 0 0,1 23.97,19.06 C 24.17,18.86 24.32,18.51 24.45,18.02 L 26.43,16.31 A 0.82,0.82 0 0,0 26.73,15.71 C 26.73,15.57 26.79,15.45 26.89,15.35 L 29.02,13.17 A 0.58,0.58 0 0,1 29.85,13.18 C 30.27,13.62 30.66,14.07 31.03,14.52 C 31.23,14.76 31.28,15.01 31.17,15.24 Z" fill="rgb(78, 173, 227)"/>
<path d="M 31.16,15.225 C 31.28,15.43 31.41,15.57 31.55,15.67 C 31.41,15.7 31.37,15.8 31.45,15.97 C 31.88,16.99 32.11,18.11 32.13,19.32 L 32.71,20.41 A 0.24,0.24 0 0,0 32.99,20.53 L 33.11,20.49 C 33.13,20.56 33.13,20.63 33.11,20.72 L 32.78,20.85 A 0.41,0.41 0 0,0 32.54,21.1 C 32.42,21.4 32.24,21.67 31.97,21.88 C 31.87,21.96 31.78,21.95 31.69,21.87 A 0.21,0.21 0 0,1 31.62,21.72 A 0.2,0.2 0 0,0 31.46,21.54 A 0.2,0.2 0 0,0 31.38,21.54 C 31.28,21.56 31.18,21.61 31.08,21.7 L 31.61,20.12 C 31.66,19.99 31.61,19.92 31.48,19.92 C 31.4,19.92 31.35,19.94 31.31,20 C 30.85,20.8 30.37,21.58 29.88,22.36 C 29.45,23.06 29.42,23.49 29.78,23.66 L 28.55,26.26 C 27.97,26.24 27.55,26.47 27.28,26.98 C 27.28,26.75 27.05,26.6 26.62,26.54 A 0.39,0.39 0 0,0 26.2,26.81 A 0.38,0.38 0 0,0 26.19,26.98 C 26.24,27.3 26.13,27.53 25.87,27.68 C 25.67,27.78 25.67,27.88 25.87,27.98 C 26.09,28.08 26.37,28.12 26.68,28.1 C 26.71,28.28 26.61,28.43 26.38,28.53 C 26.25,28.59 26.19,28.68 26.22,28.81 A 0.26,0.26 0 0,0 26.48,29.02 H 26.87 C 27.03,29.02 27.11,29.09 27.11,29.26 C 27.1,29.73 27.04,30.21 26.92,30.7 C 26.78,31.31 27.02,31.65 27.63,31.7 A 0.29,0.29 0 0,1 27.89,31.89 A 0.3,0.3 0 0,1 27.81,32.19 C 26.29,33.61 25.81,35.17 26.35,36.89 C 26.52,37.42 26.31,37.89 25.87,38.2 C 24.91,38.9 23.71,39.14 22.29,38.92 C 20.52,38.65 18.73,38.4 16.92,38.16 A 0.36,0.36 0 0,1 16.62,37.9 A 0.36,0.36 0 0,1 16.74,37.53 C 17,37.31 17.16,37.17 17.23,37.13 C 18.03,36.64 17.97,36.41 17.03,36.43 C 16.83,36.43 16.51,36.43 16.03,36.41 L 21.2,36.15 A 0.7,0.7 0 0,0 21.86,35.61 C 21.88,35.51 21.88,35.41 21.86,35.31 C 21.66,34.29 21.76,33.28 22.13,32.26 A 0.73,0.73 0 0,0 22.13,31.78 C 21.62,30.18 21.68,27.3 23.13,26.02 L 23.3,25.96 C 23.43,25.92 23.5,25.83 23.48,25.69 C 23.44,25.25 23.27,25.17 22.97,25.43 C 22.79,25.41 22.75,25.27 22.84,25.01 A 0.43,0.43 0 0,1 23.48,24.8 L 24.02,25.15 C 24.16,25.25 24.3,25.27 24.46,25.21 C 24.86,25.09 25.29,25.09 25.73,25.23 A 0.78,0.78 0 0,0 26.73,24.6 C 27.17,21.64 28.56,19.59 30.11,17.15 C 30.31,16.82 30.49,16.44 30.61,16.01 C 30.71,15.67 30.91,15.41 31.17,15.24 Z" fill="rgb(179, 217, 243)"/>
<path d="M 31.54,15.655 L 33.97,16.35 A 0.24,0.24 0 0,1 34.14,16.63 L 34.09,16.73 L 32.13,19.32 A 8.83,8.83 0 0,0 31.44,15.97 C 31.37,15.8 31.41,15.7 31.54,15.67 Z" fill="rgb(2, 29, 65)"/>
<path d="M 35.53,22.895 C 34.9,22.1 34.98,21.15 33.56,21.04 A 0.45,0.45 0 0,1 33.24,20.87 L 33.11,20.72 A 0.51,0.51 0 0,0 33.11,20.49 A 9.68,9.68 0 0,1 35.65,17.24 C 35.77,17.14 35.89,17.14 36.02,17.22 L 38.5,18.71 C 38.55,18.74 38.6,18.79 38.61,18.84 C 38.63,18.9 38.63,18.97 38.61,19.02 A 8.74,8.74 0 0,1 35.54,22.92 Z" fill="rgb(108, 25, 30)"/>
<path d="M 24.439999999999998,18.005 A 2.4,2.4 0 0,1 23.97,19.06 A 10.1,10.1 0 0,0 21.63,22.96 C 21.43,23.57 21.21,24.16 20.96,24.75 C 20.53,25.78 20.46,26.89 20.02,27.91 C 19.83,28.34 19.71,28.78 19.65,29.23 C 19.6,29.5 19.55,29.5 19.51,29.23 A 4.06,4.06 0 0,0 18.76,27.41 C 19.26,26.67 19.73,25.86 20.17,24.98 C 20.45,24.42 20.6,23.83 20.63,23.2 C 20.98,22.93 21.2,22.58 21.29,22.16 C 21.94,20.76 22.77,19.52 23.79,18.46 A 0.34,0.34 0 0,0 23.89,18.25 L 23.9,18.14 L 24.45,18.02 Z" fill="rgb(138, 195, 235)"/>
<path d="M 38.730000000000004,27.285 C 38.51,27.32 38.43,26.95 38.51,26.17 C 38.59,25.68 38.4,25.29 37.95,24.99 C 37.49,24.69 37,24.39 36.48,24.07 C 37.82,22.74 38.8,22.15 39.7,20.17 C 39.83,19.89 40,19.86 40.2,20.07 L 41.91,21.91 C 42.11,22.13 42.15,22.37 42.01,22.64 A 22.63,22.63 0 0,1 38.74,27.29 Z" fill="rgb(108, 25, 30)"/>
<path d="M 33.1,20.705 L 33.24,20.87 A 0.45,0.45 0 0,0 33.56,21.04 C 34.98,21.14 34.9,22.1 35.54,22.91 C 35.67,23.63 35.99,24.01 36.48,24.07 C 37,24.38 37.48,24.69 37.95,24.99 C 38.4,25.29 38.59,25.69 38.51,26.17 C 37.93,26.45 37.92,27.15 37.79,27.71 C 37.73,27.95 37.61,28.19 37.42,28.43 C 36.72,29.32 36.09,30.66 35.54,32.45 C 35.38,32.98 34.99,33.35 34.38,33.57 A 5.44,5.44 0 0,0 32.64,31.87 A 0.22,0.22 0 0,1 32.62,31.69 A 0.2,0.2 0 0,1 32.66,31.61 L 34.11,29.97 A 0.87,0.87 0 0,0 34.31,29.25 C 34.21,28.66 34.15,28.09 34.11,27.51 C 34.06,26.49 34.83,25.61 35.26,24.74 A 0.37,0.37 0 0,0 35.19,24.33 A 3.5,3.5 0 0,1 34.71,23.67 C 34.31,22.97 34.09,23.02 34.09,23.83 C 34.08,25.11 34.24,26.61 33.64,27.77 A 44.1,44.1 0 0,0 32.08,31.18 C 32,31.38 31.86,31.45 31.66,31.43 A 2.45,2.45 0 0,1 30.03,30.6 C 29.49,29.97 28.8,29.73 28.16,29.26 A 0.42,0.42 0 0,1 27.98,28.92 C 27.95,27.99 28.14,27.1 28.55,26.27 L 29.79,23.66 L 31.08,21.7 A 0.74,0.74 0 0,1 31.38,21.54 A 0.2,0.2 0 0,1 31.62,21.72 C 31.62,21.78 31.65,21.83 31.69,21.87 C 31.79,21.95 31.87,21.96 31.97,21.88 C 32.23,21.67 32.42,21.41 32.54,21.1 C 32.58,20.98 32.66,20.9 32.78,20.85 L 33.11,20.72 Z" fill="rgb(138, 195, 235)"/>
<path d="M 42.120000000000005,30.445 A 0.45,0.45 0 0,0 42.08,30.44 A 8.75,8.75 0 0,0 39.88,28.54 C 39.78,28.55 39.69,28.47 39.64,28.29 A 9.93,9.93 0 0,0 43.11,23.86 A 0.14,0.14 0 0,1 43.26,23.84 C 43.28,23.86 43.3,23.87 43.31,23.9 A 20.4,20.4 0 0,1 44.93,27.21 A 0.57,0.57 0 0,1 44.8,27.82 L 42.13,30.46 Z" fill="rgb(108, 25, 30)"/>
<path d="M 23.869999999999997,18.235 L 23.9,18.14 C 23.6,18.07 23.43,17.87 23.4,17.54 C 23.38,17.41 23.44,17.33 23.56,17.29 L 25.32,16.84 C 25.35,16.84 25.37,16.82 25.39,16.81 A 1957.8,1957.8 0 0,0 26.72,15.48 A 0.05,0.05 0 0,0 26.69,15.42 H 26.66 A 18,18 0 0,0 18.38,18.15 C 18.18,18.27 18.2,18.36 18.42,18.43 L 18.52,18.45 C 18.72,18.47 18.75,18.55 18.65,18.71 L 18.27,19.27 C 18.18,19.4 18.07,19.43 17.93,19.37 A 1.4,1.4 0 0,0 16.33,19.64 A 17.92,17.92 0 0,0 10.12,31.6 A 0.4,0.4 0 0,0 10.32,31.99 C 10.64,32.17 11.02,32.19 11.43,32.06 C 11.71,31.98 11.76,32.05 11.59,32.28 C 11.38,32.56 11.26,32.88 11.23,33.22 C 11.21,33.4 11.11,33.49 10.93,33.5 L 10.33,33.53 C 10.09,33.54 9.98,33.67 10,33.91 L 10.21,36.15 C 10.23,36.38 10.35,36.48 10.58,36.47 L 15.6,36.28 L 16.75,30.87 L 16.4,29.74 C 16.36,29.64 16.4,29.56 16.5,29.51 L 17.76,28.97 C 17.94,28.5 18.27,27.98 18.76,27.41 C 19.26,26.67 19.73,25.86 20.17,24.98 C 20.45,24.42 20.6,23.83 20.63,23.2 C 20.33,23.2 20.02,23.27 19.69,23.4 C 19.47,23.5 19.39,23.43 19.44,23.2 A 0.44,0.44 0 0,0 19.29,22.75 C 19.11,22.6 19.12,22.47 19.32,22.35 C 20.26,21.78 20.92,21.72 21.29,22.16 C 21.94,20.76 22.77,19.52 23.79,18.46 A 0.34,0.34 0 0,0 23.89,18.25 Z M 14.13,24.67 C 13.92,24.98 13.62,25.17 13.23,25.25 C 13.07,25.28 13.01,25.38 13.05,25.55 L 13.24,26.29 C 13.28,26.44 13.36,26.48 13.49,26.41 C 13.91,26.18 14.35,26.13 14.8,26.27 A 0.2,0.2 0 0,0 15.06,26.1 C 15.12,25.75 15.27,25.44 15.52,25.15 C 15.62,25.02 15.6,24.95 15.43,24.95 A 1.74,1.74 0 0,1 14.44,24.61 C 14.32,24.51 14.21,24.54 14.13,24.67 Z" fill="rgb(2, 29, 65)" fill-rule="evenodd"/>
<path d="M 23.119999999999997,26.005 C 22.87,26.03 22.81,25.84 22.97,25.43 C 23.27,25.17 23.44,25.25 23.47,25.69 C 23.49,25.83 23.43,25.92 23.3,25.96 L 23.13,26.02 Z" fill="rgb(2, 29, 65)"/>
<path d="M 25.139999999999997,26.255 A 0.33,0.33 0 0,0 25.15,25.61 A 0.33,0.33 0 0,0 24.82,25.94 C 24.82,26.12 24.97,26.27 25.15,26.27 Z" fill="rgb(78, 173, 227)"/>
<path d="M 38.5,26.155 C 38.43,26.95 38.51,27.32 38.74,27.29 C 38.72,27.61 38.8,27.86 38.99,28.05 A 0.71,0.71 0 0,0 38.58,28.07 A 0.25,0.25 0 0,0 38.43,28.24 C 38.13,29.4 37.69,30.37 37.98,31.61 A 0.23,0.23 0 0,0 38.15,31.78 A 0.22,0.22 0 0,0 38.37,31.7 A 5.61,5.61 0 0,0 39.61,29 C 39.65,28.78 39.73,28.7 39.88,28.55 A 8.75,8.75 0 0,1 42.08,30.45 C 41.89,31.08 41.32,31.39 40.92,31.87 A 0.34,0.34 0 0,0 40.84,32.21 C 41.03,32.86 41.06,33.53 40.94,34.21 L 40.74,34.04 C 40.59,33.9 40.48,33.93 40.42,34.14 L 40.38,34.28 A 0.42,0.42 0 0,1 40.1,34.58 L 36,36.02 C 35.85,36.08 35.74,36.03 35.66,35.89 L 34.38,33.57 C 34.99,33.36 35.38,32.98 35.54,32.45 A 12.75,12.75 0 0,1 37.42,28.43 C 37.61,28.19 37.73,27.95 37.79,27.71 C 37.92,27.15 37.93,26.45 38.51,26.17 Z" fill="rgb(179, 217, 243)"/>
<path d="M 27.279999999999998,26.965 C 27.22,27.52 27.02,27.89 26.69,28.1 C 26.36,28.12 26.09,28.08 25.88,27.98 C 25.68,27.88 25.68,27.78 25.87,27.68 C 26.13,27.53 26.24,27.3 26.19,26.98 A 0.38,0.38 0 0,1 26.44,26.56 A 0.39,0.39 0 0,1 26.62,26.54 C 27.05,26.6 27.27,26.74 27.29,26.98 Z" fill="rgb(2, 29, 65)"/>
<path d="M 38.99,28.035 C 39.26,28.25 39.47,28.34 39.64,28.29 C 39.69,28.47 39.77,28.55 39.88,28.55 C 39.73,28.71 39.65,28.78 39.61,29 A 5.61,5.61 0 0,1 38.37,31.7 A 0.22,0.22 0 0,1 38.15,31.78 A 0.22,0.22 0 0,1 37.98,31.61 C 37.68,30.37 38.12,29.41 38.43,28.24 A 0.25,0.25 0 0,1 38.58,28.07 C 38.68,28.02 38.83,28.02 38.99,28.05 Z" fill="rgb(138, 195, 235)"/>
<path d="M 44.690000000000005,33.945 A 6.56,6.56 0 0,0 42.74,31.4 C 43.34,30.4 44.19,29.7 45.26,29.26 C 45.43,29.19 45.53,29.25 45.56,29.42 C 45.86,30.8 46,32.21 46,33.63 C 46,33.77 45.94,33.86 45.82,33.91 C 45.54,34.04 45.17,34.05 44.7,33.96 Z" fill="rgb(108, 25, 30)"/>
<path d="M 42.07,30.425 L 42.13,30.46 L 41.99,32.08 C 41.95,32.48 42.06,32.52 42.31,32.21 C 42.47,32.01 42.61,31.74 42.74,31.4 C 43.62,32.1 44.27,32.96 44.7,33.96 C 43.9,34.09 42.73,34.22 41.2,34.35 C 41.05,34.35 40.96,34.31 40.94,34.22 C 41.06,33.53 41.03,32.86 40.84,32.21 A 0.34,0.34 0 0,1 40.92,31.87 C 41.32,31.39 41.89,31.07 42.08,30.44 Z" fill="rgb(138, 195, 235)"/>
<path d="M 28.86,36.665 C 29.41,36.2 29.59,35.28 30.37,35.22 C 30.94,35.16 31.41,35.8 31.63,36.26 A 0.43,0.43 0 0,1 31.63,36.63 A 0.43,0.43 0 0,1 31.35,36.87 A 9.5,9.5 0 0,1 29.05,37.15 A 0.26,0.26 0 0,1 28.8,36.98 A 0.27,0.27 0 0,1 28.87,36.68 Z" fill="rgb(179, 217, 243)"/>
</svg>
