<?xml version="1.0" encoding="UTF-8"?>
<!-- generated by Finnhub -->
<svg viewBox="0 0 55.5 55.5" xmlns="http://www.w3.org/2000/svg">
<path d="M 0,0 H 55.5 V 55.5 H 0 Z" fill="url(#a)"/>
<path d="M 50.86,30.985 A 0.94,0.94 0 0,1 50.37,30.86 C 50.21,30.76 50.09,30.63 50,30.46 L 50.14,29.86 C 50.24,30.01 50.36,30.12 50.49,30.21 A 0.7,0.7 0 0,0 50.89,30.35 C 51.06,30.35 51.19,30.28 51.29,30.15 C 51.39,30.02 51.45,29.85 51.47,29.64 C 51.48,29.44 51.47,29.28 51.41,29.16 A 0.4,0.4 0 0,0 51.16,28.92 L 50.82,28.79 A 0.74,0.74 0 0,1 50.34,28.3 A 2.4,2.4 0 0,1 50.25,27.35 C 50.27,27.07 50.33,26.82 50.42,26.62 C 50.51,26.42 50.62,26.27 50.76,26.16 C 50.89,26.06 51.05,26 51.21,26 C 51.38,26 51.53,26.05 51.67,26.14 C 51.81,26.24 51.92,26.36 52,26.51 L 51.85,27.11 A 0.95,0.95 0 0,0 51.56,26.78 A 0.57,0.57 0 0,0 51.21,26.65 C 51.04,26.65 50.91,26.72 50.81,26.86 C 50.71,27 50.66,27.18 50.64,27.39 C 50.63,27.59 50.64,27.75 50.68,27.89 C 50.73,28.01 50.8,28.09 50.92,28.13 L 51.27,28.26 C 51.5,28.34 51.67,28.5 51.76,28.74 C 51.86,28.97 51.88,29.27 51.86,29.64 C 51.83,29.92 51.78,30.16 51.69,30.37 C 51.6,30.57 51.49,30.73 51.35,30.84 C 51.21,30.94 51.05,31 50.87,31 Z M 48,31 L 48.32,27.29 A 15.76,15.76 0 0,0 48.4,26 H 48.88 L 48.83,27.32 H 48.74 C 48.8,27.02 48.89,26.78 48.99,26.59 C 49.09,26.39 49.21,26.24 49.34,26.15 A 0.68,0.68 0 0,1 50.01,26.05 L 49.93,26.84 A 0.33,0.33 0 0,0 49.79,26.78 A 0.57,0.57 0 0,0 49.21,26.95 C 49.08,27.07 48.98,27.24 48.91,27.45 C 48.83,27.66 48.78,27.9 48.75,28.17 L 48.5,31 H 48 Z M 46.09,31 A 0.83,0.83 0 0,1 45.43,30.7 C 45.26,30.48 45.13,30.18 45.06,29.8 C 44.99,29.4 44.98,28.92 45.03,28.37 C 45.1,27.6 45.27,27.01 45.53,26.6 C 45.8,26.2 46.11,26 46.48,26 C 46.73,26 46.93,26.1 47.1,26.32 C 47.27,26.52 47.37,26.82 47.4,27.19 L 47.34,27.2 L 47.51,26 H 48 L 47.92,26.66 L 47.85,27.23 L 47.5,31 H 47 L 47.1,29.8 H 47.19 C 47.09,30.17 46.95,30.47 46.76,30.68 A 0.87,0.87 0 0,1 46.09,31 Z M 46.23,30.3 C 46.48,30.3 46.7,30.16 46.88,29.86 C 47.06,29.56 47.18,29.11 47.23,28.52 A 2.9,2.9 0 0,0 47.13,27.16 C 46.99,26.86 46.8,26.7 46.53,26.7 C 46.28,26.7 46.07,26.85 45.89,27.15 C 45.71,27.45 45.59,27.89 45.54,28.47 C 45.49,29.08 45.52,29.54 45.64,29.85 C 45.77,30.15 45.97,30.31 46.24,30.31 Z M 43.5,31 C 43.1,31 42.8,30.83 42.56,30.48 C 42.33,30.13 42.17,29.64 42.08,29.02 C 41.99,28.39 41.98,27.67 42.03,26.85 C 42.09,26.03 42.2,25.33 42.37,24.75 A 3.5,3.5 0 0,1 43.02,23.45 C 43.28,23.14 43.58,22.99 43.92,23 C 44.15,23 44.36,23.08 44.54,23.23 C 44.72,23.38 44.87,23.6 45,23.89 L 44.82,24.72 C 44.68,24.42 44.54,24.22 44.4,24.11 A 0.76,0.76 0 0,0 43.89,23.93 C 43.52,23.93 43.21,24.19 42.97,24.72 A 6.7,6.7 0 0,0 42.51,26.95 C 42.47,27.58 42.47,28.13 42.53,28.6 C 42.59,29.06 42.7,29.43 42.87,29.68 C 43.03,29.94 43.26,30.08 43.54,30.08 C 43.71,30.08 43.89,30 44.06,29.88 C 44.23,29.73 44.39,29.51 44.55,29.21 L 44.7,30.01 C 44.55,30.33 44.36,30.58 44.15,30.75 C 43.93,30.92 43.71,31 43.49,31 Z M 38.86,31 C 38.66,31 38.48,30.9 38.34,30.7 C 38.2,30.49 38.11,30.2 38.04,29.8 A 7.31,7.31 0 0,1 38.23,27.07 C 38.33,26.72 38.46,26.45 38.61,26.27 C 38.77,26.09 38.94,26 39.13,26 C 39.34,26 39.52,26.1 39.66,26.3 C 39.79,26.51 39.89,26.81 39.95,27.2 C 40.01,27.6 40.02,28.07 39.98,28.62 C 39.94,29.14 39.88,29.57 39.77,29.92 C 39.67,30.28 39.54,30.55 39.38,30.73 C 39.23,30.91 39.05,31 38.86,31 Z M 38.89,30.3 C 39.07,30.3 39.23,30.16 39.35,29.86 C 39.48,29.56 39.57,29.11 39.61,28.52 C 39.65,27.92 39.62,27.46 39.53,27.16 C 39.43,26.86 39.3,26.7 39.1,26.7 C 38.92,26.7 38.77,26.85 38.64,27.15 C 38.52,27.45 38.44,27.89 38.39,28.47 C 38.35,29.08 38.38,29.54 38.47,29.85 C 38.55,30.15 38.7,30.31 38.89,30.31 Z M 36,31 L 36.32,27.29 A 15.76,15.76 0 0,0 36.4,26 H 36.88 L 36.83,27.32 H 36.74 C 36.8,27.02 36.89,26.78 36.99,26.59 C 37.09,26.39 37.21,26.24 37.34,26.15 A 0.68,0.68 0 0,1 38.01,26.05 L 37.93,26.84 A 0.33,0.33 0 0,0 37.79,26.78 A 0.57,0.57 0 0,0 37.21,26.95 C 37.08,27.07 36.98,27.24 36.91,27.45 C 36.83,27.66 36.78,27.9 36.75,28.17 L 36.5,31 H 36 Z M 34.17,31 C 33.92,31 33.74,30.84 33.63,30.51 A 4.15,4.15 0 0,1 33.52,28.99 L 33.72,26 H 34.1 L 33.9,28.95 C 33.87,29.42 33.88,29.75 33.95,29.96 C 34.01,30.17 34.12,30.28 34.28,30.28 C 34.46,30.28 34.61,30.14 34.72,29.87 C 34.84,29.59 34.91,29.23 34.94,28.78 L 35.13,26 H 35.5 L 35.17,31 H 34.81 L 34.88,29.83 H 34.94 C 34.86,30.2 34.75,30.49 34.62,30.7 C 34.49,30.9 34.34,31 34.17,31 Z M 30,31 L 30.6,23 H 33 L 32.93,23.86 H 31 L 30.8,26.51 H 32.62 L 32.56,27.37 H 30.74 L 30.54,30.14 H 32.47 L 32.41,31 H 30 Z M 26.87,31 A 0.94,0.94 0 0,1 26.37,30.86 C 26.21,30.76 26.09,30.63 26,30.46 L 26.14,29.86 C 26.24,30.01 26.36,30.12 26.49,30.21 A 0.7,0.7 0 0,0 26.89,30.35 C 27.06,30.35 27.19,30.28 27.29,30.15 C 27.39,30.02 27.45,29.85 27.47,29.64 C 27.48,29.44 27.47,29.28 27.41,29.16 A 0.4,0.4 0 0,0 27.16,28.92 L 26.82,28.79 A 0.74,0.74 0 0,1 26.34,28.3 A 2.4,2.4 0 0,1 26.25,27.35 C 26.27,27.07 26.33,26.82 26.42,26.62 C 26.51,26.42 26.62,26.27 26.76,26.16 C 26.89,26.06 27.05,26 27.21,26 C 27.38,26 27.53,26.05 27.67,26.14 C 27.81,26.24 27.92,26.36 28,26.51 L 27.85,27.11 A 0.95,0.95 0 0,0 27.56,26.78 A 0.57,0.57 0 0,0 27.21,26.65 C 27.04,26.65 26.91,26.72 26.81,26.86 C 26.71,27 26.66,27.18 26.64,27.39 C 26.63,27.59 26.64,27.75 26.68,27.89 C 26.73,28.01 26.8,28.09 26.92,28.13 L 27.27,28.26 C 27.5,28.34 27.67,28.5 27.76,28.74 C 27.86,28.97 27.88,29.27 27.86,29.64 C 27.83,29.92 27.78,30.16 27.69,30.37 C 27.6,30.57 27.49,30.73 27.35,30.84 C 27.21,30.94 27.05,31 26.87,31 Z M 24.15,31 C 23.91,31 23.72,30.84 23.61,30.51 A 4.15,4.15 0 0,1 23.5,29 L 23.7,26.01 H 24.08 L 23.88,28.96 C 23.85,29.43 23.86,29.76 23.93,29.97 C 23.99,30.18 24.1,30.29 24.26,30.29 C 24.44,30.29 24.59,30.15 24.7,29.88 C 24.82,29.6 24.9,29.24 24.92,28.79 L 25.11,26.01 H 25.48 L 25.15,31.01 H 24.79 L 24.86,29.84 H 24.92 C 24.84,30.21 24.73,30.5 24.6,30.71 C 24.47,30.91 24.32,31.01 24.15,31.01 Z M 21.86,31 C 21.66,31 21.48,30.9 21.34,30.7 C 21.2,30.49 21.11,30.2 21.04,29.8 A 7.32,7.32 0 0,1 21.23,27.07 C 21.33,26.72 21.46,26.45 21.61,26.27 C 21.77,26.09 21.94,26 22.13,26 C 22.34,26 22.52,26.1 22.66,26.3 C 22.79,26.51 22.89,26.81 22.95,27.2 C 23.01,27.6 23.02,28.07 22.98,28.62 C 22.94,29.14 22.88,29.57 22.77,29.92 C 22.67,30.28 22.54,30.55 22.38,30.73 C 22.23,30.91 22.05,31 21.86,31 Z M 21.89,30.3 C 22.07,30.3 22.23,30.16 22.35,29.86 C 22.48,29.56 22.57,29.11 22.61,28.52 C 22.65,27.92 22.62,27.46 22.53,27.16 C 22.43,26.86 22.3,26.7 22.1,26.7 C 21.92,26.7 21.77,26.85 21.64,27.15 C 21.52,27.45 21.44,27.89 21.39,28.47 C 21.35,29.08 21.38,29.54 21.47,29.85 C 21.55,30.15 21.7,30.31 21.89,30.31 Z M 19.5,31 L 19.88,25.34 H 20.31 L 19.93,31 H 19.51 Z M 19.92,24.1 L 20,23 H 20.5 L 20.43,24.1 H 19.93 Z M 17.12,34 C 16.89,34 16.68,33.94 16.49,33.83 C 16.3,33.71 16.14,33.53 16,33.29 L 16.16,32.55 C 16.26,32.71 16.36,32.83 16.46,32.92 C 16.56,33.02 16.66,33.1 16.77,33.14 C 16.89,33.18 17.01,33.21 17.14,33.21 C 17.4,33.21 17.61,33.07 17.76,32.79 C 17.91,32.52 18.01,32.13 18.05,31.62 L 18.16,30.09 H 18.23 C 18.14,30.5 18.01,30.83 17.83,31.08 C 17.63,31.32 17.43,31.43 17.18,31.43 C 16.94,31.43 16.73,31.32 16.56,31.09 A 2.44,2.44 0 0,1 16.2,30.09 A 6.28,6.28 0 0,1 16.16,28.58 C 16.23,27.74 16.39,27.11 16.63,26.66 C 16.88,26.22 17.19,26 17.54,26 C 17.78,26 17.98,26.12 18.14,26.36 A 2,2 0 0,1 18.43,27.35 L 18.39,27.25 L 18.53,26.1 H 19 A 40.29,40.29 0 0,0 18.86,27.4 L 18.53,31.5 A 4.6,4.6 0 0,1 18.08,33.36 C 17.84,33.79 17.52,34 17.12,34 Z M 17.32,30.65 C 17.56,30.65 17.77,30.48 17.94,30.15 C 18.11,29.8 18.22,29.33 18.27,28.73 C 18.32,28.11 18.28,27.63 18.16,27.29 C 18.04,26.96 17.86,26.79 17.6,26.79 C 17.35,26.79 17.14,26.96 16.97,27.29 C 16.8,27.63 16.69,28.09 16.64,28.71 C 16.59,29.32 16.63,29.81 16.75,30.14 C 16.88,30.48 17.06,30.65 17.31,30.65 Z M 15,31 L 15.38,25.34 H 15.8 L 15.43,31 H 15 Z M 15.42,24.1 L 15.49,23 H 16 L 15.92,24.1 H 15.42 Z M 14.13,31 A 0.7,0.7 0 0,1 13.44,30.54 A 2.99,2.99 0 0,1 13.32,29.18 L 13.57,26.4 H 13 L 13.06,25.67 H 13.64 L 13.77,24.26 L 14.32,24 L 14.17,25.67 H 15 L 14.94,26.4 H 14.11 L 13.87,29.07 C 13.83,29.47 13.85,29.77 13.91,29.95 C 13.97,30.12 14.08,30.21 14.24,30.21 A 0.6,0.6 0 0,0 14.44,30.18 L 14.6,30.08 L 14.53,30.86 A 0.76,0.76 0 0,1 14.33,30.96 A 0.5,0.5 0 0,1 14.13,31 Z M 11.87,31 A 0.94,0.94 0 0,1 11.37,30.86 C 11.21,30.76 11.09,30.63 11,30.46 L 11.14,29.86 C 11.24,30.01 11.36,30.12 11.49,30.21 A 0.7,0.7 0 0,0 11.89,30.35 C 12.06,30.35 12.19,30.28 12.29,30.15 C 12.39,30.02 12.45,29.85 12.47,29.64 C 12.48,29.44 12.47,29.28 12.41,29.16 A 0.4,0.4 0 0,0 12.16,28.92 L 11.82,28.79 A 0.74,0.74 0 0,1 11.34,28.3 A 2.4,2.4 0 0,1 11.25,27.35 C 11.27,27.07 11.33,26.82 11.42,26.62 C 11.51,26.42 11.62,26.27 11.76,26.16 C 11.89,26.06 12.05,26 12.21,26 C 12.38,26 12.53,26.05 12.67,26.14 C 12.81,26.24 12.92,26.36 13,26.51 L 12.85,27.11 A 0.95,0.95 0 0,0 12.56,26.78 A 0.57,0.57 0 0,0 12.21,26.65 C 12.04,26.65 11.91,26.72 11.81,26.86 C 11.71,27 11.66,27.18 11.64,27.39 C 11.63,27.59 11.64,27.75 11.68,27.89 C 11.73,28.01 11.8,28.09 11.92,28.13 L 12.27,28.26 C 12.5,28.34 12.67,28.5 12.76,28.74 C 12.86,28.97 12.88,29.27 12.86,29.64 C 12.83,29.92 12.78,30.16 12.69,30.37 C 12.6,30.57 12.49,30.73 12.35,30.84 C 12.21,30.94 12.05,31 11.87,31 Z M 10,31 A 0.72,0.72 0 0,1 9.4,30.67 A 2.18,2.18 0 0,1 9.06,29.75 C 9,29.35 8.98,28.88 9.02,28.35 C 9.06,27.85 9.12,27.43 9.22,27.08 C 9.33,26.73 9.46,26.46 9.62,26.28 A 0.71,0.71 0 0,1 10.17,26 C 10.37,26 10.54,26.1 10.67,26.3 C 10.8,26.49 10.89,26.76 10.94,27.1 C 11,27.45 11.01,27.85 10.98,28.3 L 10.96,28.6 H 9.31 L 9.34,28.07 H 10.74 L 10.66,28.21 C 10.69,27.71 10.66,27.31 10.58,27.05 C 10.49,26.77 10.35,26.63 10.15,26.63 C 10,26.63 9.88,26.71 9.77,26.85 C 9.67,26.99 9.59,27.19 9.52,27.44 C 9.46,27.68 9.42,27.96 9.4,28.28 L 9.39,28.52 C 9.35,29.09 9.39,29.53 9.49,29.85 C 9.61,30.15 9.79,30.31 10.04,30.31 C 10.16,30.31 10.28,30.27 10.4,30.18 C 10.52,30.1 10.63,29.96 10.73,29.78 L 10.86,30.38 C 10.74,30.58 10.61,30.73 10.46,30.84 C 10.31,30.94 10.16,31 10,31 Z M 7,31 L 7.32,27.29 A 15.58,15.58 0 0,0 7.4,26 H 7.88 L 7.83,27.32 H 7.74 C 7.8,27.02 7.89,26.78 7.99,26.59 C 8.09,26.39 8.21,26.24 8.34,26.15 A 0.68,0.68 0 0,1 9.01,26.05 L 8.93,26.84 A 0.33,0.33 0 0,0 8.79,26.78 A 0.58,0.58 0 0,0 8.21,26.95 C 8.08,27.07 7.98,27.24 7.91,27.45 C 7.83,27.66 7.78,27.9 7.75,28.17 L 7.5,31 H 7 Z M 4,31 L 4.55,23 H 5.95 C 6.35,23 6.62,23.22 6.8,23.66 C 6.97,24.09 7.04,24.69 6.98,25.46 C 6.95,25.91 6.88,26.29 6.78,26.62 C 6.66,26.95 6.52,27.19 6.34,27.37 A 0.9,0.9 0 0,1 5.71,27.62 H 4.7 L 4.46,31 H 4 Z M 4.75,26.76 H 5.69 C 5.94,26.76 6.13,26.64 6.27,26.42 C 6.41,26.18 6.5,25.83 6.53,25.37 C 6.57,24.87 6.53,24.5 6.43,24.25 C 6.31,23.99 6.13,23.86 5.89,23.86 H 4.95 L 4.75,26.76 Z" fill="rgb(208, 175, 17)"/>
<defs>
<linearGradient id="a" x1="10.42" x2="68.15" y1="9.71" y2="76.02" gradientUnits="userSpaceOnUse">
<stop stop-color="rgb(25, 29, 31)" offset="0"/>
<stop stop-color="rgb(5, 5, 8)" offset="1"/>
</linearGradient>
</defs>
</svg>
