<?xml version="1.0" encoding="UTF-8"?>
<!-- generated by Finnhub -->
<svg viewBox="0 0 55.5 55.5" xmlns="http://www.w3.org/2000/svg">
<path d="M0 0h55.5v55.5H0z" fill="rgb(239, 242, 248)"/>
<path d="M4 30v-4h1.47c.3 0 .55.1.76.22.2.11.36.26.46.46.1.2.16.41.16.66 0 .25-.05.47-.16.66-.1.2-.26.35-.47.46-.2.11-.46.17-.76.17h-.97V28h.87c.18 0 .32.02.44-.04.1-.06.2-.15.24-.25.06-.11.09-.23.09-.37a.78.78 0 0 0-.09-.36.56.56 0 0 0-.25-.25.92.92 0 0 0-.43-.09h-.65V30H4ZM7.29 30v-4h1.47c.3 0 .55.1.76.2.2.11.36.26.46.45.1.18.16.4.16.65s-.05.46-.16.65c-.1.18-.26.32-.47.42-.2.1-.46.15-.76.15H7.7v-.59h.95c.18 0 .32-.02.44-.07.1-.05.2-.12.24-.21.06-.1.09-.22.09-.35a.71.71 0 0 0-.09-.36.52.52 0 0 0-.25-.22 1.04 1.04 0 0 0-.43-.08H8V30h-.71Zm2.02-1.82.97 1.82H9.5l-.95-1.82h.77ZM14.26 28c0 .42-.08.77-.24 1.07a1.67 1.67 0 0 1-1.56.92 1.7 1.7 0 0 1-1.56-.92c-.17-.3-.24-.66-.24-1.07 0-.42.07-.78.23-1.08a1.69 1.69 0 0 1 1.57-.92c.34 0 .65.08.92.24.27.16.48.38.64.68.16.3.24.66.24 1.08Zm-.72 0c0-.3-.04-.55-.14-.75-.09-.2-.22-.36-.38-.46-.16-.1-.35-.16-.56-.16-.22 0-.4.05-.57.16-.16.1-.29.26-.38.46-.1.2-.14.45-.14.75s.04.54.14.75c.09.2.22.35.38.46.16.1.35.15.57.15.2 0 .4-.05.56-.15.16-.1.29-.26.38-.46.1-.2.14-.46.14-.75ZM15 26h.87l1.1 2.87h.05L18.14 26H19v4h-.68v-2.73h-.03L17.25 30h-.5l-1.03-2.74h-.04V30H15v-4ZM21 30v-4h1.45c.3 0 .56.1.76.2.2.11.36.26.46.45.11.18.16.4.16.65s-.05.46-.16.65c-.1.18-.26.32-.47.42-.2.1-.46.15-.76.15H21.4v-.59h.95c.17 0 .32-.02.43-.07.11-.05.2-.12.25-.21.05-.1.08-.22.08-.35a.71.71 0 0 0-.08-.36.52.52 0 0 0-.25-.22 1.04 1.04 0 0 0-.44-.08h-.65V30H21Zm2-1.82.98 1.82h-.8l-.95-1.82h.78ZM24.28 30v-4h2.48v.64H25v1.06h1.63v.59H25v1.06h1.78V30h-2.5ZM29.51 27.12a.52.52 0 0 0-.23-.39.87.87 0 0 0-.5-.13.98.98 0 0 0-.39.06c-.1.05-.19.1-.24.18a.44.44 0 0 0-.03.47.5.5 0 0 0 .15.16l.22.1.24.07.37.09c.14.03.29.08.42.14.14.06.26.13.37.22.11.09.2.2.26.32.07.12.1.27.1.44a1.05 1.05 0 0 1-.69 1 2 2 0 0 1-.8.15c-.3 0-.57-.05-.8-.14-.22-.1-.4-.23-.52-.41a1.2 1.2 0 0 1-.2-.66h.7c0 .14.05.25.12.34.08.09.17.16.3.2.11.05.25.07.4.07.15 0 .28-.02.4-.07s.2-.11.28-.2c.06-.08.1-.17.1-.29 0-.1-.03-.18-.1-.25a.66.66 0 0 0-.24-.16c-.1-.05-.23-.09-.37-.13l-.44-.1a1.8 1.8 0 0 1-.77-.38.86.86 0 0 1-.28-.67 1 1 0 0 1 .2-.6c.12-.18.29-.31.5-.4.22-.1.47-.15.74-.15.28 0 .52.05.73.14.21.1.38.23.5.4a1 1 0 0 1 .18.58h-.68ZM34.27 28c0 .42-.08.77-.23 1.07a1.67 1.67 0 0 1-1.57.92 1.7 1.7 0 0 1-1.56-.92c-.16-.3-.24-.66-.24-1.07 0-.42.08-.78.24-1.08a1.69 1.69 0 0 1 1.56-.92c.35 0 .65.08.92.24.27.16.49.38.65.68.15.3.23.66.23 1.08Zm-.71 0c0-.3-.05-.55-.14-.75-.1-.2-.22-.36-.38-.46-.17-.1-.35-.16-.57-.16-.21 0-.4.05-.56.16-.17.1-.3.26-.39.46-.09.2-.13.45-.13.75s.04.54.13.75c.1.2.22.35.39.46.16.1.35.15.56.15.22 0 .4-.05.57-.15.16-.1.29-.26.38-.46.1-.2.14-.46.14-.75ZM37.3 26h.7v2.6c0 .27-.05.52-.18.73-.14.2-.32.37-.56.5-.24.11-.52.17-.83.17-.32 0-.6-.06-.84-.18a1.34 1.34 0 0 1-.56-.5c-.13-.2-.2-.45-.2-.73V26h.72v2.53c0 .17.03.31.1.44.08.12.18.22.3.3.14.07.3.1.48.1s.33-.03.46-.1a.76.76 0 0 0 .3-.3c.08-.13.12-.27.12-.44V26ZM38.68 30v-4h1.47c.3 0 .55.1.76.2.2.11.36.26.46.45.1.18.16.4.16.65s-.05.46-.16.65c-.1.18-.26.32-.47.42-.2.1-.46.15-.76.15h-1.05v-.59h.95c.18 0 .32-.02.44-.07.1-.05.19-.12.24-.21.06-.1.09-.22.09-.35a.71.71 0 0 0-.09-.36.52.52 0 0 0-.25-.22 1.04 1.04 0 0 0-.43-.08h-.65V30h-.71Zm2.02-1.82.97 1.82h-.79l-.95-1.82h.77ZM45.43 27.36h-.72a.88.88 0 0 0-.32-.54.86.86 0 0 0-.27-.14 1.1 1.1 0 0 0-.9.11c-.17.1-.3.26-.4.46-.08.2-.13.45-.13.75s.05.55.14.75c.1.2.22.35.38.46a1.15 1.15 0 0 0 .9.1.9.9 0 0 0 .28-.13.82.82 0 0 0 .32-.53h.72a1.52 1.52 0 0 1-.52.95 1.6 1.6 0 0 1-.5.3c-.2.06-.4.1-.64.1a1.66 1.66 0 0 1-1.56-.92 2.3 2.3 0 0 1-.23-1.08c0-.42.07-.78.23-1.08a1.67 1.67 0 0 1 1.56-.92c.22 0 .42.03.6.1.2.05.36.14.5.26.16.12.28.26.37.43.1.17.16.36.19.57ZM46 30v-4h2.52v.64h-1.84v1.06h1.7v.59h-1.7v1.06h1.85V30H46ZM51.26 27.12a.52.52 0 0 0-.22-.39.87.87 0 0 0-.51-.13.98.98 0 0 0-.39.06c-.1.05-.18.1-.24.18a.44.44 0 0 0-.03.47.5.5 0 0 0 .16.16c.06.04.13.07.21.1l.24.07.37.09c.15.03.29.08.42.14.14.06.27.13.37.22.11.09.2.2.26.32.07.12.1.27.1.44a1.05 1.05 0 0 1-.68 1 2 2 0 0 1-.8.15c-.31 0-.58-.05-.8-.14-.22-.1-.4-.23-.52-.41-.13-.18-.2-.4-.2-.66h.7c0 .14.04.25.12.34.07.09.17.16.29.2.12.05.25.07.4.07.15 0 .29-.02.4-.07.12-.05.21-.11.28-.2.07-.08.1-.17.1-.29 0-.1-.03-.18-.09-.25a.66.66 0 0 0-.25-.16c-.1-.05-.22-.09-.36-.13l-.45-.1a1.8 1.8 0 0 1-.76-.38.86.86 0 0 1-.28-.67 1 1 0 0 1 .18-.6c.13-.18.3-.31.52-.4.22-.1.46-.15.73-.15.28 0 .53.05.74.14.2.1.37.23.5.4a1 1 0 0 1 .18.58h-.69Z"/>
</svg>
