<?xml version="1.0" encoding="UTF-8"?>
<!-- generated by Finnhub -->
<svg viewBox="0 0 55.5 55.5" xmlns="http://www.w3.org/2000/svg">
<path d="M 0,0 H 55.5 V 55.5 H 0 Z" fill="url(#b)"/>
<path d="M 13.99,27.985 A 4,4 0 0,1 8,31.47 V 36 H 6 V 28 A 4,4 0 1,1 14,28 Z M 8,28.06 V 28 A 2,2 0 1,1 8,28.07 Z M 38,28 A 4,4 0 0,1 32,31.47 V 36 H 30 V 28 A 4,4 0 1,1 38,28 Z M 32,28.06 V 28 A 2,2 0 1,1 32,28.07 Z" fill="rgb(254, 254, 253)" fill-rule="evenodd"/>
<path d="M 24.99,33.385 C 26.47,32.1 29,29.78 29,27.59 C 29,25.39 27.2,23.61 25,23.61 S 21,25.39 21,27.59 C 21,29.62 22.6,31.14 24.53,32.96 L 25,33.41 Z M 25,29.37 C 25.99,29.37 26.8,28.57 26.8,27.59 C 26.8,26.6 25.99,25.8 25,25.8 S 23.2,26.6 23.2,27.59 C 23.2,28.57 24.01,29.37 25,29.37 Z" fill="url(#a)" fill-rule="evenodd"/>
<path d="M 14.99,26.685 V 32 H 17.1 V 27.38 C 17.1,26.71 17.6,26.16 18.25,26.16 H 20 V 24 H 17.55 C 16.14,24 15,25.21 15,26.7 Z M 48,20 H 50 V 32 H 48 Z" fill="rgb(254, 254, 253)"/>
<path d="M 42.99,31.985 C 44.23,32 45.33,31.44 46.06,30.57 L 44.18,29.35 A 1.78,1.78 0 0,1 41.26,28.45 H 46.97 L 47,28 A 4,4 0 1,0 43,32 Z M 41.51,27 H 44.48 A 1.79,1.79 0 0,0 41.51,27 Z" fill="rgb(254, 254, 253)" fill-rule="evenodd"/>
<defs>
<linearGradient id="b" x1="10.42" x2="68.15" y1="9.71" y2="76.02" gradientUnits="userSpaceOnUse">
<stop stop-color="rgb(25, 29, 31)" offset="0"/>
<stop stop-color="rgb(5, 5, 8)" offset="1"/>
</linearGradient>
<linearGradient id="a" x1="25" x2="25" y1="23.61" y2="33.41" gradientUnits="userSpaceOnUse">
<stop stop-color="rgb(131, 251, 65)" offset="0"/>
<stop stop-color="rgb(35, 180, 50)" offset=".77"/>
</linearGradient>
</defs>
</svg>
