<!-- by Finnhub --><svg width="56" height="56" viewBox="0 0 56 56" xmlns="http://www.w3.org/2000/svg"><path fill="#2D2E20" d="M0 0h56v56H0z"/><path d="M4 32.5h48v.5H4v-.5Z" fill="#C1212C"/><path d="M24.17 28.93c-4.44 0-5.15-1.93-9.82-1.93-3.6 0-5.82 2.47-7.35 5h45a27.3 27.3 0 0 0-13.36-4.18c-11.7 0-10.03 1.1-14.47 1.1Z" fill="#0EAC48"/><path d="M14.88 25.73c.52 0 .74-.14.74-.46 0-.29-.22-.42-.74-.42H13.5v.88h1.38Zm-1.38 2.04c0 .07.03.12.26.14V28h-2.01v-.1c.08 0 .25 0 .25-.13v-3.54c0-.12-.17-.13-.25-.14V24h3.39c.77 0 1.86.36 1.86 1.27 0 .92-1.09 1.26-1.86 1.26H13.5v1.24ZM20.95 25.69c.25 0 .42-.04.51-.12.1-.09.15-.19.15-.3 0-.11-.05-.2-.15-.29-.09-.09-.26-.13-.51-.13H19.5v.84h1.45Zm-1.45 2.08c0 .04.01.07.03.1.03.01.1.03.21.04V28h-1.98v-.1c.1 0 .17-.02.2-.04a.12.12 0 0 0 .04-.09v-3.54a.1.1 0 0 0-.04-.09c-.03-.02-.1-.04-.2-.05V24h3.36c1.27 0 1.85.4 1.85 1.26 0 .71-.64 1.1-1.27 1.25l1.02 1.26c.07.1.15.14.25.14V28h-2.14v-.1c.13 0 .2-.04.2-.13a.41.41 0 0 0-.07-.1c-.3-.4-.68-.76-.96-1.18h-.5v1.28ZM36.95 25.69c.25 0 .42-.04.51-.12.1-.09.15-.19.15-.3 0-.11-.05-.2-.15-.29-.09-.09-.26-.13-.51-.13H35.5v.84h1.45Zm-1.45 2.08c0 .04.01.07.03.1.03.01.1.03.21.04V28h-1.98v-.1c.1 0 .17-.02.2-.04a.12.12 0 0 0 .04-.09v-3.54a.1.1 0 0 0-.04-.09c-.03-.02-.1-.04-.2-.05V24h3.36c1.27 0 1.85.4 1.85 1.26 0 .71-.64 1.1-1.27 1.25l1.02 1.26c.07.1.15.14.25.14V28h-2.14v-.1c.13 0 .2-.04.2-.13a.41.41 0 0 0-.07-.1c-.3-.4-.68-.76-.96-1.18h-.5v1.28ZM25.77 27.9h.14v.1H24v-.1c.14-.01.18-.05.24-.17a74.34 74.34 0 0 0 1.67-3.56c0-.03-.02-.05-.06-.06a.82.82 0 0 0-.13-.02V24h2.45v.1a.6.6 0 0 0-.12.01c-.03.01-.05.04-.05.08l.09.2c.56 1.09 1.08 2.2 1.65 3.3l.12.17c.04.03.08.05.14.05V28h-2.03v-.1c.12 0 .18-.03.18-.08l-.05-.1c-.09-.19-.13-.39-.27-.59H26c-.05.1-.33.68-.23.76Zm1.81-1.38L26.86 25l-.64 1.52h1.36ZM30.86 27.9c.07 0 .1-.02.12-.04a.17.17 0 0 0 .02-.09v-3.54c0-.04 0-.07-.02-.09-.02-.02-.05-.04-.12-.05V24h1.78v.1c-.07 0-.1.02-.12.04a.15.15 0 0 0-.02.09v3.54c0 .04 0 .07.02.1.02.01.05.03.12.04V28h-1.78v-.1ZM39.86 27.9c.07 0 .1-.02.12-.04a.17.17 0 0 0 .02-.09v-3.54c0-.04 0-.07-.02-.09-.02-.02-.05-.04-.12-.05V24h1.78v.1c-.07 0-.1.02-.12.04a.15.15 0 0 0-.02.09v3.54c0 .04 0 .07.02.1.02.01.05.03.12.04V28h-1.78v-.1ZM45.9 26.53a.19.19 0 0 0-.06-.11c-.03-.04-.08-.05-.16-.05H44.5v.78h2.27c.04 0 .07-.01.1-.04a.42.42 0 0 0 .04-.17H47v1.2h-.1c0-.07-.02-.1-.04-.12a.16.16 0 0 0-.09-.02H42.8v-.08c.1-.01.15-.03.17-.05a.11.11 0 0 0 .04-.08v-3.58a.09.09 0 0 0-.04-.08c-.02-.02-.08-.04-.17-.05V24h3.98c.04 0 .07-.01.1-.03a.38.38 0 0 0 .04-.17H47v1.22h-.1c0-.08-.02-.13-.04-.15-.02-.03-.05-.05-.09-.05H44.5v.78h1.18c.08 0 .13-.02.16-.04a.22.22 0 0 0 .07-.12H46v1.09h-.1Z" fill="#008DC7"/><path d="M12.5 32a1.51 1.51 0 0 1-1.3-.73c-.13-.23-.2-.48-.2-.77a1.47 1.47 0 0 1 .74-1.3c.23-.14.48-.2.76-.2.27 0 .52.06.75.2a1.47 1.47 0 0 1 .75 1.3 1.48 1.48 0 0 1-1.5 1.5Zm0-.42a1 1 0 0 0 .89-.52c.09-.17.13-.35.13-.56 0-.2-.04-.4-.13-.56a.97.97 0 0 0-.38-.38.97.97 0 0 0-.51-.14 1.03 1.03 0 0 0-.9.52c-.09.17-.13.35-.13.56a1.07 1.07 0 0 0 .51.95c.16.09.33.13.52.13ZM15 29h.9c.22 0 .42.04.58.13a.94.94 0 0 1 .52.85c0 .3-.1.53-.3.71-.2.18-.47.28-.81.28h-.43V32H15v-3Zm.86 1.59c.22 0 .38-.06.5-.17a.58.58 0 0 0 .18-.44.56.56 0 0 0-.18-.43c-.12-.11-.28-.17-.5-.17h-.4v1.2h.4ZM18 32v-3h1.96v.42h-1.47v.94h1.3v.4h-1.3v.82H20V32h-2ZM21 29h.84c.22 0 .4.04.56.13a.98.98 0 0 1 .49.85 1 1 0 0 1-.15.54.89.89 0 0 1-.41.36L23 32h-.49l-.6-1.03h-.41V32H21v-3Zm.8 1.59c.22 0 .37-.06.49-.17a.6.6 0 0 0 .16-.44.58.58 0 0 0-.16-.43c-.12-.11-.27-.17-.48-.17h-.31v1.2h.3ZM24 32l1.48-3h.04L27 32h-.53l-.24-.53h-1.46l-.24.53H24Zm.93-.9h1.14l-.57-1.27-.57 1.27ZM28 32v-2.58h-1V29h2.5v.42h-.99V32H28ZM30 32v-3h.5v3H30ZM34.94 32l-2.44-1.92V32H32v-3h.05l2.45 1.94V29h.5v3h-.06ZM37.66 32c-.86 0-1.66-.6-1.66-1.5 0-.92.83-1.5 1.68-1.5.46 0 .85.14 1.15.4l-.26.33a1.5 1.5 0 0 0-.9-.31c-.62 0-1.17.45-1.17 1.08 0 .63.55 1.1 1.17 1.1.3 0 .58-.1.85-.3v-.56h-.95v-.35H39v1.02c-.33.38-.8.59-1.34.59ZM42.47 32c-.83 0-1.47-.68-1.47-1.5 0-.83.64-1.5 1.48-1.5.4 0 .74.14 1 .4l-.22.33c-.23-.2-.5-.31-.8-.31-.6 0-.96.5-.96 1.08 0 .58.37 1.08.97 1.08.32 0 .61-.15.84-.37l.23.34c-.3.3-.65.45-1.07.45ZM45.5 32c-.84 0-1.5-.67-1.5-1.5s.67-1.5 1.5-1.5a1.5 1.5 0 1 1 0 3Zm0-.42c.6 0 1-.5 1-1.08 0-.62-.43-1.08-1-1.08-.6 0-1 .5-1 1.08 0 .58.4 1.08 1 1.08Z" fill="#FAFEFC"/><path d="M4 32.12c0-.09.07-.16.15-.18 1.16-.36 1.4-1.6 1.5-2.63.08-.85.19-2 .53-3.09.46-1.45 1.35-2.83 3.17-3.2.37-.08.9.14 1.15.39.07.07.13.18.12.31-.02.23-.1.64-.39.7-.04.02-.1.03-.15.03.22.28-.27.6-.46.76l-.19.16c.1-.01.22 0 .27.1.15.26.02.74 0 1.03.21.06.46.14.69.25.23.1.63.27.6.57 0 .06-.02.11-.07.14-.15.1-.32.02-.46-.05.06.07.09.16.08.27-.01.3-.62.35-.84.4v1.04c0 .06-.04.1-.08.14.06.01.13.05.16.1.13.28.26.6.26.92 0 .42-.1.7-.23.91-.05.09-.13.17-.19.26.05.04.13.08.2.1.08.02.15.09.15.17v.45c0 .14-.15.23-.27.17a3.23 3.23 0 0 0-1.19-.22c-.07 0-.19-.11-.19-.2l-.15.12c-.12.06-.24 0-.27-.13-.03.14-.15.27-.15.41 0 .12.14.13.15.24 0 .08-.04.16-.11.2l-.42.22c-.2.1-.22-.14-.35-.14-.13 0-.17.17-.3.15-.1 0-.4-.23-.43-.3a.4.4 0 0 1 .04-.16c-.23.03-.55.07-.76.07-.47 0-.98-.18-1.42-.3-.08-.03-.15-.1-.15-.18Z"/><path d="M5.76 30.06a2.48 2.48 0 0 1-1.57 2.06c.35.1 1.11.3 1.36.3.24 0 .7-.07.9-.1-.14-.23-.4-.8-.4-1.21 0-.53.4-.77.59-.77.2 0 .36-.06.36.15 0 .2-.67.11-.67.56 0 .36.26.86.39 1.07l.53.05c.05.08.13.24.1.32-.03.07-.33-.08-.48-.17-.17.11-.47.34-.36.34.1 0 .18.1.2.15.05-.05.17-.15.3-.15.12 0 .2.1.24.15l.44-.23c-.04 0-.13-.08-.13-.26 0-.22.13-.34.13-.54s-.13-.52.1-.52.26.39.26.61c.56-.3.92-1.04 1.02-1.04.15 0 .13.07.13.22s-.44.67-.69.88c.58 0 1.07.16 1.25.24v-.45c-.12-.03-.35-.12-.35-.26 0-.17.42-.41.42-1.18 0-.27-.16-.67-.25-.84-.07.09-.24.26-.32.26-.1 0-.2-.01-.2-.15 0-.1.29-.33.43-.43v-1c-.05.05-.27.16-.73.16-.57 0-1.13-.67-.97-.76.15-.1.57.46 1.05.46.48 0 1.24-.15 1.5-.31.03-.43-1.73-.75-1.85-.86-.11-.12-.11-.25 0-.3.12-.06 1 .4 1.46.5.46.1.72.38.84.3.01-.27-.86-.56-1.3-.67.02-.36.06-1.09 0-1.09-.08 0-.42.1-.5.17-.07.08-.23.06-.23-.17a3.4 3.4 0 0 0 1.19-.95c-.02-.1-.23-.1-.2-.2.04-.12.27-.12.43-.16.15-.03.23-.33.25-.54.02-.2-.54-.5-1.04-.5-3.46.7-3.4 5.21-3.63 6.86Z" fill="#71503C"/><path d="m10.2 23.42-.67.8-1.72 1.73-.31 3.74-.67 2.16.16.3.26.02c.05.08.13.24.1.32-.02.03-.08.02-.17-.01l.15.25.05.01.31-.16c-.04 0-.13-.08-.13-.26 0-.11.03-.2.07-.28a.65.65 0 0 0 .06-.26c0-.06 0-.12-.02-.18-.02-.18-.05-.34.12-.34.23 0 .26.39.26.61.37-.2.65-.58.82-.82.1-.13.16-.22.2-.22.13 0 .13.06.13.18v.04c0 .15-.44.67-.69.88.58 0 1.07.16 1.25.24v-.45c-.12-.03-.35-.12-.35-.26 0-.05.04-.11.1-.2.13-.18.32-.45.32-.98 0-.27-.16-.67-.25-.84-.07.09-.24.26-.32.26-.1 0-.2-.02-.2-.15 0-.1.29-.33.43-.43v-1c-.05.05-.27.16-.73.16-.57 0-1.13-.67-.97-.76.06-.04.18.04.33.15.2.13.45.31.72.31.48 0 1.24-.15 1.5-.31.02-.3-.84-.55-1.4-.71a2.12 2.12 0 0 1-.45-.15c-.11-.12-.11-.25 0-.3.06-.03.32.07.62.2.28.12.61.26.84.3.23.05.42.15.56.22.13.07.22.12.28.08.01-.27-.86-.56-1.3-.67.02-.36.06-1.09 0-1.09-.08 0-.42.1-.5.17-.08.08-.23.06-.23-.17a3.4 3.4 0 0 0 1.19-.95c-.01-.04-.06-.07-.1-.09-.06-.03-.11-.05-.1-.12.03-.08.17-.1.3-.12l.13-.03c.15-.03.23-.33.25-.54 0-.08-.1-.19-.24-.28Z" fill="#FBFBFB"/><path d="M6.1 31.49c-.23.3-.86.22-1.17.18-.27.24-.55.39-.74.45.35.1 1.11.3 1.36.3.24 0 .7-.07.9-.1-.1-.16-.26-.5-.35-.83Zm.76-1.16c.09 0 .14.04.14.16 0 .08-.1.12-.24.16-.19.06-.43.13-.43.4 0 .36.26.86.39 1.07l.53.05.02.03c.03-.1.06-.21.06-.3 0-.14-.04-.35-.06-.44 0-.21.17-.38.35-.55.2-.2.4-.4.4-.68 0-.13-.03-.3-.06-.5-.04-.22-.08-.47-.08-.7 0-.33.33-.67.5-.8a1.33 1.33 0 0 1-.14-.11c-.33-.2-.56-.54-.45-.6.05-.04.14.01.25.1.1-.21.3-.35.38-.35l.12.04c.08.04.2.1.38.1.22 0 .35-.23.38-.34l-.01-.01-.34-.1a2.12 2.12 0 0 1-.46-.15c-.11-.12-.11-.25 0-.3.05-.02.2.03.38.1-.24-.3-.55-.76-.55-.94 0-.19.17-.3.34-.41.1-.06.19-.12.26-.2.19-.2.66-.82.82-1.02.1-.13.43-.29.68-.38-.05-.18-.44-.4-.84-.45 0 .26.06.37.1.45.04.05.06.09.06.14 0 .15-.2.35-.52.3-.32-.06-.42.05-.5.3-.1.38-.3.46-.53.55-.08.03-.17.07-.25.12-.52.37-.67 1.92-.67 3.25a4.53 4.53 0 0 1-.41 2.01Zm.74 2.18a.35.35 0 0 1-.16.05c-.03 0-.07-.02-.1-.06-.05.05-.33-.1-.47-.18-.17.11-.47.34-.36.34.1 0 .18.1.2.15.05-.05.17-.15.3-.15.12 0 .2.1.24.15l.44-.23a.17.17 0 0 1-.09-.07Z" fill="#D89E75"/><ellipse cx="9.37" cy="23.81" rx=".29" ry=".21" fill="#2D2E20"/><path d="M8.49 24.73c-.07.09-.25.07-.38-.04-.14-.11-.19-.28-.11-.36.07-.09.24-.07.38.04.13.11.18.27.11.36Z" fill="#2D2E20"/></svg>