<?xml version="1.0" encoding="UTF-8"?>
<!-- generated by Finnhub -->
<svg viewBox="0 0 55.5 55.5" xmlns="http://www.w3.org/2000/svg">
<path d="M 0,0 H 55.5 V 55.5 H 0 Z" fill="rgb(50, 50, 100)"/>
<path d="M 9.99,15.985 H 46 V 40 H 10 V 16 Z" fill="rgb(79, 79, 129)"/>
<path d="M 45.49,16.485 H 10.5 V 39.5 H 45.5 V 16.5 Z M 10,16 V 40 H 46 V 16 H 10 Z" fill="rgb(254, 254, 253)" fill-rule="evenodd"/>
<path d="M 31.75,24.745 A 20.8,20.8 0 0,1 36.49,22.9 C 38.85,22.34 40.89,22.35 41.9,23.64 C 42.97,25 43.08,27.24 42.27,29.25 A 18.18,18.18 0 0,1 39.69,33.64 L 39.27,33.36 A 15.53,15.53 0 0,0 31.77,24.76 Z M 30,23.98 A 23.3,23.3 0 0,1 36.12,21.4 C 38.58,20.82 41.38,20.8 43.02,22.89 C 44.61,24.91 44.25,27.47 43.37,29.64 A 18.8,18.8 0 0,1 40.57,34.25 A 33.38,33.38 0 0,1 45.77,38.78 L 44.6,39.82 C 43.2,38.3 41.6,36.92 39.88,35.67 A 15.13,15.13 0 0,1 40.02,40 H 10 V 32.08 A 15.52,15.52 0 0,1 15.33,25.76 A 51.4,51.4 0 0,0 10.33,24.96 V 24.14 H 10.34 C 12.04,24.31 14.22,24.54 16.69,24.93 A 15.95,15.95 0 0,1 29.99,23.98 Z M 29.6,28.33 H 29.38 A 70.23,70.23 0 0,0 27.14,27.49 L 27.81,26.65 L 29.6,28.33 Z M 26.46,23.52 C 24.45,23.28 20.33,23.34 19.76,25.48 C 21.44,25.82 23.2,26.24 24.98,26.78 L 26.46,25.56 V 23.52 Z M 11.62,31.75 C 12.19,30.15 14.05,26.97 17.08,26.15 L 18.98,26.61 L 22.28,28.33 L 14.15,36.42 L 14.97,30.3 L 11.62,31.75 Z M 14.15,38.17 L 24.97,28.77 L 27.81,30.3 L 24.97,33.72 L 25.79,36.42 L 23.19,35.69 L 19.75,37.59 L 21.32,39.55 H 14.15 V 38.17 Z" fill="rgb(254, 254, 253)" fill-rule="evenodd"/>
</svg>
