<?xml version="1.0" encoding="UTF-8"?>
<!-- generated by Finnhub -->
<svg viewBox="0 0 55.5 55.5" xmlns="http://www.w3.org/2000/svg">
<path d="M 0,0 H 55.5 V 55.5 H 0 Z" fill="rgb(239, 242, 248)"/>
<path d="M 13.99,13.985 H 42 V 42 H 14 Z" fill="rgb(162, 40, 64)"/>
<path d="M 19.99,19.985 H 42 V 42 H 20 Z" fill="rgb(33, 46, 98)"/>
<path d="M 24.29,37.985 H 26.2 V 37.77 H 25.82 C 25.69,37.74 25.49,37.61 25.69,37.25 L 26.27,36.3 H 28.08 L 28.22,37.25 C 28.25,37.42 28.22,37.77 27.85,37.77 H 27.56 V 38 H 30.18 V 37.77 H 29.86 C 29.72,37.76 29.42,37.61 29.36,37.1 C 29.31,36.58 28.74,33.49 28.46,32 L 25.16,37.25 L 25.11,37.35 C 24.97,37.57 24.84,37.76 24.31,37.76 V 38 Z M 28.04,36 L 27.74,33.94 L 26.45,36 H 28.04 Z M 31.59,32 V 32.26 C 32.2,32.26 32.29,32.56 32.25,32.71 C 31.92,34.01 31.22,36.71 31.07,37.21 C 30.92,37.72 30.7,37.81 30.61,37.78 H 30.38 V 38 H 33 V 37.78 H 32.7 C 32.34,37.78 32.3,37.44 32.34,37.27 L 33.6,32.71 C 33.69,32.38 34.03,32.31 34.19,32.32 L 34.23,32 H 31.59 Z M 35.02,32 V 32.27 C 35.58,32.27 35.64,32.57 35.6,32.73 A 1509,1509 0 0,1 34.33,37.45 C 34.24,37.77 34.03,37.8 33.93,37.77 H 33.73 V 38 H 36.85 C 37.75,38 38.87,37.55 38.87,36.32 C 38.87,35.34 38.17,34.97 37.81,34.9 C 38.31,34.86 39.31,34.5 39.31,33.43 C 39.31,32.35 38.25,32.03 37.71,32 H 35.02 Z M 36.34,34.77 L 36.89,32.7 A 0.46,0.46 0 0,1 37.3,32.44 C 37.6,32.44 37.98,32.61 37.98,33.4 C 37.98,34.18 37.62,34.77 36.34,34.77 Z M 35.6,37.71 L 36.2,35.41 C 36.25,35.31 36.4,35.11 36.67,35.11 C 37.01,35.11 37.43,35.31 37.43,36.18 C 37.43,37.05 37.03,37.71 35.6,37.71 Z" fill="rgb(239, 242, 248)" fill-rule="evenodd"/>
</svg>
