<?xml version="1.0" encoding="UTF-8"?>
<!-- generated by Finnhub -->
<svg viewBox="0 0 55.5 55.5" xmlns="http://www.w3.org/2000/svg">
<path d="M 0,0 H 55.5 V 55.5 H 0 Z" fill="rgb(239, 242, 248)"/>
<path d="M 22.459999999999997,12.985 A 9.6,9.6 0 0,0 13,22.71 V 22.94 C 14.7,21.36 17.8,19.32 21,19.81 A 2.83,2.83 0 0,1 23.8,17 H 31 V 24.13 A 2.83,2.83 0 0,1 28.2,27 H 21 V 22.74 C 19.49,22.58 15.98,23.29 13,27.11 V 35.04 C 14.7,33.46 17.8,31.43 21,31.91 V 31.87 A 2.83,2.83 0 0,1 23.8,29 H 31 V 36.13 A 2.83,2.83 0 0,1 28.2,39 H 21 V 34.84 C 19.49,34.69 15.98,35.39 13,39.21 V 43 H 33.53 A 9.6,9.6 0 0,0 43,33.29 V 26.13 A 2.83,2.83 0 0,1 40.2,29 H 33 V 21.87 A 2.83,2.83 0 0,1 35.8,19 H 43 V 13 H 22.47 Z M 24,21.15 C 24,20.51 24.5,20 25.12,20 H 28 V 22.85 C 28,23.49 27.5,24 26.88,24 H 24 V 21.15 Z M 36,23.15 C 36,22.51 36.5,22 37.12,22 H 40 V 24.85 C 40,25.49 39.5,26 38.88,26 H 36 V 23.15 Z M 25.12,32 C 24.5,32 24,32.51 24,33.15 V 36 H 26.88 C 27.5,36 28,35.49 28,34.85 V 32 H 25.12 Z" fill="url(#a)"/>
<defs>
<linearGradient id="a" x1="28" x2="28" y1="13" y2="43" gradientUnits="userSpaceOnUse">
<stop stop-color="rgb(183, 192, 106)" offset="0"/>
<stop stop-color="rgb(159, 177, 66)" offset=".46"/>
<stop stop-color="rgb(130, 148, 50)" offset="1"/>
</linearGradient>
</defs>
</svg>
