<?xml version="1.0" encoding="UTF-8"?>
<!-- generated by Finnhub -->
<svg viewBox="0 0 55.5 55.5" xmlns="http://www.w3.org/2000/svg">
<path d="M 0,0 H 55.5 V 55.5 H 0 Z" fill="rgb(239, 242, 248)"/>
<path d="M 26.61,26.985 L 23.12,29.04 C 24.55,40.01 18.86,42.88 16.14,42.88 C 13.97,42.88 12.47,41.16 12,40.3 A 5.7,5.7 0 0,0 17.26,44 C 20.11,44 23.91,41 25.58,37.42 A 16.84,16.84 0 0,0 26.62,27 Z" fill="rgb(36, 50, 110)"/>
<path d="M 35.940000000000005,13.264999999999999 C 36.36,14.64 34.25,16.51 31.25,17.46 C 28.24,18.41 25.46,18.08 25.05,16.72 C 24.64,15.36 26.75,13.49 29.75,12.54 C 32.76,11.59 35.54,11.92 35.95,13.28 Z" fill="rgb(35, 171, 72)"/>
<path d="M 20.66,16.985 L 14,19.93 C 17.46,19.93 20.09,23.27 20.97,24.94 C 22.36,25.14 25.1,24.92 25,22.34 C 24.9,19.77 22.07,17.71 20.67,17 Z" fill="rgb(36, 50, 110)"/>
<path d="M 42.42,15.985 L 47,21.53 C 41.4,21.73 34.76,21.55 25.61,26.22 C 15.75,31.25 14.27,35.39 14.27,37.08 C 14.27,38.42 15.14,39.58 15.57,40 C 14.71,39.92 13,38.92 13,36.15 C 13,33.39 15.45,27.78 22.3,23.41 C 29.49,18.48 38.71,16.41 42.43,16 Z" fill="rgb(23, 162, 218)"/>
</svg>
