<?xml version="1.0" encoding="UTF-8"?>
<!-- generated by Finnhub -->
<svg viewBox="0 0 55.5 55.5" xmlns="http://www.w3.org/2000/svg">
<path d="M 0,0 H 55.5 V 55.5 H 0 Z" fill="rgb(239, 242, 248)"/>
<path d="M 16.91,14.985 H 18.52 C 23.88,15.34 28.62,18.76 29.96,23.96 A 9,9 0 1,1 29.93,31.99 C 27.93,37.66 23.8,40.67 17.53,41 H 16.22 C 14.62,40.89 10.62,40.07 10,38.52 V 38.24 C 10.38,37.46 11.6,37.54 12.58,37.61 C 12.91,37.63 13.22,37.65 13.46,37.64 C 22.14,37.14 25.99,26.14 19.26,20.62 A 10.62,10.62 0 0,0 11.26,18.24 C 10.46,18.31 10.09,17.38 10.56,16.78 C 11.36,15.77 15.63,15.09 16.92,15 Z M 27.12,22.86 A 9.78,9.78 0 0,0 18.4,17.29 C 18.21,17.29 18.2,17.33 18.36,17.43 C 21.3,19.17 23.19,20.78 24.33,24.03 C 26.31,29.64 23.66,35.49 18.58,38.53 A 0.09,0.09 0 0,0 18.54,38.64 C 18.54,38.66 18.56,38.68 18.58,38.69 A 0.1,0.1 0 0,0 18.64,38.7 C 20.98,38.24 23,37.72 24.74,36.07 C 26.34,34.58 27.64,32.41 27.97,30.24 C 28.32,27.86 28.2,25.02 27.12,22.86 Z M 38,35 A 7,7 0 1,0 38,21 A 7,7 0 0,0 38,35 Z M 42,28 A 4,4 0 1,1 34,28 A 4,4 0 0,1 42,28 Z" fill="rgb(29, 42, 127)"/>
</svg>
