<?xml version="1.0" encoding="UTF-8"?>
<!-- generated by Finnhub -->
<svg viewBox="0 0 55.5 55.5" xmlns="http://www.w3.org/2000/svg">
<path d="M 0,0 H 55.5 V 55.5 H 0 Z" fill="rgb(239, 242, 248)"/>
<path d="M 28.99,9.985 H 27 V 11 H 22.62 L 15,44 H 18.05 L 25,34.92 V 44 H 31 V 35.65 L 37.48,44 H 41 L 33.29,11 H 29 V 10 Z M 27,14.48 V 18 H 24.26 L 27,14.48 Z M 21.98,23.8 L 22.41,20 H 25.4 L 21.98,23.8 Z M 26,21.98 L 21.49,29 H 26 V 21.98 Z M 20.35,31 L 18.35,39.46 L 25.4,31 H 20.35 Z M 29,18 V 14.48 L 31.45,18 H 29 Z M 33.3,20 L 33.73,23.8 L 30.3,20 H 33.29 Z M 34.23,29 L 30,21.98 V 29 H 34.23 Z M 37.36,39.46 L 35.36,31 H 30.31 L 37.36,39.46 Z M 29,35 H 27 V 42 H 29 V 35 Z" fill-rule="evenodd"/>
</svg>
