<!-- by Finnhub --><svg xmlns="http://www.w3.org/2000/svg" width="56" height="56" viewBox="0 0 56 56"><path fill="url(#a3bl0iezr)" d="M0 0h56v56H0z"/><path d="M9.24 21.33l-5.17 8.92a.5.5 0 0 0 .43.75h1.14l.67-1.16h-.66l4.17-7.19L14.66 31H16l-5.6-9.67a.67.67 0 0 0-1.16 0zM33.62 24h-1.6v1.61H31V27h1.02v2.79c0 .95.2 2.22 1.98 2.22a3 3 0 0 0 .99-.16H35v-1.4l-.11.05c-.17.09-.42.12-.59.12-.57 0-.68-.32-.68-.85V27H35V25.6h-1.38V24zM18.7 28.32c0 .93.66 1.88 1.77 1.88 1.14 0 1.73-.96 1.73-1.9 0-.9-.54-1.88-1.73-1.88-1.1 0-1.77.99-1.77 1.9zm.05-2.49c.32-.36.96-.83 2.08-.83 1.83 0 3.16 1.39 3.16 3.3 0 1.94-1.35 3.35-3.2 3.35-.83 0-1.58-.32-2.04-.86V34H17v-9h1.76v.83zm9.36.56c-.78 0-1.41.57-1.5 1.38h2.78c-.02-.29-.1-1-.72-1.27a1.35 1.35 0 0 0-.56-.11zm.01-1.39c.83 0 1.51.3 2 .85.56.62.87 1.56.87 2.73l-.01.44v.08H26.6c.1.8.77 1.4 1.56 1.4.6 0 1.12-.14 1.58-.56l.66 1.14a2.84 2.84 0 0 1-2.23.92c-1.9 0-3.18-1.39-3.18-3.46 0-1 .3-1.85.81-2.47A2.93 2.93 0 0 1 28.13 25zm15.37 5.48c-1.19 0-1.73-1.04-1.73-2s.54-1.99 1.73-1.99 1.73 1.03 1.73 1.98c0 .97-.54 2-1.73 2zm0-5.48a3.37 3.37 0 0 0-3.5 3.47c0 2.01 1.5 3.53 3.5 3.53s3.5-1.52 3.5-3.53A3.37 3.37 0 0 0 43.5 25zm8.2 3.71l.01.03c.2.28.29.63.29 1.02 0 1.4-.96 2.24-2.56 2.24-.74 0-1.8-.38-2.42-.86l-.02-.01.72-1.2.01.02c.43.35 1.19.62 1.77.62l.2-.01c.25-.04.67-.17.67-.66 0-.47-.4-.62-1.3-.84a2.78 2.78 0 0 1-1.43-.75c-.2-.21-.31-.47-.36-.78a2.05 2.05 0 0 1-.04-.39c0-1.48 1.24-2.14 2.46-2.14.72 0 1.7.34 2.24.77h.01l-.69 1.16-.01-.01a2.85 2.85 0 0 0-1.6-.53h-.07c-.21.01-.7.08-.78.5l-.01.1c0 .43.4.55 1.22.77.58.14 1.28.39 1.68.95zm-13.9-2.15c.23-.69.66-1.4 1.66-1.54.14-.02.4-.05.54-.02v1.7a2.43 2.43 0 0 0-.54-.08c-1.64 0-1.65 2.08-1.65 2.1V32H36v-7h1.8v1.56zM5.69 32.14l.67-1.15 3.22-5.52a.34.34 0 0 1 .58 0l2.78 4.77a.5.5 0 0 1-.43.76H8.33l.37-.65.3-.52h2.35l-1.49-2.55-2.16 3.7-.67 1.16-.54.86H5.14l.54-.86z" fill="#fff"/><defs><linearGradient id="a3bl0iezr" x1="10.42" y1="9.71" x2="68.15" y2="76.02" gradientUnits="userSpaceOnUse"><stop stop-color="#1A1E21"/><stop offset="1" stop-color="#06060A"/></linearGradient></defs></svg>