<?xml version="1.0" encoding="UTF-8"?>
<!-- generated by Finnhub -->
<svg viewBox="0 0 55.5 55.5" xmlns="http://www.w3.org/2000/svg">
<path d="M0 0h55.5v55.5H0z" fill="rgb(239, 242, 248)"/>
<path d="M26.05 45.85a12.61 12.61 0 0 1-8.9-5.9A15.13 15.13 0 0 1 15 32.06c0-1.08.18-2.15.47-3.19.4-1.5 1-2.97 1.66-4.38a59.13 59.13 0 0 1 3.77-6.7A110.47 110.47 0 0 1 28 8c1.99 2.45 3.87 4.98 5.65 7.59a81.81 81.81 0 0 1 3.5 5.6 45.31 45.31 0 0 1 2.14 4.24c.53 1.23.98 2.45 1.31 3.72.22.86.37 1.74.39 2.62.08 5.1-2.24 10.14-6.83 12.66a12.86 12.86 0 0 1-8.12 1.42Zm2.59-9.76a19 19 0 0 0-.54-12.9c-.04-.1-.16-.13-.2-.02a19 19 0 0 0-.55 12.94h-.01a23.54 23.54 0 0 0-8.32-8.9c-.06-.04-.1-.04-.14 0-.05.05-.03.1-.01.16a13.73 13.73 0 0 0 2.36 5.08 15.67 15.67 0 0 0 4.9 4.3 17.03 17.03 0 0 0-7.77-1.17c-.15.01-.19.11-.07.21a10.03 10.03 0 0 0 8.04 2.3 10.27 10.27 0 0 0-4.4 3.07c0 .1.08.14.17.11 1.14-.28 2.26-.67 3.32-1.21a6.82 6.82 0 0 0 2.33-1.85c.02 1.01-.03 2.03-.06 3.03l.01.07.01.02c.14.15.3.17.49.07.07-.04.1-.1.1-.17a162.72 162.72 0 0 1-.05-3.03 7.45 7.45 0 0 0 3.06 2.21c.84.36 1.7.65 2.58.86.16.04.2-.07.11-.19a10.3 10.3 0 0 0-4.34-3c2.97.47 5.74-.41 8.04-2.29.09-.07.1-.2-.04-.2a16.86 16.86 0 0 0-7.82 1.14c3.63-2.07 6.36-5.3 7.3-9.41.01-.08-.02-.13-.11-.14H37l-.25.15a23.62 23.62 0 0 0-8.12 8.76Z" fill="url(#c)"/>
<path d="M17.42 28.82c1.03-4.78 7.14-13.87 10.06-17.8-4 11.62-4.76 16.1-5.3 19.02-.54 2.93-6.05 4.76-4.76-1.22Z" fill="url(#b)"/>
<path d="M28.64 36.1h.01a23.62 23.62 0 0 1 8.38-8.92c.09.01.12.06.1.14-.93 4.12-3.66 7.34-7.3 9.4a16.86 16.86 0 0 1 7.82-1.15c.15.03.14.15.05.22a10.02 10.02 0 0 1-8.04 2.3 10.3 10.3 0 0 1 4.34 3c.1.1.05.22-.1.18-.9-.21-1.75-.5-2.6-.86a7.45 7.45 0 0 1-3.06-2.2v.53c0 .73.03 1.56.06 2.49 0 .08-.03.13-.1.17-.18.1-.35.08-.49-.07v-.02l-.02-.07c.03-1 .08-2.02.06-3.03h-.01a6.82 6.82 0 0 1-2.32 1.85c-1.06.54-2.17.93-3.32 1.21-.1.03-.17 0-.17-.1l.01-.03.06-.07a10.27 10.27 0 0 1 4.33-2.98c-3 .44-5.7-.4-8.04-2.3-.12-.1-.07-.2.07-.21a17.03 17.03 0 0 1 7.79 1.14 15.67 15.67 0 0 1-4.92-4.27 13.73 13.73 0 0 1-2.36-5.08c-.02-.06-.04-.1 0-.16.04-.04.1-.04.15 0a23.54 23.54 0 0 1 8.33 8.9 19 19 0 0 1 .55-12.94c.04-.1.16-.08.2.01a19 19 0 0 1 .54 12.91Z" fill="rgb(239, 242, 248)"/>
<path d="m40.96 31.07.04.7c.08 5.1-2.24 10.14-6.83 12.66a12.85 12.85 0 0 1-7.87 1.46l-4.24-4.61h.04c1.14-.29 2.26-.68 3.32-1.22a6.82 6.82 0 0 0 2.33-1.85c.02.76 0 1.52-.03 2.28l-.03.75a.2.2 0 0 0 0 .04l.01.03.01.02c.14.15.3.17.49.07.07-.04.1-.1.1-.17a162.72 162.72 0 0 1-.05-3.03 7.45 7.45 0 0 0 3.06 2.21c.84.36 1.7.65 2.58.86.16.04.2-.07.11-.19a10.3 10.3 0 0 0-4.34-3c2.97.47 5.74-.41 8.04-2.29.09-.07.1-.2-.04-.2a16.87 16.87 0 0 0-7.82 1.14c3.63-2.07 6.36-5.3 7.3-9.41.01-.08-.02-.13-.11-.14h-.01l.05-.06 3.89 3.95Zm-6.84-1.8-5.94-5.87a18.96 18.96 0 0 1 .47 12.7 24.68 24.68 0 0 1 5.47-6.83Zm-7.23 5.17-1.62-1.54a26.18 26.18 0 0 1 2.08 3.2c-.18-.55-.34-1.1-.46-1.66Zm-1.5 1.83.08.23a21.3 21.3 0 0 1 .68.22 16 16 0 0 1-.77-.45Zm-2.7 4.06-4.17-4.36a9.98 9.98 0 0 0 7.8 2.12c-1.35.5-2.59 1.25-3.63 2.24Z" fill="url(#a)"/>
<defs>
<linearGradient id="c" x1="16.04" x2="39.26" y1="28.66" y2="29.2" gradientUnits="userSpaceOnUse">
<stop stop-color="rgb(115, 157, 50)" offset="0"/>
<stop stop-color="rgb(198, 204, 113)" offset=".57"/>
<stop stop-color="rgb(124, 161, 55)" offset="1"/>
</linearGradient>
<linearGradient id="b" x1="22.36" x2="22.36" y1="11.01" y2="32.78" gradientUnits="userSpaceOnUse">
<stop stop-color="rgb(185, 197, 103)" offset="0"/>
<stop stop-color="rgb(159, 183, 106)" offset="1"/>
</linearGradient>
<linearGradient id="a" x1="23.87" x2="35.88" y1="29.06" y2="42.56" gradientUnits="userSpaceOnUse">
<stop stop-color="rgb(92, 144, 68)" offset="0"/>
<stop stop-color="rgb(147, 171, 94)" offset="1"/>
</linearGradient>
</defs>
</svg>
