<!-- by Finnhub --><svg width="56" height="56" viewBox="0 0 56 56" xmlns="http://www.w3.org/2000/svg"><path fill="#F0F3FA" d="M0 0h56v56H0z"/><path d="M30.37 24.02c-.17.45-.6.34-.97.46-.16.05-.38.08-.56.22a.17.17 0 0 1-.07.04c-.21.04-.42.27-.6.38a.17.17 0 0 0-.07.06.18.18 0 0 1-.15.1.13.13 0 0 0-.08.03l-.17.16a.1.1 0 0 1-.07.03c-.05 0-.08-.03-.1-.07a2.76 2.76 0 0 1 2.84-1.41Z" fill="#5A9ABB"/><path d="m30.37 24.02.32.06a.05.05 0 0 1 .05.05v.17a.92.92 0 0 0-.44.57l-.02.04-.04.02c-.53.15-1.04-.03-1.6.3a4.1 4.1 0 0 0-.98.74c-.22.23-.4.43-.46.77-.06.27-.14.53-.14.82v3.14c0 .41-.42.5-.7.63a.68.68 0 0 0-.27.27l-.03.01-.03-.02a.08.08 0 0 1-.03-.07v-.48c.1.24.45-.08.53-.17a.1.1 0 0 0 .03-.07v-5.4c0-.53.23-.46.5-.8.08-.1.1-.43.26-.52v-.01a.03.03 0 0 0 0-.02v-.01l-.02-.02a.07.07 0 0 1 .09.02l.01.04v1.44c.01.03.02.04.04.01l.1-.1c.01.04.04.07.09.07a.1.1 0 0 0 .07-.03l.17-.16a.13.13 0 0 1 .08-.03c.06 0 .11-.04.15-.1a.17.17 0 0 1 .06-.06c.2-.11.4-.34.6-.38.03 0 .06-.02.08-.04.18-.14.4-.17.56-.22.38-.12.8 0 .97-.46Z" fill="#00567F"/><path d="M27.04 24c0 .1-.04.4-.13.4l-.03.03-.01.03v.03a.05.05 0 0 1-.03.04c-.2.08-.67.34-.84.16l.01-.63.01-.03.04-.03h.98Z" fill="#5A9ABB"/><path d="M27.04 24h.26l.02.02a.03.03 0 0 1 0 .02v.01c-.1.1-.18.46-.26.56-.27.33-.5.26-.5.79a2862 2862 0 0 1 0 5.44.1.1 0 0 1-.03.03c-.08.09-.43.4-.53.17V24.7c.17.18.64-.08.84-.16l.02-.01v-.06l.02-.03c0-.02.02-.02.03-.02.09-.01.13-.32.13-.4Z" fill="#006E98"/><path d="M30.74 24.3v1.21a.07.07 0 0 1-.03.06.07.07 0 0 1-.06.01c-1.66-.4-3.22.26-3.25 2.16a114.5 114.5 0 0 0 0 3.8.1.1 0 0 1-.1.06h-1.21c.06-.1.14-.21.26-.27.29-.13.71-.22.71-.63v-3.14c0-.29.08-.55.14-.82.07-.34.24-.54.46-.77.32-.33.59-.51.98-.74.56-.33 1.07-.15 1.6-.3a.08.08 0 0 0 .06-.06.92.92 0 0 1 .44-.57Z" fill="#013757"/><path d="M30.74 24.36c.38-.07.24 1.17.22 1.38a.1.1 0 0 1-.04.07c-.21.16-.37.05-.6.02-1.1-.16-2.1.32-2.52 1.38-.12.3-.15.88-.16 1.28v2.73c0 .22-.01.44-.04.66a.13.13 0 0 1-.13.12h-1.04c-.13 0-.2-.06-.3-.14a.06.06 0 0 1-.01-.07c.02-.08 0-.14-.06-.18h1.23a.1.1 0 0 0 .11-.12c-.02-1.23-.02-2.48 0-3.75.03-1.9 1.59-2.57 3.25-2.16a.07.07 0 0 0 .09-.07v-1.15Z" fill="#010101" fill-opacity=".25"/><path d="M14.6 24.47c-.1.08-.2.12-.3.1-.4-.09-.84-.09-1.25-.13a3.67 3.67 0 0 0-1.9.23c-.14.06-.27.1-.38.11a.14.14 0 0 0-.08.04c-.14.13-.97.66-1.06.28a4.48 4.48 0 0 1 4.97-.63ZM9.1 24c.01.07-.01.21-.08.24a.09.09 0 0 0-.05.06c-.02.1-.09.13-.2.12l-.08.03a.79.79 0 0 1-.69.16v-.55l.05-.03c.01-.01.02-.03.04-.03H9.1Z" fill="#5A9ABB"/><path d="M9.1 24h.26c-.1.2-.17.44-.37.57-.15.09-.28.2-.4.32a.11.11 0 0 0-.02.07c-.02 3.22-.03 6.44-.02 9.66 0 .28-.17.44-.44.45h-.04a.05.05 0 0 1-.02-.04L8 34.9V24.6c.26.06.5.01.7-.15a.12.12 0 0 1 .08-.03c.1.01.17-.03.19-.12a.09.09 0 0 1 .05-.06c.07-.03.1-.17.08-.24Z" fill="#006E98"/><path d="M9.36 24h.08l.04.01.01.04v1.12c.18.5.55.1.81-.03.16-.07.3-.15.46-.24.23-.14.49-.17.77-.24.81-.2 1.63-.16 2.45.12l.86.31c.23.09.46.06.43-.23.5.38.88.86 1.11 1.45a.6.6 0 0 0-.13.44c.09.59.09 1.15 0 1.7-.12.64-.23 1.13-.69 1.56a.21.21 0 0 0-.05.08.96.96 0 0 1-.2.27c-.56.57-1.2.95-1.91 1.14-.4.1-.7.3-.93.55v-.46c.24-.05.45-.13.63-.23a.85.85 0 0 1 .41-.13c.04 0 .07 0 .1-.02l.33-.1c.03 0 .06-.02.08-.05.1-.11.29-.18.37-.24a2.93 2.93 0 0 0 1.37-2.75c-.02-.17-.12-.65-.4-.57a.03.03 0 0 1-.03-.02v-.01c-.01-.04-.04-.06-.08-.07a2.69 2.69 0 0 0-.6-1.25v-.02c.16-.52-.75-1.05-1.18-1.18a3.51 3.51 0 0 0-2.24.06 3.07 3.07 0 0 0-2.08 2.82v6.8c0 .32-.17.52-.5.58a.3.3 0 0 0-.09.04l-.44.25a.05.05 0 0 1-.04 0h-.02v-.02L8 35.35v-.45l.05.13c0 .02.01.03.02.03l.04.01c.27-.01.44-.17.44-.45-.01-3.22 0-6.44.02-9.66 0-.03 0-.05.03-.07.11-.13.24-.23.39-.32.2-.13.26-.38.37-.57Z" fill="#00567F"/><path d="M14.6 24.47c.24.1.46.23.67.39.03.3-.2.32-.43.23l-.86-.3a4.27 4.27 0 0 0-2.45-.13c-.28.07-.54.1-.77.24-.15.09-.3.17-.46.24-.26.12-.63.53-.81.03l.14-.07c.09.38.92-.15 1.06-.28a.14.14 0 0 1 .08-.04c.11-.01.24-.05.38-.1.63-.26 1.16-.31 1.9-.24.41.04.85.04 1.24.12.11.03.22 0 .31-.1Z" fill="#006E98"/><path d="M14.64 26.13a2.58 2.58 0 0 0-1.77-.84c-1.69-.11-2.78.56-3.27 2-.07.22-.1.46-.1.74a2050.96 2050.96 0 0 1-.02 7.57.05.05 0 0 1-.03.02l-1.27.02c-.16-.02-.21-.12-.16-.29l.03.13.01.01a.04.04 0 0 0 .04.02h.02l.44-.26a.3.3 0 0 1 .1-.04c.32-.06.49-.26.49-.58v-6.8c0-1.27.88-2.37 2.08-2.82a3.51 3.51 0 0 1 2.24-.06c.43.13 1.34.66 1.17 1.18Z" fill="#013757"/><path d="m14.62 26.1.01.02-.1.06a.06.06 0 0 1-.07-.02c-.26-.29-.75-.42-1.1-.46-.77-.07-1.53-.08-2.18.32a2.48 2.48 0 0 0-1.18 2.1v7.66c0 .05-.33.17-.37.21L9.6 36H8.44a.1.1 0 0 1-.08-.03.25.25 0 0 0-.12-.07.05.05 0 0 1-.03-.02v-.03a.27.27 0 0 0-.03-.2l1.27-.03c.01 0 .03 0 .03-.02a2050.96 2050.96 0 0 0 .01-7.57c0-.28.04-.52.11-.73.5-1.45 1.58-2.12 3.27-2.01.7.04 1.27.3 1.75.81Z" fill="#010101" fill-opacity=".25"/><path d="m16.38 26.3.1.19c.33 1.1.34 2.4-.23 3.42a4.58 4.58 0 0 1-3.59 2.2c-.08.02-.14 0-.19-.06.23-.26.53-.44.93-.55.7-.2 1.35-.57 1.91-1.14.1-.1.17-.2.2-.27a.21.21 0 0 1 .05-.08c.46-.43.57-.92.69-1.56.09-.55.09-1.11 0-1.7a.6.6 0 0 1 .13-.44Z" fill="#013757"/><path d="M16.47 26.49c.04.07.08.1.14.08h.02a.05.05 0 0 1 .03.01v.02l.02.24c0 .01 0 .02.02.03 0 .01 0 .02.02.03l.04.02c.03.02.04.04.05.07a4.4 4.4 0 0 1-.18 3.05c-.04.08-.06.23-.16.33-.23.24-.37.54-.6.76-.16.17-.34.3-.53.43l-.48.32c-.18.11-.37.2-.58.26l-.49.15c-.16.06-.32.16-.54.15a.2.2 0 0 0-.08.02c-.2.07-.36.04-.5-.09a.08.08 0 0 1-.02-.08.27.27 0 0 0 .01-.18 4.58 4.58 0 0 0 3.59-2.2c.57-1.03.56-2.31.22-3.42Z" fill="#010101" fill-opacity=".25"/><path d="M15.25 27.4c.04 0 .07.03.07.07a.03.03 0 0 0 .02.02.03.03 0 0 0 .02 0c.28-.07.38.4.4.58a2.93 2.93 0 0 1-1.37 2.75c-.08.06-.27.13-.37.24a.16.16 0 0 1-.08.05l-.33.1a.38.38 0 0 1-.1.02.85.85 0 0 0-.41.13c-.18.1-.39.18-.62.23v-.11l.56-.19c.19-.06.43-.23.7-.25.11-.01.17-.06.23-.13a.08.08 0 0 1 .07-.03c.2.01.3-.15.4-.23.35-.23.6-.53.73-.9.07-.17.18-.3.21-.47a4.09 4.09 0 0 0 .08-.94.06.06 0 0 0-.03-.02l-.14-.05-.04-.87Z" fill="#006E98"/><path d="m15.3 28.27.13.05c.01 0 .02 0 .03.02l.01.03c0 .31-.02.62-.09.91-.03.16-.14.3-.2.48a1.9 1.9 0 0 1-.74.9c-.1.07-.2.23-.4.22a.08.08 0 0 0-.07.03c-.06.07-.12.12-.22.13-.28.02-.52.19-.71.25l-.56.19v-.5l.02-.04.03-.01a2.95 2.95 0 0 0 2.76-2.66Z" fill="#5A9ABB"/><path d="m39.03 26.41.12.07c.02.01.04.03.05.06a4.94 4.94 0 0 1 .29 1.88l-.03.03a.7.7 0 0 1-.29.12 3322.54 3322.54 0 0 1-6.28.01.08.08 0 0 0-.03.03c-.06.1-.08.2-.07.31v.09a.34.34 0 0 0 0 .17 2.55 2.55 0 0 1-.3-.9.05.05 0 0 1 .04-.04h6.67l.04-.01.01-.04c.02-.6-.05-1.2-.22-1.78Z" fill="#010101" fill-opacity=".25"/><path d="M37 24.32c.08.32-.33.13-.46.12-.65-.08-1.31-.1-1.97-.04-.25.01-.46.1-.68.2-.22.1-.5.11-.73.26a.2.2 0 0 1-.07.03.37.37 0 0 0-.33.25c0 .03-.02.05-.04.06-.22.15-.58.4-.64.7-.01.03-.03.06-.05.07-.2.18-.34.4-.4.65l-.05.07c-.09.11-.15.23-.19.37l-.04.07a.7.7 0 0 0-.17.37.08.08 0 0 1-.05.07l-.05.03a.03.03 0 0 1-.04-.01v-.02l-.03-.06c.24-3.04 3.36-4.11 5.99-3.19Z" fill="#5A9ABB"/><path d="M37 24.32c.27.1.53.25.76.42-.21.3-.72.08-1.11-.04a5.58 5.58 0 0 0-2.7-.04c-.12.1-.3.1-.4.15-.49.22-.95.55-1.26.98-.2.27-.4.5-.51.81-.18.5-.27 1.03-.3 1.59 0 .2-.08.35-.25.45a.06.06 0 0 1-.03.01l-.04-.01a.47.47 0 0 1-.1-.18 4.42 4.42 0 0 1-.05-.95l.02.06v.02a.03.03 0 0 0 .03.01h.02l.05-.03a.09.09 0 0 0 .05-.07.7.7 0 0 1 .17-.37.19.19 0 0 0 .04-.07c.04-.14.1-.26.2-.37a.23.23 0 0 0 .03-.07c.07-.25.21-.47.41-.65a.13.13 0 0 0 .05-.07c.06-.3.42-.55.64-.7a.12.12 0 0 0 .04-.06.37.37 0 0 1 .33-.25.2.2 0 0 0 .07-.03c.23-.15.51-.17.73-.26.22-.1.43-.19.68-.2.66-.05 1.32-.04 1.97.04.13 0 .54.2.46-.12Z" fill="#006E98"/><path d="M37.76 24.74c.36.24.65.55.88.91-.17.44 0 1.12.07 1.59.04.26-.06.4-.3.42-1.8.18-3.68.08-5.5.09-.24 0-.4.02-.5.05-.65.27-.29 1.67.43 1.51l.33.38-.3.14a.2.2 0 0 0-.11.15.19.19 0 0 0 .07.17l.41.34c.13.09.28.13.42.21.83.45 1.9.4 2.75.17a3.1 3.1 0 0 0 1.61-1.05.18.18 0 0 1 .08-.06c.24-.08.43-.22.58-.42a.1.1 0 0 0 .02-.07v-.04h.3a.05.05 0 0 1 .05.04v.01a.2.2 0 0 1-.03.1H39a.48.48 0 0 1-.15.11c-.28.13-.53.3-.73.51l-.45.44a4.63 4.63 0 0 1-3.43.7 4.86 4.86 0 0 1-1.84-.68c-.2-.14-.37-.2-.54-.17a3.45 3.45 0 0 1-.8-1.83c.02.07.05.13.1.18l.04.01h.03c.17-.11.25-.26.26-.46.02-.56.11-1.09.29-1.59.11-.31.3-.54.5-.81.32-.43.78-.76 1.28-.98.1-.04.27-.06.4-.15a5.58 5.58 0 0 1 2.7.04c.38.12.89.34 1.1.04Zm-5.23 2.37.07.07c-.04.1-.04.2 0 .28.02.03.04.04.07.05.14.05.25.1.4.1h4.27c.24 0 .65-.06.74-.32.1-.3-.06-.53-.4-.5l-.32-.63c.1-.67-.66-1.21-1.25-1.34a5 5 0 0 0-1.67-.06c-.2.02-.38.11-.59.17-.18.05-.32.1-.43.17-.52.34-1.14.88-1.25 1.52-.04.28.08.45.36.49Z" fill="#00567F"/><path d="M37.36 26.16h-.01c-.82-1.18-2.71-1.28-3.84-.52-.5.34-.83.83-.98 1.47-.28-.04-.4-.2-.36-.5.1-.63.72-1.18 1.25-1.51.1-.07.25-.12.43-.17.2-.06.39-.15.6-.17a5 5 0 0 1 1.66.06c.59.13 1.35.67 1.25 1.34Z" fill="#013757"/><path d="M37.35 26.16c-.05-.06-.1-.07-.16-.06a.07.07 0 0 1-.07-.01c-.9-.85-2.48-.67-3.4-.06-.28.17-.44.44-.63.7-.08.1-.1.25-.25.34a.04.04 0 0 0-.01.03.04.04 0 0 0 .01.03c.03.03.07.04.13.04h-.37l-.07-.06c.15-.64.48-1.13.98-1.47 1.13-.76 3.02-.66 3.84.52Z" fill="#010101" fill-opacity=".25"/><path d="M38.64 25.65c.16.24.29.5.39.76a5.63 5.63 0 0 1 .2 1.82h-.02l-6.68.01a.05.05 0 0 0-.03.02.04.04 0 0 0-.01.03c.04.32.14.62.3.9l.05.12c-.72.16-1.08-1.24-.43-1.5.1-.05.26-.06.5-.06 1.82 0 3.7.1 5.5-.09.24-.02.34-.16.3-.42-.07-.47-.24-1.15-.07-1.59Z" fill="#013757"/><path d="M37.68 26.8c.34-.04.5.18.4.49-.09.26-.5.32-.74.32h-4.27c-.15 0-.26-.05-.4-.1a.1.1 0 0 1-.06-.05.34.34 0 0 1-.01-.28h.26l.03.19.02.03h.04c.06 0 .11.01.16.05l.08.02c1.44 0 2.88 0 4.33-.02.33 0 .6-.44.21-.5l-.05-.16Z" fill="#006E98"/><path d="m38.61 29.23-.04.07a.08.08 0 0 1-.06.05.32.32 0 0 0-.17.1.1.1 0 0 1-.07.03c-.1 0-.18.04-.26.11a.12.12 0 0 1-.07.03c-.11.01-.41.32-.5.4-.75.78-1.87.97-2.91.7-.16-.04-.2-.1-.32-.21a.14.14 0 0 0-.07-.04c-.1-.02-.12-.07-.02-.17 1.27.41 2.77.17 3.44-1.04l.03-.03h1.02Z" fill="#5A9ABB"/><path d="M38.61 29.23h.09v.04a.1.1 0 0 1-.02.07c-.15.2-.34.34-.58.42a.18.18 0 0 0-.08.06 3.1 3.1 0 0 1-1.61 1.05c-.85.23-1.92.28-2.75-.17-.14-.08-.3-.12-.42-.21a8.68 8.68 0 0 1-.47-.42.19.19 0 0 1 .03-.18.2.2 0 0 1 .07-.06l.3-.14c.28.26.6.47.95.61-.1.1-.09.15.02.17.03 0 .05.02.07.04.11.1.17.17.32.2 1.04.28 2.16.1 2.92-.68.08-.09.38-.4.49-.4l.07-.04a.42.42 0 0 1 .26-.11.1.1 0 0 0 .07-.04c.05-.05.1-.08.17-.1a.08.08 0 0 0 .06-.04l.04-.07Z" fill="#006E98"/><path d="M39 29.38a3.84 3.84 0 0 1-2.88 2.17 4.82 4.82 0 0 1-3.9-.88l-.36-.38c.17-.03.35.03.54.16.49.36 1.21.56 1.83.68a4.63 4.63 0 0 0 3.44-.7c.05-.03.2-.18.45-.43.2-.2.45-.38.73-.5.06-.03.1-.07.15-.12Z" fill="#013757"/><path d="M39 29.38h.02v.03l.02.03.03.02c.24 0 .25.2.16.37-.32.6-.77 1.1-1.34 1.49-.14.09-.3.13-.43.2-.44.27-1.05.43-1.59.44-.15 0-.3.05-.46.04a17.3 17.3 0 0 0-.72-.04c-.18-.01-.34-.1-.53-.1h-.08c-.2-.1-.4-.17-.6-.22-.35-.1-.6-.29-.9-.47a1.62 1.62 0 0 1-.35-.3c-.04-.05-.03-.06.02-.06h.03c.03 0 .04 0 .01-.02a.16.16 0 0 1-.06-.12 4.82 4.82 0 0 0 3.89.88c1.32-.25 2.32-.99 2.88-2.17Z" fill="#010101" fill-opacity=".25"/><path d="M18.09 24c0 .07-.02.12-.08.14a.06.06 0 0 0-.03.02v.07a.06.06 0 0 1-.02.05.06.06 0 0 1-.04.02.54.54 0 0 0-.4.16.14.14 0 0 1-.07.04l-.45.07.02-.52.01-.04h.04l1.02-.01Z" fill="#5A9ABB"/><path d="M18.09 24h.18l.02.03v.05a2.86 2.86 0 0 1-.72.7v4.1c0 .35-.1.72-.5.79-.03-.22-.07-.43-.07-.65v-4.45l.45-.07c.03 0 .06-.02.08-.04.1-.1.23-.16.39-.16a.06.06 0 0 0 .04-.02.06.06 0 0 0 .01-.05v-.03l.01-.04.03-.02c.06-.02.09-.07.08-.14Z" fill="#006E98"/><path d="m18.27 24 .14.01.04.01.01.04.01.16-.02.24-.01.04-.03.03c-.17.11-.25.23-.25.36v3.57c0 .33.12.58.36.77.05.17.12.32.22.46l.37.4c-.45.34.51.73.73.76.61.09 1.17.08 1.66-.02.62-.12 1-.47 1.52-.8.1-.07.43-.19.52-.36.16-.32.23-.75.23-1.15v-3.7c0-.04.01-.07.03-.09a.9.9 0 0 1 .24-.19c.24-.13.41-.3.53-.54l.12.01.03.01.01.04.01.18c-.03.09-.09.15-.18.18a.13.13 0 0 0-.07.05.72.72 0 0 0-.12.42c-.02 1.84-.01 3.67.02 5.5 0 .13-.03.26-.1.39a.12.12 0 0 1-.07.05c-.28.08-.53.2-.76.33-.03.02-.08.02-.17.02l-.02-.33v-.52h-.07l-.02.03a.3.3 0 0 1-.16.17c-.4-.01-.6.34-.96.45-.35.1-.69.23-1.04.28-.75.11-1.5.08-2.26-.1-.14-.03-.35-.12-.55-.14l-.09.01c-.07.03-.15.02-.24-.02l-.1-.1a2.2 2.2 0 0 1-.71-1.24c.4-.07.5-.44.5-.79a9155.99 9155.99 0 0 0 0-4.1 2.86 2.86 0 0 0 .72-.72v-.03l-.02-.03Z" fill="#00567F"/><path d="M24.34 24c-.09.36-.68.57-1.07.52l.02-.47c0-.02 0-.03.02-.04h.03l1-.01Z" fill="#5A9ABB"/><path d="M24.34 24h.23a1.2 1.2 0 0 1-.53.54.9.9 0 0 0-.24.2.12.12 0 0 0-.03.07v3.71c0 .4-.07.83-.23 1.15-.09.17-.41.3-.52.36-.53.33-.9.68-1.52.8-.5.1-1.05.1-1.66.02-.22-.03-1.18-.42-.73-.76l.34.17c-.06.04-.08.07-.04.1.53.59 1.28.44 2 .4.03 0 .05 0 .08-.02.18-.1.4-.13.56-.22.27-.15.5-.29.77-.5.11-.1.23-.18.36-.26a.13.13 0 0 0 .05-.07.3.3 0 0 1 .1-.15l.03-.03v-.05c-.01-.07 0-.13.06-.18a.08.08 0 0 0 .03-.06v-.53a.1.1 0 0 0-.03-.08.4.4 0 0 0-.15-.08v-4c.4.04.98-.17 1.07-.53Z" fill="#006E98"/><path d="M18.47 24.22v4.69c0 .1.03.21.05.32a.91.91 0 0 1-.36-.77v-3.57c0-.13.08-.25.25-.36l.03-.03.01-.04.02-.24ZM24.74 24.24l.01.17v7.04c0 .04-.02.08-.05.1a.16.16 0 0 1-.1.05h-1.22l-.06-.03a.07.07 0 0 1-.03-.03v-.36c.09 0 .14 0 .17-.02.23-.14.48-.25.76-.33.02 0 .05-.03.06-.05.08-.13.11-.26.1-.39-.02-1.83-.03-3.66-.01-5.5 0-.16.04-.3.12-.42a.13.13 0 0 1 .07-.05c.1-.03.15-.1.18-.18Z" fill="#013757"/><path d="M18.74 29.7a1.3 1.3 0 0 1-.22-.47c-.02-.1-.05-.21-.05-.32v-4.5c.1-.15.18-.15.27 0 .02.03.03.06.03.1v4.84c0 .03 0 .06.02.08.03.03.04.06.03.1l-.01.03-.03.02c-.04.02-.05.05-.04.11ZM23.38 31.4h1.21c.05 0 .08-.02.11-.04a.14.14 0 0 0 .05-.1V24.4l.07-.04a.05.05 0 0 1 .05 0h.02c.07.12.1.24.1.37l.01 5.98c0 .29-.05.83-.06 1.13 0 .04-.02.08-.05.1a.16.16 0 0 1-.1.05h-1.12a.16.16 0 0 1-.08-.03c-.09-.04-.15-.35-.19-.44-.02-.03 0-.05.03-.04l.05-.01c.03-.02.02-.04 0-.05l-.1-.03Z" fill="#010101" fill-opacity=".25"/><path d="M23.27 28.53c.06.02.1.04.15.08a.1.1 0 0 1 .03.08v.56l-.03.03c-.05.05-.07.1-.06.18a.08.08 0 0 1-.03.08.3.3 0 0 0-.1.15c0 .03-.03.05-.05.07-.13.08-.25.17-.36.26-.27.21-.5.35-.77.5-.17.09-.38.12-.56.22a.18.18 0 0 1-.08.03c-.72.03-1.47.18-2-.4-.04-.04-.02-.07.04-.1 1.56.47 3.52.1 3.82-1.74Z" fill="#5A9ABB"/><path d="m23.27 30.85-.02-.01h-.02a.02.02 0 0 0-.01.01c-.12.32-.37.4-.62.59-.17.12-.32.21-.46.26-.86.31-1.72.38-2.58.2a1.94 1.94 0 0 0-.52-.05.09.09 0 0 1-.04-.02.14.14 0 0 0-.13-.06.2.2 0 0 1-.09-.01l-.37-.15a.04.04 0 0 1-.03-.04l-.01-.02a2.73 2.73 0 0 1-.65-.52l.01-.03a.2.2 0 0 0 .04-.08l.11.09c1.4.96 4.05.9 5.14-.48a.3.3 0 0 0 .16-.17l.01-.03H23.26v.52Z" fill="#010101" fill-opacity=".25"/><path d="M23.02 30.53c-1.09 1.38-3.75 1.44-5.14.48.09.04.17.05.24.02a.18.18 0 0 1 .09-.01c.2.02.4.11.55.14.75.18 1.5.21 2.26.1.35-.05.7-.18 1.04-.28.36-.11.56-.46.96-.45Z" fill="#013757"/><path opacity=".7" fill="#A1A1A5" d="M11 34h26v3H11z"/><path d="M42.48 24.88c-1.53-.8-3.62-.1-4.48.34 1.29-.99 4.39-2.63 6.46-1.33 1.59.75 1.7 2.89 1.55 3.86.53-1.65 1.2-4.74-1.36-6.5-2.06-1.4-5.3-.5-6.65.13A11.2 11.2 0 0 1 44.46 19c5.47 0 5.74 5.88 2.19 10.77-2.84 3.9-6.6 5.12-8.13 5.23 5.1-2.14 5.74-6.16 5.74-6.71 0-.56.14-2.43-1.78-3.41Z" fill="url(#a1kj50c32)"/><path d="M38.87 21.04c1.03-.5 2.68-1.05 4.61-1.05 1.6 0 2.57.41 3.25.7.67.28 1.06.44 1.5-.01-.72-1.04-1.96-1.68-3.77-1.68A11.2 11.2 0 0 0 38 21.38c.24-.11.54-.23.87-.34Z" fill="url(#b1kj50c32)"/><path d="M44.97 24.22c0 .06.02.13.04.2.23.76-.09 2.46-.24 2.29a.94.94 0 0 1-.1-.25c-.17-.54-.57-1.8-2.2-2.15-1.28-.29-2.95.17-4.02.59 1.46-.97 4.15-2.18 6.01-1.01.2.1.36.2.51.33Z" fill="url(#c1kj50c32)"/><path d="M38 25.22c.86-.44 2.95-1.13 4.48-.34 1.75.9 1.79 2.53 1.78 3.23.82-.07.71-.78.52-1.2-.01-.66-.46-2.1-2.17-2.58-1.48-.4-3.33.22-4.4.73l-.21.16Zm6.65-3.97c.73.5 1.2 1.12 1.49 1.78.2-.02.27-.09.29-.14.04-.12-.24-2.44-2.55-2.85-1.4-.26-3.41.36-4.83.94 1.6-.5 3.96-.84 5.6.27Z" fill="url(#d1kj50c32)"/><path d="M48 20.38c1.75 2.03 1.14 5.95-1.35 9.39a13.23 13.23 0 0 1-6.55 4.9 21.8 21.8 0 0 0 5.3-4.83c2.66-3.44 2.9-5.97 2.58-7.8-.1-.6-.09-1.19.02-1.66Z" fill="url(#e1kj50c32)"/><defs><linearGradient id="a1kj50c32" x1="43.5" y1="19" x2="43.5" y2="35" gradientUnits="userSpaceOnUse"><stop offset=".36" stop-color="#D4D2D2"/><stop offset=".74" stop-color="#F4F4F4"/></linearGradient><linearGradient id="b1kj50c32" x1="39.99" y1="20.47" x2="45.86" y2="22.51" gradientUnits="userSpaceOnUse"><stop stop-color="#F6F6F6"/><stop offset="1" stop-color="#F6F6F6" stop-opacity="0"/></linearGradient><linearGradient id="c1kj50c32" x1="38.84" y1="23.3" x2="44.3" y2="27.97" gradientUnits="userSpaceOnUse"><stop stop-color="#F7F7F7"/><stop offset="1" stop-color="#F7F7F7" stop-opacity="0"/></linearGradient><linearGradient id="d1kj50c32" x1="40.15" y1="24.25" x2="45.5" y2="25.98" gradientUnits="userSpaceOnUse"><stop stop-color="#828283"/><stop offset="1" stop-color="#828283" stop-opacity="0"/></linearGradient><linearGradient id="e1kj50c32" x1="43.74" y1="32.52" x2="46.76" y2="17.65" gradientUnits="userSpaceOnUse"><stop stop-color="#8C8C8D"/><stop offset="1" stop-color="#8C8C8D" stop-opacity="0"/></linearGradient></defs></svg>