<?xml version="1.0" encoding="UTF-8"?>
<!-- generated by Finnhub -->
<svg viewBox="0 0 55.5 55.5" xmlns="http://www.w3.org/2000/svg">
<path d="M 0,0 H 55.5 V 55.5 H 0 Z" fill="rgb(239, 242, 248)"/>
<path d="M 21.939999999999998,32.385 A 4.5,4.5 0 0,0 25,34 V 40 C 20.68,40 17.93,37.7 16.39,35.46 L 21.95,32.4 Z" fill="rgb(180, 202, 222)"/>
<path d="M 25.56,14.985 H 26 V 23 H 25.57 V 15 Z M 21,23 H 20 V 24.25 H 21 V 23 Z M 12,28.6 C 12,30.31 13.16,31.41 14.81,31.41 C 16.35,31.41 17.75,30.41 17.75,28.61 C 17.75,26.94 16.41,26 14.81,26 C 13.11,26 12,26.9 12,28.6 Z M 12,26.25 C 12.63,25.39 13.85,25 15.03,25 C 17.06,25 18.85,26.5 18.79,28.6 C 18.79,30.76 17.15,32.37 14.82,32.37 C 13.75,32.37 12.51,31.97 12,31.27 V 35 H 11 V 25 H 12 V 26.25 Z M 20,25 H 21 V 32 H 20 V 25 Z M 28.75,28 C 28.45,26.58 26.97,26 25.79,26 S 23.3,26.7 23.01,28 H 28.75 Z M 23.01,28.8 C 23.14,30.34 24.48,31 26.09,31 C 27.31,31 28.41,30.61 29.02,29.54 L 29.82,30.02 L 29.77,30.09 C 29.55,30.37 29.14,30.9 28.48,31.33 C 28.1,31.58 27.24,32 26.01,32 C 25.58,32 24.54,31.96 23.57,31.31 A 3.47,3.47 0 0,1 22,28.39 C 22,27.49 22.36,26.55 23.06,25.94 A 4.13,4.13 0 0,1 25.79,25 C 26.28,25 27.72,25.07 28.79,26.16 C 28.95,26.32 29.27,26.66 29.5,27.19 C 29.67,27.55 29.76,28.05 29.82,28.79 H 23.01 Z M 35,26.06 A 2.75,2.75 0 0,0 34.36,25.99 C 32.98,25.99 32,26.76 32,28.17 V 32 H 31 V 25 H 32 V 26.07 C 32.47,25.3 33.76,24.93 35,25.01 V 26.07 Z M 36,25 H 37 V 32 H 36 V 25 Z M 37,23 H 36 V 24.25 H 37 V 23 Z M 41.88,32 C 43.15,32 43.93,31.7 44.4,31.39 C 45.14,30.89 45.26,30.23 45.3,29.83 C 45.3,28.9 44.64,28.45 44.38,28.33 C 43.85,28.03 43.08,28 41.95,27.96 C 41.68,27.96 41.38,27.94 41.06,27.92 H 40.97 C 40.27,27.9 39.4,27.88 39.3,26.99 C 39.3,26 40.81,26 41.6,26 C 42.54,26 43.56,26.16 44.23,26.89 L 45.13,26.57 C 44.99,26.23 44.83,26 44.54,25.77 C 44.32,25.57 44.11,25.47 43.84,25.37 A 6.26,6.26 0 0,0 41.6,25 C 40.45,25 39.73,25.19 39.28,25.42 C 38.4,25.91 38.3,26.72 38.3,27.08 C 38.3,28.08 39.02,28.52 39.31,28.62 C 39.81,28.81 40.51,28.85 41.49,28.92 C 41.82,28.93 42.19,28.96 42.59,28.99 L 42.81,29 C 43.44,29.03 44.31,29.07 44.31,29.85 C 44.3,31 42.75,31 41.92,31 H 41.88 C 40.81,31 39.58,30.83 38.99,29.97 L 38,30.2 L 38.04,30.3 L 38.1,30.47 C 38.14,30.58 38.22,30.69 38.3,30.79 L 38.33,30.83 C 38.89,31.55 39.98,32 41.88,32 Z M 10,28.56 H 4 V 29 H 10 V 28.56 Z M 46,28.56 H 52 V 29 H 46 V 28.56 Z M 26,34 H 25.57 V 42 H 26 V 34 Z"/>
<path d="M 29.549999999999997,24.515 A 4.54,4.54 0 0,0 26.5,23.02 V 17.02 A 9.5,9.5 0 0,1 34.68,21.56 L 29.56,24.53 Z" fill="rgb(206, 28, 32)"/>
</svg>
