<?xml version="1.0" encoding="UTF-8"?>
<!-- generated by Finnhub -->
<svg viewBox="0 0 55.5 55.5" xmlns="http://www.w3.org/2000/svg">
<path d="M 0,0 H 55.5 V 55.5 H 0 Z" fill="rgb(239, 242, 248)"/>
<path d="M 3.99,22.985 H 13 V 26.8 C 13,25.5 11.78,25.06 11.17,25 H 7 V 31 H 4 V 23 Z M 13,26.8 V 31 H 9 V 28.5 H 10.34 C 10.55,28.5 13,28.4 13,26.8 Z M 9,28 V 25.5 H 10.45 C 10.63,25.65 11,26.13 11,26.8 C 11,27.64 10.44,28 10.1,28 H 9 Z M 15.5,31 H 14 V 26 H 17.22 C 17.92,26.03 19.33,26.34 19.33,27.3 C 19.33,28.02 18.37,28.5 17.89,28.64 L 20,31 H 18.64 L 16.36,28.55 V 28.44 C 16.81,28.44 17.7,28.19 17.7,27.29 C 17.7,26.16 15.98,26.39 15.5,26.54 V 31 Z M 21,26 H 25.52 V 26.5 H 22.5 V 28 H 25 V 28.5 H 22.5 V 30.5 H 25.52 V 31 H 21 V 26 Z M 52,26 H 47.5 V 31 H 52 V 30.5 H 49 V 28.5 H 51.47 V 28 H 49 V 26.5 H 52 V 26 Z M 26.2,30.74 V 30.15 C 26.5,30.29 27.78,30.5 28.28,30.5 C 28.77,30.5 29.61,30.36 29.61,29.87 C 29.61,29.47 29.09,29.17 28.83,29.07 C 27.99,28.8 26.33,28.07 26.33,27.28 C 26.33,26.31 27.66,26 28.73,26 C 29.58,26 30.28,26.14 30.53,26.21 V 26.8 C 29.88,26.6 29.3,26.5 28.83,26.5 C 28,26.5 27.5,26.79 27.5,27.11 C 27.5,27.62 28.67,28.16 29.75,28.56 C 30.61,28.89 30.84,29.44 30.85,29.67 C 30.85,30.75 29.62,31 28.38,31 C 27.38,31 26.51,30.83 26.2,30.74 Z M 31.47,26.5 L 31.53,26.03 H 37 V 26.5 H 35 V 31 H 33.66 V 26.5 H 31.47 Z M 38,26 H 39.5 V 31 H 38 V 26 Z M 46.48,27.47 L 47,27.14 A 3.91,3.91 0 0,0 44.26,26 C 42.54,26 40.5,26.72 40.5,28.7 C 40.5,30.69 43.26,31 44.35,31 C 45.22,31 46.48,30.67 47,30.5 V 28.5 H 44.5 V 29 H 45.5 V 30.44 C 45.33,30.5 44.92,30.5 44.2,30.5 C 43.3,30.5 42,29.9 42,28.54 C 42,27.19 43.2,26.5 44.4,26.5 C 45.38,26.5 46.2,27.14 46.48,27.47 Z" fill="rgb(17, 59, 98)"/>
</svg>
