<?xml version="1.0" encoding="UTF-8"?>
<!-- generated by Finnhub -->
<svg viewBox="0 0 55.5 55.5" xmlns="http://www.w3.org/2000/svg">
<path d="M0 0h55.5v55.5H0z" fill="rgb(239, 242, 248)"/>
<path d="M14 14.76c0-.97.79-1.76 1.76-1.76h24.48c.97 0 1.76.79 1.76 1.76v24.48c0 .97-.79 1.76-1.76 1.76H15.76c-.97 0-1.76-.79-1.76-1.76V14.76Z" fill="rgb(57, 203, 145)"/>
<path d="M21 21.32c0-.73.6-1.32 1.32-1.32h18.36c.73 0 1.32.6 1.32 1.32v18.36c0 .73-.6 1.32-1.32 1.32H21V21.32Z" fill="rgb(32, 174, 118)"/>
<path d="M28 27.88c0-.49.4-.88.88-.88h12.24c.49 0 .88.4.88.88v12.24c0 .49-.4.88-.88.88H28V27.88Z" fill="rgb(2, 134, 85)"/>
<path d="M35 34.44c0-.24.2-.44.44-.44h6.12c.24 0 .44.2.44.44v6.12c0 .24-.2.44-.44.44h-6.12a.44.44 0 0 1-.44-.44v-6.12Z" fill="rgb(20, 106, 68)"/>
<path d="M21 41h7v5.56c0 .24-.2.44-.44.44h-6.12a.44.44 0 0 1-.44-.44V41Z" fill="rgb(32, 174, 118)"/>
</svg>
