<!-- by Finnhub --><svg width="56" height="56" viewBox="0 0 56 56" xmlns="http://www.w3.org/2000/svg"><path fill="#F0F3FA" d="M0 0h56v56H0z"/><path d="M27.6 11.56a28.1 28.1 0 0 0-2.64 6.8 23.99 23.99 0 0 0-.7 6.76c.02 2.67.07 3.17.58 5.77.3 1.56.6 3.36.66 3.99l.11 1.14h-1.45v-.67c0-2.73-1.63-8.4-3.03-10.6a7.29 7.29 0 0 0-3.09-2.5c-1.82-.72-4.74-.39-6.09.7-.62.5-.94 2.15-.95 4.85 0 1.87.21 3.85.45 4.09.04.04.2-.04.36-.18.15-.14.7-.45 1.22-.7.84-.39 1.13-.44 2.52-.44 1.8 0 2.38.16 3.68 1.03a6.43 6.43 0 0 1 .57 10.26c-.41.35-.71.67-.68.7.43.4 4.03 1.9 4.23 1.77a26 26 0 0 0 .75-3.85c.07-.5.1-.52.74-.47.65.04.66.05.61.6-.07.7-.6 3.47-.73 3.8-.15.37.29.47 2.6.57 1.7.08 3.66-.09 3.9-.33.04-.03-.08-.8-.25-1.7-.17-.9-.36-1.93-.4-2.3l-.1-.68H31.7c.07 0 .21.58.32 1.3.3 1.89.52 2.96.66 3.04.22.14 2.7-.86 3.75-1.5l.54-.34-.65-.5a7.2 7.2 0 0 1-2.04-2.9 7.36 7.36 0 0 1-.06-4.09 6.48 6.48 0 0 1 9.52-3.53c.45.28.84.47.88.44.18-.19.39-2.36.39-4.11 0-1.77-.22-3.57-.55-4.42-.14-.36-1.71-1.16-2.75-1.4a6.68 6.68 0 0 0-6.8 2.75c-1.13 1.69-2.52 6-2.92 9.15a61.46 61.46 0 0 0-.24 2.01c0 .09-.3.15-.65.15h-.65l.1-1.38c.07-.76.33-2.36.58-3.56a28.61 28.61 0 0 0-.66-14.71 29.54 29.54 0 0 0-2.24-5.16c-.23-.32-.24-.31-.63.35Zm-3.52-.27c-2.74.6-4.89 1.71-7.17 3.7-.95.83-2.7 2.79-2.7 3.03 0 .06.27.16.6.22.99.18 3.1 1.3 4.35 2.3 1.25 1 2.05 1.89 3 3.31l.58.87v-.97c0-3.71.97-8.25 2.43-11.3l.67-1.4-.4.02c-.23 0-.84.1-1.36.22Zm6.1-.12.5.96c1.07 2.04 2 5.36 2.3 8.17.25 2.38.33 3.26.33 3.85 0 .53.02.52.73-.55a13.54 13.54 0 0 1 7.54-5.5c.26-.08.21-.19-.35-.87-2.78-3.32-6.08-5.36-9.72-6.01-1.1-.2-1.4-.21-1.32-.05Zm-14.63 22.3a4.12 4.12 0 0 0-2.54 1.8c-.22.43-.2.5.35 1.4 1.31 2.17 3.54 4.57 4.23 4.56.43 0 .88-.26 1.56-.88a4.1 4.1 0 0 0 .37-5.5 4.43 4.43 0 0 0-3.97-1.37Zm23.21 0a4.12 4.12 0 0 0-3 2.77 3.33 3.33 0 0 0-.07 2.2c.34 1.32 1.82 2.8 2.8 2.8.62 0 3.63-3.45 4.5-5.16.25-.47.24-.51-.1-.98-.95-1.29-2.72-1.99-4.13-1.62Z" fill="url(#atspr2zyd)"/><path d="M27.6 11.56a28.1 28.1 0 0 0-2.64 6.8 23.99 23.99 0 0 0-.7 6.76c.02 2.67.07 3.17.58 5.77.3 1.56.6 3.36.66 3.99l.11 1.14h-1.45v-.67c0-2.73-1.63-8.4-3.03-10.6a7.29 7.29 0 0 0-3.09-2.5c-1.82-.72-4.74-.39-6.09.7-.62.5-.94 2.15-.95 4.85 0 1.87.21 3.85.45 4.09.04.04.2-.04.36-.18.15-.14.7-.45 1.22-.7.84-.39 1.13-.44 2.52-.44 1.8 0 2.38.16 3.68 1.03a6.43 6.43 0 0 1 .57 10.26c-.41.35-.71.67-.68.7.43.4 4.03 1.9 4.23 1.77a26 26 0 0 0 .75-3.85c.07-.5.1-.52.74-.47.65.04.66.05.61.6-.07.7-.6 3.47-.73 3.8-.15.37.29.47 2.6.57 1.7.08 3.66-.09 3.9-.33.04-.03-.08-.8-.25-1.7-.17-.9-.36-1.93-.4-2.3l-.1-.68H31.7c.07 0 .21.58.32 1.3.3 1.89.52 2.96.66 3.04.22.14 2.7-.86 3.75-1.5l.54-.34-.65-.5a7.2 7.2 0 0 1-2.04-2.9 7.36 7.36 0 0 1-.06-4.09 6.48 6.48 0 0 1 9.52-3.53c.45.28.84.47.88.44.18-.19.39-2.36.39-4.11 0-1.77-.22-3.57-.55-4.42-.14-.36-1.71-1.16-2.75-1.4a6.68 6.68 0 0 0-6.8 2.75c-1.13 1.69-2.52 6-2.92 9.15a61.46 61.46 0 0 0-.24 2.01c0 .09-.3.15-.65.15h-.65l.1-1.38c.07-.76.33-2.36.58-3.56a28.61 28.61 0 0 0-.66-14.71 29.54 29.54 0 0 0-2.24-5.16c-.23-.32-.24-.31-.63.35Z" fill="#1B2852"/><defs><linearGradient id="atspr2zyd" x1="28" y1="11" x2="28" y2="45" gradientUnits="userSpaceOnUse"><stop stop-color="#C09232"/><stop offset=".79" stop-color="#A16133"/></linearGradient></defs></svg>