<?xml version="1.0" encoding="UTF-8"?>
<!-- generated by Finnhub -->
<svg viewBox="0 0 55.5 55.5" xmlns="http://www.w3.org/2000/svg">
<path d="M 0,0 H 55.5 V 55.5 H 0 Z" fill="rgb(239, 242, 248)"/>
<path d="M 43.940000000000005,21.205 A 3.69,3.69 0 0,0 45,18.63 C 45,16.63 43.43,15 41.5,15 C 40.35,15 39.33,15.57 38.7,16.46 C 34.58,15.21 29.6,17 27.03,18.47 C 31.2,16.87 35.44,17.59 38.07,19.35 A 3.59,3.59 0 0,0 40.52,22.11 C 44.92,30.41 32.87,39.41 26,43 H 28.05 C 42.69,36.88 47.33,28.15 43.95,21.22 Z" fill="rgb(157, 30, 72)"/>
<path d="M 30.47,25.985 H 31.42 L 33,29.76 L 34.58,26 H 35.52 L 33.38,31 H 32.62 L 30.48,26 Z M 30,26 H 31 V 31 H 30 V 26 Z M 35,26 H 36 V 31 H 35 V 26 Z M 26.58,31 H 25.44 V 30.26 H 26.58 C 27.54,30.26 27.98,29.51 27.98,28.63 V 28.37 C 27.98,27.49 27.55,26.75 26.6,26.75 H 25.42 V 26 H 26.6 C 27.98,26 29,27 29,28.38 V 28.63 C 29,30.03 27.96,31 26.58,31 Z M 26,26 V 31 H 25 V 26 H 26 Z M 22.09,29.5 L 23.97,31.47 L 23.25,32 L 21.39,30.03 L 22.09,29.5 Z M 24,28.5 C 24,29.95 22.94,31 21.5,31 A 2.42,2.42 0 0,1 19,28.5 C 19,27.05 20.06,26 21.5,26 S 24,27.05 24,28.5 Z M 23,28.5 C 23,27.63 22.46,26.77 21.5,26.77 C 20.53,26.77 20,27.64 20,28.5 C 20,29.37 20.53,30.23 21.5,30.23 S 23,29.36 23,28.5 Z" fill="rgb(242, 4, 7)"/>
<path d="M 16.959999999999997,18.535 A 3.06,3.06 0 0,0 14,15 C 12.34,15 11,16.4 11,18.11 A 3.06,3.06 0 0,0 14.07,21.22 C 10.55,26.91 14.55,37.54 22,43 C 18.33,37.81 12.86,27.07 17.5,22.26 C 20.5,19.15 27.33,21.22 29,23.3 C 26.97,20.54 21.88,16.02 16.97,18.55 Z" fill="rgb(115, 135, 199)"/>
</svg>
