<!-- by Finnhub --><svg width="56" height="56" viewBox="0 0 56 56" xmlns="http://www.w3.org/2000/svg"><path fill="#F0F3FA" d="M0 0h56v56H0z"/><path fill-rule="evenodd" d="m27 44-1.13-.15A15.88 15.88 0 0 1 12 28.06C12 19.2 19.16 12 28 12s16 7.13 16 16c0 3.24-.95 6.32-2.6 8.84l2.6 2.67-4.09 4.15-2.55-2.56a15.57 15.57 0 0 1-7.23 2.75L29 44v-5.14l.84-.14c1.4-.23 2.68-.6 3.84-1.31l-2.67-2.69 4.17-4.13 2.5 2.51c.78-1.5 1.32-3.22 1.32-5.04C39 22.01 34.01 17 28 17s-11 5.01-11 11.06c0 5.44 4 9.8 9.16 10.66l.84.14V44Zm11.42-10.16A12.01 12.01 0 0 0 40 28.06C40 21.46 34.57 16 28 16s-12 5.47-12 12.06c0 5.93 4.36 10.7 10 11.65v3.15a14.87 14.87 0 0 1-13-14.8C13 19.74 19.72 13 28 13c8.28 0 15 6.68 15 15 0 3.33-1.07 6.47-2.9 8.96l2.54 2.55-2.73 2.74-2.46-2.48A14.56 14.56 0 0 1 30 42.86v-3.15a11.43 11.43 0 0 0 5.24-2.16l-2.82-2.83 2.76-2.71 2.7 2.71c.19-.28.37-.58.54-.88Z" fill="url(#asfdfsriu)"/><path d="m28 23 5 5-5 5-5-5 5-5Z" fill="#E0262B"/><defs><linearGradient id="asfdfsriu" x1="44.66" y1="27.44" x2="11.24" y2="27.44" gradientUnits="userSpaceOnUse"><stop stop-color="#094E85"/><stop offset="1" stop-color="#1985C5"/></linearGradient></defs></svg>