<?xml version="1.0" encoding="UTF-8"?>
<!-- generated by Finnhub -->
<svg viewBox="0 0 55.5 55.5" xmlns="http://www.w3.org/2000/svg">
<path d="M 0,0 H 55.5 V 55.5 H 0 Z" fill="rgb(239, 242, 248)"/>
<path d="M 23.29,26.735 A 8,8 0 1,1 25.76,24.29 L 27,25.54 L 24.54,28 L 23.29,26.75 Z M 22.78,21.32 A 4,4 0 1,0 20.32,23.78 L 20,23.46 L 22.46,21 L 22.78,21.32 Z M 29,14 V 28 H 33 V 21.2 L 35.08,26 H 36.92 L 39,21.2 V 28 H 43 V 14 H 38.84 L 36,20.77 L 33.16,14 H 29 Z M 29,29 V 43 H 33 V 36.2 L 35.08,41 H 36.92 L 39,36.2 V 43 H 43 V 29 H 38.84 L 36,35.77 L 33.16,29 H 29 Z M 13,29 V 43 H 17 V 36.2 L 19.08,41 H 20.92 L 23,36.2 V 43 H 27 V 29 H 22.84 L 20,35.77 L 17.16,29 H 13 Z"/>
</svg>
