<?xml version="1.0" encoding="UTF-8"?>
<!-- generated by Finnhub -->
<svg viewBox="0 0 55.5 55.5" xmlns="http://www.w3.org/2000/svg">
<path d="M 0,0 H 55.5 V 55.5 H 0 Z" fill="rgb(239, 242, 248)"/>
<path d="M 11.870000000000001,29.525 L 10.21,29.83 C 10.21,28.73 7.53,28.63 7.53,29.85 C 7.53,29.97 7.61,30.08 7.73,30.1 C 7.94,30.15 8.21,30.19 8.5,30.23 C 9.73,30.39 11.42,30.63 11.5,31.9 C 11.7,34.83 5,34.52 5,32 H 6.77 C 6.77,33.09 8.16,33.04 8.97,33 H 9.21 C 9.96,32.98 10.1,31.79 9.31,31.64 L 7.24,31.26 C 6.27,31.08 5.67,30.22 6.06,29.3 C 6.92,27.3 11.4,27.78 11.88,29.54 Z M 23.05,34 L 24.06,30 H 27.8 L 27.56,30.6 H 25.2 L 24.94,31.66 H 27.06 L 26.82,32.26 H 24.8 L 24.54,33.29 H 27.06 L 26.76,34 H 23.04 Z M 13.01,30 L 12,34 H 13.33 L 14.3,30 H 13 Z M 14.45,34 L 15.46,30 H 16.76 L 15.96,33.3 H 18.25 L 17.96,34 H 14.45 Z M 18.35,30 H 19.74 L 20.24,32.95 L 22.24,30 H 23.36 L 20.61,34 H 19.21 L 18.36,30 Z M 27.98,34 L 28.94,30 H 31.46 C 32.39,30 33.07,30.6 32.99,31.28 A 1.1,1.1 0 0,1 32.02,32.28 L 31.78,32.3 L 32.56,34 H 31.24 L 30.62,32.3 H 29.52 L 29.12,34 H 27.98 Z M 29.62,31.85 L 29.89,30.6 H 31.31 C 31.68,30.6 31.96,30.98 31.87,31.37 A 0.59,0.59 0 0,1 31.31,31.85 H 29.62 Z M 40.68,29.52 L 39.01,29.82 C 39.01,28.72 36.33,28.63 36.33,29.83 C 36.33,29.95 36.41,30.06 36.53,30.08 C 36.73,30.13 37,30.16 37.3,30.2 C 38.52,30.37 40.22,30.6 40.3,31.86 C 40.5,34.76 33.8,34.59 33.8,32.09 H 35.57 C 35.57,33.1 36.81,33.02 37.63,32.97 L 38.01,32.95 C 38.76,32.94 38.9,31.75 38.11,31.61 L 36.04,31.23 C 35.07,31.05 34.46,30.2 34.86,29.29 C 35.72,27.31 40.2,27.79 40.68,29.52 Z M 41.56,30 L 41.05,32.09 C 40.81,33.06 41.51,34 42.48,34 H 43.24 C 44.14,34 44.92,33.37 45.14,32.47 L 45.77,30 H 44.7 L 44.1,32.64 C 43.99,33.09 43.49,33.4 43.05,33.4 C 42.43,33.4 42.1,32.8 42.25,32.19 L 42.74,30 H 41.57 Z M 45.98,34 C 45.98,33.92 46.55,31.3 46.84,30 H 48.13 L 49.53,32.5 L 50,30 H 51 L 50.01,34 H 49.05 L 47.49,31.06 L 46.84,34 H 45.98 Z" fill-rule="evenodd"/>
<path d="M 33.59,17.785 C 34.37,17.8 35,17.17 35,16.4 A 1.4,1.4 0 1,0 32.18,16.4 C 32.18,17.17 32.81,17.8 33.59,17.8 Z M 31.76,22.2 C 31.76,22.85 31.23,23.37 30.58,23.37 A 1.17,1.17 0 0,1 30.58,21.04 C 31.23,21.04 31.76,21.56 31.76,22.2 Z M 28.61,27.94 C 28.61,28.43 28.21,28.82 27.71,28.82 A 0.88,0.88 0 0,1 26.83,27.94 C 26.83,27.45 27.23,27.06 27.72,27.06 S 28.61,27.46 28.61,27.94 Z" fill="rgb(23, 133, 194)"/>
<path d="M 31.75,16.384999999999998 C 31.76,17.04 31.23,17.56 30.58,17.56 C 29.93,17.56 29.41,17.04 29.41,16.4 C 29.41,15.75 29.93,15.23 30.58,15.23 C 31.23,15.23 31.76,15.75 31.76,16.4 Z M 27.72,17.42 C 28.29,17.42 28.75,16.96 28.75,16.4 C 28.75,15.83 28.29,15.37 27.72,15.37 C 27.15,15.37 26.68,15.83 26.68,16.4 C 26.68,16.96 27.15,17.42 27.72,17.42 Z M 25.76,16.4 C 25.76,16.9 25.34,17.32 24.83,17.32 A 0.93,0.93 0 0,1 23.89,16.4 C 23.89,15.89 24.31,15.47 24.83,15.47 C 25.34,15.47 25.76,15.89 25.76,16.4 Z M 21.9,17.34 C 22.4,17.34 22.81,16.94 22.81,16.44 S 22.41,15.54 21.91,15.54 S 21,15.94 21,16.44 S 21.4,17.34 21.9,17.34 Z M 21.9,20.13 C 22.36,20.13 22.72,19.76 22.72,19.32 C 22.72,18.87 22.36,18.51 21.9,18.51 A 0.81,0.81 0 0,0 21.09,19.31 C 21.09,19.76 21.45,20.13 21.9,20.13 Z M 22.64,22.2 C 22.64,22.6 22.31,22.93 21.9,22.93 A 0.73,0.73 0 0,1 21.17,22.2 A 0.73,0.73 0 1,1 22.64,22.2 Z M 21.91,25.62 C 22.25,25.62 22.52,25.35 22.52,25.01 A 0.61,0.61 0 0,0 21.91,24.4 A 0.61,0.61 0 0,0 21.29,25 C 21.29,25.35 21.56,25.62 21.91,25.62 Z M 25.53,27.87 A 0.7,0.7 0 0,1 24.83,28.57 A 0.7,0.7 0 0,1 24.13,27.87 C 24.13,27.49 24.44,27.17 24.83,27.17 C 25.21,27.17 25.53,27.49 25.53,27.87 Z M 24.83,25.7 A 0.7,0.7 0 0,0 25.53,25 A 0.7,0.7 0 0,0 24.83,24.32 A 0.7,0.7 0 0,0 24.13,25.01 C 24.13,25.39 24.44,25.71 24.83,25.71 Z M 25.65,22.15 C 25.65,22.6 25.28,22.96 24.83,22.96 A 0.82,0.82 0 0,1 24,22.15 C 24,21.7 24.37,21.33 24.83,21.33 C 25.28,21.33 25.65,21.7 25.65,22.15 Z M 27.72,22.96 C 28.17,22.96 28.54,22.6 28.54,22.15 A 0.82,0.82 0 0,0 27.72,21.33 A 0.82,0.82 0 0,0 26.89,22.15 C 26.89,22.6 27.26,22.96 27.72,22.96 Z M 28.54,25.01 A 0.82,0.82 0 1,1 26.89,25.01 C 26.89,24.56 27.26,24.19 27.72,24.19 C 28.17,24.19 28.54,24.56 28.54,25.01 Z M 30.58,25.89 C 31.08,25.89 31.47,25.49 31.47,25.01 C 31.47,24.52 31.07,24.13 30.58,24.13 S 29.7,24.53 29.7,25.01 S 30.1,25.89 30.58,25.89 Z M 31.47,27.98 C 31.47,28.46 31.07,28.85 30.58,28.85 A 0.88,0.88 0 0,1 29.7,27.98 A 0.88,0.88 0 1,1 31.47,27.98 Z M 24.83,20.25 A 0.93,0.93 0 0,0 24.83,18.4 A 0.93,0.93 0 0,0 23.89,19.32 C 23.89,19.84 24.31,20.25 24.83,20.25 Z M 28.75,19.32 C 28.75,19.88 28.29,20.34 27.72,20.34 C 27.15,20.34 26.68,19.88 26.68,19.32 C 26.68,18.75 27.15,18.29 27.72,18.29 C 28.29,18.29 28.75,18.75 28.75,19.32 Z M 30.58,20.34 C 31.15,20.34 31.62,19.88 31.62,19.32 C 31.62,18.75 31.15,18.29 30.58,18.29 A 1.03,1.03 0 0,0 30.58,20.34 Z M 34.68,19.32 A 1.13,1.13 0 1,1 32.4,19.32 C 32.4,18.69 32.92,18.19 33.55,18.19 C 34.17,18.19 34.68,18.69 34.68,19.32 Z M 33.55,23.33 C 34.17,23.33 34.68,22.83 34.68,22.2 A 1.13,1.13 0 1,0 32.4,22.2 C 32.4,22.83 32.92,23.33 33.55,23.33 Z M 34.58,25.01 C 34.58,25.58 34.12,26.03 33.55,26.03 C 32.97,26.03 32.51,25.58 32.51,25.01 C 32.51,24.44 32.97,23.98 33.55,23.98 C 34.12,23.98 34.58,24.44 34.58,25.01 Z M 33.55,29 C 34.12,29 34.58,28.54 34.58,27.98 C 34.58,27.41 34.12,26.95 33.55,26.95 A 1.03,1.03 0 0,0 33.55,29 Z M 21.91,28.48 C 22.25,28.48 22.52,28.21 22.52,27.88 A 0.61,0.61 0 0,0 21.91,27.26 A 0.61,0.61 0 0,0 21.29,27.87 C 21.29,28.21 21.56,28.48 21.91,28.48 Z"/>
</svg>
