<!-- by Finnhub --><svg width="56" height="56" viewBox="0 0 56 56" xmlns="http://www.w3.org/2000/svg"><path fill="#F0F3FA" d="M0 0h56v56H0z"/><path d="M6.16 24.5c.58 0 1.12-.47 1.12-1.09 0-.56-.51-.91-1.03-.91H4.5v2h1.66ZM4 22h2.23c1.07 0 1.59.47 1.59 1.35 0 .6-.25 1.17-.68 1.4.61.26.58.82.6 1.4.01.24 0 .62.26.74V27h-.72c-.08-.17-.07-.38-.08-.56-.04-.78-.16-1.44-1.06-1.44H4.5v2H4v-5Zm7 0h4v.5h-3.5V24h3v.5h-3v2H15v.5h-4v-5Zm15 0h4v.5h-3.5V24h3v.5h-3v2H30v.5h-4v-5Zm-5.42 0c1.05 0 2.1.42 2.33 1.56h-.73c-.18-.7-.77-1.06-1.62-1.06-1.14 0-2.06.95-2.06 2.04 0 1.14.92 1.96 2.09 1.96.98 0 1.7-.48 1.72-1.5H21v-.5h2V27h-.48l-.18-.74c-.54.52-1.14.74-1.9.74C19 27 18 26 18 24.57c0-1.5 1.09-2.57 2.58-2.57ZM33 22h.8l2.7 4.5V22h.5v5h-.77l-2.73-4.5V27H33v-5Zm9.63 0c.96 0 2.2.44 2.32 1.55h-.6c-.16-.6-.8-1.05-1.71-1.05-1.2 0-2.14.92-2.14 2.06 0 1.12 1 1.94 2.12 1.94.85 0 1.6-.57 1.79-1.37H45c-.16 1.24-1.3 1.87-2.47 1.87-1.5 0-2.53-1.03-2.53-2.55 0-1.5 1.18-2.45 2.63-2.45Zm4.25 0h.68l1.7 2.4 1.68-2.4h.68l-2.12 2.98V27H49v-2.02L46.88 22Z" fill="#396B93"/><path fill-rule="evenodd" d="M4 28h48v7H4v-7Zm5.01 3.77-.5-1.32-.55 1.32h1.05ZM8.27 30h.51L10 33h-.5l-.34-.9H7.83l-.36.9H7l1.27-3ZM14 30h-2v3h.4v-1.36h1.4v-.36h-1.4v-.91H14V30Zm3 0h2v.37h-1.6v.9h1.4v.37h-1.4V33H17v-3Zm5.39 0H22v3h.39v-3ZM29 30h.39v3H29v-3Zm-3.58 0H25v3h2v-.36h-1.58V30Zm8.6 1.77-.52-1.32-.54 1.32h1.05ZM33.26 30h.51L35 33h-.5l-.34-.9h-1.33l-.36.9H32l1.27-3Zm6.73.36V30h-3v.36h1.25V33h.5v-2.64H40Zm3-.36h1.97v.37h-1.61v.9h1.5v.36h-1.5v1.01H45V33h-2v-3Zm4.42 2.4a.85.85 0 0 1-.1-.4H47c0 .3.08.55.26.73.18.18.42.27.73.27.27 0 .5-.07.7-.2.2-.14.31-.36.31-.68 0-.25-.08-.45-.24-.58-.1-.07-.22-.13-.4-.18l-.34-.09a2.07 2.07 0 0 1-.46-.15c-.1-.07-.15-.17-.15-.31 0-.13.04-.24.13-.33.09-.1.23-.15.43-.15.25 0 .42.08.53.23.05.08.09.2.1.35h.33c0-.32-.1-.55-.28-.7-.18-.14-.4-.21-.67-.21-.29 0-.5.08-.66.25a.88.88 0 0 0-.24.63c0 .23.08.4.24.53.1.07.25.13.47.19l.34.08c.19.05.32.1.41.17.09.07.13.18.13.33 0 .2-.1.35-.3.43a.94.94 0 0 1-.35.06c-.29 0-.49-.09-.6-.28Z" fill="#396B93"/></svg>