<?xml version="1.0" encoding="UTF-8"?>
<!-- generated by Finnhub -->
<svg viewBox="0 0 55.5 55.5" xmlns="http://www.w3.org/2000/svg">
<path d="M 0,0 H 55.5 V 55.5 H 0 Z" fill="rgb(239, 242, 248)"/>
<path d="M 30.75,25.245 A 0.11,0.11 0 0,0 30.76,25.15 A 0.1,0.1 0 0,0 30.73,25.11 A 112.15,112.15 0 0,0 23.39,26.58 C 23.19,26.59 23.07,26.5 23.04,26.28 C 22.84,24.82 23.43,23.91 24.81,23.56 C 27.2,22.96 29.31,22.84 31.16,23.22 C 31.26,23.24 31.36,23.29 31.43,23.38 C 32.1,24.12 32.18,24.89 31.68,25.7 C 30.78,27.14 29.82,28.63 28.81,30.14 A 0.47,0.47 0 0,0 28.75,30.54 L 28.83,30.82 A 0.4,0.4 0 0,1 28.81,31.14 C 28.5,31.78 27.42,33.62 26.56,32.79 A 0.73,0.73 0 0,1 26.37,32.04 C 26.66,31.12 27.12,30.21 27.76,29.32 A 173.4,173.4 0 0,1 30.76,25.26 Z" fill="rgb(1, 1, 0)"/>
<path d="M 8.09,25.155 C 8.37,25.12 8.43,25.22 8.27,25.46 L 6.72,27.84 A 0.38,0.38 0 0,1 6.41,28.03 A 2,2 0 0,0 4.81,28.99 A 0.6,0.6 0 0,0 4.71,29.5 A 0.54,0.54 0 0,0 5.04,29.85 C 5.1,29.87 5.14,29.89 5.17,29.93 C 5.28,30.05 5.28,30.17 5.18,30.3 A 5.83,5.83 0 0,0 4,32.76 C 4,32.8 4.02,32.83 4.04,32.86 C 4.05,32.9 4.08,32.92 4.1,32.94 A 0.2,0.2 0 0,0 4.2,32.99 C 4.3,33.01 4.4,33 4.48,32.95 C 4.82,32.78 5.06,32.51 5.18,32.17 A 6.4,6.4 0 0,1 6.18,30.44 C 6.26,30.34 6.36,30.31 6.48,30.36 L 11.98,32.67 C 12.46,32.87 12.7,32.7 12.71,32.14 V 31.87 C 12.71,31.21 12.44,30.77 11.86,30.57 L 7.71,29.1 C 7.2,28.92 7.21,28.79 7.74,28.72 L 8.23,28.65 C 10.33,28.37 13.82,27.92 14,25.13 C 14.2,21.98 7.8,23.13 6.1,23.66 C 4.98,24 4.07,24.91 4.07,26.24 A 0.32,0.32 0 0,0 4.16,26.45 C 4.18,26.48 4.22,26.5 4.25,26.52 L 4.35,26.54 L 6.55,26.4 C 6.67,26.39 6.72,26.32 6.7,26.2 L 6.68,26.04 C 6.67,25.94 6.62,25.88 6.52,25.88 L 6.17,25.85 A 0.14,0.14 0 0,1 6.07,25.81 A 0.17,0.17 0 0,1 6.01,25.7 C 6.01,25.66 6.03,25.61 6.05,25.58 A 0.14,0.14 0 0,1 6.15,25.53 L 8.11,25.18 Z M 9.46,25 A 10.57,10.57 0 0,1 8.1,27.38 A 0.06,0.06 0 0,0 8.16,27.43 C 9.32,27.18 12.86,26.28 13.26,25.3 A 0.34,0.34 0 0,0 12.96,24.84 H 9.7 C 9.58,24.84 9.5,24.89 9.45,25 Z" fill="rgb(233, 94, 27)" fill-rule="evenodd"/>
<path d="M 21.29,32.985 V 30.55 L 21.62,31.39 L 19,27 H 20.46 L 22.47,30.37 H 21.63 L 23.65,27 H 25 L 22.38,31.39 L 22.68,30.55 V 33 H 21.31 Z M 14,33 L 16.38,27 H 17.61 L 20,33 H 18.7 L 16.74,27.7 H 17.24 L 15.26,33 H 14 Z M 15.2,31.71 L 15.52,30.66 H 18.27 L 18.61,31.71 H 15.19 Z M 47,29.25 H 50 V 27.25 C 50,26.69 50.01,26.19 49.34,26.19 H 49.1 V 26 H 52 V 26.2 H 51.76 C 51.09,26.2 51,26.7 51,27.24 V 31.76 C 51,32.31 51.09,32.81 51.76,32.81 H 52 V 33 H 49.1 V 32.8 H 49.34 C 50,32.8 50,32.3 50,31.76 V 29.63 H 47 V 31.76 C 47,32.31 46.99,32.81 47.66,32.81 H 47.9 V 33 H 45 V 32.8 H 45.24 C 45.9,32.8 46,32.31 46,31.76 V 27.24 C 46,26.69 45.91,26.19 45.24,26.19 H 45 V 26 H 47.9 V 26.2 H 47.66 C 46.99,26.2 47,26.7 47,27.24 V 29.24 Z M 44.2,26 L 44.35,28.28 H 44.2 C 44,27.59 43.7,27.1 43.33,26.8 C 42.95,26.5 42.5,26.36 41.97,26.36 C 40.2,26.36 39.5,28.11 39.5,29.6 C 39.5,31.14 40.43,32.57 42.11,32.57 C 42.54,32.57 42.93,32.47 43.26,32.29 C 43.59,32.1 43.96,31.73 44.35,31.18 L 44.5,31.28 A 3.5,3.5 0 0,1 43.33,32.58 C 42.88,32.86 42.36,33 41.74,33 C 39.83,33 38.5,31.47 38.5,29.6 C 38.5,27.69 39.9,26 41.9,26 C 42.37,26 42.85,26.12 43.32,26.36 C 43.45,26.43 43.55,26.46 43.62,26.46 C 43.7,26.46 43.78,26.43 43.84,26.37 A 0.77,0.77 0 0,0 44.02,26 H 44.2 Z M 34,26.38 V 29.15 L 35.7,29.18 C 36.42,29.18 36.77,28.9 36.8,28.16 H 37 V 30.6 H 36.8 C 36.7,29.87 36.49,29.56 35.7,29.56 L 34,29.53 V 31.83 C 34,32.34 34.01,32.62 34.57,32.62 H 35.76 C 36.16,32.62 36.44,32.59 36.62,32.54 C 36.8,32.48 36.97,32.37 37.14,32.21 C 37.35,32 37.57,31.67 37.79,31.24 H 38 L 37.4,33 H 32 V 32.8 H 32.25 C 32.92,32.8 33,32.33 33,31.77 V 29.56 L 31,29.5 V 29.18 H 33 V 27.22 C 33,26.62 32.93,26.19 32.25,26.19 H 32 V 26 H 37.4 L 37.47,27.53 H 37.27 A 2.36,2.36 0 0,0 37.03,26.77 A 0.81,0.81 0 0,0 36.64,26.46 A 2.34,2.34 0 0,0 35.91,26.38 H 34 Z"/>
</svg>
