<?xml version="1.0" encoding="UTF-8"?>
<!-- generated by Finnhub -->
<svg viewBox="0 0 55.5 55.5" xmlns="http://www.w3.org/2000/svg">
<path d="M 0,0 H 55.5 V 55.5 H 0 Z" fill="rgb(239, 242, 248)"/>
<path d="M 29.119999999999997,12.455 A 1.6,1.6 0 0,0 26.87,12.47 L 23.47,15.87 A 1.6,1.6 0 0,0 23.47,18.13 L 26.87,21.53 A 1.6,1.6 0 0,0 29.13,21.53 L 32.53,18.13 A 1.6,1.6 0 0,0 32.53,15.87 L 29.13,12.47 Z M 33,18 A 1,1 0 0,1 34,17 H 38 A 1,1 0 0,1 39,18 V 22 A 1,1 0 0,1 38,23 H 34 A 1,1 0 0,1 33,22 V 18 Z M 33,34 A 1,1 0 0,1 34,33 H 38 A 1,1 0 0,1 39,34 V 38 A 1,1 0 0,1 38,39 H 34 A 1,1 0 0,1 33,38 V 34 Z M 26.87,34.47 A 1.6,1.6 0 0,1 29.13,34.47 L 32.53,37.87 A 1.6,1.6 0 0,1 32.53,40.13 L 29.13,43.53 A 1.6,1.6 0 0,1 26.87,43.53 L 23.47,40.13 A 1.6,1.6 0 0,1 23.47,37.87 L 26.87,34.47 Z M 43.53,26.87 L 40.13,23.47 A 1.6,1.6 0 0,0 37.87,23.47 L 34.47,26.87 A 1.6,1.6 0 0,0 34.47,29.13 L 37.87,32.53 A 1.6,1.6 0 0,0 40.13,32.53 L 43.53,29.13 A 1.6,1.6 0 0,0 43.53,26.87 Z M 12.47,26.87 L 15.87,23.47 A 1.6,1.6 0 0,1 18.13,23.47 L 21.53,26.87 A 1.6,1.6 0 0,1 21.53,29.13 L 18.13,32.53 A 1.6,1.6 0 0,1 15.87,32.53 L 12.47,29.13 A 1.6,1.6 0 0,1 12.47,26.87 Z M 18,17 A 1,1 0 0,0 17,18 V 22 A 1,1 0 0,0 18,23 H 22 A 1,1 0 0,0 23,22 V 18 A 1,1 0 0,0 22,17 H 18 Z M 17,34 A 1,1 0 0,1 18,33 H 22 A 1,1 0 0,1 23,34 V 38 A 1,1 0 0,1 22,39 H 18 A 1,1 0 0,1 17,38 V 34 Z M 33.54,15.68 V 13.06 A 0.3,0.3 0 0,1 33.95,12.78 L 36.14,13.66 A 0.3,0.3 0 0,1 36.21,14.16 L 34.03,15.92 A 0.3,0.3 0 0,1 33.53,15.68 Z M 19.86,13.65 L 22.05,12.78 A 0.3,0.3 0 0,1 22.46,13.06 V 15.68 A 0.3,0.3 0 0,1 21.97,15.92 L 19.79,14.17 A 0.3,0.3 0 0,1 19.86,13.65 Z M 41.28,19.81 L 39.96,22.01 A 0.3,0.3 0 0,0 40.22,22.46 H 42.85 A 0.3,0.3 0 0,0 43.11,22.01 L 41.8,19.81 A 0.3,0.3 0 0,0 41.28,19.81 Z M 40.22,33.54 H 42.85 A 0.3,0.3 0 0,1 43.11,33.99 L 41.8,36.19 A 0.3,0.3 0 0,1 41.28,36.19 L 39.96,33.99 A 0.3,0.3 0 0,1 40.22,33.54 Z M 33.54,42.94 V 40.32 C 33.54,40.06 33.83,39.92 34.03,40.08 L 36.21,41.83 A 0.3,0.3 0 0,1 36.14,42.35 L 33.95,43.22 A 0.3,0.3 0 0,1 33.54,42.94 Z M 21.36,40.08 L 19.17,41.83 A 0.3,0.3 0 0,0 19.25,42.35 L 21.43,43.22 A 0.3,0.3 0 0,0 21.85,42.94 V 40.32 A 0.3,0.3 0 0,0 21.35,40.08 Z M 13.15,33.54 H 15.78 A 0.3,0.3 0 0,1 16.04,33.99 L 14.72,36.19 A 0.3,0.3 0 0,1 14.2,36.19 L 12.89,33.99 A 0.3,0.3 0 0,1 13.15,33.54 Z M 15.92,21.97 L 14.17,19.79 A 0.3,0.3 0 0,0 13.65,19.86 L 12.78,22.05 A 0.3,0.3 0 0,0 13.06,22.46 H 15.68 A 0.3,0.3 0 0,0 15.92,21.97 Z" fill="url(#a)"/>
<defs>
<linearGradient id="a" x1="19" x2="37" y1="18.5" y2="36" gradientUnits="userSpaceOnUse">
<stop stop-color="rgb(1, 173, 125)" offset="0"/>
<stop stop-color="rgb(21, 166, 218)" offset="1"/>
</linearGradient>
</defs>
</svg>
