<?xml version="1.0" encoding="UTF-8"?>
<!-- generated by Finnhub -->
<svg viewBox="0 0 55.5 55.5" xmlns="http://www.w3.org/2000/svg">
<path d="M 0,0 H 55.5 V 55.5 H 0 Z" fill="rgb(239, 242, 248)"/>
<path d="M 28.29,15.815 C 28.17,25.7 41.72,23.85 47.74,23.83 C 47.86,23.83 47.94,23.9 47.97,24.01 C 48.05,24.31 47.97,24.45 47.75,24.46 C 46.72,24.48 46,24.9 45.61,25.73 A 0.35,0.35 0 0,1 45.47,25.88 A 0.34,0.34 0 0,1 45.27,25.92 C 44.43,25.82 43.75,25.73 42.92,25.92 C 38.38,26.93 31.29,27.63 27.42,24.76 C 24.75,22.79 23.72,20 24.34,16.4 A 4.34,4.34 0 0,1 26.72,13.03 A 0.74,0.74 0 0,0 27.1,12.18 L 26.53,9.83 A 0.68,0.68 0 0,1 26.83,9.1 A 0.67,0.67 0 0,1 27.61,9.16 A 4.2,4.2 0 0,1 29.11,12.41 A 0.31,0.31 0 0,0 29.3,12.69 A 0.3,0.3 0 0,0 29.62,12.63 L 30.02,12.27 A 0.26,0.26 0 0,1 30.32,12.24 A 0.27,0.27 0 0,1 30.44,12.52 C 30.17,13.78 28.33,13.7 28.3,15.82 Z" fill="rgb(12, 176, 73)"/>
<path d="M 32.49,14.725 A 0.17,0.17 0 0,1 32.62,14.88 A 0.17,0.17 0 0,1 32.53,15.05 A 3.51,3.51 0 0,0 30.55,18.69 A 0.14,0.14 0 0,1 30.45,18.85 C 30.41,18.86 30.38,18.85 30.35,18.84 A 0.14,0.14 0 0,1 30.28,18.76 A 6.56,6.56 0 0,1 29.95,14.82 A 0.69,0.69 0 0,1 30.51,14.29 C 30.61,14.28 30.69,14.29 30.78,14.3 L 32.49,14.74 Z" fill="rgb(140, 200, 232)"/>
<path d="M 26.33,26.055 C 22.39,26.52 19,28.07 14.89,27.84 A 0.74,0.74 0 0,1 14.22,27.31 A 0.76,0.76 0 0,1 14.2,27.01 C 14.95,20.69 18.29,16.54 24.23,14.56 C 24.37,14.51 24.42,14.56 24.37,14.7 C 22.89,19.29 24.02,22.98 27.77,25.76 C 27.91,25.87 27.9,25.96 27.73,26.04 C 27.34,26.24 26.73,26.02 26.33,26.07 Z" fill="rgb(1, 175, 233)"/>
<path d="M 35.79,21.835 C 38.23,21.85 40.2,20.31 40.21,18.41 C 40.21,16.51 38.24,14.96 35.81,14.95 C 33.38,14.95 31.4,16.49 31.4,18.39 S 33.36,21.85 35.8,21.85 Z" fill="rgb(12, 176, 73)"/>
<path d="M 40.72,22.835 L 37.42,22.78 C 37.39,22.78 37.36,22.78 37.33,22.76 A 0.12,0.12 0 0,1 37.4,22.54 A 4.66,4.66 0 0,0 39.92,21.16 A 0.17,0.17 0 0,1 40.07,21.18 L 40.12,21.24 L 40.89,22.58 A 0.18,0.18 0 0,1 40.82,22.83 A 0.18,0.18 0 0,1 40.73,22.85 Z" fill="rgb(140, 200, 232)"/>
<path d="M 37.22,41.165 L 38.27,41.55 A 0.23,0.23 0 0,1 38.41,41.81 A 0.24,0.24 0 0,1 38.18,42 L 36.03,41.86 A 1.07,1.07 0 0,1 35.04,41.02 C 33.9,36.22 31.05,32.9 25.87,33.44 C 21.5,33.9 15.18,34.31 11.49,32.02 C 8.66,30.26 9.22,27.11 7.48,24.77 A 0.47,0.47 0 0,0 7.16,24.57 L 6.19,24.43 A 0.22,0.22 0 0,1 6.01,24.14 A 0.21,0.21 0 0,1 6.08,24.04 A 2.6,2.6 0 0,1 8.28,23.44 C 8.4,23.46 8.48,23.53 8.53,23.64 C 11.66,30.12 16.91,29.29 22.79,27.58 C 28.39,25.95 35.47,28.22 36.86,34.56 C 37.32,36.66 37.39,38.77 37.05,40.88 C 37.03,41.03 37.09,41.13 37.23,41.18 Z" fill="rgb(12, 176, 73)"/>
<path d="M 33.620000000000005,27.685 C 36.27,27.96 38.83,27.73 41.5,27.23 A 0.33,0.33 0 0,1 41.86,27.41 L 41.89,27.56 A 14.38,14.38 0 0,1 38.88,36.58 A 0.14,0.14 0 0,1 38.79,36.58 A 0.14,0.14 0 0,1 38.72,36.53 A 0.15,0.15 0 0,1 38.69,36.45 A 10.15,10.15 0 0,0 33.54,27.82 A 0.1,0.1 0 0,1 33.58,27.71 A 0.1,0.1 0 0,1 33.63,27.69 Z" fill="rgb(1, 175, 233)"/>
<path d="M 27.31,34.325 C 30.92,34.06 33.45,36.74 34.29,40.04 C 34.31,40.12 34.29,40.21 34.26,40.28 A 0.33,0.33 0 0,1 34.09,40.44 C 27.32,43.47 19.59,41.31 15.89,34.62 C 15.82,34.51 15.85,34.46 15.98,34.46 C 19.45,34.69 23.23,34.64 27.32,34.34 Z" fill="rgb(1, 128, 196)"/>
</svg>
