<?xml version="1.0" encoding="UTF-8"?>
<!-- generated by Finnhub -->
<svg viewBox="0 0 55.5 55.5" xmlns="http://www.w3.org/2000/svg">
<path d="M 0,0 H 55.5 V 55.5 H 0 Z" fill="rgb(1, 164, 151)"/>
<path d="M 23.509999999999998,32.085 L 21.17,33.43 C 20.97,33.22 20.99,33.01 21.01,32.83 L 21.02,32.67 V 18.19 A 7.34,7.34 0 0,1 28.42,11 A 7.38,7.38 0 0,1 36,18.06 A 121.4,121.4 0 0,1 36,21.75 C 35.08,21.24 34.22,20.8 33.38,20.38 C 32.58,19.98 31.82,19.59 31.04,19.16 C 31,19.11 30.93,18.52 30.88,18.14 L 30.83,17.79 C 30.26,16.43 29.29,15.8 28.09,16.01 C 26.87,16.23 26.01,17.21 26.01,18.68 A 3186.78,3186.78 0 0,0 26.01,29.74 V 30.68 C 25.15,31.15 24.34,31.62 23.53,32.09 Z M 38.06,41.85 A 7.25,7.25 0 0,0 43.9,35.85 A 7.1,7.1 0 0,0 40.35,28.56 A 342.7,342.7 0 0,1 35.37,25.64 C 33.43,24.48 31.49,23.33 29.43,22.17 A 0.85,0.85 0 0,1 29.34,22.11 C 29.24,22.04 29.14,21.97 29,22.08 V 27.65 C 30.8,28.67 32.47,29.68 34.15,30.7 L 37.75,32.85 A 2.17,2.17 0 0,1 38.77,35.51 C 38.42,36.51 37.42,37.11 36.27,37 L 35.76,36.94 L 35.61,36.92 L 33.11,38.33 L 30.6,39.75 C 31.02,39.97 31.42,40.21 31.82,40.43 C 32.86,41.03 33.84,41.6 35,41.83 C 36.02,42.04 37.04,42.06 38.06,41.85 Z M 34.78,34.01 L 32.76,32.88 L 29.86,31.25 A 8454.7,8454.7 0 0,0 20.86,36.32 C 19.56,37.05 18.41,36.92 17.62,35.98 C 16.85,35.07 16.92,33.97 17.82,32.89 C 17.88,32.83 17.91,32.75 17.9,32.77 V 27.03 L 16.94,27.58 C 16.27,27.95 15.63,28.31 15.04,28.73 A 6.82,6.82 0 0,0 12,34.42 C 11.88,40.03 17.99,43.56 23.07,40.8 C 25.71,39.37 28.31,37.89 30.92,36.4 L 34.55,34.35 L 34.58,34.33 C 34.69,34.27 34.81,34.21 34.78,34.01 Z" fill="rgb(254, 254, 253)"/>
</svg>
