<!-- by Finnhub --><svg xmlns="http://www.w3.org/2000/svg" width="56" height="56" viewBox="0 0 56 56"><path fill="#006141" d="M0 0h56v56H0z"/><path d="M4.18 27.28L9.11 38c0-1.01.53-1.7.79-1.91a68.92 68.92 0 0 1 19.35-3.13c9.99 0 16.03 2.64 16.92 3.13.71.4 1 1.24 1.06 1.61l4.62-11.06c.27-.65.18-1.42-.32-1.84-2.38-1.96-9.04-4.8-22.28-4.8-15.63 0-21.77 2.97-24.6 5.05-.65.47-.83 1.45-.47 2.23z" fill="#F8DE08"/><path fill-rule="evenodd" d="M25.4 23.15v6.71l-.7.4a.4.4 0 0 0-.2.34c0 .22.17.4.38.4h5.71c.23 0 .41-.19.41-.42v-.96c0-.3-.23-.53-.52-.53-.28 0-.48.24-.48.53V30h-2.3c-.44 0-.7-.51-.7-.98V27h1.85c0 .43.25.65.7.52.25-.06.42-.3.42-.55v-1.8c0-.2-.16-.37-.36-.37a.36.36 0 0 0-.3.16l-.32.5c-.15.24-.4.54-.68.54H27v-2c0-.47.26-1 .7-1h1.83c.24 0 .44.36.44.6v.03c0 .24.18.43.41.43.23 0 .41-.2.41-.43v-1.21a.41.41 0 0 0-.4-.42h-5.46c-.24 0-.43.2-.43.44 0 .17.1.33.25.4l.64.31zm-14.97 9.22L8.6 25.72l-.45.18c-.24.1-.52-.03-.6-.3-.1-.28.04-.6.3-.67l3.45-1.08c1.07-.33 2.2.27 2.6 1.4l.04.1c.35.99 0 2.1-.85 2.66l2.49 2.83h.57c.44 0 .55.66.14.82l-1.07.44a.75.75 0 0 1-.83-.2l-2.67-2.8-.71.3.94 2.55.41-.12c.25-.08.5.07.58.32.08.27-.05.57-.3.66l-2.36.85a.48.48 0 0 1-.6-.27.55.55 0 0 1 .22-.7l.54-.32zm.56-4.4l-.97-2.64.74-.23c.61-.2 1.27.14 1.52.77a1.4 1.4 0 0 1-.64 1.78l-.65.32zm36.66-2.98c.16.1.21.29.14.46l-.55 1.25a.42.42 0 0 1-.59.2.47.47 0 0 1-.22-.36c-.1-.8-.7-1.14-1-1.18-.32-.04-.87.01-.87.61s.71 1.16 1.08 1.36c.38.2 1.41 1.28 1.41 1.94 0 .65-.59 2.02-2.16 2.02-1.58 0-2.79-.8-2.79-1.94 0-.65.56-.92 1.08-1.01.32-.06.37.1.2.38-.06.08-.1.18-.16.3-.27.72.28 1.18 1.34 1.18.84 0 1.03-.41 1.02-.62 0-.63-.46-1.04-.98-1.5-.38-.35-.8-.72-1.1-1.23-.7-1.21-.16-2.7 1.44-2.7 1.08 0 2.14.49 2.71.84zm-5.94 6.29l-.4.4c-.22.2-.13.56.16.65l3.62 1.03a.4.4 0 0 0 .38-.09l.32-.3a.39.39 0 0 0-.15-.65l-3.53-1.13a.4.4 0 0 0-.4.09zm-23.85-.7l-.63-6.81-.71-.26a.45.45 0 0 1-.3-.38.45.45 0 0 1 .41-.48l5.77-.53c.24-.02.45.15.47.39l.11 1.22a.43.43 0 0 1-.4.47.43.43 0 0 1-.47-.39v-.02a.46.46 0 0 0-.5-.42l-1.93.18a.86.86 0 0 0-.78.93l.17 1.87 1.5-.14c.29-.02.54-.2.68-.45l.29-.53a.39.39 0 0 1 .72.14l.17 1.82a.6.6 0 0 1-1.18.1l-.02-.14-2.07.19.21 2.24c.05.47.47.81.94.77l2.4-.22-.03-.25c-.03-.3.2-.56.5-.59.3-.02.56.2.59.5l.09.97a.43.43 0 0 1-.4.46l-6.02.55a.4.4 0 1 1-.27-.74l.7-.46zm14.55-7.29l.41.17-.26 6.25-.69.3a.45.45 0 0 0 .16.86l4.9.25a4.53 4.53 0 0 0 3.47-4.43c0-2.9-2.58-3.96-3.62-4.16l-4.15-.23a.51.51 0 1 0-.22 1zm1.63 6.05l.34-5.2c.02-.4.32-.7.7-.69 1.53.07 3.68.8 3.68 3.5s-2.39 3.24-4.06 3.16a.71.71 0 0 1-.66-.77zm6.49-3.94c.3-.2.95-.7 1.09-1.16l.02-.07c.16-.54.3-1 .94-1 .68 0 .74.44.74.87 0 .74-1.26 1.36-2.8 1.36z" fill="#E72723"/></svg>