<?xml version="1.0" encoding="UTF-8"?>
<!-- generated by Finnhub -->
<svg viewBox="0 0 55.5 55.5" xmlns="http://www.w3.org/2000/svg">
<path d="M 0,0 H 55.5 V 55.5 H 0 Z" fill="rgb(239, 242, 248)"/>
<path d="M 18.61,35.985 H 14 V 43 H 23 L 18.62,36 Z M 14,29 V 20 H 18.5 C 20.04,20 23,21 23,24.5 S 20.15,29 18.62,29 H 14 Z" fill="rgb(232, 104, 83)"/>
<path d="M 43.99,19.985 V 13.5 L 43.5,13 H 18 V 13.5 C 24.92,13.5 29,19.84 29,24.4 C 29,28 26.7,31 25.54,32.2 L 31.88,43 H 33 V 31 H 43 V 25.5 L 42.5,25 H 33 V 20 H 44 Z" fill="rgb(232, 104, 83)"/>
<path d="M 17.99,12.995 V 13.5 C 21,13.5 23.47,14.7 25.3,16.42 A 10.56,10.56 0 0,0 18,13.02 Z M 31.6,42.5 L 31.88,43 H 33 V 31 H 43 V 25.5 L 42.5,25 V 30.5 H 32.5 V 42.5 H 31.6 Z M 33,25 H 32.5 V 19.5 H 43.5 V 13 L 44,13.5 V 20 H 33 V 25 Z M 14,28.5 H 18.12 C 19.65,28.5 22.5,27.5 22.5,24 C 22.5,22.73 22.1,21.79 21.54,21.1 C 22.37,21.8 23,22.88 23,24.5 C 23,28 20.15,29 18.62,29 H 14 V 28.5 Z M 14,42.5 V 43 H 23 L 18.62,36 H 18.42 L 22.5,42.5 H 14 Z" fill="rgb(138, 31, 31)"/>
</svg>
