<!-- by Finnhub --><svg width="56" height="56" fill="none" xmlns="http://www.w3.org/2000/svg"><path fill="#F0F3FA" d="M0 0h56v56H0z"/><path d="M37.15 28.9c.6-1.75.1-3.9-.65-4.65.25-1 2.661-.943 3.46 0 2.29 3 1.79 7.25 1.54 8.5-.4-.2-1.25-.25-1.75 0 0-2.25-1.5-3.4-2.6-3.85z" fill="#7F6C9D"/><path d="M30.75 19.75c-3.25 1-2.25 5.25.25 6 .75-1.75 2-2.5 4.75-1.75.54.147-.536-5.623-5-4.25z" fill="#695186"/><path d="M43 13H13v30h9.531C18.592 40.352 16 35.854 16 30.75 16 22.604 21.906 16 30.813 16c5.103 0 9.539 2.592 12.187 6.531V13z" fill="#005294"/><path d="M20 24.674c-1 2.326 2.102 5.392 4.5 3.076.75-1.5 2.135-2.6 4.25-2.6.786-2.303-3.253-4.051-5.25-3.779-1.161.159-2.043.773-2.669 1.629A5.87 5.87 0 0020 24.674z" fill="#695186"/><path d="M39.5 23.5C38.1 19.7 35 18.75 32 19c1.25.25 4.25 1.5 4.25 4.5.417-.333 1.65-.8 3.25 0z" fill="#BAB0CB"/><path d="M36 24.5c-2.75-1-4 .25-4.5 1.5 1.25 1 1.75 2 2 3.25 1.5 0 2.25 0 3.25-1 .167-.667.25-2.55-.75-3.75z" fill="#624B7F"/><path d="M33.007 30a4.25 4.25 0 11-8.5 0 4.25 4.25 0 018.5 0z" fill="#584276"/><path d="M30.5 19.25c-3.8-1.2-6.417.75-7.25 1.75 2.5-.5 4.417.833 5 1.5-.25-1.75 1.333-3 2.25-3.25z" fill="#9383A7"/><circle cx="36" cy="32.5" r="3" fill="#745C8A"/><path d="M19.75 27.5c2 2.5 4 1.5 4 1.5s-.669 1.05-1.587 2.064c-.27.3-.537.605-.913.773-.851.38-2.087.194-2.387-.998-.44-1.74.025-4.417.887-3.339z" fill="#8E79A5"/><path d="M22.25 31.75L24 29.5c-.2 1.4.5 3 1.25 3.75-2 0-3-1-3-1.5z" fill="#7A6793"/><path d="M26 40.5c-5.4-.2-6.75-5.583-6.75-8.25 1 .5 2 .25 2.5 0 1 1.25 2.25 1.5 3.5 1.5-.6 2.4.5 4 1.25 4.25-.8.8-.667 2-.5 2.5z" fill="#9B8BB2"/><path d="M30.75 34.5c-2 1-3.75.5-5-.5-.333 1.25 0 3.596 2 3.75 2.6.2 3.25-2.083 3-3.25z" fill="#634D7A"/><path d="M30.75 37c.6-.6.75-1.75.5-2.75l1.25-1c.5 2 2.089 2.6 2.4 2.6 0 .667-.55 2.25-2.15 2.65-1.6.4-2-.917-2-1.5z" fill="#695186"/><path d="M26.5 40.75c1.75 2.5 6.25.75 6.5.75.75-1.25.167-2.333-.25-2.5-1.4.4-2.25-.5-2.25-1.5-1.35 1.15-2.75.75-3.25.75-.953.232-.89 1.731-.75 2.5z" fill="#A08EB3"/><path d="M33.7 41.25c.4-1 .3-1.75-.2-2.5 1-.5 1.75-1.5 2-2.75 1.5.25 2.25-.5 2.25-.5-.25 4-2.967 5.667-4.05 5.75z" fill="#8E78A5"/><path d="M38.25 35.4c.5-.4 1.15-1.15 1.4-2.15 1-.25 1.6 0 1.85.25-.4 4.2-3.5 6.083-5 6.5 1.5-1.5 1.833-3.6 1.75-4.6z" fill="#A598BA"/></svg>