<?xml version="1.0" encoding="UTF-8"?>
<!-- generated by Finnhub -->
<svg viewBox="0 0 55.5 55.5" xmlns="http://www.w3.org/2000/svg">
<path d="M 0,0 H 55.5 V 55.5 H 0 Z" fill="rgb(239, 242, 248)"/>
<path d="M 32.99,12.985 H 25.85 C 26.59,13.99 27,15.2 27,16.44 V 27.79 L 33,21.79 V 13 Z M 23.25,13 H 16.85 L 18.09,14.28 C 19.13,15.35 20,16.78 20,18.27 V 34.79 L 25,29.79 V 16.44 C 25,15.39 24.6,14.39 23.87,13.64 L 23.25,13 Z M 14.51,13 H 13 V 41.8 L 18,36.8 V 18.26 C 18,17.21 17.6,16.21 16.87,15.46 L 14.5,13 Z M 14.21,43 H 43 V 41.23 L 40.84,39.13 A 4.02,4.02 0 0,0 38.04,38 H 19.2 L 14.2,43 Z M 43,38.56 V 32.66 L 42.45,32.13 A 4.02,4.02 0 0,0 39.65,31 H 26.32 V 30.89 L 21.21,36 H 38.04 C 39.53,36 40.96,36.58 42.02,37.61 L 43,38.56 Z M 43,30.08 V 23 H 34.2 L 28.2,29 H 39.65 C 40.86,29 42.03,29.38 43,30.08 Z M 43,21 V 14.2 L 36.2,21 H 43 Z M 41.8,13 H 35 V 19.8 L 41.8,13 Z" fill="url(#a)"/>
<defs>
<linearGradient id="a" x1="43" x2="13" y1="13" y2="44.01" gradientUnits="userSpaceOnUse">
<stop stop-color="rgb(218, 187, 78)" offset="0"/>
<stop stop-color="rgb(250, 241, 208)" offset="1"/>
</linearGradient>
</defs>
</svg>
