<?xml version="1.0" encoding="UTF-8"?>
<!-- generated by Finnhub -->
<svg viewBox="0 0 55.5 55.5" xmlns="http://www.w3.org/2000/svg">
<path d="M0 0h55.5v55.5H0z" fill="rgb(239, 242, 248)"/>
<path d="M28.18 12.02c-9.65.2-14.14 7.08-15.18 10.5 2.14-1.22 6.1-4.38 15.18-.47 7.27 3.12 12.59.8 14.34-.74-3.82-7.9-11.15-9.49-14.34-9.3Z" fill="url(#b)"/>
<path d="M27.82 43.98c9.65-.2 14.14-7.08 15.18-10.5-2.14 1.22-6.1 4.38-15.18.47-7.27-3.12-12.59-.8-14.34.74 3.82 7.9 11.15 9.49 14.34 9.3Z" fill="url(#a)"/>
<rect x="14" y="23" width="2" height="9" rx="1" fill="rgb(32, 32, 31)"/>
<rect x="20" y="22" width="2" height="9" rx="1" fill="rgb(32, 32, 31)"/>
<rect x="27" y="23" width="2" height="9" rx="1" fill="rgb(32, 32, 31)"/>
<rect x="34" y="25" width="2" height="9" rx="1" fill="rgb(32, 32, 31)"/>
<rect x="40" y="24" width="2" height="9" rx="1" fill="rgb(32, 32, 31)"/>
<defs>
<linearGradient id="b" x1="29.83" x2="28.83" y1="15.03" y2="22.26" gradientUnits="userSpaceOnUse">
<stop stop-color="rgb(1, 68, 38)" offset="0"/>
<stop stop-color="rgb(1, 98, 43)" offset="1"/>
</linearGradient>
<linearGradient id="a" x1="26.17" x2="27.17" y1="40.97" y2="33.74" gradientUnits="userSpaceOnUse">
<stop stop-color="rgb(1, 68, 38)" offset="0"/>
<stop stop-color="rgb(1, 98, 43)" offset="1"/>
</linearGradient>
</defs>
</svg>
