<?xml version="1.0" encoding="UTF-8"?>
<!-- generated by Finnhub -->
<svg viewBox="0 0 55.5 55.5" xmlns="http://www.w3.org/2000/svg">
<path d="M 0,0 H 55.5 V 55.5 H 0 Z" fill="rgb(239, 242, 248)"/>
<path d="M 12.99,21.985 A 9,9 0 0,1 22,13 H 31 V 22 H 25 V 19 H 22 A 3,3 0 1,0 22,25 H 25.58 V 31 H 22 A 9,9 0 0,1 13,22 Z M 43,34 A 9,9 0 0,1 34,43 H 25 V 34 H 31 V 37 H 34 A 3,3 0 0,0 34,31 H 30 V 25 H 34 A 9,9 0 0,1 43,34 Z" fill="rgb(136, 136, 135)"/>
<path d="M 42.99,12.985 H 36.48 L 29.49,25 H 23.24 L 13,43 H 19.37 L 26.19,31 H 32.52 L 43,13 Z" fill="rgb(243, 186, 13)"/>
</svg>
