<?xml version="1.0" encoding="UTF-8"?>
<!-- generated by Finnhub -->
<svg viewBox="0 0 55.5 55.5" xmlns="http://www.w3.org/2000/svg">
<path d="M0 0h55.5v55.5H0z" fill="url(#a)"/>
<path d="M11 17h9.43c2.23.04 6.8 1.6 7.3 7.43-.01 1.37-.52 4.5-2.44 6.02L30.4 40H27.3l-6.5-11.12.3-.05c.4-.08.9-.2 1.38-.48.48-.27.95-.67 1.3-1.29.34-.61.56-1.4.6-2.43a4.44 4.44 0 0 0-1.31-3.56A4.06 4.06 0 0 0 20.69 20H11v-3Zm0 4v19h3V24h6v1h-5v15h3v-8.1l4.48 8.1h3.63L19.4 28.27l.57-.16c.13-.04.29-.06.44-.08l.05-.01.46-.08c.36-.07.75-.18 1.1-.38.36-.2.7-.5.96-.94.25-.46.45-1.1.48-2.02.05-1.44-.44-2.33-1.02-2.87a2.95 2.95 0 0 0-1.8-.73H11ZM31 17h15v3H31v-3Zm0 4v3h4v16h3V21h-7Zm8 19h3V24h4v-3h-7v19Z" fill="rgb(254, 254, 253)"/>
<defs>
<linearGradient id="a" x1="10.42" x2="68.15" y1="9.71" y2="76.02" gradientUnits="userSpaceOnUse">
<stop stop-color="rgb(25, 29, 31)" offset="0"/>
<stop stop-color="rgb(5, 5, 8)" offset="1"/>
</linearGradient>
</defs>
</svg>
