<?xml version="1.0" encoding="UTF-8"?>
<!-- generated by Finnhub -->
<svg fill="none" viewBox="0 0 55.5 55.5" xmlns="http://www.w3.org/2000/svg">
<rect width="56" height="56" fill="url(#a)"/>
<path d="M 11.994,28.985 C 11.8753,23.1896 14.9891,12 28.474,12 C 32.4086,12 35.4956,13.2464 37.8542,15 H 26.9522 L 26.9312,15.0013 C 24.7646,15.1391 21.5228,16.2503 18.9738,18.8252 C 16.7635,21.0581 15.1038,24.3616 15.0809,29.0002 H 12.0046 Z M 16.4005,29 H 19.7385 C 19.5651,25.6152 20.6764,23.2347 22.2655,21.6424 C 24.0826,19.8215 26.4571,19.0981 28.0159,19.0013 L 28.0364,19 H 41.6594 C 41.0338,18.0826 40.2847,17.1672 39.4022,16.3152 H 26.9942 C 25.1282,16.4396 22.2111,17.4274 19.9133,19.7487 C 17.959,21.7229 16.4229,24.6917 16.4005,29 Z M 42.4755,20.3152 H 28.0775 C 26.7791,20.4008 24.7429,21.0247 23.2013,22.5695 C 21.8898,23.8838 20.8848,25.9156 21.0599,29 H 24.1413 V 28.235 C 24.1413,25.1589 26.2429,24 27.8728,24 H 43.9998 C 43.7374,22.973 43.2405,21.6752 42.4753,20.3152 Z" clip-rule="evenodd" fill="rgb(253, 253, 252)" fill-rule="evenodd"/>
<path d="M 43.986000000000004,26.985 C 44.1247,32.8104 41.0109,44 27.526,44 C 23.5914,44 20.5044,42.7536 18.1458,41 H 29.0478 H 29.0688 C 31.2355,40.8622 34.4773,39.733 37.0262,37.1581 C 39.2339,34.9279 40.8923,31.6296 40.919,27.0001 H 43.9955 Z M 39.5994,27 H 36.264 C 36.4233,30.3569 35.3153,32.721 33.7344,34.3051 C 31.9174,36.1259 29.5429,36.9032 27.9841,37 H 27.9636 H 14.3406 C 14.9621,37.9114 15.7055,38.8209 16.5806,39.6682 H 29.0056 C 30.8716,39.5437 33.7887,38.5559 36.0865,36.2347 C 38.0384,34.2629 39.573,31.2993 39.5993,27 Z M 13.4954,35.6323 H 27.9224 C 29.2208,35.5466 31.2571,34.9227 32.7987,33.3779 C 34.1027,32.0712 35.1037,30.055 34.943,27 H 32.0003 V 27.765 C 32.0003,30.8411 29.7571,32 28.1272,32 H 12.0002 C 12.2592,33.0138 12.7468,34.2914 13.4953,35.6323 Z" clip-rule="evenodd" fill="rgb(35, 170, 221)" fill-rule="evenodd"/>
<defs>
<linearGradient id="a" x1="10.418" x2="68.146" y1="9.7116" y2="76.017" gradientUnits="userSpaceOnUse">
<stop stop-color="rgb(25, 29, 31)" offset="0"/>
<stop stop-color="rgb(5, 5, 8)" offset="1"/>
</linearGradient>
</defs>
</svg>
