<?xml version="1.0" encoding="UTF-8"?>
<!-- generated by Finnhub -->
<svg viewBox="0 0 55.5 55.5" xmlns="http://www.w3.org/2000/svg">
<path d="M 0,0 H 55.5 V 55.5 H 0 Z" fill="rgb(239, 242, 248)"/>
<path d="M 27.439999999999998,10.985 V 11.07 C 27.45,11.11 27.48,11.13 27.52,11.13 L 28.52,11.06 C 28.56,11.06 28.58,11.06 28.6,11.08 C 28.68,11.14 28.74,11.16 28.79,11.17 C 34.92,11.57 40.03,14.82 42.92,20.28 C 42.87,20.48 42.77,20.51 42.63,20.39 A 16,16 0 0,0 28.25,11.54 A 16.54,16.54 0 0,0 11.63,30.46 C 11.83,31.76 12.23,33.14 12.87,34.62 A 10.95,10.95 0 0,0 15.16,38.15 A 0.08,0.08 0 0,0 15.24,38.08 L 15.23,38.03 C 15.09,37.82 14.89,37.68 14.75,37.46 C 14.62,37.26 14.41,36.94 14.09,36.51 A 8.54,8.54 0 0,1 13.23,34.73 C 13.21,34.69 13.23,34.67 13.27,34.68 C 13.32,34.68 13.36,34.72 13.39,34.78 A 17.74,17.74 0 0,0 18.47,40.86 C 20.37,42.24 22.47,43.17 24.77,43.65 C 24.87,43.85 25.05,43.95 25.29,43.99 C 26.47,44.18 27.63,44.26 28.77,44.24 C 29.29,44.23 29.9,44.11 30.52,44.04 C 31.54,43.94 32.7,43.63 33.99,43.09 C 34.03,43.08 34.04,43.05 34.03,43.01 L 34,42.86 L 35.92,41.9 A 15.34,15.34 0 0,0 41.59,36.5 L 41.79,36.43 A 0.16,0.16 0 0,0 41.88,36.35 C 42.19,35.78 42.6,35.19 42.86,34.67 C 43.34,33.69 43.69,32.67 43.93,31.6 C 43.93,31.55 43.96,31.53 44.01,31.55 C 44.14,31.61 44.24,31.72 44.31,31.9 C 42.65,39.53 35.71,44.63 28.14,44.74 C 23.05,44.82 18.43,42.67 15.09,38.81 C 15.07,38.79 15.04,38.81 15,38.87 A 16.67,16.67 0 0,1 11.17,25.67 A 17.28,17.28 0 0,1 27.45,11 Z" fill="rgb(185, 154, 62)"/>
<path d="M 27.439999999999998,10.985 C 40.11,10.73 48.98,23.92 43.19,35.59 C 37.7,46.63 22.94,48.25 15,38.87 C 15.04,38.81 15.07,38.79 15.09,38.81 C 18.43,42.67 23.05,44.81 28.14,44.74 C 35.71,44.63 42.65,39.54 44.31,31.9 A 16.82,16.82 0 0,0 28.79,11.16 A 0.39,0.39 0 0,1 28.6,11.08 A 0.12,0.12 0 0,0 28.53,11.06 L 27.52,11.13 C 27.48,11.13 27.46,11.11 27.46,11.07 V 11 Z" fill="rgb(91, 68, 32)"/>
<path d="M 37.59,14.655 C 37.55,14.74 37.5,14.76 37.46,14.73 A 15.1,15.1 0 0,0 33.61,12.71 C 33.11,12.53 32.53,12.41 31.98,12.26 C 29.11,11.43 25.88,11.63 23.05,12.51 A 16.12,16.12 0 0,0 11.99,31.17 C 12.14,31.79 12.24,32.45 12.45,33.03 A 33.5,33.5 0 0,0 13.04,34.53 L 13.01,34.59 C 12.97,34.64 12.93,34.65 12.87,34.62 A 16.66,16.66 0 0,1 11.63,30.46 A 16.54,16.54 0 0,1 28.25,11.54 A 16,16 0 0,1 37.59,14.67 Z" fill="rgb(123, 90, 40)"/>
<path d="M 37.59,14.655 A 16.92,16.92 0 0,1 42.63,20.39 C 42.77,20.51 42.87,20.48 42.92,20.29 A 16.62,16.62 0 0,1 44.31,31.9 C 44.24,31.72 44.14,31.6 44.01,31.55 C 43.96,31.53 43.94,31.55 43.92,31.6 A 13.5,13.5 0 0,1 42.86,34.67 C 42.6,35.19 42.19,35.78 41.88,36.35 A 0.16,0.16 0 0,1 41.78,36.43 L 41.59,36.5 A 16.04,16.04 0 0,0 40.53,18 L 39.32,16.57 C 39.29,16.53 39.26,16.53 39.22,16.57 A 0.13,0.13 0 0,0 39.19,16.65 A 2.24,2.24 0 0,1 38.95,16.44 C 38.29,15.77 37.45,15.07 36.63,14.62 C 35.83,14.2 35.15,13.71 34.31,13.37 A 15.8,15.8 0 0,0 30.13,12.27 C 29.89,12.24 29.63,12.14 29.4,12.13 C 28.3,12.1 26.94,12.1 25.81,12.26 C 19.19,13.2 13.29,18.49 12.23,25.31 C 11.87,27.45 11.9,29.64 12.49,31.74 C 13.49,35.38 15.53,38.36 18.61,40.67 C 18.54,40.67 18.5,40.75 18.47,40.87 A 17.73,17.73 0 0,1 13.39,34.79 C 13.36,34.73 13.32,34.69 13.26,34.69 C 13.22,34.69 13.21,34.69 13.23,34.74 C 13.55,35.58 13.83,36.17 14.09,36.53 C 14.4,36.95 14.62,37.27 14.75,37.47 C 14.89,37.69 15.09,37.83 15.23,38.04 A 0.08,0.08 0 0,1 15.21,38.14 A 0.08,0.08 0 0,1 15.11,38.14 C 14.12,37.16 13.41,35.89 12.87,34.63 C 12.93,34.66 12.97,34.65 13.01,34.6 A 0.12,0.12 0 0,0 13.03,34.48 C 12.83,34 12.63,33.52 12.45,33.04 C 12.24,32.46 12.15,31.8 11.99,31.18 A 16.12,16.12 0 0,1 23.05,12.5 A 16.04,16.04 0 0,1 31.98,12.25 C 32.52,12.4 33.11,12.52 33.61,12.7 A 15.1,15.1 0 0,1 37.46,14.72 C 37.5,14.75 37.54,14.72 37.59,14.66 Z" fill="rgb(171, 140, 66)"/>
<path d="M 34.31,13.344999999999999 L 34.28,13.44 C 34.26,13.48 34.23,13.49 34.18,13.48 A 16.31,16.31 0 0,0 21.98,13.52 A 8.85,8.85 0 0,0 20.22,14.46 A 0.11,0.11 0 0,0 20.27,14.61 C 20.51,14.71 20.64,14.87 20.67,15.11 A 15.26,15.26 0 0,0 14.33,22.15 C 14.13,22.28 13.98,22.27 13.87,22.11 C 13.84,22.07 13.84,22.01 13.87,21.95 A 0.07,0.07 0 0,0 13.87,21.88 A 0.07,0.07 0 0,0 13.82,21.84 C 13.72,21.82 13.67,21.76 13.65,21.66 A 0.05,0.05 0 0,0 13.62,21.62 A 0.05,0.05 0 0,0 13.57,21.65 C 13.05,22.79 12.67,23.97 12.44,25.21 C 12.43,25.25 12.4,25.28 12.37,25.31 C 12.31,25.34 12.27,25.33 12.23,25.3 C 13.29,18.48 19.2,13.2 25.81,12.25 C 26.94,12.09 28.31,12.09 29.41,12.12 C 29.63,12.13 29.9,12.23 30.13,12.26 C 31.57,12.43 32.96,12.8 34.32,13.36 Z" fill="rgb(215, 182, 74)"/>
<path d="M 34.300000000000004,13.344999999999999 C 35.15,13.7 35.83,14.19 36.63,14.61 C 37.46,15.06 38.29,15.76 38.95,16.43 L 39.19,16.63 L 40.46,18.08 A 16.37,16.37 0 0,1 42.11,35.06 C 42.26,34.73 42.06,34.52 41.51,34.45 A 0.08,0.08 0 0,1 41.44,34.37 V 34.33 C 42.25,32.66 42.71,30.89 42.84,29.01 C 42.84,28.96 42.82,28.93 42.79,28.93 C 42.76,28.93 42.72,28.93 42.67,28.96 C 42.79,26.22 42.33,23.33 40.93,20.93 C 40.7,20.43 40.41,19.96 40.06,19.52 A 11.9,11.9 0 0,0 37.77,16.92 L 37.07,16.37 A 14.65,14.65 0 0,0 20.67,15.1 C 20.64,14.87 20.51,14.7 20.27,14.6 A 0.11,0.11 0 0,1 20.21,14.51 A 0.11,0.11 0 0,1 20.25,14.41 C 20.78,14.06 21.35,13.76 21.98,13.51 C 26.05,11.92 30.11,11.91 34.18,13.48 C 34.23,13.49 34.26,13.48 34.28,13.44 L 34.31,13.36 Z" fill="rgb(185, 154, 62)"/>
<path d="M 37.06,16.355 C 37.07,16.39 37.04,16.41 36.99,16.42 A 15.16,15.16 0 0,0 28.67,13.44 C 25.91,13.34 23.32,13.95 20.93,15.24 A 14.78,14.78 0 0,0 14.2,23.07 A 14.69,14.69 0 0,0 16.34,36.86 C 16.37,36.9 16.34,36.93 16.26,36.96 A 14.27,14.27 0 0,1 14.33,22.15 C 15.68,19.15 17.79,16.79 20.66,15.1 A 14.65,14.65 0 0,1 37.06,16.37 Z" fill="rgb(91, 68, 32)"/>
<path d="M 28.66,13.424999999999999 L 28.45,13.48 C 28.43,13.48 28.42,13.5 28.43,13.53 C 28.45,13.59 28.44,13.63 28.4,13.69 A 0.14,0.14 0 0,0 28.36,13.79 C 28.39,14.22 28.52,15.55 28.11,15.72 C 28.07,15.73 28.07,15.76 28.09,15.78 C 28.14,15.82 28.14,15.85 28.1,15.88 C 27.88,15.66 27.6,15.59 27.26,15.68 C 27.21,15.68 27.19,15.72 27.19,15.76 L 27.21,16.73 C 27.21,16.79 27.25,16.83 27.31,16.83 L 27.75,16.87 L 27.72,17.64 C 26.15,17.69 24.68,18.07 23.32,18.78 C 23.27,18.54 23.12,18.35 22.85,18.2 C 22.98,17.43 22.71,17.1 22.05,17.22 C 21.92,16.94 21.83,16.68 21.65,16.42 A 5.06,5.06 0 0,1 21.07,15.41 A 0.27,0.27 0 0,0 21,15.31 L 20.93,15.24 C 23.33,13.95 25.91,13.34 28.67,13.44 Z M 26.87,16.71 C 26.87,16.79 26.89,16.85 26.95,16.88 A 0.09,0.09 0 0,0 27.07,16.82 V 16.77 L 26.61,15.82 A 0.14,0.14 0 0,0 26.46,15.74 A 0.14,0.14 0 0,0 26.34,15.85 L 26.12,16.92 A 0.06,0.06 0 0,0 26.15,16.99 H 26.23 A 0.06,0.06 0 0,0 26.29,16.95 L 26.35,16.66 A 0.28,0.28 0 0,1 26.65,16.44 C 26.71,16.44 26.77,16.48 26.81,16.53 C 26.86,16.58 26.87,16.64 26.87,16.71 Z M 25.09,17.01 A 0.41,0.41 0 0,1 24.73,17.18 A 0.08,0.08 0 0,0 24.65,17.23 C 24.62,17.28 24.64,17.33 24.69,17.35 C 24.73,17.38 24.77,17.38 24.82,17.37 C 25.06,17.31 25.37,17.07 25.2,16.81 C 25.08,16.63 24.84,16.61 24.65,16.56 A 0.13,0.13 0 0,1 24.58,16.36 A 0.13,0.13 0 0,1 24.64,16.31 L 24.93,16.19 A 0.05,0.05 0 0,0 24.96,16.15 V 16.12 L 24.93,16.1 C 24.73,15.97 24.4,16.27 24.39,16.46 A 0.23,0.23 0 0,0 24.54,16.68 L 25.06,16.88 A 0.08,0.08 0 0,1 25.11,16.93 A 0.08,0.08 0 0,1 25.09,17 Z M 24.07,16.39 A 0.08,0.08 0 0,0 24,16.34 H 23.97 L 23.95,16.35 A 0.07,0.07 0 0,0 23.91,16.39 A 0.08,0.08 0 0,0 23.91,16.45 L 24.27,17.44 L 24.29,17.46 A 0.08,0.08 0 0,0 24.34,17.49 H 24.37 L 24.39,17.47 A 0.08,0.08 0 0,0 24.44,17.41 V 17.38 L 24.07,16.38 Z M 23.02,17.11 V 17.05 A 0.04,0.04 0 0,1 23.08,17.05 L 23.88,17.63 A 0.1,0.1 0 0,0 24.02,17.63 A 0.1,0.1 0 0,0 24.05,17.49 L 23.65,16.56 C 23.62,16.5 23.58,16.49 23.54,16.55 L 23.51,16.58 A 0.08,0.08 0 0,0 23.48,16.62 L 23.49,16.68 L 23.8,17.26 A 0.05,0.05 0 0,1 23.74,17.32 L 22.97,16.8 A 0.1,0.1 0 0,0 22.81,16.87 A 0.1,0.1 0 0,0 22.81,16.93 L 23.24,17.87 A 0.08,0.08 0 0,0 23.32,17.92 C 23.37,17.92 23.39,17.89 23.37,17.86 A 3.5,3.5 0 0,0 23.02,17.11 Z" fill="rgb(155, 128, 60)"/>
<path d="M 28.66,13.424999999999999 C 31.72,13.6 34.5,14.59 36.99,16.42 L 37.67,17 C 38.51,17.73 39.24,18.53 39.87,19.4 A 0.27,0.27 0 0,1 39.82,19.77 L 39.24,20.24 C 39.21,20.27 39.2,20.26 39.2,20.22 V 20.17 C 39.2,20.12 39.18,20.11 39.14,20.14 C 38.14,20.85 37.52,21.41 36.16,22.15 A 9.68,9.68 0 0,0 27.72,17.64 L 27.75,16.87 C 28.18,16.71 28.3,16.37 28.1,15.87 C 28.14,15.85 28.14,15.82 28.1,15.78 C 28.07,15.76 28.07,15.73 28.1,15.72 C 28.52,15.55 28.4,14.22 28.36,13.79 C 28.36,13.75 28.37,13.72 28.4,13.69 C 28.44,13.64 28.45,13.59 28.43,13.53 C 28.43,13.5 28.43,13.49 28.46,13.48 L 28.67,13.44 Z M 30.21,16.21 L 30.08,16.97 A 0.09,0.09 0 0,0 30.1,17.03 A 0.1,0.1 0 0,0 30.16,17.07 A 0.09,0.09 0 0,0 30.25,17.03 A 5.85,5.85 0 0,0 30.39,15.98 A 0.14,0.14 0 0,0 30.29,15.84 A 0.14,0.14 0 0,0 30.12,15.91 L 29.77,16.55 A 0.04,0.04 0 0,1 29.73,16.57 A 0.04,0.04 0 0,1 29.7,16.54 L 29.51,15.78 A 0.1,0.1 0 0,0 29.33,15.78 L 29.07,16.81 C 29.07,16.85 29.07,16.88 29.12,16.89 C 29.17,16.9 29.2,16.89 29.22,16.83 A 10.1,10.1 0 0,0 29.41,16.11 H 29.47 L 29.49,16.15 L 29.58,16.85 A 0.1,0.1 0 0,0 29.65,16.94 A 0.1,0.1 0 0,0 29.75,16.89 A 8.12,8.12 0 0,0 30.17,16.17 C 30.2,16.17 30.21,16.17 30.21,16.21 Z M 30.69,16.91 L 30.89,16.23 C 30.9,16.18 30.93,16.16 30.98,16.18 L 31.28,16.27 C 31.31,16.27 31.33,16.27 31.35,16.24 L 31.38,16.18 A 0.06,0.06 0 0,0 31.35,16.1 L 30.86,15.97 C 30.79,15.95 30.75,15.97 30.73,16.04 L 30.47,17 V 17.04 L 30.5,17.07 L 31.02,17.27 A 0.05,0.05 0 0,0 31.08,17.26 V 17.24 A 0.1,0.1 0 0,0 31.09,17.19 A 1.68,1.68 0 0,0 31.05,17.06 L 30.75,17.01 A 0.08,0.08 0 0,1 30.69,16.91 Z M 31.51,17.22 C 31.56,16.94 31.64,16.68 31.75,16.42 A 0.18,0.18 0 0,0 31.77,16.3 A 0.08,0.08 0 0,0 31.7,16.24 A 0.08,0.08 0 0,0 31.62,16.3 L 31.3,17.22 V 17.3 A 0.1,0.1 0 0,0 31.36,17.36 L 31.76,17.5 A 0.09,0.09 0 0,0 31.86,17.46 A 0.09,0.09 0 0,0 31.85,17.36 A 0.28,0.28 0 0,0 31.59,17.29 C 31.53,17.3 31.51,17.28 31.51,17.22 Z M 30.91,16.62 C 31.07,16.82 31.18,16.82 31.26,16.62 A 0.12,0.12 0 0,0 31.18,16.47 H 31.12 L 30.95,16.51 C 30.88,16.53 30.86,16.56 30.91,16.61 Z M 32.61,16.65 A 0.08,0.08 0 0,0 32.57,16.55 H 32.55 C 32.53,16.53 32.51,16.53 32.49,16.55 A 0.08,0.08 0 0,0 32.45,16.58 L 32.06,17.53 A 0.08,0.08 0 0,0 32.1,17.63 L 32.13,17.64 H 32.18 C 32.2,17.64 32.22,17.62 32.22,17.6 L 32.62,16.65 Z M 32.86,17.99 C 32.93,18.01 33,18.03 33.07,18.03 C 33.15,18.03 33.22,18.01 33.29,17.97 A 0.62,0.62 0 0,0 33.47,17.84 A 0.68,0.68 0 0,0 33.63,17.17 A 0.52,0.52 0 0,0 33.35,16.85 A 0.49,0.49 0 0,0 33.15,16.81 A 0.54,0.54 0 0,0 32.93,16.86 A 0.62,0.62 0 0,0 32.73,17 A 0.68,0.68 0 0,0 32.58,17.66 C 32.63,17.81 32.73,17.93 32.86,17.99 Z M 33.91,17.93 C 33.98,17.95 34.03,17.95 34.07,17.93 A 1.36,1.36 0 0,1 33.99,18.58 A 0.06,0.06 0 0,0 34.01,18.62 A 0.06,0.06 0 0,0 34.05,18.64 H 34.07 L 34.09,18.62 L 34.11,18.6 C 34.18,18.46 34.21,18.31 34.21,18.16 C 34.21,18.12 34.23,18.1 34.26,18.09 C 34.44,18.06 34.55,17.95 34.59,17.76 A 0.1,0.1 0 0,0 34.56,17.66 L 34.2,17.32 A 0.08,0.08 0 0,0 34.13,17.3 A 0.08,0.08 0 0,0 34.07,17.34 L 33.48,18.23 C 33.46,18.26 33.47,18.28 33.51,18.29 H 33.55 C 33.58,18.3 33.61,18.29 33.63,18.27 L 33.91,17.93 Z M 35.13,18.26 C 35.15,18.26 35.16,18.27 35.16,18.28 L 35.18,18.32 A 0.09,0.09 0 0,1 35.17,18.39 C 35.01,18.62 34.91,18.89 34.87,19.17 V 19.2 C 34.87,19.22 34.89,19.22 34.9,19.23 A 0.05,0.05 0 0,0 34.96,19.19 L 35.32,18.23 A 0.13,0.13 0 0,0 35.27,18.08 A 0.13,0.13 0 0,0 35.12,18.08 C 34.87,18.27 34.6,18.46 34.3,18.65 C 34.25,18.68 34.25,18.71 34.29,18.75 H 34.37 A 4.7,4.7 0 0,0 35.07,18.27 H 35.13 Z" fill="rgb(181, 147, 67)"/>
<path d="M 20.919999999999998,15.225 L 21,15.31 C 21.03,15.34 21.06,15.37 21.07,15.41 C 21.23,15.77 21.42,16.11 21.65,16.42 C 21.83,16.68 21.92,16.94 22.05,17.22 C 21.44,17.83 22.17,18.74 22.85,18.2 C 23.11,18.35 23.27,18.54 23.32,18.78 A 9.98,9.98 0 0,0 19.4,22.62 A 0.07,0.07 0 0,0 19.45,22.68 H 19.49 A 0.5,0.5 0 0,0 19.81,22.39 C 19.97,22.06 20.48,21.51 20.85,21.02 A 7.24,7.24 0 0,1 22.96,19.43 C 23.44,20.14 23.88,20.89 24.27,21.67 C 24.49,22.12 24.85,22.52 25.07,23 C 25.24,23.35 25.51,23.6 25.67,23.96 C 25.86,24.34 26.13,24.77 26.4,25.11 C 26.53,25.27 26.65,25.46 26.76,25.67 C 26.65,25.92 26.66,26.02 26.81,25.99 L 25.68,28 A 34.62,34.62 0 0,1 23.9,24.66 A 0.05,0.05 0 0,0 23.85,24.66 C 23.84,24.66 23.83,24.66 23.83,24.68 L 23.8,24.74 C 23.77,24.71 23.75,24.7 23.73,24.71 C 23.68,24.71 23.66,24.74 23.65,24.79 L 23.5,25.95 C 23.05,25.98 21.95,25.85 21.62,25.5 A 1.27,1.27 0 0,0 21.04,25.16 C 20.21,24.92 19.39,24.67 18.57,24.41 C 18.34,24.34 18.12,24.15 17.9,24.05 C 17.61,23.91 17.33,23.74 17.07,23.52 C 17.27,23.12 17.42,22.66 17.5,22.13 C 17.5,22.1 17.5,22.09 17.46,22.11 L 17.35,22.19 L 17.33,22.13 C 17.31,22.1 17.28,22.09 17.24,22.12 C 16.83,22.45 16.5,22.82 16.27,23.24 A 0.85,0.85 0 0,1 15.97,23.46 A 0.14,0.14 0 0,1 15.84,23.44 C 15.74,23.38 15.6,23.41 15.43,23.53 C 15.37,23.38 15.31,23.33 15.23,23.38 L 15.13,23.32 C 15.03,23.15 14.49,23.28 14.2,23.07 A 14.78,14.78 0 0,1 20.93,15.24 Z M 21.4,17.81 A 0.13,0.13 0 0,0 21.26,17.77 A 0.13,0.13 0 0,0 21.22,17.79 L 20.91,18.05 A 0.13,0.13 0 0,0 20.89,18.24 L 21.47,18.94 A 0.13,0.13 0 0,0 21.57,18.99 A 0.13,0.13 0 0,0 21.65,18.96 L 21.96,18.7 A 0.13,0.13 0 0,0 21.98,18.51 L 21.4,17.81 Z M 20.39,19.53 C 20.52,19.63 20.68,19.69 20.87,19.71 H 20.88 L 20.89,19.69 A 0.02,0.02 0 0,0 20.89,19.66 A 9.46,9.46 0 0,0 19.73,19.07 A 0.12,0.12 0 0,0 19.64,19.11 A 0.12,0.12 0 0,0 19.62,19.15 A 0.24,0.24 0 0,0 19.64,19.35 A 14.63,14.63 0 0,1 20.14,20.26 H 20.18 A 0.06,0.06 0 0,0 20.2,20.19 L 20.08,19.89 V 19.83 C 20.08,19.81 20.1,19.79 20.11,19.78 A 0.34,0.34 0 0,0 20.28,19.56 C 20.3,19.5 20.33,19.48 20.38,19.53 Z" fill="rgb(207, 171, 77)"/>
<path d="M 28.09,15.854999999999999 C 28.3,16.37 28.18,16.71 27.75,16.87 L 27.31,16.83 C 27.25,16.83 27.21,16.79 27.21,16.73 L 27.19,15.76 C 27.19,15.72 27.21,15.69 27.26,15.68 C 27.6,15.59 27.88,15.66 28.1,15.88 Z M 27.38,15.93 L 27.4,16.59 A 0.13,0.13 0 0,0 27.48,16.71 H 27.57 A 0.52,0.52 0 0,0 27.91,16.58 L 28.01,16.43 A 0.4,0.4 0 0,0 28.04,16.26 V 16.23 A 0.4,0.4 0 0,0 28,16.06 A 0.44,0.44 0 0,0 27.89,15.92 A 0.49,0.49 0 0,0 27.54,15.8 H 27.5 A 0.12,0.12 0 0,0 27.39,15.88 L 27.38,15.93 Z M 30.17,16.17 A 8.14,8.14 0 0,1 29.7,16.93 A 0.1,0.1 0 0,1 29.58,16.86 L 29.48,16.15 A 0.05,0.05 0 0,0 29.44,16.1 L 29.41,16.11 L 29.39,16.14 C 29.34,16.39 29.28,16.62 29.22,16.84 C 29.2,16.88 29.17,16.9 29.12,16.89 C 29.08,16.88 29.06,16.85 29.07,16.81 L 29.33,15.78 A 0.1,0.1 0 0,1 29.43,15.71 A 0.1,0.1 0 0,1 29.51,15.78 L 29.7,16.54 V 16.56 H 29.73 A 0.04,0.04 0 0,0 29.77,16.55 L 30.12,15.91 A 0.14,0.14 0 0,1 30.28,15.84 A 0.14,0.14 0 0,1 30.38,15.98 A 5.85,5.85 0 0,1 30.22,17.06 A 0.09,0.09 0 0,1 30.08,17 A 0.1,0.1 0 0,1 30.08,16.97 L 30.21,16.21 C 30.21,16.18 30.21,16.17 30.17,16.17 Z M 26.87,16.71 A 0.24,0.24 0 0,0 26.65,16.44 A 0.28,0.28 0 0,0 26.35,16.66 L 26.29,16.95 A 0.06,0.06 0 0,1 26.23,16.99 H 26.18 A 0.06,0.06 0 0,1 26.12,16.94 V 16.92 L 26.34,15.85 A 0.14,0.14 0 0,1 26.46,15.74 A 0.14,0.14 0 0,1 26.61,15.82 L 27.07,16.77 A 0.09,0.09 0 0,1 27.05,16.87 A 0.09,0.09 0 0,1 26.95,16.88 C 26.89,16.85 26.86,16.79 26.87,16.71 Z M 26.51,16.05 C 26.41,16.13 26.38,16.24 26.43,16.39 A 0.12,0.12 0 0,0 26.63,16.42 A 0.12,0.12 0 0,0 26.65,16.34 L 26.61,16.09 C 26.59,16.03 26.56,16.02 26.51,16.05 Z" fill="rgb(91, 68, 32)"/>
<path d="M 27.369999999999997,15.915 A 0.13,0.13 0 0,1 27.42,15.83 A 0.12,0.12 0 0,1 27.5,15.8 H 27.54 A 0.52,0.52 0 0,1 27.89,15.92 C 27.93,15.96 27.97,16.01 27.99,16.06 A 0.4,0.4 0 0,1 28.04,16.23 V 16.26 A 0.4,0.4 0 0,1 28.01,16.43 A 0.44,0.44 0 0,1 27.91,16.58 A 0.52,0.52 0 0,1 27.57,16.72 H 27.53 A 0.12,0.12 0 0,1 27.43,16.68 A 0.12,0.12 0 0,1 27.4,16.59 L 27.38,15.93 Z" fill="rgb(171, 140, 66)"/>
<path d="M 30.75,16.995 L 31.06,17.06 L 31.09,17.19 A 0.1,0.1 0 0,1 31.09,17.24 L 31.08,17.26 A 0.05,0.05 0 0,1 31.02,17.27 L 30.5,17.07 A 0.06,0.06 0 0,1 30.47,17 L 30.73,16.04 C 30.75,15.97 30.79,15.94 30.86,15.97 L 31.35,16.1 A 0.06,0.06 0 0,1 31.39,16.13 A 0.06,0.06 0 0,1 31.39,16.18 L 31.35,16.24 C 31.33,16.27 31.31,16.27 31.29,16.27 L 30.98,16.17 C 30.93,16.17 30.9,16.17 30.88,16.23 L 30.69,16.91 A 0.08,0.08 0 0,0 30.76,17.01 Z" fill="rgb(91, 68, 32)"/>
<path d="M 26.59,16.085 L 26.65,16.34 C 26.65,16.37 26.65,16.4 26.63,16.42 A 0.12,0.12 0 0,1 26.56,16.47 A 0.11,0.11 0 0,1 26.43,16.39 C 26.38,16.24 26.41,16.13 26.52,16.05 C 26.56,16.02 26.59,16.03 26.61,16.09 Z" fill="rgb(171, 140, 66)"/>
<path d="M 25.049999999999997,16.865 L 24.54,16.68 A 0.23,0.23 0 0,1 24.39,16.46 C 24.4,16.27 24.72,15.97 24.93,16.1 L 24.95,16.12 V 16.15 A 0.05,0.05 0 0,1 24.93,16.19 L 24.64,16.31 A 0.13,0.13 0 0,0 24.56,16.44 A 0.13,0.13 0 0,0 24.65,16.56 C 24.84,16.62 25.08,16.63 25.2,16.81 C 25.37,17.08 25.06,17.31 24.82,17.37 A 0.15,0.15 0 0,1 24.69,17.35 C 24.64,17.32 24.62,17.28 24.65,17.23 A 0.08,0.08 0 0,1 24.73,17.18 C 24.89,17.18 25.01,17.12 25.09,17 A 0.08,0.08 0 0,0 25.09,16.9 L 25.06,16.88 Z M 31.59,17.29 C 31.69,17.27 31.78,17.29 31.85,17.35 L 31.88,17.41 A 0.09,0.09 0 0,1 31.82,17.51 H 31.76 L 31.36,17.36 A 0.1,0.1 0 0,1 31.3,17.3 A 0.11,0.11 0 0,1 31.3,17.22 L 31.62,16.3 A 0.08,0.08 0 0,1 31.7,16.24 L 31.74,16.26 L 31.77,16.3 C 31.77,16.34 31.77,16.38 31.75,16.42 C 31.65,16.68 31.56,16.94 31.51,17.22 C 31.51,17.28 31.53,17.3 31.59,17.29 Z M 23.97,16.34 L 23.95,16.35 A 0.08,0.08 0 0,0 23.91,16.45 L 24.27,17.44 C 24.29,17.48 24.33,17.5 24.37,17.48 H 24.39 A 0.08,0.08 0 0,0 24.43,17.38 L 24.07,16.38 A 0.08,0.08 0 0,0 23.97,16.34 Z" fill="rgb(91, 68, 32)"/>
<path d="M 37.06,16.355 L 37.77,16.93 C 37.79,16.98 37.75,17 37.67,17 L 36.99,16.42 C 37.04,16.41 37.06,16.39 37.07,16.37 Z" fill="rgb(123, 90, 40)"/>
<path d="M 30.889999999999997,16.605 C 30.86,16.56 30.88,16.52 30.94,16.51 L 31.12,16.46 A 0.11,0.11 0 0,1 31.26,16.56 V 16.62 C 31.18,16.82 31.06,16.82 30.91,16.62 Z M 23.02,17.1 C 23.16,17.33 23.28,17.58 23.37,17.86 C 23.39,17.89 23.37,17.91 23.32,17.92 A 0.08,0.08 0 0,1 23.24,17.87 L 22.82,16.93 A 0.1,0.1 0 0,1 22.84,16.81 A 0.1,0.1 0 0,1 22.97,16.81 L 23.74,17.31 A 0.05,0.05 0 0,0 23.8,17.31 A 0.05,0.05 0 0,0 23.8,17.26 L 23.5,16.68 A 0.08,0.08 0 0,1 23.48,16.62 C 23.48,16.6 23.5,16.59 23.51,16.58 A 0.37,0.37 0 0,0 23.54,16.55 C 23.58,16.49 23.62,16.5 23.64,16.56 L 24.05,17.49 A 0.11,0.11 0 0,1 24.02,17.62 A 0.1,0.1 0 0,1 23.89,17.62 L 23.09,17.05 H 23.03 A 0.04,0.04 0 0,0 23.03,17.11 Z M 32.57,16.55 H 32.55 A 0.08,0.08 0 0,0 32.45,16.58 L 32.06,17.53 C 32.05,17.57 32.06,17.62 32.1,17.63 L 32.12,17.64 C 32.16,17.66 32.21,17.64 32.22,17.6 L 32.62,16.65 A 0.08,0.08 0 0,0 32.57,16.55 Z" fill="rgb(91, 68, 32)"/>
<path d="M 40.52,17.974999999999998 L 40.46,18.08 L 39.19,16.64 C 39.19,16.6 39.21,16.58 39.22,16.56 C 39.26,16.52 39.29,16.52 39.32,16.56 L 40.53,17.99 Z" fill="rgb(155, 128, 60)"/>
<path d="M 32.85,17.974999999999998 A 0.52,0.52 0 0,1 32.58,17.66 A 0.68,0.68 0 0,1 32.74,17 C 32.79,16.94 32.86,16.9 32.92,16.86 A 0.54,0.54 0 0,1 33.14,16.81 A 0.5,0.5 0 0,1 33.34,16.85 C 33.48,16.91 33.58,17.03 33.64,17.17 C 33.68,17.32 33.67,17.49 33.6,17.64 A 0.68,0.68 0 0,1 33.47,17.84 A 0.62,0.62 0 0,1 33.29,17.97 A 0.54,0.54 0 0,1 33.07,18.03 A 0.49,0.49 0 0,1 32.87,17.99 Z M 32.88,17.82 A 0.3,0.3 0 0,0 33.02,17.86 C 33.07,17.86 33.12,17.86 33.17,17.83 A 0.5,0.5 0 0,0 33.32,17.73 A 0.59,0.59 0 0,0 33.5,17.25 C 33.49,17.19 33.47,17.15 33.44,17.1 A 0.3,0.3 0 0,0 33.2,16.96 C 33.14,16.96 33.1,16.96 33.04,16.99 A 0.5,0.5 0 0,0 32.9,17.09 A 0.58,0.58 0 0,0 32.71,17.57 C 32.72,17.63 32.74,17.67 32.77,17.72 A 0.3,0.3 0 0,0 32.87,17.82 Z" fill="rgb(91, 68, 32)"/>
<path d="M 37.760000000000005,16.915 C 38.67,17.7 39.44,18.56 40.07,19.52 C 40.27,20.02 40.57,20.49 40.93,20.93 A 14.63,14.63 0 0,1 41.59,33.52 C 41.39,33.37 41.22,33.33 41.07,33.4 C 41.05,33.4 41.05,33.4 41.05,33.38 A 0.8,0.8 0 0,0 41.05,33.33 C 41.05,33.3 41.05,33.3 41.02,33.32 L 40.99,33.35 C 40.97,33.37 40.95,33.37 40.93,33.35 L 40.68,33.1 L 41.08,32.44 C 41.12,32.39 41.1,32.36 41.05,32.36 L 40.98,32.39 V 32.33 L 40.93,32.32 C 40.18,32.25 39.66,32.82 39.25,33.36 C 39.22,33.41 39.13,33.45 39.01,33.47 C 39.24,32.87 39.31,32.09 38.7,31.69 C 38.69,31.65 38.64,31.63 38.55,31.63 C 38.55,31.59 38.54,31.56 38.49,31.55 C 38.41,31.54 38.37,31.55 38.35,31.61 C 38.22,31.63 38.14,31.59 38.08,31.49 A 0.33,0.33 0 0,0 37.99,31.39 L 37.77,31.24 A 0.25,0.25 0 0,0 37.66,31.19 A 0.8,0.8 0 0,1 37.18,30.96 A 0.21,0.21 0 0,0 37.08,30.9 C 36.26,30.7 35.45,30.43 34.67,30.1 C 34.22,29.9 33.66,30.15 33.31,29.8 C 33.02,29.5 32.94,29.35 32.55,29.44 A 0.2,0.2 0 0,1 32.42,29.44 C 32.02,29.26 31.67,29.05 31.23,28.95 A 8.08,8.08 0 0,1 30.29,28.68 C 29.99,28.58 29.72,28.54 29.41,28.48 V 25.76 L 29.42,25.71 A 0.07,0.07 0 0,1 29.54,25.74 C 29.56,25.83 29.61,25.91 29.69,25.99 C 30.69,27.01 31.66,28.06 32.59,29.15 C 32.66,29.23 32.71,29.22 32.74,29.12 C 32.76,29.03 32.78,28.92 32.77,28.76 C 32.77,27.43 32.78,26.11 32.83,24.78 C 32.83,24.73 32.8,24.7 32.73,24.7 C 32.76,24.53 32.85,24.4 33.02,24.3 C 33.99,23.72 34.96,23.1 35.9,22.45 C 35.92,22.51 35.99,22.58 36.1,22.65 A 0.16,0.16 0 0,0 36.35,22.55 C 36.35,22.52 36.35,22.48 36.33,22.45 L 36.16,22.15 C 37.52,21.41 38.14,20.85 39.14,20.14 C 39.18,20.11 39.2,20.12 39.2,20.17 V 20.22 C 39.2,20.26 39.21,20.27 39.24,20.24 L 39.82,19.77 A 0.27,0.27 0 0,0 39.87,19.4 A 13.89,13.89 0 0,0 37.67,17 C 37.75,17 37.79,16.98 37.77,16.93 Z M 38.49,22.3 L 38.42,22.46 A 0.2,0.2 0 0,0 38.41,22.58 A 3.21,3.21 0 0,0 39.59,24.56 A 0.06,0.06 0 0,0 39.66,24.51 C 39.76,23.58 39.46,22.83 38.75,22.27 A 0.18,0.18 0 0,0 38.63,22.22 H 38.56 C 38.56,22.16 38.53,22.12 38.46,22.1 A 0.08,0.08 0 0,0 38.4,22.11 A 0.08,0.08 0 0,0 38.37,22.17 C 38.37,22.24 38.41,22.28 38.49,22.3 Z M 40.65,23.45 C 40.6,23.37 40.54,23.35 40.48,23.42 A 1.94,1.94 0 0,0 40.01,25.23 C 40.01,25.27 40.06,25.28 40.15,25.26 L 40.07,25.59 A 0.1,0.1 0 0,0 40.12,25.69 A 0.1,0.1 0 0,0 40.23,25.69 C 41.06,25.05 40.96,24.36 40.78,23.43 C 40.78,23.39 40.75,23.37 40.71,23.39 C 40.69,23.39 40.67,23.42 40.65,23.45 Z M 38.17,24.5 A 0.1,0.1 0 0,0 38.13,24.51 C 38.1,24.52 38.09,24.55 38.1,24.58 C 38.38,25.18 39.15,26 39.84,25.75 C 39.88,25.74 39.89,25.71 39.89,25.67 C 39.78,25.13 39.53,24.79 39.16,24.63 A 1.27,1.27 0 0,0 38.14,24.38 C 38.08,24.39 38.07,24.42 38.11,24.46 C 38.11,24.48 38.14,24.49 38.17,24.5 Z M 40.41,27.36 C 41.34,27.06 41.51,26.13 41.39,25.26 C 41.39,25.22 41.36,25.21 41.31,25.24 C 40.78,25.62 40.51,26.14 40.51,26.81 C 40.51,26.99 40.47,27.13 40.34,27.23 A 0.08,0.08 0 0,0 40.36,27.36 H 40.41 Z M 38.57,25.88 C 38.63,26.41 39,26.8 39.31,27.19 C 39.34,27.23 39.37,27.25 39.41,27.26 L 40.01,27.37 A 0.2,0.2 0 0,0 40.21,27.3 A 0.2,0.2 0 0,0 40.21,27.09 L 39.69,26.14 C 39.66,26.1 39.63,26.09 39.59,26.11 C 39.51,26.14 39.44,26.14 39.4,26.12 C 39.46,26.02 39.44,25.95 39.33,25.88 C 39.06,25.72 38.81,25.72 38.57,25.88 Z M 41.67,27 C 41.51,27 41.37,27.06 41.23,27.16 C 40.69,27.56 40.57,28.01 40.39,28.64 L 40.27,28.6 A 0.13,0.13 0 0,1 40.18,28.5 C 40.12,28.2 39.99,27.91 39.81,27.66 A 0.1,0.1 0 0,0 39.74,27.62 L 38.93,27.46 C 38.87,27.45 38.85,27.47 38.86,27.53 C 38.96,28.27 39.36,28.76 40.06,29 C 40.12,29.02 40.16,29 40.18,28.96 L 40.32,28.72 C 40.33,28.77 40.37,28.82 40.44,28.83 C 40.33,28.89 40.34,28.95 40.47,28.99 A 0.1,0.1 0 0,0 40.53,28.99 C 40.97,28.87 41.3,28.59 41.53,28.17 C 41.67,27.87 41.72,27.49 41.66,27 Z M 39,28.97 C 38.87,29.81 39.18,30.33 39.94,30.55 C 40.01,30.57 40.06,30.55 40.09,30.46 C 40.1,30.49 40.14,30.5 40.2,30.5 L 40.17,30.56 C 40.17,30.6 40.18,30.62 40.22,30.62 C 41.18,30.66 41.64,29.7 41.75,28.89 L 41.74,28.83 H 41.66 C 41.63,28.77 41.59,28.75 41.53,28.77 A 2.14,2.14 0 0,0 40.29,30.12 L 40.1,30.29 C 40.05,29.88 39.93,28.98 39.42,28.99 C 39.42,28.87 39.38,28.8 39.3,28.79 L 39.23,28.78 A 0.95,0.95 0 0,0 38.93,28.7 C 38.88,28.7 38.85,28.72 38.85,28.77 C 38.85,28.92 38.9,28.99 39,28.97 Z M 38.8,30.87 C 38.65,31.3 38.85,31.7 39.4,32.05 A 0.12,0.12 0 0,0 39.58,31.99 C 39.83,31.19 39.66,30.63 39.08,30.33 C 39.03,30.19 38.94,30.13 38.78,30.18 A 0.13,0.13 0 0,0 38.7,30.25 C 38.59,30.48 38.62,30.68 38.8,30.86 Z M 39.87,32.07 L 39.79,32.17 A 0.07,0.07 0 0,0 39.79,32.24 A 0.07,0.07 0 0,0 39.85,32.28 A 1.9,1.9 0 0,0 41.53,30.67 C 41.53,30.62 41.52,30.6 41.47,30.62 A 0.19,0.19 0 0,0 41.4,30.67 A 0.1,0.1 0 0,0 41.39,30.61 C 41.37,30.58 41.34,30.57 41.31,30.59 A 0.36,0.36 0 0,1 41.06,30.66 A 0.2,0.2 0 0,0 40.93,30.69 C 40.41,30.99 40.04,31.41 39.82,31.97 C 39.8,32 39.82,32.03 39.84,32.05 L 39.87,32.07 Z" fill="rgb(155, 128, 60)"/>
<path d="M 32.77,17.215 C 32.66,17.45 32.7,17.73 32.88,17.83 C 33.05,17.93 33.3,17.83 33.43,17.59 C 33.56,17.37 33.52,17.09 33.33,16.99 C 33.16,16.89 32.91,16.99 32.78,17.23 Z" fill="rgb(185, 154, 62)"/>
<path d="M 22.84,18.185 C 22.17,18.74 21.44,17.83 22.05,17.22 C 22.71,17.1 22.98,17.43 22.85,18.2 Z M 22.59,18.18 A 0.36,0.36 0 0,0 22.75,17.93 A 0.55,0.55 0 0,0 22.57,17.45 A 0.48,0.48 0 0,0 22.43,17.35 A 0.38,0.38 0 0,0 22.27,17.33 A 0.36,0.36 0 0,0 21.96,17.63 C 21.94,17.74 21.96,17.87 22.03,17.97 C 22.06,18.03 22.09,18.07 22.14,18.11 C 22.18,18.15 22.24,18.18 22.29,18.2 C 22.34,18.22 22.39,18.23 22.44,18.22 C 22.5,18.22 22.54,18.21 22.59,18.18 Z" fill="rgb(91, 68, 32)"/>
<path d="M 22.02,17.955 C 22.15,18.19 22.41,18.29 22.59,18.18 C 22.77,18.08 22.82,17.81 22.69,17.58 C 22.56,17.36 22.31,17.27 22.12,17.38 C 21.94,17.48 21.9,17.75 22.02,17.98 Z" fill="rgb(185, 154, 62)"/>
<path d="M 34.06,17.905 C 34.22,18.01 34.34,17.98 34.42,17.84 A 0.22,0.22 0 0,0 34.37,17.56 A 0.22,0.22 0 0,0 34.09,17.56 C 34.03,17.6 33.97,17.73 33.91,17.93 L 33.63,18.27 A 0.08,0.08 0 0,1 33.55,18.3 L 33.51,18.29 C 33.47,18.29 33.46,18.26 33.48,18.23 L 34.08,17.33 A 0.08,0.08 0 0,1 34.2,17.33 L 34.56,17.67 A 0.1,0.1 0 0,1 34.59,17.76 C 34.55,17.95 34.44,18.06 34.26,18.09 C 34.23,18.09 34.21,18.12 34.21,18.16 A 0.97,0.97 0 0,1 34.09,18.62 A 0.06,0.06 0 0,1 33.99,18.6 A 0.06,0.06 0 0,1 33.99,18.55 C 34.07,18.35 34.09,18.15 34.07,17.92 Z" fill="rgb(91, 68, 32)"/>
<path d="M 34.06,17.905 C 34.03,17.95 33.97,17.95 33.91,17.93 C 33.97,17.73 34.03,17.6 34.09,17.55 A 0.22,0.22 0 0,1 34.45,17.69 C 34.45,17.74 34.45,17.79 34.42,17.84 C 34.33,17.98 34.22,18.01 34.07,17.92 Z" fill="rgb(185, 154, 62)"/>
<path d="M 27.709999999999997,17.625 A 9.68,9.68 0 0,1 36.16,22.15 L 36.33,22.45 A 0.16,0.16 0 0,1 36.29,22.65 A 0.16,0.16 0 0,1 36.1,22.65 C 35.99,22.58 35.92,22.51 35.9,22.45 A 9.43,9.43 0 0,0 23.57,19.03 C 23.43,19.1 23.23,19.23 22.96,19.43 C 22.37,19.76 21.35,20.36 20.86,21.03 C 20.48,21.51 19.97,22.06 19.81,22.39 A 0.5,0.5 0 0,1 19.48,22.69 A 0.07,0.07 0 0,1 19.4,22.62 V 22.58 A 9.98,9.98 0 0,1 23.32,18.78 C 24.68,18.08 26.15,17.69 27.72,17.64 Z M 21.98,18.51 A 0.13,0.13 0 0,1 21.96,18.7 L 21.66,18.96 A 0.13,0.13 0 0,1 21.51,18.97 A 0.13,0.13 0 0,1 21.47,18.94 L 20.89,18.24 A 0.13,0.13 0 0,1 20.91,18.05 L 21.21,17.79 A 0.13,0.13 0 0,1 21.4,17.81 L 21.98,18.51 Z M 21.46,18.21 A 0.1,0.1 0 0,0 21.48,18.11 A 0.1,0.1 0 0,0 21.46,18.07 L 21.32,17.94 A 0.1,0.1 0 0,0 21.22,17.92 A 0.1,0.1 0 0,0 21.19,17.95 L 21.03,18.11 A 0.1,0.1 0 0,0 21,18.18 A 0.1,0.1 0 0,0 21.03,18.25 L 21.17,18.38 A 0.1,0.1 0 0,0 21.27,18.4 A 0.1,0.1 0 0,0 21.31,18.38 L 21.46,18.21 Z M 21.65,18.35 A 0.1,0.1 0 0,0 21.58,18.32 A 0.1,0.1 0 0,0 21.51,18.35 L 21.36,18.5 A 0.1,0.1 0 0,0 21.33,18.56 A 0.1,0.1 0 0,0 21.36,18.63 L 21.51,18.79 A 0.1,0.1 0 0,0 21.58,18.82 A 0.1,0.1 0 0,0 21.65,18.79 L 21.8,18.65 A 0.1,0.1 0 0,0 21.82,18.54 A 0.1,0.1 0 0,0 21.8,18.51 L 21.65,18.35 Z" fill="rgb(123, 90, 40)"/>
<path d="M 21.45,18.055 L 21.32,17.94 A 0.1,0.1 0 0,0 21.19,17.94 L 21.03,18.11 A 0.1,0.1 0 0,0 21.03,18.25 L 21.17,18.38 C 21.21,18.42 21.27,18.41 21.31,18.38 L 21.46,18.21 A 0.1,0.1 0 0,0 21.46,18.07 Z" fill="rgb(207, 171, 77)"/>
<path d="M 27.389999999999997,17.995 A 0.13,0.13 0 0,1 27.33,18.04 C 27.3,18.04 27.3,18.06 27.33,18.07 L 27.4,18.09 C 27.44,18.1 27.45,18.13 27.43,18.17 C 27.21,18.47 27.62,19.38 27.8,19.63 L 27.3,21.15 A 0.1,0.1 0 0,1 27.2,21.22 C 26.97,21.22 26.53,21.22 25.87,21.2 C 25.73,21.2 25.67,21.24 25.71,21.33 H 25.66 C 25.6,21.34 25.59,21.36 25.64,21.4 L 26.97,22.43 C 26.72,22.89 26.55,23.4 26.47,23.97 L 26.37,24.12 C 26.36,24.15 26.37,24.18 26.4,24.19 H 26.46 C 26.76,24.71 26.86,25.19 26.76,25.67 C 26.66,25.46 26.53,25.27 26.4,25.11 A 5.77,5.77 0 0,1 25.68,23.96 C 25.51,23.6 25.24,23.35 25.08,23 C 24.85,22.52 24.49,22.12 24.28,21.67 C 23.88,20.89 23.44,20.14 22.96,19.43 C 23.23,19.23 23.44,19.1 23.57,19.03 C 24.77,18.43 26.05,18.09 27.4,18.01 Z" fill="rgb(155, 128, 60)"/>
<path d="M 27.389999999999997,17.995 A 9.43,9.43 0 0,1 35.9,22.45 C 34.95,23.1 34,23.72 33.02,24.3 A 0.52,0.52 0 0,0 32.74,24.7 A 0.1,0.1 0 0,1 32.69,24.74 C 32.69,24.64 32.64,24.6 32.53,24.62 A 0.16,0.16 0 0,0 32.39,24.79 C 32.46,25.79 32.46,26.83 32.39,27.89 A 49.61,49.61 0 0,1 29.41,24.75 A 0.4,0.4 0 0,0 29.21,24.65 C 29.21,24.61 29.19,24.59 29.18,24.59 A 0.09,0.09 0 0,0 29.07,24.64 A 19.38,19.38 0 0,1 28.92,28.47 A 1.71,1.71 0 0,0 28.12,28.03 L 27.7,24.5 L 26.8,25.99 C 26.66,26.02 26.65,25.92 26.76,25.67 C 26.86,25.2 26.76,24.71 26.46,24.19 L 27.82,23.16 A 0.16,0.16 0 0,1 28.02,23.16 L 29.43,24.23 H 29.49 A 0.04,0.04 0 0,0 29.5,24.18 L 28.95,22.43 V 22.38 L 28.98,22.34 L 30.38,21.34 C 30.43,21.3 30.43,21.27 30.38,21.24 C 30.35,21.23 30.3,21.24 30.25,21.28 C 30.25,21.23 30.25,21.21 30.22,21.21 C 29.67,21.26 29.12,21.26 28.57,21.21 A 20.25,20.25 0 0,1 28.04,19.61 C 27.98,19.57 27.95,19.56 27.94,19.61 A 0.22,0.22 0 0,0 27.8,19.63 C 27.62,19.38 27.2,18.47 27.42,18.17 C 27.45,18.13 27.44,18.1 27.4,18.09 L 27.33,18.07 C 27.3,18.06 27.3,18.05 27.33,18.04 C 27.36,18.04 27.38,18.02 27.4,18.01 Z" fill="rgb(181, 147, 67)"/>
<path d="M 40.52,17.974999999999998 A 16.04,16.04 0 0,1 41.6,36.5 A 15.34,15.34 0 0,1 35.93,41.9 L 34.01,42.86 A 16.84,16.84 0 0,1 24.78,43.65 C 22.48,43.17 20.38,42.25 18.48,40.86 C 18.51,40.74 18.55,40.66 18.62,40.66 A 16.16,16.16 0 0,0 35.48,41.83 A 16,16 0 0,0 42.12,35.06 C 44.84,29.56 44.12,22.98 40.47,18.08 L 40.54,17.98 Z" fill="rgb(123, 90, 40)"/>
<path d="M 35.120000000000005,18.245 H 35.08 A 4.71,4.71 0 0,1 34.37,18.74 A 0.06,0.06 0 0,1 34.29,18.74 C 34.25,18.71 34.25,18.68 34.29,18.65 A 13.2,13.2 0 0,0 35.19,18.05 A 0.13,0.13 0 0,1 35.32,18.15 V 18.23 L 34.96,19.19 A 0.05,0.05 0 0,1 34.9,19.23 A 0.05,0.05 0 0,1 34.86,19.17 A 1.83,1.83 0 0,1 35.18,18.35 V 18.32 A 0.08,0.08 0 0,0 35.13,18.26 Z" fill="rgb(91, 68, 32)"/>
<path d="M 21.5,18.335 L 21.36,18.5 A 0.1,0.1 0 0,0 21.36,18.63 L 21.51,18.79 C 21.55,18.83 21.61,18.83 21.64,18.79 L 21.8,18.65 A 0.1,0.1 0 0,0 21.8,18.51 L 21.65,18.35 A 0.1,0.1 0 0,0 21.51,18.35 Z" fill="rgb(207, 171, 77)"/>
<path d="M 20.27,19.544999999999998 A 0.34,0.34 0 0,1 20.11,19.78 A 0.08,0.08 0 0,0 20.07,19.83 V 19.89 L 20.2,20.19 A 0.06,0.06 0 0,1 20.17,20.26 H 20.13 A 14.54,14.54 0 0,0 19.63,19.35 A 0.24,0.24 0 0,1 19.62,19.15 A 0.12,0.12 0 0,1 19.73,19.07 L 19.78,19.08 A 9.45,9.45 0 0,1 20.89,19.69 A 0.02,0.02 0 0,1 20.87,19.71 A 0.92,0.92 0 0,1 20.38,19.53 C 20.33,19.48 20.3,19.5 20.28,19.56 Z M 20.14,19.45 L 19.84,19.27 C 19.78,19.23 19.75,19.24 19.77,19.32 C 19.8,19.42 19.85,19.52 19.92,19.59 C 19.96,19.63 20,19.65 20.05,19.64 C 20.12,19.64 20.15,19.59 20.16,19.5 V 19.47 A 0.06,0.06 0 0,0 20.14,19.45 Z" fill="rgb(123, 90, 40)"/>
<path d="M 20.13,19.435 L 20.16,19.47 V 19.5 C 20.16,19.59 20.12,19.64 20.05,19.64 C 20,19.64 19.96,19.63 19.92,19.59 A 0.54,0.54 0 0,1 19.77,19.32 C 19.76,19.24 19.77,19.22 19.84,19.27 L 20.14,19.45 Z" fill="rgb(226, 197, 122)"/>
<path d="M 40.050000000000004,19.505 C 40.41,19.96 40.7,20.43 40.93,20.93 A 6.03,6.03 0 0,1 40.06,19.52 Z" fill="rgb(123, 90, 40)"/>
<path d="M 28.56,21.185 L 28.52,21.27 A 0.07,0.07 0 0,0 28.54,21.37 H 28.58 C 29.14,21.37 29.71,21.47 30.25,21.27 C 30.3,21.24 30.35,21.23 30.38,21.25 C 30.43,21.27 30.43,21.3 30.38,21.33 L 28.98,22.34 A 0.08,0.08 0 0,0 28.95,22.38 V 22.43 L 29.5,24.18 A 0.04,0.04 0 0,1 29.46,24.24 L 29.43,24.23 L 28.01,23.16 A 0.16,0.16 0 0,0 27.82,23.16 L 26.46,24.19 H 26.4 C 26.36,24.18 26.36,24.15 26.38,24.12 L 26.48,23.97 C 26.8,23.44 26.96,22.93 26.98,22.43 L 25.64,21.4 C 25.59,21.36 25.6,21.34 25.65,21.34 H 25.71 C 25.94,21.44 26.17,21.35 26.38,21.37 C 26.65,21.39 27.33,21.47 27.46,21.19 C 27.59,20.91 27.76,20.39 27.95,19.61 C 27.95,19.56 27.98,19.57 28.05,19.61 L 28.08,19.69 C 28.23,20.2 28.38,20.71 28.57,21.21 Z" fill="rgb(91, 68, 32)"/>
<path d="M 27.79,19.615 C 27.84,19.61 27.9,19.6 27.95,19.61 C 27.75,20.39 27.59,20.91 27.46,21.19 S 26.65,21.39 26.38,21.37 C 26.17,21.35 25.94,21.44 25.71,21.33 C 25.67,21.24 25.73,21.2 25.87,21.2 A 28.36,28.36 0 0,0 27.27,21.2 A 0.1,0.1 0 0,0 27.3,21.15 L 27.8,19.63 Z M 28.57,21.2 C 29.11,21.26 29.67,21.26 30.21,21.21 C 30.24,21.21 30.25,21.23 30.25,21.28 C 29.71,21.47 29.14,21.36 28.57,21.38 C 28.57,21.38 28.55,21.38 28.54,21.36 A 0.07,0.07 0 0,1 28.52,21.27 L 28.57,21.21 Z" fill="rgb(226, 197, 122)"/>
<path d="M 14.32,22.134999999999998 A 14.27,14.27 0 0,0 16.26,36.95 A 16.03,16.03 0 0,0 21.72,41.23 A 0.28,0.28 0 0,0 21.62,41.31 A 0.08,0.08 0 0,0 21.62,41.37 A 0.07,0.07 0 0,0 21.65,41.42 A 14.95,14.95 0 0,0 34.86,41.17 C 34.93,41.14 34.98,41.15 35.02,41.21 C 35.15,41.37 35.19,41.54 35.15,41.73 C 35.15,41.78 35.16,41.8 35.21,41.79 C 35.31,41.78 35.4,41.79 35.47,41.83 A 16.16,16.16 0 0,1 18.61,40.66 A 16.36,16.36 0 0,1 12.49,31.73 C 11.9,29.63 11.88,27.43 12.23,25.3 C 12.27,25.33 12.31,25.34 12.37,25.3 A 0.14,0.14 0 0,0 12.44,25.2 A 15.56,15.56 0 0,1 13.59,21.63 A 0.05,0.05 0 0,1 13.64,21.63 L 13.65,21.66 C 13.67,21.76 13.72,21.82 13.82,21.84 A 0.07,0.07 0 0,1 13.88,21.88 A 0.08,0.08 0 0,1 13.88,21.95 C 13.84,22.01 13.84,22.07 13.87,22.11 C 13.97,22.27 14.13,22.28 14.33,22.15 Z" fill="rgb(185, 154, 62)"/>
<path d="M 17.06,23.505 A 3.45,3.45 0 0,1 16.18,24.54 H 16.16 A 0.05,0.05 0 0,1 16.13,24.5 C 16.13,24.45 16.15,24.38 16.2,24.3 C 16.3,24.21 16.34,24.12 16.31,24.02 C 16.41,24.02 16.49,24 16.54,23.94 C 16.96,23.51 17.18,23 17.19,22.42 L 17.35,22.19 L 17.46,22.11 C 17.49,22.09 17.5,22.1 17.5,22.13 C 17.42,22.66 17.28,23.12 17.07,23.52 Z" fill="rgb(91, 68, 32)"/>
<path d="M 17.33,22.185 L 17.19,22.42 C 16.61,22.82 16.32,23.36 16.31,24.02 C 16.34,24.12 16.31,24.22 16.21,24.29 C 16.14,24.29 16.11,24.25 16.08,24.14 C 16.05,23.94 16.2,23.48 16.28,23.24 C 16.5,22.82 16.83,22.45 17.24,22.12 C 17.28,22.09 17.31,22.1 17.33,22.13 L 17.34,22.19 Z" fill="rgb(226, 197, 122)"/>
<path d="M 38.54,22.205 A 0.19,0.19 0 0,1 38.49,22.3 C 38.41,22.28 38.36,22.24 38.37,22.17 V 22.14 A 0.08,0.08 0 0,1 38.47,22.1 C 38.53,22.12 38.57,22.16 38.55,22.22 Z" fill="rgb(207, 171, 77)"/>
<path d="M 38.550000000000004,22.205 H 38.63 C 38.67,22.22 38.71,22.24 38.75,22.27 A 2.37,2.37 0 0,1 39.65,24.54 A 0.06,0.06 0 0,1 39.59,24.56 L 39.56,24.55 C 38.94,24.04 38.56,23.38 38.41,22.58 V 22.46 L 38.49,22.3 A 0.19,0.19 0 0,0 38.56,22.22 Z" fill="rgb(91, 68, 32)"/>
<path d="M 26.959999999999997,22.415 C 26.97,22.93 26.8,23.44 26.47,23.97 C 26.56,23.4 26.72,22.89 26.97,22.43 Z" fill="rgb(226, 197, 122)"/>
<path d="M 17.189999999999998,22.405 A 2.21,2.21 0 0,1 16.55,23.94 A 0.31,0.31 0 0,1 16.31,24.02 C 16.31,23.36 16.61,22.82 17.19,22.42 Z" fill="rgb(123, 90, 40)"/>
<path d="M 14.19,23.055 C 14.5,23.27 15.03,23.15 15.13,23.32 C 14.88,23.78 14.82,24.25 14.96,24.72 L 14.93,24.85 A 0.2,0.2 0 0,0 14.93,24.97 C 15.07,25.27 15.28,25.5 15.55,25.67 A 0.13,0.13 0 0,0 15.69,25.67 A 0.3,0.3 0 0,0 15.81,25.52 C 15.81,25.58 15.86,25.62 15.95,25.62 C 15.91,25.68 15.9,25.72 15.91,25.77 C 15.92,25.81 15.95,25.83 15.99,25.82 A 2.3,2.3 0 0,0 17.72,24.51 C 17.75,24.47 17.73,24.44 17.69,24.42 C 17.61,24.39 17.59,24.4 17.62,24.46 C 16.87,24.16 16.34,24.74 16.04,25.33 A 0.11,0.11 0 0,1 15.94,25.39 A 0.17,0.17 0 0,0 15.85,25.43 A 0.7,0.7 0 0,1 15.82,25.03 A 1.89,1.89 0 0,0 15.42,23.53 C 15.6,23.41 15.74,23.38 15.85,23.44 C 15.88,23.47 15.92,23.47 15.96,23.46 C 16.05,23.43 16.15,23.36 16.27,23.24 C 16.2,23.48 16.05,23.94 16.09,24.14 C 16.1,24.25 16.14,24.3 16.21,24.29 C 16.15,24.38 16.13,24.45 16.13,24.49 V 24.52 L 16.16,24.54 A 0.05,0.05 0 0,0 16.21,24.54 C 16.53,24.29 16.81,23.94 17.07,23.52 C 17.33,23.74 17.61,23.92 17.9,24.05 C 18.12,24.15 18.35,24.34 18.57,24.41 C 19.39,24.67 20.21,24.91 21.04,25.16 C 21.28,25.23 21.48,25.34 21.62,25.5 C 21.95,25.84 23.05,25.98 23.5,25.95 C 23.4,26.92 23.25,27.88 23.08,28.83 C 23.08,28.88 23.08,28.93 23.12,28.96 L 23.07,29.01 C 23.03,29.06 23.04,29.09 23.11,29.09 H 23.44 C 23.48,29.09 23.51,29.07 23.51,29.02 L 23.83,25.96 A 0.05,0.05 0 0,1 23.87,25.91 A 0.05,0.05 0 0,1 23.92,25.94 L 25.5,29.07 C 25.53,29.13 25.56,29.13 25.6,29.07 L 26.45,27.29 C 26.7,27.46 26.99,27.58 27.33,27.64 C 27.39,27.65 27.44,27.68 27.48,27.73 C 27.51,27.77 27.53,27.83 27.53,27.89 C 27.52,28.16 27.36,28.8 27.69,28.93 A 0.18,0.18 0 0,0 27.62,29.05 C 27.62,29.09 27.63,29.12 27.68,29.12 L 28.26,29.14 C 28.33,29.24 28.41,29.34 28.52,29.41 C 28.55,29.43 28.57,29.46 28.59,29.51 C 28.65,29.74 28.87,29.94 29.27,30.13 L 22.69,30.2 C 22.55,30.2 22.41,30.22 22.27,30.26 C 22.17,30.28 22.16,30.34 22.21,30.42 C 22.2,30.45 22.21,30.5 22.27,30.57 A 0.6,0.6 0 0,0 21.94,30.73 A 0.01,0.01 0 0,1 21.92,30.73 V 30.69 C 21.9,30.65 21.88,30.63 21.83,30.64 C 21.25,30.75 20.93,31.1 20.39,31.29 C 20.09,31.39 19.84,31.55 19.63,31.74 C 19.55,31.51 19.43,31.4 19.23,31.41 A 0.13,0.13 0 0,0 19.13,31.47 A 0.13,0.13 0 0,0 19.12,31.59 L 19.35,32.06 L 18.15,32.56 A 0.3,0.3 0 0,0 18.05,32.63 A 0.34,0.34 0 0,1 17.89,32.73 C 17.37,33.21 17.2,33.65 17.39,34.03 C 17.28,34.28 17.36,34.56 17.65,34.89 C 17.6,34.94 17.55,34.99 17.47,35.01 C 17.26,34.64 16.97,34.39 16.6,34.28 C 16.28,33.9 15.88,33.8 15.4,33.96 L 15.37,33.97 A 0.06,0.06 0 0,0 15.37,34.05 C 15.4,34.09 15.48,34.11 15.6,34.1 C 15.42,34.12 15.35,34.15 15.4,34.2 A 1.4,1.4 0 0,0 14.76,34.28 A 14.69,14.69 0 0,1 14.2,23.07 Z M 14.4,25.87 C 14.3,25.94 14.27,26.05 14.33,26.21 C 14.46,26.55 14.97,27.41 15.35,27.32 C 15.38,27.32 15.41,27.3 15.43,27.27 C 15.46,27.24 15.46,27.21 15.43,27.17 C 15.4,27.13 15.39,27.1 15.43,27.08 A 0.08,0.08 0 0,0 15.46,27 C 15.43,26.6 15.42,26.1 15.24,25.77 C 15.09,25.49 14.89,25.33 14.62,25.28 C 14.63,25.15 14.6,25.1 14.52,25.11 A 0.05,0.05 0 0,0 14.49,25.14 C 14.39,25.37 14.36,25.61 14.39,25.87 Z M 15.68,27.23 A 0.17,0.17 0 0,0 15.65,27.35 C 15.65,27.4 15.68,27.41 15.72,27.4 A 1.99,1.99 0 0,0 17.26,25.83 L 17.25,25.81 A 0.03,0.03 0 0,0 17.21,25.81 L 17.11,25.86 C 16.36,25.5 15.86,26.58 15.64,27.09 C 15.6,27.18 15.61,27.22 15.68,27.23 Z M 14.24,27.24 L 14.29,27.68 C 14.29,27.73 14.27,27.75 14.22,27.75 A 0.1,0.1 0 0,0 14.19,27.75 C 14.14,27.76 14.13,27.79 14.14,27.84 C 14.31,28.43 14.68,28.82 15.24,29.02 A 0.13,0.13 0 0,0 15.34,29.02 A 0.13,0.13 0 0,0 15.41,28.94 L 15.46,28.77 C 15.45,28.87 15.46,28.91 15.52,28.89 C 15.46,28.98 15.5,29.02 15.62,29.02 H 15.68 C 16.42,28.71 16.86,28.16 16.99,27.36 C 16.99,27.32 16.99,27.3 16.95,27.3 H 16.88 C 15.94,27.27 15.76,28.11 15.48,28.82 C 15.28,28.27 15.18,27.67 14.76,27.29 A 0.1,0.1 0 0,0 14.66,27.28 C 14.56,27.34 14.51,27.33 14.5,27.27 C 14.5,27.11 14.4,27.01 14.23,26.99 C 14.19,26.99 14.16,27 14.14,27.05 A 0.53,0.53 0 0,0 14.14,27.43 C 14.18,27.52 14.2,27.51 14.22,27.43 L 14.24,27.24 Z M 15.84,30.42 C 15.69,30.54 15.74,30.56 15.99,30.5 C 16.71,30.31 16.88,29.42 16.98,28.81 C 16.98,28.78 16.97,28.75 16.94,28.74 H 16.9 C 16.88,28.7 16.85,28.68 16.82,28.69 C 16.37,28.8 16.05,29.09 15.86,29.53 C 15.71,29.9 15.7,30.2 15.84,30.43 Z M 14.16,28.98 C 14.11,29.49 14.26,29.93 14.65,30.3 C 14.87,30.53 15.18,30.63 15.48,30.63 C 15.58,30.63 15.61,30.59 15.59,30.5 C 15.54,30.24 15.15,28.94 14.73,29.16 A 0.75,0.75 0 0,0 14.13,28.78 C 14.08,28.78 14.06,28.8 14.07,28.84 C 14.09,28.91 14.12,28.95 14.17,28.98 Z M 16.26,31.55 C 16.36,31.68 16.34,31.79 16.22,31.88 A 0.1,0.1 0 0,0 16.17,31.96 C 16.17,32.11 16.22,32.15 16.32,32.08 C 16.97,31.68 17.24,31.05 17.13,30.22 C 17.13,30.16 17.1,30.16 17.06,30.2 L 17.02,30.24 C 17.02,30.16 16.98,30.14 16.89,30.18 C 16.3,30.45 16.04,30.92 16.11,31.58 L 16.13,31.62 A 0.06,0.06 0 0,0 16.2,31.64 L 16.23,31.61 L 16.26,31.55 Z M 14.33,30.71 C 14.28,30.72 14.26,30.74 14.26,30.76 C 14.46,31.5 15.04,32.44 15.95,32.17 C 15.99,32.17 16,32.14 15.99,32.1 A 1.54,1.54 0 0,0 15.17,30.94 C 15.01,30.64 14.62,30.6 14.33,30.54 H 14.3 L 14.28,30.55 A 0.06,0.06 0 0,0 14.26,30.6 C 14.26,30.64 14.28,30.68 14.33,30.71 Z M 16.74,32.95 C 16.57,33.04 16.61,33.23 16.84,33.52 C 16.87,33.55 16.9,33.55 16.94,33.52 C 17.54,32.98 17.71,32.33 17.45,31.59 C 17.28,31.53 17.19,31.55 17.15,31.65 C 16.62,32.01 16.48,32.45 16.75,32.95 Z M 14.66,32.41 A 1.03,1.03 0 0,1 14.76,32.57 C 15,33.17 15.9,34.13 16.61,33.67 C 16.64,33.64 16.65,33.61 16.64,33.57 C 16.42,33.07 16.1,32.75 15.68,32.63 C 15.56,32.28 15.22,32.21 14.66,32.41 Z" fill="rgb(155, 128, 60)"/>
<path d="M 15.120000000000001,23.305 L 15.23,23.38 L 14.96,24.72 C 14.82,24.25 14.88,23.78 15.13,23.32 Z" fill="rgb(226, 197, 122)"/>
<path d="M 15.22,23.365 C 15.31,23.33 15.37,23.38 15.43,23.53 C 15.77,23.95 15.89,24.45 15.81,25.03 A 0.7,0.7 0 0,0 15.85,25.43 A 0.22,0.22 0 0,0 15.81,25.53 A 0.3,0.3 0 0,1 15.69,25.66 A 0.13,0.13 0 0,1 15.55,25.66 A 1.5,1.5 0 0,1 14.94,24.97 A 0.2,0.2 0 0,1 14.93,24.85 L 14.96,24.72 L 15.23,23.38 Z M 40.15,25.26 C 40.02,24.56 40.18,23.96 40.65,23.46 C 40.67,23.42 40.69,23.4 40.71,23.39 C 40.75,23.37 40.78,23.39 40.78,23.43 C 40.96,24.36 41.06,25.05 40.23,25.69 A 0.1,0.1 0 0,1 40.07,25.59 L 40.15,25.26 Z" fill="rgb(91, 68, 32)"/>
<path d="M 40.64,23.435 C 40.18,23.95 40.02,24.56 40.15,25.26 C 40.06,25.28 40.01,25.26 40.01,25.23 C 39.87,24.5 40.02,23.9 40.48,23.43 C 40.54,23.36 40.6,23.37 40.65,23.45 Z M 39.16,24.63 L 38.16,24.5 A 0.14,0.14 0 0,1 38.11,24.46 C 38.07,24.42 38.08,24.39 38.14,24.38 C 38.5,24.31 38.84,24.4 39.16,24.63 Z M 17.62,24.46 C 17.21,24.5 16.93,24.56 16.8,24.66 C 16.64,24.76 16.48,24.91 16.32,25.14 C 16.22,25.29 16.22,25.54 15.95,25.63 C 15.86,25.62 15.81,25.58 15.81,25.53 C 15.81,25.49 15.83,25.46 15.85,25.43 A 0.17,0.17 0 0,1 15.95,25.39 C 15.99,25.39 16.02,25.37 16.04,25.33 C 16.34,24.74 16.87,24.15 17.62,24.46 Z" fill="rgb(226, 197, 122)"/>
<path d="M 15.94,25.615 C 16.21,25.53 16.21,25.29 16.32,25.13 C 16.48,24.91 16.64,24.75 16.79,24.65 C 16.93,24.57 17.21,24.5 17.62,24.46 C 17.59,24.4 17.61,24.39 17.69,24.42 C 17.73,24.44 17.74,24.47 17.72,24.51 A 2.3,2.3 0 0,1 16,25.82 C 15.96,25.82 15.93,25.82 15.92,25.77 C 15.91,25.72 15.92,25.67 15.96,25.63 Z M 38.17,24.5 L 39.17,24.63 C 39.53,24.79 39.77,25.13 39.89,25.67 C 39.89,25.71 39.88,25.74 39.84,25.75 C 39.15,26 38.38,25.17 38.1,24.58 C 38.09,24.55 38.1,24.52 38.13,24.51 A 0.1,0.1 0 0,1 38.17,24.51 Z M 28.11,28.03 L 28.26,29.14 L 27.68,29.12 C 27.63,29.12 27.61,29.09 27.62,29.05 C 27.62,29.01 27.65,28.97 27.69,28.93 A 0.24,0.24 0 0,0 27.75,28.73 C 27.72,28.46 27.68,28.2 27.63,27.93 C 27.63,27.89 27.63,27.85 27.67,27.82 L 27.72,27.78 L 27.78,27.81 C 27.82,27.82 27.85,27.81 27.84,27.76 C 27.84,27.7 27.8,27.65 27.72,27.62 C 27.66,27.34 27.57,27.12 27.56,26.82 A 2.23,2.23 0 0,0 27.31,25.89 A 0.04,0.04 0 0,0 27.25,25.91 L 26.45,27.29 L 25.59,29.07 C 25.56,29.13 25.53,29.13 25.5,29.07 L 23.92,25.94 A 0.05,0.05 0 0,0 23.82,25.96 L 23.51,29.02 C 23.51,29.07 23.48,29.09 23.44,29.09 H 23.11 C 23.04,29.09 23.03,29.06 23.07,29.01 L 23.12,28.96 C 23.22,28.97 23.26,28.93 23.27,28.83 L 23.72,25.57 A 3.3,3.3 0 0,1 24.55,26.77 A 0.07,0.07 0 0,0 24.64,26.78 C 24.68,26.76 24.69,26.72 24.66,26.68 A 593.47,593.47 0 0,1 23.99,25.23 A 0.12,0.12 0 0,0 23.94,25.2 C 23.87,25.2 23.82,25.16 23.8,25.1 V 24.74 L 23.83,24.68 A 0.05,0.05 0 0,1 23.88,24.65 H 23.9 L 23.92,24.68 A 34.62,34.62 0 0,0 25.68,28 A 0.3,0.3 0 0,0 25.61,28.16 A 0.08,0.08 0 0,0 25.66,28.25 A 0.08,0.08 0 0,0 25.75,28.21 L 27.31,25.41 C 27.45,25.14 27.58,24.84 27.71,24.51 L 28.11,28.03 Z" fill="rgb(91, 68, 32)"/>
<path d="M 29.209999999999997,24.625 L 29.17,28.82 A 0.1,0.1 0 0,1 29.1,28.92 A 0.29,0.29 0 0,1 28.95,28.92 C 28.9,28.91 28.88,28.88 28.89,28.84 C 28.95,28.68 28.96,28.55 28.91,28.47 A 19.38,19.38 0 0,0 29.07,24.64 A 0.1,0.1 0 0,1 29.14,24.59 H 29.18 L 29.22,24.64 Z M 27.7,24.5 A 6.1,6.1 0 0,1 27.3,25.4 A 409.94,409.94 0 0,1 25.71,28.25 A 0.08,0.08 0 0,1 25.61,28.21 A 0.08,0.08 0 0,1 25.61,28.16 A 0.3,0.3 0 0,1 25.68,28 L 26.81,25.99 L 27.71,24.5 Z M 32.69,24.74 C 32.39,25.31 32.54,27.25 32.56,28.05 A 0.1,0.1 0 0,1 32.45,28.15 A 0.1,0.1 0 0,1 32.4,28.13 C 32.32,28.06 32.31,27.98 32.39,27.89 C 32.46,26.83 32.46,25.79 32.39,24.79 A 0.16,0.16 0 0,1 32.53,24.62 C 32.63,24.6 32.69,24.64 32.69,24.74 Z" fill="rgb(226, 197, 122)"/>
<path d="M 29.209999999999997,24.625 A 0.4,0.4 0 0,1 29.42,24.74 C 30.32,25.79 31.31,26.84 32.39,27.89 C 32.31,27.98 32.32,28.06 32.39,28.13 A 0.1,0.1 0 0,0 32.54,28.11 A 0.1,0.1 0 0,0 32.56,28.05 C 32.54,27.25 32.39,25.31 32.69,24.74 A 0.1,0.1 0 0,0 32.74,24.7 C 32.8,24.7 32.84,24.73 32.84,24.78 A 83.72,83.72 0 0,0 32.77,28.76 C 32.77,28.91 32.77,29.03 32.74,29.12 C 32.71,29.22 32.66,29.23 32.59,29.15 A 61,61 0 0,0 29.69,25.99 A 0.55,0.55 0 0,1 29.54,25.74 A 0.07,0.07 0 0,0 29.41,25.76 V 28.63 A 0.77,0.77 0 0,0 29.44,29.04 A 0.6,0.6 0 0,1 28.99,29.08 C 28.95,29.07 28.92,29.05 28.92,29.03 C 28.92,29 28.92,28.97 28.95,28.93 L 29.1,28.92 A 0.1,0.1 0 0,0 29.17,28.82 L 29.22,24.64 Z" fill="rgb(91, 68, 32)"/>
<path d="M 23.79,24.724999999999998 V 25.1 L 23.72,25.57 L 23.27,28.83 C 23.27,28.93 23.21,28.97 23.12,28.96 A 0.14,0.14 0 0,1 23.08,28.83 C 23.25,27.88 23.39,26.92 23.49,25.95 L 23.65,24.79 C 23.65,24.74 23.68,24.72 23.73,24.71 C 23.75,24.71 23.77,24.71 23.8,24.74 Z M 14.62,25.28 A 1.98,1.98 0 0,0 14.55,26.2 L 14.53,26.22 H 14.51 C 14.5,26.22 14.49,26.22 14.49,26.2 A 0.7,0.7 0 0,1 14.39,25.87 A 1.45,1.45 0 0,1 14.51,25.12 H 14.53 C 14.6,25.1 14.63,25.15 14.62,25.28 Z" fill="rgb(226, 197, 122)"/>
<path d="M 23.79,25.085 C 23.82,25.16 23.87,25.2 23.94,25.2 A 0.12,0.12 0 0,1 24.03,25.27 L 24.66,26.67 C 24.69,26.72 24.68,26.76 24.64,26.78 A 0.07,0.07 0 0,1 24.54,26.75 A 3.3,3.3 0 0,0 23.72,25.57 L 23.8,25.1 Z" fill="rgb(155, 128, 60)"/>
<path d="M 40.4,27.345 A 0.07,0.07 0 0,1 40.33,27.33 A 0.08,0.08 0 0,1 40.34,27.23 C 40.47,27.13 40.5,26.99 40.51,26.81 C 40.51,26.15 40.78,25.62 41.31,25.24 C 41.36,25.21 41.38,25.22 41.39,25.27 C 41.5,26.13 41.34,27.06 40.41,27.37 Z M 14.4,25.87 C 14.4,26 14.43,26.11 14.49,26.2 L 14.5,26.22 H 14.53 A 0.03,0.03 0 0,0 14.55,26.18 C 14.5,25.88 14.53,25.58 14.62,25.28 C 14.88,25.33 15.09,25.49 15.24,25.78 C 15.42,26.1 15.42,26.61 15.46,27 C 15.46,27.03 15.45,27.06 15.42,27.08 C 15.39,27.1 15.4,27.13 15.43,27.18 C 15.46,27.21 15.46,27.24 15.43,27.27 A 0.16,0.16 0 0,1 15.35,27.32 C 14.97,27.41 14.46,26.55 14.33,26.22 C 14.27,26.05 14.29,25.94 14.39,25.87 Z" fill="rgb(91, 68, 32)"/>
<path d="M 17.099999999999998,25.845 C 17.12,25.93 17.1,25.98 17.04,25.98 C 16.39,26.08 15.99,26.44 15.84,27.08 A 0.16,0.16 0 0,1 15.76,27.18 L 15.68,27.23 C 15.62,27.23 15.6,27.18 15.64,27.09 C 15.86,26.58 16.36,25.5 17.11,25.86 Z" fill="rgb(226, 197, 122)"/>
<path d="M 15.67,27.215 L 15.76,27.19 A 0.16,0.16 0 0,0 15.84,27.09 C 15.99,26.44 16.39,26.07 17.04,25.99 C 17.1,25.98 17.12,25.93 17.11,25.86 L 17.21,25.81 A 0.03,0.03 0 0,1 17.26,25.83 V 25.85 C 17.05,26.68 16.54,27.2 15.72,27.4 C 15.68,27.41 15.65,27.4 15.65,27.35 C 15.65,27.31 15.65,27.27 15.68,27.23 Z" fill="rgb(91, 68, 32)"/>
<path d="M 39.39,26.105 L 38.57,25.88 C 38.81,25.72 39.06,25.72 39.33,25.88 C 39.43,25.95 39.46,26.03 39.4,26.12 Z" fill="rgb(226, 197, 122)"/>
<path d="M 27.72,27.605 L 27.72,27.78 L 27.67,27.82 A 0.12,0.12 0 0,0 27.63,27.93 C 27.68,28.2 27.73,28.46 27.76,28.73 A 0.24,0.24 0 0,1 27.69,28.93 C 27.36,28.8 27.52,28.16 27.53,27.89 A 0.24,0.24 0 0,0 27.48,27.73 A 0.24,0.24 0 0,0 27.33,27.64 A 2.18,2.18 0 0,1 26.46,27.29 L 27.25,25.91 L 27.27,25.89 H 27.31 L 27.33,25.91 C 27.47,26.19 27.55,26.5 27.56,26.81 C 27.57,27.11 27.66,27.34 27.73,27.62 Z" fill="rgb(207, 171, 77)"/>
<path d="M 38.56,25.865 L 39.4,26.12 C 39.44,26.14 39.5,26.14 39.59,26.11 C 39.63,26.09 39.66,26.11 39.69,26.14 L 40.21,27.09 A 0.2,0.2 0 0,1 40.01,27.37 L 39.41,27.26 A 0.17,0.17 0 0,1 39.31,27.19 C 39,26.8 38.63,26.41 38.57,25.89 Z" fill="rgb(91, 68, 32)"/>
<path d="M 14.49,27.255 C 14.39,27.23 14.3,27.22 14.24,27.24 L 14.22,27.42 C 14.2,27.52 14.18,27.52 14.15,27.43 A 0.53,0.53 0 0,1 14.15,27.05 C 14.15,27 14.19,26.98 14.24,26.99 C 14.41,27.01 14.5,27.11 14.51,27.27 Z" fill="rgb(226, 197, 122)"/>
<path d="M 40.43,28.814999999999998 C 40.54,28.79 40.58,28.75 40.59,28.69 C 40.65,27.84 41.05,27.51 41.66,27 C 41.72,27.49 41.68,27.88 41.53,28.17 C 41.3,28.6 40.97,28.87 40.53,29 A 0.1,0.1 0 0,1 40.47,29 C 40.34,28.95 40.33,28.9 40.44,28.83 Z" fill="rgb(91, 68, 32)"/>
<path d="M 41.65,26.985 C 41.05,27.5 40.65,27.84 40.59,28.69 C 40.59,28.75 40.53,28.79 40.44,28.83 C 40.37,28.81 40.34,28.77 40.32,28.73 L 40.39,28.64 C 40.57,28.01 40.69,27.57 41.23,27.16 C 41.37,27.06 41.51,27 41.66,27 Z" fill="rgb(226, 197, 122)"/>
<path d="M 14.49,27.255 C 14.5,27.34 14.55,27.34 14.65,27.28 A 0.1,0.1 0 0,1 14.76,27.29 C 15.18,27.67 15.29,28.27 15.47,28.82 L 15.46,28.77 L 15.4,28.94 A 0.13,0.13 0 0,1 15.24,29.02 C 14.67,28.82 14.31,28.42 14.14,27.84 C 14.12,27.79 14.14,27.76 14.19,27.75 H 14.22 C 14.27,27.75 14.29,27.73 14.28,27.68 L 14.24,27.24 C 14.3,27.22 14.39,27.23 14.5,27.27 Z" fill="rgb(91, 68, 32)"/>
<path d="M 16.869999999999997,27.285 C 16.87,27.37 16.84,27.42 16.79,27.43 C 16.18,27.58 15.84,27.99 15.79,28.63 C 15.77,28.73 15.69,28.81 15.52,28.89 C 15.47,28.91 15.44,28.87 15.46,28.77 L 15.47,28.82 C 15.76,28.11 15.94,27.27 16.87,27.3 Z" fill="rgb(226, 197, 122)"/>
<path d="M 15.51,28.884999999999998 C 15.69,28.81 15.77,28.72 15.78,28.64 C 15.84,27.99 16.18,27.58 16.79,27.43 C 16.84,27.42 16.87,27.37 16.88,27.3 H 16.95 C 16.98,27.3 17,27.32 16.99,27.36 C 16.86,28.16 16.42,28.71 15.68,29.01 A 0.14,0.14 0 0,1 15.62,29.02 C 15.49,29.02 15.46,28.98 15.52,28.89 Z M 40.4,28.64 L 40.32,28.72 L 40.18,28.96 C 40.16,29 40.12,29.02 40.07,29 A 1.7,1.7 0 0,1 38.86,27.53 C 38.86,27.47 38.87,27.45 38.93,27.46 L 39.74,27.62 A 0.1,0.1 0 0,1 39.81,27.66 C 39.99,27.91 40.11,28.19 40.18,28.5 C 40.19,28.55 40.22,28.58 40.28,28.6 L 40.39,28.64 Z" fill="rgb(91, 68, 32)"/>
<path d="M 27.72,27.605 C 27.8,27.65 27.84,27.7 27.84,27.76 C 27.84,27.81 27.83,27.82 27.78,27.81 A 0.14,0.14 0 0,1 27.72,27.78 V 27.62 Z" fill="rgb(155, 128, 60)"/>
<path d="M 28.099999999999998,28.015 C 28.38,28.08 28.65,28.23 28.91,28.47 C 28.96,28.55 28.95,28.67 28.89,28.84 C 28.88,28.88 28.89,28.91 28.95,28.93 C 28.92,28.97 28.91,29 28.92,29.03 C 28.92,29.05 28.95,29.07 28.99,29.08 C 29.14,29.13 29.29,29.11 29.44,29.04 C 29.5,29.02 29.53,28.99 29.54,28.94 C 29.55,28.9 29.57,28.89 29.61,28.9 C 29.8,28.95 29.96,29.04 30.09,29.19 C 30.12,29.22 30.15,29.25 30.19,29.26 C 30.38,29.34 30.53,29.46 30.65,29.62 C 30.68,29.65 30.69,29.69 30.69,29.74 L 30.67,30.16 L 29.27,30.13 C 28.87,29.94 28.65,29.73 28.58,29.5 A 0.16,0.16 0 0,0 28.52,29.41 A 0.9,0.9 0 0,1 28.26,29.14 L 28.11,28.03 Z" fill="rgb(207, 171, 77)"/>
<path d="M 38.34,31.585 C 38.22,31.98 38.21,32.3 38.31,32.56 C 38.25,32.81 38.29,32.97 38.45,33.04 C 38.55,33.28 38.71,33.44 38.91,33.54 C 38.94,33.56 38.97,33.55 38.99,33.51 L 39.01,33.47 C 39.13,33.45 39.21,33.41 39.25,33.37 C 39.66,32.81 40.18,32.25 40.93,32.32 L 40.97,32.33 C 40.98,32.35 40.99,32.36 40.98,32.39 C 40.88,32.46 40.81,32.49 40.78,32.49 C 40.16,32.51 39.73,32.99 39.39,33.45 A 0.18,0.18 0 0,1 39.32,33.51 L 39.15,33.6 C 39.09,33.63 39.09,33.66 39.15,33.7 C 39.35,33.8 39.58,33.8 39.83,33.71 C 40.18,33.63 40.46,33.43 40.68,33.1 L 40.93,33.35 C 40.95,33.37 40.97,33.37 40.99,33.35 L 41.02,33.32 C 41.04,33.3 41.05,33.3 41.05,33.33 A 0.8,0.8 0 0,1 41.05,33.38 C 41.05,33.4 41.05,33.4 41.07,33.4 C 41.22,33.33 41.39,33.37 41.59,33.52 A 14.81,14.81 0 0,1 35.54,40.59 C 35.48,40.31 35.52,39.92 35.65,39.44 C 35.66,39.26 35.57,39.19 35.37,39.24 C 35.29,39.24 35.25,39.22 35.24,39.19 C 35.33,39.17 35.37,39.15 35.37,39.14 A 0.22,0.22 0 0,0 35.2,38.94 A 2.43,2.43 0 0,0 33.78,38.98 A 0.78,0.78 0 0,1 33.32,38.98 C 33.98,38.54 34.49,37.97 34.22,37.12 C 34.2,37.1 34.18,37.1 34.15,37.1 C 34.13,37.07 34.1,37.06 34.05,37.06 A 0.15,0.15 0 0,0 33.97,37.09 C 33.77,37.23 33.61,37.38 33.48,37.52 C 33.34,37.49 33.18,37.5 33,37.54 A 0.07,0.07 0 0,0 32.94,37.6 C 32.94,37.65 32.91,37.68 32.88,37.69 C 32.84,37.64 32.81,37.63 32.78,37.68 L 32.81,37.47 A 0.11,0.11 0 0,0 32.79,37.38 L 32.25,36.73 A 0.18,0.18 0 0,0 32.16,36.68 A 0.37,0.37 0 0,1 31.94,36.46 A 0.11,0.11 0 0,1 31.96,36.34 C 32.22,36.04 32.63,35.88 32.87,35.72 C 33.28,35.45 33.68,35.16 34.08,34.87 C 34.67,34.44 35.12,33.85 35.64,33.32 C 35.95,33 36.24,32.49 36.49,31.78 C 36.6,31.72 36.67,31.65 36.7,31.55 C 36.72,31.5 36.7,31.47 36.65,31.45 C 36.46,31.4 36.32,31.46 36.23,31.65 A 9.08,9.08 0 0,1 31.62,35.91 L 30.52,33.25 C 30.5,33.2 30.47,33.19 30.42,33.21 A 0.71,0.71 0 0,1 29.95,33.24 L 30.69,32.75 C 30.73,32.72 30.74,32.69 30.71,32.65 C 30.7,32.62 30.67,32.62 30.63,32.62 A 1.67,1.67 0 0,0 30.15,32.03 C 30.08,31.98 30.06,31.91 30.09,31.8 A 0.1,0.1 0 0,0 30.05,31.7 A 1.27,1.27 0 0,1 29.56,30.6 L 33.56,30.55 A 0.1,0.1 0 0,0 33.64,30.51 A 0.1,0.1 0 0,0 33.65,30.41 L 33.63,30.35 C 33.63,30.31 33.59,30.29 33.55,30.3 H 33.5 C 33.45,30.22 33.39,30.18 33.3,30.18 C 32.9,30.17 32.5,30.16 32.08,30.17 C 32.15,29.85 32.05,29.63 31.79,29.53 C 31.02,29.23 30.25,28.84 29.71,28.83 A 0.1,0.1 0 0,1 29.62,28.76 C 29.57,28.6 29.5,28.56 29.42,28.63 L 29.41,28.48 C 29.71,28.54 29.99,28.58 30.29,28.68 C 30.6,28.79 30.91,28.88 31.23,28.95 C 31.67,29.05 32.02,29.26 32.43,29.43 A 0.2,0.2 0 0,0 32.55,29.44 C 32.94,29.35 33.02,29.5 33.31,29.8 C 33.66,30.15 34.22,29.9 34.67,30.1 C 35.45,30.43 36.26,30.7 37.09,30.9 C 37.13,30.91 37.16,30.93 37.19,30.96 C 37.32,31.09 37.48,31.16 37.66,31.19 C 37.7,31.19 37.74,31.21 37.77,31.24 L 37.99,31.39 L 38.09,31.49 C 38.14,31.59 38.22,31.63 38.35,31.61 Z M 37.65,34 C 37.59,34 37.58,34.03 37.59,34.08 C 37.65,34.26 37.73,34.43 37.84,34.58 C 37.96,34.79 38.07,34.91 38.16,34.93 L 38.34,35.03 C 38.36,35.09 38.47,35.13 38.65,35.17 C 39.44,35.3 40.08,34.71 40.41,34.06 C 40.44,34 40.43,33.98 40.37,34 A 0.63,0.63 0 0,0 40.14,34.16 L 40,34.1 A 0.14,0.14 0 0,0 40.02,33.98 A 0.08,0.08 0 0,0 39.92,33.92 C 39.44,33.98 39.04,34.19 38.72,34.56 C 38.6,34.7 38.49,34.73 38.32,34.76 C 38.43,34.18 38.75,33.68 38.25,33.19 C 38.27,33.14 38.18,32.99 37.98,32.77 C 37.66,33.07 37.55,33.48 37.66,34.02 Z M 37.24,34.13 C 37.19,34.07 37.15,34.07 37.12,34.12 C 37.05,34.2 36.92,34.42 36.74,34.78 L 36.39,35.18 A 1.5,1.5 0 0,0 35.67,36.36 C 35.67,36.4 35.68,36.43 35.72,36.44 C 35.81,36.47 35.87,36.44 35.91,36.36 A 0.7,0.7 0 0,1 35.81,36.8 A 0.13,0.13 0 0,0 35.81,36.92 L 35.89,37.11 C 35.89,37.14 35.91,37.17 35.94,37.2 C 35.97,37.23 36,37.23 36.04,37.2 C 36.5,36.82 36.71,36.33 36.67,35.72 C 36.56,35.52 36.56,35.35 36.67,35.2 C 36.67,35.26 36.67,35.3 36.72,35.32 C 36.75,35.34 36.8,35.32 36.88,35.27 C 36.81,35.44 36.78,35.56 36.82,35.62 C 36.88,35.83 36.98,36 37.12,36.13 C 37.16,36.16 37.18,36.16 37.21,36.13 C 37.57,35.68 37.85,34.96 37.52,34.44 A 0.9,0.9 0 0,0 37.31,34.08 C 37.28,34.05 37.26,34.06 37.25,34.1 L 37.24,34.13 Z M 37.42,36.29 C 37.38,36.32 37.38,36.36 37.41,36.41 C 37.43,36.44 37.45,36.46 37.49,36.48 C 38.27,36.84 39.09,36.17 39.53,35.61 A 0.07,0.07 0 0,0 39.55,35.57 V 35.53 C 39.52,35.49 39.49,35.49 39.46,35.52 A 0.4,0.4 0 0,1 39.26,35.63 C 39.31,35.55 39.31,35.5 39.26,35.47 C 38.66,35.17 37.79,35.82 37.36,36.19 C 37.32,36.22 37.32,36.25 37.36,36.27 L 37.42,36.29 Z M 34.66,37.66 C 34.49,37.8 34.46,37.94 34.6,38.07 L 34.65,38.19 L 34.67,38.21 A 0.06,0.06 0 0,0 34.73,38.22 L 34.75,38.21 C 35.27,37.73 35.91,36.95 35.37,36.25 C 35.35,36.22 35.33,36.22 35.3,36.25 L 35.28,36.28 L 35.27,36.23 C 35.24,36.2 35.22,36.2 35.19,36.23 C 34.91,36.46 34.36,37.19 34.49,37.59 C 34.49,37.63 34.53,37.65 34.57,37.65 L 34.67,37.66 Z M 36.22,37.43 C 36.17,37.49 36.19,37.54 36.28,37.6 C 36.99,38.09 37.89,37.59 38.45,37 L 38.46,36.98 A 0.03,0.03 0 0,0 38.42,36.94 L 38.29,36.98 V 36.87 C 38.29,36.82 38.27,36.8 38.23,36.79 A 2.25,2.25 0 0,0 36.23,37.36 L 36.22,37.38 V 37.43 Z M 35.15,38.37 L 34.95,38.43 C 34.9,38.44 34.87,38.46 34.86,38.48 C 34.86,38.51 34.86,38.53 34.9,38.56 C 35.64,39.14 36.49,38.8 37.13,38.3 A 0.08,0.08 0 0,0 37.12,38.16 H 37.06 L 36.84,38.24 A 0.15,0.15 0 0,1 36.69,38.17 C 36.88,38.12 36.85,38.04 36.62,37.92 A 0.27,0.27 0 0,0 36.5,37.89 A 3.25,3.25 0 0,0 35.01,38.24 V 38.28 C 35.01,38.3 35.02,38.31 35.04,38.32 L 35.08,38.33 C 35.11,38.33 35.13,38.34 35.15,38.37 Z" fill="rgb(207, 171, 77)"/>
<path d="M 32.07,30.155 H 30.67 L 30.69,29.74 A 0.18,0.18 0 0,0 30.65,29.62 A 1.1,1.1 0 0,0 30.19,29.26 A 0.26,0.26 0 0,1 30.09,29.19 A 0.91,0.91 0 0,0 29.61,28.89 C 29.57,28.89 29.55,28.9 29.54,28.94 C 29.53,28.99 29.5,29.02 29.44,29.04 A 0.77,0.77 0 0,1 29.41,28.63 C 29.5,28.56 29.57,28.6 29.62,28.76 A 0.1,0.1 0 0,0 29.72,28.82 C 30.25,28.84 31.02,29.22 31.79,29.53 C 32.05,29.63 32.15,29.85 32.09,30.17 Z" fill="rgb(185, 154, 62)"/>
<path d="M 16.889999999999997,28.724999999999998 C 16.65,28.97 16.33,29.08 16.16,29.36 C 16,29.64 15.89,30 15.84,30.42 C 15.7,30.2 15.7,29.9 15.86,29.52 C 16.06,29.08 16.37,28.8 16.82,28.69 C 16.85,28.68 16.88,28.69 16.9,28.74 Z" fill="rgb(226, 197, 122)"/>
<path d="M 39.42,28.985 L 39.01,28.97 C 38.91,28.99 38.86,28.92 38.86,28.77 C 38.86,28.72 38.89,28.69 38.94,28.7 C 39.04,28.7 39.14,28.73 39.24,28.78 L 39.31,28.8 C 39.39,28.8 39.44,28.87 39.43,29 Z" fill="rgb(207, 171, 77)"/>
<path d="M 16.889999999999997,28.724999999999998 H 16.94 C 16.97,28.75 16.98,28.78 16.98,28.81 C 16.88,29.42 16.71,30.31 15.98,30.5 C 15.73,30.56 15.68,30.54 15.84,30.42 C 15.89,30 16,29.64 16.16,29.36 C 16.33,29.08 16.66,28.97 16.9,28.74 Z" fill="rgb(91, 68, 32)"/>
<path d="M 14.72,29.145 L 14.16,28.98 A 0.22,0.22 0 0,1 14.07,28.84 C 14.07,28.8 14.07,28.78 14.12,28.78 C 14.4,28.81 14.6,28.94 14.73,29.16 Z M 41.67,28.83 C 41.47,29.05 41.17,29.12 41,29.3 C 40.76,29.54 40.38,30.44 40.21,30.5 C 40.15,30.5 40.11,30.49 40.1,30.46 C 40.13,30.36 40.13,30.31 40.11,30.29 L 40.31,30.12 V 30.1 C 40.53,29.48 40.93,29.04 41.54,28.77 C 41.6,28.75 41.64,28.77 41.67,28.83 Z" fill="rgb(226, 197, 122)"/>
<path d="M 41.660000000000004,28.814999999999998 H 41.75 C 41.76,28.84 41.77,28.86 41.76,28.89 C 41.65,29.7 41.19,30.66 40.23,30.62 C 40.19,30.62 40.17,30.6 40.18,30.56 C 40.18,30.54 40.18,30.52 40.21,30.5 C 40.38,30.44 40.76,29.54 41,29.3 C 41.18,29.12 41.47,29.05 41.67,28.83 Z M 39.43,29 C 39.94,28.98 40.06,29.88 40.11,30.29 C 40.13,30.31 40.13,30.36 40.1,30.46 C 40.07,30.54 40.02,30.57 39.95,30.56 C 39.19,30.33 38.88,29.81 39,28.97 L 39.43,29 Z" fill="rgb(91, 68, 32)"/>
<path d="M 42.1,35.045 A 16,16 0 0,1 35.47,41.83 A 0.44,0.44 0 0,0 35.21,41.79 C 35.16,41.79 35.14,41.78 35.15,41.73 A 0.61,0.61 0 0,0 35.02,41.21 C 34.98,41.15 34.92,41.14 34.86,41.17 A 14.95,14.95 0 0,1 21.63,41.4 A 0.07,0.07 0 0,1 21.63,41.31 A 0.28,0.28 0 0,1 21.73,41.23 C 26.23,43.23 31.2,43.07 35.54,40.59 A 14.81,14.81 0 0,0 42.67,28.96 L 42.79,28.93 C 42.82,28.93 42.84,28.96 42.83,29.01 A 14.31,14.31 0 0,1 41.44,34.37 L 41.45,34.4 A 0.08,0.08 0 0,0 41.51,34.45 C 42.06,34.52 42.26,34.73 42.11,35.06 Z" fill="rgb(215, 182, 74)"/>
<path d="M 14.15,28.965 L 14.73,29.16 C 15.15,28.94 15.54,30.24 15.59,30.5 C 15.61,30.59 15.57,30.63 15.49,30.63 C 15.18,30.63 14.87,30.53 14.65,30.3 A 1.53,1.53 0 0,1 14.16,28.98 Z" fill="rgb(91, 68, 32)"/>
<path d="M 29.259999999999998,30.115 L 30.67,30.16 H 32.08 C 32.49,30.16 32.9,30.16 33.28,30.18 C 33.38,30.18 33.45,30.22 33.5,30.3 A 0.42,0.42 0 0,1 33.4,30.37 A 0.21,0.21 0 0,1 33.3,30.4 C 29.74,30.37 26.18,30.36 22.62,30.37 C 22.48,30.37 22.34,30.39 22.21,30.42 C 22.15,30.34 22.18,30.28 22.27,30.26 C 22.41,30.22 22.55,30.2 22.69,30.2 L 29.27,30.13 Z M 17.02,30.24 C 16.57,30.66 16.22,30.82 16.26,31.55 L 16.23,31.61 A 0.06,0.06 0 0,1 16.13,31.62 A 0.06,0.06 0 0,1 16.12,31.59 C 16.04,30.92 16.3,30.45 16.89,30.18 C 16.98,30.13 17.02,30.16 17.02,30.24 Z" fill="rgb(226, 197, 122)"/>
<path d="M 16.25,31.535 C 16.22,30.82 16.56,30.65 17.02,30.25 L 17.06,30.2 C 17.1,30.16 17.12,30.16 17.13,30.22 C 17.23,31.05 16.97,31.67 16.33,32.08 C 16.23,32.15 16.17,32.11 16.17,31.96 A 0.1,0.1 0 0,1 16.22,31.88 C 16.34,31.78 16.36,31.68 16.26,31.55 Z" fill="rgb(91, 68, 32)"/>
<path d="M 39.080000000000005,30.314999999999998 C 38.85,30.31 38.76,30.48 38.81,30.86 C 38.63,30.68 38.6,30.48 38.71,30.25 A 0.13,0.13 0 0,1 38.8,30.18 C 38.95,30.13 39.05,30.18 39.09,30.33 Z" fill="rgb(226, 197, 122)"/>
<path d="M 33.49,30.285 H 33.55 C 33.59,30.3 33.62,30.31 33.63,30.35 L 33.65,30.41 A 0.1,0.1 0 0,1 33.55,30.55 L 29.56,30.59 L 22.27,30.57 C 22.22,30.5 22.2,30.45 22.21,30.42 C 22.34,30.39 22.48,30.37 22.63,30.37 C 26.18,30.37 29.73,30.37 33.29,30.4 C 33.34,30.4 33.37,30.4 33.41,30.37 A 0.42,0.42 0 0,0 33.5,30.3 Z M 39.09,30.33 C 39.67,30.63 39.84,31.18 39.59,31.99 A 0.12,0.12 0 0,1 39.51,32.07 A 0.12,0.12 0 0,1 39.41,32.05 C 38.86,31.7 38.66,31.3 38.81,30.86 C 38.76,30.48 38.85,30.31 39.09,30.33 Z" fill="rgb(91, 68, 32)"/>
<path d="M 15.15,30.925 L 14.33,30.71 C 14.28,30.68 14.26,30.64 14.26,30.6 A 0.06,0.06 0 0,1 14.28,30.55 A 0.06,0.06 0 0,1 14.32,30.54 C 14.62,30.6 15.01,30.64 15.16,30.94 Z" fill="rgb(226, 197, 122)"/>
<path d="M 22.259999999999998,30.555 L 29.57,30.59 C 29.54,31.04 29.71,31.41 30.05,31.69 C 30.09,31.72 30.1,31.76 30.09,31.8 C 30.06,31.9 30.09,31.98 30.15,32.03 C 30.35,32.17 30.51,32.4 30.63,32.63 L 30.31,32.53 C 30.36,32.47 30.36,32.43 30.34,32.4 C 29.67,31.84 28.87,32.08 28.26,32.59 A 0.07,0.07 0 0,0 28.23,32.64 A 0.07,0.07 0 0,0 28.26,32.69 L 28.31,32.74 A 0.06,0.06 0 0,0 28.27,32.79 A 0.1,0.1 0 0,0 28.31,32.89 C 28.85,33.29 29.4,33.4 29.95,33.24 C 30.08,33.28 30.24,33.27 30.42,33.21 C 30.47,33.19 30.5,33.21 30.52,33.25 L 31.62,35.91 A 9.48,9.48 0 0,1 19.62,31.74 C 19.84,31.54 20.1,31.4 20.39,31.29 C 20.93,31.09 21.25,30.75 21.83,30.64 C 21.88,30.64 21.9,30.64 21.91,30.69 L 21.92,30.73 A 0.01,0.01 0 0,0 21.94,30.73 A 0.6,0.6 0 0,1 22.27,30.57 Z M 25.22,32.73 L 25.19,32.75 C 25.16,32.77 25.16,32.79 25.19,32.81 C 26.01,33.51 26.81,33.49 27.6,32.77 A 0.1,0.1 0 0,0 27.63,32.67 A 0.1,0.1 0 0,0 27.54,32.59 C 27.48,32.59 27.42,32.62 27.36,32.68 A 0.46,0.46 0 0,0 27.21,32.5 C 27.26,32.45 27.27,32.41 27.24,32.39 C 26.54,31.85 25.81,32.09 25.21,32.64 C 25.17,32.67 25.18,32.7 25.22,32.73 Z M 27.42,34.19 L 27.38,34.55 C 27.37,34.59 27.38,34.63 27.4,34.65 L 27.83,35.3 C 27.85,35.34 27.88,35.34 27.91,35.3 C 28.66,34.55 28.71,33.75 28.07,32.9 A 0.05,0.05 0 0,0 28.01,32.87 C 27.95,32.89 27.94,32.89 27.98,32.9 C 27.93,32.85 27.88,32.84 27.86,32.86 C 27.6,33.11 27.2,33.67 27.26,34.06 C 27.29,34.2 27.35,34.25 27.43,34.19 Z" fill="rgb(171, 140, 66)"/>
<path d="M 41.4,30.655 C 41.32,30.77 41.21,30.82 41.05,30.83 A 0.26,0.26 0 0,0 40.94,30.86 C 40.38,31.18 40.22,31.61 39.88,32.06 A 0.16,0.16 0 0,1 39.85,32.05 C 39.82,32.03 39.81,32 39.83,31.97 C 40.05,31.41 40.43,30.98 40.93,30.69 A 0.2,0.2 0 0,1 41.07,30.66 C 41.17,30.67 41.25,30.65 41.32,30.59 C 41.35,30.57 41.38,30.58 41.4,30.61 A 0.1,0.1 0 0,1 41.41,30.67 Z" fill="rgb(226, 197, 122)"/>
<path d="M 39.870000000000005,32.055 C 40.22,31.61 40.38,31.18 40.94,30.87 A 0.26,0.26 0 0,1 41.05,30.83 A 0.52,0.52 0 0,0 41.41,30.67 A 0.19,0.19 0 0,1 41.48,30.62 C 41.53,30.6 41.55,30.62 41.54,30.67 A 1.9,1.9 0 0,1 39.86,32.27 A 0.07,0.07 0 0,1 39.79,32.24 A 0.07,0.07 0 0,1 39.79,32.17 L 39.89,32.07 Z M 14.33,30.71 L 15.16,30.94 C 15.6,31.16 15.88,31.54 15.99,32.1 C 16,32.14 15.99,32.16 15.95,32.17 C 15.04,32.44 14.46,31.5 14.26,30.76 C 14.26,30.74 14.28,30.72 14.33,30.71 Z" fill="rgb(91, 68, 32)"/>
<path d="M 19.61,31.724999999999998 A 9.48,9.48 0 0,0 31.62,35.91 A 9.08,9.08 0 0,0 36.22,31.65 C 36.32,31.46 36.46,31.4 36.65,31.45 C 36.7,31.47 36.72,31.5 36.7,31.55 C 36.67,31.65 36.6,31.72 36.49,31.78 A 13.02,13.02 0 0,1 33.71,34.91 C 32.73,35.66 31.34,36.59 30.29,36.78 C 25.54,37.62 21.89,36.05 19.35,32.06 L 19.12,31.59 A 0.13,0.13 0 0,1 19.22,31.41 C 19.42,31.4 19.55,31.51 19.62,31.74 Z" fill="rgb(123, 90, 40)"/>
<path d="M 17.439999999999998,31.575 C 16.95,31.91 16.71,32.36 16.75,32.95 C 16.48,32.45 16.62,32.01 17.15,31.65 C 17.18,31.55 17.28,31.53 17.45,31.59 Z M 38.55,31.63 C 38.35,31.82 38.39,32.28 38.31,32.56 C 38.21,32.29 38.22,31.98 38.35,31.61 C 38.37,31.56 38.41,31.54 38.49,31.55 C 38.54,31.56 38.56,31.59 38.55,31.63 Z" fill="rgb(226, 197, 122)"/>
<path d="M 16.729999999999997,32.935 C 16.71,32.36 16.94,31.91 17.45,31.59 C 17.71,32.33 17.55,32.98 16.93,33.52 C 16.9,33.55 16.87,33.55 16.84,33.52 C 16.61,33.23 16.57,33.04 16.74,32.95 Z" fill="rgb(91, 68, 32)"/>
<path d="M 38.54,31.615 C 38.64,31.63 38.69,31.65 38.7,31.69 C 38.9,32.23 39.13,32.55 38.88,33.19 C 38.86,33.23 38.84,33.23 38.8,33.21 A 0.66,0.66 0 0,0 38.45,33.04 C 38.29,32.97 38.25,32.81 38.31,32.56 C 38.39,32.28 38.35,31.82 38.55,31.63 Z" fill="rgb(123, 90, 40)"/>
<path d="M 38.690000000000005,31.685 C 39.3,32.1 39.24,32.86 39,33.47 L 38.98,33.51 C 38.97,33.55 38.94,33.56 38.91,33.54 A 0.94,0.94 0 0,1 38.45,33.04 C 38.58,33.05 38.69,33.11 38.8,33.21 C 38.83,33.23 38.86,33.23 38.87,33.19 C 39.13,32.55 38.91,32.23 38.7,31.69 Z" fill="rgb(91, 68, 32)"/>
<path d="M 36.480000000000004,31.765 A 4.23,4.23 0 0,1 35.64,33.32 C 35.12,33.85 34.66,34.44 34.08,34.87 C 33.68,35.17 33.28,35.45 32.87,35.72 C 32.63,35.88 32.22,36.04 31.96,36.34 A 0.11,0.11 0 0,0 31.94,36.46 C 31.98,36.56 32.06,36.64 32.16,36.68 C 32.2,36.68 32.23,36.71 32.25,36.73 L 32.78,37.38 A 0.11,0.11 0 0,1 32.81,37.47 L 32.78,37.67 C 32.26,38.07 31.44,38.55 31.7,39.34 C 31.64,39.39 31.63,39.44 31.65,39.48 L 31.69,39.52 H 31.74 C 32.29,39.31 32.7,38.94 32.97,38.42 C 32.99,38.37 33,38.32 32.99,38.27 L 32.91,37.74 C 32.87,37.77 32.86,37.75 32.88,37.69 C 32.91,37.68 32.93,37.65 32.94,37.6 C 32.94,37.57 32.97,37.55 33,37.54 C 33.18,37.5 33.34,37.49 33.48,37.52 L 33.05,38.35 A 0.11,0.11 0 0,0 33.05,38.45 C 33.1,38.58 33.17,38.67 33.25,38.73 A 0.2,0.2 0 0,0 33.16,38.86 A 0.08,0.08 0 0,0 33.23,38.96 L 33.33,38.98 C 33.48,39.02 33.63,39.02 33.77,38.98 C 34.27,38.82 34.67,38.81 35.2,38.93 A 0.22,0.22 0 0,1 35.37,39.14 C 35.37,39.15 35.33,39.17 35.24,39.19 A 1.97,1.97 0 0,0 33.58,39.22 L 33.44,39.19 A 0.06,0.06 0 0,0 33.37,39.23 A 0.06,0.06 0 0,0 33.38,39.3 C 34.11,40.03 34.83,39.79 35.65,39.44 C 35.52,39.92 35.48,40.31 35.54,40.59 A 15.08,15.08 0 0,1 21.72,41.23 A 16.03,16.03 0 0,1 16.26,36.95 C 16.34,36.93 16.37,36.9 16.34,36.85 C 15.74,36.05 15.21,35.2 14.76,34.28 C 14.91,34.21 15.13,34.18 15.41,34.2 C 15.88,34.83 16.66,35.6 17.47,35.01 A 0.43,0.43 0 0,0 17.65,34.89 C 18.27,34.44 18.3,33.59 18.05,32.91 C 18.03,32.86 18.01,32.84 17.98,32.87 A 0.2,0.2 0 0,1 17.95,32.78 C 17.95,32.76 17.94,32.75 17.92,32.75 C 17.86,32.75 17.86,32.75 17.89,32.73 A 0.34,0.34 0 0,0 18.05,32.63 A 0.3,0.3 0 0,1 18.15,32.57 L 19.35,32.07 C 21.9,36.05 25.55,37.62 30.29,36.77 C 31.34,36.59 32.73,35.67 33.71,34.91 A 13.03,13.03 0 0,0 36.49,31.78 Z M 18.23,35.12 L 18.21,35.46 C 18.21,35.49 18.21,35.51 18.23,35.53 L 18.61,36.13 C 18.64,36.17 18.67,36.17 18.71,36.13 C 19.13,35.55 19.15,34.92 18.78,34.23 C 18.73,34.16 18.68,34.13 18.64,34.16 V 34.12 C 18.62,34.09 18.6,34.08 18.57,34.1 C 18.18,34.35 18.07,34.7 18.23,35.12 Z M 19.23,36.16 C 19.09,36.64 19.49,36.89 19.75,37.23 C 19.79,37.28 19.82,37.28 19.85,37.23 C 20.01,36.94 20.1,36.7 20.1,36.51 C 20.1,36.05 19.94,35.61 19.6,35.21 C 19.45,35.15 19.34,35.19 19.27,35.36 C 19.19,35.54 19.14,35.73 19.1,35.92 C 19.08,36.08 19.12,36.16 19.22,36.16 Z M 16.3,35.65 V 35.68 C 16.3,35.71 16.3,35.73 16.32,35.75 C 16.88,36.34 17.66,36.85 18.42,36.35 C 18.47,36.33 18.48,36.3 18.45,36.25 L 18.27,35.95 C 18.24,35.91 18.21,35.9 18.16,35.92 C 17.89,36 17.76,35.96 17.78,35.8 C 17.39,35.39 16.93,35.3 16.38,35.53 C 16.28,35.58 16.25,35.62 16.3,35.65 Z M 20.37,37.07 C 20.39,37.1 20.37,37.12 20.31,37.14 C 20.27,37.14 20.25,37.16 20.27,37.2 C 20.38,37.58 20.61,37.86 20.96,38.03 L 21,38.11 L 21.01,38.16 A 0.08,0.08 0 0,0 21.07,38.23 A 0.08,0.08 0 0,0 21.16,38.18 C 21.46,37.45 21.17,36.78 20.65,36.13 C 20.3,36.29 20.15,36.55 20.22,36.91 C 20.24,37.02 20.29,37.07 20.37,37.07 Z M 17.37,37.03 C 17.74,37.42 18.12,37.66 18.5,37.76 C 18.9,37.86 19.26,37.76 19.6,37.49 C 19.63,37.47 19.63,37.43 19.62,37.39 C 19.59,37.34 19.56,37.32 19.52,37.34 C 18.74,36.68 18.02,36.58 17.36,37.03 Z M 21.59,37.73 C 21.48,37.86 21.49,37.99 21.61,38.11 C 21.84,38.45 22.13,38.75 22.5,38.99 C 22.44,39.01 22.4,39.03 22.37,39.07 V 39 C 22.36,38.96 22.34,38.94 22.31,38.94 C 21.46,38.89 20.94,38.64 20.19,39.21 C 20.15,39.24 20.16,39.27 20.2,39.31 C 20.16,39.34 20.16,39.38 20.21,39.42 C 20.9,39.85 21.91,39.93 22.45,39.2 A 0.1,0.1 0 0,0 22.47,39.1 C 22.45,39.04 22.46,39 22.5,38.98 C 22.9,38.49 22.56,37.76 22.1,37.37 C 22.07,37.21 21.97,37.11 21.8,37.07 C 21.78,37.04 21.75,37.02 21.7,37.02 A 0.1,0.1 0 0,0 21.6,37.08 C 21.57,37.19 21.52,37.3 21.45,37.41 C 21.4,37.49 21.39,37.54 21.39,37.59 C 21.41,37.66 21.47,37.7 21.59,37.71 Z M 22.84,38.3 C 22.98,38.88 23.39,39.28 24.09,39.5 C 24.15,39.52 24.19,39.5 24.19,39.43 C 24.24,38.61 23.85,38.1 23.01,37.91 L 23.11,37.81 C 23.13,37.77 23.13,37.75 23.11,37.72 C 23.06,37.68 23.01,37.66 22.96,37.67 C 22.93,37.67 22.89,37.7 22.86,37.75 A 0.52,0.52 0 0,0 22.84,38.3 Z M 18.98,38.24 V 38.28 C 18.88,38.26 18.8,38.27 18.75,38.31 C 18.71,38.34 18.71,38.37 18.75,38.39 C 19.45,38.85 20.38,39.15 20.99,38.38 C 21.03,38.33 21.02,38.31 20.96,38.31 H 20.91 C 20.91,38.26 20.88,38.22 20.81,38.2 C 20.15,37.96 19.51,37.73 18.83,38.1 A 0.08,0.08 0 0,0 18.8,38.21 L 18.84,38.23 C 18.88,38.25 18.92,38.25 18.98,38.23 Z M 24.31,38.67 L 24.28,38.73 A 0.1,0.1 0 0,0 24.28,38.83 C 24.6,39.4 25.1,39.73 25.78,39.84 C 25.8,39.84 25.81,39.87 25.8,39.94 C 25.8,39.97 25.79,39.98 25.76,39.98 C 25.7,39.86 25.59,39.82 25.44,39.84 C 24.79,39.97 24.18,40.09 23.64,40.6 C 23.61,40.63 23.6,40.66 23.6,40.7 C 23.6,40.73 23.6,40.76 23.64,40.8 L 23.57,40.88 C 23.53,40.92 23.54,40.94 23.59,40.95 C 24.47,41.15 25.84,40.98 25.85,39.8 C 25.81,39.07 25.54,38.68 25.01,38.63 A 0.91,0.91 0 0,0 24.4,38.18 C 24.36,38.18 24.33,38.18 24.31,38.22 C 24.23,38.39 24.18,38.5 24.18,38.57 C 24.17,38.65 24.21,38.68 24.31,38.67 Z M 30,39.68 L 29.94,39.81 C 29.93,39.84 29.94,39.87 29.98,39.88 H 30.02 C 29.98,39.93 29.95,39.97 29.95,40.01 C 29.95,40.07 29.99,40.11 30.06,40.15 C 29.98,40.18 29.96,40.22 30,40.27 C 30.56,40.97 31.32,41.19 32.26,40.91 A 0.07,0.07 0 0,0 32.31,40.85 A 0.07,0.07 0 0,0 32.29,40.79 L 31.81,40.33 A 3.5,3.5 0 0,0 30.12,39.9 C 30.83,39.53 31.52,39.26 31.55,38.34 C 31.55,38.32 31.55,38.29 31.53,38.28 A 0.09,0.09 0 0,0 31.48,38.25 C 31.43,38.24 31.4,38.25 31.39,38.29 C 31.23,38.24 31.07,38.27 30.89,38.4 L 30.58,38.64 C 30.19,38.89 30,39.24 30,39.68 Z M 25.78,38.68 C 25.74,38.72 25.72,38.75 25.73,38.78 C 26.05,39.6 26.61,39.72 27.38,39.93 A 0.19,0.19 0 0,0 27.62,39.79 A 0.2,0.2 0 0,0 27.62,39.69 C 27.51,39.34 27.32,39.08 27.04,38.91 A 3.7,3.7 0 0,0 25.8,38.47 A 0.12,0.12 0 0,0 25.75,38.51 C 25.67,38.6 25.68,38.66 25.78,38.68 Z M 28.22,39.76 C 28.16,39.79 28.15,39.85 28.18,39.94 L 28.2,39.97 A 0.08,0.08 0 0,0 28.3,39.98 C 28.46,39.88 28.65,39.82 28.84,39.78 A 1.4,1.4 0 0,0 30.04,38.64 V 38.58 A 0.09,0.09 0 0,0 29.98,38.54 A 0.19,0.19 0 0,0 29.86,38.54 C 29.86,38.51 29.82,38.51 29.76,38.52 C 29.04,38.66 28.51,39.03 28.18,39.65 C 28.15,39.7 28.16,39.74 28.22,39.76 Z M 21.79,40.24 C 21.77,40.29 21.81,40.33 21.89,40.35 C 22.7,40.6 23.6,40.6 24.09,39.77 A 0.06,0.06 0 0,0 24.07,39.69 H 24.04 C 24,39.68 23.96,39.69 23.92,39.72 C 23.93,39.66 23.92,39.62 23.91,39.58 C 23.89,39.56 23.85,39.55 23.81,39.56 C 23.53,39.61 23.28,39.51 23.06,39.52 C 22.56,39.54 22.16,39.72 21.82,40.08 A 0.12,0.12 0 0,0 21.78,40.16 A 0.3,0.3 0 0,0 21.78,40.24 Z M 31.78,39.78 L 31.76,39.81 L 31.75,39.85 L 31.76,39.88 C 32.33,40.64 33.12,40.54 33.95,40.34 A 0.14,0.14 0 0,0 34.05,40.21 A 0.15,0.15 0 0,0 33.97,40.06 L 33.59,39.88 A 1.18,1.18 0 0,0 32.79,39.52 C 32.54,39.51 32.19,39.61 31.88,39.59 A 0.13,0.13 0 0,0 31.78,39.62 A 0.14,0.14 0 0,0 31.74,39.72 S 31.74,39.75 31.78,39.78 Z M 25.55,41.16 C 25.51,41.2 25.48,41.24 25.48,41.27 A 0.05,0.05 0 0,0 25.5,41.32 H 25.52 C 26.38,41.4 27.3,41.12 27.63,40.23 C 27.65,40.19 27.63,40.16 27.59,40.14 A 0.1,0.1 0 0,0 27.53,40.14 C 27.53,40.09 27.51,40.04 27.47,40 A 0.1,0.1 0 0,0 27.35,39.97 C 26.63,40.23 25.96,40.33 25.46,41.03 C 25.44,41.07 25.44,41.11 25.48,41.13 A 0.1,0.1 0 0,0 25.55,41.16 Z M 28.18,40.21 C 28.14,40.25 28.14,40.31 28.17,40.37 C 28.53,41.16 29.58,41.37 30.34,41.32 C 30.39,41.32 30.41,41.28 30.4,41.23 C 30.31,40.8 30.1,40.59 29.73,40.59 C 29.73,40.43 29.58,40.3 29.28,40.23 L 28.27,40 C 28.22,40 28.19,40.01 28.17,40.06 A 0.28,0.28 0 0,0 28.17,40.21 Z" fill="rgb(171, 140, 66)"/>
<path d="M 27.2,32.485 C 26.55,32.12 25.93,32.19 25.36,32.7 L 25.22,32.73 C 25.18,32.7 25.17,32.67 25.21,32.64 C 25.81,32.09 26.55,31.85 27.24,32.39 C 27.27,32.41 27.26,32.45 27.21,32.5 Z M 30.3,32.52 C 29.8,32.39 29.5,32.06 28.9,32.38 C 28.7,32.48 28.5,32.6 28.31,32.74 L 28.26,32.69 A 0.07,0.07 0 0,1 28.23,32.64 A 0.07,0.07 0 0,1 28.26,32.59 C 28.86,32.09 29.66,31.84 30.34,32.4 C 30.36,32.42 30.36,32.47 30.31,32.52 Z" fill="rgb(226, 197, 122)"/>
<path d="M 30.29,32.505 L 30.63,32.62 C 30.67,32.62 30.7,32.62 30.71,32.65 C 30.74,32.69 30.73,32.72 30.69,32.75 L 29.95,33.24 C 29.4,33.4 28.85,33.28 28.31,32.88 A 0.1,0.1 0 0,1 28.27,32.78 C 28.27,32.76 28.29,32.75 28.31,32.74 C 28.51,32.6 28.71,32.48 28.91,32.38 C 29.51,32.06 29.8,32.39 30.31,32.52 Z" fill="rgb(91, 68, 32)"/>
<path d="M 27.2,32.485 C 27.26,32.53 27.31,32.59 27.36,32.68 C 26.74,33.26 26.07,33.28 25.36,32.71 C 25.93,32.19 26.55,32.11 27.21,32.51 Z" fill="rgb(123, 90, 40)"/>
<path d="M 15.67,32.615 L 14.66,32.41 C 15.22,32.21 15.56,32.28 15.68,32.63 Z" fill="rgb(226, 197, 122)"/>
<path d="M 40.67,33.085 C 40.46,33.43 40.18,33.63 39.82,33.71 A 0.5,0.5 0 0,1 39.79,33.71 A 0.06,0.06 0 0,1 39.75,33.66 L 39.76,33.58 L 39.8,33.56 C 40.37,33.4 40.7,33.05 40.78,32.49 C 40.81,32.49 40.88,32.46 40.98,32.39 A 0.12,0.12 0 0,1 41.05,32.36 C 41.1,32.36 41.12,32.39 41.09,32.44 L 40.69,33.1 Z M 14.66,32.41 L 15.68,32.63 C 16.1,32.75 16.42,33.06 16.64,33.56 C 16.65,33.61 16.64,33.64 16.61,33.66 C 15.91,34.13 15.01,33.17 14.75,32.56 A 0.97,0.97 0 0,0 14.65,32.41 Z" fill="rgb(91, 68, 32)"/>
<path d="M 40.77,32.475 C 40.7,33.05 40.37,33.4 39.8,33.56 A 0.06,0.06 0 0,0 39.76,33.58 A 0.1,0.1 0 0,0 39.75,33.66 C 39.75,33.68 39.77,33.7 39.79,33.7 L 39.82,33.71 A 0.83,0.83 0 0,1 39.15,33.69 C 39.09,33.66 39.09,33.63 39.15,33.59 L 39.32,33.51 A 0.18,0.18 0 0,0 39.39,33.45 C 39.73,32.99 40.16,32.51 40.78,32.49 Z" fill="rgb(123, 90, 40)"/>
<path d="M 25.209999999999997,32.714999999999996 L 25.36,32.71 C 26.07,33.27 26.74,33.26 27.36,32.68 C 27.42,32.62 27.48,32.58 27.54,32.59 A 0.1,0.1 0 0,1 27.63,32.66 A 0.1,0.1 0 0,1 27.6,32.77 C 26.81,33.49 26,33.51 25.19,32.81 C 25.16,32.79 25.16,32.77 25.19,32.75 L 25.22,32.73 Z" fill="rgb(91, 68, 32)"/>
<path d="M 17.889999999999997,32.714999999999996 C 17.86,32.74 17.87,32.75 17.92,32.75 C 17.94,32.75 17.95,32.76 17.95,32.78 L 17.98,32.87 C 17.67,33.17 17.48,33.57 17.4,34.03 C 17.2,33.65 17.37,33.21 17.9,32.73 Z M 37.97,32.76 L 37.74,33.98 C 37.74,34.02 37.72,34.03 37.69,34.02 L 37.65,34.01 C 37.55,33.47 37.65,33.06 37.97,32.76 Z" fill="rgb(226, 197, 122)"/>
<path d="M 17.97,32.855 C 18.01,32.84 18.04,32.86 18.05,32.91 C 18.3,33.59 18.27,34.44 17.65,34.89 C 17.36,34.56 17.28,34.28 17.4,34.03 C 17.47,33.56 17.67,33.17 17.98,32.87 Z" fill="rgb(91, 68, 32)"/>
<path d="M 27.97,32.885 C 27.63,33.28 27.45,33.72 27.43,34.2 C 27.34,34.25 27.29,34.2 27.27,34.05 C 27.2,33.67 27.6,33.11 27.86,32.85 C 27.88,32.84 27.92,32.85 27.98,32.9 Z" fill="rgb(226, 197, 122)"/>
<path d="M 27.419999999999998,34.185 C 27.45,33.72 27.63,33.28 27.98,32.9 C 27.94,32.9 27.95,32.89 28.01,32.87 C 28.03,32.87 28.05,32.87 28.07,32.89 C 28.71,33.75 28.66,34.55 27.91,35.31 C 27.88,35.34 27.85,35.34 27.83,35.3 L 27.4,34.66 A 0.16,0.16 0 0,1 27.37,34.55 L 27.43,34.19 Z" fill="rgb(91, 68, 32)"/>
<path d="M 37.96,32.745 C 38.17,32.99 38.27,33.13 38.24,33.18 C 38.34,33.71 38.29,34.18 38.11,34.6 C 38.09,34.64 38.06,34.65 38.03,34.6 C 37.93,34.5 37.87,34.5 37.83,34.57 C 37.73,34.43 37.65,34.27 37.59,34.08 C 37.58,34.03 37.59,34 37.65,34.01 H 37.69 C 37.72,34.03 37.73,34.01 37.74,33.98 L 37.97,32.76 Z" fill="rgb(155, 128, 60)"/>
<path d="M 38.230000000000004,33.165 C 38.74,33.67 38.42,34.18 38.32,34.75 L 38.16,34.93 C 38.06,34.91 37.96,34.79 37.84,34.57 C 37.87,34.49 37.94,34.51 38.03,34.61 C 38.06,34.65 38.09,34.64 38.11,34.6 C 38.29,34.18 38.33,33.7 38.24,33.18 Z" fill="rgb(91, 68, 32)"/>
<path d="M 16.59,34.265 A 2.02,2.02 0 0,0 15.6,34.1 C 15.48,34.11 15.4,34.1 15.37,34.05 A 0.06,0.06 0 0,1 15.36,34 A 0.06,0.06 0 0,1 15.39,33.96 C 15.89,33.8 16.29,33.9 16.6,34.28 Z M 40,34.1 C 39.44,34.15 38.97,34.44 38.58,34.94 A 0.4,0.4 0 0,0 38.34,35.03 L 38.16,34.93 L 38.32,34.75 C 38.48,34.72 38.59,34.69 38.71,34.55 C 39.03,34.18 39.43,33.97 39.91,33.91 A 0.08,0.08 0 0,1 40.01,33.97 C 40.02,34.01 40.01,34.05 39.99,34.09 Z" fill="rgb(226, 197, 122)"/>
<path d="M 38.330000000000005,35.015 A 0.4,0.4 0 0,1 38.58,34.94 C 38.63,34.94 38.68,34.96 38.71,34.99 C 38.75,35.02 38.79,35.03 38.83,35.03 A 1.52,1.52 0 0,0 40.14,34.16 A 0.63,0.63 0 0,1 40.37,34 C 40.43,33.98 40.44,34 40.41,34.06 C 40.08,34.71 39.44,35.3 38.65,35.16 C 38.47,35.14 38.36,35.09 38.34,35.03 Z" fill="rgb(91, 68, 32)"/>
<path d="M 37.510000000000005,34.425 L 37.46,34.48 C 37.43,34.5 37.42,34.52 37.43,34.56 C 37.54,35.02 37.46,35.44 37.19,35.83 C 37.16,35.86 37.13,35.87 37.1,35.83 L 36.81,35.63 C 36.78,35.56 36.81,35.44 36.88,35.27 L 37.24,34.13 V 34.1 C 37.26,34.06 37.28,34.05 37.31,34.08 C 37.41,34.18 37.47,34.3 37.51,34.44 Z" fill="rgb(155, 128, 60)"/>
<path d="M 15.59,34.085 C 15.88,34.06 16.22,34.12 16.6,34.28 C 16.97,34.39 17.26,34.64 17.47,35.01 C 16.66,35.61 15.88,34.83 15.41,34.2 C 15.35,34.15 15.41,34.12 15.61,34.1 Z" fill="rgb(91, 68, 32)"/>
<path d="M 18.63,34.144999999999996 C 18.46,34.4 18.33,34.72 18.23,35.12 C 18.07,34.69 18.18,34.35 18.57,34.1 C 18.6,34.08 18.62,34.09 18.64,34.12 V 34.16 Z M 37.24,34.13 L 36.88,35.27 C 36.8,35.32 36.75,35.34 36.72,35.32 C 36.68,35.3 36.66,35.26 36.66,35.2 L 36.74,34.78 C 36.92,34.43 37.04,34.2 37.12,34.12 C 37.15,34.07 37.19,34.07 37.24,34.13 Z" fill="rgb(226, 197, 122)"/>
<path d="M 39.99,34.085 L 40.14,34.16 C 39.85,34.7 39.41,34.99 38.83,35.03 C 38.79,35.03 38.75,35.02 38.71,34.99 A 0.21,0.21 0 0,0 38.58,34.94 C 38.98,34.44 39.44,34.15 39.99,34.09 Z" fill="rgb(155, 128, 60)"/>
<path d="M 18.22,35.105 C 18.33,34.72 18.46,34.4 18.64,34.16 C 18.69,34.13 18.74,34.16 18.78,34.24 C 19.15,34.92 19.13,35.54 18.7,36.12 C 18.67,36.17 18.64,36.17 18.61,36.12 L 18.23,35.53 A 0.13,0.13 0 0,1 18.21,35.46 L 18.23,35.12 Z" fill="rgb(123, 90, 40)"/>
<path d="M 37.510000000000005,34.425 C 37.85,34.96 37.57,35.68 37.21,36.12 C 37.18,36.16 37.15,36.16 37.12,36.13 C 36.98,36 36.88,35.83 36.82,35.63 L 37.1,35.83 C 37.13,35.87 37.16,35.86 37.19,35.83 C 37.46,35.44 37.54,35.02 37.43,34.56 C 37.42,34.52 37.43,34.5 37.46,34.48 L 37.52,34.44 Z" fill="rgb(91, 68, 32)"/>
<path d="M 36.72,34.765 L 36.66,35.2 C 36.56,35.35 36.56,35.52 36.66,35.72 L 36.51,35.8 A 0.1,0.1 0 0,0 36.45,35.89 C 36.47,36.39 36.28,36.79 35.89,37.11 L 35.8,36.92 A 0.13,0.13 0 0,1 35.81,36.8 A 0.7,0.7 0 0,0 35.91,36.36 C 35.95,36.02 36.11,35.63 36.39,35.18 L 36.73,34.78 Z" fill="rgb(155, 128, 60)"/>
<path d="M 19.59,35.205 C 19.4,35.54 19.28,35.85 19.22,36.16 C 19.12,36.16 19.08,36.08 19.1,35.92 C 19.14,35.72 19.2,35.54 19.27,35.36 C 19.34,35.19 19.45,35.15 19.6,35.22 Z M 36.4,35.18 C 36.1,35.63 35.95,36.02 35.9,36.36 C 35.87,36.45 35.8,36.47 35.72,36.44 C 35.68,36.43 35.67,36.4 35.67,36.36 C 35.74,35.82 35.97,35.43 36.39,35.18 Z" fill="rgb(226, 197, 122)"/>
<path d="M 19.209999999999997,36.144999999999996 C 19.28,35.85 19.4,35.54 19.6,35.22 C 19.94,35.62 20.1,36.05 20.1,36.51 C 20.1,36.71 20.01,36.94 19.85,37.23 C 19.82,37.28 19.79,37.28 19.75,37.23 C 19.49,36.89 19.09,36.63 19.22,36.16 Z" fill="rgb(123, 90, 40)"/>
<path d="M 17.77,35.785 C 17.27,35.6 16.78,35.55 16.3,35.65 C 16.25,35.62 16.27,35.58 16.39,35.53 C 16.93,35.3 17.39,35.39 17.78,35.8 Z M 39.27,35.63 C 39.27,35.65 39.25,35.66 39.24,35.66 C 38.64,35.51 38.1,35.69 37.64,36.22 L 37.42,36.29 C 37.39,36.29 37.37,36.29 37.36,36.27 C 37.32,36.25 37.32,36.22 37.36,36.19 C 37.79,35.82 38.66,35.17 39.26,35.47 C 39.31,35.5 39.31,35.55 39.26,35.63 Z" fill="rgb(226, 197, 122)"/>
<path d="M 37.410000000000004,36.275 L 37.64,36.22 C 37.87,36.81 39.04,35.93 39.24,35.66 C 39.25,35.66 39.26,35.66 39.27,35.63 A 0.4,0.4 0 0,0 39.47,35.52 C 39.49,35.49 39.52,35.49 39.54,35.52 L 39.55,35.57 L 39.53,35.61 C 39.1,36.17 38.27,36.84 37.49,36.48 A 0.17,0.17 0 0,1 37.41,36.41 C 37.38,36.36 37.38,36.32 37.41,36.29 Z" fill="rgb(91, 68, 32)"/>
<path d="M 17.77,35.785 C 17.76,35.96 17.88,36 18.16,35.92 C 18.21,35.9 18.25,35.92 18.27,35.96 L 18.45,36.26 C 18.48,36.3 18.47,36.33 18.43,36.36 C 17.66,36.86 16.88,36.34 16.33,35.76 A 0.08,0.08 0 0,1 16.3,35.68 V 35.65 C 16.78,35.55 17.27,35.6 17.78,35.8 Z" fill="rgb(123, 90, 40)"/>
<path d="M 39.230000000000004,35.644999999999996 C 39.04,35.93 37.87,36.81 37.64,36.22 C 38.1,35.69 38.64,35.51 39.24,35.66 Z" fill="rgb(155, 128, 60)"/>
<path d="M 36.660000000000004,35.705 C 36.71,36.33 36.5,36.82 36.04,37.2 C 36,37.23 35.97,37.23 35.94,37.2 A 0.19,0.19 0 0,1 35.89,37.1 C 36.29,36.8 36.47,36.39 36.46,35.89 A 0.1,0.1 0 0,1 36.51,35.79 L 36.67,35.72 Z" fill="rgb(91, 68, 32)"/>
<path d="M 20.639999999999997,36.115 C 20.48,36.46 20.39,36.78 20.37,37.07 C 20.29,37.07 20.24,37.02 20.22,36.91 C 20.16,36.55 20.3,36.29 20.65,36.13 Z" fill="rgb(226, 197, 122)"/>
<path d="M 20.639999999999997,36.115 C 21.17,36.78 21.46,37.45 21.15,38.18 A 0.08,0.08 0 0,1 21.07,38.23 A 0.08,0.08 0 0,1 21.01,38.16 V 38.11 L 20.96,38.03 A 1.33,1.33 0 0,1 20.26,37.2 C 20.26,37.16 20.26,37.14 20.31,37.14 C 20.36,37.12 20.39,37.1 20.37,37.07 C 20.39,36.77 20.48,36.47 20.65,36.13 Z" fill="rgb(123, 90, 40)"/>
<path d="M 35.27,36.265 V 36.35 C 34.91,36.72 34.71,37.15 34.66,37.66 H 34.57 C 34.53,37.66 34.5,37.63 34.48,37.59 C 34.36,37.19 34.91,36.46 35.18,36.22 C 35.22,36.2 35.24,36.2 35.27,36.23 L 35.28,36.28 Z" fill="rgb(226, 197, 122)"/>
<path d="M 34.59,38.055 C 35.03,37.75 35.3,37.34 35.4,36.83 L 35.39,36.71 L 35.27,36.35 L 35.28,36.28 L 35.3,36.25 C 35.33,36.22 35.35,36.22 35.37,36.25 C 35.91,36.95 35.27,37.73 34.75,38.21 L 34.73,38.22 A 0.06,0.06 0 0,1 34.65,38.19 L 34.6,38.07 Z" fill="rgb(91, 68, 32)"/>
<path d="M 35.260000000000005,36.335 L 35.39,36.71 V 36.83 C 35.29,37.33 35.03,37.75 34.59,38.07 C 34.47,37.94 34.49,37.8 34.66,37.67 C 34.71,37.16 34.91,36.72 35.27,36.35 Z" fill="rgb(155, 128, 60)"/>
<path d="M 19.52,37.325 L 19.41,37.37 C 19.36,37.37 19.33,37.37 19.29,37.34 C 18.79,36.94 18.15,36.84 17.36,37.03 C 18.02,36.58 18.74,36.68 19.53,37.34 Z M 38.3,36.98 L 38.11,37.07 C 37.53,36.72 36.91,37.05 36.41,37.42 H 36.21 V 37.38 S 36.21,37.36 36.23,37.36 C 36.79,36.84 37.46,36.66 38.23,36.79 C 38.27,36.79 38.29,36.82 38.29,36.87 V 36.98 Z" fill="rgb(226, 197, 122)"/>
<path d="M 19.52,37.325 C 19.56,37.32 19.59,37.34 19.62,37.39 C 19.63,37.43 19.62,37.47 19.59,37.49 C 19.26,37.77 18.9,37.86 18.5,37.76 C 18.12,37.66 17.74,37.42 17.36,37.03 C 18.15,36.83 18.79,36.93 19.29,37.33 C 19.33,37.37 19.36,37.38 19.41,37.37 L 19.53,37.34 Z" fill="rgb(123, 90, 40)"/>
<path d="M 38.1,37.055 A 1.6,1.6 0 0,1 36.63,37.55 A 0.17,0.17 0 0,1 36.53,37.5 A 0.31,0.31 0 0,0 36.41,37.42 C 36.91,37.05 37.54,36.72 38.11,37.07 Z" fill="rgb(155, 128, 60)"/>
<path d="M 36.21,37.415 H 36.41 C 36.46,37.44 36.5,37.47 36.53,37.5 C 36.56,37.53 36.59,37.55 36.63,37.55 A 1.6,1.6 0 0,0 38.11,37.07 L 38.29,36.98 L 38.42,36.94 A 0.03,0.03 0 0,1 38.46,36.96 A 0.03,0.03 0 0,1 38.46,37 C 37.89,37.59 36.99,38.09 36.28,37.6 C 36.19,37.54 36.18,37.49 36.22,37.43 Z" fill="rgb(91, 68, 32)"/>
<path d="M 21.79,37.065 L 21.59,37.72 C 21.47,37.72 21.41,37.67 21.39,37.6 C 21.39,37.55 21.41,37.5 21.45,37.42 C 21.52,37.32 21.57,37.2 21.6,37.09 A 0.1,0.1 0 0,1 21.7,37.03 C 21.75,37.03 21.78,37.05 21.8,37.08 Z" fill="rgb(226, 197, 122)"/>
<path d="M 22.09,37.365 A 3.74,3.74 0 0,1 22.47,38.68 A 0.08,0.08 0 0,1 22.39,38.71 L 22.35,38.7 L 21.62,38.1 C 21.49,38 21.48,37.86 21.59,37.72 L 21.79,37.08 C 21.97,37.12 22.08,37.22 22.11,37.38 Z" fill="rgb(123, 90, 40)"/>
<path d="M 34.14,37.085 L 34.06,37.25 C 33.66,37.58 33.26,38.02 33.34,38.6 C 33.34,38.64 33.31,38.68 33.25,38.73 A 0.58,0.58 0 0,1 33.05,38.45 A 0.11,0.11 0 0,1 33.05,38.35 L 33.48,37.52 C 33.61,37.38 33.78,37.23 33.98,37.09 A 0.15,0.15 0 0,1 34.06,37.06 C 34.1,37.06 34.13,37.07 34.15,37.1 Z" fill="rgb(226, 197, 122)"/>
<path d="M 34.14,37.085 C 34.18,37.1 34.2,37.1 34.21,37.12 C 34.49,37.97 33.98,38.54 33.32,38.98 L 33.22,38.95 A 0.08,0.08 0 0,1 33.17,38.86 C 33.17,38.81 33.2,38.76 33.25,38.73 C 33.31,38.68 33.34,38.63 33.34,38.6 H 33.38 C 33.41,38.6 33.44,38.6 33.46,38.58 C 33.98,38.25 34.18,37.8 34.06,37.25 L 34.15,37.1 Z" fill="rgb(91, 68, 32)"/>
<path d="M 34.050000000000004,37.235 C 34.18,37.8 33.98,38.25 33.46,38.58 A 0.14,0.14 0 0,1 33.38,38.6 H 33.34 C 33.25,38.02 33.66,37.58 34.06,37.25 Z" fill="rgb(123, 90, 40)"/>
<path d="M 22.09,37.365 C 22.56,37.78 22.91,38.5 22.5,38.98 A 3.01,3.01 0 0,1 21.62,38.11 L 22.35,38.7 A 0.08,0.08 0 0,0 22.48,38.63 C 22.44,38.25 22.32,37.83 22.11,37.38 Z" fill="rgb(91, 68, 32)"/>
<path d="M 23.0,37.894999999999996 C 23.01,38.08 22.96,38.21 22.84,38.3 C 22.74,38.1 22.75,37.92 22.86,37.75 C 22.89,37.7 22.93,37.67 22.96,37.67 C 23.01,37.67 23.06,37.68 23.1,37.72 C 23.13,37.75 23.13,37.77 23.1,37.8 L 23.01,37.91 Z M 32.78,37.68 C 32.81,37.63 32.84,37.64 32.88,37.68 C 32.86,37.75 32.88,37.77 32.91,37.74 C 32.25,38.24 31.87,38.5 31.7,39.34 C 31.44,38.55 32.26,38.07 32.78,37.68 Z" fill="rgb(226, 197, 122)"/>
<path d="M 32.89,37.725 L 33,38.27 C 33,38.32 33,38.37 32.97,38.42 C 32.7,38.94 32.29,39.31 31.74,39.52 H 31.69 A 0.07,0.07 0 0,1 31.65,39.48 C 31.63,39.44 31.65,39.39 31.7,39.34 C 31.87,38.5 32.25,38.24 32.9,37.74 Z" fill="rgb(91, 68, 32)"/>
<path d="M 20.889999999999997,38.285 L 20.71,38.38 C 20.22,38.12 19.49,37.92 18.99,38.24 H 18.84 A 0.08,0.08 0 0,1 18.8,38.17 A 0.08,0.08 0 0,1 18.84,38.09 C 19.51,37.73 20.15,37.96 20.82,38.19 C 20.88,38.22 20.92,38.26 20.91,38.31 Z" fill="rgb(226, 197, 122)"/>
<path d="M 23.0,37.894999999999996 C 23.85,38.11 24.24,38.61 24.19,39.43 C 24.19,39.49 24.15,39.52 24.09,39.5 C 23.39,39.28 22.98,38.88 22.84,38.3 C 22.96,38.21 23.01,38.08 23.01,37.91 Z" fill="rgb(123, 90, 40)"/>
<path d="M 36.690000000000005,38.155 A 1.9,1.9 0 0,0 35.15,38.37 C 35.13,38.34 35.11,38.33 35.08,38.33 A 0.07,0.07 0 0,1 35.01,38.28 A 0.07,0.07 0 0,1 35.05,38.2 C 35.5,37.99 35.99,37.88 36.5,37.89 L 36.62,37.92 C 36.85,38.04 36.88,38.12 36.69,38.17 Z" fill="rgb(226, 197, 122)"/>
<path d="M 20.7,38.365 C 20.67,38.48 20.63,38.53 20.59,38.55 C 20.01,38.79 19.48,38.71 18.99,38.28 V 38.24 C 19.49,37.92 20.22,38.12 20.71,38.38 Z" fill="rgb(123, 90, 40)"/>
<path d="M 36.690000000000005,38.155 C 36.72,38.22 36.77,38.25 36.84,38.24 C 36.38,38.62 35.88,38.74 35.34,38.62 A 0.24,0.24 0 0,1 35.24,38.56 A 0.45,0.45 0 0,0 34.95,38.43 L 35.15,38.37 A 1.9,1.9 0 0,1 36.69,38.17 Z" fill="rgb(155, 128, 60)"/>
<path d="M 34.940000000000005,38.415 C 35.05,38.43 35.15,38.48 35.24,38.56 C 35.27,38.59 35.31,38.61 35.35,38.62 C 35.88,38.75 36.38,38.62 36.84,38.24 L 37.06,38.16 A 0.08,0.08 0 0,1 37.16,38.2 A 0.08,0.08 0 0,1 37.13,38.3 C 36.49,38.8 35.64,39.14 34.9,38.56 C 34.86,38.53 34.85,38.51 34.86,38.48 C 34.87,38.46 34.9,38.44 34.96,38.43 Z" fill="rgb(91, 68, 32)"/>
<path d="M 25.009999999999998,38.615 L 24.55,38.4 C 24.5,38.37 24.46,38.39 24.44,38.43 L 24.31,38.67 C 24.21,38.68 24.17,38.65 24.18,38.57 C 24.18,38.5 24.23,38.39 24.31,38.22 C 24.33,38.19 24.36,38.18 24.4,38.18 C 24.67,38.24 24.87,38.39 25.02,38.63 Z M 31.4,38.3 C 30.76,38.59 30.3,39.05 30,39.68 C 30,39.24 30.2,38.89 30.58,38.64 L 30.9,38.4 C 31.07,38.27 31.23,38.24 31.4,38.3 Z" fill="rgb(226, 197, 122)"/>
<path d="M 30.11,39.885 C 30.22,39.87 30.19,39.87 30.02,39.89 L 29.98,39.88 C 29.94,39.87 29.93,39.84 29.95,39.81 L 30,39.68 C 30.3,39.05 30.76,38.58 31.4,38.29 C 31.4,38.25 31.44,38.24 31.48,38.25 C 31.5,38.25 31.52,38.26 31.53,38.28 C 31.55,38.29 31.55,38.32 31.55,38.34 C 31.51,39.26 30.83,39.54 30.12,39.9 Z M 18.98,38.28 C 19.48,38.71 20.01,38.79 20.59,38.55 C 20.63,38.53 20.67,38.47 20.71,38.38 L 20.91,38.31 H 20.96 C 21.02,38.31 21.03,38.33 20.99,38.38 C 20.38,39.15 19.45,38.85 18.75,38.39 C 18.71,38.37 18.71,38.34 18.75,38.31 C 18.8,38.27 18.88,38.26 18.98,38.28 Z" fill="rgb(91, 68, 32)"/>
<path d="M 25.009999999999998,38.615 C 25.54,38.68 25.82,39.07 25.85,39.8 C 25.82,39.77 25.8,39.78 25.77,39.84 A 1.98,1.98 0 0,1 24.29,38.84 A 0.1,0.1 0 0,1 24.29,38.73 L 24.31,38.67 L 24.44,38.43 C 24.46,38.39 24.5,38.37 24.54,38.4 L 25.02,38.63 Z" fill="rgb(123, 90, 40)"/>
<path d="M 27.029999999999998,38.885 C 26.98,38.98 26.94,39.01 26.91,39 A 2.16,2.16 0 0,0 25.78,38.68 C 25.68,38.66 25.68,38.6 25.75,38.51 A 0.12,0.12 0 0,1 25.86,38.47 C 26.32,38.57 26.71,38.71 27.04,38.91 Z M 29.87,38.54 C 29.81,38.61 29.77,38.67 29.67,38.69 C 28.91,38.86 28.64,39.25 28.22,39.76 C 28.16,39.74 28.15,39.7 28.18,39.66 C 28.51,39.03 29.04,38.66 29.77,38.52 C 29.82,38.51 29.85,38.52 29.87,38.54 Z" fill="rgb(226, 197, 122)"/>
<path d="M 29.849999999999998,38.525 A 0.19,0.19 0 0,1 29.98,38.54 C 30.01,38.54 30.02,38.56 30.03,38.58 C 30.04,38.6 30.05,38.62 30.04,38.64 A 1.4,1.4 0 0,1 28.84,39.78 A 1.82,1.82 0 0,0 28.26,39.99 A 0.08,0.08 0 0,1 28.18,39.94 C 28.15,39.85 28.16,39.79 28.22,39.76 C 28.64,39.25 28.92,38.86 29.67,38.69 C 29.76,38.67 29.81,38.61 29.87,38.54 Z" fill="rgb(91, 68, 32)"/>
<path d="M 27.029999999999998,38.885 C 27.31,39.08 27.51,39.34 27.62,39.7 A 0.2,0.2 0 0,1 27.48,39.93 H 27.38 C 26.61,39.72 26.05,39.6 25.73,38.77 C 25.73,38.75 25.73,38.72 25.78,38.67 C 26.16,38.67 26.54,38.78 26.91,39 C 26.93,39.01 26.98,38.98 27.04,38.9 Z" fill="rgb(123, 90, 40)"/>
<path d="M 22.36,39.055 A 0.29,0.29 0 0,1 22.09,39.19 A 1.65,1.65 0 0,0 20.41,39.29 A 0.21,0.21 0 0,1 20.29,39.32 H 20.2 C 20.16,39.28 20.15,39.25 20.19,39.22 C 20.94,38.66 21.46,38.9 22.31,38.95 C 22.34,38.95 22.36,38.97 22.36,39.01 L 22.37,39.07 Z" fill="rgb(226, 197, 122)"/>
<path d="M 22.08,39.185 C 21.92,39.8 20.83,39.56 20.44,39.38 A 0.21,0.21 0 0,0 20.32,39.35 A 0.12,0.12 0 0,0 20.22,39.43 C 20.16,39.39 20.16,39.35 20.2,39.33 H 20.29 C 20.33,39.33 20.37,39.31 20.41,39.29 C 20.91,38.95 21.48,38.92 22.09,39.19 Z" fill="rgb(123, 90, 40)"/>
<path d="M 22.49,38.975 C 22.46,39.02 22.45,39.05 22.47,39.1 A 0.1,0.1 0 0,1 22.45,39.21 C 21.92,39.94 20.9,39.86 20.21,39.43 A 0.12,0.12 0 0,1 20.31,39.35 C 20.35,39.35 20.39,39.35 20.44,39.38 C 20.84,39.56 21.92,39.8 22.09,39.19 C 22.21,39.21 22.3,39.16 22.37,39.07 C 22.39,39.03 22.44,39.01 22.5,38.99 Z" fill="rgb(91, 68, 32)"/>
<path d="M 35.230000000000004,39.175 C 35.25,39.22 35.29,39.24 35.37,39.24 C 35.37,39.32 35.34,39.36 35.29,39.38 C 34.56,39.59 34.13,39.78 33.58,39.22 A 1.97,1.97 0 0,1 35.24,39.19 Z" fill="rgb(123, 90, 40)"/>
<path d="M 33.57,39.205 C 34.13,39.78 34.56,39.59 35.28,39.38 C 35.34,39.36 35.37,39.32 35.37,39.24 C 35.57,39.19 35.67,39.26 35.65,39.44 C 34.83,39.79 34.11,40.04 33.38,39.3 A 0.06,0.06 0 0,1 33.44,39.2 L 33.58,39.22 Z" fill="rgb(91, 68, 32)"/>
<path d="M 23.91,39.705 C 23.82,39.75 23.78,39.79 23.8,39.82 A 1.7,1.7 0 0,0 22.15,40.02 A 0.96,0.96 0 0,1 21.79,40.24 A 0.3,0.3 0 0,1 21.79,40.16 C 21.79,40.13 21.79,40.11 21.82,40.08 C 22.16,39.72 22.57,39.54 23.06,39.52 C 23.28,39.51 23.53,39.62 23.8,39.56 C 23.85,39.56 23.89,39.56 23.9,39.58 C 23.93,39.61 23.93,39.66 23.92,39.72 Z M 33.59,39.88 C 32.87,39.66 32.42,39.77 31.78,39.78 L 31.74,39.72 A 0.14,0.14 0 0,1 31.78,39.62 A 0.13,0.13 0 0,1 31.88,39.59 C 32.18,39.61 32.54,39.51 32.78,39.52 C 33.11,39.54 33.38,39.66 33.58,39.88 Z" fill="rgb(226, 197, 122)"/>
<path d="M 21.779999999999998,40.225 C 21.96,40.18 22.09,40.1 22.15,40.03 C 22.68,40.5 23.23,40.43 23.8,39.83 C 23.78,39.79 23.83,39.75 23.92,39.72 C 23.96,39.69 24,39.68 24.04,39.68 A 0.06,0.06 0 0,1 24.09,39.74 V 39.77 C 23.6,40.6 22.7,40.6 21.89,40.35 C 21.81,40.33 21.77,40.29 21.79,40.25 Z" fill="rgb(91, 68, 32)"/>
<path d="M 23.79,39.815 C 23.23,40.43 22.68,40.5 22.15,40.03 A 1.7,1.7 0 0,1 23.8,39.83 Z" fill="rgb(123, 90, 40)"/>
<path d="M 33.580000000000005,39.865 L 33.97,40.06 A 0.15,0.15 0 0,1 34.02,40.29 A 0.14,0.14 0 0,1 33.95,40.34 C 33.12,40.54 32.33,40.64 31.76,39.88 A 0.06,0.06 0 0,1 31.75,39.85 V 39.81 L 31.78,39.78 C 32.42,39.77 32.88,39.66 33.58,39.88 Z M 25.85,39.8 C 25.85,40.98 24.47,41.15 23.59,40.95 C 23.54,40.95 23.53,40.92 23.57,40.88 L 23.64,40.8 A 0.3,0.3 0 0,0 23.77,40.73 C 24.56,40.96 25.14,40.78 25.53,40.19 L 25.76,39.98 C 25.79,39.98 25.8,39.98 25.8,39.94 C 25.81,39.87 25.8,39.84 25.77,39.84 C 25.8,39.78 25.82,39.77 25.85,39.8 Z" fill="rgb(91, 68, 32)"/>
<path d="M 25.75,39.964999999999996 L 25.53,40.19 C 24.79,40.06 24.21,40.24 23.77,40.73 A 0.3,0.3 0 0,1 23.64,40.8 A 0.15,0.15 0 0,1 23.6,40.7 C 23.6,40.66 23.61,40.63 23.65,40.6 C 24.18,40.09 24.79,39.97 25.45,39.84 C 25.59,39.82 25.7,39.86 25.75,39.98 Z M 30.02,39.89 A 3.5,3.5 0 0,1 31.81,40.34 A 5.87,5.87 0 0,0 30.07,40.14 C 29.99,40.11 29.95,40.07 29.96,40.01 C 29.96,39.97 29.98,39.93 30.02,39.89 Z M 27.53,40.14 L 27.41,40.27 A 2.04,2.04 0 0,0 25.71,40.99 A 0.52,0.52 0 0,1 25.55,41.16 A 0.1,0.1 0 0,1 25.48,41.14 C 25.44,41.11 25.44,41.07 25.47,41.04 C 25.97,40.33 26.63,40.23 27.35,39.97 A 0.1,0.1 0 0,1 27.47,40 C 27.51,40.04 27.53,40.1 27.53,40.14 Z M 29.73,40.6 A 3.75,3.75 0 0,0 28.18,40.21 A 0.28,0.28 0 0,1 28.18,40.06 C 28.19,40.01 28.22,39.99 28.27,40 L 29.27,40.23 C 29.59,40.3 29.74,40.43 29.73,40.59 Z" fill="rgb(226, 197, 122)"/>
<path d="M 25.52,40.175 C 25.14,40.78 24.56,40.96 23.77,40.73 C 24.21,40.23 24.79,40.06 25.53,40.19 Z" fill="rgb(123, 90, 40)"/>
<path d="M 27.52,40.125 A 0.1,0.1 0 0,1 27.59,40.14 C 27.64,40.16 27.65,40.19 27.64,40.24 C 27.3,41.12 26.38,41.4 25.52,41.33 A 0.05,0.05 0 0,1 25.49,41.31 L 25.48,41.29 V 41.27 C 25.48,41.23 25.51,41.2 25.55,41.16 A 0.52,0.52 0 0,0 25.7,40.99 C 26.37,41.22 27.16,40.99 27.4,40.27 L 27.53,40.14 Z M 30.06,40.15 C 30.58,40.12 31.16,40.18 31.81,40.33 L 32.29,40.79 A 0.07,0.07 0 0,1 32.26,40.91 C 31.32,41.19 30.56,40.98 30,40.27 C 29.96,40.22 29.98,40.17 30.06,40.15 Z M 28.18,40.21 C 28.68,40.21 29.2,40.34 29.73,40.59 C 30.09,40.59 30.31,40.8 30.4,41.23 C 30.41,41.28 30.4,41.31 30.34,41.32 C 29.58,41.37 28.54,41.16 28.17,40.37 C 28.14,40.31 28.14,40.25 28.17,40.21 Z" fill="rgb(91, 68, 32)"/>
<path d="M 27.389999999999997,40.255 C 27.16,40.99 26.37,41.22 25.7,40.99 C 26.12,40.49 26.7,40.25 27.4,40.27 Z" fill="rgb(123, 90, 40)"/>
<path d="M 33.99,42.845 L 34.03,43.01 C 34.04,43.05 34.03,43.08 33.99,43.09 C 32.69,43.63 31.54,43.95 30.52,44.05 C 29.9,44.11 29.29,44.23 28.77,44.24 C 27.63,44.26 26.47,44.18 25.29,43.99 A 0.69,0.69 0 0,1 24.77,43.65 C 27.94,44.25 31.02,43.98 34,42.85 Z" fill="rgb(155, 128, 60)"/>
</svg>
