<?xml version="1.0" encoding="UTF-8"?>
<!-- generated by Finnhub -->
<svg viewBox="0 0 55.5 55.5" xmlns="http://www.w3.org/2000/svg">
<path d="M 0,0 H 55.5 V 55.5 H 0 Z" fill="rgb(239, 242, 248)"/>
<path d="M 30.36,14.955 S 31.54,16.54 31.9,17.36 C 32.25,18.18 32.84,20.36 33,20.86 L 29.76,23.28 S 29.64,21.58 29.17,20.48 C 28.71,19.38 28.13,17.88 28.07,17.7 C 28.02,17.53 30.37,14.97 30.37,14.97 Z" fill="rgb(0, 197, 3)"/>
<path d="M 17.02,24.564999999999998 L 17.07,25.14 L 19.47,21.99 S 16.95,19.81 16.74,16.93 C 16.53,14.05 17.34,11.9 17.82,11.17 C 17.82,11.17 15.52,12.39 14.36,15.55 C 13.44,18.05 14.55,20.95 14.71,21.21 C 14.87,21.48 15.76,22.93 16.11,23.38 L 17.03,24.58 Z" fill="url(#h)"/>
<path d="M 19.509999999999998,22.044999999999998 S 17.3,19.83 17.6,17.59 A 4.49,4.49 0 0,1 20.14,14.02 A 5.4,5.4 0 0,1 24.31,13.88 C 25.95,14.59 27.66,16.65 28.22,18.12 L 31.13,16.04 S 28.89,12.48 26.58,11.13 A 8.83,8.83 0 0,0 17.82,11.19 S 16.49,13.16 16.58,15.64 C 16.65,17.85 17.39,20.57 19.52,22.06 Z" fill="url(#g)"/>
<path d="M 19.43,21.965 S 21.6,23.66 21.04,25.56 C 20.49,27.46 18.71,27.83 17.48,30.43 C 16.25,33.03 16.31,36.19 17.68,38.43 C 17.68,38.43 14.96,37 14.14,33.45 C 14.14,33.45 13.58,30.62 14.89,28.08 C 15.12,27.62 15.39,27.18 15.72,26.78 C 16.22,26.18 17.17,24.98 17.17,24.98 L 19.44,21.98 Z" fill="url(#f)"/>
<path d="M 38.96,31.384999999999998 V 30.74 L 36.48,34.01 S 39.15,36.44 39.36,39.31 C 39.58,42.19 38.74,44.03 38.26,44.76 C 38.26,44.76 40.48,43.59 41.64,40.43 C 42.56,37.93 41.45,35.03 41.29,34.77 C 41.13,34.5 40.39,33.18 39.89,32.6 C 39.52,32.17 38.97,31.4 38.97,31.4 Z" fill="url(#e)"/>
<path d="M 36.47,34.005 S 38.7,36.14 38.4,38.38 A 4.5,4.5 0 0,1 35.86,41.95 A 5.4,5.4 0 0,1 31.7,42.09 C 30.05,41.39 28.33,39.33 27.77,37.86 L 24.64,39.55 S 26.95,43.52 29.42,44.85 A 8.84,8.84 0 0,0 38.24,44.79 S 39.44,43.06 39.42,40.34 C 39.41,37.8 38.62,35.51 36.48,34.02 Z" fill="url(#d)"/>
<path d="M 36.52,34.015 S 34.37,32.35 34.93,30.45 C 35.48,28.56 37.27,28.18 38.49,25.59 C 39.71,23 39.67,19.64 38.29,17.39 A 8.57,8.57 0 0,1 41.83,22.56 S 42.4,25.4 41.09,27.93 C 40.85,28.39 40.58,28.83 40.25,29.23 L 38.8,31.04 L 36.53,34.03 Z" fill="url(#c)"/>
<path d="M 36.190000000000005,28.515 A 9.53,9.53 0 0,0 39.23,23.69 C 39.93,20.94 38.76,17.91 38.3,17.49 C 38.3,17.49 36.66,16.31 34.86,16.19 A 9.08,9.08 0 0,0 28.38,18.07 A 14.92,14.92 0 0,0 23.97,24.01 A 20.17,20.17 0 0,0 22.66,29.81 C 22.55,31.46 22.73,34.66 23.35,36.43 C 23.7,37.48 24.15,38.51 24.65,39.5 C 24.75,39.65 27.77,37.9 27.77,37.9 S 26.45,35.17 26.34,33.24 C 26.23,31.31 26.15,28.95 26.56,27.52 A 13.8,13.8 0 0,1 28.89,22.5 C 30.27,20.73 31.59,19.88 33.1,19.7 C 34.6,19.53 36.65,20.23 37.13,21.04 C 37.13,21.04 38.38,22.3 38.42,23.84 C 38.42,23.84 38.54,25.08 38.13,25.82 A 9.57,9.57 0 0,1 37.23,27.32 C 36.86,27.77 36.19,28.53 36.19,28.53 Z" fill="url(#b)"/>
<path d="M 29.72,22.785 C 29.83,24.72 29.91,27.08 29.5,28.52 A 13.88,13.88 0 0,1 27.18,33.55 C 25.79,35.33 24.47,36.15 22.96,36.35 A 4.96,4.96 0 0,1 18.93,35.01 S 17.69,33.74 17.64,32.21 C 17.64,32.21 17.54,31.05 17.94,30.22 A 6.5,6.5 0 0,1 18.84,28.73 L 19.81,27.48 S 17.6,28.9 16.83,32.35 C 16.13,35.45 17.29,38.14 17.76,38.55 C 17.76,38.55 19.4,39.73 21.19,39.85 C 22.99,39.95 25.47,39.75 27.69,37.96 A 14.92,14.92 0 0,0 32.09,32.03 A 21.17,21.17 0 0,0 33.41,26.22 C 33.7,22.74 32.81,20.25 32.81,20.25 S 31.74,21.72 30.77,21.28" fill="url(#a)"/>
<defs>
<linearGradient id="h" x1="15.3" x2="18.86" y1="13.75" y2="23.08" gradientUnits="userSpaceOnUse">
<stop stop-color="rgb(0, 195, 3)" offset=".2"/>
<stop stop-color="rgb(14, 137, 12)" offset="1"/>
</linearGradient>
<linearGradient id="g" x1="28.27" x2="17.26" y1="16.11" y2="15.99" gradientUnits="userSpaceOnUse">
<stop stop-color="rgb(0, 195, 3)" offset=".3"/>
<stop stop-color="rgb(17, 126, 14)" offset="1"/>
</linearGradient>
<linearGradient id="f" x1="19.31" x2="12.08" y1="30.24" y2="29.93" gradientUnits="userSpaceOnUse">
<stop stop-color="rgb(0, 195, 3)" offset=".27"/>
<stop stop-color="rgb(14, 137, 12)" offset=".68"/>
</linearGradient>
<linearGradient id="e" x1="40.73" x2="37.15" y1="42.19" y2="32.82" gradientUnits="userSpaceOnUse">
<stop stop-color="rgb(0, 195, 3)" offset=".2"/>
<stop stop-color="rgb(14, 137, 12)" offset="1"/>
</linearGradient>
<linearGradient id="d" x1="24.57" x2="35.75" y1="39.89" y2="40.02" gradientUnits="userSpaceOnUse">
<stop stop-color="rgb(0, 195, 3)" offset=".19"/>
<stop stop-color="rgb(19, 118, 16)" offset=".92"/>
</linearGradient>
<linearGradient id="c" x1="36.67" x2="43.89" y1="25.68" y2="25.99" gradientUnits="userSpaceOnUse">
<stop stop-color="rgb(0, 195, 3)" offset=".27"/>
<stop stop-color="rgb(14, 137, 12)" offset=".68"/>
</linearGradient>
<linearGradient id="b" x1="20.91" x2="36.64" y1="31.73" y2="23.1" gradientUnits="userSpaceOnUse">
<stop stop-color="rgb(0, 195, 3)" offset=".15"/>
<stop stop-color="rgb(19, 118, 16)" offset="1"/>
</linearGradient>
<linearGradient id="a" x1="35.62" x2="20.27" y1="26.31" y2="34.73" gradientUnits="userSpaceOnUse">
<stop stop-color="rgb(0, 195, 3)" offset=".15"/>
<stop stop-color="rgb(16, 129, 14)" offset="1"/>
</linearGradient>
</defs>
</svg>
