<?xml version="1.0" encoding="UTF-8"?>
<!-- generated by Finnhub -->
<svg viewBox="0 0 55.5 55.5" xmlns="http://www.w3.org/2000/svg">
<path d="M 0,0 H 55.5 V 55.5 H 0 Z" fill="rgb(239, 242, 248)"/>
<path d="M 46.99,14.985 C 27.18,15 14.74,31 11,39 C 21.47,23.12 36.25,18.54 42.32,18.23 C 41.95,22.29 40.3,24.53 39.52,25.15 C 43.26,23.31 46.06,17.62 47,15 Z" fill="url(#a)"/>
<path d="M 3.99,32.985 L 7.7,25 H 8.3 L 12,33 H 11.37 L 7.87,25.37 H 8.12 L 4.63,33 H 4 Z M 5.3,31 L 5.5,30.5 H 10.32 L 10.52,31 H 5.3 Z M 13,33 V 25 H 13.5 V 33 H 13 Z M 15,33 V 25 H 15.5 V 32.5 H 20 V 33 H 15 Z M 21.5,28.75 H 26 V 29.25 H 21.5 V 28.75 Z M 21.5,32.5 H 27 V 33 H 21 V 25 H 27 V 25.5 H 21.5 V 32.5 Z M 28,33 V 25 H 31.23 C 32.93,25 34.86,25.72 34.86,27.7 C 34.86,29.67 32.91,30.5 31.23,30.5 H 28.36 L 28.5,30.23 V 33 H 28 Z M 34.25,33 L 31.91,30.1 H 32.66 L 35,33 H 34.25 Z M 28.5,30.26 L 28.36,30 H 31.23 C 32.63,30 34.19,29.33 34.19,27.7 C 34.19,26.06 32.63,25.53 31.23,25.53 H 28.36 L 28.5,25.24 V 30.26 Z M 40,33 A 4.01,4.01 0 0,1 37.13,31.86 A 3.97,3.97 0 0,1 36,29 A 4.1,4.1 0 0,1 37.13,26.15 A 4.13,4.13 0 0,1 40,25 A 4.05,4.05 0 0,1 42.86,26.14 A 4,4 0 0,1 44,29 A 4.09,4.09 0 0,1 42.86,31.86 A 3.85,3.85 0 0,1 40,33 Z M 40,32.47 C 40.5,32.47 40.95,32.38 41.36,32.21 A 3.22,3.22 0 0,0 43.16,30.37 C 43.34,29.95 43.43,29.5 43.43,29 A 3.47,3.47 0 0,0 41.36,25.79 A 3.53,3.53 0 0,0 40,25.53 A 3.34,3.34 0 0,0 36.56,29 A 3.5,3.5 0 0,0 37.54,31.48 A 3.34,3.34 0 0,0 40,32.47 Z M 45,33 V 25 H 45.5 L 51.66,32.28 H 51.5 V 25 H 52 V 33 H 51.5 L 45.34,25.72 H 45.5 V 33 H 45 Z" fill="rgb(66, 117, 169)"/>
<defs>
<linearGradient id="a" x1="46.06" x2="12.21" y1="15" y2="38.02" gradientUnits="userSpaceOnUse">
<stop stop-color="rgb(77, 186, 76)" offset="0"/>
<stop stop-color="rgb(206, 222, 201)" offset="1"/>
</linearGradient>
</defs>
</svg>
