<!-- by Finnhub --><svg width="56" height="56" viewBox="0 0 56 56" xmlns="http://www.w3.org/2000/svg"><path fill="#F0F3FA" d="M0 0h56v56H0z"/><path d="M27 15c.02-1.45.19-4.69 2-4.69.82 0 1.55.21 2.2.4.54.15 1.02.29 1.47.29 1 0 2.3-.82 3.25-3 0 .43.15.62.23.66H37c-.8.94-2.78 3.07-4.33 3.07a6.77 6.77 0 0 1-2.43-.45c-.43-.15-.8-.28-1.24-.28-.97 0-1.3 2.36-1.34 4H30v3h-6v-3h3Zm-3 7h6.35c.91 0 1.65.78 1.65 1.73v2.54A1.7 1.7 0 0 1 30.35 28H24v-6Zm-5-1.19c0-1.11.5-2.11 1.3-2.81h-2.83A5.35 5.35 0 0 0 12 23.22v12.56A5.35 5.35 0 0 0 17.47 41H19V20.81Zm18 2.44c0-2.2-1.24-4.14-3.11-5.25h4.64A5.35 5.35 0 0 1 44 23.22v12.56A5.35 5.35 0 0 1 38.53 41H36l-2.9-8.4c2.3-.72 3.9-2.35 3.9-4.85v-4.5ZM27.77 33l2.73 8H24v-8h3.77Z" fill="#70A74A"/></svg>