<?xml version="1.0" encoding="UTF-8"?>
<!-- generated by Finnhub -->
<svg viewBox="0 0 55.5 55.5" xmlns="http://www.w3.org/2000/svg">
<path d="M 0,0 H 55.5 V 55.5 H 0 Z" fill="url(#a)"/>
<path d="M 10.99,19.985 H 8 V 36 H 11 V 20.5 H 15 C 17.13,20.5 19.5,22.28 19.5,25 C 19.5,28.22 17.3,29.02 14.53,29 H 13.77 L 18.59,36 H 19.27 L 14.85,29.57 C 17.82,29.57 20,28.33 20,25 C 20,21.96 18,20 15,20 H 11 Z M 27,20 H 25 V 36 H 28 V 20.5 H 31 C 33.4,20.5 35.5,22.24 35.5,25 C 35.5,28.62 32.94,29.5 30,29.5 V 30 H 30.03 C 33.26,30 36,28.94 36,25 C 36,21.91 33.7,20 31,20 H 27 Z M 44,20 H 37 V 20.5 L 41,20.53 V 36 H 44 V 20.55 L 48,20.58 V 20.01 H 44 V 20 Z" fill="rgb(254, 254, 253)"/>
<defs>
<linearGradient id="a" x1="10.42" x2="68.15" y1="9.71" y2="76.02" gradientUnits="userSpaceOnUse">
<stop stop-color="rgb(25, 29, 31)" offset="0"/>
<stop stop-color="rgb(5, 5, 8)" offset="1"/>
</linearGradient>
</defs>
</svg>
