<?xml version="1.0" encoding="UTF-8"?>
<!-- generated by Finnhub -->
<svg viewBox="0 0 55.5 55.5" xmlns="http://www.w3.org/2000/svg">
<path d="M 0,0 H 55.5 V 55.5 H 0 Z" fill="rgb(239, 242, 248)"/>
<path d="M 7.49,26.745 C 7.5,27.23 7.2,27.46 6.55,27.46 H 6 V 26 H 6.55 C 7.17,26 7.5,26.3 7.5,26.76 Z M 4,25 V 31 H 6 V 28.56 A 1.55,1.55 0 0,0 6.2,28.56 C 6.46,28.56 6.5,28.58 6.6,28.65 L 6.7,28.71 C 6.88,28.81 7.04,29 7.18,29.27 L 7.86,30.62 L 9.57,30.2 L 8.9,28.95 C 8.8,28.75 8.68,28.59 8.54,28.47 A 1.17,1.17 0 0,0 8.09,28.19 C 8.9,27.86 9.29,27.4 9.29,26.74 C 9.29,25.55 8.42,25 6.54,25 H 4 Z M 9.61,31 C 7.19,31.38 5.24,31.75 4,32 C 12.89,29.25 23.04,28.44 27.98,28.43 H 28.02 C 32.96,28.43 43.12,29.25 52,32 C 50.76,31.75 48.8,31.38 46.39,31 H 46 V 30.94 L 44.34,30.69 C 43.77,30.9 43.17,31 42.52,31 C 41.59,31 40.66,30.7 40,30.14 L 39,30.04 V 31 H 34 V 29.62 C 33,29.55 32,29.5 31,29.47 V 31 H 29 V 29.42 A 83.43,83.43 0 0,0 26,29.44 V 31 H 24 V 29.5 C 23.33,29.54 22.66,29.57 22,29.62 V 31 H 20 V 29.76 L 19,29.84 V 30.41 A 5.3,5.3 0 0,1 16.52,31 C 15.72,31 14.9,30.78 14.27,30.35 L 12,30.65 V 31 H 10 V 30.94 H 9.97 L 10,31 H 9.61 Z M 36,29.76 V 30 H 38.65 C 37.79,29.91 36.9,29.83 36,29.76 Z M 12,29.69 L 10,30.11 V 25 H 12 V 29.69 Z M 13.38,29.43 A 90.2,90.2 0 0,1 15.27,29.11 A 2.09,2.09 0 0,1 15,28.01 C 15,26.81 15.67,26.21 16.78,26.21 C 17.5,26.21 18.28,26.41 19,26.83 V 25.47 A 5.85,5.85 0 0,0 16.67,25 C 14.86,25 13,25.99 13,28 C 13,28.55 13.14,29.03 13.38,29.43 Z M 20,28.48 C 22.25,28.24 24.3,28.1 26,28.04 V 25 H 24 V 27.4 H 22 V 25 H 20 V 28.48 Z M 29,28.01 C 29.61,28.02 30.28,28.05 31,28.08 V 26 H 33 V 25 H 27 V 26 H 29 V 28.01 Z M 34,28.29 C 34.64,28.34 35.31,28.41 36,28.49 V 28.44 H 38.77 V 27.33 H 36 V 26 H 39 V 25 H 34 V 28.29 Z M 46,30.11 C 46.67,30.26 47.33,30.41 48,30.58 V 28.57 H 50 V 31 H 52 V 25 H 50 V 27.4 H 48 V 25 H 46 V 30.1 Z M 43.72,29.63 L 45,29.89 V 29.06 A 5.1,5.1 0 0,1 43.72,29.63 Z M 39.13,28.87 C 39.85,28.97 40.59,29.08 41.33,29.21 A 2,2 0 0,1 41,28 C 41,26.8 41.67,26.2 42.78,26.2 C 43.5,26.2 44.28,26.46 45,26.88 V 25.52 A 5.9,5.9 0 0,0 42.67,24.99 C 40.86,24.99 39,25.98 39,27.99 C 39,28.31 39.05,28.59 39.13,28.86 Z" fill="rgb(50, 165, 219)"/>
</svg>
