<!-- by Finnhub --><svg xmlns="http://www.w3.org/2000/svg" width="56" height="56" viewBox="0 0 56 56"><path fill="#F0F3FA" d="M0 0h56v56H0z"/><path d="M24 30.76c0 .68-.26 1.23-.78 1.65-.48.4-1.07.59-1.78.59-.95 0-1.8-.25-2.44-.8l.27-.75c.54.75 1.16 1.15 2.14 1.15.94 0 1.59-.63 1.59-1.46 0-.61-.33-1.12-1-1.51-.64-.32-1.07-.6-1.7-.93a2.02 2.02 0 0 1-1.03-1.77c0-.6.26-1.08.77-1.44.44-.33.96-.49 1.56-.49.82 0 1.45.19 1.9.57l-.31.64c-.19-.41-.89-.81-1.63-.81-.75 0-1.56.43-1.56 1.17 0 .61.35 1.11 1.04 1.5l1.92.93c.7.43 1.04 1.02 1.04 1.76zM30 33h-1v-3.8c0-1.19-.38-1.8-1.34-1.8-.53 0-.95.25-1.27.7-.31.45-.39 1.03-.39 1.73V33h-1v-9h1v4.41c.43-.93 1.03-1.41 2-1.41 1.3 0 2 .71 2 2.1V33zM42.82 32.04c.45-.56.68-1.26.68-2.1 0-.82-.2-1.5-.62-2.04-.46-.6-1.11-.9-1.94-.9-.56 0-1.02.11-1.37.34-.28.2-.56.5-.82.93L38.62 27H38v8h1v-3.15c.47.75.96 1.15 1.83 1.15.84 0 1.5-.34 1.99-.96zm-1.98-4.74c1.31 0 1.66 1.64 1.66 2.7 0 1.83-.7 2.7-1.66 2.7-1.3 0-1.84-1.53-1.84-2.7 0-1.25.51-2.7 1.84-2.7z" fill="#963A88"/><path d="M18 29.64c0-.75-.24-1.53-.72-1.97a2.7 2.7 0 0 0-1.9-.67c-.82 0-1.5.29-2.05.87A2.98 2.98 0 0 0 12.5 30c0 .87.28 1.58.82 2.15.55.57 1.27.85 2.18.85a3.8 3.8 0 0 0 2.16-.7l.07-.5c-.19.22-.47.43-.86.59-.39.15-.73.21-1.04.21-.74 0-1.17-.2-1.6-.67a2.32 2.32 0 0 1-.38-.57 2.71 2.71 0 0 1-.35-1.38c0-.8.35-2.68 1.86-2.68 1.12 0 1.64 1.1 1.64 2.43-1.04.11-3 .14-3 .14V30h4v-.36z" fill="#E87222"/><path d="M50 29.64c0-.75-.24-1.53-.73-1.97a2.7 2.7 0 0 0-1.9-.67c-.81 0-1.5.29-2.05.87A2.98 2.98 0 0 0 44.5 30c0 .87.27 1.58.82 2.15.54.57 1.27.85 2.17.85a3.8 3.8 0 0 0 2.17-.7l.06-.5c-.18.22-.47.43-.85.59-.4.15-.74.21-1.05.21-.73 0-1.16-.2-1.59-.67a2.32 2.32 0 0 1-.38-.57 2.71 2.71 0 0 1-.35-1.38c0-.8.35-2.68 1.86-2.68 1.12 0 1.64 1.1 1.64 2.43-1.04.11-3 .14-3 .14V30h4v-.36zM37 32.59a.9.9 0 0 1-.2.02c-.4 0-.8-.14-.8-.78v-3c0-.58-.15-1.03-.5-1.35a2.03 2.03 0 0 0-1.42-.48c-.77 0-1.53.23-2.08.69v.56c.46-.56 1.1-.84 1.73-.84.94 0 1.27.47 1.27 1.43v.37c-.06.02-.31.13-1 .3-.7.16-1.25.37-1.62.61-.56.37-.88.85-.88 1.44 0 .42.2.77.5 1.04.31.27.69.4 1.13.4.45 0 .83-.07 1.13-.21.2-.1.43-.27.7-.5v-.16c-.35.34-.84.44-1.27.44-.77 0-1.19-.4-1.19-1.18 0-.57.34-1 .97-1.33a10 10 0 0 1 1.53-.57v2.48c0 .91.64 1.03 1.03 1.03.36 0 .77-.16.97-.3v-.11zM18.5 16.31l-.44.83a4 4 0 0 1 2.44 3.63 4.08 4.08 0 0 1-4.12 4.03c-.45 0-.85-.02-1.29-.18l-.09.2c.44.13.93.18 1.38.18A4.56 4.56 0 0 0 21 20.34a4.57 4.57 0 0 0-2.5-4.03z" fill="#963A88"/><path d="M12 33h-1.14l-2.07-3.5h-.6l.1-.2c1.08 0 2.21-.64 2.21-2.1 0-1.58-1.13-1.8-2.21-1.8-.12 0-.29 0-.29.07V33H7v-8h1.29c1.9 0 3.21.64 3.21 2.2 0 1.27-.83 1.85-1.69 2.13.33.7 2.2 3.67 2.2 3.67zM11 20.32A5.39 5.39 0 0 1 16.43 15c.93 0 1.76.16 2.57.67l-1.25 2.07c-.4-.15-.83-.24-1.28-.24-2 0-3.47 1.55-3.47 3.47 0 1.24.65 2.33 1.63 2.94L13.9 25a5.27 5.27 0 0 1-2.9-4.68z" fill="#E87222"/></svg>