<?xml version="1.0" encoding="UTF-8"?>
<!-- generated by Finnhub -->
<svg viewBox="0 0 55.5 55.5" xmlns="http://www.w3.org/2000/svg">
<path d="M 0,0 H 55.5 V 55.5 H 0 Z" fill="rgb(239, 242, 248)"/>
<path d="M 45.580000000000005,32.985 H 42.5 V 23 H 45.65 C 46.55,23 47.33,23.2 47.98,23.6 C 48.63,24 49.13,24.57 49.48,25.31 C 49.83,26.06 50,26.95 50,27.99 C 50,29.03 49.82,29.93 49.47,30.68 A 3.87,3.87 0 0,1 47.96,32.4 C 47.3,32.8 46.51,33 45.59,33 Z M 44,31.43 H 45.5 C 46.14,31.43 46.67,31.31 47.1,31.05 C 47.51,30.79 47.83,30.41 48.05,29.9 A 5,5 0 0,0 48.37,27.99 C 48.37,27.23 48.26,26.59 48.05,26.09 C 47.83,25.58 47.52,25.19 47.1,24.95 A 2.91,2.91 0 0,0 45.55,24.57 H 44 V 31.43 Z M 39.26,26.24 A 2.61,2.61 0 0,0 38.96,25.55 C 38.83,25.35 38.68,25.17 38.5,25.02 A 1.8,1.8 0 0,0 37.9,24.7 A 2.36,2.36 0 0,0 35.85,24.98 C 35.48,25.24 35.18,25.63 34.96,26.14 C 34.75,26.64 34.64,27.26 34.64,27.99 C 34.64,28.73 34.74,29.35 34.96,29.86 C 35.18,30.36 35.47,30.76 35.86,31.02 C 36.24,31.29 36.68,31.42 37.18,31.42 C 38.65,31.42 39.42,30.32 39.42,28.92 L 39.79,29 H 37 V 27.6 H 41 V 28.78 C 41,29.61 40.84,30.5 40.5,31.1 A 3.5,3.5 0 0,1 39.15,32.51 C 38.58,32.84 37.92,33 37.17,33 C 36.34,33 35.62,32.8 34.99,32.4 A 4.07,4.07 0 0,1 33.52,30.67 A 6.25,6.25 0 0,1 33,28.01 C 33,27.22 33.1,26.52 33.3,25.91 C 33.52,25.29 33.8,24.76 34.18,24.33 A 3.72,3.72 0 0,1 37.13,23 A 4.01,4.01 0 0,1 39.67,23.9 A 3.64,3.64 0 0,1 40.93,26.24 H 39.26 Z M 26,33 V 23 H 32 V 24.52 H 27.62 V 27 H 31.33 V 28.54 H 27.62 V 33 H 26 Z M 15,23 H 17.03 L 19.73,30.25 H 19.85 L 22.55,23 H 24.58 V 33 H 23 V 26.13 H 22.91 L 20.4,33 H 19.2 L 16.68,26.12 H 16.6 V 33 H 15 V 23 Z M 11.44,23 H 13 V 29.44 C 13,30.14 12.85,30.76 12.56,31.3 C 12.27,31.83 11.86,32.25 11.34,32.55 C 10.82,32.85 10.2,33 9.5,33 C 8.8,33 8.18,32.85 7.66,32.55 C 7.13,32.25 6.72,31.83 6.43,31.3 A 3.86,3.86 0 0,1 6,29.44 V 23 H 7.56 V 29.29 C 7.56,29.69 7.64,30.06 7.8,30.39 C 7.96,30.7 8.18,30.96 8.47,31.14 C 8.77,31.32 9.1,31.41 9.5,31.41 S 10.24,31.31 10.53,31.14 C 10.82,30.96 11.04,30.7 11.2,30.38 C 11.36,30.06 11.44,29.7 11.44,29.28 V 23 Z"/>
</svg>
