<?xml version="1.0" encoding="UTF-8"?>
<!-- generated by Finnhub -->
<svg viewBox="0 0 55.5 55.5" xmlns="http://www.w3.org/2000/svg">
<path d="M 0,0 H 55.5 V 55.5 H 0 Z" fill="rgb(29, 74, 134)"/>
<path d="M 20.919999999999998,40.985 H 12 C 11.95,34.47 19.44,23.77 21.67,20.9 C 23.91,18.03 20.93,13 26.88,13 C 32.84,13 39,15.15 39,22.33 C 39,29.51 31,26.61 31,33.07 C 31,38.24 39.8,39.83 44.01,40.07 V 41 H 38.81 C 30.61,41 23.98,35.76 23.98,30.73 C 23.98,25.71 31.99,21.69 31.99,19.53 C 31.99,17.38 27.64,14.43 26.15,15.87 C 24.66,17.31 26.98,17.52 26.98,20 C 26.98,22.33 24.48,25.28 22.43,30.23 C 21.23,33.1 20.94,38.61 20.94,41 Z" fill="rgb(254, 254, 253)"/>
</svg>
