<?xml version="1.0" encoding="UTF-8"?>
<!-- generated by Finnhub -->
<svg viewBox="0 0 55.5 55.5" xmlns="http://www.w3.org/2000/svg">
<path d="M 0,0 H 55.5 V 55.5 H 0 Z" fill="rgb(239, 242, 248)"/>
<path d="M 10.05,23.814999999999998 A 7.3,7.3 0 0,1 11.96,23.16 C 12.86,22.96 13.86,23 14.8,23.02 C 15.53,23.03 16,23.51 16,24 C 16,24.71 15.22,25 14.63,25 C 13.66,24.99 13,25 12.26,25.14 A 3.46,3.46 0 0,0 10,28.25 V 31.89 C 10,32.56 9.6,33.01 9,33 C 8.35,32.99 8,32.47 8,31.82 V 24.2 C 8,23.53 8.36,23.05 9,23.03 C 9.55,23.01 9.87,23.37 10.06,23.84 Z M 20.33,33.28 L 17.1,24.63 C 16.53,23.09 18.52,22.34 19.05,23.76 C 19.83,25.86 20.6,27.85 21.35,29.89 C 21.38,29.95 21.44,30 21.5,30 C 21.55,30 21.6,29.96 21.63,29.88 C 22.34,27.96 23.05,26.15 23.73,24.28 C 24.01,23.57 24.18,23.05 24.91,23 C 25.46,22.96 26.02,23.49 26,24.09 C 26,24.27 25.94,24.49 25.85,24.74 C 24.3,28.89 22.64,33.06 21.07,37.25 C 20.6,38.51 18.99,38.03 19,36.9 C 19,36.76 19.03,36.6 19.1,36.43 C 19.47,35.45 19.96,34.45 20.33,33.42 A 0.2,0.2 0 0,0 20.33,33.28 Z" fill="rgb(238, 49, 89)"/>
<path d="M 34.99,19.335 V 23.67 S 34.95,23.8 34.86,23.75 A 6.16,6.16 0 0,0 31.86,23 A 5.06,5.06 0 0,0 27,28.1 A 5.03,5.03 0 0,0 31.84,32.98 L 34.22,33 C 35.67,33.01 37,32.07 37,30.49 V 19.27 C 37,18.58 36.72,17.99 36,18 C 35.27,18 35,18.7 35,19.35 Z M 32,25 C 30.34,25 29,26.17 29,28 C 29,29.8 30.58,31 32.14,31 H 33.74 C 34.42,31 34.98,30.47 35,29.8 V 28.57 C 35.03,26.9 34.13,25.01 32,25 Z M 40.5,29.05 C 40.52,29.02 40.55,29 40.58,29 H 46.44 C 47.27,29 48.03,28.83 48,27.85 A 5.07,5.07 0 0,0 43,23 A 5.06,5.06 0 0,0 38,28 A 5.05,5.05 0 0,0 43,33 C 44.1,33 46.69,32.38 46.67,30.92 C 46.67,30.32 46.16,29.84 45.57,29.83 C 45.31,29.83 45.06,29.92 44.83,30.09 C 44.26,30.51 43.66,30.77 43.01,30.78 C 41.5,30.78 40.51,29.73 40.51,29.05 Z M 43,25 C 41.74,24.99 41,25.96 40.53,26.9 V 26.94 C 40.53,26.97 40.55,27 40.59,27 H 45.4 C 45.44,27 45.48,26.96 45.48,26.92 L 45.47,26.88 C 44.97,25.98 44.5,25.02 43.01,25 Z" fill="rgb(238, 49, 89)" fill-rule="evenodd"/>
<path d="M 31.99,28.985 A 1,1 0 1,0 32,27 A 1,1 0 0,0 32,29 Z" fill="rgb(248, 143, 166)"/>
</svg>
