<?xml version="1.0" encoding="UTF-8"?>
<!-- generated by Finnhub -->
<svg viewBox="0 0 55.5 55.5" xmlns="http://www.w3.org/2000/svg">
<path d="M 0,0 H 55.5 V 55.5 H 0 Z" fill="rgb(239, 242, 248)"/>
<path d="M 11.99,40.144999999999996 C 15.1,41.09 25.73,43.59 40.91,40.76 C 40.09,42.61 25.45,45.23 12,40.16 Z" fill="rgb(87, 135, 164)"/>
<path d="M 36.82,43.025 C 31.23,43.96 19.27,45.04 16.24,41.94 C 18.54,42.75 25.89,44.12 36.84,43.04 Z" fill="rgb(87, 135, 164)"/>
<path d="M 13.06,40.025 A 7.3,7.3 0 0,1 12.51,36.49 C 15.19,36.76 18.11,35.81 19.24,35.31 V 36.49 C 19.16,36.89 17.84,37.33 17.18,37.5 C 19.77,37.37 24.52,34.93 26.58,33.72 L 26.8,31.26 L 27.58,23.19 V 15.51 L 26.88,11.67 L 27.58,11.29 L 28.58,20.03 C 28.62,21.38 28.02,29.34 27.71,33.16 C 33.17,30.12 38.12,29.58 39.91,29.69 L 46,25.9 L 41.18,30.3 C 41.18,31 41,31.52 40.92,31.69 C 39.01,30.03 35.78,31.17 34.4,31.94 C 35.1,31.84 36.77,31.61 37.92,31.48 C 39.07,31.34 38.89,31.9 38.66,32.19 A 17.6,17.6 0 0,0 36.49,36.97 C 37.22,34.94 38.79,32.94 39.49,32.19 C 39.97,31.45 40.64,31.89 40.92,32.19 C 40.58,32.97 39.52,34.96 37.92,36.75 A 9.82,9.82 0 0,0 35.57,41.1 C 22.72,42.66 15.22,41.05 13.07,40.05 Z" fill="rgb(88, 88, 87)"/>
<path d="M 27.509999999999998,9.985 H 24.82 A 5.23,5.23 0 0,1 24.44,12.69 A 28.2,28.2 0 0,1 28.99,12.83 C 29.04,12.65 29.07,12.07 28.82,11.17 A 1.53,1.53 0 0,0 27.52,10 Z M 26.8,13.3 C 24.39,13.28 21.9,13.52 20.96,13.64 C 21.96,17.35 20.55,20.63 19.72,21.8 C 20.92,21.95 24.13,22.09 27.38,21.44 C 30.63,20.79 32.57,21.17 33.14,21.44 C 33.26,20.97 33.41,19.37 32.99,16.8 C 32.47,13.58 29.83,13.33 26.8,13.3 Z M 28.04,22.11 C 25.3,22.65 18.96,22.9 16.13,22.95 C 18.78,27.95 16.5,32.22 15.03,33.73 C 22.83,31.93 27.57,31.71 30.08,31.97 C 30.98,31.67 32.14,30.97 32.93,30.97 A 14.8,14.8 0 0,0 34.46,25.64 C 34.6,22.34 31.46,21.44 28.04,22.11 Z" fill="rgb(87, 135, 164)"/>
<path d="M 35.09,28.735 C 37.49,19.78 34.78,15.27 33.14,14.15 C 40.83,17.79 42.36,25.67 42.16,29.15 C 40.94,27.64 36.95,28.25 35.11,28.75 Z" fill="rgb(87, 135, 164)"/>
</svg>
