<?xml version="1.0" encoding="UTF-8"?>
<!-- generated by Finnhub -->
<svg viewBox="0 0 55.5 55.5" xmlns="http://www.w3.org/2000/svg">
<path d="M 0,0 H 55.5 V 55.5 H 0 Z" fill="rgb(239, 242, 248)"/>
<path d="M 45.63,32.455 H 46.22 A 18.63,18.63 0 0,0 27.84,16 A 18.63,18.63 0 0,0 9.46,32.47 H 10.04 A 18.05,18.05 0 0,1 27.84,16.59 C 36.97,16.59 44.51,23.51 45.64,32.47 Z M 45.06,32.47 A 17.47,17.47 0 0,0 27.84,17.17 C 19.04,17.17 11.76,23.84 10.63,32.47 H 11.21 A 16.88,16.88 0 0,1 27.84,17.77 C 36.33,17.77 43.34,24.17 44.47,32.47 H 45.06 Z" fill="rgb(96, 159, 62)"/>
<path d="M 15.09,35.394999999999996 C 13.25,35.88 8.93,36 7,36 C 9.32,35.53 11.82,33.84 12.79,33.06 V 31.88 H 13.37 V 33.06 L 15.68,30.71 V 28.94 H 16.26 V 30.12 L 18,29.52 C 17.54,30 17.8,30.9 18,31.29 L 16.26,33.65 C 18.58,32.24 20.32,31.88 20.89,31.88 C 22.05,31.88 23.21,33.65 25.53,33.65 C 27.38,33.65 29.39,33.25 30.16,33.05 L 27.84,34.82 A 42.3,42.3 0 0,0 22.05,34.24 C 19.74,34.24 17.42,34.82 15.11,35.41 Z" fill="rgb(20, 156, 75)"/>
<path d="M 24.36,32.455 H 28.42 C 26.68,32.47 24.37,27.17 23.22,27.17 C 22.05,27.17 22.63,27.77 20.9,28.35 C 19.16,28.95 19.16,29.53 19.16,30.12 S 20.89,30.12 22.06,31.29 A 3.65,3.65 0 0,0 24.36,32.47 Z" fill="rgb(101, 187, 78)"/>
<path d="M 24.939999999999998,27.745 C 26.34,28.24 28.61,30.31 29.58,31.29 C 29.12,30.35 29,26.98 29,25.41 C 29,25.81 29.23,26.82 30.16,27.76 C 31.08,28.71 31.32,30.51 31.32,31.29 C 31.32,29.89 34.4,28.75 35.95,28.35 C 34.55,27.41 32.28,26 31.32,25.41 L 32.47,27.18 C 31.32,26.2 28.88,24.24 28.42,24.24 C 27.96,24.24 25.92,26.59 24.95,27.76 Z" fill="rgb(16, 157, 72)"/>
<path d="M 32.46,35.985 A 21.3,21.3 0 0,0 29,34.82 L 30.74,33.65 L 32.47,36 Z" fill="rgb(101, 187, 78)"/>
<path d="M 34.2,35.394999999999996 A 33.52,33.52 0 0,1 31.31,33.65 L 33.06,36 H 40 C 39.42,35.8 38.26,35.3 38.26,34.82 C 38.26,34.35 39.42,34.62 40,34.82 C 39.42,34.43 38.38,33.52 38.84,33.06 C 39.42,32.47 41.16,33.65 42.32,34.24 A 74.6,74.6 0 0,0 46.37,36 H 51 A 9.5,9.5 0 0,1 45.79,34.24 V 33.64 H 45.21 V 34.24 L 44.05,33.64 V 31.3 H 43.47 V 33.07 L 42.32,32.48 V 30.72 H 41.74 V 31.89 L 39.42,30.13 L 40.58,31.89 C 40,31.89 38.26,28.95 37.68,28.95 H 35.37 C 34.44,28.95 33.07,31.03 32.5,32.01 H 35.97 C 36.9,32.01 37.49,32.68 37.68,33.07 C 37.49,32.87 36.88,32.48 35.95,32.48 C 35.02,32.48 33.25,33.26 32.47,33.66 L 34.21,35.42 Z" fill="rgb(114, 184, 89)"/>
<path d="M 30.15,21.285 L 24.36,26.59 C 24.18,26.39 23.5,26.5 23.21,26.5 C 22.75,26.5 22.25,26.78 22.05,27.18 L 16.85,28.35 L 21.47,27.18 L 16.27,26.58 H 21.47 L 18,24.83 L 22.05,26 L 19.15,23.65 L 22.63,25.41 L 20.32,23.06 L 23.21,24.82 L 21.47,21.88 L 23.79,24.82 L 22.63,21.29 L 24.08,24.82 L 24.37,20.71 V 24.82 L 26.68,20.71 L 24.95,24.82 L 28.42,20.71 L 25.52,24.82 L 30.16,21.29 Z" fill="rgb(250, 109, 44)"/>
</svg>
