<?xml version="1.0" encoding="UTF-8"?>
<!-- generated by Finnhub -->
<svg viewBox="0 0 55.5 55.5" xmlns="http://www.w3.org/2000/svg">
<path d="M 0,0 H 55.5 V 55.5 H 0 Z" fill="rgb(239, 242, 248)"/>
<path d="M 7.99,17.985 V 29 H 10 V 24.9 C 11.65,25.03 15.14,24.45 15,21.11 C 14.99,20.08 14.34,18 11.81,18 H 8 Z M 11.5,20 H 10 V 23 H 11.5 A 1.5,1.5 0 0,0 11.5,20 Z M 21,29 C 23.76,29 26,26.52 26,23.47 C 26,20.42 24.27,18 21,18 C 18.24,18 16,20.42 16,23.47 S 17.58,29 21,29 Z M 21,27 C 22.66,27 24,25.42 24,23.48 S 22.96,20 21,20 C 19.34,20 18,21.54 18,23.48 S 18.95,27 21,27 Z M 43,29 C 45.76,29 48,26.52 48,23.47 C 48,20.42 46.27,18 43,18 C 40.24,18 38,20.42 38,23.47 S 39.58,29 43,29 Z M 43,27 C 44.66,27 46,25.42 46,23.48 S 44.96,20 43,20 C 41.34,20 40,21.54 40,23.48 S 40.95,27 43,27 Z" fill="rgb(151, 1, 44)" fill-rule="evenodd"/>
<path d="M 27.99,28.985 V 18 H 30.2 L 34,25.28 V 18 H 36 V 29 H 34.07 L 30,21.54 V 29 H 28 Z" fill="rgb(151, 1, 44)"/>
<path d="M 14.92,30.335 L 15.55,31.29 L 15.42,31.59 A 3.2,3.2 0 0,0 12.62,30.35 A 3.7,3.7 0 0,0 9,34.05 A 3.6,3.6 0 0,0 12.62,37.61 C 14.14,37.61 15.06,36.91 15.33,36.55 L 15.55,36.67 L 14.93,37.61 A 7,7 0 0,1 12.62,38 C 11.38,37.98 8,37.92 8,34.06 C 8,30.19 11.12,30 12.41,30 C 13.45,30 14.51,30.23 14.93,30.35 Z M 22.43,37.6 V 38 H 24.53 V 37.6 C 24.13,37.6 24.01,37.15 24,36.92 V 30.5 C 24.56,30.44 26.24,30.5 26.24,32.15 C 26.24,33.46 25.24,33.82 24.74,33.84 V 34.14 C 25.09,34.16 27.28,34.1 27.24,32.04 A 1.93,1.93 0 0,0 25.33,30 H 22.44 V 30.37 C 22.86,30.38 22.99,30.62 23.01,30.73 V 36.92 C 22.98,37.49 22.62,37.62 22.44,37.61 Z M 29.59,30 H 27.4 V 30.36 C 27.77,30.36 27.95,30.59 28,30.71 V 37.11 C 27.96,37.56 27.59,37.65 27.4,37.64 V 38 H 29.59 V 37.64 A 0.55,0.55 0 0,1 29,37.11 V 30.71 C 29,30.31 29.4,30.31 29.59,30.36 V 30 Z M 30.26,31.7 V 29.6 L 30.82,30.03 H 36.05 L 36.69,29.6 V 31.7 C 36.52,30.82 35.93,30.56 35.65,30.54 H 34 V 37.33 C 34.02,37.59 34.4,37.65 34.58,37.65 V 38 H 32.4 V 37.65 C 32.74,37.64 32.95,37.43 32.99,37.33 V 30.54 H 31.42 C 30.64,30.56 30.32,31.32 30.25,31.7 Z" fill="rgb(94, 95, 96)"/>
<path d="M 35.35,37.985 H 36.82 V 37.68 H 36.47 L 37.69,34.63 H 39.69 L 40.88,37.68 H 40.55 V 38 H 42.5 V 37.68 C 42.36,37.7 42.03,37.58 41.8,37.05 L 39.05,30 L 36.13,37.23 A 0.86,0.86 0 0,1 35.36,37.68 V 38 Z M 39.47,34.06 L 38.7,32.1 L 37.92,34.06 H 39.47 Z" fill="rgb(94, 95, 96)" fill-rule="evenodd"/>
<path d="M 44.660000000000004,29.985 H 42.32 V 30.4 C 42.74,30.4 42.97,30.68 43,30.82 V 37.22 C 43.07,37.61 42.44,37.66 42.15,37.64 V 38 H 48 V 36 H 47.6 C 47.7,37.02 47.04,37.38 46.7,37.48 H 44.96 C 44.32,37.38 44.03,36.85 44,36.59 V 30.82 C 43.98,30.38 44.46,30.36 44.67,30.4 V 30 Z M 15.3,38 H 16.76 V 37.68 H 16.41 L 17.21,35.7 C 16.95,35.86 16.71,36.03 16.47,36.22 L 16.07,37.22 A 0.86,0.86 0 0,1 15.29,37.68 V 38 Z M 17,34.88 L 16.65,35.75 C 16.88,35.58 17.12,35.43 17.36,35.28 L 17.79,34.21 C 17.51,34.43 17.25,34.66 17,34.88 Z M 19,33.05 L 18.63,32.1 L 17.98,33.74 C 17.71,33.94 17.46,34.14 17.22,34.34 L 19,30 L 19.99,32.54 C 19.65,32.7 19.33,32.87 19.02,33.05 Z M 19.1,33.3 L 19.46,34.22 C 19.81,34.08 20.16,33.95 20.48,33.85 L 20.07,32.78 C 19.73,32.94 19.41,33.12 19.1,33.3 Z M 20.58,34.1 C 20.25,34.2 19.9,34.33 19.56,34.47 L 20.81,37.68 H 20.48 V 38 H 22.42 V 37.68 C 22.29,37.7 21.96,37.58 21.73,37.05 L 20.58,34.09 Z" fill="rgb(94, 95, 96)"/>
<path d="M 22.93,33.365 L 22.15,31.94 C 18.65,32.69 16.04,35.43 15.17,36.7 L 15.44,36.88 C 17.83,34.53 21.44,33.57 22.94,33.38 Z" fill="rgb(151, 1, 44)"/>
</svg>
