<?xml version="1.0" encoding="UTF-8"?>
<!-- generated by Finnhub -->
<svg viewBox="0 0 55.5 55.5" xmlns="http://www.w3.org/2000/svg">
<path d="M 0,0 H 55.5 V 55.5 H 0 Z" fill="rgb(239, 242, 248)"/>
<path d="M 37.99,12.985 H 30 C 32.4,20.6 39.67,29.5 43,33 V 18 C 43,14.4 39.67,13.17 38,13 Z" fill="url(#d)"/>
<path d="M 12.99,17.985 V 28 L 14,26 L 43,38.5 V 37.5 L 16.5,21.5 L 18,20 L 43,37 V 35.5 L 22,16.5 L 26,13 H 18 C 14,13 13,16.33 13,18 Z" fill="url(#c)"/>
<path d="M 42.49,38.985 L 13,28 V 32.5 L 42.5,39.5 V 39 Z" fill="url(#b)"/>
<path d="M 17.99,42.985 C 16.4,43 15.33,42 15,41.5 H 41.5 C 41.1,42.7 39,43 38,43 H 18 Z" fill="rgb(53, 53, 52)"/>
<path d="M 12.99,37.485 V 34.5 L 42.5,40 L 41.5,41 C 35.9,40.6 20.17,38.5 13,37.5 Z" fill="url(#a)"/>
<defs>
<linearGradient id="d" x1="34.5" x2="42.5" y1="13" y2="32" gradientUnits="userSpaceOnUse">
<stop stop-color="rgb(53, 192, 232)" offset="0"/>
<stop stop-color="rgb(42, 163, 233)" offset="1"/>
</linearGradient>
<linearGradient id="c" x1="14.5" x2="43" y1="14.5" y2="37.5" gradientUnits="userSpaceOnUse">
<stop stop-color="rgb(97, 97, 96)" offset="0"/>
<stop stop-color="rgb(63, 63, 62)" offset="1"/>
</linearGradient>
<linearGradient id="b" x1="13.5" x2="42.5" y1="30" y2="39.5" gradientUnits="userSpaceOnUse">
<stop stop-color="rgb(70, 70, 69)" offset="0"/>
<stop stop-color="rgb(59, 59, 58)" offset="1"/>
</linearGradient>
<linearGradient id="a" x1="13" x2="42.5" y1="35.5" y2="40.5" gradientUnits="userSpaceOnUse">
<stop stop-color="rgb(62, 62, 61)" offset="0"/>
<stop stop-color="rgb(54, 54, 53)" offset="1"/>
</linearGradient>
</defs>
</svg>
