<!-- by Finnhub --><svg width="56" height="56" viewBox="0 0 56 56" xmlns="http://www.w3.org/2000/svg"><path fill="#F0F3FA" d="M0 0h56v56H0z"/><path d="M27.19 13c5.2 0 8.13 1.08 9.22 2.17-2.17-1.09-9.78-.58-11.4 0-7.59 2.71-8.67 5.42-8.67 9.22a6.26 6.26 0 0 0 3.25 5.42c-3.47.44-5.78-2.7-6.5-4.34.54 6.51 8.34 6.19 11.38 5.43 4.34-1.09 8.68-7.05 11.94-2.17C39.26 33 29.9 37.4 23.93 37.4 17.97 37.4 12 34.15 12 26 12 17.89 20.68 13 27.19 13Z" fill="url(#arutualcd)"/><path d="M31.53 27.64c-3.26 2.72-8.68 4.34-13.02 4.34.9.36 5.53.87 8.13 0 2.6-.86 4.34-3.25 4.89-4.34Z" fill="#F5FFFF"/><path d="M33.63 34.58a20.3 20.3 0 0 1-9.7 2.83c-1.8 0-3.6-.3-5.23-.94-1-1-1.7-2.17-1.82-2.86 1.09.54 4.02 1.63 7.05 1.63 2.2 0 5.51-2.02 8.1-3.6 1.88-1.14 3.38-2.05 3.83-1.83.73.36-.23 2.65-2.23 4.77Z" fill="#B1D7FB" fill-opacity=".6"/><path d="M15.34 28.45a5.46 5.46 0 0 0 4.25 1.36 6.26 6.26 0 0 1-3.25-5.42c0-3.8 1.08-6.5 8.68-9.22 1.61-.58 9.22-1.09 11.39 0-1.09-1.09-4.02-2.17-9.22-2.17-2.08 0-4.38.5-6.55 1.44-2.49 1.72-5.1 4.47-5.93 8.32-.58 2.72-.17 4.52.63 5.69Z" fill="url(#brutualcd)"/><path d="M18.5 25.47c-1.73-6.94 7.24-9.4 11.94-9.76C39.66 15.17 44 21.14 44 25.47c0 4.34-2.52 6.77-3.8 8.68a17.15 17.15 0 0 0-2.17 5.97c-1.73-1.3-1.08-4.88-.54-6.51-3.72 4.34.26 9.4 2.71 11.39-5.64-1.3-7.05-6.33-7.05-8.68 1.45-1.08 4.45-4.01 4.88-7.05.44-3.04-1.98-3.8-3.25-3.8 0-.18.65-.54 3.25-.54s3.62 2.9 3.8 4.34c.72-1.8.98-5.42-3.8-5.42-5.96 0-10.84 5.42-14.64 5.42-3.04 0-4.52-2.53-4.88-3.8Z" fill="url(#crutualcd)"/><path d="M28.27 26.02c-1.3.86-3.8 2.17-5.42 2.17 3.8.54 7.05-2.72 9.76-4.34 2.17-1.3 5.24-1.27 6.5-1.09-4.33-1.62-9.21 2.17-10.84 3.26Z" fill="#F5FFFF"/><path d="M37.75 27.09c-.65-1.25-2.1-1.62-2.97-1.62 0-.18.65-.54 3.25-.54 1.26 0 2.15.68 2.75 1.54.16 1.28-.8 2.65-1.6 3.8l-.06.09c0-1.44-.57-2.51-1.37-3.27Z" fill="url(#drutualcd)"/><path d="M41.65 19.73c-3.5-.51-7.46-.9-11.2-.22-4.14.75-9.1 3.99-11.89 6.13a3.9 3.9 0 0 1-.05-.17c-1.74-6.94 7.23-9.4 11.93-9.76 5.34-.31 9.04 1.55 11.21 4.02Z" fill="url(#erutualcd)"/><defs><linearGradient id="arutualcd" x1="24.47" y1="13" x2="24.47" y2="37.41" gradientUnits="userSpaceOnUse"><stop stop-color="#297DD3"/><stop offset=".47" stop-color="#22A4DA"/><stop offset=".79" stop-color="#65C2EE"/><stop offset="1" stop-color="#69C2EA"/></linearGradient><linearGradient id="brutualcd" x1="28.81" y1="13" x2="17.42" y2="29.27" gradientUnits="userSpaceOnUse"><stop stop-color="#267AC3"/><stop offset="1" stop-color="#326786"/></linearGradient><linearGradient id="crutualcd" x1="31.14" y1="15.68" x2="37.49" y2="44.46" gradientUnits="userSpaceOnUse"><stop stop-color="#B1C83C"/><stop offset=".42" stop-color="#8EBA3D"/><stop offset="1" stop-color="#379851"/></linearGradient><linearGradient id="drutualcd" x1="36.55" y1="25.47" x2="39.16" y2="29.52" gradientUnits="userSpaceOnUse"><stop stop-color="#647A39"/><stop offset="1" stop-color="#648F33"/></linearGradient><linearGradient id="erutualcd" x1="18.51" y1="23.85" x2="41.29" y2="19.51" gradientUnits="userSpaceOnUse"><stop stop-color="#E2EECA"/><stop offset="1" stop-color="#BBD04D"/></linearGradient></defs></svg>