<!-- by Finnhub --><svg width="56" height="56" viewBox="0 0 56 56" xmlns="http://www.w3.org/2000/svg"><path fill="#F0F3FA" d="M0 0h56v56H0z"/><path d="M30.52 30.98c-.65.14-.8-.62-1.22-.93-.03-.78-.52-.9-1.15-1.55-.5-.7.3-.72 1.25.29.3.47.38.7.93.87.82.1.9 1.17.19 1.32ZM23.2 30.22c1.12-.87.85 1.03.47 1.54-.62.83-2.21 2.13-3.33 2.24-1.16.1 1.04-2.33 1.1-2.35 1.37-.68.73-.63 1.76-1.43Z" fill="#191717"/><path d="M28.83 24.12 28.24 12l-.63 12.87-3.43-12.37 2.4 13.64 1.3-.29v-.03h.48l-.01.03 1.31.29-.31.65 1.24.5.03-.06.24.16.77.78.07-.08.5.78.47-.31.45 1.02 10.94-5.28-10.72 3.8 10.89-7.48-11.56 6.48 8.93-9.22-9.1 7.8 6.5-10.2-7.7 9.9 4.34-11.69-5.97 12.43 2.38-13.62-3.22 11.62Zm-2.23 2.1-6-12.53 4.25 11.65-7.62-9.86 6.31 10.03-8.9-7.63 8.87 9.2L12 20.62l11.52 8 .58-.91.22.23.94-.96-.1-.08.39-.26 1.04-.43Zm-3.98 2.17-10.88-3.91 10.35 5.13.53-1.22Zm-11.73-.55 7.68 1.22-.61.82-7.07-2.04Zm23.2 1.28 11.37-1.63-9.96 2.9-1.4-1.27ZM47 30.87l-10.81-.55.83 1.35 9.98-.8Zm-32.36.1-4.64.21 4.28.36.36-.57Z" fill="#C78934"/><path d="M47 35h-5.4c.25-1.07 1.91-.98 2.8-1 1.19-.02 2.35-.02 2.6 1Zm-27.72-5.4c.23.5.56.92 1.15.88.89-.05 2-1.1 2.6-1.53.65-.18 3.3-2.16 4.04-2.76 1.67 0 3.1 1.55 4.37 2.52.72.8.55.23.6 1 .87.58 1 .09 1.94.37 1.82.54 4.85 3.09 5.46 4.92H14.37c.04-.94.82-1.06.58-2.6-2.2.72-.37 2.55-3.99 2.6-.74.01-1.46 0-1.88-.3.07-.1 3.62-2.18 3.95-2.37 2.16-.64 3.58-2.55 6.25-2.73ZM8.21 34.33c-1.32.9-2.61.7-2.1 1.27.37.4 2.06.4 2.72.4h39.49c.46-.02 1.57-.23 1.68-.55-.32-.44-.52-.12-1.04-.64-.55-.55-.42-.88-1.1-.99-.08-.39-.78-.92-1.06-1.14-2.05-.6 0 .32-3.09.32-2.71 0-6.6-.63-7.86-3.08-1.61-1.35-3.6-1.45-5.1-3.1a8.73 8.73 0 0 0-1.76-1.53c-1.14-.67-1.73-.04-2.38.52-.68.59-2.38 1.07-3.37 1.73-.82.54-1.52 1.51-2.43 1.63-.88-.23-.77-.33-1.93-.3-1.2.02-1.02.64-2.37 1.05-.63.02-1.98.57-2.75.73-1.31 1.24-4 2.6-5.55 3.68Z" fill="#191717"/></svg>