<?xml version="1.0" encoding="UTF-8"?>
<!-- generated by Finnhub -->
<svg viewBox="0 0 55.5 55.5" xmlns="http://www.w3.org/2000/svg">
<path d="M 0,0 H 55.5 V 55.5 H 0 Z" fill="rgb(239, 242, 248)"/>
<path d="M 26.99,12.985 H 13 V 27 H 27 V 13 Z M 15,20 C 15,22.87 17.78,25 20.52,25 C 21.28,25 21.89,24.73 22.49,24.46 C 22.97,24.24 23.44,24.03 24,23.96 C 24.11,23.93 24.18,23.89 24.21,23.83 A 0.38,0.38 0 0,0 24.27,23.64 C 24.27,23.59 24.25,23.54 24.21,23.5 V 23.49 C 24.13,23.36 24,23.15 24,23 V 22 L 24.03,21.68 C 24.07,21.15 24.11,20.66 24.7,20.52 A 0.5,0.5 0 0,0 24.9,20.42 C 24.96,20.38 25,20.32 25,20.24 C 25,20.14 24.96,20.09 24.9,20.06 A 0.33,0.33 0 0,0 24.71,20 H 20.83 A 0.5,0.5 0 0,0 20.63,20.06 A 0.2,0.2 0 0,0 20.52,20.24 C 20.52,20.31 20.56,20.38 20.64,20.44 A 0.6,0.6 0 0,0 20.86,20.54 C 21.66,20.62 22.08,21.21 22.02,22.09 V 23 C 21.97,23.97 21.47,24.3 20.53,24.3 C 18.16,24.3 17,22.04 17,20 C 17,17.93 18.52,15.7 20.76,15.7 C 22.06,15.7 22.96,16.29 23.5,17.45 A 2,2 0 0,0 23.64,17.7 C 23.69,17.77 23.77,17.8 23.88,17.8 A 0.2,0.2 0 0,0 24.05,17.71 A 0.3,0.3 0 0,0 24.12,17.51 A 17.94,17.94 0 0,0 23.95,15.81 A 0.3,0.3 0 0,0 23.88,15.63 A 0.42,0.42 0 0,0 23.71,15.52 A 8.44,8.44 0 0,0 20.68,15 C 17.78,15 15,16.95 15,20 Z" fill="rgb(1, 47, 98)" fill-rule="evenodd"/>
<path d="M 42.99,12.985 H 29 V 27 H 43 V 13 Z M 32,24.8 C 32,24.93 32.17,25 32.34,25 H 35.98 C 36.11,25 36.3,24.95 36.3,24.79 C 36.3,24.62 36.18,24.54 35.93,24.5 C 35.3,24.35 35,24.07 35,23.37 V 16.3 C 35,15.85 35.82,15.57 36.17,15.57 C 37.6,15.57 38,16.77 38,18 C 38,18.9 37.92,20.78 36.68,20.78 A 3.63,3.63 0 0,1 36.05,20.73 C 36,20.73 35.95,20.76 35.88,20.81 C 35.82,20.85 35.78,20.9 35.78,20.96 C 35.78,21.05 35.85,21.13 35.98,21.21 C 36.11,21.28 36.29,21.32 36.54,21.32 C 38.57,21.32 40,20.04 40,18 C 40,15.94 37.94,15 36.17,15 H 32.38 C 32.25,15 32,15.13 32,15.29 C 32,15.4 32.1,15.53 32.38,15.59 C 32.88,15.7 33,16.39 33,16.82 V 23.46 C 33,24.13 32.97,24.37 32.37,24.5 C 32.12,24.55 32,24.65 32,24.8 Z M 27,29 H 13 V 43 H 27 V 29 Z M 15,40.76 C 15,40.92 15.17,40.97 15.39,40.97 H 18.41 C 18.66,40.97 18.77,40.85 18.77,40.74 C 18.77,40.61 18.65,40.51 18.4,40.44 C 17.89,40.3 17.46,40.05 17.57,39.47 C 17.64,39.06 17.77,38.66 17.9,38.26 L 18.08,37.7 C 18.12,37.51 18.19,37.44 18.31,37.44 H 20.81 C 21.01,37.44 21.06,37.49 21.11,37.65 C 21.31,38.29 21.48,38.97 21.59,39.63 C 21.66,40.08 21.38,40.31 20.7,40.43 C 20.5,40.46 20.33,40.57 20.33,40.73 C 20.33,40.87 20.55,40.99 20.67,40.99 H 22.67 L 24.68,41 C 24.78,41 25,40.89 25,40.77 C 25,40.6 24.87,40.51 24.63,40.45 C 24.26,40.35 23.96,40.21 23.7,39.9 A 2,2 0 0,1 23.4,39.28 C 22.52,36.54 20.5,31.02 20.5,31.02 C 19.64,31.02 19.32,31.98 19.08,32.7 L 19.02,32.88 S 17.42,37.25 16.55,39.41 A 1.7,1.7 0 0,1 15.37,40.42 C 15.17,40.5 15,40.57 15,40.76 Z M 20.62,37 H 18.69 C 18.51,37 18.39,36.71 18.45,36.52 L 19.62,33.16 C 19.66,33.03 19.7,32.96 19.72,32.96 C 19.74,32.96 19.78,33.04 19.82,33.17 L 20.78,36.52 C 20.82,36.68 20.82,37 20.62,37 Z" fill="rgb(130, 170, 239)" fill-rule="evenodd"/>
<path d="M 42.99,28.985 H 29 V 43 H 43 V 29 Z M 31,36.09 C 31,39.25 34.1,41 36.96,41 C 38.23,41 39.36,40.83 40.16,40.51 C 40.29,40.46 40.39,40.41 40.46,40.35 A 0.66,0.66 0 0,0 40.61,40.09 A 6.31,6.31 0 0,0 41,38.48 C 41,38.32 40.93,38.24 40.78,38.24 S 40.51,38.31 40.42,38.46 A 3.43,3.43 0 0,1 37.24,40.34 A 4.2,4.2 0 0,1 33,36 C 33,33.84 34.98,31.66 37.2,31.66 C 38.7,31.66 39.8,32.22 40.25,33.67 C 40.29,33.77 40.35,33.85 40.45,33.89 C 40.55,33.92 40.65,33.92 40.73,33.88 A 0.21,0.21 0 0,0 40.84,33.65 A 11.43,11.43 0 0,0 40.71,31.91 A 0.42,0.42 0 0,0 40.58,31.63 A 0.64,0.64 0 0,0 40.31,31.47 A 9.5,9.5 0 0,0 37.41,31 C 34.47,31 31,32.76 31,36.09 Z" fill="rgb(1, 47, 98)" fill-rule="evenodd"/>
</svg>
