<?xml version="1.0" encoding="UTF-8"?>
<!-- generated by Finnhub -->
<svg viewBox="0 0 55.5 55.5" xmlns="http://www.w3.org/2000/svg">
<path d="M 0,0 H 55.5 V 55.5 H 0 Z" fill="rgb(239, 242, 248)"/>
<path d="M 27.99,9.985 L 10,40 H 46 L 28,10 Z M 28,12 L 12.15,39 H 43.85 L 28,12 Z" fill="rgb(1, 59, 118)" fill-rule="evenodd"/>
<path d="M 18.49,30.985 H 17.9 L 21.03,37.42 C 21.23,37.42 22.83,38 27.7,38 C 34.36,38 38,36.26 38,32.77 C 38,29.29 34.36,26.97 29.51,26.39 C 25.64,25.92 25,24.27 25,23.5 C 24.92,22.78 25.2,21.3 28.3,21.16 C 31.4,21.02 33.63,24.39 34.36,26 H 34.96 L 31.94,20.58 C 30.97,20.12 29.11,20 28.3,20 C 23.45,20 23,23.92 23,24.5 C 23,25.08 22.85,28.71 28.3,29.29 C 33.76,29.87 34,32.19 34,32.77 C 34,33.35 33.76,36.84 27.7,36.84 C 22.85,36.84 19.51,33.13 18.5,31 Z" fill="rgb(1, 59, 118)"/>
</svg>
