<?xml version="1.0" encoding="UTF-8"?>
<!-- generated by Finnhub -->
<svg viewBox="0 0 55.5 55.5" xmlns="http://www.w3.org/2000/svg">
<path d="M 0,0 H 55.5 V 55.5 H 0 Z" fill="rgb(239, 242, 248)"/>
<path d="M 27.99,9.635 C 28,8.77 27.74,8.18 27.61,8 C 29.32,8.6 29.71,9.83 29.68,10.37 V 11 H 32.52 C 32.68,10.98 32.97,10.96 33.26,10.7 C 33.13,11.13 32.68,12 31.91,12 H 29.68 V 14 H 33.68 C 33.86,13.98 34.31,13.92 34.74,13.62 C 34.57,14.06 33.97,15 32.96,15 H 31 V 16.67 H 33.9 C 34.08,16.66 34.55,16.55 35,16.24 C 34.82,16.68 34.2,17.55 33.14,17.55 H 31 V 26 H 33.26 C 33.16,26.33 32.75,27 31.89,27 H 30.96 C 30.86,27.51 30.53,28.3 29.75,28.9 A 3.02,3.02 0 0,0 28.52,31 H 31.71 C 31.83,30.98 32.15,30.94 32.45,30.64 C 32.33,31.07 31.91,32 31.19,32 H 28.5 V 35 H 30.97 C 31.12,34.98 31.39,34.96 31.66,34.7 C 31.54,35.13 31.12,36 30.4,36 H 28.5 V 38 H 33 C 32.9,38.33 32.52,39 31.7,39 H 28.5 V 46.03 C 28.49,46.53 28.3,47.62 26.67,48 C 26.85,47.75 27,47 27,46.03 V 39 H 23 V 38 H 27 V 36 H 24.43 C 24.07,35.91 23.36,35.53 23.36,34.7 C 23.46,34.84 23.75,35 24.18,35 H 24.27 V 27 H 22.99 V 41.86 C 22.88,42.18 22.32,42.93 21,43.31 C 21.15,43.08 21.46,42.48 21.46,41.86 V 26.09 C 21.41,25.79 21.26,25.13 21,24.93 C 21.42,24.96 22.29,25.23 22.8,26 H 29.5 V 17.55 H 24.36 C 23.83,17.46 22.79,17.08 22.79,16.25 C 22.92,16.39 23.35,16.67 23.99,16.67 H 29.5 V 15 H 24.55 C 24.05,14.91 23.05,14.46 23.05,13.62 C 23.18,13.76 23.59,14 24.21,14 H 28 V 12 H 25.54 C 25.16,11.91 24.41,11.53 24.41,10.7 C 24.51,10.84 24.81,11 25.28,11 H 28 V 9.65 Z M 29.5,27 H 26.04 V 31 H 27.05 A 3.4,3.4 0 0,1 28.09,29.74 L 28.39,29.52 C 29.09,28.98 29.5,28.67 29.5,27.74 V 27 Z M 27,32 H 26.04 V 35 H 27 V 32 Z M 25.52,18.11 C 25.64,18.29 26,18.88 26,19.76 V 24.28 C 26,24.73 26.28,25.09 26.74,25.09 C 27.21,25.09 27.5,24.73 27.5,24.28 V 20.48 C 27.52,19.94 27.23,18.72 25.52,18.11 Z"/>
</svg>
