<?xml version="1.0" encoding="UTF-8"?>
<!-- generated by Finnhub -->
<svg viewBox="0 0 55.5 55.5" xmlns="http://www.w3.org/2000/svg">
<path d="M 0,0 H 55.5 V 55.5 H 0 Z" fill="rgb(239, 242, 248)"/>
<path d="M 3.99,29.025 V 31.8 H 4.32 C 4.3,31.59 4.31,31.15 4.52,31.15 C 4.61,31.15 4.74,31.25 4.92,31.35 C 5.31,31.61 5.9,32 6.72,32 C 7.94,32 9.42,31.54 9.42,29.93 C 9.42,28.45 6.99,27.18 6.02,26.67 L 5.82,26.57 C 5.22,26.24 5.08,25.69 5.08,25.46 C 5.09,25.11 5.41,24.42 6.52,24.42 C 8.17,24.42 8.67,25.76 8.71,26.43 H 9.01 V 24.18 H 8.71 V 24.63 C 8.71,24.83 8.51,24.79 8.41,24.74 A 3,3 0 0,0 6.52,24 C 4.55,24 4,25.07 4,25.7 C 4,26.34 4.17,26.68 4.85,27.3 A 17.1,17.1 0 0,0 7.28,28.86 C 7.65,29.08 8.38,29.68 8.38,30.34 C 8.38,31.28 7.28,31.53 6.73,31.54 C 4.93,31.54 4.4,29.87 4.36,29.04 H 4 Z M 10.02,24.28 V 24 H 15.59 L 15.79,25.7 H 15.53 C 15.49,25.3 15.27,24.49 14.74,24.49 H 12 V 27.59 H 13.93 C 14.23,27.59 14.46,27.36 14.46,27.09 V 26.39 H 14.78 V 29.16 H 14.46 V 28.51 A 0.53,0.53 0 0,0 13.93,28 H 12 V 31.48 H 14.74 C 14.9,31.48 15.24,31.37 15.38,31.04 L 15.73,30.21 L 16,30.27 L 15.53,32 H 10.02 V 31.71 H 10.49 A 0.5,0.5 0 0,0 11,31.21 V 24.79 A 0.5,0.5 0 0,0 10.49,24.29 H 10.02 Z M 15.65,31.71 V 32 H 17.95 V 31.71 H 17.41 C 17.18,31.71 17.01,31.49 17.07,31.28 L 17.67,29.41 H 20.28 L 20.9,31.27 C 20.97,31.49 20.8,31.71 20.56,31.71 H 20.03 V 32 H 26.31 V 31.67 H 25.71 C 25.42,31.67 25,31.45 25,31.17 V 28.59 H 26.77 C 28.04,28.59 29,27.61 29,26.4 V 26.19 C 29,24.98 28.04,24 26.77,24 H 22.97 V 24.28 H 23.44 C 23.74,24.28 24,24.51 24,24.78 V 31.17 C 24,31.45 23.74,31.67 23.44,31.67 H 22.98 V 31.71 H 22.76 A 0.53,0.53 0 0,1 22.25,31.36 L 19.74,24 H 19.04 C 18.34,26.2 17.02,30.16 16.63,31.36 A 0.53,0.53 0 0,1 16.12,31.71 H 15.65 Z M 20.15,29 H 17.8 L 18.87,25.62 H 19.04 L 20.14,29 Z M 25,24.43 V 28.19 H 26 C 27.1,28.19 28,27.44 28,26.51 V 26.11 C 28,25.18 27.1,24.43 26,24.43 H 25 Z M 38,28 A 4,4 0 1,1 30,28 A 4,4 0 0,1 38,28 Z M 37.35,28 A 3.35,3.35 0 1,1 30.65,28 A 3.35,3.35 0 0,1 37.35,28 Z M 41.23,32 H 37.9 V 31.67 H 38.36 C 38.66,31.67 39,31.45 39,31.17 V 24.79 C 39,24.51 38.65,24.28 38.36,24.28 H 37.9 V 24 H 41.69 C 42.96,24 43.99,24.72 43.99,25.93 V 26.15 C 43.99,27.3 43.05,27.95 41.86,28 C 42.18,28.18 42.46,28.48 42.59,28.64 L 43.79,30.94 C 44.05,31.5 44.42,31.67 44.57,31.68 H 45.1 V 32 H 43.76 C 43.15,32 42.8,31.56 42.7,31.34 L 40.95,28 H 40 V 31.17 C 40,31.45 40.34,31.67 40.64,31.67 H 41.24 V 32 Z M 40,27.5 V 24.43 H 40.96 C 41.94,24.43 42.74,25.04 42.74,25.8 V 26.13 C 42.74,26.88 41.94,27.5 40.96,27.5 H 40 Z M 45.22,25.92 H 44.97 L 45.16,24 H 51.83 L 52,25.92 H 51.67 L 51.55,25.22 A 0.97,0.97 0 0,0 50.72,24.49 H 49 V 31.09 C 49,31.42 49.42,31.69 49.78,31.69 H 50.26 V 32 H 46.73 V 31.69 H 47.21 C 47.57,31.69 48,31.42 48,31.09 V 24.49 H 46.28 C 45.83,24.49 45.56,24.84 45.48,25.02 L 45.22,25.92 Z" fill-rule="evenodd"/>
</svg>
