<?xml version="1.0" encoding="UTF-8"?>
<!-- generated by Finnhub -->
<svg viewBox="0 0 55.5 55.5" xmlns="http://www.w3.org/2000/svg">
<path d="M 0,0 H 55.5 V 55.5 H 0 Z" fill="rgb(55, 84, 97)"/>
<path d="M 29.4,36.714999999999996 L 23,46 L 27.68,35.3 L 21.5,38.5 L 26.3,33.35 L 13,37 L 25.61,31.12 L 18,30 L 25.61,28.8 L 18.5,25.22 L 25.96,26.49 L 16,19 L 27.43,24.52 L 24,18 L 29.15,23.19 L 26,10 L 31.4,22.3 L 32.44,15 L 33.64,22.3 L 39,10.98 L 36.06,22.74 L 35.89,23 H 35.37 C 31.05,23 27.6,26.75 27.6,31.12 C 27.6,33.08 28.29,34.95 29.5,36.38 L 29.41,36.73 Z" fill="rgb(239, 242, 248)"/>
</svg>
