<?xml version="1.0" encoding="UTF-8"?>
<!-- generated by Finnhub -->
<svg viewBox="0 0 55.5 55.5" xmlns="http://www.w3.org/2000/svg">
<path d="M 0,0 H 55.5 V 55.5 H 0 Z" fill="rgb(239, 242, 248)"/>
<path d="M 18.99,41.585 C 24.42,28.9 15.26,17.9 10,14 L 22.19,17.99 C 29.58,25.22 28.03,34.79 26.33,38.66 L 19,41.6 Z" fill="rgb(208, 28, 2)"/>
<path d="M 30.939999999999998,20.745 L 24.65,18.72 C 30.02,25.1 29.13,34.3 28,38.1 L 32.7,37.45 C 35.89,29.9 32.86,23.18 30.95,20.77 Z" fill="rgb(208, 28, 2)"/>
<path d="M 37.07,22.615 L 32.7,21.33 C 36.46,26.8 35.28,34.35 34.21,37.44 L 37.08,38.09 C 41.35,32.1 38.86,25.29 37.08,22.63 Z" fill="rgb(208, 28, 2)"/>
<path d="M 41.21,23.995 L 38.92,23.28 C 42.67,30.7 40.22,36.63 38.52,38.66 V 42 C 46.92,34.97 43.82,27.08 41.22,24.01 Z" fill="rgb(208, 28, 2)"/>
</svg>
