<?xml version="1.0" encoding="UTF-8"?>
<!-- generated by Finnhub -->
<svg viewBox="0 0 55.5 55.5" xmlns="http://www.w3.org/2000/svg">
<path d="M 0,0 H 55.5 V 55.5 H 0 Z" fill="rgb(239, 242, 248)"/>
<path d="M 30.81,16.055 A 7.43,7.43 0 0,0 23,23.5 A 7.37,7.37 0 0,0 25.44,28.78 A 3,3 0 0,1 25.54,33.08 A 3.1,3.1 0 0,1 21.19,33.17 A 13.41,13.41 0 0,1 31.04,10 A 3.05,3.05 0 0,1 34,13.15 A 3.06,3.06 0 0,1 30.82,16.07 Z" fill="rgb(10, 179, 137)"/>
<path d="M 25.169999999999998,39.915 A 7.43,7.43 0 0,0 33,32.5 A 7.37,7.37 0 0,0 30.56,27.22 A 3,3 0 0,1 30.46,22.92 A 3.1,3.1 0 0,1 34.81,22.83 A 13.41,13.41 0 0,1 24.96,46 A 3.05,3.05 0 0,1 22,42.85 A 3.06,3.06 0 0,1 25.18,39.93 Z" fill="rgb(10, 179, 137)"/>
</svg>
