<?xml version="1.0" encoding="UTF-8"?>
<!-- generated by Finnhub -->
<svg viewBox="0 0 55.5 55.5" xmlns="http://www.w3.org/2000/svg">
<path d="M 0,0 H 55.5 V 55.5 H 0 Z" fill="url(#a)"/>
<path d="M 27.81,43.985 A 16,16 0 1,0 28.2,12 A 16,16 0 0,0 27.82,44 Z M 28.16,14 A 13.8,13.8 0 0,1 42,28 C 42,35.93 35.88,42.03 27.9,42 A 13.78,13.78 0 0,1 14,27.84 A 13.8,13.8 0 0,1 28.16,14 Z M 24,27.94 A 3.99,3.99 0 0,0 27.95,32 A 3.99,3.99 0 0,0 32,28.05 C 32.04,25.89 30.37,24.05 28.05,24 A 3.96,3.96 0 0,0 24,27.94 Z" fill="rgb(254, 254, 253)"/>
<defs>
<linearGradient id="a" x1="10.42" x2="68.15" y1="9.71" y2="76.02" gradientUnits="userSpaceOnUse">
<stop stop-color="rgb(25, 29, 31)" offset="0"/>
<stop stop-color="rgb(5, 5, 8)" offset="1"/>
</linearGradient>
</defs>
</svg>
