<?xml version="1.0" encoding="UTF-8"?>
<!-- generated by Finnhub -->
<svg viewBox="0 0 55.5 55.5" xmlns="http://www.w3.org/2000/svg">
<path d="M 0,0 H 55.5 V 55.5 H 0 Z" fill="rgb(239, 242, 248)"/>
<path d="M 13.25,28.314999999999998 C 13.38,27.19 13.66,26.18 14.07,25.31 C 14.74,23.92 15.57,22.73 16.56,21.71 A 18.6,18.6 0 0,1 24.39,16.86 C 25.59,16.5 26.69,16.24 27.72,16.09 C 29.39,15.84 31.03,15.81 32.64,16 C 33.5,16.1 34.47,16.36 35.55,16.75 A 6.51,6.51 0 0,1 38.63,18.95 L 38.68,18.92 A 0.08,0.08 0 0,0 38.71,18.87 V 18.82 C 37.09,15.7 34.21,14.42 30.9,14.12 C 28.71,13.91 26.82,13.98 25.23,14.34 L 24.7,14.46 C 23.69,14.68 22.67,14.91 21.7,15.29 A 25.66,25.66 0 0,0 14.27,19.64 A 18.84,18.84 0 0,0 10.57,24.06 A 10.64,10.64 0 0,0 9.06,28.22 C 8.53,32.76 11.59,35.99 15.75,36.94 C 17.3,37.3 19.01,37.39 20.88,37.23 L 22.75,37.05 C 23.03,37.02 23.28,36.9 23.49,36.69 L 24,36.18 C 24.21,35.96 24.17,35.87 23.88,35.89 C 21.25,36.12 18.88,35.62 16.76,34.42 C 14.57,33.16 12.98,30.92 13.26,28.33 Z" fill="rgb(37, 111, 105)"/>
<path d="M 33.730000000000004,24.845 L 33.7,25.1 A 0.2,0.2 0 0,1 33.62,25.23 C 33.53,25.29 33.44,25.3 33.34,25.24 A 0.45,0.45 0 0,1 33.14,25.03 C 32.84,24.35 32.2,23.88 31.21,23.63 A 11.13,11.13 0 0,0 27.55,23.26 C 27.52,23.26 27.5,23.25 27.49,23.22 L 27.48,23.16 C 27.48,23.13 27.48,23.11 27.52,23.1 A 8.29,8.29 0 0,1 33.29,23.64 C 33.84,23.9 34.31,24.34 34.69,24.93 C 34.75,25.03 34.74,25.12 34.67,25.2 L 34.65,25.21 L 34.64,25.22 A 0.14,0.14 0 0,1 34.61,25.24 A 0.34,0.34 0 0,1 34.41,25.24 A 0.37,0.37 0 0,1 34.24,25.14 L 33.91,24.81 C 33.81,24.71 33.76,24.73 33.74,24.86 Z M 32.37,23.79 C 32.57,23.89 32.74,23.92 32.77,23.87 C 32.79,23.82 32.65,23.71 32.45,23.61 C 32.25,23.52 32.08,23.49 32.05,23.54 C 32.03,23.59 32.17,23.7 32.37,23.79 Z" fill="rgb(37, 111, 105)"/>
<path d="M 36.160000000000004,25.085 L 36.2,24.85 C 36.21,24.74 36.25,24.73 36.32,24.81 C 36.56,25.11 36.88,25.26 37.28,25.27 A 0.2,0.2 0 0,0 37.41,25.23 C 37.48,25.19 37.5,25.13 37.46,25.04 A 0.61,0.61 0 0,0 37.28,24.81 A 11.06,11.06 0 0,0 31.38,22.56 C 31.34,22.56 31.32,22.58 31.32,22.61 L 31.31,22.67 A 0.07,0.07 0 0,0 31.32,22.72 L 31.37,22.75 C 32.58,22.99 34.28,23.53 35.01,24.59 C 35.26,24.95 35.55,25.35 36.04,25.24 C 36.12,25.22 36.16,25.18 36.17,25.1 Z M 35.51,24.16 C 35.48,24.21 35.33,24.17 35.18,24.07 C 35.02,23.97 34.92,23.85 34.95,23.8 C 34.99,23.75 35.14,23.79 35.29,23.9 C 35.45,24 35.55,24.11 35.51,24.16 Z M 23.69,26 L 25.8,26.03 A 0.25,0.25 0 0,1 26.02,26.16 L 26.48,26.96 A 0.22,0.22 0 0,0 26.67,27.08 L 28.27,27.1 A 0.54,0.54 0 0,0 28.77,26.79 L 29.05,26.19 C 29.08,26.13 29.13,26.09 29.19,26.08 C 29.33,26.03 29.47,26.01 29.62,26.01 C 33.72,26.04 37.87,26.04 42.03,26.01 C 42.17,26.01 42.29,26.05 42.4,26.11 C 42.47,26.16 42.5,26.21 42.53,26.29 C 42.63,26.67 42.8,27.11 43.26,27.1 C 43.69,27.1 44.16,27.1 44.65,27.12 C 45.03,27.12 45.26,26.6 45.41,26.27 L 45.45,26.17 A 0.2,0.2 0 0,1 45.64,26.05 L 47.75,26.01 C 47.91,26.01 47.99,25.93 48,25.76 V 25.69 A 0.26,0.26 0 0,0 47.85,25.45 A 0.25,0.25 0 0,0 47.75,25.43 H 23.65 A 0.15,0.15 0 0,0 23.55,25.47 A 0.16,0.16 0 0,0 23.5,25.57 C 23.49,25.67 23.5,25.77 23.52,25.87 C 23.54,25.96 23.6,26 23.69,26.01 Z" fill="rgb(37, 111, 105)"/>
<path d="M 31.509999999999998,29.685 C 32.26,28.77 33,27.7 33.19,26.54 A 0.25,0.25 0 0,1 33.27,26.39 C 33.32,26.36 33.37,26.33 33.43,26.33 L 34.95,26.32 C 35.19,26.32 35.32,26.42 35.36,26.66 A 6,6 0 0,1 35.37,28.53 A 20.47,20.47 0 0,1 32.81,35.6 C 32.01,37.04 31.15,38.56 30.17,39.84 A 0.32,0.32 0 0,1 30.06,39.94 C 30.02,39.96 29.96,40 29.92,40 H 20.95 C 20.63,40 20.6,39.86 20.84,39.65 C 21.54,39.06 22.22,38.49 22.91,37.95 A 72.66,72.66 0 0,0 28.28,33.24 A 36.38,36.38 0 0,0 31.52,29.69 Z M 33.9,27.15 C 33.85,27.39 33.9,27.61 34,27.63 C 34.1,27.66 34.24,27.48 34.29,27.23 C 34.34,26.99 34.29,26.77 34.19,26.75 C 34.09,26.73 33.95,26.9 33.9,27.15 Z M 33.3,29.49 C 33.2,29.45 33.19,29.22 33.29,28.99 C 33.39,28.77 33.56,28.63 33.66,28.68 C 33.76,28.73 33.76,28.95 33.66,29.18 C 33.56,29.4 33.4,29.54 33.29,29.49 Z M 32.46,30.77 C 32.3,31 32.23,31.25 32.32,31.32 C 32.42,31.38 32.62,31.24 32.79,31 C 32.95,30.77 33.01,30.52 32.92,30.46 C 32.83,30.39 32.62,30.53 32.46,30.76 Z M 31.23,32.99 C 31.15,32.91 31.26,32.65 31.48,32.42 C 31.7,32.18 31.95,32.05 32.03,32.13 C 32.11,32.21 32,32.47 31.78,32.71 C 31.56,32.95 31.31,33.07 31.23,32.99 Z M 30.59,34.3 C 30.87,34.09 31.04,33.84 30.97,33.75 C 30.91,33.67 30.63,33.77 30.36,33.98 C 30.08,34.19 29.91,34.44 29.98,34.53 C 30.04,34.61 30.32,34.51 30.59,34.3 Z M 29.8,35.25 C 29.88,35.35 29.71,35.62 29.43,35.85 C 29.14,36.08 28.85,36.2 28.78,36.1 C 28.7,36 28.87,35.73 29.15,35.5 C 29.43,35.27 29.72,35.16 29.8,35.25 Z M 28.03,37.39 C 28.35,37.12 28.54,36.83 28.46,36.73 C 28.38,36.63 28.06,36.77 27.75,37.04 C 27.43,37.31 27.23,37.61 27.31,37.7 C 27.39,37.8 27.71,37.66 28.03,37.4 Z M 26.98,38.37 C 27.08,38.5 26.85,38.87 26.45,39.2 C 26.05,39.53 25.65,39.69 25.55,39.56 C 25.45,39.43 25.68,39.06 26.08,38.73 C 26.48,38.4 26.88,38.23 26.98,38.37 Z" fill="rgb(37, 111, 105)" fill-rule="evenodd"/>
<path d="M 39.04,26.665 A 15.06,15.06 0 0,1 40.95,30.61 C 41.77,33.66 41.89,36.63 41.65,39.75 C 41.65,39.91 41.56,40 41.41,40 H 31.8 C 31.66,40 31.61,39.93 31.65,39.8 C 31.68,39.66 31.75,39.52 31.83,39.38 L 32.02,39.08 C 32.47,38.32 32.92,37.59 33.32,36.78 L 33.37,36.67 C 34.97,33.42 36.54,30.23 35.99,26.55 A 0.2,0.2 0 0,1 36.1,26.34 A 79.4,79.4 0 0,0 38.43,26.34 A 0.7,0.7 0 0,1 39.05,26.68 Z M 37.98,27.63 C 37.88,27.67 37.73,27.49 37.64,27.23 C 37.54,26.98 37.55,26.75 37.65,26.71 C 37.75,26.67 37.9,26.85 38,27.11 C 38.09,27.36 38.08,27.6 37.98,27.63 Z M 38.24,29.46 C 38.12,29.47 38.01,29.31 37.99,29.1 C 37.97,28.9 38.06,28.72 38.18,28.7 C 38.3,28.7 38.41,28.86 38.42,29.07 C 38.44,29.27 38.36,29.45 38.24,29.47 Z M 38.29,30.46 H 38.26 C 38.16,30.46 38.08,30.56 38.08,30.66 L 38.09,31.13 C 38.09,31.23 38.18,31.32 38.28,31.32 H 38.31 C 38.41,31.32 38.49,31.22 38.49,31.12 L 38.48,30.65 C 38.48,30.55 38.39,30.46 38.29,30.47 Z M 38.26,33.03 C 38.12,33.03 38.01,32.83 38.01,32.57 S 38.13,32.11 38.27,32.11 C 38.4,32.11 38.52,32.31 38.51,32.57 C 38.51,32.83 38.4,33.03 38.26,33.03 Z M 38.22,33.73 L 38.19,33.72 A 0.2,0.2 0 0,0 37.96,33.9 L 37.9,34.3 A 0.2,0.2 0 0,0 38.08,34.54 H 38.1 A 0.2,0.2 0 0,0 38.33,34.37 L 38.39,33.96 A 0.2,0.2 0 0,0 38.22,33.72 Z M 38.05,35.22 L 38.09,35.23 C 38.21,35.27 38.28,35.4 38.24,35.52 L 38.1,35.97 A 0.22,0.22 0 0,1 37.83,36.12 L 37.78,36.1 A 0.23,0.23 0 0,1 37.64,35.82 L 37.78,35.37 A 0.22,0.22 0 0,1 38.05,35.22 Z M 37.35,37.12 C 37.26,37.42 37.32,37.71 37.48,37.76 C 37.63,37.8 37.83,37.6 37.91,37.3 C 38,37 37.94,36.71 37.79,36.67 C 37.63,36.62 37.44,36.83 37.35,37.13 Z M 37.33,39.42 L 37.63,38.61 A 0.2,0.2 0 0,0 37.6,38.41 A 0.2,0.2 0 0,0 37.52,38.36 C 37.49,38.34 37.46,38.34 37.42,38.34 L 37.15,38.38 A 0.18,0.18 0 0,0 37.05,38.42 A 0.2,0.2 0 0,0 36.99,38.51 L 36.71,39.3 A 0.2,0.2 0 0,0 36.74,39.48 A 0.2,0.2 0 0,0 36.9,39.56 H 37.16 C 37.19,39.55 37.23,39.54 37.26,39.51 A 0.2,0.2 0 0,0 37.33,39.42 Z" fill="rgb(37, 111, 105)" fill-rule="evenodd"/>
</svg>
