<?xml version="1.0" encoding="UTF-8"?>
<!-- generated by Finnhub -->
<svg viewBox="0 0 55.5 55.5" xmlns="http://www.w3.org/2000/svg">
<path d="M 0,0 H 55.5 V 55.5 H 0 Z" fill="rgb(239, 242, 248)"/>
<path d="M 6.49,24.985 H 7.5 L 9.67,30 L 11.5,25 H 12.5 L 10.17,31 H 9 L 6.5,25 Z M 6,25 H 7.5 V 31 H 6 V 25 Z M 11.5,25 H 13 V 31 H 11.5 V 25 Z M 19,30 V 31 H 15.03 V 30 H 19 Z M 15.5,25 V 31 H 14 V 25 H 15.5 Z M 19,27.5 V 28.5 H 15.03 V 27.5 H 19 Z M 19,25 V 26 H 15.03 V 25 H 19 Z M 22,31 H 20.58 L 20.59,30 H 22.01 C 23.11,30 23.5,29.17 23.5,28.14 V 27.85 C 23.5,26.83 23.13,26.01 22.02,26.01 H 20.56 V 25 H 22.02 C 23.68,25 25,26.17 25,27.86 V 28.14 C 25,29.85 23.67,31 22,31 Z M 21.5,25 V 31 H 20 V 25 H 21.5 Z M 29.5,29 H 31 C 30.9,30.32 29.76,31 28.53,31 C 26.9,31 26,29.74 26,28.2 V 27.8 C 26,26.28 26.93,25 28.54,25 C 29.81,25 30.87,25.68 31,27 H 29.5 C 29.46,26.28 29.25,26 28.54,26 C 27.5,26 27.5,26.95 27.5,27.8 V 28.2 C 27.5,29.06 27.5,30 28.54,30 C 29.5,30 29.45,29.7 29.5,29 Z M 35.15,26.03 L 33.4,31 H 32 L 34.38,25 H 35.28 L 35.15,26.03 Z M 36.59,31 L 34.85,26.03 L 34.7,25 H 35.6 L 38,31 H 36.6 Z M 36.5,29 V 30 H 33.12 V 29 H 36.5 Z M 48.15,26.03 L 46.4,31 H 45 L 47.38,25 H 48.28 L 48.15,26.03 Z M 49.59,31 L 47.85,26.03 L 47.7,25 H 48.6 L 51,31 H 49.6 Z M 49.5,29 V 30 H 46.12 V 29 H 49.5 Z M 44,25 V 31 H 42.5 L 40.5,27 V 31 H 39 V 25 H 40.5 L 42.5,29 V 25 H 44 Z" fill="rgb(56, 58, 54)"/>
<path d="M 15.99,23.745 A 12.1,12.1 0 0,0 18.03,30 C 19.65,26.16 18.84,23.28 18.43,21.36 C 18.11,19.82 18.03,18.48 18.03,18 A 9.72,9.72 0 0,0 16,23.76 Z" fill="rgb(85, 174, 4)"/>
<path d="M 18.99,24.985 H 16.09 C 16.14,25.34 16.2,25.67 16.29,26 H 18.99 L 19,25.37 V 25 Z M 18.8,27.5 H 16.75 C 16.89,27.86 17.03,28.2 17.18,28.5 H 18.56 C 18.66,28.16 18.73,27.82 18.8,27.5 Z" fill="rgb(239, 242, 248)"/>
<path d="M 11.78,34.045 C 16.92,34.06 21.07,29.71 21.07,24.34 C 21.07,23.17 20.87,22.04 20.51,21 A 10,10 0 0,1 22,26.28 C 22,31.65 17.84,36 12.72,36 C 8.72,36 5.3,33.35 4,29.63 A 9.18,9.18 0 0,0 11.79,34.06 Z" fill="rgb(201, 192, 31)"/>
<path d="M 19.99,28.865 V 31 H 20.84 A 9.89,9.89 0 0,0 21.5,29.44 V 26 H 22 C 21.99,25.66 21.96,25.32 21.92,24.99 H 21.05 A 10.15,10.15 0 0,1 20,28.88 Z" fill="rgb(239, 242, 248)"/>
</svg>
