<?xml version="1.0" encoding="UTF-8"?>
<!-- generated by Finnhub -->
<svg viewBox="0 0 55.5 55.5" xmlns="http://www.w3.org/2000/svg">
<path d="M0 0h55.5v55.5H0z" fill="rgb(239, 242, 248)"/>
<path d="M13.7 20c2.37 0 4.5 1.83 5.25 4.25L17 25c-.46-1.49-1.83-3-3.3-3-1.39 0-3.2.65-3.2 2.5 0 1.15 2.8 1.81 3.5 2 2.24.6 5 1.45 5 4.46 0 3.39-2.53 4.04-5 4.04-2.1 0-4.82-1.53-6-4.1l1.9-1.03C10.82 31.9 12.92 33 14 33c1.1 0 3-.18 3-2 0-1.72-2.18-2.2-3.3-2.5-.01 0 .03 0 0 0-1.91-.52-5.2-1.25-5.2-4 0-3.2 2.6-4.5 5.2-4.5ZM27.5 20c2.95 0 5.3 2 6.38 4.1l-2.12 1.03c-.67-1.3-2.3-3.13-4.26-3.13-2.95 0-4.5 2.31-4.5 5.5 0 2.64 1.79 5.5 4.5 5.5 2.95 0 3.87-2.46 4.26-4H28v-2h6v1c0 3.15-2 7-6.5 7-4 0-6.5-3.6-6.5-7.5 0-4.45 1.77-7.5 6.5-7.5Z"/>
<path d="M41.5 25v.5h.5V25h-.5Z" fill="rgb(98, 169, 28)"/>
<path d="m36 26.35.36.28a4.52 4.52 0 0 1-.36-2.01c0-.7.43-1.31 1.1-1.31h.65v.46h2.57c.4-.4 1.46-1 2.77-1 1.23 0 2.82.28 3.06 1.73h.35c-.18-.96-1.31-2.5-3.5-2.5-1 0-2 0-2.8.45-.3.17-.52.55-1.2.55-.5 0-.7-.29-.77-.45-.05-.13-.1-.55-.6-.55H36v-2h5.45c3.28 0 6.55 1.5 6.55 7.5S44 35 42 35h-6v-8.65Zm.22-1.77a1 1 0 0 0 0 .04c0 1.27.68 3 1.99 3.34 1.97.53 3.64 2.77 4.8 4.42A5.1 5.1 0 0 0 46 27.5c-.15.96-.77 1.85-1.82 1.85-.85 0-1.32-.48-1.47-1.1-.14-.61 0-1.36.28-1.96l.2.1c-.27.57-.4 1.26-.27 1.8s.48.93 1.26.93c1.57 0 1.83-2.34 1.82-3.62v-.3c0-1.66-1.53-2.2-2.9-2.2-1.28 0-2.3.6-2.66.97l-.03.03h-2.88l-1.31.58ZM43 33c-1.13-1.59-3.1-4.28-5-4.8V33h5Z" fill="rgb(98, 169, 28)"/>
</svg>
