<?xml version="1.0" encoding="UTF-8"?>
<!-- generated by Finnhub -->
<svg viewBox="0 0 55.5 55.5" xmlns="http://www.w3.org/2000/svg">
<path d="M 0,0 H 55.5 V 55.5 H 0 Z" fill="rgb(239, 242, 248)"/>
<path d="M 49.49,24.985 V 27 H 52 V 28 H 49.5 V 30 H 52 V 31 H 48 V 24 H 52 V 25 H 49.5 Z M 46,31 H 44.5 L 41.5,26.2 V 31 H 40 V 24 H 41.5 L 44.5,28.8 V 24 H 46 V 31 Z M 38.5,24 V 31 H 37 V 24 H 38.5 Z M 33.5,30 H 36 V 31 H 32 V 24 H 33.5 V 30 Z M 29.21,26 C 28.89,25.42 28.31,25 27.57,25 C 26.29,25 25.5,26.26 25.5,27.5 C 25.5,28.79 26.27,30 27.58,30 C 28.66,30 29.5,29 29.5,28 H 27 V 27 H 31 V 28.33 A 3.43,3.43 0 0,1 27.58,31 A 3.48,3.48 0 0,1 24,27.5 C 24,25.5 25.58,24 27.57,24 C 29,24 30.37,24.59 30.83,26 H 29.2 Z M 21.45,31 L 19.97,28.27 H 19.5 V 31 H 18 V 24 H 20.51 C 21.79,24 23,24.78 23,26.15 C 23,27.11 22.33,27.9 21.4,28.16 L 23,31 H 21.45 Z M 19.5,27.22 H 20.46 C 21.2,27.22 21.5,26.82 21.5,26.18 C 21.5,25.53 21.18,25 20.46,25 H 19.5 V 27.22 Z M 12,24 V 28.29 C 12,29.22 12.54,30 13.5,30 C 14.47,30 15,29.22 15,28.29 V 24 H 16.5 V 28.28 C 16.5,30 15.09,31 13.47,31 C 11.84,31 10.5,29.98 10.5,28.28 V 24 H 12 Z M 6.58,31 C 5.35,31 4.04,30.37 4.02,29 H 5.5 C 5.54,29.57 5.84,30 6.47,30 C 7.12,30 7.59,29.53 7.59,29.04 C 7.59,28.33 6.69,28.14 6.15,27.98 C 5.1,27.68 4.04,27.26 4.04,25.98 C 4.04,24.65 5.27,24 6.47,24 C 7.68,24 8.84,24.7 8.94,26 H 7.42 C 7.39,25.46 6.96,25 6.47,25 C 5.94,25 5.48,25.41 5.48,25.94 C 5.48,26.62 6.38,26.8 6.88,26.94 C 7.93,27.25 9.02,27.69 9.02,28.95 C 9.02,30.3 7.79,31 6.58,31 Z"/>
</svg>
