<?xml version="1.0" encoding="UTF-8"?>
<!-- generated by Finnhub -->
<svg viewBox="0 0 55.5 55.5" xmlns="http://www.w3.org/2000/svg">
<path d="M 0,0 H 55.5 V 55.5 H 0 Z" fill="rgb(239, 242, 248)"/>
<circle cx="39" cy="21" r="4" fill="rgb(254, 154, 25)"/>
<path d="M 22.549999999999997,22.355 C 23.36,21.69 24.3,21 25.39,21 C 25.85,21 26.36,21.19 26.87,21.47 C 27.39,21.75 27.92,22.13 28.44,22.56 C 29.44,23.37 30.39,24.35 30.98,25.02 C 33.34,25.44 35.53,26.82 36.41,27.51 C 37.46,27.58 38.08,27.77 38.57,27.93 L 38.81,28.01 A 3.03,3.03 0 0,0 40.73,28.01 C 42.27,27.61 43.34,27.58 43.75,27.61 C 44.03,27.54 44.37,27.5 44.76,27.5 A 2.2,2.2 0 0,1 47,29.75 V 30 H 9.6 L 9.77,29.64 C 9.97,29.24 10.72,28.48 12.24,28.05 C 12.29,27.59 12.54,26.99 13.11,26.5 C 13.76,25.93 14.81,25.5 16.45,25.5 C 16.58,25.5 16.79,25.5 16.98,25.55 C 17.08,25.57 17.18,25.6 17.28,25.65 C 17.17,25.79 17.05,25.93 16.92,26.05 L 16.88,26.04 A 2.1,2.1 0 0,0 16.46,26 C 14.9,26 13.97,26.4 13.43,26.88 C 12.89,27.35 12.73,27.91 12.73,28.25 V 28.45 L 12.53,28.49 A 4.54,4.54 0 0,0 10.51,29.5 H 46.48 C 46.5,29.76 46.52,29.76 46.48,29.5 C 46.36,28.6 45.68,28 44.76,28 C 44.38,28 44.07,28.04 43.83,28.1 C 43.13,28.29 43.03,28.65 43.03,28.75 H 42.53 C 42.53,28.55 42.61,28.34 42.78,28.14 C 42.29,28.19 41.64,28.29 40.85,28.49 A 3.51,3.51 0 0,1 38.67,28.49 L 38.42,28.41 A 7.78,7.78 0 0,0 36.31,28 H 36.23 L 36.17,27.95 A 13.1,13.1 0 0,0 30.82,25.5 L 30.72,25.48 L 30.67,25.41 A 22.25,22.25 0 0,0 28.13,22.94 C 27.63,22.54 27.11,22.17 26.63,21.91 C 26.15,21.64 25.73,21.5 25.39,21.5 C 24.49,21.5 23.69,22.06 22.89,22.75 L 22.44,23.14 L 21.7,23.77 C 21.32,24.07 20.92,24.35 20.5,24.49 L 19.55,24.79 L 19.41,24.83 C 19.21,24.89 19.04,24.93 18.89,24.99 C 18.54,25.11 18.33,25.21 18.12,25.43 C 17.89,25.65 17.71,25.92 17.5,26.16 C 17.14,26.56 16.66,27 15.95,27 V 26.5 C 16.35,26.5 16.65,26.32 16.92,26.05 L 17.28,25.65 C 17.44,25.45 17.58,25.25 17.77,25.07 C 18.05,24.79 18.34,24.64 18.73,24.51 A 16.36,16.36 0 0,1 19.41,24.31 C 19.67,24.23 19.98,24.14 20.35,24.01 C 20.68,23.91 21.02,23.67 21.4,23.37 C 21.63,23.19 21.86,22.99 22.1,22.77 L 22.56,22.37 Z M 23.87,24.57 L 16.75,29.5 H 15.88 L 23.93,23.93 L 25.89,25.9 L 25.73,26.06 L 25.51,26.22 L 23.87,24.57 Z M 25.89,25.9 C 26.15,25.66 26.5,25.36 26.88,25.1 C 27.12,24.94 27.37,24.8 27.62,24.68 C 27.87,24.58 28.12,24.5 28.37,24.5 S 28.87,24.58 29.13,24.68 A 8.47,8.47 0 0,1 31.03,26.07 L 30.68,26.43 C 30.44,26.19 30.03,25.83 29.58,25.52 A 4.25,4.25 0 0,0 28.93,25.14 C 28.71,25.04 28.53,25 28.37,25 C 28.22,25 28.03,25.05 27.82,25.14 C 27.61,25.24 27.38,25.37 27.16,25.52 C 25.76,26.47 24.23,27.77 23.08,28.92 L 22.73,28.57 C 23.46,27.84 24.77,26.79 25.51,26.22 L 25.89,25.9 Z M 36.66,29.45 C 33.16,26.71 30.06,27.35 28.99,27.97 L 28.75,27.53 C 29.99,26.81 33.32,26.19 36.97,29.05 L 36.67,29.45 Z M 46.76,31 H 9 V 30.5 H 46.75 V 31 Z M 43.77,32.5 H 24.9 V 32 H 43.77 V 32.5 Z M 16.95,33 H 9.99 V 32.5 H 16.95 V 33 Z M 35.82,34 H 21.92 V 33.5 H 35.82 V 34 Z M 44.76,36 H 33.84 V 35.5 H 44.76 V 36 Z M 22,36.5 V 37 H 11.98 V 36.5 H 22 Z M 25.89,37.5 V 38 H 17.94 V 37.5 H 25.89 Z" fill-rule="evenodd"/>
<path d="M 19.49,30.985 L 21.57,34.38 H 19.77 V 34.91 H 22 L 21.88,35.25 C 21.78,35.55 21.55,35.98 21.16,36.34 A 2.4,2.4 0 0,1 19.5,37 A 2.4,2.4 0 0,1 17.84,36.34 A 2.8,2.8 0 0,1 17.12,35.25 L 17,34.91 H 19.23 V 34.38 H 17.43 L 19.5,31 Z M 19.77,33.86 H 20.63 L 19.77,32.46 V 33.86 Z M 19.23,32.46 V 33.86 H 18.37 L 19.23,32.46 Z M 17.78,35.43 C 17.88,35.6 18.02,35.79 18.21,35.96 C 18.51,36.26 18.94,36.48 19.5,36.48 S 20.48,36.25 20.8,35.96 C 20.98,35.79 21.12,35.6 21.22,35.43 H 17.78 Z" fill-rule="evenodd"/>
<path d="M 36.49,27.485 C 36.89,26.92 38.04,25.75 40.5,25.75 A 6.3,6.3 0 0,1 45,27.5 C 44.55,27.05 42.84,26.25 40.5,26.25 S 36.78,27.08 36.5,27.5 Z"/>
<path d="M 38.49,25.985 C 38.17,26 37.4,25.8 37,25 C 37.33,25 38.1,25.2 38.5,26 Z M 38.5,23 C 38.5,24.2 39.17,25.17 39.5,25.5 H 40 A 7.08,7.08 0 0,0 38.5,23 Z M 40.5,25.5 C 40.17,24.67 39.7,22.8 40.5,22 C 40.83,22.67 41.3,24.3 40.5,25.5 Z M 41.5,25.5 H 41 C 41.8,24.3 42.67,23.33 43,23 C 43,24.2 42,25.17 41.5,25.5 Z M 42.5,26 C 42.67,25.67 43.2,25 44,25 C 43.83,25.33 43.3,26 42.5,26 Z"/>
</svg>
