<?xml version="1.0" encoding="UTF-8"?>
<!-- generated by Finnhub -->
<svg viewBox="0 0 55.5 55.5" xmlns="http://www.w3.org/2000/svg">
<path d="M 0,0 H 55.5 V 55.5 H 0 Z" fill="rgb(239, 242, 248)"/>
<path d="M 17.97,22.925 C 18.5,23.31 18.78,23.82 18.86,24.49 H 21.52 A 4.1,4.1 0 0,0 20.8,22.16 A 4.66,4.66 0 0,0 18.87,20.58 A 6.62,6.62 0 0,0 16.02,20 C 14.95,20 13.99,20.2 13.14,20.58 C 12.3,20.96 11.63,21.49 11.14,22.18 C 10.64,22.87 10.4,23.67 10.4,24.58 C 10.4,25.7 10.77,26.59 11.5,27.27 A 6.96,6.96 0 0,0 14.48,28.77 L 16.22,29.22 C 16.76,29.36 17.24,29.52 17.65,29.7 C 18.06,29.88 18.38,30.1 18.61,30.37 C 18.84,30.64 18.96,30.97 18.96,31.37 C 18.96,31.82 18.83,32.21 18.56,32.54 C 18.31,32.87 17.96,33.14 17.49,33.32 C 17.04,33.5 16.51,33.59 15.91,33.59 A 4.4,4.4 0 0,1 14.34,33.33 A 2.6,2.6 0 0,1 13.22,32.53 A 2.96,2.96 0 0,1 12.72,31 H 10 C 10.04,32.03 10.3,33.08 10.8,33.8 C 11.28,34.52 11.97,35.06 12.84,35.44 C 13.71,35.81 14.74,36 15.94,36 C 17.16,36 18.2,35.8 19.06,35.42 A 4.55,4.55 0 0,0 21.05,33.81 C 21.5,33.11 21.73,32.31 21.73,31.4 C 21.73,30.72 21.61,30.14 21.36,29.64 A 3.9,3.9 0 0,0 20.34,28.35 C 19.92,28 19.44,27.71 18.9,27.47 A 9.76,9.76 0 0,0 17.24,26.92 L 15.81,26.55 A 8.94,8.94 0 0,1 14.87,26.27 C 14.57,26.17 14.28,26.02 14.03,25.87 A 2,2 0 0,1 13.43,25.25 A 1.78,1.78 0 0,1 13.55,23.37 C 13.76,23.07 14.08,22.83 14.49,22.65 C 14.91,22.47 15.4,22.38 15.98,22.38 C 16.8,22.38 17.47,22.57 17.98,22.94 Z M 27,20 V 36 H 24 V 20 H 27 Z M 29.97,20 H 33.36 L 37.89,31.48 H 38.07 L 42.61,20 H 46 V 36 H 43 V 25.6 L 38.98,36 H 36.99 L 33,25.66 V 36 H 29.97 V 20 Z"/>
</svg>
