<!-- by Finnhub --><svg width="56" height="56" viewBox="0 0 56 56" xmlns="http://www.w3.org/2000/svg"><path fill="#F0F3FA" d="M0 0h56v56H0z"/><path d="M27.67 16.98a8.25 8.25 0 0 1 1.11.03 5.26 5.26 0 0 1 1.7-4.85c-1.45-.23-2.95.39-3.13 1.84-.1.83-.04 1.83.32 2.98ZM26.96 12h-.1c-1.29.1-2.31 1.17-2.13 2.45v.07c.16.97.5 1.93 1.17 2.73.24-.07.5-.12.75-.17-.64-2.23-.3-3.93.31-5.08ZM24.9 17.6c-.3.12-.6.26-.88.42a4.2 4.2 0 0 1-1.59-2.09 6.88 6.88 0 0 1-.29-.96 2.08 2.08 0 0 1 1.55-2.42c-.06.65-.05 1.38.06 2.12.15.99.49 2.02 1.14 2.92ZM20.95 13.59c.04.83.2 1.79.55 2.7.33.86.85 1.7 1.63 2.32a8.3 8.3 0 0 0-.35.28c-1.96-.32-2.99-1.26-3.5-2.3-.5-1 .1-2.16 1.09-2.7l.58-.3Z" fill="#0F9BD7"/><path d="M17.9 15.54a5.17 5.17 0 0 0 4.04 4.2c-.24.26-.45.54-.64.83a4.26 4.26 0 0 1-4.06-2.4c-.48-.9-.14-1.99.65-2.63Z" fill="#0F9BD7"/><path d="M15.87 17.5c.22.67.54 1.34 1 1.95a5.17 5.17 0 0 0 3.87 2.1c-.16.35-.3.72-.42 1.1a8.38 8.38 0 0 1-3.75-.6c-1.8-.75-1.98-3.08-.7-4.56ZM13.5 21.1c-.71 1.5-.1 3.33 1.49 3.85 1.9.63 3.7.47 4.98.1v-.07c0-.45.04-.9.11-1.32-1 .04-2.17-.07-3.34-.47a7.63 7.63 0 0 1-3.23-2.1ZM20.04 26.06a9.47 9.47 0 0 1-7.76-1.33c-.39 1.9.95 3.74 2.9 3.83 2.67.12 4.26-.85 5-1.77a8.1 8.1 0 0 1-.14-.73Z" fill="#0F9BD7"/><path d="M20.52 27.9c-1.43 1.38-4.2 2.5-8.52 1.32a2.94 2.94 0 0 0 2.94 2.73 7.49 7.49 0 0 0 3.53-.84 7.06 7.06 0 0 0 2.5-2.27c-.17-.3-.32-.62-.45-.94Z" fill="#0F9BD7"/><path d="M21.55 29.75a8.1 8.1 0 0 1-2.6 2.24 9.64 9.64 0 0 1-6.23.91l.17.48a3.42 3.42 0 0 0 3.74 2.26A6.93 6.93 0 0 0 20 34.05a9.5 9.5 0 0 0 2.4-3.34c-.3-.3-.59-.62-.84-.96Z" fill="#0F9BD7"/><path d="M23.18 31.4a10.39 10.39 0 0 1-2.53 3.4 8.54 8.54 0 0 1-5.99 2.1l.4.55a3.61 3.61 0 0 0 4.06 1.24 7.02 7.02 0 0 0 3.28-2.35 8.35 8.35 0 0 0 1.6-4.41 7.97 7.97 0 0 1-.82-.54Z" fill="#0F9BD7"/><path d="M24.96 32.4a9.26 9.26 0 0 1-1.76 4.54 8.88 8.88 0 0 1-5.53 3.3c.35.3.71.56 1.1.8 1.17.76 2.68.87 3.89.16a6.27 6.27 0 0 0 3.15-3.92c.43-1.67.13-3.4-.38-4.7a8.14 8.14 0 0 1-.47-.18Z" fill="#0F9BD7"/><path d="M26.59 32.87c.42 1.36.61 3.01.2 4.66-.52 2.04-1.96 3.98-4.87 5.28.68.28 1.4.49 2.12.64a3.54 3.54 0 0 0 3.83-1.54A8.3 8.3 0 0 0 29 37.77c.03-1.86-.47-3.57-1.04-4.78-.47 0-.93-.04-1.37-.12Z" fill="#0F9BD7"/><path d="M29.02 32.92c.56 1.3 1.02 3.02.99 4.87a9.7 9.7 0 0 1-2.31 6.2l.29.01c.56 0 1.12-.05 1.67-.13a3.72 3.72 0 0 0 3.18-2.97 9.12 9.12 0 0 0-2.64-8.22 8 8 0 0 1-1.18.24Z" fill="#0F9BD7"/><path d="M31.24 32.3c.86.9 1.69 2.12 2.21 3.64.67 1.95.82 4.35-.11 7.15.46-.16.9-.36 1.34-.59a3.92 3.92 0 0 0 2.15-3.58 9.02 9.02 0 0 0-1.45-5.03 5.59 5.59 0 0 0-2.97-2.23c-.37.25-.76.46-1.17.64Z" fill="#0F9BD7"/><path d="M33.35 30.94c1 .43 2.03 1.18 2.86 2.38 1.1 1.6 1.81 3.97 1.6 7.33.4-.3.78-.64 1.15-1 2.21-2.14 2.47-5.84-.1-7.54l-.49-.3a10.06 10.06 0 0 0-4.55-1.33l-.47.46Z" fill="#0F9BD7"/><path d="M34.58 29.54c1.32.14 2.86.56 4.3 1.4a9.24 9.24 0 0 1 3.63 3.86 10 10 0 0 0 .21-.49c.46-1.12.4-2.43-.38-3.35a6.39 6.39 0 0 0-2.58-1.77 9.1 9.1 0 0 0-4.7-.42c-.15.26-.3.52-.48.77Z" fill="#0F9BD7"/><path d="M35.54 27.7a9.9 9.9 0 0 1 4.59.56 7.02 7.02 0 0 1 3.57 2.84c.06-.31.12-.63.16-.94.15-1.04-.1-2.14-.9-2.82a5.63 5.63 0 0 0-3.03-1.25c-1.5-.2-3 .14-4.1.57-.07.36-.17.7-.3 1.03Z" fill="#0F9BD7"/><path d="M35.99 25.54a9.37 9.37 0 0 1 4.07-.44A6.5 6.5 0 0 1 44 27.05c-.02-.41-.06-.85-.12-1.29-.14-1.11-.76-2.17-1.82-2.54a5.29 5.29 0 0 0-2.54-.2c-1.38.2-2.63.93-3.52 1.7a8.16 8.16 0 0 1-.01.82Z" fill="#0F9BD7"/><path d="M35.88 23.54c.94-.7 2.15-1.31 3.5-1.5a5.99 5.99 0 0 1 3.75.66l-.18-.52c-.5-1.32-1.7-2.33-3.1-2.1a7.43 7.43 0 0 0-4.27 2.32c.13.37.23.75.3 1.14ZM35.16 21.4a8.31 8.31 0 0 1 2.54-1.72c1.06-.45 2.3-.7 3.66-.54-.66-1-1.78-1.65-2.95-1.39-.82.2-1.49.5-2.02.83a4.24 4.24 0 0 0-1.73 1.96c.19.27.35.56.5.86ZM33.98 19.66c.38-.69 1-1.39 1.9-1.94a7.4 7.4 0 0 1 3.5-1c-.77-.78-1.85-1.12-2.84-.66-.31.14-.63.3-.93.46a5.25 5.25 0 0 0-2.39 2.4c.27.22.52.47.76.74ZM32.4 18.3a6.36 6.36 0 0 1 2.73-2.66c.66-.36 1.36-.62 2.01-.81l-.38-.27c-1-.71-2.28-.86-3.26-.12l-.03.03c-.87.66-1.56 1.76-1.5 3.56.15.08.3.17.44.27ZM30.97 17.54a4.9 4.9 0 0 1 2.88-4.47l-.36-.15c-1.04-.43-2.23-.3-2.93.58-.63.8-1.05 1.98-.73 3.68.39.1.77.22 1.14.36Z" fill="#0F9BD7"/></svg>