<!-- by Finnhub --><svg xmlns="http://www.w3.org/2000/svg" width="56" height="56" viewBox="0 0 56 56"><path fill="#F0F3FA" d="M0 0h56v56H0z"/><path d="M13.15 32h1.35v-2.54l-.31-.31h-.71l-.33.33V32Zm1.5 0v-2.51l.34-.34H16V32h-1.35ZM16 29h-.95l-.4-.4v-2.09l.36-.36H16V29Zm-.98-3H16v-3h-1.35v2.63l.37.37Zm-.52-.34V23h-1.35v2.64l.36.36h.65l.34-.34Zm-.34.49h-.66l-.35.35v2.12l.38.38h.6l.37-.37v-2.15l-.34-.33ZM13 26.5l-.35-.35h-.64l-.36.36v2.1l.4.39h.57l.38-.38V26.5Zm-.36-.5.36-.36V23h-1.35v2.63l.37.37h.62Zm.04 3.15.32.32V32h-1.35v-2.51l.34-.34h.69Zm-1.18-3.5V23h-1.35v2.64l.36.36h.65l.34-.34Zm-.34.5h-.66l-.35.35v2.12l.38.38h.6l.37-.37v-2.15l-.34-.33ZM11.5 32v-2.54l-.31-.31h-.71l-.33.33V32h1.35ZM10 23v2.64l-.36.36H9l-.34-.34V23H10Zm-1.02 3.15h.67l.35.35v2.12l-.38.38h-.6l-.37-.36v-2.16l.33-.33ZM10 29.47V32H8.65v-2.54l.3-.31h.73l.32.32Zm-1.5-3.85V23H7.15v2.63l.36.37h.61l.38-.38Zm-.37.53h-.62l-.36.36v2.1l.39.39h.56l.4-.4v-2.08l-.37-.37ZM7 28.62V26.5l-.34-.34h-.67l-.34.34v2.14l.37.37h.6l.38-.38ZM6.65 26l.35-.35V23H5.65v2.65L6 26h.65Zm.83 3.15h.68l.34.34V32H7.15v-2.52l.33-.33Zm-.48.32V32H5.65v-2.53l.32-.32h.71l.32.32Zm-1.5-3.84V23H4v3h1.13l.37-.37Zm-.36.52H4V29h1.1l.4-.4v-2.1l-.36-.35Zm-1.14 3h1.16l.34.33V32H4v-2.85Z" fill="#5CC2D4"/><path d="M20.66 32c-1.94.07-3.66-1.03-3.66-3h1.42c.13 1.15 1.13 1.7 2.24 1.7.72 0 1.94-.14 1.94-1.28 0-.53-.6-.92-1.09-1.02-.5-.12-.99-.25-1.45-.4-1.29-.38-2.7-.94-2.7-2.68 0-1.63 1.56-2.32 3.01-2.32 1.84 0 3.23 1.11 3.23 3h-1.32c0-1.23-1-1.7-1.87-1.7-.87 0-1.71.28-1.71 1.01 0 .45.39.8.75.96.79.35 1.56.6 2.4.79 1.11.22 2.15 1.02 2.15 2.24 0 1.8-1.72 2.64-3.34 2.7ZM32 27.41c.02.64-.08 1.28-.29 1.88-.2.55-.5 1.06-.88 1.49a3.82 3.82 0 0 1-4.48.87 3.8 3.8 0 0 1-1.25-.95 4.47 4.47 0 0 1-.83-1.45 5.67 5.67 0 0 1 .08-3.63c.2-.58.53-1.1.95-1.52a3.74 3.74 0 0 1 2.67-1.1A3.67 3.67 0 0 1 31 24.38c.33.42.58.9.74 1.4.16.53.24 1.08.26 1.63Zm-1.3.12c0-1.42-.82-3.23-2.7-3.23-1.88 0-2.72 1.86-2.7 3.25-.02 1.47.95 3.03 2.7 3.03 1.75 0 2.72-1.54 2.7-3.05ZM32.7 32v-9H34v7.7h4V32h-5.3Z" fill="#1D1D1B"/><path d="m42.95 32-.89-2.7H39.1l-.88 2.7h-1.55l3.13-9h1.6l3.13 9h-1.58Zm-2.34-7.25L39.5 28h2.25l-1.14-3.25ZM50.33 32c-.24-.52-.5-1.03-.79-1.52-.57-.99-1.1-2.2-2.4-2.19H46V32h-1.3v-9h4.5c.34.01.77.06 1.1.28.73.49 1 1.49 1 2.36 0 1.35-.57 2.26-1.8 2.53.86.59 1.25 1.4 1.73 2.3.27.5.52 1.01.77 1.53h-1.67ZM50 25.72c0-.9-.5-1.42-1.3-1.42H46V27h2.7c.5 0 1.3-.39 1.3-1.28Z" fill="#1D1D1B"/></svg>