<?xml version="1.0" encoding="UTF-8"?>
<!-- generated by Finnhub -->
<svg viewBox="0 0 55.5 55.5" xmlns="http://www.w3.org/2000/svg">
<path d="M 0,0 H 55.5 V 55.5 H 0 Z" fill="rgb(239, 242, 248)"/>
<path d="M 41.35,42.985 C 42.26,43 43,42.27 43,41.36 V 14.63 C 43,13.73 42.27,13 41.36,13 H 14.64 C 13.74,13 13,13.73 13,14.63 V 41.36 C 13,42.26 13.73,43 14.64,43 H 41.36 Z M 40.97,17.3 A 6.85,6.85 0 0,1 41.91,22.24 L 41.87,22.41 C 41.84,22.61 41.8,22.81 41.69,22.98 C 41.64,23.36 41.46,23.7 41.29,24.04 C 41.18,24.27 41.07,24.5 40.99,24.74 A 35.04,35.04 0 0,1 38.85,28.4 C 38.42,29 38,29.58 37.52,30.17 C 37.18,30.42 37.33,30.71 37.49,31 A 819.67,819.67 0 0,0 38.84,34.14 C 39.92,36.64 40.99,39.14 42,41.68 C 42,41.74 41.96,41.74 41.92,41.75 L 41.86,41.76 L 41.7,41.69 A 0.54,0.54 0 0,0 41.41,41.61 L 41.29,41.57 C 41.22,41.55 41.14,41.52 41.08,41.45 C 38.58,40.85 36.03,39.66 33.56,38.51 C 32.46,38.01 31.38,37.5 30.33,37.06 L 30.03,36.98 C 29.88,37.09 29.73,37.18 29.56,37.28 C 29.42,37.35 29.28,37.43 29.16,37.53 C 28.78,37.7 28.43,37.9 28.07,38.11 C 27.57,38.39 27.07,38.68 26.53,38.87 C 26.11,39.1 25.66,39.28 25.21,39.47 L 24.58,39.73 C 22.47,40.83 19.67,41.23 17.27,41.58 L 16.4,41.7 L 15.63,41.76 C 15.26,41.78 14.9,41.81 14.52,41.82 L 14.42,41.81 C 14.31,41.81 14.18,41.79 14.19,41.68 C 15.01,40.92 15.84,40.2 16.67,39.49 L 17.9,38.43 L 22.2,34.68 L 22.53,34.38 C 22.65,34.28 22.76,34.18 22.86,34.07 C 22.86,33.95 22.75,33.91 22.65,33.87 L 22.54,33.82 C 21.36,33.03 19.96,32.59 18.54,32.15 C 17.14,31.71 15.71,31.27 14.52,30.47 C 14.52,30.4 14.59,30.4 14.66,30.4 A 0.4,0.4 0 0,0 14.74,30.4 C 16.86,30.42 18.98,30.42 21.11,30.42 H 25.67 C 25.72,30.47 25.76,30.46 25.8,30.44 C 25.84,30.43 25.88,30.41 25.93,30.44 C 26.01,30.41 26.08,30.43 26.14,30.44 C 26.22,30.47 26.29,30.49 26.37,30.42 H 26.63 C 26.93,30.44 27.26,30.45 27.43,30.14 L 27.98,29.65 C 28.74,28.99 29.51,28.32 30.25,27.62 A 3.16,3.16 0 0,0 29.98,26.94 C 29.9,26.78 29.82,26.62 29.77,26.44 C 29.43,25.74 29.1,25 28.82,24.27 L 28.76,24.13 C 28.5,23.5 28.24,22.85 28.17,22.15 A 6.77,6.77 0 0,1 30.65,15.55 A 7.12,7.12 0 0,1 37.06,14.35 A 7.35,7.35 0 0,1 40.97,17.3 Z M 35.54,19.11 C 36.24,19.32 36.84,19.9 36.96,20.65 C 37.03,21.2 36.89,21.78 36.51,22.19 A 34.1,34.1 0 0,1 34.52,23.89 C 34.42,23.94 34.35,23.84 34.34,23.76 A 11,11 0 0,0 33.92,22.8 C 33.62,22.15 33.31,21.5 33.28,20.77 L 33.31,20.7 C 33.37,20.04 33.81,19.5 34.4,19.2 C 34.45,19.2 34.5,19.18 34.55,19.16 C 34.74,19.11 34.95,19.05 35.12,19.1 L 35.54,19.11 Z" fill="rgb(1, 93, 171)"/>
</svg>
