<?xml version="1.0" encoding="UTF-8"?>
<!-- generated by Finnhub -->
<svg viewBox="0 0 55.5 55.5" xmlns="http://www.w3.org/2000/svg">
<path d="M 0,0 H 55.5 V 55.5 H 0 Z" fill="rgb(239, 242, 248)"/>
<path d="M 27.99,42.985 A 15,15 0 1,0 28,13 A 15,15 0 0,0 28,43 Z M 28,45 A 17,17 0 1,0 28,11 A 17,17 0 0,0 28,45 Z" fill="rgb(18, 36, 67)" fill-rule="evenodd"/>
<path d="M 27.99,41.485 A 13.5,13.5 0 1,0 28,14.5 A 13.5,13.5 0 0,0 28,41.5 Z M 28,42 A 14,14 0 1,0 28,14 A 14,14 0 0,0 28,42 Z" fill="rgb(5, 154, 212)" fill-rule="evenodd"/>
<path d="M 17.31,23.985 H 18.22 V 25.31 H 17.65 C 17.52,25.31 17.43,25.41 17.43,25.53 V 26.56 C 18.03,26.7 19.26,26.98 19.34,26.98 C 20.5,27.13 20.93,27.96 21,28.36 V 29.69 C 21,30.41 20.41,31 19.68,31 H 18.78 V 29.65 H 19.29 C 19.41,29.65 19.51,29.55 19.51,29.43 V 28.36 L 17.55,27.96 C 16.4,27.73 16.04,27 16,26.66 V 25.31 C 16,24.59 16.59,24 17.32,24 Z M 18.22,29.65 H 17.65 A 0.22,0.22 0 0,1 17.43,29.43 V 29 H 16 V 29.69 C 16,30.41 16.59,31 17.32,31 H 18.22 V 29.65 Z M 19.46,25.31 H 18.78 V 24 H 19.68 C 20.41,24 21,24.59 21,25.31 V 26 H 19.68 V 25.53 C 19.68,25.41 19.58,25.31 19.46,25.31 Z M 22,24 H 23.47 V 31 H 22 V 24 Z M 24,29.65 H 26 V 30.98 H 24 V 29.65 Z" fill="rgb(18, 36, 67)"/>
<path d="M 31.209999999999997,30.985 H 32.65 L 28.82,19 H 27.62 L 30.32,28 H 29.27 L 28.93,29.26 H 30.7 L 31.22,31 Z M 25.68,35 L 28.95,24.15 L 29.58,26.2 L 27.04,35 H 25.68 Z" fill="rgb(5, 154, 212)"/>
<path d="M 39.99,23.985 V 31 H 38.57 V 27.45 L 40,24 Z M 33.56,24.01 V 31 H 35 V 27.47 L 33.56,24 Z M 34.02,24 H 35.11 L 36.75,28.1 L 38.44,24 H 39.54 L 37.24,30 H 36.28 L 34.02,24 Z M 29,32.44 C 29,32.2 29.19,32 29.42,32 H 29.96 C 30.2,32 30.39,32.2 30.39,32.44 V 32.67 H 29.96 V 32.44 H 29.42 V 33.56 H 29.96 V 33.3 H 30.39 V 33.56 C 30.39,33.8 30.19,34 29.96,34 H 29.42 A 0.43,0.43 0 0,1 29,33.56 V 32.44 Z M 31.59,32.44 C 31.59,32.2 31.78,32 32.01,32 H 32.55 C 32.78,32 32.97,32.2 32.97,32.44 V 33.56 C 32.97,33.8 32.78,34 32.55,34 H 32.01 A 0.43,0.43 0 0,1 31.59,33.56 V 32.44 Z M 32.55,32.44 H 32.01 V 33.56 H 32.55 V 32.44 Z M 34,32 H 34.96 C 35.2,32 35.39,32.2 35.39,32.46 V 32.88 C 35.39,33.1 35.25,33.28 35.06,33.34 L 35.47,34 H 34.97 L 34.57,33.35 H 34.42 V 34 H 34 V 32 Z M 34.42,32.88 H 34.96 V 32.46 H 34.42 V 32.88 Z M 36.58,32 H 37.54 C 37.78,32 37.97,32.2 37.97,32.46 V 32.88 C 37.97,33.1 37.83,33.28 37.64,33.34 H 37 V 34 H 36.58 V 32 Z M 37,32.88 H 37.54 V 32.46 H 37 V 32.88 Z" fill="rgb(18, 36, 67)"/>
</svg>
