<!-- by Finnhub --><svg xmlns="http://www.w3.org/2000/svg" width="56" height="56" viewBox="0 0 56 56"><path fill="#F63" d="M0 0h56v56H0z"/><path d="M28 11c-9.32 0-17 7.68-17 17 0 9.33 7.68 17 17 17 9.33 0 17-7.67 17-17 0-9.32-7.67-17-17-17zM37.9 40.6a3.1 3.1 0 0 0-1.72-.78c-1.66 0-2.55 1.57-2.21 3.04a16.01 16.01 0 0 1-11.9 0c.28-1.46-.53-3.01-2.21-3.01-.71 0-1.18.32-1.7.76a16.12 16.12 0 0 1-5.97-10.36c.92-.33 1.79-1.26 1.79-2.24 0-1.18-.78-1.89-1.8-2.23a16.27 16.27 0 0 1 5.99-10.38c.42.36 1.11.8 1.67.8 1.67 0 2.55-1.56 2.2-3.03a16.06 16.06 0 0 1 11.92-.02c-.28 1.48.49 3.05 2.2 3.05.73 0 1.2-.33 1.7-.77 3.22 2.5 5.42 6.4 6 10.42-.93.33-1.84 1.18-1.84 2.17 0 1.21.83 1.87 1.83 2.3A16.04 16.04 0 0 1 37.9 40.6zm-1.72-15a2.33 2.33 0 1 0 0-4.65 2.33 2.33 0 0 0 0 4.65zm2.33 7.12a2.33 2.33 0 1 1-4.66 0 2.33 2.33 0 0 1 4.66 0zM36 29a1 1 0 1 0 0-2 1 1 0 0 0 0 2zm-3-8a1 1 0 1 1-2 0 1 1 0 0 1 2 0zm7 6a1 1 0 1 0 0-2 1 1 0 0 0 0 2zm-3 10a1 1 0 1 1-2 0 1 1 0 0 1 2 0zm-5-20a1 1 0 1 0 0-2 1 1 0 0 0 0 2zm-1.67 1.53a2.33 2.33 0 1 1-4.65 0 2.33 2.33 0 0 1 4.65 0zM24 22a1 1 0 1 0 0-2 1 1 0 0 0 0 2zm-3-3a1 1 0 1 1-2 0 1 1 0 0 1 2 0zm-1.2 6.6a2.33 2.33 0 1 0 0-4.66 2.33 2.33 0 0 0 0 4.65zM21 28a1 1 0 1 1-2 0 1 1 0 0 1 2 0zm-5 3a1 1 0 1 0 0-2 1 1 0 0 0 0 2zm9 4a1 1 0 1 1-2 0 1 1 0 0 1 2 0zm-1 6a1 1 0 1 0 0-2 1 1 0 0 0 0 2zm6.33-3.56a2.33 2.33 0 1 1-4.65 0 2.33 2.33 0 0 1 4.65 0zM32 36a1 1 0 1 0 0-2 1 1 0 0 0 0 2zm-9.87-3.26a2.33 2.33 0 1 1-4.65 0 2.33 2.33 0 0 1 4.65 0z" fill="#fff"/></svg>