<?xml version="1.0" encoding="UTF-8"?>
<!-- generated by Finnhub -->
<svg viewBox="0 0 55.5 55.5" xmlns="http://www.w3.org/2000/svg">
<path d="M 0,0 H 55.5 V 55.5 H 0 Z" fill="url(#a)"/>
<path d="M 30.229999999999997,23.485 A 1.25,1.25 0 0,0 31.4,22.74 A 1.26,1.26 0 0,0 29.35,21.38 A 1.25,1.25 0 0,0 29,22.26 A 1.22,1.22 0 0,0 29.76,23.41 C 29.92,23.47 30.08,23.51 30.24,23.5 Z" fill="rgb(254, 254, 253)"/>
<path d="M 49.79,31.555 A 1.5,1.5 0 0,1 48.76,32 A 0.77,0.77 0 0,1 48.32,31.68 A 0.8,0.8 0 0,1 48.19,31.16 C 48.19,31.02 48.22,30.88 48.25,30.75 L 49.4,25.21 A 0.18,0.18 0 0,0 49.31,25.01 A 0.17,0.17 0 0,0 49.24,25 H 47.16 A 0.2,0.2 0 0,0 47.03,25.05 A 0.21,0.21 0 0,0 46.96,25.17 L 46.83,25.8 C 46.61,25.24 46.11,24.99 45.44,25 C 42.63,25 41.21,28.04 41.09,30.5 C 40.77,31.15 40.13,32.32 39.56,32.32 C 38.99,32.32 38.89,32.02 38.89,31.56 C 38.89,30.54 39.69,28.35 39.69,26.9 C 39.7,25.45 38.91,25 37.82,25 C 37.05,25 36.3,25.31 35.84,25.94 L 35.98,25.21 A 0.18,0.18 0 0,0 35.95,25.07 A 0.17,0.17 0 0,0 35.82,25 H 33.77 C 33.71,25 33.67,25.02 33.62,25.06 C 33.58,25.1 33.56,25.16 33.55,25.21 L 32.47,30.51 C 31.73,31.63 31.16,31.99 30.47,31.98 A 0.73,0.73 0 0,1 29.97,31.72 A 0.76,0.76 0 0,1 29.78,31.17 L 29.85,30.74 L 30.99,25.29 A 0.24,0.24 0 0,0 30.95,25.09 A 0.23,0.23 0 0,0 30.77,25 H 28.8 A 0.2,0.2 0 0,0 28.67,25.05 A 0.22,0.22 0 0,0 28.6,25.18 L 27.5,30.23 C 26.77,31.32 26.16,31.98 25.5,31.98 A 0.74,0.74 0 0,1 25,31.71 A 0.77,0.77 0 0,1 24.82,31.16 C 24.83,31.01 24.85,30.86 24.88,30.72 L 26.78,21.21 A 0.19,0.19 0 0,0 26.74,21.04 A 0.18,0.18 0 0,0 26.67,20.99 L 26.58,20.98 L 24.52,21.28 A 0.28,0.28 0 0,0 24.37,21.36 A 0.3,0.3 0 0,0 24.3,21.52 L 22.7,29.5 C 21.52,31.34 20.37,32.15 19.05,32.15 C 18.41,32.15 17.84,31.67 17.84,30.7 C 17.84,30.33 17.87,30.03 17.87,30.02 H 18.15 C 18.39,29.99 18.62,29.94 18.85,29.87 H 18.89 C 19.68,29.64 20.39,29.17 20.89,28.51 C 21.41,27.85 21.71,27.61 21.74,26.77 C 21.74,25.87 21.24,25 19.91,25 C 17.21,25 15.94,27.1 15.51,29.25 H 14.73 C 14.53,25.62 10.89,25.17 10.89,22.58 A 1.54,1.54 0 0,1 11.29,21.39 A 1.48,1.48 0 0,1 12.44,20.93 C 12.77,20.93 13.08,21.07 13.32,21.3 C 13.55,21.53 13.69,21.84 13.71,22.18 A 1.66,1.66 0 0,1 13.28,23.43 A 0.16,0.16 0 0,0 13.25,23.56 A 0.17,0.17 0 0,0 13.32,23.67 C 13.51,23.77 13.72,23.81 13.93,23.79 A 1.37,1.37 0 0,0 15.17,22.87 C 15.24,22.67 15.27,22.47 15.27,22.27 C 15.27,20.45 13.18,20 12.38,20 C 10.19,20 8.47,21.38 8.46,23.27 C 8.46,25.49 10.89,26.64 11.69,28.77 C 11.09,28.65 10.49,28.57 9.89,28.52 C 9.05,28.46 8.21,28.62 7.46,28.99 A 2.44,2.44 0 0,0 6,31.04 A 2.38,2.38 0 0,0 6.7,32.94 C 7.62,33.88 8.93,34 9.75,34 C 10.11,34.01 10.48,33.99 10.83,33.93 C 12.75,33.65 14.43,32.43 14.69,30.17 H 15.35 C 15.35,30.43 15.32,30.67 15.32,30.88 C 15.32,32.68 16.37,34 17.96,34 C 18.84,34.01 19.7,33.57 20.47,33.15 A 5.19,5.19 0 0,0 22.37,31.35 V 31.59 C 22.37,32.99 23.11,34 24.19,34 C 25.49,34 26.23,33.55 27.35,31.85 C 27.35,32.1 27.38,32.35 27.47,32.57 C 27.73,33.27 28.4,34 29.15,34 C 30.11,34 30.97,33.98 32.09,32.4 L 31.81,33.74 A 0.18,0.18 0 0,0 31.91,33.94 C 31.93,33.95 31.95,34 31.98,34 H 34 C 34.06,34 34.11,33.94 34.16,33.9 A 0.26,0.26 0 0,0 34.24,33.76 L 35.34,28.23 C 35.39,27.89 35.5,27.56 35.64,27.25 C 35.72,27.04 35.84,26.85 36.02,26.71 C 36.19,26.57 36.4,26.49 36.62,26.48 C 37.08,26.48 37.28,26.84 37.29,27.39 C 37.29,28.56 36.52,30.74 36.52,31.97 A 1.92,1.92 0 0,0 37.05,33.47 C 37.25,33.67 37.47,33.82 37.73,33.91 C 37.98,34.01 38.25,33.98 38.53,33.95 C 39.25,33.95 40.23,33.49 41.16,31.85 C 41.22,32.38 41.48,32.87 41.88,33.22 C 42.28,33.57 42.79,33.76 43.32,33.74 A 3.01,3.01 0 0,0 45.84,32.06 C 45.86,32.5 46.04,32.92 46.34,33.24 C 46.66,33.54 47.07,33.73 47.5,33.74 C 48.59,33.81 49.58,33.16 49.99,31.71 A 0.14,0.14 0 0,0 49.93,31.58 A 0.13,0.13 0 0,0 49.79,31.57 Z M 19.95,26.12 C 20.24,26.12 20.43,26.37 20.43,26.82 C 20.42,27.5 20.16,27.58 19.73,28.1 C 19.28,28.6 18.67,28.95 18.01,29.05 C 18.35,27.25 19.08,26.12 19.95,26.12 Z M 10.66,32.54 C 10.26,32.69 9.81,32.71 9.39,32.61 A 1.28,1.28 0 0,1 8.42,31.25 C 8.47,30.95 8.61,30.68 8.81,30.46 C 9.01,30.24 9.28,30.1 9.56,30.04 C 10.35,29.84 11.16,29.84 11.94,30.04 V 30.17 C 11.94,31.34 11.44,32.2 10.66,32.53 V 32.54 Z M 46.59,27.01 L 45.83,30.41 C 45.62,31.45 44.91,32.01 44.41,32.01 C 44.11,32.01 43.57,32.01 43.57,30.58 C 43.57,28.88 44.4,26.15 45.85,26.15 A 0.77,0.77 0 0,1 46.4,26.42 A 0.8,0.8 0 0,1 46.59,27.01 Z" fill="rgb(254, 254, 253)"/>
<defs>
<linearGradient id="a" x1="10.42" x2="68.15" y1="9.71" y2="76.02" gradientUnits="userSpaceOnUse">
<stop stop-color="rgb(25, 29, 31)" offset="0"/>
<stop stop-color="rgb(5, 5, 8)" offset="1"/>
</linearGradient>
</defs>
</svg>
