<!-- by Finnhub --><svg width="56" height="56" fill="none" xmlns="http://www.w3.org/2000/svg"><path fill="#F0F3FA" d="M0 0h56v56H0z"/><path fill-rule="evenodd" clip-rule="evenodd" d="M33.72 21l3.266 8h-1.492c-6.102-7.914-12.536-10.386-17.66-10.425-4.098-.031-7.943 1.128-9.353 1.71 10.65-5.816 19.88-.663 23.163 2.64L32.39 21h1.33zm.306 4.204l-1.005-2.175-.416 1.036 1.421 1.139zM7.5 21H6v8h6v-1.5H7.5V21zm31 0H36v1.505h2.5V29H40v-6.495h2.5V21h-4zM13 21h6v1.5h-4.5v1.75h4v1.5h-4v1.75H19V29h-6v-8zm11.264 0c1.59.021 2.6.775 2.907 1.149l-.881 1.044c-.224-.322-.934-.927-2.026-.927-1.355 0-2.764.744-2.764 2.714 0 1.814 1.462 2.714 2.764 2.714 1.042 0 1.554-.38 1.736-.651V26h-2v-1.5h3.5v3.194c-.35.422-1.47 1.274-3.144 1.305-2.09.04-4.255-1.125-4.352-3.837-.109-3.013 2.274-4.188 4.26-4.162zM51 25a4 4 0 11-8 0 4 4 0 018 0zm-1.5 0a2.5 2.5 0 11-5 0 2.5 2.5 0 015 0zm-18.65-.315L28.946 29h1.512l1.434-3.262-1.042-1.053z" fill="#07944E"/><path d="M20.135 32c.795.01 1.301.387 1.455.574l-.441.52c-.112-.16-.467-.462-1.014-.462-.678 0-1.351.365-1.351 1.348 0 .906.7 1.362 1.351 1.362.522 0 .774-.19.865-.325v-.639h-.944v-.638h1.698v2.254H21v-.22c-.257.12-.434.213-.819.22-1.046.02-2.128-.562-2.177-1.916-.054-1.505 1.138-2.09 2.131-2.078zM6 32v4h.805v-2.952L7.888 36h.74l.985-2.952V36h.739v-4H9.219l-1.002 2.707L7.1 32H6zM47.299 32h.704v4h-.704zM49.296 32H50v4h-.704z" fill="#000"/><path fill-rule="evenodd" clip-rule="evenodd" d="M14.984 32h1.344a1.204 1.204 0 01.387 2.345L17.711 36h-.914l-.957-1.592h-.588V36h-.735v-4h.467zm.268 1.814v-1.213h.954a.606.606 0 010 1.213h-.954zM26.212 32h1.345a1.204 1.204 0 01.387 2.345L28.939 36h-.913l-.957-1.592h-.589V36h-.734v-4h.466zm.268 1.814v-1.213h.954a.606.606 0 010 1.213h-.954zM39.055 32h1.344a1.204 1.204 0 01.387 2.345L41.782 36h-.914l-.957-1.592h-.588V36h-.735v-4h.467zm.268 1.814v-1.212h.953a.606.606 0 110 1.212h-.953zM42.76 32h-.467v4h.734v-1.342h.948a1.33 1.33 0 000-2.658H42.76zm.267 2v-1.348h.905a.674.674 0 110 1.348h-.905zM13.719 32h-2.456v4h2.456v-.62h-1.718v-1.07h1.393v-.62H12v-1.07h1.718V32zM24.977 32h-2.455v4h2.456v-.62h-1.719v-1.07h1.394v-.62H23.26v-1.07h1.717V32zM33.517 35.38c-.372.382-.896.62-1.477.62-1.126 0-2.04-.895-2.04-2s.914-2 2.04-2c.66 0 1.248.307 1.62.784l-.67.32a1.322 1.322 0 00-.943-.39A1.3 1.3 0 0030.734 34a1.3 1.3 0 001.313 1.287c.328 0 .628-.118.859-.314l.611.407zM36.04 36c1.127 0 2.04-.895 2.04-2s-.913-2-2.04-2-2.04.895-2.04 2 .913 2 2.04 2zm.007-.713A1.3 1.3 0 0037.358 34a1.3 1.3 0 00-1.313-1.287A1.3 1.3 0 0034.735 34a1.3 1.3 0 001.313 1.287z" fill="#000"/></svg>