<?xml version="1.0" encoding="UTF-8"?>
<!-- generated by Finnhub -->
<svg viewBox="0 0 55.5 55.5" xmlns="http://www.w3.org/2000/svg">
<path d="M 0,0 H 55.5 V 55.5 H 0 Z" fill="rgb(239, 242, 248)"/>
<path d="M 8.39,21.985 C 9.55,22.01 10.3,22.5 10.53,22.75 L 9.92,23.56 C 9.67,23.34 9.02,22.99 8.41,23 C 7.63,23.02 7.36,23.29 7.34,23.56 C 7.32,23.83 7.34,24.25 8.83,24.54 C 10.33,24.84 10.7,25.56 10.7,26.31 C 10.7,27.11 10.03,27.97 8.56,28 A 4.09,4.09 0 0,1 6,27.06 L 6.7,26.31 C 6.78,26.42 7.69,27.04 8.56,27 C 9.42,26.96 9.59,26.61 9.6,26.31 C 9.61,26.01 9.42,25.76 8.14,25.46 C 6.87,25.15 6.24,24.64 6.24,23.72 C 6.25,22.8 6.98,21.98 8.41,22 Z M 47.7,22 C 48.84,22.01 49.6,22.5 49.83,22.75 L 49.21,23.56 A 2.52,2.52 0 0,0 47.71,23 C 46.93,23.02 46.66,23.29 46.64,23.56 C 46.62,23.83 46.64,24.25 48.13,24.54 C 49.62,24.84 50,25.56 50,26.31 C 50,27.11 49.33,27.97 47.86,28 A 4.09,4.09 0 0,1 45.3,27.06 L 46,26.31 C 46.08,26.42 46.99,27.04 47.86,27 C 48.72,26.96 48.89,26.61 48.9,26.31 C 48.91,26.01 48.71,25.76 47.44,25.46 C 46.17,25.15 45.54,24.64 45.54,23.72 C 45.55,22.8 46.28,21.98 47.7,22 Z" fill="rgb(139, 88, 40)"/>
<path d="M 17.549999999999997,29.985 C 18.45,30.01 18.98,30.48 19.16,30.68 L 18.81,31.03 C 18.61,30.85 17.98,30.49 17.5,30.51 C 16.89,30.52 16.42,30.81 16.42,31.34 C 16.42,31.56 16.54,31.97 17.72,32.22 C 18.88,32.46 19.3,33 19.3,33.62 C 19.3,34.27 18.77,34.98 17.62,35 C 16.69,35.02 15.89,34.5 15.61,34.23 L 15.99,33.81 C 16.05,33.9 16.93,34.53 17.62,34.51 C 18.3,34.47 18.72,34.23 18.72,33.66 C 18.72,33.3 18.39,32.98 17.39,32.73 S 15.81,32.09 15.82,31.33 C 15.82,30.58 16.44,29.99 17.56,30 Z M 48.26,30 C 49.16,30.01 49.68,30.48 49.86,30.68 L 49.51,31.03 C 49.31,30.85 48.68,30.49 48.2,30.51 C 47.6,30.52 47.12,30.81 47.12,31.34 C 47.12,31.56 47.25,31.97 48.42,32.22 C 49.58,32.46 50,33 50,33.62 C 50,34.27 49.47,34.98 48.32,35 C 47.39,35.02 46.59,34.5 46.32,34.23 L 46.69,33.81 C 46.75,33.9 47.64,34.53 48.32,34.51 C 49,34.47 49.42,34.23 49.42,33.66 C 49.42,33.3 49.09,32.98 48.09,32.73 S 46.51,32.09 46.52,31.33 C 46.52,30.58 47.14,29.99 48.26,30 Z" fill="rgb(86, 86, 85)"/>
<path d="M 22.689999999999998,34.985 A 2.54,2.54 0 0,0 25.27,32.5 C 25.27,31.12 24.12,30 22.7,30 A 2.54,2.54 0 0,0 20.12,32.5 C 20.12,33.88 21.27,35 22.69,35 Z M 22.7,34.49 C 23.76,34.49 24.63,33.59 24.63,32.5 C 24.63,31.4 23.76,30.51 22.7,30.51 C 21.63,30.51 20.76,31.41 20.76,32.5 C 20.76,33.6 21.63,34.49 22.69,34.49 Z" fill="rgb(86, 86, 85)" fill-rule="evenodd"/>
<path d="M 14.99,27.985 A 3,3 0 1,0 15,22 A 3,3 0 0,0 15,28 Z M 15,27 A 2,2 0 1,0 15,23 A 2,2 0 0,0 15,27 Z" fill="rgb(139, 88, 40)" fill-rule="evenodd"/>
<path d="M 41.99,21.985 H 43 V 28 H 42 Z M 21,22 H 20 V 28 H 24.51 V 27 H 21 V 22 Z" fill="rgb(139, 88, 40)"/>
<path d="M 26.24,27.985 L 28.94,22 H 29.93 L 32.67,28 H 31.45 L 30.85,26.55 H 28.05 L 27.4,28 H 26.24 Z M 28.45,25.58 L 29.43,23.35 L 30.45,25.58 H 28.45 Z M 35,22 H 37.83 A 2,2 0 0,1 38.55,25.87 L 40,28 H 38.8 L 37.44,26 H 36 V 28 H 35 V 22 Z M 36,23 H 37.81 A 1,1 0 1,1 37.81,25 H 36 V 23 Z" fill="rgb(139, 88, 40)" fill-rule="evenodd"/>
<path d="M 5.99,29.985 H 8.39 A 1.5,1.5 0 0,1 8.61,32.98 L 10.11,35 H 9.34 L 7.86,33 H 6.56 V 35 H 6 V 30 Z M 6.58,30.56 H 8.35 A 0.96,0.96 0 1,1 8.35,32.49 H 6.58 V 30.56 Z M 31.44,30 H 33.82 A 1.5,1.5 0 0,1 34.05,32.98 L 35.55,35 H 34.78 L 33.3,33 H 32 V 35 H 31.44 V 30 Z M 32,32.49 V 30.56 H 33.79 A 0.96,0.96 0 1,1 33.79,32.49 H 32 Z" fill="rgb(86, 86, 85)" fill-rule="evenodd"/>
<path d="M 11.870000000000001,32.775 V 34.43 H 14.83 V 35 H 11.32 V 30 H 14.83 V 30.57 H 11.88 V 32.21 H 14.66 V 32.79 H 11.88 Z M 42.4,32.79 V 34.43 H 45.34 V 35 H 41.83 V 30 H 45.34 V 30.57 H 42.4 V 32.21 H 45.18 V 32.79 H 42.4 Z M 40.89,34.16 C 40.41,34.67 39.72,35 38.94,35 A 2.55,2.55 0 0,1 36.34,32.5 C 36.34,31.12 37.51,30 38.94,30 C 39.68,30 40.34,30.3 40.82,30.78 L 40.42,31.2 A 1.92,1.92 0 0,0 38.94,30.51 C 37.87,30.51 37,31.41 37,32.5 C 37,33.6 37.87,34.49 38.94,34.49 C 39.54,34.49 40.09,34.2 40.44,33.76 L 40.89,34.16 Z M 26.8,30 H 26.25 V 32.96 A 2.05,2.05 0 0,0 30.34,32.96 V 30 H 29.78 V 32.99 A 1.5,1.5 0 0,1 26.8,32.99 V 30 Z" fill="rgb(86, 86, 85)"/>
</svg>
