<?xml version="1.0" encoding="UTF-8"?>
<!-- generated by Finnhub -->
<svg viewBox="0 0 55.5 55.5" xmlns="http://www.w3.org/2000/svg">
<path d="M 0,0 H 55.5 V 55.5 H 0 Z" fill="rgb(239, 242, 248)"/>
<path d="M 37.99,20.465 H 36.5 V 31 H 38 V 20.48 Z" fill="rgb(254, 254, 253)"/>
<path d="M 37.74,20.705 H 36.75 V 30.76 H 37.75 V 20.72 Z M 38,20.48 V 31 H 36.5 V 20.48 H 38 Z" fill="rgb(97, 101, 106)"/>
<path d="M 37.49,19.985 H 36 V 30.52 H 37.5 V 20 Z" fill="rgb(237, 52, 40)"/>
<path d="M 44.99,20.465 H 40.5 V 21.91 H 42 V 31 H 43.5 V 21.91 H 45 V 20.48 Z" fill="rgb(254, 254, 253)"/>
<path d="M 41.99,21.895 V 31 H 43.5 V 21.91 H 45 V 20.48 H 40.5 V 21.91 H 42 Z M 40.75,21.67 H 42.25 V 30.77 H 43.25 V 21.67 H 44.75 V 20.72 H 40.75 V 21.67 Z" fill="rgb(97, 101, 106)" fill-rule="evenodd"/>
<path d="M 44.49,19.985 H 40 V 21.43 H 41.5 V 30.53 H 43 V 21.43 H 44.5 V 20 Z" fill="rgb(237, 52, 40)"/>
<path d="M 51.99,20.465 H 47.5 V 21.91 H 49 V 31 H 50.5 V 21.91 H 52 V 20.48 Z" fill="rgb(254, 254, 253)"/>
<path d="M 48.99,21.895 V 31 H 50.5 V 21.91 H 52 V 20.48 H 47.5 V 21.91 H 49 Z M 47.75,21.67 H 49.25 V 30.77 H 50.25 V 21.67 H 51.75 V 20.72 H 47.75 V 21.67 Z" fill="rgb(97, 101, 106)" fill-rule="evenodd"/>
<path d="M 51.49,19.985 H 47 V 21.43 H 48.5 V 30.53 H 50 V 21.43 H 51.5 V 20 Z" fill="rgb(237, 52, 40)"/>
<path d="M 8.99,21.895 V 23.35 H 7.5 V 21.9 H 6.5 V 24.77 H 7.5 C 8.7,24.77 9,25.73 9,26.21 V 29.56 C 9,30.04 8.6,31 7,31 S 5,30.04 5,29.57 V 28.13 H 6.5 V 29.57 H 7.5 V 26.22 H 6 C 5.2,26.22 5,25.58 5,25.26 V 21.91 C 5,21.43 5.4,20.48 7,20.48 S 9,21.43 9,21.91 Z" fill="rgb(254, 254, 253)"/>
<path d="M 7.74,25.965 V 29.8 H 6.25 V 28.37 H 5.25 V 29.57 C 5.25,29.75 5.33,30.05 5.58,30.3 C 5.83,30.54 6.26,30.76 7,30.76 C 7.74,30.76 8.17,30.54 8.42,30.3 C 8.67,30.05 8.75,29.75 8.75,29.57 V 26.22 C 8.75,26.02 8.68,25.71 8.5,25.46 C 8.32,25.22 8.02,25.02 7.5,25.02 H 6.25 V 21.67 H 7.75 V 23.11 H 8.75 V 21.91 C 8.75,21.73 8.67,21.43 8.42,21.18 C 8.17,20.94 7.74,20.72 7,20.72 C 6.26,20.72 5.83,20.94 5.58,21.18 C 5.33,21.43 5.25,21.73 5.25,21.91 V 25.26 C 5.25,25.38 5.29,25.56 5.4,25.72 C 5.5,25.86 5.68,25.98 6,25.98 H 7.75 Z M 9,21.9 C 9,21.42 8.6,20.47 7,20.47 S 5,21.42 5,21.9 V 25.25 C 5,25.57 5.2,26.21 6,26.21 H 7.5 V 29.56 H 6.5 V 28.12 H 5 V 29.56 C 5,30.03 5.4,30.99 7,30.99 S 9,30.03 9,29.56 V 26.21 C 9,25.73 8.7,24.77 7.5,24.77 H 6.5 V 21.9 H 7.5 V 23.34 H 9 V 21.9 Z" fill="rgb(97, 101, 106)" fill-rule="evenodd"/>
<path d="M 8.49,21.415 V 22.87 H 7 V 21.43 H 6 V 24.3 H 7 C 8.2,24.3 8.5,25.26 8.5,25.74 V 29.09 C 8.5,29.57 8.1,30.52 6.5,30.52 S 4.5,29.57 4.5,29.09 V 27.65 H 6 V 29.09 H 7 V 25.74 H 5.5 C 4.7,25.74 4.5,25.1 4.5,24.78 V 21.43 C 4.5,20.96 4.9,20 6.5,20 S 8.5,20.96 8.5,21.43 Z" fill="rgb(237, 52, 40)"/>
<path d="M 16.49,23.335 H 15 V 21.9 H 14 V 29.56 H 15 V 28.12 H 16.5 V 29.56 C 16.5,30.03 16.1,30.99 14.5,30.99 S 12.5,29.71 12.5,29.08 V 21.9 C 12.5,21.42 12.9,20.47 14.5,20.47 C 16.1,20.47 16.5,21.42 16.5,21.9 V 23.34 Z" fill="rgb(254, 254, 253)"/>
<path d="M 15.24,29.785 H 13.75 V 21.67 H 15.25 V 23.11 H 16.25 V 21.91 C 16.25,21.73 16.17,21.43 15.92,21.18 C 15.67,20.94 15.24,20.72 14.5,20.72 C 13.76,20.72 13.33,20.94 13.08,21.18 C 12.83,21.43 12.75,21.73 12.75,21.91 V 29.09 C 12.75,29.37 12.84,29.79 13.1,30.14 C 13.36,30.48 13.78,30.76 14.5,30.76 C 15.24,30.76 15.67,30.54 15.92,30.3 C 16.17,30.05 16.25,29.75 16.25,29.57 V 28.37 H 15.25 V 29.8 Z M 15,28.13 H 16.5 V 29.57 C 16.5,30.04 16.1,31 14.5,31 S 12.5,29.72 12.5,29.09 V 21.9 C 12.5,21.42 12.9,20.47 14.5,20.47 C 16.1,20.47 16.5,21.42 16.5,21.9 V 23.34 H 15 V 21.9 H 14 V 29.56 H 15 V 28.12 Z" fill="rgb(97, 101, 106)"/>
<path d="M 15.99,22.855 H 14.5 V 21.43 H 13.5 V 29.09 H 14.5 V 27.65 H 16 V 29.09 C 16,29.57 15.6,30.52 14,30.52 S 12,29.25 12,28.61 V 21.43 C 12,20.96 12.4,20 14,20 S 16,20.96 16,21.43 V 22.87 Z" fill="rgb(237, 52, 40)"/>
<path d="M 20.99,20.465 H 19.5 V 31 H 21 V 26.22 H 22 V 31 H 23.5 V 20.48 H 22 V 24.78 H 21 V 20.48 Z" fill="rgb(254, 254, 253)"/>
<path d="M 20.99,26.205 H 22 V 31 H 23.5 V 20.48 H 22 V 24.78 H 21 V 20.48 H 19.5 V 31 H 21 V 26.22 Z M 20.75,30.76 V 25.98 H 22.25 V 30.76 H 23.25 V 20.72 H 22.25 V 25.02 H 20.75 V 20.72 H 19.75 V 30.76 H 20.75 Z" fill="rgb(97, 101, 106)" fill-rule="evenodd"/>
<path d="M 20.49,19.985 H 19 V 30.52 H 20.5 V 25.74 H 21.5 V 30.52 H 23 V 20 H 21.5 V 24.3 H 20.5 V 20 Z" fill="rgb(237, 52, 40)"/>
<path d="M 28.99,30.985 H 27.5 V 20.48 H 29 L 30.25,23.35 L 31.5,20.48 H 33 V 31 H 31.5 V 24.3 L 30.25,26.7 L 29,24.3 V 31 Z" fill="rgb(254, 254, 253)"/>
<path d="M 28.99,20.465 H 27.5 V 31 H 29 V 24.3 L 30.25,26.7 L 31.5,24.3 V 31 H 33 V 20.48 H 31.5 L 30.25,23.35 L 29,20.48 Z M 31.67,20.72 L 30.25,23.97 L 28.83,20.72 H 27.75 V 30.76 H 28.75 V 24.3 L 29.22,24.2 L 30.25,26.16 L 31.28,24.2 L 31.75,24.3 V 30.76 H 32.75 V 20.72 H 31.67 Z" fill="rgb(97, 101, 106)" fill-rule="evenodd"/>
<path d="M 28.49,30.505 H 27 V 20 H 28.5 L 29.75,22.87 L 31,20 H 32.5 V 30.52 H 31 V 23.82 L 29.75,26.22 L 28.5,23.82 V 30.52 Z" fill="rgb(237, 52, 40)"/>
<path d="M 3.99,31.985 H 52 V 36 H 4 Z" fill="rgb(76, 81, 88)"/>
</svg>
