<?xml version="1.0" encoding="UTF-8"?>
<!-- generated by Finnhub -->
<svg viewBox="0 0 55.5 55.5" xmlns="http://www.w3.org/2000/svg">
<path d="M 0,0 H 55.5 V 55.5 H 0 Z" fill="rgb(239, 242, 248)"/>
<path d="M 47.99,32.985 L 50.03,22 H 52 L 49.97,33 H 48 Z M 36.53,25 L 36.28,26.36 H 36.32 C 36.86,25.46 37.56,25 38.42,25 C 38.66,25 38.86,25.02 39,25.06 L 38.64,26.88 H 38.6 C 37.07,26.68 36.14,27.44 35.81,29.15 L 35.07,33 H 33 L 34.53,25 H 36.53 Z M 29,26.7 L 29.28,25.37 H 30.38 L 30.89,23 H 33.09 L 32.56,25.37 H 34 L 33.72,26.71 H 32.28 L 31.41,30.67 C 31.29,31.22 31.5,31.5 32.04,31.5 L 32.71,31.47 L 32.4,32.96 C 32.02,32.99 31.68,33 31.38,33 C 30.48,33 29.75,32.84 29.38,32.51 C 29.12,32.27 28.99,31.93 29,31.47 C 29,31.29 29.03,31.08 29.08,30.87 L 30.08,26.71 H 29 Z M 23.53,25 L 23.3,26.44 H 23.35 C 23.95,25.59 24.72,25 25.8,25 C 27.51,25 28.21,26.57 27.92,28.08 L 26.97,33 H 24.9 L 25.82,28.32 C 26.02,27.3 25.64,26.73 24.75,26.73 C 23.66,26.73 23.05,27.81 22.88,28.75 L 22.06,33 H 20 L 21.52,25 H 23.53 Z M 13,35 L 13.3,33.44 H 13.94 C 14.82,33.44 15.25,32.98 15.25,32.04 C 15.25,31.71 15.17,31.14 15,30.36 L 13.91,25 H 15.98 L 16.49,28.42 L 16.71,30.12 H 16.74 C 16.99,29.46 17.22,28.89 17.44,28.42 L 19,25 H 21 L 17.1,32.9 A 4.4,4.4 0 0,1 15.9,34.53 C 15.5,34.84 14.94,35 14.24,35 H 13 Z M 8.34,33 C 6.14,33 3.88,32.01 4.01,29.5 H 6.09 C 5.99,30.88 7.23,31.28 8.4,31.28 C 9.27,31.28 10.45,30.97 10.45,29.91 C 10.45,28.84 8.91,28.47 8.13,28.19 C 6.68,27.68 5,26.97 5,25.21 C 5,23.03 7.04,22 9.02,22 C 11.07,22 13.1,22.98 13,25.3 H 10.95 C 10.99,24.14 9.95,23.69 8.95,23.69 C 8.15,23.69 7.02,23.99 7,24.93 C 6.97,25.92 8.62,26.19 9.32,26.43 C 10.86,26.95 12.58,27.77 12.58,29.63 C 12.58,31.98 10.44,33 8.34,33 Z" fill="rgb(87, 88, 89)"/>
<path d="M 46.38,31.375 C 48.29,29.49 48.55,26.65 46.95,25.05 C 45.35,23.45 42.51,23.7 40.61,25.61 C 38.71,27.51 38.45,30.35 40.05,31.95 C 41.65,33.55 44.49,33.3 46.39,31.39 Z M 45.11,30.11 C 46.16,29.05 46.31,27.47 45.41,26.58 C 44.53,25.7 42.95,25.84 41.89,26.89 C 40.84,27.95 40.69,29.53 41.59,30.42 C 42.47,31.3 44.05,31.16 45.11,30.11 Z" fill="url(#c)" fill-rule="evenodd"/>
<path d="M 43.81,25.985 C 43.16,26.03 42.45,26.34 41.89,26.9 A 2.87,2.87 0 0,0 41.02,29.24 L 39.13,30.34 A 5.03,5.03 0 0,1 40.61,25.61 A 5.22,5.22 0 0,1 44.59,24.01 L 43.82,26.01 Z" fill="url(#b)"/>
<path d="M 43.54,26.015 C 44.25,25.93 44.93,26.1 45.42,26.58 C 46.13,27.3 46.18,28.46 45.62,29.44 L 47.2,30.37 C 48.33,28.57 48.28,26.38 46.95,25.05 A 3.8,3.8 0 0,0 43.79,24.03 L 43.55,26.03 Z" fill="url(#a)"/>
<defs>
<linearGradient id="c" x1="39" x2="45.1" y1="31.76" y2="28.86" gradientUnits="userSpaceOnUse">
<stop stop-color="rgb(234, 244, 250)" offset="0"/>
<stop stop-color="rgb(59, 159, 223)" offset=".46"/>
<stop stop-color="rgb(1, 39, 69)" offset="1"/>
</linearGradient>
<linearGradient id="b" x1="44.01" x2="39.45" y1="24" y2="29.91" gradientUnits="userSpaceOnUse">
<stop stop-color="rgb(234, 244, 250)" offset="0"/>
<stop stop-color="rgb(59, 159, 223)" offset=".46"/>
<stop stop-color="rgb(1, 39, 69)" offset="1"/>
</linearGradient>
<linearGradient id="a" x1="43.51" x2="45.87" y1="25.08" y2="30.44" gradientUnits="userSpaceOnUse">
<stop stop-color="rgb(1, 39, 69)" offset="0"/>
<stop stop-color="rgb(59, 159, 223)" offset=".55"/>
<stop stop-color="rgb(234, 244, 250)" offset="1"/>
</linearGradient>
</defs>
</svg>
