<?xml version="1.0" encoding="UTF-8"?>
<!-- generated by Finnhub -->
<svg viewBox="0 0 55.5 55.5" xmlns="http://www.w3.org/2000/svg">
<path d="M 0,0 H 55.5 V 55.5 H 0 Z" fill="rgb(239, 242, 248)"/>
<path d="M 15.44,21.575 A 0.77,0.77 0 0,1 14.89,21.36 A 0.77,0.77 0 0,1 14.66,20.79 C 14.66,20.57 14.73,20.39 14.89,20.23 A 0.77,0.77 0 0,1 15.45,20 C 15.67,20 15.85,20.08 15.99,20.23 C 16.14,20.38 16.22,20.57 16.22,20.79 C 16.22,21.02 16.14,21.2 15.99,21.36 A 0.71,0.71 0 0,1 15.45,21.59 Z M 16,23 V 30 H 14.97 L 15,23 H 16 Z M 24,25.7 C 24,25.95 23.99,26.2 23.96,26.48 H 18.22 C 18.29,27.8 19.16,29 20.55,29 C 21.49,29 22.28,28.39 22.57,27.48 H 23.86 A 3.32,3.32 0 0,1 20.56,30 C 18.31,30 17,28.08 17,25.99 C 17,23.87 18.3,22 20.55,22 C 22.63,22 24,23.7 24,25.7 Z M 22.77,25.43 C 22.77,24.13 21.89,23 20.55,23 C 19.22,23 18.34,24.18 18.23,25.43 H 22.77 Z M 28.8,22 C 30.78,22 32,23.45 32,25.37 V 30 H 31 V 25.56 C 31,24 29.92,23 28.5,23 C 27.02,23 26,24.27 26,25.66 V 30 H 25 V 22 H 26 V 23.26 C 26.54,22.41 27.82,22 28.8,22 Z M 36.8,22 C 38.78,22 40,23.45 40,25.37 V 30 H 39 V 25.56 C 39,24 37.92,23 36.5,23 C 35.02,23 34,24.27 34,25.66 V 30 H 33 V 22 H 34 V 23.26 C 34.54,22.41 35.82,22 36.8,22 Z M 46,28.46 C 45.55,29.41 44.35,30 43.31,30 A 2.26,2.26 0 0,1 41,27.7 C 41,26.14 42.25,25 43.72,25 H 46 C 45.97,23.94 45.2,23 44,23 C 42.99,23 42.45,23.87 42.3,24.82 H 41.18 C 41.37,23.22 42.48,22 44.14,22 C 46,22 47,23.35 47,25.06 V 30 H 46 V 28.46 Z M 43.5,29 C 44.91,29 46,27.32 46,26 H 43.72 C 42.68,26 42,26.91 42,27.7 C 42,28.5 42.74,29 43.5,29 Z" fill="rgb(26, 63, 89)"/>
<path d="M 10.120000000000001,31.985 C 10.99,32 12.63,32.33 13.33,32.5 H 22.93 C 25.6,32.5 25.07,32.5 26.67,33 S 34.67,33 36.8,33 H 48 C 45.87,34.2 40,34.17 37.33,34 L 43.2,34.5 L 37.33,35 L 38.93,35.5 H 28.8 C 27.73,35.5 25.07,36 24,35.5 C 22.93,35 20.27,36 18.67,36 S 16,35.5 14.4,35.5 C 12.8,35.5 12.27,35.5 11.2,35 C 10.13,34.5 9.6,35 9.6,34.5 S 8.53,34 9.07,33.5 C 9.6,33 8,33 8,32.5 S 8.53,33 9.07,32.5 C 9.6,32 9.07,32 10.13,32 Z" fill="url(#a)"/>
<path d="M 10.99,29.985 C 9.53,30 8.1,29.13 8,27.5 H 9 C 9.09,28.42 10.17,29 11,29 C 11.7,29 13,28.6 13,27.77 C 13,26.89 11.65,26.67 11,26.5 C 9.74,26.17 8.16,25.72 8.16,24.16 C 8.16,22.7 9.73,22 11,22 C 12.5,22 13.92,22.9 14,24.5 H 13 C 12.94,23.6 11.83,23 11,23 C 10.34,23 9.16,23.22 9.16,24.16 S 10.8,25.31 11.5,25.5 C 12.7,25.82 13.97,26.3 14,27.77 C 14,29.27 12.33,30 11,30 Z" fill="rgb(26, 63, 89)"/>
<defs>
<linearGradient id="a" x1="10.13" x2="44.27" y1="33" y2="33.57" gradientUnits="userSpaceOnUse">
<stop stop-color="rgb(20, 60, 84)" offset="0"/>
<stop stop-color="rgb(81, 112, 132)" offset=".56"/>
<stop stop-color="rgb(88, 113, 132)" offset="1"/>
</linearGradient>
</defs>
</svg>
