<!-- by Finnhub --><svg xmlns="http://www.w3.org/2000/svg" width="56" height="56" viewBox="0 0 56 56"><path fill="#F0F3FA" d="M0 0h56v56H0z"/><path d="M39.64 27.93v-.4c0-6.43-4.99-11.63-11.15-11.63-5.73 0-10.45 4.5-11.08 10.3 1.13-.34 3-.76 4.77-.74 2.23.02 5.05.84 7.04 1.42a75.92 75.92 0 0 0 1.32.37c1.8.5 4.62 1.27 9.1.68z" fill="#F29015"/><path d="M38.57 28.07l.02-.64c0-5.5-4.3-9.95-9.6-9.95a9.7 9.7 0 0 0-9.46 8.2c.82-.13 1.77-.22 2.76-.2 2.23.02 5.33.91 7.42 1.51l1.17.34h.04c1.57.43 4 1.1 7.65.74z" fill="url(#akjaorkwz)"/><path d="M36.72 28.18A7.78 7.78 0 0 0 29 19.7a7.76 7.76 0 0 0-7.48 5.8l.7-.01c2.24.02 5.12.86 7.2 1.46l1.39.39c1.3.34 3.21.8 5.9.83z" fill="url(#bkjaorkwz)"/><path d="M10 26.89c.68-.57 2.46-1.15 4.14 1.13l2.25-.12a12.18 12.18 0 1 1 24.3-.16c3.32-.45 4.65-2.5 4.9-3.55-1.95 1.81-3.85.27-4.56-.73 2.63-.86 3.02-3.58 2.9-4.83-1.1 2.68-3.61 1.98-4.72 1.3 1.95-1.12 1.81-3.57 1.5-4.66-.57 2.16-3 2.04-4.13 1.72 1.4-1.54.7-3.96.18-4.98-.04 2.37-2.28 3-3.4 3a5.27 5.27 0 0 0-1.46-4.8c.61 2.2-1.4 3.56-2.48 3.97.3-2.18-1.34-3.7-2.2-4.18.94 1.42-.5 3.37-1.34 4.18a4.73 4.73 0 0 0-4.04-3.25c1.95 1.4.93 3.62.18 4.56-.58-1.82-3.27-2.09-4.54-1.99 2.1.5 1.76 3.12 1.33 4.36-1.35-1.56-3.86-1.2-4.95-.84 2.36-.06 2.6 2.74 2.43 4.14-1.8-1.32-4.18-.25-5.15.46 2.52-.58 3.54 1.82 3.74 3.1-2.19-.57-4.17 1.21-4.88 2.17z" fill="url(#ckjaorkwz)"/><path d="M33.06 18.6c-2.16-1.29-5.01-1.28-6.16-1.1 1.18.36 3.9 1.27 5.28 1.9 1.39.65 3.65 2.35 4.61 3.12a10 10 0 0 0-3.73-3.91z" fill="url(#dkjaorkwz)"/><path d="M18.7 29.76l1.22 5.4v.01c-.02.4-.03.76-.5.91-.43.15-1.2.54-1.54.72 1.52-.47 2.19-.25 2.4 0l.97 4.32a3.05 3.05 0 0 0-1.96 2.6c-.4-.83-.9-2.97.3-4.82-1.03-.44-3.34-.67-4.35 1.94-.18-1.28-.08-4.03 1.76-4.79-.78-.78-2.79-1.77-4.62.54 0-1.05.6-3.34 2.86-4.07-.8-1.15-2.88-2.89-4.8-.72.3-.42.72-.93 1.24-1.48 1.5-.26 3.75-.62 6.43-.96.3.08.5.25.59.4zm-6.3-.15c1.3-.22 3-.47 4.94-.73v-.01h.1l.07-.01a.99.99 0 0 0 .8-.8l-.36-1.6c-1.3.28-2.52.88-3.6 1.6l.4.55c-.32.01-.93.08-1.48.25-.3.25-.6.5-.87.75zm6.1-3.26l.4 1.7c.12.23.39.48.86.53 2.43-.28 5.13-.54 7.93-.71.12-.12.16-.3.15-.45a32.09 32.09 0 0 0-8.25-1.15c-.36 0-.72.03-1.08.08zM30.8 28.3l-1.77.08a.37.37 0 0 0-.14.18l.89 5.56c.13.2.39.41.78.4l1.71-.19c2.02-.2 4.03-.38 5.87-.5.14-.06.2-.17.22-.28-.2-1.7-.42-3.38-.6-4.7a21.8 21.8 0 0 1-6.96-.55zm7.52.5c.18 1.3.4 2.95.6 4.62.08.3.2.36.27.35 1.33-.06 2.54-.1 3.56-.07-.98-.67-1.27-1.9-1.26-2.67a4.87 4.87 0 0 0 4.52-1.8c-1.6.25-3.33-.7-4-1.22-.56.22-1.9.59-3.69.79zm5.6 5.34c-1.22-.06-2.88 0-4.75.14a.28.28 0 0 0-.14.15c.2 1.71.36 3.39.42 4.64a7.6 7.6 0 0 0 2.9-.16c-2.5-.4-2.66-2.95-2.43-4.17 1.79 1.16 4.18.07 5.16-.62-.43.06-.82.07-1.16.02zm-5.04 4.8c-.07-1.16-.2-2.64-.38-4.19a.7.7 0 0 0-.51-.38 276.86 276.86 0 0 0-7.67.75.63.63 0 0 0-.3.48l1.16 7.35a6.64 6.64 0 0 0 3.16 2.1c-1.87-1.35-.78-3.8 0-4.85.6 1.82 3.33 2.35 4.62 2.38-2.45-.62-2.02-3.36-1.5-4.65.32.51.83.83 1.42 1.01zm-8.44 2.95l-1-6.28a.79.79 0 0 0-.45-.34c-2.77.33-5.38.68-7.38.97-.26.13-.64.4-.7.75.38 1.64.69 3.06.89 3.96.48-.11.95-.13 1.3-.1-1.1 2.85.32 4.45 1.16 4.89-.67-2.47 1.34-3.64 2.43-3.9A5.29 5.29 0 0 0 29.3 46c-1.1-2.53.2-3.75 1.13-4.12zM19.29 29.81l1.2 5.28c.15.28.44.57.94.58 1.92-.28 4.41-.62 7.07-.93h.02l.2-.03c.2-.07.4-.31.42-.9l-.78-4.93a1.02 1.02 0 0 0-.51-.44c-2.9.18-5.72.45-8.23.74-.14.1-.3.3-.33.63z" fill="url(#ekjaorkwz)"/><defs><linearGradient id="akjaorkwz" x1="28.99" y1="17.48" x2="28.99" y2="37.61" gradientUnits="userSpaceOnUse"><stop stop-color="#F29015"/><stop offset=".13" stop-color="#FFAE24"/></linearGradient><linearGradient id="bkjaorkwz" x1="29" y1="19.71" x2="29" y2="35.41" gradientUnits="userSpaceOnUse"><stop offset="0" stop-color="#FFAF24"/><stop offset=".24" stop-color="#F7DF23"/></linearGradient><linearGradient id="ckjaorkwz" x1="13.4" y1="25.72" x2="43.72" y2="25.72" gradientUnits="userSpaceOnUse"><stop stop-color="#D9931A"/><stop offset=".46" stop-color="#FAD350"/><stop offset="1" stop-color="#DB8333"/></linearGradient><linearGradient id="dkjaorkwz" x1="26.9" y1="17.77" x2="36.87" y2="22.54" gradientUnits="userSpaceOnUse"><stop stop-color="#FFFEC7" stop-opacity="0"/><stop offset=".52" stop-color="#FEFCC6"/><stop offset="1" stop-color="#FFFEC7" stop-opacity="0"/></linearGradient><linearGradient id="ekjaorkwz" x1="16.24" y1="31.07" x2="44.45" y2="30.39" gradientUnits="userSpaceOnUse"><stop stop-color="#2059A8"/><stop offset="1" stop-color="#1D9ED8"/></linearGradient></defs></svg>