<?xml version="1.0" encoding="UTF-8"?>
<!-- generated by Finnhub -->
<svg viewBox="0 0 55.5 55.5" xmlns="http://www.w3.org/2000/svg">
<path d="M0 0h55.5v55.5H0z" fill="url(#h)"/>
<path d="M17 23v2h-3v1h2c.8 0 1 .67 1 1v3c0 .8-.67 1-1 1h-4v-2h3v-1h-2c-.8 0-1-.67-1-1v-3c0-.8.67-1 1-1h4Z" fill="url(#g)"/>
<path d="M18.8 23.39c.4-.3.87-.39 1.2-.39h2c.73 0 1.28.32 1.61.8.3.4.39.87.39 1.2v4c0 .73-.32 1.28-.8 1.61-.4.3-.87.39-1.2.39h-2c-.73 0-1.28-.32-1.61-.8-.3-.4-.39-.87-.39-1.2v-4c0-.73.32-1.28.8-1.61ZM20 25v4h2v-4h-2Z" fill="url(#f)"/>
<path d="m27 23h-2v8h4v-2h-2v-6z" fill="url(#e)"/>
<path d="M30 31h2l.45-1.5h2.1L35 31h2l-2.5-8h-2L30 31Zm3.95-3.5L33.5 26l-.45 1.5h.9Z" fill="url(#d)" fill-rule="evenodd"/>
<path d="M38 23v8h2v-2h1l1 2h2l-1-2c.8 0 1-.67 1-1v-4c0-.8-.67-1-1-1h-5Zm2 2v2h1.5c.33 0 .5-.2.5-1s-.17-1-.5-1H40Z" fill="url(#c)" fill-rule="evenodd"/>
<path d="M46 17H10v22h36V17ZM9 16v24h38V16H9Z" fill="url(#b)" fill-rule="evenodd"/>
<path d="M12 34h32v2H12z" fill="url(#a)"/>
<defs>
<linearGradient id="h" x1="10.42" x2="68.15" y1="9.71" y2="76.02" gradientUnits="userSpaceOnUse">
<stop stop-color="rgb(25, 29, 31)" offset="0"/>
<stop stop-color="rgb(5, 5, 8)" offset="1"/>
</linearGradient>
<linearGradient id="g" x1="12.5" x2="15.5" y1="23" y2="31" gradientUnits="userSpaceOnUse">
<stop stop-color="rgb(151, 112, 46)" offset=".03"/>
<stop stop-color="rgb(163, 130, 76)" offset="1"/>
</linearGradient>
<linearGradient id="f" x1="19" x2="22" y1="23.5" y2="31" gradientUnits="userSpaceOnUse">
<stop stop-color="rgb(193, 162, 81)" offset="0"/>
<stop stop-color="rgb(217, 191, 129)" offset="1"/>
</linearGradient>
<linearGradient id="e" x1="27" x2="27" y1="23" y2="31" gradientUnits="userSpaceOnUse">
<stop stop-color="rgb(232, 224, 158)" offset="0"/>
<stop stop-color="rgb(246, 237, 169)" offset="1"/>
</linearGradient>
<linearGradient id="d" x1="32.5" x2="35" y1="24" y2="30.5" gradientUnits="userSpaceOnUse">
<stop stop-color="rgb(207, 190, 137)" offset="0"/>
<stop stop-color="rgb(212, 191, 99)" offset=".29"/>
<stop stop-color="rgb(183, 159, 110)" offset="1"/>
</linearGradient>
<linearGradient id="c" x1="38.5" x2="43.5" y1="24" y2="30.5" gradientUnits="userSpaceOnUse">
<stop stop-color="rgb(169, 143, 91)" offset="0"/>
<stop stop-color="rgb(155, 106, 49)" offset="1"/>
</linearGradient>
<linearGradient id="b" x1="9" x2="47" y1="28" y2="28" gradientUnits="userSpaceOnUse">
<stop stop-color="rgb(138, 110, 75)" offset="0"/>
<stop stop-color="rgb(242, 232, 165)" offset=".54"/>
<stop stop-color="rgb(157, 112, 56)" offset="1"/>
</linearGradient>
<linearGradient id="a" x1="12" x2="43.5" y1="35" y2="35" gradientUnits="userSpaceOnUse">
<stop stop-color="rgb(130, 101, 68)" offset="0"/>
<stop stop-color="rgb(245, 236, 168)" offset=".52"/>
<stop stop-color="rgb(129, 107, 69)" offset="1"/>
</linearGradient>
</defs>
</svg>
