<!-- by Finnhub --><svg width="56" height="56" viewBox="0 0 56 56" xmlns="http://www.w3.org/2000/svg"><path fill="#F0F3FA" d="M0 0h56v56H0z"/><path d="M21 19v-5h3.33c.38.76 1.25 2.83 1.67 5h-5Zm-9 5c.24-2.12 1.42-7.55 4.2-10H20v6h5.7c.5 1.94 1.47 6.6 1.27 10H12v-4.98h8V24h-8Zm20.05 2c-2.39 4.33-3.03 12.47-3.05 16h7V26h-3.95ZM37 42V26h3.18c.95 0 2.84.8 2.84 3.95a4.57 4.57 0 0 1-1.91 3.52c.96.33 2.89 1.75 2.89 4.76 0 3.02-1.93 3.77-2.9 3.77H37Zm6-17H29.77L27 14h16v11Zm-1-10H28.51l2.18 9H42v-9ZM25.33 42H12V31h16.12l-2.8 11Zm1.26-10H13v9h11.4l2.2-9Z" fill="#0068AC"/></svg>