<?xml version="1.0" encoding="UTF-8"?>
<!-- generated by Finnhub -->
<svg viewBox="0 0 55.5 55.5" xmlns="http://www.w3.org/2000/svg">
<path d="M 0,0 H 55.5 V 55.5 H 0 Z" fill="rgb(239, 242, 248)"/>
<path d="M 25.79,14.004999999999999 C 18.67,14.4 13,20.52 13,28 C 13,35.49 18.67,41.6 25.8,41.98 L 25.07,42 A 14.04,14.04 0 0,1 11,28 A 14.04,14.04 0 0,1 25.8,14.02 Z" fill="rgb(180, 78, 2)"/>
<circle cx="12" cy="24" r="4" fill="rgb(180, 78, 2)"/>
<circle cx="11" cy="23" r="2" fill="rgb(246, 226, 216)" fill-opacity=".4"/>
<path d="M 47.99,22.985 H 42 C 42,22.18 42.74,22 43.1,22 H 48 V 23 Z M 48,24 H 42 V 25.97 C 42,26.75 42.84,26.98 43.26,27 H 48 V 26 H 43.5 C 43,26 42.95,25.65 43,25.5 V 25 H 48 V 24 Z" fill="rgb(23, 212, 181)"/>
<path d="M 24.99,22.224999999999998 V 22.84 A 6.4,6.4 0 0,0 23.52,22.66 C 22.75,22.66 22.22,22.85 22.22,23.18 C 22.22,23.6 22.82,23.79 23.41,24.08 C 24.51,24.59 25.04,25.02 25,25.73 C 24.94,26.67 23.52,27 22.53,27 C 21.74,27 21.18,26.81 21,26.72 V 26 C 21.4,26.14 21.9,26.39 22.53,26.39 C 23.23,26.39 24,26.29 24,25.73 C 24,25.11 22.92,24.83 22.53,24.64 C 22.2,24.48 21.16,24.17 21.22,23.18 C 21.27,22.18 22.7,22 23.52,22 C 24.04,22 24.74,22.16 25,22.24 Z" fill="rgb(180, 78, 2)"/>
<path d="M 27.99,26.985 A 2,2 0 1,0 28,23 A 2,2 0 0,0 28,27 Z M 28,26.28 C 28.58,26.28 29,25.74 29,25 S 28.58,23.62 28,23.62 S 27,24.26 27,25 S 27.42,26.28 28,26.28 Z" fill="rgb(180, 78, 2)" fill-rule="evenodd"/>
<path d="M 30.99,21.985 H 32 V 27 H 31 Z M 35,23.7 C 34.3,23.7 33.64,23.87 33.5,24 L 33,23.5 C 33.5,23 34.5,23 35,23 C 36.5,23 37,23.55 37,23.87 V 27 H 36 V 24.98 C 35.61,25.38 34,25.18 34,25.88 C 34,26.39 34.35,26.49 34.6,26.49 C 34.78,26.49 35,26.43 35.07,26.39 H 35.51 C 35.43,26.59 35.11,27 34.45,27 C 33.63,27 32.95,26.5 33,25.79 C 33.05,25.08 33.97,24.93 34.83,24.73 C 35.7,24.53 36,24.2 36,24 C 36,23.8 35.87,23.7 35,23.7 Z M 39,23 H 38 V 27 H 39 V 24.62 C 39.17,24.27 39.78,23.75 40.28,23.8 C 40.68,23.84 40.93,23.95 41,24 V 23.09 C 40.94,23.04 40.78,22.99 40.33,22.99 C 39.8,22.99 39.17,23.39 39,23.56 V 23 Z" fill="rgb(180, 78, 2)"/>
</svg>
