<!-- by Finnhub --><svg width="56" height="56" viewBox="0 0 56 56" xmlns="http://www.w3.org/2000/svg"><path fill="#F0F3FA" d="M0 0h56v56H0z"/><path fill-rule="evenodd" d="M10 36V20h5.53c2.78 0 5.47 2.34 5.47 5.22V20h5.93a4.51 4.51 0 0 1 4.42 4.6v1.04a8 8 0 1 1-.34 1.9 3.87 3.87 0 0 1-3.53 2.37l4.8 6.09h-2.74L24 28.94V28h2.8c1.52 0 2.74-1.39 2.74-2.96S28.32 22 26.81 22H23v14h-2V25.39c0 2.88-2.7 5.61-5.47 5.61H12v5h-2Zm5.6-14H12v7h3.6c1.88 0 3.4-1.57 3.4-3.5S17.48 22 15.6 22ZM45 28a6 6 0 1 1-12 0 6 6 0 0 1 12 0Z" fill="#1A9AE9"/><path fill-rule="evenodd" d="M39 30.56a2.56 2.56 0 1 0 0-5.12 2.56 2.56 0 0 0 0 5.12Zm0 .44a3 3 0 1 0 0-6 3 3 0 0 0 0 6Z" fill="#1A9AE9"/><path d="M10 30.4V36h2v-4.3c-.9-.46-1.56-.92-2-1.3Zm35.15-7.51c-.32.6-.7 1.2-1.15 1.8a6 6 0 0 1-9.48 7.3c-.63.29-1.28.54-1.94.78a7.99 7.99 0 1 0 12.57-9.88ZM30.28 33.46c-.77.2-1.56.36-2.36.48L29.54 36h2.74l-2-2.54ZM23 34.2c-.7-.03-1.36-.07-2-.13V36h2v-1.81Z" fill="#44B1F2"/><path d="M10 31.85V36h2v-2.85c-.9-.46-1.56-.91-2-1.3Zm35.58-8.4c-.29.67-.67 1.36-1.13 2.05a6 6 0 0 1-8.86 7.44c-.65.33-1.34.64-2.04.92a8 8 0 0 0 12.03-10.4ZM31.23 34.66c-.75.22-1.52.4-2.3.56l.61.78h2.74l-1.05-1.34Zm-8.23.98c-.7-.02-1.36-.07-2-.12V36h2v-.36Z" fill="#76C1E9"/></svg>