<?xml version="1.0" encoding="UTF-8"?>
<!-- generated by Finnhub -->
<svg viewBox="0 0 55.5 55.5" xmlns="http://www.w3.org/2000/svg">
<path d="M 0,0 H 55.5 V 55.5 H 0 Z" fill="rgb(239, 242, 248)"/>
<path d="M 5.99,33.985 L 8.41,31 H 10.59 L 8.21,34 H 6 Z" fill="rgb(145, 38, 141)"/>
<rect x="43" y="22" width="4" height="3" rx="1.5" fill="rgb(145, 38, 141)"/>
<path d="M 9.99,25.485 A 3.5,3.5 0 0,1 13.5,22 H 38.25 A 4.17,4.17 0 0,1 42.26,25 H 15 A 1,1 0 0,0 15,27 H 22.5 A 3.5,3.5 0 1,1 22.5,34 H 8.71 L 11.17,31 H 21 A 1,1 0 0,0 21,29 H 13.5 A 3.5,3.5 0 0,1 10,25.5 Z M 37.95,30 C 42.52,29.83 42.72,26.86 42.32,25.5 H 38.1 C 38.26,25.5 38.57,25.62 38.57,26.11 C 38.57,26.74 38.05,26.99 37.79,27 H 28.68 C 27.29,26.96 26.98,27.97 27.01,28.48 V 34 H 31.01 V 30.8 C 30.99,30.13 31.34,30 31.53,30 H 37.96 Z M 47,25.5 H 43 V 34 H 47 V 25.5 Z" fill="rgb(254, 201, 22)"/>
</svg>
