<?xml version="1.0" encoding="UTF-8"?>
<!-- generated by Finnhub -->
<svg viewBox="0 0 55.5 55.5" xmlns="http://www.w3.org/2000/svg">
<path d="M 0,0 H 55.5 V 55.5 H 0 Z" fill="rgb(239, 242, 248)"/>
<path d="M 41.99,24.445 L 34.12,24.9 L 41.68,23.14 L 42,24.46 Z" fill="rgb(38, 186, 3)"/>
<path d="M 36.940000000000005,26.945 L 30.79,26.46 L 36.65,28.16 L 36.95,26.96 Z" fill="rgb(9, 5, 194)"/>
<path d="M 24.75,22.035 L 24.24,22.62 L 25.77,24.45 L 24.76,22.05 Z" fill="rgb(245, 1, 77)"/>
<path d="M 24.09,21.705 L 22.52,19.66 L 23.05,19.13 L 24.09,21.72 Z" fill="rgb(38, 186, 3)"/>
<path d="M 25.779999999999998,22.765 L 24.45,19.6 L 25.11,19.04 L 25.79,22.78 Z" fill="rgb(249, 107, 22)"/>
<path d="M 26.819999999999997,20.785 L 26.08,21.16 L 26.64,24.01 L 26.84,20.8 Z" fill="rgb(38, 186, 3)"/>
<path d="M 26.61,16.215 L 25.89,16.61 L 26.42,20.02 L 26.62,16.23 Z" fill="rgb(249, 107, 22)"/>
<path d="M 28.63,17.724999999999998 H 27.74 L 27.36,22.34 L 28.64,17.74 Z" fill="rgb(245, 1, 77)"/>
<path d="M 31.889999999999997,14.985 H 30.94 L 29.48,19.5 L 31.9,15 Z" fill="rgb(9, 5, 194)"/>
<path d="M 29.389999999999997,20.814999999999998 L 28.53,20.6 L 27.63,23.84 L 29.41,20.84 Z" fill="rgb(249, 107, 22)"/>
<path d="M 32.89,18.365 L 32.03,17.95 L 29.06,22.76 L 32.91,18.38 Z" fill="rgb(38, 186, 3)"/>
<path d="M 31.75,22.455 L 30.98,21.72 L 28.33,24.56 L 31.76,22.46 Z" fill="rgb(9, 5, 194)"/>
<path d="M 37.940000000000005,17.405 L 37.09,16.68 L 32.42,21.22 L 37.95,17.42 Z" fill="rgb(249, 107, 22)"/>
<path d="M 35.78,21.125 L 30.23,24.28 L 36.38,22.27 L 35.78,21.14 Z M 20.9,22.8 L 20.62,23.44 L 22.62,24.03 L 20.89,22.8 Z" fill="rgb(245, 1, 77)"/>
<path d="M 23.389999999999997,24.075 L 23.14,24.73 L 25.14,25.33 L 23.41,24.09 Z" fill="rgb(249, 107, 22)"/>
<path d="M 22.66,21.705 L 22.23,22.36 L 24.61,24.09 L 22.67,21.72 Z" fill="rgb(9, 5, 194)"/>
<path d="M 21.349999999999998,28.265 L 24.02,27.46 L 21.55,29.03 L 21.36,28.28 Z" fill="rgb(245, 1, 77)"/>
<path d="M 19.99,26.685 H 22.14 L 20,27.6 V 26.7 Z" fill="rgb(9, 5, 194)"/>
<path d="M 22.889999999999997,26.355 H 25.03 L 22.89,27.26 V 26.36 Z" fill="rgb(249, 107, 22)"/>
<path d="M 21.369999999999997,25.755 H 23.83 L 21.38,24.87 V 25.77 Z" fill="rgb(38, 186, 3)"/>
<path d="M 32.79,25.755 H 28.71 L 32.81,24.56 V 25.77 Z" fill="rgb(249, 107, 22)"/>
<path d="M 47.82,30.555 L 47.78,30.8 C 47.75,30.94 47.58,31 47.46,30.93 C 47.25,30.8 46.96,30.68 46.64,30.68 C 46.04,30.68 46,31.02 46,31.34 S 46.26,31.87 46.74,32.11 C 47.66,32.5 48,33 48,33.65 C 48,34.75 47,35 46.26,35 C 45.87,35 45,34.58 45,34.3 C 45,34.09 45.07,33.9 45.1,33.82 C 45.3,33.98 45.81,34.31 46.26,34.31 C 46.81,34.31 47,34.01 47,33.65 C 47,33.27 46.99,33.05 46.35,32.73 C 45.7,32.4 45,32.13 45,31.33 C 45,30.55 45.77,30 46.64,30 C 47.24,30 47.64,30.25 47.79,30.42 C 47.83,30.46 47.84,30.52 47.83,30.57 Z M 39,34.93 V 31.14 C 39,30.74 38.44,30 37.1,30 C 35.93,30 35.24,30.54 35.24,30.73 C 35.24,30.93 35.28,31.49 35.45,31.49 C 35.63,31.49 36.36,31 37.1,31 C 37.83,31 38,31.1 38,31.37 V 32 C 36.9,32 35,32 35,33.6 C 35,34.32 35.79,35 36.6,35 C 37.18,35 37.71,34.6 38.05,34.33 C 38.15,34.59 38.5,34.93 39,34.93 Z M 38,33.7 C 37.78,33.9 37.4,34 36.76,34 C 36.43,34 36,33.92 36,33.6 C 36,33.08 36.45,33 37.43,33 H 38 V 33.7 Z M 31.15,29.1 A 0.2,0.2 0 0,0 31,29.29 V 35 H 34.8 A 0.2,0.2 0 0,0 35,34.8 V 34.2 A 0.2,0.2 0 0,0 34.8,34 H 32 V 29.13 A 0.2,0.2 0 0,0 31.75,28.93 L 31.15,29.09 Z"/>
<path d="M 40.13,28.185 A 0.2,0.2 0 0,0 40,28.39 V 35 H 41 V 34.5 C 41.31,34.81 41.7,35 42.13,35 C 43.16,35 44,33.88 44,32.5 S 43.16,30 42.13,30 C 41.7,30 41.31,30.19 41,30.5 V 28.2 A 0.2,0.2 0 0,0 40.74,28 L 40.14,28.2 Z M 41,32.5 C 41,33.33 41.45,34 42,34 S 43,33.33 43,32.5 S 42.55,31 42,31 S 41,31.67 41,32.5 Z" fill-rule="evenodd"/>
<path d="M 10.26,29.935 C 9.58,29.95 9.27,30.17 9.27,30.64 C 9.27,31.28 9.99,31.37 10.58,31.55 C 11.38,31.8 12,32.2 12,33.25 C 12,34.3 11.43,35 9.9,35 A 3.2,3.2 0 0,1 8.55,34.75 C 8.15,34.55 8,34.29 8,33.89 C 8,33.69 8.03,33.62 8.12,33.62 C 8.17,33.62 8.25,33.65 8.36,33.7 C 8.82,33.9 9.2,34.05 9.81,34.05 C 10.36,34.05 10.71,33.94 10.71,33.32 C 10.71,32.65 10.26,32.5 9.69,32.35 C 8.87,32.13 8,31.68 8,30.69 C 8,29.5 9.01,29 10.22,29 C 10.8,29 11.29,29.11 11.59,29.36 C 11.85,29.58 11.89,29.83 11.89,30.03 C 11.89,30.25 11.84,30.33 11.62,30.24 C 11.21,30.08 10.85,29.95 10.27,29.95 Z M 15.19,35.09 C 14.69,35.09 14.52,34.94 14.26,34.69 V 36.57 C 14.26,36.93 14.21,37 13.86,37 H 13.41 C 13.06,37 13,36.93 13,36.57 V 31.44 C 13,31.14 13,31.06 13.2,31.06 C 13.63,31.06 14.08,31.2 14.19,31.49 C 14.47,31.19 14.64,31 15.19,31 C 16.35,31 17,31.84 17,33.06 C 17,34.26 16.37,35.09 15.19,35.09 Z M 14.19,33.05 C 14.19,33.59 14.27,34.08 14.92,34.08 S 15.66,33.58 15.66,33.05 C 15.66,32.51 15.56,32.01 14.92,32.01 C 14.26,32.01 14.19,32.51 14.19,33.05 Z M 18,33.76 C 18,32.96 18.5,32.6 19.77,32.6 C 20.17,32.6 20.47,32.65 20.8,32.67 V 32.57 C 20.8,31.99 20.21,31.92 19.77,31.92 C 19.39,31.92 19.12,31.94 18.73,32.01 C 18.38,32.08 18.34,32.04 18.34,31.85 C 18.34,31.39 18.54,31.21 18.86,31.12 C 19.16,31.03 19.59,31 20,31 C 20.59,31 22,31.12 22,32.4 V 34.61 C 22,34.9 22,34.98 21.77,34.98 C 21.31,34.98 21.03,34.87 20.89,34.6 C 20.65,34.8 20.27,35 19.55,35 C 18.5,35 18,34.55 18,33.76 Z M 19.9,34.14 C 20.31,34.14 20.57,34.05 20.8,33.89 V 33.48 A 4.4,4.4 0 0,0 20.06,33.43 C 19.49,33.43 19.19,33.48 19.19,33.76 C 19.19,34.02 19.43,34.14 19.91,34.14 Z M 25.27,31.94 C 24.52,31.94 24.2,32.41 24.19,33.23 V 34.27 C 24.19,34.71 23.46,34.92 23.46,34.92 S 23,35.27 23,34.51 V 31.48 C 23,31.2 23,31.11 23.23,31.11 C 23.77,31.11 24.05,31.27 24.14,31.62 C 24.38,31.16 24.77,31 25.22,31 C 25.82,31 26,31.28 26,31.77 C 26,31.97 25.97,32.01 25.75,31.99 C 25.5,31.96 25.4,31.94 25.27,31.94 Z M 28,27.07 V 32.12 L 28.74,30.98 C 29.06,30.48 29.1,30.42 29.44,30.42 H 29.74 C 30.01,30.42 30.07,30.64 29.92,30.87 L 28.8,32.42 L 29.92,34.55 C 29.97,34.65 30,34.75 30,34.82 C 30,34.92 29.94,35 29.78,35 H 29.45 C 29.18,35 29.07,34.97 28.91,34.62 L 28,32.67 V 34.03 C 28,34.53 27.59,35 27.24,35 C 27,35 27,34.92 27,34.49 V 27.59 C 27.09,27.16 27.87,26.85 28,27.07 Z"/>
</svg>
