<?xml version="1.0" encoding="UTF-8"?>
<!-- generated by Finnhub -->
<svg viewBox="0 0 55.5 55.5" xmlns="http://www.w3.org/2000/svg">
<path d="M 0,0 H 55.5 V 55.5 H 0 Z" fill="rgb(31, 153, 139)"/>
<path d="M 7.803,24.985 C 9.005,25.018 9.764,25.739 9.995,26.097 L 9.202,26.692 C 8.772,26.228 8.366,26.077 7.812,26 C 7.259,25.923 6.426,26.217 6.448,26.825 C 6.467,27.311 7.011,27.588 7.237,27.665 L 9.021,28.218 C 10.161,28.638 10.421,29.334 10.421,30.131 C 10.421,30.916 9.744,32 7.813,32 C 6.25,32 5.295,30.983 5.013,30.463 L 5.893,29.954 C 6.345,30.674 7.17,31 7.813,31 S 9.361,30.928 9.398,30.131 C 9.425,29.547 8.885,29.258 8.513,29.147 L 6.909,28.638 C 6.175,28.34 5.453,27.853 5.441,26.825 C 5.431,25.797 6.322,24.978 7.813,25 Z" fill="rgb(254, 254, 253)"/>
<circle cx="14.5" cy="28.5" r="3.5" fill="rgb(254, 254, 253)"/>
<path d="M 47.789,26.064999999999998 C 47.799,28.013 51.156,29.822 47.499,31.584 C 47.169,31.744 46.871,31.957 46.577,31.877 A 3.5,3.5 0 0,1 47.5,25.004 A 3.5,3.5 0 0,1 50.978,28.109 C 50.993,28.238 49.954,26.009 47.798,26.081 Z" fill="rgb(254, 254, 253)"/>
<path d="M 50.99,28.487 A 3.5,3.5 0 0,1 47.5,32 C 47.12,32 46.827,31.95 46.6,31.888 C 46.6,31.888 49.447,30.878 49.447,29.326 C 49.447,27.394 47.685,26.008 47.685,26.008 C 49.011,26.008 50.794,26.748 50.975,28.123 C 50.995,28.273 51,28.346 51,28.502 Z" fill="url(#a)"/>
<circle cx="14.5" cy="28.5" r="2.5" fill="rgb(31, 153, 139)"/>
<ellipse cx="47.5" cy="28.498" rx="2.5" ry="2.498" fill="rgb(31, 153, 139)"/>
<path d="M 18.99,31.985 V 25 H 20 V 26.443 C 20.432,25.171 21.247,24.974 21.715,25 C 22.09,25.02 22.576,25.234 22.772,25.337 L 22.34,26.225 C 22.004,26.027 21.56,25.993 21.38,25.998 C 20.169,26.018 20,27.443 20,28.105 V 32 H 19 Z M 23,32 V 25 H 24 V 26.443 C 24.432,25.171 25.23,24.974 25.698,25 C 26.073,25.02 26.559,25.234 26.756,25.337 L 26.324,26.225 C 25.987,26.027 25.543,25.993 25.363,25.998 C 24.152,26.018 24,27.443 24,28.105 V 32 H 23 Z M 30.003,25.004 C 32.618,25.04 33.342,27.269 33.342,29.004 H 27.345 C 27.516,30.401 28.64,30.92 30.003,31.004 C 31.093,31.071 31.938,30.477 32.225,30.151 L 32.937,30.819 C 31.906,31.832 30.551,32.029 30.003,32.002 C 26.663,32.002 26.323,29.039 26.344,28.482 C 26.366,27.924 26.664,24.959 30.003,25.004 Z" fill="rgb(254, 254, 253)"/>
<path d="M 29.958,25.989 C 28.113,25.994 27.446,27.333 27.345,28.004 H 32.345 C 32.325,27.341 31.823,26.014 29.968,26.004 Z" fill="rgb(31, 153, 139)"/>
<path d="M 33.99,24.985 V 32 H 35 V 27.92 C 35,27.182 35.859,25.941 37.319,26 C 38.487,26.047 38.973,27.127 39,27.627 V 32 H 39.999 V 27.627 C 39.999,26.502 39.28,25.047 37.501,25.001 C 36.078,24.963 35.201,25.994 35,26.513 V 25 H 34 Z M 41,25 V 22 H 42 V 25 H 43.627 V 26 H 42 V 30.066 C 42,30.706 42.332,30.99 42.715,31 C 43.021,31.008 43.335,30.802 43.453,30.674 L 43.999,31.34 C 43.621,31.856 42.934,31.995 42.638,32 C 41.22,32 41.009,30.756 41,30.066 V 26 H 39.999 V 25 H 41 Z" fill="rgb(254, 254, 253)"/>
<defs>
<linearGradient id="a" x1="49.941" x2="47.95" y1="25.973" y2="32.001" gradientUnits="userSpaceOnUse">
<stop stop-color="rgb(1, 87, 122)" offset=".383"/>
<stop stop-color="rgb(252, 253, 252)" offset=".599"/>
<stop stop-color="rgb(1, 88, 119)" offset=".84"/>
</linearGradient>
</defs>
</svg>
