<!-- by Finnhub --><svg xmlns="http://www.w3.org/2000/svg" width="56" height="56" viewBox="0 0 56 56"><path fill="#F0F3FA" d="M0 0h56v56H0z"/><path d="M30.66 13.66a2.65 2.65 0 1 1-5.31 0 2.65 2.65 0 0 1 5.3 0ZM16.3 28a2.65 2.65 0 1 1-5.3 0 2.65 2.65 0 0 1 5.3 0Zm26.04 2.65a2.65 2.65 0 1 0 0-5.3 2.65 2.65 0 0 0 0 5.3Zm-11.7 11.69a2.65 2.65 0 1 1-5.3 0 2.65 2.65 0 0 1 5.3 0ZM22 38a4 4 0 1 0 0-8 4 4 0 0 0 0 8Zm16-16a4 4 0 1 1-8 0 4 4 0 0 1 8 0Zm-4 16a4 4 0 0 0 .16-8h-.03a6.03 6.03 0 0 1-.2 0 8 8 0 0 1-5.47-2.34 8.56 8.56 0 0 1-2.46-5.7A4 4 0 1 0 22.04 26c.27 0 3.88.28 6.03 2.95A8.46 8.46 0 0 1 30 34a4 4 0 0 0 4 4Z" fill="url(#autv5zipt)"/><defs><linearGradient id="autv5zipt" x1="20.13" y1="12.53" x2="28" y2="45" gradientUnits="userSpaceOnUse"><stop stop-color="#02E8FF"/><stop offset="1" stop-color="#017EFF"/></linearGradient></defs></svg>