<?xml version="1.0" encoding="UTF-8"?>
<!-- generated by Finnhub -->
<svg viewBox="0 0 55.5 55.5" xmlns="http://www.w3.org/2000/svg">
<path d="M0 0h55.5v55.5H0z" fill="rgb(239, 242, 248)"/>
<path d="M13.16 21.43c.8.81 2.09 2.1 5.84 2.57 2.88.36 8.42-1.72 11.96-4.58a23.57 23.57 0 0 0-10.72-6.84c4.51.68 8.57 2.87 11.74 5.95 2.48-2.4 3.39-5.2.34-7.53 1.34.26 4.2 2.32 3.22 4.74a11.1 11.1 0 0 1-2.73 3.64 22.86 22.86 0 0 1 4.48 7.07 11.64 11.64 0 0 0 3.08-5.96c.63-4.28-2.16-7.94-4.03-8.7 5.6 2.3 5.88 5.64 5.63 8.7-.25 3.11-1.83 5.67-4.07 7.72.54 1.81.84 3.7.85 5.6a15.31 15.31 0 0 0 3.22-3.83c.8-1.5-.26-2.64-.8-3.17 1.29.64 2.3 2.11 1.6 3.96a13.57 13.57 0 0 1-4.5 6.01A11.76 11.76 0 0 1 28.29 45c4.2-1.5 6.6-4.2 7.8-6.78a23.11 23.11 0 0 1-8.6 2.83c-.65 0-.66-1.42 0-1.58a27.18 27.18 0 0 0 9.55-4.3c.07-.44.1-.86.1-1.24 0-1.54-.2-3.08-.6-4.59-4.91 3.7-11.87 5.38-15.37 5.38-4.47 0-6.66-1.02-7.19-1.53-.64-1.22.58-1.08 1.6-.76 2.4.76 4.8.76 5.6.76 6.68-.42 11.64-2.67 14.85-5.5a24.24 24.24 0 0 0-4.29-7.39C28.58 22.87 24.08 25 20 25c-2.15 0-6.2-.56-7-3.72l.16.15Z" fill="url(#a)"/>
<defs>
<linearGradient id="a" x1="14.61" x2="46.8" y1="28.4" y2="28.4" gradientUnits="userSpaceOnUse">
<stop stop-color="rgb(151, 145, 223)" offset="0"/>
<stop stop-color="rgb(38, 27, 191)" offset=".36"/>
<stop stop-color="rgb(104, 96, 211)" offset=".55"/>
<stop stop-color="rgb(13, 1, 182)" offset=".79"/>
<stop stop-color="rgb(151, 145, 223)" stop-opacity="0" offset="1"/>
</linearGradient>
</defs>
</svg>
