<!-- by Finnhub --><svg width="56" height="56" viewBox="0 0 56 56" xmlns="http://www.w3.org/2000/svg"><path fill="#F0F3FA" d="M0 0h56v56H0z"/><path fill-rule="evenodd" d="M8.78 23.68a.77.77 0 0 0-.38-.58c-.22-.14-.5-.2-.85-.2-.25 0-.46.03-.64.1a.93.93 0 0 0-.4.26.61.61 0 0 0-.14.4c0 .12.03.22.09.31a.8.8 0 0 0 .26.23 4.24 4.24 0 0 0 .76.26l.6.13c.25.06.49.12.71.21.23.09.44.2.62.33.18.14.32.3.43.48.1.2.16.41.16.66 0 .35-.1.65-.3.9-.19.27-.47.47-.84.61-.37.15-.81.22-1.33.22-.5 0-.95-.07-1.32-.21a1.7 1.7 0 0 1-1.2-1.6h1.15c.02.2.09.37.21.5.12.14.28.24.48.3.2.07.42.1.67.1.26 0 .48-.03.67-.1.2-.07.35-.16.46-.29a.66.66 0 0 0 .17-.43.52.52 0 0 0-.15-.38 1.1 1.1 0 0 0-.41-.25 4.3 4.3 0 0 0-.61-.18l-.74-.17a3.13 3.13 0 0 1-1.27-.56 1.23 1.23 0 0 1-.47-1.01c0-.34.1-.64.31-.9s.5-.46.86-.6c.36-.15.77-.22 1.22-.22.47 0 .87.07 1.22.22.35.14.62.34.82.6.2.24.3.53.31.86H8.78ZM10 22v1h2v5h1v-5h2v-1h-5Zm5.53 6h-1.21l2.2-6h1.4l2.2 6h-1.2l-.7-2h-2l-.7 2Zm1.71-4.77.62 1.77h-1.28l.61-1.77h.05ZM21 28h1v-2H23.39l1.12 2h1.27l-1.3-2.28a2 2 0 0 0 1.07-1.8c0-1.27-1.03-1.92-2.2-1.92H21v6Zm1-3h1.18c.64 0 1.21-.36 1.21-1.08 0-.72-.57-.92-1.22-.92H22v2Zm8.8-1c-.2-.65-.78-1-1.45-1-1.15 0-1.85.95-1.85 2 0 1.07.7 2 1.88 2 .84 0 1.43-.35 1.62-1h-1.5v-1H32v.56c0 1.5-1.2 2.44-2.63 2.44-1.73 0-2.87-1.3-2.87-3 0-1.66 1.12-3 2.84-3 1.19 0 2.4.75 2.6 2h-1.13Zm7.2-2h-1v3.77c0 .79-.75 1.23-1.5 1.23s-1.5-.44-1.5-1.23V22h-1v3.86c0 1.4 1.22 2.14 2.5 2.14s2.5-.75 2.5-2.14V22Zm1 0h1v6h-1v-6Zm2 6h2.06c1.78 0 2.94-1.24 2.94-3 0-1.75-1.13-3-2.9-3H41v6Zm2-1h-1v-4h1.03c1.25 0 1.97.8 1.97 2 0 1.21-.73 2-2 2Zm4 1h4v-1h-3v-1.5h2.7v-1H48V23h3v-1h-4v6Zm-29.3 4c-.25-.68-.9-1-1.59-1-1.18 0-2.11.87-2.11 2 0 1.15.94 2 2.14 2 .74 0 1.46-.3 1.63-1H16v-1h3v.56c0 1.6-1.41 2.44-2.87 2.44-1.77 0-3.13-1.18-3.13-3 0-1.77 1.34-3 3.1-3 1.21 0 2.61.68 2.84 2H17.7Zm2.3 4h1v-2H22.41l1.13 2h1.28l-1.31-2.28a1.99 1.99 0 0 0 1.08-1.8c0-1.28-1.05-1.92-2.23-1.92H20v6Zm1-3h1.2c.64 0 1.22-.36 1.22-1.08 0-.73-.58-.92-1.23-.92H21v2Zm10 0c0 1.74-1.26 3-3 3a2.9 2.9 0 0 1-3-3c0-1.74 1.26-3 3-3s3 1.26 3 3Zm-1 0c0-1.1-.83-2-2-2-1.18 0-2 .9-2 2s.82 2 2 2c1.18 0 2-.9 2-2Zm7-3h-1v3.77c0 .74-.65 1.23-1.5 1.23-.75 0-1.5-.44-1.5-1.23V30h-1v3.86c0 1.4 1.22 2.14 2.5 2.14s2.5-.75 2.5-2.14V30Zm1 6h1v-2h1.56c1.22 0 2.44-.65 2.44-2.01 0-1.35-1.2-1.99-2.42-1.99H38v6Zm1-3h1.4c.68 0 1.6-.25 1.6-1.01 0-.77-.93-.99-1.61-.99H39v2Z"/></svg>