<?xml version="1.0" encoding="UTF-8"?>
<!-- generated by Finnhub -->
<svg viewBox="0 0 55.5 55.5" xmlns="http://www.w3.org/2000/svg">
<path d="M0 0h55.5v55.5H0z" fill="rgb(239, 242, 248)"/>
<path d="m38.72 38 .53.2v.05l.59 2.1h-3.09L36.3 38h2.43ZM30 38h3.32l.08.7h-3.74L30 38Zm-.4 0h.15l-.16.33V38Zm-1.1 0h.87v.8l-.87 1.42V38Zm-.54 0h.32v2.58l-.57.92h-.3l.02-1.89.53-1.61Zm-.52 0h.29l-.3.89.01-.89Zm-.58 0h.36l-.03 3.5h-.77l.44-3.5Zm-.39 0h.17l-.06.46-.1-.46Zm-.95 0h.72l.27 1.07-.31 2.43h-1.36l.68-3.5Zm13.94 0v.21l1 3.79h.34c1.07 0 3.2-.8 3.2-4h-4.54Zm-5.7 4-1.37-3h1.04l.33 3Zm6.5 0h-3.18l-.28-1.42h3.1l.35 1.42Zm-6.75 0H31v-.24l1.22-2.65 1.3 2.89Zm-9.18 0 .17-.5h.11l.69-3.5H12c.18 1.33 1.28 4 4.27 4h8.06Zm7.72-3-1.17 2.5h-1.29V39h2.46Zm-2.68.22v2.28h-1.4l1.4-2.28Z" fill="rgb(48, 50, 48)"/>
<path d="M36.5 31h-.44v2h-1.15l.13.67h2.12l1.65 1.2.32 3.13h.12v-3.08l-2.18-1.77L36.5 31Zm-9.74 7h-.78l-.04-.16.5-2.6h.02l.3 2.76Zm.48 0h-.12l.13-1.02-.01 1.02Zm1.15 0h-.93l.02-2.78 1.85-.04-.94 2.82Zm.98 0h-.75l.75-2.26V38Zm1.32 0h-1.1v-2.83l2.45-.05L30.7 38Zm2.41 0h-2.16l1.3-2.78.67.98.2 1.8Zm3.17 0h-.38l-.02-.13.48-.73-.08.86Zm1.44 0h-.88l.88-2.54V38Zm-12.02 0H12v-7h15.05l-1.36 7Zm2-7h-.41l-.79 4 2.88-.06V33H27.3l.4-2Zm11.77 7v-3.2l-2.2-1.8-.53-2H44v7h-4.54Zm-9.87-7h1.9l.96 1.05.3 2.81-3.16.08V31Zm-.42 0h.2v1.3l-.2-1.3Zm6.64 6.56.58-.9.15-1.65-1.23.03.5 2.52Zm.8-3.3-.04.51-1.3.03-.2-.95 1.54.42Zm-3.76 1.46-.06-.62h-.35l.41.62Zm-6.17-.48.26 2.39.31-2.4-.57.01Z" fill="rgb(91, 76, 68)"/>
<path d="m32.17 29.5-.31-2.86h-1.28V28h-.99v1.5h2.58Zm1.61-2.16-.13-.7h.28l.75-1.23-.9 1.93Zm.03-.94.86-1.4h-1.35l.28 1.4h.21ZM35 28.9V25.3L36.5 31h-.44v-1.5L35 28.9ZM31.5 31l-.92-1h-.99v1h1.9Zm-2.13 0v-2.7l-.43 1.2.23 1.5h.2Zm-1.68 0 1.2-6h-.44l-1.17 6h.4Zm-.64 0 1.17-6H28v-2H12v8h15.05Zm9.68 0H44v-8h-8v2h-.85l1.58 6Zm-5.05-6h-1.9l.86 1.4h1.2l-.16-1.4Z" fill="url(#b)"/>
<path d="M36 23h8v-5.63c0-1.12-.64-3.37-3.2-3.37H33v5h1v1h-1v3h3Zm-8 0h2v-3h-1v-1h1.03l.55-5H15.2c-1.07 0-3.2.68-3.2 3.38V23h16Zm3 0h1v-3h-1v3Z" fill="url(#a)"/>
<defs>
<linearGradient id="b" x1="28" x2="28" y1="23" y2="31" gradientUnits="userSpaceOnUse">
<stop stop-color="rgb(115, 102, 92)" offset="0"/>
<stop stop-color="rgb(97, 96, 93)" offset="1"/>
</linearGradient>
<linearGradient id="a" x1="28.53" x2="25.02" y1="14" y2="22.88" gradientUnits="userSpaceOnUse">
<stop stop-color="rgb(185, 169, 143)" offset="0"/>
<stop stop-color="rgb(161, 141, 129)" offset="1"/>
</linearGradient>
</defs>
</svg>
