<?xml version="1.0" encoding="UTF-8"?>
<!-- generated by Finnhub -->
<svg viewBox="0 0 55.5 55.5" xmlns="http://www.w3.org/2000/svg">
<path d="M 0,0 H 55.5 V 55.5 H 0 Z" fill="rgb(239, 242, 248)"/>
<path d="M 49.99,27.695 C 50,25.97 49.06,23.8 47,23.8 C 44.83,23.8 44,26.42 44,28.15 C 44,29.93 44.74,32.17 46.9,32.17 C 49.15,32.17 50,29.56 50,27.71 Z M 42,28.02 C 42,25.18 44.2,23 47.03,23 C 50,23 52,25.06 52,28 C 52,30.82 49.79,33 47,33 C 43.98,33 42,31.06 42,28.02 Z M 41.92,31.23 A 6.73,6.73 0 0,0 41.62,32.43 C 40.91,32.81 40,33 38.92,33 C 36.17,33 34,31.19 34,28.36 C 34,25.16 36.08,23 39.28,23 C 40.18,23 41.23,23.21 42,23.69 A 5.08,5.08 0 0,0 41.7,25.12 H 41.5 A 3.25,3.25 0 0,0 40.47,24.16 C 40.11,23.96 39.7,23.87 39.22,23.87 C 37.02,23.87 36,26.34 36,28.15 C 36,30.07 37.15,32.17 39.34,32.17 A 3.37,3.37 0 0,0 41.74,31.12 L 41.92,31.23 Z M 29.01,25.79 L 28.32,27.51 C 28.11,28.07 27.9,28.41 27.69,29 H 30.27 C 30.07,28.41 29.85,28.07 29.65,27.5 A 52.7,52.7 0 0,0 29.01,25.79 Z M 34,33 H 31.56 L 31.1,31.55 C 30.94,31.06 30.69,30.49 30.51,30 H 27.32 C 27.14,30.5 26.96,31.06 26.8,31.55 C 26.64,32.05 26.5,32.53 26.37,33 H 25 A 54.77,54.77 0 0,0 26.07,30.46 A 469.73,469.73 0 0,0 29.01,23 H 30.08 L 31.04,25.63 A 285.18,285.18 0 0,0 33.1,30.95 C 33.43,31.75 33.73,32.45 34,33 Z M 23.06,30.3 A 98.86,98.86 0 0,0 25.75,23 H 27 A 1311.93,1311.93 0 0,0 25.1,27.63 A 149.77,149.77 0 0,0 23.1,33 H 21.85 A 165.03,165.03 0 0,0 20.67,29.83 C 20.45,29.21 20.2,28.57 19.95,27.92 L 19.21,26.04 A 204.44,204.44 0 0,0 18,23 H 20.53 A 57.49,57.49 0 0,0 21.71,26.57 A 236.29,236.29 0 0,0 23.06,30.31 Z M 8.89,25.08 C 8.59,24.28 8.02,23.87 7.19,23.87 C 6.75,23.87 6.39,24 6.13,24.25 C 5.85,24.5 5.72,24.8 5.72,25.13 C 5.72,25.48 5.82,25.76 6.02,25.99 C 6.24,26.2 6.52,26.39 6.83,26.58 C 7.15,26.75 7.49,26.93 7.86,27.1 C 8.23,27.25 8.56,27.46 8.89,27.7 C 9.21,27.93 9.47,28.22 9.68,28.57 A 3.08,3.08 0 0,1 9.74,31.17 C 9.55,31.55 9.3,31.87 8.97,32.16 A 3.6,3.6 0 0,1 7.79,32.79 A 5.1,5.1 0 0,1 6.27,33 C 5.77,33 5.31,32.94 4.9,32.83 C 4.5,32.73 4.2,32.6 4,32.43 C 4.1,32.11 4.17,31.81 4.24,31.54 C 4.31,31.27 4.36,30.98 4.41,30.66 H 4.68 C 4.71,30.86 4.78,31.06 4.88,31.25 A 1.91,1.91 0 0,0 5.86,32.06 C 6.08,32.14 6.34,32.17 6.62,32.17 C 7.18,32.17 7.6,32.03 7.86,31.75 C 8.13,31.47 8.26,31.13 8.26,30.75 C 8.26,30.39 8.16,30.1 7.96,29.87 C 7.76,29.65 7.49,29.45 7.18,29.28 C 6.88,29.11 6.54,28.94 6.17,28.78 C 5.8,28.61 5.47,28.41 5.15,28.18 A 3.08,3.08 0 0,1 4.38,27.32 C 4.18,26.97 4.07,26.53 4.07,26 C 4.07,25.52 4.15,25.09 4.32,24.71 A 2.85,2.85 0 0,1 6.02,23.2 A 4.31,4.31 0 0,1 8.56,23.19 C 8.95,23.3 9.28,23.47 9.55,23.69 A 10.3,10.3 0 0,0 9.1,25.08 H 8.89 Z M 11,23 H 13 V 33 H 11 Z M 16,23 H 14 V 33 H 20 V 32 H 16 V 23 Z" fill="rgb(172, 36, 39)"/>
</svg>
