<?xml version="1.0" encoding="UTF-8"?>
<!-- generated by Finnhub -->
<svg viewBox="0 0 55.5 55.5" xmlns="http://www.w3.org/2000/svg">
<path d="M0 0h55.5v55.5H0z" fill="rgb(239, 242, 248)"/>
<path d="M33.43 12.95a16 16 0 0 0-14 28.57c1.63-3.15 4.18-7.76 5.85-9.71-3.57.67-7.15 2.3-8.5 3.03 1.98-3.85 7.89-13.17 16.65-21.9Z" fill="url(#b)"/>
<path d="M23.22 43.27c6.2-11 13.32-17.47 16.2-19.37-4.31.54-8.75 1.96-10.44 2.6a63.87 63.87 0 0 1 8.85-11.13 16 16 0 0 1-14.6 27.9Z" fill="url(#a)"/>
<defs>
<linearGradient id="b" x1="22.72" x2="22.72" y1="12" y2="41.51" gradientUnits="userSpaceOnUse">
<stop stop-color="rgb(252, 183, 17)" offset="0"/>
<stop stop-color="rgb(199, 83, 23)" offset=".82"/>
</linearGradient>
<linearGradient id="a" x1="33.61" x2="33.61" y1="15.37" y2="44" gradientUnits="userSpaceOnUse">
<stop stop-color="rgb(157, 158, 161)" offset="0"/>
<stop stop-color="rgb(57, 57, 58)" offset=".84"/>
</linearGradient>
</defs>
</svg>
