<!-- by Finnhub --><svg width="56" height="56" viewBox="0 0 56 56" xmlns="http://www.w3.org/2000/svg"><path fill="#F0F3FA" d="M0 0h56v56H0z"/><path fill-rule="evenodd" d="M28 46a18 18 0 1 0 0-36 18 18 0 0 0 0 36Zm0-2a16 16 0 1 0 0-32 16 16 0 0 0 0 32Z" fill="url(#aluylr2mt)"/><path d="M43 28a15 15 0 0 1-19.78 14.22l1.48-3.5c2.81.69 4.85 0 5.51-.84 2.54-3.24-.77-5.56-1.9-6.36l-.1-.06-.5-.34c-1.01-.67-2.5-1.65-5.25-4.75-3.24-3.65-1.07-8.77.54-10.73a13.2 13.2 0 0 0-6.36 13.15c.49 4.51 4.44 7.94 6.36 9.09l-1.58 3.6a15 15 0 0 1 11.17-27.76l-1.55 3.64c-2.8-.68-4.85 0-5.5.85-2.54 3.24.77 5.57 1.9 6.36l.1.06.5.34c1 .67 2.5 1.65 5.25 4.75 3.24 3.65 1.07 8.77-.55 10.73A13.2 13.2 0 0 0 39.1 27.3c-.48-4.5-4.44-7.94-6.36-9.09l1.67-3.78A15 15 0 0 1 43 28Z" fill="#193550"/><path d="M19.43 32.87c-3-5.1-1.25-9.98 0-11.8 0 6.95 6.89 10.76 8.56 11.8 1.67 1.04 2.4 2.5 1.4 3.81-.98 1.3-6.38 2.25-9.96-3.81Z" fill="url(#bluylr2mt)"/><path d="M36.31 23.22c3 5.1 1.26 9.98 0 11.8 0-6.95-6.88-10.76-8.55-11.8-1.67-1.04-2.4-2.5-1.41-3.8.99-1.31 6.39-2.26 9.96 3.8Z" fill="url(#cluylr2mt)"/><defs><linearGradient id="aluylr2mt" x1="41.35" y1="15.82" x2="14.86" y2="41.11" gradientUnits="userSpaceOnUse"><stop stop-color="#FAF6B1"/><stop offset="1" stop-color="#B18026"/></linearGradient><linearGradient id="bluylr2mt" x1="18.65" y1="26.95" x2="28.32" y2="35.85" gradientUnits="userSpaceOnUse"><stop stop-color="#BA8D35"/><stop offset="1" stop-color="#C29840"/></linearGradient><linearGradient id="cluylr2mt" x1="27.77" y1="25.74" x2="36.45" y2="24.2" gradientUnits="userSpaceOnUse"><stop stop-color="#D2B061"/><stop offset="1" stop-color="#E1C77D"/></linearGradient></defs></svg>