<?xml version="1.0" encoding="UTF-8"?>
<!-- generated by Finnhub -->
<svg viewBox="0 0 55.5 55.5" xmlns="http://www.w3.org/2000/svg">
<path d="M 0,0 H 55.5 V 55.5 H 0 Z" fill="rgb(239, 242, 248)"/>
<path d="M 40.89,36.825 C 43.06,35.22 43.87,32.24 44,30.22 V 26.55 C 43.82,23.75 42.58,18 37.44,18 H 18.65 C 13.51,18.1 12.09,23.75 12,26.55 V 30.22 C 12.18,33.12 13.87,38 18.84,38 H 37.26 C 38.67,38 39.81,37.6 40.73,36.97 L 14,32.14 V 32.04 C 14,31.94 14.1,31.94 14.1,31.94 L 40.9,29 C 41,29 41,29.1 41,29.1 C 41,29.2 40.9,29.2 40.9,29.2 L 28.9,31.63 C 28.2,31.73 27.6,32.24 27.6,32.75 C 27.5,33.25 28.1,33.76 28.8,33.96 L 40.9,36.8 V 36.84 Z M 42.31,17 C 47.01,17.1 47.81,23.27 47.91,26.36 C 48,26.94 48,27.52 48,28.19 C 48,28.67 47.97,29.09 47.95,29.47 C 47.93,29.77 47.91,30.06 47.91,30.32 C 47.73,33.5 46.74,39 42.22,39 H 13.78 C 9.26,39 8.28,33.5 8.09,30.32 C 8,29.74 8,29.06 8,28.19 C 8,27.83 8.03,27.46 8.05,27.13 C 8.07,26.84 8.09,26.58 8.09,26.36 C 8.18,23.36 8.99,17.1 13.59,17 H 42.32 Z M 41,36 L 32,34 H 41 V 36 Z M 40.9,20.08 L 14.1,22.86 S 14,22.86 14,22.96 V 23.06 L 26,25.64 C 27.1,25.84 27.9,26.57 27.9,27.29 C 27.9,27.91 27.3,28.32 26.6,28.63 H 26.2 L 14.1,30.79 S 14,30.79 14,30.89 C 14,30.89 14,31 14.1,31 L 40.9,28.11 S 41,28.11 41,28.01 C 41,28.01 41,27.91 40.9,27.91 L 29.1,25.44 L 28.9,25.37 H 28.89 A 4.25,4.25 0 0,1 27.7,24.92 C 27.3,24.62 27,24.2 27,23.79 C 27,23.07 27.8,22.55 28.8,22.34 L 40.9,20.08 Z" fill="rgb(1, 160, 221)"/>
</svg>
