<?xml version="1.0" encoding="UTF-8"?>
<!-- generated by Finnhub -->
<svg viewBox="0 0 55.5 55.5" xmlns="http://www.w3.org/2000/svg">
<path d="M 0,0 H 55.5 V 55.5 H 0 Z" fill="rgb(239, 242, 248)"/>
<path d="M 15.99,21.985 V 34 H 14.04 L 8,25.64 V 34 H 6 V 22 H 7.97 L 14,30.43 V 22 H 16 Z M 18,34 V 22 H 20 V 27 H 26 V 22 H 28 V 34 H 26 V 29 H 20 V 34 H 18 Z M 29.4,22 H 32 L 35.08,27.3 H 35.2 L 38.28,22 H 40.86 L 36,29.52 V 34 H 34 V 29.52 L 29.4,22 Z M 42,34 V 22 H 50 V 24 H 44 V 27 H 49 V 29 H 44 V 34 H 42 Z"/>
</svg>
