<?xml version="1.0" encoding="UTF-8"?>
<!-- generated by Finnhub -->
<svg viewBox="0 0 55.5 55.5" xmlns="http://www.w3.org/2000/svg">
<path d="M 0,0 H 55.5 V 55.5 H 0 Z" fill="rgb(239, 242, 248)"/>
<path d="M 47.28,24.455 L 47.02,22.36 A 0.15,0.15 0 0,0 46.97,22.26 L 44.37,19.94 C 44.29,19.87 44.29,19.79 44.37,19.72 L 45.53,18.59 A 0.17,0.17 0 0,0 45.58,18.49 L 45.81,17.14 C 45.84,16.95 45.86,16.95 45.87,17.14 C 45.91,17.77 45.96,18.47 45.79,19.1 A 23.03,23.03 0 0,0 45.59,20.04 C 45.59,20.07 45.6,20.09 45.62,20.12 L 47.22,22.04 C 47.26,22.1 47.28,22.16 47.28,22.22 C 47.26,22.53 47.26,22.82 47.39,23.12 C 47.55,23.47 47.79,24 48,24.54 C 48,24.56 47.98,24.58 47.96,24.59 L 47.33,24.81 A 0.1,0.1 0 0,0 47.27,24.85 L 46.93,25.39 A 0.19,0.19 0 0,1 46.84,25.46 C 46.75,25.5 46.67,25.5 46.6,25.57 C 46.5,25.67 46.37,25.87 46.27,25.97 L 44.47,25.3 A 0.27,0.27 0 0,0 44.27,25.31 L 42.75,25.99 C 42.71,26.01 42.68,26 42.65,25.97 L 42,25.18 L 42.8,25.5 H 42.92 C 43.26,25.39 43.62,25.27 43.97,25.13 A 0.77,0.77 0 0,1 44.36,25.1 L 46.34,25.37 C 46.38,25.37 46.42,25.37 46.44,25.33 L 47.25,24.56 A 0.11,0.11 0 0,0 47.29,24.46 Z"/>
<path d="M 46.690000000000005,20.955 C 46.7,21.02 46.62,21 46.6,20.97 L 46.03,20.4 A 0.08,0.08 0 0,1 46.01,20.3 L 46.54,19.48 C 46.64,19.32 46.71,19.15 46.74,18.96 C 46.77,18.64 46.86,18.32 46.92,18 L 46.99,19.05 C 47.05,19.67 46.8,20.35 46.69,20.97 Z M 11.62,20.3 C 11.5,20.6 11.68,21 11.75,21.3 C 11.8,21.48 11.88,21.65 11.99,21.81 A 6.06,6.06 0 0,0 13.12,23.11 C 13.28,23.25 13.47,23.36 13.68,23.44 C 14.12,23.61 14.55,23.81 15,24 C 14.34,23.84 13.67,23.64 13,23.4 C 12.79,23.33 12.6,23.23 12.43,23.08 C 12.03,22.75 11.79,22.41 11.49,21.98 A 3.22,3.22 0 0,1 10.99,20.25 C 11,20.18 11.03,20.12 11.08,20.08 C 11.12,20.03 11.18,20 11.25,20 C 11.49,19.99 11.73,20.04 11.95,20.14 C 12.01,20.16 12.01,20.18 11.95,20.2 L 11.71,20.24 C 11.66,20.24 11.64,20.26 11.62,20.29 Z M 14.2,20.65 C 13.78,20.45 13.38,20.25 13,20 A 35.27,35.27 0 0,0 21.75,21.86 C 25.51,22.25 29.29,22.31 33.09,22.06 C 34.9,21.93 36.68,21.72 38.41,21.43 C 40.48,21.09 42.36,20.65 44,20.03 C 42.86,20.73 41.56,21.22 40.28,21.58 C 38.65,22.03 36.96,22.37 35.21,22.58 A 54.2,54.2 0 0,1 21.66,22.56 C 19.17,22.25 16.43,21.66 14.2,20.65 Z M 46.93,24 L 45.03,23.07 C 45.01,23.07 45.01,23.07 45,23.05 V 23.03 L 45.02,23.01 L 45.05,23 L 46.95,23.02 H 46.98 L 47,23.06 V 23.98 L 46.98,23.99 A 0.05,0.05 0 0,1 46.93,23.99 Z M 15.14,27.67 A 11.5,11.5 0 0,1 11.7,31.74 A 6.37,6.37 0 0,1 8,33 C 9.2,32.7 10.3,32.17 11.26,31.41 A 13.8,13.8 0 0,0 15.41,26.09 C 15.69,25.45 15.89,24.76 16,24 C 16,25.25 15.75,26.5 15.14,27.67 Z M 16.66,32.96 L 19.94,30.07 A 0.28,0.28 0 0,1 20.12,30 H 23 C 22,30.25 21.08,30.56 20.13,30.8 A 0.54,0.54 0 0,0 19.9,30.93 L 16.89,33.76 A 0.46,0.46 0 0,1 16.66,33.88 C 14.76,34.24 12.88,34.62 11,35 C 12.67,34.46 14.38,33.85 16.12,33.28 C 16.31,33.22 16.49,33.11 16.66,32.96 Z M 32.2,30.8 L 30.36,30.44 L 30.33,30.45 A 0.06,0.06 0 0,0 30.3,30.48 L 29.34,33.61 A 0.16,0.16 0 0,0 29.36,33.74 L 30.64,35.92 C 30.07,35.17 29.48,34.44 28.94,33.72 A 0.11,0.11 0 0,1 28.91,33.62 L 29.62,30.39 C 29.63,30.34 29.62,30.32 29.57,30.31 A 80.9,80.9 0 0,1 28,30.03 C 29.71,30.03 31.37,30 32.95,30 C 32.99,30 33.03,30.01 33.06,30.04 C 35.17,31.59 37.14,33.08 39,34.45 L 33.76,31.12 A 0.75,0.75 0 0,0 33.26,31.01 A 0.1,0.1 0 0,0 33.18,31.06 L 31.8,33.6 A 0.05,0.05 0 0,0 31.8,33.65 L 33.81,37.31 C 33.83,37.35 33.86,37.37 33.9,37.38 L 35.24,37.69 C 35.27,37.69 35.29,37.71 35.31,37.73 C 35.33,37.75 35.34,37.78 35.34,37.81 L 35.57,39 C 35.41,38.68 35.21,38.36 35.05,38 A 0.1,0.1 0 0,0 34.97,37.94 L 33.49,37.74 A 0.14,0.14 0 0,1 33.39,37.66 L 31.02,33.48 A 0.1,0.1 0 0,1 31.02,33.38 L 32.24,30.88 C 32.26,30.84 32.24,30.81 32.2,30.8 Z M 10.54,36.94 L 11.84,37.35 C 11.88,37.36 11.91,37.39 11.94,37.42 L 12.4,38.25 C 12.43,38.29 12.43,38.35 12.4,38.39 L 12.16,38.83 A 0.09,0.09 0 0,1 12.07,38.88 H 11.75 C 11.66,38.88 11.65,38.85 11.71,38.78 A 0.96,0.96 0 0,0 11.88,38.58 A 0.12,0.12 0 0,0 11.88,38.45 C 11.75,38.25 11.58,37.85 11.36,37.73 L 10.04,37.07 C 10,37.05 9.99,37.02 10.01,36.98 L 11,35 L 10.5,36.88 C 10.5,36.91 10.5,36.93 10.53,36.94 Z"/>
<path d="M 42.13,36.255 V 35.05 A 0.13,0.13 0 0,0 42.1,34.95 L 37.88,30.4 A 0.1,0.1 0 0,1 37.88,30.27 L 40.7,27.1 C 40.8,26.99 40.79,26.97 40.66,27.05 L 36.03,29.91 C 35.99,29.93 35.99,29.95 36.03,29.98 L 41.72,34.97 C 41.75,35 41.77,35.04 41.76,35.08 L 41.48,36.38 A 0.17,0.17 0 0,1 41.4,36.49 L 39.69,37.55 A 0.13,0.13 0 0,1 39.59,37.57 A 67.1,67.1 0 0,1 38.34,37.24 L 38.35,37.27 A 35.7,35.7 0 0,1 39.59,37.97 H 39.67 L 41.53,36.98 C 41.88,36.78 41.97,36.52 42.13,36.28 Z"/>
</svg>
