<?xml version="1.0" encoding="UTF-8"?>
<!-- generated by Finnhub -->
<svg viewBox="0 0 55.5 55.5" xmlns="http://www.w3.org/2000/svg">
<path d="M 0,0 H 55.5 V 55.5 H 0 Z" fill="rgb(239, 242, 248)"/>
<path d="M 44.370000000000005,27.035 C 45.33,25.96 45.17,24.35 44.02,23.45 L 33.54,15.2 A 10.46,10.46 0 0,0 19.32,16.48 A 9.28,9.28 0 0,0 20.66,30 L 25,33.41 C 26.14,34.31 27.84,34.16 28.79,33.07 C 29.73,31.98 29.57,30.37 28.43,29.47 L 24.17,26.12 A 4.34,4.34 0 0,1 23.54,19.8 A 4.78,4.78 0 0,1 27.24,18.21 A 4.8,4.8 0 0,1 30.18,19.21 L 40.59,27.39 C 41.74,28.29 43.43,28.14 44.39,27.05 Z" fill="rgb(54, 73, 92)"/>
<path d="M 31.189999999999998,34.714999999999996 A 3.5,3.5 0 1,1 25.8,30.27 A 3.5,3.5 0 0,1 31.2,34.73 Z" fill="rgb(244, 132, 83)"/>
<path d="M 11.61,28.935 A 2.47,2.47 0 0,0 11.98,32.55 L 22.46,40.8 A 10.46,10.46 0 0,0 36.68,39.52 A 9.28,9.28 0 0,0 35.34,26 L 31,22.59 A 2.79,2.79 0 0,0 27.21,22.93 A 2.47,2.47 0 0,0 27.57,26.53 L 31.83,29.88 C 33.83,31.46 34.12,34.28 32.46,36.2 A 4.78,4.78 0 0,1 28.76,37.8 A 4.81,4.81 0 0,1 25.82,36.8 L 15.4,28.6 A 2.79,2.79 0 0,0 11.6,28.95 Z" fill="rgb(54, 73, 92)"/>
<path d="M 24.79,21.255 A 3.5,3.5 0 1,1 30.2,25.73 A 3.5,3.5 0 0,1 24.8,21.27 Z" fill="rgb(104, 197, 177)"/>
</svg>
