<!-- by Finnhub --><svg width="56" height="56" viewBox="0 0 56 56" xmlns="http://www.w3.org/2000/svg"><path fill="#3F5471" d="M0 0h56v56H0z"/><path d="M49.95 26.84a90.4 90.4 0 0 1-5.35 4.64c-1.58 1.18-3.07 1.61-3.32 1.26-.25-.35.52-1.96 1.15-2.89.63-.92 1.94-2.58 2.23-2.95.3-.37.84-.82.8-1.21-.05-.4-.68-.79-1.1-.77-.4.02-1.08.29-1.78.83-.71.53-1.99 1.6-3.03 2.74.25-.4 1.78-2.95 1.78-3.16 0-.2-.4-.51-.75-.44-.36.09-1.55 1.2-2.72 2.1-1.17.88-2.32 1.48-2.67 1.31 1.19-1.8.96-2.26.81-2.5-.15-.22-.53-.16-.53-.16s.13-.14.13-.23c0-.08-.06-.4-.5-.55-.44-.15-1.2.04-2.86 1.32a14.76 14.76 0 0 0-3.33 4.17c-.24.5-1.4 2.8-.42 3.38.65.4 1.4.12 2.36-.53a16.11 16.11 0 0 0 3.37-3.45c.06.1.25.23.67.3.5.07 1.96-.66 2.96-1.5-.58 1.02-1.63 2.71-1.73 2.87-.1.17-.2.44-.2.68 0 .25.74.75.93.69.2-.06.38-.2 1.16-.96.78-.77 2.25-2.32 4.04-4-2.5 3.23-2.97 5.58-1.82 6.38.98.7 2.91-.1 5-1.52 2.1-1.43 5.19-4.16 4.72-5.85Zm-16.4 1.93c-.88 1.18-1.35 1.86-2.26 2.62-.9.77-1.2.83-1.37.68-.17-.14-.05-.74.48-1.58.52-.85 2.44-3.23 4.02-4.22-.64 1.06-.93 2.05-.87 2.5ZM27.42 30.88c-.28.06-.52.43-.88.78-.36.35-.94.97-1.34.79-.4-.2-.44-1.02-.2-1.6 1.93-1.65 6.22-5.62 7.78-7.76 1.56-2.15 1.92-3.39 1.23-3.94-.7-.56-2.44.58-3.8 1.8-1.36 1.22-4.97 5.26-6.33 9.23-1.2 1.05-3.26 2.64-3.5 2.47-.26-.17.24-.97.73-1.57.48-.6 1.3-1.58 1.4-1.87.08-.3-.11-.48-.11-.48s.48-.33.4-1.1a1.34 1.34 0 0 0-1.59-1.19c-.85.12-2.04.4-4.2 2.6-2.14 2.21-2.07 4.45-1.4 4.94.68.5 1.65.29 2.91-.89-.25 1.04.48 1.43.98 1.41.5-.02 1.78-.45 3.9-2.27-.04 1.49.72 2 1.53 1.95.82-.06 1.47-.42 2.16-1.18.69-.77 1.06-1.4.95-1.7-.1-.3-.35-.48-.62-.42Zm1.84-7.1c.72-.82 3.26-3.27 3.5-3.08.26.19-1.96 2.64-2.83 3.59-.88.94-1.57 1.84-3.36 3.34a35.87 35.87 0 0 1 2.69-3.85ZM19 31.02c-.69.74-1.52 1.67-2.04 1.4-.44-.22.4-1.54 1.03-2.31a9.37 9.37 0 0 1 2.58-2.2c.7-.3.94-.2.98-.02.05.16-.08.24-.08.39 0 .14.09.24.09.24-.3.09-.6.4-.86.66-.27.27-1 1.1-1.7 1.84Z" fill="#fff"/><path d="M23.4 23.12c1.52-.3 2.64-.64 3.08-.77a.92.92 0 0 0 .69-.8c.04-.36-.1-.67-.7-.52-.58.15-1.6.41-3.15.7-1.54.29-2.9.5-3.52.58.1-.19.23-.51.29-.66.06-.14-.02-.41-.3-.5-.27-.08-.58-.05-.73.13-.14.19-.75.99-1.08 1.38-1.04.19-3.86.58-5.29.74-1.42.16-3.06.27-3.1.19-.05-.09.29-.3.64-.54l1.07-.7c.16-.1.16-.3.02-.43-.15-.13-.4-.4-.71-.38-.31.03-.63.2-1.25.58-.63.38-1.44 1.08-1.35 1.72.1.75.75 1.16 1.42 1.23.56.07 2.1-.04 3.33-.23 1.24-.19 2.82-.4 4.11-.62-.56.91-2.71 3.95-3.71 5.43-1 1.48-3.67 5.16-4.15 5.82-.49.66-.31 1.28-.05 1.45.27.16.74.1 1.21-.45a180 180 0 0 0 4.36-5.98c.84-1.22 3.3-5.03 4.34-6.55 1.04-.16 3.04-.51 4.54-.82Z" fill="#fff"/></svg>