<!-- by Finnhub --><svg xmlns="http://www.w3.org/2000/svg" width="56" height="56" viewBox="0 0 56 56"><path fill="#F0F3FA" d="M0 0h56v56H0z"/><path d="m18.65 19.26-1.15 6.27c4.03-3.09 9.85-1.15 14.47-1.15 6 .07 8.91-2.3 9.7-4.06L43 13c-3.94 6.1-12.93 3.8-18.88 3.8-4.06 0-5.27 1.58-5.47 2.46Z" fill="#E70012"/><path d="M16.1 22.88 13 43c3.09-3.62 6.35-3.18 8.3-3.18 4.49.09 16.34 2.18 17.73-4.06l1.85-10.94c-2.9 1.77-5.03 3.27-13.85 2.2-7.06-.84-10.24 1.42-10.94 2.66l1.05-6.64a.52.52 0 1 0-1.03-.16Z" fill="#019946"/></svg>