<?xml version="1.0" encoding="UTF-8"?>
<!-- generated by Finnhub -->
<svg viewBox="0 0 55.5 55.5" xmlns="http://www.w3.org/2000/svg">
<path d="M 0,0 H 55.5 V 55.5 H 0 Z" fill="rgb(239, 242, 248)"/>
<path d="M 9.99,20.985 H 5 V 24 H 10 V 36 H 14 V 24 H 19 V 21 H 10 Z" fill="rgb(34, 30, 30)"/>
<path d="M 39.99,27.985 V 24 H 46 A 2,2 0 0,1 46,28 H 40 Z M 40,31 V 36 H 36 V 21 H 47.63 C 49.49,21 51,22.5 51,24.37 V 27.63 A 3.37,3.37 0 0,1 47.63,31 H 40 Z" fill="rgb(34, 30, 30)" fill-rule="evenodd"/>
<path d="M 19.68,35.985 H 15 C 29.64,24.57 38.84,23.23 41,23 C 33.27,25.15 23.57,32.56 19.69,36 Z" fill="rgb(61, 179, 228)"/>
<path d="M 34.99,35.985 H 21 L 24.9,33.2 H 28.85 L 27.72,30.88 C 28.61,30.2 30.2,29.21 30.88,28.8 L 35,36 Z M 28.7,24.44 L 25.42,26.05 L 25.13,25.45 C 24.83,26.01 24.18,27.22 24.03,27.57 C 30.16,24.24 33.01,24.06 34,24.27 C 29.34,25.05 20.06,31.08 16,34 L 23.4,21.01 A 1.94,1.94 0 0,1 26.82,21.03 L 28.71,24.43 Z" fill="rgb(34, 30, 30)"/>
</svg>
