<?xml version="1.0" encoding="UTF-8"?>
<!-- generated by Finnhub -->
<svg viewBox="0 0 55.5 55.5" xmlns="http://www.w3.org/2000/svg">
<path d="M 0,0 H 55.5 V 55.5 H 0 Z" fill="url(#a)"/>
<path d="M 9.99,15.985 H 46 L 27.98,48 L 10,16 Z M 44.22,17 H 11.72 L 28,45.73 L 44.22,17 Z M 24.27,37.04 L 24.36,36.71 V 36.72 C 24.39,36.58 24.35,36.3 24.24,36.3 S 24.03,36.37 24,36.55 L 24.27,37.04 Z M 24.43,35.82 L 24.26,35.92 H 24.24 A 3,3 0 0,0 23.88,36.4 V 36.37 L 24.54,35.42 C 24.64,35.3 24.74,35.25 24.8,35.3 C 24.84,35.33 24.78,35.45 24.72,35.55 A 1.7,1.7 0 0,0 24.68,35.63 C 24.65,35.7 24.54,35.76 24.43,35.82 Z M 34.59,28.68 L 34.76,28.65 L 35.18,29.22 H 35.26 L 35.32,29.13 L 34.64,28.24 L 32.13,27.03 L 29.41,26.18 L 29.38,25.94 L 30.61,26.21 L 31.16,26.08 L 31.09,25.64 H 31.25 L 31.37,26.06 H 31.65 L 31.7,25.63 H 31.83 L 31.87,26.03 S 32.26,26.32 32.22,26.16 L 32.19,26.03 C 32.15,25.92 32.12,25.81 32.19,25.79 C 32.29,25.75 32.34,26.09 32.34,26.09 L 32.79,25.87 L 32.55,25.75 L 32.79,25.59 L 33.01,25.69 L 33.23,25.54 L 32.8,25.38 L 32.83,25.26 L 33.22,25.35 C 33.27,25.38 33.68,25.5 33.5,25.31 C 33.32,25.21 33.14,25.14 32.95,25.07 C 32.89,25 32.85,24.95 32.95,24.95 C 33,24.95 33.16,25.01 33.35,25.07 C 33.55,25.14 33.79,25.22 33.85,25.22 C 33.99,25.22 34.03,25.12 33.91,25.12 A 3.53,3.53 0 0,1 32.81,24.82 A 2.13,2.13 0 0,0 32.17,24.76 L 30.79,24.71 C 30.71,24.7 30.76,24.47 30.87,24.46 H 31.11 C 31.26,24.49 31.36,24.51 31.47,24.27 L 31.91,24.58 C 31.97,24.62 32.04,24.48 31.97,24.48 A 0.65,0.65 0 0,1 31.69,24.28 C 31.64,24.2 31.69,24.16 31.79,24.16 C 32.05,24.32 32.07,24.18 32.09,24.06 C 32.09,24 32.11,23.94 32.16,23.94 C 32.26,23.92 32.36,23.9 32.46,23.91 L 32.63,23.48 L 32.23,23.33 V 23.19 L 32.73,23.02 L 32.27,22.92 L 32.37,22.74 L 33.09,22.91 C 33.13,22.92 32.92,22.8 32.75,22.7 A 8.23,8.23 0 0,1 32.57,22.59 S 32.5,22.49 32.65,22.49 C 32.72,22.49 32.86,22.56 33.01,22.63 C 33.15,22.7 33.31,22.77 33.38,22.77 C 33.53,22.77 33.61,22.62 33.41,22.62 A 2.05,2.05 0 0,1 32.78,22.38 C 32.68,22.33 32.74,22.24 32.88,22.24 C 32.94,22.24 33.1,22.32 33.28,22.4 C 33.48,22.49 33.69,22.59 33.78,22.59 C 33.96,22.59 34.33,22.47 33.9,22.36 C 33.65,22.3 33.4,22.21 33.17,22.11 L 34.27,22.27 V 22.11 L 33.5,22 L 31.13,22.57 L 29.88,23.35 L 29.18,24.06 L 29.02,23.89 L 29.63,23.27 L 29.51,22.93 L 30.28,22.55 L 30.24,22.47 L 30.04,22.55 V 22.11 L 30.68,22.04 L 30.13,21.91 L 30.2,21.71 L 30.82,21.77 L 30.68,21.49 L 30.94,21.29 L 30.25,21.54 H 30.04 L 30.24,21.36 L 30.94,21.14 L 30.96,21.01 L 30.22,21.24 V 21.15 L 30.8,20.91 L 30.88,20.79 L 30.41,20.89 V 20.79 L 31.14,20.22 L 30.17,20.6 V 20.55 L 31.13,19.98 V 19.85 L 29.21,20.95 L 28.77,21.32 L 28.12,22.2 L 27.92,22.07 L 28.82,20.93 V 20.74 L 28.45,20.99 L 28.36,20.86 L 28.82,20.5 L 28.75,20.3 L 28.47,20.5 H 28.33 L 28.36,20.22 L 28.76,20.01 L 28.68,19.92 L 28.29,20.12 L 28.19,20.01 L 28.52,19.77 L 28.4,19.65 L 27.97,19.96 L 27.87,19.86 L 28.17,19.6 L 28.11,19.45 L 28.55,19.17 V 19.08 L 28.11,19.39 L 28.07,19.27 L 28.36,19.08 V 19.03 L 27.88,19.28 L 27.79,19.2 L 28.34,18.8 L 27.98,18.9 L 27.87,18.8 L 28.15,18.61 V 18.51 L 27.74,18.68 V 18.61 C 27.84,18.56 27.93,18.51 28.02,18.44 C 28.02,18.44 28.08,18.3 28.02,18.33 C 27.92,18.39 27.84,18.46 27.76,18.53 L 27.8,18.39 L 27.84,18.29 L 28.04,18.17 S 28.04,17.94 27.98,18.03 A 1,1 0 0,1 27.78,18.13 C 27.72,18.27 27.68,18.41 27.64,18.56 H 27.58 V 18.39 C 27.52,18.39 27.42,18.47 27.47,18.51 C 27.54,18.57 27.51,18.65 27.49,18.73 L 27.48,18.78 L 27.66,19 L 27.46,19.24 L 27.2,19.08 L 27.3,19.4 L 27.07,19.21 L 26.92,19.41 L 27.39,19.65 L 27.35,19.82 L 26.71,19.65 L 26.56,19.78 L 27.31,20.05 V 20.29 L 26.48,19.95 L 26.4,20.1 L 27.02,20.62 V 20.7 L 26.33,20.31 S 26.17,20.66 26.3,20.79 C 26.49,20.92 26.69,21.04 26.9,21.13 L 26.35,21.09 L 26.39,21.56 L 27.02,22.39 L 26.89,22.66 L 25.99,21.61 L 24.64,20.56 L 23.55,20.85 V 20.95 L 24.19,20.83 H 24.39 L 24.37,20.98 L 23.69,21.15 L 23.72,21.28 L 24.38,21.08 H 24.45 V 21.19 L 23.61,21.49 L 24.29,21.44 L 24.33,21.69 L 23.89,22.11 L 23.95,22.21 L 24.78,21.49 L 24.86,21.64 L 24.16,22.32 L 24.22,22.39 L 24.82,21.82 L 24.93,21.96 L 24.33,22.53 L 24.51,22.58 L 24.57,22.55 L 24.93,22.19 L 25.06,22.32 L 24.7,22.66 L 24.86,22.73 L 25.14,22.49 L 25.22,22.71 L 25.04,22.88 V 23.18 L 25.38,23.55 L 25.21,23.83 L 25.54,24.19 L 25.38,24.37 L 25.1,24.06 H 24.92 L 24.05,23.06 L 22.62,22.43 L 22.11,22.38 L 22.05,22.53 L 22.59,22.61 L 22.65,22.74 L 22.27,22.65 L 21.55,22.85 V 22.97 L 21.98,22.84 L 22.05,23.04 L 21.73,23.06 L 21.75,23.2 H 21.87 L 22.23,23.06 L 22.41,23.17 L 21.87,23.37 L 21.97,23.52 L 22.35,23.39 V 23.53 L 22.03,23.63 L 22.28,23.73 L 22.49,23.88 L 22.71,23.73 L 22.81,23.82 L 22.68,24.26 L 22.71,24.3 L 22.94,23.88 L 23.02,24 L 22.84,24.41 L 23.02,24.77 L 23.34,24.84 L 23.58,25.04 L 23.76,25.61 H 23.81 V 25.04 H 23.97 V 25.61 H 24.31 L 24.73,25.14 L 24.81,25.25 L 24.65,25.42 L 24.77,25.78 L 26.27,26.13 V 26.33 L 24.84,26.03 S 22.05,26.86 22.01,26.86 L 21.76,27.01 L 21.55,27.14 L 21.15,27.48 L 21.25,27.63 L 21.62,27.27 L 21.98,27.05 C 22.11,27 22.24,26.95 22.36,26.93 V 27 L 20.64,28.35 L 20.69,28.45 L 21.19,28.21 L 20.89,28.64 H 21.12 L 21.67,27.87 L 22.39,27.31 L 22.47,27.49 L 21.77,28 L 21.32,28.61 L 21.52,28.73 H 21.86 L 22.18,28.35 L 22.31,28.43 L 22.15,28.62 H 22.39 L 22.75,28.11 H 22.88 L 22.66,28.55 H 22.84 L 23.17,27.98 L 23.26,28.12 L 23.03,28.48 H 23.17 L 23.44,27.91 L 23.56,27.87 L 23.39,28.43 H 23.51 L 23.71,27.75 H 23.79 L 23.69,28.4 H 23.85 L 23.93,27.4 H 24.11 L 23.99,28.3 H 24.34 L 24.44,27.79 H 24.55 L 25.19,28.06 L 25.64,27.87 L 26.39,27.17 L 26.48,27.47 L 25.88,27.97 L 24.32,30.6 L 24.62,30.65 L 25.02,29.78 L 25.12,29.87 L 24.95,30.44 L 25.31,30.2 L 25.38,29.55 H 25.43 L 25.49,30.12 L 25.64,30.08 L 25.68,29.52 H 25.8 L 25.9,29.95 H 26.1 L 26.16,29.3 H 26.26 V 29.8 H 26.39 V 28.9 L 26.6,28.82 L 26.7,28.44 H 26.78 L 26.83,28.55 L 26.95,28.52 L 27,28.18 H 27.04 L 27.34,30.18 L 25.88,33.64 L 25.95,35.34 C 25.45,35.44 24.99,36.11 24.75,36.51 L 24.47,36.97 C 24.4,37.09 24.38,37.12 24.32,37.17 L 28.09,44 L 31.75,37.48 C 31.65,37.45 31.55,37.54 31.45,37.63 C 31.35,37.73 31.25,37.82 31.15,37.77 C 31.06,37.74 31.08,37.66 31.15,37.57 C 31.31,37.38 31.47,37.17 31.6,36.96 C 31.63,36.91 30.93,37.41 30.79,37.57 C 30.65,37.73 30.53,37.9 30.42,38.07 C 30.58,37.62 30.78,37.19 31.02,36.77 C 31.11,36.62 31.44,36.26 31.79,35.88 C 32.29,35.35 32.83,34.77 32.79,34.63 V 34.62 C 32.76,34.48 32.73,34.35 32.53,34.58 C 32.41,34.71 32.16,35.02 31.93,35.32 L 31.47,35.89 C 31.41,35.97 31.35,36.08 31.3,36.19 C 31.22,36.33 31.15,36.46 31.07,36.46 A 0.42,0.42 0 0,0 30.77,36.6 C 30.69,36.7 30.19,37.16 30.14,37.08 C 30.11,37.03 30.24,36.88 30.37,36.72 C 30.46,36.62 30.55,36.51 30.59,36.42 C 30.82,36.03 31.01,35.62 31.14,35.17 L 31.06,34.9 A 4.66,4.66 0 0,0 30.51,36.06 C 30.44,36.26 30.33,36.49 30.23,36.49 C 30.13,36.49 30.13,36.39 30.2,36.21 L 30.32,35.9 C 30.49,35.45 30.68,34.99 30.82,34.55 C 30.86,34.39 30.76,34.28 30.66,34.5 C 30.53,34.79 30.43,35.1 30.32,35.4 C 30.16,35.86 30,36.33 29.75,36.74 L 29.58,37.05 C 29.53,37.15 29.5,37.23 29.46,37.25 C 29.39,37.28 29.4,37.13 29.46,37.01 C 29.48,36.96 29.53,36.9 29.59,36.83 C 29.7,36.68 29.84,36.51 29.8,36.43 C 29.75,36.33 29.67,36.23 29.6,36.33 A 0.34,0.34 0 0,1 29.33,36.49 A 0.6,0.6 0 0,0 29.03,36.72 C 28.96,36.82 28.82,37.02 28.75,36.98 C 28.58,36.89 29.57,36.02 29.65,35.96 C 29.71,35.92 29.66,35.84 29.52,35.92 L 29.32,36.05 C 29.22,36.15 29.1,36.23 29.05,36.21 C 28.97,36.17 28.99,36.05 29.11,35.97 C 29.33,35.85 29.53,35.72 29.73,35.57 C 29.75,35.51 29.66,35.42 29.58,35.47 C 29.35,35.63 29.12,35.77 28.88,35.91 L 29.92,32.94 L 29.43,27.51 L 29.71,27.47 L 29.97,28.36 L 30.07,28.46 L 30.33,27.51 L 30.48,27.56 L 30.36,28.48 L 30.52,28.57 L 30.64,28 H 30.77 L 30.69,28.59 H 30.89 L 31.04,28.07 V 27.57 H 31.14 L 31.24,28.01 L 31.09,28.58 H 31.2 L 31.43,28.01 H 31.55 L 31.4,28.71 L 31.68,29.07 L 31.8,28.5 H 31.9 L 31.93,28.83 L 32.17,29.03 L 32.5,29.08 L 32.42,28.68 H 32.54 L 32.88,29.24 H 33.03 S 33.28,29.64 33.39,29.64 C 33.49,29.64 33.42,29.31 33.39,29.22 V 29.21 C 33.38,29.14 33.46,29.11 33.54,29.14 C 33.62,29.17 33.69,29.44 33.69,29.44 L 34.03,29.41 L 34.39,29.68 L 34.35,29.21 L 34.52,29.31 V 29.57 L 34.95,29.37 L 35.12,29.61 L 35.22,29.56 L 34.59,28.68 Z M 30.71,37.08 C 30.7,37.11 30.27,37.88 30.26,37.85 C 30.2,37.65 30.33,37.46 30.44,37.29 L 30.57,37.09 C 30.62,37.01 30.71,37.01 30.71,37.09 Z M 25.93,36.86 C 25.95,36.81 26.02,36.86 26.02,36.86 V 36.89 L 25.99,36.95 A 0.12,0.12 0 0,1 25.93,36.97 A 0.18,0.18 0 0,1 25.93,36.87 Z M 25.96,35.58 V 35.74 C 25.82,35.82 25.43,36.19 25.16,36.44 L 24.86,36.72 C 24.67,36.42 25.76,35.64 25.96,35.58 Z M 25.41,36.74 C 25.34,36.86 25.27,36.99 25.17,36.9 V 36.8 C 25.17,36.75 25.15,36.69 25.22,36.64 A 5,5 0 0,0 25.45,36.37 C 25.62,36.18 25.79,35.97 25.99,35.85 V 36.42 L 25.93,36.49 C 25.84,36.58 25.72,36.71 25.64,36.69 L 25.59,36.64 C 25.56,36.61 25.55,36.59 25.49,36.61 L 25.41,36.74 Z M 25.58,37.03 A 0.1,0.1 0 0,1 25.68,37.1 C 25.68,37.18 25.29,37.34 25.29,37.3 C 25.29,37.23 25.4,37.13 25.59,37.03 Z M 27.2,35.37 C 27.43,35.35 27.14,35.63 27,35.63 L 26.99,35.37 H 27.2 Z M 28.98,27.6 L 29.13,33.03 L 27.72,36.23 C 27.48,36.3 27.24,36.35 27,36.38 V 35.97 C 27.27,35.8 27.53,35.61 27.77,35.4 C 27.83,35.3 27.89,35.2 27.92,35.1 C 27.95,35.06 27.87,34.96 27.8,35.06 A 0.75,0.75 0 0,0 27.76,35.13 C 27.72,35.2 27.7,35.25 27.59,35.25 H 26.97 L 26.93,33.39 L 28.09,30.29 L 27.66,28.25 L 27.86,28.12 V 27.8 H 27.98 L 28.03,28.23 L 28.19,28.13 L 28.14,27.66 L 28.26,27.56 L 28.35,27.9 L 28.59,27.33 L 28.66,27.67 L 28.98,27.6 Z" fill="rgb(254, 254, 253)"/>
<defs>
<linearGradient id="a" x1="10.42" x2="68.15" y1="9.71" y2="76.02" gradientUnits="userSpaceOnUse">
<stop stop-color="rgb(25, 29, 31)" offset="0"/>
<stop stop-color="rgb(5, 5, 8)" offset="1"/>
</linearGradient>
</defs>
</svg>
