<?xml version="1.0" encoding="UTF-8"?>
<!-- generated by Finnhub -->
<svg viewBox="0 0 55.5 55.5" xmlns="http://www.w3.org/2000/svg">
<path d="M 0,0 H 55.5 V 55.5 H 0 Z" fill="rgb(239, 242, 248)"/>
<path d="M 4.99,25.465 H 6 V 27 H 7 V 28 H 6 V 30.5 C 6,30.83 6.16,31.1 6.5,31.1 C 6.66,31.1 6.85,31.06 7,30.99 V 31.87 C 6.8,31.97 6.5,31.98 6.3,31.98 C 5.36,31.98 5,31.4 5,30.53 V 28 H 4 V 27 H 4.5 C 4.9,27 5,26.8 5,26.49 V 25.49 Z M 11,32 V 31.4 C 10.65,31.78 10.14,32 9.63,32 C 9.19,32 8.77,31.85 8.44,31.56 A 1.3,1.3 0 0,1 8,30.6 C 8,30.21 8.11,29.89 8.36,29.62 C 8.61,29.36 8.94,29.21 9.36,29.12 L 11.03,28.82 C 11.03,28.29 10.59,27.99 10.07,27.99 C 9.59,27.99 9.13,28.2 8.86,28.59 L 8.22,27.94 A 2.48,2.48 0 0,1 9.27,27.14 A 2.17,2.17 0 0,1 10.87,27.14 A 1.66,1.66 0 0,1 11.87,28.12 C 11.94,28.35 12,28.59 12,28.82 V 32 H 11 Z M 9.8,31 C 10.18,31 10.56,30.85 10.7,30.7 C 10.92,30.46 11,30.14 11,29.7 V 29.6 L 9.54,29.84 C 9.21,29.9 9,30.12 9,30.46 C 9,30.9 9.41,31 9.8,31 Z M 38,32 V 31.4 C 37.65,31.78 37.13,32 36.62,32 C 36.18,32 35.77,31.85 35.44,31.56 A 1.3,1.3 0 0,1 35,30.61 C 35,30.22 35.1,29.9 35.36,29.63 C 35.6,29.37 35.94,29.22 36.35,29.13 L 38.03,28.83 C 38.03,28.3 37.59,28 37.07,28 C 36.59,28 36.12,28.21 35.85,28.6 L 35.22,27.95 A 2.47,2.47 0 0,1 36.27,27.15 A 2.17,2.17 0 0,1 37.87,27.15 A 1.66,1.66 0 0,1 38.87,28.13 C 38.94,28.36 39,28.6 39,28.83 V 32 H 38 Z M 36.79,31 C 37.18,31 37.56,30.85 37.7,30.7 C 37.92,30.46 38,30.14 38,29.7 V 29.6 L 36.54,29.84 C 36.2,29.9 36,30.12 36,30.46 C 36,30.9 36.41,31 36.79,31 Z M 19,29.14 C 19,28.53 18.75,28 18.06,28 C 17.28,28 17,28.7 17,29.35 V 32 H 16 V 29.14 C 16,28.53 15.75,28 15.06,28 C 14.28,28 14,28.7 14,29.35 V 32 H 13 V 27 H 14 V 27.6 C 14.33,27.24 14.73,27 15.22,27 C 15.8,27 16.35,27.3 16.64,27.8 C 17.04,27.27 17.59,27 18.25,27 C 19.31,27 20,27.71 20,29.14 V 32 H 19 V 29.14 Z M 23.62,27 C 25.1,27 26,28.31 26,29.6 C 26,30.84 24.88,32 23.62,32 C 23.02,32 22.46,31.77 22,31.4 V 32 H 21 V 25 H 22 V 27.63 A 2.36,2.36 0 0,1 23.62,27 Z M 23.5,31 C 24.33,31 25,30.36 25,29.56 C 25,28.78 24.3,28 23.5,28 C 22.67,28 22,28.76 22,29.56 S 22.7,31 23.5,31 Z M 26.43,29.5 C 26.43,29.17 26.49,28.85 26.63,28.55 C 26.77,28.25 26.94,27.98 27.17,27.75 C 27.4,27.51 27.65,27.33 27.97,27.21 C 28.25,27.06 28.59,27 28.93,27 C 29.27,27 29.58,27.06 29.9,27.2 C 30.18,27.33 30.46,27.54 30.7,27.74 C 30.92,27.98 31.09,28.25 31.23,28.54 C 31.37,28.84 31.43,29.17 31.43,29.5 C 31.43,29.83 31.37,30.15 31.23,30.45 C 31.09,30.75 30.92,31.02 30.69,31.25 C 30.46,31.49 30.21,31.67 29.89,31.79 C 29.59,31.94 29.27,32 28.93,32 A 2.54,2.54 0 0,1 26.43,29.5 Z M 30.41,29.5 C 30.41,29.3 30.38,29.08 30.29,28.87 C 30.21,28.7 30.09,28.52 29.95,28.37 A 1.41,1.41 0 0,0 29.47,28.04 A 1.22,1.22 0 0,0 28.9,27.92 C 28.7,27.92 28.5,27.95 28.33,28.04 C 28.16,28.14 27.99,28.22 27.85,28.37 A 1.56,1.56 0 0,0 27.4,29.5 A 1.53,1.53 0 0,0 28.33,30.96 C 28.5,31.05 28.7,31.08 28.9,31.08 C 29.1,31.08 29.3,31.05 29.47,30.96 C 29.64,30.86 29.81,30.78 29.95,30.63 A 1.56,1.56 0 0,0 30.41,29.5 Z M 34.57,27.98 C 34.54,27.98 34.48,27.95 34.42,27.95 C 34.37,27.95 34.31,27.92 34.25,27.92 C 33.88,27.92 33.57,28.04 33.34,28.28 C 33.11,28.52 33,28.88 33,29.35 V 32 H 32 V 27 H 33 V 27.6 C 33.11,27.48 33.25,27.39 33.4,27.3 A 1.82,1.82 0 0,1 34.45,27 H 34.71 V 28.01 C 34.65,28.01 34.62,27.98 34.57,27.98 Z M 41,27.6 C 41.12,27.48 41.28,27.39 41.42,27.3 C 41.54,27.24 41.72,27.15 41.89,27.09 C 42.06,27.03 42.26,27 42.49,27 C 42.79,27 43.05,27.06 43.31,27.15 A 1.77,1.77 0 0,1 44.36,28.25 C 44.44,28.52 44.5,28.82 44.5,29.15 V 32 H 43.48 V 29.14 C 43.48,28.79 43.37,28.49 43.14,28.25 C 42.9,28.01 42.64,27.92 42.29,27.92 C 41.92,27.92 41.59,28.04 41.36,28.28 C 41.13,28.52 41,28.88 41,29.35 V 32 H 40 V 27 H 41 V 27.6 Z" fill="rgb(1, 27, 68)"/>
<circle cx="48.5" cy="24.5" r="3.5" fill="rgb(44, 138, 233)"/>
<circle cx="48.87" cy="24.13" r="2.94" fill="rgb(115, 185, 243)"/>
<circle cx="49.22" cy="23.78" r="2.45" fill="rgb(161, 216, 249)"/>
<circle cx="49.59" cy="23.46" r="1.9" fill="rgb(209, 236, 249)"/>
<circle cx="49.65" cy="23.35" r="1.17" fill="rgb(237, 247, 249)"/>
</svg>
