<!-- by Finnhub --><svg xmlns="http://www.w3.org/2000/svg" width="56" height="56"><path fill="#287DF8" d="M0 0h56v56H0z"/><path d="M29 26a1 1 0 11-2 0 1 1 0 012 0z" fill="#FFB200"/><path d="M18.24 21.18a.92.92 0 001.27-1.27.91.91 0 10-1.27 1.27zm4.26 1.47c.35-.42.71-.65 1.28-.65 1.5 0 2.4 1.18 2.38 2.55a2.39 2.39 0 01-3.66 2.08V29H21v-7h1.5v.65zm.05 2.36c.19.4.63.68 1.08.66.6-.01 1.09-.53 1.07-1.12 0-.7-.67-1.25-1.36-1.1-.44.1-.8.46-.87.9-.04.23-.01.46.08.66zM19.5 22H18v5h1.5v-5zM8 21.33V20h5.5v1.33h-2V27H10v-5.67H8zm24.5 4.2c-.52.01-1-.42-1-1.03 0-.6.46-1.05 1-1.05.28 0 .57.07.76.28l1-1a2.5 2.5 0 100 3.54l-1-1c-.2.21-.48.26-.77.27zm12.76-2.74c.3-.5.9-.82 1.49-.78V22c1.07 0 1.75.67 1.75 1.74V27H47v-2.96c.03-.4-.33-.75-.72-.75-.4 0-.8.35-.78.75V27H44v-2.96c.02-.4-.35-.75-.75-.75-.39 0-.78.35-.75.75V27H41v-5h1.5v.79c.28-.49.77-.8 1.33-.78.58-.02 1.14.29 1.43.78zM16.48 22a1.78 1.78 0 00-1.48.8V22h-1.5v5H15v-2.07c-.03-.76.8-1.43 1.55-1.4l.25.03v-1.51l-.1-.02-.22-.03zm21.02 0a2.5 2.5 0 100 5 2.5 2.5 0 000-5zm1 2.5a1 1 0 11-2 0 1 1 0 012 0z" fill="#fff"/><path fill-rule="evenodd" d="M19 34v1h1v1.6c-.51.3-.92.4-1.5.4-1.52 0-2.5-1-2.5-2.5 0-1.49.97-2.53 2.5-2.5.7-.02 1.4.26 1.9.78l.56-.83c-.3-.3-.66-.55-1.07-.71a3.74 3.74 0 00-1.4-.24c-.47 0-.94.09-1.38.26a3.33 3.33 0 00-1.84 1.84 3.71 3.71 0 000 2.8 3.26 3.26 0 001.82 1.84c.45.17.92.26 1.4.26a4.41 4.41 0 002.48-.66l.03-.02V34h-2zm15.5-1v2.37c.02.86-.38 1.76-1.34 1.76-.92.03-1.17-.74-1.16-1.58V33h-1v2.97A1.88 1.88 0 0032.98 38c.73 0 1.1-.3 1.52-.8v.8h1v-5h-1zm-10 .01h.16v.92a1.73 1.73 0 00-.44-.07c-.78 0-1.22.54-1.22 1.3V38h-1v-5h1v.7c.39-.45.74-.71 1.33-.7l.16.01zm1.61.41a2.5 2.5 0 112.78 4.16 2.5 2.5 0 01-2.78-4.16zm2.82 2.54a1.5 1.5 0 11-2.86-.92 1.5 1.5 0 012.86.92zm12.9-1.44a2.42 2.42 0 00-2.3-1.52c-.66 0-1.27.28-1.53.61V33h-1v7h1v-2.62c.3.38.87.61 1.52.62 1 .01 1.94-.57 2.3-1.52a2.8 2.8 0 000-1.96zm-.83.98a1.5 1.5 0 11-3 0 1.5 1.5 0 013 0z" fill="#fff"/></svg>