<?xml version="1.0" encoding="UTF-8"?>
<!-- generated by Finnhub -->
<svg viewBox="0 0 55.5 55.5" xmlns="http://www.w3.org/2000/svg">
<path d="M 0,0 H 55.5 V 55.5 H 0 Z" fill="rgb(239, 242, 248)"/>
<path d="M 42.89,13.985 L 43,14.27 V 21 H 41.47 C 41.33,21 41.29,20.93 41.35,20.8 C 41.42,20.65 41.53,20.67 41.68,20.58 C 41.77,20.54 41.78,20.47 41.74,20.38 C 41.68,20.27 41.58,20.22 41.46,20.24 C 41.05,20.3 40.82,20.19 40.79,19.9 C 40.77,19.78 40.71,19.74 40.59,19.79 L 40.03,20.02 A 0.7,0.7 0 0,1 39.75,20.08 H 38.57 A 0.37,0.37 0 0,0 38.35,20.15 C 38.22,20.25 38.09,20.25 37.97,20.18 A 0.45,0.45 0 0,0 37.72,20.12 H 37.32 C 37.25,20.12 37.2,20.12 37.17,20.1 A 0.22,0.22 0 0,1 37.07,19.9 C 37.07,19.82 37.11,19.76 37.17,19.72 C 37.39,19.57 37.48,19.35 37.45,19.04 C 37.65,19.04 37.75,19.14 37.75,19.34 C 37.75,19.44 37.8,19.49 37.89,19.49 C 38.02,19.49 38.15,19.42 38.29,19.29 A 0.13,0.13 0 0,0 38.32,19.15 A 0.13,0.13 0 0,0 38.22,19.05 C 37.96,19 37.86,18.88 37.92,18.7 C 38.01,18.44 38.01,18.14 37.93,17.8 C 37.93,17.76 37.9,17.73 37.86,17.73 H 37.79 C 37.72,17.74 37.67,17.78 37.65,17.84 C 37.58,18.07 37.48,18.2 37.35,18.23 C 37.25,18.26 37.21,18.23 37.26,18.12 L 37.58,17.42 C 37.62,17.33 37.68,17.31 37.76,17.35 L 37.91,17.41 C 38.03,17.47 38.09,17.43 38.09,17.29 V 17.16 C 38.09,17.06 38.04,17.01 37.95,17 L 37.4,16.95 L 37.38,16.94 C 37.18,16.76 37.24,16.64 37.58,16.61 C 37.66,16.6 37.7,16.55 37.68,16.46 C 37.63,16.31 37.51,16.23 37.3,16.22 A 7.2,7.2 0 0,0 35.77,16.36 C 35.62,16.38 35.54,16.32 35.55,16.16 A 0.13,0.13 0 0,0 35.46,16.02 L 35.38,15.98 C 35.28,15.94 35.22,15.96 35.17,16.06 L 35.01,16.42 C 34.98,16.48 34.96,16.48 34.94,16.42 C 34.84,16 34.91,15.66 35.16,15.39 C 35.22,15.33 35.22,15.26 35.18,15.19 A 0.16,0.16 0 0,0 35.08,15.11 C 35.03,15.1 34.96,15.11 34.87,15.14 C 34.42,15.3 33.97,15.3 33.53,15.13 A 0.29,0.29 0 0,0 33.28,15.14 A 0.38,0.38 0 0,0 33.13,15.27 L 32.26,15.61 C 32.17,15.71 32.02,15.74 31.8,15.71 C 31.7,15.71 31.65,15.75 31.65,15.85 C 31.65,15.99 31.63,16.11 31.57,16.19 A 0.32,0.32 0 0,1 31.37,16.33 C 31.19,16.36 30.89,16.41 30.47,16.46 C 30.15,16.5 29.83,16.72 29.5,17.13 A 0.57,0.57 0 0,1 29.3,17.29 C 28.89,17.48 28.63,17.82 28.54,18.32 C 28.52,18.43 28.47,18.45 28.39,18.37 C 28.29,18.28 28.25,18.15 28.25,17.97 C 28.25,17.88 28.2,17.82 28.12,17.79 A 0.23,0.23 0 0,0 27.94,17.8 A 0.24,0.24 0 0,0 27.8,18 C 27.76,18.2 27.6,18.3 27.33,18.26 A 7.8,7.8 0 0,1 26.73,18.16 A 0.19,0.19 0 0,0 26.51,18.25 C 26.31,18.55 26.14,18.84 25.99,19.09 C 25.93,19.19 25.82,19.19 25.66,19.13 A 0.2,0.2 0 0,0 25.43,19.16 C 25.33,19.25 25.31,19.41 25.36,19.66 C 25.38,19.74 25.34,19.81 25.26,19.84 A 0.26,0.26 0 0,1 25.14,19.87 C 25.04,19.87 24.98,19.83 24.95,19.74 A 0.49,0.49 0 0,0 24.88,19.58 C 24.82,19.5 24.74,19.48 24.66,19.52 C 24.4,19.62 24.11,19.66 23.79,19.65 A 0.11,0.11 0 0,0 23.69,19.69 C 23.67,19.72 23.67,19.75 23.68,19.78 S 23.68,19.82 23.64,19.82 A 0.15,0.15 0 0,1 23.54,19.75 C 23.47,19.65 23.4,19.6 23.34,19.58 C 23.24,19.56 23.17,19.58 23.13,19.68 C 22.96,19.98 22.74,20.16 22.48,20.21 A 0.22,0.22 0 0,0 22.31,20.37 C 22.15,20.84 21.86,20.97 21.43,21 H 13 V 14 H 42.9 Z" fill="rgb(47, 100, 46)"/>
<path d="M 42.99,13.985 V 14.26 L 42.9,14 H 43 Z" fill="rgb(254, 254, 253)"/>
<path d="M 33.120000000000005,15.254999999999999 C 33.44,15.41 33.44,15.65 33.13,16 C 33.08,16.05 33.03,16.05 32.99,16.02 C 32.94,15.98 32.92,15.94 32.94,15.9 C 32.97,15.82 32.92,15.78 32.81,15.78 A 1.25,1.25 0 0,1 32.26,15.61 L 33.13,15.27 Z" fill="rgb(176, 194, 174)"/>
<path d="M 33.97,16.185 L 33.87,16.19 C 33.81,16.17 33.79,16.13 33.8,16.07 C 33.81,16.01 33.85,15.97 33.91,15.94 C 34.02,15.9 34.14,15.89 34.27,15.92 C 34.37,15.94 34.4,16 34.35,16.09 C 34.31,16.17 34.22,16.19 34.08,16.19 H 33.98 Z" fill="rgb(104, 147, 101)"/>
<path d="M 34.190000000000005,16.455 C 34.21,16.43 34.24,16.41 34.27,16.41 C 34.31,16.4 34.34,16.41 34.37,16.44 C 34.4,16.5 34.39,16.55 34.32,16.6 C 34.27,16.63 34.23,16.62 34.21,16.57 C 34.19,16.55 34.19,16.51 34.21,16.47 Z" fill="rgb(176, 194, 174)"/>
<path d="M 36.39,16.505 C 36.4,16.47 36.42,16.45 36.47,16.46 C 36.52,16.48 36.56,16.51 36.57,16.56 C 36.6,16.7 36.57,16.73 36.47,16.64 A 0.2,0.2 0 0,1 36.41,16.52 Z M 35.27,16.7 L 35.47,16.74 C 35.57,16.94 35.51,17 35.3,16.94 C 35.22,16.91 35.2,16.84 35.22,16.74 C 35.22,16.71 35.24,16.7 35.27,16.7 Z M 35.78,16.82 C 35.76,16.77 35.78,16.73 35.83,16.72 A 0.23,0.23 0 0,1 35.95,16.71 C 36.09,16.74 36.11,16.81 36.02,16.91 C 35.92,17.03 35.85,17 35.78,16.81 Z M 36.74,16.81 C 36.83,16.93 36.87,17.01 36.86,17.02 C 36.84,17.19 36.78,17.22 36.68,17.11 C 36.6,17.01 36.59,16.91 36.65,16.81 C 36.68,16.76 36.71,16.76 36.75,16.81 Z M 34.85,17.35 L 34.49,17.15 C 34.39,17.1 34.36,17.05 34.38,17.01 C 34.38,16.99 34.41,16.97 34.43,16.95 C 34.47,16.92 34.51,16.91 34.57,16.93 C 34.62,16.94 34.71,17.03 34.83,17.22 C 34.91,17.35 34.92,17.39 34.85,17.35 Z M 33.53,18.86 A 1.54,1.54 0 0,1 32.73,18.53 L 33.15,18.28 A 0.25,0.25 0 0,0 33.25,18.14 C 33.31,17.92 33.42,17.74 33.55,17.62 C 33.6,17.59 33.61,17.55 33.56,17.52 L 33.42,17.42 C 33.35,17.36 33.35,17.32 33.42,17.28 L 33.51,17.23 C 33.54,17.21 33.57,17.22 33.6,17.24 C 34,17.6 34.37,17.76 34.7,17.7 C 34.8,17.68 34.83,17.72 34.79,17.82 L 34.74,17.92 C 34.69,18.03 34.62,18.05 34.51,17.99 C 34.11,17.73 33.79,17.79 33.54,18.15 C 33.43,18.33 33.36,18.43 33.35,18.47 C 33.33,18.58 33.38,18.72 33.53,18.87 Z" fill="rgb(104, 147, 101)"/>
<path d="M 30.88,17.265 C 31.01,17.23 31.12,17.23 31.21,17.28 C 31.25,17.31 31.27,17.35 31.27,17.4 C 31.27,17.45 31.24,17.48 31.19,17.5 C 31.09,17.53 30.99,17.52 30.87,17.45 C 30.77,17.38 30.77,17.33 30.89,17.28 Z M 29.2,18.21 C 29.32,18.32 29.4,18.45 29.4,18.61 C 29.4,18.67 29.38,18.71 29.32,18.73 L 29.03,18.86 C 29.01,18.86 28.99,18.86 28.99,18.83 V 17.79 C 28.99,17.65 29.06,17.56 29.19,17.51 A 0.76,0.76 0 0,1 29.46,17.46 C 29.6,17.49 29.66,17.56 29.61,17.66 C 29.54,17.83 29.41,17.96 29.22,18.03 C 29.11,18.07 29.1,18.13 29.19,18.21 Z M 31.83,17.7 C 31.97,17.8 32.04,17.87 32.05,17.88 C 32.13,17.95 32.12,18 32.03,18.03 C 31.89,18.09 31.75,18.07 31.62,17.96 C 31.48,17.86 31.42,17.73 31.45,17.57 C 31.46,17.48 31.51,17.47 31.6,17.52 L 31.83,17.7 Z" fill="rgb(176, 194, 174)"/>
<path d="M 33.190000000000005,17.645 A 0.94,0.94 0 0,1 32.62,17.81 C 32.49,17.8 32.46,17.74 32.56,17.65 C 32.71,17.49 32.91,17.43 33.16,17.46 C 33.36,17.49 33.36,17.56 33.2,17.66 Z" fill="rgb(104, 147, 101)"/>
<path d="M 31.13,18.384999999999998 A 0.94,0.94 0 0,0 30.61,18.09 C 30.39,18.02 30.24,17.94 30.17,17.83 C 30.1,17.73 30.12,17.69 30.24,17.71 C 30.47,17.74 30.63,17.86 30.72,18.06 C 30.76,18.16 30.82,18.17 30.92,18.12 L 31,18.07 C 31.12,18.01 31.2,18.03 31.28,18.15 L 31.59,18.7 C 31.63,18.77 31.62,18.82 31.55,18.86 C 31.31,19.01 31.08,19 30.87,18.84 C 30.79,18.78 30.8,18.72 30.89,18.66 L 31.11,18.53 C 31.17,18.5 31.17,18.46 31.14,18.41 Z M 29.6,18.34 C 29.52,18.45 29.52,18.59 29.61,18.66 C 29.7,18.72 29.83,18.68 29.91,18.57 C 29.99,18.47 29.98,18.33 29.9,18.27 C 29.8,18.2 29.67,18.24 29.6,18.34 Z" fill="rgb(176, 194, 174)"/>
<path d="M 32.730000000000004,18.515 C 32.94,18.7 33.21,18.82 33.53,18.86 C 33.5,19.04 33.33,19.2 33.02,19.32 C 32.94,19.36 32.87,19.34 32.82,19.26 A 0.26,0.26 0 0,1 32.78,19.08 A 0.16,0.16 0 0,0 32.7,18.91 C 32.54,18.81 32.4,18.69 32.26,18.53 A 0.13,0.13 0 0,1 32.24,18.38 L 32.28,18.28 C 32.3,18.23 32.33,18.23 32.38,18.26 L 32.74,18.53 Z" fill="rgb(47, 100, 46)"/>
<path d="M 33.760000000000005,18.314999999999998 C 33.93,18.25 34.07,18.26 34.2,18.37 C 34.28,18.45 34.27,18.5 34.16,18.52 A 0.63,0.63 0 0,1 33.78,18.45 C 33.7,18.42 33.7,18.38 33.78,18.33 Z" fill="rgb(104, 147, 101)"/>
<path d="M 30.15,19.205 L 30.29,18.93 C 30.31,18.9 30.34,18.88 30.38,18.89 C 30.42,18.89 30.44,18.92 30.45,18.96 C 30.46,19.08 30.45,19.19 30.43,19.3 C 30.41,19.37 30.37,19.4 30.3,19.38 A 0.35,0.35 0 0,1 30.22,19.35 C 30.15,19.32 30.14,19.28 30.16,19.22 Z M 35.42,19.19 L 35.12,19.32 C 35.01,19.35 34.97,19.32 35,19.22 A 0.53,0.53 0 0,1 35.27,18.88 A 0.53,0.53 0 0,1 35.71,18.88 C 35.81,18.93 35.81,18.98 35.71,19.05 L 35.41,19.19 Z M 37.45,19.04 C 37.48,19.34 37.39,19.57 37.18,19.72 C 37.11,19.76 37.08,19.82 37.08,19.91 C 37.08,19.99 37.1,20.05 37.18,20.1 C 37.2,20.12 37.25,20.13 37.32,20.13 L 37.16,20.22 C 37.1,20.14 36.94,20.08 36.69,20.03 C 36.87,19.96 36.92,19.83 36.86,19.67 A 0.2,0.2 0 0,1 36.91,19.45 C 37.06,19.28 37.24,19.15 37.45,19.05 Z M 32.2,19.42 V 19.47 C 32.04,19.5 31.9,19.5 31.77,19.47 C 31.66,19.44 31.63,19.37 31.7,19.27 A 0.2,0.2 0 0,1 31.75,19.22 C 31.82,19.17 31.88,19.18 31.93,19.24 C 32.02,19.34 32.11,19.4 32.2,19.42 Z" fill="rgb(176, 194, 174)"/>
<path d="M 33.39,21.215 C 33.35,21.43 33.18,21.46 32.92,21.33 A 0.76,0.76 0 0,0 32.81,20.98 C 32.76,20.91 32.69,20.88 32.61,20.92 A 0.54,0.54 0 0,1 32.22,20.92 C 32.13,20.89 32.11,20.83 32.15,20.75 A 0.56,0.56 0 0,1 32.62,20.43 C 32.57,20.53 32.58,20.63 32.64,20.68 C 32.71,20.75 32.77,20.75 32.82,20.68 C 33.06,20.7 33.22,20.68 33.31,20.61 C 33.44,20.51 33.43,20.41 33.26,20.27 C 33.14,20.17 32.97,20.14 32.76,20.17 C 32.8,20.02 32.8,19.9 32.76,19.8 A 0.23,0.23 0 0,0 32.56,19.66 A 0.53,0.53 0 0,1 32.21,19.48 V 19.42 L 32.37,19.3 C 32.46,19.24 32.52,19.25 32.57,19.34 L 32.67,19.51 C 32.72,19.59 32.78,19.61 32.87,19.6 C 33.07,19.55 33.18,19.61 33.2,19.78 C 33.2,19.86 33.25,19.92 33.33,19.95 L 33.84,20.19 C 33.9,20.21 33.91,20.25 33.87,20.31 C 33.64,20.59 33.48,20.91 33.41,21.23 Z" fill="rgb(47, 100, 46)"/>
<path d="M 30.83,19.564999999999998 C 30.89,19.55 30.95,19.48 31.01,19.39 C 31.07,19.29 31.15,19.29 31.22,19.39 L 31.29,19.49 C 31.33,19.54 31.32,19.6 31.26,19.66 C 30.98,19.93 30.68,20.02 30.36,19.91 C 30.26,19.89 30.24,19.83 30.28,19.74 L 30.38,19.49 C 30.44,19.37 30.51,19.36 30.6,19.46 L 30.68,19.56 C 30.72,19.61 30.78,19.62 30.84,19.58 Z" fill="rgb(104, 147, 101)"/>
<path d="M 29.959999999999997,19.425 C 30.01,19.42 30.04,19.44 30.05,19.48 C 30.09,19.6 30.07,19.71 29.98,19.78 C 29.86,19.9 29.73,19.94 29.58,19.91 A 0.1,0.1 0 0,1 29.51,19.84 A 0.1,0.1 0 0,1 29.54,19.74 C 29.64,19.63 29.79,19.53 29.97,19.44 Z M 26.93,20.03 L 27.01,20.19 C 27.06,20.52 26.99,20.56 26.78,20.3 A 1,1 0 0,1 26.63,19.86 A 0.1,0.1 0 0,1 26.68,19.76 A 0.15,0.15 0 0,1 26.75,19.73 C 26.83,19.72 26.88,19.77 26.9,19.87 V 19.95 L 26.93,20.03 Z" fill="rgb(176, 194, 174)"/>
<path d="M 30.74,20.985 L 30.67,20.72 C 30.64,20.6 30.69,20.54 30.81,20.53 C 30.89,20.53 31.08,20.59 31.37,20.73 C 31.45,20.76 31.52,20.75 31.57,20.68 C 31.72,20.48 31.81,20.28 31.86,20.08 C 31.88,19.98 31.94,19.93 32.05,19.94 C 32.24,19.95 32.27,20.03 32.15,20.18 L 31.47,21.11 A 0.26,0.26 0 0,1 31.25,21.22 C 31.13,21.22 31.05,21.28 31.05,21.38 C 31.04,21.42 31.05,21.46 31.07,21.48 A 0.2,0.2 0 0,1 31.12,21.6 C 31.12,21.7 31.07,21.74 30.97,21.73 A 0.46,0.46 0 0,0 30.74,21.75 A 0.2,0.2 0 0,0 30.64,21.85 C 30.52,22.05 30.56,22.23 30.75,22.35 C 30.82,22.4 30.87,22.45 30.9,22.52 C 30.99,22.68 31.14,22.82 31.37,22.95 L 31.39,22.97 L 31.45,23.2 C 31.45,23.23 31.45,23.25 31.42,23.27 A 0.06,0.06 0 0,1 31.35,23.27 A 1.43,1.43 0 0,0 30.69,22.98 C 30.58,22.98 30.54,23.02 30.59,23.12 C 30.7,23.42 30.92,23.57 31.25,23.57 C 31.37,23.57 31.42,23.63 31.42,23.74 C 31.41,23.94 31.29,24.06 31.06,24.11 C 30.96,24.14 30.92,24.19 30.92,24.29 C 30.92,24.44 30.98,24.53 31.12,24.55 C 31.22,24.57 31.27,24.62 31.27,24.72 V 25.05 C 31.28,25.15 31.24,25.2 31.14,25.23 C 31.06,25.25 31,25.21 30.97,25.11 C 30.82,24.74 30.79,24.31 30.87,23.83 C 30.88,23.73 30.84,23.67 30.72,23.67 H 30.62 C 30.5,23.67 30.44,23.72 30.43,23.84 C 30.43,23.94 30.41,24.03 30.39,24.09 C 30.33,24.25 30.26,24.25 30.17,24.09 C 30.16,24.05 30.15,24 30.17,23.94 A 0.3,0.3 0 0,1 30.23,23.79 C 30.4,23.59 30.36,23.4 30.11,23.21 A 0.36,0.36 0 0,1 29.97,22.99 C 29.92,22.74 30.06,22.59 30.37,22.54 C 30.47,22.53 30.49,22.48 30.44,22.39 C 30.38,22.28 30.25,22.19 30.06,22.13 C 29.95,22.1 29.89,22.13 29.89,22.25 C 29.88,22.47 29.79,22.66 29.65,22.82 C 29.55,22.93 29.44,22.93 29.33,22.82 L 28.81,22.3 C 28.71,22.22 28.71,22.13 28.81,22.04 L 29.11,21.74 A 0.16,0.16 0 0,1 29.31,21.71 A 0.5,0.5 0 0,0 29.71,21.73 C 29.78,21.7 29.87,21.62 29.98,21.48 C 30.15,21.28 30.37,21.17 30.64,21.15 C 30.74,21.15 30.78,21.09 30.75,20.99 Z M 36.7,20 C 36.94,20.04 37.1,20.1 37.16,20.16 C 37.18,20.31 37.33,20.39 37.61,20.39 C 37.72,20.39 37.76,20.43 37.71,20.52 L 37.68,20.59 C 37.65,20.69 37.68,20.73 37.8,20.75 C 38.03,20.77 38.26,20.75 38.47,20.7 C 38.57,20.68 38.76,20.7 39.04,20.78 C 39.13,20.81 39.13,20.84 39.04,20.86 C 38.54,20.98 38.04,21.02 37.5,20.98 A 7.6,7.6 0 0,0 36.17,20.94 C 35.74,20.99 35.21,21 34.59,20.99 A 0.64,0.64 0 0,1 34.25,20.88 C 33.92,20.66 33.95,20.59 34.35,20.66 C 34.85,20.76 35.43,20.62 36.07,20.28 C 36.19,20.21 36.18,20.15 36.04,20.11 C 35.9,20.06 35.88,19.99 36,19.9 C 36.08,19.84 36.15,19.85 36.2,19.92 C 36.32,20.08 36.49,20.11 36.7,20 Z" fill="rgb(47, 100, 46)"/>
<path d="M 23.689999999999998,20.384999999999998 H 23.06 C 23,20.4 22.96,20.38 22.96,20.33 C 22.96,20.29 22.96,20.25 22.98,20.21 A 0.07,0.07 0 0,1 23.05,20.17 H 23.7 C 23.75,20.17 23.78,20.19 23.78,20.23 V 20.33 C 23.78,20.38 23.75,20.41 23.7,20.41 Z" fill="rgb(104, 147, 101)"/>
<path d="M 28.88,20.384999999999998 C 28.77,20.38 28.71,20.33 28.72,20.23 A 0.1,0.1 0 0,1 28.8,20.13 C 28.9,20.11 29,20.15 29.1,20.26 C 29.16,20.32 29.15,20.36 29.08,20.41 A 0.15,0.15 0 0,1 28.98,20.42 L 28.88,20.4 Z" fill="rgb(176, 194, 174)"/>
<path d="M 32.74,20.155 C 32.97,20.14 33.14,20.17 33.26,20.27 C 33.43,20.4 33.44,20.52 33.31,20.61 C 33.21,20.67 33.06,20.7 32.82,20.69 C 32.85,20.59 32.84,20.52 32.78,20.47 C 32.72,20.4 32.67,20.39 32.62,20.43 A 0.5,0.5 0 0,1 32.75,20.17 Z" fill="rgb(104, 147, 101)"/>
<path d="M 24.56,20.355 C 24.51,20.27 24.54,20.23 24.65,20.23 C 24.83,20.23 24.96,20.29 25.05,20.39 C 25.13,20.49 25.11,20.57 24.98,20.62 C 24.84,20.66 24.7,20.58 24.58,20.37 Z" fill="rgb(176, 194, 174)"/>
<path d="M 29.49,21.044999999999998 C 29.77,20.88 29.9,20.66 29.88,20.4 C 29.88,20.28 29.93,20.25 30.03,20.3 L 30.41,20.46 C 30.49,20.5 30.53,20.56 30.52,20.65 C 30.52,20.73 30.48,20.79 30.41,20.82 C 30.1,20.95 29.84,21.13 29.61,21.35 A 0.16,0.16 0 0,1 29.43,21.38 L 29.03,21.21 C 28.92,21.16 28.89,21.08 28.96,20.98 C 29,20.9 29.1,20.85 29.26,20.82 C 29.34,20.8 29.38,20.83 29.38,20.92 V 20.99 C 29.38,21.09 29.42,21.11 29.5,21.06 Z" fill="rgb(104, 147, 101)"/>
<path d="M 24.049999999999997,20.445 C 24.15,20.42 24.2,20.45 24.22,20.54 C 24.22,20.61 24.2,20.66 24.13,20.7 C 24.05,20.74 23.99,20.72 23.96,20.62 C 23.94,20.56 23.97,20.51 24.06,20.46 Z M 32.82,20.69 C 32.77,20.75 32.71,20.75 32.64,20.68 C 32.58,20.62 32.57,20.54 32.62,20.43 C 32.67,20.39 32.72,20.4 32.78,20.47 C 32.84,20.52 32.85,20.6 32.82,20.69 Z M 36.7,20.45 C 36.85,20.39 36.96,20.39 37.05,20.45 C 37.07,20.47 37.08,20.49 37.08,20.52 C 37.08,20.55 37.06,20.56 37.03,20.57 C 36.79,20.63 36.67,20.64 36.66,20.6 C 36.64,20.52 36.66,20.47 36.71,20.45 Z M 28.35,20.66 C 28.2,20.51 28.22,20.44 28.41,20.46 C 28.48,20.46 28.53,20.5 28.56,20.56 C 28.59,20.64 28.56,20.68 28.49,20.7 C 28.44,20.72 28.39,20.7 28.35,20.66 Z M 29.32,20.56 A 0.14,0.14 0 0,1 29.42,20.46 C 29.48,20.44 29.52,20.46 29.57,20.5 C 29.62,20.54 29.62,20.61 29.55,20.7 C 29.51,20.76 29.45,20.77 29.38,20.73 C 29.31,20.7 29.29,20.64 29.32,20.56 Z" fill="rgb(176, 194, 174)"/>
<path d="M 23.729999999999997,20.835 L 23.64,21.06 C 23.6,21.17 23.55,21.17 23.5,21.06 A 0.34,0.34 0 0,1 23.47,20.89 C 23.47,20.85 23.49,20.81 23.52,20.77 C 23.58,20.71 23.65,20.71 23.72,20.77 C 23.75,20.8 23.76,20.82 23.74,20.85 Z" fill="rgb(104, 147, 101)"/>
<path d="M 22.41,20.985 C 22.44,20.94 22.47,20.92 22.52,20.96 C 22.59,21.01 22.62,21.07 22.61,21.16 C 22.59,21.23 22.55,21.26 22.49,21.2 A 0.18,0.18 0 0,1 22.42,21 Z M 33.4,21.23 C 33.9,21.42 33.84,21.57 33.2,21.7 C 33.05,21.74 32.92,21.79 32.81,21.86 L 32.03,22.36 A 0.19,0.19 0 0,1 31.85,22.37 C 31.79,22.35 31.75,22.3 31.77,22.24 C 31.79,22.1 31.9,22.04 32.1,22.03 C 32.18,22.03 32.25,22 32.31,21.93 L 32.91,21.33 C 33.18,21.46 33.35,21.43 33.41,21.23 Z M 22.97,21.36 C 22.97,21.31 23,21.29 23.04,21.32 C 23.1,21.35 23.13,21.38 23.14,21.42 C 23.14,21.45 23.14,21.48 23.12,21.49 A 0.06,0.06 0 0,1 23.04,21.49 A 0.15,0.15 0 0,1 22.97,21.36 Z" fill="rgb(176, 194, 174)"/>
<path d="M 25.16,21.375 C 25.19,21.41 25.2,21.44 25.19,21.47 A 0.08,0.08 0 0,1 25.12,21.53 C 25.02,21.54 24.92,21.53 24.86,21.49 C 24.68,21.38 24.71,21.3 24.94,21.26 C 24.99,21.26 25.07,21.3 25.17,21.39 Z M 25.69,21.72 C 25.79,21.62 25.95,21.55 26.19,21.52 A 0.9,0.9 0 0,1 26.7,21.62 C 26.95,21.73 27.27,21.79 27.67,21.78 C 27.71,21.78 27.74,21.8 27.74,21.85 V 21.94 L 26.88,22.07 C 26.81,22.07 26.75,22.05 26.71,21.98 L 26.65,21.88 A 0.18,0.18 0 0,0 26.47,21.78 C 26.11,21.8 25.8,21.94 25.54,22.21 C 25.44,22.32 25.4,22.3 25.44,22.15 C 25.49,21.99 25.57,21.85 25.69,21.72 Z" fill="rgb(104, 147, 101)"/>
<path d="M 28.029999999999998,21.685 A 2,2 0 0,1 28.54,21.68 C 28.62,21.73 28.64,21.8 28.63,21.88 A 0.18,0.18 0 0,1 28.48,22.03 C 28.28,22.08 28.11,22.03 27.98,21.89 C 27.94,21.86 27.93,21.82 27.95,21.78 A 0.1,0.1 0 0,1 28.05,21.71 Z M 22.83,22.74 C 23.3,22.75 23.53,22.53 23.53,22.08 C 23.53,21.94 23.6,21.85 23.73,21.82 L 23.81,21.79 C 23.87,21.78 23.91,21.79 23.93,21.86 C 23.98,22.01 23.94,22.17 23.81,22.33 A 0.28,0.28 0 0,0 23.74,22.57 A 0.5,0.5 0 0,1 23.74,22.73 A 0.2,0.2 0 0,1 23.59,22.91 L 22.77,23.14 A 0.22,0.22 0 0,0 22.61,23.33 L 22.59,23.45 C 22.57,23.58 22.55,23.58 22.54,23.44 L 22.5,22.67 C 22.49,22.57 22.54,22.53 22.64,22.57 C 22.67,22.59 22.69,22.62 22.7,22.65 C 22.73,22.71 22.77,22.74 22.83,22.74 Z M 29.27,22.2 C 29.37,22.1 29.45,22.05 29.53,22.07 C 29.61,22.1 29.63,22.15 29.59,22.22 C 29.49,22.35 29.41,22.41 29.32,22.38 C 29.22,22.34 29.21,22.28 29.27,22.21 Z" fill="rgb(176, 194, 174)"/>
<path d="M 27.86,23.535 L 26.39,23.33 C 26.44,23.11 26.71,23.01 27.19,23.03 C 27.45,23.04 27.62,22.93 27.71,22.68 C 27.8,22.41 28.04,22.31 28.43,22.4 A 0.3,0.3 0 0,1 28.63,22.57 C 28.67,22.67 28.69,22.73 28.68,22.78 C 28.65,22.88 28.68,22.95 28.78,22.98 C 28.81,22.98 28.94,23.1 29.17,23.33 C 29.23,23.39 29.31,23.42 29.4,23.4 H 29.63 C 29.75,23.48 29.75,23.53 29.63,23.57 L 29.51,23.61 A 0.24,0.24 0 0,1 29.4,23.57 C 29.19,23.45 29.01,23.4 28.87,23.44 C 28.54,23.51 28.21,23.54 27.87,23.54 Z M 33.91,23.78 C 33.98,24.15 33.67,24.25 32.99,24.09 L 33.01,23.49 C 33.02,23.32 32.98,23.31 32.88,23.45 L 32.84,23.51 C 32.64,23.81 32.43,23.97 32.21,23.98 C 32.15,23.98 32.13,24.01 32.13,24.06 C 32.13,24.09 32.14,24.12 32.16,24.14 L 32.23,24.18 L 32.76,24.26 C 32.88,24.28 32.91,24.34 32.87,24.46 C 32.81,24.61 32.75,24.72 32.7,24.77 A 0.75,0.75 0 0,1 32.38,24.91 A 1,1 0 0,0 31.9,25.19 L 31.75,25.17 C 31.69,24.67 31.74,24.19 31.89,23.74 C 31.92,23.64 31.99,23.6 32.09,23.62 C 32.18,23.62 32.26,23.62 32.32,23.56 C 32.4,23.5 32.42,23.43 32.35,23.35 C 32.25,23.22 32.13,23.17 32,23.2 C 31.9,23.23 31.85,23.2 31.81,23.11 A 0.4,0.4 0 0,1 31.78,23.01 C 31.78,22.94 31.8,22.88 31.88,22.84 L 32.16,22.67 A 0.56,0.56 0 0,0 32.34,22.52 A 0.3,0.3 0 0,1 32.54,22.39 C 32.66,22.39 32.69,22.43 32.64,22.53 C 32.56,22.71 32.49,22.83 32.42,22.88 C 32.35,22.95 32.35,23.01 32.43,23.08 L 32.53,23.13 H 32.62 C 32.71,23.11 32.82,23.03 32.98,22.9 C 33.05,22.84 33.12,22.84 33.18,22.91 C 33.22,22.95 33.24,23.01 33.24,23.08 C 33.24,23.18 33.29,23.24 33.39,23.25 C 33.5,23.27 33.62,23.23 33.73,23.13 C 33.81,23.06 33.87,23.08 33.89,23.18 C 33.94,23.38 33.95,23.58 33.91,23.78 Z" fill="rgb(47, 100, 46)"/>
<path d="M 25.24,22.665 C 25.33,22.78 25.38,22.88 25.39,22.98 C 25.4,23.08 25.37,23.1 25.29,23.05 A 0.52,0.52 0 0,1 25.09,22.87 C 25.04,22.79 25.07,22.72 25.16,22.67 C 25.2,22.65 25.22,22.65 25.25,22.68 Z" fill="rgb(176, 194, 174)"/>
<path d="M 26.09,23.465 L 27.73,23.62 L 28.27,23.82 C 28.35,23.84 28.44,23.84 28.53,23.8 A 0.83,0.83 0 0,1 29.12,23.79 C 29.22,23.82 29.27,23.89 29.28,23.98 C 29.28,24.09 29.23,24.18 29.11,24.27 C 29.03,24.33 29.02,24.39 29.1,24.46 C 29.2,24.55 29.22,24.68 29.17,24.84 C 29.13,24.95 29.13,25.04 29.15,25.09 L 29.5,25.87 C 29.54,25.96 29.58,26.02 29.64,26.05 C 29.76,26.12 29.9,26.15 30.04,26.15 C 30.08,26.15 30.09,26.17 30.07,26.21 C 30.06,26.25 30.05,26.26 30.03,26.25 A 1.84,1.84 0 0,0 29.28,26.09 A 2.68,2.68 0 0,1 27.49,25.32 A 0.23,0.23 0 0,0 27.24,25.28 C 27.15,25.32 27.11,25.38 27.1,25.48 C 27.1,25.75 27.2,25.99 27.42,26.2 C 27.5,26.27 27.49,26.33 27.42,26.4 C 27.34,26.46 27.2,26.47 26.98,26.43 A 0.33,0.33 0 0,0 26.72,26.48 C 26.51,26.64 26.22,26.63 25.86,26.46 C 25.69,26.38 25.71,26.34 25.9,26.34 H 26.22 C 26.38,26.34 26.39,26.3 26.27,26.21 C 26.12,26.11 25.97,26.11 25.83,26.23 C 25.76,26.29 25.69,26.3 25.61,26.25 C 25.31,26.08 25.04,26.1 24.81,26.31 C 24.74,26.38 24.73,26.46 24.81,26.54 C 24.84,26.59 24.9,26.63 24.96,26.66 C 25.1,26.72 25.09,26.76 24.96,26.8 C 24.71,26.87 24.54,27.01 24.46,27.23 A 0.34,0.34 0 0,1 24.34,27.38 C 23.95,27.67 23.67,27.98 23.49,28.3 C 23.32,28.6 23.41,28.7 23.76,28.6 C 23.98,28.53 24.22,28.57 24.48,28.73 C 24.56,28.78 24.55,28.83 24.47,28.85 C 24.22,28.93 24.11,29.05 24.15,29.23 C 24.17,29.32 24.14,29.39 24.06,29.43 A 1.9,1.9 0 0,1 23.33,29.76 C 23.05,29.79 23.04,29.88 23.31,30.01 C 23.41,30.06 23.55,30.15 23.71,30.26 C 23.78,30.32 23.86,30.31 23.92,30.26 L 24.37,29.84 A 0.24,0.24 0 0,1 24.61,29.78 C 24.67,29.79 24.71,29.82 24.76,29.86 C 24.8,29.9 24.81,29.94 24.79,29.99 A 0.12,0.12 0 0,1 24.69,30.08 L 24.59,30.11 C 24.52,30.13 24.49,30.16 24.51,30.21 C 24.51,30.28 24.55,30.31 24.61,30.31 H 25.16 C 25.26,30.31 25.31,30.35 25.32,30.44 C 25.34,30.74 25.22,30.97 24.93,31.09 C 24.77,31.17 24.74,31.13 24.85,31 L 25.01,30.82 C 25.04,30.78 25.04,30.74 25.01,30.7 C 24.98,30.65 24.93,30.64 24.88,30.66 A 0.23,0.23 0 0,0 24.75,30.76 A 0.16,0.16 0 0,1 24.6,30.84 C 24.5,30.84 24.37,30.79 24.24,30.68 A 0.25,0.25 0 0,0 23.98,30.64 C 23.9,30.67 23.85,30.75 23.82,30.89 C 23.79,30.99 23.74,31.01 23.65,30.95 C 23.55,30.88 23.52,30.76 23.53,30.6 C 23.54,30.5 23.49,30.45 23.39,30.43 C 23.33,30.43 23.27,30.45 23.23,30.51 C 23.18,30.57 23.13,30.69 23.06,30.89 C 23.03,30.98 22.96,31.02 22.86,31.02 C 22.61,31.02 22.44,31.18 22.36,31.5 C 22.35,31.6 22.38,31.67 22.49,31.7 C 22.56,31.72 22.66,31.73 22.81,31.72 C 22.9,31.71 22.96,31.75 22.98,31.83 L 23.03,31.99 C 23.06,32.09 23.13,32.15 23.23,32.16 C 23.39,32.19 23.52,32.23 23.6,32.28 C 23.72,32.35 23.71,32.41 23.58,32.45 C 23.2,32.58 22.78,32.57 22.3,32.43 C 22.23,32.41 22.2,32.43 22.2,32.5 V 32.66 C 22.2,32.7 22.22,32.73 22.27,32.73 L 23.4,32.88 C 23.5,32.88 23.53,32.94 23.52,33.05 C 23.5,33.15 23.52,33.25 23.55,33.36 C 23.56,33.41 23.59,33.41 23.62,33.38 C 23.89,33.11 24.15,32.91 24.42,32.77 C 24.51,32.72 24.56,32.67 24.58,32.62 A 0.16,0.16 0 0,0 24.58,32.49 A 0.18,0.18 0 0,0 24.46,32.39 C 24.33,32.36 24.25,32.42 24.23,32.57 A 0.24,0.24 0 0,1 24.08,32.77 A 0.25,0.25 0 0,1 23.87,32.77 C 23.76,32.72 23.72,32.64 23.75,32.53 A 0.8,0.8 0 0,0 23.68,31.93 C 23.64,31.85 23.66,31.77 23.74,31.71 C 23.84,31.62 23.88,31.5 23.85,31.34 C 23.84,31.24 23.88,31.18 23.98,31.14 A 0.84,0.84 0 0,1 24.63,31.18 C 24.73,31.23 24.73,31.28 24.61,31.32 C 24.38,31.4 24.2,31.54 24.07,31.73 C 24.01,31.83 24.03,31.86 24.15,31.83 L 24.62,31.71 C 24.72,31.68 24.79,31.71 24.86,31.77 C 24.92,31.84 24.93,31.92 24.89,32 L 24.79,32.22 C 24.74,32.32 24.76,32.42 24.87,32.47 C 25.17,32.65 25.44,32.76 25.65,32.78 C 25.75,32.79 25.82,32.83 25.87,32.9 C 25.93,33 25.96,33.07 25.96,33.13 C 25.96,33.21 25.91,33.26 25.81,33.26 H 25.61 C 25.51,33.26 25.45,33.3 25.43,33.4 C 25.38,33.65 25.23,33.79 24.99,33.83 C 24.86,33.85 24.8,33.92 24.8,34.03 V 34.17 C 24.8,34.29 24.86,34.33 24.98,34.27 C 25.48,34.01 25.78,34.06 25.9,34.42 C 25.91,34.46 25.94,34.47 25.97,34.47 C 26.01,34.47 26.03,34.47 26.05,34.44 C 26.4,33.83 26.75,33.59 27.08,33.73 C 27.19,33.78 27.22,33.85 27.18,33.95 L 27.07,34.18 C 27.04,34.23 27.06,34.26 27.11,34.28 L 27.26,34.35 C 27.36,34.39 27.4,34.36 27.37,34.25 L 27.3,34.02 C 27.27,33.92 27.3,33.85 27.41,33.82 A 0.9,0.9 0 0,1 27.75,33.75 C 27.75,33.87 27.82,33.93 27.95,33.95 C 28.02,33.95 28.11,33.93 28.21,33.89 C 28.61,33.71 28.96,33.62 29.29,33.61 C 29.32,33.88 29.45,34.1 29.68,34.28 C 29.7,34.3 29.72,34.3 29.75,34.28 L 29.84,34.24 C 29.9,34.2 29.9,34.17 29.84,34.14 A 0.95,0.95 0 0,1 29.38,33.68 A 0.71,0.71 0 0,0 29.35,33.29 C 29.33,33.21 29.35,33.14 29.43,33.09 C 29.53,33.02 29.61,33.02 29.7,33.09 C 29.77,33.14 29.83,33.13 29.88,33.06 C 30.07,32.82 30.34,32.7 30.71,32.72 C 30.8,32.72 30.88,32.75 30.95,32.81 C 31.19,33.01 31.57,33.24 32.08,33.51 C 32.21,33.57 32.32,33.71 32.43,33.92 C 32.5,34.05 32.53,34.21 32.54,34.42 C 32.58,35.36 32.63,35.9 32.68,36.04 C 33.63,38.63 33.78,41.28 33.13,44 H 22 V 24.59 C 22.35,24.43 22.57,24.22 22.64,23.97 C 22.95,23.47 23.46,23.13 24.18,22.93 A 0.35,0.35 0 0,1 24.42,22.94 L 25.72,23.48 C 25.8,23.52 25.82,23.58 25.79,23.66 A 0.47,0.47 0 0,1 25.62,23.86 C 25.52,23.92 25.45,23.9 25.39,23.81 L 25.33,23.71 C 25.27,23.61 25.22,23.61 25.16,23.71 C 25.12,23.78 25.11,23.87 25.13,24.01 C 25.13,24.1 25.2,24.15 25.31,24.17 C 25.47,24.17 25.6,24.15 25.7,24.07 C 25.76,24.02 25.82,23.92 25.86,23.77 C 25.91,23.59 25.99,23.49 26.1,23.48 Z" fill="rgb(47, 100, 46)"/>
<path d="M 25.299999999999997,23.575 H 24.87 C 24.79,23.59 24.77,23.55 24.81,23.48 C 24.84,23.44 24.88,23.41 24.94,23.4 C 25.14,23.35 25.28,23.39 25.36,23.51 C 25.38,23.56 25.36,23.59 25.31,23.59 Z" fill="rgb(254, 254, 253)"/>
<path d="M 33.9,23.765 C 33.98,24.04 33.99,24.32 33.97,24.59 C 33.97,24.69 33.91,24.73 33.82,24.73 C 33.28,24.75 33.01,24.53 32.99,24.09 C 33.68,24.25 33.99,24.15 33.91,23.79 Z M 23.07,23.97 C 23,24.22 22.81,24.43 22.47,24.59 C 22.47,24.36 22.49,24.18 22.55,24.04 C 22.58,23.95 22.65,23.91 22.75,23.93 L 23.07,23.97 Z" fill="rgb(176, 194, 174)"/>
<path d="M 24.889999999999997,24.445 H 24.65 C 24.53,24.46 24.49,24.4 24.55,24.29 L 24.61,24.13 C 24.66,24.03 24.74,23.99 24.84,24.03 L 24.92,24.05 C 25,24.05 25.05,24.1 25.06,24.18 L 25.13,24.49 C 25.15,24.63 25.13,24.67 25.08,24.62 A 0.5,0.5 0 0,1 25,24.52 A 0.12,0.12 0 0,0 24.9,24.46 Z" fill="rgb(254, 254, 253)"/>
<path d="M 29.91,25.285 C 29.86,25.24 29.72,25.22 29.46,25.23 C 29.34,25.23 29.29,25.18 29.34,25.07 L 29.67,24.2 C 29.73,24.05 29.79,24.05 29.86,24.19 C 29.92,24.32 30.06,24.38 30.28,24.37 C 30.38,24.37 30.46,24.42 30.48,24.53 L 30.72,25.36 C 30.74,25.44 30.71,25.5 30.62,25.52 L 30.14,25.66 C 30.05,25.68 30.01,25.65 30,25.56 V 25.4 C 30,25.37 29.97,25.34 29.92,25.3 Z" fill="rgb(47, 100, 46)"/>
<path d="M 28.189999999999998,24.775 C 28.46,24.68 28.65,24.53 28.77,24.34 C 28.79,24.31 28.81,24.3 28.85,24.31 L 28.93,24.35 C 28.94,24.35 28.95,24.37 28.93,24.38 C 28.7,24.72 28.43,25.01 28.1,25.23 A 0.15,0.15 0 0,1 27.94,25.25 A 0.15,0.15 0 0,1 27.85,25.12 C 27.83,24.84 27.89,24.58 28.03,24.34 C 28.05,24.3 28.08,24.29 28.12,24.31 L 28.19,24.34 C 28.25,24.37 28.26,24.42 28.23,24.48 L 28.12,24.67 C 28.07,24.69 28.07,24.72 28.09,24.75 C 28.12,24.79 28.15,24.8 28.19,24.79 Z M 23.86,24.74 C 23.83,24.53 23.94,24.4 24.19,24.37 C 24.25,24.37 24.29,24.38 24.33,24.42 C 24.36,24.47 24.37,24.52 24.34,24.57 L 24.15,25 A 0.3,0.3 0 0,1 23.95,25.18 L 23.18,25.39 C 23.06,25.43 23.04,25.39 23.11,25.29 A 0.85,0.85 0 0,1 23.72,24.92 C 23.83,24.91 23.88,24.85 23.86,24.74 Z" fill="rgb(254, 254, 253)"/>
<path d="M 31.74,25.155 L 31.9,25.19 C 31.7,25.48 31.9,25.75 32.5,26.01 C 32.68,26.08 32.79,26.04 32.83,25.9 L 32.86,25.8 C 32.87,25.73 32.93,25.7 33.01,25.68 C 33.29,25.66 33.54,25.59 33.76,25.48 C 33.83,25.45 33.86,25.39 33.83,25.32 A 0.14,0.14 0 0,0 33.78,25.25 A 0.18,0.18 0 0,0 33.66,25.21 C 33.41,25.21 33.26,25.21 33.2,25.17 C 33.12,25.12 33.12,25.07 33.2,25.03 C 33.35,24.95 33.54,24.97 33.77,25.07 C 33.9,25.13 33.97,25.23 33.98,25.38 C 33.99,25.53 33.93,25.64 33.8,25.72 L 32.98,26.2 A 0.29,0.29 0 0,1 32.74,26.22 A 0.47,0.47 0 0,0 32.3,26.29 A 0.13,0.13 0 0,0 32.25,26.44 C 32.27,26.51 32.31,26.54 32.37,26.55 C 32.95,26.64 33.41,26.51 33.74,26.17 C 33.81,26.1 33.88,26.1 33.94,26.17 C 33.96,26.19 33.98,26.21 33.98,26.23 C 33.99,26.29 33.97,26.32 33.91,26.33 C 33.68,26.39 33.57,26.53 33.57,26.78 C 33.57,26.88 33.53,26.92 33.43,26.88 A 0.22,0.22 0 0,1 33.33,26.83 C 33.27,26.75 33.19,26.73 33.1,26.77 A 1.4,1.4 0 0,1 32.09,26.82 C 31.91,26.76 31.82,26.69 31.81,26.61 C 31.79,26.51 31.81,26.41 31.88,26.33 C 31.93,26.25 31.93,26.17 31.86,26.1 A 0.77,0.77 0 0,1 31.76,25.17 Z" fill="rgb(104, 147, 101)"/>
<path d="M 22.819999999999997,25.785 C 22.86,25.76 22.9,25.73 22.93,25.73 C 23,25.73 23.03,25.76 23.01,25.82 C 23,25.91 22.95,25.94 22.87,25.92 C 22.78,25.92 22.77,25.87 22.83,25.8 Z M 30.48,26.38 C 30.48,26.34 30.5,26.31 30.55,26.3 C 30.6,26.3 30.64,26.32 30.68,26.38 C 30.71,26.43 30.7,26.48 30.65,26.52 C 30.62,26.54 30.58,26.54 30.54,26.52 C 30.49,26.5 30.47,26.45 30.48,26.38 Z M 25.67,27.04 C 25.75,27.07 25.82,27.07 25.83,27.03 C 25.85,26.99 25.8,26.93 25.73,26.91 C 25.66,26.88 25.59,26.88 25.57,26.92 C 25.56,26.96 25.6,27.02 25.67,27.04 Z M 29.65,27.55 C 29.62,27.61 29.38,27.54 28.94,27.33 C 28.82,27.27 28.78,27.2 28.82,27.12 C 28.87,27.04 28.94,27.03 29.06,27.1 C 29.49,27.34 29.68,27.5 29.66,27.55 Z M 31.85,27.32 C 31.89,27.25 31.94,27.24 31.99,27.3 C 32.04,27.35 32.06,27.41 32.06,27.47 C 32.06,27.54 32.03,27.58 31.96,27.6 C 31.89,27.61 31.85,27.58 31.83,27.51 A 0.27,0.27 0 0,1 31.85,27.32 Z" fill="rgb(176, 194, 174)"/>
<path d="M 32.39,28.345 L 32.76,28.26 C 32.86,28.23 32.92,28.27 32.92,28.38 C 32.92,28.52 32.89,28.68 32.82,28.84 C 32.81,28.91 32.83,28.94 32.9,28.94 H 33.02 C 33.09,28.94 33.13,28.91 33.15,28.85 C 33.25,28.57 33.49,28.4 33.84,28.37 C 33.89,28.36 33.94,28.38 33.96,28.43 C 33.98,28.48 33.98,28.53 33.94,28.57 C 33.82,28.7 33.81,28.85 33.9,29.01 C 33.95,29.08 33.98,29.17 33.98,29.26 V 30.82 C 33.98,30.89 33.95,30.94 33.88,30.97 A 0.16,0.16 0 0,1 33.71,30.96 A 1.02,1.02 0 0,0 33.01,30.74 C 32.92,30.75 32.85,30.71 32.81,30.62 C 32.69,30.34 32.73,30.12 32.93,29.96 C 33.06,29.86 33.13,29.77 33.16,29.72 A 0.5,0.5 0 0,0 33.16,29.32 C 33.12,29.25 33.06,29.22 32.98,29.24 C 32.53,29.37 32.18,29.36 31.92,29.19 A 0.3,0.3 0 0,1 31.79,28.93 V 28.23 C 31.79,28.15 31.82,28.08 31.89,28.03 C 32.25,27.73 32.61,27.52 32.95,27.38 C 33.11,27.31 33.15,27.36 33.05,27.51 C 32.91,27.75 32.68,28.01 32.35,28.27 C 32.33,28.29 32.33,28.31 32.34,28.34 C 32.35,28.36 32.37,28.37 32.4,28.36 Z" fill="rgb(47, 100, 46)"/>
<path d="M 33.63,27.605 L 33.81,27.52 C 33.85,27.5 33.87,27.52 33.86,27.56 L 33.84,27.64 L 33.8,27.67 L 33.3,27.92 C 32.96,28.1 32.9,28.02 33.12,27.71 C 33.16,27.66 33.25,27.65 33.38,27.67 C 33.48,27.68 33.56,27.67 33.64,27.62 Z M 30.15,27.78 C 29.72,28.05 29.63,28.33 29.88,28.64 C 29.98,28.77 30.12,28.81 30.28,28.76 A 0.35,0.35 0 0,0 30.55,28.46 C 30.58,28.24 30.55,28.02 30.46,27.81 A 0.5,0.5 0 0,1 30.81,27.78 C 30.91,27.8 30.94,27.85 30.91,27.95 C 30.89,28 30.86,28.03 30.81,28.05 C 30.71,28.07 30.68,28.13 30.71,28.22 L 31.04,29.12 L 29.75,29.13 C 29.67,29.13 29.61,29.17 29.58,29.25 A 0.48,0.48 0 0,1 29.48,29.41 A 0.4,0.4 0 0,0 29.39,29.27 C 29.54,29.05 29.59,28.76 29.53,28.39 L 28.83,28.07 C 28.78,28.04 28.76,27.99 28.78,27.93 L 28.8,27.84 C 28.82,27.77 28.87,27.74 28.94,27.77 C 29,27.79 29.08,27.83 29.2,27.91 C 29.36,28.01 29.47,28.05 29.52,28.04 C 29.67,28.04 29.75,27.96 29.79,27.82 C 29.81,27.74 29.86,27.7 29.95,27.7 C 30.02,27.7 30.09,27.73 30.15,27.78 Z" fill="rgb(176, 194, 174)"/>
<path d="M 30.139999999999997,27.765 L 30.46,27.81 C 30.55,28.02 30.58,28.24 30.55,28.45 A 0.35,0.35 0 0,1 30.27,28.76 A 0.35,0.35 0 0,1 29.88,28.64 C 29.63,28.34 29.72,28.04 30.15,27.78 Z" fill="rgb(47, 100, 46)"/>
<path d="M 27.729999999999997,27.895 L 27.7,28.21 C 27.57,28.12 27.47,28.1 27.4,28.14 C 27.13,28.31 26.85,28.39 26.58,28.39 H 26.08 C 25.58,28.48 25.38,28.81 25.45,29.39 L 25.39,29.51 C 25.04,29.19 25.16,28.71 25.75,28.08 C 25.92,27.89 26.07,27.88 26.18,28.05 C 26.24,28.14 26.41,28.19 26.7,28.22 C 26.8,28.23 26.86,28.19 26.9,28.1 A 0.56,0.56 0 0,1 26.99,27.92 C 27.05,27.85 27.12,27.83 27.2,27.88 C 27.38,27.98 27.56,28 27.74,27.91 Z" fill="rgb(104, 147, 101)"/>
<path d="M 28.169999999999998,28.095 C 27.99,28.24 27.84,28.29 27.73,28.27 A 1.74,1.74 0 0,1 27.71,28.21 L 27.74,27.91 C 28.24,27.74 28.38,27.81 28.18,28.11 Z" fill="rgb(47, 100, 46)"/>
<path d="M 28.169999999999998,28.095 C 28.38,28.31 28.42,28.53 28.33,28.8 A 0.1,0.1 0 0,1 28.25,28.87 A 0.1,0.1 0 0,1 28.15,28.82 L 27.73,28.27 C 27.84,28.29 27.99,28.24 28.18,28.11 Z" fill="rgb(104, 147, 101)"/>
<path d="M 29.389999999999997,29.255 A 0.56,0.56 0 0,1 29.07,29.35 C 28.97,29.34 28.91,29.29 28.87,29.2 C 28.85,29.12 28.87,29.06 28.97,29.03 C 29.24,28.94 29.43,28.73 29.54,28.39 C 29.59,28.76 29.54,29.05 29.39,29.27 Z" fill="rgb(47, 100, 46)"/>
<path d="M 27.72,28.805 V 28.89 A 0.08,0.08 0 0,1 27.65,28.95 C 27.14,29.03 26.87,29.03 26.85,28.95 C 26.85,28.85 27.1,28.78 27.61,28.71 C 27.65,28.71 27.68,28.72 27.71,28.75 L 27.73,28.82 Z" fill="rgb(176, 194, 174)"/>
<path d="M 29.47,29.395 C 29.52,29.37 29.55,29.31 29.58,29.25 C 29.61,29.17 29.67,29.13 29.75,29.13 L 31.04,29.12 C 31.14,29.22 31.22,29.34 31.28,29.48 A 0.2,0.2 0 0,1 31.25,29.68 L 31.02,30 C 30.96,30.07 30.96,30.15 31.02,30.22 C 31.3,30.52 31.49,30.84 31.59,31.16 C 31.25,31.33 30.92,31.39 30.63,31.32 A 0.2,0.2 0 0,0 30.43,31.4 C 30.38,31.45 30.33,31.5 30.27,31.52 L 30.12,31.34 C 30.12,31.22 30.16,31.12 30.27,31.02 L 30.6,30.88 C 30.7,30.84 30.7,30.79 30.6,30.74 A 0.82,0.82 0 0,0 30.08,30.66 A 0.85,0.85 0 0,1 29.78,30.52 L 29.12,30.46 A 0.33,0.33 0 0,0 28.9,30.52 C 28.77,30.61 28.65,30.6 28.54,30.48 A 0.4,0.4 0 0,0 28.31,30.38 C 27.95,30.32 27.68,30.41 27.47,30.64 C 27.41,30.71 27.41,30.78 27.48,30.84 C 27.59,30.94 27.66,31.04 27.68,31.14 C 27.68,31.23 27.65,31.29 27.56,31.31 L 27.26,31.39 C 27.15,31.43 27.08,31.39 27.05,31.28 L 26.87,30.64 C 26.84,30.54 26.87,30.48 26.98,30.45 C 27.14,30.42 27.24,30.38 27.28,30.34 C 27.47,30.08 27.41,30.01 27.1,30.13 A 0.68,0.68 0 0,0 26.94,30.29 A 0.2,0.2 0 0,1 26.73,30.36 A 1.06,1.06 0 0,0 26.43,30.31 C 26.03,30.41 26.03,30.57 26.42,30.79 L 26.62,30.92 C 26.77,31.05 26.75,31.1 26.55,31.08 C 26.13,31.04 25.89,30.8 25.83,30.38 C 25.83,30.33 25.85,30.31 25.9,30.31 H 26 C 26.02,30.31 26.03,30.31 26.04,30.29 C 26.07,30.26 26.09,30.23 26.08,30.19 C 26.08,30.14 26.05,30.11 25.98,30.1 C 25.63,30.08 25.43,29.88 25.38,29.5 L 25.45,29.39 L 25.62,29.38 A 0.2,0.2 0 0,0 25.82,29.25 C 25.95,28.95 26.22,28.87 26.62,29.01 C 26.78,29.06 26.79,29.13 26.66,29.23 S 26.4,29.53 26.25,29.83 C 26.21,29.9 26.25,29.92 26.35,29.88 C 26.48,29.82 26.75,29.82 27.15,29.86 C 27.25,29.87 27.31,29.83 27.35,29.75 A 0.24,0.24 0 0,0 27.37,29.64 C 27.37,29.54 27.39,29.47 27.45,29.41 C 27.64,29.23 27.82,29.11 27.99,29.07 C 28.1,29.04 28.18,29.07 28.24,29.17 L 28.54,29.71 C 28.59,29.78 28.64,29.81 28.72,29.78 L 28.85,29.73 C 28.99,29.68 29.02,29.7 28.94,29.8 L 28.88,29.85 C 28.84,29.87 28.83,29.9 28.84,29.95 L 28.89,30.01 C 28.95,30.06 29.01,30.06 29.07,30.01 C 29.27,29.88 29.41,29.68 29.48,29.41 Z" fill="rgb(47, 100, 46)"/>
<path d="M 28.049999999999997,29.805 A 0.41,0.41 0 0,0 27.93,29.92 A 0.12,0.12 0 0,1 27.79,29.94 A 0.12,0.12 0 0,1 27.7,29.83 C 27.68,29.63 27.76,29.53 27.94,29.52 C 28.04,29.52 28.24,29.63 28.51,29.87 C 28.6,29.94 28.63,30 28.61,30.05 C 28.51,30.28 28.42,30.29 28.34,30.07 L 28.27,29.91 C 28.23,29.81 28.17,29.79 28.06,29.82 Z M 30.14,30.08 C 30.39,30.13 30.61,30.06 30.63,29.93 C 30.65,29.8 30.47,29.65 30.23,29.61 C 29.98,29.56 29.76,29.64 29.73,29.77 C 29.71,29.9 29.89,30.04 30.14,30.08 Z" fill="rgb(254, 254, 253)"/>
<path d="M 32.09,29.915 C 32.2,29.88 32.25,29.9 32.29,29.99 C 32.34,30.13 32.3,30.26 32.18,30.38 C 32.08,30.46 32.01,30.41 31.96,30.2 C 31.93,30.1 31.98,30 32.11,29.93 Z" fill="rgb(176, 194, 174)"/>
<path d="M 30.069999999999997,30.645 A 0.42,0.42 0 0,0 30.05,30.82 C 30.05,30.88 30.07,30.92 30.11,30.96 C 30.15,30.99 30.21,31.01 30.27,31.02 C 30.17,31.12 30.11,31.22 30.12,31.34 C 30.01,31.19 29.84,31.21 29.62,31.41 C 29.55,31.46 29.5,31.46 29.45,31.38 L 29.09,30.75 C 29.08,30.73 29.09,30.72 29.1,30.71 L 29.18,30.66 C 29.22,30.64 29.25,30.65 29.27,30.68 C 29.37,30.85 29.52,30.92 29.68,30.88 C 29.76,30.87 29.81,30.82 29.83,30.75 A 0.4,0.4 0 0,0 29.79,30.52 C 29.89,30.6 29.99,30.64 30.08,30.66 Z M 28.04,31.15 A 0.68,0.68 0 0,1 28.01,30.75 A 0.09,0.09 0 0,1 28.09,30.67 C 28.13,30.67 28.16,30.68 28.19,30.72 C 28.29,30.89 28.29,31.04 28.17,31.18 C 28.11,31.25 28.07,31.24 28.04,31.15 Z" fill="rgb(104, 147, 101)"/>
<path d="M 30.259999999999998,31.005 A 0.41,0.41 0 0,1 30.11,30.96 A 0.17,0.17 0 0,1 30.05,30.82 C 30.05,30.77 30.05,30.72 30.08,30.66 C 30.27,30.63 30.44,30.66 30.6,30.74 C 30.7,30.79 30.7,30.84 30.6,30.88 L 30.27,31.02 Z" fill="rgb(176, 194, 174)"/>
<path d="M 25.74,30.925 C 25.81,30.91 25.85,30.93 25.88,31 C 25.9,31.06 25.88,31.12 25.81,31.17 C 25.74,31.22 25.7,31.21 25.67,31.13 C 25.64,31.03 25.67,30.97 25.75,30.93 Z M 28.73,31.48 C 28.82,31.58 28.95,31.62 29.03,31.56 C 29.12,31.5 29.11,31.36 29.03,31.25 C 28.95,31.14 28.81,31.1 28.73,31.16 C 28.65,31.22 28.65,31.36 28.73,31.48 Z" fill="rgb(104, 147, 101)"/>
<path d="M 33.46,33.745 L 32.83,31.44 C 32.75,31.16 32.85,31.05 33.13,31.13 C 33.31,31.17 33.46,31.23 33.59,31.33 C 33.85,31.5 33.99,31.74 33.99,32.06 C 33.98,32.76 33.96,33.26 33.93,33.56 C 33.92,33.72 33.83,33.83 33.65,33.87 C 33.55,33.89 33.5,33.86 33.47,33.77 Z" fill="rgb(47, 100, 46)"/>
<path d="M 31.59,31.145 C 31.57,31.3 31.62,31.42 31.75,31.53 C 32.04,31.77 31.99,31.89 31.62,31.89 A 2.9,2.9 0 0,1 30.27,31.52 C 30.33,31.49 30.37,31.45 30.42,31.4 A 0.2,0.2 0 0,1 30.62,31.33 C 30.92,31.39 31.25,31.33 31.59,31.16 Z M 27.83,33.75 L 27.63,33.49 C 27.56,33.41 27.58,33.34 27.68,33.3 C 27.76,33.27 27.8,33.22 27.8,33.15 C 27.8,33.05 27.75,33.02 27.66,33.04 C 27.14,33.14 26.88,33.24 26.86,33.34 C 26.84,33.47 26.76,33.5 26.64,33.44 A 0.12,0.12 0 0,1 26.56,33.32 V 32.91 C 26.56,32.81 26.52,32.75 26.43,32.72 A 1.33,1.33 0 0,1 25.93,32.46 A 0.37,0.37 0 0,0 25.69,32.37 A 0.5,0.5 0 0,1 25.37,32.27 C 25.27,32.19 25.27,32.11 25.35,32.02 L 25.51,31.86 C 25.56,31.81 25.56,31.76 25.51,31.71 L 25.38,31.58 C 25.34,31.53 25.35,31.51 25.41,31.51 H 26.08 C 26.14,31.51 26.17,31.54 26.16,31.61 L 26.14,31.69 C 26.14,31.74 26.15,31.78 26.18,31.81 C 26.52,32.09 26.86,32.25 27.18,32.29 C 27.28,32.29 27.34,32.35 27.36,32.45 C 27.39,32.68 27.53,32.82 27.78,32.86 C 27.88,32.88 27.94,32.92 27.98,33 L 28.05,33.1 C 28.08,33.17 28.07,33.23 28.01,33.26 C 27.81,33.38 27.76,33.54 27.83,33.76 Z" fill="rgb(104, 147, 101)"/>
<path d="M 26.43,31.515 C 26.49,31.49 26.6,31.49 26.74,31.52 C 26.86,31.54 26.87,31.58 26.77,31.64 C 26.71,31.66 26.61,31.65 26.44,31.6 C 26.38,31.59 26.38,31.56 26.44,31.53 Z M 28.3,31.53 C 28.33,31.51 28.36,31.5 28.4,31.51 C 28.45,31.51 28.48,31.53 28.5,31.56 C 28.53,31.61 28.5,31.63 28.42,31.63 C 28.39,31.63 28.35,31.63 28.32,31.61 C 28.27,31.59 28.27,31.57 28.3,31.53 Z" fill="rgb(176, 194, 174)"/>
<path d="M 28.52,32.725 L 28,32.78 C 27.92,32.78 27.88,32.75 27.87,32.68 L 27.86,32.6 C 27.85,32.54 27.82,32.5 27.76,32.48 C 27.49,32.4 27.41,32.2 27.52,31.88 C 27.54,31.82 27.56,31.8 27.59,31.79 L 27.67,31.8 C 27.72,31.82 27.73,31.86 27.72,31.91 C 27.64,32.27 27.81,32.45 28.22,32.47 C 28.31,32.47 28.38,32.52 28.43,32.59 L 28.53,32.74 Z" fill="rgb(104, 147, 101)"/>
<path d="M 29.029999999999998,32.355 C 28.94,32.43 28.86,32.4 28.78,32.29 C 28.73,32.21 28.73,32.13 28.8,32.06 C 28.9,31.94 29.08,31.89 29.3,31.91 C 29.42,31.92 29.46,31.98 29.42,32.09 A 0.26,0.26 0 0,1 29.27,32.24 L 29.04,32.37 Z" fill="rgb(47, 100, 46)"/>
<path d="M 26.549999999999997,32.505 C 26.28,32.52 26.06,32.46 25.92,32.32 C 25.5,31.92 25.56,31.82 26.12,32.02 C 26.4,32.14 26.68,32.32 26.98,32.56 C 27.01,32.59 27.02,32.62 27,32.66 C 26.99,32.69 26.96,32.71 26.92,32.71 H 26.82 C 26.77,32.7 26.73,32.67 26.72,32.63 A 0.16,0.16 0 0,0 26.56,32.53 Z" fill="rgb(254, 254, 253)"/>
<path d="M 28.029999999999998,31.974999999999998 C 28.12,31.93 28.21,31.95 28.34,32.03 A 0.1,0.1 0 0,1 28.37,32.14 A 0.1,0.1 0 0,1 28.29,32.23 A 0.31,0.31 0 0,1 28.06,32.19 C 27.94,32.13 27.94,32.06 28.04,31.99 Z" fill="rgb(104, 147, 101)"/>
<path d="M 31.74,32.425 C 31.85,32.51 31.98,32.64 32.12,32.84 C 32.22,32.99 32.25,33.13 32.16,33.24 C 32.12,33.31 32.06,33.34 31.98,33.32 A 0.25,0.25 0 0,1 31.79,33.2 C 31.69,33.03 31.58,32.91 31.47,32.83 A 1.4,1.4 0 0,0 31.02,32.65 A 0.24,0.24 0 0,1 30.84,32.51 A 0.19,0.19 0 0,1 30.86,32.31 C 30.94,32.2 31.07,32.17 31.26,32.22 C 31.49,32.29 31.66,32.37 31.76,32.44 Z" fill="rgb(47, 100, 46)"/>
<path d="M 28.52,32.725 A 0.89,0.89 0 0,0 29.01,32.51 A 0.18,0.18 0 0,1 29.21,32.48 L 29.31,32.53 C 29.38,32.57 29.38,32.6 29.31,32.64 C 29.11,32.73 28.96,32.84 28.83,33 C 28.77,33.08 28.7,33.09 28.63,33.04 C 28.55,32.99 28.52,32.89 28.53,32.74 Z" fill="rgb(104, 147, 101)"/>
<path d="M 25.16,32.755 C 25.2,32.77 25.23,32.79 25.25,32.8 C 25.28,32.82 25.3,32.85 25.28,32.89 C 25.16,33.31 25.06,33.52 24.98,33.49 C 24.92,33.48 24.93,33.25 25.02,32.82 C 25.02,32.78 25.05,32.76 25.09,32.76 H 25.17 Z" fill="rgb(254, 254, 253)"/>
<path d="M 25.919999999999998,33.665 C 25.99,33.58 26.06,33.58 26.15,33.64 C 26.2,33.68 26.19,33.75 26.12,33.86 C 26.08,33.93 26.02,33.94 25.95,33.9 C 25.88,33.84 25.87,33.77 25.93,33.68 Z" fill="rgb(104, 147, 101)"/>
<path d="M 29.919999999999998,34.885 C 30.04,34.82 30.19,34.67 30.39,34.47 C 30.65,34.19 30.86,34.01 31.03,33.93 C 31.3,33.79 31.61,33.76 31.98,33.85 C 31.99,33.85 32,33.86 32,33.89 V 33.97 C 32,34.02 31.98,34.04 31.93,34.03 C 31.55,33.99 31.28,34.03 31.11,34.12 C 30.84,34.26 30.5,34.57 30.09,35.04 A 0.24,0.24 0 0,1 29.87,35.13 A 0.88,0.88 0 0,0 29.15,35.38 L 29.02,35.49 C 28.9,35.59 28.88,35.57 28.95,35.44 C 29.12,35.12 29.36,34.96 29.7,34.97 C 29.78,34.97 29.86,34.95 29.93,34.9 Z M 25.7,35.08 C 25.77,35.12 25.86,35.17 26,35.22 C 26.09,35.26 26.1,35.31 26,35.37 C 25.96,35.4 25.91,35.4 25.85,35.36 A 3.85,3.85 0 0,1 25.26,34.82 C 25.08,34.62 24.95,34.53 24.86,34.55 C 24.71,34.59 24.58,34.72 24.48,34.95 A 0.07,0.07 0 0,1 24.41,34.99 C 24.37,34.99 24.35,34.97 24.34,34.94 A 0.7,0.7 0 0,0 24.04,34.52 C 23.95,34.47 23.91,34.42 23.89,34.38 A 0.29,0.29 0 0,1 23.89,34.26 C 23.91,34.15 23.95,34.14 24.02,34.22 C 24.12,34.32 24.22,34.4 24.31,34.45 C 24.37,34.48 24.41,34.47 24.43,34.4 C 24.44,34.34 24.39,34.24 24.27,34.09 C 24.2,34 24.22,33.95 24.33,33.92 C 24.38,33.91 24.44,33.92 24.53,33.94 A 0.1,0.1 0 0,1 24.6,34.02 C 24.61,34.06 24.6,34.1 24.57,34.12 C 24.55,34.15 24.55,34.18 24.54,34.22 C 24.54,34.28 24.57,34.32 24.64,34.32 H 24.92 C 25.02,34.32 25.1,34.35 25.16,34.42 C 25.36,34.66 25.55,34.69 25.71,34.52 C 25.78,34.44 25.86,34.44 25.94,34.51 C 26.02,34.58 26.08,34.71 26.1,34.89 C 26.1,34.94 26.08,34.97 26.04,34.97 H 25.74 C 25.71,34.97 25.7,34.98 25.69,35.01 C 25.68,35.03 25.69,35.06 25.71,35.08 Z" fill="rgb(254, 254, 253)"/>
<path d="M 29.75,35.865 A 0.2,0.2 0 0,1 29.9,35.87 C 30.02,35.92 30.02,35.96 29.88,35.99 A 0.46,0.46 0 0,1 29.47,35.89 C 29.43,35.87 29.41,35.84 29.41,35.81 C 29.41,35.74 29.45,35.72 29.51,35.76 L 29.76,35.88 Z M 30.61,36.46 C 30.71,36.46 30.78,36.43 30.78,36.37 C 30.78,36.32 30.71,36.27 30.62,36.27 S 30.46,36.3 30.45,36.35 C 30.45,36.41 30.52,36.45 30.61,36.45 Z" fill="rgb(176, 194, 174)"/>
<path d="M 30.29,37.845 C 30.18,38.06 30.03,38.25 29.84,38.4 C 29.8,38.44 29.77,38.43 29.74,38.38 V 38.27 C 30.04,38.04 30.22,37.71 30.26,37.29 C 30.29,37.07 30.39,36.92 30.57,36.85 L 31.02,36.67 L 31.55,36.32 C 31.6,36.28 31.65,36.28 31.72,36.32 C 31.82,36.36 31.82,36.4 31.72,36.42 L 31.59,36.46 A 0.22,0.22 0 0,0 31.43,36.6 C 31.33,36.89 31.13,37.02 30.8,37.01 A 0.17,0.17 0 0,0 30.63,37.11 L 30.59,37.19 C 30.55,37.29 30.58,37.33 30.67,37.34 L 31.02,37.36 C 31.19,37.38 31.2,37.43 31.06,37.52 A 2.6,2.6 0 0,1 30.5,37.72 A 0.3,0.3 0 0,0 30.3,37.86 Z" fill="rgb(254, 254, 253)"/>
<path d="M 27.029999999999998,36.515 C 27.09,36.48 27.16,36.48 27.24,36.53 C 27.3,36.55 27.3,36.58 27.26,36.62 C 27.19,36.68 27.11,36.69 27.04,36.64 C 26.99,36.61 26.99,36.57 27.04,36.54 Z" fill="rgb(104, 147, 101)"/>
<path d="M 31.79,37.144999999999996 C 31.62,37.43 31.5,37.68 31.53,37.7 C 31.57,37.72 31.74,37.52 31.93,37.24 C 32.11,36.96 32.23,36.72 32.2,36.7 C 32.17,36.68 32,36.88 31.8,37.16 Z" fill="rgb(254, 254, 253)"/>
</svg>
