<?xml version="1.0" encoding="UTF-8"?>
<!-- generated by Finnhub -->
<svg viewBox="0 0 55.5 55.5" xmlns="http://www.w3.org/2000/svg">
<path d="M 0,0 H 55.5 V 55.5 H 0 Z" fill="rgb(239, 242, 248)"/>
<path d="M 35.99,11.985 L 38.29,16.57 L 35.81,21.11 L 38.42,26 H 43.62 L 41.15,30.5 L 38.29,44 H 33.22 L 30.52,39.37 H 25.45 L 22.72,44 L 19.82,42.07 L 10,30 L 12.61,26 H 17.96 L 20.19,21.2 L 18,16.5 L 36,12 Z M 30.53,30 L 28,26 L 25.47,30 H 30.53 Z"/>
<path d="M 20.439999999999998,11.985 H 36.1 L 33.14,16.5 H 27.96 L 20.16,30 H 15.22 L 17.9,35 H 33.25 L 35.87,39.5 H 20.3 L 22.7,44 H 17.5 L 10,30 H 14.94 L 22.74,16.5 H 18 L 20.45,12 Z M 33.15,16.57 L 30.53,20.97 L 38.33,34.84 L 35.87,39.46 L 38.29,44 L 46,31 L 43.62,26 L 41.03,30.12 L 33.14,16.57 Z" fill="url(#a)"/>
<defs>
<linearGradient id="a" x1="35.69" x2="24.94" y1="12" y2="36.67" gradientUnits="userSpaceOnUse">
<stop stop-color="rgb(138, 161, 152)" offset=".03"/>
<stop stop-color="rgb(193, 217, 190)" offset=".37"/>
<stop stop-color="rgb(242, 209, 174)" offset="1"/>
</linearGradient>
</defs>
</svg>
