<?xml version="1.0" encoding="UTF-8"?>
<!-- generated by Finnhub -->
<svg viewBox="0 0 55.5 55.5" xmlns="http://www.w3.org/2000/svg">
<path d="M 0,0 H 55.5 V 55.5 H 0 Z" fill="rgb(239, 242, 248)"/>
<path d="M 4.99,31.985 L 8,25 H 9 L 12,32 H 11.05 L 8.33,25.5 H 8.71 L 6,32 H 5 Z M 8.5,30 L 8,29 H 10.5 V 30 H 8.5 Z M 14,32 L 10,23 H 11 L 14.85,31.5 H 14.25 L 17,25 H 18 L 15,32 H 14 Z M 19,32 V 25 H 21.62 A 5.3,5.3 0 0,1 23.72,25.26 C 24.14,25.45 24.46,25.73 24.69,26.09 C 24.91,26.46 25.02,26.89 25.02,27.39 C 25.02,27.9 24.92,28.34 24.69,28.7 C 24.46,29.06 23.89,29.51 23.47,29.7 C 23.05,29.9 22.5,30 21.62,30 H 19.52 L 20,29.5 V 32 H 19 Z M 24,32 L 22.29,29.44 H 23.29 L 25,32 H 24 Z M 20,29.5 L 19.53,29 H 22 C 23.13,29 24,28.86 24,27.5 C 24,26.04 23.12,26 22,26 H 19.53 L 20,25.5 V 29.5 Z M 29.5,32 A 3.53,3.53 0 0,1 26.98,31 A 3.36,3.36 0 0,1 26,28.5 A 3.37,3.37 0 0,1 29.5,25 C 30.01,25 30.42,25.07 30.85,25.25 C 31.28,25.42 31.66,25.67 31.98,25.99 A 3.46,3.46 0 0,1 33,28.5 C 33,29.03 32.91,29.44 32.73,29.87 A 3.34,3.34 0 0,1 30.85,31.75 C 30.42,31.92 30.01,32.01 29.5,32.01 Z M 29.5,31 C 30.92,31 32,30.04 32,28.5 C 32,26.94 30.97,26 29.5,26 C 27.96,26 27,26.92 27,28.5 A 2.4,2.4 0 0,0 29.5,31 Z" fill="rgb(28, 65, 136)"/>
<path d="M 33.99,31.985 V 25 H 37 C 37.83,25 38.56,25.16 39,25.48 C 39.45,25.79 39.67,26.22 39.67,26.77 C 39.67,27.14 39.58,27.45 39.4,27.71 C 39.23,27.96 39,28.24 38.7,28.37 C 38.41,28.51 38.34,28.5 38,28.5 V 28 C 38.41,28 38.69,28.16 39,28.37 C 39.58,28.63 40,29.39 40,30 C 40,30.59 39.82,31.2 39.35,31.52 A 3.6,3.6 0 0,1 37.3,32 H 34 Z M 35,31 H 37 C 37.82,31 39,30.96 39,30 S 37.7,29 37,29 H 35 V 28 H 37 C 38.04,28 38.7,27.73 38.7,27 C 38.7,25.98 37.72,26 37,26 H 35 V 31 Z M 42,32 V 25 H 43 V 32 H 42 Z M 47.5,32 C 46.64,32 45.72,31.58 45.09,31 A 3.33,3.33 0 0,1 44,28.5 A 3.33,3.33 0 0,1 45.09,26 C 45.71,25.42 46.63,25 47.5,25 A 3.73,3.73 0 0,1 50.71,27.1 C 50.91,27.53 51,28 51,28.5 A 3.35,3.35 0 0,1 49.91,31.01 C 49.28,31.59 48.36,32 47.5,32 Z M 47.5,31 C 49,31 50,30 50,28.5 C 50,27.11 49,26 47.5,26 S 45,26.95 45,28.5 S 46,31 47.5,31 Z" fill="rgb(212, 19, 118)"/>
</svg>
