<?xml version="1.0" encoding="UTF-8"?>
<!-- generated by Finnhub -->
<svg viewBox="0 0 55.5 55.5" xmlns="http://www.w3.org/2000/svg">
<path d="M 0,0 H 55.5 V 55.5 H 0 Z" fill="rgb(239, 242, 248)"/>
<path d="M 45.99,31.985 V 24 H 48.89 C 50.43,24 51.69,24.87 51.69,26.5 C 51.69,28.14 50.41,29 48.89,29 H 46.69 V 28 H 48.77 C 49.7,28 50.5,27.52 50.5,26.5 C 50.5,25.49 49.7,25 48.76,25 H 47 V 32 H 46 Z M 50,28.4 L 52,32 H 50.85 L 48.88,28.4 H 50 Z M 44,24 V 32 H 43 V 24 H 44 Z M 33,24 H 34 L 36.97,28.56 L 40,24 H 41 V 32 H 40 V 25.94 L 37.14,30 H 36.85 L 34,25.94 V 32 H 33 V 24 Z M 31.5,28 C 31.5,30.2 30.03,32 27.75,32 C 25.47,32 24,30.2 24,28 S 25.47,24 27.75,24 C 30.03,24 31.5,25.8 31.5,28 Z M 30.5,28 C 30.5,26.49 29.4,25 27.75,25 S 25,26.48 25,28 S 26.1,31 27.75,31 S 30.5,29.52 30.5,28 Z M 18,32 V 24 H 19 V 31 H 23 V 32 H 18 Z M 11,32 V 24 H 16 V 25 H 12 V 27.48 H 16 V 28.51 H 12 V 31 H 16 V 32 H 11 Z M 5,25 V 24 H 10 V 25 H 8 V 32 H 7 V 25 H 5 Z" fill="rgb(47, 124, 191)"/>
</svg>
