<?xml version="1.0" encoding="UTF-8"?>
<!-- generated by Finnhub -->
<svg viewBox="0 0 55.5 55.5" xmlns="http://www.w3.org/2000/svg">
<path d="M 0,0 H 55.5 V 55.5 H 0 Z" fill="rgb(239, 242, 248)"/>
<path d="M 7.99,24.985 V 34 H 11 V 25 H 14.43 L 16,22 H 5.52 L 4,25 H 8 Z M 24,25 V 34 H 27 V 25 H 30.43 L 32,22 H 21.52 L 20,25 H 24 Z M 17,22 H 20 V 34 H 17 Z M 39,34 V 22 L 47,27.94 V 22 H 50 V 34 L 42,27.94 V 34 H 39 Z"/>
<path d="M 27.279999999999998,33.985 L 34.19,22 L 35.12,23.67 L 29.16,34 H 27.3 Z M 35.66,24.64 L 30.28,34 H 41.06 L 35.66,24.64 Z" fill="rgb(196, 21, 26)"/>
</svg>
