<?xml version="1.0" encoding="UTF-8"?>
<!-- generated by Finnhub -->
<svg viewBox="0 0 55.5 55.5" xmlns="http://www.w3.org/2000/svg">
<path d="M0 0h55.5v55.5H0z" fill="url(#a)"/>
<path d="M13 27v-6h-3v-2h8v2h-3v6h-2ZM20 27v-8h2v8h-2ZM27.88 27A3.87 3.87 0 0 1 24 23c0-2.24 1.66-4 3.92-4 1.33 0 2.4.5 3.08 1.4l-1.27 1.46a2.14 2.14 0 0 0-1.7-.86c-1.26 0-2.02.8-2.02 2 0 1.17.76 2 2 2 .59 0 1.14-.2 1.71-.7L31 26.02c-.82.65-2.08.98-3.12.98ZM29 25.74V23h2v3.02l-2-.28ZM34.85 22H39v2h-4.15v-2Zm.15 3h4v2h-6v-8h6v2h-4v4ZM41 27v-8h3.47c1.8 0 3.53 1.07 3.53 3s-1.72 3-3.5 3h-2.28l.78-1.07V27h-2Zm4.7 0-1.89-2.91h2.3L48 27h-2.3ZM43 24.17 42.2 23h2.3c.9 0 1.5-.27 1.5-1 0-.74-.62-1-1.53-1H42.2l.81-1.26v4.43ZM20 37v-8h2v8h-2ZM25 37v-8h2v6h4v2h-6Z" fill="rgb(247, 244, 243)"/>
<path d="M8 18h1v20H8z" fill="rgb(230, 102, 98)"/>
<path d="m14 35a2 2 0 1 0 0-4 2 2 0 0 0 0 4zm0 2a4 4 0 1 0 0-8 4 4 0 0 0 0 8z" fill="rgb(247, 244, 243)" fill-rule="evenodd"/>
<defs>
<linearGradient id="a" x1="28" x2="28" y2="56" gradientUnits="userSpaceOnUse">
<stop stop-color="rgb(88, 19, 2)" offset="0"/>
<stop stop-color="rgb(99, 21, 2)" offset=".54"/>
<stop stop-color="rgb(37, 7, 2)" offset="1"/>
</linearGradient>
</defs>
</svg>
