<?xml version="1.0" encoding="UTF-8"?>
<!-- generated by Finnhub -->
<svg viewBox="0 0 55.5 55.5" xmlns="http://www.w3.org/2000/svg">
<path d="M0 0h55.5v55.5H0z" fill="rgb(239, 242, 248)"/>
<path d="M41.35 19.17a14.18 14.18 0 00-11.14-5.39A14.2 14.2 0 1041.43 36.7a16 16 0 11-.08-17.53z"/>
<path d="M27.19 26.5a6 6 0 0111.73.5h2.2c.84 0 1.39-.27 1.14-1.37A12.38 12.38 0 0030.18 16a12.38 12.38 0 00-12.13 9.85c-.24 1.16.8 1.15 1.36 1.15h7.65s.03-.2.13-.5zm-.1 2.5h-7.75c-.57-.02-1.53-.04-1.29 1.15A12.38 12.38 0 0030.18 40a12.38 12.38 0 0012.08-9.63c.25-1.1-.3-1.37-1.14-1.37h-2.2a6 6 0 01-11.84 0z" fill="url(#a)"/>
<circle cx="34" cy="28" r="4" fill="rgb(214, 21, 28)"/>
<defs>
<linearGradient id="a" x1="18.01" x2="42.32" y1="28" y2="28" gradientUnits="userSpaceOnUse">
<stop stop-color="rgb(50, 97, 173)" offset="0"/>
<stop stop-color="rgb(1, 170, 233)" offset="1"/>
</linearGradient>
</defs>
</svg>
