<!-- by Finnhub --><svg xmlns="http://www.w3.org/2000/svg" width="56" height="56" viewBox="0 0 56 56"><path fill="#F0F3FA" d="M0 0h56v56H0z"/><path d="M18 24v-3H7v3h4v11h3V24h4Zm2 11h3V21h-3v14Zm15.77-5.59c-.86.69-2.08 1.03-3.68 1.03H29L29 35h-3V21h6.3c1.45 0 2.6.36 3.47 1.08.86.73 1.3 1.84 1.3 3.36 0 1.65-.44 3.29-1.3 3.97ZM31.87 24H29l.01 3.55h2.88c.87 0 2.12-.14 2.12-1.86 0-1.7-1.33-1.7-2.09-1.69h-.04ZM41 30.5c0 1.34 1.45 1.9 2.5 1.9 1.22 0 2.5-.4 2.5-1.41.03-1.1-1.2-1.45-2.11-1.64l-1.44-.31c-2.16-.49-4.25-1.3-4.25-3.9a3.85 3.85 0 0 1 1.33-2.96c.87-.79 2.15-1.18 3.84-1.18 1.41 0 2.61.37 3.61 1.11.9.67 1.42 1.67 1.54 2.89h-2.89c-.3-1.1-1.5-1.4-2.46-1.4-.72 0-1.94.3-1.97 1.34-.04 1.04.63 1.3 1.97 1.61l2.33.55c1.02.24 1.78.56 2.29.96A3.27 3.27 0 0 1 49 30.78c0 2.91-2.88 4.22-5.4 4.22-1.74 0-3.1-.4-4.1-1.19-1-.79-1.5-1.93-1.5-3.31h3Z" fill="#333"/></svg>