<!-- by Finnhub --><svg width="56" height="56" fill="none" xmlns="http://www.w3.org/2000/svg"><path fill="#F0F3FA" d="M0 0h56v56H0z"/><path fill-rule="evenodd" clip-rule="evenodd" d="M28 44c8.837 0 16-7.163 16-16s-7.163-16-16-16-16 7.163-16 16 7.163 16 16 16zm-5.29-23.266c.314.194.834.563 1.301.903 1.056.768 1.255 1.704.305 2.461-1.78 1.418-4.588 1.654-6.423.27-1.823-1.376-2.693-3.844-.938-5.788 1.033-1.145 2.763-1.884 4.974-1.345 1.47-2.433 5.039-2.876 7.286-1.346 2.372 1.615 1.524 4.48 1.301 4.71l.13.404c2.088 0 2.83 2.168 2.054 3.633-.87 1.643-3.264 2.11-5.214 2.49-.567.11-1.098.213-1.541.336-3.755 1.04-6.942 3.363-6.061 7.671.793 3.881 4.782 5.165 7.774 5.838-.314.024-.683.035-1.09.026-1.515-.034-3.574-.393-5.411-1.288-4.5-2.194-6.098-7.602-2.173-11.036 1.08-.945 2.367-1.64 3.695-2.358.596-.323 1.201-.65 1.8-1.006 1.353-.806 2.439-1.927 1.744-3.364l1.43.404-3.642-2.961c-.39-.27-1.145-.27-1.561.269-.39 0-1.301-.108-1.822-.538-.007.023-.018.048-.029.073-.044.102-.093.215.03.33.056.054.152.107.246.16.153.085.301.168.274.244-.019.052-.175.062-.353.075-.15.01-.316.022-.428.06-.22.074-.13.403-.13.403.65-.044 1.952-.053 2.472.27zm16.029.304C37.653 17.048 31.95 15 28.693 15c2.274.4 5.084 2.122 6.478 4.332 3.894 6.169-4.257 8.32-8.65 9.319-1.27.289-2.538.855-3.424 1.656-2.103 1.902-1.032 4.506 1.93 4.382-.686.497-1.185 1.131-1.222 1.788-.05.903.436 1.85 1.245 2.544 2.106 1.805 5.796.94 7.58-1.182l.814.788c.76.79 1.564 1.166 2.339 1.181 2.106.042 3.994-2.271 4.178-3.806.407-3.413-2.41-5.695-5.43-5.695-5.126.149-4.704 5.683.135 4.513-2.715 2.1-5.852 1.05-6.11-1.312-.226-2.086 2.865-3.529 5.237-4.636.464-.217.901-.421 1.28-.615 1.63-.831 4.752-3.229 3.666-7.22zm-5.913 16.125c.984-.388 2.447-.964 2.24-2.096-.299.449-.82.709-1.347.971-.677.338-1.36.679-1.586 1.429.152-.092.402-.19.693-.304z" fill="url(#paint0_linear_3186)"/><defs><linearGradient id="paint0_linear_3186" x1="28" y1="12" x2="28" y2="44" gradientUnits="userSpaceOnUse"><stop stop-color="#179C3F"/><stop offset="1" stop-color="#105093"/></linearGradient></defs></svg>