<?xml version="1.0" encoding="UTF-8"?>
<!-- generated by Finnhub -->
<svg viewBox="0 0 55.5 55.5" xmlns="http://www.w3.org/2000/svg">
<path d="M 0,0 H 55.5 V 55.5 H 0 Z" fill="rgb(239, 242, 248)"/>
<path d="M 7.49,30.985 C 7.14,31 7,30.8 7,30.46 V 24 H 4.47 C 4.17,24 4,23.78 4,23.5 S 4.18,23 4.47,23 H 10.53 C 10.84,23 11,23.22 11,23.5 C 11,23.77 10.85,24 10.53,24 H 8 V 30.46 C 8,30.79 7.87,31 7.5,31 Z M 11.5,31 A 0.61,0.61 0 0,1 11.15,30.91 A 0.36,0.36 0 0,1 11,30.67 C 10.99,30.57 11.01,30.45 11.08,30.32 L 14.35,23.45 A 0.73,0.73 0 0,1 14.63,23.11 A 0.66,0.66 0 0,1 15.36,23.11 C 15.47,23.18 15.56,23.29 15.65,23.45 L 18.92,30.32 A 0.6,0.6 0 0,1 19,30.68 C 18.99,30.78 18.94,30.86 18.86,30.92 A 0.61,0.61 0 0,1 18.53,31 A 0.61,0.61 0 0,1 18.14,30.89 C 18.04,30.81 17.96,30.69 17.89,30.54 L 17.04,28.7 L 17.56,29 H 12.42 L 12.94,28.7 L 12.08,30.54 A 0.98,0.98 0 0,1 11.84,30.9 C 11.76,30.97 11.64,31 11.5,31 Z M 14.98,24.25 L 13.1,28.35 L 12.82,28 H 17.16 L 16.88,28.35 L 15,24.25 H 14.98 Z M 20.52,31 C 20.2,31 20,30.8 20,30.46 V 23.53 C 20,23.18 20.18,23 20.5,23 C 20.85,23 21,23.18 21,23.53 V 30 H 24.54 C 24.85,30 25,30.18 25,30.46 C 25,30.75 24.86,31 24.54,31 H 20.52 Z M 26.55,31 C 26.2,31 26,30.8 26,30.43 V 23.57 C 26,23.2 26.2,23 26.55,23 H 30.56 C 30.84,23 31,23.23 31,23.5 C 31,23.78 30.85,24.01 30.56,24.01 H 27 V 26.5 H 30.5 C 30.78,26.5 31,26.73 31,27 A 0.5,0.5 0 0,1 30.5,27.5 H 27 V 30 H 30.56 C 30.84,30 31,30.21 31,30.5 C 31,30.77 30.85,31 30.56,31 H 26.55 Z M 34.5,31 C 34.23,31 34,30.82 34,30.5 V 23.52 C 34,23.35 34.04,23.22 34.12,23.13 A 0.38,0.38 0 0,1 34.42,23 C 34.54,23 34.62,23.02 34.69,23.07 C 34.76,23.11 34.83,23.19 34.9,23.3 L 39.35,29.55 H 39 V 23.5 C 39,23.16 39.22,23 39.5,23 C 39.79,23 40,23.17 40,23.5 V 30.5 C 40,30.66 39.96,30.78 39.88,30.87 A 0.34,0.34 0 0,1 39.6,31 A 0.5,0.5 0 0,1 39.32,30.92 A 0.84,0.84 0 0,1 39.1,30.69 L 34.66,24.44 H 35 V 30.5 C 35,30.81 34.8,31 34.5,31 Z"/>
<path d="M 40.99,25.995 C 43.33,25.85 48.7,24.81 51.5,22 C 50.67,23.84 47.4,27.22 41,26.01 Z" fill="url(#d)"/>
<path d="M 41.99,27.505 C 44,28.02 48.6,28.42 51,26.02 C 50.83,27.69 48.8,30.33 42,27.52 Z" fill="url(#c)"/>
<path d="M 42.99,28.505 C 44.67,29.02 48.4,29.82 50,29.02 C 49.33,29.86 47,30.93 43,28.52 Z" fill="url(#b)"/>
<path d="M 41.49,26.505 C 43.67,27.02 48.8,27.12 52,23.51 C 51.33,25.51 48.3,28.92 41.5,26.51 Z" fill="url(#a)"/>
<path d="M 26.31,35.985 A 0.34,0.34 0 0,1 26.08,35.93 A 0.26,0.26 0 0,1 26,35.73 V 32.28 C 26,32.18 26.03,32.12 26.08,32.08 A 0.34,0.34 0 0,1 26.32,32 H 28.64 C 28.72,32 28.78,32.02 28.83,32.06 C 28.87,32.09 28.9,32.14 28.9,32.2 C 28.9,32.27 28.87,32.33 28.83,32.37 C 28.78,32.4 28.73,32.42 28.64,32.42 H 26.57 V 33.76 H 28.51 C 28.59,33.76 28.65,33.78 28.69,33.81 A 0.2,0.2 0 0,1 28.76,33.97 C 28.76,34.04 28.74,34.09 28.69,34.13 A 0.3,0.3 0 0,1 28.51,34.18 H 26.57 V 35.58 H 28.64 C 28.72,35.58 28.78,35.6 28.83,35.63 C 28.87,35.67 28.9,35.72 28.9,35.79 S 28.87,35.91 28.83,35.95 A 0.3,0.3 0 0,1 28.64,36 H 26.32 Z M 30.23,35.99 C 30.06,35.99 30,35.89 30,35.74 V 32.27 C 30,32.1 30.06,32.01 30.2,32.01 C 30.35,32.01 30.4,32.05 30.5,32.16 L 33.1,35.27 H 33 V 32.26 C 33,32.09 33.06,32.01 33.23,32.01 S 33.5,32.09 33.5,32.26 V 35.74 C 33.5,35.89 33.4,35.99 33.26,35.99 C 33.13,35.99 33.06,35.95 32.96,35.83 L 30.36,32.73 H 30.5 V 35.74 C 30.5,35.89 30.4,35.99 30.23,35.99 Z M 34.7,36 A 0.34,0.34 0 0,1 34.47,35.93 A 0.26,0.26 0 0,1 34.39,35.73 V 32.28 C 34.39,32.18 34.42,32.12 34.47,32.08 A 0.34,0.34 0 0,1 34.71,32 H 37.03 C 37.11,32 37.17,32.02 37.22,32.06 C 37.26,32.09 37.29,32.14 37.29,32.2 C 37.29,32.27 37.26,32.33 37.22,32.37 C 37.17,32.4 37.12,32.42 37.03,32.42 H 35 V 33.76 H 36.9 C 36.98,33.76 37.04,33.78 37.08,33.81 A 0.2,0.2 0 0,1 37.15,33.97 C 37.15,34.04 37.13,34.09 37.08,34.13 A 0.3,0.3 0 0,1 36.9,34.18 H 35 V 35.58 H 37.03 C 37.11,35.58 37.17,35.6 37.22,35.63 C 37.26,35.67 37.29,35.72 37.29,35.79 S 37.26,35.91 37.22,35.95 A 0.3,0.3 0 0,1 37.03,36 H 34.71 Z M 38.3,36 C 38.1,36 38,35.89 38,35.72 V 32.26 C 38,32.18 38.03,32.11 38.08,32.06 A 0.34,0.34 0 0,1 38.3,32 H 39.8 C 40.76,32 41.3,32.41 41.3,33.18 C 41.3,34.01 40.51,34.31 39.8,34.31 L 39.87,34.23 H 40 A 0.83,0.83 0 0,1 40.78,34.69 L 41.36,35.63 C 41.47,35.81 41.36,36 41.16,36 C 40.98,36 40.89,35.92 40.82,35.8 L 40.14,34.7 A 0.69,0.69 0 0,0 39.82,34.4 A 1.2,1.2 0 0,0 39.35,34.32 H 38.59 V 35.72 C 38.59,35.89 38.51,36 38.29,36 Z M 38.59,33.93 H 39.71 C 40.38,33.93 40.71,33.67 40.71,33.2 C 40.71,32.67 40.38,32.42 39.71,32.42 H 38.59 V 33.92 Z M 44.37,36 C 43.14,36 42.15,35.3 42.15,34 C 42.15,32.74 43.1,32 44.32,32 C 44.84,32 45.34,32.11 45.75,32.39 C 45.8,32.42 45.83,32.46 45.84,32.5 A 0.2,0.2 0 0,1 45.84,32.64 A 0.24,0.24 0 0,1 45.77,32.75 A 0.23,0.23 0 0,1 45.64,32.81 A 0.3,0.3 0 0,1 45.47,32.77 C 45.13,32.55 44.77,32.46 44.32,32.46 C 43.37,32.46 42.77,33.06 42.77,34 C 42.77,35.02 43.33,35.55 44.39,35.55 C 44.79,35.55 45.17,35.48 45.51,35.35 L 45.38,35.63 V 34.4 H 44.53 A 0.29,0.29 0 0,1 44.34,34.34 A 0.19,0.19 0 0,1 44.28,34.19 C 44.28,34.13 44.3,34.09 44.34,34.05 A 0.3,0.3 0 0,1 44.53,34 H 45.64 C 45.72,34 45.78,34.02 45.82,34.06 C 45.87,34.09 45.89,34.15 45.89,34.22 V 35.54 A 0.3,0.3 0 0,1 45.85,35.7 A 0.22,0.22 0 0,1 45.73,35.78 A 4.4,4.4 0 0,1 44.37,36 Z M 48.2,35.99 A 0.32,0.32 0 0,1 47.98,35.92 C 47.93,35.87 47.9,35.81 47.9,35.72 V 33.93 L 48.03,34.27 L 46.46,32.37 A 0.25,0.25 0 0,1 46.4,32.21 C 46.4,32.15 46.43,32.11 46.47,32.07 A 0.3,0.3 0 0,1 46.67,32.01 A 0.37,0.37 0 0,1 46.97,32.18 L 48.28,33.75 H 48.13 L 49.43,32.18 A 0.4,0.4 0 0,1 49.58,32.05 C 49.62,32.02 49.68,32.01 49.75,32.01 C 49.83,32.01 49.89,32.03 49.93,32.07 C 49.98,32.1 50,32.14 50,32.2 C 50,32.25 49.98,32.31 49.93,32.37 L 48.36,34.27 L 48.49,33.93 V 35.72 C 48.49,35.9 48.39,35.99 48.19,35.99 Z"/>
<defs>
<linearGradient id="d" x1="51.5" x2="41.99" y1="22" y2="25.99" gradientUnits="userSpaceOnUse">
<stop stop-color="rgb(144, 190, 64)" offset="0"/>
<stop stop-color="rgb(67, 136, 48)" offset="1"/>
</linearGradient>
<linearGradient id="c" x1="43" x2="50.5" y1="28.02" y2="27.52" gradientUnits="userSpaceOnUse">
<stop stop-color="rgb(153, 184, 30)" offset="0"/>
<stop stop-color="rgb(45, 119, 57)" offset="1"/>
</linearGradient>
<linearGradient id="b" x1="43.5" x2="49" y1="29.02" y2="29.52" gradientUnits="userSpaceOnUse">
<stop stop-color="rgb(153, 184, 30)" offset="0"/>
<stop stop-color="rgb(247, 200, 33)" offset="1"/>
</linearGradient>
<linearGradient id="a" x1="52" x2="42.49" y1="23.51" y2="27" gradientUnits="userSpaceOnUse">
<stop stop-color="rgb(245, 202, 59)" offset="0"/>
<stop stop-color="rgb(225, 199, 41)" offset=".53"/>
<stop stop-color="rgb(171, 192, 60)" offset="1"/>
</linearGradient>
</defs>
</svg>
