<?xml version="1.0" encoding="UTF-8"?>
<!-- generated by Finnhub -->
<svg viewBox="0 0 55.5 55.5" xmlns="http://www.w3.org/2000/svg">
<path d="M 0,0 H 55.5 V 55.5 H 0 Z" fill="rgb(239, 242, 248)"/>
<path d="M 27.99,43.985 A 16,16 0 1,0 28,12 A 16,16 0 0,0 28,44 Z M 28,45 A 17,17 0 1,0 28,11 A 17,17 0 0,0 28,45 Z" fill="rgb(31, 31, 30)" fill-rule="evenodd"/>
<circle cx="28" cy="28" r="15" fill="url(#a)"/>
<path d="M 20.49,27.985 C 23.3,27.6 24.33,31.83 24.5,34 C 24,31.5 22.5,28.65 21,28.5 C 19.5,28.35 19,30 19,31 C 19,31.8 20,31.67 20.5,31.5 C 20.67,31.83 20.7,32.6 19.5,33 C 18,33.5 17,28.5 20.5,28 Z" fill="rgb(1, 107, 171)"/>
<path d="M 22.49,32.485 C 22.5,31.3 21.83,31 21.5,31 C 22,31.5 22.5,35.5 20,35.5 S 17.5,32.5 17.5,31.5 S 18,25.5 22,25.5 C 25.2,25.5 26.67,31.83 27,35 C 27.5,31 24.5,24 21.5,24 S 17,29 17,31.5 S 18.5,36 20,36 S 22.5,34 22.5,32.5 Z" fill="rgb(1, 107, 171)"/>
<path d="M 21.99,20.485 C 25.2,20.5 27,26.17 27.5,29 C 26.5,23.5 23,21.5 21.5,21.5 S 20.5,22.5 20,22.5 S 18,20.5 22,20.5 Z" fill="rgb(1, 107, 171)"/>
<path d="M 23.99,18.985 C 28,19 28.33,24.67 28,27.5 C 27.5,23 25.5,20.5 24.5,20 C 23.7,19.6 23.83,19.17 24,19 Z M 30,21 C 29.6,21.8 29.17,25 29,26.5 C 28.5,21 30.5,18 31.5,18.5 S 30.5,20 30,21 Z M 35,21 C 30.6,21.4 29.17,27.17 29,30 C 29.5,25 33.5,22 35,22 C 36.2,22 36.5,22.67 36.5,23 C 37.3,21.8 35.83,21.17 35,21 Z" fill="rgb(1, 107, 171)"/>
<path d="M 29.4,33.995 C 29.39,29.97 30.27,24.34 34,24 C 39.5,23.5 39,31 39,32 S 39,35.5 37,35.5 S 34,30.5 35,30.5 S 35.17,32 35.5,33 C 35.83,34 36,34.5 37,34.5 C 38.78,34.5 39.5,24 34,25 C 30.36,25.66 29.43,30.48 29.41,34.01 Z" fill="rgb(1, 107, 171)"/>
<path d="M 34.49,26.985 C 30.9,27.4 30.67,32.5 31,35 C 31,32 32.2,28.3 34.5,28 C 36.35,27.76 36.6,29.57 36.5,30.5 C 37.3,27.3 35.5,26.83 34.5,27 Z" fill="rgb(1, 107, 171)"/>
<defs>
<linearGradient id="a" x1="28" x2="28" y1="13" y2="43" gradientUnits="userSpaceOnUse">
<stop stop-color="rgb(80, 192, 228)" offset="0"/>
<stop stop-color="rgb(2, 168, 229)" offset="1"/>
</linearGradient>
</defs>
</svg>
