<!-- by Finnhub --><svg width="56" height="56" viewBox="0 0 56 56" xmlns="http://www.w3.org/2000/svg"><path fill="#181B1E" d="M0 0h56v56H0z"/><path d="M12 15a15 15 0 0 1 15 15H13.85A1.85 1.85 0 0 1 12 28.15V15ZM18 42c4.97 0 9-4.92 9-11h-7.9c-.6 0-1.1.6-1.1 1.35V42ZM12 36a5 5 0 0 1 5-5v4a1 1 0 0 1-1 1h-4ZM12 37a5 5 0 0 0 5 5v-4a1 1 0 0 0-1-1h-4ZM44 15a15 15 0 0 0-15 15h13.15c1.02 0 1.85-.83 1.85-1.85V15ZM38 42c-4.97 0-9-4.92-9-11h7.9c.6 0 1.1.6 1.1 1.35V42ZM44 36a5 5 0 0 0-5-5v4a1 1 0 0 0 1 1h4ZM44 37a5 5 0 0 1-5 5v-4a1 1 0 0 1 1-1h4Z" fill="#0000F5"/></svg>