<?xml version="1.0" encoding="UTF-8"?>
<!-- generated by Finnhub -->
<svg viewBox="0 0 55.5 55.5" xmlns="http://www.w3.org/2000/svg">
<path d="M 0,0 H 55.5 V 55.5 H 0 Z" fill="rgb(239, 242, 248)"/>
<path d="M 24.919999999999998,10.985 L 15.96,12.17 L 12.5,20.42 L 18.01,27.49 L 19.71,27.27 L 19.49,23.52 L 27.06,18.62 L 29.66,19.92 L 30.44,18.08 L 24.93,11 Z M 33.19,33.14 L 35.65,31.54 L 35.14,22.64 L 31.91,21.04 L 32.51,19.59 L 41.49,18.42 L 47,25.49 L 43.54,33.74 L 34.57,34.91 L 33.19,33.14 Z M 19.86,29.93 L 20.01,32.43 L 28.09,36.44 L 31.14,34.47 L 32.4,36.08 L 28.94,44.33 L 19.97,45.5 L 14.45,38.42 L 17.91,30.18 L 19.86,29.93 Z" fill="rgb(18, 103, 167)"/>
</svg>
