<?xml version="1.0" encoding="UTF-8"?>
<!-- generated by Finnhub -->
<svg viewBox="0 0 55.5 55.5" xmlns="http://www.w3.org/2000/svg">
<path d="M0 0h55.5v55.5H0z" fill="url(#a)"/>
<path d="m17 40 3.31-24h4.42L28 40h-3.57l-.59-5h-2.57l-.61 5H17Zm4.61-8h1.86l-.93-9.6-.93 9.6ZM29 40l3.31-24h4.42L40 40h-3.57l-.59-5h-2.57l-.61 5H29Zm4.61-8h1.86l-.93-9.6-.93 9.6ZM10 40V20H8v-4h8v4h-2v20h-4ZM42 40V20h-2v-4h8v4h-2v20h-4Z" fill="rgb(239, 242, 248)"/>
<defs>
<linearGradient id="a" x1="10.42" x2="68.15" y1="9.71" y2="76.02" gradientUnits="userSpaceOnUse">
<stop stop-color="rgb(25, 29, 31)" offset="0"/>
<stop stop-color="rgb(5, 5, 8)" offset="1"/>
</linearGradient>
</defs>
</svg>
