<?xml version="1.0" encoding="UTF-8"?>
<!-- generated by Finnhub -->
<svg viewBox="0 0 55.5 55.5" xmlns="http://www.w3.org/2000/svg">
<path d="M 0,0 H 55.5 V 55.5 H 0 Z" fill="rgb(239, 242, 248)"/>
<path d="M 8.49,16.985 V 24 H 7 V 17 H 8.5 Z M 10,24 V 19 H 11.5 V 19.94 C 11.7,19.36 12.02,19 12.67,19 C 13.33,19 13.82,19.36 13.98,19.94 H 14.03 C 14.24,19.32 14.86,19 15.48,19 C 16.45,19 17,19.77 17,20.68 V 24 H 15.5 V 20.95 C 15.5,20.4 15.35,20.13 14.92,20.13 C 14.44,20.13 14.15,20.47 14.15,20.99 V 24 H 12.85 V 20.92 C 12.85,20.44 12.56,20.12 12.12,20.12 C 11.62,20.12 11.5,20.58 11.5,21.04 V 24 H 10 Z M 18,26 V 19 H 19.5 V 19.78 C 19.76,19.3 20.26,19 20.92,19 C 22.42,19 23,20.48 23,21.5 S 22.41,24 20.92,24 C 20.27,24 19.76,23.72 19.5,23.24 V 26 H 18 Z M 19.5,21.5 C 19.5,22.04 19.64,23.05 20.47,23.05 S 21.55,22.04 21.55,21.49 C 21.55,20.95 21.3,20 20.47,20 C 19.78,20 19.5,20.73 19.5,21.5 Z M 33,45 V 38 H 34.5 V 38.78 C 34.76,38.3 35.26,38 35.92,38 C 37.42,38 38,39.48 38,40.5 S 37.41,43 35.92,43 C 35.27,43 34.76,42.72 34.5,42.24 V 45 H 33 Z M 34.5,40.5 C 34.5,41.04 34.64,42.05 35.47,42.05 S 36.55,41.04 36.55,40.49 C 36.55,39.95 36.3,39 35.47,39 C 34.78,39 34.5,39.73 34.5,40.5 Z M 31,27 V 34 H 29.5 V 33.22 C 29.24,33.7 28.74,34 28.08,34 C 26.58,34 26,32.52 26,31.5 S 26.59,29 28.08,29 C 28.73,29 29.24,29.28 29.5,29.76 V 27 H 31 Z M 29.5,31.5 C 29.5,30.96 29.36,29.95 28.53,29.95 S 27.45,30.96 27.45,31.51 C 27.45,32.05 27.7,33 28.53,33 C 29.22,33 29.5,32.27 29.5,31.5 Z M 26.6,24 C 25.1,24 24,23.03 24,21.5 C 24,20.03 25.08,19 26.54,19 C 27.99,19 29,20 29,21.46 V 21.83 H 24.58 V 21 H 27.63 C 27.63,20.4 27.07,20 26.5,20 C 25.9,20 25.44,20.43 25.43,21.04 V 21.84 C 25.43,22.53 25.93,23 26.63,23 C 27.03,23 27.46,22.84 27.63,22.44 L 28.97,22.52 C 28.72,23.59 27.59,24 26.6,24 Z M 30,24 V 19 H 31.46 V 19.93 H 31.51 C 31.69,19.32 32.01,19 32.57,19 A 2,2 0 0,1 33,19.05 V 20.26 C 32.87,20.22 32.6,20.19 32.42,20.19 C 31.83,20.19 31.5,20.62 31.5,21.21 V 24 H 30 Z M 29,43 V 38 H 30.46 V 38.93 H 30.51 C 30.69,38.32 31.01,38 31.57,38 A 2,2 0 0,1 32,38.05 V 39.26 C 31.87,39.22 31.6,39.19 31.42,39.19 C 30.83,39.19 30.5,39.62 30.5,40.21 V 43 H 29 Z M 35.38,24 C 34.54,24 33.84,23.45 33.84,22.56 C 33.84,21.55 34.72,21.07 35.59,20.99 C 35.86,20.96 36.49,20.88 36.49,20.49 S 36.39,20 36.02,20 C 35.56,20 35.28,20.18 35.19,20.48 L 34,20.38 C 34.2,19.43 35.12,19 36.03,19 C 37,19 38,19.49 38,20.58 V 24 H 36.5 V 23.32 H 36.46 C 36.2,23.83 35.94,24 35.38,24 Z M 35.75,23.1 C 36.25,23.1 36.5,22.6 36.5,22.06 V 21.56 C 36.25,21.73 36.1,21.74 35.82,21.78 C 35.48,21.83 35,22.1 35,22.51 C 35,22.87 35.36,23.11 35.75,23.11 Z M 40.5,17 V 24 H 39 V 17 H 40.5 Z M 43.5,19 V 24 H 42 V 19 H 43.5 Z M 48.9,20.44 L 47.77,20.52 C 47.7,20.16 47.37,19.95 47.02,19.95 C 46.74,19.95 46.42,20.09 46.42,20.43 C 46.42,21.42 49,20.8 49,22.4 C 49,23.47 47.97,24 47.02,24 C 46.06,24 45.13,23.54 45,22.5 L 46.21,22.43 C 46.29,22.83 46.52,23.03 46.96,23.03 S 47.5,22.83 47.5,22.54 C 47.5,21.72 45.12,22.07 45.12,20.51 C 45.12,19.47 46.08,19 47,19 C 47.93,19 48.78,19.46 48.9,20.44 Z M 10,34 V 27 H 11.5 V 30 H 14.51 V 27 H 16 V 34 H 14.51 V 31 H 11.5 V 34 H 10 Z M 19.5,34 A 2.4,2.4 0 0,1 17,31.5 A 2.4,2.4 0 0,1 19.5,29 A 2.4,2.4 0 0,1 22,31.5 A 2.4,2.4 0 0,1 19.5,34 Z M 19.5,33 C 20.21,33 20.5,32.33 20.5,31.5 C 20.5,30.83 20.29,30 19.5,30 C 18.72,30 18.5,30.82 18.5,31.5 C 18.5,32.17 18.72,33 19.5,33 Z M 25.5,43 A 2.4,2.4 0 0,1 23,40.5 A 2.4,2.4 0 0,1 25.5,38 A 2.4,2.4 0 0,1 28,40.5 A 2.4,2.4 0 0,1 25.5,43 Z M 25.5,42 C 26.21,42 26.5,41.33 26.5,40.5 C 26.5,39.83 26.29,39 25.5,39 C 24.72,39 24.5,39.82 24.5,40.5 C 24.5,41.17 24.72,42 25.5,42 Z M 24.5,27 V 34 H 23 V 27 H 24.5 Z M 36.5,31.45 V 34 H 35 V 29 H 36.5 V 29.66 C 36.76,29.14 36.86,29 37.5,29 C 38.42,29 39,29.77 39,30.74 V 34 H 37.5 V 31.4 C 37.5,30.84 37.5,30.5 37.03,30.5 C 36.52,30.5 36.51,30.91 36.5,31.45 Z M 42.5,36 C 41.56,36 40.39,35.66 40.16,34.62 L 41.47,34.44 C 41.64,34.87 42.11,35.01 42.53,35.01 C 43.13,35.01 43.51,34.7 43.51,34.06 V 33.16 H 43.45 C 43.19,33.72 42.67,34 42.08,34 C 40.69,34 40,32.82 40,31.54 C 40,30.28 40.67,29 42.07,29 C 42.71,29 43.17,29.32 43.45,29.9 H 43.5 V 29 H 45 V 34.08 C 45,35.46 43.7,36 42.5,36 Z M 42.53,32.96 C 43.3,32.96 43.5,32.21 43.5,31.53 C 43.5,30.65 43.21,30 42.53,30 C 41.75,30 41.5,30.86 41.5,31.53 C 41.5,32.21 41.75,32.96 42.53,32.96 Z M 22,38.31 H 20.57 A 1.48,1.48 0 0,0 19.14,37 C 18.11,37 17.5,38.08 17.5,39.5 C 17.5,40.72 18.02,42 19.13,42 C 19.77,42 20.43,41.54 20.57,40.74 L 22,40.75 C 21.8,42.37 20.37,43 19.1,43 C 17.34,43 16,41.6 16,39.5 C 16,37.41 17.35,36 19.1,36 C 20.44,36 21.8,36.64 22,38.31 Z M 40,43 A 0.97,0.97 0 0,1 39.3,42.7 A 0.98,0.98 0 0,1 39,42 C 39,41.72 39.1,41.49 39.3,41.3 A 0.97,0.97 0 0,1 40.7,41.3 A 0.97,0.97 0 0,1 40.86,42.5 C 40.76,42.65 40.65,42.77 40.5,42.87 A 0.95,0.95 0 0,1 40,43 Z"/>
<circle cx="42.76" cy="16.76" r=".76"/>
<path d="M 33.49,28.985 V 34 H 32 V 29 H 33.5 Z"/>
<circle cx="32.76" cy="27.76" r=".76"/>
</svg>
