<?xml version="1.0" encoding="UTF-8"?>
<!-- generated by Finnhub -->
<svg viewBox="0 0 55.5 55.5" xmlns="http://www.w3.org/2000/svg">
<path d="M 0,0 H 55.5 V 55.5 H 0 Z" fill="rgb(214, 1, 40)"/>
<path d="M 42.99,13.985 V 41.986 H 29.46 C 38.438,30.928 38.75,24.874 38.75,21.256 C 38.75,17.927 36.942,14.65 33.825,14.466 C 31.331,14.318 29.253,15.553 28.525,16.189 C 34.061,16.681 34.974,21.499 34.76,23.51 C 33.513,35.225 25.221,40.41 21.231,41.538 C 17.719,42.522 10.757,42.584 11.006,34.954 C 11.256,27.324 16.056,22.218 18.426,20.619 V 22.587 C 13.5,28.987 13.01,41.179 20.305,40.317 C 27.599,39.456 31.019,30.217 31.081,24.557 C 31.131,20.027 28.066,18.032 26.527,17.601 L 22.657,21.256 V 14 H 43 Z" fill="rgb(254, 254, 253)"/>
</svg>
