<!-- by Finnhub --><svg width="56" height="56" viewBox="0 0 56 56" xmlns="http://www.w3.org/2000/svg"><path fill="#F0F3FA" d="M0 0h56v56H0z"/><path d="M21.84 22 28 11l6.16 11h-1.15L28 13.05 22.99 22h-1.15Zm-5.04 9L14 36h28l-2.8-5h-1.15l2.24 4H15.71l2.24-4H16.8ZM11 24v.58H9.34V29H8.6v-4.42H7V24h4ZM15.92 29l-1.32-2h-.88v2H13v-5h1.8c.88 0 1.92.46 1.92 1.5 0 .77-.61 1.27-1.32 1.4l1.39 2.1h-.87Zm-2.2-2.56h1.07c.8 0 1.18-.37 1.18-.94s-.38-.91-1.18-.91h-1.07v1.85ZM19.72 24v5H19v-5h.72ZM25 24v.58h-2.28v1.65H25v.52h-2.28V29H22v-5h3ZM27.72 24.58v1.64H30v.53h-2.28v1.68H30V29h-3v-5h3v.58h-2.28ZM31.64 26.5c0-.47.12-.9.37-1.28.24-.38.57-.68.99-.9.42-.21.9-.32 1.4-.32.61 0 1.14.13 1.6.39.44.25.77.62.98 1.1h-.87a1.6 1.6 0 0 0-.67-.69 2.1 2.1 0 0 0-1.03-.24c-.39 0-.74.08-1.04.24-.31.16-.55.39-.73.68-.17.3-.26.63-.26 1.03a1.79 1.79 0 0 0 .99 1.7c.3.16.65.24 1.04.24.4 0 .75-.08 1.03-.24.3-.16.52-.38.67-.68h.87c-.2.47-.54.83-.99 1.1-.45.24-.98.37-1.58.37-.52 0-.99-.1-1.41-.32a2.54 2.54 0 0 1-1-.89c-.24-.38-.36-.8-.36-1.28ZM42.5 24v.58h-1.51V29h-.73v-4.42H38.5V24h4ZM47.79 27.87h-2.42L44.93 29h-.77l2-5H47l2 5h-.76l-.45-1.13Zm-.2-.52-1-2.47-1.01 2.47h2Z" fill="#1D191A"/><path d="M16.06 38.18a1.21 1.21 0 0 0-1.15-.72c-.87 0-1.4.72-1.4 1.54 0 .82.53 1.53 1.4 1.53.74 0 1.26-.54 1.33-1.27h-1.51v-.41h2.04v.4a1.9 1.9 0 0 1-1.86 1.74C13.8 41 13 40.08 13 39s.8-2 1.9-2c.79 0 1.48.44 1.75 1.18h-.59ZM19.88 41c-1.11 0-1.9-.92-1.9-2s.8-2 1.9-2c1.11 0 1.9.92 1.9 2s-.79 2-1.9 2Zm0-.44c.87 0 1.4-.74 1.4-1.56 0-.82-.53-1.56-1.4-1.56-.87 0-1.4.74-1.4 1.56 0 .82.53 1.56 1.4 1.56ZM23.5 40.54H25v.45L23 41v-4h.5v3.54ZM27.18 37c1.17 0 2.02.83 2.02 2.01 0 1.2-.85 1.99-2.02 1.99H26v-4h1.18Zm0 3.54c.99 0 1.51-.57 1.51-1.53 0-.97-.53-1.55-1.5-1.55h-.7v3.08h.7ZM33.5 40.54H35v.45L33 41v-4h.5v3.54ZM38.53 37v.46H37.5V41H37v-3.54h-1V37h2.53ZM40.98 37c1.17 0 2.02.83 2.02 2.01 0 1.2-.85 1.99-2.02 1.99H40v-4h.98Zm0 3.54c.99 0 1.51-.57 1.51-1.53 0-.97-.53-1.55-1.5-1.55h-.5v3.08h.5Z"/></svg>