<?xml version="1.0" encoding="UTF-8"?>
<!-- generated by Finnhub -->
<svg viewBox="0 0 55.5 55.5" xmlns="http://www.w3.org/2000/svg">
<path d="M 0,0 H 55.5 V 55.5 H 0 Z" fill="rgb(225, 31, 36)"/>
<path d="M 24.669999999999998,12.985 A 9.67,9.67 0 0,0 15,22.66 V 38.96 A 3,3 0 1,0 21,38.96 V 22.94 A 3.94,3.94 0 0,1 24.94,19 H 31.06 A 3.94,3.94 0 0,1 35,22.94 V 38.96 A 3,3 0 1,0 41,38.96 V 22.66 A 9.67,9.67 0 0,0 31.32,13 H 24.68 Z M 31,25 A 3,3 0 1,1 25,25 A 3,3 0 0,1 31,25 Z M 28,38 C 29.66,38 31,36.43 31,34.5 S 29.66,31 28,31 S 25,32.57 25,34.5 S 26.34,38 28,38 Z" fill="rgb(254, 254, 253)"/>
</svg>
