<?xml version="1.0" encoding="UTF-8"?>
<!-- generated by Finnhub -->
<svg viewBox="0 0 55.5 55.5" xmlns="http://www.w3.org/2000/svg">
<path d="M 0,0 H 55.5 V 55.5 H 0 Z" fill="rgb(239, 242, 248)"/>
<path d="M 9.99,35.985 H 26 V 37 H 10 V 36 Z" fill="rgb(37, 58, 129)"/>
<path d="M 41.96,29.724999999999998 C 42.97,30.47 44.49,30.94 44.57,30.77 C 44.6,30.72 44.5,30.66 44.35,30.55 A 3.08,3.08 0 0,1 43.01,28.77 A 2.03,2.03 0 0,1 42.96,28.4 C 42.94,28.2 42.92,28 42.79,27.8 C 42.74,27.7 42.67,27.65 42.6,27.6 A 0.8,0.8 0 0,1 42.41,27.4 A 0.76,0.76 0 0,1 42.31,27.11 C 42.3,27.01 42.28,26.91 42.21,26.81 C 41.94,26.47 41.15,26.18 40.64,26.36 C 40.27,26.49 39.7,26.9 39.91,27.08 C 39.97,27.13 40.07,27.06 40.2,26.96 C 40.39,26.82 40.65,26.63 40.96,26.67 L 41.29,26.7 C 41.57,26.71 41.81,26.72 42.04,26.96 C 42.22,27.14 42.24,27.34 42.25,27.56 C 42.27,27.71 42.28,27.86 42.34,28.02 C 42.42,28.25 42.44,28.4 42.46,28.63 V 28.67 L 42.48,28.83 C 42.51,28.99 42.53,29.15 42.48,29.16 C 42.37,29.18 42.32,29.1 42.25,28.97 A 1.24,1.24 0 0,0 41.85,28.51 C 41.31,28.16 40.45,27.97 40.39,28.05 C 40.27,28.15 40.99,29.04 41.97,29.74 Z M 38.62,22.8 V 22.72 C 38.64,22.42 38.6,21.91 38.49,21.97 C 38.39,21.94 38.12,23.13 38.3,23.23 L 38.4,23.27 C 38.6,23.3 38.6,23.03 38.62,22.8 Z M 43.72,27.87 C 44.9,29.24 45.77,30.25 47.21,31.86 C 47.71,32.43 48.19,32.99 47.92,33.72 C 47.72,34.27 47.53,34.47 46.76,34.65 C 46.55,34.69 46.4,34.81 46.24,34.92 C 46.07,35.06 45.9,35.19 45.64,35.22 C 45.21,35.29 44.94,35.22 44.54,35.06 C 44.32,34.97 44.18,34.86 44.04,34.73 A 1.82,1.82 0 0,0 43.59,34.43 C 43.26,34.27 43.03,34.23 42.7,34.16 L 42.58,34.14 C 42.38,34.1 42.22,34.1 42.06,34.1 A 1.88,1.88 0 0,1 41.13,33.9 C 41.03,33.85 40.95,33.81 40.83,33.78 C 40.56,33.7 40.41,33.67 40.13,33.65 C 39.77,33.62 39.03,34.05 38.91,34.53 L 38.48,36 H 34.28 A 5.65,5.65 0 0,0 30,34.15 C 30.28,33.55 30.58,33.05 30.89,32.55 C 31.54,31.48 32.19,30.42 32.53,28.42 C 32.68,27.55 32.95,27.12 33.29,26.58 A 21.2,21.2 0 0,0 33.57,26.13 L 33.72,25.86 C 33.87,25.52 33.83,25.28 33.79,25 A 2.4,2.4 0 0,1 33.79,24.06 A 11.6,11.6 0 0,1 35.46,19.87 C 35.66,19.58 35.86,19.31 36.02,18.89 C 36.22,18.37 36.29,18.05 36.35,17.5 C 36.4,17.3 36.57,17.2 36.83,17.22 C 36.73,16.4 36.59,15.89 36.36,15.07 L 36.25,14.64 C 35.87,13.26 35.41,11.21 35.69,11 C 35.79,10.97 35.87,11.25 36,11.68 L 36.24,12.39 C 36.38,12.78 36.56,13.21 36.74,13.63 L 37.2,14.81 C 37.53,15.74 37.7,16.22 37.98,17.14 C 38.18,17.16 38.3,17.23 38.32,17.34 V 18.08 C 38.3,18.26 38.29,18.43 38.34,18.66 C 38.44,19.16 38.81,19.92 38.92,19.82 C 39,19.8 38.97,19.68 38.91,19.36 C 38.78,18.81 38.53,17.66 38.48,15.36 C 38.46,14.66 38.38,13.8 38.3,13.03 C 38.19,11.95 38.1,11.05 38.24,11.03 C 38.4,10.93 38.61,11.67 38.81,12.35 L 38.96,12.87 A 17.57,17.57 0 0,1 39.61,17.02 C 39.65,17.77 39.68,18.42 39.99,19.26 L 40.11,19.64 C 40.21,20 40.32,20.35 40.47,20.32 C 40.6,20.37 41.17,19.67 41.56,18.83 C 41.72,18.48 41.86,18.09 41.97,17.77 C 42.12,17.35 42.22,17.05 42.31,17.07 C 42.52,17.07 42.45,18.32 42.24,19.06 C 42.14,19.37 41.91,19.76 41.74,20.04 C 41.62,20.24 41.54,20.38 41.58,20.37 C 41.72,20.53 42.13,20.07 42.37,19.75 C 42.52,19.55 42.57,19.36 42.62,19.16 C 42.66,19 42.71,18.83 42.82,18.65 C 43.08,18.19 43.51,17.49 43.7,17.62 C 43.96,17.61 43.21,20.25 42.07,21.29 L 41.75,21.58 C 41.42,21.85 41.15,22.07 40.93,22.58 C 40.38,23.81 41.73,25.55 42.88,26.88 L 43.72,27.87 Z M 35,37 A 12.07,12.07 0 0,1 36.41,42 A 50.62,50.62 0 0,0 38.17,37 H 35 Z" fill="rgb(149, 150, 145)"/>
<path d="M 12.94,29.175 C 12.99,29.29 13.02,29.39 13.04,29.5 A 2,2 0 0,1 13.07,29.83 H 13.95 C 13.95,29.25 13.84,28.79 13.62,28.48 C 13.4,28.16 13.03,28 12.53,28 C 12.23,28 11.99,28.06 11.8,28.19 C 11.6,28.31 11.44,28.49 11.33,28.74 C 11.21,28.99 11.13,29.3 11.07,29.66 A 15.11,15.11 0 0,0 11.05,32.27 C 11.09,32.66 11.15,32.97 11.25,33.24 C 11.35,33.5 11.49,33.69 11.67,33.81 C 11.84,33.94 12.07,34 12.35,34 C 12.57,34 12.75,33.95 12.91,33.86 C 13.07,33.76 13.2,33.6 13.31,33.37 H 13.32 V 34 H 14 V 31 H 12.51 V 31.65 H 13.11 V 32.24 C 13.11,32.54 13.03,32.94 12.73,33.11 A 0.37,0.37 0 0,1 12.55,33.16 A 0.4,0.4 0 0,1 12.23,33.01 C 12.15,32.9 12.08,32.75 12.03,32.55 C 11.99,32.35 11.96,32.11 11.94,31.83 L 11.92,30.89 C 11.92,30.17 11.97,29.65 12.07,29.33 C 12.17,29.02 12.32,28.86 12.54,28.86 C 12.64,28.86 12.72,28.89 12.78,28.96 C 12.85,29.02 12.9,29.09 12.95,29.19 Z M 15.5,32.67 C 15.45,32.5 15.42,32.28 15.41,32.01 A 19.35,19.35 0 0,1 15.41,30.02 C 15.42,29.75 15.45,29.52 15.5,29.36 C 15.54,29.18 15.6,29.06 15.68,28.98 A 0.44,0.44 0 0,1 16,28.86 C 16.13,28.86 16.24,28.9 16.32,28.98 C 16.4,29.06 16.46,29.18 16.5,29.36 C 16.55,29.53 16.58,29.76 16.59,30.02 A 19.1,19.1 0 0,1 16.59,32.01 C 16.58,32.28 16.55,32.51 16.5,32.67 C 16.46,32.84 16.4,32.97 16.32,33.05 A 0.44,0.44 0 0,1 16,33.16 A 0.44,0.44 0 0,1 15.68,33.05 A 0.78,0.78 0 0,1 15.5,32.67 Z M 14.75,28.84 C 14.65,29.11 14.58,29.43 14.55,29.8 A 14.68,14.68 0 0,0 14.55,32.23 C 14.58,32.6 14.65,32.91 14.75,33.18 C 14.85,33.45 15.01,33.65 15.2,33.78 C 15.4,33.93 15.67,34 16,34 C 16.33,34 16.6,33.93 16.8,33.79 C 17,33.65 17.15,33.45 17.25,33.18 C 17.35,32.91 17.42,32.6 17.45,32.23 A 14.64,14.64 0 0,0 17.45,29.8 C 17.42,29.43 17.35,29.11 17.25,28.84 A 1.4,1.4 0 0,0 16.8,28.22 A 1.3,1.3 0 0,0 16,28 C 15.67,28 15.4,28.07 15.2,28.22 C 15,28.37 14.85,28.58 14.75,28.84 Z M 18,28.08 H 18.9 V 33.08 H 20.51 V 34.07 H 18 V 28.08 Z M 22.71,33 C 22.61,33.07 22.48,33.1 22.32,33.1 H 21.92 V 28.9 H 22.3 C 22.48,28.9 22.62,28.93 22.72,29.02 C 22.82,29.11 22.9,29.24 22.95,29.41 C 23.01,29.58 23.05,29.79 23.05,30.05 A 13.94,13.94 0 0,1 23.05,31.97 C 23.04,32.25 23,32.47 22.95,32.64 A 0.73,0.73 0 0,1 22.71,33 Z M 23.27,28.2 C 23.07,28.07 22.82,28 22.5,28 H 21 V 34 H 22.44 C 22.74,34 23,33.94 23.2,33.81 C 23.4,33.69 23.56,33.51 23.68,33.25 C 23.79,33 23.88,32.68 23.93,32.29 A 11.25,11.25 0 0,0 23.94,29.71 A 3.24,3.24 0 0,0 23.72,28.79 C 23.62,28.54 23.46,28.34 23.27,28.21 Z"/>
<path d="M 9.99,19.985 H 13 V 21 H 12 V 27 H 11 V 21 H 10 V 20 Z M 14,20 H 16.93 V 21 H 15.06 V 23 H 16.82 V 24 H 15.06 V 26 H 17 V 27 H 14 V 20 Z M 18.27,24.78 H 17.2 V 25.06 C 17.2,25.68 17.33,26.16 17.59,26.5 C 17.85,26.83 18.29,27 18.89,27 C 19.46,27 19.91,26.84 20.24,26.52 C 20.56,26.19 20.72,25.67 20.72,24.95 C 20.72,24.75 20.71,24.55 20.68,24.39 A 1.42,1.42 0 0,0 20.52,23.92 A 1.44,1.44 0 0,0 20.22,23.52 C 20.08,23.4 19.92,23.28 19.72,23.16 L 18.89,22.71 A 0.99,0.99 0 0,1 18.45,22.32 C 18.38,22.18 18.35,22 18.35,21.79 C 18.35,21.69 18.35,21.59 18.37,21.49 C 18.39,21.4 18.42,21.32 18.47,21.25 A 0.54,0.54 0 0,1 18.66,21.07 A 0.6,0.6 0 0,1 18.96,21 C 19.16,21 19.31,21.1 19.4,21.27 C 19.49,21.44 19.53,21.69 19.53,22.01 H 20.55 V 21.81 C 20.55,21.5 20.51,21.22 20.43,20.99 C 20.35,20.76 20.23,20.57 20.09,20.43 A 1.19,1.19 0 0,0 19.57,20.1 C 19.37,20.03 19.15,20 18.92,20 C 18.41,20 18.01,20.16 17.72,20.5 C 17.42,20.82 17.28,21.32 17.28,21.99 C 17.28,22.27 17.3,22.51 17.36,22.73 C 17.41,22.93 17.5,23.13 17.61,23.29 C 17.73,23.44 17.87,23.59 18.05,23.7 C 18.22,23.82 18.43,23.93 18.66,24.04 C 18.84,24.11 18.99,24.19 19.11,24.26 S 19.33,24.41 19.41,24.5 C 19.48,24.59 19.53,24.69 19.56,24.8 C 19.6,24.91 19.61,25.04 19.61,25.2 C 19.61,25.48 19.55,25.69 19.41,25.83 A 0.6,0.6 0 0,1 18.97,26.03 A 0.73,0.73 0 0,1 18.63,25.95 A 0.6,0.6 0 0,1 18.41,25.74 A 0.86,0.86 0 0,1 18.3,25.42 A 2.96,2.96 0 0,1 18.27,24.98 V 24.78 Z M 21.29,26.04 A 7.51,7.51 0 0,1 21,23.51 C 21,22.48 21.05,21.6 21.29,20.99 C 21.41,20.68 21.59,20.44 21.82,20.27 C 22.05,20.09 22.36,20 22.75,20 S 23.45,20.09 23.68,20.27 C 23.91,20.44 24.08,20.67 24.2,20.99 C 24.33,21.29 24.4,21.67 24.44,22.1 A 15.92,15.92 0 0,1 24.44,24.94 C 24.41,25.36 24.33,25.74 24.2,26.04 C 24.08,26.35 23.91,26.59 23.68,26.75 C 23.45,26.92 23.14,27 22.75,27 S 22.05,26.92 21.82,26.75 C 21.59,26.59 21.42,26.35 21.29,26.05 Z M 22.38,21.14 C 22,21.58 22,22.9 22,23.51 C 22,24.16 22,25.55 22.38,25.89 C 22.48,25.98 22.6,26.02 22.75,26.02 A 0.5,0.5 0 0,0 23.12,25.89 A 0.9,0.9 0 0,0 23.33,25.46 C 23.39,25.26 23.42,25 23.43,24.68 A 19.9,19.9 0 0,0 23.43,22.36 A 3.85,3.85 0 0,0 23.33,21.58 A 0.85,0.85 0 0,0 23.12,21.15 A 0.49,0.49 0 0,0 22.75,21 A 0.51,0.51 0 0,0 22.38,21.15 Z M 26,23 V 21 H 26.57 C 27.07,21 27.31,21.32 27.31,21.94 C 27.31,22.31 27.24,22.57 27.11,22.73 A 0.8,0.8 0 0,1 26.51,23 H 26 Z M 25,20 V 26.76 H 26 V 24 H 26.71 C 26.9,24 27.03,24 27.11,24.13 C 27.21,24.28 27.26,24.49 27.27,24.76 L 27.3,26.06 C 27.3,26.19 27.31,26.32 27.33,26.44 C 27.34,26.56 27.38,26.67 27.43,26.76 H 28.59 V 26.71 C 28.49,26.64 28.43,26.51 28.39,26.31 A 11.61,11.61 0 0,1 28.34,25.01 L 28.32,24.58 C 28.29,24.21 28.21,23.93 28.09,23.76 A 0.9,0.9 0 0,0 27.5,23.43 V 23.41 C 27.8,23.33 28.02,23.14 28.17,22.86 C 28.31,22.57 28.38,22.2 28.38,21.74 C 28.38,21.16 28.26,20.72 28.01,20.44 C 27.76,20.14 27.41,20 26.97,20 H 25 Z M 29.29,26.04 A 7.51,7.51 0 0,1 29,23.51 C 29,22.48 29.05,21.6 29.29,20.99 C 29.41,20.68 29.59,20.44 29.82,20.27 C 30.05,20.09 30.36,20 30.75,20 S 31.45,20.09 31.68,20.27 C 31.91,20.44 32.08,20.67 32.2,20.99 C 32.33,21.29 32.4,21.67 32.44,22.1 A 15.92,15.92 0 0,1 32.44,24.94 C 32.41,25.36 32.33,25.74 32.2,26.04 C 32.08,26.35 31.9,26.59 31.68,26.75 C 31.45,26.92 31.14,27 30.75,27 S 30.05,26.92 29.82,26.75 C 29.59,26.59 29.42,26.35 29.29,26.05 Z M 29.99,23.3 L 30,23.51 C 30,24.16 30,25.55 30.38,25.89 C 30.48,25.98 30.6,26.02 30.75,26.02 A 0.5,0.5 0 0,0 31.12,25.89 A 0.9,0.9 0 0,0 31.33,25.46 C 31.39,25.26 31.42,25 31.43,24.68 A 20,20 0 0,0 31.43,22.36 A 3.85,3.85 0 0,0 31.33,21.58 A 0.85,0.85 0 0,0 31.12,21.15 A 0.49,0.49 0 0,0 30.75,21 A 0.51,0.51 0 0,0 30.38,21.15 C 29.98,21.54 29.99,22.63 30,23.3 Z M 10,38 H 46 V 37 H 10 V 38 Z" fill="rgb(160, 37, 39)"/>
</svg>
