<?xml version="1.0" encoding="UTF-8"?>
<!-- generated by Finnhub -->
<svg viewBox="0 0 55.5 55.5" xmlns="http://www.w3.org/2000/svg">
<path d="M 0,0 H 55.5 V 55.5 H 0 Z" fill="rgb(23, 26, 28)"/>
<path d="M 16.99,25.985 V 20 H 39 V 26 H 38 V 25.08 A 4.46,4.46 0 0,0 33.63,21 H 30 V 42.05 C 30,43.13 30.84,44 31.88,44 H 33 V 45 H 23 V 44 H 24.13 C 25.16,44 26,43.13 26,42.05 V 21 H 22.37 C 18.62,21 18,23.5 18,25.08 V 26 H 17 Z" fill="rgb(254, 254, 253)"/>
<path d="M 15.99,12.985 H 26 V 14 H 24.87 A 1.9,1.9 0 0,0 23,15.93 V 19 H 19 V 15.93 A 1.9,1.9 0 0,0 17.12,14 H 16 V 13 Z M 23,24 V 22 H 22.74 C 20.81,22 19.25,23.08 19,25 V 33.07 A 1.9,1.9 0 0,1 17.12,35 H 16 V 36 H 25 V 35 H 24.87 A 1.9,1.9 0 0,1 23,33.07 V 26 H 33 V 33.07 A 1.9,1.9 0 0,1 31.12,35 H 31 V 36 H 40 V 35 H 38.87 A 1.9,1.9 0 0,1 37,33.07 V 25 C 36.75,23.08 35.2,22 33.27,22 H 33 V 24 H 23 Z M 33,19 H 37 V 15.93 A 1.9,1.9 0 0,1 38.88,14 H 40 V 13 H 30 V 14 H 31.13 A 1.9,1.9 0 0,1 33,15.93 V 19 Z" fill="rgb(254, 254, 253)"/>
</svg>
