<?xml version="1.0" encoding="UTF-8"?>
<!-- generated by Finnhub -->
<svg viewBox="0 0 55.5 55.5" xmlns="http://www.w3.org/2000/svg">
<path d="M 0,0 H 55.5 V 55.5 H 0 Z" fill="rgb(223, 23, 131)"/>
<path d="M 34.478,16.275 L 30.828,22.7 C 30.809,22.7 30.718,22.719 30.683,22.7 C 30.665,22.683 30.646,22.665 30.61,22.665 C 30.592,22.647 30.575,22.629 30.537,22.629 A 0.134,0.134 0 0,0 30.465,22.592 C 30.447,22.575 30.411,22.575 30.392,22.557 C 30.374,22.538 30.357,22.538 30.338,22.538 C 30.338,22.466 30.338,22.412 30.32,22.339 V 22.249 C 30.32,22.231 30.302,22.194 30.302,22.159 A 2.476,2.476 0 0,0 30.212,21.814 C 30.175,21.705 30.212,21.705 30.158,21.597 L 30.738,19.423 C 30.847,19.405 31.136,19.459 31.227,19.442 L 31.499,19.387 A 2.205,2.205 0 0,0 33.148,17.305 C 33.166,16.128 32.17,15.15 30.955,15.132 C 29.759,15.132 28.762,16.109 28.762,17.287 C 28.762,17.414 28.762,17.54 28.78,17.667 C 28.799,17.775 28.835,17.903 28.871,18.011 C 28.908,18.12 28.961,18.228 29.016,18.337 C 29.07,18.427 29.125,18.537 29.197,18.627 C 29.27,18.717 29.36,18.808 29.433,18.881 C 29.523,18.971 29.614,19.044 29.723,19.098 C 29.813,19.17 29.921,19.225 30.03,19.278 L 29.595,20.854 C 29.505,20.8 29.197,20.601 29.105,20.547 C 28.997,20.493 28.888,20.457 28.78,20.42 C 28.562,20.365 28.453,20.31 28.254,20.329 L 28.236,14.571 C 28.309,14.571 28.436,14.553 28.526,14.535 C 28.581,14.517 28.635,14.48 28.69,14.462 C 29.523,14.154 30.121,13.34 30.14,12.38 C 30.14,12.307 30.14,12.235 30.121,12.162 L 29.795,12.108 H 29.722 C 29.632,12.09 29.542,12.09 29.45,12.072 C 29.378,12.072 29.306,12.072 29.233,12.054 H 29.088 C 28.979,12.036 28.89,12.036 28.798,12.036 C 28.762,12.018 28.745,12.018 28.708,12.018 H 28.345 C 28.345,12 28.328,12 28.328,12 H 27.495 C 27.385,12.018 27.259,12.018 27.132,12.018 H 27.059 C 26.949,12.036 26.859,12.036 26.751,12.054 H 26.624 C 26.533,12.054 26.461,12.072 26.388,12.072 C 26.316,12.09 26.243,12.09 26.171,12.09 C 26.116,12.108 26.062,12.108 26.008,12.126 C 25.936,12.126 25.845,12.144 25.772,12.144 C 25.772,12.216 25.754,12.307 25.754,12.38 C 25.754,12.434 25.754,12.489 25.772,12.543 C 25.772,12.597 25.772,12.652 25.791,12.706 C 25.791,12.76 25.808,12.796 25.808,12.851 C 25.828,12.902 25.841,12.957 25.844,13.013 C 25.862,13.049 25.881,13.103 25.899,13.158 C 25.916,13.212 25.936,13.248 25.953,13.303 C 25.971,13.339 26.007,13.393 26.025,13.43 C 26.043,13.484 26.08,13.52 26.098,13.575 C 26.134,13.611 26.152,13.665 26.188,13.702 C 26.224,13.739 26.261,13.774 26.278,13.811 C 26.315,13.866 26.352,13.901 26.388,13.938 A 0.494,0.494 0 0,0 26.496,14.028 L 26.606,14.138 C 26.659,14.173 26.696,14.192 26.733,14.228 C 26.787,14.246 26.823,14.283 26.859,14.301 A 0.562,0.562 0 0,0 27.005,14.374 C 27.295,14.518 27.331,14.574 27.675,14.574 L 27.657,20.386 L 27.584,20.422 C 27.203,20.527 26.854,20.726 26.57,21.002 C 26.496,21.056 26.57,21.037 26.515,21.11 L 25.916,19.318 C 26.823,18.992 27.258,18.268 27.258,17.288 C 27.258,16.076 26.261,15.098 25.047,15.098 C 23.814,15.098 22.817,16.076 22.817,17.271 C 22.8,18.484 23.742,19.408 25.029,19.48 H 25.265 L 25.247,19.426 L 26.044,21.653 C 25.99,21.743 26.008,21.833 25.99,21.923 C 25.953,22.014 25.936,22.123 25.916,22.213 C 25.899,22.304 25.899,22.358 25.899,22.467 C 25.899,22.449 25.881,22.467 25.899,22.449 A 1.05,1.05 0 0,1 25.682,22.539 L 25.465,22.649 C 25.373,22.703 25.373,22.721 25.373,22.721 C 24.993,21.961 21.495,16.456 21.495,16.293 C 21.495,16.257 21.731,16.166 21.767,16.13 C 21.785,16.112 21.822,16.093 21.858,16.058 A 2.133,2.133 0 0,0 22.348,13.324 C 22.312,13.251 22.275,13.196 22.238,13.124 A 1.92,1.92 0 0,1 21.894,13.251 L 21.876,13.27 C 21.857,13.27 21.839,13.27 21.839,13.287 L 21.568,13.396 C 21.495,13.414 21.44,13.45 21.368,13.469 C 21.314,13.487 21.278,13.523 21.224,13.541 A 1.81,1.81 0 0,0 20.952,13.668 C 20.916,13.668 20.898,13.686 20.862,13.704 C 20.752,13.741 20.644,13.795 20.535,13.849 C 20.517,13.867 20.517,13.867 20.498,13.867 C 20.39,13.94 20.262,13.994 20.136,14.067 C 20.008,14.12 19.9,14.193 19.774,14.247 L 19.755,14.266 C 19.646,14.32 19.537,14.393 19.428,14.446 C 19.393,14.464 19.374,14.483 19.356,14.501 L 19.085,14.664 A 0.364,0.364 0 0,0 18.975,14.736 C 18.903,14.773 18.831,14.826 18.758,14.863 C 18.704,14.899 18.648,14.936 18.576,14.99 C 18.526,15.017 18.478,15.047 18.432,15.08 C 18.377,15.134 18.304,15.171 18.232,15.225 C 18.269,15.297 18.305,15.352 18.341,15.424 C 18.884,16.365 19.881,16.692 20.823,16.492 L 24.81,23.029 C 24.773,23.064 24.592,23.156 24.556,23.192 A 0.683,0.683 0 0,0 24.356,23.082 C 24.266,23.046 24.175,23.028 24.085,22.992 C 24.013,22.974 23.922,22.956 23.831,22.938 C 23.686,22.92 23.668,22.901 23.523,22.901 L 21.928,21.417 C 21.965,21.362 21.983,21.345 22.001,21.29 A 0.864,0.864 0 0,0 22.146,21 C 22.182,20.891 22.219,20.783 22.236,20.674 C 22.254,20.565 22.273,20.456 22.273,20.348 C 22.291,20.239 22.273,20.131 22.273,20.022 C 22.254,19.913 22.237,19.786 22.219,19.678 L 22.109,19.352 A 4.911,4.911 0 0,1 21.946,19.044 C 21.294,18.012 19.934,17.686 18.902,18.32 C 17.887,18.972 17.634,20.257 18.268,21.29 C 18.92,22.322 20.243,22.72 21.258,22.087 C 21.312,22.05 21.438,21.942 21.493,21.905 L 22.707,23.046 L 22.653,23.064 C 22.599,23.082 22.544,23.118 22.49,23.136 C 22.436,23.173 22.38,23.191 22.327,23.226 C 22.2,23.317 22.073,23.408 21.964,23.516 A 0.815,0.815 0 0,0 21.855,23.642 C 21.819,23.679 21.783,23.734 21.746,23.77 C 21.709,23.824 21.674,23.86 21.674,23.897 L 16.674,21.217 C 16.729,21.126 16.657,21.126 16.694,21.017 C 16.729,20.872 16.747,20.727 16.747,20.582 C 16.765,20.437 16.747,20.292 16.729,20.147 A 1.877,1.877 0 0,0 16.62,19.713 C 16.565,19.568 16.511,19.423 16.42,19.296 A 2.144,2.144 0 0,0 15.297,18.373 A 16.579,16.579 0 0,0 13.267,22.211 C 13.992,22.736 14.971,22.828 15.75,22.339 C 15.877,22.249 15.986,22.176 16.077,22.067 L 16.294,21.85 C 16.348,21.76 16.366,21.74 16.421,21.65 L 21.459,24.385 C 21.423,24.439 21.405,24.494 21.386,24.548 C 21.369,24.602 21.369,24.657 21.351,24.711 C 21.351,24.765 21.332,24.82 21.332,24.874 C 21.332,24.946 21.314,25.001 21.314,25.055 C 21.314,25.109 21.314,25.164 21.332,25.218 V 25.399 C 21.35,25.453 21.35,25.509 21.369,25.562 C 21.386,25.635 21.405,25.689 21.423,25.762 L 19.701,25.454 V 25.219 C 19.701,25.129 19.701,25.056 19.684,24.983 A 1.05,1.05 0 0,0 19.647,24.747 C 19.63,24.675 19.611,24.584 19.575,24.512 A 1.043,1.043 0 0,0 19.485,24.294 L 19.375,24.077 C 18.723,23.045 17.363,22.719 16.33,23.353 C 15.315,23.987 15.007,25.363 15.66,26.395 C 16.295,27.427 17.672,27.754 18.687,27.12 C 18.843,27.02 18.988,26.905 19.121,26.776 C 19.231,26.65 19.448,26.233 19.538,26.088 L 21.894,26.541 C 21.984,26.613 22.111,26.794 22.238,26.867 C 22.22,26.922 22.22,26.976 22.203,27.03 C 22.203,27.085 22.184,27.139 22.184,27.193 C 22.184,27.247 22.166,27.302 22.166,27.356 V 27.663 L 14.591,27.645 C 14.591,27.337 14.537,27.392 14.428,27.138 C 14.374,27.029 14.338,26.938 14.283,26.848 A 1.41,1.41 0 0,0 14.083,26.594 A 0.882,0.882 0 0,0 13.866,26.359 C 13.793,26.286 13.703,26.232 13.612,26.159 C 13.54,26.105 13.431,26.05 13.34,25.996 A 5.406,5.406 0 0,0 13.032,25.888 A 1.498,1.498 0 0,0 12.724,25.814 A 2.279,2.279 0 0,0 12.38,25.779 C 12.308,25.779 12.235,25.797 12.163,25.797 A 1.046,1.046 0 0,0 12.126,26.032 C 12.108,26.087 12.108,26.142 12.108,26.196 C 12.091,26.268 12.091,26.341 12.072,26.413 C 12.072,26.485 12.072,26.558 12.054,26.649 V 26.775 C 12.036,26.885 12.036,26.975 12.018,27.083 V 27.155 C 12.018,27.283 12.018,27.391 12,27.518 V 28.369 C 12,28.497 12.018,28.605 12.018,28.731 V 28.821 C 12.018,28.912 12.036,29.003 12.036,29.111 C 12.036,29.165 12.036,29.202 12.054,29.256 C 12.054,29.329 12.054,29.4 12.072,29.473 C 12.072,29.563 12.09,29.654 12.09,29.745 V 29.78 C 12.108,29.78 12.108,29.798 12.108,29.818 C 12.108,29.927 12.126,30.035 12.144,30.144 C 12.216,30.161 12.289,30.161 12.361,30.161 C 12.815,30.161 13.249,30.035 13.611,29.798 C 13.684,29.745 13.757,29.689 13.811,29.636 C 13.884,29.581 13.956,29.508 14.011,29.455 L 14.174,29.238 A 0.898,0.898 0 0,0 14.318,29.02 C 14.373,28.947 14.409,28.857 14.446,28.785 C 14.463,28.694 14.5,28.621 14.518,28.531 A 0.562,0.562 0 0,0 14.554,28.223 L 22.165,28.259 C 22.165,28.368 22.183,28.549 22.183,28.657 C 21.857,28.784 21.857,28.747 21.658,29.001 C 21.567,29.128 21.531,29.201 21.458,29.327 L 19.356,29.87 L 19.302,29.761 C 19.248,29.653 19.175,29.561 19.121,29.471 A 1.428,1.428 0 0,0 18.885,29.236 C 18.813,29.146 18.722,29.092 18.631,29.019 C 18.541,28.964 18.45,28.892 18.359,28.855 C 18.25,28.802 18.142,28.746 18.033,28.711 C 17.924,28.693 17.815,28.657 17.707,28.638 A 2.29,2.29 0 0,0 17.362,28.602 C 16.13,28.602 15.133,29.579 15.115,30.793 C 15.115,31.987 16.075,32.893 17.29,32.911 C 18.522,32.911 19.555,32.007 19.573,30.811 C 19.573,30.738 19.537,30.576 19.537,30.521 L 21.15,30.087 L 21.132,30.16 C 21.132,30.213 21.114,30.269 21.114,30.322 C 21.114,30.395 21.096,30.45 21.096,30.503 C 21.096,30.667 21.114,30.811 21.15,30.975 L 21.205,31.137 C 21.205,31.192 21.241,31.246 21.259,31.3 C 21.277,31.354 21.331,31.463 21.349,31.5 L 16.475,34.307 C 16.421,34.217 16.294,34.179 16.221,34.107 C 16.131,33.999 16.003,33.908 15.895,33.817 A 1.983,1.983 0 0,0 15.515,33.6 A 3.708,3.708 0 0,0 15.08,33.456 A 1.884,1.884 0 0,0 14.626,33.402 A 2.31,2.31 0 0,0 13.231,33.873 A 16.142,16.142 0 0,0 15.424,37.621 A 2.214,2.214 0 0,0 16.837,35.593 C 16.837,35.449 16.818,35.321 16.782,35.176 C 16.764,35.086 16.746,34.976 16.709,34.886 C 16.673,34.776 16.763,34.959 16.727,34.868 L 21.711,31.988 C 21.729,32.044 21.675,31.971 21.711,32.008 C 21.748,32.061 21.783,32.098 21.838,32.134 C 21.875,32.17 21.929,32.206 21.966,32.244 C 22.02,32.279 22.056,32.314 22.11,32.334 C 22.165,32.37 22.201,32.406 22.255,32.423 C 22.31,32.46 22.365,32.478 22.418,32.515 C 22.454,32.533 22.509,32.551 22.563,32.568 C 22.636,32.586 22.69,32.604 22.762,32.623 L 21.584,33.926 C 21.512,33.873 21.457,33.836 21.384,33.782 A 11.954,11.954 0 0,0 21.167,33.674 C 21.113,33.636 21.022,33.619 20.95,33.583 L 20.732,33.528 C 20.642,33.511 20.569,33.492 20.479,33.492 C 20.406,33.475 20.316,33.475 20.243,33.475 C 19.011,33.475 18.013,34.452 18.013,35.648 C 17.996,36.86 18.993,37.839 20.225,37.839 C 21.439,37.857 22.455,36.878 22.455,35.666 A 1.843,1.843 0 0,0 22.382,35.123 C 22.346,34.959 22.11,34.561 22.038,34.399 L 23.668,32.642 C 23.778,32.624 24.177,32.532 24.304,32.478 C 24.286,32.478 24.286,32.478 24.267,32.495 A 0.8,0.8 0 0,0 24.467,32.641 C 24.521,32.694 24.738,32.821 24.847,32.858 C 23.651,34.994 22.31,37.149 21.059,39.34 C 20.95,39.304 20.896,39.268 20.769,39.25 A 1.064,1.064 0 0,0 20.426,39.196 C 20.317,39.179 20.208,39.196 20.082,39.196 C 19.972,39.214 19.864,39.232 19.737,39.249 A 1.859,1.859 0 0,0 19.339,39.413 A 1.286,1.286 0 0,0 18.957,39.63 A 1.751,1.751 0 0,0 18.631,39.938 C 18.521,40.049 18.429,40.178 18.359,40.318 A 1.954,1.954 0 0,0 18.25,40.518 C 18.323,40.571 18.378,40.608 18.45,40.662 C 18.488,40.698 18.53,40.729 18.577,40.752 C 18.631,40.806 18.687,40.843 18.758,40.879 C 18.813,40.934 18.886,40.969 18.94,41.023 C 18.977,41.043 19.012,41.06 19.049,41.096 L 19.32,41.26 C 19.338,41.278 19.357,41.296 19.375,41.296 C 19.485,41.369 19.574,41.441 19.683,41.496 L 19.701,41.513 C 19.809,41.586 19.936,41.639 20.045,41.713 C 20.172,41.785 20.281,41.839 20.39,41.912 H 20.426 C 20.535,41.967 20.643,42.038 20.734,42.093 C 20.77,42.093 20.788,42.111 20.806,42.129 C 20.897,42.165 20.988,42.202 21.078,42.255 C 21.132,42.273 21.168,42.293 21.223,42.31 A 0.84,0.84 0 0,0 21.403,42.4 C 21.495,42.437 21.567,42.472 21.658,42.51 C 21.676,42.527 21.676,42.527 21.694,42.527 S 21.712,42.545 21.73,42.545 C 21.839,42.58 21.929,42.635 22.039,42.671 C 22.074,42.618 22.129,42.545 22.165,42.491 A 2.307,2.307 0 0,0 22.347,40.698 C 22.311,40.571 22.256,40.463 22.202,40.336 C 22.129,40.227 22.057,40.101 21.984,40.01 A 4.106,4.106 0 0,0 21.567,39.612 L 25.3,33.184 C 25.481,33.274 25.626,33.347 25.79,33.419 C 25.772,33.546 25.916,34.108 25.99,34.234 L 25.282,36.534 C 25.119,36.534 24.648,36.551 24.485,36.589 A 2.334,2.334 0 0,0 23.995,36.806 C 22.945,37.422 22.618,38.78 23.235,39.83 C 23.869,40.88 25.21,41.242 26.261,40.627 A 2.2,2.2 0 0,0 27.004,37.603 A 0.787,0.787 0 0,0 26.858,37.403 C 26.823,37.33 26.768,37.276 26.714,37.204 A 1.482,1.482 0 0,0 26.532,37.04 C 26.478,36.987 26.423,36.95 26.352,36.896 A 1.334,1.334 0 0,1 26.152,36.77 C 26.079,36.733 26.007,36.715 25.935,36.68 L 26.46,35.013 L 26.586,35.139 C 26.64,35.175 26.696,35.211 26.731,35.249 C 26.785,35.284 26.821,35.302 26.876,35.339 C 26.93,35.375 26.985,35.392 27.039,35.411 C 27.075,35.448 27.129,35.465 27.184,35.484 A 0.684,0.684 0 0,0 27.347,35.557 C 27.401,35.557 27.456,35.574 27.51,35.593 C 27.564,35.611 27.6,35.61 27.655,35.593 V 41.351 C 27.545,41.351 27.672,41.333 27.582,41.351 C 27.473,41.388 27.382,41.405 27.274,41.443 C 27.146,41.478 27.02,41.552 26.893,41.623 A 2.185,2.185 0 0,0 25.86,43.868 C 27.291,44.049 28.76,44.049 30.21,43.832 A 2.382,2.382 0 0,0 29.92,42.402 A 2.751,2.751 0 0,0 29.63,42.038 A 2.682,2.682 0 0,0 29.285,41.748 A 1.668,1.668 0 0,0 28.905,41.531 A 1.62,1.62 0 0,0 28.488,41.387 A 0.565,0.565 0 0,0 28.234,41.332 L 28.216,35.647 C 28.252,35.647 28.306,35.628 28.361,35.628 C 28.415,35.611 28.469,35.611 28.524,35.593 C 28.597,35.575 28.651,35.557 28.705,35.539 C 28.85,35.502 28.976,35.43 29.122,35.358 C 29.176,35.321 29.212,35.285 29.267,35.268 C 29.321,35.232 29.357,35.194 29.43,35.123 L 29.9,36.717 C 29.847,36.752 29.701,36.79 29.647,36.825 C 28.597,37.442 28.361,38.799 28.977,39.85 C 29.611,40.9 30.861,41.262 31.913,40.647 A 2.2,2.2 0 0,0 32.656,37.623 C 32.602,37.513 32.529,37.423 32.457,37.333 C 32.385,37.243 32.294,37.169 32.221,37.096 C 32.13,37.006 32.041,36.952 31.949,36.879 A 2.263,2.263 0 0,0 31.659,36.735 A 2.538,2.538 0 0,0 31.333,36.608 C 31.243,36.591 31.133,36.554 31.025,36.554 A 1.116,1.116 0 0,0 30.68,36.536 C 30.626,36.536 30.608,36.536 30.553,36.554 L 29.955,34.454 C 30.027,34.327 30.009,34.309 30.064,34.164 C 30.118,34.019 30.154,33.874 30.173,33.711 V 33.421 C 30.21,33.438 30.227,33.421 30.245,33.403 C 30.3,33.386 30.336,33.367 30.373,33.35 C 30.427,33.33 30.463,33.312 30.5,33.295 A 0.764,0.764 0 0,0 30.627,33.24 C 30.681,33.204 34.197,39.29 34.469,39.796 C 34.451,39.814 34.451,39.796 34.433,39.814 C 34.415,39.85 34.378,39.867 34.342,39.885 C 34.306,39.903 34.288,39.94 34.252,39.959 L 34.162,40.049 C 34.144,40.067 34.107,40.104 34.07,40.122 C 34.053,40.158 34.035,40.175 33.998,40.212 A 2.125,2.125 0 0,0 33.49,41.606 C 33.49,42.059 33.618,42.476 33.853,42.82 A 15.74,15.74 0 0,0 37.695,40.647 A 2.242,2.242 0 0,0 35.72,39.416 C 35.629,39.416 35.538,39.433 35.466,39.433 C 35.376,39.45 35.303,39.45 35.212,39.469 C 35.14,39.488 35.14,39.488 35.067,39.524 C 34.795,39.052 31.189,32.951 31.207,32.934 C 31.225,32.934 31.189,32.914 31.244,32.878 A 0.36,0.36 0 0,0 31.353,32.805 C 31.388,32.788 31.425,32.752 31.462,32.734 C 31.498,32.696 31.552,32.679 31.589,32.644 C 31.625,32.606 31.661,32.588 31.698,32.553 H 31.716 C 31.843,32.626 32.26,32.715 32.386,32.733 L 34,34.527 C 33.928,34.671 33.693,35.07 33.656,35.234 A 1.87,1.87 0 0,0 33.584,35.777 C 33.565,36.991 34.562,37.968 35.794,37.968 C 37.009,37.986 38.023,37.008 38.023,35.795 C 38.023,34.581 37.026,33.604 35.813,33.604 H 35.558 C 35.468,33.621 35.396,33.639 35.323,33.657 C 35.233,33.657 35.16,33.694 35.087,33.712 A 1.018,1.018 0 0,0 34.869,33.802 L 34.651,33.912 C 34.597,33.947 34.525,33.984 34.453,34.055 L 33.293,32.735 C 33.366,32.715 33.42,32.697 33.473,32.68 L 33.637,32.627 C 33.691,32.589 33.746,32.572 33.8,32.536 C 33.854,32.519 33.89,32.481 33.945,32.463 C 34,32.425 34.036,32.39 34.09,32.354 C 34.126,32.317 34.18,32.281 34.217,32.245 C 34.254,32.208 34.307,32.172 34.344,32.136 C 34.38,32.081 34.417,32.046 34.434,31.991 L 39.418,34.834 C 39.364,34.924 39.364,34.944 39.328,35.034 C 39.287,35.133 39.256,35.236 39.238,35.341 A 2.921,2.921 0 0,0 39.2,35.758 C 39.2,36.682 39.78,37.459 40.596,37.785 A 16.104,16.104 0 0,0 42.806,34.055 A 2.167,2.167 0 0,0 40.959,33.62 C 40.814,33.656 40.669,33.711 40.542,33.764 A 1.725,1.725 0 0,0 40.143,33.983 C 40.034,34.055 39.926,34.163 39.817,34.253 C 39.745,34.343 39.708,34.289 39.654,34.363 L 34.743,31.555 C 34.76,31.519 34.779,31.465 34.816,31.411 L 34.87,31.247 A 0.516,0.516 0 0,0 34.906,31.085 C 34.942,30.94 34.961,30.778 34.961,30.631 V 30.451 C 34.961,30.397 34.942,30.324 34.942,30.271 L 34.925,30.216 L 36.538,30.651 C 36.538,30.723 36.501,30.868 36.501,30.94 C 36.501,32.154 37.534,33.042 38.748,33.06 C 39.98,33.06 40.941,32.171 40.941,30.957 C 40.941,29.745 39.944,28.767 38.729,28.767 C 38.603,28.767 38.494,28.767 38.385,28.785 A 1.92,1.92 0 0,0 38.041,28.857 C 37.932,28.894 37.823,28.947 37.733,28.983 C 37.63,29.033 37.533,29.094 37.443,29.165 A 1.387,1.387 0 0,0 37.188,29.365 A 1.59,1.59 0 0,0 36.953,29.618 C 36.898,29.69 36.826,29.781 36.772,29.888 C 36.754,29.944 36.736,29.962 36.718,30.015 L 34.616,29.437 C 34.543,29.327 34.525,29.31 34.435,29.201 A 2.278,2.278 0 0,0 33.982,28.821 A 0.404,0.404 0 0,0 33.855,28.73 V 28.712 C 33.855,28.676 33.873,28.622 33.873,28.567 C 33.873,28.514 33.873,28.477 33.892,28.423 C 33.892,28.369 33.892,28.369 33.909,28.314 L 41.267,28.35 C 41.267,28.44 41.339,28.386 41.357,28.477 C 41.376,28.586 41.394,28.677 41.43,28.785 A 2.158,2.158 0 0,0 43.803,30.252 C 44.039,28.839 44.057,27.372 43.895,25.923 A 2.231,2.231 0 0,0 42.463,26.177 A 1.89,1.89 0 0,0 42.083,26.448 C 41.975,26.553 41.872,26.661 41.774,26.775 C 41.702,26.902 41.611,27.028 41.556,27.155 A 1.65,1.65 0 0,0 41.394,27.571 C 41.376,27.662 41.304,27.644 41.284,27.734 L 33.892,27.716 V 27.553 C 33.892,27.517 33.892,27.498 33.873,27.463 V 27.353 C 33.873,27.317 33.873,27.281 33.855,27.245 V 27.155 C 33.837,27.137 33.837,27.118 33.855,27.1 C 33.945,27.046 34.018,26.991 34.091,26.937 A 1.1,1.1 0 0,0 34.308,26.737 L 36.628,26.122 C 36.646,26.176 36.664,26.158 36.682,26.195 C 36.701,26.23 36.718,26.285 36.755,26.321 A 2.215,2.215 0 0,0 38.676,27.426 C 39.89,27.426 40.886,26.447 40.905,25.253 C 40.905,24.04 39.908,23.062 38.694,23.044 C 37.461,23.044 36.464,24.022 36.464,25.235 V 25.38 C 36.464,25.435 36.464,25.47 36.483,25.524 C 36.465,25.47 36.483,25.561 36.483,25.524 L 34.816,25.959 C 34.886,25.779 34.929,25.59 34.943,25.398 C 34.961,25.326 34.961,25.271 34.961,25.198 C 34.961,25.108 34.961,25.018 34.942,24.927 L 34.888,24.656 C 34.87,24.565 34.834,24.474 34.816,24.402 L 39.872,21.451 C 39.944,21.541 39.926,21.523 39.981,21.578 C 40.036,21.633 40.09,21.687 40.144,21.723 A 0.719,0.719 0 0,0 40.325,21.867 C 40.695,22.134 41.139,22.279 41.595,22.284 C 42.029,22.284 42.428,22.157 42.772,21.958 C 42.21,20.581 41.576,19.133 40.67,17.975 C 39.982,18.355 39.383,19.26 39.383,20.075 C 39.383,20.184 39.402,20.292 39.402,20.382 A 1.3,1.3 0 0,0 39.474,20.672 C 39.492,20.781 39.492,20.835 39.546,20.925 L 34.491,23.859 A 0.726,0.726 0 0,0 34.291,23.641 A 2.035,2.035 0 0,0 33.404,23.098 C 33.35,23.081 33.35,23.098 33.294,23.081 L 34.491,21.849 C 34.509,21.885 34.527,21.903 34.545,21.903 L 34.6,21.958 C 34.617,21.976 34.635,21.976 34.654,21.994 C 34.672,22.012 34.69,22.012 34.709,22.03 C 35.052,22.248 35.469,22.356 35.904,22.337 C 37.118,22.302 38.115,21.36 38.134,20.165 C 38.134,18.952 37.137,17.974 35.923,17.955 C 34.69,17.955 33.693,18.933 33.675,20.146 C 33.675,20.291 33.693,20.436 33.73,20.563 C 33.749,20.706 33.785,20.846 33.838,20.98 C 33.893,21.107 34.02,21.306 34.11,21.414 L 32.696,22.992 C 32.531,22.992 32.366,23.01 32.206,23.046 A 3.468,3.468 0 0,0 31.608,23.281 A 0.25,0.25 0 0,1 31.536,23.227 C 31.518,23.209 31.482,23.191 31.463,23.173 C 31.445,23.155 31.427,23.155 31.409,23.136 C 31.373,23.118 31.373,23.1 31.319,23.064 C 31.264,23.01 34.726,17.143 34.979,16.6 A 0.19,0.19 0 0,1 35.069,16.637 C 35.089,16.637 35.124,16.654 35.142,16.654 C 35.17,16.668 35.202,16.674 35.232,16.672 C 35.25,16.69 35.269,16.69 35.305,16.708 A 2.215,2.215 0 0,0 37.715,15.694 C 37.77,15.64 37.788,15.567 37.825,15.495 C 37.735,15.422 37.644,15.35 37.571,15.295 L 37.535,15.259 S 37.517,15.259 37.517,15.241 H 37.5 L 37.282,15.078 C 37.227,15.042 37.172,14.988 37.118,14.951 C 37.083,14.915 37.046,14.897 36.992,14.861 C 36.92,14.807 36.829,14.753 36.756,14.698 C 36.738,14.68 36.702,14.662 36.684,14.644 C 36.594,14.571 36.484,14.517 36.394,14.444 C 36.376,14.444 36.376,14.444 36.358,14.426 C 36.248,14.354 36.141,14.282 36.032,14.227 C 35.904,14.155 35.796,14.082 35.687,14.01 H 35.67 A 2.838,2.838 0 0,0 35.343,13.83 C 35.325,13.811 35.308,13.811 35.271,13.793 C 35.181,13.739 35.09,13.703 34.999,13.648 L 34.889,13.594 L 34.673,13.485 C 34.618,13.449 34.546,13.431 34.491,13.395 C 34.437,13.377 34.382,13.341 34.328,13.322 A 1.056,1.056 0 0,0 34.111,13.232 C 34.075,13.286 34.021,13.34 33.984,13.412 A 0.383,0.383 0 0,1 33.93,13.503 L 33.875,13.612 C 33.857,13.648 33.839,13.685 33.839,13.721 C 33.821,13.756 33.803,13.775 33.785,13.811 C 33.785,13.848 33.767,13.883 33.749,13.921 C 33.749,13.957 33.732,13.993 33.732,14.029 C 33.713,14.066 33.713,14.102 33.695,14.138 C 33.695,14.174 33.695,14.21 33.677,14.247 V 14.356 C 33.658,14.392 33.658,14.41 33.658,14.446 V 14.773 A 0.226,0.226 0 0,1 33.677,14.882 C 33.677,14.918 33.695,14.954 33.695,14.991 C 33.695,15.027 33.712,15.063 33.712,15.081 C 33.731,15.117 33.731,15.154 33.749,15.191 C 33.749,15.226 33.767,15.263 33.767,15.299 C 33.785,15.336 33.803,15.353 33.803,15.389 L 33.857,15.499 C 33.857,15.516 33.875,15.553 33.894,15.589 C 33.911,15.625 33.93,15.644 33.948,15.68 C 33.966,15.717 33.984,15.735 34.003,15.77 C 34.021,15.806 34.039,15.825 34.057,15.861 C 34.075,15.897 34.111,15.915 34.129,15.951 C 34.148,15.971 34.165,16.006 34.202,16.024 C 34.219,16.06 34.238,16.078 34.274,16.114 L 34.346,16.187 L 34.42,16.26 C 34.435,16.256 34.472,16.273 34.49,16.292 Z M 31.843,28.695 C 31.923,28.653 32.545,28.514 32.586,28.514 H 32.949 C 33.006,28.514 33.075,28.532 33.129,28.55 C 33.148,28.388 33.148,28.242 33.148,28.097 C 33.148,27.862 33.148,27.644 33.112,27.427 C 33.094,27.427 33.057,27.427 33.039,27.446 C 32.931,27.446 32.84,27.463 32.731,27.463 C 31.517,27.446 30.521,26.467 30.521,25.253 C 30.521,24.711 30.719,24.204 31.045,23.823 A 4.68,4.68 0 0,0 30.23,23.317 C 29.922,24.185 29.088,24.783 28.11,24.783 A 2.21,2.21 0 0,1 25.99,23.226 A 6.5,6.5 0 0,0 25.138,23.715 C 25.173,23.769 25.228,23.805 25.265,23.86 C 25.282,23.895 25.301,23.914 25.319,23.95 C 25.336,23.968 25.355,24.004 25.373,24.023 C 26.025,25.054 25.718,26.43 24.703,27.065 C 24.576,27.137 24.449,27.209 24.323,27.264 C 24.197,27.302 24.07,27.333 23.941,27.354 C 23.796,27.39 23.67,27.39 23.543,27.39 C 23.398,27.39 23.271,27.39 23.145,27.354 C 23.072,27.354 23.017,27.336 22.945,27.318 A 4.882,4.882 0 0,0 22.908,28.441 C 23.053,28.423 23.198,28.405 23.343,28.405 C 24.558,28.405 25.554,29.4 25.554,30.596 C 25.554,30.74 25.536,30.886 25.518,31.013 C 25.487,31.149 25.444,31.282 25.391,31.411 A 1.572,1.572 0 0,1 25.21,31.754 A 1.923,1.923 0 0,1 24.974,32.062 C 24.92,32.117 24.883,32.152 24.846,32.206 C 25.154,32.46 25.517,32.696 25.88,32.859 C 25.897,32.859 26.187,32.225 26.242,32.152 C 27.292,30.776 29.559,31.192 30.084,32.894 C 30.474,32.721 30.84,32.496 31.171,32.225 C 30.139,31.211 30.465,29.382 31.843,28.695 Z M 28,30.144 C 29.214,30.144 30.21,29.183 30.21,27.989 A 2.186,2.186 0 0,0 28.018,25.798 C 26.804,25.798 25.808,26.775 25.808,27.971 C 25.788,29.165 26.786,30.144 28,30.144 Z" fill="rgb(254, 254, 253)" fill-rule="evenodd"/>
</svg>
