<?xml version="1.0" encoding="UTF-8"?>
<!-- generated by Finnhub -->
<svg viewBox="0 0 55.5 55.5" xmlns="http://www.w3.org/2000/svg">
<path d="M 0,0 H 55.5 V 55.5 H 0 Z" fill="rgb(239, 242, 248)"/>
<path d="M 40.82,18.564999999999998 C 38.12,16.58 34.86,14.7 31.07,12.94 C 29.78,12.34 28.41,11.7 26.99,12.14 C 25.73,12.54 24.56,13.12 23.39,13.7 L 22.76,14.02 A 54.37,54.37 0 0,0 15.52,18.3 A 4.85,4.85 0 0,0 13.22,22.44 A 75.51,75.51 0 0,0 13.21,33.76 C 13.33,35.4 13.67,36.35 15.03,37.36 A 54.86,54.86 0 0,0 25.21,43.16 C 26.68,43.84 27.97,44.36 29.61,43.67 A 68.8,68.8 0 0,0 38.75,38.96 C 39.87,38.27 40.85,37.54 41.68,36.77 C 42.83,35.71 42.92,33.87 42.95,32.43 L 43,26.17 C 43,24.33 42.9,22.75 42.69,21.43 A 4.37,4.37 0 0,0 40.83,18.58 Z M 22.84,15.6 A 157.2,157.2 0 0,1 27.41,18.23 C 27.61,18.33 27.81,18.38 28.03,18.36 C 28.63,18.32 29.16,18.43 29.62,18.71 C 30.48,19.23 29.94,20.12 29.21,20.37 C 28.48,20.61 27.81,20.57 27.17,20.25 C 26.79,20.05 26.7,19.77 26.59,19.41 L 26.57,19.35 A 0.38,0.38 0 0,0 26.4,19.14 L 21.63,16.44 A 0.62,0.62 0 0,0 21.01,16.44 C 19.68,17.23 18.23,18.14 16.66,19.19 C 15.53,19.95 14.71,20.65 14.58,22.05 A 66.02,66.02 0 0,0 14.58,34.25 C 14.65,34.99 14.94,35.58 15.47,36.02 A 25.3,25.3 0 0,0 19.52,38.74 A 0.07,0.07 0 0,0 19.59,38.7 V 33.86 C 19.59,33.38 19.5,33 19.31,32.72 A 2.07,2.07 0 0,1 18.95,31.22 C 19.06,30.31 20.12,30.42 20.63,30.88 C 21.32,31.5 22.02,32.88 21.08,33.58 A 0.29,0.29 0 0,0 20.96,33.81 L 21.02,39.36 A 0.35,0.35 0 0,0 21.2,39.66 C 22.73,40.5 24.35,41.32 26.06,42.13 C 27.13,42.63 28.09,42.95 29.22,42.45 A 71.16,71.16 0 0,0 38.74,37.39 C 39.11,37.16 39.45,36.89 39.8,36.62 L 40.38,36.17 A 2.3,2.3 0 0,0 41.38,34.51 A 126.45,126.45 0 0,0 41.72,29.85 A 0.1,0.1 0 0,0 41.68,29.81 A 0.1,0.1 0 0,0 41.58,29.81 L 36.96,32.47 A 0.68,0.68 0 0,0 36.67,32.8 C 36.47,33.28 36.15,33.66 35.71,33.94 C 35.14,34.3 34.32,34.14 34.27,33.39 C 34.19,32.43 34.57,31.69 35.4,31.16 C 35.69,30.98 36,30.95 36.33,31.06 A 0.55,0.55 0 0,0 36.77,31.01 L 41.55,28.37 A 0.32,0.32 0 0,0 41.73,28.07 C 41.74,26.22 41.64,24.22 41.43,22.07 C 41.33,21.07 40.94,20.32 40.13,19.72 A 51.7,51.7 0 0,0 29.17,13.61 A 2.82,2.82 0 0,0 27.09,13.54 A 58.58,58.58 0 0,0 22.82,15.47 A 0.1,0.1 0 0,0 22.84,15.6 Z" fill="rgb(215, 8, 37)" fill-rule="evenodd"/>
<path d="M 27.299999999999997,28.245 C 24.34,26.56 21.41,24.91 18.53,23.28 C 18.26,23.13 17.96,23.08 17.63,23.16 A 0.5,0.5 0 0,1 17.38,23.15 C 15.7,22.65 16.8,20.28 18.33,21.27 C 18.43,21.33 18.5,21.41 18.53,21.51 C 18.69,21.89 18.93,22.18 19.26,22.36 A 857,857 0 0,0 27.96,27.27 C 27.99,27.29 28.02,27.3 28.06,27.3 A 2061.5,2061.5 0 0,1 36.92,22.35 C 37.24,22.17 37.45,21.91 37.57,21.57 C 37.6,21.47 37.67,21.37 37.77,21.31 C 38.32,20.93 38.82,20.96 39.27,21.38 C 40.06,22.12 39.28,23.33 38.24,23.15 C 38.04,23.11 37.84,23.15 37.66,23.25 L 28.8,28.26 A 0.4,0.4 0 0,0 28.65,28.41 A 0.37,0.37 0 0,0 28.6,28.61 L 28.63,38.58 C 28.63,38.68 28.66,38.77 28.71,38.85 L 29.03,39.38 C 29.52,40.26 28.45,41.18 27.57,40.74 A 1.03,1.03 0 0,1 26.98,39.66 C 27.02,39.22 27.42,39.06 27.43,38.57 C 27.53,35.1 27.53,31.74 27.47,28.5 C 27.47,28.45 27.45,28.4 27.42,28.36 A 0.3,0.3 0 0,0 27.32,28.26 Z" fill="rgb(215, 8, 37)"/>
</svg>
