<?xml version="1.0" encoding="UTF-8"?>
<!-- generated by Finnhub -->
<svg viewBox="0 0 55.5 55.5" xmlns="http://www.w3.org/2000/svg">
<path d="M 0,0 H 55.5 V 55.5 H 0 Z" fill="rgb(239, 242, 248)"/>
<path d="M 12.25,26.375 C 13.14,23.34 14.88,20.72 16.43,18.02 C 16.72,17.52 17.17,17.1 17.68,16.85 C 18.42,16.47 19.02,16.05 19.49,15.57 C 20.43,14.62 21.39,13.73 22.39,12.9 C 23.6,11.88 25.49,11.87 27.02,12.17 C 28.83,12.53 30.52,13.13 32.32,13.47 C 33.56,13.7 34.85,14.01 36.19,14.4 C 36.89,14.6 37.21,15.24 37.57,15.82 C 38.02,16.57 38.84,17.05 39.43,17.7 L 41.17,19.63 C 41.54,20.03 41.77,20.59 41.81,21.15 A 5.64,5.64 0 0,0 42.96,24.26 A 4.14,4.14 0 0,1 44,27.42 C 43.99,28.49 43.63,29.5 43.65,30.56 C 43.68,31.59 43.7,32.5 43.33,33.48 C 42.63,35.34 41.9,37.07 40.62,38.48 C 39.76,39.42 38.82,40.38 37.78,41.38 A 4.14,4.14 0 0,1 35.15,42.61 C 34.1,42.7 33.06,43.12 32.09,43.53 A 8.56,8.56 0 0,1 28.87,44 C 26.95,44.03 25.04,43.78 23.13,43.26 C 22.36,43.04 21.57,42.72 20.79,42.29 L 17.07,40.23 A 8.3,8.3 0 0,1 15.04,38.38 C 14.62,37.91 14.24,37.44 13.87,36.98 A 5.96,5.96 0 0,1 12.69,33.21 C 12.68,32.19 12.71,31.08 12.36,30.13 A 5.88,5.88 0 0,1 12.27,26.39 Z" fill="rgb(3, 109, 148)"/>
<path d="M 29.08,42.815 C 29.11,42.83 29.12,42.84 29.12,42.86 A 0.04,0.04 0 0,1 29.09,42.91 L 27.49,42.96 A 2.6,2.6 0 0,1 26.91,42.91 C 26.63,42.86 26.37,42.81 26.11,42.74 A 2.2,2.2 0 0,0 25.26,42.67 C 25.2,42.67 25.16,42.65 25.13,42.59 A 0.12,0.12 0 0,0 25.05,42.52 C 24.33,42.3 23.58,42.04 22.81,41.75 A 2.6,2.6 0 0,1 21.91,41.15 C 21.59,40.82 21.17,40.6 20.82,40.28 L 19.46,39.03 C 18.91,38.52 18.41,37.93 17.96,37.27 C 17.79,37.02 17.6,36.77 17.39,36.52 A 4.32,4.32 0 0,1 16.83,35.72 C 16.3,34.71 15.93,33.79 15.71,32.94 C 15.61,32.53 15.43,31.56 15.19,30.05 A 8.72,8.72 0 0,1 15.06,28.24 A 15.35,15.35 0 0,1 15.62,25.01 L 15.68,24.93 A 8.92,8.92 0 0,1 18.75,19.19 L 20.21,17.88 A 0.3,0.3 0 0,1 20.32,17.82 C 20.57,17.74 20.62,17.55 20.82,17.42 C 21.07,17.26 21.3,17.06 21.5,16.82 A 0.27,0.27 0 0,1 21.64,16.74 C 21.85,16.69 22.02,16.57 22.14,16.37 C 22.2,16.29 22.27,16.24 22.35,16.23 C 22.4,16.23 22.45,16.21 22.49,16.19 C 22.85,15.99 23.24,15.74 23.64,15.64 C 23.92,15.58 24.13,15.43 24.39,15.34 L 26.41,14.72 A 4.82,4.82 0 0,1 27.94,14.5 C 29.04,14.47 30.13,14.55 31.19,14.74 C 31.51,14.79 31.84,14.88 32.17,14.99 C 33.36,15.39 34.67,15.99 36.13,16.78 C 36.43,16.94 36.7,17.12 36.95,17.32 L 37.72,17.97 C 38,18.2 38.31,18.51 38.64,18.88 C 38.92,19.2 39.22,19.51 39.52,19.8 C 39.73,20 39.85,20.23 40.06,20.42 C 40.53,20.83 40.85,21.31 41.01,21.84 C 41.11,22.18 41.22,22.49 41.36,22.79 C 41.46,23.01 41.44,23.22 41.54,23.44 C 41.78,23.96 41.99,24.49 42.15,25.04 C 42.16,25.07 42.18,25.09 42.21,25.09 H 42.26 V 25.08 H 42.27 C 42.27,25.51 42.46,25.87 42.47,26.31 C 42.47,26.83 42.52,27.35 42.59,27.87 C 42.62,28.1 42.55,28.32 42.56,28.55 A 12.65,12.65 0 0,1 42.14,32.65 L 41.84,33.48 C 41.73,33.78 41.61,34.07 41.47,34.36 C 41.3,34.76 41.19,35.15 40.95,35.52 C 40.59,36.11 40.23,36.67 39.86,37.2 C 39.71,37.43 39.53,37.65 39.32,37.86 C 39.12,38.06 38.95,38.28 38.79,38.54 A 0.77,0.77 0 0,1 38.49,38.83 C 38.32,38.91 38.15,39.03 38.02,39.17 C 37.81,39.43 37.55,39.69 37.25,39.93 L 36.47,40.59 C 36.02,40.97 35.55,41.24 35.04,41.39 L 34.71,41.54 A 1.3,1.3 0 0,1 34.29,41.69 A 0.1,0.1 0 0,0 34.22,41.74 L 34.2,41.8 L 34.16,41.84 C 33.08,42.26 32.02,42.73 30.82,42.71 C 30.57,42.71 30.29,42.73 29.96,42.77 C 29.69,42.81 29.4,42.82 29.09,42.8 C 28.99,42.8 28.99,42.8 29.09,42.83 Z" fill="rgb(7, 118, 157)"/>
<path d="M 28.869999999999997,16.645 C 28.98,16.63 29.09,16.63 29.2,16.64 H 29.5 A 7.9,7.9 0 0,1 33.22,17.4 L 34.52,18 A 12.7,12.7 0 0,1 37.24,19.65 C 37.58,19.92 37.92,20.24 38.24,20.58 L 38.84,21.24 C 39.07,21.48 39.26,21.72 39.42,21.97 C 39.75,22.48 40.06,23.01 40.36,23.53 C 40.51,23.8 40.65,24.09 40.76,24.39 L 41.1,25.25 C 41.26,25.68 41.36,26.18 41.41,26.78 C 41.43,26.97 41.47,27.16 41.55,27.35 C 41.62,27.54 41.65,27.74 41.65,27.95 C 41.63,28.95 41.78,29.89 41.6,30.88 C 41.6,30.91 41.58,30.93 41.55,30.94 A 0.13,0.13 0 0,0 41.48,31.04 C 41.38,31.65 41.28,32.28 41.2,32.93 C 41.19,33.06 41.12,33.27 41,33.57 L 40.7,34.17 C 40.47,34.55 40.3,34.95 40.14,35.37 A 10.76,10.76 0 0,1 38.6,37.62 C 37.83,38.46 37,39.25 36.1,39.97 A 0.27,0.27 0 0,1 35.98,40.02 A 0.38,0.38 0 0,0 35.82,40.1 C 35.62,40.26 35.4,40.4 35.17,40.53 A 7.9,7.9 0 0,0 34.47,40.91 C 34.21,41.08 33.92,41.2 33.61,41.27 C 33.38,41.33 33.16,41.41 32.94,41.52 C 32.72,41.63 32.47,41.72 32.18,41.76 A 16.75,16.75 0 0,1 25.16,41.38 V 41.36 A 0.1,0.1 0 0,0 25.14,41.27 A 0.15,0.15 0 0,0 25.06,41.22 A 8.03,8.03 0 0,1 21.59,39.25 A 1.95,1.95 0 0,1 21.26,38.84 C 21.13,38.63 20.98,38.44 20.79,38.26 A 4.37,4.37 0 0,1 20.31,37.72 A 113.15,113.15 0 0,1 19.59,36.79 A 0.12,0.12 0 0,0 19.54,36.78 H 19.45 C 19.44,36.78 19.43,36.78 19.43,36.76 A 0.74,0.74 0 0,0 19.3,36.51 L 18.13,34.91 A 4,4 0 0,1 17.65,34.09 C 17.48,33.69 17.33,33.26 17.2,32.81 A 4.6,4.6 0 0,1 17.02,31.61 C 17.01,30.97 16.98,30.29 16.94,29.58 A 9.28,9.28 0 0,1 17.67,25.23 C 18.08,24.25 18.6,23.2 19.22,22.08 C 19.33,21.88 19.47,21.68 19.64,21.52 C 19.69,21.48 19.71,21.42 19.72,21.35 C 19.72,21.28 19.74,21.22 19.79,21.18 C 20.09,20.92 20.34,20.62 20.53,20.31 C 20.57,20.25 20.62,20.21 20.68,20.17 C 21.02,20 21.32,19.79 21.6,19.54 C 21.86,19.31 22.15,19.09 22.48,18.89 L 23.45,18.33 C 23.95,18.06 24.52,17.8 25.17,17.56 C 25.47,17.46 25.75,17.34 26.04,17.23 C 26.75,16.96 27.48,16.8 28.23,16.76 C 28.29,16.76 28.35,16.74 28.41,16.71 A 0.42,0.42 0 0,1 28.75,16.65 C 28.79,16.67 28.84,16.67 28.88,16.65 Z" fill="rgb(14, 135, 171)"/>
<path d="M 34.59,38.195 C 34.33,38.41 34.03,38.56 33.7,38.64 C 33.3,38.74 32.91,38.84 32.53,38.97 C 32.05,39.11 31.62,39.19 31.24,39.19 A 13.5,13.5 0 0,1 27.74,38.73 A 2.71,2.71 0 0,1 26.57,38.07 A 0.22,0.22 0 0,0 26.39,38.01 A 0.14,0.14 0 0,1 26.26,37.94 A 0.38,0.38 0 0,0 26.08,37.76 A 0.5,0.5 0 0,1 25.93,37.66 L 25.25,36.92 A 0.27,0.27 0 0,0 25.09,36.84 A 0.6,0.6 0 0,1 24.64,36.53 L 23.29,34.17 A 5.23,5.23 0 0,1 22.58,31.78 C 22.55,31.07 22.62,30.28 22.78,29.4 C 22.96,28.47 23.32,27.58 23.86,26.72 C 24.15,26.26 24.44,25.76 24.72,25.23 C 24.78,25.12 24.89,25.06 25.05,25.07 C 25.09,25.07 25.13,25.05 25.15,25.01 C 25.21,24.91 25.28,24.84 25.37,24.77 L 26.35,24.05 A 0.18,0.18 0 0,1 26.45,24.02 H 26.51 C 26.54,24.02 26.57,24.02 26.6,23.99 C 26.86,23.77 27.12,23.58 27.36,23.41 C 27.56,23.27 27.8,23.19 28.08,23.16 L 30.14,22.98 C 30.78,22.93 31.42,22.93 32.04,22.98 C 32.34,23 32.74,23.13 33.22,23.38 L 34.7,24.1 C 35.18,24.33 35.7,24.64 36.23,25.02 C 36.28,25.05 36.33,25.07 36.39,25.07 H 36.57 C 36.64,25.07 36.67,25.11 36.67,25.18 V 25.33 C 36.67,25.39 36.7,25.45 36.74,25.49 C 37.07,25.87 37.37,26.28 37.64,26.71 L 38.05,27.38 C 38.15,27.55 38.24,27.72 38.29,27.9 C 38.37,28.16 38.51,28.38 38.55,28.65 C 38.59,28.93 38.65,29.2 38.75,29.48 C 38.83,29.73 38.88,30 38.89,30.3 L 38.91,31.08 A 8.26,8.26 0 0,1 37.99,34.75 A 11.17,11.17 0 0,1 35.45,37.82 A 0.22,0.22 0 0,1 35.27,37.87 C 35.23,37.87 35.19,37.88 35.16,37.91 C 35.03,38.02 34.89,38.11 34.73,38.15 A 0.38,0.38 0 0,0 34.6,38.21 Z" fill="rgb(23, 158, 189)"/>
<path d="M 29.95,35.894999999999996 A 7.9,7.9 0 0,1 27.9,35.31 C 26.9,34.88 26.24,33.74 26.04,32.76 C 25.89,32 25.76,31.21 25.64,30.4 C 25.59,30.04 25.64,29.65 25.8,29.32 C 26.3,28.32 26.72,27.34 27.55,26.58 C 28.18,26 28.75,25.52 29.26,25.15 C 29.55,24.94 30,24.89 30.34,24.94 C 31.66,25.14 34.04,25.24 34.89,26.47 A 13.56,13.56 0 0,1 36.53,29.54 C 36.83,30.35 36.88,31.54 36.54,32.39 C 35.98,33.8 35.04,35.44 33.54,35.79 C 32.46,36.05 31.27,36.09 29.96,35.91 Z" fill="rgb(80, 254, 252)"/>
</svg>
