<?xml version="1.0" encoding="UTF-8"?>
<!-- generated by Finnhub -->
<svg viewBox="0 0 55.5 55.5" xmlns="http://www.w3.org/2000/svg">
<path d="M 0,0 H 55.5 V 55.5 H 0 Z" fill="rgb(21, 98, 113)"/>
<path d="M 15.89,23.165 C 16.8,26.31 18.3,28.84 20.37,30.78 C 20.49,30.89 20.57,31.03 20.6,31.2 C 20.67,31.61 20.52,31.84 20.16,31.9 C 19.64,32 19.03,31.85 18.32,31.47 C 17.52,31.04 16.66,30.52 15.73,29.89 C 15.56,29.78 15.49,29.82 15.53,30.03 C 15.64,30.8 15.9,31.48 16.28,32.09 C 17.16,33.49 18.25,34.84 19.56,36.15 C 19.82,36.4 20.04,36.76 20.24,37.23 C 20.29,37.34 20.28,37.45 20.22,37.55 A 0.35,0.35 0 0,1 19.96,37.75 C 19.53,37.82 19.14,37.78 18.81,37.64 C 18.03,37.3 16.96,36.81 15.58,36.16 C 15.12,35.95 14.88,36.1 14.88,36.61 V 39.77 C 14.88,39.92 14.81,39.99 14.68,39.99 H 13.88 C 13.76,39.99 13.7,39.93 13.7,39.81 V 36.21 C 13.7,36.11 13.64,36.06 13.53,36.11 C 12.73,36.41 12.23,36.61 12.06,36.71 C 11.13,37.21 10.06,37.48 8.86,37.51 A 0.7,0.7 0 0,1 8.22,37.14 C 8.04,36.86 8.09,36.62 8.36,36.42 C 11.15,34.37 12.86,32.37 13.49,30.44 C 13.69,29.82 13.53,29.69 12.99,30.07 A 7.17,7.17 0 0,1 9.35,31.5 C 8.07,31.58 7.86,31.15 8.73,30.18 L 9.54,29.34 C 10.64,28.22 11.34,27.4 11.66,26.89 C 12.2,26.01 12.7,24.76 13.16,23.14 C 13.16,23.08 13.16,23.04 13.11,23.01 C 13.07,22.98 13.02,22.98 12.98,23.01 C 10.76,24.59 9.18,25.19 8.23,24.81 A 0.35,0.35 0 0,1 8.01,24.54 A 0.35,0.35 0 0,1 8.12,24.19 A 22.82,22.82 0 0,0 13.56,16.79 C 13.69,16.51 13.81,16.32 13.9,16.25 C 14.33,15.9 14.75,15.92 15.15,16.29 C 15.25,16.38 15.31,16.48 15.36,16.6 A 23.17,23.17 0 0,0 20.06,24.23 C 20.84,25.07 20.68,25.4 19.58,25.23 A 5.47,5.47 0 0,1 17.82,24.5 C 17.51,24.32 17.12,24.02 16.67,23.6 L 16.07,23.08 C 15.9,22.95 15.85,22.98 15.91,23.18 Z M 29.78,23.14 C 29.52,22.94 29.45,22.99 29.55,23.31 C 30.64,26.7 32.12,29.16 34,30.7 C 34.17,30.84 34.25,31.02 34.26,31.24 C 34.26,31.8 33.99,32.04 33.43,31.94 C 32.67,31.83 31.58,31.31 30.17,30.39 L 29.42,29.92 C 29.2,29.78 29.12,29.84 29.17,30.1 A 7.45,7.45 0 0,0 30.65,33.19 A 56.47,56.47 0 0,0 33.75,36.77 C 33.85,36.87 33.9,37 33.89,37.15 C 33.87,37.82 33.43,37.99 32.58,37.67 C 31.55,37.27 30.35,36.73 28.98,36.07 A 0.29,0.29 0 0,0 28.68,36.08 A 0.3,0.3 0 0,0 28.53,36.35 V 39.78 C 28.53,39.93 28.46,40 28.33,40 H 27.51 C 27.4,40 27.34,39.94 27.34,39.82 V 36.27 A 0.2,0.2 0 0,0 27.24,36.09 A 0.2,0.2 0 0,0 27.04,36.09 A 9.93,9.93 0 0,1 22.74,37.5 C 22.23,37.54 21.91,37.36 21.79,36.95 C 21.72,36.72 21.79,36.55 21.98,36.41 A 16.78,16.78 0 0,0 26.13,32.48 C 26.6,31.82 26.95,31.08 27.17,30.26 C 27.28,29.83 27.15,29.74 26.78,29.99 A 7.82,7.82 0 0,1 23.28,31.49 C 21.64,31.62 21.41,31.11 22.58,29.95 A 43.4,43.4 0 0,0 24.9,27.43 C 25.45,26.79 26.02,25.6 26.6,23.88 L 26.79,23.33 C 26.91,22.97 26.82,22.89 26.5,23.1 C 24.68,24.3 23.42,24.9 22.72,24.91 C 21.52,24.94 21.36,24.54 22.24,23.72 C 24.28,21.82 25.93,19.52 27.2,16.82 C 27.4,16.41 27.63,16.15 27.89,16.06 C 28.21,15.95 28.51,16.03 28.79,16.31 C 28.89,16.41 29.01,16.66 29.17,17.05 C 30.3,19.85 31.91,22.35 34,24.55 C 34.09,24.65 34.14,24.8 34.14,25.01 C 34.14,25.25 34.03,25.36 33.79,25.32 A 5.45,5.45 0 0,1 30.76,24.01 C 30.31,23.59 29.98,23.31 29.78,23.14 Z M 42.92,30.27 C 42.82,29.83 42.95,29.74 43.32,30 C 45.4,31.48 46.8,32.13 47.54,31.93 A 0.59,0.59 0 0,0 47.98,31.47 A 0.6,0.6 0 0,0 47.8,30.87 A 16.12,16.12 0 0,1 43.3,23.29 C 43.21,22.95 43.29,22.91 43.54,23.15 A 9.65,9.65 0 0,0 45.34,24.59 C 45.97,24.96 46.71,25.2 47.54,25.32 C 47.67,25.34 47.77,25.28 47.81,25.15 A 0.63,0.63 0 0,0 47.79,24.73 A 1,1 0 0,0 47.63,24.43 A 21.92,21.92 0 0,1 42.76,16.68 A 0.93,0.93 0 0,0 42.12,16.08 A 0.9,0.9 0 0,0 41.27,16.24 A 1.3,1.3 0 0,0 40.89,16.8 A 22.18,22.18 0 0,1 35.51,24.15 C 35.41,24.25 35.37,24.35 35.39,24.49 C 35.41,24.63 35.48,24.73 35.6,24.79 C 36.09,25.02 36.63,25 37.22,24.73 A 19.02,19.02 0 0,0 40.21,23.1 C 40.46,22.92 40.54,22.98 40.46,23.28 A 15.97,15.97 0 0,1 39.4,26.27 C 39.1,26.87 38.33,27.8 37.12,29.06 C 36.37,29.83 35.9,30.36 35.7,30.66 C 35.48,31 35.54,31.26 35.87,31.46 C 35.97,31.52 36.07,31.54 36.17,31.54 A 7.8,7.8 0 0,0 40.61,29.91 C 40.76,29.81 40.84,29.84 40.83,30.03 C 40.82,30.53 40.64,31.09 40.3,31.7 C 39.85,32.51 39.3,33.25 38.66,33.9 C 38.25,34.33 37.51,34.98 36.45,35.86 L 35.72,36.46 A 0.53,0.53 0 0,0 35.54,37.04 C 35.61,37.28 35.76,37.41 35.99,37.44 C 37.3,37.64 38.89,37.19 40.73,36.09 A 0.2,0.2 0 0,1 40.95,36.09 C 41.02,36.13 41.05,36.19 41.05,36.28 V 39.81 C 41.05,39.94 41.12,40 41.25,40 H 41.95 C 42.13,40 42.22,39.91 42.22,39.73 V 36.37 C 42.22,36.25 42.27,36.15 42.38,36.09 A 0.3,0.3 0 0,1 42.7,36.06 C 44,36.68 45.09,37.18 45.98,37.57 C 46.42,37.77 46.78,37.85 47.06,37.82 A 0.58,0.58 0 0,0 47.58,37.42 A 0.6,0.6 0 0,0 47.46,36.76 L 46.76,36 A 32.85,32.85 0 0,1 44.39,33.27 A 8.28,8.28 0 0,1 42.92,30.27 Z" fill="rgb(254, 254, 253)"/>
</svg>
