<?xml version="1.0" encoding="UTF-8"?>
<!-- generated by Finnhub -->
<svg viewBox="0 0 55.5 55.5" xmlns="http://www.w3.org/2000/svg">
<path d="M 0,0 H 55.5 V 55.5 H 0 Z" fill="rgb(239, 242, 248)"/>
<path d="M 33.57,16.285 A 0.07,0.07 0 0,0 33.53,16.35 L 33.54,16.39 L 33.56,16.42 C 34.94,17.36 36.28,18.38 37.61,19.51 C 37.83,19.69 37.84,19.88 37.65,20.09 L 37.48,20.28 C 37.31,20.46 37.14,20.47 36.96,20.3 A 24.71,24.71 0 0,0 26.84,14.25 A 16.6,16.6 0 0,0 20.97,13.57 A 7.9,7.9 0 0,0 15.74,15.78 A 5.67,5.67 0 0,0 16.23,24.4 L 16.26,24.52 C 16.26,24.75 16.13,24.84 15.87,24.81 A 0.33,0.33 0 0,1 15.7,24.73 C 13.63,23.02 12.75,20.93 13.06,18.43 A 6.88,6.88 0 0,1 15.56,13.97 A 8.56,8.56 0 0,1 21.24,12 A 12.9,12.9 0 0,1 25.69,12.59 C 26.57,12.84 27.44,13.09 28.24,13.47 C 28.5,13.6 28.76,13.7 29.03,13.82 C 29.43,13.99 29.86,14.16 30.27,14.39 L 32.15,15.45 A 0.28,0.28 0 0,0 32.39,15.47 A 11.4,11.4 0 0,1 38.01,14.77 C 40.69,15.07 41.79,17.29 40.41,19.69 A 8.4,8.4 0 0,1 38.54,21.98 A 19.48,19.48 0 0,1 34.46,24.68 A 23.35,23.35 0 0,1 22.65,26.95 C 22.56,26.95 22.52,26.9 22.51,26.82 C 22.48,26.63 22.64,26.52 22.97,26.46 H 23.03 C 27.92,26.39 32.63,25.14 36.53,22.22 A 14.01,14.01 0 0,0 39.26,19.52 C 40.03,18.5 40.66,16.89 39.33,16.07 C 37.83,15.13 35.09,15.68 33.59,16.3 Z M 40.58,22.04 A 0.2,0.2 0 0,1 40.75,22.01 C 40.78,22.01 40.81,22.03 40.83,22.05 C 40.86,22.07 40.88,22.1 40.89,22.13 L 42.92,26.08 A 0.73,0.73 0 0,1 42.99,26.54 A 0.62,0.62 0 0,1 42.91,26.75 A 0.49,0.49 0 0,1 42.78,26.9 L 42.74,26.92 A 0.4,0.4 0 0,1 42.37,26.98 A 0.5,0.5 0 0,1 42.19,26.87 A 0.64,0.64 0 0,1 42.06,26.69 L 40.03,22.74 A 0.3,0.3 0 0,1 40.01,22.54 A 0.27,0.27 0 0,1 40.11,22.37 L 40.58,22.04 Z M 31.15,17.54 A 5.47,5.47 0 0,0 29.59,17.57 C 29.37,17.61 29.15,17.57 28.93,17.48 A 6.1,6.1 0 0,0 24.13,17.5 A 0.17,0.17 0 0,0 24.03,17.65 C 23.9,19.19 25.34,20.12 26.79,20.3 C 26.87,20.31 26.95,20.29 27.01,20.23 A 10.92,10.92 0 0,1 31.17,17.75 C 31.47,17.65 31.46,17.59 31.15,17.55 Z M 27,18 A 0.5,0.5 0 0,1 26.5,18.49 A 0.5,0.5 0 0,1 26,18 C 26,17.73 26.22,17.5 26.5,17.5 S 27,17.73 27,18 Z M 17.66,30.99 A 19.86,19.86 0 0,1 24.61,19.86 L 24.69,19.87 A 15.7,15.7 0 0,0 26.56,20.67 V 20.69 L 26.54,20.71 A 8.3,8.3 0 0,0 24.37,24.66 C 24.35,24.74 24.3,24.78 24.21,24.79 C 22.01,25.03 20.43,27.2 19.69,29.09 C 19.36,29.97 19.12,30.93 18.99,31.99 C 18.8,33.59 19.07,35.09 19.78,36.52 A 5.88,5.88 0 0,0 24.77,39.82 C 25.05,39.86 25.08,39.95 24.85,40.12 A 3.3,3.3 0 0,1 23.12,40.71 A 0.1,0.1 0 0,0 23.09,40.75 A 0.09,0.09 0 0,0 23.11,40.85 C 25.07,42.71 28.06,43.29 30.73,42.82 A 10.26,10.26 0 0,0 37.93,38.12 A 9.41,9.41 0 0,0 39.36,31.71 C 39.14,29.93 37.83,28.3 35.89,28.11 A 6.75,6.75 0 0,0 29.06,32.07 A 5.16,5.16 0 0,0 28.7,34.1 C 28.7,34.2 28.75,34.23 28.84,34.2 C 31.62,33.15 32.9,36.91 30.27,37.72 C 28.65,38.22 27.34,36.59 27.07,35.19 C 26.54,32.37 28.17,29.76 30.67,28.34 A 8.24,8.24 0 0,1 35.87,27.38 C 38.08,27.65 39.47,28.9 40.37,30.78 C 41.36,32.83 41.13,35.63 40.09,37.62 C 37.7,42.17 32.81,44.37 27.56,43.95 A 12.24,12.24 0 0,1 18.8,39.15 A 13.77,13.77 0 0,1 16.34,33.88 A 12.77,12.77 0 0,1 18.01,24.02 A 0.1,0.1 0 0,0 17.96,23.94 A 0.1,0.1 0 0,0 17.91,23.93 L 16.95,23.98 L 16.89,23.97 A 0.1,0.1 0 0,1 16.85,23.92 A 0.1,0.1 0 0,1 16.86,23.82 A 10.4,10.4 0 0,1 18.69,22.22 C 18.93,22.05 18.9,21.96 18.61,21.94 L 18.38,21.95 C 17.98,22 17.93,21.91 18.26,21.68 C 18.68,21.38 19.12,21.11 19.57,20.86 C 19.67,20.8 19.67,20.76 19.57,20.7 A 0.75,0.75 0 0,0 19.2,20.64 C 19.11,20.64 19.07,20.61 19.07,20.52 C 19.07,20.42 19.11,20.35 19.21,20.31 C 19.73,20.08 20.25,19.88 20.79,19.71 C 20.86,19.69 20.89,19.65 20.87,19.58 L 20.85,19.51 H 20.84 C 20.58,19.55 20.39,19.51 20.26,19.38 A 0.12,0.12 0 0,1 20.31,19.18 L 21.68,18.73 C 21.76,18.7 21.78,18.66 21.73,18.6 A 0.34,0.34 0 0,0 21.55,18.48 C 21.18,18.36 21.18,18.25 21.55,18.14 C 22.22,17.94 22.85,17.86 23.47,17.86 C 23.52,17.86 23.57,17.88 23.62,17.92 A 0.2,0.2 0 0,1 23.68,18.06 A 2.04,2.04 0 0,0 24.4,19.56 A 0.08,0.08 0 0,1 24.4,19.63 L 24.38,19.65 A 18.38,18.38 0 0,0 18.7,26.83 A 12.78,12.78 0 0,0 17.66,30.99 Z M 22.35,20.34 A 0.04,0.04 0 0,1 22.32,20.34 A 0.04,0.04 0 0,1 22.29,20.33 V 20.32 A 0.37,0.37 0 0,1 22.26,19.95 A 0.8,0.8 0 0,1 22.56,19.59 L 22.62,19.54 C 22.77,19.44 22.93,19.39 23.08,19.39 C 23.23,19.39 23.36,19.44 23.43,19.54 L 23.44,19.55 A 0.03,0.03 0 0,1 23.44,19.6 L 22.34,20.34 Z M 20.77,21.92 H 20.79 L 21.66,20.94 V 20.9 H 21.65 A 0.37,0.37 0 0,0 21.48,20.81 A 0.52,0.52 0 0,0 21.27,20.82 A 0.74,0.74 0 0,0 21.05,20.92 A 0.9,0.9 0 0,0 20.85,21.08 L 20.81,21.13 A 0.86,0.86 0 0,0 20.67,21.33 A 0.68,0.68 0 0,0 20.61,21.56 A 0.4,0.4 0 0,0 20.73,21.91 H 20.75 L 20.77,21.92 Z M 19.5,23.57 L 19.48,23.58 H 19.45 V 23.57 A 0.39,0.39 0 0,1 19.28,23.24 C 19.28,23.1 19.34,22.94 19.43,22.81 L 19.47,22.76 C 19.52,22.69 19.57,22.63 19.64,22.58 A 0.7,0.7 0 0,1 19.84,22.48 A 0.5,0.5 0 0,1 20.04,22.45 C 20.11,22.45 20.17,22.47 20.22,22.51 A 0.03,0.03 0 0,1 20.23,22.55 L 19.5,23.57 Z M 18.46,25.5 L 18.48,25.48 L 18.99,24.31 V 24.29 A 0.03,0.03 0 0,0 18.98,24.27 H 18.96 A 0.31,0.31 0 0,0 18.79,24.25 A 0.49,0.49 0 0,0 18.6,24.32 A 0.76,0.76 0 0,0 18.43,24.48 A 0.96,0.96 0 0,0 18.3,24.7 L 18.29,24.74 A 0.83,0.83 0 0,0 18.22,25.2 C 18.24,25.34 18.32,25.45 18.42,25.49 H 18.46 Z M 17.7,27.36 L 17.68,27.39 H 17.62 C 17.54,27.36 17.48,27.29 17.45,27.16 A 0.86,0.86 0 0,1 17.48,26.74 L 17.49,26.69 A 1,1 0 0,1 17.59,26.49 A 0.74,0.74 0 0,1 17.7,26.32 A 0.4,0.4 0 0,1 17.84,26.22 A 0.2,0.2 0 0,1 17.97,26.22 H 18 L 18.03,26.24 V 26.27 L 17.71,27.37 Z M 17.17,29.26 V 29.25 L 17.44,28.27 V 28.24 L 17.41,28.22 H 17.39 A 0.23,0.23 0 0,0 17.26,28.22 A 0.37,0.37 0 0,0 17.13,28.31 A 0.6,0.6 0 0,0 17.02,28.45 A 0.77,0.77 0 0,0 16.94,28.63 L 16.92,28.7 A 0.76,0.76 0 0,0 16.89,28.9 C 16.89,28.96 16.9,29.02 16.92,29.07 C 16.94,29.13 16.96,29.17 16.99,29.2 C 17.02,29.24 17.06,29.26 17.1,29.27 H 17.12 A 0.04,0.04 0 0,0 17.15,29.27 L 17.17,29.26 Z" fill="rgb(175, 143, 102)" fill-rule="evenodd"/>
</svg>
