<?xml version="1.0" encoding="UTF-8"?>
<!-- generated by Finnhub -->
<svg viewBox="0 0 55.5 55.5" xmlns="http://www.w3.org/2000/svg">
<path d="M 0,0 H 55.5 V 55.5 H 0 Z" fill="rgb(239, 242, 248)"/>
<path d="M 4.3500000000000005,23.985 H 9.72 A 0.1,0.1 0 0,1 9.77,24.07 A 0.1,0.1 0 0,1 9.77,24.11 L 9.64,24.71 A 0.1,0.1 0 0,1 9.55,24.78 L 4.25,24.77 A 0.1,0.1 0 0,1 4.18,24.74 A 0.1,0.1 0 0,1 4.16,24.66 L 4.27,24.08 A 0.1,0.1 0 0,1 4.3,24.03 A 0.1,0.1 0 0,1 4.36,24 Z" fill="rgb(0, 121, 175)"/>
<path d="M 27.15,25.535 A 0.36,0.36 0 0,0 27.28,26 C 27.45,26.12 27.64,26.2 27.85,26.26 C 28.35,26.4 28.78,26.56 29.13,26.76 C 29.61,27.01 29.81,27.4 29.75,27.93 C 29.58,29.45 28.13,30.13 26.74,29.98 C 25.65,29.87 25.09,29.18 25.03,28.1 A 0.08,0.08 0 0,1 25.08,28.01 L 25.11,28 H 26.37 A 0.14,0.14 0 0,1 26.49,28.08 C 26.75,28.62 27.16,28.87 27.74,28.66 C 28.28,28.47 28.22,27.87 27.7,27.7 L 26.46,27.31 C 25.91,27.14 25.49,26.72 25.5,26.11 C 25.53,24.75 26.6,24.04 27.88,24.01 C 29.01,23.97 29.91,24.49 29.96,25.68 C 29.96,25.77 29.93,25.81 29.84,25.81 H 28.65 A 0.12,0.12 0 0,1 28.53,25.73 C 28.33,25.33 27.99,25.19 27.5,25.28 A 0.46,0.46 0 0,0 27.16,25.55 Z" fill="rgb(170, 171, 172)"/>
<path d="M 5.61,25.525 H 4.08 L 4.05,25.53 A 0.09,0.09 0 0,1 4.02,25.51 A 0.08,0.08 0 0,1 4,25.44 L 4.08,25.07 C 4.08,25.05 4.1,25.03 4.11,25.02 A 0.09,0.09 0 0,1 4.17,25 H 9.48 A 0.09,0.09 0 0,1 9.55,25.03 A 0.08,0.08 0 0,1 9.57,25.1 L 9.47,25.47 C 9.47,25.48 9.47,25.5 9.45,25.51 A 0.09,0.09 0 0,1 9.39,25.53 L 7.78,25.55 C 7.76,25.55 7.74,25.55 7.72,25.57 A 0.08,0.08 0 0,0 7.69,25.62 L 7.64,25.92 C 7.64,25.95 7.63,25.96 7.61,25.98 A 0.09,0.09 0 0,1 7.56,26 H 5.7 A 0.09,0.09 0 0,1 5.63,25.97 A 0.08,0.08 0 0,1 5.62,25.9 L 5.69,25.64 A 0.08,0.08 0 0,0 5.67,25.57 A 0.09,0.09 0 0,0 5.61,25.54 Z" fill="rgb(0, 121, 175)"/>
<path d="M 45.550000000000004,26.355 C 45.24,25.99 44.66,26.16 44.41,26.51 C 44.09,26.95 43.62,28.61 44.43,28.81 C 45.06,28.96 45.28,28.59 45.52,28.09 C 45.54,28.04 45.57,28 45.62,28 H 46.8 L 46.83,28.03 A 0.08,0.08 0 0,1 46.87,28.08 V 28.11 C 46.84,28.31 46.77,28.51 46.67,28.68 C 46.02,29.78 45.09,30.19 43.87,29.92 C 42.23,29.55 42.37,27.49 43.01,26.36 A 2.47,2.47 0 0,1 45.11,25 C 46.27,24.93 47.03,25.55 47.07,26.77 C 47.07,26.87 47.02,27 46.91,27 H 45.86 C 45.72,27 45.66,26.86 45.68,26.72 C 45.71,26.62 45.66,26.5 45.56,26.37 Z" fill="rgb(170, 171, 172)"/>
<path d="M 24.41,25.985 H 23.02 A 0.05,0.05 0 0,1 22.98,25.98 A 0.06,0.06 0 0,1 22.97,25.93 L 23.12,25.04 S 23.12,25.02 23.14,25.01 L 23.17,25 L 24.57,25.02 H 24.59 L 24.61,25.03 A 0.06,0.06 0 0,1 24.61,25.08 L 24.47,25.95 L 24.46,25.99 H 24.42 Z M 14.08,25.88 C 14.08,25.96 14.06,26 13.98,26 H 9.92 C 9.86,26 9.84,25.97 9.85,25.9 L 9.99,25.1 C 10,25.05 10.03,25.01 10.09,25.01 C 11.19,24.99 12.15,25 12.98,25.06 C 13.43,25.09 14,25.32 14.08,25.88 Z M 16.39,25 H 17.87 C 17.89,25 17.9,25 17.91,25.02 C 17.93,25.02 17.93,25.04 17.94,25.06 L 18.07,25.92 A 0.08,0.08 0 0,1 18.06,25.97 L 18.03,25.99 L 18.01,26 H 15.95 L 15.92,25.99 A 0.07,0.07 0 0,1 15.89,25.96 A 0.08,0.08 0 0,1 15.89,25.89 L 16.33,25.04 L 16.36,25.01 H 16.39 Z M 21.82,26 H 19.94 L 19.91,25.98 S 19.89,25.98 19.89,25.96 L 19.88,25.94 V 25.91 L 20.03,25.06 L 20.05,25.02 L 20.09,25 H 21.45 L 21.48,25.01 L 21.51,25.04 L 21.88,25.9 A 0.08,0.08 0 0,1 21.88,25.97 L 21.85,25.99 H 21.82 Z" fill="rgb(0, 121, 175)"/>
<path d="M 34.11,27.845 L 34.99,25.04 C 34.99,25.02 35.01,25 35.03,25 H 36.35 L 36.36,25.04 L 34.58,29.88 A 0.16,0.16 0 0,1 34.52,29.95 C 34.5,29.97 34.47,30 34.44,30 H 33.2 C 33.1,30 33,29.95 33,29.85 V 27.43 C 33,27.17 32.97,27.16 32.9,27.41 L 32.16,29.91 A 0.1,0.1 0 0,1 32.12,29.96 C 32.11,29.97 32.09,30 32.07,30 H 30.8 C 30.78,30 30.76,29.98 30.74,29.96 A 0.08,0.08 0 0,1 30.72,29.91 L 30.42,25.07 A 0.06,0.06 0 0,1 30.46,25.01 H 30.49 L 31.69,25 C 31.72,25 31.75,25.02 31.77,25.05 C 31.79,25.07 31.8,25.1 31.8,25.13 V 27.74 C 31.8,27.99 31.85,28 31.92,27.76 L 32.78,25.09 C 32.78,25.06 32.8,25.04 32.83,25.02 A 0.12,0.12 0 0,1 32.9,25 H 33.86 C 33.96,25 34.01,25.06 34,25.16 V 27.86 C 34,28 34.07,28.01 34.12,27.86 Z M 36.13,29.88 L 36.87,25.08 A 0.1,0.1 0 0,1 36.91,25.02 A 0.1,0.1 0 0,1 36.97,25 H 38.19 A 0.1,0.1 0 0,1 38.26,25.04 A 0.1,0.1 0 0,1 38.29,25.12 L 37.56,29.89 A 0.1,0.1 0 0,1 37.53,29.95 C 37.51,29.97 37.49,30 37.47,30 H 36.23 A 0.1,0.1 0 0,1 36.15,29.96 A 0.1,0.1 0 0,1 36.13,29.88 Z M 38.67,26.22 L 38.83,25.09 A 0.1,0.1 0 0,1 38.86,25.03 A 0.1,0.1 0 0,1 38.92,25 H 42.77 A 0.1,0.1 0 0,1 42.82,25.1 L 42.63,26.24 A 0.1,0.1 0 0,1 42.6,26.3 A 0.1,0.1 0 0,1 42.54,26.32 H 41.46 C 41.44,26.32 41.39,26.32 41.37,26.34 A 0.1,0.1 0 0,0 41.34,26.4 L 40.81,29.9 A 0.1,0.1 0 0,1 40.77,29.97 C 40.76,29.98 40.74,30 40.72,30 H 39.48 A 0.09,0.09 0 0,1 39.41,29.97 A 0.1,0.1 0 0,1 39.38,29.89 L 39.92,26.42 C 39.94,26.32 39.85,26.33 39.79,26.33 H 38.73 A 0.1,0.1 0 0,1 38.67,26.26 A 0.1,0.1 0 0,1 38.67,26.22 Z M 48.8,28.07 L 48.5,29.92 C 48.5,29.94 48.49,29.96 48.47,29.97 C 48.47,29.98 48.44,30 48.42,30 H 47.16 L 47.13,29.99 A 0.08,0.08 0 0,1 47.1,29.97 A 0.08,0.08 0 0,1 47.09,29.9 L 47.81,25.07 C 47.81,25.05 47.83,25.03 47.84,25.02 A 0.07,0.07 0 0,1 47.89,25 H 49.17 A 0.07,0.07 0 0,1 49.23,25.03 A 0.08,0.08 0 0,1 49.25,25.09 L 49,26.6 A 0.08,0.08 0 0,0 49.02,26.67 L 49.05,26.69 H 50.28 C 50.29,26.69 50.31,26.69 50.32,26.67 A 0.08,0.08 0 0,0 50.35,26.62 L 50.58,25.07 C 50.58,25.05 50.59,25.03 50.61,25.02 A 0.07,0.07 0 0,1 50.66,25 H 51.95 A 0.08,0.08 0 0,1 52,25.06 V 25.09 L 51.26,29.93 C 51.26,29.95 51.26,29.97 51.24,29.98 A 0.08,0.08 0 0,1 51.19,30 H 49.89 A 0.08,0.08 0 0,1 49.86,29.97 A 0.08,0.08 0 0,1 49.84,29.9 L 50.13,28.09 A 0.08,0.08 0 0,0 50.11,28.02 A 0.08,0.08 0 0,0 50.05,28 H 48.87 L 48.82,28.02 A 0.08,0.08 0 0,0 48.8,28.07 Z" fill="rgb(170, 171, 172)"/>
<path d="M 5.63,26.265 L 7.46,26.27 A 0.09,0.09 0 0,1 7.55,26.33 V 26.37 L 7.45,26.92 C 7.45,26.94 7.44,26.96 7.42,26.97 C 7.41,26.99 7.39,27 7.37,27 H 5.52 A 0.09,0.09 0 0,1 5.43,26.93 V 26.89 L 5.56,26.34 C 5.56,26.32 5.57,26.31 5.59,26.29 A 0.09,0.09 0 0,1 5.64,26.28 Z M 18.18,27 H 15.4 A 0.07,0.07 0 0,1 15.34,26.97 A 0.07,0.07 0 0,1 15.34,26.9 L 15.66,26.3 C 15.66,26.28 15.67,26.27 15.68,26.27 L 15.72,26.26 H 18.1 L 18.12,26.3 L 18.24,26.92 A 0.07,0.07 0 0,1 18.23,26.97 A 0.07,0.07 0 0,1 18.18,27 Z M 22.29,27 H 19.77 A 0.06,0.06 0 0,1 19.73,26.98 A 0.07,0.07 0 0,1 19.71,26.92 L 19.81,26.35 C 19.81,26.33 19.81,26.32 19.83,26.31 A 0.06,0.06 0 0,1 19.87,26.29 H 22 A 0.06,0.06 0 0,1 22.05,26.33 L 22.34,26.9 A 0.07,0.07 0 0,1 22.31,26.99 H 22.28 Z M 9.84,26.29 H 13.97 A 0.11,0.11 0 0,1 14.06,26.33 A 0.11,0.11 0 0,1 14.07,26.43 L 13.92,26.92 L 13.88,26.97 A 0.12,0.12 0 0,1 13.81,27 H 9.76 A 0.1,0.1 0 0,1 9.67,26.96 A 0.11,0.11 0 0,1 9.65,26.86 L 9.73,26.38 L 9.77,26.31 A 0.1,0.1 0 0,1 9.84,26.29 Z M 22.96,26.29 H 24.32 A 0.06,0.06 0 0,1 24.37,26.31 A 0.06,0.06 0 0,1 24.39,26.36 L 24.28,26.94 L 24.26,26.98 L 24.22,27 H 22.86 A 0.06,0.06 0 0,1 22.81,26.98 A 0.07,0.07 0 0,1 22.79,26.92 L 22.89,26.34 A 0.06,0.06 0 0,1 22.96,26.29 Z M 20.92,28 H 19.59 A 0.07,0.07 0 0,1 19.53,27.95 V 27.92 L 19.63,27.38 C 19.63,27.36 19.63,27.35 19.65,27.34 A 0.07,0.07 0 0,1 19.69,27.32 H 21 A 0.07,0.07 0 0,1 21.05,27.34 A 0.07,0.07 0 0,1 21.06,27.39 L 20.99,27.94 C 20.99,27.95 20.99,27.97 20.97,27.98 A 0.07,0.07 0 0,1 20.93,28 Z M 22.72,27.4 L 22.75,27.37 A 0.16,0.16 0 0,1 22.87,27.31 H 24.17 A 0.05,0.05 0 0,1 24.23,27.37 L 24.1,27.96 C 24.1,27.99 24.07,28 24.04,28 H 21.58 A 0.2,0.2 0 0,1 21.48,27.97 A 0.21,0.21 0 0,1 21.4,27.89 L 21.19,27.43 C 21.15,27.36 21.17,27.32 21.26,27.32 H 22.43 A 0.2,0.2 0 0,1 22.55,27.36 L 22.58,27.4 C 22.62,27.49 22.67,27.49 22.72,27.4 Z M 7.2,28 H 5.36 L 5.33,27.98 A 0.08,0.08 0 0,1 5.28,27.93 V 27.89 L 5.38,27.38 L 5.4,27.33 A 0.08,0.08 0 0,1 5.46,27.31 H 7.32 A 0.08,0.08 0 0,1 7.38,27.34 A 0.09,0.09 0 0,1 7.4,27.41 L 7.28,27.93 C 7.28,27.95 7.27,27.97 7.25,27.98 A 0.08,0.08 0 0,1 7.2,28 Z M 13.26,27.7 C 13.36,27.74 13.46,27.8 13.53,27.86 C 13.63,27.96 13.61,28 13.48,28 H 9.5 C 9.48,28 9.47,27.98 9.48,27.96 L 9.58,27.34 C 9.58,27.32 9.6,27.31 9.62,27.31 H 13.47 C 13.57,27.31 13.57,27.35 13.51,27.41 A 0.42,0.42 0 0,1 13.3,27.54 A 0.14,0.14 0 0,0 13.2,27.61 V 27.64 C 13.2,27.67 13.22,27.69 13.25,27.7 Z M 18.33,28 H 14.93 C 14.91,28 14.9,27.98 14.89,27.97 A 0.08,0.08 0 0,1 14.85,27.9 V 27.86 L 15.12,27.36 A 0.08,0.08 0 0,1 15.19,27.31 H 18.23 L 18.28,27.33 C 18.3,27.34 18.31,27.36 18.31,27.38 L 18.41,27.88 A 0.08,0.08 0 0,1 18.37,27.98 L 18.33,28 Z M 23.87,29 H 21.9 A 0.06,0.06 0 0,1 21.84,28.96 L 21.62,28.41 A 0.06,0.06 0 0,1 21.65,28.34 L 21.68,28.33 L 24,28.32 A 0.06,0.06 0 0,1 24.05,28.34 A 0.06,0.06 0 0,1 24.05,28.39 L 23.95,28.95 L 23.92,28.98 A 0.06,0.06 0 0,1 23.88,29 Z M 7.02,29 H 5.17 A 0.09,0.09 0 0,1 5.1,28.96 A 0.1,0.1 0 0,1 5.09,28.88 L 5.19,28.42 A 0.1,0.1 0 0,1 5.22,28.37 A 0.09,0.09 0 0,1 5.28,28.35 H 7.12 A 0.09,0.09 0 0,1 7.19,28.38 A 0.1,0.1 0 0,1 7.21,28.46 L 7.11,28.92 A 0.09,0.09 0 0,1 7.02,28.99 Z M 12.06,28.31 L 13.61,28.32 H 13.63 A 0.04,0.04 0 0,1 13.65,28.37 L 13.61,28.94 L 13.6,28.97 L 13.57,29 H 12.19 A 0.04,0.04 0 0,1 12.15,28.96 L 12.01,28.36 V 28.35 A 0.04,0.04 0 0,1 12.04,28.32 H 12.06 Z M 14.7,28.35 L 18.39,28.36 C 18.41,28.36 18.43,28.36 18.44,28.38 A 0.1,0.1 0 0,1 18.47,28.43 L 18.57,28.89 A 0.1,0.1 0 0,1 18.55,28.97 A 0.09,0.09 0 0,1 18.48,29 H 14.45 A 0.09,0.09 0 0,1 14.37,28.95 A 0.1,0.1 0 0,1 14.37,28.86 L 14.61,28.4 A 0.09,0.09 0 0,1 14.69,28.35 Z M 20.77,29 H 19.48 A 0.1,0.1 0 0,1 19.4,28.96 A 0.11,0.11 0 0,1 19.37,28.86 L 19.44,28.46 C 19.44,28.43 19.46,28.4 19.48,28.39 A 0.1,0.1 0 0,1 19.55,28.36 H 20.81 A 0.1,0.1 0 0,1 20.89,28.4 A 0.11,0.11 0 0,1 20.92,28.48 L 20.88,28.89 C 20.88,28.92 20.86,28.95 20.84,28.97 A 0.1,0.1 0 0,1 20.77,29 Z M 9.48,28.35 H 10.81 A 0.11,0.11 0 0,1 10.91,28.43 C 10.92,28.45 10.93,28.46 10.92,28.48 L 10.85,28.9 C 10.85,28.93 10.83,28.95 10.81,28.97 A 0.11,0.11 0 0,1 10.74,29 H 9.4 L 9.35,28.98 A 0.11,0.11 0 0,1 9.29,28.9 V 28.86 L 9.37,28.44 C 9.37,28.41 9.38,28.39 9.4,28.37 A 0.11,0.11 0 0,1 9.47,28.35 Z M 6.88,30 H 4.96 A 0.07,0.07 0 0,1 4.93,29.95 V 29.92 L 5.02,29.4 C 5.02,29.38 5.02,29.37 5.04,29.36 A 0.07,0.07 0 0,1 5.08,29.34 H 6.98 A 0.07,0.07 0 0,1 7.04,29.42 L 6.94,29.94 C 6.94,29.96 6.94,29.97 6.92,29.98 A 0.07,0.07 0 0,1 6.88,30 Z M 15.3,30 H 13.9 L 13.88,29.98 A 0.05,0.05 0 0,1 13.86,29.92 L 14.15,29.35 L 14.16,29.33 H 15.61 L 15.63,29.35 A 0.05,0.05 0 0,1 15.63,29.39 L 15.35,29.96 L 15.33,29.98 L 15.31,30 Z M 17.2,29.33 H 18.63 L 18.65,29.38 L 18.75,29.92 A 0.07,0.07 0 0,1 18.71,29.99 H 17.28 L 17.23,29.98 A 0.07,0.07 0 0,1 17.21,29.93 L 17.13,29.41 A 0.07,0.07 0 0,1 17.17,29.33 H 17.2 Z M 22.08,29.34 H 23.86 A 0.05,0.05 0 0,1 23.89,29.4 L 23.79,29.97 L 23.76,29.99 L 23.73,30 H 22.33 L 22.31,29.98 L 22.29,29.96 L 22.04,29.41 A 0.05,0.05 0 0,1 22.06,29.34 H 22.08 Z M 10.61,30 H 9.21 A 0.06,0.06 0 0,1 9.15,29.96 V 29.93 L 9.21,29.39 L 9.23,29.36 A 0.06,0.06 0 0,1 9.27,29.34 H 10.7 A 0.06,0.06 0 0,1 10.76,29.38 V 29.41 L 10.67,29.94 C 10.67,29.96 10.67,29.97 10.65,29.98 A 0.06,0.06 0 0,1 10.61,29.99 Z M 12.11,29.34 H 13.51 L 13.55,29.35 L 13.57,29.39 L 13.59,29.94 A 0.05,0.05 0 0,1 13.58,29.98 L 13.56,29.99 H 13.54 L 12.06,30 L 12.04,29.98 A 0.05,0.05 0 0,1 12.01,29.95 V 29.93 L 12.07,29.38 L 12.08,29.35 L 12.11,29.34 Z M 20.64,30 H 19.27 A 0.07,0.07 0 0,1 19.22,29.97 A 0.08,0.08 0 0,1 19.2,29.91 L 19.27,29.41 C 19.27,29.38 19.27,29.37 19.29,29.36 A 0.07,0.07 0 0,1 19.34,29.34 H 20.72 A 0.07,0.07 0 0,1 20.78,29.37 A 0.07,0.07 0 0,1 20.79,29.43 L 20.71,29.93 L 20.69,29.98 A 0.07,0.07 0 0,1 20.64,30 Z M 24.79,31.47 L 25.09,31.79 L 27.09,33.86 C 27.15,33.92 27.14,33.96 27.06,33.96 C 26.7,33.99 26.47,33.98 26.16,33.75 C 25.56,33.29 24.99,32.86 24.41,32.45 L 24.02,32.18 C 23.82,32.01 23.62,31.85 23.4,31.71 A 1,1 0 0,0 22.85,31.56 A 12750.2,12750.2 0 0,1 4.69,31.54 L 4.85,30.47 C 4.85,30.45 4.86,30.44 4.88,30.44 H 23.68 C 23.74,30.44 23.81,30.47 23.86,30.52 L 24.79,31.47 Z" fill="rgb(0, 121, 175)"/>
<path d="M 25.119999999999997,31.805 L 24.81,31.5 L 25.57,30.59 A 0.4,0.4 0 0,1 25.88,30.44 H 51.16 C 51.23,30.44 51.26,30.48 51.24,30.57 L 51.17,30.86 C 51.14,30.96 51.09,31 51,31 H 26.1 A 0.44,0.44 0 0,0 25.75,31.18 C 25.55,31.42 25.36,31.63 25.11,31.82 Z M 24.06,32.2 L 24.46,32.48 L 23.08,33.84 A 0.5,0.5 0 0,1 22.73,33.99 H 22.39 C 22.26,34 22.24,33.96 22.33,33.86 L 24.06,32.21 Z" fill="rgb(170, 171, 172)"/>
</svg>
