<!-- by Finnhub --><svg width="56" height="56" viewBox="0 0 56 56" xmlns="http://www.w3.org/2000/svg"><path fill="#F0F3FA" d="M0 0h56v56H0z"/><path d="M32.64 22.79a18.6 18.6 0 0 0-3.78 1.95s-.5.33-1.03.96a3.4 3.4 0 0 0-1.75-1.38c-.89-.3-2.17-.8-3.68-1.37 1.42-6.29 5.23-12.61 5.23-12.61 2.07 3.33 4.07 8.6 5.01 12.45Z" fill="#CCD53A"/><path d="M21.88 27.2s.02.92.43 2c-1.4 0-3.31 1-5.17 2.26-4.2-4.57-6.88-12.34-6.88-12.34 3.83.74 8.6 2.5 12.14 3.83a19.5 19.5 0 0 0-.52 4.24Z" fill="#88BE45"/><path d="M26.97 31.4c-.7-1.08-1.93-2.19-4.66-2.2-.4-1.08-.43-2-.43-2 0-1.37.2-2.8.52-4.25 1.5.57 2.8 1.07 3.69 1.37a3.4 3.4 0 0 1 1.74 1.38 5.28 5.28 0 0 0-.86 5.7Z" fill="#CDD539"/><path d="M27.94 31.94a3.84 3.84 0 0 0-.23.51l-.08.15-.02.04c-.17-.36-.36-.8-.64-1.23a5.28 5.28 0 0 1 .86-5.7c1 1.5 1.11 3.9.11 6.23Z" fill="#B9CF2C"/><path d="M32.81 29.33a5.34 5.34 0 0 0-4.87 2.61c1-2.33.9-4.73-.11-6.24.54-.63 1.03-.96 1.03-.96a18.6 18.6 0 0 1 3.78-1.95c.35 1.44.55 2.69.55 3.56 0 .62.01 1.8-.38 2.98Z" fill="#97C24F"/><path d="M45.74 20.18c-1.6 3.73-4.88 8.55-7.53 11.48-1.86-1.26-3.76-2.27-5.16-2.33h-.24c.39-1.18.38-2.36.38-2.98 0-.87-.2-2.12-.55-3.56 5.88-2.3 13.1-2.61 13.1-2.61Z" fill="#28AB60"/><path d="M27.6 32.65v.02a3.05 3.05 0 0 0-1.85-.21 5.01 5.01 0 0 1-3.44-3.25c2.73 0 3.97 1.1 4.66 2.2.16.4.37.8.64 1.24Z" fill="#E9E224"/><path d="M25.75 32.46a3.56 3.56 0 0 0-2.65 2.24 8.15 8.15 0 0 1-3.24-.95 12.3 12.3 0 0 1-2.72-2.3C19 30.2 20.9 29.2 22.3 29.22a5.01 5.01 0 0 0 3.44 3.25Z" fill="#C2D22B"/><path d="M23.1 34.7c-.21.67-.34 2.42-.4 4.2h-.33c-5.56.13-11.67-2.1-11.67-2.1s3.15-3.1 6.44-5.34a12.3 12.3 0 0 0 2.72 2.29c.68.4 1.92.85 3.24.95Z" fill="#F2E627"/><path d="M38.21 31.66c-.88.97-1.69 1.74-2.34 2.2-.61.42-1.96 1.37-3.54 1.55-.04-.3-.1-.54-.15-.7a3.56 3.56 0 0 0-2.69-2.26 4.52 4.52 0 0 0 3.32-3.12h.24c1.4.06 3.3 1.07 5.16 2.33Z" fill="#96C246"/><path d="M32.81 29.33a4.52 4.52 0 0 1-3.32 3.12c-.6-.1-1.22-.05-1.84.23h-.02a3.21 3.21 0 0 1 .31-.73 5.34 5.34 0 0 1 4.87-2.62Z" fill="#E9E226"/><path d="M44.65 36.92s-6.1 2.24-11.66 2.11l-.4-.01a37.57 37.57 0 0 0-.26-3.6c1.58-.2 2.93-1.14 3.54-1.57.65-.45 1.46-1.22 2.34-2.19 3.3 2.23 6.44 5.26 6.44 5.26Z" fill="#9EC646"/><path d="M26.36 37.4a5.4 5.4 0 0 1-3.67 1.5c.07-1.78.2-3.53.41-4.2a5.36 5.36 0 0 0 2.98-.51 4.21 4.21 0 0 0 .28 3.2Z" fill="#86BD3F"/><path d="M27.59 32.68a.4.4 0 0 1-.03.04c-.72.36-1.22.82-1.48 1.47-.9.48-1.96.6-2.98.51.34-1.04 1.4-2 2.65-2.24.54.15 1.14.23 1.84.22Z" fill="#8ABE27"/><path d="M27.64 39.08c-1.97 2.19-5.04 4.58-5.04 4.58s0-2.4.1-4.77a5.4 5.4 0 0 0 3.66-1.5c.3.52.75 1.1 1.28 1.69Z" fill="#7EB638"/><path d="M27.65 35a5 5 0 0 1-1.29 2.4 4.21 4.21 0 0 1-.28-3.21c.59-.32 1.1-.79 1.48-1.46l.07-.04c-.13.45-.2 1.34.02 2.31Z" fill="#3FAD5B"/><path d="M29.22 36.67c-.05.23-.17.5-.33.78A5.1 5.1 0 0 1 27.65 35a4.23 4.23 0 0 0-.02-2.3c.54.85 1.11 1.47 1.7 1.9.11.56.08 1.24-.1 2.07Z" fill="#48AD40"/><path d="M32.33 35.41c-.96.11-2-.06-3-.8-.2-.9-.77-1.5-1.69-1.92h.01c.7-.02 1.3-.1 1.84-.24a3.56 3.56 0 0 1 2.69 2.25c.06.17.1.42.15.71Z" fill="#77B94D"/><path d="M32.6 39.02a5.36 5.36 0 0 1-3.71-1.57c.16-.28.28-.55.33-.78.19-.83.22-1.5.1-2.07a4.1 4.1 0 0 0 3 .81c.14.88.22 2.24.27 3.6Z" fill="#83BE5D"/><path d="M32.68 43.66s-3.07-2.4-5.04-4.58c.52-.58.96-1.13 1.25-1.63a5.36 5.36 0 0 0 3.7 1.57c.1 2.31.1 4.64.1 4.64Z" fill="#78BD77"/><path d="M28.89 37.45c-.3.5-.73 1.05-1.25 1.63-.53-.6-.99-1.17-1.28-1.68a5 5 0 0 0 1.29-2.4 5.1 5.1 0 0 0 1.24 2.45Z" fill="#2F9B59"/><path d="M27.53 32.84c-5.63 0-5.82-5.6-5.82-5.65 0-7.27 5.72-16.86 5.77-16.95l.14-.24.15.23c2.96 4.77 5.59 12.99 5.59 16.11v.05c0 1.58 0 6.39-5.73 6.45h-.1Zm.1-22.18c-.88 1.52-5.59 10-5.58 16.52 0 .01.04 1.37.75 2.7.94 1.77 2.56 2.64 4.82 2.62 5.4-.06 5.4-4.61 5.4-6.1v-.06c0-3.03-2.52-10.93-5.39-15.68Z" fill="#fff"/><path d="M23.68 34.9a8.38 8.38 0 0 1-3.9-1.01c-5.71-3.39-9.52-14.26-9.68-14.72l-.1-.29.29.06c4.14.8 9.45 2.81 12.97 4.14a111 111 0 0 0 2.87 1.07 3.76 3.76 0 0 1 2.28 2.32c.7 1.79.46 4.1-.64 6.2a3.91 3.91 0 0 1-2.46 2c-.53.16-1.08.22-1.63.22ZM10.52 19.33c.65 1.76 4.33 11.23 9.42 14.25 1.08.64 3.42 1.3 5.27.75a3.6 3.6 0 0 0 2.27-1.83c1.05-2 1.28-4.22.62-5.92a3.43 3.43 0 0 0-2.07-2.11c-.74-.26-1.74-.63-2.9-1.07-3.41-1.3-8.54-3.24-12.61-4.07Z" fill="#fff"/><path d="M31.8 35.6c-.28 0-.58-.02-.89-.09-1.31-.28-2.47-1.2-3.43-2.75-1.65-2.67-1.22-4.75-.56-6.03a6.13 6.13 0 0 1 1.85-2.15C34.65 20.51 45.62 20 45.73 20l.27-.01-.1.25c-2.22 5.18-7.4 12-9.94 13.75l-.04.03c-.73.5-2.3 1.6-4.11 1.6Zm13.67-15.25c-1.73.1-11.23.86-16.52 4.52-.01.01-1.07.73-1.74 2.03-.89 1.74-.7 3.65.56 5.68.9 1.46 1.99 2.33 3.21 2.6 2.03.43 3.94-.9 4.75-1.45l.04-.03c2.46-1.7 7.45-8.25 9.7-13.35Z" fill="#fff"/><path d="M21.9 39.07c-5.4 0-11.2-2.1-11.26-2.12l-.26-.1.2-.2c.32-.3 7.8-7.63 11.72-7.63 3.83.01 4.81 2.14 5.4 3.41l.08.17c.28.6.32 2.46-.6 4-.65 1.1-2.02 2.4-4.81 2.47h-.47Zm-10.89-2.36c1.23.42 6.53 2.13 11.35 2.01 2.09-.05 3.66-.84 4.53-2.3.85-1.41.83-3.14.58-3.67l-.08-.17c-.58-1.28-1.48-3.2-5.09-3.21-3.44 0-10.05 6.16-11.29 7.34Z" fill="#fff"/><path d="M33.45 39.2h-.47c-2.1-.05-3.66-.78-4.64-2.15a5.78 5.78 0 0 1-.88-4.43c.53-1.76 2.5-3.6 5.59-3.47 3.9.17 11.4 7.33 11.71 7.64l.2.19-.26.1c-.05.02-5.86 2.12-11.25 2.12Zm-.7-9.71c-2.75 0-4.5 1.65-4.96 3.23-.2.65-.25 2.6.83 4.13.9 1.28 2.38 1.95 4.37 2 4.81.12 10.1-1.59 11.34-2-1.25-1.18-7.87-7.21-11.3-7.35l-.29-.01Z" fill="#fff"/><path d="M22.43 44v-.35c0-.3 0-7.45.5-9.01a3.68 3.68 0 0 1 2-2.11c.9-.41 1.9-.42 2.76-.02 1.66.76 2.18 2.05 1.7 4.18-.52 2.26-6.44 6.9-6.7 7.1l-.26.21Zm3.91-11.44c-.43 0-.86.1-1.28.29a3.33 3.33 0 0 0-1.8 1.9c-.43 1.31-.49 7.06-.5 8.55 1.2-.95 5.87-4.81 6.3-6.68.44-1.97 0-3.1-1.5-3.8a2.9 2.9 0 0 0-1.22-.26Z" fill="#fff"/><path d="m32.85 44-.27-.21c-.25-.2-6.17-4.84-6.69-7.1-.48-2.13.04-3.41 1.69-4.17a3.3 3.3 0 0 1 2.77.01c.94.42 1.7 1.23 1.99 2.1.5 1.57.5 8.72.5 9.02V44Zm-3.92-11.44c-.42 0-.83.1-1.21.27-1.5.69-1.95 1.82-1.5 3.79.43 1.87 5.1 5.73 6.29 6.68 0-1.5-.07-7.24-.5-8.55a3.33 3.33 0 0 0-3.08-2.19Z" fill="#fff"/></svg>