<?xml version="1.0" encoding="UTF-8"?>
<!-- generated by Finnhub -->
<svg viewBox="0 0 55.5 55.5" xmlns="http://www.w3.org/2000/svg">
<path d="M 0,0 H 55.5 V 55.5 H 0 Z" fill="rgb(239, 242, 248)"/>
<path d="M 27.99,8.985 L 22,19 H 34 L 28,9 Z" fill="rgb(1, 110, 72)"/>
<path d="M 25.069999999999997,24.384999999999998 C 24.3,24.4 23.66,24.44 23.16,24.54 C 22.67,24.64 22.27,24.84 21.95,25.15 C 21.64,25.46 21.39,25.9 21.19,26.46 C 21.01,27.01 20.84,27.73 20.69,28.64 H 20 L 20.17,23 H 35.83 L 36,28.64 H 35.32 C 35.16,27.74 34.98,27.01 34.78,26.46 A 3.2,3.2 0 0,0 34.05,25.16 C 33.75,24.84 33.35,24.64 32.84,24.54 C 32.34,24.44 31.69,24.4 30.89,24.4 H 30 V 41.42 C 30,43.44 30.41,44.39 32.06,44.39 V 44.99 H 24 V 44.39 C 25.7,44.39 26,43.14 26,41 V 24.4 H 25.08 Z"/>
</svg>
