<?xml version="1.0" encoding="UTF-8"?>
<!-- generated by Finnhub -->
<svg viewBox="0 0 55.5 55.5" xmlns="http://www.w3.org/2000/svg">
<path d="M 0,0 H 55.5 V 55.5 H 0 Z" fill="rgb(239, 242, 248)"/>
<path d="M 30.99,25.615 H 29.22 C 29.32,25.3 29.34,24.63 28.63,24.63 C 27.75,24.63 27.16,26.14 26.86,27.21 C 26.76,27.6 26.66,28.25 27.33,28.25 C 27.93,28.25 28.73,27.45 28.97,27.02 H 30.61 C 30.1,27.68 29.5,29 27.5,29 C 24.92,29 24.84,27.66 25.1,26.86 C 25.62,25.16 26.36,24 28.97,24 C 31.07,24 31.02,25.08 30.99,25.63 Z" fill="rgb(6, 5, 108)"/>
<path d="M 3.99,29.985 H 52 V 31 H 4 Z" fill="rgb(117, 27, 25)"/>
<path d="M 7.7,23.985 H 5.8 C 5.28,25.18 4,27.63 4,28.02 C 4,28.52 4.38,29 6.22,29 C 8.39,29 9.34,27.76 9.55,27.15 L 11,24 H 8.97 L 7.44,27.36 C 7.33,27.69 6.98,28.37 6.49,28.37 C 5.79,28.37 5.91,27.69 6.07,27.36 L 7.7,24 Z M 49.03,24 H 51.37 L 51.12,24.5 H 52 V 25 H 50.86 L 49.39,27.9 C 49.29,28.22 49.38,28.9 50.06,29.03 H 47.45 A 0.7,0.7 0 0,1 47,28.38 C 47,28.08 47.85,26.35 48.53,25 H 47.4 V 24.5 H 48.77 L 49.02,24 Z M 13.03,24 H 15.37 L 15.12,24.5 H 16 V 25 H 14.86 L 13.39,27.9 C 13.29,28.22 13.38,28.9 14.06,29.03 H 11.45 A 0.7,0.7 0 0,1 11,28.38 C 11,28.08 11.85,26.35 12.53,25 H 11.4 V 24.5 H 12.77 L 13.02,24 Z M 16.73,25 H 19 L 17.27,29 H 15 L 16.73,25 Z M 22.73,25 H 25 L 23.27,29 H 21 L 22.73,25 Z M 17.26,23.5 H 19.76 L 19.5,24 H 17 L 17.26,23.5 Z M 34.68,24 H 32.58 L 31,29 H 33.1 L 33.95,26.3 C 34.81,25.48 35.65,25.42 36,25.5 V 24.05 C 35.36,24.05 34.8,24.42 34.43,24.78 L 34.68,24 Z M 23.26,23.5 H 25.76 L 25.5,24 H 23 L 23.26,23.5 Z M 20.32,23.5 H 22.76 L 20.43,29 H 18 L 20.32,23.5 Z" fill="rgb(6, 5, 108)"/>
<path d="M 44.7,24.485 C 45.28,23.32 46.14,23 48,23 V 23.57 C 47.72,23.57 47.05,23.87 46.71,24.5 H 47.5 V 25 H 46.62 L 45.2,29 H 43 L 44.42,25.02 H 44 V 24.5 H 44.71 Z M 41.45,29 L 42.84,25.65 C 43.14,25.1 43.22,24 41.1,24 C 38.44,24 37.66,24.55 36.96,25.65 H 39.22 C 39.32,25.35 39.63,24.72 40.22,24.72 C 40.71,24.72 40.71,25.14 40.71,25.4 C 40.71,25.47 40.61,25.76 40.46,26.16 C 38.96,26.26 36,26.76 36,28.06 C 36,28.92 36.65,29 37.48,29 H 41.45 Z M 39.49,28.72 C 39.25,28.76 38.99,28.79 38.83,28.79 C 38.53,28.79 38.23,28.66 38.23,27.89 C 38.23,26.99 39.59,26.67 40.27,26.63 C 40.05,27.35 39.76,28.05 39.49,28.73 Z" fill="rgb(6, 5, 108)"/>
</svg>
