<?xml version="1.0" encoding="UTF-8"?>
<!-- generated by Finnhub -->
<svg viewBox="0 0 55.5 55.5" xmlns="http://www.w3.org/2000/svg">
<path d="M 0,0 H 55.5 V 55.5 H 0 Z" fill="rgb(239, 242, 248)"/>
<path d="M 40.39,23.985 A 9.32,9.32 0 0,1 42.52,24.27 L 42.6,25.85 A 5.6,5.6 0 0,0 40.45,25.49 C 40.22,25.51 40,25.55 39.79,25.62 C 39.38,25.77 39.03,26.02 38.79,26.4 C 38.63,26.64 38.53,26.9 38.48,27.2 C 38.41,27.52 38.4,27.85 38.45,28.18 C 38.51,28.63 38.71,29.06 39.1,29.31 C 39.26,29.42 39.44,29.5 39.64,29.54 A 2.2,2.2 0 0,0 40.91,29.4 A 0.02,0.02 0 0,0 40.91,29.38 L 40.95,28.35 H 40.16 L 40.19,27 H 42.81 L 42.71,30.73 H 42.67 C 41.83,30.86 41,30.91 40.15,31 H 39.6 L 39.47,30.98 C 39.42,30.98 39.33,30.98 39.2,30.95 C 38.8,30.9 38.44,30.77 38.09,30.59 A 2.85,2.85 0 0,1 37.19,29.82 A 3.26,3.26 0 0,1 36.57,28.37 A 4.66,4.66 0 0,1 36.55,27.07 A 3.6,3.6 0 0,1 37.1,25.48 C 37.3,25.18 37.55,24.92 37.85,24.7 A 4.2,4.2 0 0,1 40.4,24 Z M 7.22,31 H 6.7 C 5.95,30.89 5.23,30.87 4.6,30.3 A 1.95,1.95 0 0,1 4,28.93 L 3.99,28.83 V 28.66 L 4.11,24.19 A 22.74,22.74 0 0,0 4.13,24 H 6.02 L 5.95,28.55 C 5.99,28.77 6.05,28.98 6.18,29.15 C 6.35,29.39 6.62,29.48 6.9,29.49 C 7.06,29.5 7.22,29.49 7.36,29.45 A 0.87,0.87 0 0,0 7.94,28.99 C 7.99,28.89 8.03,28.78 8.06,28.66 L 8.24,24.14 V 24 L 8.25,23.99 H 10.15 L 10.04,28.6 L 10.03,28.84 V 28.91 C 9.96,29.48 9.72,29.99 9.28,30.35 C 9,30.58 8.66,30.73 8.31,30.83 C 7.93,30.93 7.58,30.93 7.21,30.99 Z M 15.02,27.84 L 15.05,27.91 C 15.43,28.83 15.9,30.11 16.26,31 H 14.26 L 12.96,27.02 H 12.98 C 13.23,27.07 13.46,27.09 13.71,27.05 C 14.13,26.98 14.48,26.75 14.55,26.3 A 1.13,1.13 0 0,0 14.53,25.9 C 14.45,25.54 14.12,25.44 13.79,25.44 A 375,375 0 0,1 12.79,25.44 L 12.78,25.45 L 12.68,31 H 10.79 L 10.99,24 H 14.48 L 14.62,24.02 A 2.54,2.54 0 0,1 15.42,24.2 C 15.83,24.37 16.12,24.67 16.26,25.1 C 16.3,25.2 16.33,25.3 16.35,25.41 C 16.39,25.65 16.4,25.9 16.39,26.16 C 16.37,26.59 16.19,26.98 15.89,27.29 A 2.53,2.53 0 0,1 15.02,27.84 Z M 26.25,29.5 H 29.05 L 29.02,31 H 24.3 V 30.89 A 13540,13540 0 0,1 24.48,24 H 26.38 L 26.24,29.5 Z M 48.97,25.88 L 49.96,24.01 L 49.97,24 H 52 L 49.92,27.4 V 27.42 L 51.88,30.95 L 51.91,30.99 L 51.9,31 H 49.73 L 48.66,28.8 H 48.64 L 47.41,31 H 43.42 L 43.59,24 H 45.5 L 45.33,30.98 C 45.33,30.99 45.33,30.99 45.33,30.98 L 47.68,27.26 V 27.25 L 45.86,24 V 24 H 48.04 L 48.97,25.88 Z" fill="rgb(101, 151, 189)"/>
<path d="M 20.389999999999997,23.985 H 20.18 A 1.88,1.88 0 0,1 19.92,24.01 H 19.88 A 1.23,1.23 0 0,0 19.66,24.04 A 3.7,3.7 0 0,0 17.8,24.77 C 17.38,25.11 17.07,25.53 16.86,26.04 A 3.94,3.94 0 0,0 16.56,27.56 A 4.78,4.78 0 0,0 16.75,28.86 C 16.95,29.5 17.35,30.04 17.91,30.41 A 3.57,3.57 0 0,0 19.64,30.98 H 19.76 C 19.8,30.98 19.84,30.98 19.89,31 H 20.33 L 20.46,30.98 H 20.59 A 0.3,0.3 0 0,0 20.64,30.97 H 20.69 L 20.91,30.93 C 21.4,30.85 21.85,30.7 22.26,30.45 C 22.74,30.17 23.11,29.79 23.37,29.31 C 23.61,28.88 23.75,28.39 23.81,27.89 C 23.91,26.96 23.76,25.99 23.19,25.23 C 22.97,24.96 22.72,24.73 22.41,24.53 A 3.67,3.67 0 0,0 20.78,24.03 L 20.74,24.02 H 20.66 L 20.58,24.01 L 20.41,24 Z M 21.91,27.22 C 21.86,26.56 21.56,25.89 20.91,25.61 A 1.75,1.75 0 0,0 19.13,25.91 C 18.88,26.13 18.7,26.45 18.6,26.77 C 18.47,27.21 18.44,27.66 18.53,28.11 A 2,2 0 0,0 18.85,28.87 C 19.1,29.22 19.43,29.43 19.85,29.49 C 20.06,29.53 20.28,29.53 20.49,29.49 C 21.55,29.29 21.99,28.19 21.91,27.22 Z M 32.85,24 H 32.62 A 2.14,2.14 0 0,1 32.33,24.02 C 31.57,24.07 30.83,24.32 30.23,24.78 C 29.94,25.02 29.7,25.28 29.52,25.6 C 29.21,26.12 29.05,26.71 29.02,27.32 C 28.97,28.14 29.11,28.98 29.58,29.66 C 29.88,30.09 30.29,30.43 30.77,30.64 A 3.8,3.8 0 0,0 32.13,30.98 H 32.19 A 0.8,0.8 0 0,1 32.33,31 H 32.77 A 0.9,0.9 0 0,1 32.9,30.98 H 32.97 A 0.5,0.5 0 0,1 33.03,30.98 H 33.08 L 33.13,30.96 A 4.24,4.24 0 0,0 34.66,30.48 C 35.23,30.15 35.66,29.67 35.94,29.06 A 4.58,4.58 0 0,0 36.21,26.57 C 36.15,26.27 36.05,25.96 35.91,25.68 A 2.85,2.85 0 0,0 34.71,24.46 A 3.73,3.73 0 0,0 33.26,24.03 H 33.22 L 33.18,24.02 A 0.6,0.6 0 0,1 33.1,24.02 A 1.76,1.76 0 0,1 32.85,24 Z M 33.95,28.83 C 34.17,28.53 34.29,28.17 34.34,27.79 C 34.37,27.54 34.37,27.29 34.34,27.05 C 34.24,26.3 33.8,25.65 33.01,25.51 A 1.85,1.85 0 0,0 32.31,25.52 C 31.54,25.69 31.1,26.34 30.97,27.08 C 30.9,27.43 30.91,27.78 30.97,28.13 C 31.03,28.41 31.15,28.68 31.31,28.9 C 31.54,29.22 31.85,29.41 32.24,29.49 C 32.42,29.52 32.61,29.53 32.81,29.51 A 1.6,1.6 0 0,0 33.95,28.83 Z" fill="rgb(101, 151, 189)" fill-rule="evenodd"/>
</svg>
