<!-- by Finnhub --><svg width="56" height="56" viewBox="0 0 56 56" xmlns="http://www.w3.org/2000/svg"><path fill="#F0F3FA" d="M0 0h56v56H0z"/><path d="M18 22h3v9.66c0 1.48 1.15 2.34 2.51 2.34 1.34 0 2.49-.86 2.49-2.34V22h3v9.5c0 3.5-2.1 5.5-5.49 5.5-3.38 0-5.51-2-5.51-5.5V22ZM34 22h-3v14h8v-3h-5V22ZM37.64 17c-1 0-1.64.82-1.64 2 0 1.18.64 2 1.64 2 .82 0 1.19-.58 1.36-1.06l-.76-.33c-.08.32-.29.56-.6.56-.44 0-.64-.5-.64-1.17 0-.68.2-1.17.64-1.17.3 0 .5.21.6.51l.76-.33c-.19-.47-.54-1.01-1.36-1.01Z" fill="#58585A"/><path d="M39.57 43H16.44A3.44 3.44 0 0 1 13 39.56V16.43c0-1.89 1.54-3.43 3.44-3.43h23.13c1.89 0 3.43 1.54 3.43 3.43v23.13c0 1.9-1.54 3.44-3.43 3.44ZM16.59 15c-.87 0-1.59.72-1.59 1.6v22.8c0 .89.72 1.6 1.6 1.6h22.8c.88 0 1.6-.71 1.6-1.6V16.6c0-.88-.72-1.6-1.6-1.6H16.6Z" fill="#58585A"/></svg>