<?xml version="1.0" encoding="UTF-8"?>
<!-- generated by Finnhub -->
<svg viewBox="0 0 55.5 55.5" xmlns="http://www.w3.org/2000/svg">
<path d="M 0,0 H 55.5 V 55.5 H 0 Z" fill="rgb(239, 242, 248)"/>
<path d="M 38.52,12.985 C 41,13 43,14.62 43,17 H 33 V 31.01 C 33,33.86 31.56,36.01 29,37 V 13 H 38.53 Z M 19,17 H 15 V 31.72 C 15,38.5 20.6,44 27.5,44 S 40,38.5 40,31.72 V 20 H 36 V 31.83 C 36,36.34 32.1,40 27.5,40 A 9.3,9.3 0 0,1 26,39.87 V 20 H 22 V 38.03 A 8.03,8.03 0 0,1 19,31.83 V 17 Z" fill="rgb(43, 27, 69)"/>
</svg>
