<?xml version="1.0" encoding="UTF-8"?>
<!-- generated by Finnhub -->
<svg viewBox="0 0 55.5 55.5" xmlns="http://www.w3.org/2000/svg">
<path d="M0 0h55.5v55.5H0z" fill="rgb(239, 242, 248)"/>
<path d="M28.79 26.65h10.67v8.43H28.8v-8.43Z" fill="rgb(22, 152, 162)"/>
<path d="M29 35h10v7H29v-7Z" fill="rgb(68, 172, 187)"/>
<path d="M42.61 28 34 42h8.74L47 34.92 42.61 28Z" fill="rgb(126, 199, 175)"/>
<path d="M28.75 19H19v9h11v-7l-1.25-2Z" fill="rgb(80, 174, 46)"/>
<path d="m30 21-4.36-7h-8.16c-1.7 2.72-2.85 4.23-4.48 7h17z" fill="rgb(150, 207, 124)"/>
<path d="m22 35 4-7h-8.5l-4.5-7-4 7 4 7h9z" fill="rgb(1, 135, 253)"/>
<path d="m30 21-4 7h8.28l4.02 7 4.34-7-4.28-7H30Z" fill="rgb(27, 157, 115)"/>
<path d="M13 21h8.67L26 28h-8.5L13 21Z" fill="rgb(76, 168, 163)"/>
<path d="M34 28h-8.05L22 35h8.2l3.8-7Z" fill="rgb(27, 145, 194)"/>
<path d="M34 42h-8.1L22 35h8.1l3.9 7Z" fill="rgb(115, 189, 252)"/>
</svg>
