<!-- by Finnhub --><svg width="56" height="56" viewBox="0 0 56 56" xmlns="http://www.w3.org/2000/svg"><path fill="#F0F3FA" d="M0 0h56v56H0z"/><path d="M34.93 18.62c-2.37 2.5-5.83 3.13-7.73 1.4-1.9-1.72-1.5-5.14.87-7.64s5.83-3.13 7.73-1.4c1.9 1.72 1.5 5.14-.87 7.64Z" fill="#C83B2C"/><path d="M13 33.29c0-8.57 6.62-14 10-15.79l-3.62 11.07a7.14 7.14 0 0 0-.38 2.16A5.97 5.97 0 0 0 24.67 37c3 .03 6.67-2.9 7.81-5.62L38.71 17c1.43.9 4.29 3.9 4.29 9.4C43 35.58 32.48 44 24.69 44 16.89 44 13 38.26 13 33.29Z" fill="#27186C"/></svg>