<?xml version="1.0" encoding="UTF-8"?>
<!-- generated by Finnhub -->
<svg viewBox="0 0 55.5 55.5" xmlns="http://www.w3.org/2000/svg">
<path d="M 0,0 H 55.5 V 55.5 H 0 Z" fill="rgb(239, 242, 248)"/>
<path d="M 27.66,43.985 C 28.72,44 31.19,44 32.51,43.33 C 26.1,43.33 25.14,37.88 25.46,35.15 C 23.26,35.15 21,32.02 21,29.75 C 21,27.48 22.25,25.84 25.46,23.02 C 28.68,20.2 28.44,17.5 27.16,15.74 C 25.9,13.98 23.44,14 22.95,14 C 22.45,14 12.01,14.83 12.01,28.26 C 12.01,41.69 26.35,44 27.67,44 Z" fill="rgb(1, 44, 90)"/>
<path d="M 28.319999999999997,11.985 C 27.28,12 25.3,12 23.49,12.67 C 29.9,12.67 30.86,18.12 30.54,20.85 C 32.74,20.85 35,23.98 35,26.25 C 35,28.52 33.75,30.16 30.54,32.98 C 27.32,35.8 27.56,38.5 28.84,40.26 C 30.1,42.02 32.56,42 33.05,42 C 33.55,42 43.99,41.17 43.99,27.74 S 30.08,12 28.33,12 Z" fill="rgb(186, 4, 15)"/>
<path d="M 31.9,26.275 C 33.91,23.16 31.71,21.76 30.35,21.45 C 28.78,26.47 25.71,26.29 23.71,30.23 C 22.11,33.38 24.39,34.15 25.67,34.31 C 26.51,30.83 29.41,30.19 31.91,26.29 Z" fill="rgb(136, 136, 135)"/>
</svg>
