<?xml version="1.0" encoding="UTF-8"?>
<!-- generated by Finnhub -->
<svg viewBox="0 0 55.5 55.5" xmlns="http://www.w3.org/2000/svg">
<path d="M 0,0 H 55.5 V 55.5 H 0 Z" fill="rgb(239, 242, 248)"/>
<path d="M 18.49,37.985 L 7,18 L 40.5,25 L 18.5,38 Z" fill="rgb(1, 160, 178)"/>
<path d="M 9.99,19.985 L 40.5,25 L 18.5,38 L 10,20 Z" fill="rgb(31, 187, 207)"/>
<path d="M 18.49,37.985 H 49 L 40.5,25 L 14,23 L 18.5,38 Z" fill="url(#a)"/>
<path d="M 19.99,26.985 H 19 V 32.7 C 19,33.97 19.97,35 21.16,35 H 22.84 C 24.04,35 25,33.97 25,32.7 V 27 H 24 V 32.5 C 24,33.33 23.35,34 22.56,34 H 21.44 C 20.64,34 20,33.33 20,32.5 V 27 Z M 26,32 V 27 H 30.5 A 2.5,2.5 0 0,1 30.5,32 H 27 V 35 H 26 V 32 Z M 27,31 H 30.5 A 1.5,1.5 0 1,0 30.5,28 H 27 V 31 Z" fill="rgb(254, 254, 253)"/>
<path d="M 36.99,34.985 H 34 V 27 H 37 A 4,4 0 0,1 37,35 Z M 35,28 H 37 A 3,3 0 1,1 37,34 H 35 V 28 Z" fill="rgb(254, 254, 253)" fill-rule="evenodd"/>
<defs>
<linearGradient id="a" x1="14.03" x2="49.53" y1="23.03" y2="38.17" gradientUnits="userSpaceOnUse">
<stop stop-color="rgb(1, 118, 132)" offset="0"/>
<stop stop-color="rgb(1, 77, 86)" offset="1"/>
</linearGradient>
</defs>
</svg>
