<?xml version="1.0" encoding="UTF-8"?>
<!-- generated by Finnhub -->
<svg viewBox="0 0 55.5 55.5" xmlns="http://www.w3.org/2000/svg">
<path d="M 0,0 H 55.5 V 55.5 H 0 Z" fill="rgb(239, 242, 248)"/>
<path d="M 16.5,18.765 C 17.07,18.48 18.42,18 20.2,18 C 21.72,18 23.34,18.4 24.5,19.42 V 17.95 L 25.55,18 C 26.39,18.04 27.65,18.26 28.75,18.8 C 29.85,19.35 31,20.37 31,22.04 V 35.1 C 30.94,36.8 29.24,39 24.89,39 C 22.52,39 18.5,38.18 18.5,35.07 V 22.88 A 3.2,3.2 0 0,0 18.15,21.36 C 17.92,20.92 17.58,20.66 17,20.66 L 16.51,18.78 Z" fill="rgb(108, 189, 218)"/>
<path d="M 42.32,29.974999999999998 L 32.33,38.66 C 31.86,39.06 31.23,39.09 30.76,38.83 A 1.46,1.46 0 0,1 30,37.53 V 19.47 C 30,18.91 30.3,18.42 30.76,18.17 C 31.24,17.91 31.86,17.93 32.33,18.34 L 42.33,27.01 A 2,2 0 0,1 42.33,29.99 Z" fill="rgb(108, 189, 218)"/>
<path d="M 27.99,44.985 A 17,17 0 1,0 28,11 A 17,17 0 0,0 28,45 Z M 28,42 A 14,14 0 1,0 28,14 A 14,14 0 0,0 28,42 Z" fill="rgb(176, 218, 242)" fill-rule="evenodd"/>
<path d="M 20.189999999999998,18.985 A 7.3,7.3 0 0,0 17,19.65 C 19.05,19.65 19.54,21.82 19.5,22.91 V 35.07 C 19.5,35.5 19.88,38 24.89,38 C 28.89,38 29.96,36.05 30,35.07 V 22.04 C 30,19.78 27,19.07 25.5,19 V 31 H 25 V 22.9 C 25,19.87 22.22,19 20.2,19 Z" fill="url(#d)"/>
<path d="M 41.67,27.755 A 1,1 0 0,1 41.68,29.23 L 31.68,37.9 C 31.4,38.14 31,37.92 31,37.53 V 19.47 C 31,19.07 31.4,18.87 31.68,19.1 L 41.68,27.77 Z" fill="url(#c)"/>
<path d="M 27.99,43.985 A 16,16 0 1,0 28,12 A 16,16 0 0,0 28,44 Z M 28,43 A 15,15 0 1,0 28,13 A 15,15 0 0,0 28,43 Z" fill="url(#b)" fill-rule="evenodd"/>
<path d="M 27.99,43.985 A 16,16 0 1,0 28,12 A 16,16 0 0,0 28,44 Z M 28,43 A 15,15 0 1,0 28,13 A 15,15 0 0,0 28,43 Z" fill="url(#a)" fill-opacity=".5" fill-rule="evenodd"/>
<defs>
<linearGradient id="d" x1="26.06" x2="23.4" y1="19" y2="37.99" gradientUnits="userSpaceOnUse">
<stop stop-color="rgb(207, 180, 214)" offset=".19"/>
<stop stop-color="rgb(137, 69, 154)" offset=".41"/>
</linearGradient>
<linearGradient id="c" x1="37.6" x2="34.65" y1="20.37" y2="37.93" gradientUnits="userSpaceOnUse">
<stop stop-color="rgb(197, 244, 249)" offset="0"/>
<stop stop-color="rgb(150, 173, 216)" offset=".42"/>
<stop stop-color="rgb(112, 134, 190)" offset=".43"/>
<stop stop-color="rgb(149, 81, 165)" offset="1"/>
</linearGradient>
<linearGradient id="b" x1="12.9" x2="42.2" y1="22.25" y2="35.1" gradientUnits="userSpaceOnUse">
<stop stop-color="rgb(177, 223, 238)" offset="0"/>
<stop stop-color="rgb(153, 152, 195)" offset=".47"/>
<stop stop-color="rgb(64, 4, 98)" offset=".89"/>
</linearGradient>
<linearGradient id="a" x1="32.28" x2="25.18" y1="12.56" y2="43.21" gradientUnits="userSpaceOnUse">
<stop stop-color="rgb(232, 240, 252)" offset=".53"/>
<stop stop-color="rgb(67, 195, 239)" offset=".54"/>
</linearGradient>
</defs>
</svg>
