<?xml version="1.0" encoding="UTF-8"?>
<!-- generated by Finnhub -->
<svg viewBox="0 0 55.5 55.5" xmlns="http://www.w3.org/2000/svg">
<path d="M 0,0 H 55.5 V 55.5 H 0 Z" fill="rgb(239, 242, 248)"/>
<path d="M 28.209999999999997,26.425 C 23.33,23.78 13.52,18.44 13.4,18.34 L 15.74,15.62 L 28.74,22.72 L 32.25,22.33 L 30.22,26.19 L 28.22,26.44 Z" fill="rgb(247, 148, 30)"/>
<path d="M 32.22,22.314999999999998 H 32.25 L 30.22,26.19 L 28.5,26.4 L 32.23,22.33 Z" fill="rgb(239, 92, 40)"/>
<path d="M 25.15,20.195 L 21.21,18.09 L 20.56,12.26 L 24.08,11 L 25.16,20.21 Z" fill="rgb(234, 122, 45)"/>
<path d="M 29.259999999999998,28.544999999999998 C 32,23.81 37.91,13.34 38.03,13.23 L 40.83,15.51 L 33.1,29.06 L 33.5,32.47 L 29.53,30.5 L 29.27,28.56 Z" fill="rgb(247, 148, 30)"/>
<path d="M 33.49,32.435 V 32.47 L 29.53,30.5 L 29.31,28.83 L 33.5,32.45 Z" fill="rgb(239, 92, 40)"/>
<path d="M 35.67,25.564999999999998 L 37.87,21.75 L 44.7,20.97 L 46,24.4 L 35.68,25.6 Z" fill="rgb(234, 122, 45)"/>
<path d="M 27.09,29.544999999999998 C 32,32.22 41.8,37.56 41.92,37.66 L 39.58,40.38 L 26.58,33.28 L 23.08,33.67 L 25.1,29.81 L 27.1,29.56 Z" fill="rgb(247, 148, 30)"/>
<path d="M 23.08,33.655 H 23.07 L 25.1,29.81 L 26.82,29.6 L 23.09,33.67 Z" fill="rgb(239, 92, 40)"/>
<path d="M 30.15,35.775 L 34.11,37.91 L 34.76,43.74 L 31.24,45 L 30.16,35.79 Z" fill="rgb(234, 122, 45)"/>
<path d="M 26.04,27.425 C 23.32,32.19 18.02,41.53 18.02,41.53 L 15.22,39.25 L 22.22,26.95 L 21.82,23.53 L 25.79,25.5 L 26.05,27.44 Z" fill="rgb(247, 148, 30)"/>
<path d="M 21.81,23.535 V 23.53 L 25.79,25.5 L 26.01,27.17 L 21.82,23.55 Z" fill="rgb(239, 92, 40)"/>
<path d="M 19.63,30.405 L 17.45,34.25 L 12.3,34.81 L 11,31.39 L 19.64,30.42 Z" fill="rgb(234, 122, 45)"/>
</svg>
