<!-- by Finnhub --><svg width="56" height="56" viewBox="0 0 56 56" xmlns="http://www.w3.org/2000/svg"><path fill="#F0F3FA" d="M0 0h56v56H0z"/><path d="M32.42 43C40.47 43 47 36.28 47 28c0-8.28-6.53-15-14.58-15-7.3 0-13.36 5.52-14.42 12.73 1.87-4.2 6-7.1 10.77-7.1 6.55 0 11.85 5.45 11.85 12.18 0 6.13-4.4 11.2-10.12 12.06.63.09 1.27.13 1.92.13Z" fill="#012D6B"/><path d="M23.58 13C15.53 13 9 19.72 9 28c0 8.28 6.53 15 14.58 15 7.3 0 13.36-5.52 14.42-12.73-1.87 4.2-6 7.1-10.77 7.1-6.55 0-11.85-5.45-11.85-12.18 0-6.13 4.4-11.2 10.12-12.06-.63-.09-1.27-.13-1.92-.13Z" fill="#CD2127"/></svg>