<?xml version="1.0" encoding="UTF-8"?>
<!-- generated by Finnhub -->
<svg viewBox="0 0 55.5 55.5" xmlns="http://www.w3.org/2000/svg">
<path d="M 0,0 H 55.5 V 55.5 H 0 Z" fill="rgb(239, 242, 248)"/>
<path d="M 30.24,12.145 A 16,16 0 0,0 13.8,35.38 C 15.92,34.5 20.1,32.88 22,32.5 C 24,32.1 26.17,32.33 27,32.5 L 27.5,23.5 C 27.2,23.5 26.9,23.05 26.68,22.74 L 26.5,22.5 L 24.5,24.5 L 15,26 V 25.5 L 27,21 C 27,20.6 27.67,20.17 28,20 V 18 L 30.25,12.16 Z" fill="rgb(254, 201, 29)"/>
<path d="M 13.97,35.705 A 16,16 0 0,0 37.77,40.67 A 31.49,31.49 0 0,1 33,39 C 31,38 27,36.5 24.5,36.5 C 26.33,36.5 30.4,36.6 32,37 C 33.89,37.47 37.1,37.94 40.82,37.58 C 41.57,36.57 42.22,35.46 42.72,34.29 C 41.12,34.62 38.82,35 37,35 C 35.88,35 33.59,34.8 30.99,34.56 C 26.61,34.16 21.39,33.69 19.5,34 C 17.42,34.35 15.2,35.1 13.98,35.72 Z M 19.5,40 C 20.5,39.33 23,38 25,38 S 29.5,39.33 30.5,40 C 29.5,39.83 27,39.5 25,39.5 S 20.5,39.83 19.5,40 Z" fill="rgb(1, 40, 86)"/>
<path d="M 43.11,33.235 C 42.45,33.38 41.42,33.5 40,33.5 C 37.72,33.5 33.7,33.03 31.03,32.73 L 29,32.5 L 28.5,23.5 L 37.5,31.5 L 38,31 L 32,24 L 29.5,23 C 29.67,22.5 29.9,21.4 29.5,21 L 30.95,12.27 A 16,16 0 0,1 43.12,33.25 Z" fill="rgb(254, 201, 29)"/>
</svg>
