<?xml version="1.0" encoding="UTF-8"?>
<!-- generated by Finnhub -->
<svg viewBox="0 0 55.5 55.5" xmlns="http://www.w3.org/2000/svg">
<path d="M 0,0 H 55.5 V 55.5 H 0 Z" fill="rgb(239, 242, 248)"/>
<path d="M 47.230000000000004,24.985 L 48.49,27.56 H 48.54 L 49.8,25 H 50.97 L 49.22,28.5 L 51,32 H 49.8 L 48.54,29.45 H 48.49 L 47.22,32 H 46.04 L 47.84,28.5 L 46.06,25 H 47.24 Z M 45,25 V 32 H 44 V 25 H 45 Z M 37,28.5 C 37,29.23 36.87,29.86 36.6,30.39 C 36.34,30.91 35.99,31.31 35.53,31.59 C 35.08,31.86 34.57,32 34,32 C 33.43,32 32.92,31.86 32.46,31.58 C 32.01,31.3 31.66,30.9 31.39,30.38 A 4.17,4.17 0 0,1 31,28.5 C 31,27.77 31.13,27.14 31.4,26.62 A 2.9,2.9 0 0,1 32.46,25.42 C 32.92,25.14 33.43,25 34,25 C 34.57,25 35.08,25.14 35.53,25.42 C 35.99,25.69 36.34,26.09 36.6,26.62 C 36.87,27.14 37,27.77 37,28.5 Z M 36,28.5 C 36,27.38 35.3,26 34,26 S 32,27.37 32,28.5 S 32.7,31 34,31 S 36,29.63 36,28.5 Z M 25,32 V 25 H 27.4 C 27.9,25 28.31,25.1 28.65,25.28 C 28.98,25.47 29.24,25.73 29.41,26.07 C 29.58,26.4 29.67,26.79 29.67,27.24 C 29.67,27.69 29.58,28.08 29.41,28.41 A 1.8,1.8 0 0,1 28.64,29.17 C 28.3,29.35 27.88,29.44 27.39,29.44 H 25.68 V 28.38 H 27.23 C 27.97,28.38 28.48,28.01 28.48,27.24 A 1.2,1.2 0 0,0 27.23,26 H 26 V 32 H 25 Z M 28.32,28.83 L 29.9,32 H 28.6 L 27.05,28.83 H 28.32 Z M 19,26 V 25 H 24 V 26 H 22 V 32 H 21 V 26 H 19 Z M 18,25 V 32 H 17 V 25 H 18 Z M 15,25 V 31.9 H 14.02 L 11.15,27.2 H 11 V 31.9 H 10 V 25 H 10.99 L 13.85,29.7 H 14 V 25 H 15 Z M 43,25 V 32 H 42.02 L 39.15,27.23 H 39 V 32 H 38 V 25 H 38.99 L 41.85,29.77 H 42 V 25 H 43 Z M 8,25 H 9 V 29.5 C 9,30 8.9,30.43 8.69,30.8 C 8.49,31.18 8.19,31.48 7.81,31.69 C 7.44,31.89 7.01,31.99 6.5,31.99 C 6,32 5.56,31.89 5.18,31.69 C 4.81,31.48 4.52,31.19 4.31,30.81 C 4.11,30.43 4,30 4,29.51 V 25 H 5 V 29.4 C 5,30.21 5.66,31 6.5,31 C 7.35,31 8,30.22 8,29.4 V 25 Z"/>
</svg>
