<?xml version="1.0" encoding="UTF-8"?>
<!-- generated by Finnhub -->
<svg viewBox="0 0 55.5 55.5" xmlns="http://www.w3.org/2000/svg">
<path d="M 0,0 H 55.5 V 55.5 H 0 Z" fill="rgb(239, 242, 248)"/>
<path d="M 27.99,45.985 C 30.76,46 33,37.94 33,28 S 30.76,10 28,10 S 23,18.06 23,28 S 25.24,46 28,46 Z M 28,42 C 30.2,42 32,35.73 32,28 S 30.2,14 28,14 S 24,20.27 24,28 C 24,35.73 25.8,42 28,42 Z" fill="rgb(11, 231, 246)" fill-rule="evenodd"/>
<path d="M 12.22,36.905 C 13.7,39.42 21.96,37.45 30.67,32.52 C 39.38,27.6 45.25,21.58 43.77,19.08 C 42.3,16.58 34.04,18.55 25.33,23.48 C 16.62,28.4 10.75,34.42 12.23,36.92 Z M 15.2,35 C 15.6,35.67 16.5,35.99 17.77,36 C 20.59,36.02 25.54,34.55 30.27,31.87 C 36.32,28.46 40.92,24.29 40.99,21.87 A 1.6,1.6 0 0,0 40.79,21 C 40.39,20.33 39.49,20.01 38.21,20 C 35.4,19.98 30.44,21.45 25.71,24.13 C 19.56,27.6 14.9,31.87 15,34.26 C 15.01,34.53 15.08,34.78 15.2,35 Z" fill="rgb(11, 231, 246)" fill-rule="evenodd"/>
<path d="M 43.760000000000005,36.905 C 42.3,39.42 34.04,37.45 25.33,32.52 C 16.62,27.6 10.75,21.58 12.23,19.08 C 13.7,16.58 21.96,18.55 30.67,23.48 C 39.38,28.4 45.25,34.42 43.77,36.92 Z M 40.8,35 C 40.4,35.67 39.5,35.99 38.23,36 C 35.41,36.02 30.46,34.55 25.73,31.87 C 19.68,28.46 15.08,24.29 15.01,21.87 A 1.6,1.6 0 0,1 15.21,21 C 15.61,20.33 16.51,20.01 17.79,20 C 20.6,19.98 25.56,21.45 30.29,24.13 C 36.44,27.6 41.1,31.87 41,34.26 C 40.99,34.53 40.92,34.78 40.8,35 Z" fill="rgb(11, 231, 246)" fill-rule="evenodd"/>
<circle cx="31" cy="16" r="2" fill="rgb(11, 231, 246)"/>
<circle cx="40" cy="32" r="2" fill="rgb(11, 231, 246)"/>
<circle cx="15" cy="31" r="2" fill="rgb(11, 231, 246)"/>
</svg>
