<?xml version="1.0" encoding="UTF-8"?>
<!-- generated by Finnhub -->
<svg viewBox="0 0 55.5 55.5" xmlns="http://www.w3.org/2000/svg">
<path d="M0 0h55.5v55.5H0z" fill="rgb(239, 242, 248)"/>
<path d="M42 24 28 10 14 24h6l8-8 8 8h6ZM19 27h-4v15h26V27h-4v11H19V27Z" fill="rgb(13, 73, 106)"/>
<path d="M34 26h13v2H34z" fill="rgb(125, 211, 137)"/>
<path d="m29.5 33a5.5 5.5 0 1 0 0-11 5.5 5.5 0 0 0 0 11zm-2-3a2.5 2.5 0 1 0 0-5 2.5 2.5 0 0 0 0 5z" fill="rgb(125, 211, 137)" fill-rule="evenodd"/>
<circle cx="27.5" cy="27.5" r="1.5" fill="rgb(125, 211, 137)"/>
</svg>
