<?xml version="1.0" encoding="UTF-8"?>
<!-- generated by Finnhub -->
<svg viewBox="0 0 55.5 55.5" xmlns="http://www.w3.org/2000/svg">
<path d="M 0,0 H 55.5 V 55.5 H 0 Z" fill="rgb(239, 242, 248)"/>
<path d="M 17.99,18.985 V 28.34 A 5.19,5.19 0 0,0 23.41,33 V 31 C 22.11,31.16 20,30.32 20,28.34 V 19 H 18 Z M 12,33 A 5,5 0 1,0 7,27.76 V 38 H 9 V 32 C 9.84,32.63 10.87,33 12,33 Z M 12,31 A 3,3 0 1,0 12,25 A 3,3 0 0,0 12,31 Z M 24,23 V 28.92 C 24.17,30.28 25.3,33 28.5,33 A 5.55,5.55 0 0,0 31,32.2 V 32.96 H 33 V 23 H 31 V 28.14 C 30.95,29.34 30.54,31 28.5,31 C 26.33,31 26,29.34 26,27.83 V 23 H 24 Z M 43.2,24.92 C 43.87,23.54 45.7,23.06 46.63,23 C 49.73,23 50.83,25.23 51,26.6 V 33 H 49 V 27.89 C 49,26.37 48.74,25 46.63,25 C 44.53,25 44.04,26.63 44,27.8 V 33 H 42 V 27.89 C 42,26.37 41.74,25 39.63,25 C 37.53,25 37.04,26.63 37,27.8 V 33 H 35 V 23 H 37 V 23.95 C 37.83,23.3 38.97,23.05 39.63,23 C 41.41,23 42.53,23.9 43.2,24.92 Z" fill-rule="evenodd"/>
<path d="M 7.0200000000000005,19.145 C 6.85,20.52 7.4,23.06 11.01,22.32 C 11.13,19.05 8.61,18.72 7.03,19.16 Z" fill="rgb(144, 195, 75)"/>
</svg>
