<?xml version="1.0" encoding="UTF-8"?>
<!-- generated by Finnhub -->
<svg viewBox="0 0 55.5 55.5" xmlns="http://www.w3.org/2000/svg">
<path d="M 0,0 H 55.5 V 55.5 H 0 Z" fill="rgb(88, 44, 130)"/>
<path d="M 34.88,21.785 C 35.5,22.53 36.19,23.2 36.93,23.83 L 38.93,25.77 C 39.49,26.32 39.83,26.74 39.97,27.04 C 40.24,27.62 40.26,28.23 40.02,28.86 C 39.92,29.16 39.56,29.59 38.98,30.16 L 36.92,32.19 L 34.64,29.92 L 36.06,28.52 C 36.41,28.17 36.42,27.82 36.06,27.46 L 34.66,26.06 L 32.62,24.06 L 28.51,20.02 A 0.74,0.74 0 0,0 27.48,20.02 L 23.44,24 C 23.37,24 23.33,24 23.31,23.97 C 22.61,23.27 21.91,22.57 21.2,21.89 C 21.17,21.87 21.16,21.82 21.17,21.75 A 517.3,517.3 0 0,1 25.49,17.46 A 6.1,6.1 0 0,1 27.14,16.15 C 27.81,15.93 28.44,15.95 29.01,16.23 C 29.31,16.37 29.76,16.73 30.35,17.31 L 34.89,21.81 Z" fill="rgb(254, 254, 253)"/>
<path d="M 21.16,21.735 C 21.17,21.82 21.17,21.87 21.2,21.89 C 21.91,22.58 22.61,23.27 23.3,23.97 C 23.33,24 23.37,24.01 23.43,24 L 23.44,24.05 L 23.48,24.12 C 24.18,24.82 24.92,25.55 25.7,26.3 C 26.79,27.33 26.83,28.6 25.72,29.7 L 23.41,31.96 C 22.61,31.31 21.91,30.63 21.32,29.91 C 21.72,29.54 22.12,29.16 22.49,28.78 C 22.88,28.38 23.31,28.06 22.77,27.48 L 21.47,26.18 A 0.22,0.22 0 0,0 21.31,26.12 A 0.3,0.3 0 0,0 21.24,25.97 A 584.57,584.57 0 0,0 19.09,23.87 C 19.04,23.87 19.01,23.87 19,23.89 A 0.31,0.31 0 0,0 18.9,23.67 C 18.5,23.26 18.1,22.86 17.69,22.47 A 0.58,0.58 0 0,0 16.89,22.47 C 15.17,24.12 13.48,25.77 11.8,27.44 C 11.43,27.81 11.43,28.18 11.8,28.54 L 16.87,33.54 A 0.56,0.56 0 0,0 17.65,33.54 L 19.06,32.18 A 13,13 0 0,1 21.12,34.2 L 19.29,36.03 C 18.73,36.58 18.29,36.91 18,37 C 16.9,37.35 16.18,36.96 15.45,36.24 C 13.22,34.02 10.95,31.78 8.63,29.51 C 7.65,28.56 7.89,27.21 8.78,26.32 C 11.1,24.02 13.38,21.79 15.62,19.6 C 16.31,18.93 17.25,18.66 18.12,19.06 C 18.39,19.18 18.75,19.46 19.19,19.9 C 19.82,20.52 20.45,21.13 21.09,21.73 C 21.15,21.78 21.17,21.78 21.17,21.75 Z M 34.86,34.21 L 32.56,31.95 L 30.62,30.05 C 29.75,29.19 29.17,28.48 29.6,27.26 C 29.7,26.97 30.02,26.56 30.56,26.03 C 31.24,25.36 31.93,24.7 32.62,24.05 L 34.67,26.05 C 34.19,26.55 33.72,27.02 33.24,27.48 C 32.9,27.82 32.9,28.16 33.25,28.53 C 33.7,29 34.17,29.46 34.64,29.92 L 36.92,32.19 L 38.32,33.54 A 0.56,0.56 0 0,0 39.12,33.54 L 44.25,28.51 A 0.71,0.71 0 0,0 44.4,27.73 A 0.7,0.7 0 0,0 44.25,27.5 L 39.23,22.56 C 38.91,22.24 38.58,22.24 38.26,22.56 L 36.93,23.83 C 36.18,23.21 35.5,22.53 34.89,21.8 C 35.64,21.03 36.41,20.26 37.2,19.5 C 37.55,19.15 37.96,18.96 38.41,18.9 C 39.55,18.78 40.12,19.32 40.84,20.04 C 42.79,21.98 44.87,24.04 47.08,26.2 C 47.48,26.6 47.74,26.95 47.86,27.26 C 48.2,28.21 47.89,28.98 47.22,29.64 L 40.4,36.34 C 39.65,37.09 38.87,37.31 38.04,37.02 C 37.67,36.88 37.14,36.47 36.43,35.77 L 34.86,34.21 Z" fill="rgb(254, 191, 2)"/>
<path d="M 18.99,23.884999999999998 C 19.01,23.87 19.04,23.87 19.09,23.88 A 584.7,584.7 0 0,1 21.24,25.98 A 0.3,0.3 0 0,1 21.31,26.12 L 19.96,27.45 C 19.57,27.82 19.56,28.17 19.92,28.52 C 20.38,28.97 20.85,29.43 21.32,29.92 C 21.92,30.63 22.61,31.32 23.4,31.96 L 27.45,35.93 C 27.83,36.31 28.22,36.31 28.6,35.93 L 32.56,31.95 L 34.86,34.21 C 32.18,36.87 30.42,38.61 29.59,39.41 C 28.68,40.3 27.14,40.13 26.27,39.28 C 24.52,37.58 22.81,35.88 21.12,34.2 A 13.02,13.02 0 0,0 19.06,32.18 L 17.06,30.22 A 4.7,4.7 0 0,1 15.96,28.84 A 2.3,2.3 0 0,1 15.99,27.11 C 16.12,26.81 16.44,26.41 16.96,25.91 L 19,23.89 Z" fill="rgb(254, 254, 253)"/>
</svg>
