<?xml version="1.0" encoding="UTF-8"?>
<!-- generated by Finnhub -->
<svg viewBox="0 0 55.5 55.5" xmlns="http://www.w3.org/2000/svg">
<path d="M 0,0 H 55.5 V 55.5 H 0 Z" fill="rgb(239, 242, 248)"/>
<path d="M 49.99,31.474999999999998 V 32.58 C 50,32.81 49.81,33 49.58,33 H 40.97 A 2.96,2.96 0 0,1 38,30.06 V 25.94 A 2.96,2.96 0 0,1 40.97,23 H 49.57 C 49.81,23 50,23.19 50,23.42 V 24.59 C 50,24.82 49.81,25 49.58,25 H 42.45 C 41.63,25 41,25.69 41,26.5 V 29.5 C 41,30.31 41.63,31 42.45,31 H 49.58 C 49.81,31 50,31.26 50,31.49 Z M 6.66,23 H 4.44 C 4.1,23 3.89,23.35 4.06,23.63 L 9.35,31.99 C 9.75,32.62 10.46,33 11.23,33 H 11.88 C 12.66,33 13.38,32.6 13.78,31.97 L 18.94,23.63 C 19.11,23.35 18.9,23 18.56,23 H 16.52 A 0.22,0.22 0 0,0 16.32,23.1 L 11.66,30.68 A 0.23,0.23 0 0,1 11.28,30.68 L 6.85,23.1 A 0.22,0.22 0 0,0 6.65,22.99 Z M 19,32.37 V 25.94 A 2.96,2.96 0 0,1 21.98,23 H 34.02 A 2.96,2.96 0 0,1 37,25.94 V 32.37 C 37,32.72 36.71,33 36.36,33 H 34.66 C 34.31,33 34,32.72 34,32.37 V 26.91 C 34,25.98 33.72,25 32.78,25 H 29.65 C 29.53,25 29.5,25.07 29.5,25.19 V 32.37 C 29.5,32.72 29.15,33 28.8,33 H 27.11 A 0.61,0.61 0 0,1 26.5,32.37 V 25.19 C 26.5,25.07 26.38,25 26.26,25 H 23.42 C 22.48,25 22,25.98 22,26.91 V 32.37 C 22,32.72 21.7,33 21.34,33 H 19.64 A 0.63,0.63 0 0,1 19,32.37 Z" fill="rgb(21, 146, 70)"/>
</svg>
