<?xml version="1.0" encoding="UTF-8"?>
<!-- generated by Finnhub -->
<svg viewBox="0 0 55.5 55.5" xmlns="http://www.w3.org/2000/svg">
<path d="M 0,0 H 55.5 V 55.5 H 0 Z" fill="rgb(239, 242, 248)"/>
<path d="M 11.15,19.294999999999998 V 19.29 C 11.1,19.17 10.93,19 10.8,19 H 5.3 C 5.2,19 5,19.07 5,19.22 L 5.01,19.3 L 12.21,33.7 C 13.99,34.44 15.44,33.44 17.03,30.95 L 11.16,19.31 Z" fill="url(#f)"/>
<path d="M 12.21,33.685 C 17.62,36 20,19.08 25.74,19.14 C 28.44,19.17 30.31,22.48 28.78,22.47 C 28.11,22.47 27.65,22.84 27.02,23.45 C 24.32,26.07 21.01,37.95 16.88,37.99 C 13.76,38.01 13.05,35.13 12.24,33.73" fill="url(#e)"/>
<path d="M 45.010000000000005,23.285 C 39.29,20.85 36.94,38.38 30.37,37.83 C 27.53,37.71 26.55,35.23 26.47,33.03 C 29.5,40.81 34.95,19.29 40.47,19.03 C 43.57,18.89 44.21,21.91 45.02,23.31 Z" fill="url(#d)"/>
<path d="M 26.25,25.985 H 31.7 C 31.84,26 32,26.1 32,26.24 V 29.49 C 32,32.82 32.5,33.17 33.35,33.59 C 34.35,34.09 36.12,33.27 36.12,33.27 S 33.78,37.96 30.65,37.98 C 27.62,38 26.02,35.32 26,32.9 V 26.24 A 0.26,0.26 0 0,1 26.26,26 Z" fill="url(#c)"/>
<path d="M 38.260000000000005,32.985 C 38.14,33 38.02,33.03 37.97,33.15 V 33.16 C 37.52,33.93 36.07,36.7 35.27,37.5 A 0.15,0.15 0 0,0 35.23,37.53 A 0.53,0.53 0 0,0 35.2,37.57 L 35.17,37.61 L 35.15,37.65 C 35.11,37.77 35.2,38 35.28,38 H 43.34 A 3.65,3.65 0 0,0 44.8,35.83 A 1.78,1.78 0 0,0 44.61,34.79 C 44.38,34.32 43.83,33 43.83,33 H 38.27 Z" fill="url(#b)"/>
<path d="M 49.13,31.525 C 49.99,33.15 50.34,34.99 49.57,36.18 C 48.77,37.42 48.36,37.99 43.28,37.97 C 43.28,37.97 45.43,36.45 44.64,34.85 L 43.41,32.41 L 40.19,26.02 C 41.81,23.53 43.26,22.56 45.02,23.31 L 49.14,31.54 Z" fill="url(#a)"/>
<path d="M 25.36,19.165 C 25.82,19.37 26,19.91 26,20.68 V 24.73 C 26,24.87 26.13,25 26.27,25 H 31.74 C 31.87,25 32,24.88 32,24.73 V 21.27 C 32,20.03 31.08,18.98 28.42,19.01 C 27.46,19.01 28.12,18.97 26.62,19.04 C 26.42,19.04 25.56,19.14 25.37,19.18 Z" fill="rgb(100, 173, 44)"/>
<defs>
<linearGradient id="f" x1="5" x2="17.03" y1="26.51" y2="26.51" gradientUnits="userSpaceOnUse">
<stop stop-color="rgb(227, 11, 39)" offset=".45"/>
<stop stop-color="rgb(226, 11, 39)" offset=".45"/>
<stop stop-color="rgb(197, 19, 32)" offset=".61"/>
<stop stop-color="rgb(179, 24, 28)" offset=".76"/>
<stop stop-color="rgb(173, 26, 27)" offset=".86"/>
</linearGradient>
<linearGradient id="e" x1="15.34" x2="27.06" y1="36.89" y2="20.82" gradientUnits="userSpaceOnUse">
<stop stop-color="rgb(173, 26, 27)" offset=".04"/>
<stop stop-color="rgb(225, 13, 39)" offset=".26"/>
<stop stop-color="rgb(173, 27, 28)" offset=".52"/>
<stop stop-color="rgb(226, 12, 39)" offset=".73"/>
<stop stop-color="rgb(173, 26, 27)" offset=".93"/>
</linearGradient>
<linearGradient id="d" x1="29.93" x2="40.92" y1="38.1" y2="18.78" gradientUnits="userSpaceOnUse">
<stop stop-color="rgb(1, 50, 101)" offset=".27"/>
<stop stop-color="rgb(0, 75, 133)" offset=".46"/>
<stop stop-color="rgb(1, 105, 172)" offset=".71"/>
<stop stop-color="rgb(1, 117, 187)" offset=".84"/>
</linearGradient>
<linearGradient id="c" x1="29.42" x2="29.51" y1="25.72" y2="37.98" gradientUnits="userSpaceOnUse">
<stop stop-color="rgb(100, 173, 44)" offset=".53"/>
<stop stop-color="rgb(40, 126, 50)" offset=".74"/>
</linearGradient>
<linearGradient id="b" x1="45" x2="35.4" y1="35.62" y2="35.51" gradientUnits="userSpaceOnUse">
<stop stop-color="rgb(1, 65, 138)" offset=".07"/>
<stop stop-color="rgb(1, 117, 187)" offset=".68"/>
</linearGradient>
<linearGradient id="a" x1="41.91" x2="47.91" y1="24.76" y2="37.96" gradientUnits="userSpaceOnUse">
<stop stop-color="rgb(1, 65, 138)" offset=".29"/>
<stop stop-color="rgb(1, 117, 187)" offset=".63"/>
</linearGradient>
</defs>
</svg>
