<?xml version="1.0" encoding="UTF-8"?>
<!-- generated by Finnhub -->
<svg viewBox="0 0 55.5 55.5" xmlns="http://www.w3.org/2000/svg">
<path d="M 0,0 H 55.5 V 55.5 H 0 Z" fill="rgb(20, 37, 62)"/>
<path d="M 20.99,16.985 H 33 V 17.37 H 32.46 A 6.25,6.25 0 0,1 34.93,22.07 C 34.93,24.05 30.05,26.04 27.29,27.01 C 33.54,26.61 35.81,23.85 35.81,21.06 C 35.81,19.25 36.07,18.56 36.79,18.56 C 37.5,18.56 37.8,19.04 37.8,19.49 C 37.8,19.94 37.29,20.33 37.04,20.33 S 36.36,20.03 36.32,19.71 L 36.35,20.08 C 36.52,21.8 37.11,27.6 26.44,27.6 C 19.16,27.6 17.87,26.73 17.12,24.75 C 17.42,25.32 18.72,26.31 21.81,26.78 C 23.61,26.03 26.56,24.42 26.56,22.92 C 26.56,21.32 23.24,18.6 21.51,17.37 H 21 V 17 Z M 22.37,26.86 L 22.79,26.91 C 24.74,26.06 28.47,23.99 28.47,22.51 C 28.47,20.91 25.69,18.58 23.97,17.37 H 22.77 C 24.39,18.37 27.47,20.73 27.47,22.57 C 27.47,24.33 24.31,26.07 22.37,26.87 Z M 23.41,26.96 L 23.94,27 C 26.11,26 30.27,23.65 30.27,22.22 C 30.27,20.63 28.17,18.58 26.47,17.37 H 25.23 C 26.83,18.37 29.38,20.32 29.38,22.17 C 29.38,23.88 25.5,26.06 23.41,26.97 Z M 24.62,27.03 L 25.26,27.05 C 27.46,26.06 32.18,23.49 32.18,22.04 C 32.18,20.52 30.52,18.59 28.9,17.37 H 27.73 C 29.31,18.35 31.26,20.13 31.26,21.98 C 31.26,23.61 26.97,25.98 24.62,27.03 Z M 26.01,27.05 H 26.25 C 28.63,26.12 33.95,23.92 33.95,22.07 C 33.95,20.13 32.74,18.55 31.18,17.37 H 30.19 C 31.68,18.38 33.16,20.06 33.16,21.79 C 33.16,23.45 28.42,25.99 26.01,27.05 Z M 22.94,27.85 C 19.03,27.85 17.35,26.26 17,25.46 C 17.24,27.66 18.2,28.74 18.66,29 H 33.27 A 4.61,4.61 0 0,0 38,24.58 C 38,23.18 37.23,21.57 36.77,21.12 C 37.03,26.78 30.2,27.97 26.76,27.86 H 22.94 Z M 46.46,37.12 V 35.6 C 46.46,34.87 46.41,34.78 46.02,34.68 A 2.02,2.02 0 0,0 45.68,34.65 C 45.65,34.65 45.61,34.63 45.61,34.6 C 45.61,34.54 45.66,34.53 45.76,34.53 H 47.84 C 47.95,34.53 48,34.54 48,34.6 C 48,34.63 47.96,34.65 47.92,34.65 L 47.67,34.68 C 47.41,34.72 47.33,34.88 47.31,35.18 C 47.29,35.48 47.29,35.74 47.29,36.12 V 37.12 C 47.29,37.52 47.29,37.54 47.16,37.6 C 46.53,37.9 45.65,38 45.07,38 C 42.85,38 41,36.85 41,34.5 C 41,32.13 42.69,31 44.93,31 C 45.55,31 46.25,31.12 46.43,31.15 C 46.64,31.2 46.99,31.23 47.23,31.25 C 47.33,31.25 47.35,31.29 47.35,31.32 C 47.35,31.45 47.28,31.7 47.28,32.59 C 47.28,32.73 47.26,32.78 47.19,32.78 C 47.14,32.78 47.13,32.72 47.12,32.64 A 1.28,1.28 0 0,0 46.92,32.05 C 46.67,31.71 45.87,31.33 44.6,31.33 C 42.78,31.33 41.86,32.4 41.86,34.19 C 41.86,36.13 43.12,37.62 45.14,37.62 C 45.5,37.62 46.01,37.56 46.27,37.42 A 0.3,0.3 0 0,0 46.47,37.12 Z M 33.6,32.4 V 36.7 C 33.62,37.45 33.72,37.74 33.99,37.82 C 34.17,37.86 34.39,37.87 34.49,37.87 C 34.53,37.87 34.56,37.89 34.56,37.92 C 34.56,37.98 34.5,38 34.38,38 H 32.38 C 32.28,38 32.21,37.99 32.21,37.92 C 32.21,37.89 32.24,37.87 32.29,37.87 C 32.37,37.87 32.55,37.87 32.7,37.82 C 32.95,37.75 33,37.42 33,36.61 L 33.01,31.45 C 33.01,31.1 33.04,31 33.12,31 S 33.37,31.2 33.47,31.29 C 35.27,33.14 37.11,34.97 39,36.73 V 32.15 C 39,31.57 38.92,31.25 38.61,31.17 A 3.5,3.5 0 0,0 38.13,31.13 C 38.06,31.13 38.05,31.1 38.05,31.06 C 38.05,31.01 38.13,31 38.25,31 H 40.13 C 40.23,31 40.3,31 40.3,31.06 C 40.3,31.1 40.26,31.13 40.2,31.13 L 39.96,31.15 C 39.63,31.22 39.59,31.54 39.59,32.08 L 39.57,37.36 C 39.57,37.96 39.55,38 39.47,38 C 39.4,38 39.27,37.9 38.75,37.42 C 36.9,35.9 35.27,34.1 33.6,32.4 Z M 30,33.68 V 35.31 C 30,36.21 30,36.93 30.04,37.32 C 30.06,37.59 30.11,37.79 30.34,37.83 L 30.7,37.87 C 30.74,37.87 30.76,37.89 30.76,37.92 C 30.76,37.97 30.72,38 30.63,38 H 28.91 C 28.82,38 28.78,37.98 28.78,37.92 C 28.78,37.89 28.8,37.87 28.84,37.87 A 1,1 0 0,0 29.08,37.83 C 29.23,37.79 29.28,37.59 29.3,37.33 C 29.34,36.93 29.34,36.2 29.34,35.31 V 33.68 L 29.33,31.68 C 29.31,31.37 29.23,31.21 29.06,31.17 A 0.88,0.88 0 0,0 28.82,31.13 C 28.79,31.13 28.76,31.11 28.76,31.07 C 28.76,31.02 28.8,31 28.88,31 H 30.44 C 30.52,31 30.56,31.02 30.56,31.07 C 30.56,31.11 30.53,31.13 30.5,31.13 C 30.45,31.13 30.4,31.13 30.3,31.16 C 30.1,31.2 30.03,31.36 30.02,31.68 C 30,31.98 30,32.24 30,33.68 Z M 22,35.31 V 33.68 C 22,32.24 22,31.98 21.98,31.68 C 21.96,31.37 21.88,31.22 21.58,31.16 A 1.8,1.8 0 0,0 21.25,31.13 C 21.22,31.13 21.18,31.11 21.18,31.07 C 21.18,31.02 21.23,31 21.33,31 H 23.29 C 23.39,31 23.44,31.02 23.44,31.07 C 23.44,31.11 23.4,31.13 23.36,31.13 C 23.3,31.13 23.24,31.13 23.13,31.16 C 22.87,31.2 22.8,31.36 22.78,31.68 C 22.76,31.98 22.76,32.24 22.76,33.68 V 34.24 H 22.8 L 24.83,32 C 25.1,31.73 25.34,31.5 25.34,31.33 C 25.34,31.23 25.3,31.17 25.22,31.13 C 25.17,31.12 25.13,31.1 25.13,31.06 C 25.13,31.02 25.18,31 25.25,31 H 26.87 C 26.97,31 27.01,31.02 27.01,31.06 C 27.01,31.11 26.99,31.13 26.91,31.13 C 26.77,31.13 26.57,31.18 26.38,31.26 C 26,31.43 25.78,31.66 25.36,32.06 C 25.13,32.28 23.66,33.85 23.46,34.08 C 23.7,34.35 25.49,36.34 25.88,36.69 C 26.68,37.41 26.84,37.56 27.29,37.75 C 27.54,37.85 27.81,37.87 27.88,37.87 C 27.94,37.87 28,37.89 28,37.92 C 28,37.97 27.95,38 27.8,38 C 27.41,38 27.03,38.01 26.66,37.98 C 26.16,37.93 25.92,37.73 25.51,37.41 A 47.37,47.37 0 0,1 22.81,34.41 H 22.76 V 35.31 C 22.76,36.21 22.76,36.93 22.8,37.32 C 22.83,37.59 22.89,37.79 23.17,37.83 L 23.54,37.87 C 23.6,37.87 23.62,37.89 23.62,37.92 C 23.62,37.97 23.57,38 23.47,38 H 21.47 C 21.37,38 21.32,37.98 21.32,37.92 C 21.32,37.89 21.34,37.87 21.4,37.87 C 21.48,37.87 21.6,37.85 21.68,37.83 C 21.87,37.79 21.92,37.59 21.95,37.33 C 22,36.93 22,36.2 22,35.31 Z M 18,33.68 V 35.31 C 18,36.21 18,36.93 18.04,37.32 C 18.06,37.59 18.11,37.79 18.34,37.83 L 18.7,37.87 C 18.74,37.87 18.76,37.89 18.76,37.92 C 18.76,37.97 18.72,38 18.63,38 H 16.91 C 16.82,38 16.78,37.98 16.78,37.92 C 16.78,37.89 16.8,37.87 16.84,37.87 A 1,1 0 0,0 17.08,37.83 C 17.23,37.79 17.28,37.59 17.3,37.33 C 17.34,36.93 17.34,36.2 17.34,35.31 V 33.68 L 17.33,31.68 C 17.31,31.37 17.23,31.21 17.06,31.17 A 0.88,0.88 0 0,0 16.82,31.13 C 16.79,31.13 16.76,31.11 16.76,31.07 C 16.76,31.02 16.8,31 16.88,31 H 18.44 C 18.52,31 18.56,31.02 18.56,31.07 C 18.56,31.11 18.53,31.13 18.5,31.13 C 18.45,31.13 18.4,31.13 18.3,31.16 C 18.1,31.2 18.03,31.36 18.02,31.68 C 18,31.98 18,32.24 18,33.68 Z M 10.3,32.1 L 12.23,36.76 A 88.95,88.95 0 0,0 14.37,31.72 C 14.42,31.58 14.47,31.45 14.47,31.37 A 0.22,0.22 0 0,0 14.33,31.17 C 14.21,31.13 14.06,31.13 13.95,31.13 C 13.89,31.13 13.85,31.12 13.85,31.07 C 13.85,31.02 13.9,31 14.06,31 H 15.83 C 15.94,31 16,31.02 16,31.06 C 16,31.11 15.96,31.13 15.88,31.13 C 15.81,31.13 15.58,31.13 15.4,31.23 C 15.27,31.32 15.12,31.47 14.85,32.09 L 13.72,34.55 A 72.85,72.85 0 0,1 12.42,37.31 C 12.15,37.85 12.11,38 12.01,38 C 11.88,38 11.83,37.87 11.64,37.43 L 9.18,31.86 C 8.96,31.36 8.81,31.26 8.46,31.16 C 8.31,31.13 8.14,31.13 8.08,31.13 S 8,31.1 8,31.06 C 8,31.01 8.1,31 8.26,31 H 10.36 C 10.55,31 10.64,31.02 10.64,31.06 C 10.64,31.11 10.61,31.13 10.54,31.13 C 10.43,31.13 10.24,31.13 10.16,31.17 C 10.05,31.22 10.03,31.29 10.03,31.35 C 10.03,31.47 10.15,31.75 10.3,32.11 Z" fill="rgb(253, 253, 250)"/>
</svg>
