<?xml version="1.0" encoding="UTF-8"?>
<!-- generated by Finnhub -->
<svg viewBox="0 0 55.5 55.5" xmlns="http://www.w3.org/2000/svg">
<path d="M 0,0 H 55.5 V 55.5 H 0 Z" fill="rgb(239, 242, 248)"/>
<path d="M 27.99,30.285 C 32.97,30.3 37,27.1 37,23.15 S 32.97,16 28,16 S 19,19.2 19,23.15 C 19,25.03 19.91,26.75 21.4,28.02 C 19.92,28.92 17.55,30.82 17.55,32.72 C 17.55,35.32 19.03,36.21 20.5,36.92 C 19.67,37.19 17,38.53 17,40.32 C 17,42.11 19.76,45 28.14,45 C 36.5,45 39,41.4 39,38.35 C 39,35.31 35.87,32.36 30.44,32.09 L 28.73,32.02 C 24.38,31.82 22,31.72 22,30.12 C 22,29.68 22.43,29.42 23.17,29.05 A 0.3,0.3 0 0,0 23.29,28.95 C 24.11,28.42 25.4,27.28 25.53,26 C 25.79,26.3 26.33,27.21 26.33,27.71 A 6.04,6.04 0 0,1 24.99,29.9 C 25.93,30.16 26.95,30.3 28,30.3 Z M 26.95,19 C 25.63,19.1 23,19.78 23,21.73 C 23,22.9 24.05,24.75 27.21,26.02 C 28.64,26.59 29.96,26.98 30.98,27 C 32.21,27.02 33,26.48 33,25.04 C 33,22.41 30.37,19 26.95,19 Z M 28.05,37.74 C 24.85,37.74 22.64,37.24 21.93,37 A 3.95,3.95 0 0,0 21,39.22 C 21,42.26 24.99,43 27.58,43 C 33.61,43 35,41.25 35,39.95 C 35,37.92 32.03,37.74 28.05,37.74 Z" fill="rgb(93, 100, 75)" fill-rule="evenodd"/>
<path d="M 27.99,14.035 A 6.05,6.05 0 0,1 34.05,8 H 35 V 8.95 A 6.05,6.05 0 0,1 28.95,15 H 28 V 14.05 Z" fill="rgb(93, 100, 75)"/>
</svg>
