<?xml version="1.0" encoding="UTF-8"?>
<!-- generated by Finnhub -->
<svg viewBox="0 0 55.5 55.5" xmlns="http://www.w3.org/2000/svg">
<path d="M 0,0 H 55.5 V 55.5 H 0 Z" fill="rgb(239, 242, 248)"/>
<path d="M 21.79,23.985 C 22,23.99 22.18,23.81 22.32,23.47 A 196.1,196.1 0 0,0 25.36,15.75 C 25.48,15.43 25.71,15.3 26.06,15.38 C 26.9,15.56 27.64,15.73 28.26,15.89 C 28.63,15.99 28.79,16.18 28.74,16.48 C 28.7,16.81 28.64,17.08 28.54,17.31 C 27.9,19.03 27.51,20.04 27.38,20.35 C 26.13,23.24 24.99,26.08 23.95,28.86 C 23.83,29.19 23.58,29.36 23.21,29.35 C 22.01,29.35 20.87,29.27 19.77,29.13 A 0.66,0.66 0 0,1 19.17,28.63 A 59.95,59.95 0 0,0 17.44,23.73 C 16.48,21.37 15.34,18.47 13.99,15.03 A 1.4,1.4 0 0,1 13.88,14.35 C 13.9,14.11 14.04,13.99 14.3,14 C 15.54,14.05 16.83,14.17 18.16,14.34 C 18.52,14.39 18.76,14.58 18.85,14.93 C 19.27,16.43 20.06,19.18 21.22,23.16 C 21.33,23.56 21.46,23.82 21.61,23.94 C 21.66,23.98 21.73,24 21.8,24 Z M 35.12,17.29 C 34.97,17.24 34.58,17.35 33.94,17.61 C 33.14,17.94 32.75,18.54 32.76,19.39 C 32.76,20.05 33.1,20.47 33.77,20.66 C 34.43,20.84 35.29,21.09 36.34,21.41 C 37.28,21.71 38.18,22.08 39.04,22.54 C 39.97,23.04 40.53,24.03 40.71,25.51 A 3.3,3.3 0 0,1 39.69,28.54 C 39.1,29.09 38.27,29.5 37.2,29.79 C 36.28,30.03 35.32,30.15 34.32,30.14 C 32.97,30.12 31.94,29.67 31.24,28.78 C 30.77,28.18 30.41,27.48 30.17,26.65 A 0.35,0.35 0 0,1 30.2,26.36 C 30.26,26.26 30.34,26.21 30.44,26.18 A 23,23 0 0,1 33.02,25.69 C 33.46,25.63 33.76,25.77 33.92,26.09 C 34.17,26.58 34.59,26.85 35.19,26.89 C 35.59,26.91 35.95,26.87 36.25,26.77 C 36.66,26.63 36.88,26.38 36.92,26.04 C 36.99,25.39 36.79,24.89 36.33,24.54 A 4.62,4.62 0 0,0 34.7,23.91 A 31.96,31.96 0 0,1 31.5,23.06 A 2.92,2.92 0 0,1 29.88,21.61 A 8.04,8.04 0 0,1 29.3,19.45 C 29.1,18.22 29.35,17.25 30.04,16.54 A 5.1,5.1 0 0,1 32.54,15.39 C 33.72,15.12 34.78,14.94 35.72,14.85 A 5.55,5.55 0 0,1 37.76,15.01 C 38.56,15.23 39.03,15.65 39.16,16.26 C 39.39,17.31 39.58,18.46 39.72,19.7 C 39.73,19.83 39.67,19.92 39.54,19.96 C 38.59,20.26 37.52,20.38 36.34,20.33 C 36.19,20.33 36.11,20.25 36.1,20.11 C 36,18.77 35.73,17.87 35.32,17.39 A 0.45,0.45 0 0,0 35.12,17.29 Z M 17.7,35.67 C 17.75,35.57 17.79,35.53 17.8,35.52 C 17.93,35.51 17.98,35.55 17.96,35.67 L 17.25,40.17 C 17.23,40.32 17.29,40.42 17.43,40.47 C 18.18,40.72 18.83,40.9 19.4,41 C 19.47,41 19.54,41 19.6,40.95 S 19.7,40.84 19.7,40.76 C 19.87,37.44 20.19,34.23 20.66,31.11 C 20.7,30.86 20.6,30.69 20.36,30.59 L 18.82,29.97 A 0.49,0.49 0 0,0 18.45,29.97 A 0.46,0.46 0 0,0 18.18,30.22 C 17.74,31.18 17.05,32.74 16.11,34.88 C 15.88,35.43 15.63,35.89 15.39,36.28 C 15.22,36.55 15.1,36.53 15.03,36.23 A 8.84,8.84 0 0,1 14.88,35.4 C 14.68,33.84 14.41,31.76 14.05,29.17 C 14.02,28.9 13.86,28.75 13.6,28.71 L 12,28.48 C 11.79,28.44 11.65,28.53 11.59,28.74 C 10.54,32.32 9.69,35.59 9.02,38.54 C 8.96,38.81 9.07,38.97 9.35,39.01 L 11.55,39.34 C 11.7,39.37 11.79,39.31 11.82,39.17 C 12.07,38.04 12.37,36.55 12.72,34.7 C 12.73,34.65 12.76,34.6 12.82,34.53 A 0.07,0.07 0 0,1 12.89,34.51 C 12.93,34.51 12.94,34.54 12.95,34.57 C 13.18,35.9 13.31,37.27 13.32,38.67 C 13.32,38.89 13.42,39.03 13.64,39.1 C 14.28,39.32 14.89,39.47 15.47,39.53 C 15.76,39.56 15.96,39.44 16.07,39.18 A 34.12,34.12 0 0,1 17.7,35.68 Z M 23.9,34.14 L 25.7,33.9 C 25.79,33.9 25.85,33.91 25.91,33.96 C 25.97,34.02 25.99,34.08 25.99,34.16 L 25.88,35.36 C 25.87,35.52 25.77,35.61 25.59,35.62 L 23.87,35.69 C 23.59,35.71 23.43,35.84 23.37,36.11 A 3,3 0 0,0 23.33,36.6 C 23.32,36.87 23.45,37 23.73,36.98 L 26.22,36.88 C 26.48,36.87 26.61,36.98 26.61,37.24 V 38.81 C 26.61,38.94 26.54,39.01 26.4,39.01 H 21.7 A 0.4,0.4 0 0,1 21.4,38.88 A 0.4,0.4 0 0,1 21.28,38.58 C 21.35,37.11 21.47,34.81 21.61,31.66 C 21.62,31.38 21.69,31.2 21.81,31.11 C 21.89,31.05 22.07,31.01 22.34,30.98 L 22.6,30.95 C 23.95,30.77 25.19,30.67 26.33,30.66 C 26.51,30.66 26.59,30.74 26.59,30.91 V 32.36 C 26.59,32.58 26.48,32.7 26.26,32.73 L 23.84,33.05 C 23.71,33.07 23.64,33.15 23.64,33.26 V 33.92 C 23.64,34.09 23.74,34.16 23.9,34.14 Z M 35.18,31.37 C 35.31,33.55 35.35,35.91 35.29,38.47 C 35.29,38.71 35.41,38.83 35.66,38.82 L 36.92,38.77 C 37.18,38.76 37.33,38.63 37.37,38.37 C 37.41,38.11 37.43,37.87 37.43,37.67 C 37.45,35.76 37.43,33.59 37.36,31.17 C 37.36,31.02 37.28,30.93 37.12,30.92 A 3.93,3.93 0 0,0 35.28,31.21 C 35.21,31.24 35.18,31.3 35.18,31.37 Z M 43.33,36.91 C 43.51,36.84 43.66,36.88 43.76,37.04 L 45.09,39.02 C 45.26,39.27 45.49,39.34 45.77,39.23 C 46.37,39.01 46.98,38.73 47.6,38.39 C 48.07,38.13 48.13,37.8 47.76,37.41 C 46.16,35.68 44.72,34.07 43.42,32.58 C 43.08,32.18 42.62,31.58 42.04,30.78 L 41.53,30.08 C 41.25,29.71 40.9,29.61 40.47,29.79 L 38.75,30.49 C 38.54,30.57 38.45,30.72 38.5,30.94 C 38.66,31.72 38.8,32.47 38.9,33.19 C 38.96,33.56 39.1,35.48 39.29,38.93 C 39.34,39.81 39.38,40.35 39.41,40.54 C 39.41,40.61 39.46,40.66 39.54,40.67 C 40.26,40.77 40.88,40.72 41.4,40.53 C 41.6,40.45 41.69,40.31 41.66,40.1 L 41.38,38.13 C 41.35,37.86 41.46,37.67 41.72,37.57 L 43.33,36.91 Z M 42.48,34.61 L 41.22,32.95 C 41.14,32.84 41.03,32.81 40.9,32.85 C 40.76,32.91 40.7,33 40.72,33.15 L 40.95,35.05 C 40.95,35.09 40.97,35.14 41.01,35.18 L 41.12,35.33 C 41.22,35.44 41.32,35.47 41.46,35.41 L 42.36,35.01 C 42.45,34.98 42.5,34.92 42.52,34.84 A 0.25,0.25 0 0,0 42.48,34.6 Z M 28.17,40.05 L 27.8,31.75 A 0.37,0.37 0 0,1 28.17,31.36 L 28.57,31.35 C 29.7,31.31 30.53,31.32 31.07,31.38 C 31.97,31.48 32.67,31.73 33.17,32.12 C 33.42,32.32 33.67,32.71 33.9,33.27 C 34.03,33.58 34.1,34.02 34.12,34.59 C 34.17,35.96 34.07,37.25 33.82,38.45 C 33.74,38.8 33.51,39.15 33.12,39.49 C 32.91,39.69 32.54,39.85 32.02,39.96 C 30.78,40.23 29.59,40.36 28.46,40.33 C 28.27,40.33 28.17,40.23 28.16,40.05 Z M 30.13,33.7 C 30.13,33.66 30.15,33.64 30.18,33.64 H 30.23 C 30.63,33.64 31,33.77 31.3,34.05 C 31.6,34.34 31.75,34.69 31.76,35.1 L 31.79,36.21 C 31.8,36.63 31.67,36.99 31.39,37.29 C 31.09,37.59 30.75,37.74 30.34,37.75 H 30.29 C 30.26,37.75 30.24,37.74 30.24,37.7 L 30.13,33.7 Z" fill-rule="evenodd"/>
</svg>
