<?xml version="1.0" encoding="UTF-8"?>
<!-- generated by Finnhub -->
<svg viewBox="0 0 55.5 55.5" xmlns="http://www.w3.org/2000/svg">
<path d="M0 0h55.5v55.5H0z" fill="rgb(239, 242, 248)"/>
<path d="M20.58 11c-6.28 6.47-5.08 11.9-2.45 17.82L24.97 41c.27-4.33-1.19-14.33-4.39-30ZM33 16c-9.17 4.94-8.48 9.09-7.37 15.64.44 2.66.96 5.7.9 9.36 2.8.32 6.42-24.67 6.47-25Zm-2.74 18.7C32 28.8 33.69 23.1 42 23c-8.11 12.5-12.78 18.48-14 17.97a37.95 37.95 0 0 0 2.26-6.27ZM15 41c1.83 1.05 6.09 2.02 11.04 2C32.66 42.97 38 41.62 38 39.99c0-.78-1.04-1.47-3-1.99.62.36 1 .75 1 1.15 0 1.64-5.57 2.82-12.18 2.85-3.5.01-6.63-.42-8.82-1Z" fill="url(#a)"/>
<defs>
<linearGradient id="a" x1="16.1" x2="37.41" y1="14.3" y2="40.63" gradientUnits="userSpaceOnUse">
<stop stop-color="rgb(94, 182, 71)" offset="0"/>
<stop stop-color="rgb(1, 100, 52)" offset=".79"/>
</linearGradient>
</defs>
</svg>
