<?xml version="1.0" encoding="UTF-8"?>
<!-- generated by Finnhub -->
<svg viewBox="0 0 55.5 55.5" xmlns="http://www.w3.org/2000/svg">
<path d="M 0,0 H 55.5 V 55.5 H 0 Z" fill="rgb(98, 93, 133)"/>
<path d="M 15.99,20.985 H 5 V 24 H 9 V 35 H 12 V 24 H 16 V 21 Z M 28.14,33.16 A 7.38,7.38 0 0,1 23.24,35 C 19.23,35 15.98,31.87 15.98,28 S 19.23,21 23.23,21 C 25.2,21 26.97,21.75 28.28,22.97 L 26.41,25.17 A 4.38,4.38 0 0,0 23.23,23.83 A 4.25,4.25 0 0,0 18.91,28 C 18.91,30.3 20.85,32.17 23.23,32.17 C 24.43,32.17 25.53,31.69 26.31,30.93 L 28.14,33.16 Z M 37,30.39 V 21 H 34 V 29.52 C 33.47,32.81 30.52,32.18 29.41,31.61 L 28,33.96 C 29,34.79 30.78,35 31.55,35 C 35.59,34.7 37,31.93 37,30.39 Z M 39,21 H 42 V 26 H 47 V 21 H 50 V 35 H 47 V 29 H 42 V 35 H 39 V 21 Z" fill="rgb(254, 254, 253)"/>
</svg>
