<?xml version="1.0" encoding="UTF-8"?>
<!-- generated by Finnhub -->
<svg viewBox="0 0 55.5 55.5" xmlns="http://www.w3.org/2000/svg">
<path d="M0 0h55.5v55.5H0z" fill="rgb(239, 242, 248)"/>
<path d="M29 11h2v10.72L29 24V11Z" fill="url(#f)"/>
<path d="M27 45h-2V34.28L27 32v13Z" fill="url(#e)"/>
<path d="M45 27v-2H31.37L29 27h16Z" fill="url(#d)"/>
<path d="M11 29v2h13.63L27 29H11Z" fill="url(#c)"/>
<path d="M11 25v2h8.32A7.68 7.68 0 0 0 27 19.32V11h-2v8.58c0 3-2.43 5.42-5.42 5.42H11Z" fill="url(#b)"/>
<path d="M45 31v-2h-8.32A7.68 7.68 0 0 0 29 36.68V45h2v-8.58c0-3 2.43-5.42 5.42-5.42H45Z" fill="url(#a)"/>
<defs>
<linearGradient id="f" x1="30" x2="30" y1="11" y2="24" gradientUnits="userSpaceOnUse">
<stop stop-color="rgb(53, 123, 180)" offset="0"/>
<stop stop-color="rgb(19, 185, 211)" offset=".38"/>
<stop stop-color="rgb(30, 179, 209)" offset=".75"/>
<stop stop-color="rgb(101, 138, 194)" offset="1"/>
</linearGradient>
<linearGradient id="e" x1="26" x2="26" y1="45" y2="32" gradientUnits="userSpaceOnUse">
<stop stop-color="rgb(142, 178, 204)" offset="0"/>
<stop stop-color="rgb(179, 114, 210)" offset=".82"/>
</linearGradient>
<linearGradient id="d" x1="45" x2="29" y1="26" y2="26" gradientUnits="userSpaceOnUse">
<stop stop-color="rgb(81, 190, 161)" offset=".37"/>
<stop stop-color="rgb(128, 118, 182)" offset=".81"/>
</linearGradient>
<linearGradient id="c" x1="11" x2="27" y1="30" y2="30" gradientUnits="userSpaceOnUse">
<stop stop-color="rgb(240, 179, 144)" offset="0"/>
<stop stop-color="rgb(155, 104, 193)" offset=".86"/>
</linearGradient>
<linearGradient id="b" x1="27" x2="11" y1="11" y2="27" gradientUnits="userSpaceOnUse">
<stop stop-color="rgb(49, 115, 178)" offset="0"/>
<stop stop-color="rgb(16, 143, 200)" offset=".21"/>
<stop stop-color="rgb(115, 90, 175)" offset=".51"/>
<stop stop-color="rgb(130, 100, 172)" offset=".65"/>
<stop stop-color="rgb(247, 172, 151)" offset=".91"/>
</linearGradient>
<linearGradient id="a" x1="28.92" x2="45" y1="45" y2="28.92" gradientUnits="userSpaceOnUse">
<stop stop-color="rgb(157, 147, 179)" offset=".08"/>
<stop stop-color="rgb(103, 161, 214)" offset=".42"/>
<stop stop-color="rgb(16, 205, 194)" offset=".95"/>
</linearGradient>
</defs>
</svg>
