<?xml version="1.0" encoding="UTF-8"?>
<!-- generated by Finnhub -->
<svg viewBox="0 0 55.5 55.5" xmlns="http://www.w3.org/2000/svg">
<path d="M 0,0 H 55.5 V 55.5 H 0 Z" fill="rgb(239, 242, 248)"/>
<path d="M 44.760000000000005,26.115 A 32396.5,32396.5 0 0,1 29.83,11.16 C 29.63,10.96 29.43,10.95 29.22,11.1 A 0.21,0.21 0 0,0 29.12,11.25 C 29.11,11.4 29.12,11.57 29.17,11.77 A 1186.97,1186.97 0 0,1 31.92,24.03 L 31.94,24.04 L 31.96,24.05 C 35.99,24.93 40.06,25.85 44.17,26.79 C 44.37,26.83 44.53,26.85 44.68,26.83 C 44.74,26.83 44.8,26.79 44.83,26.74 C 44.99,26.53 44.97,26.33 44.77,26.14 Z M 24.08,23.8 L 26.83,11.5 C 26.88,11.3 26.81,11.16 26.63,11.06 C 26.46,10.96 26.31,10.99 26.17,11.13 L 11.12,26.2 C 10.98,26.34 10.96,26.5 11.06,26.67 C 11.16,26.85 11.3,26.91 11.49,26.87 L 23.78,24.11 A 0.37,0.37 0 0,0 24.08,23.81 Z M 37.32,37.31 C 32.64,42 30.12,44.52 29.74,44.88 C 29.58,45.03 29.42,45.04 29.26,44.9 C 29.16,44.82 29.13,44.7 29.16,44.58 A 1701.96,1701.96 0 0,1 31.94,31.94 L 31.96,31.93 L 31.97,31.92 A 1713.1,1713.1 0 0,1 44.57,29.14 C 44.71,29.11 44.82,29.14 44.9,29.24 C 45.04,29.4 45.03,29.57 44.88,29.73 L 37.32,37.31 Z M 23.8,31.9 L 11.5,29.15 C 11.31,29.1 11.17,29.17 11.08,29.35 C 10.98,29.51 11,29.67 11.14,29.81 L 26.18,44.87 C 26.32,45.01 26.48,45.04 26.65,44.94 C 26.83,44.84 26.89,44.7 26.85,44.51 L 24.09,32.21 A 0.36,0.36 0 0,0 23.79,31.91 Z" fill="url(#a)"/>
<defs>
<linearGradient id="a" x1="29.7" x2="20.51" y1="11" y2="35.93" gradientUnits="userSpaceOnUse">
<stop stop-color="rgb(239, 123, 10)" offset="0"/>
<stop stop-color="rgb(234, 84, 27)" offset="1"/>
</linearGradient>
</defs>
</svg>
