<?xml version="1.0" encoding="UTF-8"?>
<!-- generated by Finnhub -->
<svg viewBox="0 0 55.5 55.5" xmlns="http://www.w3.org/2000/svg">
<path d="M 0,0 H 55.5 V 55.5 H 0 Z" fill="rgb(239, 242, 248)"/>
<rect transform="rotate(-45 16 28)" x="16" y="28" width="16.97" height="16.97" rx="1" fill="rgb(95, 95, 94)"/>
<path d="M 19.13,12.764999999999999 L 21.26,10.65 L 24,13.4 L 25.2,12.2 A 4,4 0 0,1 30.85,12.2 L 32.02,13.38 L 34.7,10.7 L 36.82,12.82 L 34.15,15.5 L 36.27,17.62 L 38.94,14.94 L 41.07,17.07 L 38.39,19.74 L 40.51,21.87 L 43.19,19.19 L 45.31,21.31 L 42.63,23.99 L 43.83,25.19 A 4,4 0 0,1 43.83,30.84 L 42.63,32.04 L 44.62,34 L 42.5,36.12 L 40.51,34.14 L 38.39,36.26 L 40.37,38.24 L 38.25,40.36 L 36.27,38.38 L 34.15,40.5 L 36.13,42.49 L 34.01,44.61 L 32.02,42.62 L 30.85,43.79 A 4,4 0 0,1 25.19,43.79 L 24,42.6 L 22,44.62 L 19.88,42.5 L 21.88,40.49 L 19.77,38.37 L 17.76,40.37 L 15.64,38.25 L 17.64,36.25 L 15.52,34.12 L 13.52,36.13 L 11.39,34.01 L 13.4,32.01 L 12.23,30.83 A 4,4 0 0,1 12.23,25.17 L 13.39,24 L 10.66,21.26 L 12.78,19.14 L 15.51,21.88 L 17.63,19.76 L 14.9,17.02 L 17.02,14.9 L 19.76,17.63 L 21.88,15.51 L 19.14,12.78 Z M 15.01,29.4 A 2,2 0 0,1 15.01,26.58 L 26.61,14.98 A 2,2 0 0,1 29.44,14.98 L 41.04,26.58 A 2,2 0 0,1 41.04,29.4 L 29.44,41 A 2,2 0 0,1 26.61,41 L 15,29.41 Z" fill="url(#a)" fill-rule="evenodd"/>
<defs>
<linearGradient id="a" x1="39.55" x2="15.91" y1="14.31" y2="39.28" gradientUnits="userSpaceOnUse">
<stop stop-color="rgb(138, 196, 61)" offset="0"/>
<stop stop-color="rgb(14, 149, 66)" offset="1"/>
</linearGradient>
</defs>
</svg>
