<?xml version="1.0" encoding="UTF-8"?>
<!-- generated by Finnhub -->
<svg viewBox="0 0 55.5 55.5" xmlns="http://www.w3.org/2000/svg">
<path d="M 0,0 H 55.5 V 55.5 H 0 Z" fill="rgb(239, 242, 248)"/>
<path d="M 40.32,25.355 C 40.28,25.37 40.26,25.35 40.27,25.3 L 40.29,25.17 C 40.33,25 40.35,24.89 40.35,24.83 L 41.55,11.13 C 41.55,11.03 41.51,10.99 41.41,11 L 12.08,15.52 C 11.96,15.54 11.92,15.6 11.95,15.72 L 14.35,24.69 C 14.38,24.81 14.34,24.87 14.22,24.89 H 13.94 C 12.05,24.89 10.44,24.91 9.1,24.96 C 9.01,24.96 8.98,25 9.01,25.09 L 14.15,40.71 C 14.32,41.21 14.47,41.6 14.6,41.84 C 14.62,41.88 14.65,41.9 14.7,41.89 A 1565,1565 0 0,1 27.5,40.05 C 27.54,40.05 27.57,40.06 27.58,40.11 C 27.65,40.39 27.68,40.61 27.68,40.76 C 27.68,42.3 27.71,43.69 27.77,44.94 C 27.77,45 27.79,45.01 27.84,44.99 L 42.7,38.25 A 0.34,0.34 0 0,0 42.9,37.98 L 45,25.7 C 45.02,25.53 44.95,25.45 44.78,25.44 C 43.47,25.38 41.98,25.36 40.33,25.38 Z M 37.58,24.53 C 37.52,23.93 37.22,23.53 36.66,23.3 A 0.07,0.07 0 0,1 36.61,23.24 C 36.61,23.21 36.61,23.19 36.64,23.17 C 37.23,22.67 37.5,22.07 37.45,21.37 C 37.42,20.99 37.32,20.67 37.13,20.41 A 1.8,1.8 0 0,0 36.26,19.77 C 35.91,19.65 35.56,19.59 35.19,19.61 C 34.04,19.67 32.83,19.75 31.56,19.84 C 31.41,19.84 31.34,19.93 31.34,20.08 V 26.74 C 31.34,26.8 31.37,26.83 31.43,26.84 A 82,82 0 0,0 34.79,26.92 C 35.25,26.92 35.63,26.89 35.93,26.82 C 37.15,26.54 37.69,25.78 37.58,24.52 Z M 33.26,21.4 C 33.26,21.35 33.28,21.32 33.34,21.32 L 34.57,21.26 C 34.74,21.26 34.89,21.29 35.01,21.39 C 35.13,21.48 35.2,21.59 35.21,21.73 V 21.83 C 35.21,21.96 35.16,22.09 35.05,22.19 A 0.65,0.65 0 0,1 34.63,22.36 L 33.39,22.41 C 33.34,22.41 33.31,22.39 33.31,22.34 L 33.26,21.4 Z M 33.26,24.29 C 33.26,24.21 33.3,24.18 33.38,24.18 H 34.76 C 34.92,24.18 35.06,24.23 35.17,24.32 C 35.28,24.42 35.34,24.54 35.34,24.68 V 24.82 C 35.34,24.96 35.28,25.07 35.17,25.17 A 0.6,0.6 0 0,1 34.77,25.32 H 33.37 C 33.3,25.32 33.27,25.28 33.27,25.21 V 24.29 Z M 27.82,22.39 V 21.86 C 27.82,21.78 27.87,21.74 27.95,21.74 L 30.82,21.59 C 30.9,21.59 30.93,21.55 30.94,21.47 V 20.03 C 30.94,19.94 30.9,19.9 30.81,19.91 L 26.17,20.21 C 26.1,20.22 26,20.26 26,20.34 V 26.57 C 26,26.65 26.04,26.69 26.12,26.69 L 30.79,26.81 C 30.88,26.81 30.92,26.77 30.92,26.69 V 25.26 C 30.92,25.18 30.87,25.14 30.79,25.13 L 27.93,25.09 C 27.85,25.09 27.81,25.04 27.81,24.96 L 27.82,24.35 C 27.82,24.27 27.86,24.23 27.94,24.23 L 30.44,24.21 C 30.51,24.21 30.55,24.17 30.55,24.09 L 30.57,22.57 C 30.57,22.49 30.53,22.45 30.45,22.45 L 27.95,22.52 C 27.86,22.52 27.82,22.48 27.82,22.39 Z M 20.04,20.66 L 19.19,24.02 C 19.19,24.04 19.17,24.05 19.15,24.05 C 19.12,24.05 19.11,24.04 19.1,24.01 L 18.37,20.77 C 18.37,20.74 18.35,20.73 18.32,20.73 L 16.71,20.84 C 16.67,20.84 16.66,20.87 16.67,20.9 L 18.05,26.45 C 18.05,26.47 18.07,26.49 18.09,26.49 L 19.91,26.51 C 19.93,26.51 19.95,26.5 19.95,26.47 L 20.78,23.57 C 20.78,23.55 20.8,23.54 20.83,23.54 C 20.85,23.54 20.86,23.55 20.87,23.57 L 21.68,26.54 C 21.68,26.56 21.7,26.57 21.72,26.57 L 23.62,26.62 C 23.64,26.62 23.65,26.61 23.66,26.58 L 25.36,20.33 C 25.38,20.29 25.36,20.27 25.32,20.27 L 23.6,20.37 C 23.58,20.37 23.56,20.37 23.56,20.4 L 22.66,24 C 22.65,24.03 22.63,24.04 22.61,24.04 C 22.58,24.04 22.57,24.03 22.56,24.01 L 21.71,20.54 C 21.71,20.52 21.69,20.51 21.66,20.51 L 20.09,20.62 C 20.06,20.62 20.05,20.63 20.04,20.66 Z M 18,35.02 V 29.9 C 18,29.82 18.09,29.78 18.17,29.78 L 19.93,29.79 C 20.01,29.79 20.05,29.76 20.05,29.68 L 20.1,28.04 C 20.1,27.96 20.07,27.92 19.99,27.91 L 13.84,27.73 C 13.75,27.73 13.71,27.77 13.71,27.86 L 13.77,29.61 C 13.77,29.68 13.81,29.72 13.89,29.72 L 15.83,29.77 C 15.91,29.77 16,29.81 16,29.89 V 35.19 C 16,35.26 16,35.29 16.07,35.29 L 17.97,35.15 C 18.02,35.15 18.01,35.13 18.01,35.09 L 18,35.03 Z M 39.23,31.12 L 39.26,28.36 C 39.26,28.31 39.29,28.28 39.34,28.28 L 40.93,28.3 C 40.98,28.3 41,28.33 41,28.38 L 40.78,33.84 C 40.78,33.89 40.75,33.91 40.71,33.91 L 39.27,33.95 L 39.21,33.92 L 37.47,31.42 C 37.45,31.38 37.42,31.38 37.39,31.39 A 0.07,0.07 0 0,0 37.34,31.46 L 37.33,34.01 C 37.33,34.06 37.31,34.08 37.26,34.08 L 35.58,34.16 C 35.52,34.16 35.5,34.14 35.5,34.09 L 35.55,28.28 C 35.55,28.23 35.58,28.21 35.63,28.21 L 37.13,28.26 C 37.15,28.26 37.17,28.27 37.18,28.29 L 39.09,31.16 C 39.11,31.19 39.14,31.2 39.17,31.19 C 39.21,31.19 39.23,31.16 39.23,31.12 Z M 27.85,31.47 C 27.85,32.47 27.49,33.31 26.78,34.02 A 3.54,3.54 0 0,1 24.19,35.08 C 23.19,35.08 22.33,34.72 21.61,34.02 A 3.47,3.47 0 0,1 20.54,31.47 C 20.54,30.47 20.9,29.62 21.61,28.91 A 3.54,3.54 0 0,1 24.19,27.85 C 25.2,27.85 26.06,28.21 26.78,28.91 C 27.49,29.61 27.85,30.47 27.85,31.47 Z M 22.71,31.42 C 22.68,32.37 23.37,33.16 24.24,33.18 C 25.12,33.2 25.84,32.45 25.87,31.51 C 25.9,30.56 25.21,29.77 24.34,29.75 C 23.46,29.73 22.74,30.48 22.71,31.42 Z M 29.17,33.58 A 3.15,3.15 0 0,0 31.45,34.63 C 32.35,34.66 33.14,34.36 33.8,33.74 A 3.2,3.2 0 0,0 34.85,31.44 C 34.88,30.54 34.58,29.74 33.97,29.08 A 3.15,3.15 0 0,0 31.68,28.03 C 30.78,28 29.99,28.29 29.33,28.92 A 3.2,3.2 0 0,0 28.29,31.22 C 28.26,32.12 28.55,32.92 29.17,33.58 Z M 31.57,32.91 C 30.77,32.87 30.17,32.15 30.2,31.29 C 30.24,30.43 30.91,29.76 31.7,29.79 C 32.5,29.82 33.1,30.55 33.06,31.41 C 33.02,32.27 32.36,32.94 31.56,32.91 Z" fill="rgb(1, 211, 98)" fill-rule="evenodd"/>
</svg>
