<?xml version="1.0" encoding="UTF-8"?>
<!-- generated by Finnhub -->
<svg viewBox="0 0 55.5 55.5" xmlns="http://www.w3.org/2000/svg">
<path d="M 0,0 H 55.5 V 55.5 H 0 Z" fill="rgb(239, 242, 248)"/>
<path d="M 25.83,12.245 A 15.6,15.6 0 0,1 30.52,12.11 C 37.69,12.91 43.17,18.96 43.92,25.95 C 44.43,30.8 42.52,35.31 39.04,38.66 A 15.9,15.9 0 0,1 28.1,43 H 13.65 A 0.52,0.52 0 0,1 13.22,42.75 C 13.04,42.45 12.97,42.1 13.02,41.71 C 13.04,41.41 14.72,40.56 16.08,39.86 C 16.87,39.46 17.55,39.11 17.78,38.94 C 17.88,38.86 17.91,38.76 17.86,38.64 A 16.15,16.15 0 0,1 13.06,28.53 A 9.07,9.07 0 0,1 13.08,26.47 C 13.78,19.07 18.4,13.69 25.84,12.26 Z M 13.12,26.57 Z M 24.12,35.72 C 24.69,35.8 25.26,35.72 25.83,35.51 C 25.89,35.49 25.95,35.51 26.01,35.52 C 26.1,35.55 26.18,35.57 26.21,35.49 C 26.33,35.25 26.41,35.02 26.46,34.79 C 26.89,32.8 27.36,30.72 27.9,28.54 C 27.96,28.31 28.13,27.74 28.44,27.77 C 28.8,27.78 29.03,27.98 29.11,28.37 C 29.68,30.78 30.21,33.12 30.73,35.37 C 30.73,35.44 30.77,35.49 30.83,35.52 C 30.91,35.58 30.98,35.55 31.05,35.52 C 31.11,35.5 31.18,35.47 31.25,35.5 C 31.87,35.75 32.74,35.94 33.29,35.52 C 33.41,35.42 33.61,35.52 33.76,35.59 L 33.87,35.64 C 34.01,35.69 34.05,35.64 34.01,35.5 A 2.2,2.2 0 0,0 33.97,35.36 C 33.91,35.2 33.84,35 33.91,34.86 C 34.58,33.44 35.31,31.28 36.08,28.39 C 36.78,25.78 37.25,23.69 37.48,22.14 C 37.74,22 37.84,21.82 37.78,21.6 C 37.75,21.46 37.44,21.47 37.18,21.47 C 37.01,21.47 36.86,21.48 36.78,21.45 C 36.23,21.24 35.58,21.3 34.86,21.65 A 0.63,0.63 0 0,0 34.48,22.2 C 34.29,24.6 33.65,27.2 32.76,29.67 C 32.71,29.8 32.56,29.87 32.43,29.83 C 32.11,29.72 31.69,29.46 31.71,29.06 C 31.71,28.86 31.71,28.66 31.67,28.46 A 46.99,46.99 0 0,0 30.27,22.42 A 4.93,4.93 0 0,1 30.11,21.56 C 30.1,21.46 30.06,21.39 29.95,21.42 A 0.48,0.48 0 0,0 29.8,21.49 C 29.72,21.54 29.64,21.59 29.55,21.55 C 28.95,21.25 28.35,21.23 27.75,21.49 A 0.48,0.48 0 0,1 27.27,21.45 C 27.07,21.32 27.01,21.79 26.97,22.11 C 26.96,22.21 26.95,22.31 26.93,22.35 C 26.3,24.35 25.81,26.59 25.46,29.1 A 0.86,0.86 0 0,1 24.69,29.83 C 24.57,29.84 24.49,29.79 24.46,29.68 C 24.26,29.08 24.07,28.48 23.89,27.86 C 23.27,25.85 22.84,23.82 22.59,21.76 A 3.71,3.71 0 0,0 20.51,21.32 C 20.41,21.32 20.34,21.4 20.26,21.46 C 20.16,21.56 20.06,21.64 19.91,21.57 A 1.12,1.12 0 0,0 19.54,21.47 C 19.17,21.45 19.1,21.58 19.33,21.88 C 19.65,22.3 19.79,22.83 19.77,23.49 C 20.24,25.96 20.95,28.69 21.9,31.69 C 22.3,32.96 22.71,34.01 23.13,34.84 C 23.2,34.99 23.11,35.2 23.03,35.37 L 22.98,35.52 C 23.01,35.7 23.55,35.71 23.88,35.71 H 24.11 Z" fill="url(#a)"/>
<defs>
<linearGradient id="a" x1="18.28" x2="36.45" y1="14.97" y2="40.09" gradientUnits="userSpaceOnUse">
<stop stop-color="rgb(11, 117, 251)" offset="0"/>
<stop stop-color="rgb(76, 97, 253)" offset=".48"/>
<stop stop-color="rgb(147, 57, 253)" offset="1"/>
</linearGradient>
</defs>
</svg>
