<?xml version="1.0" encoding="UTF-8"?>
<!-- generated by Finnhub -->
<svg viewBox="0 0 55.5 55.5" xmlns="http://www.w3.org/2000/svg">
<path d="M0 0h55.5v55.5H0z" fill="rgb(239, 242, 248)"/>
<path d="M28 16.48V12L10 22.76 13.62 25 28 16.48Z" fill="rgb(254, 205, 2)"/>
<path d="M28 16.48V12l18 10.76L42.38 25 28 16.48Z" fill="rgb(198, 149, 45)"/>
<path d="M28 21.2V17l-13 7.88L18.43 27 28 21.2Z" fill="rgb(160, 32, 32)"/>
<path d="M28 20.07V17l-12.17 7.39 2.45 1.53L28 20.07Z" fill="rgb(243, 100, 28)"/>
<path d="M28 21.2V17l13 7.88L37.57 27 28 21.2Z" fill="rgb(160, 32, 32)"/>
<path d="M28 20.07V17l12.17 7.39-2.45 1.53L28 20.07Z" fill="rgb(205, 55, 41)"/>
<path d="M28 39.52V44l18-10.76L42.38 31 28 39.52Z" fill="rgb(254, 205, 2)"/>
<path d="M28 39.52V44L10 33.24 13.62 31 28 39.52Z" fill="rgb(198, 149, 45)"/>
<path d="M28 34.8V39l13-7.88L37.57 29 28 34.8Z" fill="rgb(160, 32, 32)"/>
<path d="M28 35.93V39l12.17-7.39-2.45-1.53L28 35.93Z" fill="rgb(243, 100, 28)"/>
<path d="M28 34.8V39l-13-7.88L18.43 29 28 34.8Z" fill="rgb(160, 32, 32)"/>
<path d="M28 35.93V39l-12.17-7.39 2.45-1.53L28 35.93Z" fill="rgb(205, 55, 41)"/>
</svg>
