<!-- by Finnhub --><svg width="56" height="56" viewBox="0 0 56 56" xmlns="http://www.w3.org/2000/svg"><path fill="#F0F3FA" d="M0 0h56v56H0z"/><path d="M16.11 18H11l10.44 18.86a2.11 2.11 0 0 0 3.7 0l2.8-5.1 2.9 5.16a2.11 2.11 0 0 0 3.7-.01L45 18h-5.07L32.7 31.37 27.07 21h-5.24l3.6 6.25-2.13 4.12L16.11 18Z" fill="#182760"/><path d="M44 28a16 16 0 1 1-31.22-4.96l2.26 3.97a13 13 0 1 0 25.94.28l2.3-4.05A16 16 0 0 1 44 28Zm-4.65-11.28-1.5 2.79a12.97 12.97 0 0 0-19.58-.13l-1.5-2.77A15.95 15.95 0 0 1 28 12c4.44 0 8.45 1.8 11.35 4.72Z" fill="#A3ADAF"/></svg>