<!-- by Finnhub --><svg width="56" height="56" viewBox="0 0 56 56" xmlns="http://www.w3.org/2000/svg"><path fill="#007BA4" d="M0 0h56v56H0z"/><path d="m14 26-2 5h-2l-1-3.3L8 31H6l-2-5h2l1 3.5L8 26h2l1 3.5 1-3.5h2ZM17 26v5h-2v-5h2ZM24 31h-2l-2-3.08V31h-2v-5h2l2 3.1V26h2v5ZM45 31h-2l-2-3.08V31h-2v-5h2l2 3.1V26h2v5ZM27 30h3v1h-5v-5h2v4ZM38 31h-1.8l-.46-1h-2.5l-.47 1H31l2.52-5h1.96L38 31Zm-4.29-2h1.56l-.78-1.65-.78 1.65ZM52 27.5c0-1.5-.98-1.5-2.5-1.5H46v5h2v-4h1c.92 0 1 .43 1 1.5s-.08 1.5-1 1.5h-.5v1h1c1.05 0 2.5 0 2.5-1.5v-2Z" fill="#F3FFFD"/></svg>