<?xml version="1.0" encoding="UTF-8"?>
<!-- generated by Finnhub -->
<svg viewBox="0 0 55.5 55.5" xmlns="http://www.w3.org/2000/svg">
<path d="M 0,0 H 55.5 V 55.5 H 0 Z" fill="rgb(239, 242, 248)"/>
<path d="M 37.95,11.285 A 99.21,99.21 0 0,0 36.61,14.38 C 36.57,14.48 36.63,14.55 36.79,14.58 A 16.05,16.05 0 0,1 44.03,27.9 C 43.99,28.2 43.97,28.5 43.96,28.81 C 43.9,31.14 43.14,33.51 42.03,35.54 C 42.02,35.57 42.03,35.59 42.05,35.6 L 42.19,35.7 L 44.95,37.8 C 44.97,37.83 44.98,37.85 44.95,37.87 C 44.92,37.91 44.88,37.91 44.82,37.87 L 41.53,36.43 C 41.51,36.43 41.49,36.43 41.48,36.45 L 41.32,36.72 A 16.07,16.07 0 0,1 20.34,41.89 C 20.29,41.86 20.24,41.87 20.21,41.92 C 19.48,42.84 18.79,43.74 18.14,44.6 C 18.06,44.7 17.99,44.72 17.93,44.65 L 19.28,41.59 C 19.32,41.49 19.35,41.41 19.35,41.34 A 0.07,0.07 0 0,0 19.31,41.27 A 15.91,15.91 0 0,1 12.64,32.57 A 15.88,15.88 0 0,1 13.86,20.33 L 13.9,20.23 C 13.91,20.21 13.9,20.18 13.88,20.17 L 11,17.97 V 17.9 C 11.01,17.87 11.03,17.86 11.06,17.87 L 14.4,19.34 C 14.43,19.34 14.45,19.34 14.47,19.32 A 16.09,16.09 0 0,1 35.66,13.91 C 35.69,13.92 35.71,13.91 35.73,13.9 L 37.96,11.02 A 0.04,0.04 0 0,1 38.02,11.02 V 11.03 C 38.05,11.11 38.02,11.2 37.96,11.31 Z M 18.97,15.87 L 21.6,19.25 L 21.63,19.26 H 21.66 C 22.71,18.51 23.86,17.96 25.1,17.61 A 0.12,0.12 0 0,0 25.18,17.47 A 0.76,0.76 0 0,1 25.18,17.14 C 25.18,17.08 25.21,17.07 25.23,17.14 L 25.37,17.44 A 0.1,0.1 0 0,0 25.49,17.5 A 11.35,11.35 0 0,1 29.4,17.3 L 29.41,17.28 L 29.96,13.02 L 30,12.76 C 30,12.73 30,12.71 29.96,12.71 A 15.67,15.67 0 0,0 18.8,15.63 A 0.05,0.05 0 0,0 18.8,15.67 L 18.97,15.87 Z M 29.62,17.32 L 30.32,17.49 C 31.04,17.64 31.71,17.87 32.38,18.17 C 32.4,18.17 32.42,18.17 32.44,18.15 L 35.12,14.69 L 35.27,14.49 C 35.29,14.46 35.28,14.44 35.25,14.42 A 15.35,15.35 0 0,0 30.21,12.77 V 12.78 L 30.2,12.8 L 29.62,17.32 Z M 29.33,26.32 L 31.13,26.08 C 31.15,26.08 31.17,26.06 31.19,26.03 L 35.93,15.33 L 36.98,12.93 H 36.97 C 36.9,13.02 36.83,13.11 36.77,13.22 C 34.17,17.58 31.55,21.94 28.97,26.32 C 28.95,26.35 28.97,26.37 29,26.36 L 29.34,26.32 Z M 34.61,19.5 C 35.33,20.07 35.95,20.7 36.49,21.4 C 36.51,21.42 36.53,21.43 36.55,21.4 L 40.04,18.72 A 0.24,0.24 0 0,0 40.16,18.63 C 40.18,18.61 40.18,18.59 40.16,18.56 A 14.98,14.98 0 0,0 36.32,15.06 A 0.05,0.05 0 0,0 36.29,15.09 L 34.42,19.32 A 0.06,0.06 0 0,0 34.45,19.39 L 34.61,19.5 Z M 15.27,19.7 L 19.35,21.49 C 19.37,21.49 19.4,21.49 19.41,21.47 A 11.2,11.2 0 0,1 21.32,19.51 L 21.42,19.43 C 21.45,19.41 21.45,19.39 21.43,19.36 L 18.64,15.78 V 15.77 H 18.62 A 0.03,0.03 0 0,0 18.6,15.77 A 15.37,15.37 0 0,0 15.08,19.54 C 15.06,19.57 15.06,19.59 15.08,19.61 A 0.4,0.4 0 0,0 15.27,19.71 Z M 25.64,18.1 L 25.92,18.8 C 25.92,18.83 25.95,18.84 25.97,18.84 A 9.6,9.6 0 0,1 29.21,18.69 L 29.22,18.68 V 18.66 L 29.33,17.92 L 29.37,17.62 C 29.37,17.59 29.37,17.57 29.34,17.57 A 10.55,10.55 0 0,0 25.55,17.78 A 0.06,0.06 0 0,0 25.55,17.83 L 25.65,18.1 Z M 29.47,18.65 A 0.07,0.07 0 0,0 29.46,18.69 C 29.46,18.72 29.46,18.73 29.49,18.74 A 10.4,10.4 0 0,1 31.54,19.32 L 31.57,19.3 L 32.07,18.63 L 32.23,18.43 C 32.25,18.41 32.24,18.39 32.21,18.38 C 31.38,18.01 30.52,17.75 29.63,17.6 C 29.6,17.6 29.59,17.6 29.58,17.63 L 29.48,18.65 Z M 22.02,19.77 L 22.47,20.36 L 22.49,20.38 L 22.52,20.37 A 9.37,9.37 0 0,1 25.34,19 C 25.37,19 25.38,18.98 25.38,18.95 L 25.28,18.19 L 25.24,17.89 A 0.05,0.05 0 0,0 25.2,17.85 H 25.18 C 23.98,18.19 22.86,18.72 21.85,19.45 C 21.82,19.47 21.82,19.49 21.83,19.52 C 21.87,19.62 21.93,19.7 22.02,19.77 Z M 36.84,21.87 C 37.51,22.85 38.01,23.92 38.34,25.09 C 38.35,25.12 38.37,25.13 38.4,25.13 L 38.73,25.11 L 38.77,25.12 A 0.06,0.06 0 0,1 38.79,25.2 C 38.79,25.22 38.77,25.23 38.75,25.23 L 38.52,25.31 A 0.13,0.13 0 0,0 38.44,25.46 C 38.74,26.72 38.81,27.99 38.66,29.28 C 38.66,29.3 38.66,29.32 38.69,29.32 L 43.14,29.89 C 43.2,29.9 43.24,29.87 43.24,29.82 A 15.4,15.4 0 0,0 40.35,18.81 C 40.33,18.79 40.31,18.78 40.29,18.8 C 40.15,18.88 39.99,19 39.79,19.15 A 2354.77,2354.77 0 0,0 36.65,21.57 L 36.66,21.62 L 36.84,21.87 Z M 26.18,19.45 L 26.59,20.5 C 26.6,20.52 26.62,20.54 26.65,20.53 A 8.44,8.44 0 0,1 28.68,20.43 L 28.98,20.47 H 29 L 29.01,20.44 V 20.41 L 29,20.39 L 28.76,20.21 C 28.54,19.78 28.66,19.49 29.14,19.34 C 29.17,19.34 29.18,19.31 29.17,19.28 L 29.16,19.26 L 29.18,18.99 C 29.18,18.96 29.18,18.95 29.14,18.94 A 8.86,8.86 0 0,0 26.06,19.06 C 26.03,19.07 26.02,19.09 26.03,19.12 L 26.17,19.45 Z M 15.63,20.55 L 26.38,26.88 H 26.4 V 26.87 L 26.41,26.86 L 26.16,24.98 C 26.18,24.8 26.16,24.73 25.99,24.65 L 13.77,19.31 C 13.58,19.23 13.27,19.06 13,18.97 H 12.98 V 18.98 A 0.02,0.02 0 0,0 12.98,19.01 L 15.63,20.55 Z M 29.5,19.5 C 29.63,19.62 29.7,19.76 29.67,19.92 C 29.7,20.16 29.42,20.32 29.23,20.4 A 0.07,0.07 0 0,0 29.21,20.5 L 29.24,20.52 L 29.66,20.62 L 30.36,20.8 C 30.38,20.8 30.4,20.8 30.42,20.78 L 31.21,19.74 L 31.34,19.59 A 0.05,0.05 0 0,0 31.34,19.55 A 0.04,0.04 0 0,0 31.32,19.52 A 7.7,7.7 0 0,0 29.46,19 C 29.43,19 29.41,19 29.4,19.04 L 29.36,19.34 C 29.36,19.37 29.36,19.39 29.38,19.4 L 29.5,19.5 Z M 22.92,20.84 C 23.35,20.92 23.54,21.14 23.49,21.52 C 23.47,21.64 23.51,21.69 23.57,21.79 C 23.58,21.81 23.6,21.81 23.63,21.79 C 24.23,21.37 24.88,21.04 25.58,20.81 C 25.61,20.81 25.62,20.78 25.62,20.76 L 25.46,19.6 L 25.43,19.34 C 25.43,19.27 25.39,19.25 25.33,19.27 A 8.6,8.6 0 0,0 22.69,20.57 C 22.67,20.59 22.66,20.61 22.67,20.63 C 22.77,20.82 22.86,20.89 22.92,20.83 Z M 28.66,26.53 L 27.7,24.07 L 25.85,19.32 H 25.84 L 27.97,27.62 C 27.97,27.64 27.99,27.65 28,27.62 L 28.66,26.52 Z M 19.87,21.73 L 20.67,22.07 C 20.7,22.08 20.72,22.07 20.74,22.05 C 21.21,21.51 21.71,21.01 22.25,20.57 L 22.28,20.55 C 22.3,20.53 22.31,20.5 22.29,20.48 L 21.65,19.64 C 21.64,19.62 21.62,19.62 21.6,19.64 A 11.75,11.75 0 0,0 19.66,21.61 L 19.67,21.64 C 19.74,21.69 19.8,21.72 19.87,21.72 Z M 33.92,20.75 A 11.38,11.38 0 0,1 35.42,22.27 A 0.08,0.08 0 0,0 35.48,22.25 L 36.15,21.71 C 36.2,21.7 36.24,21.67 36.27,21.61 A 0.08,0.08 0 0,0 36.26,21.53 C 35.7,20.83 35.06,20.19 34.34,19.64 C 34.32,19.62 34.3,19.63 34.29,19.65 C 34.14,19.98 33.99,20.3 33.86,20.63 C 33.83,20.69 33.86,20.73 33.92,20.75 Z M 12.75,25.69 L 17.32,26.28 C 17.35,26.28 17.36,26.28 17.37,26.25 C 17.52,25.33 17.77,24.45 18.14,23.62 L 18.19,23.54 C 18.2,23.51 18.19,23.49 18.17,23.47 L 14.47,20.65 A 0.04,0.04 0 0,0 14.42,20.65 A 15.9,15.9 0 0,0 12.75,25.69 Z M 21.25,22.31 L 22.39,22.83 C 22.41,22.84 22.44,22.83 22.46,22.82 L 23,22.29 L 23.4,21.99 A 0.05,0.05 0 0,0 23.4,21.92 L 23.35,21.79 C 23.33,21.76 23.31,21.75 23.28,21.77 C 22.99,21.94 22.75,21.89 22.55,21.62 C 22.48,21.49 22.48,21.32 22.55,21.1 C 22.69,21.02 22.68,20.9 22.51,20.74 C 22.49,20.72 22.47,20.72 22.44,20.74 A 10.74,10.74 0 0,0 20.97,22.17 V 22.2 A 0.07,0.07 0 0,0 21.01,22.24 L 21.24,22.31 Z M 28.97,21.07 L 28.95,20.95 C 28.95,20.92 28.93,20.9 28.91,20.9 C 28.21,20.82 27.51,20.84 26.81,20.94 C 26.78,20.94 26.77,20.97 26.78,21 L 26.85,21.23 A 0.06,0.06 0 0,0 26.92,21.27 C 27.86,21.12 28.8,21.17 29.72,21.42 C 29.92,21.47 30.02,21.39 30.07,21.21 C 30.07,21.17 30.06,21.15 30.02,21.14 L 29.23,20.94 H 29.2 L 29.18,20.96 L 29.06,21.1 A 0.05,0.05 0 0,1 29.01,21.12 L 28.99,21.1 L 28.97,21.07 Z M 33.24,22.57 L 33.97,23.39 A 0.03,0.03 0 0,0 34.01,23.39 A 0.03,0.03 0 0,0 34.02,23.36 C 33.85,22.86 34.32,22.34 34.81,22.7 C 34.83,22.72 34.85,22.72 34.87,22.7 L 35.1,22.54 C 35.2,22.51 35.22,22.47 35.18,22.41 C 34.82,21.91 34.35,21.42 33.76,20.96 C 33.74,20.94 33.72,20.95 33.71,20.97 A 24,24 0 0,0 33.14,22.27 C 33.08,22.41 33.12,22.51 33.24,22.57 Z M 23.81,22.37 L 23.71,22.3 A 0.06,0.06 0 0,0 23.67,22.3 H 23.64 L 22.87,22.98 C 22.84,23 22.84,23.01 22.87,23.03 C 23.06,23.17 23.16,23.2 23.33,23.03 A 6.37,6.37 0 0,1 25.69,21.59 C 25.72,21.58 25.73,21.56 25.73,21.53 L 25.69,21.28 C 25.69,21.25 25.67,21.24 25.65,21.25 A 6.31,6.31 0 0,0 23.9,22.15 V 22.33 A 0.05,0.05 0 0,1 23.86,22.38 A 0.05,0.05 0 0,1 23.81,22.38 Z M 27.13,21.89 L 27.93,23.93 C 27.93,23.96 27.95,23.96 27.97,23.93 L 29.54,21.91 L 29.73,21.65 C 29.75,21.62 29.74,21.61 29.71,21.6 A 6.86,6.86 0 0,0 26.97,21.46 A 0.05,0.05 0 0,0 26.97,21.5 L 27.13,21.89 Z M 35.73,22.72 C 36.24,23.52 36.65,24.38 36.94,25.31 C 36.95,25.33 36.97,25.34 36.99,25.33 L 38.04,25.19 C 38.07,25.19 38.08,25.17 38.07,25.14 L 38,24.99 A 9.23,9.23 0 0,0 36.45,21.79 C 36.43,21.77 36.41,21.77 36.39,21.79 L 35.58,22.4 L 35.56,22.43 A 0.08,0.08 0 0,0 35.56,22.51 L 35.72,22.71 Z M 23.68,23.38 L 26.03,24.41 A 0.04,0.04 0 0,0 26.09,24.37 L 25.79,22.13 L 25.76,21.81 C 25.76,21.78 25.74,21.77 25.71,21.78 A 6.2,6.2 0 0,0 23.42,23.21 C 23.4,23.24 23.4,23.26 23.44,23.28 L 23.68,23.38 Z M 34.38,23.98 C 34.69,24.48 34.94,25.01 35.11,25.53 C 35.11,25.56 35.13,25.57 35.16,25.57 L 36.6,25.39 C 36.64,25.38 36.65,25.36 36.65,25.32 L 36.61,25.15 A 9.24,9.24 0 0,0 35.38,22.67 A 0.05,0.05 0 0,0 35.32,22.65 C 34.88,22.73 35.04,23 34.92,23.26 C 34.79,23.58 34.53,23.66 34.16,23.52 C 34.11,23.5 34.1,23.51 34.13,23.55 L 34.38,23.98 Z M 32.91,23.32 C 33.53,23.98 34.01,24.75 34.33,25.61 C 34.33,25.64 34.36,25.65 34.38,25.66 C 34.48,25.7 34.56,25.68 34.64,25.63 C 34.68,25.23 34.06,24.25 33.85,23.92 A 0.12,0.12 0 0,0 33.8,23.88 L 33.69,23.82 A 0.08,0.08 0 0,1 33.64,23.75 C 33.58,23.44 33.14,23.04 32.94,22.85 A 0.05,0.05 0 0,0 32.9,22.85 A 0.05,0.05 0 0,0 32.87,22.87 L 32.76,23.08 A 0.07,0.07 0 0,0 32.77,23.17 L 32.91,23.32 Z M 31.72,26.02 L 33.96,25.72 H 34.11 C 34.13,25.71 34.14,25.7 34.13,25.67 A 6.27,6.27 0 0,0 32.7,23.39 C 32.67,23.36 32.65,23.36 32.63,23.4 L 31.47,26.03 V 26.05 L 31.49,26.06 H 31.5 L 31.72,26.02 Z M 17.67,26.17 A 0.18,0.18 0 0,0 17.65,26.27 C 17.65,26.29 17.67,26.31 17.7,26.31 L 18.7,26.45 H 18.75 A 12.8,12.8 0 0,1 19.33,24.38 A 0.07,0.07 0 0,0 19.3,24.34 L 18.46,23.68 C 18.44,23.67 18.42,23.68 18.41,23.7 A 9.14,9.14 0 0,0 17.67,26.17 Z M 19.12,26.49 C 19.37,26.63 19.4,26.39 19.53,26.31 C 19.9,26.06 20.16,26.32 20.33,26.64 A 0.12,0.12 0 0,0 20.46,26.7 L 20.52,26.67 A 0.12,0.12 0 0,0 20.55,26.61 L 20.75,25.76 C 20.83,25.61 20.83,25.5 20.74,25.43 L 19.58,24.55 C 19.56,24.53 19.54,24.53 19.53,24.56 C 19.31,25.16 19.14,25.79 19.02,26.42 C 19.02,26.45 19.02,26.47 19.04,26.49 C 19.07,26.5 19.09,26.51 19.12,26.49 Z M 37.16,26.23 C 37.34,27.19 37.37,28.14 37.26,29.1 C 37.25,29.13 37.26,29.15 37.3,29.15 L 38.31,29.29 C 38.34,29.29 38.36,29.29 38.36,29.25 C 38.51,28.12 38.46,26.98 38.23,25.85 L 38.17,25.52 C 38.17,25.48 38.14,25.47 38.11,25.49 L 37.12,25.86 C 37.1,25.86 37.09,25.89 37.09,25.91 L 37.16,26.23 Z M 28.69,28.17 L 29.36,28.55 L 29.4,28.56 H 29.44 L 33.31,27.09 L 36.65,25.78 V 25.76 L 28.27,27.9 A 0.03,0.03 0 0,0 28.27,27.95 L 28.69,28.17 Z M 21.08,26.75 C 21.13,26.82 21.12,26.89 21.06,26.95 C 20.98,26.93 20.94,26.97 20.92,27.07 A 9.86,9.86 0 0,0 20.98,29.04 C 20.98,29.07 21,29.09 21.04,29.07 L 21.24,29.01 C 21.28,29.01 21.29,28.98 21.29,28.95 C 21.16,28.05 21.19,27.16 21.41,26.29 L 21.46,26.07 C 21.46,26.04 21.46,26.02 21.44,26 L 21.24,25.83 A 0.03,0.03 0 0,0 21.21,25.83 A 0.03,0.03 0 0,0 21.19,25.84 L 20.96,26.7 V 26.73 L 20.99,26.75 H 21.08 Z M 12.61,28.19 A 15.19,15.19 0 0,0 15.66,37.02 H 15.67 L 19.16,34.33 A 0.2,0.2 0 0,0 19.28,34.22 A 0.07,0.07 0 0,0 19.28,34.15 C 18.51,33.1 17.96,31.95 17.62,30.71 A 0.07,0.07 0 0,0 17.56,30.65 C 17.46,30.63 17.38,30.65 17.32,30.69 C 17.24,30.71 17.2,30.7 17.19,30.69 A 0.1,0.1 0 0,1 17.18,30.66 V 30.6 L 17.21,30.58 L 17.45,30.47 C 17.51,30.44 17.53,30.4 17.51,30.35 C 17.25,29.15 17.17,27.95 17.3,26.78 L 17.34,26.5 C 17.34,26.48 17.34,26.46 17.31,26.46 L 12.78,25.9 C 12.75,25.9 12.73,25.91 12.73,25.94 C 12.62,26.69 12.58,27.44 12.61,28.19 Z M 35.44,26.92 A 6.12,6.12 0 0,1 35.45,28.88 L 35.47,28.9 A 0.02,0.02 0 0,0 35.49,28.9 H 35.5 V 28.88 C 35.59,28.31 36.43,28.35 36.49,29.01 L 36.5,29.04 L 36.53,29.06 L 36.93,29.11 C 36.96,29.11 36.98,29.11 36.98,29.07 C 37.09,28.17 37.08,27.27 36.91,26.37 L 36.84,26.03 C 36.84,25.99 36.81,25.98 36.78,25.99 L 35.41,26.51 C 35.38,26.52 35.37,26.54 35.37,26.57 L 35.44,26.92 Z M 21.45,27.66 L 21.5,28.88 A 0.03,0.03 0 0,0 21.53,28.9 L 23.74,28.03 L 23.96,27.96 A 0.03,0.03 0 0,0 23.98,27.93 A 0.03,0.03 0 0,0 23.97,27.9 L 21.71,26.18 C 21.69,26.16 21.67,26.16 21.66,26.19 C 21.51,26.66 21.44,27.15 21.46,27.66 Z M 17.58,26.83 C 17.46,28 17.53,29.15 17.79,30.29 C 17.8,30.31 17.82,30.32 17.85,30.31 L 18.82,29.95 L 18.85,29.92 V 29.88 A 9.58,9.58 0 0,1 18.69,26.92 L 18.71,26.69 C 18.71,26.66 18.7,26.64 18.66,26.64 L 17.64,26.51 C 17.61,26.51 17.6,26.51 17.6,26.55 L 17.58,26.83 Z M 18.93,27.47 A 9.2,9.2 0 0,0 19.11,29.78 C 19.11,29.81 19.13,29.82 19.16,29.81 L 20.53,29.28 C 20.56,29.28 20.57,29.25 20.56,29.22 A 7.95,7.95 0 0,1 20.49,27.13 V 26.92 A 0.1,0.1 0 0,0 20.43,26.82 A 0.1,0.1 0 0,0 20.33,26.86 C 20.23,26.97 20.16,27.1 20.03,27.16 C 19.67,27.36 19.41,27.13 19.33,26.76 A 0.06,0.06 0 0,0 19.27,26.71 L 19.05,26.68 C 19.02,26.68 19,26.68 18.99,26.72 C 18.93,26.96 18.91,27.22 18.93,27.47 Z M 34.73,27.24 A 5.9,5.9 0 0,1 34.49,29.74 V 29.79 L 34.71,29.99 A 0.04,0.04 0 0,0 34.77,29.98 L 34.97,29.14 A 0.08,0.08 0 0,0 34.94,29.05 L 34.84,29 A 0.04,0.04 0 0,1 34.84,28.92 L 34.97,28.86 A 0.07,0.07 0 0,0 35.01,28.81 C 35.09,28.23 35.09,27.66 35.01,27.09 L 34.96,26.74 C 34.96,26.71 34.94,26.7 34.9,26.71 L 34.71,26.79 C 34.68,26.81 34.67,26.83 34.67,26.86 L 34.72,27.24 Z M 32.27,28.11 L 34.26,29.64 A 0.03,0.03 0 0,0 34.28,29.64 A 0.03,0.03 0 0,0 34.3,29.62 C 34.5,28.89 34.57,28.12 34.5,27.29 L 34.47,26.93 C 34.47,26.9 34.45,26.89 34.42,26.9 L 32,27.84 A 0.05,0.05 0 0,0 31.97,27.88 A 0.05,0.05 0 0,0 31.99,27.93 L 32.27,28.11 Z M 22.54,29.22 L 27.27,28 L 27.67,27.93 A 0.04,0.04 0 0,0 27.7,27.9 A 0.03,0.03 0 0,0 27.68,27.86 L 26.63,27.23 A 0.12,0.12 0 0,0 26.53,27.23 A 588.55,588.55 0 0,0 19.41,29.99 L 22.54,29.21 Z M 27.37,29.52 L 30.04,36.33 C 30.04,36.38 30.06,36.43 30.09,36.46 C 30.13,36.51 30.14,36.5 30.12,36.45 L 30.08,36.33 L 29.17,32.78 L 28.39,29.78 L 28.09,28.57 L 28.01,28.2 L 28,28.18 A 0.03,0.03 0 0,0 27.97,28.18 H 27.95 L 27.35,29.2 C 27.26,29.33 27.3,29.4 27.37,29.52 Z M 29.59,29.27 L 29.81,31 C 29.82,31.06 29.85,31.1 29.91,31.12 L 40.41,35.71 A 147.65,147.65 0 0,1 43.02,36.87 C 43.04,36.86 43.04,36.85 43.02,36.84 L 29.57,28.9 H 29.54 V 28.92 L 29.59,29.25 Z M 35.12,30.31 L 36.36,31.25 C 36.38,31.27 36.4,31.27 36.41,31.24 C 36.63,30.72 36.79,30.17 36.89,29.6 L 36.96,29.33 C 36.96,29.31 36.96,29.29 36.93,29.29 L 36.48,29.25 C 36.45,29.25 36.42,29.25 36.41,29.28 C 36.17,29.53 35.91,29.56 35.62,29.36 A 0.1,0.1 0 0,1 35.59,29.31 A 0.51,0.51 0 0,0 35.47,29.11 A 0.03,0.03 0 0,0 35.44,29.1 A 0.03,0.03 0 0,0 35.41,29.12 L 35.12,30.31 Z M 36.78,31.58 L 37.47,32.11 C 37.52,32.15 37.55,32.14 37.57,32.08 C 37.89,31.32 38.12,30.58 38.26,29.85 L 38.33,29.53 C 38.33,29.49 38.33,29.48 38.29,29.47 L 37.25,29.34 C 37.21,29.34 37.19,29.34 37.19,29.38 C 37.08,30.08 36.89,30.74 36.62,31.38 A 0.07,0.07 0 0,0 36.63,31.46 C 36.67,31.51 36.73,31.55 36.78,31.58 Z M 19.68,41.28 L 19,42.78 C 19,42.81 19,42.82 19.02,42.82 S 19.06,42.8 19.07,42.78 L 26.81,29.77 L 26.97,29.47 C 26.98,29.44 26.97,29.43 26.94,29.43 L 24.81,29.71 A 0.08,0.08 0 0,0 24.75,29.76 L 19.67,41.28 Z M 37.9,32.42 L 41.48,35.15 C 41.5,35.17 41.52,35.17 41.53,35.14 C 42.31,33.67 42.84,32.13 43.13,30.5 L 43.19,30.14 C 43.19,30.11 43.19,30.1 43.16,30.1 L 38.69,29.51 A 0.1,0.1 0 0,0 38.58,29.59 A 10.1,10.1 0 0,1 37.74,32.29 C 37.73,32.33 37.78,32.37 37.9,32.42 Z M 21.94,30.44 C 22.26,31.18 22.7,31.84 23.25,32.42 C 23.28,32.45 23.31,32.44 23.33,32.4 L 24.31,30.13 L 24.48,29.79 C 24.5,29.76 24.48,29.75 24.45,29.75 L 21.85,30.09 C 21.82,30.09 21.81,30.11 21.83,30.14 L 21.94,30.44 Z M 21.38,30.46 C 21.53,30.86 21.78,31.33 22.09,31.83 C 22.16,31.95 22.25,31.98 22.35,31.95 C 22.36,32.12 22.38,32.23 22.41,32.27 C 22.59,32.52 22.79,32.74 23.02,32.95 C 23.05,32.98 23.07,32.97 23.09,32.94 L 23.19,32.73 A 0.06,0.06 0 0,0 23.19,32.66 A 7.28,7.28 0 0,1 21.62,30.19 C 21.61,30.17 21.59,30.16 21.57,30.16 H 21.31 C 21.28,30.16 21.27,30.17 21.28,30.2 L 21.38,30.46 Z M 19.36,30.75 C 19.66,31.61 20.07,32.41 20.6,33.15 C 20.61,33.18 20.63,33.18 20.65,33.17 L 20.9,32.99 A 0.05,0.05 0 0,0 20.92,32.94 C 20.76,32.44 21.1,32.08 21.62,32.24 C 21.68,32.34 21.74,32.36 21.82,32.28 A 0.05,0.05 0 0,0 21.82,32.22 A 7.71,7.71 0 0,1 20.82,30.25 A 0.07,0.07 0 0,0 20.77,30.24 L 19.29,30.43 C 19.26,30.43 19.25,30.45 19.26,30.47 L 19.36,30.75 Z M 17.96,30.93 C 18.3,32.04 18.82,33.07 19.5,34 C 19.52,34.03 19.54,34.03 19.56,34.01 L 20.3,33.43 L 20.4,33.37 C 20.42,33.36 20.42,33.33 20.4,33.31 A 8.9,8.9 0 0,1 19.02,30.5 C 19.02,30.47 19,30.46 18.98,30.47 L 17.9,30.61 C 17.87,30.61 17.86,30.63 17.87,30.65 L 17.96,30.93 Z M 29.91,31.77 L 30.21,33.97 C 30.21,34 30.22,34.01 30.25,34 C 31.03,33.72 31.72,33.3 32.35,32.77 L 32.53,32.59 C 32.56,32.56 32.56,32.54 32.53,32.52 L 29.9,31.37 C 29.86,31.35 29.84,31.37 29.85,31.41 L 29.91,31.77 Z M 26.52,34.25 A 6.67,6.67 0 0,0 28.97,34.35 C 28.99,34.35 29,34.32 28.98,34.29 L 28.02,31.88 C 28.02,31.85 27.99,31.85 27.97,31.88 L 26.23,34.11 C 26.21,34.15 26.21,34.17 26.26,34.19 L 26.52,34.25 Z M 20.87,33.51 C 21.27,34.01 21.72,34.46 22.19,34.85 C 22.21,34.87 22.23,34.87 22.24,34.85 L 22.79,33.57 L 22.86,33.45 C 22.88,33.43 22.87,33.41 22.86,33.4 L 21.96,32.42 L 21.94,32.41 A 0.03,0.03 0 0,0 21.91,32.41 L 21.9,32.43 C 21.86,32.56 21.92,32.66 21.88,32.78 C 21.77,33.14 21.53,33.26 21.15,33.12 A 0.1,0.1 0 0,0 21.07,33.12 C 20.76,33.27 20.69,33.4 20.87,33.51 Z M 32.11,33.44 L 32.26,33.51 C 32.28,33.52 32.3,33.51 32.32,33.5 L 33.08,32.83 C 33.11,32.8 33.11,32.78 33.08,32.77 L 32.82,32.65 A 0.06,0.06 0 0,0 32.75,32.67 A 8.13,8.13 0 0,1 30.27,34.23 C 30.23,34.24 30.22,34.27 30.22,34.3 L 30.25,34.48 C 30.26,34.54 30.3,34.56 30.35,34.54 A 7,7 0 0,0 32.05,33.67 C 32.09,33.65 32.09,33.63 32.07,33.6 C 32.04,33.56 32.03,33.52 32.05,33.47 L 32.06,33.45 A 0.05,0.05 0 0,1 32.11,33.44 Z M 33.04,33.88 C 33.34,34.12 33.39,34.38 33.21,34.68 A 0.05,0.05 0 0,0 33.21,34.73 L 33.43,35.03 A 0.05,0.05 0 0,0 33.51,35.05 A 7.62,7.62 0 0,0 34.98,33.64 C 34.99,33.61 34.98,33.59 34.96,33.58 L 33.6,32.99 A 0.14,0.14 0 0,0 33.45,33.03 A 4.93,4.93 0 0,1 32.52,33.86 V 33.87 H 32.54 C 32.61,33.87 32.67,33.87 32.74,33.84 H 32.78 L 33.04,33.88 Z M 19.82,34.42 A 9.64,9.64 0 0,0 21.6,36.15 C 21.63,36.17 21.65,36.17 21.66,36.14 L 22.04,35.29 C 22.09,35.24 22.11,35.19 22.11,35.15 C 22.11,35.12 22.09,35.08 22.04,35.04 A 8.66,8.66 0 0,1 20.54,33.51 A 0.04,0.04 0 0,0 20.51,33.52 L 19.68,34.17 L 19.67,34.18 A 0.06,0.06 0 0,0 19.67,34.23 V 34.25 L 19.82,34.42 Z M 33.82,35.54 L 34.29,36.14 C 34.3,36.17 34.32,36.17 34.35,36.15 A 10.27,10.27 0 0,0 36.29,34.22 C 36.3,34.19 36.29,34.16 36.26,34.15 L 35.28,33.72 A 0.05,0.05 0 0,0 35.23,33.74 C 34.73,34.28 34.34,34.74 33.66,35.23 C 33.63,35.25 33.63,35.27 33.65,35.29 L 33.83,35.54 Z M 30.38,35.34 L 30.54,36.51 C 30.54,36.54 30.56,36.55 30.59,36.54 C 31.49,36.28 32.36,35.86 33.19,35.3 C 33.33,35.25 33.27,35.09 33.01,34.82 A 0.06,0.06 0 0,0 32.95,34.81 C 32.65,34.88 32.45,34.79 32.35,34.54 L 32.31,34.44 A 0.78,0.78 0 0,1 32.39,34.04 V 34.02 L 32.38,34 A 0.04,0.04 0 0,0 32.33,34 C 31.73,34.42 31.07,34.76 30.36,34.99 C 30.33,34.99 30.32,35.02 30.33,35.04 L 30.38,35.34 Z M 34.68,36.64 L 37.3,40.02 C 37.32,40.04 37.34,40.04 37.36,40.02 C 38.67,39.02 39.79,37.83 40.73,36.46 L 40.89,36.24 C 40.92,36.21 40.91,36.18 40.87,36.16 L 36.63,34.31 H 36.58 A 11.23,11.23 0 0,1 34.52,36.37 C 34.49,36.39 34.49,36.41 34.52,36.44 L 34.69,36.64 Z M 25.92,34.66 L 26.7,34.86 A 0.07,0.07 0 0,0 26.78,34.81 C 26.8,34.73 26.86,34.7 26.95,34.73 C 26.98,34.73 27,34.76 27,34.8 V 34.84 C 27,34.87 27.02,34.89 27.05,34.89 C 27.75,34.99 28.45,34.97 29.15,34.85 C 29.18,34.85 29.2,34.82 29.18,34.78 L 29.07,34.56 A 0.07,0.07 0 0,0 28.99,34.52 C 28.09,34.65 27.21,34.62 26.33,34.4 C 26.12,34.35 25.91,34.33 25.89,34.61 C 25.89,34.63 25.9,34.65 25.92,34.66 Z M 15.92,37.41 A 15.3,15.3 0 0,0 19.64,40.73 L 19.65,40.72 L 19.67,40.7 C 20.21,39.47 20.72,38.21 21.31,37 C 21.37,36.88 21.41,36.77 21.42,36.67 C 21.48,36.59 21.52,36.53 21.52,36.47 A 0.07,0.07 0 0,0 21.5,36.4 A 11.9,11.9 0 0,1 19.43,34.38 C 19.41,34.38 19.39,34.38 19.38,34.4 L 15.81,37.14 C 15.79,37.16 15.78,37.18 15.79,37.21 C 15.83,37.29 15.87,37.36 15.93,37.41 Z M 24.84,36.37 C 25.39,36.57 25.94,36.72 26.48,36.79 C 26.51,36.79 26.53,36.78 26.54,36.75 A 0.23,0.23 0 0,0 26.54,36.64 L 26.6,36.39 C 26.6,36.37 26.6,36.34 26.58,36.33 L 26.27,36.08 C 26.24,35.9 26.24,35.74 26.29,35.58 C 26.41,35.47 26.54,35.38 26.69,35.34 A 0.04,0.04 0 0,0 26.73,35.29 A 0.05,0.05 0 0,0 26.69,35.25 A 5.26,5.26 0 0,1 25.61,34.99 C 25.58,34.99 25.57,34.99 25.55,35.01 L 24.6,36.23 C 24.57,36.27 24.58,36.29 24.62,36.3 L 24.84,36.37 Z M 27.22,35.72 A 0.6,0.6 0 0,1 27.23,36.01 C 27.16,36.35 26.68,36.2 26.79,36.67 A 0.22,0.22 0 0,0 26.77,36.8 V 36.83 L 26.81,36.85 C 27.85,36.98 28.89,36.94 29.91,36.71 C 29.76,36.27 29.61,35.89 29.47,35.55 C 29.44,35.47 29.42,35.35 29.35,35.28 A 0.08,0.08 0 0,0 29.27,35.25 A 7.38,7.38 0 0,1 26.93,35.31 A 0.05,0.05 0 0,0 26.91,35.37 L 26.94,35.4 A 0.5,0.5 0 0,1 27.22,35.72 Z M 30.62,37.14 L 30.72,37.9 C 30.72,37.93 30.74,37.94 30.76,37.93 A 10.73,10.73 0 0,0 34.12,36.31 A 0.07,0.07 0 0,0 34.12,36.24 L 33.49,35.44 A 0.05,0.05 0 0,0 33.42,35.42 A 9.2,9.2 0 0,1 30.62,36.78 C 30.59,36.78 30.58,36.8 30.58,36.83 L 30.62,37.13 Z M 23.84,37.46 A 10,10 0 0,0 26.31,38.17 C 26.34,38.17 26.36,38.17 26.36,38.14 L 26.46,37.34 L 26.51,37.08 C 26.51,37.06 26.5,37.04 26.47,37.04 A 8.94,8.94 0 0,1 24.42,36.48 A 0.08,0.08 0 0,0 24.37,36.5 A 0.47,0.47 0 0,0 24.3,36.64 A 3.44,3.44 0 0,0 23.74,37.38 C 23.73,37.41 23.74,37.43 23.76,37.45 H 23.84 Z M 30.79,38.67 C 30.8,38.77 30.79,38.87 30.76,38.96 C 30.75,39 30.73,39 30.7,38.96 C 30.67,38.91 30.66,38.83 30.69,38.72 L 30.56,38.3 C 30.55,38.27 30.53,38.26 30.5,38.27 A 11.35,11.35 0 0,1 26.55,38.49 L 26.53,38.52 L 26.5,38.82 L 25.97,43.02 V 43.05 L 26,43.06 A 15.43,15.43 0 0,0 36.98,40.29 L 37.11,40.21 C 37.15,40.18 37.16,40.14 37.13,40.11 L 34.36,36.55 A 0.06,0.06 0 0,0 34.29,36.53 C 33.22,37.29 32.06,37.83 30.81,38.19 C 30.78,38.19 30.76,38.22 30.77,38.25 L 30.79,38.67 Z M 26.67,37.47 L 26.59,38.15 C 26.59,38.18 26.59,38.19 26.62,38.2 C 26.76,38.27 26.9,38.25 27.01,38.26 C 28.11,38.36 29.23,38.29 30.38,38.03 C 30.31,37.66 30.18,37.31 30.03,36.97 C 30.03,36.95 30,36.94 29.98,36.94 A 9.36,9.36 0 0,1 26.78,37.09 C 26.74,37.09 26.72,37.09 26.72,37.13 L 26.67,37.46 Z M 20.87,41.46 A 14.9,14.9 0 0,0 25.7,43 C 25.73,43 25.75,42.99 25.75,42.96 L 26.28,38.76 L 26.33,38.46 L 26.32,38.43 L 26.29,38.42 A 12,12 0 0,1 23.56,37.62 C 23.54,37.61 23.52,37.62 23.51,37.63 L 20.67,41.29 C 20.66,41.32 20.66,41.34 20.68,41.36 C 20.73,41.4 20.79,41.43 20.86,41.44 Z"/>
<path d="M 36.78,14.575 C 36.63,14.55 36.57,14.49 36.61,14.38 C 36.81,13.88 37.26,12.87 37.96,11.31 C 38.02,11.29 38.06,11.29 38.1,11.3 A 0.07,0.07 0 0,1 38.15,11.35 C 38.16,11.43 38.15,11.5 38.13,11.56 A 124.25,124.25 0 0,1 36.79,14.59 Z M 29.95,13.02 C 29.65,13.02 29.33,13 29.03,12.98 L 28.47,12.95 C 25.23,12.9 22.26,13.75 19.55,15.51 L 18.97,15.87 L 18.81,15.67 A 0.05,0.05 0 0,1 18.8,15.63 V 15.61 L 18.82,15.6 A 15.67,15.67 0 0,1 29.96,12.7 C 29.99,12.71 30.01,12.73 30,12.76 L 29.95,13.02 Z M 34.76,14.5 C 34.88,14.55 35,14.61 35.12,14.69 L 35.27,14.49 C 35.29,14.46 35.28,14.44 35.25,14.42 A 15.35,15.35 0 0,0 30.21,12.77 A 0.04,0.04 0 0,0 30.2,12.8 L 29.62,17.32 C 29.75,17.22 29.82,17.14 29.82,17.05 C 29.89,16.35 29.99,15.65 30.09,14.95 C 30.18,14.35 30.27,13.75 30.32,13.15 C 30.32,13.13 30.34,13.12 30.36,13.12 C 31.89,13.37 33.36,13.82 34.76,14.49 Z M 35.93,15.33 C 35.84,15.33 35.76,15.38 35.7,15.49 A 317.65,317.65 0 0,1 32.25,21.31 C 31.86,21.95 31.46,22.61 31.08,23.27 C 30.53,24.19 30,25.09 29.54,25.83 C 29.41,26.02 29.34,26.18 29.34,26.32 L 29,26.36 C 28.96,26.36 28.95,26.36 28.97,26.32 C 30.91,23.02 32.88,19.72 34.84,16.44 L 36.77,13.22 A 3.2,3.2 0 0,1 36.98,12.92 V 12.93 L 35.93,15.33 Z M 37.19,15.95 C 38.29,16.79 39.23,17.72 40.04,18.72 A 0.24,0.24 0 0,0 40.16,18.63 C 40.18,18.61 40.18,18.59 40.16,18.56 A 14.98,14.98 0 0,0 36.32,15.06 L 36.3,15.08 L 36.29,15.09 L 34.42,19.32 A 0.06,0.06 0 0,0 34.45,19.39 L 34.61,19.5 C 34.81,19.02 35.03,18.55 35.24,18.08 C 35.62,17.22 36,16.37 36.35,15.49 C 36.36,15.47 36.38,15.46 36.41,15.47 C 36.66,15.58 36.92,15.74 37.19,15.95 Z M 21.32,19.51 L 18.76,16.17 A 0.08,0.08 0 0,0 18.66,16.15 C 17.34,17.09 16.18,18.39 15.26,19.71 A 0.4,0.4 0 0,1 15.09,19.61 C 15.06,19.59 15.06,19.57 15.08,19.54 A 15.37,15.37 0 0,1 18.63,15.77 H 18.64 L 21.44,19.37 C 21.45,19.39 21.45,19.41 21.42,19.43 L 21.32,19.51 Z M 25.65,18.1 C 26.9,17.9 27.95,17.75 29.33,17.92 L 29.37,17.62 C 29.37,17.59 29.37,17.57 29.34,17.57 A 10.55,10.55 0 0,0 25.55,17.78 V 17.83 L 25.65,18.1 Z M 32.07,18.63 A 10.64,10.64 0 0,0 29.72,18 A 0.07,0.07 0 0,0 29.67,18.07 V 18.08 C 29.67,18.23 29.65,18.62 29.47,18.65 L 29.58,17.63 C 29.58,17.61 29.6,17.59 29.63,17.6 C 30.53,17.75 31.38,18 32.21,18.37 C 32.24,18.39 32.25,18.41 32.23,18.44 L 32.07,18.64 Z M 22.43,19.45 C 23.34,18.9 24.29,18.48 25.27,18.19 L 25.24,17.89 A 0.05,0.05 0 0,0 25.2,17.85 H 25.18 C 23.98,18.19 22.86,18.72 21.85,19.45 C 21.82,19.47 21.82,19.49 21.83,19.52 C 21.86,19.62 21.93,19.7 22.02,19.77 C 22.12,19.65 22.27,19.54 22.42,19.45 Z M 11,17.96 L 13.88,20.16 C 13.91,20.18 13.91,20.21 13.9,20.23 L 13.86,20.33 H 13.78 A 117.8,117.8 0 0,0 11.38,18.53 H 11.37 C 11.19,18.39 10.97,18.23 11,17.96 Z M 42.49,23.11 C 42.51,23.18 42.54,23.21 42.6,23.22 C 42.1,21.63 41.35,20.16 40.35,18.81 C 40.33,18.79 40.31,18.78 40.29,18.8 C 40.15,18.88 39.99,19 39.79,19.15 A 2333.46,2333.46 0 0,0 36.65,21.57 L 36.66,21.62 L 36.84,21.87 L 40.32,19.21 A 0.09,0.09 0 0,1 40.45,19.23 C 41.22,20.29 41.75,21.38 42.29,22.56 C 42.37,22.74 42.44,22.92 42.49,23.11 Z M 29.17,19.26 A 0.21,0.21 0 0,1 29.04,19.27 A 8.48,8.48 0 0,0 26.18,19.45 L 26.04,19.12 C 26.03,19.09 26.04,19.07 26.07,19.06 A 8.86,8.86 0 0,1 29.15,18.94 C 29.18,18.94 29.19,18.96 29.19,18.99 L 29.17,19.26 Z M 26.12,24.98 H 26.16 C 26.18,24.8 26.16,24.73 25.99,24.65 A 14702.9,14702.9 0 0,0 12.97,18.98 A 0.02,0.02 0 0,0 12.98,19.01 L 15.63,20.55 V 20.51 C 15.63,20.44 15.67,20.42 15.74,20.45 A 880.84,880.84 0 0,0 25.94,24.95 C 26,24.98 26.06,24.98 26.12,24.98 Z M 31.2,19.73 C 30.73,19.63 30.25,19.51 29.77,19.39 C 29.64,19.35 29.55,19.39 29.5,19.49 L 29.38,19.39 A 0.06,0.06 0 0,1 29.36,19.34 L 29.4,19.03 C 29.4,19 29.42,18.98 29.45,18.99 A 7.7,7.7 0 0,1 31.35,19.54 A 0.04,0.04 0 0,1 31.34,19.58 L 31.21,19.73 Z M 22.92,20.83 A 8,8 0 0,1 25.46,19.59 L 25.43,19.33 C 25.43,19.26 25.39,19.24 25.33,19.26 A 8.6,8.6 0 0,0 22.69,20.56 C 22.67,20.58 22.66,20.6 22.67,20.62 C 22.77,20.81 22.86,20.88 22.92,20.82 Z M 22.25,20.56 A 1.4,1.4 0 0,1 21.82,20.08 A 0.12,0.12 0 0,0 21.64,20.04 A 9.85,9.85 0 0,0 19.87,21.71 A 0.34,0.34 0 0,1 19.67,21.63 A 0.05,0.05 0 0,1 19.66,21.6 V 21.56 C 20.24,20.84 20.88,20.19 21.6,19.62 H 21.65 L 22.29,20.47 C 22.31,20.49 22.3,20.52 22.29,20.54 L 22.25,20.56 Z M 34.46,20.05 C 35.1,20.52 35.66,21.07 36.15,21.7 C 36.2,21.69 36.24,21.66 36.27,21.6 A 0.08,0.08 0 0,0 36.26,21.52 C 35.7,20.82 35.06,20.18 34.34,19.63 C 34.32,19.61 34.3,19.62 34.29,19.64 C 34.14,19.97 33.99,20.29 33.86,20.62 C 33.83,20.68 33.86,20.72 33.92,20.74 L 34.03,20.7 A 0.1,0.1 0 0,0 34.09,20.64 L 34.33,20.09 C 34.35,20.02 34.4,20.01 34.46,20.05 Z M 29.67,19.9 C 29.8,20.11 29.8,20.35 29.66,20.6 L 29.24,20.51 A 0.07,0.07 0 0,1 29.19,20.45 A 0.06,0.06 0 0,1 29.23,20.39 C 29.42,20.31 29.7,20.15 29.67,19.91 Z M 29,20.39 L 28.77,20.21 A 0.54,0.54 0 0,1 28.67,20.43 L 28.97,20.47 A 0.04,0.04 0 0,0 29.02,20.44 A 0.04,0.04 0 0,0 29.01,20.39 Z M 18.14,23.61 A 2.12,2.12 0 0,1 17.58,23.29 C 16.65,22.59 15.73,21.88 14.83,21.15 C 14.73,21.08 14.63,21.02 14.53,20.98 C 14.51,20.98 14.49,20.98 14.48,21 A 18.97,18.97 0 0,0 12.88,25.51 L 12.75,25.68 A 15.9,15.9 0 0,1 14.45,20.63 A 0.04,0.04 0 0,1 14.48,20.63 L 18.18,23.46 C 18.19,23.48 18.2,23.5 18.18,23.53 L 18.14,23.61 Z M 21.24,22.3 C 21.62,21.85 22.05,21.44 22.54,21.09 C 22.69,21.01 22.68,20.89 22.51,20.73 C 22.49,20.71 22.47,20.71 22.44,20.73 A 10.73,10.73 0 0,0 20.97,22.16 A 0.07,0.07 0 0,0 20.98,22.22 L 21.01,22.23 L 21.24,22.3 Z M 29.06,21.09 L 29.18,20.95 A 0.05,0.05 0 0,1 29.23,20.93 L 30.03,21.13 C 30.06,21.14 30.07,21.16 30.07,21.2 C 30.03,21.38 29.91,21.46 29.72,21.41 A 6.68,6.68 0 0,0 26.88,21.25 A 0.06,0.06 0 0,1 26.85,21.22 L 26.78,20.99 C 26.78,20.96 26.78,20.94 26.82,20.93 C 27.52,20.83 28.21,20.81 28.91,20.89 C 28.93,20.89 28.95,20.91 28.95,20.94 L 28.97,21.06 A 0.05,0.05 0 0,0 29.07,21.09 Z M 33.87,21.35 L 35.1,22.53 C 35.2,22.5 35.22,22.46 35.18,22.4 C 34.82,21.9 34.35,21.41 33.76,20.95 C 33.74,20.93 33.72,20.94 33.71,20.96 C 33.51,21.39 33.31,21.83 33.14,22.26 C 33.08,22.4 33.11,22.5 33.24,22.56 L 33.76,21.37 L 33.78,21.35 A 0.07,0.07 0 0,1 33.88,21.35 Z M 23.89,22.32 L 23.9,22.15 A 0.06,0.06 0 0,1 23.93,22.1 A 6.3,6.3 0 0,1 25.65,21.24 C 25.67,21.24 25.69,21.24 25.69,21.27 L 25.73,21.52 C 25.73,21.55 25.72,21.57 25.69,21.58 C 24.79,21.88 24.01,22.37 23.32,23.02 C 23.15,23.19 23.06,23.16 22.87,23.02 C 22.84,23 22.84,22.99 22.87,22.97 L 23.64,22.3 L 23.67,22.28 L 23.71,22.29 L 23.81,22.36 A 0.05,0.05 0 0,0 23.86,22.36 L 23.88,22.35 L 23.89,22.32 Z" fill="rgb(217, 194, 101)"/>
<path d="M 27.119999999999997,21.865 C 27.8,21.6 28.87,21.76 29.53,21.9 L 29.73,21.64 C 29.75,21.61 29.74,21.6 29.71,21.59 A 6.86,6.86 0 0,0 26.97,21.45 A 0.05,0.05 0 0,0 26.97,21.49 L 27.13,21.88 Z M 22.55,21.61 C 22.75,21.88 22.99,21.93 23.28,21.76 C 23.31,21.74 23.33,21.75 23.35,21.78 L 23.41,21.91 A 0.05,0.05 0 0,1 23.39,21.97 L 22.99,22.27 L 22.86,22.17 C 22.68,22.03 22.52,21.91 22.56,21.61 Z M 36.71,22.44 C 37.19,23.24 37.62,24.08 38.01,24.98 A 9.23,9.23 0 0,0 36.45,21.78 C 36.43,21.76 36.41,21.76 36.39,21.78 L 35.58,22.39 A 0.08,0.08 0 0,0 35.55,22.47 L 35.56,22.5 L 35.72,22.7 L 36.43,22.19 C 36.45,22.17 36.47,22.17 36.49,22.19 L 36.55,22.25 C 36.61,22.31 36.67,22.37 36.71,22.44 Z M 25.79,22.12 C 25.03,22.42 24.33,22.83 23.68,23.37 L 23.43,23.27 C 23.4,23.25 23.4,23.23 23.43,23.2 A 6.2,6.2 0 0,1 25.71,21.77 C 25.74,21.77 25.75,21.77 25.76,21.8 L 25.79,22.12 Z M 36.5,25.07 L 36.61,25.14 A 9.24,9.24 0 0,0 35.38,22.66 A 0.05,0.05 0 0,0 35.32,22.64 C 35.02,22.7 35,22.84 34.98,23.01 C 34.98,23.09 34.96,23.17 34.93,23.25 C 34.79,23.57 34.53,23.65 34.16,23.51 C 34.11,23.49 34.1,23.5 34.13,23.54 L 34.38,23.97 C 34.94,23.97 35.01,23.71 35.13,23.28 L 35.14,23.22 A 0.23,0.23 0 0,1 35.36,23.04 C 35.41,23.04 35.46,23.08 35.51,23.16 A 10.2,10.2 0 0,1 36.51,25.07 Z M 34.64,25.62 A 2.54,2.54 0 0,0 34.34,25.02 L 34.17,24.72 C 34.07,24.53 33.97,24.35 33.81,24.2 A 1.5,1.5 0 0,1 33.56,23.83 A 1.73,1.73 0 0,0 33.34,23.49 A 1.95,1.95 0 0,1 33.11,23.19 A 0.05,0.05 0 0,0 33.07,23.18 H 33.06 L 32.91,23.31 L 32.77,23.16 A 0.07,0.07 0 0,1 32.76,23.07 L 32.86,22.86 L 32.88,22.84 H 32.94 L 32.99,22.89 C 33.19,23.09 33.59,23.45 33.64,23.74 C 33.64,23.77 33.66,23.79 33.69,23.81 L 33.8,23.87 C 33.82,23.87 33.84,23.89 33.85,23.91 C 34.05,24.24 34.68,25.22 34.65,25.61 Z M 33.97,25.62 C 33.98,25.63 33.97,25.67 33.96,25.72 L 34.11,25.7 C 34.13,25.7 34.14,25.69 34.13,25.66 A 6.27,6.27 0 0,0 32.7,23.38 C 32.67,23.35 32.65,23.35 32.63,23.39 L 31.47,26.02 V 26.04 L 31.49,26.05 H 31.5 L 31.72,26.01 L 32.69,23.79 A 0.06,0.06 0 0,1 32.74,23.75 A 0.07,0.07 0 0,1 32.8,23.77 C 33.27,24.34 33.66,24.95 33.97,25.62 Z M 19.27,24.54 L 18.51,24.05 C 18.48,24.03 18.46,24.04 18.45,24.07 C 18.19,24.74 17.98,25.43 17.8,26.13 C 17.8,26.15 17.78,26.16 17.75,26.16 H 17.67 C 17.8,25.3 18.05,24.47 18.41,23.69 C 18.42,23.66 18.44,23.66 18.46,23.67 L 19.3,24.33 A 0.07,0.07 0 0,1 19.33,24.39 L 19.27,24.54 Z M 28.66,26.52 L 27.7,24.06 C 27.8,24.52 27.96,24.96 28.15,25.39 C 28.25,25.61 28.35,25.89 28.46,26.26 C 28.49,26.36 28.56,26.45 28.66,26.52 Z M 20.75,25.75 L 19.68,24.91 A 0.05,0.05 0 0,0 19.61,24.91 L 19.6,24.93 L 19.12,26.48 A 0.07,0.07 0 0,1 19.04,26.48 A 0.06,0.06 0 0,1 19.02,26.41 C 19.14,25.78 19.32,25.16 19.53,24.55 C 19.54,24.52 19.56,24.52 19.58,24.54 C 19.96,24.84 20.34,25.13 20.74,25.42 C 20.83,25.49 20.84,25.6 20.75,25.75 Z M 38.57,25.45 L 38.56,25.47 V 25.6 A 0.04,0.04 0 0,0 38.6,25.64 H 38.67 A 0.42,0.42 0 0,0 38.81,25.61 C 38.83,25.61 38.84,25.59 38.85,25.58 A 0.05,0.05 0 0,0 38.87,25.55 V 25.52 C 38.87,25.5 38.85,25.48 38.81,25.46 A 0.35,0.35 0 0,0 38.67,25.43 H 38.6 C 38.59,25.43 38.58,25.43 38.57,25.45 Z M 38.23,25.83 L 37.16,26.23 L 37.09,25.9 C 37.09,25.88 37.09,25.86 37.12,25.85 L 38.12,25.48 C 38.14,25.46 38.16,25.48 38.17,25.51 L 38.23,25.83 Z M 32.82,27.08 C 33.06,27.01 33.22,27.01 33.32,27.08 L 36.65,25.77 V 25.76 A 0.01,0.01 0 0,0 36.65,25.75 L 28.27,27.89 A 0.03,0.03 0 0,0 28.27,27.94 L 28.69,28.16 C 29.07,28.02 29.54,27.92 29.92,27.84 L 30.33,27.74 C 31.6,27.42 32.43,27.2 32.82,27.08 Z M 21.41,26.28 C 21.31,26.22 21.23,26.24 21.21,26.34 C 21.18,26.48 21.13,26.61 21.08,26.74 H 20.98 A 0.05,0.05 0 0,1 20.96,26.72 V 26.68 L 21.19,25.83 A 0.03,0.03 0 0,1 21.21,25.81 A 0.03,0.03 0 0,1 21.24,25.81 L 21.44,25.99 C 21.46,26.01 21.46,26.03 21.46,26.06 L 21.41,26.28 Z M 17.25,26.75 C 17.27,26.75 17.29,26.75 17.3,26.77 L 17.34,26.49 C 17.34,26.47 17.34,26.45 17.31,26.45 L 12.78,25.89 C 12.75,25.89 12.73,25.9 12.73,25.93 C 12.62,26.68 12.58,27.43 12.61,28.18 C 12.63,27.53 12.69,26.91 12.81,26.31 C 12.83,26.24 12.88,26.21 12.94,26.22 L 17.22,26.77 H 17.23 L 17.25,26.75 Z M 36.91,26.35 L 35.44,26.91 L 35.37,26.56 C 35.37,26.53 35.37,26.51 35.41,26.5 L 36.78,25.98 C 36.81,25.97 36.83,25.98 36.84,26.02 L 36.91,26.35 Z M 21.85,26.57 L 23.75,28.02 L 23.95,27.95 A 0.03,0.03 0 0,0 23.98,27.91 L 23.97,27.89 L 21.71,26.17 C 21.69,26.15 21.67,26.15 21.66,26.18 C 21.51,26.65 21.44,27.14 21.46,27.65 L 21.72,26.61 C 21.74,26.53 21.79,26.51 21.85,26.57 Z M 18.7,26.91 L 17.58,26.82 L 17.6,26.54 C 17.6,26.51 17.61,26.5 17.64,26.5 L 18.66,26.63 C 18.7,26.63 18.72,26.65 18.71,26.68 L 18.69,26.91 Z M 20.33,27.23 C 20.37,27.17 20.43,27.13 20.49,27.13 V 26.91 A 0.1,0.1 0 0,0 20.37,26.81 A 6.53,6.53 0 0,0 20.28,26.9 C 20.21,27 20.14,27.1 20.03,27.16 C 19.67,27.35 19.4,27.12 19.33,26.76 A 0.06,0.06 0 0,0 19.27,26.7 L 19.05,26.67 C 19.02,26.67 19,26.67 18.99,26.71 C 18.93,26.95 18.91,27.21 18.93,27.46 A 0.8,0.8 0 0,1 19.06,27.06 A 0.15,0.15 0 0,1 19.3,27.06 L 19.37,27.18 C 19.41,27.26 19.46,27.35 19.53,27.41 C 19.85,27.66 20.11,27.6 20.33,27.23 Z M 35,27.08 C 34.84,27.09 34.74,27.14 34.72,27.23 L 34.67,26.85 C 34.67,26.82 34.68,26.8 34.71,26.78 L 34.91,26.7 C 34.94,26.69 34.95,26.7 34.96,26.73 L 35.01,27.08 Z M 32.27,28.1 L 34.51,27.28 L 34.47,26.92 C 34.47,26.89 34.45,26.88 34.42,26.89 L 32,27.83 A 0.05,0.05 0 0,0 31.97,27.87 A 0.05,0.05 0 0,0 31.99,27.92 L 32.27,28.1 Z M 21.06,26.95 C 21.14,27.03 21.17,27.1 21.16,27.17 A 0.08,0.08 0 0,1 21.12,27.23 A 0.5,0.5 0 0,0 20.92,27.37 C 20.9,27.27 20.9,27.17 20.92,27.06 C 20.94,26.96 20.98,26.92 21.06,26.95 Z M 26.6,27.58 C 26.85,27.68 27.07,27.81 27.27,28 L 27.67,27.93 A 0.04,0.04 0 0,0 27.7,27.9 V 27.88 L 27.68,27.86 L 26.63,27.23 A 0.12,0.12 0 0,0 26.53,27.23 A 589.19,589.19 0 0,0 19.41,29.99 L 22.54,29.21 C 22.52,29.16 22.52,29.13 22.54,29.11 C 23.86,28.6 25.19,28.08 26.52,27.58 A 0.1,0.1 0 0,1 26.6,27.58 Z M 44.03,27.9 C 44.11,28.55 44.11,29.17 44.04,29.77 C 43.92,30.76 43.71,31.77 43.42,32.82 C 43.16,33.73 42.75,34.69 42.19,35.7 L 42.04,35.6 C 42.02,35.59 42.02,35.57 42.03,35.54 A 15.27,15.27 0 0,0 43.96,28.81 C 43.97,28.51 43.99,28.21 44.03,27.9 Z M 27.37,29.51 L 28.08,28.56 L 28.01,28.19 A 0.03,0.03 0 0,0 27.98,28.16 A 0.03,0.03 0 0,0 27.95,28.18 L 27.35,29.19 C 27.26,29.32 27.3,29.39 27.37,29.51 Z M 40.4,35.7 C 40.44,35.63 40.43,35.58 40.36,35.54 A 5.35,5.35 0 0,0 39.96,35.34 L 39.59,35.14 C 36.27,33.21 32.93,31.24 29.59,29.26 L 29.53,28.93 L 29.54,28.91 H 29.57 L 43.02,36.83 C 43.03,36.83 43.04,36.85 43.02,36.86 H 42.98 C 42.13,36.46 41.27,36.07 40.41,35.7 Z M 36.53,29.65 C 36.65,29.66 36.77,29.64 36.89,29.59 L 36.96,29.32 C 36.96,29.3 36.96,29.28 36.93,29.28 L 36.48,29.24 C 36.45,29.24 36.42,29.24 36.41,29.27 C 36.17,29.52 35.91,29.55 35.62,29.35 A 0.1,0.1 0 0,1 35.59,29.3 A 0.52,0.52 0 0,0 35.47,29.1 L 35.46,29.09 A 0.03,0.03 0 0,0 35.42,29.09 V 29.11 L 35.12,30.3 C 35.35,30.19 35.45,29.99 35.4,29.7 A 0.1,0.1 0 0,1 35.51,29.59 A 0.1,0.1 0 0,1 35.57,29.61 C 35.84,29.89 36.13,29.91 36.46,29.68 A 0.1,0.1 0 0,1 36.53,29.65 Z M 38.26,29.84 L 37.36,29.72 A 0.12,0.12 0 0,0 37.28,29.74 A 0.11,0.11 0 0,0 37.24,29.82 C 37.19,30.22 37.1,30.62 36.96,31.01 L 36.78,31.57 A 0.43,0.43 0 0,1 36.63,31.45 A 0.07,0.07 0 0,1 36.63,31.37 C 36.89,30.73 37.07,30.07 37.19,29.37 C 37.19,29.34 37.21,29.32 37.25,29.33 L 38.29,29.46 C 38.32,29.46 38.34,29.48 38.33,29.52 L 38.26,29.84 Z M 26.39,29.86 C 26.53,29.84 26.67,29.81 26.81,29.76 L 26.97,29.46 C 26.98,29.43 26.97,29.42 26.94,29.42 L 24.81,29.7 A 0.08,0.08 0 0,0 24.75,29.75 L 19.67,41.27 L 19.72,41.22 C 19.84,41.11 19.95,41 20.02,40.83 A 3,3 0 0,1 20.19,40.43 C 20.44,39.97 20.67,39.45 20.89,38.99 V 38.98 C 22.44,35.5 23.71,32.64 24.69,30.4 C 24.73,30.28 24.79,30.17 24.87,30.1 A 0.11,0.11 0 0,1 24.94,30.05 A 36.61,36.61 0 0,0 26.39,29.85 Z M 43.13,30.49 A 80.18,80.18 0 0,0 38.71,29.92 C 38.69,29.92 38.67,29.92 38.66,29.96 C 38.53,30.82 38.27,31.64 37.9,32.41 C 37.78,32.36 37.73,32.32 37.74,32.29 C 38.15,31.42 38.43,30.51 38.58,29.59 A 0.1,0.1 0 0,1 38.68,29.5 L 43.16,30.09 C 43.19,30.09 43.2,30.1 43.19,30.13 L 43.13,30.49 Z M 21.94,30.43 L 24.31,30.13 L 24.48,29.78 C 24.5,29.75 24.48,29.74 24.45,29.74 L 21.85,30.08 C 21.82,30.08 21.81,30.1 21.83,30.13 L 21.94,30.43 Z M 28.4,29.77 L 29.17,32.77 C 29.04,32.62 28.97,32.49 28.97,32.39 C 28.97,32.17 28.91,31.98 28.85,31.81 L 28.79,31.61 L 28.67,31.21 C 28.54,30.75 28.4,30.31 28.39,29.77 Z M 22.37,31.89 C 22.37,31.92 22.37,31.94 22.34,31.94 C 22.36,32.11 22.38,32.22 22.41,32.26 C 22.59,32.51 22.79,32.73 23.02,32.94 C 23.05,32.97 23.07,32.96 23.09,32.93 L 23.19,32.72 A 0.06,0.06 0 0,0 23.19,32.65 A 7.28,7.28 0 0,1 21.62,30.18 C 21.61,30.16 21.59,30.15 21.57,30.15 H 21.31 C 21.28,30.15 21.27,30.16 21.28,30.19 L 21.38,30.45 C 21.54,30.4 21.66,30.47 21.74,30.68 A 3.72,3.72 0 0,0 22.37,31.89 Z M 21.63,32.23 C 21.33,31.69 21.06,31.16 20.85,30.62 C 20.83,30.59 20.82,30.58 20.79,30.58 L 19.36,30.74 L 19.26,30.46 C 19.26,30.44 19.26,30.42 19.29,30.42 L 20.77,30.22 A 0.07,0.07 0 0,1 20.85,30.27 A 7.71,7.71 0 0,0 21.84,32.24 L 21.82,32.27 C 21.74,32.35 21.68,32.33 21.62,32.23 Z M 19.05,30.99 C 19.4,31.86 19.71,32.64 20.3,33.42 L 20.4,33.36 C 20.42,33.35 20.42,33.32 20.4,33.3 A 8.9,8.9 0 0,1 19.02,30.49 C 19.02,30.46 19,30.45 18.98,30.46 L 17.9,30.6 C 17.87,30.6 17.86,30.62 17.87,30.64 L 17.96,30.92 L 18.91,30.82 C 18.96,30.82 18.99,30.82 19.01,30.87 L 19.05,30.99 Z M 19.16,34.32 A 11.85,11.85 0 0,1 17.78,31.52 L 17.62,31.02 A 0.07,0.07 0 0,0 17.55,30.98 L 17.27,31 A 0.06,0.06 0 0,1 17.22,30.95 C 17.2,30.89 17.24,30.8 17.32,30.68 C 17.38,30.64 17.46,30.62 17.56,30.64 C 17.59,30.65 17.61,30.67 17.62,30.7 A 10.58,10.58 0 0,0 19.29,34.17 L 19.28,34.21 A 0.2,0.2 0 0,1 19.16,34.32 Z M 31.38,32.35 C 31.7,32.49 32.02,32.63 32.34,32.75 L 32.54,32.58 C 32.56,32.55 32.56,32.53 32.52,32.51 L 29.9,31.36 C 29.86,31.34 29.84,31.36 29.85,31.4 L 29.91,31.76 C 30.41,31.91 30.9,32.13 31.38,32.35 Z M 28.89,34.34 C 28.66,33.82 28.45,33.29 28.27,32.75 A 1.17,1.17 0 0,0 28.17,32.57 A 1.28,1.28 0 0,1 28.07,32.37 A 0.08,0.08 0 0,0 28.01,32.31 A 0.08,0.08 0 0,0 27.93,32.34 C 27.53,32.86 27.13,33.38 26.7,33.9 C 26.63,34 26.56,34.12 26.52,34.24 L 26.26,34.18 C 26.21,34.16 26.2,34.14 26.23,34.1 L 27.97,31.86 C 27.99,31.84 28.01,31.84 28.02,31.87 C 28.35,32.67 28.67,33.48 28.98,34.28 C 28.99,34.31 28.99,34.33 28.97,34.34 H 28.89 Z M 22.07,32.9 L 22.79,33.56 L 22.86,33.44 C 22.88,33.42 22.87,33.4 22.86,33.39 L 21.96,32.41 A 0.03,0.03 0 0,0 21.92,32.4 H 21.91 L 21.9,32.42 C 21.88,32.49 21.88,32.54 21.89,32.6 L 21.88,32.77 C 21.77,33.13 21.53,33.25 21.15,33.11 H 21.07 C 20.76,33.26 20.69,33.39 20.87,33.5 C 20.99,33.46 21.15,33.46 21.3,33.47 C 21.63,33.47 21.96,33.49 21.95,32.96 A 0.07,0.07 0 0,1 21.99,32.89 A 0.07,0.07 0 0,1 22.07,32.89 Z M 12.64,32.57 A 15.91,15.91 0 0,0 19.31,41.27 C 19.34,41.29 19.35,41.31 19.35,41.34 C 19.35,41.41 19.32,41.5 19.28,41.59 L 18.72,41.21 A 15.9,15.9 0 0,1 12.74,33.16 L 12.59,32.73 V 32.67 A 0.25,0.25 0 0,0 12.64,32.57 Z M 32.07,33.59 C 32.04,33.55 32.03,33.51 32.05,33.46 A 0.04,0.04 0 0,1 32.08,33.43 A 0.05,0.05 0 0,1 32.11,33.43 L 32.26,33.5 C 32.28,33.51 32.3,33.5 32.32,33.49 L 33.08,32.82 C 33.11,32.79 33.11,32.77 33.08,32.76 L 32.82,32.64 A 0.06,0.06 0 0,0 32.75,32.66 A 8.13,8.13 0 0,1 30.27,34.22 C 30.23,34.23 30.22,34.26 30.22,34.29 L 30.25,34.47 C 30.26,34.53 30.3,34.55 30.35,34.53 A 7,7 0 0,0 32.05,33.66 C 32.09,33.64 32.09,33.62 32.07,33.59 Z M 34.77,33.87 L 33.62,33.37 A 0.07,0.07 0 0,0 33.55,33.37 C 33.35,33.51 33.19,33.67 33.05,33.87 L 32.78,33.82 H 32.73 A 0.47,0.47 0 0,1 32.54,33.87 A 0.02,0.02 0 0,1 32.52,33.85 A 0.02,0.02 0 0,1 32.52,33.82 C 32.87,33.59 33.17,33.32 33.45,33.02 A 0.14,0.14 0 0,1 33.6,32.98 L 34.96,33.58 C 34.98,33.58 34.99,33.6 34.98,33.63 A 0.55,0.55 0 0,1 34.77,33.87 Z M 20.7,34.02 C 21.07,34.47 21.54,35.05 22.04,35.28 C 22.09,35.23 22.11,35.18 22.11,35.14 C 22.11,35.11 22.09,35.07 22.04,35.03 A 8.66,8.66 0 0,1 20.54,33.5 H 20.53 L 20.51,33.51 L 19.68,34.16 A 0.06,0.06 0 0,0 19.66,34.22 L 19.67,34.24 L 19.82,34.41 L 20.03,34.25 L 20.43,33.94 C 20.53,33.84 20.63,33.93 20.71,34.02 Z M 36.09,34.46 C 35.84,34.31 35.59,34.2 35.32,34.13 A 0.08,0.08 0 0,0 35.23,34.15 C 34.8,34.66 34.33,35.12 33.83,35.53 L 33.65,35.28 C 33.63,35.26 33.63,35.24 33.65,35.22 C 34.23,34.82 34.59,34.42 34.99,33.98 A 39.22,39.22 0 0,1 35.25,33.71 H 35.28 L 36.26,34.14 C 36.3,34.15 36.3,34.18 36.29,34.21 A 0.75,0.75 0 0,1 36.09,34.46 Z M 30.38,35.33 A 7.7,7.7 0 0,0 32.31,34.43 A 0.78,0.78 0 0,1 32.39,34.03 A 0.04,0.04 0 0,0 32.38,33.99 L 32.35,33.98 H 32.33 C 31.73,34.41 31.07,34.75 30.36,34.98 C 30.33,34.98 30.32,35.01 30.33,35.04 L 30.38,35.34 Z M 40.73,36.45 A 87.92,87.92 0 0,1 36.95,34.8 C 36.85,34.76 36.75,34.72 36.63,34.7 C 36.6,34.7 36.58,34.71 36.56,34.73 C 36.01,35.44 35.39,36.08 34.68,36.63 L 34.51,36.43 C 34.49,36.4 34.49,36.38 34.51,36.36 A 11.23,11.23 0 0,0 36.58,34.3 H 36.63 L 40.87,36.15 C 40.91,36.17 40.91,36.2 40.89,36.23 L 40.73,36.45 Z M 25.89,34.6 C 25.89,34.62 25.9,34.64 25.92,34.65 L 26.7,34.85 A 0.07,0.07 0 0,0 26.77,34.83 L 26.78,34.8 C 26.8,34.72 26.85,34.69 26.95,34.72 C 26.98,34.72 27,34.75 27,34.79 V 34.83 C 27,34.86 27.02,34.88 27.05,34.88 C 27.75,34.98 28.45,34.96 29.15,34.84 C 29.18,34.84 29.2,34.81 29.18,34.77 L 29.07,34.55 A 0.07,0.07 0 0,0 28.99,34.51 C 28.09,34.64 27.21,34.61 26.33,34.39 C 26.12,34.34 25.91,34.32 25.89,34.6 Z" fill="rgb(217, 194, 101)"/>
<path d="M 21.41,36.644999999999996 A 12.92,12.92 0 0,1 19.48,34.74 C 19.46,34.71 19.44,34.71 19.42,34.73 L 15.92,37.4 A 0.53,0.53 0 0,1 15.79,37.2 C 15.79,37.17 15.79,37.15 15.81,37.13 L 19.38,34.39 A 0.06,0.06 0 0,1 19.43,34.37 L 19.47,34.4 A 11.9,11.9 0 0,0 21.52,36.42 V 36.46 C 21.52,36.52 21.48,36.58 21.42,36.66 Z M 32.95,34.8 C 32.65,34.87 32.45,34.78 32.35,34.53 C 32.23,35.07 32.54,35.13 32.85,35.2 C 32.97,35.22 33.09,35.24 33.19,35.29 C 33.33,35.24 33.27,35.08 33.01,34.81 A 0.06,0.06 0 0,0 32.95,34.8 Z M 26.29,35.57 A 2.16,2.16 0 0,0 25.63,35.34 C 25.6,35.34 25.58,35.34 25.56,35.37 L 24.84,36.36 L 24.62,36.29 C 24.58,36.28 24.57,36.26 24.6,36.22 L 25.55,35 A 0.05,0.05 0 0,1 25.61,34.98 A 5.26,5.26 0 0,0 26.71,35.26 L 26.73,35.28 A 0.04,0.04 0 0,1 26.7,35.33 C 26.54,35.38 26.4,35.46 26.29,35.57 Z M 29.49,35.97 C 29.59,36.22 29.69,36.47 29.92,36.7 A 20.35,20.35 0 0,0 29.45,35.47 C 29.43,35.4 29.4,35.32 29.35,35.27 A 0.08,0.08 0 0,0 29.27,35.24 A 7.38,7.38 0 0,1 26.93,35.3 A 0.05,0.05 0 0,0 26.93,35.39 A 0.5,0.5 0 0,1 27.22,35.71 A 9.62,9.62 0 0,0 29.32,35.61 L 29.35,35.64 L 29.49,35.97 Z M 33.94,36.45 C 33.84,36.23 33.7,36.03 33.54,35.85 C 33.5,35.83 33.47,35.82 33.44,35.84 L 32.42,36.41 C 31.85,36.74 31.25,36.98 30.62,37.13 L 30.58,36.82 C 30.58,36.79 30.58,36.78 30.61,36.77 A 9.2,9.2 0 0,0 33.46,35.4 L 33.49,35.42 L 34.11,36.22 A 0.07,0.07 0 0,1 34.12,36.3 A 0.34,0.34 0 0,1 33.94,36.45 Z M 26.8,36.66 C 27.12,36.61 27.51,36.37 27.23,36 C 27.2,36.14 27.1,36.2 26.99,36.25 C 26.86,36.32 26.73,36.39 26.79,36.66 Z M 26.27,36.07 L 26.58,36.32 C 26.6,36.33 26.61,36.36 26.6,36.38 L 26.55,36.63 C 26.29,36.49 26.19,36.3 26.27,36.07 Z M 44.82,37.87 L 44.8,37.94 A 0.05,0.05 0 0,0 44.82,37.99 C 44.93,38.05 44.99,38.14 45,38.27 A 0.03,0.03 0 0,1 44.99,38.29 A 0.04,0.04 0 0,1 44.96,38.3 A 4.48,4.48 0 0,1 44.43,38.1 L 41.73,36.91 C 41.61,36.86 41.52,36.88 41.45,36.98 A 16.15,16.15 0 0,1 20.9,42.52 C 20.71,42.42 20.52,42.32 20.33,42.24 H 20.28 A 0.07,0.07 0 0,0 20.24,42.26 L 18.09,44.98 A 0.05,0.05 0 0,1 18.05,45 A 0.05,0.05 0 0,1 18.01,44.98 A 0.66,0.66 0 0,1 17.93,44.65 C 17.99,44.72 18.06,44.7 18.14,44.6 C 18.79,43.74 19.48,42.84 20.21,41.92 C 20.25,41.87 20.29,41.86 20.34,41.89 A 16.07,16.07 0 0,0 41.54,36.43 L 44.82,37.87 Z M 24.73,36.92 C 25.31,37.14 25.9,37.35 26.47,37.32 L 26.51,37.07 C 26.51,37.05 26.5,37.03 26.47,37.03 A 8.94,8.94 0 0,1 24.41,36.47 A 0.08,0.08 0 0,0 24.37,36.49 A 0.48,0.48 0 0,0 24.3,36.63 A 3.45,3.45 0 0,0 23.74,37.37 C 23.73,37.4 23.74,37.42 23.76,37.44 H 23.84 C 24.05,37.32 24.14,37.2 24.24,37.05 L 24.41,36.85 C 24.43,36.82 24.45,36.82 24.48,36.83 L 24.73,36.92 Z" fill="rgb(217, 194, 101)"/>
<path d="M 36.97,40.265 L 34.36,36.93 C 34.34,36.9 34.31,36.9 34.29,36.92 C 33.33,37.59 32.3,38.1 31.19,38.45 L 31.09,38.48 C 30.97,38.5 30.79,38.53 30.79,38.66 L 30.77,38.24 C 30.77,38.21 30.77,38.19 30.81,38.18 A 11.19,11.19 0 0,0 34.33,36.52 C 34.34,36.52 34.35,36.52 34.36,36.54 L 37.13,40.09 C 37.16,40.13 37.15,40.17 37.11,40.19 L 36.98,40.29 Z M 30.05,37.35 L 30.38,38.02 C 30.3,37.65 30.18,37.3 30.03,36.96 C 30.03,36.94 30,36.93 29.98,36.93 A 9.36,9.36 0 0,1 26.78,37.08 C 26.74,37.08 26.72,37.08 26.72,37.12 L 26.67,37.45 A 10.68,10.68 0 0,0 30.03,37.33 L 30.05,37.35 Z M 26.28,38.78 C 25.35,38.61 24.45,38.34 23.58,37.97 C 23.56,37.96 23.54,37.97 23.52,37.98 L 20.86,41.45 A 0.34,0.34 0 0,1 20.68,41.37 C 20.66,41.35 20.66,41.33 20.68,41.3 L 23.51,37.64 C 23.52,37.62 23.54,37.62 23.56,37.63 A 11.99,11.99 0 0,0 26.32,38.44 V 38.47 L 26.28,38.77 Z M 30.44,38.66 C 30.48,38.66 30.56,38.66 30.69,38.71 L 30.56,38.29 C 30.55,38.26 30.53,38.25 30.5,38.26 A 11.35,11.35 0 0,1 26.55,38.48 L 26.53,38.51 L 26.5,38.81 A 12,12 0 0,0 30.44,38.66 Z" fill="rgb(217, 194, 101)"/>
</svg>
