<?xml version="1.0" encoding="UTF-8"?>
<!-- generated by Finnhub -->
<svg viewBox="0 0 55.5 55.5" xmlns="http://www.w3.org/2000/svg">
<rect width="56" height="56" fill="rgb(1, 50, 100)"/>
<path d="m9.682 25.109c0.41062-0.2971 0.82282-0.371 1.2364-0.2217 0.8498 0.3076 0.6227 1.8615 0.6407 2.5762 0.0015 0.0709 0.0345 0.1214 0.0989 0.1515 0.105 0.0468 0.2031 0.1063 0.2945 0.1787 0.1829 0.1448 0.1582 0.2134-0.0741 0.2058l-1.1511 6e-4c-0.1004-0.0045-0.1461-0.1008-0.1371-0.2019 0.057-0.6031 0.0742-1.1987 0.0517-1.7868-0.0202-0.5541-0.5643-0.9364-1.0476-0.5451-0.04796 0.0392-0.07194 0.0905-0.07194 0.1538v1.8163c0 0.101 0.04796 0.1666 0.14388 0.1967l0.28775 0.0905c0.03597 0.0121 0.0592 0.0369 0.0697 0.0746s9e-3 0.0724-0.0045 0.1041c-0.02249 0.0558-0.06295 0.0978-0.1214 0.0978h-1.5579c-0.17235 0-0.19708-0.0752-0.07418-0.1973 0.07044-0.0679 0.14987-0.1192 0.23829-0.1538 0.07943-0.0317 0.11915-0.0905 0.11915-0.1765v-3.5781c0-0.0815-0.02848-0.1501-0.08543-0.2059l-0.25178-0.2533c-0.09292-0.095-0.07494-0.1568 0.05395-0.1854l1.0544-0.2443c0.08543-0.0196 0.12814 0.0143 0.12814 0.1018l0.00225 1.9202c0 0.1312 0.05245 0.1584 0.15736 0.0815z" fill="rgb(254, 254, 253)"/>
<path d="m32.949 23.911-0.2221-0.1344c-0.1555-0.0937-0.143-0.1567 0.0374-0.1889l1.047-0.1869c0.1026-0.0196 0.1885 0.021 0.1885 0.1218v3.9075c0.0015 0.07 0.0168 0.126 0.0754 0.168l0.2706 0.1911c0.1627 0.1147 0.1429 0.1784-0.0594 0.191-0.2024 0.0105-1.5001 0.0588-1.5639-0.0483-0.0352-0.0588-0.0184-0.0966 0.0506-0.1134 0.1258-0.0296 0.2267-0.1438 0.2267-0.5034v-3.234c-0.0044-0.0742 0.0152-0.1309-0.0508-0.1701z" fill="rgb(254, 254, 253)"/>
<path d="m7.1489 23.915c-2.3955-0.9329-3.2581 3.7023-0.3552 3.682 0.0592 0 0.11135-0.021 0.15646-0.0629l0.85417-0.78c0.0194-0.0172 0.04396-0.0266 0.06934-0.0268 0.02538-1e-4 0.04996 0.0091 0.06942 0.026 0.01945 0.0169 0.03253 0.0405 0.03693 0.0665 0.00439 0.0261-1.7e-4 0.0529-0.01289 0.0759l-0.40172 0.7575c-0.03523 0.0645-0.08598 0.1087-0.15222 0.1327-4.0933 1.4184-4.698-4.6756-0.75904-4.2778 0.44189 0.045 0.72732-0.0314 1.1544-0.0944 0.11135-0.018 0.15434 0.0315 0.12897 0.1484l-0.25372 1.1487c-0.00631 0.0261-0.02054 0.0494-0.04049 0.0662s-0.04452 0.0261-0.06995 0.0267c-0.02544 5e-4 -0.05033-0.0079-0.07086-0.0239-0.02053-0.0159-0.03557-0.0386-0.04281-0.0646l-0.16069-0.6271c-0.02114-0.0839-0.07118-0.1416-0.15011-0.1731z" fill="rgb(254, 254, 253)"/>
<path d="m14.149 29.92c-2.3955-0.9329-3.2581 3.7022-0.3552 3.682 0.0592 0 0.1114-0.021 0.1565-0.0629l0.8542-0.78c0.0194-0.0172 0.0439-0.0267 0.0693-0.0268s0.05 0.0091 0.0694 0.026c0.0195 0.0169 0.0325 0.0405 0.0369 0.0665 0.0044 0.0261-1e-4 0.0529-0.0128 0.0759l-0.4018 0.7575c-0.0352 0.0644-0.0859 0.1087-0.1522 0.1326-4.0933 1.4184-4.6979-4.6756-0.759-4.2777 0.4419 0.045 0.7273-0.0315 1.1544-0.0944 0.1113-0.018 0.1543 0.0315 0.129 0.1484l-0.2538 1.1486c-0.0063 0.0262-0.0205 0.0495-0.0404 0.0663-0.02 0.0168-0.0446 0.0261-0.07 0.0266s-0.0503-0.0078-0.0709-0.0238c-0.0205-0.016-0.0355-0.0386-0.0428-0.0646l-0.1607-0.6271c-0.0211-0.0839-0.0711-0.1416-0.1501-0.1731z" fill="rgb(254, 254, 253)"/>
<path d="m24.002 24.153-0.0021 3.2906c0 0.0806 0.0783 0.1363 0.153 0.1671l0.5418 0.2156c0.0186 0.0072 0.034 0.0206 0.0435 0.038 0.0096 0.0174 0.0126 0.0377 0.0088 0.0574-0.0039 0.0197-0.0145 0.0376-0.0301 0.0507-0.0155 0.0131-0.035 0.0272-0.0552 0.0277l-2.0279-1e-4c-0.2239 0.0015-0.2392-0.0549-0.0461-0.1693l0.3687-0.22c0.0659-0.0396 0.0435-0.1349 0.0435-0.2111v-3.2048c0-0.0821 0.0165-0.1363-0.061-0.1627l-0.3973-0.1276c-0.0177-0.0062-0.0328-0.018-0.0431-0.0337-0.0103-0.0156-0.0153-0.0343-0.014-0.053 0.0012-0.0187 0.0086-0.0365 0.0209-0.0506 0.0123-0.0142 0.0288-0.0239 0.0472-0.0277 0.9701-0.1671 3.077-0.4685 3.4918 0.8051 0.4829 1.4781-1.6833 2.0565-1.7997 1.6166-0.019-0.0689 0.0059-0.1151 0.0747-0.1385 1.2795-0.429 1.0932-2.193-0.1665-1.9906-0.0688 0.0102-0.1509 0.0506-0.1509 0.1209z" fill="rgb(254, 254, 253)"/>
<path d="m16.417 25.811c0.5497 0.3483 1.7421 0.61 1.3679 1.5509-0.3087 0.7766-1.4758 0.7398-2.0868 0.4391-0.0846-0.0418-0.1184-0.1088-0.1015-0.2011l0.1078-0.5949c0.0282-0.1586 0.079-0.1673 0.1523-0.0259l0.3277 0.6229c0.0324 0.062 0.0831 0.1017 0.1522 0.119 0.2298 0.0548 0.4468 0.0231 0.6512-0.0952 0.0438-0.026 0.0799-0.0638 0.1043-0.1092 0.0244-0.0455 0.0363-0.0968 0.0343-0.1486-0.0019-0.0518-0.0177-0.1021-0.0454-0.1455-0.0278-0.0433-0.0666-0.0782-0.1122-0.1007-0.5159-0.2531-1.351-0.5234-1.3066-1.2416 0.0444-0.7506 0.8118-1.0318 1.4525-0.8025 0.069 0.0245 0.1388 0.0274 0.2093 0.0087l0.2093-0.0563c0.0973-0.0259 0.1381 0.0123 0.1226 0.1147l-0.1078 0.7095c-3e-3 0.02-0.0125 0.0384-0.0272 0.0521-0.0146 0.0137-0.0333 0.0218-0.0531 0.0231s-0.0394-0.0044-0.0555-0.0162c-0.0162-0.0117-0.028-0.0287-0.0333-0.0482-0.148-0.504-0.7866-0.915-1.0318-0.2618-0.0324 0.088-0.0092 0.1572 0.0698 0.2077z" fill="rgb(254, 254, 253)"/>
<path d="m19.083 26.793c0.1336 0.4958 0.4726 0.7523 1.0172 0.7694 0.075 0.0028 0.144-0.015 0.207-0.0534l0.5244-0.3185c0.1695-0.104 0.2077-0.0705 0.1147 0.1005-0.7763 1.4211-3.2427 0.5385-2.7657-1.169 0.3984-1.4382 2.9412-1.6306 2.8422 0.2308-0.0045 0.0826-0.051 0.1261-0.1395 0.1304l-1.6225 0.0812c-0.0288 0.0014-0.057 0.0088-0.0824 0.0217s-0.0474 0.031-0.0645 0.0529c-0.017 0.0219-0.0286 0.0472-0.034 0.0738-0.0053 0.0267-0.0043 0.0541 0.0031 0.0802zm0.1643-0.5278 0.7246 0.0107c0.042 5e-4 0.0826-0.0146 0.1129-0.0422s0.048-0.0654 0.0491-0.1053l0.0023-0.0299c0.0019-0.1087-0.0091-0.2166-0.0324-0.3175s-0.0585-0.1927-0.1034-0.2704c-0.0449-0.0776-0.0988-0.1394-0.1585-0.1819s-0.1241-0.0649-0.1895-0.0658h-0.0495c-0.1318-0.0019-0.2596 0.0832-0.3554 0.2367-0.0958 0.1534-0.1517 0.3627-0.1555 0.5818l-0.0022 0.0299c-3e-4 0.0199 0.0035 0.0397 0.0113 0.0582 0.0077 0.0186 0.0193 0.0354 0.0339 0.0497s0.0321 0.0257 0.0513 0.0336c0.0193 0.0079 0.04 0.0121 0.061 0.0124z" fill="rgb(254, 254, 253)"/>
<path d="m27.984 26.102c0.1184-0.3895-0.2296-0.9489-0.7243-0.6649-0.0678 0.0387-0.1081 0.094-0.1207 0.1657l-0.0947 0.5078c-0.03 0.1635-0.1065 0.1843-0.2296 0.0624l-0.3716-0.3679c-0.0599-0.0589-0.0576-0.1162 0.0071-0.1722 0.5799-0.5013 1.7255-0.9833 2.2699-0.2776 0.3503 0.4541 0.258 1.4503 0.2273 1.9969-0.0032 0.0559 0.0221 0.0997 0.0757 0.1312l0.3148 0.1808c0.112 0.0645 0.1105 0.1269-0.0047 0.1872-0.4182 0.2195-0.8064 0.1965-1.1646-0.0689-0.0726-0.0531-0.1507-0.0617-0.2343-0.0258l-0.4616 0.1915c-0.082 0.0344-0.168 0.0466-0.2579 0.0366-0.4671-0.0545-0.7512-0.2826-0.8522-0.6843-0.1704-0.667 0.9752-0.8843 1.4628-1.0436 0.0837-0.0272 0.1365-0.0789 0.1586-0.1549zm0.0184 1.2889v-0.6778c0.0058-0.1691-0.211-0.1685-0.3681-0.1178-0.064 0.0206-0.1225 0.0518-0.1722 0.0918s-0.0896 0.0879-0.1174 0.1411-0.043 0.1106-0.0447 0.1689l-0.0024 0.0732c-0.0036 0.1171 0.0475 0.2308 0.1419 0.3162 0.0945 0.0855 0.2247 0.1358 0.3623 0.14h0.0355c0.0808 0.0023 0.1626-0.0621 0.1651-0.1356z" fill="rgb(254, 254, 253)"/>
<path d="m37.982 26.102c0.1184-0.3895-0.2295-0.9489-0.7242-0.6649-0.0679 0.0387-0.1081 0.094-0.1208 0.1657l-0.0946 0.5078c-0.03 0.1635-0.1065 0.1843-0.2296 0.0624l-0.3716-0.3679c-0.06-0.0589-0.0576-0.1162 0.0071-0.1722 0.5799-0.5013 1.7255-0.9833 2.2699-0.2776 0.3503 0.4541 0.258 1.4503 0.2272 1.9969-0.0032 0.0559 0.0221 0.0997 0.0757 0.1312l0.3148 0.1808c0.1121 0.0645 0.1105 0.1269-0.0047 0.1872-0.4182 0.2195-0.8063 0.1965-1.1645-0.0689-0.0726-0.0531-0.1507-0.0617-0.2344-0.0258l-0.4615 0.1915c-0.0821 0.0344-0.1681 0.0466-0.258 0.0366-0.4671-0.0545-0.7511-0.2826-0.8521-0.6843-0.1704-0.667 0.9752-0.8843 1.4628-1.0436 0.0836-0.0272 0.1365-0.0789 0.1585-0.1549zm0.0184 1.2889v-0.6778c0.0058-0.1691-0.211-0.1685-0.3681-0.1178-0.064 0.0206-0.1225 0.0518-0.1722 0.0918s-0.0896 0.0879-0.1174 0.1411-0.043 0.1106-0.0447 0.1689l-0.0024 0.0732c-0.0035 0.1171 0.0475 0.2308 0.142 0.3162 0.0945 0.0855 0.2247 0.1358 0.3622 0.14h0.0355c0.0808 0.0023 0.1626-0.0621 0.1651-0.1356z" fill="rgb(254, 254, 253)"/>
<path d="m33.638 32.106c0.1184-0.3895-0.2296-0.9489-0.7243-0.6649-0.0678 0.0387-0.1081 0.094-0.1207 0.1657l-0.0947 0.5078c-0.03 0.1635-0.1065 0.1843-0.2296 0.0624l-0.3716-0.368c-0.0599-0.0588-0.0576-0.1161 0.0071-0.1721 0.5799-0.5014 1.7255-0.9833 2.2699-0.2776 0.3503 0.4541 0.258 1.4503 0.2273 1.9969-0.0032 0.0559 0.0221 0.0997 0.0757 0.1312l0.3148 0.1808c0.112 0.0645 0.1105 0.1269-0.0047 0.1872-0.4182 0.2194-0.8064 0.1965-1.1646-0.0689-0.0726-0.0531-0.1507-0.0617-0.2343-0.0258l-0.4616 0.1915c-0.082 0.0344-0.168 0.0466-0.258 0.0366-0.467-0.0545-0.7511-0.2826-0.8521-0.6843-0.1704-0.667 0.9752-0.8844 1.4628-1.0436 0.0837-0.0272 0.1365-0.0789 0.1586-0.1549zm0.0184 1.2889v-0.6778c0.0058-0.1691-0.211-0.1685-0.3681-0.1178-0.064 0.0206-0.1225 0.0518-0.1722 0.0918s-0.0896 0.0879-0.1174 0.1411c-0.0279 0.0532-0.043 0.1106-0.0447 0.1689l-0.0024 0.0732c-0.0036 0.1171 0.0475 0.2308 0.1419 0.3162 0.0945 0.0855 0.2247 0.1358 0.3623 0.1399h0.0355c0.0808 0.0023 0.1626-0.062 0.1651-0.1355z" fill="rgb(254, 254, 253)"/>
<path d="m13.88 26.102c0.1184-0.3895-0.2296-0.9489-0.7243-0.6649-0.0678 0.0387-0.1081 0.094-0.1207 0.1657l-0.0947 0.5078c-0.03 0.1635-0.1065 0.1843-0.2296 0.0624l-0.3716-0.3679c-0.0599-0.0589-0.0576-0.1162 0.0071-0.1722 0.5799-0.5013 1.7255-0.9833 2.2699-0.2776 0.3503 0.4541 0.258 1.4503 0.2273 1.9969-0.0032 0.0559 0.0221 0.0997 0.0757 0.1312l0.3148 0.1808c0.112 0.0645 0.1105 0.1269-0.0047 0.1872-0.4182 0.2195-0.8064 0.1965-1.1646-0.0689-0.0726-0.0531-0.1507-0.0617-0.2343-0.0258l-0.4616 0.1915c-0.082 0.0344-0.168 0.0466-0.258 0.0366-0.467-0.0545-0.7511-0.2826-0.8521-0.6843-0.1704-0.667 0.9752-0.8843 1.4628-1.0436 0.0837-0.0272 0.1365-0.0789 0.1586-0.1549zm0.0184 1.2889v-0.6778c0.0058-0.1691-0.211-0.1685-0.3681-0.1178-0.064 0.0206-0.1225 0.0518-0.1722 0.0918s-0.0896 0.0879-0.1174 0.1411c-0.0279 0.0532-0.043 0.1106-0.0447 0.1689l-0.0024 0.0732c-0.0036 0.1171 0.0475 0.2308 0.1419 0.3162 0.0945 0.0855 0.2247 0.1358 0.3623 0.14h0.0355c0.0808 0.0023 0.1626-0.0621 0.1651-0.1356z" fill="rgb(254, 254, 253)"/>
<path d="m31.623 25.336c-0.0116-0.0365-0.0312-0.0699-0.0574-0.0975-0.0263-0.0276-0.0584-0.0488-0.0939-0.0619-0.0355-0.013-0.0735-0.0177-0.111-0.0135-0.0376 0.0042-0.0737 0.017-0.1056 0.0376-1.3214 0.8678-0.5265 3.1962 0.8711 2.032 0.017-0.0144 0.0384-0.0224 0.0605-0.0228s0.0437 0.0069 0.0612 0.0207c0.0175 0.0137 0.0298 0.0332 0.035 0.055 0.0052 0.0219 0.0028 0.0449-0.0066 0.0652-0.2438 0.5342-0.6773 0.7389-1.3003 0.6144-2.3595-0.4726-1.2474-3.686 1.1946-2.8161 0.0733 0.0272 0.0965 0.0773 0.0698 0.1504l-0.2347 0.653c-0.0077 0.0195-0.021 0.0363-0.0383 0.0479-0.0172 0.0117-0.0376 0.0177-0.0583 0.0172-0.0208-5e-4 -0.0408-0.0074-0.0576-0.0198-0.0167-0.0124-0.0293-0.0297-0.0361-0.0496l-0.1924-0.6122z" fill="rgb(254, 254, 253)"/>
<path d="m34.979 26.21 1.199 1.6163c0.0131 0.0183 0.02 0.0396 0.0199 0.0613s-0.0072 0.0429-0.0205 0.0611-0.0321 0.0325-0.0543 0.0413-0.0468 0.0116-0.0707 0.0081c-0.9795-0.1371-1.6098-0.637-1.891-1.4996-0.0236-0.0707-0.0118-0.1372 0.0356-0.1994l0.9289-1.2366c0.0363-0.0481 0.0861-0.0686 0.1492-0.0615l0.7915 0.0742c0.025 0.0026 0.0484 0.0125 0.0664 0.0282 0.0181 0.0157 0.0298 0.0364 0.0333 0.0587s-0.0013 0.0451-0.0138 0.0647c-0.0125 0.0195-0.0319 0.0349-0.0551 0.0435l-0.917 0.3437c-0.0612 0.0231-0.1159 0.0581-0.1602 0.1023-0.0444 0.0442-0.0773 0.0966-0.0966 0.1534-0.0192 0.0569-0.0242 0.1169-0.0146 0.1757 0.0095 0.0588 0.0334 0.115 0.07 0.1646z" fill="rgb(254, 254, 253)"/>
<path d="m40.32 26.871c0.0613 0.9918 2.3722-0.3586 2.5139 1.0659 0.0056 0.0628-0.0056 0.1222-0.0338 0.1783-0.3156 1.191-1.4348 1.3589-2.5985 0.9397-0.2199-0.0655-0.3397-0.2358-0.3594-0.5109-0.0057-0.0775 0.0197-0.1456 0.0761-0.2044l0.3932-0.4107c0.0168-0.0177 0.0286-0.039 0.0345-0.0621s0.0057-0.0472-5e-4 -0.0702c-0.0063-0.023-0.0185-0.0442-0.0355-0.0616-0.0169-0.0175-0.0382-0.0307-0.0619-0.0385-0.2495-0.0855-0.4151-0.2485-0.4968-0.4889-0.0254-0.0761-0.0085-0.1429 0.0507-0.2003l0.3341-0.3146c0.0521-0.0508 0.0571-0.1048 0.0148-0.1623-0.5202-0.7032-0.074-1.3704 0.7252-1.5107 0.5645-0.1001 1.0973 0.2304 1.8267 0.0501 0.0874-0.0227 0.1163 0.0067 0.0867 0.0882-0.0634 0.179-0.1924 0.2758-0.3869 0.2905-0.0747 0.0067-0.1057 0.0447-0.093 0.1142 0.2537 1.3504-0.9007 1.3123-1.8522 1.1881-0.0972-0.0134-0.143 0.0267-0.1374 0.1202zm0.8439-0.2825c0.11-3e-4 0.2151-0.0708 0.2924-0.1958 0.0772-0.125 0.1202-0.2943 0.1196-0.4707-3e-4 -0.0874-0.0114-0.1738-0.0325-0.2545-0.0211-0.0806-0.0519-0.1538-0.0906-0.2155-0.0387-0.0616-0.0846-0.1105-0.135-0.1437-0.0504-0.0333-0.1043-0.0503-0.1588-0.0501-0.1099 3e-4 -0.215 0.0708-0.2923 0.1958-0.0772 0.125-0.1203 0.2943-0.1196 0.4707 3e-4 0.0874 0.0114 0.1738 0.0325 0.2545 0.0211 0.0806 0.0519 0.1538 0.0906 0.2155 0.0387 0.0616 0.0846 0.1104 0.135 0.1437s0.1043 0.0503 0.1587 0.0501zm0.8179 1.4119-1.2601-0.0014c-0.125-0.0027-0.1845 0.1016-0.1903 0.2104-0.0021 0.0824 0.0143 0.1645 0.0483 0.2414 0.0339 0.077 0.0847 0.1473 0.1495 0.2071 0.0649 0.0597 0.1424 0.1077 0.2281 0.1411 0.0858 0.0334 0.1782 0.0516 0.2719 0.0535l0.2029 4e-3c0.1888 0.0041 0.3715-0.058 0.5079-0.1726s0.2153-0.2723 0.2194-0.4384c0.0056-0.1056-0.0539-0.2424-0.1776-0.2451z" fill="rgb(254, 254, 253)"/>
<path d="m49.484 26.872c0.0613 0.9917 2.3722-0.3587 2.5138 1.0659 0.0057 0.0627-0.0056 0.1222-0.0338 0.1783-0.3155 1.1909-1.4348 1.3588-2.5984 0.9396-0.2199-0.0654-0.3397-0.2357-0.3595-0.5109-0.0056-0.0774 0.0198-0.1456 0.0761-0.2043l0.3933-0.4108c0.0167-0.0177 0.0285-0.039 0.0345-0.0621 0.0059-0.0231 0.0057-0.0472-6e-4 -0.0702-0.0063-0.0229-0.0184-0.0441-0.0354-0.0616-0.017-0.0174-0.0383-0.0307-0.0619-0.0385-0.2495-0.0855-0.4151-0.2484-0.4969-0.4888-0.0254-0.0762-0.0084-0.143 0.0508-0.2004l0.334-0.3146c0.0522-0.0507 0.0571-0.1048 0.0148-0.1622-0.5201-0.7033-0.074-1.3705 0.7252-1.5107 0.5645-0.1002 1.0973 0.2304 1.8268 0.0501 0.0874-0.0227 0.1163 0.0066 0.0867 0.0881-0.0635 0.179-0.1924 0.2758-0.387 0.2905-0.0747 0.0067-0.1057 0.0448-0.093 0.1142 0.2537 1.3504-0.9007 1.3124-1.8521 1.1881-0.0973-0.0133-0.1431 0.0268-0.1374 0.1203zm0.8439-0.2825c0.1099-4e-4 0.215-0.0708 0.2923-0.1958s0.1203-0.2944 0.1196-0.4708c-3e-4 -0.0873-0.0113-0.1738-0.0324-0.2544-0.0212-0.0807-0.052-0.1539-0.0907-0.2155-0.0387-0.0617-0.0845-0.1105-0.1349-0.1438-0.0504-0.0332-0.1044-0.0503-0.1588-0.0501-0.1099 4e-4 -0.2151 0.0708-0.2923 0.1958-0.0773 0.125-0.1203 0.2943-0.1197 0.4707 4e-4 0.0874 0.0114 0.1739 0.0325 0.2545s0.0519 0.1539 0.0907 0.2155c0.0387 0.0616 0.0845 0.1105 0.1349 0.1438 0.0504 0.0332 0.1044 0.0502 0.1588 0.0501zm0.8179 1.4118-1.2601-0.0013c-0.125-0.0028-0.1846 0.1015-0.1903 0.2103-0.0021 0.0825 0.0143 0.1645 0.0482 0.2415 0.034 0.0769 0.0848 0.1473 0.1496 0.207 0.0648 0.0598 0.1423 0.1077 0.2281 0.1411s0.1781 0.0516 0.2718 0.0536l0.203 4e-3c0.1888 4e-3 0.3715-0.058 0.5078-0.1726 0.1364-0.1146 0.2153-0.2723 0.2195-0.4385 0.0056-0.1055-0.0539-0.2424-0.1776-0.2451z" fill="rgb(254, 254, 253)"/>
<path d="m43.516 23.967 0.2473-0.229c0.1423-0.1317 0.3664-0.1252 0.5005 0.0146l0.1592 0.166c0.1341 0.1398 0.1275 0.36-0.0148 0.4917l-0.2473 0.229c-0.1423 0.1317-0.3664 0.1252-0.5005-0.0146l-0.1592-0.1661c-0.1341-0.1398-0.1275-0.3599 0.0148-0.4916zm1.3722 3.8465-0.2806-0.1298c-0.0912-0.0433-0.1368-0.1118-0.1368-0.2055v-2.3477c0-0.101-0.0543-0.1435-0.1628-0.1277l-0.9882 0.1429c-0.1965 0.0288-0.2193 0.1031-0.0684 0.2228l0.1863 0.1472c0.0614 0.049 0.092 0.111 0.092 0.186v1.7175c-0.0573 0.1863-0.2031 0.343-0.3467 0.4441-0.1289 0.0909-0.1116 0.1363 0.0519 0.1363h1.6038c0.2988 0 0.3153-0.062 0.0495-0.1861z" clip-rule="evenodd" fill="rgb(254, 254, 253)" fill-rule="evenodd"/>
<path d="m37.989 29.964 0.2473-0.229c0.1423-0.1317 0.3663-0.1252 0.5004 0.0146l0.1593 0.166c0.1341 0.1398 0.1274 0.3599-0.0149 0.4917l-0.2473 0.229c-0.1423 0.1317-0.3663 0.1252-0.5004-0.0146l-0.1593-0.1661c-0.1341-0.1398-0.1274-0.3599 0.0149-0.4916zm1.3722 3.8465-0.2807-0.1298c-0.0823-0.0391-0.0816-0.0987-0.0807-0.1789 1e-4 -0.0086 2e-4 -0.0175 2e-4 -0.0266v-2.3477c0-0.101-0.1105-0.1435-0.219-0.1277l-0.9882 0.1429c-0.1966 0.0288-0.2194 0.1031-0.0684 0.2228l0.1863 0.1472c0.0613 0.049 0.092 0.111 0.092 0.186v1.7175c-0.0574 0.1863-0.2032 0.343-0.3467 0.4441-0.129 0.0909-0.1117 0.1363 0.0519 0.1363h1.6038c0.2987 0 0.3152-0.062 0.0495-0.1861z" clip-rule="evenodd" fill="rgb(254, 254, 253)" fill-rule="evenodd"/>
<path d="m46.623 25.388c1.0238-0.7676 1.5012-0.2755 1.6493 0.4589v1.6218c-0.0085 0.1343 0.1256 0.2753 0.2397 0.332 0.2556 0.1268 0.2393 0.1992-0.049 0.1992h-1.2271c-0.1219 0-0.1464-0.0554-0.0736-0.1485 0.0731-0.0942 0.1285-0.2557 0.1694-0.3827v-1.6895c-0.0133-0.0719-0.0542-0.1226-0.1226-0.1522-0.2303-0.1015-0.4346-0.0691-0.6129 0.0972-0.0579 0.0522-0.0869 0.1163-0.0869 0.1925v1.4843c0 0.0776 0.0238 0.148 0.0713 0.2115l0.185 0.2453c0.0654 0.086 0.0424 0.1407-0.0691 0.1421h-1.4465c-0.0401-0.0493-0.029-0.1485 0.0335-0.1696 0.1447-0.0489 0.2719-0.1813 0.3254-0.3616v-1.6218c-0.0015-0.0733-0.0208-0.1424-0.058-0.2073l-0.0914-0.1628c-0.0728-0.1282-0.0341-0.21 0.1159-0.2452l0.7155-0.165c0.098-0.0239 0.1508 0.012 0.1582 0.1079l0.0134 0.1459c0.0089 0.1184 0.0624 0.1409 0.1605 0.0676z" fill="rgb(254, 254, 253)"/>
<path d="m44.289 31.387c1.0515-0.7677 1.5587-0.2756 1.7107 0.4588v1.6219c-0.0087 0.1342 0.1121 0.2753 0.2293 0.3319 0.2625 0.1269 0.2457 0.1993-0.0503 0.1993h-1.2602c-0.1252 0-0.1504-0.0555-0.0756-0.1485 0.0751-0.0943 0.1148-0.2557 0.1568-0.3827v-1.6895c-0.0137-0.0719-0.0385-0.1227-0.1087-0.1523-0.2365-0.1015-0.4463-0.0691-0.6295 0.0973-0.0595 0.0521-0.0892 0.1163-0.0892 0.1924v1.4844c0 0.0775 0.0244 0.148 0.0732 0.2114l0.19 0.2453c0.0671 0.086 0.0435 0.1408-0.071 0.1422h-1.4854c-0.0412-0.0494-0.0298-0.1485 0.0343-0.1697 0.1486-0.0489 0.2793-0.1812 0.3342-0.3615v-1.6219c-0.0016-0.0733-0.0214-0.1423-0.0595-0.2072l-0.0939-0.1628c-0.0748-0.1283-0.0351-0.2101 0.119-0.2453l0.7348-0.1649c0.1007-0.024 0.1548 0.012 0.1625 0.1078l0.0137 0.1459c0.0092 0.1184 0.0641 0.141 0.1648 0.0677z" fill="rgb(254, 254, 253)"/>
<path d="m36.376 31.462v1.7592c0 0.0967 0.0449 0.1693 0.1345 0.2177 0.2187 0.1143 0.4515 0.1055 0.6985-0.0264 0.0976-0.0528 0.1503-0.0257 0.1581 0.0813 0.0378 0.5014-1.8642 0.8798-1.942-0.1493v-1.8715c-0.0016-0.0748-0.0378-0.129-0.1086-0.1627l-0.2643-0.1276c-0.1966-0.0938-0.1864-0.159 0.0307-0.1957l0.3469-0.0571c0.0849-0.0147 0.1282-0.0616 0.1298-0.1408 0.0125-0.4676 0.2603-0.73 0.7433-0.7872 0.0928-0.0117 0.1345 0.0257 0.1251 0.1121l-0.0661 0.596c-0.0033 0.0302 2e-4 0.0607 0.0103 0.0895 0.0101 0.0289 0.0266 0.0554 0.0484 0.078s0.0484 0.0407 0.0781 0.0531 0.0619 0.0189 0.0944 0.019h0.6513c0.0677 0 0.1109 0.0301 0.1298 0.0902 0.0126 0.0381 0.011 0.074-0.0047 0.1078-0.0205 0.041-0.0543 0.0645-0.1015 0.0703l-0.7315 0.0792c-0.107 0.0102-0.1605 0.0652-0.1605 0.1649z" fill="rgb(254, 254, 253)"/>
<path d="m18.268 32.5c0 0.3978-0.1586 0.7794-0.4409 1.0607-0.2824 0.2813-0.6653 0.4393-1.0645 0.4393-0.3993 0-0.7821-0.158-1.0645-0.4393-0.2823-0.2813-0.4409-0.6629-0.4409-1.0607s0.1586-0.7794 0.4409-1.0607c0.2824-0.2813 0.6652-0.4393 1.0645-0.4393 0.3992 0 0.7821 0.158 1.0645 0.4393 0.2823 0.2813 0.4409 0.6629 0.4409 1.0607zm-1.4633 1.198c0.1546-0.0054 0.2985-0.137 0.4-0.3659 0.1015-0.2288 0.1522-0.5362 0.1411-0.8545-0.0112-0.3183-0.0833-0.6214-0.2006-0.8427-0.1172-0.2212-0.27-0.3425-0.4247-0.3371-0.1546 0.0054-0.2985 0.137-0.4 0.3658-0.1015 0.2289-0.1522 0.5363-0.1411 0.8546 0.0112 0.3183 0.0833 0.6214 0.2006 0.8426 0.1172 0.2213 0.27 0.3426 0.4247 0.3372z" fill="rgb(254, 254, 253)"/>
<path d="m20.104 31.391c0.2721-0.3399 0.6231-0.458 1.0529-0.3543 0.1036 0.0259 0.1369 0.0857 0.0997 0.1793l-0.313 0.7886c-0.0542 0.1368-0.116 0.1397-0.1856 0.0086l-0.167-0.3111c-0.0355-0.0691-0.0943-0.1051-0.1762-0.108-0.5033-0.0177-0.4199 1.4734-0.4153 1.8969 0.0016 0.0878 0.021 0.1455 0.1091 0.1728l0.3897 0.1189c0.0587 0.0187 0.102 0.0525 0.1298 0.1015l0.0348 0.0583c0.0232 0.0404 0.0101 0.0605-0.0394 0.0605l-1.8971 0.0022c-0.2226 0.0014-0.242-0.0562-0.058-0.1729l0.2783-0.175c0.065-0.0403 0.0528-0.0972 0.0528-0.1706 0-0.4229 0.0997-2.0057-0.2986-2.0892-0.0211-0.0044-0.0399-0.0154-0.0534-0.0311s-0.0208-0.0352-0.0208-0.0554c0-0.0201 0.0073-0.0396 0.0208-0.0553s0.0323-0.0267 0.0534-0.0311l1.0228-0.2139c0.119-0.0259 0.1816 0.018 0.1878 0.1318l0.0093 0.1966c0.0108 0.1743 0.0719 0.1916 0.1832 0.0519z" fill="rgb(254, 254, 253)"/>
<path d="m30.581 31.391c0.2721-0.3399 0.6231-0.458 1.0529-0.3543 0.1036 0.0259 0.1368 0.0857 0.0997 0.1793l-0.3131 0.7886c-0.0541 0.1368-0.1159 0.1397-0.1855 0.0086l-0.167-0.3111c-0.0356-0.0691-0.0943-0.1051-0.1763-0.108-0.5032-0.0177-0.4199 1.4734-0.4152 1.8969 0.0015 0.0878 0.021 0.1455 0.1091 0.1728l0.3896 0.1189c0.0588 0.0187 0.1021 0.0525 0.1299 0.1015l0.0348 0.0583c0.0232 0.0404 0.01 0.0605-0.0394 0.0605l-1.8971 0.0022c-0.2227 0.0014-0.242-0.0562-0.058-0.1729l0.2783-0.175c0.0649-0.0403 0.0528-0.0972 0.0528-0.1706 0-0.4229 0.0997-2.0057-0.2986-2.0892-0.0211-0.0044-0.0399-0.0154-0.0534-0.0311s-0.0209-0.0352-0.0209-0.0554c0-0.0201 0.0074-0.0396 0.0209-0.0553s0.0323-0.0267 0.0534-0.0311l1.0227-0.2139c0.1191-0.0259 0.1817 0.018 0.1879 0.1318l0.0093 0.1966c0.0108 0.1743 0.0718 0.1916 0.1832 0.0519z" fill="rgb(254, 254, 253)"/>
<path d="m23.148 31.412c1.9344-1.8119 3.4652 2.9649-0.0369 2.5392-0.1137-0.0128-0.1111 0.0335-0.1111 0.1391v0.6631c0 0.0827-0.0164 0.1348 0.0696 0.1562l0.4081 0.1048c0.1014 0.0257 0.1522 0.087 0.1522 0.184v0.169c0 0.0884-0.0484 0.1326-0.1453 0.1326l-1.7545-0.0021c-0.2106 0-0.2321-0.0592-0.0646-0.1776l0.2467-0.1754c0.0692-0.0485 0.0878-0.1141 0.0878-0.1968v-3.2452c0-0.1412-0.0709-0.2388-0.2491-0.293-0.0769-0.0243-0.103-0.0721-0.0784-0.1434 0.0507-0.1476 0.8853-0.2224 1.0674-0.2438 0.0923-0.0129 0.1507 0.0228 0.1753 0.1069l0.0668 0.2418c0.0292 0.1041 0.0846 0.1176 0.166 0.0406zm-0.148 0.353v1.6129c-0.0032 0.1645 0.0678 0.2417 0.2287 0.2417 0.2843 0.0045 0.5589-0.0984 0.7634-0.2862 0.2045-0.1877 0.3222-0.4449 0.3271-0.7149v-0.0513c0.0025-0.1338-0.0228-0.2667-0.0744-0.3911s-0.1285-0.238-0.2264-0.3341c-0.0978-0.0962-0.2147-0.1731-0.3438-0.2263-0.1292-0.0532-0.2682-0.0817-0.409-0.0839h-0.0553c-0.0336-6e-4 -0.067 5e-3 -0.0983 0.0164-0.0939 0.0343-0.1102 0.1232-0.112 0.2168z" fill="rgb(254, 254, 253)"/>
<path d="m28.662 32.5c0 0.3978-0.1586 0.7794-0.4409 1.0607s-0.6652 0.4393-1.0644 0.4393c-0.3993 0-0.7822-0.158-1.0645-0.4393s-0.4409-0.6629-0.4409-1.0607 0.1586-0.7794 0.4409-1.0607 0.6652-0.4393 1.0645-0.4393c0.3992 0 0.7821 0.158 1.0644 0.4393s0.4409 0.6629 0.4409 1.0607zm-1.4698 1.194c0.0766-0.0023 0.1515-0.0354 0.2205-0.0975s0.1307-0.1519 0.1815-0.2644c0.0509-0.1125 0.09-0.2454 0.115-0.3911s0.0354-0.3015 0.0307-0.4583c-0.0094-0.3166-0.0799-0.6185-0.1959-0.8392-0.1161-0.2207-0.2682-0.3421-0.4229-0.3375-0.0766 0.0023-0.1515 0.0354-0.2205 0.0975s-0.1307 0.1519-0.1815 0.2644c-0.0509 0.1125-0.0899 0.2454-0.1149 0.3911s-0.0355 0.3015-0.0308 0.4583c0.0094 0.3166 0.0799 0.6185 0.196 0.8392 0.116 0.2207 0.2681 0.3421 0.4228 0.3375z" fill="rgb(254, 254, 253)"/>
<path d="m42.704 32.505c0 0.3978-0.1584 0.7793-0.4403 1.0606s-0.6643 0.4394-1.063 0.4394c-0.1974 0-0.3929-0.0388-0.5753-0.1142-0.1823-0.0754-0.3481-0.1859-0.4877-0.3252-0.1395-0.1392-0.2503-0.3046-0.3258-0.4866-0.0756-0.182-0.1144-0.377-0.1144-0.574s0.0388-0.3921 0.1144-0.574c0.0755-0.182 0.1863-0.3474 0.3258-0.4867 0.1396-0.1393 0.3054-0.2498 0.4877-0.3251 0.1824-0.0754 0.3779-0.1142 0.5753-0.1142 0.3987 0 0.7811 0.158 1.063 0.4393s0.4403 0.6629 0.4403 1.0607zm-1.4652 1.2062c0.0766-0.0023 0.1516-0.0358 0.2205-0.0987 0.069-0.063 0.1306-0.154 0.1814-0.268 0.0509-0.114 0.0899-0.2488 0.1148-0.3965s0.0353-0.3056 0.0306-0.4645c-0.0047-0.159-0.0245-0.3159-0.0582-0.4619-0.0336-0.146-0.0806-0.2782-0.1381-0.389s-0.1244-0.198-0.197-0.2568c-0.0726-0.0587-0.1494-0.0877-0.226-0.0855-0.0766 0.0023-0.1515 0.0358-0.2205 0.0988-0.0689 0.0629-0.1306 0.154-0.1814 0.268s-0.0898 0.2487-0.1147 0.3964c-0.025 0.1477-0.0354 0.3056-0.0307 0.4645 0.0048 0.159 0.0245 0.316 0.0582 0.4619 0.0337 0.146 0.0806 0.2782 0.1381 0.389s0.1245 0.198 0.1971 0.2568c0.0726 0.0587 0.1493 0.0878 0.2259 0.0855z" fill="rgb(254, 254, 253)"/>
</svg>
