<?xml version="1.0" encoding="UTF-8"?>
<!-- generated by Finnhub -->
<svg viewBox="0 0 55.5 55.5" xmlns="http://www.w3.org/2000/svg">
<path d="M 0,0 H 55.5 V 55.5 H 0 Z" fill="rgb(239, 242, 248)"/>
<path d="M 32.03,15.295 C 32.09,15.32 32.08,15.33 32.04,15.33 H 31.92 C 31.52,15.33 31.08,15.33 30.62,15.31 C 29.05,15.24 27.52,15.01 26.06,14.55 A 14.7,14.7 0 0,1 21.46,12.2 C 21.6,12.8 21.94,13.28 22.41,13.66 C 22.58,13.81 22.77,13.96 22.97,14.1 A 24.93,24.93 0 0,0 28.38,16.9 L 29.37,17.31 C 30.35,17.71 31.4,18.15 32.43,18.42 C 32.93,18.56 33.39,18.67 33.81,18.75 L 35.7,19.14 C 36.3,19.26 36.88,19.41 37.44,19.59 A 13.89,13.89 0 0,1 39.46,20.37 A 10.91,10.91 0 0,0 43.96,21.04 C 44.23,21 44.47,20.88 44.67,20.69 C 45.07,20.31 45.11,19.69 44.77,19.28 C 44.61,19.08 44.37,18.94 44.1,18.9 A 1.35,1.35 0 0,0 43.64,18.89 L 42.98,18.99 C 42.54,19.07 42.1,19.11 41.68,19.12 A 3.86,3.86 0 0,1 40.1,18.86 A 2.9,2.9 0 0,1 39.47,18.49 L 39.44,18.47 C 39.37,18.41 39.3,18.36 39.24,18.29 C 39.18,18.23 39.17,18.16 39.21,18.09 C 39.25,18.02 39.31,17.95 39.37,17.89 C 39.87,17.37 40.52,16.54 40.07,15.8 C 39.78,15.35 39.22,15.12 38.73,14.95 A 21.74,21.74 0 0,0 34.33,14.02 A 124.83,124.83 0 0,0 32.36,13.91 C 31.88,13.86 31.38,13.78 30.86,13.67 A 7.98,7.98 0 0,1 28.28,12.65 A 5.5,5.5 0 0,1 26.43,10.72 A 11.95,11.95 0 0,1 26.04,10.01 C 25.87,10.97 26,11.95 26.59,12.76 C 26.99,13.32 27.58,13.78 28.21,14.12 C 28.96,14.52 29.81,14.79 30.66,15 L 32.04,15.31 Z M 34.73,16.91 C 35.55,16.39 36.68,16.57 37.16,17.46 C 37.26,17.63 37.21,17.76 37.02,17.83 C 36.92,17.87 36.8,17.9 36.68,17.92 A 2.2,2.2 0 0,1 35.98,17.88 A 2.58,2.58 0 0,1 34.75,17.34 A 0.66,0.66 0 0,1 34.6,17.18 C 34.53,17.06 34.64,16.97 34.73,16.91 Z M 11,28.18 V 28.86 C 11,28.93 11.04,28.97 11.1,28.98 C 11.11,28.98 11.12,28.98 11.12,28.96 L 11.42,27.78 C 11.52,27.39 11.67,26.95 11.86,26.45 C 12.09,25.85 12.43,25.27 12.92,24.85 A 0.9,0.9 0 0,1 13.41,24.61 C 13.78,24.58 14.03,24.85 14.11,25.19 C 14.2,25.56 14.18,25.93 14.08,26.3 L 13.98,26.72 C 13.62,28.37 13.58,30.07 13.83,31.73 A 17.52,17.52 0 0,0 16.99,39.34 C 16.77,38.46 16.57,37.54 16.39,36.61 C 16.09,34.97 15.89,33.33 15.91,31.67 C 15.92,30.92 15.98,30.15 16.09,29.35 C 16.25,28.25 16.52,27.22 16.91,26.25 C 17.51,24.77 18.41,23.49 19.59,22.42 C 20.31,21.76 21.11,21.19 21.99,20.7 A 16.5,16.5 0 0,1 25.33,19.33 C 26.29,19.05 27.28,18.83 28.28,18.65 A 140.5,140.5 0 0,1 29.9,18.37 L 28.26,17.49 C 26.87,16.72 25.46,15.99 23.96,15.52 A 5.92,5.92 0 0,0 20.13,15.37 C 19.18,15.72 18.25,16.11 17.31,16.5 A 223.95,223.95 0 0,1 16.49,16.86 C 16.96,17.14 17.49,17.38 18.04,17.42 C 18.53,17.47 18.99,17.36 19.43,17.09 L 19.56,17.01 L 19.85,16.84 C 20.27,16.64 20.74,16.58 21.21,16.65 C 21.49,16.7 21.73,16.85 21.73,17.15 C 21.73,17.28 21.67,17.41 21.6,17.52 C 21.36,17.91 21.01,18.14 20.56,18.22 C 20.39,18.24 20.23,18.25 20.09,18.24 L 18.86,18.18 A 28.7,28.7 0 0,0 16.69,18.22 A 5.3,5.3 0 0,0 13.83,19.32 A 4.58,4.58 0 0,0 12.83,20.37 C 13.83,20.05 14.9,19.79 15.95,19.94 C 16.36,20 16.7,20.17 16.86,20.57 C 16.92,20.72 16.95,20.87 16.8,20.98 A 0.49,0.49 0 0,1 16.66,21.06 C 15.89,21.31 15.12,21.62 14.35,22 C 13.69,22.33 13.06,22.8 12.61,23.38 A 7.97,7.97 0 0,0 11,28.18 Z M 31.2,43 H 29.85 L 29.55,42.97 C 28.69,42.9 27.85,42.74 27.04,42.47 A 14.39,14.39 0 0,1 22.82,40.25 A 0.6,0.6 0 0,0 22.78,40.2 H 22.79 C 23.55,40.44 24.33,40.64 25.13,40.8 C 26.23,41 27.31,41.1 28.39,41.1 C 29.49,41.08 30.57,40.96 31.62,40.7 C 33.28,40.27 34.78,39.49 36.02,38.36 C 37.2,37.28 38.02,35.96 38.49,34.41 C 38.65,33.89 38.76,33.35 38.84,32.79 C 39.06,31.08 39,29.34 38.32,27.79 A 9.06,9.06 0 0,0 33.59,22.99 A 12.71,12.71 0 0,0 28.17,21.82 A 14.2,14.2 0 0,0 23.23,22.82 L 23.15,22.85 C 23,22.91 22.84,22.97 22.68,22.99 C 22.66,22.99 22.66,22.99 22.68,22.98 C 23.01,22.63 23.38,22.35 23.77,22.08 C 24.59,21.55 25.43,21.11 26.29,20.76 A 12.1,12.1 0 0,1 31.19,19.87 C 32.31,19.91 33.41,20.08 34.49,20.39 A 14.7,14.7 0 0,1 39.29,22.67 L 39.66,22.91 C 39.89,23.01 40.17,23.04 40.43,23.01 C 40.68,22.98 40.83,22.81 40.88,22.57 C 40.92,22.39 40.78,22.33 40.62,22.34 H 40.37 C 40.13,22.34 39.84,22.24 39.7,22.05 C 39.47,21.73 39.7,21.42 40,21.25 C 40.32,21.08 40.7,21.07 41.05,21.2 C 41.58,21.4 42.01,21.9 42.17,22.45 C 42.3,22.91 42.22,23.43 41.95,23.82 C 41.68,24.22 41.18,24.36 40.71,24.39 A 100.68,100.68 0 0,0 40.33,24.42 A 273.1,273.1 0 0,1 41.07,26.02 C 41.71,27.53 42.15,29.13 42.27,30.75 C 42.37,32.24 42.19,33.67 41.73,35.04 C 41.38,36.06 40.93,37.03 40.34,37.94 A 10.6,10.6 0 0,1 34.72,42.3 C 33.58,42.69 32.4,42.92 31.19,43 Z M 33.46,31.24 A 7.65,7.65 0 0,1 29.82,28.06 A 9.73,9.73 0 0,1 29.11,26.65 A 8.57,8.57 0 0,1 27.54,29.25 A 7.12,7.12 0 0,1 24.62,31.22 C 25.26,31.52 25.9,31.82 26.48,32.18 A 5.04,5.04 0 0,1 28.11,33.8 A 19.97,19.97 0 0,1 29.14,35.61 A 7.3,7.3 0 0,1 31.31,32.47 A 7.55,7.55 0 0,1 33.46,31.24 Z" fill="rgb(228, 120, 21)"/>
</svg>
