<?xml version="1.0" encoding="UTF-8"?>
<!-- generated by Finnhub -->
<svg viewBox="0 0 55.5 55.5" xmlns="http://www.w3.org/2000/svg">
<path d="M 0,0 H 55.5 V 55.5 H 0 Z" fill="rgb(239, 242, 248)"/>
<path d="M 41.99,28.965 A 4.92,4.92 0 0,1 36.48,33.92 C 35.15,33.73 33.64,33.77 32.7,34.76 L 32.33,35.14 C 31.37,36.15 31.39,37.75 31.63,39.14 A 4.92,4.92 0 0,1 26.86,45 A 4.92,4.92 0 0,1 22,40.02 A 4.92,4.92 0 0,1 27.4,35.07 C 28.69,35.22 30.13,35.14 31.04,34.19 L 31.61,33.59 C 32.53,32.62 32.55,31.09 32.34,29.74 A 4.92,4.92 0 0,1 37.14,24 A 4.92,4.92 0 0,1 42,28.98 Z" fill="url(#a)"/>
<path d="M 17.79,17.985 A 3.84,3.84 0 0,1 21.55,22.41 C 21.41,23.48 21.45,24.69 22.2,25.44 L 22.49,25.74 C 23.26,26.5 24.48,26.48 25.54,26.29 A 3.84,3.84 0 0,1 30,30.11 C 30,32.26 28.3,34 26.2,34 A 3.84,3.84 0 0,1 22.43,29.68 C 22.55,28.65 22.49,27.49 21.76,26.77 L 21.31,26.32 C 20.56,25.57 19.41,25.56 18.37,25.72 A 3.84,3.84 0 0,1 14,21.88 C 14,19.74 15.7,18 17.8,18 Z" fill="url(#b)"/>
<path d="M 36.99,14.305 A 3.36,3.36 0 0,1 33.14,17.61 C 32.2,17.49 31.14,17.51 30.49,18.17 L 30.23,18.43 C 29.56,19.1 29.58,20.17 29.75,21.09 A 3.36,3.36 0 0,1 26.4,25 A 3.36,3.36 0 0,1 23,21.69 A 3.36,3.36 0 0,1 26.78,18.39 C 27.68,18.49 28.69,18.44 29.33,17.8 L 29.73,17.4 C 30.37,16.75 30.38,15.74 30.24,14.84 A 3.36,3.36 0 0,1 33.6,11 C 35.48,11 37,12.49 37,14.32 Z" fill="url(#c)"/>
<defs>
<linearGradient id="a" x1="24.97" x2="33.56" y1="31.67" y2="38.35" gradientUnits="userSpaceOnUse">
<stop stop-color="rgb(1, 75, 103)" offset="0"/>
<stop stop-color="rgb(1, 52, 70)" offset="1"/>
</linearGradient>
<linearGradient id="b" x1="23.91" x2="19.24" y1="23.04" y2="27.82" gradientUnits="userSpaceOnUse">
<stop stop-color="rgb(1, 123, 184)" offset="0"/>
<stop stop-color="rgb(1, 84, 144)" offset="1"/>
<stop stop-color="rgb(101, 101, 100)" offset="1"/>
</linearGradient>
<linearGradient id="c" x1="26.8" x2="31.29" y1="16.15" y2="20.85" gradientUnits="userSpaceOnUse">
<stop stop-color="rgb(120, 200, 226)" offset=".19"/>
<stop stop-color="rgb(84, 172, 210)" offset=".84"/>
</linearGradient>
</defs>
</svg>
