<?xml version="1.0" encoding="UTF-8"?>
<!-- generated by Finnhub -->
<svg viewBox="0 0 55.5 55.5" xmlns="http://www.w3.org/2000/svg">
<path d="M 0,0 H 55.5 V 55.5 H 0 Z" fill="rgb(23, 26, 28)"/>
<path d="M 16.209999999999997,23.985 V 24.11 C 16.02,24.13 15.96,24.15 15.96,24.29 V 24.36 L 15.99,24.43 L 16.47,25.95 H 16.5 L 16.98,24.68 L 16.92,24.48 A 1.7,1.7 0 0,0 16.83,24.26 C 16.77,24.16 16.73,24.12 16.53,24.11 V 24 H 17.83 V 24.11 C 17.59,24.13 17.53,24.14 17.53,24.26 L 17.54,24.35 L 17.59,24.51 L 18.02,25.91 H 18.05 L 18.5,24.48 A 0.7,0.7 0 0,0 18.53,24.3 C 18.53,24.13 18.38,24.12 18.24,24.11 V 24 H 19 V 24.11 C 18.84,24.13 18.76,24.24 18.71,24.39 L 17.88,27 H 17.77 L 17.07,24.97 H 17.04 L 16.28,27 H 16.17 L 15.29,24.39 C 15.21,24.16 15.16,24.13 15,24.11 V 24 H 16.22 Z M 29,26 H 29.12 C 29.19,26.32 29.3,26.5 29.45,26.64 C 29.6,26.78 29.78,26.86 29.97,26.86 C 30.25,26.86 30.5,26.7 30.5,26.4 C 30.5,26.11 30.3,25.9 30.08,25.78 L 29.81,25.65 C 29.44,25.46 29,25.31 29,24.85 C 29,24.35 29.43,24.01 29.92,24.01 C 30.08,24.01 30.22,24.03 30.37,24.08 L 30.61,24.15 C 30.71,24.15 30.74,24.09 30.76,24.01 H 30.88 V 24.92 H 30.76 C 30.66,24.54 30.38,24.14 29.96,24.14 C 29.67,24.14 29.46,24.31 29.46,24.54 C 29.46,24.84 29.81,25.08 30.06,25.2 L 30.36,25.35 C 30.76,25.55 31,25.76 31,26.11 C 31,26.69 30.47,27 29.95,27 C 29.75,27 29.55,26.95 29.35,26.87 C 29.3,26.86 29.2,26.83 29.16,26.89 A 0.37,0.37 0 0,0 29.12,27 H 29 V 26 Z M 5.74,31.89 C 5.82,31.89 5.88,31.87 5.91,31.84 C 5.97,31.8 6,31.71 6,31.58 V 29.43 C 6,29.3 5.97,29.21 5.92,29.16 C 5.88,29.14 5.82,29.12 5.74,29.11 V 29 H 6.77 V 29.11 C 6.67,29.11 6.62,29.13 6.58,29.16 C 6.53,29.21 6.5,29.29 6.5,29.43 V 31.58 C 6.5,31.7 6.52,31.78 6.57,31.82 C 6.61,31.87 6.67,31.89 6.77,31.89 V 32 H 5.74 V 31.89 Z M 32,24 H 34 V 24.9 H 33.9 C 33.87,24.58 33.78,24.36 33.64,24.25 A 0.66,0.66 0 0,0 33.26,24.15 V 26.48 C 33.26,26.65 33.29,26.75 33.33,26.81 C 33.37,26.86 33.46,26.89 33.59,26.89 V 27 H 32.41 V 26.89 C 32.54,26.89 32.63,26.86 32.67,26.81 C 32.71,26.75 32.74,26.64 32.74,26.48 V 24.15 A 0.67,0.67 0 0,0 32.36,24.25 C 32.21,24.36 32.12,24.58 32.1,24.9 H 32 V 24 Z M 8,31.81 C 8.16,31.81 8.27,31.78 8.31,31.71 C 8.36,31.66 8.38,31.58 8.38,31.47 V 29.42 A 3.73,3.73 0 0,0 8.14,29.16 A 0.24,0.24 0 0,0 8.01,29.11 V 29 H 8.94 L 10.44,30.82 H 10.46 V 29.54 C 10.46,29.39 10.44,29.29 10.38,29.22 C 10.33,29.16 10.22,29.12 10.06,29.11 V 29 H 11 V 29.11 A 0.64,0.64 0 0,0 10.72,29.2 C 10.68,29.24 10.66,29.32 10.66,29.46 V 32 H 10.53 L 8.61,29.69 H 8.58 V 31.39 C 8.58,31.52 8.6,31.61 8.63,31.67 C 8.69,31.76 8.81,31.8 8.99,31.81 V 31.92 H 8 V 31.81 Z M 12.27,29 H 14.23 V 29.9 H 14.14 C 14.11,29.58 14.02,29.36 13.87,29.25 A 0.66,0.66 0 0,0 13.5,29.15 V 31.48 C 13.5,31.65 13.52,31.75 13.56,31.81 C 13.61,31.86 13.69,31.89 13.83,31.89 V 32 H 12.68 V 31.89 C 12.81,31.89 12.89,31.86 12.94,31.81 C 12.98,31.75 13,31.64 13,31.48 V 29.15 A 0.67,0.67 0 0,0 12.63,29.25 C 12.47,29.36 12.38,29.58 12.36,29.9 H 12.26 V 29 Z M 15.72,32 V 31.89 C 15.81,31.89 15.87,31.87 15.92,31.84 C 15.97,31.79 16,31.7 16,31.58 V 29.43 C 16,29.3 15.97,29.21 15.9,29.16 C 15.87,29.14 15.8,29.12 15.72,29.11 V 29 H 17.54 V 29.9 H 17.47 C 17.43,29.6 17.36,29.41 17.26,29.3 C 17.16,29.2 16.98,29.15 16.73,29.15 C 16.63,29.15 16.57,29.16 16.53,29.19 C 16.51,29.22 16.5,29.28 16.5,29.36 V 30.39 C 16.68,30.39 16.8,30.34 16.87,30.25 C 16.94,30.15 16.98,29.98 17.02,29.73 H 17.1 V 31.23 H 17.02 A 1.18,1.18 0 0,0 16.88,30.7 C 16.81,30.6 16.68,30.54 16.5,30.54 V 31.62 C 16.5,31.71 16.52,31.77 16.55,31.81 C 16.59,31.84 16.65,31.86 16.77,31.86 C 16.97,31.86 17.14,31.8 17.27,31.69 C 17.4,31.59 17.51,31.38 17.61,31.08 H 17.7 L 17.57,32 H 15.72 Z M 19.72,27 V 26.89 C 19.81,26.89 19.87,26.87 19.92,26.84 C 19.97,26.79 20,26.7 20,26.58 V 24.43 C 20,24.3 19.97,24.21 19.9,24.16 C 19.87,24.14 19.8,24.12 19.72,24.11 V 24 H 21.54 V 24.9 H 21.47 C 21.42,24.6 21.36,24.41 21.26,24.3 C 21.16,24.2 20.98,24.15 20.73,24.15 C 20.63,24.15 20.57,24.16 20.53,24.19 C 20.51,24.22 20.5,24.28 20.5,24.36 V 25.39 C 20.68,25.39 20.8,25.34 20.87,25.25 C 20.93,25.15 20.98,24.98 21.02,24.73 H 21.1 V 26.23 H 21.02 A 1.18,1.18 0 0,0 20.88,25.7 C 20.81,25.6 20.68,25.54 20.5,25.54 V 26.62 C 20.5,26.71 20.52,26.77 20.55,26.81 C 20.59,26.84 20.65,26.86 20.77,26.86 C 20.97,26.86 21.14,26.8 21.27,26.69 C 21.4,26.59 21.51,26.38 21.61,26.08 H 21.7 L 21.57,27 H 19.72 Z M 19.12,31.89 C 19.26,31.88 19.37,31.85 19.42,31.8 C 19.47,31.75 19.5,31.65 19.5,31.48 V 29.52 C 19.5,29.35 19.47,29.24 19.4,29.18 C 19.36,29.15 19.27,29.13 19.12,29.11 V 29 H 20.32 C 20.82,29 21.54,29.12 21.54,29.77 C 21.54,30.17 21.24,30.47 20.86,30.54 L 21.73,31.8 C 21.76,31.84 21.78,31.86 21.81,31.87 L 21.91,31.89 V 32 H 21.15 L 20.25,30.61 H 20 V 31.48 C 20,31.64 20.03,31.74 20.08,31.8 C 20.13,31.85 20.23,31.88 20.38,31.89 V 32 H 19.12 V 31.89 Z M 20,30.47 C 20.49,30.47 21,30.31 21,29.77 C 21,29.31 20.62,29.15 20.28,29.15 C 20.17,29.15 20.09,29.16 20.05,29.2 C 20.02,29.22 20,29.27 20,29.34 V 30.47 Z M 39.12,26.89 C 39.26,26.88 39.37,26.85 39.42,26.8 C 39.47,26.75 39.5,26.65 39.5,26.48 V 24.52 C 39.5,24.35 39.47,24.24 39.4,24.18 C 39.36,24.15 39.27,24.13 39.12,24.11 V 24 H 40.32 C 40.82,24 41.54,24.12 41.54,24.77 C 41.54,25.17 41.24,25.47 40.86,25.54 L 41.82,26.8 C 41.85,26.84 41.87,26.86 41.9,26.87 L 42,26.89 V 27 H 41.15 L 40.25,25.61 H 40 V 26.48 C 40,26.64 40.03,26.74 40.08,26.8 C 40.13,26.85 40.23,26.88 40.38,26.89 V 27 H 39.12 V 26.89 Z M 40,25.47 C 40.49,25.47 41,25.31 41,24.77 C 41,24.31 40.62,24.15 40.28,24.15 C 40.17,24.15 40.09,24.16 40.05,24.2 C 40.02,24.22 40,24.27 40,24.34 V 25.47 Z M 23,31.89 C 23.16,31.89 23.27,31.86 23.31,31.8 C 23.36,31.74 23.38,31.66 23.38,31.55 V 29.42 A 3.72,3.72 0 0,0 23.14,29.16 A 0.24,0.24 0 0,0 23.01,29.11 V 29 H 23.76 L 25.46,31.05 V 29.54 C 25.46,29.39 25.44,29.29 25.38,29.22 C 25.33,29.16 25.22,29.12 25.06,29.11 V 29 H 26 V 29.11 A 0.64,0.64 0 0,0 25.72,29.2 C 25.68,29.24 25.66,29.32 25.66,29.46 V 32 H 25.53 L 23.58,29.69 V 31.47 C 23.58,31.6 23.6,31.69 23.63,31.75 C 23.69,31.84 23.81,31.88 23.99,31.89 V 32 H 23 V 31.89 Z M 40,31.89 C 40.16,31.89 40.27,31.86 40.31,31.8 C 40.36,31.74 40.38,31.66 40.38,31.55 V 29.42 A 3.72,3.72 0 0,0 40.14,29.16 A 0.24,0.24 0 0,0 40.01,29.11 V 29 H 40.76 L 42.46,31.05 V 29.54 C 42.46,29.39 42.44,29.29 42.38,29.22 C 42.33,29.16 42.22,29.12 42.06,29.11 V 29 H 43 V 29.11 A 0.64,0.64 0 0,0 42.72,29.2 C 42.68,29.24 42.66,29.32 42.66,29.46 V 32 H 42.53 L 40.58,29.69 V 31.47 C 40.58,31.6 40.6,31.69 40.63,31.75 C 40.69,31.84 40.81,31.88 40.99,31.89 V 32 H 40 V 31.89 Z M 28.65,31 L 28.25,29.86 L 27.8,31 H 28.65 Z M 27,31.89 C 27.26,31.87 27.35,31.59 27.43,31.39 L 28.41,29 H 28.54 L 29.52,31.29 C 29.61,31.49 29.72,31.89 30,31.89 V 32 H 28.57 V 31.89 C 28.87,31.88 28.92,31.86 28.92,31.71 A 0.95,0.95 0 0,0 28.83,31.41 L 28.72,31.17 H 27.73 L 27.6,31.48 C 27.5,31.78 27.59,31.88 27.9,31.89 V 32 H 27 V 31.89 Z M 45.65,31 L 45.25,29.86 L 44.8,31 H 45.65 Z M 44,31.89 C 44.26,31.87 44.35,31.59 44.43,31.39 L 45.41,29 H 45.54 L 46.52,31.29 C 46.61,31.49 46.72,31.89 47,31.89 V 32 H 45.57 V 31.89 C 45.87,31.88 45.92,31.86 45.92,31.71 A 0.95,0.95 0 0,0 45.83,31.41 L 45.72,31.17 H 44.73 C 44.67,31.34 44.63,31.43 44.6,31.48 C 44.5,31.78 44.59,31.88 44.9,31.89 V 32 H 44 V 31.89 Z M 36.65,26 L 36.25,24.86 L 35.8,26 H 36.65 Z M 35,26.89 C 35.26,26.87 35.35,26.59 35.43,26.39 L 36.41,24 H 36.54 L 37.52,26.29 C 37.61,26.49 37.72,26.89 38,26.89 V 27 H 36.57 V 26.89 C 36.87,26.88 36.92,26.86 36.92,26.71 A 0.95,0.95 0 0,0 36.83,26.41 L 36.72,26.17 H 35.73 C 35.67,26.34 35.63,26.43 35.6,26.48 C 35.5,26.78 35.59,26.88 35.9,26.89 V 27 H 35 V 26.89 Z M 30.27,29 H 32.23 V 29.9 H 32.14 C 32.11,29.58 32.02,29.36 31.87,29.25 A 0.66,0.66 0 0,0 31.5,29.15 V 31.48 C 31.5,31.65 31.52,31.75 31.56,31.81 C 31.61,31.86 31.69,31.89 31.83,31.89 V 32 H 30.68 V 31.89 C 30.81,31.89 30.89,31.86 30.94,31.81 C 30.98,31.75 31,31.64 31,31.48 V 29.15 A 0.67,0.67 0 0,0 30.63,29.25 C 30.47,29.36 30.38,29.58 30.36,29.9 H 30.26 V 29 Z M 33.74,31.89 C 33.82,31.89 33.88,31.87 33.91,31.84 C 33.97,31.8 34,31.71 34,31.58 V 29.43 C 34,29.3 33.97,29.21 33.92,29.16 C 33.88,29.14 33.82,29.12 33.74,29.11 V 29 H 34.77 V 29.11 C 34.67,29.11 34.62,29.13 34.58,29.16 C 34.53,29.21 34.5,29.29 34.5,29.43 V 31.58 C 34.5,31.7 34.52,31.78 34.57,31.82 C 34.61,31.87 34.67,31.89 34.77,31.89 V 32 H 33.74 V 31.89 Z M 37.5,31.86 C 37.99,31.86 38.5,31.43 38.5,30.5 C 38.5,29.6 37.96,29.14 37.5,29.14 C 37.01,29.14 36.5,29.57 36.5,30.5 C 36.5,31 36.82,31.86 37.5,31.86 Z M 37.5,29 C 38.35,29 39,29.65 39,30.5 S 38.35,32 37.5,32 C 36.67,32 36,31.36 36,30.52 C 36,29.66 36.64,29 37.5,29 Z M 47.71,31.89 C 47.81,31.89 47.87,31.87 47.91,31.84 C 47.97,31.79 48,31.71 48,31.58 V 29.43 C 48,29.3 47.97,29.21 47.9,29.16 C 47.87,29.14 47.8,29.12 47.71,29.11 V 29 H 48.83 V 29.11 C 48.7,29.11 48.61,29.14 48.56,29.19 C 48.52,29.23 48.5,29.34 48.5,29.52 V 31.62 C 48.5,31.72 48.52,31.78 48.56,31.82 C 48.59,31.84 48.66,31.86 48.77,31.86 C 49.05,31.86 49.28,31.43 49.41,31 H 49.5 L 49.37,32 H 47.7 V 31.89 Z M 23.21,26.89 C 23.31,26.89 23.37,26.87 23.41,26.84 C 23.47,26.79 23.5,26.71 23.5,26.58 V 24.43 C 23.5,24.3 23.47,24.21 23.4,24.16 C 23.37,24.14 23.3,24.12 23.21,24.11 V 24 H 24.33 V 24.11 C 24.2,24.11 24.11,24.14 24.06,24.19 C 24.02,24.23 24,24.34 24,24.52 V 26.62 C 24,26.72 24.02,26.78 24.06,26.82 C 24.09,26.84 24.16,26.86 24.27,26.86 C 24.55,26.86 24.78,26.43 24.91,26 H 25 L 24.87,27 H 23.2 V 26.89 Z M 26.21,26.89 C 26.31,26.89 26.37,26.87 26.41,26.84 C 26.47,26.79 26.5,26.71 26.5,26.58 V 24.43 C 26.5,24.3 26.47,24.21 26.4,24.16 C 26.37,24.14 26.3,24.12 26.21,24.11 V 24 H 27.33 V 24.11 C 27.2,24.11 27.11,24.14 27.06,24.19 C 27.02,24.23 27,24.34 27,24.52 V 26.62 C 27,26.72 27.02,26.78 27.06,26.82 C 27.09,26.84 27.16,26.86 27.27,26.86 C 27.55,26.86 27.78,26.43 27.91,26 H 28 L 27.87,27 H 26.2 V 26.89 Z" fill="rgb(254, 254, 253)"/>
</svg>
