<?xml version="1.0" encoding="UTF-8"?>
<!-- generated by Finnhub -->
<svg viewBox="0 0 55.5 55.5" xmlns="http://www.w3.org/2000/svg">
<path d="M 0,0 H 55.5 V 55.5 H 0 Z" fill="rgb(239, 242, 248)"/>
<path d="M 25.99,36.185 C 26,34.98 26.9,34 28,34 S 30,34.98 30,36.2 V 43.8 C 30,45.02 29.1,46 28,46 S 26,45.02 26,43.8 V 36.2 Z" fill="rgb(152, 181, 204)"/>
<path d="M 33.07,33.125 A 2.25,2.25 0 0,1 32.29,30.11 A 2.13,2.13 0 0,1 35.24,29.3 L 42.92,33.86 A 2.25,2.25 0 0,1 43.71,36.89 A 2.13,2.13 0 0,1 40.76,37.7 L 33.08,33.14 Z M 13.1,22.01 A 2.12,2.12 0 0,1 12.3,19.08 A 2.24,2.24 0 0,1 15.31,18.28 L 21.9,21.98 C 22.95,22.58 23.31,23.9 22.7,24.92 A 2.24,2.24 0 0,1 19.69,25.72 L 13.1,22.02 Z" fill="rgb(247, 226, 1)"/>
<path d="M 42.89,21.995 C 43.95,21.41 44.31,20.11 43.7,19.08 A 2.24,2.24 0 0,0 40.69,18.28 L 34.1,21.98 A 2.12,2.12 0 0,0 33.3,24.92 A 2.24,2.24 0 0,0 36.31,25.72 L 42.9,22.02 Z M 27.93,10 C 29.07,10 30,10.94 30,12.1 V 26.84 C 30,27.58 29.63,28.25 29.01,28.64 L 16.16,36.69 C 15.19,37.29 13.91,36.99 13.31,35.99 C 12.71,35.01 13.01,33.71 13.99,33.1 L 26,25.67 V 12.1 C 26,10.93 26.78,9.99 27.93,9.99 Z" fill="rgb(152, 181, 204)"/>
</svg>
