<!-- by Finnhub --><svg width="56" height="56" viewBox="0 0 56 56" xmlns="http://www.w3.org/2000/svg"><path fill="#F0F3FA" d="M0 0h56v56H0z"/><path fill-rule="evenodd" d="M17.25 34.7 15 32.14c1-1.32 3.2-4.38 4-6.06.5-1.04.63-1.86.75-2.67.13-.82.25-1.64.75-2.68a8.34 8.34 0 0 1 3-3.26v.93h1l.25.93 3.75-1.4.25.93 4-1.86.5 1.4 7.75-.47c-1 2.42.92 5.51 2 6.76h-1l.75 3.96-1.75.46.5 2.8a4.73 4.73 0 0 0-2.5 2.56l1.25 1.86-4.75 1.4-.25 2.33L30 37.35v1.56l-3-1.65c-1.17 1.32-4 3.92-6 3.73-2-.19-3-2.56-3.25-3.73h1.5L19 34.93l-1.75-.23ZM20 26.32l.5-2.1c-.2-2.24 1.58-4.66 2.5-5.59l.75.47 1 1.16 3-1.16.75.7 2.5-.94v.94h3l-.25 1.4c1.08-.7 3.65-1.54 5.25.7 1.6 2.23-.67 4.03-2 4.65h3l.75 1.4-1.25.23.06 2.39h-4.5l.44 2.04-5.25-3.27 1.75.24-2.5-3.26-.75.7-3.5-2.57-1.5 2.1-2-1.86L20 26.32Zm-1.25 6.05c-.6-.56-1.92-.7-2.5-.7l.5-.7c1.8.38 2.25.78 2.25.94l1-.56-.5 1.72-.75-.7Zm3.75-.46c.25.23.9.7 1.5.7.41 0 .6-.15.77-.27.13-.1.26-.2.48-.2.19 0 .45.1.74.21.48.18 1.04.4 1.51.26.27-.09.41-.17.55-.26.25-.15.5-.3 1.45-.44 1.2-.19-.67-1.32-1.75-1.87.33.44.85 1.31.25 1.31-.38 0-.5.08-.63.16-.12.08-.25.16-.62.16-.33 0-.52-.08-.7-.16-.24-.1-.5-.2-1.05-.16-.4.04-.56.13-.73.23-.26.16-.56.33-1.77.33ZM20 37.73l-.5-2.56c2.4-1.68 5.5-1.48 6.75-1.17-1.42 1.4-4.4 4.29-5 4.66-.6.37-1.08-.46-1.25-.93Zm-1.25.47c.25.77 1.1 2.23 2.5 1.86 1.4-.37 4.5-3.26 5.75-4.66v-.93c-1.08 1.47-4.05 4.47-6.25 4.66-.33 0-1.05-.24-1.25-1.17l-.75.24Zm3.75-11.65c-.8-.19-1.17 1.79-1.25 2.8.17-.4.7-1.17 1.5-1.17s1 .93 1 1.4c1.4-1.42 2.08-1.22 2.25-.93-.6 0-1.08.93-1.25 1.4l3-.7v-1.4h-1.5c.42-.31 1.1-1.03.5-1.4-.4-.24-.65-.1-.87.01-.2.12-.39.21-.63-.01-.4-.37-1 .62-1.25 1.16a2.5 2.5 0 0 0-1.5-1.16Zm11.66-2.26c.57-.4 1.8-1 2.2-.24.39.76-.82 1.27-1.47 1.43l.24.71c1.39-.08 3.87-.86 2.7-3.33-1.18-2.48-2.94-.72-3.67.47v.96Z" fill="#634F30"/><path d="M14.21 16.18c-9.57 7.08-.7 21.05 5.64 26.82-10.63-11.31-7.42-21.56-3.7-25.02C28 9.9 46.64 23.6 52 30.68c-6.18-10.16-24.97-24-37.79-14.5Z" fill="#005333"/><circle cx="11.5" cy="25.5" r="3.5" fill="url(#acwqzyoag)"/><defs><linearGradient id="acwqzyoag" x1="10.5" y1="22.5" x2="12.75" y2="28.5" gradientUnits="userSpaceOnUse"><stop stop-color="#F3F1EE"/><stop offset="1" stop-color="#604C2C"/></linearGradient></defs></svg>