<?xml version="1.0" encoding="UTF-8"?>
<!-- generated by Finnhub -->
<svg viewBox="0 0 55.5 55.5" xmlns="http://www.w3.org/2000/svg">
<path d="M 0,0 H 55.5 V 55.5 H 0 Z" fill="rgb(1, 104, 253)"/>
<path d="M 12.99,36.985 C 11,37 9,35.78 9,33.34 V 19 H 17 V 33.34 C 17,35.78 15,37 13,37 Z M 23,37 C 21,37 19,35.78 19,33.34 V 19 H 27 V 33.34 C 27,35.78 25,37 23,37 Z M 32.65,27 H 47 V 19 H 32.65 C 30.22,19 29,21 29,23 S 30.22,27 32.65,27 Z M 29,29 H 43.35 C 45.78,29 47,31 47,33 S 45.78,37 43.35,37 H 29 V 29 Z" fill="rgb(254, 254, 253)"/>
</svg>
