<?xml version="1.0" encoding="UTF-8"?>
<!-- generated by Finnhub -->
<svg viewBox="0 0 55.5 55.5" xmlns="http://www.w3.org/2000/svg">
<path d="M 0,0 H 55.5 V 55.5 H 0 Z" fill="rgb(239, 242, 248)"/>
<path d="M 15.81,19.985 C 15.77,20 15.72,20 15.68,20.04 L 15.63,20.09 A 35.16,35.16 0 0,0 8,35.74 C 8,35.78 8,35.87 8.05,35.91 C 8.09,35.96 8.14,36 8.18,36 H 15.82 C 15.91,36 16,35.91 16,35.82 V 20.31 C 16,20.09 15.9,20 15.82,20 Z M 27.64,24.09 A 0.34,0.34 0 0,1 27.82,24 H 27.87 C 27.96,24 28,24.09 28,24.18 V 35.82 A 0.2,0.2 0 0,1 27.82,36 H 23.18 C 23.13,36 23.08,35.96 23.04,35.91 C 23,35.87 23,35.78 23,35.73 C 23,35.73 23.22,33.81 23.9,31.49 L 24.03,31.05 A 23.91,23.91 0 0,1 26.79,25.29 C 27.29,24.54 27.64,24.09 27.64,24.09 Z M 40.74,14 C 40.79,14 40.84,14 40.84,14.04 C 40.94,14.04 41,14.14 41,14.18 V 35.82 C 41,35.92 40.9,36 40.8,36 H 32.9 C 31.63,35.56 30.46,33.69 30.26,33.46 C 30.21,33.33 30.1,33.24 30,33.11 A 49.08,49.08 0 0,1 40.33,14.26 C 40.33,14.22 40.43,14.13 40.43,14.13 C 40.53,14.09 40.53,14.04 40.59,14.04 C 40.64,14 40.69,14 40.74,14 Z" fill="rgb(107, 195, 230)"/>
<path d="M 17.18,27.985 C 17.05,28 17,28.09 17,28.18 V 35.82 C 17,35.92 17.1,36 17.19,36 H 21.79 C 21.89,36 21.98,35.96 21.98,35.87 C 22.03,35.77 21.98,35.69 21.93,35.64 A 12.05,12.05 0 0,1 17.43,28.14 C 17.38,28.09 17.28,28 17.19,28 Z M 42,22.3 C 42,22.13 42.04,22 42.17,22 C 42.25,22 42.34,22.04 42.34,22.04 L 42.38,22.43 V 22.47 C 43.02,27.37 44.92,31.91 47.93,35.66 C 48.01,35.74 48.01,35.79 47.97,35.87 C 47.93,35.96 47.89,36 47.8,36 H 42.17 C 42.08,36 42,35.91 42,35.83 V 22.3 Z M 29,30.18 C 29,30.08 29.04,30 29.16,30 C 29.24,30 29.28,30.09 29.32,30.09 A 9.32,9.32 0 0,0 32.9,35.64 C 32.98,35.69 33.02,35.78 32.98,35.87 C 32.98,35.96 32.9,36 32.82,36 H 29.16 C 29.12,36 29.08,36 29.04,35.96 C 29,35.91 29,35.86 29,35.82 V 30.18 Z" fill="rgb(24, 69, 139)"/>
<path d="M 49.65,37.985 H 6.34 C 6.13,38 6,37.75 6,37.5 S 6.17,37 6.34,37 H 49.66 C 49.87,37 50,37.25 50,37.5 S 49.87,38 49.66,38 Z" fill="rgb(182, 198, 209)"/>
</svg>
