<?xml version="1.0" encoding="UTF-8"?>
<!-- generated by Finnhub -->
<svg viewBox="0 0 55.5 55.5" xmlns="http://www.w3.org/2000/svg">
<path d="M 0,0 H 55.5 V 55.5 H 0 Z" fill="rgb(1, 142, 202)"/>
<path d="M 6.13,26.015 L 6.75,23.53 C 6.84,23.18 7.09,23 7.5,23 S 8.16,23.18 8.25,23.53 L 8.85,26.03 C 8.86,26.07 8.9,26.15 8.92,26.15 C 8.95,26.15 8.97,26.1 9,26 L 9.67,23 H 11 L 10,26.99 C 9.86,27.6 9.6,28 9.01,28 C 8.49,28 8.21,27.72 8.07,27.16 A 52.9,52.9 0 0,0 7.5,25 C 7.34,25.43 7,26.89 6.93,27.16 C 6.79,27.71 6.5,28 5.99,28 C 5.4,28 5.14,27.6 4.99,26.99 L 4,23 H 5.33 L 6,26 C 6.03,26.1 6.05,26.15 6.08,26.15 S 6.14,26.06 6.14,26.03 Z" fill="rgb(254, 254, 253)"/>
<path d="M 27.13,33.015 L 27.75,30.53 C 27.84,30.18 28.09,30 28.5,30 S 29.16,30.18 29.25,30.53 L 29.85,33.03 C 29.86,33.07 29.9,33.15 29.92,33.15 C 29.95,33.15 29.97,33.1 29.99,33 L 30.67,30 H 32 L 31,33.99 C 30.86,34.6 30.6,35 30.01,35 C 29.49,35 29.21,34.72 29.07,34.16 C 29.01,33.89 28.61,32.32 28.5,32 C 28.34,32.43 28,33.89 27.93,34.16 C 27.79,34.71 27.5,35 26.99,35 C 26.4,35 26.14,34.6 25.99,33.99 L 25,30 H 26.33 L 27.01,33 C 27.03,33.1 27.05,33.15 27.08,33.15 C 27.11,33.15 27.14,33.06 27.14,33.03 Z" fill="rgb(254, 203, 2)"/>
<path d="M 25.439999999999998,26.015 L 26.15,23.53 C 26.25,23.18 26.53,23 27,23 S 27.76,23.18 27.85,23.53 L 28.55,26.03 C 28.55,26.07 28.6,26.15 28.62,26.15 C 28.65,26.15 28.68,26.1 28.71,26 L 29.48,23 H 31 L 29.87,26.99 C 29.69,27.6 29.4,28 28.73,28 C 28.13,28 27.81,27.72 27.66,27.16 C 27.58,26.89 27.13,25.32 27,25 C 26.82,25.43 26.42,26.89 26.34,27.16 C 26.19,27.71 25.86,28 25.27,28 C 24.6,28 24.31,27.6 24.13,26.99 L 23,23 H 24.52 L 25.29,26 C 25.32,26.1 25.35,26.15 25.38,26.15 S 25.44,26.06 25.45,26.03 Z M 12.5,28 H 11 V 23 H 12.5 V 28 Z M 18,23 V 27.13 C 18,27.7 17.53,28 17,28 C 16.58,28 16.26,27.9 16.01,27.52 L 14.21,24.78 C 14.16,24.7 14.12,24.66 14.09,24.66 C 14.03,24.66 14,24.7 14,24.8 V 28 H 13 V 23.87 C 13,23.27 13.48,23 14.03,23 C 14.47,23 14.8,23.15 15,23.45 L 16.8,26.22 C 16.86,26.3 16.9,26.34 16.93,26.34 C 16.98,26.34 17.01,26.3 17.01,26.22 V 23 H 18 Z M 21.3,28 H 19.63 C 19.23,28 19,27.7 19,27.21 V 23.8 C 19,23.3 19.23,23.01 19.63,23.01 H 21.3 C 21.94,23.01 22.38,23.21 22.63,23.6 C 22.88,23.98 23,24.62 23,25.51 C 23,26.74 22.77,28.01 21.3,28.01 Z M 20.5,24.6 V 26.4 C 20.5,26.65 20.6,26.76 20.84,26.76 C 21.56,26.76 21.67,26.3 21.67,25.5 C 21.67,24.73 21.51,24.24 20.84,24.24 C 20.6,24.24 20.5,24.35 20.5,24.6 Z M 33.5,23 C 35.29,23 36,23.7 36,25.5 S 35.29,28 33.5,28 C 31.7,28 31,27.31 31,25.5 C 31,23.7 31.7,23 33.5,23 Z M 32.5,25.5 C 32.5,26.22 32.7,26.78 33.5,26.78 S 34.5,26.21 34.5,25.5 C 34.5,24.79 34.3,24.22 33.5,24.22 S 32.5,24.78 32.5,25.5 Z" fill="rgb(254, 254, 253)"/>
<path d="M 21.49,29.985 C 23.29,30 24,30.7 24,32.5 C 24,34.3 23.29,35 21.5,35 C 19.7,35 19,34.31 19,32.5 C 19,30.7 19.7,30 21.5,30 Z M 20.5,32.5 C 20.5,33.22 20.7,33.78 21.5,33.78 S 22.5,33.21 22.5,32.5 C 22.5,31.79 22.3,31.22 21.5,31.22 S 20.5,31.78 20.5,32.5 Z" fill="rgb(254, 203, 2)"/>
<path d="M 36.99,27.985 V 23.79 C 37,23.29 37.28,23 37.77,23 H 40.51 C 41.57,23 42,23.74 42,24.7 C 42,25.89 41.54,26.48 40.82,26.48 L 40.61,26.51 L 42,28 H 40.1 L 39.17,26.7 C 39.03,26.47 38.84,26.31 38.84,26.02 C 38.84,25.57 39.08,25.35 39.54,25.35 C 39.97,25.35 40.34,25.32 40.34,24.79 C 40.34,24.37 40.2,24.24 39.77,24.24 H 38.81 C 38.61,24.24 38.5,24.34 38.5,24.56 V 28 H 37 Z" fill="rgb(254, 254, 253)"/>
<path d="M 37.99,34.985 V 30.79 C 38,30.29 38.28,30 38.77,30 H 41.51 C 42.57,30 43,30.74 43,31.7 C 43,32.89 42.54,33.48 41.82,33.48 L 41.61,33.51 L 43,35 H 41.1 L 40.17,33.7 C 40.03,33.47 39.84,33.31 39.84,33.02 C 39.84,32.57 40.08,32.35 40.54,32.35 C 40.97,32.35 41.34,32.32 41.34,31.79 C 41.34,31.37 41.2,31.24 40.77,31.24 H 39.81 C 39.61,31.24 39.5,31.34 39.5,31.56 V 35 H 38 Z" fill="rgb(254, 203, 2)"/>
<path d="M 47.99,27.985 H 46.5 L 44.87,26.06 C 44.74,25.88 44.67,25.67 44.67,25.44 C 44.67,25.21 44.72,25.02 44.81,24.89 L 46.37,23 H 47.77 L 46.14,25.06 A 0.55,0.55 0 0,0 46,25.42 C 46,25.52 46.06,25.66 46.19,25.82 L 48,28 Z M 43,28 V 23 H 44.5 V 28 H 43 Z" fill="rgb(254, 254, 253)"/>
<path d="M 14.49,34.985 H 13 V 30.79 C 13,30.29 13.29,30 13.78,30 H 16.58 C 17.68,30 18,30.78 18,31.77 C 18,32.77 17.69,33.5 16.59,33.5 H 14.5 V 35 Z M 14.5,32.31 H 15.72 C 16.18,32.31 16.36,32.17 16.36,31.77 C 16.36,31.36 16.17,31.24 15.72,31.24 H 14.82 C 14.6,31.24 14.5,31.34 14.5,31.56 V 32.31 Z" fill="rgb(254, 203, 2)"/>
<path d="M 47.99,27.985 V 26.5 H 50.26 C 50.42,26.5 50.5,26.45 50.5,26.34 C 50.5,26.21 50.41,26.16 50.23,26.09 L 48.71,25.55 C 48.24,25.4 48,25.15 48,24.31 C 48,23.44 48.33,23 49,23 H 52 V 24.5 H 49.79 C 49.59,24.5 49.5,24.55 49.5,24.66 C 49.5,24.81 49.62,24.86 49.86,24.94 L 51.12,25.39 C 51.82,25.6 52,25.95 52,26.62 C 52,27.52 51.73,28 50.97,28 H 48 Z" fill="rgb(254, 254, 253)"/>
<path d="M 36.99,29.985 V 31.21 H 34.78 C 34.59,31.21 34.5,31.31 34.5,31.53 V 32 H 36.5 V 33 H 34.5 V 33.47 C 34.5,33.68 34.6,33.79 34.78,33.79 H 37 V 35 H 33.71 A 0.67,0.67 0 0,1 33.19,34.8 A 0.83,0.83 0 0,1 33,34.21 V 30.8 C 33,30.55 33.06,30.36 33.19,30.22 C 33.31,30.08 33.49,30.01 33.71,30.01 H 37 Z" fill="rgb(254, 203, 2)"/>
</svg>
