<?xml version="1.0" encoding="UTF-8"?>
<!-- generated by Finnhub -->
<svg viewBox="0 0 55.5 55.5" xmlns="http://www.w3.org/2000/svg">
<path d="M 0,0 H 55.5 V 55.5 H 0 Z" fill="rgb(239, 242, 248)"/>
<circle cx="28" cy="28" r="16" fill="url(#b)"/>
<path d="M 30.099999999999998,12.135 L 30.25,12.29 L 30.73,12.76 C 30.8,12.84 30.77,12.94 30.74,13.03 A 0.44,0.44 0 0,0 30.72,13.15 C 30.72,13.6 31.08,14.06 31.42,14.49 C 31.74,14.89 32.03,15.27 32,15.59 L 31.9,16.42 L 31.78,16.82 C 31.66,17.22 31.52,17.74 31.28,17.89 C 30.56,18.38 30.25,17.09 30.07,16.34 A 3.93,3.93 0 0,0 29.95,15.91 C 29.75,15.42 28.55,14.36 28.05,14.28 L 27.82,14.24 C 27.02,14.1 25.27,13.8 24.86,14.39 C 24.58,14.8 24.27,14.79 23.86,14.78 A 11.93,11.93 0 0,0 23.73,14.78 C 23.58,14.78 23.33,14.77 23.27,14.64 C 23.06,14.21 22.69,13.09 23.51,13.01 C 23.7,12.99 23.91,12.85 24.11,12.72 C 24.23,12.64 24.36,12.56 24.47,12.52 C 25.22,12.22 26.11,12.07 26.91,12.07 C 27.14,12.07 27.34,12.05 27.53,12.03 C 27.8,12.01 28.03,11.98 28.28,12.02 C 28.69,12.08 29.12,12.1 29.55,12.12 L 30.11,12.15 Z M 35.71,14 L 36.63,14.67 A 56.1,56.1 0 0,1 38.97,16.41 C 39.45,16.8 39.75,17.24 40.07,17.71 C 40.17,17.88 40.29,18.04 40.41,18.21 L 40.83,18.76 C 41.25,19.28 41.73,19.9 41.99,20.44 A 15,15 0 0,1 43.52,25.22 C 43.36,25.9 43.57,26.92 43.77,27.58 C 43.83,27.79 43.77,27.97 43.72,28.14 L 43.66,28.4 C 43.65,28.6 43.62,28.8 43.58,29 C 43.53,28.45 43.16,28.16 42.8,27.87 C 42.48,27.62 42.17,27.37 42.05,26.97 L 41.98,26.71 C 41.92,26.49 41.86,26.28 41.76,26.01 A 9.5,9.5 0 0,1 41.04,22.22 C 41.09,21.6 40.58,20.92 40.1,20.29 C 39.63,19.65 39.17,19.05 39.32,18.58 C 39.42,18.24 39.23,17.81 38.82,17.78 C 38.62,17.76 37.21,16.81 36.94,16.62 C 36.8,16.52 36.78,16.33 36.77,16.18 L 36.75,16.01 A 4.87,4.87 0 0,0 35.25,14.51 C 34.97,14.41 32.87,13.25 33.01,13.21 C 33.5,13.05 33.93,13.15 34.28,13.5 C 34.52,13.74 35.38,13.99 35.71,14 Z M 26.59,17.72 C 26.08,17.76 26.03,18.61 26.09,18.94 L 26.16,19.18 C 26.22,19.37 26.28,19.58 26.39,19.7 C 26.93,20.29 27.54,20.82 28.19,21.29 C 28.39,21.43 28.46,21.16 28.46,21.03 C 28.46,20.86 28.49,20.69 28.54,20.53 C 28.59,20.32 28.64,20.11 28.6,19.87 C 28.6,19.84 28.57,19.77 28.53,19.69 C 28.37,19.27 28.02,18.37 28.7,18.51 C 29.1,18.6 29.34,18.78 29.59,18.98 C 29.79,19.14 30.02,19.31 30.33,19.43 C 30.91,19.64 31.64,20.29 31.97,20.76 C 32.05,20.88 31.97,21.04 31.81,21.05 C 31.51,21.05 29.81,21.34 30.71,21.96 C 30.74,21.98 30.75,22.01 30.76,22.04 C 30.79,22.22 30.28,22.8 29.67,23.48 C 28.89,24.35 27.97,25.38 27.9,25.92 C 27.89,26.03 27.65,26.96 27.52,26.67 C 27.37,26.35 26.72,26.02 26.36,26 C 25.31,25.94 24.12,26.08 23.68,27.07 C 23.37,27.77 23.08,29.17 24.28,29.31 C 24.31,29.31 24.36,29.31 24.41,29.33 C 24.65,29.37 25.01,29.43 25.11,29.24 C 25.32,28.72 25.45,28.46 26,28.5 C 26.31,28.53 25.9,29.4 25.8,29.64 L 25.78,29.68 C 25.6,30.09 25.96,30.15 26.28,30.08 C 26.71,29.97 27.13,30.15 27.06,30.63 C 27,31.03 27.05,31.37 27.21,31.65 C 27.23,31.69 27.26,31.71 27.3,31.72 L 27.83,31.8 C 27.88,31.81 27.88,31.83 27.83,31.86 C 27.13,32.34 26.43,31.5 25.98,30.93 L 25.94,30.9 C 25.84,30.77 25.77,30.69 25.61,30.64 A 3.4,3.4 0 0,1 24.41,30.03 A 1.42,1.42 0 0,0 23.55,29.65 C 22.59,29.55 21.42,29.25 21.3,28.15 A 4.38,4.38 0 0,0 21,26.95 A 16.82,16.82 0 0,0 19.48,24.29 L 19.31,24.03 C 19.01,23.58 18.98,23.09 19.01,22.58 L 19.08,22.04 C 19.18,21.47 19.58,21.04 20,20.64 C 20.56,20.13 20.26,17.28 20.01,16.72 C 20.04,16.6 19.95,16.47 19.87,16.33 C 19.73,16.13 19.59,15.9 19.9,15.7 C 20.34,15.4 21.93,14.65 22.37,15.18 C 22.78,15.7 23.47,15.98 24.14,16.25 C 24.59,16.44 25.04,16.63 25.41,16.88 C 25.55,16.98 25.69,17.01 25.84,17.05 L 25.98,17.09 C 26.25,17.17 26.36,16.89 26.45,16.66 C 26.53,16.49 26.59,16.34 26.7,16.36 C 26.73,16.38 26.77,16.38 26.83,16.39 C 27.03,16.43 27.39,16.49 27.38,16.62 C 27.38,17.07 27.11,17.68 26.58,17.72 Z M 31.8,31 A 7.9,7.9 0 0,1 33.65,31.3 C 33.84,31.37 34.23,31.59 34.82,31.95 C 34.98,32.05 35.29,32.05 35.58,32.05 C 35.78,32.04 35.98,32.04 36.13,32.07 L 36.47,33.21 C 36.53,33.43 37.13,33.4 37.52,33.37 C 37.64,33.37 37.74,33.36 37.8,33.37 L 38.2,33.39 C 38.64,33.42 39.08,33.44 39.51,33.49 C 40.15,33.54 40.13,34.71 39.65,34.93 C 39.15,35.16 39.01,35.71 38.87,36.24 C 38.75,36.73 38.63,37.21 38.24,37.44 L 37.72,37.74 C 37.22,38.01 36.7,38.31 36.32,38.67 A 16,16 0 0,1 34.22,40.42 C 33.56,40.7 32.95,40.85 32.22,40.9 C 31.66,40.94 30.85,41.6 30.76,42.16 C 30.73,42.32 30.64,42.87 30.41,42.9 L 30.17,42.93 C 29.9,42.98 29.56,43.05 29.4,42.93 C 29.2,42.8 29.3,42.4 29.38,42.23 C 29.61,41.76 29.78,41.1 29.8,40.59 C 29.82,40.13 30.14,39.67 30.44,39.23 C 30.57,39.03 30.7,38.84 30.8,38.66 C 31.17,37.96 30.66,37.84 30.18,37.74 C 29.98,37.7 29.78,37.65 29.65,37.56 C 28.8,36.96 27.68,35.45 28.09,34.46 C 28.37,33.76 28.61,33.06 28.79,32.33 C 29.1,31.18 30.76,30.98 31.81,31 Z M 28.9,17.97 C 30.15,18.22 30.35,16.66 29.44,16.37 C 29.17,16.28 28.94,15.99 28.7,15.71 C 28.53,15.51 28.36,15.3 28.18,15.18 A 1.1,1.1 0 0,0 27.23,15.05 C 26.82,15.17 27.03,15.57 27.31,15.65 C 27.68,15.77 28.23,16.05 28.43,16.33 C 28.51,16.46 28.53,16.72 28.55,17 C 28.57,17.44 28.6,17.91 28.9,17.97 Z" fill="url(#a)"/>
<defs>
<linearGradient id="b" x1="37.93" x2="17.5" y1="16.89" y2="40.45" gradientUnits="userSpaceOnUse">
<stop stop-color="rgb(82, 146, 130)" offset=".1"/>
<stop stop-color="rgb(169, 201, 189)" offset=".73"/>
<stop stop-color="rgb(162, 194, 182)" offset="1"/>
</linearGradient>
<linearGradient id="a" x1="40.93" x2="19.7" y1="18.64" y2="29.96" gradientUnits="userSpaceOnUse">
<stop stop-color="rgb(79, 70, 25)" offset="0"/>
<stop stop-color="rgb(165, 103, 18)" offset=".82"/>
</linearGradient>
</defs>
</svg>
