<?xml version="1.0" encoding="UTF-8"?>
<!-- generated by Finnhub -->
<svg viewBox="0 0 55.5 55.5" xmlns="http://www.w3.org/2000/svg">
<path d="M0 0h55.5v55.5H0z" fill="rgb(239, 242, 248)"/>
<path d="m25.91 15 3.96 7.54L41.97 12 31.61 25.86 38 38h-4.91l-4.59-8.73L13 44l13.82-17.92L21 15h4.91ZM30 25l.7-2.54L39 15l-9 10Z" fill="rgb(35, 54, 111)" fill-rule="evenodd"/>
<path d="M22.38 19.33c-.46.46-.91.93-1.35 1.43-5.55 6.25-7.48 13.6-4.91 17.52l-1.98 2.52c-2.69-4.46-.54-12.67 5.5-19.67.76-.9 1.56-1.73 2.38-2.5l.36.7Zm16.45-5.96c-2.99-1.42-7.36-.53-11.65 2.14l-.37-.58c4.75-2.93 9.55-3.8 12.74-2l-.72.44Zm-2.3 19.29c5.62-6.5 7.36-14.1 4.25-17.8l.42-.58c3.47 4 1.8 12.3-4 19.58l-.67-1.2ZM18.05 40.1c3.38 1.95 8.84.6 13.87-3.15l.82 1.52c-6.24 5.3-13.34 7.13-17.19 3.96l2.5-2.33Z" fill="rgb(107, 108, 109)"/>
</svg>
