<?xml version="1.0" encoding="UTF-8"?>
<!-- generated by Finnhub -->
<svg viewBox="0 0 55.5 55.5" xmlns="http://www.w3.org/2000/svg">
<path d="M 0,0 H 55.5 V 55.5 H 0 Z" fill="rgb(239, 242, 248)"/>
<path d="M 22.069999999999997,14.545 A 5.32,5.32 0 0,0 14.56,22.08 L 20.48,28 L 14.56,33.92 A 5.32,5.32 0 0,0 22.08,41.44 L 31.44,32.08 A 5.3,5.3 0 0,0 33,28 A 5.3,5.3 0 0,0 31.45,23.92 L 22.09,14.56 Z" fill="rgb(22, 211, 250)"/>
<path d="M 32.99,28.105 A 6,6 0 0,1 31.48,32.04 A 4.86,4.86 0 0,1 24.14,32.04 L 20.47,28 L 24.14,23.96 A 4.86,4.86 0 0,1 31.48,23.96 A 5.93,5.93 0 0,1 33,28.12 Z" fill="rgb(1, 169, 239)"/>
<circle cx="18.5" cy="18.5" r="5.5" fill="rgb(1, 129, 228)"/>
<circle cx="18.5" cy="37.5" r="5.5" fill="rgb(1, 129, 228)"/>
<circle cx="37.5" cy="18.5" r="5.5" fill="rgb(22, 211, 250)"/>
<circle cx="37.5" cy="37.5" r="5.5" fill="rgb(22, 211, 250)"/>
</svg>
