<?xml version="1.0" encoding="UTF-8"?>
<!-- generated by Finnhub -->
<svg viewBox="0 0 55.5 55.5" xmlns="http://www.w3.org/2000/svg">
<path d="M 0,0 H 55.5 V 55.5 H 0 Z" fill="rgb(239, 242, 248)"/>
<path d="M 10.99,16.985 C 13.35,19.13 19.99,25.22 23,28 C 19.99,30.78 13.35,36.87 11,39 C 15.04,37.7 20.06,37.2 22.07,37.11 L 32,28 L 22.07,18.89 C 20.07,18.8 15.04,18.29 11,17 Z M 33.5,27.54 C 36.7,24.59 42.77,19.02 45,17 A 48.49,48.49 0 0,1 33.93,18.89 L 29.02,23.39 L 33.5,27.54 Z M 33.5,28.46 L 29.02,32.6 L 33.93,37.11 C 35.93,37.2 40.96,37.7 45,39 C 42.77,36.98 36.7,31.4 33.5,28.46 Z" fill="rgb(215, 28, 31)"/>
</svg>
