<?xml version="1.0" encoding="UTF-8"?>
<!-- generated by Finnhub -->
<svg viewBox="0 0 55.5 55.5" xmlns="http://www.w3.org/2000/svg">
<path d="M0 0h55.5v55.5H0z" fill="rgb(239, 242, 248)"/>
<path d="M5 24h2.41L15 35h-2.41L5 24Z" fill="url(#c)"/>
<path d="M6.3 35H4c3.5-7.16 8.8-10.26 11-10.9v2.21c-3.84 1.51-7.4 6.42-8.7 8.69Z" fill="url(#b)"/>
<path d="M4.72 35H6.3c1.3-2.27 4.86-7.18 8.7-8.69v-1.69c-2.4.94-7.04 4-10.28 10.38Z" fill="rgb(101, 84, 30)"/>
<path d="M5.42 35h.88c1.3-2.27 4.86-7.18 8.7-8.69v-1.18c-2.47 1.14-6.59 4.12-9.58 9.87Z" fill="rgb(209, 196, 78)"/>
<path d="M5.84 35h.46c1.3-2.27 4.86-7.18 8.7-8.69v-.78c-2.45 1.21-6.3 4.1-9.16 9.47Z" fill="rgb(100, 86, 121)"/>
<path d="M18 18.04V35h2V18.5c0-2.07 1.73-2.36 2.6-2.02.2-.34.7-.91 1.4-2.11a7.27 7.27 0 0 0-2.22-.37c-2.93.03-3.76 2.53-3.78 4.04Z" fill="url(#a)"/>
<path d="M25.5 26H24v5.5a3.5 3.5 0 1 0 7 0V26h-1.5v5.5a2 2 0 1 1-4 0V26ZM42 19h1.5v16H42V19Z" fill="rgb(32, 28, 29)"/>
<path d="M40.97 31a4.5 4.5 0 1 0-8.97-.48 4.49 4.49 0 0 0 7.9 2.93l-.88-1.3A3 3 0 0 1 33.53 31H40.97Zm-4.47-3.46A3 3 0 0 0 33.54 30h5.92a3 3 0 0 0-2.96-2.46Z" fill="rgb(32, 28, 29)" fill-rule="evenodd"/>
<path d="m50.51 27.43-.86.82c-.24-.4-.92-.75-1.71-.75-.8 0-1.23.4-1.23.89 0 1.73 4.29 1.35 4.29 4.02 0 1.16-.61 2.59-2.88 2.59A3.47 3.47 0 0 1 45 33.02c.18-.16.62-.53.92-.75.3.62 1.16 1.23 2.2 1.23 1.04 0 1.53-.4 1.53-.95 0-1.76-4.4-1.38-4.4-4.16 0-.55.73-2.39 2.69-2.39 1.57 0 2.37.95 2.57 1.43Z" fill="rgb(32, 28, 29)"/>
<path d="M17 23.4V25c3.93-2.23 9.23-1.21 11-.77-3.35-2.6-8.73-1.63-11-.83Z" fill="rgb(101, 84, 30)"/>
<path d="M17 24.15V25c3.93-2.23 9.23-1.21 11-.77-1.65-1.28-3.8-1.7-5.82-1.7A18.81 18.81 0 0 0 17 24.16Z" fill="rgb(209, 196, 78)"/>
<path d="M26.66 23.42a21.75 21.75 0 0 0-3.9-.34c-2.82 0-4.86.93-5.76 1.53V25c3.93-2.23 9.23-1.21 11-.77-.42-.32-.87-.59-1.34-.81Z" fill="rgb(100, 86, 121)"/>
<defs>
<linearGradient id="c" x1="10" x2="10" y1="24" y2="35" gradientUnits="userSpaceOnUse">
<stop stop-color="rgb(189, 49, 44)" offset="0"/>
<stop stop-color="rgb(236, 210, 71)" offset="1"/>
</linearGradient>
<linearGradient id="b" x1="9.5" x2="9.5" y1="24.09" y2="35" gradientUnits="userSpaceOnUse">
<stop stop-color="rgb(189, 49, 44)" offset="0"/>
<stop stop-color="rgb(236, 210, 71)" offset="1"/>
</linearGradient>
<linearGradient id="a" x1="21" x2="21" y1="14" y2="35" gradientUnits="userSpaceOnUse">
<stop stop-color="rgb(189, 49, 44)" offset="0"/>
<stop stop-color="rgb(236, 210, 71)" offset="1"/>
</linearGradient>
</defs>
</svg>
