<?xml version="1.0" encoding="UTF-8"?>
<!-- generated by Finnhub -->
<svg viewBox="0 0 55.5 55.5" xmlns="http://www.w3.org/2000/svg">
<path d="M 0,0 H 55.5 V 55.5 H 0 Z" fill="rgb(239, 242, 248)"/>
<path d="M 12.99,18.245 C 13,15.36 15.38,13 18.32,13 H 37.68 A 5.29,5.29 0 0,1 43,18.26 V 29 H 39 V 18.69 A 1.7,1.7 0 0,0 37.3,17 H 18.7 C 17.76,17 17,17.76 17,18.69 V 37.3 C 17,38.23 17.76,38.99 18.7,38.99 H 29 V 42.99 H 18.32 A 5.29,5.29 0 0,1 13,37.74 V 18.26 Z" fill="rgb(45, 167, 126)"/>
<path d="M 31.99,24.985 H 25 V 32 H 31 V 43 H 43 V 31 H 32 V 25 Z" fill="rgb(235, 124, 43)"/>
</svg>
