<?xml version="1.0" encoding="UTF-8"?>
<!-- generated by Finnhub -->
<svg viewBox="0 0 55.5 55.5" xmlns="http://www.w3.org/2000/svg">
<path d="M 0,0 H 55.5 V 55.5 H 0 Z" fill="rgb(11, 60, 126)"/>
<path d="M 4.37,31.195 C 4.32,31.66 4.1,31.96 4,32 H 6.03 C 5.76,31.9 5.77,31.4 5.81,31.21 L 6.73,26.43 L 9.5,32 L 12.16,26.43 L 13.08,31.21 C 13.16,31.58 12.98,31.93 12.89,32 H 15 C 14.79,31.85 14.66,31.38 14.62,31.21 L 12.72,22 L 9.5,28.87 L 6.28,22 L 4.38,31.21 Z M 15,28 A 3,3 0 1,1 21,28 V 29 H 16.5 C 16.47,29.54 16.83,30.6 17.99,30.64 C 18.27,30.64 19.03,30.54 19.3,30 H 20.83 A 3,3 0 0,1 15,29 V 28 Z M 16.5,27.78 C 16.51,27.34 17,26.5 17.99,26.5 C 18.93,26.5 19.49,27.3 19.5,27.78 H 16.5 Z M 26.5,23 H 28 V 32 H 26.5 V 30.5 C 26.03,31.4 25.24,32 24.35,32 C 22.9,32 21.73,30.43 21.73,28.5 S 22.9,25 24.35,25 C 25.24,25 26.03,25.6 26.5,26.5 V 23 Z M 24.84,30.58 C 25.69,30.58 26.38,29.66 26.38,28.52 C 26.38,27.38 25.69,26.46 24.84,26.46 C 23.99,26.46 23.29,27.38 23.29,28.52 C 23.29,29.66 23.99,30.58 24.84,30.58 Z M 29,23 H 30.5 V 24.38 H 29 V 23 Z M 30.5,25 H 29 V 32 H 30.5 V 25 Z M 48.92,25 C 51.09,25 51.82,26.32 51.82,27 H 50.15 C 50.06,26.49 49.35,26.29 48.92,26.29 C 48.65,26.29 47.91,26.41 47.89,26.96 C 47.87,27.41 48.86,27.66 49.35,27.73 C 51.55,28.07 52.04,29.3 52,29.86 C 52,30.55 51.37,32 49.11,32 C 46.7,32 46.07,30.8 46,30 H 47.63 C 47.77,30.55 48.75,30.71 49.2,30.71 C 49.4,30.71 50.28,30.65 50.28,30.02 C 50.28,29.54 49.32,29.3 48.75,29.24 C 46.57,28.93 46.15,27.84 46.15,27.15 C 46.15,26.53 46.78,25 48.92,25 Z M 40.3,31.46 C 39.5,33.25 37.98,34.46 36.24,34.5 A 2.73,2.73 0 0,0 38.41,31.92 V 25 H 36.78 V 26.03 C 36.3,25.27 35.6,24.79 34.81,24.79 C 33.36,24.79 32.19,26.42 32.19,28.42 S 33.36,32.05 34.81,32.05 C 35.6,32.05 36.31,31.57 36.78,30.81 V 32.12 C 36.78,32.57 36.25,33.24 35.4,33.26 A 1.2,1.2 0 0,1 34.26,32.61 H 32.68 A 6.88,6.88 0 0,1 31.38,28.5 C 31.38,25.19 33.52,22.5 36.16,22.5 C 37.76,22.5 39.16,23.49 40.03,25 H 41.29 V 29.56 C 41.32,29.9 41.59,30.57 42.41,30.52 C 43.44,30.45 43.63,29.5 43.63,29.14 V 25 H 45.31 V 32 H 43.63 V 30.87 C 43.43,31.23 42.86,31.96 41.86,32 C 41.21,32.02 40.66,31.74 40.3,31.46 Z M 36.78,29.05 C 36.59,29.93 36,30.58 35.3,30.58 C 34.45,30.58 33.76,29.62 33.76,28.44 C 33.76,27.26 34.45,26.3 35.3,26.3 C 36,26.3 36.6,26.95 36.78,27.83 V 29.05 Z" fill="rgb(254, 254, 253)" fill-rule="evenodd"/>
</svg>
