<?xml version="1.0" encoding="UTF-8"?>
<!-- generated by Finnhub -->
<svg viewBox="0 0 55.5 55.5" xmlns="http://www.w3.org/2000/svg">
<path d="M 0,0 H 55.5 V 55.5 H 0 Z" fill="rgb(239, 242, 248)"/>
<path d="M 40.92,12.985 H 15.07 C 13.93,13 13,13.93 13,15.07 V 40.93 C 13,42.07 13.93,43 15.07,43 H 40.93 C 42.07,43 43,42.07 43,40.93 V 15.07 C 43,13.93 42.07,13 40.93,13 Z M 16.73,31.2 A 12.02,12.02 0 0,1 28.19,35.97 L 28.74,35.27 C 31.35,32.22 35.32,30.67 39.31,31.16 C 39.21,31.66 39.05,32.14 38.83,32.61 H 37.85 A 10.44,10.44 0 0,0 29.05,37.38 H 27.28 A 9.69,9.69 0 0,0 25.31,35.11 A 10.44,10.44 0 0,0 17.21,32.68 A 5.7,5.7 0 0,1 16.71,31.2 H 16.73 Z M 39.38,30.3 A 12.82,12.82 0 0,0 28.19,34.6 A 12.83,12.83 0 0,0 16.62,30.34 V 30.08 C 16.62,26.94 19.12,24.38 22.27,24.31 A 5.78,5.78 0 0,1 33.82,24.31 A 5.79,5.79 0 0,1 39.48,30.08 A 0.26,0.26 0 0,0 39.38,30.3 Z" fill="rgb(254, 107, 10)"/>
</svg>
