<?xml version="1.0" encoding="UTF-8"?>
<!-- generated by Finnhub -->
<svg viewBox="0 0 55.5 55.5" xmlns="http://www.w3.org/2000/svg">
<path d="M 0,0 H 55.5 V 55.5 H 0 Z" fill="rgb(239, 242, 248)"/>
<path d="M 33.99,20.365 C 34,15.89 28.86,13.13 25.09,15.45 L 13,22.2 V 19.94 C 13,18.34 14.1,16.84 15.45,16.01 L 22.75,11.51 C 29.53,7.33 38,12.31 38,20.38 V 32 C 38,33.27 37.25,34 36,34 S 34,33.27 34,32 V 20.38 Z" fill="rgb(209, 227, 1)"/>
<path d="M 18.41,27.185 A 5.33,5.33 0 0,0 18.52,36.68 L 30.27,43.35 L 28.33,44.42 A 4.75,4.75 0 0,1 23.85,44.46 L 16.32,40.5 A 9.6,9.6 0 0,1 16.13,23.42 L 25.6,18.2 C 26.7,17.6 28.09,17.95 28.72,19 A 2.13,2.13 0 0,1 27.88,21.97 L 18.42,27.19 Z" fill="rgb(209, 227, 1)"/>
<path d="M 31.79,36.365 C 35.65,38.56 41,36.38 41,31.43 V 17.9 C 42.95,19.1 44.94,20.32 45,22.92 V 31.33 C 45.16,39.17 36.44,44.17 29.53,40.25 L 20.07,34.9 A 2.21,2.21 0 0,1 19.24,31.84 A 2.3,2.3 0 0,1 22.35,31.03 L 31.8,36.38 Z" fill="rgb(209, 227, 1)"/>
</svg>
