<?xml version="1.0" encoding="UTF-8"?>
<!-- generated by Finnhub -->
<svg viewBox="0 0 55.5 55.5" xmlns="http://www.w3.org/2000/svg">
<path d="M 0,0 H 55.5 V 55.5 H 0 Z" fill="rgb(239, 242, 248)"/>
<path d="M 9.99,28.935 L 7.65,23.83 L 7.53,23.58 C 7.3,23.08 6.92,22.26 6.58,22.03 C 6.4,21.89 6.31,21.88 6.12,21.88 L 6,21.87 V 21 H 10.47 V 21.87 H 10.37 C 10.07,21.87 9.49,21.85 9.47,22.18 C 9.46,22.38 9.57,22.93 10,23.83 L 11.68,27.73 L 13.6,23.83 C 14.02,22.96 14.23,22.43 14.23,22.23 C 14.23,21.86 13.75,21.87 13.45,21.87 H 13.38 V 21 H 20.47 V 21.87 H 20.37 C 20.07,21.87 19.49,21.85 19.47,22.18 C 19.46,22.38 19.57,22.93 20,23.83 L 21.68,27.73 L 23.6,23.83 C 24.02,22.96 24.23,22.43 24.23,22.23 C 24.23,21.86 23.75,21.87 23.45,21.87 H 23.38 V 21 H 26 V 21.87 H 25.9 C 25.72,21.88 25.63,21.89 25.5,22.05 C 25.44,22.12 25.13,22.71 24.57,23.82 L 22,28.92 V 32.26 C 22,33.1 22.05,33.49 22.15,33.66 C 22.33,33.98 23.32,33.99 23.82,34 H 24 V 35 H 18 V 34 H 18.17 C 18.67,33.99 19.67,33.97 19.85,33.67 C 19.95,33.49 20,33.1 20,32.26 V 28.95 L 17.65,23.83 L 17.53,23.58 A 4.75,4.75 0 0,0 16.58,22.03 C 16.4,21.89 16.31,21.88 16.12,21.88 L 16,21.87 H 15.9 C 15.72,21.88 15.63,21.89 15.5,22.05 C 15.44,22.12 15.13,22.71 14.57,23.82 L 12,28.92 V 32.26 C 12,33.1 12.05,33.49 12.15,33.66 C 12.33,33.98 13.32,33.99 13.82,34 H 14 V 35 H 8 V 34 H 8.17 C 8.67,33.99 9.67,33.97 9.85,33.67 C 9.95,33.49 10,33.1 10,32.26 V 28.95 Z M 30.67,34 A 7.8,7.8 0 0,0 32.44,33.74 V 32.46 C 32.44,32.11 32.46,31.91 32.51,31.83 C 32.56,31.76 32.7,31.72 32.93,31.7 H 33 V 31.34 H 30.8 V 31.7 H 30.87 C 31.1,31.72 31.24,31.77 31.29,31.84 C 31.34,31.91 31.36,32.11 31.36,32.46 V 33.52 C 31.18,33.58 31.01,33.62 30.84,33.62 C 29.71,33.62 29,32.74 29,31 C 29,29.25 29.68,28.38 30.73,28.38 C 31.23,28.38 31.58,28.49 31.8,28.71 C 31.88,28.79 31.92,28.99 31.92,29.31 V 29.38 H 32.43 V 28.25 A 6.16,6.16 0 0,0 30.74,28 C 28.96,28 28,29.3 28,31 C 28,32.61 28.95,34 30.67,34 Z M 48,33.33 V 34.04 C 48,34.34 48.02,34.51 48.06,34.58 C 48.11,34.64 48.24,34.68 48.46,34.69 H 48.52 V 35 H 46.49 V 34.7 L 46.55,34.69 C 46.76,34.67 46.89,34.64 46.94,34.58 C 46.98,34.52 47,34.34 47,34.04 V 31.04 C 47,30.74 46.98,30.48 46.94,30.42 C 46.89,30.36 46.76,30.32 46.54,30.31 H 46.49 V 30 H 48 V 30.76 C 48.27,30.26 48.67,30 49.2,30 C 50.16,30 50.5,31.08 50.5,31.9 C 50.5,32.83 50.1,33.78 49.03,33.78 C 48.64,33.78 48.3,33.63 48,33.33 Z M 48,32.97 C 48.26,33.2 48.5,33.32 48.71,33.32 C 49.25,33.32 49.5,32.84 49.5,31.9 C 49.5,31.05 49.28,30.63 48.8,30.63 C 48.53,30.63 48.26,30.79 48,31.1 V 32.97 Z M 44.5,34 V 33.17 C 44.16,33.72 43.82,34 43.2,34 C 42.45,34 42,33.54 42,32.77 V 31.03 C 42,30.71 41.97,30.53 41.92,30.46 C 41.87,30.39 41.72,30.36 41.46,30.33 H 41.39 V 30 H 43 V 32.65 C 43,33.03 43.21,33.37 43.66,33.37 C 44.02,33.37 44.21,33.17 44.5,32.79 V 31.03 C 44.5,30.71 44.47,30.53 44.42,30.46 C 44.37,30.39 44.22,30.36 43.96,30.33 H 43.89 V 30 H 45.5 V 32.88 C 45.5,33.2 45.53,33.48 45.58,33.54 C 45.63,33.61 45.67,33.64 45.93,33.67 H 46 V 34 H 44.5 Z M 37,32 C 37,33.2 37.8,34 39,34 S 41,33.19 41,32 S 40.19,30 39,30 S 37,30.8 37,32 Z M 40,32 C 40,33.08 39.57,33.63 39,33.63 C 38.43,33.63 38,33.08 38,32 C 38,30.9 38.43,30.37 39,30.37 C 39.57,30.37 40,30.91 40,32 Z M 35,31.2 V 32.97 C 35,33.29 35.03,33.48 35.08,33.54 C 35.13,33.61 35.3,33.64 35.58,33.67 H 35.65 V 34 H 33.45 V 33.67 H 33.51 C 33.74,33.65 33.88,33.61 33.93,33.54 C 33.98,33.48 34,33.29 34,32.97 V 31.12 C 34,30.8 33.98,30.62 33.93,30.55 C 33.88,30.48 33.74,30.44 33.51,30.42 H 33.44 V 30 H 35 V 30.83 C 35.31,30.28 35.72,30 36.22,30 C 36.27,30 36.34,30 36.42,30.03 V 31.28 H 35.94 V 31.21 A 2.34,2.34 0 0,0 35.89,30.77 C 35.87,30.73 35.82,30.71 35.72,30.71 C 35.42,30.71 35.18,30.88 35,31.21 Z" fill="rgb(37, 122, 178)"/>
</svg>
