<?xml version="1.0" encoding="UTF-8"?>
<!-- generated by Finnhub -->
<svg viewBox="0 0 55.5 55.5" xmlns="http://www.w3.org/2000/svg">
<path d="M 0,0 H 55.5 V 55.5 H 0 Z" fill="rgb(239, 242, 248)"/>
<path d="M 41.95,25.355 A 0.57,0.57 0 0,0 41.43,25 H 26.56 A 0.56,0.56 0 0,0 26,25.56 C 25.98,25.87 26.2,26.13 26.5,26.16 L 37.14,27.26 L 24.65,39.22 C 24.99,38.22 25.58,36.52 26.6,33.66 A 0.58,0.58 0 0,0 26.3,32.92 A 0.55,0.55 0 0,0 25.56,33.2 L 20.06,45.16 A 0.58,0.58 0 0,0 20.57,46 C 20.71,46 20.84,45.95 20.95,45.84 L 41.82,26.01 A 0.59,0.59 0 0,0 41.96,25.37 Z" fill="rgb(3, 172, 189)"/>
<path d="M 35.760000000000005,10.094999999999999 A 0.55,0.55 0 0,0 35.05,10.16 L 14.18,29.99 A 0.59,0.59 0 0,0 14.04,30.63 C 14.13,30.85 14.34,31 14.57,31 H 29.44 C 29.74,31 29.99,30.76 30,30.44 A 0.57,0.57 0 0,0 29.5,29.84 L 18.86,28.74 L 31.34,16.78 C 31.01,17.78 30.42,19.48 29.39,22.34 C 29.29,22.64 29.42,22.96 29.71,23.08 C 29.99,23.2 30.31,23.08 30.44,22.8 L 35.94,10.84 A 0.58,0.58 0 0,0 35.77,10.12 Z" fill="rgb(1, 46, 106)"/>
</svg>
