<?xml version="1.0" encoding="UTF-8"?>
<!-- generated by Finnhub -->
<svg viewBox="0 0 55.5 55.5" xmlns="http://www.w3.org/2000/svg">
<path d="M 0,0 H 55.5 V 55.5 H 0 Z" fill="rgb(239, 242, 248)"/>
<path d="M 18.189999999999998,13.985 A 4.62,4.62 0 0,0 14,17 H 29.38 C 29.85,17 30.31,16.82 30.66,16.51 L 33.43,14 H 18.2 Z M 20.3,20 A 4.62,4.62 0 0,0 16.1,23 H 23.86 C 24.33,23 24.79,22.82 25.14,22.51 L 27.9,20 H 20.3 Z M 42,42 H 20.62 L 28.9,34 H 33.34 A 8.97,8.97 0 0,1 42,42 Z" fill="rgb(107, 181, 67)"/>
<path d="M 27.7,33.985 L 20.87,40.83 A 4,4 0 1,1 18.05,34 H 27.71 Z" fill="rgb(46, 142, 67)"/>
<path d="M 34.99,15.145 A 4.08,4.08 0 0,1 40.72,15.19 A 4.04,4.04 0 0,1 40.72,20.93 L 28.54,33 H 16.8 L 35,15.16 Z" fill="rgb(107, 181, 67)"/>
</svg>
