<?xml version="1.0" encoding="UTF-8"?>
<!-- generated by Finnhub -->
<svg viewBox="0 0 55.5 55.5" xmlns="http://www.w3.org/2000/svg">
<path d="M 0,0 H 55.5 V 55.5 H 0 Z" fill="rgb(239, 242, 248)"/>
<path d="M 13.01,25.985 V 25.32 L 16.16,21 H 13 V 20 H 17.54 V 20.68 L 14.4,25 H 17.56 V 26 H 13.02 Z M 19.68,26 C 19.28,26 18.92,25.92 18.62,25.76 C 18.32,25.59 18.1,25.36 17.94,25.06 C 17.78,24.76 17.7,24.41 17.7,24.01 S 17.78,23.26 17.94,22.96 C 18.1,22.66 18.33,22.42 18.62,22.26 C 18.91,22.08 19.25,22 19.64,22 C 19.9,22 20.14,22.04 20.38,22.12 A 1.64,1.64 0 0,1 21.38,23.1 C 21.47,23.35 21.52,23.64 21.52,23.97 V 24.27 H 18.8 C 18.8,24.46 18.83,24.62 18.9,24.77 C 18.98,24.9 19.09,25.01 19.22,25.08 A 1.08,1.08 0 0,0 20.04,25.14 A 0.66,0.66 0 0,0 20.47,24.74 L 21.49,24.81 C 21.44,25.05 21.34,25.26 21.17,25.44 A 1.6,1.6 0 0,1 20.56,25.85 C 20.3,25.95 20.01,26 19.68,26 Z M 18.91,23.22 A 0.82,0.82 0 0,0 18.8,23.6 H 20.48 A 0.8,0.8 0 0,0 20.38,23.19 A 0.73,0.73 0 0,0 20.08,22.91 A 0.84,0.84 0 0,0 19.66,22.81 A 0.87,0.87 0 0,0 19.21,22.91 A 0.8,0.8 0 0,0 18.91,23.21 Z M 23,26 V 23.69 C 23,23.49 23.09,23.33 23.16,23.2 A 0.76,0.76 0 0,1 23.46,22.9 C 23.59,22.82 23.74,22.79 23.91,22.79 C 24.16,22.79 24.35,22.86 24.49,23.01 C 24.63,23.16 24.7,23.37 24.7,23.63 V 26 H 25.66 V 23.49 C 25.66,23.17 25.61,22.9 25.49,22.69 A 1.2,1.2 0 0,0 25,22.17 C 24.8,22.06 24.55,22 24.27,22 C 23.97,22 23.71,22.07 23.5,22.2 C 23.3,22.33 23.15,22.5 23.05,22.72 H 23 V 22 H 22 V 26 H 23 Z M 31,26 V 22 H 32 V 22.71 C 32.17,22.26 32.71,22 33.23,22 A 2.94,2.94 0 0,1 33.63,22.03 V 22.88 A 2.34,2.34 0 0,0 33.13,22.83 C 32.68,22.83 32,23.15 32,23.68 V 26 H 31 Z M 36.22,24.48 C 36.39,24.44 36.55,24.37 36.7,24.28 C 36.85,24.18 36.97,24.04 37.05,23.86 C 37.15,23.66 37.18,23.45 37.18,23.2 C 37.18,22.95 37.13,22.75 37.01,22.6 L 37.61,22.72 C 37.65,22.67 37.7,22.58 37.75,22.45 A 0.98,0.98 0 0,0 37.83,22.09 A 4.79,4.79 0 0,0 36.68,22.18 A 2.37,2.37 0 0,0 35.65,22 C 35.19,22 34.83,22.1 34.55,22.3 C 34.27,22.5 34.14,22.8 34.14,23.18 C 34.14,23.67 34.32,24.01 34.67,24.22 C 34.37,24.45 34.18,24.65 34.12,24.81 C 34.14,24.86 34.2,24.95 34.32,25.08 C 34.43,25.2 34.51,25.28 34.56,25.29 C 34.51,25.32 34.4,25.44 34.24,25.64 C 34.08,25.84 34,25.98 34,26.03 C 34,26.3 34.15,26.53 34.46,26.72 C 34.76,26.91 35.16,27 35.66,27 A 2.54,2.54 0 0,0 37.31,26.36 C 37.51,26.16 37.61,25.97 37.61,25.77 C 37.61,25.58 37.58,25.42 37.51,25.3 A 0.7,0.7 0 0,0 37.29,25.03 C 37.1,24.9 36.78,24.83 36.32,24.83 A 3.6,3.6 0 0,1 35.17,24.75 C 35.21,24.69 35.26,24.61 35.31,24.49 C 35.43,24.52 35.57,24.54 35.72,24.54 C 35.88,24.54 36.05,24.52 36.22,24.48 Z M 36.72,25.86 C 36.72,25.97 36.69,26.07 36.66,26.16 C 36.64,26.2 36.52,26.26 36.28,26.34 C 36.04,26.42 35.83,26.46 35.65,26.46 C 35.48,26.46 35.33,26.43 35.21,26.38 A 0.6,0.6 0 0,1 34.97,26.21 L 34.92,26.11 C 34.92,26.07 34.95,25.99 35,25.85 L 35.14,25.54 L 36.2,25.55 C 36.34,25.55 36.46,25.57 36.56,25.62 C 36.66,25.67 36.71,25.76 36.71,25.86 Z M 35.66,22.49 C 35.86,22.49 36,22.55 36.11,22.67 C 36.21,22.79 36.27,22.96 36.27,23.18 C 36.27,23.66 36.07,23.9 35.67,23.9 A 0.56,0.56 0 0,1 35.21,23.71 A 0.78,0.78 0 0,1 35.05,23.19 C 35.05,22.96 35.1,22.79 35.21,22.67 A 0.59,0.59 0 0,1 35.66,22.49 Z M 38.63,26.97 A 2.8,2.8 0 0,0 39.78,26.89 C 39.98,26.82 40.16,26.71 40.3,26.57 C 40.45,26.43 40.56,26.27 40.65,26.07 L 42.5,22 H 41.34 L 40.27,24.75 H 40.22 L 39.16,22 H 38 L 39.68,25.71 L 39.58,25.91 A 0.67,0.67 0 0,1 39.34,26.21 C 39.24,26.26 39.14,26.29 39.01,26.29 C 38.89,26.29 38.75,26.28 38.59,26.24 L 38.33,26.91 L 38.63,26.97 Z M 27.47,25.76 C 27.77,25.92 28.15,26 28.57,26 C 28.92,26 29.23,25.95 29.49,25.85 C 29.76,25.75 29.97,25.62 30.14,25.44 C 30.31,25.26 30.42,25.05 30.48,24.81 L 29.4,24.75 C 29.36,24.85 29.3,24.93 29.23,25 A 0.75,0.75 0 0,1 28.95,25.15 C 28.85,25.18 28.73,25.2 28.6,25.2 C 28.4,25.2 28.23,25.16 28.1,25.08 A 0.8,0.8 0 0,1 27.76,24.76 C 27.69,24.62 27.65,24.46 27.65,24.26 H 30.5 V 23.96 C 30.5,23.64 30.45,23.35 30.35,23.1 A 1.65,1.65 0 0,0 29.3,22.12 C 29.06,22.04 28.8,22 28.53,22 C 28.12,22 27.76,22.08 27.46,22.25 C 27.16,22.42 26.92,22.65 26.76,22.95 C 26.58,23.25 26.5,23.61 26.5,24 C 26.5,24.41 26.58,24.77 26.75,25.07 C 26.92,25.37 27.15,25.59 27.47,25.76 Z M 29.41,23.6 H 27.65 A 0.83,0.83 0 0,1 28.08,22.92 C 28.22,22.84 28.38,22.8 28.55,22.8 C 28.72,22.8 28.87,22.84 28.99,22.9 A 0.76,0.76 0 0,1 29.41,23.6 Z M 6,34 V 28 H 5 V 34 H 6 Z M 50,34 V 29 H 49 V 34 H 50 Z M 35,34 V 30 H 36 V 34 H 35 Z M 35.49,29 A 0.69,0.69 0 0,1 35.05,28.85 A 0.45,0.45 0 0,1 34.86,28.5 C 34.86,28.36 34.92,28.24 35.05,28.14 C 35.17,28.04 35.32,28 35.49,28 C 35.66,28 35.81,28.04 35.93,28.14 C 36.06,28.24 36.12,28.36 36.12,28.5 C 36.12,28.64 36.06,28.75 35.93,28.85 A 0.68,0.68 0 0,1 35.49,29 Z M 37.82,33.75 C 38.08,33.92 38.39,34 38.75,34 C 39.11,34 39.42,33.92 39.68,33.75 C 39.94,33.58 40.14,33.35 40.28,33.05 C 40.43,32.75 40.5,32.4 40.5,32 S 40.43,31.25 40.28,30.95 C 40.14,30.65 39.94,30.42 39.68,30.25 A 1.69,1.69 0 0,0 38.75,30 C 38.39,30 38.08,30.08 37.82,30.25 C 37.56,30.42 37.36,30.65 37.22,30.95 C 37.07,31.25 37,31.6 37,32 S 37.07,32.75 37.21,33.05 C 37.36,33.35 37.56,33.58 37.82,33.75 Z M 39.24,33.1 A 0.71,0.71 0 0,1 38.75,33.27 A 0.73,0.73 0 0,1 38.26,33.1 A 1.04,1.04 0 0,1 37.96,32.64 C 37.9,32.44 37.87,32.24 37.87,32 S 37.9,31.55 37.97,31.36 C 38.03,31.16 38.13,31.01 38.26,30.9 C 38.39,30.78 38.56,30.72 38.76,30.72 C 38.95,30.72 39.11,30.78 39.24,30.9 C 39.37,31.01 39.47,31.16 39.53,31.36 C 39.59,31.55 39.63,31.76 39.63,32 S 39.59,32.45 39.53,32.64 C 39.47,32.84 39.37,32.99 39.24,33.1 Z M 28.36,34 C 28.1,34 27.86,33.96 27.66,33.87 C 27.46,33.78 27.3,33.65 27.18,33.47 A 1.11,1.11 0 0,1 27,32.84 C 27,32.62 27.04,32.44 27.13,32.29 C 27.21,32.15 27.33,32.04 27.47,31.95 C 27.62,31.87 27.78,31.8 27.97,31.75 L 28.54,31.65 C 28.78,31.64 28.97,31.61 29.12,31.6 A 0.89,0.89 0 0,0 29.44,31.5 C 29.51,31.46 29.54,31.4 29.54,31.31 V 31.3 A 0.56,0.56 0 0,0 29.37,30.85 C 29.25,30.75 29.07,30.7 28.86,30.7 A 0.95,0.95 0 0,0 28.3,30.84 A 0.73,0.73 0 0,0 28.02,31.19 L 27.13,31.07 C 27.2,30.83 27.32,30.64 27.48,30.47 C 27.64,30.32 27.84,30.2 28.08,30.12 A 2.64,2.64 0 0,1 29.44,30.06 C 29.63,30.11 29.81,30.18 29.97,30.28 C 30.13,30.38 30.26,30.52 30.35,30.68 C 30.45,30.86 30.5,31.08 30.5,31.33 V 34 H 29.58 V 33.39 H 29.55 A 1.12,1.12 0 0,1 28.91,33.92 C 28.75,33.97 28.57,34 28.36,34 Z M 28.61,33.33 C 28.8,33.33 28.96,33.29 29.11,33.23 A 0.82,0.82 0 0,0 29.43,32.93 A 0.72,0.72 0 0,0 29.55,32.53 V 32.08 A 0.46,0.46 0 0,1 29.39,32.14 L 29.16,32.2 A 7.56,7.56 0 0,1 28.66,32.27 C 28.53,32.28 28.4,32.31 28.29,32.36 C 28.17,32.4 28.09,32.46 28.02,32.53 A 0.42,0.42 0 0,0 27.92,32.82 C 27.92,32.99 27.99,33.12 28.12,33.2 C 28.24,33.29 28.41,33.33 28.61,33.33 Z M 45.66,33.87 C 45.86,33.96 46.09,34 46.34,34 C 46.55,34 46.74,33.97 46.89,33.92 A 1.18,1.18 0 0,0 47.52,33.39 H 47.55 V 34 H 48.45 V 31.33 C 48.45,31.07 48.41,30.86 48.31,30.69 A 1.1,1.1 0 0,0 47.93,30.29 C 47.77,30.19 47.6,30.11 47.41,30.07 A 2.58,2.58 0 0,0 46.06,30.12 C 45.83,30.2 45.64,30.32 45.47,30.48 C 45.31,30.64 45.2,30.83 45.13,31.07 L 46.01,31.19 A 0.73,0.73 0 0,1 46.28,30.84 C 46.42,30.74 46.6,30.7 46.83,30.7 C 47.05,30.7 47.23,30.75 47.33,30.85 C 47.46,30.95 47.51,31.11 47.51,31.3 V 31.31 C 47.51,31.4 47.48,31.46 47.41,31.51 A 0.87,0.87 0 0,1 47.09,31.6 L 46.52,31.66 C 46.32,31.68 46.14,31.71 45.96,31.76 C 45.77,31.8 45.61,31.86 45.46,31.96 A 0.95,0.95 0 0,0 45.13,32.29 C 45.04,32.44 45,32.62 45,32.84 C 45,33.09 45.06,33.3 45.17,33.48 C 45.29,33.65 45.45,33.78 45.66,33.87 Z M 47.08,33.22 C 46.94,33.29 46.78,33.33 46.58,33.33 A 0.85,0.85 0 0,1 46.1,33.2 A 0.43,0.43 0 0,1 45.91,32.82 C 45.91,32.7 45.94,32.61 46.01,32.53 A 0.63,0.63 0 0,1 46.27,32.36 C 46.38,32.31 46.51,32.28 46.65,32.26 H 46.75 L 46.87,32.24 A 7.36,7.36 0 0,0 47.37,32.14 A 0.45,0.45 0 0,0 47.52,32.08 V 32.53 C 47.52,32.68 47.48,32.81 47.4,32.93 A 0.82,0.82 0 0,1 47.08,33.23 Z M 19,34 V 30 H 20 V 30.75 H 20.06 C 20.14,30.51 20.28,30.33 20.48,30.2 C 20.68,30.07 20.9,30 21.16,30 A 2.6,2.6 0 0,1 21.54,30.03 V 30.93 A 2.08,2.08 0 0,0 21.05,30.87 C 20.53,30.87 20,31.21 20,31.77 V 34 H 19 Z M 13.96,30.68 V 30 H 13 V 29 L 12,29.69 V 30 H 11.32 V 30.68 H 12 V 32.9 C 12,33.7 12.71,34.02 13.4,34 A 2.32,2.32 0 0,0 14.04,33.9 L 13.86,33.17 A 1.74,1.74 0 0,1 13.55,33.21 C 13.25,33.21 13,33.06 13,32.74 V 30.68 H 13.96 Z M 33.9,30 V 30.68 H 33 V 32.74 C 33,33.06 33.19,33.21 33.49,33.21 A 1.2,1.2 0 0,0 33.8,33.17 L 33.99,33.91 A 2.71,2.71 0 0,1 33.35,34 C 32.65,34.02 32,33.7 32.01,32.9 V 30.68 H 31.26 V 30 H 32 V 29.69 L 32.99,28.99 V 30 H 33.89 Z M 8,34 V 31.69 C 8,31.13 8.5,30.79 9.04,30.79 C 9.59,30.79 10,31.1 10,31.63 V 34 H 11 V 31.49 C 11,30.57 10.33,30 9.44,30 C 9.1,30 8.81,30.07 8.58,30.2 C 8.35,30.33 8.18,30.5 8.08,30.72 H 8 V 30 H 7 V 34 H 8 Z M 23,31.69 V 34 H 22 V 30 H 23 V 30.72 H 23.08 C 23.29,30.28 23.76,30 24.44,30 C 25.33,30 26.01,30.57 26,31.49 V 34 H 25 V 31.63 C 25,31.1 24.6,30.79 24.04,30.79 C 23.5,30.79 23,31.13 23,31.69 Z M 42,34 V 31.69 C 42,31.18 42.3,30.79 42.82,30.79 C 43.06,30.79 43.26,30.86 43.39,31.01 C 43.54,31.16 43.61,31.37 43.61,31.63 V 34 H 44.56 V 31.49 C 44.56,31.17 44.51,30.9 44.39,30.69 A 1.2,1.2 0 0,0 43.9,30.17 C 43.7,30.06 43.45,30 43.17,30 C 42.87,30 42.61,30.07 42.41,30.2 C 42.23,30.3 42.09,30.46 42,30.64 V 30 H 41 V 34 H 42 Z M 16.08,34 C 15.65,34 15.28,33.92 14.97,33.76 C 14.66,33.59 14.42,33.36 14.25,33.06 C 14.08,32.76 14,32.41 14,32.01 S 14.08,31.26 14.25,30.96 C 14.42,30.66 14.65,30.42 14.95,30.26 C 15.26,30.08 15.62,30 16.03,30 C 16.31,30 16.56,30.04 16.8,30.12 A 1.65,1.65 0 0,1 17.85,31.1 C 17.95,31.35 18,31.64 18,31.97 V 32.27 H 15.15 C 15.15,32.46 15.19,32.62 15.26,32.77 A 0.8,0.8 0 0,0 15.59,33.08 A 1.18,1.18 0 0,0 16.45,33.14 C 16.55,33.11 16.65,33.06 16.73,33 A 0.66,0.66 0 0,0 16.9,32.75 L 17.98,32.81 C 17.92,33.05 17.81,33.26 17.64,33.44 A 1.7,1.7 0 0,1 16.99,33.85 C 16.73,33.95 16.42,34 16.08,34 Z M 15.27,31.22 A 0.8,0.8 0 0,0 15.15,31.6 H 16.91 A 0.76,0.76 0 0,0 16.5,30.9 A 0.92,0.92 0 0,0 16.05,30.8 A 0.95,0.95 0 0,0 15.58,30.92 A 0.83,0.83 0 0,0 15.27,31.22 Z" fill="rgb(43, 119, 154)"/>
</svg>
