<?xml version="1.0" encoding="UTF-8"?>
<!-- generated by Finnhub -->
<svg viewBox="0 0 55.5 55.5" xmlns="http://www.w3.org/2000/svg">
<path d="M0 0h55.5v55.5H0z" fill="rgb(239, 242, 248)"/>
<path d="M28 43a15 15 0 0 0 14.46-18.99c-1.29.17-2.87.44-3.84 1.1a11.01 11.01 0 0 1-17.28 11.65l.03.12a7.67 7.67 0 0 1-4.12 1.58A14.96 14.96 0 0 0 28 43Zm0-26c2.58 0 4.96.9 6.84 2.38.69-.72 1.85-1.6 3.54-2.2a15 15 0 0 0-25.06 13.94c1.26.1 2.96.1 4.02-.38A11.02 11.02 0 0 1 28 17Z"/>
<circle cx="9.5" cy="36.5" r="2.5" fill="rgb(52, 171, 226)"/>
<circle cx="46.5" cy="19.5" r="2.5" fill="rgb(52, 171, 226)"/>
<circle cx="41" cy="20" r="2" fill="rgb(52, 171, 226)"/>
<circle cx="15" cy="36" r="2" fill="rgb(52, 171, 226)"/>
<circle cx="19.5" cy="34.5" r="1.5" fill="rgb(52, 171, 226)"/>
<circle cx="36.5" cy="21.5" r="1.5" fill="rgb(52, 171, 226)"/>
<circle cx="32" cy="24" r="1" fill="rgb(52, 171, 226)"/>
<circle cx="24" cy="32" r="1" fill="rgb(52, 171, 226)"/>
<circle cx="26.5" cy="29.5" r=".5" fill="rgb(52, 171, 226)"/>
<circle cx="29.5" cy="26.5" r=".5" fill="rgb(52, 171, 226)"/>
</svg>
