<?xml version="1.0" encoding="UTF-8"?>
<!-- generated by Finnhub -->
<svg viewBox="0 0 55.5 55.5" xmlns="http://www.w3.org/2000/svg">
<path d="M0 0h55.5v55.5H0z" fill="rgb(239, 242, 248)"/>
<path d="M8 20h40v16H8V20Zm1 1h38v14H9V21Zm1 3v-1h8v1.12L11.44 32H18v1h-8v-1.01L16.64 24H10Zm10-1h1v10h-1V23Zm15 0h-1v10h1V23Zm-3.26 8.35A4.98 4.98 0 0 1 23 28.02a5.01 5.01 0 0 1 8.76-3.3l-.8.6A3.99 3.99 0 0 0 24 28a4 4 0 0 0 6.93 2.72l.81.63ZM38.42 23H37l3.6 4.99L37 33h1.39l2.92-4.04L44.23 33h1.39l-3.6-5.01 3.6-4.99H44.2l-2.89 4.01L38.42 23Z" fill-rule="evenodd"/>
</svg>
