<?xml version="1.0" encoding="UTF-8"?>
<!-- generated by Finnhub -->
<svg viewBox="0 0 55.5 55.5" xmlns="http://www.w3.org/2000/svg">
<path d="M 0,0 H 55.5 V 55.5 H 0 Z" fill="rgb(239, 242, 248)"/>
<path d="M 24.99,14.985 H 31 V 21.5 L 28,23 L 25,22 V 15 Z" fill="rgb(0, 148, 241)" fill-opacity=".5"/>
<path d="M 30.99,10.985 V 15.8 C 30.16,15.93 28.79,16.17 28.33,16.33 C 27.67,16.57 26.96,16.81 26.37,16.81 C 25.99,16.81 25.41,16.67 25,16.48 V 11 C 25.5,11.31 26.85,11.85 28.09,11.85 A 6.6,6.6 0 0,0 31,11 Z M 31,21.58 V 21.45 C 29.78,21.85 28.07,22.35 27.32,22.35 C 26.73,22.35 25.62,22.19 25,22 L 28.09,25 L 31,21.58 Z M 18.02,19.6 C 12.03,21.67 8,25.55 8,30 C 8,36.63 16.95,42 28,42 C 39.05,42 48,36.63 48,30 C 48,25.59 44.03,21.73 38.12,19.65 L 39.55,23.08 C 42.31,24.88 44,27.32 44,30 C 44,35.52 36.84,40 28,40 S 12,35.52 12,30 C 12,27.26 13.76,24.78 16.62,22.97 L 18.02,19.6 Z M 21,28.5 C 21,28.36 21.05,28.24 21.15,28.14 C 21.25,28.04 21.36,28 21.5,28 A 0.48,0.48 0 0,1 22,28.5 C 22,28.64 21.95,28.76 21.85,28.86 C 21.75,28.96 21.64,29 21.5,29 A 0.48,0.48 0 0,1 21.15,28.86 A 0.48,0.48 0 0,1 21,28.5 Z M 31.5,28 H 30 V 34 H 31.5 V 28 Z M 37,28 H 38.5 V 31.91 S 39.77,30.32 40.06,30 H 41 L 39.44,31.75 S 40.47,33.21 41,34 H 39.59 L 38.5,32.18 V 34 H 37 V 28 Z M 34.5,31.95 C 34.5,31.45 34.5,30.35 34.01,30.35 C 33.48,30.35 33.49,31.25 33.5,31.79 V 31.95 C 33.5,32.47 33.52,33.65 34,33.65 C 34.5,33.65 34.5,32.45 34.5,31.95 Z M 32,31.95 C 32,30.83 32.77,30 34,30 C 35.18,30 36,30.81 36,31.95 C 36,33.06 35.22,34 34,34 C 32.83,34 32,33.09 32,31.95 Z M 23,30 H 24.5 V 34 H 23 V 30 Z M 27.6,30 C 27.04,30 26.82,30.25 26.5,30.66 V 30 H 25 V 34 H 26.5 V 31.66 C 26.48,31.2 26.46,30.66 27.04,30.66 C 27.54,30.66 27.52,31.06 27.51,31.46 L 27.5,31.66 V 34 H 29 V 31.45 C 29,30.62 28.59,30 27.6,30 Z M 23.15,28.14 C 23.05,28.24 23,28.36 23,28.5 C 23,28.64 23.05,28.76 23.15,28.86 C 23.25,28.96 23.36,29 23.5,29 C 23.64,29 23.76,28.95 23.85,28.86 C 23.95,28.76 24,28.64 24,28.5 A 0.48,0.48 0 0,0 23.85,28.14 A 0.48,0.48 0 0,0 23.5,28 A 0.48,0.48 0 0,0 23.15,28.14 Z M 20,35.67 C 20.58,35.51 20.57,35.17 20.56,34.72 V 30 H 22 V 33.99 C 22,34.76 21.66,35.5 20.9,35.81 C 20.68,35.9 20.42,35.96 20.12,36 L 20,35.67 Z M 18.15,29.57 L 15,33.87 V 34 H 20 V 33.42 H 16.88 S 18.9,30.54 20,29.12 V 29 H 15.37 V 29.57 H 18.15 Z" fill="url(#a)"/>
<defs>
<linearGradient id="a" x1="48" x2="8" y1="26.5" y2="26.5" gradientUnits="userSpaceOnUse">
<stop stop-color="rgb(1, 193, 248)" offset="0"/>
<stop stop-color="rgb(1, 98, 233)" offset="1"/>
</linearGradient>
</defs>
</svg>
