<?xml version="1.0" encoding="UTF-8"?>
<!-- generated by Finnhub -->
<svg viewBox="0 0 55.5 55.5" xmlns="http://www.w3.org/2000/svg">
<path d="M 0,0 H 55.5 V 55.5 H 0 Z" fill="rgb(239, 242, 248)"/>
<path d="M 35.99,26.055 V 22.24 C 36,22.18 36.02,22.12 36.07,22.08 C 36.11,22.04 36.17,22 36.23,22 H 38.77 A 0.23,0.23 0 0,1 39,22.23 V 26.33 L 38.97,26.43 A 0.23,0.23 0 0,1 38.74,26.55 L 36.23,26.29 A 0.23,0.23 0 0,1 36.08,26.22 C 36.05,26.18 36,26.12 36,26.07 Z M 45,25.77 V 22.12 C 45,22.09 45.02,22.06 45.04,22.04 A 0.13,0.13 0 0,1 45.13,22 H 47.88 C 47.91,22 47.94,22.02 47.96,22.04 C 47.99,22.06 48,22.1 48,22.13 V 25.1 C 48,25.13 47.96,25.16 47.95,25.18 A 0.12,0.12 0 0,1 47.88,25.22 L 45.16,25.89 A 0.13,0.13 0 0,1 45.01,25.83 A 0.12,0.12 0 0,1 45,25.77 Z M 24,28.68 V 33.77 C 24,33.9 23.98,34 23.85,34 H 21.2 C 21.11,34 21.01,33.85 21.01,33.77 V 22.13 C 21.01,22.08 21.04,22 21.09,22 H 23.94 C 23.96,22 24.01,22.1 24.01,22.13 V 27.23 C 24.01,27.46 24.09,27.48 24.24,27.33 L 28.89,22.41 C 29.15,22.13 29.47,22 29.85,22 H 32.65 C 33.03,22 33.09,22.18 32.83,22.45 L 27.67,27.9 A 0.16,0.16 0 0,0 27.63,28 C 27.63,28.05 27.65,28.09 27.67,28.12 L 32.87,33.59 C 33.1,33.85 33.05,33.99 32.7,34 H 29.86 C 29.46,34 29.13,33.86 28.86,33.58 L 24.18,28.62 C 24.08,28.52 24.01,28.53 24.01,28.68 Z M 13.77,24.34 L 6.12,24.36 C 6.05,24.36 6,24.33 6,24.26 V 22.07 C 6,22.02 6.04,22 6.1,22 H 17.74 C 17.79,22 17.84,22.02 17.89,22.06 C 17.93,22.1 17.95,22.16 17.95,22.21 C 17.97,22.91 18.16,24.21 17.59,24.74 C 14.99,27.13 12.57,29.34 10.34,31.34 C 10.14,31.53 10.18,31.62 10.45,31.62 H 17.81 C 17.85,31.62 17.89,31.63 17.92,31.66 S 18,31.73 18,31.76 V 33.77 C 18,33.92 17.89,34 17.73,34 H 6.16 A 0.15,0.15 0 0,1 6.06,33.95 A 0.14,0.14 0 0,1 6.01,33.85 C 6.04,33.38 6.03,32.9 6.01,32.38 C 5.96,31.58 6.51,31.1 7.05,30.61 C 9.35,28.57 11.6,26.53 13.82,24.49 C 13.92,24.39 13.91,24.34 13.77,24.34 Z" fill="rgb(229, 43, 51)"/>
<path d="M 38.99,29.564999999999998 V 33.82 C 39,33.93 38.93,34 38.82,34 H 36.1 C 36.02,34 36,33.9 36,33.82 V 28.86 C 36,28.74 35.89,28.63 35.78,28.56 C 35.1,28.18 33.42,27.36 33.07,26.69 C 32.9,26.37 33,26.26 33.34,26.39 C 35.86,27.25 38.37,27.51 41.05,27.29 A 38.01,38.01 0 0,0 51.86,24.74 A 0.1,0.1 0 0,1 51.95,24.78 L 51.96,24.82 L 51.98,24.92 C 52.01,25.08 51.95,25.21 51.81,25.3 L 48.13,27.42 A 0.28,0.28 0 0,0 47.99,27.66 V 33.84 C 47.99,33.94 47.95,34 47.84,34 H 45.17 C 45.05,34 44.99,33.94 44.99,33.83 V 28.83 C 44.99,28.7 44.85,28.65 44.71,28.69 C 42.91,29.2 41.03,29.44 39.18,29.39 C 39.05,29.39 38.98,29.46 38.98,29.58 Z" fill="rgb(229, 43, 51)"/>
</svg>
