<?xml version="1.0" encoding="UTF-8"?>
<!-- generated by Finnhub -->
<svg viewBox="0 0 55.5 55.5" xmlns="http://www.w3.org/2000/svg">
<path d="M0 0h55.5v55.5H0z" fill="rgb(239, 242, 248)"/>
<path d="m40.77 23.74c-12.22-6.07-24.94 5.2-29.77 11.6 7.45-8.59 20.74-14.48 28.01-10 5.82 3.58 4.65 10.6 3.33 13.66 2.32-3.34 5.25-11.06-1.57-15.26z"/>
<path d="m14.56 14-.72 9h1.29c.16-.48.48-1.57.48-1.76C17.3 17 20.42 16 21.76 16h14.29L13 38.54V42h28v-9h-1.33c0 4.44-4.95 7-7.52 7h-14.9L40 16.95V14H14.56Z" fill="rgb(147, 79, 161)"/>
<path d="M29.33 33h-2.88l5.56-5 3 5-3 7V28.3L29.33 33Z" fill="rgb(136, 136, 135)"/>
<path d="m32 40-5.48-7h2.81L32 40Z" fill="rgb(46, 46, 45)"/>
<path d="M35 33s-2.02-3.22-2.99-4.98L37.45 33H35Z" fill="rgb(99, 99, 98)"/>
</svg>
