<?xml version="1.0" encoding="UTF-8"?>
<!-- generated by Finnhub -->
<svg viewBox="0 0 55.5 55.5" xmlns="http://www.w3.org/2000/svg">
<path d="M 0,0 H 55.5 V 55.5 H 0 Z" fill="rgb(239, 242, 248)"/>
<path d="M 40.35,32.015 A 13,13 0 1,1 31.61,15.51 L 32.71,12.71 A 15.98,15.98 0 0,0 12,28 A 15.97,15.97 0 0,0 43,33.38 L 40.35,32.04 Z M 27.96,38 C 30.96,38 33.65,36.68 35.48,34.58 L 32.73,33.16 A 7,7 0 1,1 31.89,22.18 L 33.07,19.4 A 9.99,9.99 0 1,0 27.97,38 Z M 40.5,26 A 3.5,3.5 0 1,0 40.5,19 A 3.5,3.5 0 0,0 40.5,26 Z M 36.5,32 A 2.5,2.5 0 1,0 36.5,27 A 2.5,2.5 0 0,0 36.5,32 Z M 44,28.5 A 1.5,1.5 0 1,1 41,28.5 A 1.5,1.5 0 0,1 44,28.5 Z M 36,18 A 2,2 0 1,0 36,14 A 2,2 0 0,0 36,18 Z" fill="url(#a)"/>
<defs>
<linearGradient id="a" x1="42.28" x2="13.52" y1="18.91" y2="34.92" gradientUnits="userSpaceOnUse">
<stop stop-color="rgb(53, 142, 140)" offset="0"/>
<stop stop-color="rgb(13, 33, 57)" offset="1"/>
</linearGradient>
</defs>
</svg>
