<?xml version="1.0" encoding="UTF-8"?>
<!-- generated by Finnhub -->
<svg viewBox="0 0 55.5 55.5" xmlns="http://www.w3.org/2000/svg">
<path d="M 0,0 H 55.5 V 55.5 H 0 Z" fill="rgb(111, 1, 251)"/>
<path d="M 37.99,27.985 A 10,10 0 0,1 21.42,35.53 L 17.04,39.65 A 16,16 0 1,0 16.91,16.46 L 21.47,20.42 A 10,10 0 0,1 38,28 Z" fill="rgb(239, 242, 248)"/>
<path d="M 12.6,32.385 L 17.24,28.02 L 12.54,23.84 A 16.02,16.02 0 0,0 12.61,32.4 Z" fill="rgb(239, 242, 248)"/>
<path d="M 13.36,14.985 C 13.57,15 13.77,15.07 13.92,15.2 L 27.76,27.2 C 28.07,27.46 28.08,27.9 27.78,28.19 L 14.38,40.79 A 0.82,0.82 0 0,1 13.81,41 A 0.82,0.82 0 0,1 13.27,40.8 L 9.63,37.61 A 0.66,0.66 0 0,1 9.61,36.61 L 18.7,28 L 9.23,19.55 A 0.66,0.66 0 0,1 9.21,18.55 L 12.81,15.22 A 0.82,0.82 0 0,1 13.36,15 Z" fill="rgb(1, 245, 196)"/>
</svg>
