<!-- by Finnhub --><svg width="56" height="56" viewBox="0 0 56 56" fill="none" xmlns="http://www.w3.org/2000/svg">
<rect width="56" height="56" fill="#F0F3FA"/>
<path fill-rule="evenodd" clip-rule="evenodd" d="M27.9999 35.4644L31.4 40.2327L34.8 45H31.4H27.9999H24.5999H21.2002L24.5999 40.2327L27.9999 35.4644Z" fill="#7550D8"/>
<path fill-rule="evenodd" clip-rule="evenodd" d="M27.9998 8L31.3999 12.7677L27.9998 17.5357L24.5998 12.7677L27.9998 8ZM17.8838 41.4488L21.2001 36.6071L24.6001 31.8394L28.0002 27.0714L24.651 22.3754L24.6001 22.3037L21.2001 27.0714L17.8001 31.8394L14.4 36.6071L17.8838 41.4488ZM27.9998 17.5357L24.5998 12.7677L21.1998 17.5357L17.7997 22.3034L14.3997 27.0711L11 31.8391L14.4 36.6071L17.8001 31.8394L27.9998 17.5357ZM28.0002 27.0714L31.3999 31.8391L34.7999 36.6068L38.1999 31.8391L41.6 36.6068L45 31.8391L41.6 27.0711L38.1999 22.3034L34.7999 17.5357L31.3999 12.7677L27.9998 17.5357L24.6001 22.3037L28.0002 27.0714ZM34.7999 36.6068L38.1999 31.8391L41.6 36.6068L38.0165 41.1197L34.7999 36.6068Z" fill="#3F548B"/>
<path fill-rule="evenodd" clip-rule="evenodd" d="M38.0024 22.0875V31.9905L34.7998 27.0716L38.0024 22.0875Z" fill="#84A1D3"/>
<path fill-rule="evenodd" clip-rule="evenodd" d="M31.4 12.7678V22.3032L28 17.5355L31.4 12.7678Z" fill="#84A1D3"/>
<path fill-rule="evenodd" clip-rule="evenodd" d="M34.9966 17.7972V27.1108L31.3999 22.3033L34.9966 17.7972Z" fill="#84A1D3"/>
<path fill-rule="evenodd" clip-rule="evenodd" d="M41.5995 27.0715V36.6072L38.0039 31.8232L41.5995 27.0715Z" fill="#84A1D3"/>
<path fill-rule="evenodd" clip-rule="evenodd" d="M31.4 22.3035V31.8395L28 27.0715L31.4 22.3035Z" fill="#84A1D3"/>
<path fill-rule="evenodd" clip-rule="evenodd" d="M35 26.7209V36.898L31.3999 31.8394L35 26.7209Z" fill="#84A1D3"/>
<path fill-rule="evenodd" clip-rule="evenodd" d="M37.9999 31.8513V41.1287L34.7998 36.607L37.9999 31.8513Z" fill="#84A1D3"/>
<path fill-rule="evenodd" clip-rule="evenodd" d="M28 17.5357V8L31.4 12.768L28 17.5357Z" fill="#3D4BAD"/>
<path fill-rule="evenodd" clip-rule="evenodd" d="M31.3999 22.3032V12.7678L35.0088 17.8165L31.3999 22.3032Z" fill="#3D4BAD"/>
<path fill-rule="evenodd" clip-rule="evenodd" d="M34.9971 27.0141L34.9971 17.8074L38.1997 22.3033L34.9971 27.0141Z" fill="#3D4BAD"/>
<path fill-rule="evenodd" clip-rule="evenodd" d="M38.0012 32.1192L38.001 22.0266L41.5998 27.0715L38.0012 32.1192Z" fill="#3D4BAD"/>
<path fill-rule="evenodd" clip-rule="evenodd" d="M41.5996 36.6072V27.0715L44.9996 31.8395L41.5996 36.6072Z" fill="#3D4BAD"/>
<path fill-rule="evenodd" clip-rule="evenodd" d="M28 27.0713V17.5356L31.4 22.3033L28 27.0713Z" fill="#3D4BAD"/>
<path fill-rule="evenodd" clip-rule="evenodd" d="M31.3999 31.8395V22.3035L35.0071 26.9752L31.3999 31.8395Z" fill="#3D4BAD"/>
<path fill-rule="evenodd" clip-rule="evenodd" d="M35 36.9227V26.981L38.1996 31.8395L35 36.9227Z" fill="#3D4BAD"/>
<path fill-rule="evenodd" clip-rule="evenodd" d="M38 41.1333L38 31.748L41.5996 36.607L38 41.1333Z" fill="#3D4BAD"/>
<path fill-rule="evenodd" clip-rule="evenodd" d="M27.9996 27.0713V17.5356L24.5996 22.3033L27.9996 27.0713Z" fill="#3D4BAD"/>
<path fill-rule="evenodd" clip-rule="evenodd" d="M27.9996 17.5357V8L24.5996 12.768L27.9996 17.5357Z" fill="#3D4BAD"/>
<path fill-rule="evenodd" clip-rule="evenodd" d="M24.5999 22.3032V12.7678L21.2002 17.5355L24.5999 22.3032Z" fill="#3D4BAD"/>
<path fill-rule="evenodd" clip-rule="evenodd" d="M20.9967 26.9802V17.8158L17.8003 22.3034L20.9967 26.9802Z" fill="#6E9BDB"/>
<path fill-rule="evenodd" clip-rule="evenodd" d="M17.9998 32.1226V21.9972L14.3999 27.0715L17.9998 32.1226Z" fill="#6E9BDB"/>
<path fill-rule="evenodd" clip-rule="evenodd" d="M14.4002 36.6072V27.0715L11.0005 31.8395L14.4002 36.6072Z" fill="#6E9BDB"/>
<path fill-rule="evenodd" clip-rule="evenodd" d="M24.5999 31.9725L24.5999 22.3035L21.1201 27.0585L24.5999 31.9725Z" fill="#6E9BDB"/>
<path fill-rule="evenodd" clip-rule="evenodd" d="M21.0002 36.9299V27.2053L17.8003 31.8395L21.0002 36.9299Z" fill="#6E9BDB"/>
<path fill-rule="evenodd" clip-rule="evenodd" d="M17.9998 41.6228V31.558L14.3999 36.6071L17.9998 41.6228Z" fill="#6E9BDB"/>
<path fill-rule="evenodd" clip-rule="evenodd" d="M24.5996 12.7678V22.3032L27.9996 17.5355L24.5996 12.7678Z" fill="#92CBEA"/>
<path fill-rule="evenodd" clip-rule="evenodd" d="M21 17.7794V27.3393L24.5998 22.3033L21 17.7794Z" fill="#92CBEA"/>
<path fill-rule="evenodd" clip-rule="evenodd" d="M18 21.9972V31.6535L21.2001 27.0715L18 21.9972Z" fill="#92CBEA"/>
<path fill-rule="evenodd" clip-rule="evenodd" d="M14.3999 27.0715V36.6072L18.0211 31.6018L14.3999 27.0715Z" fill="#92CBEA"/>
<path fill-rule="evenodd" clip-rule="evenodd" d="M24.5996 22.3035V32.005L27.9996 27.0715L24.5996 22.3035Z" fill="#92CBEA"/>
<path fill-rule="evenodd" clip-rule="evenodd" d="M21 26.7764V37.1805L24.624 31.966L21 26.7764Z" fill="#92CBEA"/>
<path fill-rule="evenodd" clip-rule="evenodd" d="M18 31.558L18 41.6227L21.188 36.9047L18 31.558Z" fill="#92CBEA"/>
<path fill-rule="evenodd" clip-rule="evenodd" d="M28 45V35.4644L31.4 40.2327L28 45Z" fill="#9D46F9"/>
<path fill-rule="evenodd" clip-rule="evenodd" d="M27.9996 45V35.4644L24.5996 40.2327L27.9996 45Z" fill="#9D46F9"/>
<path fill-rule="evenodd" clip-rule="evenodd" d="M24.5999 45.0002H27.9999L24.5999 40.2328L21.2002 45.0002H24.5999Z" fill="#7550D8"/>
</svg>
