<?xml version="1.0" encoding="UTF-8"?>
<!-- generated by Finnhub -->
<svg viewBox="0 0 55.5 55.5" xmlns="http://www.w3.org/2000/svg">
<path d="M 0,0 H 55.5 V 55.5 H 0 Z" fill="rgb(239, 242, 248)"/>
<path d="M 27.29,24.985 C 28.5,25 29,26 29,26.79 V 28.19 C 29,29 28.31,30.05 27.3,29.99 L 24,30 V 25 H 27.3 Z M 25,26 V 29 H 27.08 C 27.42,29 28,28.49 28,28.12 V 26.88 C 28,26.52 27.42,26 27.08,26 H 25 Z M 29,30 L 30.98,26 H 32.02 L 34,30 H 32.8 L 32.43,29.27 H 30.55 L 30.18,30 H 29 Z M 31.07,28.28 H 31.95 L 31.5,27.38 L 31.07,28.28 Z M 34.5,26 H 37.17 C 37.99,25.96 38.54,26.65 38.5,27.43 V 30 H 37.5 V 27.5 C 37.5,27.22 37.22,27 36.95,27 H 35.5 V 30 H 34.5 V 26 Z M 40.48,29.98 C 39.65,30.02 38.96,29.41 39,28.55 V 27.43 C 38.96,26.57 39.65,25.96 40.48,26 H 43 V 27 H 40.69 C 40.42,27 40,27.21 40,27.5 V 28.5 C 40,28.8 40.42,29 40.69,29 H 43 V 30 L 40.48,29.98 Z M 44.98,30 C 44.14,30.04 43.46,29.4 43.5,28.55 V 27.43 C 43.45,26.57 44.15,25.96 44.98,26 H 47.5 V 27 H 45.19 C 44.92,27 44.56,27.2 44.56,27.5 H 47.5 V 28.5 H 44.56 C 44.56,28.8 44.92,29 45.19,29 H 47.49 V 30 H 44.98 Z M 48,26 H 50.71 C 51.48,26 52,26.54 52,27.3 C 52,27.63 51.86,27.81 51.68,28.08 C 51.89,28.29 52,28.48 52,28.78 V 30 H 51 V 28.8 C 51,28.71 50.87,28.57 50.77,28.57 H 49 V 30 H 48 V 26 Z M 49,27.01 V 27.58 H 50.75 C 50.89,27.58 51,27.41 51,27.29 A 0.3,0.3 0 0,0 50.7,26.99 L 49,27.01 Z" fill="rgb(33, 88, 155)"/>
<path d="M 51.620000000000005,32.095 C 51.83,32.01 51.98,31.77 52,31.51 C 52,31.23 51.81,31 51.58,31 C 45.44,31.83 9.4,31.83 6.17,31.34 C 6.02,31.34 5.97,31.54 6.02,31.72 C 6.54,33.32 32.45,33.16 45,32.63 C 45.11,33.73 45.52,34.74 46.15,35.53 A 3.67,3.67 0 0,0 49,37 V 35.65 C 48.23,35.65 47.48,35.26 46.93,34.6 A 4.05,4.05 0 0,1 46.11,32.59 L 46.41,32.57 C 46.64,34.11 47.71,35.28 49,35.28 V 33.91 C 48.58,33.91 48.19,33.71 47.91,33.35 C 47.72,33.11 47.59,32.83 47.51,32.51 L 47.82,32.5 C 47.99,33.1 48.45,33.54 49,33.54 V 32.42 C 50.47,32.32 51.41,32.22 51.63,32.12 Z" fill="rgb(181, 221, 244)"/>
<path d="M 10.99,29.985 L 12.98,26 H 14.02 L 16,30 H 14.8 L 14.43,29.27 H 12.55 L 12.18,30 H 11 Z M 13.07,28.28 H 13.97 L 13.52,27.38 L 13.07,28.28 Z M 15.69,26 L 16.99,28.65 L 18.3,26 H 19.5 L 17.5,30 H 16.47 L 14.5,26 H 15.69 Z M 21,30 C 20,30 19.5,29.5 19.5,28.55 V 27.43 C 19.5,26.5 20,26 20.98,26 H 23.5 V 27 H 21.17 C 20.9,27 20.5,27.2 20.5,27.5 H 23.5 V 28.5 H 20.5 C 20.5,28.79 20.9,29.02 21.17,29.02 H 23.5 V 30 H 21 Z M 11.97,25.12 A 0.17,0.17 0 0,0 11.81,25.02 H 10.49 C 10.45,25.02 10.41,25.05 10.37,25.07 C 10.33,25.1 10.31,25.14 10.3,25.17 L 9.57,27.64 L 8.6,25.14 C 8.6,25.1 8.56,25.07 8.54,25.04 C 8.5,25.02 8.49,25 8.44,25 H 7.6 A 0.14,0.14 0 0,0 7.5,25.05 A 0.17,0.17 0 0,0 7.42,25.15 L 6.4,27.75 L 5.67,25.28 C 5.65,25.23 5.63,25.18 5.59,25.16 L 5.49,25.11 L 4.22,25.01 A 0.17,0.17 0 0,0 4.06,25.11 A 0.2,0.2 0 0,0 4.04,25.33 L 5.69,30.85 C 5.71,30.95 5.79,30.99 5.87,30.99 H 6.9 C 6.94,28.85 7.98,27.99 8.71,27.94 C 8.02,28.18 7.85,30.41 9.61,30.99 H 10.15 C 10.19,30.99 10.23,30.97 10.25,30.94 C 10.29,30.92 10.3,30.87 10.32,30.84 L 12,25.35 A 0.28,0.28 0 0,0 11.98,25.13 Z M 8.97,28.19 C 8.72,28.34 8.58,28.65 8.58,28.96 C 8.56,29.25 8.64,29.54 8.78,29.78 A 1.11,1.11 0 0,1 8.41,28.82 A 1,1 0 0,1 8.78,28.07 C 9.06,27.88 9.08,28.12 8.98,28.19 Z" fill="rgb(31, 50, 99)"/>
<path d="M 6.79,28.825 L 5.99,26.2 L 5.69,25.17 A 0.18,0.18 0 0,0 5.51,25.02 L 4.18,25 C 4.08,25 4,25.1 4,25.22 L 4.02,25.32 L 5.62,30.57 C 5.65,30.69 5.75,30.74 5.85,30.69 H 5.87 L 6.99,29.97 C 7.07,29.92 7.11,29.8 7.07,29.7 L 6.79,28.84 Z" fill="url(#a)"/>
<defs>
<linearGradient id="a" x1="4.3" x2="7.48" y1="24.9" y2="29.6" gradientUnits="userSpaceOnUse">
<stop stop-color="rgb(52, 101, 164)" offset="0"/>
<stop stop-color="rgb(31, 50, 99)" offset="1"/>
</linearGradient>
</defs>
</svg>
