<?xml version="1.0" encoding="UTF-8"?>
<!-- generated by Finnhub -->
<svg viewBox="0 0 55.5 55.5" xmlns="http://www.w3.org/2000/svg">
<path d="M 0,0 H 55.5 V 55.5 H 0 Z" fill="rgb(239, 242, 248)"/>
<path d="M 6.15,25.705 L 6.32,25.42 A 0.86,0.86 0 0,1 6.56,25.2 C 6.66,25.14 6.79,25.09 6.94,25.05 C 7.09,25.02 7.27,25 7.5,25 C 7.64,25 7.78,25 7.9,25.02 C 8.03,25.03 8.16,25.06 8.27,25.12 C 8.38,25.16 8.5,25.23 8.59,25.32 C 8.69,25.42 8.77,25.55 8.84,25.72 L 11,31 H 9.02 L 8.56,30 H 6.46 L 5.99,31 H 4 L 6.16,25.72 Z M 6.91,28.5 H 8.11 L 7.58,26.92 L 7.55,26.84 L 7.51,26.8 L 7.48,26.84 L 7.44,26.92 L 6.91,28.5 Z M 11,25 H 13 V 31 H 11 V 25 Z M 15.53,31 L 13.62,28.68 A 1.14,1.14 0 0,1 13.4,27.57 A 0.88,0.88 0 0,1 13.54,27.26 L 15.24,25 H 17.67 L 15.47,27.48 A 0.8,0.8 0 0,0 15.34,27.68 A 0.55,0.55 0 0,0 15.28,27.91 A 0.81,0.81 0 0,0 15.54,28.46 L 18,31 H 15.53 Z" fill="rgb(82, 84, 90)"/>
<path d="M 21.24,24.985 A 4.33,4.33 0 0,1 22.7,25.25 A 1.78,1.78 0 0,1 23.7,26.12 A 2.98,2.98 0 0,1 24,27.38 V 28.62 C 23.98,28.84 23.95,29.06 23.9,29.27 C 23.86,29.48 23.79,29.69 23.7,29.87 C 23.6,30.07 23.46,30.24 23.3,30.4 C 23.12,30.55 22.93,30.66 22.7,30.74 A 4.6,4.6 0 0,1 21.25,30.99 L 20.5,31 H 19.76 A 4.33,4.33 0 0,1 18.31,30.75 A 1.78,1.78 0 0,1 17.31,29.88 A 2.98,2.98 0 0,1 17.01,28.62 L 17,28 V 27.38 C 17.02,27.15 17.05,26.94 17.1,26.73 C 17.14,26.51 17.21,26.3 17.3,26.12 A 1.94,1.94 0 0,1 18.3,25.26 A 4.6,4.6 0 0,1 19.76,25.01 L 20.5,25 H 21.25 Z M 19,28.64 C 19.08,29.17 19.63,29.5 20.14,29.54 A 5.26,5.26 0 0,0 21.19,29.49 C 21.55,29.39 21.96,28.99 22,28.63 C 22.04,28.23 22,27.39 22,27.39 C 21.96,27.02 21.54,26.64 21.19,26.54 A 2.57,2.57 0 0,0 20.51,26.47 C 19.91,26.47 19.08,26.69 19,27.37 V 28.64 Z M 34.8,29.5 C 34.94,29.5 35.03,29.47 35.07,29.43 C 35.11,29.38 35.13,29.35 35.13,29.3 C 35.13,29.2 35.08,29.13 35.01,29.1 A 1.76,1.76 0 0,0 34.75,29 L 32.48,28.35 A 1.05,1.05 0 0,1 32.06,28.15 A 1.45,1.45 0 0,1 31.55,27.25 A 4.87,4.87 0 0,1 31.55,25.97 C 31.59,25.75 31.69,25.56 31.87,25.37 C 31.97,25.27 32.09,25.19 32.25,25.11 C 32.42,25.03 32.62,25 32.87,25 H 36.54 V 26.5 H 33.75 C 33.61,26.5 33.35,26.46 33.35,26.69 C 33.35,26.79 33.4,26.85 33.51,26.89 L 33.84,27.01 L 35.8,27.55 C 35.93,27.59 36.07,27.64 36.22,27.71 C 36.38,27.78 36.5,27.86 36.61,27.97 C 36.69,28.06 36.77,28.17 36.82,28.28 C 36.87,28.4 36.92,28.52 36.94,28.64 C 36.97,28.76 36.98,28.89 36.99,29.01 L 37,29.34 C 37,29.52 36.98,29.72 36.96,29.94 C 36.93,30.15 36.85,30.35 36.72,30.54 A 1.07,1.07 0 0,1 35.85,30.99 L 35.55,31 H 31.5 V 29.5 H 34.8 Z M 39,31 V 26.5 H 37 V 25 H 43 V 26.5 H 41 V 31 H 39 Z M 44,31 V 25 H 46 V 31 H 44 Z M 46.55,29.5 H 49.8 C 49.93,29.5 50.03,29.47 50.06,29.43 C 50.1,29.38 50.12,29.35 50.12,29.3 C 50.12,29.2 50.08,29.13 50,29.1 A 1.75,1.75 0 0,0 49.75,29 L 47.48,28.35 A 1.05,1.05 0 0,1 47.06,28.15 A 1.45,1.45 0 0,1 46.55,27.25 A 4.88,4.88 0 0,1 46.55,25.97 C 46.59,25.75 46.69,25.56 46.87,25.37 C 46.97,25.27 47.09,25.19 47.25,25.11 C 47.41,25.03 47.62,25 47.87,25 H 51.5 V 26.5 H 48.75 C 48.65,26.5 48.54,26.47 48.45,26.52 A 0.18,0.18 0 0,0 48.35,26.69 C 48.35,26.79 48.4,26.85 48.52,26.89 C 48.62,26.94 48.72,26.97 48.84,27.01 L 50.8,27.55 C 50.93,27.59 51.07,27.64 51.22,27.71 C 51.38,27.78 51.5,27.86 51.61,27.97 C 51.69,28.06 51.77,28.17 51.82,28.28 C 51.87,28.4 51.92,28.52 51.94,28.64 A 2.72,2.72 0 0,1 52,29.34 C 52,29.52 51.98,29.72 51.96,29.94 C 51.93,30.15 51.85,30.35 51.72,30.54 A 1.07,1.07 0 0,1 50.86,30.99 L 50.56,31 H 46.56 V 29.5 Z" fill="rgb(82, 84, 90)"/>
<path d="M 18.99,24.465 S 23.93,23.46 25,26 V 24.6 S 24,23.33 19,24.48 Z M 23.57,22.84 S 28.77,21.84 29.9,24.34 V 22.96 C 29.9,22.97 28.84,21.71 23.57,22.84 Z" fill="rgb(205, 202, 203)"/>
<path d="M 26.88,24.314999999999998 A 11,11 0 0,0 29.07,24.76 V 24.02 C 28.45,23.85 28.09,23.7 27.39,23.46 C 26.27,23.06 21.74,21.12 16.46,24.07 C 16.46,24.07 21.42,22.29 25.36,23.82 L 26.89,24.33 Z" fill="rgb(200, 219, 83)"/>
<path d="M 30.99,21.985 V 24.25 C 30.36,24.26 29.68,24.22 29,24.07 V 22.67 L 31,22 Z M 27,24.5 V 23.33 L 25.5,23.81 L 25,23.97 V 29.12 A 8,8 0 0,0 25.02,29.59 C 25.04,29.74 25.06,29.89 25.11,30.04 C 25.15,30.19 25.22,30.32 25.31,30.44 C 25.38,30.57 25.5,30.67 25.63,30.76 C 25.79,30.87 25.96,30.95 26.14,30.97 C 26.33,31 26.52,31.01 26.73,30.99 C 26.93,30.97 27.14,30.94 27.35,30.89 L 28,30.69 L 28.65,30.46 A 5.7,5.7 0 0,0 29.85,29.76 A 3.3,3.3 0 0,0 30.89,28.16 C 30.94,27.99 30.97,27.82 30.99,27.66 L 31,27.16 L 30.98,24.55 L 30.6,24.61 C 30.03,24.69 29.48,24.77 29,24.75 V 27.63 C 29,28.34 28.65,28.85 28,29.07 C 27.86,29.12 27.73,29.15 27.6,29.15 C 27.1,29.18 27,28.75 27,28.31 V 24.5 Z" fill="rgb(1, 173, 237)"/>
<path d="M 30.849999999999998,24.134999999999998 A 8.13,8.13 0 0,1 28.79,23.95 L 28.77,24.74 C 29.37,24.78 30.12,24.76 30.85,24.65 A 12.3,12.3 0 0,0 35.17,23.15 S 33.25,24.09 30.87,24.15 Z" fill="rgb(200, 219, 83)"/>
</svg>
