<?xml version="1.0" encoding="UTF-8"?>
<!-- generated by Finnhub -->
<svg viewBox="0 0 55.5 55.5" xmlns="http://www.w3.org/2000/svg">
<path d="M 0,0 H 55.5 V 55.5 H 0 Z" fill="rgb(239, 242, 248)"/>
<path d="M 27.29,10.985 L 28.8,13.54 A 2,2 0 0,1 28.8,15.53 L 16.5,37 H 34.79 C 35.54,37 36.23,37.42 36.59,38.09 L 38,40 H 13.55 A 1.58,1.58 0 0,1 12.21,37.63 L 27.31,11 Z" fill="rgb(100, 101, 105)"/>
<path d="M 21.2,32.635 A 1.57,1.57 0 0,0 22.6,35 H 35 L 33,32 H 25.5 L 30.5,23 L 40.23,40 H 44 L 31.72,18.71 A 1.44,1.44 0 0,0 29.23,18.71 L 21.21,32.65 Z" fill="rgb(65, 120, 186)"/>
</svg>
