<?xml version="1.0" encoding="UTF-8"?>
<!-- generated by Finnhub -->
<svg viewBox="0 0 55.5 55.5" xmlns="http://www.w3.org/2000/svg">
<path d="M 0,0 H 55.5 V 55.5 H 0 Z" fill="rgb(239, 242, 248)"/>
<path d="M 7.99,22.985 H 10 V 29.03 C 9.84,32.29 6.65,32.3 5.27,31.68 C 7.38,31.96 7.95,30.56 8,29.83 V 25 H 6.48 L 8,23 Z" fill="rgb(235, 26, 46)"/>
<path d="M 7.720000000000001,29.825 C 6.95,30.85 5.61,30.24 5.29,29.8 L 4.5,31.16 C 6.47,32.22 7.83,30.84 7.73,29.84 Z" fill="rgb(243, 168, 21)"/>
<path d="M 15.99,31.134999999999998 C 15.47,31.68 14.78,32 14.02,32 C 12.35,32 11,30.43 11,28.5 S 12.35,25 14.02,25 C 14.78,25 15.47,25.32 16,25.85 V 25 H 18 V 32 H 16 V 31.15 Z M 16,29.84 C 15.68,30.16 15.25,30.35 14.77,30.35 C 13.79,30.35 13,29.52 13,28.5 S 13.8,26.65 14.77,26.65 C 15.25,26.65 15.68,26.85 16,27.16 V 29.84 Z" fill="rgb(235, 26, 46)" fill-rule="evenodd"/>
<path d="M 20.99,24.985 H 19 V 32 H 21 V 27.4 C 21.29,27.1 22.1,26.63 22.94,26.63 C 23.92,26.63 23.99,27.33 24,27.67 V 32 H 26 V 27.17 C 25.95,26.11 25.47,25.05 23.83,25 C 22.63,24.97 21.43,25.6 21,26 V 25 Z" fill="rgb(235, 26, 46)"/>
<path d="M 38.99,24.985 H 37 V 32 H 39 V 27.45 A 2.78,2.78 0 0,1 40.95,26.63 C 41.92,26.63 42.01,27.33 42.01,27.67 V 32 H 44.01 V 27.17 C 43.96,26.11 43.48,25.05 41.84,25 A 4.4,4.4 0 0,0 39,26.03 V 25 Z" fill="rgb(243, 168, 21)"/>
<path d="M 31.49,22.985 A 4.5,4.5 0 1,0 31.5,32 A 4.5,4.5 0 0,0 31.5,23 Z M 31.5,24.77 A 2.5,2.5 0 0,0 29,27.27 V 27.73 A 2.5,2.5 0 0,0 34,27.73 V 27.27 A 2.5,2.5 0 0,0 31.5,24.77 Z M 52,28.5 V 29 H 47 C 47.09,29.45 47.54,30.49 48.83,30.49 C 49.17,30.49 50,30.37 50.59,29.89 L 51.42,31.03 C 50.72,31.73 49.58,32 48.5,32 A 3.5,3.5 0 1,1 52,28.5 Z M 47,27.8 C 47.02,27.37 47.37,26.5 48.55,26.5 C 49.65,26.5 50.01,27.35 50,27.8 H 47 Z" fill="rgb(243, 168, 21)" fill-rule="evenodd"/>
</svg>
