<!-- by Finnhub --><svg width="56" height="56" viewBox="0 0 56 56" xmlns="http://www.w3.org/2000/svg"><path fill="#F0F3FA" d="M0 0h56v56H0z"/><path d="M42.55 37H13.47c-.04 0-.06.04-.06.1v.8c0 .06.02.1.06.1h29.08c.04 0 .06-.04.06-.1v-.8c0-.06-.02-.1-.06-.1ZM34.52 38.78c.15-.14.34-.2.56-.15.05.01.08.04.08.1v1c0 .05-.03.08-.1.08h-.42c-.05 0-.1-.02-.11-.07-.32-.9-1.5-.67-1.78.15-.47 1.37 1.35 2.16 1.85.73.02-.06.06-.08.12-.05l.52.24c.06.03.08.07.05.13-.7 1.51-3.22 1.36-3.54-.22-.32-1.55 1.14-2.59 2.65-1.92a.1.1 0 0 0 .12-.02ZM15.31 41.32l-.12-.42a.08.08 0 0 0-.02-.04.08.08 0 0 0-.05-.02h-.8c-.02 0-.03 0-.05.02a.08.08 0 0 0-.03.04l-.14.42a.08.08 0 0 0 .04.1H14.48a.08.08 0 0 1 .06.03.08.08 0 0 1 .02.05l-.03.43c0 .02-.01.04-.03.05a.08.08 0 0 1-.05.02h-1.37c-.02 0-.04 0-.06-.02a.08.08 0 0 1-.02-.06v-.42c0-.02 0-.04.02-.06a.08.08 0 0 1 .06-.02h.3l.04-.01a.08.08 0 0 0 .03-.04l.64-2.14a.07.07 0 0 0-.01-.07.08.08 0 0 0-.07-.03l-.25.03a.08.08 0 0 1-.07-.02.08.08 0 0 1-.02-.06v-.42c0-.02 0-.04.02-.05a.08.08 0 0 1 .06-.03h2.1l.06.03.02.05v.4c0 .02 0 .04-.02.05a.08.08 0 0 1-.06.03h-.28a.08.08 0 0 0-.06.04.07.07 0 0 0-.01.06l.68 2.11c0 .02.01.03.03.04l.04.02.28.02c.02 0 .04 0 .05.02l.02.06v.41l-.03.06a.08.08 0 0 1-.05.02h-1.54c-.02 0-.04 0-.06-.02a.08.08 0 0 1-.02-.05l-.01-.43a.07.07 0 0 1 .02-.05.08.08 0 0 1 .06-.03h.26a.08.08 0 0 0 .07-.03.08.08 0 0 0 .01-.07Zm-.87-1.04a.04.04 0 0 0 .04.06h.5a.04.04 0 0 0 .03-.02l.01-.02v-.02l-.25-.86-.01-.02a.05.05 0 0 0-.06 0l-.01.02-.25.86ZM37.72 41.32l-.11-.43a.08.08 0 0 0-.03-.04.08.08 0 0 0-.05-.01h-.8l-.04.01a.08.08 0 0 0-.03.04l-.14.43a.07.07 0 0 0 0 .06.08.08 0 0 0 .07.04h.3a.08.08 0 0 1 .06.02.08.08 0 0 1 .02.06l-.03.42-.02.05a.08.08 0 0 1-.06.03H35.5c-.02 0-.04-.01-.05-.03a.08.08 0 0 1-.03-.05v-.43c0-.02.01-.04.03-.05a.08.08 0 0 1 .05-.02h.3a.08.08 0 0 0 .07-.06l.65-2.14a.08.08 0 0 0-.05-.09h-.04l-.25.03a.08.08 0 0 1-.08-.05V38.65c0-.02 0-.04.02-.05a.08.08 0 0 1 .05-.02h2.1c.03 0 .05 0 .06.02l.03.06v.4c0 .02-.01.04-.03.05a.08.08 0 0 1-.05.02h-.28a.08.08 0 0 0-.07.04l-.01.03v.04l.68 2.1c0 .02.02.04.03.05l.04.01.28.02c.02 0 .04.01.05.03.02.01.03.03.03.05v.42c0 .02-.02.04-.03.05a.08.08 0 0 1-.06.03H37.4c-.02 0-.04-.01-.05-.03a.08.08 0 0 1-.03-.05v-.42a.08.08 0 0 1 .07-.08h.27a.08.08 0 0 0 .06-.03.08.08 0 0 0 .01-.07Zm-.87-1.04a.04.04 0 0 0 .01.03.04.04 0 0 0 .04.02h.5a.05.05 0 0 0 .03-.02.04.04 0 0 0 0-.03l-.24-.87-.02-.02a.05.05 0 0 0-.05 0l-.02.02-.25.87ZM17.23 41.31v-2.08c0-.06-.03-.1-.1-.1h-.26c-.07 0-.1-.03-.1-.1l-.03-.32c0-.08.03-.11.11-.12h1.55c.06 0 .1.03.13.09l.72 1.78.02.02a.05.05 0 0 0 .05 0c.01 0 .02 0 .02-.02l.68-1.8c.02-.04.05-.06.1-.06h1.63c.07 0 .1.03.1.1l.01.33c0 .07-.03.1-.1.1h-.26c-.08 0-.11.04-.1.1v1.9c-.02.25.05.37.32.27.07-.03.11 0 .11.08v.4c0 .08-.03.12-.1.12h-1.55c-.06 0-.1-.04-.1-.1v-.38c0-.07.05-.1.12-.1h.22c.04 0 .1-.07.1-.1v-1.97c0-.26-.06-.27-.15-.03-.3.8-.64 1.63-1 2.5-.09.22-.23.24-.42.06a.26.26 0 0 1-.06-.1l-1-2.56c-.07-.19-.1-.18-.1.02v2.06c0 .08.04.11.1.11h.25c.06 0 .08.03.09.08v.4c0 .07-.02.11-.09.11h-1.28c-.07 0-.11-.04-.11-.12v-.36c0-.07.04-.1.11-.1h.26c.07 0 .1-.04.1-.1ZM23.5 39.26v.6l.03.06a.1.1 0 0 0 .07.03h.7a.1.1 0 0 1 .07.03.1.1 0 0 1 .02.06v.4a.1.1 0 0 1-.02.06.1.1 0 0 1-.07.02h-.7a.1.1 0 0 0-.07.03.1.1 0 0 0-.03.07v.71c0 .03.01.05.03.07a.1.1 0 0 0 .07.03h.92a.1.1 0 0 0 .07-.04.1.1 0 0 0 .02-.07l-.04-.3a.1.1 0 0 1 .06-.1.1.1 0 0 1 .04 0h.48a.1.1 0 0 1 .07.03.1.1 0 0 1 .03.06v.9a.1.1 0 0 1-.03.06.1.1 0 0 1-.06.03h-2.9a.1.1 0 0 1-.07-.03.1.1 0 0 1-.02-.06v-.39a.1.1 0 0 1 .03-.06.1.1 0 0 1 .07-.03h.25a.1.1 0 0 0 .07-.04.1.1 0 0 0 .02-.06v-2.08a.1.1 0 0 0-.03-.07.1.1 0 0 0-.06-.02h-.25a.1.1 0 0 1-.07-.03.1.1 0 0 1-.03-.07v-.37a.1.1 0 0 1 .03-.07.1.1 0 0 1 .07-.03h2.9a.1.1 0 0 1 .08.03.1.1 0 0 1 .02.07l-.03.91a.09.09 0 0 1-.04.07.1.1 0 0 1-.07.02l-.44-.03a.1.1 0 0 1-.07-.03.1.1 0 0 1-.03-.07l.04-.3a.1.1 0 0 0-.03-.08.1.1 0 0 0-.07-.03l-.93.02a.1.1 0 0 0-.07.03.1.1 0 0 0-.03.06ZM41.83 39.15h-.35c-.02 0-.05-.03-.05-.05v-.42c0-.03.06-.1.08-.1h1.41c.03 0 .08.03.08.06v.46c0 .02-.02.05-.05.05h-.39l-.03.01-.02.04-.02 2.75v.02a.05.05 0 0 1-.03.02h-.73l-.02-.02-1.41-2.33-.02-.02a.05.05 0 0 0-.06.01l-.01.03v1.72l.01.04.04.01h.36a.05.05 0 0 1 .04.02v.53l-.04.02h-1.44c-.01 0-.03 0-.04-.02a.05.05 0 0 1-.01-.03v-.47a.05.05 0 0 1 .03-.05h.37l.03-.01.02-.04v-2.15c0-.02 0-.03-.02-.04l-.03-.01-.36-.05s-.02 0-.03-.02l-.01-.03v-.42s0-.02.02-.03l.03-.02h1.38l.03.01.02.02 1.17 1.91.03.02a.05.05 0 0 0 .06-.01V39.17l-.04-.02ZM26 41.32v-2.1c0-.05.03-.08-.03-.08l-.31.02c-.08 0-.11-.03-.1-.1v-.37c.01-.07.05-.1.11-.1h2.05c1.1 0 1.53 1.2.57 1.75-.05.04-.06.08-.03.13l.47.85c.03.05.06.08.12.08l.28.03c.06.01.1.05.1.1l-.01.35c0 .07-.04.11-.12.11l-.75.01a.3.3 0 0 1-.27-.15l-.63-1.2a.3.3 0 0 0-.22-.16c-.32-.06-.2.55-.23.83 0 .06-.03.1.04.1h.24c.07 0 .1.03.1.1l.03.38c0 .06-.03.1-.1.1h-1.64c-.07 0-.1-.04-.11-.1l-.02-.37c0-.08.03-.12.11-.12h.32c.06 0 .03-.03.03-.09Zm1-2v.49c0 .07.07.13.15.13l.3-.01.15-.03c.05-.02.1-.04.13-.08a.35.35 0 0 0 .1-.11.3.3 0 0 0 .02-.13v-.08c0-.09-.05-.18-.13-.24a.46.46 0 0 0-.3-.1l-.3.01a.14.14 0 0 0-.12.14ZM30 41.34V39.2a.07.07 0 0 0-.06-.06h-.34l-.05-.02a.06.06 0 0 1-.02-.04l-.04-.42a.06.06 0 0 1 .02-.05.06.06 0 0 1 .04-.02h1.85c.02 0 .04 0 .05.02l.02.05v.4c0 .01 0 .03-.02.04a.07.07 0 0 1-.04.02l-.36.05c-.03 0-.05.03-.05.06v2.12c0 .04.03.07.07.07h.33a.07.07 0 0 1 .05.01.06.06 0 0 1 .02.05v.45l-.02.05a.07.07 0 0 1-.05.02h-1.79l-.04-.02a.06.06 0 0 1-.02-.04l-.04-.43c0-.02 0-.03.02-.05a.07.07 0 0 1 .04-.02l.37-.04c.03 0 .06-.03.06-.06ZM35.46 43.19c-.43-.34-1 .15-.42.45.38.2.89.4 1.13.69.74.9-.17 2.06-1.33 1.51a.1.1 0 0 0-.12.03c-.15.15-.34.17-.56.07a.14.14 0 0 1-.08-.14l.01-.92c0-.07.04-.1.12-.1l.37.02c.06 0 .1.04.1.1.1.49.85.8.93.18.05-.4-1.19-.8-1.42-1.21-.5-.86.49-1.72 1.35-1.2.04.02.08.02.12-.02.12-.14.29-.18.5-.11.05.01.08.04.08.1v.8c0 .07-.04.1-.1.12-.3.08-.5 0-.6-.25a.27.27 0 0 0-.08-.12ZM19.94 43.12h-.35c-.07 0-.1-.04-.1-.1v-.4c0-.06.03-.09.1-.09h3.12c.08 0 .12.04.12.11v.84c0 .07-.04.1-.12.1l-.53-.03c-.08 0-.1-.04-.08-.1.2-.5-.8-.34-1.04-.33-.05 0-.06.03-.06.07v.63c0 .06.02.1.08.1h.62c.05 0 .1.03.11.08v.4c.02.07-.01.11-.09.12h-.65c-.06 0-.07.03-.07.08v.72c0 .07.01.1.08.1h.39c.06 0 .1.03.1.09v.41c0 .05-.03.08-.08.08h-1.86c-.09 0-.13-.04-.13-.12l-.02-.37c0-.06.04-.1.1-.1h.31c.06 0 .1-.02.11-.08v-2.12c0-.06 0-.1-.06-.1ZM24.45 43.19v2.13l.03.06a.1.1 0 0 0 .06.03h.36a.1.1 0 0 1 .06.02l.03.06V45.95l-.03.03a.09.09 0 0 1-.06.02h-1.82l-.06-.03a.08.08 0 0 1-.03-.05v-.42a.08.08 0 0 1 .02-.07.09.09 0 0 1 .07-.02h.32a.1.1 0 0 0 .06-.03.08.08 0 0 0 .03-.06V43.2l-.01-.06a.1.1 0 0 0-.06-.02l-.35-.04a.09.09 0 0 1-.05-.02.08.08 0 0 1-.03-.06v-.4c0-.02.01-.04.03-.05a.1.1 0 0 1 .06-.03h1.82a.1.1 0 0 1 .06.03c.02.01.03.03.03.06v.41l-.03.06a.1.1 0 0 1-.06.02h-.36a.1.1 0 0 0-.06.03.08.08 0 0 0-.03.06ZM28 45.33v-.93c0-.06.02-.09.08-.09h.46c.07 0 .11.04.11.11v1.43a.15.15 0 0 1-.1.14.16.16 0 0 1-.06.01h-2.92c-.06 0-.1-.04-.09-.11v-.41c.01-.08.06-.1.13-.08.23.09.4.02.4-.17L26 43.2c0-.06 0-.1-.06-.1h-.36c-.06 0-.09-.04-.1-.1v-.38c0-.07.03-.1.1-.1h1.81c.06 0 .1.03.1.1V43c0 .07-.04.1-.12.1h-.26a.12.12 0 0 0-.11.08v2.14c0 .06.04.09.1.09h.78c.06 0 .12-.02.12-.08Z" fill="#01609F"/><path d="M29.86 43.16v2.13c0 .06.03.1.09.1h.26c.06 0 .1.02.1.08v.4c0 .07-.06.13-.13.13h-1.2c-.12 0-.15-.12-.14-.2v-.34c0-.06.04-.1.1-.1h.27c.06 0 .09-.06.09-.11V43.2c0-.07-.04-.11-.11-.11h-.3c-.06 0-.09-.03-.08-.08v-.43c0-.05.03-.07.08-.07h1.63c.05 0 .09.02.1.07l.68 1.81a.06.06 0 0 0 .06.04.06.06 0 0 0 .05-.04l.7-1.82c.02-.04.05-.06.1-.06h1.62c.07 0 .1.03.1.1.02.24.07.6-.35.47a.1.1 0 0 0-.08.01.1.1 0 0 0-.04.08v2.1c0 .07.03.1.09.1h.3c.06 0 .09.03.09.08v.4c0 .06-.05.14-.12.14h-1.58c-.06 0-.09-.07-.09-.12v-.4c0-.07.03-.1.1-.1h.24c.08 0 .11-.04.11-.1v-2.1l-.01-.04a.06.06 0 0 0-.08-.01.06.06 0 0 0-.03.03l-1.04 2.7a.23.23 0 0 1-.08.1.23.23 0 0 1-.35-.1l-1.05-2.72a.05.05 0 0 0-.03-.03h-.03c-.01 0-.02 0-.03.02l-.01.03ZM17.5 43.75h.97l.02.03a.05.05 0 0 1-.02.05l-.77.54-.01.02v.03l.3.87v.03l-.02.02-.03.01h-.03l-.76-.55a.05.05 0 0 0-.06 0l-.75.54a.05.05 0 0 1-.08-.02v-.03l.3-.87v-.03c0-.01 0-.02-.02-.02l-.76-.54-.02-.02a.05.05 0 0 1 .02-.05l.02-.01h.97l.02-.03.29-.88.02-.02a.05.05 0 0 1 .07.02l.28.88.02.02.03.01ZM39.26 43.75h.97l.02.03a.04.04 0 0 1-.02.05l-.76.54a.04.04 0 0 0-.02.05l.3.87a.04.04 0 0 1-.02.05.05.05 0 0 1-.06 0l-.76-.54a.05.05 0 0 0-.05 0l-.76.54a.05.05 0 0 1-.05 0 .04.04 0 0 1-.02-.05l.3-.87v-.03l-.02-.02-.76-.54-.02-.02v-.03s0-.02.02-.02l.02-.01h.94a.05.05 0 0 0 .05-.03l.28-.87.02-.02a.05.05 0 0 1 .06 0l.01.02.29.87c0 .01 0 .02.02.03h.02ZM25.61 25.78c-.04.05-.07.05-.1-.01-.33-.63-.23-.97-.08-1.43.05-.18.11-.37.15-.6a.1.1 0 0 0-.01-.08.1.1 0 0 0-.07-.04c-1.08-.17-.73-.97-.42-1.69.15-.34.3-.66.26-.89 0-.05-.03-.1-.08-.13l-.4-.27c-.05-.03-.07-.07-.06-.13l.31-1.34c.02-.05 0-.1-.03-.14-.29-.39-.3-.77-.02-1.15a.14.14 0 0 0 .02-.13c-.12-.4-.14-.8-.05-1.18.04-.19.14-.36.23-.53.12-.2.23-.4.26-.64.15-.98.34-1.94.6-2.9.02-.11.02-.24.02-.37v-.11a.22.22 0 0 0-.04-.13l-.35-.54a.13.13 0 0 1 0-.14l.26-.57a.12.12 0 0 0 0-.12.13.13 0 0 0-.12-.06h-.38c-.08 0-.11-.03-.11-.1v-.63c0-.03 0-.06.02-.1a.26.26 0 0 1 .26-.14l.42.05c.06.01.09-.02.08-.08-.08-.76.07-1.08.36-1.7l.05-.12a.18.18 0 0 0 0-.13l-.12-.38c-.05-.15-.01-.17.1-.07.78.65.93 1.44.47 2.37-.03.07-.01.1.07.1h.3c.05 0 .1.03.13.06s.05.07.05.11v.7c0 .02 0 .04-.02.06a.15.15 0 0 1-.05.06.16.16 0 0 1-.14.01.57.57 0 0 0-.3-.02c-.07.01-.09.05-.04.11.09.13.12.26.1.41l-.09.48c-.18 1.04-.53 3-.06 3.53.04.05.08.06.14.04.57-.22.27-.8.04-1.21l-.13-.26c-.05-.12-.03-.13.06-.04l.68.77c.46.53.8-.66.93-1.06l.02-.09c.02-.05.04-.05.07 0 .07.1.01.31-.05.53-.1.35-.22.74.17.88.3.11.85-.27 1.12-.46l.04-.03h.03l.03.03v.02l-.82.78a.15.15 0 0 0-.03.17c.01.03.03.06.06.08l.1.02.99-.05c.18-.01.18 0 0 .05l-1.05.27a.18.18 0 0 0-.09.06.16.16 0 0 0 0 .2c.01.03.04.05.08.06l.84.3c.03 0 .03.02.02.04-.03.03-.62-.02-.87-.04l-.12-.01c-.06 0-.09.02-.09.08a.94.94 0 0 1-.37.74.18.18 0 0 0-.07.12c-.05.49-.04.96.04 1.44-.09 2.04-1.8 5.6-3.15 7.3Zm-.85 9.83c.05.02.1.02.14 0 4.45-3.14 5.65-9.37 5.42-14.25L30.3 21c.42-.77 1.6-.05 2.29.37l.03.03c.06.03.07.07.04.12l-.25.47a.1.1 0 0 0 0 .12l.14.2a.26.26 0 0 1-.05.33l-.3.27c-.64.56-1.33 1.17-1.21 2.07.15 1.16.31 2.33.5 3.49 0 .06-.02.1-.08.11l-.27.08c-.05.01-.14.05-.14.1v5.12c0 .07.13.11.21.11h.72c.05 0 .07.04.07.08v.82c0 .03.01.05.03.07a.1.1 0 0 0 .08.03h.76c.09 0 .13.04.13.12v.74c0 .06-.04.14-.1.14h-9.78c-.06 0-.12-.03-.12-.09v-1.78c0-.14.05-.16.15-.05l.68.7c.28.3.57.61.93.83Zm.7-.73-.82-.64-.44.52.83.64.43-.52Zm.01-1.4.84.62-.4.5-.84-.63.4-.5Zm1.66-.4-.8-.49-.32.49.8.49.32-.49Zm-.02-1.48.76.38-.27.5-.76-.37.27-.51Zm1.36-.8-.66-.28-.24.53.66.28.24-.52Zm-.08-1.4.6.25-.25.52-.6-.25.25-.53Zm.98-.93-.57-.19-.2.54.57.2.2-.55Zm-.23-1.33.54.14-.15.55-.54-.13.15-.56Zm.78-1-.49-.08-.1.57.48.08.11-.57Zm-.3-1.11.45.05-.07.53-.44-.05.06-.53Zm.51-.93-.38-.04-.06.5.38.04.06-.5Zm-.32-.93.39.04-.05.5-.39-.04.05-.5Zm.41-.8h-.38l-.01.45h.38l.01-.45Zm-.37-.74.39.01-.01.42-.4-.01.02-.42Zm.37-.72h-.38l-.01.4.38.01.01-.41Zm-4.35 4.81.39.27-.37.5-.39-.28.37-.49Zm1.02-.6-.4-.27-.36.49.39.27.37-.49Zm.2-1.19.34.22-.31.48-.35-.22.31-.48Zm.73-.62-.34-.18-.24.43.34.17.24-.42Zm.02-.97.3.14-.18.37-.3-.14.18-.37Zm.57-.66-.3-.1-.14.37.3.1.14-.37Zm-.08-.8.3.09-.13.38-.3-.1.13-.38Zm.5-.56-.3-.07-.1.4.3.07.1-.4Zm-.14-.62.3.05-.07.34-.3-.04.06-.35Zm.36-.5-.3-.03-.03.35.3.03.03-.35Z" fill="#01609F"/></svg>