<?xml version="1.0" encoding="UTF-8"?>
<!-- generated by Finnhub -->
<svg viewBox="0 0 55.5 55.5" xmlns="http://www.w3.org/2000/svg">
<path d="M0 0h55.5v55.5H0z" fill="url(#a)"/>
<path d="M16 14h24v5.33l-3 1.63V17H19v3.9l-3-1.63V14Zm17 11.55 7-4.36V42H16V21.13L19 23l.5.31L23 25.5v-3.32l5-2.79 5 2.79v3.38Zm0 3.33v6.05l-3 1.68v-6.18l-2.06 1.34L26 30.49v6.12l-3-1.68v-6.01l-4-2.46V39h18V26.43l-4 2.45Zm-3-4.33-2-1.35-2 1.35v2.86l1.94 1L30 27.37v-2.81Z" fill="rgb(254, 254, 253)"/>
<defs>
<linearGradient id="a" x1="28" x2="28" y2="56" gradientUnits="userSpaceOnUse">
<stop stop-color="rgb(248, 181, 63)" offset="0"/>
<stop stop-color="rgb(183, 136, 38)" offset="1"/>
</linearGradient>
</defs>
</svg>
