<?xml version="1.0" encoding="UTF-8"?>
<!-- generated by Finnhub -->
<svg viewBox="0 0 55.5 55.5" xmlns="http://www.w3.org/2000/svg">
<path d="M0 0h55.5v55.5H0z" fill="rgb(239, 242, 248)"/>
<path d="m10.38 26.94 13.12 4.62 17.86-17.47-31 11.8a.55.55 0 0 0 .02 1.05Z" fill="rgb(66, 191, 174)"/>
<path d="M27.58 44.92 23.45 31.3 41.82 15 28.64 45c-.21.46-.9.42-1.06-.08Z" fill="rgb(0, 148, 185)"/>
<path d="M28.43 21.62a10.37 10.37 0 0 0-5 9.89c5.51.65 9.04-2.4 10.12-4l8.35-12.6c.33-.5-.25-1.09-.76-.79-3.5 2.04-8.9 5.2-12.7 7.5Z" fill="rgb(1, 105, 165)"/>
</svg>
