<?xml version="1.0" encoding="UTF-8"?>
<!-- generated by Finnhub -->
<svg viewBox="0 0 55.5 55.5" xmlns="http://www.w3.org/2000/svg">
<path d="M0 0h55.5v55.5H0z" fill="rgb(239, 242, 248)"/>
<path d="M6 27h.97l.42-1.23h1.9L9.7 27h.97L8.9 22H7.77L6 27Zm3.03-2-.67-1.97h-.04L7.65 25h1.38Zm37.61 2H45v-5h1.68c1.46 0 2.32 1.09 2.32 2.5 0 1.42-.88 2.5-2.36 2.5Zm-.64-.78h.6c1.04 0 1.4-.74 1.4-1.72 0-.97-.34-1.72-1.37-1.72H46v3.44Zm-35.96 3.53c.56 0 .93.24.98.65h.9c0-.97-1.02-1.4-1.87-1.4-.86 0-1.91.44-1.91 1.43 0 .7.53 1.1 1.39 1.3l.59.15c.36.09.93.22.94.67-.01.53-.62.7-1.04.7-.5 0-1.05-.2-1.1-.76H8C8.05 33.58 9.06 34 10.02 34c.9 0 1.98-.38 1.98-1.44 0-1.04-1.11-1.3-1.94-1.5l-.08-.01c-.35-.08-.89-.22-.89-.67.01-.48.56-.63.95-.63Zm7.21 1.75c0 .52-.1.97-.3 1.35-.21.37-.49.65-.84.85-.35.2-.75.3-1.2.3-.44 0-.83-.1-1.19-.3-.35-.2-.62-.48-.83-.85-.2-.38-.3-.83-.3-1.35 0-.52.1-.97.3-1.35.2-.37.48-.65.83-.85.36-.2.75-.3 1.2-.3.44 0 .84.1 1.19.3.35.2.63.48.83.85.2.38.31.83.31 1.35Zm-.92 0c0-.37-.06-.68-.19-.93a1.3 1.3 0 0 0-1.22-.78 1.31 1.31 0 0 0-1.23.77c-.12.26-.18.57-.18.94s.06.68.18.94c.12.25.29.44.5.57.2.13.45.2.73.2.27 0 .52-.07.73-.2.21-.13.38-.32.5-.57.12-.26.18-.57.18-.94ZM18 34h3.15v-.76H19V29h-1v5Zm7-5h1v3.22c0 1.12-.94 1.78-2 1.78s-2-.66-2-1.78V29h1v3.14c0 .64.38 1.06 1 1.06s1-.42 1-1.06V29Zm1.97 0v.76h1.53V34h1v-4.24h1.52V29h-4.05ZM33 34h-1v-5h1v5Zm2.91 0a2.55 2.55 0 0 0 2.59-2.5c0-1.37-1.16-2.5-2.59-2.5-1.42 0-2.41 1.13-2.41 2.5s.99 2.5 2.41 2.5Zm0-4.2c.96 0 1.59.84 1.59 1.7 0 .87-.63 1.7-1.59 1.7-.96 0-1.41-.83-1.41-1.7s.46-1.7 1.41-1.7ZM42 29h1v5h-.78L40 30.71V34h-1v-5h.79L42 32.29V29Zm5.02 1.4a.64.64 0 0 0-.3-.48c-.17-.12-.4-.17-.68-.17-.2 0-.37.02-.5.08a.75.75 0 0 0-.33.22c-.08.1-.11.2-.12.33 0 .1.03.19.08.26.05.08.12.14.2.2.1.04.19.09.3.12l.31.09.49.11c.2.04.38.1.57.18.18.07.34.16.49.27a1.14 1.14 0 0 1 .47.95c0 .29-.08.54-.23.75-.16.22-.39.39-.68.51-.3.12-.65.18-1.07.18-.4 0-.75-.06-1.05-.18-.3-.11-.53-.28-.7-.5-.17-.23-.26-.5-.27-.83h.93a.7.7 0 0 0 .17.42c.1.12.22.2.38.25.16.06.34.09.54.09s.38-.03.53-.09a.88.88 0 0 0 .37-.24c.09-.1.13-.23.14-.37a.45.45 0 0 0-.12-.3.88.88 0 0 0-.33-.22l-.49-.15-.6-.14c-.42-.1-.76-.26-1.01-.47a1.04 1.04 0 0 1-.37-.84c0-.28.08-.53.25-.75.16-.21.4-.38.68-.5.29-.12.62-.18.98-.18.37 0 .7.06.97.18.28.12.5.28.66.5.16.2.24.45.25.72h-.91ZM41 22v5h3.3v-.76H42v-1.36h2.1v-.76H42v-1.36h2.28V22H41Zm-4.43.76V22h4.03v.76H39V27h-1v-4.24h-1.43ZM35 27h1v-5h-1v5Zm-3.3 0H30v-5h1.74c.5 0 .93.1 1.3.3.35.2.63.48.83.86.19.37.29.82.29 1.34 0 .52-.1.96-.3 1.34-.2.37-.47.66-.84.86-.36.2-.8.3-1.31.3Zm-.7-.78h.66c.36 0 .65-.07.88-.2.24-.12.41-.31.53-.57.12-.25.18-.57.18-.95 0-.39-.06-.7-.18-.96a1.2 1.2 0 0 0-.52-.57 1.75 1.75 0 0 0-.86-.19H31v3.44ZM29.28 22H26v5h3.3v-.76H27v-1.36h2.1v-.76H27v-1.36h2.28V22ZM22 27h-1v-5h1.9c.38 0 .7.07.97.2.26.13.46.32.6.56.13.24.2.52.2.84 0 .32-.07.6-.2.83a1.36 1.36 0 0 1-.7.59L24.84 27h-1.02l-.99-1.83H22V27Zm0-2.58h.76c.22 0 .4-.03.55-.1a.66.66 0 0 0 .32-.27c.07-.12.1-.27.1-.45a.91.91 0 0 0-.1-.46.67.67 0 0 0-.32-.28c-.15-.07-.33-.1-.56-.1H22v1.66Zm-2.48-.71h.92C20.3 22.63 19.36 22 18.31 22 16.89 22 16 23.14 16 24.5c0 1.37.88 2.5 2.3 2.5 1.02 0 1.99-.63 2.14-1.68h-.92c-.11.57-.64.89-1.2.89-.96 0-1.32-.84-1.32-1.71 0-.86.37-1.7 1.32-1.7.58 0 1.1.32 1.2.9Zm-4.08 0h-.92c-.1-.59-.62-.92-1.2-.92-.95 0-1.32.85-1.32 1.71 0 .87.36 1.7 1.32 1.7.56 0 1.09-.3 1.2-.88h.92C15.3 26.37 14.32 27 13.31 27 11.88 27 11 25.87 11 24.5c0-1.36.89-2.5 2.3-2.5 1.06 0 2 .63 2.14 1.7Z" fill-rule="evenodd"/>
</svg>
