<?xml version="1.0" encoding="UTF-8"?>
<!-- generated by Finnhub -->
<svg viewBox="0 0 55.5 55.5" xmlns="http://www.w3.org/2000/svg">
<path d="M 0,0 H 55.5 V 55.5 H 0 Z" fill="url(#a)"/>
<path d="M 11.01,30.544999999999998 C 11.02,34.27 13.29,37.28 14.53,38.32 C 13.65,37.12 11.86,33.9 11.76,30.56 S 13.25,23.88 14.06,22.63 C 12.89,23.63 11.02,26.05 11.02,30.56 Z" fill="rgb(138, 206, 206)"/>
<path d="M 28.419999999999998,10.985 C 14.57,11 10.69,23.57 11.02,29.52 C 13.06,15.45 23.47,12.29 28.42,12.47 C 29.97,12.6 37.4,12.87 41.75,21.83 C 45.23,29 40.97,36.85 38.4,39.89 A 16.4,16.4 0 0,0 42.82,21.23 A 15.32,15.32 0 0,0 28.42,11 Z" fill="rgb(133, 198, 199)"/>
<path d="M 16.229999999999997,19.145 C 10.35,27.61 12.72,34.09 14.64,36.27 C 12.06,30.28 14.64,24.24 16.24,21.97 C 22.24,11.97 31.82,13.83 35.86,16.01 C 27.62,10.2 18.43,16.01 16.24,19.16 Z" fill="rgb(134, 200, 198)"/>
<path d="M 42.21,27.165 C 42.01,21.83 38.65,19.16 37,18.48 C 43.42,24.21 41.5,32.73 39.74,36.28 C 40.66,35.48 42.44,32.53 42.22,27.18 Z" fill="rgb(138, 206, 206)"/>
<path d="M 20.919999999999998,42.085 C 14.18,38.59 14.13,30.93 15.17,27.18 C 14.32,44.88 29.37,43.78 37,41.02 C 30.84,45.03 24.12,43.98 20.93,42.09 Z" fill="rgb(129, 203, 201)"/>
<path d="M 38.910000000000004,41.565 C 30.35,48.51 22.45,42.78 22.12,42.65 C 29.05,44.89 34.34,43.18 36.12,42.05 A 16.6,16.6 0 0,0 44.2,24.6 C 45.47,27.82 46.19,35.72 38.93,41.58 Z" fill="rgb(139, 207, 205)"/>
<path d="M 16.99,33.985 V 29 H 19.83 V 30 H 18 V 31 H 19.69 V 32 H 18 V 33 H 19.84 V 34 H 17 Z M 23.65,29 V 34 H 22.88 L 21,31 V 34 H 20 V 29 H 20.92 L 22.67,31.92 V 29 H 23.65 Z M 23.82,30 V 29 H 27.27 V 30 H 26 V 34 H 25 V 30 H 23.82 Z M 28.63,29 V 34 H 27.6 V 29 H 28.62 Z M 29,30 V 29 H 31.92 V 30 H 31 V 34 H 30 V 30 H 29 Z M 33,29 V 34 H 32 V 29 H 33 Z M 35.3,34 C 36,34 36.56,33.47 36.56,32.81 V 30.2 C 36.56,29.54 35.99,29.01 35.3,29.01 H 33.87 A 0.4,0.4 0 0,0 33.45,29.41 V 29.58 C 33.45,29.8 33.64,30.01 33.87,30.01 H 35.17 C 35.39,30.01 35.58,30.06 35.58,30.28 V 30.68 C 35.58,30.9 35.39,31.01 35.16,31.01 H 34.03 C 33.8,31.01 33.61,31.25 33.61,31.47 V 31.55 C 33.61,31.77 33.8,32.01 34.03,32.01 H 35.16 C 35.39,32.01 35.58,32.12 35.58,32.34 V 32.74 C 35.58,32.96 35.39,33.01 35.16,33.01 H 33.86 C 33.63,33.01 33.44,33.26 33.44,33.48 V 33.61 C 33.44,33.83 33.63,34.01 33.86,34.01 H 35.3 Z M 25.67,24.47 A 0.63,0.63 0 0,0 25.47,24.02 A 0.74,0.74 0 0,0 24.97,23.86 A 0.83,0.83 0 0,0 24.6,23.93 A 0.52,0.52 0 0,0 24.37,24.13 A 0.52,0.52 0 0,0 24.3,24.4 A 0.46,0.46 0 0,0 24.49,24.8 C 24.55,24.85 24.62,24.89 24.69,24.92 L 24.95,25.01 L 25.33,25.11 C 25.51,25.16 25.67,25.22 25.83,25.31 A 1.22,1.22 0 0,1 26.48,26.01 A 1.52,1.52 0 0,1 26.38,27.32 C 26.25,27.53 26.07,27.7 25.82,27.82 C 25.59,27.94 25.3,28 24.96,28 A 2,2 0 0,1 24.08,27.82 C 23.84,27.7 23.64,27.52 23.5,27.28 A 1.8,1.8 0 0,1 23.29,26.4 H 24.14 C 24.14,26.57 24.18,26.7 24.25,26.81 C 24.33,26.92 24.42,27.01 24.55,27.06 C 24.66,27.11 24.8,27.14 24.95,27.14 C 25.1,27.14 25.23,27.11 25.34,27.06 A 0.6,0.6 0 0,0 25.59,26.85 C 25.65,26.76 25.69,26.65 25.69,26.54 C 25.69,26.43 25.66,26.34 25.6,26.26 A 0.64,0.64 0 0,0 25.36,26.07 A 2.2,2.2 0 0,0 24.98,25.93 L 24.53,25.8 A 1.8,1.8 0 0,1 23.7,25.33 C 23.5,25.12 23.4,24.83 23.4,24.47 C 23.4,24.17 23.46,23.92 23.6,23.7 C 23.73,23.48 23.92,23.3 24.16,23.19 C 24.4,23.06 24.66,23 24.96,23 C 25.28,23 25.55,23.06 25.78,23.19 C 26.01,23.31 26.18,23.49 26.32,23.7 C 26.44,23.92 26.51,24.18 26.52,24.47 H 25.67 Z" fill="rgb(254, 254, 253)"/>
<path d="M 28.979999999999997,24.455 A 0.63,0.63 0 0,0 28.78,24.02 A 0.74,0.74 0 0,0 28.28,23.86 A 0.83,0.83 0 0,0 27.91,23.93 A 0.52,0.52 0 0,0 27.69,24.13 A 0.52,0.52 0 0,0 27.61,24.4 A 0.46,0.46 0 0,0 27.8,24.8 C 27.86,24.85 27.93,24.89 28.01,24.92 L 28.27,25.01 L 28.64,25.11 C 28.82,25.16 28.99,25.22 29.14,25.31 A 1.22,1.22 0 0,1 29.79,26.01 A 1.52,1.52 0 0,1 29.69,27.32 C 29.56,27.53 29.38,27.7 29.14,27.82 C 28.9,27.94 28.61,28 28.27,28 A 2,2 0 0,1 27.4,27.82 C 27.15,27.7 26.96,27.52 26.82,27.28 A 1.8,1.8 0 0,1 26.6,26.4 H 27.45 C 27.45,26.57 27.5,26.7 27.57,26.81 C 27.64,26.92 27.74,27.01 27.85,27.06 C 27.98,27.11 28.11,27.14 28.26,27.14 C 28.41,27.14 28.54,27.11 28.65,27.06 A 0.6,0.6 0 0,0 28.91,26.85 C 28.97,26.76 29,26.65 29,26.54 C 29,26.43 28.97,26.34 28.92,26.26 A 0.64,0.64 0 0,0 28.68,26.07 A 2.2,2.2 0 0,0 28.29,25.93 L 27.84,25.8 A 1.8,1.8 0 0,1 27.01,25.33 C 26.81,25.12 26.71,24.83 26.71,24.47 C 26.71,24.17 26.77,23.92 26.91,23.7 C 27.05,23.48 27.23,23.3 27.47,23.19 C 27.71,23.06 27.98,23 28.28,23 C 28.59,23 28.86,23.06 29.09,23.19 C 29.32,23.31 29.5,23.49 29.63,23.7 C 29.76,23.92 29.83,24.18 29.83,24.47 H 28.99 Z M 30,28 V 23 H 32.85 V 24 H 31 V 25 H 32.7 V 26 H 31 V 27 H 32.85 V 28 H 30 Z M 33,24 V 23 H 36 V 24 H 35 V 28 H 34 V 24 H 33 Z M 39.38,30.47 A 0.63,0.63 0 0,0 39.18,30.02 A 0.74,0.74 0 0,0 38.68,29.86 A 0.83,0.83 0 0,0 38.31,29.93 A 0.52,0.52 0 0,0 38.08,30.13 A 0.52,0.52 0 0,0 38.01,30.4 A 0.46,0.46 0 0,0 38.2,30.8 C 38.26,30.85 38.33,30.89 38.4,30.92 L 38.66,31.01 L 39.04,31.11 C 39.22,31.16 39.38,31.22 39.54,31.31 A 1.22,1.22 0 0,1 40.19,32.01 A 1.51,1.51 0 0,1 40.09,33.32 C 39.96,33.53 39.78,33.7 39.54,33.82 C 39.3,33.94 39.01,34 38.67,34 A 2,2 0 0,1 37.79,33.82 C 37.55,33.7 37.35,33.52 37.21,33.28 A 1.8,1.8 0 0,1 37,32.4 H 37.85 C 37.85,32.57 37.9,32.7 37.97,32.81 C 38.04,32.92 38.13,33.01 38.25,33.06 C 38.37,33.11 38.51,33.14 38.66,33.14 C 38.81,33.14 38.94,33.11 39.05,33.06 A 0.6,0.6 0 0,0 39.31,32.85 C 39.37,32.76 39.4,32.65 39.4,32.54 C 39.4,32.43 39.37,32.34 39.31,32.26 A 0.64,0.64 0 0,0 39.07,32.07 A 2.2,2.2 0 0,0 38.69,31.93 L 38.24,31.8 A 1.8,1.8 0 0,1 37.41,31.33 C 37.21,31.12 37.11,30.83 37.11,30.47 C 37.11,30.17 37.17,29.92 37.31,29.7 C 37.44,29.48 37.63,29.3 37.87,29.19 C 38.11,29.06 38.37,29 38.68,29 C 38.98,29 39.26,29.06 39.48,29.19 C 39.72,29.31 39.9,29.49 40.03,29.7 C 40.16,29.92 40.23,30.18 40.23,30.47 H 39.38 Z M 20.4,25.79 L 21.1,23 H 22.2 L 23.49,27.49 C 23.59,27.84 23.03,28.13 22.73,27.94 L 21.11,26.78 L 20.85,28 H 19.85 L 20.32,26.15 H 21.46 L 22.66,27.03 L 21.71,24.26 L 21.3,25.79 H 20.4 Z" fill="rgb(254, 254, 253)"/>
<defs>
<linearGradient id="a" x1="10.42" x2="68.15" y1="9.71" y2="76.02" gradientUnits="userSpaceOnUse">
<stop stop-color="rgb(25, 29, 31)" offset="0"/>
<stop stop-color="rgb(5, 5, 8)" offset="1"/>
</linearGradient>
</defs>
</svg>
