<?xml version="1.0" encoding="UTF-8"?>
<!-- generated by Finnhub -->
<svg viewBox="0 0 55.5 55.5" xmlns="http://www.w3.org/2000/svg">
<path d="M 0,0 H 55.5 V 55.5 H 0 Z" fill="rgb(239, 242, 248)"/>
<path d="M 9.120000000000001,23.745 H 8 V 32.26 H 9.16 C 10.68,32.26 11,30.93 11,29.62 V 26.17 C 11,24.86 10.58,23.76 9.13,23.76 Z M 52,22.6 V 33.4 A 2.58,2.58 0 0,1 49.48,36 H 6.52 A 2.58,2.58 0 0,1 4,33.39 V 22.6 A 2.57,2.57 0 0,1 6.52,20 H 49.48 A 2.57,2.57 0 0,1 52,22.61 Z M 12,26.06 C 12,24.26 10.98,23 9.15,23 H 7 V 33 H 9.22 C 11.09,33 12,31.57 12,29.77 V 26.07 Z M 45,26 H 43 C 43,24.29 43.69,23 45.5,23 C 46.98,23 48,23.97 48,25.61 C 48,26.47 47.66,27.47 46.81,27.71 C 47.61,28.01 48,28.78 48,30.01 C 48,31.71 47.12,33 45.51,33 C 43.63,33 43,31.82 43,30 H 45 C 45,30.64 45,31 45.53,31 C 46.01,31 46.01,30.7 46,30.21 V 29.91 C 46,29.18 46,28.54 45.22,28.51 H 45 V 27 H 45.19 C 46,26.98 46,26.51 46,25.71 C 46,25.41 46,25 45.5,25 S 45,25.39 45,26 Z M 34,29 H 35 V 31 H 34 V 33 H 32.02 V 31 H 29 V 29 L 31.69,23 H 34 V 29 Z M 32,25 V 29 H 30.42 L 32,25 Z M 42,29 H 41 V 23 H 38.69 L 36,29 V 31 H 39.02 V 33 H 41 V 31 H 42 V 29 Z M 39,29 V 25 L 37.42,29 H 39 Z M 23,23 H 18 V 23.72 H 20 V 33 H 21 V 23.72 H 23 V 23 Z M 18,33 L 15.97,23 H 15.02 L 13,33 H 13.87 L 14.36,30.33 H 16.64 L 17.12,33 H 18 Z M 15.5,24.25 L 16.52,29.65 H 14.48 L 15.5,24.25 Z M 25.97,23 L 28,33 H 27.12 L 26.64,30.33 H 24.36 L 23.87,33 H 23 L 25.02,23 H 25.97 Z M 26.52,29.64 L 25.5,24.24 L 24.48,29.64 H 26.52 Z" fill="rgb(49, 157, 214)" fill-rule="evenodd"/>
</svg>
