<?xml version="1.0" encoding="UTF-8"?>
<!-- generated by Finnhub -->
<svg viewBox="0 0 55.5 55.5" xmlns="http://www.w3.org/2000/svg">
<path d="M 0,0 H 55.5 V 55.5 H 0 Z" fill="rgb(239, 242, 248)"/>
<path d="M 31.99,29.465 C 34.34,25.16 33.49,21.78 31.55,19.74 C 31.45,19.64 31.33,19.76 31.4,19.87 C 32.9,22.2 32.96,24.14 32.63,25.63 A 15.04,15.04 0 0,1 30.5,30.33 C 29.84,31.34 29,32.49 28.2,34.07 A 7.64,7.64 0 0,0 27.35,37.57 C 27.35,37.82 27.61,37.82 27.65,37.58 L 27.77,37.01 C 27.9,36.34 28.07,35.71 28.35,35.09 C 29.28,33.06 31.05,31.04 32.01,29.48 Z" fill="rgb(1, 70, 121)"/>
<path d="M 32.52,21.785 L 29.18,21.17 L 29.27,20.68 L 32.62,21.31 L 32.53,21.8 Z" fill="url(#e)"/>
<path d="M 32.95,23.715 L 29.38,23.56 L 29.41,23.06 L 32.99,23.23 L 32.96,23.73 Z" fill="url(#d)"/>
<path d="M 33.09,25.755 L 29.74,25.82 L 29.73,25.32 L 33.09,25.27 V 25.77 Z" fill="url(#c)"/>
<path d="M 32.21,32.905 L 30,31.5 L 30.27,31.08 L 32.49,32.5 L 32.22,32.92 Z" fill="url(#b)"/>
<path d="M 28.68,22.275 A 8.78,8.78 0 0,1 29.74,18.09 C 29.83,17.92 30.03,18.02 29.98,18.19 A 12.02,12.02 0 0,0 29.96,24.59 C 30.45,26.2 31.49,27.56 32.18,29.09 A 7.5,7.5 0 0,1 32.12,34.92 A 13.28,13.28 0 0,1 29.51,38.65 A 7.84,7.84 0 0,1 28.09,39.95 C 27.69,40.13 27.74,39.73 28.09,39.39 A 16.19,16.19 0 0,0 30.76,35.99 A 12.05,12.05 0 0,0 31.9,33.39 A 7.07,7.07 0 0,0 30.82,28.18 A 10.12,10.12 0 0,1 28.69,22.28 Z" fill="rgb(1, 130, 58)"/>
<path d="M 30.97,36.325 L 28.48,33.91 L 28.83,33.55 L 31.33,35.99 L 30.98,36.34 Z" fill="url(#a)"/>
<path d="M 13.99,24.985 H 13 V 32 H 17 V 31 H 14 V 29 H 17 V 28 H 14 V 26 H 17 V 25 H 14 Z" fill="rgb(1, 70, 121)"/>
<path d="M 23.81,31.474999999999998 A 3.5,3.5 0 1,1 24.6,30.84 L 25.53,31.65 L 24.87,32.41 L 23.82,31.49 Z M 22.99,30.76 C 22.69,30.91 22.35,31 22,31 C 20.73,31 19.7,29.88 19.7,28.5 S 20.73,26 22,26 C 23.27,26 24.3,27.12 24.3,28.5 C 24.3,29.11 24.1,29.67 23.76,30.1 L 23.06,29.49 L 22.4,30.24 L 22.99,30.76 Z" fill="rgb(1, 70, 121)" fill-rule="evenodd"/>
<path d="M 38.99,23.985 H 38 V 32 H 43 V 31 H 39 V 24 Z M 46,24 H 45 V 32 H 50 V 31 H 46 V 24 Z M 8.26,23.6 C 8.96,23.53 9.77,23.67 10.7,24.08 L 10.3,24.99 A 3.75,3.75 0 0,0 8.38,24.6 C 7.69,24.68 7.22,25.11 7.08,25.55 A 0.92,0.92 0 0,0 7.1,26.2 C 7.2,26.42 7.39,26.66 7.75,26.87 C 7.99,27.01 8.25,27.1 8.55,27.2 L 8.8,27.28 C 9.2,27.42 9.65,27.6 10.05,27.97 C 10.75,28.63 10.96,29.57 10.66,30.38 C 10.36,31.2 9.58,31.82 8.46,31.95 A 3.87,3.87 0 0,1 5.71,31.22 L 5.69,31.2 L 6,30.81 L 6.31,30.42 A 1.03,1.03 0 0,0 6.45,30.52 A 3.02,3.02 0 0,0 8.35,30.96 C 9.15,30.86 9.57,30.46 9.72,30.04 C 9.88,29.61 9.78,29.1 9.36,28.7 A 2.32,2.32 0 0,0 8.47,28.23 L 8.28,28.16 C 7.97,28.06 7.58,27.93 7.25,27.73 C 6.73,27.43 6.37,27.04 6.18,26.59 C 5.99,26.14 5.99,25.67 6.13,25.24 A 2.5,2.5 0 0,1 8.26,23.61 Z M 6.31,30.42 Z" fill="rgb(1, 70, 121)"/>
<defs>
<linearGradient id="e" x1="32.5" x2="29" y1="21.5" y2="21" gradientUnits="userSpaceOnUse">
<stop stop-color="rgb(1, 70, 121)" offset="0"/>
<stop stop-color="rgb(1, 130, 58)" offset="1"/>
</linearGradient>
<linearGradient id="d" x1="33" x2="29" y1="23.49" y2="23.49" gradientUnits="userSpaceOnUse">
<stop stop-color="rgb(0, 72, 120)" offset="0"/>
<stop stop-color="rgb(1, 130, 58)" offset="1"/>
</linearGradient>
<linearGradient id="c" x1="33.11" x2="29.37" y1="25.58" y2="25.58" gradientUnits="userSpaceOnUse">
<stop stop-color="rgb(0, 72, 120)" offset="0"/>
<stop stop-color="rgb(1, 130, 58)" offset="1"/>
</linearGradient>
<linearGradient id="b" x1="32.37" x2="30" y1="32.85" y2="31.45" gradientUnits="userSpaceOnUse">
<stop stop-color="rgb(1, 130, 58)" offset="0"/>
<stop stop-color="rgb(1, 70, 121)" offset="1"/>
</linearGradient>
<linearGradient id="a" x1="31.17" x2="28.5" y1="36.41" y2="34.94" gradientUnits="userSpaceOnUse">
<stop stop-color="rgb(1, 130, 58)" offset="0"/>
<stop stop-color="rgb(1, 70, 121)" offset="1"/>
</linearGradient>
</defs>
</svg>
