<?xml version="1.0" encoding="UTF-8"?>
<!-- generated by Finnhub -->
<svg viewBox="0 0 55.5 55.5" xmlns="http://www.w3.org/2000/svg">
<path d="M 0,0 H 55.5 V 55.5 H 0 Z" fill="rgb(239, 242, 248)"/>
<path d="M 37.480000000000004,18.755 C 38.19,19.09 38.87,19.09 39.01,18.77 C 39.16,18.44 38.71,17.91 38.01,17.59 C 37.31,17.26 36.62,17.26 36.48,17.59 C 36.33,17.91 36.78,18.44 37.48,18.77 Z M 34.8,19.5 C 35.53,19.84 36.25,19.8 36.4,19.45 C 36.56,19.09 36.08,18.53 35.34,18.21 C 34.6,17.88 33.88,17.91 33.73,18.26 C 33.58,18.62 34.05,19.18 34.79,19.51 Z M 44.05,19.31 C 44.41,19.49 44.77,19.5 44.85,19.33 C 44.94,19.16 44.71,18.87 44.35,18.69 C 43.98,18.51 43.62,18.5 43.54,18.67 C 43.45,18.85 43.68,19.13 44.04,19.31 Z M 42.52,20.03 C 42.98,20.26 43.45,20.27 43.55,20.05 C 43.65,19.83 43.36,19.46 42.9,19.23 C 42.43,19 41.97,18.99 41.86,19.21 C 41.76,19.43 42.05,19.8 42.52,20.03 Z M 40.68,20.92 C 41.28,21.22 41.88,21.24 42.02,20.96 C 42.16,20.67 41.78,20.2 41.18,19.9 C 40.58,19.6 39.98,19.58 39.84,19.86 C 39.7,20.14 40.08,20.62 40.68,20.92 Z M 8.74,21.48 C 9.15,21.76 9.64,21.75 9.82,21.48 C 10,21.19 9.82,20.74 9.41,20.46 C 9,20.17 8.51,20.18 8.33,20.46 C 8.15,20.74 8.33,21.19 8.74,21.48 Z M 38.34,21.87 C 39.09,22.24 39.84,22.23 40,21.87 C 40.17,21.49 39.71,20.9 38.96,20.54 C 38.22,20.17 37.48,20.18 37.3,20.54 C 37.13,20.92 37.6,21.51 38.34,21.87 Z M 36.1,23.04 C 36.88,23.41 37.66,23.38 37.85,22.98 C 38.04,22.57 37.55,21.93 36.76,21.56 C 35.98,21.19 35.19,21.22 35.01,21.63 C 34.82,22.03 35.31,22.67 36.09,23.04 Z M 33.16,23.91 C 34.03,24.31 34.9,24.24 35.11,23.76 C 35.31,23.29 34.77,22.58 33.9,22.19 C 33.03,21.79 32.15,21.86 31.95,22.34 C 31.75,22.82 32.28,23.52 33.15,23.91 Z M 11.33,24.29 C 12.08,24.69 12.93,24.56 13.21,24 C 13.49,23.44 13.11,22.66 12.35,22.26 C 11.6,21.86 10.75,21.99 10.47,22.55 C 10.18,23.11 10.57,23.89 11.33,24.29 Z" fill="rgb(7, 52, 91)"/>
<path d="M 41.480000000000004,23.955 C 42.01,24.25 42.55,24.27 42.69,24 C 42.82,23.74 42.5,23.3 41.98,23.01 C 41.45,22.73 40.92,22.71 40.78,22.98 C 40.65,23.25 40.96,23.69 41.48,23.98 Z" fill="rgb(241, 144, 3)"/>
<path d="M 30.66,25.465 C 31.6,25.88 32.53,25.77 32.75,25.23 C 32.97,24.7 32.4,23.94 31.47,23.54 C 30.54,23.14 29.61,23.26 29.39,23.79 C 29.17,24.33 29.75,25.09 30.67,25.49 Z" fill="rgb(7, 52, 91)"/>
<path d="M 39.5,25.345 C 40.16,25.7 40.81,25.7 40.99,25.36 C 41.15,25.02 40.77,24.47 40.13,24.13 C 39.48,23.8 38.83,23.8 38.65,24.13 C 38.48,24.47 38.87,25.03 39.51,25.36 Z" fill="rgb(241, 144, 3)"/>
<path d="M 15.47,27.585 C 16.66,27.92 17.78,27.53 18,26.72 C 18.22,25.92 17.43,24.99 16.26,24.67 C 15.08,24.34 13.95,24.73 13.73,25.54 C 13.52,26.34 14.3,27.27 15.48,27.59 Z M 27.48,26.98 C 28.48,27.38 29.46,27.2 29.69,26.59 C 29.92,25.99 29.3,25.18 28.31,24.79 C 27.32,24.39 26.33,24.57 26.11,25.18 C 25.87,25.78 26.49,26.59 27.48,26.98 Z" fill="rgb(7, 52, 91)"/>
<path d="M 37.080000000000005,26.825 C 37.89,27.33 38.75,27.37 39.01,26.92 C 39.28,26.48 38.84,25.72 38.04,25.22 C 37.24,24.72 36.37,24.69 36.11,25.14 C 35.85,25.58 36.28,26.34 37.09,26.84 Z" fill="rgb(241, 144, 3)"/>
<path d="M 23.889999999999997,28.845 C 24.98,29.24 26.04,28.98 26.27,28.28 C 26.5,27.59 25.82,26.72 24.74,26.35 C 23.67,25.97 22.61,26.23 22.38,26.92 C 22.15,27.62 22.83,28.49 23.9,28.86 Z" fill="rgb(7, 52, 91)"/>
<path d="M 34.71,28.625 C 35.6,29.08 36.52,29.02 36.78,28.49 C 37.03,27.96 36.52,27.18 35.63,26.73 C 34.75,26.29 33.83,26.35 33.57,26.88 C 33.32,27.4 33.83,28.19 34.72,28.64 Z" fill="rgb(241, 144, 3)"/>
<path d="M 43.22,27.735 C 43.78,28.07 44.36,28.1 44.52,27.82 C 44.68,27.53 44.36,27.04 43.8,26.72 C 43.25,26.4 42.67,26.37 42.51,26.65 C 42.36,26.94 42.68,27.43 43.23,27.75 Z" fill="rgb(197, 197, 196)"/>
<path d="M 31.81,30.325 C 32.77,30.79 33.75,30.68 34.02,30.09 C 34.29,29.49 33.75,28.65 32.81,28.19 C 31.86,27.75 30.88,27.86 30.61,28.45 C 30.34,29.05 30.88,29.89 31.82,30.35 Z" fill="rgb(241, 144, 3)"/>
<path d="M 19.61,30.995 C 20.8,31.34 21.93,30.95 22.15,30.15 C 22.36,29.34 21.58,28.42 20.41,28.09 C 19.23,27.76 18.1,28.14 17.88,28.95 C 17.67,29.76 18.45,30.68 19.62,31.01 Z" fill="rgb(7, 52, 91)"/>
<path d="M 40.72,29.395 C 41.33,29.75 41.95,29.75 42.13,29.42 C 42.3,29.1 41.97,28.56 41.38,28.22 C 40.79,27.89 40.17,27.88 39.98,28.21 C 39.81,28.54 40.14,29.08 40.73,29.41 Z M 38.3,31.1 C 38.92,31.45 39.59,31.44 39.79,31.07 C 39.99,30.71 39.65,30.12 39.03,29.77 C 38.41,29.41 37.75,29.42 37.54,29.79 C 37.34,30.15 37.68,30.74 38.3,31.09 Z" fill="rgb(197, 197, 196)"/>
<path d="M 28.58,32.425 C 29.59,32.9 30.66,32.72 30.95,32.04 C 31.25,31.37 30.66,30.44 29.65,29.99 C 28.64,29.53 27.58,29.71 27.29,30.39 C 26.99,31.06 27.58,31.99 28.59,32.44 Z" fill="rgb(241, 144, 3)"/>
<path d="M 14.96,33.865 C 16.42,34.13 17.73,33.53 17.89,32.53 C 18.06,31.53 17.02,30.53 15.57,30.28 C 14.12,30.03 12.81,30.63 12.65,31.62 C 12.48,32.62 13.53,33.62 14.97,33.88 Z" fill="rgb(7, 52, 91)"/>
<path d="M 35.43,33.165 C 36.1,33.54 36.81,33.5 37.04,33.08 C 37.26,32.66 36.91,32.02 36.24,31.65 C 35.59,31.28 34.87,31.33 34.65,31.75 C 34.43,32.17 34.78,32.81 35.44,33.18 Z M 40.7,32.87 C 41.12,33.1 41.57,33.07 41.7,32.82 C 41.84,32.56 41.6,32.16 41.17,31.93 C 40.75,31.71 40.29,31.73 40.17,31.99 C 40.03,32.25 40.27,32.64 40.69,32.87 Z" fill="rgb(197, 197, 196)"/>
<path d="M 25.09,34.865 C 26.2,35.32 27.33,35.04 27.63,34.25 C 27.93,33.46 27.28,32.46 26.19,32.02 C 25.09,31.58 23.95,31.87 23.65,32.65 C 23.35,33.45 23.99,34.44 25.09,34.88 Z" fill="rgb(241, 144, 3)"/>
<path d="M 42.260000000000005,34.015 C 42.53,34.18 42.82,34.16 42.9,34 C 42.99,33.84 42.84,33.59 42.57,33.44 C 42.31,33.29 42.02,33.31 41.93,33.47 C 41.85,33.63 42,33.88 42.27,34.03 Z M 32.44,35.4 C 33.14,35.79 33.92,35.71 34.17,35.23 S 34.06,34.05 33.35,33.67 C 32.65,33.28 31.88,33.36 31.63,33.84 S 31.74,35.02 32.44,35.4 Z" fill="rgb(197, 197, 196)"/>
<path d="M 21.04,37.525 C 22.15,37.9 23.25,37.51 23.51,36.67 C 23.77,35.84 23.09,34.87 22,34.51 C 20.9,34.16 19.8,34.54 19.55,35.38 C 19.29,36.22 19.96,37.18 21.05,37.54 Z" fill="rgb(241, 144, 3)"/>
<path d="M 28.99,38.265 C 29.75,38.68 30.6,38.55 30.87,37.98 C 31.15,37.42 30.77,36.65 30.02,36.25 C 29.26,35.85 28.42,35.99 28.14,36.55 C 27.86,37.11 28.24,37.89 29,38.28 Z" fill="rgb(197, 197, 196)"/>
</svg>
