<?xml version="1.0" encoding="UTF-8"?>
<!-- generated by Finnhub -->
<svg viewBox="0 0 55.5 55.5" xmlns="http://www.w3.org/2000/svg">
<path d="M 0,0 H 55.5 V 55.5 H 0 Z" fill="rgb(239, 242, 248)"/>
<path d="M 38.940000000000005,21.985 C 38.17,21.63 37.35,21.33 36.52,21.09 C 34.9,20.73 33.28,20.69 31.67,20.99 C 30.47,21.21 29.32,21.64 28.24,22.3 A 0.5,0.5 0 0,1 28.06,22.37 A 0.3,0.3 0 0,1 27.86,22.34 A 11,11 0 0,0 19.26,21.16 L 17.02,22.07 C 16.86,22.14 16.79,22.27 16.81,22.44 L 17.15,24.9 A 11.11,11.11 0 0,0 22.54,31.83 C 22.62,31.88 22.66,31.94 22.67,32.03 L 22.75,32.73 A 11.2,11.2 0 0,0 25.9,39.66 L 26.76,40.38 C 27.13,40.7 27.51,40.98 27.91,41.23 C 27.99,41.28 28.07,41.28 28.15,41.23 C 28.87,40.77 29.54,40.23 30.15,39.63 A 11.28,11.28 0 0,0 33.33,32.03 C 33.33,31.92 33.38,31.84 33.48,31.78 A 11.5,11.5 0 0,0 38.77,24.92 C 38.94,24.12 39.06,23.3 39.1,22.45 L 39.09,22.12 C 39.09,22.14 39.08,22.12 39.06,22.07 A 0.33,0.33 0 0,0 38.96,21.99 Z M 23.04,29.1 A 11.14,11.14 0 0,1 25.81,24.17 A 8.84,8.84 0 0,0 19.69,23.74 C 19.59,23.76 19.56,23.82 19.58,23.91 A 8.7,8.7 0 0,0 23.04,29.11 Z M 30.19,24.17 A 11.17,11.17 0 0,1 32.95,29.06 A 8.92,8.92 0 0,0 36.34,23.9 C 36.36,23.8 36.32,23.73 36.22,23.7 A 8.57,8.57 0 0,0 32.22,23.55 C 31.54,23.68 30.86,23.89 30.19,24.17 Z M 30.66,32.94 A 8.64,8.64 0 0,1 28.1,38.04 C 28.04,38.1 27.98,38.1 27.91,38.04 A 8.72,8.72 0 0,1 25.35,33.02 C 25.35,33 25.37,32.97 25.4,32.95 C 27.1,33.33 28.85,33.33 30.66,32.94 Z" fill="rgb(77, 125, 139)" fill-rule="evenodd"/>
<path d="M 39.050000000000004,22.055 A 18.25,18.25 0 0,0 36.53,21.09 A 18.49,18.49 0 0,0 35.93,19.02 A 8.85,8.85 0 0,0 33.59,15.72 A 8.4,8.4 0 0,0 30.02,13.85 A 8.27,8.27 0 0,0 24.85,14.18 A 8.5,8.5 0 0,0 19.69,19.94 L 19.49,20.66 L 19.36,20.9 A 0.71,0.71 0 0,0 19.26,21.16 L 17.02,22.07 C 16.86,22.14 16.79,22.27 16.81,22.44 L 17.15,24.9 C 16.47,25.5 15.97,25.99 15.68,26.34 A 8.38,8.38 0 0,0 14.19,35 A 8.78,8.78 0 0,0 16.05,37.87 A 8.6,8.6 0 0,0 25.33,39.83 L 25.62,39.73 C 25.72,39.72 25.81,39.69 25.9,39.66 L 26.76,40.38 C 27.13,40.7 27.51,40.98 27.91,41.23 C 27.99,41.28 28.07,41.28 28.15,41.23 C 28.87,40.77 29.54,40.23 30.15,39.63 C 30.14,39.71 30.21,39.76 30.37,39.77 C 30.47,39.77 30.55,39.79 30.61,39.81 A 8.4,8.4 0 0,0 37.58,39.55 A 8.46,8.46 0 0,0 42.35,32.67 C 42.55,30.15 41.81,27.97 40.12,26.12 A 9.24,9.24 0 0,0 38.77,24.92 C 38.94,24.12 39.06,23.3 39.1,22.45 L 39.09,22.12 C 40.17,22.66 41.15,23.4 42.02,24.35 A 10.89,10.89 0 0,1 44.97,31.19 C 45.14,33.67 44.52,35.96 43.12,38.05 A 11.14,11.14 0 0,1 28.16,41.45 A 0.25,0.25 0 0,0 27.89,41.45 A 11.36,11.36 0 0,1 18.03,42.23 A 11.17,11.17 0 0,1 11.04,30.95 A 11.01,11.01 0 0,1 16.62,22.27 C 16.69,22.23 16.74,22.17 16.77,22.11 A 0.55,0.55 0 0,0 16.81,21.91 C 16.87,19.41 17.65,17.21 19.15,15.31 A 11.06,11.06 0 0,1 30.58,11.31 C 32.8,11.86 34.67,12.97 36.19,14.64 A 10.95,10.95 0 0,1 39.04,20.92 C 39.06,21.08 39.07,21.27 39.06,21.49 V 22.07 Z" fill="rgb(184, 203, 208)"/>
<path d="M 30.189999999999998,24.155 A 11.17,11.17 0 0,1 32.95,29.06 C 33.14,29.9 33.25,30.75 33.29,31.6 A 0.46,0.46 0 0,1 32.99,32.08 L 32.79,32.17 C 32.28,32.39 31.88,32.55 31.59,32.63 L 30.66,32.93 C 28.86,33.33 27.1,33.33 25.4,32.95 C 24.64,32.75 23.85,32.45 23.02,32.09 C 22.79,31.99 22.68,31.81 22.7,31.57 C 22.76,30.71 22.87,29.89 23.04,29.1 A 11.14,11.14 0 0,1 27.74,22.58 C 27.91,22.47 28.11,22.48 28.32,22.63 C 29.02,23.1 29.65,23.61 30.19,24.17 Z"/>
<path d="M 27.99,25.705 H 28.04 A 8.8,8.8 0 0,1 30.53,30.15 C 30.53,30.19 30.53,30.22 30.48,30.23 C 30.18,30.36 29.8,30.46 29.34,30.52 C 28.8,30.59 28.35,30.63 28,30.63 C 27.65,30.63 27.2,30.6 26.66,30.53 A 4.76,4.76 0 0,1 25.52,30.25 C 25.48,30.23 25.47,30.2 25.48,30.16 A 8.8,8.8 0 0,1 27.94,25.73 L 27.99,25.72 Z" fill="rgb(239, 242, 248)"/>
</svg>
