<?xml version="1.0" encoding="UTF-8"?>
<!-- generated by Finnhub -->
<svg viewBox="0 0 55.5 55.5" xmlns="http://www.w3.org/2000/svg">
<path d="M 0,0 H 55.5 V 55.5 H 0 Z" fill="rgb(239, 242, 248)"/>
<path d="M 12.02,28.985 A 16,16 0 1,0 27,12.03 V 16.04 A 12,12 0 1,1 16.04,29 H 12.04 Z" fill="url(#d)"/>
<path d="M 25.99,27.985 H 21 V 32.67 A 2.4,2.4 0 0,0 23.47,35 H 33.3 A 3.6,3.6 0 0,0 37,31.5 A 3.6,3.6 0 0,0 33.3,28 H 32 V 30.4 C 32,30.73 31.71,31 31.36,31 H 26.64 A 0.62,0.62 0 0,1 26,30.4 V 28 Z" fill="url(#c)"/>
<path d="M 26.99,24.125 C 27,24.61 27.41,25 27.93,25 H 31.35 C 31.71,25 32,25.27 32,25.6 V 28 H 33.25 C 35.32,28 37,26.43 37,24.5 S 35.32,21 33.25,21 H 27 V 24.14 Z" fill="url(#b)"/>
<path d="M 24.09,39.335 A 12,12 0 0,1 21,18.25 V 32.67 C 21,33.33 21.3,33.92 21.78,34.35 L 26,30.73 V 12.13 C 18.25,13.23 12,19.94 12,28 A 16,16 0 0,0 43,33.57 C 40.95,36.56 36.7,40.7 30.9,40.7 C 28.19,40.7 25.95,40.19 24.1,39.35 Z" fill="url(#a)"/>
<defs>
<linearGradient id="d" x1="28.01" x2="28.01" y1="12" y2="44" gradientUnits="userSpaceOnUse">
<stop stop-color="rgb(202, 44, 43)" offset="0"/>
<stop stop-color="rgb(122, 44, 57)" offset="1"/>
</linearGradient>
<linearGradient id="c" x1="37" x2="21.82" y1="31.46" y2="31.46" gradientUnits="userSpaceOnUse">
<stop stop-color="rgb(201, 44, 42)" offset="0"/>
<stop stop-color="rgb(125, 45, 57)" offset="1"/>
</linearGradient>
<linearGradient id="b" x1="32" x2="32" y1="21" y2="28" gradientUnits="userSpaceOnUse">
<stop stop-color="rgb(201, 44, 42)" offset="0"/>
<stop stop-color="rgb(125, 45, 57)" offset="1"/>
</linearGradient>
<linearGradient id="a" x1="19.05" x2="30.08" y1="16.43" y2="40.07" gradientUnits="userSpaceOnUse">
<stop stop-color="rgb(125, 44, 58)" offset=".22"/>
<stop stop-color="rgb(214, 48, 46)" offset=".66"/>
</linearGradient>
</defs>
</svg>
