<!-- by Finnhub --><svg width="56" height="56" viewBox="0 0 56 56" xmlns="http://www.w3.org/2000/svg"><path fill="url(#a2jhmpehy)" d="M0 0h56v56H0z"/><path fill-rule="evenodd" d="M26 24.47a4.02 4.02 0 0 1-1.54-1.61l-3.48.83a2.02 2.02 0 0 1-.6 1.76l1.8 3.8a3.49 3.49 0 0 1 1.9-.2L26 24.47Zm-6.71 1.5 1.86 3.94c-.26.24-.5.51-.67.82l-7.57-2.97 4.42-2.65a2 2 0 0 0 1.96.87Zm-6.73 2.96 7.5 2.94a3.52 3.52 0 0 0 .5 2.53l-4.01 4.14-3.99-9.61Zm4.82 10.49 4-4.13a3.48 3.48 0 0 0 2.46.7l3.03 7.36-9.5-3.93Zm10.51 3.23-2.87-7A3.5 3.5 0 0 0 26.96 33h4.3a2 2 0 0 0 .51.58l-3.88 9.07ZM31 32a2 2 0 0 1 .4-1.21l-2.43-5.9a4.01 4.01 0 0 1-1.84.02l-1.9 4.55A3.5 3.5 0 0 1 26.96 32H31Zm-7-11c0-.28.03-.55.08-.8l-6.6-2.86L18.98 22H19a2 2 0 0 1 1.4.58l3.66-.87A4.03 4.03 0 0 1 24 21Zm-5.9-4.72 6.4 2.77a4 4 0 0 1 3-2.02V12.4l-9.4 3.9Zm13.45 2.88a4 4 0 0 0-2.84-2.1v-4.59l9.43 3.91-6.59 2.78ZM32 21c0-.23-.02-.46-.06-.68l6.58-2.79-2.17 5.62a2.5 2.5 0 0 0-2.62.59l-2.05-1.16c.2-.49.32-1.02.32-1.58Zm-1.91 3.41c.35-.22.67-.49.94-.8l2.07 1.17a2.5 2.5 0 0 0 1.31 2.97l-1.05 2.28a2.01 2.01 0 0 0-.93.05l-2.34-5.67ZM32.9 34l-4.04 9.46 9.68-4.01-5.3-5.46a2.03 2.03 0 0 1-.34 0Zm1.49-.57 5.02 5.18 4.02-9.7-8.48 3.47a2 2 0 0 1-.56 1.05Zm.4-2.3 7.58-3.1-4.69-1.33a2.5 2.5 0 0 1-2.06 1.3l-1.2 2.6a2 2 0 0 1 .38.54Zm3.2-5.6 5.44 1.54-3.78-9.11-2.28 5.9c.39.43.62 1 .62 1.64v.03Zm-21-1.64a2 2 0 0 1 .82-1.5l-1.44-4.53-3.53 8.52L17 23.9ZM28 11l12.02 4.98L45 28l-4.98 12.02L28 45l-12.02-4.98L11 28l4.98-12.02L28 11Z" fill="#fff"/><defs><linearGradient id="a2jhmpehy" x1="46.84" y1="7.74" x2="7.94" y2="47.22" gradientUnits="userSpaceOnUse"><stop stop-color="#361C5B"/><stop offset="1" stop-color="#E7285B"/></linearGradient></defs></svg>