<!-- by Finnhub --><svg width="56" height="56" viewBox="0 0 56 56" xmlns="http://www.w3.org/2000/svg"><path fill="#234E70" d="M0 0h56v56H0z"/><path fill-rule="evenodd" d="M7 21v14h3v-5h1.65c2.4 0 4.35-1.88 4.35-4.5S14.05 21 11.65 21H7Zm3 3h1.61c.77 0 1.39.67 1.39 1.5s-.62 1.5-1.39 1.5H10v-3Zm7 11h-3l6.05-14L26 35h-3.15l-.71-2h-4.36L17 35Zm3.05-7.85L21.07 30h-2.13l1.11-2.85ZM27 35V21h4.47A4.64 4.64 0 0 1 36 25.58c.01.93-.43 2.85-2.42 3.71L38 35h-3.7L30 29v6h-3Zm4.55-11H30v3h1.55c.8 0 1.45-.67 1.45-1.5s-.65-1.5-1.45-1.5ZM50 28c0 4.49-2.82 7-6.67 7-3.5 0-6.33-3.13-6.33-7s2.83-7 6.33-7c1.87 0 3.65.9 4.9 2.33l-1.73 2.32A3.97 3.97 0 0 0 43.53 24C41.58 24 40 25.8 40 28s1.58 4 3.53 4c1.78 0 3-.53 3.28-2H43v-3h6.93c.05.33.07.66.07 1Z" fill="#fff"/></svg>