<?xml version="1.0" encoding="UTF-8"?>
<!-- generated by Finnhub -->
<svg viewBox="0 0 55.5 55.5" xmlns="http://www.w3.org/2000/svg">
<path d="M0 0h55.5v55.5H0z" fill="rgb(239, 242, 248)"/>
<path d="M4 31v-6h1.89c.65 0 1.14.14 1.48.42.34.28.5.69.5 1.22 0 .3-.06.56-.2.78a1.2 1.2 0 0 1-.56.5c.28.07.5.23.65.46.16.23.24.52.24.86 0 .57-.17 1.01-.5 1.3-.33.3-.8.45-1.4.46H4zm1-2.61V30h1.17c.26 0 .46-.06.61-.2a.76.76 0 0 0 .22-.58c0-.55-.3-.82-.8-.83H5zm0-.88h.89c.55 0 .88-.26.88-.74 0-.56-.29-.77-.88-.77H5v1.51zm19.9 1.3H24V31h-1v-6h1.9c.62 0 1.08.16 1.41.47.33.32.5.77.5 1.34 0 .41-.08.75-.23 1.03-.15.27-.38.49-.7.65L27 31h-1.16l-.94-2.2zm-.9-1h.97a.8.8 0 0 0 .62-.24.93.93 0 0 0 .22-.66 1 1 0 0 0-.21-.67c-.14-.16-.35-.24-.63-.24H24v1.8zm20.5.69h2.14v-1H44.5V26H47v-1h-3.5v6H47v-1h-2.5v-1.5zm-3 2.5h1v-6h-1v2.5H39V25h-1v6h1v-2.5h2.5V31zm7.5-2.2h.9l.95 2.2H52l-1.11-2.51c.3-.16.54-.38.69-.65.15-.28.23-.62.23-1.03 0-.57-.17-1.02-.5-1.34-.33-.31-.8-.47-1.4-.47H48v6h1v-2.2zm.97-1H49V26h.97c.28 0 .5.08.63.24a1 1 0 0 1 .2.67c0 .28-.07.5-.21.66a.8.8 0 0 1-.62.23zM18 25v6h2.1c.6 0 1.07-.16 1.4-.45.33-.3.5-.74.5-1.31 0-.34-.08-.63-.24-.86a1.12 1.12 0 0 0-.65-.47c.24-.1.43-.26.56-.49.14-.22.2-.48.2-.78 0-.53-.16-.94-.5-1.22-.34-.28-.83-.42-1.48-.42H18zm1 5v-1.61h1.2c.5 0 .8.28.8.83 0 .25-.07.44-.22.58-.15.14-.35.2-.61.2H19zm.89-2.49H19v-1.5h.89c.6 0 .88.2.88.76 0 .48-.33.73-.88.74zM10 31H9v-6h1v6zm3.7-5h1.72v-1H11v1h1.7v5h1v-5zm23.5 0H35.5v5h-1v-5h-1.7v-1h4.41v1zm-4.88 3.64c.2-.43.31-.93.31-1.5v-.27c0-.57-.1-1.07-.31-1.51-.21-.44-.5-.77-.89-1a2.42 2.42 0 0 0-1.3-.36 2.32 2.32 0 0 0-2.19 1.36c-.2.44-.3.94-.3 1.52v.28c0 .57.1 1.06.3 1.5a2.32 2.32 0 0 0 2.2 1.34 2.3 2.3 0 0 0 2.19-1.36zM30.13 26c.82 0 1.5.64 1.5 1.87v.28c0 1.21-.68 1.85-1.5 1.85s-1.5-.68-1.5-1.87v-.28c0-1.22.7-1.85 1.5-1.85z"/>
</svg>
