<?xml version="1.0" encoding="UTF-8"?>
<!-- generated by Finnhub -->
<svg viewBox="0 0 55.5 55.5" xmlns="http://www.w3.org/2000/svg">
<path d="M 0,0 H 55.5 V 55.5 H 0 Z" fill="rgb(1, 74, 150)"/>
<path d="M 13.99,32.985 V 23 A 9.1,9.1 0 0,0 12,23.4 V 33 H 14 Z M 7.08,23 C 5.58,23.01 4.4,23.24 4,23.35 V 32.73 C 4.27,32.83 5.25,33.03 7.08,33 C 9.36,32.97 11,32.14 11,30.18 C 11,28.52 9.9,27.85 9.34,27.72 C 9.83,27.7 10.76,27.02 10.76,25.62 C 10.76,23.59 8.94,22.98 7.08,23 Z M 8.6,25.84 C 8.6,24.62 6.88,24.74 6,24.94 V 26.92 C 6.86,27.04 8.6,27.24 8.6,25.84 Z M 6,28.95 C 7.01,28.73 9,28.61 9,29.93 C 9,31.46 6.99,31.24 6,31.11 V 28.95 Z M 15,27 A 4,4 0 0,1 19,23 H 20 A 4,4 0 0,1 24,27 V 29 A 4,4 0 0,1 20,33 H 19 A 4,4 0 0,1 15,29 V 27 Z M 17,27 C 17,25.9 17.9,25 19,25 H 20 A 2,2 0 0,1 22,27 V 29 A 2,2 0 0,1 20,31 H 19 A 2,2 0 0,1 17,29 V 27 Z M 27,23 A 9.1,9.1 0 0,0 25,23.4 V 33 H 30 V 31 H 27 V 23 Z M 33.72,23.35 L 31,33 H 33.04 L 33.58,31 H 36.48 L 36.99,33 H 38.99 L 36.12,23 C 35.32,23.07 34.18,23.27 33.72,23.35 Z M 34,29 H 36 L 34.98,25 L 34,29 Z M 42.64,23 H 45.6 V 25 H 43.25 C 42.29,25 42,25.33 42,25.7 C 42,26.41 42.63,26.65 43.2,26.87 L 43.46,26.97 C 44.54,27.42 46.03,28.24 46,30.34 A 2.54,2.54 0 0,1 43.46,33 H 40 V 31 H 42.75 C 43.25,31 44,30.82 44,30.18 C 44,29.31 43.36,29.05 42.75,28.82 C 41.78,28.44 40,27.74 40,25.61 C 40,23.53 41.82,23 42.64,23 Z M 52,23 H 47 V 33 H 52 V 31 H 49 V 29 H 51.17 L 51.37,27 H 49 V 25 H 51.78 L 52,23 Z" fill="rgb(254, 254, 253)" fill-rule="evenodd"/>
</svg>
