<!-- by Finnhub --><svg width="56" height="56" viewBox="0 0 56 56" xmlns="http://www.w3.org/2000/svg"><path fill="#F0F3FA" d="M0 0h56v56H0z"/><path d="m28 11 15 8.5v17L28 45l-15-8.5v-17L28 11Z" fill="#DFF0F7"/><path d="M13 29.24v7.26L28 45l15-8.5v-7.26l-15-8.5-15 8.5Z" fill="#C8E8EE"/><path d="M13 32.16v4.34L28 45l15-8.5v-4.34l-15-8.5-15 8.5Z" fill="#A9DAE9"/><path d="M13 35.03v1.47L28 45l15-8.5v-1.47l-15-8.5-15 8.5Z" fill="#7EC5D9"/><path d="M41.76 37.2 28 45l-13.76-7.8L28 29.4l13.76 7.8Z" fill="#55AFCF"/><path d="M38.59 39 28 45l-10.59-6L28 33l10.59 6Z" fill="#299DC2"/></svg>