<?xml version="1.0" encoding="UTF-8"?>
<!-- generated by Finnhub -->
<svg viewBox="0 0 55.5 55.5" xmlns="http://www.w3.org/2000/svg">
<path d="M 0,0 H 55.5 V 55.5 H 0 Z" fill="url(#a)"/>
<path d="M 28.389999999999997,8.354999999999999 C 28.4,8.55 28.26,8.7 28.07,8.73 L 28.92,11.87 L 30.36,9.61 A 0.37,0.37 0 0,1 30.14,9.29 C 30.14,9.09 30.33,8.92 30.55,8.92 C 30.78,8.92 30.95,9.09 30.95,9.29 C 30.95,9.49 30.78,9.66 30.55,9.66 C 30.51,9.66 30.48,9.66 30.45,9.64 L 30.35,12.61 L 32.3,10.84 A 0.35,0.35 0 0,1 32.18,10.58 C 32.18,10.38 32.37,10.21 32.59,10.21 C 32.82,10.21 33,10.38 33,10.58 C 33,10.78 32.82,10.95 32.6,10.95 A 0.44,0.44 0 0,1 32.39,10.9 L 31,14 H 25 L 23.61,10.9 A 0.44,0.44 0 0,1 23.41,10.95 C 23.18,10.95 23,10.78 23,10.58 C 23,10.38 23.18,10.21 23.4,10.21 C 23.63,10.21 23.82,10.38 23.82,10.58 C 23.82,10.68 23.77,10.77 23.7,10.84 L 25.76,12.61 L 25.56,9.64 A 0.45,0.45 0 0,1 25.45,9.66 C 25.22,9.66 25.05,9.49 25.05,9.29 C 25.05,9.09 25.22,8.92 25.45,8.92 C 25.67,8.92 25.85,9.09 25.85,9.29 C 25.85,9.43 25.77,9.55 25.65,9.61 L 27.18,11.87 L 27.93,8.73 C 27.74,8.7 27.59,8.55 27.59,8.37 C 27.59,8.17 27.77,8 28,8 C 28.23,8 28.4,8.16 28.4,8.37 Z M 25,15 H 30.96 V 14.45 H 25 V 15 Z M 19.57,22.85 C 19.75,21.44 19.93,20.13 20.08,19.1 C 22.46,17.97 25.34,17 28,17 C 30.64,17 33.29,17.97 35.64,19.1 C 35.84,20.14 36.07,21.44 36.29,22.84 L 36,22.82 C 36.08,22.94 36.2,23.11 36.35,23.28 L 36.49,24.21 C 36.27,24.33 36.09,24.48 36,24.69 C 36.16,24.75 36.36,24.79 36.58,24.83 C 36.68,25.54 36.76,26.26 36.83,26.96 C 36.99,28.4 37.08,29.76 37.07,30.87 C 37.07,31.43 37.04,31.91 36.98,32.31 C 36.93,32.71 36.84,32.98 36.76,33.14 A 20.86,20.86 0 0,1 33.05,37.42 A 25.05,25.05 0 0,1 28.65,40.77 A 5.87,5.87 0 0,0 28.09,38.8 C 27.74,39.35 27.59,40 27.54,40.61 A 51.73,51.73 0 0,1 22.82,37.37 A 21.98,21.98 0 0,1 20.31,35.12 A 4.82,4.82 0 0,1 19.09,33.25 C 18.96,32.71 18.91,31.78 18.93,30.6 A 58.37,58.37 0 0,1 19.35,24.84 C 19.59,24.8 19.82,24.75 20,24.69 C 19.9,24.46 19.67,24.29 19.42,24.17 L 19.51,23.42 C 19.73,23.21 19.91,22.98 20,22.82 C 19.86,22.82 19.71,22.83 19.57,22.85 Z M 18.61,23.1 L 18.68,22.52 C 18.54,22.81 18.38,23.07 18.16,23.29 L 18.61,23.09 Z M 18.41,24.86 A 2.2,2.2 0 0,1 17.24,24.41 C 17.26,25.18 17.11,26.55 16.45,27.41 C 16.75,27.21 17.48,26.81 18.24,26.63 V 26.55 L 18.41,24.85 Z M 18.2,27.14 C 17.9,27.54 17.48,27.98 16.98,28.11 C 17.25,28.09 17.71,28.11 18.11,28.25 L 18.2,27.14 Z M 18.07,29 C 17.23,29.23 16.16,29.3 15.41,28.74 C 15.93,29.49 16.37,31.17 15.91,32.39 A 6.18,6.18 0 0,1 17.84,30.81 C 17.77,31.34 17.43,32.51 16.69,32.96 C 17,32.84 17.57,32.7 18.07,32.74 C 18.01,32.14 17.99,31.39 18.01,30.57 C 18.01,30.07 18.04,29.55 18.07,29 Z M 18.2,33.51 C 17.4,34.06 16.32,34.49 15.31,34.03 C 14.84,34.33 13.35,34.75 12,33.57 A 5.37,5.37 0 0,1 14.45,33.21 A 3.13,3.13 0 0,1 12.59,31.01 C 13.15,31.11 14.39,31.53 14.91,32.46 C 14.58,31.7 14.46,29.82 15.27,28.66 C 14.76,28.79 13.59,28.7 12.74,27.36 C 13.21,27.33 14.31,27.36 14.96,27.71 A 2.85,2.85 0 0,1 13.9,25.34 C 14.36,25.57 15.35,26.26 15.55,27.2 C 15.67,26.52 16.15,25.03 17.08,24.24 L 17.07,24.23 L 17.06,24.21 C 16.63,24.28 15.62,24.08 15.03,22.81 C 15.43,22.84 16.36,23 16.87,23.37 A 2.5,2.5 0 0,1 16.23,21.22 C 16.6,21.47 17.35,22.18 17.43,23 C 17.59,22.46 18.11,21.34 18.91,20.74 C 19.01,19.98 19.11,19.29 19.21,18.71 A 0.46,0.46 0 0,1 19.46,18.36 C 22,17.1 25.13,16 28,16 C 30.85,16 33.74,17.1 36.26,18.37 C 36.38,18.43 36.48,18.55 36.5,18.7 L 36.85,20.6 C 37.8,21.13 38.39,22.42 38.57,23 C 38.65,22.19 39.4,21.48 39.77,21.23 A 2.5,2.5 0 0,1 39.13,23.38 A 4.22,4.22 0 0,1 40.97,22.82 C 40.37,24.09 39.37,24.29 38.94,24.22 V 24.24 L 38.92,24.25 C 39.86,25.05 40.32,26.53 40.45,27.21 C 40.65,26.27 41.64,25.58 42.1,25.35 A 2.85,2.85 0 0,1 41.04,27.72 A 5,5 0 0,1 43.26,27.37 C 42.41,28.71 41.24,28.8 40.73,28.67 C 41.54,29.83 41.42,31.71 41.09,32.47 C 41.6,31.54 42.85,31.12 43.41,31.03 A 3.13,3.13 0 0,1 41.55,33.23 C 42.35,33.06 43.52,33.39 44,33.58 A 2.86,2.86 0 0,1 40.69,34.04 C 39.62,34.53 38.45,34.02 37.65,33.42 L 37.56,33.59 C 37.23,34.19 36.7,34.91 36.04,35.67 C 36.58,35.94 37.02,36.65 37.19,37.03 C 36.99,36.18 37.56,35.11 37.87,34.68 C 38.2,35.59 38.18,36.73 38.13,37.18 A 4.4,4.4 0 0,1 41.19,34.95 C 40.99,36.38 39.57,37.65 38.79,37.96 C 39.81,37.66 40.98,38.26 41.44,38.61 A 3.05,3.05 0 0,1 38.59,38.81 A 5.54,5.54 0 0,1 40.09,40.83 A 2.91,2.91 0 0,1 37.42,38.78 C 36.29,38.34 35.82,37.08 35.69,36.08 A 31.93,31.93 0 0,1 32.02,39.54 C 32.6,39.8 33.06,40.59 33.25,41.02 C 33.04,40.12 33.62,38.98 33.94,38.52 C 34.27,39.49 34.25,40.7 34.2,41.18 A 4.48,4.48 0 0,1 37.31,38.8 A 4.71,4.71 0 0,1 34.88,42 C 35.9,41.7 37.1,42.34 37.56,42.7 A 2.98,2.98 0 0,1 34.67,42.92 C 35.36,43.42 35.97,44.56 36.18,45.07 A 3,3 0 0,1 33.48,42.88 A 2.14,2.14 0 0,1 33.36,42.83 C 32.86,43.33 31.96,43.47 31.52,43.48 C 30.91,43.78 29.95,44.13 29.29,43.94 C 29.44,44.01 29.8,44.22 30.02,44.6 C 29.69,44.63 28.9,44.56 28.46,44.04 C 28.58,44.63 28.66,45.85 28,46 L 27.63,45.63 C 27.82,45.56 28.15,45.18 28,44.13 C 27.85,44.29 27.37,44.6 26.67,44.6 C 26.71,44.47 26.86,44.17 27.08,43.94 C 26.33,44.04 24.7,44.04 23.9,43.41 A 1.87,1.87 0 0,1 22.5,42.95 A 3.01,3.01 0 0,1 19.82,45.07 C 20.03,44.56 20.64,43.41 21.32,42.92 C 20.81,43.17 19.52,43.47 18.44,42.7 C 18.9,42.34 20.1,41.7 21.12,42 A 4.71,4.71 0 0,1 18.69,38.8 A 4.48,4.48 0 0,1 21.79,41.18 A 7.08,7.08 0 0,1 22.06,38.52 C 22.38,38.98 22.96,40.12 22.76,41.02 C 22.96,40.56 23.48,39.67 24.13,39.49 C 23.5,39.04 22.86,38.57 22.25,38.09 C 21.53,37.54 20.85,36.96 20.25,36.39 C 20.07,37.34 19.59,38.39 18.58,38.78 A 2.91,2.91 0 0,1 15.92,40.83 C 16.13,40.35 16.73,39.28 17.41,38.82 C 16.9,39.05 15.61,39.34 14.56,38.61 C 15.02,38.27 16.19,37.66 17.21,37.96 C 16.43,37.66 15.01,36.38 14.81,34.95 C 15.65,35.01 17.31,35.92 17.87,37.18 A 6.36,6.36 0 0,1 18.13,34.68 C 18.44,35.11 19.02,36.18 18.81,37.03 C 18.96,36.71 19.28,36.16 19.71,35.83 L 19.63,35.75 A 5.77,5.77 0 0,1 18.2,33.52 Z M 24.31,39.61 C 24.24,40.71 23.81,42.3 22.58,42.85 C 22.85,43.05 23.63,43.16 24.05,43.19 L 24.06,43.21 A 7.1,7.1 0 0,1 26.99,43.19 C 26.31,42.91 24.93,41.97 24.79,40.48 A 4,4 0 0,1 27.72,42.63 A 5.48,5.48 0 0,1 27.55,41.7 A 56.2,56.2 0 0,1 24.31,39.6 Z M 28.64,41.81 C 28.61,42.09 28.55,42.36 28.46,42.63 C 28.63,42.29 28.97,41.77 29.46,41.36 C 29.18,41.53 28.91,41.68 28.64,41.82 Z M 30.14,40.93 A 2,2 0 0,1 30.94,40.76 C 30.79,41.35 30.24,42.66 29.29,43.19 A 4.77,4.77 0 0,1 31.61,43.19 C 32.35,43.19 32.87,42.95 33.17,42.71 C 32.18,42.11 31.8,40.8 31.7,39.79 C 31.18,40.2 30.65,40.59 30.13,40.93 Z M 37.84,32.75 C 38.37,32.68 38.98,32.83 39.31,32.95 C 38.57,32.5 38.23,31.34 38.16,30.81 C 39.02,31.21 39.8,32.03 40.08,32.39 A 4.6,4.6 0 0,1 40.58,28.74 C 39.84,29.29 38.78,29.23 37.94,29 C 37.98,29.67 38,30.3 38,30.87 A 11.67,11.67 0 0,1 37.85,32.75 Z M 37.88,28.24 C 38.28,28.1 38.75,28.08 39.02,28.1 C 38.51,27.97 38.07,27.51 37.78,27.1 L 37.88,28.24 Z M 37.73,26.62 C 38.5,26.78 39.25,27.2 39.55,27.4 A 5.23,5.23 0 0,1 38.75,24.4 C 38.41,24.68 37.97,24.81 37.52,24.85 C 37.59,25.45 37.67,26.04 37.72,26.62 Z M 37.39,23.94 H 37.47 L 37.39,23.92 V 23.94 Z M 37.26,23.04 C 37.51,23.13 37.71,23.22 37.84,23.28 C 37.48,22.91 37.24,22.38 37.07,21.88 L 37.26,23.04 Z M 25,22 H 23 V 22.65 C 23.96,22.56 24,23.19 24,23.51 V 31.49 C 24,32.18 23.8,32.35 23.6,32.35 H 23 V 33 H 29.06 C 30.05,33 33,32.78 33,29.98 C 33,27.74 30.42,27 29.06,27 C 30.16,26.86 32.26,26.27 32.26,24.37 S 30.3,22 29.31,22 H 25 Z M 27.58,32.38 A 5.5,5.5 0 0,1 26,32.1 V 27.6 H 27.58 C 28.94,27.6 31,28.14 31,29.97 S 28.94,32.37 27.58,32.37 Z M 27.58,26.75 H 26 V 22.65 H 27.58 C 28.69,22.65 30,22.86 30,24.5 C 30,26.14 28.32,26.7 27.58,26.75 Z" fill="rgb(190, 164, 53)" fill-rule="evenodd"/>
<defs>
<linearGradient id="a" x1="10.42" x2="68.15" y1="9.71" y2="76.02" gradientUnits="userSpaceOnUse">
<stop stop-color="rgb(25, 29, 31)" offset="0"/>
<stop stop-color="rgb(5, 5, 8)" offset="1"/>
</linearGradient>
</defs>
</svg>
