<?xml version="1.0" encoding="UTF-8"?>
<!-- generated by Finnhub -->
<svg viewBox="0 0 55.5 55.5" xmlns="http://www.w3.org/2000/svg">
<path d="M 0,0 H 55.5 V 55.5 H 0 Z" fill="rgb(239, 242, 248)"/>
<path d="M 34.92,33.985 C 34.98,34.18 35,34.4 35,34.63 C 35.4,34.22 35.71,34 36.3,34 C 37.53,34 38.25,35.07 38.25,36.23 C 38.25,37.43 37.53,38.59 36.21,38.59 C 35.58,38.59 35.36,38.42 35,38.03 V 39.45 C 35,40.15 35,40.7 35.69,40.7 V 41 H 33.25 V 40.7 H 33.39 C 34.03,40.7 34,40.2 34,39.68 V 35.35 C 34,34.84 33.95,34.58 33.4,34.58 H 33.25 V 34.26 A 12.7,12.7 0 0,0 34.7,34 H 34.93 Z M 35,37.57 C 35.4,38.03 35.59,38.21 36.04,38.21 C 37.12,38.21 37.32,37.04 37.32,36.19 C 37.32,34.99 36.9,34.39 36.07,34.39 C 35.61,34.39 35.37,34.62 35,35.06 V 37.56 Z M 30,37.24 C 30,37.94 30,38.64 30.71,38.64 H 31.01 V 39 H 28 V 38.64 C 28.81,38.64 29,38.07 29,37.24 V 36.04 C 29,35.75 29,34.8 28.71,34.73 A 5.43,5.43 0 0,0 28,34.69 V 34.34 C 28.51,34.27 29.27,34.06 29.78,34 C 29.89,34.32 30,34.55 30,35 C 30.23,34.45 30.57,34 31.18,34 C 31.6,34 32,34.31 32,34.76 C 32,35.06 31.84,35.26 31.63,35.26 A 0.5,0.5 0 0,1 31.35,35.2 C 31.18,35.08 31.17,34.84 31,34.72 C 30.26,34.72 30,35.58 30,36.19 V 37.24 Z M 22,35.97 V 38.66 H 21.6 A 2.01,2.01 0 0,0 21.25,37.9 C 20.57,38.7 19.77,39 18.73,39 C 16.53,39 15,37.3 15,35.14 C 15,32.96 16.4,31 18.71,31 C 19.83,31 20.67,31.36 21.25,32.08 C 21.45,31.68 21.55,31.37 21.59,31.15 H 22 V 34.08 H 21.6 A 3.37,3.37 0 0,0 20.71,32.11 A 2.4,2.4 0 0,0 18.96,31.43 C 17,31.43 16,33.46 16,35.1 C 16,36.72 17,38.5 19.02,38.53 C 20.49,38.53 21.45,37.36 21.61,35.97 H 22 Z M 48,24 V 26.36 C 48,26.86 48,27.52 48.54,27.52 C 48.84,27.52 49.14,27.29 49.29,27.06 L 49.5,27.22 A 1.4,1.4 0 0,1 48.18,28 C 47.22,28 47,27.28 47,26.43 V 24 H 46.37 V 23.65 C 47.04,23.51 47.54,22.63 47.71,22 H 48 V 23.58 H 49 V 24 H 48 Z M 43,26.4 H 43.3 C 43.35,26.62 43.43,26.83 43.55,27.01 C 43.8,27.39 44.15,27.61 44.57,27.61 C 44.99,27.61 45.37,27.36 45.37,26.91 C 45.37,26.3 44.74,26.04 44.28,25.81 C 43.65,25.47 43.01,25.07 43.01,24.27 C 43.01,23.55 43.51,23 44.24,23 C 44.63,23 44.97,23.17 45.27,23.5 C 45.32,23.43 45.37,23.3 45.42,23.07 H 45.71 V 24.55 H 45.42 A 1.76,1.76 0 0,0 44.98,23.71 A 0.94,0.94 0 0,0 44.29,23.39 C 43.81,23.39 43.58,23.65 43.58,23.99 C 43.58,24.54 44.22,24.78 44.64,24.97 C 45.34,25.28 46,25.74 46,26.58 C 46,27.4 45.43,28 44.61,28 C 44.13,28 43.79,27.8 43.47,27.46 C 43.38,27.56 43.32,27.72 43.3,27.96 H 43 V 26.4 Z M 38.02,25 L 38,25.35 C 38,26.88 38.8,27.58 39.9,27.58 C 40.63,27.58 41.17,27.31 41.5,26.67 H 42 C 41.74,27.59 40.6,28 39.74,28 C 38.31,28 37,27.03 37,25.52 C 37,24.03 38.24,23 39.68,23 C 40.77,23 41.95,23.81 41.98,25 H 38.02 Z M 40.98,24.56 A 0.91,0.91 0 0,0 41,24.34 C 41,23.71 40.2,23.33 39.6,23.33 C 38.87,23.33 38.18,23.73 38.05,24.56 H 40.98 Z M 36,26.1 C 36,26.68 36.01,27.02 36.04,27.14 S 36.13,27.34 36.21,27.38 C 36.29,27.42 36.71,27.44 37,27.44 V 27.8 C 36.38,27.8 35.66,27.87 35.4,28 H 35.2 C 35.07,27.75 35,27.38 35,26.9 C 34.62,27.6 34.14,28 33.6,28 C 32.61,28 32,27.44 32,26.44 V 24.74 C 32,23.93 32.12,23.34 31.19,23.34 V 23 H 33 V 26.25 C 33,26.93 33.17,27.48 33.94,27.48 C 34.66,27.48 35,26.38 35,25.8 V 24.75 C 35,24.4 35,23.46 34.64,23.38 C 34.54,23.36 34.42,23.35 34.17,23.35 V 23 H 36 V 26.1 Z"/>
<path d="M 25.77,29.165 H 26.04 C 26.52,29.18 26.99,29.22 27.47,29.31 C 28.34,29.49 29.17,29.86 30.04,30.01 C 30.26,30.05 30.46,30.07 30.64,30.07 C 31.2,30.07 31.55,29.83 31.68,29.35 H 32 C 31.93,29.85 31.72,30.26 31.38,30.55 C 31.03,30.85 30.59,31 30.05,31 C 28.75,31 27.88,30.05 26.72,29.65 A 2.68,2.68 0 0,0 25.44,29.51 C 25.02,29.6 24.66,30 24.24,30 C 24.08,30 24,29.93 24,29.8 C 24,29.66 24.06,29.62 24.3,29.48 L 26.32,28 L 25.94,28.01 A 3.94,3.94 0 0,1 22,23.98 A 4.04,4.04 0 0,1 26,20 C 28.3,20 30,21.74 30,24 C 30,26.59 27.68,28.12 25.78,29.18 Z M 23,24 C 23,26.25 24.19,27.6 25.97,27.6 C 27.82,27.6 29,25.67 29,24.01 C 29,22.33 27.92,20.41 26.03,20.41 C 24.5,20.41 23,21.32 23,24 Z" fill="url(#a)"/>
<path d="M 15.99,25.465 C 16,24.08 17.1,23 18.5,23 S 21,24.08 21,25.5 C 21,26.93 19.93,28 18.5,28 A 2.44,2.44 0 0,1 16,25.48 Z M 17,25.51 C 17,26.51 17.32,27.57 18.5,27.57 C 19.69,27.57 20,26.53 20,25.52 C 20,24.52 19.7,23.43 18.5,23.43 S 17,24.51 17,25.51 Z M 23,36.48 C 23,35.08 24.1,34 25.5,34 S 28,35.08 28,36.5 C 28,37.93 26.93,39 25.5,39 A 2.44,2.44 0 0,1 23,36.48 Z M 24,36.51 C 24,37.51 24.32,38.57 25.5,38.57 C 26.69,38.57 27,37.53 27,36.52 C 27,35.52 26.7,34.43 25.5,34.43 S 24,35.51 24,36.51 Z M 15,26.23 V 26.91 C 15,27.56 15.43,27.64 16,27.64 V 28 H 13 V 27.64 C 13.75,27.64 14,27.5 14,26.71 V 25 C 14,24.6 13.99,24.32 13.97,24.18 C 13.93,23.9 13.93,23.76 13.74,23.7 A 3.5,3.5 0 0,0 13,23.65 V 23.3 C 13.2,23.3 13.47,23.26 13.83,23.2 C 14.2,23.13 14.45,23.06 14.73,22.99 H 15 V 26.24 Z M 14.14,21.15 A 0.5,0.5 0 0,0 14.51,22 A 0.48,0.48 0 0,0 15.01,21.5 A 0.5,0.5 0 0,0 14.86,21.15 A 0.45,0.45 0 0,0 14.51,21 A 0.49,0.49 0 0,0 14.14,21.15 Z M 6,28 V 27.6 C 6.7,27.6 6.97,27.54 7,26.75 L 7.02,25.83 V 22.2 C 7.02,21.82 7,20.5 6.65,20.54 C 6.55,20.5 6.47,20.48 6.08,20.48 V 20.08 C 6.98,20.03 7.82,20 8.6,20 H 8.85 C 10.06,20 11.5,20.43 11.5,21.9 C 11.5,22.9 10.87,23.54 9.46,23.74 C 10.69,23.82 12,24.44 12,25.83 C 12,27.39 10.67,28 9.27,28 H 6 Z M 8,25.56 L 8.01,26.65 C 8.03,27.28 8.41,27.58 9.08,27.58 C 10.18,27.58 11,27.06 11,25.83 C 11,24.46 9.92,23.99 8.63,23.99 L 8,24 V 25.56 Z M 8,23.56 H 8.51 C 9.65,23.56 10.5,23.14 10.5,21.96 C 10.5,20.95 9.9,20.41 8.88,20.4 C 8.68,20.4 8.24,20.41 8,20.43 V 23.55 Z"/>
<defs>
<linearGradient id="a" x1="21.98" x2="31.19" y1="23.05" y2="30.6" gradientUnits="userSpaceOnUse">
<stop stop-color="rgb(177, 150, 19)" offset=".12"/>
<stop stop-color="rgb(218, 195, 111)" offset=".29"/>
<stop stop-color="rgb(207, 165, 17)" offset=".44"/>
<stop stop-color="rgb(240, 216, 98)" offset=".53"/>
<stop stop-color="rgb(217, 188, 76)" offset=".63"/>
<stop stop-color="rgb(248, 229, 123)" offset=".8"/>
<stop stop-color="rgb(201, 151, 23)" offset=".96"/>
</linearGradient>
</defs>
</svg>
