<!-- by Finnhub --><svg width="56" height="56" viewBox="0 0 56 56" xmlns="http://www.w3.org/2000/svg"><path fill="#F0F3FA" d="M0 0h56v56H0z"/><path d="M9.76 24.89c0 .66-.33 1.16-.98 1.49.81.33 1.22.88 1.22 1.67 0 .62-.25 1.1-.74 1.44-.49.34-1.06.51-1.72.51H4v-7h3.4c.64 0 1.19.17 1.66.5.46.33.7.8.7 1.39Zm-2.58 2.18H6v1.51h1.18c.26 0 .48-.06.66-.19a.68.68 0 0 0 .26-.58c0-.25-.09-.44-.26-.56a1.12 1.12 0 0 0-.66-.18Zm-.13-2.65H6v1.44h1.05c.25 0 .46-.06.63-.18.16-.12.25-.3.25-.55 0-.25-.08-.43-.24-.54a1.1 1.1 0 0 0-.64-.17ZM16.78 25.23a2 2 0 0 1-.4 1.25c-.25.35-.61.6-1.08.75L17 30h-2.02l-1.5-2.59H13V30h-2v-7h3.2c.73 0 1.35.2 1.84.59.5.39.74.93.74 1.64ZM14 24.42h-1V26h1c.5 0 .93-.22.93-.75s-.42-.83-.93-.83ZM21.98 23 25 30h-2.02l-.46-1h-3.04l-.46 1H17l3.03-7h1.95ZM21 25l-.97 2.43h1.93L21 25ZM34.98 23 38 30h-2.02l-.45-1h-3.05l-.46 1H30l3.03-7h1.95ZM34 24.97l-.96 2.46h1.93l-.97-2.46ZM48.98 23 52 30h-2.02l-.45-1h-3.05l-.46 1H44l3.03-7h1.95ZM48 24.97l-.96 2.46h1.93l-.97-2.46ZM31 23l-2.97 7h-2.07L23 23h2.07L27 27.84 28.93 23H31ZM44 26.49c0 2.02-1.37 3.51-3.43 3.51H38v-7h2.57C42.6 23 44 24.48 44 26.49Zm-3.6-1.95H40v3.91h.4c1.15 0 1.89-.83 1.89-1.96s-.74-1.95-1.89-1.95Z"/><path d="M5 31v3H4v-3h1ZM35 31v3h-1v-3h1ZM9 31v3H8l-1-1.5V34H6v-3h1l1 1.5V31h1ZM43 31v3h-1l-1-1.5V34h-1v-3h1l1 1.5V31h1ZM25 31v3h-1l-1-1.5V34h-1v-3h1l1 1.5V31h1ZM13 31v.58h-1V34h-1v-2.42h-1V31h3ZM33 31v.58h-1V34h-1v-2.42h-1V31h3ZM17 31v.58h-2v.62h1.71v.54H15v.68h2V34h-3v-3h3ZM21 31.93c0 .43-.42.72-.92.86L21 34h-.92l-.83-1.16H19V34h-1v-3h1.6c.56 0 1.4.26 1.4.93Zm-1.48-.39H19v.8h.52c.3 0 .48-.14.48-.4s-.16-.4-.48-.4ZM27.82 31 29 34h-.88l-.2-.54h-.82l-.2.54H26l1.18-3h.64Zm-.32 1.17-.29.83h.58l-.29-.83ZM45.82 31 47 34h-.88l-.2-.54h-.82l-.2.54H44l1.18-3h.64Zm-.32 1.17-.29.83h.58l-.29-.83Z" fill="#FD001A"/><path fill-rule="evenodd" d="M37.5 34c.84 0 1.5-.67 1.5-1.5 0-.84-.66-1.5-1.5-1.5s-1.5.66-1.5 1.5.67 1.5 1.5 1.5Zm0-1a.5.5 0 0 0 .5-.5.5.5 0 0 0-.5-.5.5.5 0 0 0-.5.5c0 .28.22.5.5.5Z" fill="#FD001A"/><path d="M49 31v2.42h2V34h-3v-3h1Z" fill="#FD001A"/></svg>