<?xml version="1.0" encoding="UTF-8"?>
<!-- generated by Finnhub -->
<svg viewBox="0 0 55.5 55.5" xmlns="http://www.w3.org/2000/svg">
<path d="M 0,0 H 55.5 V 55.5 H 0 Z" fill="rgb(239, 242, 248)"/>
<path d="M 20.99,11.514999999999999 V 8 C 21,8.8 21.65,9.44 21.98,9.67 L 34.45,15.64 A 4.54,4.54 0 0,1 37,19.75 V 24 C 37,22.32 36.4,21.54 36.09,21.37 L 23.62,15.67 A 4.54,4.54 0 0,1 21,11.53 Z M 21,23.53 V 20 C 21,20.8 21.65,21.44 21.98,21.67 L 34.45,27.64 A 4.54,4.54 0 0,1 37,31.75 V 36 C 37,34.32 36.4,33.54 36.09,33.37 L 23.62,27.67 A 4.54,4.54 0 0,1 21,23.53 Z" fill="rgb(114, 202, 19)"/>
<path d="M 20.99,32.455 V 36 C 21,35.2 21.65,34.56 21.98,34.33 L 34.45,28.36 A 4.54,4.54 0 0,0 37,24.25 V 20 C 37,21.68 36.4,22.46 36.09,22.63 L 23.62,28.33 A 4.54,4.54 0 0,0 21,32.47 Z M 21,44.47 V 48 C 21,47.2 21.65,46.56 21.98,46.33 L 34.45,40.36 A 4.54,4.54 0 0,0 37,36.25 V 32 C 37,33.68 36.4,34.46 36.09,34.63 L 23.62,40.33 A 4.54,4.54 0 0,0 21,44.47 Z" fill="rgb(2, 182, 56)"/>
</svg>
