<!-- by Finnhub --><svg width="56" height="56" viewBox="0 0 56 56" xmlns="http://www.w3.org/2000/svg"><path fill="#F0F3FA" d="M0 0h56v56H0z"/><path fill="#0066A6" d="m30.44 28 7.78-7.78L46 28l-7.78 7.78zM20.22 38.22 28 30.44l7.78 7.78L28 46zm0-20.44L28 10l7.78 7.78L28 25.56zM10 28l7.78-7.78L25.56 28l-7.78 7.78z"/><path fill="#E12E2A" d="m34.33 28 3.89-3.89L42.1 28l-3.9 3.89z"/><path fill="#FEB846" d="M24.11 38.22 28 34.33l3.89 3.89-3.9 3.89z"/><path fill="#61BC47" d="M24.11 17.78 28 13.89l3.89 3.89-3.9 3.89z"/><path fill="#AB2888" d="m13.89 28 3.89-3.89L21.67 28l-3.9 3.89z"/></svg>