<?xml version="1.0" encoding="UTF-8"?>
<!-- generated by Finnhub -->
<svg viewBox="0 0 55.5 55.5" xmlns="http://www.w3.org/2000/svg">
<path d="M 0,0 H 55.5 V 55.5 H 0 Z" fill="rgb(52, 123, 204)"/>
<path d="M 17.99,11.985 V 44 H 32.75 C 39.35,44 41,38.35 41,35.53 V 33.65 C 41,30.64 38.25,28 36.87,27.53 C 39.44,26.4 40.08,22.35 40.08,20.47 C 40.08,13.69 34.58,12 31.83,12 H 18 Z M 24,17 V 25 H 30.92 C 32.14,25 34,24.39 34,21 C 34,19.9 33.85,17 30.92,17 H 24 Z M 24,30 V 39 H 30.92 C 33.67,39 35,37.51 35,34.5 C 35,30.74 32.3,30 30.92,30 H 24 Z" fill="rgb(254, 253, 252)" fill-rule="evenodd"/>
</svg>
