<?xml version="1.0" encoding="UTF-8"?>
<!-- generated by Finnhub -->
<svg viewBox="0 0 55.5 55.5" xmlns="http://www.w3.org/2000/svg">
<path d="M 0,0 H 55.5 V 55.5 H 0 Z" fill="rgb(239, 242, 248)"/>
<path d="M 28.61,28.835 A 8.07,8.07 0 0,1 28.96,27.19 A 34.95,34.95 0 0,0 30.32,22.47 A 3.9,3.9 0 0,1 30.77,21.18 C 31.01,20.84 31.38,20.63 31.88,20.56 C 32.48,20.49 33.11,20.46 33.8,20.46 C 33.94,20.46 34,20.54 34.01,20.68 L 34.07,22.77 C 34.07,22.9 34.01,22.97 33.89,23.01 L 33.81,23.03 C 33.71,23.05 33.66,23.02 33.66,22.92 L 33.63,21.51 C 33.63,21.44 33.59,21.4 33.53,21.39 H 33.46 C 33.28,21.36 33.19,21.44 33.2,21.63 L 33.25,23.04 C 33.25,23.16 33.2,23.22 33.07,23.2 C 32.99,23.2 32.91,23.14 32.84,23.05 A 0.3,0.3 0 0,1 32.79,22.85 C 32.81,22.6 32.79,22.38 32.73,22.18 C 32.72,22.14 32.69,22.12 32.65,22.13 H 32.59 C 32.52,22.15 32.49,22.19 32.49,22.26 C 32.49,22.51 32.49,22.76 32.46,22.99 C 32.46,23.03 32.44,23.07 32.4,23.1 A 0.36,0.36 0 0,1 32.3,23.16 C 32.28,23.16 32.28,23.16 32.27,23.14 C 32.23,22.97 32.03,22.82 31.65,22.69 A 2.24,2.24 0 0,1 31.35,22.58 A 0.17,0.17 0 0,1 31.28,22.52 A 0.23,0.23 0 0,0 31.21,22.46 C 31.15,22.42 31.11,22.44 31.08,22.51 L 30.65,23.97 C 30.56,24.27 30.63,24.32 30.87,24.11 A 0.5,0.5 0 0,1 31.02,24.01 C 31.1,23.96 31.16,23.98 31.19,24.06 C 31.62,25.28 31.82,26.36 31.79,27.34 A 3.27,3.27 0 0,1 30.07,30.16 A 0.1,0.1 0 0,0 30.03,30.26 C 30.03,30.29 30.05,30.32 30.09,30.33 C 30.88,30.63 31.57,30.53 32.16,30.06 A 2.9,2.9 0 0,0 33.16,28.13 C 33.2,27.83 33.33,27.57 33.54,27.35 C 33.98,26.91 34.44,26.75 34.91,26.86 C 35.28,26.96 35.69,27.23 36.15,27.7 C 36.22,27.77 36.27,27.77 36.32,27.68 L 36.66,27.05 C 36.72,26.94 36.7,26.91 36.59,26.97 L 36.32,27.13 A 0.22,0.22 0 0,1 36.06,27.11 C 35.56,26.71 35.06,26.51 34.56,26.53 C 34.03,26.54 33.56,26.81 33.2,27.33 A 0.13,0.13 0 0,1 33.07,27.4 A 0.13,0.13 0 0,1 32.95,27.32 C 32.95,27.29 32.93,27.26 32.91,27.22 C 32.56,26.42 32.34,25.84 32.23,25.45 A 5.54,5.54 0 0,1 32.03,23.53 C 32.04,23.47 32.07,23.43 32.13,23.39 A 0.17,0.17 0 0,1 32.29,23.38 A 2.1,2.1 0 0,0 34.03,23.35 C 34.58,23.12 34.86,22.72 34.87,22.15 C 34.87,21.67 34.71,21.17 34.37,20.67 A 1.08,1.08 0 0,0 33.47,20.17 A 6.02,6.02 0 0,0 31.37,20.33 C 30.66,20.57 30.24,21.1 30.1,21.91 L 29.78,23.8 A 13.3,13.3 0 0,1 28.6,27.09 C 28.46,27.5 28.46,28.09 28.62,28.85 Z M 38.1,31.95 A 4.94,4.94 0 0,1 36.72,29.56 C 35.92,29.89 35.18,29.95 34.49,29.72 C 34.14,29.61 34.1,29.67 34.38,29.92 C 34.65,30.16 35.25,30.28 36.16,30.28 H 36.22 C 36.29,30.28 36.35,30.31 36.4,30.37 C 36.45,30.42 36.46,30.49 36.45,30.56 C 36.41,30.85 36.21,31.06 35.86,31.22 C 35,31.6 34.02,31.94 32.94,32.22 A 0.2,0.2 0 0,1 32.74,32.17 A 0.2,0.2 0 0,1 32.68,31.98 C 32.73,31.69 32.82,31.42 32.96,31.16 C 33.12,30.88 33.05,30.81 32.76,30.94 C 32.12,31.24 31.47,31.44 30.82,31.54 C 29.59,31.71 28.85,31.18 28.61,29.94 L 28.58,30.76 A 4.12,4.12 0 0,0 30.62,32.3 C 33.64,33.34 36.14,33.22 38.1,31.94 Z" fill="rgb(205, 196, 56)"/>
<path d="M 3.99,32.985 L 7.4,20 H 11.25 L 15,33 H 11 L 9.9,29 H 7.93 L 6.86,33 H 4 Z M 15,33 V 25 H 18.33 C 19.13,25 20.03,25.47 20.5,26.16 V 25 H 23.22 L 24.45,29.35 L 25.85,25 H 28.5 V 33 H 26 V 30.77 L 25.22,33 H 23.56 L 22.5,30.77 V 33 H 18.61 L 17.5,29.53 V 33 H 15 Z M 20.5,28.3 C 20.11,28.87 19.5,29.23 19.5,29.23 L 20.5,31.25 V 28.3 Z M 8.46,27 H 9.35 L 8.9,25.35 L 8.46,27 Z M 17.68,26.32 H 17.5 V 28.18 H 17.68 C 18.13,28.18 18.5,27.76 18.5,27.25 C 18.5,26.73 18.13,26.32 17.68,26.32 Z M 43.45,31.15 A 3.42,3.42 0 0,1 40.5,33 C 38.57,33 37,31.2 37,29 S 38.57,25 40.5,25 C 41.77,25 42.89,25.78 43.5,26.94 A 3.37,3.37 0 0,1 46.6,25 C 48.35,25 49.2,26.09 49.41,26.64 L 48.25,27.5 C 48.09,27.16 47.59,26.49 46.86,26.49 C 45.95,26.49 45.36,27.19 45.36,29.02 C 45.36,30.87 46.03,31.92 47.38,31.48 V 30 H 46.02 L 46.48,28.5 H 49.5 V 25 H 52 V 33 H 49.5 V 30.93 A 3.17,3.17 0 0,1 46.38,33 A 3.07,3.07 0 0,1 43.45,31.15 Z M 40.5,31.57 C 41.06,31.57 41.52,30.42 41.52,29 S 41.06,26.43 40.5,26.43 S 39.48,27.58 39.48,29 S 39.94,31.57 40.5,31.57 Z"/>
<path d="M 5.04,28.985 L 4,33 H 6.86 L 7.93,29 H 5.05 Z M 13.85,29 H 9.9 L 11,33 H 17.5 V 29.53 L 18.61,33 H 22.5 V 30.77 L 23.56,33 H 25.22 L 26,30.77 V 33 H 28.5 V 29 H 24.57 L 24.45,29.35 L 24.35,29 H 20.5 V 31.25 L 19.5,29.23 S 19.64,29.15 19.83,29 H 15 V 33 L 13.85,29 Z M 37,29 C 37,31.2 38.57,33 40.5,33 C 41.74,33 42.83,32.26 43.45,31.15 A 3.07,3.07 0 0,0 46.38,33 C 48.38,33 49.28,31.62 49.5,30.93 V 33 H 52 V 29 H 46.33 L 46.03,30 H 47.38 V 31.48 C 46.03,31.92 45.37,30.87 45.37,29.02 V 29 H 41.52 C 41.52,30.42 41.06,31.57 40.5,31.57 S 39.48,30.42 39.48,29 H 37 Z" fill="rgb(39, 161, 221)"/>
</svg>
