<svg width="56" height="56" viewBox="0 0 56 56" fill="none" xmlns="http://www.w3.org/2000/svg">
<g clip-path="url(#clip0_3370_5135)">
<mask id="mask0_3370_5135" style="mask-type:luminance" maskUnits="userSpaceOnUse" x="0" y="0" width="56" height="56">
<path d="M56 0H0V56H56V0Z" fill="white"/>
</mask>
<g mask="url(#mask0_3370_5135)">
<path d="M0 0H56V56H0V0Z" fill="#F0F3FA"/>
</g>
<path fill-rule="evenodd" clip-rule="evenodd" d="M13.9509 20.1088C14.0112 20.0225 14.1125 19.9658 14.2274 19.9658C14.4123 19.9658 14.5698 20.1196 14.5698 20.3005C14.5698 20.3299 14.5656 20.3582 14.5579 20.385L14.5603 20.3796C14.5603 20.3796 14.5621 20.375 14.564 20.3694C13.2796 24.9399 19.4777 28.628 28.5183 28.628C37.5435 28.628 43.7348 24.9526 42.4771 20.3929L42.4778 20.3941C42.4657 20.3602 42.4592 20.3237 42.4592 20.2855C42.4592 20.109 42.5993 19.9658 42.7817 19.9658C42.9123 19.9658 43.0252 20.0392 43.0788 20.1457C44.1526 21.6023 44.7692 23.2391 44.7926 24.9691C44.871 31.0492 37.5781 37.0348 28.4976 37.0348C19.4172 37.0348 12.1266 31.0492 12.2077 24.9691C12.2321 23.2244 12.8596 21.5746 13.9509 20.1088Z" fill="#0043E9"/>
</g>
<defs>
<clipPath id="clip0_3370_5135">
<rect width="56" height="56" fill="white"/>
</clipPath>
</defs>
</svg>
