<!-- by Finnhub --><svg width="56" height="56" viewBox="0 0 56 56" xmlns="http://www.w3.org/2000/svg"><path fill="#F0F3FA" d="M0 0h56v56H0z"/><path d="M10.75 19v2.02L7 23.18v4.08l3.64 1.96-3.2 1.44.27.48L11 29.7v3.75l-4 .02V34l3.67-.02L8.5 36.7l.48.3 2.53-3.21V29.4l3.23-1.97 4.27 2v3.45L14.94 35l.29.47 4.05-2.1 3.32 2.2 3.71-2.2 4.37 2.17 3.47-1.62 4.63 2.16 4.03-2.15 3.9 2.08.29-.47-4.19-2.24-4.05 2.17-4.61-2.16-3.47 1.62-4.1-2.05v-3.76L23 26.97V24h-.5v2.97l-3.23 1.97-3.91-1.83 2.74-1.38-.25-.48L15 26.68v-3.5l-3.67-2.16V19h-.58Zm-3.17 4.47 3.46-1.98 3.38 1.98v3.5l-3.2 1.96-3.64-1.96v-3.5Zm12 9.43v-3.5l3.2-1.96L26 29.4v3.5l-3.4 2-3.02-2Zm2.84-4.49 2.31 1.62.35-.43-2.31-1.62-.35.43ZM20 29.81v2.71h.57v-2.7H20Zm2.77 4.55 2.31-1.62-.35-.43-2.3 1.62.34.43Zm-14.95 2.1 1.15-1.62-.48-.3-1.15 1.62.48.3Zm3.54-13.75 1.5 1 .28-.42-1.5-1-.28.42Z" fill="url(#aiduv4r1s)"/><path d="M30.44 24c.68 0 1.4.05 2.06.22a29.63 29.63 0 0 1 .17.9 8.5 8.5 0 0 1 .17.9c0 .03-.03.07-.08.1a.28.28 0 0 1-.18.07h-.08a.16.16 0 0 1-.06-.05 3 3 0 0 0-.15-.44 1.81 1.81 0 0 0-1.76-1.19c-1.6 0-2.03 2.25-2.03 3.49 0 1.34.45 3.48 2.22 3.48.74 0 1.3-.41 1.6-1.07a4.63 4.63 0 0 0 .33-.91c.15 0 .26.04.35.13l-.04.33a11.36 11.36 0 0 1-.24 1.2c-.05.17-.09.26-.13.28-.7.3-1.4.56-2.17.56-2.09 0-3.42-2.06-3.42-4s1.3-4 3.44-4ZM37.28 24c1.15 0 2.22.77 2.22 2 0 .72-.57 1.27-1.2 1.56-.07.02-.08.06-.06.06.94.11 1.76.96 1.76 1.88 0 1.9-1.89 2.53-3.41 2.5H34v-.44c.52-.09.98.05 1-.56v-6c-.02-.57-.47-.54-1-.54V24h3.28Zm-.78 4v3.01c.02.48.22.48.63.48.86 0 1.37-.79 1.37-1.49 0-.92-.56-2-1.58-2h-.42Zm0-.5h.42c.7 0 1.08-.91 1.08-1.5 0-.6-.2-1.5-1-1.5-.34 0-.47 0-.5.38v2.62ZM44.08 24c2.31 0 3.92 1.68 3.92 4 0 2.4-1.57 4-4 4h-3v-.5c.5 0 1-.1 1-1v-4.72c0-.78-.17-1.28-1-1.28V24h3.08Zm-.58 6.26c0 .6.14 1.25.58 1.24 1.67 0 2.42-1.18 2.42-3.5 0-1.63-.64-3.5-2.56-3.5-.55 0-.44.34-.44.8v4.96Z"/><defs><linearGradient id="aiduv4r1s" x1="9" y1="18.5" x2="30.5" y2="36.5" gradientUnits="userSpaceOnUse"><stop offset=".07" stop-color="#3066A9"/><stop offset=".2" stop-color="#0A963E"/><stop offset=".34" stop-color="#B9CB20"/><stop offset=".56" stop-color="#F2D31D"/><stop offset="1" stop-color="#ED8516"/></linearGradient></defs></svg>