<?xml version="1.0" encoding="UTF-8"?>
<!-- generated by Finnhub -->
<svg viewBox="0 0 55.5 55.5" xmlns="http://www.w3.org/2000/svg">
<path d="M 0,0 H 55.5 V 55.5 H 0 Z" fill="rgb(239, 242, 248)"/>
<path d="M 12.43,23.685 C 9.04,20.37 5.24,23.83 5.37,27.93 C 5.46,30.56 7.36,32.66 9.87,32.48 A 5.01,5.01 0 0,0 12.69,31.34 H 12.72 L 12.74,31.36 L 12.75,31.39 L 12.77,32.15 C 12.77,32.21 12.74,32.25 12.69,32.28 A 7.46,7.46 0 0,1 7.23,32.65 C 4.28,31.71 3.43,28.29 4.36,25.53 C 5.59,21.88 9.94,21.42 12.89,22.53 C 12.99,22.58 13.02,22.65 12.99,22.75 L 12.71,23.63 C 12.66,23.8 12.57,23.83 12.44,23.7 Z M 37.5,24 A 1,1 0 1,0 37.5,22 A 1,1 0 0,0 37.5,24 Z M 34,25.75 V 31.53 C 34,31.9 34.43,32.25 34.78,32.33 C 35.08,32.39 35.43,32.38 35.83,32.28 C 35.91,32.27 35.99,32.34 36,32.43 V 32.61 C 36,32.71 35.96,32.77 35.87,32.8 C 34.39,33.33 33.01,32.83 33,31.18 V 25.76 C 33,25.61 32.93,25.53 32.79,25.53 H 32.17 C 32.06,25.53 32,25.47 32,25.35 V 25.18 C 32,25.08 32.08,25 32.17,25 H 32.84 C 32.95,25 33,24.94 33,24.82 V 23.71 C 33,23.57 33.06,23.48 33.18,23.42 L 33.84,23.01 C 33.92,22.97 34,23.04 34,23.12 V 24.82 C 34,24.94 34.05,25 34.16,25 H 35.83 C 35.94,25 36,25.06 36,25.18 V 25.35 C 36,25.47 35.94,25.53 35.83,25.53 H 34.2 C 34.06,25.53 34,25.6 34,25.75 Z M 23,27.5 S 25.03,25.94 25.9,26.01 C 25.97,26.01 26,26.05 26,26.11 V 27.16 C 26,27.2 25.95,27.23 25.9,27.23 C 25.37,27.1 23,27.59 23,28.5 V 32.9 C 23,32.97 22.97,33 22.9,33 H 22.1 C 22.04,33 22,32.96 22,32.9 V 26.1 C 22,26.04 22.05,26 22.1,26 H 22.9 C 22.97,26 23,26.03 23,26.1 V 27.5 Z M 18.84,31.94 C 18.58,32.18 18.14,32.45 17.82,32.62 C 16.15,33.52 13.97,32.8 14,30.55 V 26.09 C 14,26.04 14.05,26 14.1,26 H 14.93 C 14.97,26 15.01,26.04 15.01,26.08 L 15,30.75 C 14.98,33.38 19.04,32.95 19,30.41 V 26.08 C 19,26.04 19.03,26.01 19.06,26.01 L 19.91,26 C 19.97,26 20,26.03 20,26.09 V 32.79 C 20,32.93 19.93,33 19.8,33 H 19.21 C 19.05,33 19,32.92 19,32.75 V 32.02 C 19,31.87 18.94,31.85 18.84,31.94 Z M 37.93,25 H 37.07 C 37.03,25 37,25.04 37,25.1 V 32.9 C 37,32.96 37.03,33 37.07,33 H 37.93 C 37.97,33 38,32.96 38,32.9 V 25.1 C 38,25.04 37.97,25 37.93,25 Z M 42.8,31.53 C 43.73,29.76 44.5,27.96 45.13,26.13 C 45.16,26.05 45.23,26 45.32,26 H 45.92 C 45.99,26 46.02,26.04 45.99,26.12 L 43.02,32.64 A 0.63,0.63 0 0,1 42.1,32.9 A 0.63,0.63 0 0,1 41.87,32.63 L 39,26.09 A 0.07,0.07 0 0,1 39.06,26 H 40.19 C 40.21,26 40.24,26.01 40.26,26.03 C 40.29,26.04 40.3,26.06 40.31,26.09 L 42.57,31.52 C 42.63,31.68 42.7,31.68 42.78,31.53 Z"/>
<path d="M 47.24,30.525 C 46.97,29.85 47.19,29.5 47.91,29.5 H 51.84 C 51.94,29.5 52,29.44 52,29.33 C 52,26.9 50.25,25.28 47.95,26.33 C 44.97,27.67 45.51,32.61 48.87,32.98 C 49.79,33.08 50.69,32.86 51.57,32.34 A 0.13,0.13 0 0,0 51.63,32.23 V 31.64 C 51.63,31.61 51.58,31.59 51.55,31.61 C 50.87,32.18 50.08,32.44 49.2,32.39 A 1.9,1.9 0 0,1 48.18,32.02 C 47.68,31.65 47.48,31.09 47.25,30.54 Z M 47.41,29 H 50.96 C 51.04,29 51.04,28.93 51.04,28.87 C 51.04,28.21 50.84,27.64 50.5,27.17 A 1.65,1.65 0 0,0 49.2,26.44 C 48.95,26.44 48.7,26.5 48.48,26.62 C 48.25,26.75 48.05,26.93 47.88,27.16 C 47.7,27.39 47.57,27.66 47.48,27.97 C 47.38,28.27 47.33,28.54 47.33,28.87 C 47.33,28.92 47.33,29 47.41,29 Z M 30.15,32.12 C 30.4,32.76 30.76,33 31.25,33 C 31.44,33 31.65,32.96 31.89,32.89 C 31.99,32.85 32.02,32.79 31.99,32.69 L 31.97,32.59 C 31.95,32.51 31.9,32.48 31.82,32.5 C 31.43,32.61 31.01,32.6 31,32.16 C 30.98,30.84 30.98,29.3 31,27.89 C 31.04,25.75 28.49,25.77 27.2,26.3 C 26.72,26.5 26.53,26.87 26.64,27.4 C 26.67,27.58 26.74,27.6 26.85,27.46 C 27.49,26.64 28.75,25.92 29.64,26.72 C 30.03,27.07 30.11,27.58 30,28.24 C 29.94,28.56 29.75,28.83 29.45,28.9 C 28.68,29.08 27.91,29.26 27.15,29.46 C 26.45,29.65 26,30.03 26,30.8 C 26,32 26.34,32.52 27.27,32.85 C 28.23,33.2 29.12,32.95 29.93,32.09 C 29.99,32.02 30.11,32.04 30.15,32.12 Z M 28.22,29.68 C 27.52,29.89 27.05,30.28 27,30.84 C 26.91,31.92 27.52,32.42 28.63,32.34 C 29.08,32.31 30,31.92 30,31.34 V 29.14 C 30,29.01 29.97,28.98 29.87,29.02 C 29.32,29.28 28.8,29.5 28.22,29.68 Z" fill-rule="evenodd"/>
</svg>
