<?xml version="1.0" encoding="UTF-8"?>
<!-- generated by Finnhub -->
<svg viewBox="0 0 55.5 55.5" xmlns="http://www.w3.org/2000/svg">
<path d="M 0,0 H 55.5 V 55.5 H 0 Z" fill="rgb(239, 242, 248)"/>
<path d="M 10.870000000000001,22.355 H 11.64 A 1.54,1.54 0 0,0 10.54,21.09 A 2.16,2.16 0 0,0 8.92,21.24 C 8.64,21.4 8.42,21.62 8.25,21.92 C 8.08,22.22 8,22.58 8,23 C 8,23.42 8.08,23.78 8.25,24.08 C 8.41,24.38 8.63,24.6 8.92,24.76 C 9.2,24.92 9.52,25 9.89,25 A 2,2 0 0,0 10.56,24.9 C 10.76,24.83 10.94,24.73 11.09,24.6 A 1.56,1.56 0 0,0 11.64,23.66 H 10.88 A 0.82,0.82 0 0,1 10.54,24.18 A 0.97,0.97 0 0,1 10.24,24.32 A 1.27,1.27 0 0,1 9.31,24.22 A 1.05,1.05 0 0,1 8.9,23.75 C 8.8,23.55 8.75,23.3 8.75,23 S 8.8,22.46 8.9,22.26 A 1.06,1.06 0 0,1 9.9,21.63 C 10.03,21.63 10.15,21.65 10.25,21.68 C 10.36,21.71 10.46,21.76 10.55,21.83 A 0.85,0.85 0 0,1 10.88,22.37 Z M 16,23 C 16,23.42 15.91,23.78 15.74,24.08 C 15.56,24.38 15.32,24.6 15.02,24.76 C 14.72,24.92 14.38,25 14,25 S 13.28,24.92 12.98,24.76 A 1.8,1.8 0 0,1 12.26,24.08 A 2.1,2.1 0 0,1 12,23 C 12,22.58 12.09,22.22 12.26,21.92 C 12.44,21.62 12.68,21.4 12.98,21.24 C 13.28,21.08 13.62,21 14,21 S 14.72,21.08 15.02,21.24 C 15.32,21.4 15.56,21.62 15.74,21.92 C 15.91,22.22 16,22.58 16,23 Z M 15.2,23 C 15.2,22.7 15.16,22.46 15.05,22.25 C 14.95,22.05 14.81,21.89 14.63,21.79 A 1.3,1.3 0 0,0 13.37,21.79 C 13.19,21.89 13.05,22.05 12.95,22.25 C 12.85,22.45 12.79,22.7 12.79,23 S 12.84,23.55 12.95,23.75 C 13.05,23.95 13.19,24.11 13.37,24.21 C 13.55,24.31 13.77,24.37 14,24.37 C 14.24,24.37 14.45,24.32 14.63,24.21 C 14.81,24.11 14.95,23.95 15.05,23.75 C 15.15,23.55 15.21,23.3 15.21,23 Z M 45.5,21 V 25 H 48 V 24.4 H 46.23 V 21 H 45.5 Z M 13,31 V 27 H 14.8 C 15.13,27 15.42,27.05 15.64,27.14 C 15.87,27.23 16.04,27.35 16.14,27.51 C 16.26,27.66 16.32,27.84 16.32,28.04 A 0.77,0.77 0 0,1 15.92,28.74 A 1.5,1.5 0 0,1 15.5,28.89 V 28.93 C 15.66,28.93 15.82,28.98 15.98,29.06 A 1,1 0 0,1 16.35,29.39 C 16.45,29.53 16.5,29.71 16.5,29.91 S 16.44,30.31 16.32,30.47 C 16.21,30.63 16.02,30.77 15.79,30.86 C 15.56,30.96 15.26,31 14.89,31 H 13 Z M 13.85,30.4 H 14.76 C 15.07,30.4 15.29,30.34 15.43,30.24 S 15.63,30.01 15.63,29.85 A 0.53,0.53 0 0,0 15.53,29.53 A 0.68,0.68 0 0,0 15.24,29.31 A 1.12,1.12 0 0,0 14.79,29.22 H 13.85 V 30.39 Z M 13.85,28.7 H 14.69 C 14.84,28.7 14.97,28.68 15.09,28.63 A 0.65,0.65 0 0,0 15.36,28.43 C 15.43,28.35 15.46,28.25 15.46,28.13 A 0.47,0.47 0 0,0 15.27,27.75 C 15.15,27.65 14.96,27.6 14.71,27.6 H 13.85 V 28.7 Z M 40,27 V 31 H 43 V 30.4 H 40.83 V 29.3 H 42.83 V 28.7 H 40.83 V 27.6 H 42.98 V 27 H 40 Z M 16,37 V 33 H 17.8 C 18.13,33 18.42,33.05 18.64,33.14 C 18.87,33.23 19.04,33.35 19.14,33.51 C 19.26,33.66 19.32,33.84 19.32,34.04 A 0.77,0.77 0 0,1 18.92,34.74 A 1.5,1.5 0 0,1 18.5,34.89 V 34.93 C 18.66,34.93 18.82,34.98 18.98,35.06 A 1,1 0 0,1 19.35,35.39 C 19.45,35.53 19.5,35.71 19.5,35.91 S 19.44,36.31 19.32,36.47 C 19.21,36.63 19.02,36.77 18.79,36.86 C 18.56,36.96 18.26,37 17.89,37 H 16 Z M 16.85,36.4 H 17.76 C 18.07,36.4 18.29,36.34 18.43,36.24 S 18.63,36.01 18.63,35.85 A 0.53,0.53 0 0,0 18.53,35.53 A 0.68,0.68 0 0,0 18.24,35.31 A 1.12,1.12 0 0,0 17.79,35.22 H 16.85 V 36.39 Z M 16.85,34.7 H 17.69 C 17.84,34.7 17.97,34.68 18.09,34.63 A 0.65,0.65 0 0,0 18.36,34.43 C 18.43,34.35 18.46,34.25 18.46,34.13 A 0.47,0.47 0 0,0 18.27,33.75 C 18.15,33.65 17.96,33.6 17.71,33.6 H 16.85 V 34.7 Z M 20,33 V 37 H 20.83 V 35.54 H 21.67 L 22.57,37 H 23.5 L 22.5,35.42 L 22.6,35.38 A 1.18,1.18 0 0,0 23.34,34.28 A 1.2,1.2 0 0,0 22.61,33.16 C 22.36,33.06 22.07,33 21.71,33 H 20 Z M 20.83,34.93 H 21.59 C 21.8,34.93 21.97,34.91 22.1,34.86 A 0.58,0.58 0 0,0 22.4,34.64 A 0.8,0.8 0 0,0 22.49,34.28 A 0.66,0.66 0 0,0 22.39,33.92 A 0.6,0.6 0 0,0 22.09,33.69 C 21.97,33.63 21.79,33.61 21.59,33.61 H 20.83 V 34.93 Z M 24.83,37 H 24 L 25.52,33 H 26.48 L 28,37 H 27.17 L 26.81,36.01 H 25.19 L 24.83,37 Z M 26.02,33.82 L 26.6,35.43 H 25.4 L 25.98,33.82 H 26.02 Z M 32,37 V 33 H 31.23 V 35.73 H 31.2 L 29.19,33 H 28.5 V 37 H 29.27 V 34.28 H 29.31 L 31.31,37 H 32 Z M 34.44,37 H 33 V 33 H 34.47 C 34.89,33 35.25,33.08 35.55,33.24 C 35.85,33.4 36.09,33.63 36.25,33.93 C 36.42,34.23 36.5,34.58 36.5,35 C 36.5,35.41 36.42,35.77 36.25,36.07 C 36.09,36.37 35.85,36.6 35.55,36.76 A 2.4,2.4 0 0,1 34.44,37 Z M 33.77,36.37 H 34.4 C 34.7,36.37 34.94,36.32 35.14,36.22 A 1,1 0 0,0 35.59,35.76 C 35.69,35.56 35.74,35.3 35.74,35 C 35.74,34.69 35.69,34.44 35.59,34.23 A 0.98,0.98 0 0,0 35.15,33.78 C 34.95,33.68 34.71,33.63 34.42,33.63 H 33.77 V 36.37 Z M 39.22,34.12 A 0.51,0.51 0 0,0 38.98,33.73 A 0.97,0.97 0 0,0 38.44,33.6 C 38.28,33.6 38.14,33.62 38.04,33.66 A 0.6,0.6 0 0,0 37.78,33.84 A 0.42,0.42 0 0,0 37.68,34.1 C 37.68,34.18 37.7,34.25 37.74,34.31 C 37.78,34.37 37.84,34.42 37.91,34.47 L 38.14,34.57 L 38.39,34.64 L 38.78,34.73 A 2.35,2.35 0 0,1 39.63,35.09 C 39.73,35.18 39.83,35.29 39.9,35.41 S 40,35.68 40,35.85 A 1,1 0 0,1 39.81,36.45 C 39.69,36.62 39.51,36.75 39.27,36.85 C 39.04,36.95 38.76,37 38.42,37 C 38.1,37 37.82,36.95 37.58,36.86 C 37.35,36.76 37.16,36.63 37.03,36.45 C 36.9,36.27 36.83,36.05 36.81,35.79 H 37.55 C 37.56,35.93 37.61,36.04 37.69,36.13 A 0.7,0.7 0 0,0 37.99,36.33 C 38.12,36.38 38.26,36.4 38.42,36.4 C 38.58,36.4 38.72,36.38 38.85,36.33 A 0.7,0.7 0 0,0 39.14,36.13 C 39.21,36.05 39.24,35.96 39.24,35.84 C 39.24,35.74 39.21,35.66 39.15,35.59 A 0.7,0.7 0 0,0 38.89,35.43 A 2.63,2.63 0 0,0 38.5,35.3 L 38.03,35.2 C 37.69,35.1 37.42,34.98 37.22,34.82 A 0.84,0.84 0 0,1 36.92,34.15 C 36.92,33.92 36.99,33.72 37.12,33.55 C 37.26,33.37 37.44,33.24 37.67,33.15 A 2,2 0 0,1 38.45,33 A 2,2 0 0,1 39.22,33.14 C 39.44,33.24 39.62,33.37 39.75,33.54 C 39.87,33.71 39.94,33.9 39.95,34.12 H 39.22 Z M 38.74,28.3 A 1,1 0 0,0 38.41,27.81 A 0.81,0.81 0 0,0 38.14,27.68 A 1.12,1.12 0 0,0 37.24,27.79 C 37.08,27.89 36.95,28.05 36.86,28.25 C 36.76,28.45 36.72,28.7 36.72,29 C 36.72,29.29 36.76,29.54 36.86,29.74 C 36.96,29.94 37.08,30.1 37.25,30.21 C 37.42,30.31 37.61,30.37 37.83,30.37 C 38.03,30.37 38.2,30.33 38.35,30.25 A 0.81,0.81 0 0,0 38.69,29.93 C 38.77,29.8 38.81,29.63 38.81,29.46 H 37.91 V 28.91 H 39.5 V 29.38 C 39.5,29.71 39.43,30 39.28,30.24 C 39.14,30.48 38.94,30.67 38.69,30.8 C 38.44,30.93 38.15,31 37.83,31 A 1.68,1.68 0 0,1 36.23,30.07 C 36.08,29.77 36,29.41 36,29 C 36,28.69 36.04,28.4 36.13,28.16 A 1.82,1.82 0 0,1 37.09,27.13 C 37.31,27.05 37.55,27 37.8,27 C 38.02,27 38.23,27.03 38.41,27.1 A 1.62,1.62 0 0,1 39.28,27.77 C 39.38,27.93 39.44,28.11 39.47,28.3 H 38.74 Z M 32.04,31 H 32.86 L 33.21,30.01 H 34.79 L 35.14,31 H 35.96 L 34.47,27 H 33.53 L 32.04,31 Z M 34.59,29.43 H 33.4 L 33.97,27.82 H 34.01 L 34.58,29.43 Z M 28,31 V 27 H 29.72 C 30.07,27 30.36,27.05 30.6,27.16 C 30.84,27.26 31.02,27.42 31.15,27.61 C 31.27,27.81 31.33,28.02 31.33,28.28 C 31.33,28.54 31.27,28.76 31.14,28.95 A 1.2,1.2 0 0,1 30.51,29.42 L 31.5,31 H 30.57 L 29.67,29.54 H 28.83 V 31 H 28 Z M 28.83,28.93 H 29.59 C 29.8,28.93 29.97,28.91 30.1,28.86 A 0.58,0.58 0 0,0 30.4,28.64 A 0.8,0.8 0 0,0 30.49,28.28 A 0.66,0.66 0 0,0 30.39,27.92 A 0.6,0.6 0 0,0 30.09,27.69 C 29.97,27.63 29.79,27.61 29.59,27.61 H 28.83 V 28.93 Z M 24.5,27 V 31 H 27.26 V 30.4 H 25.26 V 29.3 H 27.1 V 28.7 H 25.26 V 27.6 H 27.25 V 27 H 24.5 Z M 20.9,27 L 22,30.15 H 22.05 L 23.15,27 H 23.99 L 22.5,31 H 21.56 L 20.06,27 H 20.91 Z M 17,27 V 31 H 19.76 V 30.4 H 17.76 V 29.3 H 19.6 V 28.7 H 17.76 V 27.6 H 19.75 V 27 H 17 Z M 41.86,25 H 41.06 L 42.51,21 H 43.44 L 44.89,25 H 44.09 L 43.75,24.01 H 42.2 L 41.86,25 Z M 42.99,21.82 L 43.55,23.43 H 42.4 L 42.96,21.82 H 42.99 Z M 38.02,21 V 21.6 H 39.3 V 25 H 40 V 21.6 H 41.32 V 21 H 38.02 Z M 37.5,21 V 25 H 36.81 L 34.81,22.28 H 34.77 V 25 H 34 V 21 H 34.69 L 36.69,23.73 H 36.73 V 21 H 37.5 Z M 31,21 V 25 H 33.7 V 24.4 H 31.75 V 23.3 H 33.55 V 22.7 H 31.75 V 21.6 H 33.68 V 21 H 31 Z M 30.5,21 V 25 H 29.81 L 27.81,22.28 H 27.77 V 25 H 27 V 21 H 27.69 L 29.69,23.73 H 29.73 V 21 H 30.5 Z M 25.75,25 V 21 H 25 V 25 H 25.75 Z M 20.74,21.6 V 21 H 24.04 V 21.6 H 22.76 V 25 H 22.02 V 21.6 H 20.74 Z M 20,25 V 21 H 19.23 V 23.73 H 19.2 L 17.19,21 H 16.5 V 25 H 17.27 V 22.28 H 17.31 L 19.31,25 H 20 Z" fill-rule="evenodd"/>
</svg>
