<?xml version="1.0" encoding="UTF-8"?>
<!-- generated by Finnhub -->
<svg viewBox="0 0 55.5 55.5" xmlns="http://www.w3.org/2000/svg">
<path d="M 0,0 H 55.5 V 55.5 H 0 Z" fill="rgb(239, 242, 248)"/>
<ellipse cx="28" cy="28" rx="22" ry="9" fill="rgb(42, 53, 138)"/>
<path d="M 27.34,23.985 A 8.06,8.06 0 0,1 32.68,26 V 26.15 L 32.58,26.27 C 31.64,25.77 29.48,24.83 27.81,24.83 C 25.56,24.83 23,26.26 23,27.95 C 23,28.9 24,29.57 25.52,29.57 C 28.8,29.57 33.83,25.92 33.83,25.92 S 36.41,24 39.01,24 C 42.3,24 45,25.94 45,28.02 C 45,30.11 42.33,32 39.01,32 A 8.06,8.06 0 0,1 33.69,30 V 29.85 L 33.79,29.73 C 34.72,30.23 36.89,31.17 38.55,31.17 C 40.8,31.17 43.45,29.74 43.45,28.05 C 43.45,27.1 42.35,26.43 40.85,26.43 C 37.55,26.43 32.53,30.08 32.53,30.08 S 29.95,32 27.35,32 C 25.17,32 23.23,31.14 22.18,29.94 A 7.74,7.74 0 0,1 16.98,32 C 13.72,32 11,30.06 11,27.98 C 11,25.89 13.67,24 16.99,24 A 8.12,8.12 0 0,1 22.25,25.94 C 23.31,24.8 25.2,24 27.35,24 Z M 22.02,26.22 C 21.22,25.74 19.23,24.83 17.45,24.83 C 15.2,24.83 12.55,26.26 12.55,27.95 C 12.55,28.9 13.65,29.57 15.15,29.57 C 16.66,29.57 17.84,29.19 21.45,27.31 C 21.55,26.93 21.75,26.56 22.02,26.21 Z" fill="rgb(253, 253, 252)"/>
<path d="M 11.02,27.564999999999998 C 11.01,27.71 11,27.85 11,27.98 C 11,30.06 13.71,32 16.99,32 C 19.61,32 21.55,30.6 22.19,29.95 C 23.23,31.14 25.17,32 27.35,32 C 29.95,32 32.53,30.08 32.53,30.08 S 37.55,26.43 40.84,26.43 C 42.36,26.43 43.44,27.1 43.44,28.05 C 43.44,28.2 43.42,28.35 43.38,28.49 H 44.96 C 44.98,28.33 45,28.18 45,28.02 C 45,25.94 42.29,24 39.01,24 C 36.41,24 33.83,25.92 33.83,25.92 S 28.8,29.57 25.52,29.57 C 24,29.57 23,28.9 23,27.95 C 23,27.83 23.01,27.7 23.04,27.58 H 20.93 C 17.73,29.23 16.59,29.57 15.16,29.57 C 13.64,29.57 12.56,28.9 12.56,27.95 C 12.56,27.83 12.57,27.7 12.6,27.58 H 11.03 Z" fill="rgb(42, 53, 138)" fill-opacity=".5"/>
</svg>
