<?xml version="1.0" encoding="UTF-8"?>
<!-- generated by Finnhub -->
<svg viewBox="0 0 55.5 55.5" xmlns="http://www.w3.org/2000/svg">
<path d="M 0,0 H 55.5 V 55.5 H 0 Z" fill="rgb(239, 242, 248)"/>
<path d="M 24.99,13.385 C 25,11.52 26.34,10 28,10 S 31,11.53 31,13.4 V 42.6 C 31,44.48 29.66,46 28,46 S 25,44.48 25,42.6 V 13.4 Z" fill="rgb(122, 192, 64)"/>
<path d="M 32.99,19.285 C 33,17.48 34.34,16 36,16 S 39,17.48 39,19.3 V 28.7 C 39,30.52 37.66,32 36,32 S 33,30.52 33,28.7 V 19.3 Z" fill="rgb(89, 74, 129)"/>
<path d="M 16.99,25.435 C 17,23.55 18.34,22 20,22 S 23,23.55 23,25.45 V 33.55 C 23,35.45 21.66,37 20,37 S 17,35.45 17,33.55 V 25.45 Z" fill="rgb(29, 182, 133)"/>
</svg>
