<!-- by Finnhub --><svg width="56" height="56" viewBox="0 0 56 56" xmlns="http://www.w3.org/2000/svg"><path fill="#F0F3FA" d="M0 0h56v56H0z"/><path d="M29.3 12.5a8.9 8.9 0 0 0-2.24 1.45c-.77.63-1.45 1.34-2.04 2.13l-.7.95c-.02.02-.01.04.02.05 1.04.27 2.07.58 3.09.93a53.72 53.72 0 0 1 6.26 2.68.06.06 0 0 0 .03-.03l.42-.94a36.6 36.6 0 0 0 1.66-4.36c.1-.25.15-.5.18-.76.18.11 1.03.61 1.08.76a9.57 9.57 0 0 1-.32 2.21l-.41 1.52-.42 1.2-.52 1.3c-.01.02 0 .04.02.06l2.15 1.3a32.3 32.3 0 0 1 4.01 3.09l.78.76a.05.05 0 0 0 .05.01.05.05 0 0 0 .04-.04l.1-.54c.2-.97.3-1.95.3-2.95.32.94.53 1.91.65 2.9l-.3 1.57c0 .02 0 .05.02.07l.34.47.02.14a13.5 13.5 0 0 1-.21 2.16l-.4-.59-.28-.42c-.02-.03-.04-.03-.05 0-.28.7-.58 1.37-.93 2.03l-.67 1.15-1.37 1.84a21.62 21.62 0 0 1-3.05 2.95c-.02.02-.02.04 0 .06.55.67 1.14 1.7 1.04 2.57-.55.46-1.12.86-1.7 1.2a3.5 3.5 0 0 0-.98-2.64h-.04c-1.17.73-2.4 1.35-3.69 1.86-1.35.5-2.74.85-4.16 1.08-1.4.18-2.76.2-4.1.05a.09.09 0 0 1-.08-.06c-.01-.03 0-.05.04-.05a13 13 0 0 0 2.95-.18 7.5 7.5 0 0 0 2.12-.49 4.82 4.82 0 0 0 1.5-.47 15.5 15.5 0 0 0 3.26-1.54c.53-.29 1.03-.6 1.5-.95.03-.02.03-.04 0-.07l-.46-.47a26.69 26.69 0 0 0-5.21-3.75c-.03-.02-.05-.01-.07.01a44.7 44.7 0 0 1-4.67 5.67l-.93.86-.83.65c-.1.08-.2.07-.27-.03-.02-.02-.02-.04 0-.06l.63-.77.7-.93a73.81 73.81 0 0 0 4.02-6.14c.02-.03.01-.04-.01-.06-1.24-.63-2.5-1.2-3.8-1.7l-1.82-.65a18.8 18.8 0 0 0-2-.6c-.02 0-.04 0-.04.04a25.4 25.4 0 0 0-.15 5.61 14.07 14.07 0 0 0 1.22 4.72c.01.03 0 .04-.02.05-.21.04-.53-.6-.63-.77-.47-.91-.85-1.86-1.15-2.84a23.27 23.27 0 0 1-.68-7.05c0-.07-.03-.1-.1-.12-1.49-.28-3.57-.58-5.02.07-.02 0-.03.03-.03.06.23 1.32.63 2.59 1.2 3.8.35.86.8 1.66 1.32 2.42.89 1.38 1.95 2.6 3.2 3.66l.89.74c.13.1.12.12-.03.04a6.06 6.06 0 0 1-.78-.52 17.2 17.2 0 0 1-5.76-7.88c-.74-2.1-.7-4.7-.3-6.86l-.06 1.91.05.67c0 .03.02.04.05.03l.91-.27a13.87 13.87 0 0 1 4.64.23.05.05 0 0 0 .02-.03l.25-1.54.52-2.05a24.89 24.89 0 0 1 2.49-5.86c.01-.02 0-.03-.02-.04L20.48 18c-.5-.1-1.02-.16-1.54-.19-.92-.08-1.84-.05-2.75.1v-.06c.37-.41 1.1-1.29 1.58-1.51 1-.1 1.98-.08 2.97.04l1.8.29c.03 0 .05 0 .07-.03a15.01 15.01 0 0 1 2.93-3.04c.6-.43 1.24-.8 1.9-1.11.51-.13 1.24-.06 1.86 0Zm-8.78 12.73c-.22.68-.4 1.38-.53 2.08l-.15.69c-.01.03 0 .05.03.06l2.8.85a48.41 48.41 0 0 1 5.5 2.37l.03-.03.78-1.38a141.28 141.28 0 0 0 3.96-7.54l-.02-.02a49.04 49.04 0 0 0-3.5-1.63l-1.25-.52a46.35 46.35 0 0 0-4.8-1.57c-.03-.01-.05 0-.06.02-1.2 2.1-2.13 4.3-2.79 6.62Zm10.1 5.4-.94 1.43c-.01.02 0 .05.02.06l.83.49c.94.58 1.86 1.2 2.76 1.85l1.44 1.17 1.13 1.08c.02.02.04.02.07 0 .8-.67 1.55-1.4 2.24-2.19.5-.54.96-1.12 1.39-1.74a18.01 18.01 0 0 0 2.26-4.15.06.06 0 0 0-.01-.07 24.83 24.83 0 0 0-4.22-3.46l-1.33-.89-1.58-.95-.04.01a75.3 75.3 0 0 1-4.02 7.36Z" fill="#013FB7"/><path d="M25.39 12.67c-.04.33 0 .64.15.93-1.12.87-2.1 1.89-2.93 3.04a.07.07 0 0 1-.07.03l-1.8-.29c.14 0 .26 0 .39-.08a22.44 22.44 0 0 1 2.78-1.4.15.15 0 0 0 .01-.18c-.3-.46-.55-1-.47-1.58.63-.21 1.28-.37 1.94-.47ZM34.14 19.72l-.42.94a.06.06 0 0 1-.05.04h-.03a53.71 53.71 0 0 0-6.18-2.7c.02-.02.02-.04 0-.05-.3-.14-.56-.3-.81-.5-.56-.43-1.1-.89-1.63-1.37.6-.79 1.27-1.5 2.04-2.13a17.49 17.49 0 0 1 7.14-.04c0 .01 0 .02-.02.02a16.8 16.8 0 0 0-7.75.85c-.08.03-.09.07-.03.13a16.8 16.8 0 0 0 3.74 2.86c.03.01.05.01.07-.01a17.95 17.95 0 0 1 4.53-3.63.03.03 0 0 1 .02.03l-.01.02a23.09 23.09 0 0 0-3.6 4.12c-.02.02-.02.04 0 .05.98.5 1.98.97 3 1.37ZM35.8 15.36c0 .08-.03.17-.07.27l-.65-1.28c0-.01 0-.01 0 0 .28.28.48.57.6.85.03.09.07.14.12.16ZM41.75 20.7c.32.53.58 1.1.78 1.68-.26.2-.55.3-.88.34-.03 0-.05.03-.04.06l.1.29c.32.9.58 1.81.77 2.75.03.1.02.24-.02.41 0 .03 0 .04.03.02l.06-.02-.11.54a.05.05 0 0 1-.04.04.05.05 0 0 1-.06-.01l-.77-.76.03-.03c.03-.02.03-.04 0-.06l-.02-.03a31.15 31.15 0 0 0-.71-3c-.02-.03-.04-.05-.08-.05a13.32 13.32 0 0 1-3.1-.34.1.1 0 0 0-.09.09l-.04.33-2.15-1.3c-.03-.02-.03-.04-.02-.06l.52-1.3v.02c0 .03.02.04.04.05l.47.12c.03 0 .05 0 .05-.03-.01-.14-.06-1.36-.1-1.39h-.03l-.01.03.41-1.52c.36 1.02.59 2.06.7 3.12.01.04.04.07.08.08a13.8 13.8 0 0 0 2.64.27v-.03a18.07 18.07 0 0 0-2.88-4.75c-.08-.09-.21-.16-.15-.3.02-.04.04-.05.07-.02a18.05 18.05 0 0 1 3.63 5.01l.06.01c.28-.07.58-.25.86-.27ZM18.94 17.81c.52.03 1.03.1 1.54.2a21.26 21.26 0 0 0-3.81 3.75c-.02.03-.02.05 0 .08.72.8 1.52 1.55 2.4 2.23l-.52 2.05a14.42 14.42 0 0 1-3-2.66c-.03-.02-.04-.02-.06 0a16.03 16.03 0 0 0-1.84 4l-.92.27c-.03.01-.05 0-.05-.04l-.05-.66.04-.01a.09.09 0 0 0 .06-.07c.42-1.6 1.07-3.1 1.97-4.5a.06.06 0 0 0 0-.07 6.8 6.8 0 0 1-.68-1.14h-.03c.3-.66.67-1.28 1.09-1.87a12.61 12.61 0 0 0 .79 1.43h.01a19.88 19.88 0 0 1 2.9-2.88.13.13 0 0 1 .08-.02c.06 0 .1-.02.08-.09ZM28.17 20.16l1.25.52a.51.51 0 0 1-.07.18 95.8 95.8 0 0 0-4.28 7.08c-.01.03 0 .05.02.06 1.28.68 2.58 1.3 3.9 1.87l-.79 1.38-.03.03h-.05a48.42 48.42 0 0 0-5.44-2.37.82.82 0 0 0-.3-.2c-.8-.32-1.58-.9-2.28-1.37a.13.13 0 0 0-.07-.03h-.04c.13-.7.31-1.4.53-2.08l2.84 1.8c.03.03.05.02.07-.01 1.4-2.41 2.98-4.7 4.74-6.86ZM36.26 24.21l1.33.89a30.77 30.77 0 0 1-1.4 7.13l.02.02h.02c1.1.21 2.2.39 3.33.53-.43.62-.9 1.2-1.4 1.74-.87-.07-1.75-.2-2.61-.42-.07-.01-.11.01-.13.07-.17.5-.4.99-.69 1.46l-1.44-1.17.37-.78c.01-.02 0-.04-.02-.05-1-.27-2.13-.56-3.03-1.06-.04-.02-.06-.01-.08.04l-.83-.49c-.03-.02-.03-.04-.02-.06l.94-1.43c.09-.02.16-.03.25 0 1.15.42 2.32.8 3.5 1.16.03 0 .05 0 .06-.03.89-2.45 1.5-4.96 1.83-7.55ZM42.96 30a32.5 32.5 0 0 1-.23 3.04 15.84 15.84 0 0 1-2.37 4.41c-.02.04-.08.1-.17.17 0-.05-.01-.1 0-.14.4-.94.73-1.9.99-2.88 0-.03 0-.04-.03-.04-.43.03-1.06.14-1.49.04l1.37-1.84.48-.08c.03 0 .05-.02.06-.05l.16-1v-.01l-.03-.01c.35-.66.65-1.33.93-2.02 0-.04.03-.04.05 0l.28.41ZM21.55 30.55l1.82.65a57.93 57.93 0 0 0-2.86 6.55l.03.03 2.63 1.32-.71.93c-.78-.36-1.54-.74-2.3-1.12-.06-.03-.1 0-.12.06-.36-1.1-.6-2.22-.68-3.37.04 0 .08-.03.1-.1.48-1.6 1.18-3.25 2.09-4.95ZM18.78 36.76c.3.98.68 1.92 1.15 2.84-.13.51-.22 1.1-.25 1.64-.4-.28-.56-.35-1.12-.49l.08-.97c.25.19.61.44.89.6.15.08.16.07.03-.04l-.92-.74.11-1.43v-.04a13.18 13.18 0 0 1-4.6-4.6c.02-.04.07-.04.1-.01 1.41 1.22 2.92 2.3 4.53 3.24ZM32.46 36.28c.48.35.93.74 1.35 1.17l-1.04 1.49a15.5 15.5 0 0 1-3.27 1.54 28.75 28.75 0 0 0 2.8-4.04c.04-.07.1-.11.16-.16ZM23.86 39.38l4.15 1.57a7.5 7.5 0 0 1-2.12.49l-2.96-1.2.93-.86ZM31.24 40.6c-.02.25-.62.7-.82.87-.03.03-.03.05.02.06 1.4.31 2.8.47 4.24.47a8.1 8.1 0 0 1-1.94.8 18.8 18.8 0 0 1-3.5-.43c-.03 0-.06 0-.08.02-.66.43-1.37.74-2.12.94a4.84 4.84 0 0 1-1.12-.2 23.8 23.8 0 0 0 1.82-1.08v-.03a.05.05 0 0 0-.03-.04 1.34 1.34 0 0 1-.63-.3c1.42-.23 2.81-.59 4.16-1.08Z" fill="#C4E2BC"/><path d="M25.92 43.13c.37.11.74.18 1.11.2.75.1 1.5.16 2.26.17-.79.1-1.58.1-2.37 0a15.88 15.88 0 0 1-3.95-1.17c-.03-.02-.01-.04.01-.06h.05c.96.4 1.92.68 2.89.86Z" fill="#013FB7"/><path d="M40.5 16.46a16.98 16.98 0 0 1-6.64 27.5 17 17 0 0 1-18.36-4.42 16.98 16.98 0 0 1 6.64-27.5 17 17 0 0 1 18.36 4.42ZM14 21.23a14.58 14.58 0 0 0-1.3 3.89 15.94 15.94 0 0 0 1.26 9.67 15.52 15.52 0 0 0 18.79 8 14.5 14.5 0 0 0 7.61-5.34 15.84 15.84 0 0 0 2.37-4.4c.8-2.17 1.05-4.58.76-6.87a15.77 15.77 0 0 0-14.2-13.69A15.76 15.76 0 0 0 14 21.23Z" fill="#9EB5BE"/></svg>