<?xml version="1.0" encoding="UTF-8"?>
<!-- generated by Finnhub -->
<svg viewBox="0 0 55.5 55.5" xmlns="http://www.w3.org/2000/svg">
<path d="M 0,0 H 55.5 V 55.5 H 0 Z" fill="rgb(239, 242, 248)"/>
<path d="M 42.99,32.985 C 40.21,33 38,30.78 38,28 C 38,25.21 40.23,23 43,23 C 45.78,23 48,25.21 48,28 C 48,30.78 45.8,33 43,33 Z M 43,31.25 C 44.86,31.25 46,29.77 46,28 C 46,26.24 44.85,24.76 43,24.76 C 41.16,24.76 40,26.23 40,28 C 40,29.78 41.15,31.25 43,31.25 Z M 37,33 H 35 L 30,26.15 V 33 H 28 V 23 H 30 L 35,29.87 V 23 H 37 V 33 Z M 21.59,23 C 24.56,23 27,24.92 27,28.01 C 27,31.11 24.55,33 21.59,33 H 18 V 23 H 21.59 Z M 21.51,31.3 C 23.51,31.3 25,30.03 25,28 S 23.52,24.69 21.51,24.69 H 20 V 31.29 H 21.51 Z M 12.7,23 C 9.91,23 8,25.34 8,28 C 8,30.68 9.91,33 12.7,33 A 4.34,4.34 0 0,0 17,30 H 14.83 C 14.63,30.38 14.36,30.68 14.01,30.9 C 13.63,31.13 13.19,31.25 12.69,31.25 C 10.87,31.25 10.01,29.66 10.01,28.01 C 10.01,26.36 10.88,24.77 12.69,24.77 C 13.19,24.77 13.63,24.88 14.01,25.12 C 14.36,25.32 14.63,25.62 14.83,26 H 17 A 4.35,4.35 0 0,0 12.7,23 Z"/>
</svg>
