<?xml version="1.0" encoding="UTF-8"?>
<!-- generated by Finnhub -->
<svg viewBox="0 0 55.5 55.5" xmlns="http://www.w3.org/2000/svg">
<path d="M 0,0 H 55.5 V 55.5 H 0 Z" fill="rgb(239, 242, 248)"/>
<path d="M 44.95,36.985 C 44.4,37 43.89,36.88 43.44,36.63 C 42.99,36.38 42.64,36.03 42.38,35.57 A 3.19,3.19 0 0,1 42,34 C 42,33.4 42.13,32.88 42.39,32.43 C 42.66,31.97 43.02,31.63 43.47,31.38 A 3.1,3.1 0 0,1 45,31 C 45.56,31 46.07,31.13 46.53,31.38 C 46.98,31.62 47.34,31.98 47.6,32.43 C 47.87,32.88 48,33.41 48,34 C 48,34.6 47.86,35.12 47.59,35.57 C 47.32,36.03 46.96,36.38 46.49,36.63 A 3.2,3.2 0 0,1 44.96,37 Z M 44.96,35.72 A 1.44,1.44 0 0,0 46.28,34.94 C 46.41,34.69 46.48,34.37 46.48,34 C 46.48,33.45 46.34,33.02 46.04,32.73 C 45.75,32.43 45.4,32.28 44.98,32.28 C 44.56,32.28 44.2,32.43 43.92,32.73 C 43.64,33.03 43.49,33.45 43.49,34 S 43.63,34.98 43.91,35.28 C 44.19,35.58 44.54,35.72 44.96,35.72 Z M 35,33.98 C 35,33.39 35.11,32.88 35.34,32.42 A 2.53,2.53 0 0,1 37.63,31 A 2.3,2.3 0 0,1 39.53,31.92 V 31 H 41 V 37 H 39.53 V 36.06 C 39.35,36.33 39.09,36.56 38.75,36.74 C 38.43,36.91 38.05,37 37.62,37 C 37.14,37 36.69,36.87 36.29,36.62 A 2.7,2.7 0 0,1 35.34,35.56 A 3.52,3.52 0 0,1 35,33.98 Z M 39.53,34 C 39.53,33.64 39.46,33.34 39.33,33.09 A 1.43,1.43 0 0,0 38.76,32.5 A 1.46,1.46 0 0,0 38.01,32.29 A 1.46,1.46 0 0,0 36.7,33.08 C 36.56,33.33 36.49,33.63 36.49,33.98 S 36.56,34.64 36.69,34.9 C 36.84,35.16 37.03,35.36 37.26,35.5 A 1.52,1.52 0 0,0 38.76,35.51 C 39,35.37 39.19,35.17 39.33,34.92 C 39.46,34.66 39.53,34.36 39.53,34 Z M 33.5,31 V 37 H 32 V 31 H 33.5 Z"/>
<circle cx="32.76" cy="29.75" r=".75"/>
<path d="M 29.139999999999997,36.985 L 27.42,34.3 L 25.85,37 H 24.03 L 26.56,32.97 L 24,29 H 25.85 L 27.58,31.68 L 29.14,29 H 30.95 L 28.45,33.02 L 31,37 H 29.15 Z M 22,33.87 C 22,34.08 21.99,34.27 21.96,34.44 H 17.55 C 17.58,34.86 17.73,35.19 18,35.43 C 18.27,35.66 18.6,35.78 19,35.78 C 19.56,35.78 19.96,35.55 20.2,35.08 H 21.85 C 21.67,35.64 21.34,36.1 20.85,36.47 C 20.35,36.82 19.75,37 19.03,37 C 18.45,37 17.93,36.88 17.46,36.63 C 17,36.38 16.64,36.03 16.38,35.57 A 3.17,3.17 0 0,1 16,34 C 16,33.4 16.13,32.87 16.38,32.42 C 16.64,31.96 16.99,31.62 17.45,31.37 A 3.3,3.3 0 0,1 19.03,31 C 19.6,31 20.11,31.12 20.56,31.36 C 21.02,31.59 21.37,31.93 21.62,32.37 C 21.87,32.81 22,33.31 22,33.87 Z M 20.42,33.45 C 20.42,33.08 20.27,32.78 20,32.55 A 1.53,1.53 0 0,0 18.98,32.21 C 18.61,32.21 18.28,32.31 18.03,32.54 C 17.77,32.76 17.62,33.06 17.56,33.45 H 20.42 Z M 10.8,29 C 12.9,29 15,30.35 15,33.01 C 15,35.67 12.9,37 10.8,37 H 8 V 29 H 10.8 Z M 10.73,35.4 C 12.41,35.4 13.5,34.68 13.5,33.01 C 13.5,31.26 12.17,30.63 10.73,30.63 H 9.5 V 35.4 H 10.73 Z M 38,23.98 C 38,23.39 38.11,22.88 38.34,22.42 A 2.53,2.53 0 0,1 40.63,21 A 2.3,2.3 0 0,1 42.53,21.92 V 21 H 44 V 27 H 42.53 V 26.06 C 42.35,26.33 42.09,26.56 41.75,26.74 C 41.43,26.91 41.05,27 40.62,27 C 40.14,27 39.69,26.87 39.29,26.62 A 2.7,2.7 0 0,1 38.34,25.56 A 3.52,3.52 0 0,1 38,23.98 Z M 42.53,24 C 42.53,23.64 42.46,23.34 42.33,23.09 A 1.43,1.43 0 0,0 41.76,22.5 A 1.46,1.46 0 0,0 41.01,22.29 A 1.46,1.46 0 0,0 39.7,23.08 C 39.56,23.33 39.49,23.63 39.49,23.98 S 39.56,24.64 39.69,24.9 C 39.84,25.16 40.03,25.36 40.26,25.5 A 1.52,1.52 0 0,0 41.76,25.51 C 42,25.37 42.19,25.17 42.33,24.92 C 42.46,24.66 42.53,24.36 42.53,24 Z M 34.49,21 A 2.41,2.41 0 0,1 37,23.53 V 27 H 35.5 V 23.73 C 35.5,22.79 34.87,22.27 34.01,22.27 S 32.5,22.78 32.5,23.73 V 27 H 31 V 21 H 32.5 V 21.82 A 2.63,2.63 0 0,1 34.49,21 Z M 24.55,20.92 C 25.96,20.92 27,21.96 27,23.49 V 27 H 25.5 V 23.7 C 25.5,22.73 24.87,22.21 24.01,22.21 C 23.22,22.21 22.5,22.81 22.5,23.69 V 27 H 21 V 19 H 22.5 V 21.76 C 22.96,21.17 23.86,20.92 24.55,20.92 Z M 29.5,21 V 27 H 28 V 21 H 29.5 Z"/>
<circle cx="28.76" cy="19.75" r=".75"/>
<path d="M 11.99,22.985 C 12,22.24 12.17,21.55 12.5,20.94 C 12.85,20.33 13.32,19.85 13.9,19.52 A 3.9,3.9 0 0,1 15.9,19 C 16.75,19 17.5,19.22 18.15,19.67 C 18.79,20.12 19.25,20.74 19.5,21.54 H 17.73 A 1.85,1.85 0 0,0 16.98,20.69 A 2.11,2.11 0 0,0 15.88,20.41 A 2.18,2.18 0 0,0 13.87,21.63 C 13.67,22.03 13.58,22.48 13.58,23.01 C 13.58,23.52 13.68,23.98 13.87,24.37 C 14.07,24.77 14.34,25.07 14.68,25.28 C 15.04,25.49 15.43,25.6 15.88,25.6 C 16.3,25.6 16.67,25.5 16.98,25.32 C 17.3,25.12 17.55,24.84 17.73,24.46 H 19.5 C 19.24,25.26 18.8,25.89 18.15,26.34 C 17.51,26.78 16.75,27 15.89,27 C 15.16,27 14.49,26.83 13.9,26.5 A 3.8,3.8 0 0,1 12.5,25.07 C 12.17,24.47 12,23.77 12,23.01 Z"/>
</svg>
