<?xml version="1.0" encoding="UTF-8"?>
<!-- generated by Finnhub -->
<svg viewBox="0 0 55.5 55.5" xmlns="http://www.w3.org/2000/svg">
<path d="M 0,0 H 55.5 V 55.5 H 0 Z" fill="rgb(239, 242, 248)"/>
<path d="M 8.99,24.985 V 30 H 13 V 29 H 10.5 V 28 H 12.5 V 27 H 10.5 V 26 H 13 V 25 H 9 Z M 4,30 V 25 H 5.26 L 7,27.45 V 25 H 8.5 V 30 H 7.33 L 5.5,27.45 V 30 H 4 Z M 20,25 H 18.5 V 26 H 20 V 30 H 21.5 V 26 H 23 V 25 H 20 Z M 14.3,25 L 15.27,26.5 L 15.77,25.77 L 15.27,25 H 14.31 Z M 14.36,30 H 15.31 L 16.41,28.25 L 17.47,30 H 18.42 L 16.87,27.5 L 18.44,25 H 17.47 L 14.35,30 Z" fill="rgb(38, 49, 118)"/>
<path d="M 13.21,24.985 H 14.17 L 15.27,26.72 L 16.37,25 H 17.35 L 14.22,30 H 13.22 L 14.79,27.5 L 13.23,25 Z M 15.89,29.18 L 16.34,30 H 17.34 L 16.37,28.47 L 15.89,29.17 Z" fill="url(#a)"/>
<path d="M 28.729999999999997,29.985 C 29.68,30 30.51,29.57 31,28.92 L 29.8,28.12 C 29.6,28.5 29.2,28.75 28.76,28.75 C 28.09,28.75 27.56,28.19 27.56,27.5 C 27.56,26.8 28.09,26.25 28.76,26.25 C 29.2,26.25 29.59,26.49 29.8,26.85 C 30.22,26.56 30.78,26.18 30.96,26.03 A 2.83,2.83 0 0,0 28.74,25 C 27.23,25 26,26.12 26,27.5 S 27.23,30 28.74,30 Z M 25.5,27 H 23 V 28 H 25.5 V 27 Z M 33,25 H 31.5 V 30 H 33 V 27.51 C 33.1,27.36 33.24,27.24 33.44,27.24 C 33.81,27.24 33.98,27.53 34,27.67 V 30 H 35.5 V 27.32 C 35.5,26.68 34.91,26 34.04,26 C 33.55,26 33.21,26.26 33,26.5 V 25 Z M 42,26.42 C 42.2,26.21 42.51,26 42.93,26 C 43.45,26 43.82,26.26 44.02,26.62 A 1.3,1.3 0 0,1 45.1,26 C 45.93,26 46.5,26.68 46.5,27.32 V 30 H 45 V 27.67 C 44.98,27.53 44.87,27.24 44.53,27.24 A 0.44,0.44 0 0,0 44.2,27.39 V 30 H 42.84 V 27.67 C 42.82,27.53 42.71,27.24 42.36,27.24 A 0.45,0.45 0 0,0 42,27.42 V 30 H 40.5 V 26 H 42 V 26.42 Z M 37.37,28.38 H 39.98 C 40.08,27.58 39.81,26 37.98,26 C 36.35,26 35.98,27.4 36,28.1 C 36,28.73 36.43,30 38.14,30 A 2.2,2.2 0 0,0 39.86,29.23 L 39.07,28.58 C 38.99,28.72 38.67,29 38.14,29 A 0.75,0.75 0 0,1 37.37,28.38 Z M 37.29,27.67 H 38.71 C 38.68,27.44 38.51,26.99 38.01,26.99 C 37.52,26.99 37.33,27.44 37.29,27.67 Z M 48.45,30 L 49.41,28.6 L 50.38,30 H 52 L 50.22,27.41 L 51.87,25 H 50.27 L 49.41,26.23 L 48.57,25 H 46.96 L 48.61,27.41 L 46.83,30 H 48.45 Z" fill="rgb(144, 142, 143)" fill-rule="evenodd"/>
<defs>
<linearGradient id="a" x1="13.68" x2="17.23" y1="28.39" y2="27.94" gradientUnits="userSpaceOnUse">
<stop stop-color="rgb(144, 142, 143)" offset=".52"/>
<stop stop-color="rgb(235, 234, 234)" offset="1"/>
</linearGradient>
</defs>
</svg>
