<?xml version="1.0" encoding="UTF-8"?>
<!-- generated by Finnhub -->
<svg viewBox="0 0 55.5 55.5" xmlns="http://www.w3.org/2000/svg">
<path d="M 0,0 H 55.5 V 55.5 H 0 Z" fill="rgb(239, 242, 248)"/>
<path d="M 17.49,11.985 A 7.29,7.29 0 0,0 10,18.53 C 10.5,17.63 11.58,16.49 12.06,16.03 A 4.2,4.2 0 0,0 11.32,18.33 C 13.07,15.11 16.64,13.38 18.21,12.93 C 17.09,12.83 16.01,13.14 15.61,13.31 A 6.25,6.25 0 0,1 17.5,12 Z M 38.5,44 A 7.29,7.29 0 0,0 46,37.47 C 45.5,38.37 44.42,39.51 43.94,39.97 A 4.2,4.2 0 0,0 44.68,37.67 C 42.93,40.89 39.36,42.62 37.79,43.07 C 38.91,43.17 39.99,42.87 40.39,42.69 A 6.25,6.25 0 0,1 38.5,44 Z M 18.49,43.6 A 7.29,7.29 0 0,1 10.98,37.06 C 11.48,37.96 12.56,39.1 13.04,39.56 A 4.2,4.2 0 0,1 12.3,37.26 C 14.04,40.48 17.62,42.21 19.19,42.67 C 18.07,42.77 16.99,42.45 16.58,42.29 C 16.98,42.81 18.02,43.38 18.48,43.59 Z" fill="rgb(21, 84, 152)"/>
<path d="M 37.71,12.094999999999999 C 43.23,12.18 45.02,16.49 45.23,18.64 C 44.73,17.75 43.65,16.61 43.17,16.14 A 4.2,4.2 0 0,1 43.91,18.45 C 42.16,15.23 38.59,13.5 37.02,13.04 C 38.14,12.94 39.22,13.25 39.62,13.42 A 6.25,6.25 0 0,0 37.72,12.12 Z M 22.88,13.84 C 12.98,14 11.18,21.9 11.52,25.83 L 12.22,24.71 L 12.52,25.83 C 13.84,20.48 18.6,19.99 20.82,20.41 C 19.35,17.09 22.18,15.21 23.77,14.69 H 22.25 L 22.88,13.84 Z M 33.12,42.16 C 43.02,42 44.82,34.1 44.48,30.17 L 43.78,31.29 L 43.48,30.17 C 42.16,35.52 37.4,36.01 35.18,35.59 C 36.65,38.91 33.82,40.79 32.23,41.31 H 33.75 L 33.12,42.16 Z M 21.71,20.28 C 26.84,16.19 31.97,20.71 33.89,23.48 C 27.82,19.95 21.56,22 19.19,23.48 C 20.36,21.43 23.4,20.73 24.77,20.63 A 5.1,5.1 0 0,0 21.71,20.28 Z M 34.12,36 C 29,40.1 23.87,35.58 21.95,32.81 C 28.02,36.34 34.28,34.28 36.65,32.81 C 35.48,34.86 32.44,35.56 31.07,35.66 A 5.1,5.1 0 0,0 34.12,36.01 Z" fill="rgb(132, 185, 227)"/>
<path d="M 31.52,42.415 C 29.33,42.65 24.36,42.04 22.04,37.85 C 21.68,37.19 21.34,36.57 21.04,35.98 C 18.87,31.88 17.61,29.48 11.6,29.14 C 11.44,30.94 11.84,35.28 14.79,38.24 C 18.47,41.94 21.26,43.97 31.53,43.69 L 29.8,43.14 L 31.53,42.43 Z M 14.38,33.23 A 0.7,0.7 0 1,0 14.38,31.85 A 0.7,0.7 0 0,0 13.68,32.53 C 13.68,32.91 14,33.23 14.38,33.23 Z" fill="rgb(21, 84, 152)" fill-rule="evenodd"/>
<path d="M 24.549999999999997,13.825 C 26.76,13.62 31.73,14.23 34.05,18.41 C 34.41,19.07 34.75,19.7 35.05,20.29 C 37.22,24.39 38.49,26.79 44.49,27.12 C 44.66,25.32 44.25,20.98 41.31,18.02 C 37.62,14.34 34.83,12.3 24.56,12.57 L 26.29,13.12 L 24.56,13.84 Z M 41.71,23.04 A 0.7,0.7 0 0,0 41.01,23.74 C 41.01,24.11 41.32,24.42 41.71,24.42 C 42.09,24.42 42.41,24.12 42.41,23.73 A 0.7,0.7 0 0,0 41.71,23.05 Z" fill="rgb(132, 185, 227)" fill-rule="evenodd"/>
<path d="M 17.84,27.485 C 17.85,26.12 18.99,25 20.41,25 H 21.8 V 26.21 H 20.4 A 1.3,1.3 0 0,0 19.1,27.5 C 19.1,28.21 19.68,28.79 20.4,28.79 H 21.8 V 30 H 20.4 A 2.53,2.53 0 0,1 17.85,27.5 Z M 23.5,27.28 C 23.4,28.07 23.35,29.15 23.35,30 H 22.11 C 22.11,29.08 22.16,27.86 22.29,26.97 C 22.36,26.54 22.45,26.12 22.59,25.79 C 22.65,25.63 22.74,25.45 22.88,25.31 C 23.02,25.16 23.25,25 23.56,25 C 23.8,25 23.98,25.11 24.09,25.21 C 24.19,25.31 24.26,25.42 24.31,25.51 C 24.41,25.69 24.47,25.91 24.52,26.11 C 24.62,26.51 24.74,27.63 24.82,28.11 C 24.88,27.61 24.97,26.5 25.12,26.06 C 25.18,25.84 25.28,25.6 25.44,25.4 C 25.61,25.2 25.88,25 26.25,25 C 26.51,25 26.71,25.12 26.83,25.25 C 26.95,25.37 27.03,25.51 27.08,25.63 C 27.18,25.87 27.26,26.2 27.31,26.57 C 27.42,27.32 27.48,28.53 27.48,30 H 26.23 C 26.23,28.83 26.2,27.81 26.13,27.16 A 18.03,18.03 0 0,0 26.02,28.03 C 25.97,28.49 25.87,29.03 25.67,29.45 C 25.6,29.6 25.41,29.95 24.98,29.99 C 24.5,30.05 24.24,29.69 24.15,29.55 A 5.11,5.11 0 0,1 23.57,27.7 L 23.5,27.28 Z M 29.57,26.42 C 29.57,26.32 29.67,26.22 29.77,26.22 H 31.61 V 25 H 29.78 C 28.98,25 28.33,25.64 28.33,26.42 V 30 H 29.57 V 28.4 H 31.51 V 27.17 H 29.57 V 26.42 Z" fill="rgb(0, 46, 103)"/>
<path d="M 34.82,28.825 C 35.59,28.84 36.22,28.24 36.22,27.5 S 35.59,26.16 34.82,26.16 C 34.06,26.16 33.44,26.76 33.44,27.5 S 34.06,28.84 34.83,28.84 Z M 34.83,30 C 36.26,30 37.43,28.88 37.43,27.5 S 36.26,25 34.83,25 A 2.55,2.55 0 0,0 32.23,27.5 C 32.23,28.88 33.39,30 34.83,30 Z" fill="rgb(0, 46, 103)" fill-rule="evenodd"/>
</svg>
