<!-- by Finnhub --><svg xmlns="http://www.w3.org/2000/svg" width="56" height="56" viewBox="0 0 56 56"><path fill="#F0F3FA" d="M0 0h56v56H0z"/><path d="M23 20v9.42A6.55 6.55 0 0 0 29.5 36h1.59c1.92 0 3.48-.84 4.5-2.18A6.09 6.09 0 0 0 40.25 36h1.52C45.2 36 48 33.05 48 29.42V20h-3v9.52c0 2.02-1.6 3.48-3.52 3.48h-.61c-1.76 0-3.55-1.23-3.83-3h-3.06c-.18 1.77-1.35 3-3.19 3h-.63c-2 0-4.16-1.46-4.16-3.48V20h-3zm14 0v8h-3v-8h3zm-19.89 0H7v3h9.91c.73 0 1.4.27 1.66.55L13.55 27h4.95l3.48-2.54c.28-3.6-3.13-4.48-4.87-4.46zM7.48 31.17L10.64 29h5.12l-4.64 3.39a.9.9 0 0 1-.11.24c-.13.21-.22.37.5.37H22v3H10.92c-1.86-.55-5.15-2.28-3.44-4.83z" fill="#BD172C"/></svg>