<?xml version="1.0" encoding="UTF-8"?>
<!-- generated by Finnhub -->
<svg viewBox="0 0 55.5 55.5" xmlns="http://www.w3.org/2000/svg">
<path d="M 0,0 H 55.5 V 55.5 H 0 Z" fill="rgb(239, 242, 248)"/>
<path d="M 30.849999999999998,28.435 C 29.81,28.01 28.67,27.65 27.43,27.36 A 11.14,11.14 0 0,1 23.15,25.56 C 22.35,24.96 21.99,23.7 21.81,22.72 C 21.63,21.73 21.49,20.68 21.39,19.58 C 21.19,17.38 21.14,14.93 21,12.44 V 12 H 24.02 C 23.98,13.8 24.21,15.89 24.22,17.74 C 24.23,18.82 24.36,19.88 24.62,20.91 C 25.04,22.61 26.54,23.82 28.08,24.31 C 28.47,24.44 28.88,24.56 29.32,24.67 C 30.85,25.06 32.28,25.91 32.86,27.57 C 33.06,28.14 33.2,29.27 32.17,28.94 C 31.73,28.79 31.29,28.64 30.87,28.45 Z" fill="rgb(206, 149, 54)"/>
<path d="M 28.86,22.445 C 27.51,21.81 26.08,20.47 26.02,18.81 C 25.95,16.65 26.08,14.33 26.25,12.01 L 31.47,12 C 31.4,12.83 31.41,13.78 31.31,14.65 C 31.05,17.01 31.23,19.26 31.85,21.39 C 31.98,21.86 32.18,22.56 31.68,22.83 C 30.92,23.23 29.65,22.83 28.88,22.46 Z"/>
<path d="M 39.88,43.214999999999996 C 39.07,43.71 37.89,43.89 36.96,44 C 36.75,40.23 36.29,36.5 35.59,32.78 C 34.93,29.3 34.29,25.99 33.67,22.84 A 31.64,31.64 0 0,1 33.31,12.1 C 34.25,12.09 35.35,11.98 36.31,12 C 36.95,12.02 37.6,12.14 38.21,12.34 C 38.31,12.38 38.41,12.47 38.44,12.59 C 38.61,13.29 38.7,13.96 38.72,14.61 C 38.78,17 38.84,19.67 38.89,22.61 A 164,164 0 0,0 39.34,30.55 C 39.54,33.26 39.72,35.96 39.89,38.63 C 39.98,40.13 40.02,41.61 39.99,43.05 A 0.2,0.2 0 0,1 39.89,43.23 Z M 17.34,43.63 A 0.25,0.25 0 0,1 17.16,43.36 C 17.24,42.86 17.3,42.35 17.33,41.85 C 17.63,37.74 17.59,33.65 17.16,29.59 C 16.89,27.14 16.66,24.77 16.46,22.47 C 16.21,19.71 16.06,17.1 16,13.57 C 16,13.41 16,13.07 16.2,13 C 16.9,12.75 17.87,12.67 18.69,12.5 C 18.89,16.14 19.32,19.25 20.01,22.85 C 20.15,23.59 20.37,24.63 20.67,25.97 C 21.37,29.04 22.05,32.07 22.61,35.14 C 22.83,36.28 22.95,37.24 22.99,38 C 23.09,39.98 22.68,42.08 22.19,44 C 21.19,44 20.19,44 19.18,43.96 A 6.52,6.52 0 0,1 17.34,43.63 Z" fill="rgb(206, 149, 54)"/>
<path d="M 43.99,35.385 C 44,37.58 42.87,39.43 41.25,41 A 219.3,219.3 0 0,1 40.35,24.96 C 40.32,23.92 40.27,22.86 40.21,21.8 C 40.05,18.86 40,16 40,13 C 42.57,14.69 44,16.93 44,19.86 V 35.39 Z M 12,19.52 C 12.01,17.57 13.24,15.39 14.73,14 C 14.85,16.27 14.99,18.61 15.09,20.96 C 15.25,24.94 15.46,28.93 15.73,32.93 C 15.9,35.31 15.98,37.66 16,39.96 C 16,40.96 15.96,41.97 15.86,43 C 13.39,41.27 12.02,38.98 12.01,36 L 12,19.53 Z"/>
<path d="M 31.75,37.055 C 31.5,33.83 28.96,31.82 26.16,31.15 C 24.63,30.79 23.66,30.05 23.14,28.44 C 23,28 22.76,26.76 23.64,27.04 C 24.02,27.17 24.39,27.31 24.74,27.48 C 26.59,28.36 28.52,28.95 30.45,29.62 C 31.09,29.84 31.67,30.12 32.2,30.47 C 33.32,31.2 33.7,32.7 33.93,34 C 34.15,35.29 34.36,36.51 34.5,37.82 C 34.72,39.77 34.78,41.94 35,44 H 31.57 C 31.64,42.69 31.67,41.36 31.76,40.12 A 19.7,19.7 0 0,0 31.76,37.07 Z" fill="rgb(206, 149, 54)"/>
<path d="M 26.93,33.445 C 28.37,34.12 29.69,35.33 29.93,36.94 C 29.98,37.32 30.01,37.8 30,38.37 C 29.97,40.2 29.65,42.19 29.43,44 H 24.73 A 22.52,22.52 0 0,0 24.07,34.37 C 23.54,32.36 26.03,33.04 26.94,33.46 Z"/>
</svg>
