<?xml version="1.0" encoding="UTF-8"?>
<!-- generated by Finnhub -->
<svg viewBox="0 0 55.5 55.5" xmlns="http://www.w3.org/2000/svg">
<path d="M 0,0 H 55.5 V 55.5 H 0 Z" fill="rgb(239, 242, 248)"/>
<path d="M 35.13,38.214999999999996 C 38.94,36.33 40.59,33.24 40.11,28.98 C 39.86,26.84 38.81,24.49 36.95,21.95 C 42.66,27 43.53,32.81 39.55,39.37 C 37.32,43.02 33.51,44.86 29.21,44.99 C 21.89,45.22 15.81,40.56 14.29,33.43 C 12.31,24.06 20.89,15.91 25.27,8.71 C 25.87,7.73 25.92,7.76 25.44,8.81 C 22.18,15.92 14.64,27.21 19.28,35.24 A 10.66,10.66 0 0,0 35.14,38.23 Z"/>
<path d="M 36.940000000000005,21.935 C 38.81,24.49 39.86,26.84 40.11,28.98 C 40.59,33.24 38.94,36.33 35.14,38.23 C 26.24,39.99 19.62,34.35 22.15,25.11 C 23.32,20.81 26.13,16.09 27.98,11.88 C 28.05,11.74 28.12,11.73 28.21,11.86 A 73.15,73.15 0 0,0 36.95,21.95 Z M 39.05,31.1 C 39.54,25.37 34.63,21.45 30.95,17.9 C 30.3,17.28 29.86,16.45 29.31,15.74 A 0.15,0.15 0 0,0 29.11,15.7 A 0.17,0.17 0 0,0 29.04,15.9 A 24.45,24.45 0 0,0 33.24,23.16 C 35.49,25.95 37.4,28.16 38.71,31.62 A 0.17,0.17 0 0,0 38.89,31.72 A 0.16,0.16 0 0,0 39.02,31.56 C 39.02,31.43 39.02,31.28 39.04,31.1 Z" fill="rgb(41, 194, 230)"/>
</svg>
