<?xml version="1.0" encoding="UTF-8"?>
<!-- generated by Finnhub -->
<svg viewBox="0 0 55.5 55.5" xmlns="http://www.w3.org/2000/svg">
<path d="M 0,0 H 55.5 V 55.5 H 0 Z" fill="rgb(239, 242, 248)"/>
<path d="M 37.160000000000004,28.794999999999998 C 37.05,28.7 37.01,28.57 37.06,28.43 L 36.45,27.67 C 36.38,27.58 36.3,27.57 36.2,27.62 A 0.3,0.3 0 0,1 35.92,27.62 A 0.26,0.26 0 0,1 35.81,27.52 A 0.43,0.43 0 0,0 35.42,27.32 C 35.32,27.32 35.26,27.37 35.22,27.46 L 34.87,28.54 A 0.3,0.3 0 0,1 34.64,28.75 C 33.98,28.92 33.5,28.81 33.22,28.42 C 33.07,28.22 32.86,28.08 32.59,27.98 L 32.52,27.95 C 32.03,27.77 31.69,27.75 31.5,27.91 A 0.28,0.28 0 0,0 31.4,28.19 C 31.42,28.28 31.38,28.33 31.3,28.36 C 30.88,28.46 30.56,28.42 30.34,28.26 C 30.27,28.19 30.21,28.21 30.17,28.3 L 30.14,28.39 A 0.16,0.16 0 0,0 30.18,28.58 L 30.56,28.95 C 30.41,29.16 30.34,29.45 30.33,29.82 C 30.38,29.59 30.29,29.42 30.07,29.28 A 0.16,0.16 0 0,0 29.9,29.28 A 0.16,0.16 0 0,0 29.81,29.42 L 29.71,31.23 C 29.71,31.41 29.79,31.47 29.95,31.43 L 30.42,31.29 C 30.6,31.24 30.64,31.14 30.55,30.98 A 1.8,1.8 0 0,1 30.3,29.95 C 30.43,29.91 30.5,29.85 30.5,29.81 C 30.53,29.52 30.58,29.28 30.62,29.06 C 31.16,29.26 31.7,29.43 32.24,29.58 C 32.49,29.64 32.67,29.78 32.77,29.98 C 32.84,30.12 32.92,30.12 33,29.98 A 0.25,0.25 0 0,0 33.01,29.75 C 32.92,29.5 33.01,29.42 33.25,29.52 C 33.7,29.7 34.18,29.79 34.67,29.8 C 34.79,29.8 34.83,29.87 34.77,29.98 C 34.36,30.82 34.05,31.76 33.87,32.78 C 33.87,32.81 33.87,32.83 33.9,32.83 L 33.92,32.82 C 34.22,32.05 34.55,31.29 34.89,30.56 A 0.98,0.98 0 0,0 35,30.09 C 35,29.96 35.07,29.89 35.2,29.87 C 35.67,29.79 36.1,29.65 36.48,29.45 A 0.34,0.34 0 0,1 36.76,29.43 A 0.2,0.2 0 0,1 36.83,29.47 C 36.88,29.52 36.88,29.57 36.83,29.6 C 36.73,29.67 36.69,29.75 36.71,29.86 C 36.72,29.92 36.76,29.94 36.81,29.92 L 38.24,29.51 L 39.45,29.21 A 0.2,0.2 0 0,0 39.62,29.04 L 39.65,28.87 C 39.69,28.85 39.71,28.8 39.71,28.72 L 42.24,26.42 L 42.41,26.55 L 40.69,29.39 A 0.38,0.38 0 0,1 40.47,29.56 C 39.91,29.74 39.58,29.98 39.5,30.3 A 217.1,217.1 0 0,0 37.93,36.77 A 0.25,0.25 0 0,1 37.78,36.96 A 7.6,7.6 0 0,1 35.81,37.54 C 35.69,37.56 35.64,37.62 35.66,37.74 L 35.68,37.84 C 35.7,37.92 35.74,37.94 35.82,37.92 A 1,1 0 0,1 36.2,37.89 C 36.26,37.9 36.3,37.88 36.32,37.82 C 36.36,37.74 36.42,37.69 36.52,37.68 C 36.6,37.68 36.66,37.69 36.72,37.74 C 36.86,37.87 36.98,38.04 37.06,38.24 C 37.12,38.41 37.08,38.54 36.93,38.61 C 36.87,38.65 36.83,38.71 36.85,38.78 C 36.88,38.95 36.95,39.1 37.08,39.23 C 37.15,39.31 37.14,39.37 37.03,39.4 C 36.73,39.5 36.45,39.66 36.17,39.88 C 36,40.01 35.98,40.16 36.13,40.32 C 36.23,40.42 36.34,40.47 36.48,40.46 C 36.58,40.46 36.65,40.4 36.67,40.3 A 0.34,0.34 0 0,0 36.53,39.93 C 36.45,39.87 36.45,39.81 36.53,39.75 S 36.69,39.65 36.78,39.66 H 37.58 C 37.68,39.66 37.75,39.69 37.82,39.76 C 37.96,39.92 37.96,40.1 37.82,40.29 A 0.22,0.22 0 0,1 37.6,40.39 A 0.22,0.22 0 0,1 37.41,40.24 C 37.34,40.09 37.23,40.06 37.08,40.16 C 36.93,40.26 36.94,40.33 37.11,40.38 A 3.24,3.24 0 0,1 38.43,41.01 C 38.8,41.37 39.19,41.7 39.6,42 C 39.71,42.09 39.73,42.2 39.66,42.31 C 39.45,42.65 38.96,42.71 38.22,42.48 A 5.46,5.46 0 0,1 36.73,41.79 A 1.62,1.62 0 0,1 36.07,40.89 C 35.95,40.51 35.87,40.15 35.83,39.82 A 2.44,2.44 0 0,0 35.64,39.2 A 1.5,1.5 0 0,1 35.51,38.25 A 0.2,0.2 0 0,0 35.42,38.03 A 0.67,0.67 0 0,1 35.14,37.45 C 35.14,37.35 35.18,37.3 35.28,37.29 L 35.79,37.26 C 35.87,37.25 35.87,37.23 35.81,37.19 A 0.97,0.97 0 0,0 35.11,37.05 C 34.95,37.08 34.9,37.02 34.95,36.87 A 0.21,0.21 0 0,1 35.05,36.76 C 35.11,36.72 35.13,36.66 35.12,36.59 L 34.96,35.29 A 0.4,0.4 0 0,0 34.75,34.99 A 0.34,0.34 0 0,1 34.57,34.63 C 34.66,34.61 34.7,34.56 34.69,34.49 C 34.9,34.51 35.09,34.49 35.25,34.42 C 35.32,34.38 35.38,34.32 35.42,34.25 C 35.82,33.36 36.25,32.45 36.7,31.51 C 36.79,31.32 36.91,31.18 37.07,31.07 C 37.14,31.03 37.17,31.05 37.15,31.13 L 36.35,36.17 C 36.32,36.35 36.39,36.43 36.57,36.44 L 37.25,36.46 C 37.43,36.46 37.53,36.38 37.53,36.19 L 37.67,31.61 C 37.67,31.51 37.72,31.44 37.81,31.39 L 38.8,30.85 C 38.85,30.83 38.87,30.79 38.85,30.73 L 38.83,30.64 C 38.83,30.61 38.8,30.6 38.76,30.6 L 37.74,30.81 A 0.22,0.22 0 0,1 37.52,30.73 C 37.27,30.45 36.95,30.23 36.57,30.06 A 0.34,0.34 0 0,0 36.23,30.09 C 36.13,30.16 36.13,30.23 36.21,30.31 C 36.28,30.37 36.32,30.45 36.35,30.53 C 36.37,30.6 36.38,30.66 36.35,30.73 C 36.24,31.15 36.05,31.48 35.78,31.73 C 35.28,32.23 34.8,32.81 34.36,33.47 C 34.26,33.61 34.29,33.73 34.44,33.83 C 34.74,34.03 34.84,34.19 34.69,34.32 C 34.49,34.17 34.35,34.14 34.29,34.23 C 33.9,34.33 33.81,34.63 34,35.1 C 34.06,35.24 34.11,35.24 34.17,35.1 A 0.2,0.2 0 0,1 34.29,35 A 0.13,0.13 0 0,1 34.42,35.01 C 34.46,35.04 34.48,35.08 34.48,35.13 C 34.46,35.31 34.36,35.41 34.18,35.42 C 34.11,35.42 34.08,35.45 34.05,35.52 C 33.98,35.74 33.81,35.85 33.55,35.84 A 0.28,0.28 0 0,0 33.26,36.02 A 0.2,0.2 0 0,0 33.25,36.14 A 0.2,0.2 0 0,0 33.36,36.28 A 1,1 0 0,0 34.06,36.33 C 34.15,36.3 34.21,36.33 34.25,36.43 C 34.28,36.51 34.28,36.6 34.23,36.68 C 34.19,36.76 34.12,36.78 34.03,36.76 L 33.33,36.51 A 0.41,0.41 0 0,0 32.93,36.56 A 0.4,0.4 0 0,0 32.76,36.92 L 32.78,37.69 A 0.5,0.5 0 0,1 32.68,38 A 2.6,2.6 0 0,0 32.34,39.03 C 32.29,39.31 32.24,39.53 32.19,39.68 C 32.05,40.07 31.96,40.48 31.92,40.88 C 31.92,40.99 31.94,41.08 32.02,41.16 C 32.06,41.21 32.08,41.26 32.09,41.32 C 32.11,41.41 32.09,41.49 32.03,41.56 L 30.83,43 H 30.18 C 29.67,42.93 29.52,42.63 29.74,42.1 C 29.88,41.74 29.87,41.47 29.68,41.26 C 29.61,41.18 29.6,41.09 29.66,40.99 L 30.18,40.15 C 30.24,40.05 30.32,40.03 30.42,40.09 A 3,3 0 0,0 31.52,40.48 C 31.54,40.48 31.55,40.48 31.55,40.46 C 31.57,40.42 31.55,40.39 31.52,40.38 A 16.6,16.6 0 0,1 30.5,39.93 A 0.32,0.32 0 0,1 30.32,39.73 A 4.93,4.93 0 0,0 29.96,38.81 C 29.81,38.51 29.77,38.2 29.84,37.85 S 30.07,37.23 30.33,37.04 C 30.68,36.76 30.77,36.42 30.6,36.01 C 30.4,35.54 30.36,35.05 30.49,34.53 A 0.54,0.54 0 0,0 30.44,34.15 A 9.61,9.61 0 0,1 29.63,32.07 A 0.18,0.18 0 0,0 29.47,31.94 C 29.38,31.92 29.32,31.95 29.27,32.03 C 27.67,34.76 26.13,37.43 24.64,40.01 C 24.26,40.67 23.71,40.76 22.99,40.29 A 6.43,6.43 0 0,0 21.82,39.69 A 0.57,0.57 0 0,1 21.44,39.17 A 18.75,18.75 0 0,1 21.39,37.33 C 21.53,37.8 21.58,38.28 21.56,38.77 C 21.53,39.28 21.8,39.55 22.36,39.58 C 22.79,39.6 23.23,39.51 23.68,39.3 C 23.88,39.21 24.01,39.26 24.08,39.45 C 24.11,39.5 24.15,39.52 24.2,39.53 C 24.26,39.53 24.3,39.51 24.33,39.46 L 28.96,31.55 C 29.36,30.88 29.59,30.3 29.66,29.83 C 29.77,29.13 29.83,28.48 29.83,27.85 C 29.83,27.75 29.79,27.69 29.7,27.67 L 27.29,26.88 A 0.2,0.2 0 0,0 27.1,26.91 A 0.2,0.2 0 0,0 27.03,27.08 C 27.08,27.94 27.11,28.83 27.1,29.76 C 27.1,29.8 27.1,29.83 27.07,29.86 A 0.33,0.33 0 0,1 26.99,29.93 C 26.82,29.85 26.69,29.85 26.62,29.92 C 26.56,29.97 26.57,30.02 26.63,30.07 C 26.73,30.13 26.83,30.14 26.96,30.11 C 27.22,30.36 27.26,30.63 27.08,30.93 C 26.94,31.15 26.71,31.36 26.38,31.56 A 0.21,0.21 0 0,0 26.26,31.76 L 26.3,32.77 L 25.75,31.87 A 0.37,0.37 0 0,0 25.55,31.7 A 0.98,0.98 0 0,1 25.01,31.26 A 0.54,0.54 0 0,0 24.71,31.01 C 24.58,30.97 24.56,31 24.65,31.11 C 24.77,31.25 24.86,31.41 24.93,31.57 C 24.94,31.6 24.96,31.61 24.98,31.59 A 7.2,7.2 0 0,0 25.07,31.54 V 32.73 C 25.07,32.81 25.04,32.87 24.97,32.91 A 0.14,0.14 0 0,1 24.86,32.91 A 0.26,0.26 0 0,1 24.71,32.76 L 24.37,31.91 C 24.29,31.71 24.23,31.73 24.2,31.93 C 24.1,32.59 24.16,33.27 24.35,33.96 C 24.32,33.96 24.29,33.98 24.25,34.02 C 24.01,34.02 23.85,33.86 23.8,33.53 C 23.7,32.99 23.59,32.53 23.45,32.17 C 23.38,31.98 23.35,31.82 23.35,31.68 C 23.36,31.5 23.38,31.34 23.42,31.18 C 23.45,31.03 23.4,30.98 23.25,30.99 L 23.14,31.01 C 23.02,31.02 22.96,31.09 22.97,31.21 C 22.99,31.41 23.08,31.65 23.25,31.92 A 0.4,0.4 0 0,1 23.31,32.18 L 23.19,33.28 C 23.19,33.35 23.15,33.38 23.08,33.38 H 22.95 C 22.81,33.38 22.75,33.31 22.75,33.17 L 22.73,32.14 C 22.73,31.98 22.69,31.97 22.61,32.11 L 22.01,33.13 A 0.36,0.36 0 0,1 21.61,33.32 C 21.12,33.23 20.94,32.95 21.05,32.48 C 21.13,32.17 21.03,32.09 20.75,32.25 C 20.73,32.26 20.72,32.32 20.7,32.43 A 0.41,0.41 0 0,0 20.7,32.61 C 20.76,32.81 20.82,33.01 20.89,33.19 L 20.82,33.54 C 20.82,33.6 20.77,33.64 20.72,33.65 L 20.64,33.64 C 20.54,33.56 20.46,33.57 20.4,33.69 C 20.33,33.82 20.28,33.96 20.27,34.11 C 20.27,34.2 20.29,34.27 20.34,34.33 C 20.41,34.41 20.48,34.43 20.57,34.37 C 20.66,34.32 20.72,34.34 20.77,34.44 L 20.79,34.58 L 19.96,35.2 L 20.04,34.51 C 20.06,34.38 20.04,34.2 19.98,33.98 A 2.82,2.82 0 0,1 19.92,33.65 C 19.91,33.57 19.94,33.51 20.02,33.48 A 0.4,0.4 0 0,0 20.26,33.16 A 0.25,0.25 0 0,0 20.15,32.89 A 1.6,1.6 0 0,0 19.38,32.61 C 19.22,32.59 19.15,32.66 19.18,32.83 C 19.18,32.92 19.21,33.01 19.23,33.1 C 19.26,33.2 19.33,33.25 19.43,33.24 C 19.55,33.22 19.65,33.27 19.71,33.39 C 19.79,33.55 19.74,33.61 19.56,33.56 A 2.12,2.12 0 0,0 19.16,33.49 A 0.23,0.23 0 0,0 18.94,33.59 A 0.23,0.23 0 0,0 18.91,33.81 C 19.05,34.18 18.99,34.48 18.74,34.71 C 18.7,34.74 18.66,34.74 18.62,34.71 L 18.56,34.64 C 18.48,34.56 18.48,34.49 18.54,34.4 C 18.66,34.23 18.66,34.05 18.54,33.86 A 1.88,1.88 0 0,1 17.94,33.55 C 17.94,33.53 17.91,33.53 17.89,33.54 A 0.08,0.08 0 0,0 17.84,33.59 C 17.81,33.67 17.77,33.68 17.73,33.61 C 17.61,33.44 17.44,33.39 17.2,33.45 A 0.25,0.25 0 0,1 16.92,33.35 A 1.18,1.18 0 0,1 16.73,32.32 A 0.2,0.2 0 0,0 16.67,32.12 C 16.63,32.09 16.57,32.08 16.49,32.1 C 16.43,32.11 16.4,32.15 16.4,32.22 L 16.42,33.58 C 16.42,33.67 16.45,33.73 16.52,33.78 A 0.2,0.2 0 0,0 16.74,33.78 C 16.84,33.72 16.94,33.72 17.02,33.78 C 17.17,33.88 17.15,33.94 16.99,33.98 L 16.59,34.1 C 16.77,34.57 17.07,34.8 17.49,34.77 C 17.61,34.56 17.66,34.41 17.64,34.31 C 17.61,34.21 17.64,34.13 17.71,34.05 A 0.25,0.25 0 0,1 17.98,34 C 18.08,34.04 18.15,34.12 18.18,34.24 C 18.22,34.34 18.21,34.45 18.16,34.58 A 0.77,0.77 0 0,0 18.07,34.88 C 18.07,35.15 18.17,35.36 18.34,35.51 L 18.52,38.41 C 18.52,38.51 18.5,38.61 18.45,38.69 C 18.28,38.99 18.32,39.26 18.58,39.5 C 18.65,39.57 18.68,39.65 18.66,39.75 A 0.25,0.25 0 0,1 18.48,39.95 C 18.18,40.05 17.84,40 17.48,39.78 A 6.36,6.36 0 0,0 15.83,39.06 C 15.68,39.02 15.63,38.93 15.69,38.79 L 15.71,38.73 C 16.4,36.85 16.7,35.54 16.62,34.81 A 0.32,0.32 0 0,0 16.48,34.57 A 0.64,0.64 0 0,1 16.2,34.16 A 1.6,1.6 0 0,0 15.54,33.09 A 0.53,0.53 0 0,1 15.3,32.6 C 15.3,32.44 15.23,32.35 15.06,32.35 L 12.15,32.32 A 0.14,0.14 0 0,1 12.03,32.26 A 0.14,0.14 0 0,1 12.01,32.12 C 12.13,31.85 12.28,31.45 12.45,30.91 C 12.65,30.31 12.82,29.87 12.95,29.57 A 22,22 0 0,0 13.88,27.1 A 7,7 0 0,0 14.21,24.73 A 58.9,58.9 0 0,1 14.16,22.27 A 0.31,0.31 0 0,0 13.96,21.97 C 13.62,21.81 13.55,21.3 13.73,20.43 V 20.39 A 0.29,0.29 0 0,1 13.85,20.2 A 0.26,0.26 0 0,1 14.08,20.16 C 14.21,20.2 14.25,20.28 14.21,20.4 C 14.2,20.44 14.17,20.46 14.13,20.47 A 0.28,0.28 0 0,0 13.93,20.66 C 13.88,20.76 13.89,20.85 13.95,20.93 C 14.04,21.05 14.12,21.05 14.2,20.93 A 0.25,0.25 0 0,1 14.3,20.84 A 0.2,0.2 0 0,1 14.53,20.86 C 14.84,21.09 15.09,21.39 15.28,21.76 C 15.31,21.82 15.28,21.86 15.18,21.89 C 15.1,21.92 15.04,21.89 15.01,21.81 A 1,1 0 0,0 14.23,21.17 A 0.3,0.3 0 0,0 13.9,21.31 A 0.29,0.29 0 0,0 13.92,21.66 C 14.13,21.94 14.38,22.18 14.66,22.4 A 0.2,0.2 0 0,0 14.89,22.42 C 15.17,22.26 15.37,22.02 15.49,21.71 C 15.66,21.58 15.77,21.36 15.82,21.03 C 15.84,20.86 15.87,20.73 15.91,20.63 A 0.25,0.25 0 0,0 15.87,20.39 L 15.39,19.7 A 0.32,0.32 0 0,0 15.17,19.57 C 14.74,19.51 14.37,19.37 14.03,19.14 C 13.64,18.87 13.43,18.54 13.39,18.17 C 13.39,18.08 13.34,17.97 13.27,17.81 A 0.81,0.81 0 0,1 13.17,17.41 A 0.3,0.3 0 0,1 13.32,17.17 C 13.45,17.09 13.52,17.12 13.56,17.27 L 13.71,17.94 C 13.73,18.01 13.73,18.08 13.71,18.15 C 13.66,18.48 13.82,18.77 14.2,19.01 C 14.5,19.21 14.84,19.32 15.2,19.35 C 15.4,19.36 15.47,19.28 15.42,19.09 L 15.39,18.96 A 0.39,0.39 0 0,0 15.07,18.66 C 14.05,18.46 13.79,18.29 14.31,18.16 L 15.53,18.28 C 15.63,18.29 15.73,18.26 15.81,18.18 L 16.32,17.62 C 16.38,17.55 16.37,17.5 16.29,17.47 C 16.11,17.4 15.97,17.41 15.85,17.49 C 15.45,17.76 15.15,17.84 14.93,17.74 C 15.25,17.48 15.7,17.28 16.29,17.14 L 16.77,17 C 17.1,16.9 17.37,16.86 17.57,16.85 L 19.85,16.8 C 20.11,16.8 20.31,16.84 20.45,16.94 C 20.67,17.11 20.78,17.32 20.75,17.54 C 20.74,17.64 20.77,17.68 20.86,17.7 L 21.4,17.82 C 21.49,17.84 21.57,17.82 21.63,17.76 C 22.08,17.36 22.15,16.96 21.83,16.56 A 0.36,0.36 0 0,0 21.64,16.43 A 2.28,2.28 0 0,1 20.89,16.03 A 0.05,0.05 0 0,1 20.87,15.98 L 20.91,15.82 C 20.92,15.76 20.96,15.74 21.01,15.77 C 22.25,16.33 22.49,17.07 21.73,17.97 C 21.69,18.02 21.64,18.02 21.59,17.99 C 21.49,17.92 21.44,17.95 21.44,18.06 C 21.44,18.13 21.47,18.18 21.54,18.22 C 21.59,18.24 21.62,18.28 21.64,18.34 C 21.75,18.92 21.58,19.34 21.11,19.58 A 0.23,0.23 0 0,0 20.98,19.83 C 21.06,20.49 20.94,21.03 20.6,21.42 C 20.53,21.5 20.54,21.57 20.62,21.63 L 20.7,21.67 C 20.77,21.69 20.83,21.69 20.9,21.66 C 21.12,21.56 21.3,21.61 21.43,21.83 C 21.49,21.93 21.57,21.97 21.68,21.96 H 21.84 C 22.14,21.94 22.38,21.96 22.54,22.01 L 24.9,22.66 A 4.1,4.1 0 0,0 26.68,22.72 C 26.78,22.71 26.85,22.66 26.9,22.57 L 29.04,19.11 C 29.16,18.93 29.32,18.81 29.54,18.77 C 29.68,18.74 29.78,18.8 29.83,18.96 C 29.85,19.01 29.84,19.07 29.81,19.12 L 28.09,21.75 C 28.04,21.82 28.05,21.88 28.14,21.9 L 28.75,22.15 C 29.82,22.6 30.56,22.78 30.99,22.71 H 31.07 C 31.11,22.71 31.15,22.71 31.17,22.67 C 31.35,22.4 31.48,22.1 31.57,21.79 L 31.67,21.16 L 31.68,20.88 L 32.48,20.82 C 32.64,20.81 32.74,20.72 32.78,20.58 A 0.32,0.32 0 0,0 32.67,20.21 L 31.89,19.61 C 31.28,19.14 31.26,18.35 31.82,17.24 C 32.01,16.88 32.27,16.8 32.62,17.01 C 32.7,17.06 32.79,17.06 32.87,17.01 C 33.03,16.91 33.17,16.91 33.32,17.01 C 33.39,17.07 33.44,17.06 33.47,16.97 L 33.51,16.86 V 16.84 C 33.05,16.64 32.56,16.58 32.01,16.66 A 0.34,0.34 0 0,0 31.78,16.8 C 31.47,17.21 30.99,17.57 30.36,17.87 A 5.6,5.6 0 0,0 29.64,18.25 C 29.32,18.45 28.9,18.47 28.35,18.34 A 0.48,0.48 0 0,0 27.81,18.54 L 24.95,22.48 C 24.93,22.51 24.9,22.52 24.86,22.5 C 24.78,22.47 24.76,22.4 24.82,22.33 A 57.38,57.38 0 0,1 28.4,17.77 L 28.64,17.87 C 28.57,17.99 28.59,18.1 28.69,18.2 A 0.2,0.2 0 0,0 28.89,18.26 A 0.2,0.2 0 0,0 29.04,18.14 C 29.18,17.79 29.54,17.52 30.1,17.32 L 30.26,17.25 C 30.61,17.12 30.96,16.76 31.32,16.18 C 31.32,16.36 31.37,16.3 31.47,16 L 31.79,15.9 A 0.48,0.48 0 0,1 32.06,15.9 L 32.45,16 C 33.25,16.23 33.8,16.3 34.14,16.2 A 2.5,2.5 0 0,1 35.32,16.04 C 35.42,16.07 35.5,16.14 35.54,16.24 C 35.67,16.54 35.6,16.59 35.34,16.38 C 35.17,16.24 35,16.22 34.82,16.31 C 34.56,16.45 34.51,16.64 34.65,16.88 C 34.68,16.93 34.73,16.95 34.79,16.96 C 34.85,16.96 34.89,16.94 34.93,16.89 C 35.19,16.56 35.59,16.52 36.13,16.76 C 36.23,16.81 36.28,16.87 36.31,16.97 C 36.34,17.06 36.33,17.14 36.31,17.22 C 36.27,17.32 36.21,17.34 36.11,17.31 C 35.89,17.23 35.71,17.11 35.54,16.97 C 35.49,16.92 35.43,16.91 35.36,16.95 C 35.23,17.02 35.17,17.13 35.18,17.26 C 35.18,17.38 35.24,17.43 35.36,17.43 H 36.07 A 0.3,0.3 0 0,1 36.27,17.5 C 36.4,17.6 36.55,17.65 36.72,17.64 C 36.82,17.64 36.89,17.59 36.92,17.49 C 37,17.25 37.14,17.05 37.32,16.87 C 37.38,16.8 37.42,16.73 37.43,16.64 C 37.46,16.4 37.6,16.12 37.83,15.79 C 38.01,15.54 38.13,15.33 38.18,15.17 C 38.33,14.69 38.85,14.1 39.73,13.41 L 40.2,13.02 C 40.24,12.99 40.27,12.99 40.3,13.04 A 0.5,0.5 0 0,1 40.28,13.51 A 0.72,0.72 0 0,1 39.98,13.81 C 39.41,14.11 38.92,14.64 38.54,15.37 C 38.41,15.6 38.48,15.75 38.74,15.82 A 0.7,0.7 0 0,0 39.23,15.78 A 0.52,0.52 0 0,0 39.51,15.48 L 40.03,14.29 C 40.18,13.97 40.21,13.98 40.13,14.33 A 3.6,3.6 0 0,1 38.98,16.33 A 0.63,0.63 0 0,0 38.8,17.06 C 38.93,17.42 38.92,17.79 38.77,18.18 A 4.86,4.86 0 0,0 38.47,20.13 C 38.48,20.19 38.45,20.22 38.39,20.23 H 38.32 C 38.23,20.23 38.18,20.19 38.17,20.1 C 38.07,19.28 38.22,18.5 38.61,17.76 C 38.81,17.36 38.72,17.26 38.32,17.48 L 38.06,17.62 A 0.39,0.39 0 0,0 37.86,17.87 L 37.34,19.74 A 0.1,0.1 0 0,1 37.31,19.8 L 37.25,19.86 C 37.18,19.94 37.19,20.01 37.29,20.06 L 37.42,20.13 C 37.52,20.19 37.54,20.26 37.48,20.35 C 37.31,20.63 37.27,20.98 37.34,21.39 C 37.36,21.49 37.34,21.6 37.29,21.71 C 37.07,22.13 37.19,22.43 37.65,22.61 L 38.06,22.75 A 3,3 0 0,1 39.5,23.58 C 40.1,24.32 40.74,25.05 41.41,25.76 C 41.45,25.8 41.45,25.84 41.41,25.87 L 40.6,26.49 C 40.57,26.51 40.54,26.51 40.52,26.48 L 38.69,23.84 C 38.61,23.73 38.52,23.72 38.42,23.82 L 37.97,24.28 C 37.9,24.36 37.9,24.44 37.98,24.52 L 38.69,25.19 C 38.77,25.27 38.81,25.36 38.79,25.47 L 38.72,26 C 38.72,26.1 38.74,26.17 38.81,26.23 C 39.17,26.57 39.54,26.83 39.93,27.02 C 39.98,27.04 39.99,27.08 39.94,27.12 L 39.37,27.58 C 39.33,27.62 39.28,27.62 39.24,27.58 A 81.14,81.14 0 0,0 35.55,24.62 C 35.35,24.47 35.13,24.32 34.92,24.19 C 34.72,24.06 34.54,23.91 34.37,23.73 A 3.4,3.4 0 0,0 33.92,23.38 C 33.37,23 33.12,22.65 33.15,22.34 C 33.17,22.22 33.12,22.18 33,22.24 C 32.8,22.36 32.66,22.51 32.57,22.7 C 32.47,22.91 32.49,23.1 32.63,23.28 A 5.58,5.58 0 0,0 34.41,24.72 C 34.55,24.79 34.63,24.9 34.64,25.06 V 25.08 C 34.69,25.65 34.82,26.08 35.04,26.38 C 35.09,26.46 35.17,26.48 35.26,26.46 L 35.34,26.44 C 35.38,26.43 35.39,26.4 35.37,26.37 C 35.25,26.13 35.19,25.87 35.19,25.59 C 35.19,25.54 35.22,25.5 35.27,25.48 C 35.32,25.46 35.37,25.46 35.41,25.5 C 36.31,26.28 37.19,26.99 38.07,27.64 C 38.24,27.76 38.43,27.85 38.64,27.92 C 38.74,27.95 38.76,28.01 38.69,28.08 C 38.37,28.46 38.02,28.74 37.64,28.92 A 0.33,0.33 0 0,1 37.39,28.94 A 0.54,0.54 0 0,1 37.17,28.81 Z" fill="rgb(0, 0, 3)"/>
<path d="M 31.459999999999997,15.985 C 31.37,16.3 31.32,16.36 31.32,16.18 A 7.4,7.4 0 0,0 29.76,16.89 A 5,5 0 0,0 28.64,17.87 L 28.4,17.77 A 5.55,5.55 0 0,1 31.47,16 Z" fill="rgb(70, 70, 69)"/>
<path d="M 38.59,16.345 C 38.64,16.42 38.64,16.47 38.58,16.51 L 38.54,16.54 C 38.09,16.85 37.81,16.94 37.71,16.8 L 37.67,16.73 C 37.57,16.59 37.75,16.36 38.2,16.05 L 38.23,16.03 C 38.29,15.98 38.35,15.99 38.39,16.05 L 38.6,16.35 Z M 34,16.81 C 34.19,16.76 34.31,16.65 34.29,16.58 C 34.26,16.5 34.1,16.48 33.92,16.54 C 33.75,16.6 33.62,16.7 33.64,16.78 C 33.67,16.85 33.83,16.87 34.01,16.81 Z" fill="rgb(239, 242, 248)"/>
<path d="M 21.259999999999998,16.645 C 21.28,16.64 21.3,16.64 21.31,16.66 C 21.38,16.82 21.38,16.97 21.32,17.12 C 21.26,17.25 21.22,17.24 21.18,17.11 A 0.5,0.5 0 0,1 21.27,16.66 Z" fill="rgb(0, 0, 3)"/>
<path d="M 19.13,17.415 C 19.44,17.33 19.67,17.2 19.64,17.12 C 19.62,17.03 19.35,17.04 19.05,17.13 S 18.53,17.36 18.55,17.44 C 18.58,17.52 18.85,17.52 19.15,17.43 Z M 33.82,17.6 L 33.89,17.61 C 33.94,17.61 33.99,17.58 34.02,17.53 C 34.18,17.34 34.38,17.21 34.6,17.15 C 34.78,17.1 34.85,17.16 34.8,17.34 L 34.73,17.7 A 0.29,0.29 0 0,1 34.47,17.94 L 33.83,18.02 A 0.23,0.23 0 0,1 33.62,17.95 C 33.31,17.65 32.97,17.67 32.59,18 C 32.41,18.16 32.25,18.17 32.09,18.02 A 0.17,0.17 0 0,1 32.04,17.82 A 0.17,0.17 0 0,1 32.19,17.71 C 32.64,17.66 33.06,17.49 33.45,17.18 C 33.53,17.12 33.61,17.12 33.69,17.18 C 33.77,17.26 33.79,17.34 33.73,17.43 C 33.68,17.53 33.71,17.58 33.82,17.61 Z" fill="rgb(239, 242, 248)"/>
<path d="M 37.49,17.205 C 37.42,17.32 37.4,17.43 37.46,17.48 C 37.53,17.54 37.64,17.5 37.72,17.41 C 37.8,17.31 37.82,17.21 37.75,17.15 C 37.69,17.1 37.58,17.13 37.5,17.22 Z M 17.92,18.2 L 18.07,18.22 C 18.17,18.24 18.19,18.29 18.11,18.36 C 17.96,18.5 17.79,18.53 17.61,18.44 A 0.23,0.23 0 0,0 17.4,18.44 A 0.85,0.85 0 0,1 16.88,18.54 A 0.46,0.46 0 0,0 16.55,18.62 L 16.25,18.83 C 16.13,18.92 16.01,18.91 15.91,18.81 L 15.83,18.74 C 15.77,18.68 15.78,18.64 15.85,18.58 C 16.01,18.47 16.15,18.34 16.25,18.18 C 16.33,18.08 16.43,18.06 16.55,18.13 C 16.75,18.26 17,18.31 17.26,18.28 C 17.74,18.21 17.8,17.98 17.45,17.58 A 0.32,0.32 0 0,0 17.18,17.48 H 17.1 C 17,17.48 16.99,17.52 17.05,17.58 C 17.47,18.01 17.39,18.13 16.83,17.92 A 0.28,0.28 0 0,1 16.63,17.66 C 16.63,17.44 16.73,17.31 16.93,17.26 C 17.43,17.16 17.9,17.19 18.35,17.35 C 18.49,17.4 18.5,17.47 18.4,17.57 A 0.33,0.33 0 0,0 18.29,17.83 A 0.2,0.2 0 0,1 18.21,17.99 A 0.17,0.17 0 0,1 18.04,18.01 C 17.97,17.98 17.91,17.99 17.86,18.05 C 17.8,18.13 17.82,18.17 17.92,18.19 Z" fill="rgb(171, 172, 170)"/>
<path d="M 42.760000000000005,26.435 L 42.66,26.35 L 45.41,23.55 A 0.08,0.08 0 0,0 45.43,23.46 A 0.07,0.07 0 0,0 45.37,23.41 L 45.29,23.39 C 45.26,23.39 45.23,23.39 45.2,23.42 L 44.23,24.42 A 0.88,0.88 0 0,1 43.93,24.59 A 0.95,0.95 0 0,0 43.65,24.75 C 43.38,24.99 43.09,25.23 42.79,25.45 C 42.75,25.48 42.71,25.48 42.69,25.43 A 0.12,0.12 0 0,1 42.67,25.39 C 42.67,25.36 42.67,25.34 42.69,25.33 C 44.05,24.19 45.46,22.94 46.91,21.59 A 8.37,8.37 0 0,1 48.9,20.24 C 49.02,20.24 49.03,20.29 48.94,20.37 L 48.61,20.67 C 47.99,21.24 47.55,21.67 47.27,21.98 C 47.04,22.25 46.67,22.62 46.15,23.12 L 45.33,23.92 C 44.6,24.68 43.85,25.38 43.09,26.03 C 42.99,26.12 42.88,26.26 42.77,26.45 Z" fill="rgb(0, 0, 3)"/>
<path d="M 20.04,17.495 C 20.13,17.56 20.23,17.53 20.27,17.46 C 20.31,17.39 20.27,17.29 20.19,17.25 C 20.11,17.2 20.01,17.22 19.97,17.3 C 19.93,17.37 19.97,17.46 20.05,17.51 Z" fill="rgb(239, 242, 248)"/>
<path d="M 14.290000000000001,18.134999999999998 L 14.93,17.75 C 15.15,17.85 15.46,17.75 15.85,17.49 C 15.97,17.41 16.11,17.4 16.29,17.47 C 16.37,17.5 16.39,17.55 16.32,17.62 L 15.81,18.18 A 0.33,0.33 0 0,1 15.53,18.28 L 14.31,18.15 Z" fill="rgb(101, 103, 102)"/>
<path d="M 17.919999999999998,17.655 C 18.01,17.69 18.1,17.67 18.11,17.6 C 18.12,17.55 18.06,17.49 17.98,17.47 C 17.89,17.45 17.81,17.47 17.8,17.53 C 17.78,17.59 17.84,17.65 17.93,17.67 Z" fill="rgb(70, 70, 69)"/>
<path d="M 19.759999999999998,17.625 C 19.82,17.59 19.84,17.52 19.81,17.49 C 19.77,17.45 19.71,17.46 19.65,17.51 C 19.6,17.55 19.58,17.62 19.62,17.66 C 19.65,17.69 19.72,17.69 19.77,17.64 Z" fill="rgb(171, 172, 170)"/>
<path d="M 19.889999999999997,18.265 C 19.95,18.34 19.95,18.4 19.91,18.45 C 19.86,18.55 19.79,18.55 19.71,18.47 L 19.45,18.21 C 19.37,18.13 19.29,18.13 19.2,18.19 A 0.94,0.94 0 0,1 18.54,18.36 L 18.51,18.35 L 18.47,18.26 C 18.42,18.17 18.45,18.11 18.54,18.06 C 18.86,17.9 19.17,17.86 19.48,17.92 C 19.58,17.94 19.66,17.92 19.73,17.85 L 19.99,17.62 C 20.11,17.51 20.17,17.53 20.17,17.7 C 20.17,17.86 20.1,17.98 19.94,18.06 C 19.84,18.12 19.84,18.19 19.9,18.28 Z M 37.26,18 C 37.4,17.97 37.5,17.88 37.48,17.79 C 37.46,17.7 37.34,17.66 37.2,17.69 C 37.06,17.71 36.96,17.8 36.97,17.89 C 36.99,17.97 37.12,18.02 37.26,17.99 Z" fill="rgb(239, 242, 248)"/>
<path d="M 35.190000000000005,18.055 C 35.3,18.17 35.43,18.21 35.48,18.17 C 35.52,18.12 35.46,18 35.35,17.9 C 35.25,17.8 35.12,17.75 35.07,17.8 C 35.03,17.85 35.09,17.97 35.2,18.07 Z" fill="rgb(171, 172, 170)"/>
<path d="M 20.689999999999998,18.325 C 20.9,18.37 21.06,18.33 21.07,18.24 C 21.08,18.16 20.94,18.07 20.74,18.04 C 20.54,18.02 20.38,18.06 20.36,18.14 C 20.36,18.22 20.5,18.31 20.7,18.34 Z M 31.96,18.8 L 32.36,18.87 C 32.48,18.89 32.54,18.85 32.56,18.73 C 32.6,18.47 32.74,18.33 33,18.33 L 34.69,18.27 C 34.83,18.27 34.96,18.31 35.06,18.4 C 35.12,18.46 35.13,18.52 35.11,18.6 A 0.19,0.19 0 0,1 34.97,18.74 L 34.17,18.92 C 34.06,18.94 33.99,19.02 33.99,19.14 C 33.99,19.39 33.87,19.59 33.65,19.72 C 33.53,19.8 33.49,19.92 33.54,20.05 L 33.6,20.22 C 33.64,20.34 33.6,20.4 33.47,20.41 C 33.05,20.42 32.81,20.16 32.75,19.61 C 32.72,19.4 32.6,19.28 32.39,19.24 L 32.04,19.19 A 0.26,0.26 0 0,1 31.81,18.98 A 1.6,1.6 0 0,1 31.79,18.2 C 31.81,18.1 31.84,18.1 31.88,18.2 C 31.93,18.32 31.91,18.44 31.84,18.57 S 31.8,18.78 31.96,18.81 Z" fill="rgb(239, 242, 248)"/>
<path d="M 36.550000000000004,18.384999999999998 A 0.67,0.67 0 0,1 36.24,18.44 C 36.09,18.43 36.07,18.37 36.18,18.28 C 36.36,18.12 36.67,18.11 37.1,18.25 L 37.19,18.28 C 37.29,18.31 37.34,18.38 37.34,18.48 V 18.58 C 37.34,18.73 37.29,18.76 37.18,18.65 A 1,1 0 0,0 36.82,18.39 A 0.3,0.3 0 0,0 36.56,18.39 Z M 21.03,18.77 C 21.03,18.7 21.06,18.65 21.13,18.62 A 0.38,0.38 0 0,1 21.34,18.57 C 21.5,18.59 21.54,18.67 21.48,18.81 A 0.73,0.73 0 0,1 21.19,19.15 C 21.08,19.22 21.03,19.19 21.03,19.05 V 18.77 Z" fill="rgb(171, 172, 170)"/>
<path d="M 18.319999999999997,20.345 C 18.8,20.38 19.22,20.48 19.58,20.66 C 19.73,20.72 19.83,20.68 19.88,20.52 L 19.96,20.21 C 20,20.07 19.95,19.98 19.8,19.94 A 5.46,5.46 0 0,1 19.09,19.7 A 0.33,0.33 0 0,1 18.87,19.45 C 18.86,19.36 18.9,19.32 18.97,19.31 C 19.48,19.24 19.8,19.43 19.94,19.89 A 0.2,0.2 0 0,0 20.1,20.03 L 20.2,20.05 A 0.2,0.2 0 0,1 20.35,20.15 C 20.42,20.28 20.43,20.41 20.38,20.53 A 0.29,0.29 0 0,1 20.16,20.73 L 18.62,21.04 A 0.52,0.52 0 0,1 18.03,20.79 C 17.73,20.29 17.33,19.87 16.88,19.53 C 16.83,19.5 16.82,19.46 16.84,19.42 C 16.87,19.32 16.94,19.28 17.04,19.3 C 17.08,19.3 17.1,19.3 17.12,19.26 C 17.3,18.89 17.64,18.71 18.15,18.71 C 18.27,18.71 18.32,18.77 18.31,18.89 C 18.27,19.24 18.31,19.59 18.43,19.94 C 18.47,20.04 18.43,20.13 18.33,20.17 A 0.19,0.19 0 0,0 18.27,20.21 C 18.19,20.31 18.21,20.35 18.33,20.36 Z M 20.26,19.26 C 20.33,19.48 20.47,19.64 20.57,19.61 C 20.67,19.58 20.69,19.37 20.62,19.15 C 20.55,18.92 20.42,18.77 20.32,18.8 C 20.22,18.83 20.19,19.03 20.26,19.26 Z" fill="rgb(239, 242, 248)"/>
<path d="M 33.42,19.115 C 33.56,19.07 33.63,18.94 33.59,18.85 C 33.55,18.77 33.4,18.75 33.27,18.82 C 33.13,18.89 33.07,19.02 33.11,19.1 C 33.15,19.18 33.3,19.2 33.43,19.13 Z" fill="rgb(0, 0, 3)"/>
<path d="M 35.21,19.285 C 35.12,19.57 35,19.84 34.85,20.12 A 0.44,0.44 0 0,1 34.51,20.36 A 2.7,2.7 0 0,1 34.11,20.39 C 34.01,20.39 33.98,20.34 34.03,20.25 C 34.13,20.02 34.19,19.76 34.18,19.46 C 34.18,19.33 34.24,19.24 34.38,19.2 L 35.62,18.85 C 35.67,18.83 35.7,18.85 35.72,18.89 L 35.75,18.97 C 35.78,19.03 35.76,19.07 35.69,19.09 L 35.37,19.18 A 0.19,0.19 0 0,0 35.22,19.3 Z" fill="rgb(239, 242, 248)"/>
<path d="M 36.24,19.525 C 36.21,19.58 36.15,19.59 36.09,19.56 C 35.99,19.51 35.97,19.46 36.07,19.38 L 36.61,18.98 C 36.71,18.91 36.79,18.93 36.84,19.05 L 36.88,19.14 C 36.92,19.23 36.9,19.29 36.8,19.34 C 36.7,19.38 36.57,19.42 36.45,19.44 A 0.35,0.35 0 0,0 36.25,19.54 Z" fill="rgb(171, 172, 170)"/>
<path d="M 15.89,19.765 C 15.82,19.63 15.86,19.56 16.03,19.55 C 16.17,19.54 16.3,19.59 16.4,19.69 C 16.5,19.79 16.52,19.89 16.49,20.02 A 0.26,0.26 0 0,1 16.24,20.22 C 16.18,20.22 16.07,20.08 15.9,19.78 Z M 36.13,20.57 C 36.34,20.64 36.53,20.61 36.57,20.51 C 36.6,20.41 36.47,20.27 36.26,20.2 C 36.06,20.13 35.86,20.16 35.82,20.26 C 35.79,20.36 35.92,20.5 36.13,20.57 Z" fill="rgb(239, 242, 248)"/>
<path d="M 36.870000000000005,20.384999999999998 C 36.85,20.32 36.88,20.28 36.97,20.28 C 37.08,20.28 37.17,20.34 37.21,20.45 A 0.1,0.1 0 0,1 37.19,20.56 A 0.1,0.1 0 0,1 37.08,20.59 A 0.34,0.34 0 0,1 36.88,20.39 Z M 16.8,20.58 C 16.87,20.62 16.95,20.62 16.98,20.58 C 17,20.53 16.95,20.46 16.88,20.42 C 16.79,20.38 16.71,20.39 16.68,20.43 C 16.67,20.48 16.71,20.54 16.79,20.58 Z" fill="rgb(101, 103, 102)"/>
<path d="M 33.92,20.985 C 33.83,21.1 33.8,21.22 33.85,21.27 C 33.9,21.32 34.02,21.27 34.12,21.17 S 34.25,20.94 34.2,20.9 C 34.15,20.85 34.03,20.9 33.93,21 Z" fill="rgb(171, 172, 170)"/>
<path d="M 36.940000000000005,21.384999999999998 C 36.69,21.16 36.44,21.13 36.18,21.31 A 0.96,0.96 0 0,0 35.76,22.03 C 35.76,22.1 35.72,22.12 35.66,22.08 L 35.56,22.02 A 0.3,0.3 0 0,1 35.41,21.74 C 35.41,21.48 35.5,21.28 35.65,21.17 C 35.75,21.09 35.92,21.03 36.18,20.97 L 36.56,20.85 A 0.4,0.4 0 0,1 36.82,20.84 C 36.97,20.88 37.09,20.94 37.19,21.03 C 37.25,21.09 37.26,21.15 37.22,21.23 L 37.15,21.36 C 37.09,21.46 37.03,21.47 36.95,21.4 Z" fill="rgb(239, 242, 248)"/>
<path d="M 31.669999999999998,20.865 L 31.67,21.16 L 31.17,21.36 C 31.07,21.39 31.01,21.46 30.99,21.55 C 30.97,21.64 30.99,21.72 31.05,21.79 C 31.21,21.96 31.38,21.96 31.56,21.79 C 31.48,22.1 31.36,22.39 31.17,22.67 A 0.11,0.11 0 0,1 31.07,22.72 L 31,22.7 C 31.06,22.67 31.09,22.63 31.07,22.6 A 6.15,6.15 0 0,0 30.83,22.07 C 30.65,21.72 30.65,21.44 30.83,21.21 C 31,20.99 31.29,20.88 31.69,20.87 Z" fill="rgb(171, 172, 170)"/>
<path d="M 16.27,21.615 A 0.84,0.84 0 0,0 16.1,21.34 A 0.18,0.18 0 0,1 16.05,21.18 A 0.2,0.2 0 0,1 16.16,21.04 C 16.21,21.02 16.26,21.01 16.31,21.02 C 16.43,21.02 16.49,21.09 16.49,21.22 V 21.59 C 16.49,21.65 16.46,21.69 16.39,21.69 C 16.34,21.71 16.3,21.69 16.28,21.63 Z" fill="rgb(239, 242, 248)"/>
<path d="M 15.27,21.745 A 0.37,0.37 0 0,1 15.5,21.71 C 15.37,22.03 15.17,22.26 14.9,22.41 A 0.2,0.2 0 0,1 14.66,22.4 A 3.89,3.89 0 0,1 13.92,21.66 A 0.29,0.29 0 0,1 13.9,21.31 A 0.3,0.3 0 0,1 14.23,21.17 A 1,1 0 0,1 15.01,21.81 C 15.04,21.89 15.11,21.91 15.18,21.89 C 15.28,21.86 15.31,21.82 15.28,21.76 Z" fill="rgb(171, 172, 170)"/>
<path d="M 18.77,21.884999999999998 C 18.82,21.95 18.88,21.97 18.94,21.98 C 19.05,22 19.09,21.96 19.05,21.85 L 18.97,21.61 C 18.94,21.52 18.97,21.46 19.05,21.43 A 0.44,0.44 0 0,1 19.43,21.46 A 0.4,0.4 0 0,1 19.63,21.78 L 19.67,22.16 C 19.67,22.23 19.7,22.3 19.75,22.36 C 19.8,22.41 19.87,22.44 19.95,22.44 C 20.06,22.44 20.13,22.5 20.15,22.61 A 0.55,0.55 0 0,1 20,23.13 A 0.22,0.22 0 0,1 19.75,23.19 A 0.22,0.22 0 0,1 19.59,22.99 L 19.57,22.76 C 19.56,22.62 19.48,22.54 19.35,22.52 A 1.26,1.26 0 0,0 18.73,22.57 C 18.65,22.6 18.61,22.57 18.59,22.5 A 0.63,0.63 0 0,0 18.29,22.07 C 18.21,22.02 18.2,21.97 18.26,21.91 C 18.42,21.75 18.61,21.64 18.82,21.59 C 18.91,21.58 18.94,21.61 18.93,21.69 C 18.93,21.75 18.89,21.78 18.83,21.78 C 18.74,21.78 18.73,21.82 18.78,21.9 Z" fill="rgb(239, 242, 248)"/>
<path d="M 33.050000000000004,21.544999999999998 C 33.16,21.58 33.26,21.57 33.26,21.54 S 33.19,21.47 33.09,21.44 C 32.99,21.42 32.9,21.43 32.89,21.46 C 32.89,21.49 32.96,21.54 33.06,21.56 Z" fill="rgb(171, 172, 170)"/>
<path d="M 17.09,26.275 A 0.37,0.37 0 0,1 16.95,26.44 A 4.06,4.06 0 0,1 15.45,24.41 A 4.1,4.1 0 0,1 15.55,22.44 C 15.87,21.68 16.12,21.69 16.32,22.45 C 16.4,22.75 16.36,23.1 16.19,23.54 A 0.88,0.88 0 0,1 16,23.8 A 0.87,0.87 0 0,0 15.86,24 A 0.25,0.25 0 0,0 15.87,24.24 L 17.1,26.29 Z M 16.93,22.77 A 1.4,1.4 0 0,1 16.82,22.29 C 16.81,22.19 16.86,22.12 16.96,22.09 C 17.01,22.08 17.06,22.09 17.1,22.1 C 17.18,22.14 17.21,22.2 17.2,22.28 C 17.2,22.46 17.17,22.62 17.1,22.77 C 17.04,22.9 16.99,22.9 16.93,22.77 Z M 22.13,22.4 C 22.13,22.35 22.16,22.32 22.2,22.3 C 22.3,22.26 22.39,22.24 22.47,22.26 C 23.14,22.4 23.8,22.59 24.44,22.81 C 24.51,22.83 24.54,22.88 24.53,22.95 L 24.5,23.15 C 24.5,23.22 24.46,23.24 24.39,23.21 A 7.91,7.91 0 0,0 21.75,22.71 C 21.68,22.7 21.68,22.68 21.73,22.63 C 21.78,22.6 21.83,22.59 21.89,22.6 C 22.04,22.62 22.12,22.56 22.13,22.4 Z M 34.8,23.05 C 34.83,23.19 34.91,23.29 35.04,23.37 C 35.07,23.39 35.09,23.42 35.08,23.46 C 35.08,23.5 35.05,23.52 35.01,23.53 C 34.61,23.63 34.31,23.5 34.08,23.16 A 0.43,0.43 0 0,1 34.03,22.79 A 0.43,0.43 0 0,1 34.27,22.5 C 34.47,22.42 34.67,22.32 34.86,22.23 A 0.3,0.3 0 0,1 35.08,22.2 C 35.13,22.22 35.16,22.24 35.18,22.28 C 35.22,22.34 35.21,22.4 35.18,22.45 L 34.87,22.81 A 0.28,0.28 0 0,0 34.81,23.05 Z M 36.25,23.65 C 36.37,23.42 36.39,23.15 36.31,22.86 A 0.35,0.35 0 0,1 36.41,22.5 C 36.51,22.41 36.61,22.35 36.74,22.32 C 36.82,22.29 36.9,22.32 36.97,22.37 L 38,23.2 C 38.1,23.28 38.11,23.37 38.05,23.48 L 37.64,24.14 A 0.25,0.25 0 0,1 37.41,24.27 A 6.9,6.9 0 0,1 35.57,23.97 C 35.47,23.94 35.42,23.87 35.43,23.77 L 35.46,22.77 C 35.47,22.57 35.58,22.46 35.78,22.44 H 35.89 C 36.06,22.42 36.14,22.5 36.13,22.66 L 36.09,23.61 C 36.09,23.85 36.14,23.86 36.25,23.65 Z M 18.06,22.85 L 18.45,22.6 C 18.51,22.56 18.55,22.57 18.56,22.64 L 18.6,22.8 L 18.59,22.82 A 0.9,0.9 0 0,1 17.75,23.04 C 17.65,23.02 17.65,22.99 17.73,22.94 A 0.2,0.2 0 0,1 17.86,22.9 C 17.93,22.9 18,22.89 18.06,22.85 Z" fill="rgb(239, 242, 248)"/>
<path d="M 21.16,22.915 C 21.13,23.01 21.15,23.11 21.23,23.15 C 21.3,23.19 21.4,23.15 21.43,23.05 C 21.48,22.97 21.46,22.87 21.38,22.83 A 0.15,0.15 0 0,0 21.18,22.93 Z M 22.85,24.46 C 22.68,24.53 22.58,24.61 22.57,24.69 L 22.37,24.36 C 22.25,24.09 22.27,23.94 22.47,23.9 L 22.21,23.5 A 0.16,0.16 0 0,0 22.03,23.42 A 0.2,0.2 0 0,0 21.95,23.45 A 0.12,0.12 0 0,0 21.88,23.55 V 23.63 L 21.54,23.68 L 21.62,23.32 C 21.64,23.22 21.7,23.18 21.79,23.18 C 21.93,23.18 22.07,23.15 22.19,23.1 C 22.39,23.01 22.56,23.04 22.73,23.18 C 22.89,23.33 22.93,23.51 22.87,23.71 S 22.75,24.11 22.67,24.31 C 22.65,24.4 22.7,24.45 22.85,24.46 Z" fill="rgb(171, 172, 170)"/>
<path d="M 18.209999999999997,23.814999999999998 A 0.6,0.6 0 0,1 17.88,23.98 C 17.58,24.01 17.33,23.78 17.13,23.28 C 17.07,23.13 17.12,23.08 17.28,23.15 C 17.38,23.19 17.4,23.25 17.33,23.35 C 17.25,23.45 17.27,23.51 17.39,23.55 C 17.63,23.65 17.91,23.65 18.21,23.53 C 18.41,23.45 18.59,23.4 18.73,23.4 C 18.79,23.4 18.84,23.42 18.88,23.47 C 18.95,23.57 18.93,23.63 18.81,23.65 L 18.43,23.73 A 0.44,0.44 0 0,0 18.23,23.83 Z M 22.57,24.7 C 22.58,24.6 22.67,24.53 22.85,24.46 C 22.98,24.48 23.09,24.4 23.19,24.24 C 23.38,23.91 23.36,23.66 23.15,23.49 C 23.09,23.44 23.08,23.39 23.11,23.32 A 0.11,0.11 0 0,1 23.17,23.26 C 23.19,23.26 23.22,23.26 23.24,23.28 C 23.44,23.42 23.66,23.52 23.9,23.58 C 23.97,23.59 24.03,23.58 24.1,23.55 C 24.52,23.31 25,23.29 25.54,23.49 C 25.68,23.54 25.72,23.64 25.68,23.79 A 0.31,0.31 0 0,1 25.58,23.94 C 25.51,23.99 25.44,23.99 25.38,23.94 C 24.9,23.51 24.54,23.46 24.29,23.75 C 24.24,23.81 24.19,23.82 24.13,23.78 A 0.27,0.27 0 0,0 24.06,23.74 A 0.21,0.21 0 0,0 23.81,23.81 L 23.43,24.29 C 23.35,24.38 23.37,24.46 23.47,24.52 C 23.61,24.62 23.76,24.68 23.93,24.72 C 24.03,24.74 24.13,24.79 24.22,24.86 C 24.49,25.1 24.81,25.26 25.15,25.36 C 25.21,25.36 25.25,25.34 25.27,25.29 L 25.3,25.19 C 25.33,25.09 25.3,25.02 25.2,24.98 L 24.28,24.53 C 24.18,24.48 24.15,24.4 24.2,24.3 L 24.24,24.22 C 24.26,24.18 24.29,24.17 24.34,24.18 C 24.81,24.36 25.27,24.42 25.71,24.38 C 25.8,24.38 25.87,24.34 25.94,24.28 C 26.04,24.17 26.15,24.09 26.27,24.03 A 0.3,0.3 0 0,1 26.55,24.04 C 26.68,24.12 26.89,24.16 27.17,24.16 C 27.41,24.16 27.59,24.19 27.72,24.24 L 29.21,24.86 C 29.47,24.96 29.61,25.16 29.61,25.42 C 29.6,25.52 29.63,25.61 29.68,25.69 L 30.28,26.58 C 30.38,26.72 30.35,26.77 30.18,26.71 C 29.81,26.57 29.48,26.37 29.19,26.11 C 29.12,26.04 29.11,25.97 29.15,25.88 A 0.21,0.21 0 0,1 29.25,25.78 C 29.31,25.74 29.34,25.68 29.33,25.62 A 0.16,0.16 0 0,0 29.22,25.47 A 9.63,9.63 0 0,1 27.17,24.53 C 26.93,24.38 26.52,24.34 25.95,24.42 L 25.84,24.43 C 25.62,24.46 25.5,24.58 25.48,24.8 C 25.48,24.86 25.5,24.92 25.56,24.98 C 25.61,25.03 25.67,25.04 25.74,25.02 L 26.57,24.81 C 26.72,24.77 26.85,24.81 26.95,24.93 C 27.05,25.04 27.06,25.17 27,25.31 L 26.77,25.8 C 26.73,25.88 26.67,25.9 26.57,25.88 C 26.19,25.77 25.91,25.93 25.74,26.35 C 25.69,26.47 25.72,26.52 25.85,26.52 L 26.48,26.49 C 26.57,26.49 26.63,26.53 26.66,26.61 C 26.7,26.71 26.68,26.81 26.61,26.91 C 26.55,26.98 26.48,27 26.39,26.96 A 2.07,2.07 0 0,0 24.89,27.04 C 24.81,27.07 24.75,27.04 24.71,26.97 C 24.65,26.87 24.67,26.8 24.74,26.76 C 24.79,26.73 24.84,26.72 24.88,26.72 C 25.08,26.72 25.28,26.7 25.48,26.67 C 25.53,26.67 25.58,26.64 25.61,26.6 A 0.1,0.1 0 0,0 25.64,26.53 C 25.64,26.46 25.6,26.43 25.53,26.41 A 4.74,4.74 0 0,0 25,26.38 C 24.54,26.38 24.51,26.28 24.92,26.06 C 25.02,26.01 25.15,26.01 25.3,26.07 C 25.4,26.11 25.5,26.1 25.58,26.04 C 25.68,25.97 25.76,25.88 25.82,25.77 A 0.27,0.27 0 0,1 26.05,25.63 C 26.28,25.63 26.49,25.54 26.71,25.39 C 26.79,25.33 26.8,25.27 26.74,25.19 C 26.66,25.1 26.56,25.08 26.44,25.12 C 25.94,25.3 25.46,25.49 25,25.7 A 0.66,0.66 0 0,1 24.53,25.72 A 0.65,0.65 0 0,1 24.15,25.42 A 3.95,3.95 0 0,0 23.88,25.03 A 0.55,0.55 0 0,0 23.48,24.81 A 0.48,0.48 0 0,0 23.08,24.98 A 0.21,0.21 0 0,1 22.94,25.05 C 22.76,25.07 22.64,24.95 22.57,24.69 Z" fill="rgb(239, 242, 248)"/>
<path d="M 22.45,23.884999999999998 A 0.9,0.9 0 0,1 21.88,23.63 V 23.55 C 21.88,23.5 21.91,23.47 21.95,23.45 A 0.19,0.19 0 0,1 22.03,23.42 C 22.11,23.41 22.17,23.43 22.21,23.5 L 22.46,23.9 Z" fill="rgb(70, 70, 69)"/>
<path d="M 31.72,24.435 C 31.85,24.5 31.93,24.59 32,24.73 L 32.01,24.77 L 32.24,27.37 C 32.24,27.47 32.21,27.53 32.12,27.57 C 31.14,27.94 30.42,27.97 29.98,27.63 C 29.85,27.53 29.84,27.43 29.93,27.3 L 29.98,27.22 C 30.05,27.12 30.14,27.12 30.22,27.2 L 30.62,27.56 A 0.2,0.2 0 0,0 30.85,27.59 C 30.94,27.55 30.98,27.49 30.97,27.39 L 30.83,24.75 C 30.83,24.65 30.84,24.51 30.88,24.35 L 30.93,24.16 C 30.95,24.06 30.99,23.99 31.07,23.93 C 31.39,23.68 31.73,23.53 32.09,23.48 A 0.88,0.88 0 0,1 32.98,23.88 C 33.08,24.08 33.03,24.18 32.8,24.2 C 32.46,24.2 32.12,24.23 31.75,24.28 C 31.55,24.3 31.53,24.36 31.73,24.45 Z M 21.88,23.63 A 0.9,0.9 0 0,0 22.46,23.9 C 22.28,23.94 22.25,24.1 22.37,24.36 C 22.19,24.06 22.03,24.02 21.89,24.26 A 0.31,0.31 0 0,1 21.65,24.42 A 0.32,0.32 0 0,1 21.38,24.34 C 21.26,24.23 21.18,24.26 21.18,24.44 C 21.16,24.57 21.22,24.66 21.35,24.69 C 21.83,24.82 22.21,25.05 22.49,25.39 C 22.61,25.53 22.58,25.57 22.4,25.51 L 21.32,25.1 C 21.21,25.06 21.14,25.1 21.11,25.2 A 0.77,0.77 0 0,1 20.76,25.67 C 20.69,25.71 20.63,25.7 20.58,25.63 C 20.53,25.55 20.53,25.47 20.59,25.4 C 20.72,25.25 20.85,25.13 21,25.03 A 0.27,0.27 0 0,0 21.13,24.83 C 21.15,24.61 21.07,24.49 20.87,24.43 A 0.19,0.19 0 0,1 20.72,24.26 A 0.19,0.19 0 0,1 20.83,24.06 L 21.54,23.68 L 21.88,23.63 Z M 19.6,24.92 C 19.3,25.07 18.97,25.12 18.6,25.09 C 18.49,25.09 18.41,25.13 18.38,25.24 C 18.28,25.53 18.35,25.74 18.58,25.87 C 18.62,25.9 18.62,25.92 18.58,25.94 C 18.41,26.03 18.26,25.99 18.13,25.84 A 0.13,0.13 0 0,1 18.09,25.77 L 17.99,25.11 C 17.97,25.01 18.01,24.97 18.1,25.02 C 18.25,25.09 18.37,25.06 18.47,24.92 A 0.2,0.2 0 0,1 18.64,24.82 L 19.62,24.7 C 19.75,24.69 19.76,24.64 19.67,24.56 A 1.08,1.08 0 0,0 19.11,24.31 A 0.28,0.28 0 0,0 18.87,24.39 C 18.7,24.55 18.51,24.6 18.31,24.53 C 17.84,24.36 17.85,24.23 18.35,24.14 C 18.49,24.12 18.62,24.08 18.75,24.01 A 0.4,0.4 0 0,1 19.03,23.98 C 19.53,24.12 19.92,24.41 20.19,24.84 C 20.22,24.89 20.22,24.94 20.18,24.99 C 20.13,25.03 20.08,25.04 20.03,25.01 L 19.87,24.93 A 0.28,0.28 0 0,0 19.59,24.93 Z M 17.53,24.65 C 17.63,24.82 17.76,24.92 17.82,24.88 C 17.87,24.85 17.84,24.68 17.74,24.53 C 17.64,24.37 17.52,24.27 17.46,24.3 C 17.4,24.34 17.44,24.5 17.53,24.65 Z" fill="rgb(239, 242, 248)"/>
<path d="M 15.44,24.395 C 15.67,25.09 16.08,25.71 16.68,26.24 C 16.51,26.4 16.55,26.58 16.82,26.78 C 16.9,26.83 16.89,26.87 16.79,26.88 C 16.62,26.9 16.45,26.83 16.29,26.67 A 6.23,6.23 0 0,1 15.39,25.64 C 15.41,25.33 15.34,25.04 15.18,24.77 C 15.1,24.49 15.2,24.37 15.45,24.41 Z" fill="rgb(101, 103, 102)"/>
<path d="M 33.54,24.564999999999998 C 33.55,24.56 33.56,24.55 33.58,24.55 H 33.59 C 33.76,24.53 33.92,24.65 34.07,24.93 C 34.22,25.21 34.32,25.56 34.37,25.97 L 34.43,26.54 C 34.47,26.95 34.45,27.31 34.36,27.61 C 34.27,27.91 34.14,28.08 33.97,28.09 C 33.94,28.09 33.93,28.09 33.93,28.07 L 33.55,24.57 Z" fill="rgb(239, 242, 248)"/>
<path d="M 15.39,25.625 C 15.12,25.36 15.05,25.07 15.18,24.77 C 15.34,25.03 15.41,25.33 15.39,25.64 Z" fill="rgb(171, 172, 170)"/>
<path d="M 22.919999999999998,26.025 C 22.68,25.78 22.75,25.54 23.14,25.34 A 0.52,0.52 0 0,1 23.27,25.29 C 23.54,25.24 23.73,25.34 23.83,25.59 A 0.2,0.2 0 0,0 23.92,25.69 C 24.26,25.87 24.36,26.19 24.21,26.63 A 0.17,0.17 0 0,1 24.07,26.75 A 0.16,0.16 0 0,1 23.9,26.68 L 23.66,26.36 C 23.57,26.25 23.5,26.26 23.43,26.38 A 0.38,0.38 0 0,0 23.39,26.54 C 23.39,26.63 23.35,26.68 23.26,26.69 A 0.2,0.2 0 0,1 23.12,26.67 A 0.18,0.18 0 0,1 23.02,26.52 V 26.32 C 23.02,26.21 23,26.12 22.92,26.04 Z M 19.42,25.87 C 19.72,25.77 19.92,25.59 19.89,25.49 C 19.85,25.39 19.59,25.39 19.29,25.49 C 18.99,25.61 18.79,25.78 18.82,25.89 C 18.86,25.99 19.12,25.98 19.42,25.87 Z M 20.54,26.82 C 20.74,26.87 20.82,26.85 20.79,26.76 L 21.47,26.65 C 21.57,26.63 21.6,26.57 21.58,26.48 C 21.51,26.2 21.35,26.09 21.09,26.15 L 20.85,26.12 A 0.4,0.4 0 0,0 21.16,25.95 A 0.22,0.22 0 0,1 21.4,25.86 C 21.67,25.92 21.94,25.92 22.2,25.86 C 22.36,25.81 22.4,25.86 22.3,25.99 C 22.24,26.09 22.16,26.12 22.05,26.09 A 0.1,0.1 0 0,0 21.95,26.12 A 0.09,0.09 0 0,0 21.94,26.22 C 22.04,26.46 21.99,26.68 21.8,26.88 A 0.29,0.29 0 0,1 21.53,26.97 C 21.11,26.91 20.79,27.03 20.57,27.33 A 0.2,0.2 0 0,1 20.33,27.41 C 20.23,27.37 20.16,27.31 20.13,27.2 C 20.12,27.1 20.15,27.04 20.23,26.99 L 20.54,26.82 Z" fill="rgb(239, 242, 248)"/>
<path d="M 20.84,26.105 L 21.09,26.15 C 20.99,26.35 20.86,26.55 20.69,26.71 C 20.65,26.74 20.66,26.77 20.71,26.78 C 20.74,26.79 20.76,26.78 20.79,26.76 C 20.82,26.85 20.73,26.86 20.54,26.82 C 20.52,26.37 20.63,26.14 20.85,26.12 Z" fill="rgb(171, 172, 170)"/>
<path d="M 17.439999999999998,28.025 A 0.58,0.58 0 0,0 16.96,27.98 C 16.57,28.08 16.34,27.97 16.27,27.63 A 0.64,0.64 0 0,1 16.3,27.23 C 16.35,27.13 16.46,27.11 16.61,27.16 C 16.86,27.24 17,27.41 17.03,27.66 C 17.04,27.76 17.1,27.8 17.2,27.78 C 17.35,27.76 17.5,27.71 17.66,27.64 C 17.78,27.58 17.78,27.53 17.66,27.48 C 17.48,27.4 17.33,27.21 17.23,26.92 A 1.13,1.13 0 0,0 16.95,26.44 A 0.37,0.37 0 0,0 17.1,26.29 C 17.52,27.04 18.18,27.49 19.08,27.65 C 19.18,27.66 19.26,27.72 19.3,27.8 C 19.36,27.93 19.33,27.96 19.2,27.9 L 18.73,27.68 A 0.23,0.23 0 0,0 18.52,27.68 A 0.22,0.22 0 0,0 18.39,27.86 C 18.39,27.93 18.39,27.99 18.42,28.06 C 18.46,28.16 18.42,28.24 18.31,28.28 A 0.19,0.19 0 0,1 18.1,28.22 A 0.4,0.4 0 0,0 17.86,28.1 L 17.45,28.04 Z M 19.3,26.99 L 18.58,26.68 C 18.54,26.66 18.53,26.63 18.53,26.58 C 18.53,26.54 18.56,26.52 18.61,26.51 L 19.51,26.37 C 19.61,26.35 19.64,26.39 19.6,26.49 L 19.41,26.94 C 19.39,27 19.35,27.01 19.3,26.99 Z M 22.9,27 C 22.93,27.01 22.94,27.04 22.91,27.09 C 22.9,27.12 22.87,27.13 22.84,27.12 L 22.56,27.05 C 22.24,26.96 22.18,26.79 22.38,26.52 C 22.5,26.37 22.64,26.32 22.8,26.38 C 22.88,26.42 22.9,26.47 22.86,26.54 C 22.8,26.64 22.78,26.75 22.8,26.87 C 22.81,26.93 22.85,26.97 22.9,27 Z M 23.22,27 A 0.82,0.82 0 0,1 23.32,26.87 C 23.42,26.75 23.51,26.77 23.56,26.93 L 23.86,27.77 C 23.87,27.83 23.86,27.88 23.81,27.92 A 0.13,0.13 0 0,1 23.66,27.95 A 0.68,0.68 0 0,0 23.36,27.89 C 23.26,27.89 23.2,27.85 23.17,27.77 C 23.13,27.67 23.15,27.57 23.23,27.47 C 23.31,27.4 23.32,27.32 23.26,27.23 A 0.41,0.41 0 0,0 23.1,27.08 C 23.08,27.08 23.08,27.06 23.1,27.05 L 23.14,27.04 C 23.17,27.04 23.2,27.04 23.22,27 Z M 24.77,27.56 C 25.02,27.62 25.22,27.56 25.38,27.36 A 0.3,0.3 0 0,1 25.71,27.26 C 25.87,27.31 25.98,27.41 26.06,27.58 C 26.09,27.65 26.08,27.72 26.03,27.78 A 0.19,0.19 0 0,1 25.83,27.86 A 1.6,1.6 0 0,0 24.56,28.1 C 24.46,28.17 24.37,28.15 24.32,28.04 C 24.28,27.98 24.3,27.92 24.36,27.86 C 24.41,27.81 24.43,27.76 24.4,27.69 L 24.24,27.31 C 24.22,27.26 24.24,27.22 24.28,27.19 L 24.37,27.14 C 24.42,27.11 24.47,27.11 24.51,27.15 C 24.57,27.21 24.61,27.29 24.61,27.38 C 24.62,27.48 24.67,27.54 24.77,27.56 Z" fill="rgb(239, 242, 248)"/>
<path d="M 22.06,27.625 A 0.3,0.3 0 0,1 21.84,27.64 A 0.2,0.2 0 0,1 21.78,27.52 C 21.78,27.48 21.8,27.43 21.83,27.4 A 0.6,0.6 0 0,1 22.16,27.23 C 22.22,27.23 22.27,27.24 22.3,27.3 C 22.34,27.35 22.33,27.4 22.3,27.45 A 0.58,0.58 0 0,1 22.07,27.64 Z" fill="rgb(171, 172, 170)"/>
<path d="M 21.83,27.625 A 0.3,0.3 0 0,0 22.07,27.64 L 22.09,27.77 C 21.9,27.79 21.77,27.85 21.68,27.95 C 21.55,28.1 21.4,28.14 21.22,28.06 C 21.03,27.98 20.94,27.86 20.95,27.71 A 0.2,0.2 0 0,1 21.07,27.52 A 0.21,0.21 0 0,1 21.29,27.52 C 21.6,27.69 21.79,27.73 21.84,27.64 Z" fill="rgb(239, 242, 248)"/>
<path d="M 17.439999999999998,28.025 C 17.12,27.98 16.95,27.96 16.93,27.97 C 16.36,28.17 16.37,28.32 16.97,28.4 C 17.68,28.5 18.03,28.76 18.03,29.21 C 18.03,29.33 17.97,29.39 17.85,29.39 L 16.45,29.34 C 16.31,29.34 16.25,29.26 16.25,29.13 L 16.27,27.63 C 16.34,27.97 16.57,28.08 16.97,27.98 A 0.58,0.58 0 0,1 17.45,28.04 Z" fill="rgb(171, 172, 170)"/>
<path d="M 22.09,27.755 C 22.72,27.75 23.1,28.01 23.24,28.54 C 23.26,28.59 23.28,28.62 23.34,28.63 C 23.38,28.64 23.42,28.63 23.46,28.6 L 23.92,28.13 C 24.01,28.05 24.09,28.05 24.16,28.15 A 0.4,0.4 0 0,1 24.23,28.53 C 24.2,28.65 24.12,28.7 23.99,28.7 C 23.78,28.7 23.59,28.76 23.43,28.88 C 23.3,28.97 23.2,28.95 23.13,28.82 A 3.78,3.78 0 0,0 22.09,27.77 Z M 21.5,31.58 A 0.26,0.26 0 0,0 21.43,31.64 A 2.91,2.91 0 0,0 20.51,31.55 C 20.42,31.56 20.38,31.61 20.37,31.7 C 20.37,31.92 20.28,32.06 20.12,32.13 C 19.87,32.23 19.62,32.17 19.35,31.97 C 19.35,31.93 19.4,31.87 19.48,31.79 L 20.08,31.58 C 20.22,31.53 20.23,31.47 20.11,31.38 L 20,31.3 A 0.27,0.27 0 0,1 19.88,31.07 V 28.58 A 0.4,0.4 0 0,1 20.02,28.28 A 0.52,0.52 0 0,1 20.41,28.12 C 20.49,28.12 20.56,28.16 20.61,28.22 C 20.66,28.3 20.67,28.37 20.64,28.45 C 20.49,28.93 20.48,29.34 20.63,29.67 C 20.8,30.05 21.15,30.23 21.69,30.19 C 21.79,30.18 21.86,30.23 21.87,30.34 C 21.92,30.78 21.8,31.19 21.49,31.58 Z M 26.65,28.3 L 26.41,28.58 C 26.32,28.69 26.23,28.69 26.14,28.58 L 26.08,28.5 C 25.98,28.38 26.01,28.3 26.14,28.24 L 26.48,28.08 C 26.55,28.05 26.61,28.06 26.65,28.12 C 26.7,28.18 26.7,28.24 26.65,28.3 Z" fill="rgb(239, 242, 248)"/>
<path d="M 31.81,28.415 L 32.06,28.4 C 32.36,28.34 32.56,28.34 32.66,28.39 C 32.99,28.53 32.98,28.62 32.62,28.67 C 32.37,28.71 32.1,28.67 31.81,28.53 C 31.69,28.48 31.69,28.45 31.82,28.43 Z M 36.96,28.52 C 37.06,28.59 37.08,28.7 37.02,28.83 C 36.58,28.93 36.17,28.96 35.8,28.91 C 35.16,28.83 35.14,28.67 35.74,28.45 C 35.99,28.35 36.39,28.38 36.96,28.52 Z" fill="rgb(0, 0, 3)"/>
<path d="M 25.11,29.095 C 25.44,29 25.65,28.78 25.6,28.64 C 25.54,28.49 25.24,28.47 24.92,28.59 C 24.6,28.71 24.39,28.92 24.45,29.07 C 24.5,29.21 24.8,29.23 25.12,29.11 Z" fill="rgb(239, 242, 248)"/>
<path d="M 22.29,28.825 C 22.4,28.92 22.52,28.94 22.58,28.87 C 22.63,28.81 22.6,28.69 22.5,28.61 C 22.4,28.52 22.27,28.51 22.22,28.57 C 22.16,28.64 22.2,28.75 22.3,28.84 Z" fill="rgb(171, 172, 170)"/>
<path d="M 39.7,28.705 C 39.71,28.8 39.69,28.85 39.65,28.87 C 38.99,29.09 38.68,29.07 38.71,28.81 C 38.88,28.51 39.21,28.47 39.71,28.71 Z" fill="rgb(101, 103, 102)"/>
<path d="M 21.77,29.655 C 21.81,29.77 21.78,29.82 21.68,29.85 L 21.48,29.91 A 0.51,0.51 0 0,1 21.07,29.86 A 0.57,0.57 0 0,1 20.79,29.52 L 20.74,29.34 A 0.56,0.56 0 0,1 20.77,28.9 A 0.51,0.51 0 0,1 21.09,28.63 L 21.29,28.57 C 21.39,28.54 21.44,28.57 21.47,28.67 L 21.78,29.67 Z" fill="rgb(239, 242, 248)"/>
<path d="M 38.7,28.785 C 38.68,29.07 38.99,29.1 39.65,28.87 L 39.62,29.04 A 0.2,0.2 0 0,1 39.45,29.21 L 38.25,29.51 L 38.71,28.81 Z" fill="rgb(171, 172, 170)"/>
<path d="M 26.349999999999998,28.915 C 26.38,28.9 26.4,28.89 26.43,28.91 C 26.56,28.95 26.65,29.04 26.7,29.17 C 26.75,29.27 26.72,29.34 26.63,29.4 A 0.3,0.3 0 0,1 26.46,29.44 C 26.36,29.43 26.31,29.38 26.3,29.29 A 0.56,0.56 0 0,1 26.36,28.93 Z" fill="rgb(239, 242, 248)"/>
<path d="M 30.549999999999997,28.935 C 30.65,29 30.66,29.03 30.62,29.05 C 30.57,29.28 30.53,29.52 30.5,29.81 C 30.5,29.86 30.43,29.91 30.3,29.95 C 30.29,29.87 30.3,29.82 30.33,29.82 C 30.33,29.45 30.41,29.16 30.56,28.95 Z" fill="rgb(70, 70, 69)"/>
<path d="M 24.169999999999998,30.515 L 24.15,30.6 A 0.12,0.12 0 0,1 24.03,30.7 C 23.53,30.7 22.99,30.81 22.42,31.02 A 0.22,0.22 0 0,1 22.29,31.02 C 22.05,30.98 21.96,30.92 22.02,30.84 A 8.7,8.7 0 0,0 25.6,29.58 A 0.1,0.1 0 0,1 25.64,29.64 C 25.65,29.66 25.64,29.68 25.63,29.7 C 25.23,30.03 24.79,30.26 24.32,30.4 A 0.2,0.2 0 0,0 24.18,30.53 Z M 18.6,30.31 A 0.63,0.63 0 0,1 18.49,30.01 C 18.49,29.94 18.51,29.88 18.57,29.84 L 18.78,29.69 C 18.89,29.62 18.95,29.65 18.96,29.79 L 19,31.04 C 19,31.22 18.93,31.27 18.77,31.18 C 18.67,31.12 18.59,31.05 18.51,30.97 C 18.46,30.9 18.45,30.83 18.49,30.75 L 18.59,30.58 A 0.23,0.23 0 0,0 18.59,30.31 Z M 17.72,29.74 L 16.45,29.76 C 16.21,29.76 16.03,29.96 16.03,30.19 L 16.05,31.39 C 16.05,31.61 16.25,31.79 16.48,31.79 L 17.76,31.77 C 17.99,31.77 18.18,31.57 18.17,31.35 L 18.15,30.15 C 18.15,29.92 17.95,29.73 17.72,29.74 Z M 37.8,30.06 C 37.73,30.22 37.77,30.4 37.9,30.45 C 38.01,30.5 38.17,30.41 38.24,30.25 S 38.27,29.92 38.15,29.87 C 38.03,29.81 37.87,29.9 37.8,30.07 Z" fill="rgb(239, 242, 248)"/>
<path d="M 26.34,30.365 L 26.5,30.58 C 26.56,30.67 26.56,30.75 26.49,30.82 L 26.39,30.92 C 26.3,31.01 26.22,31 26.16,30.88 A 0.52,0.52 0 0,1 26.12,30.41 C 26.18,30.26 26.26,30.25 26.35,30.38 Z" fill="rgb(101, 103, 102)"/>
<path d="M 32.43,31.064999999999998 L 32.41,32.6 C 32.07,32.62 31.81,32.87 31.63,33.35 C 31.56,33.27 31.48,33.25 31.37,33.31 A 0.76,0.76 0 0,1 31.31,32.69 A 0.75,0.75 0 0,0 31.36,32.42 C 31.36,32.28 31.36,32.09 31.33,31.85 C 31.29,31.5 31.3,31.25 31.34,31.08 C 31.41,30.83 31.59,30.59 31.89,30.38 C 31.95,30.33 32,30.34 32.06,30.38 C 32.12,30.44 32.13,30.51 32.1,30.58 L 31.97,30.86 C 31.91,30.98 31.95,31.04 32.08,31.06 L 32.44,31.08 Z" fill="rgb(70, 70, 69)"/>
<path d="M 32.4,32.585 L 32.44,31.08 C 32.58,30.92 32.72,30.87 32.84,30.92 C 32.94,30.95 33,31.02 33.02,31.12 C 33.19,31.81 33.32,32.43 33.42,32.99 C 33.43,33.07 33.39,33.11 33.3,33.1 A 1.22,1.22 0 0,1 32.41,32.6 Z" fill="rgb(239, 242, 248)"/>
<path d="M 19.56,31.085 C 19.53,31.06 19.54,31.03 19.6,31 A 0.12,0.12 0 0,1 19.72,31.02 C 19.76,31.05 19.76,31.09 19.72,31.12 C 19.68,31.17 19.62,31.16 19.57,31.11 Z M 26.3,32.77 C 26.06,32.9 25.9,33.13 25.82,33.49 A 0.35,0.35 0 0,1 25.69,33.69 A 0.55,0.55 0 0,0 25.49,34.31 C 25.52,34.43 25.47,34.51 25.37,34.56 A 0.53,0.53 0 0,1 24.96,34.58 C 24.81,34.53 24.79,34.45 24.9,34.33 C 25.1,34.12 25.13,33.85 24.98,33.53 C 24.89,33.34 24.78,33.32 24.63,33.46 C 24.51,33.56 24.42,33.73 24.35,33.96 A 4.73,4.73 0 0,1 24.2,31.93 C 24.23,31.73 24.29,31.72 24.36,31.91 L 24.71,32.76 C 24.74,32.83 24.79,32.88 24.86,32.91 H 24.96 C 25.04,32.87 25.07,32.81 25.07,32.73 V 31.53 H 25.06 A 7.2,7.2 0 0,1 24.98,31.59 C 24.96,31.61 24.94,31.6 24.93,31.57 A 1.7,1.7 0 0,0 24.65,31.1 C 24.56,31 24.58,30.97 24.71,31.01 A 0.5,0.5 0 0,1 25.01,31.26 C 25.14,31.47 25.31,31.62 25.55,31.7 C 25.63,31.73 25.7,31.79 25.75,31.86 L 26.3,32.77 Z M 24.26,34.02 C 24.3,34.31 24.14,34.58 23.77,34.82 C 23.46,35.03 23.27,35.23 23.21,35.44 A 0.98,0.98 0 0,1 22.85,34.78 A 0.26,0.26 0 0,0 22.71,34.58 A 1.24,1.24 0 0,0 21.91,34.48 A 0.2,0.2 0 0,1 21.73,34.42 A 0.19,0.19 0 0,1 21.68,34.23 L 21.84,33.6 C 21.86,33.52 21.84,33.48 21.76,33.46 L 21.66,33.43 C 21.54,33.4 21.46,33.44 21.41,33.56 C 21.27,33.88 21.26,34.11 21.38,34.24 C 21.15,34.2 21.01,34.29 20.95,34.52 C 21.03,34.07 21.01,33.63 20.89,33.19 A 8,8 0 0,1 20.71,32.61 A 0.41,0.41 0 0,1 20.7,32.43 C 20.72,32.33 20.73,32.26 20.75,32.25 C 21.03,32.09 21.13,32.17 21.05,32.48 C 20.94,32.95 21.12,33.23 21.6,33.32 C 21.78,33.35 21.92,33.29 22.01,33.13 L 22.61,32.11 C 22.69,31.97 22.74,31.98 22.74,32.14 V 33.17 C 22.74,33.31 22.81,33.38 22.95,33.38 H 23.08 C 23.15,33.38 23.18,33.35 23.19,33.28 L 23.31,32.18 C 23.32,32.08 23.31,32 23.25,31.92 C 23.09,31.65 22.99,31.42 22.97,31.22 C 22.97,31.09 23.02,31.02 23.14,31.01 L 23.25,30.99 C 23.4,30.97 23.45,31.03 23.42,31.17 C 23.38,31.34 23.36,31.5 23.36,31.68 C 23.36,31.82 23.38,31.98 23.46,32.17 C 23.59,32.53 23.71,32.99 23.8,33.53 C 23.86,33.86 24.01,34.03 24.26,34.02 Z" fill="rgb(171, 172, 170)"/>
<path d="M 21.49,31.564999999999998 C 21.64,31.81 21.69,32 21.64,32.17 C 21.61,32.25 21.57,32.27 21.5,32.2 C 21.4,32.13 21.38,31.94 21.43,31.64 A 0.26,0.26 0 0,1 21.49,31.58 Z" fill="rgb(171, 172, 170)"/>
<path d="M 31.009999999999998,34.675 C 31.38,35.02 31.82,35.26 32.35,35.42 C 32.62,35.5 32.7,35.67 32.57,35.92 L 32.53,36.01 C 32.41,36.23 32.23,36.31 31.99,36.23 L 31,35.91 A 0.52,0.52 0 0,1 30.69,35.66 C 30.48,35.26 30.49,34.89 30.73,34.54 A 0.17,0.17 0 0,0 30.73,34.34 C 30.3,33.59 29.94,32.79 29.67,31.94 C 29.63,31.81 29.67,31.74 29.82,31.74 C 30.11,31.74 30.4,31.69 30.7,31.59 C 30.83,31.54 30.89,31.59 30.88,31.73 L 30.87,31.91 C 30.82,32.48 30.85,32.91 30.96,33.17 C 31.22,33.82 31.64,34.27 32.23,34.51 C 32.42,34.59 32.49,34.73 32.46,34.93 L 32.44,35.05 C 32.41,35.21 32.32,35.25 32.17,35.18 L 31.07,34.63 C 30.91,34.55 30.9,34.57 31.02,34.69 Z" fill="rgb(239, 242, 248)"/>
<path d="M 19.47,31.785 C 19.4,31.87 19.36,31.93 19.35,31.97 L 18.34,32.04 C 18.24,32.04 18.19,32 18.19,31.9 C 18.19,31.86 18.21,31.82 18.24,31.79 A 0.2,0.2 0 0,1 18.36,31.73 C 18.72,31.68 19.09,31.7 19.48,31.79 Z M 17.08,32.63 C 17.12,32.97 17.32,33.23 17.54,33.21 C 17.76,33.18 17.91,32.89 17.87,32.55 C 17.83,32.21 17.63,31.95 17.41,31.98 C 17.19,32 17.04,32.29 17.08,32.63 Z" fill="rgb(171, 172, 170)"/>
<path d="M 18.529999999999998,33.845 C 18.56,34.28 18.44,34.41 18.19,34.24 A 0.36,0.36 0 0,0 17.98,34 A 0.25,0.25 0 0,0 17.71,34.05 A 0.24,0.24 0 0,0 17.64,34.31 C 17.66,34.41 17.61,34.56 17.49,34.77 C 17.55,34.31 17.25,34.08 16.59,34.1 L 16.99,33.99 C 17.15,33.94 17.17,33.87 17.02,33.78 C 16.94,33.72 16.84,33.72 16.74,33.78 A 0.2,0.2 0 0,1 16.52,33.78 A 0.2,0.2 0 0,1 16.42,33.58 L 16.4,32.22 C 16.4,32.15 16.43,32.12 16.5,32.1 C 16.57,32.08 16.63,32.09 16.67,32.13 A 0.2,0.2 0 0,1 16.73,32.33 C 16.63,32.73 16.7,33.07 16.92,33.35 C 16.99,33.45 17.09,33.48 17.2,33.45 C 17.44,33.39 17.61,33.45 17.73,33.61 C 17.77,33.68 17.81,33.67 17.84,33.59 C 17.84,33.57 17.86,33.55 17.89,33.54 H 17.95 C 18.12,33.69 18.32,33.79 18.55,33.86 Z M 18.11,33.3 L 17.9,32.71 C 17.84,32.57 17.9,32.51 18.04,32.51 H 18.47 C 18.55,32.51 18.6,32.55 18.62,32.63 L 18.76,33.33 C 18.77,33.38 18.76,33.43 18.71,33.47 A 0.15,0.15 0 0,1 18.56,33.5 L 18.21,33.39 A 0.16,0.16 0 0,1 18.11,33.29 Z" fill="rgb(171, 172, 170)"/>
<path d="M 19.95,35.185 L 18.34,35.5 A 0.79,0.79 0 0,1 18.07,34.88 A 0.8,0.8 0 0,1 18.16,34.58 A 0.52,0.52 0 0,0 18.19,34.24 C 18.44,34.41 18.56,34.28 18.54,33.86 C 18.66,34.05 18.66,34.23 18.54,34.4 C 18.48,34.49 18.48,34.56 18.56,34.64 L 18.62,34.7 C 18.66,34.74 18.7,34.74 18.74,34.7 C 18.99,34.48 19.04,34.18 18.91,33.81 A 0.23,0.23 0 0,1 18.94,33.58 C 18.99,33.51 19.06,33.48 19.15,33.48 C 19.29,33.5 19.43,33.52 19.56,33.56 C 19.74,33.61 19.79,33.56 19.71,33.39 C 19.65,33.27 19.55,33.22 19.43,33.24 C 19.33,33.24 19.26,33.2 19.23,33.1 A 2.9,2.9 0 0,1 19.17,32.83 C 19.15,32.66 19.22,32.59 19.38,32.61 C 19.66,32.63 19.91,32.73 20.15,32.89 C 20.25,32.96 20.28,33.05 20.26,33.16 A 0.4,0.4 0 0,1 20.02,33.48 C 19.94,33.51 19.91,33.57 19.92,33.65 C 19.92,33.73 19.95,33.85 19.98,33.98 C 20.04,34.2 20.06,34.38 20.04,34.51 L 19.96,35.2 Z M 20.95,34.52 L 20.79,34.58 A 0.4,0.4 0 0,0 20.76,34.44 C 20.72,34.34 20.66,34.32 20.57,34.37 C 20.48,34.42 20.41,34.41 20.34,34.33 A 0.3,0.3 0 0,1 20.27,34.11 C 20.29,33.96 20.33,33.82 20.4,33.69 C 20.46,33.57 20.54,33.56 20.64,33.64 C 20.66,33.65 20.68,33.66 20.71,33.65 C 20.77,33.64 20.81,33.6 20.82,33.54 L 20.88,33.19 C 21.01,33.63 21.03,34.07 20.95,34.52 Z" fill="rgb(101, 103, 102)"/>
<path d="M 31.619999999999997,33.335 C 31.89,33.45 32,33.56 31.97,33.7 A 0.2,0.2 0 0,1 31.85,33.86 A 0.21,0.21 0 0,1 31.64,33.85 C 31.34,33.66 31.24,33.48 31.37,33.31 C 31.47,33.26 31.57,33.27 31.63,33.35 Z" fill="rgb(239, 242, 248)"/>
<path d="M 23.189999999999998,35.425 C 23.64,36.61 23.91,37.82 24.03,39.07 C 24.03,39.11 24.01,39.13 23.97,39.14 C 23.92,39.14 23.9,39.12 23.9,39.08 C 23.92,38.66 23.88,38.35 23.78,38.15 C 23.65,37.87 23.38,37.72 23,37.7 C 22.9,37.7 22.8,37.67 22.7,37.62 L 21.5,37.03 A 0.26,0.26 0 0,1 21.35,36.83 A 6.8,6.8 0 0,1 21.38,34.24 C 21.26,34.11 21.27,33.88 21.41,33.56 C 21.46,33.44 21.54,33.4 21.67,33.43 L 21.76,33.46 C 21.83,33.48 21.86,33.52 21.84,33.6 L 21.68,34.23 C 21.66,34.3 21.68,34.37 21.73,34.42 A 0.2,0.2 0 0,0 21.91,34.48 C 22.22,34.43 22.49,34.46 22.71,34.58 C 22.79,34.62 22.84,34.68 22.85,34.78 A 1,1 0 0,0 23.21,35.44 Z" fill="rgb(0, 0, 3)"/>
<path d="M 22.77,34.055 L 22.34,34 C 22.24,33.98 22.2,33.93 22.2,33.84 V 33.62 C 22.2,33.49 22.25,33.46 22.36,33.52 L 23.32,34 C 23.46,34.08 23.46,34.14 23.3,34.2 A 0.34,0.34 0 0,1 23,34.16 A 0.57,0.57 0 0,0 22.78,34.07 Z" fill="rgb(101, 103, 102)"/>
<path d="M 33.050000000000004,34.055 L 33.16,33.67 C 33.2,33.53 33.23,33.53 33.26,33.67 A 0.77,0.77 0 0,1 33.09,34.25 C 32.99,34.39 32.87,34.43 32.72,34.35 C 32.59,34.29 32.59,34.25 32.75,34.23 H 32.86 C 32.96,34.22 33.03,34.17 33.06,34.07 Z M 34.69,34.32 C 34.64,34.38 34.65,34.44 34.69,34.49 C 34.69,34.56 34.66,34.61 34.57,34.63 L 34.43,34.56 C 34.49,34.49 34.5,34.42 34.46,34.36 A 0.74,0.74 0 0,0 34.44,34.54 C 34.35,34.62 34.31,34.52 34.29,34.24 C 34.35,34.14 34.49,34.17 34.69,34.32 Z" fill="rgb(171, 172, 170)"/>
<path d="M 34.42,34.545 L 34.44,34.54 C 34.44,34.48 34.44,34.41 34.46,34.35 C 34.5,34.42 34.49,34.49 34.43,34.56 Z" fill="rgb(0, 0, 3)"/>
<path d="M 17.729999999999997,35.225 C 17.9,35.42 17.94,35.64 17.85,35.87 A 4.5,4.5 0 0,1 17.39,36.8 C 17.06,37.3 17.19,37.9 17.78,38.6 C 17.83,38.66 17.83,38.72 17.8,38.79 C 17.76,38.86 17.7,38.89 17.63,38.89 L 16.55,38.81 C 16.4,38.81 16.35,38.73 16.39,38.59 A 22,22 0 0,0 17.07,35.07 C 17.1,34.8 17.22,34.75 17.43,34.93 L 17.73,35.23 Z M 32.88,35.44 A 0.07,0.07 0 0,1 32.8,35.44 A 0.07,0.07 0 0,1 32.77,35.37 A 0.37,0.37 0 0,1 32.97,35.07 C 33.06,35.03 33.09,35.06 33.07,35.15 A 0.41,0.41 0 0,1 32.88,35.45 Z M 31.24,37 C 31.53,37.12 31.83,37.04 31.91,36.82 C 32,36.6 31.84,36.34 31.55,36.22 C 31.27,36.12 30.97,36.2 30.88,36.42 C 30.8,36.63 30.96,36.9 31.24,37.01 Z" fill="rgb(239, 242, 248)"/>
<path d="M 30.639999999999997,37.065 C 30.7,37.03 30.75,37.03 30.8,37.08 C 30.86,37.12 30.86,37.18 30.8,37.23 L 30.67,37.36 C 30.57,37.46 30.52,37.44 30.55,37.3 A 0.43,0.43 0 0,1 30.65,37.08 Z" fill="rgb(171, 172, 170)"/>
<path d="M 37.27,37.394999999999996 A 0.5,0.5 0 0,1 37.54,37.31 C 37.67,37.31 37.73,37.36 37.73,37.48 L 37.75,39.26 C 37.75,39.36 37.7,39.4 37.61,39.36 L 37.49,39.33 C 37.39,39.29 37.35,39.23 37.36,39.12 L 37.41,38.85 C 37.53,38.19 37.48,37.76 37.27,37.55 C 37.21,37.5 37.22,37.45 37.27,37.41 Z" fill="rgb(0, 0, 3)"/>
<path d="M 32.230000000000004,37.525 A 0.1,0.1 0 0,1 32.16,37.48 A 0.1,0.1 0 0,1 32.17,37.38 A 0.09,0.09 0 0,1 32.27,37.34 C 32.33,37.35 32.36,37.39 32.35,37.45 C 32.35,37.53 32.31,37.55 32.24,37.54 Z M 36.02,38.49 C 35.92,38.75 35.95,39.01 36.11,39.07 C 36.26,39.13 36.47,38.97 36.57,38.71 C 36.67,38.45 36.64,38.19 36.49,38.13 C 36.34,38.06 36.13,38.23 36.02,38.49 Z M 30.95,39.06 L 30.54,38.66 C 30.39,38.51 30.41,38.46 30.62,38.53 C 30.8,38.59 30.98,38.67 31.14,38.78 C 31.24,38.85 31.25,38.92 31.19,39.01 A 0.19,0.19 0 0,1 31.11,39.09 C 31.05,39.12 30.99,39.11 30.95,39.06 Z M 31.92,39.11 C 32.07,39.04 32.14,38.9 32.09,38.81 C 32.04,38.71 31.89,38.71 31.74,38.78 C 31.59,38.86 31.51,39 31.56,39.09 C 31.61,39.19 31.77,39.19 31.92,39.11 Z M 31.05,39.5 C 31.15,39.43 31.27,39.42 31.39,39.48 C 31.49,39.52 31.49,39.56 31.39,39.62 A 0.41,0.41 0 0,1 31.07,39.67 A 0.09,0.09 0 0,1 31.01,39.59 C 31.01,39.56 31.01,39.53 31.05,39.5 Z M 37.01,41.23 C 36.76,41.23 36.53,41.17 36.31,41.05 C 36.19,40.99 36.19,40.92 36.31,40.85 L 36.51,40.74 C 36.64,40.67 36.76,40.68 36.87,40.78 C 37.2,41.07 37.58,41.23 38.03,41.27 A 0.6,0.6 0 0,1 38.47,41.48 C 38.59,41.61 38.56,41.68 38.38,41.68 C 37.93,41.68 37.56,41.56 37.26,41.32 A 0.38,0.38 0 0,0 37.01,41.22 Z M 31.34,40.99 L 30.27,40.76 A 0.21,0.21 0 0,0 30.02,40.92 V 40.97 A 0.2,0.2 0 0,0 30.17,41.22 L 31.24,41.45 C 31.36,41.47 31.47,41.4 31.5,41.29 V 41.24 A 0.21,0.21 0 0,0 31.34,40.99 Z" fill="rgb(239, 242, 248)"/>
</svg>
