<?xml version="1.0" encoding="UTF-8"?>
<!-- generated by Finnhub -->
<svg viewBox="0 0 55.5 55.5" xmlns="http://www.w3.org/2000/svg">
<path d="M 0,0 H 55.5 V 55.5 H 0 Z" fill="rgb(239, 242, 248)"/>
<path d="M 19.49,25.735 H 21.5 V 26.25 H 19.5 V 25.75 Z" fill="rgb(82, 148, 52)"/>
<path d="M 21.369999999999997,22.985 L 17.57,28 H 18.2 L 21.25,24 V 28 H 24 V 27.5 H 21.75 V 25.5 H 24 V 25 H 21.75 V 23.5 H 24 V 23 H 21.38 Z M 28,23.5 H 25 V 23 H 28 V 23.5 Z M 26.25,28 V 23.5 H 26.75 V 28 H 26.25 Z M 29.25,23 H 32 V 23.5 H 29.75 V 25 H 32 V 25.5 H 29.75 V 27.5 H 32 V 28 H 29.25 V 23 Z" fill="rgb(82, 148, 52)"/>
<path d="M 35.74,22.985 H 33.6 V 28 H 34.1 V 25.5 H 34.43 L 36.3,28 H 36.92 L 35.06,25.5 H 35.75 A 1.25,1.25 0 1,0 35.75,23 Z M 35.75,23.5 H 34.1 V 25 H 35.75 A 0.75,0.75 0 0,0 35.75,23.5 Z" fill="rgb(82, 148, 52)" fill-rule="evenodd"/>
<path d="M 38.440000000000005,27.985 V 23 H 38.71 L 42.25,27 V 23 H 42.75 V 28 H 42.47 L 38.95,24.02 V 28 H 38.45 Z" fill="rgb(82, 148, 52)"/>
<path d="M 46.65,22.985 H 46.34 L 43.96,28 H 44.52 L 45.35,26.25 H 47.65 L 48.5,28 H 49.05 L 46.67,23 Z M 47.41,25.75 L 46.5,23.83 L 45.59,25.75 H 47.41 Z" fill="rgb(82, 148, 52)" fill-rule="evenodd"/>
<path d="M 14.99,29.985 H 18 V 31 L 16.1,34 H 18 V 35 H 15 V 34 L 16.9,31 H 15 V 30 Z M 20,30 V 35 H 23 V 34 H 21 V 33 H 23 V 32 H 21 V 31 H 23 V 30 H 20 Z M 25,30 H 26 L 28,32.82 V 30 H 29 V 35 H 28 L 26,32.15 V 35 H 25 V 30 Z M 33,30 H 30 V 31 H 31 V 35 H 32 V 31 H 33 V 30 Z" fill="rgb(4, 172, 237)"/>
<path d="M 35.02,29.985 L 33.13,35 H 34.21 L 34.58,34 H 36.55 L 36.93,35 H 38 L 36.1,30 H 35.03 Z M 36.17,33 L 35.57,31.4 L 34.97,33 H 36.17 Z" fill="rgb(4, 172, 237)" fill-rule="evenodd"/>
<path d="M 40.99,29.985 H 39 V 35 H 40 V 33 H 40.48 L 41.54,35 H 42.67 L 41.55,32.9 A 1.5,1.5 0 0,0 41,30 Z M 41,32 H 40 V 31 H 41 A 0.5,0.5 0 0,1 41,32 Z M 44,30 H 45 V 35 H 44 Z M 49.2,30.55 C 48.58,29.84 47.75,29.63 47.07,29.94 C 46.33,30.27 45.99,31.13 46.45,31.94 C 46.67,32.32 47,32.62 47.31,32.86 L 47.66,33.13 L 48.16,33.53 C 48.4,33.74 48.36,34.06 48.13,34.23 A 0.48,0.48 0 0,1 47.72,34.28 C 47.52,34.23 47.23,34.08 46.9,33.66 L 46.1,34.22 C 46.52,34.75 46.98,35.08 47.45,35.2 C 47.95,35.32 48.4,35.22 48.75,34.97 C 49.39,34.5 49.6,33.5 48.85,32.84 L 48.23,32.34 L 47.95,32.14 C 47.66,31.91 47.45,31.71 47.34,31.5 C 47.14,31.14 47.3,30.88 47.5,30.8 C 47.67,30.72 48.05,30.69 48.46,31.18 L 49.21,30.55 Z" fill="rgb(4, 172, 237)"/>
<path d="M 12.19,28.985 C 14.31,28.1 16.5,25.5 16.5,23.5 C 16.5,21.73 14.86,20.3 13,21.3 C 12.36,21.65 11.97,22.15 11.75,22.85 C 11.48,23.72 11.52,24.98 11.59,26.26 C 11.77,27.64 11.78,29.36 11.58,31 A 8.85,8.85 0 0,1 11.16,32.84 C 10.59,34.48 9.29,35.98 7.38,35.64 C 6.29,35.46 5.41,34.63 5.54,33.16 C 5.61,32.3 6.05,31.41 6.74,30.76 A 5.56,5.56 0 0,1 10,29.4 A 4.88,4.88 0 0,0 7.3,31.5 C 6.77,32.45 6.65,33.45 7.15,34.06 C 8.05,35.15 9.58,34.49 10.2,33.46 C 10.84,32.4 11,31.22 11,30 C 11,27.65 9.9,25.2 10.34,22.85 C 10.6,21.48 11.55,19.7 13.35,19.35 C 16.5,18.75 18.81,22.22 17.25,25 A 7.6,7.6 0 0,1 15.55,27.16 A 10.09,10.09 0 0,1 12.2,29 Z" fill="rgb(82, 148, 52)"/>
<path d="M 6.74,30.745 A 5.56,5.56 0 0,1 10,29.4 A 4.88,4.88 0 0,0 7.3,31.5 C 7.05,31.95 6.89,32.41 6.85,32.84 C 6.8,33.31 6.89,33.74 7.15,34.06 C 7.27,34.21 7.4,34.32 7.54,34.4 C 7.54,34.4 5.5,33.5 5.81,32.1 C 6.01,31.61 6.34,31.14 6.75,30.76 Z M 12.2,29 C 14.32,28.1 16.5,25.5 16.5,23.5 C 16.5,22.47 15.95,21.56 15.13,21.17 C 14.41,20.83 13.69,20.99 13,21.31 C 13,21.31 14.5,19.5 17.3,21.31 C 17.87,22.4 17.95,23.77 17.26,25 A 7.6,7.6 0 0,1 15.55,27.16 A 10.09,10.09 0 0,1 12.2,29 Z" fill="rgb(4, 172, 237)"/>
</svg>
