<?xml version="1.0" encoding="UTF-8"?>
<!-- generated by Finnhub -->
<svg viewBox="0 0 55.5 55.5" xmlns="http://www.w3.org/2000/svg">
<path d="M 0,0 H 55.5 V 55.5 H 0 Z" fill="rgb(239, 242, 248)"/>
<path d="M 26.99,42.985 V 29 H 13 A 14,14 0 0,0 27,43 Z M 25.62,41.54 V 30.38 H 14.46 A 12.62,12.62 0 0,0 25.62,41.54 Z M 27,13 V 27 H 13 A 14,14 0 0,1 27,13 Z M 25.62,14.46 V 25.62 H 14.46 A 12.62,12.62 0 0,1 25.62,14.46 Z M 43,13 V 27 H 29 A 14,14 0 0,1 43,13 Z M 41.62,14.46 V 25.62 H 30.46 A 12.62,12.62 0 0,1 41.62,14.46 Z M 29,43 V 29 H 43 A 14,14 0 0,1 29,43 Z M 30.38,41.54 V 30.38 H 41.54 A 12.62,12.62 0 0,1 30.38,41.54 Z" fill="rgb(23, 46, 59)" fill-rule="evenodd"/>
</svg>
