<?xml version="1.0" encoding="UTF-8"?>
<!-- generated by Finnhub -->
<svg viewBox="0 0 55.5 55.5" xmlns="http://www.w3.org/2000/svg">
<path d="M0 0h55.5v55.5H0z" fill="rgb(239, 242, 248)"/>
<path d="M42 34V22h2v10h5v2h-7ZM40 28c0 1.26-.24 2.34-.72 3.23a5.06 5.06 0 0 1-1.97 2.06c-.82.47-1.76.71-2.81.71a5.15 5.15 0 0 1-4.78-2.77A6.77 6.77 0 0 1 29 28c0-1.26.24-2.33.72-3.23a5.1 5.1 0 0 1 1.96-2.06A5.57 5.57 0 0 1 34.5 22c1.05 0 1.99.24 2.81.71a5.05 5.05 0 0 1 1.97 2.06c.48.9.72 1.97.72 3.23Zm-2 0c0-2.04-1.22-4.1-3.5-4.1-2.29 0-3.5 2.05-3.5 4.1s1.2 4.1 3.5 4.1c2.29 0 3.5-2.05 3.5-4.1ZM24.8 25.37c-.06-.5-.28-.89-.68-1.17a2.6 2.6 0 0 0-1.53-.41c-.94 0-2.2.41-2.22 1.52 0 .75.72 1.17 1.37 1.4.24.08.47.15.71.2l1.1.28c.45.1.87.24 1.28.41.41.18.78.4 1.1.66A2.88 2.88 0 0 1 27 30.54a3.15 3.15 0 0 1-2.04 3.03c-.66.29-1.46.43-2.4.43-.91 0-1.7-.14-2.37-.42-.67-.28-1.2-.7-1.57-1.23a3.63 3.63 0 0 1-.61-1.97h2.09c.03.4.16.74.38 1.01a2 2 0 0 0 .86.6c.36.14.76.2 1.2.2 1.02 0 2.46-.45 2.47-1.66-.01-1.06-1.4-1.4-2.23-1.62l-1.33-.34a5.38 5.38 0 0 1-2.3-1.12 2.58 2.58 0 0 1-.83-2.01 3 3 0 0 1 .56-1.8c.38-.52.9-.92 1.54-1.2a5.37 5.37 0 0 1 2.2-.44c.84 0 1.57.14 2.2.43.62.29 1.12.68 1.47 1.2.36.5.55 1.08.56 1.74H24.8ZM16.52 26h-2.07c-.25-1.4-1.58-2.1-2.95-2.1C9.23 23.9 8 25.96 8 28c0 2.05 1.2 4.1 3.5 4.1 1.33 0 2.69-.73 2.95-2.1h2.07a4.63 4.63 0 0 1-3.11 3.7c-.58.2-1.23.3-1.94.3a5.52 5.52 0 0 1-2.81-.71 5.02 5.02 0 0 1-1.95-2.06A6.82 6.82 0 0 1 6 28c0-1.26.24-2.33.72-3.23a5.06 5.06 0 0 1 1.95-2.06 6.06 6.06 0 0 1 4.65-.44 4.63 4.63 0 0 1 3.2 3.73Z"/>
</svg>
