<?xml version="1.0" encoding="UTF-8"?>
<!-- generated by Finnhub -->
<svg viewBox="0 0 55.5 55.5" xmlns="http://www.w3.org/2000/svg">
<rect width="56" height="56" fill="rgb(239, 242, 248)"/>
<path d="M 10.338000000000001,22.198999999999998 C 10.5833,21.4395 11.1128,19.6967 10.2581,19.5898 C 9.1571,19.4521 6.1767,22.0094 6.1767,26.1209 C 6.13241,26.9799 6.44247,28.698 8.0371,28.698 S 11.1061,26.757 11.6439,25.7865 C 11.3528,27.1898 10.0797,29.9963 7.3157,29.9963 C 6.5437,30.0488 4.9997,29.4927 4.9997,26.8488 C 4.9997,23.5439 7.4296,18.9996 10.8846,18.9996 C 11.3149,19.0127 12.1755,19.2789 12.1755,20.2389 C 12.1755,21.4389 10.3341,24.7635 9.3279,24.7635 C 9.18869,24.6783 8.95203,24.3465 9.11908,23.7012 C 9.3279,22.8947 9.63159,22.5799 10.2581,22.5799 C 10.2369,22.5799 10.2802,22.4372 10.348,22.214 Z M 21.25,25.257 V 23.9996 L 20.8896,24.1887 C 20.7969,24.1257 20.5189,23.9996 20.1482,23.9996 C 19.6849,23.9996 18.3051,24.3778 18.3051,26.2213 C 18.3188,26.8138 18.6593,27.9987 19.9114,27.9987 C 20.2683,28.0145 21.077,27.8248 21.4559,26.9399 H 21.3221 C 21.2431,27.1132 20.9287,27.4598 20.3027,27.4598 C 19.5201,27.4598 19.1906,26.713 19.1906,25.8243 S 19.5613,24.3872 20.1482,24.3872 S 20.9514,24.9261 21.0029,25.257 H 21.25 Z M 17.7585,23.9996 C 17.4565,24.3083 16.6633,24.3855 16.3044,24.3855 V 24.5411 C 16.6626,24.5925 16.9234,24.7445 17.0001,24.8141 V 27.5214 C 17.0001,27.704 16.5304,27.8199 16.3044,27.8551 V 27.8586 C 16.0035,27.8348 15.876,27.6877 15.8493,27.6109 V 24.9146 C 15.8493,24.202 15.285,24.0077 15.0029,23.9996 C 14.4932,23.9996 14.0608,24.2946 13.7792,24.5768 V 21.9996 C 13.4772,22.3253 12.684,22.4067 12.3251,22.4067 V 22.5709 C 12.6833,22.6251 12.9263,22.7854 13.0031,22.8588 V 27.4951 C 13.0031,27.6878 12.5511,27.8101 12.3251,27.8472 V 27.9996 H 14.3906 V 27.8472 C 13.9926,27.8472 13.8172,27.6125 13.7792,27.4951 V 24.9617 C 13.9482,24.7635 14.1729,24.5907 14.427,24.5907 C 14.8737,24.5907 14.9971,24.9362 15.0029,25.1089 V 27.5381 C 15.0029,27.7324 14.712,27.835 14.5666,27.8619 V 27.9996 H 18.3698 V 27.8551 C 17.9719,27.8551 17.7964,27.6326 17.7585,27.5214 V 23.9996 Z M 28.5585,24.3826 C 28.9173,24.3826 29.698,24.306 30,23.9996 V 24.5694 C 30.2814,24.3094 30.6903,24.0557 31.1669,24.0557 C 31.449,24.0636 32,24.2549 32,24.9561 V 27.6094 C 32.0291,27.6917 32.1914,27.8564 32.5544,27.8564 V 27.9918 H 30.7306 V 27.8564 C 30.876,27.8298 31.1669,27.7289 31.1669,27.5376 V 25.1473 C 31.1611,24.9773 31.0378,24.6373 30.591,24.6373 C 30.3644,24.6373 30.1612,24.7725 30,24.9401 V 27.525 C 30.038,27.6354 30.226,27.8562 30.6239,27.8562 V 27.9996 H 28.5585 V 27.8562 C 28.7844,27.8213 29.2364,27.7062 29.2364,27.525 V 24.808 C 29.1597,24.7389 28.9167,24.588 28.5585,24.5371 V 24.3826 Z M 17.3365,23.2412 C 17.6436,23.2412 17.8926,22.9832 17.8926,22.665 C 17.8926,22.3467 17.6436,22.0888 17.3365,22.0888 S 16.7805,22.3467 16.7805,22.665 C 16.7805,22.9832 17.0294,23.2412 17.3365,23.2412 Z M 21.3409,22.4067 C 21.6998,22.4067 22.493,22.3253 22.795,21.9996 V 25.56 H 22.9381 L 24.0398,24.2842 L 23.5353,23.9996 H 25.121 L 24.4517,24.3627 L 23.5353,25.5011 C 23.6692,25.5011 23.9884,25.6287 24.1943,26.139 C 24.2377,26.2466 24.2784,26.3694 24.3206,26.4964 C 24.5283,27.1226 24.7692,27.8487 25.5226,27.3265 C 25.4483,27.5509 25.1705,27.9996 24.6535,27.9996 C 24.4689,27.9923 24.0562,27.8272 23.8827,27.2254 L 23.8618,27.1527 C 23.6639,26.4634 23.5455,26.0511 22.795,26.0297 V 27.4951 C 22.833,27.6125 23.0084,27.8472 23.4063,27.8472 V 27.9996 H 21.3409 V 27.8472 C 21.5669,27.8101 21.9995,27.6878 21.9995,27.4951 V 22.8588 C 21.9228,22.7854 21.6991,22.6251 21.3409,22.5709 V 22.4067 Z M 28.725,25.9996 H 26.5214 C 26.5214,26.6282 26.5214,27.4663 27.5099,27.4663 C 28.3007,27.4663 28.6975,27.0536 28.797,26.8472 C 28.773,27.2314 28.4325,27.9996 27.2628,27.9996 C 25.8006,27.9996 25.5947,26.6472 25.5947,26.1615 S 25.7697,23.9996 27.3349,23.9996 C 28.587,23.9996 28.7833,25.3869 28.725,25.9996 Z M 27.8085,25.4091 H 26.4905 C 26.4562,25.0694 26.5461,24.3901 27.1804,24.3901 S 27.8634,25.0694 27.8085,25.4091 Z" clip-rule="evenodd" fill="rgb(29, 56, 121)" fill-rule="evenodd"/>
<path d="M 38.56,34.985 C 38.047,35.2735 37.001,36.0179 37.001,36.8077 C 36.9805,37.2051 37.3197,37.9999 38.8397,37.9999 C 40.7397,37.9999 42.3211,36.6025 42.3211,35.4487 C 42.3211,34.8856 41.8334,34.185 41.3341,33.4677 C 40.8104,32.7154 40.2739,31.9448 40.2739,31.2951 C 40.2739,30.0259 41.6346,29.5259 42.1862,29.5259 S 43.2037,29.9874 43.2037,30.6413 C 43.2037,31.1643 42.8032,31.5942 42.603,31.7438 C 43.1546,31.6754 44.2579,31.2207 44.2579,29.949 C 44.2579,28.3593 41.8307,29.1285 40.8378,29.6669 C 39.8449,30.2054 39.0113,30.9874 39.0113,31.9489 C 39.0113,32.4045 39.4792,33.0975 39.9715,33.8269 C 40.5183,34.6368 41.0952,35.4915 41.0952,36.1154 C 41.0952,37.3011 40.0655,37.4999 39.5384,37.4999 S 38.0919,37.0641 38.0919,36.2564 C 38.0919,35.6103 38.4107,35.1496 38.57,35 Z M 49.947,30.407 C 50.3037,30.407 51.0921,30.3256 51.3922,29.9999 V 35.4954 C 51.43,35.6128 51.6044,35.8475 51.9999,35.8475 V 35.9999 H 49.947 V 35.8475 C 50.1716,35.8104 50.6209,35.6881 50.6209,35.4954 V 30.8591 C 50.5446,30.7857 50.3031,30.6254 49.947,30.5712 V 30.407 Z M 44.2612,35.9778 C 45.1699,36.1405 46.105,35.3868 46.3497,34.2944 S 46.0561,32.1846 45.1474,32.022 C 44.2387,31.8593 43.3036,32.613 43.0589,33.7054 S 43.3525,35.8152 44.2612,35.9778 Z M 44.8428,35.4255 C 45.429,35.4051 45.8423,34.7502 45.7658,33.9629 C 45.6893,33.1755 45.152,32.5539 44.5658,32.5743 C 43.9795,32.5948 43.5663,33.2496 43.6428,34.0369 C 43.7193,34.8243 44.2566,35.446 44.8428,35.4255 Z M 47.7807,31.9999 C 47.3699,32.179 46.619,32.2102 46.2949,32.2035 L 46.9999,32.519 V 34.8803 C 46.9999,35.1551 47.005,35.9999 47.7807,35.9999 C 48.2118,35.9999 48.6679,35.6953 48.9929,35.4035 C 49.0174,35.6765 49.1217,35.9681 49.4139,35.9681 C 49.8259,35.9681 50.3017,35.6283 50.4358,35.4584 C 50.056,35.5544 49.8269,35.3035 49.7599,35.1661 V 32.0177 C 49.4831,32.1916 48.7193,32.2151 48.4243,32.2051 L 48.9955,32.5424 V 34.9197 C 48.7641,35.193 48.4799,35.4503 48.2504,35.4503 C 47.8834,35.4503 47.7843,35.0703 47.7807,34.8803 V 31.9999 Z" clip-rule="evenodd" fill="rgb(29, 56, 121)" fill-rule="evenodd"/>
<path d="M 35.012,25.985 C 34.4937,26.2735 33.4372,27.0179 33.4372,27.8076 C 33.4165,28.2051 33.7591,28.9999 35.2944,28.9999 C 37.2135,28.9999 38.8107,27.6025 38.8107,26.4487 C 38.8107,25.8856 38.3181,25.185 37.8138,24.4677 C 37.2849,23.7154 36.743,22.9448 36.743,22.2951 C 36.743,21.0259 38.1174,20.5259 38.6745,20.5259 C 39.2317,20.5259 39.7022,20.9874 39.7022,21.6413 C 39.7022,22.1643 39.2977,22.5942 39.0955,22.7438 C 39.6527,22.6754 40.767,22.2207 40.767,20.949 C 40.767,19.3593 38.3155,20.1285 37.3126,20.6669 C 36.3097,21.2054 35.4677,21.9874 35.4677,22.9489 C 35.4677,23.4045 35.9403,24.0975 36.4376,24.8269 C 36.9898,25.6368 37.5726,26.4915 37.5726,27.1154 C 37.5726,28.3011 36.5325,28.4999 36.0001,28.4999 S 34.5391,28.0641 34.5391,27.2564 C 34.5391,26.6103 34.861,26.1496 35.022,26 Z M 42.3834,26.2944 C 42.1363,27.3868 41.1918,28.1405 40.274,27.9778 C 39.3562,27.8152 38.8125,26.7978 39.0596,25.7054 C 39.3068,24.613 40.2512,23.8593 41.1691,24.022 C 42.0869,24.1846 42.6306,25.202 42.3834,26.2944 Z M 41.7937,25.9629 C 41.8709,26.7502 41.4535,27.405 40.8614,27.4255 C 40.2693,27.4459 39.7266,26.8243 39.6494,26.0369 C 39.5721,25.2496 39.9895,24.5948 40.5816,24.5743 C 41.1738,24.5538 41.7164,25.1755 41.7937,25.9629 Z M 42.4735,24.2035 C 42.8009,24.2102 43.5851,24.179 44,23.9999 V 26.8803 C 44.0037,27.0703 44.0779,27.4503 44.4487,27.4503 C 44.6762,27.4503 44.957,27.2023 45.1884,26.9347 V 24.5312 L 44.6115,24.1896 C 44.9094,24.1998 45.7205,24.176 46,23.9999 V 27.1878 C 46.0677,27.3269 46.2596,27.5809 46.6431,27.4838 C 46.5077,27.6558 46.0271,27.9999 45.611,27.9999 C 45.3115,27.9999 45.2074,27.6957 45.1847,27.4158 C 44.8574,27.7038 44.4036,27.9999 43.9742,27.9999 C 43.1908,27.9999 43.1356,27.1551 43.1356,26.8803 V 24.519 L 42.4735,24.2035 Z M 48,23.9999 C 47.6968,24.3231 46.919,24.4039 46.5587,24.4039 V 24.5669 C 46.9183,24.6207 47.1623,24.7798 47.2393,24.8526 V 29.4992 C 47.2393,29.6904 46.7856,29.8118 46.5588,29.8486 V 29.9999 H 48.6322 V 29.8486 C 48.2328,29.8486 48.0381,29.6157 48,29.4992 V 27.7539 C 48.203,27.8882 48.511,27.9999 48.9523,27.9999 C 49.989,27.9999 50.5829,27.3412 50.5829,25.7565 C 50.5829,24.1717 49.7838,23.9999 49.2439,23.9999 C 48.8529,23.9999 48.2969,24.417 48,24.6849 V 23.9999 Z M 48.8875,27.6562 C 48.3824,27.6562 48.0986,27.2834 48,27.0568 V 25.4307 C 48.1557,25.0536 48.4603,24.5727 48.8875,24.5727 C 49.5462,24.5727 49.7514,25.1455 49.7514,26.062 C 49.7514,26.9784 49.5678,27.6562 48.8875,27.6562 Z" clip-rule="evenodd" fill="rgb(29, 56, 121)" fill-rule="evenodd"/>
<path d="M 28.508999999999997,29.293 C 19.8526,29.308 4,30.8026 4,31.4997 C 10.9562,30.1141 30.633,30.8026 31.83,30.8026 C 32.7874,30.8026 33.009,30.2819 33.0001,30.0215 C 33.0001,29.2509 30.0128,29.2248 28.5191,29.308 Z" fill="rgb(1, 7, 66)"/>
<path d="M 28.508999999999997,29.017 C 19.8526,29.032 4.468,30.5265 4,31.2236 C 10.9562,29.838 30.633,30.5265 31.83,30.5265 C 32.7874,30.5265 33.009,30.0058 33.0001,29.7454 C 33.0001,28.9748 30.0128,28.9487 28.5191,29.032 Z" fill="rgb(5, 137, 198)"/>
<rect x="29" y="32" width="9" height="2" fill="rgb(29, 56, 121)" opacity=".5"/>
</svg>
