<?xml version="1.0" encoding="UTF-8"?>
<!-- generated by Finnhub -->
<svg viewBox="0 0 55.5 55.5" xmlns="http://www.w3.org/2000/svg">
<path d="M 0,0 H 55.5 V 55.5 H 0 Z" fill="rgb(190, 210, 195)"/>
<path d="M 15.895,24.009999999999998 C 15.479,24.113 15.108,24.391 14.847,24.745 C 14.751,24.876 14.611,25.127 14.555,25.267 C 14.541,25.302 14.411,25.575 14.267,25.873 C 14.122,26.17 13.945,26.54 13.873,26.695 C 13.801,26.848 13.716,27.025 13.684,27.087 L 13.624,27.197 L 13.61,27.115 C 13.581,26.941 13.5,26.848 13.357,26.816 C 13.252,26.794 12.403,26.913 12.337,26.962 C 12.3,26.988 12.263,27.062 12.191,27.255 C 12.111,27.474 12.1,27.524 12.113,27.58 C 12.146,27.7 12.183,27.71 12.723,27.774 L 13.211,27.83 L 13.174,27.87 A 0.762,0.762 0 0,0 13.094,27.99 C 12.999,28.172 12.997,28.207 12.997,29.936 V 30.148 C 12.997,31.473 12.997,31.635 13.075,31.738 C 13.085,31.753 13.098,31.767 13.112,31.782 L 13.128,31.799 A 0.891,0.891 0 0,0 13.396,32 H 13.976 L 14.096,32.003 C 14.427,32.011 14.815,32.022 15,31.708 V 30 H 20 V 31.083 C 19.997,31.423 19.993,31.825 20.25,31.939 C 20.334,31.977 20.376,31.994 20.92,32 C 21.597,32.008 21.648,31.982 21.805,31.848 L 21.807,31.846 C 21.979,31.698 21.987,31.692 22,30.868 V 29.168 C 21.98,28.102 21.969,28.086 21.85,27.918 L 21.848,27.916 C 21.817,27.871 21.798,27.832 21.805,27.83 C 21.813,27.828 22.031,27.8 22.288,27.77 C 22.547,27.74 22.777,27.705 22.798,27.692 A 0.193,0.193 0 0,0 22.88,27.535 C 22.88,27.511 22.84,27.375 22.79,27.236 C 22.726,27.059 22.687,26.973 22.658,26.954 C 22.609,26.924 21.854,26.814 21.698,26.812 A 0.305,0.305 0 0,0 21.528,26.854 A 0.355,0.355 0 0,0 21.381,27.098 A 0.15,0.15 0 0,1 21.365,27.165 C 21.348,27.193 21.313,27.128 21.163,26.798 C 21.108,26.68 20.947,26.338 20.801,26.042 A 62.607,62.607 0 0,1 20.425,25.252 C 20.122,24.582 19.688,24.026 19.053,24 H 17.483 C 16.348,23.996 16.049,23.995 15.905,24.025 Z M 18.56,26 L 19.502,28 H 15.487 C 15.773,27.441 16.634,26.002 16.634,26.002 L 17.596,26 H 18.56 Z M 24.055,24.33 A 0.574,0.574 0 0,1 24.348,24.036 C 24.435,23.997 24.594,23.997 27.623,24.003 L 30.408,24 C 30.58,24 30.766,24.031 30.868,24.17 C 31.005,24.354 31.003,24.593 31,24.845 V 25 C 31.007,25.507 30.996,25.524 30.925,25.625 L 30.91,25.645 C 30.881,25.688 30.026,26.714 28.951,27.893 L 26.998,29.998 L 28.825,30 H 30.651 C 30.807,29.998 31.004,30.204 31.004,30.41 V 31 L 31.005,31.112 C 31.011,31.422 31.02,31.866 30.711,32 L 27.516,31.996 L 24.322,32 A 0.481,0.481 0 0,1 24.119,31.804 A 0.86,0.86 0 0,1 24.002,31.344 V 31 C 24.002,30.406 24.006,30.395 24.094,30.267 C 24.121,30.229 25.014,29.237 26.084,28.063 L 28,26 H 24.396 L 24.316,25.949 C 24.201,25.891 24.081,25.672 24.046,25.559 C 24.022,25.485 24,25.352 24,24.947 C 24,24.475 24.02,24.419 24.055,24.329 Z M 36.64,24.011 A 4.12,4.12 0 0,0 34.815,24.641 A 4.013,4.013 0 0,0 33.036,27.387 A 5,5 0 0,0 33.047,28.673 C 33.151,29.26 33.342,29.739 33.667,30.227 A 3.987,3.987 0 0,0 36.329,31.953 C 36.649,32.011 37.303,32.016 37.615,31.963 C 38.047,31.893 38.443,31.763 38.819,31.571 C 39.978,30.984 40.765,29.887 40.968,28.581 C 41.011,28.299 41.011,27.701 40.968,27.419 A 3.945,3.945 0 0,0 39.831,25.171 A 3.93,3.93 0 0,0 37.593,24.039 A 5.061,5.061 0 0,0 36.64,24.011 Z M 37.467,26.051 A 2.03,2.03 0 0,1 38.949,27.535 C 39.011,27.764 39.019,28.135 38.966,28.382 C 38.885,28.772 38.726,29.084 38.455,29.369 A 1.982,1.982 0 0,1 35.979,29.722 A 1.992,1.992 0 0,1 35.19,27.15 C 35.3,26.917 35.4,26.778 35.611,26.572 C 35.901,26.287 36.203,26.123 36.601,26.037 C 36.834,25.988 37.247,25.994 37.467,26.052 Z M 46.737,24.004 A 4.007,4.007 0 0,0 43.018,27.537 C 42.99,27.77 42.996,28.272 43.028,28.523 A 4.01,4.01 0 0,0 45.009,31.475 A 4.03,4.03 0 0,0 48.756,31.597 A 3.997,3.997 0 0,0 50.972,28.54 A 5.82,5.82 0 0,0 50.982,27.518 A 3.999,3.999 0 0,0 47.584,24.041 A 5.922,5.922 0 0,0 46.737,24.004 Z M 47.34,26.027 C 48.33,26.2 49.055,27.098 49.002,28.09 A 2.015,2.015 0 0,1 47.877,29.797 A 1.996,1.996 0 0,1 45.197,28.861 A 1.956,1.956 0 0,1 44.997,27.876 A 2.029,2.029 0 0,1 46.375,26.1 A 2.03,2.03 0 0,1 47.34,26.027 Z M 5.215,26.713 C 5.721,25.245 7.09,24.213 8.793,24.013 C 8.873,24.003 9.142,23.997 9.387,24.001 C 9.737,24.005 9.886,24.014 10.068,24.046 C 10.394,24.102 10.709,24.185 10.974,24.286 C 11.418,24.454 11.587,24.557 11.647,24.698 A 0.5,0.5 0 0,1 11.655,24.995 A 23.99,23.99 0 0,1 10.869,26.105 A 0.324,0.324 0 0,1 10.619,26.205 C 10.411,26.205 10.213,26.152 10.009,26.098 C 9.797,26.041 9.579,25.983 9.339,25.982 C 7.949,25.982 7.017,26.988 7,27.988 C 6.982,29.008 7.908,30.022 9.387,29.994 C 9.595,29.99 9.801,29.946 10.003,29.902 C 10.239,29.852 10.47,29.802 10.691,29.819 A 0.379,0.379 0 0,1 10.845,29.864 C 10.902,29.904 11.583,30.851 11.638,30.967 A 0.44,0.44 0 0,1 11.649,31.282 C 11.599,31.394 11.525,31.456 11.317,31.553 C 9.807,32.271 7.96,32.113 6.632,31.158 A 3.895,3.895 0 0,1 5.215,26.713 Z" clip-rule="evenodd" fill="rgb(222, 77, 58)" fill-rule="evenodd"/>
</svg>
