<!-- by Finnhub --><svg xmlns="http://www.w3.org/2000/svg" width="56" height="56" viewBox="0 0 56 56"><path fill="#F0F3FA" d="M0 0h56v56H0z"/><path fill-rule="evenodd" d="M17 25v-3h1.24c.42 0 .76.38.76.86v1.28c0 .48-.34.86-.76.86H17zm.57-.58v-1.84h.53c.18 0 .33.23.33.52v.8c0 .29-.15.52-.33.52h-.53zM20.5 22H20v3h.5v-3zm4.01 0h.5v3h-.5v-3zm-3.06 1.84v-.68c0-.64.45-1.16 1-1.16.38 0 .72.26.88.65l-.47.22c-.08-.18-.23-.3-.42-.3-.25 0-.45.23-.45.53v.8c0 .3.2.54.45.54s.46-.24.46-.54v-.07h-.4v-.52h.93v.53c0 .64-.44 1.16-.99 1.16-.54 0-.99-.52-.99-1.16zM26.72 22H26v.61h.72V25h.56v-2.39H28V22h-1.28zm2.53 0l-.89 3h.56l.17-.62h.83l.16.62h.55l-.86-3h-.52zm.53 1.86h-.55l.28-1 .27 1zM32 22h-.5v3h1.48v-.5H32V22zM17 32.84v-.68c0-.64.45-1.16 1-1.16.4 0 .73.26.9.65l-.48.22c-.07-.18-.23-.3-.42-.3-.26 0-.46.23-.46.53v.8c0 .3.2.54.46.54s.46-.24.46-.54v-.07h-.4v-.52H19v.53c0 .64-.45 1.16-1 1.16s-1-.52-1-1.16zm6-.68v.68c0 .64.45 1.16 1 1.16s1-.52 1-1.16v-.68c0-.64-.45-1.16-1-1.16s-1 .52-1 1.16zm.54-.06v.8c0 .3.2.54.46.54s.46-.24.46-.54v-.8c0-.3-.2-.54-.46-.54s-.46.24-.46.54zm6.69-1.1H29v3h.59v-1h.64c.42 0 .77-.45.77-1s-.35-1-.77-1zm-.14.57h-.49v.77h.49c.17 0 .3-.17.3-.38s-.13-.39-.3-.39zm-8.9-.57H20v3h.57v-1.25h.32l.5 1.24H22l-.54-1.3a.88.88 0 0 0 .48-.81c0-.49-.33-.88-.75-.88zm-.13.53h-.48v.7h.48c.16 0 .3-.16.3-.35 0-.2-.14-.35-.3-.35zM26 32.82V31h.53v1.88c0 .3.21.55.47.55.25 0 .46-.25.46-.55V31H28v1.82c0 .65-.45 1.18-1 1.18-.56 0-1-.53-1-1.18zm6.24-4.2l-.33.45c.1.13.5.43 1.04.43.55 0 .96-.33.96-.96 0-.62-.48-.8-.88-.85-.4-.04-.45-.23-.44-.4.02-.18.22-.25.4-.26.13 0 .43.17.56.26l.24-.46c-.2-.3-1.54-.68-1.73.3-.18.92.37 1.03.76 1.11l.16.04c.38.1.37.22.37.31 0 .1-.06.35-.4.35-.28 0-.59-.22-.71-.32zM29 29.5v-3h1.24c.42 0 .76.38.76.86v1.28c0 .48-.34.86-.76.86H29zm.57-.58v-1.84h.53c.18 0 .33.23.33.52v.8c0 .29-.15.52-.33.52h-.53zm-6.8.58l.9-3h.52l.86 3h-.55l-.15-.57h-.86l-.16.57h-.55zm.87-1.11h.56l-.28-1.04-.28 1.04zm-5.53-1.89H17v3h1.18c.38 0 .7-.38.7-.84a.9.9 0 0 0-.31-.7.92.92 0 0 0 .23-.62c0-.46-.31-.84-.7-.84zm-.13.5h-.44v.67h.44c.16 0 .28-.15.28-.33 0-.19-.12-.34-.28-.34zm.03 1.24h-.47v.71h.47c.17 0 .3-.16.3-.35 0-.2-.13-.36-.3-.36zm3.18-1.74H20v3h.57v-1.25h.32l.5 1.24H22l-.54-1.3a.88.88 0 0 0 .48-.81c0-.49-.33-.88-.75-.88zm-.13.53h-.48v.7h.48c.16 0 .3-.16.3-.35 0-.2-.14-.35-.3-.35zM26 29.5v-3h.52l.96 1.94V26.5H28v3h-.52l-.96-1.96v1.96H26z"/><path fill-rule="evenodd" d="M42 14H14v28h28V14zm-29-1v30h30V13H13z"/></svg>