<?xml version="1.0" encoding="UTF-8"?>
<!-- generated by Finnhub -->
<svg viewBox="0 0 55.5 55.5" xmlns="http://www.w3.org/2000/svg">
<path d="M 0,0 H 55.5 V 55.5 H 0 Z" fill="rgb(239, 242, 248)"/>
<path d="M 26.7,11.035 A 16.8,16.8 0 0,0 15.49,16.67 A 17.59,17.59 0 0,0 11.28,25.23 A 16.56,16.56 0 0,0 12.72,35.63 A 16.9,16.9 0 0,0 20.42,43.24 A 17.3,17.3 0 0,0 31.46,44.65 A 16.9,16.9 0 0,0 44.53,32.2 A 17,17 0 0,0 40.74,17 A 17.53,17.53 0 0,0 35.31,12.77 A 16.4,16.4 0 0,0 26.71,11.05 Z M 29.01,13.85 A 14.4,14.4 0 0,1 40.29,20.71 A 14.35,14.35 0 0,1 42.31,29.43 A 14.33,14.33 0 0,1 28.88,42.37 A 14.48,14.48 0 0,1 17.19,37.51 A 14.26,14.26 0 0,1 13.7,26.64 A 14.3,14.3 0 0,1 29,13.85 Z" fill="rgb(163, 30, 74)"/>
<path d="M 27.009999999999998,15.035 C 26.88,15.18 26.94,15.35 27.15,15.45 A 0.3,0.3 0 0,1 27.31,15.57 C 27.36,15.69 27.36,19.27 27.31,19.37 C 27.28,19.42 27.21,19.47 27.15,19.51 C 26.99,19.58 26.92,19.69 26.95,19.8 C 27.01,19.96 27.01,20 28.83,20 C 30.7,20 30.63,19.97 30.78,19.77 A 1,1 0 0,0 30.98,19.17 C 31,18.95 30.99,18.9 30.95,18.85 C 30.85,18.75 30.75,18.79 30.54,19.02 C 30.3,19.26 30.12,19.35 29.74,19.42 C 29.42,19.47 28.9,19.48 28.64,19.44 C 28.35,19.38 28.37,19.8 28.37,17.55 V 15.58 L 28.45,15.51 C 28.5,15.47 28.55,15.43 28.58,15.43 C 28.6,15.43 28.65,15.41 28.68,15.38 C 28.78,15.3 28.78,15.13 28.68,15.06 C 28.62,15.01 28.55,15 27.84,15 C 27.18,15 27.06,15 27.02,15.05 Z M 24.01,15.68 L 23.32,15.98 L 22.2,16.48 C 20.84,17.1 20.83,17.11 20.83,17.25 C 20.83,17.4 20.91,17.47 21.08,17.47 C 21.19,17.47 21.25,17.48 21.31,17.54 C 21.35,17.58 21.51,17.9 21.71,18.36 L 22.48,20.13 C 22.73,20.69 22.93,21.19 22.92,21.23 C 22.92,21.29 22.88,21.37 22.82,21.43 C 22.72,21.54 22.71,21.65 22.76,21.75 C 22.83,21.88 22.99,21.83 23.83,21.45 L 25.46,20.72 C 26.34,20.32 26.42,20.26 26.46,20.07 C 26.49,19.88 26.31,19.35 26.18,19.27 C 26.05,19.19 25.88,19.35 25.82,19.65 C 25.77,19.83 25.62,19.99 25.31,20.18 C 25.02,20.37 24.28,20.72 24.14,20.75 C 24,20.78 23.9,20.71 23.79,20.48 A 19.6,19.6 0 0,1 23.14,18.99 C 23.14,18.97 23.15,18.95 23.18,18.94 L 23.76,18.67 C 24.06,18.54 24.35,18.41 24.4,18.4 C 24.46,18.4 24.57,18.4 24.65,18.42 C 24.95,18.51 25.03,18.39 24.9,18.04 C 24.68,17.48 24.52,17.39 24.33,17.72 A 0.77,0.77 0 0,1 24.15,17.94 C 24.05,18.01 22.99,18.48 22.94,18.48 C 22.89,18.48 22.36,17.26 22.36,17.15 C 22.36,17.01 22.48,16.91 22.86,16.73 C 23.65,16.36 23.93,16.29 24.3,16.4 C 24.66,16.5 24.74,16.45 24.63,16.18 C 24.49,15.82 24.33,15.61 24.2,15.62 A 0.88,0.88 0 0,0 24,15.68 Z M 32.87,15.71 A 2,2 0 0,0 32.56,16.01 C 32.26,16.31 32.21,16.45 32.33,16.55 C 32.39,16.6 32.43,16.6 32.55,16.59 L 32.99,16.55 C 33.27,16.53 33.29,16.54 33.5,16.63 C 33.78,16.75 33.92,16.86 33.92,16.96 C 33.92,17.05 33.85,17.16 32.81,18.86 C 31.91,20.34 31.88,20.38 31.8,20.42 A 0.3,0.3 0 0,1 31.59,20.42 C 31.31,20.36 31.16,20.59 31.36,20.77 A 17,17 0 0,0 32.63,21.59 C 32.76,21.65 32.87,21.62 32.92,21.52 C 32.96,21.42 32.94,21.34 32.84,21.22 A 0.32,0.32 0 0,1 32.77,21.04 C 32.77,20.94 32.77,20.92 33.62,19.54 L 34.43,18.21 C 34.88,17.47 34.87,17.48 35.19,17.68 C 35.49,17.88 35.64,18.1 35.74,18.52 C 35.82,18.84 36,18.95 36.14,18.79 C 36.21,18.73 36.44,18.09 36.44,17.99 A 0.23,0.23 0 0,0 36.38,17.87 A 482.53,482.53 0 0,1 32.98,15.7 A 0.2,0.2 0 0,0 32.88,15.71 Z M 19.15,19.33 C 18.6,19.45 18.06,19.78 17.51,20.32 A 18.9,18.9 0 0,0 16,22.2 C 16,22.3 16.02,22.35 16.12,22.4 C 16.17,22.43 16.22,22.42 16.32,22.37 A 0.7,0.7 0 0,1 16.52,22.31 C 16.59,22.31 16.92,22.57 18.62,24.04 L 19.6,24.89 V 25.02 C 19.6,25.1 19.59,25.19 19.57,25.24 C 19.54,25.34 19.65,25.48 19.77,25.48 C 19.87,25.48 19.94,25.42 20.77,24.4 C 21.65,23.32 21.85,23 22,22.38 C 22.07,22.08 22.07,21.55 22,21.28 A 2.91,2.91 0 0,0 21.6,20.44 C 21.28,20 20.67,19.54 20.2,19.38 A 2.49,2.49 0 0,0 19.15,19.33 Z M 38.33,20.07 A 22.72,22.72 0 0,0 34.41,21.4 C 34.13,21.53 33.87,21.63 33.85,21.63 A 0.62,0.62 0 0,1 33.69,21.58 C 33.52,21.51 33.41,21.52 33.33,21.62 C 33.22,21.76 33.23,21.77 33.79,22.43 C 34.02,22.7 34.09,22.74 34.21,22.67 C 34.31,22.6 34.34,22.49 34.3,22.33 C 34.27,22.23 34.27,22.19 34.31,22.13 S 35.25,21.6 35.33,21.6 C 35.35,21.6 35.53,21.8 36.34,22.76 L 36.69,23.16 L 36.42,23.62 C 36.28,23.87 36.12,24.12 36.09,24.15 C 36.01,24.23 36.01,24.23 35.89,24.18 C 35.71,24.11 35.69,24.11 35.57,24.21 C 35.49,24.28 35.47,24.31 35.49,24.37 C 35.49,24.42 35.69,24.66 35.9,24.91 C 36.55,25.67 36.57,25.69 36.74,25.51 C 36.82,25.43 36.82,25.41 36.8,25.24 C 36.78,25.03 36.77,25.04 37.3,24.09 A 40.6,40.6 0 0,0 38.53,21.71 C 38.73,21.27 39,20.57 39,20.51 C 39,20.44 38.78,20.16 38.68,20.11 A 0.6,0.6 0 0,0 38.33,20.07 Z M 19.53,20.3 A 2.7,2.7 0 0,1 21.13,21.85 C 21.28,22.33 21.23,22.81 20.99,23.29 C 20.85,23.54 20.57,23.89 20.45,23.96 C 20.27,24.06 20.22,24.03 19.39,23.32 C 17.17,21.42 17.24,21.5 17.37,21.25 C 17.5,20.98 17.95,20.55 18.25,20.39 A 1.87,1.87 0 0,1 19.52,20.29 Z M 37.94,20.65 A 47.03,47.03 0 0,1 36.94,22.65 C 36.92,22.65 36.37,22.01 35.99,21.55 C 35.87,21.41 35.86,21.39 35.91,21.37 A 253.44,253.44 0 0,1 37.94,20.65 Z M 21.53,36.7 C 21.52,36.73 21.53,36.78 21.54,36.83 C 21.56,36.87 21.57,36.93 21.56,36.94 L 21.04,37.68 C 20.56,38.35 20.54,38.38 20.44,38.38 C 20.39,38.37 20.34,38.38 20.32,38.42 C 20.27,38.49 20.31,38.52 21.02,39.05 C 21.69,39.55 21.72,39.55 21.89,39.38 C 21.99,39.27 22.01,39.15 21.94,39.15 L 21.73,39.14 C 21.57,39.14 21.53,39.12 21.29,38.96 C 20.95,38.73 20.93,38.71 20.99,38.6 C 21.03,38.5 21.36,38.02 21.41,37.98 C 21.47,37.93 21.89,38.26 21.96,38.41 C 21.99,38.48 22.03,38.53 22.05,38.53 C 22.09,38.53 22.2,38.41 22.25,38.31 C 22.32,38.19 22.29,38.13 22.16,38.13 C 22.08,38.13 22,38.09 21.82,37.96 L 21.58,37.76 C 21.58,37.74 21.66,37.62 21.75,37.48 C 21.87,37.31 21.95,37.24 21.99,37.24 C 22.06,37.24 22.39,37.46 22.51,37.59 C 22.55,37.63 22.61,37.73 22.64,37.81 C 22.67,37.9 22.71,37.97 22.74,37.97 C 22.79,37.98 22.92,37.77 22.92,37.67 C 22.92,37.61 22.79,37.5 22.28,37.12 A 6.22,6.22 0 0,0 21.6,36.65 A 0.08,0.08 0 0,0 21.53,36.7 Z M 34.26,36.97 C 34.09,37.02 33.83,37.2 33.73,37.36 C 33.48,37.72 33.66,38.16 33.96,37.91 C 34.06,37.84 34.06,37.78 33.98,37.67 C 33.89,37.56 33.9,37.44 34.01,37.33 C 34.18,37.16 34.42,37.23 34.56,37.49 C 34.67,37.69 34.61,37.9 34.37,38.07 C 34.23,38.17 34.19,38.27 34.27,38.3 C 34.3,38.3 34.4,38.27 34.5,38.22 C 34.74,38.11 34.93,38.1 35.05,38.22 C 35.33,38.47 35.33,38.9 35.03,39.04 C 34.86,39.12 34.77,39.1 34.63,38.97 C 34.5,38.83 34.43,38.81 34.31,38.91 C 34.2,39 34.21,39.11 34.34,39.23 C 34.44,39.34 34.45,39.34 34.68,39.33 C 34.95,39.31 35.18,39.21 35.39,39.01 C 35.59,38.82 35.67,38.67 35.67,38.44 C 35.67,38.04 35.38,37.78 34.99,37.84 H 34.85 L 34.92,37.74 A 0.5,0.5 0 0,0 35,37.46 C 35.01,37.31 35,37.26 34.94,37.18 C 34.83,37.02 34.72,36.95 34.54,36.94 C 34.44,36.94 34.32,36.94 34.26,36.96 Z M 23.19,37.87 A 0.66,0.66 0 0,0 22.78,38.28 C 22.71,38.48 22.72,38.53 22.81,38.72 C 22.87,38.84 22.97,38.94 23.17,39.12 C 23.32,39.24 23.47,39.39 23.51,39.44 C 23.64,39.65 23.55,39.89 23.31,39.95 C 23.08,40.02 22.71,39.85 22.59,39.62 A 0.98,0.98 0 0,1 22.53,39.36 C 22.49,39.08 22.35,39.01 22.24,39.21 C 22.11,39.45 22.42,39.91 22.85,40.11 C 23.03,40.2 23.09,40.21 23.31,40.21 C 23.51,40.21 23.58,40.2 23.68,40.15 A 0.68,0.68 0 0,0 24.08,39.53 C 24.08,39.32 23.96,39.15 23.63,38.89 S 23.2,38.47 23.26,38.32 C 23.36,38.09 23.61,38.03 23.86,38.19 C 24.04,38.31 24.13,38.45 24.13,38.61 C 24.13,38.74 24.18,38.81 24.25,38.81 C 24.31,38.81 24.45,38.51 24.42,38.44 C 24.39,38.32 24.08,38.05 23.87,37.94 C 23.64,37.84 23.37,37.8 23.19,37.87 Z M 32.35,37.99 A 0.8,0.8 0 0,0 31.93,38.34 C 31.86,38.46 31.85,38.53 31.83,38.77 C 31.82,39.22 31.96,39.6 32.28,39.95 C 32.56,40.24 32.86,40.35 33.16,40.25 C 33.5,40.13 33.68,39.88 33.7,39.49 C 33.72,39.01 33.56,38.59 33.21,38.26 C 32.92,37.97 32.65,37.89 32.35,37.99 Z M 32.77,38.38 C 33.04,38.67 33.33,39.36 33.33,39.7 C 33.33,39.94 33.25,40.04 33.07,40.04 C 32.95,40.04 32.92,40.03 32.78,39.88 A 2.9,2.9 0 0,1 32.27,38.92 C 32.19,38.65 32.17,38.42 32.25,38.3 C 32.37,38.12 32.55,38.15 32.77,38.38 Z M 24.98,38.42 C 24.87,38.56 24.81,38.79 24.88,38.82 C 24.9,38.84 25,38.81 25.11,38.76 C 25.27,38.69 25.31,38.68 25.44,38.71 C 25.56,38.73 25.58,38.75 25.59,38.81 C 25.6,38.87 25.29,40.23 25.21,40.45 C 25.18,40.53 25.15,40.55 25.08,40.57 C 24.99,40.58 24.94,40.67 25,40.72 C 25.03,40.76 25.61,40.91 25.7,40.91 C 25.82,40.91 25.83,40.82 25.73,40.73 C 25.64,40.63 25.63,40.75 25.9,39.63 L 26.07,38.9 H 26.17 C 26.3,38.9 26.47,39 26.56,39.15 C 26.72,39.38 26.82,39.32 26.81,39.01 L 26.8,38.83 L 26.61,38.78 C 26.3,38.68 25.08,38.38 25.05,38.38 L 24.98,38.42 Z M 30.38,38.56 C 30.04,38.67 29.84,38.91 29.81,39.24 C 29.79,39.46 29.86,39.68 29.99,39.82 C 30.09,39.94 30.17,39.98 30.36,40.02 A 0.8,0.8 0 0,0 30.96,39.86 L 31.12,39.73 L 31.11,39.93 A 0.95,0.95 0 0,1 30.51,40.77 C 30.36,40.83 30.31,40.87 30.31,40.91 C 30.31,41 30.39,41.01 30.55,40.97 C 30.9,40.88 31.16,40.69 31.37,40.37 A 1.5,1.5 0 0,0 31.37,38.87 C 31.17,38.54 30.78,38.42 30.37,38.56 Z M 28.72,38.72 A 1.5,1.5 0 0,1 28.4,38.86 C 28.2,38.93 28.15,38.96 28.15,39.03 C 28.15,39.08 28.18,39.09 28.35,39.09 C 28.45,39.09 28.56,39.1 28.59,39.12 C 28.61,39.13 28.63,39.2 28.64,39.28 C 28.68,39.65 28.74,40.64 28.72,40.7 C 28.72,40.77 28.68,40.8 28.53,40.84 C 28.4,40.88 28.36,40.91 28.36,40.95 C 28.36,41.01 28.37,41.02 28.79,41.01 C 29.03,41.01 29.31,40.99 29.4,40.98 C 29.56,40.96 29.57,40.95 29.57,40.88 S 29.55,40.8 29.43,40.77 A 0.52,0.52 0 0,1 29.24,40.7 A 6.5,6.5 0 0,1 29.14,39.68 C 29.1,39.14 29.06,38.68 29.04,38.66 C 29.01,38.6 28.86,38.63 28.72,38.72 Z M 30.84,38.84 C 31.01,39.04 31.07,39.39 30.97,39.6 C 30.93,39.7 30.77,39.8 30.66,39.8 C 30.54,39.8 30.4,39.67 30.33,39.5 C 30.23,39.24 30.26,38.94 30.38,38.81 C 30.45,38.74 30.5,38.71 30.6,38.71 C 30.72,38.71 30.75,38.73 30.84,38.84 Z M 26.44,40.58 A 0.32,0.32 0 0,0 26.32,40.7 C 26.28,40.78 26.28,40.8 26.34,40.87 C 26.42,40.98 26.54,41.02 26.65,40.97 C 26.84,40.9 26.83,40.64 26.64,40.57 C 26.54,40.53 26.54,40.53 26.44,40.57 Z M 18,35.98 C 18.02,36.02 38,35.98 38,35.98 L 28.4,22 L 18,35.98 Z" fill="rgb(1, 68, 119)"/>
</svg>
