<?xml version="1.0" encoding="UTF-8"?>
<!-- generated by Finnhub -->
<svg viewBox="0 0 55.5 55.5" xmlns="http://www.w3.org/2000/svg">
<path d="M0 0h55.5v55.5H0z" fill="rgb(106, 57, 92)"/>
<path d="m36.5 27a7.5 7.5 0 1 0 0-15 7.5 7.5 0 0 0 0 15zm0-2a5.5 5.5 0 1 0 0-11 5.5 5.5 0 0 0 0 11zm-16 19a7.5 7.5 0 1 0 0-15 7.5 7.5 0 0 0 0 15zm0-2a5.5 5.5 0 1 0 0-11 5.5 5.5 0 0 0 0 11z" fill="rgb(161, 167, 170)" fill-rule="evenodd"/>
<path d="M27 19.5a7.5 7.5 0 1 1-2.56-5.64l-1.63 1.28a5.47 5.47 0 1 0 2.16 4.7l1.98-1.23c.03.3.05.59.05.89Z" fill="rgb(148, 199, 58)"/>
<path d="M35 31h3.31c1.3 0 2.61 1.06 2.69 2.78v.29c.02 1.7-1.35 2.93-2.69 2.93H35v-6Zm6 2.84v-.06.06Zm0 .09ZM33.62 29h4.7C40.9 29 43 31.2 43 33.93v.14c0 2.72-2.1 4.93-4.69 4.93H35v5h-2V29h.63Z" fill="rgb(148, 199, 58)" fill-rule="evenodd"/>
</svg>
