<?xml version="1.0" encoding="UTF-8"?>
<!-- generated by Finnhub -->
<svg viewBox="0 0 55.5 55.5" xmlns="http://www.w3.org/2000/svg">
<path d="M0 0h55.5v55.5H0z" fill="rgb(239, 242, 248)"/>
<path d="M15.2 18.5c-.1.06-1.12.09-1-.06 0 0 .17-.4.52-.29.35.12.58.3.48.35ZM47.88 31a3.3 3.3 0 0 0-3.07-2.5c-.02 0-.41-.01-.5-.2-.03-.08 0-.18.08-.3-.01-.01-.05-.04-.15-.04-.14 0-.35.05-.61.13-.25.09-.47.19-.67.28-.26.12-.46.21-.63.21a.3.3 0 0 1-.21-.08c-.09-.08-.13-.16-.12-.24 0-.1.09-.19.13-.23a.4.4 0 0 0-.08 0c-.14 0-.4.06-.74.34-.18.14-.34.28-.47.4-.31.28-.56.5-.81.53-.16.03-.28-.03-.34-.16a.37.37 0 0 1 0-.28c-.15.02-.52.23-.95.65l-.11.11c-.6.59-1.61 1.57-2.3 1.6h-.02a.78.78 0 0 1-.67-.35c-.13-.22-.13-.5 0-.77.18-.36 1.42-1.87 1.86-3.08.08.03.46.13.83.08.58-.08.64-.3 1.2-.78.38-.34.67-.5 1.23-.28.74.3.99.26 1.24.05.02-.02.03-.03.02-.05l-.03-.01c-.14.02-.32-.07-.85-.36-.15-.08-.36-.23-.48-.23.28-.08 1.19-1.45 1.55-1.41.02 0 .03 0 .04-.02v-.03c-.07-.13-.18-.18-.33-.2-.3-.03-.65.28-.92.56-.12.12-.26.27-.37.3.08-.19.12-.48.16-.75.08-.5.2-.88.36-.96l.01-.02s0-.04-.06-.05c-.45-.03-.62.31-.8.8-.07.24-.13.56-.26.72 0-.1-.06-.42-.16-.77-.08-.28-.2-.55-.13-.75l-.01-.05h-.04c-.34.15-.33.42-.29.86.03.23.08.75.04.81-.04-.09-.22-.25-.41-.44a.7.7 0 0 1-.23-.44c0-.02 0-.04-.02-.05-.02 0-.03 0-.04.02-.28.2-.13.59.12.91.17.21.3.53.29.71 0 .12-.05.21-.13.27-.25.19-.93.07-1.15.01.02-.27.04-.57.02-.88-.1-1.5-.84-2.6-2.22-3.26a5.73 5.73 0 0 0-2.47-.55 8.1 8.1 0 0 0-4.78 1.73c-.11.08-.22.19-.34.19a.18.18 0 0 1-.15-.08c-.04-.06-.06-.15-.07-.28-.05 0-.22.05-.47.42l-.35.56c-.27.44-.44.8-.75 1.04a.72.72 0 0 1-.42.17c-.06 0-.1-.02-.14-.06-.03-.04-.04-.12-.02-.21-.1.06-.4.28-.61.87-.27.76-.41 1.1-.73 1.15-.16.02-.3-.02-.37-.11a.28.28 0 0 1-.05-.2c-.08.04-.32.2-.5.64l-.16.5c-.17.52-.3 1.02-.57 1.07-.15.03-.25-.04-.28-.13a.64.64 0 0 1-.04-.24c-.07 0-.32.06-.72.9-.39.82-1.37 2.66-3.15 3.31-.76.28-1.51 0-1.76-.42a2.08 2.08 0 0 1-.04-1.9c.26-.52.56-.83.8-.83.16 0 .27.13.29.33l.01-.01c.2-.11.77-.44 1.09-1.67.18-.73.52-.95.67-.78.06.07.09.2.08.36.1-.03.32-.09.52-1.1.1-.56.3-1.15.54-1.15.12 0 .23.14.32.4.1-.13.47-.6.34-1.5-.04-.31-.08-.47-.04-.61.05-.16.2-.2.3-.18.16.04.29.21.38.33 0-.08.1-.56-.34-1.23l.29-.01c.84-.04 1.98-.11 2.95-.36 1.01-.25 1.12-1.13 1.1-1.19-.03-.11-.24.42-1.43.57-1.2.15-2-.04-2-.04 1.14-.36 1.13-.95 1.04-.93 0 0-.51.32-1.68.48-.4.05-.9-.11-1.17-.21.8-.13 1.86-.32 2.75-.65.98-.36 1-1.25.98-1.3-.05-.11-.2.43-1.38.71-1.17.28-2 .17-2 .17 1.1-.48 1.04-1.06.96-1.03 0 0-.48.38-1.63.65-.87.2-2.27-.12-2.6-.2-1.74-.5-2-.88-2.37-1.04-.4-.17-.96-.32-1.73.16-.74.46-2.07.41-2.3-.27 0 0-.04-.4-.35-.45-.3-.04-.37.03-.36.12 0 .09.09.32.2.46 0 0-.31 0-.56-.46-.24-.47-.6-.16-.64.18 0 0-.41.1-.5.38 0 0 .3-.08.42.02 0 0 .08.41.5.66 0 0-.04.53.15.68 0 0 .29-.38.52-.3 0 0 .9.6 1.9.71 1 .12 1.7-.16 1.98.43.27.59-.23 1.2-.78.94-.54-.26-1.29-.99-2.12-.7-.82.27-1.12-.17-1.3-.46-.16-.28-.25.26-.21.43 0 0-.45.08-.69-.4 0 0-.15-.16-.15.11-.01.27.08 1.11.96 1.43 0 0 .73.37.7.76 0 0 .25-.24 0-.75 0 0 1.23.03 1.98.62.76.6 1.37 1.33 2.12 1.34 0 0-.26-.2-.16-.32s.27-.2.67.08c.4.26.57.22.65.2 0 0-.2-.36.04-.41.24-.05.48.26.51.68.04.49-.05 1.36-1.28 2.54l-.54.5c-1.36 1.24-3.2 2.93-3.29 5.02l-.05.01a.76.76 0 0 1-.3-.08c-.42-.19-.54-.62-.57-.94-.03-.31.15-.66.26-.88.16-.33.21-.72-.05-.85 0 0-.04-.02-.04.03 0 .13-.07.27-.28.62-.11.2-.24.36-.3.5-.06 0-.16-.36-.19-.57-.06-.4-.18-.86-.57-.95-.19-.04-.25.03-.22.05.15.1.23.33.28.66.05.34.06.58.11.83-.2.02-.78-.76-1.12-.84a.56.56 0 0 0-.55.14c-.05.05.05.03.16.08.2.07.45.42.66.65.27.28.44.47.59.49-.05.03-.28.05-.83 0-.33-.02-.7.05-.84.5v.04c.01.01.03.02.04 0a1 1 0 0 1 .46-.1c.34.01 1.07.23 1.23.2-.1.54-.46 1.02-.7 1.09-.01 0-.02.04.01.06.04.02.15.09.32.1.06 0 .17-.03.23-.06.22-.1.41-.45.52-.55.1-.1.19-.01.26.2.17.5.7 1.65 1.5 1.65l.24-.02c.06 0 .11-.02.17-.03a4.86 4.86 0 0 0 4.4 2.48 6.57 6.57 0 0 0 4.04-1.32l.33-.26c.33.12.57.37.66.7.1.32.03.66-.18.94-.24.32-.55.23-.87.22-.39 0-.82-.02-.99.62 0 .04.03.07.07.04.24-.2.6-.15.93-.1.15.03.47.05.48.05-.07.23-.06.53-.05.82.02.41.01.84-.2 1.09 0 0-.02.03 0 .05 0 .02.09.02.1.02.5 0 .57-.4.64-.8.03-.21.07-.56.16-.72.16.3.47.7.66.89.12.13.25.3.28.45 0 0 0 .03.03.03l.06-.05c.26-.3.05-.7-.12-.95a1.9 1.9 0 0 1-.29-.63c.18.2.7.39.85.42.12.03.4.17.51.29.02.02.06 0 .05-.04.03-.43-.24-.6-.54-.76-.23-.11-.47-.23-.57-.48h.04c.15 0 .35-.06.57-.13.25-.08.56-.18.7-.14.02.01.03-.02.03-.03-.06-.37-.56-.3-.93-.26-.23.02-.44.07-.5 0s.01-.2.05-.29c.14-.32.3-.8.27-1.3-.01-.2-.09-.42-.16-.63-.1-.29-.22-.45-.12-.63.7-.61 1.81-1.92 2.5-2.62.7-.7 3.44-3.75 5.15-5.04.85-.65 1.65-1 2.47-1.01.58-.02 1.33.17 1.52 1 .1.44.04 1.42-1.3 3.24-.62.81-2.55 1.4-2.88 1.4-.37 0-.54-.28-.75-.58-.26-.36-.45-.54-.76-.4-.05.04-.04.06-.02.07.12.03.14.1.33.43.12.2.28.58.43.67-.09.07-.44-.1-.72-.24-.3-.14-.52-.19-.7-.12a.56.56 0 0 0-.33.34c-.02.03 0 .07.05.05.05-.05.28-.04.5.07.48.24.81.38 1.04.44.17.04-.34.18-.53.21-.56.12-1.13.33-1 .9 0 .02.01.04.03.04 0 0 .02 0 .03-.02.14-.23.54-.33.95-.34.28 0 .61-.07.72-.19.04.14-.2 1.13-.4 1.35 0 0-.03.04-.02.05 0 .02.06.04.08.04.1.02.2 0 .3-.05.37-.22.66-1.36.66-1.36.08.2.2.4.33.6.16.21.36.5.35.62v.04h.05c.09-.04.17-.13.21-.25.09-.25-.14-.54-.23-.83-.04-.16-.05-.3.04-.43.21-.31.78-.22 1.08-.11-.14.53-.04 1.73.8 2.5.7.63 1.5.8 2.16.8.84 0 1.92-.28 2.96-.86 1.42-.8 3.69-2.12 5.27-2.72.28-.1.59-.16.88-.16.77 0 1.3.38 1.47 1.03.39 1.52-.78 2.4-1.97 2.92-.94.4-1.52.14-1.93.03a5.37 5.37 0 0 0-2.63-.06c-1.96.5-2.77 1.33-3.77 1.33-.43 0-.58-.06-.58-.06-.05 0-.01.04 0 .06.25.32.79.5 1.35.53h.2c.39-.01.14.41-.3.56-.62.22-1.22.19-1.34.17l-.01.01c.04.06 1.34.67 2.52.3.47-.15.43.12.3.3-.2.31-.58.58-1.04.58-.02 0-.05 0-.01.02.18.08 1.05.35 1.85-.1.39-.21.48-.33.73-.61.2-.2.44-.1.44.21 0 .3-.17.69-.56.97-.04.03-.1.04-.02.04.51.07 1.47-.38 2-1.25.54-.9 1 .18.5.67-.05.06-.08.07-.01.06.44-.08 1.14-.36 1.61-1.64.09-.23.34-.53.68-.6 1.96-.5 3.88-1.52 4.46-3.3.2-.62.17-1.4.02-1.94Z" fill="rgb(1, 124, 102)"/>
</svg>
