<?xml version="1.0" encoding="UTF-8"?>
<!-- generated by Finnhub -->
<svg viewBox="0 0 55.5 55.5" xmlns="http://www.w3.org/2000/svg">
<path d="M0 0h55.5v55.5H0z" fill="rgb(239, 242, 248)"/>
<path d="M10.9 15h14.74c.75 0 1.36.8 1.36 1.56h-6.42v4.94H27v17.9c0 .88-.71 1.6-1.59 1.6H11.02c-.56 0-1.02-.46-1.02-1.03 0-.57.46-1.03 1.02-1.03H19V17h-8.1c-.5 0-.9-.58-.9-1.08 0-.5.4-.92.9-.92Zm.1 3h5v20h-5V18Zm34 6h-6v17h6V24Zm-6-5.66h6V22h-6v-3.66ZM30 41V21h-9v-4h25v4h-.88v-3h-6.5v3H36v20h-6Z" fill="rgb(1, 11, 249)"/>
</svg>
