<?xml version="1.0" encoding="UTF-8"?>
<!-- generated by Finnhub -->
<svg viewBox="0 0 55.5 55.5" xmlns="http://www.w3.org/2000/svg">
<path d="M 0,0 H 55.5 V 55.5 H 0 Z" fill="url(#a)"/>
<path d="M 18.72,10.985 H 18.83 L 26.34,13.04 C 26.37,13.05 26.39,13.08 26.39,13.11 C 26.46,17.36 27.27,21.46 28.81,25.41 C 29.09,26.11 29.61,27.28 30.36,28.91 A 846.62,846.62 0 0,0 39,46.94 L 38.99,46.98 C 38.97,47 38.95,46.99 38.94,46.98 A 1419.82,1419.82 0 0,0 26.02,27.22 A 29.71,29.71 0 0,0 16.8,18.28 V 18.24 L 18.73,11 Z" fill="rgb(87, 186, 215)"/>
<path d="M 33.660000000000004,16.775 A 84.72,84.72 0 0,0 35.09,15.19 A 0.03,0.03 0 0,1 35.11,15.21 C 34.97,19.04 34.95,22.87 35.27,26.69 A 400.45,400.45 0 0,0 36.47,39 L 36.46,39.02 H 36.44 L 36.42,39.01 L 28.65,20.95 C 28.65,20.91 28.65,20.89 28.68,20.87 A 20.7,20.7 0 0,0 33.68,16.79 Z M 23.24,33.66 A 109.73,109.73 0 0,0 13,27.66 V 27.64 H 13.02 C 15.89,27.14 18.5,26.42 21.12,24.87 C 21.16,24.86 21.18,24.86 21.2,24.89 L 33.18,40.54 A 0.03,0.03 0 0,1 33.15,40.57 A 420.73,420.73 0 0,0 23.25,33.66 Z" fill="rgb(254, 254, 253)"/>
<defs>
<linearGradient id="a" x1="10.42" x2="68.15" y1="9.71" y2="76.02" gradientUnits="userSpaceOnUse">
<stop stop-color="rgb(25, 29, 31)" offset="0"/>
<stop stop-color="rgb(5, 5, 8)" offset="1"/>
</linearGradient>
</defs>
</svg>
