<?xml version="1.0" encoding="UTF-8"?>
<!-- generated by Finnhub -->
<svg viewBox="0 0 55.5 55.5" xmlns="http://www.w3.org/2000/svg">
<path d="M 0,0 H 55.5 V 55.5 H 0 Z" fill="rgb(247, 55, 105)"/>
<path d="M 19.069999999999997,42.985 A 6.13,6.13 0 0,1 13,36.92 A 5.99,5.99 0 0,1 19.08,31 H 22 V 25 H 19.08 A 5.98,5.98 0 0,1 16.03,13.83 A 5.86,5.86 0 0,1 19.08,13 A 6,6 0 0,1 25,19.08 V 22 H 31 V 19.08 A 6,6 0 0,1 36.92,13 A 6.15,6.15 0 0,1 43,19.08 A 5.99,5.99 0 0,1 36.92,25 H 34 V 31 H 36.92 A 6,6 0 0,1 43,36.92 A 6.14,6.14 0 0,1 36.92,43 A 5.98,5.98 0 0,1 31,36.92 V 34 H 25 V 36.92 C 25,40.25 22.4,43 19.08,43 Z M 19.08,40.14 C 20.84,40.14 22,38.68 22,36.92 V 34 H 19.08 C 17.32,34 15.86,35.16 15.86,36.92 A 3.25,3.25 0 0,0 19.08,40.14 Z M 19.08,22 H 22 V 19.08 C 22,17.32 20.84,15.86 19.08,15.86 A 3.16,3.16 0 0,0 16.29,17.46 A 3.12,3.12 0 0,0 15.86,19.08 C 15.86,20.86 17.31,22 19.08,22 Z M 34,22 H 36.92 C 38.69,22 40.14,20.86 40.14,19.08 A 3.25,3.25 0 0,0 36.92,15.86 C 35.14,15.86 34,17.31 34,19.08 V 22 Z M 36.92,40.14 A 3.25,3.25 0 0,0 40.14,36.92 C 40.14,35.16 38.68,34 36.92,34 H 34 V 36.92 C 34,38.69 35.14,40.14 36.92,40.14 Z M 25,31 H 31 V 25 H 25 V 31 Z" fill="rgb(254, 253, 232)"/>
</svg>
