<?xml version="1.0" encoding="UTF-8"?>
<!-- generated by Finnhub -->
<svg viewBox="0 0 55.5 55.5" xmlns="http://www.w3.org/2000/svg">
<path d="M 0,0 H 55.5 V 55.5 H 0 Z" fill="rgb(239, 242, 248)"/>
<path d="M 16.84,24.945 H 18.92 C 18.92,17 25.5,14.35 28.79,14.02 C 20.49,13.62 17.71,19.82 17.37,22.97 H 16.85 C 15.29,22.97 8.54,23.97 8.02,31.92 C 7.61,38.29 13.39,40.54 16.32,40.87 C 22.22,41.04 35.33,41.17 40.73,40.37 C 46.13,39.58 47.83,34.41 48,31.92 C 47.17,36.7 42.8,38.88 40.73,39.38 L 16.33,38.88 C 14.25,38.88 10.1,37.49 10.1,31.92 S 14.6,24.96 16.85,24.96 Z" fill="url(#e)"/>
<path d="M 25.99,32.485 C 24.8,32.9 23.17,32.67 23,32.5 C 23.33,33 24.5,34 26.5,34 C 28,34 35,25.5 38,26 C 39.63,26.27 40.5,27 41.5,29 C 43.5,26.5 39.5,24.5 38.5,24 C 35,25 27.5,32 26,32.5 Z" fill="url(#d)"/>
<path d="M 26.99,19.985 H 25 L 24,25 H 28 C 30.8,25 31.83,22.33 32,21 C 32.4,17 29.5,16 28,16 H 26 L 25.5,18 H 28 C 29,18 30,19 30,21 C 30,22.6 28.67,23 28,23 H 26.5 L 27,20 Z" fill="url(#c)"/>
<path d="M 31.99,17.985 A 3.39,3.39 0 0,0 30,16 H 38 L 37.5,18 H 35.5 L 33.5,25 H 31.5 L 33.5,18 H 32 Z" fill="url(#b)"/>
<path d="M 23.99,32.485 C 24,33.7 25.67,33.83 26.5,34 C 25,35 23.72,35 23,35 C 22,35 21,34 21,33 S 22,30 26,30 S 35,32 38,32 C 40.4,32 41.33,30.33 41.5,29.5 C 41.9,26.7 39.67,24.67 38.5,24 H 41 C 43.5,24 46.5,27 46,30 S 43.5,36.5 39,37 S 27,31.5 25.5,31.5 C 24.3,31.5 24,32 24,32.5 Z" fill="url(#a)"/>
<defs>
<linearGradient id="e" x1="7.5" x2="44.32" y1="33.91" y2="38.24" gradientUnits="userSpaceOnUse">
<stop stop-color="rgb(13, 102, 173)" offset="0"/>
<stop stop-color="rgb(35, 151, 197)" offset=".28"/>
<stop stop-color="rgb(42, 111, 162)" offset="1"/>
</linearGradient>
<linearGradient id="d" x1="39.5" x2="26.5" y1="25" y2="33.5" gradientUnits="userSpaceOnUse">
<stop stop-color="rgb(31, 138, 207)" offset="0"/>
<stop stop-color="rgb(172, 217, 235)" offset=".5"/>
<stop stop-color="rgb(20, 109, 176)" offset="1"/>
</linearGradient>
<linearGradient id="c" x1="25" x2="32" y1="21.5" y2="21.5" gradientUnits="userSpaceOnUse">
<stop stop-color="rgb(41, 177, 109)" offset="0"/>
<stop stop-color="rgb(47, 92, 137)" offset="1"/>
</linearGradient>
<linearGradient id="b" x1="31" x2="37" y1="21.5" y2="21.5" gradientUnits="userSpaceOnUse">
<stop stop-color="rgb(41, 177, 109)" offset="0"/>
<stop stop-color="rgb(48, 93, 138)" offset=".54"/>
<stop stop-color="rgb(47, 92, 137)" offset="1"/>
</linearGradient>
<linearGradient id="a" x1="43.5" x2="21.5" y1="25" y2="34" gradientUnits="userSpaceOnUse">
<stop stop-color="rgb(24, 138, 200)" offset="0"/>
<stop stop-color="rgb(43, 173, 224)" offset=".14"/>
<stop stop-color="rgb(32, 143, 211)" offset=".23"/>
<stop stop-color="rgb(92, 199, 242)" offset=".51"/>
<stop stop-color="rgb(0, 108, 179)" offset=".82"/>
<stop stop-color="rgb(66, 166, 215)" offset=".89"/>
<stop stop-color="rgb(12, 102, 164)" offset="1"/>
</linearGradient>
</defs>
</svg>
