<?xml version="1.0" encoding="UTF-8"?>
<!-- generated by Finnhub -->
<svg viewBox="0 0 55.5 55.5" xmlns="http://www.w3.org/2000/svg">
<path d="M 0,0 H 55.5 V 55.5 H 0 Z" fill="url(#a)"/>
<path d="M 49.99,27.134999999999998 A 5.28,5.28 0 0,0 44.72,22.02 L 42.99,22 L 41.27,22.02 A 5.28,5.28 0 0,0 36.01,27.15 V 28.85 A 5.28,5.28 0 0,0 41.28,33.98 A 68.64,68.64 0 0,0 44.72,33.98 A 5.28,5.28 0 0,0 49.99,28.84 V 27.15 Z M 47.38,29.16 C 47.28,30.62 46.18,31.51 44.72,31.59 C 44.47,31.61 44.09,31.66 43,31.66 C 41.9,31.66 41.53,31.61 41.28,31.59 C 39.81,31.51 38.72,30.62 38.62,29.16 A 22.16,22.16 0 0,1 38.62,26.84 C 38.72,25.38 39.82,24.48 41.28,24.4 C 41.53,24.39 41.91,24.33 43,24.33 C 44.09,24.33 44.47,24.39 44.72,24.4 C 46.19,24.48 47.28,25.38 47.38,26.84 A 21.57,21.57 0 0,1 47.38,29.16 Z M 29.79,31.5 C 31.27,31.42 32.37,30.45 32.47,29 H 35 A 5.28,5.28 0 0,1 29.8,33.87 A 52.23,52.23 0 0,1 26.32,33.87 C 23.39,33.79 21.09,31.66 21.01,28.79 V 27.1 C 21.09,24.23 23.39,22.1 26.32,22.01 A 115.54,115.54 0 0,1 29.19,22.01 H 29.79 A 5.37,5.37 0 0,1 34.99,26.99 H 32.47 A 2.77,2.77 0 0,0 29.79,24.37 L 29.62,24.36 C 29.36,24.34 28.93,24.3 28.05,24.3 C 27.18,24.3 26.75,24.34 26.49,24.36 L 26.32,24.37 C 24.84,24.45 23.74,25.34 23.64,26.78 A 21.97,21.97 0 0,0 23.64,29.08 C 23.74,30.53 24.84,31.41 26.32,31.49 L 26.51,31.51 C 26.77,31.53 27.2,31.56 28.05,31.56 C 28.91,31.56 29.34,31.53 29.6,31.51 L 29.79,31.49 Z M 32.44,29 H 28 V 27 H 32.44 A 15.34,15.34 0 0,1 32.44,29 Z M 19.99,27.15 A 5.28,5.28 0 0,0 14.72,22.02 L 13,22 L 11.28,22.02 A 5.28,5.28 0 0,0 6,27.15 V 28.85 A 5.28,5.28 0 0,0 11.27,33.98 L 13,34 V 31.72 C 11.91,31.72 11.53,31.67 11.28,31.65 C 9.81,31.57 8.72,30.62 8.62,29.16 A 22.14,22.14 0 0,1 8.62,26.84 C 8.72,25.38 9.82,24.48 11.28,24.41 C 11.53,24.39 11.91,24.34 13,24.34 C 14.09,24.34 14.47,24.39 14.71,24.41 A 2.73,2.73 0 0,1 17.37,27 H 13 V 29 H 19.99 S 20.02,28.48 19.99,27.15 Z" fill="rgb(254, 254, 253)"/>
<path d="M 17.08,30.995 L 16.5,31 L 15.9,31.01 C 15.67,31.01 15.44,31.12 15.27,31.31 C 15.1,31.51 15.01,31.78 15,32.07 V 32.93 C 15,33.21 15.1,33.48 15.28,33.68 C 15.44,33.88 15.68,33.98 15.91,33.98 L 16.47,34 L 17.07,33.98 C 17.31,33.98 17.53,33.88 17.7,33.68 C 17.87,33.48 17.97,33.21 17.97,32.93 C 18,32.64 18,32.35 17.97,32.07 C 17.97,31.78 17.87,31.52 17.71,31.32 A 0.82,0.82 0 0,0 17.08,31.02 Z" fill="rgb(254, 254, 253)"/>
<defs>
<linearGradient id="a" x1="10.42" x2="68.15" y1="9.71" y2="76.02" gradientUnits="userSpaceOnUse">
<stop stop-color="rgb(25, 29, 31)" offset="0"/>
<stop stop-color="rgb(5, 5, 8)" offset="1"/>
</linearGradient>
</defs>
</svg>
