<?xml version="1.0" encoding="UTF-8"?>
<!-- generated by Finnhub -->
<svg viewBox="0 0 55.5 55.5" xmlns="http://www.w3.org/2000/svg">
<path d="M 0,0 H 55.5 V 55.5 H 0 Z" fill="rgb(239, 242, 248)"/>
<path d="M 21.58,35.385 C 21.78,35.23 22.01,35.12 22.26,35.08 A 12.11,12.11 0 0,0 39.17,36.07 A 12.38,12.38 0 0,0 41.74,21.05 A 11.97,11.97 0 0,0 28.04,15.22 C 22.38,16.86 18.89,21.97 19.26,28.08 C 19.1,28.28 18.86,28.36 18.53,28.44 C 18.23,26.19 18.56,23.89 19.48,21.81 A 12.66,12.66 0 0,1 35.55,14.77 A 12.85,12.85 0 0,1 42.6,21.07 A 13.1,13.1 0 0,1 43.5,30.56 A 12.93,12.93 0 0,1 37.73,38.09 A 12.58,12.58 0 0,1 21.59,35.39 Z" fill="rgb(222, 122, 16)"/>
<path d="M 27.599999999999998,31.615 L 41.52,25.27 C 40.28,19.51 35.77,15.89 30.87,16.31 C 25.25,16.79 21.17,20.99 20.97,26.51 C 20.95,27.14 20.97,27.78 21.05,28.41 L 20.54,28.67 L 17.79,29.94 C 15.39,28.67 13.12,28.66 10.96,30.29 C 9.82,31.15 8.84,33.09 9.16,34.09 L 13.16,32.32 L 15.37,34.01 L 15.08,36.79 L 11,38.67 A 5.3,5.3 0 0,0 15.76,39.72 A 5.19,5.19 0 0,0 19.93,35 L 23.1,33.61 A 9.58,9.58 0 0,0 29.16,37.41 C 34.86,38.41 40.21,35.17 41.44,29.75 H 37.59 C 35.05,34.8 28.7,34.93 27.61,31.63 Z M 28.89,20.83 C 31.15,20.04 33.51,19.96 35.8,22.32 L 24.85,26.95 C 25.12,23.53 26.5,21.67 28.89,20.84 Z" fill="rgb(222, 122, 16)"/>
<path d="M 14.33,39.985 C 13.14,40 12,39.59 10.92,38.75 L 10.79,38.65 L 10.94,38.58 L 13.77,37.28 L 14.99,36.72 L 15.27,34.06 L 13.15,32.44 L 9.85,33.9 L 9.1,34.23 L 9.07,34.13 C 8.72,33.02 9.79,31.05 10.9,30.21 C 13,28.62 15.26,28.5 17.8,29.82 L 20.5,28.58 L 20.94,28.36 C 20.87,27.76 20.84,27.13 20.86,26.52 C 21.06,20.94 25.16,16.7 30.86,16.22 C 35.88,15.79 40.41,19.59 41.62,25.26 L 41.64,25.34 L 27.74,31.68 C 28.17,32.87 29.34,33.63 30.91,33.75 A 7,7 0 0,0 37.51,29.71 L 37.53,29.66 H 41.57 L 41.54,29.78 C 40.31,35.21 34.98,38.54 29.14,37.52 A 9.69,9.69 0 0,1 23.06,33.74 L 20.9,34.68 L 20.01,35.07 A 5.26,5.26 0 0,1 15.77,39.82 C 15.3,39.94 14.82,40 14.34,40 Z M 11.18,38.7 A 5.17,5.17 0 0,0 15.72,39.62 A 5.08,5.08 0 0,0 19.82,34.98 L 19.83,34.93 L 20.83,34.49 L 23.05,33.52 L 23.12,33.49 L 23.17,33.55 A 9.5,9.5 0 0,0 29.17,37.32 C 34.87,38.32 40.06,35.11 41.32,29.85 H 37.65 A 7.21,7.21 0 0,1 30.9,33.95 C 29.21,33.83 27.95,32.97 27.52,31.66 L 27.49,31.57 L 41.41,25.22 C 40.19,19.69 35.77,15.99 30.88,16.42 C 25.29,16.89 21.26,21.04 21.07,26.52 C 21.05,27.15 21.07,27.78 21.15,28.41 L 21.16,28.48 L 20.59,28.76 L 17.79,30.04 L 17.75,30.02 C 15.27,28.71 13.07,28.82 11.03,30.36 C 9.93,31.19 9.03,32.98 9.23,33.95 L 9.78,33.71 C 10.88,33.21 12,32.72 13.12,32.23 L 13.18,32.21 L 13.22,32.24 L 15.44,33.93 L 15.49,33.96 L 15.18,36.86 L 13.86,37.46 L 11.18,38.69 Z M 24.74,27.1 L 24.75,26.94 C 25.01,23.59 26.32,21.62 28.85,20.73 C 32.57,19.43 34.64,20.97 35.87,22.24 L 35.97,22.34 L 24.74,27.1 Z M 28.92,20.92 C 26.51,21.77 25.25,23.63 24.96,26.79 L 35.63,22.28 C 33.73,20.38 31.65,19.96 28.93,20.92 Z" fill="url(#a)"/>
<defs>
<linearGradient id="a" x1="9" x2="41.64" y1="28.09" y2="28.09" gradientUnits="userSpaceOnUse">
<stop stop-color="rgb(94, 37, 2)" offset="0"/>
<stop stop-color="rgb(254, 254, 253)" offset="1"/>
</linearGradient>
</defs>
</svg>
