<?xml version="1.0" encoding="UTF-8"?>
<!-- generated by Finnhub -->
<svg viewBox="0 0 55.5 55.5" xmlns="http://www.w3.org/2000/svg">
<path d="M 0,0 H 55.5 V 55.5 H 0 Z" fill="rgb(239, 242, 248)"/>
<path d="M 28.84,9.485 C 28.99,9.5 29.1,9.4 29.1,9.25 C 29.1,9.11 28.99,9 28.85,9 A 0.25,0.25 0 0,0 28.61,9.25 C 28.61,9.39 28.71,9.51 28.85,9.51 Z M 26.76,11.9 C 26.95,11.9 27.1,11.75 27.1,11.55 C 27.1,11.35 26.95,11.2 26.76,11.2 A 0.35,0.35 0 0,0 26.42,11.55 C 26.42,11.75 26.57,11.91 26.76,11.91 Z M 29.6,13.69 C 29.83,13.69 30.03,13.49 30.03,13.24 S 29.83,12.79 29.59,12.79 S 29.16,12.99 29.16,13.24 S 29.36,13.69 29.59,13.69 Z M 26.3,15.02 A 0.6,0.6 0 0,0 26.89,14.41 A 0.6,0.6 0 0,0 26.3,13.8 A 0.6,0.6 0 0,0 25.72,14.41 C 25.72,14.75 25.98,15.02 26.3,15.02 Z M 23.56,15.38 A 0.5,0.5 0 0,0 24.04,14.88 A 0.5,0.5 0 0,0 23.56,14.38 A 0.5,0.5 0 0,0 23.08,14.88 C 23.08,15.16 23.29,15.38 23.56,15.38 Z M 31.32,17 A 0.5,0.5 0 0,0 31.8,16.5 A 0.5,0.5 0 0,0 31.32,16 A 0.5,0.5 0 0,0 30.83,16.5 C 30.83,16.78 31.05,17 31.32,17 Z M 27,18.5 C 27.42,18.5 27.75,18.15 27.75,17.72 A 0.75,0.75 0 0,0 27.01,16.95 C 26.61,16.95 26.27,17.3 26.27,17.72 C 26.27,18.15 26.6,18.49 27.01,18.49 Z M 23.1,19.42 C 23.55,19.42 23.92,19.04 23.92,18.56 A 0.84,0.84 0 0,0 23.1,17.7 A 0.84,0.84 0 0,0 22.27,18.56 C 22.27,19.04 22.64,19.42 23.1,19.42 Z M 33.77,19.7 C 34.05,19.7 34.27,19.47 34.27,19.18 A 0.51,0.51 0 0,0 33.77,18.65 C 33.5,18.65 33.27,18.89 33.27,19.18 C 33.27,19.47 33.5,19.7 33.77,19.7 Z M 20.37,19.73 C 20.55,19.73 20.71,19.58 20.71,19.38 C 20.71,19.18 20.55,19.02 20.37,19.02 A 0.35,0.35 0 0,0 20.02,19.38 C 20.02,19.58 20.18,19.73 20.37,19.73 Z M 28.76,21.83 C 29.22,21.83 29.59,21.43 29.59,20.96 A 0.85,0.85 0 0,0 28.76,20.09 A 0.85,0.85 0 0,0 27.92,20.96 C 27.92,21.44 28.3,21.83 28.76,21.83 Z M 23.84,23.27 C 24.42,23.27 24.89,22.77 24.89,22.17 C 24.89,21.56 24.42,21.07 23.84,21.07 C 23.26,21.07 22.78,21.56 22.78,22.17 C 22.78,22.77 23.26,23.27 23.84,23.27 Z M 36.2,22.39 C 36.46,22.39 36.68,22.16 36.68,21.89 C 36.68,21.61 36.46,21.39 36.2,21.39 A 0.49,0.49 0 0,0 35.72,21.89 C 35.72,22.16 35.94,22.39 36.2,22.39 Z M 19.9,23.64 A 0.6,0.6 0 0,0 20.5,23.02 A 0.6,0.6 0 0,0 19.9,22.4 A 0.6,0.6 0 0,0 19.32,23.02 C 19.32,23.36 19.58,23.64 19.91,23.64 Z M 31.2,24.56 A 0.9,0.9 0 0,0 32.08,23.64 A 0.9,0.9 0 0,0 31.19,22.71 A 0.9,0.9 0 0,0 30.31,23.64 C 30.31,24.14 30.71,24.56 31.19,24.56 Z M 17.81,24.1 C 17.95,24.1 18.06,23.98 18.06,23.84 A 0.25,0.25 0 0,0 17.81,23.58 A 0.25,0.25 0 0,0 17.56,23.84 C 17.56,23.98 17.67,24.09 17.81,24.09 Z M 25.56,26.65 A 1.2,1.2 0 0,0 26.74,25.42 A 1.2,1.2 0 0,0 25.56,24.2 A 1.2,1.2 0 0,0 24.39,25.42 C 24.39,26.1 24.92,26.65 25.56,26.65 Z M 37.95,25.59 C 38.19,25.59 38.39,25.39 38.39,25.13 C 38.39,24.88 38.19,24.67 37.95,24.67 S 37.51,24.87 37.51,25.13 C 37.51,25.38 37.71,25.59 37.95,25.59 Z M 33.63,27.24 C 34.09,27.24 34.46,26.85 34.46,26.37 A 0.85,0.85 0 0,0 33.63,25.51 A 0.85,0.85 0 0,0 32.8,26.37 C 32.8,26.85 33.17,27.24 33.63,27.24 Z M 20.65,27.44 C 21.05,27.44 21.39,27.09 21.39,26.66 A 0.76,0.76 0 0,0 20.65,25.88 A 0.76,0.76 0 0,0 19.9,26.66 C 19.9,27.09 20.24,27.44 20.65,27.44 Z M 28.02,29.4 C 28.7,29.4 29.25,28.83 29.25,28.13 C 29.25,27.43 28.7,26.85 28.02,26.85 C 27.35,26.85 26.8,27.42 26.8,28.13 C 26.8,28.83 27.35,29.4 28.02,29.4 Z M 17.35,27.87 C 17.55,27.87 17.7,27.71 17.7,27.51 C 17.7,27.31 17.54,27.14 17.35,27.14 C 17.15,27.14 17,27.3 17,27.51 C 17,27.71 17.16,27.87 17.35,27.87 Z M 38.67,29.11 C 38.85,29.11 39,28.96 39,28.77 C 39,28.57 38.85,28.42 38.67,28.42 A 0.34,0.34 0 0,0 38.34,28.77 C 38.34,28.96 38.48,29.11 38.67,29.11 Z M 35.38,30.38 C 35.78,30.38 36.12,30.04 36.12,29.61 A 0.76,0.76 0 0,0 35.38,28.84 C 34.98,28.84 34.64,29.18 34.64,29.61 S 34.97,30.38 35.38,30.38 Z M 22.39,30.77 C 22.85,30.77 23.22,30.38 23.22,29.91 A 0.85,0.85 0 0,0 22.39,29.04 A 0.85,0.85 0 0,0 21.56,29.91 C 21.56,30.38 21.93,30.77 22.39,30.77 Z M 30.46,32.06 A 1.2,1.2 0 0,0 31.63,30.83 A 1.2,1.2 0 0,0 30.46,29.6 A 1.2,1.2 0 0,0 29.28,30.83 C 29.28,31.51 29.81,32.06 30.46,32.06 Z M 18.07,31.6 C 18.31,31.6 18.5,31.4 18.5,31.15 S 18.3,30.69 18.07,30.69 C 17.83,30.69 17.63,30.89 17.63,31.15 C 17.63,31.4 17.83,31.6 18.07,31.6 Z M 24.82,33.52 A 0.9,0.9 0 0,0 25.69,32.61 A 0.9,0.9 0 0,0 24.82,31.7 A 0.9,0.9 0 0,0 23.95,32.61 C 23.95,33.11 24.34,33.52 24.82,33.52 Z M 38.2,32.67 C 38.33,32.67 38.44,32.56 38.44,32.41 A 0.25,0.25 0 0,0 38.2,32.16 A 0.25,0.25 0 0,0 37.95,32.41 C 37.95,32.56 38.06,32.67 38.2,32.67 Z M 36.11,33.82 C 36.42,33.82 36.67,33.56 36.67,33.23 A 0.58,0.58 0 0,0 36.11,32.64 A 0.58,0.58 0 0,0 35.55,33.24 C 35.55,33.56 35.8,33.82 36.11,33.82 Z M 32.18,35.17 C 32.77,35.17 33.25,34.67 33.25,34.07 C 33.25,33.45 32.77,32.95 32.18,32.95 C 31.6,32.95 31.12,33.45 31.12,34.06 C 31.12,34.68 31.6,35.17 32.18,35.17 Z M 19.81,34.88 A 0.5,0.5 0 0,0 20.29,34.38 A 0.5,0.5 0 0,0 19.81,33.88 A 0.5,0.5 0 0,0 19.33,34.38 C 19.33,34.66 19.55,34.88 19.81,34.88 Z M 27.27,36.19 C 27.73,36.19 28.1,35.79 28.1,35.32 A 0.85,0.85 0 0,0 27.27,34.45 A 0.85,0.85 0 0,0 26.44,35.32 C 26.44,35.8 26.81,36.19 27.27,36.19 Z M 22.25,37.6 C 22.53,37.6 22.75,37.36 22.75,37.07 C 22.75,36.77 22.53,36.54 22.25,36.54 S 21.75,36.78 21.75,37.07 C 21.75,37.37 21.97,37.6 22.25,37.6 Z M 35.65,37.24 C 35.83,37.24 35.98,37.08 35.98,36.89 C 35.98,36.69 35.83,36.54 35.65,36.54 A 0.34,0.34 0 0,0 35.31,36.89 C 35.31,37.09 35.46,37.24 35.65,37.24 Z M 32.92,38.56 C 33.38,38.56 33.75,38.17 33.75,37.69 A 0.85,0.85 0 0,0 32.92,36.83 A 0.85,0.85 0 0,0 32.09,37.69 C 32.09,38.17 32.46,38.56 32.92,38.56 Z M 29.01,39.33 C 29.42,39.33 29.75,38.99 29.75,38.56 A 0.76,0.76 0 0,0 29.01,37.78 A 0.76,0.76 0 0,0 28.27,38.56 C 28.27,38.99 28.6,39.33 29.01,39.33 Z M 24.7,40.28 C 24.97,40.28 25.18,40.06 25.18,39.78 C 25.18,39.51 24.97,39.28 24.71,39.28 A 0.49,0.49 0 0,0 24.23,39.78 C 24.23,40.06 24.45,40.28 24.71,40.28 Z M 32.46,41.88 C 32.72,41.88 32.93,41.66 32.93,41.38 C 32.93,41.11 32.73,40.89 32.46,40.89 A 0.49,0.49 0 0,0 31.98,41.39 C 31.98,41.66 32.2,41.89 32.46,41.89 Z M 29.73,42.34 C 30.04,42.34 30.3,42.08 30.3,41.74 C 30.3,41.42 30.04,41.15 29.73,41.15 A 0.58,0.58 0 0,0 29.16,41.75 C 29.16,42.08 29.41,42.35 29.73,42.35 Z M 26.44,43.47 C 26.68,43.47 26.87,43.27 26.87,43.02 S 26.67,42.57 26.44,42.57 C 26.2,42.57 26.01,42.77 26.01,43.02 S 26.2,43.47 26.44,43.47 Z M 29.26,44.89 C 29.45,44.89 29.6,44.73 29.6,44.54 C 29.6,44.34 29.45,44.19 29.26,44.19 A 0.34,0.34 0 0,0 28.93,44.54 C 28.93,44.74 29.08,44.89 29.26,44.89 Z M 26.98,46.5 C 26.89,46.62 26.91,46.79 27.02,46.86 C 27.12,46.94 27.28,46.9 27.36,46.78 C 27.44,46.65 27.42,46.49 27.31,46.42 C 27.21,46.34 27.06,46.38 26.98,46.5 Z" fill="rgb(182, 127, 56)"/>
</svg>
