<!-- by Finnhub --><svg xmlns="http://www.w3.org/2000/svg" width="56" height="56" viewBox="0 0 56 56"><path fill="#F0F3FA" d="M0 0h56v56H0z"/><path fill-rule="evenodd" d="M4.74 27a.74.74 0 0 0-.74.74v2.52c0 .4.33.74.74.74h4.4v-.57H4.86a.29.29 0 0 1-.29-.29v-2.28c0-.16.13-.29.29-.29h4.28V27h-4.4Zm-.17 1.7h4v.57h-4v-.57ZM17.03 27a.74.74 0 0 0-.74.74v2.52c0 .4.33.74.74.74h4.4v-.57h-4.29a.29.29 0 0 1-.28-.29v-.87h4v-.57h-4v-.84c0-.16.13-.29.28-.29h4.29V27h-4.4Zm-6.34 0h-.58v3.14c0 .48.39.86.86.86h4.17v-.57h-4.17a.29.29 0 0 1-.28-.29V27ZM27 27l-.82 1.58a.29.29 0 0 1-.25.15h-3.07V27h-.57v4h.57v-1.7h3.03c.1 0 .2.06.25.15L27 31h.65l-1-1.83a.29.29 0 0 1 0-.26l1-1.91H27Zm6.71 0h-5.14v.57h2.29V31h.57v-3.43h2.28V27Zm1.15 0h4c.47 0 .85.38.85.86v.57c0 .47-.38.86-.85.86h-.13L39.7 31h-.64l-.97-1.71h-2.65V31h-.57v-2.29h4c.15 0 .28-.12.28-.28v-.57a.29.29 0 0 0-.28-.29h-4V27Zm6 .86c0-.48.38-.86.85-.86h3.15c.47 0 .85.38.85.86v2.28c0 .48-.38.86-.85.86H41.7a.86.86 0 0 1-.85-.86v-2.28Zm2.78-.29h1.22c.15 0 .28.13.28.29v2.28c0 .16-.13.29-.28.29h-1.62l.97-1.93h-.85l.28-.93Zm-.12 0h-1.8a.29.29 0 0 0-.3.29v2.28c0 .16.14.29.3.29h1.4l.24-1.36h-.86l1.02-1.5Zm8.3.03V27H48a1 1 0 0 0-1 1v.3a1 1 0 0 0 1 1h2.85a.55.55 0 0 1 0 1.1h-3.6v.6H51a1 1 0 0 0 1-1v-.3a1 1 0 0 0-1-1h-2.85a.55.55 0 1 1 0-1.1h3.66Z" fill="url(#aa50hgfkx)"/><defs><linearGradient id="aa50hgfkx" x1="28" y1="27" x2="28" y2="31.08" gradientUnits="userSpaceOnUse"><stop stop-color="#F5692F"/><stop offset="1" stop-color="#EE2F32"/></linearGradient></defs></svg>