<?xml version="1.0" encoding="UTF-8"?>
<!-- generated by Finnhub -->
<svg viewBox="0 0 55.5 55.5" xmlns="http://www.w3.org/2000/svg">
<path d="M 0,0 H 55.5 V 55.5 H 0 Z" fill="rgb(114, 129, 122)"/>
<path d="M 14.02,19.305 A 3.53,3.53 0 0,0 12.28,21.62 L 19.79,17.27 L 30.32,11.17 C 29.29,10.9 28.49,10.93 27.62,11.44 C 23.12,14.11 18.58,16.74 14.03,19.32 Z M 12.51,23.12 C 11.73,23.58 11.25,24.06 11.31,25.11 L 17.58,21.48 L 17.61,21.46 L 33.84,12.06 C 33.04,11.53 32.41,11.59 31.66,12.03 C 25.29,15.77 18.92,19.46 12.51,23.12 Z M 11.75,26.48 C 11.05,26.87 10.87,27.32 11.09,28.24 L 36.78,13.34 C 36.56,13.25 36.38,13.14 36.22,13.04 C 35.88,12.83 35.61,12.66 35.19,12.9 L 31.58,14.92 C 29.77,15.92 27.96,16.93 26.17,17.97 C 24.77,18.77 23.41,19.61 22.04,20.45 A 287.39,287.39 0 0,1 11.75,26.48 Z M 37.6,15.73 L 38.94,14.96 C 38.81,14.87 38.7,14.76 38.59,14.66 C 38.31,14.4 38.08,14.18 37.59,14.46 C 36.49,15.1 35.38,15.7 34.27,16.31 A 153,153 0 0,0 30.42,18.45 C 27.92,19.91 25.43,21.39 22.95,22.87 L 17.24,26.25 L 16.42,26.73 C 14.92,27.62 13.42,28.5 11.88,29.32 C 11.13,29.72 10.94,30.14 11.29,30.9 L 11.39,30.87 L 11.56,30.81 L 18.09,27.22 L 19.82,26.3 C 20.85,25.76 21.89,25.21 22.9,24.62 C 24.28,23.82 25.63,22.98 26.98,22.14 A 430.44,430.44 0 0,1 30.21,20.15 L 34.63,17.46 C 35.6,16.88 36.59,16.31 37.6,15.73 Z M 11.67,32.56 C 11.61,32.74 11.73,32.98 11.97,33.48 L 12.21,33.35 L 12.61,33.13 C 13.24,32.78 13.87,32.43 14.5,32.1 L 18.14,30.13 C 18.94,29.7 19.76,29.29 20.57,28.87 A 82.3,82.3 0 0,0 24.82,26.62 C 26.32,25.75 27.77,24.81 29.23,23.87 A 440.14,440.14 0 0,1 38.01,18.44 L 39.77,17.4 L 40.86,16.77 L 40.4,16.3 L 40.13,16.03 L 35.25,18.64 L 33.39,19.64 L 31.81,20.47 C 30.94,20.93 30.06,21.38 29.21,21.87 A 453.48,453.48 0 0,0 22.31,26.04 L 21.43,26.57 L 19.68,27.67 A 183.26,183.26 0 0,1 12.32,32.05 C 11.92,32.27 11.72,32.39 11.67,32.56 Z M 42.34,18.84 L 41.74,17.95 L 41.08,18.31 L 39.86,18.97 C 38.43,19.76 36.99,20.54 35.54,21.3 C 34.8,21.7 34.04,22.07 33.29,22.45 C 31.94,23.13 30.59,23.81 29.29,24.56 C 27.47,25.63 25.69,26.77 23.91,27.91 A 368.5,368.5 0 0,1 16.34,32.64 C 15.43,33.19 14.51,33.72 13.58,34.25 L 12.44,34.91 L 12.69,35.43 L 12.89,35.81 C 14.99,34.68 17.03,33.58 19.09,32.51 C 19.83,32.11 20.57,31.75 21.32,31.38 C 22.48,30.8 23.64,30.22 24.77,29.58 A 186.78,186.78 0 0,0 34.35,23.68 C 35.43,22.98 36.51,22.28 37.6,21.6 C 38.6,20.98 39.63,20.4 40.67,19.8 L 42.34,18.84 Z M 14.14,37.89 L 14.24,38.03 A 15.39,15.39 0 0,1 14.97,37.61 L 17.02,36.5 C 18.12,35.9 19.21,35.3 20.32,34.72 L 22.46,33.62 A 78.01,78.01 0 0,0 31.97,28.12 C 32.86,27.56 33.74,26.99 34.63,26.44 L 35.59,25.84 C 36.76,25.1 37.93,24.37 39.1,23.66 C 40.06,23.09 41.03,22.54 42,21.98 L 43.53,21.1 L 43.46,20.93 L 43.11,20.18 L 41.81,20.88 L 36.93,23.46 L 35.02,24.41 C 33.74,25.05 32.47,25.68 31.23,26.38 A 191.22,191.22 0 0,0 24.68,30.34 L 24.4,30.51 L 21.61,32.31 C 20.57,32.99 19.52,33.68 18.46,34.34 C 17.56,34.9 16.62,35.44 15.69,35.96 L 14.21,36.82 C 14.03,36.92 13.85,37.04 13.65,37.18 L 14.15,37.89 Z M 44.02,22.49 C 44.52,23.24 44.3,23.62 43.61,23.97 C 42.26,24.69 40.93,25.47 39.61,26.27 L 39.4,26.39 L 37,27.87 L 34.62,29.35 L 33.75,29.88 C 31.45,31.28 29.15,32.68 26.83,34.04 C 25.89,34.59 24.92,35.1 23.94,35.61 L 22.33,36.46 C 21.98,36.66 21.63,36.84 21.27,37.03 C 19.73,37.86 18.2,38.69 16.69,39.56 C 16.02,39.96 15.58,39.99 15.24,39.16 L 15.39,39.06 C 15.49,38.98 15.59,38.9 15.71,38.84 L 17.09,38.04 C 18.13,37.44 19.19,36.84 20.23,36.21 C 21.15,35.65 22.07,35.07 22.98,34.48 L 24.17,33.73 L 26.27,32.38 C 27.87,31.34 29.48,30.3 31.14,29.33 C 32.52,28.53 33.94,27.81 35.36,27.09 L 37.84,25.82 L 41.48,23.85 L 43.38,22.82 L 44.02,22.48 Z M 44.68,25.05 C 45.11,25.86 44.75,26.28 44.03,26.66 C 42.25,27.63 40.5,28.66 38.75,29.7 L 33.8,32.64 C 31.12,34.24 28.45,35.84 25.76,37.41 C 24.39,38.21 22.99,38.97 21.6,39.73 L 18.34,41.53 C 17.88,41.79 17.66,41.59 17.39,41.35 C 17.28,41.25 17.16,41.13 17,41.05 L 17.35,40.85 C 17.75,40.61 18.09,40.4 18.45,40.2 L 19.61,39.52 C 20.39,39.08 21.17,38.63 21.93,38.16 C 22.95,37.55 23.96,36.93 24.96,36.31 A 410.65,410.65 0 0,1 28.76,33.97 A 94.17,94.17 0 0,1 36.35,29.54 A 189.04,189.04 0 0,0 41.14,26.94 L 44.31,25.21 L 44.58,25.09 L 44.68,25.05 Z M 19.21,42.6 L 44.93,27.7 C 45.09,28.56 45.01,29.05 44.27,29.45 C 42.27,30.53 40.31,31.69 38.35,32.85 V 32.86 C 37.18,33.56 36,34.26 34.83,34.98 C 33.13,36 31.45,37.03 29.73,38.03 C 27.91,39.08 26.06,40.1 24.21,41.13 L 20.77,43.04 C 20.3,43.3 20.02,43.11 19.68,42.88 C 19.54,42.78 19.38,42.68 19.21,42.6 Z M 44.7,30.84 C 44.74,31.84 44.31,32.36 43.55,32.79 A 2541.7,2541.7 0 0,0 24.15,44.02 C 23.39,44.46 22.81,44.32 22.08,43.93 C 29.64,39.56 37.13,35.23 44.7,30.83 Z M 43.72,34.34 A 3.35,3.35 0 0,1 41.9,36.68 A 860.1,860.1 0 0,0 28.48,44.46 C 27.58,44.99 26.74,45.17 25.64,44.82 C 31.66,41.32 37.64,37.85 43.72,34.34 Z M 40.92,38.88 A 16.6,16.6 0 0,1 31.08,44.8 L 31.04,44.72 L 31,44.64 L 40.91,38.88 Z M 24.92,11.38 L 15.13,17.05 C 16.69,14.55 21.37,11.68 24.92,11.38 Z" fill="rgb(254, 254, 253)"/>
</svg>
