<?xml version="1.0" encoding="UTF-8"?>
<!-- generated by Finnhub -->
<svg viewBox="0 0 55.5 55.5" xmlns="http://www.w3.org/2000/svg">
<path d="M 0,0 H 55.5 V 55.5 H 0 Z" fill="rgb(239, 242, 248)"/>
<path d="M 5.99,30.985 V 27 H 4.5 V 26 H 8.5 V 27 H 7 V 31 H 6 Z M 9,31 V 26 H 9.83 L 11.75,29.53 H 11.29 L 13.18,26 H 14 V 31 H 13 V 27.66 H 13.24 L 11.74,30.47 H 11.27 L 9.73,27.67 H 10 V 31 H 9 Z M 16,31 V 27 H 14.5 V 26 H 18.5 V 27 H 17 V 31 H 16 Z" fill="rgb(27, 35, 56)"/>
<path d="M 18.43,30.985 L 20.37,26 H 21.36 L 23.29,31 H 22.24 L 20.66,26.59 H 21.06 L 19.45,31 H 18.43 Z M 19.4,30 L 19.67,29 H 21.9 L 22.17,30 H 19.4 Z M 24.97,31 A 1.93,1.93 0 0,1 23,29 C 23,27.94 23.76,27 24.97,27 C 25.67,27 26.22,27.36 26.47,28 L 25.72,28.46 C 25.54,28.1 25.28,27.93 24.97,27.93 C 24.47,27.93 24,28.33 24,29 S 24.47,30.14 24.97,30.14 C 25.27,30.14 25.55,29.97 25.72,29.61 L 26.46,30.08 C 26.22,30.7 25.67,31 24.96,31 Z" fill="rgb(45, 142, 193)"/>
<path d="M 28.11,30.985 C 27.02,31 26.45,30.07 26.45,29.08 C 26.45,28.04 27.13,27.16 28.12,27.02 C 28.34,27.22 29.24,27.68 29.35,27.96 C 29.45,28.26 29.51,28.62 29.51,29.08 C 29.51,29.52 29.46,29.89 29.34,30.18 C 29.12,30.75 28.71,31 28.12,31 Z M 28.28,30.14 C 28.98,30.14 29.01,29.58 29.01,29.08 V 28 H 28.28 C 27.72,28 27.43,28.58 27.43,29.08 C 27.43,29.73 27.8,30.14 28.28,30.14 Z M 29,32.5 V 30.24 L 29.01,29.08 V 28 L 28.11,27.02 S 29.21,26.86 30.01,27.16 V 32.5 H 29.01 Z M 32.05,31.05 C 31.77,31.05 31.52,30.99 31.31,30.86 A 1.24,1.24 0 0,1 30.81,30.3 A 2.31,2.31 0 0,1 30.62,29.33 V 27 H 31.59 V 29.16 C 31.59,29.48 31.65,29.71 31.76,29.86 A 0.6,0.6 0 0,0 32.26,30.09 C 32.41,30.09 32.54,30.05 32.66,29.99 C 32.78,29.9 32.86,29.79 32.93,29.64 C 33,29.48 33,29.29 33,29.05 V 27 H 34 V 31 H 33 V 29.98 L 33.25,30.24 A 1.27,1.27 0 0,1 32.05,31.04 Z M 34.55,31 V 27 H 35.51 V 31 H 34.55 Z M 35.03,26.75 A 0.57,0.57 0 0,1 34.6,26.57 A 0.62,0.62 0 0,1 34.43,26.13 C 34.43,25.95 34.49,25.81 34.6,25.69 A 0.57,0.57 0 0,1 35.03,25.5 C 35.21,25.5 35.35,25.57 35.46,25.68 C 35.57,25.78 35.63,25.93 35.63,26.11 S 35.57,26.45 35.46,26.57 A 0.55,0.55 0 0,1 35.03,26.75 Z M 37.25,31 A 2.4,2.4 0 0,1 35.81,30.58 L 36.13,29.78 A 2.1,2.1 0 0,0 37.29,30.15 C 37.51,30.15 37.67,30.12 37.76,30.05 C 37.86,30 37.9,29.91 37.9,29.8 A 0.21,0.21 0 0,0 37.8,29.6 C 37.65,29.5 37.4,29.47 37.11,29.43 C 36.49,29.32 35.89,29.03 35.89,28.3 C 35.89,27.43 36.65,27 37.43,27 C 37.66,27 37.89,27.03 38.13,27.09 C 38.36,27.14 38.56,27.23 38.71,27.33 L 38.39,28.13 A 1.46,1.46 0 0,0 37.9,27.9 A 1.83,1.83 0 0,0 37.43,27.84 A 0.86,0.86 0 0,0 36.96,27.94 C 36.86,28.01 36.81,28.09 36.81,28.2 C 36.81,28.3 36.85,28.36 36.91,28.41 C 36.99,28.46 37.09,28.5 37.21,28.52 A 6,6 0 0,0 37.6,28.6 C 37.74,28.62 37.89,28.65 38.03,28.7 C 38.53,28.84 38.83,29.25 38.83,29.77 C 38.83,30.47 38.27,31 37.25,31 Z M 39,31 V 27 H 40 V 31 H 39 Z M 39.5,26.74 C 39.14,26.74 38.9,26.47 38.9,26.12 S 39.14,25.5 39.5,25.5 A 0.6,0.6 0 0,1 39.93,25.67 C 40.32,26.05 40.03,26.74 39.5,26.74 Z M 42.2,31 C 41.34,31 41,30.4 41,29.62 V 26 H 42 V 29.6 C 42,29.87 41.98,30.1 42.33,30.1 A 0.6,0.6 0 0,0 42.72,29.97 L 42.98,30.75 C 42.78,30.91 42.5,31 42.19,31 Z M 40.44,28 V 27 H 42.74 V 28 H 40.44 Z M 43.24,31 V 27 H 44.21 V 31 H 43.24 Z M 43.72,26.74 A 0.57,0.57 0 0,1 43.29,26.56 A 0.62,0.62 0 0,1 43.12,26.12 C 43.12,25.94 43.18,25.8 43.29,25.68 A 0.57,0.57 0 0,1 43.72,25.5 A 0.58,0.58 0 0,1 44.32,26.1 C 44.32,26.28 44.27,26.44 44.16,26.56 A 0.55,0.55 0 0,1 43.72,26.74 Z M 46.4,31 A 1.77,1.77 0 0,1 44.81,30.04 C 44.65,29.74 44.58,29.4 44.58,29.02 C 44.58,28 45.32,27 46.41,27 S 48.23,28 48.23,29.02 C 48.23,29.4 48.15,29.74 48,30.04 A 1.8,1.8 0 0,1 46.4,31 Z M 46.4,30.08 C 46.57,30.08 46.71,30.04 46.84,29.95 C 46.97,29.87 47.07,29.75 47.14,29.59 C 47.22,29.43 47.25,29.24 47.25,29.02 C 47.25,28.8 47.22,28.61 47.15,28.45 A 0.87,0.87 0 0,0 46.84,28.09 A 0.76,0.76 0 0,0 46.41,27.96 C 46.25,27.96 46.11,28 45.97,28.09 A 0.92,0.92 0 0,0 45.67,28.45 C 45.59,28.61 45.55,28.8 45.55,29.02 C 45.55,29.24 45.59,29.42 45.67,29.59 C 45.74,29.75 45.85,29.87 45.97,29.95 C 46.1,30.04 46.25,30.08 46.41,30.08 Z M 50.62,27 C 50.89,27 51.12,27.06 51.32,27.19 C 51.54,27.3 51.7,27.49 51.82,27.74 C 51.94,27.99 52,28.31 52,28.7 V 31 H 51 V 28.87 C 51,28.56 50.98,28.33 50.86,28.18 A 0.6,0.6 0 0,0 50.36,27.96 A 0.73,0.73 0 0,0 49.95,28.08 A 0.73,0.73 0 0,0 49.66,28.41 C 49.6,28.56 49.56,28.76 49.56,28.99 V 31 H 48.6 V 27 H 49.52 V 28.12 L 49.35,27.8 A 1.34,1.34 0 0,1 50.62,27 Z" fill="rgb(45, 142, 193)"/>
</svg>
