<?xml version="1.0" encoding="UTF-8"?>
<!-- generated by Finnhub -->
<svg viewBox="0 0 55.5 55.5" xmlns="http://www.w3.org/2000/svg">
<path d="M0 0h55.5v55.5H0z" fill="rgb(239, 242, 248)"/>
<path d="m20.77 30.58-7.73-4.3 5.28-3.84 7.22 4.3-4.77 3.84z" fill="url(#d)"/>
<path d="M13 19.76v6.53l20.68-12.07L28 11l-15 8.76Z" fill="url(#c)"/>
<path d="m27.87 45-12.02-6.72c3.11-2.27 9.37-6.84 9.47-6.94.11-.1 11.87-7.86 17.68-11.72v3.22S28.68 30.9 21.57 34.93l6.3 3.88L43 30.11v6.56L27.87 45Z" fill="url(#b)"/>
<path d="M13 36.48v-3.04l27.1-15.78 2.9 1.88-12.71 10.44-14.38 8.29L13 36.48Z" fill="url(#a)"/>
<defs>
<linearGradient id="d" x1="13.64" x2="24.68" y1="26.73" y2="25.57" gradientUnits="userSpaceOnUse">
<stop stop-color="rgb(24, 217, 223)" offset="0"/>
<stop stop-color="rgb(20, 143, 253)" offset="1"/>
</linearGradient>
<linearGradient id="c" x1="13.59" x2="26.9" y1="24.19" y2="12.66" gradientUnits="userSpaceOnUse">
<stop stop-color="rgb(0, 75, 253)" offset="0"/>
<stop stop-color="rgb(1, 132, 253)" offset="1"/>
</linearGradient>
<linearGradient id="b" x1="42.4" x2="16.49" y1="35.95" y2="34.93" gradientUnits="userSpaceOnUse">
<stop stop-color="rgb(252, 1, 9)" offset="0"/>
<stop stop-color="rgb(254, 184, 4)" offset=".57"/>
<stop stop-color="rgb(239, 59, 2)" offset="1"/>
</linearGradient>
<linearGradient id="a" x1="13.45" x2="39.05" y1="36.61" y2="17.25" gradientUnits="userSpaceOnUse">
<stop stop-color="rgb(1, 134, 245)" offset="0"/>
<stop stop-color="rgb(1, 230, 253)" offset="1"/>
</linearGradient>
</defs>
</svg>
