<?xml version="1.0" encoding="UTF-8"?>
<!-- generated by Finnhub -->
<svg viewBox="0 0 55.5 55.5" xmlns="http://www.w3.org/2000/svg">
<path d="M 0,0 H 55.5 V 55.5 H 0 Z" fill="rgb(239, 242, 248)"/>
<path d="M 49.99,25.805 V 27.07 H 52 V 27.87 H 50 V 29.18 H 52 V 30 H 49 V 25 H 52 V 25.82 H 50 Z M 47.26,30 L 46.08,28.05 H 45.5 V 30 H 44.5 V 25 H 46.5 C 46.92,25 47.27,25.07 47.57,25.2 A 1.44,1.44 0 0,1 48.13,27.43 C 47.93,27.69 47.63,27.87 47.22,27.97 L 48.5,30 H 47.26 Z M 45.5,27.3 H 46.47 C 46.77,27.3 46.97,27.23 47.12,27.1 A 0.72,0.72 0 0,0 47.34,26.55 C 47.34,26.33 47.26,26.15 47.12,26.02 C 46.98,25.9 46.76,25.83 46.47,25.83 H 45.5 V 27.3 Z M 41,25 V 28.06 C 41,28.4 41.08,28.66 41.26,28.84 A 1,1 0 0,0 41.99,29.1 C 42.31,29.1 42.56,29.01 42.74,28.84 C 42.91,28.66 43,28.4 43,28.06 V 25 H 44 V 28.06 C 44,28.48 43.9,28.83 43.72,29.13 C 43.54,29.42 43.3,29.63 42.99,29.78 C 42.69,29.93 42.35,30 41.98,30 S 41.28,29.93 40.98,29.78 C 40.68,29.63 40.44,29.42 40.26,29.13 C 40.09,28.83 40,28.48 40,28.06 V 25 H 41 Z M 39.5,25 V 25.8 H 38 V 30 H 37 V 25.81 H 35.5 V 25 H 39.5 Z M 32,25 V 28.06 C 32,28.73 32.35,29.1 33,29.1 C 33.64,29.1 34,28.73 34,28.06 V 25 H 35 V 28.06 C 35,29.22 34.12,30 32.98,30 C 31.83,30 31,29.21 31,28.06 V 25 H 32 Z M 30,25 V 25.8 H 28 V 27.1 H 30 V 27.89 H 28 V 30 H 27 V 25 H 30 Z M 21.6,25 C 23.04,25 24,26.1 24,27.5 C 24,28.92 23.04,30 21.6,30 H 20 V 25 H 21.6 Z M 21.56,29.15 C 22.52,29.15 23,28.55 23,27.51 C 23,26.46 22.52,25.85 21.56,25.85 H 21 V 29.15 H 21.56 Z M 17,25.82 V 27.07 H 19 V 27.87 H 17 V 29.18 H 19 V 30 H 16 V 25 H 19 V 25.82 H 17 Z M 15,25 V 30 H 14 V 26.75 L 12.85,30 H 12.15 L 11,26.75 V 30 H 10 V 25 H 11 L 12.5,28.72 L 14,25 H 15 Z M 5,25.82 V 27.07 H 6.78 V 27.87 H 5 V 29.18 H 7 V 30 H 4 V 25 H 7 V 25.82 H 5 Z"/>
</svg>
