<?xml version="1.0" encoding="UTF-8"?>
<!-- generated by Finnhub -->
<svg viewBox="0 0 55.5 55.5" xmlns="http://www.w3.org/2000/svg">
<path d="M 0,0 H 55.5 V 55.5 H 0 Z" fill="rgb(239, 242, 248)"/>
<path d="M 12.61,31.785 L 11.06,28.56 L 32.25,17 V 17.87 L 36.78,16.82 L 33.98,18.97 L 37.21,18.57 L 14.3,31.8 V 31.05 L 12.61,31.8 Z" fill="rgb(230, 119, 15)"/>
<path d="M 8.55,40.985 L 7,35.99 L 38.46,17.82 L 37.71,19.14 L 46.67,14 V 15.15 L 49,14.47 L 41,19.85 L 42.23,20.9 L 8.56,41 Z" fill="rgb(107, 95, 157)"/>
<path d="M 15.94,39.135 L 15.45,38.25 L 18.14,36.49 L 17.61,35.61 L 39.3,22.65 L 39.54,23.72 L 39.92,23.47 L 40.23,23.88 L 44.57,21.35 L 40.41,25.7 L 42.56,24.9 L 41.84,26.25 L 44.34,24.9 L 24.29,39.7 L 22.92,38.39 L 24.77,36.29 L 23.87,34.93 L 15.97,39.15 Z" fill="rgb(1, 145, 59)"/>
<path d="M 22.509999999999998,22.485 V 26 H 18 C 17.35,26 17,26.53 17,27.17 V 28 C 17,28.65 17.35,29 18,29 H 22.52 V 32.39 H 17.82 C 15.32,32.39 14,31.37 14,28.89 V 26 C 14,23.52 15.31,22.5 17.82,22.5 H 22.52 Z M 31.5,22.5 V 32.5 H 26.81 C 24.51,32.5 23,30.93 23,28.36 V 26.75 C 23,24.17 24.61,22.5 26.92,22.5 H 31.5 Z M 28.18,29.16 V 29.03 H 26.8 C 26.98,29.11 27.17,29.16 27.35,29.16 H 28.18 Z M 26,27.09 C 26,26.77 26.17,26.49 26.4,26.27 V 28.77 C 26.17,28.56 26,28.27 26,27.95 V 27.09 Z M 35.35,32.5 H 31.9 L 35.75,22.5 H 39.33 L 43.12,32.5 H 36 V 31.04 L 35.35,32.5 Z M 38.15,29 H 36.73 L 37.46,27.3 L 38.16,29 Z" fill="rgb(239, 242, 248)" fill-rule="evenodd"/>
<path d="M 14.290000000000001,26.275 C 14.3,24.27 15.83,23 17.71,23 H 22.04 V 23.7 H 17.7 C 16.24,23.7 14.99,24.72 14.99,26.29 V 28.78 C 14.99,30.35 16.24,31.3 17.7,31.3 H 22 V 32 H 17.71 C 15.83,32 14.3,30.8 14.3,28.78 V 26.28 Z M 23.3,26.66 C 23.3,24.64 24.8,23 26.67,23 H 31 V 23.7 H 26.67 C 25.21,23.7 24,25.09 24,26.66 V 28.34 C 24,29.91 25.21,31.3 26.67,31.3 H 30.3 V 27.25 H 27 V 26.44 H 31 V 32 H 26.67 C 24.79,32 23.3,30.36 23.3,28.34 V 26.66 Z"/>
<path d="M 15.290000000000001,27.485 C 15.3,25.7 15.71,24.3 17.42,24.3 H 22 V 25 H 17.42 C 16.13,25 16,26.14 16,27.5 C 16,28.87 16.13,30 17.42,30 H 22 V 30.7 H 17.42 C 15.72,30.7 15.3,29.32 15.3,27.5 Z M 24.6,26.78 A 2.6,2.6 0 0,1 27.26,24.2 H 31 V 25 H 27.26 C 26.21,25 25.36,25.74 25.36,26.78 V 28.37 C 25.36,29.4 26.21,30 27.26,30 H 29 V 28.37 H 27 V 27.62 H 29.7 V 30.7 H 27.26 C 25.8,30.7 24.61,29.81 24.61,28.37 V 26.77 Z M 32.9,32 H 33.82 L 36.93,23.7 H 38.35 L 41.11,31.3 H 37 V 32 H 42.42 L 39.02,23 H 36.33 L 32.91,32 Z M 34.2,32 H 35.12 L 37.62,25.53 L 39.14,30 H 37 V 30.7 H 40.49 L 38.1,24.23 H 37.17 L 34.2,32 Z"/>
</svg>
