<?xml version="1.0" encoding="UTF-8"?>
<!-- generated by Finnhub -->
<svg viewBox="0 0 55.5 55.5" xmlns="http://www.w3.org/2000/svg">
<path d="M 0,0 H 55.5 V 55.5 H 0 Z" fill="rgb(239, 242, 248)"/>
<path d="M 27.99,36.985 A 9,9 0 1,0 28,19 A 9,9 0 0,0 28,37 Z M 28,34 A 6,6 0 1,0 28,22 A 6,6 0 0,0 28,34 Z" fill="rgb(189, 230, 228)" fill-rule="evenodd"/>
<path d="M 29.99,10.985 H 26 V 14.14 A 14,14 0 0,0 14.14,26 H 11 V 30 H 14.14 A 14,14 0 0,0 26,41.86 V 45 H 30 V 41.86 C 33.06,41.42 35.8,39.99 37.89,37.91 L 34.95,35.19 A 10,10 0 0,1 18.2,30 H 24.54 A 4,4 0 1,0 24.54,26 H 18.2 A 10,10 0 0,1 35.06,20.92 A 30.14,30.14 0 0,0 37.83,18.16 L 38.02,18.22 A 13.96,13.96 0 0,0 30,14.14 V 11 Z M 41,26 V 30 H 45 V 26 H 41 Z" fill="rgb(36, 172, 168)"/>
</svg>
