<!-- by Finnhub --><svg width="56" height="56" viewBox="0 0 56 56" xmlns="http://www.w3.org/2000/svg"><path fill="#F0F3FA" d="M0 0h56v56H0z"/><path d="M11.07 22.19 13 20.25l22.8 22.82L33.89 45 11.07 22.19Zm9.11-9.26L22.12 11l22.81 22.81L43 35.75l-22.8-22.82Z" fill="#36499B"/><path d="M22.19 44.93 20.25 43l22.82-22.8L45 22.11 22.19 44.93Zm-9.26-9.11L11 33.88l22.81-22.81L35.75 13l-22.82 22.8Z" fill="#36499B"/><path d="m16.38 18.46 1.94-1.94 6.23 6.24-1.93 1.94-6.24-6.24Zm14.78 14.5L33.09 31l6.24 6.25-1.93 1.93-6.24-6.24Zm-12.7 6.37-1.94-1.93 6.24-6.24 1.94 1.93-6.24 6.24Zm14.5-14.78L31 22.62l6.25-6.24 1.93 1.94-6.24 6.23Z" fill="#36499B"/></svg>