<?xml version="1.0" encoding="UTF-8"?>
<!-- generated by Finnhub -->
<svg viewBox="0 0 55.5 55.5" xmlns="http://www.w3.org/2000/svg">
<path d="M 0,0 H 55.5 V 55.5 H 0 Z" fill="rgb(239, 242, 248)"/>
<path d="M 17.95,26.884999999999998 L 25.57,15 H 25.58 A 23.23,23.23 0 0,0 27.63,17.63 C 27.82,17.83 28.02,18.01 28.23,18.17 C 28.39,18.29 28.55,18.38 28.71,18.44 A 3.75,3.75 0 0,0 30.13,18.57 L 30.28,18.55 A 20.23,20.23 0 0,1 31.18,18.48 C 31.38,18.48 31.56,18.51 31.71,18.56 C 31.97,18.64 32.09,18.83 32.09,19.1 C 32.09,19.25 32.06,19.39 32.01,19.52 A 0.92,0.92 0 0,1 31.45,20.08 C 31.22,20.17 30.95,20.2 30.64,20.17 A 3.24,3.24 0 0,1 29.8,19.97 A 3.03,3.03 0 0,1 29.38,19.72 C 28.98,19.46 28.59,19.17 28.2,18.87 A 242.9,242.9 0 0,1 25.77,16.92 L 22.76,20.9 V 20.91 A 73.3,73.3 0 0,1 24.96,21.86 A 57.33,57.33 0 0,1 26.86,22.98 L 26.36,23.53 H 26.35 C 25.77,23.19 25.16,22.88 24.53,22.6 A 13.87,13.87 0 0,0 22.08,21.8 L 17.9,27.3 A 8.15,8.15 0 0,0 17.02,26.07 C 16.92,25.97 16.77,25.89 16.59,25.84 A 1.79,1.79 0 0,0 15.92,25.79 C 16.12,25.74 16.32,25.74 16.52,25.76 A 1.48,1.48 0 0,1 17.46,26.26 A 5.3,5.3 0 0,1 17.96,26.89 Z" fill="rgb(110, 185, 42)"/>
<path d="M 21.52,17.185 A 1.24,1.24 0 0,1 20.8,17.92 C 21,17.82 21.16,17.67 21.27,17.48 A 1.66,1.66 0 0,0 21.46,16.28 A 4.58,4.58 0 0,1 22.4,17.65 C 22.44,17.78 22.47,17.89 22.48,17.98 A 1.03,1.03 0 0,1 22.35,18.61 A 0.74,0.74 0 0,1 22.08,18.89 A 0.87,0.87 0 0,1 21.69,19 C 21.52,19.01 21.35,19 21.19,18.96 A 3.9,3.9 0 0,1 20.19,18.54 C 20.5,18.67 20.83,18.76 21.19,18.79 C 21.35,18.81 21.51,18.8 21.66,18.77 A 0.64,0.64 0 0,0 21.98,18.61 A 0.52,0.52 0 0,0 22.13,18.31 A 0.75,0.75 0 0,0 22.07,17.91 A 1.56,1.56 0 0,0 21.87,17.55 A 3.44,3.44 0 0,0 21.53,17.19 Z M 14.71,20.6 V 20.59 L 12.63,20.45 A 845.78,845.78 0 0,0 15.78,20.23 A 6.18,6.18 0 0,1 18.38,20.22 L 18.51,20.25 A 4.16,4.16 0 0,1 19.47,20.59 A 6.13,6.13 0 0,0 14,21.9 A 6.42,6.42 0 0,0 12.91,23.21 L 12.88,23.27 L 12.76,23.47 A 5.68,5.68 0 0,0 14.13,30.56 A 5.66,5.66 0 0,0 19.38,31.6 A 6.13,6.13 0 0,0 22.6,29.35 A 5.77,5.77 0 0,1 18.36,32.53 A 6.34,6.34 0 0,1 15.29,32.28 A 6.33,6.33 0 0,1 12.96,30.84 L 12.89,30.77 A 15.78,15.78 0 0,1 12.38,30.19 A 6.71,6.71 0 0,1 11.1,27.08 A 5.3,5.3 0 0,1 11.06,25.93 A 6.27,6.27 0 0,1 12.82,21.9 L 8,21.62 L 13.48,21.32 L 13.51,21.3 L 13.79,21.1 C 14.08,20.9 14.39,20.74 14.71,20.6 Z" fill="rgb(78, 69, 66)"/>
<path d="M 27.639999999999997,31.205 C 26.91,30.29 26.25,29.4 25.67,28.53 C 25.41,28.15 25.19,27.77 24.99,27.4 A 4.21,4.21 0 0,1 24.69,26.7 A 1.18,1.18 0 0,1 24.63,26.34 C 24.63,26.26 24.66,26.17 24.71,26.09 C 24.81,25.96 24.89,25.84 24.98,25.74 A 27.21,27.21 0 0,1 26.36,24.14 A 199.62,199.62 0 0,1 29.74,20.49 L 29.64,23.65 L 29.62,23.67 A 52.36,52.36 0 0,0 27.48,25.44 A 11.79,11.79 0 0,0 26.73,26.18 A 0.62,0.62 0 0,0 26.59,26.52 C 26.57,26.67 26.59,26.83 26.62,27 C 26.67,27.23 26.75,27.46 26.85,27.69 A 7.48,7.48 0 0,0 27.44,28.78 A 205.66,205.66 0 0,1 27.49,29.63 A 178.94,178.94 0 0,0 27.73,30.4 A 40.01,40.01 0 0,1 27.65,31.22 Z" fill="rgb(110, 185, 42)"/>
<path d="M 38.03,31.655 A 1.1,1.1 0 0,1 38.14,31.64 H 38.24 A 0.46,0.46 0 0,1 38.54,31.69 H 38.56 L 39.28,31.29 V 31.3 L 39.42,31.58 L 38.8,31.92 A 1.67,1.67 0 0,1 39.06,32.42 L 39.65,32.1 L 39.79,32.38 V 32.39 L 39.12,32.75 V 32.76 A 0.67,0.67 0 0,1 38.82,33.31 L 38.52,33.47 A 38.81,38.81 0 0,1 37.42,33.96 C 37.22,33.85 37.02,33.76 36.79,33.72 A 1.77,1.77 0 0,0 35.81,33.79 C 35.5,33.89 35.17,33.97 34.83,34.05 A 8.71,8.71 0 0,1 32.67,34.27 A 8.45,8.45 0 0,1 30.8,34 A 16.72,16.72 0 0,1 28.38,33.14 C 27.63,33.5 26.86,33.74 26.06,33.89 A 6.08,6.08 0 0,1 23.31,33.75 C 22.65,33.57 22.19,33.28 21.93,32.88 A 1.59,1.59 0 0,1 21.65,31.98 C 21.65,31.68 21.75,31.39 21.93,31.15 C 22.12,30.91 22.36,30.75 22.66,30.65 C 22.86,30.59 23.06,30.55 23.28,30.55 C 23.53,30.55 23.76,30.57 23.98,30.61 C 24.24,30.66 24.49,30.74 24.74,30.83 C 25.21,31.01 25.71,31.23 26.24,31.48 L 26.63,31.68 A 104.11,104.11 0 0,0 28.5,32.55 A 11,11 0 0,0 30.85,30.92 A 20.87,20.87 0 0,0 33.07,28.62 A 6.36,6.36 0 0,0 32.05,26.89 C 31.74,26.5 31.37,26.07 30.95,25.6 A 79.79,79.79 0 0,0 29.75,24.31 L 30.18,24.41 C 30.63,24.54 31.08,24.68 31.53,24.85 A 9.13,9.13 0 0,1 33.9,26.15 C 34.2,26.33 34.5,26.46 34.85,26.55 C 35.25,26.66 35.73,26.73 36.31,26.75 A 234.75,234.75 0 0,0 37.79,26.83 A 6.7,6.7 0 0,1 38.91,27.01 A 6.31,6.31 0 0,1 41.39,28.32 C 41.41,28.34 41.41,28.34 41.39,28.32 A 3.27,3.27 0 0,0 40.66,28.02 A 6.77,6.77 0 0,0 38.17,27.79 C 37.81,27.82 37.45,27.88 37.07,27.95 A 24.12,24.12 0 0,0 33.87,28.87 C 33.32,29.48 32.78,30.04 32.25,30.55 A 14.92,14.92 0 0,1 30.27,32.12 A 19.63,19.63 0 0,1 29.07,32.82 C 29.77,33.13 30.49,33.41 31.21,33.64 C 31.55,33.75 31.91,33.84 32.31,33.9 C 32.61,33.95 32.95,33.97 33.31,33.94 C 33.61,33.93 33.93,33.88 34.31,33.81 A 4.23,4.23 0 0,0 36.05,33.06 A 1.86,1.86 0 0,0 36.65,32.31 L 37.01,32.14 H 37.02 L 37.62,33.54 A 8.94,8.94 0 0,0 38.74,33.11 C 38.79,33.08 38.84,33.04 38.87,32.99 C 38.98,32.79 39,32.57 38.92,32.32 A 1.48,1.48 0 0,0 38.53,31.75 A 0.34,0.34 0 0,0 38.41,31.67 A 0.51,0.51 0 0,0 38.27,31.65 H 38.21 L 38.15,31.66 L 38.09,31.67 L 38.04,31.68 Z M 27.84,32.89 L 25.94,31.99 C 25.54,31.79 25.09,31.59 24.58,31.35 A 3.2,3.2 0 0,0 23.56,31.05 C 23.41,31.05 23.28,31.05 23.16,31.09 A 0.78,0.78 0 0,0 22.8,31.29 A 0.73,0.73 0 0,0 22.6,31.88 C 22.6,32.02 22.64,32.17 22.7,32.31 A 2.01,2.01 0 0,0 23.81,33.39 A 3.64,3.64 0 0,0 26.5,33.46 A 10,10 0 0,0 27.84,32.89 Z" fill="rgb(110, 185, 42)"/>
<path d="M 32.18,28.884999999999998 A 45.08,45.08 0 0,0 30.4,26.7 A 18.17,18.17 0 0,0 28.67,25.03 L 29.11,24.69 C 29.81,25.41 30.43,26.17 30.96,26.96 A 59.2,59.2 0 0,1 32.19,28.89 Z" fill="rgb(110, 185, 42)"/>
<path d="M 20.09,28.645 A 2.44,2.44 0 0,0 20.86,26.52 A 4.13,4.13 0 0,0 20.84,26.32 C 21.04,26.69 21.1,27.1 21.01,27.52 C 20.96,27.72 20.88,27.9 20.77,28.08 C 20.6,28.34 20.38,28.54 20.11,28.67 C 20.08,28.68 20.08,28.67 20.1,28.66 Z M 40.38,36.4 A 830.83,830.83 0 0,0 42.31,36.55 A 1407.73,1407.73 0 0,0 39.36,36.77 L 39.21,36.8 A 3.98,3.98 0 0,1 35.88,35.91 A 4.58,4.58 0 0,0 38.3,36.52 A 3.97,3.97 0 0,0 41.63,34.3 A 3.77,3.77 0 0,0 41.73,31.2 A 3.9,3.9 0 0,0 37.69,28.77 A 4.21,4.21 0 0,0 35.62,29.57 A 3.92,3.92 0 0,1 39.1,28.43 A 4.14,4.14 0 0,1 42.12,30.59 A 4.4,4.4 0 0,1 42.63,32.81 A 4.3,4.3 0 0,1 41.85,35.11 L 46.25,35.39 A 2773.42,2773.42 0 0,0 41.33,35.7 A 3.02,3.02 0 0,1 40.81,36.14 A 5.17,5.17 0 0,1 40.38,36.41 Z" fill="rgb(78, 69, 66)"/>
<path d="M 44.730000000000004,32.055 A 2.25,2.25 0 0,1 44.59,31.5 C 44.56,31.3 44.57,31.11 44.6,30.93 C 44.63,30.83 44.68,30.73 44.78,30.63 A 0.98,0.98 0 0,1 45.06,30.43 A 0.45,0.45 0 0,1 45.19,30.39 C 45.2,30.39 45.21,30.39 45.21,30.41 L 45.26,30.54 L 45.32,30.7 L 45.35,30.85 C 45.39,31.23 45.28,31.55 45.01,31.8 L 44.74,32.07 Z M 48.4,32.2 C 48.54,32.38 48.65,32.59 48.73,32.8 A 61,61 0 0,1 48.99,33.61 C 48.79,33.63 48.57,33.61 48.35,33.59 C 47.95,33.54 47.56,33.39 47.22,33.17 C 47.1,33.09 47.02,33.01 46.95,32.92 A 1.47,1.47 0 0,1 46.75,32.54 C 46.65,32.26 46.61,31.98 46.62,31.7 L 46.65,31.58 C 46.65,31.56 46.67,31.55 46.69,31.56 H 46.92 L 47.15,31.55 C 47.31,31.54 47.49,31.58 47.72,31.67 C 48,31.79 48.22,31.97 48.4,32.2 Z M 46.17,34.36 A 3.3,3.3 0 0,1 45.89,34.11 A 2.15,2.15 0 0,1 45.34,33.21 A 0.79,0.79 0 0,1 45.32,32.86 C 45.35,32.65 45.43,32.45 45.55,32.27 A 0.44,0.44 0 0,1 45.64,32.17 H 45.66 C 45.74,32.27 45.83,32.33 45.93,32.4 L 46.06,32.53 C 46.14,32.63 46.21,32.75 46.26,32.88 C 46.38,33.17 46.4,33.5 46.3,33.88 A 43.94,43.94 0 0,0 46.17,34.36 Z M 42.96,32.88 C 43.2,32.68 43.44,32.58 43.68,32.54 C 43.78,32.52 43.88,32.51 43.94,32.52 C 44.04,32.52 44.14,32.57 44.24,32.66 C 44.32,32.73 44.4,32.82 44.46,32.93 C 44.49,32.97 44.51,33.02 44.52,33.06 L 44.51,33.09 A 26.98,26.98 0 0,0 44.21,33.29 A 0.81,0.81 0 0,1 43.65,33.36 A 0.85,0.85 0 0,1 43.32,33.2 A 7.03,7.03 0 0,1 42.96,32.88 Z" fill="rgb(110, 185, 42)"/>
<path d="M 21.009999999999998,36.085 A 979.88,979.88 0 0,1 34.02,36.2 A 529.52,529.52 0 0,1 21.02,36.31 A 972.75,972.75 0 0,1 8.02,36.21 A 533.73,533.73 0 0,1 21.02,36.1 Z M 35.5,36.55 A 109.63,109.63 0 0,1 33.12,36.58 H 32.95 A 4806.68,4806.68 0 0,1 24.05,36.61 A 3837.26,3837.26 0 0,1 12.27,36.55 H 12.3 L 14.37,36.53 H 14.71 A 904.6,904.6 0 0,1 24.36,36.49 A 7299.38,7299.38 0 0,1 35.5,36.55 Z M 15.35,36.88 A 241.39,241.39 0 0,1 20.79,36.94 L 20.14,36.95 A 240.63,240.63 0 0,1 9.9,36.94 L 10.56,36.93 C 12.16,36.89 13.76,36.88 15.35,36.88 Z" fill="rgb(78, 69, 66)"/>
</svg>
