<?xml version="1.0" encoding="UTF-8"?>
<!-- generated by Finnhub -->
<svg viewBox="0 0 55.5 55.5" xmlns="http://www.w3.org/2000/svg">
<path d="M 0,0 H 55.5 V 55.5 H 0 Z" fill="rgb(239, 242, 248)"/>
<path d="M 18.83,18.805 C 18.87,17.68 19.27,16.72 20.06,15.97 C 21.56,14.54 23.83,13.56 26.9,13.02 C 29.21,12.62 31.53,12.42 33.85,12.41 C 33.93,12.41 33.97,12.37 33.97,12.29 V 11.07 C 33.97,11.02 33.94,11 33.88,11 C 30.11,11.3 26.76,11.95 23.84,12.95 C 20.03,14.25 18.17,16.21 18.27,18.85 C 18.27,18.97 18.34,19.03 18.47,19.03 H 18.62 C 18.76,19.03 18.83,18.96 18.84,18.83 Z" fill="rgb(154, 20, 108)"/>
<path d="M 22.08,16.455 A 6.9,6.9 0 0,0 18.83,19.28 C 18.45,19.91 18.25,20.68 18.24,21.58 C 18.24,21.68 18.28,21.75 18.36,21.78 L 18.47,21.82 C 18.67,21.89 18.79,21.83 18.8,21.66 C 18.9,20.04 19.7,18.78 21.16,17.87 A 13.67,13.67 0 0,1 24.81,16.3 A 35.3,35.3 0 0,1 33.84,15.19 C 33.92,15.19 33.96,15.15 33.96,15.07 V 13.97 C 33.96,13.91 33.94,13.89 33.88,13.89 C 29.7,14.01 25.76,14.87 22.08,16.47 Z M 26.41,22.91 A 3.6,3.6 0 0,0 25.94,24.89 C 25.94,25 25.89,25.06 25.77,25.06 H 25.63 C 25.43,25.06 25.33,24.96 25.33,24.76 C 25.29,23.56 25.73,22.46 26.66,21.46 A 8.3,8.3 0 0,1 29.73,19.44 A 33.75,33.75 0 0,1 40.93,17.1 C 41,17.1 41.03,17.13 41.03,17.2 V 18.3 C 41.03,18.39 40.99,18.43 40.89,18.43 C 38.39,18.38 35.81,18.65 33.16,19.22 C 29.7,19.97 27.45,21.2 26.41,22.92 Z" fill="rgb(154, 20, 108)"/>
<path d="M 18.479999999999997,24.505 C 18.23,24.21 18.17,23.8 18.31,23.29 C 18.93,20.98 21.03,19.27 24.61,18.17 A 37.67,37.67 0 0,1 33.79,16.56 C 33.9,16.56 33.96,16.6 33.96,16.71 V 17.6 C 33.96,17.72 33.89,17.79 33.77,17.8 L 28.86,18.2 C 27.8,18.27 26.09,18.65 23.73,19.33 C 23.57,19.37 23.53,19.47 23.6,19.62 L 23.75,19.95 C 23.8,20.05 23.82,20.16 23.8,20.27 A 5.45,5.45 0 0,1 21,24.31 C 19.4,25.28 17.6,25.99 15.62,26.45 A 51.1,51.1 0 0,1 8.12,27.61 C 8.04,27.61 8,27.58 8,27.51 V 26.29 C 8,26.21 8.05,26.17 8.13,26.17 C 11.76,26.26 15.19,25.77 18.43,24.72 C 18.54,24.68 18.56,24.61 18.49,24.52 Z M 20.25,21.24 A 4.24,4.24 0 0,0 18.84,24.28 C 18.84,24.38 18.88,24.44 18.98,24.44 A 8.5,8.5 0 0,0 21.77,22.83 A 4.26,4.26 0 0,0 23.17,19.79 C 23.18,19.66 23.12,19.61 23,19.63 C 22.65,19.7 22.16,19.93 21.54,20.31 C 20.97,20.65 20.54,20.96 20.25,21.24 Z M 26.07,24.96 A 9.47,9.47 0 0,1 30.62,21.86 C 33.88,20.72 37.32,20.06 40.94,19.92 C 41,19.92 41.03,19.94 41.03,20 V 21.07 C 41.03,21.14 40.99,21.17 40.93,21.17 C 37.78,21.18 34.76,21.57 31.88,22.32 C 30.51,22.67 29.28,23.2 28.19,23.9 C 26.72,24.85 25.96,26.07 25.91,27.57 C 25.9,27.73 25.81,27.82 25.64,27.82 H 25.5 C 25.42,27.82 25.38,27.78 25.37,27.7 A 3.8,3.8 0 0,1 26.07,24.96 Z" fill="rgb(154, 20, 108)"/>
<path d="M 21.069999999999997,26.945 C 22.94,25.72 23.84,24.23 23.77,22.48 C 23.77,22.41 23.73,22.38 23.65,22.38 H 23.51 C 23.31,22.38 23.2,22.48 23.18,22.67 A 4.2,4.2 0 0,1 21.41,25.8 C 20.38,26.57 19.41,27.1 18.51,27.39 A 34.9,34.9 0 0,1 8.15,28.97 C 8.05,28.97 8.01,29.02 8.01,29.11 V 30.14 C 8.01,30.24 8.06,30.29 8.17,30.28 C 10.83,30.08 13.44,29.67 16,29.04 C 18.06,28.54 19.76,27.84 21.08,26.96 Z M 41.07,23.96 A 46.8,46.8 0 0,1 47.9,23 C 47.96,23 48,23.03 48,23.1 V 24.21 C 48,24.31 47.95,24.35 47.86,24.35 C 44.09,24.33 40.72,24.81 37.73,25.8 A 9.9,9.9 0 0,0 34.33,27.7 A 4.33,4.33 0 0,0 32.8,30.75 C 32.8,30.85 32.73,30.91 32.63,30.91 H 32.51 C 32.35,30.91 32.26,30.83 32.26,30.66 A 4.67,4.67 0 0,1 33.86,27.14 A 8.36,8.36 0 0,1 35.9,25.74 A 23.46,23.46 0 0,1 41.07,23.96 Z" fill="rgb(154, 20, 108)"/>
<path d="M 23.209999999999997,25.265 C 23.18,25.39 23.14,25.61 23.09,25.94 C 22.79,28.1 20.69,29.69 16.81,30.7 C 14.11,31.4 11.24,31.74 8.21,31.7 C 8.07,31.7 8,31.76 8,31.9 V 32.9 C 8,33 8.06,33.06 8.17,33.05 C 11.13,32.88 14.11,32.36 17.1,31.51 C 21.49,30.26 23.72,28.21 23.78,25.33 C 23.78,25.2 23.73,25.12 23.59,25.09 C 23.4,25.04 23.28,25.11 23.22,25.29 Z" fill="rgb(154, 20, 108)"/>
<path d="M 30.83,26.335 C 30.9,25.99 30.8,25.75 30.56,25.63 C 30.35,25.53 30.36,25.46 30.57,25.39 C 32.07,24.91 33.67,24.55 35.4,24.31 C 36.58,24.14 38.37,23.97 40.78,23.8 C 40.95,23.79 41.03,23.7 41.03,23.52 V 22.74 C 41.03,22.61 40.97,22.56 40.85,22.56 C 38.3,22.75 35.94,23.1 33.75,23.61 C 31.08,24.24 28.98,25.11 27.45,26.24 A 5.74,5.74 0 0,0 25.78,28.18 C 25.28,29.08 25.18,29.88 25.48,30.56 C 25.53,30.69 25.49,30.78 25.35,30.83 A 42.27,42.27 0 0,1 15.21,32.32 C 15.12,32.32 15.08,32.36 15.08,32.45 V 33.49 C 15.08,33.56 15.12,33.59 15.19,33.59 C 18.82,33.33 22.09,32.73 25,31.78 A 12.3,12.3 0 0,0 28.86,29.77 C 29.95,28.91 30.61,27.77 30.84,26.35 Z M 25.91,30.35 C 25.96,29.09 26.44,28.05 27.35,27.26 A 8.98,8.98 0 0,1 30.09,25.63 H 30.17 C 30.22,25.63 30.25,25.69 30.25,25.79 A 4.16,4.16 0 0,1 28.8,28.88 A 8.8,8.8 0 0,1 26,30.52 C 25.94,30.52 25.9,30.46 25.9,30.35 Z M 32.24,33.46 C 32.24,33.67 32.43,33.76 32.82,33.76 C 32.72,34.1 32.58,34.45 32.42,34.79 A 1.8,1.8 0 0,0 32.5,36.49 C 32.56,36.59 32.53,36.67 32.41,36.7 C 29.15,37.7 25.73,38.2 22.16,38.19 C 22.1,38.19 22.07,38.22 22.07,38.28 V 39.38 C 22.07,39.45 22.1,39.48 22.17,39.48 C 25.87,39.28 29.27,38.65 32.35,37.58 A 10.79,10.79 0 0,0 36.97,34.56 C 37.13,34.38 37.2,34.41 37.17,34.65 A 4.17,4.17 0 0,1 35.23,37.94 C 34.09,38.71 32.83,39.28 31.47,39.66 A 32.58,32.58 0 0,1 22.23,40.86 C 22.12,40.86 22.06,40.91 22.06,41.02 V 42.03 C 22.06,42.14 22.12,42.19 22.22,42.18 C 27.18,41.86 31.17,40.95 34.18,39.45 C 36.55,38.28 37.76,36.62 37.8,34.49 C 37.8,34.34 37.74,34.27 37.59,34.27 H 37.32 C 37.17,34.27 37.13,34.21 37.21,34.08 C 37.68,33.3 37.85,32.54 37.74,31.78 C 37.74,31.75 37.7,31.68 37.62,31.6 L 37.5,31.55 C 37.43,31.55 37.4,31.51 37.42,31.45 A 0.17,0.17 0 0,1 37.55,31.31 C 40.9,30.31 44.35,29.81 47.89,29.81 C 47.96,29.81 48,29.78 48,29.71 V 28.64 C 48,28.58 47.97,28.54 47.9,28.54 C 44.06,28.69 40.47,29.39 37.13,30.64 C 35.43,31.29 33.99,32.32 32.82,33.75 A 4.19,4.19 0 0,1 34.57,30.25 A 13.2,13.2 0 0,1 38.63,28.31 C 39.78,27.97 41.36,27.67 43.39,27.39 C 44.87,27.19 46.36,27.09 47.85,27.11 C 47.95,27.11 48,27.07 48,26.97 V 25.9 C 48,25.8 47.95,25.75 47.85,25.76 L 43.52,26.29 C 42.04,26.47 40.15,26.94 37.86,27.7 C 36.66,28.1 35.5,28.7 34.38,29.52 A 4.89,4.89 0 0,0 32.24,33.47 Z M 32.84,36.04 A 4.16,4.16 0 0,1 34.54,32.97 A 8.76,8.76 0 0,1 37.01,31.6 C 37.12,31.58 37.17,31.63 37.17,31.77 A 4.17,4.17 0 0,1 35.74,34.83 A 8.53,8.53 0 0,1 33.04,36.43 C 32.9,36.48 32.82,36.43 32.84,36.27 V 36.04 Z" fill="rgb(154, 20, 108)"/>
<path d="M 29.79,30.384999999999998 C 30.01,30.1 30.18,29.45 30.29,28.46 C 30.3,28.32 30.37,28.28 30.5,28.34 L 30.66,28.42 C 30.79,28.48 30.86,28.58 30.86,28.72 C 30.69,31.16 29.02,32.97 25.84,34.15 A 36.57,36.57 0 0,1 15.18,36.26 C 15.11,36.26 15.08,36.24 15.08,36.17 V 35.04 C 15.08,34.97 15.12,34.94 15.19,34.94 C 18.6,34.96 21.96,34.49 25.26,33.51 A 8.31,8.31 0 0,0 29.79,30.41 Z" fill="rgb(154, 20, 108)"/>
<path d="M 21.54,38.185 C 21.92,38.1 22.2,38.04 22.38,38 C 25.05,37.4 27.17,36.52 28.76,35.34 A 5.13,5.13 0 0,0 30.86,31.42 C 30.88,31.27 30.81,31.19 30.66,31.19 H 30.53 C 30.35,31.19 30.25,31.29 30.23,31.46 A 4.25,4.25 0 0,1 28.41,34.69 A 11.8,11.8 0 0,1 24.36,36.59 C 21.36,37.37 18.3,37.76 15.17,37.75 C 15.11,37.75 15.08,37.78 15.08,37.84 V 38.96 C 15.08,39.03 15.12,39.06 15.19,39.06 A 37,37 0 0,0 21.55,38.19 Z M 33.07,41.91 A 32.48,32.48 0 0,1 22.17,43.69 C 22.11,43.69 22.07,43.73 22.07,43.79 V 44.9 C 22.07,44.97 22.1,45 22.17,45 C 24.24,44.9 26.75,44.52 29.68,43.86 A 15.45,15.45 0 0,0 35.95,41.08 A 4.61,4.61 0 0,0 37.78,37.22 C 37.78,37.12 37.72,37.06 37.61,37.06 H 37.46 C 37.27,37.06 37.18,37.15 37.18,37.34 C 37.17,38.57 36.64,39.6 35.59,40.41 A 9.5,9.5 0 0,1 33.07,41.91 Z" fill="rgb(154, 20, 108)"/>
</svg>
