<?xml version="1.0" encoding="UTF-8"?>
<!-- generated by Finnhub -->
<svg viewBox="0 0 55.5 55.5" xmlns="http://www.w3.org/2000/svg">
<path d="M 0,0 H 55.5 V 55.5 H 0 Z" fill="url(#a)"/>
<path d="M 20.919999999999998,28.544999999999998 C 21.52,26.81 22.33,25.21 23.33,23.76 C 23.35,23.74 23.37,23.73 23.39,23.75 C 23.41,23.75 23.42,23.77 23.41,23.79 A 17.68,17.68 0 0,0 21.67,29.36 C 21.3,32.12 21.67,34.78 22.77,37.34 C 23.57,39.19 24.52,40.77 25.63,42.09 C 25.79,42.29 25.99,42.44 26.21,42.55 C 27.63,43.25 28.99,44.05 30.31,44.92 A 8.16,8.16 0 0,1 33.17,47.89 C 33.25,48.05 33.3,48.04 33.3,47.86 A 20.02,20.02 0 0,0 31.34,38.58 C 31.29,38.46 31.32,38.44 31.42,38.52 C 32.44,39.29 33.45,40.22 34.45,41.31 C 34.53,41.39 34.57,41.38 34.57,41.26 C 34.47,38.08 33.61,35.58 32,33.76 A 8.2,8.2 0 0,1 29.89,29.05 A 0.1,0.1 0 0,1 29.94,28.95 A 0.1,0.1 0 0,1 30.04,28.95 C 31.53,29.72 32.82,30.81 33.91,32.22 C 34.31,32.76 34.53,33.4 34.53,34.17 C 34.53,34.21 34.55,34.25 34.59,34.27 A 0.1,0.1 0 0,0 34.7,34.26 A 6.62,6.62 0 0,0 37.16,31.13 C 37.18,31.07 37.16,31.03 37.1,31.01 C 36.66,30.83 36.25,30.61 35.86,30.36 A 0.36,0.36 0 0,0 35.66,30.3 C 35.45,30.29 35.24,30.33 35.06,30.43 C 34.85,30.53 34.64,30.56 34.42,30.5 C 34.19,30.43 34.06,30.3 34.02,30.07 C 33.99,29.87 34.02,29.64 34.12,29.42 A 0.2,0.2 0 0,1 34.24,29.31 C 34.47,29.23 34.7,29.24 34.93,29.31 C 35.17,29.41 35.52,29.57 35.96,29.81 L 36.76,30.21 C 37.06,30.33 37.36,30.41 37.63,30.45 C 37.95,30.49 38.31,30.39 38.71,30.15 C 38.96,30 39.26,29.77 39.63,29.45 C 39.69,29.4 39.7,29.35 39.65,29.29 L 39.51,29.12 A 3.52,3.52 0 0,1 39.09,28.52 A 1.14,1.14 0 0,1 38.99,27.81 C 38.99,27.75 39.02,27.71 39.06,27.66 C 39.16,27.56 39.26,27.52 39.35,27.53 C 39.49,27.55 39.55,27.63 39.55,27.78 C 39.52,28.16 39.69,28.53 40.07,28.88 C 40.12,28.93 40.17,28.94 40.23,28.9 C 40.53,28.68 40.75,28.45 40.88,28.2 C 41.04,27.9 41.04,27.62 40.87,27.35 L 37.84,22.55 A 1,1 0 0,1 37.69,21.93 L 37.7,21.72 C 37.74,21.32 37.75,21.02 37.73,20.84 C 37.71,20.52 37.63,20.24 37.51,19.98 A 7.6,7.6 0 0,0 37.05,19.22 A 0.27,0.27 0 0,1 37.02,18.98 A 4.12,4.12 0 0,0 36.95,16.38 A 5.6,5.6 0 0,0 35.06,14.14 A 11.4,11.4 0 0,0 32.5,12.65 C 32.35,12.59 32.32,12.63 32.42,12.75 C 32.75,13.2 32.97,13.71 33.08,14.29 C 33.1,14.4 33.07,14.42 32.98,14.34 A 7.9,7.9 0 0,0 28.31,12.11 A 9.78,9.78 0 0,0 21.59,13.46 C 21.39,13.59 21.41,13.64 21.65,13.63 C 23.27,13.53 24.82,13.73 26.3,14.19 C 26.5,14.26 26.72,14.36 26.93,14.49 C 27.06,14.58 27.05,14.62 26.89,14.61 A 27.27,27.27 0 0,0 19.75,15.01 C 19.37,15.1 19.07,15.24 18.85,15.44 A 14.79,14.79 0 0,0 14.12,23.7 C 14.09,23.86 14.12,23.88 14.23,23.75 A 18,18 0 0,1 22.53,18.15 C 22.91,18.03 22.93,18.06 22.57,18.25 A 18.32,18.32 0 0,0 17.31,22.49 A 15.06,15.06 0 0,0 14.05,28.41 C 13.99,28.61 13.99,28.81 14.02,29.01 A 14.87,14.87 0 0,0 17.91,36.86 A 21.89,21.89 0 0,0 21.45,39.91 C 21.62,40.02 21.67,39.99 21.59,39.8 A 17.18,17.18 0 0,1 20.19,34.21 C 20.06,32.26 20.31,30.37 20.93,28.56 Z M 34.67,23.91 C 34.78,24.09 34.75,24.12 34.57,24 L 34.19,23.73 H 34.16 L 34.14,23.77 V 23.79 A 2.55,2.55 0 0,0 36.42,24.36 C 36.7,24.28 36.95,24.37 37.17,24.64 L 37.21,24.61 C 37.24,24.58 37.24,24.55 37.21,24.53 A 6.5,6.5 0 0,0 37.06,24.41 A 2.13,2.13 0 0,1 36.51,23.84 C 36.35,23.54 36.21,23.24 36.07,22.93 A 2.31,2.31 0 0,0 35.05,21.8 A 3.2,3.2 0 0,0 33.53,21.41 C 33.45,21.41 33.44,21.43 33.53,21.46 L 33.57,21.48 L 33.67,21.53 C 33.91,21.63 34.07,21.7 34.17,21.77 C 34.35,21.87 34.48,22 34.57,22.14 C 34.61,22.19 34.62,22.25 34.59,22.31 C 34.34,22.9 34.36,23.43 34.67,23.91 Z" fill="rgb(228, 171, 18)" fill-rule="evenodd"/>
<defs>
<linearGradient id="a" x1="28" x2="28" y2="56" gradientUnits="userSpaceOnUse">
<stop stop-color="rgb(22, 20, 20)" offset="0"/>
<stop stop-color="rgb(45, 45, 54)" offset=".52"/>
<stop stop-color="rgb(23, 23, 24)" offset="1"/>
</linearGradient>
</defs>
</svg>
