<?xml version="1.0" encoding="UTF-8"?>
<!-- generated by Finnhub -->
<svg viewBox="0 0 55.5 55.5" xmlns="http://www.w3.org/2000/svg">
<path d="M0 0h55.5v55.5H0z" fill="rgb(239, 242, 248)"/>
<path d="M46 27H10l10.56-10.69L26.5 20l8.5-9 11 16Z" fill="rgb(64, 64, 63)"/>
<path d="M10 27.01h36v.66H10z" fill="url(#c)"/>
<path d="M10 27.67h36v.66H10z" fill="url(#b)"/>
<path d="M10 28.34h36V29H10z" fill="url(#a)"/>
<path d="M46 29H10v9h2v-4h4v-2h-4v-2h26v8h8v-2h-6v-2h6v-2h-6v-2h6v-1Z" fill="rgb(64, 64, 63)"/>
<path d="M21.54 31H20v4a3 3 0 0 0 6 0v-4h-1.54v4.38a1.46 1.46 0 1 1-2.92 0V31ZM34.8 32.98h-1.48c0-.64-.7-.98-1.33-.98-.64 0-1.26.24-1.26.98 0 .58 1.05.68 1.8.88 1.72.44 2.47.9 2.47 2.1 0 1.2-1.02 2.04-2.98 2.04-2.38 0-3-1.52-3.02-2.28h1.52c0 .76.74 1.28 1.5 1.28s1.48-.24 1.48-.89-.78-.83-1.98-1.15c-2.1-.57-2.22-1.22-2.22-1.98S29.88 31 32.02 31c2.1 0 2.73 1.27 2.77 1.98Z" fill="rgb(64, 64, 63)"/>
<defs>
<linearGradient id="c" x1="46" x2="10" y1="27.34" y2="27.34" gradientUnits="userSpaceOnUse">
<stop stop-color="rgb(169, 146, 60)" offset=".04"/>
<stop stop-color="rgb(250, 252, 182)" offset=".44"/>
<stop stop-color="rgb(160, 140, 68)" offset=".94"/>
</linearGradient>
<linearGradient id="b" x1="46" x2="10" y1="28" y2="28" gradientUnits="userSpaceOnUse">
<stop stop-color="rgb(202, 199, 203)" offset="0"/>
<stop stop-color="rgb(247, 244, 232)" offset=".5"/>
<stop stop-color="rgb(212, 209, 202)" offset="1"/>
</linearGradient>
<linearGradient id="a" x1="46" x2="10" y1="28.34" y2="28.34" gradientUnits="userSpaceOnUse">
<stop stop-color="rgb(169, 97, 6)" offset="0"/>
<stop stop-color="rgb(195, 114, 19)" offset=".61"/>
<stop stop-color="rgb(166, 100, 3)" offset="1"/>
</linearGradient>
</defs>
</svg>
