<?xml version="1.0" encoding="UTF-8"?>
<!-- generated by Finnhub -->
<svg viewBox="0 0 55.5 55.5" xmlns="http://www.w3.org/2000/svg">
<path d="M 0,0 H 55.5 V 55.5 H 0 Z" fill="rgb(239, 242, 248)"/>
<path d="M 27.99,43.985 A 16,16 0 1,0 28,12 A 16,16 0 0,0 28,44 Z M 28,42 A 14,14 0 1,0 28,14 A 14,14 0 0,0 28,42 Z" fill="rgb(9, 91, 42)" fill-rule="evenodd"/>
<ellipse cx="27.99" cy="28.5" rx="10.99" ry="11.5" fill="rgb(133, 121, 78)"/>
<ellipse cx="28.31" cy="28.5" rx="10.67" ry="11.5" fill="url(#c)"/>
<path d="M 27.77,39.975 L 27.16,39.6 C 25.66,38.72 24,34.48 24,31.6 C 24,28.7 26.51,25 30.2,25 C 33.14,25 34.7,27.57 35.1,28.85 L 36.78,35.49 A 10.4,10.4 0 0,1 27.78,39.99 Z" fill="url(#b)"/>
<path d="M 26.869999999999997,37.505 C 26.88,38.78 27.03,39.7 27.1,40 C 37.62,40 39,31.67 39,28.22 C 39,25.46 38.34,22.32 38,21 A 40.9,40.9 0 0,1 32.01,27.99 C 28.03,31.82 26.88,35.94 26.88,37.52 Z" fill="url(#a)"/>
<defs>
<linearGradient id="c" x1="19.7" x2="33.44" y1="20.79" y2="35.74" gradientUnits="userSpaceOnUse">
<stop stop-color="rgb(220, 176, 59)" offset="0"/>
<stop stop-color="rgb(254, 209, 35)" offset=".52"/>
</linearGradient>
<linearGradient id="b" x1="35.28" x2="23.91" y1="30.17" y2="30.17" gradientUnits="userSpaceOnUse">
<stop stop-color="rgb(26, 95, 159)" offset=".28"/>
<stop stop-color="rgb(57, 89, 133)" offset=".63"/>
<stop stop-color="rgb(12, 38, 59)" offset="1"/>
</linearGradient>
<linearGradient id="a" x1="38.98" x2="26.86" y1="28.39" y2="28.39" gradientUnits="userSpaceOnUse">
<stop stop-color="rgb(1, 88, 40)" offset="0"/>
<stop stop-color="rgb(1, 146, 68)" offset=".45"/>
<stop stop-color="rgb(5, 157, 105)" offset="1"/>
</linearGradient>
</defs>
</svg>
