<?xml version="1.0" encoding="UTF-8"?>
<!-- generated by Finnhub -->
<svg viewBox="0 0 55.5 55.5" xmlns="http://www.w3.org/2000/svg">
<path d="M0 0h55.5v55.5H0z" fill="rgb(239, 242, 248)"/>
<path d="M14.63 35h7.47l3.86-7h-7.32l-3.82-7L11 27.57 14.63 35Z" fill="rgb(1, 135, 253)"/>
<path d="M22 21h-7.17l3.77 7h7.38L22 21Z" fill="rgb(76, 168, 163)"/>
<path d="M29.76 21H14.85l3.88-7h7.25l3.78 7Z" fill="rgb(97, 154, 71)"/>
<path d="M25.93 28 22 21h7.78l-3.86 7Z" fill="rgb(80, 174, 46)"/>
<path d="m33.73 28h-7.77l-3.9 7h8.05l3.62-7z" fill="rgb(15, 145, 205)"/>
<path d="m29.74 21-3.8 7h7.67l3.87 7 3.67-6.93L37.28 21h-7.54Z" fill="rgb(27, 157, 115)"/>
<path d="M37.5 35H30l3.65-7 3.83 7Z" fill="rgb(22, 152, 162)"/>
<path d="m25.95 42-3.85-7h8.05l3.65 7h-7.85z" fill="rgb(47, 120, 183)"/>
<path d="m33.8 42-3.8-7h7.5l-3.7 7z" fill="rgb(38, 142, 157)"/>
<path d="M41.29 42h-7.5l7.36-14L45 34.95 41.29 42Z" fill="rgb(61, 133, 109)"/>
</svg>
