<?xml version="1.0" encoding="UTF-8"?>
<!-- generated by Finnhub -->
<svg viewBox="0 0 55.5 55.5" xmlns="http://www.w3.org/2000/svg">
<path d="M 0,0 H 55.5 V 55.5 H 0 Z" fill="rgb(19, 22, 24)"/>
<path d="M 6.99,19.985 V 36 H 11 V 30 H 11.88 L 15.59,36 H 20.07 L 15.97,29.86 A 5.15,5.15 0 0,0 19.96,24.94 A 5.06,5.06 0 0,0 14.78,20 H 7 Z M 11,23 H 13.74 C 14.99,23 16,23.9 16,25 S 14.99,27 13.74,27 H 11 V 23 Z M 22,36 V 20 H 28.85 C 33.35,20 37,23.58 37,28 S 33.35,36 28.85,36 H 22 Z M 26,33 V 23 H 29.2 C 31.3,23 33,25.24 33,28 S 31.3,33 29.2,33 H 26 Z M 49,20 H 39 V 36 H 49 V 33 H 43 V 29 H 48 V 26 H 43 V 23 H 49 V 20 Z" fill="rgb(254, 254, 253)" fill-rule="evenodd"/>
</svg>
