<?xml version="1.0" encoding="UTF-8"?>
<!-- generated by Finnhub -->
<svg viewBox="0 0 55.5 55.5" xmlns="http://www.w3.org/2000/svg">
<path d="M 0,0 H 55.5 V 55.5 H 0 Z" fill="rgb(239, 242, 248)"/>
<path d="M 11.99,20.314999999999998 A 9.08,9.08 0 0,1 15.64,19.34 C 15.32,17.79 15.87,16.44 16.44,15.06 C 15.96,14.93 15.49,14.98 15.14,14.58 C 14.71,13.87 14.78,13.31 15.36,12.88 A 1.18,1.18 0 0,1 16.91,13.02 C 17.39,13.52 17.32,14.15 16.71,14.85 C 16.76,15.06 16.96,15.05 17.11,15.11 C 17.81,15.35 18.49,15.67 19.11,16.07 C 19.61,16.39 20.06,16.75 20.36,17.32 C 20.92,16.96 21.33,16.46 21.89,16.19 L 23.64,15.38 C 23.64,16.5 23.58,17.54 23.66,18.65 C 20.32,19.25 17.16,20.58 14.41,22.54 C 13.64,21.74 12.81,20.99 11.93,20.31 A 1.34,1.34 0 0,1 10.45,20.81 C 9.75,20.38 9.51,19.89 9.75,19.3 C 9.87,19.03 10.07,18.8 10.35,18.67 C 10.61,18.54 10.92,18.51 11.2,18.58 C 11.83,18.75 12.11,19.3 12,20.33 Z" fill="rgb(237, 213, 68)"/>
<path d="M 18.81,20.585 C 19.43,20.24 20.12,20.07 20.8,19.84 C 21.72,19.54 22.67,19.32 23.67,19.09 C 23.83,19.71 23.79,20.39 24.14,21.06 C 20.87,21.1 18.01,21.97 15.73,24.34 L 15.25,23.63 C 15.1,23.4 14.93,23.18 14.78,22.97 A 0.4,0.4 0 0,1 15.01,22.66 A 45.43,45.43 0 0,1 18.58,20.64 A 0.9,0.9 0 0,1 18.83,20.59 C 18.71,20.76 18.56,20.92 18.56,21.17 A 0.76,0.76 0 0,0 18.96,21.65 C 19.18,21.67 19.41,21.68 19.62,21.43 A 0.69,0.69 0 0,0 19.5,20.64 A 0.79,0.79 0 0,0 18.82,20.61 Z M 16.61,23.21 C 16.61,22.68 16.5,22.45 16.18,22.4 A 0.59,0.59 0 0,0 15.78,22.48 C 15.66,22.56 15.57,22.68 15.53,22.81 C 15.44,23.14 15.62,23.37 16.12,23.58 C 16.32,23.52 16.5,23.39 16.61,23.21 Z M 23.45,20.29 A 0.7,0.7 0 0,0 23.18,19.79 C 22.92,19.72 22.65,19.68 22.41,19.92 A 0.71,0.71 0 0,0 22.33,20.47 A 0.66,0.66 0 0,0 22.9,20.85 C 23.21,20.8 23.38,20.6 23.45,20.29 Z M 23.92,15.29 A 1.17,1.17 0 0,1 23.12,14.93 A 1.14,1.14 0 0,1 22.91,13.68 A 1.14,1.14 0 0,1 23.56,13.08 C 23.7,13.03 23.86,13.01 24,13.02 C 24.65,13.02 25.2,13.52 25.2,14.13 C 25.17,14.82 24.7,15.33 23.92,15.29 Z" fill="rgb(237, 213, 68)"/>
<path d="M 16.599999999999998,23.195 A 0.86,0.86 0 0,1 16.11,23.58 C 15.61,23.37 15.44,23.14 15.53,22.81 A 0.57,0.57 0 0,1 15.78,22.48 C 15.9,22.41 16.04,22.38 16.18,22.4 C 16.5,22.45 16.62,22.68 16.61,23.21 Z M 18.82,20.6 A 0.79,0.79 0 0,1 19.5,20.64 A 0.7,0.7 0 0,1 19.62,21.44 C 19.42,21.68 19.18,21.67 18.95,21.65 A 0.77,0.77 0 0,1 18.55,21.17 C 18.55,20.92 18.71,20.77 18.83,20.59 L 18.82,20.61 Z M 23.45,20.29 C 23.38,20.6 23.21,20.8 22.9,20.85 A 0.68,0.68 0 0,1 22.34,20.47 A 0.7,0.7 0 0,1 22.41,19.92 C 22.65,19.68 22.91,19.72 23.18,19.79 A 0.72,0.72 0 0,1 23.45,20.29 Z"/>
<path d="M 12.040000000000001,21.195 C 10.7,21.77 9.67,21.5 9.18,20.51 A 1.81,1.81 0 0,1 9.96,18.11 C 10.99,17.55 11.96,17.94 12.75,19.25 C 13.41,19 14.11,18.82 14.81,18.71 A 9.3,9.3 0 0,1 15.46,15.65 C 14.22,14.72 13.91,13.91 14.39,12.98 A 1.9,1.9 0 0,1 16.62,12.08 C 17.64,12.42 18.04,13.28 17.8,14.64 C 18.77,15.04 19.7,15.54 20.5,16.31 A 9,9 0 0,1 22.41,15.17 C 22.11,14.56 22,13.94 22.35,13.32 A 1.88,1.88 0 0,1 24.8,12.52 C 25.23,12.72 25.56,13.08 25.74,13.52 C 26.14,14.52 25.67,15.37 24.34,16.02 C 24.03,17.92 24.32,20.2 25.07,21.49 C 25.46,21.58 25.69,21.28 25.97,21.09 C 26.52,21.03 26.85,21.32 27.04,21.77 C 27.41,22.56 27.54,23.43 27.41,24.29 C 27.38,24.52 27.28,24.74 27.34,24.97 C 27.43,25.17 27.7,25.15 27.8,25.46 C 27.72,26.19 27.71,27.02 27.46,27.83 C 27.34,28.23 27.09,28.51 26.66,28.58 A 1,1 0 0,1 25.59,28.1 C 25.25,27.55 24.89,27 24.69,26.4 C 24.36,25.4 23.69,24.54 22.79,23.97 A 1.13,1.13 0 0,1 21.73,23.68 C 21.16,23.85 20.55,23.88 19.97,23.73 C 19.81,24.15 19.52,24.5 19.14,24.73 C 18.74,24.98 18.46,25.35 18.33,25.79 C 18.25,26.04 18.08,26.24 17.93,26.46 A 8.7,8.7 0 0,0 17.98,28.51 C 18.06,29.07 18.02,29.64 17.85,30.17 C 17.6,31.09 17.53,31.99 17.95,32.88 C 18.08,33.16 18.11,33.47 18.05,33.77 C 17.95,34.33 18.14,34.78 18.51,35.19 L 19.03,35.76 C 19.3,36.02 19.53,36.33 19.69,36.66 C 20.19,36.73 20.66,36.88 21.15,36.99 C 22.31,37.24 23.82,36.37 24.19,35.16 C 24.39,34.55 24.71,33.99 24.89,33.37 C 24.92,33.23 25.09,33.15 25.12,32.96 C 25,32.76 24.76,32.71 24.54,32.62 A 3,3 0 0,1 23.69,32.16 C 22.94,31.51 23.05,30.47 23.91,30 C 24.08,29.9 24.27,29.83 24.46,29.8 C 24.93,29.7 25.39,29.57 25.83,29.39 C 26.16,29.25 26.52,29.23 26.85,29.34 C 27.12,29.43 27.41,29.45 27.68,29.52 C 27.94,29.57 28.19,29.64 28.44,29.72 C 29.7,30.15 29.97,31.07 29.17,32.12 C 29.02,32.26 28.81,32.19 28.67,32.3 C 28.49,32.45 28.33,32.62 28.14,32.79 C 28.08,33.73 27.93,34.66 27.78,35.59 C 27.71,36.09 27.72,36.59 27.81,37.07 C 27.9,37.54 27.91,38.02 27.86,38.49 C 27.76,39.27 27.28,39.73 26.61,39.74 A 1.1,1.1 0 0,1 25.66,39.25 C 25.49,39.01 25.34,38.75 25.16,38.47 C 24.66,38.92 23.99,38.99 23.5,39.39 C 23.3,39.53 23.06,39.59 22.81,39.57 H 20.52 C 20.42,39.57 20.3,39.57 20.2,39.54 C 19.12,39.12 18,38.79 17.16,37.96 A 3.44,3.44 0 0,1 16.17,36.4 C 16.07,36 15.94,35.61 15.53,35.39 C 15.65,34.87 15.5,34.44 15.27,34.01 A 2.23,2.23 0 0,1 15,32.4 C 15.07,32.1 14.97,31.8 14.88,31.51 A 3.89,3.89 0 0,1 14.73,29.61 C 14.88,28.74 14.91,27.86 15.01,26.98 C 15.03,26.68 15.09,26.38 15.18,26.1 C 15.49,25.18 15.18,24.41 14.64,23.69 C 14.26,23.19 13.82,22.74 13.34,22.33 C 12.92,21.95 12.49,21.59 12.04,21.21 Z M 18.83,20.59 A 0.9,0.9 0 0,0 18.58,20.64 A 45.46,45.46 0 0,0 14.86,22.78 A 0.39,0.39 0 0,0 14.78,22.98 C 14.93,23.18 15.1,23.4 15.25,23.63 L 15.73,24.34 C 18.01,21.97 20.87,21.1 24.13,21.06 C 23.79,20.38 23.83,19.71 23.67,19.09 C 22.67,19.32 21.72,19.53 20.8,19.84 C 20.13,20.07 19.43,20.24 18.82,20.61 L 18.83,20.59 Z M 12,20.33 C 12.12,19.3 11.84,18.75 11.21,18.58 A 1.23,1.23 0 0,0 9.77,19.3 C 9.52,19.89 9.76,20.38 10.47,20.8 A 1.36,1.36 0 0,0 11.94,20.3 C 12.82,21 13.65,21.74 14.42,22.54 A 22.89,22.89 0 0,1 23.68,18.65 C 23.59,17.54 23.66,16.5 23.65,15.38 L 21.91,16.19 C 21.34,16.46 20.93,16.96 20.37,17.32 C 20.07,16.75 19.61,16.39 19.12,16.07 C 18.5,15.67 17.82,15.35 17.12,15.11 C 16.97,15.05 16.77,15.06 16.72,14.85 C 17.34,14.15 17.4,13.53 16.92,13.02 A 1.18,1.18 0 0,0 15.38,12.89 C 14.78,13.31 14.72,13.87 15.14,14.58 C 15.5,14.98 15.97,14.93 16.44,15.06 C 15.88,16.44 15.33,17.79 15.65,19.34 A 9.07,9.07 0 0,0 12,20.33 Z M 23.93,15.29 C 24.7,15.33 25.18,14.82 25.2,14.13 C 25.22,13.53 24.66,13.03 24.01,13.02 A 1.17,1.17 0 0,0 22.91,13.68 A 1.12,1.12 0 0,0 23.49,15.18 C 23.63,15.25 23.79,15.28 23.93,15.28 Z M 35.64,32.14 C 35.61,33.7 35.27,35.19 35.61,36.65 C 36.11,37.01 36.72,36.93 37.21,37.24 C 37.28,37.52 37.43,37.77 37.65,37.96 C 37.95,38.22 37.95,38.61 37.71,38.96 C 37.58,39.16 37.42,39.34 37.28,39.53 C 37.06,39.67 36.8,39.73 36.53,39.73 L 34.9,39.74 C 34.04,39.71 33.2,39.78 32.36,39.94 C 31.54,40.11 31.06,39.91 30.82,39.41 A 1.58,1.58 0 0,1 31.3,37.49 C 31.6,37.29 31.94,37.12 32.3,37.01 C 32.48,36.95 32.66,36.87 32.87,36.78 C 32.79,36.38 32.81,35.96 32.95,35.58 A 0.95,0.95 0 0,0 32.94,34.94 A 3.32,3.32 0 0,1 32.81,33.16 A 9.4,9.4 0 0,0 32.79,30.71 A 0.74,0.74 0 0,1 32.76,30.39 C 32.98,29.79 32.77,29.21 32.64,28.62 A 2.6,2.6 0 0,1 32.84,26.86 C 32.46,26.46 32.38,26 32.37,25.52 C 32.37,25.09 32.19,24.68 31.88,24.37 C 31.45,23.91 31.03,23.44 30.44,23.17 C 30.19,23.07 30.02,22.85 30.1,22.61 C 30.24,22.15 30.33,21.64 30.77,21.33 A 0.95,0.95 0 0,1 31.64,21.17 C 32.05,21.29 32.48,21.39 32.94,21.5 C 33.43,21.35 33.95,21.35 34.44,21.52 L 35.22,21.25 C 35.7,21.5 36.22,21.45 36.74,21.4 C 37.57,21.3 38.41,21.41 39.18,21.7 C 39.82,21.94 40.46,22.13 41.11,22.32 C 41.84,22.53 42.35,23.1 42.78,23.72 C 42.98,24.02 43.18,24.32 43.47,24.56 C 43.85,24.87 43.92,25.34 43.97,25.79 C 44.04,26.56 43.99,27.34 43.8,28.09 C 43.7,28.47 43.51,28.82 43.28,29.13 C 43.16,29.26 43.06,29.4 42.98,29.55 C 42.77,30.17 42.26,30.5 41.74,30.82 A 7.11,7.11 0 0,1 38.53,32.02 C 38.31,32.04 38.09,32.09 37.88,32.01 C 37.12,31.71 36.38,31.84 35.64,32.14 Z M 35.02,24.74 C 35.22,25.29 35.76,25.77 35.3,26.4 C 35.56,26.95 35.52,27.43 35.02,27.81 L 35.89,29.09 H 37.41 A 23,23 0 0,0 38.91,28.97 A 0.6,0.6 0 0,0 39.26,28.81 C 39.52,28.54 39.84,28.48 40.2,28.45 C 40.65,28.42 40.9,28.16 41,27.74 C 41.43,26.18 40.38,24.41 38.78,24.12 A 9.18,9.18 0 0,0 35.37,24.22 C 35.23,24.39 35.09,24.5 35.02,24.73 Z"/>
</svg>
