<!-- by Finnhub --><svg xmlns="http://www.w3.org/2000/svg" width="56" height="56" viewBox="0 0 56 56"><path fill="#F0F3FA" d="M0 0h56v56H0z"/><path d="M24.68 12.05l-.65.45a.3.3 0 0 0 .04.53l.9.44c.1.05.22.04.31-.03l1.19-.84c.24-.17.12-.54-.17-.55L24.86 12a.31.31 0 0 0-.18.05zm3.23.67l-1.18.86a.5.5 0 0 0 .03.83l1.12.7c.18.1.41.09.58-.04l1.1-.9a.5.5 0 0 0-.04-.8l-1.05-.67a.5.5 0 0 0-.56.02zm-1.4 2.76l-1.29-.93a.5.5 0 0 0-.6 0l-1.5 1.13a.5.5 0 0 0-.02.78l1.23 1.05a.5.5 0 0 0 .64.01l1.56-1.24a.5.5 0 0 0-.02-.8zm-3.41 2.66l-1.3-.94a.5.5 0 0 0-.65.05l-1.62 1.6c-.2.2-.2.54.03.73l1.24 1.07c.2.17.5.15.69-.03l1.67-1.72a.5.5 0 0 0-.06-.76zm7.77-3.6l-1.28.94a.5.5 0 0 0-.02.8l1.56 1.24a.5.5 0 0 0 .64 0l1.22-1.06a.5.5 0 0 0-.02-.78l-1.5-1.13a.5.5 0 0 0-.6 0zm2.06 3.72l1.23-1a.5.5 0 0 1 .62 0l1.8 1.36c.25.2.26.57.02.78l-1.23 1.06a.5.5 0 0 1-.63 0l-1.8-1.42a.5.5 0 0 1 0-.78zm-6.86.16l1.83-1.5a.5.5 0 0 1 .61-.02l1.66 1.17a.5.5 0 0 1 .05.78l-1.73 1.55a.5.5 0 0 1-.61.04l-1.78-1.22a.5.5 0 0 1-.03-.8zm1.8 4.6l-1.95 2.01a.5.5 0 0 0 .03.73l1.88 1.61c.2.18.52.16.7-.04l1.82-2.06a.5.5 0 0 0-.04-.7L28.56 23a.5.5 0 0 0-.7.03zm-5.43-1.4l1.95-2c.18-.19.49-.2.69-.02l1.75 1.56c.21.18.23.5.05.7l-1.83 2.06a.5.5 0 0 1-.7.05l-1.87-1.62a.5.5 0 0 1-.04-.72zm9.78-2l1.95 2c.2.21.18.55-.04.73l-1.87 1.62a.5.5 0 0 1-.7-.05l-1.83-2.06a.5.5 0 0 1 .05-.7l1.75-1.56a.5.5 0 0 1 .7.02zM17.35 17.6l.83.8c.2.2.5.2.7.01l1.7-1.59a.5.5 0 0 0 0-.73l-.73-.68a.5.5 0 0 0-.65-.02l-1.82 1.46a.5.5 0 0 0-.03.75zm4.3-2.03l-.73-.43a.5.5 0 0 1-.03-.84l1.38-.97a.5.5 0 0 1 .48-.06l.75.31a.5.5 0 0 1 .12.86l-1.4 1.1a.5.5 0 0 1-.57.03zm10.6-3.07l-.66-.45a.31.31 0 0 0-.19-.05l-1.43.05c-.3 0-.4.38-.17.55l1.18.84c.1.07.22.08.32.03l.9-.44a.3.3 0 0 0 .04-.53zm5.83 5.9l.84-.8a.5.5 0 0 0-.04-.75l-1.81-1.46a.5.5 0 0 0-.66.02l-.72.68a.5.5 0 0 0 0 .73l1.7 1.6c.2.18.5.17.7-.01zm-2.73-3.26l-.74.43a.5.5 0 0 1-.56-.03l-1.4-1.1a.5.5 0 0 1 .11-.86l.76-.3a.5.5 0 0 1 .47.05l1.4.97c.29.2.27.66-.04.84z" fill="#0A2662"/><path d="M13.96 21.6l.53.9c.17.28.14.64-.07.88l-1.06 1.23a.31.31 0 0 1-.5-.03l-.36-.57a.76.76 0 0 1-.01-.79l.94-1.61c.12-.2.41-.2.53 0zm-.27 4.69l.7.9c.3.39.9.39 1.22 0l1-1.29a.76.76 0 0 0-.03-.96l-.73-.85a.78.78 0 0 0-1.2.03l-.96 1.23a.76.76 0 0 0 0 .94zm3.48.78l-1.2 1.29a.76.76 0 0 0-.02 1L17 30.62c.28.34.8.37 1.12.07l1.37-1.3c.31-.29.32-.78.02-1.08l-1.22-1.24a.78.78 0 0 0-1.12.01zM19 32.8l1.45 1.54c.3.33.84.32 1.14-.02l1.24-1.38a.76.76 0 0 0-.04-1.06l-1.52-1.47a.78.78 0 0 0-1.12.04l-1.17 1.32c-.26.3-.26.74.02 1.03zm-2.58 2.99l1.36 1.44c.3.32.82.32 1.12 0l.94-.98a.76.76 0 0 0-.02-1.08L18.4 33.8a.78.78 0 0 0-1.1.02l-.88.92a.76.76 0 0 0 0 1.05zm7.69 1.98l-1.49-1.37a.76.76 0 0 1-.05-1.07l1.14-1.28c.29-.33.8-.35 1.12-.04l1.5 1.45c.3.3.3.77.02 1.08l-1.16 1.2c-.29.3-.77.32-1.08.03zm-4.52 1.5l1.49 1.37c.3.3.8.28 1.08-.03l1.16-1.2c.29-.3.28-.78-.02-1.07l-1.5-1.46a.78.78 0 0 0-1.12.05l-1.14 1.28a.76.76 0 0 0 .05 1.06zm-5.88-6.96l1.01 1.3c.31.4.93.4 1.23 0l.75-1a.76.76 0 0 0-.02-.95l-1.05-1.25a.78.78 0 0 0-1.22.03l-.7.95c-.21.28-.21.65 0 .92zm-1.74-3.83l.33-.61a.78.78 0 0 1 1.36-.02l.32.57c.13.24.13.54-.02.77l-.38.62a.78.78 0 0 1-1.36-.08l-.27-.58a.76.76 0 0 1 .02-.67zm-.94-2.52l.43-.9c.12-.27.52-.22.58.07l.23 1.1a.3.3 0 0 1-.02.2l-.42.87c-.13.27-.52.22-.58-.06L11 26.15a.3.3 0 0 1 .02-.2zm27.2 11.27l1.35-1.44a.76.76 0 0 0 0-1.05l-.88-.92a.78.78 0 0 0-1.1-.02l-1.42 1.37c-.3.3-.31.77-.02 1.08l.94.98c.3.32.82.32 1.12 0zM37 32.8l-1.46 1.54a.78.78 0 0 1-1.14-.02l-1.24-1.38a.76.76 0 0 1 .04-1.06l1.52-1.47a.78.78 0 0 1 1.12.04l1.17 1.32c.26.3.26.74-.01 1.03zm-5.12 4.97l1.49-1.37c.3-.28.33-.76.05-1.07l-1.14-1.28a.78.78 0 0 0-1.12-.04l-1.5 1.45c-.3.3-.3.77-.02 1.08l1.16 1.2c.29.3.77.32 1.08.03zm4.52 1.5l-1.49 1.37a.78.78 0 0 1-1.08-.03l-1.16-1.2a.76.76 0 0 1 .02-1.07l1.5-1.46a.78.78 0 0 1 1.12.05l1.14 1.28c.28.3.25.78-.05 1.06zm2.42-12.2l1.2 1.29c.26.28.27.71.02 1L39 30.62a.78.78 0 0 1-1.12.07l-1.37-1.3a.76.76 0 0 1-.02-1.08l1.22-1.24c.31-.32.82-.3 1.12.01zm3.46 5.24l-1.01 1.3c-.31.4-.93.4-1.23 0l-.75-1a.76.76 0 0 1 .02-.95l1.05-1.25a.78.78 0 0 1 1.22.03l.7.95c.21.28.21.65 0 .92zm1.74-3.83l-.33-.61a.78.78 0 0 0-1.36-.02l-.32.57a.76.76 0 0 0 .02.77l.38.62a.78.78 0 0 0 1.36-.08l.27-.58c.1-.21.09-.46-.02-.67zm-1.72-2.2l-.7.9c-.3.4-.9.4-1.22 0l-1-1.28a.76.76 0 0 1 .03-.96l.73-.85a.78.78 0 0 1 1.2.03l.96 1.23c.22.28.22.66 0 .94zm2.66-.32l-.43-.9c-.12-.27-.52-.22-.58.07l-.23 1.1a.3.3 0 0 0 .02.2l.42.87c.13.27.52.22.58-.06l.24-1.09a.3.3 0 0 0-.02-.2zm-2.93-4.35l-.53.89a.76.76 0 0 0 .07.88l1.06 1.23c.13.16.38.14.5-.03l.36-.57a.76.76 0 0 0 .01-.79l-.94-1.61a.31.31 0 0 0-.53 0zM26.1 38.68l1.45-1.41c.31-.3.8-.29 1.1.02l1.35 1.4c.3.33.28.83-.05 1.11l-1.35 1.17a.78.78 0 0 1-.99.02l-1.46-1.17a.76.76 0 0 1-.05-1.14zm1.49 3.75l-.82.66c-.4.33-.38.95.05 1.23l.83.55c.27.18.62.17.88-.02l.76-.54c.4-.3.43-.87.06-1.2l-.76-.66a.78.78 0 0 0-1-.02zm2.34-1.3l.82-.65a.78.78 0 0 1 1 .02l.76.66c.37.32.34.9-.06 1.2l-.76.54a.78.78 0 0 1-.88.02l-.82-.55a.76.76 0 0 1-.06-1.23zm-5.55-.65l-.82.66c-.4.32-.38.94.05 1.23l.83.55c.26.18.62.17.88-.02l.76-.55c.4-.28.43-.87.06-1.19l-.77-.66a.78.78 0 0 0-1-.02z" fill="#0D5AC4"/></svg>