<?xml version="1.0" encoding="UTF-8"?>
<!-- generated by Finnhub -->
<svg viewBox="0 0 55.5 55.5" xmlns="http://www.w3.org/2000/svg">
<path d="M0 0h55.5v55.5H0z" fill="rgb(239, 242, 248)"/>
<path d="M16.65 13.31a.24.24 0 0 1 .05-.26c-.06-.09-.14-.1-.22-.04a.62.62 0 0 0-.25.48c0 .1.03.28.1.51.08.26.11.45.1.58a2.93 2.93 0 0 1-.38 1.26 43.27 43.27 0 0 1-.99 2.1c-.14.3-.26.58-.35.85-.04.1-.1.2-.22.26-.16.1-.3.04-.45-.17a2.44 2.44 0 0 0-.46-.48.86.86 0 0 0-.42-.16c-.11-.02-.2.01-.27.08-.13.12-.2.3-.22.53-.01.21.03.4.12.54.16.25.26.52.3.8.13.86.25 1.77.36 2.7.02.13 0 .25-.02.36-.03.1-.08.11-.17.07a2.9 2.9 0 0 1-.5-.35c-.16-.14-.42-.2-.78-.2h-.07a.2.2 0 0 0-.15.06c-.25.29-.27.59-.05.9.13.2.24.5.31.9l.02.11c.02.09.03.22.04.4.01.18.03.32.05.42.02.1-.01.12-.1.05a1.17 1.17 0 0 1-.12-.1c-.13-.13-.3-.17-.52-.12a.38.38 0 0 0-.29.24c-.12.27-.13.55-.03.83a5.47 5.47 0 0 1 .49 2.4c-.03 1.44.06 2.56.26 3.34a6.27 6.27 0 0 0 .44 1.13 4.23 4.23 0 0 0 .56.98c.28.34.62.7 1 1.07.16.16.22.34.17.53a5.4 5.4 0 0 1-.06.2c-.12.39-.11.68.02.88.73 1.11 1.38 1.97 1.93 2.57a5.98 5.98 0 0 0 1.42 1.1 8.1 8.1 0 0 0 3.1 1c.38 0 .64.08.8.23.39.35.79.72 1.2 1.12.32.3.8.63 1.41 1 .3.17.57.3.84.36l1.64.44c.22.06.47.26.74.61l.13.16c.3.34.61.47.96.4.17-.03.37-.17.6-.43.18-.21.34-.34.46-.4l.72-.35c.24-.12.53-.21.88-.27.19-.03.37-.08.56-.15a5.99 5.99 0 0 0 1.2-.67l.19-.15.17-.13a9.03 9.03 0 0 0 1.87-1.6c.16-.12.42-.2.8-.2l.11-.01c.38-.02.87-.14 1.44-.35.26-.1.51-.2.76-.28a4.88 4.88 0 0 0 1.52-.85c.29-.25.6-.53.92-.84a8.44 8.44 0 0 0 1.7-2.28c.13-.25.2-.47.22-.67a.62.62 0 0 0-.11-.38.1.1 0 0 1-.01-.09c.1-.37.27-.7.53-.97a6.1 6.1 0 0 0 1.37-2.36c.1-.22.16-.46.21-.72.11-.52.17-.98.18-1.37.04-.86.08-1.58.15-2.19.05-.48.15-.94.28-1.38.3-.97.18-1.51-.38-1.64-.27-.06-.41-.26-.43-.61-.02-.18 0-.35.06-.53.08-.27.09-.6.02-.98-.02-.1-.07-.18-.15-.2-.44-.16-.85-.1-1.23.16a.11.11 0 0 1-.13 0c-.05-.02-.06-.06-.06-.1l.02-.14c.05-.43.1-.74.14-.95a30.23 30.23 0 0 0 .34-1.84c.09-.38.13-.66.12-.85a4.89 4.89 0 0 0-.06-.54c-.01-.06-.06-.13-.15-.22a.83.83 0 0 1-.11-.13.1.1 0 0 0-.06-.04.53.53 0 0 0-.36-.01 2.79 2.79 0 0 0-.92.67.14.14 0 0 1-.16.03.14.14 0 0 1-.1-.11 2.34 2.34 0 0 0-.24-.73c-.15-.28-.28-.56-.4-.82a2.72 2.72 0 0 0-.16-.31 2.44 2.44 0 0 1-.17-.33 9.39 9.39 0 0 1-.3-.96c-.03-.1-.09-.22-.19-.38s-.16-.28-.18-.37a1.16 1.16 0 0 1-.05-.36l.01-1.14c0-.1-.05-.17-.16-.22a.43.43 0 0 0-.28-.05.74.74 0 0 1-.23 0c-.23-.02-.46.17-.67.58a3.49 3.49 0 0 0-.4 1.74l-.05.05c-.03.01-.06 0-.08-.02a128.03 128.03 0 0 1-1.37-1.47l-.26-.3c-.37-.33-.73-.65-1.09-.94a5.9 5.9 0 0 0-.9-.6c-.33-.18-.66-.35-1-.5l-.49-.15c-.14-.03-.29-.08-.44-.14-.2-.08-.43-.1-.68-.09-.32.02-.49.14-.5.35v.06c-.01.3.04.48.15.55.33.19.6.33.8.43l.89.43c.17.09.4.24.7.46l.13.1.41.36.31.27c.53.43.87.85 1.04 1.27l.6 1.43c.1.28.18.58.21.9l.03.26c.1.9.14 1.55.12 1.97-.02.26-.07.5-.16.72a1 1 0 0 1-.28.33c-.1.1-.18.17-.22.23a1 1 0 0 0-.16.73 5.5 5.5 0 0 1-.11 2.01c-.11.45-.26.77-.45.98a68.87 68.87 0 0 0-.74.76l-.1.09-.95.9-.24.2c-.13.1-.22.17-.28.24-.27.28-.55.55-.84.79-.3.25-.64.56-.98.92-.37.39-.84.75-1.4 1.07-.3.18-.54.22-.73.14a.1.1 0 0 1-.05-.06c-.1-.26.1-.7.55-1.34.1-.15.24-.25.38-.28.38-.1.78-.25 1.2-.43.43-.2.61-.47.54-.81a4.2 4.2 0 0 0-.07-.3.53.53 0 0 0-.11-.2 7 7 0 0 0-.45-.48 2.35 2.35 0 0 1-.55-.98 3.04 3.04 0 0 0-.32-.61l-.15-.26c-.13-.21-.27-.39-.43-.53a6.15 6.15 0 0 0-.89-.63c-.15-.09-.33-.15-.52-.18a.85.85 0 0 1-.36-.2l-.03-.02a2.26 2.26 0 0 0-.27-.19c-.18-.1-.37-.23-.56-.37-.23-.19-.68-.21-1.33-.07a.64.64 0 0 0-.24.09.76.76 0 0 0-.27.46c-.06.22-.03.39.07.5l.16.17a1.47 1.47 0 0 1 .42.67c.1.26.19.45.26.58l.48.9c.12.24.14.5.06.78-.05.17-.17.41-.36.73l-.02.04a8 8 0 0 1-.64.92c-.2.27-.4.36-.61.27a.74.74 0 0 1-.23-.17l-1.27-1.27-.77-.73c-.56-.5-.96-.89-1.2-1.18a2.26 2.26 0 0 1-.53-1 6.34 6.34 0 0 0-.07-.31c-.07-.27-.1-.48-.1-.63l-.06-.92a1.43 1.43 0 0 0-.36-.74l-.12-.16a1.2 1.2 0 0 1-.23-.58 6.73 6.73 0 0 1 .04-2.08l.1-.71c0-.2.05-.4.13-.62.1-.27.15-.57.15-.91 0-.24.06-.43.17-.56.56-.66 1.21-1.32 1.96-2 .07-.06.16-.13.3-.22l.22-.16c.27-.22.52-.4.76-.52.56-.31 1.22-.58 1.98-.82.16-.05.3-.12.42-.23a.11.11 0 0 0 .03-.07.3.3 0 0 1 .11-.2.17.17 0 0 0 .05-.08c.03-.11.02-.2-.05-.3a.39.39 0 0 0-.27-.16 3.38 3.38 0 0 1-.54-.11.63.63 0 0 0-.37 0l-.77.22a9.82 9.82 0 0 0-2.05.94c-.33.2-.66.4-.97.62-.12.07-.28.21-.49.4-.22.2-.4.35-.53.43-.06.04-.14.12-.23.22l-.12.14-1.08 1.05c-.1.1-.2.16-.33.2-.12.03-.2-.02-.23-.14l-.24-.96a.81.81 0 0 0-.18-.32 1 1 0 0 1-.17-.27.93.93 0 0 0-.42-.5c.24.46.39.76.44.9.05.14.09.3.1.47 0 .13.03.28.06.45.03.16.03.32.01.48-.06.51-.13.9-.22 1.2-.09.3-.24.56-.46.77-.17.18-.32.38-.45.6-.02.05-.01.09.03.11l.07.05c.19.12.27.27.24.45-.04.33-.07.7-.09 1.1 0 .03.01.05.04.06.06.01.1-.01.12-.07.04-.12.11-.3.21-.52a8.96 8.96 0 0 0 .36-1c.07-.25.14-.43.2-.55.24-.47.52-.96.83-1.46.16-.26.35-.5.57-.73a14.3 14.3 0 0 1 2.35-2.26c.26-.2.62-.42 1.08-.68.1-.05.21-.12.34-.21.06-.05.18-.11.35-.17a2.81 2.81 0 0 0 .32-.14c.37-.18.64-.3.84-.34.07-.01.17-.05.3-.1.12-.06.2-.1.27-.12.44-.12.76-.11.97.01.02.02.04.04.04.06.02.14-.04.22-.19.24-.23.03-.42.07-.6.12a9.36 9.36 0 0 0-4.6 3.06c-.22.27-.58.6-1.06.97-.1.07-.2.2-.34.38l-.01.01c-.09.13-.06.17.1.13.1-.03.21-.04.31-.05.06 0 .11.03.14.08.04.05.04.1.02.15a4.6 4.6 0 0 0-.42 1.41c-.07.66-.1 1.2-.1 1.6l.01 1.09c0 .12.02.3.06.54.03.21.05.37.05.48 0 .26-.1.38-.35.35-.21-.03-.33-.16-.33-.4-.02-.96.01-2 .1-3.14 0-.19 0-.33-.02-.43-.05-.28-.15-.3-.28-.04-.12.22-.2.55-.26.98-.01.1-.1.19-.28.25-.2.08-.3.2-.28.34.07.44.15.86.25 1.25a2.85 2.85 0 0 0 .82 1.44c.1.1.18.16.27.19.1.02.18-.01.22-.1l.01-.02c.22-.48.42-.7.6-.68.15.02.21.1.2.26-.02.43-.04.86-.03 1.3 0 .2.07.49.19.88l.08.25c.13.45.35.85.68 1.21.38.43.86.87 1.45 1.32.09.07.21.19.37.36l.28.28c.36.31.7.64 1.02 1l.25.22c.13.11.22.2.27.27.08.1.12.21.13.36 0 .17-.06.28-.19.33-.16.06-.29-.01-.39-.21l-.03-.07a2.7 2.7 0 0 0-.34-.55c-.41-.46-.79-.84-1.14-1.12a92 92 0 0 1-1.07-.89 7.25 7.25 0 0 1-1.4-1.62 3.83 3.83 0 0 1-.57-1.46c-.02-.13-.08-.2-.19-.23-.07-.01-.1.01-.12.08-.05.3-.08.63-.1.97-.02.2-.11.36-.29.48l-.04.03c-.18.13-.26.23-.26.33 0 .4-.02.74-.06 1a32.33 32.33 0 0 0-.19 1.38c-.05.24-.08.4-.06.51.01.12.07.3.17.52l.11.3a25.84 25.84 0 0 0 .66 1.85l.03.11c.05.19.1.32.14.42.21.38.4.69.57.91.08.1.2.14.37.11.15-.02.3 0 .44.06.12.06.21.06.28 0 .06-.05.06-.1.01-.15l-.35-.4a8.24 8.24 0 0 1-.84-1.15c-.08-.1-.19-.28-.33-.5a10.62 10.62 0 0 0-.7-1.01c-.05-.11-.02-.2.1-.24l.31-.15c.09-.03.11-.1.08-.18a8.72 8.72 0 0 1-.53-2c0-.08.03-.14.13-.15.1-.02.25.08.44.29l.07.07a.1.1 0 0 0 .11.03.1.1 0 0 0 .08-.09.84.84 0 0 0-.02-.4 10.6 10.6 0 0 0-.08-.22 2.73 2.73 0 0 1-.2-1.15c0-.04.02-.06.05-.07.22-.06.39.02.5.22a7.74 7.74 0 0 0 2.25 2.37c.4.3.73.69 1.02 1.18l.4.65c.05.08.07.18.06.3 0 .03-.02.06-.05.07l-.34.19c-.1.05-.11.12-.05.21.22.3.4.6.53.92.05.1.01.19-.1.24l-.31.17c-.1.05-.13.13-.08.23.15.34.25.61.3.8.05.25.12.49.2.73.03.1 0 .17-.1.22-.13.05-.24.11-.34.2a.13.13 0 0 0-.04.08l-.01.15c0 .17-.17.29-.5.35h-.03c-.08.02-.1.06-.03.12.21.21.5.42.86.62.1.05.2.03.33-.05.1-.06.19-.08.25-.07.1.02.18.08.22.18.2.42.4.82.6 1.19.13.24.49.79 1.08 1.64.15.2.39.5.72.88.38.42.64.75.79.98.07.1.17.14.3.11.04 0 .07-.03.09-.07a.6.6 0 0 0 .01-.36 4.92 4.92 0 0 1-.15-.86 12.4 12.4 0 0 1 .02-1.95c.02-.2.1-.57.27-1.12.05-.18.12-.34.2-.48.43-.7.43-1.52.01-2.5a2.6 2.6 0 0 1-.1-.29 2.49 2.49 0 0 0-.1-.31c-.23-.5-.44-1-.63-1.5a1.73 1.73 0 0 1-.12-.92c.07-.43.18-.81.34-1.14.09-.18.13-.5.12-.96v-.33c0-.23.14-.41.41-.55l.1-.05a.07.07 0 0 0 .04-.07.07.07 0 0 0-.04-.06c-.39-.16-.63-.17-.73-.03-.1.16-.24.42-.4.77-.19.44-.36.75-.52.93-.26.3-.52.61-.77.93a.99.99 0 0 0-.23.6c0 .12.05.17.16.15.17-.02.28-.1.35-.25.12-.25.25-.48.4-.67.08-.1.18-.13.3-.09.08.03.11.09.09.17-.12.42-.25.86-.4 1.32-.09.3-.16.6-.2.91-.08.46-.2.94-.34 1.45-.03.11.01.18.11.21.05.02.12.02.21 0a.6.6 0 0 1 .2-.01c.07 0 .1.05.08.1-.1.49-.17.98-.22 1.48-.01.09.03.13.13.13a.3.3 0 0 0 .28-.25l.14-.57a.41.41 0 0 1 .29-.3c.1-.02.16.01.2.1.04.1.05.2.05.3v.88c.05.76-.12 1.52-.48 2.28a.7.7 0 0 1-.26.3c-.13.08-.25.07-.36-.04a6 6 0 0 1-1.57-2.2l-.03-.08a4.73 4.73 0 0 1-.4-2.43c.06-.58.24-1.14.54-1.66.1-.2.1-.43-.04-.72a4.7 4.7 0 0 1-.06-.13c-.04-.1-.03-.2.05-.3l.31-.47c.19-.29.34-.5.45-.63a8.87 8.87 0 0 0 1.46-2.35c.12-.27.07-.56-.15-.85a9.27 9.27 0 0 1-.82-1.35c-.1-.2-.14-.47-.1-.8 0-.1-.04-.13-.13-.13h-.56c-.1 0-.14-.05-.14-.14 0-.21.15-.34.42-.4.2-.05.43-.04.66 0 .3.06.6.33.88.8.13.22.3.56.5 1.01.25.54.53.8.84.8.1 0 .17-.05.19-.14a.2.2 0 0 0-.1-.22 2.95 2.95 0 0 0-.56-.27c-.3-.12-.42-.33-.34-.62.04-.12.1-.2.2-.25.1-.06.21-.05.34.02.5.27.89.62 1.13 1.05.23.4.43.82.6 1.29.09.2.18.4.28.57.12.21.39.33.81.35h.06c.11.01.16.07.16.17 0 .07-.02.13-.08.17a1.8 1.8 0 0 1-1.34.52c-.18 0-.31.01-.4.04a.92.92 0 0 0-.47.4c-.3.52-.57 1.01-.8 1.48-.16.35-.07.66.27.96.1.09.3.13.55.12h.14c.12 0 .25-.04.38-.1.2-.1.37-.18.52-.28.38-.24.83-.6 1.33-1.08a164.9 164.9 0 0 1 1.77-1.7c.55-.55 1.13-1.1 1.75-1.64.2-.17.44-.42.7-.74.36-.44.57-.95.64-1.54.1-.89.05-1.57-.15-2.02a.36.36 0 0 1-.02-.24c.01-.03.03-.05.06-.06.12-.04.22-.02.3.06l.3.34c.04.04.08.05.13.02a.16.16 0 0 0 .1-.13c.13-2.13.04-3.77-.27-4.93a3.66 3.66 0 0 0-.43-.91c-.06-.1-.12-.25-.16-.46-.07-.29-.16-.48-.28-.59-.31-.29-.62-.59-.92-.9a7.17 7.17 0 0 0-1.97-1.41 23.2 23.2 0 0 0-1.37-.6c-.14-.05-.21-.15-.21-.3a.2.2 0 0 1 0-.06c.04-.1.11-.14.22-.11a10.1 10.1 0 0 1 1.76.74c.73.33 1.53.88 2.4 1.63.35.3.57.5.66.62a13.24 13.24 0 0 1 2.01 2.85c.26.57.48 1.14.66 1.7a4.48 4.48 0 0 1 .22 1.25c.07.12.15.12.22 0a4.57 4.57 0 0 0-.2-1.72 9.1 9.1 0 0 1-.36-1.63c-.06-.49-.18-1.04-.35-1.65a1.3 1.3 0 0 1-.03-.7c.08-.3.19-.61.32-.96.09-.23.24-.31.46-.26.03.01.05.03.06.05.05.11.05.23-.01.34-.15.26-.22.5-.22.7 0 .43.07.8.24 1.1.1.16.18.33.24.5.2.54.42 1.05.66 1.51.22.4.39.78.52 1.14.17.47.22 1.05.15 1.73-.05.48-.08.95-.08 1.42 0 .14-.06.36-.18.67l-.04.12c-.06.14-.1.3-.12.46-.07.46-.2.96-.42 1.49-.08.19-.02.31.18.37.22.06.42-.06.6-.37.13-.21.22-.46.27-.74.01-.05 0-.08-.05-.1l-.47-.2c-.07-.04-.08-.08-.05-.14.08-.15.16-.39.23-.7.06-.26.12-.44.17-.57.1-.2.17-.44.25-.7a9.97 9.97 0 0 1 1.28-2.71c.1-.12.22-.16.37-.1.03 0 .05.02.05.05.04.14.03.26-.02.37-.15.35-.26.7-.32 1.07-.04.27-.12.67-.24 1.21l-.18.82c-.01.08-.05.2-.1.35-.07.17-.1.3-.12.4-.08.5-.19 1-.34 1.5a2.54 2.54 0 0 1-.24.56c-.16.3-.23.54-.22.72.01.08.05.1.13.06.13-.08.25-.19.34-.33a10.7 10.7 0 0 1 2.1-2.27c.16-.06.25-.05.27 0 .05.13.03.24-.06.33l-.42.4c-.08.06-.08.18-.01.36s.09.32.04.41c-.05.1-.1.26-.18.48l-.14.4-.08.18a11.7 11.7 0 0 1-4.27 5.25c-.23.16-.38.13-.43-.08a.18.18 0 0 0-.12-.13.19.19 0 0 0-.17.02.73.73 0 0 0-.21.2c-.32.43-.67.94-1.05 1.55-.11.16-.26.33-.44.5a.93.93 0 0 0-.1.1.47.47 0 0 1-.21.17.1.1 0 0 1-.07 0c-.14-.08-.2-.22-.19-.42 0-.05-.02-.08-.06-.1a.1.1 0 0 0-.13.02c-.33.32-.67.6-1.02.85-.39.27-.98.56-1.78.88a.38.38 0 0 1-.4-.07v-.04h.02c.01 0 .02 0 0-.01a.29.29 0 0 1-.04-.13.19.19 0 0 0-.1-.15.19.19 0 0 0-.18-.01c-.18.08-.34.2-.47.37a.27.27 0 0 1-.2.1c-.13 0-.23-.04-.28-.14a.36.36 0 0 1-.02-.3c.14-.4.29-.8.46-1.19.06-.14.03-.24-.1-.29-.34-.13-.46-.27-.36-.43l.37-.6a.62.62 0 0 0 .08-.18c.04-.15-.02-.25-.2-.3a.09.09 0 0 0-.1.03c-.14.19-.27.25-.39.2-.02-.02-.03-.04-.01-.06a7.27 7.27 0 0 1 1.15-1.39c.15-.14.3-.29.42-.44.12-.15.25-.27.36-.37l.41-.38c.44-.45.93-.88 1.47-1.32l.8-.68c.2-.2.38-.39.5-.57l.35-.55c.13-.2.28-.22.45-.1.05.04.07.1.06.17-.1.44-.22.82-.36 1.14a.92.92 0 0 0-.05.4c0 .06.04.1.1.1.1.02.22-.08.35-.3l.03-.06c.05-.08.11-.1.2-.06.09.04.13.12.13.22a5.56 5.56 0 0 1-.47 1.76c-.02.04 0 .08.04.1.16.08.3.18.4.3.04.06.04.1.02.16a8.9 8.9 0 0 1-1.05 1.6 77.11 77.11 0 0 0-.76.97c-.03.08 0 .12.08.12.18 0 .35-.05.5-.15a2.55 2.55 0 0 0 1.25-1.56l.14-.41c.1-.26.16-.46.19-.6.1-.44.21-.85.32-1.24.04-.18 0-.36-.12-.56a.9.9 0 0 1-.15-.53c.03-.49 0-1.07-.09-1.75 0-.1-.1-.2-.26-.3-.18-.12-.28-.25-.3-.4a6.8 6.8 0 0 0-.17-1.13c-.02-.07-.07-.1-.14-.1-.08 0-.12.05-.13.14-.02.32-.05.6-.09.84-.04.25-.17.54-.39.87-.22.33-.44.63-.65.9-.17.22-.4.43-.66.64a34.8 34.8 0 0 0-1.47 1.23 11.56 11.56 0 0 0-1.89 2v.02c-.01.02-.02.04-.04.04a.2.2 0 0 0-.12.13l-.05.07c-.17.15-.32.31-.45.49a.84.84 0 0 1-.1.1.55.55 0 0 0-.13.18.1.1 0 0 1-.04.05c-.12.08-.24.16-.34.25-.22.18-.49.29-.82.3-.17.01-.3.06-.39.13-.07.06-.08.13-.03.2.02.05.06.12.12.2.23.38.36.72.37 1 .02.46-.03.93-.15 1.41-.1.38-.17.78-.21 1.2-.01.1-.06.24-.13.43l-.05.13c-.06.16-.07.43-.04.8.02.24.12.45.3.65.07.06.14.07.22.02a18.76 18.76 0 0 0 2.06-2.1 6.06 6.06 0 0 1 .48-.59c.07-.1.2-.12.39-.05a.8.8 0 0 0 .18.05c.1.01.2-.02.28-.08.54-.4 1.36-.85 2.48-1.34.14-.06.35-.12.64-.18.23-.05.4-.1.51-.14.97-.37 1.8-.82 2.53-1.38.96-.74 1.8-1.58 2.53-2.52.06-.09.16-.13.3-.11.1 0 .18.07.2.17.02.1 0 .18-.04.27-.1.2-.22.4-.34.6-.04.07-.03.14.02.2l.1.08c.17.14.24.28.22.41a7.63 7.63 0 0 1-4.34 5.86 9 9 0 0 1-2.4.8l-1.73.34a5.54 5.54 0 0 0-.93.3c-.21.08-.42.2-.6.38a.62.62 0 0 1-.55.14.08.08 0 0 1-.06-.04c-.1-.16-.05-.3.14-.45.07-.05.14-.11.2-.18a5.54 5.54 0 0 1 3.06-1.66 7.65 7.65 0 0 0 4.32-2.83l.1-.15c.04-.1.01-.15-.1-.16-.06-.01-.11 0-.15.05a5.64 5.64 0 0 1-3.03 1.75 9.76 9.76 0 0 0-2.77 1.3 8.27 8.27 0 0 0-1.61 1.49c0 .01 0 .02-.02.03a.46.46 0 0 0-.2.26.84.84 0 0 1-.08.23c-.07.12-.14.3-.22.54-.07.22-.13.38-.18.48-.16.3-.22.8-.2 1.5 0 .24-.02.49-.07.75-.05.22-.14.41-.28.56l-.1.12a2.8 2.8 0 0 1-.29.3c-.28.22-.54.45-.8.67-.2.18-.36.35-.44.5-.06.11-.1.23-.1.35 0 .03 0 .06.02.08.07.12.09.22.06.32l-.1.36a.67.67 0 0 1-.2.37c-.18.15-.34.14-.48-.05-.22-.29-.36-.52-.43-.67-.1-.25-.13-.52-.08-.8a.53.53 0 0 0-.21-.54c-.4-.3-.67-.55-.84-.74-.26-.29-.44-.6-.54-.95-.06-.2-.08-.51-.08-.93 0-.3 0-.52-.02-.66a3.14 3.14 0 0 0-.39-1.1c-.04-.1-.12-.12-.21-.07a.47.47 0 0 1-.53-.07 4.27 4.27 0 0 0-2.02-.87c-.3-.05-.61-.1-.93-.18-.28-.06-.55-.12-.82-.16a5.16 5.16 0 0 1-.88-.22 7.9 7.9 0 0 1-4.61-3.61 8.63 8.63 0 0 1-.87-2.34l-.24-1.27-.18-.98a.3.3 0 0 1 .11-.3c.1-.1.2-.08.3.04.48.6.88 1.24 1.2 1.91.1.2.18.4.25.64a8.41 8.41 0 0 0 2.62 3.5c.29.22.75.52 1.36.9.2.12.42.22.66.3l.5.14a10.98 10.98 0 0 1 3.13 1.4c.07.04.14.03.2-.03.1-.1.08-.22-.04-.33a8.85 8.85 0 0 0-1.91-1.34c-.53-.26-1.12-.5-1.78-.72a33.79 33.79 0 0 1-1.17-.41A4.5 4.5 0 0 1 16.97 33l-.68-1.17c-.1-.16-.05-.27.11-.33s.3 0 .41.14a5.14 5.14 0 0 0 1.76 1.17c.27.1.54.23.8.37.14.08.3.11.45.11.02 0 .03-.01.02-.03a2.58 2.58 0 0 0-.42-.6 15.86 15.86 0 0 1-1.07-1.26s0-.02-.02-.03c-.2-.23-.36-.32-.51-.28-.21.06-.48-.05-.8-.32l-.02-.01c-.65-.53-1.21-1.06-1.7-1.59a12.4 12.4 0 0 1-2.24-3.44 5.7 5.7 0 0 1-.22-.65 7.73 7.73 0 0 0-.15-.49 1.68 1.68 0 0 1-.07-.58v-.13a.1.1 0 0 0-.03-.08l-.2-.18c-.2-.17-.34-.32-.42-.45a.13.13 0 0 1 0-.14.14.14 0 0 1 .12-.08c.12 0 .24.03.34.11.85.7 1.48 1.38 1.9 2.05.14.23.3.45.47.65.06.07.14.08.21 0 .06-.06.07-.14.02-.23a7.83 7.83 0 0 1-.9-2.82c-.06-.25-.1-.44-.11-.57-.08-.61-.2-1.33-.35-2.15a2.8 2.8 0 0 0-.45-1.08.76.76 0 0 1-.13-.36c-.01-.09.03-.14.13-.15.15-.02.27.03.36.16.6.85.94 1.6 1.04 2.28 0 .07.05.09.11.06a.2.2 0 0 0 .1-.13c.09-.3.16-.6.2-.91.06-.32.2-.73.42-1.23.37-.84.84-1.9 1.43-3.16.3-.62.32-1.13.08-1.54a3.69 3.69 0 0 1-.31-.62Zm14.02 19.96c0-.16-.03-.34-.12-.55a1.02 1.02 0 0 1-.06-.29 1.08 1.08 0 0 0-.07-.3c-.05-.11-.13-.13-.24-.06l-.32.2c-.08.05-.1.12-.08.21a3.72 3.72 0 0 1 .08 1.47c-.05.4-.1.7-.14.9a9.2 9.2 0 0 0-.2 1.63c0 .05.03.06.07.05a.5.5 0 0 0 .22-.12c.28-.25.54-.51.79-.78.1-.12.2-.26.27-.41a.1.1 0 0 0 0-.09 2.13 2.13 0 0 0-.19-.33.82.82 0 0 1-.13-.64c.05-.3.1-.6.12-.9Z" fill="rgb(242, 227, 167)" fill-rule="evenodd"/>
<path d="M16.7 13.05c.1-.02.21-.01.34.01.24.46.38.76.44.9.05.14.08.3.1.47 0 .13.03.28.06.45.03.16.03.32.01.48-.06.51-.13.9-.22 1.2-.09.3-.24.56-.46.77-.17.18-.32.38-.45.6-.02.05-.01.09.03.11l.07.05c.18.12.27.27.24.45-.04.34-.07.7-.09 1.1 0 .03.01.05.04.06.06.01.1-.01.12-.07.04-.12.11-.3.21-.52a8.99 8.99 0 0 0 .36-1c.07-.25.14-.43.2-.55.24-.47.52-.96.83-1.46.16-.26.35-.5.57-.73.14-.15.29-.3.43-.47.6-.67 1.24-1.27 1.92-1.79.26-.2.62-.42 1.08-.68.1-.05.2-.12.33-.21.07-.05.2-.11.36-.17a2.92 2.92 0 0 0 .32-.14c.37-.18.64-.3.84-.33l.3-.12c.11-.05.2-.09.27-.1.44-.13.76-.12.97 0 .02.02.04.04.04.06.02.14-.04.22-.19.24-.23.03-.43.07-.6.12a9.36 9.36 0 0 0-4.6 3.06c-.22.27-.58.6-1.06.97-.1.07-.2.2-.34.38l-.01.01c-.09.13-.06.17.1.13.1-.03.21-.04.31-.05.06 0 .1.03.14.08.04.05.04.1.02.15a4.6 4.6 0 0 0-.42 1.41c-.07.66-.1 1.2-.1 1.6l.01 1.09c0 .12.02.3.05.54.04.21.05.37.06.48 0 .26-.1.38-.35.35-.22-.03-.33-.16-.33-.4-.02-.96.01-2 .1-3.14 0-.19 0-.33-.02-.43-.05-.28-.15-.3-.28-.04-.12.22-.2.55-.26.98-.01.1-.1.19-.28.25-.2.08-.3.2-.28.34.07.44.15.86.24 1.25a2.85 2.85 0 0 0 .83 1.44c.1.1.18.16.27.19.1.02.18-.01.22-.1l.01-.02c.22-.48.42-.7.6-.68.15.02.21.1.2.26-.02.43-.04.86-.03 1.3 0 .2.07.49.19.88l.08.25c.13.45.35.85.68 1.21.38.43.86.87 1.45 1.32.09.07.21.19.37.36l.28.28c.36.31.7.64 1.02 1l.24.22c.14.11.23.2.28.27.08.1.12.21.13.36 0 .17-.06.28-.19.33-.16.06-.29-.01-.4-.21 0-.02 0-.04-.02-.07a2.7 2.7 0 0 0-.34-.55c-.41-.46-.8-.84-1.14-1.12l-1.07-.89a7.25 7.25 0 0 1-1.4-1.62 3.83 3.83 0 0 1-.57-1.46c-.02-.13-.08-.2-.2-.23-.06-.01-.1.01-.1.08-.06.3-.1.63-.12.97-.01.2-.1.36-.28.48l-.04.03c-.18.13-.26.24-.26.33 0 .4-.02.74-.06 1a32.33 32.33 0 0 0-.19 1.38c-.05.24-.08.4-.06.51.01.12.07.3.17.53a25.84 25.84 0 0 0 .77 2.14l.03.11c.05.19.1.32.14.42.21.38.4.69.57.91.08.1.2.14.37.11.15-.02.3 0 .44.06.12.06.21.06.28 0 .06-.05.06-.1.01-.15l-.35-.4a8.23 8.23 0 0 1-.84-1.15c-.08-.1-.19-.28-.33-.5a10.6 10.6 0 0 0-.7-1.01c-.05-.11-.02-.2.1-.24l.31-.15c.09-.03.11-.1.08-.18a8.73 8.73 0 0 1-.53-2c-.01-.08.03-.14.13-.15.1-.02.25.08.44.29l.07.07a.1.1 0 0 0 .11.03.1.1 0 0 0 .08-.09.84.84 0 0 0-.02-.4l-.08-.22a2.73 2.73 0 0 1-.2-1.15c0-.04.02-.06.05-.07.22-.05.39.02.5.22a7.74 7.74 0 0 0 2.25 2.37c.39.3.73.69 1.02 1.18l.4.65c.05.08.07.19.06.3 0 .04-.02.06-.05.07l-.34.19c-.1.05-.11.12-.05.21.22.3.4.6.53.92.05.1.01.19-.1.24l-.31.17c-.1.05-.13.13-.08.23.15.34.25.61.3.8.05.25.12.49.2.73.02.1 0 .17-.1.22-.13.05-.24.11-.34.2a.13.13 0 0 0-.04.08l-.02.15c0 .17-.16.29-.5.35h-.02c-.08.02-.1.06-.03.12.21.21.5.42.86.62.1.05.2.03.33-.05.1-.06.18-.08.25-.07.1.02.17.08.22.18.2.42.4.82.6 1.19.12.24.49.79 1.08 1.64.14.2.39.5.72.88.38.42.64.75.79.98.07.1.16.14.3.11.04 0 .07-.03.09-.07a.6.6 0 0 0 .01-.36 4.93 4.93 0 0 1-.15-.86c-.05-.74-.04-1.39.01-1.95.02-.2.12-.57.28-1.12.05-.18.12-.34.2-.48.43-.7.43-1.52.01-2.5a2.56 2.56 0 0 1-.1-.29 2.5 2.5 0 0 0-.1-.31c-.23-.5-.44-1-.64-1.5a1.73 1.73 0 0 1-.11-.92c.07-.43.18-.81.34-1.14.09-.18.13-.5.11-.96v-.33c.01-.23.15-.41.42-.55l.1-.05a.07.07 0 0 0 .04-.07.07.07 0 0 0-.04-.06c-.39-.16-.63-.17-.73-.02-.1.15-.24.4-.4.76-.19.44-.36.75-.52.93-.26.3-.52.61-.77.93a.99.99 0 0 0-.24.61c0 .11.06.16.17.14.17-.02.28-.1.35-.25.11-.25.25-.48.4-.67.08-.1.18-.13.3-.09.08.03.11.09.09.17-.12.42-.25.86-.4 1.32-.09.3-.16.6-.2.91-.08.46-.2.94-.34 1.45-.03.11.01.18.11.21.05.02.12.02.21 0a.6.6 0 0 1 .2-.01c.07 0 .1.05.08.1-.1.49-.17.98-.22 1.48-.01.09.03.14.13.13a.3.3 0 0 0 .28-.25c.04-.2.08-.4.14-.57a.41.41 0 0 1 .29-.3c.1-.02.16.01.2.1.04.1.05.2.05.3v.88c.05.76-.12 1.52-.48 2.28a.7.7 0 0 1-.26.3c-.13.08-.25.07-.36-.04a6 6 0 0 1-1.6-2.29 4.73 4.73 0 0 1-.4-2.42c.06-.58.24-1.14.54-1.66.1-.2.1-.43-.04-.72l-.06-.13c-.04-.1-.03-.2.05-.3l.31-.47c.18-.29.33-.5.45-.63a8.87 8.87 0 0 0 1.46-2.35c.12-.27.07-.55-.15-.85a9.27 9.27 0 0 1-.82-1.35c-.1-.2-.14-.47-.1-.8 0-.1-.04-.13-.13-.13h-.56c-.1 0-.14-.05-.14-.14 0-.21.15-.34.42-.4.2-.05.42-.04.66 0 .3.06.6.33.88.8.13.22.3.56.5 1.01.25.54.53.8.84.8.1 0 .17-.05.19-.14a.2.2 0 0 0-.1-.22 2.95 2.95 0 0 0-.56-.27c-.3-.12-.42-.33-.34-.62.04-.12.1-.2.2-.25.1-.06.2-.05.34.02.5.27.89.62 1.13 1.05.23.4.43.82.6 1.29.09.2.17.4.28.57.11.21.39.33.81.35h.06c.11.01.16.07.16.17 0 .07-.03.13-.08.17a1.8 1.8 0 0 1-1.34.52c-.18 0-.31.01-.4.04a.92.92 0 0 0-.47.4c-.3.52-.57 1.01-.8 1.48-.16.35-.07.66.27.96.1.09.29.13.55.12h.14c.12 0 .25-.04.38-.1.2-.1.37-.18.51-.28.4-.24.84-.6 1.33-1.08a168.9 168.9 0 0 1 1.78-1.7c.55-.55 1.13-1.1 1.75-1.64.2-.17.43-.42.7-.74.36-.44.57-.95.64-1.54.1-.89.05-1.57-.15-2.02a.36.36 0 0 1-.02-.24c.01-.03.03-.05.06-.06.12-.04.22-.02.3.06l.3.34c.04.04.08.05.13.02a.16.16 0 0 0 .1-.13c.13-2.13.04-3.77-.27-4.93a3.66 3.66 0 0 0-.44-.91c-.05-.1-.1-.25-.15-.46-.07-.29-.16-.48-.28-.59-.31-.29-.62-.59-.92-.9a7.17 7.17 0 0 0-1.97-1.41c-.36-.17-.82-.37-1.37-.6-.15-.05-.22-.15-.21-.3a.2.2 0 0 1 0-.06c.04-.1.1-.14.22-.11a10.12 10.12 0 0 1 1.76.74c.73.33 1.53.88 2.4 1.63.34.3.57.5.66.62a13.24 13.24 0 0 1 2.01 2.85c.26.57.48 1.14.66 1.7a4.48 4.48 0 0 1 .22 1.25c.07.12.15.12.22 0a4.58 4.58 0 0 0-.2-1.72 9.08 9.08 0 0 1-.36-1.63c-.06-.49-.18-1.04-.36-1.65a1.29 1.29 0 0 1-.02-.7c.08-.3.19-.61.32-.96.09-.23.24-.31.46-.26l.06.05c.05.11.05.23-.02.34-.14.26-.21.5-.21.7 0 .43.07.8.24 1.1.1.16.17.33.24.5.2.54.42 1.05.66 1.51.22.4.39.78.52 1.14.17.47.22 1.05.15 1.73-.05.48-.08.95-.08 1.42 0 .14-.06.36-.18.67l-.05.12c-.05.14-.09.3-.11.46-.07.46-.21.96-.42 1.49-.08.19-.02.31.17.37.23.06.43-.06.61-.37.13-.21.22-.46.27-.74.01-.05 0-.08-.05-.1l-.47-.2c-.07-.04-.08-.08-.05-.14.08-.15.16-.39.23-.7.06-.26.12-.44.17-.57.09-.2.17-.44.25-.7a9.96 9.96 0 0 1 1.28-2.71c.1-.12.22-.16.37-.1.03 0 .05.02.05.05.04.14.03.26-.02.37-.15.35-.26.7-.32 1.07-.04.27-.12.67-.24 1.21l-.18.82c-.01.08-.05.2-.1.35-.07.17-.1.3-.12.4-.08.5-.19 1-.34 1.5a2.54 2.54 0 0 1-.24.56c-.16.3-.23.54-.22.72 0 .08.05.1.13.06.13-.08.25-.19.34-.33a10.7 10.7 0 0 1 2.1-2.27c.16-.06.25-.05.27 0a.3.3 0 0 1-.06.33l-.42.4c-.08.06-.08.18-.01.36s.09.32.04.41c-.05.1-.1.26-.18.48a5.5 5.5 0 0 1-.22.58 11.72 11.72 0 0 1-4.27 5.25c-.23.16-.38.13-.43-.08a.18.18 0 0 0-.12-.13.19.19 0 0 0-.17.02.73.73 0 0 0-.21.2c-.32.43-.67.94-1.06 1.55-.1.16-.25.33-.43.5a.95.95 0 0 0-.1.1.47.47 0 0 1-.21.17.1.1 0 0 1-.08 0c-.13-.08-.2-.22-.18-.42 0-.05-.02-.08-.07-.1a.1.1 0 0 0-.12.02c-.33.32-.67.6-1.03.85-.38.27-.97.56-1.77.88a.38.38 0 0 1-.4-.07v-.03l.02-.01c.01 0 .02 0 0-.01a.29.29 0 0 1-.04-.13.19.19 0 0 0-.1-.15.19.19 0 0 0-.18-.01c-.18.08-.34.2-.47.37a.27.27 0 0 1-.2.1c-.14 0-.23-.04-.28-.14a.36.36 0 0 1-.02-.3c.13-.4.29-.8.46-1.19.06-.14.03-.24-.1-.29-.34-.13-.46-.27-.36-.43l.37-.6a.61.61 0 0 0 .08-.18c.04-.15-.02-.25-.2-.3a.09.09 0 0 0-.1.03c-.14.19-.27.25-.39.2-.02-.02-.03-.04-.01-.06a7.27 7.27 0 0 1 1.15-1.39c.15-.14.3-.29.42-.44.12-.15.25-.27.36-.37l.41-.38c.44-.44.93-.88 1.46-1.32a19 19 0 0 0 .8-.68c.22-.2.39-.39.5-.57l.36-.55c.13-.2.27-.22.45-.1.05.04.07.1.06.17-.1.44-.22.82-.36 1.14a.91.91 0 0 0-.05.4c0 .06.04.1.1.1.1.02.22-.08.35-.3a2 2 0 0 1 .03-.06c.05-.08.11-.1.2-.06.09.05.13.12.13.22a5.56 5.56 0 0 1-.47 1.76c-.02.04 0 .08.04.1.16.08.3.18.4.3.04.06.04.1.02.16-.3.57-.65 1.1-1.05 1.6a78.03 78.03 0 0 0-.76.98c-.03.07 0 .11.08.11.18 0 .35-.05.5-.15a2.55 2.55 0 0 0 1.25-1.56l.14-.41c.1-.26.16-.46.19-.6.1-.44.21-.85.32-1.24.04-.18 0-.36-.12-.56a.9.9 0 0 1-.15-.53c.03-.49 0-1.07-.09-1.75 0-.1-.1-.2-.26-.3-.19-.12-.29-.25-.3-.4a6.8 6.8 0 0 0-.17-1.13c-.02-.07-.07-.1-.14-.1-.08 0-.12.05-.13.14-.02.32-.05.6-.1.84-.03.25-.16.54-.38.87-.22.33-.44.63-.65.9-.17.22-.4.43-.66.64a34.71 34.71 0 0 0-1.47 1.23 11.57 11.57 0 0 0-1.89 2v.02c-.01.02-.02.04-.04.04a.2.2 0 0 0-.12.13l-.05.07c-.18.15-.32.31-.45.49a.83.83 0 0 1-.1.1.55.55 0 0 0-.13.18.1.1 0 0 1-.04.05c-.12.08-.24.16-.34.25-.22.18-.5.29-.82.3-.17.01-.3.06-.39.13-.07.06-.08.13-.03.2.02.05.06.12.12.2.23.38.36.72.37 1 .02.46-.03.93-.15 1.41-.1.38-.17.78-.21 1.2-.02.1-.06.24-.13.43l-.05.13c-.06.16-.07.43-.04.81.01.23.12.44.3.64.07.06.14.07.22.02a18.82 18.82 0 0 0 2.06-2.1 6.06 6.06 0 0 1 .48-.59c.07-.1.2-.12.38-.05.09.03.15.05.2.05.1.01.19-.02.27-.08.54-.4 1.36-.85 2.48-1.34.14-.06.35-.12.64-.18.23-.05.4-.1.51-.14.97-.37 1.8-.82 2.53-1.38.96-.74 1.8-1.58 2.52-2.52.07-.09.17-.13.3-.11.12 0 .19.07.2.17.03.1.02.18-.03.27-.1.2-.22.4-.34.6-.04.07-.03.14.02.2l.1.08c.17.14.24.28.22.41a7.63 7.63 0 0 1-4.35 5.86 8.98 8.98 0 0 1-2.4.8l-1.72.34a5.52 5.52 0 0 0-.93.3c-.22.08-.42.2-.6.38a.62.62 0 0 1-.56.14.08.08 0 0 1-.06-.04c-.09-.16-.04-.3.15-.45.07-.05.14-.11.2-.18a5.54 5.54 0 0 1 3.06-1.66 7.65 7.65 0 0 0 4.32-2.83l.1-.15c.04-.1.01-.15-.1-.16-.06-.01-.11 0-.15.05a5.64 5.64 0 0 1-3.03 1.75 9.76 9.76 0 0 0-2.77 1.3 8.27 8.27 0 0 0-1.61 1.49c0 .01 0 .02-.02.03a.46.46 0 0 0-.2.26.84.84 0 0 1-.08.24c-.07.11-.14.29-.22.53-.07.22-.13.38-.18.48-.16.3-.22.8-.2 1.5 0 .24-.02.49-.07.75-.05.22-.14.41-.28.56l-.1.12-.29.3c-.28.22-.54.45-.8.67-.2.18-.36.35-.45.5-.05.11-.09.23-.1.35l.02.08c.07.12.1.22.07.32l-.1.36a.67.67 0 0 1-.2.37c-.18.15-.34.14-.48-.05a3.7 3.7 0 0 1-.43-.67c-.1-.25-.13-.52-.08-.8a.53.53 0 0 0-.21-.54c-.4-.3-.68-.55-.84-.74-.26-.29-.44-.6-.54-.95-.06-.2-.08-.51-.08-.93 0-.3 0-.52-.02-.66a3.14 3.14 0 0 0-.39-1.1c-.05-.1-.12-.12-.21-.07a.47.47 0 0 1-.53-.07 4.27 4.27 0 0 0-2.02-.87c-.3-.05-.61-.1-.93-.18a11.7 11.7 0 0 0-.82-.16 5.15 5.15 0 0 1-.88-.22 7.89 7.89 0 0 1-4.61-3.61 8.6 8.6 0 0 1-.56-1.32 9.26 9.26 0 0 1-.55-2.29l-.18-.98a.3.3 0 0 1 .1-.3c.11-.1.2-.08.3.04.49.6.89 1.24 1.21 1.91.1.2.18.41.25.64a8.42 8.42 0 0 0 2.62 3.5c.29.22.74.52 1.36.9.2.12.42.22.66.3l.5.14a10.98 10.98 0 0 1 3.13 1.4c.07.04.14.03.2-.03.1-.1.08-.22-.04-.33a8.85 8.85 0 0 0-1.92-1.34c-.52-.26-1.11-.5-1.77-.72a33.74 33.74 0 0 1-1.17-.41A4.5 4.5 0 0 1 16.97 33l-.68-1.17c-.1-.16-.05-.27.11-.33s.3 0 .41.14a5.14 5.14 0 0 0 1.76 1.17c.27.1.54.23.8.37.14.08.3.11.45.11.02 0 .03-.01.02-.03a2.57 2.57 0 0 0-.42-.6 15.85 15.85 0 0 1-1.07-1.26l-.02-.03c-.2-.23-.36-.32-.51-.28-.21.06-.48-.05-.8-.32l-.03-.01c-.64-.53-1.2-1.06-1.7-1.59a12.4 12.4 0 0 1-2.23-3.44 5.72 5.72 0 0 1-.22-.65 7.74 7.74 0 0 0-.15-.49 1.68 1.68 0 0 1-.07-.58v-.13a.1.1 0 0 0-.03-.08l-.2-.18c-.2-.17-.34-.32-.42-.45a.13.13 0 0 1 0-.14.14.14 0 0 1 .12-.08c.12 0 .24.03.34.11a8.6 8.6 0 0 1 1.9 2.05c.14.23.3.45.47.65.06.07.13.08.2 0 .07-.06.08-.14.03-.23l-.1-.2a7.83 7.83 0 0 1-.8-2.61c-.06-.26-.1-.45-.11-.58-.08-.61-.2-1.33-.35-2.15a2.81 2.81 0 0 0-.45-1.08.76.76 0 0 1-.13-.36c-.01-.09.03-.14.13-.15.15-.02.27.03.36.16.6.85.94 1.6 1.04 2.28 0 .07.05.09.11.06a.2.2 0 0 0 .1-.13c.09-.3.16-.6.2-.91.06-.32.2-.73.42-1.23.37-.84.84-1.9 1.43-3.16.3-.62.32-1.13.08-1.54a3.7 3.7 0 0 1-.31-.62.24.24 0 0 1 .05-.26Z" fill="rgb(0, 174, 83)"/>
<path d="M37.62 17.62c.16.36.26.73.3 1.11.04.26.19.48.46.65.03.02.05.06.05.1a3.3 3.3 0 0 1-.27 1.78c-.22.47-.45.73-.7.79-.04 0-.06 0-.05-.05.2-1.12.24-2.13.1-3.02l-.2-1.1c-.04-.22.02-.34.19-.33.05 0 .1.02.12.07ZM40.4 21.3c-.05.4-.19.72-.44.95-.04.04-.09.04-.13.01-.05-.03-.06-.08-.04-.13.16-.44.26-.91.28-1.41a6.35 6.35 0 0 0-.24-2.2c-.01-.03 0-.05.02-.07a.07.07 0 0 1 .08-.01c.07.03.13.09.16.16.31.62.41 1.52.3 2.7ZM15.67 21.8c-.06 0-.09.04-.08.1l.08 1.08a2 2 0 0 0 .12.56c.1.28.19.59.25.92.05.22-.08.41-.4.58-.07.04-.13.03-.18-.04a1.41 1.41 0 0 1-.22-.42l-.3-.98a.82.82 0 0 0-.14-.29c-.02-.02-.02-.04 0-.05l.02-.01h.02c.05.05.08.1.11.16.05.11.16.16.32.13s.23-.12.2-.26c-.07-.37-.1-.75-.09-1.12 0-.08.04-.16.1-.26.08-.13.1-.27.04-.4a.87.87 0 0 1-.08-.56c.1-.52.24-1.08.39-1.67.06-.24.14-.47.24-.69a.1.1 0 0 1 .1-.06h.04c.05.02.07.05.06.1a4.1 4.1 0 0 0-.13.8 17.8 17.8 0 0 0 0 2.21c0 .1-.04.14-.13.15l-.34.02ZM41.66 26.55c.27-.57.57-1.1.88-1.57.06-.08.13-.11.22-.08.03 0 .04.02.03.05-.28.74-.6 1.43-.97 2.07-.22.36-.45.7-.72 1.02a.9.9 0 0 1-.33.26c-.08.03-.12 0-.15-.07-.03-.1 0-.19.08-.27a5 5 0 0 0 .96-1.4ZM15.38 28.35a7.63 7.63 0 0 1-1.79-2.99c-.04-.14 0-.17.13-.08l.15.16c.58.88 1.2 1.85 1.84 2.93.02.02.02.05 0 .08a.08.08 0 0 1-.08.04.38.38 0 0 1-.25-.14Z" fill="rgb(242, 227, 167)"/>
<path d="M41.12 34.88c.31-.37.55-.8.71-1.25.16-.45.32-1.17.5-2.18l.01-.13.12-.73a11.8 11.8 0 0 1 .52-2.09 12.7 12.7 0 0 1 1.44-2.96.1.1 0 0 1 .11-.02c.2.1.25.27.12.51-.2.41-.33.78-.37 1.12l-.11.66c-.08.48-.13.84-.14 1.08l-.07 1.53a6.55 6.55 0 0 1-2.28 4.73c-.3.27-.67.53-1.08.77a.4.4 0 0 1-.38.04c-.12-.06-.14-.13-.05-.23l.04-.04c.08-.08.15-.15.2-.18.34-.26.57-.47.7-.63ZM12.9 33.16a5.86 5.86 0 0 1-.68-2.38c-.02-.5-.02-1 0-1.48a6.98 6.98 0 0 0-.42-2.67c-.03-.1-.1-.25-.2-.44a3.46 3.46 0 0 1-.16-.32c-.05-.12-.01-.2.1-.26l.02-.01c.15-.08.27-.05.36.08.58.84.98 1.71 1.21 2.63l.28 1.07c.06.2.12.52.19.96l.1.58c.16.79.34 1.57.54 2.36.2.84.7 1.59 1.51 2.24.07.05.11.12.13.2a.18.18 0 0 1-.1.2.23.23 0 0 1-.24 0 7.68 7.68 0 0 1-2.64-2.76Z" fill="rgb(0, 174, 83)"/>
<path d="M40.09 26.56c.01.24.1.42.21.42.1 0 .19-.2.18-.43-.01-.23-.1-.42-.21-.42-.1 0-.19.2-.18.43ZM21.28 33.6c.02.03.03.06.03.1-.01.1-.06.13-.14.1-.3-.1-.6-.2-.89-.33-.13-.06-.2-.16-.19-.29 0-.03.01-.05.04-.06.17-.14.35-.16.51-.07.25.14.46.32.64.54Z" fill="rgb(242, 227, 167)"/>
<path d="M37.73 38.45a7.2 7.2 0 0 1 1.56-1.19c.5-.28.9-.5 1.23-.62.38-.14.73-.31 1.05-.5.1-.05.2-.06.29 0a.1.1 0 0 1 .05.07l.01.03c.03.1.02.18-.02.23l-.23.28c-.15.17-.25.3-.31.39-.24.37-.46.67-.64.91a7.08 7.08 0 0 1-3.88 2.72c-.34.08-.67.17-.98.28-.16.06-.29.06-.4 0-.13-.06-.15-.14-.05-.25l.3-.28c.16-.12.3-.26.42-.42a.94.94 0 0 1 .1-.1.56.56 0 0 0 .14-.18.1.1 0 0 1 .04-.05.6.6 0 0 0 .15-.15l.1-.1a76.75 76.75 0 0 1 1.07-1.07ZM20.41 40.41a3.06 3.06 0 0 1 .3.28c.1.1.14.21.12.36a.1.1 0 0 1-.07.07.68.68 0 0 1-.43 0l-1.33-.4a5.82 5.82 0 0 1-2.36-1.35c-.54-.5-1.1-1.2-1.7-2.12a4.12 4.12 0 0 0-.64-.74c-.06-.07-.08-.15-.04-.23.03-.08.1-.12.2-.1.06 0 .13.02.19.04l1.3.54a7.17 7.17 0 0 1 1.43.79 13.37 13.37 0 0 1 3.03 2.86ZM21.32 40.95c-.51-.6-.97-1.2-1.37-1.82-.06-.1-.13-.19-.2-.27-.09-.1-.15-.2-.2-.31-.06-.13-.04-.24.05-.31.1-.08.28-.07.54.04l.18.07c.75.2 1.42.4 2.03.6.6.2 1.13.42 1.58.67.5.28.87.77 1.12 1.47.24.67.46 1.18.68 1.53.27.43.62.83 1.05 1.18.14.12.18.25.1.38-.08.14-.21.17-.39.08l-.04-.02c-.39-.18-.7-.28-.91-.3-.27-.02-.5-.07-.7-.15a5.81 5.81 0 0 1-1.54-.9 14.6 14.6 0 0 1-1.98-1.94ZM30.14 43.14c.16-.18.31-.38.46-.61.1-.17.2-.4.3-.69l.1-.35c.18-.6.38-1.04.6-1.3a4.36 4.36 0 0 1 2.07-1.24c.53-.17.98-.29 1.34-.37.44-.1.85-.22 1.23-.36.1-.04.18-.03.26.03.14.11.13.3-.04.56a16.65 16.65 0 0 1-.28.42c-.08.15-.15.25-.21.3a.14.14 0 0 0-.04.08.27.27 0 0 1-.09.14.71.71 0 0 0-.11.14l-.24.32-.78.92a12.72 12.72 0 0 1-3.36 2.65c-.12.05-.34.1-.63.14-.16.02-.27.03-.33.05-.4.1-.75.26-1.07.49a.59.59 0 0 1-.42.1c-.13-.01-.17-.08-.12-.2.05-.1.1-.2.18-.27.09-.09.18-.16.28-.22.35-.2.65-.45.9-.73Z" fill="rgb(0, 174, 83)"/>
</svg>
