<!-- by Finnhub --><svg xmlns="http://www.w3.org/2000/svg" width="56" height="56" viewBox="0 0 56 56"><path fill="#F0F3FA" d="M0 0h56v56H0z"/><path d="M17 33.25A6.68 6.68 0 0 1 12.45 35C8.89 35 6 32.3 6 29c0-3.32 2.89-6 6.45-6 1.68 0 3.2.6 4.35 1.57l-1.62 1.64a4.12 4.12 0 0 0-7.02 2.8A4.13 4.13 0 0 0 15 31.96V30h-3v-2h5v5.25Z" fill="#58585A"/><path fill-rule="evenodd" d="M17 38.37c2.69 4.33 12.09 3.2 21-2.53 8.91-5.72 13.96-13.88 11.28-18.2-2.68-4.34-12.08-3.2-21 2.52-8.9 5.72-13.96 13.88-11.28 18.2Zm.35-1.12c2.37 3.84 10.86 2.72 18.96-2.48 8.1-5.2 12.75-12.53 10.37-16.36-2.37-3.83-10.86-2.72-18.96 2.48-8.1 5.2-12.75 12.53-10.37 16.36Z" fill="url(#athil21hy)"/><path fill="#58585A" d="M28 23h2v12h-2zM32 23h2v12h-2zM18 23v2h3.5v10h2V25H27v-2h-9Z"/><ellipse cx="29" cy="19.69" rx="2.17" ry="2.21" fill="#00B0EB"/><ellipse cx="29" cy="19.69" rx=".9" ry=".92" fill="#83CDF0"/><defs><linearGradient id="athil21hy" x1="48.44" y1="16.86" x2="14.85" y2="37.16" gradientUnits="userSpaceOnUse"><stop stop-color="#00AAE8"/><stop offset="1" stop-color="#A0D6F4"/></linearGradient></defs></svg>