<?xml version="1.0" encoding="UTF-8"?>
<!-- generated by Finnhub -->
<svg viewBox="0 0 55.5 55.5" xmlns="http://www.w3.org/2000/svg">
<path d="M 0,0 H 55.5 V 55.5 H 0 Z" fill="rgb(239, 242, 248)"/>
<path d="M 47.99,34.985 V 29 H 51.98 V 30 H 49 V 31.54 H 51.5 V 32.45 H 49 V 34 H 52 V 35 H 48 Z M 43.57,29 L 44.97,33.72 H 45.03 L 46.43,29 H 47.5 L 45.6,35 H 44.4 L 42.5,29 H 43.57 Z M 42,29 V 35 H 41 V 29 H 42 Z M 36.5,30 V 29 H 40.5 V 30 H 39 V 35 H 38 V 30 H 36.5 Z M 36.5,32 C 36.5,32.63 36.39,33.17 36.17,33.62 A 2.34,2.34 0 0,1 34,35 A 2.35,2.35 0 0,1 31.83,33.61 A 3.66,3.66 0 0,1 31.5,32 C 31.5,31.37 31.6,30.83 31.83,30.39 A 2.35,2.35 0 0,1 34,29 A 2.34,2.34 0 0,1 36.17,30.39 C 36.39,30.83 36.5,31.37 36.5,32 Z M 35.5,32 C 35.5,31.56 35.44,31.18 35.32,30.88 C 35.19,30.58 35.01,30.34 34.78,30.18 A 1.34,1.34 0 0,0 34,29.95 C 33.7,29.95 33.44,30.03 33.22,30.19 C 32.99,30.34 32.82,30.57 32.68,30.88 C 32.55,31.18 32.49,31.56 32.49,32 C 32.49,32.44 32.55,32.82 32.69,33.12 A 1.35,1.35 0 0,0 34.01,34.05 C 34.3,34.05 34.56,33.97 34.78,33.82 C 35.01,33.66 35.18,33.42 35.32,33.12 C 35.44,32.82 35.51,32.44 35.51,32 Z M 25,29 H 26.27 L 27.97,33.35 H 28.03 L 29.73,29 H 31 V 35 H 30 V 30.88 H 29.95 L 28.37,34.98 H 27.63 L 26.05,30.87 H 26 V 35 H 25 V 29 Z M 24,32 C 24,33.5 23.15,35 21.5,35 S 19,33.5 19,32 S 19.84,29 21.5,29 C 23.15,29 24,30.5 24,32 Z M 23,32 C 23,31.06 22.6,30 21.5,30 S 20,31.06 20,32 C 20,32.94 20.4,34 21.5,34 S 23,32.94 23,32 Z M 14.56,30 V 29 H 18.73 V 30 H 17.12 V 35 H 16 V 30 H 14.56 Z M 13,29 H 14 V 32.86 C 14,34.25 12.78,35 11.5,35 S 9,34.25 9,32.86 V 29 H 10 V 32.77 C 10,33.56 10.75,34.04 11.5,34.04 S 13,33.56 13,32.77 V 29 Z M 5,35 H 4 L 5.84,29 H 7 L 8.84,35 H 7.84 L 6.44,30.23 H 6.4 L 5,35 Z M 5.04,32.65 H 7.8 V 33.52 H 5.04 V 32.65 Z M 45.64,27 H 44 V 21 H 45.68 C 47.33,21 48,22.55 48,24 C 48,25.47 47.32,27 45.64,27 Z M 45,26 H 45.6 C 46.78,26 47,25 47,24 S 46.78,22 45.63,22 H 45 V 26 Z M 34,27 V 21 H 37.48 V 22 H 35 V 23.5 H 37.3 V 24.5 H 35 V 26 H 37.5 V 27 H 34 Z M 31.91,22.94 C 31.73,22.34 31.23,22 30.59,22 C 29.49,22 29,23.03 29,24 C 29,24.98 29.48,26 30.61,26 C 31.44,26 32.01,25.48 32.01,24.65 L 32.24,25 H 30.72 V 24 H 33 V 24.56 C 33,25.96 32.02,27 30.6,27 C 28.92,27 28,25.58 28,24 C 28,22.47 28.9,21 30.58,21 C 31.74,21 32.78,21.77 32.95,22.94 H 31.91 Z M 24.04,26.92 V 21.08 H 27.47 V 22 H 25 V 23.55 H 27 V 24.44 H 25 V 26 H 27.49 V 26.92 H 24.04 Z M 19.94,27 V 21 H 21 V 26 H 23 V 27 H 19.94 Z M 13.39,22 V 21 H 17.59 V 22 H 16 V 27 H 15 V 22 H 13.39 Z M 11.66,23 C 11.49,22.39 11.09,22 10.42,22 C 9.34,22 8.96,23.1 8.96,24 C 8.96,24.93 9.34,26 10.44,26 C 11.25,26 11.75,25.43 11.75,24.65 L 11.97,25 H 10.54 V 24 H 12.67 V 24.56 C 12.67,25.89 11.82,27 10.44,27 C 8.79,27 8,25.49 8,24 C 8,22.56 8.78,21 10.41,21 C 11.59,21 12.47,21.85 12.63,23 H 11.66 Z M 43,21 V 27 H 42.02 L 39.15,22.91 H 39 V 27 H 38 V 21 H 38.99 L 41.85,25.09 H 42 V 21 H 43 Z"/>
</svg>
