<!-- by Finnhub --><svg width="56" height="56" viewBox="0 0 56 56" xmlns="http://www.w3.org/2000/svg"><path fill="#F0F3FA" d="M0 0h56v56H0z"/><path d="M41.55 22c0 3.07-1.73 4.6-2.42 4.98-.47 2.1-1.34 6.4-1.08 6.73.32.4 1.21.27 1.66.27.45 0 1.53-.54 1.79-.67.2-.11.42.04.51.13l.58-.67a1.16 1.16 0 0 0-.32-.47 8.74 8.74 0 0 0 1.79-3.1c.04.22.23.54.64.54.4 0 .8-1.03.95-1.55.07.1.25.27.45.27a3 3 0 0 0 1.4-2.49c.3.25.98.82 1.29 1.14.57-.87-.13-2.01-.83-2.01s-.58.67-.96.67c-.3 0-.7-.17-.81-.28l-.34.48a.88.88 0 0 1-.45 0c-.15-.05-.5.65-.8 1.01V25H42v-3h-.45Z" fill="#E1A12F"/><path fill="#252564" d="M8 18h40v3H8zm0 17h40v3H8zm0-13h4v4h5v-4h4v12h-4v-5h-5v5H8V22Z"/><path fill-rule="evenodd" d="M30.65 22H22v12h9c1.46 0 3-1.51 3-3.38 0-1.36-.82-2.53-1.82-3.07a3.13 3.13 0 0 0 1.36-2.52c0-1.67-1.48-3.03-2.89-3.03ZM26 24h2.75c.4 0 1.25.67 1.25 1.5s-.86 1.5-1.25 1.5H26v-3Zm3.62 5H26v3h3.62c.43 0 1.38-.67 1.38-1.5s-.95-1.5-1.38-1.5Z" fill="#252564"/><path fill="#252564" d="M34 26h5v8h-5zm.5-1a3.57 3.57 0 0 0-1.8-2.86V22H39v3h-4.5Z"/><path fill="#fff" fill-opacity=".5" d="M11 19h34v1H11zM9 36h38v1H9z"/></svg>