<?xml version="1.0" encoding="UTF-8"?>
<!-- generated by Finnhub -->
<svg viewBox="0 0 55.5 55.5" xmlns="http://www.w3.org/2000/svg">
<path d="M 0,0 H 55.5 V 55.5 H 0 Z" fill="url(#a)"/>
<path d="M 21.99,16.985 H 18 V 32 H 22 V 26 H 26 V 32 H 30 V 17 H 26 V 22 H 22 V 17 Z M 32,32 V 17 H 38.2 C 41.3,17 43.54,19.94 43.54,23.07 V 26.07 C 43.54,29.19 41.3,32 38.21,32 H 32 Z M 36,29 V 21 H 37.61 C 38.41,21 39,22.57 39,24.24 V 25.84 C 39,27.5 38.42,29 37.61,29 H 36 Z" fill="rgb(41, 71, 216)" fill-rule="evenodd"/>
<path d="M 18.99,15.985 H 15 V 31 H 19 V 25 H 23 V 31 H 27 V 16 H 23 V 21 H 19 V 16 Z M 29,31 V 16 H 35.45 C 38.67,16 41,18.94 41,22.07 V 25.07 C 41,28.2 38.67,31 35.45,31 H 29 Z M 33,27 V 20 H 35.15 C 36.22,20 37,21.37 37,22.83 V 24.23 C 37,25.69 36.22,27 35.15,27 H 33 Z" fill="rgb(253, 1, 0)" fill-rule="evenodd"/>
<path d="M 9.78,32.985 L 9,40 H 10.4 L 11.26,33 H 9.8 Z M 10.99,40 L 11.57,35 H 12.8 L 12.75,35.53 C 12.79,35.35 13.05,35 13.8,35 S 14.6,36 14.53,36.49 L 14.08,40 H 12.75 C 12.85,39.33 13.04,37.9 13.08,37.5 C 13.12,37 13.12,36.72 12.92,36.72 C 12.76,36.72 12.68,37.02 12.66,37.17 L 12.3,40 H 11 Z M 23.65,35 L 23.07,40 H 24.39 L 24.74,37.17 C 24.76,37.02 24.84,36.72 25,36.72 C 25.2,36.72 25.2,37.01 25.16,37.5 C 25.12,37.9 24.92,39.33 24.83,40 H 26.16 L 26.61,36.49 C 26.68,35.99 26.63,35 25.88,35 S 24.87,35.35 24.83,35.53 L 24.88,35 H 23.65 Z M 37.76,40 L 38.34,35 H 39.57 L 39.53,35.53 C 39.56,35.35 39.83,35 40.58,35 C 41.32,35 41.37,36 41.3,36.49 L 40.85,40 H 39.53 C 39.62,39.33 39.81,37.9 39.85,37.5 C 39.9,37 39.9,36.72 39.7,36.72 C 39.54,36.72 39.45,37.02 39.43,37.17 L 39.1,40 H 37.77 Z M 15.3,35 L 15.38,34 L 16.71,33 H 16.86 L 16.66,35 H 17.22 L 17.03,36.4 H 16.46 L 16.25,38.1 C 16.22,38.23 16.22,38.48 16.39,38.48 C 16.57,38.48 16.71,38.4 16.76,38.35 V 39.85 C 16.63,39.9 16.24,40 15.7,40 C 15.02,40 14.81,39.6 14.86,38.9 L 15.13,36.4 H 14.75 L 14.93,35 H 15.3 Z M 30.98,34 L 30.9,35 H 30.52 L 30.34,36.4 H 30.72 C 30.65,37 30.5,38.35 30.46,38.9 C 30.41,39.6 30.62,40 31.29,40 C 31.83,40 32.22,39.9 32.35,39.85 V 38.35 A 0.61,0.61 0 0,1 31.99,38.48 C 31.81,38.48 31.82,38.23 31.84,38.1 L 32.06,36.4 H 32.63 L 32.81,35 H 32.25 L 32.45,33 H 32.31 L 30.98,34 Z M 19.89,39.25 C 19.53,39.85 18.75,40 18.41,40 C 17.26,40 16.71,39.2 17.04,37.48 C 17.37,35.76 17.97,35 19.2,35 C 20.42,35 20.5,36.37 20.5,36.85 C 20.5,37.24 20.42,37.77 20.37,38 H 18.33 V 38.24 C 18.33,38.54 18.45,38.74 18.63,38.74 C 18.78,38.74 18.94,38.51 19.01,38.4 L 19.2,38.35 L 20.26,38.53 L 19.89,39.25 Z M 19.17,37 H 18.47 C 18.49,36.76 18.59,36.31 18.85,36.31 C 19.12,36.31 19.17,36.76 19.17,37 Z M 22.27,35 H 21.02 L 20.42,40 H 21.78 C 21.84,39.45 21.98,38.25 22.06,37.81 C 22.16,37.26 22.26,36.82 22.39,36.72 C 22.49,36.65 22.66,36.76 22.74,36.82 L 22.9,36.72 L 23.41,35.37 C 23.35,35.25 23.14,35 22.83,35 C 22.52,35 22.33,35.25 22.27,35.37 V 35 Z M 28.17,36.78 L 26.97,36.57 C 27.24,35.63 27.54,35 28.77,35 C 29.99,35 30.16,35.7 30.16,36.38 C 30.16,36.86 30.04,37.65 29.96,38.22 L 29.87,38.78 C 29.83,39.15 29.86,39.72 29.87,39.97 H 28.54 V 39.63 C 28.34,39.94 27.7,40 27.31,40 S 26.59,39.72 26.59,38.68 C 26.59,37.65 27.31,37.31 27.61,37.2 L 28.82,36.7 C 28.84,36.56 28.83,36.26 28.6,36.26 C 28.36,36.26 28.22,36.61 28.17,36.78 Z M 28.67,37.83 C 28.63,38.15 28.48,38.79 28.13,38.79 C 27.69,38.79 27.98,38.08 28.66,37.83 Z M 41.64,36.57 L 42.84,36.78 C 42.89,36.61 43.04,36.26 43.27,36.26 C 43.5,36.26 43.51,36.56 43.49,36.71 L 42.28,37.2 C 41.98,37.3 41.26,37.65 41.26,38.68 C 41.26,39.72 41.59,40 41.98,40 C 42.37,40 43.01,39.94 43.21,39.63 V 39.97 H 44.54 A 7.57,7.57 0 0,1 44.62,38.22 C 44.71,37.65 44.82,36.86 44.82,36.38 C 44.82,35.7 44.66,35 43.44,35 C 42.21,35 41.91,35.63 41.64,36.57 Z M 43.34,37.83 C 43.3,38.15 43.15,38.79 42.8,38.79 C 42.35,38.79 42.65,38.08 43.33,37.83 Z M 34.41,34.44 H 33.09 L 33.22,33.09 L 33.47,33 H 34.57 L 34.41,34.44 Z M 33.77,40 H 32.44 L 33.04,35.05 L 33.26,35 H 34.37 L 33.77,40 Z M 45.64,33 L 44.86,40 H 46.14 L 47,33 H 45.64 Z M 37.47,38.57 C 37.08,39.85 36.02,40.05 35.54,39.99 C 34.55,39.99 34.31,38.86 34.31,37.86 S 34.85,35 36.41,35 C 37.98,35 37.96,36.96 37.47,38.57 Z M 36.4,37.37 C 36.4,36.66 36.22,36.48 36.13,36.48 C 35.97,36.65 35.65,37.13 35.65,37.74 C 35.65,38.5 35.75,38.59 35.9,38.59 S 36.4,38.24 36.4,37.36 Z" fill="rgb(254, 254, 253)" fill-rule="evenodd"/>
<defs>
<linearGradient id="a" x1="28" x2="28" y2="56" gradientUnits="userSpaceOnUse">
<stop stop-color="rgb(1, 1, 124)" offset="0"/>
<stop stop-color="rgb(1, 0, 250)" offset=".49"/>
<stop stop-color="rgb(1, 1, 124)" offset="1"/>
</linearGradient>
</defs>
</svg>
