<?xml version="1.0" encoding="UTF-8"?>
<!-- generated by Finnhub -->
<svg viewBox="0 0 55.5 55.5" xmlns="http://www.w3.org/2000/svg">
<path d="M0 0h55.5v55.5H0z" fill="rgb(239, 242, 248)"/>
<circle cx="31.5" cy="32.5" r="11.5" fill="rgb(30, 84, 146)"/>
<circle cx="16.5" cy="19" r="4.5" fill="url(#j)"/>
<circle cx="15.07" cy="17.6" r="2.35" fill="rgb(244, 243, 242)" opacity=".5"/>
<circle cx="24.5" cy="14.5" r="3.5" fill="url(#i)"/>
<circle cx="23.38" cy="13.41" r="1.83" fill="rgb(244, 243, 242)" opacity=".5"/>
<circle cx="15.5" cy="27.5" r="3.5" fill="url(#h)"/>
<circle cx="14.38" cy="26.41" r="1.83" fill="rgb(244, 243, 242)" opacity=".5"/>
<circle cx="19" cy="34" r="3" fill="url(#g)"/>
<circle cx="18.04" cy="33.07" r="1.57" fill="rgb(244, 243, 242)" opacity=".5"/>
<circle cx="24.88" cy="36.88" r="2.88" fill="url(#f)"/>
<circle cx="23.96" cy="35.98" r="1.5" fill="rgb(244, 243, 242)" opacity=".5"/>
<circle cx="31" cy="36.5" r="2.5" fill="url(#e)"/>
<circle cx="30.2" cy="35.72" r="1.3" fill="rgb(244, 243, 242)" opacity=".5"/>
<circle cx="36.25" cy="33.75" r="2.25" fill="url(#d)"/>
<circle cx="35.53" cy="33.05" r="1.17" fill="rgb(244, 243, 242)" opacity=".5"/>
<circle cx="37.5" cy="28" r="2.5" fill="url(#c)"/>
<circle cx="36.7" cy="27.22" r="1.3" fill="rgb(244, 243, 242)" opacity=".5"/>
<circle cx="36" cy="22" r="3" fill="url(#b)"/>
<circle cx="35.04" cy="21.07" r="1.57" fill="rgb(244, 243, 242)" opacity=".5"/>
<circle cx="32" cy="16.5" r="3.5" fill="url(#a)"/>
<circle cx="30.88" cy="15.41" r="1.83" fill="rgb(244, 243, 242)" opacity=".5"/>
<defs>
<linearGradient id="j" x1="14.58" x2="18.78" y1="15.61" y2="22.16" gradientUnits="userSpaceOnUse">
<stop stop-color="rgb(219, 218, 217)" offset="0"/>
<stop stop-color="rgb(123, 121, 118)" offset="1"/>
</linearGradient>
<linearGradient id="i" x1="23" x2="26.28" y1="11.86" y2="16.96" gradientUnits="userSpaceOnUse">
<stop stop-color="rgb(219, 218, 217)" offset="0"/>
<stop stop-color="rgb(123, 121, 118)" offset="1"/>
</linearGradient>
<linearGradient id="h" x1="14" x2="17.28" y1="24.86" y2="29.96" gradientUnits="userSpaceOnUse">
<stop stop-color="rgb(219, 218, 217)" offset="0"/>
<stop stop-color="rgb(123, 121, 118)" offset="1"/>
</linearGradient>
<linearGradient id="g" x1="17.72" x2="20.52" y1="31.74" y2="36.11" gradientUnits="userSpaceOnUse">
<stop stop-color="rgb(219, 218, 217)" offset="0"/>
<stop stop-color="rgb(123, 121, 118)" offset="1"/>
</linearGradient>
<linearGradient id="f" x1="23.65" x2="26.33" y1="34.71" y2="38.9" gradientUnits="userSpaceOnUse">
<stop stop-color="rgb(219, 218, 217)" offset="0"/>
<stop stop-color="rgb(123, 121, 118)" offset="1"/>
</linearGradient>
<linearGradient id="e" x1="29.93" x2="32.27" y1="34.62" y2="38.26" gradientUnits="userSpaceOnUse">
<stop stop-color="rgb(219, 218, 217)" offset="0"/>
<stop stop-color="rgb(123, 121, 118)" offset="1"/>
</linearGradient>
<linearGradient id="d" x1="35.29" x2="37.39" y1="32.05" y2="35.33" gradientUnits="userSpaceOnUse">
<stop stop-color="rgb(219, 218, 217)" offset="0"/>
<stop stop-color="rgb(123, 121, 118)" offset="1"/>
</linearGradient>
<linearGradient id="c" x1="36.43" x2="38.77" y1="26.12" y2="29.76" gradientUnits="userSpaceOnUse">
<stop stop-color="rgb(219, 218, 217)" offset="0"/>
<stop stop-color="rgb(123, 121, 118)" offset="1"/>
</linearGradient>
<linearGradient id="b" x1="34.72" x2="37.52" y1="19.74" y2="24.11" gradientUnits="userSpaceOnUse">
<stop stop-color="rgb(219, 218, 217)" offset="0"/>
<stop stop-color="rgb(123, 121, 118)" offset="1"/>
</linearGradient>
<linearGradient id="a" x1="30.5" x2="33.78" y1="13.86" y2="18.96" gradientUnits="userSpaceOnUse">
<stop stop-color="rgb(219, 218, 217)" offset="0"/>
<stop stop-color="rgb(123, 121, 118)" offset="1"/>
</linearGradient>
</defs>
</svg>
