<?xml version="1.0" encoding="UTF-8"?>
<!-- generated by Finnhub -->
<svg viewBox="0 0 55.5 55.5" xmlns="http://www.w3.org/2000/svg">
<path d="M 0,0 H 55.5 V 55.5 H 0 Z" fill="rgb(3, 71, 153)"/>
<path d="M 27.349999999999998,36.585 C 32.99,36.6 37.55,32.08 37.55,26.5 S 32.99,16.4 27.36,16.4 A 10.14,10.14 0 0,0 17.18,26.5 C 17.18,32.08 21.74,36.6 27.36,36.6 Z M 27.36,35.92 A 9.34,9.34 0 0,0 36.62,26.5 C 36.62,21.3 32.48,17.08 27.36,17.08 A 9.34,9.34 0 0,0 18.11,26.5 C 18.11,31.7 22.25,35.92 27.36,35.92 Z" fill="rgb(1, 1, 3)"/>
<path d="M 36.61,26.485 C 36.62,31.7 32.48,35.92 27.36,35.92 A 9.34,9.34 0 0,1 18.11,26.5 C 18.11,21.3 22.25,17.08 27.36,17.08 A 9.34,9.34 0 0,1 36.62,26.5 Z" fill="rgb(46, 77, 104)"/>
<path d="M 36.010000000000005,26.485 C 36.02,31.36 32.14,35.3 27.36,35.3 A 8.73,8.73 0 0,1 18.71,26.5 C 18.71,21.64 22.58,17.7 27.36,17.7 A 8.73,8.73 0 0,1 36.02,26.5 Z" fill="rgb(31, 72, 117)"/>
<path d="M 35.43,26.485 A 8.14,8.14 0 0,1 27.36,34.72 A 8.14,8.14 0 0,1 19.29,26.5 A 8.15,8.15 0 0,1 27.36,18.28 A 8.15,8.15 0 0,1 35.44,26.5 Z" fill="rgb(66, 139, 217)"/>
<path d="M 34.68,26.485 A 7.4,7.4 0 0,1 27.36,33.96 A 7.4,7.4 0 0,1 20.04,26.5 A 7.4,7.4 0 0,1 27.36,19.04 A 7.4,7.4 0 0,1 34.69,26.5 Z" fill="rgb(144, 184, 244)"/>
<path d="M 34.79,18.985 H 43.2 C 43.92,19 44.5,19.61 44.5,20.34 V 26.37 C 44.5,26.41 44.53,26.45 44.56,26.47 C 44.96,26.59 45.25,26.97 45.25,27.4 V 28.04 C 45.25,28.24 45.39,28.44 45.6,28.49 A 28.12,28.12 0 0,1 48.13,29.24 C 48.98,29.54 49.27,30.6 48.72,31.32 L 47.74,32.55 C 47.64,32.68 47.62,32.86 47.69,33.01 L 48.39,34.57 C 48.82,35.51 48.05,36.57 47.04,36.44 L 39.85,35.5 A 1.18,1.18 0 0,1 38.83,34.33 A 0.3,0.3 0 0,0 38.57,34.03 C 37.61,33.93 36.35,33.82 34.91,33.72 A 10.2,10.2 0 0,1 19.98,33.78 C 18.98,33.85 18.11,33.94 17.4,34.01 A 0.26,0.26 0 0,0 17.17,34.29 C 17.2,34.89 16.77,35.42 16.18,35.49 L 8.96,36.44 C 7.96,36.56 7.2,35.54 7.59,34.61 L 8.26,33 A 0.45,0.45 0 0,0 8.2,32.56 L 7.26,31.29 C 6.71,30.54 7.06,29.48 7.94,29.22 A 60.6,60.6 0 0,1 10.5,28.52 C 10.7,28.47 10.84,28.29 10.84,28.08 V 27.38 C 10.84,26.98 11.08,26.64 11.44,26.51 L 11.46,26.47 V 20.35 C 11.46,19.62 12.04,19 12.76,19 H 20.03 C 21.9,17.04 24.52,16 27.42,16 C 30.32,16 32.93,17.04 34.81,19 Z M 34.62,19.46 A 9.64,9.64 0 0,0 27.42,16.44 A 9.65,9.65 0 0,0 20.22,19.47 H 12.76 C 12.28,19.47 12,19.87 12,20.35 V 26.47 C 12,26.67 11.77,26.85 11.58,26.92 A 0.48,0.48 0 0,0 11.28,27.37 V 28.08 C 11.28,28.49 10.99,28.85 10.6,28.95 A 63.3,63.3 0 0,0 8.06,29.65 A 0.89,0.89 0 0,0 7.61,31.02 L 8.55,32.29 A 0.9,0.9 0 0,1 8.65,33.17 L 8,34.77 A 0.88,0.88 0 0,0 8.9,36 L 16.13,35.06 A 0.7,0.7 0 0,0 16.73,34.32 A 0.7,0.7 0 0,1 17.35,33.58 C 18.12,33.49 19.07,33.4 20.15,33.32 A 9.78,9.78 0 0,0 34.73,33.26 C 36.27,33.36 37.6,33.48 38.62,33.59 C 38.99,33.63 39.27,33.95 39.27,34.33 C 39.27,34.7 39.54,35.02 39.9,35.06 L 47.1,36 C 47.77,36.09 48.28,35.38 48,34.75 L 47.3,33.2 A 0.9,0.9 0 0,1 47.4,32.28 L 48.38,31.04 A 0.89,0.89 0 0,0 47.98,29.66 L 47.35,29.44 C 46.85,29.28 46.19,29.08 45.5,28.91 A 0.9,0.9 0 0,1 44.81,28.04 V 27.4 A 0.53,0.53 0 0,0 44.44,26.89 C 44.22,26.82 44,26.61 44,26.37 V 20.34 C 44,19.86 43.68,19.46 43.2,19.46 H 34.62 Z" fill="url(#f)"/>
<path d="M 43.190000000000005,19.395 C 43.68,19.41 44,19.81 44,20.31 V 26.37 C 44,26.61 44.22,26.82 44.44,26.89 C 44.66,26.95 44.81,27.16 44.81,27.39 V 28.04 C 44.81,28.46 45.11,28.82 45.51,28.91 A 27.75,27.75 0 0,1 47.99,29.66 C 48.55,29.86 48.75,30.56 48.38,31.04 L 47.41,32.28 A 0.9,0.9 0 0,0 47.29,33.2 L 47.99,34.75 C 48.28,35.38 47.77,36.09 47.09,36 L 39.9,35.06 A 0.74,0.74 0 0,1 39.27,34.33 C 39.27,33.95 38.99,33.63 38.62,33.59 A 101.43,101.43 0 0,0 17.36,33.58 A 0.7,0.7 0 0,0 16.74,34.32 A 0.7,0.7 0 0,1 16.13,35.06 L 8.9,36 A 0.88,0.88 0 0,1 8,34.78 L 8.66,33.17 A 0.9,0.9 0 0,0 8.56,32.29 L 7.61,31.02 A 0.89,0.89 0 0,1 8.06,29.64 A 61.07,61.07 0 0,1 10.6,28.94 C 11,28.85 11.27,28.49 11.27,28.08 V 27.38 C 11.27,27.18 11.4,26.99 11.58,26.92 C 11.77,26.85 12,26.67 12,26.47 V 20.3 C 12,19.81 12.28,19.42 12.76,19.42 H 43.2 Z" fill="rgb(28, 26, 4)"/>
<path d="M 12.75,27.415 V 20.5 H 43.2 V 27.43 L 43.94,27.66 V 29.49 C 45.37,29.72 47.04,30.25 47.7,30.49 L 46.06,32.58 L 47.21,35.12 L 40.13,34.2 V 32.88 C 38.3,32.63 33.25,32.14 27.78,32.14 S 17.51,32.64 15.79,32.88 L 15.86,34.2 L 8.79,35.12 L 9.84,32.58 L 8.3,30.48 C 10.06,29.97 11.6,29.61 12.14,29.49 V 27.66 L 12.76,27.43 Z" fill="url(#e)"/>
<path d="M 17.54,26.615 L 18.61,26.52 L 18.74,25.62 H 19.81 L 19.91,26.4 L 21.01,26.34 L 19.91,22 H 18.61 L 17.55,26.63 Z M 19.7,24.89 L 19.4,22.8 H 19.14 L 18.84,24.89 H 19.7 Z M 15.36,22 H 14.02 L 14.28,22.3 V 26.87 L 15.36,26.8 V 24.83 L 16.22,24.76 V 26.71 L 17.24,26.67 V 22 H 16.22 V 23.89 L 15.36,24.03 V 22 Z M 21.28,22 V 26.3 L 23.82,26.2 V 25.32 L 22.33,25.48 V 22 H 21.28 Z M 24.09,26.18 V 22 H 25.14 V 25.39 L 26.64,25.33 V 26.18 H 24.09 Z M 28.61,26.21 V 22 H 31.11 V 23 H 29.62 V 23.73 H 31.02 V 24.52 H 29.62 V 26.22 H 28.62 Z M 26,22.61 A 0.6,0.6 0 1,1 27.2,22.61 V 23.4 A 0.6,0.6 0 1,1 26,23.4 V 22.6 Z M 26.36,22.56 A 0.25,0.25 0 0,1 26.85,22.56 V 23.44 A 0.25,0.25 0 0,1 26.35,23.44 V 22.56 Z M 27.36,24.06 V 22.06 H 28.33 V 22.42 H 27.74 V 22.86 H 28.21 V 23.19 H 27.74 V 24.05 H 27.36 Z M 32.09,22 L 30.99,26.17 L 32.06,26.2 L 32.16,25.51 L 33.23,25.58 L 33.34,26.28 L 34.4,26.37 L 33.34,22 H 32.1 Z M 33.1,24.77 L 32.27,24.74 L 32.54,22.88 H 32.8 L 33.1,24.78 Z M 34.7,22 V 26.39 H 35.69 V 23.16 L 36.45,26.45 L 37.26,26.51 L 38.01,23.19 V 26.62 L 39.01,26.69 V 22 H 37.41 L 36.76,24.73 L 36.22,22 H 34.7 Z M 39.44,22 V 26.63 L 42.01,26.93 V 26 H 40.31 V 25 H 41.63 V 24 H 40.32 V 23 H 42 V 22 H 39.43 Z" fill="url(#d)" fill-rule="evenodd"/>
<path d="M 12.99,28.384999999999998 V 33 C 14.11,32.53 18.53,31.58 27.3,31.58 S 41.42,32.53 43,33 V 28.4 A 93.73,93.73 0 0,0 27.3,27 C 20.55,27 14.95,27.93 13,28.4 Z" fill="url(#c)"/>
<path d="M 26.34,27.685 V 30.58 H 27.29 V 29.71 H 27.69 L 28.16,30.58 H 29.03 V 30.39 L 28.54,29.79 C 28.85,29.72 29,29.51 29.03,29.42 V 28.2 C 29.03,27.9 28.71,27.75 28.54,27.7 H 26.34 Z M 27.28,28.12 H 27.95 V 29.27 H 27.28 V 28.12 Z M 23,28.25 V 30.47 C 23,30.61 23.12,30.87 23.6,30.83 L 24.26,30.77 C 24.66,30.74 25.14,30.71 25.49,30.67 C 25.67,30.65 25.79,30.5 25.79,30.33 V 29.76 L 24.83,29.81 V 30.16 C 24.81,30.26 24.67,30.4 24.41,30.4 C 24.08,30.4 24,30.22 24,30 V 29.48 L 25.06,29.42 V 29.12 L 24,29.18 V 28.35 C 24,28.25 24.07,28.02 24.35,28.02 C 24.69,28.02 24.83,28.12 24.83,28.4 V 28.64 L 25.79,28.56 V 28.14 C 25.79,28.04 25.72,27.82 25.32,27.82 C 24.92,27.82 23.85,27.87 23.37,27.94 C 23.25,27.96 23,28.04 23,28.25 Z M 17,31.09 V 28.87 C 17,28.67 17.24,28.57 17.35,28.56 C 17.81,28.49 18.81,28.36 19.19,28.36 C 19.56,28.36 19.64,28.56 19.63,28.67 V 29.1 L 18.72,29.18 V 28.94 C 18.72,28.65 18.62,28.64 18.28,28.64 C 18.01,28.64 17.95,28.86 17.95,28.98 V 29.71 L 18.94,29.65 V 29.95 L 17.94,30 V 30.62 C 17.94,30.84 18.03,31.02 18.34,31.02 C 18.59,31.02 18.7,30.81 18.72,30.7 V 30.35 L 19.63,30.3 V 31.09 C 19.13,31.19 18.01,31.39 17.56,31.45 C 17.11,31.5 17,31.23 17,31.09 Z M 13.69,32.21 V 29.19 L 15.85,28.74 C 16,28.74 16.29,28.84 16.29,29.27 V 29.92 A 0.49,0.49 0 0,1 16.04,30.16 C 16.13,30.19 16.29,30.31 16.29,30.55 V 31.25 A 0.82,0.82 0 0,1 15.74,31.75 C 15.37,31.87 14.21,32.11 13.69,32.21 Z M 14.69,30.27 V 29.26 L 15.37,29.14 V 30.12 L 14.7,30.27 Z M 14.69,31.67 V 30.66 L 15.37,30.54 V 31.52 L 14.7,31.67 Z M 21.17,28.17 L 19.93,28.27 L 20.64,31 L 21.94,30.88 L 22.79,27.98 L 22.15,28.05 L 21.57,30.18 L 21.17,28.16 Z M 29.58,30.65 V 27.78 H 31.78 C 31.94,27.82 32.27,27.98 32.27,28.28 V 29.49 C 32.24,29.59 32.09,29.79 31.78,29.86 L 32.27,30.54 V 30.79 L 31.4,30.72 C 31.24,30.43 30.93,29.78 30.93,29.78 H 30.53 V 30.68 L 29.58,30.65 Z M 31.18,28.19 H 30.52 V 29.34 H 31.19 V 28.2 Z M 33,28.22 V 30.29 C 33.01,30.44 33.1,30.76 33.42,30.8 C 33.72,30.84 35.08,30.93 35.72,30.97 V 29.4 L 34.41,29.33 V 29.57 L 34.63,29.62 V 30.65 L 34.17,30.57 A 0.28,0.28 0 0,1 33.98,30.3 V 28.35 C 34.01,28.28 34.11,28.15 34.3,28.15 C 34.54,28.15 34.63,28.22 34.63,28.35 V 28.81 L 35.72,28.89 V 28.28 C 35.68,28.18 35.52,27.98 35.14,27.95 C 34.77,27.92 33.84,27.88 33.42,27.86 C 33.28,27.88 33,27.98 33,28.23 Z M 36.31,31.15 L 38.73,31.42 V 30.46 L 37.71,30.34 V 31.01 L 37.31,30.96 C 36.98,30.88 36.93,30.63 36.94,30.52 V 29.88 L 37.94,29.98 V 29.71 L 36.94,29.59 V 28.85 C 36.94,28.63 37.11,28.55 37.19,28.55 L 37.65,28.62 V 29.3 L 38.73,29.4 V 28.43 L 36.49,28.19 C 36.05,28.23 35.99,28.49 36,28.62 V 30.52 C 36,30.97 36.21,31.12 36.31,31.15 Z M 39.03,30.55 C 38.96,30.8 38.96,31.33 39.49,31.46 C 39.94,31.57 41.01,31.71 41.69,31.78 C 41.86,31.8 42,31.68 42,31.52 V 30.62 C 41.94,30.51 41.67,30.27 41.08,30.18 L 40.87,30.15 C 40.29,30.07 40.09,30.04 40.09,29.71 V 29.24 C 40.1,29.16 40.19,29 40.41,29 C 40.7,29 40.82,29.17 40.82,29.38 V 29.71 L 41.76,29.81 V 29.31 C 41.76,29.18 41.64,28.89 41.11,28.79 L 39.54,28.52 C 39.36,28.52 39.01,28.63 39.01,29.14 V 29.87 C 38.99,29.97 39.07,30.16 39.49,30.22 L 40.72,30.42 C 40.81,30.45 40.98,30.55 40.98,30.73 V 31.31 C 40.99,31.36 40.92,31.46 40.58,31.46 C 40.25,31.46 40.22,31.02 40.25,30.79 L 39.03,30.56 Z" fill="url(#b)" fill-rule="evenodd"/>
<path d="M 13.36,27.845 L 12.75,28.09 V 29.99 L 12.26,30.1 C 11.82,30.2 10.69,30.46 9.32,30.84 L 10.54,32.49 L 9.76,34.37 L 15.22,33.67 L 15.15,32.34 L 15.71,32.26 C 17.45,32.02 22.28,31.53 27.78,31.53 S 38.35,32.02 40.21,32.26 L 40.74,32.33 V 33.66 L 46.2,34.36 L 45.35,32.49 L 46.68,30.8 A 21.4,21.4 0 0,0 43.85,30.1 L 43.34,30.02 V 28.12 L 42.59,27.89 V 21.12 H 13.37 V 27.86 Z M 43.2,20.5 V 27.43 L 43.94,27.66 V 29.49 A 22.59,22.59 0 0,1 47.7,30.49 L 46.06,32.58 L 47.21,35.12 L 40.13,34.2 V 32.88 C 38.3,32.63 33.25,32.14 27.78,32.14 S 17.51,32.64 15.79,32.88 L 15.86,34.2 L 8.79,35.12 L 9.84,32.58 L 8.3,30.48 A 57.23,57.23 0 0,1 12.14,29.49 V 27.66 L 12.76,27.43 V 20.5 H 43.2 Z" fill="url(#a)"/>
<defs>
<linearGradient id="f" x1="28" x2="28" y1="16.44" y2="36.56" gradientUnits="userSpaceOnUse">
<stop stop-color="rgb(235, 211, 198)" offset="0"/>
<stop stop-color="rgb(206, 150, 114)" offset=".1"/>
<stop stop-color="rgb(173, 104, 61)" offset=".16"/>
<stop stop-color="rgb(224, 224, 221)" offset=".68"/>
<stop stop-color="rgb(190, 108, 51)" offset=".93"/>
<stop stop-color="rgb(71, 56, 50)" offset="1"/>
</linearGradient>
<linearGradient id="e" x1="28" x2="28" y1="21.87" y2="35.12" gradientUnits="userSpaceOnUse">
<stop stop-color="rgb(104, 142, 206)" offset="0"/>
<stop stop-color="rgb(1, 63, 163)" offset=".14"/>
<stop stop-color="rgb(2, 10, 30)" offset=".31"/>
<stop stop-color="rgb(3, 1, 5)" offset=".71"/>
<stop stop-color="rgb(82, 170, 219)" offset=".84"/>
</linearGradient>
<linearGradient id="d" x1="28.01" x2="28.01" y1="21.65" y2="26.76" gradientUnits="userSpaceOnUse">
<stop stop-color="rgb(254, 253, 242)" offset="0"/>
<stop stop-color="rgb(254, 219, 110)" offset=".61"/>
<stop stop-color="rgb(247, 222, 69)" offset=".83"/>
</linearGradient>
<linearGradient id="c" x1="12.64" x2="43" y1="33" y2="33" gradientUnits="userSpaceOnUse">
<stop stop-color="rgb(196, 210, 236)" offset="0"/>
<stop stop-color="rgb(87, 124, 194)" offset=".1"/>
<stop stop-color="rgb(37, 96, 213)" offset=".31"/>
<stop stop-color="rgb(169, 195, 253)" offset=".48"/>
<stop stop-color="rgb(27, 87, 234)" offset=".64"/>
<stop stop-color="rgb(74, 99, 180)" offset=".91"/>
<stop stop-color="rgb(169, 184, 216)" offset="1"/>
</linearGradient>
<linearGradient id="b" x1="14.41" x2="42.05" y1="30.35" y2="30.35" gradientUnits="userSpaceOnUse">
<stop stop-color="rgb(249, 201, 2)" offset="0"/>
<stop stop-color="rgb(246, 176, 3)" offset=".35"/>
<stop stop-color="rgb(251, 161, 2)" offset=".62"/>
<stop stop-color="rgb(248, 205, 4)" offset="1"/>
</linearGradient>
<linearGradient id="a" x1="28" x2="28" y1="20.5" y2="35.12" gradientUnits="userSpaceOnUse">
<stop stop-color="rgb(236, 234, 218)" offset="0"/>
<stop stop-color="rgb(136, 118, 89)" offset=".33"/>
<stop stop-color="rgb(107, 94, 77)" offset=".52"/>
<stop stop-color="rgb(219, 186, 92)" offset=".77"/>
<stop stop-color="rgb(222, 203, 193)" offset=".85"/>
<stop stop-color="rgb(237, 229, 225)" offset="1"/>
</linearGradient>
</defs>
</svg>
