<?xml version="1.0" encoding="UTF-8"?>
<!-- generated by Finnhub -->
<svg viewBox="0 0 55.5 55.5" xmlns="http://www.w3.org/2000/svg">
<path d="M 0,0 H 55.5 V 55.5 H 0 Z" fill="rgb(239, 242, 248)"/>
<path d="M 5.67,22.985 L 4,33 H 7.56 L 8.16,29 H 11.91 L 11.24,33 H 14.8 L 16.29,23 H 12.9 L 12.3,26.62 H 8.5 L 9.05,23 H 5.68 Z M 30.1,23 L 28.42,33 H 31.98 L 32.36,30.5 L 34.06,29.05 L 35.84,33 H 40.16 L 36.92,26.65 L 41.22,23 H 36.61 L 32.98,26.33 L 33.48,23 H 30.1 Z" fill="rgb(20, 64, 115)"/>
<path d="M 40.620000000000005,28.724999999999998 L 41.53,23 H 45 L 44.26,27.26 C 43.99,28.85 43.9,30.29 45.67,30.29 C 47.09,30.29 47.61,29.09 47.69,28.49 L 48.56,22.99 H 52 C 51.85,23.99 51.47,26.43 51.14,28.3 C 50.72,30.65 49.6,33 44.78,33 C 40.92,33 40.41,30.16 40.63,28.74 Z" fill="rgb(20, 64, 115)"/>
<path d="M 25.2,19.985 L 25.54,21.98 L 26.86,20.5 L 26.09,22.35 L 27.98,21.83 L 26.36,22.96 L 28.22,23.58 L 26.27,23.63 L 27.51,25.18 L 25.84,24.14 V 24.16 A 4.77,4.77 0 0,1 27.9,28 C 27.9,30.76 25.33,33 22.17,33 C 21.41,33 20.7,32.87 20.04,32.64 C 26.03,30.73 26.01,25.74 25.2,23.37 C 25.1,29.51 20.74,31.24 17.97,31.41 A 4.66,4.66 0 0,1 16.43,28 C 16.43,25.24 19,23 22.17,23 C 22.63,23 23.08,23.05 23.52,23.14 L 24.06,22.96 L 22.44,21.83 L 24.34,22.35 L 23.57,20.5 L 24.88,21.98 L 25.21,20 Z" fill="url(#a)"/>
<defs>
<linearGradient id="a" x1="25.38" x2="17.65" y1="23.42" y2="29.56" gradientUnits="userSpaceOnUse">
<stop stop-color="rgb(173, 177, 211)" offset="0"/>
<stop stop-color="rgb(87, 106, 166)" offset=".3"/>
<stop stop-color="rgb(23, 74, 145)" offset=".49"/>
<stop stop-color="rgb(17, 97, 119)" offset=".7"/>
<stop stop-color="rgb(11, 124, 72)" offset="1"/>
</linearGradient>
</defs>
</svg>
