<?xml version="1.0" encoding="UTF-8"?>
<!-- generated by Finnhub -->
<svg viewBox="0 0 55.5 55.5" xmlns="http://www.w3.org/2000/svg">
<path d="M 0,0 H 55.5 V 55.5 H 0 Z" fill="rgb(239, 242, 248)"/>
<path d="M 28.9,10.985 H 27.17 C 23.01,11.26 19.47,12.74 16.53,15.43 A 16.87,16.87 0 0,0 11,27.08 V 28.9 C 11.3,33.36 13,37.11 16.07,40.15 A 16.82,16.82 0 0,0 26.65,45 H 29.33 C 33.68,44.6 37.33,42.89 40.25,39.87 A 16.92,16.92 0 0,0 45,29.39 V 26.76 A 16.96,16.96 0 0,0 28.91,11 Z M 41.86,33.74 A 14.85,14.85 0 0,0 41.86,22.26 A 14.83,14.83 0 0,0 38.61,17.39 C 37.2,15.99 35.58,14.9 33.74,14.14 A 14.85,14.85 0 0,0 22.26,14.14 A 14.83,14.83 0 0,0 17.39,17.39 C 15.99,18.8 14.9,20.42 14.14,22.26 A 14.85,14.85 0 0,0 14.14,33.74 A 14.83,14.83 0 0,0 17.39,38.61 C 18.8,40.01 20.42,41.1 22.26,41.86 A 14.85,14.85 0 0,0 33.74,41.86 A 14.83,14.83 0 0,0 38.61,38.61 C 40.01,37.2 41.1,35.58 41.86,33.74 Z" fill="rgb(22, 19, 55)" fill-rule="evenodd"/>
<path d="M 25.619999999999997,20.255 C 25.59,20.28 25.57,20.31 25.59,20.35 L 27.17,25.3 C 27.19,25.38 27.18,25.38 27.13,25.32 L 20.85,16.69 A 0.12,0.12 0 0,1 20.83,16.59 C 20.83,16.55 20.86,16.53 20.89,16.51 A 13.66,13.66 0 0,1 27.01,14.51 C 27.03,14.49 27.05,14.51 27.06,14.54 C 27.07,14.58 27.06,14.6 27.04,14.62 L 24.45,16.5 C 24.39,16.54 24.38,16.6 24.4,16.66 L 25,18.56 C 25.02,18.6 25.04,18.61 25.08,18.6 A 10.3,10.3 0 0,1 30.9,18.58 C 30.95,18.59 31,18.58 31.01,18.52 L 31.62,16.66 C 31.65,16.6 31.62,16.54 31.57,16.5 L 28.97,14.62 C 28.87,14.55 28.89,14.52 29.02,14.52 A 13.7,13.7 0 0,1 35.2,16.58 L 35.19,16.64 A 1339.03,1339.03 0 0,1 28.86,25.3 S 28.84,25.3 28.83,25.28 V 25.26 L 29.06,24.61 C 29.51,23.21 29.96,21.81 30.4,20.39 A 0.1,0.1 0 0,0 30.4,20.31 A 0.1,0.1 0 0,0 30.33,20.25 A 8.28,8.28 0 0,0 25.63,20.27 Z" fill="url(#e)"/>
<path d="M 36.09,27.805 A 8.28,8.28 0 0,0 34.61,23.34 C 34.59,23.31 34.57,23.3 34.54,23.32 C 33.29,24.25 32.04,25.15 30.77,26.02 A 0.99,0.99 0 0,0 30.63,26.14 A 0.86,0.86 0 0,1 30.43,26.3 C 30.33,26.35 30.3,26.33 30.38,26.23 L 36.54,17.7 C 36.6,17.61 36.67,17.6 36.74,17.67 C 38.45,19.17 39.7,20.88 40.48,22.82 C 40.53,22.96 40.5,22.99 40.38,22.9 L 37.82,21.05 C 37.77,21.02 37.72,21.02 37.67,21.05 L 36.2,22.12 C 36.01,22.27 35.95,22.33 36.02,22.32 H 36.05 C 36.63,23.13 37.05,24.01 37.35,24.95 C 37.62,25.81 37.79,26.78 37.86,27.87 C 37.86,27.94 37.9,27.97 37.96,27.97 L 39.93,27.94 C 39.98,27.94 40.02,27.91 40.03,27.86 A 1058.99,1058.99 0 0,0 41.06,24.74 C 41.1,24.74 41.12,24.74 41.13,24.78 C 41.63,26.96 41.63,29.11 41.13,31.25 C 41.11,31.32 41.07,31.35 41,31.32 L 30.98,28.04 C 30.84,28 30.84,27.97 30.99,27.97 L 35.96,27.95 C 36.06,27.95 36.1,27.91 36.09,27.82 Z" fill="url(#d)"/>
<path d="M 18.16,27.865 C 18.17,25.94 18.75,24.1 19.92,22.36 A 0.12,0.12 0 0,0 19.94,22.26 A 0.12,0.12 0 0,0 19.89,22.18 L 18.29,21.02 C 18.27,21 18.24,21 18.21,21.02 C 17.33,21.67 16.46,22.31 15.58,22.94 C 15.55,22.97 15.52,22.96 15.49,22.93 A 13.68,13.68 0 0,1 19.26,17.68 A 0.14,0.14 0 0,1 19.37,17.65 C 19.41,17.65 19.45,17.67 19.47,17.7 L 25.65,26.25 C 25.75,26.38 25.73,26.4 25.6,26.3 L 21.48,23.34 A 0.07,0.07 0 0,0 21.42,23.32 A 8.4,8.4 0 0,0 19.91,27.82 C 19.91,27.88 19.93,27.91 19.99,27.92 C 20.21,27.94 20.44,27.96 20.66,27.96 L 25.08,27.97 C 25.19,27.97 25.19,27.99 25.08,28.03 L 14.98,31.33 H 14.91 A 14.23,14.23 0 0,1 14.83,24.93 C 14.89,24.69 14.95,24.69 15.03,24.91 L 15.97,27.85 C 15.99,27.9 16.02,27.93 16.07,27.93 L 18.08,27.97 C 18.14,27.97 18.17,27.94 18.17,27.88 Z" fill="url(#c)"/>
<path d="M 30.63,35.644999999999996 A 8.16,8.16 0 0,0 34.48,32.86 C 34.5,32.83 34.5,32.81 34.47,32.78 A 88.3,88.3 0 0,1 31.73,30.78 C 31.28,30.43 30.82,30.11 30.36,29.82 C 30.13,29.67 30.14,29.64 30.4,29.72 L 40.45,32.97 A 0.1,0.1 0 0,1 40.52,33.03 A 0.1,0.1 0 0,1 40.52,33.12 A 13.65,13.65 0 0,1 36.7,38.36 C 36.62,38.43 36.6,38.41 36.63,38.31 L 37.65,35.2 C 37.65,35.16 37.65,35.12 37.61,35.1 L 36.01,33.93 C 35.96,33.89 35.91,33.9 35.87,33.95 A 10,10 0 0,1 31.17,37.35 C 31.12,37.36 31.1,37.4 31.12,37.45 L 31.74,39.34 C 31.75,39.39 31.79,39.41 31.84,39.41 L 34.9,39.43 C 35.12,39.43 35.14,39.49 34.95,39.61 A 13.22,13.22 0 0,1 28.94,41.49 C 28.88,41.49 28.85,41.47 28.85,41.41 L 28.87,30.89 C 28.87,30.7 28.9,30.69 28.96,30.87 L 30.53,35.61 C 30.55,35.66 30.58,35.68 30.63,35.66 Z" fill="url(#b)"/>
<path d="M 25.47,35.575 L 27.1,30.71 C 27.11,30.66 27.12,30.67 27.12,30.71 L 27.13,41.43 C 27.13,41.48 27.11,41.5 27.06,41.5 C 24.9,41.34 22.89,40.7 21.03,39.6 C 20.81,39.46 20.83,39.4 21.08,39.41 C 22.08,39.46 23.11,39.45 24.17,39.39 C 24.22,39.39 24.26,39.37 24.27,39.31 L 24.87,37.44 C 24.89,37.4 24.87,37.37 24.83,37.35 A 9.95,9.95 0 0,1 20.13,33.95 A 0.1,0.1 0 0,0 20.07,33.91 A 0.1,0.1 0 0,0 19.99,33.92 L 18.4,35.08 C 18.35,35.12 18.34,35.16 18.36,35.21 L 19.33,38.15 A 0.3,0.3 0 0,1 19.33,38.33 C 19.33,38.34 19.33,38.35 19.31,38.35 H 19.28 A 13.8,13.8 0 0,1 15.5,33.15 C 15.46,33.05 15.49,32.99 15.58,32.95 L 25.67,29.7 C 25.79,29.66 25.8,29.68 25.69,29.75 L 21.59,32.77 A 0.1,0.1 0 0,0 21.54,32.83 C 21.54,32.86 21.54,32.89 21.56,32.91 A 8.15,8.15 0 0,0 25.36,35.65 C 25.42,35.67 25.46,35.65 25.48,35.59 Z" fill="url(#a)"/>
<defs>
<linearGradient id="e" x1="28.01" x2="28.01" y1="14.5" y2="25.36" gradientUnits="userSpaceOnUse">
<stop stop-color="rgb(22, 19, 55)" offset="0"/>
<stop stop-color="rgb(37, 70, 102)" offset=".7"/>
</linearGradient>
<linearGradient id="d" x1="30.97" x2="40.01" y1="26.42" y2="23.39" gradientUnits="userSpaceOnUse">
<stop stop-color="rgb(37, 70, 102)" offset=".42"/>
<stop stop-color="rgb(22, 19, 55)" offset="1"/>
</linearGradient>
<linearGradient id="c" x1="15.37" x2="24.97" y1="23.59" y2="26.57" gradientUnits="userSpaceOnUse">
<stop stop-color="rgb(22, 19, 55)" offset="0"/>
<stop stop-color="rgb(37, 70, 102)" offset=".68"/>
</linearGradient>
<linearGradient id="b" x1="28.85" x2="35.98" y1="31.68" y2="38.95" gradientUnits="userSpaceOnUse">
<stop stop-color="rgb(37, 70, 102)" offset=".22"/>
<stop stop-color="rgb(25, 29, 64)" offset="1"/>
</linearGradient>
<linearGradient id="a" x1="26.18" x2="19.6" y1="30.16" y2="38.34" gradientUnits="userSpaceOnUse">
<stop stop-color="rgb(37, 70, 102)" offset=".39"/>
<stop stop-color="rgb(26, 32, 67)" offset="1"/>
</linearGradient>
</defs>
</svg>
