<?xml version="1.0" encoding="UTF-8"?>
<!-- generated by Finnhub -->
<svg viewBox="0 0 55.5 55.5" xmlns="http://www.w3.org/2000/svg">
<path d="M 0,0 H 55.5 V 55.5 H 0 Z" fill="url(#e)"/>
<path d="M 27.99,44.985 A 17,17 0 1,0 28,11 A 17,17 0 0,0 28,45 Z M 28,42 A 14,14 0 1,0 28,14 A 14,14 0 0,0 28,42 Z" fill="url(#d)" fill-rule="evenodd"/>
<path d="M 31.869999999999997,40.385 A 13,13 0 1,0 24.12,15.6 A 13,13 0 0,0 31.88,40.4 Z M 31.21,38.28 A 10.77,10.77 0 1,0 24.79,17.72 A 10.77,10.77 0 0,0 31.21,38.28 Z" fill="url(#c)" fill-rule="evenodd"/>
<path d="M 32.74,36.214999999999996 A 9.5,9.5 0 1,0 23.25,19.77 A 9.5,9.5 0 0,0 32.75,36.23 Z M 31.94,34.82 A 7.87,7.87 0 1,0 24.06,21.18 A 7.87,7.87 0 0,0 31.94,34.82 Z" fill="url(#b)" fill-rule="evenodd"/>
<path d="M 33.830000000000005,31.835 A 7,7 0 1,0 22.16,24.15 A 7,7 0 0,0 33.84,31.85 Z M 32.84,31.19 A 5.8,5.8 0 1,0 23.16,24.81 A 5.8,5.8 0 0,0 32.84,31.19 Z" fill="url(#a)" fill-rule="evenodd"/>
<defs>
<linearGradient id="e" x1="28" x2="28" y2="56" gradientUnits="userSpaceOnUse">
<stop stop-color="rgb(67, 149, 198)" offset="0"/>
<stop stop-color="rgb(127, 183, 217)" offset="1"/>
</linearGradient>
<linearGradient id="d" x1="11" x2="42.78" y1="28" y2="28" gradientUnits="userSpaceOnUse">
<stop stop-color="rgb(254, 254, 253)" offset="0"/>
<stop stop-color="rgb(254, 254, 253)" stop-opacity=".3" offset=".23"/>
<stop stop-color="rgb(254, 254, 253)" stop-opacity=".3" offset=".83"/>
<stop stop-color="rgb(254, 254, 253)" offset="1"/>
</linearGradient>
<linearGradient id="c" x1="15.6" x2="38.79" y1="31.88" y2="24.63" gradientUnits="userSpaceOnUse">
<stop stop-color="rgb(254, 254, 253)" offset="0"/>
<stop stop-color="rgb(254, 254, 253)" stop-opacity=".3" offset=".23"/>
<stop stop-color="rgb(254, 254, 253)" stop-opacity=".3" offset=".83"/>
<stop stop-color="rgb(254, 254, 253)" offset="1"/>
</linearGradient>
<linearGradient id="b" x1="19.77" x2="35.15" y1="32.75" y2="23.87" gradientUnits="userSpaceOnUse">
<stop stop-color="rgb(254, 254, 253)" offset="0"/>
<stop stop-color="rgb(254, 254, 253)" stop-opacity=".3" offset=".23"/>
<stop stop-color="rgb(254, 254, 253)" stop-opacity=".3" offset=".83"/>
<stop stop-color="rgb(254, 254, 253)" offset="1"/>
</linearGradient>
<linearGradient id="a" x1="24.15" x2="31.35" y1="33.84" y2="22.92" gradientUnits="userSpaceOnUse">
<stop stop-color="rgb(254, 254, 253)" offset="0"/>
<stop stop-color="rgb(254, 254, 253)" stop-opacity=".3" offset=".23"/>
<stop stop-color="rgb(254, 254, 253)" stop-opacity=".3" offset=".83"/>
<stop stop-color="rgb(254, 254, 253)" offset="1"/>
</linearGradient>
</defs>
</svg>
