<?xml version="1.0" encoding="UTF-8"?>
<!-- generated by Finnhub -->
<svg viewBox="0 0 55.5 55.5" xmlns="http://www.w3.org/2000/svg">
<path d="M0 0h55.5v55.5H0z" fill="rgb(239, 242, 248)"/>
<path d="M42 15.52c0-.2-.04-.4-.08-.55a2.45 2.45 0 0 0-2.74-1.93A2.47 2.47 0 0 0 37 15.52v6.17c0 .31 0 .31-.3.31H19.3c-.22 0-.3-.08-.3-.31v-6.17A2.5 2.5 0 0 0 16.6 13h-.12A2.42 2.42 0 0 0 14 15.44v25.08a2.5 2.5 0 0 0 5 0v-7.2c0-.32 0-.32.3-.32h17.4c.3 0 .3 0 .3.32v7.15a2.5 2.5 0 0 0 2.91 2.48 2.52 2.52 0 0 0 2.05-2.48c.04-8.3.04-16.62.04-24.95ZM36.7 29H19.26c-.2 0-.27-.04-.27-.27v-2.46c0-.23.08-.27.27-.27H36.7c.31 0 .31 0 .31.31v2.42c-.04.23-.12.27-.3.27ZM42 15.52c0-.2-.04-.4-.08-.55a2.45 2.45 0 0 0-2.74-1.93A2.47 2.47 0 0 0 37 15.52v6.17c0 .31 0 .31-.3.31H19.3c-.22 0-.3-.08-.3-.31v-6.17A2.5 2.5 0 0 0 16.6 13h-.12A2.42 2.42 0 0 0 14 15.44v25.08a2.5 2.5 0 0 0 5 0v-7.2c0-.32 0-.32.3-.32h17.4c.3 0 .3 0 .3.32v7.15a2.5 2.5 0 0 0 2.91 2.48 2.52 2.52 0 0 0 2.05-2.48c.04-8.3.04-16.62.04-24.95ZM36.7 29H19.26c-.2 0-.27-.04-.27-.27v-2.46c0-.23.08-.27.27-.27H36.7c.31 0 .31 0 .31.31v2.42c-.04.23-.12.27-.3.27ZM42 15.52c0-.2-.04-.4-.08-.55a2.45 2.45 0 0 0-2.74-1.93A2.47 2.47 0 0 0 37 15.52v6.17c0 .31 0 .31-.3.31H19.3c-.22 0-.3-.08-.3-.31v-6.17A2.5 2.5 0 0 0 16.6 13h-.12A2.42 2.42 0 0 0 14 15.44v25.08a2.5 2.5 0 0 0 5 0v-7.2c0-.32 0-.32.3-.32h17.4c.3 0 .3 0 .3.32v7.15a2.5 2.5 0 0 0 2.91 2.48 2.52 2.52 0 0 0 2.05-2.48c.04-8.3.04-16.62.04-24.95ZM36.7 29H19.26c-.2 0-.27-.04-.27-.27v-2.46c0-.23.08-.27.27-.27H36.7c.31 0 .31 0 .31.31v2.42c-.04.23-.12.27-.3.27ZM42 15.52c0-.2-.04-.4-.08-.55a2.45 2.45 0 0 0-2.74-1.93A2.47 2.47 0 0 0 37 15.52v6.17c0 .31 0 .31-.3.31H19.3c-.22 0-.3-.08-.3-.31v-6.17A2.5 2.5 0 0 0 16.6 13h-.12A2.42 2.42 0 0 0 14 15.44v25.08a2.5 2.5 0 0 0 5 0v-7.2c0-.32 0-.32.3-.32h17.4c.3 0 .3 0 .3.32v7.15a2.5 2.5 0 0 0 2.91 2.48 2.52 2.52 0 0 0 2.05-2.48c.04-8.3.04-16.62.04-24.95ZM36.7 29H19.26c-.2 0-.27-.04-.27-.27v-2.46c0-.23.08-.27.27-.27H36.7c.31 0 .31 0 .31.31v2.42c-.04.23-.12.27-.3.27ZM42 15.52c0-.2-.04-.4-.08-.55a2.45 2.45 0 0 0-2.74-1.93A2.47 2.47 0 0 0 37 15.52v6.17c0 .31 0 .31-.3.31H19.3c-.22 0-.3-.08-.3-.31v-6.17A2.5 2.5 0 0 0 16.6 13h-.12A2.42 2.42 0 0 0 14 15.44v25.08a2.5 2.5 0 0 0 5 0v-7.2c0-.32 0-.32.3-.32h17.4c.3 0 .3 0 .3.32v7.15a2.5 2.5 0 0 0 2.91 2.48 2.52 2.52 0 0 0 2.05-2.48c.04-8.3.04-16.62.04-24.95ZM36.7 29H19.26c-.2 0-.27-.04-.27-.27v-2.46c0-.23.08-.27.27-.27H36.7c.31 0 .31 0 .31.31v2.42c-.04.23-.12.27-.3.27Z" fill="url(#a)"/>
<defs>
<linearGradient id="a" x1="14" x2="43" y1="26" y2="26" gradientUnits="userSpaceOnUse">
<stop stop-color="rgb(50, 52, 110)" offset="0"/>
<stop stop-color="rgb(91, 51, 103)" offset="1"/>
</linearGradient>
</defs>
</svg>
