<?xml version="1.0" encoding="UTF-8"?>
<!-- generated by Finnhub -->
<svg viewBox="0 0 55.5 55.5" xmlns="http://www.w3.org/2000/svg">
<path d="M 0,0 H 55.5 V 55.5 H 0 Z" fill="rgb(223, 41, 97)"/>
<path d="M 15.99,18.335 V 14 C 17.28,15.57 20.53,15.68 22,15.53 V 21 C 17.82,20.93 16.26,19.2 16,18.35 Z M 16,23 H 22 V 41 H 16 V 23 Z M 25,16.99 C 25,16.05 24.38,15.39 24.1,15.09 L 24,15 L 31,14.01 V 24.01 C 32.5,23.36 34.09,23 35.61,23.01 C 40.06,23.05 44,25.91 44,31.27 C 44,38.46 39.6,42 33.77,42 C 29.11,42 24.98,40.1 24,39.14 C 24.44,38.5 25,37.5 25,37.07 V 17 Z M 31,36.05 V 28.28 C 31.3,28.03 32.29,27.53 33.88,27.53 C 35.87,27.53 38,28.55 38,31.83 C 38,35.1 35.87,36.99 33.88,36.99 C 32.28,36.99 31.3,36.36 31,36.05 Z" fill="rgb(254, 254, 253)" fill-rule="evenodd"/>
</svg>
