<?xml version="1.0" encoding="UTF-8"?>
<!-- generated by Finnhub -->
<svg viewBox="0 0 55.5 55.5" xmlns="http://www.w3.org/2000/svg">
<path d="M 0,0 H 55.5 V 55.5 H 0 Z" fill="rgb(237, 34, 36)"/>
<path d="M 43.6,34.985 H 41.6 L 43.23,29 H 48.83 L 46.14,31.5 L 47.36,35 H 45.16 L 44.56,32.96 L 44.13,33.36 L 43.63,35 Z M 27.84,34.97 H 24.74 L 26.35,29.25 H 30.03 C 30.37,29.21 31.05,29.35 31.05,30.2 C 31.05,31.2 30.17,31.75 29.72,31.9 C 30.57,32.23 30.62,32.72 30.09,33.84 C 29.66,34.73 28.41,34.96 27.84,34.97 Z M 28.06,30.2 L 27.73,31.4 H 28.21 C 28.45,31.35 28.92,31.16 28.92,30.69 C 28.92,30.31 28.64,30.2 28.5,30.19 H 28.06 Z M 27.42,32.45 L 27.05,33.82 H 27.6 C 27.87,33.78 28.4,33.56 28.4,33.02 C 28.4,32.58 28.09,32.46 27.93,32.45 H 27.43 Z M 31.56,35 H 29.56 L 32.78,29.4 H 35.44 L 35.64,34.92 L 37.29,29.39 H 39.47 L 39.73,32.49 L 40.62,29.39 H 42.48 L 40.83,35 H 38.78 L 38.5,31.55 L 37.47,35 H 33.52 L 33.62,33.7 H 32.21 L 31.56,35 Z M 33.88,30.39 L 33.7,32.7 H 32.71 L 33.88,30.39 Z M 31.1,23 L 29.7,28 H 31.1 L 31.78,26 H 32.16 C 32.62,26 32.55,26.5 32.46,26.83 L 32.16,28 H 33.88 C 33.82,27.88 33.77,27.45 33.99,26.67 C 34.22,25.89 33.71,25.6 33.43,25.55 C 33.86,25.48 34.73,25.09 34.73,24.13 C 34.73,23.16 34.16,22.98 33.88,23 H 31.11 Z M 32.34,23.9 L 31.99,25.16 C 32.65,25.16 33.19,24.8 33.19,24.31 C 33.19,23.91 32.62,23.87 32.34,23.91 Z M 5.26,28 L 6.7,23 H 8.2 L 6.78,28 H 5.26 Z M 34.34,28 L 35.93,23 H 37.43 L 35.86,28 H 34.34 Z M 8.94,23 L 7.58,28 H 8.93 L 9.87,25.02 L 9.99,28 H 11.63 L 13.08,23 H 11.63 L 10.75,26.05 L 10.6,23 H 8.93 Z M 13.71,23 L 12.38,28 H 14.74 C 16.19,28 16.89,26.48 17.24,24.7 C 17.5,23.28 16.68,22.98 16.24,23 H 13.7 Z M 14.5,27.08 H 14.04 L 14.94,23.91 H 15.44 C 15.84,23.91 15.8,24.36 15.72,24.58 C 15.63,24.99 15.41,25.93 15.23,26.41 A 0.99,0.99 0 0,1 14.5,27.08 Z M 19.75,23 H 18.25 L 17.33,26.4 C 17.21,26.95 17.03,28 18.91,28 C 20.41,28 20.97,27.2 21.06,26.8 L 22.24,23 H 20.72 L 19.75,26.48 C 19.6,26.96 19.38,27.2 18.99,27.2 C 18.68,27.2 18.66,26.88 18.69,26.72 L 19.75,23 Z M 23.12,26.5 H 21.81 A 0.86,0.86 0 0,0 21.55,27.14 C 21.55,27.54 21.78,28 23.2,28 C 24.61,28 25.8,27.43 25.8,26.12 C 25.8,26.02 25.71,25.39 24.8,25.12 C 23.87,24.86 23.86,24.69 23.86,24.36 S 24.06,23.83 24.43,23.83 C 24.72,23.83 24.79,24.31 24.79,24.54 H 25.92 C 26.02,24.48 26.21,24.24 26.21,23.84 C 26.21,23.32 25.66,23 24.43,23 S 22.24,23.78 22.24,24.86 C 22.24,25.46 22.8,25.74 23.29,25.99 C 23.68,26.19 24.03,26.37 24.03,26.67 C 24.03,27.35 22.88,27.62 23.13,26.51 Z M 30.56,23 H 26.83 L 26.43,24 H 27.73 L 26.54,28 H 28 L 29.17,24 H 30.26 L 30.56,23 Z M 36.6,28 H 38.1 L 38.59,27 H 39.72 L 39.62,28 H 41.22 V 23 H 39.32 L 36.6,28 Z M 39.81,26 L 40,24.05 L 39.07,26 H 39.81 Z M 43.23,23 L 41.79,28 H 45.23 L 45.5,27 H 43.58 L 44.63,23 H 43.23 Z" fill-rule="evenodd"/>
<path d="M 31.72,34.685 H 29.73 L 32.96,29 H 35.62 L 35.81,34.62 L 37.46,29 H 39.65 L 39.91,32.16 L 40.79,29 H 42.66 L 41,34.7 H 38.95 L 38.66,31.2 L 37.64,34.7 H 33.68 L 33.78,33.5 H 32.32 L 31.72,34.7 Z M 34.06,30 L 33.86,32.5 H 32.82 L 34.06,30 Z M 28.02,34.7 H 24.92 L 26.52,29.02 H 30.2 C 30.54,28.99 31.23,29.13 31.23,29.97 C 31.23,30.96 30.34,31.51 29.9,31.67 C 30.75,31.97 30.8,32.47 30.26,33.57 C 29.84,34.46 28.59,34.69 28.02,34.7 Z M 28.23,29.96 L 27.91,31.15 H 28.39 C 28.62,31.11 29.09,30.92 29.09,30.45 C 29.09,30.08 28.82,29.97 28.68,29.96 H 28.23 Z M 27.6,32.2 L 27.22,33.56 H 27.77 C 28.04,33.52 28.58,33.3 28.58,32.76 C 28.58,32.33 28.26,32.21 28.1,32.2 H 27.6 Z M 43.79,34.7 H 41.76 L 43.4,29 H 49 L 46.3,31.37 L 47.52,34.81 H 45.33 L 44.73,32.77 L 44.3,33.14 L 43.79,34.7 Z" fill="rgb(253, 253, 252)" fill-rule="evenodd"/>
<path d="M 45.17,27.985 H 5.26 L 5,29 H 44.91 L 44.13,32.03 L 47.31,28.83 L 46.11,24.6 L 45.18,28 Z" fill="rgb(254, 211, 7)"/>
</svg>
