<?xml version="1.0" encoding="UTF-8"?>
<!-- generated by Finnhub -->
<svg viewBox="0 0 55.5 55.5" xmlns="http://www.w3.org/2000/svg">
<path d="M 0,0 H 55.5 V 55.5 H 0 Z" fill="rgb(1, 130, 155)"/>
<path d="M 25.99,30.875 V 26.156 C 26,26.02 25.879,26 25.828,25.998 H 25.16 A 0.157,0.157 0 0,0 25.001,26.156 V 28.664 C 25.001,28.781 24.901,28.746 24.826,28.664 L 22.23,26.104 C 22.053,25.92 22,26.036 22,26.104 V 30.834 C 22,30.984 22.08,30.995 22.123,30.995 H 22.901 C 23.001,30.988 23.005,30.885 23,30.835 C 22.997,29.978 22.993,28.695 23,28.487 C 23.007,28.279 23.146,28.357 23.209,28.422 L 25.802,30.954 C 25.939,31.073 26,30.954 26,30.889 Z M 14.873,26.005 H 12.137 C 12.017,26.005 12,26.107 12,26.157 V 30.865 C 12,30.98 12.11,31.005 12.165,31.004 H 14.808 C 14.962,31.016 15,30.917 15,30.865 V 30.155 C 15,30.045 14.865,30.007 14.808,30.001 H 13.105 C 13.002,30.001 13.002,29.895 13.004,29.863 V 29.096 C 13.004,29.016 13.085,29 13.126,28.993 L 14.829,29 C 14.982,29.003 14.999,28.894 14.999,28.85 V 28.142 C 14.999,28.027 14.886,28 14.829,28.001 H 13.126 C 13.031,28.001 13.006,27.954 13.004,27.931 V 27.146 C 13.012,27.036 13.089,27.006 13.126,27.005 C 13.126,27.005 14.763,27.008 14.873,27.005 C 14.983,27.002 15,26.945 15,26.902 V 26.157 C 15.003,26.031 14.92,26.005 14.873,26.005 Z" fill="rgb(254, 254, 253)"/>
<rect x="5" y="25" width="1" height="6" rx=".2" fill="rgb(254, 254, 253)"/>
<rect x="40" y="26" width="1" height="5" rx=".2" fill="rgb(254, 254, 253)"/>
<path d="M 18.653,26.062 L 20.968,30.797 C 21.004,30.86 21.04,30.99 20.895,30.997 C 20.75,31.003 20.269,30.999 20.133,30.997 C 20.088,31.007 19.984,30.998 19.933,30.871 L 19.499,30 H 17.604 L 17.087,30.871 C 17.063,30.913 16.993,30.996 16.906,30.996 H 16.116 C 16.046,30.996 15.936,30.94 16.052,30.713 L 18.402,26.077 C 18.444,26.019 18.557,25.937 18.664,26.077 Z M 18.583,27.957 L 18.983,28.874 C 19.003,28.914 19.017,28.995 18.913,28.999 C 18.807,29.002 18.291,28.999 18.047,28.999 C 18.019,28.993 17.974,28.961 18.019,28.874 C 18.063,28.787 18.305,28.226 18.419,27.957 C 18.43,27.927 18.462,27.873 18.506,27.877 C 18.547,27.879 18.563,27.914 18.579,27.949 L 18.583,27.957 Z M 29.5,31 A 2.5,2.5 0 1,0 29.5,26 A 2.5,2.5 0 0,0 29.5,31 Z M 29.5,30 A 1.5,1.5 0 1,0 29.5,27 A 1.5,1.5 0 0,0 29.5,30 Z" fill="rgb(254, 254, 253)" fill-rule="evenodd"/>
<path d="M 34.034,26.118 L 33.004,30.809 C 32.972,30.952 33.071,30.993 33.125,30.996 H 33.806 A 0.2,0.2 0 0,0 34,30.864 L 34.37,28.944 C 34.43,28.786 34.579,28.862 34.606,28.944 L 35.874,30.93 C 35.953,31.05 36.07,30.993 36.114,30.93 L 37.469,28.945 C 37.563,28.797 37.664,28.873 37.687,28.945 C 37.827,29.709 37.985,30.765 38.005,30.865 C 38.025,30.965 38.098,30.995 38.131,30.998 H 38.865 C 39.02,30.974 39.019,30.863 39,30.811 A 1056.57,1056.57 0 0,1 38.062,26.133 C 38.054,26.076 37.998,26 37.916,26 C 37.835,26 37.801,26.064 37.765,26.133 C 37.765,26.133 36.193,28.931 36.114,29.065 C 36.034,29.198 35.95,29.12 35.918,29.065 L 34.37,26.222 C 34.313,26.117 34.26,25.992 34.178,26 C 34.096,26.009 34.058,26.073 34.044,26.133 Z M 45.924,26.336 C 45.977,26.376 46,26.433 46,26.486 V 27.346 C 46,27.456 45.863,27.45 45.762,27.374 C 45.474,27.159 45.112,27 44.532,27 S 42.972,27.39 43,28.507 C 43.029,29.624 43.978,29.993 44.61,30.001 A 1.88,1.88 0 0,0 45.762,29.624 C 45.924,29.52 45.999,29.652 46,29.71 V 30.54 C 46,30.602 45.975,30.66 45.924,30.687 A 2.578,2.578 0 0,1 44.609,30.997 C 42.469,30.867 42,29.624 42,28.507 C 42,26.337 43.85,25.99 44.644,26 C 45.509,26.011 45.858,26.286 45.924,26.336 Z M 48.633,26 C 49.259,26.009 49.665,26.471 49.79,26.701 C 49.852,26.797 49.816,26.852 49.79,26.868 L 49.283,27.313 C 49.169,27.374 49.119,27.293 49.075,27.224 L 49.074,27.222 A 0.557,0.557 0 0,0 48.658,26.997 C 48.19,26.997 48,27.237 48,27.447 C 48,27.626 48.094,27.776 49.074,28.17 C 50.134,28.596 49.994,29.325 50,29.519 C 50.006,29.712 49.79,30.999 48.566,30.999 C 47.341,30.999 47.079,29.942 47.017,29.773 C 46.967,29.637 47.037,29.547 47.079,29.519 C 47.184,29.501 47.564,29.342 47.696,29.321 C 47.829,29.3 47.872,29.414 47.877,29.474 C 48,30 48.41,30.016 48.566,30 C 48.721,29.984 49,29.883 49,29.431 C 49,28.979 48.457,28.815 48.054,28.685 C 47.759,28.572 47.016,28.145 47,27.488 C 46.98,26.668 47.512,25.985 48.633,26 Z" fill="rgb(254, 254, 253)"/>
<path d="M 7.123,25.985 H 8.466 C 9.243,25.99 10.836,26.46 10.994,28.423 C 11.058,29.219 10.603,30.795 8.466,30.997 H 7.133 C 7.087,30.995 6.996,30.965 7,30.852 C 7.005,30.739 7.002,27.657 7,26.13 C 7,26.087 7.026,26 7.133,26 Z M 8.001,27.134 V 29.842 C 7.993,29.897 8.017,30.005 8.179,30 H 8.559 C 9.053,29.968 10.034,29.619 9.999,28.482 C 9.965,27.345 9.025,27.02 8.559,27 H 8.179 C 8.118,27 8.001,27.017 8.001,27.134 Z" fill="rgb(254, 254, 253)"/>
</svg>
