<?xml version="1.0" encoding="UTF-8"?>
<!-- generated by Finnhub -->
<svg fill="none" viewBox="0 0 55.5 55.5" xmlns="http://www.w3.org/2000/svg">
<rect width="56" height="56" fill="url(#a)"/>
<path d="m21.747 27.176c8e-4 0.0011 0.0014 0.0024 0.0016 0.0037 2e-4 0.0014 0 0.0028-5e-4 0.0041-4e-4 0.0013-0.0012 0.0024-0.0023 0.0033-1e-3 9e-4 -0.0023 0.0015-0.0036 0.0017l-1.2496 0.2096c-0.048 0.0085-0.0864-0.0059-0.1152-0.0432-1.008-1.2784-0.7504-3.1728 0.3264-4.184 2.56-2.4048 6.3632 0.3712 5.0736 3.5776-0.0139 0.0331-0.039 0.0512-0.0752 0.0544l-1.256 0.0848c-0.0587 0.0043-0.0731-0.0187-0.0433-0.0688 1.688-2.744-2.0447-4.7568-3.2399-2.3088-0.4374 0.896-0.2427 1.7845 0.584 2.6656z" fill="rgb(245, 192, 23)"/>
<path d="m35.992 22.554c2.3472-1.1056 4.808 1.0496 4.3696 3.5296-0.1749 0.9952-0.7376 1.7382-1.688 2.2288-0.0448 0.0235-0.0912 0.0294-0.1392 0.0176l-3.6448-0.8784c-0.0733-0.0175-0.1381-0.0613-0.1824-0.1232-1.1552-1.648-0.5776-3.8992 1.2848-4.7744zm1.3795 4.9285c0.2571-0.0135 0.5088-0.0791 0.741-0.1932 0.2321-0.114 0.4401-0.2742 0.612-0.4714s0.3044-0.4276 0.39-0.678c0.0855-0.2503 0.1223-0.5158 0.1084-0.7813-0.0281-0.536-0.2612-1.0393-0.6482-1.3991-0.3869-0.3599-0.8959-0.5467-1.415-0.5195-0.2571 0.0135-0.5088 0.0791-0.741 0.1931-0.2321 0.114-0.4401 0.2742-0.612 0.4714-0.172 0.1972-0.3044 0.4276-0.39 0.678-0.0855 0.2504-0.1223 0.5159-0.1084 0.7813 0.0281 0.5361 0.2612 1.0394 0.6482 1.3992 0.3869 0.3598 0.8959 0.5467 1.415 0.5195z" fill="rgb(245, 192, 23)"/>
<path d="m30.137 26.45 1.3328-3.9632c0.0031-0.0088 0.0087-0.0165 0.0161-0.0222 0.0074-0.0056 0.0162-0.0091 0.0255-0.0098l1.0736-0.0624c0.0118-5e-4 0.0233 0.0032 0.0324 0.0106 0.0092 0.0074 0.0153 0.0178 0.0172 0.0294l0.8016 4.7312c0.0011 0.0074 5e-4 0.015-0.0019 0.022-0.0024 0.0071-0.0063 0.0136-0.0116 0.0189-0.0053 0.0052-0.0117 0.0092-0.0188 0.0116-0.0071 0.0023-0.0147 3e-3 -0.0221 0.0019l-1.08-0.152c-0.0103-0.0012-0.0199-0.0058-0.0274-0.013s-0.0125-0.0167-0.0142-0.027l-0.3616-2.0976c-0.0016-0.0106-0.0068-0.0203-0.0147-0.0276-0.0078-0.0072-0.0179-0.0117-0.0285-0.0126-0.0107-9e-4 -0.0214 0.0017-0.0303 0.0076-9e-3 0.0058-0.0158 0.0145-0.0193 0.0246l-0.6608 1.9824c-0.0031 0.0101-0.0096 0.0189-0.0182 0.025-0.0087 0.0061-0.0192 0.0091-0.0298 0.0086l-2.0592-0.1328c-0.0092-7e-4 -0.0181-0.0041-0.0255-0.0098s-0.013-0.0134-0.0161-0.0222l-0.6208-1.8656c-0.0034-0.0101-0.0102-0.0188-0.0192-0.0246-0.0089-0.0059-0.0196-0.0085-0.0303-0.0076s-0.0207 0.0054-0.0285 0.0126c-0.0079 0.0073-0.0131 0.017-0.0148 0.0276l-0.312 1.8064c-0.0018 0.0111-0.0075 0.0211-0.0159 0.0284-0.0085 0.0073-0.0193 0.0114-0.0305 0.0116l-1.0656 0.016c-0.0072 2e-4 -0.0143-0.0013-0.0208-0.0043-0.0066-3e-3 -0.0124-0.0074-0.017-0.0129-0.0046-0.0056-0.0079-0.0121-0.0097-0.0191-0.0017-0.0069-0.0019-0.0142-5e-4 -0.0213l0.7344-4.2384c0.0019-0.011 0.0076-0.021 0.016-0.0283 0.0085-0.0073 0.0193-0.0115 0.0304-0.0117h1.0848c0.0104-1e-4 0.0204 0.0031 0.0288 0.0091 0.0084 0.0061 0.0145 0.0147 0.0176 0.0245l1.3232 3.976c0.0032 0.0096 0.0093 0.018 0.0175 0.0239s0.018 0.0091 0.0281 0.0091c0.0102 0 0.02-0.0032 0.0282-0.0091s0.0143-0.0143 0.0174-0.0239z" fill="rgb(245, 192, 23)"/>
<path d="m17.25 23.64v1.1432c0 0.0149 0.0058 0.0291 0.0161 0.0396 0.0104 0.0105 0.0244 0.0164 0.0391 0.0164h1.642c0.0147 0 0.0287 0.0059 0.0391 0.0164 0.0103 0.0105 0.0162 0.0248 0.0162 0.0396v1.0575c0 0.0148-0.0059 0.0291-0.0162 0.0396-0.0104 0.0105-0.0244 0.0077-0.0391 0.0077h-1.642c-0.0147 0-0.0287 0.0146-0.0391 0.0251-0.0103 0.0105-0.0161 0.0247-0.0161 0.0396v2.0057c-2e-4 0.0119-0.0042 0.0235-0.0112 0.033-0.0071 0.0094-0.017 0.0164-0.0283 0.0198l-1.1371 0.3168c-0.0083 0.0025-0.017 3e-3 -0.0255 0.0014-0.0086-0.0015-0.0166-0.0051-0.0235-0.0104s-0.0125-0.0121-0.0163-0.02-0.0058-0.0166-0.0056-0.0254l0.0094-5.8896c0-0.0148 0.0058-0.0291 0.0162-0.0396 0.0103-0.0105 0.0244-0.0164 0.039-0.0164h2.8801c0.0147 0 0.0287 0.0059 0.0391 0.0164 0.0103 0.0105 0.0162 0.0248 0.0162 0.0396v1.0064c0 0.0149-0.0059 0.0291-0.0162 0.0396-0.0104 0.0105-0.0244 0.0164-0.0391 0.0164l-1.642 0.0256c-0.0147 0-0.0287 0.0059-0.0391 0.0164-0.0103 0.0105-0.0161 0.0248-0.0161 0.0396z" fill="rgb(245, 192, 23)"/>
<path d="m41.448 31.144c0.0096 0.0038 0.0172 0.0113 0.0213 0.0207 4e-3 0.0095 0.0041 0.0201 3e-4 0.0297-0.0038 0.0095-0.0113 0.0172-0.0207 0.0212-0.0095 0.0041-0.0201 0.0042-0.0297 4e-4 -1.1008-0.392-2.2672-0.816-3.3488-1.1072-7.9658-2.1504-15.867-1.8763-23.702 0.8224-0.0036 9e-4 -0.0075 5e-4 -0.0109-0.0012-0.0033-0.0016-6e-3 -0.0044-0.0076-0.0078-0.0015-0.0035-0.0018-0.0074-7e-4 -0.011 1e-3 -0.0036 0.0033-0.0067 0.0064-0.0088 8.6288-3.9408 18.512-3.8496 27.093 0.2416z" fill="rgb(245, 192, 23)"/>
<path d="m23.289 32.443c0.3902 0.1206 0.7572 0.0135 1.1011-0.3214 0.0463-0.0451 0.0919-0.0451 0.137 0l0.2554 0.247c0.0508 0.0485 0.0502 0.0969-0.0017 0.1454-1.4562 1.3396-3.6483-0.318-2.422-1.9332 0.4786-0.6309 1.8081-0.8559 2.3628-0.1218 0.0381 0.0522 0.0561 0.1164 0.0507 0.1808s-0.0338 0.1247-0.08 0.1698c-0.0462 0.0452-0.1071 0.0722-0.1716 0.0762-0.0645 0.0039-0.1283-0.0155-0.1796-0.0547-1.4259-1.1315-2.5337 1.1501-1.0521 1.6119z" fill="rgb(245, 192, 23)"/>
<path d="m28.412 31.502c0 0.3985-0.1583 0.7806-0.4401 1.0623-0.2817 0.2818-0.6638 0.44-1.0623 0.44-0.3984 0-0.7805-0.1582-1.0623-0.44-0.2817-0.2817-0.44-0.6638-0.44-1.0623 0-0.3984 0.1583-0.7805 0.44-1.0623 0.2818-0.2817 0.6639-0.44 1.0623-0.44 0.3985 0 0.7806 0.1583 1.0623 0.44 0.2818 0.2818 0.4401 0.6639 0.4401 1.0623zm-0.5601-5e-3c0-0.2513-0.0998-0.4922-0.2774-0.6699-0.1777-0.1776-0.4186-0.2774-0.6699-0.2774-0.2512 0-0.4922 0.0998-0.6699 0.2774-0.1776 0.1777-0.2774 0.4186-0.2774 0.6699 0 0.2512 0.0998 0.4922 0.2774 0.6699 0.1777 0.1776 0.4187 0.2774 0.6699 0.2774 0.2513 0 0.4922-0.0998 0.6699-0.2774 0.1776-0.1777 0.2774-0.4187 0.2774-0.6699z" fill="rgb(245, 192, 23)"/>
<path d="m29.562 31.873v1.0228c0 0.0727-0.0364 0.109-0.1091 0.109h-0.3461c-0.0715 0-0.1073-0.0363-0.1073-0.109v-2.7864c0-0.0519 0.0265-0.0796 0.0796-0.083 0.6265-0.0312 1.3932-0.1471 1.6199 0.5694 0.15 0.4753 0.0185 0.8289-0.3946 1.0608-0.0221 0.012-0.0385 0.0323-0.0456 0.0566s-0.0044 0.0507 0.0075 0.0732l0.5954 1.1094c6e-3 0.0114 9e-3 0.0242 0.0088 0.037-3e-4 0.0129-0.0038 0.0255-0.0102 0.0365-0.0065 0.011-0.0157 0.02-0.0266 0.0263-0.011 0.0062-0.0234 0.0094-0.036 0.0092h-0.405c-0.0301 0-0.0596-0.0078-0.0857-0.0227-0.0261-0.0148-0.0478-0.0362-0.0632-0.0621-0.203-0.3519-0.3928-0.7095-0.5693-1.073-0.0056-0.0124-0.0153-0.0225-0.0275-0.0286-0.0123-6e-3 -0.0262-0.0077-0.0395-0.0046-0.0132 0.0031-0.025 0.0106-0.0333 0.0214-0.0084 0.0108-0.0127 0.0242-0.0122 0.0378zm0.0069-1.1838v0.3738c0 0.0354 0.014 0.0693 0.039 0.0943s0.0589 0.039 0.0942 0.039h0.0606c0.0587 1e-4 0.1168-0.0077 0.171-0.0228 0.0543-0.0151 0.1035-0.0373 0.145-0.0653 0.0414-0.0279 0.0743-0.0611 0.0967-0.0977s0.0339-0.0758 0.0338-0.1153v-0.0381c-1e-4 -0.0798-0.0473-0.1563-0.131-0.2128s-0.1972-0.0882-0.3155-0.0883h-0.0606c-0.0353 0-0.0692 0.014-0.0942 0.039s-0.039 0.0589-0.039 0.0942z" fill="rgb(245, 192, 23)"/>
<path d="m33.351 30.246c0.4885 0.6928 0 1.505-1.0032 1.505-0.0345 0.0014-0.067 0.0147-0.0908 0.0373s-0.0371 0.0527-0.037 0.084v1.046c0 0.0578-0.0323 0.0866-0.0969 0.0866h-0.4357c-0.0646 0-0.0969-0.0288-0.0969-0.0866v-2.7727c0-0.0635 0.0349-0.1005 0.1046-0.1109 0.3518-0.049 1.4162-0.1465 1.6559 0.2113zm-1.1117 0.4191v0.4365c-2e-4 0.0111 2e-3 0.0222 0.0065 0.0326s0.0113 0.0199 0.0199 0.0279c0.0087 8e-3 0.019 0.0145 0.0304 0.019 0.0114 0.0044 0.0237 0.0069 0.0362 0.0071h0.3118c0.0397 2e-4 0.079-0.0061 0.1158-0.0185 0.0367-0.0124 0.0702-0.0307 0.0984-0.0538 0.0282-0.0232 0.0507-0.0508 0.0661-0.0811 0.0154-0.0304 0.0235-0.063 0.0238-0.096v-0.1039c2e-4 -0.033-0.0073-0.0657-0.0223-0.0963-0.0149-0.0305-0.037-0.0583-0.0649-0.0818-0.0278-0.0235-0.061-0.0422-0.0976-0.055-0.0365-0.0128-0.0758-0.0196-0.1154-0.0198h-0.3118c-0.0125-2e-4 -0.0249 0.0018-0.0365 0.0058-0.0116 0.0041-0.0222 0.0101-0.0312 0.0178-9e-3 0.0078-0.0162 0.017-0.0212 0.0272s-0.0077 0.0212-8e-3 0.0323z" fill="rgb(245, 192, 23)"/>
<path d="m28 43c8.2843 0 15-6.7157 15-15s-6.7157-15-15-15-15 6.7157-15 15 6.7157 15 15 15zm0 1c8.8366 0 16-7.1634 16-16s-7.1634-16-16-16-16 7.1634-16 16 7.1634 16 16 16z" clip-rule="evenodd" fill="rgb(245, 192, 23)" fill-rule="evenodd"/>
<defs>
<linearGradient id="a" x1="10.418" x2="68.146" y1="9.7116" y2="76.017" gradientUnits="userSpaceOnUse">
<stop stop-color="rgb(25, 29, 31)" offset="0"/>
<stop stop-color="rgb(5, 5, 8)" offset="1"/>
</linearGradient>
</defs>
</svg>
