<?xml version="1.0" encoding="UTF-8"?>
<!-- generated by Finnhub -->
<svg viewBox="0 0 55.5 55.5" xmlns="http://www.w3.org/2000/svg">
<path d="M 0,0 H 55.5 V 55.5 H 0 Z" fill="rgb(33, 65, 135)"/>
<path d="M 17.99,22.985 V 12 L 31.7,23 H 34 V 12 H 37 V 23 H 40 V 23.02 C 41.78,23.24 44.84,24.71 45,29.02 C 45.16,33.52 41.33,35.91 39.63,36.7 A 10,10 0 0,1 30,44 H 24 A 10,10 0 0,1 14,34 V 23 H 18 Z M 21,23 H 27.1 L 21,18.1 V 23 Z M 40,33.21 C 40.92,32.38 42,30.86 42,28.75 C 42,27.91 41.48,26.55 40,25.93 V 33.21 Z M 17,26 H 37 V 33.5 A 7.5,7.5 0 0,1 29.5,41 H 24.5 A 7.5,7.5 0 0,1 17,33.5 V 26 Z" fill="rgb(254, 254, 253)" fill-rule="evenodd"/>
</svg>
