<?xml version="1.0" encoding="UTF-8"?>
<!-- generated by Finnhub -->
<svg viewBox="0 0 55.5 55.5" xmlns="http://www.w3.org/2000/svg">
<path d="M0 0h55.5v55.5H0z" fill="rgb(239, 242, 248)"/>
<circle cx="27.98" cy="28" r="16.48" fill="rgb(10, 249, 207)"/>
<circle cx="27.98" cy="28" r="12.51" fill="rgb(0, 218, 250)"/>
<path d="M28 45a17 17 0 1 0 0-34 17 17 0 0 0 0 34Zm-.02-.52a16.48 16.48 0 1 0 0-32.96 16.48 16.48 0 0 0 0 32.96Z" fill="rgb(30, 1, 11)" fill-rule="evenodd"/>
<path d="M40.37 32.5A13.19 13.19 0 0 1 28 41.18h-.03a13.18 13.18 0 1 1 12.45-8.82l.05.07-.1.07Zm-.66-.13c.45-1.2.72-2.5.77-3.84-.34.19-.78.4-1.3.6a15 15 0 0 1-.79 3.84c.54-.21.98-.42 1.32-.6ZM40.5 28c0-1.64-.31-3.21-.89-4.65-.26.15-.58.32-.95.5a15.25 15.25 0 0 1 .56 4.78c.53-.22.96-.44 1.28-.63Zm-1.07-5.07a12.53 12.53 0 0 0-2.42-3.6l-.42.19a13.85 13.85 0 0 1 1.94 3.89c.36-.17.66-.33.9-.48Zm-2.76-3.94-.35.15c-.48-.61-1-1.17-1.57-1.67.69.44 1.33.95 1.92 1.52ZM30.8 15.8c.63.14 1.23.33 1.81.56-.21.11-.47.23-.8.35a7.18 7.18 0 0 0-1-.91Zm-1.85-.29c.35.03.7.07 1.04.13.53.28 1.04.68 1.52 1.17-.5.16-1.1.31-1.8.4a7.05 7.05 0 0 0-.76-1.7Zm-1.55-.02a12.65 12.65 0 0 1 1.16 0c.1.13.21.3.32.5.18.34.36.76.52 1.26a13.57 13.57 0 0 1-2.84.02c.16-.5.34-.94.52-1.28.11-.2.22-.37.32-.5Zm-1.43.15c.35-.06.7-.1 1.04-.13-.27.42-.53 1-.76 1.73a8.87 8.87 0 0 1-1.8-.42c.48-.5.99-.9 1.52-1.18Zm-2.54.7c.56-.23 1.13-.4 1.73-.54-.35.25-.7.56-1.01.9-.3-.12-.55-.25-.72-.37Zm-2.2 1.12c-.68.43-1.3.92-1.88 1.47l.32.19c.47-.61 1-1.17 1.56-1.66Zm-2.21 1.8c-1.01 1.03-1.84 2.24-2.44 3.58.2.17.49.37.86.58a13.84 13.84 0 0 1 1.96-3.94 4.7 4.7 0 0 1-.38-.22Zm-2.63 4c-.58 1.43-.9 2.98-.92 4.6.26.23.68.51 1.29.8a15.7 15.7 0 0 1 .55-4.8 6.8 6.8 0 0 1-.92-.6Zm-.91 5.18c.04 1.34.3 2.62.73 3.81.3.23.76.5 1.38.78-.42-1.2-.7-2.5-.8-3.85-.56-.26-1-.5-1.31-.74ZM16.5 33c.42.96.96 1.86 1.6 2.68l.1-.09c.2.23.58.54 1.15.86-.61-.86-1.13-1.8-1.54-2.82a10.5 10.5 0 0 1-1.3-.63Zm2.6 3.83c.65.64 1.36 1.22 2.13 1.71-.44-.38-.86-.81-1.25-1.27l-.88-.44Zm6.06 3.37c-.72-.16-1.4-.39-2.07-.67-.9-.53-1.73-1.2-2.47-2l.3.1c.69.25 1.49.48 2.41.65a8.13 8.13 0 0 0 1.83 1.92Zm1.85.29c-.35-.03-.7-.07-1.04-.13a6.92 6.92 0 0 1-2.21-2c.74.12 1.56.21 2.45.26.24.8.51 1.43.8 1.87Zm1.55.02a12.8 12.8 0 0 1-1.16 0c-.1-.13-.21-.3-.32-.5-.2-.36-.38-.82-.55-1.37a26.86 26.86 0 0 0 2.92-.04 8.24 8.24 0 0 1-.57 1.41c-.1.2-.21.37-.32.5Zm1.43-.15c-.34.06-.69.1-1.04.13.3-.45.57-1.1.82-1.9.9-.08 1.74-.2 2.51-.34A7 7 0 0 1 30 40.35Zm2.89-.83c-.67.28-1.36.5-2.08.67.7-.5 1.34-1.2 1.9-2.03 1.07-.22 1.99-.49 2.77-.78-.77.86-1.64 1.58-2.6 2.14Zm1.86-.99c.47-.42.92-.88 1.33-1.38.3-.13.58-.25.84-.38-.66.67-1.38 1.26-2.17 1.76Zm3.12-2.84c-.29.2-.7.45-1.22.7.62-.86 1.14-1.82 1.55-2.86.48-.18.9-.36 1.27-.53a12.5 12.5 0 0 1-1.6 2.69Zm-4.9 1.48c.43-.75.8-1.6 1.12-2.54-1.07.2-2.27.36-3.57.46a26 26 0 0 1-.6 3.02c.99-.09 1.9-.22 2.73-.4l.33-.54Zm-3.15.08c.14-.65.28-1.36.39-2.14a39.17 39.17 0 0 1-4.43.04 28.3 28.3 0 0 0 .62 3.02 26.3 26.3 0 0 0 3.2-.04 19 19 0 0 0 .22-.88Zm4.42-3.1a32.9 32.9 0 0 1-3.66.48c.15-1.13.26-2.37.33-3.69a34.4 34.4 0 0 0 4.08-.58 20.3 20.3 0 0 1-.75 3.78Zm-3.97.5c.15-1.13.27-2.37.34-3.69a40.8 40.8 0 0 1-5.23.06c.07 1.31.18 2.55.34 3.68a38.26 38.26 0 0 0 4.55-.05Zm4.76-4.75c-1.2.25-2.57.46-4.1.59a57.53 57.53 0 0 0 .01-4.72c1.5-.15 2.83-.38 3.99-.66a22.83 22.83 0 0 1 .1 4.79ZM30.67 28c0-.75-.01-1.49-.04-2.2a34.7 34.7 0 0 1-5.3.05 57.5 57.5 0 0 0 .02 4.71 39.67 39.67 0 0 0 5.27-.05c.04-.81.05-1.65.05-2.51Zm4.19-3.34c-1.14.28-2.46.51-3.95.66a45.9 45.9 0 0 0-.4-4.43c1.21-.1 2.29-.28 3.21-.49.52 1.27.9 2.7 1.14 4.26Zm-4.25.68c-.07-1.6-.21-3.1-.4-4.42a31.44 31.44 0 0 1-4.45.03c-.2 1.34-.34 2.84-.41 4.45a33.64 33.64 0 0 0 5.26-.06Zm2.93-5.36c-.89.2-1.93.36-3.1.46a23.83 23.83 0 0 0-.6-2.78c.78-.11 1.45-.28 2-.47a10.35 10.35 0 0 1 1.7 2.8Zm-3.73-1.23-.27-1.05a13.95 13.95 0 0 1-3.12.02 27.34 27.34 0 0 0-.6 2.78 30.34 30.34 0 0 0 4.31-.03c-.1-.62-.2-1.2-.32-1.72Zm-6.42 19.07c.8.16 1.7.27 2.68.33-.23-.86-.44-1.88-.6-3.01-1.32-.08-2.5-.21-3.55-.4a14.6 14.6 0 0 0 1.47 3.08ZM25.07 31c.07 1.31.18 2.55.33 3.68a30.08 30.08 0 0 1-3.63-.42A20.15 20.15 0 0 1 21 30.5c1.17.23 2.53.41 4.07.5Zm-.08-3c0 .87.02 1.72.06 2.55-1.56-.1-2.92-.3-4.1-.53a23.1 23.1 0 0 1 .08-4.8c1.14.27 2.47.5 4 .6-.03.71-.04 1.44-.04 2.18Zm.47-7.07c-.2 1.34-.34 2.84-.41 4.45a25.29 25.29 0 0 1-3.96-.6c.23-1.58.61-3.04 1.13-4.32.9.2 1.98.38 3.24.47Zm.66-3.25c-.23.8-.43 1.75-.6 2.8a22.03 22.03 0 0 1-3.13-.44 10.36 10.36 0 0 1 1.73-2.85l.26.1c.48.16 1.06.3 1.74.4ZM37.8 33.67c-.93.32-2.07.64-3.4.9a14.8 14.8 0 0 1-1.36 3.06c1.21-.28 2.23-.63 3.03-.97.69-.9 1.27-1.9 1.73-3Zm.22-.56c-.92.34-2.08.69-3.46.97.34-1.17.59-2.44.72-3.78a24.5 24.5 0 0 0 3.58-1.04c-.11 1.36-.4 2.65-.84 3.85Zm-18.07 3.64c.32.16.7.3 1.1.45.56.2 1.2.39 1.92.54a14.57 14.57 0 0 1-1.4-3.05 22.35 22.35 0 0 1-3.38-.92c.47 1.1 1.06 2.1 1.76 2.98Zm-2-3.55a21.6 21.6 0 0 0 3.46 1 20.6 20.6 0 0 1-.73-3.78 22.6 22.6 0 0 1-1.71-.42c-.72-.21-1.35-.44-1.88-.67.12 1.37.42 2.67.87 3.87Zm-.9-4.38c.56.25 1.24.5 2.05.75.47.13.98.26 1.53.38a23.43 23.43 0 0 1 .1-4.8 13.98 13.98 0 0 1-3.16-1.14 14.98 14.98 0 0 0-.52 4.81Zm.65-5.25a13.35 13.35 0 0 0 3.09 1.13 19.1 19.1 0 0 1 1.12-4.3l-.37-.1c-.78-.21-1.4-.45-1.88-.67a13.51 13.51 0 0 0-1.96 3.94Zm2.24-4.3a11.12 11.12 0 0 0 2.15.7c.48-1.12 1.07-2.1 1.73-2.9a4.03 4.03 0 0 1-.87-.51 11.4 11.4 0 0 0-3.01 2.7Zm13.15-2.65c-.24.14-.56.3-.96.46a11.9 11.9 0 0 1 1.7 2.83c.89-.2 1.61-.43 2.18-.65a11.43 11.43 0 0 0-2.92-2.64Zm3.2 3.01c-.59.24-1.35.48-2.28.7.5 1.27.9 2.7 1.13 4.26 1.27-.33 2.3-.7 3.1-1.06a13.5 13.5 0 0 0-1.95-3.9Zm2.08 4.34c-.83.36-1.89.74-3.17 1.07a23.14 23.14 0 0 1 .12 4.79c1.45-.32 2.65-.7 3.57-1.07a15.4 15.4 0 0 0-.52-4.8Z" fill="rgb(30, 1, 11)" fill-rule="evenodd"/>
<path d="M17 20h-2v9h2v-9Zm1 9v-9c1.74 1.63 5 4.46 5 4.46V20h2v9l-5-4.54V29h-2Zm15.6-1.44A4.33 4.33 0 0 1 30.4 29 4.44 4.44 0 0 1 26 24.5c0-2.49 1.96-4.5 4.39-4.5 1.28 0 2.43.56 3.23 1.46l-1.33 1.3A2.5 2.5 0 0 0 28 24.5a2.5 2.5 0 0 0 4.37 1.66l1.23 1.4ZM38.4 29c1.27 0 2.41-.55 3.21-1.44l-1.23-1.4A2.5 2.5 0 0 1 36 24.5a2.5 2.5 0 0 1 4.29-1.75l1.33-1.3A4.33 4.33 0 0 0 38.39 20 4.44 4.44 0 0 0 34 24.5c0 2.49 1.96 4.5 4.39 4.5Z" fill="rgb(239, 242, 248)"/>
<path d="M14.7 19.7h2.6v9.6h-2.6v-9.6Zm3-.4.5.48a165.6 165.6 0 0 0 4.46 3.99l.04.03v-4.1h2.6v9.98l-5-4.54v4.16h-2.6v-10Zm2.3 5.16L25 29v-9h-2v4.46l-.3-.26A248.32 248.32 0 0 1 18 20v9h2v-4.54Zm14 3.1-.17.2a4.63 4.63 0 0 1-3.44 1.54 4.74 4.74 0 0 1-4.69-4.8c0-2.64 2.1-4.8 4.69-4.8 1.37 0 2.6.6 3.45 1.56l.2.21-1.76 1.7-.2-.2a2.2 2.2 0 0 0-3.78 1.53 2.2 2.2 0 0 0 3.85 1.46l.22-.26 1.64 1.87Zm8 0-.17.2a4.63 4.63 0 0 1-3.44 1.54 4.74 4.74 0 0 1-4.69-4.8c0-2.64 2.1-4.8 4.69-4.8 1.37 0 2.6.6 3.45 1.56l.2.21-1.76 1.7-.2-.2a2.2 2.2 0 0 0-3.78 1.53 2.2 2.2 0 0 0 3.85 1.46l.22-.26 1.64 1.87Zm-8.38-6.1A4.33 4.33 0 0 0 30.39 20 4.44 4.44 0 0 0 26 24.5c0 2.49 1.96 4.5 4.39 4.5 1.27 0 2.41-.55 3.21-1.44l-1.23-1.4a2.52 2.52 0 0 1-1.87.84 2.5 2.5 0 1 1 1.79-4.25l1.33-1.3Zm7.98 6.1A4.33 4.33 0 0 1 38.4 29 4.44 4.44 0 0 1 34 24.5c0-2.49 1.96-4.5 4.39-4.5 1.28 0 2.43.56 3.23 1.46l-1.33 1.3A2.5 2.5 0 0 0 36 24.5a2.5 2.5 0 0 0 4.37 1.66l1.23 1.4ZM17 20v9h-2v-9h2Z" fill-rule="evenodd" opacity=".5"/>
</svg>
