<?xml version="1.0" encoding="UTF-8"?>
<!-- generated by Finnhub -->
<svg viewBox="0 0 55.5 55.5" xmlns="http://www.w3.org/2000/svg">
<path d="M 0,0 H 55.5 V 55.5 H 0 Z" fill="rgb(239, 242, 248)"/>
<path d="M 14.99,16.145 V 39.8 C 15,39.91 15.07,40 15.19,40 H 21.21 C 21.53,40 21.75,40.13 21.85,40.43 L 22.29,41.56 C 22.39,41.85 22.28,41.99 21.96,41.99 H 13.1 C 13.03,41.99 13,41.96 13,41.89 V 14.1 C 13,14.04 13.03,14.01 13.09,14.01 C 22.62,14.01 31.84,14.01 40.73,14.03 C 41.15,14.03 41.53,14.09 41.87,14.23 C 41.95,14.25 41.99,14.3 42,14.38 C 42,14.46 41.98,14.52 41.91,14.56 C 40.01,15.86 37.19,16.01 33.46,16.01 H 15.21 C 15.07,16.01 15,16.04 15,16.17 Z M 33.96,20.57 L 41.6,17.53 C 41.64,17.51 41.67,17.52 41.7,17.55 C 41.72,17.57 41.73,17.6 41.71,17.64 L 29.48,41.87 A 0.08,0.08 0 0,1 29.4,41.91 L 23.78,41.92 C 23.74,41.92 23.71,41.9 23.7,41.87 L 17.58,21.2 C 17.55,21.1 17.58,21.07 17.68,21.1 L 23.28,22.44 C 23.32,22.44 23.34,22.47 23.35,22.5 L 27.15,38.26 C 27.17,38.29 27.19,38.31 27.23,38.32 C 27.27,38.32 27.3,38.3 27.31,38.26 L 33.91,20.61 C 33.91,20.59 33.94,20.57 33.96,20.56 Z M 41,39.93 C 41,39.99 40.95,40 40.89,40 H 32.26 C 31.97,40 31.76,40.14 31.66,40.4 L 31.06,41.54 C 30.92,41.84 31.03,42 31.38,42 L 42.85,41.99 C 42.95,41.99 42.99,41.95 42.99,41.86 V 21.83 C 42.99,21.59 42.95,21.36 42.85,21.14 A 0.22,0.22 0 0,0 42.66,21 C 42.57,21 42.5,21.02 42.45,21.1 C 41.89,21.85 41.73,22.66 41.55,23.52 C 41.49,23.82 41.43,24.12 41.35,24.42 A 14.98,14.98 0 0,0 41,28.22 V 39.92 Z" fill="rgb(23, 95, 195)"/>
</svg>
