<?xml version="1.0" encoding="UTF-8"?>
<!-- generated by Finnhub -->
<svg viewBox="0 0 55.5 55.5" xmlns="http://www.w3.org/2000/svg">
<path d="M 0,0 H 55.5 V 55.5 H 0 Z" fill="rgb(239, 242, 248)"/>
<path d="M 25.869999999999997,13.395 C 26.68,17.48 24.72,21.05 23.64,22.33 C 31.71,17.13 28.34,11.16 27.79,8 C 27.79,8 25.32,10.59 25.88,13.41 Z M 17.03,36.65 C 16.67,31.87 19.94,27.59 21.63,26.05 C 17.4,37.24 22.7,43.35 25.87,45 C 22.84,44.55 17.47,42.63 17.02,36.65 Z" fill="rgb(250, 107, 14)"/>
<path d="M 28.79,26.715 C 32.3,24.02 32.87,18.83 32.72,16.57 C 36.93,24.15 34.47,31.47 32.72,34.17 C 35.85,33.27 37.39,28.83 37.76,26.73 C 41.79,36.83 35.03,42.97 31.15,44.77 C 31.89,44.21 32.47,42.45 28.79,39.92 C 24.2,36.77 24.42,30.11 28.79,26.72 Z" fill="rgb(1, 22, 67)"/>
</svg>
