<?xml version="1.0" encoding="UTF-8"?>
<!-- generated by Finnhub -->
<svg viewBox="0 0 55.5 55.5" xmlns="http://www.w3.org/2000/svg">
<path d="M 0,0 H 55.5 V 55.5 H 0 Z" fill="rgb(239, 242, 248)"/>
<path d="M 16.47,32.105 C 17.28,32.72 18.1,33.29 18.93,33.85 C 19.45,34.2 19.91,34.53 20.33,34.85 C 20.76,35.19 21.21,35.55 21.66,35.93 C 21.69,35.95 21.71,35.95 21.73,35.92 C 23,34.07 24.3,32.22 25.62,30.38 A 9.65,9.65 0 0,0 27.62,25.8 C 27.94,23.03 27.23,20.65 25.51,18.67 A 14.9,14.9 0 0,0 23.27,16.73 A 300.44,300.44 0 0,1 18.41,13.02 A 0.09,0.09 0 0,0 18.35,13 A 0.1,0.1 0 0,0 18.29,13.04 L 15.55,16.64 C 14.7,17.74 13.95,18.83 13.32,19.88 A 8.24,8.24 0 0,0 13.62,29.21 A 9.86,9.86 0 0,0 15.97,31.7 C 16.13,31.85 16.3,31.99 16.48,32.12 Z M 30.05,42.1 C 30.22,42.23 30.41,42.31 30.65,42.35 A 0.1,0.1 0 0,1 30.71,42.39 C 30.72,42.41 30.74,42.43 30.77,42.44 C 33.85,43.6 37.21,42.98 39.42,40.4 C 40.39,39.26 41.29,38.1 42.12,36.93 L 44.99,32.86 C 45.01,32.83 45,32.81 44.98,32.79 L 38.62,28.49 A 8.47,8.47 0 0,0 31.9,27.13 C 31.68,27.18 31.47,27.26 31.26,27.33 L 30.83,27.49 A 2.5,2.5 0 0,0 30.15,27.8 C 30.02,27.89 29.89,27.96 29.75,28.04 A 3.73,3.73 0 0,0 28.76,28.78 C 28.49,29.03 28.22,29.27 27.97,29.57 C 26.27,31.58 24.77,33.83 23.3,36.07 L 22.7,36.97 A 0.25,0.25 0 0,0 22.66,37.16 A 0.19,0.19 0 0,0 22.74,37.29 C 24.66,38.57 26.62,39.9 28.64,41.29 A 16.4,16.4 0 0,0 29.69,41.89 C 29.82,41.93 29.94,42 30.05,42.09 Z" fill="rgb(25, 32, 72)"/>
</svg>
