<?xml version="1.0" encoding="UTF-8"?>
<!-- generated by Finnhub -->
<svg viewBox="0 0 55.5 55.5" xmlns="http://www.w3.org/2000/svg">
<path d="M0 0h55.5v55.5H0z" fill="rgb(239, 242, 248)"/>
<path d="M14.26 17.67c.13-.57.35-1.1.66-1.58.04-.06.04-.11 0-.17l-1.28-1.55a.14.14 0 0 1 0-.2l1.54-1.51a.23.23 0 0 1 .3-.02l1.44 1.22c.04.04.08.04.13.02l1.63-.72a.15.15 0 0 0 .1-.12l.2-1.92c.01-.08.06-.12.14-.12h2.24c.07 0 .11.04.12.1l.16 1.9a.14.14 0 0 0 .08.12l1.75.75c.06.03.12.02.17-.03l1.44-1.2a.23.23 0 0 1 .31.02l1.49 1.51a.14.14 0 0 1 0 .2l-1.27 1.52a.14.14 0 0 0 0 .16c.3.49.53 1.02.66 1.6a.15.15 0 0 0 .13.1l1.83.2a.33.33 0 0 1 .29.33l-.03 1.93c0 .07-.03.13-.07.18a.27.27 0 0 1-.17.08l-1.63.14a.35.35 0 0 0-.3.22l-.73 1.7a.11.11 0 0 0 .02.11l1.09 1.28a.4.4 0 0 1-.03.54l-1.31 1.3a.32.32 0 0 1-.44.01l-1.34-1.15a.1.1 0 0 0-.1-.02l-1.7.68a.2.2 0 0 0-.13.18l-.16 1.73a.26.26 0 0 1-.23.24 6.7 6.7 0 0 1-2.22-.08c-.06-.01-.1-.05-.1-.12l-.14-1.73a.29.29 0 0 0-.19-.26l-1.66-.72a.13.13 0 0 0-.14.02l-1.33 1.15c-.18.15-.35.15-.52-.03l-1.38-1.5a.13.13 0 0 1 0-.17l1.26-1.45a.17.17 0 0 0 .03-.18l-.66-1.6a.14.14 0 0 0-.13-.1l-1.85-.16a.15.15 0 0 1-.09-.04.15.15 0 0 1-.05-.08 7.67 7.67 0 0 1 0-2.33c0-.05.03-.08.09-.09l1.95-.18c.03 0 .06-.01.09-.04a.15.15 0 0 0 .04-.07Zm9 1.5a3.04 3.04 0 1 0-6.07 0 3.04 3.04 0 0 0 6.08 0Z" fill="rgb(70, 81, 192)"/>
<path d="M22.32 19.24a2.06 2.06 0 0 1-3.52 1.46 2.06 2.06 0 1 1 2.92-2.91c.38.38.6.9.6 1.45Zm-.51.01a1.54 1.54 0 0 0-2.63-1.09 1.54 1.54 0 1 0 2.17 2.18c.3-.29.46-.68.46-1.09ZM24.31 37.5a.19.19 0 0 0-.08-.08.2.2 0 0 0-.12-.02l-2.85.5c-.06 0-.1-.02-.13-.08a13.17 13.17 0 0 1-.87-3.3c-.01-.07.02-.12.1-.15l2.66-.97a.15.15 0 0 0 .11-.16c-.01-.85.1-1.69.37-2.5a.15.15 0 0 0-.06-.18 44.76 44.76 0 0 0-2.08-1.52c-.32-.21-.38-.4-.2-.76.43-.89.9-1.65 1.4-2.3.16-.19.36-.23.6-.12l2.35 1.05c.06.03.11.02.16-.03a8.72 8.72 0 0 1 1.9-1.45.37.37 0 0 0 .18-.37l-.46-2.7c0-.03 0-.06.02-.1a.16.16 0 0 1 .08-.06c1.05-.44 2.15-.73 3.28-.9.07 0 .1.02.13.08l.97 2.7c.02.06.07.09.13.09a8.5 8.5 0 0 1 2.7.36c.07.02.12 0 .17-.06l1.62-2.26a.3.3 0 0 1 .37-.1c.94.43 1.84.94 2.68 1.54a.31.31 0 0 1 .1.38l-1.17 2.48c-.03.07-.02.13.03.18.64.6 1.17 1.3 1.6 2.06a.2.2 0 0 0 .2.1l2.7-.47a.33.33 0 0 1 .35.2c.38 1.01.63 2.05.75 3.12 0 .08-.02.13-.1.16l-2.59.98a.18.18 0 0 0-.12.18 11.7 11.7 0 0 1-.4 2.69.15.15 0 0 0 .06.16l2.26 1.59a.23.23 0 0 1 .08.29c-.44.95-.97 1.85-1.6 2.69-.1.14-.24.17-.4.1l-2.44-1.12a.22.22 0 0 0-.26.05 6.24 6.24 0 0 1-2.01 1.45.14.14 0 0 0-.07.06.14.14 0 0 0-.02.08l.46 2.86a.24.24 0 0 1-.18.27l-3 .8a.28.28 0 0 1-.32-.17l-1.01-2.65a.13.13 0 0 0-.05-.06 9.52 9.52 0 0 1-2.72-.41c-.04-.02-.07-.02-.1 0a.16.16 0 0 0-.08.05l-1.64 2.35c-.05.07-.12.09-.2.05a11.72 11.72 0 0 1-2.9-1.75c-.06-.05-.07-.1-.04-.18l1.2-2.57a.15.15 0 0 0-.03-.17 9.3 9.3 0 0 1-1.47-1.98Zm12.15-4.42a4.35 4.35 0 0 0-4.39-4.36 4.4 4.4 0 0 0-4.39 4.36 4.35 4.35 0 0 0 4.4 4.37 4.4 4.4 0 0 0 4.38-4.37Z" fill="rgb(70, 81, 192)"/>
<path d="M35.74 33.15a3.6 3.6 0 0 1-6.17 2.55 3.6 3.6 0 1 1 5.9-3.93c.18.44.27.9.27 1.38Zm-.91.01a2.7 2.7 0 0 0-4.62-1.9 2.7 2.7 0 1 0 4.62 1.9Z" fill="rgb(70, 81, 192)"/>
</svg>
