<?xml version="1.0" encoding="UTF-8"?>
<!-- generated by Finnhub -->
<svg viewBox="0 0 55.5 55.5" xmlns="http://www.w3.org/2000/svg">
<path d="M0 0h55.5v55.5H0z" fill="rgb(239, 242, 248)"/>
<path d="M12.08 29.64 14 28h2.5l1 1.5.5-1 1 2V34h1v-3h5v-5l1-1h1.5v12h.5v-1.5l1-.5.5-12 1.5-1v-6c.17 1.83.5 5.6.5 6 0 .4.67.5 1 .5V29c0 .4 1-.5 1.5-1v5l1-1h1v-1h1v1h1v1h1v-1h2v1h2.2a16 16 0 0 1-31.12-3.36Z"/>
<path d="m28 43a15 15 0 1 0 0-30 15 15 0 0 0 0 30zm0 1a16 16 0 1 0 0-32 16 16 0 0 0 0 32z" fill="url(#e)" fill-rule="evenodd"/>
<path d="M21.9 36a3.3 3.3 0 0 0-1.93-1.9l.06-.2c.47.16 1.43.7 1.92 1.71l.05-.24c.08-.34.2-.8.4-1.4l.2.06c-.2.6-.33 1.05-.4 1.38-.08.32-.1.51-.1.59l.5 1.98-.2.04-.5-2.02Z" fill="rgb(95, 187, 18)"/>
<path d="m28.5 26c-7.6 0.8-7.5 6.33-6.5 9 1-0.33 3.3-1.4 4.5-3s1.83-4.67 2-6z" fill="url(#d)"/>
<path d="M18 27c0 2 1 3.5 1.5 4 3-2 2-4.5 2-6 0-1.2.33-1.83.5-2-1.33.5-4 2-4 4Z" fill="url(#c)"/>
<path d="M15.5 30c-1.6 0-4.33 1.33-5.5 2 2.5 0 4.5 2 7 2.5 2 .4 3.17-.17 3.5-.5-1.5-3-3-4-5-4Z" fill="url(#b)"/>
<path d="M20 36c-1.6 0-2.33 2-2.5 3 1.5-.5 2 0 3.5 0 1.2 0 1.83-1.33 2-2-.33-.33-1.4-1-3-1Z" fill="url(#a)"/>
<defs>
<linearGradient id="e" x1="20" x2="36" y1="15.5" y2="42" gradientUnits="userSpaceOnUse">
<stop stop-color="rgb(234, 236, 224)" offset="0"/>
<stop stop-color="rgb(99, 184, 38)" offset="1"/>
</linearGradient>
<linearGradient id="d" x1="22.5" x2="26.5" y1="29.5" y2="31.5" gradientUnits="userSpaceOnUse">
<stop stop-color="rgb(121, 203, 40)" offset="0"/>
<stop stop-color="rgb(200, 254, 120)" offset="1"/>
</linearGradient>
<linearGradient id="c" x1="19.5" x2="20.5" y1="24.5" y2="30.5" gradientUnits="userSpaceOnUse">
<stop stop-color="rgb(143, 212, 68)" offset="0"/>
<stop stop-color="rgb(98, 181, 30)" offset="1"/>
</linearGradient>
<linearGradient id="b" x1="10.5" x2="20.5" y1="31.5" y2="34" gradientUnits="userSpaceOnUse">
<stop stop-color="rgb(166, 240, 90)" offset="0"/>
<stop stop-color="rgb(92, 185, 15)" offset="1"/>
</linearGradient>
<linearGradient id="a" x1="21.5" x2="18.5" y1="36.5" y2="39" gradientUnits="userSpaceOnUse">
<stop stop-color="rgb(72, 163, 2)" offset="0"/>
<stop stop-color="rgb(164, 236, 97)" offset="1"/>
</linearGradient>
</defs>
</svg>
