<?xml version="1.0" encoding="UTF-8"?>
<!-- generated by Finnhub -->
<svg viewBox="0 0 55.5 55.5" xmlns="http://www.w3.org/2000/svg">
<path d="M 0,0 H 55.5 V 55.5 H 0 Z" fill="rgb(239, 242, 248)"/>
<path d="M 51.99,25.985 H 50.34 A 1.59,1.59 0 0,0 50.08,25.38 A 1.9,1.9 0 0,0 48.96,24.54 A 2.61,2.61 0 0,0 46.87,24.78 C 46.49,25.02 46.19,25.37 45.97,25.83 A 3.9,3.9 0 0,0 45.65,27.5 C 45.65,28.17 45.76,28.73 45.98,29.2 C 46.2,29.65 46.49,30 46.88,30.23 A 2.73,2.73 0 0,0 48.95,30.47 C 49.18,30.4 49.4,30.3 49.58,30.17 C 49.78,30.02 49.94,29.86 50.07,29.66 S 50.29,29.26 50.34,29 H 52 A 3.48,3.48 0 0,1 49.63,31.77 C 49.19,31.92 48.7,32 48.16,32 C 47.36,32 46.65,31.82 46.02,31.47 A 3.79,3.79 0 0,1 44.54,29.92 A 5.06,5.06 0 0,1 44,27.5 C 44,26.56 44.18,25.75 44.55,25.08 C 44.91,24.41 45.4,23.89 46.03,23.53 A 4.67,4.67 0 0,1 49.57,23.2 C 50,23.34 50.39,23.54 50.73,23.8 C 51.07,24.07 51.35,24.4 51.57,24.78 C 51.79,25.15 51.93,25.51 52,26 Z M 36.81,32 H 35.06 L 38.25,23 H 40.28 L 43.48,32 H 41.72 L 39.3,24.85 H 39.23 L 36.8,32 Z M 36.87,28.47 H 41.65 V 29.78 H 36.87 V 28.48 Z M 28.38,32 V 23 H 31.78 C 32.48,23 33.06,23.13 33.53,23.39 C 34,23.64 34.36,23.99 34.6,24.45 C 34.85,24.9 34.97,25.41 34.97,25.98 C 34.97,26.56 34.85,27.07 34.6,27.52 C 34.36,27.97 34,28.32 33.52,28.58 C 33.04,28.83 32.45,28.96 31.75,28.96 H 29.5 V 27.62 H 31.53 C 31.93,27.62 32.27,27.55 32.53,27.41 C 32.79,27.27 32.98,27.07 33.11,26.83 C 33.23,26.58 33.3,26.3 33.3,25.98 C 33.3,25.66 33.23,25.38 33.1,25.14 A 1.29,1.29 0 0,0 32.53,24.57 C 32.27,24.43 31.93,24.37 31.53,24.37 H 30 V 32 H 28.37 Z M 25.47,25.52 A 1.16,1.16 0 0,0 24.94,24.65 C 24.64,24.45 24.24,24.35 23.76,24.35 C 23.41,24.35 23.12,24.39 22.88,24.49 C 22.63,24.59 22.44,24.73 22.31,24.89 A 0.96,0.96 0 0,0 22.24,25.96 C 22.34,26.09 22.45,26.2 22.6,26.3 C 22.75,26.39 22.92,26.47 23.1,26.53 L 23.65,26.69 L 24.5,26.89 A 6,6 0 0,1 25.5,27.2 C 25.81,27.33 26.1,27.5 26.35,27.7 S 26.8,28.14 26.95,28.42 C 27.1,28.7 27.17,29.03 27.17,29.42 C 27.17,29.92 27.03,30.38 26.77,30.77 C 26.49,31.15 26.1,31.46 25.58,31.67 C 25.08,31.89 24.46,32 23.73,32 C 23.03,32 22.41,31.9 21.89,31.68 A 2.72,2.72 0 0,1 20.68,30.76 C 20.39,30.36 20.23,29.86 20.21,29.28 H 21.83 C 21.85,29.58 21.95,29.84 22.12,30.04 C 22.29,30.24 22.52,30.4 22.79,30.5 C 23.06,30.6 23.37,30.65 23.72,30.65 C 24.07,30.65 24.39,30.59 24.66,30.49 C 24.93,30.39 25.14,30.24 25.29,30.06 C 25.45,29.86 25.52,29.65 25.53,29.4 A 0.82,0.82 0 0,0 25.32,28.83 A 1.53,1.53 0 0,0 24.75,28.46 C 24.51,28.36 24.22,28.26 23.9,28.19 L 22.87,27.93 A 4.21,4.21 0 0,1 21.1,27.09 A 1.9,1.9 0 0,1 20.45,25.58 C 20.45,25.06 20.59,24.61 20.88,24.23 C 21.18,23.83 21.58,23.53 22.08,23.33 C 22.58,23.11 23.14,23 23.78,23 C 24.42,23 24.98,23.1 25.47,23.32 S 26.34,23.84 26.62,24.22 C 26.89,24.6 27.04,25.03 27.05,25.52 H 25.47 Z M 12.73,23 L 15.09,30.08 H 15.19 L 17.53,23 H 19.33 L 16.13,32 H 14.11 L 10.92,23 H 12.72 Z M 8,23 H 9.6 V 29.24 C 9.6,29.82 9.47,30.31 9.23,30.72 C 8.99,31.13 8.66,31.45 8.23,31.67 A 3.2,3.2 0 0,1 6.74,32 C 6.22,32 5.76,31.9 5.34,31.72 A 2.28,2.28 0 0,1 4.36,30.89 A 2.44,2.44 0 0,1 4,29.52 H 5.6 C 5.6,29.76 5.65,29.97 5.75,30.14 C 5.85,30.31 5.99,30.44 6.18,30.54 C 6.36,30.64 6.57,30.68 6.8,30.68 C 7.06,30.68 7.28,30.62 7.45,30.52 C 7.63,30.41 7.77,30.25 7.86,30.03 A 2,2 0 0,0 8,29.24 V 23 Z"/>
</svg>
