<?xml version="1.0" encoding="UTF-8"?>
<!-- generated by Finnhub -->
<svg viewBox="0 0 55.5 55.5" xmlns="http://www.w3.org/2000/svg">
<path d="M 0,0 H 55.5 V 55.5 H 0 Z" fill="rgb(28, 53, 53)"/>
<path d="M 17.549999999999997,30.825 C 17.79,30.27 17.93,29.64 17.98,29 H 19.12 A 4.57,4.57 0 0,1 17.56,30.84 Z M 17,32 A 6.5,6.5 0 1,1 11.84,22 H 26.96 C 27.13,22.8 26.79,24.71 24.03,25.96 C 23.89,26.95 22.93,28.92 20.21,28.92 C 19.97,29.92 19.01,31.79 16.99,31.98 Z M 16.4,31 C 16.71,30.39 16.91,29.71 16.98,29 H 14.2 C 14.14,29.65 14.02,30.34 13.87,31 H 16.4 Z M 12.56,31 H 10.39 C 10.22,30.41 10.09,29.82 9.99,29.25 A 5.18,5.18 0 0,1 11.7,29 H 13 A 15.1,15.1 0 0,1 12.57,31 Z M 14.26,28 H 16.98 A 5.47,5.47 0 0,0 16.4,26 H 14 C 14.15,26.65 14.25,27.33 14.26,28 Z M 12.74,26 C 12.93,26.66 13.04,27.34 13.06,28 H 11.43 C 10.88,28 10.36,28.06 9.89,28.18 V 28.05 C 9.89,27.39 10.01,26.7 10.19,26.03 L 10.69,26 H 12.74 Z M 13.72,25 H 15.74 A 5.5,5.5 0 0,0 12.94,23.2 C 13.19,23.63 13.47,24.26 13.72,25 Z M 11.5,23 H 11.47 C 11.73,23.42 12.1,24.14 12.42,25 H 10.52 C 10.84,24.14 11.22,23.42 11.47,23 H 11.36 H 11.5 Z M 12.25,32 C 12,32.78 11.73,33.49 11.51,34 H 11.43 A 26.4,26.4 0 0,1 10.83,32.43 C 11.03,32.03 11.49,32 11.82,32 H 12.25 Z M 13.09,33.77 C 13.25,33.29 13.44,32.67 13.62,32 H 15.74 A 5.5,5.5 0 0,1 13.09,33.77 Z M 6.44,30.47 C 6.44,28.75 7.44,27.17 8.88,26.44 A 7.41,7.41 0 0,0 8.71,28.66 C 7.73,29.26 7.11,30.26 7.01,31.67 A 5.49,5.49 0 0,1 6.44,30.65 V 30.47 Z M 9.26,25.14 C 9.57,24.3 9.95,23.59 10.23,23.14 A 5.5,5.5 0 0,0 6.02,28.02 A 4.74,4.74 0 0,1 9.26,25.14 Z M 8.86,29.95 C 9.11,31.36 9.53,32.81 9.85,33.75 A 5.49,5.49 0 0,1 8,32.75 V 32.66 C 8,31.48 8.28,30.57 8.87,29.96 Z M 14.96,23 C 15.77,23.51 16.46,24.2 16.98,25 H 23.57 A 5.68,5.68 0 0,0 25.77,23 H 14.97 Z M 22.82,26 H 17.5 C 17.76,26.62 17.93,27.3 17.98,28 H 20.76 C 21.4,27.71 22.48,27.01 22.82,26 Z" fill="rgb(210, 177, 149)" fill-rule="evenodd"/>
<path d="M 28.99,19.985 V 36 H 28 V 20 H 29 Z M 43.64,24.88 C 43.02,25.2 41.48,25.88 40.25,25.98 C 40.72,24.52 42.1,21.48 43.89,20.94 C 45.69,20.41 45.13,23.04 44.63,24.44 C 45.23,24.15 46.4,23.29 46.4,22.07 C 46.4,20.54 45.37,20 44.28,20 C 43.18,20 40.51,21.79 39.4,26.1 C 38.02,26.28 34.6,26.56 32,26.3 A 9.41,9.41 0 0,0 38,28.82 C 41.44,28.82 46.34,26.42 48.76,24.29 L 48.98,25.28 C 49.15,24.65 49.58,23.31 50,22.76 A 5.23,5.23 0 0,0 47.65,23.25 L 48.76,23.6 C 46.97,25.08 42.36,28.04 38.26,28.04 C 37.66,28.04 36.22,27.74 35.28,27.06 C 37.3,27.2 41.8,26.96 43.64,24.88 Z M 36.48,28.78 L 33.44,28.86 C 34.14,29.41 35.87,30.53 37.14,30.55 C 37.38,31.36 38.77,32.7 42.44,31.53 C 41.89,32.66 40.47,34.93 39.3,34.93 C 38.13,34.93 37.98,33.23 38.05,32.39 C 37.52,33.59 37.08,36 39.5,36 S 44.21,31.24 45.05,28.86 C 42.79,31.38 40.15,31.21 39.11,30.8 C 42.31,30.48 45.06,28.12 46.04,26.97 C 38.37,31.11 36.47,29.9 36.48,28.78 Z" fill="rgb(210, 177, 149)"/>
</svg>
