<?xml version="1.0" encoding="UTF-8"?>
<!-- generated by Finnhub -->
<svg viewBox="0 0 55.5 55.5" xmlns="http://www.w3.org/2000/svg">
<path d="M 0,0 H 55.5 V 55.5 H 0 Z" fill="rgb(239, 242, 248)"/>
<path d="M 18.06,23.615 A 3.5,3.5 0 1,1 19.97,20.95 C 20.23,21.53 20.75,22.05 21.77,22.11 A 2.5,2.5 0 1,1 20,24.5 A 2.54,2.54 0 0,0 18.07,23.63 Z M 25.37,35.57 A 4.53,4.53 0 0,0 24.93,43.17 A 4.35,4.35 0 0,0 31.07,42.1 A 4.53,4.53 0 0,0 29.61,35.6 C 28.97,34.97 28.46,33.87 29.38,32.2 A 2.84,2.84 0 0,0 29.21,27.74 A 2.73,2.73 0 0,0 25.37,28.41 A 2.84,2.84 0 0,0 25.97,32.28 C 26.27,33.03 26.27,34.18 25.37,35.58 Z M 39.5,24 C 38.94,24 38.4,23.87 37.93,23.63 C 36.97,23.67 36.36,24.06 36,24.5 A 2.5,2.5 0 1,1 34.24,22.11 C 35.25,22.05 35.77,21.53 36.03,20.96 A 3.5,3.5 0 1,1 39.5,24 Z" fill="rgb(241, 154, 11)"/>
<ellipse cx="17.94" cy="31.3" rx="3.31" ry="3.37" fill="rgb(2, 104, 167)"/>
<ellipse cx="40.89" cy="32.26" rx="3.11" ry="3.16" fill="rgb(2, 104, 167)"/>
<circle cx="28" cy="19.5" r="2.5" fill="rgb(2, 104, 167)"/>
<circle cx="23" cy="15" r="2" fill="rgb(2, 104, 167)"/>
<ellipse cx="33.81" cy="32.26" rx="1.77" ry="1.8" fill="rgb(2, 104, 167)"/>
<circle cx="19.47" cy="38.97" r="1.75" fill="rgb(2, 104, 167)"/>
<ellipse cx="36.4" cy="37.13" rx="1.85" ry="1.89" fill="rgb(2, 104, 167)"/>
<circle cx="34" cy="16" r="2" fill="rgb(2, 104, 167)"/>
<circle cx="27.5" cy="13" r="1" fill="rgb(2, 104, 167)"/>
<circle cx="13.25" cy="26.25" r="1.25" fill="rgb(2, 104, 167)"/>
<circle cx="14.25" cy="35.25" r=".75" fill="rgb(2, 104, 167)"/>
<ellipse cx="34.02" cy="41.64" rx=".81" ry=".83" fill="rgb(2, 104, 167)"/>
<ellipse cx="40.08" cy="26.83" rx=".81" ry=".83" fill="rgb(2, 104, 167)"/>
</svg>
