<?xml version="1.0" encoding="UTF-8"?>
<!-- generated by Finnhub -->
<svg viewBox="0 0 55.5 55.5" xmlns="http://www.w3.org/2000/svg">
<path d="M 0,0 H 55.5 V 55.5 H 0 Z" fill="rgb(239, 242, 248)"/>
<path d="M 6.99,27.995 C 7,21.41 12.37,16 19,16 V 16.57 A 11.51,11.51 0 0,0 7.63,28.01 C 7.63,34.26 12.7,39.34 19,39.45 V 40 A 12,12 0 0,1 7,28.01 Z" fill="rgb(136, 175, 156)"/>
<path d="M 18.99,17.285 V 24.72 A 1.98,1.98 0 0,0 18.24,23.96 C 18.12,23.89 17.99,23.81 17.89,23.71 A 0.83,0.83 0 0,0 17.53,23.49 A 0.06,0.06 0 0,1 17.5,23.41 C 17.6,23.23 17.7,23.03 17.6,22.84 C 17.5,22.66 17.45,22.53 17.43,22.42 C 17.38,22.12 17.39,21.72 17.42,21.29 C 17.43,21.03 17.44,20.79 17.43,20.58 C 17.43,20.51 17.49,20.47 17.53,20.42 C 17.58,20.39 17.63,20.35 17.63,20.3 C 17.7,20.1 17.63,19.92 17.54,19.73 A 1,1 0 0,1 17.42,19.25 C 17.42,19.18 17.4,19.15 17.33,19.18 H 17.31 C 17.24,19.2 17.21,19.25 17.21,19.32 L 17.19,19.55 C 17.19,19.65 17.16,19.74 17.13,19.83 A 0.92,0.92 0 0,0 17.08,20.24 C 17.08,20.31 17.11,20.37 17.13,20.44 C 17.15,20.51 17.18,20.59 17.18,20.68 L 17.22,21.58 C 17.22,21.68 17.22,21.91 17.19,22.29 C 17.19,22.45 17.12,22.59 17.06,22.73 L 16.99,22.9 C 16.96,22.99 16.96,23.05 16.99,23.1 L 17.19,23.42 C 17.22,23.45 17.2,23.49 17.17,23.5 L 16.77,23.59 A 2.32,2.32 0 0,0 16.13,23.83 C 15.81,23.98 15.55,24.25 15.32,24.51 C 14.99,24.86 14.82,25.36 14.66,25.81 C 14.65,25.84 14.67,25.87 14.71,25.87 L 15.56,25.72 L 15.76,25.69 A 6.53,6.53 0 0,0 16.59,25.49 C 16.64,25.37 16.66,25.27 16.65,25.19 C 16.6,24.85 16.62,24.52 16.72,24.22 C 16.79,24.02 16.9,23.81 17.12,23.76 C 17.82,23.6 18.25,24.26 18.25,24.91 V 25.55 C 18.26,25.59 18.3,25.63 18.35,25.64 L 18.55,25.65 L 18.62,25.66 C 18.76,25.67 18.89,25.69 19,25.78 V 25.92 C 18.79,25.93 18.54,25.9 18.27,25.82 A 1.5,1.5 0 0,0 17.64,25.75 C 17.41,25.78 17.17,25.78 16.94,25.78 C 16.67,25.78 16.39,25.78 16.12,25.83 C 15.67,25.91 15.22,25.99 14.77,26.04 C 14.59,26.06 14.44,26.17 14.34,26.36 C 14.21,26.58 14.19,26.76 14.26,26.93 L 14.44,27.35 C 14.46,27.4 14.47,27.46 14.47,27.53 C 14.49,28.58 14.5,29.53 14.49,30.37 V 30.44 C 14.5,30.55 14.51,30.74 14.4,30.75 L 14.34,30.76 C 14.22,30.78 14.08,30.8 14.04,30.89 L 13.98,31.05 C 13.88,31.31 13.78,31.56 13.48,31.65 C 13.4,31.68 13.32,31.68 13.23,31.68 C 13.09,31.68 12.94,31.68 12.83,31.79 L 12.72,31.91 C 12.3,32.33 11.81,32.82 11.77,33.43 V 33.46 C 11.77,33.58 11.75,33.69 11.91,33.69 H 12.28 C 12.35,33.69 12.41,33.75 12.41,33.82 C 12.35,34.67 12.35,35.5 12.4,36.32 C 12.4,36.41 12.42,36.47 12.46,36.52 A 10.68,10.68 0 0,1 8.26,28 C 8.26,22.08 13.06,17.29 19,17.29 Z M 18.97,26.35 A 0.71,0.71 0 0,0 19,26.29 V 31 V 30.99 H 18.99 A 6.8,6.8 0 0,1 18.93,30.43 C 18.9,29.61 18.91,28.85 18.95,28.14 C 18.96,27.84 18.97,27.6 18.95,27.39 L 18.91,26.64 C 18.91,26.55 18.92,26.44 18.97,26.36 Z M 18.54,32.4 L 19,32.41 V 32.51 C 18.14,32.51 17.33,32.52 16.72,32.55 C 16.09,32.57 15.73,32.6 15.72,32.64 C 15.72,32.67 15.82,32.68 15.98,32.69 A 52.1,52.1 0 0,0 19,32.76 V 32.96 L 15.4,32.98 V 35.15 C 15.48,35.88 15.44,36.68 15.39,37.39 C 15.39,37.43 15.29,37.49 15.29,37.42 V 37.22 C 15.25,36.62 15.22,35.99 15.27,35.38 C 15.3,34.91 15.29,34.43 15.27,33.95 L 15.26,33.55 C 15.25,33.29 15.26,33.02 15.28,32.75 V 32.73 C 15.32,32.6 15.7,32.46 15.84,32.46 C 16.13,32.46 16.41,32.44 16.69,32.42 C 17.14,32.39 17.59,32.37 18.04,32.39 C 18.24,32.4 18.42,32.41 18.54,32.4 Z" fill="rgb(136, 175, 156)"/>
<path d="M 18.68,33.835 L 19,34 V 36.1 L 18.98,36.09 L 18.58,35.69 A 2.52,2.52 0 0,0 18.14,35.36 A 0.57,0.57 0 0,1 18.01,35.26 A 0.1,0.1 0 0,1 18.02,35.12 L 18.04,35.11 C 18.13,35.03 18.26,34.92 18.27,34.82 V 34.8 A 0.05,0.05 0 0,0 18.22,34.77 L 18.2,34.78 L 17.98,34.93 A 0.46,0.46 0 0,1 17.78,34.99 L 17.69,35 A 0.07,0.07 0 0,0 17.65,35.04 A 1,1 0 0,1 17.32,35.4 C 17.22,35.46 17.14,35.55 17.04,35.65 C 16.88,35.83 16.71,36.01 16.51,36.04 L 16.39,36.08 C 16.3,36.13 16.2,36.18 16.15,36.14 C 15.95,35.97 15.93,35.62 15.92,35.38 C 15.9,35.05 16.02,34.58 16.23,34.34 L 16.67,33.84 C 16.85,33.64 17.51,33.3 17.77,33.33 C 17.93,33.34 18.1,33.38 18.24,33.5 C 18.6,33.82 18.61,33.82 18.69,33.85 Z M 17.93,33.59 L 17.91,33.78 C 17.91,33.87 17.81,33.88 17.74,33.88 L 17.71,33.89 A 0.11,0.11 0 0,1 17.59,33.81 V 33.75 L 17.62,33.61 L 17.67,33.55 L 17.75,33.49 C 17.83,33.44 17.94,33.5 17.93,33.59 Z M 17.23,34.09 L 17.13,33.89 A 0.1,0.1 0 0,0 16.97,33.87 A 0.1,0.1 0 0,0 16.95,33.93 L 16.92,34.13 C 16.92,34.22 17.04,34.29 17.12,34.25 H 17.13 C 17.17,34.22 17.21,34.21 17.23,34.16 A 0.1,0.1 0 0,0 17.23,34.09 Z M 16.47,34.81 A 0.06,0.06 0 0,1 16.42,34.82 C 16.35,34.82 16.31,34.69 16.31,34.64 C 16.31,34.59 16.33,34.54 16.36,34.51 C 16.46,34.43 16.58,34.48 16.65,34.55 C 16.67,34.58 16.68,34.62 16.65,34.65 L 16.47,34.81 Z M 16.43,35.35 L 16.15,35.11 C 16.13,35.09 16.11,35.11 16.12,35.12 V 35.17 C 16.14,35.29 16.19,35.57 16.22,35.57 L 16.41,35.49 C 16.43,35.49 16.43,35.43 16.44,35.39 V 35.35 Z" fill="rgb(136, 175, 156)" fill-rule="evenodd"/>
<path d="M 18.99,36.545 V 36.41 A 1.34,1.34 0 0,0 18.91,36.31 L 18.88,36.28 C 18.75,36.08 18.52,35.92 18.31,35.76 L 18.02,35.53 A 1.32,1.32 0 0,0 17.75,35.34 H 17.71 L 17.05,35.92 L 17.01,35.96 C 16.88,36.09 16.63,36.34 16.47,36.34 C 16.39,36.34 16.34,36.38 16.34,36.45 C 16.34,36.55 16.53,36.65 16.59,36.7 C 16.67,36.75 16.73,36.76 16.77,36.74 L 16.97,36.63 C 17.02,36.61 17.1,36.63 17.13,36.65 C 17.15,36.68 17.15,36.71 17.13,36.77 L 17.11,36.79 C 17.08,36.84 17.02,36.95 17.07,36.98 C 17.17,37.03 17.31,37.08 17.5,37.13 C 17.58,37.15 17.64,37.15 17.68,37.11 C 17.73,37.07 17.74,36.98 17.75,36.91 A 0.8,0.8 0 0,1 17.75,36.83 L 17.77,36.8 A 0.08,0.08 0 0,1 17.87,36.77 C 17.97,36.81 18.02,36.92 18.06,36.99 L 18.08,37.04 L 18.12,37.07 C 18.24,37.11 18.34,37.09 18.42,37 A 0.07,0.07 0 0,0 18.45,36.95 V 36.64 A 0.05,0.05 0 0,1 18.5,36.62 H 18.53 C 18.6,36.68 18.65,36.75 18.68,36.84 C 18.68,36.86 18.7,36.87 18.72,36.88 C 18.78,36.88 18.82,36.86 18.84,36.8 C 18.87,36.7 18.93,36.61 19,36.56 Z M 19,38.21 V 38.01 H 18.82 L 18.48,38 A 8.23,8.23 0 0,0 17.25,37.96 L 16.25,37.92 C 16.09,37.92 15.92,37.92 15.75,37.94 L 15.25,37.97 C 15.21,37.97 15.2,38.01 15.22,38.04 H 15.24 L 15.57,38.17 C 15.84,38.17 16.11,38.19 16.37,38.21 L 17.21,38.27 C 17.64,38.27 18.06,38.27 18.49,38.24 L 19,38.21 Z M 13.8,37.38 H 13.77 A 0.64,0.64 0 0,1 13.74,37.13 C 13.76,36.88 13.77,36.65 13.76,36.43 C 13.74,35.88 13.74,35.33 13.75,34.77 A 77.85,77.85 0 0,0 13.76,33.67 V 33.09 C 13.74,32.77 13.88,32.73 14.18,32.74 C 14.41,32.74 14.56,32.64 14.66,32.58 C 14.83,32.47 14.87,32.44 14.91,32.99 C 14.98,33.96 14.97,34.93 14.96,35.9 V 37.35 C 14.96,37.4 14.86,37.43 14.86,37.37 L 14.83,36.43 L 14.84,35.5 C 14.84,35.23 14.84,34.97 14.82,34.71 C 14.8,34.31 14.78,33.91 14.82,33.4 A 1.99,1.99 0 0,1 14.81,33.05 A 0.06,0.06 0 0,0 14.76,32.99 C 14.56,32.98 14.31,33.01 14.15,33.15 L 13.98,33.27 C 13.93,33.3 13.92,33.39 13.91,33.44 A 75.65,75.65 0 0,0 13.89,35.79 L 13.87,36.32 C 13.87,36.52 13.84,36.87 13.79,37.38 Z M 12.82,36.67 C 12.81,36.71 12.82,36.75 12.83,36.79 A 11.39,11.39 0 0,1 12.68,36.67 C 12.73,36.69 12.73,36.4 12.73,36.3 V 36.27 C 12.74,36.09 12.73,35.92 12.7,35.75 A 6.27,6.27 0 0,1 12.67,35.49 L 12.68,35.18 C 12.74,34.85 12.78,34.54 12.79,34.23 C 12.79,34.17 12.82,34.14 12.86,34.14 C 12.91,34.14 12.95,34.17 12.96,34.22 L 12.99,34.47 C 13.06,34.91 13.14,35.42 13.03,35.81 A 7.5,7.5 0 0,0 12.93,36.24 L 12.82,36.67 Z M 16.7,26.2 C 16.68,26.38 16.7,26.56 16.75,26.74 A 0.06,0.06 0 0,0 16.81,26.78 C 17.11,26.75 17.31,26.74 17.41,26.75 C 17.82,26.76 17.91,27.31 17.96,27.65 C 17.97,27.77 18.01,27.82 18.12,27.84 L 18.39,27.86 C 18.47,27.86 18.52,27.82 18.54,27.75 C 18.55,27.69 18.56,27.65 18.55,27.61 C 18.53,27.21 18.52,26.77 18.52,26.31 A 0.14,0.14 0 0,0 18.39,26.16 A 15.74,15.74 0 0,0 16.82,26.13 C 16.78,26.13 16.7,26.14 16.69,26.19 Z M 14.96,27.4 C 15.16,27.7 15.86,27.8 16.2,27.77 C 16.37,27.76 16.41,27.57 16.41,27.42 L 16.42,26.23 A 0.06,0.06 0 0,0 16.35,26.17 A 20.61,20.61 0 0,1 14.91,26.46 A 0.07,0.07 0 0,0 14.86,26.53 L 14.92,27.27 C 14.92,27.32 14.94,27.37 14.96,27.41 Z M 15.3,27.9 A 0.12,0.12 0 0,0 15.18,27.78 H 15.01 A 0.12,0.12 0 0,0 14.9,27.9 V 30.85 C 14.9,30.91 14.95,30.97 15.01,30.97 H 15.18 C 15.25,30.97 15.3,30.91 15.3,30.85 V 27.9 Z M 16.28,28.12 A 0.1,0.1 0 0,0 16.2,28.03 C 16.05,28.01 15.9,28.01 15.76,28.04 A 0.12,0.12 0 0,0 15.66,28.14 C 15.65,28.31 15.64,28.48 15.66,28.66 V 28.99 C 15.66,29.06 15.71,29.11 15.78,29.11 C 15.94,29.08 16.06,29.01 16.13,28.89 C 16.24,28.69 16.3,28.36 16.28,28.12 Z M 18.4,28.04 L 18.13,28.1 C 18.08,28.1 18.06,28.16 18.07,28.2 C 18.1,28.33 18.23,28.88 18.43,28.83 H 18.45 C 18.59,28.8 18.55,28.49 18.55,28.38 V 28.37 L 18.5,28.11 C 18.5,28.06 18.45,28.02 18.4,28.04 Z M 18.44,29.13 H 17.44 A 0.08,0.08 0 0,0 17.37,29.21 C 17.37,29.26 17.38,29.31 17.45,29.31 H 18.45 C 18.55,29.31 18.55,29.13 18.45,29.13 Z M 15.76,29.44 A 0.04,0.04 0 0,0 15.71,29.48 C 15.69,29.87 15.69,30.25 15.7,30.62 V 30.66 C 15.7,30.8 15.7,30.96 15.9,30.98 C 16.04,30.99 16.18,30.98 16.31,30.97 C 16.37,30.96 16.41,30.91 16.41,30.85 C 16.41,30.43 16.4,30.05 16.38,29.71 C 16.38,29.41 16.3,29.41 16.02,29.43 H 15.76 Z M 17.06,29.2 A 0.85,0.85 0 0,0 16.72,29.16 C 16.67,29.16 16.66,29.19 16.68,29.25 C 16.71,29.31 16.78,29.35 16.86,29.34 A 0.91,0.91 0 0,0 17.06,29.24 C 17.08,29.22 17.08,29.2 17.06,29.19 Z M 18.53,29.6 A 0.07,0.07 0 0,0 18.47,29.53 L 17.64,29.54 A 0.07,0.07 0 0,0 17.58,29.61 L 17.6,30.94 C 17.6,30.98 17.63,31.01 17.67,31.01 L 18.49,30.99 C 18.53,30.99 18.56,30.96 18.56,30.93 L 18.53,29.59 Z M 17.2,29.66 A 0.12,0.12 0 0,0 17.08,29.54 H 16.82 A 0.12,0.12 0 0,0 16.7,29.67 L 16.73,30.87 C 16.73,30.93 16.78,30.98 16.85,30.98 H 17.11 C 17.18,30.98 17.23,30.92 17.23,30.85 L 17.21,29.66 Z M 51,24.53 C 50.72,24.53 50.39,24.91 50,25.67 L 48.46,28.78 V 30.68 C 48.46,31.04 48.49,31.26 48.56,31.34 C 48.63,31.42 48.84,31.47 49.18,31.48 V 32 H 46 V 31.48 C 46.5,31.48 46.78,31.15 46.78,30.48 V 28.82 L 44.94,25.41 C 44.64,24.83 44.32,24.54 44,24.53 V 24.01 H 47.17 V 24.53 C 46.81,24.53 46.63,24.61 46.63,24.78 C 46.63,24.92 46.7,25.15 46.85,25.48 L 47.99,28.02 L 48.72,26.41 A 7.7,7.7 0 0,0 49.3,24.89 C 49.3,24.67 49.08,24.55 48.65,24.53 V 24 L 51,24.01 V 24.53 Z M 44,32 H 38.27 V 31.48 C 38.76,31.48 39,31.15 39,30.48 V 25.34 C 39,24.98 38.97,24.77 38.9,24.69 C 38.83,24.61 38.62,24.56 38.28,24.54 V 24.02 L 43.9,24 L 44,26 H 43.49 C 43.43,25.08 42.7,24.78 41.88,24.78 L 40.49,24.82 V 27.53 H 40.99 C 41.91,27.53 42.32,27.46 42.45,27.32 C 42.51,27.25 42.54,27.17 42.54,27 H 43 V 28.87 H 42.55 C 42.55,28.69 42.52,28.57 42.45,28.5 C 42.34,28.35 41.92,28.28 41.01,28.28 H 40.5 V 30.46 C 40.5,30.99 40.66,31.29 41.23,31.29 C 42.51,31.29 43.37,31.25 43.5,29.78 H 44 V 32 Z M 37.5,32 H 31.74 V 31.48 C 32.24,31.48 32.5,31.15 32.5,30.48 V 25.33 C 32.5,24.96 32.46,24.73 32.4,24.66 C 32.33,24.58 32.12,24.53 31.75,24.52 V 24 H 34.76 V 24.52 C 34.26,24.52 34,24.85 34,25.52 V 30.45 C 34,30.76 34.04,30.97 34.13,31.08 C 34.23,31.22 34.44,31.28 34.76,31.28 C 35.29,31.28 35.66,31.26 35.91,31.21 C 36.41,31.13 36.71,30.95 36.84,30.67 C 36.9,30.53 36.94,30.23 36.99,29.78 H 37.5 V 32 Z M 30.7,24.52 C 30.23,24.52 30,24.85 30,25.52 V 30.68 C 30,31.04 30.03,31.26 30.1,31.34 C 30.16,31.42 30.36,31.47 30.69,31.48 V 32 H 27.79 V 31.48 C 28.27,31.48 28.49,31.15 28.49,30.48 V 25.32 C 28.49,24.96 28.47,24.75 28.4,24.67 C 28.34,24.58 28.14,24.53 27.8,24.52 V 24 H 30.7 V 24.52 Z M 26.63,32 C 25.69,31.97 24.98,31.97 24.51,32 L 22,27.68 L 23.8,25.57 C 24.11,25.19 24.27,24.94 24.27,24.8 C 24.27,24.6 24.07,24.5 23.67,24.5 L 23.68,24 H 26.45 V 24.52 C 26.15,24.52 25.63,24.88 24.89,25.58 C 24.37,26.08 23.91,26.56 23.51,27.05 L 25.66,30.49 L 26.04,31.12 C 26.19,31.31 26.38,31.42 26.63,31.48 V 32 Z M 22.73,24.52 C 22.24,24.52 22,24.85 22,25.52 V 30.68 C 22,31.04 22.03,31.26 22.1,31.34 C 22.17,31.42 22.37,31.47 22.71,31.48 V 32 H 19.78 V 31.48 C 20.26,31.48 20.5,31.15 20.5,30.48 V 25.32 C 20.5,24.96 20.47,24.75 20.4,24.67 C 20.33,24.58 20.13,24.53 19.79,24.52 V 24 H 22.72 V 24.52 Z" fill="rgb(136, 175, 156)"/>
</svg>
