<?xml version="1.0" encoding="UTF-8"?>
<!-- generated by Finnhub -->
<svg viewBox="0 0 55.5 55.5" xmlns="http://www.w3.org/2000/svg">
<path d="M 0,0 H 55.5 V 55.5 H 0 Z" fill="rgb(239, 242, 248)"/>
<path d="M 36.160000000000004,17.564999999999998 C 36.07,17.5 35.92,17.38 35.76,17.23 C 35.18,16.7 34.26,15.88 33.06,15.73 C 31.85,15.58 30.12,16.01 29.22,16.23 C 28.98,16.3 28.79,16.35 28.7,16.36 C 28.4,16.41 27.87,16.34 27.6,16.3 L 27.41,16.28 C 27.41,16.3 28.57,16.72 29.51,16.9 C 29.97,17 30.18,17 30.55,17 C 30.92,16.99 31.45,16.98 32.55,17.08 C 34.07,17.2 35.01,17.58 35.65,17.83 C 35.95,17.94 36.17,18.03 36.36,18.07 C 36.98,18.17 37.4,18.17 37.4,18.1 C 37.4,18.07 37.3,18.04 37.15,18 C 36.89,17.92 36.48,17.8 36.17,17.58 Z M 33.09,15.19 L 32.96,15.11 C 32.43,14.77 31.36,14.09 30.28,14.45 A 9.6,9.6 0 0,0 28.66,15.23 C 28.32,15.42 28.04,15.58 27.8,15.65 C 27.25,15.8 26.2,15.81 26.2,15.81 S 27.17,16.18 28.32,16 C 28.74,15.93 29.18,15.8 29.64,15.67 C 30.41,15.44 31.2,15.2 31.91,15.28 C 32.64,15.37 32.85,15.42 32.99,15.45 L 33.21,15.49 C 33.51,15.52 33.71,15.51 33.71,15.45 C 33.71,15.43 33.69,15.43 33.64,15.42 C 33.56,15.41 33.39,15.38 33.09,15.19 Z M 28.67,14 C 28.17,13.98 27.67,14.37 27.17,14.75 C 26.99,14.89 26.82,15.03 26.64,15.15 C 26.04,15.55 25.04,15.63 24.9,15.64 C 25.05,15.64 26.2,15.64 27.01,15.45 C 27.63,15.32 28.28,14.91 28.75,14.61 C 28.95,14.49 29.12,14.38 29.25,14.32 C 29.52,14.19 29.82,14.21 29.99,14.22 L 30.11,14.21 C 30.11,14.14 29.36,14.03 28.67,14.01 Z M 26.64,19.17 L 26.47,18.57 C 26.22,18.25 25.91,18.12 25.57,17.97 C 25.44,17.93 25.32,17.87 25.19,17.81 L 25.12,17.66 H 25.62 A 0.41,0.41 0 0,0 25.56,17.4 A 4,4 0 0,1 24.27,17.25 C 23.69,17.42 23.38,17.7 23.04,18.1 C 23.14,18.12 23.23,18.1 23.32,18.1 C 23.4,18.09 23.49,18.08 23.58,18.1 C 24.6,18.2 25.34,18.69 26.04,19.3 L 26.08,19.16 C 25.94,18.84 25.66,18.57 25.39,18.32 L 25.09,18.02 C 25.79,18.35 26.13,18.68 26.59,19.12 L 26.64,19.17 Z M 24.87,20.36 C 24.93,20.26 24.95,20.15 24.97,20.03 C 24.99,19.84 24.97,19.67 24.97,19.67 A 0.94,0.94 0 0,1 24.93,19.63 C 24.86,19.57 24.79,19.5 24.7,19.56 C 24.7,19.71 24.7,19.87 24.66,20.03 C 24.61,20.27 24.51,20.5 24.36,20.67 L 24.44,20.75 C 24.63,20.79 24.75,20.57 24.86,20.38 L 24.87,20.36 Z M 15.1,22.78 C 15.3,23.11 15.66,23.33 16.05,23.2 H 16.08 C 16.28,23.13 16.52,23.06 16.48,22.87 C 16.42,22.82 16.4,22.83 16.37,22.85 A 0.32,0.32 0 0,1 16.28,22.89 C 15.93,22.97 15.54,22.86 15.38,22.6 A 0.85,0.85 0 0,1 15.27,22.27 A 2,2 0 0,1 15.27,21.81 V 21.78 C 15.17,21.81 15.03,21.97 15,22.1 V 22.26 C 15,22.43 15,22.61 15.1,22.78 Z M 33.29,27.03 L 34.04,27.29 A 76.56,76.56 0 0,0 43.57,29.75 C 44.26,29.89 44.67,29.97 44.67,29.99 C 44.64,30.08 37.9,29.46 31.67,27.29 A 33.5,33.5 0 0,1 29.54,26.49 L 28.8,26.89 C 28.66,26.87 28.64,26.79 28.62,26.7 C 28.6,26.65 28.59,26.6 28.53,26.56 C 27.95,26.12 27.25,25.86 26.54,25.61 L 26.19,25.48 C 26.09,25.48 26.07,25.55 26.04,25.61 C 26.01,25.68 25.99,25.74 25.88,25.75 C 24.72,25.58 23.61,25.98 22.54,26.37 C 22.15,26.51 21.77,26.65 21.39,26.77 C 21.47,26.42 21.17,26.27 20.9,26.14 A 1.33,1.33 0 0,1 20.58,25.94 A 6.65,6.65 0 0,1 18.16,23.83 C 18.06,23.67 17.94,23.53 17.82,23.38 C 17.57,23.08 17.28,22.8 16.84,22.56 A 0.93,0.93 0 0,1 15.91,22.71 A 0.75,0.75 0 0,1 15.49,22.27 A 1.78,1.78 0 0,1 15.41,22.04 C 15.31,21.71 15.42,21.42 15.58,21.15 H 15.94 L 15.9,21.23 C 15.72,21.56 15.51,21.96 15.87,22.27 L 16.01,22.37 C 16.16,22.45 16.19,22.41 16.23,22.35 C 16.25,22.32 16.27,22.29 16.31,22.27 A 1.07,1.07 0 0,1 16.13,21.72 C 16.07,21.62 16.09,21.47 16.11,21.34 C 16.12,21.27 16.13,21.2 16.12,21.14 C 16.12,21.08 16.08,21.05 15.98,21.07 L 15.94,21.15 H 15.58 C 15.62,21.07 15.66,21 15.72,20.93 C 15.82,20.77 15.97,20.77 16.12,20.77 C 16.29,20.77 16.44,20.77 16.5,20.52 C 16.88,20.37 17.38,20.24 18.03,20.53 A 5.3,5.3 0 0,1 19.47,21.44 A 0.49,0.49 0 0,1 19.63,21.14 L 19.77,21.04 L 19.87,20.97 L 19.84,20.87 C 19.78,20.69 19.71,20.47 19.92,20.32 C 20.02,20.16 20.17,20.09 20.33,20.03 L 20.47,19.99 C 20.65,19.94 20.84,19.89 20.99,19.74 C 21.49,19.5 21.95,19.74 22.41,19.99 L 22.49,20.03 C 22.7,20.14 22.92,20.25 23.14,20.31 C 23.16,20.21 23.17,20.11 23.15,20.03 A 1.1,1.1 0 0,0 22.87,19.51 A 1.45,1.45 0 0,0 22.27,19.17 C 22.04,19.09 21.82,19.01 21.68,18.84 C 21.6,18.54 21.51,18.29 21.32,18.07 L 21.35,17.93 C 21.65,17.99 21.75,18.27 21.83,18.54 L 21.91,18.74 C 21.93,18.74 21.97,18.74 22.01,18.76 C 22.05,18.77 22.09,18.79 22.11,18.74 C 21.99,18.34 21.81,17.88 21.56,17.64 L 21.6,17.47 L 23.43,16.8 C 23.56,16.22 24.03,15.89 24.59,15.63 C 24.98,15.41 25.24,15.11 25.49,14.84 C 25.73,14.57 25.95,14.32 26.25,14.22 C 26.61,14.11 27.45,14.09 27.45,14.13 C 27.45,14.15 27.34,14.23 27.17,14.35 C 26.92,14.53 26.55,14.79 26.32,15.02 C 25.98,15.35 24.84,15.64 24.84,15.64 S 24.01,15.79 23.71,16.67 C 23.91,16.68 24.12,16.61 24.33,16.53 C 24.48,16.47 24.63,16.42 24.77,16.39 L 26.02,17.21 L 26,17.31 C 25.34,16.91 24.4,16.67 23.7,16.95 C 23.31,17.07 22.95,17.23 22.58,17.38 L 22.12,17.57 L 22.26,17.63 C 22.39,17.68 22.54,17.74 22.56,17.85 L 22.14,18.14 C 22.24,18.58 22.41,18.94 22.86,19.13 L 23.69,18.73 L 23.89,18.98 C 24.13,19.28 24.39,19.61 24.29,20.03 L 23.98,20.76 C 24.14,20.81 24.28,20.91 24.41,21.01 L 24.59,21.15 C 24.75,21.25 24.92,21.31 25.11,21.22 C 25.55,21.27 25.89,21.52 26.13,21.8 L 26.18,21.77 L 25.94,21.29 L 25.88,21.15 L 25.43,20.18 L 25.36,20.03 A 9.9,9.9 0 0,1 25.28,19.85 A 7.72,7.72 0 0,1 26.87,21.15 C 27.21,21.5 27.53,21.88 27.83,22.27 L 27.86,22.31 L 27.89,22.35 L 27.87,22.31 L 27.86,22.27 C 27.76,21.96 27.66,21.56 27.56,21.15 A 33.9,33.9 0 0,1 27.18,19.1 C 27.33,19.38 27.47,19.7 27.61,20.01 V 20.03 L 27.71,20.23 L 28.11,21.15 A 5.9,5.9 0 0,0 29.16,22.65 C 29.23,22.74 29.32,22.8 29.4,22.85 C 29.54,22.95 29.67,23.05 29.72,23.23 L 28.99,22.97 C 28.13,22.65 27.22,22.31 26.26,22.3 A 1.42,1.42 0 0,1 26.13,22.27 C 25.9,22.19 25.7,22.05 25.49,21.91 A 2.88,2.88 0 0,0 24.89,21.56 C 24.59,21.43 24.32,21.29 24.03,21.15 C 23.64,20.95 23.26,20.72 22.88,20.51 L 22.04,20.03 L 21.79,19.9 H 21.75 C 21.55,19.9 21.35,19.91 21.27,20.03 C 21.37,20.21 21.53,20.38 21.69,20.54 C 21.76,20.62 21.84,20.69 21.89,20.76 C 21.71,20.76 21.5,20.62 21.3,20.47 C 20.92,20.21 20.54,19.95 20.22,20.52 C 20.07,20.72 20.28,20.91 20.5,21.05 A 0.6,0.6 0 0,0 20.73,21.15 L 20.94,21.18 C 21.09,21.2 21.23,21.22 21.34,21.31 L 21.22,21.38 L 20.88,21.32 C 20.46,21.25 19.99,21.16 19.78,21.56 C 19.68,21.86 19.84,22.06 20.04,22.26 L 20.2,22.42 L 20.35,22.57 C 20.55,22.6 20.64,22.62 20.76,22.51 C 20.61,22.48 20.39,22.41 20.29,22.27 A 0.34,0.34 0 0,1 20.24,22.17 A 8.86,8.86 0 0,1 22.49,22.77 L 22.35,22.27 C 22.65,22.67 23,23.04 23.39,23.39 A 10.69,10.69 0 0,0 25.81,24.98 L 26.51,25.27 C 27.37,25.61 28.26,25.97 28.91,26.53 C 30.08,25.93 31.39,25.54 32.77,25.35 C 32.77,25.38 32.77,25.77 32.57,25.82 C 32.79,26.02 32.82,26.21 32.85,26.39 C 32.89,26.61 32.93,26.83 33.29,27.03 Z M 26.43,21.15 C 26.26,20.94 26.08,20.75 25.91,20.61 L 26.11,20.97 L 26.21,21.15 L 26.31,21.32 C 26.44,21.59 26.59,21.85 26.71,22.06 L 27.23,22.21 L 26.91,21.79 C 26.76,21.59 26.6,21.36 26.43,21.15 Z M 23.46,20 L 23.47,20.03 C 23.49,20.09 23.47,20.18 23.45,20.27 C 23.42,20.44 23.38,20.62 23.68,20.56 L 23.65,20.39 C 23.63,20.26 23.62,20.13 23.5,20.03 L 23.46,20 Z M 21.4,22.59 L 21.08,22.52 A 0.47,0.47 0 0,1 20.82,22.71 C 21.11,22.88 21.21,22.84 21.36,22.77 C 21.44,22.74 21.53,22.7 21.66,22.67 A 0.78,0.78 0 0,0 21.4,22.59 Z M 16.5,21.42 C 16.44,21.68 16.52,21.98 16.81,21.99 C 16.98,21.99 17.04,21.88 17.1,21.76 A 0.55,0.55 0 0,1 17.2,21.6 C 17.22,21.6 17.24,21.58 17.25,21.57 C 17.47,21.43 17.75,21.25 18.03,21.44 C 18.03,21.54 17.96,21.54 17.88,21.53 H 17.76 A 16.81,16.81 0 0,1 20.36,22.88 L 19.68,22.27 C 19.46,22.06 19.34,21.92 19.21,21.79 C 19.11,21.67 19.01,21.56 18.84,21.41 L 18.52,21.15 A 2.25,2.25 0 0,0 17.27,20.65 C 16.85,20.59 16.64,20.82 16.55,21.15 L 16.5,21.42 Z M 21.42,25.57 C 21.24,25.7 22.41,25.53 23.02,25.27 C 23.22,25.2 23.35,25.11 23.48,25.01 C 23.71,24.85 23.96,24.67 24.56,24.65 L 24.34,24.5 C 23.74,24.07 23.07,23.55 23.07,23.55 C 22.97,23.85 22.92,24 22.57,24.15 C 22.3,24.25 22.06,24.25 21.81,24.15 C 22.02,24.13 22.13,24.07 22.17,23.9 L 22.02,23.95 C 21.9,24 21.8,24.04 21.37,23.97 A 10.47,10.47 0 0,1 19.94,23.18 C 19.41,22.88 18.83,22.53 18.34,22.27 L 18.24,22.21 L 17.8,21.97 C 17.44,21.79 17.17,22.11 17.08,22.27 L 17.03,22.34 S 17.56,22.68 18.4,23.39 C 18.77,23.69 19.2,24.06 19.66,24.5 L 19.72,24.55 C 20.04,24.78 20.45,24.99 20.8,25.15 C 21.2,25.35 21.5,25.5 21.42,25.57 Z M 32.14,24.82 C 30.88,25.19 28.91,26.21 28.91,26.21 S 27.58,25.41 26.76,25.06 C 26.36,24.89 25.97,24.71 25.59,24.5 C 24.99,24.18 24.4,23.8 23.89,23.39 A 6.9,6.9 0 0,1 22.96,22.48 S 23.6,22.9 24.46,23.38 C 25.18,23.79 26.08,24.24 26.88,24.5 A 4.08,4.08 0 0,0 29.34,24.6 C 29.36,24.96 29.07,25.1 28.75,25.27 L 28.72,25.28 C 29.11,25.31 29.6,25.13 29.9,24.86 C 30,24.76 30.08,24.63 30.14,24.5 C 30.28,24.15 30.27,23.73 30.24,23.39 L 30.85,23.83 C 31.15,24.05 31.48,24.28 31.76,24.5 C 31.9,24.6 32.03,24.71 32.14,24.82 Z M 39.76,24.5 C 40.18,24.44 40.49,24.38 40.49,24.34 C 40.49,24.32 40.16,24.29 39.69,24.24 C 38.81,24.17 37.47,24.04 36.78,23.82 C 36.46,23.72 35.99,23.55 35.55,23.38 L 35.52,23.37 L 35.48,23.35 A 22.36,22.36 0 0,1 32.54,22 A 8.76,8.76 0 0,1 31.48,21.15 C 31.1,20.81 30.68,20.41 30.3,20.03 C 29.68,19.42 29.14,18.85 28.9,18.6 A 9.42,9.42 0 0,0 28.77,18.47 L 28.79,18.49 C 28.87,18.63 29.21,19.24 29.76,20.03 A 21.9,21.9 0 0,0 31.54,22.27 C 31.89,22.65 32.26,23.01 32.65,23.35 L 32.69,23.39 L 33.34,23.91 C 33.74,24.19 34.19,24.38 34.66,24.51 C 35.64,24.75 36.69,24.71 37.36,24.68 H 37.88 C 38.32,24.68 39.16,24.59 39.76,24.5 Z M 45,22.87 C 45,22.94 38.9,23.17 35.16,22.27 A 7.52,7.52 0 0,1 32.56,21.15 C 32.07,20.82 31.57,20.43 31.11,20.03 A 30.67,30.67 0 0,1 28.81,17.85 L 28.8,17.84 C 28.88,17.89 30.14,18.63 31.13,19.04 L 32.15,19.41 A 39.43,39.43 0 0,1 37.89,21.87 C 38.19,22.02 38.57,22.15 38.99,22.27 C 40.74,22.73 43.2,22.8 44.36,22.83 C 44.76,22.85 45,22.85 45,22.87 Z M 38.1,20.79 C 39.95,21.18 40.66,20.86 40.66,20.86 C 40.66,20.82 40.46,20.78 40.21,20.73 C 39.91,20.68 39.53,20.61 39.26,20.49 C 39.06,20.4 38.86,20.24 38.61,20.04 C 38.24,19.73 37.75,19.32 36.96,18.92 C 35.48,18.16 31.72,17.69 30.52,17.53 L 30.22,17.5 A 9.95,9.95 0 0,1 28.67,17.1 L 28.69,17.12 C 28.82,17.2 29.25,17.48 29.89,17.82 C 30.45,18.13 30.73,18.22 31.67,18.48 L 33.04,18.88 C 34.03,19.18 34.79,19.53 35.51,19.86 L 35.9,20.03 C 36.59,20.33 37.27,20.61 38.1,20.79 Z" fill="rgb(191, 152, 91)"/>
<path d="M 47.99,33.305 V 37 H 46.34 V 33.32 C 46.33,32.91 46.24,32.67 46.1,32.46 A 0.7,0.7 0 0,0 45.6,32.19 C 45.26,32.19 44.92,32.39 44.64,32.64 V 37 H 43 V 31.29 L 44.63,31 V 31.78 C 45.4,31.26 45.78,31.1 46.43,31.1 C 47.33,31.1 48,31.78 48,33.32 Z M 42.51,36.98 H 40.97 C 40.64,36.98 40.51,36.88 40.47,36.55 V 34.02 H 40.34 C 40.16,34.02 39.12,34.27 39.12,35.37 C 39.12,35.54 39.19,36 39.42,36.09 C 39.52,36.12 39.69,36.12 39.72,36.12 C 39.94,36.12 40.15,36.05 40.37,35.98 A 5,5 0 0,0 40.27,36.73 C 39.97,36.83 39.72,36.95 39.42,36.98 L 39.1,37 C 38.59,37 38.07,36.82 37.76,36.4 A 1.5,1.5 0 0,1 37.5,35.5 C 37.5,33.6 40.47,33.32 40.47,33.32 V 32.82 C 40.47,32.62 40.42,31.85 39.52,31.85 C 39.02,31.85 38.16,32.06 37.91,32.17 L 38,31.42 C 38.18,31.35 39,31.08 39.3,31.04 C 40.74,30.84 41.48,31.44 41.71,31.78 C 41.92,32.08 42,32.58 42,32.96 V 36.22 C 42,36.33 42.08,36.45 42.12,36.55 C 42.2,36.76 42.34,36.95 42.52,36.98 Z M 37,33.6 C 37,34.6 36.67,35.9 36.03,36.45 C 35.69,36.75 35.27,36.94 34.77,36.98 L 34.47,37 C 34.25,37 34.05,36.95 33.75,36.85 L 33.67,36.45 L 33.62,36.17 C 33.82,36.27 34.02,36.33 34.22,36.33 C 34.96,36.33 35.39,35.63 35.39,34.19 C 35.39,34.02 35.37,33.39 35.32,33.13 C 35.25,32.71 35.09,32.27 34.82,32.09 A 1.06,1.06 0 0,0 34.38,31.93 C 34.12,31.93 33.78,32.03 33.52,32.23 V 39 H 32 V 31.25 L 33.53,31 V 31.5 C 33.91,31.26 34.38,31.1 34.77,31.06 L 35.06,31.04 A 1.78,1.78 0 0,1 36.66,32.07 C 36.82,32.42 36.94,32.77 36.98,33.13 V 33.28 L 37,33.6 Z M 31.5,35.1 C 31.5,35.5 31.4,36.02 31,36.42 C 30.67,36.75 30.12,37 29.23,37 C 28.45,37 27.73,36.7 27.69,36.68 A 8.28,8.28 0 0,1 27.62,36.42 L 27.5,35.86 C 27.76,35.96 28.31,36.26 29.01,36.26 C 29.62,36.26 30.03,35.9 30.03,35.47 C 30.03,35.27 29.92,35.01 29.67,34.85 C 29.05,34.45 28.36,34.3 27.77,33.59 C 27.69,33.49 27.64,33.36 27.59,33.23 A 1.84,1.84 0 0,1 27.53,32.76 C 27.53,31.75 28.36,31 29.63,31 C 30.37,31 30.91,31.32 30.91,31.32 L 31.11,32.16 A 2.75,2.75 0 0,0 29.78,31.75 C 29.53,31.75 28.98,31.84 28.98,32.39 C 28.98,32.75 29.41,32.97 29.91,33.23 C 30.63,33.6 31.5,34.05 31.5,35.1 Z M 26.89,36.03 C 25.89,35.48 23.99,35.78 23.99,35.37 C 23.99,35.26 24.15,34.99 24.19,34.9 C 24.36,34.93 24.39,34.96 24.79,34.96 C 26.56,34.96 27,33.67 27,33.08 V 33.06 C 27,32.59 26.96,32.23 26.55,31.72 L 27.25,31.83 V 31 H 24.71 C 23.85,31 22.5,31.69 22.5,32.96 V 33.06 C 22.52,33.65 22.76,34.15 23.55,34.66 C 23.14,35.02 22.75,35.47 22.75,35.88 L 22.76,36.03 C 22.84,36.41 23.21,36.63 23.35,36.67 C 24.13,36.92 24.93,36.75 25.73,37.13 C 25.92,37.23 26.07,37.36 26.1,37.51 V 37.57 C 26.1,38.12 25.13,38.3 24.67,38.3 L 24.4,38.29 A 6.7,6.7 0 0,1 22.8,37.95 L 23,38.7 C 23.46,38.85 23.8,38.93 24.37,38.98 L 24.91,39 C 25.8,39 27.16,38.68 27.44,37.51 C 27.48,37.37 27.5,37.21 27.5,37.04 C 27.5,36.54 27.25,36.23 26.89,36.03 Z M 23.94,33.02 C 23.94,32.62 24.02,32.32 24.11,32.1 C 24.25,31.76 24.53,31.6 24.79,31.6 C 25.49,31.6 25.65,32.71 25.65,33.01 V 33.06 C 25.64,33.36 25.51,33.88 25.35,34.11 C 25.17,34.35 25.02,34.37 24.82,34.37 C 24.14,34.37 23.95,33.47 23.94,33.06 V 33.02 Z M 22,33.32 V 37 H 20.35 V 33.5 L 20.34,33.32 C 20.31,33.01 20.24,32.66 20.1,32.46 A 0.71,0.71 0 0,0 19.6,32.19 C 19.26,32.19 18.92,32.38 18.64,32.63 V 37 H 17 V 31.29 L 18.64,31 V 31.78 C 19.39,31.26 19.78,31.1 20.44,31.1 C 21.34,31.1 22,31.78 22,33.32 Z M 16,29.25 C 16,29.55 15.75,30 15.25,30 A 0.74,0.74 0 0,1 14.5,29.26 C 14.5,28.85 14.78,28.5 15.26,28.5 C 15.7,28.5 16,28.89 16,29.25 Z M 16,31 V 37 H 14.5 V 31.29 L 16,31 Z M 8,29 H 9.54 V 37 H 8 V 29 Z M 12.03,37 H 14 L 13.71,36.55 L 11.61,33.33 L 11.11,32.55 L 13.78,29 H 12.38 L 9.53,32.85 L 9.82,33.33 L 11.76,36.55 L 12.02,37 Z" fill="rgb(1, 65, 134)"/>
</svg>
