<?xml version="1.0" encoding="UTF-8"?>
<!-- generated by Finnhub -->
<svg viewBox="0 0 55.5 55.5" xmlns="http://www.w3.org/2000/svg">
<path d="M 0,0 H 55.5 V 55.5 H 0 Z" fill="rgb(239, 242, 248)"/>
<path d="M 19.06,27.165 L 21.85,27.62 C 21.3,25.91 19.92,25.73 18.48,25.47 L 19.68,24.77 L 18.16,23.82 L 19.16,23.38 L 18,21.92 L 19.59,22.52 L 19.92,20.56 L 22.15,24.06 L 22.71,23.16 L 21.73,21.84 L 21.8,21.74 L 23.54,22.68 C 23.38,21.71 23.07,20.94 22.18,20.51 C 21.81,20.32 21.46,20.09 21.15,19.81 C 20.56,19.34 20.51,18.87 20.97,18.21 L 21.8,18.35 L 21.23,16.91 L 21.43,16.69 L 25.07,18.45 C 24.98,17.34 23.91,17.08 23.4,16.36 L 24.64,15.93 L 23.8,14.73 L 23.77,14.71 L 25.43,15.21 L 24.93,12.9 L 25.01,12.86 L 26.33,14.96 L 26.64,13.86 L 25.48,12.14 L 25.58,11.99 L 26.38,12.14 L 25.98,10.86 L 27.08,11.39 L 27.6,9.01 L 27.89,9 L 28.26,11.4 L 29.29,11.5 L 28.73,12.47 C 29.93,13.35 29.79,14.72 29.91,16.07 L 30.62,16.57 L 32.9,15.14 L 32.72,15.96 L 34.6,14.7 L 33.72,16.4 L 35.03,16.79 L 34.22,17.53 L 34.69,18.13 L 33.49,18.79 L 34.79,19.37 A 4.86,4.86 0 0,0 32.95,21.64 C 32.71,22.18 32,22.53 31.33,23.12 C 32.02,23.11 32.71,23.02 33.38,22.85 C 33.98,22.53 34.54,22.15 35.06,21.71 C 35.71,23.15 34.33,23.96 34.18,25.2 L 36.86,24.81 L 36.9,24.93 L 34.2,26.44 C 35.64,27.34 36.5,26.26 37.53,25.58 L 37.33,27 L 39.9,26.79 L 40,26.96 C 39.25,27.44 38.52,27.96 37.74,28.37 C 36.94,28.79 36.09,29.09 35.29,29.6 H 37.23 C 36.91,30.74 36.01,31.05 35.18,31.1 C 34.37,31.16 33.54,30.84 32.61,30.67 L 33.46,32.67 L 30.36,32.03 L 30.48,33.53 H 28.44 C 28.3,34.03 28.21,34.55 28.17,35.07 C 28.22,36.74 28.36,38.4 28.4,40.06 C 28.45,41.5 28.41,42.96 28.41,44.42 L 26.14,45 C 27.19,40.86 27,37.14 27,33 H 22.1 L 22.9,31.5 L 20.24,31.67 L 20.2,31.57 L 21.42,30.87 L 21.45,30.67 C 19.93,30.84 18.69,30.53 18.19,28.94 L 18.21,28.95 L 19.11,29.04 L 18.08,26.88 L 18.05,26.86 L 19.48,27.65 L 19.5,27.67 H 19.46 L 19.09,27.15 L 19.07,27.18 Z" fill="rgb(191, 1, 2)"/>
</svg>
