<!-- by Finnhub --><svg width="56" height="56" viewBox="0 0 56 56" xmlns="http://www.w3.org/2000/svg"><path fill="#F0F3FA" d="M0 0h56v56H0z"/><path fill-rule="evenodd" d="M37.5 17a3.5 3.5 0 1 0 0-7 3.5 3.5 0 0 0 0 7Zm-16 17h-6.4c-.05 0-.1-.23-.1-.28v-6.55c0-.06.05-.17.1-.17h6.45c.08 0 .13-.03.09-.1l-3.2-5.5a.1.1 0 0 1 .04-.15l5.56-3.18a.1.1 0 0 1 .14.03l3.26 5.53a.1.1 0 0 0 .14.04.1.1 0 0 0 .04-.04l3.18-5.58a.1.1 0 0 1 .1-.05.1.1 0 0 1 .04.01l5.61 3.17a.1.1 0 0 1 .04.14l-3.18 5.55c-.04.07.01.13.09.13h6.4c.05 0 .1.05.1.1v6.76c0 .06-.05.14-.1.14h-6.33c-.08 0-.13 0-.09.08l3.17 5.48a.1.1 0 0 1-.04.14l-5.62 3.27a.1.1 0 0 1-.08.01.1.1 0 0 1-.06-.05l-3.25-5.6a.1.1 0 0 0-.09-.05.1.1 0 0 0-.09.06l-3.25 5.6a.1.1 0 0 1-.06.06.1.1 0 0 1-.08-.02l-5.64-3.3a.1.1 0 0 1-.03-.14l3.15-5.37c.04-.07.08-.17 0-.17Zm9.5-3.5a3.5 3.5 0 1 1-7 0 3.5 3.5 0 0 1 7 0Z" fill="#0477BF"/></svg>