<?xml version="1.0" encoding="UTF-8"?>
<!-- generated by Finnhub -->
<svg viewBox="0 0 55.5 55.5" xmlns="http://www.w3.org/2000/svg">
<path d="M 0,0 H 55.5 V 55.5 H 0 Z" fill="url(#a)"/>
<path d="M 5.49,22.985 C 5.554,23.09 5.658,23.268 6,23.268 V 27 C 5.964,29.135 6,31.359 6,31.545 C 5.93,31.662 5.705,31.883 5.589,31.883 C 5.46,31.883 5.355,31.93 5.355,32 H 11.581 L 11.709,31.359 C 11.884,30.484 11.814,30.169 11.557,30.752 C 11.289,31.382 10.96,31.359 9.06,31.359 H 7 V 23.268 C 7.451,23.222 7.5,23 7.5,23 H 5.5 Z M 14.87,27.503 C 14.146,29.416 13.435,31.359 13.307,31.51 C 13.178,31.65 12.945,31.767 12.805,31.767 C 12.654,31.767 12.502,31.942 12.467,32 H 13.598 C 14.065,31.995 14.5,32 14.5,32 S 14.732,31.955 14.473,31.813 C 14.088,31.603 14.088,31.34 14.648,29.719 L 15.009,28.693 H 17.313 L 17.855,30.045 C 18.123,30.745 18.321,31.685 18.286,31.79 C 18.254,31.895 18.286,32 18.5,32 H 20.397 C 20.362,31.93 20.094,31.767 19.942,31.767 C 19.429,31.767 19.371,31.387 17.482,26.804 C 16.864,25.288 16.304,24.04 16.269,24.04 C 16.222,24.04 15.593,25.602 14.869,27.503 Z M 15.22,28 S 15.686,26.535 16,25.789 L 16.164,25.381 L 16.654,26.781 L 17,28 H 15.22 Z M 29.973,27.503 C 29.25,29.416 28.538,31.359 28.41,31.51 C 28.282,31.65 28.049,31.767 27.909,31.767 C 27.757,31.767 27.605,31.942 27.57,32 H 28.702 C 29.169,31.995 29.604,32 29.604,32 S 29.836,31.955 29.576,31.813 C 29.191,31.603 29.191,31.34 29.751,29.719 L 30.113,28.693 H 32.416 L 32.958,30.045 C 33.226,30.745 33.425,31.685 33.39,31.79 C 33.357,31.895 33.39,32 33.604,32 H 35.5 C 35.465,31.93 35.197,31.767 35.046,31.767 C 34.532,31.767 34.474,31.387 32.585,26.804 C 31.967,25.288 31.407,24.04 31.372,24.04 C 31.326,24.04 30.696,25.602 29.972,27.503 Z M 30.323,28 S 30.789,26.535 31.103,25.789 L 31.267,25.381 L 31.757,26.781 L 32.104,28 H 30.323 Z M 21.517,24.735 C 21.365,25.633 21.365,25.633 21.493,25.633 C 21.552,25.633 21.563,25.434 21.645,25.236 C 21.913,24.595 21.945,24.431 24.281,24.431 H 26.216 L 25.645,25.236 C 25.33,25.68 24.097,27.566 23,29 C 23,29 21.024,31.907 21,32 H 26.668 L 26.726,31.732 C 26.855,31.195 26.948,30.309 26.866,30.391 C 26.82,30.426 26.703,30.636 26.598,30.857 A 1.037,1.037 0 0,1 25.992,31.382 C 25.595,31.51 22.376,31.603 22.376,31.475 C 22.376,31.44 22.686,30.931 23,30.5 L 27.15,24 H 21.645 L 21.517,24.735 Z M 36,24 S 36.199,24.21 36.35,24.21 C 36.623,24.21 36.805,24.21 37,24.408 V 30.688 C 36.943,31.453 36.778,31.767 36.595,31.767 C 36.502,31.767 36.269,31.942 36.234,32 H 38.683 C 38.613,31.942 38.438,31.767 38.275,31.743 C 37.925,31.697 38,31.277 38,29.808 V 28.588 H 39.417 L 40.49,30.158 C 41.761,31.837 42.006,32 43.16,31.988 C 44.024,31.988 44.059,31.883 43.278,31.72 C 42.811,31.615 42.414,31.254 41.307,29.866 L 40.175,28.308 L 40.584,27.853 C 41.691,26.64 41.574,24.886 40.339,24.268 C 39.954,24.082 39.589,24 37.983,24 H 36 Z M 40.5,26 C 40.5,26.847 40.383,28.029 39,28 C 38.667,27.993 38,28 38,28 V 24.408 C 39.713,24.268 40.5,24.853 40.5,26 Z M 44.184,24 C 44.184,24.058 44.335,24.259 44.534,24.259 C 44.755,24.259 44.918,24.34 45,24.48 V 31.5 C 45,31.646 44.79,31.745 44.627,31.745 C 44.475,31.745 44.173,31.93 44.138,32 H 49 C 50.166,31.65 51.08,30.474 51.417,29.168 A 4.418,4.418 0 0,0 51.371,26.617 C 50.879,25.05 49.37,24 48.71,24 H 44.183 Z M 48.84,24.807 C 50.111,25.401 50.718,26.64 50.636,28.343 C 50.532,30.401 49.856,31.5 47.876,31.5 H 45.968 L 45.991,27.97 V 24.55 H 46.827 C 47.5,24.55 48.187,24.492 48.84,24.807 Z" fill="rgb(254, 254, 253)"/>
<defs>
<linearGradient id="a" x1="10.418" x2="68.147" y1="9.712" y2="76.017" gradientUnits="userSpaceOnUse">
<stop stop-color="rgb(25, 29, 31)" offset="0"/>
<stop stop-color="rgb(5, 5, 8)" offset="1"/>
</linearGradient>
</defs>
</svg>
