<?xml version="1.0" encoding="UTF-8"?>
<!-- generated by Finnhub -->
<svg viewBox="0 0 55.5 55.5" xmlns="http://www.w3.org/2000/svg">
<path d="M0 0h55.5v55.5H0z" fill="rgb(239, 242, 248)"/>
<path d="m17.57 30.76a6.52 6.52 0 0 0 0 9.35 6.84 6.84 0 0 0 9.53 0l-1.59-1.56a4.56 4.56 0 0 1-6.35 0 4.34 4.34 0 0 1 0-6.23l-1.6-1.56zm19.07-3.12 1.6 1.56a6.52 6.52 0 0 0 0-9.35 6.84 6.84 0 0 0-9.55 0l1.6 1.56a4.56 4.56 0 0 1 6.35 0 4.34 4.34 0 0 1 0 6.23z"/>
<path d="m22.33 19.85-7.15 7.01 3.97 3.9a3.42 3.42 0 0 0 4.77 0l7.16-7.01-3.98-3.9a3.42 3.42 0 0 0-4.77 0ZM12 26.86l5.56 5.46a5.7 5.7 0 0 0 7.95 0l8.75-8.57-5.57-5.45a5.7 5.7 0 0 0-7.95 0L12 26.86Z" fill="rgb(206, 121, 2)" fill-rule="evenodd"/>
<path d="m36.64 33.87-7.15 7.01L25.5 37a3.26 3.26 0 0 1 0-4.67l7.16-7.01 3.97 3.9a3.26 3.26 0 0 1 0 4.66ZM29.5 44l-5.57-5.45a5.43 5.43 0 0 1 0-7.8l8.75-8.56 5.56 5.45a5.43 5.43 0 0 1 0 7.8L29.5 44Z" fill="rgb(206, 121, 2)" fill-rule="evenodd"/>
<path d="m39.56 14.44a1.5 1.5 0 1 1-2.12 2.12 1.5 1.5 0 0 1 2.12-2.12zm4 4a1.5 1.5 0 1 1-2.12 2.12 1.5 1.5 0 0 1 2.12-2.12zm-23 7a1.5 1.5 0 1 1-2.12 2.12 1.5 1.5 0 0 1 2.12-2.12zm11 10a1.5 1.5 0 1 1-2.12 2.12 1.5 1.5 0 0 1 2.12-2.12zm-6-15a1.5 1.5 0 1 1-2.12 2.12 1.5 1.5 0 0 1 2.12-2.12zm11 10a1.5 1.5 0 1 1-2.12 2.12 1.5 1.5 0 0 1 2.12-2.12zm-11-5a1.5 1.5 0 1 1-2.12 2.12 1.5 1.5 0 0 1 2.12-2.12zm6 5a1.5 1.5 0 1 1-2.12 2.12 1.5 1.5 0 0 1 2.12-2.12z"/>
</svg>
