<?xml version="1.0" encoding="UTF-8"?>
<!-- generated by Finnhub -->
<svg viewBox="0 0 55.5 55.5" xmlns="http://www.w3.org/2000/svg">
<path d="M 0,0 H 55.5 V 55.5 H 0 Z" fill="rgb(239, 242, 248)"/>
<path d="M 23.049999999999997,39.805 A 0.5,0.5 0 0,1 22.38,40.1 L 20.51,39.24 A 0.54,0.54 0 0,1 20.24,38.54 L 23.13,31.77 A 0.5,0.5 0 0,1 23.8,31.5 L 37.63,37.78 C 37.78,37.84 37.95,37.83 38.09,37.76 C 38.73,37.48 39.47,37.46 40.15,37.76 A 2.68,2.68 0 0,1 41.46,41.25 A 2.53,2.53 0 0,1 36.7,41.04 A 0.59,0.59 0 0,0 36.4,40.68 L 25.38,35.68 A 0.5,0.5 0 0,0 24.7,35.95 L 23.06,39.82 Z M 39.74,38.73 A 1.6,1.6 0 0,1 40.53,40.83 A 1.52,1.52 0 0,1 38.5,41.63 A 1.6,1.6 0 0,1 37.71,39.55 A 1.52,1.52 0 0,1 39.74,38.73 Z M 32,16.18 A 0.5,0.5 0 0,1 32.68,15.9 L 34.56,16.76 C 34.81,16.87 34.93,17.18 34.82,17.46 L 31.93,24.23 A 0.5,0.5 0 0,1 31.26,24.5 L 17.43,18.22 A 0.56,0.56 0 0,0 16.97,18.24 C 16.34,18.52 15.59,18.54 14.91,18.24 A 2.68,2.68 0 0,1 13.6,14.75 A 2.53,2.53 0 0,1 18.36,14.96 C 18.42,15.12 18.52,15.26 18.66,15.32 L 29.68,20.32 A 0.5,0.5 0 0,0 30.36,20.05 L 32,16.18 Z M 15.32,17.27 A 1.6,1.6 0 0,1 14.54,15.17 A 1.52,1.52 0 0,1 16.56,14.37 A 1.6,1.6 0 0,1 17.35,16.45 A 1.52,1.52 0 0,1 15.32,17.27 Z" fill="rgb(65, 182, 219)" fill-rule="evenodd"/>
<path d="M 16.069999999999997,23.365 A 0.54,0.54 0 0,1 15.81,22.68 L 16.64,20.75 A 0.5,0.5 0 0,1 17.31,20.48 L 23.87,23.45 C 24.13,23.57 24.25,23.88 24.14,24.15 L 18.06,38.42 A 0.61,0.61 0 0,0 18.07,38.9 C 18.35,39.55 18.37,40.32 18.07,41.03 A 2.53,2.53 0 0,1 14.7,42.38 A 2.68,2.68 0 0,1 14.9,37.46 A 0.58,0.58 0 0,0 15.25,37.15 L 20.09,25.78 A 0.54,0.54 0 0,0 19.83,25.08 L 16.08,23.38 Z M 17.13,40.6 A 1.52,1.52 0 0,1 15.11,41.41 A 1.6,1.6 0 0,1 14.32,39.33 A 1.52,1.52 0 0,1 16.34,38.51 A 1.6,1.6 0 0,1 17.14,40.61 Z M 39.92,33.04 C 40.18,33.16 40.3,33.47 40.19,33.74 L 39.36,35.68 A 0.5,0.5 0 0,1 38.69,35.95 L 32.13,32.97 A 0.54,0.54 0 0,1 31.86,32.27 L 37.94,18 A 0.61,0.61 0 0,0 37.93,17.52 A 2.71,2.71 0 0,1 37.93,15.4 A 2.53,2.53 0 0,1 41.3,14.04 A 2.68,2.68 0 0,1 41.1,18.96 A 0.58,0.58 0 0,0 40.75,19.28 L 35.91,30.65 C 35.8,30.91 35.91,31.23 36.17,31.35 L 39.92,33.05 Z M 38.87,15.82 A 1.52,1.52 0 0,1 40.89,15.02 A 1.6,1.6 0 0,1 41.68,17.1 A 1.52,1.52 0 0,1 39.66,17.91 A 1.6,1.6 0 0,1 38.86,15.82 Z" fill="rgb(147, 147, 146)" fill-rule="evenodd"/>
<path d="M 24.66,39.964999999999996 A 0.54,0.54 0 0,1 24.41,39.28 L 25.23,37.35 A 0.5,0.5 0 0,1 25.91,37.08 L 32.47,40.05 C 32.73,40.17 32.84,40.48 32.73,40.75 L 31.91,42.68 A 0.5,0.5 0 0,1 31.23,42.96 L 24.67,39.98 Z M 30.4,16.02 C 30.65,16.14 30.77,16.45 30.66,16.72 L 29.83,18.65 A 0.5,0.5 0 0,1 29.16,18.92 L 22.6,15.95 A 0.54,0.54 0 0,1 22.33,15.25 L 23.16,13.32 A 0.5,0.5 0 0,1 23.83,13.04 L 30.39,16.02 Z" fill="rgb(147, 147, 146)"/>
<path d="M 15.92,25.025 A 0.5,0.5 0 0,1 16.6,24.77 L 18.48,25.62 C 18.74,25.74 18.85,26.05 18.74,26.32 L 15.86,33.09 A 0.5,0.5 0 0,1 15.18,33.37 L 13.31,32.51 A 0.54,0.54 0 0,1 13.04,31.81 L 15.93,25.04 Z M 40.07,31.38 A 0.5,0.5 0 0,1 39.4,31.65 L 37.52,30.8 A 0.54,0.54 0 0,1 37.26,30.1 L 40.14,23.33 A 0.5,0.5 0 0,1 40.82,23.06 L 42.69,23.91 C 42.95,24.03 43.07,24.34 42.96,24.61 L 40.07,31.38 Z" fill="rgb(65, 182, 219)"/>
</svg>
