<?xml version="1.0" encoding="UTF-8"?>
<!-- generated by Finnhub -->
<svg viewBox="0 0 55.5 55.5" xmlns="http://www.w3.org/2000/svg">
<path d="M 0,0 H 55.5 V 55.5 H 0 Z" fill="rgb(239, 242, 248)"/>
<path d="M 34.99,22.985 H 36.37 C 36.57,23.4 36.63,23.73 36.55,24.03 C 36.48,24.3 36.47,24.46 36.59,24.67 L 36.6,24.7 V 24.74 A 0.1,0.1 0 0,1 36.57,24.77 L 35,23 Z" fill="rgb(71, 150, 164)"/>
<path d="M 36.36,22.985 H 40.81 L 40.51,23.27 A 0.33,0.33 0 0,0 40.43,23.4 C 40.35,23.6 40.38,23.81 40.29,24.02 L 40.11,24.32 C 39.99,24.48 40.02,24.6 40.19,24.68 L 40.91,25 H 36.85 A 0.2,0.2 0 0,1 36.72,24.95 A 0.65,0.65 0 0,1 36.57,24.77 A 0.1,0.1 0 0,0 36.6,24.74 V 24.67 C 36.47,24.46 36.48,24.3 36.55,24.03 C 36.63,23.73 36.57,23.39 36.37,23 Z" fill="rgb(19, 112, 128)"/>
<path d="M 40.800000000000004,22.985 H 42 V 24.91 C 42,24.97 41.97,25 41.92,25 H 40.9 L 40.18,24.68 C 40.01,24.6 39.98,24.48 40.1,24.32 L 40.28,24.02 C 40.38,23.82 40.34,23.6 40.42,23.4 A 0.33,0.33 0 0,1 40.51,23.27 L 40.8,23 Z" fill="rgb(71, 150, 164)"/>
<path d="M 36.760000000000005,26.985 C 36.74,27.3 36.87,27.44 37.15,27.45 C 37.2,27.45 37.33,27.41 37.55,27.32 C 37.67,27.28 37.81,27.26 37.98,27.26 C 38.09,27.26 38.13,27.18 38.08,27 H 41.91 C 41.97,27 42,27.04 42,27.1 V 28.89 C 42,28.96 41.97,28.99 41.9,28.99 L 37.37,29 C 37.43,28.8 37.54,28.67 37.7,28.59 C 37.77,28.56 37.78,28.51 37.73,28.44 A 0.46,0.46 0 0,1 37.65,28.15 C 37.65,28.08 37.69,28.03 37.75,28.01 C 37.84,27.98 37.92,28.01 38,28.07 L 38.06,28.1 H 38.12 C 38.14,28.1 38.16,28.08 38.18,28.06 A 0.15,0.15 0 0,0 38.21,28 A 0.92,0.92 0 0,0 38.24,27.54 C 38.23,27.46 38.18,27.41 38.12,27.4 C 37.79,27.32 37.59,27.44 37.49,27.75 A 0.28,0.28 0 0,1 37.41,27.88 C 37.1,28.16 36.81,28.17 36.56,27.9 A 0.34,0.34 0 0,1 36.48,27.76 A 0.52,0.52 0 0,0 36.42,27.64 C 36.39,27.6 36.38,27.6 36.38,27.66 C 36.39,27.78 36.44,27.86 36.52,27.94 C 36.55,27.96 36.58,27.99 36.59,28.04 V 28.13 C 36.57,28.18 36.53,28.2 36.49,28.18 A 0.62,0.62 0 0,1 36.07,27.66 A 0.12,0.12 0 0,0 36.04,27.6 A 0.1,0.1 0 0,0 35.98,27.57 C 35.91,27.55 35.84,27.6 35.78,27.71 C 35.78,27.73 35.76,27.74 35.75,27.74 A 0.07,0.07 0 0,1 35.67,27.74 A 0.09,0.09 0 0,1 35.64,27.71 C 35.52,27.44 35.31,27.35 35.01,27.44 L 35,27.1 C 35,27.04 35.02,27.01 35.08,27.01 H 36.77 Z" fill="rgb(19, 112, 128)"/>
<path d="M 36.760000000000005,26.985 H 38.09 C 38.13,27.18 38.09,27.26 37.98,27.26 C 37.81,27.26 37.67,27.28 37.55,27.32 C 37.33,27.41 37.2,27.45 37.15,27.45 C 36.87,27.44 36.75,27.29 36.77,27 Z" fill="rgb(71, 150, 164)"/>
<path d="M 37.36,28.985 H 35.08 C 35.03,29 35.01,28.96 35.01,28.9 V 28.32 C 35.08,28.31 35.15,28.32 35.21,28.37 C 35.26,28.4 35.31,28.39 35.34,28.35 A 0.9,0.9 0 0,0 35.51,28.12 C 35.54,28.06 35.53,28.02 35.48,27.98 A 0.72,0.72 0 0,0 35.01,27.88 V 27.44 C 35.31,27.35 35.51,27.44 35.64,27.71 L 35.67,27.74 L 35.71,27.75 H 35.75 L 35.78,27.71 C 35.84,27.61 35.91,27.55 35.98,27.57 A 0.1,0.1 0 0,1 36.04,27.6 L 36.07,27.66 C 36.11,27.92 36.25,28.09 36.48,28.18 C 36.53,28.2 36.57,28.18 36.58,28.13 A 0.13,0.13 0 0,0 36.59,28.03 A 0.22,0.22 0 0,0 36.52,27.93 A 0.37,0.37 0 0,1 36.38,27.66 C 36.38,27.6 36.39,27.6 36.42,27.64 L 36.48,27.76 C 36.5,27.81 36.52,27.86 36.56,27.9 C 36.81,28.17 37.1,28.16 37.41,27.88 A 0.28,0.28 0 0,0 37.49,27.75 C 37.59,27.44 37.79,27.32 38.12,27.4 C 38.18,27.41 38.22,27.46 38.24,27.54 C 38.27,27.69 38.26,27.84 38.21,28 C 38.21,28.03 38.19,28.05 38.18,28.06 A 0.13,0.13 0 0,1 38.12,28.1 H 38.06 A 0.13,0.13 0 0,1 38,28.07 C 37.92,28 37.84,27.98 37.75,28.01 C 37.69,28.03 37.65,28.08 37.65,28.15 C 37.65,28.27 37.68,28.36 37.73,28.45 C 37.78,28.51 37.77,28.55 37.7,28.59 A 0.62,0.62 0 0,0 37.37,29 Z" fill="rgb(71, 150, 164)"/>
<path d="M 34.99,27.855 C 35.21,27.87 35.37,27.9 35.48,27.98 C 35.53,28.02 35.54,28.06 35.51,28.12 A 0.91,0.91 0 0,1 35.34,28.35 C 35.3,28.39 35.26,28.4 35.21,28.37 A 0.29,0.29 0 0,0 35.01,28.32 V 27.87 Z M 42.52,23 H 47 C 48.68,23.26 49.99,24.5 49.99,26.3 A 3.3,3.3 0 0,1 48.39,29.27 C 48.31,29.17 48.22,29.1 48.13,29.08 A 0.1,0.1 0 0,0 48.02,29.13 C 47.62,29.73 46.75,29.3 46.39,28.87 C 46.14,28.57 45.95,28.27 45.83,27.97 L 46.9,27.98 C 47.28,27.98 47.65,27.78 48.01,27.34 C 48.68,26.54 48.3,25.57 47.38,25.18 C 47.15,25.08 46.88,25 46.58,25 H 43.68 A 0.38,0.38 0 0,1 43.35,24.8 L 42.51,23 Z" fill="rgb(19, 112, 128)"/>
<path d="M 45.830000000000005,27.965 C 45.96,28.27 46.15,28.56 46.4,28.87 C 46.76,29.3 47.62,29.73 48.03,29.13 A 0.1,0.1 0 0,1 48.14,29.08 C 48.24,29.1 48.32,29.17 48.4,29.28 L 48.12,29.42 C 48.08,29.44 48.07,29.47 48.09,29.51 L 48.65,30.51 C 48.05,30.65 47.38,30.61 46.65,30.39 L 45.33,28.06 V 28 L 45.35,27.98 L 45.38,27.97 H 45.84 Z" fill="rgb(71, 150, 164)"/>
<path d="M 46.64,30.384999999999998 C 47.38,30.61 48.05,30.65 48.65,30.51 L 50,32.94 V 33 H 48.19 A 0.12,0.12 0 0,1 48.08,32.93 L 46.65,30.39 Z M 25.49,23 H 26.8 C 26.87,23.26 27,23.49 27.2,23.68 C 27.34,23.82 27.38,23.94 27.48,24.1 C 27.57,24.26 27.64,24.25 27.68,24.07 L 27.72,23.97 C 27.82,23.81 27.91,23.81 28,23.97 C 28.2,24.23 28.8,23.94 29.49,23.45 A 0.2,0.2 0 0,0 29.56,23.35 A 0.9,0.9 0 0,0 29.6,23 H 30.93 A 2.94,2.94 0 0,1 33.49,26.72 C 32.99,26.72 32.67,26.8 32.46,26.22 A 1.76,1.76 0 0,0 31.77,25.34 C 31.53,24.93 31.12,25 30.65,25 H 27.24 A 0.3,0.3 0 0,1 27.02,24.9 L 25.49,23 Z" fill="rgb(19, 112, 128)"/>
<path d="M 26.79,22.985 H 29.6 A 0.9,0.9 0 0,1 29.56,23.34 A 0.2,0.2 0 0,1 29.49,23.45 L 28.69,24.02 A 0.83,0.83 0 0,1 28.19,24.18 A 0.13,0.13 0 0,1 28.07,24.11 L 28,23.97 C 27.9,23.81 27.81,23.81 27.72,23.97 A 0.44,0.44 0 0,0 27.69,24.07 C 27.64,24.25 27.57,24.26 27.48,24.1 C 27.38,23.94 27.34,23.82 27.2,23.68 C 27,23.48 26.87,23.26 26.8,23 Z M 31.77,25.34 C 32.09,25.54 32.32,25.84 32.46,26.23 C 32.67,26.8 32.98,26.73 33.49,26.72 A 2.62,2.62 0 0,1 32.8,27.94 C 32.78,27.98 32.78,28.01 32.8,28.04 C 33.49,28.79 33.72,29.68 33.51,30.72 A 0.46,0.46 0 0,0 33.25,30.77 A 0.1,0.1 0 0,1 33.14,30.75 A 2.96,2.96 0 0,1 33,30.65 C 32.87,30.52 32.83,30.55 32.88,30.72 C 32.93,30.86 32.91,31.01 32.83,31.16 A 0.14,0.14 0 0,1 32.7,31.24 A 0.15,0.15 0 0,1 32.59,31.2 A 0.1,0.1 0 0,1 32.56,31.09 C 32.62,30.95 32.6,30.84 32.51,30.74 C 32.47,30.69 32.45,30.7 32.46,30.76 C 32.48,30.86 32.46,30.94 32.42,31.01 A 0.12,0.12 0 0,1 32.3,31.07 H 32.15 A 0.19,0.19 0 0,0 32.04,31.17 A 0.27,0.27 0 0,1 31.82,31.31 A 0.25,0.25 0 0,0 31.69,31.36 L 31.49,31.52 C 31.31,31.69 30.84,31.7 30.59,31.75 C 30.54,31.75 30.52,31.79 30.52,31.85 C 30.52,31.91 30.46,31.91 30.36,31.86 H 30.34 A 0.64,0.64 0 0,0 29.91,31.76 A 0.07,0.07 0 0,1 29.82,31.71 V 31.67 L 29.9,31.1 C 29.9,31.07 29.93,31.05 29.96,31.05 C 30,31.05 30.04,31.03 30.08,31 C 30.52,31 30.81,31.04 31.15,30.93 C 31.83,30.69 32.12,30.09 31.75,29.43 C 31.44,28.89 31,29 30.45,29 H 27.9 C 27.93,28.77 28.03,28.43 28.18,28.3 C 28.35,28.15 28.54,28.2 28.68,27.99 C 28.73,27.92 28.72,27.86 28.66,27.81 C 28.59,27.75 28.58,27.7 28.61,27.63 C 28.68,27.46 28.74,27.46 28.78,27.65 C 28.84,27.91 29.01,27.99 29.29,27.9 C 29.3,27.9 29.31,27.9 29.32,27.88 A 0.07,0.07 0 0,0 29.34,27.81 A 0.07,0.07 0 0,0 29.32,27.78 A 0.37,0.37 0 0,1 29.2,27.49 C 29.2,27.45 29.19,27.4 29.16,27.36 C 29.11,27.3 29.06,27.08 29.04,27 H 30.67 C 31.63,27 32.19,26.22 31.77,25.34 Z" fill="rgb(71, 150, 164)"/>
<path d="M 29.029999999999998,26.985 C 29.07,27.08 29.11,27.3 29.16,27.36 C 29.19,27.4 29.2,27.45 29.2,27.49 C 29.2,27.61 29.24,27.7 29.32,27.78 A 0.07,0.07 0 0,1 29.34,27.85 A 0.07,0.07 0 0,1 29.29,27.9 C 29.01,28 28.84,27.9 28.79,27.65 C 28.74,27.46 28.69,27.45 28.61,27.63 C 28.58,27.7 28.59,27.75 28.66,27.81 C 28.72,27.86 28.73,27.91 28.69,27.99 C 28.54,28.2 28.35,28.15 28.19,28.29 C 28.03,28.43 27.93,28.77 27.89,29 H 25.11 C 25.05,29 25,28.96 25,28.9 V 27.1 C 25,27.04 25.05,27.01 25.1,27.01 H 29.04 Z" fill="rgb(19, 112, 128)"/>
<path d="M 28.2,27.655 C 28.41,27.57 28.57,27.45 28.55,27.41 C 28.53,27.37 28.35,27.41 28.14,27.51 C 27.93,27.62 27.78,27.74 27.8,27.78 C 27.82,27.83 28,27.78 28.21,27.68 Z" fill="rgb(71, 150, 164)"/>
<path d="M 33.5,30.705 A 2.94,2.94 0 0,1 31.68,32.79 C 31.53,32.85 31.28,32.99 31,32.99 H 26.14 C 26.08,32.99 26.06,32.99 26,32.94 V 31.04 C 26,31.02 26.01,31 26.04,31 H 30.08 C 30.04,31.03 30,31.28 29.96,31.28 C 29.93,31.28 29.91,31.3 29.9,31.33 L 29.82,31.67 A 0.08,0.08 0 0,0 29.91,31.77 A 0.64,0.64 0 0,1 30.36,31.86 C 30.46,31.91 30.51,31.91 30.52,31.85 C 30.52,31.79 30.54,31.75 30.6,31.75 C 30.83,31.7 31.3,31.69 31.49,31.52 L 31.69,31.36 A 0.25,0.25 0 0,1 31.82,31.31 C 31.92,31.31 31.99,31.25 32.04,31.17 A 0.19,0.19 0 0,1 32.15,31.07 H 32.3 A 0.12,0.12 0 0,0 32.42,31.01 A 0.33,0.33 0 0,0 32.46,30.76 C 32.45,30.7 32.46,30.69 32.51,30.74 C 32.6,30.84 32.61,30.95 32.56,31.09 A 0.1,0.1 0 0,0 32.59,31.19 C 32.62,31.23 32.65,31.24 32.69,31.24 C 32.76,31.24 32.8,31.22 32.83,31.16 C 32.91,31.01 32.93,30.86 32.88,30.72 C 32.83,30.54 32.87,30.52 33,30.64 L 33.14,30.75 A 0.1,0.1 0 0,0 33.25,30.77 C 33.35,30.72 33.43,30.71 33.51,30.72 Z M 9.6,23 H 10.15 A 5.07,5.07 0 0,1 13.31,24.52 V 24.53 L 12.17,25.68 C 12.14,25.71 12.11,25.71 12.08,25.68 C 11.66,25.25 11.15,24.97 10.58,24.83 C 10.51,24.6 10.43,24.43 10.23,24.29 A 3.18,3.18 0 0,1 9.96,24.07 A 0.16,0.16 0 0,1 9.94,24.01 V 23.75 C 9.97,23.49 9.91,23.47 9.76,23.68 A 0.25,0.25 0 0,0 9.73,23.83 A 0.1,0.1 0 0,1 9.68,23.91 C 9.62,23.94 9.58,23.94 9.56,23.91 A 0.14,0.14 0 0,0 9.46,23.84 C 9.34,23.84 9.27,23.88 9.24,23.97 A 0.22,0.22 0 0,1 9.17,24.07 C 8.87,24.31 8.7,24.62 8.63,24.99 A 3.33,3.33 0 0,0 6.95,29.36 C 6.77,29.49 6.45,29.64 6.57,29.92 C 6.57,29.94 6.6,29.96 6.62,29.96 A 0.4,0.4 0 0,0 6.84,29.93 C 6.87,29.92 6.88,29.9 6.88,29.86 C 6.88,29.8 6.88,29.75 6.91,29.7 S 6.97,29.64 7.01,29.67 C 7.07,29.71 7.11,29.76 7.14,29.81 C 7.16,29.85 7.16,29.89 7.13,29.92 L 6.75,30.33 L 6.52,30.72 C 6.43,30.86 6.29,31.01 6.1,31.14 A 5,5 0 0,1 9.6,23 Z" fill="rgb(19, 112, 128)"/>
<path d="M 10.57,24.814999999999998 A 3.2,3.2 0 0,0 8.63,24.99 C 8.7,24.62 8.87,24.31 9.17,24.08 A 0.22,0.22 0 0,0 9.24,23.98 C 9.27,23.88 9.34,23.83 9.45,23.84 C 9.5,23.84 9.54,23.86 9.56,23.9 C 9.59,23.94 9.62,23.94 9.68,23.9 A 0.1,0.1 0 0,0 9.73,23.83 C 9.73,23.77 9.73,23.73 9.76,23.68 C 9.91,23.47 9.97,23.49 9.95,23.75 V 24.01 A 0.16,0.16 0 0,0 10,24.12 L 10.23,24.29 C 10.43,24.43 10.51,24.59 10.58,24.83 Z M 6.96,29.36 A 3.25,3.25 0 0,0 9.71,31.29 A 0.8,0.8 0 0,1 10.04,31.38 L 10.33,31.58 C 10.23,31.67 10.08,31.68 9.89,31.64 A 0.86,0.86 0 0,0 9.37,31.7 A 0.69,0.69 0 0,1 8.93,31.72 A 0.19,0.19 0 0,1 8.83,31.65 C 8.73,31.52 8.58,31.38 8.4,31.39 H 7.74 A 0.9,0.9 0 0,0 7.24,31.52 C 7.09,31.62 6.94,31.72 6.79,31.84 L 6.1,31.14 C 6.3,31 6.43,30.86 6.52,30.71 C 6.65,30.49 6.72,30.36 6.75,30.33 L 7.13,29.93 C 7.16,29.89 7.16,29.85 7.13,29.81 A 0.52,0.52 0 0,0 7.02,29.67 C 6.97,29.64 6.94,29.65 6.92,29.7 A 0.28,0.28 0 0,0 6.88,29.86 C 6.88,29.9 6.87,29.92 6.84,29.93 A 0.4,0.4 0 0,1 6.62,29.96 A 0.06,0.06 0 0,1 6.57,29.92 C 6.45,29.64 6.77,29.49 6.96,29.36 Z" fill="rgb(71, 150, 164)"/>
<path d="M 10.32,31.575 L 11.75,32.55 L 11.76,32.56 V 32.6 L 11.75,32.61 A 4.69,4.69 0 0,1 6.8,31.84 C 6.94,31.72 7.09,31.61 7.24,31.52 A 0.9,0.9 0 0,1 7.74,31.39 H 8.4 C 8.58,31.39 8.73,31.52 8.83,31.65 C 8.86,31.69 8.89,31.71 8.93,31.72 C 9.08,31.76 9.23,31.75 9.37,31.7 C 9.57,31.62 9.75,31.6 9.89,31.64 C 10.09,31.69 10.23,31.67 10.33,31.59 Z M 39.22,31 C 39.14,31.23 39.1,31.5 39.1,31.82 C 39.1,31.92 39.07,31.97 38.98,31.98 A 0.7,0.7 0 0,0 38.73,32.07 A 0.08,0.08 0 0,0 38.7,32.14 V 32.2 C 38.7,32.27 38.73,32.3 38.79,32.3 C 39.06,32.27 39.3,32.32 39.53,32.45 C 39.71,32.55 39.92,32.59 40.15,32.59 C 40.45,32.59 40.66,32.57 40.79,32.52 C 41.17,32.36 41.58,32.3 41.99,32.34 L 42,32.93 C 42,32.95 42,32.97 41.98,32.98 A 0.06,0.06 0 0,1 41.94,33 H 35.1 A 0.1,0.1 0 0,1 35.04,32.97 A 0.12,0.12 0 0,1 35,32.92 A 0.14,0.14 0 0,1 35.03,32.78 L 35.76,32.03 C 35.96,32.16 36.16,32.15 36.35,32 A 0.2,0.2 0 0,1 36.49,31.96 L 36.77,31.98 L 36.83,31.97 A 0.1,0.1 0 0,0 36.86,31.92 C 36.87,31.9 36.87,31.88 36.86,31.85 A 0.1,0.1 0 0,0 36.84,31.8 A 0.94,0.94 0 0,0 36.54,31.61 C 36.48,31.58 36.42,31.61 36.39,31.68 C 36.29,31.88 36.12,31.95 35.89,31.9 L 36.7,31.06 A 0.17,0.17 0 0,1 36.83,31.01 L 39.21,31 Z" fill="rgb(19, 112, 128)"/>
<path d="M 39.21,30.985 H 41.92 C 41.98,31 42,31.03 42,31.08 V 32.34 C 41.58,32.3 41.17,32.36 40.79,32.52 C 40.66,32.57 40.45,32.59 40.15,32.59 A 1.3,1.3 0 0,1 39.53,32.45 A 1.3,1.3 0 0,0 38.79,32.3 C 38.73,32.3 38.69,32.27 38.69,32.2 V 32.14 C 38.69,32.11 38.71,32.09 38.73,32.07 A 0.7,0.7 0 0,1 38.98,31.98 C 39.07,31.97 39.11,31.92 39.1,31.82 C 39.1,31.51 39.14,31.23 39.22,31 Z M 35.77,32.03 C 35.82,31.99 35.87,31.94 35.89,31.9 C 36.13,31.95 36.29,31.88 36.39,31.68 C 36.43,31.6 36.49,31.58 36.56,31.61 C 36.66,31.65 36.76,31.71 36.85,31.8 A 0.1,0.1 0 0,1 36.88,31.85 V 31.92 A 0.1,0.1 0 0,1 36.84,31.97 A 0.09,0.09 0 0,1 36.78,31.98 L 36.5,31.96 A 0.2,0.2 0 0,0 36.36,32 A 0.47,0.47 0 0,1 35.76,32.03 Z M 14.85,23 H 16.95 L 17.07,23.14 A 3.07,3.07 0 0,1 16.87,24.29 A 0.05,0.05 0 0,0 16.92,24.34 C 16.95,24.34 16.97,24.33 16.99,24.31 C 17.06,24.22 17.13,24.12 17.18,24.02 C 17.2,23.97 17.23,23.96 17.28,23.99 C 17.35,24.03 17.38,24.09 17.4,24.17 C 17.45,24.49 17.5,24.8 17.53,25.11 C 17.53,25.18 17.57,25.25 17.62,25.3 C 17.67,25.34 17.74,25.37 17.8,25.37 C 17.9,25.37 18,25.4 18.07,25.44 C 18.1,25.45 18.12,25.47 18.13,25.5 L 18.15,25.57 C 18.14,25.75 18.15,25.93 18.26,26.08 C 18.41,26.27 18.51,26.48 18.58,26.74 C 18.68,27.05 18.46,27.3 18.28,27.52 L 14.84,23 Z" fill="rgb(71, 150, 164)"/>
<path d="M 22.43,22.985 H 24.54 L 17.06,32.92 C 17.03,32.96 16.99,33 16.95,33 H 16.15 L 15.51,32.15 L 18.61,28.09 C 18.64,28.05 18.64,28.02 18.61,27.99 L 18.27,27.52 C 18.46,27.3 18.67,27.05 18.58,26.74 A 1.86,1.86 0 0,0 18.26,26.08 C 18.14,25.93 18.14,25.75 18.15,25.58 C 18.15,25.55 18.15,25.52 18.13,25.5 A 0.14,0.14 0 0,0 18.07,25.44 A 0.59,0.59 0 0,0 17.8,25.37 A 0.28,0.28 0 0,1 17.62,25.3 A 0.3,0.3 0 0,1 17.52,25.11 L 17.4,24.17 A 0.25,0.25 0 0,0 17.27,23.99 C 17.23,23.96 17.2,23.97 17.17,24.02 C 17.13,24.12 17.07,24.22 16.99,24.31 A 0.08,0.08 0 0,1 16.92,24.34 A 0.05,0.05 0 0,1 16.88,24.31 A 0.05,0.05 0 0,1 16.88,24.27 C 17.01,23.9 17.08,23.53 17.07,23.14 L 18.43,24.94 C 18.35,25.21 18.37,25.43 18.5,25.58 C 18.63,25.73 18.78,25.75 18.95,25.64 L 19.63,26.57 L 19.66,26.59 A 0.07,0.07 0 0,0 19.75,26.57 L 22.45,23 Z" fill="rgb(19, 112, 128)"/>
<path d="M 18.419999999999998,24.935 L 18.95,25.65 C 18.78,25.75 18.63,25.73 18.5,25.58 C 18.37,25.43 18.35,25.21 18.43,24.95 Z M 15.51,32.15 L 16.15,33 H 15.57 A 1.7,1.7 0 0,0 15.24,32.54 C 15.3,32.39 15.39,32.26 15.51,32.14 Z" fill="rgb(71, 150, 164)"/>
<path d="M 15.25,32.455 C 15.41,32.61 15.53,32.8 15.63,33 H 14.96 C 14.91,33 14.9,32.98 14.92,32.93 C 14.98,32.76 15.1,32.61 15.26,32.47 Z" fill="rgb(19, 112, 128)"/>
</svg>
