<?xml version="1.0" encoding="UTF-8"?>
<!-- generated by Finnhub -->
<svg viewBox="0 0 55.5 55.5" xmlns="http://www.w3.org/2000/svg">
<path d="M 0,0 H 55.5 V 55.5 H 0 Z" fill="rgb(239, 242, 248)"/>
<path d="M 25.139999999999997,29.415 C 25.15,29.37 25.12,29.33 25.07,29.33 H 23.05 C 23.02,29.33 23,29.3 23,29.27 V 28.11 C 23,28.05 23.03,28 23.1,28 H 26.54 C 26.58,28 26.61,28.04 26.61,28.08 C 26.6,29.23 26.59,30.36 26.61,31.5 C 26.61,31.68 26.49,31.77 26.36,31.87 A 5.28,5.28 0 0,1 22.06,32.9 A 4.08,4.08 0 0,1 19.14,30.65 A 5,5 0 0,1 18.94,26.91 A 4.28,4.28 0 0,1 22.27,24.07 A 4.94,4.94 0 0,1 26.28,25.17 A 0.07,0.07 0 0,1 26.28,25.22 V 25.24 L 25.42,26.29 A 0.1,0.1 0 0,1 25.35,26.33 A 0.1,0.1 0 0,1 25.27,26.3 A 3.1,3.1 0 0,0 23.31,25.44 C 22.91,25.42 22.51,25.43 22.15,25.57 A 3.09,3.09 0 0,0 20.25,28.64 C 20.3,30.06 21.13,31.29 22.53,31.54 A 3.33,3.33 0 0,0 25.15,30.94 A 0.16,0.16 0 0,0 25.16,30.86 V 29.43 Z M 5.53,31.51 L 5.57,31.55 L 5.62,31.57 A 931.14,931.14 0 0,1 9.96,31.59 C 9.97,31.59 9.98,31.59 9.99,31.61 L 10,31.64 V 32.96 L 9.98,32.99 L 9.96,33 H 4.1 A 0.1,0.1 0 0,1 4.03,32.97 A 0.1,0.1 0 0,1 4,32.89 V 24.08 C 4,24.04 4.06,24 4.1,24 L 5.48,24.02 C 5.51,24.02 5.52,24.03 5.52,24.06 V 31.21 C 5.52,31.31 5.5,31.42 5.53,31.51 Z M 12.46,27.54 L 12.58,27.56 A 577.08,577.08 0 0,0 16.4,27.58 L 16.42,27.64 V 28.91 A 0.1,0.1 0 0,1 16.4,28.97 A 0.07,0.07 0 0,1 16.34,29 H 12.51 C 12.49,29 12.47,29 12.46,29.02 A 0.1,0.1 0 0,0 12.42,29.07 V 31.47 C 12.42,31.5 12.42,31.52 12.44,31.54 C 12.46,31.56 12.48,31.57 12.51,31.57 H 16.9 C 16.97,31.57 17,31.61 17,31.69 V 32.95 C 17,32.97 16.98,32.98 16.97,32.99 H 16.94 L 11.08,33 C 11.06,33 11.04,33 11.02,32.97 A 0.1,0.1 0 0,1 11,32.91 V 24.07 L 11.01,24.04 L 11.02,24.02 L 11.04,24 H 16.86 C 16.89,24 17,24.02 17,24.07 V 25.38 C 17,25.41 16.97,25.46 16.95,25.46 H 12.49 C 12.44,25.46 12.42,25.5 12.42,25.56 V 27.48 L 12.43,27.52 L 12.46,27.54 Z M 38.5,25.55 A 0.1,0.1 0 0,0 38.48,25.5 A 0.09,0.09 0 0,0 38.42,25.48 H 36.05 L 36.02,25.46 L 36.01,25.44 V 25.41 L 36,24.07 C 36,24.05 36,24.03 36.02,24.02 L 36.05,24 H 42.45 C 42.51,24 42.53,24.03 42.53,24.09 V 25.39 A 0.1,0.1 0 0,1 42.51,25.45 L 42.48,25.48 H 42.44 A 84.29,84.29 0 0,0 40.09,25.51 A 0.12,0.12 0 0,0 40.01,25.56 C 39.99,25.58 40,25.61 40,25.65 V 32.95 L 39.98,32.96 L 39.97,32.98 L 39.95,33 H 38.6 C 38.58,33 38.57,33 38.56,32.98 A 0.06,0.06 0 0,1 38.55,32.95 V 25.65 L 38.52,25.55 Z M 51.9,29.43 A 4.56,4.56 0 0,0 50.08,24.79 A 4.38,4.38 0 0,0 43.91,25.96 A 4.55,4.55 0 0,0 45.04,32.21 A 4.38,4.38 0 0,0 51.21,31.04 C 51.55,30.55 51.78,30 51.91,29.43 Z M 47.73,31.57 C 46.15,31.67 44.8,30.36 44.71,28.67 C 44.61,26.97 45.81,25.52 47.39,25.43 C 48.97,25.33 50.32,26.64 50.41,28.33 C 50.51,30.03 49.31,31.48 47.73,31.57 Z" fill="rgb(1, 153, 72)"/>
<path d="M 30.549999999999997,25.675 H 30.54 A 0.17,0.17 0 0,1 30.45,25.65 C 27.85,23.18 24.89,21.65 21.49,20.65 L 20.89,20.5 A 5.92,5.92 0 0,0 19.14,20.16 A 19.92,19.92 0 0,0 13.64,20.25 L 13.18,20.33 C 13,20.36 12.82,20.38 12.65,20.43 L 12.19,20.53 L 11.59,20.69 L 10.76,20.93 A 30.48,30.48 0 0,0 5.48,23.19 H 5.51 A 29.67,29.67 0 0,1 10.91,21.49 H 10.96 C 11.49,21.37 12.05,21.25 12.58,21.21 L 13.23,21.13 C 13.53,21.1 13.81,21.06 14.1,21.05 C 14.71,21.02 15.33,21.01 15.95,21.02 A 23.04,23.04 0 0,1 18.7,21.32 C 21.44,21.82 24.01,22.87 26.42,24.49 A 33.2,33.2 0 0,1 34.8,32.96 C 34.83,32.98 34.86,32.98 34.88,32.98 L 36.15,33 C 36.17,33 36.18,32.99 36.18,32.97 A 0.8,0.8 0 0,0 36.11,32.63 C 35.54,31.31 34.97,29.86 34.39,28.39 C 33.87,27.06 33.34,25.72 32.79,24.43 A 4.45,4.45 0 0,0 32.59,24.05 L 32.57,24.03 C 32.55,24.01 32.54,24 32.52,24 H 31.4 C 31.37,24 31.34,24.02 31.32,24.04 L 31.29,24.06 A 0.2,0.2 0 0,0 31.22,24.15 L 30.58,25.67 L 30.57,25.69 Z M 32.88,28.5 L 31.96,26.3 A 0.03,0.03 0 0,0 31.93,26.27 H 31.91 L 31.89,26.29 L 31.6,26.99 A 0.17,0.17 0 0,0 31.63,27.18 A 31.02,31.02 0 0,1 32.88,28.52 V 28.5 Z" fill="rgb(1, 153, 72)" fill-rule="evenodd"/>
<path d="M 27.66,32.894999999999996 L 29.73,27.97 L 29.74,27.95 L 29.77,27.93 H 29.8 L 29.82,27.95 L 30.72,28.95 L 30.74,28.98 V 29 L 29.16,32.94 S 29.16,32.96 29.14,32.96 L 29.11,32.97 L 27.72,32.99 A 0.06,0.06 0 0,1 27.67,32.96 A 0.07,0.07 0 0,1 27.67,32.9 Z" fill="rgb(1, 153, 72)"/>
</svg>
