<?xml version="1.0" encoding="UTF-8"?>
<!-- generated by Finnhub -->
<svg viewBox="0 0 55.5 55.5" xmlns="http://www.w3.org/2000/svg">
<path d="M 0,0 H 55.5 V 55.5 H 0 Z" fill="rgb(239, 242, 248)"/>
<path d="M 7.99,21.215 L 36.73,41.74 L 37,44 H 31.32 L 8,21.23 Z" fill="rgb(17, 166, 159)"/>
<path d="M 34.1,6.985 L 36.9,44 H 31.32 L 34.11,7 Z" fill="rgb(167, 168, 171)"/>
<path d="M 36.89,43.885 L 31.32,44 L 31.76,38.2 L 36.73,41.74 L 36.89,43.91 Z" fill="rgb(19, 130, 120)"/>
<path d="M 36.730000000000004,41.785 L 37,44 H 31.32 L 30.12,42.82 L 34.22,39.94 L 36.74,41.8 Z" fill="rgb(19, 130, 120)"/>
<path d="M 36.47,38.355 L 36.9,44 H 31.32 L 31.48,41.85 L 36.48,38.37 Z" fill="rgb(19, 130, 120)"/>
<path d="M 31.319999999999997,43.985 H 37 L 36.73,41.74 L 34.23,39.94 L 31.48,41.85 L 31.32,44 Z" fill="rgb(16, 89, 77)"/>
</svg>
