<?xml version="1.0" encoding="UTF-8"?>
<!-- generated by Finnhub -->
<svg viewBox="0 0 55.5 55.5" xmlns="http://www.w3.org/2000/svg">
<path d="M 0,0 H 55.5 V 55.5 H 0 Z" fill="rgb(239, 242, 248)"/>
<path d="M 51.99,22.985 H 4 V 27.25 H 46.67 L 45,26 L 47.5,26.5 L 46.5,24.5 L 48,26 L 48.5,24 L 49,26 L 50.5,24.5 L 49.5,26.5 L 51.5,26 L 49.5,27.5 L 51.5,29 L 49.5,28.5 L 50.5,30.5 L 49,29 L 48.5,31 L 48,29 L 46.5,30.5 L 47,28.5 L 45,29 L 46.67,27.75 H 4 V 32 H 52 V 23 Z M 5,28 V 30 H 7.5 V 29.12 H 6 V 28 H 5 Z M 5,27 H 6 V 25 H 5 V 27 Z M 8.74,27 H 8.6 L 8.32,26.35 C 8.68,26.13 9.14,26 9.62,26 C 10.4,26 10.86,26.33 10.97,27 H 9.96 C 9.9,26.85 9.79,26.78 9.58,26.78 C 9.3,26.78 9.02,26.87 8.74,27 Z M 8.25,28 C 8.08,28.2 8,28.45 8,28.78 C 8,29.43 8.35,30 9.05,30 C 9.55,30 9.72,29.8 10,29.4 V 30 H 11 V 28 H 8.25 Z M 12.23,28 A 2.49,2.49 0 0,0 12.83,28.35 C 13.09,28.45 13.46,28.62 13.46,28.9 C 13.46,29.1 13.32,29.23 12.96,29.23 C 12.56,29.23 12.15,29.09 11.8,28.91 V 29.78 C 12.14,29.94 12.45,30 12.92,30 C 13.7,30 14.46,29.64 14.46,28.79 C 14.46,28.44 14.32,28.19 14.1,28 H 12.23 Z M 13.91,27 A 1.87,1.87 0 0,0 13.12,26.79 C 12.87,26.79 12.8,26.86 12.79,27 H 11.79 C 11.84,26.3 12.49,26 13.14,26 C 13.56,26 13.94,26.1 14.34,26.31 L 14.08,27 H 13.91 Z M 15,28 V 28.03 C 15,29.12 15.6,30 16.75,30 C 17.28,30 17.61,29.92 17.95,29.73 V 28.91 C 17.56,29.11 17.23,29.21 16.79,29.21 C 16.27,29.21 16.04,28.86 16.02,28.27 H 18.14 V 28 H 15 Z M 18.01,27 C 17.81,26.42 17.33,26 16.61,26 C 15.88,26 15.41,26.43 15.19,27 H 16.16 C 16.26,26.83 16.42,26.75 16.62,26.75 C 16.84,26.75 16.97,26.85 17.04,27 H 18.01 Z M 19,28 V 30 H 20 V 28 H 19 Z M 20.5,27 H 19 V 26 H 19.7 L 19.89,26.73 L 19.91,26.68 C 20.1,26.31 20.25,26.01 20.69,26.01 A 1.46,1.46 0 0,1 21,26.04 L 20.93,27 H 20.8 A 1.16,1.16 0 0,0 20.5,27 Z M 22,28 V 30 H 23 V 28 H 22 Z M 23,27 H 22 V 25 H 23.5 L 24.07,27 H 23.14 L 23,26.5 V 27 Z M 23.42,28 L 23.98,30 H 25 L 25.57,28 H 24.64 L 24.5,28.5 L 24.36,28 H 23.42 Z M 24.92,27 H 25.86 L 26,26.5 V 27 H 27 V 25 H 25.5 L 24.93,27 Z M 28.76,27 H 28.61 L 28.32,26.35 C 28.69,26.13 29.16,26 29.65,26 C 30.45,26 30.87,26.33 30.97,27 H 29.97 C 29.92,26.85 29.82,26.78 29.61,26.78 C 29.32,26.78 29.04,26.87 28.76,27 Z M 27,28 H 26 V 30 H 27 V 28 Z M 28.25,28 H 31 V 30 H 30 V 29.4 C 29.7,29.81 29.57,30 29.07,30 C 28.37,30 28,29.44 28,28.78 C 28,28.45 28.09,28.19 28.25,28 Z M 31.95,28 C 32.09,28.11 32.25,28.2 32.45,28.3 L 32.53,28.33 C 32.78,28.44 33.14,28.6 33.14,28.9 C 33.14,29.1 33.06,29.23 32.68,29.23 C 32.28,29.23 31.86,29.09 31.51,28.91 V 29.78 C 31.86,29.94 32.17,30 32.65,30 C 33.43,30 34.14,29.65 34.14,28.79 C 34.14,28.44 34.02,28.19 33.82,28 H 31.94 Z M 33.66,27 A 1.93,1.93 0 0,0 32.86,26.79 C 32.6,26.79 32.51,26.86 32.5,27 H 31.5 C 31.55,26.29 32.22,26 32.87,26 C 33.31,26 33.68,26.1 34.09,26.31 L 33.83,27 H 33.66 Z M 35,28 V 28.66 C 35,29.41 35.28,30 36.1,30 C 36.47,30 36.8,29.92 37,29.81 V 29 C 36.8,29.07 36.6,29.13 36.38,29.13 C 36.12,29.13 36,28.98 36,28.67 V 28 H 35 Z M 36,27 H 35 V 26.83 H 34.5 V 26.36 L 35,26 L 35.32,25.01 H 36 V 26.01 H 37 V 26.84 H 36 V 27 Z M 37.8,28 V 28.03 C 37.8,29.13 38.43,30 39.59,30 C 40.12,30 40.46,29.92 40.8,29.73 V 28.91 C 40.42,29.11 40.07,29.21 39.63,29.21 C 39.09,29.21 38.83,28.86 38.8,28.27 H 41 V 28 H 37.8 Z M 40.87,27 C 40.66,26.42 40.17,26 39.45,26 A 1.5,1.5 0 0,0 38,27 H 38.96 A 0.56,0.56 0 0,1 39.46,26.75 C 39.67,26.75 39.81,26.85 39.89,27 H 40.87 Z M 42.05,28 V 30 H 43 V 28 H 42.05 Z M 43.49,27 H 42.05 V 26 H 42.77 L 42.91,26.73 H 42.96 L 43.05,26.53 C 43.19,26.23 43.3,26.01 43.68,26.01 C 43.78,26.01 43.92,26.02 44,26.04 V 27 A 0.78,0.78 0 0,0 43.74,26.99 H 43.64 L 43.49,27 Z M 9.75,28.16 L 10,28.15 V 28.46 C 10,28.96 9.8,29.23 9.4,29.23 C 9.13,29.23 8.95,29.11 8.95,28.79 C 8.95,28.42 9.15,28.18 9.75,28.16 Z M 29.79,28.16 L 30,28.15 V 28.46 C 30,28.96 29.84,29.23 29.43,29.23 C 29.16,29.23 29,29.11 29,28.79 C 29,28.42 29.18,28.18 29.79,28.16 Z" fill="rgb(248, 167, 35)" fill-rule="evenodd"/>
</svg>
