<?xml version="1.0" encoding="UTF-8"?>
<!-- generated by Finnhub -->
<svg viewBox="0 0 55.5 55.5" xmlns="http://www.w3.org/2000/svg">
<path d="M 0,0 H 55.5 V 55.5 H 0 Z" fill="rgb(48, 181, 236)"/>
<path d="M 18.203,19.31 L 11.528,16.492 A 1,1 0 0,0 10.218,17.022 L 9.541,18.617 A 3,3 0 0,0 11.133,22.55 L 16.152,24.677 A 1,1 0 0,1 16.754,25.721 L 15.963,32.052 C 15.435,36.272 18.726,40 22.979,40 A 7.065,7.065 0 0,0 28.475,37.377 A 8.518,8.518 0 0,0 34.641,40 A 8.56,8.56 0 0,0 43.134,32.503 L 44.111,24.686 A 1.5,1.5 0 0,0 42.623,23 H 40.087 A 1.5,1.5 0 0,0 38.601,24.3 L 37.547,32.136 A 2.594,2.594 0 0,1 32.407,31.446 L 32.91,27.7 A 1.5,1.5 0 0,0 31.423,26 H 28.805 A 1.5,1.5 0 0,0 27.318,27.3 L 26.668,32.136 A 2.594,2.594 0 1,1 21.528,31.446 L 22.687,22.818 A 2,2 0 0,0 21.485,20.71 L 18.214,19.324 H 18.213 Z" fill="rgb(254, 254, 253)"/>
</svg>
