<?xml version="1.0" encoding="UTF-8"?>
<!-- generated by Finnhub -->
<svg viewBox="0 0 55.5 55.5" xmlns="http://www.w3.org/2000/svg">
<path d="M 0,0 H 55.5 V 55.5 H 0 Z" fill="rgb(239, 242, 248)"/>
<path d="M 43.99,27.985 C 44,30.51 43.42,32.89 42.4,35 H 13.6 L 13.16,34 H 20.62 L 21,31.5 H 16.18 L 17.72,22 H 14.92 L 13.05,33.7 A 15.96,15.96 0 0,1 14.14,20 H 41.86 A 15.9,15.9 0 0,1 43.48,23.94 C 43.31,23.64 43.1,23.38 42.85,23.15 C 42.45,22.78 41.95,22.49 41.37,22.3 A 6.2,6.2 0 0,0 36.59,22.67 A 6.13,6.13 0 0,0 34.35,24.63 A 7.6,7.6 0 0,0 33.12,27.83 A 6.6,6.6 0 0,0 33.32,31.18 C 33.66,32.09 34.22,32.79 34.98,33.28 C 35.76,33.76 36.68,34 37.75,34 A 5.85,5.85 0 0,0 43.45,29.73 H 40.63 A 2.59,2.59 0 0,1 38.83,31.4 C 38.55,31.48 38.23,31.52 37.9,31.52 A 2.1,2.1 0 0,1 36.62,31.15 A 1.93,1.93 0 0,1 35.93,30.03 A 4.86,4.86 0 0,1 35.93,28.17 C 36.05,27.39 36.28,26.73 36.6,26.18 C 36.92,25.63 37.32,25.21 37.8,24.91 A 2.98,2.98 0 0,1 40.19,24.61 A 1.47,1.47 0 0,1 41.11,25.6 C 41.18,25.83 41.21,26.1 41.19,26.4 H 43.92 C 43.97,26.92 44,27.46 44,28 Z M 15.5,38 C 15,37.37 14.55,36.7 14.14,36 H 41.86 C 41.46,36.7 41,37.37 40.49,38 H 15.51 Z M 17.42,40 C 17.06,39.68 16.72,39.35 16.38,39 H 39.62 C 39.29,39.35 38.94,39.68 38.58,40 H 17.42 Z M 28,44 C 24.52,44 21.3,42.89 18.67,41 H 37.33 C 34.7,42.89 31.48,44 28,44 Z M 41.23,19 H 14.77 C 15.25,18.29 15.79,17.62 16.38,17 H 39.62 C 40.21,17.62 40.75,18.29 41.23,19 Z M 38.58,16 H 17.42 C 17.82,15.65 18.24,15.31 18.67,15 H 37.33 C 37.76,15.31 38.18,15.65 38.58,16 Z M 35.75,14 H 20.25 A 15.93,15.93 0 0,1 35.75,14 Z M 22,24.5 L 22.42,22 H 33 L 32.58,24.5 H 28.78 L 27.13,34 H 24.15 L 25.81,24.5 H 22 Z" fill="rgb(25, 48, 117)" fill-rule="evenodd"/>
</svg>
