<?xml version="1.0" encoding="UTF-8"?>
<!-- generated by Finnhub -->
<svg viewBox="0 0 55.5 55.5" xmlns="http://www.w3.org/2000/svg">
<path d="M 0,0 H 55.5 V 55.5 H 0 Z" fill="rgb(26, 1, 134)"/>
<path d="M 20.284,25.088 L 23.854,24.087 S 23.815,23.85 23.688,23.733 A 1.142,1.142 0 0,0 23.331,23.545 L 18.383,21.75 S 18.225,21.697 18.111,21.76 C 17.996,21.824 18,21.989 18,21.989 V 24.287 S 17.988,24.507 18.307,25 S 19.382,25.367 19.382,25.367 L 20.294,25.103 Z M 34.523,19.559 L 37.834,17.706 S 37.884,17.386 37.756,17.27 C 37.629,17.153 37.476,17.117 37.476,17.117 L 23.175,12.021 S 23.018,11.968 22.903,12.031 C 22.788,12.095 22.793,12.26 22.793,12.26 V 14.24 S 22.79,14.7 23.11,15.193 C 23.429,15.686 23.946,15.813 23.946,15.813 L 34.523,19.559 Z M 34.466,25.269 L 37.777,23.556 S 37.848,23.122 37.72,23.006 C 37.593,22.889 37.42,22.826 37.42,22.826 L 18.382,15.922 S 18.225,15.869 18.111,15.932 C 17.996,15.996 18,16.161 18,16.161 V 18.141 S 17.998,18.601 18.317,19.094 C 18.637,19.587 19.154,19.714 19.154,19.714 L 34.466,25.269 Z" fill="rgb(236, 21, 79)"/>
<path d="M 37.465,17.133 S 37.669,17.177 37.834,17.335 C 37.998,17.494 38,17.687 38,17.687 V 20.297 S 37.992,20.654 37.844,20.975 C 37.697,21.295 37.481,21.372 37.481,21.372 L 37.031,21.534 L 22.697,26.693 S 22.628,26.713 22.539,26.713 C 22.449,26.713 22.38,26.693 22.38,26.693 L 18.387,25.255 S 18.287,25.232 18.147,25.015 C 17.989,24.769 18,24.283 18,24.283 S 18.025,24.533 18.167,24.651 C 18.309,24.769 18.688,24.639 18.688,24.639 L 37.031,18.037 S 37.759,17.743 37.759,17.444 C 37.759,17.237 37.476,17.148 37.476,17.148 Z M 37.476,22.854 S 37.67,22.883 37.834,23.042 C 37.998,23.201 38,23.395 38,23.395 V 26.011 S 37.992,26.368 37.845,26.69 C 37.697,27.011 37.481,27.087 37.481,27.087 L 37.031,27.249 L 23,32.42 V 28.916 L 37.031,23.746 S 37.759,23.45 37.759,23.15 C 37.759,22.943 37.476,22.854 37.476,22.854 Z M 30.301,32.124 C 30.437,32.262 30.437,32.565 30.437,32.565 V 34.545 S 30.429,34.907 30.283,35.233 C 30.137,35.558 29.923,35.635 29.923,35.635 L 29.476,35.8 L 23,38.294 V 34.746 L 29.476,32.251 S 30.165,31.986 30.301,32.124 Z M 25.931,39.507 C 26.067,39.642 26.067,39.937 26.067,39.937 V 41.87 S 26.059,42.223 25.913,42.54 C 25.767,42.858 25.553,42.933 25.553,42.933 L 25.107,43.093 L 23,44 V 40.538 L 25.107,39.632 S 25.796,39.372 25.931,39.507 Z" fill="rgb(254, 254, 253)"/>
</svg>
