<?xml version="1.0" encoding="UTF-8"?>
<!-- generated by Finnhub -->
<svg viewBox="0 0 55.5 55.5" xmlns="http://www.w3.org/2000/svg">
<path d="M 0,0 H 55.5 V 55.5 H 0 Z" fill="rgb(239, 242, 248)"/>
<path d="M 42.99,13.985 H 14 V 42 H 43 V 14 Z M 13,13 V 43 H 44 V 13 H 13 Z" fill="rgb(9, 75, 122)" fill-rule="evenodd"/>
<path d="M 13.99,13.985 H 19 V 34 H 14 V 14 Z" fill="rgb(1, 128, 193)"/>
<path d="M 19.99,13.985 H 25 V 34 H 20 V 14 Z" fill="rgb(5, 76, 127)"/>
<path d="M 16.49,29.985 L 15,31 L 16.5,27 L 18,31 L 16.5,30 Z M 22.5,24 L 21,25 L 22.5,21 L 24,25 L 22.5,24 Z" fill="rgb(239, 242, 248)"/>
<path d="M 30.99,13.985 H 26 V 34 H 31 V 14 Z M 27,19 L 28.5,18 L 30,19 L 28.5,15 L 27,19 Z" fill="rgb(1, 128, 193)" fill-rule="evenodd"/>
<path d="M 36.99,13.985 H 32 V 34 H 37 V 14 Z M 33,26 L 34.5,25 L 36,26 L 34.5,22 L 33,26 Z" fill="rgb(5, 76, 127)" fill-rule="evenodd"/>
<path d="M 42.99,13.985 H 38 V 34 H 43 V 14 Z M 39,31 L 40.5,30 L 42,31 L 40.5,27 L 39,31 Z" fill="rgb(1, 128, 193)" fill-rule="evenodd"/>
<path d="M 16.99,37.985 V 35 H 18.5 C 18.89,35 19.18,35.12 19.37,35.26 C 19.57,35.4 19.67,35.58 19.67,35.8 C 19.67,35.96 19.63,36.09 19.55,36.2 A 0.77,0.77 0 0,1 19.22,36.46 C 19.08,36.52 18.92,36.55 18.75,36.55 L 18.83,36.38 C 19.03,36.38 19.2,36.41 19.34,36.48 C 19.49,36.53 19.61,36.62 19.69,36.73 A 0.7,0.7 0 0,1 19.82,37.16 C 19.82,37.41 19.72,37.6 19.51,37.74 C 19.3,37.88 18.99,38 18.59,38 H 17 Z M 17.65,37.44 H 18.5 A 1,1 0 0,0 18.95,37.36 C 19.05,37.3 19.1,37.21 19.1,37.09 A 0.3,0.3 0 0,0 18.95,36.82 A 0.77,0.77 0 0,0 18.54,36.72 H 17.65 V 36.24 H 18.41 C 18.59,36.24 18.71,36.21 18.81,36.16 C 18.91,36.1 18.95,36.01 18.95,35.9 C 18.95,35.78 18.9,35.7 18.81,35.64 A 0.74,0.74 0 0,0 18.41,35.56 H 17.65 V 37.44 Z M 21.5,38 C 20.7,38 20,37.3 20,36.5 S 20.5,35 21.5,35 C 22.43,35 23,35.72 23,36.5 S 22.3,38 21.5,38 Z M 22.3,36.5 C 22.3,36 21.81,35.7 21.5,35.7 C 21.19,35.7 20.7,36 20.7,36.5 S 21.1,37.3 21.5,37.3 S 22.3,37 22.3,36.5 Z M 24,38 L 23,35 H 23.74 L 24.63,37.67 H 24.13 L 25,36 L 25.5,35 L 26,36 L 26.79,37.67 H 26.35 L 27.32,35 H 28 L 27,38 H 26.3 L 25.41,36.24 H 25.68 L 24.78,38 H 24 Z M 28.29,38 V 35 H 29 V 37.45 H 30.54 V 38 H 28.3 Z M 31.65,36.22 H 33 V 36.74 H 31.65 V 36.22 Z M 31.71,37.42 H 33.5 V 38 H 31 V 35 H 33.5 V 35.6 H 31.7 V 37.41 Z M 34,38 V 35 H 35.33 C 35.61,35 35.84,35.04 36.04,35.13 C 36.24,35.21 36.39,35.33 36.5,35.49 C 36.61,35.65 36.67,35.83 36.67,36.05 C 36.67,36.27 36.61,36.45 36.5,36.61 C 36.4,36.77 36.24,36.89 36.04,36.97 C 35.84,37.05 35.61,37.09 35.33,37.09 H 34.4 L 34.71,36.79 V 38 H 34 Z M 36,38 L 35.19,36.85 H 35.95 L 36.77,38 H 36 Z M 34.71,36.87 L 34.4,36.56 H 35.3 C 35.51,36.56 35.67,36.51 35.78,36.43 C 35.89,36.33 35.95,36.21 35.95,36.05 A 0.45,0.45 0 0,0 35.78,35.68 C 35.68,35.59 35.51,35.55 35.29,35.55 H 34.39 L 34.71,35.23 V 36.87 Z M 38.5,38 C 37.7,38 37,37.3 37,36.5 S 37.5,35 38.5,35 C 39.43,35 40,35.72 40,36.5 S 39.3,38 38.5,38 Z M 39.3,36.5 C 39.3,36 38.96,35.7 38.5,35.7 S 37.7,36.04 37.7,36.5 S 38,37.3 38.5,37.3 S 39.3,37 39.3,36.5 Z" fill="rgb(7, 75, 126)"/>
<path d="M 18.959999999999997,40.985 A 0.92,0.92 0 0,1 18.27,40.72 A 1,1 0 0,1 18,40 A 0.99,0.99 0 0,1 18.28,39.28 A 0.98,0.98 0 0,1 18.98,39 C 19.13,39 19.27,39.03 19.39,39.09 C 19.52,39.15 19.62,39.23 19.71,39.34 L 19.44,39.61 A 0.61,0.61 0 0,0 19.24,39.44 A 0.59,0.59 0 0,0 18.76,39.43 A 0.52,0.52 0 0,0 18.58,39.55 A 0.6,0.6 0 0,0 18.46,39.75 A 0.73,0.73 0 0,0 18.42,40 A 0.6,0.6 0 0,0 18.58,40.45 C 18.63,40.5 18.69,40.55 18.76,40.57 A 0.59,0.59 0 0,0 19.24,40.57 C 19.31,40.52 19.38,40.47 19.44,40.39 L 19.71,40.65 C 19.62,40.77 19.51,40.85 19.39,40.91 A 0.98,0.98 0 0,1 18.97,41 Z M 20.82,41 A 0.94,0.94 0 0,1 19.91,40.4 A 1.08,1.08 0 0,1 19.84,40 A 0.97,0.97 0 0,1 20.44,39.07 A 1,1 0 0,1 20.82,39 A 0.91,0.91 0 0,1 21.52,39.28 A 1.03,1.03 0 0,1 21.8,40 C 21.8,40.14 21.77,40.28 21.73,40.4 A 0.97,0.97 0 0,1 21.21,40.93 A 0.98,0.98 0 0,1 20.82,41 Z M 20.82,40.62 A 0.54,0.54 0 0,0 21.34,40.25 A 0.7,0.7 0 0,0 21.38,40 A 0.7,0.7 0 0,0 21.34,39.75 A 0.57,0.57 0 0,0 21.04,39.43 A 0.56,0.56 0 0,0 20.82,39.38 A 0.53,0.53 0 0,0 20.42,39.55 A 0.6,0.6 0 0,0 20.3,39.75 A 0.73,0.73 0 0,0 20.26,40 A 0.63,0.63 0 0,0 20.42,40.45 A 0.53,0.53 0 0,0 20.82,40.62 Z M 22,41 V 39 H 22.78 C 22.94,39 23.08,39.03 23.19,39.09 C 23.31,39.14 23.39,39.22 23.46,39.33 C 23.52,39.43 23.56,39.56 23.56,39.7 C 23.56,39.85 23.52,39.97 23.46,40.07 A 0.62,0.62 0 0,1 23.19,40.31 A 0.96,0.96 0 0,1 22.78,40.4 H 22.23 L 22.41,40.2 V 41 H 22 Z M 23.19,41 L 22.69,40.23 H 23.13 L 23.63,41 H 23.19 Z M 22.41,40.25 L 22.23,40.04 H 22.75 C 22.88,40.04 22.98,40.01 23.04,39.95 C 23.1,39.89 23.14,39.81 23.14,39.7 C 23.14,39.6 23.1,39.51 23.04,39.45 C 22.98,39.39 22.88,39.36 22.75,39.36 H 22.23 L 22.41,39.16 V 40.25 Z M 24,41 V 39 H 24.74 C 24.91,39 25.07,39.02 25.18,39.08 C 25.3,39.13 25.38,39.21 25.45,39.32 C 25.51,39.42 25.55,39.55 25.55,39.69 C 25.55,39.84 25.51,39.96 25.45,40.07 C 25.32,40.29 25.01,40.37 24.77,40.37 H 24.22 L 24.41,40.17 V 41 H 24 Z M 24.4,40.21 L 24.22,40 H 24.74 C 24.94,40 25.13,39.9 25.13,39.7 C 25.13,39.59 25.09,39.5 25.03,39.44 C 24.97,39.39 24.87,39.36 24.74,39.36 H 24.22 L 24.41,39.14 V 40.21 Z M 26.74,41 A 0.94,0.94 0 0,1 25.83,40.4 A 1.08,1.08 0 0,1 25.75,40 C 25.75,39.86 25.78,39.72 25.83,39.6 A 0.97,0.97 0 0,1 26.35,39.07 A 1,1 0 0,1 26.73,39 A 0.91,0.91 0 0,1 27.43,39.28 A 1.03,1.03 0 0,1 27.71,40 A 0.97,0.97 0 0,1 27.11,40.93 A 0.98,0.98 0 0,1 26.74,41 Z M 26.74,40.62 A 0.54,0.54 0 0,0 27.25,40.25 A 0.7,0.7 0 0,0 27.29,40 A 0.7,0.7 0 0,0 27.25,39.75 A 0.57,0.57 0 0,0 26.95,39.43 A 0.56,0.56 0 0,0 26.73,39.38 A 0.53,0.53 0 0,0 26.33,39.55 A 0.6,0.6 0 0,0 26.21,39.75 A 0.73,0.73 0 0,0 26.17,40 C 26.17,40.09 26.19,40.17 26.21,40.25 C 26.24,40.33 26.28,40.39 26.33,40.45 A 0.53,0.53 0 0,0 26.73,40.62 Z M 28,41 V 39 H 28.75 C 28.91,39 29.07,39.02 29.19,39.08 C 29.3,39.13 29.39,39.21 29.46,39.32 C 29.52,39.42 29.56,39.55 29.56,39.69 C 29.56,39.84 29.52,39.96 29.46,40.07 A 0.62,0.62 0 0,1 29.19,40.3 A 0.96,0.96 0 0,1 28.77,40.39 H 28.23 L 28.41,40.19 V 41 H 28 Z M 29.14,41 L 28.69,40.22 H 29.13 L 29.59,41 H 29.14 Z M 28.41,40.24 L 28.23,40.03 H 28.75 C 28.88,40.03 28.97,40 29.04,39.94 C 29.1,39.88 29.14,39.8 29.14,39.69 C 29.14,39.59 29.1,39.5 29.04,39.44 C 28.97,39.39 28.88,39.36 28.75,39.36 H 28.23 L 28.41,39.14 V 40.24 Z M 29.66,41 L 30.49,39 H 30.89 L 31.67,41 H 31.23 L 30.61,39.22 H 30.77 L 30.1,41 H 29.67 Z M 30.09,40.51 L 30.19,40.17 H 31.12 L 31.23,40.51 H 30.1 Z M 32,41 V 39.36 H 31.44 V 39 H 33 V 39.36 H 32.43 V 41 H 32 Z M 33.36,41 V 39 H 33.77 V 41 H 33.36 Z M 35.07,41 A 0.94,0.94 0 0,1 34.16,40.4 A 1.08,1.08 0 0,1 34.09,40 A 0.97,0.97 0 0,1 34.69,39.07 A 1,1 0 0,1 35.07,39 A 0.91,0.91 0 0,1 35.77,39.28 A 1.03,1.03 0 0,1 36.05,40 C 36.05,40.14 36.02,40.28 35.97,40.4 A 0.97,0.97 0 0,1 35.45,40.93 A 0.98,0.98 0 0,1 35.07,41 Z M 35.07,40.62 A 0.54,0.54 0 0,0 35.58,40.25 A 0.7,0.7 0 0,0 35.63,40 A 0.7,0.7 0 0,0 35.58,39.75 A 0.57,0.57 0 0,0 35.28,39.43 A 0.56,0.56 0 0,0 35.07,39.38 A 0.53,0.53 0 0,0 34.67,39.55 A 0.6,0.6 0 0,0 34.55,39.75 A 0.73,0.73 0 0,0 34.51,40 C 34.51,40.09 34.51,40.17 34.55,40.25 C 34.58,40.33 34.61,40.39 34.66,40.45 A 0.53,0.53 0 0,0 35.06,40.62 Z M 36.36,41 V 39 H 36.7 L 37.76,40.43 H 37.59 V 39 H 38 V 41 H 37.66 L 36.6,39.57 H 36.77 V 41 H 36.36 Z" fill="rgb(9, 72, 120)"/>
</svg>
