<?xml version="1.0" encoding="UTF-8"?>
<!-- generated by Finnhub -->
<svg viewBox="0 0 55.5 55.5" xmlns="http://www.w3.org/2000/svg">
<path d="M 0,0 H 55.5 V 55.5 H 0 Z" fill="rgb(239, 242, 248)"/>
<path d="M 30.099999999999998,19.985 H 32.77 L 21.54,36 H 18.91 L 30.11,20 Z M 6,33 H 12 V 31 H 8.4 V 23 H 6 V 33 Z M 13,33 H 20 V 31 H 15.4 V 29 H 20 V 27 H 15.4 V 25 H 20 V 23 H 13 V 33 Z M 24.32,27.8 L 25.62,25.93 L 23.86,23 H 21.2 L 24.32,27.8 Z M 27.73,33 H 30.25 L 27.25,28.36 L 25.93,30.23 L 27.73,33 Z M 41.2,24.65 A 5.24,5.24 0 0,0 41.2,31.35 A 5.2,5.2 0 0,0 48.83,31.32 A 5.26,5.26 0 0,0 48.74,24.58 A 5.15,5.15 0 0,0 41.2,24.65 Z M 46.83,26.01 A 3.16,3.16 0 0,1 46.73,30.11 A 2.56,2.56 0 0,1 44.88,30.81 A 2.51,2.51 0 0,1 43.1,29.94 A 3.16,3.16 0 0,1 43.22,25.95 C 43.6,25.57 44.1,25.32 44.62,25.25 A 2.47,2.47 0 0,1 46.83,26.01 Z M 32,33 H 39 V 31 H 34.4 V 29 H 39 V 27 H 34.4 V 25 H 39 V 23 H 32 V 33 Z" fill="rgb(24, 78, 150)"/>
</svg>
