<?xml version="1.0" encoding="UTF-8"?>
<!-- generated by Finnhub -->
<svg viewBox="0 0 55.5 55.5" xmlns="http://www.w3.org/2000/svg">
<path d="M 0,0 H 55.5 V 55.5 H 0 Z" fill="rgb(239, 242, 248)"/>
<path d="M 16.369999999999997,18.245 A 7.94,7.94 0 0,0 13.44,20.78 A 0.44,0.44 0 0,0 13.56,20.72 C 14.66,19.75 16.38,19.12 17.56,18.73 C 18.49,18.43 20.68,18.19 21.52,18.2 C 22.35,18.22 24.65,18.32 25.44,18.43 C 26.24,18.55 28.32,18.72 29.31,18.94 C 29.46,18.97 29.61,19.01 29.76,19.08 C 30.02,19.23 30.08,19.61 29.87,19.99 A 6.65,6.65 0 0,1 28.41,21.42 C 28.01,21.71 27.31,22.33 26.81,22.79 C 26.59,22.99 26.31,22.99 26.06,23.11 C 25.93,23.17 25.79,23.21 25.67,23.35 C 25.54,23.5 25.42,23.73 25.32,23.94 C 25.22,24.12 24.86,24.97 24.53,25.02 C 24.65,24.79 24.95,24.55 25.06,23.88 C 24.92,24.14 24.76,24.34 24.63,24.58 C 24.66,24.32 24.73,24.14 24.75,23.93 C 24.57,24.08 24.53,24.53 24.31,24.46 L 24.46,23.89 L 23.94,24.44 L 24.13,23.79 L 23.58,24.27 L 23.55,24.18 L 23.73,23.74 C 23.71,23.73 23.71,23.7 23.7,23.68 L 23.25,23.96 L 23.37,23.59 L 22.91,23.8 C 22.96,23.67 22.99,23.6 23.03,23.44 C 22.88,23.5 22.76,23.53 22.66,23.58 C 22.51,23.64 21.87,23.98 21.69,23.98 C 21.99,23.67 22.81,23.01 23.05,22.76 C 23.55,22.22 24.05,22 24.59,22.01 C 24.63,22.01 24.2,22.48 24.2,22.48 L 24.95,22.08 C 24.98,22.08 24.66,22.58 24.66,22.58 S 25.23,22.13 25.24,22.15 C 25.29,22.18 25.02,22.62 25.02,22.62 S 25.49,22.21 25.52,22.22 C 25.58,22.24 25.35,22.7 25.35,22.7 S 25.72,22.32 25.82,22.36 C 25.85,22.38 25.55,22.86 25.55,22.86 S 26.03,22.44 26.05,22.46 C 26.15,22.5 25.69,23 25.69,23 S 26.21,22.71 26.34,22.68 C 26.43,22.66 26.54,22.6 26.61,22.53 A 18.1,18.1 0 0,1 28.2,21.09 C 28.5,20.84 29.27,20.34 29.41,20.09 C 29.55,19.84 29.51,19.63 29.33,19.57 A 1,1 0 0,0 28.97,19.49 C 28.07,19.49 26.28,19.64 25.37,19.64 C 25.35,20.25 25.21,20.44 24.89,20.37 L 24.96,19.95 L 24.66,20.19 C 24.52,19.86 24.66,19.66 24.74,19.52 L 23.55,19.76 C 22.91,19.92 22.39,20.52 21.95,21.42 C 21.85,21.63 21.72,21.82 21.62,22.02 C 21.35,22.5 21.02,22.5 20.67,22.6 C 19.84,22.88 17.22,23.14 16.45,23.88 C 16.31,24.01 16.19,24.15 16.1,24.32 C 15.9,24.62 15.75,24.99 15.78,25.53 C 15.55,25.05 15.52,24.44 15.7,23.39 C 15.18,23.91 15.04,25.14 15.38,26.4 C 15.15,26.22 15.04,25.87 14.92,24.78 C 14.89,25.06 14.86,25.35 14.85,25.64 C 14.83,25.94 14.85,26.24 14.85,26.55 L 14.78,26.69 L 14.7,26.35 C 14.6,26.08 14.39,26.1 14.3,26.39 L 14.29,26.46 C 14.14,27.14 13.87,27.42 13.49,27.56 C 12.9,27.78 12.34,28.13 11.76,28.45 C 11.64,28.51 11.52,28.68 11.43,28.85 C 11.18,29.3 11.26,29.92 11.6,30.12 C 12.01,30.36 12.44,30.36 12.87,30.29 C 13.62,30.15 13.6,30.05 14.17,29.62 C 14.4,29.41 14.47,29.22 14.57,28.98 C 14.61,28.81 14.67,28.65 14.76,28.5 C 14.8,28.42 14.88,28.34 14.94,28.34 C 15.29,28.31 15.65,28.34 16.02,28.3 C 16.52,28.25 17.02,28.16 17.51,28.09 L 18.58,27.9 C 18.61,27.9 18.64,27.89 18.67,27.92 C 19.45,28.62 20.14,29.54 20.57,31.05 C 20.87,32.11 20.79,33.17 20.71,34.35 C 20.68,34.93 20.48,35.05 20.25,34.85 C 20.03,34.65 19.81,34.39 19.65,34.04 C 18.71,31.93 17.52,30.61 16.11,30.12 A 0.69,0.69 0 0,1 15.96,30.05 C 15.92,30.03 15.87,30.01 15.83,29.94 L 17.34,28.81 L 17.33,28.75 C 16.99,28.92 16.66,29.1 16.32,29.24 C 15.25,29.67 15.34,30.08 14.26,30.49 C 14,30.58 13.76,30.61 13.5,30.64 C 13.36,30.65 13.32,30.76 13.32,31 C 13.31,31.56 13.29,31.58 13.01,31.38 C 12.89,31.29 12.77,31.21 12.65,31.17 C 12.43,31.07 12.34,31.18 12.33,31.59 C 12.31,32.25 12.28,32.9 12.28,33.55 C 12.3,34.52 12.19,35.47 12.04,36.39 C 12,36.6 11.92,36.8 11.87,37 C 11.67,36.86 11.7,36.6 11.72,36.36 C 11.73,35.83 11.78,35.31 11.78,34.78 C 11.78,33.64 11.63,32.55 11.38,31.52 A 1.3,1.3 0 0,0 11.26,31.2 L 10.19,29.74 C 9.47,30.54 8.72,31.4 7.97,32.26 C 7.72,32.55 7.47,32.86 7.17,32.86 C 7.11,32.86 7.02,32.86 7.01,32.82 A 0.82,0.82 0 0,1 7.02,32.49 C 7.25,32.02 7.44,31.49 7.71,31.09 A 19.73,19.73 0 0,1 12.11,26.51 C 12.22,26.41 12.33,26.34 12.43,26.17 L 11.58,26.7 L 10.72,27.31 C 10.44,27.52 10.16,27.75 9.88,27.98 C 9.8,26.77 10.07,25.81 10.42,24.91 C 10.78,24.05 11.2,23.29 11.69,22.7 C 11.99,22.33 12.06,21.81 12.07,21.24 C 12.12,19.87 11.84,18.67 11.49,17.52 L 11.39,17.15 C 11.7,16.89 11.99,17.02 12.29,17.14 C 12.82,17.37 13.35,17.67 13.89,17.87 C 14.29,18.02 14.69,18.09 15.09,18.12 C 15.53,18.17 15.98,18.14 16.42,18.14 C 16.38,18.19 16.38,18.22 16.38,18.26 Z" fill="rgb(4, 80, 157)"/>
<path d="M 26.849999999999998,20.325 C 26.73,20.24 26.58,20.14 26.46,20.03 L 26.48,19.87 L 26.88,20.17 L 26.86,20.34 Z" fill="rgb(4, 80, 157)"/>
<path d="M 29.93,32.985 H 27.81 L 28.04,29.34 L 28.14,27.94 C 28.07,28.2 28.03,28.47 27.97,28.7 L 27.79,29.41 L 26.79,33 H 25.13 L 24.95,29.4 C 24.93,29.2 24.93,28.85 24.93,28.36 V 27.92 L 24.73,29.34 L 24.16,33 H 22 L 23.72,25 H 26.25 L 26.4,27.73 L 26.41,28.43 L 26.4,29.23 C 26.48,28.79 26.6,28.35 26.73,27.92 L 27.54,25 H 30.06 L 29.94,33 Z M 36.01,33 H 33.91 L 33.87,32 H 32.49 L 32.22,33 H 30.12 L 32.77,25 H 35.26 L 36.01,33 Z M 33.81,30.23 L 33.78,29.33 V 29.19 L 33.76,28.32 V 27.72 L 33.78,26.99 L 33.72,27.22 L 33.64,27.5 L 33.55,27.93 L 33.52,28.08 L 33.29,29.01 L 32.95,30.23 H 33.81 Z M 41.88,33 H 39.68 L 38.72,29.31 L 38.38,33 H 36.35 L 37.2,25 H 39.23 L 38.81,28.45 L 40.37,25 H 42.52 L 40.49,28.87 L 41.88,33 Z M 47.95,29.03 A 5.39,5.39 0 0,1 46.85,31.9 A 2.7,2.7 0 0,1 44.7,33 C 43.96,33 43.36,32.72 42.88,32.16 C 42.28,31.44 42.08,30.38 42.23,28.94 C 42.38,27.58 42.83,26.53 43.63,25.8 C 44.2,25.27 44.83,25 45.55,25 C 46.42,25 47.07,25.37 47.5,26.1 C 47.95,26.82 48.1,27.8 47.96,29.03 Z M 45.83,29.04 C 45.98,27.65 45.82,26.96 45.35,26.96 C 45.11,26.96 44.89,27.13 44.71,27.5 C 44.53,27.84 44.41,28.35 44.34,29 C 44.26,29.65 44.28,30.16 44.37,30.51 C 44.46,30.87 44.62,31.04 44.86,31.04 C 45.09,31.04 45.3,30.87 45.46,30.51 C 45.64,30.17 45.76,29.67 45.83,29.04 Z M 21.94,33.65 H 48 V 34 H 21.94 V 33.65 Z" fill="rgb(200, 165, 43)"/>
<path d="M 21.99,34.985 H 48 V 37 H 22 Z" fill="rgb(200, 165, 43)" opacity=".5"/>
</svg>
