<?xml version="1.0" encoding="UTF-8"?>
<!-- generated by Finnhub -->
<svg viewBox="0 0 55.5 55.5" xmlns="http://www.w3.org/2000/svg">
<path d="M0 0h55.5v55.5H0z" fill="url(#b)"/>
<path d="m16.5 28 2 4 2.5-4 3.5 6 2-9 4 12.5L34 25l2.5 15.5L40 28l-2.5 3.5L35 9l-4.5 17L27 15.5l-3.5 13L21 26l-2.5 3.5-2-1.5ZM28 42c2.58 0 5-.7 7.08-1.92l.78 1.86a16 16 0 1 1-3.03-29.2l-.3 2.01A14 14 0 1 0 28 42Zm10-1.51.94-3.75A13.97 13.97 0 0 0 37 17.28v-2.51a15.98 15.98 0 0 1 1 25.72Z" fill="url(#a)"/>
<defs>
<linearGradient id="b" x1="10.42" x2="68.15" y1="9.71" y2="76.02" gradientUnits="userSpaceOnUse">
<stop stop-color="rgb(25, 29, 31)" offset="0"/>
<stop stop-color="rgb(5, 5, 8)" offset="1"/>
</linearGradient>
<linearGradient id="a" x1="16" x2="36.5" y1="19" y2="39.5" gradientUnits="userSpaceOnUse">
<stop stop-color="rgb(244, 158, 183)" offset="0"/>
<stop stop-color="rgb(213, 223, 58)" offset="1"/>
</linearGradient>
</defs>
</svg>
