<?xml version="1.0" encoding="UTF-8"?>
<!-- generated by Finnhub -->
<svg viewBox="0 0 55.5 55.5" xmlns="http://www.w3.org/2000/svg">
<path d="M 0,0 H 55.5 V 55.5 H 0 Z" fill="rgb(239, 242, 248)"/>
<path d="M 24.16,28.715 C 24.63,29.28 25.16,29.68 25.77,29.93 C 28.72,32.06 38.6,38.1 41.96,35.58 C 45.19,33.16 37.4,25.71 35.81,24.2 C 35.77,24.16 35.78,24.14 35.82,24.12 C 35.85,24.1 35.88,24.11 35.9,24.12 C 39.1,27.17 44,31.56 44.9,36.09 C 45.76,40.49 41,40.17 38.56,39.55 C 29.51,37.27 19.08,29.7 13.71,21.67 C 11.63,18.57 10.46,13.57 16.21,14.03 C 18.54,14.22 20.75,14.84 22.84,15.91 C 22.89,15.93 22.88,15.95 22.84,15.95 H 22.72 C 21.01,15.17 16.35,13.61 14.95,15.54 C 12.46,18.97 21.94,27.08 24.17,28.74 Z" fill="rgb(122, 154, 62)"/>
<path d="M 25.75,29.915 A 4.1,4.1 0 0,1 24.17,28.73 L 25.33,26.83 C 25.39,26.74 25.37,26.66 25.29,26.6 C 23.74,25.37 22.19,24.15 20.64,22.95 C 20.03,22.47 19.84,22.05 19.89,21.27 C 19.89,21.14 19.95,21.11 20.06,21.19 L 25.8,25.67 C 25.9,25.75 26,25.74 26.07,25.62 L 26.27,25.32 C 26.34,25.2 26.33,25.09 26.22,25 C 24.38,23.51 22.52,22.05 20.67,20.6 C 19.95,20.04 19.8,19.47 19.74,18.6 C 19.72,18.43 19.78,18.4 19.91,18.5 L 26.87,23.95 A 0.23,0.23 0 0,0 27.17,23.94 C 27.21,23.9 27.24,23.84 27.25,23.79 C 27.25,23.73 27.25,23.67 27.21,23.62 C 27.13,23.48 27.01,23.34 26.84,23.22 L 19.79,17.59 A 0.24,0.24 0 0,1 19.69,17.44 L 19.35,15.74 C 19.32,15.57 19.36,15.54 19.49,15.64 L 27.71,22.08 C 27.88,22.22 27.98,22.18 28.01,21.95 C 28.38,18.45 33.11,17.95 32.71,21.43 A 3.4,3.4 0 0,1 30.72,24.2 C 30.59,24.27 30.58,24.35 30.7,24.44 L 38.9,30.9 C 39.12,31.07 39.1,31.17 38.82,31.2 L 37.31,31.3 A 0.33,0.33 0 0,1 37.08,31.23 C 34.74,29.39 32.08,27.58 29.91,25.57 C 29.71,25.38 29.51,25.33 29.33,25.41 A 0.24,0.24 0 0,0 29.23,25.49 A 0.26,0.26 0 0,0 29.2,25.74 C 29.22,25.78 29.24,25.82 29.28,25.84 L 36.32,31.39 C 36.38,31.43 36.38,31.47 36.32,31.51 C 35.55,31.86 34.92,31.82 34.4,31.41 A 299.7,299.7 0 0,0 28.45,26.76 A 0.17,0.17 0 0,0 28.21,26.8 L 27.99,27.1 A 0.25,0.25 0 0,0 27.95,27.28 A 0.25,0.25 0 0,0 28.05,27.44 L 33.84,32.02 C 33.92,32.09 33.92,32.15 33.82,32.2 C 33.28,32.48 32.83,32.49 32.48,32.21 C 30.8,30.94 29.1,29.61 27.4,28.24 A 0.26,0.26 0 0,0 27.2,28.18 A 0.26,0.26 0 0,0 27.04,28.28 L 25.76,29.93 Z" fill="rgb(35, 45, 116)"/>
<path d="M 19.84,35.735 C 20.05,36.13 20.29,36.34 20.56,36.37 C 21.72,37.16 27.7,41.04 28.38,38.41 A 0.54,0.54 0 0,0 28.35,38.06 A 9.12,9.12 0 0,0 25.72,34.54 A 0.1,0.1 0 0,1 25.72,34.5 A 0.42,0.42 0 0,0 25.72,34.4 A 12.4,12.4 0 0,1 29.46,39.3 C 29.51,39.4 29.52,39.51 29.5,39.62 C 29.04,41.92 25.83,40.79 24.5,40.18 A 25.23,25.23 0 0,1 16.75,34.48 C 15.93,33.62 14.15,31.32 15.03,30.12 C 15.83,29.02 18.1,29.62 19.03,30.14 C 19.33,30.3 19.32,30.33 19,30.22 C 18.39,30 15.34,29.22 15.98,31.13 C 16.58,32.92 18.45,34.67 19.85,35.75 Z" fill="rgb(122, 154, 62)"/>
<path d="M 20.549999999999997,36.355 C 20.29,36.34 20.06,36.13 19.86,35.75 L 22.13,32.06 C 22.2,31.95 22.29,31.93 22.39,32.02 L 23.27,32.74 C 23.37,32.82 23.38,32.91 23.3,33.02 L 20.56,36.37 Z" fill="rgb(35, 45, 116)"/>
</svg>
