<?xml version="1.0" encoding="UTF-8"?>
<!-- generated by Finnhub -->
<svg viewBox="0 0 55.5 55.5" xmlns="http://www.w3.org/2000/svg">
<path d="M 0,0 H 55.5 V 55.5 H 0 Z" fill="rgb(239, 242, 248)"/>
<path d="M 3.99,29.985 V 24 H 5.07 L 8.62,28.88 L 12.08,24 H 13 V 30 H 12 V 26.04 L 8.96,30 H 8.04 L 5,25.92 V 30 H 4 Z M 20,25 H 15 V 26 H 20 V 25 Z M 15,27 H 20 V 28 H 15 V 27 Z M 20,29 H 15 V 30 H 20 V 29 Z M 27.35,25 H 22 V 30 H 27.35 C 28.26,30 29,29.33 29,28.5 V 26.5 C 29,25.67 28.26,25 27.35,25 Z M 27.33,26 H 23 V 29 H 27.33 C 27.7,29 28,28.76 28,28.47 V 26.53 C 28,26.23 27.7,26 27.33,26 Z M 45,25.9 C 45,25.4 45.45,25 46,25 H 51 C 51.55,25 52,25.4 52,25.9 V 29.1 C 52,29.6 51.55,30 51,30 H 46 C 45.45,30 45,29.6 45,29.1 V 25.9 Z M 46,26.38 C 46,26.17 46.22,26 46.5,26 H 50.5 C 50.78,26 51,26.17 51,26.38 V 28.62 C 51,28.83 50.78,29 50.5,29 H 46.5 C 46.22,29 46,28.83 46,28.62 V 26.38 Z M 30.8,30 H 29.5 L 32.92,25 H 33.62 L 37,30 H 35.77 L 33.26,26.2 L 30.79,30 Z M 38,30 V 25 H 42.78 C 43.48,25 44.05,25.55 44.05,26.22 V 26.8 C 44.05,27.46 43.51,27.97 42.83,28 L 43.91,30 H 42.88 L 41.81,28 H 39 V 30 H 38 Z M 42.38,26 H 39 V 27 H 42.38 C 42.72,27 43,26.78 43,26.5 S 42.72,26 42.38,26 Z" fill="rgb(51, 112, 188)" fill-rule="evenodd"/>
</svg>
