<!-- by Finnhub --><svg width="56" height="56" viewBox="0 0 56 56" fill="none" xmlns="http://www.w3.org/2000/svg">
<rect width="56" height="56" fill="#F0F3FA"/>
<path fill-rule="evenodd" clip-rule="evenodd" d="M19.8764 10.1419C20.4111 9.89425 21.0423 9.97524 21.4956 10.3497L27.8562 15.6046L34.5299 10.3291C34.9866 9.96811 35.6119 9.89806 36.1385 10.1489C36.6651 10.3997 37 10.9271 37 11.5056V26.2036C37 27.0351 36.319 27.7092 35.479 27.7092C34.639 27.7092 34 27.0351 34 26.2036V14.6347L28.7841 18.7246C28.2194 19.171 27.4153 19.1624 26.8604 18.704L22 14.7233V26.2036C22 27.0351 21.361 27.7092 20.521 27.7092C19.681 27.7092 19 27.0351 19 26.2036V11.5056C19 10.9212 19.3416 10.3896 19.8764 10.1419Z" fill="black"/>
<path fill-rule="evenodd" clip-rule="evenodd" d="M41.1289 14.0436C41.6606 14.2919 42 14.8227 42 15.4061V26.2036C42 27.0351 41.321 27.7092 40.4834 27.7092C39.6458 27.7092 39 27.0351 39 26.2036V18.6073L28.9782 26.8174C28.4175 27.2783 27.606 27.2787 27.0448 26.8183L17 18.6037V26.2036C17 27.0351 16.3542 27.7092 15.5166 27.7092C14.679 27.7092 14 27.0351 14 26.2036V15.4061C14 14.823 14.3392 14.2923 14.8706 14.0439C15.402 13.7955 16.0301 13.8741 16.4828 14.2455L28.0102 23.7037L39.5162 14.2464C39.9688 13.8744 40.5971 13.7954 41.1289 14.0436Z" fill="#0188CC"/>
<path fill-rule="evenodd" clip-rule="evenodd" d="M19.8764 45.8581C20.4111 46.1058 21.0423 46.0248 21.4956 45.6503L27.8562 40.3954L34.5299 45.6709C34.9866 46.0319 35.6119 46.1019 36.1385 45.8511C36.6651 45.6003 37 45.0729 37 44.4944V29.7964C37 28.9649 36.319 28.2908 35.479 28.2908C34.639 28.2908 34 28.9649 34 29.7964V41.3653L28.7841 37.2754C28.2194 36.829 27.4153 36.8376 26.8604 37.296L22 41.2767V29.7964C22 28.9649 21.361 28.2908 20.521 28.2908C19.681 28.2908 19 28.9649 19 29.7964V44.4944C19 45.0788 19.3416 45.6104 19.8764 45.8581Z" fill="black"/>
<path fill-rule="evenodd" clip-rule="evenodd" d="M41.1289 41.9564C41.6606 41.7081 42 41.1773 42 40.5939V29.7964C42 28.9649 41.321 28.2908 40.4834 28.2908C39.6458 28.2908 39 28.9649 39 29.7964V37.3927L28.9782 29.1826C28.4175 28.7217 27.606 28.7213 27.0448 29.1817L17 37.3963V29.7964C17 28.9649 16.3542 28.2908 15.5166 28.2908C14.679 28.2908 14 28.9649 14 29.7964V40.5939C14 41.177 14.3392 41.7077 14.8706 41.9561C15.402 42.2045 16.0301 42.1259 16.4828 41.7545L28.0102 32.2963L39.5162 41.7536C39.9688 42.1256 40.5971 42.2046 41.1289 41.9564Z" fill="#0188CC"/>
</svg>
