<?xml version="1.0" encoding="UTF-8"?>
<!-- generated by Finnhub -->
<svg viewBox="0 0 55.5 55.5" xmlns="http://www.w3.org/2000/svg">
<path d="M 0,0 H 55.5 V 55.5 H 0 Z" fill="rgb(239, 242, 248)"/>
<path d="M 25.81,20.634999999999998 L 25.87,18.68 C 25.87,18.59 25.83,18.56 25.74,18.58 L 24.64,18.84 L 22.82,18.97 L 20.93,18.89 C 20.85,18.89 20.81,18.92 20.81,19 L 20.73,20.92 A 1.95,1.95 0 0,1 19.53,20.38 A 0.28,0.28 0 0,1 19.45,20.18 V 18 C 19.45,17.9 19.49,17.83 19.55,17.76 C 19.77,17.54 20.05,17.39 20.37,17.31 C 22.09,16.88 23.79,16.88 25.47,17.31 C 25.76,17.39 26.01,17.51 26.22,17.71 C 26.29,17.77 26.32,17.85 26.32,17.94 L 26.27,20.34 C 26.27,20.4 26.24,20.46 26.18,20.51 C 26.09,20.57 25.98,20.61 25.82,20.64 Z" fill="rgb(218, 45, 58)"/>
<path d="M 22.869999999999997,18.435 C 23.74,18.45 24.43,18.27 24.43,18.03 C 24.43,17.8 23.73,17.61 22.88,17.61 C 22.02,17.61 21.33,17.81 21.33,18.03 C 21.33,18.27 22.03,18.45 22.88,18.45 Z" fill="rgb(236, 161, 146)"/>
<path d="M 38.64,22.185 L 38.44,20.33 C 38.42,20.19 38.34,20.13 38.18,20.13 L 36.73,20.23 C 35.88,20.31 35,20.24 34.09,20.03 L 33.17,19.8 C 33.09,19.78 33.05,19.81 33.05,19.89 V 21.97 C 32.75,21.84 32.59,21.67 32.59,21.47 V 19.37 A 0.6,0.6 0 0,1 32.98,18.77 C 33.52,18.53 34.12,18.37 34.77,18.3 C 36.79,18.1 38.35,18.28 39.47,18.85 C 39.61,18.92 39.69,19.04 39.69,19.2 L 39.71,21.32 C 39.71,21.76 39.36,22.06 38.65,22.21 Z" fill="rgb(218, 45, 58)"/>
<path d="M 25.81,20.634999999999998 A 0.34,0.34 0 0,0 25.66,20.79 C 25.64,20.84 25.66,20.89 25.71,20.97 C 26.45,21.93 27.21,22.88 28.01,23.81 A 0.45,0.45 0 0,1 27.93,23.83 C 27.89,23.84 27.86,23.86 27.85,23.9 C 27.8,24.08 27.71,24.17 27.59,24.16 A 30.72,30.72 0 0,0 25.47,21.16 A 0.3,0.3 0 0,0 25.39,21.01 A 7.52,7.52 0 0,1 24.29,19.61 C 24.21,19.5 24.24,19.44 24.39,19.46 C 24.48,19.48 24.53,19.52 24.56,19.6 C 24.62,19.77 24.67,19.77 24.72,19.6 A 0.9,0.9 0 0,0 24.63,18.84 L 25.73,18.58 C 25.83,18.56 25.87,18.59 25.87,18.68 L 25.82,20.65 Z M 22.83,18.97 L 22.78,21.14 C 21.98,21.19 21.3,21.12 20.73,20.92 L 20.81,19 C 20.81,18.92 20.85,18.88 20.93,18.89 L 22.83,18.97 Z" fill="rgb(230, 128, 112)"/>
<path d="M 24.619999999999997,18.825 A 0.9,0.9 0 0,1 24.73,19.59 C 24.67,19.77 24.62,19.77 24.56,19.59 C 24.53,19.52 24.48,19.48 24.39,19.46 C 24.24,19.44 24.21,19.5 24.29,19.62 C 24.64,20.18 25.01,20.64 25.39,21.02 C 25.43,21.06 25.46,21.11 25.47,21.17 L 25.52,21.27 C 26.26,22.18 26.95,23.15 27.59,24.16 L 26.44,24.43 C 26.46,24.34 26.45,24.3 26.42,24.29 C 26.55,24.3 26.64,24.27 26.69,24.2 C 26.74,24.13 26.74,24.07 26.69,24 C 26.2,23.3 25.73,22.69 25.29,22.13 A 0.77,0.77 0 0,1 25.14,21.84 A 0.5,0.5 0 0,0 25.02,21.63 C 24.87,21.49 24.77,21.33 24.7,21.14 A 3.92,3.92 0 0,0 24.36,20.51 C 24.24,20.34 24.16,20.21 24.11,20.11 A 0.5,0.5 0 0,0 23.92,19.91 A 0.55,0.55 0 0,1 23.67,19.61 C 23.63,19.48 23.57,19.47 23.47,19.56 C 23.17,19.86 23.27,20.35 23.77,21 L 23.81,21.06 C 23.44,21.16 23.09,21.18 22.78,21.14 L 22.83,18.97 L 24.63,18.84 Z M 36.22,19.73 C 37.09,19.73 37.8,19.53 37.8,19.28 C 37.8,19.04 37.09,18.84 36.22,18.84 C 35.34,18.84 34.63,19.04 34.63,19.29 C 34.63,19.53 35.34,19.73 36.22,19.73 Z" fill="rgb(236, 161, 146)"/>
<path d="M 26.41,24.285 L 23.81,21.06 A 13.1,13.1 0 0,1 23.76,21 C 23.26,20.35 23.16,19.87 23.46,19.56 C 23.56,19.46 23.63,19.48 23.67,19.61 C 23.71,19.74 23.8,19.84 23.92,19.91 A 0.5,0.5 0 0,1 24.12,20.11 C 24.16,20.21 24.24,20.34 24.36,20.51 C 24.53,20.78 24.64,20.99 24.7,21.14 C 24.77,21.32 24.87,21.49 25.02,21.63 C 25.08,21.69 25.12,21.76 25.14,21.84 C 25.17,21.94 25.22,22.04 25.29,22.13 A 41,41 0 0,1 26.69,24 C 26.74,24.07 26.74,24.13 26.69,24.2 S 26.55,24.3 26.42,24.3 Z M 34.09,20.04 A 3.42,3.42 0 0,0 34.07,22.09 C 34.07,21.99 33.98,22.05 33.83,22.29 L 33.05,21.97 V 19.89 C 33.05,19.81 33.09,19.79 33.17,19.8 L 34.09,20.04 Z" fill="rgb(230, 128, 112)"/>
<path d="M 34.080000000000005,20.025 C 34.99,20.24 35.88,20.31 36.73,20.24 L 36.69,22.48 C 35.7,22.28 34.95,22.94 34.44,24.44 C 34.17,24.3 33.89,24.23 33.61,24.22 C 33.48,24.05 33.46,23.92 33.54,23.84 C 33.96,23.42 34.34,22.98 34.71,22.51 L 35.37,21.83 C 35.69,21.49 35.78,21.11 35.63,20.7 C 35.09,20.8 34.57,21.26 34.07,22.09 C 33.87,21.3 33.87,20.62 34.09,20.04 Z" fill="rgb(236, 161, 146)"/>
<path d="M 38.64,22.185 C 38.1,22.4 37.45,22.48 36.69,22.48 L 36.73,20.24 L 38.18,20.14 C 38.33,20.12 38.42,20.19 38.44,20.34 L 38.64,22.21 Z" fill="rgb(223, 91, 83)"/>
<path d="M 35.620000000000005,20.685 L 32.93,23.86 C 32.86,23.93 32.87,23.99 32.95,24.05 C 33.13,24.19 33.35,24.25 33.61,24.22 C 33.89,24.22 34.17,24.3 34.44,24.44 C 35.11,24.54 35.64,24.81 36.01,25.24 C 36.11,25.37 36.14,25.52 36.08,25.69 A 0.85,0.85 0 0,0 36.03,25.94 L 35.89,29.48 A 12.72,12.72 0 0,1 35.59,26.32 C 35.6,26.24 35.56,26.22 35.49,26.24 L 33.83,26.8 C 32.21,27.12 30.63,27.23 29.07,27.11 L 27.54,27 C 27.45,27 27.4,27.04 27.38,27.12 C 27.28,27.56 27.38,27.9 27.66,28.14 C 27.81,28.26 27.79,28.34 27.59,28.37 A 12.7,12.7 0 0,0 24.62,29.17 C 24.22,29.34 23.8,29.47 23.35,29.57 C 22.9,29.67 22.43,29.82 21.95,29.99 C 21.87,30.01 21.86,30.06 21.92,30.12 C 21.95,30.16 22.02,30.2 22.11,30.24 C 22.21,30.34 22.31,30.47 22.39,30.64 L 22.53,31.34 H 22.45 A 0.12,0.12 0 0,0 22.37,31.46 L 22.34,35.32 C 22.16,35.32 22.07,35.12 22.07,34.72 C 22.07,33.71 22.06,32.69 22.03,31.67 C 22.03,31.58 21.99,31.56 21.91,31.59 L 20.78,32.06 L 18.55,32.56 L 15.54,32.73 L 13.7,32.67 L 11.6,32.44 C 11.5,32.44 11.46,32.48 11.45,32.56 L 11.3,36.42 C 9.77,36.09 9,35.58 9,34.9 V 30.76 A 0.4,0.4 0 0,1 9.08,30.52 C 9.68,29.74 11.13,29.23 13.42,29.02 C 15.17,28.84 16.92,28.87 18.67,29.1 C 19.55,29.2 20.41,29.42 21.23,29.73 C 21.32,29.76 21.4,29.76 21.49,29.73 L 24.71,28.85 C 24.8,28.82 24.84,28.77 24.84,28.69 V 25.45 C 24.84,25.37 24.87,25.3 24.92,25.23 C 25.31,24.81 25.82,24.53 26.44,24.43 L 27.59,24.16 C 27.71,24.17 27.8,24.08 27.85,23.9 C 27.86,23.86 27.89,23.84 27.93,23.83 C 27.95,23.83 27.98,23.83 28.01,23.81 L 28.06,23.93 C 28.1,24.02 28.16,24.05 28.26,24.04 C 29.56,23.92 30.88,23.91 32.2,24 C 32.29,24 32.36,23.98 32.41,23.92 L 33.83,22.28 C 33.98,22.05 34.06,21.98 34.07,22.09 C 34.57,21.26 35.09,20.79 35.63,20.69 Z" fill="rgb(218, 45, 58)"/>
<path d="M 35.620000000000005,20.685 C 35.78,21.11 35.7,21.5 35.37,21.83 L 34.71,22.51 C 34.35,22.98 33.96,23.42 33.54,23.84 C 33.46,23.93 33.49,24.05 33.61,24.22 A 0.9,0.9 0 0,1 32.95,24.05 C 32.87,23.99 32.86,23.93 32.93,23.85 L 35.63,20.7 Z" fill="rgb(230, 128, 112)"/>
<path d="M 29.77,24.835 L 29.76,26.28 A 5.25,5.25 0 0,1 28.39,26.02 C 27.99,25.87 27.8,25.7 27.85,25.52 C 27.95,25.16 28.58,24.94 29.78,24.85 Z" fill="rgb(236, 161, 146)"/>
<path d="M 29.77,24.835 A 6.15,6.15 0 0,1 32.59,25.15 C 32.88,25.27 33.02,25.41 33.03,25.55 C 33.03,25.7 32.91,25.82 32.66,25.95 C 32,26.26 31.03,26.38 29.76,26.28 L 29.78,24.85 Z" fill="rgb(230, 128, 112)"/>
<path d="M 35.88,29.465 C 35.56,29.75 35.1,29.98 34.52,30.14 C 34.42,30.17 34.41,30.22 34.47,30.29 L 34.85,30.78 L 34.65,31.15 C 34.61,31 34.55,30.94 34.45,30.96 A 0.8,0.8 0 0,1 34.16,30.5 A 0.29,0.29 0 0,0 34.1,30.38 L 32.49,28.53 C 32.45,28.49 32.46,28.45 32.5,28.42 L 32.58,28.36 C 32.64,28.32 32.7,28.32 32.75,28.38 L 33.66,29.28 C 33.81,29.43 33.88,29.41 33.88,29.2 L 33.83,26.8 L 35.49,26.24 C 35.56,26.21 35.6,26.24 35.59,26.32 C 35.57,27.41 35.66,28.46 35.89,29.48 Z" fill="rgb(223, 91, 83)"/>
<path d="M 33.82,26.785 L 33.88,29.2 C 33.88,29.4 33.81,29.43 33.66,29.29 L 32.76,28.38 C 32.7,28.32 32.64,28.32 32.58,28.36 L 32.5,28.42 C 32.46,28.45 32.45,28.49 32.5,28.53 L 34.1,30.38 L 34.16,30.5 A 0.8,0.8 0 0,0 34.45,30.96 C 34.55,30.94 34.61,31 34.65,31.16 L 33.02,31.42 C 33.02,31.15 32.95,30.95 32.82,30.82 C 32.42,30.43 32.04,30 31.72,29.51 A 0.4,0.4 0 0,1 31.64,29.26 C 31.64,29.1 31.62,28.95 31.57,28.8 C 31.51,28.64 31.43,28.63 31.35,28.78 C 31.13,29.18 31.25,29.66 31.72,30.22 L 31.97,30.53 L 29.05,30.63 L 29.07,27.11 C 30.63,27.23 32.21,27.12 33.83,26.81 Z" fill="rgb(236, 161, 146)"/>
<path d="M 29.06,27.095 L 29.05,30.64 L 28.75,31.51 A 0.28,0.28 0 0,0 28.54,31.41 C 28.44,31.41 28.38,31.46 28.37,31.55 C 28.33,31.77 28.19,32.06 27.95,32.41 L 27.69,32.84 A 61,61 0 0,0 27,34.18 C 26.97,34.25 27,34.28 27.07,34.28 L 27.17,34.29 C 27.26,34.29 27.31,34.26 27.34,34.18 C 27.52,33.63 27.8,33.11 28.18,32.62 C 28.43,32.29 28.53,32.33 28.48,32.74 C 28.43,33.22 28.52,33.76 28.73,34.34 C 28.04,34.58 27.41,34.68 26.83,34.63 A 0.76,0.76 0 0,0 26.62,34.2 C 26.57,34.15 26.56,34.1 26.59,34.03 A 0.1,0.1 0 0,1 26.65,33.98 C 26.73,33.94 26.79,33.88 26.82,33.81 C 27.21,32.96 27.62,32.13 28.04,31.31 C 28.14,31.13 28.26,31 28.41,30.89 C 28.48,30.85 28.51,30.78 28.51,30.69 C 28.51,30.53 28.39,30.45 28.19,30.46 C 28.07,30.46 27.99,30.51 27.93,30.61 C 27.37,31.58 26.89,32.54 26.5,33.47 C 26.46,33.57 26.42,33.57 26.37,33.47 A 0.47,0.47 0 0,1 26.36,33.1 C 26.43,32.9 26.38,32.8 26.22,32.76 L 26.42,32.72 C 26.54,32.7 26.6,32.62 26.6,32.51 C 26.6,32.48 26.6,32.45 26.62,32.42 C 26.67,32.3 26.62,32.26 26.5,32.29 C 26.31,32.34 26.15,32.35 26.02,32.32 L 26.07,31.58 C 26.27,31.55 26.46,31.55 26.65,31.6 C 26.73,31.63 26.81,31.62 26.89,31.59 C 26.98,31.54 27.05,31.48 27.09,31.39 C 27.13,31.31 27.12,31.25 27.05,31.19 L 26.91,31.07 C 27.1,30.98 27.22,30.8 27.28,30.53 C 27.3,30.43 27.26,30.36 27.16,30.33 L 26.98,30.29 C 26.64,30.19 26.34,30.19 26.09,30.27 C 24.93,30.63 23.74,30.98 22.53,31.32 L 22.39,30.62 L 27.95,29.18 C 28.05,29.15 28.11,29.08 28.11,28.98 L 28.12,28.77 C 28.13,28.62 28.06,28.57 27.92,28.61 L 22.11,30.23 A 0.55,0.55 0 0,1 21.91,30.11 C 21.86,30.05 21.87,30.01 21.95,29.98 C 22.43,29.81 22.9,29.67 23.35,29.57 C 23.8,29.47 24.22,29.33 24.62,29.17 C 25.52,28.79 26.52,28.52 27.59,28.37 C 27.79,28.33 27.81,28.25 27.66,28.13 C 27.38,27.89 27.29,27.55 27.38,27.11 C 27.4,27.03 27.45,26.99 27.54,26.99 L 29.07,27.11 Z" fill="rgb(230, 128, 112)"/>
<path d="M 22.38,30.615 C 22.31,30.46 22.21,30.33 22.11,30.23 L 27.91,28.61 C 28.06,28.56 28.13,28.61 28.12,28.77 V 28.98 C 28.11,29.08 28.05,29.15 27.95,29.18 L 22.39,30.63 Z" fill="rgb(236, 161, 146)"/>
<path d="M 33.010000000000005,31.405 C 32.89,31.52 32.79,31.57 32.72,31.56 C 32.52,31.15 32.26,30.81 31.97,30.53 A 8.65,8.65 0 0,0 31.72,30.22 C 31.25,29.66 31.12,29.18 31.35,28.78 C 31.43,28.63 31.51,28.64 31.57,28.8 C 31.62,28.95 31.65,29.1 31.64,29.26 C 31.64,29.35 31.66,29.43 31.71,29.51 C 32.04,30 32.41,30.43 32.81,30.82 C 32.95,30.95 33.01,31.15 33.01,31.42 Z" fill="rgb(223, 91, 83)"/>
<path d="M 14.85,31.695 L 14.81,30.01 A 7.94,7.94 0 0,1 18.14,30.31 C 18.44,30.41 18.64,30.54 18.74,30.68 C 18.88,30.86 18.82,31.04 18.56,31.21 C 17.84,31.69 16.61,31.85 14.86,31.71 Z" fill="rgb(230, 128, 112)"/>
<path d="M 14.790000000000001,29.985 L 14.86,31.71 C 13.75,31.62 13.03,31.41 12.71,31.11 C 12.63,31.02 12.59,30.94 12.59,30.86 C 12.59,30.72 12.69,30.58 12.93,30.45 C 13.33,30.22 13.96,30.08 14.81,30 Z M 26.83,34.63 C 26.41,34.75 26.03,34.79 25.69,34.75 A 4.72,4.72 0 0,1 25.69,32.79 L 26.22,32.76 C 26.38,32.79 26.43,32.9 26.36,33.1 A 0.47,0.47 0 0,0 26.37,33.47 C 26.42,33.57 26.46,33.57 26.5,33.47 C 26.89,32.54 27.37,31.58 27.93,30.61 C 27.99,30.51 28.07,30.46 28.19,30.46 C 28.39,30.45 28.5,30.53 28.51,30.7 C 28.51,30.78 28.48,30.85 28.41,30.9 C 28.26,31 28.14,31.14 28.04,31.3 C 27.61,32.13 27.21,32.96 26.82,33.8 A 0.32,0.32 0 0,1 26.65,33.98 A 0.1,0.1 0 0,0 26.59,34.03 C 26.56,34.09 26.57,34.15 26.62,34.2 C 26.74,34.33 26.82,34.47 26.83,34.63 Z" fill="rgb(236, 161, 146)"/>
<path d="M 34.84,30.765 C 34.9,30.89 34.96,30.98 35.03,31.04 C 35.09,31.1 35.19,31.12 35.33,31.11 C 37.27,30.96 39.14,31.03 40.94,31.34 C 41.64,31.46 42.27,31.64 42.86,31.89 C 43.78,32.29 44.14,32.72 43.95,33.19 A 0.43,0.43 0 0,0 43.92,33.34 L 43.78,37.62 C 43.51,36.49 43.41,35.32 43.49,34.12 C 43.5,34 43.49,33.89 43.47,33.78 C 43.45,33.71 43.41,33.69 43.34,33.72 L 41.68,34.38 C 40.24,34.71 38.74,34.88 37.19,34.88 L 35.06,34.77 L 33.03,34.5 C 32.93,34.49 32.89,34.52 32.89,34.61 L 32.8,38.52 C 31.3,38.2 30.55,37.67 30.55,36.92 C 30.57,35.48 30.57,34.17 30.56,32.98 C 30.56,32.74 30.66,32.54 30.85,32.38 C 31.35,32 31.97,31.72 32.72,31.56 C 32.79,31.56 32.89,31.52 33.02,31.42 L 34.65,31.15 L 34.85,30.78 Z M 26.91,31.07 L 27.05,31.19 C 27.12,31.25 27.13,31.31 27.1,31.39 A 0.42,0.42 0 0,1 26.88,31.59 A 0.35,0.35 0 0,1 26.65,31.6 A 1.26,1.26 0 0,0 26.07,31.58 C 25.59,31.52 25.1,31.58 24.6,31.76 A 0.16,0.16 0 0,0 24.49,31.91 C 24.49,31.99 24.52,32.04 24.59,32.07 C 24.99,32.27 25.47,32.36 26.02,32.32 C 26.15,32.35 26.31,32.34 26.5,32.29 C 26.63,32.26 26.67,32.3 26.62,32.42 A 0.24,0.24 0 0,0 26.6,32.51 C 26.6,32.63 26.54,32.7 26.42,32.72 L 26.22,32.76 L 25.69,32.79 L 24.19,32.72 C 24.09,32.72 24.05,32.76 24.05,32.85 L 24.02,34.58 A 2.12,2.12 0 0,1 22.9,34.09 A 0.3,0.3 0 0,1 22.8,33.87 V 31.87 C 22.8,31.77 22.84,31.69 22.93,31.63 C 23.79,31 25.12,30.82 26.91,31.07 Z M 28.74,31.5 C 29.09,31.7 29.17,31.92 29,32.18 A 0.35,0.35 0 0,0 28.94,32.41 C 29,33.13 28.93,33.77 28.74,34.35 A 3.51,3.51 0 0,1 28.49,32.74 C 28.54,32.34 28.43,32.29 28.19,32.62 C 27.8,33.12 27.52,33.63 27.34,34.18 C 27.31,34.26 27.26,34.3 27.17,34.29 H 27.07 C 26.99,34.29 26.97,34.25 27,34.19 L 27.69,32.84 L 27.95,32.41 C 28.19,32.06 28.33,31.77 28.37,31.55 C 28.38,31.45 28.44,31.41 28.54,31.41 C 28.61,31.41 28.68,31.44 28.74,31.51 Z" fill="rgb(218, 45, 58)"/>
<path d="M 22.33,35.295 C 22.08,35.7 21.6,35.99 20.9,36.18 L 20.78,32.05 L 21.91,31.58 C 21.99,31.55 22.03,31.58 22.03,31.66 C 22.06,32.68 22.07,33.7 22.07,34.7 C 22.07,35.1 22.17,35.3 22.34,35.3 Z" fill="rgb(223, 91, 83)"/>
<path d="M 26.06,31.564999999999998 L 26.02,32.32 A 2.83,2.83 0 0,1 24.58,32.07 A 0.16,0.16 0 0,1 24.48,31.91 C 24.49,31.84 24.53,31.79 24.6,31.76 C 25.1,31.58 25.6,31.52 26.07,31.58 Z" fill="rgb(236, 161, 146)"/>
<path d="M 20.77,32.035 L 20.9,36.18 A 7.1,7.1 0 0,1 18.66,36.68 A 18.2,18.2 0 0,0 18.55,32.54 L 20.78,32.05 Z" fill="rgb(230, 128, 112)"/>
<path d="M 37.54,32.085 L 37.57,33.87 A 7.49,7.49 0 0,1 34.79,33.52 A 1.53,1.53 0 0,1 34.29,33.25 C 34.13,33.1 34.11,32.94 34.24,32.78 C 34.34,32.65 34.55,32.54 34.84,32.43 C 35.54,32.19 36.44,32.08 37.54,32.11 Z" fill="rgb(236, 161, 146)"/>
<path d="M 37.54,32.085 A 7.3,7.3 0 0,1 39.63,32.41 C 40.16,32.59 40.41,32.8 40.37,33.03 C 40.34,33.23 40.07,33.43 39.58,33.58 A 7.5,7.5 0 0,1 37.58,33.88 L 37.55,32.11 Z" fill="rgb(230, 128, 112)"/>
<path d="M 13.69,32.644999999999996 C 13.59,34.06 13.6,35.44 13.75,36.8 L 11.3,36.4 L 11.45,32.55 C 11.45,32.47 11.5,32.43 11.6,32.43 L 13.7,32.66 Z" fill="rgb(223, 91, 83)"/>
<path d="M 18.54,32.525 C 18.75,33.88 18.78,35.26 18.65,36.67 L 15.57,36.88 L 15.54,32.72 L 18.55,32.54 Z" fill="rgb(236, 161, 146)"/>
<path d="M 13.69,32.644999999999996 L 15.54,32.72 L 15.57,36.88 L 13.75,36.8 A 21.28,21.28 0 0,1 13.7,32.66 Z M 25.69,32.79 C 25.55,33.43 25.55,34.09 25.69,34.75 L 24.02,34.58 L 24.05,32.85 C 24.05,32.75 24.09,32.71 24.19,32.72 L 25.69,32.79 Z" fill="rgb(230, 128, 112)"/>
<path d="M 43.77,37.605 C 43.3,38.03 42.61,38.34 41.71,38.56 L 41.68,34.38 L 43.34,33.72 C 43.41,33.69 43.44,33.72 43.47,33.78 C 43.49,33.88 43.5,34 43.49,34.12 C 43.41,35.32 43.51,36.49 43.79,37.62 Z" fill="rgb(223, 91, 83)"/>
<path d="M 41.67,34.365 L 41.71,38.56 C 40.17,38.91 38.65,39.06 37.15,38.98 L 37.19,34.88 C 38.74,34.88 40.24,34.71 41.69,34.38 Z" fill="rgb(236, 161, 146)"/>
<path d="M 35.050000000000004,34.755 C 35.07,35.71 35.06,36.63 35.01,37.55 C 35.01,37.76 35.03,37.99 35.08,38.25 C 35.13,38.47 35.18,38.7 35.2,38.93 L 32.8,38.53 L 32.9,34.61 C 32.9,34.52 32.94,34.49 33.03,34.5 L 35.06,34.77 Z" fill="rgb(223, 91, 83)"/>
<path d="M 35.050000000000004,34.755 L 37.19,34.89 L 37.15,38.99 L 35.2,38.93 A 6.06,6.06 0 0,0 35.08,38.24 A 2.72,2.72 0 0,1 35.02,37.55 C 35.06,36.63 35.07,35.71 35.06,34.77 Z" fill="rgb(230, 128, 112)"/>
</svg>
