<?xml version="1.0" encoding="UTF-8"?>
<!-- generated by Finnhub -->
<svg viewBox="0 0 55.5 55.5" xmlns="http://www.w3.org/2000/svg">
<path d="M 0,0 H 55.5 V 55.5 H 0 Z" fill="rgb(239, 242, 248)"/>
<path d="M 28.47,10.094999999999999 L 29.44,11.03 L 29.57,11.16 L 39.36,20.95 L 30.86,28.41 A 0.03,0.03 0 0,1 30.82,28.37 C 32.35,26.17 33.96,23.81 35.01,21.34 C 35.55,20.06 35.8,18.57 34.44,17.7 C 33.22,16.92 32.09,17.6 31.09,18.31 C 29.98,19.11 28.93,19.98 27.95,20.93 A 2888.23,2888.23 0 0,0 23.18,25.54 H 23.15 A 0.05,0.05 0 0,1 23.13,25.48 C 23.45,24.43 23.97,23.35 24.38,22.33 C 24.8,21.3 25.35,20.13 24.74,19.11 L 24.06,17.91 C 23.49,16.95 23.33,16.49 22.17,16.77 C 21.52,16.92 20.86,17.14 20.2,17.41 C 22.53,15.05 24.87,12.71 27.2,10.38 C 27.6,9.99 28.03,9.9 28.49,10.11 Z"/>
<path d="M 39.35,20.935 L 41.41,23 L 42.96,24.55 A 405.85,405.85 0 0,0 39.44,28.85 C 38.07,30.55 36.59,32.81 36.34,35.02 C 36.27,35.74 36.61,36.87 37.48,36.81 V 36.86 A 0.1,0.1 0 0,1 37.45,36.93 L 36.81,37.57 L 36.24,38.16 L 35.53,38.86 L 34.49,39.89 C 34.47,39.91 34.44,39.92 34.39,39.92 C 32.19,39.5 31.96,36.54 32.35,34.83 C 32.79,32.93 33.79,31.19 34.87,29.59 A 62.16,62.16 0 0,1 38.26,25.07 C 38.32,25 38.3,24.97 38.21,25.01 L 38.13,25.07 A 144.56,144.56 0 0,0 33.29,29.27 C 30.67,31.66 28.24,34.72 25.89,37.6 C 25.49,38.1 24.4,39.27 23.74,39.33 C 22.56,39.42 22.1,37.47 22.04,36.6 C 21.97,35.76 22.24,35.09 22.74,34.44 C 25.46,30.83 28.49,27.2 30.49,23.21 C 31.12,21.95 30.39,21.83 29.62,22.66 C 27.32,25.13 25.03,27.6 22.75,30.09 C 22.33,30.54 21.93,31.02 21.56,31.51 L 17.96,36.35 L 14.99,33.39 L 14.74,33.13 L 18.84,27.95 C 19.13,27.58 19.38,27.21 19.58,26.85 C 19.72,26.61 23.44,19.99 21.08,21.05 A 126,126 0 0,0 12.06,25.6 C 12.03,25.6 12.05,25.57 12.1,25.51 C 12.96,24.63 13.84,23.75 14.73,22.87 L 20.2,17.41 C 20.86,17.14 21.52,16.92 22.17,16.77 C 23.33,16.49 23.49,16.95 24.06,17.91 C 24.29,18.31 24.46,18.64 24.74,19.11 C 25.34,20.13 24.8,21.3 24.38,22.33 C 23.97,23.35 23.45,24.43 23.13,25.48 A 0.05,0.05 0 0,0 23.15,25.54 H 23.18 L 23.2,25.53 L 27.95,20.93 C 28.93,19.98 29.98,19.11 31.09,18.31 C 32.09,17.59 33.22,16.91 34.44,17.7 C 35.8,18.57 35.54,20.06 35.01,21.34 C 33.96,23.81 32.35,26.17 30.81,28.37 V 28.39 L 30.82,28.41 A 0.03,0.03 0 0,0 30.86,28.41 L 39.36,20.95 Z" fill="rgb(254, 254, 253)"/>
<path d="M 14.73,33.115 L 13.2,31.6 A 569.7,569.7 0 0,1 10.42,28.8 C 9.48,27.85 10.32,27.25 11.08,26.51 L 12.06,25.61 A 126,126 0 0,1 21.09,21.06 C 23.44,19.99 19.72,26.61 19.59,26.85 C 19.38,27.21 19.13,27.58 18.84,27.95 L 14.74,33.13 Z M 34.4,39.92 V 39.95 C 34.4,39.97 34.4,39.99 34.38,40 L 28.73,45.67 C 28.27,46.09 27.79,46.11 27.3,45.72 L 26.03,44.44 L 20.6,39.01 L 19.9,38.31 L 19.16,37.56 L 17.96,36.36 C 19.16,34.72 20.36,33.11 21.56,31.51 C 21.93,31.01 22.33,30.54 22.75,30.09 C 25.03,27.6 27.32,25.13 29.62,22.66 C 30.39,21.83 31.12,21.96 30.49,23.21 C 28.49,27.21 25.46,30.83 22.74,34.44 A 3.05,3.05 0 0,0 22.04,36.6 C 22.1,37.47 22.56,39.42 23.74,39.33 C 24.4,39.27 25.48,38.1 25.89,37.6 C 28.24,34.72 30.67,31.66 33.29,29.27 A 144.56,144.56 0 0,1 38.21,25.01 C 38.31,24.97 38.31,25 38.26,25.07 A 62.16,62.16 0 0,0 34.87,29.59 A 15.84,15.84 0 0,0 32.35,34.83 C 31.96,36.54 32.19,39.5 34.39,39.93 Z M 42.96,24.55 L 45.63,27.25 C 46,27.63 46.15,28.14 45.8,28.56 A 802.24,802.24 0 0,1 37.62,36.76 A 0.21,0.21 0 0,1 37.48,36.81 C 36.61,36.87 36.27,35.74 36.35,35.01 C 36.59,32.81 38.07,30.55 39.44,28.86 C 40.6,27.42 41.77,25.99 42.96,24.56 Z"/>
</svg>
