<?xml version="1.0" encoding="UTF-8"?>
<!-- generated by Finnhub -->
<svg viewBox="0 0 55.5 55.5" xmlns="http://www.w3.org/2000/svg">
<path d="M 0,0 H 55.5 V 55.5 H 0 Z" fill="rgb(239, 242, 248)"/>
<path d="M 43.99,20.215 C 44.64,19.41 45.16,19 45.74,19 C 46.93,19 47,20.25 47,21.2 V 23.68 C 47,24.36 47.26,24.78 48,24.78 V 25 H 45.29 V 24.77 H 45.4 C 46.01,24.77 46,24.29 46,23.68 V 21.3 C 46,20.23 45.94,19.78 45.33,19.78 C 44.85,19.78 44.47,20.06 44,20.61 V 23.68 C 44,24.41 44.02,24.78 44.8,24.78 V 25 H 42.09 V 24.77 H 42.21 C 42.86,24.77 43,24.23 43,23.68 V 21.52 C 43,20.87 43.12,19.52 42.09,19.94 L 42,19.71 L 43.74,19 H 44 V 20.23 Z M 40,24.06 C 39.44,24.51 39.15,24.77 39,24.84 C 38.78,24.94 38.55,25 38.31,25 C 37.93,25 37.61,24.86 37.37,24.6 A 1.53,1.53 0 0,1 37,23.53 C 37,23.25 37.06,23.01 37.18,22.8 C 37.34,22.52 37.63,22.26 38.03,22 C 38.44,21.76 39.05,21.45 40,21.1 V 20.87 C 40,20.16 39.9,19.38 39.04,19.38 A 0.83,0.83 0 0,0 38.44,19.59 A 0.65,0.65 0 0,0 38.21,20.08 L 38.23,20.44 C 38.23,20.64 38.18,20.78 38.08,20.88 A 0.47,0.47 0 0,1 37.72,21.04 A 0.47,0.47 0 0,1 37.35,20.88 A 0.66,0.66 0 0,1 37.21,20.43 C 37.21,20.08 37.39,19.75 37.74,19.45 C 38.09,19.15 38.59,19 39.22,19 C 40.59,19 41,19.69 41,20.96 V 22.9 C 41,23.1 40.9,24.2 41.34,24.2 C 41.41,24.2 41.47,24.2 41.51,24.16 C 41.6,24.11 41.76,23.96 42,23.71 V 24.06 C 41.55,24.68 41.12,24.99 40.71,24.99 C 40.32,24.99 40.01,24.74 40,24.06 Z M 40,23.66 V 21.48 C 39.4,21.73 39.07,21.9 38.9,22.01 C 38.58,22.19 38.35,22.38 38.21,22.58 A 1.18,1.18 0 0,0 38.27,23.98 C 38.44,24.18 38.64,24.28 38.87,24.28 C 39.17,24.28 39.5,24.07 40,23.65 Z M 31.6,22.96 A 1.97,1.97 0 0,1 30.48,21.16 C 30.48,20.56 30.7,20.06 31.14,19.64 A 2.37,2.37 0 0,1 32.84,19 C 33.41,19 33.9,19.14 34.32,19.42 H 35.57 C 35.76,19.42 35.87,19.42 35.9,19.44 A 0.1,0.1 0 0,1 35.96,19.49 C 35.99,19.53 36,19.59 36,19.69 C 36,19.81 35.99,19.89 35.97,19.93 A 0.13,0.13 0 0,1 35.9,19.98 C 35.87,19.99 35.76,20 35.57,20 H 34.8 C 35.04,20.31 35.16,20.71 35.16,21.2 C 35.16,21.75 34.96,22.23 34.53,22.62 C 34.11,23.02 33.53,23.22 32.83,23.22 C 32.53,23.22 32.23,23.17 31.93,23.08 C 31.73,23.25 31.6,23.39 31.53,23.52 A 0.69,0.69 0 0,0 31.43,23.82 C 31.43,23.9 31.47,23.97 31.54,24.04 C 31.62,24.11 31.76,24.16 31.96,24.19 C 32.08,24.21 32.39,24.22 32.87,24.24 C 33.76,24.26 34.34,24.29 34.6,24.33 C 35,24.38 35.32,24.53 35.56,24.78 C 35.8,25.02 35.92,25.32 35.92,25.68 C 35.92,26.16 35.69,26.62 35.24,27.05 A 3.7,3.7 0 0,1 32.6,28 C 31.76,28 31.06,27.81 30.49,27.43 C 30.16,27.22 30,26.99 30,26.76 C 30,26.66 30.02,26.56 30.07,26.45 C 30.14,26.29 30.3,26.06 30.52,25.78 L 31.19,25.08 A 2.2,2.2 0 0,1 30.71,24.72 A 0.55,0.55 0 0,1 30.57,24.35 C 30.57,24.2 30.63,24.03 30.75,23.82 C 30.88,23.62 31.16,23.33 31.61,22.96 Z M 32.73,19.31 A 1,1 0 0,0 31.93,19.7 C 31.71,19.95 31.61,20.34 31.61,20.87 C 31.61,21.56 31.75,22.09 32.05,22.47 C 32.27,22.75 32.55,22.89 32.9,22.89 A 1,1 0 0,0 33.71,22.52 C 33.92,22.28 34.03,21.89 34.03,21.36 A 2.6,2.6 0 0,0 33.58,19.74 C 33.36,19.45 33.08,19.31 32.73,19.31 Z M 31.54,25.13 C 31.34,25.35 31.19,25.55 31.08,25.75 C 30.98,25.94 30.93,26.11 30.93,26.27 C 30.93,26.47 31.05,26.67 31.3,26.82 C 31.73,27.09 32.36,27.22 33.17,27.22 C 33.95,27.22 34.52,27.08 34.89,26.8 C 35.26,26.53 35.45,26.24 35.45,25.93 C 35.45,25.7 35.34,25.54 35.12,25.45 A 4,4 0 0,0 33.78,25.28 C 32.81,25.25 32.06,25.2 31.54,25.13 Z M 28,19 V 20.31 C 28.45,19.44 28.78,19 29.26,19 A 0.7,0.7 0 0,1 29.79,19.22 A 0.67,0.67 0 0,1 29.85,20.12 A 0.47,0.47 0 0,1 29.48,20.3 C 29.35,20.3 29.19,20.23 29.02,20.08 C 28.85,19.93 28.72,19.86 28.65,19.86 C 28.28,19.86 28.12,20.6 28,20.85 V 23.64 C 28,24.31 28.08,24.77 28.8,24.77 V 25 H 26.06 V 24.77 C 26.82,24.77 27,24.34 27,23.69 V 21.43 C 27,21.08 27.1,19.85 26.47,19.85 A 0.98,0.98 0 0,0 26.06,19.95 L 26,19.7 L 27.75,18.99 H 28 Z M 22.5,19 C 23.29,19 23.92,19.33 24.4,19.98 C 24.8,20.53 25,21.18 25,21.89 C 25,22.39 24.89,22.91 24.67,23.43 A 2.6,2.6 0 0,1 23.74,24.6 C 23.36,24.87 22.92,25 22.44,25 C 21.66,25 21.04,24.66 20.58,23.98 A 3.36,3.36 0 0,1 20,22.05 C 20,21.53 20.12,21.02 20.35,20.51 C 20.59,19.99 20.9,19.61 21.28,19.37 C 21.67,19.12 22.08,19 22.51,19 Z M 22.33,19.4 C 22.13,19.4 21.93,19.47 21.73,19.6 C 21.53,19.73 21.36,19.95 21.23,20.28 C 21.11,20.6 21.05,21.02 21.05,21.53 C 21.05,22.36 21.2,23.07 21.5,23.67 C 21.8,24.27 22.2,24.57 22.69,24.57 C 23.05,24.57 23.35,24.4 23.59,24.07 C 23.83,23.74 23.95,23.17 23.95,22.37 C 23.95,21.37 23.75,20.57 23.35,19.99 C 23.09,19.59 22.75,19.4 22.33,19.4 Z M 13.07,25 L 9.77,17.43 V 23.44 C 9.77,23.99 9.82,24.34 9.94,24.48 C 10.09,24.66 10.34,24.75 10.67,24.75 H 10.97 V 25 H 8 V 24.75 H 8.3 C 8.66,24.75 8.92,24.64 9.07,24.41 C 9.17,24.27 9.21,23.94 9.21,23.44 V 17.56 A 2,2 0 0,0 9.08,16.7 A 0.7,0.7 0 0,0 8.76,16.38 A 1.6,1.6 0 0,0 8,16.25 V 16 H 10.42 L 13.52,23.04 L 16.59,16 H 19 V 16.25 H 18.7 C 18.34,16.25 18.08,16.36 17.93,16.59 C 17.83,16.73 17.79,17.06 17.79,17.56 V 23.44 C 17.79,23.99 17.85,24.34 17.97,24.48 C 18.12,24.66 18.37,24.75 18.7,24.75 H 19 V 25 H 15.37 V 24.75 H 15.67 C 16.04,24.75 16.29,24.64 16.44,24.41 C 16.54,24.27 16.58,23.94 16.58,23.44 V 17.43 L 13.28,25 H 13.08 Z M 40,32 H 42.99 V 32.25 H 42.84 C 42.64,32.25 42.47,32.29 42.37,32.38 A 0.4,0.4 0 0,0 42.21,32.7 C 42.21,32.87 42.29,33.1 42.44,33.41 L 44,36.47 L 45.44,33.12 C 45.52,32.94 45.56,32.76 45.56,32.58 A 0.3,0.3 0 0,0 45.51,32.4 A 0.35,0.35 0 0,0 45.33,32.3 A 1.3,1.3 0 0,0 44.91,32.25 V 32 H 47 V 32.25 C 46.83,32.26 46.7,32.3 46.6,32.35 C 46.5,32.4 46.4,32.5 46.3,32.65 C 46.25,32.71 46.17,32.88 46.06,33.16 L 43.44,39.22 A 3.12,3.12 0 0,1 42.45,40.55 A 2,2 0 0,1 41.27,41 C 41,41 40.77,40.92 40.59,40.77 A 0.67,0.67 0 0,1 40.33,40.26 C 40.33,40.07 40.39,39.92 40.52,39.81 A 0.8,0.8 0 0,1 41.05,39.64 C 41.2,39.64 41.41,39.69 41.68,39.79 C 41.87,39.85 41.98,39.89 42.03,39.89 C 42.17,39.89 42.33,39.82 42.48,39.69 C 42.65,39.54 42.82,39.28 42.98,38.89 L 43.44,37.83 L 41.14,33.25 A 3.64,3.64 0 0,0 40.52,32.43 C 40.42,32.36 40.24,32.3 40,32.25 V 32 Z M 35.92,34.3 C 35.92,35.14 36.12,35.8 36.55,36.28 S 37.49,36.99 38.07,36.99 C 38.46,36.99 38.79,36.89 39.07,36.69 C 39.37,36.49 39.61,36.14 39.8,35.64 L 40,35.77 A 2.91,2.91 0 0,1 39.21,37.31 C 38.78,37.77 38.23,38 37.58,38 C 36.88,38 36.26,37.74 35.75,37.21 A 2.98,2.98 0 0,1 35,35.07 C 35,33.45 36,32 37.73,32 C 39.05,32 40,32.99 40,34.3 H 35.92 Z M 35.92,34 H 38.65 C 38.61,33.22 38.28,32.44 37.37,32.44 C 36.5,32.44 36,33.21 35.92,34 Z M 33,29 V 36.69 C 33,37.44 33.22,37.77 34,37.77 V 38 H 31.1 V 37.77 C 31.85,37.77 32,37.38 32,36.69 V 31.42 C 32,30.72 32.14,29.52 31.1,29.93 L 31,29.71 L 32.76,29 H 33 Z M 27,33.23 C 27.64,32.41 28.16,32 28.74,32 C 29.93,32 30,33.25 30,34.2 V 36.68 C 30,37.36 30.26,37.78 31,37.78 V 38 H 28.29 V 37.77 H 28.4 C 29,37.77 29,37.29 29,36.68 V 34.3 C 29,33.23 28.94,32.78 28.33,32.78 C 27.85,32.78 27.47,33.06 27,33.61 V 36.68 C 27,37.41 27.02,37.78 27.8,37.78 V 38 H 25.09 V 37.77 H 25.21 C 25.86,37.77 26,37.23 26,36.68 V 34.52 C 26,33.87 26.12,32.52 25.09,32.94 L 25,32.71 L 26.74,32 H 27 V 33.23 Z M 23,37.06 C 22.44,37.51 22.15,37.77 22,37.84 C 21.78,37.94 21.55,38 21.31,38 C 20.93,38 20.61,37.86 20.37,37.6 A 1.53,1.53 0 0,1 20,36.53 C 20,36.25 20.06,36.01 20.18,35.8 C 20.34,35.52 20.63,35.26 21.03,35 C 21.44,34.76 22.05,34.45 23,34.1 V 33.87 C 23,33.16 22.9,32.38 22.04,32.38 C 21.64,32.38 21.21,32.64 21.21,33.08 L 21.23,33.44 C 21.23,33.64 21.18,33.78 21.08,33.88 A 0.47,0.47 0 0,1 20.72,34.04 A 0.47,0.47 0 0,1 20.35,33.88 A 0.66,0.66 0 0,1 20.21,33.43 C 20.21,32.42 21.39,32 22.22,32 C 23.59,32 24,32.69 24,33.96 V 35.9 C 24,36.1 23.9,37.2 24.34,37.2 C 24.41,37.2 24.47,37.2 24.51,37.16 C 24.6,37.11 24.76,36.96 25,36.71 V 37.06 C 24.55,37.68 24.12,37.99 23.71,37.99 C 23.32,37.99 23.01,37.74 23,37.06 Z M 23,36.66 V 34.48 C 22.4,34.73 22.07,34.9 21.9,35.01 C 21.58,35.19 21.35,35.38 21.21,35.58 A 1.18,1.18 0 0,0 21.27,36.98 C 21.44,37.18 21.64,37.28 21.87,37.28 C 22.17,37.28 22.5,37.07 23,36.65 Z M 17,30 V 32 H 18.8 V 32.4 H 17 V 36.27 C 17,36.72 17.35,37.25 17.9,37.25 C 18.07,37.25 18.22,37.2 18.37,37.12 A 0.9,0.9 0 0,0 18.72,36.72 H 19 C 18.83,37.15 18.6,37.47 18.28,37.68 C 17.98,37.89 17.65,38 17.33,38 C 16.38,38 16,37.24 16,36.4 V 32.4 H 15 V 32.2 C 16,31.84 16.36,30.92 16.78,30 H 17 Z M 14.4,29 V 31.98 H 14.15 A 3.54,3.54 0 0,0 13.72,30.61 A 2.53,2.53 0 0,0 11.66,29.51 C 11.2,29.51 10.81,29.64 10.51,29.91 C 10.21,30.18 10.06,30.49 10.06,30.83 C 10.06,31.09 10.16,31.33 10.35,31.55 C 10.62,31.86 11.28,32.29 12.31,32.81 C 13.15,33.25 13.73,33.58 14.03,33.81 C 14.35,34.04 14.58,34.31 14.75,34.62 C 14.92,34.94 15,35.26 15,35.61 C 15,36.26 14.73,36.82 14.2,37.3 C 13.67,37.77 13,38 12.16,38 A 4.54,4.54 0 0,1 10.56,37.71 A 3.9,3.9 0 0,0 9.74,37.51 C 9.63,37.51 9.54,37.54 9.47,37.61 C 9.41,37.67 9.37,37.81 9.33,38 H 9.1 V 35.05 H 9.34 C 9.46,35.67 9.61,36.13 9.81,36.44 C 10.01,36.74 10.31,37 10.71,37.2 C 11.11,37.4 11.55,37.5 12.03,37.5 C 12.58,37.5 13.02,37.37 13.33,37.09 C 13.66,36.81 13.83,36.48 13.83,36.09 C 13.83,35.89 13.76,35.67 13.63,35.45 A 1.9,1.9 0 0,0 13.07,34.85 C 12.9,34.72 12.43,34.45 11.65,34.05 A 14.4,14.4 0 0,1 10,33.05 A 2.72,2.72 0 0,1 9.26,32.25 A 2.07,2.07 0 0,1 9.76,29.68 C 10.26,29.22 10.89,29 11.66,29 C 12.13,29 12.64,29.11 13.18,29.34 C 13.43,29.44 13.6,29.5 13.7,29.5 A 0.4,0.4 0 0,0 13.98,29.4 C 14.06,29.33 14.12,29.2 14.16,29 H 14.41 Z"/>
</svg>
