<?xml version="1.0" encoding="UTF-8"?>
<!-- generated by Finnhub -->
<svg viewBox="0 0 55.5 55.5" xmlns="http://www.w3.org/2000/svg">
<path d="M0 0h55.5v55.5H0z" fill="rgb(239, 242, 248)"/>
<path d="M36 26v4h.43v-4H36Zm0-.47a.3.3 0 0 0 .22.1.3.3 0 0 0 .3-.31.3.3 0 0 0-.08-.23.3.3 0 0 0-.22-.09.3.3 0 0 0-.21.1.3.3 0 0 0-.1.21c0 .09.04.16.1.22Zm1 .47v4h.46v-2.53c0-.2.04-.39.12-.54.08-.16.2-.29.34-.38.15-.09.31-.13.5-.13a.8.8 0 0 1 .62.25c.15.16.23.38.23.64V30h.46v-2.6c0-.28.08-.52.25-.7.16-.19.4-.28.7-.28.25 0 .46.08.62.23.16.16.24.4.24.7V30H42v-2.65c0-.44-.1-.77-.32-1-.21-.23-.5-.35-.87-.35-.29 0-.53.07-.73.2-.2.12-.35.3-.44.52h-.03c-.09-.23-.22-.4-.4-.53a1.1 1.1 0 0 0-.67-.19c-.26 0-.48.06-.66.18a.97.97 0 0 0-.4.48h-.04V26H37Zm-1.83 0v.4h-.71v2.5c0 .17.02.3.08.4.05.09.12.15.2.2a.9.9 0 0 0 .53.02l.1.41a1 1 0 0 1-.39.07c-.16 0-.31-.04-.46-.11A1 1 0 0 1 34 29v-2.6h-.79V26H34V25h.46v1h.7Zm-4.71 4v-2.44c.03-.57.72-1.12 1.31-1.12.57 0 .77.4.77 1.03V30H33v-2.56c0-.87-.32-1.44-1.11-1.44-.58 0-1.08.3-1.4.67h-.04V26H30v4h.46ZM47 27.53V30h-.47v-4h.46v.67h.04c.1-.2.25-.36.45-.48.2-.13.46-.19.76-.19.28 0 .52.06.73.17.2.1.37.27.49.48.11.22.17.48.17.8V30h-.47v-2.53c0-.32-.1-.58-.29-.77a1.01 1.01 0 0 0-.75-.28c-.22 0-.4.04-.57.13a1 1 0 0 0-.4.39c-.1.16-.15.36-.15.6Zm-20.26 2.22c.24.17.52.25.85.25a1.33 1.33 0 0 0 1.33-.9l-.39-.14c-.04.11-.1.22-.2.31a.93.93 0 0 1-.31.23c-.12.06-.27.09-.43.09-.25 0-.45-.06-.63-.19s-.32-.3-.41-.53a2.05 2.05 0 0 1-.14-.75H29v-.22c0-.33-.04-.6-.12-.84-.08-.24-.2-.44-.34-.6a1.33 1.33 0 0 0-1.01-.46c-.3 0-.57.09-.8.26-.23.17-.4.4-.54.71-.13.3-.2.65-.2 1.04s.07.74.2 1.04c.13.3.32.53.55.7Zm1.85-2.03H26.4c.01-.21.06-.41.14-.6.1-.21.22-.38.4-.52.16-.13.35-.2.58-.2.2 0 .39.07.55.18.16.12.28.28.37.47.1.2.14.43.14.67ZM44.19 30c-.32 0-.6-.08-.84-.25-.23-.17-.42-.4-.55-.7-.13-.3-.19-.65-.19-1.04 0-.4.06-.74.2-1.04.12-.3.3-.54.53-.71a1.34 1.34 0 0 1 1.81.2c.14.16.26.36.34.6.08.23.12.51.12.84v.22h-2.6c.01.28.06.53.15.75.1.23.23.4.4.53.19.13.4.19.64.19.16 0 .3-.03.43-.09a.93.93 0 0 0 .32-.23c.08-.1.15-.2.2-.31l.37.13a1.33 1.33 0 0 1-1.33.9Zm1-2.28h-2.17c.01-.21.06-.41.14-.6.1-.21.23-.38.4-.52.16-.13.36-.2.58-.2.2 0 .39.07.55.18.16.12.28.28.37.47.1.2.14.43.14.67Zm-19.93-1.45.5-.14c-.11-.35-.3-.63-.56-.83-.26-.2-.6-.3-1.04-.3-.31 0-.6.06-.84.17-.25.12-.45.28-.59.48-.14.2-.21.44-.21.7 0 .33.1.6.3.81.2.22.5.38.9.48l.78.2c.25.05.45.15.57.29.13.13.2.3.2.49 0 .25-.11.46-.33.63-.22.16-.5.25-.87.25-.32 0-.59-.08-.78-.22-.2-.15-.33-.37-.4-.66l-.53.14c.09.4.28.7.58.92.3.21.68.32 1.14.32.34 0 .65-.06.91-.18.27-.12.47-.29.62-.5.15-.21.22-.45.22-.73 0-.32-.1-.59-.3-.8-.2-.22-.5-.37-.89-.47l-.7-.18c-.3-.08-.52-.18-.66-.3a.66.66 0 0 1-.21-.51c0-.25.1-.45.3-.6.21-.16.47-.24.8-.24.2 0 .39.04.53.1.14.08.26.17.35.29.1.12.16.25.21.4Z" fill="rgb(96, 97, 99)" fill-rule="evenodd"/>
<path d="M51.73 26v.4h-1.95V26h1.95Zm-1.17-1H51v3.9c0 .17.05.3.1.4.05.09.12.15.2.2a.89.89 0 0 0 .53.02l.17.41c-.04.02-.16.03-.23.05a1.01 1.01 0 0 1-.69-.09 1 1 0 0 1-.52-.88V25ZM4 25v5h1v-4.09L6.2 30h.6L8 25.91V30h1v-5H7.44l-.95 2.83-.9-2.83H4Zm15.94 5c-.22 0-.42-.04-.6-.11a.97.97 0 0 1-.41-.35.99.99 0 0 1-.15-.56c0-.19.03-.35.1-.47a.83.83 0 0 1 .3-.3c.13-.08.27-.13.43-.17a3.52 3.52 0 0 1 .62-.1c.28 0 .77-.02.77-.3 0-.34-.25-.53-.63-.53a.8.8 0 0 0-.48.13.64.64 0 0 0-.23.3l-.77-.1c.06-.21.16-.38.3-.52.14-.14.3-.25.51-.31a2 2 0 0 1 .67-.11c.72 0 1.63.36 1.63 1.16V30h-1v-.53h-.04a.98.98 0 0 1-.54.46c-.14.05-.3.07-.48.07Zm.21-.59c.4 0 .85-.26.85-.7v-.4c-.1.1-.32.12-.48.13l-.12.02-.2.02-.32.08a.55.55 0 0 0-.23.16.37.37 0 0 0-.08.25c0 .14.05.26.16.33.11.08.25.11.43.11ZM18 30v-5h-1v5h1Zm-3.8 0c-.26 0-.5-.07-.7-.22a1.5 1.5 0 0 1-.5-.65 2.63 2.63 0 0 1-.18-1.04c0-.8.5-1.59 1.39-1.59.4 0 .7.26.8.56V25H16v5h-1v-.65a.77.77 0 0 1-.8.65Zm.23-.72c.5 0 .6-.48.6-1.2 0-.46-.12-.97-.6-.97-.6 0-.8.44-.8.97 0 .24.02.44.08.62.07.18.16.33.27.43.13.1.27.15.45.15Zm-4.19.5c.24.15.53.22.86.22.25 0 .48-.04.68-.12a1.18 1.18 0 0 0 .75-.86l-.72-.08a.62.62 0 0 1-.4.39c-.09.03-.19.05-.3.05a.76.76 0 0 1-.73-.43c-.07-.14-.1-.3-.11-.5h2.3v-.24c0-.3-.05-.55-.13-.77-.08-.21-.19-.39-.33-.53a1.3 1.3 0 0 0-.48-.3c-.18-.08-.37-.11-.57-.11-.32 0-.59.07-.82.22-.24.15-.42.36-.55.62-.13.26-.19.57-.19.92 0 .35.06.66.2.92.12.26.3.47.54.6Zm.03-1.78v-.03c0-.15.03-.3.1-.42a.81.81 0 0 1 .28-.3.74.74 0 0 1 .42-.13c.15 0 .28.04.39.1.11.08.2.17.26.3.07.11.1.33.1.48h-1.55Z" fill="rgb(96, 97, 99)"/>
<path d="m16.5 23.18-.7.68a.48.48 0 0 1-.66 0 .47.47 0 0 1 0-.66l1.1-1.1a.37.37 0 0 1 .52 0l1.1 1.1c.19.18.19.48 0 .66a.48.48 0 0 1-.67 0l-.69-.68Z" fill="rgb(81, 176, 89)"/>
<path d="m16.5 31.82-.7-.68a.48.48 0 0 0-.66 0 .47.47 0 0 0 0 .66l1.1 1.1c.14.14.38.14.52 0l1.1-1.1a.47.47 0 0 0 0-.66.48.48 0 0 0-.67 0l-.69.68Z" fill="rgb(224, 133, 56)"/>
</svg>
