<?xml version="1.0" encoding="UTF-8"?>
<!-- generated by Finnhub -->
<svg viewBox="0 0 55.5 55.5" xmlns="http://www.w3.org/2000/svg">
<path d="M 0,0 H 55.5 V 55.5 H 0 Z" fill="rgb(239, 242, 248)"/>
<path d="M 16.99,16.985 V 25.42 C 17,26.99 15.95,28.35 15.21,29.32 L 14.94,29.68 A 19.17,19.17 0 0,1 9.98,34.26 A 11.1,11.1 0 0,1 8,27.9 C 8,22.46 11.88,17.94 17,17 Z M 21,17 V 25.42 C 21,27.02 22.16,28.99 22.9,29.98 A 15.03,15.03 0 0,0 27.98,34.31 A 11.1,11.1 0 0,0 30,27.91 C 30,22.47 26.12,17.95 21,17 Z M 25.05,37.17 A 19.58,19.58 0 0,1 19.54,32.19 A 3.08,3.08 0 0,1 19.24,31.67 A 3.6,3.6 0 0,0 19,31.24 L 18.82,31.52 L 18.56,31.91 A 23.41,23.41 0 0,1 12.84,37.1 A 10.89,10.89 0 0,0 25.04,37.17 Z" fill="rgb(1, 88, 158)"/>
<path d="M 34.99,16.985 V 25.39 C 35,27.06 33.91,28.51 33.19,29.49 L 33.08,29.63 A 19.32,19.32 0 0,1 28,34.29 C 26.74,32.49 26,30.29 26,27.91 C 26,22.47 29.88,17.95 35,17 Z M 39,17 V 25.39 C 39,26.97 40.33,28.94 41.08,29.93 A 14.98,14.98 0 0,0 46.02,34.25 A 11.1,11.1 0 0,0 48,27.91 C 48,22.47 44.12,17.95 39,17 Z M 43.12,37.13 A 19.55,19.55 0 0,1 37.58,32.18 C 37.44,32 37.34,31.82 37.24,31.64 A 5.47,5.47 0 0,0 37,31.24 C 36.93,31.33 36.87,31.44 36.82,31.54 C 36.75,31.66 36.68,31.79 36.59,31.9 A 23.1,23.1 0 0,1 30.86,37.12 A 10.89,10.89 0 0,0 43.12,37.12 Z" fill="rgb(1, 88, 158)"/>
<path d="M 27.99,21.535 A 11.07,11.07 0 0,0 28,34.28 A 11.07,11.07 0 0,0 28,21.55 Z" fill="rgb(231, 58, 53)"/>
</svg>
