<?xml version="1.0" encoding="UTF-8"?>
<!-- generated by Finnhub -->
<svg viewBox="0 0 55.5 55.5" xmlns="http://www.w3.org/2000/svg">
<path d="M 0,0 H 55.5 V 55.5 H 0 Z" fill="rgb(239, 242, 248)"/>
<path d="M 27.99,42.985 A 15,15 0 1,0 28,13 A 15,15 0 0,0 28,43 Z M 28,44 A 16,16 0 1,0 28,12 A 16,16 0 0,0 28,44 Z" fill="rgb(7, 84, 150)" fill-rule="evenodd"/>
<path d="M 27.83,19.985 H 21.47 C 21.87,20.4 21.97,21.5 21.97,22 L 20,33 L 30.3,28.5 L 26.88,28.18 C 26.38,28.14 26.26,27.42 26.74,27.22 L 45,19.5 L 43.04,19 C 37.97,21 27.64,25 26.86,25 C 26.08,25 26.21,24.67 26.37,24.5 L 38.14,20 L 36.67,19 L 27.35,22.5 C 26.96,22.1 27.52,20.67 27.85,20 Z" fill="rgb(243, 130, 30)"/>
<path d="M 48.050000000000004,18.985 L 28,27.5 L 31.43,28.5 L 33.87,27.5 L 34.85,35 L 39.75,34.5 L 38.28,25.5 L 51,20 L 48.06,19 Z" fill="rgb(7, 84, 150)"/>
</svg>
