<?xml version="1.0" encoding="UTF-8"?>
<!-- generated by Finnhub -->
<svg viewBox="0 0 55.5 55.5" xmlns="http://www.w3.org/2000/svg">
<path d="M 0,0 H 55.5 V 55.5 H 0 Z" fill="rgb(239, 242, 248)"/>
<path d="M 27.99,44.985 A 17,17 0 0,0 38.7,14.8 C 38.5,15.64 37.84,16.3 37,16.5 V 35.34 A 2.19,2.19 0 1,1 33.85,36.34 L 24.32,21.95 A 1.92,1.92 0 0,1 23.56,22 L 15.75,36.1 A 2.6,2.6 0 0,1 15.67,39.7 C 18.77,42.97 23.15,45 28,45 Z M 12.74,35.5 A 2.6,2.6 0 0,1 14.57,35.37 L 22.35,21.34 A 1.91,1.91 0 1,1 25.44,21.13 L 34.81,35.29 A 2.18,2.18 0 0,1 36,35.02 V 16.52 A 2.3,2.3 0 0,1 34.97,12.49 A 17,17 0 0,0 12.74,35.49 Z" fill="url(#b)" fill-opacity=".4"/>
<path d="M 26.86,44.945 L 34.09,38.49 C 33.99,38.34 33.89,38.17 33.82,38 H 16.42 A 2.6,2.6 0 0,1 15.67,39.7 C 18.52,42.71 22.47,44.67 26.87,44.96 Z M 28.12,45 A 16.95,16.95 0 0,0 40.26,39.77 L 37.5,38.66 A 2.18,2.18 0 0,1 34.73,39.08 L 28.12,45 Z M 37.94,37.9 L 40.88,39.1 A 16.93,16.93 0 0,0 45,28 C 45,24.03 43.64,20.38 41.36,17.5 L 37,34.04 V 35.33 A 2.19,2.19 0 0,1 37.94,37.89 Z M 37,31.24 L 40.8,16.81 A 17.1,17.1 0 0,0 38.7,14.79 C 38.5,15.64 37.84,16.29 37,16.5 V 31.24 Z M 16.28,37 H 33.42 L 18.58,31 L 15.75,36.1 C 15.98,36.36 16.17,36.66 16.28,37 Z M 19,30.23 L 23.56,22 A 1.94,1.94 0 0,0 24.32,21.95 L 33.76,36.21 L 19,30.23 Z M 17.7,29.71 L 11.04,27 C 11.06,26.58 11.1,26.16 11.16,25.76 L 22.16,21.04 C 22.22,21.14 22.28,21.24 22.36,21.33 L 17.7,29.7 Z M 25.21,18.8 A 1.9,1.9 0 0,0 21.91,20.21 L 11.31,24.76 A 17,17 0 0,1 34.97,12.49 A 2.3,2.3 0 0,0 34.25,14.92 L 25.21,18.8 Z M 25.65,19.55 L 34.65,15.69 C 34.98,16.11 35.45,16.41 36,16.52 V 35.02 A 2.2,2.2 0 0,0 34.81,35.29 L 25.44,21.12 A 1.9,1.9 0 0,0 25.64,19.55 Z M 11,27.92 V 28 C 11,30.7 11.63,33.24 12.74,35.5 A 2.6,2.6 0 0,1 14.57,35.37 L 17.29,30.47 L 11,27.92 Z" fill="url(#a)"/>
<defs>
<linearGradient id="b" x1="45" x2="15.08" y1="22.31" y2="41.88" gradientUnits="userSpaceOnUse">
<stop stop-color="rgb(70, 93, 172)" offset="0"/>
<stop stop-color="rgb(11, 161, 195)" offset="1"/>
</linearGradient>
<linearGradient id="a" x1="45" x2="14.11" y1="21.26" y2="41.18" gradientUnits="userSpaceOnUse">
<stop stop-color="rgb(58, 82, 165)" offset=".04"/>
<stop stop-color="rgb(70, 93, 172)" offset=".33"/>
<stop stop-color="rgb(10, 160, 194)" offset="1"/>
</linearGradient>
</defs>
</svg>
