<?xml version="1.0" encoding="UTF-8"?>
<!-- generated by Finnhub -->
<svg viewBox="0 0 55.5 55.5" xmlns="http://www.w3.org/2000/svg">
<path d="M 0,0 H 55.5 V 55.5 H 0 Z" fill="rgb(239, 242, 248)"/>
<path d="M 18.65,15.915 C 22.34,12.31 27.37,11.23 32.32,12.53 A 15.8,15.8 0 0,1 43,22.38 C 43.58,23.98 43.9,25.68 44,27.47 C 44.05,28.47 43.97,29.57 43.76,30.73 C 42.53,37.62 35.61,44 28.51,44 C 19.64,44 12.41,37.92 12.01,28.65 C 11.95,27.11 12.13,25.52 12.55,23.88 C 12.67,23.42 12.91,23.02 13.15,22.61 C 13.28,22.38 13.42,22.15 13.53,21.91 C 13.54,21.89 13.56,21.89 13.58,21.9 L 13.61,21.91 C 13.63,21.91 13.64,21.92 13.64,21.93 C 13.66,21.95 13.66,21.97 13.65,22 C 13.45,22.58 13.25,23.13 13.08,23.67 A 10.33,10.33 0 0,0 12.88,29.67 C 14.3,35.01 20.76,40.81 26.48,41 C 33.1,41.21 38.98,36.92 40.05,30.12 A 12.3,12.3 0 0,0 30.12,16.33 C 26.92,15.75 23.61,16.55 21.02,18.48 A 25.43,25.43 0 0,0 17.07,22.45 L 16.68,22.91 C 16.51,23.11 16.48,23.09 16.58,22.84 A 12.95,12.95 0 0,1 17.48,21.24 C 17.55,21.14 17.53,21.13 17.44,21.2 A 1.64,1.64 0 0,0 17.1,21.6 A 0.03,0.03 0 0,1 17.08,21.6 L 17.03,21.55 A 0.15,0.15 0 0,1 16.99,21.37 L 17.81,19.82 C 17.9,19.64 17.86,19.62 17.7,19.73 L 17.53,19.88 A 0.06,0.06 0 0,1 17.47,19.9 C 17.44,19.9 17.44,19.88 17.45,19.85 C 17.88,19.13 18.38,18.55 18.95,18.1 L 18.93,18.06 L 18.9,18.04 H 18.87 C 18.67,18.18 18.46,18.21 18.25,18.16 A 0.42,0.42 0 0,0 17.9,18.22 L 16.65,19.09 A 0.08,0.08 0 0,1 16.57,19.09 A 0.08,0.08 0 0,1 16.52,19.04 A 0.25,0.25 0 0,1 16.54,18.85 A 9.85,9.85 0 0,1 19.76,15.44 V 15.4 A 38.23,38.23 0 0,1 18.71,15.98 C 18.57,16.06 18.56,16.04 18.67,15.93 Z" fill="url(#a)"/>
<path d="M 36.64,29.325 H 37.8 C 37.91,29.34 38,29.43 38,29.54 V 29.8 A 0.2,0.2 0 0,1 37.8,30 H 36.2 A 0.2,0.2 0 0,1 36,29.8 V 25.2 C 36,25.09 36.09,25 36.2,25 H 36.45 C 36.56,25 36.65,25.09 36.65,25.2 V 29.34 Z M 33.96,29 H 32.04 L 31.75,29.86 A 0.2,0.2 0 0,1 31.55,30 H 31.21 C 31.07,30 30.97,29.87 31.01,29.74 L 32.51,25.14 A 0.2,0.2 0 0,1 32.71,25 H 33.28 C 33.38,25 33.45,25.06 33.48,25.14 L 34.99,29.74 C 35.03,29.87 34.93,30 34.79,30 H 34.44 A 0.2,0.2 0 0,1 34.24,29.86 L 33.96,29 Z M 33.74,28.31 L 33,26 L 32.25,28.32 H 33.75 Z M 29.3,30 A 0.2,0.2 0 0,1 29.12,29.89 L 28.22,28 H 27.69 V 29.8 A 0.2,0.2 0 0,1 27.49,30 H 27.2 A 0.2,0.2 0 0,1 27,29.8 V 25.2 C 27,25.09 27.09,25 27.2,25 H 28.45 C 28.77,25 29.05,25.07 29.26,25.2 C 29.49,25.34 29.66,25.52 29.76,25.74 C 29.88,25.97 29.93,26.22 29.93,26.5 C 29.93,26.82 29.85,27.12 29.69,27.39 C 29.54,27.65 29.29,27.83 28.96,27.93 L 29.86,29.71 A 0.2,0.2 0 0,1 29.68,30 H 29.3 Z M 27.69,27.35 H 28.45 C 28.71,27.35 28.9,27.27 29.03,27.12 C 29.16,26.96 29.23,26.76 29.23,26.5 A 0.87,0.87 0 0,0 29.03,25.9 C 28.91,25.74 28.71,25.67 28.45,25.67 H 27.69 V 27.35 Z M 22.58,25 C 22.69,25 22.78,25.09 22.78,25.2 V 28.16 C 22.78,28.91 23.28,29.29 24,29.29 C 24.74,29.29 25.22,28.9 25.22,28.16 V 25.2 C 25.22,25.09 25.31,25 25.42,25 H 25.8 C 25.91,25 26,25.09 26,25.2 V 28.14 C 26,29.29 25.1,30 23.99,30 C 22.88,30 22,29.3 22,28.14 V 25.2 C 22,25.09 22.09,25 22.2,25 H 22.58 Z M 20.8,25 C 20.91,25 21,25.09 21,25.2 V 29.8 A 0.2,0.2 0 0,1 20.8,30 H 20.42 A 0.2,0.2 0 0,1 20.22,29.8 V 26.58 L 18.82,29.88 A 0.2,0.2 0 0,1 18.64,30 H 18.37 A 0.2,0.2 0 0,1 18.18,29.88 L 16.78,26.58 V 29.8 A 0.2,0.2 0 0,1 16.58,30 H 16.2 A 0.2,0.2 0 0,1 16,29.8 V 25.2 C 16,25.09 16.09,25 16.2,25 H 16.7 A 0.2,0.2 0 0,1 16.9,25.12 L 18.5,28.92 L 20.11,25.12 A 0.2,0.2 0 0,1 20.3,25 H 20.8 Z M 38,31.03 L 37.34,32.3 V 33.03 H 37.02 V 32.3 L 36.36,31.03 H 36.72 L 37.18,32.01 L 37.64,31.03 H 38 Z M 34.55,31.59 A 0.51,0.51 0 0,0 34.33,31.37 A 0.64,0.64 0 0,0 34.02,31.29 A 0.7,0.7 0 0,0 33.66,31.38 A 0.63,0.63 0 0,0 33.42,31.63 A 0.78,0.78 0 0,0 33.33,32 C 33.33,32.14 33.36,32.27 33.43,32.37 C 33.48,32.48 33.56,32.57 33.66,32.62 C 33.76,32.68 33.88,32.71 34.02,32.71 C 34.19,32.71 34.34,32.66 34.45,32.56 C 34.55,32.46 34.63,32.33 34.65,32.16 H 33.9 V 31.91 H 35 V 32.16 A 0.97,0.97 0 0,1 34.02,33 C 33.82,33 33.66,32.96 33.5,32.87 A 0.98,0.98 0 0,1 33,32 A 0.96,0.96 0 0,1 33.5,31.13 C 33.66,31.04 33.83,31 34.02,31 C 34.22,31 34.42,31.05 34.58,31.15 C 34.75,31.25 34.87,31.4 34.94,31.59 H 34.54 Z M 31,33 C 30.82,33 30.65,32.96 30.5,32.87 A 0.98,0.98 0 0,1 30,32 A 0.95,0.95 0 0,1 30.5,31.13 C 30.65,31.04 30.82,31 31,31 A 1,1 0 0,1 31.87,31.48 A 1,1 0 0,1 32,32 A 0.95,0.95 0 0,1 31.5,32.87 C 31.35,32.96 31.18,33 31,33 Z M 31,32.72 C 31.13,32.72 31.25,32.69 31.35,32.63 C 31.45,32.57 31.53,32.49 31.58,32.38 A 0.81,0.81 0 0,0 31.67,32 A 0.8,0.8 0 0,0 31.58,31.62 A 0.6,0.6 0 0,0 31.35,31.37 A 0.68,0.68 0 0,0 31,31.28 A 0.68,0.68 0 0,0 30.65,31.37 A 0.62,0.62 0 0,0 30.41,31.62 A 0.81,0.81 0 0,0 30.33,32 C 30.33,32.14 30.36,32.27 30.41,32.38 A 0.64,0.64 0 0,0 31,32.72 Z M 28.33,32.74 H 29 V 33 H 28 V 31 H 28.33 V 32.74 Z M 26,33 C 25.82,33 25.65,32.96 25.5,32.87 A 0.98,0.98 0 0,1 25,32 A 0.95,0.95 0 0,1 25.5,31.13 C 25.65,31.04 25.82,31 26,31 A 1,1 0 0,1 26.87,31.48 A 1,1 0 0,1 27,32 A 0.95,0.95 0 0,1 26.5,32.87 C 26.35,32.96 26.18,33 26,33 Z M 26,32.72 C 26.13,32.72 26.25,32.69 26.35,32.63 C 26.45,32.57 26.53,32.49 26.58,32.38 A 0.81,0.81 0 0,0 26.67,32 A 0.8,0.8 0 0,0 26.58,31.62 A 0.6,0.6 0 0,0 26.35,31.37 A 0.68,0.68 0 0,0 26,31.28 A 0.68,0.68 0 0,0 25.65,31.37 A 0.62,0.62 0 0,0 25.41,31.62 A 0.81,0.81 0 0,0 25.33,32 C 25.33,32.14 25.36,32.27 25.41,32.38 A 0.64,0.64 0 0,0 26,32.72 Z M 22,32 A 0.97,0.97 0 0,1 22.52,31.13 C 22.68,31.04 22.86,31 23.05,31 C 23.27,31 23.45,31.05 23.63,31.15 C 23.8,31.25 23.93,31.4 24,31.59 H 23.6 A 0.53,0.53 0 0,0 23.37,31.36 A 0.68,0.68 0 0,0 23.05,31.28 A 0.74,0.74 0 0,0 22.68,31.37 A 0.63,0.63 0 0,0 22.43,31.62 A 0.79,0.79 0 0,0 22.35,32 C 22.35,32.14 22.37,32.27 22.43,32.38 C 22.49,32.48 22.58,32.58 22.68,32.63 C 22.79,32.69 22.91,32.73 23.05,32.73 C 23.17,32.73 23.28,32.7 23.37,32.65 C 23.47,32.59 23.54,32.52 23.6,32.41 H 24 A 0.87,0.87 0 0,1 23.63,32.85 C 23.46,32.95 23.27,33 23.05,33 C 22.85,33 22.68,32.96 22.52,32.87 A 0.97,0.97 0 0,1 22,32 Z M 20.63,33 H 20.3 L 19.32,31.5 V 33 H 19 V 31 H 19.32 L 20.3,32.49 V 31 H 20.63 V 33 Z M 17,33 C 16.82,33 16.65,32.96 16.5,32.87 A 0.98,0.98 0 0,1 16,32 A 0.95,0.95 0 0,1 16.5,31.13 C 16.65,31.04 16.82,31 17,31 A 1,1 0 0,1 17.87,31.48 A 1,1 0 0,1 18,32 A 0.95,0.95 0 0,1 17.5,32.87 C 17.35,32.96 17.18,33 17,33 Z M 17,32.72 C 17.13,32.72 17.25,32.69 17.35,32.63 C 17.45,32.57 17.53,32.49 17.58,32.38 A 0.81,0.81 0 0,0 17.67,32 A 0.8,0.8 0 0,0 17.58,31.62 A 0.6,0.6 0 0,0 17.35,31.37 A 0.68,0.68 0 0,0 17,31.28 A 0.68,0.68 0 0,0 16.65,31.37 A 0.62,0.62 0 0,0 16.41,31.62 A 0.81,0.81 0 0,0 16.33,32 C 16.33,32.14 16.36,32.27 16.41,32.38 A 0.64,0.64 0 0,0 17,32.72 Z" fill="rgb(20, 40, 126)"/>
<defs>
<linearGradient id="a" x1="13.5" x2="44" y1="24.5" y2="32.5" gradientUnits="userSpaceOnUse">
<stop stop-color="rgb(20, 83, 141)" offset="0"/>
<stop stop-color="rgb(31, 223, 216)" offset="1"/>
</linearGradient>
</defs>
</svg>
