<?xml version="1.0" encoding="UTF-8"?>
<!-- generated by Finnhub -->
<svg viewBox="0 0 55.5 55.5" xmlns="http://www.w3.org/2000/svg">
<path d="M 0,0 H 55.5 V 55.5 H 0 Z" fill="rgb(239, 242, 248)"/>
<path d="M 5.99,24.985 V 32 H 8 V 26.98 L 10.8,32 H 12.22 L 15,26.98 V 32 H 17 V 25 H 13.83 L 11.54,29.52 L 9.2,25 H 6 Z M 17.56,27 H 19.44 L 20.79,30.84 L 22.09,27 H 23.89 L 21.49,32.85 C 21.34,33.23 20.78,34 19.76,34 A 6.6,6.6 0 0,1 18.98,33.9 V 32.63 C 19.05,32.67 19.27,32.75 19.55,32.75 C 19.87,32.75 20.19,32.45 20.43,31.87 H 19.66 L 17.56,27 Z M 24,27 H 25.7 V 27.87 A 2,2 0 0,1 27.41,27 A 1.62,1.62 0 0,1 29.15,28.55 V 29 H 27.69 C 27.72,28.66 27.56,28 26.71,28 C 26.08,28 25.8,28.68 25.7,29.23 V 32 H 24 V 27 Z M 32.5,27 A 2.5,2.5 0 1,0 32.5,32 H 33.5 A 2.5,2.5 0 0,0 35.8,30.5 H 34.22 C 34.14,30.79 33.92,31 33.64,31 H 32.36 C 32.02,31 31.75,30.68 31.75,30.29 V 30 H 35.95 A 2.5,2.5 0 0,0 33.5,27 H 32.5 Z M 32.36,28 C 32.02,28 31.75,28.32 31.75,28.71 V 29 H 34.25 V 28.71 C 34.25,28.32 33.98,28 33.65,28 H 32.35 Z M 36.21,27 L 38.07,29.46 L 36.03,32 H 38.26 L 39.38,30.25 L 40.48,32 H 42.7 L 40.66,29.46 L 42.45,27 H 40.22 L 39.38,28.41 L 38.47,27 H 36.2 Z M 44.7,25 H 43 V 26.47 H 44.7 V 25 Z M 44.7,27 H 43 V 32 H 44.7 V 27 Z M 49.87,28.5 H 51.69 V 28.48 C 51.69,27.66 51.04,27 50.22,27 H 47 C 46.17,27 45.5,27.68 45.5,28.51 C 45.5,29.35 46.17,30 47,30 L 49.77,30.03 C 50.03,30.03 50.23,30.23 50.23,30.49 C 50.23,30.74 50.03,31 49.77,31 H 47.77 C 47.52,31 47.32,30.74 47.32,30.5 H 45.5 V 30.52 C 45.5,31.34 46.16,32 46.97,32 H 50.46 C 51.31,32 52,31.3 52,30.45 C 52,29.59 51.31,29 50.46,29 H 47.73 C 47.5,29 47.32,28.71 47.32,28.48 C 47.32,28.26 47.5,28 47.72,28 H 49.44 C 49.68,28 49.87,28.27 49.87,28.5 Z" fill="rgb(32, 28, 28)" fill-rule="evenodd"/>
<path d="M 5.91,23.525 A 13.8,13.8 0 0,1 4.47,25.11 C 4.8,24.89 5.62,24.41 6.3,24.24 C 7.14,24.03 9.54,23.48 9.54,22.75 S 8.61,21.84 7.68,22.16 C 6.75,22.48 6.28,23 5.92,23.54 Z" fill="url(#g)"/>
<path d="M 6.25,22.085 C 5.5,22 4.1,22 4,22.03 C 4.67,21.81 6.1,21.35 6.54,21.18 C 7.68,20.93 8.86,20.94 8.73,21.34 C 8.6,21.74 7.02,22.19 6.26,22.1 Z" fill="url(#f)"/>
<path d="M 7.48,20.575 L 6.89,19.85 C 7.21,19.87 7.92,19.89 8.18,19.85 C 8.5,19.81 9.7,19.91 9.76,20.13 C 9.83,20.33 9.61,20.65 8.68,20.8 C 7.93,20.91 7.58,20.7 7.48,20.59 Z" fill="url(#e)"/>
<path d="M 16.759999999999998,23.525 C 17.07,23.98 17.85,24.77 18.21,25.11 A 7.02,7.02 0 0,0 16.39,24.24 C 15.54,24.03 13.14,23.48 13.14,22.75 S 14.07,21.84 15,22.16 C 15.93,22.48 16.4,23 16.77,23.54 Z" fill="url(#d)"/>
<path d="M 16.41,22.085 C 17.18,22 18.59,22 18.68,22.03 C 18.02,21.81 16.58,21.35 16.14,21.18 C 15,20.93 13.83,20.94 13.95,21.34 C 14.08,21.74 15.66,22.19 16.42,22.1 Z" fill="url(#c)"/>
<path d="M 15.19,20.575 L 15.8,19.85 C 15.48,19.87 14.76,19.89 14.5,19.85 C 14.18,19.81 12.99,19.91 12.92,20.13 C 12.85,20.33 13.07,20.65 14.01,20.8 C 14.75,20.91 15.11,20.7 15.2,20.59 Z" fill="url(#b)"/>
<path d="M 10.23,19.905 C 10.29,19.69 11.3,19.08 11.4,19 C 11.75,19.24 12.45,19.75 12.45,19.92 C 12.45,20.14 12.15,20.31 11.4,20.31 S 10.19,20.16 10.24,19.92 Z" fill="silver"/>
<path d="M 9.6,23.605 C 9.61,22.77 10.79,22.58 11.38,22.6 C 11.94,22.58 13.05,22.77 13.05,23.62 C 13.05,24.26 11.38,25.48 11.38,26.76 C 10.37,24.43 9.61,24.68 9.61,23.62 Z" fill="url(#a)"/>
<ellipse cx="11.35" cy="23.33" rx=".66" ry=".67" fill="rgb(254, 190, 117)"/>
<defs>
<linearGradient id="g" x1="5.52" x2="8.7" y1="24.38" y2="22.61" gradientUnits="userSpaceOnUse">
<stop stop-color="rgb(66, 66, 65)" offset="0"/>
<stop stop-color="rgb(180, 178, 178)" offset="1"/>
</linearGradient>
<linearGradient id="f" x1="5.19" x2="8.14" y1="21.94" y2="21.84" gradientUnits="userSpaceOnUse">
<stop stop-color="rgb(55, 55, 54)" offset="0"/>
<stop stop-color="rgb(169, 167, 167)" offset="1"/>
</linearGradient>
<linearGradient id="e" x1="7.15" x2="8.34" y1="20.06" y2="20.8" gradientUnits="userSpaceOnUse">
<stop stop-color="rgb(141, 139, 139)" offset="0"/>
<stop stop-color="rgb(183, 183, 182)" offset="1"/>
</linearGradient>
<linearGradient id="d" x1="17.17" x2="13.98" y1="24.38" y2="22.61" gradientUnits="userSpaceOnUse">
<stop stop-color="rgb(66, 66, 65)" offset="0"/>
<stop stop-color="rgb(180, 178, 178)" offset="1"/>
</linearGradient>
<linearGradient id="c" x1="17.49" x2="14.54" y1="21.94" y2="21.84" gradientUnits="userSpaceOnUse">
<stop stop-color="rgb(55, 55, 54)" offset="0"/>
<stop stop-color="rgb(169, 167, 167)" offset="1"/>
</linearGradient>
<linearGradient id="b" x1="15.53" x2="14.34" y1="20.06" y2="20.8" gradientUnits="userSpaceOnUse">
<stop stop-color="rgb(141, 139, 139)" offset="0"/>
<stop stop-color="rgb(183, 183, 182)" offset="1"/>
</linearGradient>
<linearGradient id="a" x1="11.33" x2="11.33" y1="22.59" y2="26.76" gradientUnits="userSpaceOnUse">
<stop stop-color="rgb(206, 68, 41)" offset="0"/>
<stop stop-color="rgb(105, 24, 42)" offset="1"/>
</linearGradient>
</defs>
</svg>
