<!-- by Finnhub --><svg xmlns="http://www.w3.org/2000/svg" width="56" height="56" viewBox="0 0 56 56"><path fill="#F0F3FA" d="M0 0h56v56H0z"/><path d="M23.76 14H14v12h25.2L23.76 14zM14 27v3.18L20.2 35H42v-6.82L40.48 27H40v1.5a.5.5 0 0 1-.5.5.5.5 0 0 1-.5-.5V27h-2v3.48a.5.5 0 0 1-.5.52.5.5 0 0 1-.5-.52V27h-2v1.5a.5.5 0 0 1-.5.5.5.5 0 0 1-.5-.5V27h-2v3.35c0 .36-.22.65-.5.65s-.5-.29-.5-.65V27h-2v1.5a.5.5 0 0 1-.5.5.5.5 0 0 1-.5-.5V27h-2v3.35c0 .36-.22.65-.5.65s-.5-.29-.5-.65V27h-2v1.5a.5.5 0 0 1-.5.5.5.5 0 0 1-.5-.5V27h-2v3.35c0 .36-.22.65-.5.65s-.5-.29-.5-.65V27h-2v1.5a.5.5 0 0 1-.5.5.5.5 0 0 1-.5-.5V27h-1zm28-.09V14H25.39L42 26.91zM42 36H21.5l7.73 6H42v-6zm-14.4 6L14 31.45V42h13.6z" fill="#EB1C2E"/></svg>