<?xml version="1.0" encoding="UTF-8"?>
<!-- generated by Finnhub -->
<svg viewBox="0 0 55.5 55.5" xmlns="http://www.w3.org/2000/svg">
<path d="M 0,0 H 55.5 V 55.5 H 0 Z" fill="rgb(239, 242, 248)"/>
<path d="M 34.13,41.335 C 30.17,43.43 25.84,42.21 24.16,41.35 C 23.26,41.27 22.01,40.97 24.16,40.4 C 26.84,39.69 38.66,32.55 40.59,30.9 C 42.52,29.24 41.74,29.65 41.94,31.91 C 42.14,34.18 39.09,38.74 34.14,41.35 Z" fill="url(#h)"/>
<path d="M 23.79,31.445 C 16.98,27.16 15.9,21.93 16.22,19.86 L 14.53,20.85 C 14.28,22.03 13.77,24.45 13.75,24.61 A 40.4,40.4 0 0,0 16.22,31.25 C 16.98,32.59 21.59,31.95 23.8,31.45 Z" fill="url(#g)"/>
<path d="M 27.709999999999997,43.455 C 36.33,43.47 43.32,36.51 43.32,27.94 C 43.32,19.36 36.33,12.41 27.72,12.41 A 15.56,15.56 0 0,0 12.13,27.94 C 12.13,36.51 19.11,43.47 27.73,43.47 Z M 27.72,41.86 C 35.44,41.86 41.7,35.62 41.7,27.94 C 41.7,20.24 35.44,14.01 27.72,14.01 A 13.95,13.95 0 0,0 13.75,27.94 C 13.75,35.62 20.01,41.86 27.72,41.86 Z" fill="url(#f)" fill-rule="evenodd"/>
<path d="M 27.99,44.855 C 37.39,44.87 45,37.29 45,27.94 C 45,18.58 37.39,11 28,11 S 11,18.58 11,27.94 C 11,37.29 18.61,44.87 28,44.87 Z M 28,43.12 C 36.42,43.12 43.24,36.32 43.24,27.94 C 43.24,19.55 36.42,12.75 28,12.75 S 12.76,19.55 12.76,27.94 C 12.76,36.32 19.58,43.12 28,43.12 Z" fill="url(#e)" fill-rule="evenodd"/>
<path d="M 21.95,42.245 H 18.9 C 19.9,43.17 23.16,45 28.25,45 C 40.75,45 45.85,32.55 44.89,26.89 L 43.12,31.87 L 42.9,31.71 A 15.49,15.49 0 0,1 21.96,42.26 Z" fill="url(#d)"/>
<path d="M 18.77,42.245 C 13.98,39.22 11.85,33.81 11.38,31.48 C 13.82,32.79 18.11,33.15 19.35,33.55 C 20.58,33.94 33.99,31.81 36.35,31.23 C 38.23,30.76 42.05,28.33 43.72,27.17 C 42.85,29.34 39.69,34.6 33.99,38.27 A 27.37,27.37 0 0,1 18.79,42.27 Z" fill="url(#c)"/>
<path d="M 14.68,20.525 C 12.14,24.2 12.64,29.76 13.21,32.08 L 13.23,32.09 C 17,33.71 29.25,39 43.12,27.12 C 36.06,36.86 20.32,38.49 12.13,34.18 C 12.5,35.18 13.11,36.25 13.37,36.67 C 28.97,41.63 39.52,32.13 43.64,26.97 C 34.79,40.94 20.53,39.97 15.06,39.02 A 9.3,9.3 0 0,0 16.64,40.67 C 32.51,43.04 41.53,30.57 42.04,29.83 C 42.46,29.24 43.95,26.96 44.64,25.9 L 43.01,30.2 L 42.67,29.56 L 42.27,30.02 L 43.01,31.3 L 44.84,25.73 L 44.64,24.73 L 39.52,27.32 L 40.68,28.32 C 39.94,29.13 37.03,30.99 31.37,31.89 C 24.17,33.04 14.79,28.94 14.69,20.54 Z" fill="url(#b)"/>
<path d="M 17.15,24.835 C 13.56,26.59 11.61,29.11 11.09,30.15 C 10.29,20.44 16.24,17.43 16.04,19.45 C 15.88,21.05 16.72,23.72 17.16,24.85 Z" fill="url(#a)"/>
<path d="M 20.419999999999998,40.955 C 19.98,40.58 19.43,40.07 18.84,39.45 L 18.41,39.42 C 19.04,40.02 19.7,40.56 20.36,40.97 H 20.43 Z M 16.64,37.52 L 17.27,37.64 C 16.77,37 16.28,36.32 15.84,35.6 C 15.56,35.53 15.29,35.45 15.02,35.36 C 15.4,35.93 15.96,36.71 16.64,37.52 Z M 13.64,32.27 L 14.41,32.59 A 9.5,9.5 0 0,1 14.04,31.03 C 13.41,26.78 13.98,22.98 14.34,21.61 A 16.95,16.95 0 0,0 13.64,32.27 Z" fill="rgb(149, 144, 188)"/>
<defs>
<linearGradient id="h" x1="31.68" x2="33.64" y1="36.86" y2="39.89" gradientUnits="userSpaceOnUse">
<stop stop-color="rgb(205, 219, 235)" offset="0"/>
<stop stop-color="rgb(87, 159, 208)" offset="1"/>
</linearGradient>
<linearGradient id="g" x1="15.51" x2="19.71" y1="23.64" y2="31.35" gradientUnits="userSpaceOnUse">
<stop stop-color="rgb(133, 183, 221)" offset=".19"/>
<stop stop-color="rgb(79, 156, 210)" offset=".25"/>
</linearGradient>
<linearGradient id="f" x1="16.61" x2="37.83" y1="17.34" y2="39.42" gradientUnits="userSpaceOnUse">
<stop stop-color="rgb(241, 245, 249)" offset="0"/>
<stop stop-color="rgb(128, 178, 217)" offset=".3"/>
<stop stop-color="rgb(98, 162, 207)" offset=".4"/>
<stop stop-color="rgb(121, 175, 214)" offset=".67"/>
<stop stop-color="rgb(217, 236, 250)" offset="1"/>
</linearGradient>
<linearGradient id="e" x1="25.59" x2="39.02" y1="11.84" y2="40.41" gradientUnits="userSpaceOnUse">
<stop stop-color="rgb(250, 250, 250)" offset="0"/>
<stop stop-color="rgb(128, 178, 217)" offset=".3"/>
<stop stop-color="rgb(98, 162, 207)" offset=".4"/>
<stop stop-color="rgb(108, 168, 210)" offset=".52"/>
<stop stop-color="rgb(25, 114, 184)" offset=".62"/>
<stop stop-color="rgb(121, 175, 214)" offset=".67"/>
<stop stop-color="rgb(217, 236, 250)" offset="1"/>
</linearGradient>
<linearGradient id="d" x1="20.71" x2="39.77" y1="42.65" y2="26.03" gradientUnits="userSpaceOnUse">
<stop stop-color="rgb(36, 60, 129)" offset="0"/>
<stop stop-color="rgb(38, 36, 101)" offset=".31"/>
<stop stop-color="rgb(34, 39, 108)" offset=".53"/>
<stop stop-color="rgb(26, 81, 155)" offset="1"/>
</linearGradient>
<linearGradient id="c" x1="16.18" x2="24.55" y1="39.02" y2="34.71" gradientUnits="userSpaceOnUse">
<stop stop-color="rgb(64, 139, 199)" offset="0"/>
<stop stop-color="rgb(239, 242, 248)" offset="1"/>
</linearGradient>
<linearGradient id="b" x1="15.81" x2="34.92" y1="31.2" y2="19.78" gradientUnits="userSpaceOnUse">
<stop stop-color="rgb(36, 37, 100)" offset="0"/>
<stop stop-color="rgb(27, 118, 183)" offset="1"/>
</linearGradient>
<linearGradient id="a" x1="13.11" x2="14.69" y1="19.47" y2="27.24" gradientUnits="userSpaceOnUse">
<stop stop-color="rgb(239, 244, 247)" offset="0"/>
<stop stop-color="rgb(239, 244, 247)" stop-opacity="0" offset="1"/>
</linearGradient>
</defs>
</svg>
