<?xml version="1.0" encoding="UTF-8"?>
<!-- generated by Finnhub -->
<svg viewBox="0 0 55.5 55.5" xmlns="http://www.w3.org/2000/svg">
<path d="M 0,0 H 55.5 V 55.5 H 0 Z" fill="rgb(239, 242, 248)"/>
<path d="M 44.39,32.485 A 16.84,16.84 0 0,1 36.37,42.8 A 17,17 0 0,1 11.42,31.74 A 16.98,16.98 0 0,1 32.65,11.66 C 33.15,11.8 33.61,11.99 33.72,12.64 C 33.67,13.11 33.42,13.46 32.86,13.57 L 32.09,13.4 C 31.53,13.28 30.96,13.15 30.39,13.06 A 15.13,15.13 0 0,0 13.2,24.65 A 15.09,15.09 0 0,0 24.2,42.68 A 15.18,15.18 0 0,0 43,30.38 C 43.57,26.77 42.88,23.38 41.03,20.23 A 5.14,5.14 0 0,1 40.58,19.41 A 0.87,0.87 0 0,1 41.01,18.29 C 41.39,18.09 41.79,18.17 42.11,18.54 A 16.75,16.75 0 0,1 44.98,28.69 A 16.6,16.6 0 0,1 44.41,32.49 Z M 31,32.15 V 28.2 C 31,27.18 30.53,26.33 29.72,25.7 A 2.7,2.7 0 0,0 26.82,25.35 C 25.82,25.8 25.04,26.59 25,27.74 C 24.98,28.44 24.98,29.13 25,29.83 A 81.78,81.78 0 0,1 25,31.3 V 31.77 C 24.98,32.32 24.85,32.74 24.33,32.93 C 23.83,33.11 23.43,32.9 23,32.3 V 29.57 C 23,28.92 23,28.27 23.02,27.62 A 4.94,4.94 0 0,1 27.38,23.01 C 29.98,22.79 32.28,24.35 32.8,26.75 C 32.93,27.39 32.95,28.05 32.97,28.72 L 32.99,29.17 V 31.51 C 33,32.1 33.01,32.71 32.33,32.93 C 31.68,33.15 31.39,32.75 31,32.15 Z M 37.03,14.97 A 0.89,0.89 0 0,0 36.96,15.34 A 0.92,0.92 0 0,0 37.87,16.32 A 0.95,0.95 0 0,0 38.87,15.33 A 0.9,0.9 0 0,0 37.91,14.41 A 0.9,0.9 0 0,0 37.03,14.97 Z"/>
</svg>
