<!-- by Finnhub --><svg xmlns="http://www.w3.org/2000/svg" width="56" height="56"><path fill="#F0F3FA" d="M0 0h56v56H0z"/><path d="M42.52 16.94a13.8 13.8 0 011.73 4.23c1.27 5.07.78 10.3-.4 15.31-.12-2-.13-4.55-1.55-6.17-3.01-3.44-8.64 1.51-10.9 3.5v.01c-2.99 2.62-6.09 5.72-9.26 7.23-4.86 2.3-7.92.14-9.57-3.53a12.2 12.2 0 01-.78-2.67 58.47 58.47 0 01-.72-4.96c-.24-3.42.16-6.7 1.24-10.39 0 1.66.04 2.97.32 4 1.58 5.2 5.79 3.55 9.65.72 3.12-2.28 5.64-5.2 8.74-7.47 3.7-2.71 8.36-4.6 11.5.2z" fill="url(#a2kohl0p2)"/><path d="M13.47 16.94a13.8 13.8 0 00-1.74 4.23c-1.27 5.07-.67 11.5.4 15.12.1-2 .14-4.36 1.56-5.98 3-3.44 8.64 1.51 10.9 3.5v.01c2.99 2.62 6.08 5.72 9.26 7.23 7.79 3.7 10.6-4.24 11.07-11.16.24-3.42-.04-6.7-1.12-10.39 0 1.66-.16 2.97-.44 4-1.58 5.2-5.8 3.55-9.66.72-3.1-2.28-5.63-5.2-8.74-7.47-3.7-2.71-8.36-4.6-11.5.2z" fill="url(#b2kohl0p2)"/><defs><linearGradient id="a2kohl0p2" x1="11.01" y1="30.66" x2="45.02" y2="30.66" gradientUnits="userSpaceOnUse"><stop stop-color="#40C0FF"/><stop offset=".12" stop-color="#4AE7FE"/><stop offset=".19" stop-color="#4FF5FD"/><stop offset=".4" stop-color="#53FFFF"/><stop offset=".68" stop-color="#53FFFF"/><stop offset=".92" stop-color="#51FBFF"/><stop offset="1" stop-color="#45D9FC"/></linearGradient><linearGradient id="b2kohl0p2" x1="44.98" y1="30.66" x2="10.97" y2="30.66" gradientUnits="userSpaceOnUse"><stop stop-color="#57C9FF"/><stop offset=".2" stop-color="#2666FE"/><stop offset=".38" stop-color="#1F39FE"/><stop offset=".52" stop-color="#2035FF"/><stop offset=".65" stop-color="#2043FF"/><stop offset="1" stop-color="#4ACDFC"/></linearGradient></defs></svg>