<?xml version="1.0" encoding="UTF-8"?>
<!-- generated by Finnhub -->
<svg viewBox="0 0 55.5 55.5" xmlns="http://www.w3.org/2000/svg">
<path d="M 0,0 H 55.5 V 55.5 H 0 Z" fill="rgb(239, 242, 248)"/>
<path d="M 28.99,14.024999999999999 C 28.9,14.06 28.49,14.1 28.07,14.13 C 23.55,14.43 19.34,15.74 16.24,17.8 C 13.12,19.86 11.51,22.53 11.63,25.4 C 11.73,27.9 12.62,30 14.25,31.61 C 15.96,33.31 18.24,34.32 21.43,34.79 C 22.03,34.88 22.15,34.87 21.99,34.74 A 15.31,15.31 0 0,1 20.49,33.9 C 17.84,32.25 16.22,30.24 15.67,27.95 C 15.57,27.55 15.57,27.41 15.57,26.49 A 9.16,9.16 0 0,1 18.33,19.9 A 16.53,16.53 0 0,1 22.65,16.97 A 30.67,30.67 0 0,1 31.33,14.35 C 31.91,14.25 32.4,14.17 32.41,14.15 L 32.17,14.11 A 6.08,6.08 0 0,1 31.68,14.04 C 31.43,13.99 29.22,13.99 28.99,14.04 Z M 31.47,15.74 C 29.59,15.92 28.04,16.3 26.49,16.96 C 24.59,17.77 22.85,18.98 21.47,20.45 C 20.76,21.21 20.04,22.16 20.12,22.24 C 20.13,22.25 20.43,22.13 20.79,21.96 A 24.32,24.32 0 0,1 32.16,19.58 C 37.29,19.86 41.38,21.94 44.1,25.66 C 44.74,26.52 45.6,28.08 45.94,28.99 C 46.38,30.14 46.74,31.38 46.89,32.33 C 47.01,33.01 47.01,33.02 47.17,32.67 C 47.32,32.35 47.54,31.72 47.65,31.32 C 48.11,29.62 48.12,27.43 47.68,25.76 A 13.25,13.25 0 0,0 44.46,20.09 A 14.5,14.5 0 0,0 36.08,15.87 A 22,22 0 0,0 31.48,15.73 Z M 34.15,21.15 C 34.04,21.2 34.1,21.25 34.53,21.51 C 34.96,21.76 35.81,22.31 36.03,22.48 C 38.03,24.01 39.16,25.25 39.93,26.76 C 40.43,27.74 40.65,28.56 40.65,29.54 C 40.65,32.24 39.24,35.06 36.97,36.89 C 35.43,38.13 32.44,39.64 29.6,40.6 C 28.5,40.98 26.75,41.46 25.99,41.6 C 25.17,41.75 24.73,41.83 24.35,41.88 C 23.59,41.98 23.82,42.02 24.95,41.99 C 28.14,41.9 30.77,41.59 33.39,40.97 C 37.84,39.92 41.58,37.65 43.37,34.91 C 43.84,34.19 44.19,33.33 44.39,32.41 C 44.54,31.74 44.56,30.25 44.44,29.44 A 8.39,8.39 0 0,0 43.28,26.06 C 42.48,24.83 41.04,23.55 39.48,22.66 A 12.8,12.8 0 0,0 35.4,21.19 A 4.8,4.8 0 0,0 34.15,21.15 Z M 8.9,23.2 C 8.58,23.95 8.3,25.05 8.17,26.07 L 8.05,26.82 C 7.98,27.22 7.97,28.6 8.04,28.78 L 8.13,29.31 C 8.43,32.01 9.71,34.47 11.74,36.24 C 12.28,36.71 12.32,36.74 12.84,37.12 A 19.09,19.09 0 0,0 20.35,40.12 C 22.14,40.43 24.23,40.44 26,40.14 A 15,15 0 0,0 35.93,33.76 C 35.95,33.68 35.85,33.72 35.63,33.89 A 13.68,13.68 0 0,1 30.9,36.13 C 29.67,36.45 28.87,36.58 27.4,36.68 A 21.97,21.97 0 0,1 21.76,36.25 A 22.55,22.55 0 0,1 14.68,33.68 A 12.27,12.27 0 0,1 10.47,29.58 A 10.67,10.67 0 0,1 9.06,23.15 C 9.1,22.91 9.01,22.94 8.9,23.2 Z" fill="rgb(93, 93, 92)"/>
</svg>
