<?xml version="1.0" encoding="UTF-8"?>
<!-- generated by Finnhub -->
<svg viewBox="0 0 55.5 55.5" xmlns="http://www.w3.org/2000/svg">
<path d="M0 0h55.5v55.5H0z" fill="rgb(239, 242, 248)"/>
<path d="M28 45a17 17 0 1 0 0-34 17 17 0 0 0 0 34Zm15-17a15 15 0 1 1-30 0 15 15 0 0 1 30 0Zm-.16 0a14.84 14.84 0 1 1-29.68 0 14.84 14.84 0 0 1 29.68 0ZM28 39.4a11.4 11.4 0 1 0 0-22.8 11.4 11.4 0 0 0 0 22.8Zm0-.16a11.24 11.24 0 1 0 0-22.48 11.24 11.24 0 0 0 0 22.48ZM35.27 28a7.27 7.27 0 1 1-14.54 0 7.27 7.27 0 0 1 14.54 0Zm-.16 0a7.1 7.1 0 1 1-14.22 0 7.1 7.1 0 0 1 14.22 0Z" fill="rgb(51, 166, 222)"/>
<circle cx="28" cy="28" r="3" fill="rgb(154, 26, 22)"/>
<circle cx="28.14" cy="27.32" r="2.09" fill="rgb(194, 30, 20)"/>
<circle cx="28.25" cy="27.04" r="1.61" fill="rgb(254, 24, 23)"/>
</svg>
