<?xml version="1.0" encoding="UTF-8"?>
<!-- generated by Finnhub -->
<svg viewBox="0 0 55.5 55.5" xmlns="http://www.w3.org/2000/svg">
<path d="M0 0h55.5v55.5H0z" fill="rgb(239, 242, 248)"/>
<path d="M7 22h4.5v2c.86-.9 2.48-2 4.63-2 2.7 0 3.4 1.5 3.41 2.26l-1.43 4.64.62 3.4L20.7 35H16.5v-6.41a2.59 2.59 0 0 0-2.6-2.57c-.58.03-1.72.33-2.4 1.24V35H7V22Zm24 0h3.44l2.63 6.62L40.42 22l3.23 6.62L46.34 22H51l-4.9 13h-3.47l-2.21-4.38L38.26 35h-3.52l-1.5-3.7c.32-.54.95-1.95.95-3.28 0-1.33-.51-2.66-.77-3.17L31 22Z"/>
<path d="m19.49 23.33-.96 1.65c-.23.13-.41.38-.55.77a6.08 6.08 0 0 0 .14 5.34c.01 0 .02 0 .03-.02l.2.84c-1.74-2.55-1.38-4.91.04-7.46l.8-1.1a.17.17 0 0 1 .12-.08.2.2 0 0 1 .18.06Z" fill="rgb(1, 109, 196)"/>
<path d="m18.53 24.98-.75 2.72.2-1.95c.14-.39.32-.64.55-.77Z" fill="rgb(60, 178, 134)"/>
<path d="M34.15 25.04c.89 1.93.8 3.9-.25 5.9-.02.03-.08.06-.2.07.72-1.94.87-3.93.45-5.97Z" fill="rgb(1, 109, 196)"/>
<path d="M32.61 21.98c.63.92 1.15 1.95 1.54 3.06a10.7 10.7 0 0 1-.45 5.97l-.07.3c-1.32 2.41-2.92 4.39-5.67 5.27-2.99.96-5.65.27-8-2.06l-1.6-2.61-.21-.84a.34.34 0 0 0 .02-.24 9 9 0 0 1-.4-3.13l.76-2.72.96-1.65a8.48 8.48 0 0 1 4.63-3.82c.27-.08.54-.19.81-.3.5-.03 1-.21 1.47-.21 2.54.02 4.6 1 6.21 2.98Zm-5.45-2.6a8.37 8.37 0 0 0-6.36 2.7 9.38 9.38 0 0 0-2.18 9.62l.51 1.2c.3.65.7 1.22 1.22 1.7C24 38.25 29.57 37 32.33 33l.64-1.06a8.98 8.98 0 0 0 1.07-5.85 7 7 0 0 0-.75-2.58 4.6 4.6 0 0 0-1-1.59 7.1 7.1 0 0 0-5.13-2.54Z" fill="rgb(223, 230, 45)"/>
<path d="M24.93 19.2c-.27.12-.54.23-.8.31a8.48 8.48 0 0 0-4.64 3.82.2.2 0 0 0-.18-.06c-.05 0-.1.03-.12.07l-.8 1.1.72-1.78a6.76 6.76 0 0 1 5.82-3.45Z" fill="rgb(60, 178, 134)"/>
<path d="M27.16 19.38a9.27 9.27 0 0 1 3.99 2.3 11.12 11.12 0 0 0-7.94-.57c-.42.12-1.23.45-2.4.98a8.37 8.37 0 0 1 6.35-2.71Z" fill="rgb(60, 178, 134)"/>
<path d="m31.15 21.69.38.27 1.76 1.55a7 7 0 0 1 .75 2.58 5.33 5.33 0 0 0-.98-1.73 7.5 7.5 0 0 0-3.4-2.59 8.46 8.46 0 0 0-4.92-.69 8.1 8.1 0 0 0-3.48 1.14c-.27.16-.76.52-1.47 1.08.31-.5.65-.9 1.01-1.21 1.18-.53 1.99-.86 2.41-.98 2.72-.8 5.4-.59 7.94.58Z" fill="rgb(1, 109, 196)"/>
<path d="M24.74 21.08c-3.09.97-6.07 3.54-6.14 6.84a7.8 7.8 0 0 0 2.5 5.9 8.8 8.8 0 0 1-1.64-1.1c-.34-.29-.53-.67-.84-1.01-.95-3.01-.56-5.81 1.17-8.41.71-.56 1.2-.92 1.47-1.08a8.1 8.1 0 0 1 3.48-1.14Z" fill="rgb(60, 178, 134)"/>
<path d="M29.66 21.77a7.5 7.5 0 0 1 3.4 2.6c1.13 2.72.8 4.93-.27 7.58a8.65 8.65 0 0 1-4.68 2.8c.59-.3 1.14-.66 1.64-1.07.03-.02.04-.04.03-.07 0-.05-.02-.06-.07-.03-4.5 3.09-10.63-.48-10.2-5.8A6.43 6.43 0 0 1 25.94 22c3.75-.01 6.87 3.19 6.45 6.92-.06.58-.03.58.11.01.18-.73.18-1.61 0-2.65a6.74 6.74 0 0 0-2.84-4.5Zm2.3 4.75a6.1 6.1 0 0 0-3.02-3.6 6.37 6.37 0 0 0-8.47 2.54 6.05 6.05 0 0 0-.48 4.66 6.1 6.1 0 0 0 3.03 3.6 6.37 6.37 0 0 0 8.47-2.53 6.05 6.05 0 0 0 .48-4.67Z" fill="rgb(60, 178, 134)"/>
<path d="M18.62 31.7c.3.35.5.73.84 1.02.5.43 1.04.8 1.63 1.1a9.5 9.5 0 0 0 7.02.94 8.65 8.65 0 0 0 4.68-2.8c.04-.05.1-.05.18-.02L32.32 33c-.32.19-.59.44-.8.76l-.02-.05v-.01l-.02-.01a.04.04 0 0 0-.04 0 10.45 10.45 0 0 1-10.09.83c-.48-.2-.93-.6-1.46-.85l-.76-.78-.51-1.18Z" fill="rgb(1, 109, 196)"/>
<path d="M19.89 33.67c.53.25.98.64 1.46.85a10.45 10.45 0 0 0 10.13-.83.04.04 0 0 1 .02.02l.02.05c-2.91 3.22-7.45 3.38-10.8.75l-.83-.84Z" fill="rgb(60, 178, 134)"/>
</svg>
