<?xml version="1.0" encoding="UTF-8"?>
<!-- generated by Finnhub -->
<svg viewBox="0 0 55.5 55.5" xmlns="http://www.w3.org/2000/svg">
<path d="M 0,0 H 55.5 V 55.5 H 0 Z" fill="url(#a)"/>
<path d="M 9.99,25.985 V 17.5 L 16.52,23.1 V 18 H 18 V 26.5 L 11.59,20.75 V 26 H 10 Z M 30.76,19.85 L 31.63,20.88 L 34,18 H 32.25 L 30.75,19.85 Z M 26.12,18.01 L 28.81,21.45 H 19 V 22.45 H 28.65 L 26,26 H 27.73 L 30.92,21.84 L 27.72,18.01 H 26.12 Z M 19,18 H 25 V 19 H 19 V 18 Z M 19,25 H 25 V 26 H 19 V 25 Z M 31.63,23.12 L 30.76,24.15 L 32.25,26 H 34 L 31.63,23.12 Z M 37.5,18 H 35 V 19 H 37.5 V 26 H 39 V 19 H 41.5 V 18 H 37.5 Z M 10.96,28.5 L 9,37 H 10.59 L 11.45,32.63 L 14.11,37.5 L 16.65,32.63 L 17.25,37 H 19 L 17.26,28.5 L 14.11,34.36 L 10.96,28.5 Z M 26,29 H 20 V 30 H 26 V 29 Z M 26,36 H 20 V 37 H 26 V 36 Z M 20,32.5 H 26 V 33.5 H 20 V 32.5 Z M 35,29 H 41.5 V 30 H 39 V 37 H 37.5 V 30 H 35 V 29 Z M 27.97,37 H 26.4 L 30.8,28.5 L 35.11,37 H 33.4 L 32.48,35 H 28.98 L 27.97,37 Z M 30.8,31.35 L 32.02,34 H 29.47 L 30.8,31.35 Z M 43.43,34.35 L 42,34.68 C 42.42,36.47 43.63,37 44.75,37 C 45.86,37 48,36.45 48,34.74 C 48,33.04 46.46,32.4 45.5,32.15 C 44.55,31.9 44.04,31.42 44.04,31.07 C 44.04,30.72 44.27,30.19 45.22,30.19 C 45.99,30.19 46.44,30.74 46.58,31.01 L 47.78,30.35 C 47.43,29.65 46.62,29 45.15,29 C 43.69,29 42.44,29.84 42.44,31.01 C 42.44,32.19 43.52,32.83 44.74,33.26 C 45.97,33.7 46.36,34.1 46.36,34.58 C 46.36,35.07 46.25,35.78 44.96,35.78 C 43.94,35.78 43.52,34.82 43.43,34.34 Z" fill="rgb(254, 254, 253)" fill-rule="evenodd"/>
<defs>
<linearGradient id="a" x1="10.42" x2="68.15" y1="9.71" y2="76.02" gradientUnits="userSpaceOnUse">
<stop stop-color="rgb(25, 29, 31)" offset="0"/>
<stop stop-color="rgb(5, 5, 8)" offset="1"/>
</linearGradient>
</defs>
</svg>
