<!-- by Finnhub --><svg xmlns="http://www.w3.org/2000/svg" width="56" height="56" viewBox="0 0 56 56"><path fill="#F0F3FA" d="M0 0h56v56H0z"/><rect x="13" y="13" width="30" height="30" rx="3" fill="url(#aom1t2ygs)"/><path d="M20 20.6a1 1 0 0 1 1.3-.96c.15.03.3.1.43.2l9.84 7.36a1.02 1.02 0 1 1-1.23 1.63L22 22.58v9.27a2.37 2.37 0 1 1-2 0V20.6z" fill="#F0F3FA"/><path d="M36 35.51a1 1 0 0 1-1.65.77l-9.84-7.36a1.02 1.02 0 1 1 1.22-1.64l8.27 6.2v-9.33a2.37 2.37 0 1 1 2 0v11.36z" fill="#F0F3FA"/><circle cx="35" cy="22" r="1" fill="#9A9A9A"/><circle cx="21" cy="34" r="1" fill="#9A9A9A"/><defs><linearGradient id="aom1t2ygs" x1="13" y1="13" x2="42.22" y2="43" gradientUnits="userSpaceOnUse"><stop stop-color="#EDEDED"/><stop offset=".87" stop-color="#A6A6A6"/></linearGradient></defs></svg>