<?xml version="1.0" encoding="UTF-8"?>
<!-- generated by Finnhub -->
<svg fill="none" viewBox="0 0 55.5 55.5" xmlns="http://www.w3.org/2000/svg">
<rect width="56" height="56" fill="url(#a)"/>
<path d="M7.52388 24C5.50514 24 4 25.6999 4 28.0179C4 30.3239 5.49316 32 7.53586 32C9.72045 32 11 30.0433 11 28.0179C11 26.006 9.72172 24 7.52388 24ZM7.50003 24.3685C9.00006 24.3685 9 26.9096 9 27.9941C9 29.0639 9.05894 31.6315 7.53586 31.6315C6 31.6315 6 29.0553 6 27.9941C6 26.9254 6 24.3685 7.50003 24.3685Z" fill="rgb(254, 254, 253)"/>
<path d="m17 32v-3h-0.3215c0 1.5-0.6778 2.6092-2.3464 2.6092h-0.3321v-7.2183h1v-0.3909h-4v0.3909h1v7.2183h-1v0.3908h6z" fill="rgb(254, 254, 253)"/>
<path d="M21 24.3909H22V24H18V24.3909L19 24.364V31.5823L18 31.6092V32H22V31.6092H21V24.3909Z" fill="rgb(254, 254, 253)"/>
<path d="m26.333 29.205-1.8007-4.8215h0.7878v-0.3839h-3.3199v0.3839h0.619l2.8585 7.6161h0.3376l2.2395-6.9206 0.0675-0.2398c0.1126-0.3718 0.2364-0.4557 0.6303-0.4557h0.2476v-0.3839h-2.2733v0.3839h0.5064c0.3826 0 0.5177 0.0599 0.5177 0.2638 0 0.0839-0.0225 0.2039-0.0675 0.3239l-0.09 0.2638-1.2605 3.97z" fill="rgb(254, 254, 253)"/>
<path d="M32 24.3909H32.945C34.2287 24.3909 34.9273 25.0181 35.3144 26.2351H35.6993L35.5911 24H29V24.3909H30V31.6092H29V32H36V29.374H35.5911C35.3164 30.5594 34.5828 31.6092 33.2697 31.6092H32V28H32.1632C33.1103 28 33.5251 28.5702 33.6151 29.4657H34V26H33.6151C33.4948 26.9283 32.9931 27.6092 32.1873 27.6092H32V24.3909Z" fill="rgb(254, 254, 253)"/>
<path d="M38 31.6092H37V32H40.1848C42.4839 32 44 30.3114 44 27.9695C44 25.9282 42.8036 24 40.6087 24H37V24.3909H38V31.6092ZM40 31.6092V24.3909H40.5109C42 24.3909 42 26.7564 42 27.9695C42 29.4712 42 31.5838 40.1956 31.6092H40Z" fill="rgb(254, 254, 253)"/>
<path d="m48.56 30 0.6252 1.6162h-1.0419v0.3838h3.8562v-0.3838h-0.8143l-2.8743-7.6162h-0.3473l-2.7425 6.7526c-0.3234 0.8036-0.3952 0.8636-0.994 0.8636h-0.2276v0.3838h2.527v-0.3838h-0.4312c-0.4191 0-0.5868-0.0839-0.5868-0.3119 0-0.1439 0.0718-0.4077 0.1916-0.6956l0.2738-0.6087h2.5861zm-0.1556-0.3958h-2.2629l1.1754-2.9296 1.0875 2.9296z" fill="rgb(254, 254, 253)"/>
<defs>
<linearGradient id="a" x1="28" x2="28" y2="56" gradientUnits="userSpaceOnUse">
<stop stop-color="rgb(23, 26, 28)" offset="0"/>
<stop stop-color="rgb(23, 26, 28)" offset="1"/>
</linearGradient>
</defs>
</svg>
