<?xml version="1.0" encoding="UTF-8"?>
<!-- generated by Finnhub -->
<svg viewBox="0 0 55.5 55.5" xmlns="http://www.w3.org/2000/svg">
<path d="M 0,0 H 55.5 V 55.5 H 0 Z" fill="rgb(236, 27, 34)"/>
<path d="M 11.99,13.985 A 2,2 0 0,1 14,12 H 42 A 2,2 0 0,1 44,14 V 42 A 2,2 0 0,1 42,44 H 14 A 2,2 0 0,1 12,42 V 14 Z" fill="rgb(254, 254, 253)"/>
<path d="M 15.49,14.985 A 0.5,0.5 0 0,0 15,15.5 V 27.5 A 0.5,0.5 0 0,1 14,27.5 V 15.5 A 1.5,1.5 0 0,1 17,15.5 V 20.5 A 0.5,0.5 0 0,0 17.5,21 H 19.6 A 0.4,0.4 0 0,0 20,20.6 V 14.5 A 0.5,0.5 0 0,1 21,14.5 V 20.6 C 21,20.82 21.18,21 21.4,21 H 23.5 A 0.5,0.5 0 0,0 24,20.5 V 15.5 A 1.5,1.5 0 0,1 27,15.5 V 27.5 A 0.5,0.5 0 0,1 26,27.5 V 15.5 A 0.5,0.5 0 0,0 25,15.5 V 20.5 A 1.5,1.5 0 0,1 23.5,22 H 21 V 23.6 C 21,23.82 21.18,24 21.4,24 H 23.5 A 0.5,0.5 0 0,1 23.5,25 H 21.4 A 0.4,0.4 0 0,0 21,25.4 V 26.6 C 21,26.82 21.18,27 21.4,27 H 24.5 A 0.5,0.5 0 0,1 24.5,28 H 16.5 A 0.5,0.5 0 0,1 16.5,27 H 19.6 A 0.4,0.4 0 0,0 20,26.6 V 25.4 A 0.4,0.4 0 0,0 19.6,25 H 17.5 A 0.5,0.5 0 0,1 17.5,24 H 19.6 A 0.4,0.4 0 0,0 20,23.6 V 22 H 17.5 A 1.5,1.5 0 0,1 16,20.5 V 15.5 A 0.5,0.5 0 0,0 15.5,15 Z M 29,14.5 A 0.5,0.5 0 0,1 29.5,14 H 41.5 A 0.5,0.5 0 0,1 41.5,15 H 36.4 A 0.4,0.4 0 0,0 36,15.4 V 18.174 C 36,18.694 36.774,19 37.404,19 H 40.6 A 0.4,0.4 0 0,0 41,18.6 V 17.5 A 0.5,0.5 0 0,1 42,17.5 V 25.5 A 2.5,2.5 0 0,1 39.5,28 H 31.5 A 2.5,2.5 0 0,1 29,25.5 V 17.5 A 0.5,0.5 0 0,1 30,17.5 V 18.6 C 30,18.82 30.18,19 30.4,19 H 33.596 C 34.226,19 35,18.712 35,18.174 V 15.4 A 0.4,0.4 0 0,0 34.6,15 H 29.5 A 0.5,0.5 0 0,1 29,14.5 Z M 35.828,19.435 A 0.53,0.53 0 0,0 35.172,19.435 A 2.507,2.507 0 0,1 33.596,20 H 30.4 A 0.4,0.4 0 0,0 30,20.4 V 22.6 C 30,22.82 30.18,23 30.4,23 H 40.6 A 0.4,0.4 0 0,0 41,22.6 V 20.4 A 0.4,0.4 0 0,0 40.6,20 H 37.404 A 2.507,2.507 0 0,1 35.828,19.435 Z M 41,24.4 A 0.4,0.4 0 0,0 40.6,24 H 30.4 A 0.4,0.4 0 0,0 30,24.4 V 25.5 A 1.5,1.5 0 0,0 31.5,27 H 39.5 A 1.5,1.5 0 0,0 41,25.5 V 24.4 Z M 14.5,29 A 0.5,0.5 0 0,1 15,29.5 V 36.499 A 1.5,1.5 0 0,0 16,37.913 V 29.5 A 0.5,0.5 0 0,1 17,29.5 V 37.913 A 1.5,1.5 0 0,0 18,36.499 V 29.5 A 0.5,0.5 0 0,1 19,29.5 V 36.499 A 2.5,2.5 0 0,1 17,38.949 V 40 H 18.5 A 0.5,0.5 0 0,1 18.5,41 H 17 V 41.553 A 0.5,0.5 0 1,1 16,41.553 V 41 H 14.5 A 0.5,0.5 0 0,1 14.5,40 H 16 V 38.949 A 2.5,2.5 0 0,1 14,36.499 V 29.5 A 0.5,0.5 0 0,1 14.5,29 Z M 19.988,30.489 C 19.988,29.662 20.658,28.986 21.488,28.986 H 26.5 A 0.5,0.5 0 1,1 26.5,29.986 H 21.488 A 0.503,0.503 0 0,0 21.488,30.992 H 24.507 A 2.5,2.5 0 0,1 27.007,33.492 V 40.522 A 1.5,1.5 0 0,1 25.507,42.022 H 20.488 A 0.5,0.5 0 1,1 20.488,41.022 H 25.507 A 0.5,0.5 0 0,0 26.007,40.522 V 40.047 H 20.488 A 0.5,0.5 0 1,1 20.488,39.047 H 26.007 V 37.5 H 20.488 A 0.5,0.5 0 1,1 20.488,36.5 H 26.007 V 34.955 H 20.488 A 0.5,0.5 0 1,1 20.488,33.955 H 26.007 V 33.491 A 1.5,1.5 0 0,0 24.507,31.991 H 21.488 C 20.658,31.991 19.988,31.314 19.988,30.488 Z M 29.5,29 A 0.5,0.5 0 0,1 30,29.5 V 33.5 A 0.5,0.5 0 0,1 29,33.5 V 29.5 A 0.5,0.5 0 0,1 29.5,29 Z M 31.5,35.004 A 0.5,0.5 0 0,1 32,35.504 V 41.5 A 0.5,0.5 0 0,1 31,41.5 V 35.504 A 0.5,0.5 0 0,1 31.5,35.004 Z M 33,33.45 C 33,32.62 33.633,31.95 34.462,31.95 H 34.532 C 35.36,31.95 36,32.62 36,33.45 V 36.5 C 36,37.328 35.36,38 34.531,38 A 0.531,0.531 0 0,0 34,38.531 V 39 H 41 V 38.491 A 0.487,0.487 0 0,0 40.513,38.004 A 1.51,1.51 0 0,1 39,36.504 V 33.428 A 1.49,1.49 0 0,1 40.491,31.949 C 41.308,31.949 42,32.611 42,33.428 V 40.514 C 42,41.343 41.298,42 40.47,42 H 34.462 C 33.633,42 33,41.343 33,40.514 V 33.45 Z M 40.513,37.004 C 40.782,37.004 41,36.786 41,36.517 V 33.427 C 41,33.163 40.755,32.949 40.491,32.949 A 0.49,0.49 0 0,0 40,33.428 V 36.504 C 40,36.78 40.236,37.004 40.513,37.004 Z M 41,40 H 34 V 40.514 C 34,40.79 34.186,41 34.462,41 H 40.47 C 40.746,41 41,40.79 41,40.514 V 40 Z M 34,36.469 C 34,36.762 34.238,37 34.531,37 C 34.807,37 35,36.776 35,36.5 V 33.45 C 35,33.173 34.807,32.95 34.531,32.95 H 34.461 C 34.186,32.95 34,33.173 34,33.45 V 36.469 Z" fill="rgb(236, 27, 34)"/>
<path d="M 31.49,28.985 A 0.5,0.5 0 0,1 32,29.5 V 32.67 A 2.5,2.5 0 0,1 31.266,34.44 L 30.44,35.264 A 1.5,1.5 0 0,0 30,36.326 V 41.5 A 0.5,0.5 0 0,1 29,41.5 V 36.326 C 29,35.662 29.264,35.026 29.734,34.556 L 30.56,33.732 A 1.5,1.5 0 0,0 31,32.67 V 29.5 A 0.5,0.5 0 0,1 31.5,29 Z M 36.033,29.547 A 4,4 0 0,1 38.978,29.547 L 42.247,30.843 A 0.5,0.5 0 0,1 41.878,31.773 L 40.169,31.096 A 1,1 0 0,0 39.029,31.39 L 38.456,32.085 A 2,2 0 0,0 38,33.356 V 37.51 A 0.5,0.5 0 1,1 37,37.51 V 33.298 A 2,2 0 0,0 36.596,32.092 L 36.053,31.374 A 1,1 0 0,0 34.877,31.051 L 33.122,31.767 A 0.497,0.497 0 1,1 32.752,30.844 L 36.033,29.547 Z M 36.56,30.385 L 36.906,30.844 A 0.8,0.8 0 0,0 38.162,30.87 L 38.516,30.44 L 38.423,30.404 A 2.594,2.594 0 0,0 36.56,30.386 Z" fill="rgb(236, 27, 34)"/>
</svg>
