<?xml version="1.0" encoding="UTF-8"?>
<!-- generated by Finnhub -->
<svg viewBox="0 0 55.5 55.5" xmlns="http://www.w3.org/2000/svg">
<path d="M0 0h55.5v55.5H0z" fill="rgb(239, 242, 248)"/>
<path d="m21.86 32.22 1.63-9.06A4.42 4.42 0 0 0 19.1 18h-2.23a7.1 7.1 0 0 0-7 5.68l-1.78 9.1a4.42 4.42 0 0 0 4.4 5.22h2.36a7.1 7.1 0 0 0 7.02-5.78Zm-5.89 1.91 2.02-12c.1-.59-.33-1.13-.9-1.13a.92.92 0 0 0-.9.78l-2.17 11.98c-.12.64.35 1.24.97 1.24a1 1 0 0 0 .98-.87ZM24.3 24l-2.7 14h4.36l2.01-11c.2-.3.5-.6.84-.6.5 0 .53.69.48 1.03L27.23 38h4.36c.48-2.76 1.5-8.63 1.78-10.01.35-1.73.4-3.99-2.04-3.99-1.55 0-2.56.77-3.07 1.4l.26-1.4H24.3Z" fill="rgb(254, 109, 1)" fill-rule="evenodd"/>
<path d="M33.07 34h6.07l-.77 4h5.07l.64-4h1.3l.65-3h-1.39L47 18h-6.71l-6.51 12.94-.7 3.06Zm4.45-3h2.03l1.81-8.23-3.84 7.77V31Z" fill="rgb(105, 134, 173)" fill-rule="evenodd"/>
<path d="m27.19 18.01-2.19 5h3.79l1.1-2.41L27.2 18Z" fill="url(#d)"/>
<path d="m29.76 18.01-2.19 5h3.8l1.1-2.41-2.7-2.59z" fill="url(#c)"/>
<path d="m32.54 18.01-2.19 5h3.79l1.1-2.41-2.7-2.59z" fill="url(#b)"/>
<path d="m35.3 18.01-2.2 5h3.8L38 20.6 35.3 18Z" fill="url(#a)"/>
<defs>
<linearGradient id="d" x1="26.91" x2="29.67" y1="19.73" y2="20.51" gradientUnits="userSpaceOnUse">
<stop stop-color="rgb(244, 182, 12)" offset="0"/>
<stop stop-color="rgb(249, 143, 2)" offset=".99"/>
</linearGradient>
<linearGradient id="c" x1="29.48" x2="32.24" y1="19.73" y2="20.51" gradientUnits="userSpaceOnUse">
<stop stop-color="rgb(202, 227, 13)" offset="0"/>
<stop stop-color="rgb(107, 180, 14)" offset=".99"/>
</linearGradient>
<linearGradient id="b" x1="32.26" x2="35.02" y1="19.73" y2="20.51" gradientUnits="userSpaceOnUse">
<stop stop-color="rgb(80, 170, 9)" offset="0"/>
<stop stop-color="rgb(45, 129, 68)" offset=".99"/>
</linearGradient>
<linearGradient id="a" x1="35.02" x2="38" y1="19.73" y2="19.55" gradientUnits="userSpaceOnUse">
<stop stop-color="rgb(111, 144, 160)" offset="0"/>
<stop stop-color="rgb(36, 96, 87)" offset="1"/>
</linearGradient>
</defs>
</svg>
