<!-- by Finnhub --><svg xmlns="http://www.w3.org/2000/svg" width="56" height="56" viewBox="0 0 56 56"><path fill="#F0F3FA" d="M0 0h56v56H0z"/><path d="M41.59 27.88c-.39-.15-.75-.3-1.14-.39a9.79 9.79 0 0 0-2.65-.41H37V32h2.5v-2.16h.82c.24 0 .47-.02.67-.07l.6-1.9zM40.8 25.77c.45.1.88.24 1.3.39l.42-1.31c-.2-.22-.46-.41-.74-.53a3.56 3.56 0 0 0-1.57-.32H37v1.77a8.57 8.57 0 0 1 3.8 0zM45.15 29.38l.69 2.62h.97v-2.1c-.35-.08-.67-.18-1.02-.28l-.64-.24zM43.08 24l-.71 2.28c.43.17.86.34 1.27.53.9.41 1.77.83 2.6 1.17.18.07.37.14.57.19v-1.3L45.92 24h-2.84zM41.87 27.98L40.64 32h2.55l.81-3.08-.92-.41-1.2-.53zM51.83 29.58a9.74 9.74 0 0 1-4.83.34V32h5v-2.42h-.17zM49.5 28.78V24H47v4.27c.58.2 1.19.34 1.79.4.24.06.47.08.71.1z" fill="#29B8CE"/><path d="M13.66 25.64c.36-.23.77-.35 1.22-.35.34 0 .66.07.94.19.28.12.54.32.73.55.22.26.34.58.45.95h1.33a3.8 3.8 0 0 0-.69-1.66 3.13 3.13 0 0 0-1.24-1 3.6 3.6 0 0 0-4.73 1.66c-.1.2-.2.4-.26.59a4.16 4.16 0 0 0-1.67-2.03 3.69 3.69 0 0 0-3.83 0A3.99 3.99 0 0 0 4 28a3.99 3.99 0 0 0 1.9 3.46 3.67 3.67 0 0 0 3.83 0 3.8 3.8 0 0 0 1.67-2.06 3.87 3.87 0 0 0 1.6 2.06 3.6 3.6 0 0 0 3.4.2c.46-.2.9-.55 1.23-.99.35-.44.56-1 .69-1.66H17a2.12 2.12 0 0 1-1.18 1.5 2.47 2.47 0 0 1-2.16-.14 2.4 2.4 0 0 1-.88-.95 3.04 3.04 0 0 1-.32-1.43c0-.53.1-1 .32-1.41.22-.42.5-.74.88-.95zm-3.64 3.75a2.45 2.45 0 0 1-2.2 1.32 2.43 2.43 0 0 1-2.2-1.32A2.76 2.76 0 0 1 5.3 28a2.76 2.76 0 0 1 1.26-2.36 2.5 2.5 0 0 1 2.55 0A2.76 2.76 0 0 1 10.36 28a3 3 0 0 1-.34 1.39zM25.95 24l-2.38 6.7H20.3v-2.13H23v-1.23h-2.7V25.3h3.41V24H19v8h5.42l.58-1.7h3l.67 1.7H30l-2.86-8h-1.19zm-.52 5l1.06-2.92.04-.2h.02l.03.2L27.6 29 25.43 29zM34.7 24v2.22c.43-.16.87-.28 1.3-.4V24h-1.3zM34.7 29.59L31.09 24H30v8h1.3v-5.59L34.94 32H36v-4.9c-.41.03-.89.08-1.3.15v2.34z" fill="#004884"/></svg>