<!-- by Finnhub --><svg xmlns="http://www.w3.org/2000/svg" width="56" height="56" viewBox="0 0 56 56"><path fill="url(#avuiagb3m)" d="M0 0h56v56H0z"/><path d="M20.97 17.92c-6.75 9.05.1 15.54 4.43 17.6-12.52-2.43-11.13-13.4-9.32-17.22 1.66-3.51 5.82-6.3 11.06-6.3 4.2 0 7.17 2.59 8.13 3.88-7.18-4.13-12.52-.36-14.3 2.04zm4.56 2.27c-5.12 4.13-2.78 9.44-.97 11.57a8.44 8.44 0 0 1-2.94-10.88 7.6 7.6 0 0 1 6.96-4.17c4.11 0 6.17 3.92 6.7 5.88-3.46-4.98-7.94-3.68-9.75-2.4zm-12.1.7c-.4 1.92-.75 7.3 2.33 11.35 3.85 5.07 8.86 6.39 12.26 6.39 3.4 0 8.16-1.32 12.2-5.9 2.4-2.73 3.19-8.29 2.76-10.14.34.75.87 2.87 1.01 5.3C44.2 31.48 40.82 44 28.02 44s-16.32-12.18-16-16.12l.09-1.17c.17-2.4.27-3.8 1.33-5.82z" fill="url(#bvuiagb3m)"/><defs><linearGradient id="avuiagb3m" x1="10.42" y1="9.71" x2="68.15" y2="76.02" gradientUnits="userSpaceOnUse"><stop stop-color="#1A1E21"/><stop offset="1" stop-color="#06060A"/></linearGradient><linearGradient id="bvuiagb3m" x1="37.62" y1="16.57" x2="16.27" y2="40.37" gradientUnits="userSpaceOnUse"><stop stop-color="#9BC82E"/><stop offset=".45" stop-color="#BDC938"/><stop offset="1" stop-color="#99C83C"/></linearGradient></defs></svg>