<?xml version="1.0" encoding="UTF-8"?>
<!-- generated by Finnhub -->
<svg viewBox="0 0 55.5 55.5" xmlns="http://www.w3.org/2000/svg">
<path d="M 0,0 H 55.5 V 55.5 H 0 Z" fill="rgb(239, 242, 248)"/>
<path d="M 29.389999999999997,28.345 L 28.82,30.82 C 28.39,32.62 27.59,34.22 26.41,35.65 A 12.3,12.3 0 0,1 21.38,39.29 C 21.38,39.31 21.4,39.32 21.42,39.34 A 13.22,13.22 0 0,0 32.25,40.38 A 12.97,12.97 0 0,0 40.35,32.37 C 41.09,30.27 41.29,28.14 40.95,25.95 C 40.8,25.03 40.52,23.9 40.18,23.04 C 40.17,23.01 40.18,23 40.21,23 H 43.21 C 43.24,23 43.27,23 43.28,23.04 C 44.32,26.54 44.25,30.24 42.99,33.64 C 42.29,35.54 41.21,37.28 39.76,38.86 A 15.74,15.74 0 0,1 30.66,43.78 A 15.97,15.97 0 0,1 14.8,37.06 C 14.77,37.03 14.78,37 14.82,37 H 17.27 A 8.5,8.5 0 0,0 23.4,34.65 A 9.13,9.13 0 0,0 26.17,29.5 A 358.54,358.54 0 0,0 27.17,25.19 C 27.6,23.39 28.41,21.79 29.58,20.36 A 12.28,12.28 0 0,1 34.61,16.71 L 34.57,16.67 A 13.22,13.22 0 0,0 23.74,15.62 A 12.97,12.97 0 0,0 15.64,23.64 A 12.94,12.94 0 0,0 15.05,30.06 C 15.19,30.98 15.48,32.11 15.82,32.97 C 15.84,33.01 15.82,33 15.79,33 H 12.79 C 12.76,33 12.74,33 12.73,32.97 C 11.69,29.47 11.75,25.77 13,22.37 C 13.7,20.47 14.78,18.73 16.23,17.15 A 15.76,15.76 0 0,1 25.33,12.23 A 15.96,15.96 0 0,1 41.16,18.89 C 41.18,18.92 41.17,19 41.13,19 C 40.31,19 39.51,18.99 38.72,19 A 8.49,8.49 0 0,0 32.59,21.36 A 9.13,9.13 0 0,0 29.82,26.51 L 29.39,28.36 Z"/>
</svg>
