<?xml version="1.0" encoding="UTF-8"?>
<!-- generated by Finnhub -->
<svg viewBox="0 0 55.5 55.5" xmlns="http://www.w3.org/2000/svg">
<path d="M 0,0 H 55.5 V 55.5 H 0 Z" fill="rgb(239, 242, 248)"/>
<path d="M 34.31,12.785 L 35.37,13.17 A 0.57,0.57 0 0,0 35.34,13.37 C 35.34,13.46 35.39,13.51 35.48,13.54 C 35.66,13.6 35.85,13.61 36.05,13.58 L 36.61,13.93 A 0.5,0.5 0 0,1 36.34,14.01 C 34.21,14.07 32.04,14.75 30.48,16.11 A 6.95,6.95 0 0,0 28.1,21.86 C 28.16,22.11 28.17,22.35 28.12,22.58 A 6.68,6.68 0 0,1 27.66,20.1 C 27.68,16.92 29.21,14.8 32.24,13.74 A 8.45,8.45 0 0,1 35.05,13.31 V 13.24 C 35.05,13.21 35.04,13.2 35.01,13.2 C 33.87,13.21 33.06,13.29 32.58,13.42 A 7.63,7.63 0 0,0 27.62,17.39 A 8.4,8.4 0 0,0 26.7,21.62 A 7.26,7.26 0 0,0 29.1,26.72 L 24.83,26.24 A 51.7,51.7 0 0,1 19.09,22.74 A 8.33,8.33 0 0,1 17.32,21.09 A 25.4,25.4 0 0,0 21.09,18.2 C 21.71,17.78 22.33,17.34 22.95,16.89 A 25.47,25.47 0 0,1 29.3,13.41 C 30.8,12.86 32.48,12.66 34.32,12.81 Z" fill="rgb(41, 42, 82)"/>
<path d="M 36.04,13.565 C 35.85,13.61 35.65,13.6 35.48,13.54 C 35.39,13.51 35.35,13.45 35.34,13.37 C 35.34,13.31 35.34,13.25 35.37,13.17 C 35.7,13.24 35.92,13.37 36.05,13.58 Z" fill="rgb(160, 168, 175)"/>
<path d="M 38.43,14.584999999999999 A 11.93,11.93 0 0,1 43.04,19.64 C 43.32,20.19 43.48,20.62 43.54,20.94 C 43.55,20.96 43.54,21 43.53,21.02 A 0.14,0.14 0 0,1 43.45,21.08 C 41.71,21.63 40.19,21.59 38.9,20.96 A 3.82,3.82 0 0,1 37,18.95 A 3.26,3.26 0 0,1 36.9,16.67 C 37.15,15.87 37.58,15.19 38.21,14.62 A 0.19,0.19 0 0,1 38.31,14.57 A 0.2,0.2 0 0,1 38.44,14.6 Z" fill="url(#a)"/>
<path d="M 29.29,13.385 C 30.8,12.86 32.48,12.66 34.32,12.8 C 32.52,12.26 30.68,11.99 28.81,12 C 26.28,12.02 23.91,12.58 21.68,13.69 A 10.18,10.18 0 0,0 16.78,18.52 L 21.09,18.2 C 21.71,17.78 22.33,17.34 22.95,16.89 A 25.47,25.47 0 0,1 29.3,13.41 Z" fill="url(#b)"/>
<path d="M 17.31,21.085 A 25.4,25.4 0 0,0 21.09,18.2 L 16.79,18.52 A 3.6,3.6 0 0,0 17.32,21.09 Z" fill="url(#b)"/>
<path d="M 36.59,13.915 C 36.63,13.93 36.66,13.93 36.68,13.95 C 36.71,13.97 36.71,14 36.68,14.03 C 36.59,14.16 36.51,14.35 36.44,14.59 A 7.16,7.16 0 0,0 36.58,19.28 A 4.6,4.6 0 0,0 39.86,21.69 C 40.54,21.84 41.22,21.85 41.91,21.73 C 42.53,21.63 43.09,21.5 43.58,21.36 C 43.66,21.33 43.71,21.36 43.73,21.44 C 44.17,23.39 44.25,25.77 42.61,27.19 A 6.77,6.77 0 0,1 37.64,28.81 C 34.21,28.63 30.49,26.98 28.74,24.01" fill="url(#d)"/>
<path d="M 28.729999999999997,23.995 L 28.12,22.58 C 28.17,22.35 28.16,22.11 28.1,21.86 A 6.95,6.95 0 0,1 30.48,16.11 A 9.38,9.38 0 0,1 36.34,14.01 A 0.5,0.5 0 0,0 36.61,13.93" fill="url(#d)"/>
<path d="M 22.59,42.785 A 7.54,7.54 0 0,0 26.06,41.94 A 6.3,6.3 0 0,0 29.47,37.02 C 29.55,36.48 29.54,35.83 29.43,35.09 A 9.97,9.97 0 0,0 25.19,28.21 A 16.8,16.8 0 0,0 18.7,25.29 A 10.1,10.1 0 0,0 15.3,25.16 A 4.24,4.24 0 0,0 12.2,28.21 A 9.57,9.57 0 0,0 12.57,33.41 C 12.6,33.5 12.66,33.53 12.74,33.5 L 12.94,33.43 C 13.44,33.26 14.1,33.04 14.6,33.03 C 16.41,32.96 17.76,33.65 18.64,35.09 A 5.54,5.54 0 0,1 19.16,39.41 C 19.06,39.91 19.04,40.34 19.11,40.71 C 19.29,41.75 19.74,42 21.29,42.5 C 21.29,42.5 22.22,42.8 22.59,42.8 Z" fill="url(#f)"/>
<path d="M 17.889999999999997,39.985 C 17.8,40.16 17.74,40.35 17.7,40.56 C 17.68,40.68 17.62,40.7 17.53,40.62 A 14.21,14.21 0 0,1 13.23,35.22 C 12.97,34.66 12.82,34.22 12.75,33.92 C 12.74,33.84 12.77,33.79 12.85,33.76 A 6.8,6.8 0 0,1 14.59,33.33 C 16.29,33.36 17.51,33.99 18.23,35.21 C 18.65,35.91 18.82,36.71 18.75,37.6 A 5.58,5.58 0 0,1 17.9,40 Z" fill="rgb(235, 160, 20)"/>
<path d="M 29.09,26.715 C 30.01,27.51 31.05,28.2 32.2,28.82 A 48.5,48.5 0 0,1 36.77,31.58 A 19.1,19.1 0 0,1 39.47,33.77 C 39.71,34 39.93,34.31 40.13,34.67 C 35.73,35.17 33.49,31.02 28.57,29.43 A 15.22,15.22 0 0,0 24.83,26.23 L 29.09,26.73 Z" fill="url(#g)"/>
<path d="M 40.120000000000005,34.655 A 3.6,3.6 0 0,1 39.82,38.15 A 4.7,4.7 0 0,0 38.4,35.9 C 38.34,35.84 38.28,35.84 38.22,35.9 A 108.67,108.67 0 0,1 33.58,39.63 C 32.81,40.21 32.01,40.73 31.18,41.19 C 29.9,41.89 28.48,42.47 26.88,42.95 C 25.69,43.31 24.64,43.31 23.72,42.95 A 8.1,8.1 0 0,0 28,40.85 C 29.9,38.85 30.7,36.51 30.39,33.82 A 8.7,8.7 0 0,0 28.57,29.43 C 33.49,31.02 35.73,35.17 40.13,34.67 Z" fill="url(#h)"/>
<path d="M 40.89,35.885 C 40.9,40.66 32.9,43.87 28.99,43.99 C 26.74,44.06 24.54,43.74 22.41,43.02 C 22.46,42.94 22.53,42.92 22.62,42.96 L 23.72,42.95 C 24.64,43.31 25.69,43.31 26.88,42.95 C 28.48,42.47 29.9,41.88 31.18,41.19 C 32.01,40.73 32.81,40.21 33.58,39.63 C 37.95,36.3 39.32,33.49 39.48,33.63 A 4.7,4.7 0 0,1 40.9,35.9 Z" fill="rgb(10, 153, 134)"/>
<defs>
<linearGradient id="a" x1="38.84" x2="41.29" y1="16" y2="21.06" gradientUnits="userSpaceOnUse">
<stop stop-color="rgb(242, 195, 7)" offset="0"/>
<stop stop-color="rgb(236, 161, 20)" offset="1"/>
</linearGradient>
<linearGradient id="b" x1="29.55" x2="17.86" y1="13" y2="19.82" gradientUnits="userSpaceOnUse">
<stop stop-color="rgb(84, 112, 157)" offset="0"/>
<stop stop-color="rgb(65, 83, 132)" offset="1"/>
</linearGradient>
<linearGradient id="d" x1="32.65" x2="39.03" y1="16.5" y2="28.67" gradientUnits="userSpaceOnUse">
<stop stop-color="rgb(163, 170, 177)" offset="0"/>
<stop stop-color="rgb(95, 107, 120)" offset="1"/>
</linearGradient>
<linearGradient id="f" x1="22.84" x2="18.9" y1="28" y2="34.61" gradientUnits="userSpaceOnUse">
<stop stop-color="rgb(194, 150, 4)" offset="0"/>
<stop stop-color="rgb(237, 187, 8)" offset="1"/>
</linearGradient>
<linearGradient id="g" x1="35.74" x2="26.81" y1="31.5" y2="43.28" gradientUnits="userSpaceOnUse">
<stop stop-color="rgb(8, 92, 95)" offset="0"/>
<stop stop-color="rgb(8, 127, 123)" offset=".34"/>
</linearGradient>
<linearGradient id="h" x1="35.74" x2="26.81" y1="31.5" y2="43.28" gradientUnits="userSpaceOnUse">
<stop stop-color="rgb(8, 92, 95)" offset="0"/>
<stop stop-color="rgb(8, 127, 123)" offset=".34"/>
<stop stop-color="rgb(10, 84, 87)" offset="1"/>
</linearGradient>
</defs>
</svg>
