<?xml version="1.0" encoding="UTF-8"?>
<!-- generated by Finnhub -->
<svg viewBox="0 0 55.5 55.5" xmlns="http://www.w3.org/2000/svg">
<path d="M 0,0 H 55.5 V 55.5 H 0 Z" fill="rgb(239, 242, 248)"/>
<path d="M 26.49,16.985 H 26 V 24.5 L 26.5,24 V 17 Z M 41,23 C 41,17.4 36.67,14 35,13.5 C 36.25,14.6 40,18.84 40,23 C 40,27 37.41,30.4 36,31.5 C 37.67,31 41,28.6 41,23 Z" fill="rgb(190, 1, 2)"/>
<path d="M 20.99,11.985 V 28 C 21.8,26.4 24.67,24.67 26,24 V 17 C 29,16.83 35,17.8 35,23 S 29.67,29.83 27,30 V 34 C 35,34 39.6,31 40,23 S 34.17,12 31,12 H 21 Z"/>
<path d="M 26.49,43.985 H 26 V 30 C 26,26 30.67,22 33,20.5 C 28.6,23.7 26.83,28.17 26.5,30 V 44 Z" fill="rgb(190, 1, 2)"/>
<path d="M 20.99,28.985 V 44 H 26 V 30 C 26,28.5 27.4,24.5 33,20.5 C 29,22.67 21,27.4 21,29 Z M 26,26 H 25.5 L 27,25 L 26,26 Z M 24.5,28 H 23.5 L 25,26.5 H 25.5 C 25.1,26.9 24.67,27.67 24.5,28 Z M 23,29 V 31 H 24 V 29 H 23 Z M 24,32 V 34 H 23 V 32 H 24 Z M 24,35 V 37 H 23 V 35 H 24 Z M 24,40 V 38 H 23 V 40 H 24 Z M 24,41 V 43 H 23 V 41 H 24 Z" fill-rule="evenodd"/>
<path d="M 23.99,28.985 H 23.5 V 31 H 24 V 29 Z M 24,32 H 23.5 V 34 H 24 V 32 Z M 24,35 H 23.5 V 37 H 24 V 35 Z M 24,38 H 23.5 V 40 H 24 V 38 Z M 24,41 H 23.5 V 43 H 24 V 41 Z M 24.5,28 H 24 A 3.7,3.7 0 0,1 25.5,26.5 L 24.5,28 Z" fill="rgb(190, 1, 2)"/>
</svg>
