<!-- by Finnhub --><svg width="56" height="56" viewBox="0 0 56 56" fill="none" xmlns="http://www.w3.org/2000/svg">
<rect width="56" height="56" fill="#F0F3FA"/>
<path d="M31.5443 16.6309C26.2739 17.7194 21.6026 19.5466 17.5304 22.1126C6.48371 29.0674 11.3076 39.2123 22.4433 41.0129C22.6326 41.0437 22.8036 41.15 22.9562 41.3319C23.0551 41.4522 23.0269 41.5068 22.8714 41.4956C16.335 41.0675 8.24287 36.3749 10.3369 28.6771C12.4733 20.824 24.2237 16.5092 31.0907 14.931C31.2292 14.9002 31.3352 14.8247 31.4086 14.7044C31.7223 14.1881 31.9639 13.6047 32.4938 13.3109C34.4776 12.207 36.8387 14.2469 35.7281 16.2322C34.8973 17.7222 33.1678 17.8271 31.9258 16.7316C31.8156 16.6337 31.6884 16.6001 31.5443 16.6309ZM34.5327 15.2206C34.5327 15.0036 34.4456 14.7954 34.2906 14.6419C34.1356 14.4884 33.9254 14.4022 33.7061 14.4022C33.4869 14.4022 33.2767 14.4884 33.1217 14.6419C32.9666 14.7954 32.8796 15.0036 32.8796 15.2206C32.8796 15.4377 32.9666 15.6459 33.1217 15.7994C33.2767 15.9529 33.4869 16.0391 33.7061 16.0391C33.9254 16.0391 34.1356 15.9529 34.2906 15.7994C34.4456 15.6459 34.5327 15.4377 34.5327 15.2206Z" fill="#2788B6"/>
<path d="M41.4168 20.0391C38.0398 20.3777 34.6953 20.9163 31.3833 21.6551C31.2363 21.6886 31.1275 21.6397 31.0569 21.5082L30.5397 20.568C30.438 20.3777 30.4931 20.256 30.705 20.2028C34.1442 19.3298 37.6329 18.7254 41.171 18.3896C41.3236 18.3756 41.438 18.3028 41.5143 18.1713C43.9008 14.0538 48.2712 19.4179 44.5664 20.9247C43.5349 21.3445 42.6108 21.0968 41.7941 20.1818C41.6952 20.0699 41.5694 20.0223 41.4168 20.0391ZM44.4816 18.931C44.4816 18.7229 44.3981 18.5232 44.2494 18.376C44.1008 18.2288 43.8991 18.1461 43.6889 18.1461C43.4787 18.1461 43.277 18.2288 43.1284 18.376C42.9797 18.5232 42.8962 18.7229 42.8962 18.931C42.8962 19.0341 42.9167 19.1362 42.9566 19.2314C42.9964 19.3266 43.0548 19.4131 43.1284 19.486C43.202 19.5589 43.2894 19.6167 43.3856 19.6562C43.4817 19.6956 43.5848 19.7159 43.6889 19.7159C43.793 19.7159 43.8961 19.6956 43.9922 19.6562C44.0884 19.6167 44.1758 19.5589 44.2494 19.486C44.323 19.4131 44.3814 19.3266 44.4212 19.2314C44.4611 19.1362 44.4816 19.0341 44.4816 18.931Z" fill="#49A8D8"/>
<path d="M19.2557 36.568C15.8731 28.1608 24.6095 25.8397 27.0469 19.4053C27.2362 18.9072 27.557 18.8009 28.0091 19.0863C35.5078 23.7957 25.3004 27.8167 22.7613 30.2511C20.9838 31.9552 19.9071 34.051 19.5313 36.5386C19.5259 36.5691 19.5107 36.5971 19.4878 36.6184C19.465 36.6396 19.4358 36.6528 19.4047 36.6561C19.3735 36.6595 19.3422 36.6527 19.3153 36.6367C19.2884 36.6208 19.2675 36.5967 19.2557 36.568Z" fill="#2788B6"/>
<path d="M16.0978 34.633C17.0982 36.8744 19.4126 38.2133 21.4727 39.1493C21.5886 39.2025 21.6564 39.3004 21.6762 39.4431C21.6932 39.5802 21.6352 39.6292 21.5024 39.59C17.0685 38.3056 12.7363 34.3098 15.2669 29.3151C16.9964 25.9027 21.1718 23.6026 24.724 22.1125C24.7432 22.1041 24.7646 22.1023 24.785 22.1074C24.8053 22.1125 24.8233 22.1243 24.836 22.1408C24.8488 22.1573 24.8555 22.1776 24.8552 22.1983C24.8549 22.2191 24.8475 22.2392 24.8342 22.2552C24.1009 23.187 23.4947 24.0223 22.4223 24.6729C19.0354 26.7295 13.919 29.7558 16.0978 34.633Z" fill="#49A8D8"/>
<path d="M32.7698 26.0622L28.4503 27.2039C28.3429 27.2347 28.326 27.2081 28.3994 27.1241C29.3108 26.1294 30.0823 25.1934 31.443 24.8156C32.6921 24.4686 33.9623 24.2378 35.2538 24.1231C35.4036 24.1091 35.5279 24.0475 35.6268 23.9384C36.0719 23.4515 36.3729 22.931 36.9875 22.6792C39.1748 21.7852 41.4808 24.3581 39.5521 26.0874C38.4217 27.1031 37.2065 27.0136 35.9066 25.8188C35.7992 25.718 35.672 25.6775 35.5251 25.697L33.6133 25.9405C33.3986 25.9685 33.3632 26.0636 33.5074 26.2259C37.2164 30.3141 32.5621 32.6142 29.5609 34.4232C26.475 36.2868 24.8133 37.7852 24.8303 41.3781C24.8331 41.532 24.7582 41.5893 24.6056 41.5502C18.7898 39.9972 24.7709 33.2689 27.0345 31.6278C29.1582 30.0874 31.7694 28.7569 32.9987 26.3434C33.1315 26.0804 33.0552 25.9867 32.7698 26.0622ZM38.717 24.6141C38.717 24.4093 38.6348 24.2129 38.4886 24.0681C38.3423 23.9232 38.1439 23.8418 37.937 23.8418C37.7302 23.8418 37.5318 23.9232 37.3855 24.0681C37.2392 24.2129 37.1571 24.4093 37.1571 24.6141C37.1571 24.819 37.2392 25.0154 37.3855 25.1602C37.5318 25.3051 37.7302 25.3864 37.937 25.3864C38.1439 25.3864 38.3423 25.3051 38.4886 25.1602C38.6348 25.0154 38.717 24.819 38.717 24.6141Z" fill="#49A8D8"/>
<path d="M32.3708 37.4368C33.74 36.7988 34.6725 35.6362 35.5882 34.461C35.7097 34.3071 35.7902 34.3252 35.8298 34.5155C36.5292 37.8188 32.4344 40.908 29.6409 41.8817C28.7804 42.1839 27.2205 41.9489 27.4579 40.6855C27.7716 38.994 31.0186 38.0706 32.3708 37.4368Z" fill="#49A8D8"/>
</svg>
