<?xml version="1.0" encoding="UTF-8"?>
<!-- generated by Finnhub -->
<svg viewBox="0 0 55.5 55.5" xmlns="http://www.w3.org/2000/svg">
<path d="M 0,0 H 55.5 V 55.5 H 0 Z" fill="rgb(239, 242, 248)"/>
<path d="M 32.56,20.985 H 26.77 L 29.72,22.46 L 32.57,21 Z" fill="rgb(202, 148, 21)"/>
<path d="M 29.689999999999998,26.595 L 26.87,21 L 29.7,22.4 V 26.61 Z" fill="rgb(227, 180, 31)"/>
<path d="M 29.689999999999998,26.595 L 32.52,21 L 29.7,22.4 V 26.61 Z" fill="rgb(212, 169, 63)"/>
<path d="M 3.99,30.985 V 24 H 7.29 C 7.85,24 8.32,24.1 8.72,24.3 C 9.12,24.5 9.42,24.78 9.62,25.14 C 9.82,25.5 9.93,25.91 9.93,26.37 A 2.14,2.14 0 0,1 8.69,28.43 C 8.29,28.63 7.82,28.73 7.25,28.73 H 5.02 V 27.54 H 7 C 7.3,27.54 7.54,27.5 7.74,27.4 A 1,1 0 0,0 8.18,26.98 C 8.28,26.81 8.33,26.6 8.33,26.38 C 8.33,26.14 8.28,25.94 8.18,25.76 A 0.96,0.96 0 0,0 7.74,25.36 C 7.54,25.26 7.29,25.21 6.99,25.21 H 5.56 V 31 H 4 Z M 11,31 V 24 H 14.46 C 15.01,24 15.49,24.1 15.88,24.28 C 16.28,24.48 16.58,24.74 16.78,25.08 C 17,25.42 17.1,25.82 17.1,26.28 C 17.1,26.75 17,27.15 16.78,27.48 C 16.58,27.82 16.27,28.08 15.87,28.25 C 15.47,28.43 14.98,28.52 14.42,28.52 H 11.96 V 27.32 H 14.16 C 14.46,27.32 14.71,27.29 14.91,27.22 C 15.11,27.14 15.25,27.02 15.35,26.86 C 15.45,26.71 15.49,26.52 15.49,26.29 C 15.49,26.05 15.45,25.86 15.35,25.69 A 0.9,0.9 0 0,0 14.9,25.34 A 1.9,1.9 0 0,0 14.16,25.21 H 12.6 V 31 H 11 Z M 15.53,27.81 L 17.36,31 H 15.64 L 13.84,27.81 H 15.54 Z M 18.44,31 V 24 H 24 V 25.22 H 20 V 27 H 24 V 28.23 H 20 V 29.78 H 24 V 31 H 18.44 Z M 25.42,24 H 27.34 L 29.7,28.7 H 29.79 L 31.99,24 H 34 V 31 H 32.4 V 26.44 H 32.34 L 30.26,31 H 29.23 L 27,26.43 V 31 H 25.42 V 24 Z M 37,24 V 31 H 35.44 V 24 H 37 Z M 45.44,31 V 24 H 49.09 C 49.65,24 50.13,24.1 50.52,24.28 C 50.92,24.48 51.22,24.74 51.42,25.08 C 51.63,25.42 51.74,25.82 51.74,26.28 C 51.74,26.75 51.64,27.15 51.42,27.48 C 51.21,27.82 50.9,28.08 50.5,28.25 C 50.1,28.43 49.62,28.52 49.05,28.52 H 46.36 V 27.32 H 48.8 C 49.1,27.32 49.35,27.29 49.54,27.22 C 49.74,27.14 49.89,27.02 49.98,26.86 C 50.08,26.71 50.13,26.52 50.13,26.29 C 50.13,26.05 50.08,25.86 49.98,25.69 A 0.9,0.9 0 0,0 49.54,25.34 A 1.9,1.9 0 0,0 48.79,25.21 H 47 V 31 H 45.45 Z M 50.17,27.81 L 52,31 H 50.28 L 48.48,27.81 H 50.17 Z M 38.44,31 V 24 H 44 V 25.22 H 40 V 27 H 44 V 28.23 H 40 V 29.78 H 44 V 31 H 38.44 Z M 18.9,32.98 A 0.64,0.64 0 0,0 18.81,32.8 A 0.57,0.57 0 0,0 18.5,32.58 A 0.75,0.75 0 0,0 18.29,32.55 A 0.7,0.7 0 0,0 17.89,32.65 A 0.73,0.73 0 0,0 17.63,32.98 C 17.57,33.12 17.53,33.29 17.53,33.5 C 17.53,33.7 17.57,33.87 17.63,34.02 C 17.69,34.16 17.78,34.27 17.89,34.34 C 18,34.42 18.14,34.45 18.29,34.45 A 0.8,0.8 0 0,0 18.65,34.38 C 18.75,34.33 18.83,34.26 18.88,34.17 C 18.93,34.07 18.96,33.97 18.96,33.84 L 19.08,33.86 H 18.33 V 33.4 H 19.55 V 33.76 C 19.55,34.02 19.5,34.24 19.39,34.43 C 19.29,34.61 19.13,34.75 18.94,34.85 C 18.75,34.95 18.54,35 18.29,35 C 18.01,35 17.77,34.94 17.57,34.82 C 17.36,34.7 17.2,34.52 17.08,34.3 A 1.73,1.73 0 0,1 16.91,33.5 C 16.91,33.27 16.94,33.05 17.01,32.87 C 17.08,32.68 17.18,32.53 17.31,32.4 C 17.43,32.27 17.57,32.17 17.74,32.1 C 17.9,32.03 18.08,32 18.28,32 C 18.44,32 18.59,32.02 18.74,32.07 C 18.88,32.12 19.01,32.19 19.12,32.27 A 1.1,1.1 0 0,1 19.52,32.98 H 18.9 Z M 22,35 V 32 H 23.15 C 23.37,32 23.56,32.08 23.72,32.16 C 23.88,32.24 23.99,32.35 24.08,32.49 C 24.16,32.63 24.2,32.8 24.2,32.99 C 24.2,33.19 24.16,33.35 24.07,33.49 A 0.81,0.81 0 0,1 23.71,33.81 C 23.55,33.89 23.36,33.92 23.14,33.92 H 22.37 V 33.42 H 23.04 C 23.16,33.42 23.25,33.42 23.34,33.38 A 0.35,0.35 0 0,0 23.51,33.23 A 0.46,0.46 0 0,0 23.56,32.99 C 23.56,32.89 23.54,32.81 23.51,32.75 A 0.36,0.36 0 0,0 23.33,32.6 A 0.72,0.72 0 0,0 23.03,32.54 H 22.62 V 35 H 22 Z M 23.58,33.63 L 24.3,35 H 23.62 L 22.92,33.63 H 23.58 Z M 29.44,33.5 C 29.44,33.82 29.38,34.09 29.26,34.31 C 29.14,34.53 28.97,34.71 28.76,34.82 C 28.56,34.94 28.33,35 28.07,35 C 27.81,35 27.57,34.94 27.37,34.82 C 27.17,34.7 27,34.53 26.88,34.31 A 1.7,1.7 0 0,1 26.7,33.5 C 26.7,33.18 26.76,32.91 26.88,32.69 C 27,32.46 27.16,32.29 27.38,32.18 C 27.58,32.06 27.81,32 28.07,32 C 28.33,32 28.56,32.06 28.77,32.18 C 28.97,32.29 29.14,32.46 29.26,32.68 C 29.38,32.91 29.44,33.18 29.44,33.5 Z M 28.81,33.5 C 28.81,33.3 28.78,33.12 28.72,32.98 A 0.7,0.7 0 0,0 28.46,32.66 A 0.7,0.7 0 0,0 28.07,32.55 A 0.7,0.7 0 0,0 27.67,32.65 A 0.71,0.71 0 0,0 27.42,32.98 C 27.36,33.12 27.32,33.29 27.32,33.5 C 27.32,33.7 27.36,33.88 27.42,34.02 C 27.48,34.16 27.57,34.27 27.68,34.34 A 0.7,0.7 0 0,0 28.07,34.45 A 0.7,0.7 0 0,0 28.47,34.35 A 0.7,0.7 0 0,0 28.72,34.02 C 28.78,33.88 28.82,33.71 28.82,33.5 Z M 33.81,32 H 34.43 V 33.94 C 34.43,34.14 34.38,34.34 34.28,34.49 C 34.18,34.65 34.04,34.78 33.86,34.87 C 33.67,34.96 33.46,35 33.22,35 S 32.77,34.96 32.58,34.87 A 1.02,1.02 0 0,1 32,33.94 V 32 H 32.63 V 33.88 A 0.53,0.53 0 0,0 32.91,34.38 C 33,34.43 33.11,34.46 33.22,34.46 C 33.34,34.46 33.44,34.43 33.53,34.38 A 0.52,0.52 0 0,0 33.74,34.18 A 0.59,0.59 0 0,0 33.81,33.88 V 32 Z M 37,35 V 32 H 38.15 C 38.37,32 38.56,32.08 38.72,32.17 C 38.87,32.25 38.99,32.37 39.07,32.52 C 39.16,32.66 39.2,32.84 39.2,33.02 C 39.2,33.22 39.15,33.39 39.07,33.54 A 0.87,0.87 0 0,1 38.71,33.89 C 38.55,33.97 38.36,34.01 38.13,34.01 H 37.4 V 33.51 H 38.03 C 38.15,33.51 38.25,33.5 38.33,33.46 A 0.4,0.4 0 0,0 38.5,33.28 A 0.54,0.54 0 0,0 38.56,33.03 C 38.56,32.93 38.54,32.85 38.5,32.78 A 0.4,0.4 0 0,0 38.33,32.61 A 0.64,0.64 0 0,0 38.03,32.54 H 37.61 V 35 H 37 Z" fill="rgb(17, 17, 16)"/>
<path d="M 3.99,32.985 H 15 V 34 H 4 Z M 41,33 H 52 V 34 H 41 Z" fill="rgb(250, 202, 17)"/>
</svg>
