<?xml version="1.0" encoding="UTF-8"?>
<!-- generated by Finnhub -->
<svg viewBox="0 0 55.5 55.5" xmlns="http://www.w3.org/2000/svg">
<path d="M 0,0 H 55.5 V 55.5 H 0 Z" fill="rgb(31, 63, 152)"/>
<path d="M 21.4,21.215 L 17.73,18.09 C 17.46,17.74 17.13,16.88 18,16.21 L 26.48,10.56 C 26.98,10.2 28.08,9.5 29.63,10.56 L 41.61,21.54 C 42.08,21.94 43.01,23.08 43,24.44 V 35.88 C 42.98,36.5 42.6,37.52 41.15,36.6 L 24.97,22.98 L 28.26,20.39 L 36,26.76 V 27.99 L 39,30.65 V 25.75 L 28,16.47 L 21.41,21.23 Z M 34.59,34.77 L 38.27,37.91 C 38.54,38.26 38.87,39.12 38,39.79 L 29.52,45.44 C 29.02,45.8 27.92,46.5 26.37,45.44 L 14.39,34.46 A 4.15,4.15 0 0,1 13,31.56 V 20.12 C 13.02,19.5 13.4,18.48 14.85,19.4 L 31.03,33.02 L 27.74,35.61 L 20,29.24 V 28.01 L 17,25.55 V 30.28 L 28,39.53 L 34.59,34.77 Z" fill="rgb(254, 254, 253)"/>
</svg>
