<?xml version="1.0" encoding="UTF-8"?>
<!-- generated by Finnhub -->
<svg viewBox="0 0 55.5 55.5" xmlns="http://www.w3.org/2000/svg">
<path d="M0 0h55.5v55.5H0z" fill="rgb(239, 242, 248)"/>
<path d="M21.45 30.95V42h1.16l.39-1.3V29.2l-8.08-7.8L8 28.98v1.97h13.45zm13.1-.18V42h-1.13L33 40.7V29.2l8.07-7.8L48 28.98v1.79H34.55z" fill="rgb(0, 144, 56)"/>
<path d="M21 31v11h1.6l.4-1.3V29.2s-4.46-2.37-7.9-2.37c-3.2 0-7.1 2.15-7.1 2.15V31h13zm14 0v11h-1.6l-.4-1.3V29.2s4.46-2.37 7.9-2.37c3.2 0 7.1 2.15 7.1 2.15V31H35z" fill="rgb(0, 108, 49)"/>
<path d="M26 40.04L24 42V27.66l-7.41-7.33 2.43-2.8L26 24.67v15.36zm4 0L32 42V27.72l7.41-7.39-2.43-2.8L30 24.67v15.36z" fill="rgb(0, 108, 49)"/>
<path d="M26 24.68v1.99l-8.2-7.74 1.22-1.4L26 24.67zm4 0v1.99l8.2-7.74-1.22-1.4L30 24.67z" fill="rgb(0, 144, 56)"/>
<path d="M27 16v26h2V16h1v-2h-4v2h1z" fill="url(#a)"/>
<defs>
<linearGradient id="a" x1="27.91" x2="27.91" y1="14" y2="42" gradientUnits="userSpaceOnUse">
<stop stop-color="rgb(0, 108, 49)" offset=".08"/>
<stop stop-color="rgb(0, 144, 56)" offset=".35"/>
<stop stop-color="rgb(0, 108, 49)" offset=".62"/>
</linearGradient>
</defs>
</svg>
