<!-- by Finnhub --><svg xmlns="http://www.w3.org/2000/svg" width="56" height="56" viewBox="0 0 56 56"><path fill="#F0F3FA" d="M0 0h56v56H0z"/><path d="M6.73 25.5c.7 0 1.05.46 1.05 1.13 0 .68-.39 1.02-1.16 1.02H4.54v-2.16h2.19zm-2.2 4.82v-2.18h2.03c.58 0 1.03-.13 1.34-.39.3-.26.46-.63.46-1.12 0-.52-.16-1.03-.48-1.3A1.67 1.67 0 0 0 6.8 25H4v5.32h.54zm5-.54c.53.45 1.18.67 1.97.67.8 0 1.45-.22 1.96-.67.58-.5.86-1.18.86-2.05 0-.88-.28-1.56-.86-2.05A2.88 2.88 0 0 0 11.5 25c-.79 0-1.44.23-1.96.68-.57.49-.86 1.17-.86 2.05 0 .87.29 1.55.86 2.05zm.42-3.76c.41-.35.93-.53 1.55-.53.63 0 1.14.18 1.55.54.46.4.7.96.7 1.7 0 .73-.24 1.3-.7 1.7-.4.35-.92.53-1.55.53-.62 0-1.14-.18-1.55-.53-.46-.4-.69-.97-.69-1.7 0-.74.23-1.3.7-1.7zm5.6 4.3v-2.28h2.1c.45 0 .77.09.96.27.19.18.29.5.3.95 0 .61.05.96.13 1.06h.58c-.09-.09-.15-.44-.18-1.07-.02-.46-.09-.8-.2-1-.14-.24-.38-.4-.72-.44v-.02a1.26 1.26 0 0 0 1.01-1.26c0-.93-.56-1.53-1.68-1.53H15v5.32h.56zm2.33-4.83c.72 0 1.07.44 1.07 1.04 0 .68-.37 1.01-1.12 1.01h-2.27V25.5h2.32zm5.65-.15a2.79 2.79 0 0 0-1.47-.34c-.57 0-1.04.1-1.4.33-.43.26-.65.65-.65 1.17 0 .4.17.72.5.94.28.2.75.34 1.4.45.67.1 1.1.2 1.3.27.4.16.6.42.6.77 0 .68-.54 1.03-1.6 1.03-.55 0-.96-.1-1.24-.27-.34-.21-.53-.58-.57-1.08h-.54c.07 1.23.86 1.84 2.36 1.84.6 0 1.09-.1 1.46-.33.47-.28.7-.7.7-1.29 0-.44-.2-.78-.59-1-.26-.15-.7-.27-1.3-.37a6.72 6.72 0 0 1-1.42-.35c-.32-.15-.47-.38-.47-.7 0-.29.14-.51.42-.68.26-.16.61-.24 1.04-.24 1.03 0 1.57.38 1.63 1.12h.54c-.01-.57-.25-1-.7-1.27zm3.94 4.62c-.74 0-1.3-.23-1.68-.69-.34-.39-.5-.9-.5-1.54 0-.74.2-1.3.6-1.7.38-.35.9-.54 1.58-.54.5 0 .93.11 1.28.32.39.25.62.6.7 1.07h.54a1.9 1.9 0 0 0-.9-1.45c-.45-.29-.99-.43-1.62-.43-.93 0-1.64.3-2.15.92-.41.5-.62 1.1-.62 1.8 0 .84.25 1.5.75 2 .5.49 1.17.73 2.02.73.72 0 1.32-.2 1.8-.62.45-.39.7-.89.76-1.49h-.54c-.2 1.08-.87 1.62-2.02 1.62zm3.73.36v-2.5H35v2.5h.5V25H35v2.33h-3.8V25h-.54v5.32h.54zm9.38 0v-.5H37v-1.94h3.4v-.5H37V25.5h3.52V25H36.5v5.32h4.08zm5.8-4.98A2.79 2.79 0 0 0 44.9 25c-.57 0-1.03.1-1.4.33-.43.26-.64.65-.65 1.17 0 .4.17.72.5.94.28.2.75.34 1.4.45.67.1 1.1.2 1.3.27.4.16.6.42.6.77 0 .68-.54 1.03-1.6 1.03-.54 0-.96-.1-1.24-.27-.33-.21-.53-.58-.57-1.08h-.54c.07 1.23.86 1.84 2.36 1.84.6 0 1.09-.1 1.46-.33.47-.28.7-.7.7-1.29 0-.44-.2-.78-.58-1-.27-.15-.7-.27-1.3-.37a6.72 6.72 0 0 1-1.43-.35c-.32-.15-.47-.38-.47-.7 0-.29.14-.51.42-.68.26-.16.61-.24 1.05-.24 1.02 0 1.56.38 1.62 1.12h.54c-.01-.57-.25-1-.7-1.27zM52 30.32v-.5h-3.65v-1.94h3.46v-.5h-3.46V25.5h3.6V25H47.8v5.32H52z"/></svg>