<?xml version="1.0" encoding="UTF-8"?>
<!-- generated by Finnhub -->
<svg viewBox="0 0 55.5 55.5" xmlns="http://www.w3.org/2000/svg">
<path d="M0 0h55.5v55.5H0z" fill="rgb(239, 242, 248)"/>
<path d="M17 14h22a3 3 0 013 3v22a3 3 0 01-3 3H17a3 3 0 01-3-3V17a3 3 0 013-3zm-4 3a4 4 0 014-4h22a4 4 0 014 4v22a4 4 0 01-4 4H17a4 4 0 01-4-4V17zm22 7v-4.97c-1-.31-3.2-1-5.8-1.03-3.22-.04-10.2 1.28-10.2 9.82C19 36.4 24.92 38.04 29.35 38c1.02-.01 3.43-.29 4.48-.67.4-.14 1.17-.57 1.17-1.6V29.3l1.5-.29v-1h-6v1l1.5.29v5.51c0 .56-.07 1.2-.75 1.2h-2.3C26.6 36 22 32.9 22 27.15c0-2.72 1.05-7.4 8.15-7.15 2.9.1 3.85 1.75 3.85 4h1z" fill="rgb(78, 78, 77)" fill-rule="evenodd"/>
</svg>
