<?xml version="1.0" encoding="UTF-8"?>
<!-- generated by Finnhub -->
<svg viewBox="0 0 55.5 55.5" xmlns="http://www.w3.org/2000/svg">
<path d="M 0,0 H 55.5 V 55.5 H 0 Z" fill="rgb(8, 108, 182)"/>
<path d="M 24.49,18.985 A 1.5,1.5 0 1,0 24.5,16 A 1.5,1.5 0 0,0 24.5,19 Z M 5,23 H 13 V 24 C 12.89,24 12.75,24 12.6,23.98 C 11.75,23.93 10.44,23.84 10.78,25.21 L 14.38,36.48 L 18.31,25.54 C 18.55,24.93 18.48,24 16.35,24 V 23 H 26 V 32.62 C 26.16,33.32 26.58,34.34 27.86,32.87 L 32.16,22.39 L 36.13,32.62 C 36.24,32.95 36.73,33.6 37.77,33.6 C 38.82,33.6 39.96,32.95 40,32.62 V 25.15 C 39.92,24.72 39.78,24 39,24 V 23 H 44.67 C 46.39,22.93 49.87,23.54 50,27.83 C 50.15,33.03 45.64,33.83 44.75,33.99 L 44.67,34 H 33 V 33.6 C 33.57,33.7 34.9,33.64 34.54,32.62 L 33.57,30 H 29.77 L 28.76,32.62 C 28.7,32.95 28.69,33.6 30,33.6 V 34 H 21.8 V 33.6 C 22.5,33.66 23.9,33.42 24,32 V 24.97 C 24.01,24.54 23.69,24 22.25,24 C 20.45,24 19.99,24.15 19.71,24.97 L 14.14,40 H 13.4 L 7.7,24.97 C 7.54,24.54 6.94,24 5.86,24 H 5 V 23 Z M 31.7,24.97 L 33.2,29 H 30.15 L 31.71,24.97 Z M 42,24.12 C 43.97,23.73 47.93,24.05 48,28.44 C 48.07,32.82 44.47,33.24 42.67,32.91 C 42.45,32.86 42,32.56 42,31.8 V 24.12 Z" fill="rgb(254, 254, 253)" fill-rule="evenodd"/>
</svg>
