<?xml version="1.0" encoding="UTF-8"?>
<!-- generated by Finnhub -->
<svg viewBox="0 0 55.5 55.5" xmlns="http://www.w3.org/2000/svg">
<path d="M0 0h55.5v55.5H0z" fill="rgb(239, 242, 248)"/>
<path d="M27.95 44h-.04a16.4 16.4 0 0 1-.55-3.77l-.14.62.01.05c.03.05.02.08-.02.11a.05.05 0 0 0-.03.03l-.18.77v.04c.04.08.02.14-.05.2a5.32 5.32 0 0 1-.52 1.38 22.06 22.06 0 0 1-.14-3.07c0-.03 0-.06-.03-.09v-.03c.08-.1.06-.4.06-.52v-.01h-.01l-.44 1.2v.13c-.04 0-.07.02-.08.06-.19.46-.4.92-.64 1.36-.02.03-.03.03-.03 0v-.32c-.08-.15-.01-.25 0-.37a22.06 22.06 0 0 1 .19-2.53 17.94 17.94 0 0 1-1.7 2.43v-.01c.06-.42.15-.83.26-1.25l.09-.34c.01-.05 0-.08-.05-.09-.55-.1-2.04.6-2.43.6-.03.04-.06.04-.1.01a.08.08 0 0 1-.02-.08.88.88 0 0 1 .75-.68.1.1 0 0 0 .07-.06l-.01-.02h-.71c-.36 0-.57-.36-.9.01a.05.05 0 0 1-.1-.02v-.03c.06-.16.16-.23.24-.4l.03-.02c.2-.05.36-.1.55-.24.25-.17.52-.31.8-.12.29.18.6.3.96.34.2.03.28-.05.37-.23a19.26 19.26 0 0 1 .3-.58c-.01-.04 0-.07.04-.08l.03-.03c.17-.22.28-.46.31-.73a.45.45 0 0 1 .16-.29.01.01 0 0 1 .01.02l-.12.43a.03.03 0 0 0 0 .04.03.03 0 0 0 .04 0c.3-.08.33-.43.41-.69a.02.02 0 0 0-.01-.02h-.01l-.21.05a.03.03 0 0 1-.04-.03.63.63 0 0 1 .23-.63h.01a.02.02 0 0 1 .02 0v.02c-.06.11-.2.34-.14.47 0 .01.01.02.02.01.34-.07.53-.36.58-.65 0-.06-.01-.08-.07-.07l-.24.04a.08.08 0 0 1-.07-.03.08.08 0 0 1-.02-.08l.15-.35a.02.02 0 0 0-.02-.02l-.96-.02a.82.82 0 0 0-.23.04c-.46.14-.78.06-1.22-.08-.21-.07-.36-.04-.56 0-.38.06-.72-.02-1.02-.24-.2-.16-.3-.22-.55-.19-.44.05-.8-.05-1.17-.3-.16-.1-.16-.23-.39-.27-.52-.08-1.45-.5-1.48-1.13a.04.04 0 0 0-.02-.03c-.67-.24-1.36-.28-1.66-1.24a.05.05 0 0 0-.03-.03c-.04-.01-.06-.04-.05-.09v-.02a.03.03 0 0 0-.03-.01c-1.31-.12-2.8-.6-3.12-2.14-.04-.15-.1-.22-.25-.24a5.28 5.28 0 0 1-3.52-2.12 2.72 2.72 0 0 1-.54-1.65c0-.18-.37-.49-.5-.62-.84-.86-.98-1.74-.9-2.8.01-.14-.06-.22-.14-.3-.2-.2-.4-.41-.55-.62a4.96 4.96 0 0 1-.8-3.72c0-.02 0-.03.03-.01l.13.13c1 1.14 2.16 2.02 3.53 2.77a47.48 47.48 0 0 0 11.38 4.18c1.27.32 2.58.63 3.8 1.1a3 3 0 0 1 1.44.97l.1.07v.04a5.68 5.68 0 0 0-.87 1.27c.45.08.6-.16.74-.52.28-.68.27-.52.68-.9a.08.08 0 0 1 .08-.01c.02 0 .02.02.01.03-.33.4-.67 1.05-.66 1.24 0 .02.02.03.04.02.24-.06.46-.22.66-.36a.35.35 0 0 1 .05-.04c.06 0 .07.02.04.07a4.88 4.88 0 0 0-.71 1.35l.01.04c.08.06.15.06.22 0 .04-.04.07-.03.11-.05a12.51 12.51 0 0 0 .48-.35c-.2.5-.47.98-.58 1.53a.03.03 0 0 0 .01.02.03.03 0 0 0 .03 0c.2-.07.14.01.07.18a.03.03 0 0 0 .03.04h.01c.23-.14.4-.38.59-.58a.03.03 0 0 1 .05.02v.02a7.39 7.39 0 0 0-.32 1.2c.17.1 0 .27.01.4a.03.03 0 0 0 .02.03h.02c.25-.16.4-.42.57-.62.08-.1.1-.08.06.04a5.08 5.08 0 0 0-.27 1.16h.02l.02-.02a.13.13 0 0 1 .07-.08.03.03 0 0 1 .04.02v.02l-.1.37c-.02.05 0 .06.04.03a1.27 1.27 0 0 0 .55-.93h-.02a.22.22 0 0 1-.21.1c-.02 0-.03-.02-.03-.04.02-.48.13-.95.17-1.43a.03.03 0 0 0 0-.03h-.03c-.34.06-.24.07-.53.1h-.01a.02.02 0 0 1-.01-.04l.64-1.37v-.01l-.82.12h-.02v-.04l.78-1.18c.01-.02 0-.03-.02-.03l-.6-.06a.08.08 0 0 1-.07-.07c0-.04.01-.07.06-.1.29-.15.57-.41.84-.63l.02-.02a.05.05 0 0 0-.03-.06l-.7-.33c-.05-.02-.05-.04 0-.06.22-.12.46-.21.72-.28.24-.07.51-.05.76-.08h.01v-.03a3.44 3.44 0 0 1-.46-.57.02.02 0 0 1 .02-.01 6.18 6.18 0 0 1 1.13-.02 6.83 6.83 0 0 1 1.35.36l-.46-.75.01-.04a.18.18 0 0 1 .12-.01c.67.14 1.06.54 1.52 1.02.06.06.13.07.2.03.5-.2 1.01-.4 1.56-.55 1.65-.47 3.18-.84 4.76-1.27 2-.55 3.96-1.23 5.85-2 2.52-1.03 5.15-2.32 6.94-4.4a.37.37 0 0 1 .13-.1h.01a.03.03 0 0 1 .02 0v.02a4.76 4.76 0 0 1-1.4 4.36c-.17.18-.04.5-.03.67.09 1.13-.52 2.04-1.32 2.75a.49.49 0 0 0-.13.2c-.02.2 0 .37-.05.61-.04.2-.11.39-.18.58-.1.27-.34.57-.52.79a5.44 5.44 0 0 1-3.44 1.88.1.1 0 0 0-.02.06.1.1 0 0 1-.08.1.04.04 0 0 0-.02.02c-.23 1.53-1.78 2.04-3.07 2.15-.1.01-.14.05-.16.15-.14.73-.88 1.2-1.58 1.21a.1.1 0 0 0-.07.03.11.11 0 0 0-.03.07c-.03.45-.64.83-1.01.98-.52.2-1.12.69-1.66.74l-.04-.01c-.13-.07-.47-.05-.63-.05h-.03c-.1.09-.21.2-.3.25-.3.18-.63.24-.98.17-.16-.03-.33-.06-.49 0-.4.15-.78.23-1.2.12l-.1.02h-.01a.03.03 0 0 1-.02-.01l-.02-.05a.03.03 0 0 0-.03-.02c-.47 0-.9.03-1.37-.1-.02 0-.03 0-.02.03.13.2.22.4.27.63l.03.04c.19.18.28.4.29.67 0 .05-.03.07-.08.06l-.21-.04h-.02a.02.02 0 0 0 0 .03c.1.26.1.56.4.68h.02a.03.03 0 0 0 .02-.01v-.01a1.17 1.17 0 0 0-.1-.42l.02-.01h.02c.17.19.14.48.26.69.3.55.51.92.62 1.09.17.28.78.02 1-.1l.17-.07c.24-.15.4-.2.65-.07h.09c.02-.01.03 0 .04.01.1.22.25.24.45.31.23.08.4.25.48.47a.07.07 0 0 1-.03.08.06.06 0 0 1-.08-.02.7.7 0 0 0-.14-.12c-.23-.15-.33.02-.53.07-.26.07-.64.03-.91.04h-.02v.01a.02.02 0 0 0 .01.02c.38.16.77.28.77.78a.05.05 0 0 1-.07.04.05.05 0 0 1-.02-.02c-.2-.41-.58-.18-.9-.28l-1.12-.33a1.02 1.02 0 0 0-.36.02c-.02 0-.02.01-.02.03.1.38.2.76.28 1.13.04.18.07.34.07.48 0 .05-.02.06-.05.02a19.34 19.34 0 0 1-1.43-2.06c-.04-.07-.1-.1-.16-.16h-.02c-.05.19.05.25.04.4v.14c.08.75.17 1.55.12 2.3 0 .08 0 .14.03.21 0 .02 0 .03-.02.04h-.02a.03.03 0 0 1-.03 0 .03.03 0 0 1 0-.02c-.02-.04-.01-.07-.03-.1a19.92 19.92 0 0 1-1.12-2.57c.04.87.03 1.75-.05 2.63 0 .02 0 .04.02.05l.02.04c0 .13-.07.22-.08.33a7.83 7.83 0 0 1-.1.5 7.6 7.6 0 0 1-.34-.92c-.05-.04-.07-.1-.05-.17v-.04c-.17-.62-.31-1.24-.43-1.87-.04-.19-.06-.19-.07 0-.05 1.2-.23 2.4-.53 3.62ZM7 20.4c-.47-.35-.96-.8-1.44-1.2a.03.03 0 0 0-.03 0 .03.03 0 0 0-.01.02c-.01.72.14 1.26.52 1.88.41.66.92 1.22 1.54 1.69a18.48 18.48 0 0 0 4.9 2.58c1.14.4 2.27.8 3.45 1.11.04.02.06 0 .07-.05v-.1c-.18-.6-.23-1.21-.15-1.83.01-.06-.03-.14-.08-.16-3.13-.97-5.83-1.75-8.77-3.94ZM48.13 23c1.19-.86 2.4-2.15 2.33-3.76a.03.03 0 0 0-.02-.03h-.03c-.4.35-.84.75-1.22 1.04-2.62 2.03-5.87 3.14-8.98 4.1l-.02.01a.06.06 0 0 0-.02.07c.02.03.01.06-.02.08a4.94 4.94 0 0 1-.17 1.97.03.03 0 0 0 .02.01h.08c2.72-.73 5.69-1.78 8.05-3.5Zm-3.3 4c.74-.23 1.45-.53 2.12-.9 1.12-.62 2.29-1.62 1.98-3.07a7.6 7.6 0 0 1-2.44 1.54c-2.21 1-4.26 1.64-6.69 2.34a.47.47 0 0 0-.18.12c-.12.1-.03.26-.03.37 0 .24-.07.41-.14.62a.05.05 0 0 0 .06.07c1.6-.14 3.6-.56 5.33-1.1ZM7.07 23.06c-.38 1.9 1.8 3.06 3.21 3.6a27.06 27.06 0 0 0 6.2 1.41.07.07 0 0 0 .07-.03.08.08 0 0 0 0-.07c-.12-.25-.16-.5-.11-.74.04-.22-.15-.3-.3-.35-2.77-.77-4.54-1.15-7.64-2.82a5.68 5.68 0 0 1-1.4-1.03.04.04 0 0 0-.03.03Zm12.28 2.42a.09.09 0 0 0-.06-.08l-3.2-.97-.01.01v.01c.05.08.11.15.19.21a7.38 7.38 0 0 0 2.98 1.39c.07 0 .1-.35.1-.57Zm17.32 0c-.02.17-.02.35 0 .53 0 .04.02.05.06.04a6.33 6.33 0 0 0 3.1-1.54c.05-.05.04-.06-.02-.04l-3.08.93a.09.09 0 0 0-.06.08Zm-20.42-.27c-.01 1.93 1.86 2.71 3.44 2.95h.08a.05.05 0 0 0 .04-.02.05.05 0 0 0 0-.05c-.08-.15-.17-.3-.18-.48-.02-.36-.14-.66-.22-1.01-.03-.13-.07-.2-.2-.24a10.46 10.46 0 0 1-2.89-1.2.05.05 0 0 0-.05.01l-.02.02v.02Zm19.97 2.95h.13c1.34-.22 3.4-1.24 3.43-2.97a.04.04 0 0 0-.02-.03.04.04 0 0 0-.03 0c-.17.07-.33.15-.48.23-.73.4-1.5.72-2.3.94-.2.05-.32.1-.36.31-.06.3-.19.64-.21 1-.01.18-.1.32-.18.47v.04h.02Zm-5.97-2.58.01-.06c0-.02 0-.03-.02-.04l-.21-.05H30a.02.02 0 0 0-.01.02v.02l.43.72a.05.05 0 0 1 0 .07h-.03c-.04.02-.08.01-.12 0a4.35 4.35 0 0 0-2.3-.4c-.02.01-.02.02-.01.03l.41.47c.09.1.02.17-.09.16a2.3 2.3 0 0 0-1.3.2c-.05.02-.05.03-.01.06.21.13.46.21.69.33a.02.02 0 0 1 0 .02.02.02 0 0 1 0 .01c-.21.18-.5.52-.78.6-.02 0-.02.02-.01.03.01.04.02.09 0 .13a.02.02 0 0 0 0 .02.02.02 0 0 0 .02.01l.44.03c.03 0 .04.02.03.05-.04.08-.07.16-.13.24l-.59.89c0 .02 0 .03.02.03l.77-.1h.01l.01.01v.01l-.66 1.38.01.02c.33-.08.28-.08.51-.12a.03.03 0 0 1 .04.03l-.18 1.42v.01h.01l.8-.74c.05-.04.07-.03.08.03l.07 1.33c0 .02 0 .02.02.01l.68-.56a.03.03 0 0 1 .03 0v.02a5.53 5.53 0 0 1 .03.74c.03.06.06.06.1.02l.55-.56a.03.03 0 0 1 .03 0 .03.03 0 0 1 .02.02l.05.7a.02.02 0 0 0 .02.02.02.02 0 0 0 .03 0l.17-.25v-.04c-.24-.2-.07-.33.15-.34 0 0 .02 0 .02.02l.03.04h.02l.05-.06c.01-.02.02-.02.03 0l.38.86.02.01a.01.01 0 0 0 0-.01c.2-.86.43-1.51 1.19-2.03a8.26 8.26 0 0 1 1.22-.7v-.05l-.17-.38c-.01-.05 0-.07.04-.07.31-.01.6.07.91.14.62.15.25-.54.58-.5.14.02.42.07.45-.07.06-.28.05-.58-.01-.9-.18-.82-.85-1.1-1.57-1.3-.2-.06-.32-.1-.38-.1-.51-.07-.94-.25-1.3-.56a7.66 7.66 0 0 1-.33-.37c-.2-.23-.44-.43-.7-.6h-.04c-.06.07-.13.07-.2.02a.03.03 0 0 1 0-.04Zm-7.21 1.61.09.01a.02.02 0 0 0 0-.03c-.46-.26-.96-.43-1.45-.6a.03.03 0 0 1-.02-.04c0-.02.02-.03.04-.03.63.11 1.22.33 1.77.65 1.11.65.59 1.46.25 2.33-.13.32-.16.55-.03.85 0 .02.02.02.03 0 .06-.04.09-.1.1-.16.03-.5.2-.93.52-1.28a.12.12 0 0 0 .02-.05c.16-.5.24-.84.64-1.23.03-.03.04-.08.03-.17 0-.01 0-.02-.02-.03-.5-.67-1.66-.96-2.43-1.18-.97-.27-1.95-.53-2.93-.76-.02 0-.03 0-.02.02.2.66 2.72 1.54 3.4 1.7Zm11.3-.64-1.03.39a.74.74 0 0 0-.17.1v.03c.06.04.13.05.2.03.99-.27 2.65-.93 3.03-1.59v-.01h-.02c-1.3.3-2.81.66-4.15 1.16l-.14.06c-.02.01-.02.02 0 .03.09.09.2.1.3.15.21.11.42.12.62.02a4.94 4.94 0 0 1 1.38-.4v.02l-.02.02ZM16.9 27.71c.43 1.52 2.16 1.82 3.47 1.73.01 0 .02-.01.01-.03l-.43-.93a.11.11 0 0 0-.09-.06 5.68 5.68 0 0 1-2.93-.95h-.02a.05.05 0 0 0-.03.05c0 .07 0 .14.02.2Zm19.3.7c-.08.02-.15.08-.19.15a446.1 446.1 0 0 0-.38.87c.69.07 1.38-.01 2.06-.26.73-.26 1.2-.76 1.42-1.5v-.13a.07.07 0 0 0-.03-.05.06.06 0 0 0-.07 0 5.85 5.85 0 0 1-2.81.93Zm-15.25.72c.7.4 1.47.4 2.27.38.21 0 .3-.41.36-.57a.07.07 0 0 0 0-.07.07.07 0 0 0-.06-.03 5.63 5.63 0 0 1-3.35-1c-.03-.01-.04 0-.04.03.05.33.46 1.05.82 1.26Zm13.91-.7v.03a3.05 3.05 0 0 1 .08.7v.01h.02c.51-.29.81-.72.9-1.31 0-.01 0-.02-.01-.01a17.2 17.2 0 0 1-.9.5.18.18 0 0 0-.09.09Zm-9.93 1.05c-.01.01 0 .02.01.02.21 0 .42-.1.5-.3.1-.25.22-.48.36-.7l-.01-.02c-.65.13-.61.41-.86 1Zm-.8.01a.02.02 0 0 0 0 .02.02.02 0 0 0 .01.02l.09.02c.01 0 .02.01.01.03l-.14.35v.02h.01c.37-.1.6-.32.7-.66.08-.26.13-.4.24-.6 0-.01 0-.02-.02-.02-.13.01-.27.05-.4.1l-.01.04c0 .1-.41.55-.49.68Zm-1.09.96c-.53.2-1.06.22-1.59.06-.03 0-.05 0-.04.04.2 1.14 1.4.87 2.13.58.07-.03.12-.08.08-.15-.08-.1-.24-.2-.32-.37-.13-.26-.1-.62-.03-.9a.07.07 0 0 0-.03-.08h-.03l-.82.01-.04.01c-.03.02-.05.01-.07 0-.01-.02-.02-.02-.03-.02a4.26 4.26 0 0 1-1.57-.4.04.04 0 0 0-.02.04c-.02.38.27.74.58.91.36.2.68.28 1.08.3.22.01.48-.04.72-.05v.01Zm12-.69c.21.17.3-.4.3-.5v-.01a.03.03 0 0 0-.03-.02h-.01c-.27.06-.64.23-.26.53Zm-14.1.9a.1.1 0 0 0 .06-.04.1.1 0 0 0 .02-.07c0-.24-.29-.5-.43-.7-.23-.32-.55-.21-.88-.21a5.27 5.27 0 0 1-2.01-.38c.15 1.45 2.22 1.55 3.24 1.4Zm14.64.03c.1.03.2.02.28.03 1 .03 2.13-.2 2.43-1.33a.22.22 0 0 0 0-.12c0-.02-.02-.03-.04-.02-.74.3-1.51.42-2.3.38-.26-.02-.43 0-.54.24l-.02.03c-.1.05-.08.13-.03.22.09.16.14.32.15.49l.02.05a.1.1 0 0 0 .05.03Zm-9.96-.98c-.23.08-.5.93-.57 1.17v.04c.08.06.11.13.12.22 0 .01 0 .02.02.01.55-.24.4-.49.53-.95.07-.22.23-.47.35-.69a.02.02 0 0 0 0-.02h-.02c-.14.1-.28.16-.43.22Zm-.99.77v.02l.01.01.02.01h.01c.38-.2.62-.5.7-.92.01-.06 0-.08-.06-.05-.15.09-.34.09-.46.17-.61.41-.1.52-.22.76Zm9.47-.34c-.12 0-.21.03-.33-.02a2.2 2.2 0 0 0-.78-.15c-.02 0-.03.01-.02.03.1.3.28.56.52.76.01.02.02.03.01.05l-.05.13.01.04c.22.28.49.58.8.9a.67.67 0 0 0 .2.14.02.02 0 0 0 .01-.01c.12-.3-.3-.73-.51-.93a5.6 5.6 0 0 1-.84-.97.05.05 0 0 1 .03-.03c.04-.02.1-.02.15 0l.93.37c.2.09.43.34.61.49.22.16.18.35.11.58v.01l.01.01a.02.02 0 0 0 .03 0c.5-.4.56-1.13.1-1.6-.2-.2-.4-.33-.67-.32a.15.15 0 0 0-.12.05.06.06 0 0 0-.01.04.43.43 0 0 1-.14.34l-.02.07-.03.02Zm-9.67-.1c0-.02 0-.02-.02-.02-.21.08-.43.16-.5.37-.05.22-.12.5.02.74l.01.01h.02a.04.04 0 0 0 .03 0c.19-.17.4-.61.44-1.1Zm13.15 1.48c.87.19 1.74.27 2.62.24.92-.04 2.98-.35 3-1.63v-.01l-.02-.02a.18.18 0 0 0-.12-.01c-.42.09-.83.14-1.21.17-1.15.07-2.3.16-3.45.13-.21 0-.4.14-.54.29l-.02.04a1.25 1.25 0 0 1-.27.77.02.02 0 0 0 0 .02h.01Zm-24.2-1.34c-.01 0-.02 0-.02.02-.02.28-.25.22-.3.43 0 .02-.02.02-.03.02H13c-.03 0-.04.01-.02.03.64.7 1.35.92 2.25 1.03a9.77 9.77 0 0 0 3.17-.2c.02 0 .02-.02.01-.03a1.31 1.31 0 0 1-.27-.75l-.01-.04c-.17-.24-.36-.3-.66-.3-1.49.05-2.72-.08-4.1-.21Zm20.03.1h-.02v.03l.23.18h.03l.03-.13v-.01l-.02-.01-.25-.07Zm.33.24.4.07.01-.01v-.02l-.32-.17h-.02a.03.03 0 0 0-.02 0v.02c0 .04-.02.06-.05.08-.03.02-.03.03 0 .03Zm-1.3.68c-.1-.05-.09-.07 0-.04a5.75 5.75 0 0 0 1.15.2v-.04a1.66 1.66 0 0 0-.3-.34c-.08-.06-.02-.17 0-.25l-.01-.04c-.27-.34-.48-.13-.72.11a3.68 3.68 0 0 1-.86.59v.02c.03.18.86.55 1 .6.17.08.34.11.48.12.25 0 .59-.2.56-.5 0-.03 0-.03-.03-.03-.26.1-.87-.17-1.28-.4Zm-8.04.1v.09a2.3 2.3 0 0 0-.1.4l.02.02h.03c.2-.11.37-.26.51-.45.01 0 .02-.02.01-.04 0-.22 0-.44.03-.65 0-.02 0-.03-.02-.02-.5.08-.65.52-.7.96v.01h.02l.15-.33h.01l.02-.01h.01l.01.01Zm9.78-.15a.07.07 0 0 0 .1 0c.09-.07.16-.17.21-.28a.05.05 0 0 0 0-.04.05.05 0 0 0-.02-.03 3.19 3.19 0 0 0-.69-.14c-.01 0-.02 0 0 .02l.4.47Zm-15.57-.28c.1.57.6 1.02 1.16 1.06.67.05 1.25-.13 1.9-.37.02 0 .02-.02 0-.03a1.9 1.9 0 0 1-.58-.7.08.08 0 0 0-.08-.04c-.77.1-1.56.23-2.34.03a.05.05 0 0 0-.04 0 .05.05 0 0 0-.02.05Zm7.02 1.23a.04.04 0 0 0 .04.05h.02c.24-.16.4-.28.4-.6a1.76 1.76 0 0 1 .16-.72.01.01 0 0 0-.01 0l-.4.24a.3.3 0 0 0-.12.14c-.32.74-.01.65-.09.89Zm9.34-.34c.9.35 2.17.32 2.41-.89a.05.05 0 0 0-.03-.05h-.02c-.6.14-1.14.1-1.73.05a.1.1 0 0 0-.1.07 1.47 1.47 0 0 1-.54.8v.01h.01Zm-.23-.1.02-.03.01-.02a1.46 1.46 0 0 0 .13-.32v-.11c0-.03-.01-.05-.03-.06l-.03-.02c-.03-.02-.09.01-.16.08a1.2 1.2 0 0 0-.2.27v.02c-.06.11.18.25.26.18Zm-9.94.8H24.88l.01.02v.01l-.09.33v.01a.02.02 0 0 0 .02.02c.12-.08.6-.47.57-.63a2.16 2.16 0 0 1 .1-1h-.02c-.13.07-.43.16-.48.3a4.37 4.37 0 0 0-.23.92.05.05 0 0 0 .04.01Zm-2.57-.82c.03.38.47.53.79.46.2-.05.4-.13.57-.23.15-.08.07-.51.02-.63a5.22 5.22 0 0 1-1.38.38v.02Zm5.7-.33c-.16.11-.43.35-.48.54-.08.3-.15.66-.2 1.07-.02.12-.01.25.03.38 0 .02 0 .02.02.01.45-.24.68-.72.7-1.22 0-.2-.04-.5-.03-.76v-.01a.03.03 0 0 0-.03-.02h-.01Zm-4.03.07c-.15.14-.09.56-.02.74a.02.02 0 0 0 .01.01.02.02 0 0 0 .02-.01c.11-.23.1-.53.15-.79 0-.01 0-.02-.02-.01a.28.28 0 0 0-.14.06Zm7.51.67c.33.32 1.06.9 1.45.37v-.02a.03.03 0 0 0-.01-.02 4.72 4.72 0 0 1-1.27-.9c-.18-.05-.34.15-.4.3v.04c.07.09.18.18.23.23Zm-11.71.23c.24.57.81.65 1.35.53.25-.05 1.12-.3 1.26-.53v-.02a.02.02 0 0 0 0-.02.87.87 0 0 1-.44-.55.07.07 0 0 0-.04-.04.07.07 0 0 0-.06 0c-.44.15-1.44.6-2.05.53a.08.08 0 0 0-.02.1Zm16.7.47c1.02.31 2.87.78 3.56-.4v-.05c-.03-.04-.07-.07-.14-.08a32.96 32.96 0 0 1-2.47-.4c-.19.1-.49.23-.61.4-.14.19-.13.37-.35.5v.02Zm-12.15.44c.12-.05.2-.13.22-.25a608.84 608.84 0 0 0 .18-1.1c-.14.08-.32.15-.4.29-.13.24-.13.84-.04 1.05.01.02.02.02.04.01Zm-8.21-.88c.2.57.92.78 1.45.79a7.03 7.03 0 0 0 2.09-.36v-.01a.96.96 0 0 1-.28-.48l-.01-.03a.56.56 0 0 0-.24-.15.08.08 0 0 1-.03-.02c-.2-.22-.4-.23-.7-.17a30.37 30.37 0 0 1-2.28.38.06.06 0 0 0 0 .05Zm19.01.52c.4.08.73.04 1.03-.23.08-.07.26-.3.2-.42a7.17 7.17 0 0 1-1.57-.34c-.16.01-.07.27-.2.32a.1.1 0 0 1-.1-.02l-.31-.24h-.04a.27.27 0 0 0-.1.24c0 .02 0 .02-.02.02-.1-.02-.2.02-.25.12a.02.02 0 0 0 0 .03c.33.2.96.45 1.36.52Zm-8.98-.03-.05.46a.03.03 0 0 0 .01.02h.03c.57-.41.31-.65.52-1.29v-.03a.03.03 0 0 0-.04 0l-.29.19h-.02a.16.16 0 0 0-.15.1 2.94 2.94 0 0 0-.24.86h.01a.02.02 0 0 0 .03 0c.06-.1.1-.2.15-.31.01-.04.03-.04.04 0Zm5.05-.22c.27.28.62.58 1.01.27a.01.01 0 0 0 0-.02 13.22 13.22 0 0 1-1.06-.87l-.01.01a.84.84 0 0 0-.15.36v.04c.06.09.16.16.2.21Zm-2.86.93V33.75h.01c.3-.5.47-1.02.52-1.6 0-.05-.02-.07-.06-.03l-.67.56c-.17.14-.07.97-.02 1.18a.01.01 0 0 0 .02.01c.08-.07.08-.14.02-.22v-.03h.02a.12.12 0 0 0 .1-.12.03.03 0 0 1 .03-.03l.02.02v.02Zm-5.14-1.08c.16.2.41.26.64.17.17-.05.23-.16.2-.33 0-.02 0-.02-.01-.01a.18.18 0 0 1-.17.03.04.04 0 0 1-.03-.02l-.04-.13a.05.05 0 0 0-.03-.03h-.04l-.51.28c-.02.01-.02.02 0 .04Zm2.77-.15c0-.02 0-.02-.02-.02l-.31.12-.02.01v.03c.01.05-.01.08-.06.08-.01 0-.02 0-.03.02-.12.32-.25.7-.2 1.04 0 .04 0 .04.01 0l.03-.12v-.02h.04v.02l.05.16c0 .02.01.03.03.02.1-.05.37-1.08.48-1.34Zm-4.85.85c-.02 0-.02.02-.01.03.51.7 1.57.08 2.06-.33.02-.02.02-.03 0-.05a1.3 1.3 0 0 1-.22-.24c-.13-.16-.2-.27-.4-.14-.47.28-1.1.64-1.43.73Zm8.36-.07c-.06.45-.15 1.1 0 1.47.01.02.02.02.04 0 .07-.06.08-.24.11-.35a.04.04 0 0 1 .04-.03.04.04 0 0 1 .04.03l-.01.14v.02l.01.01a.03.03 0 0 0 .04 0 .6.6 0 0 0 .13-.3 8.1 8.1 0 0 1 .19-.7h.02v.02c.02.47-.19 1.1.08 1.53h.02c.44-.47.63-1.1.37-1.7 0-.02-.01-.03-.03-.02l-.07.02h-.03a.12.12 0 0 1-.03-.12c0-.02.01-.03.03-.03l.04-.02c.02 0 .03-.01.02-.03l-.27-.54a.02.02 0 0 0-.01-.01.02.02 0 0 0-.02 0c-.17.22-.31.44-.48.64l-.03.02h-.03a.05.05 0 0 1-.03-.04l-.04-.7a.02.02 0 0 0-.02-.02h-.02l-.45.47c-.07.08-.12.12-.22.1a.03.03 0 0 0-.03.02 3.26 3.26 0 0 0-.01 1.18c.03.06.06.05.08 0l.09-.34.01-.02a.03.03 0 0 1 .04 0v.03a.7.7 0 0 1-.01.24v.02l.01.01a.03.03 0 0 0 .03 0c.19-.2.21-.49.3-.8a.67.67 0 0 1 .08-.2c.01-.03.02-.03.02 0Zm3.5-.24c.33.3.7.5 1.1.62a.9.9 0 0 0 1-.28.01.01 0 0 0-.01-.01c-.54-.17-.96-.45-1.44-.74-.2-.12-.28-.06-.4.1a1.38 1.38 0 0 1-.26.3.02.02 0 0 0 .01 0Zm-2.16-.02c-.06.29.28.39.5.28v-.02a.03.03 0 0 0 0-.02l-.37-.5c-.01-.01-.03-.01-.04.01l-.1.25Zm-3.9 1-.02.18a.02.02 0 0 0 .02.02h.02c.15-.14.35-.39.3-.6a1.75 1.75 0 0 1-.07-.56h-.01l-.02-.01h-.01l-.35.25c-.2.14-.18.78-.15.99l.01.02a.03.03 0 0 0 .03 0l.01-.01.17-.3.02-.02a.03.03 0 0 1 .04.04Zm-1.96.26c0 .02.02.03.03 0 .15-.18.16-.48.16-.72 0-.16.04-.3.07-.45 0-.02 0-.03-.03-.01-.15.1-.3.18-.47.24a.1.1 0 0 0-.07.1 2.47 2.47 0 0 0 .16.96l.01-.01c.02-.22-.01-.93.14-.11Zm-2.76-.42c-.01.01-.02.02 0 .04.47.55 1.24.02 1.6-.39.01-.02.03-.07.04-.16v-.03c-.18-.11-.38-.3-.6-.13-.72.6-.55.4-1.04.67Zm10.05-.44c.38.45 1.18 1.03 1.72.49h.01a.02.02 0 0 0 0-.03h-.01c-.39-.2-.76-.44-1.1-.71-.18-.15-.48.1-.62.22v.03Zm-4.61 1.23V34.67a.02.02 0 0 0 .01 0h.01c.16-.16.28-.35.37-.56a.11.11 0 0 0 0-.09 2.66 2.66 0 0 1-.17-.85.02.02 0 0 0-.02 0c-.1.14-.22.27-.35.38a2.81 2.81 0 0 0-.12 1.2l.01.03h.07l.01-.03.12-.33a.03.03 0 0 1 .03-.02l.02.01v.02Zm3.81-1.06c.2.48.84.66 1.3.6h.01a.03.03 0 0 0 0-.05c-.32-.37-.71-.9-1.28-.63a.06.06 0 0 0-.03.08Zm-5.13 1c0 .03 0 .1-.02.19a.02.02 0 0 0 0 .02h.02c.09-.05.15-.11.19-.2v-.03a2.66 2.66 0 0 1-.06-1.09h-.02c-.09.09-.2.16-.3.22-.16.08-.1.52-.05.65.06.14.04.28.04.42v.02h.03a.59.59 0 0 0 .08-.2c.02-.14.05-.14.09 0Zm-2.93-.4c.39.08.72 0 1-.25.1-.08.12-.19.06-.32a.02.02 0 0 0-.01 0 .02.02 0 0 0-.02 0l-.13.09a.06.06 0 0 1-.05 0 .06.06 0 0 1-.03-.02l-.11-.17a.05.05 0 0 0-.03-.02.04.04 0 0 0-.04 0c-.23.22-.48.43-.65.66a.02.02 0 0 0 0 .02.02.02 0 0 0 .01.01Zm7.6-.12c.24.18.52.23.82.14.02 0 .02-.02.01-.03-.29-.33-.54-.75-1.06-.6a.04.04 0 0 0-.03.03c-.05.15.14.38.25.46Zm-11.74.74c.96.73 2.07.05 2.87-.5.02-.02.02-.03 0-.05-.3-.27-.37-.27-.83-.42a.05.05 0 0 0-.04 0c-.64.37-1.3.7-2 .93-.02.01-.02.02 0 .04Zm15.15-.76c.04.02.06.06.06.12a.06.06 0 0 1-.02.04c-.1.08-.2.08-.3-.01h-.03l-.08.06c-.01 0-.02.02 0 .03.45.35.92.67 1.47.81a1.75 1.75 0 0 0 1.4-.3v-.01a.03.03 0 0 0-.03-.03c-.65-.22-1.27-.51-1.87-.86-.19-.11-.44.02-.6.11h-.02v.02l.02.02Zm-8.87.54.12.07a.04.04 0 0 1 .02.03c0 .17-.02.3.05.46 0 .02.02.02.03.01.18-.14.18-.28.13-.5a2.32 2.32 0 0 1-.06-.78v-.01h-.03a.02.02 0 0 0-.01 0v.01c-.02.1-.06.12-.14.1l-.03.01c-.19.16-.16.37-.09.58l.01.02Zm2.82.2v.13c.03.1.05.21.05.32 0 .02 0 .03.02.02.51-.38.26-.85.2-1.34l-.01-.01h-.02c-.17.26-.37.44-.33.77a.05.05 0 0 0 .02.03l.06.05a.03.03 0 0 1 .01.03Zm-3.06-.58c-.43.32-.23.8.05 1.14.02.02.02.01.02-.01L25.24 34c0-.02-.01-.02-.03-.01Zm5.2.86c.1.2.39.4.54.48h.04c.05 0 .08 0 .11.05l.04.02c.25.07.5.08.76.03.02 0 .02-.01 0-.03-.25-.3-.44-.63-.65-.97a.8.8 0 0 0-.44-.37c-.11-.03-.18 0-.2.11a2.05 2.05 0 0 1-.2.66v.02Zm-3.47.24c.02.1-.01.2.03.3h.02c.17-.1.33-.31.12-.46v-.04l.02-.06v-.04a1.78 1.78 0 0 1-.05-.7h-.01c-.45.22-.38.74-.32 1.14v.02a.03.03 0 0 0 .04 0h.02l.08-.17a.03.03 0 0 1 .03-.01.03.03 0 0 1 .02.02Zm-5.9.08c.4.2.8.2 1.17 0 .44-.24.8-.53 1.06-.87v-.03c-.24-.24-.43-.1-.71-.13a.63.63 0 0 0-.47.18 12.1 12.1 0 0 1-1.06.84v.01Zm11.68-.87c.49.6 1.45 1.35 2.23.85v-.02a17.2 17.2 0 0 1-1.1-.86c-.22-.19-.42-.1-.67-.14a.52.52 0 0 0-.46.14v.03Zm-3.56.63-.04.32v.01h.02c.36-.33.12-.64.04-1 0-.04-.02-.05-.05-.03-.3.21-.23.66-.18.97a.02.02 0 0 0 .02.02.02.02 0 0 0 .02-.01l.1-.3.02-.02a.03.03 0 0 1 .05.04Zm-5.9-.34a13.89 13.89 0 0 1-.84.81c.5.15.95.08 1.37-.19.06-.04.09-.1.17-.13.27-.11.5-.45.63-.7a.06.06 0 0 0-.04-.1c-.16-.04-1.04.04-1.3.3Zm9.9.82.03.05a.04.04 0 0 0 .04.02l.34-.08c.02 0 .02 0 0-.02-.34-.3-.67-.63-.99-.95-.27-.29-.82-.22-1.17-.16-.02 0-.02 0-.02.02.21.67 1.03 1.18 1.71 1.19.02 0 .03-.01.03-.03v-.04h.03Zm-5.34 0v.3a.05.05 0 0 0 .04.06.05.05 0 0 0 .05-.01c.42-.41.14-.88.1-1.37v-.01a.02.02 0 0 0-.02 0 1.75 1.75 0 0 1-.44.59v.02c0 .03-.02.06-.05.07l-.01.02-.01.02a1.95 1.95 0 0 0 .09.91.02.02 0 0 0 .03 0c.09-.19.1-.45.2-.6.02-.02.02-.02.02 0Zm1.86.25a.06.06 0 0 0 .07 0c.39-.33.18-.72.05-1.11v-.01h-.02c-.14.1-.2.24-.22.42 0 .14 0 .62.12.7Zm-4.8-.68a.63.63 0 0 0-.13-.4c-.03-.04-.06-.04-.1 0-.31.5-.2.35-.6.84-.02.02-.01.03 0 .03.24.04.79-.03.98-.12.14-.07-.08-.29-.14-.32a.03.03 0 0 1-.01-.03Zm1.61-.32c-.38.21-.29.51-.22.91.02.12.07.23.14.33h.02c.14-.1.28-.25.22-.4a1.88 1.88 0 0 1-.13-.84.02.02 0 0 0-.03 0Zm2.26.92a.36.36 0 0 0-.01.21v.04a.7.7 0 0 0-.07.27c0 .03.01.03.03.01.1-.15.17-.32.18-.5.02-.22-.1-.52-.15-.75h-.01l-.37.45-.02.04a2.31 2.31 0 0 0 .16.77.02.02 0 0 0 .03 0c.04-.14.11-.46.2-.56h.02v.01Zm-2.79-.02.05.08v.01h.03v-.02a1.35 1.35 0 0 0-.09-.75h-.03l-.19.25a.08.08 0 0 1-.1.03l-.1-.06c-.01 0-.02 0-.02.02.02.35.15.65.4.89a.04.04 0 0 0 .05 0 .04.04 0 0 0 .02-.04l-.08-.38a.04.04 0 0 1 .02-.04h.02l.02.01Zm3.4-.29c-.41.27-.31.8-.17 1.19 0 .02.02.02.03.01.19-.14.41-.45.33-.7l-.15-.49c0-.01-.02-.02-.03 0Zm.93 1.78a.01.01 0 0 0 .02 0c.12-.18-.04-.39-.13-.53l-.01-.03a.04.04 0 0 1 .03-.03h.02l.19.08a.04.04 0 0 0 .04 0 .04.04 0 0 0 0-.05l-.04-.08a.03.03 0 0 1 0-.04.03.03 0 0 1 .04 0l.2.15a.02.02 0 0 0 .03-.01v-.02c-.14-.26-.35-.45-.55-.66a.03.03 0 0 1 0-.04h.04c.27.18.44.36.79.4.01 0 .02-.01.01-.03a1.84 1.84 0 0 0-.77-.9.03.03 0 0 0-.03.01v.01l-.17.4c0 .02-.02.02-.03.03a.68.68 0 0 0-.31.42c-.04.14-.19.28-.05.42.16.15.6.49.68.5Zm-4.96-1.58a1.7 1.7 0 0 0-.55.69c0 .01 0 .02.02.02.27-.02.5-.13.7-.33a.07.07 0 0 0 .01-.08l-.13-.29a.03.03 0 0 0-.03-.01h-.02Zm1.98.74.06.35c0 .01.01.02.03 0 .11-.08.14-.2.08-.34a2.7 2.7 0 0 1-.22-.71c0-.02-.01-.02-.03-.02-.11.06-.24.12-.25.27a1.83 1.83 0 0 0 .24 1.02.02.02 0 0 0 .03 0v-.02l.02-.54v-.01l.01-.01h.01a.02.02 0 0 1 .02 0 .02.02 0 0 1 0 .01Zm.79.27h.02V37h.02c.09-.1.35-.5.28-.64a3.06 3.06 0 0 1-.24-.65h-.01v.01a1.6 1.6 0 0 1-.28.37v.04l.03.05v.04c-.03.04-.06.05-.1.02-.01 0-.02 0-.02.02a2.07 2.07 0 0 0 .12.7l.01.01h.01l.01-.01c.05-.15.07-.33.15-.47Zm-1.6.05v.1a.02.02 0 0 0 .01.02l.15.16h.03v-.02l-.03-.25v-.01a.03.03 0 0 1 .03-.02h.02l.06.05h.03v-.02l-.04-.63v-.01h-.01l-.02-.01-.23.21c-.15.15-.2-.09-.27-.16a.02.02 0 0 0-.02 0l-.01.02a.94.94 0 0 0 .2.54h.08a.03.03 0 0 1 .02 0 .03.03 0 0 1 0 .03Zm-.9-.03c-.08.14-.26.39-.13.53 0 .02.02.02.03.02.13-.04.93-.57.55-.7-.22-.07-.3-.26-.46-.4l-.01-.01h-.02a1.87 1.87 0 0 0-.46.56v.01h.04l.17-.13h.04v.01a.03.03 0 0 1 .01.04l-.05.08a.03.03 0 0 0 0 .03l.02.01h.02l.21-.09a.03.03 0 0 1 .04 0v.04Zm3.51.3v-.04l-.18-.58c0-.02-.02-.02-.03 0a.91.91 0 0 0-.14 1.07c0 .01.01.02.02 0 .12-.1.28-.38.33-.45Zm1.63-.51c.07.35.2.65.6.7l.02-.01c.02-.18-.15-.37-.2-.55-.02-.12-.27-.15-.4-.16-.01 0-.02 0-.02.02Zm-1.4.6c.03.04.15.01.18.05.08.1.11.25.21.35l.05.02a.1.1 0 0 1 .09.07c0 .01 0 .02.02.03l.14.1a.02.02 0 0 0 .02-.03l-.12-.2a.03.03 0 0 1 0-.04.03.03 0 0 1 .03 0l.08.02c.02.01.03 0 .03-.01 0-.16-.14-.27-.26-.38l-.3-.33a.02.02 0 0 0-.02 0c-.12.08-.28.16-.15.34Zm-3.46.29h.01v.01l.01.01v.01l-.16.27a.02.02 0 0 0 .01.02h.01a2.38 2.38 0 0 0 .67-.67l-.01-.02-.2-.22c-.02-.02-.03-.02-.04 0-.07.13-.18.27-.34.4-.07.06-.12.15-.13.28 0 .02 0 .02.02.01l.12-.1h.03Zm1.71-.52c-.16.16-.18.3-.11.52.06.19.12.39.26.53h.03c.27-.4-.02-.64-.12-1 0-.03-.01-.04-.02-.04l-.02-.01h-.02Zm3.42.6.07.03a.02.02 0 0 0 .02-.01.02.02 0 0 0 0-.02c-.13-.23-.3-.5-.66-.57a.01.01 0 0 0-.01 0 .01.01 0 0 0 0 .01c.08.4.22.7.62.83.02 0 .03 0 .02-.03l-.1-.2a.03.03 0 0 1 0-.03.03.03 0 0 1 .04 0Zm-5.7-.57c-.28.04-.48.29-.62.54a.07.07 0 0 0 .01.08c.05.05.07.1.06.17 0 .02 0 .02.02.02.34-.15.53-.4.56-.78 0-.02 0-.03-.02-.03Zm1.66.18c-.03-.02-.05-.01-.05.02-.05.24.08.45.28.64h.02c.25-.28-.07-.55-.22-.78-.02-.02-.03-.02-.04.01l-.01.04v.02l.04.03a.02.02 0 0 1 0 .03h-.02Zm1.48.01a1.59 1.59 0 0 0-.3.46v.02l.1.27c.01.02.02.02.04 0 .14-.23.3-.46.19-.74 0-.02-.02-.02-.03 0Zm1.3 1.04a.04.04 0 0 0 .04 0 .04.04 0 0 0 .02-.04c.02-.32-.44-.89-.52-.83 0 .02-.17.05-.23.18a.05.05 0 0 0 0 .06c.28.3.53.54.68.63Zm-2.98-.73c-.03-.1-.17-.2-.25-.25l-.04.01-.39.47a.08.08 0 0 0 0 .09l.03.06v.03l-.01.02-.12.1a.04.04 0 0 0-.02.04v.12a.04.04 0 0 0 .05.04h.02c.29-.18.47-.4.72-.7v-.03Zm-1.4.03a.77.77 0 0 0-.36.7c0 .01 0 .02.02.01.36-.12.54-.37.55-.76a.02.02 0 0 0-.01-.02h-.02c-.04.06-.08.07-.14.06h-.03Zm5.3.46.07.01h.02v-.02c-.11-.24-.23-.48-.52-.5l-.02.01c-.02.4.17.65.55.74h.01a.02.02 0 0 0 0-.02l-.13-.18a.03.03 0 0 1 0-.03.03.03 0 0 1 .02 0Zm-1.96-.16-.1-.07a.05.05 0 0 0-.05 0l-.01.01c-.2.3-.15.5-.12.94a19.17 19.17 0 0 0 .9 4.6l.01.02c.03.01.04 0 .05-.03.1-1.19.1-2.38 0-3.57-.04-.58-.2-1.16-.31-1.73l-.02-.03-.03-.01-.01-.03c.03-.1.03-.2 0-.3 0-.01-.01-.02-.03 0l-.24.2h-.04Zm-1.51.23-.3-.33a.03.03 0 0 0-.03 0l-.01.02c-.52 1.8-.55 3.66-.35 5.5 0 .05.02.05.03.01a17.58 17.58 0 0 0 .91-5.37h-.03l-.11.16a.07.07 0 0 1-.11 0Zm-1.95 4.12.06.03c.02 0 .03 0 .04-.02a17.12 17.12 0 0 0 1.33-4.32c0-.04 0-.04-.04-.01-.15.18-.33.33-.54.45-.12.07-.23.07-.3.2a2.6 2.6 0 0 0-.28.74c-.18.96-.28 1.91-.31 2.86 0 .03 0 .05.04.07Zm2.49-3.9-.1-.07a.04.04 0 0 0-.06.03c-.06.5-.09 1-.09 1.51 0 1.06.07 2.11.21 3.15.05.35.12.69.22 1.01.02.08.04.08.05 0a18.2 18.2 0 0 0 .38-3.97c-.04-.04-.04-.09.01-.12.02-.01.02-.02.02-.04l-.09-1.55v-.01a.98.98 0 0 1-.23-.34h-.01a.02.02 0 0 0-.02 0l-.23.38a.04.04 0 0 1-.03.02.04.04 0 0 1-.03 0Zm2.19-.35c0 .32.1.44.4.49.02 0 .02 0 .02-.02l-.06-.27a.07.07 0 0 0-.02-.04.56.56 0 0 0-.33-.17l-.01.01Zm-4.12 0c-.26.03-.38.22-.38.47 0 .01 0 .02.02.02.18-.03.52-.25.38-.48a.03.03 0 0 0-.02-.01Zm4.81 4.5a.02.02 0 0 0 .04 0v-.01a22.82 22.82 0 0 0-.26-2.89 3.55 3.55 0 0 0-.4-1.12.1.1 0 0 0-.04-.02c-.35-.05-.51-.24-.76-.46-.03-.03-.04-.02-.03.01.4 1.75.53 2.52 1.45 4.48Zm-5.76-4.48c-.27.04-.55.26-.43.57 0 .01.01.02.02 0 .2-.16.4-.26.43-.55v-.01a.02.02 0 0 0-.02-.01Zm6.03.01c.04.26.23.45.45.55.02.01.03 0 .03-.01-.02-.17.01-.3-.15-.43a.7.7 0 0 0-.3-.13c-.02 0-.03 0-.03.02Zm-7.07 1.81c.25-.38.55-.7.77-1.11a.07.07 0 0 0-.02-.1h-.04c-.06.01-.14.07-.2.1a.03.03 0 0 1-.03-.01v-.01l-.01-.01v-.39a.03.03 0 0 0-.03 0c-.07.03-.13.05-.18.13l-.64 1.13c-.22.42-1.1 0-1.4-.16-.08-.05-.15-.05-.21.02a.05.05 0 0 0-.01.04l.03.18a.03.03 0 0 1-.01.02l-.01.01h-.02c-.15 0-.3 0-.43-.02-.15 0-.16.06-.18.2 0 .07.03.12.11.14.44.1 1.02.01 1.5.03a.04.04 0 0 1 .03.02.04.04 0 0 1 0 .04c-.03.04-.08.07-.14.08a3.28 3.28 0 0 0-.61.17l-.01.02-.03.2c0 .03 0 .04.02.04.1.02.2 0 .3-.04.06-.03.11-.01.18-.03.53-.19.96-.34 1.47-.28.17.01.2-.18.05-.25a2.84 2.84 0 0 1-.25-.13v-.03Zm7.9-1.2.04-.07v-.04a.4.4 0 0 0-.24-.23h-.02a.04.04 0 0 0-.03.02v.02l.03.31a.06.06 0 0 1-.03.06.06.06 0 0 1-.06 0l-.2-.09c-.02 0-.03 0-.02.02a.7.7 0 0 0 .11.32c.21.3.43.58.65.86.03.03.02.05-.01.06-.1.06-.4.14-.3.32a.08.08 0 0 0 .08.04c.85-.1.93.28 1.98.37.01 0 .02 0 .02-.02V40a.04.04 0 0 0-.03-.04c-.2-.1-.44-.13-.67-.19-.1-.02-.1-.06-.02-.11.01-.01.06-.02.13-.02.41.01.97.07 1.37-.04a.07.07 0 0 0 .05-.07v-.22s0-.02-.02-.02c-.19-.03-.36 0-.55.02a.05.05 0 0 1-.04-.01v-.05l.03-.16-.01-.03c-.05-.08-.13-.09-.2-.04-.3.17-1.2.59-1.43.17-.14-.28-.3-.55-.45-.82-.04-.06-.08-.09-.13-.09-.02 0-.03 0-.02-.02Zm-6.43-.28c-.15.03-.6.13-.56.37 0 .05.03.07.08.04.16-.07.49-.18.5-.4l-.02-.01Zm5.22 0c0 .26.36.38.55.42.01 0 .02 0 .02-.02-.03-.3-.33-.32-.55-.4h-.02Zm-6.2 1.6c.19.1.31.16.37.4h.02l.15-.24v-.04c-.01-.06.01-.1.08-.1a.04.04 0 0 0 .03-.02 13.66 13.66 0 0 0 .7-1.4c-.13.05-.28.07-.44.07h-.03c-.11.08-.18.16-.31.2-.14.06-.29.08-.34.24a31.75 31.75 0 0 0-.28.84l.05.05Zm6.87-.97a.27.27 0 0 1-.1-.09.05.05 0 0 0-.03-.02c-.13-.04-.2-.05-.32-.14a.57.57 0 0 0-.48-.11v.02a8.65 8.65 0 0 0 .87 1.6c.1-.15.25-.25.42-.31.05-.02.07-.06.05-.12-.07-.25-.22-.71-.41-.83Zm-7.2.8a.03.03 0 0 0 0 .03l.11.06a.03.03 0 0 0 .02 0 .03.03 0 0 0 .02-.01l.11-.33a.03.03 0 0 0 0-.03h-.04l-.22.27Zm10.75-.1-.03.08.01.01a1 1 0 0 0 .17.04h.08c0-.02-.02-.04-.06-.06-.04-.03-.1-.05-.16-.07h-.01Zm-2.65 2.02h.04v-.02l-.25-.97-.01-.01-.02-.01c-.06-.02-.07-.06-.03-.1v-.05c-.06-.4-.63-.17-.43.18a12.24 12.24 0 0 0 .7.98Zm-7.73-1.3c-.1-.1-.23-.1-.28.06a9.2 9.2 0 0 0-.28 1.24 8.97 8.97 0 0 0 .7-1.03.45.45 0 0 0-.14-.27Zm9.5.03c.04.1.2.17.29.2v-.01h.01v-.02a.45.45 0 0 0-.25-.21h-.02a.04.04 0 0 0-.02.04Z" fill="rgb(91, 91, 90)"/>
<path d="M31.22 27.8c0-.2-.27-.29-.4-.3-.2.08-.27.37-.16.52.12.14.56.04.56-.22ZM33.54 28.52c-.52-.11-.78-.38-.85-.5-.18.37.47.55.55.61.06.05-.03.1-.08.12.04.16-.01.14-.05.3-.02.14.07.1.13.06.25.14.45.02.52-.05.04.13.2.23.28.26-.03-.04-.1-.18-.2-.43-.1-.24-.24-.35-.3-.37Z" fill="rgb(91, 91, 90)"/>
</svg>
