<?xml version="1.0" encoding="UTF-8"?>
<!-- generated by Finnhub -->
<svg viewBox="0 0 55.5 55.5" xmlns="http://www.w3.org/2000/svg">
<path d="M0 0h55.5v55.5H0z" fill="rgb(239, 242, 248)"/>
<path d="M35.84 19.2v15c.1.94-.56 2.9-3.87 3.22v3.4c2.45.24 7.3-1.12 7.16-8.37.61.55 2.44 1.59 4.9 1.3 3.06-.38 6.44-3.5 5.73-7.33l-2.98.74c.05 1.09-.67 3.29-3.87 3.36-3.2.07-4-3-4-4.56.04-1.18.9-3.56 4-3.63.86-.02 2.79.37 3.6 2.02l2.9-.87c-.76-2.38-3.92-6.33-10.5-3.13V19.2h-3.07Zm-29.7 6.01v12.51h3.14V26.18c-.06-1.29.61-3.88 3.8-3.88s3.96 2.42 3.89 3.88c-.23 4.5-4.03 4.27-5.9 3.6v3.39a5.97 5.97 0 0 0 6.18-.73v1.36h7.03c2.7-.35 3.44-2.83 3.47-4.03 1.87 3.34 4.93 4.07 6.23 4.03v-3.25c-3-.47-3.78-2.56-3.8-3.54v-7.76h-3.04v7.51c-.23-.46-1.25-.97-1.74-1.16l-5.06-2.13c-.75-.78.07-1.1.57-1.17h2.2v-3.05h-2.77c-1.38 0-2.45 1.03-2.8 1.55-1.47-1.28-3.74-1.57-4.7-1.55-5.36.23-6.7 4.07-6.7 5.96Zm17.84 3.36-4.05-1.3a3.52 3.52 0 0 1-.9 3h4.4c1.5-.48 1-1.34.55-1.7Z" fill="url(#a)" fill-rule="evenodd"/>
<path d="M46.28 19.96c-1.66-.87-4.05-1.06-7.3.53l-.21.1v-1.24H36v14.84a2.7 2.7 0 0 1-.71 1.95c-.58.66-1.69 1.23-3.29 1.42v3.13c1.2.08 3.02-.22 4.43-1.36 1.46-1.18 2.63-3.29 2.56-6.87v-.34l.24.22A6.39 6.39 0 0 0 44 33.59a6.88 6.88 0 0 0 4.2-2.31 5.7 5.7 0 0 0 1.43-4.67l-2.71.67c0 .57-.2 1.36-.76 2.04-.6.73-1.62 1.31-3.25 1.35a3.61 3.61 0 0 1-3.33-1.74 5.85 5.85 0 0 1-.82-2.97 4.1 4.1 0 0 1 .89-2.32 4.1 4.1 0 0 1 3.25-1.46c.45 0 1.16.09 1.87.4.69.3 1.37.8 1.8 1.6l2.64-.8a6.28 6.28 0 0 0-2.94-3.42Zm.13-.27a6.57 6.57 0 0 1 3.13 3.74l.05.15-3.15.95-.05-.1a3.34 3.34 0 0 0-1.72-1.58 4.47 4.47 0 0 0-1.76-.37c-1.5.03-2.45.63-3.03 1.35a3.8 3.8 0 0 0-.83 2.14c0 .75.2 1.88.78 2.8a3.33 3.33 0 0 0 3.08 1.6c1.57-.04 2.5-.59 3.04-1.25a3 3 0 0 0 .69-1.95v-.13l3.23-.8.03.16a5.98 5.98 0 0 1-1.48 5.08 6.86 6.86 0 0 1-9.14 1.28c0 3.48-1.17 5.59-2.67 6.8a6.95 6.95 0 0 1-4.79 1.42l-.13-.02V37.3l.13-.02c1.63-.16 2.72-.72 3.25-1.33.54-.62.67-1.3.63-1.72V19h3.35v1.12c3.22-1.51 5.64-1.32 7.36-.43Zm-33.56-.3c-2.64.12-4.28 1.12-5.26 2.32a5.76 5.76 0 0 0-1.3 3.5v12.37h2.85v-11.4c-.03-.67.13-1.67.7-2.5.6-.86 1.6-1.53 3.24-1.53 1.63 0 2.67.63 3.28 1.45.61.82.8 1.83.75 2.6-.05 1.13-.34 2-.78 2.62a3.27 3.27 0 0 1-1.65 1.23c-1.17.41-2.52.23-3.47-.07v3.09a5.82 5.82 0 0 0 5.95-.74l.23-.22v1.54h6.88a3.55 3.55 0 0 0 2.62-1.63c.51-.79.7-1.68.71-2.25l.02-.53.25.46c1.78 3.16 4.64 3.94 5.97 3.95v-2.98c-2.98-.51-3.78-2.62-3.8-3.66H30V19.4h-2.72v7.36l-.27.07c-.04-.09-.13-.2-.26-.3a6.96 6.96 0 0 0-1.4-.79l-5.09-2.15-.02-.02c-.2-.2-.31-.4-.34-.58a.56.56 0 0 1 .15-.47c.1-.12.26-.2.4-.26.15-.05.3-.09.44-.1h2.07V19.4h-2.62a3.1 3.1 0 0 0-1.71.56c-.47.3-.81.68-.98.93l-.1.13-.11-.1c-.71-.63-1.62-1.01-2.48-1.24a8.29 8.29 0 0 0-2.11-.28Zm4.66 1.2a6.57 6.57 0 0 0-2.48-1.2c-.88-.23-1.7-.3-2.19-.3-2.72.13-4.43 1.16-5.47 2.42A6.07 6.07 0 0 0 6 25.21V38h3.43V26.18c-.03-.63.12-1.56.65-2.34.53-.76 1.45-1.39 3-1.39s2.5.59 3.05 1.33c.56.76.73 1.69.7 2.4a4.64 4.64 0 0 1-.73 2.46c-.4.57-.93.93-1.51 1.13-1.17.4-2.56.2-3.48-.14l-.19-.07v3.7l.09.04a5.98 5.98 0 0 0 5.99-.55V34h7.3a3.88 3.88 0 0 0 2.83-1.82c.43-.65.64-1.37.72-1.95 1.92 3.07 4.85 3.76 6.13 3.72l.14-.01v-3.52L34 30.4c-2.92-.45-3.66-2.48-3.67-3.4v-8H27v7.35l-.07-.05a7.23 7.23 0 0 0-1.47-.84l-5.04-2.12c-.16-.17-.22-.3-.23-.4a.25.25 0 0 1 .07-.22.78.78 0 0 1 .3-.18c.11-.04.24-.07.35-.09h2.34V19h-2.9c-.74 0-1.38.37-1.88.7-.42.29-.76.63-.96.89Zm2.25 6.46 4.29 1.38.02.02c.12.1.25.23.34.39a1 1 0 0 1 .17.54c0 .42-.34.79-1.1 1.04h-4.83l.29-.26a3.37 3.37 0 0 0 .85-2.87l-.03-.23Zm.34.43a3.78 3.78 0 0 1-.73 2.65h4.04c.72-.24.88-.54.88-.76a.7.7 0 0 0-.12-.37 1.34 1.34 0 0 0-.26-.3l-3.8-1.22Z" fill="rgb(143, 160, 231)" fill-rule="evenodd"/>
<defs>
<linearGradient id="a" x1="6.14" x2="49.86" y1="28.64" y2="28.58" gradientUnits="userSpaceOnUse">
<stop stop-color="rgb(173, 189, 247)" offset="0"/>
<stop stop-color="rgb(211, 210, 253)" offset=".25"/>
<stop stop-color="rgb(202, 230, 253)" offset=".44"/>
<stop stop-color="rgb(166, 195, 250)" offset=".59"/>
<stop stop-color="rgb(212, 204, 250)" offset=".77"/>
<stop stop-color="rgb(204, 231, 251)" offset=".87"/>
<stop stop-color="rgb(156, 174, 249)" offset="1"/>
</linearGradient>
</defs>
</svg>
