<?xml version="1.0" encoding="UTF-8"?>
<!-- generated by Finnhub -->
<svg viewBox="0 0 55.5 55.5" xmlns="http://www.w3.org/2000/svg">
<path d="M 0,0 H 55.5 V 55.5 H 0 Z" fill="rgb(239, 242, 248)"/>
<path d="M 35.39,12.965 L 35.67,13.08 C 35.76,13.13 35.75,13.14 35.65,13.13 C 31.02,12.73 26.21,14.19 22.33,16.78 C 17.87,19.76 12.77,24.75 12.33,30.64 V 30.66 H 12.29 L 12.28,30.64 A 14.5,14.5 0 0,1 13.78,20.77 C 18.02,13.02 27.58,10.36 35.4,12.98 Z" fill="rgb(2, 51, 79)"/>
<path d="M 35.120000000000005,13.405 C 35.9,13.45 37.03,13.51 37.68,13.96 C 37.75,14 37.74,14.02 37.67,14.02 C 26.88,13.72 19.03,26.08 18.55,36.1 A 9.07,9.07 0 0,0 20.03,41.62 L 20.02,41.64 H 19.97 A 20.07,20.07 0 0,1 12.64,32.12 A 1.75,1.75 0 0,1 12.62,31.6 C 12.8,27.23 15.2,23.73 18.16,20.77 C 22.68,16.25 28.74,13.17 35.13,13.42 Z" fill="rgb(4, 82, 128)"/>
<path d="M 21.79,42.445 C 20.69,41.98 20.1,40.82 19.69,39.7 C 18.86,37.46 19.04,34.5 19.59,32.2 C 21.61,23.62 28.29,13.8 37.96,14.48 C 38.07,14.49 38.36,14.58 38.47,14.65 C 41.85,16.75 44.23,19.91 43.98,24.19 C 43.98,24.21 43.98,24.22 43.96,24.23 A 0.06,0.06 0 0,1 43.92,24.25 L 43.88,24.24 A 5.8,5.8 0 0,0 36.51,15.66 C 30.47,15.26 27.12,19.76 25.95,25.38 C 25.19,29.08 25.42,32.74 26.65,36.33 A 9.97,9.97 0 0,0 32.42,42.61 C 32.94,42.83 33.62,42.99 34.22,43.15 C 34.32,43.17 34.32,43.2 34.22,43.22 C 29.99,44.47 25.85,44.22 21.81,42.46 Z" fill="rgb(1, 161, 105)"/>
<path d="M 26.259999999999998,32.185 C 29.11,36.85 34.87,38.07 39.75,37.96 A 7.87,7.87 0 0,0 42.99,37.16 C 43.05,37.13 43.06,37.15 43.02,37.2 A 16.5,16.5 0 0,1 35.52,42.75 C 35.2,42.87 35.03,42.95 34.68,42.87 C 29.15,41.57 27,37.65 26.21,32.23 C 26.2,32.12 26.21,32.11 26.27,32.2 Z" fill="rgb(0, 127, 83)"/>
</svg>
