<?xml version="1.0" encoding="UTF-8"?>
<!-- generated by Finnhub -->
<svg viewBox="0 0 55.5 55.5" xmlns="http://www.w3.org/2000/svg">
<path d="M 0,0 H 55.5 V 55.5 H 0 Z" fill="rgb(239, 242, 248)"/>
<path d="M 49.660000000000004,31.275 H 46.32 L 45.77,33 H 44 L 47.02,24 H 48.98 L 52,33 H 50.22 L 49.67,31.29 Z M 49.21,29.85 L 47.99,26.09 L 46.78,29.85 H 49.21 Z M 44.5,24 V 25.46 H 42 V 33 H 40 V 25.46 H 37.5 V 24 H 44.5 Z M 37,24 V 25.46 H 34.5 V 33 H 32.5 V 25.46 H 30 V 24 H 37 Z M 26,25.47 V 27.72 H 28.63 V 29.15 H 26 V 31.53 H 29 V 33 H 24 V 24 H 29 V 25.47 H 26 Z M 17,24 V 29.51 C 17,30.71 17.71,31.38 18.99,31.38 C 20.28,31.38 21,30.72 21,29.51 V 24 H 23 V 29.5 C 23,31.77 21.06,33 18.96,33 C 16.85,33 15,31.75 15,29.5 V 24 H 17 Z M 11.61,35 L 10.15,33.32 A 5.26,5.26 0 0,1 6.45,32.86 A 4.62,4.62 0 0,1 4,28.73 A 4.62,4.62 0 0,1 6.45,24.61 C 7.2,24.21 8.02,24 8.92,24 C 9.82,24 10.65,24.2 11.39,24.6 C 12.14,25.01 12.73,25.58 13.16,26.3 C 13.6,27.02 13.82,27.83 13.82,28.73 A 4.67,4.67 0 0,1 11.8,32.62 L 14,35 H 11.61 Z M 5.98,28.73 C 5.98,29.34 6.1,29.89 6.35,30.35 C 6.6,30.82 6.94,31.18 7.38,31.44 C 7.83,31.69 8.34,31.81 8.92,31.81 A 2.67,2.67 0 0,0 11.47,30.35 C 11.72,29.89 11.84,29.35 11.84,28.73 C 11.84,28.11 11.72,27.57 11.47,27.11 C 11.23,26.64 10.88,26.29 10.44,26.04 A 3.06,3.06 0 0,0 8.92,25.67 C 8.34,25.67 7.82,25.79 7.38,26.04 C 6.94,26.29 6.6,26.64 6.35,27.11 C 6.1,27.57 5.98,28.11 5.98,28.73 Z"/>
</svg>
