<?xml version="1.0" encoding="UTF-8"?>
<!-- generated by Finnhub -->
<svg viewBox="0 0 55.5 55.5" xmlns="http://www.w3.org/2000/svg">
<path d="M 0,0 H 55.5 V 55.5 H 0 Z" fill="rgb(239, 242, 248)"/>
<path d="M 9.99,17.985 H 20 V 21 H 13 V 24 H 20 V 27 H 13 V 33 H 10 V 18 Z M 27.28,31 C 25.77,31 24.42,30.17 24,29 H 21 C 21.49,31.48 23.47,33 27.03,33 C 30.95,33 33,31.18 33,28.5 C 33,26.42 32.05,24.85 27.76,23.85 C 25.39,23.31 24.5,22.99 24.5,22 C 24.5,21 25.63,20 27.28,20 C 28.94,20 29.85,21.13 30,22 H 33 C 32.79,19.85 31.22,18 27.28,18 C 23.78,18 21.5,19.72 21.5,22.3 C 21.5,24.06 22.41,25.72 26.46,26.66 C 28.95,27.23 30,27.83 30,29 C 30,30.04 28.94,31 27.28,31 Z M 39.96,18 H 34 V 33 H 39.83 C 44.27,33 47,29.71 47,25.34 C 47,20.91 44.18,18 39.96,18 Z"/>
<path d="M 40.13,21.544999999999998 C 39.92,21.96 39.97,22.46 40.24,22.8 A 2.01,2.01 0 0,1 40.7,24.03 A 9.89,9.89 0 0,0 41.24,26.86 A 0.2,0.2 0 0,1 41.17,27.08 A 0.2,0.2 0 0,1 40.92,27.08 A 6.32,6.32 0 0,1 38.94,23.56 A 0.33,0.33 0 0,1 39.06,23.24 A 0.77,0.77 0 0,0 39.22,22.19 A 0.7,0.7 0 0,0 38.22,22.03 A 0.77,0.77 0 0,0 37.98,22.93 C 38.02,23.03 38.01,23.15 37.94,23.24 L 37.64,23.64 A 0.57,0.57 0 0,1 37.21,23.86 A 0.56,0.56 0 0,0 36.68,24.46 C 36.69,24.77 36.95,25 37.25,25 C 37.55,25 37.79,24.73 37.78,24.41 A 0.6,0.6 0 0,0 37.76,24.3 A 0.6,0.6 0 0,1 37.86,23.8 L 38.12,23.46 A 0.3,0.3 0 0,1 38.44,23.36 C 38.56,23.38 38.64,23.48 38.67,23.6 A 6.62,6.62 0 0,0 40.79,27.34 C 40.85,27.39 40.87,27.48 40.85,27.56 C 40.71,28.05 40.97,28.56 41.45,28.71 A 0.88,0.88 0 0,0 42.55,28.1 A 0.93,0.93 0 0,0 41.96,26.94 A 0.86,0.86 0 0,0 41.69,26.9 A 0.19,0.19 0 0,1 41.52,26.77 A 9.66,9.66 0 0,1 40.98,24.05 A 1,1 0 0,1 41.52,23.09 C 42.04,22.82 42.26,22.17 42.01,21.62 A 1.1,1.1 0 0,0 41.01,21 A 1.05,1.05 0 0,0 40.13,21.56 Z" fill="url(#b)"/>
<path d="M 36.85,27.415 A 1,1 0 0,0 37.96,26.93 A 1.92,1.92 0 0,1 38.94,26.11 A 8.97,8.97 0 0,0 41.37,24.69 A 0.18,0.18 0 0,1 41.59,24.69 C 41.67,24.75 41.69,24.85 41.66,24.95 A 6.3,6.3 0 0,1 39.06,28 A 0.3,0.3 0 0,1 38.72,27.98 A 0.7,0.7 0 0,0 37.72,28.15 C 37.49,28.49 37.56,28.95 37.89,29.2 C 38.16,29.4 38.52,29.38 38.78,29.16 A 0.3,0.3 0 0,1 39.08,29.1 L 39.52,29.26 C 39.69,29.33 39.82,29.46 39.87,29.63 C 39.95,29.86 40.17,30 40.38,30 C 40.45,30 40.51,30 40.58,29.97 A 0.58,0.58 0 0,0 40.9,29.23 A 0.54,0.54 0 0,0 40.1,28.95 A 0.54,0.54 0 0,1 39.61,28.99 L 39.22,28.85 A 0.31,0.31 0 0,1 39.02,28.56 C 39.02,28.44 39.08,28.32 39.18,28.26 A 6.34,6.34 0 0,0 41.94,24.99 A 0.2,0.2 0 0,1 42.12,24.86 C 42.62,24.85 43.01,24.42 43,23.91 A 0.92,0.92 0 0,0 42.08,23 A 0.91,0.91 0 0,0 41.21,23.95 C 41.21,24.05 41.23,24.14 41.26,24.23 A 0.2,0.2 0 0,1 41.19,24.44 A 8.88,8.88 0 0,1 38.87,25.82 A 0.95,0.95 0 0,1 37.83,25.59 A 1.02,1.02 0 0,0 36.33,25.55 A 1.2,1.2 0 0,0 36,26.38 A 1.1,1.1 0 0,0 36.86,27.43 Z" fill="url(#a)"/>
<path d="M 12.78,36.685 C 13.29,36.7 13.62,36.38 13.62,35.85 S 13.29,35 12.79,35 H 10.05 A 0.06,0.06 0 0,0 10,35.06 V 37.95 C 10,37.98 10.03,38 10.06,38 H 10.21 C 10.24,38 10.26,37.97 10.26,37.94 V 36.69 H 12.79 Z M 12.79,35.26 C 13.17,35.26 13.36,35.45 13.36,35.86 C 13.36,36.26 13.16,36.46 12.79,36.46 H 10.26 V 35.26 H 12.79 Z M 16.58,35.06 A 0.06,0.06 0 0,0 16.53,35 H 16.39 A 0.06,0.06 0 0,0 16.32,35.05 V 37.94 C 16.32,37.97 16.34,37.99 16.37,38 H 16.52 C 16.55,38 16.58,37.98 16.58,37.95 V 36.7 H 19.74 V 37.95 C 19.74,37.98 19.76,38 19.79,38.01 H 19.94 C 19.97,38.01 19.99,37.99 20,37.96 V 35.06 A 0.06,0.06 0 0,0 19.95,35 H 19.81 A 0.06,0.06 0 0,0 19.74,35.05 V 36.45 H 16.58 V 35.06 Z M 26.78,38 C 26.82,38 26.86,37.98 26.83,37.93 L 24.98,35.07 C 24.95,35.02 24.94,35 24.9,35 H 24.76 C 24.72,35 24.71,35.02 24.68,35.07 L 22.83,37.93 C 22.8,37.98 22.83,38 22.87,38 H 23.07 C 23.1,38 23.11,37.99 23.13,37.95 L 23.14,37.93 L 23.64,37.15 H 26.01 L 26.51,37.93 V 37.95 C 26.54,37.98 26.55,38 26.58,38 H 26.78 Z M 24.83,35.3 L 25.85,36.9 H 23.8 L 24.83,35.3 Z M 33,37.24 A 0.76,0.76 0 0,0 32.66,36.56 C 32.86,36.42 32.98,36.17 32.98,35.85 C 32.98,35.32 32.68,35 32.19,35 H 29.61 A 0.05,0.05 0 0,0 29.56,35.06 V 37.95 C 29.56,37.98 29.59,38 29.62,38 H 29.76 C 29.79,38 29.81,37.97 29.8,37.94 V 36.69 H 32.24 C 32.54,36.69 32.76,36.85 32.76,37.25 V 37.94 C 32.76,37.98 32.79,38 32.82,38 H 32.94 C 32.98,38 33,37.97 33,37.94 V 37.24 Z M 32.2,35.24 C 32.55,35.24 32.74,35.44 32.74,35.84 C 32.74,36.25 32.55,36.44 32.2,36.44 H 29.8 V 35.24 H 32.2 Z M 39.85,35 H 39.64 C 39.59,35 39.58,35.02 39.55,35.06 L 37.83,37.69 L 36.11,35.06 C 36.09,35.02 36.07,35 36.03,35 H 35.81 A 0.06,0.06 0 0,0 35.75,35.05 V 37.94 C 35.75,37.97 35.77,37.99 35.8,38 H 35.94 C 35.97,38 36,37.98 36.01,37.95 V 35.4 L 37.69,37.95 C 37.72,37.99 37.74,38.01 37.77,38.01 H 37.89 C 37.93,38.01 37.95,37.99 37.97,37.95 L 39.66,35.4 V 37.95 C 39.66,37.98 39.67,38 39.7,38.01 H 39.85 C 39.88,38.01 39.91,37.99 39.91,37.96 V 35.06 A 0.06,0.06 0 0,0 39.87,35 H 39.85 Z M 45.94,38 C 45.98,38 46.02,37.98 45.99,37.93 L 44.15,35.07 C 44.13,35.02 44.11,35 44.07,35 H 43.94 C 43.9,35 43.88,35.02 43.85,35.07 L 42.01,37.93 C 41.98,37.98 42.01,38 42.06,38 H 42.26 C 42.29,38 42.3,37.99 42.31,37.96 L 42.33,37.93 L 42.83,37.15 H 45.17 L 45.67,37.93 V 37.95 C 45.7,37.98 45.71,38 45.75,38 H 45.94 Z M 44,35.3 L 45.02,36.9 H 42.98 L 44,35.3 Z"/>
<defs>
<linearGradient id="b" x1="37.69" x2="48.27" y1="21.55" y2="30.7" gradientUnits="userSpaceOnUse">
<stop stop-color="rgb(254, 169, 48)" offset="0"/>
<stop stop-color="rgb(171, 80, 157)" offset=".52"/>
<stop stop-color="rgb(143, 43, 136)" offset="1"/>
</linearGradient>
<linearGradient id="a" x1="37.61" x2="43.62" y1="29.87" y2="16.93" gradientUnits="userSpaceOnUse">
<stop stop-color="rgb(63, 195, 240)" offset="0"/>
<stop stop-color="rgb(35, 118, 181)" offset=".54"/>
<stop stop-color="rgb(39, 65, 140)" offset="1"/>
</linearGradient>
</defs>
</svg>
