<?xml version="1.0" encoding="UTF-8"?>
<!-- generated by Finnhub -->
<svg viewBox="0 0 55.5 55.5" xmlns="http://www.w3.org/2000/svg">
<path d="M 0,0 H 55.5 V 55.5 H 0 Z" fill="rgb(1, 203, 151)"/>
<path d="M 42.99,22.425 V 34.96 C 43,35.6 42.64,36 42,36 S 41,35.6 41,34.96 V 22.16 C 41,21.59 40.7,21.06 40.2,20.77 L 28.85,14.22 A 1.63,1.63 0 0,0 28.05,14 C 27.76,14 27.48,14.08 27.23,14.22 L 15.83,20.77 C 15.33,21.06 15,21.59 15,22.17 V 33.95 C 15,34.53 15.33,35.05 15.82,35.35 L 27.2,41.79 C 27.44,41.93 27.7,41.99 27.97,42 C 28.28,42 28.59,41.93 28.87,41.76 L 34.29,38.26 C 34.76,37.97 35,37.46 35,36.91 V 25.6 C 35,25.03 34.75,24.5 34.27,24.22 L 28.87,21.26 C 28.37,20.96 27.72,20.96 27.2,21.26 L 21.85,24.22 C 21.36,24.51 21,25.02 21,25.59 V 30.54 C 21,31.11 21.38,31.64 21.88,31.93 L 24.55,33.46 C 25.09,33.76 25.28,34.46 24.96,34.99 C 24.64,35.53 23.94,35.71 23.4,35.39 L 20.72,33.76 C 19.42,32.96 19,31.56 19,30.05 V 25.95 C 19,24.4 19.45,22.98 20.79,22.19 L 25.81,19.61 C 27.18,18.81 28.89,18.81 30.27,19.61 L 35.24,22.19 C 36.57,23 37,24.4 37,25.94 V 36.82 C 37,38.37 36.55,39.81 35.2,40.59 L 30.24,43.42 A 4.42,4.42 0 0,1 25.84,43.41 L 15.18,37.25 A 4.34,4.34 0 0,1 13,33.49 V 22.45 C 13,20.89 13.84,19.45 15.2,18.68 L 25.84,12.58 A 4.42,4.42 0 0,1 30.24,12.58 L 40.82,18.68 A 4.34,4.34 0 0,1 43,22.44 Z" fill="rgb(254, 254, 253)"/>
</svg>
