<?xml version="1.0" encoding="UTF-8"?>
<!-- generated by Finnhub -->
<svg viewBox="0 0 55.5 55.5" xmlns="http://www.w3.org/2000/svg">
<path d="M 0,0 H 55.5 V 55.5 H 0 Z" fill="rgb(239, 242, 248)"/>
<path d="M 40.99,27.985 C 41,26.03 39.91,24.13 38.54,22.74 A 7.3,7.3 0 0,0 33.34,20.55 H 32.3 A 4.38,4.38 0 0,1 28,16.2 V 15 H 33.34 C 35.59,15 37.79,15.6 39.74,16.73 A 12.92,12.92 0 0,1 44.42,21.46 A 4.38,4.38 0 0,1 40.7,28 M 16.19,28 H 15 V 22.66 C 15,20.41 15.6,18.21 16.73,16.26 A 12.92,12.92 0 0,1 21.46,11.58 A 4.4,4.4 0 0,1 23.64,11 C 25.76,11 28,12.77 28,15 C 26.03,15 24.13,16.08 22.74,17.46 A 7.3,7.3 0 0,0 20.55,22.66 V 23.7 C 20.55,26.06 18.55,28 16.19,28 Z M 15,28 C 15,29.98 16.08,31.87 17.46,33.26 A 7.3,7.3 0 0,0 22.66,35.45 H 23.7 C 26.07,35.45 28,37.46 28,39.81 V 41 H 22.66 C 20.41,41 18.21,40.4 16.26,39.27 A 12.92,12.92 0 0,1 11.58,34.54 A 4.4,4.4 0 0,1 11,32.36 C 11,30.24 12.77,28 15,28 Z" fill="rgb(127, 190, 40)"/>
<path d="M 39.800000000000004,27.985 H 41 V 33.34 C 41,35.59 40.4,37.79 39.27,39.74 A 12.92,12.92 0 0,1 34.54,44.42 A 4.4,4.4 0 0,1 32.36,45 C 30.24,45 28,43.23 28,41 C 29.98,41 31.87,39.92 33.27,38.54 A 7.3,7.3 0 0,0 35.45,33.34 V 32.3 C 35.45,29.94 37.46,28 39.81,28 Z" fill="rgb(127, 190, 40)"/>
<path d="M 25.16,25.155 A 4,4 0 1,1 30.83,30.83 A 4,4 0 0,1 25.17,25.17 Z" fill="rgb(21, 67, 55)"/>
</svg>
