<?xml version="1.0" encoding="UTF-8"?>
<!-- generated by Finnhub -->
<svg viewBox="0 0 55.5 55.5" xmlns="http://www.w3.org/2000/svg">
<path d="M 0,0 H 55.5 V 55.5 H 0 Z" fill="rgb(45, 36, 66)"/>
<path d="M 38.99,32.985 V 26 H 41 V 26.95 H 41.03 C 41.26,26.62 41.85,26 43.19,26 C 44.9,26 46,27.06 46,28.77 V 33 H 44 V 29.3 C 44,28.83 43.74,28 42.55,28 C 41.26,28 41,28.9 41,29.32 V 33 H 39 Z M 27,26 H 29.26 L 30.36,30.35 H 30.38 L 31.58,26 H 33.42 L 34.63,30.35 H 34.66 L 35.75,26 H 38 L 35.76,33 H 33.74 L 32.51,28.47 H 32.49 L 31.26,33 H 29.24 L 27,26 Z" fill="rgb(253, 253, 253)"/>
<path d="M 22.49,25.985 A 3.42,3.42 0 0,0 19,29.5 C 19,31.11 20.14,33 22.5,33 S 26,31.11 26,29.5 S 24.86,26 22.5,26 Z M 22.5,28 C 21.49,28 21,28.8 21,29.5 S 21.49,31 22.5,31 S 24,30.2 24,29.5 S 23.51,28 22.5,28 Z" fill="rgb(253, 253, 253)" fill-rule="evenodd"/>
<path d="M 16.99,23.985 V 26 H 18 V 27.5 H 17 V 33 H 15 V 27.5 H 14 V 26 H 15 V 24 H 17 Z M 28,22 V 13 H 30 V 22 H 28 Z M 27,15 V 22 H 25 V 15 H 27 Z M 27,13 V 14.5 H 25 V 13 H 27 Z M 27,37 V 44 H 25 V 37 H 27 Z M 27,35 V 36.5 H 25 V 35 H 27 Z M 24,15 V 22 H 22 V 21.07 C 21.68,21.7 20.95,22 20.2,22 C 18.18,22 17,20.37 17,18.5 C 17,16.35 18.5,15 20.2,15 C 21.25,15 21.77,15.52 22,15.92 V 15 H 24 Z M 19,18.52 C 19,19.13 19.34,20 20.5,20 C 21.69,20 22,19.13 22,18.5 C 22,17.7 21.56,17 20.48,17 C 19.39,17 19,17.77 19,18.52 Z M 24,37 V 44 H 22 V 43.07 C 21.68,43.7 20.95,44 20.2,44 C 18.18,44 17,42.37 17,40.5 C 17,38.35 18.5,37 20.2,37 C 21.25,37 21.77,37.52 22,37.92 V 37 H 24 Z M 19,40.52 C 19,41.13 19.34,42 20.5,42 C 21.69,42 22,41.13 22,40.5 C 22,39.7 21.56,39 20.48,39 C 19.39,39 19,39.77 19,40.52 Z" fill="rgb(253, 253, 253)"/>
<path d="M 13.99,41.985 H 16 V 44 H 14 Z" fill="rgb(108, 65, 251)"/>
<path d="M 19.99,11.985 C 16.69,12 14,14.66 14,17.95 V 22 H 16 V 17.95 A 4.03,4.03 0 0,1 20,14 V 12 Z" fill="rgb(253, 253, 253)"/>
<path d="M 15.99,12.885 C 15.11,13.7 14.43,14.26 14.06,15.5 H 14 V 12 H 16 V 12.9 Z" fill="rgb(253, 253, 253)"/>
</svg>
