<?xml version="1.0" encoding="UTF-8"?>
<!-- generated by Finnhub -->
<svg viewBox="0 0 55.5 55.5" xmlns="http://www.w3.org/2000/svg">
<path d="M 0,0 H 55.5 V 55.5 H 0 Z" fill="rgb(239, 242, 248)"/>
<path d="M 37.99,21.055 V 22.17 C 37.07,21.51 31.06,19.1 25.11,19.1 C 12.23,19.1 8.2,28.17 7,33 C 8.29,21.73 17.6,18 25.11,18 C 31.13,18 36.21,20.05 38,21.07 Z" fill="rgb(143, 139, 166)"/>
<path d="M 42.09,17.835 L 41.29,17.22 L 44.13,14 L 42.11,17.85 Z" fill="rgb(234, 98, 88)"/>
<path d="M 39.85,17.835 L 40.69,17.22 L 37.84,14 L 39.86,17.85 Z" fill="rgb(143, 139, 166)"/>
<path d="M 40.11,19.175 L 39.8,18.17 L 36,20 L 40.12,19.19 Z" fill="rgb(234, 98, 88)"/>
<path d="M 41.870000000000005,19.175 L 42.2,18.17 L 46,20 L 41.88,19.19 Z" fill="rgb(143, 139, 166)"/>
<path d="M 47.85,31.935 H 46.24 V 31.65 C 46.24,31.37 46.23,31.2 46.19,31.13 C 46.16,31.06 46.09,31.03 45.96,31.03 C 45.86,31.03 45.78,31.06 45.73,31.13 C 45.68,31.19 45.65,31.29 45.65,31.42 C 45.65,31.6 45.66,31.72 45.69,31.82 C 45.72,31.89 45.79,31.98 45.92,32.08 S 46.32,32.32 46.71,32.51 C 47.24,32.76 47.59,33 47.75,33.22 C 47.92,33.44 48,33.76 48,34.18 C 48,34.66 47.94,35.01 47.81,35.25 C 47.68,35.49 47.47,35.68 47.17,35.81 C 46.87,35.94 46.52,36 46.1,36 C 45.64,36 45.24,35.93 44.91,35.8 A 1.29,1.29 0 0,1 44.23,35.22 C 44.11,34.98 44.05,34.62 44.05,34.14 V 33.86 H 45.67 V 34.23 C 45.67,34.54 45.69,34.74 45.72,34.83 C 45.77,34.93 45.85,34.97 45.97,34.97 C 46.1,34.97 46.19,34.94 46.24,34.88 C 46.29,34.82 46.32,34.68 46.32,34.48 C 46.32,34.21 46.28,34.04 46.22,33.97 A 8.47,8.47 0 0,0 45.16,33.35 C 44.62,33.05 44.29,32.79 44.18,32.55 A 1.9,1.9 0 0,1 44,31.71 C 44,31.25 44.06,30.91 44.19,30.69 C 44.32,30.47 44.53,30.29 44.83,30.18 C 45.13,30.06 45.49,30 45.89,30 S 46.62,30.05 46.89,30.15 C 47.18,30.25 47.39,30.37 47.54,30.53 A 1,1 0 0,1 47.81,30.98 C 47.84,31.11 47.86,31.33 47.86,31.62 V 31.95 Z M 43,32.3 H 41.32 V 31.62 C 41.32,31.39 41.3,31.23 41.26,31.15 C 41.22,31.07 41.15,31.03 41.05,31.03 C 40.95,31.03 40.87,31.06 40.84,31.13 C 40.8,31.21 40.79,31.37 40.79,31.63 V 34.35 C 40.79,34.56 40.81,34.72 40.87,34.82 C 40.92,34.92 41,34.97 41.1,34.97 C 41.22,34.97 41.3,34.92 41.34,34.81 C 41.39,34.71 41.41,34.51 41.41,34.21 V 33.51 H 43 C 43,33.98 42.98,34.32 42.95,34.56 C 42.92,34.79 42.82,35.02 42.65,35.26 C 42.49,35.51 42.27,35.69 42,35.82 C 41.73,35.94 41.4,36 41,36 C 40.5,36 40.1,35.92 39.8,35.75 C 39.51,35.58 39.3,35.34 39.18,35.03 C 39.06,34.73 39,34.29 39,33.73 V 32.08 C 39,31.58 39.05,31.21 39.15,30.96 C 39.25,30.71 39.46,30.49 39.79,30.3 C 40.12,30.1 40.52,30 40.99,30 C 41.45,30 41.85,30.1 42.18,30.3 C 42.51,30.49 42.73,30.73 42.84,31.03 C 42.94,31.33 43,31.75 43,32.29 Z M 37.5,30 V 36 H 36 V 30 H 37.5 Z M 30.63,30 V 30.67 C 30.9,30.22 31.26,30 31.72,30 C 32.17,30 32.52,30.22 32.78,30.67 C 33.06,30.22 33.42,30 33.85,30 C 34.33,30 34.8,30.28 34.92,30.77 C 34.97,30.98 35,31.33 35,31.81 V 36 H 33.37 V 32.16 C 33.37,31.66 33.35,31.34 33.32,31.23 C 33.29,31.1 33.22,31.04 33.1,31.04 S 32.9,31.1 32.86,31.22 C 32.83,31.34 32.81,31.65 32.81,32.16 V 36 H 31.18 V 32.26 C 31.18,31.68 31.17,31.33 31.14,31.22 C 31.11,31.1 31.04,31.04 30.92,31.04 C 30.77,31.04 30.65,31.18 30.64,31.36 V 36 H 29 V 30 H 30.63 Z M 25.66,32.35 H 24 V 31.95 C 24,31.51 24.05,31.17 24.15,30.93 C 24.25,30.68 24.47,30.47 24.78,30.28 S 25.5,30 26,30 C 26.6,30 27.05,30.1 27.36,30.32 C 27.66,30.52 27.85,30.79 27.91,31.1 C 27.97,31.4 28,32.03 28,32.99 V 36 H 26.27 V 35.38 C 26.17,35.58 26.03,35.74 25.85,35.85 C 25.68,35.95 25.48,36 25.25,36 C 24.93,36 24.65,35.91 24.39,35.74 S 24,35.2 24,34.6 V 34.13 C 24,33.69 24.07,33.4 24.2,33.24 C 24.34,33.09 24.68,32.9 25.23,32.69 C 25.81,32.47 26.13,32.31 26.16,32.23 C 26.21,32.16 26.23,32 26.23,31.75 C 26.23,31.45 26.2,31.25 26.16,31.17 A 0.23,0.23 0 0,0 25.93,31.03 C 25.81,31.03 25.73,31.06 25.71,31.14 A 2.3,2.3 0 0,0 25.66,31.74 V 32.34 Z M 26.23,33.15 C 25.94,33.35 25.78,33.52 25.73,33.66 C 25.69,33.8 25.66,34 25.66,34.26 C 25.66,34.56 25.68,34.76 25.72,34.84 C 25.76,34.94 25.84,34.97 25.96,34.97 C 26.07,34.97 26.14,34.94 26.17,34.87 C 26.21,34.8 26.23,34.62 26.23,34.33 V 33.14 Z M 20.73,30 V 30.65 C 20.86,30.43 21.01,30.27 21.19,30.16 C 21.38,30.06 21.59,30 21.82,30 C 22.12,30 22.36,30.07 22.55,30.22 C 22.75,30.36 22.86,30.55 22.92,30.77 C 22.97,30.99 23,31.35 23,31.87 V 36 H 21.27 V 31.92 C 21.27,31.52 21.25,31.27 21.23,31.18 C 21.2,31.08 21.13,31.04 21.01,31.04 S 20.81,31.1 20.78,31.2 S 20.73,31.57 20.73,32.02 V 36 H 19 V 30 H 20.73 Z M 18,30 L 17.5,34.44 C 17.42,35.14 17.36,35.62 17.3,35.88 C 17.25,36.14 17.16,36.35 17.04,36.51 C 16.92,36.68 16.74,36.81 16.52,36.88 A 3.3,3.3 0 0,1 15.48,37 H 14.42 V 36.02 C 14.69,36.02 14.86,36.01 14.94,35.98 C 15.02,35.95 15.06,35.88 15.06,35.78 L 14.95,35.14 L 14,30 H 15.58 L 16.15,34.14 L 16.42,30 H 18 Z M 9,29 H 10.3 C 11.13,29 11.69,29.04 11.98,29.12 C 12.28,29.2 12.5,29.33 12.66,29.52 C 12.81,29.7 12.9,29.91 12.94,30.14 C 12.98,30.36 13,30.81 13,31.47 V 33.92 C 13,34.55 12.97,34.97 12.91,35.18 A 0.96,0.96 0 0,1 12.62,35.68 C 12.48,35.8 12.32,35.88 12.11,35.93 C 11.9,35.98 11.59,36 11.18,36 H 9 V 29 Z M 10.73,30.2 V 34.8 C 10.98,34.8 11.13,34.75 11.19,34.65 C 11.24,34.54 11.27,34.25 11.27,33.79 V 31.07 C 11.27,30.75 11.27,30.55 11.24,30.46 A 0.28,0.28 0 0,0 11.11,30.26 C 11.04,30.22 10.91,30.2 10.73,30.2 Z" fill="rgb(234, 98, 88)"/>
<path d="M 38.99,25.085 H 36.74 V 26.35 C 36.74,26.62 36.76,26.79 36.8,26.86 C 36.84,26.94 36.9,26.97 37.02,26.97 C 37.15,26.97 37.24,26.93 37.28,26.83 C 37.32,26.73 37.35,26.53 37.35,26.24 V 25.48 H 39 V 25.91 C 39,26.26 38.98,26.54 38.93,26.73 C 38.89,26.93 38.78,27.13 38.62,27.35 C 38.46,27.56 38.25,27.73 37.99,27.84 C 37.74,27.94 37.43,28 37.05,28 C 36.68,28 36.35,27.95 36.07,27.84 C 35.79,27.74 35.57,27.58 35.41,27.4 C 35.26,27.2 35.15,27 35.09,26.78 C 35.03,26.55 35,26.22 35,25.79 V 24.1 C 35,23.6 35.07,23.2 35.2,22.9 C 35.34,22.61 35.56,22.39 35.87,22.24 C 36.17,22.08 36.53,22 36.93,22 C 37.42,22 37.83,22.1 38.13,22.28 C 38.46,22.47 38.68,22.72 38.81,23.03 C 38.94,23.33 39,23.77 39,24.33 V 25.1 Z M 37.25,24.16 V 23.74 C 37.25,23.44 37.24,23.24 37.2,23.16 C 37.17,23.06 37.1,23.03 37.01,23.03 C 36.89,23.03 36.81,23.06 36.79,23.13 C 36.76,23.21 36.74,23.41 36.74,23.73 V 24.16 H 37.25 Z M 33.39,21 V 21.97 H 33.92 V 22.95 H 33.39 V 26.25 C 33.39,26.66 33.41,26.89 33.45,26.93 C 33.5,26.98 33.68,27 34,27 V 28 H 33.2 C 32.76,28 32.44,27.98 32.25,27.95 C 32.06,27.91 31.89,27.83 31.75,27.7 A 0.82,0.82 0 0,1 31.48,27.26 A 7.57,7.57 0 0,1 31.42,26.09 V 22.95 H 31 V 21.97 H 31.42 V 21 H 33.39 Z M 30,24.14 V 25.56 C 30,26.08 29.97,26.46 29.92,26.7 C 29.87,26.95 29.76,27.17 29.59,27.38 C 29.42,27.59 29.2,27.75 28.93,27.85 A 3.3,3.3 0 0,1 27.03,27.87 A 1.37,1.37 0 0,1 26.41,27.49 A 1.57,1.57 0 0,1 26.09,26.86 A 4.8,4.8 0 0,1 26,25.75 V 24.26 C 26,23.73 26.06,23.31 26.17,23 C 26.29,22.7 26.5,22.46 26.79,22.27 C 27.09,22.09 27.48,22 27.94,22 C 28.34,22 28.67,22.06 28.95,22.18 A 1.6,1.6 0 0,1 29.91,23.22 C 29.97,23.42 30,23.72 30,24.14 Z M 28.25,23.7 C 28.25,23.4 28.24,23.22 28.21,23.14 C 28.18,23.06 28.11,23.03 28.01,23.03 S 27.83,23.06 27.8,23.14 C 27.76,23.22 27.75,23.41 27.75,23.7 V 26.32 C 27.75,26.59 27.76,26.77 27.8,26.85 C 27.83,26.93 27.9,26.97 28,26.97 S 28.17,26.94 28.2,26.87 C 28.24,26.79 28.25,26.62 28.25,26.37 V 23.7 Z M 20.66,22.1 L 20.63,22.67 C 20.76,22.44 20.92,22.27 21.1,22.17 C 21.28,22.06 21.49,22 21.72,22 C 22.17,22 22.52,22.22 22.78,22.67 C 22.92,22.44 23.08,22.27 23.26,22.17 C 23.44,22.06 23.63,22 23.85,22 C 24.14,22 24.37,22.07 24.55,22.22 C 24.75,22.37 24.87,22.55 24.92,22.77 C 24.97,22.98 25,23.33 25,23.81 V 28 H 23.37 V 24.16 C 23.37,23.66 23.35,23.34 23.32,23.23 C 23.29,23.1 23.22,23.04 23.1,23.04 S 22.9,23.1 22.86,23.22 C 22.83,23.34 22.81,23.65 22.81,24.16 V 28 H 21.18 V 24.26 C 21.18,23.68 21.17,23.33 21.14,23.22 C 21.11,23.1 21.04,23.04 20.92,23.04 A 0.24,0.24 0 0,0 20.72,23.14 A 0.36,0.36 0 0,0 20.64,23.36 V 28 H 19 V 22.1 H 20.66 Z M 18,25.1 H 15.74 V 26.35 C 15.74,26.62 15.76,26.79 15.8,26.86 C 15.84,26.94 15.9,26.97 16.02,26.97 C 16.15,26.97 16.24,26.93 16.28,26.83 C 16.32,26.73 16.35,26.53 16.35,26.24 V 25.48 H 18 V 25.91 C 18,26.26 17.98,26.54 17.93,26.73 C 17.89,26.93 17.78,27.13 17.62,27.35 C 17.46,27.56 17.25,27.73 16.99,27.84 C 16.74,27.94 16.43,28 16.05,28 C 15.68,28 15.35,27.95 15.07,27.84 C 14.79,27.74 14.57,27.58 14.41,27.4 C 14.26,27.2 14.15,27 14.09,26.78 C 14.03,26.55 14,26.22 14,25.79 V 24.1 C 14,23.6 14.07,23.2 14.2,22.9 C 14.34,22.61 14.56,22.39 14.87,22.24 C 15.17,22.08 15.53,22 15.93,22 C 16.42,22 16.83,22.1 17.13,22.28 C 17.46,22.47 17.68,22.72 17.81,23.03 C 17.94,23.33 18,23.77 18,24.33 V 25.1 Z M 16.25,24.16 V 23.74 C 16.25,23.44 16.24,23.24 16.2,23.16 C 16.17,23.06 16.1,23.03 16.01,23.03 C 15.89,23.03 15.81,23.06 15.79,23.13 C 15.76,23.21 15.74,23.41 15.74,23.73 V 24.16 H 16.25 Z M 9,21 H 10.27 C 11.11,21 11.69,21.03 11.98,21.1 C 12.28,21.17 12.53,21.34 12.71,21.61 C 12.91,21.88 13,22.31 13,22.91 C 13,23.46 12.93,23.82 12.8,24.01 C 12.67,24.2 12.4,24.31 12.01,24.35 C 12.37,24.44 12.61,24.55 12.73,24.71 C 12.85,24.86 12.93,24.99 12.95,25.12 C 12.98,25.24 13,25.59 13,26.15 V 28 H 11.34 V 25.67 C 11.34,25.3 11.31,25.07 11.24,24.97 C 11.19,24.89 11.04,24.84 10.79,24.84 V 28 H 9 V 21 Z M 10.8,22.2 V 23.75 C 11,23.75 11.13,23.73 11.21,23.67 C 11.29,23.61 11.34,23.43 11.34,23.12 V 22.74 C 11.34,22.52 11.3,22.37 11.22,22.3 C 11.14,22.23 11,22.2 10.79,22.2 Z" fill="rgb(71, 71, 70)"/>
</svg>
