<?xml version="1.0" encoding="UTF-8"?>
<!-- generated by Finnhub -->
<svg viewBox="0 0 55.5 55.5" xmlns="http://www.w3.org/2000/svg">
<path d="M0 0h55.5v55.5H0z" fill="rgb(239, 242, 248)"/>
<path d="M8 32c-2.1 0-4-1.75-4-3.88A4.06 4.06 0 0 1 8 24c2.25 0 4 1.9 4 4.12 0 .1 0 .17-.02.22H5C5.1 29.9 6.46 31 8 31a3.5 3.5 0 0 0 2.85-1.55l.7.39A3.95 3.95 0 0 1 8 32Zm-3-4.59 6 .02A2.96 2.96 0 0 0 8 25c-1.52 0-2.7.94-3 2.41ZM17 32c-2.08 0-4-1.71-4-4 0-2.3 1.92-4 4-4 1.22 0 2.81.63 3.43 1.84l-.75.5A3.61 3.61 0 0 0 17 25c-1.63 0-3 1.2-3 3s1.37 3 3 3c1.06 0 2.1-.45 2.66-1.43l.84.34C19.92 31.28 18.34 32 17 32ZM27 32c-2.18 0-4-1.82-4-4 0-2.18 1.82-4 4-4 2.18 0 4 1.82 4 4 0 2.18-1.82 4-4 4Zm0-1c1.72 0 3-1.28 3-3s-1.28-3-3-3-3 1.28-3 3c0 1.71 1.3 3 3 3ZM37.01 24c1.2 0 2.24.45 2.99 1.4V24h1v8h-1v-1.45A3.66 3.66 0 0 1 37.01 32 4.05 4.05 0 0 1 33 28c0-2.18 1.83-4 4.01-4Zm0 1A2.95 2.95 0 0 0 34 28c0 1.7 1.3 3 3.01 3 1.71 0 2.99-1.3 2.99-3s-1.29-3-2.99-3ZM46 24.18l-.3.8c-1.65-.48-2.7.9-2.7 2.37V32h-1v-8h1v1c.71-.7 1.3-.98 1.96-1 .32-.01.66.05 1.04.18Z" fill="rgb(17, 80, 159)"/>
<path d="M28.74 33.8V33c2.07-.8 3.76-2.48 3.76-5.05 0-2.32-1.4-4.16-3.5-4.95v.9c1.6.71 2.65 2.19 2.65 4.03 0 2.4-1.33 3.43-2.9 4.18v-.61l-2.33 1.27 2.32 1.03Zm-3.48-9.3v-.6c-1.63.71-2.9 2.21-2.9 4.08A4.42 4.42 0 0 0 25 32.1V33a5.28 5.28 0 0 1-3.5-5.02c0-2.33 1.64-4.21 3.76-4.98v-.5l2.24.99-2.24 1.01Z" fill="rgb(84, 138, 0)"/>
<path d="M47 22h1v5.56L50.53 25h.93l-2.9 3.17L52 32h-1l-3-3.33V32h-1V22Z" fill="rgb(17, 80, 159)"/>
</svg>
