<?xml version="1.0" encoding="UTF-8"?>
<!-- generated by Finnhub -->
<svg viewBox="0 0 55.5 55.5" xmlns="http://www.w3.org/2000/svg">
<path d="M 0,0 H 55.5 V 55.5 H 0 Z" fill="rgb(239, 242, 248)"/>
<path d="M 41.510000000000005,25.384999999999998 C 42.38,25.12 43.22,25.06 44,25 L 42.78,25.5 A 6.91,6.91 0 0,0 38.92,28.85 C 38.82,29.05 38.66,29.53 38.39,29.55 L 33,30 A 52.83,52.83 0 0,1 40.08,25.97 C 40.56,25.75 41.04,25.57 41.52,25.41 Z" fill="rgb(121, 21, 32)"/>
<path d="M 40.99,27.285 C 40.98,27.26 41.04,27.24 41.08,27.22 C 41.43,27.08 44.67,25.66 44.98,26.08 H 45 C 45.03,26.14 44.97,26.22 44.82,26.34 C 44.3,26.76 43.62,27.07 42.99,27.37 C 42.56,27.57 42.09,27.77 41.61,27.97 C 41.57,27.99 41.51,28.02 41.48,27.97 L 41.02,27.31 Z M 32.85,39.1 C 32.92,39.42 33.13,39.65 33.09,40 C 30.42,37.63 30.65,35 31.89,32.2 C 31.95,32.03 32.09,31.97 32.31,32.01 L 33.78,32.34 C 33.99,32.38 34.05,32.49 33.95,32.64 A 8.26,8.26 0 0,0 32.85,39.1 Z" fill="rgb(121, 21, 32)"/>
<path d="M 18.419999999999998,27.814999999999998 C 19.2,26.53 19.92,25.29 21.63,25.03 C 21.75,25.01 21.79,25.06 21.75,25.18 C 21.35,26.25 20.82,27.3 20.16,28.33 A 8.4,8.4 0 0,0 19.16,36.03 C 19.5,37 20.14,37.59 21.09,37.83 A 5.1,5.1 0 0,1 24.09,40.11 C 24.26,40.38 24.35,40.69 24.34,41.02 A 59.07,59.07 0 0,0 24.34,44 C 25.8,43.48 27.58,42.94 28.74,42.11 C 27.65,41.07 26.76,39.73 26.03,38.73 C 25.57,38.11 24.56,36.42 24.83,35.59 C 25.28,34.15 26.33,33.05 27.67,32.13 L 27.64,33.04 C 27.51,36.02 27.59,39.74 30.66,41.14 C 30.48,40.78 30.27,40.42 30.06,40.07 C 29.68,39.4 29.29,38.74 29.04,38.02 C 28.42,36.25 28.79,33.15 30.37,31.82 C 30.85,31.42 31.3,30.81 31.89,30.38 L 30.69,30.58 C 28.04,31.1 25.55,29.36 25.62,27.28 C 25.7,25.02 28.78,23.51 30.83,24.66 C 32.11,25.38 32.15,26.84 31.75,28.1 A 0.26,0.26 0 0,1 31.6,28.25 C 31.17,28.42 30.7,28.55 30.17,28.6 C 29.3,28.7 28.69,27.98 28.37,27.29 A 0.22,0.22 0 0,1 28.45,27 C 28.99,26.7 29.52,26.62 30.03,26.27 C 30.3,26.09 30.27,26 29.96,26 H 29.06 C 28.74,26 28.44,26.11 28.21,26.32 C 27.82,26.67 27.41,27.02 27.41,27.75 C 27.44,29.02 28.67,29.92 30.01,29.73 C 30.62,29.65 31.2,29.46 31.74,29.18 C 34.58,27.68 37.76,26.03 41.26,24.23 C 42.13,23.78 43.2,23.33 44,23 L 40.46,19.25 L 33.59,26.15 C 33.24,26.5 33.04,26.43 33,25.93 V 25.46 C 33,25 33,24.5 33.34,24.12 C 35.7,21.46 37.54,19.26 38.97,17.52 C 39.19,17.25 39.37,16.95 39.51,16.62 A 0.17,0.17 0 0,0 39.33,16.38 A 0.3,0.3 0 0,0 39.16,16.46 C 38.36,17.16 37.61,17.86 36.86,18.54 A 0.2,0.2 0 0,1 36.66,18.59 L 34.64,17.98 L 36.22,14.52 A 0.2,0.2 0 0,0 36.15,14.28 A 7.32,7.32 0 0,0 32.73,13.1 C 27.05,12.58 21.97,14.05 17.17,17.2 C 13.9,19.38 12,22 11.2,25.83 A 10.57,10.57 0 0,0 11.16,29.64 C 11.6,32.44 13.19,35.21 14.76,37.54 L 16.31,35.86 C 15.79,33.97 15.22,31.95 15.28,29.96 C 15.28,29.86 15.33,29.81 15.41,29.77 C 15.91,29.57 16.41,29.42 16.93,29.31 C 17.4,29.21 17.78,28.93 18.06,28.47 L 18.44,27.84 Z M 17.83,22.27 C 17.89,22.4 17.93,22.59 17.74,22.63 L 12.55,23.67 A 0.28,0.28 0 0,0 12.33,23.87 L 12,24.84 L 16.25,24.11 C 16.48,24.07 16.62,24.49 16.4,24.55 L 12.32,25.75 C 11.79,25.9 11.54,26.25 11.57,26.81 L 11.61,27.34 C 11.64,27.82 11.88,27.98 12.34,27.84 C 12.67,27.73 12.98,27.59 13.3,27.45 C 13.96,27.15 14.18,27.01 15,27 V 28.37 C 14.99,28.47 15.03,28.53 15.15,28.52 C 15.99,28.47 17.02,28.19 17.46,27.65 A 84.76,84.76 0 0,0 19.89,24.57 C 20.84,23.31 21.69,22.34 22.45,21.67 C 24.25,20.07 26.43,19.01 28.97,18.48 C 30.22,18.22 31.54,18 32.92,17.84 C 33.07,17.82 33.2,17.74 33.27,17.61 L 35.02,14.79 A 0.2,0.2 0 0,0 34.94,14.51 C 34.29,14.16 33.71,14.26 33.2,14.79 C 32.54,15.49 31.9,16.19 31.26,16.9 A 0.38,0.38 0 0,1 31.08,17.02 C 30.85,17.09 30.71,16.82 30.8,16.62 L 31.98,14.12 C 32.04,13.99 32,13.92 31.86,13.9 L 31.29,13.8 A 0.65,0.65 0 0,0 30.66,14.05 C 30.26,14.57 29.91,15.12 29.58,15.69 C 29.16,16.42 28.58,16.86 27.85,17.01 A 0.17,0.17 0 0,1 27.65,16.78 L 28.6,14.03 C 28.67,13.83 28.6,13.75 28.4,13.78 L 27.5,13.89 A 0.52,0.52 0 0,0 27.08,14.19 C 26.75,14.83 26.37,15.49 25.95,16.14 C 25.72,16.52 25.39,16.74 24.97,16.82 H 24.87 A 0.21,0.21 0 0,1 24.72,16.56 L 25.17,14.86 C 25.21,14.74 25.16,14.67 25.03,14.66 C 23.79,14.44 23.15,15.3 22.59,16.24 A 0.62,0.62 0 0,1 21.92,16.54 A 3.69,3.69 0 0,0 18.84,17.09 C 18.77,17.15 18.78,17.26 18.87,17.29 L 21.41,18.22 C 21.64,18.3 21.61,18.72 21.35,18.72 L 16.9,18.75 C 16.49,18.75 16.17,18.92 15.95,19.26 L 15.81,19.46 C 15.58,19.82 15.68,20.01 16.1,20.04 C 16.78,20.09 17.46,20.16 18.15,20.24 C 18.65,20.31 18.65,20.43 18.18,20.59 C 17.94,20.67 17.68,20.72 17.43,20.74 L 17.21,20.75 C 15.75,20.85 14.38,21.11 13.48,22.51 L 17.64,22.15 C 17.74,22.15 17.8,22.18 17.84,22.27 Z" fill="rgb(121, 21, 32)" fill-rule="evenodd"/>
</svg>
