<?xml version="1.0" encoding="UTF-8"?>
<!-- generated by Finnhub -->
<svg viewBox="0 0 55.5 55.5" xmlns="http://www.w3.org/2000/svg">
<path d="M 0,0 H 55.5 V 55.5 H 0 Z" fill="rgb(28, 81, 173)"/>
<path d="M 6.32,18.985 H 22.38 C 23.48,19 24.48,19.36 25.28,20.13 A 4.1,4.1 0 0,1 25.38,25.88 A 3.84,3.84 0 0,1 22.84,27.08 V 27.09 L 28.04,30.79 H 28.05 L 33.24,27.09 V 27.07 A 4.02,4.02 0 0,1 29.71,21.97 A 3.96,3.96 0 0,1 33.68,19 H 49.76 C 49.78,19 49.78,19 49.76,19.02 L 45.03,22.68 C 45.02,22.69 45.03,22.68 45.03,22.68 H 34.33 C 34.25,22.68 34.15,22.68 34.08,22.71 C 33.7,22.84 33.68,23.39 34.07,23.54 L 34.31,23.56 H 43.84 L 34.18,30.98 L 34.15,31 H 21.9 L 12.25,23.6 A 2066.8,2066.8 0 0,1 21.9,23.56 C 22.45,23.5 22.4,22.7 21.81,22.7 H 11.11 L 6.31,19.06 C 6.29,19.04 6.29,19 6.33,19 Z M 50,31.69 H 6 V 32 H 50 V 31.69 Z M 18.28,36.5 C 18.03,36.31 18.05,35.94 18.06,35.67 L 18.14,34.61 C 18.16,34.37 18.2,34.14 18.26,33.91 C 18.37,33.48 18.95,33.27 19.36,33.16 A 9.22,9.22 0 0,1 20.93,32.9 C 21.99,32.81 23.07,32.8 24.13,32.87 C 24.65,32.9 25.16,32.97 25.67,33.07 C 26.04,33.15 26.75,33.34 26.94,33.68 C 27.04,33.86 27.04,34.18 27.02,34.38 C 26.99,34.94 26.96,35.48 26.84,36.05 A 0.72,0.72 0 0,1 26.48,36.55 C 25.86,36.92 25.02,37.04 24.3,37.11 C 23.14,37.21 21.98,37.23 20.81,37.14 A 8.12,8.12 0 0,1 18.87,36.8 A 2,2 0 0,1 18.27,36.5 Z M 21.86,36.06 C 21.86,36.21 21.85,36.42 22.06,36.46 C 22.32,36.5 22.56,36.5 22.79,36.45 C 23.02,36.4 23.05,36.11 23.07,35.93 L 23.22,33.99 C 23.23,33.79 23.25,33.61 22.99,33.57 C 22.74,33.52 22.49,33.53 22.24,33.6 C 22.04,33.65 22.04,33.94 22.01,34.15 L 21.86,36.05 Z M 14.05,34.92 C 14.68,34.96 15.13,35 15.64,35.2 C 15.94,35.33 15.94,35.51 15.92,35.78 A 69.49,69.49 0 0,1 15.8,37 H 12.26 V 36.99 L 12.37,35.59 C 12.4,35.32 12.21,35.24 11.97,35.22 A 8.24,8.24 0 0,0 11.25,35.21 L 11.09,36.99 V 37 H 7.26 L 7.25,36.98 L 7.59,33.02 L 7.6,33 H 14.15 C 14.45,33 14.77,33.02 15.14,33.07 C 15.47,33.11 15.71,33.14 15.96,33.27 C 16.1,33.34 16.1,33.53 16.09,33.67 C 16.07,34.01 16.04,34.28 15.99,34.47 C 15.89,34.82 15.29,34.86 14.99,34.88 C 14.7,34.91 14.36,34.9 14.05,34.9 L 14.04,34.91 Z M 12.52,33.97 C 12.52,33.77 12.37,33.7 12.17,33.68 A 6.25,6.25 0 0,0 11.34,33.68 L 11.27,34.56 L 11.28,34.57 C 11.55,34.59 11.81,34.58 12.07,34.57 C 12.5,34.53 12.51,34.31 12.52,33.97 Z M 33.31,33.72 C 33.46,33.7 34.06,33.65 34.11,33.82 C 34.14,33.92 34.15,34.06 34.14,34.22 A 807.85,807.85 0 0,1 33.9,37 L 37.6,36.99 L 37.62,36.98 L 37.85,34.32 C 37.87,34.12 37.88,33.94 37.85,33.77 C 37.8,33.42 37.5,33.28 37.15,33.19 A 4.79,4.79 0 0,0 35.85,33.01 C 34.95,32.97 33.92,32.91 33.02,33 H 29.36 L 29.3,34 H 33.03 C 33.06,33.88 33.17,33.75 33.31,33.72 Z M 32.96,34.42 H 29.25 L 29.01,37 V 37 H 32.73 L 32.96,34.42 Z M 44.14,33.72 C 44.3,33.7 44.89,33.65 44.94,33.82 C 44.98,33.92 44.99,34.06 44.97,34.22 A 807.74,807.74 0 0,1 44.73,37 H 44.74 L 48.44,36.99 L 48.45,36.98 L 48.69,34.32 C 48.7,34.12 48.71,33.94 48.69,33.77 C 48.64,33.42 48.34,33.28 47.99,33.19 A 4.77,4.77 0 0,0 46.68,33.01 C 45.79,32.97 44.76,32.91 43.86,33 H 40.19 L 40.14,34 H 43.87 C 43.9,33.88 44,33.75 44.14,33.72 Z M 43.8,34.44 H 40.08 V 34.45 L 39.85,37 V 37 H 43.57 L 43.81,34.45 H 43.8 Z M 49.98,37.7 H 6.02 L 6,37.72 V 37.98 C 6,37.99 6,38 6.02,38 H 49.98 C 49.99,38 50,38 50,37.98 V 37.72 C 50,37.71 50,37.7 49.98,37.7 Z" fill="rgb(254, 254, 253)"/>
</svg>
