<!-- by Finnhub --><svg width="56" height="56" viewBox="0 0 56 56" fill="none" xmlns="http://www.w3.org/2000/svg">
<rect width="56" height="56" fill="#F0F3FA"/>
<path d="M14 18.7753V38.2045C14.0041 38.9249 14.4712 40.6122 16.306 41.5976C18.1874 42.608 21.4481 43.7131 23.2405 44.3205C23.6333 44.4537 23.9555 44.5629 24.1773 44.642C24.3234 44.6941 24.4822 44.7479 24.6493 44.8046C25.8936 45.2264 27.6017 45.8055 28 47C28.3983 45.8055 30.1064 45.2264 31.3507 44.8046C31.5178 44.7479 31.6766 44.6941 31.8227 44.642C32.0445 44.5629 32.3667 44.4537 32.7595 44.3206C34.5519 43.7131 37.8126 42.608 39.694 41.5976C41.5288 40.6122 41.9959 38.9249 42 38.2045V18.7753L28 15.5143L14 18.7753Z" fill="url(#paint0_linear_229_10388)"/>
<path d="M27.9648 14.3006L14 17.6857L15.0878 14.8799C17.6352 14.4532 23.777 12.6799 27.9648 9C31.3831 12.3919 37.9863 14.3332 40.8607 14.8799L42 17.6857L27.9648 14.3006Z" fill="url(#paint1_linear_229_10388)"/>
<path fill-rule="evenodd" clip-rule="evenodd" d="M28.0035 18.6641V18.3783L28.3188 18.6641H28.0035ZM27.963 18.047L28.6439 18.6641H28.9278V19.3866H28.6682L28.8045 20.2392H29.5135V21.1685H28.9531L29.086 21.9999H32.657C33.4761 22.0958 35.1144 22.8352 35.1144 25.0265C35.1144 27.2179 32.6407 27.8333 31.4039 27.8672C31.8758 28.2279 33.002 29.2164 33.7311 30.2851C34.4602 31.3537 36.2764 33.2069 37.0933 33.9999H31.5539C31.4272 33.7346 31.1582 33.2249 30.7807 32.601L31.0259 34.1347C31.0431 34.242 30.9188 34.3119 30.8389 34.2399L28.0035 31.6824V35.3161H27.7967V31.7319L26.1524 33.2197L26.6576 33.9999H25.29L25.0249 34.2398C24.9453 34.3118 24.8209 34.2423 24.8377 34.1351L24.8589 33.9999H21.3115L22.0003 32.6628V23.2731L21.3115 21.9999H26.7361L26.8662 21.1685H26.2867V20.2392H27.0116L27.145 19.3866H26.8441V18.6641H27.1314L27.8123 18.047C27.8553 18.0081 27.92 18.0081 27.963 18.047ZM26.6642 22.4599H26.0003V26.7035L26.6642 22.4599ZM26.0003 29.0075V28.1013L26.3087 26.1304L27.757 27.4283L26.0003 29.0075ZM26.0003 29.5816V29.301L27.7967 27.6861V28.2834C27.6873 28.3132 27.5839 28.3373 27.4883 28.356C27.5619 28.4255 27.6667 28.5301 27.7967 28.6669V31.2019L26.0003 29.5816ZM26.0322 33.0341L26.0003 32.9849V29.8756L27.7645 31.4668L26.0322 33.0341ZM28.0035 28.8888V31.2505L29.1345 30.2272C28.7002 29.6749 28.3077 29.2212 28.0035 28.8888ZM29.7181 27.3226C29.3898 27.5867 29.0293 27.7975 28.6778 27.9605L28.0837 27.4281L29.5275 26.1302L29.7181 27.3226ZM29.9106 27.158C30.5209 26.6026 30.9779 25.8416 30.9779 24.836C30.9779 23.6807 30.1311 23.0524 29.2038 22.737L29.9106 27.158ZM28.8672 21.9999L28.7684 21.3818L28.1181 21.9999H28.8672ZM28.6348 22.5817C28.7471 22.6055 28.8605 22.6333 28.9736 22.6654L29.0183 22.9451L28.6348 22.5817ZM28.0035 22.4847C28.0822 22.4924 28.1631 22.5018 28.2455 22.5134L29.0151 23.2426L28.0035 24.161V22.4847ZM27.6326 22.4615C27.6855 22.463 27.7403 22.4653 27.7967 22.4686V24.1343L26.8112 23.2424L27.6326 22.4615ZM27.3176 22.4599L26.8069 22.9455L26.8829 22.4599H27.3176ZM27.7037 21.9999H26.9548L27.0515 21.382L27.7037 21.9999ZM28.4581 28.0567C28.3017 28.1214 28.1489 28.1765 28.0035 28.2225V27.6493L28.4581 28.0567ZM29.2691 30.3997L28.0901 31.4665L30.7665 33.8806L30.4861 32.1266C30.2359 31.7341 29.9515 31.3134 29.6397 30.8904C29.514 30.72 29.3902 30.5562 29.2691 30.3997ZM28.5206 18.8469L28.5165 18.8432H28.0035V19.2075H28.7637V18.8432H28.5238L28.5206 18.8469ZM27.2547 18.8469L27.2515 18.8432H27.0004V19.2075H27.7967V18.8432H27.2588L27.2547 18.8469ZM27.7967 18.3557L27.4564 18.6641H27.7967V18.3557ZM26.9858 20.4043H26.4486V21.0034H26.8921L26.9858 20.4043ZM27.1107 21.0034L27.1949 20.4651L27.2777 20.4043H27.7967V21.0034H27.1107ZM27.1434 21.1685L27.7967 21.7875V21.1685H27.1434ZM28.0035 21.1685V21.8079L28.6761 21.1685H28.0035ZM28.9267 21.0034H29.3516V20.4043H28.8309L28.9267 21.0034ZM28.5386 20.4043L28.6219 20.4653L28.7079 21.0034H28.0035V20.4043H28.5386ZM28.3136 20.2392L28.0035 20.0117V20.2392H28.3136ZM27.7967 20.2392V20.0225L27.5022 20.2392H27.7967ZM27.5977 19.4427H27.7967V19.5888L27.5977 19.4427ZM26.3958 25.9153L27.7967 24.6435V27.1708L26.3958 25.9153ZM28.0035 24.6158V27.2067L29.4397 25.9156L28.0035 24.6158ZM28.0035 19.4427V19.599L28.216 19.4427H28.0035ZM26.3872 25.6284L27.7526 24.3888L26.7264 23.46L26.3872 25.6284ZM28.5728 20.1581L28.4717 19.5261L28.092 19.8054L28.5728 20.1581ZM27.3418 19.5263L27.2429 20.1584L27.7226 19.8056L27.3418 19.5263ZM29.1006 23.4598L29.4472 25.628L28.0776 24.3885L29.1006 23.4598Z" fill="#FFC526"/>
<defs>
<linearGradient id="paint0_linear_229_10388" x1="28" y1="15.5143" x2="28" y2="47" gradientUnits="userSpaceOnUse">
<stop stop-color="#1D5B8A"/>
<stop offset="0.402808" stop-color="#0077BB"/>
<stop offset="1" stop-color="#084971"/>
</linearGradient>
<linearGradient id="paint1_linear_229_10388" x1="28" y1="9" x2="28" y2="15.2399" gradientUnits="userSpaceOnUse">
<stop stop-color="#004169"/>
<stop offset="1" stop-color="#205D8C"/>
</linearGradient>
</defs>
</svg>
