<?xml version="1.0" encoding="UTF-8"?>
<!-- generated by Finnhub -->
<svg viewBox="0 0 55.5 55.5" xmlns="http://www.w3.org/2000/svg">
<path d="M 0,0 H 55.5 V 55.5 H 0 Z" fill="rgb(239, 242, 248)"/>
<path d="M 41.99,22.474999999999998 V 34.47 C 42,34.8 42.34,34.82 42.58,34.93 L 46.26,36.43 C 46.51,36.53 47.58,37 47.77,37 C 47.83,36.99 47.88,36.96 47.92,36.91 C 47.96,36.86 47.99,36.81 48,36.74 V 20.26 A 0.34,0.34 0 0,0 47.92,20.09 A 0.28,0.28 0 0,0 47.77,20 C 47.59,20 46.52,20.45 46.29,20.56 C 45.19,21.05 43.73,21.56 42.63,22.05 C 42.43,22.13 42,22.22 42,22.49" fill="url(#c)"/>
<path d="M 5.99,26.275 C 6,26.86 6.02,27.16 6.4,27.67 C 6.65,28 6.91,28.18 7.28,28.39 C 7.45,28.49 7.62,28.58 7.8,28.65 L 13.8,31.45 H 6.31 C 6.09,31.48 6.01,31.62 5.99,31.85 V 32.75 C 5.99,32.89 6.25,33 6.4,33 H 16.7 C 17.88,33 18.99,32.09 18.99,30.92 C 18.99,30.24 18.99,29.94 18.59,29.36 C 18.09,28.62 16.47,28.07 15.59,27.62 L 15.05,27.38 L 11.28,25.58 H 18.38 C 19.12,25.59 18.99,25.4 18.99,24.37 C 18.99,24.07 18.75,24 18.46,24 H 9.03 C 8.14,24 7.47,24.1 6.93,24.47 C 6.46,24.79 6,25.37 6,26.12 V 26.29 Z" fill="url(#b)"/>
<path d="M 19.99,32.745 C 20,32.95 20.15,33 20.4,33 H 29.36 C 30.06,33 29.92,32.66 29.92,31.78 C 29.92,31.51 29.72,31.42 29.44,31.41 H 23.28 C 23.41,31.23 25.06,29.74 25.38,29.45 L 26.42,28.47 L 27.52,27.5 C 27.74,27.63 28.96,28.85 29.25,29.12 L 30.96,30.78 C 31.26,31.14 31.76,31.52 32.11,31.87 C 32.22,31.97 32.25,32.04 32.38,32.15 C 32.64,32.4 33.02,32.81 33.3,32.92 C 33.54,33.02 35.09,33 35.5,33 H 39 C 39.54,33 40,33 40,32.71 C 40,32.47 39.13,31.76 38.92,31.56 C 38.52,31.19 38.15,30.86 37.76,30.48 L 35.43,28.29 L 34.87,27.76 C 34.65,27.56 34.51,27.39 34.3,27.19 L 31.68,24.75 C 30.82,23.85 31,24.01 29.45,24.01 C 29.08,24.01 28.42,24.75 28.17,24.98 L 27,26.08 L 20.53,32.14 C 20.38,32.28 20.01,32.53 20.01,32.76" fill="url(#a)"/>
<defs>
<linearGradient id="c" x1="42" x2="48" y1="28.5" y2="28.5" gradientUnits="userSpaceOnUse">
<stop stop-color="rgb(1, 95, 111)" offset="0"/>
<stop stop-color="rgb(64, 165, 185)" offset="1"/>
</linearGradient>
<linearGradient id="b" x1="6" x2="19" y1="28.5" y2="28.5" gradientUnits="userSpaceOnUse">
<stop stop-color="rgb(0, 96, 111)" offset="0"/>
<stop stop-color="rgb(25, 122, 139)" offset="1"/>
</linearGradient>
<linearGradient id="a" x1="20" x2="40" y1="30.64" y2="30.82" gradientUnits="userSpaceOnUse">
<stop stop-color="rgb(34, 132, 150)" offset="0"/>
<stop stop-color="rgb(67, 168, 188)" offset="1"/>
</linearGradient>
</defs>
</svg>
