<?xml version="1.0" encoding="UTF-8"?>
<!-- generated by Finnhub -->
<svg viewBox="0 0 55.5 55.5" xmlns="http://www.w3.org/2000/svg">
<path d="M 0,0 H 55.5 V 55.5 H 0 Z" fill="rgb(239, 242, 248)"/>
<path d="M 19.673,14.314 C 15.076,17.137 12,22.209 12,28 C 12,35.663 17.388,42.069 24.582,43.634 C 30.212,44.36 33.449,36.268 33.639,33.406 L 30.004,32.919 C 30.994,30.939 33.462,26.419 35.413,24.184 C 36.833,25.53 40.783,31.26 41.355,33.277 H 38.96 C 38.871,35.051 38.038,39.339 35.413,41.787 C 35.413,41.796 35.168,42.097 34.728,42.521 C 40.203,39.98 44,34.433 44,28 C 44,20.104 38.28,13.543 30.757,12.237 C 24.289,12.282 22.427,18.998 22.235,21.871 L 25.871,22.359 C 24.881,24.339 22.412,28.859 20.461,31.093 C 19.041,29.747 15.091,24.017 14.52,22 H 16.914 C 16.994,20.415 17.667,16.822 19.684,14.329 Z" clip-rule="evenodd" fill="rgb(243, 117, 31)" fill-rule="evenodd"/>
<path d="M 27.555,26.157 C 25.055,31.042 22.748,39.352 22.748,39.352 L 34.076,16.272 S 29.686,22.059 27.566,26.172 Z" fill="rgb(27, 130, 204)"/>
<path d="M 29.612,29.438 C 32.132,24.582 34.439,16.273 34.439,16.273 L 23.111,39.353 S 27.502,33.566 29.622,29.453 Z" fill="rgb(239, 242, 248)"/>
</svg>
