<?xml version="1.0" encoding="UTF-8"?>
<!-- generated by Finnhub -->
<svg viewBox="0 0 55.5 55.5" xmlns="http://www.w3.org/2000/svg">
<path d="M 0,0 H 55.5 V 55.5 H 0 Z" fill="rgb(239, 242, 248)"/>
<circle cx="35.5" cy="15.5" r="2.5" fill="rgb(1, 59, 89)"/>
<path d="M 15.05,22.544999999999998 C 14.86,23.06 15.15,23.6 15.66,23.76 A 1,1 0 0,0 16.89,23.14 A 12.14,12.14 0 0,1 25.19,15.93 C 25.7,15.8 26.06,15.31 25.98,14.79 A 0.9,0.9 0 0,0 24.88,14.02 A 13.94,13.94 0 0,0 15.06,22.56 Z M 40.93,33.18 A 0.91,0.91 0 0,0 40.37,31.97 C 39.87,31.8 39.33,32.07 39.12,32.55 A 12.12,12.12 0 0,1 29.23,39.8 C 28.7,39.85 28.28,40.28 28.29,40.82 A 0.9,0.9 0 0,0 29.26,41.72 A 13.91,13.91 0 0,0 40.93,33.18 Z" fill="rgb(139, 156, 186)"/>
<path d="M 35.49,19.985 A 4.5,4.5 0 1,0 32.71,19.03 L 32.03,19.98 L 31.91,19.91 L 29.36,21.24 L 29.09,20.66 L 31.28,19.52 L 29.22,18.26 A 2.33,2.33 0 0,0 26.78,18.26 L 20.22,22.27 A 2.6,2.6 0 0,0 19,24.5 V 32.54 C 19,33.46 19.46,34.31 20.22,34.77 L 23.27,36.63 L 22.77,37.41 A 4,4 0 1,0 23.66,38.01 L 24.18,37.19 L 26.78,38.78 C 27.53,39.24 28.47,39.24 29.22,38.78 L 35.78,34.77 A 2.6,2.6 0 0,0 37,32.54 V 31.4 L 29,35.09 A 2,2 0 1,1 28.92,34.42 L 37,30.7 V 29.22 L 31.84,31.66 L 31.59,31.07 L 37,28.52 V 27.45 L 30.86,30.28 A 2,2 0 0,1 29,33 A 2,2 0 1,1 30.54,29.72 L 37,26.74 V 25.44 L 31.23,28.17 L 30.98,27.58 L 37,24.74 V 24.5 C 37,24.19 36.95,23.88 36.84,23.6 L 25.96,28.6 A 2.01,2.01 0 0,1 24,31 A 2,2 0 1,1 25.74,28.01 L 36.56,23.03 A 2.5,2.5 0 0,0 35.78,22.27 L 35.62,22.17 L 28.58,25.49 L 28.33,24.89 L 34.96,21.77 L 33.56,20.91 L 28,23.95 V 24 A 2,2 0 1,1 27.87,23.3 L 32.87,20.55 L 32.91,20.58 L 33.62,19.59 C 34.19,19.85 34.83,20 35.5,20 Z M 35.5,19 A 3.5,3.5 0 1,0 35.5,12 A 3.5,3.5 0 0,0 35.5,19 Z M 30.18,30.23 A 1.41,1.41 0 1,0 30.33,30.53 H 30.31 L 30.18,30.23 Z M 27.41,24 A 1.41,1.41 0 1,1 24.59,24 A 1.41,1.41 0 0,1 27.41,24 Z M 24,30.41 A 1.41,1.41 0 1,0 24,27.59 A 1.41,1.41 0 0,0 24,30.41 Z M 27,36.41 A 1.41,1.41 0 1,0 27,33.59 A 1.41,1.41 0 0,0 27,36.41 Z" fill="rgb(1, 59, 89)" fill-rule="evenodd"/>
<path d="M 43.56,27.985 A 15.5,15.5 0 0,0 40.17,18.29 L 40.54,18.06 A 16,16 0 0,1 25.82,43.86 V 43.42 A 15.57,15.57 0 0,0 43.57,28 Z M 16.83,38.85 A 15.57,15.57 0 0,1 31.29,12.77 L 31.39,12.37 A 16,16 0 0,0 16.55,39.19 L 16.83,38.85 Z" fill="rgb(139, 156, 186)"/>
</svg>
