<?xml version="1.0" encoding="UTF-8"?>
<!-- generated by Finnhub -->
<svg viewBox="0 0 55.5 55.5" xmlns="http://www.w3.org/2000/svg">
<path d="M 0,0 H 55.5 V 55.5 H 0 Z" fill="rgb(239, 242, 248)"/>
<path d="M 33.99,13.985 H 37 V 43 H 34 Z" fill="rgb(167, 153, 103)"/>
<path d="M 19.72,14.125 C 23.03,13.58 27.47,14.6 29.83,19.33 L 27.15,20.67 A 6.27,6.27 0 0,0 20.25,17.1 A 5.4,5.4 0 0,0 16.06,20.23 C 15.79,20.94 15.74,21.67 15.96,22.37 C 16.17,23.07 16.68,23.84 17.66,24.57 C 18.66,25.3 19.84,25.63 21.3,25.92 L 21.9,26.04 C 23.17,26.28 24.66,26.57 26.06,27.24 C 28.28,28.28 30.33,30.17 30.68,33.15 A 8.38,8.38 0 0,1 28.3,40.32 A 9.94,9.94 0 0,1 21.52,43 C 18.97,43.05 16.08,42.23 14.14,40.33 A 6.96,6.96 0 0,1 12.13,36.61 C 11.84,35.11 12.03,33.43 12.73,31.64 L 15.53,32.72 A 6.1,6.1 0 0,0 15.08,36.05 C 15.24,36.9 15.65,37.61 16.24,38.19 C 17.46,39.39 19.49,40.04 21.46,40 A 6.95,6.95 0 0,0 26.2,38.18 A 5.38,5.38 0 0,0 27.7,33.5 C 27.5,31.89 26.43,30.73 24.77,29.94 C 23.75,29.46 22.67,29.24 21.38,28.99 L 20.71,28.86 C 19.2,28.56 17.46,28.14 15.88,26.98 A 7.36,7.36 0 0,1 13.09,23.25 A 6.21,6.21 0 0,1 13.26,19.15 A 8.4,8.4 0 0,1 19.73,14.15 Z" fill="rgb(138, 205, 223)"/>
<path d="M 28.99,17.985 H 44 V 21 H 27 L 29,18 Z" fill="rgb(167, 153, 103)"/>
<path d="M 33.49,17.355 L 35.5,18.52 L 37.5,17.37 V 21.5 L 37,22 V 18.23 L 35.5,19.1 L 34,18.23 V 22 L 33.5,21.5 V 17.37 Z" fill="rgb(135, 206, 223)"/>
</svg>
