<?xml version="1.0" encoding="UTF-8"?>
<!-- generated by Finnhub -->
<svg viewBox="0 0 55.5 55.5" xmlns="http://www.w3.org/2000/svg">
<path d="M 0,0 H 55.5 V 55.5 H 0 Z" fill="rgb(2, 74, 151)"/>
<path d="M 34.27,35.644999999999996 C 34.28,36.06 34.26,36.99 34.86,36.99 C 35.31,36.99 35.44,36.53 35.44,35.66 C 35.44,34.74 35.29,34.33 34.86,34.33 C 34.4,34.33 34.28,34.79 34.28,35.66 Z M 33.78,39.98 C 33.78,40.41 34.18,40.66 34.9,40.66 C 35.84,40.66 36.3,40.41 36.3,39.94 C 36.3,39.49 35.9,39.41 35.52,39.41 H 34.08 C 33.91,39.57 33.78,39.74 33.78,39.98 Z M 33,40.05 C 33,39.65 33.32,39.37 33.7,39.3 V 39.22 C 33.35,39.07 33.12,38.82 33.12,38.41 C 33.12,37.86 33.6,37.43 34.08,37.24 V 37.17 C 33.48,36.89 33,36.4 33,35.66 C 33,34.66 33.9,34 34.86,34 C 35.27,34 35.64,34.12 35.83,34.22 H 36.99 V 34.76 H 36.27 C 36.5,35.03 36.63,35.38 36.63,35.79 C 36.63,36.85 35.77,37.3 34.82,37.3 H 34.52 C 34.3,37.34 34,37.57 34,37.8 C 34,38 34.67,38 34.98,38 C 35.45,38 35.94,37.97 36.37,38.18 C 36.79,38.38 37,38.9 37,39.42 C 37,40.44 36.26,41 34.8,41 C 34.18,41 33,40.9 33,40.05 Z M 22,36.5 C 22,35.26 22.72,34 24.09,34 C 25.33,34 26,35.21 26,36.33 H 23.39 C 23.39,37.43 23.67,38.25 24.64,38.25 C 25.12,38.25 25.47,37.91 25.77,37.57 L 26,37.71 C 25.56,38.46 24.91,39 24.02,39 C 22.65,39 22,37.7 22,36.5 Z M 24.73,36 C 24.73,35.52 24.83,34.32 24.09,34.32 S 23.4,35.52 23.39,36 H 24.73 Z M 44,36.5 C 44,35.26 44.72,34 46.09,34 C 47.33,34 48,35.21 48,36.33 H 45.39 C 45.39,37.43 45.67,38.25 46.64,38.25 C 47.12,38.25 47.47,37.91 47.77,37.57 L 48,37.71 C 47.56,38.46 46.91,39 46.02,39 C 44.65,39 44,37.7 44,36.5 Z M 46.73,36 C 46.73,35.52 46.83,34.32 46.09,34.32 S 45.4,35.52 45.39,36 H 46.73 Z M 16,38.72 C 16.4,38.65 16.51,38.39 16.51,38 V 31.97 C 16.51,31.59 16.41,31.35 16,31.29 V 31 H 18 V 34.33 C 18.4,33.73 18.7,33.41 19.23,33.41 C 20.21,33.41 21,34.32 21,35.16 V 38 C 21,38.4 21.1,38.61 21.48,38.72 V 39 H 19 V 38.72 C 19.38,38.62 19.5,38.4 19.5,38.02 V 35.16 C 19.5,34.8 19.16,34.21 18.66,34.21 C 18.4,34.21 18.01,34.59 18.01,34.88 V 38.05 C 18.01,38.42 18.08,38.62 18.46,38.72 V 39 H 16 V 38.72 Z M 38,38.72 C 38.4,38.65 38.51,38.39 38.51,38 V 31.97 C 38.51,31.59 38.41,31.35 38,31.29 V 31 H 40 V 34.33 C 40.4,33.73 40.7,33.41 41.23,33.41 C 42.21,33.41 43,34.32 43,35.16 V 38 C 43,38.4 43.1,38.61 43.48,38.72 V 39 H 41 V 38.72 C 41.38,38.62 41.5,38.4 41.5,38.02 V 35.16 C 41.5,34.8 41.16,34.21 40.66,34.21 C 40.4,34.21 40.01,34.59 40.01,34.88 V 38.05 C 40.01,38.42 40.08,38.62 40.46,38.72 V 39 H 38 V 38.72 Z M 27,38.72 C 27.4,38.65 27.51,38.39 27.51,38 V 33.97 C 27.51,33.59 27.41,33.35 27,33.29 V 33 H 29 V 34.33 C 29.4,33.73 29.7,33.41 30.23,33.41 C 31.21,33.41 32,34.32 32,35.16 V 38 C 32,38.4 32.1,38.61 32.48,38.72 V 39 H 30 V 38.72 C 30.38,38.62 30.45,38.4 30.5,38.02 V 35.16 C 30.5,34.8 30.16,34.21 29.66,34.21 C 29.4,34.21 29.01,34.59 29.01,34.88 V 38.05 C 29.01,38.42 29.08,38.62 29.46,38.72 V 39 H 27 V 38.72 Z M 12.3,31 C 12.96,31 13.7,31.52 14.32,31.52 C 14.43,31.52 14.53,31.47 14.6,31.36 A 0.85,0.85 0 0,0 14.74,31.01 H 15 V 33.65 H 14.76 C 14.33,32.56 13.73,31.5 12.41,31.5 C 10.73,31.5 10.5,33.8 10.5,34.99 C 10.5,37.31 11.31,38.5 12.52,38.5 C 13.49,38.5 14.16,37.77 14.72,37.06 L 15,37.34 C 14.35,38.22 13.55,39 12.38,39 C 10.2,39 9,37.05 9,35.05 C 9,33.12 10.13,31 12.3,31 Z M 17.03,21.7 A 7.7,7.7 0 0,0 15.97,21.6 C 15.47,21.58 15.29,21.25 15.43,20.62 A 0.8,0.8 0 0,1 16.16,19.99 A 7.07,7.07 0 0,0 17.8,19.71 C 18.08,19.63 18.32,19.47 18.52,19.23 C 18.6,19.13 18.63,19.02 18.62,18.89 A 0.3,0.3 0 0,0 18.26,18.63 C 17.37,18.87 16.48,18.95 15.6,18.86 C 15.15,18.82 14.96,18.56 15,18.12 L 15.04,17.8 C 15.09,17.37 15.33,17.14 15.74,17.11 L 17.01,17.03 C 17.43,17 17.77,16.63 17.75,16.19 C 17.74,15.83 17.81,15.49 17.97,15.19 C 18.02,15.08 18.13,15 18.25,15 C 18.37,15 18.49,15.06 18.55,15.17 L 19.2,16.31 C 19.28,16.45 19.4,16.55 19.56,16.61 C 20.74,16.97 21.6,16.65 22.14,15.62 A 0.46,0.46 0 0,1 22.52,15.38 C 22.67,15.38 22.82,15.46 22.91,15.59 L 23.53,16.62 C 23.63,16.78 23.77,16.87 23.95,16.9 L 25.12,17.07 C 25.32,17.1 25.44,17.21 25.48,17.42 C 25.56,17.82 25.41,18.09 25.03,18.23 C 23.71,18.73 21.65,18.5 20.28,18.41 C 20.12,18.39 20.04,18.47 20.04,18.63 C 20.06,19.18 20.94,19.1 20.88,19.63 L 20.76,20.51 C 20.73,20.76 20.93,20.98 21.17,20.97 A 0.4,0.4 0 0,0 21.39,20.9 L 23.53,19.35 A 0.45,0.45 0 0,1 24.17,19.45 C 24.43,19.82 24.39,20.16 24.05,20.46 A 18.6,18.6 0 0,1 21.97,22.05 A 0.36,0.36 0 0,0 21.87,22.53 C 23.15,24.63 24.76,25.87 26.69,26.23 C 27.05,26.29 27.09,26.45 26.82,26.71 C 23.83,29.45 21.7,27.46 20.97,24.21 A 0.4,0.4 0 0,0 20.67,23.91 A 0.4,0.4 0 0,0 20.27,24.07 A 23.35,23.35 0 0,1 17.79,27.15 C 17.62,27.33 17.42,27.37 17.19,27.26 A 0.3,0.3 0 0,1 17.06,26.86 C 17.85,25.2 18.76,23.7 19.8,22.36 A 0.6,0.6 0 0,0 19.57,21.44 C 19.23,21.28 18.95,21.36 18.72,21.66 A 85.63,85.63 0 0,0 16.05,25.46 C 15.49,26.31 15.2,26.23 15.18,25.2 C 15.18,25.08 15.21,24.96 15.28,24.84 A 24.16,24.16 0 0,1 17.18,21.92 A 0.2,0.2 0 0,0 17.03,21.69 Z M 36.65,19.19 C 36.3,20.71 35.16,20.55 34.05,20.55 C 33.88,20.55 33.75,20.62 33.68,20.77 A 0.39,0.39 0 0,0 33.71,21.16 C 33.79,21.3 33.91,21.4 34.05,21.46 C 34.63,21.66 35.21,21.9 35.77,22.18 A 0.6,0.6 0 0,1 36.07,22.95 C 35.92,23.27 35.67,23.41 35.31,23.35 C 34.87,23.29 34.44,23.16 34.01,22.97 A 0.3,0.3 0 0,0 33.61,23.23 A 92.4,92.4 0 0,0 33.51,27.47 C 33.51,27.67 33.38,28.03 33.13,28 A 0.22,0.22 0 0,1 32.96,27.88 C 32.28,26.48 32.69,25.06 32.69,23.56 A 0.23,0.23 0 0,0 32.33,23.38 C 31.45,24.03 30.55,24.62 29.64,25.15 C 29.4,25.29 29.15,25.34 28.89,25.29 A 0.62,0.62 0 0,1 28.46,24.97 A 3.77,3.77 0 0,1 28,23.38 C 28,23.25 28.05,23.22 28.16,23.28 C 28.81,23.62 29.46,23.55 30.13,23.08 C 31.01,22.48 31.73,21.91 32.29,21.38 C 32.69,21.01 32.61,20.84 32.08,20.88 C 31.07,20.93 30.24,21.45 29.16,21.32 A 0.69,0.69 0 0,1 28.56,20.73 L 28.46,20.13 C 28.41,19.75 28.58,19.55 28.96,19.53 A 17,17 0 0,0 32.17,18.98 C 32.47,18.9 32.61,18.72 32.6,18.41 V 18.21 C 32.59,18.03 32.49,17.95 32.3,17.99 L 30.14,18.39 C 29.48,18.52 29.04,18.26 28.85,17.61 A 2.83,2.83 0 0,1 28.8,17.44 C 28.68,16.95 28.86,16.64 29.34,16.51 C 31.81,15.84 34.28,15.83 36.76,16.47 A 0.32,0.32 0 0,1 37,16.79 C 36.97,17.91 34.84,17.83 34.1,17.79 A 0.54,0.54 0 0,0 33.54,18.32 C 33.54,18.5 33.54,18.72 33.77,18.76 L 36.65,19.19 Z M 11,25.18 C 10.94,24.18 11.49,23.24 12.21,22.7 C 12.33,22.61 12.42,22.5 12.48,22.34 A 9.2,9.2 0 0,0 12.78,17.34 C 12.75,17.18 12.85,17.02 12.99,17 A 0.5,0.5 0 0,1 13.47,17.21 C 13.76,17.57 13.92,17.97 13.96,18.4 C 14.12,20.26 13.88,24.97 12.09,25.92 A 0.68,0.68 0 0,1 11.73,26 C 11.35,25.98 11.03,25.62 11.01,25.18 Z" fill="rgb(253, 254, 252)"/>
<path d="M 38.38,19.025 A 0.55,0.55 0 0,0 37.94,19.24 C 37.81,19.4 37.94,19.6 38.12,19.7 C 38.26,19.77 38.36,19.88 38.42,20.03 C 39.18,21.59 38.46,23.23 37.14,24.28 C 36.94,24.44 36.95,24.74 37.16,24.88 C 37.36,25.01 37.56,25.03 37.79,24.95 C 39.64,24.29 41.62,24.18 43.73,24.62 C 44.15,24.7 44.53,24.33 44.45,23.92 C 44.18,22.54 44.35,21.13 44.95,19.7 A 0.5,0.5 0 0,0 45,19.45 A 0.53,0.53 0 0,0 44.44,19 A 51,51 0 0,1 38.39,19.04 Z M 42.81,20.56 L 40.56,20.68 A 0.43,0.43 0 0,0 40.19,20.97 L 39.71,22.39 C 39.62,22.67 39.87,22.95 40.16,22.92 L 42.76,22.64 A 0.42,0.42 0 0,0 43.12,22.27 L 43.25,21.01 A 0.42,0.42 0 0,0 42.81,20.56 Z" fill="rgb(253, 254, 252)" fill-rule="evenodd"/>
</svg>
