<?xml version="1.0" encoding="UTF-8"?>
<!-- generated by Finnhub -->
<svg viewBox="0 0 55.5 55.5" xmlns="http://www.w3.org/2000/svg">
<path d="M 0,0 H 55.5 V 55.5 H 0 Z" fill="rgb(239, 242, 248)"/>
<path d="M 21.49,31.985 H 34 C 33.4,37.76 27.29,40 20.78,40 C 15.58,40 10.09,39.1 8,38.66 V 38.27 C 19.14,39.04 21.61,34.39 21.5,32 Z M 34.5,24 C 30.4,24.04 22,24 22,24 C 22.6,18.24 28.71,16 35.22,16 C 40.42,16 45.91,16.9 48,17.34 V 17.73 C 36.86,16.96 34.39,21.6 34.5,24 Z" fill="rgb(1, 115, 198)"/>
<path d="M 47.31,30.985 L 46.28,28.7 L 45.5,29.94 V 31 H 44 V 25 H 45.5 V 27.42 L 47.06,25 H 48.74 L 47.32,27.42 L 49,31 H 47.32 Z M 40.65,31 C 39.08,31 38,29.88 38,28.23 V 27.77 C 38,26.15 39.07,25 40.62,25 C 41.76,25 42.74,25.67 43,26.88 L 41.49,27.28 C 41.37,26.83 41.06,26.41 40.58,26.41 C 39.9,26.41 39.5,27.12 39.5,27.73 V 28.33 C 39.5,28.93 39.9,29.59 40.56,29.59 C 41,29.59 41.46,29.51 41.65,28.88 L 42.93,29.46 C 42.51,30.67 41.88,31 40.65,31 Z M 35,31 V 25 H 36.5 V 31 H 35 Z M 21,31 V 25 H 22.7 L 24.07,28.27 L 25.48,25 H 27 V 31 H 25.48 V 27.92 L 24.05,31 L 22.5,27.92 V 31 H 21 Z M 28,31 V 25 H 29.7 L 31.07,28.27 L 32.48,25 H 34 V 31 H 32.48 V 27.92 L 31.05,31 L 29.5,27.92 V 31 H 28 Z M 18,31 V 25 H 19.5 V 31 H 18 Z M 15.5,25 H 17 V 31 H 15.5 V 29 H 13.5 V 31 H 12 V 25 H 13.5 V 27.5 H 15.5 V 25 Z M 8.55,31 A 3.4,3.4 0 0,1 6,30.04 L 6.75,29 C 7.24,29.46 7.82,29.69 8.49,29.69 C 8.78,29.69 9.4,29.65 9.4,29.24 C 9.4,28.61 7.55,28.59 7.12,28.38 C 6.53,28.08 6.19,27.58 6.19,26.9 V 26.88 C 6.19,25.6 7.34,25 8.48,25 C 9.31,25 10.21,25.25 10.79,25.88 L 10.12,26.89 C 9.67,26.5 9.02,26.29 8.42,26.29 C 7.92,26.29 7.68,26.43 7.68,26.69 C 7.68,26.86 7.78,26.96 7.93,27.01 C 8.35,27.16 8.78,27.18 9.21,27.29 C 9.76,27.39 10.41,27.62 10.73,28.11 C 10.88,28.33 11,28.68 11,29.09 V 29.12 C 11,29.7 10.78,30.15 10.35,30.49 C 9.92,30.83 9.32,31 8.55,31 Z"/>
</svg>
