<?xml version="1.0" encoding="UTF-8"?>
<!-- generated by Finnhub -->
<svg viewBox="0 0 55.5 55.5" xmlns="http://www.w3.org/2000/svg">
<path d="M 0,0 H 55.5 V 55.5 H 0 Z" fill="rgb(239, 242, 248)"/>
<path d="M 27.99,44.985 A 17,17 0 1,0 28,11 A 17,17 0 0,0 28,45 Z M 28,43 A 15,15 0 1,0 28,13 A 15,15 0 0,0 28,43 Z M 41.96,29 A 13.95,13.95 0 0,1 41.42,32 H 38.98 C 39.32,31.05 39.55,30.05 39.64,29 H 41.96 Z M 28.38,42 A 14,14 0 0,0 41.08,33 H 38.56 A 11.69,11.69 0 0,1 28.95,39.64 A 1.07,1.07 0 1,1 28.65,38.54 A 10.55,10.55 0 0,0 28.84,17.48 A 1.07,1.07 0 1,1 28.48,16 H 35.22 A 14,14 0 1,0 25.38,41.75 C 24.88,41.3 24.38,40.49 24.38,39.19 C 24.38,36.8 26.58,35.81 28.15,35.81 C 29.73,35.81 36,34.22 36,28.23 C 36,22.23 30.72,21 27.68,21 H 20.48 L 22,22.33 V 34 H 24.37 L 26.49,30.41 C 27.13,30.53 28.52,30.5 29.01,29.49 C 29.61,28.23 29.03,27.41 28.73,27.02 L 29.52,26.2 C 29.84,26.47 30.48,27.3 30.48,28.43 C 30.48,29.84 29.5,31.45 27.18,31.65 L 25.06,35 H 21 V 22.75 L 17.74,20 H 28.15 C 31.06,20.09 37,21.24 37,28.23 C 37,34.36 31.06,36.94 28.15,36.93 C 27.27,36.94 25.51,37.46 25.51,39.45 C 25.51,41.23 27.24,41.86 28.38,41.99 Z M 42,28 C 42,26.97 41.89,25.97 41.68,25 H 39.29 C 39.54,25.96 39.68,26.96 39.68,28 H 42 Z M 40.13,21 C 40.67,21.94 41.11,22.94 41.42,24 H 38.98 C 38.58,22.92 38.03,21.9 37.35,21 H 40.13 Z M 36.51,20 A 11.69,11.69 0 0,0 31.93,17 H 36.66 C 37.75,17.85 38.7,18.87 39.49,20 H 36.51 Z" fill="url(#a)" fill-rule="evenodd"/>
<defs>
<linearGradient id="a" x1="11" x2="46.29" y1="28.75" y2="29.49" gradientUnits="userSpaceOnUse">
<stop stop-color="rgb(89, 190, 185)" offset="0"/>
<stop stop-color="rgb(15, 129, 154)" offset="1"/>
</linearGradient>
</defs>
</svg>
