<?xml version="1.0" encoding="UTF-8"?>
<!-- generated by Finnhub -->
<svg viewBox="0 0 55.5 55.5" xmlns="http://www.w3.org/2000/svg">
<path d="M 0,0 H 55.5 V 55.5 H 0 Z" fill="url(#a)"/>
<path d="M 18.99,36.985 H 20.82 C 21.25,36.95 22.26,36.63 22.74,34.9 L 27.75,18.92 C 28.3,16.39 30.89,13.08 34.59,13 H 37 V 19 H 35.18 C 34.59,19 33.68,19.47 33.16,21.29 A 1257.4,1257.4 0 0,1 28.3,36.98 C 27.56,39.3 25.62,42.76 20.82,43 H 19 V 37 Z M 19,37 V 19 H 13 V 37 H 19 Z M 37,19 V 37 H 43 V 19 H 37 Z" fill="rgb(254, 254, 253)"/>
<defs>
<linearGradient id="a" x1="10.42" x2="68.15" y1="9.71" y2="76.02" gradientUnits="userSpaceOnUse">
<stop stop-color="rgb(25, 29, 31)" offset="0"/>
<stop stop-color="rgb(5, 5, 8)" offset="1"/>
</linearGradient>
</defs>
</svg>
