<?xml version="1.0" encoding="UTF-8"?>
<!-- generated by Finnhub -->
<svg viewBox="0 0 55.5 55.5" xmlns="http://www.w3.org/2000/svg">
<rect width="56" height="56" fill="rgb(239, 242, 248)"/>
<path d="m28.942 16.174c0.2719 0 0.4923-0.2209 0.4923-0.4935 0-0.2725-0.2204-0.4935-0.4923-0.4935-0.2718 0-0.4922 0.221-0.4922 0.4935 0 0.2726 0.2204 0.4935 0.4922 0.4935z" fill="rgb(116, 132, 144)"/>
<path d="m25.292 18.633c0.271 0 0.4907-0.2202 0.4907-0.492 0-0.2717-0.2197-0.492-0.4907-0.492s-0.4907 0.2203-0.4907 0.492c0 0.2718 0.2197 0.492 0.4907 0.492z" fill="rgb(116, 132, 144)"/>
<path d="m30.45 11.11c0.0603 0.18-0.7755 0.6958-0.9324 0.7806-2.429 1.3079-4.5166 2.5598-6.2627 3.7558-1.5962 1.0937-3.3463 2.7198-4.4039 4.5062-0.3098 0.3257-0.5471 0.6998-0.7121 1.1224-0.0171 0.0453-0.0458 0.0816-0.086 0.1089-0.0251 0.0171-0.0447 0.0398-0.0588 0.068-1.0984 2.0845-1.8105 4.7255-1.4454 7.0943 0.0131 0.0867-0.0261 0.1483-0.1177 0.1846-2.3249-1.248-5.0436-3.4368-5.4313-6.1293v-0.5294c0.8781-5.7873 12.367-9.64 17.201-10.77 0.2702-0.063 2.1419-0.509 2.2495-0.1921z" fill="rgb(47, 147, 208)"/>
<path d="m18.851 20.153c-0.862 1.7123-0.7392 3.3661 0.3681 4.9614 2.4939 3.5971 6.9959 5.801 10.692 7.9142 0.1639 0.0927 0.352 0.247 0.5642 0.4628 0.0503 0.0515 0.0423 0.0903-0.0241 0.1165-0.5432 0.2163-2.3868-0.2405-2.7866-0.3403-3.9609-0.9832-7.7055-2.4954-11.234-4.5364-0.413-2.6794 0.4764-6.5347 2.4199-8.5782z" fill="rgb(35, 97, 171)"/>
<path d="m25.55 44.885c-0.0603-0.18 0.7755-0.6958 0.9324-0.7805 2.429-1.3079 4.5166-2.5599 6.2627-3.7559 1.5962-1.0936 3.3463-2.7197 4.4039-4.5062 0.3098-0.3257 0.5471-0.6998 0.7121-1.1223 0.0171-0.0454 0.0458-0.0817 0.086-0.1089 0.0251-0.0172 0.0447-0.0399 0.0588-0.0681 1.0984-2.0844 1.8105-4.7255 1.4454-7.0943-0.0131-0.0867 0.0261-0.1482 0.1177-0.1845 2.3249 1.2479 5.0436 3.4367 5.4313 6.1292v0.5294c-0.8781 5.7874-12.367 9.6401-17.201 10.77-0.2702 0.063-2.1419 0.509-2.2495 0.1921z" fill="rgb(47, 147, 208)"/>
<path d="m37.149 35.842c0.862-1.7123 0.7392-3.3662-0.3681-4.9615-2.4939-3.5971-6.9959-5.801-10.692-7.9141-0.1639-0.0928-0.352-0.2471-0.5642-0.4629-0.0503-0.0514-0.0423-0.0902 0.0241-0.1165 0.5432-0.2163 2.3868 0.2405 2.7866 0.3404 3.9609 0.9832 7.7055 2.4953 11.234 4.5364 0.413 2.6793-0.4764 6.5347-2.4199 8.5782z" fill="rgb(35, 97, 171)"/>
<path d="m22.003 22.865c0.4633 0 0.8388-0.3766 0.8388-0.8411 0-0.4644-0.3755-0.841-0.8388-0.841s-0.8388 0.3766-0.8388 0.841c0 0.4645 0.3755 0.8411 0.8388 0.8411z" fill="rgb(116, 132, 144)"/>
<path d="m25.146 27.64c0.6533 0 1.1828-0.5309 1.1828-1.1859s-0.5295-1.1859-1.1828-1.1859c-0.6532 0-1.1828 0.5309-1.1828 1.1859s0.5296 1.1859 1.1828 1.1859z" fill="rgb(116, 132, 144)"/>
<path d="m30.818 30.742c0.6549 0 1.1858-0.5323 1.1858-1.1889 0-0.6567-0.5309-1.189-1.1858-1.189-0.655 0-1.1859 0.5323-1.1859 1.189 0 0.6566 0.5309 1.1889 1.1859 1.1889z" fill="rgb(116, 132, 144)"/>
<path d="m33.967 34.814c0.4599 0 0.8328-0.3738 0.8328-0.835 0-0.4611-0.3729-0.835-0.8328-0.835-0.46 0-0.8328 0.3739-0.8328 0.835 0 0.4612 0.3728 0.835 0.8328 0.835z" fill="rgb(116, 132, 144)"/>
<path d="m30.678 38.355c0.2727 0 0.4937-0.2216 0.4937-0.495s-0.221-0.495-0.4937-0.495-0.4937 0.2216-0.4937 0.495 0.221 0.495 0.4937 0.495z" fill="rgb(116, 132, 144)"/>
<path d="m27.032 40.818c0.2702 0 0.4892-0.2196 0.4892-0.4905s-0.219-0.4905-0.4892-0.4905-0.4892 0.2196-0.4892 0.4905 0.219 0.4905 0.4892 0.4905z" fill="rgb(116, 132, 144)"/>
</svg>
