<?xml version="1.0" encoding="UTF-8"?>
<!-- generated by Finnhub -->
<svg viewBox="0 0 55.5 55.5" xmlns="http://www.w3.org/2000/svg">
<path d="M 0,0 H 55.5 V 55.5 H 0 Z" fill="rgb(47, 47, 46)"/>
<path d="M 28.04,12.055 A 0.54,0.54 0 1,0 28.05,11 C 27.75,11 27.51,11.24 27.51,11.53 C 27.51,11.83 27.76,12.07 28.05,12.07 Z M 22.31,13.13 A 0.54,0.54 0 1,0 22.31,12.06 C 22.01,12.06 21.77,12.3 21.77,12.59 C 21.77,12.89 22.01,13.13 22.31,13.13 Z M 34.23,12.59 C 34.23,12.89 33.99,13.13 33.69,13.13 A 0.54,0.54 0 0,1 33.15,12.59 C 33.15,12.29 33.39,12.06 33.69,12.06 C 33.99,12.06 34.23,12.3 34.23,12.59 Z M 28.05,14.15 C 28.46,14.15 28.79,13.82 28.79,13.42 C 28.79,13.02 28.46,12.69 28.05,12.69 C 27.65,12.69 27.32,13.01 27.32,13.42 C 27.32,13.82 27.65,14.15 28.05,14.15 Z M 23.7,14.36 C 23.7,14.76 23.37,15.09 22.96,15.09 A 0.73,0.73 0 0,1 22.22,14.36 C 22.22,13.96 22.55,13.63 22.96,13.63 C 23.36,13.63 23.7,13.96 23.7,14.36 Z M 33.04,15.09 C 33.44,15.09 33.78,14.77 33.78,14.36 C 33.78,13.96 33.45,13.63 33.04,13.63 C 32.64,13.63 32.3,13.96 32.3,14.36 C 32.3,14.76 32.63,15.09 33.04,15.09 Z M 29.03,15.73 C 29.03,16.26 28.59,16.69 28.05,16.69 A 0.97,0.97 0 0,1 27.08,15.73 C 27.08,15.2 27.52,14.77 28.05,14.77 C 28.59,14.77 29.03,15.2 29.03,15.73 Z M 17.3,15.89 C 17.6,15.89 17.83,15.65 17.83,15.35 C 17.83,15.05 17.59,14.82 17.3,14.82 C 17,14.82 16.76,15.06 16.76,15.35 C 16.76,15.65 17,15.89 17.3,15.89 Z M 39.32,15.44 C 39.32,15.73 39.08,15.97 38.78,15.97 A 0.54,0.54 0 0,1 38.24,15.44 C 38.24,15.14 38.48,14.9 38.78,14.9 C 39.08,14.9 39.32,15.14 39.32,15.44 Z M 23.76,17.5 C 24.3,17.5 24.74,17.07 24.74,16.54 A 0.97,0.97 0 0,0 23.76,15.57 A 0.97,0.97 0 0,0 22.79,16.54 C 22.79,17.07 23.22,17.5 23.76,17.5 Z M 33.21,16.54 C 33.21,17.07 32.78,17.5 32.24,17.5 A 0.97,0.97 0 0,1 31.26,16.54 C 31.26,16.01 31.7,15.57 32.24,15.57 S 33.21,16.01 33.21,16.54 Z M 18.52,17.52 C 18.92,17.52 19.26,17.2 19.26,16.8 C 19.26,16.4 18.93,16.07 18.52,16.07 C 18.12,16.07 17.78,16.39 17.78,16.8 C 17.78,17.2 18.11,17.52 18.52,17.52 Z M 38.29,16.88 A 0.73,0.73 0 0,1 36.81,16.88 C 36.81,16.48 37.15,16.15 37.56,16.15 C 37.96,16.15 38.29,16.48 38.29,16.88 Z M 28.05,19.7 A 1.2,1.2 0 0,0 29.27,18.5 C 29.27,17.84 28.73,17.3 28.05,17.3 A 1.2,1.2 0 0,0 26.84,18.5 C 26.84,19.17 27.38,19.7 28.05,19.7 Z M 21,18.57 C 21,19.1 20.57,19.53 20.03,19.53 A 0.97,0.97 0 0,1 19.05,18.57 C 19.05,18.04 19.49,17.61 20.03,17.61 S 21,18.04 21,18.57 Z M 36.05,19.61 C 36.59,19.61 37.02,19.18 37.02,18.65 A 0.97,0.97 0 0,0 36.05,17.69 A 0.97,0.97 0 0,0 35.07,18.65 C 35.07,19.18 35.51,19.61 36.05,19.61 Z M 25.95,19.15 C 25.95,19.82 25.4,20.35 24.73,20.35 A 1.2,1.2 0 0,1 23.51,19.15 C 23.51,18.49 24.05,17.95 24.73,17.95 C 25.4,17.95 25.94,18.49 25.94,19.15 Z M 31.27,20.35 A 1.2,1.2 0 0,0 32.49,19.15 C 32.49,18.49 31.95,17.95 31.27,17.95 A 1.2,1.2 0 0,0 30.06,19.15 C 30.06,19.82 30.6,20.35 31.27,20.35 Z M 14.12,19.82 C 14.12,20.12 13.88,20.35 13.58,20.35 A 0.54,0.54 0 0,1 13.04,19.82 C 13.04,19.52 13.29,19.28 13.58,19.28 C 13.88,19.28 14.12,19.52 14.12,19.82 Z M 42.42,20.35 C 42.72,20.35 42.96,20.11 42.96,19.82 C 42.96,19.52 42.71,19.28 42.42,19.28 A 0.54,0.54 0 1,0 42.42,20.35 Z M 23.06,20.7 C 23.06,21.36 22.51,21.9 21.84,21.9 A 1.2,1.2 0 0,1 20.63,20.7 C 20.63,20.04 21.17,19.5 21.84,19.5 C 22.51,19.5 23.06,20.04 23.06,20.7 Z M 34.24,21.98 A 1.2,1.2 0 0,0 35.45,20.78 C 35.45,20.12 34.91,19.58 34.24,19.58 A 1.2,1.2 0 0,0 33.02,20.78 C 33.02,21.45 33.57,21.98 34.24,21.98 Z M 15.98,20.76 C 15.98,21.16 15.64,21.49 15.24,21.49 A 0.73,0.73 0 0,1 14.5,20.76 C 14.5,20.36 14.83,20.03 15.24,20.03 C 15.64,20.03 15.98,20.36 15.98,20.76 Z M 40.76,21.49 C 41.17,21.49 41.5,21.16 41.5,20.76 C 41.5,20.36 41.17,20.03 40.76,20.03 C 40.36,20.03 40.02,20.36 40.02,20.76 C 40.02,21.16 40.35,21.49 40.76,21.49 Z M 29.53,21.8 C 29.53,22.64 28.84,23.32 27.99,23.32 C 27.14,23.32 26.45,22.64 26.45,21.8 S 27.14,20.28 27.99,20.28 C 28.84,20.28 29.53,20.96 29.53,21.8 Z M 17.27,22.88 C 17.81,22.88 18.24,22.45 18.24,21.92 A 0.97,0.97 0 0,0 17.27,20.95 A 0.97,0.97 0 0,0 16.29,21.92 C 16.29,22.45 16.73,22.88 17.27,22.88 Z M 39.71,21.92 C 39.71,22.45 39.27,22.88 38.73,22.88 A 0.97,0.97 0 0,1 37.76,21.92 C 37.76,21.38 38.19,20.95 38.73,20.95 S 39.71,21.38 39.71,21.92 Z M 23.93,24.78 C 24.78,24.78 25.47,24.1 25.47,23.26 S 24.78,21.74 23.93,21.74 C 23.08,21.74 22.39,22.42 22.39,23.26 S 23.08,24.78 23.93,24.78 Z M 33.59,23.26 C 33.59,24.1 32.89,24.78 32.05,24.78 C 31.2,24.78 30.51,24.1 30.51,23.26 S 31.2,21.74 32.05,21.74 C 32.9,21.74 33.59,22.42 33.59,23.26 Z M 19.7,24.51 A 1.2,1.2 0 0,0 20.91,23.31 C 20.91,22.65 20.37,22.11 19.7,22.11 A 1.2,1.2 0 0,0 18.48,23.31 C 18.48,23.97 19.03,24.51 19.7,24.51 Z M 37.5,23.31 C 37.5,23.97 36.95,24.51 36.28,24.51 A 1.2,1.2 0 0,1 35.07,23.31 C 35.07,22.65 35.61,22.11 36.28,22.11 C 36.95,22.11 37.5,22.65 37.5,23.31 Z M 11.53,25.64 A 0.54,0.54 0 1,0 11.53,24.57 A 0.54,0.54 0 1,0 11.53,25.64 Z M 45,25.1 C 45,25.4 44.76,25.64 44.46,25.64 A 0.54,0.54 0 0,1 43.92,25.1 C 43.92,24.81 44.16,24.57 44.46,24.57 C 44.76,24.57 45,24.81 45,25.11 Z M 13.42,26.16 C 13.82,26.16 14.16,25.83 14.16,25.43 C 14.16,25.03 13.83,24.7 13.42,24.7 C 13.02,24.7 12.68,25.03 12.68,25.43 C 12.68,25.83 13.01,26.16 13.42,26.16 Z M 43.32,25.43 C 43.32,25.83 42.99,26.16 42.58,26.16 A 0.73,0.73 0 0,1 41.84,25.43 C 41.84,25.03 42.17,24.7 42.58,24.7 C 42.98,24.7 43.32,25.03 43.32,25.43 Z M 15.72,26.8 C 16.27,26.8 16.7,26.37 16.7,25.83 A 0.97,0.97 0 0,0 15.73,24.87 A 0.97,0.97 0 0,0 14.75,25.83 C 14.75,26.37 15.19,26.8 15.73,26.8 Z M 41.25,25.83 C 41.25,26.37 40.81,26.8 40.27,26.8 A 0.97,0.97 0 0,1 39.3,25.83 C 39.3,25.3 39.73,24.87 40.27,24.87 S 41.25,25.3 41.25,25.83 Z M 18.5,27.52 A 1.2,1.2 0 0,0 19.72,26.32 C 19.72,25.65 19.18,25.12 18.5,25.12 A 1.2,1.2 0 0,0 17.29,26.32 C 17.29,26.98 17.83,27.52 18.5,27.52 Z M 38.71,26.32 C 38.71,26.98 38.17,27.52 37.5,27.52 A 1.2,1.2 0 0,1 36.28,26.32 C 36.28,25.65 36.82,25.12 37.5,25.12 C 38.17,25.12 38.71,25.65 38.71,26.32 Z M 34.21,28.35 C 35.06,28.35 35.75,27.66 35.75,26.82 C 35.75,25.98 35.05,25.3 34.21,25.3 C 33.35,25.3 32.66,25.98 32.66,26.82 S 33.36,28.35 34.21,28.35 Z M 23.31,26.95 C 23.31,27.79 22.62,28.47 21.77,28.47 C 20.92,28.47 20.23,27.79 20.23,26.95 S 20.93,25.43 21.77,25.43 C 22.62,25.43 23.31,26.11 23.31,26.95 Z M 18.57,30.87 A 1.2,1.2 0 0,0 19.79,29.67 C 19.79,29.01 19.24,28.47 18.57,28.47 A 1.2,1.2 0 0,0 17.36,29.67 C 17.36,30.34 17.9,30.87 18.57,30.87 Z M 38.64,29.67 C 38.64,30.34 38.1,30.87 37.43,30.87 A 1.2,1.2 0 0,1 36.21,29.67 C 36.21,29.01 36.76,28.47 37.43,28.47 C 38.1,28.47 38.64,29.01 38.64,29.67 Z M 15.8,31.13 C 16.33,31.13 16.77,30.7 16.77,30.17 A 0.97,0.97 0 0,0 15.8,29.21 A 0.97,0.97 0 0,0 14.82,30.17 C 14.82,30.7 15.26,31.13 15.79,31.13 Z M 41.18,30.17 C 41.18,30.7 40.74,31.13 40.21,31.13 A 0.97,0.97 0 0,1 39.23,30.17 C 39.23,29.64 39.67,29.21 40.21,29.21 C 40.74,29.21 41.18,29.64 41.18,30.17 Z M 22.52,32.68 C 23.37,32.68 24.06,32 24.06,31.16 S 23.37,29.64 22.52,29.64 C 21.67,29.64 20.98,30.32 20.98,31.16 S 21.68,32.68 22.52,32.68 Z M 35,31.15 C 35,31.99 34.3,32.67 33.46,32.67 C 32.6,32.67 31.91,31.99 31.91,31.15 S 32.61,29.63 33.46,29.63 C 34.31,29.63 35,30.31 35,31.15 Z M 13.49,31.29 C 13.89,31.29 14.22,30.96 14.22,30.56 A 0.73,0.73 0 0,0 12.74,30.56 C 12.74,30.96 13.08,31.29 13.49,31.29 Z M 43.25,30.56 C 43.25,30.96 42.92,31.29 42.51,31.29 A 0.73,0.73 0 0,1 41.77,30.56 C 41.77,30.16 42.11,29.83 42.51,29.83 C 42.92,29.83 43.25,30.16 43.25,30.56 Z M 11.61,31.42 C 11.91,31.42 12.15,31.18 12.15,30.89 C 12.15,30.59 11.91,30.35 11.61,30.35 A 0.54,0.54 0 1,0 11.61,31.42 Z M 44.93,30.89 C 44.93,31.19 44.69,31.42 44.39,31.42 A 0.54,0.54 0 0,1 43.85,30.89 C 43.85,30.59 44.09,30.35 44.39,30.35 C 44.69,30.35 44.93,30.59 44.93,30.89 Z M 19.61,33.94 A 1.2,1.2 0 0,0 20.82,32.74 C 20.82,32.07 20.28,31.54 19.61,31.54 A 1.2,1.2 0 0,0 18.39,32.74 C 18.39,33.4 18.93,33.94 19.61,33.94 Z M 37.52,32.84 C 37.52,33.51 36.98,34.04 36.31,34.04 A 1.2,1.2 0 0,1 35.09,32.84 C 35.09,32.19 35.64,31.65 36.31,31.65 C 36.98,31.65 37.52,32.19 37.52,32.85 Z M 25.83,35.41 C 26.68,35.41 27.37,34.73 27.37,33.89 S 26.68,32.37 25.83,32.37 C 24.98,32.37 24.29,33.05 24.29,33.89 S 24.98,35.41 25.83,35.41 Z M 31.69,33.89 C 31.69,34.73 30.99,35.41 30.15,35.41 C 29.3,35.41 28.61,34.73 28.61,33.89 S 29.3,32.37 30.15,32.37 C 31,32.37 31.69,33.05 31.69,33.89 Z M 17.16,35.09 C 17.7,35.09 18.14,34.66 18.14,34.13 A 0.97,0.97 0 0,0 17.16,33.17 A 0.97,0.97 0 0,0 16.19,34.13 C 16.19,34.66 16.62,35.09 17.16,35.09 Z M 39.72,34.24 C 39.72,34.77 39.29,35.2 38.75,35.2 A 0.97,0.97 0 0,1 37.77,34.24 C 37.77,33.71 38.21,33.28 38.75,33.28 S 39.72,33.71 39.72,34.24 Z M 21.85,36.47 A 1.2,1.2 0 0,0 23.06,35.27 C 23.06,34.61 22.52,34.07 21.85,34.07 A 1.2,1.2 0 0,0 20.63,35.27 C 20.63,35.94 21.18,36.47 21.85,36.47 Z M 35.37,35.27 C 35.37,35.94 34.83,36.47 34.15,36.47 A 1.2,1.2 0 0,1 32.94,35.27 C 32.94,34.61 33.48,34.07 34.15,34.07 C 34.83,34.07 35.37,34.61 35.37,35.27 Z M 15.13,36.02 C 15.54,36.02 15.87,35.69 15.87,35.29 C 15.87,34.89 15.54,34.56 15.13,34.56 C 14.73,34.56 14.4,34.88 14.4,35.29 C 14.4,35.69 14.73,36.02 15.13,36.02 Z M 41.52,35.4 C 41.52,35.8 41.19,36.13 40.78,36.13 A 0.73,0.73 0 0,1 40.04,35.4 C 40.04,35 40.37,34.67 40.78,34.67 C 41.18,34.67 41.52,35 41.52,35.4 Z M 13.48,36.76 C 13.78,36.76 14.02,36.52 14.02,36.23 C 14.02,35.93 13.78,35.69 13.48,35.69 A 0.54,0.54 0 1,0 13.48,36.76 Z M 25.84,36.96 C 25.84,37.62 25.3,38.16 24.63,38.16 A 1.2,1.2 0 0,1 23.41,36.96 C 23.41,36.29 23.96,35.76 24.63,35.76 C 25.3,35.76 25.84,36.29 25.84,36.96 Z M 31.23,38.2 A 1.2,1.2 0 0,0 32.44,37 C 32.44,36.34 31.9,35.8 31.23,35.8 A 1.2,1.2 0 0,0 30,37 C 30,37.66 30.54,38.2 31.21,38.2 Z M 42.97,36.34 C 42.97,36.64 42.73,36.87 42.43,36.87 A 0.54,0.54 0 0,1 41.89,36.34 C 41.89,36.04 42.13,35.81 42.43,35.81 C 42.73,35.81 42.97,36.05 42.97,36.34 Z M 28,38.68 A 1.2,1.2 0 0,0 29.22,37.48 C 29.22,36.82 28.67,36.28 28,36.28 A 1.2,1.2 0 0,0 26.79,37.48 C 26.79,38.15 27.33,38.68 28,38.68 Z M 21,37.41 C 21,37.94 20.57,38.37 20.03,38.37 A 0.97,0.97 0 0,1 19.06,37.41 C 19.06,36.88 19.49,36.44 20.03,36.44 S 21.01,36.88 21.01,37.41 Z M 35.97,38.37 C 36.51,38.37 36.94,37.94 36.94,37.41 A 0.97,0.97 0 0,0 35.97,36.44 A 0.97,0.97 0 0,0 34.99,37.41 C 34.99,37.94 35.43,38.37 35.97,38.37 Z M 19.27,39.17 C 19.27,39.58 18.93,39.91 18.53,39.91 A 0.73,0.73 0 0,1 17.79,39.18 C 17.79,38.78 18.12,38.45 18.53,38.45 C 18.93,38.45 19.27,38.78 19.27,39.18 Z M 37.47,39.91 C 37.88,39.91 38.21,39.58 38.21,39.18 C 38.21,38.78 37.88,38.45 37.47,38.45 C 37.07,38.45 36.73,38.78 36.73,39.18 C 36.73,39.58 37.06,39.91 37.47,39.91 Z M 24.64,39.57 C 24.64,40.1 24.2,40.54 23.66,40.54 A 0.97,0.97 0 0,1 22.69,39.57 C 22.69,39.04 23.13,38.61 23.66,38.61 C 24.2,38.61 24.64,39.04 24.64,39.57 Z M 32.19,40.58 C 32.73,40.58 33.16,40.15 33.16,39.62 A 0.97,0.97 0 0,0 32.19,38.65 A 0.97,0.97 0 0,0 31.21,39.62 C 31.21,40.15 31.65,40.58 32.19,40.58 Z M 28.98,40.27 C 28.98,40.8 28.54,41.23 28,41.23 A 0.97,0.97 0 0,1 27.03,40.27 C 27.03,39.74 27.46,39.31 28,39.31 S 28.98,39.74 28.98,40.27 Z M 17.3,41.16 A 0.54,0.54 0 1,0 17.3,40.09 C 17,40.09 16.76,40.33 16.76,40.62 C 16.76,40.92 17,41.16 17.3,41.16 Z M 39.24,40.62 C 39.24,40.92 39,41.16 38.7,41.16 A 0.54,0.54 0 0,1 38.16,40.62 C 38.16,40.32 38.4,40.09 38.7,40.09 C 39,40.09 39.24,40.33 39.24,40.62 Z M 22.86,42.48 C 23.27,42.48 23.6,42.15 23.6,41.75 C 23.6,41.35 23.27,41.02 22.86,41.02 C 22.46,41.02 22.12,41.34 22.12,41.75 C 22.12,42.15 22.46,42.48 22.86,42.48 Z M 33.73,41.79 C 33.73,42.19 33.4,42.52 32.99,42.52 A 0.73,0.73 0 0,1 32.25,41.79 C 32.25,41.39 32.58,41.06 32.99,41.06 C 33.39,41.06 33.73,41.39 33.73,41.79 Z M 28,43.31 C 28.4,43.31 28.74,42.99 28.74,42.58 C 28.74,42.18 28.41,41.85 28,41.85 C 27.6,41.85 27.26,42.18 27.26,42.58 C 27.26,42.98 27.59,43.31 28,43.31 Z M 22.75,43.51 C 22.75,43.81 22.51,44.05 22.21,44.05 A 0.54,0.54 0 0,1 21.67,43.52 C 21.67,43.22 21.91,42.98 22.21,42.98 C 22.51,42.98 22.75,43.22 22.75,43.52 Z M 33.65,44.1 C 33.95,44.1 34.18,43.86 34.18,43.56 C 34.18,43.26 33.94,43.03 33.64,43.03 C 33.34,43.03 33.1,43.27 33.1,43.56 C 33.1,43.86 33.35,44.1 33.64,44.1 Z M 28.54,44.47 C 28.54,44.77 28.3,45 28,45 A 0.54,0.54 0 0,1 27.46,44.47 C 27.46,44.17 27.7,43.93 28,43.93 C 28.3,43.93 28.54,44.17 28.54,44.47 Z" fill="rgb(254, 254, 253)"/>
</svg>
