<?xml version="1.0" encoding="UTF-8"?>
<!-- generated by Finnhub -->
<svg viewBox="0 0 55.5 55.5" xmlns="http://www.w3.org/2000/svg">
<path d="M0 0h55.5v55.5H0z" fill="rgb(239, 242, 248)"/>
<path d="m32.98 29.39 14.62-6.5c.66-.3.45-1.3-.27-1.3H23.87c3.49.57 10.73 2.1 11.8 3.73 1.09 1.63-1.34 3.39-2.69 4.07Z" fill="rgb(190, 29, 44)"/>
<path d="M19.15 26.34c-1.08 1.08 1.13 3.39 2.36 4.4-4.72-2.7-14.03-8.4-13.49-9.49.54-1.08 15.74 1.58 23.27 3.05-3.6.23-11.06.95-12.14 2.04Z" fill="rgb(190, 29, 44)"/>
<path d="M28.26 33.12c-.81.54-8.2-2.26-11.8-3.73 1.34 1.35 18.2 14.57 19.22 13.55.8-.8-4.61-10.05-7.42-14.57.34 1.36.8 4.2 0 4.75Z" fill="rgb(190, 29, 44)"/>
</svg>
