<?xml version="1.0" encoding="UTF-8"?>
<!-- generated by Finnhub -->
<svg viewBox="0 0 55.5 55.5" xmlns="http://www.w3.org/2000/svg">
<path d="M0 0h55.5v55.5H0z" fill="rgb(239, 242, 248)"/>
<path d="M13 15a1 1 0 0 1 1-1h29v2H15v18h17c1.36 0 2-1.3 2-2.5s-.64-2.5-2-2.5h-7c-2.25 0-4-1.75-4-4s1.75-4 4-4h17a1 1 0 0 1 1 1v19a1 1 0 0 1-1 1H13v-2h28V23H25c-1.17 0-2 .84-2 2 0 1.16.83 2 2 2h7c2.46 0 4 2.2 4 4.5S34.46 36 32 36H14a1 1 0 0 1-1-1V15Z" fill="url(#a)"/>
<defs>
<linearGradient id="a" x1="34.5" x2="13" y1="15.5" y2="41.5" gradientUnits="userSpaceOnUse">
<stop stop-color="rgb(40, 112, 135)" offset="0"/>
<stop stop-color="rgb(26, 151, 206)" offset=".49"/>
<stop stop-color="rgb(47, 176, 195)" offset="1"/>
</linearGradient>
</defs>
</svg>
