<?xml version="1.0" encoding="UTF-8"?>
<!-- generated by Finnhub -->
<svg viewBox="0 0 55.5 55.5" xmlns="http://www.w3.org/2000/svg">
<path d="M 0,0 H 55.5 V 55.5 H 0 Z" fill="rgb(234, 226, 218)"/>
<path d="M 25.729999999999997,11.225 C 24.73,12.98 24.49,14.91 25.16,15.94 C 25.63,16.66 25.68,16.67 26.21,16.2 A 7.07,7.07 0 0,0 27.93,12.4 C 27.93,11.41 27.37,10.17 26.87,10 C 26.68,9.94 26.17,10.5 25.74,11.24 Z M 14,12.94 A 4.7,4.7 0 0,0 15.84,16.78 C 16.84,17.54 19.47,18.55 19.74,18.27 C 19.82,18.2 19.79,17.69 19.69,17.15 C 19.49,16.05 18.84,15.35 16.9,14.16 A 15.9,15.9 0 0,1 14.8,12.61 L 14,11.86 V 12.95 Z M 19.8,13.8 C 19.81,15.38 20.42,16.66 21.49,17.35 C 22.09,17.73 22.67,17.98 22.79,17.9 C 23.31,17.6 23.54,16.38 23.27,15.4 C 23.01,14.44 22.73,14.22 20.88,13.47 C 19.81,13.04 19.81,13.04 19.81,13.8 Z M 28.44,14.68 C 26.07,16.82 25.74,19.04 27.44,21.44 L 28.04,22.29 L 28.6,21.59 A 15.66,15.66 0 0,0 30.93,16.65 C 31.1,15.58 30.61,13.69 30.11,13.53 C 29.95,13.49 29.21,14 28.44,14.68 Z M 32.25,17.49 A 4.77,4.77 0 0,0 31.13,18.95 C 31.13,19.35 32.85,19.38 33.83,19.01 C 34.23,18.86 35.03,18.3 35.63,17.77 C 36.72,16.81 36.73,16.8 36.03,16.61 C 34.29,16.11 33.41,16.32 32.25,17.49 Z M 24.03,17.89 A 2.9,2.9 0 0,0 24.21,21.18 L 24.85,21.98 L 25.37,21.33 C 25.67,20.96 25.9,20.2 25.9,19.6 C 25.9,18.56 25.25,17.23 24.74,17.23 C 24.6,17.23 24.28,17.53 24.04,17.88 Z M 14.65,18.59 C 14.38,18.7 14.44,18.94 14.87,19.49 C 15.19,19.89 15.45,20.39 15.45,20.59 C 15.45,21.25 16.88,22.28 18.12,22.5 C 18.81,22.63 19.42,22.68 19.48,22.62 C 19.73,22.37 18.59,19.92 17.94,19.3 C 17.27,18.66 15.39,18.25 14.65,18.58 Z M 19.23,18.85 C 19.23,19.49 20.23,20.75 21.07,21.14 C 22.57,21.85 23,21.77 23,20.74 C 23,19.44 22.1,18.69 20.53,18.69 C 19.81,18.69 19.23,18.77 19.23,18.85 Z M 29.61,23.31 L 28.31,25.88 L 26.95,24.64 C 25.63,23.44 23.01,22.2 21.79,22.2 C 21.3,22.2 21.59,22.63 23.21,24.35 C 24.34,25.55 25.61,27.25 26.08,28.22 C 27.19,30.52 27.2,33.34 26.09,37.6 C 25.24,40.9 25.17,41.8 25.65,43.7 L 25.97,45 H 33.39 C 30.05,38.06 29.74,33.69 32.21,29.18 C 32.27,29.08 31.92,28.84 31.45,28.65 C 29.62,27.88 29.57,27.63 30.5,24 C 30.96,22.2 31.24,20.74 31.12,20.74 C 31.01,20.74 30.32,21.9 29.61,23.31 Z M 34.54,21.74 C 33.94,21.96 33.23,22.31 32.97,22.54 A 7.11,7.11 0 0,0 31.42,25.79 C 31.42,26.26 31.48,26.27 32.07,25.89 C 32.43,25.66 33.67,25.32 34.85,25.14 C 37.3,24.77 37.83,24.47 39.35,22.65 L 40.45,21.32 L 38.04,21.34 C 36.71,21.34 35.14,21.53 34.54,21.74 Z M 18.57,23.56 C 17.85,23.76 17.94,24.09 18.96,24.96 C 19.92,25.77 21.28,25.95 21.8,25.32 C 22.5,24.47 20.05,23.14 18.57,23.56 Z M 14.57,25.24 C 15.54,27.8 16.69,28.92 18.34,28.92 C 19.48,28.92 22.13,28.13 22.13,27.79 C 22.13,27.28 20.24,26.47 14.79,24.64 C 14.34,24.49 14.31,24.57 14.57,25.24 Z M 35.09,27.18 C 34.21,27.44 33.16,28.26 33.16,28.68 C 33.16,28.81 33.82,28.92 34.63,28.92 C 36.1,28.92 37.41,28.44 38.05,27.67 C 38.33,27.32 38.23,27.21 37.48,27.07 A 3.62,3.62 0 0,0 35.08,27.17 Z M 22.56,29.28 C 20.83,30.16 19.83,31.23 19.66,32.41 L 19.36,34.26 C 19.28,34.78 19.36,35.06 19.6,35.06 C 20.33,35.06 23.2,33.02 23.54,32.26 C 24.01,31.21 24.29,29.04 23.98,28.85 C 23.84,28.75 23.2,28.95 22.56,29.28 Z M 36.51,29.9 C 36.01,30.27 36.04,30.34 36.99,31.07 C 38.14,31.95 39.39,32.07 40.35,31.39 L 41,30.93 L 40.16,30.23 C 39.2,29.41 37.39,29.25 36.51,29.9 Z M 24.64,32.13 C 23.66,33.22 22.43,36.33 22.82,36.73 C 23.12,37.03 24.75,36.16 25.47,35.29 C 26.07,34.59 26.19,34.12 26.19,32.7 C 26.19,31.75 26.08,30.97 25.94,30.97 C 25.79,30.97 25.21,31.49 24.64,32.13 Z M 32.47,31.63 L 31.63,32.01 L 32.46,32.99 C 33.42,34.15 34.83,34.81 35.78,34.56 C 36.16,34.46 36.98,34.09 37.61,33.73 L 38.75,33.07 L 37.48,32.27 C 36.01,31.33 33.78,31.04 32.47,31.63 Z M 31.84,35.87 C 32.11,36.99 32.62,37.29 34.02,37.16 C 35.21,37.05 35.22,37.03 34.7,36.46 A 5.5,5.5 0 0,0 31.98,35.06 C 31.76,35.06 31.71,35.35 31.84,35.86 Z" fill="rgb(157, 55, 12)"/>
</svg>
