<?xml version="1.0" encoding="UTF-8"?>
<!-- generated by Finnhub -->
<svg viewBox="0 0 55.5 55.5" xmlns="http://www.w3.org/2000/svg">
<path d="M 0,0 H 55.5 V 55.5 H 0 Z" fill="rgb(239, 242, 248)"/>
<path d="M 42.99,26.435 C 43,19.2 34.9,15.13 31,14 C 39.39,14.48 46,20.91 46,27.53 C 46,39.32 32.56,44 27.6,44 C 23.65,44 19.55,42.84 18,42.25 C 19.48,42.43 23.07,42.77 25.56,42.77 C 34.74,42.77 43,35.52 43,26.45 Z" fill="rgb(254, 191, 33)"/>
<path d="M 18.58,20.785 H 16.4 L 16.62,20.16 C 16.72,19.86 16.76,19.66 16.73,19.58 C 16.71,19.5 16.63,19.46 16.5,19.46 A 0.53,0.53 0 0,0 16.12,19.63 C 16.02,19.73 15.92,19.9 15.84,20.13 C 15.74,20.42 15.71,20.63 15.74,20.78 C 15.77,20.93 15.93,21.1 16.22,21.31 C 17.06,21.91 17.55,22.39 17.69,22.77 C 17.83,23.15 17.75,23.77 17.46,24.61 A 4.2,4.2 0 0,1 16.76,25.97 C 16.52,26.27 16.15,26.51 15.66,26.71 C 15.16,26.91 14.62,27 14.05,27 A 2.8,2.8 0 0,1 12.56,26.66 C 12.2,26.43 12.01,26.14 11.99,25.79 A 4.4,4.4 0 0,1 12.3,24.29 L 12.5,23.72 H 14.67 L 14.31,24.78 C 14.2,25.1 14.15,25.31 14.18,25.4 C 14.21,25.5 14.31,25.54 14.46,25.54 C 14.62,25.54 14.76,25.48 14.86,25.36 C 14.98,25.24 15.08,25.07 15.16,24.84 C 15.34,24.34 15.38,24 15.29,23.84 C 15.19,23.69 14.92,23.42 14.46,23.06 A 6.54,6.54 0 0,1 13.58,22.26 C 13.45,22.08 13.38,21.86 13.35,21.56 C 13.33,21.26 13.39,20.89 13.55,20.43 A 4.2,4.2 0 0,1 14.31,18.98 C 14.59,18.68 14.96,18.43 15.41,18.26 C 15.86,18.09 16.37,18 16.92,18 C 17.52,18 18.02,18.1 18.37,18.28 C 18.74,18.48 18.94,18.71 18.98,19 C 19.02,19.28 18.93,19.77 18.69,20.45 L 18.58,20.8 Z M 23.74,22.5 L 23.19,24.15 C 22.99,24.75 22.81,25.2 22.65,25.49 A 2.96,2.96 0 0,1 21.02,26.83 C 20.66,26.94 20.28,27 19.86,27 C 19.4,27 19.02,26.95 18.74,26.85 C 18.44,26.75 18.25,26.6 18.14,26.4 C 18.03,26.2 17.98,25.95 18,25.67 C 18.02,25.37 18.13,24.95 18.32,24.37 L 18.9,22.64 C 19.11,22.01 19.34,21.52 19.6,21.17 C 19.86,20.82 20.2,20.53 20.63,20.32 A 3.3,3.3 0 0,1 22.11,20 C 22.58,20 22.96,20.07 23.25,20.2 A 1.2,1.2 0 0,1 24,21.43 C 23.99,21.66 23.9,22.02 23.74,22.49 Z M 21.82,21.99 C 21.94,21.64 21.99,21.42 21.98,21.33 C 21.98,21.24 21.91,21.2 21.78,21.2 A 0.35,0.35 0 0,0 21.49,21.33 C 21.42,21.43 21.33,21.63 21.21,21.99 L 20.19,25.03 C 20.09,25.35 20.04,25.56 20.05,25.66 C 20.05,25.76 20.12,25.8 20.25,25.8 C 20.37,25.8 20.46,25.76 20.53,25.67 C 20.6,25.58 20.68,25.39 20.78,25.1 L 21.82,22 Z M 28,18 L 25.2,27 H 23 L 25.8,18 H 28 Z M 28.93,22.74 H 27.03 L 27.17,22.29 C 27.34,21.76 27.53,21.36 27.74,21.08 C 27.95,20.79 28.28,20.54 28.71,20.33 C 29.14,20.11 29.64,20 30.21,20 C 30.91,20 31.39,20.12 31.65,20.37 C 31.92,20.62 32.04,20.92 31.99,21.27 C 31.94,21.63 31.74,22.37 31.38,23.49 L 30.27,26.88 H 28.29 L 28.49,26.28 C 28.28,26.52 28.06,26.7 27.82,26.82 C 27.59,26.94 27.33,27 27.06,27 C 26.7,27 26.41,26.9 26.18,26.7 C 25.95,26.5 25.94,26.05 26.16,25.37 L 26.34,24.82 C 26.51,24.31 26.7,23.97 26.92,23.78 C 27.14,23.6 27.6,23.38 28.3,23.14 A 4.9,4.9 0 0,0 29.55,22.61 C 29.63,22.51 29.71,22.33 29.81,22.05 C 29.92,21.69 29.97,21.46 29.95,21.35 C 29.93,21.25 29.87,21.2 29.75,21.2 C 29.61,21.2 29.51,21.24 29.45,21.33 A 3.4,3.4 0 0,0 29.17,22.03 L 28.93,22.73 Z M 29.28,23.67 C 28.88,23.91 28.62,24.11 28.51,24.27 C 28.41,24.43 28.31,24.67 28.21,24.97 C 28.09,25.32 28.04,25.55 28.05,25.65 C 28.07,25.75 28.14,25.8 28.27,25.8 S 28.5,25.76 28.56,25.69 C 28.63,25.6 28.71,25.39 28.83,25.06 L 29.28,23.66 Z M 26,29 L 23.2,38 H 21.16 L 23.06,31.92 L 20.34,38 H 18.9 L 19.88,32.06 L 18.04,38 H 16 L 18.8,29 H 21.82 A 72.5,72.5 0 0,1 21.51,30.91 L 21.11,33.21 L 22.96,29 H 26 Z M 35.76,20 L 35.23,21.03 C 35.78,20.38 36.37,20.03 37,20 L 36.15,22.42 C 35.75,22.42 35.43,22.47 35.2,22.58 C 34.97,22.68 34.8,22.82 34.7,23.01 C 34.58,23.19 34.41,23.61 34.18,24.28 L 33.23,27 H 31 L 33.53,20 H 35.76 Z M 31,29 L 29.61,38 H 27.34 L 27.71,36.38 H 26.91 L 26.3,38 H 24 L 27.79,29 H 31 Z M 28.11,34.79 A 117,117 0 0,1 28.9,31 A 87.83,87.83 0 0,0 27.36,34.78 H 28.12 Z M 37,29 L 35.2,32.98 L 34.92,38 H 33.02 C 33.04,37.1 33.12,36.01 33.29,34.73 C 33.09,35.29 32.85,35.89 32.59,36.53 L 31.99,38 H 30 L 32.1,32.98 L 32.45,29 H 34.42 L 34.3,30.24 C 34.27,30.68 34.23,31.08 34.18,31.45 L 35.28,29 H 37 Z" fill="rgb(42, 42, 40)"/>
</svg>
