<!-- by Finnhub --><svg width="56" height="56" viewBox="0 0 56 56" fill="none" xmlns="http://www.w3.org/2000/svg">
<rect width="56" height="56" fill="#F0F3FA"/>
<path d="M7.9351 23.5905C7.92156 23.4318 7.85808 23.3079 7.74467 23.2191C7.63296 23.1302 7.46284 23.0857 7.23433 23.0857C7.08876 23.0857 6.96943 23.1024 6.87633 23.1357C6.78493 23.1675 6.71722 23.2111 6.67321 23.2667C6.6292 23.3222 6.60635 23.3857 6.60466 23.4571C6.60127 23.5159 6.61227 23.5691 6.63766 23.6167C6.66475 23.6627 6.70706 23.7048 6.76461 23.7429C6.82217 23.7794 6.8958 23.8127 6.98551 23.8429C7.07522 23.873 7.18186 23.9 7.30542 23.9238L7.73198 24.0095C8.01973 24.0667 8.26602 24.1421 8.47083 24.2357C8.67565 24.3294 8.84322 24.4397 8.97356 24.5667C9.10389 24.6921 9.19953 24.8333 9.26047 24.9905C9.32309 25.1476 9.35526 25.3191 9.35695 25.5048C9.35526 25.8254 9.26977 26.0968 9.10051 26.3191C8.93124 26.5413 8.68919 26.7103 8.37435 26.8262C8.0612 26.9421 7.68458 27 7.24449 27C6.79254 27 6.39815 26.9373 6.06131 26.8119C5.72616 26.6865 5.46549 26.4937 5.27929 26.2333C5.09479 25.9714 5.00169 25.6365 5 25.2286H6.3406C6.34906 25.3778 6.38884 25.5032 6.45993 25.6048C6.53103 25.7064 6.63089 25.7833 6.75954 25.8357C6.88987 25.8881 7.04475 25.9143 7.22418 25.9143C7.37482 25.9143 7.50093 25.8968 7.60249 25.8619C7.70405 25.827 7.78107 25.7786 7.83354 25.7167C7.88601 25.6548 7.9131 25.5841 7.91479 25.5048C7.9131 25.4302 7.88686 25.3651 7.83608 25.3095C7.78699 25.2524 7.70574 25.2016 7.59233 25.1571C7.47892 25.1111 7.32574 25.0683 7.13277 25.0286L6.61481 24.9238C6.15441 24.8302 5.79133 24.6738 5.52558 24.4548C5.26152 24.2341 5.13034 23.9333 5.13203 23.5524C5.13034 23.2429 5.21836 22.9722 5.39609 22.7405C5.57551 22.5071 5.82349 22.3254 6.14002 22.1952C6.45824 22.0651 6.82301 22 7.23433 22C7.65412 22 8.0172 22.0659 8.32357 22.1976C8.62994 22.3294 8.86607 22.5151 9.03195 22.7548C9.19953 22.9929 9.28416 23.2714 9.28586 23.5905H7.9351Z" fill="black"/>
<path d="M11.5865 27V22H15.3341V23H12.9982V24H15V25H12.9982V26H15.324V27H11.5865Z" fill="black"/>
<path d="M22.0022 22V27H20.8241L19.0315 24.381H19.001V27H17.5893V22H18.7878L20.5499 24.6191H20.5905V22H22.0022Z" fill="black"/>
<path d="M24 23V22H28.564V23H27V27H25.6086V23H24Z" fill="black"/>
<path d="M32.0012 22V27H30.5895V22H32.0012Z" fill="black"/>
<path d="M44.4099 22V27H43.2318L41.4487 24.381H41.4182V27H40V22H41.2049L42.9576 24.6191H42.9983V22H44.4099Z" fill="black"/>
<path d="M46.4806 23V22H51V23H49.436V27H48V23H46.4806Z" fill="black"/>
<path d="M34 27V22H37.7476V23H35.4117V24H37.4135V25H35.4117V26H37.7374V27H34Z" fill="black"/>
<path d="M5 36V31H7.29172C7.69432 31 8.0324 31.1167 8.30596 31.2167C8.58125 31.3167 8.78857 31.4579 8.92793 31.6405C9.06901 31.823 9.13955 32.0381 9.13955 32.2857C9.13955 32.4651 9.09654 32.6286 9.01051 32.7762C8.92621 32.9238 8.80749 33.0476 8.65437 33.1476C8.50124 33.246 8.32231 33.3143 8.11757 33.3524V33.4C8.34468 33.4079 8.55114 33.4611 8.73695 33.5595C8.92277 33.6563 9.07073 33.7905 9.18084 33.9619C9.29096 34.1317 9.34601 34.3317 9.34601 34.5619C9.34601 34.8286 9.27031 35.0659 9.11891 35.2738C8.96922 35.4817 8.75588 35.6452 8.47888 35.7643C8.20187 35.8833 7.87153 36 7.48786 36H5ZM6.43491 34.8857H7.10591C7.34678 34.8857 7.52743 34.8444 7.64787 34.7619C7.7683 34.6778 7.82852 34.554 7.82852 34.3905C7.82852 34.2762 7.80013 34.1794 7.74336 34.1C7.68658 34.0206 7.60572 33.9603 7.50076 33.919C7.39753 33.8778 7.2728 33.8571 7.12655 33.8571H6.43491V34.8857ZM6.43491 33.0381H7.02332C7.14892 33.0381 7.25989 33.0198 7.35624 32.9833C7.45259 32.9468 7.52743 32.8944 7.58077 32.8262C7.63582 32.7563 7.66335 32.6714 7.66335 32.5714C7.66335 32.4206 7.60486 32.3056 7.48786 32.2262C7.37087 32.1452 7.2229 32.1048 7.04397 32.1048H6.43491V33.0381Z" fill="#747474"/>
<path d="M11.5636 36V31H13.845C14.2372 31 14.5805 31.1325 14.8747 31.2643C15.1689 31.396 15.3977 31.5857 15.5612 31.8333C15.7246 32.081 15.8063 32.3778 15.8063 32.7238C15.8063 33.073 15.722 33.3675 15.5534 33.6071C15.3865 33.8468 15.1517 34.0278 14.8489 34.15C14.5478 34.2722 14.1959 34.3333 13.7933 34.3333H12.4307V33.3048H13.5043C13.6729 33.3048 13.8166 33.2857 13.9353 33.2476C14.0557 33.2079 14.1478 33.1452 14.2114 33.0595C14.2768 32.9738 14.3095 32.8619 14.3095 32.7238C14.3095 32.5841 14.2768 32.4706 14.2114 32.3833C14.1478 32.2944 14.0557 32.2294 13.9353 32.1881C13.8166 32.1452 13.6729 32.1238 13.5043 32.1238H12.9985V36H11.5636ZM14.6605 33.7048L15.9818 36H14.423L13.1327 33.7048H14.6605Z" fill="#747474"/>
<path d="M19.1341 36H17.5857L19.3303 31H21.2917L23.0363 36H21.4878L20.3316 32.4095H20.2903L19.1341 36ZM18.8451 34H21.7562V35H18.8451V34Z" fill="#747474"/>
<path d="M29.4353 31V36H28.2378L26.4625 33.381H26.4315V36H24.9966V31H26.2147L27.9591 33.619H28.0003V31H29.4353Z" fill="#747474"/>
<path d="M34.0379 36H32.0043V31H34.0173C34.561 31 35.0307 31.1643 35.4264 31.3595C35.8238 31.5532 36.1301 31.8325 36.3451 32.1976C36.5619 32.5611 36.6703 32.9968 36.6703 33.5048C36.6703 34.0127 36.5628 34.4492 36.3477 34.8143C36.1326 35.1778 35.8281 35.4571 35.4341 35.6524C35.0401 35.846 34.5747 36 34.0379 36ZM33.4392 34.819H33.9863C34.2478 34.819 34.4706 34.7802 34.6547 34.7024C34.8405 34.6246 34.9816 34.4905 35.078 34.3C35.176 34.1095 35.2251 33.8444 35.2251 33.5048C35.2251 33.1651 35.1752 32.9 35.0754 32.7095C34.9773 32.519 34.8328 32.3849 34.6418 32.3071C34.4526 32.2294 34.2203 32.1905 33.945 32.1905H33.4392V34.819Z" fill="#747474"/>
<path d="M41.5548 32.5905C41.541 32.4317 41.4765 32.3079 41.3612 32.219C41.2477 32.1302 41.0747 32.0857 40.8425 32.0857C40.6945 32.0857 40.5732 32.1024 40.4786 32.1357C40.3857 32.1675 40.3169 32.2111 40.2721 32.2667C40.2274 32.3222 40.2042 32.3857 40.2024 32.4571C40.199 32.5159 40.2102 32.569 40.236 32.6167C40.2635 32.6627 40.3065 32.7048 40.365 32.7429C40.4235 32.7794 40.4984 32.8127 40.5896 32.8429C40.6807 32.873 40.7891 32.9 40.9147 32.9238L41.3483 33.0095C41.6408 33.0667 41.8911 33.1421 42.0993 33.2357C42.3075 33.3294 42.4778 33.4397 42.6103 33.5667C42.7428 33.6921 42.84 33.8333 42.9019 33.9905C42.9656 34.1476 42.9983 34.319 43 34.5048C42.9983 34.8254 42.9114 35.0968 42.7393 35.319C42.5673 35.5413 42.3213 35.7103 42.0012 35.8262C41.6829 35.9421 41.3001 36 40.8528 36C40.3934 36 39.9925 35.9373 39.6502 35.8119C39.3095 35.6865 39.0445 35.4937 38.8553 35.2333C38.6678 34.9714 38.5731 34.6365 38.5714 34.2286H39.934C39.9426 34.3778 39.9831 34.5032 40.0553 34.6048C40.1276 34.7063 40.2291 34.7833 40.3599 34.8357C40.4924 34.8881 40.6498 34.9143 40.8322 34.9143C40.9853 34.9143 41.1135 34.8968 41.2167 34.8619C41.3199 34.827 41.3982 34.7786 41.4515 34.7167C41.5049 34.6548 41.5324 34.5841 41.5341 34.5048C41.5324 34.4302 41.5057 34.3651 41.4541 34.3095C41.4042 34.2524 41.3216 34.2016 41.2064 34.1571C41.0911 34.1111 40.9354 34.0683 40.7392 34.0286L40.2128 33.9238C39.7448 33.8302 39.3757 33.6738 39.1056 33.4548C38.8372 33.2341 38.7039 32.9333 38.7056 32.5524C38.7039 32.2429 38.7934 31.9722 38.974 31.7405C39.1564 31.5071 39.4084 31.3254 39.7302 31.1952C40.0536 31.0651 40.4244 31 40.8425 31C41.2692 31 41.6382 31.0659 41.9496 31.1976C42.261 31.3294 42.5011 31.5151 42.6697 31.7548C42.84 31.9929 42.926 32.2714 42.9277 32.5905H41.5548Z" fill="#747474"/>
</svg>
