<?xml version="1.0" encoding="UTF-8"?>
<!-- generated by Finnhub -->
<svg viewBox="0 0 55.5 55.5" xmlns="http://www.w3.org/2000/svg">
<path d="M 0,0 H 55.5 V 55.5 H 0 Z" fill="rgb(0, 50, 41)"/>
<path d="M 23.569999999999997,11.985 C 26.8,12 30,14.44 30,17.63 C 30,18.19 29.94,18.63 29.76,19 H 27.8 S 28,18.5 28,17.44 C 28,16 26.11,14 23.51,14 C 20.81,14 19,16.4 19,18.83 C 19,20.83 21,23 23.58,23 H 29.13 C 34.95,22.95 40,26.85 40,32.9 C 40,39.24 36,44 29.13,44 C 23,44 18,39.48 18,33.79 C 18,29.69 19.82,27.93 20.62,27 H 23 C 22.7,27.36 20,29.97 20,33.6 C 20,37.87 24,42 29.13,42 C 34.5,42 38,37.84 38,32.9 C 38,28.27 33.57,24.96 29.13,25 H 23.57 C 20.35,25 17,22.41 17,19 C 17,15.15 19.7,12 23.58,12 Z" fill="rgb(4, 220, 75)"/>
</svg>
