<?xml version="1.0" encoding="UTF-8"?>
<!-- generated by Finnhub -->
<svg viewBox="0 0 55.5 55.5" xmlns="http://www.w3.org/2000/svg">
<path d="M 0,0 H 55.5 V 55.5 H 0 Z" fill="rgb(239, 242, 248)"/>
<path d="M 42.99,26.355 V 37.13 A 5.87,5.87 0 0,1 37.13,43 H 23.81 A 14.35,14.35 0 0,1 43,26.37 Z" fill="rgb(254, 193, 12)"/>
<path d="M 12.99,18.855 A 5.87,5.87 0 0,1 18.87,13 H 37.13 A 5.87,5.87 0 0,1 43,18.87 V 24.57 A 15.6,15.6 0 0,0 29.37,25.49 C 29.31,25.39 29.23,25.29 29.15,25.2 L 36.15,17.57 L 28.48,24.62 L 28.19,24.45 L 29.96,18.87 L 27.44,24.17 A 3.25,3.25 0 0,0 26.96,24.1 L 26.37,14.96 L 26.07,24.15 L 25.78,24.22 L 22.46,17.57 L 25.06,24.52 C 24.94,24.59 24.82,24.67 24.71,24.76 L 16.91,17.56 L 23.98,25.55 L 23.82,25.82 L 17.57,23.43 L 23.57,26.43 L 23.49,26.74 L 15.29,27.34 L 23.45,27.65 C 23.45,27.77 23.48,27.89 23.5,28 L 18.22,30.93 L 23.82,28.87 L 23.96,29.12 L 16.59,36.8 L 24.53,29.78 V 29.79 A 15.58,15.58 0 0,0 21.98,43 H 18.88 A 5.87,5.87 0 0,1 13,37.13 V 18.87 Z" fill="rgb(38, 115, 185)"/>
</svg>
