<?xml version="1.0" encoding="UTF-8"?>
<!-- generated by Finnhub -->
<svg viewBox="0 0 55.5 55.5" xmlns="http://www.w3.org/2000/svg">
<path d="M 0,0 H 55.5 V 55.5 H 0 Z" fill="rgb(239, 242, 248)"/>
<path d="M 41.0,18.285 A 13.3,13.3 0 0,0 44,18 C 42.76,33.45 32.69,41.77 27.81,44 C 25.04,43 22.11,40.21 21,38.94 C 33.26,36.5 39.45,24.16 41.01,18.3 Z" fill="url(#a)"/>
<path d="M 12.15,27.564999999999998 C 12.16,28.4 12.46,29.07 12.61,29.3 C 13.78,29.58 16.1,30.12 16.05,30.03 L 13.87,26.18 C 13.3,26.31 12.17,26.77 12.17,27.58 Z" fill="rgb(1, 1, 73)"/>
<path d="M 28.16,12.985 A 24.42,24.42 0 0,0 39.68,18.33 L 37.8,21.93 L 30.56,27.9 C 26.24,30.29 17.02,33.93 14.67,29.41 A 24.2,24.2 0 0,1 12.01,18.33 C 19.29,19 25.81,15.06 28.17,13 Z" fill="url(#b)"/>
<path d="M 39.09,18.215 L 39.68,18.33 L 37.8,21.93 L 30.56,27.9 C 26.24,30.29 17.02,33.93 14.67,29.41 A 22.89,22.89 0 0,1 13.36,26.3 C 23.45,30.97 34.66,22.93 39.1,18.23 Z" fill="rgb(1, 35, 116)"/>
<path d="M 32.97,30.625 A 27.75,27.75 0 0,0 41,16.38 C 32.93,28.6 18.67,30 12.55,29.18 C 13.75,32.44 16.47,38 20.42,38 S 26.37,36.69 32.98,30.64 Z" fill="url(#c)"/>
<path d="M 14.91,34.035 C 16.32,36.2 18.17,38 20.42,38 C 23.26,38 26.52,37.07 33.13,31.02 C 38.35,26.23 40.47,19.28 40.98,16.48 C 38.03,22.9 28.78,35.2 14.92,34.05 Z" fill="url(#d)"/>
<defs>
<linearGradient id="a" x1="44.03" x2="24.58" y1="17.97" y2="42.09" gradientUnits="userSpaceOnUse">
<stop stop-color="rgb(244, 98, 37)" offset=".53"/>
<stop stop-color="rgb(195, 19, 18)" offset=".68"/>
</linearGradient>
<linearGradient id="b" x1="38.55" x2="12.05" y1="18.3" y2="24.03" gradientUnits="userSpaceOnUse">
<stop stop-color="rgb(3, 146, 221)" offset="0"/>
<stop stop-color="rgb(5, 106, 187)" offset=".29"/>
<stop stop-color="rgb(4, 105, 186)" offset=".52"/>
<stop stop-color="rgb(0, 67, 153)" offset=".58"/>
<stop stop-color="rgb(1, 44, 129)" offset="1"/>
</linearGradient>
<linearGradient id="c" x1="41" x2="14.32" y1="16.38" y2="32.8" gradientUnits="userSpaceOnUse">
<stop stop-color="rgb(18, 202, 252)" offset="0"/>
<stop stop-color="rgb(5, 73, 157)" offset="1"/>
</linearGradient>
<linearGradient id="d" x1="41" x2="18.23" y1="16.49" y2="37.31" gradientUnits="userSpaceOnUse">
<stop stop-color="rgb(21, 167, 252)" offset="0"/>
<stop stop-color="rgb(1, 67, 152)" offset="1"/>
</linearGradient>
</defs>
</svg>
