<!-- by Finnhub --><svg xmlns="http://www.w3.org/2000/svg" width="56" height="56" viewBox="0 0 56 56"><path fill="#F0F3FA" d="M0 0h56v56H0z"/><path d="M29.02 12.18v.08l.01 8.5c0 .4.22.78.56 1l3.85 2.86c.36.22.56.59.56.99v5.62c0 .4.2.75.54.97l7.65 3.97c1 .64 2.2-.42 1.68-1.47l-.35-.7L31.2 11.6c-.57-1.07-2.2-.64-2.18.57zm-2.02.08v-.08c.02-1.2-1.61-1.64-2.19-.57L12.48 34l-.35.7c-.53 1.06.68 2.12 1.68 1.48l7.69-4.06c.34-.22.5-.57.5-.97v-5.62c0-.4.24-.77.6-.99l3.82-2.76c.34-.22.56-.59.56-.99l.02-8.52zM40.32 40h-24.9c-1.5 0-2.05-2.02-.74-2.8l6.84-4.07c.44-.28 1-.26 1.44.01l4.22 2.78c.46.29 1.02.27 1.48 0l4.2-2.76c.45-.3 1-.3 1.47-.02l6.75 4.09c1.3.75.75 2.77-.76 2.77z" fill="#BE0000"/></svg>