<?xml version="1.0" encoding="UTF-8"?>
<!-- generated by Finnhub -->
<svg viewBox="0 0 55.5 55.5" xmlns="http://www.w3.org/2000/svg">
<path d="M 0,0 H 55.5 V 55.5 H 0 Z" fill="rgb(239, 242, 248)"/>
<path d="M 20.569999999999997,18.985 C 21.01,21.89 22.9,28.47 27.03,31.67 C 27.87,32.32 28.63,32.87 29.3,33.38 C 32.77,35.98 34.13,36.98 34.13,40.33 C 34.13,42.44 31.23,45 27.68,45 C 23.16,45 18,37.67 18,31.67 C 18,26.87 19.72,21.22 20.58,19 Z M 28,43 C 29.1,43 30,42.06 30,40.9 S 28,36 28,36 S 26,39.74 26,40.9 S 26.9,43 28,43 Z" fill="rgb(66, 147, 70)"/>
<path d="M 22.99,21.195 C 23,24.47 25.17,27.1 26,28 C 26,26.42 26.5,23 28,23 S 30,26.42 30,28 A 8.9,8.9 0 0,0 33,21.21 C 33,17.41 29.25,11.71 28,9 C 26.75,11.71 23,17.96 23,21.21 Z" fill="rgb(247, 189, 6)"/>
<path d="M 35.410000000000004,18.985 C 34.99,21.89 33.1,28.47 28.97,31.67 C 28.13,32.32 27.37,32.87 26.7,33.38 C 23.23,35.98 21.87,36.98 21.87,40.33 C 21.87,42.44 24.45,45 28.32,45 C 32.84,45 38,37.67 38,31.67 C 38,26.87 36.28,21.22 35.42,19 Z M 28,43 C 29.1,43 30,42.06 30,40.9 S 28,36 28,36 S 26,39.74 26,40.9 S 26.9,43 28,43 Z" fill="rgb(7, 139, 54)" fill-rule="evenodd"/>
</svg>
