<?xml version="1.0" encoding="UTF-8"?>
<!-- generated by Finnhub -->
<svg viewBox="0 0 55.5 55.5" xmlns="http://www.w3.org/2000/svg">
<path d="M0 0h55.5v55.5H0z" fill="rgb(239, 242, 248)"/>
<path d="M22.91 39.3A20.3 20.3 0 0 1 16 38l.66.92 8.1 3.15 7-1.3c.34-1.3.22-3.72-.81-3.04-1.29.84-4.64 1.56-8.04 1.56Z" fill="url(#c)"/>
<path d="M28 46c-8.38 0-11.68-5.24-12-8 1.65 1.17 6.54 3.18 9.92 3.18 2.7 0 5.36-.81 5.93-1.15 1.03 1.14 1.47 4.03-3.85 5.97Z" fill="rgb(82, 105, 203)"/>
<path d="M32.84 16.7c2.72 0 6 .78 7.16 1.3l-.91-.92-8.1-3.15-6.45 1.3c-.35 1.3-.77 3.72.26 3.04 1.29-.84 4.63-1.56 8.04-1.56Z" fill="url(#b)"/>
<path d="M28.3 10c8.39 0 11.38 5.24 11.7 8-1.65-1.17-6.8-3.18-10.17-3.18-2.7 0-4.53.68-5.1 1.03-1.03-1.15-1.75-3.91 3.57-5.85Z" fill="rgb(82, 105, 203)"/>
<path d="M28.34 10C24.44 10.07 17 12.22 17 20.32c0 4.18 2.34 7.16 6.08 9.61.44.3.9.58 1.36.87 3.43 2.14 7.06 4.41 7.06 9.85 0 2.63-2.23 4.66-3.5 5.35 1.6 0 3.81-.35 5.9-1.33.57-1.23 1.1-3.04 1.1-5.14 0-3.9-2.5-7.63-5.84-10.39-9.67-7.83-9.66-10.55-9.66-12.65v-.1c0-1.7 1.06-3.41 1.48-4.06-.34.7-.98 2.48-.98 4.05 0 3.48 2.98 6.74 9.72 11.95 6.74 5.2 6.78 9.34 6.78 11.27 0 1.22-.43 2.91-.82 4.05 2.42-1.7 4.32-4.48 4.32-8.87 0-5.85-5.97-9.31-8.87-11l-.23-.12c-2.8-1.63-5.9-4.57-5.9-8.64 0-2.52 2.19-4.4 3.34-5.02Z" fill="url(#a)"/>
<defs>
<linearGradient id="c" x1="16" x2="31.94" y1="37.62" y2="37.62" gradientUnits="userSpaceOnUse">
<stop stop-color="rgb(188, 198, 237)" offset="0"/>
<stop stop-color="rgb(115, 134, 215)" offset="1"/>
</linearGradient>
<linearGradient id="b" x1="39.75" x2="24.15" y1="18.38" y2="18.38" gradientUnits="userSpaceOnUse">
<stop stop-color="rgb(188, 198, 237)" offset="0"/>
<stop stop-color="rgb(115, 134, 215)" offset="1"/>
</linearGradient>
<linearGradient id="a" x1="28.5" x2="28.5" y1="10" y2="46" gradientUnits="userSpaceOnUse">
<stop stop-color="rgb(82, 86, 88)" offset=".15"/>
<stop stop-color="rgb(150, 152, 153)" offset=".48"/>
<stop stop-color="rgb(85, 90, 92)" offset=".95"/>
</linearGradient>
</defs>
</svg>
