<?xml version="1.0" encoding="UTF-8"?>
<!-- generated by Finnhub -->
<svg viewBox="0 0 55.5 55.5" xmlns="http://www.w3.org/2000/svg">
<path d="M 0,0 H 55.5 V 55.5 H 0 Z" fill="rgb(239, 242, 248)"/>
<path d="M 16.009999999999998,33.865 C 10.35,34.42 7.64,38.17 7,39.98 C 8.29,37.94 12.1,36.58 16.66,36.58 C 21.16,36.58 25.68,39.29 34.69,39.98 C 41.91,40.51 44.57,33.43 45,29.82 C 43.71,31.62 39.85,35.23 34.7,35.23 C 28.25,35.23 23.1,33.2 16.02,33.88 Z" fill="rgb(205, 205, 204)"/>
<path d="M 17.31,29.805 C 13.27,30.71 9.6,34.27 8.32,36.18 A 17.74,17.74 0 0,1 17.97,31.73 C 23.76,31.09 30.2,33.63 36.63,32.36 C 41.78,31.35 44.36,25.16 45,22.18 C 42.85,23.88 38.82,27.53 34.7,28.55 C 29.55,29.82 23.12,28.55 17.32,29.82 Z" fill="rgb(103, 154, 208)"/>
<path d="M 18.79,24.085 C 16.17,25.1 12.46,29.18 10.93,31.1 C 12.24,30.45 16.04,27.13 20.1,26 C 24.69,24.73 32.55,26 38.45,22.82 C 43.17,20.27 44.78,14.55 45,12 C 43.69,13.7 39.89,18.24 35.17,20.27 C 29.27,22.82 23.15,22.4 18.79,24.09 Z" fill="rgb(48, 101, 150)"/>
</svg>
