<?xml version="1.0" encoding="UTF-8"?>
<!-- generated by Finnhub -->
<svg viewBox="0 0 55.5 55.5" xmlns="http://www.w3.org/2000/svg">
<path d="M0 0h55.5v55.5H0z" fill="rgb(239, 242, 248)"/>
<path d="M5.77 29.85a1.87 1.87 0 0 1-1.32.04c-.2-.06-.34-.15-.45-.25l.04-.89.33.05.12.58c.06.08.15.16.27.22a.93.93 0 0 0 .75.02.68.68 0 0 0 .29-.22c.07-.1.11-.22.11-.36a.47.47 0 0 0-.1-.3c-.08-.1-.16-.17-.27-.24a5.7 5.7 0 0 0-.42-.24l-.55-.31c-.13-.1-.25-.21-.35-.35a.88.88 0 0 1-.14-.5c0-.23.06-.43.17-.6.12-.16.27-.28.46-.37.2-.09.4-.13.61-.13.35 0 .65.1.9.3a24.3 24.3 0 0 1-.07.88l-.31-.04-.08-.59a.46.46 0 0 0-.12-.12.66.66 0 0 0-.2-.12.59.59 0 0 0-.23-.05.6.6 0 0 0-.42.15c-.1.1-.16.24-.16.44 0 .15.04.28.12.39.09.1.19.2.3.28.12.08.28.17.49.27.21.11.38.21.5.3.13.08.24.18.33.3.09.12.13.27.13.43a1 1 0 0 1-.2.62c-.13.18-.31.32-.53.41Z" fill="url(#j)"/>
<path d="M8.03 27.04 8 26h3.5l-.1 1.09-.3-.05-.13-.74H10v3.33l.6.11-.05.26h-1.7l.03-.24.53-.15V26.3h-.93l-.17.78-.28-.04Z" fill="url(#i)"/>
<path d="M13.98 30H12.5l.03-.23.47-.18 1.35-3.5.48-.09 1.24 3.6.43.15-.03.25h-1.63l.04-.23.54-.18-.35-.95h-1.32l-.32.97.59.14-.04.25Zm.48-3.26-.6 1.58h1.12l-.52-1.58Z" fill="url(#h)"/>
<path d="m19.37 29.67-.03.33H17.5l.04-.23.46-.15v-3.14l-.48-.1.04-.24c.61-.09 1.08-.14 1.52-.14.54 0 .95.08 1.24.23.3.15.45.4.45.74 0 .14-.04.28-.12.42-.14.28-.44.53-.85.66l.6.79.37.45c.09.1.18.18.27.25.1.06.22.11.35.15l.11.03-.05.22c-.13.04-.26.06-.4.06-.25 0-.47-.08-.67-.23a2.3 2.3 0 0 1-.52-.63l-.54-.9h-.68v1.36l.73.07Zm-.49-3.4h-.24V28h.76c.38-.12.67-.44.67-.85a.94.94 0 0 0-.1-.46.78.78 0 0 0-.33-.31c-.14-.08-.3-.12-.5-.12l-.26.01Z" fill="url(#g)"/>
<path d="M27 27.04 26.97 26h3.5l-.1 1.09-.3-.05-.12-.74H29v3.33l.57.11-.04.26h-1.7l.02-.24.53-.15V26.3h-.93l-.16.78-.3-.04Z" fill="url(#f)"/>
<path d="M24.77 29.85a1.87 1.87 0 0 1-1.32.04c-.2-.06-.34-.15-.45-.25l.04-.89.33.05.12.58c.06.08.15.16.27.22a.93.93 0 0 0 .75.02.68.68 0 0 0 .29-.22c.07-.1.11-.22.11-.36a.47.47 0 0 0-.1-.3c-.07-.1-.16-.17-.27-.24a5.7 5.7 0 0 0-.42-.24l-.55-.31c-.13-.1-.25-.21-.35-.35a.88.88 0 0 1-.14-.5c0-.23.06-.43.17-.6.12-.16.27-.28.46-.37.2-.09.4-.13.61-.13.35 0 .65.1.9.3a24 24 0 0 1-.07.88l-.31-.04-.08-.59a.46.46 0 0 0-.12-.12.66.66 0 0 0-.2-.12.59.59 0 0 0-.23-.05.6.6 0 0 0-.42.15c-.1.1-.16.24-.16.44 0 .15.04.28.12.39.09.1.19.2.3.28.12.08.28.17.49.27.21.11.38.21.5.3.13.08.24.18.33.3.09.12.13.27.13.43a1 1 0 0 1-.2.62c-.13.18-.31.32-.53.41Z" fill="url(#e)"/>
<path d="m33.57 29.73-.04.27H31.7l.03-.24.56-.15v-3.14l-.57-.1.03-.23c.62-.1 1.09-.14 1.53-.14 1.07 0 1.68.27 1.68.97 0 .13-.03.27-.11.41-.15.28-.44.53-.85.67l.6.78.37.46a1.18 1.18 0 0 0 .62.4l.1.03-.04.2a1.06 1.06 0 0 1-1.07-.16 2.3 2.3 0 0 1-.53-.63l-.53-.89H33v1.36l.57.13ZM33 26.27V28h.6a.92.92 0 0 0 .67-.86c0-.54-.4-.88-.93-.88l-.34.01Z" fill="url(#d)"/>
<path d="m38 26.38-.6-.14.04-.24h3.3l-.1 1.03-.29-.04-.13-.7h-1.57v1.54h.97l.14-.39.31-.04-.11 1.25-.28.04-.12-.56h-.9v1.56h1.64l.32-.74.28.04-.1 1.01h-3.38l.03-.24.55-.15v-3.23Z" fill="url(#c)"/>
<path d="M42 30h1.48l.04-.25-.6-.14 1.04-2.87.96 2.85-.54.18-.04.23h1.63l.03-.25-.43-.14L44.33 26l-.48.1-1.35 3.5-.47.17L42 30Z" fill="url(#b)"/>
<path d="M48.45 30H47l.03-.24.5-.15.23-3.23-.55-.14.03-.24h1.22l.23.62.8 2.37.93-2.47.21-.52h1.2l-.03.24-.5.13.15 3.26.55.11-.03.26h-1.62l.03-.24.5-.15-.17-2.84-1.15 3.07-.39.06-1.04-3-.2 2.73.56.11-.04.26Z" fill="url(#a)"/>
<path d="m43.96 28.13.12.38h.38l-.31.24.12.38-.31-.23-.31.23.12-.38-.31-.24h.38l.12-.38Z" fill="rgb(179, 148, 56)"/>
<defs>
<linearGradient id="j" x1="5.25" x2="5.25" y1="26" y2="30" gradientUnits="userSpaceOnUse">
<stop stop-color="rgb(125, 190, 232)" offset="0"/>
<stop stop-color="rgb(61, 139, 205)" offset="1"/>
</linearGradient>
<linearGradient id="i" x1="9.75" x2="9.75" y1="26" y2="30" gradientUnits="userSpaceOnUse">
<stop stop-color="rgb(132, 196, 235)" offset="0"/>
<stop stop-color="rgb(57, 136, 203)" offset="1"/>
</linearGradient>
<linearGradient id="h" x1="15" x2="15" y1="26" y2="30" gradientUnits="userSpaceOnUse">
<stop stop-color="rgb(122, 188, 231)" offset="0"/>
<stop stop-color="rgb(58, 137, 203)" offset="1"/>
</linearGradient>
<linearGradient id="g" x1="20" x2="20" y1="26" y2="30" gradientUnits="userSpaceOnUse">
<stop stop-color="rgb(129, 193, 234)" offset="0"/>
<stop stop-color="rgb(57, 136, 203)" offset=".99"/>
</linearGradient>
<linearGradient id="f" x1="29.25" x2="29.25" y1="26" y2="30" gradientUnits="userSpaceOnUse">
<stop stop-color="rgb(129, 193, 234)" offset="0"/>
<stop stop-color="rgb(56, 135, 202)" offset="1"/>
</linearGradient>
<linearGradient id="e" x1="24.25" x2="24.25" y1="26" y2="30" gradientUnits="userSpaceOnUse">
<stop stop-color="rgb(125, 190, 232)" offset="0"/>
<stop stop-color="rgb(57, 136, 203)" offset="1"/>
</linearGradient>
<linearGradient id="d" x1="34" x2="34" y1="26" y2="30" gradientUnits="userSpaceOnUse">
<stop stop-color="rgb(134, 197, 236)" offset="0"/>
<stop stop-color="rgb(51, 131, 200)" offset="1"/>
</linearGradient>
<linearGradient id="c" x1="39.25" x2="39.25" y1="26" y2="30" gradientUnits="userSpaceOnUse">
<stop stop-color="rgb(141, 202, 239)" offset="0"/>
<stop stop-color="rgb(46, 128, 198)" offset="1"/>
</linearGradient>
<linearGradient id="b" x1="44" x2="44" y1="26" y2="30" gradientUnits="userSpaceOnUse">
<stop stop-color="rgb(149, 209, 242)" offset="0"/>
<stop stop-color="rgb(43, 125, 196)" offset="1"/>
</linearGradient>
<linearGradient id="a" x1="49.5" x2="49.5" y1="26" y2="30" gradientUnits="userSpaceOnUse">
<stop stop-color="rgb(137, 199, 237)" offset="0"/>
<stop stop-color="rgb(47, 128, 198)" offset="1"/>
</linearGradient>
</defs>
</svg>
