<?xml version="1.0" encoding="UTF-8"?>
<!-- generated by Finnhub -->
<svg viewBox="0 0 55.5 55.5" xmlns="http://www.w3.org/2000/svg">
<path d="M 0,0 H 55.5 V 55.5 H 0 Z" fill="rgb(239, 242, 248)"/>
<path d="M 42.34,31.985 C 41.86,32 41.45,31.9 41.09,31.71 A 2.07,2.07 0 0,1 40,29.81 A 1.97,1.97 0 0,1 40.67,28.32 C 40.87,28.12 41.11,27.91 41.39,27.71 L 42.65,26.77 C 42.84,26.63 42.98,26.49 43.07,26.35 A 0.9,0.9 0 0,0 43.22,25.83 A 0.72,0.72 0 0,0 43.02,25.35 A 0.66,0.66 0 0,0 42.49,25.13 A 0.7,0.7 0 0,0 42.09,25.25 A 0.8,0.8 0 0,0 41.82,25.55 A 0.87,0.87 0 0,0 41.73,25.95 C 41.73,26.11 41.77,26.29 41.86,26.46 C 41.95,26.64 42.06,26.82 42.2,27.01 C 42.34,27.19 42.5,27.39 42.65,27.61 L 46,31.88 H 44.63 L 41.86,28.4 L 41.26,27.62 A 4.2,4.2 0 0,1 40.79,26.82 A 2.25,2.25 0 0,1 40.84,24.93 A 1.75,1.75 0 0,1 42.48,23.99 C 42.85,23.99 43.18,24.07 43.44,24.23 C 43.71,24.4 43.92,24.61 44.07,24.88 A 1.95,1.95 0 0,1 44.04,26.75 C 43.87,27.04 43.64,27.3 43.34,27.54 L 41.9,28.7 C 41.66,28.89 41.5,29.08 41.39,29.27 C 41.29,29.46 41.24,29.62 41.24,29.76 A 1.09,1.09 0 0,0 42.39,30.87 C 42.64,30.87 42.89,30.8 43.14,30.68 C 43.39,30.55 43.62,30.38 43.82,30.14 C 44.02,29.91 44.19,29.63 44.32,29.3 C 44.43,28.98 44.49,28.61 44.49,28.21 H 45.58 A 5,5 0 0,1 45.43,29.51 C 45.33,29.86 45.2,30.17 45.03,30.42 A 2.6,2.6 0 0,1 44.38,31.15 L 44.22,31.28 A 2.3,2.3 0 0,1 43.34,31.82 C 43,31.94 42.67,32 42.35,32 Z M 18,32 V 24 H 19.5 V 27.39 H 22.5 V 24 H 24 V 32 H 22.5 V 28.6 H 19.5 V 32 H 18 Z M 8.5,26.24 C 8.42,25.5 7.73,25.19 7.06,25.19 C 6.43,25.19 5.51,25.47 5.5,26.21 C 5.5,26.71 6.06,26.98 6.5,27.14 C 6.65,27.19 6.8,27.24 6.97,27.28 L 7.7,27.46 C 8.84,27.72 10,28.39 10,29.7 C 10,31.32 8.45,32 7.03,32 C 5.22,32 4.06,31.14 4,29.59 H 5.5 C 5.56,30.44 6.25,30.79 7.02,30.79 C 7.7,30.79 8.49,30.49 8.5,29.69 C 8.5,28.98 7.74,28.75 7.18,28.61 L 6.29,28.38 C 5.24,28.11 4,27.5 4,26.3 C 4,24.76 5.72,24 7.08,24 C 8.42,24 9.87,24.75 9.89,26.24 H 8.5 Z M 15.5,26.24 C 15.42,25.5 14.73,25.19 14.06,25.19 C 13.43,25.19 12.51,25.47 12.5,26.21 C 12.5,26.71 13.06,26.98 13.5,27.14 C 13.65,27.19 13.8,27.24 13.97,27.28 L 14.7,27.46 C 15.84,27.72 17,28.39 17,29.7 C 17,31.32 15.45,32 14.03,32 C 12.22,32 11.06,31.14 11,29.59 H 12.5 C 12.56,30.44 13.25,30.79 14.02,30.79 C 14.7,30.79 15.49,30.49 15.5,29.69 C 15.5,28.98 14.74,28.75 14.18,28.61 L 13.29,28.38 C 12.24,28.11 11,27.5 11,26.3 C 11,24.77 12.71,24.01 14.08,24.01 C 15.42,24.01 16.87,24.76 16.89,26.25 H 15.5 Z M 25,25.5 V 24 H 30.5 V 25.5 H 28.5 V 32 H 27 V 25.5 H 25 Z M 37.5,26.24 C 37.42,25.5 36.73,25.19 36.06,25.19 C 35.43,25.19 34.51,25.47 34.5,26.21 C 34.5,26.71 35.06,26.98 35.5,27.14 C 35.65,27.19 35.8,27.24 35.97,27.28 L 36.7,27.46 C 37.84,27.72 39,28.39 39,29.7 C 39,31.32 37.45,32 36.03,32 C 34.22,32 33.06,31.14 33,29.59 H 34.5 C 34.56,30.44 35.25,30.79 36.02,30.79 C 36.7,30.79 37.49,30.49 37.5,29.69 C 37.5,28.98 36.74,28.75 36.18,28.61 L 35.29,28.38 C 34.24,28.11 33,27.5 33,26.3 C 33,24.77 34.72,24.01 36.08,24.01 C 37.42,24.01 38.87,24.76 38.89,26.25 H 37.5 Z M 46,25.5 V 24 H 51.5 V 25.5 H 49.5 V 32 H 48 V 25.5 H 46 Z"/>
</svg>
