<!-- by Finnhub --><svg width="56" height="56" viewBox="0 0 56 56" xmlns="http://www.w3.org/2000/svg"><path fill="#F0F3FA" d="M0 0h56v56H0z"/><path fill-rule="evenodd" d="M32.25 22.99 28 10l-4.25 12.99H10l11.12 8.02L16.87 44 28 35.97 39.13 44l-4.25-12.99L46 23H32.25ZM31.53 24 28 13.16 24.47 24H13.04l9.25 6.62-3.54 10.8L28 34.73l9.25 6.67-3.53-10.8L42.96 24H31.53Z" fill="url(#ae24ezq5w)"/><path d="m28 16 2.83 9H40l-7.42 5.21L35.42 39 28 33.57 20.58 39l2.84-8.79L16 25h9.17L28 16Z" fill="url(#be24ezq5w)"/><path d="M28 28.16c0 .45 1.66-1.53 2.84-3.19L28 16v12.16Z" fill="#675633"/><path d="m20.58 39 2.82-8.75-.01-.01 3.08-1.22-3.98 7.43-1.9 2.55Z" fill="url(#ce24ezq5w)"/><path d="m40 25-7.38 5.22v.01l-2.73-.43 6.7-3.93L40 25Z" fill="#46402C"/><path d="M30.83 24.99V25h9.1L37 26l-7.74 1.13L30.83 25Z" fill="#E2B654"/><path d="m28 19 1.97 6.26c.15.44.56.74 1.02.74H37l-4.81 3.41c-.38.27-.53.76-.4 1.2l1.95 6.01-5.07-3.71a1.06 1.06 0 0 0-1.26 0l-5.08 3.71 1.94-6c.14-.45-.01-.94-.39-1.21L19 26h6.08c.46 0 .87-.3 1.02-.74L28 19Z" fill="url(#de24ezq5w)"/><path d="m32.24 22.97.01.02h13.7l-3.02.98.03-.02H31.54l.7-.98Z" fill="#DFBD67"/><path d="M24.4 23.95h.07L28 13.15V10l-4.24 12.95.64 1Z" fill="url(#ee24ezq5w)"/><path d="M31.89 23.43 28 11.46l-3.89 11.97H11.55l10.16 7.24-3.88 11.87L28 35.2l10.17 7.34-3.88-11.87 10.16-7.24H31.9ZM28 13.16 31.53 24h11.43l-9.24 6.62 3.53 10.8L28 34.73l-9.25 6.67 3.54-10.8L13.04 24h11.43L28 13.16Z" fill="url(#fe24ezq5w)"/><path d="m18.75 41.4-.68.96L28 35.2v-.46l-9.25 6.67Z" fill="#FBC45F"/><defs><linearGradient id="ae24ezq5w" x1="28" y1="10" x2="28" y2="44" gradientUnits="userSpaceOnUse"><stop stop-color="#6B5B35"/><stop offset="1" stop-color="#5F4F34"/></linearGradient><linearGradient id="be24ezq5w" x1="28" y1="16" x2="28" y2="39" gradientUnits="userSpaceOnUse"><stop stop-color="#E9BD52"/><stop offset=".33" stop-color="#896F3F"/><stop offset=".52" stop-color="#50452C"/><stop offset=".66" stop-color="#806E3C"/><stop offset=".77" stop-color="#4F422D"/></linearGradient><linearGradient id="ce24ezq5w" x1="24.21" y1="29.96" x2="21.08" y2="38.39" gradientUnits="userSpaceOnUse"><stop stop-color="#D3AA4B"/><stop offset=".85" stop-color="#917A44"/></linearGradient><linearGradient id="de24ezq5w" x1="28.04" y1="18.94" x2="28.04" y2="36.62" gradientUnits="userSpaceOnUse"><stop offset=".14" stop-color="#A18041"/><stop offset=".39" stop-color="#FFCE55"/><stop offset=".74" stop-color="#644F31"/></linearGradient><linearGradient id="ee24ezq5w" x1="25.88" y1="10" x2="25.88" y2="23.95" gradientUnits="userSpaceOnUse"><stop stop-color="#FFC654"/><stop offset="1" stop-color="#9D7C44"/></linearGradient><linearGradient id="fe24ezq5w" x1="28" y1="11.46" x2="28" y2="42.54" gradientUnits="userSpaceOnUse"><stop stop-color="#82683C"/><stop offset=".42" stop-color="#463929"/><stop offset="1" stop-color="#665131"/></linearGradient></defs></svg>