<?xml version="1.0" encoding="UTF-8"?>
<!-- generated by Finnhub -->
<svg viewBox="0 0 55.5 55.5" xmlns="http://www.w3.org/2000/svg">
<path d="M 0,0 H 55.5 V 55.5 H 0 Z" fill="rgb(239, 242, 248)"/>
<path d="M 28.99,8.985 L 29.47,10.53 H 31 L 29.76,11.47 L 30.24,13 L 29,12.06 L 27.76,13 L 28.24,11.47 L 27,10.53 H 28.53 L 29,9 Z M 28.8,18.34 L 20.92,21.9 L 29,19.55 V 20.27 L 36.8,23.84 L 29,21.5 V 22.3 L 36.8,25.82 L 29,23.52 V 24.32 L 36.8,27.89 L 29,25.49 V 26.22 L 36.8,29.82 L 29,27.47 V 28.22 L 36.8,31.86 L 29,29.49 V 30.34 L 36.8,33.86 L 29,31.5 V 32.16 L 27.65,32.8 L 29,33.43 V 32.33 L 36.8,35.87 L 29,33.52 V 34.32 L 36.8,37.87 L 29,35.55 V 36.32 L 36.8,39.87 L 29,37.55 V 38.35 L 36.8,41.92 L 29,39.54 V 40.35 L 37,44 V 21.85 L 29.3,19.55 V 14.93 A 0.5,0.5 0 1,0 28.8,14.93 V 18.33 Z M 21,30.54 L 14,33.79 L 21,31.69 V 32.38 L 14,35.63 L 21,33.53 V 34.19 L 14,37.44 L 21,35.34 V 35.98 L 14,39.23 L 21,37.13 V 37.84 L 14,41.1 L 21,39 V 39.63 L 14,42.88 L 21,40.78 V 39.7 L 28,42.98 V 33.83 L 21,31.67 V 30.53 Z M 21,34.19 V 35.29 L 27.84,37.46 L 21,34.2 Z M 21,38.97 L 27.84,41.1 L 21,37.9 V 38.97 Z M 21,37.1 L 27.84,39.23 L 21,36.03 V 37.1 Z M 21,33.49 L 27.84,35.67 L 21,32.44 V 33.49 Z M 21,23.64 L 29,20 V 21.22 L 21,23.65 Z M 21,25.66 L 29,22.01 V 23.24 L 21,25.66 Z M 29,24.08 L 21,27.73 L 29,25.31 V 24.08 Z M 21,29.75 L 29,26.1 V 27.33 L 21,29.75 Z M 28.96,29.36 V 28.03 L 23.21,30.79 L 23.61,30.96 L 28.96,29.36 Z M 28.99,30.14 V 31.41 L 26.32,32.19 L 25.43,31.77 L 28.99,30.14 Z M 23.8,16 L 23.32,14.5 L 22.84,16 H 21.3 L 22.55,16.9 L 22.07,18.4 L 23.32,17.47 L 24.57,18.39 L 24.09,16.91 L 25.35,16 H 23.8 Z M 34.57,14.53 L 35.05,16 H 36.6 L 35.34,16.93 L 35.82,18.41 L 34.57,17.5 L 33.32,18.41 L 33.8,16.93 L 32.55,16 H 34.09 L 34.57,14.53 Z" fill="rgb(3, 165, 221)" fill-rule="evenodd"/>
</svg>
