<?xml version="1.0" encoding="UTF-8"?>
<!-- generated by Finnhub -->
<svg viewBox="0 0 55.5 55.5" xmlns="http://www.w3.org/2000/svg">
<rect width="56" height="56" fill="rgb(32, 37, 91)"/>
<path d="m13.902 25.713c-0.7082-0.6906-1.4922-1.1424-2.3014-1.1424-2.2257 0-3.5653 1.6427-3.5653 3.429 0 1.7854 1.3406 3.428 3.5653 3.428 0.9355 0 1.7953-0.3804 2.352-1.071l2.0225 2.0479c-1.2386 1.1661-3.3127 1.5951-4.3745 1.5951-3.6663 0-6.6002-2.4046-6.6002-6s2.9339-6 6.6002-6c1.5427 0 3.237 0.5241 4.3998 1.7378l-2.0984 1.9756z" fill="rgb(254, 254, 253)"/>
<path d="m18 22h3.004v2.1003h0.0501c0.8783-1.4501 2.3169-2.1003 3.9983-2.1003 3.7148 0 5.9476 2.252 5.9476 5.8025 0 3.5494-2.3842 6.1975-5.8222 6.1975-2.2589 0-3.4631-0.9472-4.0907-1.7222h-0.0871v7.7222h-3v-18zm6.4499 2.7006c-2.2088 0-3.5383 1.2273-3.5383 3.1029 0 1.8746 1.3305 3.5994 3.5383 3.5994 2.2077 0 3.5382-1.7248 3.5382-3.5994 0-1.8756-1.3305-3.1029-3.5382-3.1029z" fill="rgb(254, 254, 253)"/>
<path d="m39.589 25.452c-0.584-0.7619-1.3445-1.1661-2.3859-1.1661-0.8122 0-1.7765 0.3576-1.7765 1.2146 0 2.0469 6.5737 0.3805 6.5737 4.8329 0 2.7137-2.7662 3.6668-5.2535 3.6668-1.8779 0-3.5023-0.4528-4.7465-1.7616l2.031-1.7863c0.7869 0.8095 1.5991 1.4049 2.893 1.4049 0.8882 0 2.076-0.4042 2.076-1.3098 0-2.357-6.6198-0.5003-6.6198-4.8566 0-2.5473 2.4367-3.6906 4.8986-3.6906 1.6245 0 3.3503 0.4765 4.3399 1.7378l-2.03 1.714z" fill="rgb(254, 254, 253)"/>
<path d="m48 22h-3v12h3v-12z" fill="rgb(254, 254, 253)"/>
<path d="M46.4741 20C47.617 20 48.5 19.3544 48.5 18.4995C48.5 17.6456 47.617 17 46.4741 17C45.3313 17 44.5 17.7083 44.5 18.4995C44.5 19.2917 45.3313 20 46.4741 20Z" fill="rgb(1, 112, 183)"/>
</svg>
