<?xml version="1.0" encoding="UTF-8"?>
<!-- generated by Finnhub -->
<svg viewBox="0 0 55.5 55.5" xmlns="http://www.w3.org/2000/svg">
<path d="M 0,0 H 55.5 V 55.5 H 0 Z" fill="rgb(239, 242, 248)"/>
<path d="M 3.99,27.749 S 16.041,23.149 28.486,23.228 C 43.239,23.323 51.916,28.127 51.916,28.127 L 52,27.833 S 43.375,21.848 28.598,22.003 C 14.326,22.153 4.058,27.471 4.058,27.471 L 4,27.764 Z" fill="rgb(147, 97, 66)"/>
<path d="M 10.96,29.278 H 9.6 L 9.928,28 H 14.494 L 14.164,29.293 H 12.793 L 11.52,34 H 9.698 L 10.97,29.293 Z M 15.2,28 H 19.345 L 19.028,29.244 H 16.706 L 16.336,30.357 H 18.512 L 18.207,31.551 H 16.033 L 15.737,32.756 H 18.147 L 17.832,34 H 13.599 L 15.201,28 Z M 20.393,28 H 22.431 L 22.576,31.715 H 22.596 L 23.625,28 H 25.33 L 23.728,34 H 21.73 L 21.433,30.349 H 21.415 L 20.495,34 H 18.791 L 20.393,28 Z M 26.488,28 H 28.525 L 28.67,31.715 H 28.69 L 29.721,28 H 31.426 L 29.824,34 H 27.825 L 27.529,30.349 H 27.509 L 26.591,34 H 24.885 L 26.488,28 Z M 32.582,28 H 36.727 L 36.411,29.244 H 34.089 L 33.719,30.357 H 35.895 L 35.59,31.551 H 33.415 L 33.119,32.756 H 35.53 L 35.214,34 H 30.98 L 32.581,28 Z M 40.019,29.824 C 40.188,29.161 40.09,28.965 39.738,28.965 C 39.179,28.965 38.946,29.457 38.544,31.036 C 38.142,32.616 38.092,33.041 38.65,33.041 C 39.102,33.041 39.283,32.713 39.565,31.609 H 41.328 L 41.218,32.042 C 40.801,33.679 39.554,34.072 38.388,34.072 C 36.341,34.072 36.108,33.213 36.663,31.036 C 37.231,28.802 38.109,27.934 40,27.934 C 41.646,27.934 42.08,28.654 41.793,29.783 L 41.699,30.151 H 39.935 L 40.019,29.824 Z M 44.157,33.04 C 44.716,33.04 44.884,32.506 45.285,30.927 C 45.687,29.347 45.736,28.922 45.178,28.922 S 44.452,29.347 44.05,30.927 C 43.649,32.506 43.6,33.041 44.157,33.041 Z M 45.44,27.89 C 47.302,27.89 47.722,28.742 47.166,30.927 C 46.61,33.111 45.756,34.072 43.896,34.072 C 42.034,34.072 41.613,33.112 42.169,30.927 C 42.725,28.742 43.579,27.891 45.44,27.891 Z"/>
</svg>
