<?xml version="1.0" encoding="UTF-8"?>
<!-- generated by Finnhub -->
<svg viewBox="0 0 55.5 55.5" xmlns="http://www.w3.org/2000/svg">
<path d="M 0,0 H 55.5 V 55.5 H 0 Z" fill="rgb(239, 242, 248)"/>
<path d="M 8.39,21.985 H 8.8 S 9.19,22.01 9.2,22.62 V 25.08 H 8.4 V 22 Z" fill="rgb(13, 135, 200)"/>
<path d="M 8.39,24.695 L 10.67,23.4 S 11.46,22.92 11.74,23.3 C 11.95,23.58 12,23.72 12,23.72 L 9.1,25.42 S 8.4,25.75 8.4,25.34 V 24.71 Z" fill="rgb(40, 178, 221)"/>
<path d="M 4.5,23.965 L 4.28,24.38 S 4.02,24.83 4.56,25.15 L 6.76,26.37 L 7.27,25.52 L 4.51,23.98 Z" fill="rgb(93, 108, 110)"/>
<path d="M 6.94,25.325 L 4.65,26.54 S 3.83,26.97 4.03,27.39 C 4.17,27.7 4.28,27.82 4.28,27.82 L 7.25,26.23 S 7.88,25.86 7.51,25.65 L 6.95,25.34 Z" fill="rgb(156, 184, 188)"/>
<path d="M 7.99,29.985 H 7.73 S 7.21,29.99 7.2,29.38 V 26.92 H 8 V 30 Z" fill="rgb(93, 178, 77)"/>
<path d="M 7.99,27.275 L 5.83,28.6 S 5.07,29.08 4.79,28.7 C 4.59,28.42 4.54,28.28 4.54,28.28 L 7.37,26.58 S 8,26.25 8,26.66 V 27.29 Z" fill="rgb(164, 197, 72)"/>
<path d="M 7.99,21.985 H 7.73 S 7.21,22.01 7.2,22.62 V 25.08 H 8 V 22 Z" fill="rgb(234, 90, 38)"/>
<path d="M 7.99,24.695 L 5.83,23.4 S 5.07,22.92 4.79,23.3 C 4.59,23.58 4.54,23.72 4.54,23.72 L 7.37,25.42 S 8,25.75 8,25.34 V 24.71 Z" fill="rgb(248, 175, 57)"/>
<path d="M 12.49,25.985 V 26.8 H 11 V 31 H 10 V 26.81 H 8.5 V 26 H 12.5 Z M 15.41,31 L 14.38,29 H 14 V 31 H 13 V 26 H 14.76 C 15.66,26 16.45,26.57 16.45,27.53 C 16.45,28.21 16.04,28.79 15.38,28.97 L 16.5,31 H 15.41 Z M 14,28.3 H 14.72 C 15.24,28.3 15.48,28.02 15.48,27.55 C 15.48,27.09 15.23,26.83 14.72,26.83 H 14 V 28.3 Z"/>
<path d="M 35.370000000000005,28.985 L 36.41,31 H 37.5 L 36.38,28.97 L 36.58,28.9 C 37.12,28.67 37.45,28.14 37.45,27.53 C 37.45,26.57 36.67,26 35.75,26 H 34 V 31 H 35 V 29 H 35.38 Z M 34.8,30.8 V 28.8 H 35.5 L 36.54,30.8 H 37.16 L 36.08,28.85 L 36.33,28.78 C 36.89,28.62 37.25,28.13 37.25,27.53 C 37.25,27.11 37.08,26.78 36.81,26.56 A 1.62,1.62 0 0,0 35.76,26.2 H 34.2 V 30.8 H 34.8 Z M 34.8,28.5 V 26.63 H 35.72 C 36.01,26.63 36.26,26.7 36.43,26.88 C 36.61,27.05 36.68,27.28 36.68,27.55 S 36.61,28.06 36.44,28.24 A 0.96,0.96 0 0,1 35.72,28.5 H 34.8 Z M 35.72,28.3 C 36.24,28.3 36.48,28.02 36.48,27.55 C 36.48,27.09 36.23,26.83 35.72,26.83 H 35 V 28.3 H 35.72 Z" fill-rule="evenodd"/>
<path d="M 19.49,30.985 C 18.1,31 17,29.9 17,28.5 S 18.12,26 19.5,26 C 20.9,26 22,27.1 22,28.5 C 22,29.89 20.9,31 19.5,31 Z M 19.5,30.13 C 20.43,30.13 21,29.38 21,28.5 C 21,27.61 20.42,26.88 19.5,26.88 S 18,27.61 18,28.5 C 18,29.39 18.58,30.13 19.5,30.13 Z"/>
<path d="M 38.190000000000005,28.485 C 38.2,29.78 39.22,30.8 40.5,30.8 C 41.79,30.8 42.8,29.78 42.8,28.5 C 42.8,27.22 41.78,26.2 40.5,26.2 A 2.29,2.29 0 0,0 38.2,28.5 Z M 42.2,28.5 C 42.2,29.46 41.56,30.33 40.5,30.33 S 38.8,29.47 38.8,28.5 C 38.8,27.53 39.45,26.68 40.5,26.68 C 41.56,26.68 42.2,27.53 42.2,28.5 Z M 38,28.5 C 38,29.9 39.1,31 40.5,31 S 43,29.89 43,28.5 C 43,27.1 41.9,26 40.5,26 C 39.12,26 38,27.1 38,28.5 Z M 42,28.5 C 42,29.38 41.43,30.13 40.5,30.13 C 39.58,30.13 39,29.39 39,28.5 C 39,27.61 39.58,26.88 40.5,26.88 S 42,27.61 42,28.5 Z M 44.3,29.06 V 26.2 H 43.7 V 29.06 C 43.7,29.59 43.89,30.02 44.2,30.32 C 44.5,30.62 44.95,30.8 45.48,30.8 C 46.52,30.8 47.3,30.1 47.3,29.06 V 26.2 H 46.7 V 29.06 C 46.7,29.43 46.6,29.75 46.38,29.97 A 1.2,1.2 0 0,1 45.49,30.3 C 45.14,30.3 44.83,30.2 44.61,29.97 A 1.27,1.27 0 0,1 44.3,29.07 Z M 44.5,26 H 43.5 V 29.06 C 43.5,30.21 44.33,31 45.48,31 C 46.62,31 47.5,30.22 47.5,29.06 V 26 H 46.5 V 29.06 C 46.5,29.73 46.14,30.1 45.5,30.1 C 44.85,30.1 44.5,29.73 44.5,29.06 V 26 Z M 49.3,28.88 H 50.27 C 50.69,28.88 51.07,28.75 51.35,28.53 C 51.62,28.31 51.8,27.98 51.8,27.55 C 51.8,27.11 51.63,26.78 51.36,26.55 A 1.7,1.7 0 0,0 50.26,26.2 H 48.7 V 30.8 H 49.3 V 28.88 Z M 49.5,29.08 H 50.27 C 51.19,29.08 52,28.53 52,27.55 C 52,26.55 51.2,26 50.27,26 H 48.5 V 31 H 49.5 V 29.08 Z M 49.3,26.62 H 50.23 C 50.51,26.62 50.77,26.68 50.95,26.85 C 51.13,27.03 51.2,27.27 51.2,27.55 C 51.2,27.81 51.13,28.05 50.95,28.22 C 50.78,28.4 50.53,28.47 50.23,28.47 H 49.3 V 26.62 Z M 50.23,28.27 C 50.76,28.27 51,28 51,27.55 C 51,27.06 50.75,26.82 50.23,26.82 H 49.5 V 28.27 H 50.23 Z" fill-rule="evenodd"/>
<path d="M 26.99,30.985 L 24,28.25 V 31 H 23 V 26 L 26,28.75 V 26 H 27 V 31 Z"/>
<path d="M 31.95,29.185 C 31.76,29.78 31.29,30.12 30.59,30.12 C 29.66,30.12 29,29.42 29,28.5 C 29,27.62 29.64,26.9 30.55,26.9 C 31.09,26.9 31.5,27.12 31.72,27.54 H 32.88 A 2.14,2.14 0 0,0 32.8,27.34 C 32.42,26.46 31.5,26 30.55,26 A 2.49,2.49 0 0,0 28,28.5 C 28,29.94 29.14,31 30.56,31 C 31.7,31 32.77,30.24 33,29.1 V 28 H 30 V 29 H 32.01 L 31.96,29.2 Z M 30.2,28.8 H 32.26 L 32.21,29.04 C 32.12,29.44 31.94,29.76 31.66,29.98 C 31.38,30.2 31.01,30.32 30.59,30.32 C 29.54,30.32 28.8,29.52 28.8,28.5 C 28.8,27.52 29.52,26.7 30.55,26.7 C 31.1,26.7 31.55,26.92 31.84,27.34 H 32.58 C 32.22,26.6 31.41,26.2 30.55,26.2 C 29.24,26.2 28.2,27.19 28.2,28.5 C 28.2,29.83 29.24,30.8 30.56,30.8 C 31.61,30.8 32.59,30.1 32.8,29.07 V 28.2 H 30.2 V 28.8 Z" fill-rule="evenodd"/>
</svg>
