<?xml version="1.0" encoding="UTF-8"?>
<!-- generated by Finnhub -->
<svg viewBox="0 0 55.5 55.5" xmlns="http://www.w3.org/2000/svg">
<path d="M0 0h55.5v55.5H0z" fill="rgb(50, 59, 89)"/>
<path d="M14 16h28v4H14v-4Zm0 8h28v4H14v-4Zm32 8H10v4h5v2.54a.1.1 0 0 1-.04.08c-.14.1-.6.42-.91.61a.1.1 0 0 0-.05.09v.58c0 .06.04.1.1.1h4.8a.1.1 0 0 0 .1-.1v-.59a.1.1 0 0 0-.04-.08l-.92-.6a.1.1 0 0 1-.04-.09V36h20v2.54a.1.1 0 0 1-.04.08c-.14.1-.6.42-.91.61a.1.1 0 0 0-.05.09v.58c0 .06.04.1.1.1h4.8a.1.1 0 0 0 .1-.1v-.59a.1.1 0 0 0-.04-.08l-.92-.6a.1.1 0 0 1-.04-.09V36h5v-4Z" fill="rgb(254, 254, 253)"/>
</svg>
