<!-- by Finnhub --><svg xmlns="http://www.w3.org/2000/svg" width="56" height="56" viewBox="0 0 56 56"><path fill="#F0F3FA" d="M0 0h56v56H0z"/><path d="M14.1 26.65c1.1 4.56 6.2 9.7 8.62 11.7 0-1.78 0-2.87.9-6.73.72-3.08.74-5.62.66-6.5-.3-1.72-1.91-4.97-6.06-4.24-4.14.73-4.47 4.15-4.11 5.77z" fill="url(#adj0avaty)"/><path d="M28.74 14.13c-2.45 3.66-2.66 10.2-2.46 13 1.23-1.17 1.98-1.88 5.25-3.85a23.99 23.99 0 0 0 4.94-3.86c1-1.3 2.19-4.44-1.03-6.52-3.22-2.09-5.81-.05-6.7 1.23z" fill="url(#bdj0avaty)"/><path d="M27.47 28.96C24.27 33.76 24 42.32 24.25 46c1.61-1.53 2.6-2.46 6.87-5.04a31.44 31.44 0 0 0 6.49-5.06c1.3-1.71 2.86-5.81-1.36-8.55-4.22-2.73-7.61-.06-8.78 1.61z" fill="url(#cdj0avaty)"/><defs><linearGradient id="adj0avaty" x1="19.16" y1="20.78" x2="19.16" y2="38.35" gradientUnits="userSpaceOnUse"><stop stop-color="#D67DAB"/><stop offset="1" stop-color="#CE3289"/></linearGradient><linearGradient id="bdj0avaty" x1="36.12" y1="13.41" x2="25.44" y2="24.71" gradientUnits="userSpaceOnUse"><stop stop-color="#A379A9"/><stop offset="1" stop-color="#823883"/></linearGradient><linearGradient id="cdj0avaty" x1="37.15" y1="28.02" x2="22.08" y2="43.95" gradientUnits="userSpaceOnUse"><stop stop-color="#D97E6C"/><stop offset=".63" stop-color="#CB4B42"/></linearGradient></defs></svg>