<?xml version="1.0" encoding="UTF-8"?>
<!-- generated by Finnhub -->
<svg viewBox="0 0 55.5 55.5" xmlns="http://www.w3.org/2000/svg">
<path d="M 0,0 H 55.5 V 55.5 H 0 Z" fill="rgb(239, 242, 248)"/>
<path d="M 27.49,20.985 H 12 L 4,35 H 20 L 27.5,21 Z" fill="rgb(169, 170, 174)"/>
<path d="M 37.99,20.985 H 27.5 L 20,35 H 31 L 38,21 Z" fill="rgb(181, 17, 25)"/>
<path d="M 48.99,20.985 H 38 L 31,35 H 41.5 L 49,21 Z M 52,28 H 46 V 29.5 H 46.5 C 46.5,28.7 47.33,28.5 47.5,28.5 H 48.5 V 33 C 48.5,33.4 48.17,33.5 48,33.5 V 34 H 50 V 33.5 C 49.6,33.5 49.5,33.17 49.5,33 V 28.5 H 50.5 C 51.3,28.5 51.5,29.17 51.5,29.5 H 52 V 28 Z" fill="rgb(140, 1, 4)"/>
<path d="M 43.09,31.985 H 37 C 35.12,32 33.74,31.86 32.66,31.68 L 34.46,28.06 C 35.99,28 37.25,28 38,28 C 39.6,27.6 39.33,25.5 39,24.5 C 41,24.5 41.83,26.83 42,28 H 45.25 L 43.11,32 Z" fill="rgb(182, 16, 25)"/>
<path d="M 23.45,28.525 L 25,30 C 25.5,30.5 26,32.5 26,34 C 26,34 27.5,31 29,31 C 29.53,31 30.06,31.13 30.75,31.29 C 31.27,31.41 31.89,31.56 32.65,31.69 L 34.47,28.06 A 50.76,50.76 0 0,0 29.36,28.52 C 28.86,28.6 28.09,28.72 27,28 C 26.65,27.77 25.78,27.16 24.63,26.35 L 23.46,28.54 Z" fill="rgb(249, 253, 253)"/>
<path d="M 17.09,20.985 L 24.63,26.35 L 23.46,28.54 L 15.55,21 H 17.1 Z" fill="rgb(218, 219, 220)"/>
</svg>
