<?xml version="1.0" encoding="UTF-8"?>
<!-- generated by Finnhub -->
<svg viewBox="0 0 55.5 55.5" xmlns="http://www.w3.org/2000/svg">
<path d="M0 0h55.5v55.5H0z" fill="url(#k)"/>
<path d="M47.89 20.75v-.01l-.07-.13-.02-.03a1.25 1.25 0 0 0-.14-.18 1.08 1.08 0 0 0-.1-.1l-.02-.02-.04-.03a1.1 1.1 0 0 0-.07-.05h-.01l-.05-.04a1.08 1.08 0 0 0-.08-.04h-.01l-.05-.03-.07-.02-.03-.01-.05-.02-.1-.02h-.05c-.06-.02-.11-.02-.17-.02h-9.98c-.5 0-.95.31-1.14.8L31.02 32.5c-.2.5-.07 1.05.31 1.41.23.22.52.34.83.34h9.99c.5 0 .95-.31 1.14-.8l4.62-11.72c.13-.32.12-.68-.02-1Zm-7.69 9.9a.25.25 0 0 1-.23.16H36.1l-.02-.01-.03-.02h-.02v-.02l-.03-.01-.02-.02v-.01a.26.26 0 0 1-.04-.26l2.7-6.86c.04-.1.13-.16.23-.16h3.81c.09 0 .16.04.2.11.06.08.07.16.03.24l-2.7 6.86ZM8.35 20l2.2 3.44h3.57L9.86 34.26h4.01l4.26-10.82h3.4L22.88 20H8.35Z"/>
<path d="M36.55 20h-5.3L26 24l1.6-4h-4.15l-5.62 14.26h4l1.8-4.46.9-.7 1.86 5.16h4.46l-2.77-7.84L36.55 20ZM44.79 34.97H9.59L8 39l31.36-3.37 5.43-.66Z"/>
<path d="M46.76 20.17h-9.98c-.43 0-.82.27-.98.68l-4.62 11.72c-.28.71.23 1.5.98 1.5h9.99c.43 0 .82-.28.98-.69l4.62-11.72c.28-.71-.23-1.5-.99-1.5Zm-3.7 3.68-2.7 6.86a.42.42 0 0 1-.39.27h-3.81c-.3 0-.5-.31-.4-.6l2.7-6.86a.42.42 0 0 1 .4-.27h3.81c.3 0 .5.31.4.6Z" fill="url(#j)"/>
<path d="M35.51 31c.15.21.39.34.65.34h3.81c.32 0 .6-.2.72-.5l2.7-6.86a.81.81 0 0 0-.07-.74l-.3.2c.08.12.1.26.05.4l-2.7 6.87a.42.42 0 0 1-.4.27h-3.81a.42.42 0 0 1-.35-.18l-.3.2Z" fill="rgb(254, 254, 253)"/>
<path d="M32.16 33.7a.7.7 0 0 1-.58-.32.73.73 0 0 1-.07-.68l4.61-11.72a.7.7 0 0 1 .66-.45h9.98a.7.7 0 0 1 .6.32l.03.07.28-.23c-.18-.3-.51-.52-.9-.52h-9.99c-.43 0-.82.27-.98.68l-4.62 11.72c-.28.71.23 1.5.98 1.5" fill="rgb(254, 254, 253)"/>
<path d="M21.16 22.89h-3.39L13.52 33.7h-2.87l-.52.36h3.62l4.26-10.81h3.4l1.2-3.08-.49.36-.96 2.36Z" fill="url(#i)"/>
<path d="m34.95 20.53-7.5 5.68.42.13 2.73 7.72-2.73-7.72 8.15-6.17-1.07.36Z" fill="url(#h)"/>
<path d="M30.1 33.7h-3.35l-1.97-5.47-1.58 1.2-1.73 4.27h-2.86l-.52.36h3.62l1.78-4.4 1.13-.85 1.89 5.25h4.1l-.5-.36Z" fill="url(#g)"/>
<path d="m26.81 20.53-2.03 5.07.82-1.08 5.7-4.35h4.72-4.71l-5.71 4.35 1.74-4.35-.53.36Z" fill="rgb(1, 166, 2)"/>
<path d="M14.91 22.89h-4.08l-1.5-2.36-.65-.36 1.96 3.08h3.75l-4.26 10.81 4.26-10.81.52-.36Z" fill="url(#f)"/>
<path d="M32.16 33.7a.7.7 0 0 1-.58-.32.73.73 0 0 1-.07-.68l4.61-11.72a.7.7 0 0 1 .66-.45h9.98a.7.7 0 0 1 .6.32c.12.2.15.45.06.68L42.8 33.25a.7.7 0 0 1-.65.45h-9.99Zm6.7-10.81c-.32 0-.6.2-.72.5l-2.7 6.86c-.1.24-.07.52.07.74.15.22.39.35.65.35h3.81c.32 0 .6-.2.72-.5l2.7-6.86a.81.81 0 0 0-.07-.74.77.77 0 0 0-.65-.35h-3.81Z" fill="url(#e)"/>
<path d="M10.84 22.89h4.07L10.65 33.7h2.87l4.25-10.81h3.4l.95-2.36H9.32l1.52 2.36Z" fill="url(#d)"/>
<path d="m24.78 25.6 2.03-5.07h-3.03L18.6 33.7h2.86l1.73-4.26 1.58-1.2 1.97 5.46h3.35l-2.65-7.5 7.5-5.67h-3.52l-6.65 5.07Z" fill="url(#c)"/>
<path d="M9.33 20.53h12.79l.5-.36H8.68l.65.36ZM18.61 33.7l5.17-13.17-.22-.36-5.47 13.9.52-.37ZM10.65 33.7l4.26-10.81-.52.36-4.26 10.81.52-.36Z" fill="rgb(254, 254, 253)"/>
<path d="m23.56 20.17.22.36h3.03l.53-.36h-3.78ZM27.45 26.2l2.65 7.5.5.36-2.73-7.72-.42-.13ZM25.6 24.52l-.82 1.08 6.65-5.07h3.52l1.07-.36H31.3l-5.71 4.35Z" fill="rgb(254, 254, 253)"/>
<path d="M9.7 35.14h32.4L8.26 38.78l1.44-3.64Z" fill="url(#b)"/>
<path d="M9.93 35.5h25.21L8.78 38.35l1.15-2.85Z" fill="url(#a)"/>
<path d="M42.1 35.14H9.7l-1.43 3.64.51-.43 1.15-2.85h25.21l6.95-.36Z" fill="rgb(254, 254, 253)"/>
<defs>
<linearGradient id="k" x1="10.42" x2="68.15" y1="9.71" y2="76.02" gradientUnits="userSpaceOnUse">
<stop stop-color="rgb(25, 29, 31)" offset="0"/>
<stop stop-color="rgb(5, 5, 8)" offset="1"/>
</linearGradient>
<linearGradient id="j" x1="30.06" x2="48.44" y1="27.12" y2="27.12" gradientUnits="userSpaceOnUse">
<stop stop-color="rgb(1, 119, 2)" offset=".32"/>
<stop stop-color="rgb(1, 145, 2)" offset=".46"/>
<stop stop-color="rgb(1, 160, 2)" offset=".58"/>
<stop stop-color="rgb(1, 166, 2)" offset=".68"/>
</linearGradient>
<linearGradient id="i" x1="13.78" x2="20.68" y1="33.08" y2="18.46" gradientUnits="userSpaceOnUse">
<stop stop-color="rgb(1, 72, 2)" offset=".13"/>
<stop stop-color="rgb(1, 83, 2)" offset=".17"/>
<stop stop-color="rgb(1, 119, 2)" offset=".32"/>
<stop stop-color="rgb(1, 145, 2)" offset=".46"/>
<stop stop-color="rgb(1, 160, 2)" offset=".58"/>
<stop stop-color="rgb(1, 166, 2)" offset=".68"/>
</linearGradient>
<linearGradient id="h" x1="37.08" x2="30.33" y1="27.82" y2="26.62" gradientUnits="userSpaceOnUse">
<stop stop-color="rgb(1, 119, 2)" offset=".32"/>
<stop stop-color="rgb(1, 145, 2)" offset=".46"/>
<stop stop-color="rgb(1, 160, 2)" offset=".58"/>
<stop stop-color="rgb(1, 166, 2)" offset=".68"/>
</linearGradient>
<linearGradient id="g" x1="24.34" x2="24.44" y1="35.12" y2="25.31" gradientUnits="userSpaceOnUse">
<stop stop-color="rgb(1, 72, 2)" offset=".13"/>
<stop stop-color="rgb(1, 119, 2)" offset=".32"/>
<stop stop-color="rgb(1, 145, 2)" offset=".46"/>
<stop stop-color="rgb(1, 160, 2)" offset=".58"/>
<stop stop-color="rgb(1, 166, 2)" offset=".68"/>
</linearGradient>
<linearGradient id="f" x1="13.73" x2="4.93" y1="29.52" y2="22.35" gradientUnits="userSpaceOnUse">
<stop stop-color="rgb(1, 49, 21)" offset=".2"/>
<stop stop-color="rgb(1, 96, 43)" offset=".42"/>
<stop stop-color="rgb(1, 131, 59)" offset=".61"/>
<stop stop-color="rgb(1, 152, 69)" offset=".77"/>
<stop stop-color="rgb(1, 160, 73)" offset=".87"/>
</linearGradient>
<linearGradient id="e" x1="45.09" x2="36.87" y1="22.53" y2="28.89" gradientUnits="userSpaceOnUse">
<stop stop-color="rgb(1, 84, 2)" offset=".34"/>
<stop stop-color="rgb(1, 124, 2)" offset=".49"/>
<stop stop-color="rgb(1, 184, 2)" offset=".7"/>
<stop stop-color="rgb(174, 254, 2)" offset=".96"/>
</linearGradient>
<linearGradient id="d" x1="21.08" x2="12.08" y1="16.69" y2="25.91" gradientUnits="userSpaceOnUse">
<stop stop-color="rgb(1, 84, 2)" offset=".34"/>
<stop stop-color="rgb(1, 124, 2)" offset=".49"/>
<stop stop-color="rgb(1, 184, 2)" offset=".7"/>
<stop stop-color="rgb(174, 254, 2)" offset=".96"/>
</linearGradient>
<linearGradient id="c" x1="31.88" x2="23.35" y1="21.96" y2="30.42" gradientUnits="userSpaceOnUse">
<stop stop-color="rgb(1, 84, 2)" offset=".34"/>
<stop stop-color="rgb(1, 124, 2)" offset=".49"/>
<stop stop-color="rgb(1, 184, 2)" offset=".7"/>
<stop stop-color="rgb(174, 254, 2)" offset=".96"/>
</linearGradient>
<linearGradient id="b" x1="2.87" x2="19.39" y1="29.6" y2="34.77" gradientUnits="userSpaceOnUse">
<stop stop-color="rgb(1, 100, 2)" offset=".53"/>
<stop stop-color="rgb(1, 184, 2)" offset=".88"/>
</linearGradient>
<linearGradient id="a" x1="10.69" x2="22.84" y1="30.42" y2="37.08" gradientUnits="userSpaceOnUse">
<stop stop-color="rgb(1, 84, 2)" offset=".34"/>
<stop stop-color="rgb(1, 124, 2)" offset=".49"/>
<stop stop-color="rgb(1, 184, 2)" offset=".7"/>
<stop stop-color="rgb(174, 254, 2)" offset=".96"/>
</linearGradient>
</defs>
</svg>
