<?xml version="1.0" encoding="UTF-8"?>
<!-- generated by Finnhub -->
<svg viewBox="0 0 55.5 55.5" xmlns="http://www.w3.org/2000/svg">
<path d="M 0,0 H 55.5 V 55.5 H 0 Z" fill="rgb(14, 49, 128)"/>
<path d="M 42.99,14.625 C 42.98,13.64 42.33,13 41.63,13 H 15.26 C 13.39,13 13,14.2 13,14.74 V 41.39 C 13,42.75 13.82,42.99 14.27,43 H 41.11 C 43,43 43,41.82 43,41.35 V 14.65 Z M 34.89,21.59 C 34.81,21.94 34.72,22.23 34.64,22.49 L 34.56,22.8 A 5.2,5.2 0 0,1 32.08,26.2 C 31.25,26.69 30.53,26.98 29.47,26.82 C 28.99,26.75 27.98,25.62 28.04,24.94 C 28.11,23.99 28.55,23.88 29.21,24.25 C 30.86,25.19 32.56,23.9 33.03,22.79 C 33.4,21.91 33.49,21.23 33.63,20.07 V 20 H 33.59 C 32.83,20.01 32.06,20.02 31.02,20.23 C 30.67,20.3 30.3,20.45 30.01,20.56 C 29.69,20.69 29.45,20.78 29.39,20.72 C 29.25,20.56 29.33,20.33 29.45,19.97 L 29.49,19.87 L 29.55,19.64 C 29.6,19.44 29.65,19.24 29.79,19.06 C 29.85,18.97 30.29,18.9 30.55,18.86 C 31.25,18.76 31.95,18.74 32.65,18.71 L 33.2,18.69 L 33.78,18.66 L 33.82,18.15 L 33.87,17.5 H 31.06 L 30.39,17.54 L 30.2,17.56 C 29.89,17.6 29.61,17.64 29.54,17.54 C 29.44,17.4 29.51,16.88 29.63,16.63 L 29.67,16.53 C 29.77,16.31 29.9,15.99 30.12,16 H 39.22 C 39.44,16 39.76,16.27 39.92,16.45 C 40.02,16.56 39.97,16.92 39.81,17.05 C 39.68,17.14 39.45,17.31 39.19,17.35 C 38.59,17.45 38.25,17.45 37.17,17.48 H 35.32 L 35.24,18.58 H 36.54 L 37.27,18.6 C 38.13,18.6 38.43,18.62 38.75,18.63 H 39.05 C 39.43,18.65 39.89,18.69 39.93,18.73 C 40,18.83 40,19.32 40,19.44 C 40,19.61 39.9,19.99 39.75,20 H 35.65 V 20.01 C 35.69,20.08 35.75,20.23 35.83,20.31 C 36.53,21.18 37.33,22.1 38.14,22.81 C 38.82,23.41 39.39,23.87 40.15,24.31 C 40.51,24.53 41.19,24.41 41.65,24.31 C 41.85,24.26 42.03,24.3 42.05,24.41 C 42.09,24.58 41.1,25.67 40.5,26.25 C 39.73,27 39.13,26.97 38.45,26.18 L 37.77,25.4 C 37.36,24.94 36.95,24.49 36.57,24 C 36.1,23.4 35.71,22.82 35.27,22.18 L 35.19,22.04 L 34.89,21.59 Z M 38.52,32.57 C 38.79,32.39 39.04,32.23 39.22,31.97 L 39.25,33.07 L 39.32,34.63 C 39.37,35.7 39.42,36.73 39.42,37.87 V 38.02 C 39.42,38.42 39.42,38.78 39.09,39.14 C 38.69,39.54 37.59,39.42 37.33,39.07 C 36.98,38.6 36.96,38.59 36.82,38.58 H 36.79 A 0.7,0.7 0 0,0 36.44,38.72 C 36.37,38.78 36.31,38.95 36.26,39.08 L 36.21,39.18 V 39.2 C 36.09,39.43 36.06,39.5 36.23,39.83 C 36.58,40.52 37.09,41.03 37.63,41.17 A 4.8,4.8 0 0,0 39.34,41.18 A 1.81,1.81 0 0,0 40.66,40.32 C 40.84,40.02 40.9,39.64 40.91,39.03 C 40.92,38.69 40.91,38.34 40.88,38 L 40.85,37.38 A 80.2,80.2 0 0,0 40.77,35.5 C 40.67,33.53 40.57,31.55 40.92,29.6 C 40.97,29.33 40.88,29.18 40.78,29.01 A 3.7,3.7 0 0,1 40.73,28.93 L 40.69,28.83 C 40.62,28.71 40.56,28.58 40.43,28.53 A 0.67,0.67 0 0,0 40.13,28.45 C 39.97,28.45 39.78,28.55 39.63,28.63 L 39.51,28.68 C 39.1,28.88 38.91,29.32 39.03,29.78 C 39.13,30.15 39.15,30.28 39.17,30.78 V 31.38 S 38.27,31.62 37.89,31.63 C 37.83,31.63 37.79,31.56 37.74,31.48 L 37.67,31.37 A 2.63,2.63 0 0,1 37.61,31.27 C 37.53,31.13 37.42,30.96 37.36,30.94 C 37.18,30.91 36.44,31.19 36.39,31.39 A 6.02,6.02 0 0,0 36.36,33.25 C 36.38,33.41 36.51,33.55 36.65,33.67 L 36.71,33.73 C 36.77,33.79 36.83,33.85 36.89,33.85 S 37.13,33.77 37.22,33.7 C 37.38,33.6 37.44,33.53 37.53,33.42 L 37.83,33.1 C 38.05,32.87 38.3,32.71 38.53,32.57 Z M 31.64,31.68 V 31.01 L 31.63,30.79 L 31.41,30.82 A 9.9,9.9 0 0,1 29.29,30.92 C 29.14,30.91 28.64,30.83 28.52,30.7 C 28.47,30.64 28.52,30.48 28.62,30.22 V 30.21 C 28.79,29.76 29.19,29.18 29.52,29.27 C 30.77,29.64 32.02,29.47 33.26,29.17 C 33.46,29.13 33.64,29.17 33.89,29.24 C 33.97,29.26 34.09,29.31 34.13,29.39 C 34.16,29.46 34.1,29.7 34.07,29.78 A 0.9,0.9 0 0,1 33.67,30.26 C 33.51,30.36 33.03,30.59 33.03,30.59 V 31.61 L 33.48,31.62 C 33.84,31.63 34.23,31.64 34.55,31.69 C 34.79,31.73 35.07,31.8 35.25,31.97 C 35.38,32.09 35.45,32.4 35.4,32.59 C 35.37,32.73 35.15,32.94 35,32.96 C 34.54,32.99 34.28,32.99 33.66,32.94 L 33.01,32.89 S 32.97,33.44 32.95,34.07 C 32.87,37.1 32.94,38.13 32.98,38.8 L 33,39.52 C 33,39.89 32.9,40.13 32.8,40.42 L 32.62,40.88 C 32.57,41.06 32.28,41.28 32.14,41.26 C 31.99,41.23 31.73,40.76 31.66,40.55 A 2.56,2.56 0 0,1 31.6,39.68 L 31.61,39.5 L 31.63,38.84 L 31.66,37.24 C 31.69,35.36 31.66,32.98 31.66,32.98 L 30.76,33.07 L 30.6,33.08 C 30.39,33.11 30.16,33.13 30,33.18 L 29.94,33.2 C 29.72,33.27 29.64,33.3 29.41,33.47 C 29.24,33.59 28.91,33.73 28.83,33.75 C 28.73,33.79 28.68,33.78 28.58,33.75 C 28.37,33.68 28.12,33.45 28.11,33.32 C 28.11,33.15 28.21,33 28.33,32.8 C 28.4,32.7 28.47,32.6 28.53,32.48 L 28.63,32.25 C 28.69,32.11 28.73,32.03 28.88,31.93 C 29,31.85 29.25,31.84 29.5,31.83 H 29.68 C 29.87,31.83 30,31.81 30.18,31.79 C 30.33,31.79 30.5,31.77 30.74,31.75 L 31.09,31.73 L 31.64,31.68 Z M 28.44,36.83 V 36.88 L 28.51,37.5 C 28.57,37.98 28.72,38.22 28.84,38.21 C 28.98,38.21 29.39,38.11 29.54,37.99 A 5.1,5.1 0 0,0 31.34,35.24 C 31.52,34.68 31.21,34.48 30.89,34.31 C 30.55,34.12 30.33,34.27 30.19,34.68 C 29.94,35.41 29.49,35.95 28.86,36.33 C 28.56,36.45 28.5,36.48 28.46,36.61 A 0.62,0.62 0 0,0 28.44,36.83 Z M 35.7,37.24 C 35.69,37.28 35.55,37.28 35.4,37.29 H 35.37 C 35.19,37.29 35.02,37.29 34.91,37.25 A 2,2 0 0,1 33.83,35.62 L 33.8,35.36 A 7.6,7.6 0 0,0 33.67,34.46 C 33.65,34.39 33.62,34.35 33.59,34.31 C 33.54,34.24 33.49,34.18 33.56,34.07 C 33.61,33.97 33.91,33.98 33.99,34 C 34.16,34.02 34.31,34.05 34.46,34.37 C 34.63,34.73 34.86,35 35.1,35.25 C 35.44,35.63 35.75,35.98 35.78,36.58 C 35.79,36.75 35.73,37.18 35.7,37.24 Z M 21.46,22.92 C 21.29,22.96 21,23.06 20.89,23.23 A 29.4,29.4 0 0,0 20.77,22.48 S 21.8,22.16 22.33,22.23 V 22.83 S 22.01,22.78 21.46,22.92 Z M 21.86,23.79 C 22.03,23.76 22.19,23.74 22.33,23.74 C 22.34,23.99 22.31,24.34 22.31,24.34 L 21.41,24.4 L 20.91,24.41 S 20.94,23.91 20.92,23.61 C 20.98,23.91 21.43,23.85 21.86,23.79 Z M 21.73,19.51 S 21.71,19.26 21.71,18.99 L 22.73,18.92 C 23.04,18.9 23.35,18.89 23.64,18.86 C 23.64,18.98 23.55,19.32 23.5,19.42 L 22.5,19.45 L 21.73,19.51 Z M 24.89,22.35 L 24.8,23.12 L 23.42,22.82 V 22.52 L 23.44,22.13 S 23.84,22.11 24.25,22.18 A 8,8 0 0,1 24.89,22.35 Z M 24.68,23.94 A 5.7,5.7 0 0,0 24.62,24.44 C 24.22,24.38 23.35,24.34 23.35,24.34 L 23.37,23.68 S 23.67,23.65 23.84,23.65 C 24.26,23.65 24.45,23.65 24.71,23.67 L 24.68,23.94 Z M 21.4,15.69 C 21.47,15.79 21.52,15.9 21.53,15.96 C 21.03,16 20.63,16.01 20.2,16.03 C 19.81,16.03 19.39,16.05 18.83,16.09 H 18.36 C 17.96,16.1 17.5,16.11 17.19,16.22 C 16.91,16.32 16.61,16.52 16.56,16.82 C 16.49,17.21 16.85,17.45 17.16,17.47 H 17.29 C 17.41,17.49 17.54,17.5 17.66,17.49 L 18.65,17.36 C 19.27,17.28 19.89,17.2 20.51,17.16 C 21.36,17.1 22.21,17.11 23.06,17.12 H 23.53 C 23.65,17.12 23.8,17.12 23.9,17.14 C 23.78,17.21 23.74,17.89 23.74,17.89 L 23.19,17.92 L 21.67,18.03 S 21.65,17.83 21.57,17.7 C 21.5,17.64 20.95,17.66 20.87,17.75 C 20.76,17.9 20.77,18.15 20.77,18.15 C 20.72,18.16 20.63,18.19 20.23,18.25 C 19.93,18.28 19.87,18.37 19.83,18.43 L 19.81,18.46 C 19.76,18.54 19.91,18.78 20.01,18.82 C 20.26,18.94 20.41,19.01 20.82,19.04 L 20.85,19.65 L 20.05,19.89 L 19.95,19.92 L 19.59,20.02 C 19.49,20.06 19.41,20.07 19.34,20.08 C 19.29,20.08 19.26,20.09 19.23,20.11 C 19.1,20.17 19.04,20.31 18.97,20.51 L 18.9,20.69 C 18.78,20.98 18.9,21.12 18.98,21.14 C 19.31,21.22 19.54,21.14 19.76,21.05 A 6.03,6.03 0 0,1 22.41,20.49 C 22.36,20.49 22.31,21.22 22.31,21.22 L 21.74,21.32 C 21.49,21.35 21.31,21.39 21.14,21.42 A 10.88,10.88 0 0,1 19.77,21.57 C 19.57,21.57 19.34,21.56 19.3,21.66 C 19.26,21.74 19.27,22.11 19.3,22.23 C 19.32,22.3 19.37,22.35 19.42,22.4 C 19.46,22.45 19.5,22.49 19.52,22.54 C 19.66,22.9 19.72,23.14 19.76,23.57 C 19.79,23.8 19.77,24.37 19.75,24.62 A 0.44,0.44 0 0,1 19.64,24.9 C 19.61,24.93 19.58,24.96 19.56,25.02 C 19.51,25.17 19.53,25.25 19.58,25.46 L 19.62,25.62 C 19.67,25.81 19.82,25.87 19.98,25.79 A 5.2,5.2 0 0,0 20.68,25.41 C 20.83,25.34 21.16,25.33 21.38,25.32 H 23.05 L 23.37,25.33 H 23.5 A 25.14,25.14 0 0,0 25.04,25.33 C 25.18,25.28 25.46,25.03 25.57,24.93 C 25.63,24.86 25.63,24.71 25.63,24.52 L 25.64,24.22 C 25.66,23.93 25.84,23.12 25.89,22.82 C 25.95,22.56 26,22.41 26.05,22.28 C 26.09,22.17 26.12,22.08 26.15,21.94 C 26.18,21.74 26.08,21.6 25.98,21.44 L 25.93,21.37 C 25.86,21.25 25.49,20.97 25.35,21.07 C 25.23,21.16 25.11,21.42 25.11,21.42 S 24.61,21.28 24.24,21.22 L 23.45,21.14 S 23.52,20.6 23.49,20.46 C 23.79,20.46 24.19,20.46 24.34,20.48 C 25.01,20.52 25.41,20.55 26.1,20.81 L 26.16,20.83 C 26.8,21.07 27.44,21.31 27.83,21.13 C 28.17,20.97 28.64,19.99 28.54,19.74 C 28.52,19.69 28.2,19.69 27.86,19.69 H 27.34 C 26.69,19.65 26.46,19.63 25.88,19.56 L 25.71,19.55 L 25.14,19.5 C 24.94,19.5 24.74,19.48 24.55,19.46 C 24.57,19.43 24.59,19.3 24.62,19.16 C 24.64,19.03 24.66,18.89 24.68,18.86 C 24.98,18.87 25.15,18.86 25.28,18.84 L 25.62,18.82 C 25.86,18.77 26.05,18.65 26.04,18.51 C 26.02,18.34 25.8,18.05 25.52,17.97 A 3.8,3.8 0 0,0 24.75,17.93 L 24.76,17.76 C 24.78,17.56 24.8,17.26 24.76,17.2 L 25.28,17.23 H 25.4 L 25.97,17.31 C 26.24,17.36 26.5,17.41 26.77,17.39 C 26.95,17.38 27.18,17.05 27.25,16.81 C 27.29,16.67 27.08,16.28 26.94,16.25 C 26.44,16.16 26.02,16.13 25.58,16.09 L 24.9,16.04 C 24.49,15.99 23.42,15.96 23.42,15.96 S 23.5,15.9 23.52,15.8 A 0.8,0.8 0 0,0 23.42,15.45 C 23.07,14.78 22.64,14.61 21.87,14.74 C 21.55,14.79 21.04,15.08 21.04,15.28 C 21.04,15.4 21.14,15.48 21.24,15.56 L 21.4,15.69 Z M 17.1,18.75 C 17.13,18.67 17.6,18.7 17.76,18.72 C 18.16,18.75 18.52,19.08 18.63,19.5 C 18.65,19.58 18.63,19.75 18.6,19.9 L 18.57,20.17 L 18.56,21.43 C 18.56,22.31 18.54,23.13 18.47,24.1 A 2.81,2.81 0 0,1 17.11,26.3 C 16.53,26.7 15.85,26.93 15.18,27.15 L 15.05,27.2 C 14.46,27.4 13.97,27.03 13.99,26.43 C 14.01,26.05 14.07,25.7 14.27,25.45 C 14.43,25.25 14.64,25.13 14.89,25.1 C 15.11,25.07 15.3,25.08 15.49,25.09 C 15.73,25.09 15.97,25.1 16.25,25.04 C 16.93,24.9 17.27,24.21 17.37,23.64 A 9.24,9.24 0 0,0 17.47,21.76 V 21.71 C 17.47,21.11 17.49,20.47 17.45,19.75 A 1.52,1.52 0 0,0 17.22,19.12 C 17.12,18.96 17.05,18.82 17.09,18.75 Z M 24.83,28.09 C 24.96,28.24 25.08,28.37 25.14,28.38 C 25.28,28.4 25.54,28.16 25.74,27.98 C 25.82,27.89 25.93,27.8 26.04,27.71 C 26.27,27.51 26.5,27.31 26.54,27.21 C 26.54,27.18 26.55,27.15 26.51,27.13 L 26.41,27.09 C 26.31,27.05 26.11,26.99 26,26.92 L 25.58,26.73 A 4,4 0 0,1 25.08,26.5 L 24.92,26.41 C 24.79,26.33 24.7,26.27 24.64,26.31 A 0.79,0.79 0 0,0 24.29,26.87 C 24.26,27.11 24.31,27.22 24.37,27.36 L 24.4,27.41 C 24.48,27.6 24.66,27.88 24.83,28.09 Z M 21.17,26.31 C 21.31,26.3 21.37,26.44 21.44,26.59 C 21.48,26.67 21.51,26.75 21.56,26.82 L 21.72,26.99 C 21.87,27.13 22.03,27.29 22,27.37 C 21.92,27.54 21.63,27.8 21.46,27.8 A 6.4,6.4 0 0,1 20.38,27.71 L 19.76,27.64 C 19.64,27.64 19.4,27.53 19.4,27.46 C 19.4,27.31 19.54,27.18 19.65,27.12 L 20.03,26.9 C 20.51,26.63 21.03,26.33 21.17,26.31 Z M 24.73,32.1 V 32.73 C 24.4,32.65 23.91,32.6 23.91,32.6 S 23.82,32.53 23.79,32.26 L 23.75,31.79 C 23.73,31.42 23.71,31.03 23.6,30.89 C 24.07,30.81 24.37,30.79 24.74,30.76 L 24.73,32.1 Z M 22.58,34.97 L 22.67,34.9 C 22.73,34.96 22.79,35.04 22.85,35.15 A 36.11,36.11 0 0,0 22.15,35.73 L 21.33,36.33 C 20.87,36.65 20.41,36.98 19.98,37.38 C 19.77,37.58 19.58,37.91 19.5,38.2 C 19.43,38.44 19.47,38.65 19.5,38.68 C 19.9,39.05 20.25,38.58 20.6,38.13 L 20.74,37.93 C 20.91,37.73 21.44,37.31 22.04,36.86 C 22.46,36.53 22.92,36.17 23.28,35.86 C 23.36,35.89 23.46,36.06 23.49,36.19 C 23.29,36.42 23.14,36.55 22.65,36.99 L 22.41,37.23 L 21.6,37.91 C 21.33,38.13 21.1,38.31 20.78,38.64 C 20.47,38.94 20.35,39.08 20.25,39.39 C 20.17,39.67 20.31,40.09 20.58,40.16 C 20.66,40.19 20.96,40.14 21.08,40.01 A 0.79,0.79 0 0,0 21.2,39.8 C 21.25,39.67 21.31,39.53 21.44,39.39 C 21.97,38.79 22.22,38.54 22.63,38.16 L 22.73,38.06 C 23.21,37.61 23.36,37.46 23.66,37.16 C 23.66,37.63 23.52,38.04 23.39,38.31 C 23.13,38.81 22.81,39.23 22.15,39.84 C 21.97,40.01 21.8,40.25 21.75,40.46 C 21.7,40.66 21.72,40.91 21.75,40.92 C 21.93,40.95 22.5,40.94 22.54,40.91 C 23.04,40.44 23.53,39.96 23.96,39.17 C 24.24,38.64 24.57,37.95 24.56,37.11 L 24.72,37.51 A 20.47,20.47 0 0,0 25.92,39.98 C 26.38,40.76 27.19,41.21 28.08,40.52 C 28.41,40.27 28.74,40.02 28.68,39.86 C 28.65,39.8 28.56,39.76 28.43,39.69 L 28.08,39.49 A 11.23,11.23 0 0,1 25.34,36.4 C 25.58,36.27 25.85,36.14 26.11,36.03 L 26.39,35.9 C 26.64,35.78 26.83,35.64 26.9,35.5 C 27,35.32 26.99,35.09 26.83,34.79 C 26.7,34.55 26.45,34.39 26.33,34.39 C 26.23,34.39 25.98,34.46 25.8,34.57 C 25.34,34.87 25.02,35.11 24.61,35.42 L 24.35,35.62 L 24.24,35.44 A 3.3,3.3 0 0,0 24.02,35.09 L 23.77,34.77 L 23.65,34.63 L 23.25,34.16 L 23.29,34.06 L 23.37,33.82 L 26.02,34.07 C 26.15,34.08 26.27,34.12 26.39,34.17 L 26.59,34.24 C 26.74,34.27 26.99,34.24 27.13,34.19 C 27.22,34.16 27.29,34 27.34,33.89 L 27.38,33.84 L 27.44,33.74 C 27.48,33.67 27.51,33.62 27.5,33.56 C 27.48,33.46 27.15,33.24 26.53,33.11 L 25.66,32.92 S 25.83,31.92 25.76,31.56 C 25.72,31.31 25.28,30.82 25.13,30.74 C 25.4,30.74 26.16,30.74 26.53,30.68 C 26.72,30.65 27.02,30.57 27.06,30.39 C 27.1,30.21 26.91,29.84 26.76,29.73 A 1.1,1.1 0 0,0 26.05,29.47 C 24.85,29.49 23.59,29.53 22.4,29.6 C 22.11,29.61 21.73,29.66 21.58,29.86 C 21.38,30.12 21.1,30.5 21.02,30.88 C 20.99,30.98 21,31.22 21.02,31.28 C 21.04,31.37 21.5,31.29 21.8,31.25 L 21.91,31.23 L 22.41,31.16 A 7.53,7.53 0 0,0 22.58,31.94 C 22.63,32.18 22.68,32.36 22.73,32.5 C 22.07,32.52 21.6,32.53 21.11,32.7 C 20.73,32.82 20.65,33 20.61,33.1 C 20.51,33.45 20.71,33.73 20.78,33.81 C 20.87,33.92 20.97,33.92 21.08,33.91 H 21.15 L 21.62,33.88 L 22.08,33.84 C 22.1,33.93 21.83,34.28 21.61,34.44 C 21.13,34.78 20.84,34.87 20.41,35.01 L 20.03,35.12 L 19.87,35.17 C 19.74,35.2 19.64,35.23 19.57,35.32 A 2,2 0 0,0 19.24,36.11 A 1.28,1.28 0 0,0 19.29,36.55 C 19.31,36.67 19.72,36.53 19.83,36.49 L 19.89,36.46 C 20.62,36.14 21.28,35.85 21.97,35.41 C 22.17,35.27 22.41,35.1 22.57,34.97 Z M 16.04,34.13 C 15.9,34.33 15.92,34.46 16.04,34.5 C 16.24,34.56 17.24,34.47 17.93,34.03 L 17.96,34.01 C 18.23,33.83 18.58,33.61 18.34,33.27 A 2.4,2.4 0 0,0 17.82,32.79 S 17.73,32.89 17.41,33.03 C 17.18,33.13 16.78,33.19 16.78,33.19 L 16.04,34.13 Z M 15.84,32.93 C 15.23,32.51 15.1,31.79 15.69,30.85 C 15.88,30.55 16.09,30.32 16.29,30.07 L 16.59,29.71 C 16.89,29.33 17.33,29.31 17.62,29.7 C 17.92,30.12 17.64,30.42 17.39,30.64 L 17.04,30.9 C 16.9,31 16.75,31.1 16.66,31.19 C 16.36,31.45 16.35,31.69 16.4,31.82 C 16.48,32.04 16.9,32.05 16.9,32.05 S 17.2,31.97 17.49,31.78 C 17.89,31.52 18.33,31.05 18.32,30.89 C 18.32,30.82 18.22,30.67 18.13,30.66 C 18.05,30.64 17.89,30.45 18.13,29.98 C 18.25,29.78 18.59,29.77 18.74,29.83 C 18.95,29.9 18.98,30.03 19.01,30.2 L 19.07,30.43 C 19.09,30.48 19.12,30.53 19.16,30.57 L 19.24,30.72 C 19.33,30.94 19.34,31.19 19.29,31.35 C 19.24,31.53 19.13,31.75 18.65,32.11 C 19.25,32.62 19.51,33.16 19.5,33.65 C 19.49,34.36 18.84,35.01 18.14,35.35 A 5.1,5.1 0 0,1 15.8,35.89 C 15.19,35.92 14.9,35.79 14.75,35.62 C 14.65,35.5 14.65,35.1 14.66,34.86 C 14.68,34.59 14.78,34.36 14.86,34.22 V 34.2 C 15.14,33.73 15.31,33.44 15.83,32.94 Z M 16.49,39.83 C 16.49,40.13 16.54,40.51 16.77,40.71 L 16.79,40.73 C 16.88,40.81 17.05,40.98 17.26,40.65 L 17.39,40.48 C 17.47,40.38 17.53,40.3 17.54,40.18 C 17.56,38.93 17.56,37.75 17.53,36.49 C 17.53,36.29 17.23,35.95 17.01,35.97 C 16.79,35.98 16.49,36.27 16.48,36.5 C 16.45,37.63 16.45,38.7 16.48,39.84 Z M 19.09,38.44 C 19.09,38.7 18.93,39.05 18.84,39.06 C 18.74,39.07 18.15,38.41 18.12,38.17 C 18.05,37.74 18.02,37.32 17.99,36.67 C 17.98,36.49 18.22,36.09 18.35,36.09 C 18.47,36.09 18.79,36.29 18.86,36.51 A 4.95,4.95 0 0,1 19.03,37.51 C 19.07,37.88 19.09,38.16 19.09,38.44 Z M 16.02,36.48 C 15.86,36.29 15.5,36.09 15.4,36.13 C 15.36,36.15 15.35,36.27 15.33,36.43 C 15.33,36.51 15.31,36.61 15.29,36.71 C 15.19,37.24 15.04,37.55 14.92,37.83 C 14.82,38.05 14.72,38.23 14.68,38.5 C 14.63,38.74 14.67,39.02 14.85,39.09 C 14.95,39.13 15.45,39.09 15.58,38.72 L 15.71,38.4 C 15.91,37.88 16.08,37.47 16.08,36.67 A 0.3,0.3 0 0,0 16.02,36.47 Z" fill="rgb(254, 254, 253)" fill-rule="evenodd"/>
</svg>
