<?xml version="1.0" encoding="UTF-8"?>
<!-- generated by Finnhub -->
<svg viewBox="0 0 55.5 55.5" xmlns="http://www.w3.org/2000/svg">
<path d="M 0,0 H 55.5 V 55.5 H 0 Z" fill="rgb(239, 242, 248)"/>
<path d="M 4.99,20.985 V 34 H 9.67 C 10.61,34 11.39,33.85 11.99,33.54 C 12.59,33.24 13.05,32.82 13.34,32.29 C 13.63,31.76 13.78,31.17 13.78,30.5 C 13.78,29.83 13.65,29.26 13.39,28.79 A 2.92,2.92 0 0,0 12.43,27.7 C 12.05,27.45 11.65,27.3 11.25,27.28 V 27.16 C 11.62,27.06 11.96,26.89 12.27,26.67 C 12.58,26.45 12.83,26.15 13.02,25.79 C 13.21,25.41 13.3,24.96 13.3,24.41 C 13.3,23.77 13.16,23.19 12.88,22.68 A 3,3 0 0,0 11.61,21.46 A 4.5,4.5 0 0,0 9.46,21 H 5 Z M 9.49,32.32 H 7 V 28 H 9.55 A 2.5,2.5 0 0,1 10.83,28.46 C 11.19,28.66 11.46,28.93 11.66,29.28 C 11.86,29.62 11.95,30 11.95,30.41 C 11.95,30.95 11.76,31.41 11.38,31.77 C 11,32.14 10.37,32.32 9.48,32.32 Z M 9.29,26.62 H 7 V 22.67 H 9.35 C 10.08,22.67 10.62,22.85 10.97,23.22 C 11.32,23.58 11.5,24.03 11.5,24.57 C 11.5,24.99 11.4,25.35 11.2,25.66 C 11,25.96 10.74,26.2 10.41,26.37 C 10.08,26.54 9.71,26.62 9.3,26.62 Z M 18.35,34 L 14.97,21 H 16.9 L 19.28,31.07 H 19.38 L 21.86,21 H 23.77 L 26.24,31.07 H 26.35 L 28.71,21 H 30.64 L 27.26,34 H 25.41 L 22.85,24.26 H 22.75 L 20.2,34 H 18.35 Z M 30.36,34 H 32.31 L 33.43,30.56 H 38.18 L 39.3,34 H 41.25 L 36.87,21 H 34.74 L 30.36,34 Z M 37.68,29 L 35.86,23.36 H 35.76 L 33.92,29 H 37.67 Z M 47.72,30 H 45.9 L 47.61,32.12 C 47.27,32.23 46.91,32.29 46.51,32.29 A 3.33,3.33 0 0,1 43.33,30.13 A 6.4,6.4 0 0,1 42.86,27.52 C 42.86,26.48 43.01,25.62 43.33,24.91 C 43.65,24.2 44.09,23.66 44.64,23.3 A 3.3,3.3 0 0,1 46.52,22.75 C 47.22,22.75 47.84,22.93 48.39,23.3 C 48.95,23.66 49.39,24.2 49.69,24.9 C 50.02,25.61 50.19,26.48 50.19,27.52 C 50.19,28.55 50.02,29.42 49.69,30.13 C 49.48,30.62 49.21,31.03 48.87,31.35 L 47.71,30 Z M 49.98,32.77 A 5.6,5.6 0 0,0 51.3,31.01 A 7.9,7.9 0 0,0 52.01,27.51 C 52.01,26.16 51.77,25 51.3,24.03 A 5.13,5.13 0 0,0 46.52,21 A 5.17,5.17 0 0,0 41.74,24.03 A 7.86,7.86 0 0,0 41.04,27.52 C 41.04,28.87 41.27,30.03 41.74,31 A 5.39,5.39 0 0,0 43.69,33.25 C 44.52,33.77 45.46,34 46.52,34 C 47.31,34 48.03,33.87 48.69,33.59 L 49.73,35 H 51.61 L 49.97,32.77 Z" fill-rule="evenodd"/>
</svg>
