<?xml version="1.0" encoding="UTF-8"?>
<!-- generated by Finnhub -->
<svg viewBox="0 0 55.5 55.5" xmlns="http://www.w3.org/2000/svg">
<path d="M0 0h55.5v55.5H0z" fill="rgb(239, 242, 248)"/>
<path d="m8.73 29 .75 1.46h.03l.76-1.46h.71l-1.06 2L11 33h-.72l-.77-1.46h-.03L8.72 33H8l1.09-2L8 29h.72ZM33.45 29.6V29h3.87v.6h-1.55V33H35v-3.4h-1.55ZM18.45 22.6V22h3.87v.6h-1.55V26H20v-3.4h-1.55ZM38.79 29v4H38v-4h.79ZM4 33v-4h3v.6H4.76v1.1h2.07v.6H4.76v1.1H7v.6H4ZM27 26v-4h3v.6h-2.24v1.1h2.07v.6h-2.07v1.1H30v.6h-3ZM49 33v-4h3v.6h-2.24v1.1h2.07v.6h-2.07v1.1H52v.6h-3ZM12 33v-4h1.55c.8 0 1.45.49 1.45 1.32 0 .85-.66 1.28-1.46 1.28H12.5V31h.93c.45 0 .8-.2.8-.68 0-.47-.36-.71-.8-.71h-.7V33H12ZM16 33v-4h.78v3.4H19v.6h-3ZM24 31c0 .42-.09.78-.26 1.08-.18.3-.42.52-.72.68-.3.16-.64.24-1.02.24s-.72-.08-1.02-.24a1.8 1.8 0 0 1-.72-.68A2.1 2.1 0 0 1 20 31c0-.42.09-.78.26-1.08.18-.3.42-.52.72-.68.3-.16.64-.24 1.02-.24s.72.08 1.02.24c.3.16.54.38.72.68.17.3.26.66.26 1.08Zm-.8 0c0-.3-.04-.54-.15-.75-.1-.2-.24-.36-.42-.46-.18-.1-.4-.16-.63-.16-.24 0-.45.06-.63.16s-.32.26-.42.46c-.1.2-.16.45-.16.75s.05.55.16.75c.1.2.24.36.42.46.18.1.4.16.63.16.24 0 .45-.05.63-.16.18-.1.32-.26.42-.46.1-.2.16-.45.16-.75ZM44 31c0 .42-.09.78-.26 1.08-.18.3-.42.52-.72.68-.3.16-.64.24-1.02.24s-.72-.08-1.02-.24a1.8 1.8 0 0 1-.72-.68A2.1 2.1 0 0 1 40 31c0-.42.09-.78.26-1.08.18-.3.42-.52.72-.68.3-.16.64-.24 1.02-.24s.72.08 1.02.24c.3.16.54.38.72.68.17.3.26.66.26 1.08Zm-.8 0c0-.3-.04-.54-.15-.75-.1-.2-.24-.36-.42-.46-.18-.1-.4-.16-.63-.16-.24 0-.45.06-.63.16s-.32.26-.42.46c-.1.2-.16.45-.16.75s.05.55.16.75c.1.2.24.36.42.46.18.1.4.16.63.16.24 0 .45-.05.63-.16.18-.1.32-.26.42-.46.1-.2.16-.45.16-.75Z"/>
<path d="M25 29v4h.75v-1.4h.72l.74 1.4H28l-.81-1.51c.48-.18.81-.57.81-1.17 0-.83-.66-1.32-1.45-1.32H25Zm.75 2h.69c.45 0 .8-.2.8-.68 0-.47-.36-.71-.8-.71h-.7V31ZM23 22v4h.75v-1.4h.72l.74 1.4H26l-.81-1.51c.48-.18.81-.57.81-1.17 0-.83-.66-1.32-1.45-1.32H23Zm.75 2h.69c.45 0 .8-.2.8-.68 0-.47-.36-.71-.8-.71h-.7V24Z" fill-rule="evenodd"/>
<path d="M29.83 33H29l1.52-4h.96L33 33h-.83l-1.15-3.18h-.04L29.83 33Zm.03-1.57h2.27v.58h-2.27v-.58ZM34 22v4h-.59l-1.72-2.72V26H31v-4h.6l1.7 2.73V22h.7ZM48 29v4h-.59l-1.72-2.72V33H45v-4h.6l1.7 2.73V29h.7ZM36.23 26H35v-4h1.26c1.14 0 1.74.93 1.74 2 0 1.08-.6 2-1.77 2Zm-.5-.63h.47c.82 0 1.15-.63 1.15-1.37 0-.73-.32-1.37-1.13-1.37h-.48v2.74Z"/>
</svg>
