<!-- by Finnhub --><svg xmlns="http://www.w3.org/2000/svg" width="56" height="56" viewBox="0 0 56 56"><path d="M56 0H0v56h56V0Z" fill="url(#azvlyr1sq)" stroke="#2B2A29" stroke-width=".2"/><path d="M25 35.97c.74.02 2.51-.99 3.82-.57.18.05.51.2.69.23l.76.2c.26.07.4.2.73.17.01-.25-.6-1.33-.7-1.5-.28-.48-.49-1.01-.75-1.52l-1.14-2.24c-.09-.18-.12-.21-.2-.4-.1-.22-.06-.26-.25-.34-.15.08-.13.14-.21.32l-2.04 4.1c-.15.26-.23.45-.37.75-.13.26-.31.48-.34.8Z" fill="#8FC742"/><path d="M25.44 35.45c.03-.41.4-.93.6-1.3l1.77-3.42c.06-.15.05-.2.18-.27.2.09.29.42.38.62.55 1.04 1.03 2.14 1.63 3.15.09.14.62 1.04.61 1.25-.58.05-1.33-.34-1.88-.5-1.13-.35-2.65.5-3.3.48ZM14.02 22.72c1.17-2.12 0 0 .98-1.72.22-.5.61-1.37 1.09-1.65.67-.4 1.54-.26 2.05.33.43.51.33 1.18.07 1.74-.8 1.55-1.65 3.08-2.4 4.65-.16.34-.46.7-.46 1.1.89.18 1.12-.43 1.5-1.08.9-1.52 1.64-3.16 2.45-4.74.35-.63.6-1.32 1-1.92.5-.72 1.66-.84 2.3-.22.79.76.37 1.67-.04 2.48l-.78 1.54c-.44.8-.85 1.6-1.26 2.4-.3.61-.94 1.39-.94 2.08.12.08.52.3.66.3.69-1.37 1.5-2.67 2.2-4.03C23 23 24.32 20 24.8 19.65c1.2-.87 2.52 0 2.52 1.07 0 .7-.48 1.36-.79 1.97-.83 1.53-1.6 3.1-2.4 4.65-.39.77-.78 1.56-1.19 2.32-.28.54-.28.43.04.96.13.22.07.27.37.34l1.16-2.3c.16-.3 1.2-2.46 1.39-2.6.45.9.93 1.8 1.36 2.71.35.73.45.41-.03 1.3-1.07 2.08-2.13 4.16-3.22 6.24-.4.66.29.33.75.23.95-.27 2.1-.83 3.07-.83.65 0 1.4.27 1.68.9.4.91-.03 1.95-1 2.26-1.08.31-2.16.62-3.25.91-2.3.65-4.6 1.3-6.9 1.92-.42.11-.7.07-.77.3h20.69c0-.37-3.66-1.09-4.2-1.27-1.6-.46-3.2-.96-4.82-1.33.23-.34 1.12-.77 1.12-1.8 0-1.2-.16-.89-.2-1.34.27 0 .59.13.84.21.36.12.73.23 1.1.23-.01-.16-.06-.24-.13-.37-1.68-3.25-3.37-6.5-5.03-9.76-.55-.87-.79-2 .26-2.6a1.61 1.61 0 0 1 1.84.19c.5.48.76 1.3 1.07 1.9.72 1.58 1.6 3.1 2.4 4.65.18.43.25.28.47-.08.4-.66.28-.48-.48-1.97l-.97-1.9-2.43-4.7c-.48-.87-.62-2.06.24-2.54.82-.57 1.82-.1 2.25.69l.6 1.16c.9 1.73 1.76 3.47 2.66 5.2.1.2.73 1.44.81 1.44.17 0 .77-.26.77-.4 0-.25-.44-.87-.6-1.17-.76-1.56-1.58-3.1-2.38-4.65-.46-.78-.9-1.8-.12-2.56.67-.66 1.9-.52 2.38.3.91 1.7 1.8 3.43 2.68 5.16l.76 1.5c.16.3.33.88.7.92l.75.05c0-.37-.16-.52-.32-.83l-1.44-2.78c-.31-.68-.68-1.34-1.02-2-.31-.6-.43-1.43.1-1.97.49-.5 1.3-.6 1.92-.26.33.18.56.52.7.86.24.47.05 0 1.44 2.49v-6c0-1.35-1.38-2.3-2.54-2.65H17.54c-1.32 0-2.61.44-3.23 1.69-.29.58-.29 1.04-.29 2.16v4.85Z" fill="#fff"/><defs><linearGradient id="azvlyr1sq" x1="10.42" y1="9.71" x2="68.15" y2="76.02" gradientUnits="userSpaceOnUse"><stop stop-color="#1A1E21"/><stop offset="1" stop-color="#06060A"/></linearGradient></defs></svg>