<?xml version="1.0" encoding="UTF-8"?>
<!-- generated by Finnhub -->
<svg viewBox="0 0 55.5 55.5" xmlns="http://www.w3.org/2000/svg">
<path d="M 0,0 H 55.5 V 55.5 H 0 Z" fill="rgb(239, 242, 248)"/>
<path d="M 38.459,31.189 C 37.804,29.276 39.054,26.949 39.865,26.799 C 39.865,26.799 37.877,29.955 39.865,31.204 C 41.775,32.403 44.065,31.454 44.697,30.874 C 46.168,29.526 47.891,26.197 45.585,22.35 C 43.28,18.502 37.868,17.18 35.451,17 C 38.214,16.955 44.629,17.962 46.863,22.349 C 49.097,26.735 47.573,29.945 46.252,31.203 C 42.814,34.712 38.801,32.165 38.469,31.203 Z" fill="rgb(53, 125, 59)"/>
<path d="M 40.626000000000005,26.015 A 5.503,5.503 0 0,0 40.418,26.012 C 38.405,26.016 32.587,29.932 35.939,35.39 C 38.726,39.927 44.224,38.364 46.625,37.016 C 43.995,39.173 40.785,39.262 38.797,38.721 C 36.683,38.021 32.752,35.202 33.973,30.761 C 35.145,26.499 38.628,25.901 40.418,26.011 C 40.497,26.011 40.57,26.017 40.636,26.029 Z" fill="rgb(53, 125, 59)"/>
<path d="M 31.99,32.989 H 30 C 30.32,28.13 33.77,25.966 35.453,25.494 C 32.085,27.7 31.706,31.42 32,33.004 Z" fill="rgb(6, 67, 104)"/>
<path d="M 41.939,24.820999999999998 C 44.409,26.113 44.097,28.62 43.634,29.714 C 44.698,27.586 44.432,25.45 41.949,23.824 C 39.466,22.198 35.652,23.21 35.504,23.269 C 35.108,23.428 31.909,24.084 29.799,27.793 C 28.496,30.082 27.777,33.213 27.777,34.547 C 27.89,33.807 28.715,31.823 29.059,30.837 C 30.076,28.047 32.686,25.887 33.199,25.546 C 34.501,24.68 38.874,23.24 41.949,24.836 Z M 15,33.004 V 24.997 H 17 L 20,30.003 V 24.997 H 22 V 33.004 H 20 L 17,28 V 33.004 H 15 Z M 8,33.004 V 24.997 H 9.841 C 11.18,24.997 13.965,24.997 14,27.607 C 14.028,29.695 12.23,30.396 10,30.217 V 33.004 H 8 Z" fill="rgb(6, 67, 104)"/>
<path d="M 9.992,28.939 V 26.336 C 11.004,26.336 12.002,26.392 12.002,27.673 C 12.002,28.953 11.242,28.953 10.002,28.953 Z" fill="rgb(254, 254, 253)"/>
<path d="M 22.99,32.985 V 25 H 25 L 28.64,31.358 L 28,33 L 25,28 V 33 H 23 Z" fill="rgb(6, 67, 104)"/>
</svg>
