<?xml version="1.0" encoding="UTF-8"?>
<!-- generated by Finnhub -->
<svg viewBox="0 0 55.5 55.5" xmlns="http://www.w3.org/2000/svg">
<path d="M 0,0 H 55.5 V 55.5 H 0 Z" fill="rgb(78, 114, 189)"/>
<path d="M 21.27,24.505 C 20.56,27.63 21.38,35.72 22.68,38 H 26.51 C 29.85,38.1 31.5,39 34.36,39 C 36.11,39 39.01,39.09 39,36.7 C 39,36.3 39.02,35.98 38.9,35.55 C 40,34.93 41.03,34.57 41,33.1 C 40.99,32.37 40.55,31.98 40.3,31.3 C 41.33,30.82 41.92,30.03 42,29.22 C 42.06,28.42 41.62,27.62 40.6,27.07 C 40.74,26.81 41.94,25.74 42,24.6 C 42.02,23.96 41.63,23.28 40.6,22.72 C 39.2,21.95 35.74,22.02 34,22 C 34.92,19.89 37,18.96 37,16.14 C 37,14.79 36.64,12.36 35.06,12.09 C 31.38,11.47 33.07,14.07 31.53,16.39 C 29.33,18.79 27.12,20.24 25.03,22.94 C 23.96,24.32 23.63,24.41 21.28,24.52 Z M 12.2,24.47 L 12,28.59 C 12.03,32.61 13.57,36.45 14.38,40 C 15.81,39.89 16.21,39.46 18.09,39.56 C 19.08,39.62 21,40 22,40 C 20.32,36.95 20.02,33.4 20.03,30 C 20.04,28 19.92,26.14 19.89,24 C 18.71,24.04 17.43,24.63 16.21,24.75 A 10.1,10.1 0 0,1 12.21,24.47 Z" fill="rgb(254, 254, 253)"/>
</svg>
