<?xml version="1.0" encoding="UTF-8"?>
<!-- generated by Finnhub -->
<svg viewBox="0 0 55.5 55.5" xmlns="http://www.w3.org/2000/svg">
<path d="M 0,0 H 55.5 V 55.5 H 0 Z" fill="rgb(239, 242, 248)"/>
<path d="M 27.99,43.985 A 16,16 0 1,0 28,12 A 16,16 0 0,0 28,44 Z M 19.48,32.08 A 7.7,7.7 0 0,0 24.54,34 C 25.74,34 26.94,33.76 28.03,33.13 C 29.88,32.06 30.9,29.97 31.41,27.91 C 31.55,27.33 31.61,26.75 31.6,26.18 C 31.55,24.78 31.62,22.41 32.86,21.5 C 32.96,21.42 33.05,21.34 33.13,21.24 C 33.16,21.2 33.18,21.14 33.18,21.09 C 33.2,20.54 33.19,19.97 33.18,19.39 C 33.12,17.73 34.04,16.59 35.64,16.09 C 36.26,15.89 37.39,15.99 37.34,16.9 C 37.31,17.64 36.77,17.81 36.21,18 L 35.97,18.07 C 35.11,18.36 34.74,19.62 34.77,20.43 C 34.77,20.48 34.79,20.5 34.83,20.5 L 36.35,20.65 C 36.4,20.65 36.42,20.64 36.43,20.59 C 36.6,19.27 37.58,18.03 39,18.16 C 39.91,18.25 40,19.32 39.1,19.59 C 38.26,19.85 37.8,20.39 37.73,21.25 C 37.73,21.32 37.75,21.38 37.81,21.43 C 39.21,22.45 39.94,24.06 39.99,26.25 C 40.1,30.78 38.79,34.87 35.02,37.59 C 33.02,39.03 30.55,39.99 28.09,39.99 C 24.74,40.02 21.59,39.24 19.37,36.78 A 13,13 0 0,1 16.02,29.23 C 15.99,28.95 16,28.69 16.05,28.43 C 16.21,27.68 16.43,27.66 16.71,28.39 A 9.5,9.5 0 0,0 19.48,32.09 Z M 34.01,25 C 34,25.55 34.21,26 34.5,26 C 34.77,26 35,25.57 35.01,25.02 C 35.02,24.47 34.81,24.02 34.52,24.02 C 34.25,24.02 34.02,24.45 34.01,25 Z M 37.5,26 C 37.22,26 37,25.56 37,25 C 37,24.45 37.21,24 37.48,24 C 37.76,24 37.98,24.45 37.98,25 S 37.77,26 37.5,26 Z M 28.23,30.24 A 6,6 0 1,0 19.75,21.76 A 6,6 0 0,0 28.23,30.24 Z M 21,26.18 A 3,3 0 1,0 24.07,23 C 23.8,22.99 23.63,23.12 23.57,23.38 A 0.46,0.46 0 0,0 23.61,23.72 A 0.33,0.33 0 0,0 23.89,23.9 C 26.96,24.04 26.59,28.3 23.82,28.05 C 22.8,27.95 21.85,27.09 21.93,25.96 C 21.95,25.78 21.95,25.59 21.93,25.4 A 0.35,0.35 0 0,0 21.68,25.09 C 20.97,24.89 20.98,25.77 21.01,26.19 Z" fill="rgb(246, 151, 28)" fill-rule="evenodd"/>
</svg>
