<?xml version="1.0" encoding="UTF-8"?>
<!-- generated by Finnhub -->
<svg viewBox="0 0 55.5 55.5" xmlns="http://www.w3.org/2000/svg">
<path d="M 0,0 H 55.5 V 55.5 H 0 Z" fill="rgb(3, 52, 113)"/>
<path d="M 15.99,11.985 H 40 V 44 H 16 Z" fill="rgb(254, 254, 253)"/>
<path d="M 18.99,15.985 V 15 H 26 V 16 C 23.864,16 24,16.692 24,17.413 V 27.887 C 24,29.333 25.259,32.031 29.159,32 C 33.059,31.969 34,28.921 34,27.37 V 17.413 C 34,15.818 31.783,15.961 30.996,16 V 15 H 38 V 16 C 35.617,16 35,16.804 35,17.413 V 27.887 C 35,30.537 33.295,34 28.767,34 C 23.246,34 21,30.435 21,27.887 V 17.413 C 21,16.287 19.8,15.973 19,16 Z M 17,36 H 39 V 43 H 17 Z" fill="rgb(3, 52, 113)"/>
<path d="M 20.99,40.105 C 21,40.683 21.01,41.128 20.772,41.455 C 20.504,41.818 20.052,42 19.534,42 C 19.015,42 18.676,41.832 18.395,41.496 C 18.132,41.178 18,40.742 18,40.188 V 37 H 19 V 40.028 C 19,40.768 19.067,41 19.534,41 C 20,41 20,40.602 20,40.028 V 37 H 21 V 40.12 Z M 26,42 H 25 L 23,39 V 42 H 22 V 37 H 23 L 25,40 V 37 H 26 V 42 Z M 27.5,42 H 26.5 V 37 H 27.5 V 42 Z M 30.642,37.77 H 29.755 V 42 H 28.755 V 37.77 H 27.892 V 37 H 30.642 V 37.77 Z M 33.331,42 H 31 V 37 H 33.331 V 38 H 32 V 39 H 33.325 V 40 H 32 V 41 H 33.331 V 42 Z M 38,39.46 C 38,40.245 37.767,40.853 37.3,41.285 A 2.603,2.603 0 0,1 35.494,42 H 34 V 37 H 35.682 C 36.382,37 36.942,37.225 37.365,37.674 C 37.788,38.124 38,38.719 38,39.459 Z M 37,39.46 C 36.98,38.649 36.583,38 35.559,38 H 35 V 41 H 35.643 C 36.629,41 37.019,40.27 37,39.46 Z" fill="rgb(254, 254, 253)"/>
</svg>
