<?xml version="1.0" encoding="UTF-8"?>
<!-- generated by Finnhub -->
<svg viewBox="0 0 55.5 55.5" xmlns="http://www.w3.org/2000/svg">
<path d="M 0,0 H 55.5 V 55.5 H 0 Z" fill="rgb(239, 242, 248)"/>
<path d="M 43.99,28.085 C 44,33.55 41.36,37.46 40.04,38.73 C 41.16,37.07 42,34.38 42,30.2 C 42,21.66 36.1,16 28.99,16 C 21.87,16 17,21.71 17,28.1 C 17,38.3 26.34,38.96 29.4,38.88 C 28.74,38.96 28.1,39 27.5,39 C 18.62,39.07 14.36,31.98 14.36,26 C 14.36,19.61 18.26,12 28.48,12 C 38.7,12 44,21.29 44,28.1 Z" fill="url(#a)"/>
<path d="M 11.99,27.884999999999998 C 12,22.45 14.64,18.54 15.96,17.27 C 14.84,18.94 14,21.62 14,25.81 C 14,34.34 19.9,40 27.01,40 C 34.13,40 39,34.28 39,27.9 C 39,17.7 29.66,17.04 26.6,17.12 C 27.26,17.04 27.9,17.01 28.5,17 C 37.38,16.93 41.64,24.02 41.64,30 C 41.64,36.39 37.74,44 27.52,44 C 17.3,44 12,34.72 12,27.9 Z" fill="url(#b)"/>
<path d="M 30.99,24.985 H 29 V 36 H 35 V 34 H 31 V 25 Z M 23,21 H 21 V 29.2 C 21,30.75 22.28,32 23.86,32 H 25.14 A 2.83,2.83 0 0,0 28,29.2 V 21 H 26 V 29.18 C 26,29.63 25.33,30 24.5,30 S 23,29.63 23,29.18 V 21 Z" fill="rgb(201, 0, 33)"/>
<defs>
<linearGradient id="a" x1="38.27" x2="18.41" y1="15.76" y2="37.06" gradientUnits="userSpaceOnUse">
<stop stop-color="rgb(201, 0, 33)" offset="0"/>
<stop stop-color="rgb(116, 2, 37)" offset="1"/>
</linearGradient>
<linearGradient id="b" x1="17.73" x2="37.59" y1="40.24" y2="18.94" gradientUnits="userSpaceOnUse">
<stop stop-color="rgb(201, 0, 33)" offset="0"/>
<stop stop-color="rgb(116, 2, 37)" offset="1"/>
</linearGradient>
</defs>
</svg>
