<?xml version="1.0" encoding="UTF-8"?>
<!-- generated by Finnhub -->
<svg viewBox="0 0 55.5 55.5" xmlns="http://www.w3.org/2000/svg">
<path d="M 0,0 H 55.5 V 55.5 H 0 Z" fill="rgb(239, 242, 248)"/>
<path d="M 26.11,22.125 C 28.71,21.06 35.07,19 40.8,19 C 48.07,19 49,21.71 49,22.73 C 49,23.76 48.71,25.13 45.43,28 C 46.1,27.04 46.96,25.64 46.96,24.33 C 46.96,23.03 45.14,20.24 37.8,20.24 C 32.86,20.24 27.75,21.48 26.12,22.14 Z" fill="url(#e)"/>
<path d="M 29.869999999999997,33.845 C 27.29,34.94 20.93,37 15.2,37 C 7.93,37 7,34.29 7,33.27 C 7,32.24 7.29,30.87 10.57,28 C 9.9,28.96 9.04,30.36 9.04,31.67 C 9.04,32.97 10.86,35.76 18.2,35.76 C 23.14,35.76 28.25,34.52 29.88,33.86 Z" fill="url(#d)"/>
<path d="M 14.99,22.985 H 13 V 28.08 C 13,29.14 13.77,30 14.71,30 H 19.29 C 20.23,30 21,29.14 21,28.08 V 23 H 19 V 27.25 C 19,27.66 18.7,28 18.33,28 H 15.67 C 15.3,28 15,27.66 15,27.25 V 23 Z" fill="url(#c)"/>
<path d="M 33.99,24.805 C 34,23.82 34.84,23 35.87,23 H 41.13 C 42.16,23 43,23.81 43,24.82 V 26 H 41 V 25.76 C 41,25.34 40.55,25 40,25 H 37 C 36.45,25 36,25.34 36,25.76 V 27.24 C 36,27.66 36.45,28 37,28 H 40 C 40.55,28 41,27.66 41,27.24 V 27 H 43 V 28.18 C 43,29.18 42.16,30 41.13,30 H 35.87 A 1.84,1.84 0 0,1 34,28.18 V 24.82 Z" fill="url(#b)"/>
<path d="M 21.99,22.985 H 25.54 L 27.48,27.55 L 29.4,23 H 33 V 30 H 31 V 24.68 H 30.75 L 28.3,30 H 26.66 L 24.22,24.68 H 24 V 30 H 22 V 23 Z" fill="url(#a)"/>
<path d="M 12.99,31.985 H 23 V 32.25 H 13 V 32 Z M 33,32 H 43 V 32.25 H 33 V 32 Z M 24,31 H 24.58 V 33 H 24 V 31 Z M 27,31 H 27.41 L 28.59,32.33 V 31 H 29 V 33 H 28.59 L 27.41,31.68 V 33 H 27 V 31 Z M 32,31.35 A 1.2,1.2 0 0,0 31.13,31 C 30.51,31 30,31.45 30,32 C 30,32.55 30.5,33 31.13,33 C 31.46,33 31.76,32.88 31.97,32.68 L 31.6,32.35 A 0.65,0.65 0 0,1 31.14,32.55 C 30.79,32.55 30.52,32.3 30.52,32 C 30.52,31.7 30.79,31.46 31.14,31.46 C 31.34,31.46 31.52,31.54 31.64,31.68 L 32,31.35 Z" fill="rgb(113, 113, 112)"/>
<defs>
<linearGradient id="e" x1="37.5" x2="37.5" y1="19" y2="28" gradientUnits="userSpaceOnUse">
<stop stop-color="rgb(199, 12, 2)" offset="0"/>
<stop stop-color="rgb(145, 9, 3)" offset="1"/>
</linearGradient>
<linearGradient id="d" x1="18.5" x2="18.5" y1="37" y2="28" gradientUnits="userSpaceOnUse">
<stop stop-color="rgb(146, 148, 149)" offset="0"/>
<stop stop-color="rgb(105, 106, 108)" offset="1"/>
</linearGradient>
<linearGradient id="c" x1="17" x2="17" y1="23" y2="30" gradientUnits="userSpaceOnUse">
<stop stop-color="rgb(199, 12, 2)" offset="0"/>
<stop stop-color="rgb(145, 9, 3)" offset="1"/>
</linearGradient>
<linearGradient id="b" x1="38.5" x2="38.5" y1="23" y2="30" gradientUnits="userSpaceOnUse">
<stop stop-color="rgb(199, 12, 2)" offset="0"/>
<stop stop-color="rgb(145, 9, 3)" offset="1"/>
</linearGradient>
<linearGradient id="a" x1="27.5" x2="27.5" y1="23" y2="30" gradientUnits="userSpaceOnUse">
<stop stop-color="rgb(199, 12, 2)" offset="0"/>
<stop stop-color="rgb(145, 9, 3)" offset="1"/>
</linearGradient>
</defs>
</svg>
