<?xml version="1.0" encoding="UTF-8"?>
<!-- generated by Finnhub -->
<svg viewBox="0 0 55.5 55.5" xmlns="http://www.w3.org/2000/svg">
<path d="M 0,0 H 55.5 V 55.5 H 0 Z" fill="rgb(239, 242, 248)"/>
<path d="M 31.169999999999998,42.285 L 45,27.9 L 44.47,27.35 A 5.4,5.4 0 0,0 36.62,27.35 L 27.12,37.25 L 18.42,28.17 L 31.84,14.17 L 31.37,13.69 A 5.4,5.4 0 0,0 23.52,13.69 L 13.62,24.01 A 5.96,5.96 0 0,0 13.62,32.19 L 23.33,42.31 A 5.4,5.4 0 0,0 31.18,42.31 Z" fill="rgb(11, 67, 93)"/>
<path d="M 30.75,19.855 L 22.61,28.37 L 27.12,33.07 L 38.22,21.51 L 36.65,19.87 A 4.04,4.04 0 0,0 30.76,19.87 Z" fill="rgb(15, 149, 186)"/>
</svg>
