<!-- by Finnhub --><svg xmlns="http://www.w3.org/2000/svg" width="56" height="56" viewBox="0 0 56 56"><path fill="#F0F3FA" d="M0 0h56v56H0z"/><path d="M28 46a18 18 0 1 0 0-36 18 18 0 0 0 0 36Z" fill="#ED1C24"/><path d="M43.88 30.14a1.08 1.08 0 1 1-2.16 0 1.08 1.08 0 0 1 2.16 0Zm-1.08.7a.7.7 0 1 0 0-1.4.7.7 0 0 0 0 1.4ZM14.13 19.93 15.76 21l.58-.93-.27-.17-.4.6-.44-.3.37-.55-.27-.17-.37.57-.37-.25.4-.6-.28-.2-.58.93Zm1.28 1.79-.94.13-.03.05.72.38-.17.37-1.77-.93.25-.56c.2-.43.5-.56.82-.4.12.05.22.15.28.28a.6.6 0 0 1 .02.41l1.02-.21-.2.48Zm-1.7-.32-.04.1.52.3.05-.1c.1-.25.07-.4-.1-.52-.18-.1-.32-.02-.42.22Zm.95 2.15a.94.94 0 0 0-.11-.37.84.84 0 0 0-.45-.32l-1.13-.4-.13.4 1.04.35c.12.03.23.1.32.19.05.05.08.11.1.18 0 .08 0 .15-.03.22a.42.42 0 0 1-.1.18.37.37 0 0 1-.17.11c-.08.02-.13 0-.25-.03l-.1-.02-1.06-.38-.12.4 1.14.4c.17.08.36.09.54.03a.76.76 0 0 0 .3-.22c.08-.1.14-.21.17-.34a.96.96 0 0 0 .04-.38Zm-2.04 1.58 1.6.3-.07.4-1.6-.3-.08.45-.32-.05.22-1.33.32.05-.07.48ZM12 26.78l2.07.19.02-.4-2.06-.19-.03.4Zm1.98.96-1.3 1.34 1.3-.06.02.4-1.97.1v-.28l1.29-1.34-1.3.06-.02-.4 1.95-.08.03.26Zm-.5 3.2.67-.72-.1-.48-.7.83a.52.52 0 0 0-.24-.31.46.46 0 0 0-.37-.04c-.35.08-.5.4-.42.85l.1.6 1.9-.44-.08-.4-.76.17v-.06Zm-.81.27-.03-.14c-.05-.26.03-.42.2-.42.2-.05.32.05.37.32l.03.1-.57.14Zm1.6.74a.8.8 0 0 1 .47.56.86.86 0 0 1-.05.75.91.91 0 0 1-.44.35l-1.11.42-.13-.37 1.07-.4c.2-.08.24-.1.3-.19a.5.5 0 0 0 .04-.42.4.4 0 0 0-.1-.2.36.36 0 0 0-.2-.1.6.6 0 0 0-.34.06l-1.06.4-.13-.38 1.12-.42c.18-.08.37-.1.56-.06Zm-.3 3 .4-.21-.27-.58.3-.16.26.58.77-.42.17.37-1.73.97-.49-1.03.3-.15.3.63ZM28.5 14l-.19-.42h-.85l-.18.42h-.43l.9-2h.32l.88 2h-.45Zm-.59-1.43-.29.7h.61l-.32-.7Zm-1.97-.42.24 1.96.4-.07-.24-1.94-.4.05Zm-1.07 2.19-.43-1.91.4-.1.35 1.58.64-.12.08.32-1.04.23Zm-1.43-.38.24-.07c.13-.03.25-.1.34-.2a.59.59 0 0 0 .08-.71.65.65 0 0 0-.3-.26.96.96 0 0 0-.58.03l-.58.17.64 1.86.4-.12-.24-.7Zm-.32-.84.13-.05c.27-.07.4 0 .48.17.08.18-.03.3-.27.38l-.16.05-.18-.55Zm-1.28 1.49.23-.1a.57.57 0 0 0 .37-.34.54.54 0 0 0-.07-.5.57.57 0 0 0-.38-.35.72.72 0 0 0-.53.08l-.54.25.87 1.78.35-.18-.3-.64Zm-.41-.82.13-.05c.23-.1.4-.1.48.08.08.17.03.32-.2.42l-.16.07-.25-.52Zm-.69 1.78.39.26.37-.25-1.83-1.2-.26.17.33 2.17.36-.23-.07-.45.71-.47Zm-.76.11-.13-.74.65.4-.52.34Zm10.9-1.4-1.02-1.53-.24 1.31-.4-.07.37-1.99.27.05 1.01 1.54.24-1.29.4.08-.34 1.96-.3-.05Zm1.32.29c.1.09.24.16.37.2.16.05.33.05.5.03l.16-.43a.64.64 0 0 1-.53.05.7.7 0 0 1-.38-.34.64.64 0 0 1-.04-.5c.06-.17.18-.3.34-.38.17-.08.35-.1.53-.05a.73.73 0 0 1 .4.37l.15-.42a.87.87 0 0 0-.42-.28 1.1 1.1 0 0 0-1.18.27c-.1.1-.17.23-.21.36a.99.99 0 0 0 .05.8c.06.12.15.23.26.32Zm1.2.51.93-1.76 1.04.47-.16.3-.66-.32-.22.4.64.29-.16.3-.64-.3-.24.47.67.32-.16.3-1.04-.47Zm1.69.66c.06.11.15.21.26.28a.63.63 0 0 0 .91-.19c.14-.23.12-.42-.14-.78-.14-.19-.16-.26-.11-.35.04-.1.18-.12.32-.02a.35.35 0 0 1 .17.28l.3-.1a1 1 0 0 0-.35-.47.53.53 0 0 0-.77.12c-.14.21-.12.4.1.69l.06.11.07.12a.24.24 0 0 1-.02.21.23.23 0 0 1-.28.13.23.23 0 0 1-.1-.06.41.41 0 0 1-.18-.42l-.33.07c0 .13.03.26.09.38ZM41.16 18.82 39.51 20l.59.94.27-.19-.4-.61.46-.32.38.61.27-.19-.38-.6.38-.27.41.6.28-.18-.6-.96Zm.94 1.5-1.77.98.45.93.31-.16-.28-.56 1.47-.82-.18-.38Zm-1.19 2.18 1.85-.77.41 1.1-.3.12-.26-.69-.4.16.25.67-.3.13-.26-.67-.5.22.25.7-.3.12-.44-1.09Zm.72 2.03c-.02.14-.01.28.02.42.02.17.1.33.2.46l.44-.11a.63.63 0 0 1-.2-.18.74.74 0 0 1-.04-.8c.04-.07.1-.14.17-.2a.6.6 0 0 1 .24-.1.6.6 0 0 1 .5.06c.08.04.14.1.2.17a.72.72 0 0 1 .13.54.66.66 0 0 1-.11.27l.44-.1a.98.98 0 0 0 0-.54 1.14 1.14 0 0 0-.17-.39 1.05 1.05 0 0 0-.3-.29.97.97 0 0 0-.76-.12.98.98 0 0 0-.36.18c-.1.09-.2.2-.27.32-.07.13-.11.26-.13.4Zm1.97 1.7-1.65.22-.05-.4 1.65-.22-.05-.48.33-.05.17 1.33-.35.06-.05-.46Zm-.78 1.42-.82.58v.48l.84-.66c.02.14.1.27.2.35.11.1.25.14.38.13.38 0 .59-.27.59-.75v-.61l-2 .02v.4h.8v.06Zm.88-.06v.14c0 .24-.1.4-.3.37-.2 0-.3-.13-.3-.4v-.1h.6Zm-2.67 5.44 1.68-.72-1.24-.48.13-.4 1.87.72-.1.27-1.67.72 1.23.48-.13.4-1.87-.72.1-.27Zm1.53 1.68-1.8-.93-.18.37 1.8.93.18-.37Zm-2.71.67a1.05 1.05 0 0 1 .65-.5.97.97 0 0 1 .79.15 1.09 1.09 0 0 1 .46.7 1.17 1.17 0 0 1-.16.85.9.9 0 0 1-.35.34l-.38-.26c.1-.01.18-.05.26-.1a.62.62 0 0 0 .2-.22.7.7 0 0 0 .08-.53.7.7 0 0 0-.32-.43.62.62 0 0 0-.51-.12.62.62 0 0 0-.25.12.66.66 0 0 0-.17.21.63.63 0 0 0-.08.53l-.38-.26c0-.18.06-.34.16-.48Zm-.54.94a.77.77 0 0 0-.33.26.77.77 0 0 0 .06 1.04c.22.21.43.18.83-.06.2-.13.28-.16.38-.08.1.08.08.24-.02.38a.44.44 0 0 1-.33.13l.07.35a.8.8 0 0 0 .56-.32.6.6 0 0 0 .17-.45.63.63 0 0 0-.2-.43c-.2-.19-.4-.19-.73.02l-.25.14a.24.24 0 0 1-.23-.06.3.3 0 0 1-.1-.2.31.31 0 0 1 .07-.22.44.44 0 0 1 .22-.16.41.41 0 0 1 .27 0l-.03-.38a.73.73 0 0 0-.4.04ZM37.19 39.12a.47.47 0 0 1 .37-.12.48.48 0 0 1 .34.2.48.48 0 0 1-.1.7.51.51 0 0 1-.7-.1.5.5 0 0 1 .09-.68ZM19.5 39.2a.8.8 0 0 0-.25-.33.74.74 0 0 0-1.01.03c-.22.25-.22.45.02.86.14.2.16.28.08.38-.08.1-.24.07-.37-.03a.42.42 0 0 1-.13-.33l-.35.08a.79.79 0 0 0 .32.55.6.6 0 0 0 .45.17.63.63 0 0 0 .43-.2c.19-.2.19-.4-.03-.72-.05-.08-.1-.17-.13-.26a.24.24 0 0 1 .05-.22.3.3 0 0 1 .21-.1.31.31 0 0 1 .22.07c.08.06.13.13.16.22.03.08.03.18 0 .26l.37-.02a.76.76 0 0 0-.04-.4Zm.79.5.03.97.05.02.45-.68.35.2-1.15 1.67-.5-.3c-.4-.26-.5-.56-.3-.89a.6.6 0 0 1 .72-.23l-.08-1.03.43.28Zm-.53 1.67.1.08.35-.5-.1-.06c-.22-.12-.4-.12-.51.05-.11.13-.06.3.16.43Zm1.91 1.32.91-1.8-1.02-.48-.16.3.7.31-.24.48-.67-.3-.16.3.67.3-.22.4-.69-.3-.16.3 1.04.49Zm11.73-1.87a1.16 1.16 0 0 1 1.22.12c.11.09.2.2.27.32.13.24.15.51.05.77-.1.25-.3.46-.56.58-.15.06-.33.1-.5.1l-.21-.4a.62.62 0 0 0 .55-.02.67.67 0 0 0 .32-.38.6.6 0 0 0-.05-.48.7.7 0 0 0-.4-.32.78.78 0 0 0-.53.03.7.7 0 0 0-.22.16.63.63 0 0 0-.13.22l-.21-.38c.1-.14.24-.25.4-.32Zm-4.78 1.13.32 1.22.43-1.32h.1l.7 1.2.08-1.25.4-.05-.16 2.07-.27.03-.72-1.24-.45 1.36-.3.03-.56-2 .43-.05Zm-1.37.77-.27-.02a.67.67 0 0 0-.54.14.6.6 0 0 0-.16.22.56.56 0 0 0-.04.27.62.62 0 0 0 .18.47c.15.11.34.18.53.18l.62.02.13-1.98-.4-.02-.05.73Zm-.08.88h-.14c-.26 0-.4-.1-.4-.3 0-.2.14-.3.4-.27h.16l-.02.57Zm-2.7-1.82a.9.9 0 0 1 .75-.15.8.8 0 0 1 .61.4c.08.18.1.37.03.56l-.26 1.18-.4-.07.24-1.11c.05-.2.05-.28 0-.36a.4.4 0 0 0-.13-.16.42.42 0 0 0-.2-.09.43.43 0 0 0-.4.1c-.07.08-.1.13-.13.33l-.24 1.11-.4-.08.27-1.18a.66.66 0 0 1 .27-.48Zm-1.17-.63-.58 1.56-.43-.15-.1.33 1.27.43.1-.33-.44-.15.58-1.57-.4-.12ZM33 42.5a1 1 0 1 1-2 0 1 1 0 0 1 2 0Zm-1 .66a.66.66 0 1 0 0-1.32.66.66 0 0 0 0 1.32Z" fill="#fff"/><circle cx="28" cy="28" r="12" fill="#034694"/><path d="m33.83 20.03-15.14 6.02.69 1.96 15.12-6.03-.67-1.95Z" fill="#ED1C24"/><path d="M28.4 33.6c-2.22.05-3.95-1.65-5.48-2.88.78-.29 1.08-.54 1.08-.88 0-.1-.02-.2-.06-.3-.16-.45-.51-.5-.96-.34l-.96.4 1.61 4.3-1.6.6L20 29.1l3.79-1.45a1.4 1.4 0 0 1 1.63.94c.4 1.08-.37 1.68-.63 1.92l1.23.92c.16-1.55.3-3.18.43-4.78l1.81-.68c1.32 1.31 2.66 2.62 4.03 3.91.12-.15.2-.32.26-.5a3.05 3.05 0 0 1-1.37-2.36c-.13-.97.53-2.05 1.3-2.55.79-.5 1.67-.83 2.6-.97l.47 1.29c-.87.05-1.97.29-2.47 1.05-.42.57-.24 1.28.08 1.86.29.37.82.69 1.3.7.76.02 1.54-.46 2.07-.96l.47 1.23a4.83 4.83 0 0 1-3.16 1.1c-1.02 2.18-2.9 3.77-5.45 3.82Zm-.48-5.66-.05 1.6 1.2-.45-1.15-1.15ZM30 30l-2.19.81-.07 1.53a4.03 4.03 0 0 0 3.29-1.21L30 30.01Z" fill="#FFD200"/><path d="M38.19 17.12a.47.47 0 0 1 .37-.12.48.48 0 0 1 .34.2.48.48 0 0 1-.1.7.51.51 0 0 1-.7-.1.5.5 0 0 1 .09-.68ZM17.19 17.12a.47.47 0 0 1 .37-.12.48.48 0 0 1 .34.2.48.48 0 0 1-.1.7.51.51 0 0 1-.7-.1.5.5 0 0 1 .09-.68ZM16.19 37.12a.47.47 0 0 1 .37-.12.48.48 0 0 1 .34.2.48.48 0 0 1-.1.7.51.51 0 0 1-.7-.1.5.5 0 0 1 .09-.68Z" fill="#fff"/></svg>