<?xml version="1.0" encoding="UTF-8"?>
<!-- generated by Finnhub -->
<svg viewBox="0 0 55.5 55.5" xmlns="http://www.w3.org/2000/svg">
<path d="M 0,0 H 55.5 V 55.5 H 0 Z" fill="rgb(239, 242, 248)"/>
<path d="M 43.99,21.064999999999998 C 44,23.88 41.75,26.16 38.98,26.16 A 4.98,4.98 0 0,1 35.1,24.29 C 34.4,23.42 30.27,16 30.27,16 H 38.98 A 5.05,5.05 0 0,1 44,21.08 Z" fill="rgb(0, 172, 253)"/>
<path d="M 37.25,33.435 A 5.08,5.08 0 0,0 35.29,26.61 A 4.95,4.95 0 0,0 28.52,28.58 L 24.2,36.5 A 5.08,5.08 0 0,0 26.17,43.34 A 4.95,4.95 0 0,0 32.94,41.38 L 37.26,33.44 Z" fill="url(#b)"/>
<path d="M 9.99,15.985 H 18.8 C 20.6,16 22.26,17 23.14,18.6 L 32.97,36.5 A 5.1,5.1 0 0,1 31,43.37 A 4.97,4.97 0 0,1 24.24,41.47 L 10,16 Z" fill="url(#a)"/>
<defs>
<linearGradient id="b" x1="36.15" x2="30.31" y1="28.09" y2="34.91" gradientUnits="userSpaceOnUse">
<stop stop-color="rgb(8, 166, 237)" offset="0"/>
<stop stop-color="rgb(7, 84, 179)" offset="1"/>
</linearGradient>
<linearGradient id="a" x1="16.29" x2="29.27" y1="17.04" y2="43.08" gradientUnits="userSpaceOnUse">
<stop stop-color="rgb(1, 197, 253)" offset="0"/>
<stop stop-color="rgb(1, 142, 253)" offset="1"/>
</linearGradient>
</defs>
</svg>
