<?xml version="1.0" encoding="UTF-8"?>
<!-- generated by Finnhub -->
<svg viewBox="0 0 55.5 55.5" xmlns="http://www.w3.org/2000/svg">
<path d="M 0,0 H 55.5 V 55.5 H 0 Z" fill="rgb(239, 242, 248)"/>
<path d="M 51.99,24.985 V 32 H 51 V 26 L 49,27.05 V 26.12 L 51,25 H 52 Z M 44,32 V 31.1 C 44.85,30.12 45.68,29.15 46.43,28.1 C 46.69,27.74 47,27.39 47,27 C 47,26.44 46.6,26 46,26 C 45.36,26 45,26.43 45,27 H 44 C 44,25.85 44.74,25 45.96,25 C 47.1,25 47.91,25.88 47.91,27 C 47.91,27.52 47.77,27.99 47.35,28.6 C 46.79,29.41 46.11,30.24 45.48,31 H 48 V 32 H 44 Z"/>
<path d="M 31.99,31.985 C 33.95,32 35,30.3 35,28.5 S 33.95,25 32,25 S 29,26.7 29,28.5 S 30.05,32 32,32 Z M 32,31 C 33.3,31 34,29.78 34,28.5 S 33.3,26 32,26 S 30,27.22 30,28.5 S 30.7,31 32,31 Z" fill-rule="evenodd"/>
<path d="M 5.19,24.985 L 7,30.74 L 8.82,25 H 10 L 7.72,32 H 6.28 L 4,25 H 5.2 Z M 11,32 V 25 H 15 V 26 H 12 V 28 H 14.5 V 29 H 12 V 31 H 15 V 32 H 11 Z M 22,27.4 H 21 C 20.86,26.59 19.93,26 19.14,26 C 17.82,26 17,27.33 17,28.5 S 17.8,31 19.13,31 C 19.91,31 20.85,30.43 21,29.64 L 22,29.65 C 21.8,31.1 20.52,32 19.12,32 C 17.14,32 16,30.36 16,28.5 C 16,26.65 17.15,25 19.12,25 C 20.57,25 21.8,25.92 22,27.4 Z M 23,26 V 25 H 28 V 26 H 26 V 32 H 25 V 26 H 23 Z M 36,32 V 25 H 38.45 C 39.8,25 40.76,25.63 40.76,27 C 40.76,28.34 39.96,29 38.44,29 H 36.69 V 28 H 38.4 C 39.14,28 39.68,27.78 39.68,27 S 39.14,26 38.4,26 H 37 V 32 H 36 Z M 39.38,28.83 L 41,32 H 39.85 L 38.26,28.83 H 39.38 Z"/>
</svg>
