<?xml version="1.0" encoding="UTF-8"?>
<!-- generated by Finnhub -->
<svg viewBox="0 0 55.5 55.5" xmlns="http://www.w3.org/2000/svg">
<path d="M 0,0 H 55.5 V 55.5 H 0 Z" fill="rgb(239, 242, 248)"/>
<path d="M 28.08,9.985 L 40.72,15.28 L 46,28.04 L 40.79,40.75 L 28.09,46 L 15.36,40.75 L 10,28.05 L 15.36,15.28 L 28.09,10 Z M 26.65,12.68 L 17.21,16.63 L 20.74,20.13 L 26.65,12.68 Z M 27.43,13.73 L 21.58,21.03 L 25.48,24.93 L 27.43,17.75 V 13.73 Z M 20.74,21.85 L 24.61,25.77 L 17.95,27.74 H 13.4 L 20.74,21.85 Z M 16.49,17.64 L 12.78,26.67 L 19.79,20.93 L 16.49,17.63 Z M 14.22,29 H 17.67 L 24.61,31.19 L 21.21,34.62 L 14.21,29 Z M 16.74,39.03 L 12.78,29.41 L 20.28,35.51 L 16.74,39.03 Z M 17.89,39.73 L 21.21,36.43 L 26.69,43.39 L 17.89,39.74 Z M 25.46,32.09 L 22,35.5 L 27.44,42.37 V 38.87 L 25.48,32.09 Z M 29.53,12.67 L 38.97,16.62 L 35.44,20.12 L 29.54,12.67 Z M 28.76,13.72 L 34.6,21.02 L 30.7,24.92 L 28.76,17.74 V 13.72 Z M 35.44,21.84 L 31.57,25.76 L 38.24,27.73 H 42.78 L 35.44,21.84 Z M 39.69,17.63 L 43.4,26.66 L 36.4,20.92 L 39.7,17.62 Z M 41.97,29 H 38.5 L 31.56,31.19 L 34.96,34.62 L 41.96,29 Z M 39.44,39.03 L 43.4,29.41 L 35.9,35.51 L 39.44,39.03 Z M 38.3,39.73 L 34.97,36.43 L 29.5,43.39 L 38.3,39.74 Z M 30.72,32.09 L 34.2,35.5 L 28.76,42.37 V 38.87 L 30.72,32.09 Z" fill="url(#a)" fill-rule="evenodd"/>
<defs>
<linearGradient id="a" x1="28" x2="28" y1="10" y2="46" gradientUnits="userSpaceOnUse">
<stop stop-color="rgb(1, 248, 249)" offset="0"/>
<stop stop-color="rgb(0, 254, 17)" offset="1"/>
</linearGradient>
</defs>
</svg>
