<?xml version="1.0" encoding="UTF-8"?>
<!-- generated by Finnhub -->
<svg viewBox="0 0 55.5 55.5" xmlns="http://www.w3.org/2000/svg">
<path d="M 0,0 H 55.5 V 55.5 H 0 Z" fill="rgb(41, 75, 104)"/>
<path d="M 20.33,22.715 C 21.87,22.02 23.39,21.31 25,20.63 A 23.27,23.27 0 0,1 30.82,19.01 C 30.94,18.99 30.95,18.95 30.84,18.89 L 29.27,18.04 A 0.3,0.3 0 0,0 29.07,18.01 A 19.93,19.93 0 0,0 19.32,23.11 C 19.19,23.24 19.2,23.26 19.36,23.19 L 20.34,22.73 Z M 29.21,19.7 A 55.86,55.86 0 0,0 15.95,25.47 C 15.73,25.6 15.75,25.62 15.98,25.54 A 75.97,75.97 0 0,1 23.7,23.3 C 24.78,23.05 25.87,22.84 26.98,22.68 A 20.26,20.26 0 0,1 34.38,22.93 C 34.46,22.94 34.53,22.93 34.6,22.88 A 509.66,509.66 0 0,0 39.32,19 A 0.08,0.08 0 0,0 39.3,18.92 A 32.78,32.78 0 0,0 29.2,19.7 Z M 49.35,30.65 C 48.78,29.6 48.01,28.71 46.75,28.65 A 3.44,3.44 0 0,0 43.25,31.07 C 42.98,31.86 42.95,32.7 43.14,33.6 A 3.38,3.38 0 0,0 46.39,36.35 A 2.6,2.6 0 0,0 48.02,35.88 A 3.9,3.9 0 0,0 49.37,34.38 H 49.38 L 49.98,34.76 C 50,34.76 50,34.78 49.99,34.79 A 4.35,4.35 0 0,1 46.57,36.97 A 4.87,4.87 0 0,1 42.14,35.15 A 4.44,4.44 0 0,1 41.53,31.09 A 4.6,4.6 0 0,1 45.33,28.06 A 4.51,4.51 0 0,1 50,30.23 L 49.39,30.65 H 49.36 Z M 36.93,28 H 35.58 A 0.07,0.07 0 0,0 35.51,28.07 V 36.93 C 35.51,36.97 35.54,37 35.58,37 H 36.93 C 36.97,37 37,36.97 37,36.93 V 28.07 A 0.07,0.07 0 0,0 36.93,28 Z M 10.8,34.88 A 0.03,0.03 0 0,0 10.83,34.87 L 13.8,28.09 A 0.15,0.15 0 0,1 13.93,28 H 14.46 C 14.53,28 14.55,28.04 14.52,28.1 L 10.66,36.87 A 0.2,0.2 0 0,1 10.52,36.99 C 10.32,37.02 10.2,36.98 10.12,36.82 A 1447.04,1447.04 0 0,0 6.01,28.02 L 6.03,28.01 H 6.05 L 7.47,28 A 0.13,0.13 0 0,1 7.58,28.07 A 4479.21,4479.21 0 0,0 10.8,34.87 Z M 19.44,28 H 18.05 A 0.05,0.05 0 0,0 18,28.06 V 36.94 C 18,36.98 18.02,37 18.05,37 H 19.44 C 19.47,37 19.49,36.98 19.49,36.94 V 28.06 A 0.05,0.05 0 0,0 19.44,28 Z M 28.07,34.84 A 0.04,0.04 0 0,0 28.11,34.86 A 0.04,0.04 0 0,0 28.15,34.84 L 31.11,28.08 A 0.11,0.11 0 0,1 31.22,28 H 31.77 C 31.84,28 31.86,28.03 31.83,28.1 L 27.98,36.83 A 0.3,0.3 0 0,1 27.72,37 A 0.29,0.29 0 0,1 27.46,36.83 L 23.31,28.06 A 0.04,0.04 0 0,1 23.31,28.02 A 0.04,0.04 0 0,1 23.34,28 H 24.8 A 0.1,0.1 0 0,1 24.88,28.05 L 28.08,34.84 Z" fill="rgb(254, 254, 253)"/>
</svg>
