<?xml version="1.0" encoding="UTF-8"?>
<!-- generated by Finnhub -->
<svg viewBox="0 0 55.5 55.5" xmlns="http://www.w3.org/2000/svg">
<path d="M 0,0 H 55.5 V 55.5 H 0 Z" fill="rgb(239, 242, 248)"/>
<circle cx="28" cy="28" r="17" fill="rgb(118, 189, 66)"/>
<path d="M 22.689999999999998,22.985 L 28,35.56 L 33.3,23 H 40 A 42.31,42.31 0 0,0 34.75,30.74 L 28,44 L 21.25,30.74 A 42.31,42.31 0 0,0 16,23 H 22.7 Z" fill="rgb(27, 54, 98)"/>
<path d="M 22.689999999999998,18.985 L 28,31.56 L 33.3,19 H 40 A 42.31,42.31 0 0,0 34.75,26.74 L 28,40 L 21.25,26.74 A 42.31,42.31 0 0,0 16,19 H 22.7 Z" fill="rgb(254, 254, 249)"/>
</svg>
