<?xml version="1.0" encoding="UTF-8"?>
<!-- generated by Finnhub -->
<svg viewBox="0 0 55.5 55.5" xmlns="http://www.w3.org/2000/svg">
<path d="M 0,0 H 55.5 V 55.5 H 0 Z" fill="rgb(239, 242, 248)"/>
<path d="M 5.32,21.985 V 27 H 4 V 22 H 5.33 Z M 11,22 V 27 H 9.87 L 7.37,24.12 H 7.34 V 27 H 6 V 22 H 7.16 L 9.62,24.87 H 9.67 V 22 H 11 Z M 11.5,23 V 22 H 16 V 23 H 14.31 V 27 H 13.01 V 23 H 11.51 Z M 16.66,27 V 22 H 20.65 V 23 H 18 V 24 H 20.65 V 25 H 18 V 26 H 20.65 V 27 H 16.65 Z M 25.1,23.66 A 0.81,0.81 0 0,0 24.74,23.2 A 1,1 0 0,0 24.44,23.07 A 1.47,1.47 0 0,0 24.08,23.03 C 23.82,23.03 23.58,23.09 23.39,23.2 C 23.19,23.32 23.05,23.48 22.94,23.7 C 22.84,23.92 22.78,24.18 22.78,24.5 C 22.78,24.8 22.83,25.07 22.94,25.3 C 23.04,25.51 23.19,25.68 23.38,25.8 C 23.58,25.91 23.81,25.97 24.08,25.97 C 24.33,25.97 24.53,25.93 24.7,25.87 C 24.87,25.79 25,25.69 25.09,25.57 A 0.8,0.8 0 0,0 25.22,25.1 L 25.47,25.13 H 24.13 V 24.27 H 26.5 V 24.92 C 26.5,25.35 26.4,25.72 26.19,26.04 C 25.98,26.34 25.69,26.58 25.33,26.75 C 24.96,26.92 24.55,27 24.07,27 C 23.55,27 23.09,26.9 22.69,26.7 C 22.29,26.5 21.98,26.21 21.76,25.84 A 2.56,2.56 0 0,1 21.42,24.51 C 21.42,24.11 21.49,23.75 21.62,23.44 C 21.76,23.14 21.95,22.87 22.19,22.66 C 22.43,22.44 22.71,22.28 23.03,22.16 A 3.11,3.11 0 0,1 24.95,22.12 C 25.22,22.2 25.47,22.32 25.68,22.46 C 25.89,22.61 26.06,22.79 26.2,22.99 C 26.33,23.19 26.41,23.41 26.44,23.66 H 25.1 Z M 27.29,27 V 22 H 29.56 C 29.97,22 30.33,22.13 30.63,22.26 C 30.93,22.39 31.16,22.58 31.33,22.82 C 31.49,23.07 31.57,23.35 31.57,23.69 C 31.57,24.02 31.49,24.31 31.32,24.55 C 31.15,24.78 30.92,24.96 30.61,25.08 C 30.31,25.21 29.94,25.27 29.52,25.27 H 28.08 V 24.34 H 29.28 C 29.48,24.34 29.64,24.32 29.78,24.27 C 30.05,24.17 30.19,23.99 30.19,23.69 C 30.19,23.19 29.72,23 29.27,23 H 28.62 V 27 H 27.29 Z M 30.39,24.7 L 31.76,27 H 30.3 L 28.95,24.7 H 30.38 Z M 33.49,27 H 32.06 L 33.92,22 H 35.69 L 37.55,27 H 36.12 L 34.82,23.3 H 34.78 L 33.49,27 Z M 33.29,25 H 36.29 V 26 H 33.29 V 25 Z M 37.27,23 V 22 H 42 V 23 H 40.26 V 27 H 39 V 23 H 37.27 Z M 42.67,27 V 22 H 46.41 V 23 H 44 V 24 H 46.41 V 25 H 44 V 26 H 46.41 V 27 H 42.67 Z M 49.28,27 H 47 V 22 H 49.28 C 50.18,22 51.19,22.4 51.67,23.2 C 51.89,23.56 52,24 52,24.5 S 51.89,25.44 51.67,25.8 C 51.19,26.6 50.17,27 49.28,27 Z M 48.34,26 H 49.24 C 50.14,26 50.67,25.35 50.67,24.5 C 50.67,23.62 50.1,23 49.21,23 H 48.34 V 26 Z M 6,34 L 4.15,29 H 5.85 L 6.8,32.26 H 6.86 L 7.96,29 H 9.34 L 10.44,32.27 H 10.49 L 11.45,29 H 13.15 L 11.3,34 H 9.82 L 8.67,30.98 H 8.62 L 7.48,34 H 6 Z M 14,34 V 29 H 18 V 30 H 15.54 V 31 H 18 V 32 H 15.54 V 33 H 18 V 34 H 14 Z M 19,34 V 29 H 20.54 V 33 H 23 V 34 H 19 Z M 24,34 V 29 H 25.55 V 33 H 28 V 34 H 24 Z M 34.56,29 V 34 H 33.26 L 30.57,31.13 H 30.53 V 34 H 29 V 29 H 30.32 L 33,31.87 V 29 H 34.56 Z M 35.44,34 V 29 H 40 V 30 H 37 V 31 H 40 V 32 H 37 V 33 H 40 V 34 H 35.44 Z M 44.36,30.53 A 0.53,0.53 0 0,0 44.09,30.12 C 43.93,30.02 43.69,29.97 43.39,29.97 C 43.19,29.97 43.03,29.99 42.89,30.03 A 0.67,0.67 0 0,0 42.6,30.2 A 0.34,0.34 0 0,0 42.5,30.43 C 42.5,30.5 42.51,30.57 42.55,30.63 C 42.6,30.68 42.65,30.73 42.74,30.77 A 3.85,3.85 0 0,0 43.43,30.97 L 43.98,31.06 C 44.29,31.11 44.57,31.18 44.81,31.26 C 45.05,31.36 45.25,31.46 45.41,31.58 A 1.12,1.12 0 0,1 45.91,32.52 C 45.92,32.83 45.82,33.1 45.62,33.32 C 45.42,33.54 45.13,33.71 44.75,33.82 C 44.38,33.94 43.93,34 43.4,34 C 42.86,34 42.4,33.94 42,33.82 C 41.6,33.69 41.3,33.51 41.08,33.26 A 1.41,1.41 0 0,1 40.74,32.32 H 42.22 C 42.22,32.47 42.28,32.6 42.38,32.71 C 42.48,32.81 42.61,32.89 42.78,32.95 A 2,2 0 0,0 43.38,33.03 C 43.58,33.03 43.76,33.01 43.9,32.96 A 0.8,0.8 0 0,0 44.24,32.78 A 0.37,0.37 0 0,0 44.36,32.52 C 44.36,32.43 44.33,32.35 44.26,32.29 A 0.9,0.9 0 0,0 43.92,32.12 C 43.77,32.07 43.58,32.02 43.35,31.98 L 42.68,31.86 C 42.13,31.76 41.7,31.61 41.38,31.39 A 1,1 0 0,1 40.91,30.51 C 40.91,30.21 41.01,29.95 41.22,29.72 C 41.44,29.49 41.73,29.32 42.11,29.19 S 42.91,29 43.4,29 C 43.9,29 44.32,29.06 44.68,29.2 C 45.05,29.32 45.33,29.5 45.53,29.73 C 45.73,29.96 45.83,30.23 45.83,30.53 H 44.36 Z M 50.14,30.53 A 0.53,0.53 0 0,0 49.86,30.12 C 49.7,30.02 49.47,29.97 49.17,29.97 C 48.97,29.97 48.81,29.99 48.67,30.03 A 0.67,0.67 0 0,0 48.37,30.2 A 0.34,0.34 0 0,0 48.27,30.43 C 48.27,30.5 48.29,30.57 48.33,30.63 C 48.37,30.68 48.43,30.73 48.52,30.77 A 3.85,3.85 0 0,0 49.21,30.97 L 49.75,31.06 C 50.07,31.11 50.35,31.18 50.58,31.26 C 50.83,31.36 51.03,31.46 51.19,31.58 A 1.12,1.12 0 0,1 51.69,32.52 C 51.69,32.83 51.59,33.1 51.39,33.32 C 51.19,33.54 50.91,33.71 50.53,33.82 C 50.15,33.94 49.7,34 49.17,34 C 48.64,34 48.17,33.94 47.77,33.82 C 47.38,33.69 47.07,33.51 46.86,33.26 A 1.41,1.41 0 0,1 46.52,32.32 H 47.99 C 48,32.47 48.06,32.6 48.15,32.71 C 48.25,32.81 48.39,32.89 48.55,32.95 A 2,2 0 0,0 49.15,33.03 C 49.35,33.03 49.54,33.01 49.68,32.96 A 0.8,0.8 0 0,0 50.02,32.78 A 0.37,0.37 0 0,0 50.14,32.52 C 50.14,32.43 50.1,32.35 50.03,32.29 A 0.9,0.9 0 0,0 49.69,32.12 C 49.54,32.07 49.35,32.02 49.12,31.98 L 48.46,31.86 C 47.91,31.76 47.47,31.61 47.16,31.39 A 1,1 0 0,1 46.68,30.51 C 46.68,30.21 46.78,29.95 47,29.72 C 47.21,29.49 47.5,29.32 47.88,29.19 S 48.69,29 49.18,29 S 50.09,29.06 50.46,29.2 C 50.82,29.32 51.1,29.5 51.3,29.73 C 51.5,29.96 51.6,30.23 51.61,30.53 H 50.14 Z" fill="rgb(0, 30, 73)"/>
</svg>
