<?xml version="1.0" encoding="UTF-8"?>
<!-- generated by Finnhub -->
<svg viewBox="0 0 55.5 55.5" xmlns="http://www.w3.org/2000/svg">
<path d="M 0,0 H 55.5 V 55.5 H 0 Z" fill="rgb(239, 242, 248)"/>
<ellipse cx="27.97" cy="28" rx="4.49" ry="4.44" fill="rgb(152, 189, 84)"/>
<path d="M 3.99,21.985 H 6.34 L 8.89,30.64 L 11.56,22 H 13.44 L 16.11,30.64 L 18.66,22 H 21 L 17.28,34 H 15.02 L 12.5,25.95 L 9.98,34 H 7.72 L 4,22 Z M 35,22 H 37.34 L 39.89,30.64 L 42.56,22 H 44.44 L 47.11,30.64 L 49.66,22 H 52 L 48.28,34 H 46.02 L 43.5,25.95 L 40.98,34 H 38.72 L 35,22 Z" fill="rgb(33, 30, 30)"/>
<path d="M 30.11,27.325 L 28,25 L 28.06,28.75 L 26.7,27.61 L 27.7,29.41 L 25.05,29.09 L 26.37,30.74 L 26.13,30.98 L 27.66,32.29 C 27.73,32.36 28.11,31.97 29.76,31.87 C 31.41,31.77 32.11,29.21 32.25,27.94 L 30.64,26.53 L 30.12,27.34 Z" fill="rgb(74, 125, 67)"/>
<path d="M 27.99,33.985 A 6,6 0 1,0 28,22 A 6,6 0 0,0 28,34 Z M 28,32 A 4,4 0 1,0 28,24 A 4,4 0 0,0 28,32 Z" fill="rgb(33, 30, 30)" fill-rule="evenodd"/>
<path d="M 27.689999999999998,28.685 C 27.58,27.98 27.36,26.6 28,25 C 28.64,26.6 28.42,27.98 28.3,28.7 L 28.26,29.01 A 7.5,7.5 0 0,1 30.81,26.31 C 30.45,27.94 29.47,28.77 28.91,29.24 L 28.77,29.35 C 29.45,29.05 30.58,28.98 31,29.08 A 3,3 0 0,1 28.68,29.94 C 29.1,30.11 29.78,30.66 29.9,31 A 2.7,2.7 0 0,1 28.1,29.97 L 28.16,31 H 27.84 L 27.9,29.97 A 2.7,2.7 0 0,1 26.1,31 C 26.23,30.66 26.9,30.1 27.32,29.94 A 3,3 0 0,1 25,29.08 C 25.42,28.98 26.55,29.05 27.23,29.35 L 27.09,29.24 C 26.53,28.77 25.55,27.94 25.19,26.3 A 7.5,7.5 0 0,1 27.74,29.01 C 27.74,28.93 27.72,28.83 27.7,28.71 Z" fill="rgb(254, 254, 253)"/>
</svg>
