<?xml version="1.0" encoding="UTF-8"?>
<!-- generated by Finnhub -->
<svg viewBox="0 0 55.5 55.5" xmlns="http://www.w3.org/2000/svg">
<path d="M 0,0 H 55.5 V 55.5 H 0 Z" fill="rgb(239, 242, 248)"/>
<path d="M 46.97,31.985 L 46,26 H 47.25 L 47.81,29.9 L 48.47,26 H 49.58 L 50.21,29.93 L 50.82,26 H 52 L 51,32 H 49.73 L 49.03,28.21 L 48.28,32 H 46.98 Z M 43.5,32 C 43.04,32 42.67,31.92 42.38,31.77 C 42.08,31.61 41.86,31.37 41.71,31.07 C 41.57,30.77 41.5,30.41 41.5,29.97 V 28.02 C 41.5,26.79 42.24,26 43.5,26 C 44.74,26 45.5,26.78 45.5,28.02 V 29.98 C 45.5,30.41 45.42,30.78 45.27,31.08 C 45.13,31.38 44.91,31.61 44.61,31.77 C 44.31,31.92 43.95,32 43.49,32 Z M 43.5,31 C 44.04,31 44,30.47 44,30.07 V 27.93 C 44,27.53 44.04,27 43.5,27 C 42.98,27 43,27.53 43,27.93 V 30.07 C 43,30.47 42.96,31 43.5,31 Z M 38,32 V 26.07 H 39.44 V 26.98 C 39.65,26.64 39.87,26.38 40.08,26.24 A 1.15,1.15 0 0,1 41,26.02 V 27.47 A 1.55,1.55 0 0,0 40.71,27.38 C 40.61,27.36 40.51,27.34 40.41,27.34 C 40.21,27.34 40.04,27.39 39.89,27.48 C 39.73,27.57 39.59,27.71 39.44,27.92 V 32 H 38 Z M 34.35,32 C 33.76,32 33.3,31.88 32.96,31.63 C 32.62,31.39 32.37,31.03 32.22,30.59 A 5.29,5.29 0 0,1 32,28.99 V 26.04 C 32,25.41 32.07,24.87 32.22,24.41 C 32.36,23.95 32.62,23.61 32.98,23.37 C 33.35,23.12 33.86,23 34.51,23 C 35.11,23 35.6,23.1 35.95,23.3 C 36.31,23.5 36.56,23.8 36.72,24.18 C 36.88,24.56 36.96,25.02 36.96,25.56 V 26 H 35.42 V 25.52 C 35.42,25.23 35.4,24.99 35.35,24.79 A 0.73,0.73 0 0,0 35.11,24.33 C 34.99,24.23 34.81,24.17 34.53,24.17 C 34.25,24.17 34.04,24.24 33.91,24.37 C 33.79,24.51 33.71,24.7 33.67,24.92 C 33.64,25.14 33.63,25.39 33.63,25.66 V 29.33 C 33.63,29.63 33.65,29.9 33.7,30.13 C 33.75,30.35 33.85,30.53 33.99,30.64 A 0.9,0.9 0 0,0 34.58,30.82 C 34.84,30.82 35.04,30.75 35.18,30.62 C 35.32,30.49 35.41,30.32 35.46,30.08 C 35.52,29.85 35.55,29.58 35.55,29.26 V 28 H 34.6 V 27 H 37 V 32 H 35.96 L 35.84,31.01 C 35.73,31.31 35.54,31.54 35.31,31.73 C 35.08,31.91 34.75,32 34.35,32 Z M 26.33,32 A 1.25,1.25 0 0,1 25.16,31.28 A 1.82,1.82 0 0,1 25.21,29.7 C 25.36,29.45 25.54,29.24 25.78,29.07 C 26.01,28.9 26.28,28.76 26.58,28.64 C 26.88,28.51 27.18,28.4 27.48,28.3 V 27.8 C 27.48,27.62 27.48,27.48 27.44,27.37 A 0.43,0.43 0 0,0 27.3,27.11 C 27.24,27.05 27.14,27.01 27,27.01 A 0.52,0.52 0 0,0 26.7,27.1 A 0.48,0.48 0 0,0 26.54,27.33 C 26.51,27.43 26.49,27.53 26.48,27.66 L 26.46,28.01 L 25.09,27.96 C 25.11,27.29 25.29,26.8 25.61,26.48 C 25.94,26.16 26.45,26 27.12,26 C 27.74,26 28.19,26.16 28.47,26.48 C 28.75,26.81 28.89,27.24 28.89,27.79 V 30.48 A 14.47,14.47 0 0,0 28.95,31.54 L 29,32 H 27.7 C 27.68,31.87 27.65,31.62 27.61,31.46 L 27.55,31.07 C 27.48,31.31 27.35,31.52 27.15,31.72 C 26.95,31.91 26.67,32 26.33,32 Z M 26.87,30.98 C 26.96,30.98 27.04,30.96 27.12,30.92 A 1.1,1.1 0 0,0 27.49,30.6 V 28.98 L 27.04,29.24 C 26.9,29.33 26.78,29.43 26.67,29.54 C 26.57,29.64 26.5,29.74 26.44,29.87 A 1.1,1.1 0 0,0 26.37,30.29 C 26.37,30.5 26.41,30.67 26.49,30.8 C 26.59,30.92 26.71,30.98 26.87,30.98 Z M 20,32 V 26 H 21.45 V 26.68 C 21.68,26.48 21.91,26.32 22.15,26.19 C 22.4,26.06 22.67,26 22.95,26 C 23.21,26 23.41,26.06 23.56,26.18 C 23.71,26.3 23.82,26.46 23.89,26.65 C 23.96,26.85 24,27.07 24,27.3 V 32 H 22.55 V 27.57 A 0.8,0.8 0 0,0 22.46,27.17 C 22.4,27.07 22.29,27.02 22.13,27.02 C 22.03,27.02 21.92,27.05 21.8,27.1 L 21.45,27.3 V 32 H 20 Z M 15,32 V 26 H 16.45 V 26.68 C 16.68,26.48 16.91,26.32 17.15,26.19 C 17.4,26.06 17.67,26 17.95,26 C 18.21,26 18.41,26.06 18.56,26.18 C 18.71,26.3 18.82,26.46 18.89,26.65 C 18.96,26.85 19,27.07 19,27.3 V 32 H 17.55 V 27.57 A 0.8,0.8 0 0,0 17.46,27.17 C 17.4,27.07 17.29,27.02 17.13,27.02 C 17.03,27.02 16.92,27.05 16.8,27.1 L 16.45,27.3 V 32 H 15 Z M 11.33,32 A 1.25,1.25 0 0,1 10.16,31.28 A 1.82,1.82 0 0,1 10.21,29.7 C 10.36,29.45 10.54,29.24 10.78,29.07 C 11.01,28.9 11.28,28.76 11.58,28.64 C 11.88,28.51 12.18,28.4 12.48,28.3 V 27.8 C 12.48,27.62 12.48,27.48 12.44,27.37 A 0.43,0.43 0 0,0 12.3,27.11 C 12.24,27.05 12.14,27.01 12,27.01 A 0.52,0.52 0 0,0 11.7,27.1 A 0.48,0.48 0 0,0 11.54,27.33 C 11.51,27.43 11.49,27.53 11.48,27.66 L 11.46,28.01 L 10.09,27.96 C 10.11,27.29 10.29,26.8 10.61,26.48 C 10.94,26.16 11.45,26 12.12,26 C 12.74,26 13.19,26.16 13.47,26.48 C 13.75,26.81 13.89,27.24 13.89,27.79 V 30.48 A 14.47,14.47 0 0,0 13.95,31.54 L 14,32 H 12.7 C 12.68,31.87 12.65,31.62 12.61,31.46 L 12.55,31.07 C 12.48,31.31 12.35,31.52 12.15,31.72 C 11.95,31.91 11.67,32 11.33,32 Z M 11.87,30.98 C 11.96,30.98 12.04,30.96 12.12,30.92 A 1.1,1.1 0 0,0 12.49,30.6 V 28.98 L 12.04,29.24 C 11.9,29.33 11.78,29.43 11.67,29.54 C 11.57,29.64 11.5,29.74 11.44,29.87 A 1.1,1.1 0 0,0 11.37,30.29 C 11.37,30.5 11.41,30.67 11.49,30.8 C 11.59,30.92 11.71,30.98 11.87,30.98 Z M 6.56,32 C 5.9,32 5.38,31.87 5,31.62 A 2,2 0 0,1 4.22,30.59 A 4.75,4.75 0 0,1 4,29.07 V 25.94 C 4,25.34 4.07,24.82 4.22,24.38 C 4.37,23.94 4.63,23.6 5,23.36 C 5.38,23.12 5.9,23 6.56,23 C 7.18,23 7.67,23.1 8.02,23.31 C 8.38,23.51 8.62,23.81 8.78,24.19 C 8.93,24.58 9,25.02 9,25.53 V 26 H 7.42 V 25.5 C 7.42,25.26 7.4,25.03 7.37,24.83 A 0.76,0.76 0 0,0 7.17,24.36 C 7.05,24.23 6.85,24.17 6.57,24.17 C 6.29,24.17 6.08,24.24 5.95,24.37 A 0.9,0.9 0 0,0 5.7,24.87 C 5.67,25.09 5.65,25.32 5.65,25.59 V 29.41 C 5.65,29.73 5.67,29.99 5.73,30.2 C 5.78,30.4 5.87,30.56 6,30.67 C 6.15,30.77 6.33,30.82 6.57,30.82 C 6.85,30.82 7.04,30.76 7.15,30.63 C 7.27,30.5 7.35,30.33 7.37,30.13 C 7.4,29.91 7.42,29.68 7.42,29.42 V 29 H 9 V 29.33 C 9,29.85 8.93,30.32 8.79,30.73 C 8.65,31.12 8.39,31.43 8.04,31.66 C 7.69,31.89 7.2,32 6.56,32 Z"/>
</svg>
