<?xml version="1.0" encoding="UTF-8"?>
<!-- generated by Finnhub -->
<svg viewBox="0 0 55.5 55.5" xmlns="http://www.w3.org/2000/svg">
<path d="M 0,0 H 55.5 V 55.5 H 0 Z" fill="url(#b)"/>
<path d="M 38.410000000000004,13.084999999999999 A 0.53,0.53 0 0,0 38,13.6 C 38,24 38.02,33.9 38,43.25 A 0.7,0.7 0 0,1 37.74,43.8 C 37.41,44.1 36.48,43.97 36.04,43.98 C 35.72,43.98 35.54,43.82 35.51,43.47 C 35.42,42.49 37.18,43.27 37,42.19 V 13.84 C 37,13.3 36.56,13 36.05,13 C 35.55,13 34,12.9 34,13.68 V 43.82 C 34,43.92 33.98,44 33.87,44 H 22.24 C 22.19,44 22.14,43.96 22.1,43.93 C 22.07,43.89 22,43.83 22,43.79 V 13.7 C 22,12.9 20.15,13 19.55,13.06 A 0.58,0.58 0 0,0 19,13.66 V 42.33 C 19,42.8 19.72,42.94 20.12,42.91 C 20.52,42.88 20.69,43.27 20.62,43.61 C 20.59,43.71 20.53,43.81 20.45,43.87 A 0.49,0.49 0 0,1 20.16,44 H 18.7 C 17.9,44 18,42.66 18,42.11 V 14.17 C 18,13.87 18,13.05 17.53,13 H 16.6 C 16.21,13.03 16,13.3 16,13.69 V 42.49 C 16.02,42.76 16.21,42.89 16.48,42.9 L 17.09,42.91 A 0.37,0.37 0 0,1 17.45,43.21 C 17.48,43.36 17.49,43.51 17.46,43.65 A 0.39,0.39 0 0,1 17.34,43.87 C 17.27,43.93 17.19,44 17.1,44 H 15.73 C 15.13,43.97 15,43.48 15,42.97 V 12.9 C 15,12.42 15.31,12 15.8,12 H 40.16 C 41.06,12 41,12.77 41,13.54 V 43.16 C 41,43.4 40.9,43.62 40.7,43.81 C 40.38,44.1 39.67,43.97 39.27,43.98 A 0.24,0.24 0 0,1 39.03,43.85 A 0.8,0.8 0 0,1 38.98,43.23 C 39.14,42.68 40,43.01 40,42.28 V 13.96 C 40,13.64 39.95,13.14 39.53,13.09 C 39.03,13.02 38.78,13.03 38.42,13.09 Z M 23.47,24.57 C 25.25,23.7 25.91,21.94 26,19.96 V 13.66 C 25.99,13.28 25.78,13.02 25.41,13 H 23.7 C 23.28,13.01 23.01,13.27 23.01,13.7 V 24.05 C 23.01,24.17 23.08,24.29 23.11,24.4 A 0.27,0.27 0 0,0 23.25,24.58 A 0.26,0.26 0 0,0 23.48,24.58 Z M 28.95,13.55 C 28.95,13.29 28.73,13 28.47,13 H 27.57 C 27.31,13 27.09,13.25 27.08,13.51 V 13.57 C 27.08,13.83 27.3,14 27.56,14 H 28.46 C 28.66,14 28.83,13.97 28.91,13.79 A 0.49,0.49 0 0,0 28.95,13.6 V 13.55 Z M 32.52,13 H 30.56 C 30.29,13 30,13.31 30,13.56 V 19.59 C 30.05,21.74 30.75,23.36 32.56,24.45 C 32.71,24.54 32.84,24.51 32.94,24.37 C 32.98,24.32 33,24.27 33,24.2 V 13.8 C 33,13.48 32.9,13 32.52,13 Z M 23.6,25.78 C 23.24,25.95 23,26.28 23,26.68 V 29.44 C 23,29.59 23.13,29.74 23.23,29.84 C 23.34,29.94 23.48,30 23.63,30 H 32.43 C 32.74,30 33,29.73 33,29.42 V 26.57 C 33,26.23 32.84,25.89 32.53,25.72 C 30.13,24.49 28.97,22.28 29,19.58 V 15.74 C 29,15.37 28.82,15.16 28.46,15.11 C 28.02,15.05 27.01,14.89 27,15.65 V 19.02 C 27.05,21.47 25.99,24.61 23.6,25.78 Z M 33,31.63 A 0.62,0.62 0 0,0 32.8,31.21 C 32.7,31.09 32.55,31 32.39,31 H 23.66 C 23.5,31 23.35,31.1 23.24,31.2 C 23.13,31.32 23,31.47 23,31.63 V 37.39 C 23,37.55 23.13,37.71 23.24,37.82 A 0.6,0.6 0 0,0 23.66,38 H 32.39 A 0.6,0.6 0 0,0 32.81,37.82 C 32.92,37.71 33,37.55 33,37.39 V 31.63 Z M 33,39.61 A 0.61,0.61 0 0,0 32.39,39 H 23.67 A 0.6,0.6 0 0,0 23.24,39.18 C 23.13,39.29 23,39.45 23,39.61 V 42.36 C 23,42.52 23.13,42.68 23.24,42.8 C 23.36,42.91 23.51,43 23.67,43 H 32.39 C 32.55,43 32.71,42.91 32.82,42.8 A 0.61,0.61 0 0,0 33,42.36 V 39.61 Z" fill="url(#a)"/>
<defs>
<linearGradient id="b" x1="10.42" x2="68.15" y1="9.71" y2="76.02" gradientUnits="userSpaceOnUse">
<stop stop-color="rgb(25, 29, 31)" offset="0"/>
<stop stop-color="rgb(5, 5, 8)" offset="1"/>
</linearGradient>
<linearGradient id="a" x1="15" x2="41" y1="28" y2="28" gradientUnits="userSpaceOnUse">
<stop stop-color="rgb(133, 88, 47)" offset="0"/>
<stop stop-color="rgb(172, 124, 74)" offset="1"/>
</linearGradient>
</defs>
</svg>
