<?xml version="1.0" encoding="UTF-8"?>
<!-- generated by Finnhub -->
<svg viewBox="0 0 55.5 55.5" xmlns="http://www.w3.org/2000/svg">
<path d="M 0,0 H 55.5 V 55.5 H 0 Z" fill="rgb(239, 242, 248)"/>
<path d="M 28.99,23.985 H 31.5 V 33 H 29 V 24 Z"/>
<path d="M 32.690000000000005,22.985 L 27,33 H 15 V 28.64 H 20.5 L 20,24.36 L 17.64,23 H 32.7 Z" fill="rgb(116, 117, 119)"/>
<path d="M 6.99,27.755 L 4,23 H 7 L 8.5,25.5 L 10,23 H 13 L 10,27.73 L 13,33 H 10 L 8.5,30.46 L 7,33 H 4 L 7,27.77 Z M 14,23 H 17.95 C 20.16,23 22,24.13 22,26.5 C 22,28.85 20.3,30 18.06,30 H 16.5 V 33 H 14 V 23 Z M 16.5,28 H 18.41 C 19.26,28 20,27.64 20,26.5 C 20,25.36 18.92,25 18.05,25 H 16.5 V 28 Z M 33,25 H 35.5 V 26.25 S 35.91,25 37.3,25 C 39.52,25 40,26.53 40,28.7 V 33 H 37.5 V 29.06 C 37.5,28.13 37.37,27 36.59,27 C 35.65,27 35.5,27.93 35.5,29 V 33 H 33 V 25 Z M 46,28 C 45.76,27.63 45.56,27 44.97,27 C 43.86,27 43.5,27.83 43.5,29 S 43.86,31 44.97,31 C 45.5,31 46.07,30.46 46.3,30 L 48,31.18 C 47.4,32.04 46.5,33 44.97,33 C 42.54,33 41,31.43 41,29 C 41,26.6 42.49,25 44.97,25 C 46,25 47.48,25.7 48,26.63 L 46,28 Z M 50.5,30 A 1.5,1.5 0 1,1 50.5,33 A 1.5,1.5 0 0,1 50.5,30 Z"/>
</svg>
