<?xml version="1.0" encoding="UTF-8"?>
<!-- generated by Finnhub -->
<svg viewBox="0 0 55.5 55.5" xmlns="http://www.w3.org/2000/svg">
<path d="M 0,0 H 55.5 V 55.5 H 0 Z" fill="rgb(23, 26, 28)"/>
<path d="M 51.32,22.685 H 5.96 C 5.25,22.7 4.66,23.3 4.66,24.04 V 32.31 H 50.04 C 50.75,32.31 51.34,31.71 51.34,30.96 V 22.7 Z M 5.96,22 A 2,2 0 0,0 4,24.04 V 33 H 50.04 A 2,2 0 0,0 52,30.96 V 22 H 5.96 Z" fill="rgb(254, 254, 253)" fill-rule="evenodd"/>
<path d="M 39.760000000000005,24.985 H 41 L 38.23,30 H 37 L 39.77,25 Z" fill="rgb(1, 231, 120)"/>
<path d="M 41.760000000000005,24.985 H 43 L 40.23,30 H 39 L 41.77,25 Z" fill="rgb(1, 171, 109)"/>
<path d="M 47.99,24.985 H 49 V 30 H 48 Z M 44.23,25.1 L 46.99,29.9 C 47.02,29.94 46.97,30 46.89,30 H 45.92 A 0.23,0.23 0 0,1 45.72,29.9 L 45.09,28.74 H 42.89 L 42.29,29.89 A 0.23,0.23 0 0,1 42.08,30 H 41.1 C 41.03,30 40.98,29.94 41,29.9 L 43.77,25.1 C 43.8,25.04 43.88,25 43.97,25 H 44.02 C 44.12,25 44.19,25.04 44.23,25.1 Z M 44,26.7 L 43.3,28.02 H 44.7 L 44,26.69 Z M 29,29.89 V 25.79 H 27.15 C 27.07,25.79 27,25.74 27,25.67 V 25.11 C 27,25.05 27.07,25 27.15,25 H 31.85 C 31.93,25 32,25.05 32,25.11 V 25.67 C 32,25.74 31.93,25.79 31.85,25.79 H 30 V 29.89 C 30,29.95 29.93,30 29.85,30 H 29.15 C 29.07,30 29,29.95 29,29.89 Z M 34.23,25.1 L 36.99,29.9 C 37.02,29.94 36.97,30 36.89,30 H 35.92 A 0.23,0.23 0 0,1 35.72,29.9 L 35.09,28.74 H 32.89 L 32.29,29.89 A 0.23,0.23 0 0,1 32.08,30 H 31.1 C 31.03,30 30.98,29.94 31,29.9 L 33.77,25.1 C 33.8,25.04 33.88,25 33.97,25 H 34.02 C 34.12,25 34.19,25.04 34.23,25.1 Z M 34,26.7 L 33.3,28.02 H 34.7 L 34,26.69 Z M 25.23,25.1 L 27.99,29.9 C 28.02,29.94 27.97,30 27.89,30 H 26.92 A 0.23,0.23 0 0,1 26.72,29.9 L 26.09,28.74 H 23.89 L 23.29,29.89 A 0.23,0.23 0 0,1 23.08,30 H 22.1 C 22.03,30 21.98,29.94 22,29.9 L 24.77,25.1 C 24.8,25.04 24.88,25 24.97,25 H 25.02 C 25.12,25 25.19,25.04 25.23,25.1 Z M 25,26.7 L 24.3,28.02 H 25.7 L 25,26.69 Z M 19.2,28.2 V 29.89 C 19.2,29.95 19.14,30 19.05,30 H 18.15 C 18.07,30 18,29.95 18,29.89 V 25.1 C 18,25.04 18.07,24.99 18.16,24.99 H 20.58 C 22.44,24.99 23,25.93 23,26.59 C 23,27.55 21.83,28.19 20.72,28.19 H 19.2 Z M 20.67,27.4 C 21.59,27.4 21.8,26.85 21.8,26.6 C 21.8,26.31 21.6,25.78 20.63,25.78 H 19.2 V 27.41 H 20.67 Z" fill="rgb(254, 254, 253)"/>
<path d="M 15.22,25.085 L 17.99,29.9 C 18.02,29.94 17.97,30 17.89,30 H 16.92 A 0.23,0.23 0 0,1 16.72,29.9 L 16.09,28.74 H 13.89 L 13.29,29.89 A 0.23,0.23 0 0,1 13.08,30 H 12.1 C 12.03,30 11.98,29.94 12,29.9 L 14.77,25.1 C 14.8,25.04 14.88,25 14.97,25 H 15.02 C 15.12,25 15.19,25.04 15.23,25.1 Z M 15,26.7 L 14.3,28.02 H 15.7 L 15,26.69 Z" fill="rgb(254, 254, 253)"/>
<path d="M 8.69,29.195 H 11.84 C 11.94,29.21 12,29.26 12,29.33 V 29.89 C 12,29.95 11.93,30 11.84,30 H 7.16 C 7.06,30 7,29.95 7,29.89 V 29.82 C 7,29.75 7.03,29.67 7.08,29.61 L 10.17,25.78 H 7.27 C 7.17,25.78 7.11,25.73 7.11,25.66 V 25.11 C 7.11,25.05 7.18,25 7.26,25 H 11.76 C 11.86,25 11.92,25.05 11.92,25.11 C 11.92,25.19 11.89,25.26 11.84,25.33 L 8.7,29.2 Z" fill="rgb(254, 254, 253)"/>
</svg>
